<?xml version="1.0" encoding="utf-8" standalone="no"?>
<!DOCTYPE svg PUBLIC "-//W3C//DTD SVG 1.1//EN"
  "http://www.w3.org/Graphics/SVG/1.1/DTD/svg11.dtd">
<!-- Created with matplotlib (https://matplotlib.org/) -->
<svg height="310.86825pt" version="1.1" viewBox="0 0 414.46375 310.86825" width="414.46375pt" xmlns="http://www.w3.org/2000/svg" xmlns:xlink="http://www.w3.org/1999/xlink">
 <metadata>
  <rdf:RDF xmlns:cc="http://creativecommons.org/ns#" xmlns:dc="http://purl.org/dc/elements/1.1/" xmlns:rdf="http://www.w3.org/1999/02/22-rdf-syntax-ns#">
   <cc:Work>
    <dc:type rdf:resource="http://purl.org/dc/dcmitype/StillImage"/>
    <dc:date>2022-04-11T19:50:17.291760</dc:date>
    <dc:format>image/svg+xml</dc:format>
    <dc:creator>
     <cc:Agent>
      <dc:title>Matplotlib v3.3.4, https://matplotlib.org/</dc:title>
     </cc:Agent>
    </dc:creator>
   </cc:Work>
  </rdf:RDF>
 </metadata>
 <defs>
  <style type="text/css">*{stroke-linecap:butt;stroke-linejoin:round;}</style>
 </defs>
 <g id="figure_1">
  <g id="patch_1">
   <path d="M 0 310.86825 
L 414.46375 310.86825 
L 414.46375 0 
L 0 0 
z
" style="fill:#ffffff;"/>
  </g>
  <g id="axes_1">
   <g id="patch_2">
    <path d="M 50.14375 273.312 
L 407.26375 273.312 
L 407.26375 7.2 
L 50.14375 7.2 
z
" style="fill:#ffffff;"/>
   </g>
   <g id="PathCollection_1">
    <path clip-path="url(#p28e714bd79)" d="M 66.376477 81.964966 
C 67.172087 81.964966 67.935217 81.648867 68.497798 81.086286 
C 69.060378 80.523705 69.376477 79.760575 69.376477 78.964966 
C 69.376477 78.169356 69.060378 77.406226 68.497798 76.843645 
C 67.935217 76.281064 67.172087 75.964966 66.376477 75.964966 
C 65.580868 75.964966 64.817738 76.281064 64.255157 76.843645 
C 63.692576 77.406226 63.376477 78.169356 63.376477 78.964966 
C 63.376477 79.760575 63.692576 80.523705 64.255157 81.086286 
C 64.817738 81.648867 65.580868 81.964966 66.376477 81.964966 
z
" style="fill:#f26b38;stroke:#ffffff;stroke-width:0.48;"/>
    <path clip-path="url(#p28e714bd79)" d="M 73.140114 107.298105 
C 73.935723 107.298105 74.698853 106.982006 75.261434 106.419426 
C 75.824015 105.856845 76.140114 105.093715 76.140114 104.298105 
C 76.140114 103.502496 75.824015 102.739366 75.261434 102.176785 
C 74.698853 101.614204 73.935723 101.298105 73.140114 101.298105 
C 72.344504 101.298105 71.581374 101.614204 71.018793 102.176785 
C 70.456213 102.739366 70.140114 103.502496 70.140114 104.298105 
C 70.140114 105.093715 70.456213 105.856845 71.018793 106.419426 
C 71.581374 106.982006 72.344504 107.298105 73.140114 107.298105 
z
" style="fill:#f26b38;stroke:#ffffff;stroke-width:0.48;"/>
    <path clip-path="url(#p28e714bd79)" d="M 79.90375 107.298105 
C 80.699359 107.298105 81.46249 106.982006 82.02507 106.419426 
C 82.587651 105.856845 82.90375 105.093715 82.90375 104.298105 
C 82.90375 103.502496 82.587651 102.739366 82.02507 102.176785 
C 81.46249 101.614204 80.699359 101.298105 79.90375 101.298105 
C 79.108141 101.298105 78.34501 101.614204 77.78243 102.176785 
C 77.219849 102.739366 76.90375 103.502496 76.90375 104.298105 
C 76.90375 105.093715 77.219849 105.856845 77.78243 106.419426 
C 78.34501 106.982006 79.108141 107.298105 79.90375 107.298105 
z
" style="fill:#f26b38;stroke:#ffffff;stroke-width:0.48;"/>
    <path clip-path="url(#p28e714bd79)" d="M 86.667386 107.298105 
C 87.462996 107.298105 88.226126 106.982006 88.788707 106.419426 
C 89.351287 105.856845 89.667386 105.093715 89.667386 104.298105 
C 89.667386 103.502496 89.351287 102.739366 88.788707 102.176785 
C 88.226126 101.614204 87.462996 101.298105 86.667386 101.298105 
C 85.871777 101.298105 85.108647 101.614204 84.546066 102.176785 
C 83.983485 102.739366 83.667386 103.502496 83.667386 104.298105 
C 83.667386 105.093715 83.983485 105.856845 84.546066 106.419426 
C 85.108647 106.982006 85.871777 107.298105 86.667386 107.298105 
z
" style="fill:#f26b38;stroke:#ffffff;stroke-width:0.48;"/>
    <path clip-path="url(#p28e714bd79)" d="M 93.431023 107.298105 
C 94.226632 107.298105 94.989762 106.982006 95.552343 106.419426 
C 96.114924 105.856845 96.431023 105.093715 96.431023 104.298105 
C 96.431023 103.502496 96.114924 102.739366 95.552343 102.176785 
C 94.989762 101.614204 94.226632 101.298105 93.431023 101.298105 
C 92.635413 101.298105 91.872283 101.614204 91.309702 102.176785 
C 90.747122 102.739366 90.431023 103.502496 90.431023 104.298105 
C 90.431023 105.093715 90.747122 105.856845 91.309702 106.419426 
C 91.872283 106.982006 92.635413 107.298105 93.431023 107.298105 
z
" style="fill:#f26b38;stroke:#ffffff;stroke-width:0.48;"/>
    <path clip-path="url(#p28e714bd79)" d="M 100.194659 133.536 
C 100.990268 133.536 101.753399 133.219901 102.315979 132.65732 
C 102.87856 132.09474 103.194659 131.331609 103.194659 130.536 
C 103.194659 129.740391 102.87856 128.97726 102.315979 128.41468 
C 101.753399 127.852099 100.990268 127.536 100.194659 127.536 
C 99.39905 127.536 98.635919 127.852099 98.073339 128.41468 
C 97.510758 128.97726 97.194659 129.740391 97.194659 130.536 
C 97.194659 131.331609 97.510758 132.09474 98.073339 132.65732 
C 98.635919 133.219901 99.39905 133.536 100.194659 133.536 
z
" style="fill:#f26b38;stroke:#ffffff;stroke-width:0.48;"/>
    <path clip-path="url(#p28e714bd79)" d="M 106.958295 45.561882 
C 107.753905 45.561882 108.517035 45.245783 109.079616 44.683203 
C 109.642197 44.120622 109.958295 43.357492 109.958295 42.561882 
C 109.958295 41.766273 109.642197 41.003143 109.079616 40.440562 
C 108.517035 39.877981 107.753905 39.561882 106.958295 39.561882 
C 106.162686 39.561882 105.399556 39.877981 104.836975 40.440562 
C 104.274394 41.003143 103.958295 41.766273 103.958295 42.561882 
C 103.958295 43.357492 104.274394 44.120622 104.836975 44.683203 
C 105.399556 45.245783 106.162686 45.561882 106.958295 45.561882 
z
" style="fill:#f26b38;stroke:#ffffff;stroke-width:0.48;"/>
    <path clip-path="url(#p28e714bd79)" d="M 113.721932 45.561882 
C 114.517541 45.561882 115.280671 45.245783 115.843252 44.683203 
C 116.405833 44.120622 116.721932 43.357492 116.721932 42.561882 
C 116.721932 41.766273 116.405833 41.003143 115.843252 40.440562 
C 115.280671 39.877981 114.517541 39.561882 113.721932 39.561882 
C 112.926323 39.561882 112.163192 39.877981 111.600611 40.440562 
C 111.038031 41.003143 110.721932 41.766273 110.721932 42.561882 
C 110.721932 43.357492 111.038031 44.120622 111.600611 44.683203 
C 112.163192 45.245783 112.926323 45.561882 113.721932 45.561882 
z
" style="fill:#f26b38;stroke:#ffffff;stroke-width:0.48;"/>
    <path clip-path="url(#p28e714bd79)" d="M 120.485568 45.561882 
C 121.281177 45.561882 122.044308 45.245783 122.606889 44.683203 
C 123.169469 44.120622 123.485568 43.357492 123.485568 42.561882 
C 123.485568 41.766273 123.169469 41.003143 122.606889 40.440562 
C 122.044308 39.877981 121.281177 39.561882 120.485568 39.561882 
C 119.689959 39.561882 118.926829 39.877981 118.364248 40.440562 
C 117.801667 41.003143 117.485568 41.766273 117.485568 42.561882 
C 117.485568 43.357492 117.801667 44.120622 118.364248 44.683203 
C 118.926829 45.245783 119.689959 45.561882 120.485568 45.561882 
z
" style="fill:#f26b38;stroke:#ffffff;stroke-width:0.48;"/>
    <path clip-path="url(#p28e714bd79)" d="M 127.249205 69.623179 
C 128.044814 69.623179 128.807944 69.307081 129.370525 68.7445 
C 129.933106 68.181919 130.249205 67.418789 130.249205 66.623179 
C 130.249205 65.82757 129.933106 65.06444 129.370525 64.501859 
C 128.807944 63.939278 128.044814 63.623179 127.249205 63.623179 
C 126.453595 63.623179 125.690465 63.939278 125.127884 64.501859 
C 124.565303 65.06444 124.249205 65.82757 124.249205 66.623179 
C 124.249205 67.418789 124.565303 68.181919 125.127884 68.7445 
C 125.690465 69.307081 126.453595 69.623179 127.249205 69.623179 
z
" style="fill:#f26b38;stroke:#ffffff;stroke-width:0.48;"/>
    <path clip-path="url(#p28e714bd79)" d="M 134.012841 81.964966 
C 134.80845 81.964966 135.571581 81.648867 136.134161 81.086286 
C 136.696742 80.523705 137.012841 79.760575 137.012841 78.964966 
C 137.012841 78.169356 136.696742 77.406226 136.134161 76.843645 
C 135.571581 76.281064 134.80845 75.964966 134.012841 75.964966 
C 133.217232 75.964966 132.454101 76.281064 131.891521 76.843645 
C 131.32894 77.406226 131.012841 78.169356 131.012841 78.964966 
C 131.012841 79.760575 131.32894 80.523705 131.891521 81.086286 
C 132.454101 81.648867 133.217232 81.964966 134.012841 81.964966 
z
" style="fill:#f26b38;stroke:#ffffff;stroke-width:0.48;"/>
    <path clip-path="url(#p28e714bd79)" d="M 140.776477 120.300956 
C 141.572087 120.300956 142.335217 119.984857 142.897798 119.422276 
C 143.460378 118.859695 143.776477 118.096565 143.776477 117.300956 
C 143.776477 116.505346 143.460378 115.742216 142.897798 115.179635 
C 142.335217 114.617055 141.572087 114.300956 140.776477 114.300956 
C 139.980868 114.300956 139.217738 114.617055 138.655157 115.179635 
C 138.092576 115.742216 137.776477 116.505346 137.776477 117.300956 
C 137.776477 118.096565 138.092576 118.859695 138.655157 119.422276 
C 139.217738 119.984857 139.980868 120.300956 140.776477 120.300956 
z
" style="fill:#f26b38;stroke:#ffffff;stroke-width:0.48;"/>
    <path clip-path="url(#p28e714bd79)" d="M 147.540114 160.728 
C 148.335723 160.728 149.098853 160.411901 149.661434 159.84932 
C 150.224015 159.28674 150.540114 158.523609 150.540114 157.728 
C 150.540114 156.932391 150.224015 156.16926 149.661434 155.60668 
C 149.098853 155.044099 148.335723 154.728 147.540114 154.728 
C 146.744504 154.728 145.981374 155.044099 145.418793 155.60668 
C 144.856213 156.16926 144.540114 156.932391 144.540114 157.728 
C 144.540114 158.523609 144.856213 159.28674 145.418793 159.84932 
C 145.981374 160.411901 146.744504 160.728 147.540114 160.728 
z
" style="fill:#f26b38;stroke:#ffffff;stroke-width:0.48;"/>
    <path clip-path="url(#p28e714bd79)" d="M 154.30375 160.728 
C 155.099359 160.728 155.86249 160.411901 156.42507 159.84932 
C 156.987651 159.28674 157.30375 158.523609 157.30375 157.728 
C 157.30375 156.932391 156.987651 156.16926 156.42507 155.60668 
C 155.86249 155.044099 155.099359 154.728 154.30375 154.728 
C 153.508141 154.728 152.74501 155.044099 152.18243 155.60668 
C 151.619849 156.16926 151.30375 156.932391 151.30375 157.728 
C 151.30375 158.523609 151.619849 159.28674 152.18243 159.84932 
C 152.74501 160.411901 153.508141 160.728 154.30375 160.728 
z
" style="fill:#f26b38;stroke:#ffffff;stroke-width:0.48;"/>
    <path clip-path="url(#p28e714bd79)" d="M 161.067386 81.964966 
C 161.862996 81.964966 162.626126 81.648867 163.188707 81.086286 
C 163.751287 80.523705 164.067386 79.760575 164.067386 78.964966 
C 164.067386 78.169356 163.751287 77.406226 163.188707 76.843645 
C 162.626126 76.281064 161.862996 75.964966 161.067386 75.964966 
C 160.271777 75.964966 159.508647 76.281064 158.946066 76.843645 
C 158.383485 77.406226 158.067386 78.169356 158.067386 78.964966 
C 158.067386 79.760575 158.383485 80.523705 158.946066 81.086286 
C 159.508647 81.648867 160.271777 81.964966 161.067386 81.964966 
z
" style="fill:#f26b38;stroke:#ffffff;stroke-width:0.48;"/>
    <path clip-path="url(#p28e714bd79)" d="M 167.831023 81.964966 
C 168.626632 81.964966 169.389762 81.648867 169.952343 81.086286 
C 170.514924 80.523705 170.831023 79.760575 170.831023 78.964966 
C 170.831023 78.169356 170.514924 77.406226 169.952343 76.843645 
C 169.389762 76.281064 168.626632 75.964966 167.831023 75.964966 
C 167.035413 75.964966 166.272283 76.281064 165.709702 76.843645 
C 165.147122 77.406226 164.831023 78.169356 164.831023 78.964966 
C 164.831023 79.760575 165.147122 80.523705 165.709702 81.086286 
C 166.272283 81.648867 167.035413 81.964966 167.831023 81.964966 
z
" style="fill:#f26b38;stroke:#ffffff;stroke-width:0.48;"/>
    <path clip-path="url(#p28e714bd79)" d="M 174.594659 81.964966 
C 175.390268 81.964966 176.153399 81.648867 176.715979 81.086286 
C 177.27856 80.523705 177.594659 79.760575 177.594659 78.964966 
C 177.594659 78.169356 177.27856 77.406226 176.715979 76.843645 
C 176.153399 76.281064 175.390268 75.964966 174.594659 75.964966 
C 173.79905 75.964966 173.035919 76.281064 172.473339 76.843645 
C 171.910758 77.406226 171.594659 78.169356 171.594659 78.964966 
C 171.594659 79.760575 171.910758 80.523705 172.473339 81.086286 
C 173.035919 81.648867 173.79905 81.964966 174.594659 81.964966 
z
" style="fill:#f26b38;stroke:#ffffff;stroke-width:0.48;"/>
    <path clip-path="url(#p28e714bd79)" d="M 181.358295 81.964966 
C 182.153905 81.964966 182.917035 81.648867 183.479616 81.086286 
C 184.042197 80.523705 184.358295 79.760575 184.358295 78.964966 
C 184.358295 78.169356 184.042197 77.406226 183.479616 76.843645 
C 182.917035 76.281064 182.153905 75.964966 181.358295 75.964966 
C 180.562686 75.964966 179.799556 76.281064 179.236975 76.843645 
C 178.674394 77.406226 178.358295 78.169356 178.358295 78.964966 
C 178.358295 79.760575 178.674394 80.523705 179.236975 81.086286 
C 179.799556 81.648867 180.562686 81.964966 181.358295 81.964966 
z
" style="fill:#f26b38;stroke:#ffffff;stroke-width:0.48;"/>
    <path clip-path="url(#p28e714bd79)" d="M 188.121932 81.964966 
C 188.917541 81.964966 189.680671 81.648867 190.243252 81.086286 
C 190.805833 80.523705 191.121932 79.760575 191.121932 78.964966 
C 191.121932 78.169356 190.805833 77.406226 190.243252 76.843645 
C 189.680671 76.281064 188.917541 75.964966 188.121932 75.964966 
C 187.326323 75.964966 186.563192 76.281064 186.000611 76.843645 
C 185.438031 77.406226 185.121932 78.169356 185.121932 78.964966 
C 185.121932 79.760575 185.438031 80.523705 186.000611 81.086286 
C 186.563192 81.648867 187.326323 81.964966 188.121932 81.964966 
z
" style="fill:#f26b38;stroke:#ffffff;stroke-width:0.48;"/>
    <path clip-path="url(#p28e714bd79)" d="M 194.885568 81.964966 
C 195.681177 81.964966 196.444308 81.648867 197.006889 81.086286 
C 197.569469 80.523705 197.885568 79.760575 197.885568 78.964966 
C 197.885568 78.169356 197.569469 77.406226 197.006889 76.843645 
C 196.444308 76.281064 195.681177 75.964966 194.885568 75.964966 
C 194.089959 75.964966 193.326829 76.281064 192.764248 76.843645 
C 192.201667 77.406226 191.885568 78.169356 191.885568 78.964966 
C 191.885568 79.760575 192.201667 80.523705 192.764248 81.086286 
C 193.326829 81.648867 194.089959 81.964966 194.885568 81.964966 
z
" style="fill:#f26b38;stroke:#ffffff;stroke-width:0.48;"/>
    <path clip-path="url(#p28e714bd79)" d="M 201.649205 81.964966 
C 202.444814 81.964966 203.207944 81.648867 203.770525 81.086286 
C 204.333106 80.523705 204.649205 79.760575 204.649205 78.964966 
C 204.649205 78.169356 204.333106 77.406226 203.770525 76.843645 
C 203.207944 76.281064 202.444814 75.964966 201.649205 75.964966 
C 200.853595 75.964966 200.090465 76.281064 199.527884 76.843645 
C 198.965303 77.406226 198.649205 78.169356 198.649205 78.964966 
C 198.649205 79.760575 198.965303 80.523705 199.527884 81.086286 
C 200.090465 81.648867 200.853595 81.964966 201.649205 81.964966 
z
" style="fill:#f26b38;stroke:#ffffff;stroke-width:0.48;"/>
    <path clip-path="url(#p28e714bd79)" d="M 208.412841 81.964966 
C 209.20845 81.964966 209.971581 81.648867 210.534161 81.086286 
C 211.096742 80.523705 211.412841 79.760575 211.412841 78.964966 
C 211.412841 78.169356 211.096742 77.406226 210.534161 76.843645 
C 209.971581 76.281064 209.20845 75.964966 208.412841 75.964966 
C 207.617232 75.964966 206.854101 76.281064 206.291521 76.843645 
C 205.72894 77.406226 205.412841 78.169356 205.412841 78.964966 
C 205.412841 79.760575 205.72894 80.523705 206.291521 81.086286 
C 206.854101 81.648867 207.617232 81.964966 208.412841 81.964966 
z
" style="fill:#f26b38;stroke:#ffffff;stroke-width:0.48;"/>
    <path clip-path="url(#p28e714bd79)" d="M 215.176477 81.964966 
C 215.972087 81.964966 216.735217 81.648867 217.297798 81.086286 
C 217.860378 80.523705 218.176477 79.760575 218.176477 78.964966 
C 218.176477 78.169356 217.860378 77.406226 217.297798 76.843645 
C 216.735217 76.281064 215.972087 75.964966 215.176477 75.964966 
C 214.380868 75.964966 213.617738 76.281064 213.055157 76.843645 
C 212.492576 77.406226 212.176477 78.169356 212.176477 78.964966 
C 212.176477 79.760575 212.492576 80.523705 213.055157 81.086286 
C 213.617738 81.648867 214.380868 81.964966 215.176477 81.964966 
z
" style="fill:#f26b38;stroke:#ffffff;stroke-width:0.48;"/>
    <path clip-path="url(#p28e714bd79)" d="M 221.940114 81.964966 
C 222.735723 81.964966 223.498853 81.648867 224.061434 81.086286 
C 224.624015 80.523705 224.940114 79.760575 224.940114 78.964966 
C 224.940114 78.169356 224.624015 77.406226 224.061434 76.843645 
C 223.498853 76.281064 222.735723 75.964966 221.940114 75.964966 
C 221.144504 75.964966 220.381374 76.281064 219.818793 76.843645 
C 219.256213 77.406226 218.940114 78.169356 218.940114 78.964966 
C 218.940114 79.760575 219.256213 80.523705 219.818793 81.086286 
C 220.381374 81.648867 221.144504 81.964966 221.940114 81.964966 
z
" style="fill:#f26b38;stroke:#ffffff;stroke-width:0.48;"/>
    <path clip-path="url(#p28e714bd79)" d="M 228.70375 120.300956 
C 229.499359 120.300956 230.26249 119.984857 230.82507 119.422276 
C 231.387651 118.859695 231.70375 118.096565 231.70375 117.300956 
C 231.70375 116.505346 231.387651 115.742216 230.82507 115.179635 
C 230.26249 114.617055 229.499359 114.300956 228.70375 114.300956 
C 227.908141 114.300956 227.14501 114.617055 226.58243 115.179635 
C 226.019849 115.742216 225.70375 116.505346 225.70375 117.300956 
C 225.70375 118.096565 226.019849 118.859695 226.58243 119.422276 
C 227.14501 119.984857 227.908141 120.300956 228.70375 120.300956 
z
" style="fill:#f26b38;stroke:#ffffff;stroke-width:0.48;"/>
    <path clip-path="url(#p28e714bd79)" d="M 235.467386 133.536 
C 236.262996 133.536 237.026126 133.219901 237.588707 132.65732 
C 238.151287 132.09474 238.467386 131.331609 238.467386 130.536 
C 238.467386 129.740391 238.151287 128.97726 237.588707 128.41468 
C 237.026126 127.852099 236.262996 127.536 235.467386 127.536 
C 234.671777 127.536 233.908647 127.852099 233.346066 128.41468 
C 232.783485 128.97726 232.467386 129.740391 232.467386 130.536 
C 232.467386 131.331609 232.783485 132.09474 233.346066 132.65732 
C 233.908647 133.219901 234.671777 133.536 235.467386 133.536 
z
" style="fill:#f26b38;stroke:#ffffff;stroke-width:0.48;"/>
    <path clip-path="url(#p28e714bd79)" d="M 242.231023 133.536 
C 243.026632 133.536 243.789762 133.219901 244.352343 132.65732 
C 244.914924 132.09474 245.231023 131.331609 245.231023 130.536 
C 245.231023 129.740391 244.914924 128.97726 244.352343 128.41468 
C 243.789762 127.852099 243.026632 127.536 242.231023 127.536 
C 241.435413 127.536 240.672283 127.852099 240.109702 128.41468 
C 239.547122 128.97726 239.231023 129.740391 239.231023 130.536 
C 239.231023 131.331609 239.547122 132.09474 240.109702 132.65732 
C 240.672283 133.219901 241.435413 133.536 242.231023 133.536 
z
" style="fill:#f26b38;stroke:#ffffff;stroke-width:0.48;"/>
    <path clip-path="url(#p28e714bd79)" d="M 248.994659 133.536 
C 249.790268 133.536 250.553399 133.219901 251.115979 132.65732 
C 251.67856 132.09474 251.994659 131.331609 251.994659 130.536 
C 251.994659 129.740391 251.67856 128.97726 251.115979 128.41468 
C 250.553399 127.852099 249.790268 127.536 248.994659 127.536 
C 248.19905 127.536 247.435919 127.852099 246.873339 128.41468 
C 246.310758 128.97726 245.994659 129.740391 245.994659 130.536 
C 245.994659 131.331609 246.310758 132.09474 246.873339 132.65732 
C 247.435919 133.219901 248.19905 133.536 248.994659 133.536 
z
" style="fill:#f26b38;stroke:#ffffff;stroke-width:0.48;"/>
    <path clip-path="url(#p28e714bd79)" d="M 255.758295 133.536 
C 256.553905 133.536 257.317035 133.219901 257.879616 132.65732 
C 258.442197 132.09474 258.758295 131.331609 258.758295 130.536 
C 258.758295 129.740391 258.442197 128.97726 257.879616 128.41468 
C 257.317035 127.852099 256.553905 127.536 255.758295 127.536 
C 254.962686 127.536 254.199556 127.852099 253.636975 128.41468 
C 253.074394 128.97726 252.758295 129.740391 252.758295 130.536 
C 252.758295 131.331609 253.074394 132.09474 253.636975 132.65732 
C 254.199556 133.219901 254.962686 133.536 255.758295 133.536 
z
" style="fill:#f26b38;stroke:#ffffff;stroke-width:0.48;"/>
    <path clip-path="url(#p28e714bd79)" d="M 262.521932 133.536 
C 263.317541 133.536 264.080671 133.219901 264.643252 132.65732 
C 265.205833 132.09474 265.521932 131.331609 265.521932 130.536 
C 265.521932 129.740391 265.205833 128.97726 264.643252 128.41468 
C 264.080671 127.852099 263.317541 127.536 262.521932 127.536 
C 261.726323 127.536 260.963192 127.852099 260.400611 128.41468 
C 259.838031 128.97726 259.521932 129.740391 259.521932 130.536 
C 259.521932 131.331609 259.838031 132.09474 260.400611 132.65732 
C 260.963192 133.219901 261.726323 133.536 262.521932 133.536 
z
" style="fill:#f26b38;stroke:#ffffff;stroke-width:0.48;"/>
    <path clip-path="url(#p28e714bd79)" d="M 269.285568 133.536 
C 270.081177 133.536 270.844308 133.219901 271.406889 132.65732 
C 271.969469 132.09474 272.285568 131.331609 272.285568 130.536 
C 272.285568 129.740391 271.969469 128.97726 271.406889 128.41468 
C 270.844308 127.852099 270.081177 127.536 269.285568 127.536 
C 268.489959 127.536 267.726829 127.852099 267.164248 128.41468 
C 266.601667 128.97726 266.285568 129.740391 266.285568 130.536 
C 266.285568 131.331609 266.601667 132.09474 267.164248 132.65732 
C 267.726829 133.219901 268.489959 133.536 269.285568 133.536 
z
" style="fill:#f26b38;stroke:#ffffff;stroke-width:0.48;"/>
    <path clip-path="url(#p28e714bd79)" d="M 276.049205 133.536 
C 276.844814 133.536 277.607944 133.219901 278.170525 132.65732 
C 278.733106 132.09474 279.049205 131.331609 279.049205 130.536 
C 279.049205 129.740391 278.733106 128.97726 278.170525 128.41468 
C 277.607944 127.852099 276.844814 127.536 276.049205 127.536 
C 275.253595 127.536 274.490465 127.852099 273.927884 128.41468 
C 273.365303 128.97726 273.049205 129.740391 273.049205 130.536 
C 273.049205 131.331609 273.365303 132.09474 273.927884 132.65732 
C 274.490465 133.219901 275.253595 133.536 276.049205 133.536 
z
" style="fill:#f26b38;stroke:#ffffff;stroke-width:0.48;"/>
    <path clip-path="url(#p28e714bd79)" d="M 282.812841 133.536 
C 283.60845 133.536 284.371581 133.219901 284.934161 132.65732 
C 285.496742 132.09474 285.812841 131.331609 285.812841 130.536 
C 285.812841 129.740391 285.496742 128.97726 284.934161 128.41468 
C 284.371581 127.852099 283.60845 127.536 282.812841 127.536 
C 282.017232 127.536 281.254101 127.852099 280.691521 128.41468 
C 280.12894 128.97726 279.812841 129.740391 279.812841 130.536 
C 279.812841 131.331609 280.12894 132.09474 280.691521 132.65732 
C 281.254101 133.219901 282.017232 133.536 282.812841 133.536 
z
" style="fill:#f26b38;stroke:#ffffff;stroke-width:0.48;"/>
    <path clip-path="url(#p28e714bd79)" d="M 289.576477 133.536 
C 290.372087 133.536 291.135217 133.219901 291.697798 132.65732 
C 292.260378 132.09474 292.576477 131.331609 292.576477 130.536 
C 292.576477 129.740391 292.260378 128.97726 291.697798 128.41468 
C 291.135217 127.852099 290.372087 127.536 289.576477 127.536 
C 288.780868 127.536 288.017738 127.852099 287.455157 128.41468 
C 286.892576 128.97726 286.576477 129.740391 286.576477 130.536 
C 286.576477 131.331609 286.892576 132.09474 287.455157 132.65732 
C 288.017738 133.219901 288.780868 133.536 289.576477 133.536 
z
" style="fill:#f26b38;stroke:#ffffff;stroke-width:0.48;"/>
    <path clip-path="url(#p28e714bd79)" d="M 296.340114 133.536 
C 297.135723 133.536 297.898853 133.219901 298.461434 132.65732 
C 299.024015 132.09474 299.340114 131.331609 299.340114 130.536 
C 299.340114 129.740391 299.024015 128.97726 298.461434 128.41468 
C 297.898853 127.852099 297.135723 127.536 296.340114 127.536 
C 295.544504 127.536 294.781374 127.852099 294.218793 128.41468 
C 293.656213 128.97726 293.340114 129.740391 293.340114 130.536 
C 293.340114 131.331609 293.656213 132.09474 294.218793 132.65732 
C 294.781374 133.219901 295.544504 133.536 296.340114 133.536 
z
" style="fill:#f26b38;stroke:#ffffff;stroke-width:0.48;"/>
    <path clip-path="url(#p28e714bd79)" d="M 303.10375 133.536 
C 303.899359 133.536 304.66249 133.219901 305.22507 132.65732 
C 305.787651 132.09474 306.10375 131.331609 306.10375 130.536 
C 306.10375 129.740391 305.787651 128.97726 305.22507 128.41468 
C 304.66249 127.852099 303.899359 127.536 303.10375 127.536 
C 302.308141 127.536 301.54501 127.852099 300.98243 128.41468 
C 300.419849 128.97726 300.10375 129.740391 300.10375 130.536 
C 300.10375 131.331609 300.419849 132.09474 300.98243 132.65732 
C 301.54501 133.219901 302.308141 133.536 303.10375 133.536 
z
" style="fill:#f26b38;stroke:#ffffff;stroke-width:0.48;"/>
    <path clip-path="url(#p28e714bd79)" d="M 309.867386 133.536 
C 310.662996 133.536 311.426126 133.219901 311.988707 132.65732 
C 312.551287 132.09474 312.867386 131.331609 312.867386 130.536 
C 312.867386 129.740391 312.551287 128.97726 311.988707 128.41468 
C 311.426126 127.852099 310.662996 127.536 309.867386 127.536 
C 309.071777 127.536 308.308647 127.852099 307.746066 128.41468 
C 307.183485 128.97726 306.867386 129.740391 306.867386 130.536 
C 306.867386 131.331609 307.183485 132.09474 307.746066 132.65732 
C 308.308647 133.219901 309.071777 133.536 309.867386 133.536 
z
" style="fill:#f26b38;stroke:#ffffff;stroke-width:0.48;"/>
    <path clip-path="url(#p28e714bd79)" d="M 316.631023 133.536 
C 317.426632 133.536 318.189762 133.219901 318.752343 132.65732 
C 319.314924 132.09474 319.631023 131.331609 319.631023 130.536 
C 319.631023 129.740391 319.314924 128.97726 318.752343 128.41468 
C 318.189762 127.852099 317.426632 127.536 316.631023 127.536 
C 315.835413 127.536 315.072283 127.852099 314.509702 128.41468 
C 313.947122 128.97726 313.631023 129.740391 313.631023 130.536 
C 313.631023 131.331609 313.947122 132.09474 314.509702 132.65732 
C 315.072283 133.219901 315.835413 133.536 316.631023 133.536 
z
" style="fill:#f26b38;stroke:#ffffff;stroke-width:0.48;"/>
    <path clip-path="url(#p28e714bd79)" d="M 323.394659 133.536 
C 324.190268 133.536 324.953399 133.219901 325.515979 132.65732 
C 326.07856 132.09474 326.394659 131.331609 326.394659 130.536 
C 326.394659 129.740391 326.07856 128.97726 325.515979 128.41468 
C 324.953399 127.852099 324.190268 127.536 323.394659 127.536 
C 322.59905 127.536 321.835919 127.852099 321.273339 128.41468 
C 320.710758 128.97726 320.394659 129.740391 320.394659 130.536 
C 320.394659 131.331609 320.710758 132.09474 321.273339 132.65732 
C 321.835919 133.219901 322.59905 133.536 323.394659 133.536 
z
" style="fill:#f26b38;stroke:#ffffff;stroke-width:0.48;"/>
    <path clip-path="url(#p28e714bd79)" d="M 330.158295 133.536 
C 330.953905 133.536 331.717035 133.219901 332.279616 132.65732 
C 332.842197 132.09474 333.158295 131.331609 333.158295 130.536 
C 333.158295 129.740391 332.842197 128.97726 332.279616 128.41468 
C 331.717035 127.852099 330.953905 127.536 330.158295 127.536 
C 329.362686 127.536 328.599556 127.852099 328.036975 128.41468 
C 327.474394 128.97726 327.158295 129.740391 327.158295 130.536 
C 327.158295 131.331609 327.474394 132.09474 328.036975 132.65732 
C 328.599556 133.219901 329.362686 133.536 330.158295 133.536 
z
" style="fill:#f26b38;stroke:#ffffff;stroke-width:0.48;"/>
    <path clip-path="url(#p28e714bd79)" d="M 336.921932 133.536 
C 337.717541 133.536 338.480671 133.219901 339.043252 132.65732 
C 339.605833 132.09474 339.921932 131.331609 339.921932 130.536 
C 339.921932 129.740391 339.605833 128.97726 339.043252 128.41468 
C 338.480671 127.852099 337.717541 127.536 336.921932 127.536 
C 336.126323 127.536 335.363192 127.852099 334.800611 128.41468 
C 334.238031 128.97726 333.921932 129.740391 333.921932 130.536 
C 333.921932 131.331609 334.238031 132.09474 334.800611 132.65732 
C 335.363192 133.219901 336.126323 133.536 336.921932 133.536 
z
" style="fill:#f26b38;stroke:#ffffff;stroke-width:0.48;"/>
    <path clip-path="url(#p28e714bd79)" d="M 343.685568 133.536 
C 344.481177 133.536 345.244308 133.219901 345.806889 132.65732 
C 346.369469 132.09474 346.685568 131.331609 346.685568 130.536 
C 346.685568 129.740391 346.369469 128.97726 345.806889 128.41468 
C 345.244308 127.852099 344.481177 127.536 343.685568 127.536 
C 342.889959 127.536 342.126829 127.852099 341.564248 128.41468 
C 341.001667 128.97726 340.685568 129.740391 340.685568 130.536 
C 340.685568 131.331609 341.001667 132.09474 341.564248 132.65732 
C 342.126829 133.219901 342.889959 133.536 343.685568 133.536 
z
" style="fill:#f26b38;stroke:#ffffff;stroke-width:0.48;"/>
    <path clip-path="url(#p28e714bd79)" d="M 350.449205 133.536 
C 351.244814 133.536 352.007944 133.219901 352.570525 132.65732 
C 353.133106 132.09474 353.449205 131.331609 353.449205 130.536 
C 353.449205 129.740391 353.133106 128.97726 352.570525 128.41468 
C 352.007944 127.852099 351.244814 127.536 350.449205 127.536 
C 349.653595 127.536 348.890465 127.852099 348.327884 128.41468 
C 347.765303 128.97726 347.449205 129.740391 347.449205 130.536 
C 347.449205 131.331609 347.765303 132.09474 348.327884 132.65732 
C 348.890465 133.219901 349.653595 133.536 350.449205 133.536 
z
" style="fill:#f26b38;stroke:#ffffff;stroke-width:0.48;"/>
    <path clip-path="url(#p28e714bd79)" d="M 357.212841 133.536 
C 358.00845 133.536 358.771581 133.219901 359.334161 132.65732 
C 359.896742 132.09474 360.212841 131.331609 360.212841 130.536 
C 360.212841 129.740391 359.896742 128.97726 359.334161 128.41468 
C 358.771581 127.852099 358.00845 127.536 357.212841 127.536 
C 356.417232 127.536 355.654101 127.852099 355.091521 128.41468 
C 354.52894 128.97726 354.212841 129.740391 354.212841 130.536 
C 354.212841 131.331609 354.52894 132.09474 355.091521 132.65732 
C 355.654101 133.219901 356.417232 133.536 357.212841 133.536 
z
" style="fill:#f26b38;stroke:#ffffff;stroke-width:0.48;"/>
    <path clip-path="url(#p28e714bd79)" d="M 363.976477 133.536 
C 364.772087 133.536 365.535217 133.219901 366.097798 132.65732 
C 366.660378 132.09474 366.976477 131.331609 366.976477 130.536 
C 366.976477 129.740391 366.660378 128.97726 366.097798 128.41468 
C 365.535217 127.852099 364.772087 127.536 363.976477 127.536 
C 363.180868 127.536 362.417738 127.852099 361.855157 128.41468 
C 361.292576 128.97726 360.976477 129.740391 360.976477 130.536 
C 360.976477 131.331609 361.292576 132.09474 361.855157 132.65732 
C 362.417738 133.219901 363.180868 133.536 363.976477 133.536 
z
" style="fill:#f26b38;stroke:#ffffff;stroke-width:0.48;"/>
    <path clip-path="url(#p28e714bd79)" d="M 370.740114 133.536 
C 371.535723 133.536 372.298853 133.219901 372.861434 132.65732 
C 373.424015 132.09474 373.740114 131.331609 373.740114 130.536 
C 373.740114 129.740391 373.424015 128.97726 372.861434 128.41468 
C 372.298853 127.852099 371.535723 127.536 370.740114 127.536 
C 369.944504 127.536 369.181374 127.852099 368.618793 128.41468 
C 368.056213 128.97726 367.740114 129.740391 367.740114 130.536 
C 367.740114 131.331609 368.056213 132.09474 368.618793 132.65732 
C 369.181374 133.219901 369.944504 133.536 370.740114 133.536 
z
" style="fill:#f26b38;stroke:#ffffff;stroke-width:0.48;"/>
    <path clip-path="url(#p28e714bd79)" d="M 377.50375 133.536 
C 378.299359 133.536 379.06249 133.219901 379.62507 132.65732 
C 380.187651 132.09474 380.50375 131.331609 380.50375 130.536 
C 380.50375 129.740391 380.187651 128.97726 379.62507 128.41468 
C 379.06249 127.852099 378.299359 127.536 377.50375 127.536 
C 376.708141 127.536 375.94501 127.852099 375.38243 128.41468 
C 374.819849 128.97726 374.50375 129.740391 374.50375 130.536 
C 374.50375 131.331609 374.819849 132.09474 375.38243 132.65732 
C 375.94501 133.219901 376.708141 133.536 377.50375 133.536 
z
" style="fill:#f26b38;stroke:#ffffff;stroke-width:0.48;"/>
    <path clip-path="url(#p28e714bd79)" d="M 384.267386 133.536 
C 385.062996 133.536 385.826126 133.219901 386.388707 132.65732 
C 386.951287 132.09474 387.267386 131.331609 387.267386 130.536 
C 387.267386 129.740391 386.951287 128.97726 386.388707 128.41468 
C 385.826126 127.852099 385.062996 127.536 384.267386 127.536 
C 383.471777 127.536 382.708647 127.852099 382.146066 128.41468 
C 381.583485 128.97726 381.267386 129.740391 381.267386 130.536 
C 381.267386 131.331609 381.583485 132.09474 382.146066 132.65732 
C 382.708647 133.219901 383.471777 133.536 384.267386 133.536 
z
" style="fill:#f26b38;stroke:#ffffff;stroke-width:0.48;"/>
    <path clip-path="url(#p28e714bd79)" d="M 391.031023 133.536 
C 391.826632 133.536 392.589762 133.219901 393.152343 132.65732 
C 393.714924 132.09474 394.031023 131.331609 394.031023 130.536 
C 394.031023 129.740391 393.714924 128.97726 393.152343 128.41468 
C 392.589762 127.852099 391.826632 127.536 391.031023 127.536 
C 390.235413 127.536 389.472283 127.852099 388.909702 128.41468 
C 388.347122 128.97726 388.031023 129.740391 388.031023 130.536 
C 388.031023 131.331609 388.347122 132.09474 388.909702 132.65732 
C 389.472283 133.219901 390.235413 133.536 391.031023 133.536 
z
" style="fill:#f26b38;stroke:#ffffff;stroke-width:0.48;"/>
    <path clip-path="url(#p28e714bd79)" d="M 64.876477 133.536 
L 66.376477 132.036 
L 67.876477 133.536 
L 69.376477 132.036 
L 67.876477 130.536 
L 69.376477 129.036 
L 67.876477 127.536 
L 66.376477 129.036 
L 64.876477 127.536 
L 63.376477 129.036 
L 64.876477 130.536 
L 63.376477 132.036 
z
" style="fill:#2f9599;stroke:#ffffff;stroke-width:0.48;"/>
    <path clip-path="url(#p28e714bd79)" d="M 71.640114 107.298105 
L 73.140114 105.798105 
L 74.640114 107.298105 
L 76.140114 105.798105 
L 74.640114 104.298105 
L 76.140114 102.798105 
L 74.640114 101.298105 
L 73.140114 102.798105 
L 71.640114 101.298105 
L 70.140114 102.798105 
L 71.640114 104.298105 
L 70.140114 105.798105 
z
" style="fill:#2f9599;stroke:#ffffff;stroke-width:0.48;"/>
    <path clip-path="url(#p28e714bd79)" d="M 78.40375 107.298105 
L 79.90375 105.798105 
L 81.40375 107.298105 
L 82.90375 105.798105 
L 81.40375 104.298105 
L 82.90375 102.798105 
L 81.40375 101.298105 
L 79.90375 102.798105 
L 78.40375 101.298105 
L 76.90375 102.798105 
L 78.40375 104.298105 
L 76.90375 105.798105 
z
" style="fill:#2f9599;stroke:#ffffff;stroke-width:0.48;"/>
    <path clip-path="url(#p28e714bd79)" d="M 85.167386 107.298105 
L 86.667386 105.798105 
L 88.167386 107.298105 
L 89.667386 105.798105 
L 88.167386 104.298105 
L 89.667386 102.798105 
L 88.167386 101.298105 
L 86.667386 102.798105 
L 85.167386 101.298105 
L 83.667386 102.798105 
L 85.167386 104.298105 
L 83.667386 105.798105 
z
" style="fill:#2f9599;stroke:#ffffff;stroke-width:0.48;"/>
    <path clip-path="url(#p28e714bd79)" d="M 91.931023 147.009514 
L 93.431023 145.509514 
L 94.931023 147.009514 
L 96.431023 145.509514 
L 94.931023 144.009514 
L 96.431023 142.509514 
L 94.931023 141.009514 
L 93.431023 142.509514 
L 91.931023 141.009514 
L 90.431023 142.509514 
L 91.931023 144.009514 
L 90.431023 145.509514 
z
" style="fill:#2f9599;stroke:#ffffff;stroke-width:0.48;"/>
    <path clip-path="url(#p28e714bd79)" d="M 98.694659 147.009514 
L 100.194659 145.509514 
L 101.694659 147.009514 
L 103.194659 145.509514 
L 101.694659 144.009514 
L 103.194659 142.509514 
L 101.694659 141.009514 
L 100.194659 142.509514 
L 98.694659 141.009514 
L 97.194659 142.509514 
L 98.694659 144.009514 
L 97.194659 145.509514 
z
" style="fill:#2f9599;stroke:#ffffff;stroke-width:0.48;"/>
    <path clip-path="url(#p28e714bd79)" d="M 105.458295 147.009514 
L 106.958295 145.509514 
L 108.458295 147.009514 
L 109.958295 145.509514 
L 108.458295 144.009514 
L 109.958295 142.509514 
L 108.458295 141.009514 
L 106.958295 142.509514 
L 105.458295 141.009514 
L 103.958295 142.509514 
L 105.458295 144.009514 
L 103.958295 145.509514 
z
" style="fill:#2f9599;stroke:#ffffff;stroke-width:0.48;"/>
    <path clip-path="url(#p28e714bd79)" d="M 112.221932 147.009514 
L 113.721932 145.509514 
L 115.221932 147.009514 
L 116.721932 145.509514 
L 115.221932 144.009514 
L 116.721932 142.509514 
L 115.221932 141.009514 
L 113.721932 142.509514 
L 112.221932 141.009514 
L 110.721932 142.509514 
L 112.221932 144.009514 
L 110.721932 145.509514 
z
" style="fill:#2f9599;stroke:#ffffff;stroke-width:0.48;"/>
    <path clip-path="url(#p28e714bd79)" d="M 118.985568 147.009514 
L 120.485568 145.509514 
L 121.985568 147.009514 
L 123.485568 145.509514 
L 121.985568 144.009514 
L 123.485568 142.509514 
L 121.985568 141.009514 
L 120.485568 142.509514 
L 118.985568 141.009514 
L 117.485568 142.509514 
L 118.985568 144.009514 
L 117.485568 145.509514 
z
" style="fill:#2f9599;stroke:#ffffff;stroke-width:0.48;"/>
    <path clip-path="url(#p28e714bd79)" d="M 125.749205 147.009514 
L 127.249205 145.509514 
L 128.749205 147.009514 
L 130.249205 145.509514 
L 128.749205 144.009514 
L 130.249205 142.509514 
L 128.749205 141.009514 
L 127.249205 142.509514 
L 125.749205 141.009514 
L 124.249205 142.509514 
L 125.749205 144.009514 
L 124.249205 145.509514 
z
" style="fill:#2f9599;stroke:#ffffff;stroke-width:0.48;"/>
    <path clip-path="url(#p28e714bd79)" d="M 132.512841 147.009514 
L 134.012841 145.509514 
L 135.512841 147.009514 
L 137.012841 145.509514 
L 135.512841 144.009514 
L 137.012841 142.509514 
L 135.512841 141.009514 
L 134.012841 142.509514 
L 132.512841 141.009514 
L 131.012841 142.509514 
L 132.512841 144.009514 
L 131.012841 145.509514 
z
" style="fill:#2f9599;stroke:#ffffff;stroke-width:0.48;"/>
    <path clip-path="url(#p28e714bd79)" d="M 139.276477 147.009514 
L 140.776477 145.509514 
L 142.276477 147.009514 
L 143.776477 145.509514 
L 142.276477 144.009514 
L 143.776477 142.509514 
L 142.276477 141.009514 
L 140.776477 142.509514 
L 139.276477 141.009514 
L 137.776477 142.509514 
L 139.276477 144.009514 
L 137.776477 145.509514 
z
" style="fill:#2f9599;stroke:#ffffff;stroke-width:0.48;"/>
    <path clip-path="url(#p28e714bd79)" d="M 146.040114 147.009514 
L 147.540114 145.509514 
L 149.040114 147.009514 
L 150.540114 145.509514 
L 149.040114 144.009514 
L 150.540114 142.509514 
L 149.040114 141.009514 
L 147.540114 142.509514 
L 146.040114 141.009514 
L 144.540114 142.509514 
L 146.040114 144.009514 
L 144.540114 145.509514 
z
" style="fill:#2f9599;stroke:#ffffff;stroke-width:0.48;"/>
    <path clip-path="url(#p28e714bd79)" d="M 152.80375 147.009514 
L 154.30375 145.509514 
L 155.80375 147.009514 
L 157.30375 145.509514 
L 155.80375 144.009514 
L 157.30375 142.509514 
L 155.80375 141.009514 
L 154.30375 142.509514 
L 152.80375 141.009514 
L 151.30375 142.509514 
L 152.80375 144.009514 
L 151.30375 145.509514 
z
" style="fill:#2f9599;stroke:#ffffff;stroke-width:0.48;"/>
    <path clip-path="url(#p28e714bd79)" d="M 159.567386 147.009514 
L 161.067386 145.509514 
L 162.567386 147.009514 
L 164.067386 145.509514 
L 162.567386 144.009514 
L 164.067386 142.509514 
L 162.567386 141.009514 
L 161.067386 142.509514 
L 159.567386 141.009514 
L 158.067386 142.509514 
L 159.567386 144.009514 
L 158.067386 145.509514 
z
" style="fill:#2f9599;stroke:#ffffff;stroke-width:0.48;"/>
    <path clip-path="url(#p28e714bd79)" d="M 166.331023 147.009514 
L 167.831023 145.509514 
L 169.331023 147.009514 
L 170.831023 145.509514 
L 169.331023 144.009514 
L 170.831023 142.509514 
L 169.331023 141.009514 
L 167.831023 142.509514 
L 166.331023 141.009514 
L 164.831023 142.509514 
L 166.331023 144.009514 
L 164.831023 145.509514 
z
" style="fill:#2f9599;stroke:#ffffff;stroke-width:0.48;"/>
    <path clip-path="url(#p28e714bd79)" d="M 173.094659 160.728 
L 174.594659 159.228 
L 176.094659 160.728 
L 177.594659 159.228 
L 176.094659 157.728 
L 177.594659 156.228 
L 176.094659 154.728 
L 174.594659 156.228 
L 173.094659 154.728 
L 171.594659 156.228 
L 173.094659 157.728 
L 171.594659 159.228 
z
" style="fill:#2f9599;stroke:#ffffff;stroke-width:0.48;"/>
    <path clip-path="url(#p28e714bd79)" d="M 179.858295 160.728 
L 181.358295 159.228 
L 182.858295 160.728 
L 184.358295 159.228 
L 182.858295 157.728 
L 184.358295 156.228 
L 182.858295 154.728 
L 181.358295 156.228 
L 179.858295 154.728 
L 178.358295 156.228 
L 179.858295 157.728 
L 178.358295 159.228 
z
" style="fill:#2f9599;stroke:#ffffff;stroke-width:0.48;"/>
    <path clip-path="url(#p28e714bd79)" d="M 186.621932 160.728 
L 188.121932 159.228 
L 189.621932 160.728 
L 191.121932 159.228 
L 189.621932 157.728 
L 191.121932 156.228 
L 189.621932 154.728 
L 188.121932 156.228 
L 186.621932 154.728 
L 185.121932 156.228 
L 186.621932 157.728 
L 185.121932 159.228 
z
" style="fill:#2f9599;stroke:#ffffff;stroke-width:0.48;"/>
    <path clip-path="url(#p28e714bd79)" d="M 193.385568 160.728 
L 194.885568 159.228 
L 196.385568 160.728 
L 197.885568 159.228 
L 196.385568 157.728 
L 197.885568 156.228 
L 196.385568 154.728 
L 194.885568 156.228 
L 193.385568 154.728 
L 191.885568 156.228 
L 193.385568 157.728 
L 191.885568 159.228 
z
" style="fill:#2f9599;stroke:#ffffff;stroke-width:0.48;"/>
    <path clip-path="url(#p28e714bd79)" d="M 200.149205 160.728 
L 201.649205 159.228 
L 203.149205 160.728 
L 204.649205 159.228 
L 203.149205 157.728 
L 204.649205 156.228 
L 203.149205 154.728 
L 201.649205 156.228 
L 200.149205 154.728 
L 198.649205 156.228 
L 200.149205 157.728 
L 198.649205 159.228 
z
" style="fill:#2f9599;stroke:#ffffff;stroke-width:0.48;"/>
    <path clip-path="url(#p28e714bd79)" d="M 206.912841 160.728 
L 208.412841 159.228 
L 209.912841 160.728 
L 211.412841 159.228 
L 209.912841 157.728 
L 211.412841 156.228 
L 209.912841 154.728 
L 208.412841 156.228 
L 206.912841 154.728 
L 205.412841 156.228 
L 206.912841 157.728 
L 205.412841 159.228 
z
" style="fill:#2f9599;stroke:#ffffff;stroke-width:0.48;"/>
    <path clip-path="url(#p28e714bd79)" d="M 213.676477 160.728 
L 215.176477 159.228 
L 216.676477 160.728 
L 218.176477 159.228 
L 216.676477 157.728 
L 218.176477 156.228 
L 216.676477 154.728 
L 215.176477 156.228 
L 213.676477 154.728 
L 212.176477 156.228 
L 213.676477 157.728 
L 212.176477 159.228 
z
" style="fill:#2f9599;stroke:#ffffff;stroke-width:0.48;"/>
    <path clip-path="url(#p28e714bd79)" d="M 220.440114 160.728 
L 221.940114 159.228 
L 223.440114 160.728 
L 224.940114 159.228 
L 223.440114 157.728 
L 224.940114 156.228 
L 223.440114 154.728 
L 221.940114 156.228 
L 220.440114 154.728 
L 218.940114 156.228 
L 220.440114 157.728 
L 218.940114 159.228 
z
" style="fill:#2f9599;stroke:#ffffff;stroke-width:0.48;"/>
    <path clip-path="url(#p28e714bd79)" d="M 227.20375 160.728 
L 228.70375 159.228 
L 230.20375 160.728 
L 231.70375 159.228 
L 230.20375 157.728 
L 231.70375 156.228 
L 230.20375 154.728 
L 228.70375 156.228 
L 227.20375 154.728 
L 225.70375 156.228 
L 227.20375 157.728 
L 225.70375 159.228 
z
" style="fill:#2f9599;stroke:#ffffff;stroke-width:0.48;"/>
    <path clip-path="url(#p28e714bd79)" d="M 233.967386 160.728 
L 235.467386 159.228 
L 236.967386 160.728 
L 238.467386 159.228 
L 236.967386 157.728 
L 238.467386 156.228 
L 236.967386 154.728 
L 235.467386 156.228 
L 233.967386 154.728 
L 232.467386 156.228 
L 233.967386 157.728 
L 232.467386 159.228 
z
" style="fill:#2f9599;stroke:#ffffff;stroke-width:0.48;"/>
    <path clip-path="url(#p28e714bd79)" d="M 240.731023 160.728 
L 242.231023 159.228 
L 243.731023 160.728 
L 245.231023 159.228 
L 243.731023 157.728 
L 245.231023 156.228 
L 243.731023 154.728 
L 242.231023 156.228 
L 240.731023 154.728 
L 239.231023 156.228 
L 240.731023 157.728 
L 239.231023 159.228 
z
" style="fill:#2f9599;stroke:#ffffff;stroke-width:0.48;"/>
    <path clip-path="url(#p28e714bd79)" d="M 247.494659 160.728 
L 248.994659 159.228 
L 250.494659 160.728 
L 251.994659 159.228 
L 250.494659 157.728 
L 251.994659 156.228 
L 250.494659 154.728 
L 248.994659 156.228 
L 247.494659 154.728 
L 245.994659 156.228 
L 247.494659 157.728 
L 245.994659 159.228 
z
" style="fill:#2f9599;stroke:#ffffff;stroke-width:0.48;"/>
    <path clip-path="url(#p28e714bd79)" d="M 254.258295 160.728 
L 255.758295 159.228 
L 257.258295 160.728 
L 258.758295 159.228 
L 257.258295 157.728 
L 258.758295 156.228 
L 257.258295 154.728 
L 255.758295 156.228 
L 254.258295 154.728 
L 252.758295 156.228 
L 254.258295 157.728 
L 252.758295 159.228 
z
" style="fill:#2f9599;stroke:#ffffff;stroke-width:0.48;"/>
    <path clip-path="url(#p28e714bd79)" d="M 261.021932 160.728 
L 262.521932 159.228 
L 264.021932 160.728 
L 265.521932 159.228 
L 264.021932 157.728 
L 265.521932 156.228 
L 264.021932 154.728 
L 262.521932 156.228 
L 261.021932 154.728 
L 259.521932 156.228 
L 261.021932 157.728 
L 259.521932 159.228 
z
" style="fill:#2f9599;stroke:#ffffff;stroke-width:0.48;"/>
    <path clip-path="url(#p28e714bd79)" d="M 267.785568 160.728 
L 269.285568 159.228 
L 270.785568 160.728 
L 272.285568 159.228 
L 270.785568 157.728 
L 272.285568 156.228 
L 270.785568 154.728 
L 269.285568 156.228 
L 267.785568 154.728 
L 266.285568 156.228 
L 267.785568 157.728 
L 266.285568 159.228 
z
" style="fill:#2f9599;stroke:#ffffff;stroke-width:0.48;"/>
    <path clip-path="url(#p28e714bd79)" d="M 274.549205 160.728 
L 276.049205 159.228 
L 277.549205 160.728 
L 279.049205 159.228 
L 277.549205 157.728 
L 279.049205 156.228 
L 277.549205 154.728 
L 276.049205 156.228 
L 274.549205 154.728 
L 273.049205 156.228 
L 274.549205 157.728 
L 273.049205 159.228 
z
" style="fill:#2f9599;stroke:#ffffff;stroke-width:0.48;"/>
    <path clip-path="url(#p28e714bd79)" d="M 281.312841 160.728 
L 282.812841 159.228 
L 284.312841 160.728 
L 285.812841 159.228 
L 284.312841 157.728 
L 285.812841 156.228 
L 284.312841 154.728 
L 282.812841 156.228 
L 281.312841 154.728 
L 279.812841 156.228 
L 281.312841 157.728 
L 279.812841 159.228 
z
" style="fill:#2f9599;stroke:#ffffff;stroke-width:0.48;"/>
    <path clip-path="url(#p28e714bd79)" d="M 288.076477 160.728 
L 289.576477 159.228 
L 291.076477 160.728 
L 292.576477 159.228 
L 291.076477 157.728 
L 292.576477 156.228 
L 291.076477 154.728 
L 289.576477 156.228 
L 288.076477 154.728 
L 286.576477 156.228 
L 288.076477 157.728 
L 286.576477 159.228 
z
" style="fill:#2f9599;stroke:#ffffff;stroke-width:0.48;"/>
    <path clip-path="url(#p28e714bd79)" d="M 294.840114 160.728 
L 296.340114 159.228 
L 297.840114 160.728 
L 299.340114 159.228 
L 297.840114 157.728 
L 299.340114 156.228 
L 297.840114 154.728 
L 296.340114 156.228 
L 294.840114 154.728 
L 293.340114 156.228 
L 294.840114 157.728 
L 293.340114 159.228 
z
" style="fill:#2f9599;stroke:#ffffff;stroke-width:0.48;"/>
    <path clip-path="url(#p28e714bd79)" d="M 301.60375 160.728 
L 303.10375 159.228 
L 304.60375 160.728 
L 306.10375 159.228 
L 304.60375 157.728 
L 306.10375 156.228 
L 304.60375 154.728 
L 303.10375 156.228 
L 301.60375 154.728 
L 300.10375 156.228 
L 301.60375 157.728 
L 300.10375 159.228 
z
" style="fill:#2f9599;stroke:#ffffff;stroke-width:0.48;"/>
    <path clip-path="url(#p28e714bd79)" d="M 308.367386 160.728 
L 309.867386 159.228 
L 311.367386 160.728 
L 312.867386 159.228 
L 311.367386 157.728 
L 312.867386 156.228 
L 311.367386 154.728 
L 309.867386 156.228 
L 308.367386 154.728 
L 306.867386 156.228 
L 308.367386 157.728 
L 306.867386 159.228 
z
" style="fill:#2f9599;stroke:#ffffff;stroke-width:0.48;"/>
    <path clip-path="url(#p28e714bd79)" d="M 315.131023 160.728 
L 316.631023 159.228 
L 318.131023 160.728 
L 319.631023 159.228 
L 318.131023 157.728 
L 319.631023 156.228 
L 318.131023 154.728 
L 316.631023 156.228 
L 315.131023 154.728 
L 313.631023 156.228 
L 315.131023 157.728 
L 313.631023 159.228 
z
" style="fill:#2f9599;stroke:#ffffff;stroke-width:0.48;"/>
    <path clip-path="url(#p28e714bd79)" d="M 321.894659 160.728 
L 323.394659 159.228 
L 324.894659 160.728 
L 326.394659 159.228 
L 324.894659 157.728 
L 326.394659 156.228 
L 324.894659 154.728 
L 323.394659 156.228 
L 321.894659 154.728 
L 320.394659 156.228 
L 321.894659 157.728 
L 320.394659 159.228 
z
" style="fill:#2f9599;stroke:#ffffff;stroke-width:0.48;"/>
    <path clip-path="url(#p28e714bd79)" d="M 328.658295 160.728 
L 330.158295 159.228 
L 331.658295 160.728 
L 333.158295 159.228 
L 331.658295 157.728 
L 333.158295 156.228 
L 331.658295 154.728 
L 330.158295 156.228 
L 328.658295 154.728 
L 327.158295 156.228 
L 328.658295 157.728 
L 327.158295 159.228 
z
" style="fill:#2f9599;stroke:#ffffff;stroke-width:0.48;"/>
    <path clip-path="url(#p28e714bd79)" d="M 335.421932 160.728 
L 336.921932 159.228 
L 338.421932 160.728 
L 339.921932 159.228 
L 338.421932 157.728 
L 339.921932 156.228 
L 338.421932 154.728 
L 336.921932 156.228 
L 335.421932 154.728 
L 333.921932 156.228 
L 335.421932 157.728 
L 333.921932 159.228 
z
" style="fill:#2f9599;stroke:#ffffff;stroke-width:0.48;"/>
    <path clip-path="url(#p28e714bd79)" d="M 342.185568 160.728 
L 343.685568 159.228 
L 345.185568 160.728 
L 346.685568 159.228 
L 345.185568 157.728 
L 346.685568 156.228 
L 345.185568 154.728 
L 343.685568 156.228 
L 342.185568 154.728 
L 340.685568 156.228 
L 342.185568 157.728 
L 340.685568 159.228 
z
" style="fill:#2f9599;stroke:#ffffff;stroke-width:0.48;"/>
    <path clip-path="url(#p28e714bd79)" d="M 348.949205 160.728 
L 350.449205 159.228 
L 351.949205 160.728 
L 353.449205 159.228 
L 351.949205 157.728 
L 353.449205 156.228 
L 351.949205 154.728 
L 350.449205 156.228 
L 348.949205 154.728 
L 347.449205 156.228 
L 348.949205 157.728 
L 347.449205 159.228 
z
" style="fill:#2f9599;stroke:#ffffff;stroke-width:0.48;"/>
    <path clip-path="url(#p28e714bd79)" d="M 355.712841 160.728 
L 357.212841 159.228 
L 358.712841 160.728 
L 360.212841 159.228 
L 358.712841 157.728 
L 360.212841 156.228 
L 358.712841 154.728 
L 357.212841 156.228 
L 355.712841 154.728 
L 354.212841 156.228 
L 355.712841 157.728 
L 354.212841 159.228 
z
" style="fill:#2f9599;stroke:#ffffff;stroke-width:0.48;"/>
    <path clip-path="url(#p28e714bd79)" d="M 362.476477 160.728 
L 363.976477 159.228 
L 365.476477 160.728 
L 366.976477 159.228 
L 365.476477 157.728 
L 366.976477 156.228 
L 365.476477 154.728 
L 363.976477 156.228 
L 362.476477 154.728 
L 360.976477 156.228 
L 362.476477 157.728 
L 360.976477 159.228 
z
" style="fill:#2f9599;stroke:#ffffff;stroke-width:0.48;"/>
    <path clip-path="url(#p28e714bd79)" d="M 369.240114 160.728 
L 370.740114 159.228 
L 372.240114 160.728 
L 373.740114 159.228 
L 372.240114 157.728 
L 373.740114 156.228 
L 372.240114 154.728 
L 370.740114 156.228 
L 369.240114 154.728 
L 367.740114 156.228 
L 369.240114 157.728 
L 367.740114 159.228 
z
" style="fill:#2f9599;stroke:#ffffff;stroke-width:0.48;"/>
    <path clip-path="url(#p28e714bd79)" d="M 376.00375 160.728 
L 377.50375 159.228 
L 379.00375 160.728 
L 380.50375 159.228 
L 379.00375 157.728 
L 380.50375 156.228 
L 379.00375 154.728 
L 377.50375 156.228 
L 376.00375 154.728 
L 374.50375 156.228 
L 376.00375 157.728 
L 374.50375 159.228 
z
" style="fill:#2f9599;stroke:#ffffff;stroke-width:0.48;"/>
    <path clip-path="url(#p28e714bd79)" d="M 382.767386 160.728 
L 384.267386 159.228 
L 385.767386 160.728 
L 387.267386 159.228 
L 385.767386 157.728 
L 387.267386 156.228 
L 385.767386 154.728 
L 384.267386 156.228 
L 382.767386 154.728 
L 381.267386 156.228 
L 382.767386 157.728 
L 381.267386 159.228 
z
" style="fill:#2f9599;stroke:#ffffff;stroke-width:0.48;"/>
    <path clip-path="url(#p28e714bd79)" d="M 389.531023 160.728 
L 391.031023 159.228 
L 392.531023 160.728 
L 394.031023 159.228 
L 392.531023 157.728 
L 394.031023 156.228 
L 392.531023 154.728 
L 391.031023 156.228 
L 389.531023 154.728 
L 388.031023 156.228 
L 389.531023 157.728 
L 388.031023 159.228 
z
" style="fill:#2f9599;stroke:#ffffff;stroke-width:0.48;"/>
    <path clip-path="url(#p28e714bd79)" d="M 64.255157 115.179635 
L 64.255157 119.422276 
L 68.497798 119.422276 
L 68.497798 115.179635 
z
" style="fill:#a7226e;stroke:#ffffff;stroke-width:0.48;"/>
    <path clip-path="url(#p28e714bd79)" d="M 71.018793 115.179635 
L 71.018793 119.422276 
L 75.261434 119.422276 
L 75.261434 115.179635 
z
" style="fill:#a7226e;stroke:#ffffff;stroke-width:0.48;"/>
    <path clip-path="url(#p28e714bd79)" d="M 77.78243 115.179635 
L 77.78243 119.422276 
L 82.02507 119.422276 
L 82.02507 115.179635 
z
" style="fill:#a7226e;stroke:#ffffff;stroke-width:0.48;"/>
    <path clip-path="url(#p28e714bd79)" d="M 84.546066 115.179635 
L 84.546066 119.422276 
L 88.788707 119.422276 
L 88.788707 115.179635 
z
" style="fill:#a7226e;stroke:#ffffff;stroke-width:0.48;"/>
    <path clip-path="url(#p28e714bd79)" d="M 91.309702 115.179635 
L 91.309702 119.422276 
L 95.552343 119.422276 
L 95.552343 115.179635 
z
" style="fill:#a7226e;stroke:#ffffff;stroke-width:0.48;"/>
    <path clip-path="url(#p28e714bd79)" d="M 98.073339 128.41468 
L 98.073339 132.65732 
L 102.315979 132.65732 
L 102.315979 128.41468 
z
" style="fill:#a7226e;stroke:#ffffff;stroke-width:0.48;"/>
    <path clip-path="url(#p28e714bd79)" d="M 104.836975 128.41468 
L 104.836975 132.65732 
L 109.079616 132.65732 
L 109.079616 128.41468 
z
" style="fill:#a7226e;stroke:#ffffff;stroke-width:0.48;"/>
    <path clip-path="url(#p28e714bd79)" d="M 111.600611 128.41468 
L 111.600611 132.65732 
L 115.843252 132.65732 
L 115.843252 128.41468 
z
" style="fill:#a7226e;stroke:#ffffff;stroke-width:0.48;"/>
    <path clip-path="url(#p28e714bd79)" d="M 118.364248 141.888193 
L 118.364248 146.130834 
L 122.606889 146.130834 
L 122.606889 141.888193 
z
" style="fill:#a7226e;stroke:#ffffff;stroke-width:0.48;"/>
    <path clip-path="url(#p28e714bd79)" d="M 125.127884 141.888193 
L 125.127884 146.130834 
L 129.370525 146.130834 
L 129.370525 141.888193 
z
" style="fill:#a7226e;stroke:#ffffff;stroke-width:0.48;"/>
    <path clip-path="url(#p28e714bd79)" d="M 131.891521 155.60668 
L 131.891521 159.84932 
L 136.134161 159.84932 
L 136.134161 155.60668 
z
" style="fill:#a7226e;stroke:#ffffff;stroke-width:0.48;"/>
    <path clip-path="url(#p28e714bd79)" d="M 138.655157 128.41468 
L 138.655157 132.65732 
L 142.897798 132.65732 
L 142.897798 128.41468 
z
" style="fill:#a7226e;stroke:#ffffff;stroke-width:0.48;"/>
    <path clip-path="url(#p28e714bd79)" d="M 145.418793 128.41468 
L 145.418793 132.65732 
L 149.661434 132.65732 
L 149.661434 128.41468 
z
" style="fill:#a7226e;stroke:#ffffff;stroke-width:0.48;"/>
    <path clip-path="url(#p28e714bd79)" d="M 152.18243 128.41468 
L 152.18243 132.65732 
L 156.42507 132.65732 
L 156.42507 128.41468 
z
" style="fill:#a7226e;stroke:#ffffff;stroke-width:0.48;"/>
    <path clip-path="url(#p28e714bd79)" d="M 158.946066 115.179635 
L 158.946066 119.422276 
L 163.188707 119.422276 
L 163.188707 115.179635 
z
" style="fill:#a7226e;stroke:#ffffff;stroke-width:0.48;"/>
    <path clip-path="url(#p28e714bd79)" d="M 165.709702 128.41468 
L 165.709702 132.65732 
L 169.952343 132.65732 
L 169.952343 128.41468 
z
" style="fill:#a7226e;stroke:#ffffff;stroke-width:0.48;"/>
    <path clip-path="url(#p28e714bd79)" d="M 172.473339 115.179635 
L 172.473339 119.422276 
L 176.715979 119.422276 
L 176.715979 115.179635 
z
" style="fill:#a7226e;stroke:#ffffff;stroke-width:0.48;"/>
    <path clip-path="url(#p28e714bd79)" d="M 179.236975 115.179635 
L 179.236975 119.422276 
L 183.479616 119.422276 
L 183.479616 115.179635 
z
" style="fill:#a7226e;stroke:#ffffff;stroke-width:0.48;"/>
    <path clip-path="url(#p28e714bd79)" d="M 186.000611 28.71068 
L 186.000611 32.95332 
L 190.243252 32.95332 
L 190.243252 28.71068 
z
" style="fill:#a7226e;stroke:#ffffff;stroke-width:0.48;"/>
    <path clip-path="url(#p28e714bd79)" d="M 192.764248 17.17468 
L 192.764248 21.41732 
L 197.006889 21.41732 
L 197.006889 17.17468 
z
" style="fill:#a7226e;stroke:#ffffff;stroke-width:0.48;"/>
    <path clip-path="url(#p28e714bd79)" d="M 199.527884 17.17468 
L 199.527884 21.41732 
L 203.770525 21.41732 
L 203.770525 17.17468 
z
" style="fill:#a7226e;stroke:#ffffff;stroke-width:0.48;"/>
    <path clip-path="url(#p28e714bd79)" d="M 206.291521 17.17468 
L 206.291521 21.41732 
L 210.534161 21.41732 
L 210.534161 17.17468 
z
" style="fill:#a7226e;stroke:#ffffff;stroke-width:0.48;"/>
    <path clip-path="url(#p28e714bd79)" d="M 213.055157 17.17468 
L 213.055157 21.41732 
L 217.297798 21.41732 
L 217.297798 17.17468 
z
" style="fill:#a7226e;stroke:#ffffff;stroke-width:0.48;"/>
    <path clip-path="url(#p28e714bd79)" d="M 219.818793 52.369256 
L 219.818793 56.611897 
L 224.061434 56.611897 
L 224.061434 52.369256 
z
" style="fill:#a7226e;stroke:#ffffff;stroke-width:0.48;"/>
    <path clip-path="url(#p28e714bd79)" d="M 226.58243 52.369256 
L 226.58243 56.611897 
L 230.82507 56.611897 
L 230.82507 52.369256 
z
" style="fill:#a7226e;stroke:#ffffff;stroke-width:0.48;"/>
    <path clip-path="url(#p28e714bd79)" d="M 233.346066 52.369256 
L 233.346066 56.611897 
L 237.588707 56.611897 
L 237.588707 52.369256 
z
" style="fill:#a7226e;stroke:#ffffff;stroke-width:0.48;"/>
    <path clip-path="url(#p28e714bd79)" d="M 240.109702 17.17468 
L 240.109702 21.41732 
L 244.352343 21.41732 
L 244.352343 17.17468 
z
" style="fill:#a7226e;stroke:#ffffff;stroke-width:0.48;"/>
    <path clip-path="url(#p28e714bd79)" d="M 246.873339 17.17468 
L 246.873339 21.41732 
L 251.115979 21.41732 
L 251.115979 17.17468 
z
" style="fill:#a7226e;stroke:#ffffff;stroke-width:0.48;"/>
    <path clip-path="url(#p28e714bd79)" d="M 253.636975 17.17468 
L 253.636975 21.41732 
L 257.879616 21.41732 
L 257.879616 17.17468 
z
" style="fill:#a7226e;stroke:#ffffff;stroke-width:0.48;"/>
    <path clip-path="url(#p28e714bd79)" d="M 260.400611 17.17468 
L 260.400611 21.41732 
L 264.643252 21.41732 
L 264.643252 17.17468 
z
" style="fill:#a7226e;stroke:#ffffff;stroke-width:0.48;"/>
    <path clip-path="url(#p28e714bd79)" d="M 267.164248 17.17468 
L 267.164248 21.41732 
L 271.406889 21.41732 
L 271.406889 17.17468 
z
" style="fill:#a7226e;stroke:#ffffff;stroke-width:0.48;"/>
    <path clip-path="url(#p28e714bd79)" d="M 273.927884 17.17468 
L 273.927884 21.41732 
L 278.170525 21.41732 
L 278.170525 17.17468 
z
" style="fill:#a7226e;stroke:#ffffff;stroke-width:0.48;"/>
    <path clip-path="url(#p28e714bd79)" d="M 280.691521 17.17468 
L 280.691521 21.41732 
L 284.934161 21.41732 
L 284.934161 17.17468 
z
" style="fill:#a7226e;stroke:#ffffff;stroke-width:0.48;"/>
    <path clip-path="url(#p28e714bd79)" d="M 287.455157 259.09468 
L 287.455157 263.33732 
L 291.697798 263.33732 
L 291.697798 259.09468 
z
" style="fill:#a7226e;stroke:#ffffff;stroke-width:0.48;"/>
    <path clip-path="url(#p28e714bd79)" d="M 294.218793 259.09468 
L 294.218793 263.33732 
L 298.461434 263.33732 
L 298.461434 259.09468 
z
" style="fill:#a7226e;stroke:#ffffff;stroke-width:0.48;"/>
    <path clip-path="url(#p28e714bd79)" d="M 300.98243 259.09468 
L 300.98243 263.33732 
L 305.22507 263.33732 
L 305.22507 259.09468 
z
" style="fill:#a7226e;stroke:#ffffff;stroke-width:0.48;"/>
    <path clip-path="url(#p28e714bd79)" d="M 307.746066 259.09468 
L 307.746066 263.33732 
L 311.988707 263.33732 
L 311.988707 259.09468 
z
" style="fill:#a7226e;stroke:#ffffff;stroke-width:0.48;"/>
    <path clip-path="url(#p28e714bd79)" d="M 314.509702 259.09468 
L 314.509702 263.33732 
L 318.752343 263.33732 
L 318.752343 259.09468 
z
" style="fill:#a7226e;stroke:#ffffff;stroke-width:0.48;"/>
    <path clip-path="url(#p28e714bd79)" d="M 321.273339 259.09468 
L 321.273339 263.33732 
L 325.515979 263.33732 
L 325.515979 259.09468 
z
" style="fill:#a7226e;stroke:#ffffff;stroke-width:0.48;"/>
    <path clip-path="url(#p28e714bd79)" d="M 328.036975 259.09468 
L 328.036975 263.33732 
L 332.279616 263.33732 
L 332.279616 259.09468 
z
" style="fill:#a7226e;stroke:#ffffff;stroke-width:0.48;"/>
    <path clip-path="url(#p28e714bd79)" d="M 334.800611 259.09468 
L 334.800611 263.33732 
L 339.043252 263.33732 
L 339.043252 259.09468 
z
" style="fill:#a7226e;stroke:#ffffff;stroke-width:0.48;"/>
    <path clip-path="url(#p28e714bd79)" d="M 341.564248 259.09468 
L 341.564248 263.33732 
L 345.806889 263.33732 
L 345.806889 259.09468 
z
" style="fill:#a7226e;stroke:#ffffff;stroke-width:0.48;"/>
    <path clip-path="url(#p28e714bd79)" d="M 348.327884 259.09468 
L 348.327884 263.33732 
L 352.570525 263.33732 
L 352.570525 259.09468 
z
" style="fill:#a7226e;stroke:#ffffff;stroke-width:0.48;"/>
    <path clip-path="url(#p28e714bd79)" d="M 355.091521 259.09468 
L 355.091521 263.33732 
L 359.334161 263.33732 
L 359.334161 259.09468 
z
" style="fill:#a7226e;stroke:#ffffff;stroke-width:0.48;"/>
    <path clip-path="url(#p28e714bd79)" d="M 361.855157 259.09468 
L 361.855157 263.33732 
L 366.097798 263.33732 
L 366.097798 259.09468 
z
" style="fill:#a7226e;stroke:#ffffff;stroke-width:0.48;"/>
    <path clip-path="url(#p28e714bd79)" d="M 368.618793 259.09468 
L 368.618793 263.33732 
L 372.861434 263.33732 
L 372.861434 259.09468 
z
" style="fill:#a7226e;stroke:#ffffff;stroke-width:0.48;"/>
    <path clip-path="url(#p28e714bd79)" d="M 375.38243 259.09468 
L 375.38243 263.33732 
L 379.62507 263.33732 
L 379.62507 259.09468 
z
" style="fill:#a7226e;stroke:#ffffff;stroke-width:0.48;"/>
    <path clip-path="url(#p28e714bd79)" d="M 382.146066 259.09468 
L 382.146066 263.33732 
L 386.388707 263.33732 
L 386.388707 259.09468 
z
" style="fill:#a7226e;stroke:#ffffff;stroke-width:0.48;"/>
    <path clip-path="url(#p28e714bd79)" d="M 388.909702 259.09468 
L 388.909702 263.33732 
L 393.152343 263.33732 
L 393.152343 259.09468 
z
" style="fill:#a7226e;stroke:#ffffff;stroke-width:0.48;"/>
   </g>
   <g id="PathCollection_2"/>
   <g id="PathCollection_3"/>
   <g id="PathCollection_4"/>
   <g id="matplotlib.axis_1">
    <g id="xtick_1">
     <g id="line2d_1">
      <defs>
       <path d="M 0 0 
L 0 3.5 
" id="mb25686658f" style="stroke:#000000;stroke-width:0.8;"/>
      </defs>
      <g>
       <use style="stroke:#000000;stroke-width:0.8;" x="59.612841" xlink:href="#mb25686658f" y="273.312"/>
      </g>
     </g>
     <g id="text_1">
      <!-- 0.0 -->
      <g transform="translate(51.661278 287.910438)scale(0.1 -0.1)">
       <defs>
        <path d="M 31.78125 66.40625 
Q 24.171875 66.40625 20.328125 58.90625 
Q 16.5 51.421875 16.5 36.375 
Q 16.5 21.390625 20.328125 13.890625 
Q 24.171875 6.390625 31.78125 6.390625 
Q 39.453125 6.390625 43.28125 13.890625 
Q 47.125 21.390625 47.125 36.375 
Q 47.125 51.421875 43.28125 58.90625 
Q 39.453125 66.40625 31.78125 66.40625 
z
M 31.78125 74.21875 
Q 44.046875 74.21875 50.515625 64.515625 
Q 56.984375 54.828125 56.984375 36.375 
Q 56.984375 17.96875 50.515625 8.265625 
Q 44.046875 -1.421875 31.78125 -1.421875 
Q 19.53125 -1.421875 13.0625 8.265625 
Q 6.59375 17.96875 6.59375 36.375 
Q 6.59375 54.828125 13.0625 64.515625 
Q 19.53125 74.21875 31.78125 74.21875 
z
" id="DejaVuSans-48"/>
        <path d="M 10.6875 12.40625 
L 21 12.40625 
L 21 0 
L 10.6875 0 
z
" id="DejaVuSans-46"/>
       </defs>
       <use xlink:href="#DejaVuSans-48"/>
       <use x="63.623047" xlink:href="#DejaVuSans-46"/>
       <use x="95.410156" xlink:href="#DejaVuSans-48"/>
      </g>
     </g>
    </g>
    <g id="xtick_2">
     <g id="line2d_2">
      <g>
       <use style="stroke:#000000;stroke-width:0.8;" x="127.249205" xlink:href="#mb25686658f" y="273.312"/>
      </g>
     </g>
     <g id="text_2">
      <!-- 0.2 -->
      <g transform="translate(119.297642 287.910438)scale(0.1 -0.1)">
       <defs>
        <path d="M 19.1875 8.296875 
L 53.609375 8.296875 
L 53.609375 0 
L 7.328125 0 
L 7.328125 8.296875 
Q 12.9375 14.109375 22.625 23.890625 
Q 32.328125 33.6875 34.8125 36.53125 
Q 39.546875 41.84375 41.421875 45.53125 
Q 43.3125 49.21875 43.3125 52.78125 
Q 43.3125 58.59375 39.234375 62.25 
Q 35.15625 65.921875 28.609375 65.921875 
Q 23.96875 65.921875 18.8125 64.3125 
Q 13.671875 62.703125 7.8125 59.421875 
L 7.8125 69.390625 
Q 13.765625 71.78125 18.9375 73 
Q 24.125 74.21875 28.421875 74.21875 
Q 39.75 74.21875 46.484375 68.546875 
Q 53.21875 62.890625 53.21875 53.421875 
Q 53.21875 48.921875 51.53125 44.890625 
Q 49.859375 40.875 45.40625 35.40625 
Q 44.1875 33.984375 37.640625 27.21875 
Q 31.109375 20.453125 19.1875 8.296875 
z
" id="DejaVuSans-50"/>
       </defs>
       <use xlink:href="#DejaVuSans-48"/>
       <use x="63.623047" xlink:href="#DejaVuSans-46"/>
       <use x="95.410156" xlink:href="#DejaVuSans-50"/>
      </g>
     </g>
    </g>
    <g id="xtick_3">
     <g id="line2d_3">
      <g>
       <use style="stroke:#000000;stroke-width:0.8;" x="194.885568" xlink:href="#mb25686658f" y="273.312"/>
      </g>
     </g>
     <g id="text_3">
      <!-- 0.4 -->
      <g transform="translate(186.934006 287.910438)scale(0.1 -0.1)">
       <defs>
        <path d="M 37.796875 64.3125 
L 12.890625 25.390625 
L 37.796875 25.390625 
z
M 35.203125 72.90625 
L 47.609375 72.90625 
L 47.609375 25.390625 
L 58.015625 25.390625 
L 58.015625 17.1875 
L 47.609375 17.1875 
L 47.609375 0 
L 37.796875 0 
L 37.796875 17.1875 
L 4.890625 17.1875 
L 4.890625 26.703125 
z
" id="DejaVuSans-52"/>
       </defs>
       <use xlink:href="#DejaVuSans-48"/>
       <use x="63.623047" xlink:href="#DejaVuSans-46"/>
       <use x="95.410156" xlink:href="#DejaVuSans-52"/>
      </g>
     </g>
    </g>
    <g id="xtick_4">
     <g id="line2d_4">
      <g>
       <use style="stroke:#000000;stroke-width:0.8;" x="262.521932" xlink:href="#mb25686658f" y="273.312"/>
      </g>
     </g>
     <g id="text_4">
      <!-- 0.6 -->
      <g transform="translate(254.570369 287.910438)scale(0.1 -0.1)">
       <defs>
        <path d="M 33.015625 40.375 
Q 26.375 40.375 22.484375 35.828125 
Q 18.609375 31.296875 18.609375 23.390625 
Q 18.609375 15.53125 22.484375 10.953125 
Q 26.375 6.390625 33.015625 6.390625 
Q 39.65625 6.390625 43.53125 10.953125 
Q 47.40625 15.53125 47.40625 23.390625 
Q 47.40625 31.296875 43.53125 35.828125 
Q 39.65625 40.375 33.015625 40.375 
z
M 52.59375 71.296875 
L 52.59375 62.3125 
Q 48.875 64.0625 45.09375 64.984375 
Q 41.3125 65.921875 37.59375 65.921875 
Q 27.828125 65.921875 22.671875 59.328125 
Q 17.53125 52.734375 16.796875 39.40625 
Q 19.671875 43.65625 24.015625 45.921875 
Q 28.375 48.1875 33.59375 48.1875 
Q 44.578125 48.1875 50.953125 41.515625 
Q 57.328125 34.859375 57.328125 23.390625 
Q 57.328125 12.15625 50.6875 5.359375 
Q 44.046875 -1.421875 33.015625 -1.421875 
Q 20.359375 -1.421875 13.671875 8.265625 
Q 6.984375 17.96875 6.984375 36.375 
Q 6.984375 53.65625 15.1875 63.9375 
Q 23.390625 74.21875 37.203125 74.21875 
Q 40.921875 74.21875 44.703125 73.484375 
Q 48.484375 72.75 52.59375 71.296875 
z
" id="DejaVuSans-54"/>
       </defs>
       <use xlink:href="#DejaVuSans-48"/>
       <use x="63.623047" xlink:href="#DejaVuSans-46"/>
       <use x="95.410156" xlink:href="#DejaVuSans-54"/>
      </g>
     </g>
    </g>
    <g id="xtick_5">
     <g id="line2d_5">
      <g>
       <use style="stroke:#000000;stroke-width:0.8;" x="330.158295" xlink:href="#mb25686658f" y="273.312"/>
      </g>
     </g>
     <g id="text_5">
      <!-- 0.8 -->
      <g transform="translate(322.206733 287.910438)scale(0.1 -0.1)">
       <defs>
        <path d="M 31.78125 34.625 
Q 24.75 34.625 20.71875 30.859375 
Q 16.703125 27.09375 16.703125 20.515625 
Q 16.703125 13.921875 20.71875 10.15625 
Q 24.75 6.390625 31.78125 6.390625 
Q 38.8125 6.390625 42.859375 10.171875 
Q 46.921875 13.96875 46.921875 20.515625 
Q 46.921875 27.09375 42.890625 30.859375 
Q 38.875 34.625 31.78125 34.625 
z
M 21.921875 38.8125 
Q 15.578125 40.375 12.03125 44.71875 
Q 8.5 49.078125 8.5 55.328125 
Q 8.5 64.0625 14.71875 69.140625 
Q 20.953125 74.21875 31.78125 74.21875 
Q 42.671875 74.21875 48.875 69.140625 
Q 55.078125 64.0625 55.078125 55.328125 
Q 55.078125 49.078125 51.53125 44.71875 
Q 48 40.375 41.703125 38.8125 
Q 48.828125 37.15625 52.796875 32.3125 
Q 56.78125 27.484375 56.78125 20.515625 
Q 56.78125 9.90625 50.3125 4.234375 
Q 43.84375 -1.421875 31.78125 -1.421875 
Q 19.734375 -1.421875 13.25 4.234375 
Q 6.78125 9.90625 6.78125 20.515625 
Q 6.78125 27.484375 10.78125 32.3125 
Q 14.796875 37.15625 21.921875 38.8125 
z
M 18.3125 54.390625 
Q 18.3125 48.734375 21.84375 45.5625 
Q 25.390625 42.390625 31.78125 42.390625 
Q 38.140625 42.390625 41.71875 45.5625 
Q 45.3125 48.734375 45.3125 54.390625 
Q 45.3125 60.0625 41.71875 63.234375 
Q 38.140625 66.40625 31.78125 66.40625 
Q 25.390625 66.40625 21.84375 63.234375 
Q 18.3125 60.0625 18.3125 54.390625 
z
" id="DejaVuSans-56"/>
       </defs>
       <use xlink:href="#DejaVuSans-48"/>
       <use x="63.623047" xlink:href="#DejaVuSans-46"/>
       <use x="95.410156" xlink:href="#DejaVuSans-56"/>
      </g>
     </g>
    </g>
    <g id="xtick_6">
     <g id="line2d_6">
      <g>
       <use style="stroke:#000000;stroke-width:0.8;" x="397.794659" xlink:href="#mb25686658f" y="273.312"/>
      </g>
     </g>
     <g id="text_6">
      <!-- 1.0 -->
      <g transform="translate(389.843097 287.910438)scale(0.1 -0.1)">
       <defs>
        <path d="M 12.40625 8.296875 
L 28.515625 8.296875 
L 28.515625 63.921875 
L 10.984375 60.40625 
L 10.984375 69.390625 
L 28.421875 72.90625 
L 38.28125 72.90625 
L 38.28125 8.296875 
L 54.390625 8.296875 
L 54.390625 0 
L 12.40625 0 
z
" id="DejaVuSans-49"/>
       </defs>
       <use xlink:href="#DejaVuSans-49"/>
       <use x="63.623047" xlink:href="#DejaVuSans-46"/>
       <use x="95.410156" xlink:href="#DejaVuSans-48"/>
      </g>
     </g>
    </g>
    <g id="text_7">
     <!-- cutoff -->
     <g transform="translate(214.245938 301.588562)scale(0.1 -0.1)">
      <defs>
       <path d="M 48.78125 52.59375 
L 48.78125 44.1875 
Q 44.96875 46.296875 41.140625 47.34375 
Q 37.3125 48.390625 33.40625 48.390625 
Q 24.65625 48.390625 19.8125 42.84375 
Q 14.984375 37.3125 14.984375 27.296875 
Q 14.984375 17.28125 19.8125 11.734375 
Q 24.65625 6.203125 33.40625 6.203125 
Q 37.3125 6.203125 41.140625 7.25 
Q 44.96875 8.296875 48.78125 10.40625 
L 48.78125 2.09375 
Q 45.015625 0.34375 40.984375 -0.53125 
Q 36.96875 -1.421875 32.421875 -1.421875 
Q 20.0625 -1.421875 12.78125 6.34375 
Q 5.515625 14.109375 5.515625 27.296875 
Q 5.515625 40.671875 12.859375 48.328125 
Q 20.21875 56 33.015625 56 
Q 37.15625 56 41.109375 55.140625 
Q 45.0625 54.296875 48.78125 52.59375 
z
" id="DejaVuSans-99"/>
       <path d="M 8.5 21.578125 
L 8.5 54.6875 
L 17.484375 54.6875 
L 17.484375 21.921875 
Q 17.484375 14.15625 20.5 10.265625 
Q 23.53125 6.390625 29.59375 6.390625 
Q 36.859375 6.390625 41.078125 11.03125 
Q 45.3125 15.671875 45.3125 23.6875 
L 45.3125 54.6875 
L 54.296875 54.6875 
L 54.296875 0 
L 45.3125 0 
L 45.3125 8.40625 
Q 42.046875 3.421875 37.71875 1 
Q 33.40625 -1.421875 27.6875 -1.421875 
Q 18.265625 -1.421875 13.375 4.4375 
Q 8.5 10.296875 8.5 21.578125 
z
M 31.109375 56 
z
" id="DejaVuSans-117"/>
       <path d="M 18.3125 70.21875 
L 18.3125 54.6875 
L 36.8125 54.6875 
L 36.8125 47.703125 
L 18.3125 47.703125 
L 18.3125 18.015625 
Q 18.3125 11.328125 20.140625 9.421875 
Q 21.96875 7.515625 27.59375 7.515625 
L 36.8125 7.515625 
L 36.8125 0 
L 27.59375 0 
Q 17.1875 0 13.234375 3.875 
Q 9.28125 7.765625 9.28125 18.015625 
L 9.28125 47.703125 
L 2.6875 47.703125 
L 2.6875 54.6875 
L 9.28125 54.6875 
L 9.28125 70.21875 
z
" id="DejaVuSans-116"/>
       <path d="M 30.609375 48.390625 
Q 23.390625 48.390625 19.1875 42.75 
Q 14.984375 37.109375 14.984375 27.296875 
Q 14.984375 17.484375 19.15625 11.84375 
Q 23.34375 6.203125 30.609375 6.203125 
Q 37.796875 6.203125 41.984375 11.859375 
Q 46.1875 17.53125 46.1875 27.296875 
Q 46.1875 37.015625 41.984375 42.703125 
Q 37.796875 48.390625 30.609375 48.390625 
z
M 30.609375 56 
Q 42.328125 56 49.015625 48.375 
Q 55.71875 40.765625 55.71875 27.296875 
Q 55.71875 13.875 49.015625 6.21875 
Q 42.328125 -1.421875 30.609375 -1.421875 
Q 18.84375 -1.421875 12.171875 6.21875 
Q 5.515625 13.875 5.515625 27.296875 
Q 5.515625 40.765625 12.171875 48.375 
Q 18.84375 56 30.609375 56 
z
" id="DejaVuSans-111"/>
       <path d="M 37.109375 75.984375 
L 37.109375 68.5 
L 28.515625 68.5 
Q 23.6875 68.5 21.796875 66.546875 
Q 19.921875 64.59375 19.921875 59.515625 
L 19.921875 54.6875 
L 34.71875 54.6875 
L 34.71875 47.703125 
L 19.921875 47.703125 
L 19.921875 0 
L 10.890625 0 
L 10.890625 47.703125 
L 2.296875 47.703125 
L 2.296875 54.6875 
L 10.890625 54.6875 
L 10.890625 58.5 
Q 10.890625 67.625 15.140625 71.796875 
Q 19.390625 75.984375 28.609375 75.984375 
z
" id="DejaVuSans-102"/>
      </defs>
      <use xlink:href="#DejaVuSans-99"/>
      <use x="54.980469" xlink:href="#DejaVuSans-117"/>
      <use x="118.359375" xlink:href="#DejaVuSans-116"/>
      <use x="157.568359" xlink:href="#DejaVuSans-111"/>
      <use x="218.75" xlink:href="#DejaVuSans-102"/>
      <use x="253.955078" xlink:href="#DejaVuSans-102"/>
     </g>
    </g>
   </g>
   <g id="matplotlib.axis_2">
    <g id="ytick_1">
     <g id="line2d_7">
      <defs>
       <path d="M 0 0 
L -3.5 0 
" id="m0b4cdd20b0" style="stroke:#000000;stroke-width:0.8;"/>
      </defs>
      <g>
       <use style="stroke:#000000;stroke-width:0.8;" x="50.14375" xlink:href="#m0b4cdd20b0" y="249.460048"/>
      </g>
     </g>
     <g id="text_8">
      <!-- 0.40 -->
      <g transform="translate(20.878125 253.259267)scale(0.1 -0.1)">
       <use xlink:href="#DejaVuSans-48"/>
       <use x="63.623047" xlink:href="#DejaVuSans-46"/>
       <use x="95.410156" xlink:href="#DejaVuSans-52"/>
       <use x="159.033203" xlink:href="#DejaVuSans-48"/>
      </g>
     </g>
    </g>
    <g id="ytick_2">
     <g id="line2d_8">
      <g>
       <use style="stroke:#000000;stroke-width:0.8;" x="50.14375" xlink:href="#m0b4cdd20b0" y="199.007422"/>
      </g>
     </g>
     <g id="text_9">
      <!-- 0.45 -->
      <g transform="translate(20.878125 202.80664)scale(0.1 -0.1)">
       <defs>
        <path d="M 10.796875 72.90625 
L 49.515625 72.90625 
L 49.515625 64.59375 
L 19.828125 64.59375 
L 19.828125 46.734375 
Q 21.96875 47.46875 24.109375 47.828125 
Q 26.265625 48.1875 28.421875 48.1875 
Q 40.625 48.1875 47.75 41.5 
Q 54.890625 34.8125 54.890625 23.390625 
Q 54.890625 11.625 47.5625 5.09375 
Q 40.234375 -1.421875 26.90625 -1.421875 
Q 22.3125 -1.421875 17.546875 -0.640625 
Q 12.796875 0.140625 7.71875 1.703125 
L 7.71875 11.625 
Q 12.109375 9.234375 16.796875 8.0625 
Q 21.484375 6.890625 26.703125 6.890625 
Q 35.15625 6.890625 40.078125 11.328125 
Q 45.015625 15.765625 45.015625 23.390625 
Q 45.015625 31 40.078125 35.4375 
Q 35.15625 39.890625 26.703125 39.890625 
Q 22.75 39.890625 18.8125 39.015625 
Q 14.890625 38.140625 10.796875 36.28125 
z
" id="DejaVuSans-53"/>
       </defs>
       <use xlink:href="#DejaVuSans-48"/>
       <use x="63.623047" xlink:href="#DejaVuSans-46"/>
       <use x="95.410156" xlink:href="#DejaVuSans-52"/>
       <use x="159.033203" xlink:href="#DejaVuSans-53"/>
      </g>
     </g>
    </g>
    <g id="ytick_3">
     <g id="line2d_9">
      <g>
       <use style="stroke:#000000;stroke-width:0.8;" x="50.14375" xlink:href="#m0b4cdd20b0" y="148.554795"/>
      </g>
     </g>
     <g id="text_10">
      <!-- 0.50 -->
      <g transform="translate(20.878125 152.354014)scale(0.1 -0.1)">
       <use xlink:href="#DejaVuSans-48"/>
       <use x="63.623047" xlink:href="#DejaVuSans-46"/>
       <use x="95.410156" xlink:href="#DejaVuSans-53"/>
       <use x="159.033203" xlink:href="#DejaVuSans-48"/>
      </g>
     </g>
    </g>
    <g id="ytick_4">
     <g id="line2d_10">
      <g>
       <use style="stroke:#000000;stroke-width:0.8;" x="50.14375" xlink:href="#m0b4cdd20b0" y="98.102169"/>
      </g>
     </g>
     <g id="text_11">
      <!-- 0.55 -->
      <g transform="translate(20.878125 101.901387)scale(0.1 -0.1)">
       <use xlink:href="#DejaVuSans-48"/>
       <use x="63.623047" xlink:href="#DejaVuSans-46"/>
       <use x="95.410156" xlink:href="#DejaVuSans-53"/>
       <use x="159.033203" xlink:href="#DejaVuSans-53"/>
      </g>
     </g>
    </g>
    <g id="ytick_5">
     <g id="line2d_11">
      <g>
       <use style="stroke:#000000;stroke-width:0.8;" x="50.14375" xlink:href="#m0b4cdd20b0" y="47.649542"/>
      </g>
     </g>
     <g id="text_12">
      <!-- 0.60 -->
      <g transform="translate(20.878125 51.448761)scale(0.1 -0.1)">
       <use xlink:href="#DejaVuSans-48"/>
       <use x="63.623047" xlink:href="#DejaVuSans-46"/>
       <use x="95.410156" xlink:href="#DejaVuSans-54"/>
       <use x="159.033203" xlink:href="#DejaVuSans-48"/>
      </g>
     </g>
    </g>
    <g id="text_13">
     <!-- performance -->
     <g transform="translate(14.798438 172.278656)rotate(-90)scale(0.1 -0.1)">
      <defs>
       <path d="M 18.109375 8.203125 
L 18.109375 -20.796875 
L 9.078125 -20.796875 
L 9.078125 54.6875 
L 18.109375 54.6875 
L 18.109375 46.390625 
Q 20.953125 51.265625 25.265625 53.625 
Q 29.59375 56 35.59375 56 
Q 45.5625 56 51.78125 48.09375 
Q 58.015625 40.1875 58.015625 27.296875 
Q 58.015625 14.40625 51.78125 6.484375 
Q 45.5625 -1.421875 35.59375 -1.421875 
Q 29.59375 -1.421875 25.265625 0.953125 
Q 20.953125 3.328125 18.109375 8.203125 
z
M 48.6875 27.296875 
Q 48.6875 37.203125 44.609375 42.84375 
Q 40.53125 48.484375 33.40625 48.484375 
Q 26.265625 48.484375 22.1875 42.84375 
Q 18.109375 37.203125 18.109375 27.296875 
Q 18.109375 17.390625 22.1875 11.75 
Q 26.265625 6.109375 33.40625 6.109375 
Q 40.53125 6.109375 44.609375 11.75 
Q 48.6875 17.390625 48.6875 27.296875 
z
" id="DejaVuSans-112"/>
       <path d="M 56.203125 29.59375 
L 56.203125 25.203125 
L 14.890625 25.203125 
Q 15.484375 15.921875 20.484375 11.0625 
Q 25.484375 6.203125 34.421875 6.203125 
Q 39.59375 6.203125 44.453125 7.46875 
Q 49.3125 8.734375 54.109375 11.28125 
L 54.109375 2.78125 
Q 49.265625 0.734375 44.1875 -0.34375 
Q 39.109375 -1.421875 33.890625 -1.421875 
Q 20.796875 -1.421875 13.15625 6.1875 
Q 5.515625 13.8125 5.515625 26.8125 
Q 5.515625 40.234375 12.765625 48.109375 
Q 20.015625 56 32.328125 56 
Q 43.359375 56 49.78125 48.890625 
Q 56.203125 41.796875 56.203125 29.59375 
z
M 47.21875 32.234375 
Q 47.125 39.59375 43.09375 43.984375 
Q 39.0625 48.390625 32.421875 48.390625 
Q 24.90625 48.390625 20.390625 44.140625 
Q 15.875 39.890625 15.1875 32.171875 
z
" id="DejaVuSans-101"/>
       <path d="M 41.109375 46.296875 
Q 39.59375 47.171875 37.8125 47.578125 
Q 36.03125 48 33.890625 48 
Q 26.265625 48 22.1875 43.046875 
Q 18.109375 38.09375 18.109375 28.8125 
L 18.109375 0 
L 9.078125 0 
L 9.078125 54.6875 
L 18.109375 54.6875 
L 18.109375 46.1875 
Q 20.953125 51.171875 25.484375 53.578125 
Q 30.03125 56 36.53125 56 
Q 37.453125 56 38.578125 55.875 
Q 39.703125 55.765625 41.0625 55.515625 
z
" id="DejaVuSans-114"/>
       <path d="M 52 44.1875 
Q 55.375 50.25 60.0625 53.125 
Q 64.75 56 71.09375 56 
Q 79.640625 56 84.28125 50.015625 
Q 88.921875 44.046875 88.921875 33.015625 
L 88.921875 0 
L 79.890625 0 
L 79.890625 32.71875 
Q 79.890625 40.578125 77.09375 44.375 
Q 74.3125 48.1875 68.609375 48.1875 
Q 61.625 48.1875 57.5625 43.546875 
Q 53.515625 38.921875 53.515625 30.90625 
L 53.515625 0 
L 44.484375 0 
L 44.484375 32.71875 
Q 44.484375 40.625 41.703125 44.40625 
Q 38.921875 48.1875 33.109375 48.1875 
Q 26.21875 48.1875 22.15625 43.53125 
Q 18.109375 38.875 18.109375 30.90625 
L 18.109375 0 
L 9.078125 0 
L 9.078125 54.6875 
L 18.109375 54.6875 
L 18.109375 46.1875 
Q 21.1875 51.21875 25.484375 53.609375 
Q 29.78125 56 35.6875 56 
Q 41.65625 56 45.828125 52.96875 
Q 50 49.953125 52 44.1875 
z
" id="DejaVuSans-109"/>
       <path d="M 34.28125 27.484375 
Q 23.390625 27.484375 19.1875 25 
Q 14.984375 22.515625 14.984375 16.5 
Q 14.984375 11.71875 18.140625 8.90625 
Q 21.296875 6.109375 26.703125 6.109375 
Q 34.1875 6.109375 38.703125 11.40625 
Q 43.21875 16.703125 43.21875 25.484375 
L 43.21875 27.484375 
z
M 52.203125 31.203125 
L 52.203125 0 
L 43.21875 0 
L 43.21875 8.296875 
Q 40.140625 3.328125 35.546875 0.953125 
Q 30.953125 -1.421875 24.3125 -1.421875 
Q 15.921875 -1.421875 10.953125 3.296875 
Q 6 8.015625 6 15.921875 
Q 6 25.140625 12.171875 29.828125 
Q 18.359375 34.515625 30.609375 34.515625 
L 43.21875 34.515625 
L 43.21875 35.40625 
Q 43.21875 41.609375 39.140625 45 
Q 35.0625 48.390625 27.6875 48.390625 
Q 23 48.390625 18.546875 47.265625 
Q 14.109375 46.140625 10.015625 43.890625 
L 10.015625 52.203125 
Q 14.9375 54.109375 19.578125 55.046875 
Q 24.21875 56 28.609375 56 
Q 40.484375 56 46.34375 49.84375 
Q 52.203125 43.703125 52.203125 31.203125 
z
" id="DejaVuSans-97"/>
       <path d="M 54.890625 33.015625 
L 54.890625 0 
L 45.90625 0 
L 45.90625 32.71875 
Q 45.90625 40.484375 42.875 44.328125 
Q 39.84375 48.1875 33.796875 48.1875 
Q 26.515625 48.1875 22.3125 43.546875 
Q 18.109375 38.921875 18.109375 30.90625 
L 18.109375 0 
L 9.078125 0 
L 9.078125 54.6875 
L 18.109375 54.6875 
L 18.109375 46.1875 
Q 21.34375 51.125 25.703125 53.5625 
Q 30.078125 56 35.796875 56 
Q 45.21875 56 50.046875 50.171875 
Q 54.890625 44.34375 54.890625 33.015625 
z
" id="DejaVuSans-110"/>
      </defs>
      <use xlink:href="#DejaVuSans-112"/>
      <use x="63.476562" xlink:href="#DejaVuSans-101"/>
      <use x="125" xlink:href="#DejaVuSans-114"/>
      <use x="166.113281" xlink:href="#DejaVuSans-102"/>
      <use x="201.318359" xlink:href="#DejaVuSans-111"/>
      <use x="262.5" xlink:href="#DejaVuSans-114"/>
      <use x="301.863281" xlink:href="#DejaVuSans-109"/>
      <use x="399.275391" xlink:href="#DejaVuSans-97"/>
      <use x="460.554688" xlink:href="#DejaVuSans-110"/>
      <use x="523.933594" xlink:href="#DejaVuSans-99"/>
      <use x="578.914062" xlink:href="#DejaVuSans-101"/>
     </g>
    </g>
   </g>
   <g id="line2d_12">
    <path clip-path="url(#p28e714bd79)" d="M 66.376477 78.964966 
L 73.140114 104.298105 
L 79.90375 104.298105 
L 86.667386 104.298105 
L 93.431023 104.298105 
L 100.194659 130.536 
L 106.958295 42.561882 
L 113.721932 42.561882 
L 120.485568 42.561882 
L 127.249205 66.623179 
L 134.012841 78.964966 
L 140.776477 117.300956 
L 147.540114 157.728 
L 154.30375 157.728 
L 161.067386 78.964966 
L 167.831023 78.964966 
L 174.594659 78.964966 
L 181.358295 78.964966 
L 188.121932 78.964966 
L 194.885568 78.964966 
L 201.649205 78.964966 
L 208.412841 78.964966 
L 215.176477 78.964966 
L 221.940114 78.964966 
L 228.70375 117.300956 
L 235.467386 130.536 
L 242.231023 130.536 
L 248.994659 130.536 
L 255.758295 130.536 
L 262.521932 130.536 
L 269.285568 130.536 
L 276.049205 130.536 
L 282.812841 130.536 
L 289.576477 130.536 
L 296.340114 130.536 
L 303.10375 130.536 
L 309.867386 130.536 
L 316.631023 130.536 
L 323.394659 130.536 
L 330.158295 130.536 
L 336.921932 130.536 
L 343.685568 130.536 
L 350.449205 130.536 
L 357.212841 130.536 
L 363.976477 130.536 
L 370.740114 130.536 
L 377.50375 130.536 
L 384.267386 130.536 
L 391.031023 130.536 
" style="fill:none;stroke:#f26b38;stroke-dasharray:7.4,3.2;stroke-dashoffset:0;stroke-width:2;"/>
   </g>
   <g id="line2d_13">
    <path clip-path="url(#p28e714bd79)" d="M 66.376477 130.536 
L 73.140114 104.298105 
L 79.90375 104.298105 
L 86.667386 104.298105 
L 93.431023 144.009514 
L 100.194659 144.009514 
L 106.958295 144.009514 
L 113.721932 144.009514 
L 120.485568 144.009514 
L 127.249205 144.009514 
L 134.012841 144.009514 
L 140.776477 144.009514 
L 147.540114 144.009514 
L 154.30375 144.009514 
L 161.067386 144.009514 
L 167.831023 144.009514 
L 174.594659 157.728 
L 181.358295 157.728 
L 188.121932 157.728 
L 194.885568 157.728 
L 201.649205 157.728 
L 208.412841 157.728 
L 215.176477 157.728 
L 221.940114 157.728 
L 228.70375 157.728 
L 235.467386 157.728 
L 242.231023 157.728 
L 248.994659 157.728 
L 255.758295 157.728 
L 262.521932 157.728 
L 269.285568 157.728 
L 276.049205 157.728 
L 282.812841 157.728 
L 289.576477 157.728 
L 296.340114 157.728 
L 303.10375 157.728 
L 309.867386 157.728 
L 316.631023 157.728 
L 323.394659 157.728 
L 330.158295 157.728 
L 336.921932 157.728 
L 343.685568 157.728 
L 350.449205 157.728 
L 357.212841 157.728 
L 363.976477 157.728 
L 370.740114 157.728 
L 377.50375 157.728 
L 384.267386 157.728 
L 391.031023 157.728 
" style="fill:none;stroke:#2f9599;stroke-dasharray:2,3.3;stroke-dashoffset:0;stroke-width:2;"/>
   </g>
   <g id="line2d_14">
    <path clip-path="url(#p28e714bd79)" d="M 66.376477 117.300956 
L 73.140114 117.300956 
L 79.90375 117.300956 
L 86.667386 117.300956 
L 93.431023 117.300956 
L 100.194659 130.536 
L 106.958295 130.536 
L 113.721932 130.536 
L 120.485568 144.009514 
L 127.249205 144.009514 
L 134.012841 157.728 
L 140.776477 130.536 
L 147.540114 130.536 
L 154.30375 130.536 
L 161.067386 117.300956 
L 167.831023 130.536 
L 174.594659 117.300956 
L 181.358295 117.300956 
L 188.121932 30.832 
L 194.885568 19.296 
L 201.649205 19.296 
L 208.412841 19.296 
L 215.176477 19.296 
L 221.940114 54.490576 
L 228.70375 54.490576 
L 235.467386 54.490576 
L 242.231023 19.296 
L 248.994659 19.296 
L 255.758295 19.296 
L 262.521932 19.296 
L 269.285568 19.296 
L 276.049205 19.296 
L 282.812841 19.296 
L 289.576477 261.216 
L 296.340114 261.216 
L 303.10375 261.216 
L 309.867386 261.216 
L 316.631023 261.216 
L 323.394659 261.216 
L 330.158295 261.216 
L 336.921932 261.216 
L 343.685568 261.216 
L 350.449205 261.216 
L 357.212841 261.216 
L 363.976477 261.216 
L 370.740114 261.216 
L 377.50375 261.216 
L 384.267386 261.216 
L 391.031023 261.216 
" style="fill:none;stroke:#a7226e;stroke-dasharray:12.8,3.2,2,3.2;stroke-dashoffset:0;stroke-width:2;"/>
   </g>
   <g id="patch_3">
    <path d="M 50.14375 273.312 
L 50.14375 7.2 
" style="fill:none;stroke:#000000;stroke-linecap:square;stroke-linejoin:miter;stroke-width:0.8;"/>
   </g>
   <g id="patch_4">
    <path d="M 407.26375 273.312 
L 407.26375 7.2 
" style="fill:none;stroke:#000000;stroke-linecap:square;stroke-linejoin:miter;stroke-width:0.8;"/>
   </g>
   <g id="patch_5">
    <path d="M 50.14375 273.312 
L 407.26375 273.312 
" style="fill:none;stroke:#000000;stroke-linecap:square;stroke-linejoin:miter;stroke-width:0.8;"/>
   </g>
   <g id="patch_6">
    <path d="M 50.14375 7.2 
L 407.26375 7.2 
" style="fill:none;stroke:#000000;stroke-linecap:square;stroke-linejoin:miter;stroke-width:0.8;"/>
   </g>
   <g id="legend_1">
    <g id="patch_7">
     <path d="M 321.790059 43.890913 
L 402.40575 43.890913 
Q 403.79375 43.890913 403.79375 42.502913 
L 403.79375 12.058 
Q 403.79375 10.67 402.40575 10.67 
L 321.790059 10.67 
Q 320.402059 10.67 320.402059 12.058 
L 320.402059 42.502913 
Q 320.402059 43.890913 321.790059 43.890913 
z
" style="fill:#ffffff;opacity:0.8;stroke:#cccccc;stroke-linejoin:miter;"/>
    </g>
    <g id="PathCollection_5">
     <defs>
      <path d="M 0 3 
C 0.795609 3 1.55874 2.683901 2.12132 2.12132 
C 2.683901 1.55874 3 0.795609 3 0 
C 3 -0.795609 2.683901 -1.55874 2.12132 -2.12132 
C 1.55874 -2.683901 0.795609 -3 0 -3 
C -0.795609 -3 -1.55874 -2.683901 -2.12132 -2.12132 
C -2.683901 -1.55874 -3 -0.795609 -3 0 
C -3 0.795609 -2.683901 1.55874 -2.12132 2.12132 
C -1.55874 2.683901 -0.795609 3 0 3 
z
" id="m0adf596301" style="stroke:#f26b38;"/>
     </defs>
     <g>
      <use style="fill:#f26b38;stroke:#f26b38;" x="330.118059" xlink:href="#m0adf596301" y="16.897566"/>
     </g>
    </g>
    <g id="text_14">
     <!-- mean_err -->
     <g transform="translate(342.610059 18.719316)scale(0.0694 -0.0694)">
      <defs>
       <path d="M 50.984375 -16.609375 
L 50.984375 -23.578125 
L -0.984375 -23.578125 
L -0.984375 -16.609375 
z
" id="DejaVuSans-95"/>
      </defs>
      <use xlink:href="#DejaVuSans-109"/>
      <use x="97.412109" xlink:href="#DejaVuSans-101"/>
      <use x="158.935547" xlink:href="#DejaVuSans-97"/>
      <use x="220.214844" xlink:href="#DejaVuSans-110"/>
      <use x="283.59375" xlink:href="#DejaVuSans-95"/>
      <use x="333.59375" xlink:href="#DejaVuSans-101"/>
      <use x="395.117188" xlink:href="#DejaVuSans-114"/>
      <use x="434.480469" xlink:href="#DejaVuSans-114"/>
     </g>
    </g>
    <g id="PathCollection_6">
     <defs>
      <path d="M -1.5 3 
L 0 1.5 
L 1.5 3 
L 3 1.5 
L 1.5 0 
L 3 -1.5 
L 1.5 -3 
L 0 -1.5 
L -1.5 -3 
L -3 -1.5 
L -1.5 0 
L -3 1.5 
z
" id="m51422e96d5" style="stroke:#2f9599;"/>
     </defs>
     <g>
      <use style="fill:#2f9599;stroke:#2f9599;" x="330.118059" xlink:href="#m51422e96d5" y="27.277203"/>
     </g>
    </g>
    <g id="text_15">
     <!-- mean_sq_err -->
     <g transform="translate(342.610059 29.098953)scale(0.0694 -0.0694)">
      <defs>
       <path d="M 44.28125 53.078125 
L 44.28125 44.578125 
Q 40.484375 46.53125 36.375 47.5 
Q 32.28125 48.484375 27.875 48.484375 
Q 21.1875 48.484375 17.84375 46.4375 
Q 14.5 44.390625 14.5 40.28125 
Q 14.5 37.15625 16.890625 35.375 
Q 19.28125 33.59375 26.515625 31.984375 
L 29.59375 31.296875 
Q 39.15625 29.25 43.1875 25.515625 
Q 47.21875 21.78125 47.21875 15.09375 
Q 47.21875 7.46875 41.1875 3.015625 
Q 35.15625 -1.421875 24.609375 -1.421875 
Q 20.21875 -1.421875 15.453125 -0.5625 
Q 10.6875 0.296875 5.421875 2 
L 5.421875 11.28125 
Q 10.40625 8.6875 15.234375 7.390625 
Q 20.0625 6.109375 24.8125 6.109375 
Q 31.15625 6.109375 34.5625 8.28125 
Q 37.984375 10.453125 37.984375 14.40625 
Q 37.984375 18.0625 35.515625 20.015625 
Q 33.0625 21.96875 24.703125 23.78125 
L 21.578125 24.515625 
Q 13.234375 26.265625 9.515625 29.90625 
Q 5.8125 33.546875 5.8125 39.890625 
Q 5.8125 47.609375 11.28125 51.796875 
Q 16.75 56 26.8125 56 
Q 31.78125 56 36.171875 55.265625 
Q 40.578125 54.546875 44.28125 53.078125 
z
" id="DejaVuSans-115"/>
       <path d="M 14.796875 27.296875 
Q 14.796875 17.390625 18.875 11.75 
Q 22.953125 6.109375 30.078125 6.109375 
Q 37.203125 6.109375 41.296875 11.75 
Q 45.40625 17.390625 45.40625 27.296875 
Q 45.40625 37.203125 41.296875 42.84375 
Q 37.203125 48.484375 30.078125 48.484375 
Q 22.953125 48.484375 18.875 42.84375 
Q 14.796875 37.203125 14.796875 27.296875 
z
M 45.40625 8.203125 
Q 42.578125 3.328125 38.25 0.953125 
Q 33.9375 -1.421875 27.875 -1.421875 
Q 17.96875 -1.421875 11.734375 6.484375 
Q 5.515625 14.40625 5.515625 27.296875 
Q 5.515625 40.1875 11.734375 48.09375 
Q 17.96875 56 27.875 56 
Q 33.9375 56 38.25 53.625 
Q 42.578125 51.265625 45.40625 46.390625 
L 45.40625 54.6875 
L 54.390625 54.6875 
L 54.390625 -20.796875 
L 45.40625 -20.796875 
z
" id="DejaVuSans-113"/>
      </defs>
      <use xlink:href="#DejaVuSans-109"/>
      <use x="97.412109" xlink:href="#DejaVuSans-101"/>
      <use x="158.935547" xlink:href="#DejaVuSans-97"/>
      <use x="220.214844" xlink:href="#DejaVuSans-110"/>
      <use x="283.59375" xlink:href="#DejaVuSans-95"/>
      <use x="333.59375" xlink:href="#DejaVuSans-115"/>
      <use x="385.693359" xlink:href="#DejaVuSans-113"/>
      <use x="449.169922" xlink:href="#DejaVuSans-95"/>
      <use x="499.169922" xlink:href="#DejaVuSans-101"/>
      <use x="560.693359" xlink:href="#DejaVuSans-114"/>
      <use x="600.056641" xlink:href="#DejaVuSans-114"/>
     </g>
    </g>
    <g id="PathCollection_7">
     <defs>
      <path d="M -2.12132 -2.12132 
L -2.12132 2.12132 
L 2.12132 2.12132 
L 2.12132 -2.12132 
z
" id="mc334c991dc" style="stroke:#a7226e;"/>
     </defs>
     <g>
      <use style="fill:#a7226e;stroke:#a7226e;" x="330.118059" xlink:href="#mc334c991dc" y="37.656841"/>
     </g>
    </g>
    <g id="text_16">
     <!-- mean_sqroot_err -->
     <g transform="translate(342.610059 39.478591)scale(0.0694 -0.0694)">
      <use xlink:href="#DejaVuSans-109"/>
      <use x="97.412109" xlink:href="#DejaVuSans-101"/>
      <use x="158.935547" xlink:href="#DejaVuSans-97"/>
      <use x="220.214844" xlink:href="#DejaVuSans-110"/>
      <use x="283.59375" xlink:href="#DejaVuSans-95"/>
      <use x="333.59375" xlink:href="#DejaVuSans-115"/>
      <use x="385.693359" xlink:href="#DejaVuSans-113"/>
      <use x="449.169922" xlink:href="#DejaVuSans-114"/>
      <use x="488.033203" xlink:href="#DejaVuSans-111"/>
      <use x="549.214844" xlink:href="#DejaVuSans-111"/>
      <use x="610.396484" xlink:href="#DejaVuSans-116"/>
      <use x="649.605469" xlink:href="#DejaVuSans-95"/>
      <use x="699.605469" xlink:href="#DejaVuSans-101"/>
      <use x="761.128906" xlink:href="#DejaVuSans-114"/>
      <use x="800.492188" xlink:href="#DejaVuSans-114"/>
     </g>
    </g>
   </g>
  </g>
 </g>
 <defs>
  <clipPath id="p28e714bd79">
   <rect height="266.112" width="357.12" x="50.14375" y="7.2"/>
  </clipPath>
 </defs>
</svg>
