<?xml version="1.0" encoding="utf-8" standalone="no"?>
<!DOCTYPE svg PUBLIC "-//W3C//DTD SVG 1.1//EN"
  "http://www.w3.org/Graphics/SVG/1.1/DTD/svg11.dtd">
<!-- Created with matplotlib (https://matplotlib.org/) -->
<svg height="310.86825pt" version="1.1" viewBox="0 0 414.46375 310.86825" width="414.46375pt" xmlns="http://www.w3.org/2000/svg" xmlns:xlink="http://www.w3.org/1999/xlink">
 <metadata>
  <rdf:RDF xmlns:cc="http://creativecommons.org/ns#" xmlns:dc="http://purl.org/dc/elements/1.1/" xmlns:rdf="http://www.w3.org/1999/02/22-rdf-syntax-ns#">
   <cc:Work>
    <dc:type rdf:resource="http://purl.org/dc/dcmitype/StillImage"/>
    <dc:date>2022-05-27T21:56:18.072534</dc:date>
    <dc:format>image/svg+xml</dc:format>
    <dc:creator>
     <cc:Agent>
      <dc:title>Matplotlib v3.3.4, https://matplotlib.org/</dc:title>
     </cc:Agent>
    </dc:creator>
   </cc:Work>
  </rdf:RDF>
 </metadata>
 <defs>
  <style type="text/css">*{stroke-linecap:butt;stroke-linejoin:round;}</style>
 </defs>
 <g id="figure_1">
  <g id="patch_1">
   <path d="M 0 310.86825 
L 414.46375 310.86825 
L 414.46375 0 
L 0 0 
z
" style="fill:#ffffff;"/>
  </g>
  <g id="axes_1">
   <g id="patch_2">
    <path d="M 50.14375 273.312 
L 407.26375 273.312 
L 407.26375 7.2 
L 50.14375 7.2 
z
" style="fill:#ffffff;"/>
   </g>
   <g id="PathCollection_1">
    <path clip-path="url(#p29911d955e)" d="M 66.376477 22.296 
C 67.172087 22.296 67.935217 21.979901 68.497798 21.41732 
C 69.060378 20.85474 69.376477 20.091609 69.376477 19.296 
C 69.376477 18.500391 69.060378 17.73726 68.497798 17.17468 
C 67.935217 16.612099 67.172087 16.296 66.376477 16.296 
C 65.580868 16.296 64.817738 16.612099 64.255157 17.17468 
C 63.692576 17.73726 63.376477 18.500391 63.376477 19.296 
C 63.376477 20.091609 63.692576 20.85474 64.255157 21.41732 
C 64.817738 21.979901 65.580868 22.296 66.376477 22.296 
z
" style="fill:#f26b38;stroke:#ffffff;stroke-width:0.48;"/>
    <path clip-path="url(#p29911d955e)" d="M 73.140114 37.914462 
C 73.935723 37.914462 74.698853 37.598363 75.261434 37.035782 
C 75.824015 36.473201 76.140114 35.710071 76.140114 34.914462 
C 76.140114 34.118852 75.824015 33.355722 75.261434 32.793141 
C 74.698853 32.23056 73.935723 31.914462 73.140114 31.914462 
C 72.344504 31.914462 71.581374 32.23056 71.018793 32.793141 
C 70.456213 33.355722 70.140114 34.118852 70.140114 34.914462 
C 70.140114 35.710071 70.456213 36.473201 71.018793 37.035782 
C 71.581374 37.598363 72.344504 37.914462 73.140114 37.914462 
z
" style="fill:#f26b38;stroke:#ffffff;stroke-width:0.48;"/>
    <path clip-path="url(#p29911d955e)" d="M 79.90375 37.914462 
C 80.699359 37.914462 81.46249 37.598363 82.02507 37.035782 
C 82.587651 36.473201 82.90375 35.710071 82.90375 34.914462 
C 82.90375 34.118852 82.587651 33.355722 82.02507 32.793141 
C 81.46249 32.23056 80.699359 31.914462 79.90375 31.914462 
C 79.108141 31.914462 78.34501 32.23056 77.78243 32.793141 
C 77.219849 33.355722 76.90375 34.118852 76.90375 34.914462 
C 76.90375 35.710071 77.219849 36.473201 77.78243 37.035782 
C 78.34501 37.598363 79.108141 37.914462 79.90375 37.914462 
z
" style="fill:#f26b38;stroke:#ffffff;stroke-width:0.48;"/>
    <path clip-path="url(#p29911d955e)" d="M 86.667386 37.914462 
C 87.462996 37.914462 88.226126 37.598363 88.788707 37.035782 
C 89.351287 36.473201 89.667386 35.710071 89.667386 34.914462 
C 89.667386 34.118852 89.351287 33.355722 88.788707 32.793141 
C 88.226126 32.23056 87.462996 31.914462 86.667386 31.914462 
C 85.871777 31.914462 85.108647 32.23056 84.546066 32.793141 
C 83.983485 33.355722 83.667386 34.118852 83.667386 34.914462 
C 83.667386 35.710071 83.983485 36.473201 84.546066 37.035782 
C 85.108647 37.598363 85.871777 37.914462 86.667386 37.914462 
z
" style="fill:#f26b38;stroke:#ffffff;stroke-width:0.48;"/>
    <path clip-path="url(#p29911d955e)" d="M 93.431023 37.914462 
C 94.226632 37.914462 94.989762 37.598363 95.552343 37.035782 
C 96.114924 36.473201 96.431023 35.710071 96.431023 34.914462 
C 96.431023 34.118852 96.114924 33.355722 95.552343 32.793141 
C 94.989762 32.23056 94.226632 31.914462 93.431023 31.914462 
C 92.635413 31.914462 91.872283 32.23056 91.309702 32.793141 
C 90.747122 33.355722 90.431023 34.118852 90.431023 34.914462 
C 90.431023 35.710071 90.747122 36.473201 91.309702 37.035782 
C 91.872283 37.598363 92.635413 37.914462 93.431023 37.914462 
z
" style="fill:#f26b38;stroke:#ffffff;stroke-width:0.48;"/>
    <path clip-path="url(#p29911d955e)" d="M 100.194659 37.914462 
C 100.990268 37.914462 101.753399 37.598363 102.315979 37.035782 
C 102.87856 36.473201 103.194659 35.710071 103.194659 34.914462 
C 103.194659 34.118852 102.87856 33.355722 102.315979 32.793141 
C 101.753399 32.23056 100.990268 31.914462 100.194659 31.914462 
C 99.39905 31.914462 98.635919 32.23056 98.073339 32.793141 
C 97.510758 33.355722 97.194659 34.118852 97.194659 34.914462 
C 97.194659 35.710071 97.510758 36.473201 98.073339 37.035782 
C 98.635919 37.598363 99.39905 37.914462 100.194659 37.914462 
z
" style="fill:#f26b38;stroke:#ffffff;stroke-width:0.48;"/>
    <path clip-path="url(#p29911d955e)" d="M 106.958295 37.914462 
C 107.753905 37.914462 108.517035 37.598363 109.079616 37.035782 
C 109.642197 36.473201 109.958295 35.710071 109.958295 34.914462 
C 109.958295 34.118852 109.642197 33.355722 109.079616 32.793141 
C 108.517035 32.23056 107.753905 31.914462 106.958295 31.914462 
C 106.162686 31.914462 105.399556 32.23056 104.836975 32.793141 
C 104.274394 33.355722 103.958295 34.118852 103.958295 34.914462 
C 103.958295 35.710071 104.274394 36.473201 104.836975 37.035782 
C 105.399556 37.598363 106.162686 37.914462 106.958295 37.914462 
z
" style="fill:#f26b38;stroke:#ffffff;stroke-width:0.48;"/>
    <path clip-path="url(#p29911d955e)" d="M 113.721932 37.914462 
C 114.517541 37.914462 115.280671 37.598363 115.843252 37.035782 
C 116.405833 36.473201 116.721932 35.710071 116.721932 34.914462 
C 116.721932 34.118852 116.405833 33.355722 115.843252 32.793141 
C 115.280671 32.23056 114.517541 31.914462 113.721932 31.914462 
C 112.926323 31.914462 112.163192 32.23056 111.600611 32.793141 
C 111.038031 33.355722 110.721932 34.118852 110.721932 34.914462 
C 110.721932 35.710071 111.038031 36.473201 111.600611 37.035782 
C 112.163192 37.598363 112.926323 37.914462 113.721932 37.914462 
z
" style="fill:#f26b38;stroke:#ffffff;stroke-width:0.48;"/>
    <path clip-path="url(#p29911d955e)" d="M 120.485568 37.914462 
C 121.281177 37.914462 122.044308 37.598363 122.606889 37.035782 
C 123.169469 36.473201 123.485568 35.710071 123.485568 34.914462 
C 123.485568 34.118852 123.169469 33.355722 122.606889 32.793141 
C 122.044308 32.23056 121.281177 31.914462 120.485568 31.914462 
C 119.689959 31.914462 118.926829 32.23056 118.364248 32.793141 
C 117.801667 33.355722 117.485568 34.118852 117.485568 34.914462 
C 117.485568 35.710071 117.801667 36.473201 118.364248 37.035782 
C 118.926829 37.598363 119.689959 37.914462 120.485568 37.914462 
z
" style="fill:#f26b38;stroke:#ffffff;stroke-width:0.48;"/>
    <path clip-path="url(#p29911d955e)" d="M 127.249205 131.625231 
C 128.044814 131.625231 128.807944 131.309132 129.370525 130.746551 
C 129.933106 130.18397 130.249205 129.42084 130.249205 128.625231 
C 130.249205 127.829621 129.933106 127.066491 129.370525 126.50391 
C 128.807944 125.94133 128.044814 125.625231 127.249205 125.625231 
C 126.453595 125.625231 125.690465 125.94133 125.127884 126.50391 
C 124.565303 127.066491 124.249205 127.829621 124.249205 128.625231 
C 124.249205 129.42084 124.565303 130.18397 125.127884 130.746551 
C 125.690465 131.309132 126.453595 131.625231 127.249205 131.625231 
z
" style="fill:#f26b38;stroke:#ffffff;stroke-width:0.48;"/>
    <path clip-path="url(#p29911d955e)" d="M 134.012841 131.625231 
C 134.80845 131.625231 135.571581 131.309132 136.134161 130.746551 
C 136.696742 130.18397 137.012841 129.42084 137.012841 128.625231 
C 137.012841 127.829621 136.696742 127.066491 136.134161 126.50391 
C 135.571581 125.94133 134.80845 125.625231 134.012841 125.625231 
C 133.217232 125.625231 132.454101 125.94133 131.891521 126.50391 
C 131.32894 127.066491 131.012841 127.829621 131.012841 128.625231 
C 131.012841 129.42084 131.32894 130.18397 131.891521 130.746551 
C 132.454101 131.309132 133.217232 131.625231 134.012841 131.625231 
z
" style="fill:#f26b38;stroke:#ffffff;stroke-width:0.48;"/>
    <path clip-path="url(#p29911d955e)" d="M 140.776477 147.243692 
C 141.572087 147.243692 142.335217 146.927593 142.897798 146.365013 
C 143.460378 145.802432 143.776477 145.039302 143.776477 144.243692 
C 143.776477 143.448083 143.460378 142.684953 142.897798 142.122372 
C 142.335217 141.559791 141.572087 141.243692 140.776477 141.243692 
C 139.980868 141.243692 139.217738 141.559791 138.655157 142.122372 
C 138.092576 142.684953 137.776477 143.448083 137.776477 144.243692 
C 137.776477 145.039302 138.092576 145.802432 138.655157 146.365013 
C 139.217738 146.927593 139.980868 147.243692 140.776477 147.243692 
z
" style="fill:#f26b38;stroke:#ffffff;stroke-width:0.48;"/>
    <path clip-path="url(#p29911d955e)" d="M 147.540114 147.243692 
C 148.335723 147.243692 149.098853 146.927593 149.661434 146.365013 
C 150.224015 145.802432 150.540114 145.039302 150.540114 144.243692 
C 150.540114 143.448083 150.224015 142.684953 149.661434 142.122372 
C 149.098853 141.559791 148.335723 141.243692 147.540114 141.243692 
C 146.744504 141.243692 145.981374 141.559791 145.418793 142.122372 
C 144.856213 142.684953 144.540114 143.448083 144.540114 144.243692 
C 144.540114 145.039302 144.856213 145.802432 145.418793 146.365013 
C 145.981374 146.927593 146.744504 147.243692 147.540114 147.243692 
z
" style="fill:#f26b38;stroke:#ffffff;stroke-width:0.48;"/>
    <path clip-path="url(#p29911d955e)" d="M 154.30375 147.243692 
C 155.099359 147.243692 155.86249 146.927593 156.42507 146.365013 
C 156.987651 145.802432 157.30375 145.039302 157.30375 144.243692 
C 157.30375 143.448083 156.987651 142.684953 156.42507 142.122372 
C 155.86249 141.559791 155.099359 141.243692 154.30375 141.243692 
C 153.508141 141.243692 152.74501 141.559791 152.18243 142.122372 
C 151.619849 142.684953 151.30375 143.448083 151.30375 144.243692 
C 151.30375 145.039302 151.619849 145.802432 152.18243 146.365013 
C 152.74501 146.927593 153.508141 147.243692 154.30375 147.243692 
z
" style="fill:#f26b38;stroke:#ffffff;stroke-width:0.48;"/>
    <path clip-path="url(#p29911d955e)" d="M 161.067386 194.099077 
C 161.862996 194.099077 162.626126 193.782978 163.188707 193.220397 
C 163.751287 192.657817 164.067386 191.894686 164.067386 191.099077 
C 164.067386 190.303468 163.751287 189.540337 163.188707 188.977757 
C 162.626126 188.415176 161.862996 188.099077 161.067386 188.099077 
C 160.271777 188.099077 159.508647 188.415176 158.946066 188.977757 
C 158.383485 189.540337 158.067386 190.303468 158.067386 191.099077 
C 158.067386 191.894686 158.383485 192.657817 158.946066 193.220397 
C 159.508647 193.782978 160.271777 194.099077 161.067386 194.099077 
z
" style="fill:#f26b38;stroke:#ffffff;stroke-width:0.48;"/>
    <path clip-path="url(#p29911d955e)" d="M 167.831023 194.099077 
C 168.626632 194.099077 169.389762 193.782978 169.952343 193.220397 
C 170.514924 192.657817 170.831023 191.894686 170.831023 191.099077 
C 170.831023 190.303468 170.514924 189.540337 169.952343 188.977757 
C 169.389762 188.415176 168.626632 188.099077 167.831023 188.099077 
C 167.035413 188.099077 166.272283 188.415176 165.709702 188.977757 
C 165.147122 189.540337 164.831023 190.303468 164.831023 191.099077 
C 164.831023 191.894686 165.147122 192.657817 165.709702 193.220397 
C 166.272283 193.782978 167.035413 194.099077 167.831023 194.099077 
z
" style="fill:#f26b38;stroke:#ffffff;stroke-width:0.48;"/>
    <path clip-path="url(#p29911d955e)" d="M 174.594659 194.099077 
C 175.390268 194.099077 176.153399 193.782978 176.715979 193.220397 
C 177.27856 192.657817 177.594659 191.894686 177.594659 191.099077 
C 177.594659 190.303468 177.27856 189.540337 176.715979 188.977757 
C 176.153399 188.415176 175.390268 188.099077 174.594659 188.099077 
C 173.79905 188.099077 173.035919 188.415176 172.473339 188.977757 
C 171.910758 189.540337 171.594659 190.303468 171.594659 191.099077 
C 171.594659 191.894686 171.910758 192.657817 172.473339 193.220397 
C 173.035919 193.782978 173.79905 194.099077 174.594659 194.099077 
z
" style="fill:#f26b38;stroke:#ffffff;stroke-width:0.48;"/>
    <path clip-path="url(#p29911d955e)" d="M 181.358295 194.099077 
C 182.153905 194.099077 182.917035 193.782978 183.479616 193.220397 
C 184.042197 192.657817 184.358295 191.894686 184.358295 191.099077 
C 184.358295 190.303468 184.042197 189.540337 183.479616 188.977757 
C 182.917035 188.415176 182.153905 188.099077 181.358295 188.099077 
C 180.562686 188.099077 179.799556 188.415176 179.236975 188.977757 
C 178.674394 189.540337 178.358295 190.303468 178.358295 191.099077 
C 178.358295 191.894686 178.674394 192.657817 179.236975 193.220397 
C 179.799556 193.782978 180.562686 194.099077 181.358295 194.099077 
z
" style="fill:#f26b38;stroke:#ffffff;stroke-width:0.48;"/>
    <path clip-path="url(#p29911d955e)" d="M 188.121932 194.099077 
C 188.917541 194.099077 189.680671 193.782978 190.243252 193.220397 
C 190.805833 192.657817 191.121932 191.894686 191.121932 191.099077 
C 191.121932 190.303468 190.805833 189.540337 190.243252 188.977757 
C 189.680671 188.415176 188.917541 188.099077 188.121932 188.099077 
C 187.326323 188.099077 186.563192 188.415176 186.000611 188.977757 
C 185.438031 189.540337 185.121932 190.303468 185.121932 191.099077 
C 185.121932 191.894686 185.438031 192.657817 186.000611 193.220397 
C 186.563192 193.782978 187.326323 194.099077 188.121932 194.099077 
z
" style="fill:#f26b38;stroke:#ffffff;stroke-width:0.48;"/>
    <path clip-path="url(#p29911d955e)" d="M 194.885568 194.099077 
C 195.681177 194.099077 196.444308 193.782978 197.006889 193.220397 
C 197.569469 192.657817 197.885568 191.894686 197.885568 191.099077 
C 197.885568 190.303468 197.569469 189.540337 197.006889 188.977757 
C 196.444308 188.415176 195.681177 188.099077 194.885568 188.099077 
C 194.089959 188.099077 193.326829 188.415176 192.764248 188.977757 
C 192.201667 189.540337 191.885568 190.303468 191.885568 191.099077 
C 191.885568 191.894686 192.201667 192.657817 192.764248 193.220397 
C 193.326829 193.782978 194.089959 194.099077 194.885568 194.099077 
z
" style="fill:#f26b38;stroke:#ffffff;stroke-width:0.48;"/>
    <path clip-path="url(#p29911d955e)" d="M 201.649205 194.099077 
C 202.444814 194.099077 203.207944 193.782978 203.770525 193.220397 
C 204.333106 192.657817 204.649205 191.894686 204.649205 191.099077 
C 204.649205 190.303468 204.333106 189.540337 203.770525 188.977757 
C 203.207944 188.415176 202.444814 188.099077 201.649205 188.099077 
C 200.853595 188.099077 200.090465 188.415176 199.527884 188.977757 
C 198.965303 189.540337 198.649205 190.303468 198.649205 191.099077 
C 198.649205 191.894686 198.965303 192.657817 199.527884 193.220397 
C 200.090465 193.782978 200.853595 194.099077 201.649205 194.099077 
z
" style="fill:#f26b38;stroke:#ffffff;stroke-width:0.48;"/>
    <path clip-path="url(#p29911d955e)" d="M 208.412841 194.099077 
C 209.20845 194.099077 209.971581 193.782978 210.534161 193.220397 
C 211.096742 192.657817 211.412841 191.894686 211.412841 191.099077 
C 211.412841 190.303468 211.096742 189.540337 210.534161 188.977757 
C 209.971581 188.415176 209.20845 188.099077 208.412841 188.099077 
C 207.617232 188.099077 206.854101 188.415176 206.291521 188.977757 
C 205.72894 189.540337 205.412841 190.303468 205.412841 191.099077 
C 205.412841 191.894686 205.72894 192.657817 206.291521 193.220397 
C 206.854101 193.782978 207.617232 194.099077 208.412841 194.099077 
z
" style="fill:#f26b38;stroke:#ffffff;stroke-width:0.48;"/>
    <path clip-path="url(#p29911d955e)" d="M 215.176477 194.099077 
C 215.972087 194.099077 216.735217 193.782978 217.297798 193.220397 
C 217.860378 192.657817 218.176477 191.894686 218.176477 191.099077 
C 218.176477 190.303468 217.860378 189.540337 217.297798 188.977757 
C 216.735217 188.415176 215.972087 188.099077 215.176477 188.099077 
C 214.380868 188.099077 213.617738 188.415176 213.055157 188.977757 
C 212.492576 189.540337 212.176477 190.303468 212.176477 191.099077 
C 212.176477 191.894686 212.492576 192.657817 213.055157 193.220397 
C 213.617738 193.782978 214.380868 194.099077 215.176477 194.099077 
z
" style="fill:#f26b38;stroke:#ffffff;stroke-width:0.48;"/>
    <path clip-path="url(#p29911d955e)" d="M 221.940114 194.099077 
C 222.735723 194.099077 223.498853 193.782978 224.061434 193.220397 
C 224.624015 192.657817 224.940114 191.894686 224.940114 191.099077 
C 224.940114 190.303468 224.624015 189.540337 224.061434 188.977757 
C 223.498853 188.415176 222.735723 188.099077 221.940114 188.099077 
C 221.144504 188.099077 220.381374 188.415176 219.818793 188.977757 
C 219.256213 189.540337 218.940114 190.303468 218.940114 191.099077 
C 218.940114 191.894686 219.256213 192.657817 219.818793 193.220397 
C 220.381374 193.782978 221.144504 194.099077 221.940114 194.099077 
z
" style="fill:#f26b38;stroke:#ffffff;stroke-width:0.48;"/>
    <path clip-path="url(#p29911d955e)" d="M 228.70375 194.099077 
C 229.499359 194.099077 230.26249 193.782978 230.82507 193.220397 
C 231.387651 192.657817 231.70375 191.894686 231.70375 191.099077 
C 231.70375 190.303468 231.387651 189.540337 230.82507 188.977757 
C 230.26249 188.415176 229.499359 188.099077 228.70375 188.099077 
C 227.908141 188.099077 227.14501 188.415176 226.58243 188.977757 
C 226.019849 189.540337 225.70375 190.303468 225.70375 191.099077 
C 225.70375 191.894686 226.019849 192.657817 226.58243 193.220397 
C 227.14501 193.782978 227.908141 194.099077 228.70375 194.099077 
z
" style="fill:#f26b38;stroke:#ffffff;stroke-width:0.48;"/>
    <path clip-path="url(#p29911d955e)" d="M 235.467386 209.717538 
C 236.262996 209.717538 237.026126 209.40144 237.588707 208.838859 
C 238.151287 208.276278 238.467386 207.513148 238.467386 206.717538 
C 238.467386 205.921929 238.151287 205.158799 237.588707 204.596218 
C 237.026126 204.033637 236.262996 203.717538 235.467386 203.717538 
C 234.671777 203.717538 233.908647 204.033637 233.346066 204.596218 
C 232.783485 205.158799 232.467386 205.921929 232.467386 206.717538 
C 232.467386 207.513148 232.783485 208.276278 233.346066 208.838859 
C 233.908647 209.40144 234.671777 209.717538 235.467386 209.717538 
z
" style="fill:#f26b38;stroke:#ffffff;stroke-width:0.48;"/>
    <path clip-path="url(#p29911d955e)" d="M 242.231023 209.717538 
C 243.026632 209.717538 243.789762 209.40144 244.352343 208.838859 
C 244.914924 208.276278 245.231023 207.513148 245.231023 206.717538 
C 245.231023 205.921929 244.914924 205.158799 244.352343 204.596218 
C 243.789762 204.033637 243.026632 203.717538 242.231023 203.717538 
C 241.435413 203.717538 240.672283 204.033637 240.109702 204.596218 
C 239.547122 205.158799 239.231023 205.921929 239.231023 206.717538 
C 239.231023 207.513148 239.547122 208.276278 240.109702 208.838859 
C 240.672283 209.40144 241.435413 209.717538 242.231023 209.717538 
z
" style="fill:#f26b38;stroke:#ffffff;stroke-width:0.48;"/>
    <path clip-path="url(#p29911d955e)" d="M 248.994659 209.717538 
C 249.790268 209.717538 250.553399 209.40144 251.115979 208.838859 
C 251.67856 208.276278 251.994659 207.513148 251.994659 206.717538 
C 251.994659 205.921929 251.67856 205.158799 251.115979 204.596218 
C 250.553399 204.033637 249.790268 203.717538 248.994659 203.717538 
C 248.19905 203.717538 247.435919 204.033637 246.873339 204.596218 
C 246.310758 205.158799 245.994659 205.921929 245.994659 206.717538 
C 245.994659 207.513148 246.310758 208.276278 246.873339 208.838859 
C 247.435919 209.40144 248.19905 209.717538 248.994659 209.717538 
z
" style="fill:#f26b38;stroke:#ffffff;stroke-width:0.48;"/>
    <path clip-path="url(#p29911d955e)" d="M 255.758295 209.717538 
C 256.553905 209.717538 257.317035 209.40144 257.879616 208.838859 
C 258.442197 208.276278 258.758295 207.513148 258.758295 206.717538 
C 258.758295 205.921929 258.442197 205.158799 257.879616 204.596218 
C 257.317035 204.033637 256.553905 203.717538 255.758295 203.717538 
C 254.962686 203.717538 254.199556 204.033637 253.636975 204.596218 
C 253.074394 205.158799 252.758295 205.921929 252.758295 206.717538 
C 252.758295 207.513148 253.074394 208.276278 253.636975 208.838859 
C 254.199556 209.40144 254.962686 209.717538 255.758295 209.717538 
z
" style="fill:#f26b38;stroke:#ffffff;stroke-width:0.48;"/>
    <path clip-path="url(#p29911d955e)" d="M 262.521932 209.717538 
C 263.317541 209.717538 264.080671 209.40144 264.643252 208.838859 
C 265.205833 208.276278 265.521932 207.513148 265.521932 206.717538 
C 265.521932 205.921929 265.205833 205.158799 264.643252 204.596218 
C 264.080671 204.033637 263.317541 203.717538 262.521932 203.717538 
C 261.726323 203.717538 260.963192 204.033637 260.400611 204.596218 
C 259.838031 205.158799 259.521932 205.921929 259.521932 206.717538 
C 259.521932 207.513148 259.838031 208.276278 260.400611 208.838859 
C 260.963192 209.40144 261.726323 209.717538 262.521932 209.717538 
z
" style="fill:#f26b38;stroke:#ffffff;stroke-width:0.48;"/>
    <path clip-path="url(#p29911d955e)" d="M 269.285568 209.717538 
C 270.081177 209.717538 270.844308 209.40144 271.406889 208.838859 
C 271.969469 208.276278 272.285568 207.513148 272.285568 206.717538 
C 272.285568 205.921929 271.969469 205.158799 271.406889 204.596218 
C 270.844308 204.033637 270.081177 203.717538 269.285568 203.717538 
C 268.489959 203.717538 267.726829 204.033637 267.164248 204.596218 
C 266.601667 205.158799 266.285568 205.921929 266.285568 206.717538 
C 266.285568 207.513148 266.601667 208.276278 267.164248 208.838859 
C 267.726829 209.40144 268.489959 209.717538 269.285568 209.717538 
z
" style="fill:#f26b38;stroke:#ffffff;stroke-width:0.48;"/>
    <path clip-path="url(#p29911d955e)" d="M 276.049205 209.717538 
C 276.844814 209.717538 277.607944 209.40144 278.170525 208.838859 
C 278.733106 208.276278 279.049205 207.513148 279.049205 206.717538 
C 279.049205 205.921929 278.733106 205.158799 278.170525 204.596218 
C 277.607944 204.033637 276.844814 203.717538 276.049205 203.717538 
C 275.253595 203.717538 274.490465 204.033637 273.927884 204.596218 
C 273.365303 205.158799 273.049205 205.921929 273.049205 206.717538 
C 273.049205 207.513148 273.365303 208.276278 273.927884 208.838859 
C 274.490465 209.40144 275.253595 209.717538 276.049205 209.717538 
z
" style="fill:#f26b38;stroke:#ffffff;stroke-width:0.48;"/>
    <path clip-path="url(#p29911d955e)" d="M 282.812841 209.717538 
C 283.60845 209.717538 284.371581 209.40144 284.934161 208.838859 
C 285.496742 208.276278 285.812841 207.513148 285.812841 206.717538 
C 285.812841 205.921929 285.496742 205.158799 284.934161 204.596218 
C 284.371581 204.033637 283.60845 203.717538 282.812841 203.717538 
C 282.017232 203.717538 281.254101 204.033637 280.691521 204.596218 
C 280.12894 205.158799 279.812841 205.921929 279.812841 206.717538 
C 279.812841 207.513148 280.12894 208.276278 280.691521 208.838859 
C 281.254101 209.40144 282.017232 209.717538 282.812841 209.717538 
z
" style="fill:#f26b38;stroke:#ffffff;stroke-width:0.48;"/>
    <path clip-path="url(#p29911d955e)" d="M 289.576477 209.717538 
C 290.372087 209.717538 291.135217 209.40144 291.697798 208.838859 
C 292.260378 208.276278 292.576477 207.513148 292.576477 206.717538 
C 292.576477 205.921929 292.260378 205.158799 291.697798 204.596218 
C 291.135217 204.033637 290.372087 203.717538 289.576477 203.717538 
C 288.780868 203.717538 288.017738 204.033637 287.455157 204.596218 
C 286.892576 205.158799 286.576477 205.921929 286.576477 206.717538 
C 286.576477 207.513148 286.892576 208.276278 287.455157 208.838859 
C 288.017738 209.40144 288.780868 209.717538 289.576477 209.717538 
z
" style="fill:#f26b38;stroke:#ffffff;stroke-width:0.48;"/>
    <path clip-path="url(#p29911d955e)" d="M 296.340114 209.717538 
C 297.135723 209.717538 297.898853 209.40144 298.461434 208.838859 
C 299.024015 208.276278 299.340114 207.513148 299.340114 206.717538 
C 299.340114 205.921929 299.024015 205.158799 298.461434 204.596218 
C 297.898853 204.033637 297.135723 203.717538 296.340114 203.717538 
C 295.544504 203.717538 294.781374 204.033637 294.218793 204.596218 
C 293.656213 205.158799 293.340114 205.921929 293.340114 206.717538 
C 293.340114 207.513148 293.656213 208.276278 294.218793 208.838859 
C 294.781374 209.40144 295.544504 209.717538 296.340114 209.717538 
z
" style="fill:#f26b38;stroke:#ffffff;stroke-width:0.48;"/>
    <path clip-path="url(#p29911d955e)" d="M 303.10375 209.717538 
C 303.899359 209.717538 304.66249 209.40144 305.22507 208.838859 
C 305.787651 208.276278 306.10375 207.513148 306.10375 206.717538 
C 306.10375 205.921929 305.787651 205.158799 305.22507 204.596218 
C 304.66249 204.033637 303.899359 203.717538 303.10375 203.717538 
C 302.308141 203.717538 301.54501 204.033637 300.98243 204.596218 
C 300.419849 205.158799 300.10375 205.921929 300.10375 206.717538 
C 300.10375 207.513148 300.419849 208.276278 300.98243 208.838859 
C 301.54501 209.40144 302.308141 209.717538 303.10375 209.717538 
z
" style="fill:#f26b38;stroke:#ffffff;stroke-width:0.48;"/>
    <path clip-path="url(#p29911d955e)" d="M 309.867386 209.717538 
C 310.662996 209.717538 311.426126 209.40144 311.988707 208.838859 
C 312.551287 208.276278 312.867386 207.513148 312.867386 206.717538 
C 312.867386 205.921929 312.551287 205.158799 311.988707 204.596218 
C 311.426126 204.033637 310.662996 203.717538 309.867386 203.717538 
C 309.071777 203.717538 308.308647 204.033637 307.746066 204.596218 
C 307.183485 205.158799 306.867386 205.921929 306.867386 206.717538 
C 306.867386 207.513148 307.183485 208.276278 307.746066 208.838859 
C 308.308647 209.40144 309.071777 209.717538 309.867386 209.717538 
z
" style="fill:#f26b38;stroke:#ffffff;stroke-width:0.48;"/>
    <path clip-path="url(#p29911d955e)" d="M 316.631023 209.717538 
C 317.426632 209.717538 318.189762 209.40144 318.752343 208.838859 
C 319.314924 208.276278 319.631023 207.513148 319.631023 206.717538 
C 319.631023 205.921929 319.314924 205.158799 318.752343 204.596218 
C 318.189762 204.033637 317.426632 203.717538 316.631023 203.717538 
C 315.835413 203.717538 315.072283 204.033637 314.509702 204.596218 
C 313.947122 205.158799 313.631023 205.921929 313.631023 206.717538 
C 313.631023 207.513148 313.947122 208.276278 314.509702 208.838859 
C 315.072283 209.40144 315.835413 209.717538 316.631023 209.717538 
z
" style="fill:#f26b38;stroke:#ffffff;stroke-width:0.48;"/>
    <path clip-path="url(#p29911d955e)" d="M 323.394659 209.717538 
C 324.190268 209.717538 324.953399 209.40144 325.515979 208.838859 
C 326.07856 208.276278 326.394659 207.513148 326.394659 206.717538 
C 326.394659 205.921929 326.07856 205.158799 325.515979 204.596218 
C 324.953399 204.033637 324.190268 203.717538 323.394659 203.717538 
C 322.59905 203.717538 321.835919 204.033637 321.273339 204.596218 
C 320.710758 205.158799 320.394659 205.921929 320.394659 206.717538 
C 320.394659 207.513148 320.710758 208.276278 321.273339 208.838859 
C 321.835919 209.40144 322.59905 209.717538 323.394659 209.717538 
z
" style="fill:#f26b38;stroke:#ffffff;stroke-width:0.48;"/>
    <path clip-path="url(#p29911d955e)" d="M 330.158295 209.717538 
C 330.953905 209.717538 331.717035 209.40144 332.279616 208.838859 
C 332.842197 208.276278 333.158295 207.513148 333.158295 206.717538 
C 333.158295 205.921929 332.842197 205.158799 332.279616 204.596218 
C 331.717035 204.033637 330.953905 203.717538 330.158295 203.717538 
C 329.362686 203.717538 328.599556 204.033637 328.036975 204.596218 
C 327.474394 205.158799 327.158295 205.921929 327.158295 206.717538 
C 327.158295 207.513148 327.474394 208.276278 328.036975 208.838859 
C 328.599556 209.40144 329.362686 209.717538 330.158295 209.717538 
z
" style="fill:#f26b38;stroke:#ffffff;stroke-width:0.48;"/>
    <path clip-path="url(#p29911d955e)" d="M 336.921932 209.717538 
C 337.717541 209.717538 338.480671 209.40144 339.043252 208.838859 
C 339.605833 208.276278 339.921932 207.513148 339.921932 206.717538 
C 339.921932 205.921929 339.605833 205.158799 339.043252 204.596218 
C 338.480671 204.033637 337.717541 203.717538 336.921932 203.717538 
C 336.126323 203.717538 335.363192 204.033637 334.800611 204.596218 
C 334.238031 205.158799 333.921932 205.921929 333.921932 206.717538 
C 333.921932 207.513148 334.238031 208.276278 334.800611 208.838859 
C 335.363192 209.40144 336.126323 209.717538 336.921932 209.717538 
z
" style="fill:#f26b38;stroke:#ffffff;stroke-width:0.48;"/>
    <path clip-path="url(#p29911d955e)" d="M 343.685568 209.717538 
C 344.481177 209.717538 345.244308 209.40144 345.806889 208.838859 
C 346.369469 208.276278 346.685568 207.513148 346.685568 206.717538 
C 346.685568 205.921929 346.369469 205.158799 345.806889 204.596218 
C 345.244308 204.033637 344.481177 203.717538 343.685568 203.717538 
C 342.889959 203.717538 342.126829 204.033637 341.564248 204.596218 
C 341.001667 205.158799 340.685568 205.921929 340.685568 206.717538 
C 340.685568 207.513148 341.001667 208.276278 341.564248 208.838859 
C 342.126829 209.40144 342.889959 209.717538 343.685568 209.717538 
z
" style="fill:#f26b38;stroke:#ffffff;stroke-width:0.48;"/>
    <path clip-path="url(#p29911d955e)" d="M 350.449205 209.717538 
C 351.244814 209.717538 352.007944 209.40144 352.570525 208.838859 
C 353.133106 208.276278 353.449205 207.513148 353.449205 206.717538 
C 353.449205 205.921929 353.133106 205.158799 352.570525 204.596218 
C 352.007944 204.033637 351.244814 203.717538 350.449205 203.717538 
C 349.653595 203.717538 348.890465 204.033637 348.327884 204.596218 
C 347.765303 205.158799 347.449205 205.921929 347.449205 206.717538 
C 347.449205 207.513148 347.765303 208.276278 348.327884 208.838859 
C 348.890465 209.40144 349.653595 209.717538 350.449205 209.717538 
z
" style="fill:#f26b38;stroke:#ffffff;stroke-width:0.48;"/>
    <path clip-path="url(#p29911d955e)" d="M 357.212841 209.717538 
C 358.00845 209.717538 358.771581 209.40144 359.334161 208.838859 
C 359.896742 208.276278 360.212841 207.513148 360.212841 206.717538 
C 360.212841 205.921929 359.896742 205.158799 359.334161 204.596218 
C 358.771581 204.033637 358.00845 203.717538 357.212841 203.717538 
C 356.417232 203.717538 355.654101 204.033637 355.091521 204.596218 
C 354.52894 205.158799 354.212841 205.921929 354.212841 206.717538 
C 354.212841 207.513148 354.52894 208.276278 355.091521 208.838859 
C 355.654101 209.40144 356.417232 209.717538 357.212841 209.717538 
z
" style="fill:#f26b38;stroke:#ffffff;stroke-width:0.48;"/>
    <path clip-path="url(#p29911d955e)" d="M 363.976477 209.717538 
C 364.772087 209.717538 365.535217 209.40144 366.097798 208.838859 
C 366.660378 208.276278 366.976477 207.513148 366.976477 206.717538 
C 366.976477 205.921929 366.660378 205.158799 366.097798 204.596218 
C 365.535217 204.033637 364.772087 203.717538 363.976477 203.717538 
C 363.180868 203.717538 362.417738 204.033637 361.855157 204.596218 
C 361.292576 205.158799 360.976477 205.921929 360.976477 206.717538 
C 360.976477 207.513148 361.292576 208.276278 361.855157 208.838859 
C 362.417738 209.40144 363.180868 209.717538 363.976477 209.717538 
z
" style="fill:#f26b38;stroke:#ffffff;stroke-width:0.48;"/>
    <path clip-path="url(#p29911d955e)" d="M 370.740114 209.717538 
C 371.535723 209.717538 372.298853 209.40144 372.861434 208.838859 
C 373.424015 208.276278 373.740114 207.513148 373.740114 206.717538 
C 373.740114 205.921929 373.424015 205.158799 372.861434 204.596218 
C 372.298853 204.033637 371.535723 203.717538 370.740114 203.717538 
C 369.944504 203.717538 369.181374 204.033637 368.618793 204.596218 
C 368.056213 205.158799 367.740114 205.921929 367.740114 206.717538 
C 367.740114 207.513148 368.056213 208.276278 368.618793 208.838859 
C 369.181374 209.40144 369.944504 209.717538 370.740114 209.717538 
z
" style="fill:#f26b38;stroke:#ffffff;stroke-width:0.48;"/>
    <path clip-path="url(#p29911d955e)" d="M 377.50375 209.717538 
C 378.299359 209.717538 379.06249 209.40144 379.62507 208.838859 
C 380.187651 208.276278 380.50375 207.513148 380.50375 206.717538 
C 380.50375 205.921929 380.187651 205.158799 379.62507 204.596218 
C 379.06249 204.033637 378.299359 203.717538 377.50375 203.717538 
C 376.708141 203.717538 375.94501 204.033637 375.38243 204.596218 
C 374.819849 205.158799 374.50375 205.921929 374.50375 206.717538 
C 374.50375 207.513148 374.819849 208.276278 375.38243 208.838859 
C 375.94501 209.40144 376.708141 209.717538 377.50375 209.717538 
z
" style="fill:#f26b38;stroke:#ffffff;stroke-width:0.48;"/>
    <path clip-path="url(#p29911d955e)" d="M 384.267386 209.717538 
C 385.062996 209.717538 385.826126 209.40144 386.388707 208.838859 
C 386.951287 208.276278 387.267386 207.513148 387.267386 206.717538 
C 387.267386 205.921929 386.951287 205.158799 386.388707 204.596218 
C 385.826126 204.033637 385.062996 203.717538 384.267386 203.717538 
C 383.471777 203.717538 382.708647 204.033637 382.146066 204.596218 
C 381.583485 205.158799 381.267386 205.921929 381.267386 206.717538 
C 381.267386 207.513148 381.583485 208.276278 382.146066 208.838859 
C 382.708647 209.40144 383.471777 209.717538 384.267386 209.717538 
z
" style="fill:#f26b38;stroke:#ffffff;stroke-width:0.48;"/>
    <path clip-path="url(#p29911d955e)" d="M 391.031023 209.717538 
C 391.826632 209.717538 392.589762 209.40144 393.152343 208.838859 
C 393.714924 208.276278 394.031023 207.513148 394.031023 206.717538 
C 394.031023 205.921929 393.714924 205.158799 393.152343 204.596218 
C 392.589762 204.033637 391.826632 203.717538 391.031023 203.717538 
C 390.235413 203.717538 389.472283 204.033637 388.909702 204.596218 
C 388.347122 205.158799 388.031023 205.921929 388.031023 206.717538 
C 388.031023 207.513148 388.347122 208.276278 388.909702 208.838859 
C 389.472283 209.40144 390.235413 209.717538 391.031023 209.717538 
z
" style="fill:#f26b38;stroke:#ffffff;stroke-width:0.48;"/>
    <path clip-path="url(#p29911d955e)" d="M 64.876477 24.954462 
L 66.376477 23.454462 
L 67.876477 24.954462 
L 69.376477 23.454462 
L 67.876477 21.954462 
L 69.376477 20.454462 
L 67.876477 18.954462 
L 66.376477 20.454462 
L 64.876477 18.954462 
L 63.376477 20.454462 
L 64.876477 21.954462 
L 63.376477 23.454462 
z
" style="fill:#2f9599;stroke:#ffffff;stroke-width:0.48;"/>
    <path clip-path="url(#p29911d955e)" d="M 71.640114 136.609846 
L 73.140114 135.109846 
L 74.640114 136.609846 
L 76.140114 135.109846 
L 74.640114 133.609846 
L 76.140114 132.109846 
L 74.640114 130.609846 
L 73.140114 132.109846 
L 71.640114 130.609846 
L 70.140114 132.109846 
L 71.640114 133.609846 
L 70.140114 135.109846 
z
" style="fill:#2f9599;stroke:#ffffff;stroke-width:0.48;"/>
    <path clip-path="url(#p29911d955e)" d="M 78.40375 136.609846 
L 79.90375 135.109846 
L 81.40375 136.609846 
L 82.90375 135.109846 
L 81.40375 133.609846 
L 82.90375 132.109846 
L 81.40375 130.609846 
L 79.90375 132.109846 
L 78.40375 130.609846 
L 76.90375 132.109846 
L 78.40375 133.609846 
L 76.90375 135.109846 
z
" style="fill:#2f9599;stroke:#ffffff;stroke-width:0.48;"/>
    <path clip-path="url(#p29911d955e)" d="M 85.167386 184.462154 
L 86.667386 182.962154 
L 88.167386 184.462154 
L 89.667386 182.962154 
L 88.167386 181.462154 
L 89.667386 179.962154 
L 88.167386 178.462154 
L 86.667386 179.962154 
L 85.167386 178.462154 
L 83.667386 179.962154 
L 85.167386 181.462154 
L 83.667386 182.962154 
z
" style="fill:#2f9599;stroke:#ffffff;stroke-width:0.48;"/>
    <path clip-path="url(#p29911d955e)" d="M 91.931023 200.412923 
L 93.431023 198.912923 
L 94.931023 200.412923 
L 96.431023 198.912923 
L 94.931023 197.412923 
L 96.431023 195.912923 
L 94.931023 194.412923 
L 93.431023 195.912923 
L 91.931023 194.412923 
L 90.431023 195.912923 
L 91.931023 197.412923 
L 90.431023 198.912923 
z
" style="fill:#2f9599;stroke:#ffffff;stroke-width:0.48;"/>
    <path clip-path="url(#p29911d955e)" d="M 98.694659 248.265231 
L 100.194659 246.765231 
L 101.694659 248.265231 
L 103.194659 246.765231 
L 101.694659 245.265231 
L 103.194659 243.765231 
L 101.694659 242.265231 
L 100.194659 243.765231 
L 98.694659 242.265231 
L 97.194659 243.765231 
L 98.694659 245.265231 
L 97.194659 246.765231 
z
" style="fill:#2f9599;stroke:#ffffff;stroke-width:0.48;"/>
    <path clip-path="url(#p29911d955e)" d="M 105.458295 248.265231 
L 106.958295 246.765231 
L 108.458295 248.265231 
L 109.958295 246.765231 
L 108.458295 245.265231 
L 109.958295 243.765231 
L 108.458295 242.265231 
L 106.958295 243.765231 
L 105.458295 242.265231 
L 103.958295 243.765231 
L 105.458295 245.265231 
L 103.958295 246.765231 
z
" style="fill:#2f9599;stroke:#ffffff;stroke-width:0.48;"/>
    <path clip-path="url(#p29911d955e)" d="M 112.221932 248.265231 
L 113.721932 246.765231 
L 115.221932 248.265231 
L 116.721932 246.765231 
L 115.221932 245.265231 
L 116.721932 243.765231 
L 115.221932 242.265231 
L 113.721932 243.765231 
L 112.221932 242.265231 
L 110.721932 243.765231 
L 112.221932 245.265231 
L 110.721932 246.765231 
z
" style="fill:#2f9599;stroke:#ffffff;stroke-width:0.48;"/>
    <path clip-path="url(#p29911d955e)" d="M 118.985568 248.265231 
L 120.485568 246.765231 
L 121.985568 248.265231 
L 123.485568 246.765231 
L 121.985568 245.265231 
L 123.485568 243.765231 
L 121.985568 242.265231 
L 120.485568 243.765231 
L 118.985568 242.265231 
L 117.485568 243.765231 
L 118.985568 245.265231 
L 117.485568 246.765231 
z
" style="fill:#2f9599;stroke:#ffffff;stroke-width:0.48;"/>
    <path clip-path="url(#p29911d955e)" d="M 125.749205 248.265231 
L 127.249205 246.765231 
L 128.749205 248.265231 
L 130.249205 246.765231 
L 128.749205 245.265231 
L 130.249205 243.765231 
L 128.749205 242.265231 
L 127.249205 243.765231 
L 125.749205 242.265231 
L 124.249205 243.765231 
L 125.749205 245.265231 
L 124.249205 246.765231 
z
" style="fill:#2f9599;stroke:#ffffff;stroke-width:0.48;"/>
    <path clip-path="url(#p29911d955e)" d="M 132.512841 248.265231 
L 134.012841 246.765231 
L 135.512841 248.265231 
L 137.012841 246.765231 
L 135.512841 245.265231 
L 137.012841 243.765231 
L 135.512841 242.265231 
L 134.012841 243.765231 
L 132.512841 242.265231 
L 131.012841 243.765231 
L 132.512841 245.265231 
L 131.012841 246.765231 
z
" style="fill:#2f9599;stroke:#ffffff;stroke-width:0.48;"/>
    <path clip-path="url(#p29911d955e)" d="M 139.276477 248.265231 
L 140.776477 246.765231 
L 142.276477 248.265231 
L 143.776477 246.765231 
L 142.276477 245.265231 
L 143.776477 243.765231 
L 142.276477 242.265231 
L 140.776477 243.765231 
L 139.276477 242.265231 
L 137.776477 243.765231 
L 139.276477 245.265231 
L 137.776477 246.765231 
z
" style="fill:#2f9599;stroke:#ffffff;stroke-width:0.48;"/>
    <path clip-path="url(#p29911d955e)" d="M 146.040114 248.265231 
L 147.540114 246.765231 
L 149.040114 248.265231 
L 150.540114 246.765231 
L 149.040114 245.265231 
L 150.540114 243.765231 
L 149.040114 242.265231 
L 147.540114 243.765231 
L 146.040114 242.265231 
L 144.540114 243.765231 
L 146.040114 245.265231 
L 144.540114 246.765231 
z
" style="fill:#2f9599;stroke:#ffffff;stroke-width:0.48;"/>
    <path clip-path="url(#p29911d955e)" d="M 152.80375 248.265231 
L 154.30375 246.765231 
L 155.80375 248.265231 
L 157.30375 246.765231 
L 155.80375 245.265231 
L 157.30375 243.765231 
L 155.80375 242.265231 
L 154.30375 243.765231 
L 152.80375 242.265231 
L 151.30375 243.765231 
L 152.80375 245.265231 
L 151.30375 246.765231 
z
" style="fill:#2f9599;stroke:#ffffff;stroke-width:0.48;"/>
    <path clip-path="url(#p29911d955e)" d="M 159.567386 248.265231 
L 161.067386 246.765231 
L 162.567386 248.265231 
L 164.067386 246.765231 
L 162.567386 245.265231 
L 164.067386 243.765231 
L 162.567386 242.265231 
L 161.067386 243.765231 
L 159.567386 242.265231 
L 158.067386 243.765231 
L 159.567386 245.265231 
L 158.067386 246.765231 
z
" style="fill:#2f9599;stroke:#ffffff;stroke-width:0.48;"/>
    <path clip-path="url(#p29911d955e)" d="M 166.331023 248.265231 
L 167.831023 246.765231 
L 169.331023 248.265231 
L 170.831023 246.765231 
L 169.331023 245.265231 
L 170.831023 243.765231 
L 169.331023 242.265231 
L 167.831023 243.765231 
L 166.331023 242.265231 
L 164.831023 243.765231 
L 166.331023 245.265231 
L 164.831023 246.765231 
z
" style="fill:#2f9599;stroke:#ffffff;stroke-width:0.48;"/>
    <path clip-path="url(#p29911d955e)" d="M 173.094659 264.216 
L 174.594659 262.716 
L 176.094659 264.216 
L 177.594659 262.716 
L 176.094659 261.216 
L 177.594659 259.716 
L 176.094659 258.216 
L 174.594659 259.716 
L 173.094659 258.216 
L 171.594659 259.716 
L 173.094659 261.216 
L 171.594659 262.716 
z
" style="fill:#2f9599;stroke:#ffffff;stroke-width:0.48;"/>
    <path clip-path="url(#p29911d955e)" d="M 179.858295 264.216 
L 181.358295 262.716 
L 182.858295 264.216 
L 184.358295 262.716 
L 182.858295 261.216 
L 184.358295 259.716 
L 182.858295 258.216 
L 181.358295 259.716 
L 179.858295 258.216 
L 178.358295 259.716 
L 179.858295 261.216 
L 178.358295 262.716 
z
" style="fill:#2f9599;stroke:#ffffff;stroke-width:0.48;"/>
    <path clip-path="url(#p29911d955e)" d="M 186.621932 264.216 
L 188.121932 262.716 
L 189.621932 264.216 
L 191.121932 262.716 
L 189.621932 261.216 
L 191.121932 259.716 
L 189.621932 258.216 
L 188.121932 259.716 
L 186.621932 258.216 
L 185.121932 259.716 
L 186.621932 261.216 
L 185.121932 262.716 
z
" style="fill:#2f9599;stroke:#ffffff;stroke-width:0.48;"/>
    <path clip-path="url(#p29911d955e)" d="M 193.385568 264.216 
L 194.885568 262.716 
L 196.385568 264.216 
L 197.885568 262.716 
L 196.385568 261.216 
L 197.885568 259.716 
L 196.385568 258.216 
L 194.885568 259.716 
L 193.385568 258.216 
L 191.885568 259.716 
L 193.385568 261.216 
L 191.885568 262.716 
z
" style="fill:#2f9599;stroke:#ffffff;stroke-width:0.48;"/>
    <path clip-path="url(#p29911d955e)" d="M 200.149205 264.216 
L 201.649205 262.716 
L 203.149205 264.216 
L 204.649205 262.716 
L 203.149205 261.216 
L 204.649205 259.716 
L 203.149205 258.216 
L 201.649205 259.716 
L 200.149205 258.216 
L 198.649205 259.716 
L 200.149205 261.216 
L 198.649205 262.716 
z
" style="fill:#2f9599;stroke:#ffffff;stroke-width:0.48;"/>
    <path clip-path="url(#p29911d955e)" d="M 206.912841 264.216 
L 208.412841 262.716 
L 209.912841 264.216 
L 211.412841 262.716 
L 209.912841 261.216 
L 211.412841 259.716 
L 209.912841 258.216 
L 208.412841 259.716 
L 206.912841 258.216 
L 205.412841 259.716 
L 206.912841 261.216 
L 205.412841 262.716 
z
" style="fill:#2f9599;stroke:#ffffff;stroke-width:0.48;"/>
    <path clip-path="url(#p29911d955e)" d="M 213.676477 264.216 
L 215.176477 262.716 
L 216.676477 264.216 
L 218.176477 262.716 
L 216.676477 261.216 
L 218.176477 259.716 
L 216.676477 258.216 
L 215.176477 259.716 
L 213.676477 258.216 
L 212.176477 259.716 
L 213.676477 261.216 
L 212.176477 262.716 
z
" style="fill:#2f9599;stroke:#ffffff;stroke-width:0.48;"/>
    <path clip-path="url(#p29911d955e)" d="M 220.440114 264.216 
L 221.940114 262.716 
L 223.440114 264.216 
L 224.940114 262.716 
L 223.440114 261.216 
L 224.940114 259.716 
L 223.440114 258.216 
L 221.940114 259.716 
L 220.440114 258.216 
L 218.940114 259.716 
L 220.440114 261.216 
L 218.940114 262.716 
z
" style="fill:#2f9599;stroke:#ffffff;stroke-width:0.48;"/>
    <path clip-path="url(#p29911d955e)" d="M 227.20375 264.216 
L 228.70375 262.716 
L 230.20375 264.216 
L 231.70375 262.716 
L 230.20375 261.216 
L 231.70375 259.716 
L 230.20375 258.216 
L 228.70375 259.716 
L 227.20375 258.216 
L 225.70375 259.716 
L 227.20375 261.216 
L 225.70375 262.716 
z
" style="fill:#2f9599;stroke:#ffffff;stroke-width:0.48;"/>
    <path clip-path="url(#p29911d955e)" d="M 233.967386 264.216 
L 235.467386 262.716 
L 236.967386 264.216 
L 238.467386 262.716 
L 236.967386 261.216 
L 238.467386 259.716 
L 236.967386 258.216 
L 235.467386 259.716 
L 233.967386 258.216 
L 232.467386 259.716 
L 233.967386 261.216 
L 232.467386 262.716 
z
" style="fill:#2f9599;stroke:#ffffff;stroke-width:0.48;"/>
    <path clip-path="url(#p29911d955e)" d="M 240.731023 264.216 
L 242.231023 262.716 
L 243.731023 264.216 
L 245.231023 262.716 
L 243.731023 261.216 
L 245.231023 259.716 
L 243.731023 258.216 
L 242.231023 259.716 
L 240.731023 258.216 
L 239.231023 259.716 
L 240.731023 261.216 
L 239.231023 262.716 
z
" style="fill:#2f9599;stroke:#ffffff;stroke-width:0.48;"/>
    <path clip-path="url(#p29911d955e)" d="M 247.494659 264.216 
L 248.994659 262.716 
L 250.494659 264.216 
L 251.994659 262.716 
L 250.494659 261.216 
L 251.994659 259.716 
L 250.494659 258.216 
L 248.994659 259.716 
L 247.494659 258.216 
L 245.994659 259.716 
L 247.494659 261.216 
L 245.994659 262.716 
z
" style="fill:#2f9599;stroke:#ffffff;stroke-width:0.48;"/>
    <path clip-path="url(#p29911d955e)" d="M 254.258295 264.216 
L 255.758295 262.716 
L 257.258295 264.216 
L 258.758295 262.716 
L 257.258295 261.216 
L 258.758295 259.716 
L 257.258295 258.216 
L 255.758295 259.716 
L 254.258295 258.216 
L 252.758295 259.716 
L 254.258295 261.216 
L 252.758295 262.716 
z
" style="fill:#2f9599;stroke:#ffffff;stroke-width:0.48;"/>
    <path clip-path="url(#p29911d955e)" d="M 261.021932 264.216 
L 262.521932 262.716 
L 264.021932 264.216 
L 265.521932 262.716 
L 264.021932 261.216 
L 265.521932 259.716 
L 264.021932 258.216 
L 262.521932 259.716 
L 261.021932 258.216 
L 259.521932 259.716 
L 261.021932 261.216 
L 259.521932 262.716 
z
" style="fill:#2f9599;stroke:#ffffff;stroke-width:0.48;"/>
    <path clip-path="url(#p29911d955e)" d="M 267.785568 264.216 
L 269.285568 262.716 
L 270.785568 264.216 
L 272.285568 262.716 
L 270.785568 261.216 
L 272.285568 259.716 
L 270.785568 258.216 
L 269.285568 259.716 
L 267.785568 258.216 
L 266.285568 259.716 
L 267.785568 261.216 
L 266.285568 262.716 
z
" style="fill:#2f9599;stroke:#ffffff;stroke-width:0.48;"/>
    <path clip-path="url(#p29911d955e)" d="M 274.549205 264.216 
L 276.049205 262.716 
L 277.549205 264.216 
L 279.049205 262.716 
L 277.549205 261.216 
L 279.049205 259.716 
L 277.549205 258.216 
L 276.049205 259.716 
L 274.549205 258.216 
L 273.049205 259.716 
L 274.549205 261.216 
L 273.049205 262.716 
z
" style="fill:#2f9599;stroke:#ffffff;stroke-width:0.48;"/>
    <path clip-path="url(#p29911d955e)" d="M 281.312841 264.216 
L 282.812841 262.716 
L 284.312841 264.216 
L 285.812841 262.716 
L 284.312841 261.216 
L 285.812841 259.716 
L 284.312841 258.216 
L 282.812841 259.716 
L 281.312841 258.216 
L 279.812841 259.716 
L 281.312841 261.216 
L 279.812841 262.716 
z
" style="fill:#2f9599;stroke:#ffffff;stroke-width:0.48;"/>
    <path clip-path="url(#p29911d955e)" d="M 288.076477 264.216 
L 289.576477 262.716 
L 291.076477 264.216 
L 292.576477 262.716 
L 291.076477 261.216 
L 292.576477 259.716 
L 291.076477 258.216 
L 289.576477 259.716 
L 288.076477 258.216 
L 286.576477 259.716 
L 288.076477 261.216 
L 286.576477 262.716 
z
" style="fill:#2f9599;stroke:#ffffff;stroke-width:0.48;"/>
    <path clip-path="url(#p29911d955e)" d="M 294.840114 264.216 
L 296.340114 262.716 
L 297.840114 264.216 
L 299.340114 262.716 
L 297.840114 261.216 
L 299.340114 259.716 
L 297.840114 258.216 
L 296.340114 259.716 
L 294.840114 258.216 
L 293.340114 259.716 
L 294.840114 261.216 
L 293.340114 262.716 
z
" style="fill:#2f9599;stroke:#ffffff;stroke-width:0.48;"/>
    <path clip-path="url(#p29911d955e)" d="M 301.60375 264.216 
L 303.10375 262.716 
L 304.60375 264.216 
L 306.10375 262.716 
L 304.60375 261.216 
L 306.10375 259.716 
L 304.60375 258.216 
L 303.10375 259.716 
L 301.60375 258.216 
L 300.10375 259.716 
L 301.60375 261.216 
L 300.10375 262.716 
z
" style="fill:#2f9599;stroke:#ffffff;stroke-width:0.48;"/>
    <path clip-path="url(#p29911d955e)" d="M 308.367386 264.216 
L 309.867386 262.716 
L 311.367386 264.216 
L 312.867386 262.716 
L 311.367386 261.216 
L 312.867386 259.716 
L 311.367386 258.216 
L 309.867386 259.716 
L 308.367386 258.216 
L 306.867386 259.716 
L 308.367386 261.216 
L 306.867386 262.716 
z
" style="fill:#2f9599;stroke:#ffffff;stroke-width:0.48;"/>
    <path clip-path="url(#p29911d955e)" d="M 315.131023 264.216 
L 316.631023 262.716 
L 318.131023 264.216 
L 319.631023 262.716 
L 318.131023 261.216 
L 319.631023 259.716 
L 318.131023 258.216 
L 316.631023 259.716 
L 315.131023 258.216 
L 313.631023 259.716 
L 315.131023 261.216 
L 313.631023 262.716 
z
" style="fill:#2f9599;stroke:#ffffff;stroke-width:0.48;"/>
    <path clip-path="url(#p29911d955e)" d="M 321.894659 264.216 
L 323.394659 262.716 
L 324.894659 264.216 
L 326.394659 262.716 
L 324.894659 261.216 
L 326.394659 259.716 
L 324.894659 258.216 
L 323.394659 259.716 
L 321.894659 258.216 
L 320.394659 259.716 
L 321.894659 261.216 
L 320.394659 262.716 
z
" style="fill:#2f9599;stroke:#ffffff;stroke-width:0.48;"/>
    <path clip-path="url(#p29911d955e)" d="M 328.658295 264.216 
L 330.158295 262.716 
L 331.658295 264.216 
L 333.158295 262.716 
L 331.658295 261.216 
L 333.158295 259.716 
L 331.658295 258.216 
L 330.158295 259.716 
L 328.658295 258.216 
L 327.158295 259.716 
L 328.658295 261.216 
L 327.158295 262.716 
z
" style="fill:#2f9599;stroke:#ffffff;stroke-width:0.48;"/>
    <path clip-path="url(#p29911d955e)" d="M 335.421932 264.216 
L 336.921932 262.716 
L 338.421932 264.216 
L 339.921932 262.716 
L 338.421932 261.216 
L 339.921932 259.716 
L 338.421932 258.216 
L 336.921932 259.716 
L 335.421932 258.216 
L 333.921932 259.716 
L 335.421932 261.216 
L 333.921932 262.716 
z
" style="fill:#2f9599;stroke:#ffffff;stroke-width:0.48;"/>
    <path clip-path="url(#p29911d955e)" d="M 342.185568 264.216 
L 343.685568 262.716 
L 345.185568 264.216 
L 346.685568 262.716 
L 345.185568 261.216 
L 346.685568 259.716 
L 345.185568 258.216 
L 343.685568 259.716 
L 342.185568 258.216 
L 340.685568 259.716 
L 342.185568 261.216 
L 340.685568 262.716 
z
" style="fill:#2f9599;stroke:#ffffff;stroke-width:0.48;"/>
    <path clip-path="url(#p29911d955e)" d="M 348.949205 264.216 
L 350.449205 262.716 
L 351.949205 264.216 
L 353.449205 262.716 
L 351.949205 261.216 
L 353.449205 259.716 
L 351.949205 258.216 
L 350.449205 259.716 
L 348.949205 258.216 
L 347.449205 259.716 
L 348.949205 261.216 
L 347.449205 262.716 
z
" style="fill:#2f9599;stroke:#ffffff;stroke-width:0.48;"/>
    <path clip-path="url(#p29911d955e)" d="M 355.712841 264.216 
L 357.212841 262.716 
L 358.712841 264.216 
L 360.212841 262.716 
L 358.712841 261.216 
L 360.212841 259.716 
L 358.712841 258.216 
L 357.212841 259.716 
L 355.712841 258.216 
L 354.212841 259.716 
L 355.712841 261.216 
L 354.212841 262.716 
z
" style="fill:#2f9599;stroke:#ffffff;stroke-width:0.48;"/>
    <path clip-path="url(#p29911d955e)" d="M 362.476477 264.216 
L 363.976477 262.716 
L 365.476477 264.216 
L 366.976477 262.716 
L 365.476477 261.216 
L 366.976477 259.716 
L 365.476477 258.216 
L 363.976477 259.716 
L 362.476477 258.216 
L 360.976477 259.716 
L 362.476477 261.216 
L 360.976477 262.716 
z
" style="fill:#2f9599;stroke:#ffffff;stroke-width:0.48;"/>
    <path clip-path="url(#p29911d955e)" d="M 369.240114 264.216 
L 370.740114 262.716 
L 372.240114 264.216 
L 373.740114 262.716 
L 372.240114 261.216 
L 373.740114 259.716 
L 372.240114 258.216 
L 370.740114 259.716 
L 369.240114 258.216 
L 367.740114 259.716 
L 369.240114 261.216 
L 367.740114 262.716 
z
" style="fill:#2f9599;stroke:#ffffff;stroke-width:0.48;"/>
    <path clip-path="url(#p29911d955e)" d="M 376.00375 264.216 
L 377.50375 262.716 
L 379.00375 264.216 
L 380.50375 262.716 
L 379.00375 261.216 
L 380.50375 259.716 
L 379.00375 258.216 
L 377.50375 259.716 
L 376.00375 258.216 
L 374.50375 259.716 
L 376.00375 261.216 
L 374.50375 262.716 
z
" style="fill:#2f9599;stroke:#ffffff;stroke-width:0.48;"/>
    <path clip-path="url(#p29911d955e)" d="M 382.767386 264.216 
L 384.267386 262.716 
L 385.767386 264.216 
L 387.267386 262.716 
L 385.767386 261.216 
L 387.267386 259.716 
L 385.767386 258.216 
L 384.267386 259.716 
L 382.767386 258.216 
L 381.267386 259.716 
L 382.767386 261.216 
L 381.267386 262.716 
z
" style="fill:#2f9599;stroke:#ffffff;stroke-width:0.48;"/>
    <path clip-path="url(#p29911d955e)" d="M 389.531023 264.216 
L 391.031023 262.716 
L 392.531023 264.216 
L 394.031023 262.716 
L 392.531023 261.216 
L 394.031023 259.716 
L 392.531023 258.216 
L 391.031023 259.716 
L 389.531023 258.216 
L 388.031023 259.716 
L 389.531023 261.216 
L 388.031023 262.716 
z
" style="fill:#2f9599;stroke:#ffffff;stroke-width:0.48;"/>
    <path clip-path="url(#p29911d955e)" d="M 64.255157 60.523879 
L 64.255157 64.76652 
L 68.497798 64.76652 
L 68.497798 60.523879 
z
" style="fill:#a7226e;stroke:#ffffff;stroke-width:0.48;"/>
    <path clip-path="url(#p29911d955e)" d="M 71.018793 60.523879 
L 71.018793 64.76652 
L 75.261434 64.76652 
L 75.261434 60.523879 
z
" style="fill:#a7226e;stroke:#ffffff;stroke-width:0.48;"/>
    <path clip-path="url(#p29911d955e)" d="M 77.78243 60.523879 
L 77.78243 64.76652 
L 82.02507 64.76652 
L 82.02507 60.523879 
z
" style="fill:#a7226e;stroke:#ffffff;stroke-width:0.48;"/>
    <path clip-path="url(#p29911d955e)" d="M 84.546066 60.523879 
L 84.546066 64.76652 
L 88.788707 64.76652 
L 88.788707 60.523879 
z
" style="fill:#a7226e;stroke:#ffffff;stroke-width:0.48;"/>
    <path clip-path="url(#p29911d955e)" d="M 91.309702 60.523879 
L 91.309702 64.76652 
L 95.552343 64.76652 
L 95.552343 60.523879 
z
" style="fill:#a7226e;stroke:#ffffff;stroke-width:0.48;"/>
    <path clip-path="url(#p29911d955e)" d="M 98.073339 60.523879 
L 98.073339 64.76652 
L 102.315979 64.76652 
L 102.315979 60.523879 
z
" style="fill:#a7226e;stroke:#ffffff;stroke-width:0.48;"/>
    <path clip-path="url(#p29911d955e)" d="M 104.836975 60.523879 
L 104.836975 64.76652 
L 109.079616 64.76652 
L 109.079616 60.523879 
z
" style="fill:#a7226e;stroke:#ffffff;stroke-width:0.48;"/>
    <path clip-path="url(#p29911d955e)" d="M 111.600611 75.823596 
L 111.600611 80.066237 
L 115.843252 80.066237 
L 115.843252 75.823596 
z
" style="fill:#a7226e;stroke:#ffffff;stroke-width:0.48;"/>
    <path clip-path="url(#p29911d955e)" d="M 118.364248 60.523879 
L 118.364248 64.76652 
L 122.606889 64.76652 
L 122.606889 60.523879 
z
" style="fill:#a7226e;stroke:#ffffff;stroke-width:0.48;"/>
    <path clip-path="url(#p29911d955e)" d="M 125.127884 60.523879 
L 125.127884 64.76652 
L 129.370525 64.76652 
L 129.370525 60.523879 
z
" style="fill:#a7226e;stroke:#ffffff;stroke-width:0.48;"/>
    <path clip-path="url(#p29911d955e)" d="M 131.891521 60.523879 
L 131.891521 64.76652 
L 136.134161 64.76652 
L 136.134161 60.523879 
z
" style="fill:#a7226e;stroke:#ffffff;stroke-width:0.48;"/>
    <path clip-path="url(#p29911d955e)" d="M 138.655157 60.523879 
L 138.655157 64.76652 
L 142.897798 64.76652 
L 142.897798 60.523879 
z
" style="fill:#a7226e;stroke:#ffffff;stroke-width:0.48;"/>
    <path clip-path="url(#p29911d955e)" d="M 145.418793 60.523879 
L 145.418793 64.76652 
L 149.661434 64.76652 
L 149.661434 60.523879 
z
" style="fill:#a7226e;stroke:#ffffff;stroke-width:0.48;"/>
    <path clip-path="url(#p29911d955e)" d="M 152.18243 60.523879 
L 152.18243 64.76652 
L 156.42507 64.76652 
L 156.42507 60.523879 
z
" style="fill:#a7226e;stroke:#ffffff;stroke-width:0.48;"/>
    <path clip-path="url(#p29911d955e)" d="M 158.946066 60.523879 
L 158.946066 64.76652 
L 163.188707 64.76652 
L 163.188707 60.523879 
z
" style="fill:#a7226e;stroke:#ffffff;stroke-width:0.48;"/>
    <path clip-path="url(#p29911d955e)" d="M 165.709702 60.523879 
L 165.709702 64.76652 
L 169.952343 64.76652 
L 169.952343 60.523879 
z
" style="fill:#a7226e;stroke:#ffffff;stroke-width:0.48;"/>
    <path clip-path="url(#p29911d955e)" d="M 172.473339 45.224162 
L 172.473339 49.466802 
L 176.715979 49.466802 
L 176.715979 45.224162 
z
" style="fill:#a7226e;stroke:#ffffff;stroke-width:0.48;"/>
    <path clip-path="url(#p29911d955e)" d="M 179.236975 45.224162 
L 179.236975 49.466802 
L 183.479616 49.466802 
L 183.479616 45.224162 
z
" style="fill:#a7226e;stroke:#ffffff;stroke-width:0.48;"/>
    <path clip-path="url(#p29911d955e)" d="M 186.000611 45.224162 
L 186.000611 49.466802 
L 190.243252 49.466802 
L 190.243252 45.224162 
z
" style="fill:#a7226e;stroke:#ffffff;stroke-width:0.48;"/>
    <path clip-path="url(#p29911d955e)" d="M 192.764248 29.924444 
L 192.764248 34.167085 
L 197.006889 34.167085 
L 197.006889 29.924444 
z
" style="fill:#a7226e;stroke:#ffffff;stroke-width:0.48;"/>
    <path clip-path="url(#p29911d955e)" d="M 199.527884 29.924444 
L 199.527884 34.167085 
L 203.770525 34.167085 
L 203.770525 29.924444 
z
" style="fill:#a7226e;stroke:#ffffff;stroke-width:0.48;"/>
    <path clip-path="url(#p29911d955e)" d="M 206.291521 137.022466 
L 206.291521 141.265107 
L 210.534161 141.265107 
L 210.534161 137.022466 
z
" style="fill:#a7226e;stroke:#ffffff;stroke-width:0.48;"/>
    <path clip-path="url(#p29911d955e)" d="M 213.055157 137.022466 
L 213.055157 141.265107 
L 217.297798 141.265107 
L 217.297798 137.022466 
z
" style="fill:#a7226e;stroke:#ffffff;stroke-width:0.48;"/>
    <path clip-path="url(#p29911d955e)" d="M 219.818793 152.322184 
L 219.818793 156.564824 
L 224.061434 156.564824 
L 224.061434 152.322184 
z
" style="fill:#a7226e;stroke:#ffffff;stroke-width:0.48;"/>
    <path clip-path="url(#p29911d955e)" d="M 226.58243 152.322184 
L 226.58243 156.564824 
L 230.82507 156.564824 
L 230.82507 152.322184 
z
" style="fill:#a7226e;stroke:#ffffff;stroke-width:0.48;"/>
    <path clip-path="url(#p29911d955e)" d="M 233.346066 152.322184 
L 233.346066 156.564824 
L 237.588707 156.564824 
L 237.588707 152.322184 
z
" style="fill:#a7226e;stroke:#ffffff;stroke-width:0.48;"/>
    <path clip-path="url(#p29911d955e)" d="M 240.109702 198.221336 
L 240.109702 202.463977 
L 244.352343 202.463977 
L 244.352343 198.221336 
z
" style="fill:#a7226e;stroke:#ffffff;stroke-width:0.48;"/>
    <path clip-path="url(#p29911d955e)" d="M 246.873339 198.221336 
L 246.873339 202.463977 
L 251.115979 202.463977 
L 251.115979 198.221336 
z
" style="fill:#a7226e;stroke:#ffffff;stroke-width:0.48;"/>
    <path clip-path="url(#p29911d955e)" d="M 253.636975 198.221336 
L 253.636975 202.463977 
L 257.879616 202.463977 
L 257.879616 198.221336 
z
" style="fill:#a7226e;stroke:#ffffff;stroke-width:0.48;"/>
    <path clip-path="url(#p29911d955e)" d="M 260.400611 198.221336 
L 260.400611 202.463977 
L 264.643252 202.463977 
L 264.643252 198.221336 
z
" style="fill:#a7226e;stroke:#ffffff;stroke-width:0.48;"/>
    <path clip-path="url(#p29911d955e)" d="M 267.164248 198.221336 
L 267.164248 202.463977 
L 271.406889 202.463977 
L 271.406889 198.221336 
z
" style="fill:#a7226e;stroke:#ffffff;stroke-width:0.48;"/>
    <path clip-path="url(#p29911d955e)" d="M 273.927884 198.221336 
L 273.927884 202.463977 
L 278.170525 202.463977 
L 278.170525 198.221336 
z
" style="fill:#a7226e;stroke:#ffffff;stroke-width:0.48;"/>
    <path clip-path="url(#p29911d955e)" d="M 280.691521 198.221336 
L 280.691521 202.463977 
L 284.934161 202.463977 
L 284.934161 198.221336 
z
" style="fill:#a7226e;stroke:#ffffff;stroke-width:0.48;"/>
    <path clip-path="url(#p29911d955e)" d="M 287.455157 198.221336 
L 287.455157 202.463977 
L 291.697798 202.463977 
L 291.697798 198.221336 
z
" style="fill:#a7226e;stroke:#ffffff;stroke-width:0.48;"/>
    <path clip-path="url(#p29911d955e)" d="M 294.218793 198.221336 
L 294.218793 202.463977 
L 298.461434 202.463977 
L 298.461434 198.221336 
z
" style="fill:#a7226e;stroke:#ffffff;stroke-width:0.48;"/>
    <path clip-path="url(#p29911d955e)" d="M 300.98243 198.221336 
L 300.98243 202.463977 
L 305.22507 202.463977 
L 305.22507 198.221336 
z
" style="fill:#a7226e;stroke:#ffffff;stroke-width:0.48;"/>
    <path clip-path="url(#p29911d955e)" d="M 307.746066 198.221336 
L 307.746066 202.463977 
L 311.988707 202.463977 
L 311.988707 198.221336 
z
" style="fill:#a7226e;stroke:#ffffff;stroke-width:0.48;"/>
    <path clip-path="url(#p29911d955e)" d="M 314.509702 198.221336 
L 314.509702 202.463977 
L 318.752343 202.463977 
L 318.752343 198.221336 
z
" style="fill:#a7226e;stroke:#ffffff;stroke-width:0.48;"/>
    <path clip-path="url(#p29911d955e)" d="M 321.273339 198.221336 
L 321.273339 202.463977 
L 325.515979 202.463977 
L 325.515979 198.221336 
z
" style="fill:#a7226e;stroke:#ffffff;stroke-width:0.48;"/>
    <path clip-path="url(#p29911d955e)" d="M 328.036975 198.221336 
L 328.036975 202.463977 
L 332.279616 202.463977 
L 332.279616 198.221336 
z
" style="fill:#a7226e;stroke:#ffffff;stroke-width:0.48;"/>
    <path clip-path="url(#p29911d955e)" d="M 334.800611 198.221336 
L 334.800611 202.463977 
L 339.043252 202.463977 
L 339.043252 198.221336 
z
" style="fill:#a7226e;stroke:#ffffff;stroke-width:0.48;"/>
    <path clip-path="url(#p29911d955e)" d="M 341.564248 198.221336 
L 341.564248 202.463977 
L 345.806889 202.463977 
L 345.806889 198.221336 
z
" style="fill:#a7226e;stroke:#ffffff;stroke-width:0.48;"/>
    <path clip-path="url(#p29911d955e)" d="M 348.327884 198.221336 
L 348.327884 202.463977 
L 352.570525 202.463977 
L 352.570525 198.221336 
z
" style="fill:#a7226e;stroke:#ffffff;stroke-width:0.48;"/>
    <path clip-path="url(#p29911d955e)" d="M 355.091521 198.221336 
L 355.091521 202.463977 
L 359.334161 202.463977 
L 359.334161 198.221336 
z
" style="fill:#a7226e;stroke:#ffffff;stroke-width:0.48;"/>
    <path clip-path="url(#p29911d955e)" d="M 361.855157 198.221336 
L 361.855157 202.463977 
L 366.097798 202.463977 
L 366.097798 198.221336 
z
" style="fill:#a7226e;stroke:#ffffff;stroke-width:0.48;"/>
    <path clip-path="url(#p29911d955e)" d="M 368.618793 198.221336 
L 368.618793 202.463977 
L 372.861434 202.463977 
L 372.861434 198.221336 
z
" style="fill:#a7226e;stroke:#ffffff;stroke-width:0.48;"/>
    <path clip-path="url(#p29911d955e)" d="M 375.38243 198.221336 
L 375.38243 202.463977 
L 379.62507 202.463977 
L 379.62507 198.221336 
z
" style="fill:#a7226e;stroke:#ffffff;stroke-width:0.48;"/>
    <path clip-path="url(#p29911d955e)" d="M 382.146066 198.221336 
L 382.146066 202.463977 
L 386.388707 202.463977 
L 386.388707 198.221336 
z
" style="fill:#a7226e;stroke:#ffffff;stroke-width:0.48;"/>
    <path clip-path="url(#p29911d955e)" d="M 388.909702 198.221336 
L 388.909702 202.463977 
L 393.152343 202.463977 
L 393.152343 198.221336 
z
" style="fill:#a7226e;stroke:#ffffff;stroke-width:0.48;"/>
   </g>
   <g id="PathCollection_2"/>
   <g id="PathCollection_3"/>
   <g id="PathCollection_4"/>
   <g id="matplotlib.axis_1">
    <g id="xtick_1">
     <g id="line2d_1">
      <defs>
       <path d="M 0 0 
L 0 3.5 
" id="m661c7cea51" style="stroke:#000000;stroke-width:0.8;"/>
      </defs>
      <g>
       <use style="stroke:#000000;stroke-width:0.8;" x="59.612841" xlink:href="#m661c7cea51" y="273.312"/>
      </g>
     </g>
     <g id="text_1">
      <!-- 0.0 -->
      <g transform="translate(51.661278 287.910437)scale(0.1 -0.1)">
       <defs>
        <path d="M 31.78125 66.40625 
Q 24.171875 66.40625 20.328125 58.90625 
Q 16.5 51.421875 16.5 36.375 
Q 16.5 21.390625 20.328125 13.890625 
Q 24.171875 6.390625 31.78125 6.390625 
Q 39.453125 6.390625 43.28125 13.890625 
Q 47.125 21.390625 47.125 36.375 
Q 47.125 51.421875 43.28125 58.90625 
Q 39.453125 66.40625 31.78125 66.40625 
z
M 31.78125 74.21875 
Q 44.046875 74.21875 50.515625 64.515625 
Q 56.984375 54.828125 56.984375 36.375 
Q 56.984375 17.96875 50.515625 8.265625 
Q 44.046875 -1.421875 31.78125 -1.421875 
Q 19.53125 -1.421875 13.0625 8.265625 
Q 6.59375 17.96875 6.59375 36.375 
Q 6.59375 54.828125 13.0625 64.515625 
Q 19.53125 74.21875 31.78125 74.21875 
z
" id="DejaVuSans-48"/>
        <path d="M 10.6875 12.40625 
L 21 12.40625 
L 21 0 
L 10.6875 0 
z
" id="DejaVuSans-46"/>
       </defs>
       <use xlink:href="#DejaVuSans-48"/>
       <use x="63.623047" xlink:href="#DejaVuSans-46"/>
       <use x="95.410156" xlink:href="#DejaVuSans-48"/>
      </g>
     </g>
    </g>
    <g id="xtick_2">
     <g id="line2d_2">
      <g>
       <use style="stroke:#000000;stroke-width:0.8;" x="127.249205" xlink:href="#m661c7cea51" y="273.312"/>
      </g>
     </g>
     <g id="text_2">
      <!-- 0.2 -->
      <g transform="translate(119.297642 287.910437)scale(0.1 -0.1)">
       <defs>
        <path d="M 19.1875 8.296875 
L 53.609375 8.296875 
L 53.609375 0 
L 7.328125 0 
L 7.328125 8.296875 
Q 12.9375 14.109375 22.625 23.890625 
Q 32.328125 33.6875 34.8125 36.53125 
Q 39.546875 41.84375 41.421875 45.53125 
Q 43.3125 49.21875 43.3125 52.78125 
Q 43.3125 58.59375 39.234375 62.25 
Q 35.15625 65.921875 28.609375 65.921875 
Q 23.96875 65.921875 18.8125 64.3125 
Q 13.671875 62.703125 7.8125 59.421875 
L 7.8125 69.390625 
Q 13.765625 71.78125 18.9375 73 
Q 24.125 74.21875 28.421875 74.21875 
Q 39.75 74.21875 46.484375 68.546875 
Q 53.21875 62.890625 53.21875 53.421875 
Q 53.21875 48.921875 51.53125 44.890625 
Q 49.859375 40.875 45.40625 35.40625 
Q 44.1875 33.984375 37.640625 27.21875 
Q 31.109375 20.453125 19.1875 8.296875 
z
" id="DejaVuSans-50"/>
       </defs>
       <use xlink:href="#DejaVuSans-48"/>
       <use x="63.623047" xlink:href="#DejaVuSans-46"/>
       <use x="95.410156" xlink:href="#DejaVuSans-50"/>
      </g>
     </g>
    </g>
    <g id="xtick_3">
     <g id="line2d_3">
      <g>
       <use style="stroke:#000000;stroke-width:0.8;" x="194.885568" xlink:href="#m661c7cea51" y="273.312"/>
      </g>
     </g>
     <g id="text_3">
      <!-- 0.4 -->
      <g transform="translate(186.934006 287.910437)scale(0.1 -0.1)">
       <defs>
        <path d="M 37.796875 64.3125 
L 12.890625 25.390625 
L 37.796875 25.390625 
z
M 35.203125 72.90625 
L 47.609375 72.90625 
L 47.609375 25.390625 
L 58.015625 25.390625 
L 58.015625 17.1875 
L 47.609375 17.1875 
L 47.609375 0 
L 37.796875 0 
L 37.796875 17.1875 
L 4.890625 17.1875 
L 4.890625 26.703125 
z
" id="DejaVuSans-52"/>
       </defs>
       <use xlink:href="#DejaVuSans-48"/>
       <use x="63.623047" xlink:href="#DejaVuSans-46"/>
       <use x="95.410156" xlink:href="#DejaVuSans-52"/>
      </g>
     </g>
    </g>
    <g id="xtick_4">
     <g id="line2d_4">
      <g>
       <use style="stroke:#000000;stroke-width:0.8;" x="262.521932" xlink:href="#m661c7cea51" y="273.312"/>
      </g>
     </g>
     <g id="text_4">
      <!-- 0.6 -->
      <g transform="translate(254.570369 287.910437)scale(0.1 -0.1)">
       <defs>
        <path d="M 33.015625 40.375 
Q 26.375 40.375 22.484375 35.828125 
Q 18.609375 31.296875 18.609375 23.390625 
Q 18.609375 15.53125 22.484375 10.953125 
Q 26.375 6.390625 33.015625 6.390625 
Q 39.65625 6.390625 43.53125 10.953125 
Q 47.40625 15.53125 47.40625 23.390625 
Q 47.40625 31.296875 43.53125 35.828125 
Q 39.65625 40.375 33.015625 40.375 
z
M 52.59375 71.296875 
L 52.59375 62.3125 
Q 48.875 64.0625 45.09375 64.984375 
Q 41.3125 65.921875 37.59375 65.921875 
Q 27.828125 65.921875 22.671875 59.328125 
Q 17.53125 52.734375 16.796875 39.40625 
Q 19.671875 43.65625 24.015625 45.921875 
Q 28.375 48.1875 33.59375 48.1875 
Q 44.578125 48.1875 50.953125 41.515625 
Q 57.328125 34.859375 57.328125 23.390625 
Q 57.328125 12.15625 50.6875 5.359375 
Q 44.046875 -1.421875 33.015625 -1.421875 
Q 20.359375 -1.421875 13.671875 8.265625 
Q 6.984375 17.96875 6.984375 36.375 
Q 6.984375 53.65625 15.1875 63.9375 
Q 23.390625 74.21875 37.203125 74.21875 
Q 40.921875 74.21875 44.703125 73.484375 
Q 48.484375 72.75 52.59375 71.296875 
z
" id="DejaVuSans-54"/>
       </defs>
       <use xlink:href="#DejaVuSans-48"/>
       <use x="63.623047" xlink:href="#DejaVuSans-46"/>
       <use x="95.410156" xlink:href="#DejaVuSans-54"/>
      </g>
     </g>
    </g>
    <g id="xtick_5">
     <g id="line2d_5">
      <g>
       <use style="stroke:#000000;stroke-width:0.8;" x="330.158295" xlink:href="#m661c7cea51" y="273.312"/>
      </g>
     </g>
     <g id="text_5">
      <!-- 0.8 -->
      <g transform="translate(322.206733 287.910437)scale(0.1 -0.1)">
       <defs>
        <path d="M 31.78125 34.625 
Q 24.75 34.625 20.71875 30.859375 
Q 16.703125 27.09375 16.703125 20.515625 
Q 16.703125 13.921875 20.71875 10.15625 
Q 24.75 6.390625 31.78125 6.390625 
Q 38.8125 6.390625 42.859375 10.171875 
Q 46.921875 13.96875 46.921875 20.515625 
Q 46.921875 27.09375 42.890625 30.859375 
Q 38.875 34.625 31.78125 34.625 
z
M 21.921875 38.8125 
Q 15.578125 40.375 12.03125 44.71875 
Q 8.5 49.078125 8.5 55.328125 
Q 8.5 64.0625 14.71875 69.140625 
Q 20.953125 74.21875 31.78125 74.21875 
Q 42.671875 74.21875 48.875 69.140625 
Q 55.078125 64.0625 55.078125 55.328125 
Q 55.078125 49.078125 51.53125 44.71875 
Q 48 40.375 41.703125 38.8125 
Q 48.828125 37.15625 52.796875 32.3125 
Q 56.78125 27.484375 56.78125 20.515625 
Q 56.78125 9.90625 50.3125 4.234375 
Q 43.84375 -1.421875 31.78125 -1.421875 
Q 19.734375 -1.421875 13.25 4.234375 
Q 6.78125 9.90625 6.78125 20.515625 
Q 6.78125 27.484375 10.78125 32.3125 
Q 14.796875 37.15625 21.921875 38.8125 
z
M 18.3125 54.390625 
Q 18.3125 48.734375 21.84375 45.5625 
Q 25.390625 42.390625 31.78125 42.390625 
Q 38.140625 42.390625 41.71875 45.5625 
Q 45.3125 48.734375 45.3125 54.390625 
Q 45.3125 60.0625 41.71875 63.234375 
Q 38.140625 66.40625 31.78125 66.40625 
Q 25.390625 66.40625 21.84375 63.234375 
Q 18.3125 60.0625 18.3125 54.390625 
z
" id="DejaVuSans-56"/>
       </defs>
       <use xlink:href="#DejaVuSans-48"/>
       <use x="63.623047" xlink:href="#DejaVuSans-46"/>
       <use x="95.410156" xlink:href="#DejaVuSans-56"/>
      </g>
     </g>
    </g>
    <g id="xtick_6">
     <g id="line2d_6">
      <g>
       <use style="stroke:#000000;stroke-width:0.8;" x="397.794659" xlink:href="#m661c7cea51" y="273.312"/>
      </g>
     </g>
     <g id="text_6">
      <!-- 1.0 -->
      <g transform="translate(389.843097 287.910437)scale(0.1 -0.1)">
       <defs>
        <path d="M 12.40625 8.296875 
L 28.515625 8.296875 
L 28.515625 63.921875 
L 10.984375 60.40625 
L 10.984375 69.390625 
L 28.421875 72.90625 
L 38.28125 72.90625 
L 38.28125 8.296875 
L 54.390625 8.296875 
L 54.390625 0 
L 12.40625 0 
z
" id="DejaVuSans-49"/>
       </defs>
       <use xlink:href="#DejaVuSans-49"/>
       <use x="63.623047" xlink:href="#DejaVuSans-46"/>
       <use x="95.410156" xlink:href="#DejaVuSans-48"/>
      </g>
     </g>
    </g>
    <g id="text_7">
     <!-- cutoff -->
     <g transform="translate(214.245938 301.588562)scale(0.1 -0.1)">
      <defs>
       <path d="M 48.78125 52.59375 
L 48.78125 44.1875 
Q 44.96875 46.296875 41.140625 47.34375 
Q 37.3125 48.390625 33.40625 48.390625 
Q 24.65625 48.390625 19.8125 42.84375 
Q 14.984375 37.3125 14.984375 27.296875 
Q 14.984375 17.28125 19.8125 11.734375 
Q 24.65625 6.203125 33.40625 6.203125 
Q 37.3125 6.203125 41.140625 7.25 
Q 44.96875 8.296875 48.78125 10.40625 
L 48.78125 2.09375 
Q 45.015625 0.34375 40.984375 -0.53125 
Q 36.96875 -1.421875 32.421875 -1.421875 
Q 20.0625 -1.421875 12.78125 6.34375 
Q 5.515625 14.109375 5.515625 27.296875 
Q 5.515625 40.671875 12.859375 48.328125 
Q 20.21875 56 33.015625 56 
Q 37.15625 56 41.109375 55.140625 
Q 45.0625 54.296875 48.78125 52.59375 
z
" id="DejaVuSans-99"/>
       <path d="M 8.5 21.578125 
L 8.5 54.6875 
L 17.484375 54.6875 
L 17.484375 21.921875 
Q 17.484375 14.15625 20.5 10.265625 
Q 23.53125 6.390625 29.59375 6.390625 
Q 36.859375 6.390625 41.078125 11.03125 
Q 45.3125 15.671875 45.3125 23.6875 
L 45.3125 54.6875 
L 54.296875 54.6875 
L 54.296875 0 
L 45.3125 0 
L 45.3125 8.40625 
Q 42.046875 3.421875 37.71875 1 
Q 33.40625 -1.421875 27.6875 -1.421875 
Q 18.265625 -1.421875 13.375 4.4375 
Q 8.5 10.296875 8.5 21.578125 
z
M 31.109375 56 
z
" id="DejaVuSans-117"/>
       <path d="M 18.3125 70.21875 
L 18.3125 54.6875 
L 36.8125 54.6875 
L 36.8125 47.703125 
L 18.3125 47.703125 
L 18.3125 18.015625 
Q 18.3125 11.328125 20.140625 9.421875 
Q 21.96875 7.515625 27.59375 7.515625 
L 36.8125 7.515625 
L 36.8125 0 
L 27.59375 0 
Q 17.1875 0 13.234375 3.875 
Q 9.28125 7.765625 9.28125 18.015625 
L 9.28125 47.703125 
L 2.6875 47.703125 
L 2.6875 54.6875 
L 9.28125 54.6875 
L 9.28125 70.21875 
z
" id="DejaVuSans-116"/>
       <path d="M 30.609375 48.390625 
Q 23.390625 48.390625 19.1875 42.75 
Q 14.984375 37.109375 14.984375 27.296875 
Q 14.984375 17.484375 19.15625 11.84375 
Q 23.34375 6.203125 30.609375 6.203125 
Q 37.796875 6.203125 41.984375 11.859375 
Q 46.1875 17.53125 46.1875 27.296875 
Q 46.1875 37.015625 41.984375 42.703125 
Q 37.796875 48.390625 30.609375 48.390625 
z
M 30.609375 56 
Q 42.328125 56 49.015625 48.375 
Q 55.71875 40.765625 55.71875 27.296875 
Q 55.71875 13.875 49.015625 6.21875 
Q 42.328125 -1.421875 30.609375 -1.421875 
Q 18.84375 -1.421875 12.171875 6.21875 
Q 5.515625 13.875 5.515625 27.296875 
Q 5.515625 40.765625 12.171875 48.375 
Q 18.84375 56 30.609375 56 
z
" id="DejaVuSans-111"/>
       <path d="M 37.109375 75.984375 
L 37.109375 68.5 
L 28.515625 68.5 
Q 23.6875 68.5 21.796875 66.546875 
Q 19.921875 64.59375 19.921875 59.515625 
L 19.921875 54.6875 
L 34.71875 54.6875 
L 34.71875 47.703125 
L 19.921875 47.703125 
L 19.921875 0 
L 10.890625 0 
L 10.890625 47.703125 
L 2.296875 47.703125 
L 2.296875 54.6875 
L 10.890625 54.6875 
L 10.890625 58.5 
Q 10.890625 67.625 15.140625 71.796875 
Q 19.390625 75.984375 28.609375 75.984375 
z
" id="DejaVuSans-102"/>
      </defs>
      <use xlink:href="#DejaVuSans-99"/>
      <use x="54.980469" xlink:href="#DejaVuSans-117"/>
      <use x="118.359375" xlink:href="#DejaVuSans-116"/>
      <use x="157.568359" xlink:href="#DejaVuSans-111"/>
      <use x="218.75" xlink:href="#DejaVuSans-102"/>
      <use x="253.955078" xlink:href="#DejaVuSans-102"/>
     </g>
    </g>
   </g>
   <g id="matplotlib.axis_2">
    <g id="ytick_1">
     <g id="line2d_7">
      <defs>
       <path d="M 0 0 
L -3.5 0 
" id="m2f7af97197" style="stroke:#000000;stroke-width:0.8;"/>
      </defs>
      <g>
       <use style="stroke:#000000;stroke-width:0.8;" x="50.14375" xlink:href="#m2f7af97197" y="269.191385"/>
      </g>
     </g>
     <g id="text_8">
      <!-- 0.50 -->
      <g transform="translate(20.878125 272.990603)scale(0.1 -0.1)">
       <defs>
        <path d="M 10.796875 72.90625 
L 49.515625 72.90625 
L 49.515625 64.59375 
L 19.828125 64.59375 
L 19.828125 46.734375 
Q 21.96875 47.46875 24.109375 47.828125 
Q 26.265625 48.1875 28.421875 48.1875 
Q 40.625 48.1875 47.75 41.5 
Q 54.890625 34.8125 54.890625 23.390625 
Q 54.890625 11.625 47.5625 5.09375 
Q 40.234375 -1.421875 26.90625 -1.421875 
Q 22.3125 -1.421875 17.546875 -0.640625 
Q 12.796875 0.140625 7.71875 1.703125 
L 7.71875 11.625 
Q 12.109375 9.234375 16.796875 8.0625 
Q 21.484375 6.890625 26.703125 6.890625 
Q 35.15625 6.890625 40.078125 11.328125 
Q 45.015625 15.765625 45.015625 23.390625 
Q 45.015625 31 40.078125 35.4375 
Q 35.15625 39.890625 26.703125 39.890625 
Q 22.75 39.890625 18.8125 39.015625 
Q 14.890625 38.140625 10.796875 36.28125 
z
" id="DejaVuSans-53"/>
       </defs>
       <use xlink:href="#DejaVuSans-48"/>
       <use x="63.623047" xlink:href="#DejaVuSans-46"/>
       <use x="95.410156" xlink:href="#DejaVuSans-53"/>
       <use x="159.033203" xlink:href="#DejaVuSans-48"/>
      </g>
     </g>
    </g>
    <g id="ytick_2">
     <g id="line2d_8">
      <g>
       <use style="stroke:#000000;stroke-width:0.8;" x="50.14375" xlink:href="#m2f7af97197" y="231.707077"/>
      </g>
     </g>
     <g id="text_9">
      <!-- 0.55 -->
      <g transform="translate(20.878125 235.506296)scale(0.1 -0.1)">
       <use xlink:href="#DejaVuSans-48"/>
       <use x="63.623047" xlink:href="#DejaVuSans-46"/>
       <use x="95.410156" xlink:href="#DejaVuSans-53"/>
       <use x="159.033203" xlink:href="#DejaVuSans-53"/>
      </g>
     </g>
    </g>
    <g id="ytick_3">
     <g id="line2d_9">
      <g>
       <use style="stroke:#000000;stroke-width:0.8;" x="50.14375" xlink:href="#m2f7af97197" y="194.222769"/>
      </g>
     </g>
     <g id="text_10">
      <!-- 0.60 -->
      <g transform="translate(20.878125 198.021988)scale(0.1 -0.1)">
       <use xlink:href="#DejaVuSans-48"/>
       <use x="63.623047" xlink:href="#DejaVuSans-46"/>
       <use x="95.410156" xlink:href="#DejaVuSans-54"/>
       <use x="159.033203" xlink:href="#DejaVuSans-48"/>
      </g>
     </g>
    </g>
    <g id="ytick_4">
     <g id="line2d_10">
      <g>
       <use style="stroke:#000000;stroke-width:0.8;" x="50.14375" xlink:href="#m2f7af97197" y="156.738462"/>
      </g>
     </g>
     <g id="text_11">
      <!-- 0.65 -->
      <g transform="translate(20.878125 160.53768)scale(0.1 -0.1)">
       <use xlink:href="#DejaVuSans-48"/>
       <use x="63.623047" xlink:href="#DejaVuSans-46"/>
       <use x="95.410156" xlink:href="#DejaVuSans-54"/>
       <use x="159.033203" xlink:href="#DejaVuSans-53"/>
      </g>
     </g>
    </g>
    <g id="ytick_5">
     <g id="line2d_11">
      <g>
       <use style="stroke:#000000;stroke-width:0.8;" x="50.14375" xlink:href="#m2f7af97197" y="119.254154"/>
      </g>
     </g>
     <g id="text_12">
      <!-- 0.70 -->
      <g transform="translate(20.878125 123.053373)scale(0.1 -0.1)">
       <defs>
        <path d="M 8.203125 72.90625 
L 55.078125 72.90625 
L 55.078125 68.703125 
L 28.609375 0 
L 18.3125 0 
L 43.21875 64.59375 
L 8.203125 64.59375 
z
" id="DejaVuSans-55"/>
       </defs>
       <use xlink:href="#DejaVuSans-48"/>
       <use x="63.623047" xlink:href="#DejaVuSans-46"/>
       <use x="95.410156" xlink:href="#DejaVuSans-55"/>
       <use x="159.033203" xlink:href="#DejaVuSans-48"/>
      </g>
     </g>
    </g>
    <g id="ytick_6">
     <g id="line2d_12">
      <g>
       <use style="stroke:#000000;stroke-width:0.8;" x="50.14375" xlink:href="#m2f7af97197" y="81.769846"/>
      </g>
     </g>
     <g id="text_13">
      <!-- 0.75 -->
      <g transform="translate(20.878125 85.569065)scale(0.1 -0.1)">
       <use xlink:href="#DejaVuSans-48"/>
       <use x="63.623047" xlink:href="#DejaVuSans-46"/>
       <use x="95.410156" xlink:href="#DejaVuSans-55"/>
       <use x="159.033203" xlink:href="#DejaVuSans-53"/>
      </g>
     </g>
    </g>
    <g id="ytick_7">
     <g id="line2d_13">
      <g>
       <use style="stroke:#000000;stroke-width:0.8;" x="50.14375" xlink:href="#m2f7af97197" y="44.285538"/>
      </g>
     </g>
     <g id="text_14">
      <!-- 0.80 -->
      <g transform="translate(20.878125 48.084757)scale(0.1 -0.1)">
       <use xlink:href="#DejaVuSans-48"/>
       <use x="63.623047" xlink:href="#DejaVuSans-46"/>
       <use x="95.410156" xlink:href="#DejaVuSans-56"/>
       <use x="159.033203" xlink:href="#DejaVuSans-48"/>
      </g>
     </g>
    </g>
    <g id="text_15">
     <!-- performance -->
     <g transform="translate(14.798438 172.278656)rotate(-90)scale(0.1 -0.1)">
      <defs>
       <path d="M 18.109375 8.203125 
L 18.109375 -20.796875 
L 9.078125 -20.796875 
L 9.078125 54.6875 
L 18.109375 54.6875 
L 18.109375 46.390625 
Q 20.953125 51.265625 25.265625 53.625 
Q 29.59375 56 35.59375 56 
Q 45.5625 56 51.78125 48.09375 
Q 58.015625 40.1875 58.015625 27.296875 
Q 58.015625 14.40625 51.78125 6.484375 
Q 45.5625 -1.421875 35.59375 -1.421875 
Q 29.59375 -1.421875 25.265625 0.953125 
Q 20.953125 3.328125 18.109375 8.203125 
z
M 48.6875 27.296875 
Q 48.6875 37.203125 44.609375 42.84375 
Q 40.53125 48.484375 33.40625 48.484375 
Q 26.265625 48.484375 22.1875 42.84375 
Q 18.109375 37.203125 18.109375 27.296875 
Q 18.109375 17.390625 22.1875 11.75 
Q 26.265625 6.109375 33.40625 6.109375 
Q 40.53125 6.109375 44.609375 11.75 
Q 48.6875 17.390625 48.6875 27.296875 
z
" id="DejaVuSans-112"/>
       <path d="M 56.203125 29.59375 
L 56.203125 25.203125 
L 14.890625 25.203125 
Q 15.484375 15.921875 20.484375 11.0625 
Q 25.484375 6.203125 34.421875 6.203125 
Q 39.59375 6.203125 44.453125 7.46875 
Q 49.3125 8.734375 54.109375 11.28125 
L 54.109375 2.78125 
Q 49.265625 0.734375 44.1875 -0.34375 
Q 39.109375 -1.421875 33.890625 -1.421875 
Q 20.796875 -1.421875 13.15625 6.1875 
Q 5.515625 13.8125 5.515625 26.8125 
Q 5.515625 40.234375 12.765625 48.109375 
Q 20.015625 56 32.328125 56 
Q 43.359375 56 49.78125 48.890625 
Q 56.203125 41.796875 56.203125 29.59375 
z
M 47.21875 32.234375 
Q 47.125 39.59375 43.09375 43.984375 
Q 39.0625 48.390625 32.421875 48.390625 
Q 24.90625 48.390625 20.390625 44.140625 
Q 15.875 39.890625 15.1875 32.171875 
z
" id="DejaVuSans-101"/>
       <path d="M 41.109375 46.296875 
Q 39.59375 47.171875 37.8125 47.578125 
Q 36.03125 48 33.890625 48 
Q 26.265625 48 22.1875 43.046875 
Q 18.109375 38.09375 18.109375 28.8125 
L 18.109375 0 
L 9.078125 0 
L 9.078125 54.6875 
L 18.109375 54.6875 
L 18.109375 46.1875 
Q 20.953125 51.171875 25.484375 53.578125 
Q 30.03125 56 36.53125 56 
Q 37.453125 56 38.578125 55.875 
Q 39.703125 55.765625 41.0625 55.515625 
z
" id="DejaVuSans-114"/>
       <path d="M 52 44.1875 
Q 55.375 50.25 60.0625 53.125 
Q 64.75 56 71.09375 56 
Q 79.640625 56 84.28125 50.015625 
Q 88.921875 44.046875 88.921875 33.015625 
L 88.921875 0 
L 79.890625 0 
L 79.890625 32.71875 
Q 79.890625 40.578125 77.09375 44.375 
Q 74.3125 48.1875 68.609375 48.1875 
Q 61.625 48.1875 57.5625 43.546875 
Q 53.515625 38.921875 53.515625 30.90625 
L 53.515625 0 
L 44.484375 0 
L 44.484375 32.71875 
Q 44.484375 40.625 41.703125 44.40625 
Q 38.921875 48.1875 33.109375 48.1875 
Q 26.21875 48.1875 22.15625 43.53125 
Q 18.109375 38.875 18.109375 30.90625 
L 18.109375 0 
L 9.078125 0 
L 9.078125 54.6875 
L 18.109375 54.6875 
L 18.109375 46.1875 
Q 21.1875 51.21875 25.484375 53.609375 
Q 29.78125 56 35.6875 56 
Q 41.65625 56 45.828125 52.96875 
Q 50 49.953125 52 44.1875 
z
" id="DejaVuSans-109"/>
       <path d="M 34.28125 27.484375 
Q 23.390625 27.484375 19.1875 25 
Q 14.984375 22.515625 14.984375 16.5 
Q 14.984375 11.71875 18.140625 8.90625 
Q 21.296875 6.109375 26.703125 6.109375 
Q 34.1875 6.109375 38.703125 11.40625 
Q 43.21875 16.703125 43.21875 25.484375 
L 43.21875 27.484375 
z
M 52.203125 31.203125 
L 52.203125 0 
L 43.21875 0 
L 43.21875 8.296875 
Q 40.140625 3.328125 35.546875 0.953125 
Q 30.953125 -1.421875 24.3125 -1.421875 
Q 15.921875 -1.421875 10.953125 3.296875 
Q 6 8.015625 6 15.921875 
Q 6 25.140625 12.171875 29.828125 
Q 18.359375 34.515625 30.609375 34.515625 
L 43.21875 34.515625 
L 43.21875 35.40625 
Q 43.21875 41.609375 39.140625 45 
Q 35.0625 48.390625 27.6875 48.390625 
Q 23 48.390625 18.546875 47.265625 
Q 14.109375 46.140625 10.015625 43.890625 
L 10.015625 52.203125 
Q 14.9375 54.109375 19.578125 55.046875 
Q 24.21875 56 28.609375 56 
Q 40.484375 56 46.34375 49.84375 
Q 52.203125 43.703125 52.203125 31.203125 
z
" id="DejaVuSans-97"/>
       <path d="M 54.890625 33.015625 
L 54.890625 0 
L 45.90625 0 
L 45.90625 32.71875 
Q 45.90625 40.484375 42.875 44.328125 
Q 39.84375 48.1875 33.796875 48.1875 
Q 26.515625 48.1875 22.3125 43.546875 
Q 18.109375 38.921875 18.109375 30.90625 
L 18.109375 0 
L 9.078125 0 
L 9.078125 54.6875 
L 18.109375 54.6875 
L 18.109375 46.1875 
Q 21.34375 51.125 25.703125 53.5625 
Q 30.078125 56 35.796875 56 
Q 45.21875 56 50.046875 50.171875 
Q 54.890625 44.34375 54.890625 33.015625 
z
" id="DejaVuSans-110"/>
      </defs>
      <use xlink:href="#DejaVuSans-112"/>
      <use x="63.476562" xlink:href="#DejaVuSans-101"/>
      <use x="125" xlink:href="#DejaVuSans-114"/>
      <use x="166.113281" xlink:href="#DejaVuSans-102"/>
      <use x="201.318359" xlink:href="#DejaVuSans-111"/>
      <use x="262.5" xlink:href="#DejaVuSans-114"/>
      <use x="301.863281" xlink:href="#DejaVuSans-109"/>
      <use x="399.275391" xlink:href="#DejaVuSans-97"/>
      <use x="460.554688" xlink:href="#DejaVuSans-110"/>
      <use x="523.933594" xlink:href="#DejaVuSans-99"/>
      <use x="578.914062" xlink:href="#DejaVuSans-101"/>
     </g>
    </g>
   </g>
   <g id="line2d_14">
    <path clip-path="url(#p29911d955e)" d="M 66.376477 19.296 
L 73.140114 34.914462 
L 79.90375 34.914462 
L 86.667386 34.914462 
L 93.431023 34.914462 
L 100.194659 34.914462 
L 106.958295 34.914462 
L 113.721932 34.914462 
L 120.485568 34.914462 
L 127.249205 128.625231 
L 134.012841 128.625231 
L 140.776477 144.243692 
L 147.540114 144.243692 
L 154.30375 144.243692 
L 161.067386 191.099077 
L 167.831023 191.099077 
L 174.594659 191.099077 
L 181.358295 191.099077 
L 188.121932 191.099077 
L 194.885568 191.099077 
L 201.649205 191.099077 
L 208.412841 191.099077 
L 215.176477 191.099077 
L 221.940114 191.099077 
L 228.70375 191.099077 
L 235.467386 206.717538 
L 242.231023 206.717538 
L 248.994659 206.717538 
L 255.758295 206.717538 
L 262.521932 206.717538 
L 269.285568 206.717538 
L 276.049205 206.717538 
L 282.812841 206.717538 
L 289.576477 206.717538 
L 296.340114 206.717538 
L 303.10375 206.717538 
L 309.867386 206.717538 
L 316.631023 206.717538 
L 323.394659 206.717538 
L 330.158295 206.717538 
L 336.921932 206.717538 
L 343.685568 206.717538 
L 350.449205 206.717538 
L 357.212841 206.717538 
L 363.976477 206.717538 
L 370.740114 206.717538 
L 377.50375 206.717538 
L 384.267386 206.717538 
L 391.031023 206.717538 
" style="fill:none;stroke:#f26b38;stroke-dasharray:7.4,3.2;stroke-dashoffset:0;stroke-width:2;"/>
   </g>
   <g id="line2d_15">
    <path clip-path="url(#p29911d955e)" d="M 66.376477 21.954462 
L 73.140114 133.609846 
L 79.90375 133.609846 
L 86.667386 181.462154 
L 93.431023 197.412923 
L 100.194659 245.265231 
L 106.958295 245.265231 
L 113.721932 245.265231 
L 120.485568 245.265231 
L 127.249205 245.265231 
L 134.012841 245.265231 
L 140.776477 245.265231 
L 147.540114 245.265231 
L 154.30375 245.265231 
L 161.067386 245.265231 
L 167.831023 245.265231 
L 174.594659 261.216 
L 181.358295 261.216 
L 188.121932 261.216 
L 194.885568 261.216 
L 201.649205 261.216 
L 208.412841 261.216 
L 215.176477 261.216 
L 221.940114 261.216 
L 228.70375 261.216 
L 235.467386 261.216 
L 242.231023 261.216 
L 248.994659 261.216 
L 255.758295 261.216 
L 262.521932 261.216 
L 269.285568 261.216 
L 276.049205 261.216 
L 282.812841 261.216 
L 289.576477 261.216 
L 296.340114 261.216 
L 303.10375 261.216 
L 309.867386 261.216 
L 316.631023 261.216 
L 323.394659 261.216 
L 330.158295 261.216 
L 336.921932 261.216 
L 343.685568 261.216 
L 350.449205 261.216 
L 357.212841 261.216 
L 363.976477 261.216 
L 370.740114 261.216 
L 377.50375 261.216 
L 384.267386 261.216 
L 391.031023 261.216 
" style="fill:none;stroke:#2f9599;stroke-dasharray:2,3.3;stroke-dashoffset:0;stroke-width:2;"/>
   </g>
   <g id="line2d_16">
    <path clip-path="url(#p29911d955e)" d="M 66.376477 62.645199 
L 73.140114 62.645199 
L 79.90375 62.645199 
L 86.667386 62.645199 
L 93.431023 62.645199 
L 100.194659 62.645199 
L 106.958295 62.645199 
L 113.721932 77.944917 
L 120.485568 62.645199 
L 127.249205 62.645199 
L 134.012841 62.645199 
L 140.776477 62.645199 
L 147.540114 62.645199 
L 154.30375 62.645199 
L 161.067386 62.645199 
L 167.831023 62.645199 
L 174.594659 47.345482 
L 181.358295 47.345482 
L 188.121932 47.345482 
L 194.885568 32.045765 
L 201.649205 32.045765 
L 208.412841 139.143786 
L 215.176477 139.143786 
L 221.940114 154.443504 
L 228.70375 154.443504 
L 235.467386 154.443504 
L 242.231023 200.342656 
L 248.994659 200.342656 
L 255.758295 200.342656 
L 262.521932 200.342656 
L 269.285568 200.342656 
L 276.049205 200.342656 
L 282.812841 200.342656 
L 289.576477 200.342656 
L 296.340114 200.342656 
L 303.10375 200.342656 
L 309.867386 200.342656 
L 316.631023 200.342656 
L 323.394659 200.342656 
L 330.158295 200.342656 
L 336.921932 200.342656 
L 343.685568 200.342656 
L 350.449205 200.342656 
L 357.212841 200.342656 
L 363.976477 200.342656 
L 370.740114 200.342656 
L 377.50375 200.342656 
L 384.267386 200.342656 
L 391.031023 200.342656 
" style="fill:none;stroke:#a7226e;stroke-dasharray:12.8,3.2,2,3.2;stroke-dashoffset:0;stroke-width:2;"/>
   </g>
   <g id="patch_3">
    <path d="M 50.14375 273.312 
L 50.14375 7.2 
" style="fill:none;stroke:#000000;stroke-linecap:square;stroke-linejoin:miter;stroke-width:0.8;"/>
   </g>
   <g id="patch_4">
    <path d="M 407.26375 273.312 
L 407.26375 7.2 
" style="fill:none;stroke:#000000;stroke-linecap:square;stroke-linejoin:miter;stroke-width:0.8;"/>
   </g>
   <g id="patch_5">
    <path d="M 50.14375 273.312 
L 407.26375 273.312 
" style="fill:none;stroke:#000000;stroke-linecap:square;stroke-linejoin:miter;stroke-width:0.8;"/>
   </g>
   <g id="patch_6">
    <path d="M 50.14375 7.2 
L 407.26375 7.2 
" style="fill:none;stroke:#000000;stroke-linecap:square;stroke-linejoin:miter;stroke-width:0.8;"/>
   </g>
   <g id="legend_1">
    <g id="patch_7">
     <path d="M 321.790059 43.890912 
L 402.40575 43.890912 
Q 403.79375 43.890912 403.79375 42.502912 
L 403.79375 12.058 
Q 403.79375 10.67 402.40575 10.67 
L 321.790059 10.67 
Q 320.402059 10.67 320.402059 12.058 
L 320.402059 42.502912 
Q 320.402059 43.890912 321.790059 43.890912 
z
" style="fill:#ffffff;opacity:0.8;stroke:#cccccc;stroke-linejoin:miter;"/>
    </g>
    <g id="PathCollection_5">
     <defs>
      <path d="M 0 3 
C 0.795609 3 1.55874 2.683901 2.12132 2.12132 
C 2.683901 1.55874 3 0.795609 3 0 
C 3 -0.795609 2.683901 -1.55874 2.12132 -2.12132 
C 1.55874 -2.683901 0.795609 -3 0 -3 
C -0.795609 -3 -1.55874 -2.683901 -2.12132 -2.12132 
C -2.683901 -1.55874 -3 -0.795609 -3 0 
C -3 0.795609 -2.683901 1.55874 -2.12132 2.12132 
C -1.55874 2.683901 -0.795609 3 0 3 
z
" id="mbe6d145f14" style="stroke:#f26b38;"/>
     </defs>
     <g>
      <use style="fill:#f26b38;stroke:#f26b38;" x="330.118059" xlink:href="#mbe6d145f14" y="16.897566"/>
     </g>
    </g>
    <g id="text_16">
     <!-- mean_err -->
     <g transform="translate(342.610059 18.719316)scale(0.0694 -0.0694)">
      <defs>
       <path d="M 50.984375 -16.609375 
L 50.984375 -23.578125 
L -0.984375 -23.578125 
L -0.984375 -16.609375 
z
" id="DejaVuSans-95"/>
      </defs>
      <use xlink:href="#DejaVuSans-109"/>
      <use x="97.412109" xlink:href="#DejaVuSans-101"/>
      <use x="158.935547" xlink:href="#DejaVuSans-97"/>
      <use x="220.214844" xlink:href="#DejaVuSans-110"/>
      <use x="283.59375" xlink:href="#DejaVuSans-95"/>
      <use x="333.59375" xlink:href="#DejaVuSans-101"/>
      <use x="395.117188" xlink:href="#DejaVuSans-114"/>
      <use x="434.480469" xlink:href="#DejaVuSans-114"/>
     </g>
    </g>
    <g id="PathCollection_6">
     <defs>
      <path d="M -1.5 3 
L 0 1.5 
L 1.5 3 
L 3 1.5 
L 1.5 0 
L 3 -1.5 
L 1.5 -3 
L 0 -1.5 
L -1.5 -3 
L -3 -1.5 
L -1.5 0 
L -3 1.5 
z
" id="ma89d838172" style="stroke:#2f9599;"/>
     </defs>
     <g>
      <use style="fill:#2f9599;stroke:#2f9599;" x="330.118059" xlink:href="#ma89d838172" y="27.277203"/>
     </g>
    </g>
    <g id="text_17">
     <!-- mean_sq_err -->
     <g transform="translate(342.610059 29.098953)scale(0.0694 -0.0694)">
      <defs>
       <path d="M 44.28125 53.078125 
L 44.28125 44.578125 
Q 40.484375 46.53125 36.375 47.5 
Q 32.28125 48.484375 27.875 48.484375 
Q 21.1875 48.484375 17.84375 46.4375 
Q 14.5 44.390625 14.5 40.28125 
Q 14.5 37.15625 16.890625 35.375 
Q 19.28125 33.59375 26.515625 31.984375 
L 29.59375 31.296875 
Q 39.15625 29.25 43.1875 25.515625 
Q 47.21875 21.78125 47.21875 15.09375 
Q 47.21875 7.46875 41.1875 3.015625 
Q 35.15625 -1.421875 24.609375 -1.421875 
Q 20.21875 -1.421875 15.453125 -0.5625 
Q 10.6875 0.296875 5.421875 2 
L 5.421875 11.28125 
Q 10.40625 8.6875 15.234375 7.390625 
Q 20.0625 6.109375 24.8125 6.109375 
Q 31.15625 6.109375 34.5625 8.28125 
Q 37.984375 10.453125 37.984375 14.40625 
Q 37.984375 18.0625 35.515625 20.015625 
Q 33.0625 21.96875 24.703125 23.78125 
L 21.578125 24.515625 
Q 13.234375 26.265625 9.515625 29.90625 
Q 5.8125 33.546875 5.8125 39.890625 
Q 5.8125 47.609375 11.28125 51.796875 
Q 16.75 56 26.8125 56 
Q 31.78125 56 36.171875 55.265625 
Q 40.578125 54.546875 44.28125 53.078125 
z
" id="DejaVuSans-115"/>
       <path d="M 14.796875 27.296875 
Q 14.796875 17.390625 18.875 11.75 
Q 22.953125 6.109375 30.078125 6.109375 
Q 37.203125 6.109375 41.296875 11.75 
Q 45.40625 17.390625 45.40625 27.296875 
Q 45.40625 37.203125 41.296875 42.84375 
Q 37.203125 48.484375 30.078125 48.484375 
Q 22.953125 48.484375 18.875 42.84375 
Q 14.796875 37.203125 14.796875 27.296875 
z
M 45.40625 8.203125 
Q 42.578125 3.328125 38.25 0.953125 
Q 33.9375 -1.421875 27.875 -1.421875 
Q 17.96875 -1.421875 11.734375 6.484375 
Q 5.515625 14.40625 5.515625 27.296875 
Q 5.515625 40.1875 11.734375 48.09375 
Q 17.96875 56 27.875 56 
Q 33.9375 56 38.25 53.625 
Q 42.578125 51.265625 45.40625 46.390625 
L 45.40625 54.6875 
L 54.390625 54.6875 
L 54.390625 -20.796875 
L 45.40625 -20.796875 
z
" id="DejaVuSans-113"/>
      </defs>
      <use xlink:href="#DejaVuSans-109"/>
      <use x="97.412109" xlink:href="#DejaVuSans-101"/>
      <use x="158.935547" xlink:href="#DejaVuSans-97"/>
      <use x="220.214844" xlink:href="#DejaVuSans-110"/>
      <use x="283.59375" xlink:href="#DejaVuSans-95"/>
      <use x="333.59375" xlink:href="#DejaVuSans-115"/>
      <use x="385.693359" xlink:href="#DejaVuSans-113"/>
      <use x="449.169922" xlink:href="#DejaVuSans-95"/>
      <use x="499.169922" xlink:href="#DejaVuSans-101"/>
      <use x="560.693359" xlink:href="#DejaVuSans-114"/>
      <use x="600.056641" xlink:href="#DejaVuSans-114"/>
     </g>
    </g>
    <g id="PathCollection_7">
     <defs>
      <path d="M -2.12132 -2.12132 
L -2.12132 2.12132 
L 2.12132 2.12132 
L 2.12132 -2.12132 
z
" id="m68bc54f1df" style="stroke:#a7226e;"/>
     </defs>
     <g>
      <use style="fill:#a7226e;stroke:#a7226e;" x="330.118059" xlink:href="#m68bc54f1df" y="37.656841"/>
     </g>
    </g>
    <g id="text_18">
     <!-- mean_sqroot_err -->
     <g transform="translate(342.610059 39.478591)scale(0.0694 -0.0694)">
      <use xlink:href="#DejaVuSans-109"/>
      <use x="97.412109" xlink:href="#DejaVuSans-101"/>
      <use x="158.935547" xlink:href="#DejaVuSans-97"/>
      <use x="220.214844" xlink:href="#DejaVuSans-110"/>
      <use x="283.59375" xlink:href="#DejaVuSans-95"/>
      <use x="333.59375" xlink:href="#DejaVuSans-115"/>
      <use x="385.693359" xlink:href="#DejaVuSans-113"/>
      <use x="449.169922" xlink:href="#DejaVuSans-114"/>
      <use x="488.033203" xlink:href="#DejaVuSans-111"/>
      <use x="549.214844" xlink:href="#DejaVuSans-111"/>
      <use x="610.396484" xlink:href="#DejaVuSans-116"/>
      <use x="649.605469" xlink:href="#DejaVuSans-95"/>
      <use x="699.605469" xlink:href="#DejaVuSans-101"/>
      <use x="761.128906" xlink:href="#DejaVuSans-114"/>
      <use x="800.492188" xlink:href="#DejaVuSans-114"/>
     </g>
    </g>
   </g>
  </g>
 </g>
 <defs>
  <clipPath id="p29911d955e">
   <rect height="266.112" width="357.12" x="50.14375" y="7.2"/>
  </clipPath>
 </defs>
</svg>
