<?xml version="1.0" encoding="utf-8" standalone="no"?>
<!DOCTYPE svg PUBLIC "-//W3C//DTD SVG 1.1//EN"
  "http://www.w3.org/Graphics/SVG/1.1/DTD/svg11.dtd">
<!-- Created with matplotlib (https://matplotlib.org/) -->
<svg height="313.992343pt" version="1.1" viewBox="0 0 414.46375 313.992343" width="414.46375pt" xmlns="http://www.w3.org/2000/svg" xmlns:xlink="http://www.w3.org/1999/xlink">
 <metadata>
  <rdf:RDF xmlns:cc="http://creativecommons.org/ns#" xmlns:dc="http://purl.org/dc/elements/1.1/" xmlns:rdf="http://www.w3.org/1999/02/22-rdf-syntax-ns#">
   <cc:Work>
    <dc:type rdf:resource="http://purl.org/dc/dcmitype/StillImage"/>
    <dc:date>2022-05-27T21:44:05.227571</dc:date>
    <dc:format>image/svg+xml</dc:format>
    <dc:creator>
     <cc:Agent>
      <dc:title>Matplotlib v3.3.4, https://matplotlib.org/</dc:title>
     </cc:Agent>
    </dc:creator>
   </cc:Work>
  </rdf:RDF>
 </metadata>
 <defs>
  <style type="text/css">*{stroke-linecap:butt;stroke-linejoin:round;}</style>
 </defs>
 <g id="figure_1">
  <g id="patch_1">
   <path d="M 0 313.992343 
L 414.46375 313.992343 
L 414.46375 0 
L 0 0 
z
" style="fill:#ffffff;"/>
  </g>
  <g id="axes_1">
   <g id="patch_2">
    <path d="M 50.14375 276.436093 
L 407.26375 276.436093 
L 407.26375 10.324093 
L 50.14375 10.324093 
z
" style="fill:#ffffff;"/>
   </g>
   <g id="PathCollection_1">
    <path clip-path="url(#p83269cf74a)" d="M 66.376477 85.470326 
C 67.172087 85.470326 67.935217 85.154227 68.497798 84.591646 
C 69.060378 84.029065 69.376477 83.265935 69.376477 82.470326 
C 69.376477 81.674716 69.060378 80.911586 68.497798 80.349005 
C 67.935217 79.786425 67.172087 79.470326 66.376477 79.470326 
C 65.580868 79.470326 64.817738 79.786425 64.255157 80.349005 
C 63.692576 80.911586 63.376477 81.674716 63.376477 82.470326 
C 63.376477 83.265935 63.692576 84.029065 64.255157 84.591646 
C 64.817738 85.154227 65.580868 85.470326 66.376477 85.470326 
z
" style="fill:#f26b38;stroke:#ffffff;stroke-width:0.48;"/>
    <path clip-path="url(#p83269cf74a)" d="M 73.140114 75.148949 
C 73.935723 75.148949 74.698853 74.832851 75.261434 74.27027 
C 75.824015 73.707689 76.140114 72.944559 76.140114 72.148949 
C 76.140114 71.35334 75.824015 70.59021 75.261434 70.027629 
C 74.698853 69.465048 73.935723 69.148949 73.140114 69.148949 
C 72.344504 69.148949 71.581374 69.465048 71.018793 70.027629 
C 70.456213 70.59021 70.140114 71.35334 70.140114 72.148949 
C 70.140114 72.944559 70.456213 73.707689 71.018793 74.27027 
C 71.581374 74.832851 72.344504 75.148949 73.140114 75.148949 
z
" style="fill:#f26b38;stroke:#ffffff;stroke-width:0.48;"/>
    <path clip-path="url(#p83269cf74a)" d="M 79.90375 55.331907 
C 80.699359 55.331907 81.46249 55.015808 82.02507 54.453227 
C 82.587651 53.890647 82.90375 53.127516 82.90375 52.331907 
C 82.90375 51.536298 82.587651 50.773168 82.02507 50.210587 
C 81.46249 49.648006 80.699359 49.331907 79.90375 49.331907 
C 79.108141 49.331907 78.34501 49.648006 77.78243 50.210587 
C 77.219849 50.773168 76.90375 51.536298 76.90375 52.331907 
C 76.90375 53.127516 77.219849 53.890647 77.78243 54.453227 
C 78.34501 55.015808 79.108141 55.331907 79.90375 55.331907 
z
" style="fill:#f26b38;stroke:#ffffff;stroke-width:0.48;"/>
    <path clip-path="url(#p83269cf74a)" d="M 86.667386 55.331907 
C 87.462996 55.331907 88.226126 55.015808 88.788707 54.453227 
C 89.351287 53.890647 89.667386 53.127516 89.667386 52.331907 
C 89.667386 51.536298 89.351287 50.773168 88.788707 50.210587 
C 88.226126 49.648006 87.462996 49.331907 86.667386 49.331907 
C 85.871777 49.331907 85.108647 49.648006 84.546066 50.210587 
C 83.983485 50.773168 83.667386 51.536298 83.667386 52.331907 
C 83.667386 53.127516 83.983485 53.890647 84.546066 54.453227 
C 85.108647 55.015808 85.871777 55.331907 86.667386 55.331907 
z
" style="fill:#f26b38;stroke:#ffffff;stroke-width:0.48;"/>
    <path clip-path="url(#p83269cf74a)" d="M 93.431023 45.814512 
C 94.226632 45.814512 94.989762 45.498413 95.552343 44.935832 
C 96.114924 44.373251 96.431023 43.610121 96.431023 42.814512 
C 96.431023 42.018902 96.114924 41.255772 95.552343 40.693191 
C 94.989762 40.130611 94.226632 39.814512 93.431023 39.814512 
C 92.635413 39.814512 91.872283 40.130611 91.309702 40.693191 
C 90.747122 41.255772 90.431023 42.018902 90.431023 42.814512 
C 90.431023 43.610121 90.747122 44.373251 91.309702 44.935832 
C 91.872283 45.498413 92.635413 45.814512 93.431023 45.814512 
z
" style="fill:#f26b38;stroke:#ffffff;stroke-width:0.48;"/>
    <path clip-path="url(#p83269cf74a)" d="M 100.194659 75.148949 
C 100.990268 75.148949 101.753399 74.832851 102.315979 74.27027 
C 102.87856 73.707689 103.194659 72.944559 103.194659 72.148949 
C 103.194659 71.35334 102.87856 70.59021 102.315979 70.027629 
C 101.753399 69.465048 100.990268 69.148949 100.194659 69.148949 
C 99.39905 69.148949 98.635919 69.465048 98.073339 70.027629 
C 97.510758 70.59021 97.194659 71.35334 97.194659 72.148949 
C 97.194659 72.944559 97.510758 73.707689 98.073339 74.27027 
C 98.635919 74.832851 99.39905 75.148949 100.194659 75.148949 
z
" style="fill:#f26b38;stroke:#ffffff;stroke-width:0.48;"/>
    <path clip-path="url(#p83269cf74a)" d="M 106.958295 65.106529 
C 107.753905 65.106529 108.517035 64.79043 109.079616 64.22785 
C 109.642197 63.665269 109.958295 62.902139 109.958295 62.106529 
C 109.958295 61.31092 109.642197 60.54779 109.079616 59.985209 
C 108.517035 59.422628 107.753905 59.106529 106.958295 59.106529 
C 106.162686 59.106529 105.399556 59.422628 104.836975 59.985209 
C 104.274394 60.54779 103.958295 61.31092 103.958295 62.106529 
C 103.958295 62.902139 104.274394 63.665269 104.836975 64.22785 
C 105.399556 64.79043 106.162686 65.106529 106.958295 65.106529 
z
" style="fill:#f26b38;stroke:#ffffff;stroke-width:0.48;"/>
    <path clip-path="url(#p83269cf74a)" d="M 113.721932 65.106529 
C 114.517541 65.106529 115.280671 64.79043 115.843252 64.22785 
C 116.405833 63.665269 116.721932 62.902139 116.721932 62.106529 
C 116.721932 61.31092 116.405833 60.54779 115.843252 59.985209 
C 115.280671 59.422628 114.517541 59.106529 113.721932 59.106529 
C 112.926323 59.106529 112.163192 59.422628 111.600611 59.985209 
C 111.038031 60.54779 110.721932 61.31092 110.721932 62.106529 
C 110.721932 62.902139 111.038031 63.665269 111.600611 64.22785 
C 112.163192 64.79043 112.926323 65.106529 113.721932 65.106529 
z
" style="fill:#f26b38;stroke:#ffffff;stroke-width:0.48;"/>
    <path clip-path="url(#p83269cf74a)" d="M 120.485568 65.106529 
C 121.281177 65.106529 122.044308 64.79043 122.606889 64.22785 
C 123.169469 63.665269 123.485568 62.902139 123.485568 62.106529 
C 123.485568 61.31092 123.169469 60.54779 122.606889 59.985209 
C 122.044308 59.422628 121.281177 59.106529 120.485568 59.106529 
C 119.689959 59.106529 118.926829 59.422628 118.364248 59.985209 
C 117.801667 60.54779 117.485568 61.31092 117.485568 62.106529 
C 117.485568 62.902139 117.801667 63.665269 118.364248 64.22785 
C 118.926829 64.79043 119.689959 65.106529 120.485568 65.106529 
z
" style="fill:#f26b38;stroke:#ffffff;stroke-width:0.48;"/>
    <path clip-path="url(#p83269cf74a)" d="M 127.249205 65.106529 
C 128.044814 65.106529 128.807944 64.79043 129.370525 64.22785 
C 129.933106 63.665269 130.249205 62.902139 130.249205 62.106529 
C 130.249205 61.31092 129.933106 60.54779 129.370525 59.985209 
C 128.807944 59.422628 128.044814 59.106529 127.249205 59.106529 
C 126.453595 59.106529 125.690465 59.422628 125.127884 59.985209 
C 124.565303 60.54779 124.249205 61.31092 124.249205 62.106529 
C 124.249205 62.902139 124.565303 63.665269 125.127884 64.22785 
C 125.690465 64.79043 126.453595 65.106529 127.249205 65.106529 
z
" style="fill:#f26b38;stroke:#ffffff;stroke-width:0.48;"/>
    <path clip-path="url(#p83269cf74a)" d="M 134.012841 106.997768 
C 134.80845 106.997768 135.571581 106.681669 136.134161 106.119088 
C 136.696742 105.556507 137.012841 104.793377 137.012841 103.997768 
C 137.012841 103.202158 136.696742 102.439028 136.134161 101.876447 
C 135.571581 101.313867 134.80845 100.997768 134.012841 100.997768 
C 133.217232 100.997768 132.454101 101.313867 131.891521 101.876447 
C 131.32894 102.439028 131.012841 103.202158 131.012841 103.997768 
C 131.012841 104.793377 131.32894 105.556507 131.891521 106.119088 
C 132.454101 106.681669 133.217232 106.997768 134.012841 106.997768 
z
" style="fill:#f26b38;stroke:#ffffff;stroke-width:0.48;"/>
    <path clip-path="url(#p83269cf74a)" d="M 140.776477 106.997768 
C 141.572087 106.997768 142.335217 106.681669 142.897798 106.119088 
C 143.460378 105.556507 143.776477 104.793377 143.776477 103.997768 
C 143.776477 103.202158 143.460378 102.439028 142.897798 101.876447 
C 142.335217 101.313867 141.572087 100.997768 140.776477 100.997768 
C 139.980868 100.997768 139.217738 101.313867 138.655157 101.876447 
C 138.092576 102.439028 137.776477 103.202158 137.776477 103.997768 
C 137.776477 104.793377 138.092576 105.556507 138.655157 106.119088 
C 139.217738 106.681669 139.980868 106.997768 140.776477 106.997768 
z
" style="fill:#f26b38;stroke:#ffffff;stroke-width:0.48;"/>
    <path clip-path="url(#p83269cf74a)" d="M 147.540114 141.698719 
C 148.335723 141.698719 149.098853 141.38262 149.661434 140.820039 
C 150.224015 140.257458 150.540114 139.494328 150.540114 138.698719 
C 150.540114 137.903109 150.224015 137.139979 149.661434 136.577398 
C 149.098853 136.014818 148.335723 135.698719 147.540114 135.698719 
C 146.744504 135.698719 145.981374 136.014818 145.418793 136.577398 
C 144.856213 137.139979 144.540114 137.903109 144.540114 138.698719 
C 144.540114 139.494328 144.856213 140.257458 145.418793 140.820039 
C 145.981374 141.38262 146.744504 141.698719 147.540114 141.698719 
z
" style="fill:#f26b38;stroke:#ffffff;stroke-width:0.48;"/>
    <path clip-path="url(#p83269cf74a)" d="M 154.30375 141.698719 
C 155.099359 141.698719 155.86249 141.38262 156.42507 140.820039 
C 156.987651 140.257458 157.30375 139.494328 157.30375 138.698719 
C 157.30375 137.903109 156.987651 137.139979 156.42507 136.577398 
C 155.86249 136.014818 155.099359 135.698719 154.30375 135.698719 
C 153.508141 135.698719 152.74501 136.014818 152.18243 136.577398 
C 151.619849 137.139979 151.30375 137.903109 151.30375 138.698719 
C 151.30375 139.494328 151.619849 140.257458 152.18243 140.820039 
C 152.74501 141.38262 153.508141 141.698719 154.30375 141.698719 
z
" style="fill:#f26b38;stroke:#ffffff;stroke-width:0.48;"/>
    <path clip-path="url(#p83269cf74a)" d="M 161.067386 75.148949 
C 161.862996 75.148949 162.626126 74.832851 163.188707 74.27027 
C 163.751287 73.707689 164.067386 72.944559 164.067386 72.148949 
C 164.067386 71.35334 163.751287 70.59021 163.188707 70.027629 
C 162.626126 69.465048 161.862996 69.148949 161.067386 69.148949 
C 160.271777 69.148949 159.508647 69.465048 158.946066 70.027629 
C 158.383485 70.59021 158.067386 71.35334 158.067386 72.148949 
C 158.067386 72.944559 158.383485 73.707689 158.946066 74.27027 
C 159.508647 74.832851 160.271777 75.148949 161.067386 75.148949 
z
" style="fill:#f26b38;stroke:#ffffff;stroke-width:0.48;"/>
    <path clip-path="url(#p83269cf74a)" d="M 167.831023 106.997768 
C 168.626632 106.997768 169.389762 106.681669 169.952343 106.119088 
C 170.514924 105.556507 170.831023 104.793377 170.831023 103.997768 
C 170.831023 103.202158 170.514924 102.439028 169.952343 101.876447 
C 169.389762 101.313867 168.626632 100.997768 167.831023 100.997768 
C 167.035413 100.997768 166.272283 101.313867 165.709702 101.876447 
C 165.147122 102.439028 164.831023 103.202158 164.831023 103.997768 
C 164.831023 104.793377 165.147122 105.556507 165.709702 106.119088 
C 166.272283 106.681669 167.035413 106.997768 167.831023 106.997768 
z
" style="fill:#f26b38;stroke:#ffffff;stroke-width:0.48;"/>
    <path clip-path="url(#p83269cf74a)" d="M 174.594659 106.997768 
C 175.390268 106.997768 176.153399 106.681669 176.715979 106.119088 
C 177.27856 105.556507 177.594659 104.793377 177.594659 103.997768 
C 177.594659 103.202158 177.27856 102.439028 176.715979 101.876447 
C 176.153399 101.313867 175.390268 100.997768 174.594659 100.997768 
C 173.79905 100.997768 173.035919 101.313867 172.473339 101.876447 
C 171.910758 102.439028 171.594659 103.202158 171.594659 103.997768 
C 171.594659 104.793377 171.910758 105.556507 172.473339 106.119088 
C 173.035919 106.681669 173.79905 106.997768 174.594659 106.997768 
z
" style="fill:#f26b38;stroke:#ffffff;stroke-width:0.48;"/>
    <path clip-path="url(#p83269cf74a)" d="M 181.358295 106.997768 
C 182.153905 106.997768 182.917035 106.681669 183.479616 106.119088 
C 184.042197 105.556507 184.358295 104.793377 184.358295 103.997768 
C 184.358295 103.202158 184.042197 102.439028 183.479616 101.876447 
C 182.917035 101.313867 182.153905 100.997768 181.358295 100.997768 
C 180.562686 100.997768 179.799556 101.313867 179.236975 101.876447 
C 178.674394 102.439028 178.358295 103.202158 178.358295 103.997768 
C 178.358295 104.793377 178.674394 105.556507 179.236975 106.119088 
C 179.799556 106.681669 180.562686 106.997768 181.358295 106.997768 
z
" style="fill:#f26b38;stroke:#ffffff;stroke-width:0.48;"/>
    <path clip-path="url(#p83269cf74a)" d="M 188.121932 141.698719 
C 188.917541 141.698719 189.680671 141.38262 190.243252 140.820039 
C 190.805833 140.257458 191.121932 139.494328 191.121932 138.698719 
C 191.121932 137.903109 190.805833 137.139979 190.243252 136.577398 
C 189.680671 136.014818 188.917541 135.698719 188.121932 135.698719 
C 187.326323 135.698719 186.563192 136.014818 186.000611 136.577398 
C 185.438031 137.139979 185.121932 137.903109 185.121932 138.698719 
C 185.121932 139.494328 185.438031 140.257458 186.000611 140.820039 
C 186.563192 141.38262 187.326323 141.698719 188.121932 141.698719 
z
" style="fill:#f26b38;stroke:#ffffff;stroke-width:0.48;"/>
    <path clip-path="url(#p83269cf74a)" d="M 194.885568 106.997768 
C 195.681177 106.997768 196.444308 106.681669 197.006889 106.119088 
C 197.569469 105.556507 197.885568 104.793377 197.885568 103.997768 
C 197.885568 103.202158 197.569469 102.439028 197.006889 101.876447 
C 196.444308 101.313867 195.681177 100.997768 194.885568 100.997768 
C 194.089959 100.997768 193.326829 101.313867 192.764248 101.876447 
C 192.201667 102.439028 191.885568 103.202158 191.885568 103.997768 
C 191.885568 104.793377 192.201667 105.556507 192.764248 106.119088 
C 193.326829 106.681669 194.089959 106.997768 194.885568 106.997768 
z
" style="fill:#f26b38;stroke:#ffffff;stroke-width:0.48;"/>
    <path clip-path="url(#p83269cf74a)" d="M 201.649205 179.652884 
C 202.444814 179.652884 203.207944 179.336785 203.770525 178.774204 
C 204.333106 178.211623 204.649205 177.448493 204.649205 176.652884 
C 204.649205 175.857275 204.333106 175.094144 203.770525 174.531564 
C 203.207944 173.968983 202.444814 173.652884 201.649205 173.652884 
C 200.853595 173.652884 200.090465 173.968983 199.527884 174.531564 
C 198.965303 175.094144 198.649205 175.857275 198.649205 176.652884 
C 198.649205 177.448493 198.965303 178.211623 199.527884 178.774204 
C 200.090465 179.336785 200.853595 179.652884 201.649205 179.652884 
z
" style="fill:#f26b38;stroke:#ffffff;stroke-width:0.48;"/>
    <path clip-path="url(#p83269cf74a)" d="M 208.412841 179.652884 
C 209.20845 179.652884 209.971581 179.336785 210.534161 178.774204 
C 211.096742 178.211623 211.412841 177.448493 211.412841 176.652884 
C 211.412841 175.857275 211.096742 175.094144 210.534161 174.531564 
C 209.971581 173.968983 209.20845 173.652884 208.412841 173.652884 
C 207.617232 173.652884 206.854101 173.968983 206.291521 174.531564 
C 205.72894 175.094144 205.412841 175.857275 205.412841 176.652884 
C 205.412841 177.448493 205.72894 178.211623 206.291521 178.774204 
C 206.854101 179.336785 207.617232 179.652884 208.412841 179.652884 
z
" style="fill:#f26b38;stroke:#ffffff;stroke-width:0.48;"/>
    <path clip-path="url(#p83269cf74a)" d="M 215.176477 179.652884 
C 215.972087 179.652884 216.735217 179.336785 217.297798 178.774204 
C 217.860378 178.211623 218.176477 177.448493 218.176477 176.652884 
C 218.176477 175.857275 217.860378 175.094144 217.297798 174.531564 
C 216.735217 173.968983 215.972087 173.652884 215.176477 173.652884 
C 214.380868 173.652884 213.617738 173.968983 213.055157 174.531564 
C 212.492576 175.094144 212.176477 175.857275 212.176477 176.652884 
C 212.176477 177.448493 212.492576 178.211623 213.055157 178.774204 
C 213.617738 179.336785 214.380868 179.652884 215.176477 179.652884 
z
" style="fill:#f26b38;stroke:#ffffff;stroke-width:0.48;"/>
    <path clip-path="url(#p83269cf74a)" d="M 221.940114 179.652884 
C 222.735723 179.652884 223.498853 179.336785 224.061434 178.774204 
C 224.624015 178.211623 224.940114 177.448493 224.940114 176.652884 
C 224.940114 175.857275 224.624015 175.094144 224.061434 174.531564 
C 223.498853 173.968983 222.735723 173.652884 221.940114 173.652884 
C 221.144504 173.652884 220.381374 173.968983 219.818793 174.531564 
C 219.256213 175.094144 218.940114 175.857275 218.940114 176.652884 
C 218.940114 177.448493 219.256213 178.211623 219.818793 178.774204 
C 220.381374 179.336785 221.144504 179.652884 221.940114 179.652884 
z
" style="fill:#f26b38;stroke:#ffffff;stroke-width:0.48;"/>
    <path clip-path="url(#p83269cf74a)" d="M 228.70375 166.612222 
C 229.499359 166.612222 230.26249 166.296123 230.82507 165.733542 
C 231.387651 165.170962 231.70375 164.407831 231.70375 163.612222 
C 231.70375 162.816613 231.387651 162.053482 230.82507 161.490902 
C 230.26249 160.928321 229.499359 160.612222 228.70375 160.612222 
C 227.908141 160.612222 227.14501 160.928321 226.58243 161.490902 
C 226.019849 162.053482 225.70375 162.816613 225.70375 163.612222 
C 225.70375 164.407831 226.019849 165.170962 226.58243 165.733542 
C 227.14501 166.296123 227.908141 166.612222 228.70375 166.612222 
z
" style="fill:#f26b38;stroke:#ffffff;stroke-width:0.48;"/>
    <path clip-path="url(#p83269cf74a)" d="M 235.467386 141.698719 
C 236.262996 141.698719 237.026126 141.38262 237.588707 140.820039 
C 238.151287 140.257458 238.467386 139.494328 238.467386 138.698719 
C 238.467386 137.903109 238.151287 137.139979 237.588707 136.577398 
C 237.026126 136.014818 236.262996 135.698719 235.467386 135.698719 
C 234.671777 135.698719 233.908647 136.014818 233.346066 136.577398 
C 232.783485 137.139979 232.467386 137.903109 232.467386 138.698719 
C 232.467386 139.494328 232.783485 140.257458 233.346066 140.820039 
C 233.908647 141.38262 234.671777 141.698719 235.467386 141.698719 
z
" style="fill:#f26b38;stroke:#ffffff;stroke-width:0.48;"/>
    <path clip-path="url(#p83269cf74a)" d="M 242.231023 141.698719 
C 243.026632 141.698719 243.789762 141.38262 244.352343 140.820039 
C 244.914924 140.257458 245.231023 139.494328 245.231023 138.698719 
C 245.231023 137.903109 244.914924 137.139979 244.352343 136.577398 
C 243.789762 136.014818 243.026632 135.698719 242.231023 135.698719 
C 241.435413 135.698719 240.672283 136.014818 240.109702 136.577398 
C 239.547122 137.139979 239.231023 137.903109 239.231023 138.698719 
C 239.231023 139.494328 239.547122 140.257458 240.109702 140.820039 
C 240.672283 141.38262 241.435413 141.698719 242.231023 141.698719 
z
" style="fill:#f26b38;stroke:#ffffff;stroke-width:0.48;"/>
    <path clip-path="url(#p83269cf74a)" d="M 248.994659 141.698719 
C 249.790268 141.698719 250.553399 141.38262 251.115979 140.820039 
C 251.67856 140.257458 251.994659 139.494328 251.994659 138.698719 
C 251.994659 137.903109 251.67856 137.139979 251.115979 136.577398 
C 250.553399 136.014818 249.790268 135.698719 248.994659 135.698719 
C 248.19905 135.698719 247.435919 136.014818 246.873339 136.577398 
C 246.310758 137.139979 245.994659 137.903109 245.994659 138.698719 
C 245.994659 139.494328 246.310758 140.257458 246.873339 140.820039 
C 247.435919 141.38262 248.19905 141.698719 248.994659 141.698719 
z
" style="fill:#f26b38;stroke:#ffffff;stroke-width:0.48;"/>
    <path clip-path="url(#p83269cf74a)" d="M 255.758295 141.698719 
C 256.553905 141.698719 257.317035 141.38262 257.879616 140.820039 
C 258.442197 140.257458 258.758295 139.494328 258.758295 138.698719 
C 258.758295 137.903109 258.442197 137.139979 257.879616 136.577398 
C 257.317035 136.014818 256.553905 135.698719 255.758295 135.698719 
C 254.962686 135.698719 254.199556 136.014818 253.636975 136.577398 
C 253.074394 137.139979 252.758295 137.903109 252.758295 138.698719 
C 252.758295 139.494328 253.074394 140.257458 253.636975 140.820039 
C 254.199556 141.38262 254.962686 141.698719 255.758295 141.698719 
z
" style="fill:#f26b38;stroke:#ffffff;stroke-width:0.48;"/>
    <path clip-path="url(#p83269cf74a)" d="M 262.521932 141.698719 
C 263.317541 141.698719 264.080671 141.38262 264.643252 140.820039 
C 265.205833 140.257458 265.521932 139.494328 265.521932 138.698719 
C 265.521932 137.903109 265.205833 137.139979 264.643252 136.577398 
C 264.080671 136.014818 263.317541 135.698719 262.521932 135.698719 
C 261.726323 135.698719 260.963192 136.014818 260.400611 136.577398 
C 259.838031 137.139979 259.521932 137.903109 259.521932 138.698719 
C 259.521932 139.494328 259.838031 140.257458 260.400611 140.820039 
C 260.963192 141.38262 261.726323 141.698719 262.521932 141.698719 
z
" style="fill:#f26b38;stroke:#ffffff;stroke-width:0.48;"/>
    <path clip-path="url(#p83269cf74a)" d="M 269.285568 141.698719 
C 270.081177 141.698719 270.844308 141.38262 271.406889 140.820039 
C 271.969469 140.257458 272.285568 139.494328 272.285568 138.698719 
C 272.285568 137.903109 271.969469 137.139979 271.406889 136.577398 
C 270.844308 136.014818 270.081177 135.698719 269.285568 135.698719 
C 268.489959 135.698719 267.726829 136.014818 267.164248 136.577398 
C 266.601667 137.139979 266.285568 137.903109 266.285568 138.698719 
C 266.285568 139.494328 266.601667 140.257458 267.164248 140.820039 
C 267.726829 141.38262 268.489959 141.698719 269.285568 141.698719 
z
" style="fill:#f26b38;stroke:#ffffff;stroke-width:0.48;"/>
    <path clip-path="url(#p83269cf74a)" d="M 276.049205 141.698719 
C 276.844814 141.698719 277.607944 141.38262 278.170525 140.820039 
C 278.733106 140.257458 279.049205 139.494328 279.049205 138.698719 
C 279.049205 137.903109 278.733106 137.139979 278.170525 136.577398 
C 277.607944 136.014818 276.844814 135.698719 276.049205 135.698719 
C 275.253595 135.698719 274.490465 136.014818 273.927884 136.577398 
C 273.365303 137.139979 273.049205 137.903109 273.049205 138.698719 
C 273.049205 139.494328 273.365303 140.257458 273.927884 140.820039 
C 274.490465 141.38262 275.253595 141.698719 276.049205 141.698719 
z
" style="fill:#f26b38;stroke:#ffffff;stroke-width:0.48;"/>
    <path clip-path="url(#p83269cf74a)" d="M 282.812841 141.698719 
C 283.60845 141.698719 284.371581 141.38262 284.934161 140.820039 
C 285.496742 140.257458 285.812841 139.494328 285.812841 138.698719 
C 285.812841 137.903109 285.496742 137.139979 284.934161 136.577398 
C 284.371581 136.014818 283.60845 135.698719 282.812841 135.698719 
C 282.017232 135.698719 281.254101 136.014818 280.691521 136.577398 
C 280.12894 137.139979 279.812841 137.903109 279.812841 138.698719 
C 279.812841 139.494328 280.12894 140.257458 280.691521 140.820039 
C 281.254101 141.38262 282.017232 141.698719 282.812841 141.698719 
z
" style="fill:#f26b38;stroke:#ffffff;stroke-width:0.48;"/>
    <path clip-path="url(#p83269cf74a)" d="M 289.576477 141.698719 
C 290.372087 141.698719 291.135217 141.38262 291.697798 140.820039 
C 292.260378 140.257458 292.576477 139.494328 292.576477 138.698719 
C 292.576477 137.903109 292.260378 137.139979 291.697798 136.577398 
C 291.135217 136.014818 290.372087 135.698719 289.576477 135.698719 
C 288.780868 135.698719 288.017738 136.014818 287.455157 136.577398 
C 286.892576 137.139979 286.576477 137.903109 286.576477 138.698719 
C 286.576477 139.494328 286.892576 140.257458 287.455157 140.820039 
C 288.017738 141.38262 288.780868 141.698719 289.576477 141.698719 
z
" style="fill:#f26b38;stroke:#ffffff;stroke-width:0.48;"/>
    <path clip-path="url(#p83269cf74a)" d="M 296.340114 141.698719 
C 297.135723 141.698719 297.898853 141.38262 298.461434 140.820039 
C 299.024015 140.257458 299.340114 139.494328 299.340114 138.698719 
C 299.340114 137.903109 299.024015 137.139979 298.461434 136.577398 
C 297.898853 136.014818 297.135723 135.698719 296.340114 135.698719 
C 295.544504 135.698719 294.781374 136.014818 294.218793 136.577398 
C 293.656213 137.139979 293.340114 137.903109 293.340114 138.698719 
C 293.340114 139.494328 293.656213 140.257458 294.218793 140.820039 
C 294.781374 141.38262 295.544504 141.698719 296.340114 141.698719 
z
" style="fill:#f26b38;stroke:#ffffff;stroke-width:0.48;"/>
    <path clip-path="url(#p83269cf74a)" d="M 303.10375 141.698719 
C 303.899359 141.698719 304.66249 141.38262 305.22507 140.820039 
C 305.787651 140.257458 306.10375 139.494328 306.10375 138.698719 
C 306.10375 137.903109 305.787651 137.139979 305.22507 136.577398 
C 304.66249 136.014818 303.899359 135.698719 303.10375 135.698719 
C 302.308141 135.698719 301.54501 136.014818 300.98243 136.577398 
C 300.419849 137.139979 300.10375 137.903109 300.10375 138.698719 
C 300.10375 139.494328 300.419849 140.257458 300.98243 140.820039 
C 301.54501 141.38262 302.308141 141.698719 303.10375 141.698719 
z
" style="fill:#f26b38;stroke:#ffffff;stroke-width:0.48;"/>
    <path clip-path="url(#p83269cf74a)" d="M 309.867386 141.698719 
C 310.662996 141.698719 311.426126 141.38262 311.988707 140.820039 
C 312.551287 140.257458 312.867386 139.494328 312.867386 138.698719 
C 312.867386 137.903109 312.551287 137.139979 311.988707 136.577398 
C 311.426126 136.014818 310.662996 135.698719 309.867386 135.698719 
C 309.071777 135.698719 308.308647 136.014818 307.746066 136.577398 
C 307.183485 137.139979 306.867386 137.903109 306.867386 138.698719 
C 306.867386 139.494328 307.183485 140.257458 307.746066 140.820039 
C 308.308647 141.38262 309.071777 141.698719 309.867386 141.698719 
z
" style="fill:#f26b38;stroke:#ffffff;stroke-width:0.48;"/>
    <path clip-path="url(#p83269cf74a)" d="M 316.631023 141.698719 
C 317.426632 141.698719 318.189762 141.38262 318.752343 140.820039 
C 319.314924 140.257458 319.631023 139.494328 319.631023 138.698719 
C 319.631023 137.903109 319.314924 137.139979 318.752343 136.577398 
C 318.189762 136.014818 317.426632 135.698719 316.631023 135.698719 
C 315.835413 135.698719 315.072283 136.014818 314.509702 136.577398 
C 313.947122 137.139979 313.631023 137.903109 313.631023 138.698719 
C 313.631023 139.494328 313.947122 140.257458 314.509702 140.820039 
C 315.072283 141.38262 315.835413 141.698719 316.631023 141.698719 
z
" style="fill:#f26b38;stroke:#ffffff;stroke-width:0.48;"/>
    <path clip-path="url(#p83269cf74a)" d="M 323.394659 141.698719 
C 324.190268 141.698719 324.953399 141.38262 325.515979 140.820039 
C 326.07856 140.257458 326.394659 139.494328 326.394659 138.698719 
C 326.394659 137.903109 326.07856 137.139979 325.515979 136.577398 
C 324.953399 136.014818 324.190268 135.698719 323.394659 135.698719 
C 322.59905 135.698719 321.835919 136.014818 321.273339 136.577398 
C 320.710758 137.139979 320.394659 137.903109 320.394659 138.698719 
C 320.394659 139.494328 320.710758 140.257458 321.273339 140.820039 
C 321.835919 141.38262 322.59905 141.698719 323.394659 141.698719 
z
" style="fill:#f26b38;stroke:#ffffff;stroke-width:0.48;"/>
    <path clip-path="url(#p83269cf74a)" d="M 330.158295 141.698719 
C 330.953905 141.698719 331.717035 141.38262 332.279616 140.820039 
C 332.842197 140.257458 333.158295 139.494328 333.158295 138.698719 
C 333.158295 137.903109 332.842197 137.139979 332.279616 136.577398 
C 331.717035 136.014818 330.953905 135.698719 330.158295 135.698719 
C 329.362686 135.698719 328.599556 136.014818 328.036975 136.577398 
C 327.474394 137.139979 327.158295 137.903109 327.158295 138.698719 
C 327.158295 139.494328 327.474394 140.257458 328.036975 140.820039 
C 328.599556 141.38262 329.362686 141.698719 330.158295 141.698719 
z
" style="fill:#f26b38;stroke:#ffffff;stroke-width:0.48;"/>
    <path clip-path="url(#p83269cf74a)" d="M 336.921932 141.698719 
C 337.717541 141.698719 338.480671 141.38262 339.043252 140.820039 
C 339.605833 140.257458 339.921932 139.494328 339.921932 138.698719 
C 339.921932 137.903109 339.605833 137.139979 339.043252 136.577398 
C 338.480671 136.014818 337.717541 135.698719 336.921932 135.698719 
C 336.126323 135.698719 335.363192 136.014818 334.800611 136.577398 
C 334.238031 137.139979 333.921932 137.903109 333.921932 138.698719 
C 333.921932 139.494328 334.238031 140.257458 334.800611 140.820039 
C 335.363192 141.38262 336.126323 141.698719 336.921932 141.698719 
z
" style="fill:#f26b38;stroke:#ffffff;stroke-width:0.48;"/>
    <path clip-path="url(#p83269cf74a)" d="M 343.685568 141.698719 
C 344.481177 141.698719 345.244308 141.38262 345.806889 140.820039 
C 346.369469 140.257458 346.685568 139.494328 346.685568 138.698719 
C 346.685568 137.903109 346.369469 137.139979 345.806889 136.577398 
C 345.244308 136.014818 344.481177 135.698719 343.685568 135.698719 
C 342.889959 135.698719 342.126829 136.014818 341.564248 136.577398 
C 341.001667 137.139979 340.685568 137.903109 340.685568 138.698719 
C 340.685568 139.494328 341.001667 140.257458 341.564248 140.820039 
C 342.126829 141.38262 342.889959 141.698719 343.685568 141.698719 
z
" style="fill:#f26b38;stroke:#ffffff;stroke-width:0.48;"/>
    <path clip-path="url(#p83269cf74a)" d="M 350.449205 141.698719 
C 351.244814 141.698719 352.007944 141.38262 352.570525 140.820039 
C 353.133106 140.257458 353.449205 139.494328 353.449205 138.698719 
C 353.449205 137.903109 353.133106 137.139979 352.570525 136.577398 
C 352.007944 136.014818 351.244814 135.698719 350.449205 135.698719 
C 349.653595 135.698719 348.890465 136.014818 348.327884 136.577398 
C 347.765303 137.139979 347.449205 137.903109 347.449205 138.698719 
C 347.449205 139.494328 347.765303 140.257458 348.327884 140.820039 
C 348.890465 141.38262 349.653595 141.698719 350.449205 141.698719 
z
" style="fill:#f26b38;stroke:#ffffff;stroke-width:0.48;"/>
    <path clip-path="url(#p83269cf74a)" d="M 357.212841 141.698719 
C 358.00845 141.698719 358.771581 141.38262 359.334161 140.820039 
C 359.896742 140.257458 360.212841 139.494328 360.212841 138.698719 
C 360.212841 137.903109 359.896742 137.139979 359.334161 136.577398 
C 358.771581 136.014818 358.00845 135.698719 357.212841 135.698719 
C 356.417232 135.698719 355.654101 136.014818 355.091521 136.577398 
C 354.52894 137.139979 354.212841 137.903109 354.212841 138.698719 
C 354.212841 139.494328 354.52894 140.257458 355.091521 140.820039 
C 355.654101 141.38262 356.417232 141.698719 357.212841 141.698719 
z
" style="fill:#f26b38;stroke:#ffffff;stroke-width:0.48;"/>
    <path clip-path="url(#p83269cf74a)" d="M 363.976477 141.698719 
C 364.772087 141.698719 365.535217 141.38262 366.097798 140.820039 
C 366.660378 140.257458 366.976477 139.494328 366.976477 138.698719 
C 366.976477 137.903109 366.660378 137.139979 366.097798 136.577398 
C 365.535217 136.014818 364.772087 135.698719 363.976477 135.698719 
C 363.180868 135.698719 362.417738 136.014818 361.855157 136.577398 
C 361.292576 137.139979 360.976477 137.903109 360.976477 138.698719 
C 360.976477 139.494328 361.292576 140.257458 361.855157 140.820039 
C 362.417738 141.38262 363.180868 141.698719 363.976477 141.698719 
z
" style="fill:#f26b38;stroke:#ffffff;stroke-width:0.48;"/>
    <path clip-path="url(#p83269cf74a)" d="M 370.740114 141.698719 
C 371.535723 141.698719 372.298853 141.38262 372.861434 140.820039 
C 373.424015 140.257458 373.740114 139.494328 373.740114 138.698719 
C 373.740114 137.903109 373.424015 137.139979 372.861434 136.577398 
C 372.298853 136.014818 371.535723 135.698719 370.740114 135.698719 
C 369.944504 135.698719 369.181374 136.014818 368.618793 136.577398 
C 368.056213 137.139979 367.740114 137.903109 367.740114 138.698719 
C 367.740114 139.494328 368.056213 140.257458 368.618793 140.820039 
C 369.181374 141.38262 369.944504 141.698719 370.740114 141.698719 
z
" style="fill:#f26b38;stroke:#ffffff;stroke-width:0.48;"/>
    <path clip-path="url(#p83269cf74a)" d="M 377.50375 141.698719 
C 378.299359 141.698719 379.06249 141.38262 379.62507 140.820039 
C 380.187651 140.257458 380.50375 139.494328 380.50375 138.698719 
C 380.50375 137.903109 380.187651 137.139979 379.62507 136.577398 
C 379.06249 136.014818 378.299359 135.698719 377.50375 135.698719 
C 376.708141 135.698719 375.94501 136.014818 375.38243 136.577398 
C 374.819849 137.139979 374.50375 137.903109 374.50375 138.698719 
C 374.50375 139.494328 374.819849 140.257458 375.38243 140.820039 
C 375.94501 141.38262 376.708141 141.698719 377.50375 141.698719 
z
" style="fill:#f26b38;stroke:#ffffff;stroke-width:0.48;"/>
    <path clip-path="url(#p83269cf74a)" d="M 384.267386 141.698719 
C 385.062996 141.698719 385.826126 141.38262 386.388707 140.820039 
C 386.951287 140.257458 387.267386 139.494328 387.267386 138.698719 
C 387.267386 137.903109 386.951287 137.139979 386.388707 136.577398 
C 385.826126 136.014818 385.062996 135.698719 384.267386 135.698719 
C 383.471777 135.698719 382.708647 136.014818 382.146066 136.577398 
C 381.583485 137.139979 381.267386 137.903109 381.267386 138.698719 
C 381.267386 139.494328 381.583485 140.257458 382.146066 140.820039 
C 382.708647 141.38262 383.471777 141.698719 384.267386 141.698719 
z
" style="fill:#f26b38;stroke:#ffffff;stroke-width:0.48;"/>
    <path clip-path="url(#p83269cf74a)" d="M 391.031023 141.698719 
C 391.826632 141.698719 392.589762 141.38262 393.152343 140.820039 
C 393.714924 140.257458 394.031023 139.494328 394.031023 138.698719 
C 394.031023 137.903109 393.714924 137.139979 393.152343 136.577398 
C 392.589762 136.014818 391.826632 135.698719 391.031023 135.698719 
C 390.235413 135.698719 389.472283 136.014818 388.909702 136.577398 
C 388.347122 137.139979 388.031023 137.903109 388.031023 138.698719 
C 388.031023 139.494328 388.347122 140.257458 388.909702 140.820039 
C 389.472283 141.38262 390.235413 141.698719 391.031023 141.698719 
z
" style="fill:#f26b38;stroke:#ffffff;stroke-width:0.48;"/>
    <path clip-path="url(#p83269cf74a)" d="M 64.876477 179.652884 
L 66.376477 178.152884 
L 67.876477 179.652884 
L 69.376477 178.152884 
L 67.876477 176.652884 
L 69.376477 175.152884 
L 67.876477 173.652884 
L 66.376477 175.152884 
L 64.876477 173.652884 
L 63.376477 175.152884 
L 64.876477 176.652884 
L 63.376477 178.152884 
z
" style="fill:#2f9599;stroke:#ffffff;stroke-width:0.48;"/>
    <path clip-path="url(#p83269cf74a)" d="M 71.640114 153.966732 
L 73.140114 152.466732 
L 74.640114 153.966732 
L 76.140114 152.466732 
L 74.640114 150.966732 
L 76.140114 149.466732 
L 74.640114 147.966732 
L 73.140114 149.466732 
L 71.640114 147.966732 
L 70.140114 149.466732 
L 71.640114 150.966732 
L 70.140114 152.466732 
z
" style="fill:#2f9599;stroke:#ffffff;stroke-width:0.48;"/>
    <path clip-path="url(#p83269cf74a)" d="M 78.40375 153.966732 
L 79.90375 152.466732 
L 81.40375 153.966732 
L 82.90375 152.466732 
L 81.40375 150.966732 
L 82.90375 149.466732 
L 81.40375 147.966732 
L 79.90375 149.466732 
L 78.40375 147.966732 
L 76.90375 149.466732 
L 78.40375 150.966732 
L 76.90375 152.466732 
z
" style="fill:#2f9599;stroke:#ffffff;stroke-width:0.48;"/>
    <path clip-path="url(#p83269cf74a)" d="M 85.167386 153.966732 
L 86.667386 152.466732 
L 88.167386 153.966732 
L 89.667386 152.466732 
L 88.167386 150.966732 
L 89.667386 149.466732 
L 88.167386 147.966732 
L 86.667386 149.466732 
L 85.167386 147.966732 
L 83.667386 149.466732 
L 85.167386 150.966732 
L 83.667386 152.466732 
z
" style="fill:#2f9599;stroke:#ffffff;stroke-width:0.48;"/>
    <path clip-path="url(#p83269cf74a)" d="M 91.931023 153.966732 
L 93.431023 152.466732 
L 94.931023 153.966732 
L 96.431023 152.466732 
L 94.931023 150.966732 
L 96.431023 149.466732 
L 94.931023 147.966732 
L 93.431023 149.466732 
L 91.931023 147.966732 
L 90.431023 149.466732 
L 91.931023 150.966732 
L 90.431023 152.466732 
z
" style="fill:#2f9599;stroke:#ffffff;stroke-width:0.48;"/>
    <path clip-path="url(#p83269cf74a)" d="M 98.694659 193.107535 
L 100.194659 191.607535 
L 101.694659 193.107535 
L 103.194659 191.607535 
L 101.694659 190.107535 
L 103.194659 188.607535 
L 101.694659 187.107535 
L 100.194659 188.607535 
L 98.694659 187.107535 
L 97.194659 188.607535 
L 98.694659 190.107535 
L 97.194659 191.607535 
z
" style="fill:#2f9599;stroke:#ffffff;stroke-width:0.48;"/>
    <path clip-path="url(#p83269cf74a)" d="M 105.458295 193.107535 
L 106.958295 191.607535 
L 108.458295 193.107535 
L 109.958295 191.607535 
L 108.458295 190.107535 
L 109.958295 188.607535 
L 108.458295 187.107535 
L 106.958295 188.607535 
L 105.458295 187.107535 
L 103.958295 188.607535 
L 105.458295 190.107535 
L 103.958295 191.607535 
z
" style="fill:#2f9599;stroke:#ffffff;stroke-width:0.48;"/>
    <path clip-path="url(#p83269cf74a)" d="M 112.221932 193.107535 
L 113.721932 191.607535 
L 115.221932 193.107535 
L 116.721932 191.607535 
L 115.221932 190.107535 
L 116.721932 188.607535 
L 115.221932 187.107535 
L 113.721932 188.607535 
L 112.221932 187.107535 
L 110.721932 188.607535 
L 112.221932 190.107535 
L 110.721932 191.607535 
z
" style="fill:#2f9599;stroke:#ffffff;stroke-width:0.48;"/>
    <path clip-path="url(#p83269cf74a)" d="M 118.985568 193.107535 
L 120.485568 191.607535 
L 121.985568 193.107535 
L 123.485568 191.607535 
L 121.985568 190.107535 
L 123.485568 188.607535 
L 121.985568 187.107535 
L 120.485568 188.607535 
L 118.985568 187.107535 
L 117.485568 188.607535 
L 118.985568 190.107535 
L 117.485568 191.607535 
z
" style="fill:#2f9599;stroke:#ffffff;stroke-width:0.48;"/>
    <path clip-path="url(#p83269cf74a)" d="M 125.749205 153.966732 
L 127.249205 152.466732 
L 128.749205 153.966732 
L 130.249205 152.466732 
L 128.749205 150.966732 
L 130.249205 149.466732 
L 128.749205 147.966732 
L 127.249205 149.466732 
L 125.749205 147.966732 
L 124.249205 149.466732 
L 125.749205 150.966732 
L 124.249205 152.466732 
z
" style="fill:#2f9599;stroke:#ffffff;stroke-width:0.48;"/>
    <path clip-path="url(#p83269cf74a)" d="M 132.512841 141.698719 
L 134.012841 140.198719 
L 135.512841 141.698719 
L 137.012841 140.198719 
L 135.512841 138.698719 
L 137.012841 137.198719 
L 135.512841 135.698719 
L 134.012841 137.198719 
L 132.512841 135.698719 
L 131.012841 137.198719 
L 132.512841 138.698719 
L 131.012841 140.198719 
z
" style="fill:#2f9599;stroke:#ffffff;stroke-width:0.48;"/>
    <path clip-path="url(#p83269cf74a)" d="M 139.276477 267.340093 
L 140.776477 265.840093 
L 142.276477 267.340093 
L 143.776477 265.840093 
L 142.276477 264.340093 
L 143.776477 262.840093 
L 142.276477 261.340093 
L 140.776477 262.840093 
L 139.276477 261.340093 
L 137.776477 262.840093 
L 139.276477 264.340093 
L 137.776477 265.840093 
z
" style="fill:#2f9599;stroke:#ffffff;stroke-width:0.48;"/>
    <path clip-path="url(#p83269cf74a)" d="M 146.040114 267.340093 
L 147.540114 265.840093 
L 149.040114 267.340093 
L 150.540114 265.840093 
L 149.040114 264.340093 
L 150.540114 262.840093 
L 149.040114 261.340093 
L 147.540114 262.840093 
L 146.040114 261.340093 
L 144.540114 262.840093 
L 146.040114 264.340093 
L 144.540114 265.840093 
z
" style="fill:#2f9599;stroke:#ffffff;stroke-width:0.48;"/>
    <path clip-path="url(#p83269cf74a)" d="M 152.80375 267.340093 
L 154.30375 265.840093 
L 155.80375 267.340093 
L 157.30375 265.840093 
L 155.80375 264.340093 
L 157.30375 262.840093 
L 155.80375 261.340093 
L 154.30375 262.840093 
L 152.80375 261.340093 
L 151.30375 262.840093 
L 152.80375 264.340093 
L 151.30375 265.840093 
z
" style="fill:#2f9599;stroke:#ffffff;stroke-width:0.48;"/>
    <path clip-path="url(#p83269cf74a)" d="M 159.567386 267.340093 
L 161.067386 265.840093 
L 162.567386 267.340093 
L 164.067386 265.840093 
L 162.567386 264.340093 
L 164.067386 262.840093 
L 162.567386 261.340093 
L 161.067386 262.840093 
L 159.567386 261.340093 
L 158.067386 262.840093 
L 159.567386 264.340093 
L 158.067386 265.840093 
z
" style="fill:#2f9599;stroke:#ffffff;stroke-width:0.48;"/>
    <path clip-path="url(#p83269cf74a)" d="M 166.331023 251.487038 
L 167.831023 249.987038 
L 169.331023 251.487038 
L 170.831023 249.987038 
L 169.331023 248.487038 
L 170.831023 246.987038 
L 169.331023 245.487038 
L 167.831023 246.987038 
L 166.331023 245.487038 
L 164.831023 246.987038 
L 166.331023 248.487038 
L 164.831023 249.987038 
z
" style="fill:#2f9599;stroke:#ffffff;stroke-width:0.48;"/>
    <path clip-path="url(#p83269cf74a)" d="M 173.094659 221.340246 
L 174.594659 219.840246 
L 176.094659 221.340246 
L 177.594659 219.840246 
L 176.094659 218.340246 
L 177.594659 216.840246 
L 176.094659 215.340246 
L 174.594659 216.840246 
L 173.094659 215.340246 
L 171.594659 216.840246 
L 173.094659 218.340246 
L 171.594659 219.840246 
z
" style="fill:#2f9599;stroke:#ffffff;stroke-width:0.48;"/>
    <path clip-path="url(#p83269cf74a)" d="M 179.858295 221.340246 
L 181.358295 219.840246 
L 182.858295 221.340246 
L 184.358295 219.840246 
L 182.858295 218.340246 
L 184.358295 216.840246 
L 182.858295 215.340246 
L 181.358295 216.840246 
L 179.858295 215.340246 
L 178.358295 216.840246 
L 179.858295 218.340246 
L 178.358295 219.840246 
z
" style="fill:#2f9599;stroke:#ffffff;stroke-width:0.48;"/>
    <path clip-path="url(#p83269cf74a)" d="M 186.621932 221.340246 
L 188.121932 219.840246 
L 189.621932 221.340246 
L 191.121932 219.840246 
L 189.621932 218.340246 
L 191.121932 216.840246 
L 189.621932 215.340246 
L 188.121932 216.840246 
L 186.621932 215.340246 
L 185.121932 216.840246 
L 186.621932 218.340246 
L 185.121932 219.840246 
z
" style="fill:#2f9599;stroke:#ffffff;stroke-width:0.48;"/>
    <path clip-path="url(#p83269cf74a)" d="M 193.385568 221.340246 
L 194.885568 219.840246 
L 196.385568 221.340246 
L 197.885568 219.840246 
L 196.385568 218.340246 
L 197.885568 216.840246 
L 196.385568 215.340246 
L 194.885568 216.840246 
L 193.385568 215.340246 
L 191.885568 216.840246 
L 193.385568 218.340246 
L 191.885568 219.840246 
z
" style="fill:#2f9599;stroke:#ffffff;stroke-width:0.48;"/>
    <path clip-path="url(#p83269cf74a)" d="M 200.149205 221.340246 
L 201.649205 219.840246 
L 203.149205 221.340246 
L 204.649205 219.840246 
L 203.149205 218.340246 
L 204.649205 216.840246 
L 203.149205 215.340246 
L 201.649205 216.840246 
L 200.149205 215.340246 
L 198.649205 216.840246 
L 200.149205 218.340246 
L 198.649205 219.840246 
z
" style="fill:#2f9599;stroke:#ffffff;stroke-width:0.48;"/>
    <path clip-path="url(#p83269cf74a)" d="M 206.912841 221.340246 
L 208.412841 219.840246 
L 209.912841 221.340246 
L 211.412841 219.840246 
L 209.912841 218.340246 
L 211.412841 216.840246 
L 209.912841 215.340246 
L 208.412841 216.840246 
L 206.912841 215.340246 
L 205.412841 216.840246 
L 206.912841 218.340246 
L 205.412841 219.840246 
z
" style="fill:#2f9599;stroke:#ffffff;stroke-width:0.48;"/>
    <path clip-path="url(#p83269cf74a)" d="M 213.676477 221.340246 
L 215.176477 219.840246 
L 216.676477 221.340246 
L 218.176477 219.840246 
L 216.676477 218.340246 
L 218.176477 216.840246 
L 216.676477 215.340246 
L 215.176477 216.840246 
L 213.676477 215.340246 
L 212.176477 216.840246 
L 213.676477 218.340246 
L 212.176477 219.840246 
z
" style="fill:#2f9599;stroke:#ffffff;stroke-width:0.48;"/>
    <path clip-path="url(#p83269cf74a)" d="M 220.440114 221.340246 
L 221.940114 219.840246 
L 223.440114 221.340246 
L 224.940114 219.840246 
L 223.440114 218.340246 
L 224.940114 216.840246 
L 223.440114 215.340246 
L 221.940114 216.840246 
L 220.440114 215.340246 
L 218.940114 216.840246 
L 220.440114 218.340246 
L 218.940114 219.840246 
z
" style="fill:#2f9599;stroke:#ffffff;stroke-width:0.48;"/>
    <path clip-path="url(#p83269cf74a)" d="M 227.20375 221.340246 
L 228.70375 219.840246 
L 230.20375 221.340246 
L 231.70375 219.840246 
L 230.20375 218.340246 
L 231.70375 216.840246 
L 230.20375 215.340246 
L 228.70375 216.840246 
L 227.20375 215.340246 
L 225.70375 216.840246 
L 227.20375 218.340246 
L 225.70375 219.840246 
z
" style="fill:#2f9599;stroke:#ffffff;stroke-width:0.48;"/>
    <path clip-path="url(#p83269cf74a)" d="M 233.967386 221.340246 
L 235.467386 219.840246 
L 236.967386 221.340246 
L 238.467386 219.840246 
L 236.967386 218.340246 
L 238.467386 216.840246 
L 236.967386 215.340246 
L 235.467386 216.840246 
L 233.967386 215.340246 
L 232.467386 216.840246 
L 233.967386 218.340246 
L 232.467386 219.840246 
z
" style="fill:#2f9599;stroke:#ffffff;stroke-width:0.48;"/>
    <path clip-path="url(#p83269cf74a)" d="M 240.731023 221.340246 
L 242.231023 219.840246 
L 243.731023 221.340246 
L 245.231023 219.840246 
L 243.731023 218.340246 
L 245.231023 216.840246 
L 243.731023 215.340246 
L 242.231023 216.840246 
L 240.731023 215.340246 
L 239.231023 216.840246 
L 240.731023 218.340246 
L 239.231023 219.840246 
z
" style="fill:#2f9599;stroke:#ffffff;stroke-width:0.48;"/>
    <path clip-path="url(#p83269cf74a)" d="M 247.494659 221.340246 
L 248.994659 219.840246 
L 250.494659 221.340246 
L 251.994659 219.840246 
L 250.494659 218.340246 
L 251.994659 216.840246 
L 250.494659 215.340246 
L 248.994659 216.840246 
L 247.494659 215.340246 
L 245.994659 216.840246 
L 247.494659 218.340246 
L 245.994659 219.840246 
z
" style="fill:#2f9599;stroke:#ffffff;stroke-width:0.48;"/>
    <path clip-path="url(#p83269cf74a)" d="M 254.258295 221.340246 
L 255.758295 219.840246 
L 257.258295 221.340246 
L 258.758295 219.840246 
L 257.258295 218.340246 
L 258.758295 216.840246 
L 257.258295 215.340246 
L 255.758295 216.840246 
L 254.258295 215.340246 
L 252.758295 216.840246 
L 254.258295 218.340246 
L 252.758295 219.840246 
z
" style="fill:#2f9599;stroke:#ffffff;stroke-width:0.48;"/>
    <path clip-path="url(#p83269cf74a)" d="M 261.021932 221.340246 
L 262.521932 219.840246 
L 264.021932 221.340246 
L 265.521932 219.840246 
L 264.021932 218.340246 
L 265.521932 216.840246 
L 264.021932 215.340246 
L 262.521932 216.840246 
L 261.021932 215.340246 
L 259.521932 216.840246 
L 261.021932 218.340246 
L 259.521932 219.840246 
z
" style="fill:#2f9599;stroke:#ffffff;stroke-width:0.48;"/>
    <path clip-path="url(#p83269cf74a)" d="M 267.785568 221.340246 
L 269.285568 219.840246 
L 270.785568 221.340246 
L 272.285568 219.840246 
L 270.785568 218.340246 
L 272.285568 216.840246 
L 270.785568 215.340246 
L 269.285568 216.840246 
L 267.785568 215.340246 
L 266.285568 216.840246 
L 267.785568 218.340246 
L 266.285568 219.840246 
z
" style="fill:#2f9599;stroke:#ffffff;stroke-width:0.48;"/>
    <path clip-path="url(#p83269cf74a)" d="M 274.549205 221.340246 
L 276.049205 219.840246 
L 277.549205 221.340246 
L 279.049205 219.840246 
L 277.549205 218.340246 
L 279.049205 216.840246 
L 277.549205 215.340246 
L 276.049205 216.840246 
L 274.549205 215.340246 
L 273.049205 216.840246 
L 274.549205 218.340246 
L 273.049205 219.840246 
z
" style="fill:#2f9599;stroke:#ffffff;stroke-width:0.48;"/>
    <path clip-path="url(#p83269cf74a)" d="M 281.312841 221.340246 
L 282.812841 219.840246 
L 284.312841 221.340246 
L 285.812841 219.840246 
L 284.312841 218.340246 
L 285.812841 216.840246 
L 284.312841 215.340246 
L 282.812841 216.840246 
L 281.312841 215.340246 
L 279.812841 216.840246 
L 281.312841 218.340246 
L 279.812841 219.840246 
z
" style="fill:#2f9599;stroke:#ffffff;stroke-width:0.48;"/>
    <path clip-path="url(#p83269cf74a)" d="M 288.076477 221.340246 
L 289.576477 219.840246 
L 291.076477 221.340246 
L 292.576477 219.840246 
L 291.076477 218.340246 
L 292.576477 216.840246 
L 291.076477 215.340246 
L 289.576477 216.840246 
L 288.076477 215.340246 
L 286.576477 216.840246 
L 288.076477 218.340246 
L 286.576477 219.840246 
z
" style="fill:#2f9599;stroke:#ffffff;stroke-width:0.48;"/>
    <path clip-path="url(#p83269cf74a)" d="M 294.840114 221.340246 
L 296.340114 219.840246 
L 297.840114 221.340246 
L 299.340114 219.840246 
L 297.840114 218.340246 
L 299.340114 216.840246 
L 297.840114 215.340246 
L 296.340114 216.840246 
L 294.840114 215.340246 
L 293.340114 216.840246 
L 294.840114 218.340246 
L 293.340114 219.840246 
z
" style="fill:#2f9599;stroke:#ffffff;stroke-width:0.48;"/>
    <path clip-path="url(#p83269cf74a)" d="M 301.60375 221.340246 
L 303.10375 219.840246 
L 304.60375 221.340246 
L 306.10375 219.840246 
L 304.60375 218.340246 
L 306.10375 216.840246 
L 304.60375 215.340246 
L 303.10375 216.840246 
L 301.60375 215.340246 
L 300.10375 216.840246 
L 301.60375 218.340246 
L 300.10375 219.840246 
z
" style="fill:#2f9599;stroke:#ffffff;stroke-width:0.48;"/>
    <path clip-path="url(#p83269cf74a)" d="M 308.367386 221.340246 
L 309.867386 219.840246 
L 311.367386 221.340246 
L 312.867386 219.840246 
L 311.367386 218.340246 
L 312.867386 216.840246 
L 311.367386 215.340246 
L 309.867386 216.840246 
L 308.367386 215.340246 
L 306.867386 216.840246 
L 308.367386 218.340246 
L 306.867386 219.840246 
z
" style="fill:#2f9599;stroke:#ffffff;stroke-width:0.48;"/>
    <path clip-path="url(#p83269cf74a)" d="M 315.131023 221.340246 
L 316.631023 219.840246 
L 318.131023 221.340246 
L 319.631023 219.840246 
L 318.131023 218.340246 
L 319.631023 216.840246 
L 318.131023 215.340246 
L 316.631023 216.840246 
L 315.131023 215.340246 
L 313.631023 216.840246 
L 315.131023 218.340246 
L 313.631023 219.840246 
z
" style="fill:#2f9599;stroke:#ffffff;stroke-width:0.48;"/>
    <path clip-path="url(#p83269cf74a)" d="M 321.894659 221.340246 
L 323.394659 219.840246 
L 324.894659 221.340246 
L 326.394659 219.840246 
L 324.894659 218.340246 
L 326.394659 216.840246 
L 324.894659 215.340246 
L 323.394659 216.840246 
L 321.894659 215.340246 
L 320.394659 216.840246 
L 321.894659 218.340246 
L 320.394659 219.840246 
z
" style="fill:#2f9599;stroke:#ffffff;stroke-width:0.48;"/>
    <path clip-path="url(#p83269cf74a)" d="M 328.658295 221.340246 
L 330.158295 219.840246 
L 331.658295 221.340246 
L 333.158295 219.840246 
L 331.658295 218.340246 
L 333.158295 216.840246 
L 331.658295 215.340246 
L 330.158295 216.840246 
L 328.658295 215.340246 
L 327.158295 216.840246 
L 328.658295 218.340246 
L 327.158295 219.840246 
z
" style="fill:#2f9599;stroke:#ffffff;stroke-width:0.48;"/>
    <path clip-path="url(#p83269cf74a)" d="M 335.421932 221.340246 
L 336.921932 219.840246 
L 338.421932 221.340246 
L 339.921932 219.840246 
L 338.421932 218.340246 
L 339.921932 216.840246 
L 338.421932 215.340246 
L 336.921932 216.840246 
L 335.421932 215.340246 
L 333.921932 216.840246 
L 335.421932 218.340246 
L 333.921932 219.840246 
z
" style="fill:#2f9599;stroke:#ffffff;stroke-width:0.48;"/>
    <path clip-path="url(#p83269cf74a)" d="M 342.185568 221.340246 
L 343.685568 219.840246 
L 345.185568 221.340246 
L 346.685568 219.840246 
L 345.185568 218.340246 
L 346.685568 216.840246 
L 345.185568 215.340246 
L 343.685568 216.840246 
L 342.185568 215.340246 
L 340.685568 216.840246 
L 342.185568 218.340246 
L 340.685568 219.840246 
z
" style="fill:#2f9599;stroke:#ffffff;stroke-width:0.48;"/>
    <path clip-path="url(#p83269cf74a)" d="M 348.949205 221.340246 
L 350.449205 219.840246 
L 351.949205 221.340246 
L 353.449205 219.840246 
L 351.949205 218.340246 
L 353.449205 216.840246 
L 351.949205 215.340246 
L 350.449205 216.840246 
L 348.949205 215.340246 
L 347.449205 216.840246 
L 348.949205 218.340246 
L 347.449205 219.840246 
z
" style="fill:#2f9599;stroke:#ffffff;stroke-width:0.48;"/>
    <path clip-path="url(#p83269cf74a)" d="M 355.712841 221.340246 
L 357.212841 219.840246 
L 358.712841 221.340246 
L 360.212841 219.840246 
L 358.712841 218.340246 
L 360.212841 216.840246 
L 358.712841 215.340246 
L 357.212841 216.840246 
L 355.712841 215.340246 
L 354.212841 216.840246 
L 355.712841 218.340246 
L 354.212841 219.840246 
z
" style="fill:#2f9599;stroke:#ffffff;stroke-width:0.48;"/>
    <path clip-path="url(#p83269cf74a)" d="M 362.476477 221.340246 
L 363.976477 219.840246 
L 365.476477 221.340246 
L 366.976477 219.840246 
L 365.476477 218.340246 
L 366.976477 216.840246 
L 365.476477 215.340246 
L 363.976477 216.840246 
L 362.476477 215.340246 
L 360.976477 216.840246 
L 362.476477 218.340246 
L 360.976477 219.840246 
z
" style="fill:#2f9599;stroke:#ffffff;stroke-width:0.48;"/>
    <path clip-path="url(#p83269cf74a)" d="M 369.240114 221.340246 
L 370.740114 219.840246 
L 372.240114 221.340246 
L 373.740114 219.840246 
L 372.240114 218.340246 
L 373.740114 216.840246 
L 372.240114 215.340246 
L 370.740114 216.840246 
L 369.240114 215.340246 
L 367.740114 216.840246 
L 369.240114 218.340246 
L 367.740114 219.840246 
z
" style="fill:#2f9599;stroke:#ffffff;stroke-width:0.48;"/>
    <path clip-path="url(#p83269cf74a)" d="M 376.00375 221.340246 
L 377.50375 219.840246 
L 379.00375 221.340246 
L 380.50375 219.840246 
L 379.00375 218.340246 
L 380.50375 216.840246 
L 379.00375 215.340246 
L 377.50375 216.840246 
L 376.00375 215.340246 
L 374.50375 216.840246 
L 376.00375 218.340246 
L 374.50375 219.840246 
z
" style="fill:#2f9599;stroke:#ffffff;stroke-width:0.48;"/>
    <path clip-path="url(#p83269cf74a)" d="M 382.767386 221.340246 
L 384.267386 219.840246 
L 385.767386 221.340246 
L 387.267386 219.840246 
L 385.767386 218.340246 
L 387.267386 216.840246 
L 385.767386 215.340246 
L 384.267386 216.840246 
L 382.767386 215.340246 
L 381.267386 216.840246 
L 382.767386 218.340246 
L 381.267386 219.840246 
z
" style="fill:#2f9599;stroke:#ffffff;stroke-width:0.48;"/>
    <path clip-path="url(#p83269cf74a)" d="M 389.531023 221.340246 
L 391.031023 219.840246 
L 392.531023 221.340246 
L 394.031023 219.840246 
L 392.531023 218.340246 
L 394.031023 216.840246 
L 392.531023 215.340246 
L 391.031023 216.840246 
L 389.531023 215.340246 
L 388.031023 216.840246 
L 389.531023 218.340246 
L 388.031023 219.840246 
z
" style="fill:#2f9599;stroke:#ffffff;stroke-width:0.48;"/>
    <path clip-path="url(#p83269cf74a)" d="M 64.255157 48.795084 
L 64.255157 53.037724 
L 68.497798 53.037724 
L 68.497798 48.795084 
z
" style="fill:#a7226e;stroke:#ffffff;stroke-width:0.48;"/>
    <path clip-path="url(#p83269cf74a)" d="M 71.018793 48.795084 
L 71.018793 53.037724 
L 75.261434 53.037724 
L 75.261434 48.795084 
z
" style="fill:#a7226e;stroke:#ffffff;stroke-width:0.48;"/>
    <path clip-path="url(#p83269cf74a)" d="M 77.78243 48.795084 
L 77.78243 53.037724 
L 82.02507 53.037724 
L 82.02507 48.795084 
z
" style="fill:#a7226e;stroke:#ffffff;stroke-width:0.48;"/>
    <path clip-path="url(#p83269cf74a)" d="M 84.546066 48.795084 
L 84.546066 53.037724 
L 88.788707 53.037724 
L 88.788707 48.795084 
z
" style="fill:#a7226e;stroke:#ffffff;stroke-width:0.48;"/>
    <path clip-path="url(#p83269cf74a)" d="M 91.309702 48.795084 
L 91.309702 53.037724 
L 95.552343 53.037724 
L 95.552343 48.795084 
z
" style="fill:#a7226e;stroke:#ffffff;stroke-width:0.48;"/>
    <path clip-path="url(#p83269cf74a)" d="M 98.073339 58.821564 
L 98.073339 63.064204 
L 102.315979 63.064204 
L 102.315979 58.821564 
z
" style="fill:#a7226e;stroke:#ffffff;stroke-width:0.48;"/>
    <path clip-path="url(#p83269cf74a)" d="M 104.836975 48.795084 
L 104.836975 53.037724 
L 109.079616 53.037724 
L 109.079616 48.795084 
z
" style="fill:#a7226e;stroke:#ffffff;stroke-width:0.48;"/>
    <path clip-path="url(#p83269cf74a)" d="M 111.600611 48.795084 
L 111.600611 53.037724 
L 115.843252 53.037724 
L 115.843252 48.795084 
z
" style="fill:#a7226e;stroke:#ffffff;stroke-width:0.48;"/>
    <path clip-path="url(#p83269cf74a)" d="M 118.364248 48.795084 
L 118.364248 53.037724 
L 122.606889 53.037724 
L 122.606889 48.795084 
z
" style="fill:#a7226e;stroke:#ffffff;stroke-width:0.48;"/>
    <path clip-path="url(#p83269cf74a)" d="M 125.127884 20.298773 
L 125.127884 24.541414 
L 129.370525 24.541414 
L 129.370525 20.298773 
z
" style="fill:#a7226e;stroke:#ffffff;stroke-width:0.48;"/>
    <path clip-path="url(#p83269cf74a)" d="M 131.891521 20.298773 
L 131.891521 24.541414 
L 136.134161 24.541414 
L 136.134161 20.298773 
z
" style="fill:#a7226e;stroke:#ffffff;stroke-width:0.48;"/>
    <path clip-path="url(#p83269cf74a)" d="M 138.655157 29.544243 
L 138.655157 33.786883 
L 142.897798 33.786883 
L 142.897798 29.544243 
z
" style="fill:#a7226e;stroke:#ffffff;stroke-width:0.48;"/>
    <path clip-path="url(#p83269cf74a)" d="M 145.418793 29.544243 
L 145.418793 33.786883 
L 149.661434 33.786883 
L 149.661434 29.544243 
z
" style="fill:#a7226e;stroke:#ffffff;stroke-width:0.48;"/>
    <path clip-path="url(#p83269cf74a)" d="M 152.18243 29.544243 
L 152.18243 33.786883 
L 156.42507 33.786883 
L 156.42507 29.544243 
z
" style="fill:#a7226e;stroke:#ffffff;stroke-width:0.48;"/>
    <path clip-path="url(#p83269cf74a)" d="M 158.946066 20.298773 
L 158.946066 24.541414 
L 163.188707 24.541414 
L 163.188707 20.298773 
z
" style="fill:#a7226e;stroke:#ffffff;stroke-width:0.48;"/>
    <path clip-path="url(#p83269cf74a)" d="M 165.709702 48.795084 
L 165.709702 53.037724 
L 169.952343 53.037724 
L 169.952343 48.795084 
z
" style="fill:#a7226e;stroke:#ffffff;stroke-width:0.48;"/>
    <path clip-path="url(#p83269cf74a)" d="M 172.473339 48.795084 
L 172.473339 53.037724 
L 176.715979 53.037724 
L 176.715979 48.795084 
z
" style="fill:#a7226e;stroke:#ffffff;stroke-width:0.48;"/>
    <path clip-path="url(#p83269cf74a)" d="M 179.236975 39.03959 
L 179.236975 43.282231 
L 183.479616 43.282231 
L 183.479616 39.03959 
z
" style="fill:#a7226e;stroke:#ffffff;stroke-width:0.48;"/>
    <path clip-path="url(#p83269cf74a)" d="M 186.000611 39.03959 
L 186.000611 43.282231 
L 190.243252 43.282231 
L 190.243252 39.03959 
z
" style="fill:#a7226e;stroke:#ffffff;stroke-width:0.48;"/>
    <path clip-path="url(#p83269cf74a)" d="M 192.764248 39.03959 
L 192.764248 43.282231 
L 197.006889 43.282231 
L 197.006889 39.03959 
z
" style="fill:#a7226e;stroke:#ffffff;stroke-width:0.48;"/>
    <path clip-path="url(#p83269cf74a)" d="M 199.527884 39.03959 
L 199.527884 43.282231 
L 203.770525 43.282231 
L 203.770525 39.03959 
z
" style="fill:#a7226e;stroke:#ffffff;stroke-width:0.48;"/>
    <path clip-path="url(#p83269cf74a)" d="M 206.291521 39.03959 
L 206.291521 43.282231 
L 210.534161 43.282231 
L 210.534161 39.03959 
z
" style="fill:#a7226e;stroke:#ffffff;stroke-width:0.48;"/>
    <path clip-path="url(#p83269cf74a)" d="M 213.055157 39.03959 
L 213.055157 43.282231 
L 217.297798 43.282231 
L 217.297798 39.03959 
z
" style="fill:#a7226e;stroke:#ffffff;stroke-width:0.48;"/>
    <path clip-path="url(#p83269cf74a)" d="M 219.818793 39.03959 
L 219.818793 43.282231 
L 224.061434 43.282231 
L 224.061434 39.03959 
z
" style="fill:#a7226e;stroke:#ffffff;stroke-width:0.48;"/>
    <path clip-path="url(#p83269cf74a)" d="M 226.58243 39.03959 
L 226.58243 43.282231 
L 230.82507 43.282231 
L 230.82507 39.03959 
z
" style="fill:#a7226e;stroke:#ffffff;stroke-width:0.48;"/>
    <path clip-path="url(#p83269cf74a)" d="M 233.346066 39.03959 
L 233.346066 43.282231 
L 237.588707 43.282231 
L 237.588707 39.03959 
z
" style="fill:#a7226e;stroke:#ffffff;stroke-width:0.48;"/>
    <path clip-path="url(#p83269cf74a)" d="M 240.109702 39.03959 
L 240.109702 43.282231 
L 244.352343 43.282231 
L 244.352343 39.03959 
z
" style="fill:#a7226e;stroke:#ffffff;stroke-width:0.48;"/>
    <path clip-path="url(#p83269cf74a)" d="M 246.873339 48.795084 
L 246.873339 53.037724 
L 251.115979 53.037724 
L 251.115979 48.795084 
z
" style="fill:#a7226e;stroke:#ffffff;stroke-width:0.48;"/>
    <path clip-path="url(#p83269cf74a)" d="M 253.636975 39.03959 
L 253.636975 43.282231 
L 257.879616 43.282231 
L 257.879616 39.03959 
z
" style="fill:#a7226e;stroke:#ffffff;stroke-width:0.48;"/>
    <path clip-path="url(#p83269cf74a)" d="M 260.400611 69.130479 
L 260.400611 73.37312 
L 264.643252 73.37312 
L 264.643252 69.130479 
z
" style="fill:#a7226e;stroke:#ffffff;stroke-width:0.48;"/>
    <path clip-path="url(#p83269cf74a)" d="M 267.164248 69.130479 
L 267.164248 73.37312 
L 271.406889 73.37312 
L 271.406889 69.130479 
z
" style="fill:#a7226e;stroke:#ffffff;stroke-width:0.48;"/>
    <path clip-path="url(#p83269cf74a)" d="M 273.927884 69.130479 
L 273.927884 73.37312 
L 278.170525 73.37312 
L 278.170525 69.130479 
z
" style="fill:#a7226e;stroke:#ffffff;stroke-width:0.48;"/>
    <path clip-path="url(#p83269cf74a)" d="M 280.691521 69.130479 
L 280.691521 73.37312 
L 284.934161 73.37312 
L 284.934161 69.130479 
z
" style="fill:#a7226e;stroke:#ffffff;stroke-width:0.48;"/>
    <path clip-path="url(#p83269cf74a)" d="M 287.455157 69.130479 
L 287.455157 73.37312 
L 291.697798 73.37312 
L 291.697798 69.130479 
z
" style="fill:#a7226e;stroke:#ffffff;stroke-width:0.48;"/>
    <path clip-path="url(#p83269cf74a)" d="M 294.218793 69.130479 
L 294.218793 73.37312 
L 298.461434 73.37312 
L 298.461434 69.130479 
z
" style="fill:#a7226e;stroke:#ffffff;stroke-width:0.48;"/>
    <path clip-path="url(#p83269cf74a)" d="M 300.98243 69.130479 
L 300.98243 73.37312 
L 305.22507 73.37312 
L 305.22507 69.130479 
z
" style="fill:#a7226e;stroke:#ffffff;stroke-width:0.48;"/>
    <path clip-path="url(#p83269cf74a)" d="M 307.746066 69.130479 
L 307.746066 73.37312 
L 311.988707 73.37312 
L 311.988707 69.130479 
z
" style="fill:#a7226e;stroke:#ffffff;stroke-width:0.48;"/>
    <path clip-path="url(#p83269cf74a)" d="M 314.509702 69.130479 
L 314.509702 73.37312 
L 318.752343 73.37312 
L 318.752343 69.130479 
z
" style="fill:#a7226e;stroke:#ffffff;stroke-width:0.48;"/>
    <path clip-path="url(#p83269cf74a)" d="M 321.273339 69.130479 
L 321.273339 73.37312 
L 325.515979 73.37312 
L 325.515979 69.130479 
z
" style="fill:#a7226e;stroke:#ffffff;stroke-width:0.48;"/>
    <path clip-path="url(#p83269cf74a)" d="M 328.036975 69.130479 
L 328.036975 73.37312 
L 332.279616 73.37312 
L 332.279616 69.130479 
z
" style="fill:#a7226e;stroke:#ffffff;stroke-width:0.48;"/>
    <path clip-path="url(#p83269cf74a)" d="M 334.800611 69.130479 
L 334.800611 73.37312 
L 339.043252 73.37312 
L 339.043252 69.130479 
z
" style="fill:#a7226e;stroke:#ffffff;stroke-width:0.48;"/>
    <path clip-path="url(#p83269cf74a)" d="M 341.564248 69.130479 
L 341.564248 73.37312 
L 345.806889 73.37312 
L 345.806889 69.130479 
z
" style="fill:#a7226e;stroke:#ffffff;stroke-width:0.48;"/>
    <path clip-path="url(#p83269cf74a)" d="M 348.327884 69.130479 
L 348.327884 73.37312 
L 352.570525 73.37312 
L 352.570525 69.130479 
z
" style="fill:#a7226e;stroke:#ffffff;stroke-width:0.48;"/>
    <path clip-path="url(#p83269cf74a)" d="M 355.091521 69.130479 
L 355.091521 73.37312 
L 359.334161 73.37312 
L 359.334161 69.130479 
z
" style="fill:#a7226e;stroke:#ffffff;stroke-width:0.48;"/>
    <path clip-path="url(#p83269cf74a)" d="M 361.855157 69.130479 
L 361.855157 73.37312 
L 366.097798 73.37312 
L 366.097798 69.130479 
z
" style="fill:#a7226e;stroke:#ffffff;stroke-width:0.48;"/>
    <path clip-path="url(#p83269cf74a)" d="M 368.618793 69.130479 
L 368.618793 73.37312 
L 372.861434 73.37312 
L 372.861434 69.130479 
z
" style="fill:#a7226e;stroke:#ffffff;stroke-width:0.48;"/>
    <path clip-path="url(#p83269cf74a)" d="M 375.38243 69.130479 
L 375.38243 73.37312 
L 379.62507 73.37312 
L 379.62507 69.130479 
z
" style="fill:#a7226e;stroke:#ffffff;stroke-width:0.48;"/>
    <path clip-path="url(#p83269cf74a)" d="M 382.146066 69.130479 
L 382.146066 73.37312 
L 386.388707 73.37312 
L 386.388707 69.130479 
z
" style="fill:#a7226e;stroke:#ffffff;stroke-width:0.48;"/>
    <path clip-path="url(#p83269cf74a)" d="M 388.909702 69.130479 
L 388.909702 73.37312 
L 393.152343 73.37312 
L 393.152343 69.130479 
z
" style="fill:#a7226e;stroke:#ffffff;stroke-width:0.48;"/>
   </g>
   <g id="PathCollection_2"/>
   <g id="PathCollection_3"/>
   <g id="PathCollection_4"/>
   <g id="matplotlib.axis_1">
    <g id="xtick_1">
     <g id="line2d_1">
      <defs>
       <path d="M 0 0 
L 0 3.5 
" id="mc384cc754c" style="stroke:#000000;stroke-width:0.8;"/>
      </defs>
      <g>
       <use style="stroke:#000000;stroke-width:0.8;" x="59.612841" xlink:href="#mc384cc754c" y="276.436093"/>
      </g>
     </g>
     <g id="text_1">
      <!-- 0.0 -->
      <g transform="translate(51.661278 291.034531)scale(0.1 -0.1)">
       <defs>
        <path d="M 31.78125 66.40625 
Q 24.171875 66.40625 20.328125 58.90625 
Q 16.5 51.421875 16.5 36.375 
Q 16.5 21.390625 20.328125 13.890625 
Q 24.171875 6.390625 31.78125 6.390625 
Q 39.453125 6.390625 43.28125 13.890625 
Q 47.125 21.390625 47.125 36.375 
Q 47.125 51.421875 43.28125 58.90625 
Q 39.453125 66.40625 31.78125 66.40625 
z
M 31.78125 74.21875 
Q 44.046875 74.21875 50.515625 64.515625 
Q 56.984375 54.828125 56.984375 36.375 
Q 56.984375 17.96875 50.515625 8.265625 
Q 44.046875 -1.421875 31.78125 -1.421875 
Q 19.53125 -1.421875 13.0625 8.265625 
Q 6.59375 17.96875 6.59375 36.375 
Q 6.59375 54.828125 13.0625 64.515625 
Q 19.53125 74.21875 31.78125 74.21875 
z
" id="DejaVuSans-48"/>
        <path d="M 10.6875 12.40625 
L 21 12.40625 
L 21 0 
L 10.6875 0 
z
" id="DejaVuSans-46"/>
       </defs>
       <use xlink:href="#DejaVuSans-48"/>
       <use x="63.623047" xlink:href="#DejaVuSans-46"/>
       <use x="95.410156" xlink:href="#DejaVuSans-48"/>
      </g>
     </g>
    </g>
    <g id="xtick_2">
     <g id="line2d_2">
      <g>
       <use style="stroke:#000000;stroke-width:0.8;" x="127.249205" xlink:href="#mc384cc754c" y="276.436093"/>
      </g>
     </g>
     <g id="text_2">
      <!-- 0.2 -->
      <g transform="translate(119.297642 291.034531)scale(0.1 -0.1)">
       <defs>
        <path d="M 19.1875 8.296875 
L 53.609375 8.296875 
L 53.609375 0 
L 7.328125 0 
L 7.328125 8.296875 
Q 12.9375 14.109375 22.625 23.890625 
Q 32.328125 33.6875 34.8125 36.53125 
Q 39.546875 41.84375 41.421875 45.53125 
Q 43.3125 49.21875 43.3125 52.78125 
Q 43.3125 58.59375 39.234375 62.25 
Q 35.15625 65.921875 28.609375 65.921875 
Q 23.96875 65.921875 18.8125 64.3125 
Q 13.671875 62.703125 7.8125 59.421875 
L 7.8125 69.390625 
Q 13.765625 71.78125 18.9375 73 
Q 24.125 74.21875 28.421875 74.21875 
Q 39.75 74.21875 46.484375 68.546875 
Q 53.21875 62.890625 53.21875 53.421875 
Q 53.21875 48.921875 51.53125 44.890625 
Q 49.859375 40.875 45.40625 35.40625 
Q 44.1875 33.984375 37.640625 27.21875 
Q 31.109375 20.453125 19.1875 8.296875 
z
" id="DejaVuSans-50"/>
       </defs>
       <use xlink:href="#DejaVuSans-48"/>
       <use x="63.623047" xlink:href="#DejaVuSans-46"/>
       <use x="95.410156" xlink:href="#DejaVuSans-50"/>
      </g>
     </g>
    </g>
    <g id="xtick_3">
     <g id="line2d_3">
      <g>
       <use style="stroke:#000000;stroke-width:0.8;" x="194.885568" xlink:href="#mc384cc754c" y="276.436093"/>
      </g>
     </g>
     <g id="text_3">
      <!-- 0.4 -->
      <g transform="translate(186.934006 291.034531)scale(0.1 -0.1)">
       <defs>
        <path d="M 37.796875 64.3125 
L 12.890625 25.390625 
L 37.796875 25.390625 
z
M 35.203125 72.90625 
L 47.609375 72.90625 
L 47.609375 25.390625 
L 58.015625 25.390625 
L 58.015625 17.1875 
L 47.609375 17.1875 
L 47.609375 0 
L 37.796875 0 
L 37.796875 17.1875 
L 4.890625 17.1875 
L 4.890625 26.703125 
z
" id="DejaVuSans-52"/>
       </defs>
       <use xlink:href="#DejaVuSans-48"/>
       <use x="63.623047" xlink:href="#DejaVuSans-46"/>
       <use x="95.410156" xlink:href="#DejaVuSans-52"/>
      </g>
     </g>
    </g>
    <g id="xtick_4">
     <g id="line2d_4">
      <g>
       <use style="stroke:#000000;stroke-width:0.8;" x="262.521932" xlink:href="#mc384cc754c" y="276.436093"/>
      </g>
     </g>
     <g id="text_4">
      <!-- 0.6 -->
      <g transform="translate(254.570369 291.034531)scale(0.1 -0.1)">
       <defs>
        <path d="M 33.015625 40.375 
Q 26.375 40.375 22.484375 35.828125 
Q 18.609375 31.296875 18.609375 23.390625 
Q 18.609375 15.53125 22.484375 10.953125 
Q 26.375 6.390625 33.015625 6.390625 
Q 39.65625 6.390625 43.53125 10.953125 
Q 47.40625 15.53125 47.40625 23.390625 
Q 47.40625 31.296875 43.53125 35.828125 
Q 39.65625 40.375 33.015625 40.375 
z
M 52.59375 71.296875 
L 52.59375 62.3125 
Q 48.875 64.0625 45.09375 64.984375 
Q 41.3125 65.921875 37.59375 65.921875 
Q 27.828125 65.921875 22.671875 59.328125 
Q 17.53125 52.734375 16.796875 39.40625 
Q 19.671875 43.65625 24.015625 45.921875 
Q 28.375 48.1875 33.59375 48.1875 
Q 44.578125 48.1875 50.953125 41.515625 
Q 57.328125 34.859375 57.328125 23.390625 
Q 57.328125 12.15625 50.6875 5.359375 
Q 44.046875 -1.421875 33.015625 -1.421875 
Q 20.359375 -1.421875 13.671875 8.265625 
Q 6.984375 17.96875 6.984375 36.375 
Q 6.984375 53.65625 15.1875 63.9375 
Q 23.390625 74.21875 37.203125 74.21875 
Q 40.921875 74.21875 44.703125 73.484375 
Q 48.484375 72.75 52.59375 71.296875 
z
" id="DejaVuSans-54"/>
       </defs>
       <use xlink:href="#DejaVuSans-48"/>
       <use x="63.623047" xlink:href="#DejaVuSans-46"/>
       <use x="95.410156" xlink:href="#DejaVuSans-54"/>
      </g>
     </g>
    </g>
    <g id="xtick_5">
     <g id="line2d_5">
      <g>
       <use style="stroke:#000000;stroke-width:0.8;" x="330.158295" xlink:href="#mc384cc754c" y="276.436093"/>
      </g>
     </g>
     <g id="text_5">
      <!-- 0.8 -->
      <g transform="translate(322.206733 291.034531)scale(0.1 -0.1)">
       <defs>
        <path d="M 31.78125 34.625 
Q 24.75 34.625 20.71875 30.859375 
Q 16.703125 27.09375 16.703125 20.515625 
Q 16.703125 13.921875 20.71875 10.15625 
Q 24.75 6.390625 31.78125 6.390625 
Q 38.8125 6.390625 42.859375 10.171875 
Q 46.921875 13.96875 46.921875 20.515625 
Q 46.921875 27.09375 42.890625 30.859375 
Q 38.875 34.625 31.78125 34.625 
z
M 21.921875 38.8125 
Q 15.578125 40.375 12.03125 44.71875 
Q 8.5 49.078125 8.5 55.328125 
Q 8.5 64.0625 14.71875 69.140625 
Q 20.953125 74.21875 31.78125 74.21875 
Q 42.671875 74.21875 48.875 69.140625 
Q 55.078125 64.0625 55.078125 55.328125 
Q 55.078125 49.078125 51.53125 44.71875 
Q 48 40.375 41.703125 38.8125 
Q 48.828125 37.15625 52.796875 32.3125 
Q 56.78125 27.484375 56.78125 20.515625 
Q 56.78125 9.90625 50.3125 4.234375 
Q 43.84375 -1.421875 31.78125 -1.421875 
Q 19.734375 -1.421875 13.25 4.234375 
Q 6.78125 9.90625 6.78125 20.515625 
Q 6.78125 27.484375 10.78125 32.3125 
Q 14.796875 37.15625 21.921875 38.8125 
z
M 18.3125 54.390625 
Q 18.3125 48.734375 21.84375 45.5625 
Q 25.390625 42.390625 31.78125 42.390625 
Q 38.140625 42.390625 41.71875 45.5625 
Q 45.3125 48.734375 45.3125 54.390625 
Q 45.3125 60.0625 41.71875 63.234375 
Q 38.140625 66.40625 31.78125 66.40625 
Q 25.390625 66.40625 21.84375 63.234375 
Q 18.3125 60.0625 18.3125 54.390625 
z
" id="DejaVuSans-56"/>
       </defs>
       <use xlink:href="#DejaVuSans-48"/>
       <use x="63.623047" xlink:href="#DejaVuSans-46"/>
       <use x="95.410156" xlink:href="#DejaVuSans-56"/>
      </g>
     </g>
    </g>
    <g id="xtick_6">
     <g id="line2d_6">
      <g>
       <use style="stroke:#000000;stroke-width:0.8;" x="397.794659" xlink:href="#mc384cc754c" y="276.436093"/>
      </g>
     </g>
     <g id="text_6">
      <!-- 1.0 -->
      <g transform="translate(389.843097 291.034531)scale(0.1 -0.1)">
       <defs>
        <path d="M 12.40625 8.296875 
L 28.515625 8.296875 
L 28.515625 63.921875 
L 10.984375 60.40625 
L 10.984375 69.390625 
L 28.421875 72.90625 
L 38.28125 72.90625 
L 38.28125 8.296875 
L 54.390625 8.296875 
L 54.390625 0 
L 12.40625 0 
z
" id="DejaVuSans-49"/>
       </defs>
       <use xlink:href="#DejaVuSans-49"/>
       <use x="63.623047" xlink:href="#DejaVuSans-46"/>
       <use x="95.410156" xlink:href="#DejaVuSans-48"/>
      </g>
     </g>
    </g>
    <g id="text_7">
     <!-- cutoff -->
     <g transform="translate(214.245938 304.712656)scale(0.1 -0.1)">
      <defs>
       <path d="M 48.78125 52.59375 
L 48.78125 44.1875 
Q 44.96875 46.296875 41.140625 47.34375 
Q 37.3125 48.390625 33.40625 48.390625 
Q 24.65625 48.390625 19.8125 42.84375 
Q 14.984375 37.3125 14.984375 27.296875 
Q 14.984375 17.28125 19.8125 11.734375 
Q 24.65625 6.203125 33.40625 6.203125 
Q 37.3125 6.203125 41.140625 7.25 
Q 44.96875 8.296875 48.78125 10.40625 
L 48.78125 2.09375 
Q 45.015625 0.34375 40.984375 -0.53125 
Q 36.96875 -1.421875 32.421875 -1.421875 
Q 20.0625 -1.421875 12.78125 6.34375 
Q 5.515625 14.109375 5.515625 27.296875 
Q 5.515625 40.671875 12.859375 48.328125 
Q 20.21875 56 33.015625 56 
Q 37.15625 56 41.109375 55.140625 
Q 45.0625 54.296875 48.78125 52.59375 
z
" id="DejaVuSans-99"/>
       <path d="M 8.5 21.578125 
L 8.5 54.6875 
L 17.484375 54.6875 
L 17.484375 21.921875 
Q 17.484375 14.15625 20.5 10.265625 
Q 23.53125 6.390625 29.59375 6.390625 
Q 36.859375 6.390625 41.078125 11.03125 
Q 45.3125 15.671875 45.3125 23.6875 
L 45.3125 54.6875 
L 54.296875 54.6875 
L 54.296875 0 
L 45.3125 0 
L 45.3125 8.40625 
Q 42.046875 3.421875 37.71875 1 
Q 33.40625 -1.421875 27.6875 -1.421875 
Q 18.265625 -1.421875 13.375 4.4375 
Q 8.5 10.296875 8.5 21.578125 
z
M 31.109375 56 
z
" id="DejaVuSans-117"/>
       <path d="M 18.3125 70.21875 
L 18.3125 54.6875 
L 36.8125 54.6875 
L 36.8125 47.703125 
L 18.3125 47.703125 
L 18.3125 18.015625 
Q 18.3125 11.328125 20.140625 9.421875 
Q 21.96875 7.515625 27.59375 7.515625 
L 36.8125 7.515625 
L 36.8125 0 
L 27.59375 0 
Q 17.1875 0 13.234375 3.875 
Q 9.28125 7.765625 9.28125 18.015625 
L 9.28125 47.703125 
L 2.6875 47.703125 
L 2.6875 54.6875 
L 9.28125 54.6875 
L 9.28125 70.21875 
z
" id="DejaVuSans-116"/>
       <path d="M 30.609375 48.390625 
Q 23.390625 48.390625 19.1875 42.75 
Q 14.984375 37.109375 14.984375 27.296875 
Q 14.984375 17.484375 19.15625 11.84375 
Q 23.34375 6.203125 30.609375 6.203125 
Q 37.796875 6.203125 41.984375 11.859375 
Q 46.1875 17.53125 46.1875 27.296875 
Q 46.1875 37.015625 41.984375 42.703125 
Q 37.796875 48.390625 30.609375 48.390625 
z
M 30.609375 56 
Q 42.328125 56 49.015625 48.375 
Q 55.71875 40.765625 55.71875 27.296875 
Q 55.71875 13.875 49.015625 6.21875 
Q 42.328125 -1.421875 30.609375 -1.421875 
Q 18.84375 -1.421875 12.171875 6.21875 
Q 5.515625 13.875 5.515625 27.296875 
Q 5.515625 40.765625 12.171875 48.375 
Q 18.84375 56 30.609375 56 
z
" id="DejaVuSans-111"/>
       <path d="M 37.109375 75.984375 
L 37.109375 68.5 
L 28.515625 68.5 
Q 23.6875 68.5 21.796875 66.546875 
Q 19.921875 64.59375 19.921875 59.515625 
L 19.921875 54.6875 
L 34.71875 54.6875 
L 34.71875 47.703125 
L 19.921875 47.703125 
L 19.921875 0 
L 10.890625 0 
L 10.890625 47.703125 
L 2.296875 47.703125 
L 2.296875 54.6875 
L 10.890625 54.6875 
L 10.890625 58.5 
Q 10.890625 67.625 15.140625 71.796875 
Q 19.390625 75.984375 28.609375 75.984375 
z
" id="DejaVuSans-102"/>
      </defs>
      <use xlink:href="#DejaVuSans-99"/>
      <use x="54.980469" xlink:href="#DejaVuSans-117"/>
      <use x="118.359375" xlink:href="#DejaVuSans-116"/>
      <use x="157.568359" xlink:href="#DejaVuSans-111"/>
      <use x="218.75" xlink:href="#DejaVuSans-102"/>
      <use x="253.955078" xlink:href="#DejaVuSans-102"/>
     </g>
    </g>
   </g>
   <g id="matplotlib.axis_2">
    <g id="ytick_1">
     <g id="line2d_7">
      <defs>
       <path d="M 0 0 
L -3.5 0 
" id="mddb9d9fa2c" style="stroke:#000000;stroke-width:0.8;"/>
      </defs>
      <g>
       <use style="stroke:#000000;stroke-width:0.8;" x="50.14375" xlink:href="#mddb9d9fa2c" y="258.995349"/>
      </g>
     </g>
     <g id="text_8">
      <!-- 0.40 -->
      <g transform="translate(20.878125 262.794568)scale(0.1 -0.1)">
       <use xlink:href="#DejaVuSans-48"/>
       <use x="63.623047" xlink:href="#DejaVuSans-46"/>
       <use x="95.410156" xlink:href="#DejaVuSans-52"/>
       <use x="159.033203" xlink:href="#DejaVuSans-48"/>
      </g>
     </g>
    </g>
    <g id="ytick_2">
     <g id="line2d_8">
      <g>
       <use style="stroke:#000000;stroke-width:0.8;" x="50.14375" xlink:href="#mddb9d9fa2c" y="227.995833"/>
      </g>
     </g>
     <g id="text_9">
      <!-- 0.42 -->
      <g transform="translate(20.878125 231.795051)scale(0.1 -0.1)">
       <use xlink:href="#DejaVuSans-48"/>
       <use x="63.623047" xlink:href="#DejaVuSans-46"/>
       <use x="95.410156" xlink:href="#DejaVuSans-52"/>
       <use x="159.033203" xlink:href="#DejaVuSans-50"/>
      </g>
     </g>
    </g>
    <g id="ytick_3">
     <g id="line2d_9">
      <g>
       <use style="stroke:#000000;stroke-width:0.8;" x="50.14375" xlink:href="#mddb9d9fa2c" y="196.996316"/>
      </g>
     </g>
     <g id="text_10">
      <!-- 0.44 -->
      <g transform="translate(20.878125 200.795535)scale(0.1 -0.1)">
       <use xlink:href="#DejaVuSans-48"/>
       <use x="63.623047" xlink:href="#DejaVuSans-46"/>
       <use x="95.410156" xlink:href="#DejaVuSans-52"/>
       <use x="159.033203" xlink:href="#DejaVuSans-52"/>
      </g>
     </g>
    </g>
    <g id="ytick_4">
     <g id="line2d_10">
      <g>
       <use style="stroke:#000000;stroke-width:0.8;" x="50.14375" xlink:href="#mddb9d9fa2c" y="165.9968"/>
      </g>
     </g>
     <g id="text_11">
      <!-- 0.46 -->
      <g transform="translate(20.878125 169.796019)scale(0.1 -0.1)">
       <use xlink:href="#DejaVuSans-48"/>
       <use x="63.623047" xlink:href="#DejaVuSans-46"/>
       <use x="95.410156" xlink:href="#DejaVuSans-52"/>
       <use x="159.033203" xlink:href="#DejaVuSans-54"/>
      </g>
     </g>
    </g>
    <g id="ytick_5">
     <g id="line2d_11">
      <g>
       <use style="stroke:#000000;stroke-width:0.8;" x="50.14375" xlink:href="#mddb9d9fa2c" y="134.997284"/>
      </g>
     </g>
     <g id="text_12">
      <!-- 0.48 -->
      <g transform="translate(20.878125 138.796503)scale(0.1 -0.1)">
       <use xlink:href="#DejaVuSans-48"/>
       <use x="63.623047" xlink:href="#DejaVuSans-46"/>
       <use x="95.410156" xlink:href="#DejaVuSans-52"/>
       <use x="159.033203" xlink:href="#DejaVuSans-56"/>
      </g>
     </g>
    </g>
    <g id="ytick_6">
     <g id="line2d_12">
      <g>
       <use style="stroke:#000000;stroke-width:0.8;" x="50.14375" xlink:href="#mddb9d9fa2c" y="103.997768"/>
      </g>
     </g>
     <g id="text_13">
      <!-- 0.50 -->
      <g transform="translate(20.878125 107.796986)scale(0.1 -0.1)">
       <defs>
        <path d="M 10.796875 72.90625 
L 49.515625 72.90625 
L 49.515625 64.59375 
L 19.828125 64.59375 
L 19.828125 46.734375 
Q 21.96875 47.46875 24.109375 47.828125 
Q 26.265625 48.1875 28.421875 48.1875 
Q 40.625 48.1875 47.75 41.5 
Q 54.890625 34.8125 54.890625 23.390625 
Q 54.890625 11.625 47.5625 5.09375 
Q 40.234375 -1.421875 26.90625 -1.421875 
Q 22.3125 -1.421875 17.546875 -0.640625 
Q 12.796875 0.140625 7.71875 1.703125 
L 7.71875 11.625 
Q 12.109375 9.234375 16.796875 8.0625 
Q 21.484375 6.890625 26.703125 6.890625 
Q 35.15625 6.890625 40.078125 11.328125 
Q 45.015625 15.765625 45.015625 23.390625 
Q 45.015625 31 40.078125 35.4375 
Q 35.15625 39.890625 26.703125 39.890625 
Q 22.75 39.890625 18.8125 39.015625 
Q 14.890625 38.140625 10.796875 36.28125 
z
" id="DejaVuSans-53"/>
       </defs>
       <use xlink:href="#DejaVuSans-48"/>
       <use x="63.623047" xlink:href="#DejaVuSans-46"/>
       <use x="95.410156" xlink:href="#DejaVuSans-53"/>
       <use x="159.033203" xlink:href="#DejaVuSans-48"/>
      </g>
     </g>
    </g>
    <g id="ytick_7">
     <g id="line2d_13">
      <g>
       <use style="stroke:#000000;stroke-width:0.8;" x="50.14375" xlink:href="#mddb9d9fa2c" y="72.998251"/>
      </g>
     </g>
     <g id="text_14">
      <!-- 0.52 -->
      <g transform="translate(20.878125 76.79747)scale(0.1 -0.1)">
       <use xlink:href="#DejaVuSans-48"/>
       <use x="63.623047" xlink:href="#DejaVuSans-46"/>
       <use x="95.410156" xlink:href="#DejaVuSans-53"/>
       <use x="159.033203" xlink:href="#DejaVuSans-50"/>
      </g>
     </g>
    </g>
    <g id="ytick_8">
     <g id="line2d_14">
      <g>
       <use style="stroke:#000000;stroke-width:0.8;" x="50.14375" xlink:href="#mddb9d9fa2c" y="41.998735"/>
      </g>
     </g>
     <g id="text_15">
      <!-- 0.54 -->
      <g transform="translate(20.878125 45.797954)scale(0.1 -0.1)">
       <use xlink:href="#DejaVuSans-48"/>
       <use x="63.623047" xlink:href="#DejaVuSans-46"/>
       <use x="95.410156" xlink:href="#DejaVuSans-53"/>
       <use x="159.033203" xlink:href="#DejaVuSans-52"/>
      </g>
     </g>
    </g>
    <g id="ytick_9">
     <g id="line2d_15">
      <g>
       <use style="stroke:#000000;stroke-width:0.8;" x="50.14375" xlink:href="#mddb9d9fa2c" y="10.999219"/>
      </g>
     </g>
     <g id="text_16">
      <!-- 0.56 -->
      <g transform="translate(20.878125 14.798438)scale(0.1 -0.1)">
       <use xlink:href="#DejaVuSans-48"/>
       <use x="63.623047" xlink:href="#DejaVuSans-46"/>
       <use x="95.410156" xlink:href="#DejaVuSans-53"/>
       <use x="159.033203" xlink:href="#DejaVuSans-54"/>
      </g>
     </g>
    </g>
    <g id="text_17">
     <!-- performance -->
     <g transform="translate(14.798438 175.402749)rotate(-90)scale(0.1 -0.1)">
      <defs>
       <path d="M 18.109375 8.203125 
L 18.109375 -20.796875 
L 9.078125 -20.796875 
L 9.078125 54.6875 
L 18.109375 54.6875 
L 18.109375 46.390625 
Q 20.953125 51.265625 25.265625 53.625 
Q 29.59375 56 35.59375 56 
Q 45.5625 56 51.78125 48.09375 
Q 58.015625 40.1875 58.015625 27.296875 
Q 58.015625 14.40625 51.78125 6.484375 
Q 45.5625 -1.421875 35.59375 -1.421875 
Q 29.59375 -1.421875 25.265625 0.953125 
Q 20.953125 3.328125 18.109375 8.203125 
z
M 48.6875 27.296875 
Q 48.6875 37.203125 44.609375 42.84375 
Q 40.53125 48.484375 33.40625 48.484375 
Q 26.265625 48.484375 22.1875 42.84375 
Q 18.109375 37.203125 18.109375 27.296875 
Q 18.109375 17.390625 22.1875 11.75 
Q 26.265625 6.109375 33.40625 6.109375 
Q 40.53125 6.109375 44.609375 11.75 
Q 48.6875 17.390625 48.6875 27.296875 
z
" id="DejaVuSans-112"/>
       <path d="M 56.203125 29.59375 
L 56.203125 25.203125 
L 14.890625 25.203125 
Q 15.484375 15.921875 20.484375 11.0625 
Q 25.484375 6.203125 34.421875 6.203125 
Q 39.59375 6.203125 44.453125 7.46875 
Q 49.3125 8.734375 54.109375 11.28125 
L 54.109375 2.78125 
Q 49.265625 0.734375 44.1875 -0.34375 
Q 39.109375 -1.421875 33.890625 -1.421875 
Q 20.796875 -1.421875 13.15625 6.1875 
Q 5.515625 13.8125 5.515625 26.8125 
Q 5.515625 40.234375 12.765625 48.109375 
Q 20.015625 56 32.328125 56 
Q 43.359375 56 49.78125 48.890625 
Q 56.203125 41.796875 56.203125 29.59375 
z
M 47.21875 32.234375 
Q 47.125 39.59375 43.09375 43.984375 
Q 39.0625 48.390625 32.421875 48.390625 
Q 24.90625 48.390625 20.390625 44.140625 
Q 15.875 39.890625 15.1875 32.171875 
z
" id="DejaVuSans-101"/>
       <path d="M 41.109375 46.296875 
Q 39.59375 47.171875 37.8125 47.578125 
Q 36.03125 48 33.890625 48 
Q 26.265625 48 22.1875 43.046875 
Q 18.109375 38.09375 18.109375 28.8125 
L 18.109375 0 
L 9.078125 0 
L 9.078125 54.6875 
L 18.109375 54.6875 
L 18.109375 46.1875 
Q 20.953125 51.171875 25.484375 53.578125 
Q 30.03125 56 36.53125 56 
Q 37.453125 56 38.578125 55.875 
Q 39.703125 55.765625 41.0625 55.515625 
z
" id="DejaVuSans-114"/>
       <path d="M 52 44.1875 
Q 55.375 50.25 60.0625 53.125 
Q 64.75 56 71.09375 56 
Q 79.640625 56 84.28125 50.015625 
Q 88.921875 44.046875 88.921875 33.015625 
L 88.921875 0 
L 79.890625 0 
L 79.890625 32.71875 
Q 79.890625 40.578125 77.09375 44.375 
Q 74.3125 48.1875 68.609375 48.1875 
Q 61.625 48.1875 57.5625 43.546875 
Q 53.515625 38.921875 53.515625 30.90625 
L 53.515625 0 
L 44.484375 0 
L 44.484375 32.71875 
Q 44.484375 40.625 41.703125 44.40625 
Q 38.921875 48.1875 33.109375 48.1875 
Q 26.21875 48.1875 22.15625 43.53125 
Q 18.109375 38.875 18.109375 30.90625 
L 18.109375 0 
L 9.078125 0 
L 9.078125 54.6875 
L 18.109375 54.6875 
L 18.109375 46.1875 
Q 21.1875 51.21875 25.484375 53.609375 
Q 29.78125 56 35.6875 56 
Q 41.65625 56 45.828125 52.96875 
Q 50 49.953125 52 44.1875 
z
" id="DejaVuSans-109"/>
       <path d="M 34.28125 27.484375 
Q 23.390625 27.484375 19.1875 25 
Q 14.984375 22.515625 14.984375 16.5 
Q 14.984375 11.71875 18.140625 8.90625 
Q 21.296875 6.109375 26.703125 6.109375 
Q 34.1875 6.109375 38.703125 11.40625 
Q 43.21875 16.703125 43.21875 25.484375 
L 43.21875 27.484375 
z
M 52.203125 31.203125 
L 52.203125 0 
L 43.21875 0 
L 43.21875 8.296875 
Q 40.140625 3.328125 35.546875 0.953125 
Q 30.953125 -1.421875 24.3125 -1.421875 
Q 15.921875 -1.421875 10.953125 3.296875 
Q 6 8.015625 6 15.921875 
Q 6 25.140625 12.171875 29.828125 
Q 18.359375 34.515625 30.609375 34.515625 
L 43.21875 34.515625 
L 43.21875 35.40625 
Q 43.21875 41.609375 39.140625 45 
Q 35.0625 48.390625 27.6875 48.390625 
Q 23 48.390625 18.546875 47.265625 
Q 14.109375 46.140625 10.015625 43.890625 
L 10.015625 52.203125 
Q 14.9375 54.109375 19.578125 55.046875 
Q 24.21875 56 28.609375 56 
Q 40.484375 56 46.34375 49.84375 
Q 52.203125 43.703125 52.203125 31.203125 
z
" id="DejaVuSans-97"/>
       <path d="M 54.890625 33.015625 
L 54.890625 0 
L 45.90625 0 
L 45.90625 32.71875 
Q 45.90625 40.484375 42.875 44.328125 
Q 39.84375 48.1875 33.796875 48.1875 
Q 26.515625 48.1875 22.3125 43.546875 
Q 18.109375 38.921875 18.109375 30.90625 
L 18.109375 0 
L 9.078125 0 
L 9.078125 54.6875 
L 18.109375 54.6875 
L 18.109375 46.1875 
Q 21.34375 51.125 25.703125 53.5625 
Q 30.078125 56 35.796875 56 
Q 45.21875 56 50.046875 50.171875 
Q 54.890625 44.34375 54.890625 33.015625 
z
" id="DejaVuSans-110"/>
      </defs>
      <use xlink:href="#DejaVuSans-112"/>
      <use x="63.476562" xlink:href="#DejaVuSans-101"/>
      <use x="125" xlink:href="#DejaVuSans-114"/>
      <use x="166.113281" xlink:href="#DejaVuSans-102"/>
      <use x="201.318359" xlink:href="#DejaVuSans-111"/>
      <use x="262.5" xlink:href="#DejaVuSans-114"/>
      <use x="301.863281" xlink:href="#DejaVuSans-109"/>
      <use x="399.275391" xlink:href="#DejaVuSans-97"/>
      <use x="460.554688" xlink:href="#DejaVuSans-110"/>
      <use x="523.933594" xlink:href="#DejaVuSans-99"/>
      <use x="578.914062" xlink:href="#DejaVuSans-101"/>
     </g>
    </g>
   </g>
   <g id="line2d_16">
    <path clip-path="url(#p83269cf74a)" d="M 66.376477 82.470326 
L 73.140114 72.148949 
L 79.90375 52.331907 
L 86.667386 52.331907 
L 93.431023 42.814512 
L 100.194659 72.148949 
L 106.958295 62.106529 
L 113.721932 62.106529 
L 120.485568 62.106529 
L 127.249205 62.106529 
L 134.012841 103.997768 
L 140.776477 103.997768 
L 147.540114 138.698719 
L 154.30375 138.698719 
L 161.067386 72.148949 
L 167.831023 103.997768 
L 174.594659 103.997768 
L 181.358295 103.997768 
L 188.121932 138.698719 
L 194.885568 103.997768 
L 201.649205 176.652884 
L 208.412841 176.652884 
L 215.176477 176.652884 
L 221.940114 176.652884 
L 228.70375 163.612222 
L 235.467386 138.698719 
L 242.231023 138.698719 
L 248.994659 138.698719 
L 255.758295 138.698719 
L 262.521932 138.698719 
L 269.285568 138.698719 
L 276.049205 138.698719 
L 282.812841 138.698719 
L 289.576477 138.698719 
L 296.340114 138.698719 
L 303.10375 138.698719 
L 309.867386 138.698719 
L 316.631023 138.698719 
L 323.394659 138.698719 
L 330.158295 138.698719 
L 336.921932 138.698719 
L 343.685568 138.698719 
L 350.449205 138.698719 
L 357.212841 138.698719 
L 363.976477 138.698719 
L 370.740114 138.698719 
L 377.50375 138.698719 
L 384.267386 138.698719 
L 391.031023 138.698719 
" style="fill:none;stroke:#f26b38;stroke-dasharray:7.4,3.2;stroke-dashoffset:0;stroke-width:2;"/>
   </g>
   <g id="line2d_17">
    <path clip-path="url(#p83269cf74a)" d="M 66.376477 176.652884 
L 73.140114 150.966732 
L 79.90375 150.966732 
L 86.667386 150.966732 
L 93.431023 150.966732 
L 100.194659 190.107535 
L 106.958295 190.107535 
L 113.721932 190.107535 
L 120.485568 190.107535 
L 127.249205 150.966732 
L 134.012841 138.698719 
L 140.776477 264.340093 
L 147.540114 264.340093 
L 154.30375 264.340093 
L 161.067386 264.340093 
L 167.831023 248.487038 
L 174.594659 218.340246 
L 181.358295 218.340246 
L 188.121932 218.340246 
L 194.885568 218.340246 
L 201.649205 218.340246 
L 208.412841 218.340246 
L 215.176477 218.340246 
L 221.940114 218.340246 
L 228.70375 218.340246 
L 235.467386 218.340246 
L 242.231023 218.340246 
L 248.994659 218.340246 
L 255.758295 218.340246 
L 262.521932 218.340246 
L 269.285568 218.340246 
L 276.049205 218.340246 
L 282.812841 218.340246 
L 289.576477 218.340246 
L 296.340114 218.340246 
L 303.10375 218.340246 
L 309.867386 218.340246 
L 316.631023 218.340246 
L 323.394659 218.340246 
L 330.158295 218.340246 
L 336.921932 218.340246 
L 343.685568 218.340246 
L 350.449205 218.340246 
L 357.212841 218.340246 
L 363.976477 218.340246 
L 370.740114 218.340246 
L 377.50375 218.340246 
L 384.267386 218.340246 
L 391.031023 218.340246 
" style="fill:none;stroke:#2f9599;stroke-dasharray:2,3.3;stroke-dashoffset:0;stroke-width:2;"/>
   </g>
   <g id="line2d_18">
    <path clip-path="url(#p83269cf74a)" d="M 66.376477 50.916404 
L 73.140114 50.916404 
L 79.90375 50.916404 
L 86.667386 50.916404 
L 93.431023 50.916404 
L 100.194659 60.942884 
L 106.958295 50.916404 
L 113.721932 50.916404 
L 120.485568 50.916404 
L 127.249205 22.420093 
L 134.012841 22.420093 
L 140.776477 31.665563 
L 147.540114 31.665563 
L 154.30375 31.665563 
L 161.067386 22.420093 
L 167.831023 50.916404 
L 174.594659 50.916404 
L 181.358295 41.16091 
L 188.121932 41.16091 
L 194.885568 41.16091 
L 201.649205 41.16091 
L 208.412841 41.16091 
L 215.176477 41.16091 
L 221.940114 41.16091 
L 228.70375 41.16091 
L 235.467386 41.16091 
L 242.231023 41.16091 
L 248.994659 50.916404 
L 255.758295 41.16091 
L 262.521932 71.2518 
L 269.285568 71.2518 
L 276.049205 71.2518 
L 282.812841 71.2518 
L 289.576477 71.2518 
L 296.340114 71.2518 
L 303.10375 71.2518 
L 309.867386 71.2518 
L 316.631023 71.2518 
L 323.394659 71.2518 
L 330.158295 71.2518 
L 336.921932 71.2518 
L 343.685568 71.2518 
L 350.449205 71.2518 
L 357.212841 71.2518 
L 363.976477 71.2518 
L 370.740114 71.2518 
L 377.50375 71.2518 
L 384.267386 71.2518 
L 391.031023 71.2518 
" style="fill:none;stroke:#a7226e;stroke-dasharray:12.8,3.2,2,3.2;stroke-dashoffset:0;stroke-width:2;"/>
   </g>
   <g id="patch_3">
    <path d="M 50.14375 276.436093 
L 50.14375 10.324093 
" style="fill:none;stroke:#000000;stroke-linecap:square;stroke-linejoin:miter;stroke-width:0.8;"/>
   </g>
   <g id="patch_4">
    <path d="M 407.26375 276.436093 
L 407.26375 10.324093 
" style="fill:none;stroke:#000000;stroke-linecap:square;stroke-linejoin:miter;stroke-width:0.8;"/>
   </g>
   <g id="patch_5">
    <path d="M 50.14375 276.436093 
L 407.26375 276.436093 
" style="fill:none;stroke:#000000;stroke-linecap:square;stroke-linejoin:miter;stroke-width:0.8;"/>
   </g>
   <g id="patch_6">
    <path d="M 50.14375 10.324093 
L 407.26375 10.324093 
" style="fill:none;stroke:#000000;stroke-linecap:square;stroke-linejoin:miter;stroke-width:0.8;"/>
   </g>
   <g id="legend_1">
    <g id="patch_7">
     <path d="M 321.790059 47.015006 
L 402.40575 47.015006 
Q 403.79375 47.015006 403.79375 45.627006 
L 403.79375 15.182093 
Q 403.79375 13.794093 402.40575 13.794093 
L 321.790059 13.794093 
Q 320.402059 13.794093 320.402059 15.182093 
L 320.402059 45.627006 
Q 320.402059 47.015006 321.790059 47.015006 
z
" style="fill:#ffffff;opacity:0.8;stroke:#cccccc;stroke-linejoin:miter;"/>
    </g>
    <g id="PathCollection_5">
     <defs>
      <path d="M 0 3 
C 0.795609 3 1.55874 2.683901 2.12132 2.12132 
C 2.683901 1.55874 3 0.795609 3 0 
C 3 -0.795609 2.683901 -1.55874 2.12132 -2.12132 
C 1.55874 -2.683901 0.795609 -3 0 -3 
C -0.795609 -3 -1.55874 -2.683901 -2.12132 -2.12132 
C -2.683901 -1.55874 -3 -0.795609 -3 0 
C -3 0.795609 -2.683901 1.55874 -2.12132 2.12132 
C -1.55874 2.683901 -0.795609 3 0 3 
z
" id="m90e20d71d3" style="stroke:#f26b38;"/>
     </defs>
     <g>
      <use style="fill:#f26b38;stroke:#f26b38;" x="330.118059" xlink:href="#m90e20d71d3" y="20.021659"/>
     </g>
    </g>
    <g id="text_18">
     <!-- mean_err -->
     <g transform="translate(342.610059 21.843409)scale(0.0694 -0.0694)">
      <defs>
       <path d="M 50.984375 -16.609375 
L 50.984375 -23.578125 
L -0.984375 -23.578125 
L -0.984375 -16.609375 
z
" id="DejaVuSans-95"/>
      </defs>
      <use xlink:href="#DejaVuSans-109"/>
      <use x="97.412109" xlink:href="#DejaVuSans-101"/>
      <use x="158.935547" xlink:href="#DejaVuSans-97"/>
      <use x="220.214844" xlink:href="#DejaVuSans-110"/>
      <use x="283.59375" xlink:href="#DejaVuSans-95"/>
      <use x="333.59375" xlink:href="#DejaVuSans-101"/>
      <use x="395.117188" xlink:href="#DejaVuSans-114"/>
      <use x="434.480469" xlink:href="#DejaVuSans-114"/>
     </g>
    </g>
    <g id="PathCollection_6">
     <defs>
      <path d="M -1.5 3 
L 0 1.5 
L 1.5 3 
L 3 1.5 
L 1.5 0 
L 3 -1.5 
L 1.5 -3 
L 0 -1.5 
L -1.5 -3 
L -3 -1.5 
L -1.5 0 
L -3 1.5 
z
" id="mb54f7a27a8" style="stroke:#2f9599;"/>
     </defs>
     <g>
      <use style="fill:#2f9599;stroke:#2f9599;" x="330.118059" xlink:href="#mb54f7a27a8" y="30.401296"/>
     </g>
    </g>
    <g id="text_19">
     <!-- mean_sq_err -->
     <g transform="translate(342.610059 32.223046)scale(0.0694 -0.0694)">
      <defs>
       <path d="M 44.28125 53.078125 
L 44.28125 44.578125 
Q 40.484375 46.53125 36.375 47.5 
Q 32.28125 48.484375 27.875 48.484375 
Q 21.1875 48.484375 17.84375 46.4375 
Q 14.5 44.390625 14.5 40.28125 
Q 14.5 37.15625 16.890625 35.375 
Q 19.28125 33.59375 26.515625 31.984375 
L 29.59375 31.296875 
Q 39.15625 29.25 43.1875 25.515625 
Q 47.21875 21.78125 47.21875 15.09375 
Q 47.21875 7.46875 41.1875 3.015625 
Q 35.15625 -1.421875 24.609375 -1.421875 
Q 20.21875 -1.421875 15.453125 -0.5625 
Q 10.6875 0.296875 5.421875 2 
L 5.421875 11.28125 
Q 10.40625 8.6875 15.234375 7.390625 
Q 20.0625 6.109375 24.8125 6.109375 
Q 31.15625 6.109375 34.5625 8.28125 
Q 37.984375 10.453125 37.984375 14.40625 
Q 37.984375 18.0625 35.515625 20.015625 
Q 33.0625 21.96875 24.703125 23.78125 
L 21.578125 24.515625 
Q 13.234375 26.265625 9.515625 29.90625 
Q 5.8125 33.546875 5.8125 39.890625 
Q 5.8125 47.609375 11.28125 51.796875 
Q 16.75 56 26.8125 56 
Q 31.78125 56 36.171875 55.265625 
Q 40.578125 54.546875 44.28125 53.078125 
z
" id="DejaVuSans-115"/>
       <path d="M 14.796875 27.296875 
Q 14.796875 17.390625 18.875 11.75 
Q 22.953125 6.109375 30.078125 6.109375 
Q 37.203125 6.109375 41.296875 11.75 
Q 45.40625 17.390625 45.40625 27.296875 
Q 45.40625 37.203125 41.296875 42.84375 
Q 37.203125 48.484375 30.078125 48.484375 
Q 22.953125 48.484375 18.875 42.84375 
Q 14.796875 37.203125 14.796875 27.296875 
z
M 45.40625 8.203125 
Q 42.578125 3.328125 38.25 0.953125 
Q 33.9375 -1.421875 27.875 -1.421875 
Q 17.96875 -1.421875 11.734375 6.484375 
Q 5.515625 14.40625 5.515625 27.296875 
Q 5.515625 40.1875 11.734375 48.09375 
Q 17.96875 56 27.875 56 
Q 33.9375 56 38.25 53.625 
Q 42.578125 51.265625 45.40625 46.390625 
L 45.40625 54.6875 
L 54.390625 54.6875 
L 54.390625 -20.796875 
L 45.40625 -20.796875 
z
" id="DejaVuSans-113"/>
      </defs>
      <use xlink:href="#DejaVuSans-109"/>
      <use x="97.412109" xlink:href="#DejaVuSans-101"/>
      <use x="158.935547" xlink:href="#DejaVuSans-97"/>
      <use x="220.214844" xlink:href="#DejaVuSans-110"/>
      <use x="283.59375" xlink:href="#DejaVuSans-95"/>
      <use x="333.59375" xlink:href="#DejaVuSans-115"/>
      <use x="385.693359" xlink:href="#DejaVuSans-113"/>
      <use x="449.169922" xlink:href="#DejaVuSans-95"/>
      <use x="499.169922" xlink:href="#DejaVuSans-101"/>
      <use x="560.693359" xlink:href="#DejaVuSans-114"/>
      <use x="600.056641" xlink:href="#DejaVuSans-114"/>
     </g>
    </g>
    <g id="PathCollection_7">
     <defs>
      <path d="M -2.12132 -2.12132 
L -2.12132 2.12132 
L 2.12132 2.12132 
L 2.12132 -2.12132 
z
" id="m909fa2f080" style="stroke:#a7226e;"/>
     </defs>
     <g>
      <use style="fill:#a7226e;stroke:#a7226e;" x="330.118059" xlink:href="#m909fa2f080" y="40.780934"/>
     </g>
    </g>
    <g id="text_20">
     <!-- mean_sqroot_err -->
     <g transform="translate(342.610059 42.602684)scale(0.0694 -0.0694)">
      <use xlink:href="#DejaVuSans-109"/>
      <use x="97.412109" xlink:href="#DejaVuSans-101"/>
      <use x="158.935547" xlink:href="#DejaVuSans-97"/>
      <use x="220.214844" xlink:href="#DejaVuSans-110"/>
      <use x="283.59375" xlink:href="#DejaVuSans-95"/>
      <use x="333.59375" xlink:href="#DejaVuSans-115"/>
      <use x="385.693359" xlink:href="#DejaVuSans-113"/>
      <use x="449.169922" xlink:href="#DejaVuSans-114"/>
      <use x="488.033203" xlink:href="#DejaVuSans-111"/>
      <use x="549.214844" xlink:href="#DejaVuSans-111"/>
      <use x="610.396484" xlink:href="#DejaVuSans-116"/>
      <use x="649.605469" xlink:href="#DejaVuSans-95"/>
      <use x="699.605469" xlink:href="#DejaVuSans-101"/>
      <use x="761.128906" xlink:href="#DejaVuSans-114"/>
      <use x="800.492188" xlink:href="#DejaVuSans-114"/>
     </g>
    </g>
   </g>
  </g>
 </g>
 <defs>
  <clipPath id="p83269cf74a">
   <rect height="266.112" width="357.12" x="50.14375" y="10.324093"/>
  </clipPath>
 </defs>
</svg>
