<?xml version="1.0" encoding="utf-8" standalone="no"?>
<!DOCTYPE svg PUBLIC "-//W3C//DTD SVG 1.1//EN"
  "http://www.w3.org/Graphics/SVG/1.1/DTD/svg11.dtd">
<!-- Created with matplotlib (https://matplotlib.org/) -->
<svg height="310.86825pt" version="1.1" viewBox="0 0 414.46375 310.86825" width="414.46375pt" xmlns="http://www.w3.org/2000/svg" xmlns:xlink="http://www.w3.org/1999/xlink">
 <metadata>
  <rdf:RDF xmlns:cc="http://creativecommons.org/ns#" xmlns:dc="http://purl.org/dc/elements/1.1/" xmlns:rdf="http://www.w3.org/1999/02/22-rdf-syntax-ns#">
   <cc:Work>
    <dc:type rdf:resource="http://purl.org/dc/dcmitype/StillImage"/>
    <dc:date>2022-05-12T14:15:57.349485</dc:date>
    <dc:format>image/svg+xml</dc:format>
    <dc:creator>
     <cc:Agent>
      <dc:title>Matplotlib v3.3.4, https://matplotlib.org/</dc:title>
     </cc:Agent>
    </dc:creator>
   </cc:Work>
  </rdf:RDF>
 </metadata>
 <defs>
  <style type="text/css">*{stroke-linecap:butt;stroke-linejoin:round;}</style>
 </defs>
 <g id="figure_1">
  <g id="patch_1">
   <path d="M 0 310.86825 
L 414.46375 310.86825 
L 414.46375 0 
L 0 0 
z
" style="fill:#ffffff;"/>
  </g>
  <g id="axes_1">
   <g id="patch_2">
    <path d="M 50.14375 273.312 
L 407.26375 273.312 
L 407.26375 7.2 
L 50.14375 7.2 
z
" style="fill:#ffffff;"/>
   </g>
   <g id="PathCollection_1">
    <path clip-path="url(#pfb626f5644)" d="M 66.376477 22.296 
C 67.172087 22.296 67.935217 21.979901 68.497798 21.41732 
C 69.060378 20.85474 69.376477 20.091609 69.376477 19.296 
C 69.376477 18.500391 69.060378 17.73726 68.497798 17.17468 
C 67.935217 16.612099 67.172087 16.296 66.376477 16.296 
C 65.580868 16.296 64.817738 16.612099 64.255157 17.17468 
C 63.692576 17.73726 63.376477 18.500391 63.376477 19.296 
C 63.376477 20.091609 63.692576 20.85474 64.255157 21.41732 
C 64.817738 21.979901 65.580868 22.296 66.376477 22.296 
z
" style="fill:#f26b38;stroke:#ffffff;stroke-width:0.48;"/>
    <path clip-path="url(#pfb626f5644)" d="M 73.140114 33.863213 
C 73.935723 33.863213 74.698853 33.547114 75.261434 32.984533 
C 75.824015 32.421953 76.140114 31.658822 76.140114 30.863213 
C 76.140114 30.067604 75.824015 29.304474 75.261434 28.741893 
C 74.698853 28.179312 73.935723 27.863213 73.140114 27.863213 
C 72.344504 27.863213 71.581374 28.179312 71.018793 28.741893 
C 70.456213 29.304474 70.140114 30.067604 70.140114 30.863213 
C 70.140114 31.658822 70.456213 32.421953 71.018793 32.984533 
C 71.581374 33.547114 72.344504 33.863213 73.140114 33.863213 
z
" style="fill:#f26b38;stroke:#ffffff;stroke-width:0.48;"/>
    <path clip-path="url(#pfb626f5644)" d="M 79.90375 33.863213 
C 80.699359 33.863213 81.46249 33.547114 82.02507 32.984533 
C 82.587651 32.421953 82.90375 31.658822 82.90375 30.863213 
C 82.90375 30.067604 82.587651 29.304474 82.02507 28.741893 
C 81.46249 28.179312 80.699359 27.863213 79.90375 27.863213 
C 79.108141 27.863213 78.34501 28.179312 77.78243 28.741893 
C 77.219849 29.304474 76.90375 30.067604 76.90375 30.863213 
C 76.90375 31.658822 77.219849 32.421953 77.78243 32.984533 
C 78.34501 33.547114 79.108141 33.863213 79.90375 33.863213 
z
" style="fill:#f26b38;stroke:#ffffff;stroke-width:0.48;"/>
    <path clip-path="url(#pfb626f5644)" d="M 86.667386 33.863213 
C 87.462996 33.863213 88.226126 33.547114 88.788707 32.984533 
C 89.351287 32.421953 89.667386 31.658822 89.667386 30.863213 
C 89.667386 30.067604 89.351287 29.304474 88.788707 28.741893 
C 88.226126 28.179312 87.462996 27.863213 86.667386 27.863213 
C 85.871777 27.863213 85.108647 28.179312 84.546066 28.741893 
C 83.983485 29.304474 83.667386 30.067604 83.667386 30.863213 
C 83.667386 31.658822 83.983485 32.421953 84.546066 32.984533 
C 85.108647 33.547114 85.871777 33.863213 86.667386 33.863213 
z
" style="fill:#f26b38;stroke:#ffffff;stroke-width:0.48;"/>
    <path clip-path="url(#pfb626f5644)" d="M 93.431023 22.296 
C 94.226632 22.296 94.989762 21.979901 95.552343 21.41732 
C 96.114924 20.85474 96.431023 20.091609 96.431023 19.296 
C 96.431023 18.500391 96.114924 17.73726 95.552343 17.17468 
C 94.989762 16.612099 94.226632 16.296 93.431023 16.296 
C 92.635413 16.296 91.872283 16.612099 91.309702 17.17468 
C 90.747122 17.73726 90.431023 18.500391 90.431023 19.296 
C 90.431023 20.091609 90.747122 20.85474 91.309702 21.41732 
C 91.872283 21.979901 92.635413 22.296 93.431023 22.296 
z
" style="fill:#f26b38;stroke:#ffffff;stroke-width:0.48;"/>
    <path clip-path="url(#pfb626f5644)" d="M 100.194659 33.863213 
C 100.990268 33.863213 101.753399 33.547114 102.315979 32.984533 
C 102.87856 32.421953 103.194659 31.658822 103.194659 30.863213 
C 103.194659 30.067604 102.87856 29.304474 102.315979 28.741893 
C 101.753399 28.179312 100.990268 27.863213 100.194659 27.863213 
C 99.39905 27.863213 98.635919 28.179312 98.073339 28.741893 
C 97.510758 29.304474 97.194659 30.067604 97.194659 30.863213 
C 97.194659 31.658822 97.510758 32.421953 98.073339 32.984533 
C 98.635919 33.547114 99.39905 33.863213 100.194659 33.863213 
z
" style="fill:#f26b38;stroke:#ffffff;stroke-width:0.48;"/>
    <path clip-path="url(#pfb626f5644)" d="M 106.958295 45.62162 
C 107.753905 45.62162 108.517035 45.305521 109.079616 44.74294 
C 109.642197 44.180359 109.958295 43.417229 109.958295 42.62162 
C 109.958295 41.826011 109.642197 41.06288 109.079616 40.500299 
C 108.517035 39.937719 107.753905 39.62162 106.958295 39.62162 
C 106.162686 39.62162 105.399556 39.937719 104.836975 40.500299 
C 104.274394 41.06288 103.958295 41.826011 103.958295 42.62162 
C 103.958295 43.417229 104.274394 44.180359 104.836975 44.74294 
C 105.399556 45.305521 106.162686 45.62162 106.958295 45.62162 
z
" style="fill:#f26b38;stroke:#ffffff;stroke-width:0.48;"/>
    <path clip-path="url(#pfb626f5644)" d="M 113.721932 45.62162 
C 114.517541 45.62162 115.280671 45.305521 115.843252 44.74294 
C 116.405833 44.180359 116.721932 43.417229 116.721932 42.62162 
C 116.721932 41.826011 116.405833 41.06288 115.843252 40.500299 
C 115.280671 39.937719 114.517541 39.62162 113.721932 39.62162 
C 112.926323 39.62162 112.163192 39.937719 111.600611 40.500299 
C 111.038031 41.06288 110.721932 41.826011 110.721932 42.62162 
C 110.721932 43.417229 111.038031 44.180359 111.600611 44.74294 
C 112.163192 45.305521 112.926323 45.62162 113.721932 45.62162 
z
" style="fill:#f26b38;stroke:#ffffff;stroke-width:0.48;"/>
    <path clip-path="url(#pfb626f5644)" d="M 120.485568 45.62162 
C 121.281177 45.62162 122.044308 45.305521 122.606889 44.74294 
C 123.169469 44.180359 123.485568 43.417229 123.485568 42.62162 
C 123.485568 41.826011 123.169469 41.06288 122.606889 40.500299 
C 122.044308 39.937719 121.281177 39.62162 120.485568 39.62162 
C 119.689959 39.62162 118.926829 39.937719 118.364248 40.500299 
C 117.801667 41.06288 117.485568 41.826011 117.485568 42.62162 
C 117.485568 43.417229 117.801667 44.180359 118.364248 44.74294 
C 118.926829 45.305521 119.689959 45.62162 120.485568 45.62162 
z
" style="fill:#f26b38;stroke:#ffffff;stroke-width:0.48;"/>
    <path clip-path="url(#pfb626f5644)" d="M 127.249205 45.62162 
C 128.044814 45.62162 128.807944 45.305521 129.370525 44.74294 
C 129.933106 44.180359 130.249205 43.417229 130.249205 42.62162 
C 130.249205 41.826011 129.933106 41.06288 129.370525 40.500299 
C 128.807944 39.937719 128.044814 39.62162 127.249205 39.62162 
C 126.453595 39.62162 125.690465 39.937719 125.127884 40.500299 
C 124.565303 41.06288 124.249205 41.826011 124.249205 42.62162 
C 124.249205 43.417229 124.565303 44.180359 125.127884 44.74294 
C 125.690465 45.305521 126.453595 45.62162 127.249205 45.62162 
z
" style="fill:#f26b38;stroke:#ffffff;stroke-width:0.48;"/>
    <path clip-path="url(#pfb626f5644)" d="M 134.012841 120.466435 
C 134.80845 120.466435 135.571581 120.150336 136.134161 119.587755 
C 136.696742 119.025174 137.012841 118.262044 137.012841 117.466435 
C 137.012841 116.670825 136.696742 115.907695 136.134161 115.345114 
C 135.571581 114.782534 134.80845 114.466435 134.012841 114.466435 
C 133.217232 114.466435 132.454101 114.782534 131.891521 115.345114 
C 131.32894 115.907695 131.012841 116.670825 131.012841 117.466435 
C 131.012841 118.262044 131.32894 119.025174 131.891521 119.587755 
C 132.454101 120.150336 133.217232 120.466435 134.012841 120.466435 
z
" style="fill:#f26b38;stroke:#ffffff;stroke-width:0.48;"/>
    <path clip-path="url(#pfb626f5644)" d="M 140.776477 133.706526 
C 141.572087 133.706526 142.335217 133.390427 142.897798 132.827847 
C 143.460378 132.265266 143.776477 131.502136 143.776477 130.706526 
C 143.776477 129.910917 143.460378 129.147787 142.897798 128.585206 
C 142.335217 128.022625 141.572087 127.706526 140.776477 127.706526 
C 139.980868 127.706526 139.217738 128.022625 138.655157 128.585206 
C 138.092576 129.147787 137.776477 129.910917 137.776477 130.706526 
C 137.776477 131.502136 138.092576 132.265266 138.655157 132.827847 
C 139.217738 133.390427 139.980868 133.706526 140.776477 133.706526 
z
" style="fill:#f26b38;stroke:#ffffff;stroke-width:0.48;"/>
    <path clip-path="url(#pfb626f5644)" d="M 147.540114 160.896 
C 148.335723 160.896 149.098853 160.579901 149.661434 160.01732 
C 150.224015 159.45474 150.540114 158.691609 150.540114 157.896 
C 150.540114 157.100391 150.224015 156.33726 149.661434 155.77468 
C 149.098853 155.212099 148.335723 154.896 147.540114 154.896 
C 146.744504 154.896 145.981374 155.212099 145.418793 155.77468 
C 144.856213 156.33726 144.540114 157.100391 144.540114 157.896 
C 144.540114 158.691609 144.856213 159.45474 145.418793 160.01732 
C 145.981374 160.579901 146.744504 160.896 147.540114 160.896 
z
" style="fill:#f26b38;stroke:#ffffff;stroke-width:0.48;"/>
    <path clip-path="url(#pfb626f5644)" d="M 154.30375 133.706526 
C 155.099359 133.706526 155.86249 133.390427 156.42507 132.827847 
C 156.987651 132.265266 157.30375 131.502136 157.30375 130.706526 
C 157.30375 129.910917 156.987651 129.147787 156.42507 128.585206 
C 155.86249 128.022625 155.099359 127.706526 154.30375 127.706526 
C 153.508141 127.706526 152.74501 128.022625 152.18243 128.585206 
C 151.619849 129.147787 151.30375 129.910917 151.30375 130.706526 
C 151.30375 131.502136 151.619849 132.265266 152.18243 132.827847 
C 152.74501 133.390427 153.508141 133.706526 154.30375 133.706526 
z
" style="fill:#f26b38;stroke:#ffffff;stroke-width:0.48;"/>
    <path clip-path="url(#pfb626f5644)" d="M 161.067386 174.858162 
C 161.862996 174.858162 162.626126 174.542063 163.188707 173.979483 
C 163.751287 173.416902 164.067386 172.653771 164.067386 171.858162 
C 164.067386 171.062553 163.751287 170.299423 163.188707 169.736842 
C 162.626126 169.174261 161.862996 168.858162 161.067386 168.858162 
C 160.271777 168.858162 159.508647 169.174261 158.946066 169.736842 
C 158.383485 170.299423 158.067386 171.062553 158.067386 171.858162 
C 158.067386 172.653771 158.383485 173.416902 158.946066 173.979483 
C 159.508647 174.542063 160.271777 174.858162 161.067386 174.858162 
z
" style="fill:#f26b38;stroke:#ffffff;stroke-width:0.48;"/>
    <path clip-path="url(#pfb626f5644)" d="M 167.831023 174.858162 
C 168.626632 174.858162 169.389762 174.542063 169.952343 173.979483 
C 170.514924 173.416902 170.831023 172.653771 170.831023 171.858162 
C 170.831023 171.062553 170.514924 170.299423 169.952343 169.736842 
C 169.389762 169.174261 168.626632 168.858162 167.831023 168.858162 
C 167.035413 168.858162 166.272283 169.174261 165.709702 169.736842 
C 165.147122 170.299423 164.831023 171.062553 164.831023 171.858162 
C 164.831023 172.653771 165.147122 173.416902 165.709702 173.979483 
C 166.272283 174.542063 167.035413 174.858162 167.831023 174.858162 
z
" style="fill:#f26b38;stroke:#ffffff;stroke-width:0.48;"/>
    <path clip-path="url(#pfb626f5644)" d="M 174.594659 174.858162 
C 175.390268 174.858162 176.153399 174.542063 176.715979 173.979483 
C 177.27856 173.416902 177.594659 172.653771 177.594659 171.858162 
C 177.594659 171.062553 177.27856 170.299423 176.715979 169.736842 
C 176.153399 169.174261 175.390268 168.858162 174.594659 168.858162 
C 173.79905 168.858162 173.035919 169.174261 172.473339 169.736842 
C 171.910758 170.299423 171.594659 171.062553 171.594659 171.858162 
C 171.594659 172.653771 171.910758 173.416902 172.473339 173.979483 
C 173.035919 174.542063 173.79905 174.858162 174.594659 174.858162 
z
" style="fill:#f26b38;stroke:#ffffff;stroke-width:0.48;"/>
    <path clip-path="url(#pfb626f5644)" d="M 181.358295 174.858162 
C 182.153905 174.858162 182.917035 174.542063 183.479616 173.979483 
C 184.042197 173.416902 184.358295 172.653771 184.358295 171.858162 
C 184.358295 171.062553 184.042197 170.299423 183.479616 169.736842 
C 182.917035 169.174261 182.153905 168.858162 181.358295 168.858162 
C 180.562686 168.858162 179.799556 169.174261 179.236975 169.736842 
C 178.674394 170.299423 178.358295 171.062553 178.358295 171.858162 
C 178.358295 172.653771 178.674394 173.416902 179.236975 173.979483 
C 179.799556 174.542063 180.562686 174.858162 181.358295 174.858162 
z
" style="fill:#f26b38;stroke:#ffffff;stroke-width:0.48;"/>
    <path clip-path="url(#pfb626f5644)" d="M 188.121932 160.896 
C 188.917541 160.896 189.680671 160.579901 190.243252 160.01732 
C 190.805833 159.45474 191.121932 158.691609 191.121932 157.896 
C 191.121932 157.100391 190.805833 156.33726 190.243252 155.77468 
C 189.680671 155.212099 188.917541 154.896 188.121932 154.896 
C 187.326323 154.896 186.563192 155.212099 186.000611 155.77468 
C 185.438031 156.33726 185.121932 157.100391 185.121932 157.896 
C 185.121932 158.691609 185.438031 159.45474 186.000611 160.01732 
C 186.563192 160.579901 187.326323 160.896 188.121932 160.896 
z
" style="fill:#f26b38;stroke:#ffffff;stroke-width:0.48;"/>
    <path clip-path="url(#pfb626f5644)" d="M 194.885568 174.858162 
C 195.681177 174.858162 196.444308 174.542063 197.006889 173.979483 
C 197.569469 173.416902 197.885568 172.653771 197.885568 171.858162 
C 197.885568 171.062553 197.569469 170.299423 197.006889 169.736842 
C 196.444308 169.174261 195.681177 168.858162 194.885568 168.858162 
C 194.089959 168.858162 193.326829 169.174261 192.764248 169.736842 
C 192.201667 170.299423 191.885568 171.062553 191.885568 171.858162 
C 191.885568 172.653771 192.201667 173.416902 192.764248 173.979483 
C 193.326829 174.542063 194.089959 174.858162 194.885568 174.858162 
z
" style="fill:#f26b38;stroke:#ffffff;stroke-width:0.48;"/>
    <path clip-path="url(#pfb626f5644)" d="M 201.649205 218.296 
C 202.444814 218.296 203.207944 217.979901 203.770525 217.41732 
C 204.333106 216.85474 204.649205 216.091609 204.649205 215.296 
C 204.649205 214.500391 204.333106 213.73726 203.770525 213.17468 
C 203.207944 212.612099 202.444814 212.296 201.649205 212.296 
C 200.853595 212.296 200.090465 212.612099 199.527884 213.17468 
C 198.965303 213.73726 198.649205 214.500391 198.649205 215.296 
C 198.649205 216.091609 198.965303 216.85474 199.527884 217.41732 
C 200.090465 217.979901 200.853595 218.296 201.649205 218.296 
z
" style="fill:#f26b38;stroke:#ffffff;stroke-width:0.48;"/>
    <path clip-path="url(#pfb626f5644)" d="M 208.412841 218.296 
C 209.20845 218.296 209.971581 217.979901 210.534161 217.41732 
C 211.096742 216.85474 211.412841 216.091609 211.412841 215.296 
C 211.412841 214.500391 211.096742 213.73726 210.534161 213.17468 
C 209.971581 212.612099 209.20845 212.296 208.412841 212.296 
C 207.617232 212.296 206.854101 212.612099 206.291521 213.17468 
C 205.72894 213.73726 205.412841 214.500391 205.412841 215.296 
C 205.412841 216.091609 205.72894 216.85474 206.291521 217.41732 
C 206.854101 217.979901 207.617232 218.296 208.412841 218.296 
z
" style="fill:#f26b38;stroke:#ffffff;stroke-width:0.48;"/>
    <path clip-path="url(#pfb626f5644)" d="M 215.176477 218.296 
C 215.972087 218.296 216.735217 217.979901 217.297798 217.41732 
C 217.860378 216.85474 218.176477 216.091609 218.176477 215.296 
C 218.176477 214.500391 217.860378 213.73726 217.297798 213.17468 
C 216.735217 212.612099 215.972087 212.296 215.176477 212.296 
C 214.380868 212.296 213.617738 212.612099 213.055157 213.17468 
C 212.492576 213.73726 212.176477 214.500391 212.176477 215.296 
C 212.176477 216.091609 212.492576 216.85474 213.055157 217.41732 
C 213.617738 217.979901 214.380868 218.296 215.176477 218.296 
z
" style="fill:#f26b38;stroke:#ffffff;stroke-width:0.48;"/>
    <path clip-path="url(#pfb626f5644)" d="M 221.940114 218.296 
C 222.735723 218.296 223.498853 217.979901 224.061434 217.41732 
C 224.624015 216.85474 224.940114 216.091609 224.940114 215.296 
C 224.940114 214.500391 224.624015 213.73726 224.061434 213.17468 
C 223.498853 212.612099 222.735723 212.296 221.940114 212.296 
C 221.144504 212.296 220.381374 212.612099 219.818793 213.17468 
C 219.256213 213.73726 218.940114 214.500391 218.940114 215.296 
C 218.940114 216.091609 219.256213 216.85474 219.818793 217.41732 
C 220.381374 217.979901 221.144504 218.296 221.940114 218.296 
z
" style="fill:#f26b38;stroke:#ffffff;stroke-width:0.48;"/>
    <path clip-path="url(#pfb626f5644)" d="M 228.70375 203.551046 
C 229.499359 203.551046 230.26249 203.234947 230.82507 202.672366 
C 231.387651 202.109785 231.70375 201.346655 231.70375 200.551046 
C 231.70375 199.755437 231.387651 198.992306 230.82507 198.429726 
C 230.26249 197.867145 229.499359 197.551046 228.70375 197.551046 
C 227.908141 197.551046 227.14501 197.867145 226.58243 198.429726 
C 226.019849 198.992306 225.70375 199.755437 225.70375 200.551046 
C 225.70375 201.346655 226.019849 202.109785 226.58243 202.672366 
C 227.14501 203.234947 227.908141 203.551046 228.70375 203.551046 
z
" style="fill:#f26b38;stroke:#ffffff;stroke-width:0.48;"/>
    <path clip-path="url(#pfb626f5644)" d="M 235.467386 174.858162 
C 236.262996 174.858162 237.026126 174.542063 237.588707 173.979483 
C 238.151287 173.416902 238.467386 172.653771 238.467386 171.858162 
C 238.467386 171.062553 238.151287 170.299423 237.588707 169.736842 
C 237.026126 169.174261 236.262996 168.858162 235.467386 168.858162 
C 234.671777 168.858162 233.908647 169.174261 233.346066 169.736842 
C 232.783485 170.299423 232.467386 171.062553 232.467386 171.858162 
C 232.467386 172.653771 232.783485 173.416902 233.346066 173.979483 
C 233.908647 174.542063 234.671777 174.858162 235.467386 174.858162 
z
" style="fill:#f26b38;stroke:#ffffff;stroke-width:0.48;"/>
    <path clip-path="url(#pfb626f5644)" d="M 242.231023 174.858162 
C 243.026632 174.858162 243.789762 174.542063 244.352343 173.979483 
C 244.914924 173.416902 245.231023 172.653771 245.231023 171.858162 
C 245.231023 171.062553 244.914924 170.299423 244.352343 169.736842 
C 243.789762 169.174261 243.026632 168.858162 242.231023 168.858162 
C 241.435413 168.858162 240.672283 169.174261 240.109702 169.736842 
C 239.547122 170.299423 239.231023 171.062553 239.231023 171.858162 
C 239.231023 172.653771 239.547122 173.416902 240.109702 173.979483 
C 240.672283 174.542063 241.435413 174.858162 242.231023 174.858162 
z
" style="fill:#f26b38;stroke:#ffffff;stroke-width:0.48;"/>
    <path clip-path="url(#pfb626f5644)" d="M 248.994659 174.858162 
C 249.790268 174.858162 250.553399 174.542063 251.115979 173.979483 
C 251.67856 173.416902 251.994659 172.653771 251.994659 171.858162 
C 251.994659 171.062553 251.67856 170.299423 251.115979 169.736842 
C 250.553399 169.174261 249.790268 168.858162 248.994659 168.858162 
C 248.19905 168.858162 247.435919 169.174261 246.873339 169.736842 
C 246.310758 170.299423 245.994659 171.062553 245.994659 171.858162 
C 245.994659 172.653771 246.310758 173.416902 246.873339 173.979483 
C 247.435919 174.542063 248.19905 174.858162 248.994659 174.858162 
z
" style="fill:#f26b38;stroke:#ffffff;stroke-width:0.48;"/>
    <path clip-path="url(#pfb626f5644)" d="M 255.758295 174.858162 
C 256.553905 174.858162 257.317035 174.542063 257.879616 173.979483 
C 258.442197 173.416902 258.758295 172.653771 258.758295 171.858162 
C 258.758295 171.062553 258.442197 170.299423 257.879616 169.736842 
C 257.317035 169.174261 256.553905 168.858162 255.758295 168.858162 
C 254.962686 168.858162 254.199556 169.174261 253.636975 169.736842 
C 253.074394 170.299423 252.758295 171.062553 252.758295 171.858162 
C 252.758295 172.653771 253.074394 173.416902 253.636975 173.979483 
C 254.199556 174.542063 254.962686 174.858162 255.758295 174.858162 
z
" style="fill:#f26b38;stroke:#ffffff;stroke-width:0.48;"/>
    <path clip-path="url(#pfb626f5644)" d="M 262.521932 174.858162 
C 263.317541 174.858162 264.080671 174.542063 264.643252 173.979483 
C 265.205833 173.416902 265.521932 172.653771 265.521932 171.858162 
C 265.521932 171.062553 265.205833 170.299423 264.643252 169.736842 
C 264.080671 169.174261 263.317541 168.858162 262.521932 168.858162 
C 261.726323 168.858162 260.963192 169.174261 260.400611 169.736842 
C 259.838031 170.299423 259.521932 171.062553 259.521932 171.858162 
C 259.521932 172.653771 259.838031 173.416902 260.400611 173.979483 
C 260.963192 174.542063 261.726323 174.858162 262.521932 174.858162 
z
" style="fill:#f26b38;stroke:#ffffff;stroke-width:0.48;"/>
    <path clip-path="url(#pfb626f5644)" d="M 269.285568 174.858162 
C 270.081177 174.858162 270.844308 174.542063 271.406889 173.979483 
C 271.969469 173.416902 272.285568 172.653771 272.285568 171.858162 
C 272.285568 171.062553 271.969469 170.299423 271.406889 169.736842 
C 270.844308 169.174261 270.081177 168.858162 269.285568 168.858162 
C 268.489959 168.858162 267.726829 169.174261 267.164248 169.736842 
C 266.601667 170.299423 266.285568 171.062553 266.285568 171.858162 
C 266.285568 172.653771 266.601667 173.416902 267.164248 173.979483 
C 267.726829 174.542063 268.489959 174.858162 269.285568 174.858162 
z
" style="fill:#f26b38;stroke:#ffffff;stroke-width:0.48;"/>
    <path clip-path="url(#pfb626f5644)" d="M 276.049205 174.858162 
C 276.844814 174.858162 277.607944 174.542063 278.170525 173.979483 
C 278.733106 173.416902 279.049205 172.653771 279.049205 171.858162 
C 279.049205 171.062553 278.733106 170.299423 278.170525 169.736842 
C 277.607944 169.174261 276.844814 168.858162 276.049205 168.858162 
C 275.253595 168.858162 274.490465 169.174261 273.927884 169.736842 
C 273.365303 170.299423 273.049205 171.062553 273.049205 171.858162 
C 273.049205 172.653771 273.365303 173.416902 273.927884 173.979483 
C 274.490465 174.542063 275.253595 174.858162 276.049205 174.858162 
z
" style="fill:#f26b38;stroke:#ffffff;stroke-width:0.48;"/>
    <path clip-path="url(#pfb626f5644)" d="M 282.812841 174.858162 
C 283.60845 174.858162 284.371581 174.542063 284.934161 173.979483 
C 285.496742 173.416902 285.812841 172.653771 285.812841 171.858162 
C 285.812841 171.062553 285.496742 170.299423 284.934161 169.736842 
C 284.371581 169.174261 283.60845 168.858162 282.812841 168.858162 
C 282.017232 168.858162 281.254101 169.174261 280.691521 169.736842 
C 280.12894 170.299423 279.812841 171.062553 279.812841 171.858162 
C 279.812841 172.653771 280.12894 173.416902 280.691521 173.979483 
C 281.254101 174.542063 282.017232 174.858162 282.812841 174.858162 
z
" style="fill:#f26b38;stroke:#ffffff;stroke-width:0.48;"/>
    <path clip-path="url(#pfb626f5644)" d="M 289.576477 174.858162 
C 290.372087 174.858162 291.135217 174.542063 291.697798 173.979483 
C 292.260378 173.416902 292.576477 172.653771 292.576477 171.858162 
C 292.576477 171.062553 292.260378 170.299423 291.697798 169.736842 
C 291.135217 169.174261 290.372087 168.858162 289.576477 168.858162 
C 288.780868 168.858162 288.017738 169.174261 287.455157 169.736842 
C 286.892576 170.299423 286.576477 171.062553 286.576477 171.858162 
C 286.576477 172.653771 286.892576 173.416902 287.455157 173.979483 
C 288.017738 174.542063 288.780868 174.858162 289.576477 174.858162 
z
" style="fill:#f26b38;stroke:#ffffff;stroke-width:0.48;"/>
    <path clip-path="url(#pfb626f5644)" d="M 296.340114 174.858162 
C 297.135723 174.858162 297.898853 174.542063 298.461434 173.979483 
C 299.024015 173.416902 299.340114 172.653771 299.340114 171.858162 
C 299.340114 171.062553 299.024015 170.299423 298.461434 169.736842 
C 297.898853 169.174261 297.135723 168.858162 296.340114 168.858162 
C 295.544504 168.858162 294.781374 169.174261 294.218793 169.736842 
C 293.656213 170.299423 293.340114 171.062553 293.340114 171.858162 
C 293.340114 172.653771 293.656213 173.416902 294.218793 173.979483 
C 294.781374 174.542063 295.544504 174.858162 296.340114 174.858162 
z
" style="fill:#f26b38;stroke:#ffffff;stroke-width:0.48;"/>
    <path clip-path="url(#pfb626f5644)" d="M 303.10375 174.858162 
C 303.899359 174.858162 304.66249 174.542063 305.22507 173.979483 
C 305.787651 173.416902 306.10375 172.653771 306.10375 171.858162 
C 306.10375 171.062553 305.787651 170.299423 305.22507 169.736842 
C 304.66249 169.174261 303.899359 168.858162 303.10375 168.858162 
C 302.308141 168.858162 301.54501 169.174261 300.98243 169.736842 
C 300.419849 170.299423 300.10375 171.062553 300.10375 171.858162 
C 300.10375 172.653771 300.419849 173.416902 300.98243 173.979483 
C 301.54501 174.542063 302.308141 174.858162 303.10375 174.858162 
z
" style="fill:#f26b38;stroke:#ffffff;stroke-width:0.48;"/>
    <path clip-path="url(#pfb626f5644)" d="M 309.867386 174.858162 
C 310.662996 174.858162 311.426126 174.542063 311.988707 173.979483 
C 312.551287 173.416902 312.867386 172.653771 312.867386 171.858162 
C 312.867386 171.062553 312.551287 170.299423 311.988707 169.736842 
C 311.426126 169.174261 310.662996 168.858162 309.867386 168.858162 
C 309.071777 168.858162 308.308647 169.174261 307.746066 169.736842 
C 307.183485 170.299423 306.867386 171.062553 306.867386 171.858162 
C 306.867386 172.653771 307.183485 173.416902 307.746066 173.979483 
C 308.308647 174.542063 309.071777 174.858162 309.867386 174.858162 
z
" style="fill:#f26b38;stroke:#ffffff;stroke-width:0.48;"/>
    <path clip-path="url(#pfb626f5644)" d="M 316.631023 174.858162 
C 317.426632 174.858162 318.189762 174.542063 318.752343 173.979483 
C 319.314924 173.416902 319.631023 172.653771 319.631023 171.858162 
C 319.631023 171.062553 319.314924 170.299423 318.752343 169.736842 
C 318.189762 169.174261 317.426632 168.858162 316.631023 168.858162 
C 315.835413 168.858162 315.072283 169.174261 314.509702 169.736842 
C 313.947122 170.299423 313.631023 171.062553 313.631023 171.858162 
C 313.631023 172.653771 313.947122 173.416902 314.509702 173.979483 
C 315.072283 174.542063 315.835413 174.858162 316.631023 174.858162 
z
" style="fill:#f26b38;stroke:#ffffff;stroke-width:0.48;"/>
    <path clip-path="url(#pfb626f5644)" d="M 323.394659 174.858162 
C 324.190268 174.858162 324.953399 174.542063 325.515979 173.979483 
C 326.07856 173.416902 326.394659 172.653771 326.394659 171.858162 
C 326.394659 171.062553 326.07856 170.299423 325.515979 169.736842 
C 324.953399 169.174261 324.190268 168.858162 323.394659 168.858162 
C 322.59905 168.858162 321.835919 169.174261 321.273339 169.736842 
C 320.710758 170.299423 320.394659 171.062553 320.394659 171.858162 
C 320.394659 172.653771 320.710758 173.416902 321.273339 173.979483 
C 321.835919 174.542063 322.59905 174.858162 323.394659 174.858162 
z
" style="fill:#f26b38;stroke:#ffffff;stroke-width:0.48;"/>
    <path clip-path="url(#pfb626f5644)" d="M 330.158295 174.858162 
C 330.953905 174.858162 331.717035 174.542063 332.279616 173.979483 
C 332.842197 173.416902 333.158295 172.653771 333.158295 171.858162 
C 333.158295 171.062553 332.842197 170.299423 332.279616 169.736842 
C 331.717035 169.174261 330.953905 168.858162 330.158295 168.858162 
C 329.362686 168.858162 328.599556 169.174261 328.036975 169.736842 
C 327.474394 170.299423 327.158295 171.062553 327.158295 171.858162 
C 327.158295 172.653771 327.474394 173.416902 328.036975 173.979483 
C 328.599556 174.542063 329.362686 174.858162 330.158295 174.858162 
z
" style="fill:#f26b38;stroke:#ffffff;stroke-width:0.48;"/>
    <path clip-path="url(#pfb626f5644)" d="M 336.921932 174.858162 
C 337.717541 174.858162 338.480671 174.542063 339.043252 173.979483 
C 339.605833 173.416902 339.921932 172.653771 339.921932 171.858162 
C 339.921932 171.062553 339.605833 170.299423 339.043252 169.736842 
C 338.480671 169.174261 337.717541 168.858162 336.921932 168.858162 
C 336.126323 168.858162 335.363192 169.174261 334.800611 169.736842 
C 334.238031 170.299423 333.921932 171.062553 333.921932 171.858162 
C 333.921932 172.653771 334.238031 173.416902 334.800611 173.979483 
C 335.363192 174.542063 336.126323 174.858162 336.921932 174.858162 
z
" style="fill:#f26b38;stroke:#ffffff;stroke-width:0.48;"/>
    <path clip-path="url(#pfb626f5644)" d="M 343.685568 174.858162 
C 344.481177 174.858162 345.244308 174.542063 345.806889 173.979483 
C 346.369469 173.416902 346.685568 172.653771 346.685568 171.858162 
C 346.685568 171.062553 346.369469 170.299423 345.806889 169.736842 
C 345.244308 169.174261 344.481177 168.858162 343.685568 168.858162 
C 342.889959 168.858162 342.126829 169.174261 341.564248 169.736842 
C 341.001667 170.299423 340.685568 171.062553 340.685568 171.858162 
C 340.685568 172.653771 341.001667 173.416902 341.564248 173.979483 
C 342.126829 174.542063 342.889959 174.858162 343.685568 174.858162 
z
" style="fill:#f26b38;stroke:#ffffff;stroke-width:0.48;"/>
    <path clip-path="url(#pfb626f5644)" d="M 350.449205 174.858162 
C 351.244814 174.858162 352.007944 174.542063 352.570525 173.979483 
C 353.133106 173.416902 353.449205 172.653771 353.449205 171.858162 
C 353.449205 171.062553 353.133106 170.299423 352.570525 169.736842 
C 352.007944 169.174261 351.244814 168.858162 350.449205 168.858162 
C 349.653595 168.858162 348.890465 169.174261 348.327884 169.736842 
C 347.765303 170.299423 347.449205 171.062553 347.449205 171.858162 
C 347.449205 172.653771 347.765303 173.416902 348.327884 173.979483 
C 348.890465 174.542063 349.653595 174.858162 350.449205 174.858162 
z
" style="fill:#f26b38;stroke:#ffffff;stroke-width:0.48;"/>
    <path clip-path="url(#pfb626f5644)" d="M 357.212841 174.858162 
C 358.00845 174.858162 358.771581 174.542063 359.334161 173.979483 
C 359.896742 173.416902 360.212841 172.653771 360.212841 171.858162 
C 360.212841 171.062553 359.896742 170.299423 359.334161 169.736842 
C 358.771581 169.174261 358.00845 168.858162 357.212841 168.858162 
C 356.417232 168.858162 355.654101 169.174261 355.091521 169.736842 
C 354.52894 170.299423 354.212841 171.062553 354.212841 171.858162 
C 354.212841 172.653771 354.52894 173.416902 355.091521 173.979483 
C 355.654101 174.542063 356.417232 174.858162 357.212841 174.858162 
z
" style="fill:#f26b38;stroke:#ffffff;stroke-width:0.48;"/>
    <path clip-path="url(#pfb626f5644)" d="M 363.976477 174.858162 
C 364.772087 174.858162 365.535217 174.542063 366.097798 173.979483 
C 366.660378 173.416902 366.976477 172.653771 366.976477 171.858162 
C 366.976477 171.062553 366.660378 170.299423 366.097798 169.736842 
C 365.535217 169.174261 364.772087 168.858162 363.976477 168.858162 
C 363.180868 168.858162 362.417738 169.174261 361.855157 169.736842 
C 361.292576 170.299423 360.976477 171.062553 360.976477 171.858162 
C 360.976477 172.653771 361.292576 173.416902 361.855157 173.979483 
C 362.417738 174.542063 363.180868 174.858162 363.976477 174.858162 
z
" style="fill:#f26b38;stroke:#ffffff;stroke-width:0.48;"/>
    <path clip-path="url(#pfb626f5644)" d="M 370.740114 174.858162 
C 371.535723 174.858162 372.298853 174.542063 372.861434 173.979483 
C 373.424015 173.416902 373.740114 172.653771 373.740114 171.858162 
C 373.740114 171.062553 373.424015 170.299423 372.861434 169.736842 
C 372.298853 169.174261 371.535723 168.858162 370.740114 168.858162 
C 369.944504 168.858162 369.181374 169.174261 368.618793 169.736842 
C 368.056213 170.299423 367.740114 171.062553 367.740114 171.858162 
C 367.740114 172.653771 368.056213 173.416902 368.618793 173.979483 
C 369.181374 174.542063 369.944504 174.858162 370.740114 174.858162 
z
" style="fill:#f26b38;stroke:#ffffff;stroke-width:0.48;"/>
    <path clip-path="url(#pfb626f5644)" d="M 377.50375 174.858162 
C 378.299359 174.858162 379.06249 174.542063 379.62507 173.979483 
C 380.187651 173.416902 380.50375 172.653771 380.50375 171.858162 
C 380.50375 171.062553 380.187651 170.299423 379.62507 169.736842 
C 379.06249 169.174261 378.299359 168.858162 377.50375 168.858162 
C 376.708141 168.858162 375.94501 169.174261 375.38243 169.736842 
C 374.819849 170.299423 374.50375 171.062553 374.50375 171.858162 
C 374.50375 172.653771 374.819849 173.416902 375.38243 173.979483 
C 375.94501 174.542063 376.708141 174.858162 377.50375 174.858162 
z
" style="fill:#f26b38;stroke:#ffffff;stroke-width:0.48;"/>
    <path clip-path="url(#pfb626f5644)" d="M 384.267386 174.858162 
C 385.062996 174.858162 385.826126 174.542063 386.388707 173.979483 
C 386.951287 173.416902 387.267386 172.653771 387.267386 171.858162 
C 387.267386 171.062553 386.951287 170.299423 386.388707 169.736842 
C 385.826126 169.174261 385.062996 168.858162 384.267386 168.858162 
C 383.471777 168.858162 382.708647 169.174261 382.146066 169.736842 
C 381.583485 170.299423 381.267386 171.062553 381.267386 171.858162 
C 381.267386 172.653771 381.583485 173.416902 382.146066 173.979483 
C 382.708647 174.542063 383.471777 174.858162 384.267386 174.858162 
z
" style="fill:#f26b38;stroke:#ffffff;stroke-width:0.48;"/>
    <path clip-path="url(#pfb626f5644)" d="M 391.031023 174.858162 
C 391.826632 174.858162 392.589762 174.542063 393.152343 173.979483 
C 393.714924 173.416902 394.031023 172.653771 394.031023 171.858162 
C 394.031023 171.062553 393.714924 170.299423 393.152343 169.736842 
C 392.589762 169.174261 391.826632 168.858162 391.031023 168.858162 
C 390.235413 168.858162 389.472283 169.174261 388.909702 169.736842 
C 388.347122 170.299423 388.031023 171.062553 388.031023 171.858162 
C 388.031023 172.653771 388.347122 173.416902 388.909702 173.979483 
C 389.472283 174.542063 390.235413 174.858162 391.031023 174.858162 
z
" style="fill:#f26b38;stroke:#ffffff;stroke-width:0.48;"/>
    <path clip-path="url(#pfb626f5644)" d="M 64.876477 33.863213 
L 66.376477 32.363213 
L 67.876477 33.863213 
L 69.376477 32.363213 
L 67.876477 30.863213 
L 69.376477 29.363213 
L 67.876477 27.863213 
L 66.376477 29.363213 
L 64.876477 27.863213 
L 63.376477 29.363213 
L 64.876477 30.863213 
L 63.376477 32.363213 
z
" style="fill:#2f9599;stroke:#ffffff;stroke-width:0.48;"/>
    <path clip-path="url(#pfb626f5644)" d="M 71.640114 45.62162 
L 73.140114 44.12162 
L 74.640114 45.62162 
L 76.140114 44.12162 
L 74.640114 42.62162 
L 76.140114 41.12162 
L 74.640114 39.62162 
L 73.140114 41.12162 
L 71.640114 39.62162 
L 70.140114 41.12162 
L 71.640114 42.62162 
L 70.140114 44.12162 
z
" style="fill:#2f9599;stroke:#ffffff;stroke-width:0.48;"/>
    <path clip-path="url(#pfb626f5644)" d="M 78.40375 120.466435 
L 79.90375 118.966435 
L 81.40375 120.466435 
L 82.90375 118.966435 
L 81.40375 117.466435 
L 82.90375 115.966435 
L 81.40375 114.466435 
L 79.90375 115.966435 
L 78.40375 114.466435 
L 76.90375 115.966435 
L 78.40375 117.466435 
L 76.90375 118.966435 
z
" style="fill:#2f9599;stroke:#ffffff;stroke-width:0.48;"/>
    <path clip-path="url(#pfb626f5644)" d="M 85.167386 160.896 
L 86.667386 159.396 
L 88.167386 160.896 
L 89.667386 159.396 
L 88.167386 157.896 
L 89.667386 156.396 
L 88.167386 154.896 
L 86.667386 156.396 
L 85.167386 154.896 
L 83.667386 156.396 
L 85.167386 157.896 
L 83.667386 159.396 
z
" style="fill:#2f9599;stroke:#ffffff;stroke-width:0.48;"/>
    <path clip-path="url(#pfb626f5644)" d="M 91.931023 133.706526 
L 93.431023 132.206526 
L 94.931023 133.706526 
L 96.431023 132.206526 
L 94.931023 130.706526 
L 96.431023 129.206526 
L 94.931023 127.706526 
L 93.431023 129.206526 
L 91.931023 127.706526 
L 90.431023 129.206526 
L 91.931023 130.706526 
L 90.431023 132.206526 
z
" style="fill:#2f9599;stroke:#ffffff;stroke-width:0.48;"/>
    <path clip-path="url(#pfb626f5644)" d="M 98.694659 174.858162 
L 100.194659 173.358162 
L 101.694659 174.858162 
L 103.194659 173.358162 
L 101.694659 171.858162 
L 103.194659 170.358162 
L 101.694659 168.858162 
L 100.194659 170.358162 
L 98.694659 168.858162 
L 97.194659 170.358162 
L 98.694659 171.858162 
L 97.194659 173.358162 
z
" style="fill:#2f9599;stroke:#ffffff;stroke-width:0.48;"/>
    <path clip-path="url(#pfb626f5644)" d="M 105.458295 174.858162 
L 106.958295 173.358162 
L 108.458295 174.858162 
L 109.958295 173.358162 
L 108.458295 171.858162 
L 109.958295 170.358162 
L 108.458295 168.858162 
L 106.958295 170.358162 
L 105.458295 168.858162 
L 103.958295 170.358162 
L 105.458295 171.858162 
L 103.958295 173.358162 
z
" style="fill:#2f9599;stroke:#ffffff;stroke-width:0.48;"/>
    <path clip-path="url(#pfb626f5644)" d="M 112.221932 174.858162 
L 113.721932 173.358162 
L 115.221932 174.858162 
L 116.721932 173.358162 
L 115.221932 171.858162 
L 116.721932 170.358162 
L 115.221932 168.858162 
L 113.721932 170.358162 
L 112.221932 168.858162 
L 110.721932 170.358162 
L 112.221932 171.858162 
L 110.721932 173.358162 
z
" style="fill:#2f9599;stroke:#ffffff;stroke-width:0.48;"/>
    <path clip-path="url(#pfb626f5644)" d="M 118.985568 174.858162 
L 120.485568 173.358162 
L 121.985568 174.858162 
L 123.485568 173.358162 
L 121.985568 171.858162 
L 123.485568 170.358162 
L 121.985568 168.858162 
L 120.485568 170.358162 
L 118.985568 168.858162 
L 117.485568 170.358162 
L 118.985568 171.858162 
L 117.485568 173.358162 
z
" style="fill:#2f9599;stroke:#ffffff;stroke-width:0.48;"/>
    <path clip-path="url(#pfb626f5644)" d="M 125.749205 120.466435 
L 127.249205 118.966435 
L 128.749205 120.466435 
L 130.249205 118.966435 
L 128.749205 117.466435 
L 130.249205 115.966435 
L 128.749205 114.466435 
L 127.249205 115.966435 
L 125.749205 114.466435 
L 124.249205 115.966435 
L 125.749205 117.466435 
L 124.249205 118.966435 
z
" style="fill:#2f9599;stroke:#ffffff;stroke-width:0.48;"/>
    <path clip-path="url(#pfb626f5644)" d="M 132.512841 107.454621 
L 134.012841 105.954621 
L 135.512841 107.454621 
L 137.012841 105.954621 
L 135.512841 104.454621 
L 137.012841 102.954621 
L 135.512841 101.454621 
L 134.012841 102.954621 
L 132.512841 101.454621 
L 131.012841 102.954621 
L 132.512841 104.454621 
L 131.012841 105.954621 
z
" style="fill:#2f9599;stroke:#ffffff;stroke-width:0.48;"/>
    <path clip-path="url(#pfb626f5644)" d="M 139.276477 233.316561 
L 140.776477 231.816561 
L 142.276477 233.316561 
L 143.776477 231.816561 
L 142.276477 230.316561 
L 143.776477 228.816561 
L 142.276477 227.316561 
L 140.776477 228.816561 
L 139.276477 227.316561 
L 137.776477 228.816561 
L 139.276477 230.316561 
L 137.776477 231.816561 
z
" style="fill:#2f9599;stroke:#ffffff;stroke-width:0.48;"/>
    <path clip-path="url(#pfb626f5644)" d="M 146.040114 233.316561 
L 147.540114 231.816561 
L 149.040114 233.316561 
L 150.540114 231.816561 
L 149.040114 230.316561 
L 150.540114 228.816561 
L 149.040114 227.316561 
L 147.540114 228.816561 
L 146.040114 227.316561 
L 144.540114 228.816561 
L 146.040114 230.316561 
L 144.540114 231.816561 
z
" style="fill:#2f9599;stroke:#ffffff;stroke-width:0.48;"/>
    <path clip-path="url(#pfb626f5644)" d="M 152.80375 233.316561 
L 154.30375 231.816561 
L 155.80375 233.316561 
L 157.30375 231.816561 
L 155.80375 230.316561 
L 157.30375 228.816561 
L 155.80375 227.316561 
L 154.30375 228.816561 
L 152.80375 227.316561 
L 151.30375 228.816561 
L 152.80375 230.316561 
L 151.30375 231.816561 
z
" style="fill:#2f9599;stroke:#ffffff;stroke-width:0.48;"/>
    <path clip-path="url(#pfb626f5644)" d="M 159.567386 233.316561 
L 161.067386 231.816561 
L 162.567386 233.316561 
L 164.067386 231.816561 
L 162.567386 230.316561 
L 164.067386 228.816561 
L 162.567386 227.316561 
L 161.067386 228.816561 
L 159.567386 227.316561 
L 158.067386 228.816561 
L 159.567386 230.316561 
L 158.067386 231.816561 
z
" style="fill:#2f9599;stroke:#ffffff;stroke-width:0.48;"/>
    <path clip-path="url(#pfb626f5644)" d="M 166.331023 264.216 
L 167.831023 262.716 
L 169.331023 264.216 
L 170.831023 262.716 
L 169.331023 261.216 
L 170.831023 259.716 
L 169.331023 258.216 
L 167.831023 259.716 
L 166.331023 258.216 
L 164.831023 259.716 
L 166.331023 261.216 
L 164.831023 262.716 
z
" style="fill:#2f9599;stroke:#ffffff;stroke-width:0.48;"/>
    <path clip-path="url(#pfb626f5644)" d="M 173.094659 233.316561 
L 174.594659 231.816561 
L 176.094659 233.316561 
L 177.594659 231.816561 
L 176.094659 230.316561 
L 177.594659 228.816561 
L 176.094659 227.316561 
L 174.594659 228.816561 
L 173.094659 227.316561 
L 171.594659 228.816561 
L 173.094659 230.316561 
L 171.594659 231.816561 
z
" style="fill:#2f9599;stroke:#ffffff;stroke-width:0.48;"/>
    <path clip-path="url(#pfb626f5644)" d="M 179.858295 233.316561 
L 181.358295 231.816561 
L 182.858295 233.316561 
L 184.358295 231.816561 
L 182.858295 230.316561 
L 184.358295 228.816561 
L 182.858295 227.316561 
L 181.358295 228.816561 
L 179.858295 227.316561 
L 178.358295 228.816561 
L 179.858295 230.316561 
L 178.358295 231.816561 
z
" style="fill:#2f9599;stroke:#ffffff;stroke-width:0.48;"/>
    <path clip-path="url(#pfb626f5644)" d="M 186.621932 233.316561 
L 188.121932 231.816561 
L 189.621932 233.316561 
L 191.121932 231.816561 
L 189.621932 230.316561 
L 191.121932 228.816561 
L 189.621932 227.316561 
L 188.121932 228.816561 
L 186.621932 227.316561 
L 185.121932 228.816561 
L 186.621932 230.316561 
L 185.121932 231.816561 
z
" style="fill:#2f9599;stroke:#ffffff;stroke-width:0.48;"/>
    <path clip-path="url(#pfb626f5644)" d="M 193.385568 233.316561 
L 194.885568 231.816561 
L 196.385568 233.316561 
L 197.885568 231.816561 
L 196.385568 230.316561 
L 197.885568 228.816561 
L 196.385568 227.316561 
L 194.885568 228.816561 
L 193.385568 227.316561 
L 191.885568 228.816561 
L 193.385568 230.316561 
L 191.885568 231.816561 
z
" style="fill:#2f9599;stroke:#ffffff;stroke-width:0.48;"/>
    <path clip-path="url(#pfb626f5644)" d="M 200.149205 233.316561 
L 201.649205 231.816561 
L 203.149205 233.316561 
L 204.649205 231.816561 
L 203.149205 230.316561 
L 204.649205 228.816561 
L 203.149205 227.316561 
L 201.649205 228.816561 
L 200.149205 227.316561 
L 198.649205 228.816561 
L 200.149205 230.316561 
L 198.649205 231.816561 
z
" style="fill:#2f9599;stroke:#ffffff;stroke-width:0.48;"/>
    <path clip-path="url(#pfb626f5644)" d="M 206.912841 233.316561 
L 208.412841 231.816561 
L 209.912841 233.316561 
L 211.412841 231.816561 
L 209.912841 230.316561 
L 211.412841 228.816561 
L 209.912841 227.316561 
L 208.412841 228.816561 
L 206.912841 227.316561 
L 205.412841 228.816561 
L 206.912841 230.316561 
L 205.412841 231.816561 
z
" style="fill:#2f9599;stroke:#ffffff;stroke-width:0.48;"/>
    <path clip-path="url(#pfb626f5644)" d="M 213.676477 233.316561 
L 215.176477 231.816561 
L 216.676477 233.316561 
L 218.176477 231.816561 
L 216.676477 230.316561 
L 218.176477 228.816561 
L 216.676477 227.316561 
L 215.176477 228.816561 
L 213.676477 227.316561 
L 212.176477 228.816561 
L 213.676477 230.316561 
L 212.176477 231.816561 
z
" style="fill:#2f9599;stroke:#ffffff;stroke-width:0.48;"/>
    <path clip-path="url(#pfb626f5644)" d="M 220.440114 233.316561 
L 221.940114 231.816561 
L 223.440114 233.316561 
L 224.940114 231.816561 
L 223.440114 230.316561 
L 224.940114 228.816561 
L 223.440114 227.316561 
L 221.940114 228.816561 
L 220.440114 227.316561 
L 218.940114 228.816561 
L 220.440114 230.316561 
L 218.940114 231.816561 
z
" style="fill:#2f9599;stroke:#ffffff;stroke-width:0.48;"/>
    <path clip-path="url(#pfb626f5644)" d="M 227.20375 233.316561 
L 228.70375 231.816561 
L 230.20375 233.316561 
L 231.70375 231.816561 
L 230.20375 230.316561 
L 231.70375 228.816561 
L 230.20375 227.316561 
L 228.70375 228.816561 
L 227.20375 227.316561 
L 225.70375 228.816561 
L 227.20375 230.316561 
L 225.70375 231.816561 
z
" style="fill:#2f9599;stroke:#ffffff;stroke-width:0.48;"/>
    <path clip-path="url(#pfb626f5644)" d="M 233.967386 233.316561 
L 235.467386 231.816561 
L 236.967386 233.316561 
L 238.467386 231.816561 
L 236.967386 230.316561 
L 238.467386 228.816561 
L 236.967386 227.316561 
L 235.467386 228.816561 
L 233.967386 227.316561 
L 232.467386 228.816561 
L 233.967386 230.316561 
L 232.467386 231.816561 
z
" style="fill:#2f9599;stroke:#ffffff;stroke-width:0.48;"/>
    <path clip-path="url(#pfb626f5644)" d="M 240.731023 233.316561 
L 242.231023 231.816561 
L 243.731023 233.316561 
L 245.231023 231.816561 
L 243.731023 230.316561 
L 245.231023 228.816561 
L 243.731023 227.316561 
L 242.231023 228.816561 
L 240.731023 227.316561 
L 239.231023 228.816561 
L 240.731023 230.316561 
L 239.231023 231.816561 
z
" style="fill:#2f9599;stroke:#ffffff;stroke-width:0.48;"/>
    <path clip-path="url(#pfb626f5644)" d="M 247.494659 233.316561 
L 248.994659 231.816561 
L 250.494659 233.316561 
L 251.994659 231.816561 
L 250.494659 230.316561 
L 251.994659 228.816561 
L 250.494659 227.316561 
L 248.994659 228.816561 
L 247.494659 227.316561 
L 245.994659 228.816561 
L 247.494659 230.316561 
L 245.994659 231.816561 
z
" style="fill:#2f9599;stroke:#ffffff;stroke-width:0.48;"/>
    <path clip-path="url(#pfb626f5644)" d="M 254.258295 233.316561 
L 255.758295 231.816561 
L 257.258295 233.316561 
L 258.758295 231.816561 
L 257.258295 230.316561 
L 258.758295 228.816561 
L 257.258295 227.316561 
L 255.758295 228.816561 
L 254.258295 227.316561 
L 252.758295 228.816561 
L 254.258295 230.316561 
L 252.758295 231.816561 
z
" style="fill:#2f9599;stroke:#ffffff;stroke-width:0.48;"/>
    <path clip-path="url(#pfb626f5644)" d="M 261.021932 233.316561 
L 262.521932 231.816561 
L 264.021932 233.316561 
L 265.521932 231.816561 
L 264.021932 230.316561 
L 265.521932 228.816561 
L 264.021932 227.316561 
L 262.521932 228.816561 
L 261.021932 227.316561 
L 259.521932 228.816561 
L 261.021932 230.316561 
L 259.521932 231.816561 
z
" style="fill:#2f9599;stroke:#ffffff;stroke-width:0.48;"/>
    <path clip-path="url(#pfb626f5644)" d="M 267.785568 233.316561 
L 269.285568 231.816561 
L 270.785568 233.316561 
L 272.285568 231.816561 
L 270.785568 230.316561 
L 272.285568 228.816561 
L 270.785568 227.316561 
L 269.285568 228.816561 
L 267.785568 227.316561 
L 266.285568 228.816561 
L 267.785568 230.316561 
L 266.285568 231.816561 
z
" style="fill:#2f9599;stroke:#ffffff;stroke-width:0.48;"/>
    <path clip-path="url(#pfb626f5644)" d="M 274.549205 233.316561 
L 276.049205 231.816561 
L 277.549205 233.316561 
L 279.049205 231.816561 
L 277.549205 230.316561 
L 279.049205 228.816561 
L 277.549205 227.316561 
L 276.049205 228.816561 
L 274.549205 227.316561 
L 273.049205 228.816561 
L 274.549205 230.316561 
L 273.049205 231.816561 
z
" style="fill:#2f9599;stroke:#ffffff;stroke-width:0.48;"/>
    <path clip-path="url(#pfb626f5644)" d="M 281.312841 233.316561 
L 282.812841 231.816561 
L 284.312841 233.316561 
L 285.812841 231.816561 
L 284.312841 230.316561 
L 285.812841 228.816561 
L 284.312841 227.316561 
L 282.812841 228.816561 
L 281.312841 227.316561 
L 279.812841 228.816561 
L 281.312841 230.316561 
L 279.812841 231.816561 
z
" style="fill:#2f9599;stroke:#ffffff;stroke-width:0.48;"/>
    <path clip-path="url(#pfb626f5644)" d="M 288.076477 233.316561 
L 289.576477 231.816561 
L 291.076477 233.316561 
L 292.576477 231.816561 
L 291.076477 230.316561 
L 292.576477 228.816561 
L 291.076477 227.316561 
L 289.576477 228.816561 
L 288.076477 227.316561 
L 286.576477 228.816561 
L 288.076477 230.316561 
L 286.576477 231.816561 
z
" style="fill:#2f9599;stroke:#ffffff;stroke-width:0.48;"/>
    <path clip-path="url(#pfb626f5644)" d="M 294.840114 233.316561 
L 296.340114 231.816561 
L 297.840114 233.316561 
L 299.340114 231.816561 
L 297.840114 230.316561 
L 299.340114 228.816561 
L 297.840114 227.316561 
L 296.340114 228.816561 
L 294.840114 227.316561 
L 293.340114 228.816561 
L 294.840114 230.316561 
L 293.340114 231.816561 
z
" style="fill:#2f9599;stroke:#ffffff;stroke-width:0.48;"/>
    <path clip-path="url(#pfb626f5644)" d="M 301.60375 233.316561 
L 303.10375 231.816561 
L 304.60375 233.316561 
L 306.10375 231.816561 
L 304.60375 230.316561 
L 306.10375 228.816561 
L 304.60375 227.316561 
L 303.10375 228.816561 
L 301.60375 227.316561 
L 300.10375 228.816561 
L 301.60375 230.316561 
L 300.10375 231.816561 
z
" style="fill:#2f9599;stroke:#ffffff;stroke-width:0.48;"/>
    <path clip-path="url(#pfb626f5644)" d="M 308.367386 233.316561 
L 309.867386 231.816561 
L 311.367386 233.316561 
L 312.867386 231.816561 
L 311.367386 230.316561 
L 312.867386 228.816561 
L 311.367386 227.316561 
L 309.867386 228.816561 
L 308.367386 227.316561 
L 306.867386 228.816561 
L 308.367386 230.316561 
L 306.867386 231.816561 
z
" style="fill:#2f9599;stroke:#ffffff;stroke-width:0.48;"/>
    <path clip-path="url(#pfb626f5644)" d="M 315.131023 233.316561 
L 316.631023 231.816561 
L 318.131023 233.316561 
L 319.631023 231.816561 
L 318.131023 230.316561 
L 319.631023 228.816561 
L 318.131023 227.316561 
L 316.631023 228.816561 
L 315.131023 227.316561 
L 313.631023 228.816561 
L 315.131023 230.316561 
L 313.631023 231.816561 
z
" style="fill:#2f9599;stroke:#ffffff;stroke-width:0.48;"/>
    <path clip-path="url(#pfb626f5644)" d="M 321.894659 233.316561 
L 323.394659 231.816561 
L 324.894659 233.316561 
L 326.394659 231.816561 
L 324.894659 230.316561 
L 326.394659 228.816561 
L 324.894659 227.316561 
L 323.394659 228.816561 
L 321.894659 227.316561 
L 320.394659 228.816561 
L 321.894659 230.316561 
L 320.394659 231.816561 
z
" style="fill:#2f9599;stroke:#ffffff;stroke-width:0.48;"/>
    <path clip-path="url(#pfb626f5644)" d="M 328.658295 233.316561 
L 330.158295 231.816561 
L 331.658295 233.316561 
L 333.158295 231.816561 
L 331.658295 230.316561 
L 333.158295 228.816561 
L 331.658295 227.316561 
L 330.158295 228.816561 
L 328.658295 227.316561 
L 327.158295 228.816561 
L 328.658295 230.316561 
L 327.158295 231.816561 
z
" style="fill:#2f9599;stroke:#ffffff;stroke-width:0.48;"/>
    <path clip-path="url(#pfb626f5644)" d="M 335.421932 233.316561 
L 336.921932 231.816561 
L 338.421932 233.316561 
L 339.921932 231.816561 
L 338.421932 230.316561 
L 339.921932 228.816561 
L 338.421932 227.316561 
L 336.921932 228.816561 
L 335.421932 227.316561 
L 333.921932 228.816561 
L 335.421932 230.316561 
L 333.921932 231.816561 
z
" style="fill:#2f9599;stroke:#ffffff;stroke-width:0.48;"/>
    <path clip-path="url(#pfb626f5644)" d="M 342.185568 233.316561 
L 343.685568 231.816561 
L 345.185568 233.316561 
L 346.685568 231.816561 
L 345.185568 230.316561 
L 346.685568 228.816561 
L 345.185568 227.316561 
L 343.685568 228.816561 
L 342.185568 227.316561 
L 340.685568 228.816561 
L 342.185568 230.316561 
L 340.685568 231.816561 
z
" style="fill:#2f9599;stroke:#ffffff;stroke-width:0.48;"/>
    <path clip-path="url(#pfb626f5644)" d="M 348.949205 233.316561 
L 350.449205 231.816561 
L 351.949205 233.316561 
L 353.449205 231.816561 
L 351.949205 230.316561 
L 353.449205 228.816561 
L 351.949205 227.316561 
L 350.449205 228.816561 
L 348.949205 227.316561 
L 347.449205 228.816561 
L 348.949205 230.316561 
L 347.449205 231.816561 
z
" style="fill:#2f9599;stroke:#ffffff;stroke-width:0.48;"/>
    <path clip-path="url(#pfb626f5644)" d="M 355.712841 233.316561 
L 357.212841 231.816561 
L 358.712841 233.316561 
L 360.212841 231.816561 
L 358.712841 230.316561 
L 360.212841 228.816561 
L 358.712841 227.316561 
L 357.212841 228.816561 
L 355.712841 227.316561 
L 354.212841 228.816561 
L 355.712841 230.316561 
L 354.212841 231.816561 
z
" style="fill:#2f9599;stroke:#ffffff;stroke-width:0.48;"/>
    <path clip-path="url(#pfb626f5644)" d="M 362.476477 233.316561 
L 363.976477 231.816561 
L 365.476477 233.316561 
L 366.976477 231.816561 
L 365.476477 230.316561 
L 366.976477 228.816561 
L 365.476477 227.316561 
L 363.976477 228.816561 
L 362.476477 227.316561 
L 360.976477 228.816561 
L 362.476477 230.316561 
L 360.976477 231.816561 
z
" style="fill:#2f9599;stroke:#ffffff;stroke-width:0.48;"/>
    <path clip-path="url(#pfb626f5644)" d="M 369.240114 233.316561 
L 370.740114 231.816561 
L 372.240114 233.316561 
L 373.740114 231.816561 
L 372.240114 230.316561 
L 373.740114 228.816561 
L 372.240114 227.316561 
L 370.740114 228.816561 
L 369.240114 227.316561 
L 367.740114 228.816561 
L 369.240114 230.316561 
L 367.740114 231.816561 
z
" style="fill:#2f9599;stroke:#ffffff;stroke-width:0.48;"/>
    <path clip-path="url(#pfb626f5644)" d="M 376.00375 233.316561 
L 377.50375 231.816561 
L 379.00375 233.316561 
L 380.50375 231.816561 
L 379.00375 230.316561 
L 380.50375 228.816561 
L 379.00375 227.316561 
L 377.50375 228.816561 
L 376.00375 227.316561 
L 374.50375 228.816561 
L 376.00375 230.316561 
L 374.50375 231.816561 
z
" style="fill:#2f9599;stroke:#ffffff;stroke-width:0.48;"/>
    <path clip-path="url(#pfb626f5644)" d="M 382.767386 233.316561 
L 384.267386 231.816561 
L 385.767386 233.316561 
L 387.267386 231.816561 
L 385.767386 230.316561 
L 387.267386 228.816561 
L 385.767386 227.316561 
L 384.267386 228.816561 
L 382.767386 227.316561 
L 381.267386 228.816561 
L 382.767386 230.316561 
L 381.267386 231.816561 
z
" style="fill:#2f9599;stroke:#ffffff;stroke-width:0.48;"/>
    <path clip-path="url(#pfb626f5644)" d="M 389.531023 233.316561 
L 391.031023 231.816561 
L 392.531023 233.316561 
L 394.031023 231.816561 
L 392.531023 230.316561 
L 394.031023 228.816561 
L 392.531023 227.316561 
L 391.031023 228.816561 
L 389.531023 227.316561 
L 388.031023 228.816561 
L 389.531023 230.316561 
L 388.031023 231.816561 
z
" style="fill:#2f9599;stroke:#ffffff;stroke-width:0.48;"/>
    <path clip-path="url(#pfb626f5644)" d="M 64.255157 17.17468 
L 64.255157 21.41732 
L 68.497798 21.41732 
L 68.497798 17.17468 
z
" style="fill:#a7226e;stroke:#ffffff;stroke-width:0.48;"/>
    <path clip-path="url(#pfb626f5644)" d="M 71.018793 17.17468 
L 71.018793 21.41732 
L 75.261434 21.41732 
L 75.261434 17.17468 
z
" style="fill:#a7226e;stroke:#ffffff;stroke-width:0.48;"/>
    <path clip-path="url(#pfb626f5644)" d="M 77.78243 17.17468 
L 77.78243 21.41732 
L 82.02507 21.41732 
L 82.02507 17.17468 
z
" style="fill:#a7226e;stroke:#ffffff;stroke-width:0.48;"/>
    <path clip-path="url(#pfb626f5644)" d="M 84.546066 17.17468 
L 84.546066 21.41732 
L 88.788707 21.41732 
L 88.788707 17.17468 
z
" style="fill:#a7226e;stroke:#ffffff;stroke-width:0.48;"/>
    <path clip-path="url(#pfb626f5644)" d="M 91.309702 17.17468 
L 91.309702 21.41732 
L 95.552343 21.41732 
L 95.552343 17.17468 
z
" style="fill:#a7226e;stroke:#ffffff;stroke-width:0.48;"/>
    <path clip-path="url(#pfb626f5644)" d="M 98.073339 17.17468 
L 98.073339 21.41732 
L 102.315979 21.41732 
L 102.315979 17.17468 
z
" style="fill:#a7226e;stroke:#ffffff;stroke-width:0.48;"/>
    <path clip-path="url(#pfb626f5644)" d="M 104.836975 17.17468 
L 104.836975 21.41732 
L 109.079616 21.41732 
L 109.079616 17.17468 
z
" style="fill:#a7226e;stroke:#ffffff;stroke-width:0.48;"/>
    <path clip-path="url(#pfb626f5644)" d="M 111.600611 28.741893 
L 111.600611 32.984533 
L 115.843252 32.984533 
L 115.843252 28.741893 
z
" style="fill:#a7226e;stroke:#ffffff;stroke-width:0.48;"/>
    <path clip-path="url(#pfb626f5644)" d="M 118.364248 28.741893 
L 118.364248 32.984533 
L 122.606889 32.984533 
L 122.606889 28.741893 
z
" style="fill:#a7226e;stroke:#ffffff;stroke-width:0.48;"/>
    <path clip-path="url(#pfb626f5644)" d="M 125.127884 17.17468 
L 125.127884 21.41732 
L 129.370525 21.41732 
L 129.370525 17.17468 
z
" style="fill:#a7226e;stroke:#ffffff;stroke-width:0.48;"/>
    <path clip-path="url(#pfb626f5644)" d="M 131.891521 17.17468 
L 131.891521 21.41732 
L 136.134161 21.41732 
L 136.134161 17.17468 
z
" style="fill:#a7226e;stroke:#ffffff;stroke-width:0.48;"/>
    <path clip-path="url(#pfb626f5644)" d="M 138.655157 28.741893 
L 138.655157 32.984533 
L 142.897798 32.984533 
L 142.897798 28.741893 
z
" style="fill:#a7226e;stroke:#ffffff;stroke-width:0.48;"/>
    <path clip-path="url(#pfb626f5644)" d="M 145.418793 28.741893 
L 145.418793 32.984533 
L 149.661434 32.984533 
L 149.661434 28.741893 
z
" style="fill:#a7226e;stroke:#ffffff;stroke-width:0.48;"/>
    <path clip-path="url(#pfb626f5644)" d="M 152.18243 28.741893 
L 152.18243 32.984533 
L 156.42507 32.984533 
L 156.42507 28.741893 
z
" style="fill:#a7226e;stroke:#ffffff;stroke-width:0.48;"/>
    <path clip-path="url(#pfb626f5644)" d="M 158.946066 17.17468 
L 158.946066 21.41732 
L 163.188707 21.41732 
L 163.188707 17.17468 
z
" style="fill:#a7226e;stroke:#ffffff;stroke-width:0.48;"/>
    <path clip-path="url(#pfb626f5644)" d="M 165.709702 115.345114 
L 165.709702 119.587755 
L 169.952343 119.587755 
L 169.952343 115.345114 
z
" style="fill:#a7226e;stroke:#ffffff;stroke-width:0.48;"/>
    <path clip-path="url(#pfb626f5644)" d="M 172.473339 115.345114 
L 172.473339 119.587755 
L 176.715979 119.587755 
L 176.715979 115.345114 
z
" style="fill:#a7226e;stroke:#ffffff;stroke-width:0.48;"/>
    <path clip-path="url(#pfb626f5644)" d="M 179.236975 169.736842 
L 179.236975 173.979483 
L 183.479616 173.979483 
L 183.479616 169.736842 
z
" style="fill:#a7226e;stroke:#ffffff;stroke-width:0.48;"/>
    <path clip-path="url(#pfb626f5644)" d="M 186.000611 169.736842 
L 186.000611 173.979483 
L 190.243252 173.979483 
L 190.243252 169.736842 
z
" style="fill:#a7226e;stroke:#ffffff;stroke-width:0.48;"/>
    <path clip-path="url(#pfb626f5644)" d="M 192.764248 155.77468 
L 192.764248 160.01732 
L 197.006889 160.01732 
L 197.006889 155.77468 
z
" style="fill:#a7226e;stroke:#ffffff;stroke-width:0.48;"/>
    <path clip-path="url(#pfb626f5644)" d="M 199.527884 155.77468 
L 199.527884 160.01732 
L 203.770525 160.01732 
L 203.770525 155.77468 
z
" style="fill:#a7226e;stroke:#ffffff;stroke-width:0.48;"/>
    <path clip-path="url(#pfb626f5644)" d="M 206.291521 155.77468 
L 206.291521 160.01732 
L 210.534161 160.01732 
L 210.534161 155.77468 
z
" style="fill:#a7226e;stroke:#ffffff;stroke-width:0.48;"/>
    <path clip-path="url(#pfb626f5644)" d="M 213.055157 142.059635 
L 213.055157 146.302276 
L 217.297798 146.302276 
L 217.297798 142.059635 
z
" style="fill:#a7226e;stroke:#ffffff;stroke-width:0.48;"/>
    <path clip-path="url(#pfb626f5644)" d="M 219.818793 142.059635 
L 219.818793 146.302276 
L 224.061434 146.302276 
L 224.061434 142.059635 
z
" style="fill:#a7226e;stroke:#ffffff;stroke-width:0.48;"/>
    <path clip-path="url(#pfb626f5644)" d="M 226.58243 142.059635 
L 226.58243 146.302276 
L 230.82507 146.302276 
L 230.82507 142.059635 
z
" style="fill:#a7226e;stroke:#ffffff;stroke-width:0.48;"/>
    <path clip-path="url(#pfb626f5644)" d="M 233.346066 142.059635 
L 233.346066 146.302276 
L 237.588707 146.302276 
L 237.588707 142.059635 
z
" style="fill:#a7226e;stroke:#ffffff;stroke-width:0.48;"/>
    <path clip-path="url(#pfb626f5644)" d="M 240.109702 142.059635 
L 240.109702 146.302276 
L 244.352343 146.302276 
L 244.352343 142.059635 
z
" style="fill:#a7226e;stroke:#ffffff;stroke-width:0.48;"/>
    <path clip-path="url(#pfb626f5644)" d="M 246.873339 89.54391 
L 246.873339 93.786551 
L 251.115979 93.786551 
L 251.115979 89.54391 
z
" style="fill:#a7226e;stroke:#ffffff;stroke-width:0.48;"/>
    <path clip-path="url(#pfb626f5644)" d="M 253.636975 142.059635 
L 253.636975 146.302276 
L 257.879616 146.302276 
L 257.879616 142.059635 
z
" style="fill:#a7226e;stroke:#ffffff;stroke-width:0.48;"/>
    <path clip-path="url(#pfb626f5644)" d="M 260.400611 198.429726 
L 260.400611 202.672366 
L 264.643252 202.672366 
L 264.643252 198.429726 
z
" style="fill:#a7226e;stroke:#ffffff;stroke-width:0.48;"/>
    <path clip-path="url(#pfb626f5644)" d="M 267.164248 183.952861 
L 267.164248 188.195502 
L 271.406889 188.195502 
L 271.406889 183.952861 
z
" style="fill:#a7226e;stroke:#ffffff;stroke-width:0.48;"/>
    <path clip-path="url(#pfb626f5644)" d="M 273.927884 183.952861 
L 273.927884 188.195502 
L 278.170525 188.195502 
L 278.170525 183.952861 
z
" style="fill:#a7226e;stroke:#ffffff;stroke-width:0.48;"/>
    <path clip-path="url(#pfb626f5644)" d="M 280.691521 183.952861 
L 280.691521 188.195502 
L 284.934161 188.195502 
L 284.934161 183.952861 
z
" style="fill:#a7226e;stroke:#ffffff;stroke-width:0.48;"/>
    <path clip-path="url(#pfb626f5644)" d="M 287.455157 155.77468 
L 287.455157 160.01732 
L 291.697798 160.01732 
L 291.697798 155.77468 
z
" style="fill:#a7226e;stroke:#ffffff;stroke-width:0.48;"/>
    <path clip-path="url(#pfb626f5644)" d="M 294.218793 155.77468 
L 294.218793 160.01732 
L 298.461434 160.01732 
L 298.461434 155.77468 
z
" style="fill:#a7226e;stroke:#ffffff;stroke-width:0.48;"/>
    <path clip-path="url(#pfb626f5644)" d="M 300.98243 155.77468 
L 300.98243 160.01732 
L 305.22507 160.01732 
L 305.22507 155.77468 
z
" style="fill:#a7226e;stroke:#ffffff;stroke-width:0.48;"/>
    <path clip-path="url(#pfb626f5644)" d="M 307.746066 155.77468 
L 307.746066 160.01732 
L 311.988707 160.01732 
L 311.988707 155.77468 
z
" style="fill:#a7226e;stroke:#ffffff;stroke-width:0.48;"/>
    <path clip-path="url(#pfb626f5644)" d="M 314.509702 155.77468 
L 314.509702 160.01732 
L 318.752343 160.01732 
L 318.752343 155.77468 
z
" style="fill:#a7226e;stroke:#ffffff;stroke-width:0.48;"/>
    <path clip-path="url(#pfb626f5644)" d="M 321.273339 155.77468 
L 321.273339 160.01732 
L 325.515979 160.01732 
L 325.515979 155.77468 
z
" style="fill:#a7226e;stroke:#ffffff;stroke-width:0.48;"/>
    <path clip-path="url(#pfb626f5644)" d="M 328.036975 155.77468 
L 328.036975 160.01732 
L 332.279616 160.01732 
L 332.279616 155.77468 
z
" style="fill:#a7226e;stroke:#ffffff;stroke-width:0.48;"/>
    <path clip-path="url(#pfb626f5644)" d="M 334.800611 155.77468 
L 334.800611 160.01732 
L 339.043252 160.01732 
L 339.043252 155.77468 
z
" style="fill:#a7226e;stroke:#ffffff;stroke-width:0.48;"/>
    <path clip-path="url(#pfb626f5644)" d="M 341.564248 155.77468 
L 341.564248 160.01732 
L 345.806889 160.01732 
L 345.806889 155.77468 
z
" style="fill:#a7226e;stroke:#ffffff;stroke-width:0.48;"/>
    <path clip-path="url(#pfb626f5644)" d="M 348.327884 155.77468 
L 348.327884 160.01732 
L 352.570525 160.01732 
L 352.570525 155.77468 
z
" style="fill:#a7226e;stroke:#ffffff;stroke-width:0.48;"/>
    <path clip-path="url(#pfb626f5644)" d="M 355.091521 155.77468 
L 355.091521 160.01732 
L 359.334161 160.01732 
L 359.334161 155.77468 
z
" style="fill:#a7226e;stroke:#ffffff;stroke-width:0.48;"/>
    <path clip-path="url(#pfb626f5644)" d="M 361.855157 155.77468 
L 361.855157 160.01732 
L 366.097798 160.01732 
L 366.097798 155.77468 
z
" style="fill:#a7226e;stroke:#ffffff;stroke-width:0.48;"/>
    <path clip-path="url(#pfb626f5644)" d="M 368.618793 155.77468 
L 368.618793 160.01732 
L 372.861434 160.01732 
L 372.861434 155.77468 
z
" style="fill:#a7226e;stroke:#ffffff;stroke-width:0.48;"/>
    <path clip-path="url(#pfb626f5644)" d="M 375.38243 155.77468 
L 375.38243 160.01732 
L 379.62507 160.01732 
L 379.62507 155.77468 
z
" style="fill:#a7226e;stroke:#ffffff;stroke-width:0.48;"/>
    <path clip-path="url(#pfb626f5644)" d="M 382.146066 155.77468 
L 382.146066 160.01732 
L 386.388707 160.01732 
L 386.388707 155.77468 
z
" style="fill:#a7226e;stroke:#ffffff;stroke-width:0.48;"/>
    <path clip-path="url(#pfb626f5644)" d="M 388.909702 155.77468 
L 388.909702 160.01732 
L 393.152343 160.01732 
L 393.152343 155.77468 
z
" style="fill:#a7226e;stroke:#ffffff;stroke-width:0.48;"/>
   </g>
   <g id="PathCollection_2"/>
   <g id="PathCollection_3"/>
   <g id="PathCollection_4"/>
   <g id="matplotlib.axis_1">
    <g id="xtick_1">
     <g id="line2d_1">
      <defs>
       <path d="M 0 0 
L 0 3.5 
" id="me599faa269" style="stroke:#000000;stroke-width:0.8;"/>
      </defs>
      <g>
       <use style="stroke:#000000;stroke-width:0.8;" x="59.612841" xlink:href="#me599faa269" y="273.312"/>
      </g>
     </g>
     <g id="text_1">
      <!-- 0.0 -->
      <g transform="translate(51.661278 287.910438)scale(0.1 -0.1)">
       <defs>
        <path d="M 31.78125 66.40625 
Q 24.171875 66.40625 20.328125 58.90625 
Q 16.5 51.421875 16.5 36.375 
Q 16.5 21.390625 20.328125 13.890625 
Q 24.171875 6.390625 31.78125 6.390625 
Q 39.453125 6.390625 43.28125 13.890625 
Q 47.125 21.390625 47.125 36.375 
Q 47.125 51.421875 43.28125 58.90625 
Q 39.453125 66.40625 31.78125 66.40625 
z
M 31.78125 74.21875 
Q 44.046875 74.21875 50.515625 64.515625 
Q 56.984375 54.828125 56.984375 36.375 
Q 56.984375 17.96875 50.515625 8.265625 
Q 44.046875 -1.421875 31.78125 -1.421875 
Q 19.53125 -1.421875 13.0625 8.265625 
Q 6.59375 17.96875 6.59375 36.375 
Q 6.59375 54.828125 13.0625 64.515625 
Q 19.53125 74.21875 31.78125 74.21875 
z
" id="DejaVuSans-48"/>
        <path d="M 10.6875 12.40625 
L 21 12.40625 
L 21 0 
L 10.6875 0 
z
" id="DejaVuSans-46"/>
       </defs>
       <use xlink:href="#DejaVuSans-48"/>
       <use x="63.623047" xlink:href="#DejaVuSans-46"/>
       <use x="95.410156" xlink:href="#DejaVuSans-48"/>
      </g>
     </g>
    </g>
    <g id="xtick_2">
     <g id="line2d_2">
      <g>
       <use style="stroke:#000000;stroke-width:0.8;" x="127.249205" xlink:href="#me599faa269" y="273.312"/>
      </g>
     </g>
     <g id="text_2">
      <!-- 0.2 -->
      <g transform="translate(119.297642 287.910438)scale(0.1 -0.1)">
       <defs>
        <path d="M 19.1875 8.296875 
L 53.609375 8.296875 
L 53.609375 0 
L 7.328125 0 
L 7.328125 8.296875 
Q 12.9375 14.109375 22.625 23.890625 
Q 32.328125 33.6875 34.8125 36.53125 
Q 39.546875 41.84375 41.421875 45.53125 
Q 43.3125 49.21875 43.3125 52.78125 
Q 43.3125 58.59375 39.234375 62.25 
Q 35.15625 65.921875 28.609375 65.921875 
Q 23.96875 65.921875 18.8125 64.3125 
Q 13.671875 62.703125 7.8125 59.421875 
L 7.8125 69.390625 
Q 13.765625 71.78125 18.9375 73 
Q 24.125 74.21875 28.421875 74.21875 
Q 39.75 74.21875 46.484375 68.546875 
Q 53.21875 62.890625 53.21875 53.421875 
Q 53.21875 48.921875 51.53125 44.890625 
Q 49.859375 40.875 45.40625 35.40625 
Q 44.1875 33.984375 37.640625 27.21875 
Q 31.109375 20.453125 19.1875 8.296875 
z
" id="DejaVuSans-50"/>
       </defs>
       <use xlink:href="#DejaVuSans-48"/>
       <use x="63.623047" xlink:href="#DejaVuSans-46"/>
       <use x="95.410156" xlink:href="#DejaVuSans-50"/>
      </g>
     </g>
    </g>
    <g id="xtick_3">
     <g id="line2d_3">
      <g>
       <use style="stroke:#000000;stroke-width:0.8;" x="194.885568" xlink:href="#me599faa269" y="273.312"/>
      </g>
     </g>
     <g id="text_3">
      <!-- 0.4 -->
      <g transform="translate(186.934006 287.910438)scale(0.1 -0.1)">
       <defs>
        <path d="M 37.796875 64.3125 
L 12.890625 25.390625 
L 37.796875 25.390625 
z
M 35.203125 72.90625 
L 47.609375 72.90625 
L 47.609375 25.390625 
L 58.015625 25.390625 
L 58.015625 17.1875 
L 47.609375 17.1875 
L 47.609375 0 
L 37.796875 0 
L 37.796875 17.1875 
L 4.890625 17.1875 
L 4.890625 26.703125 
z
" id="DejaVuSans-52"/>
       </defs>
       <use xlink:href="#DejaVuSans-48"/>
       <use x="63.623047" xlink:href="#DejaVuSans-46"/>
       <use x="95.410156" xlink:href="#DejaVuSans-52"/>
      </g>
     </g>
    </g>
    <g id="xtick_4">
     <g id="line2d_4">
      <g>
       <use style="stroke:#000000;stroke-width:0.8;" x="262.521932" xlink:href="#me599faa269" y="273.312"/>
      </g>
     </g>
     <g id="text_4">
      <!-- 0.6 -->
      <g transform="translate(254.570369 287.910438)scale(0.1 -0.1)">
       <defs>
        <path d="M 33.015625 40.375 
Q 26.375 40.375 22.484375 35.828125 
Q 18.609375 31.296875 18.609375 23.390625 
Q 18.609375 15.53125 22.484375 10.953125 
Q 26.375 6.390625 33.015625 6.390625 
Q 39.65625 6.390625 43.53125 10.953125 
Q 47.40625 15.53125 47.40625 23.390625 
Q 47.40625 31.296875 43.53125 35.828125 
Q 39.65625 40.375 33.015625 40.375 
z
M 52.59375 71.296875 
L 52.59375 62.3125 
Q 48.875 64.0625 45.09375 64.984375 
Q 41.3125 65.921875 37.59375 65.921875 
Q 27.828125 65.921875 22.671875 59.328125 
Q 17.53125 52.734375 16.796875 39.40625 
Q 19.671875 43.65625 24.015625 45.921875 
Q 28.375 48.1875 33.59375 48.1875 
Q 44.578125 48.1875 50.953125 41.515625 
Q 57.328125 34.859375 57.328125 23.390625 
Q 57.328125 12.15625 50.6875 5.359375 
Q 44.046875 -1.421875 33.015625 -1.421875 
Q 20.359375 -1.421875 13.671875 8.265625 
Q 6.984375 17.96875 6.984375 36.375 
Q 6.984375 53.65625 15.1875 63.9375 
Q 23.390625 74.21875 37.203125 74.21875 
Q 40.921875 74.21875 44.703125 73.484375 
Q 48.484375 72.75 52.59375 71.296875 
z
" id="DejaVuSans-54"/>
       </defs>
       <use xlink:href="#DejaVuSans-48"/>
       <use x="63.623047" xlink:href="#DejaVuSans-46"/>
       <use x="95.410156" xlink:href="#DejaVuSans-54"/>
      </g>
     </g>
    </g>
    <g id="xtick_5">
     <g id="line2d_5">
      <g>
       <use style="stroke:#000000;stroke-width:0.8;" x="330.158295" xlink:href="#me599faa269" y="273.312"/>
      </g>
     </g>
     <g id="text_5">
      <!-- 0.8 -->
      <g transform="translate(322.206733 287.910438)scale(0.1 -0.1)">
       <defs>
        <path d="M 31.78125 34.625 
Q 24.75 34.625 20.71875 30.859375 
Q 16.703125 27.09375 16.703125 20.515625 
Q 16.703125 13.921875 20.71875 10.15625 
Q 24.75 6.390625 31.78125 6.390625 
Q 38.8125 6.390625 42.859375 10.171875 
Q 46.921875 13.96875 46.921875 20.515625 
Q 46.921875 27.09375 42.890625 30.859375 
Q 38.875 34.625 31.78125 34.625 
z
M 21.921875 38.8125 
Q 15.578125 40.375 12.03125 44.71875 
Q 8.5 49.078125 8.5 55.328125 
Q 8.5 64.0625 14.71875 69.140625 
Q 20.953125 74.21875 31.78125 74.21875 
Q 42.671875 74.21875 48.875 69.140625 
Q 55.078125 64.0625 55.078125 55.328125 
Q 55.078125 49.078125 51.53125 44.71875 
Q 48 40.375 41.703125 38.8125 
Q 48.828125 37.15625 52.796875 32.3125 
Q 56.78125 27.484375 56.78125 20.515625 
Q 56.78125 9.90625 50.3125 4.234375 
Q 43.84375 -1.421875 31.78125 -1.421875 
Q 19.734375 -1.421875 13.25 4.234375 
Q 6.78125 9.90625 6.78125 20.515625 
Q 6.78125 27.484375 10.78125 32.3125 
Q 14.796875 37.15625 21.921875 38.8125 
z
M 18.3125 54.390625 
Q 18.3125 48.734375 21.84375 45.5625 
Q 25.390625 42.390625 31.78125 42.390625 
Q 38.140625 42.390625 41.71875 45.5625 
Q 45.3125 48.734375 45.3125 54.390625 
Q 45.3125 60.0625 41.71875 63.234375 
Q 38.140625 66.40625 31.78125 66.40625 
Q 25.390625 66.40625 21.84375 63.234375 
Q 18.3125 60.0625 18.3125 54.390625 
z
" id="DejaVuSans-56"/>
       </defs>
       <use xlink:href="#DejaVuSans-48"/>
       <use x="63.623047" xlink:href="#DejaVuSans-46"/>
       <use x="95.410156" xlink:href="#DejaVuSans-56"/>
      </g>
     </g>
    </g>
    <g id="xtick_6">
     <g id="line2d_6">
      <g>
       <use style="stroke:#000000;stroke-width:0.8;" x="397.794659" xlink:href="#me599faa269" y="273.312"/>
      </g>
     </g>
     <g id="text_6">
      <!-- 1.0 -->
      <g transform="translate(389.843097 287.910438)scale(0.1 -0.1)">
       <defs>
        <path d="M 12.40625 8.296875 
L 28.515625 8.296875 
L 28.515625 63.921875 
L 10.984375 60.40625 
L 10.984375 69.390625 
L 28.421875 72.90625 
L 38.28125 72.90625 
L 38.28125 8.296875 
L 54.390625 8.296875 
L 54.390625 0 
L 12.40625 0 
z
" id="DejaVuSans-49"/>
       </defs>
       <use xlink:href="#DejaVuSans-49"/>
       <use x="63.623047" xlink:href="#DejaVuSans-46"/>
       <use x="95.410156" xlink:href="#DejaVuSans-48"/>
      </g>
     </g>
    </g>
    <g id="text_7">
     <!-- cutoff -->
     <g transform="translate(214.245938 301.588562)scale(0.1 -0.1)">
      <defs>
       <path d="M 48.78125 52.59375 
L 48.78125 44.1875 
Q 44.96875 46.296875 41.140625 47.34375 
Q 37.3125 48.390625 33.40625 48.390625 
Q 24.65625 48.390625 19.8125 42.84375 
Q 14.984375 37.3125 14.984375 27.296875 
Q 14.984375 17.28125 19.8125 11.734375 
Q 24.65625 6.203125 33.40625 6.203125 
Q 37.3125 6.203125 41.140625 7.25 
Q 44.96875 8.296875 48.78125 10.40625 
L 48.78125 2.09375 
Q 45.015625 0.34375 40.984375 -0.53125 
Q 36.96875 -1.421875 32.421875 -1.421875 
Q 20.0625 -1.421875 12.78125 6.34375 
Q 5.515625 14.109375 5.515625 27.296875 
Q 5.515625 40.671875 12.859375 48.328125 
Q 20.21875 56 33.015625 56 
Q 37.15625 56 41.109375 55.140625 
Q 45.0625 54.296875 48.78125 52.59375 
z
" id="DejaVuSans-99"/>
       <path d="M 8.5 21.578125 
L 8.5 54.6875 
L 17.484375 54.6875 
L 17.484375 21.921875 
Q 17.484375 14.15625 20.5 10.265625 
Q 23.53125 6.390625 29.59375 6.390625 
Q 36.859375 6.390625 41.078125 11.03125 
Q 45.3125 15.671875 45.3125 23.6875 
L 45.3125 54.6875 
L 54.296875 54.6875 
L 54.296875 0 
L 45.3125 0 
L 45.3125 8.40625 
Q 42.046875 3.421875 37.71875 1 
Q 33.40625 -1.421875 27.6875 -1.421875 
Q 18.265625 -1.421875 13.375 4.4375 
Q 8.5 10.296875 8.5 21.578125 
z
M 31.109375 56 
z
" id="DejaVuSans-117"/>
       <path d="M 18.3125 70.21875 
L 18.3125 54.6875 
L 36.8125 54.6875 
L 36.8125 47.703125 
L 18.3125 47.703125 
L 18.3125 18.015625 
Q 18.3125 11.328125 20.140625 9.421875 
Q 21.96875 7.515625 27.59375 7.515625 
L 36.8125 7.515625 
L 36.8125 0 
L 27.59375 0 
Q 17.1875 0 13.234375 3.875 
Q 9.28125 7.765625 9.28125 18.015625 
L 9.28125 47.703125 
L 2.6875 47.703125 
L 2.6875 54.6875 
L 9.28125 54.6875 
L 9.28125 70.21875 
z
" id="DejaVuSans-116"/>
       <path d="M 30.609375 48.390625 
Q 23.390625 48.390625 19.1875 42.75 
Q 14.984375 37.109375 14.984375 27.296875 
Q 14.984375 17.484375 19.15625 11.84375 
Q 23.34375 6.203125 30.609375 6.203125 
Q 37.796875 6.203125 41.984375 11.859375 
Q 46.1875 17.53125 46.1875 27.296875 
Q 46.1875 37.015625 41.984375 42.703125 
Q 37.796875 48.390625 30.609375 48.390625 
z
M 30.609375 56 
Q 42.328125 56 49.015625 48.375 
Q 55.71875 40.765625 55.71875 27.296875 
Q 55.71875 13.875 49.015625 6.21875 
Q 42.328125 -1.421875 30.609375 -1.421875 
Q 18.84375 -1.421875 12.171875 6.21875 
Q 5.515625 13.875 5.515625 27.296875 
Q 5.515625 40.765625 12.171875 48.375 
Q 18.84375 56 30.609375 56 
z
" id="DejaVuSans-111"/>
       <path d="M 37.109375 75.984375 
L 37.109375 68.5 
L 28.515625 68.5 
Q 23.6875 68.5 21.796875 66.546875 
Q 19.921875 64.59375 19.921875 59.515625 
L 19.921875 54.6875 
L 34.71875 54.6875 
L 34.71875 47.703125 
L 19.921875 47.703125 
L 19.921875 0 
L 10.890625 0 
L 10.890625 47.703125 
L 2.296875 47.703125 
L 2.296875 54.6875 
L 10.890625 54.6875 
L 10.890625 58.5 
Q 10.890625 67.625 15.140625 71.796875 
Q 19.390625 75.984375 28.609375 75.984375 
z
" id="DejaVuSans-102"/>
      </defs>
      <use xlink:href="#DejaVuSans-99"/>
      <use x="54.980469" xlink:href="#DejaVuSans-117"/>
      <use x="118.359375" xlink:href="#DejaVuSans-116"/>
      <use x="157.568359" xlink:href="#DejaVuSans-111"/>
      <use x="218.75" xlink:href="#DejaVuSans-102"/>
      <use x="253.955078" xlink:href="#DejaVuSans-102"/>
     </g>
    </g>
   </g>
   <g id="matplotlib.axis_2">
    <g id="ytick_1">
     <g id="line2d_7">
      <defs>
       <path d="M 0 0 
L -3.5 0 
" id="ma269bc58a0" style="stroke:#000000;stroke-width:0.8;"/>
      </defs>
      <g>
       <use style="stroke:#000000;stroke-width:0.8;" x="50.14375" xlink:href="#ma269bc58a0" y="228.850699"/>
      </g>
     </g>
     <g id="text_8">
      <!-- 0.45 -->
      <g transform="translate(20.878125 232.649918)scale(0.1 -0.1)">
       <defs>
        <path d="M 10.796875 72.90625 
L 49.515625 72.90625 
L 49.515625 64.59375 
L 19.828125 64.59375 
L 19.828125 46.734375 
Q 21.96875 47.46875 24.109375 47.828125 
Q 26.265625 48.1875 28.421875 48.1875 
Q 40.625 48.1875 47.75 41.5 
Q 54.890625 34.8125 54.890625 23.390625 
Q 54.890625 11.625 47.5625 5.09375 
Q 40.234375 -1.421875 26.90625 -1.421875 
Q 22.3125 -1.421875 17.546875 -0.640625 
Q 12.796875 0.140625 7.71875 1.703125 
L 7.71875 11.625 
Q 12.109375 9.234375 16.796875 8.0625 
Q 21.484375 6.890625 26.703125 6.890625 
Q 35.15625 6.890625 40.078125 11.328125 
Q 45.015625 15.765625 45.015625 23.390625 
Q 45.015625 31 40.078125 35.4375 
Q 35.15625 39.890625 26.703125 39.890625 
Q 22.75 39.890625 18.8125 39.015625 
Q 14.890625 38.140625 10.796875 36.28125 
z
" id="DejaVuSans-53"/>
       </defs>
       <use xlink:href="#DejaVuSans-48"/>
       <use x="63.623047" xlink:href="#DejaVuSans-46"/>
       <use x="95.410156" xlink:href="#DejaVuSans-52"/>
       <use x="159.033203" xlink:href="#DejaVuSans-53"/>
      </g>
     </g>
    </g>
    <g id="ytick_2">
     <g id="line2d_8">
      <g>
       <use style="stroke:#000000;stroke-width:0.8;" x="50.14375" xlink:href="#ma269bc58a0" y="176.568289"/>
      </g>
     </g>
     <g id="text_9">
      <!-- 0.50 -->
      <g transform="translate(20.878125 180.367508)scale(0.1 -0.1)">
       <use xlink:href="#DejaVuSans-48"/>
       <use x="63.623047" xlink:href="#DejaVuSans-46"/>
       <use x="95.410156" xlink:href="#DejaVuSans-53"/>
       <use x="159.033203" xlink:href="#DejaVuSans-48"/>
      </g>
     </g>
    </g>
    <g id="ytick_3">
     <g id="line2d_9">
      <g>
       <use style="stroke:#000000;stroke-width:0.8;" x="50.14375" xlink:href="#ma269bc58a0" y="124.28588"/>
      </g>
     </g>
     <g id="text_10">
      <!-- 0.55 -->
      <g transform="translate(20.878125 128.085098)scale(0.1 -0.1)">
       <use xlink:href="#DejaVuSans-48"/>
       <use x="63.623047" xlink:href="#DejaVuSans-46"/>
       <use x="95.410156" xlink:href="#DejaVuSans-53"/>
       <use x="159.033203" xlink:href="#DejaVuSans-53"/>
      </g>
     </g>
    </g>
    <g id="ytick_4">
     <g id="line2d_10">
      <g>
       <use style="stroke:#000000;stroke-width:0.8;" x="50.14375" xlink:href="#ma269bc58a0" y="72.00347"/>
      </g>
     </g>
     <g id="text_11">
      <!-- 0.60 -->
      <g transform="translate(20.878125 75.802689)scale(0.1 -0.1)">
       <use xlink:href="#DejaVuSans-48"/>
       <use x="63.623047" xlink:href="#DejaVuSans-46"/>
       <use x="95.410156" xlink:href="#DejaVuSans-54"/>
       <use x="159.033203" xlink:href="#DejaVuSans-48"/>
      </g>
     </g>
    </g>
    <g id="ytick_5">
     <g id="line2d_11">
      <g>
       <use style="stroke:#000000;stroke-width:0.8;" x="50.14375" xlink:href="#ma269bc58a0" y="19.72106"/>
      </g>
     </g>
     <g id="text_12">
      <!-- 0.65 -->
      <g transform="translate(20.878125 23.520279)scale(0.1 -0.1)">
       <use xlink:href="#DejaVuSans-48"/>
       <use x="63.623047" xlink:href="#DejaVuSans-46"/>
       <use x="95.410156" xlink:href="#DejaVuSans-54"/>
       <use x="159.033203" xlink:href="#DejaVuSans-53"/>
      </g>
     </g>
    </g>
    <g id="text_13">
     <!-- performance -->
     <g transform="translate(14.798438 172.278656)rotate(-90)scale(0.1 -0.1)">
      <defs>
       <path d="M 18.109375 8.203125 
L 18.109375 -20.796875 
L 9.078125 -20.796875 
L 9.078125 54.6875 
L 18.109375 54.6875 
L 18.109375 46.390625 
Q 20.953125 51.265625 25.265625 53.625 
Q 29.59375 56 35.59375 56 
Q 45.5625 56 51.78125 48.09375 
Q 58.015625 40.1875 58.015625 27.296875 
Q 58.015625 14.40625 51.78125 6.484375 
Q 45.5625 -1.421875 35.59375 -1.421875 
Q 29.59375 -1.421875 25.265625 0.953125 
Q 20.953125 3.328125 18.109375 8.203125 
z
M 48.6875 27.296875 
Q 48.6875 37.203125 44.609375 42.84375 
Q 40.53125 48.484375 33.40625 48.484375 
Q 26.265625 48.484375 22.1875 42.84375 
Q 18.109375 37.203125 18.109375 27.296875 
Q 18.109375 17.390625 22.1875 11.75 
Q 26.265625 6.109375 33.40625 6.109375 
Q 40.53125 6.109375 44.609375 11.75 
Q 48.6875 17.390625 48.6875 27.296875 
z
" id="DejaVuSans-112"/>
       <path d="M 56.203125 29.59375 
L 56.203125 25.203125 
L 14.890625 25.203125 
Q 15.484375 15.921875 20.484375 11.0625 
Q 25.484375 6.203125 34.421875 6.203125 
Q 39.59375 6.203125 44.453125 7.46875 
Q 49.3125 8.734375 54.109375 11.28125 
L 54.109375 2.78125 
Q 49.265625 0.734375 44.1875 -0.34375 
Q 39.109375 -1.421875 33.890625 -1.421875 
Q 20.796875 -1.421875 13.15625 6.1875 
Q 5.515625 13.8125 5.515625 26.8125 
Q 5.515625 40.234375 12.765625 48.109375 
Q 20.015625 56 32.328125 56 
Q 43.359375 56 49.78125 48.890625 
Q 56.203125 41.796875 56.203125 29.59375 
z
M 47.21875 32.234375 
Q 47.125 39.59375 43.09375 43.984375 
Q 39.0625 48.390625 32.421875 48.390625 
Q 24.90625 48.390625 20.390625 44.140625 
Q 15.875 39.890625 15.1875 32.171875 
z
" id="DejaVuSans-101"/>
       <path d="M 41.109375 46.296875 
Q 39.59375 47.171875 37.8125 47.578125 
Q 36.03125 48 33.890625 48 
Q 26.265625 48 22.1875 43.046875 
Q 18.109375 38.09375 18.109375 28.8125 
L 18.109375 0 
L 9.078125 0 
L 9.078125 54.6875 
L 18.109375 54.6875 
L 18.109375 46.1875 
Q 20.953125 51.171875 25.484375 53.578125 
Q 30.03125 56 36.53125 56 
Q 37.453125 56 38.578125 55.875 
Q 39.703125 55.765625 41.0625 55.515625 
z
" id="DejaVuSans-114"/>
       <path d="M 52 44.1875 
Q 55.375 50.25 60.0625 53.125 
Q 64.75 56 71.09375 56 
Q 79.640625 56 84.28125 50.015625 
Q 88.921875 44.046875 88.921875 33.015625 
L 88.921875 0 
L 79.890625 0 
L 79.890625 32.71875 
Q 79.890625 40.578125 77.09375 44.375 
Q 74.3125 48.1875 68.609375 48.1875 
Q 61.625 48.1875 57.5625 43.546875 
Q 53.515625 38.921875 53.515625 30.90625 
L 53.515625 0 
L 44.484375 0 
L 44.484375 32.71875 
Q 44.484375 40.625 41.703125 44.40625 
Q 38.921875 48.1875 33.109375 48.1875 
Q 26.21875 48.1875 22.15625 43.53125 
Q 18.109375 38.875 18.109375 30.90625 
L 18.109375 0 
L 9.078125 0 
L 9.078125 54.6875 
L 18.109375 54.6875 
L 18.109375 46.1875 
Q 21.1875 51.21875 25.484375 53.609375 
Q 29.78125 56 35.6875 56 
Q 41.65625 56 45.828125 52.96875 
Q 50 49.953125 52 44.1875 
z
" id="DejaVuSans-109"/>
       <path d="M 34.28125 27.484375 
Q 23.390625 27.484375 19.1875 25 
Q 14.984375 22.515625 14.984375 16.5 
Q 14.984375 11.71875 18.140625 8.90625 
Q 21.296875 6.109375 26.703125 6.109375 
Q 34.1875 6.109375 38.703125 11.40625 
Q 43.21875 16.703125 43.21875 25.484375 
L 43.21875 27.484375 
z
M 52.203125 31.203125 
L 52.203125 0 
L 43.21875 0 
L 43.21875 8.296875 
Q 40.140625 3.328125 35.546875 0.953125 
Q 30.953125 -1.421875 24.3125 -1.421875 
Q 15.921875 -1.421875 10.953125 3.296875 
Q 6 8.015625 6 15.921875 
Q 6 25.140625 12.171875 29.828125 
Q 18.359375 34.515625 30.609375 34.515625 
L 43.21875 34.515625 
L 43.21875 35.40625 
Q 43.21875 41.609375 39.140625 45 
Q 35.0625 48.390625 27.6875 48.390625 
Q 23 48.390625 18.546875 47.265625 
Q 14.109375 46.140625 10.015625 43.890625 
L 10.015625 52.203125 
Q 14.9375 54.109375 19.578125 55.046875 
Q 24.21875 56 28.609375 56 
Q 40.484375 56 46.34375 49.84375 
Q 52.203125 43.703125 52.203125 31.203125 
z
" id="DejaVuSans-97"/>
       <path d="M 54.890625 33.015625 
L 54.890625 0 
L 45.90625 0 
L 45.90625 32.71875 
Q 45.90625 40.484375 42.875 44.328125 
Q 39.84375 48.1875 33.796875 48.1875 
Q 26.515625 48.1875 22.3125 43.546875 
Q 18.109375 38.921875 18.109375 30.90625 
L 18.109375 0 
L 9.078125 0 
L 9.078125 54.6875 
L 18.109375 54.6875 
L 18.109375 46.1875 
Q 21.34375 51.125 25.703125 53.5625 
Q 30.078125 56 35.796875 56 
Q 45.21875 56 50.046875 50.171875 
Q 54.890625 44.34375 54.890625 33.015625 
z
" id="DejaVuSans-110"/>
      </defs>
      <use xlink:href="#DejaVuSans-112"/>
      <use x="63.476562" xlink:href="#DejaVuSans-101"/>
      <use x="125" xlink:href="#DejaVuSans-114"/>
      <use x="166.113281" xlink:href="#DejaVuSans-102"/>
      <use x="201.318359" xlink:href="#DejaVuSans-111"/>
      <use x="262.5" xlink:href="#DejaVuSans-114"/>
      <use x="301.863281" xlink:href="#DejaVuSans-109"/>
      <use x="399.275391" xlink:href="#DejaVuSans-97"/>
      <use x="460.554688" xlink:href="#DejaVuSans-110"/>
      <use x="523.933594" xlink:href="#DejaVuSans-99"/>
      <use x="578.914062" xlink:href="#DejaVuSans-101"/>
     </g>
    </g>
   </g>
   <g id="line2d_12">
    <path clip-path="url(#pfb626f5644)" d="M 66.376477 19.296 
L 73.140114 30.863213 
L 79.90375 30.863213 
L 86.667386 30.863213 
L 93.431023 19.296 
L 100.194659 30.863213 
L 106.958295 42.62162 
L 113.721932 42.62162 
L 120.485568 42.62162 
L 127.249205 42.62162 
L 134.012841 117.466435 
L 140.776477 130.706526 
L 147.540114 157.896 
L 154.30375 130.706526 
L 161.067386 171.858162 
L 167.831023 171.858162 
L 174.594659 171.858162 
L 181.358295 171.858162 
L 188.121932 157.896 
L 194.885568 171.858162 
L 201.649205 215.296 
L 208.412841 215.296 
L 215.176477 215.296 
L 221.940114 215.296 
L 228.70375 200.551046 
L 235.467386 171.858162 
L 242.231023 171.858162 
L 248.994659 171.858162 
L 255.758295 171.858162 
L 262.521932 171.858162 
L 269.285568 171.858162 
L 276.049205 171.858162 
L 282.812841 171.858162 
L 289.576477 171.858162 
L 296.340114 171.858162 
L 303.10375 171.858162 
L 309.867386 171.858162 
L 316.631023 171.858162 
L 323.394659 171.858162 
L 330.158295 171.858162 
L 336.921932 171.858162 
L 343.685568 171.858162 
L 350.449205 171.858162 
L 357.212841 171.858162 
L 363.976477 171.858162 
L 370.740114 171.858162 
L 377.50375 171.858162 
L 384.267386 171.858162 
L 391.031023 171.858162 
" style="fill:none;stroke:#f26b38;stroke-dasharray:7.4,3.2;stroke-dashoffset:0;stroke-width:2;"/>
   </g>
   <g id="line2d_13">
    <path clip-path="url(#pfb626f5644)" d="M 66.376477 30.863213 
L 73.140114 42.62162 
L 79.90375 117.466435 
L 86.667386 157.896 
L 93.431023 130.706526 
L 100.194659 171.858162 
L 106.958295 171.858162 
L 113.721932 171.858162 
L 120.485568 171.858162 
L 127.249205 117.466435 
L 134.012841 104.454621 
L 140.776477 230.316561 
L 147.540114 230.316561 
L 154.30375 230.316561 
L 161.067386 230.316561 
L 167.831023 261.216 
L 174.594659 230.316561 
L 181.358295 230.316561 
L 188.121932 230.316561 
L 194.885568 230.316561 
L 201.649205 230.316561 
L 208.412841 230.316561 
L 215.176477 230.316561 
L 221.940114 230.316561 
L 228.70375 230.316561 
L 235.467386 230.316561 
L 242.231023 230.316561 
L 248.994659 230.316561 
L 255.758295 230.316561 
L 262.521932 230.316561 
L 269.285568 230.316561 
L 276.049205 230.316561 
L 282.812841 230.316561 
L 289.576477 230.316561 
L 296.340114 230.316561 
L 303.10375 230.316561 
L 309.867386 230.316561 
L 316.631023 230.316561 
L 323.394659 230.316561 
L 330.158295 230.316561 
L 336.921932 230.316561 
L 343.685568 230.316561 
L 350.449205 230.316561 
L 357.212841 230.316561 
L 363.976477 230.316561 
L 370.740114 230.316561 
L 377.50375 230.316561 
L 384.267386 230.316561 
L 391.031023 230.316561 
" style="fill:none;stroke:#2f9599;stroke-dasharray:2,3.3;stroke-dashoffset:0;stroke-width:2;"/>
   </g>
   <g id="line2d_14">
    <path clip-path="url(#pfb626f5644)" d="M 66.376477 19.296 
L 73.140114 19.296 
L 79.90375 19.296 
L 86.667386 19.296 
L 93.431023 19.296 
L 100.194659 19.296 
L 106.958295 19.296 
L 113.721932 30.863213 
L 120.485568 30.863213 
L 127.249205 19.296 
L 134.012841 19.296 
L 140.776477 30.863213 
L 147.540114 30.863213 
L 154.30375 30.863213 
L 161.067386 19.296 
L 167.831023 117.466435 
L 174.594659 117.466435 
L 181.358295 171.858162 
L 188.121932 171.858162 
L 194.885568 157.896 
L 201.649205 157.896 
L 208.412841 157.896 
L 215.176477 144.180956 
L 221.940114 144.180956 
L 228.70375 144.180956 
L 235.467386 144.180956 
L 242.231023 144.180956 
L 248.994659 91.665231 
L 255.758295 144.180956 
L 262.521932 200.551046 
L 269.285568 186.074182 
L 276.049205 186.074182 
L 282.812841 186.074182 
L 289.576477 157.896 
L 296.340114 157.896 
L 303.10375 157.896 
L 309.867386 157.896 
L 316.631023 157.896 
L 323.394659 157.896 
L 330.158295 157.896 
L 336.921932 157.896 
L 343.685568 157.896 
L 350.449205 157.896 
L 357.212841 157.896 
L 363.976477 157.896 
L 370.740114 157.896 
L 377.50375 157.896 
L 384.267386 157.896 
L 391.031023 157.896 
" style="fill:none;stroke:#a7226e;stroke-dasharray:12.8,3.2,2,3.2;stroke-dashoffset:0;stroke-width:2;"/>
   </g>
   <g id="patch_3">
    <path d="M 50.14375 273.312 
L 50.14375 7.2 
" style="fill:none;stroke:#000000;stroke-linecap:square;stroke-linejoin:miter;stroke-width:0.8;"/>
   </g>
   <g id="patch_4">
    <path d="M 407.26375 273.312 
L 407.26375 7.2 
" style="fill:none;stroke:#000000;stroke-linecap:square;stroke-linejoin:miter;stroke-width:0.8;"/>
   </g>
   <g id="patch_5">
    <path d="M 50.14375 273.312 
L 407.26375 273.312 
" style="fill:none;stroke:#000000;stroke-linecap:square;stroke-linejoin:miter;stroke-width:0.8;"/>
   </g>
   <g id="patch_6">
    <path d="M 50.14375 7.2 
L 407.26375 7.2 
" style="fill:none;stroke:#000000;stroke-linecap:square;stroke-linejoin:miter;stroke-width:0.8;"/>
   </g>
   <g id="legend_1">
    <g id="patch_7">
     <path d="M 321.790059 43.890913 
L 402.40575 43.890913 
Q 403.79375 43.890913 403.79375 42.502913 
L 403.79375 12.058 
Q 403.79375 10.67 402.40575 10.67 
L 321.790059 10.67 
Q 320.402059 10.67 320.402059 12.058 
L 320.402059 42.502913 
Q 320.402059 43.890913 321.790059 43.890913 
z
" style="fill:#ffffff;opacity:0.8;stroke:#cccccc;stroke-linejoin:miter;"/>
    </g>
    <g id="PathCollection_5">
     <defs>
      <path d="M 0 3 
C 0.795609 3 1.55874 2.683901 2.12132 2.12132 
C 2.683901 1.55874 3 0.795609 3 0 
C 3 -0.795609 2.683901 -1.55874 2.12132 -2.12132 
C 1.55874 -2.683901 0.795609 -3 0 -3 
C -0.795609 -3 -1.55874 -2.683901 -2.12132 -2.12132 
C -2.683901 -1.55874 -3 -0.795609 -3 0 
C -3 0.795609 -2.683901 1.55874 -2.12132 2.12132 
C -1.55874 2.683901 -0.795609 3 0 3 
z
" id="mf1c0ea9157" style="stroke:#f26b38;"/>
     </defs>
     <g>
      <use style="fill:#f26b38;stroke:#f26b38;" x="330.118059" xlink:href="#mf1c0ea9157" y="16.897566"/>
     </g>
    </g>
    <g id="text_14">
     <!-- mean_err -->
     <g transform="translate(342.610059 18.719316)scale(0.0694 -0.0694)">
      <defs>
       <path d="M 50.984375 -16.609375 
L 50.984375 -23.578125 
L -0.984375 -23.578125 
L -0.984375 -16.609375 
z
" id="DejaVuSans-95"/>
      </defs>
      <use xlink:href="#DejaVuSans-109"/>
      <use x="97.412109" xlink:href="#DejaVuSans-101"/>
      <use x="158.935547" xlink:href="#DejaVuSans-97"/>
      <use x="220.214844" xlink:href="#DejaVuSans-110"/>
      <use x="283.59375" xlink:href="#DejaVuSans-95"/>
      <use x="333.59375" xlink:href="#DejaVuSans-101"/>
      <use x="395.117188" xlink:href="#DejaVuSans-114"/>
      <use x="434.480469" xlink:href="#DejaVuSans-114"/>
     </g>
    </g>
    <g id="PathCollection_6">
     <defs>
      <path d="M -1.5 3 
L 0 1.5 
L 1.5 3 
L 3 1.5 
L 1.5 0 
L 3 -1.5 
L 1.5 -3 
L 0 -1.5 
L -1.5 -3 
L -3 -1.5 
L -1.5 0 
L -3 1.5 
z
" id="mcece4c0c92" style="stroke:#2f9599;"/>
     </defs>
     <g>
      <use style="fill:#2f9599;stroke:#2f9599;" x="330.118059" xlink:href="#mcece4c0c92" y="27.277203"/>
     </g>
    </g>
    <g id="text_15">
     <!-- mean_sq_err -->
     <g transform="translate(342.610059 29.098953)scale(0.0694 -0.0694)">
      <defs>
       <path d="M 44.28125 53.078125 
L 44.28125 44.578125 
Q 40.484375 46.53125 36.375 47.5 
Q 32.28125 48.484375 27.875 48.484375 
Q 21.1875 48.484375 17.84375 46.4375 
Q 14.5 44.390625 14.5 40.28125 
Q 14.5 37.15625 16.890625 35.375 
Q 19.28125 33.59375 26.515625 31.984375 
L 29.59375 31.296875 
Q 39.15625 29.25 43.1875 25.515625 
Q 47.21875 21.78125 47.21875 15.09375 
Q 47.21875 7.46875 41.1875 3.015625 
Q 35.15625 -1.421875 24.609375 -1.421875 
Q 20.21875 -1.421875 15.453125 -0.5625 
Q 10.6875 0.296875 5.421875 2 
L 5.421875 11.28125 
Q 10.40625 8.6875 15.234375 7.390625 
Q 20.0625 6.109375 24.8125 6.109375 
Q 31.15625 6.109375 34.5625 8.28125 
Q 37.984375 10.453125 37.984375 14.40625 
Q 37.984375 18.0625 35.515625 20.015625 
Q 33.0625 21.96875 24.703125 23.78125 
L 21.578125 24.515625 
Q 13.234375 26.265625 9.515625 29.90625 
Q 5.8125 33.546875 5.8125 39.890625 
Q 5.8125 47.609375 11.28125 51.796875 
Q 16.75 56 26.8125 56 
Q 31.78125 56 36.171875 55.265625 
Q 40.578125 54.546875 44.28125 53.078125 
z
" id="DejaVuSans-115"/>
       <path d="M 14.796875 27.296875 
Q 14.796875 17.390625 18.875 11.75 
Q 22.953125 6.109375 30.078125 6.109375 
Q 37.203125 6.109375 41.296875 11.75 
Q 45.40625 17.390625 45.40625 27.296875 
Q 45.40625 37.203125 41.296875 42.84375 
Q 37.203125 48.484375 30.078125 48.484375 
Q 22.953125 48.484375 18.875 42.84375 
Q 14.796875 37.203125 14.796875 27.296875 
z
M 45.40625 8.203125 
Q 42.578125 3.328125 38.25 0.953125 
Q 33.9375 -1.421875 27.875 -1.421875 
Q 17.96875 -1.421875 11.734375 6.484375 
Q 5.515625 14.40625 5.515625 27.296875 
Q 5.515625 40.1875 11.734375 48.09375 
Q 17.96875 56 27.875 56 
Q 33.9375 56 38.25 53.625 
Q 42.578125 51.265625 45.40625 46.390625 
L 45.40625 54.6875 
L 54.390625 54.6875 
L 54.390625 -20.796875 
L 45.40625 -20.796875 
z
" id="DejaVuSans-113"/>
      </defs>
      <use xlink:href="#DejaVuSans-109"/>
      <use x="97.412109" xlink:href="#DejaVuSans-101"/>
      <use x="158.935547" xlink:href="#DejaVuSans-97"/>
      <use x="220.214844" xlink:href="#DejaVuSans-110"/>
      <use x="283.59375" xlink:href="#DejaVuSans-95"/>
      <use x="333.59375" xlink:href="#DejaVuSans-115"/>
      <use x="385.693359" xlink:href="#DejaVuSans-113"/>
      <use x="449.169922" xlink:href="#DejaVuSans-95"/>
      <use x="499.169922" xlink:href="#DejaVuSans-101"/>
      <use x="560.693359" xlink:href="#DejaVuSans-114"/>
      <use x="600.056641" xlink:href="#DejaVuSans-114"/>
     </g>
    </g>
    <g id="PathCollection_7">
     <defs>
      <path d="M -2.12132 -2.12132 
L -2.12132 2.12132 
L 2.12132 2.12132 
L 2.12132 -2.12132 
z
" id="m3896907497" style="stroke:#a7226e;"/>
     </defs>
     <g>
      <use style="fill:#a7226e;stroke:#a7226e;" x="330.118059" xlink:href="#m3896907497" y="37.656841"/>
     </g>
    </g>
    <g id="text_16">
     <!-- mean_sqroot_err -->
     <g transform="translate(342.610059 39.478591)scale(0.0694 -0.0694)">
      <use xlink:href="#DejaVuSans-109"/>
      <use x="97.412109" xlink:href="#DejaVuSans-101"/>
      <use x="158.935547" xlink:href="#DejaVuSans-97"/>
      <use x="220.214844" xlink:href="#DejaVuSans-110"/>
      <use x="283.59375" xlink:href="#DejaVuSans-95"/>
      <use x="333.59375" xlink:href="#DejaVuSans-115"/>
      <use x="385.693359" xlink:href="#DejaVuSans-113"/>
      <use x="449.169922" xlink:href="#DejaVuSans-114"/>
      <use x="488.033203" xlink:href="#DejaVuSans-111"/>
      <use x="549.214844" xlink:href="#DejaVuSans-111"/>
      <use x="610.396484" xlink:href="#DejaVuSans-116"/>
      <use x="649.605469" xlink:href="#DejaVuSans-95"/>
      <use x="699.605469" xlink:href="#DejaVuSans-101"/>
      <use x="761.128906" xlink:href="#DejaVuSans-114"/>
      <use x="800.492188" xlink:href="#DejaVuSans-114"/>
     </g>
    </g>
   </g>
  </g>
 </g>
 <defs>
  <clipPath id="pfb626f5644">
   <rect height="266.112" width="357.12" x="50.14375" y="7.2"/>
  </clipPath>
 </defs>
</svg>
