<?xml version="1.0" encoding="utf-8" standalone="no"?>
<!DOCTYPE svg PUBLIC "-//W3C//DTD SVG 1.1//EN"
  "http://www.w3.org/Graphics/SVG/1.1/DTD/svg11.dtd">
<!-- Created with matplotlib (https://matplotlib.org/) -->
<svg height="310.86825pt" version="1.1" viewBox="0 0 420.82625 310.86825" width="420.82625pt" xmlns="http://www.w3.org/2000/svg" xmlns:xlink="http://www.w3.org/1999/xlink">
 <metadata>
  <rdf:RDF xmlns:cc="http://creativecommons.org/ns#" xmlns:dc="http://purl.org/dc/elements/1.1/" xmlns:rdf="http://www.w3.org/1999/02/22-rdf-syntax-ns#">
   <cc:Work>
    <dc:type rdf:resource="http://purl.org/dc/dcmitype/StillImage"/>
    <dc:date>2022-05-27T21:58:06.123122</dc:date>
    <dc:format>image/svg+xml</dc:format>
    <dc:creator>
     <cc:Agent>
      <dc:title>Matplotlib v3.3.4, https://matplotlib.org/</dc:title>
     </cc:Agent>
    </dc:creator>
   </cc:Work>
  </rdf:RDF>
 </metadata>
 <defs>
  <style type="text/css">*{stroke-linecap:butt;stroke-linejoin:round;}</style>
 </defs>
 <g id="figure_1">
  <g id="patch_1">
   <path d="M 0 310.86825 
L 420.82625 310.86825 
L 420.82625 0 
L 0 0 
z
" style="fill:#ffffff;"/>
  </g>
  <g id="axes_1">
   <g id="patch_2">
    <path d="M 56.50625 273.312 
L 413.62625 273.312 
L 413.62625 7.2 
L 56.50625 7.2 
z
" style="fill:#ffffff;"/>
   </g>
   <g id="PathCollection_1">
    <path clip-path="url(#p9075014b2d)" d="M 72.738977 23.628313 
C 73.534587 23.628313 74.297717 23.312214 74.860298 22.749633 
C 75.422878 22.187053 75.738977 21.423922 75.738977 20.628313 
C 75.738977 19.832704 75.422878 19.069573 74.860298 18.506993 
C 74.297717 17.944412 73.534587 17.628313 72.738977 17.628313 
C 71.943368 17.628313 71.180238 17.944412 70.617657 18.506993 
C 70.055076 19.069573 69.738977 19.832704 69.738977 20.628313 
C 69.738977 21.423922 70.055076 22.187053 70.617657 22.749633 
C 71.180238 23.312214 71.943368 23.628313 72.738977 23.628313 
z
" style="fill:#f26b38;stroke:#ffffff;stroke-width:0.48;"/>
    <path clip-path="url(#p9075014b2d)" d="M 79.502614 32.828475 
C 80.298223 32.828475 81.061353 32.512376 81.623934 31.949795 
C 82.186515 31.387214 82.502614 30.624084 82.502614 29.828475 
C 82.502614 29.032865 82.186515 28.269735 81.623934 27.707154 
C 81.061353 27.144574 80.298223 26.828475 79.502614 26.828475 
C 78.707004 26.828475 77.943874 27.144574 77.381293 27.707154 
C 76.818713 28.269735 76.502614 29.032865 76.502614 29.828475 
C 76.502614 30.624084 76.818713 31.387214 77.381293 31.949795 
C 77.943874 32.512376 78.707004 32.828475 79.502614 32.828475 
z
" style="fill:#f26b38;stroke:#ffffff;stroke-width:0.48;"/>
    <path clip-path="url(#p9075014b2d)" d="M 86.26625 32.828475 
C 87.061859 32.828475 87.82499 32.512376 88.38757 31.949795 
C 88.950151 31.387214 89.26625 30.624084 89.26625 29.828475 
C 89.26625 29.032865 88.950151 28.269735 88.38757 27.707154 
C 87.82499 27.144574 87.061859 26.828475 86.26625 26.828475 
C 85.470641 26.828475 84.70751 27.144574 84.14493 27.707154 
C 83.582349 28.269735 83.26625 29.032865 83.26625 29.828475 
C 83.26625 30.624084 83.582349 31.387214 84.14493 31.949795 
C 84.70751 32.512376 85.470641 32.828475 86.26625 32.828475 
z
" style="fill:#f26b38;stroke:#ffffff;stroke-width:0.48;"/>
    <path clip-path="url(#p9075014b2d)" d="M 93.029886 32.828475 
C 93.825496 32.828475 94.588626 32.512376 95.151207 31.949795 
C 95.713787 31.387214 96.029886 30.624084 96.029886 29.828475 
C 96.029886 29.032865 95.713787 28.269735 95.151207 27.707154 
C 94.588626 27.144574 93.825496 26.828475 93.029886 26.828475 
C 92.234277 26.828475 91.471147 27.144574 90.908566 27.707154 
C 90.345985 28.269735 90.029886 29.032865 90.029886 29.828475 
C 90.029886 30.624084 90.345985 31.387214 90.908566 31.949795 
C 91.471147 32.512376 92.234277 32.828475 93.029886 32.828475 
z
" style="fill:#f26b38;stroke:#ffffff;stroke-width:0.48;"/>
    <path clip-path="url(#p9075014b2d)" d="M 99.793523 23.628313 
C 100.589132 23.628313 101.352262 23.312214 101.914843 22.749633 
C 102.477424 22.187053 102.793523 21.423922 102.793523 20.628313 
C 102.793523 19.832704 102.477424 19.069573 101.914843 18.506993 
C 101.352262 17.944412 100.589132 17.628313 99.793523 17.628313 
C 98.997913 17.628313 98.234783 17.944412 97.672202 18.506993 
C 97.109622 19.069573 96.793523 19.832704 96.793523 20.628313 
C 96.793523 21.423922 97.109622 22.187053 97.672202 22.749633 
C 98.234783 23.312214 98.997913 23.628313 99.793523 23.628313 
z
" style="fill:#f26b38;stroke:#ffffff;stroke-width:0.48;"/>
    <path clip-path="url(#p9075014b2d)" d="M 106.557159 32.828475 
C 107.352768 32.828475 108.115899 32.512376 108.678479 31.949795 
C 109.24106 31.387214 109.557159 30.624084 109.557159 29.828475 
C 109.557159 29.032865 109.24106 28.269735 108.678479 27.707154 
C 108.115899 27.144574 107.352768 26.828475 106.557159 26.828475 
C 105.76155 26.828475 104.998419 27.144574 104.435839 27.707154 
C 103.873258 28.269735 103.557159 29.032865 103.557159 29.828475 
C 103.557159 30.624084 103.873258 31.387214 104.435839 31.949795 
C 104.998419 32.512376 105.76155 32.828475 106.557159 32.828475 
z
" style="fill:#f26b38;stroke:#ffffff;stroke-width:0.48;"/>
    <path clip-path="url(#p9075014b2d)" d="M 113.320795 42.280696 
C 114.116405 42.280696 114.879535 41.964597 115.442116 41.402016 
C 116.004697 40.839435 116.320795 40.076305 116.320795 39.280696 
C 116.320795 38.485086 116.004697 37.721956 115.442116 37.159375 
C 114.879535 36.596795 114.116405 36.280696 113.320795 36.280696 
C 112.525186 36.280696 111.762056 36.596795 111.199475 37.159375 
C 110.636894 37.721956 110.320795 38.485086 110.320795 39.280696 
C 110.320795 40.076305 110.636894 40.839435 111.199475 41.402016 
C 111.762056 41.964597 112.525186 42.280696 113.320795 42.280696 
z
" style="fill:#f26b38;stroke:#ffffff;stroke-width:0.48;"/>
    <path clip-path="url(#p9075014b2d)" d="M 120.084432 42.280696 
C 120.880041 42.280696 121.643171 41.964597 122.205752 41.402016 
C 122.768333 40.839435 123.084432 40.076305 123.084432 39.280696 
C 123.084432 38.485086 122.768333 37.721956 122.205752 37.159375 
C 121.643171 36.596795 120.880041 36.280696 120.084432 36.280696 
C 119.288823 36.280696 118.525692 36.596795 117.963111 37.159375 
C 117.400531 37.721956 117.084432 38.485086 117.084432 39.280696 
C 117.084432 40.076305 117.400531 40.839435 117.963111 41.402016 
C 118.525692 41.964597 119.288823 42.280696 120.084432 42.280696 
z
" style="fill:#f26b38;stroke:#ffffff;stroke-width:0.48;"/>
    <path clip-path="url(#p9075014b2d)" d="M 126.848068 42.280696 
C 127.643677 42.280696 128.406808 41.964597 128.969389 41.402016 
C 129.531969 40.839435 129.848068 40.076305 129.848068 39.280696 
C 129.848068 38.485086 129.531969 37.721956 128.969389 37.159375 
C 128.406808 36.596795 127.643677 36.280696 126.848068 36.280696 
C 126.052459 36.280696 125.289329 36.596795 124.726748 37.159375 
C 124.164167 37.721956 123.848068 38.485086 123.848068 39.280696 
C 123.848068 40.076305 124.164167 40.839435 124.726748 41.402016 
C 125.289329 41.964597 126.052459 42.280696 126.848068 42.280696 
z
" style="fill:#f26b38;stroke:#ffffff;stroke-width:0.48;"/>
    <path clip-path="url(#p9075014b2d)" d="M 133.611705 42.280696 
C 134.407314 42.280696 135.170444 41.964597 135.733025 41.402016 
C 136.295606 40.839435 136.611705 40.076305 136.611705 39.280696 
C 136.611705 38.485086 136.295606 37.721956 135.733025 37.159375 
C 135.170444 36.596795 134.407314 36.280696 133.611705 36.280696 
C 132.816095 36.280696 132.052965 36.596795 131.490384 37.159375 
C 130.927803 37.721956 130.611705 38.485086 130.611705 39.280696 
C 130.611705 40.076305 130.927803 40.839435 131.490384 41.402016 
C 132.052965 41.964597 132.816095 42.280696 133.611705 42.280696 
z
" style="fill:#f26b38;stroke:#ffffff;stroke-width:0.48;"/>
    <path clip-path="url(#p9075014b2d)" d="M 140.375341 104.919294 
C 141.17095 104.919294 141.934081 104.603195 142.496661 104.040614 
C 143.059242 103.478034 143.375341 102.714903 143.375341 101.919294 
C 143.375341 101.123685 143.059242 100.360554 142.496661 99.797974 
C 141.934081 99.235393 141.17095 98.919294 140.375341 98.919294 
C 139.579732 98.919294 138.816601 99.235393 138.254021 99.797974 
C 137.69144 100.360554 137.375341 101.123685 137.375341 101.919294 
C 137.375341 102.714903 137.69144 103.478034 138.254021 104.040614 
C 138.816601 104.603195 139.579732 104.919294 140.375341 104.919294 
z
" style="fill:#f26b38;stroke:#ffffff;stroke-width:0.48;"/>
    <path clip-path="url(#p9075014b2d)" d="M 147.138977 116.466308 
C 147.934587 116.466308 148.697717 116.150209 149.260298 115.587629 
C 149.822878 115.025048 150.138977 114.261918 150.138977 113.466308 
C 150.138977 112.670699 149.822878 111.907569 149.260298 111.344988 
C 148.697717 110.782407 147.934587 110.466308 147.138977 110.466308 
C 146.343368 110.466308 145.580238 110.782407 145.017657 111.344988 
C 144.455076 111.907569 144.138977 112.670699 144.138977 113.466308 
C 144.138977 114.261918 144.455076 115.025048 145.017657 115.587629 
C 145.580238 116.150209 146.343368 116.466308 147.138977 116.466308 
z
" style="fill:#f26b38;stroke:#ffffff;stroke-width:0.48;"/>
    <path clip-path="url(#p9075014b2d)" d="M 153.902614 140.64287 
C 154.698223 140.64287 155.461353 140.326771 156.023934 139.76419 
C 156.586515 139.201609 156.902614 138.438479 156.902614 137.64287 
C 156.902614 136.84726 156.586515 136.08413 156.023934 135.521549 
C 155.461353 134.958968 154.698223 134.64287 153.902614 134.64287 
C 153.107004 134.64287 152.343874 134.958968 151.781293 135.521549 
C 151.218713 136.08413 150.902614 136.84726 150.902614 137.64287 
C 150.902614 138.438479 151.218713 139.201609 151.781293 139.76419 
C 152.343874 140.326771 153.107004 140.64287 153.902614 140.64287 
z
" style="fill:#f26b38;stroke:#ffffff;stroke-width:0.48;"/>
    <path clip-path="url(#p9075014b2d)" d="M 160.66625 116.466308 
C 161.461859 116.466308 162.22499 116.150209 162.78757 115.587629 
C 163.350151 115.025048 163.66625 114.261918 163.66625 113.466308 
C 163.66625 112.670699 163.350151 111.907569 162.78757 111.344988 
C 162.22499 110.782407 161.461859 110.466308 160.66625 110.466308 
C 159.870641 110.466308 159.10751 110.782407 158.54493 111.344988 
C 157.982349 111.907569 157.66625 112.670699 157.66625 113.466308 
C 157.66625 114.261918 157.982349 115.025048 158.54493 115.587629 
C 159.10751 116.150209 159.870641 116.466308 160.66625 116.466308 
z
" style="fill:#f26b38;stroke:#ffffff;stroke-width:0.48;"/>
    <path clip-path="url(#p9075014b2d)" d="M 167.429886 153.306783 
C 168.225496 153.306783 168.988626 152.990684 169.551207 152.428103 
C 170.113787 151.865522 170.429886 151.102392 170.429886 150.306783 
C 170.429886 149.511173 170.113787 148.748043 169.551207 148.185462 
C 168.988626 147.622882 168.225496 147.306783 167.429886 147.306783 
C 166.634277 147.306783 165.871147 147.622882 165.308566 148.185462 
C 164.745985 148.748043 164.429886 149.511173 164.429886 150.306783 
C 164.429886 151.102392 164.745985 151.865522 165.308566 152.428103 
C 165.871147 152.990684 166.634277 153.306783 167.429886 153.306783 
z
" style="fill:#f26b38;stroke:#ffffff;stroke-width:0.48;"/>
    <path clip-path="url(#p9075014b2d)" d="M 174.193523 153.306783 
C 174.989132 153.306783 175.752262 152.990684 176.314843 152.428103 
C 176.877424 151.865522 177.193523 151.102392 177.193523 150.306783 
C 177.193523 149.511173 176.877424 148.748043 176.314843 148.185462 
C 175.752262 147.622882 174.989132 147.306783 174.193523 147.306783 
C 173.397913 147.306783 172.634783 147.622882 172.072202 148.185462 
C 171.509622 148.748043 171.193523 149.511173 171.193523 150.306783 
C 171.193523 151.102392 171.509622 151.865522 172.072202 152.428103 
C 172.634783 152.990684 173.397913 153.306783 174.193523 153.306783 
z
" style="fill:#f26b38;stroke:#ffffff;stroke-width:0.48;"/>
    <path clip-path="url(#p9075014b2d)" d="M 180.957159 153.306783 
C 181.752768 153.306783 182.515899 152.990684 183.078479 152.428103 
C 183.64106 151.865522 183.957159 151.102392 183.957159 150.306783 
C 183.957159 149.511173 183.64106 148.748043 183.078479 148.185462 
C 182.515899 147.622882 181.752768 147.306783 180.957159 147.306783 
C 180.16155 147.306783 179.398419 147.622882 178.835839 148.185462 
C 178.273258 148.748043 177.957159 149.511173 177.957159 150.306783 
C 177.957159 151.102392 178.273258 151.865522 178.835839 152.428103 
C 179.398419 152.990684 180.16155 153.306783 180.957159 153.306783 
z
" style="fill:#f26b38;stroke:#ffffff;stroke-width:0.48;"/>
    <path clip-path="url(#p9075014b2d)" d="M 187.720795 153.306783 
C 188.516405 153.306783 189.279535 152.990684 189.842116 152.428103 
C 190.404697 151.865522 190.720795 151.102392 190.720795 150.306783 
C 190.720795 149.511173 190.404697 148.748043 189.842116 148.185462 
C 189.279535 147.622882 188.516405 147.306783 187.720795 147.306783 
C 186.925186 147.306783 186.162056 147.622882 185.599475 148.185462 
C 185.036894 148.748043 184.720795 149.511173 184.720795 150.306783 
C 184.720795 151.102392 185.036894 151.865522 185.599475 152.428103 
C 186.162056 152.990684 186.925186 153.306783 187.720795 153.306783 
z
" style="fill:#f26b38;stroke:#ffffff;stroke-width:0.48;"/>
    <path clip-path="url(#p9075014b2d)" d="M 194.484432 140.64287 
C 195.280041 140.64287 196.043171 140.326771 196.605752 139.76419 
C 197.168333 139.201609 197.484432 138.438479 197.484432 137.64287 
C 197.484432 136.84726 197.168333 136.08413 196.605752 135.521549 
C 196.043171 134.958968 195.280041 134.64287 194.484432 134.64287 
C 193.688823 134.64287 192.925692 134.958968 192.363111 135.521549 
C 191.800531 136.08413 191.484432 136.84726 191.484432 137.64287 
C 191.484432 138.438479 191.800531 139.201609 192.363111 139.76419 
C 192.925692 140.326771 193.688823 140.64287 194.484432 140.64287 
z
" style="fill:#f26b38;stroke:#ffffff;stroke-width:0.48;"/>
    <path clip-path="url(#p9075014b2d)" d="M 201.248068 153.306783 
C 202.043677 153.306783 202.806808 152.990684 203.369389 152.428103 
C 203.931969 151.865522 204.248068 151.102392 204.248068 150.306783 
C 204.248068 149.511173 203.931969 148.748043 203.369389 148.185462 
C 202.806808 147.622882 202.043677 147.306783 201.248068 147.306783 
C 200.452459 147.306783 199.689329 147.622882 199.126748 148.185462 
C 198.564167 148.748043 198.248068 149.511173 198.248068 150.306783 
C 198.248068 151.102392 198.564167 151.865522 199.126748 152.428103 
C 199.689329 152.990684 200.452459 153.306783 201.248068 153.306783 
z
" style="fill:#f26b38;stroke:#ffffff;stroke-width:0.48;"/>
    <path clip-path="url(#p9075014b2d)" d="M 208.011705 193.831304 
C 208.807314 193.831304 209.570444 193.515205 210.133025 192.952625 
C 210.695606 192.390044 211.011705 191.626914 211.011705 190.831304 
C 211.011705 190.035695 210.695606 189.272565 210.133025 188.709984 
C 209.570444 188.147403 208.807314 187.831304 208.011705 187.831304 
C 207.216095 187.831304 206.452965 188.147403 205.890384 188.709984 
C 205.327803 189.272565 205.011705 190.035695 205.011705 190.831304 
C 205.011705 191.626914 205.327803 192.390044 205.890384 192.952625 
C 206.452965 193.515205 207.216095 193.831304 208.011705 193.831304 
z
" style="fill:#f26b38;stroke:#ffffff;stroke-width:0.48;"/>
    <path clip-path="url(#p9075014b2d)" d="M 214.775341 193.831304 
C 215.57095 193.831304 216.334081 193.515205 216.896661 192.952625 
C 217.459242 192.390044 217.775341 191.626914 217.775341 190.831304 
C 217.775341 190.035695 217.459242 189.272565 216.896661 188.709984 
C 216.334081 188.147403 215.57095 187.831304 214.775341 187.831304 
C 213.979732 187.831304 213.216601 188.147403 212.654021 188.709984 
C 212.09144 189.272565 211.775341 190.035695 211.775341 190.831304 
C 211.775341 191.626914 212.09144 192.390044 212.654021 192.952625 
C 213.216601 193.515205 213.979732 193.831304 214.775341 193.831304 
z
" style="fill:#f26b38;stroke:#ffffff;stroke-width:0.48;"/>
    <path clip-path="url(#p9075014b2d)" d="M 221.538977 193.831304 
C 222.334587 193.831304 223.097717 193.515205 223.660298 192.952625 
C 224.222878 192.390044 224.538977 191.626914 224.538977 190.831304 
C 224.538977 190.035695 224.222878 189.272565 223.660298 188.709984 
C 223.097717 188.147403 222.334587 187.831304 221.538977 187.831304 
C 220.743368 187.831304 219.980238 188.147403 219.417657 188.709984 
C 218.855076 189.272565 218.538977 190.035695 218.538977 190.831304 
C 218.538977 191.626914 218.855076 192.390044 219.417657 192.952625 
C 219.980238 193.515205 220.743368 193.831304 221.538977 193.831304 
z
" style="fill:#f26b38;stroke:#ffffff;stroke-width:0.48;"/>
    <path clip-path="url(#p9075014b2d)" d="M 228.302614 193.831304 
C 229.098223 193.831304 229.861353 193.515205 230.423934 192.952625 
C 230.986515 192.390044 231.302614 191.626914 231.302614 190.831304 
C 231.302614 190.035695 230.986515 189.272565 230.423934 188.709984 
C 229.861353 188.147403 229.098223 187.831304 228.302614 187.831304 
C 227.507004 187.831304 226.743874 188.147403 226.181293 188.709984 
C 225.618713 189.272565 225.302614 190.035695 225.302614 190.831304 
C 225.302614 191.626914 225.618713 192.390044 226.181293 192.952625 
C 226.743874 193.515205 227.507004 193.831304 228.302614 193.831304 
z
" style="fill:#f26b38;stroke:#ffffff;stroke-width:0.48;"/>
    <path clip-path="url(#p9075014b2d)" d="M 235.06625 179.880239 
C 235.861859 179.880239 236.62499 179.564141 237.18757 179.00156 
C 237.750151 178.438979 238.06625 177.675849 238.06625 176.880239 
C 238.06625 176.08463 237.750151 175.3215 237.18757 174.758919 
C 236.62499 174.196338 235.861859 173.880239 235.06625 173.880239 
C 234.270641 173.880239 233.50751 174.196338 232.94493 174.758919 
C 232.382349 175.3215 232.06625 176.08463 232.06625 176.880239 
C 232.06625 177.675849 232.382349 178.438979 232.94493 179.00156 
C 233.50751 179.564141 234.270641 179.880239 235.06625 179.880239 
z
" style="fill:#f26b38;stroke:#ffffff;stroke-width:0.48;"/>
    <path clip-path="url(#p9075014b2d)" d="M 241.829886 153.306783 
C 242.625496 153.306783 243.388626 152.990684 243.951207 152.428103 
C 244.513787 151.865522 244.829886 151.102392 244.829886 150.306783 
C 244.829886 149.511173 244.513787 148.748043 243.951207 148.185462 
C 243.388626 147.622882 242.625496 147.306783 241.829886 147.306783 
C 241.034277 147.306783 240.271147 147.622882 239.708566 148.185462 
C 239.145985 148.748043 238.829886 149.511173 238.829886 150.306783 
C 238.829886 151.102392 239.145985 151.865522 239.708566 152.428103 
C 240.271147 152.990684 241.034277 153.306783 241.829886 153.306783 
z
" style="fill:#f26b38;stroke:#ffffff;stroke-width:0.48;"/>
    <path clip-path="url(#p9075014b2d)" d="M 248.593523 153.306783 
C 249.389132 153.306783 250.152262 152.990684 250.714843 152.428103 
C 251.277424 151.865522 251.593523 151.102392 251.593523 150.306783 
C 251.593523 149.511173 251.277424 148.748043 250.714843 148.185462 
C 250.152262 147.622882 249.389132 147.306783 248.593523 147.306783 
C 247.797913 147.306783 247.034783 147.622882 246.472202 148.185462 
C 245.909622 148.748043 245.593523 149.511173 245.593523 150.306783 
C 245.593523 151.102392 245.909622 151.865522 246.472202 152.428103 
C 247.034783 152.990684 247.797913 153.306783 248.593523 153.306783 
z
" style="fill:#f26b38;stroke:#ffffff;stroke-width:0.48;"/>
    <path clip-path="url(#p9075014b2d)" d="M 255.357159 153.306783 
C 256.152768 153.306783 256.915899 152.990684 257.478479 152.428103 
C 258.04106 151.865522 258.357159 151.102392 258.357159 150.306783 
C 258.357159 149.511173 258.04106 148.748043 257.478479 148.185462 
C 256.915899 147.622882 256.152768 147.306783 255.357159 147.306783 
C 254.56155 147.306783 253.798419 147.622882 253.235839 148.185462 
C 252.673258 148.748043 252.357159 149.511173 252.357159 150.306783 
C 252.357159 151.102392 252.673258 151.865522 253.235839 152.428103 
C 253.798419 152.990684 254.56155 153.306783 255.357159 153.306783 
z
" style="fill:#f26b38;stroke:#ffffff;stroke-width:0.48;"/>
    <path clip-path="url(#p9075014b2d)" d="M 262.120795 153.306783 
C 262.916405 153.306783 263.679535 152.990684 264.242116 152.428103 
C 264.804697 151.865522 265.120795 151.102392 265.120795 150.306783 
C 265.120795 149.511173 264.804697 148.748043 264.242116 148.185462 
C 263.679535 147.622882 262.916405 147.306783 262.120795 147.306783 
C 261.325186 147.306783 260.562056 147.622882 259.999475 148.185462 
C 259.436894 148.748043 259.120795 149.511173 259.120795 150.306783 
C 259.120795 151.102392 259.436894 151.865522 259.999475 152.428103 
C 260.562056 152.990684 261.325186 153.306783 262.120795 153.306783 
z
" style="fill:#f26b38;stroke:#ffffff;stroke-width:0.48;"/>
    <path clip-path="url(#p9075014b2d)" d="M 268.884432 153.306783 
C 269.680041 153.306783 270.443171 152.990684 271.005752 152.428103 
C 271.568333 151.865522 271.884432 151.102392 271.884432 150.306783 
C 271.884432 149.511173 271.568333 148.748043 271.005752 148.185462 
C 270.443171 147.622882 269.680041 147.306783 268.884432 147.306783 
C 268.088823 147.306783 267.325692 147.622882 266.763111 148.185462 
C 266.200531 148.748043 265.884432 149.511173 265.884432 150.306783 
C 265.884432 151.102392 266.200531 151.865522 266.763111 152.428103 
C 267.325692 152.990684 268.088823 153.306783 268.884432 153.306783 
z
" style="fill:#f26b38;stroke:#ffffff;stroke-width:0.48;"/>
    <path clip-path="url(#p9075014b2d)" d="M 275.648068 153.306783 
C 276.443677 153.306783 277.206808 152.990684 277.769389 152.428103 
C 278.331969 151.865522 278.648068 151.102392 278.648068 150.306783 
C 278.648068 149.511173 278.331969 148.748043 277.769389 148.185462 
C 277.206808 147.622882 276.443677 147.306783 275.648068 147.306783 
C 274.852459 147.306783 274.089329 147.622882 273.526748 148.185462 
C 272.964167 148.748043 272.648068 149.511173 272.648068 150.306783 
C 272.648068 151.102392 272.964167 151.865522 273.526748 152.428103 
C 274.089329 152.990684 274.852459 153.306783 275.648068 153.306783 
z
" style="fill:#f26b38;stroke:#ffffff;stroke-width:0.48;"/>
    <path clip-path="url(#p9075014b2d)" d="M 282.411705 153.306783 
C 283.207314 153.306783 283.970444 152.990684 284.533025 152.428103 
C 285.095606 151.865522 285.411705 151.102392 285.411705 150.306783 
C 285.411705 149.511173 285.095606 148.748043 284.533025 148.185462 
C 283.970444 147.622882 283.207314 147.306783 282.411705 147.306783 
C 281.616095 147.306783 280.852965 147.622882 280.290384 148.185462 
C 279.727803 148.748043 279.411705 149.511173 279.411705 150.306783 
C 279.411705 151.102392 279.727803 151.865522 280.290384 152.428103 
C 280.852965 152.990684 281.616095 153.306783 282.411705 153.306783 
z
" style="fill:#f26b38;stroke:#ffffff;stroke-width:0.48;"/>
    <path clip-path="url(#p9075014b2d)" d="M 289.175341 153.306783 
C 289.97095 153.306783 290.734081 152.990684 291.296661 152.428103 
C 291.859242 151.865522 292.175341 151.102392 292.175341 150.306783 
C 292.175341 149.511173 291.859242 148.748043 291.296661 148.185462 
C 290.734081 147.622882 289.97095 147.306783 289.175341 147.306783 
C 288.379732 147.306783 287.616601 147.622882 287.054021 148.185462 
C 286.49144 148.748043 286.175341 149.511173 286.175341 150.306783 
C 286.175341 151.102392 286.49144 151.865522 287.054021 152.428103 
C 287.616601 152.990684 288.379732 153.306783 289.175341 153.306783 
z
" style="fill:#f26b38;stroke:#ffffff;stroke-width:0.48;"/>
    <path clip-path="url(#p9075014b2d)" d="M 295.938977 153.306783 
C 296.734587 153.306783 297.497717 152.990684 298.060298 152.428103 
C 298.622878 151.865522 298.938977 151.102392 298.938977 150.306783 
C 298.938977 149.511173 298.622878 148.748043 298.060298 148.185462 
C 297.497717 147.622882 296.734587 147.306783 295.938977 147.306783 
C 295.143368 147.306783 294.380238 147.622882 293.817657 148.185462 
C 293.255076 148.748043 292.938977 149.511173 292.938977 150.306783 
C 292.938977 151.102392 293.255076 151.865522 293.817657 152.428103 
C 294.380238 152.990684 295.143368 153.306783 295.938977 153.306783 
z
" style="fill:#f26b38;stroke:#ffffff;stroke-width:0.48;"/>
    <path clip-path="url(#p9075014b2d)" d="M 302.702614 153.306783 
C 303.498223 153.306783 304.261353 152.990684 304.823934 152.428103 
C 305.386515 151.865522 305.702614 151.102392 305.702614 150.306783 
C 305.702614 149.511173 305.386515 148.748043 304.823934 148.185462 
C 304.261353 147.622882 303.498223 147.306783 302.702614 147.306783 
C 301.907004 147.306783 301.143874 147.622882 300.581293 148.185462 
C 300.018713 148.748043 299.702614 149.511173 299.702614 150.306783 
C 299.702614 151.102392 300.018713 151.865522 300.581293 152.428103 
C 301.143874 152.990684 301.907004 153.306783 302.702614 153.306783 
z
" style="fill:#f26b38;stroke:#ffffff;stroke-width:0.48;"/>
    <path clip-path="url(#p9075014b2d)" d="M 309.46625 153.306783 
C 310.261859 153.306783 311.02499 152.990684 311.58757 152.428103 
C 312.150151 151.865522 312.46625 151.102392 312.46625 150.306783 
C 312.46625 149.511173 312.150151 148.748043 311.58757 148.185462 
C 311.02499 147.622882 310.261859 147.306783 309.46625 147.306783 
C 308.670641 147.306783 307.90751 147.622882 307.34493 148.185462 
C 306.782349 148.748043 306.46625 149.511173 306.46625 150.306783 
C 306.46625 151.102392 306.782349 151.865522 307.34493 152.428103 
C 307.90751 152.990684 308.670641 153.306783 309.46625 153.306783 
z
" style="fill:#f26b38;stroke:#ffffff;stroke-width:0.48;"/>
    <path clip-path="url(#p9075014b2d)" d="M 316.229886 153.306783 
C 317.025496 153.306783 317.788626 152.990684 318.351207 152.428103 
C 318.913787 151.865522 319.229886 151.102392 319.229886 150.306783 
C 319.229886 149.511173 318.913787 148.748043 318.351207 148.185462 
C 317.788626 147.622882 317.025496 147.306783 316.229886 147.306783 
C 315.434277 147.306783 314.671147 147.622882 314.108566 148.185462 
C 313.545985 148.748043 313.229886 149.511173 313.229886 150.306783 
C 313.229886 151.102392 313.545985 151.865522 314.108566 152.428103 
C 314.671147 152.990684 315.434277 153.306783 316.229886 153.306783 
z
" style="fill:#f26b38;stroke:#ffffff;stroke-width:0.48;"/>
    <path clip-path="url(#p9075014b2d)" d="M 322.993523 153.306783 
C 323.789132 153.306783 324.552262 152.990684 325.114843 152.428103 
C 325.677424 151.865522 325.993523 151.102392 325.993523 150.306783 
C 325.993523 149.511173 325.677424 148.748043 325.114843 148.185462 
C 324.552262 147.622882 323.789132 147.306783 322.993523 147.306783 
C 322.197913 147.306783 321.434783 147.622882 320.872202 148.185462 
C 320.309622 148.748043 319.993523 149.511173 319.993523 150.306783 
C 319.993523 151.102392 320.309622 151.865522 320.872202 152.428103 
C 321.434783 152.990684 322.197913 153.306783 322.993523 153.306783 
z
" style="fill:#f26b38;stroke:#ffffff;stroke-width:0.48;"/>
    <path clip-path="url(#p9075014b2d)" d="M 329.757159 153.306783 
C 330.552768 153.306783 331.315899 152.990684 331.878479 152.428103 
C 332.44106 151.865522 332.757159 151.102392 332.757159 150.306783 
C 332.757159 149.511173 332.44106 148.748043 331.878479 148.185462 
C 331.315899 147.622882 330.552768 147.306783 329.757159 147.306783 
C 328.96155 147.306783 328.198419 147.622882 327.635839 148.185462 
C 327.073258 148.748043 326.757159 149.511173 326.757159 150.306783 
C 326.757159 151.102392 327.073258 151.865522 327.635839 152.428103 
C 328.198419 152.990684 328.96155 153.306783 329.757159 153.306783 
z
" style="fill:#f26b38;stroke:#ffffff;stroke-width:0.48;"/>
    <path clip-path="url(#p9075014b2d)" d="M 336.520795 153.306783 
C 337.316405 153.306783 338.079535 152.990684 338.642116 152.428103 
C 339.204697 151.865522 339.520795 151.102392 339.520795 150.306783 
C 339.520795 149.511173 339.204697 148.748043 338.642116 148.185462 
C 338.079535 147.622882 337.316405 147.306783 336.520795 147.306783 
C 335.725186 147.306783 334.962056 147.622882 334.399475 148.185462 
C 333.836894 148.748043 333.520795 149.511173 333.520795 150.306783 
C 333.520795 151.102392 333.836894 151.865522 334.399475 152.428103 
C 334.962056 152.990684 335.725186 153.306783 336.520795 153.306783 
z
" style="fill:#f26b38;stroke:#ffffff;stroke-width:0.48;"/>
    <path clip-path="url(#p9075014b2d)" d="M 343.284432 153.306783 
C 344.080041 153.306783 344.843171 152.990684 345.405752 152.428103 
C 345.968333 151.865522 346.284432 151.102392 346.284432 150.306783 
C 346.284432 149.511173 345.968333 148.748043 345.405752 148.185462 
C 344.843171 147.622882 344.080041 147.306783 343.284432 147.306783 
C 342.488823 147.306783 341.725692 147.622882 341.163111 148.185462 
C 340.600531 148.748043 340.284432 149.511173 340.284432 150.306783 
C 340.284432 151.102392 340.600531 151.865522 341.163111 152.428103 
C 341.725692 152.990684 342.488823 153.306783 343.284432 153.306783 
z
" style="fill:#f26b38;stroke:#ffffff;stroke-width:0.48;"/>
    <path clip-path="url(#p9075014b2d)" d="M 350.048068 153.306783 
C 350.843677 153.306783 351.606808 152.990684 352.169389 152.428103 
C 352.731969 151.865522 353.048068 151.102392 353.048068 150.306783 
C 353.048068 149.511173 352.731969 148.748043 352.169389 148.185462 
C 351.606808 147.622882 350.843677 147.306783 350.048068 147.306783 
C 349.252459 147.306783 348.489329 147.622882 347.926748 148.185462 
C 347.364167 148.748043 347.048068 149.511173 347.048068 150.306783 
C 347.048068 151.102392 347.364167 151.865522 347.926748 152.428103 
C 348.489329 152.990684 349.252459 153.306783 350.048068 153.306783 
z
" style="fill:#f26b38;stroke:#ffffff;stroke-width:0.48;"/>
    <path clip-path="url(#p9075014b2d)" d="M 356.811705 153.306783 
C 357.607314 153.306783 358.370444 152.990684 358.933025 152.428103 
C 359.495606 151.865522 359.811705 151.102392 359.811705 150.306783 
C 359.811705 149.511173 359.495606 148.748043 358.933025 148.185462 
C 358.370444 147.622882 357.607314 147.306783 356.811705 147.306783 
C 356.016095 147.306783 355.252965 147.622882 354.690384 148.185462 
C 354.127803 148.748043 353.811705 149.511173 353.811705 150.306783 
C 353.811705 151.102392 354.127803 151.865522 354.690384 152.428103 
C 355.252965 152.990684 356.016095 153.306783 356.811705 153.306783 
z
" style="fill:#f26b38;stroke:#ffffff;stroke-width:0.48;"/>
    <path clip-path="url(#p9075014b2d)" d="M 363.575341 153.306783 
C 364.37095 153.306783 365.134081 152.990684 365.696661 152.428103 
C 366.259242 151.865522 366.575341 151.102392 366.575341 150.306783 
C 366.575341 149.511173 366.259242 148.748043 365.696661 148.185462 
C 365.134081 147.622882 364.37095 147.306783 363.575341 147.306783 
C 362.779732 147.306783 362.016601 147.622882 361.454021 148.185462 
C 360.89144 148.748043 360.575341 149.511173 360.575341 150.306783 
C 360.575341 151.102392 360.89144 151.865522 361.454021 152.428103 
C 362.016601 152.990684 362.779732 153.306783 363.575341 153.306783 
z
" style="fill:#f26b38;stroke:#ffffff;stroke-width:0.48;"/>
    <path clip-path="url(#p9075014b2d)" d="M 370.338977 153.306783 
C 371.134587 153.306783 371.897717 152.990684 372.460298 152.428103 
C 373.022878 151.865522 373.338977 151.102392 373.338977 150.306783 
C 373.338977 149.511173 373.022878 148.748043 372.460298 148.185462 
C 371.897717 147.622882 371.134587 147.306783 370.338977 147.306783 
C 369.543368 147.306783 368.780238 147.622882 368.217657 148.185462 
C 367.655076 148.748043 367.338977 149.511173 367.338977 150.306783 
C 367.338977 151.102392 367.655076 151.865522 368.217657 152.428103 
C 368.780238 152.990684 369.543368 153.306783 370.338977 153.306783 
z
" style="fill:#f26b38;stroke:#ffffff;stroke-width:0.48;"/>
    <path clip-path="url(#p9075014b2d)" d="M 377.102614 153.306783 
C 377.898223 153.306783 378.661353 152.990684 379.223934 152.428103 
C 379.786515 151.865522 380.102614 151.102392 380.102614 150.306783 
C 380.102614 149.511173 379.786515 148.748043 379.223934 148.185462 
C 378.661353 147.622882 377.898223 147.306783 377.102614 147.306783 
C 376.307004 147.306783 375.543874 147.622882 374.981293 148.185462 
C 374.418713 148.748043 374.102614 149.511173 374.102614 150.306783 
C 374.102614 151.102392 374.418713 151.865522 374.981293 152.428103 
C 375.543874 152.990684 376.307004 153.306783 377.102614 153.306783 
z
" style="fill:#f26b38;stroke:#ffffff;stroke-width:0.48;"/>
    <path clip-path="url(#p9075014b2d)" d="M 383.86625 153.306783 
C 384.661859 153.306783 385.42499 152.990684 385.98757 152.428103 
C 386.550151 151.865522 386.86625 151.102392 386.86625 150.306783 
C 386.86625 149.511173 386.550151 148.748043 385.98757 148.185462 
C 385.42499 147.622882 384.661859 147.306783 383.86625 147.306783 
C 383.070641 147.306783 382.30751 147.622882 381.74493 148.185462 
C 381.182349 148.748043 380.86625 149.511173 380.86625 150.306783 
C 380.86625 151.102392 381.182349 151.865522 381.74493 152.428103 
C 382.30751 152.990684 383.070641 153.306783 383.86625 153.306783 
z
" style="fill:#f26b38;stroke:#ffffff;stroke-width:0.48;"/>
    <path clip-path="url(#p9075014b2d)" d="M 390.629886 153.306783 
C 391.425496 153.306783 392.188626 152.990684 392.751207 152.428103 
C 393.313787 151.865522 393.629886 151.102392 393.629886 150.306783 
C 393.629886 149.511173 393.313787 148.748043 392.751207 148.185462 
C 392.188626 147.622882 391.425496 147.306783 390.629886 147.306783 
C 389.834277 147.306783 389.071147 147.622882 388.508566 148.185462 
C 387.945985 148.748043 387.629886 149.511173 387.629886 150.306783 
C 387.629886 151.102392 387.945985 151.865522 388.508566 152.428103 
C 389.071147 152.990684 389.834277 153.306783 390.629886 153.306783 
z
" style="fill:#f26b38;stroke:#ffffff;stroke-width:0.48;"/>
    <path clip-path="url(#p9075014b2d)" d="M 397.393523 153.306783 
C 398.189132 153.306783 398.952262 152.990684 399.514843 152.428103 
C 400.077424 151.865522 400.393523 151.102392 400.393523 150.306783 
C 400.393523 149.511173 400.077424 148.748043 399.514843 148.185462 
C 398.952262 147.622882 398.189132 147.306783 397.393523 147.306783 
C 396.597913 147.306783 395.834783 147.622882 395.272202 148.185462 
C 394.709622 148.748043 394.393523 149.511173 394.393523 150.306783 
C 394.393523 151.102392 394.709622 151.865522 395.272202 152.428103 
C 395.834783 152.990684 396.597913 153.306783 397.393523 153.306783 
z
" style="fill:#f26b38;stroke:#ffffff;stroke-width:0.48;"/>
    <path clip-path="url(#p9075014b2d)" d="M 71.238977 43.080083 
L 72.738977 41.580083 
L 74.238977 43.080083 
L 75.738977 41.580083 
L 74.238977 40.080083 
L 75.738977 38.580083 
L 74.238977 37.080083 
L 72.738977 38.580083 
L 71.238977 37.080083 
L 69.738977 38.580083 
L 71.238977 40.080083 
L 69.738977 41.580083 
z
" style="fill:#2f9599;stroke:#ffffff;stroke-width:0.48;"/>
    <path clip-path="url(#p9075014b2d)" d="M 78.002614 52.543107 
L 79.502614 51.043107 
L 81.002614 52.543107 
L 82.502614 51.043107 
L 81.002614 49.543107 
L 82.502614 48.043107 
L 81.002614 46.543107 
L 79.502614 48.043107 
L 78.002614 46.543107 
L 76.502614 48.043107 
L 78.002614 49.543107 
L 76.502614 51.043107 
z
" style="fill:#2f9599;stroke:#ffffff;stroke-width:0.48;"/>
    <path clip-path="url(#p9075014b2d)" d="M 84.76625 115.166056 
L 86.26625 113.666056 
L 87.76625 115.166056 
L 89.26625 113.666056 
L 87.76625 112.166056 
L 89.26625 110.666056 
L 87.76625 109.166056 
L 86.26625 110.666056 
L 84.76625 109.166056 
L 83.26625 110.666056 
L 84.76625 112.166056 
L 83.26625 113.666056 
z
" style="fill:#2f9599;stroke:#ffffff;stroke-width:0.48;"/>
    <path clip-path="url(#p9075014b2d)" d="M 91.529886 150.812966 
L 93.029886 149.312966 
L 94.529886 150.812966 
L 96.029886 149.312966 
L 94.529886 147.812966 
L 96.029886 146.312966 
L 94.529886 144.812966 
L 93.029886 146.312966 
L 91.529886 144.812966 
L 90.029886 146.312966 
L 91.529886 147.812966 
L 90.029886 149.312966 
z
" style="fill:#2f9599;stroke:#ffffff;stroke-width:0.48;"/>
    <path clip-path="url(#p9075014b2d)" d="M 98.293523 126.693664 
L 99.793523 125.193664 
L 101.293523 126.693664 
L 102.793523 125.193664 
L 101.293523 123.693664 
L 102.793523 122.193664 
L 101.293523 120.693664 
L 99.793523 122.193664 
L 98.293523 120.693664 
L 96.793523 122.193664 
L 98.293523 123.693664 
L 96.793523 125.193664 
z
" style="fill:#2f9599;stroke:#ffffff;stroke-width:0.48;"/>
    <path clip-path="url(#p9075014b2d)" d="M 105.057159 163.437913 
L 106.557159 161.937913 
L 108.057159 163.437913 
L 109.557159 161.937913 
L 108.057159 160.437913 
L 109.557159 158.937913 
L 108.057159 157.437913 
L 106.557159 158.937913 
L 105.057159 157.437913 
L 103.557159 158.937913 
L 105.057159 160.437913 
L 103.557159 161.937913 
z
" style="fill:#2f9599;stroke:#ffffff;stroke-width:0.48;"/>
    <path clip-path="url(#p9075014b2d)" d="M 111.820795 163.437913 
L 113.320795 161.937913 
L 114.820795 163.437913 
L 116.320795 161.937913 
L 114.820795 160.437913 
L 116.320795 158.937913 
L 114.820795 157.437913 
L 113.320795 158.937913 
L 111.820795 157.437913 
L 110.320795 158.937913 
L 111.820795 160.437913 
L 110.320795 161.937913 
z
" style="fill:#2f9599;stroke:#ffffff;stroke-width:0.48;"/>
    <path clip-path="url(#p9075014b2d)" d="M 118.584432 163.437913 
L 120.084432 161.937913 
L 121.584432 163.437913 
L 123.084432 161.937913 
L 121.584432 160.437913 
L 123.084432 158.937913 
L 121.584432 157.437913 
L 120.084432 158.937913 
L 118.584432 157.437913 
L 117.084432 158.937913 
L 118.584432 160.437913 
L 117.084432 161.937913 
z
" style="fill:#2f9599;stroke:#ffffff;stroke-width:0.48;"/>
    <path clip-path="url(#p9075014b2d)" d="M 125.348068 163.437913 
L 126.848068 161.937913 
L 128.348068 163.437913 
L 129.848068 161.937913 
L 128.348068 160.437913 
L 129.848068 158.937913 
L 128.348068 157.437913 
L 126.848068 158.937913 
L 125.348068 157.437913 
L 123.848068 158.937913 
L 125.348068 160.437913 
L 123.848068 161.937913 
z
" style="fill:#2f9599;stroke:#ffffff;stroke-width:0.48;"/>
    <path clip-path="url(#p9075014b2d)" d="M 132.111705 115.166056 
L 133.611705 113.666056 
L 135.111705 115.166056 
L 136.611705 113.666056 
L 135.111705 112.166056 
L 136.611705 110.666056 
L 135.111705 109.166056 
L 133.611705 110.666056 
L 132.111705 109.166056 
L 130.611705 110.666056 
L 132.111705 112.166056 
L 130.611705 113.666056 
z
" style="fill:#2f9599;stroke:#ffffff;stroke-width:0.48;"/>
    <path clip-path="url(#p9075014b2d)" d="M 138.875341 103.972582 
L 140.375341 102.472582 
L 141.875341 103.972582 
L 143.375341 102.472582 
L 141.875341 100.972582 
L 143.375341 99.472582 
L 141.875341 97.972582 
L 140.375341 99.472582 
L 138.875341 97.972582 
L 137.375341 99.472582 
L 138.875341 100.972582 
L 137.375341 102.472582 
z
" style="fill:#2f9599;stroke:#ffffff;stroke-width:0.48;"/>
    <path clip-path="url(#p9075014b2d)" d="M 145.638977 232.982113 
L 147.138977 231.482113 
L 148.638977 232.982113 
L 150.138977 231.482113 
L 148.638977 229.982113 
L 150.138977 228.482113 
L 148.638977 226.982113 
L 147.138977 228.482113 
L 145.638977 226.982113 
L 144.138977 228.482113 
L 145.638977 229.982113 
L 144.138977 231.482113 
z
" style="fill:#2f9599;stroke:#ffffff;stroke-width:0.48;"/>
    <path clip-path="url(#p9075014b2d)" d="M 152.402614 232.982113 
L 153.902614 231.482113 
L 155.402614 232.982113 
L 156.902614 231.482113 
L 155.402614 229.982113 
L 156.902614 228.482113 
L 155.402614 226.982113 
L 153.902614 228.482113 
L 152.402614 226.982113 
L 150.902614 228.482113 
L 152.402614 229.982113 
L 150.902614 231.482113 
z
" style="fill:#2f9599;stroke:#ffffff;stroke-width:0.48;"/>
    <path clip-path="url(#p9075014b2d)" d="M 159.16625 232.982113 
L 160.66625 231.482113 
L 162.16625 232.982113 
L 163.66625 231.482113 
L 162.16625 229.982113 
L 163.66625 228.482113 
L 162.16625 226.982113 
L 160.66625 228.482113 
L 159.16625 226.982113 
L 157.66625 228.482113 
L 159.16625 229.982113 
L 157.66625 231.482113 
z
" style="fill:#2f9599;stroke:#ffffff;stroke-width:0.48;"/>
    <path clip-path="url(#p9075014b2d)" d="M 165.929886 232.982113 
L 167.429886 231.482113 
L 168.929886 232.982113 
L 170.429886 231.482113 
L 168.929886 229.982113 
L 170.429886 228.482113 
L 168.929886 226.982113 
L 167.429886 228.482113 
L 165.929886 226.982113 
L 164.429886 228.482113 
L 165.929886 229.982113 
L 164.429886 231.482113 
z
" style="fill:#2f9599;stroke:#ffffff;stroke-width:0.48;"/>
    <path clip-path="url(#p9075014b2d)" d="M 172.693523 264.216 
L 174.193523 262.716 
L 175.693523 264.216 
L 177.193523 262.716 
L 175.693523 261.216 
L 177.193523 259.716 
L 175.693523 258.216 
L 174.193523 259.716 
L 172.693523 258.216 
L 171.193523 259.716 
L 172.693523 261.216 
L 171.193523 262.716 
z
" style="fill:#2f9599;stroke:#ffffff;stroke-width:0.48;"/>
    <path clip-path="url(#p9075014b2d)" d="M 179.457159 218.146017 
L 180.957159 216.646017 
L 182.457159 218.146017 
L 183.957159 216.646017 
L 182.457159 215.146017 
L 183.957159 213.646017 
L 182.457159 212.146017 
L 180.957159 213.646017 
L 179.457159 212.146017 
L 177.957159 213.646017 
L 179.457159 215.146017 
L 177.957159 216.646017 
z
" style="fill:#2f9599;stroke:#ffffff;stroke-width:0.48;"/>
    <path clip-path="url(#p9075014b2d)" d="M 186.220795 218.146017 
L 187.720795 216.646017 
L 189.220795 218.146017 
L 190.720795 216.646017 
L 189.220795 215.146017 
L 190.720795 213.646017 
L 189.220795 212.146017 
L 187.720795 213.646017 
L 186.220795 212.146017 
L 184.720795 213.646017 
L 186.220795 215.146017 
L 184.720795 216.646017 
z
" style="fill:#2f9599;stroke:#ffffff;stroke-width:0.48;"/>
    <path clip-path="url(#p9075014b2d)" d="M 192.984432 218.146017 
L 194.484432 216.646017 
L 195.984432 218.146017 
L 197.484432 216.646017 
L 195.984432 215.146017 
L 197.484432 213.646017 
L 195.984432 212.146017 
L 194.484432 213.646017 
L 192.984432 212.146017 
L 191.484432 213.646017 
L 192.984432 215.146017 
L 191.484432 216.646017 
z
" style="fill:#2f9599;stroke:#ffffff;stroke-width:0.48;"/>
    <path clip-path="url(#p9075014b2d)" d="M 199.748068 218.146017 
L 201.248068 216.646017 
L 202.748068 218.146017 
L 204.248068 216.646017 
L 202.748068 215.146017 
L 204.248068 213.646017 
L 202.748068 212.146017 
L 201.248068 213.646017 
L 199.748068 212.146017 
L 198.248068 213.646017 
L 199.748068 215.146017 
L 198.248068 216.646017 
z
" style="fill:#2f9599;stroke:#ffffff;stroke-width:0.48;"/>
    <path clip-path="url(#p9075014b2d)" d="M 206.511705 218.146017 
L 208.011705 216.646017 
L 209.511705 218.146017 
L 211.011705 216.646017 
L 209.511705 215.146017 
L 211.011705 213.646017 
L 209.511705 212.146017 
L 208.011705 213.646017 
L 206.511705 212.146017 
L 205.011705 213.646017 
L 206.511705 215.146017 
L 205.011705 216.646017 
z
" style="fill:#2f9599;stroke:#ffffff;stroke-width:0.48;"/>
    <path clip-path="url(#p9075014b2d)" d="M 213.275341 218.146017 
L 214.775341 216.646017 
L 216.275341 218.146017 
L 217.775341 216.646017 
L 216.275341 215.146017 
L 217.775341 213.646017 
L 216.275341 212.146017 
L 214.775341 213.646017 
L 213.275341 212.146017 
L 211.775341 213.646017 
L 213.275341 215.146017 
L 211.775341 216.646017 
z
" style="fill:#2f9599;stroke:#ffffff;stroke-width:0.48;"/>
    <path clip-path="url(#p9075014b2d)" d="M 220.038977 218.146017 
L 221.538977 216.646017 
L 223.038977 218.146017 
L 224.538977 216.646017 
L 223.038977 215.146017 
L 224.538977 213.646017 
L 223.038977 212.146017 
L 221.538977 213.646017 
L 220.038977 212.146017 
L 218.538977 213.646017 
L 220.038977 215.146017 
L 218.538977 216.646017 
z
" style="fill:#2f9599;stroke:#ffffff;stroke-width:0.48;"/>
    <path clip-path="url(#p9075014b2d)" d="M 226.802614 218.146017 
L 228.302614 216.646017 
L 229.802614 218.146017 
L 231.302614 216.646017 
L 229.802614 215.146017 
L 231.302614 213.646017 
L 229.802614 212.146017 
L 228.302614 213.646017 
L 226.802614 212.146017 
L 225.302614 213.646017 
L 226.802614 215.146017 
L 225.302614 216.646017 
z
" style="fill:#2f9599;stroke:#ffffff;stroke-width:0.48;"/>
    <path clip-path="url(#p9075014b2d)" d="M 233.56625 218.146017 
L 235.06625 216.646017 
L 236.56625 218.146017 
L 238.06625 216.646017 
L 236.56625 215.146017 
L 238.06625 213.646017 
L 236.56625 212.146017 
L 235.06625 213.646017 
L 233.56625 212.146017 
L 232.06625 213.646017 
L 233.56625 215.146017 
L 232.06625 216.646017 
z
" style="fill:#2f9599;stroke:#ffffff;stroke-width:0.48;"/>
    <path clip-path="url(#p9075014b2d)" d="M 240.329886 218.146017 
L 241.829886 216.646017 
L 243.329886 218.146017 
L 244.829886 216.646017 
L 243.329886 215.146017 
L 244.829886 213.646017 
L 243.329886 212.146017 
L 241.829886 213.646017 
L 240.329886 212.146017 
L 238.829886 213.646017 
L 240.329886 215.146017 
L 238.829886 216.646017 
z
" style="fill:#2f9599;stroke:#ffffff;stroke-width:0.48;"/>
    <path clip-path="url(#p9075014b2d)" d="M 247.093523 218.146017 
L 248.593523 216.646017 
L 250.093523 218.146017 
L 251.593523 216.646017 
L 250.093523 215.146017 
L 251.593523 213.646017 
L 250.093523 212.146017 
L 248.593523 213.646017 
L 247.093523 212.146017 
L 245.593523 213.646017 
L 247.093523 215.146017 
L 245.593523 216.646017 
z
" style="fill:#2f9599;stroke:#ffffff;stroke-width:0.48;"/>
    <path clip-path="url(#p9075014b2d)" d="M 253.857159 218.146017 
L 255.357159 216.646017 
L 256.857159 218.146017 
L 258.357159 216.646017 
L 256.857159 215.146017 
L 258.357159 213.646017 
L 256.857159 212.146017 
L 255.357159 213.646017 
L 253.857159 212.146017 
L 252.357159 213.646017 
L 253.857159 215.146017 
L 252.357159 216.646017 
z
" style="fill:#2f9599;stroke:#ffffff;stroke-width:0.48;"/>
    <path clip-path="url(#p9075014b2d)" d="M 260.620795 218.146017 
L 262.120795 216.646017 
L 263.620795 218.146017 
L 265.120795 216.646017 
L 263.620795 215.146017 
L 265.120795 213.646017 
L 263.620795 212.146017 
L 262.120795 213.646017 
L 260.620795 212.146017 
L 259.120795 213.646017 
L 260.620795 215.146017 
L 259.120795 216.646017 
z
" style="fill:#2f9599;stroke:#ffffff;stroke-width:0.48;"/>
    <path clip-path="url(#p9075014b2d)" d="M 267.384432 218.146017 
L 268.884432 216.646017 
L 270.384432 218.146017 
L 271.884432 216.646017 
L 270.384432 215.146017 
L 271.884432 213.646017 
L 270.384432 212.146017 
L 268.884432 213.646017 
L 267.384432 212.146017 
L 265.884432 213.646017 
L 267.384432 215.146017 
L 265.884432 216.646017 
z
" style="fill:#2f9599;stroke:#ffffff;stroke-width:0.48;"/>
    <path clip-path="url(#p9075014b2d)" d="M 274.148068 218.146017 
L 275.648068 216.646017 
L 277.148068 218.146017 
L 278.648068 216.646017 
L 277.148068 215.146017 
L 278.648068 213.646017 
L 277.148068 212.146017 
L 275.648068 213.646017 
L 274.148068 212.146017 
L 272.648068 213.646017 
L 274.148068 215.146017 
L 272.648068 216.646017 
z
" style="fill:#2f9599;stroke:#ffffff;stroke-width:0.48;"/>
    <path clip-path="url(#p9075014b2d)" d="M 280.911705 218.146017 
L 282.411705 216.646017 
L 283.911705 218.146017 
L 285.411705 216.646017 
L 283.911705 215.146017 
L 285.411705 213.646017 
L 283.911705 212.146017 
L 282.411705 213.646017 
L 280.911705 212.146017 
L 279.411705 213.646017 
L 280.911705 215.146017 
L 279.411705 216.646017 
z
" style="fill:#2f9599;stroke:#ffffff;stroke-width:0.48;"/>
    <path clip-path="url(#p9075014b2d)" d="M 287.675341 218.146017 
L 289.175341 216.646017 
L 290.675341 218.146017 
L 292.175341 216.646017 
L 290.675341 215.146017 
L 292.175341 213.646017 
L 290.675341 212.146017 
L 289.175341 213.646017 
L 287.675341 212.146017 
L 286.175341 213.646017 
L 287.675341 215.146017 
L 286.175341 216.646017 
z
" style="fill:#2f9599;stroke:#ffffff;stroke-width:0.48;"/>
    <path clip-path="url(#p9075014b2d)" d="M 294.438977 218.146017 
L 295.938977 216.646017 
L 297.438977 218.146017 
L 298.938977 216.646017 
L 297.438977 215.146017 
L 298.938977 213.646017 
L 297.438977 212.146017 
L 295.938977 213.646017 
L 294.438977 212.146017 
L 292.938977 213.646017 
L 294.438977 215.146017 
L 292.938977 216.646017 
z
" style="fill:#2f9599;stroke:#ffffff;stroke-width:0.48;"/>
    <path clip-path="url(#p9075014b2d)" d="M 301.202614 218.146017 
L 302.702614 216.646017 
L 304.202614 218.146017 
L 305.702614 216.646017 
L 304.202614 215.146017 
L 305.702614 213.646017 
L 304.202614 212.146017 
L 302.702614 213.646017 
L 301.202614 212.146017 
L 299.702614 213.646017 
L 301.202614 215.146017 
L 299.702614 216.646017 
z
" style="fill:#2f9599;stroke:#ffffff;stroke-width:0.48;"/>
    <path clip-path="url(#p9075014b2d)" d="M 307.96625 218.146017 
L 309.46625 216.646017 
L 310.96625 218.146017 
L 312.46625 216.646017 
L 310.96625 215.146017 
L 312.46625 213.646017 
L 310.96625 212.146017 
L 309.46625 213.646017 
L 307.96625 212.146017 
L 306.46625 213.646017 
L 307.96625 215.146017 
L 306.46625 216.646017 
z
" style="fill:#2f9599;stroke:#ffffff;stroke-width:0.48;"/>
    <path clip-path="url(#p9075014b2d)" d="M 314.729886 218.146017 
L 316.229886 216.646017 
L 317.729886 218.146017 
L 319.229886 216.646017 
L 317.729886 215.146017 
L 319.229886 213.646017 
L 317.729886 212.146017 
L 316.229886 213.646017 
L 314.729886 212.146017 
L 313.229886 213.646017 
L 314.729886 215.146017 
L 313.229886 216.646017 
z
" style="fill:#2f9599;stroke:#ffffff;stroke-width:0.48;"/>
    <path clip-path="url(#p9075014b2d)" d="M 321.493523 218.146017 
L 322.993523 216.646017 
L 324.493523 218.146017 
L 325.993523 216.646017 
L 324.493523 215.146017 
L 325.993523 213.646017 
L 324.493523 212.146017 
L 322.993523 213.646017 
L 321.493523 212.146017 
L 319.993523 213.646017 
L 321.493523 215.146017 
L 319.993523 216.646017 
z
" style="fill:#2f9599;stroke:#ffffff;stroke-width:0.48;"/>
    <path clip-path="url(#p9075014b2d)" d="M 328.257159 218.146017 
L 329.757159 216.646017 
L 331.257159 218.146017 
L 332.757159 216.646017 
L 331.257159 215.146017 
L 332.757159 213.646017 
L 331.257159 212.146017 
L 329.757159 213.646017 
L 328.257159 212.146017 
L 326.757159 213.646017 
L 328.257159 215.146017 
L 326.757159 216.646017 
z
" style="fill:#2f9599;stroke:#ffffff;stroke-width:0.48;"/>
    <path clip-path="url(#p9075014b2d)" d="M 335.020795 218.146017 
L 336.520795 216.646017 
L 338.020795 218.146017 
L 339.520795 216.646017 
L 338.020795 215.146017 
L 339.520795 213.646017 
L 338.020795 212.146017 
L 336.520795 213.646017 
L 335.020795 212.146017 
L 333.520795 213.646017 
L 335.020795 215.146017 
L 333.520795 216.646017 
z
" style="fill:#2f9599;stroke:#ffffff;stroke-width:0.48;"/>
    <path clip-path="url(#p9075014b2d)" d="M 341.784432 218.146017 
L 343.284432 216.646017 
L 344.784432 218.146017 
L 346.284432 216.646017 
L 344.784432 215.146017 
L 346.284432 213.646017 
L 344.784432 212.146017 
L 343.284432 213.646017 
L 341.784432 212.146017 
L 340.284432 213.646017 
L 341.784432 215.146017 
L 340.284432 216.646017 
z
" style="fill:#2f9599;stroke:#ffffff;stroke-width:0.48;"/>
    <path clip-path="url(#p9075014b2d)" d="M 348.548068 218.146017 
L 350.048068 216.646017 
L 351.548068 218.146017 
L 353.048068 216.646017 
L 351.548068 215.146017 
L 353.048068 213.646017 
L 351.548068 212.146017 
L 350.048068 213.646017 
L 348.548068 212.146017 
L 347.048068 213.646017 
L 348.548068 215.146017 
L 347.048068 216.646017 
z
" style="fill:#2f9599;stroke:#ffffff;stroke-width:0.48;"/>
    <path clip-path="url(#p9075014b2d)" d="M 355.311705 218.146017 
L 356.811705 216.646017 
L 358.311705 218.146017 
L 359.811705 216.646017 
L 358.311705 215.146017 
L 359.811705 213.646017 
L 358.311705 212.146017 
L 356.811705 213.646017 
L 355.311705 212.146017 
L 353.811705 213.646017 
L 355.311705 215.146017 
L 353.811705 216.646017 
z
" style="fill:#2f9599;stroke:#ffffff;stroke-width:0.48;"/>
    <path clip-path="url(#p9075014b2d)" d="M 362.075341 218.146017 
L 363.575341 216.646017 
L 365.075341 218.146017 
L 366.575341 216.646017 
L 365.075341 215.146017 
L 366.575341 213.646017 
L 365.075341 212.146017 
L 363.575341 213.646017 
L 362.075341 212.146017 
L 360.575341 213.646017 
L 362.075341 215.146017 
L 360.575341 216.646017 
z
" style="fill:#2f9599;stroke:#ffffff;stroke-width:0.48;"/>
    <path clip-path="url(#p9075014b2d)" d="M 368.838977 218.146017 
L 370.338977 216.646017 
L 371.838977 218.146017 
L 373.338977 216.646017 
L 371.838977 215.146017 
L 373.338977 213.646017 
L 371.838977 212.146017 
L 370.338977 213.646017 
L 368.838977 212.146017 
L 367.338977 213.646017 
L 368.838977 215.146017 
L 367.338977 216.646017 
z
" style="fill:#2f9599;stroke:#ffffff;stroke-width:0.48;"/>
    <path clip-path="url(#p9075014b2d)" d="M 375.602614 218.146017 
L 377.102614 216.646017 
L 378.602614 218.146017 
L 380.102614 216.646017 
L 378.602614 215.146017 
L 380.102614 213.646017 
L 378.602614 212.146017 
L 377.102614 213.646017 
L 375.602614 212.146017 
L 374.102614 213.646017 
L 375.602614 215.146017 
L 374.102614 216.646017 
z
" style="fill:#2f9599;stroke:#ffffff;stroke-width:0.48;"/>
    <path clip-path="url(#p9075014b2d)" d="M 382.36625 218.146017 
L 383.86625 216.646017 
L 385.36625 218.146017 
L 386.86625 216.646017 
L 385.36625 215.146017 
L 386.86625 213.646017 
L 385.36625 212.146017 
L 383.86625 213.646017 
L 382.36625 212.146017 
L 380.86625 213.646017 
L 382.36625 215.146017 
L 380.86625 216.646017 
z
" style="fill:#2f9599;stroke:#ffffff;stroke-width:0.48;"/>
    <path clip-path="url(#p9075014b2d)" d="M 389.129886 218.146017 
L 390.629886 216.646017 
L 392.129886 218.146017 
L 393.629886 216.646017 
L 392.129886 215.146017 
L 393.629886 213.646017 
L 392.129886 212.146017 
L 390.629886 213.646017 
L 389.129886 212.146017 
L 387.629886 213.646017 
L 389.129886 215.146017 
L 387.629886 216.646017 
z
" style="fill:#2f9599;stroke:#ffffff;stroke-width:0.48;"/>
    <path clip-path="url(#p9075014b2d)" d="M 395.893523 218.146017 
L 397.393523 216.646017 
L 398.893523 218.146017 
L 400.393523 216.646017 
L 398.893523 215.146017 
L 400.393523 213.646017 
L 398.893523 212.146017 
L 397.393523 213.646017 
L 395.893523 212.146017 
L 394.393523 213.646017 
L 395.893523 215.146017 
L 394.393523 216.646017 
z
" style="fill:#2f9599;stroke:#ffffff;stroke-width:0.48;"/>
    <path clip-path="url(#p9075014b2d)" d="M 70.617657 26.611897 
L 70.617657 30.854538 
L 74.860298 30.854538 
L 74.860298 26.611897 
z
" style="fill:#a7226e;stroke:#ffffff;stroke-width:0.48;"/>
    <path clip-path="url(#p9075014b2d)" d="M 77.381293 26.611897 
L 77.381293 30.854538 
L 81.623934 30.854538 
L 81.623934 26.611897 
z
" style="fill:#a7226e;stroke:#ffffff;stroke-width:0.48;"/>
    <path clip-path="url(#p9075014b2d)" d="M 84.14493 26.611897 
L 84.14493 30.854538 
L 88.38757 30.854538 
L 88.38757 26.611897 
z
" style="fill:#a7226e;stroke:#ffffff;stroke-width:0.48;"/>
    <path clip-path="url(#p9075014b2d)" d="M 90.908566 26.611897 
L 90.908566 30.854538 
L 95.151207 30.854538 
L 95.151207 26.611897 
z
" style="fill:#a7226e;stroke:#ffffff;stroke-width:0.48;"/>
    <path clip-path="url(#p9075014b2d)" d="M 97.672202 26.611897 
L 97.672202 30.854538 
L 101.914843 30.854538 
L 101.914843 26.611897 
z
" style="fill:#a7226e;stroke:#ffffff;stroke-width:0.48;"/>
    <path clip-path="url(#p9075014b2d)" d="M 104.435839 26.611897 
L 104.435839 30.854538 
L 108.678479 30.854538 
L 108.678479 26.611897 
z
" style="fill:#a7226e;stroke:#ffffff;stroke-width:0.48;"/>
    <path clip-path="url(#p9075014b2d)" d="M 111.199475 26.611897 
L 111.199475 30.854538 
L 115.442116 30.854538 
L 115.442116 26.611897 
z
" style="fill:#a7226e;stroke:#ffffff;stroke-width:0.48;"/>
    <path clip-path="url(#p9075014b2d)" d="M 117.963111 36.314952 
L 117.963111 40.557592 
L 122.205752 40.557592 
L 122.205752 36.314952 
z
" style="fill:#a7226e;stroke:#ffffff;stroke-width:0.48;"/>
    <path clip-path="url(#p9075014b2d)" d="M 124.726748 26.611897 
L 124.726748 30.854538 
L 128.969389 30.854538 
L 128.969389 26.611897 
z
" style="fill:#a7226e;stroke:#ffffff;stroke-width:0.48;"/>
    <path clip-path="url(#p9075014b2d)" d="M 131.490384 17.17468 
L 131.490384 21.41732 
L 135.733025 21.41732 
L 135.733025 17.17468 
z
" style="fill:#a7226e;stroke:#ffffff;stroke-width:0.48;"/>
    <path clip-path="url(#p9075014b2d)" d="M 138.254021 17.17468 
L 138.254021 21.41732 
L 142.496661 21.41732 
L 142.496661 17.17468 
z
" style="fill:#a7226e;stroke:#ffffff;stroke-width:0.48;"/>
    <path clip-path="url(#p9075014b2d)" d="M 145.017657 26.611897 
L 145.017657 30.854538 
L 149.260298 30.854538 
L 149.260298 26.611897 
z
" style="fill:#a7226e;stroke:#ffffff;stroke-width:0.48;"/>
    <path clip-path="url(#p9075014b2d)" d="M 151.781293 26.611897 
L 151.781293 30.854538 
L 156.023934 30.854538 
L 156.023934 26.611897 
z
" style="fill:#a7226e;stroke:#ffffff;stroke-width:0.48;"/>
    <path clip-path="url(#p9075014b2d)" d="M 158.54493 26.611897 
L 158.54493 30.854538 
L 162.78757 30.854538 
L 162.78757 26.611897 
z
" style="fill:#a7226e;stroke:#ffffff;stroke-width:0.48;"/>
    <path clip-path="url(#p9075014b2d)" d="M 165.308566 17.17468 
L 165.308566 21.41732 
L 169.551207 21.41732 
L 169.551207 17.17468 
z
" style="fill:#a7226e;stroke:#ffffff;stroke-width:0.48;"/>
    <path clip-path="url(#p9075014b2d)" d="M 172.072202 26.611897 
L 172.072202 30.854538 
L 176.314843 30.854538 
L 176.314843 26.611897 
z
" style="fill:#a7226e;stroke:#ffffff;stroke-width:0.48;"/>
    <path clip-path="url(#p9075014b2d)" d="M 178.835839 26.611897 
L 178.835839 30.854538 
L 183.078479 30.854538 
L 183.078479 26.611897 
z
" style="fill:#a7226e;stroke:#ffffff;stroke-width:0.48;"/>
    <path clip-path="url(#p9075014b2d)" d="M 185.599475 36.314952 
L 185.599475 40.557592 
L 189.842116 40.557592 
L 189.842116 36.314952 
z
" style="fill:#a7226e;stroke:#ffffff;stroke-width:0.48;"/>
    <path clip-path="url(#p9075014b2d)" d="M 192.363111 36.314952 
L 192.363111 40.557592 
L 196.605752 40.557592 
L 196.605752 36.314952 
z
" style="fill:#a7226e;stroke:#ffffff;stroke-width:0.48;"/>
    <path clip-path="url(#p9075014b2d)" d="M 199.126748 26.611897 
L 199.126748 30.854538 
L 203.369389 30.854538 
L 203.369389 26.611897 
z
" style="fill:#a7226e;stroke:#ffffff;stroke-width:0.48;"/>
    <path clip-path="url(#p9075014b2d)" d="M 205.890384 26.611897 
L 205.890384 30.854538 
L 210.133025 30.854538 
L 210.133025 26.611897 
z
" style="fill:#a7226e;stroke:#ffffff;stroke-width:0.48;"/>
    <path clip-path="url(#p9075014b2d)" d="M 212.654021 26.611897 
L 212.654021 30.854538 
L 216.896661 30.854538 
L 216.896661 26.611897 
z
" style="fill:#a7226e;stroke:#ffffff;stroke-width:0.48;"/>
    <path clip-path="url(#p9075014b2d)" d="M 219.417657 17.17468 
L 219.417657 21.41732 
L 223.660298 21.41732 
L 223.660298 17.17468 
z
" style="fill:#a7226e;stroke:#ffffff;stroke-width:0.48;"/>
    <path clip-path="url(#p9075014b2d)" d="M 226.181293 56.564804 
L 226.181293 60.807445 
L 230.423934 60.807445 
L 230.423934 56.564804 
z
" style="fill:#a7226e;stroke:#ffffff;stroke-width:0.48;"/>
    <path clip-path="url(#p9075014b2d)" d="M 232.94493 17.17468 
L 232.94493 21.41732 
L 237.18757 21.41732 
L 237.18757 17.17468 
z
" style="fill:#a7226e;stroke:#ffffff;stroke-width:0.48;"/>
    <path clip-path="url(#p9075014b2d)" d="M 239.708566 17.17468 
L 239.708566 21.41732 
L 243.951207 21.41732 
L 243.951207 17.17468 
z
" style="fill:#a7226e;stroke:#ffffff;stroke-width:0.48;"/>
    <path clip-path="url(#p9075014b2d)" d="M 246.472202 17.17468 
L 246.472202 21.41732 
L 250.714843 21.41732 
L 250.714843 17.17468 
z
" style="fill:#a7226e;stroke:#ffffff;stroke-width:0.48;"/>
    <path clip-path="url(#p9075014b2d)" d="M 253.235839 78.023604 
L 253.235839 82.266244 
L 257.478479 82.266244 
L 257.478479 78.023604 
z
" style="fill:#a7226e;stroke:#ffffff;stroke-width:0.48;"/>
    <path clip-path="url(#p9075014b2d)" d="M 259.999475 17.17468 
L 259.999475 21.41732 
L 264.242116 21.41732 
L 264.242116 17.17468 
z
" style="fill:#a7226e;stroke:#ffffff;stroke-width:0.48;"/>
    <path clip-path="url(#p9075014b2d)" d="M 266.763111 46.295236 
L 266.763111 50.537877 
L 271.005752 50.537877 
L 271.005752 46.295236 
z
" style="fill:#a7226e;stroke:#ffffff;stroke-width:0.48;"/>
    <path clip-path="url(#p9075014b2d)" d="M 273.526748 36.314952 
L 273.526748 40.557592 
L 277.769389 40.557592 
L 277.769389 36.314952 
z
" style="fill:#a7226e;stroke:#ffffff;stroke-width:0.48;"/>
    <path clip-path="url(#p9075014b2d)" d="M 280.290384 36.314952 
L 280.290384 40.557592 
L 284.533025 40.557592 
L 284.533025 36.314952 
z
" style="fill:#a7226e;stroke:#ffffff;stroke-width:0.48;"/>
    <path clip-path="url(#p9075014b2d)" d="M 287.054021 36.314952 
L 287.054021 40.557592 
L 291.296661 40.557592 
L 291.296661 36.314952 
z
" style="fill:#a7226e;stroke:#ffffff;stroke-width:0.48;"/>
    <path clip-path="url(#p9075014b2d)" d="M 293.817657 125.028593 
L 293.817657 129.271233 
L 298.060298 129.271233 
L 298.060298 125.028593 
z
" style="fill:#a7226e;stroke:#ffffff;stroke-width:0.48;"/>
    <path clip-path="url(#p9075014b2d)" d="M 300.581293 125.028593 
L 300.581293 129.271233 
L 304.823934 129.271233 
L 304.823934 125.028593 
z
" style="fill:#a7226e;stroke:#ffffff;stroke-width:0.48;"/>
    <path clip-path="url(#p9075014b2d)" d="M 307.34493 125.028593 
L 307.34493 129.271233 
L 311.58757 129.271233 
L 311.58757 125.028593 
z
" style="fill:#a7226e;stroke:#ffffff;stroke-width:0.48;"/>
    <path clip-path="url(#p9075014b2d)" d="M 314.108566 125.028593 
L 314.108566 129.271233 
L 318.351207 129.271233 
L 318.351207 125.028593 
z
" style="fill:#a7226e;stroke:#ffffff;stroke-width:0.48;"/>
    <path clip-path="url(#p9075014b2d)" d="M 320.872202 125.028593 
L 320.872202 129.271233 
L 325.114843 129.271233 
L 325.114843 125.028593 
z
" style="fill:#a7226e;stroke:#ffffff;stroke-width:0.48;"/>
    <path clip-path="url(#p9075014b2d)" d="M 327.635839 125.028593 
L 327.635839 129.271233 
L 331.878479 129.271233 
L 331.878479 125.028593 
z
" style="fill:#a7226e;stroke:#ffffff;stroke-width:0.48;"/>
    <path clip-path="url(#p9075014b2d)" d="M 334.399475 125.028593 
L 334.399475 129.271233 
L 338.642116 129.271233 
L 338.642116 125.028593 
z
" style="fill:#a7226e;stroke:#ffffff;stroke-width:0.48;"/>
    <path clip-path="url(#p9075014b2d)" d="M 341.163111 125.028593 
L 341.163111 129.271233 
L 345.405752 129.271233 
L 345.405752 125.028593 
z
" style="fill:#a7226e;stroke:#ffffff;stroke-width:0.48;"/>
    <path clip-path="url(#p9075014b2d)" d="M 347.926748 125.028593 
L 347.926748 129.271233 
L 352.169389 129.271233 
L 352.169389 125.028593 
z
" style="fill:#a7226e;stroke:#ffffff;stroke-width:0.48;"/>
    <path clip-path="url(#p9075014b2d)" d="M 354.690384 125.028593 
L 354.690384 129.271233 
L 358.933025 129.271233 
L 358.933025 125.028593 
z
" style="fill:#a7226e;stroke:#ffffff;stroke-width:0.48;"/>
    <path clip-path="url(#p9075014b2d)" d="M 361.454021 125.028593 
L 361.454021 129.271233 
L 365.696661 129.271233 
L 365.696661 125.028593 
z
" style="fill:#a7226e;stroke:#ffffff;stroke-width:0.48;"/>
    <path clip-path="url(#p9075014b2d)" d="M 368.217657 125.028593 
L 368.217657 129.271233 
L 372.460298 129.271233 
L 372.460298 125.028593 
z
" style="fill:#a7226e;stroke:#ffffff;stroke-width:0.48;"/>
    <path clip-path="url(#p9075014b2d)" d="M 374.981293 125.028593 
L 374.981293 129.271233 
L 379.223934 129.271233 
L 379.223934 125.028593 
z
" style="fill:#a7226e;stroke:#ffffff;stroke-width:0.48;"/>
    <path clip-path="url(#p9075014b2d)" d="M 381.74493 125.028593 
L 381.74493 129.271233 
L 385.98757 129.271233 
L 385.98757 125.028593 
z
" style="fill:#a7226e;stroke:#ffffff;stroke-width:0.48;"/>
    <path clip-path="url(#p9075014b2d)" d="M 388.508566 125.028593 
L 388.508566 129.271233 
L 392.751207 129.271233 
L 392.751207 125.028593 
z
" style="fill:#a7226e;stroke:#ffffff;stroke-width:0.48;"/>
    <path clip-path="url(#p9075014b2d)" d="M 395.272202 125.028593 
L 395.272202 129.271233 
L 399.514843 129.271233 
L 399.514843 125.028593 
z
" style="fill:#a7226e;stroke:#ffffff;stroke-width:0.48;"/>
   </g>
   <g id="PathCollection_2"/>
   <g id="PathCollection_3"/>
   <g id="PathCollection_4"/>
   <g id="matplotlib.axis_1">
    <g id="xtick_1">
     <g id="line2d_1">
      <defs>
       <path d="M 0 0 
L 0 3.5 
" id="m6ce26ee869" style="stroke:#000000;stroke-width:0.8;"/>
      </defs>
      <g>
       <use style="stroke:#000000;stroke-width:0.8;" x="65.975341" xlink:href="#m6ce26ee869" y="273.312"/>
      </g>
     </g>
     <g id="text_1">
      <!-- 0.0 -->
      <g transform="translate(58.023778 287.910437)scale(0.1 -0.1)">
       <defs>
        <path d="M 31.78125 66.40625 
Q 24.171875 66.40625 20.328125 58.90625 
Q 16.5 51.421875 16.5 36.375 
Q 16.5 21.390625 20.328125 13.890625 
Q 24.171875 6.390625 31.78125 6.390625 
Q 39.453125 6.390625 43.28125 13.890625 
Q 47.125 21.390625 47.125 36.375 
Q 47.125 51.421875 43.28125 58.90625 
Q 39.453125 66.40625 31.78125 66.40625 
z
M 31.78125 74.21875 
Q 44.046875 74.21875 50.515625 64.515625 
Q 56.984375 54.828125 56.984375 36.375 
Q 56.984375 17.96875 50.515625 8.265625 
Q 44.046875 -1.421875 31.78125 -1.421875 
Q 19.53125 -1.421875 13.0625 8.265625 
Q 6.59375 17.96875 6.59375 36.375 
Q 6.59375 54.828125 13.0625 64.515625 
Q 19.53125 74.21875 31.78125 74.21875 
z
" id="DejaVuSans-48"/>
        <path d="M 10.6875 12.40625 
L 21 12.40625 
L 21 0 
L 10.6875 0 
z
" id="DejaVuSans-46"/>
       </defs>
       <use xlink:href="#DejaVuSans-48"/>
       <use x="63.623047" xlink:href="#DejaVuSans-46"/>
       <use x="95.410156" xlink:href="#DejaVuSans-48"/>
      </g>
     </g>
    </g>
    <g id="xtick_2">
     <g id="line2d_2">
      <g>
       <use style="stroke:#000000;stroke-width:0.8;" x="133.611705" xlink:href="#m6ce26ee869" y="273.312"/>
      </g>
     </g>
     <g id="text_2">
      <!-- 0.2 -->
      <g transform="translate(125.660142 287.910437)scale(0.1 -0.1)">
       <defs>
        <path d="M 19.1875 8.296875 
L 53.609375 8.296875 
L 53.609375 0 
L 7.328125 0 
L 7.328125 8.296875 
Q 12.9375 14.109375 22.625 23.890625 
Q 32.328125 33.6875 34.8125 36.53125 
Q 39.546875 41.84375 41.421875 45.53125 
Q 43.3125 49.21875 43.3125 52.78125 
Q 43.3125 58.59375 39.234375 62.25 
Q 35.15625 65.921875 28.609375 65.921875 
Q 23.96875 65.921875 18.8125 64.3125 
Q 13.671875 62.703125 7.8125 59.421875 
L 7.8125 69.390625 
Q 13.765625 71.78125 18.9375 73 
Q 24.125 74.21875 28.421875 74.21875 
Q 39.75 74.21875 46.484375 68.546875 
Q 53.21875 62.890625 53.21875 53.421875 
Q 53.21875 48.921875 51.53125 44.890625 
Q 49.859375 40.875 45.40625 35.40625 
Q 44.1875 33.984375 37.640625 27.21875 
Q 31.109375 20.453125 19.1875 8.296875 
z
" id="DejaVuSans-50"/>
       </defs>
       <use xlink:href="#DejaVuSans-48"/>
       <use x="63.623047" xlink:href="#DejaVuSans-46"/>
       <use x="95.410156" xlink:href="#DejaVuSans-50"/>
      </g>
     </g>
    </g>
    <g id="xtick_3">
     <g id="line2d_3">
      <g>
       <use style="stroke:#000000;stroke-width:0.8;" x="201.248068" xlink:href="#m6ce26ee869" y="273.312"/>
      </g>
     </g>
     <g id="text_3">
      <!-- 0.4 -->
      <g transform="translate(193.296506 287.910437)scale(0.1 -0.1)">
       <defs>
        <path d="M 37.796875 64.3125 
L 12.890625 25.390625 
L 37.796875 25.390625 
z
M 35.203125 72.90625 
L 47.609375 72.90625 
L 47.609375 25.390625 
L 58.015625 25.390625 
L 58.015625 17.1875 
L 47.609375 17.1875 
L 47.609375 0 
L 37.796875 0 
L 37.796875 17.1875 
L 4.890625 17.1875 
L 4.890625 26.703125 
z
" id="DejaVuSans-52"/>
       </defs>
       <use xlink:href="#DejaVuSans-48"/>
       <use x="63.623047" xlink:href="#DejaVuSans-46"/>
       <use x="95.410156" xlink:href="#DejaVuSans-52"/>
      </g>
     </g>
    </g>
    <g id="xtick_4">
     <g id="line2d_4">
      <g>
       <use style="stroke:#000000;stroke-width:0.8;" x="268.884432" xlink:href="#m6ce26ee869" y="273.312"/>
      </g>
     </g>
     <g id="text_4">
      <!-- 0.6 -->
      <g transform="translate(260.932869 287.910437)scale(0.1 -0.1)">
       <defs>
        <path d="M 33.015625 40.375 
Q 26.375 40.375 22.484375 35.828125 
Q 18.609375 31.296875 18.609375 23.390625 
Q 18.609375 15.53125 22.484375 10.953125 
Q 26.375 6.390625 33.015625 6.390625 
Q 39.65625 6.390625 43.53125 10.953125 
Q 47.40625 15.53125 47.40625 23.390625 
Q 47.40625 31.296875 43.53125 35.828125 
Q 39.65625 40.375 33.015625 40.375 
z
M 52.59375 71.296875 
L 52.59375 62.3125 
Q 48.875 64.0625 45.09375 64.984375 
Q 41.3125 65.921875 37.59375 65.921875 
Q 27.828125 65.921875 22.671875 59.328125 
Q 17.53125 52.734375 16.796875 39.40625 
Q 19.671875 43.65625 24.015625 45.921875 
Q 28.375 48.1875 33.59375 48.1875 
Q 44.578125 48.1875 50.953125 41.515625 
Q 57.328125 34.859375 57.328125 23.390625 
Q 57.328125 12.15625 50.6875 5.359375 
Q 44.046875 -1.421875 33.015625 -1.421875 
Q 20.359375 -1.421875 13.671875 8.265625 
Q 6.984375 17.96875 6.984375 36.375 
Q 6.984375 53.65625 15.1875 63.9375 
Q 23.390625 74.21875 37.203125 74.21875 
Q 40.921875 74.21875 44.703125 73.484375 
Q 48.484375 72.75 52.59375 71.296875 
z
" id="DejaVuSans-54"/>
       </defs>
       <use xlink:href="#DejaVuSans-48"/>
       <use x="63.623047" xlink:href="#DejaVuSans-46"/>
       <use x="95.410156" xlink:href="#DejaVuSans-54"/>
      </g>
     </g>
    </g>
    <g id="xtick_5">
     <g id="line2d_5">
      <g>
       <use style="stroke:#000000;stroke-width:0.8;" x="336.520795" xlink:href="#m6ce26ee869" y="273.312"/>
      </g>
     </g>
     <g id="text_5">
      <!-- 0.8 -->
      <g transform="translate(328.569233 287.910437)scale(0.1 -0.1)">
       <defs>
        <path d="M 31.78125 34.625 
Q 24.75 34.625 20.71875 30.859375 
Q 16.703125 27.09375 16.703125 20.515625 
Q 16.703125 13.921875 20.71875 10.15625 
Q 24.75 6.390625 31.78125 6.390625 
Q 38.8125 6.390625 42.859375 10.171875 
Q 46.921875 13.96875 46.921875 20.515625 
Q 46.921875 27.09375 42.890625 30.859375 
Q 38.875 34.625 31.78125 34.625 
z
M 21.921875 38.8125 
Q 15.578125 40.375 12.03125 44.71875 
Q 8.5 49.078125 8.5 55.328125 
Q 8.5 64.0625 14.71875 69.140625 
Q 20.953125 74.21875 31.78125 74.21875 
Q 42.671875 74.21875 48.875 69.140625 
Q 55.078125 64.0625 55.078125 55.328125 
Q 55.078125 49.078125 51.53125 44.71875 
Q 48 40.375 41.703125 38.8125 
Q 48.828125 37.15625 52.796875 32.3125 
Q 56.78125 27.484375 56.78125 20.515625 
Q 56.78125 9.90625 50.3125 4.234375 
Q 43.84375 -1.421875 31.78125 -1.421875 
Q 19.734375 -1.421875 13.25 4.234375 
Q 6.78125 9.90625 6.78125 20.515625 
Q 6.78125 27.484375 10.78125 32.3125 
Q 14.796875 37.15625 21.921875 38.8125 
z
M 18.3125 54.390625 
Q 18.3125 48.734375 21.84375 45.5625 
Q 25.390625 42.390625 31.78125 42.390625 
Q 38.140625 42.390625 41.71875 45.5625 
Q 45.3125 48.734375 45.3125 54.390625 
Q 45.3125 60.0625 41.71875 63.234375 
Q 38.140625 66.40625 31.78125 66.40625 
Q 25.390625 66.40625 21.84375 63.234375 
Q 18.3125 60.0625 18.3125 54.390625 
z
" id="DejaVuSans-56"/>
       </defs>
       <use xlink:href="#DejaVuSans-48"/>
       <use x="63.623047" xlink:href="#DejaVuSans-46"/>
       <use x="95.410156" xlink:href="#DejaVuSans-56"/>
      </g>
     </g>
    </g>
    <g id="xtick_6">
     <g id="line2d_6">
      <g>
       <use style="stroke:#000000;stroke-width:0.8;" x="404.157159" xlink:href="#m6ce26ee869" y="273.312"/>
      </g>
     </g>
     <g id="text_6">
      <!-- 1.0 -->
      <g transform="translate(396.205597 287.910437)scale(0.1 -0.1)">
       <defs>
        <path d="M 12.40625 8.296875 
L 28.515625 8.296875 
L 28.515625 63.921875 
L 10.984375 60.40625 
L 10.984375 69.390625 
L 28.421875 72.90625 
L 38.28125 72.90625 
L 38.28125 8.296875 
L 54.390625 8.296875 
L 54.390625 0 
L 12.40625 0 
z
" id="DejaVuSans-49"/>
       </defs>
       <use xlink:href="#DejaVuSans-49"/>
       <use x="63.623047" xlink:href="#DejaVuSans-46"/>
       <use x="95.410156" xlink:href="#DejaVuSans-48"/>
      </g>
     </g>
    </g>
    <g id="text_7">
     <!-- cutoff -->
     <g transform="translate(220.608438 301.588562)scale(0.1 -0.1)">
      <defs>
       <path d="M 48.78125 52.59375 
L 48.78125 44.1875 
Q 44.96875 46.296875 41.140625 47.34375 
Q 37.3125 48.390625 33.40625 48.390625 
Q 24.65625 48.390625 19.8125 42.84375 
Q 14.984375 37.3125 14.984375 27.296875 
Q 14.984375 17.28125 19.8125 11.734375 
Q 24.65625 6.203125 33.40625 6.203125 
Q 37.3125 6.203125 41.140625 7.25 
Q 44.96875 8.296875 48.78125 10.40625 
L 48.78125 2.09375 
Q 45.015625 0.34375 40.984375 -0.53125 
Q 36.96875 -1.421875 32.421875 -1.421875 
Q 20.0625 -1.421875 12.78125 6.34375 
Q 5.515625 14.109375 5.515625 27.296875 
Q 5.515625 40.671875 12.859375 48.328125 
Q 20.21875 56 33.015625 56 
Q 37.15625 56 41.109375 55.140625 
Q 45.0625 54.296875 48.78125 52.59375 
z
" id="DejaVuSans-99"/>
       <path d="M 8.5 21.578125 
L 8.5 54.6875 
L 17.484375 54.6875 
L 17.484375 21.921875 
Q 17.484375 14.15625 20.5 10.265625 
Q 23.53125 6.390625 29.59375 6.390625 
Q 36.859375 6.390625 41.078125 11.03125 
Q 45.3125 15.671875 45.3125 23.6875 
L 45.3125 54.6875 
L 54.296875 54.6875 
L 54.296875 0 
L 45.3125 0 
L 45.3125 8.40625 
Q 42.046875 3.421875 37.71875 1 
Q 33.40625 -1.421875 27.6875 -1.421875 
Q 18.265625 -1.421875 13.375 4.4375 
Q 8.5 10.296875 8.5 21.578125 
z
M 31.109375 56 
z
" id="DejaVuSans-117"/>
       <path d="M 18.3125 70.21875 
L 18.3125 54.6875 
L 36.8125 54.6875 
L 36.8125 47.703125 
L 18.3125 47.703125 
L 18.3125 18.015625 
Q 18.3125 11.328125 20.140625 9.421875 
Q 21.96875 7.515625 27.59375 7.515625 
L 36.8125 7.515625 
L 36.8125 0 
L 27.59375 0 
Q 17.1875 0 13.234375 3.875 
Q 9.28125 7.765625 9.28125 18.015625 
L 9.28125 47.703125 
L 2.6875 47.703125 
L 2.6875 54.6875 
L 9.28125 54.6875 
L 9.28125 70.21875 
z
" id="DejaVuSans-116"/>
       <path d="M 30.609375 48.390625 
Q 23.390625 48.390625 19.1875 42.75 
Q 14.984375 37.109375 14.984375 27.296875 
Q 14.984375 17.484375 19.15625 11.84375 
Q 23.34375 6.203125 30.609375 6.203125 
Q 37.796875 6.203125 41.984375 11.859375 
Q 46.1875 17.53125 46.1875 27.296875 
Q 46.1875 37.015625 41.984375 42.703125 
Q 37.796875 48.390625 30.609375 48.390625 
z
M 30.609375 56 
Q 42.328125 56 49.015625 48.375 
Q 55.71875 40.765625 55.71875 27.296875 
Q 55.71875 13.875 49.015625 6.21875 
Q 42.328125 -1.421875 30.609375 -1.421875 
Q 18.84375 -1.421875 12.171875 6.21875 
Q 5.515625 13.875 5.515625 27.296875 
Q 5.515625 40.765625 12.171875 48.375 
Q 18.84375 56 30.609375 56 
z
" id="DejaVuSans-111"/>
       <path d="M 37.109375 75.984375 
L 37.109375 68.5 
L 28.515625 68.5 
Q 23.6875 68.5 21.796875 66.546875 
Q 19.921875 64.59375 19.921875 59.515625 
L 19.921875 54.6875 
L 34.71875 54.6875 
L 34.71875 47.703125 
L 19.921875 47.703125 
L 19.921875 0 
L 10.890625 0 
L 10.890625 47.703125 
L 2.296875 47.703125 
L 2.296875 54.6875 
L 10.890625 54.6875 
L 10.890625 58.5 
Q 10.890625 67.625 15.140625 71.796875 
Q 19.390625 75.984375 28.609375 75.984375 
z
" id="DejaVuSans-102"/>
      </defs>
      <use xlink:href="#DejaVuSans-99"/>
      <use x="54.980469" xlink:href="#DejaVuSans-117"/>
      <use x="118.359375" xlink:href="#DejaVuSans-116"/>
      <use x="157.568359" xlink:href="#DejaVuSans-111"/>
      <use x="218.75" xlink:href="#DejaVuSans-102"/>
      <use x="253.955078" xlink:href="#DejaVuSans-102"/>
     </g>
    </g>
   </g>
   <g id="matplotlib.axis_2">
    <g id="ytick_1">
     <g id="line2d_7">
      <defs>
       <path d="M 0 0 
L -3.5 0 
" id="mcdb587d164" style="stroke:#000000;stroke-width:0.8;"/>
      </defs>
      <g>
       <use style="stroke:#000000;stroke-width:0.8;" x="56.50625" xlink:href="#mcdb587d164" y="251.618087"/>
      </g>
     </g>
     <g id="text_8">
      <!-- 0.375 -->
      <g transform="translate(20.878125 255.417306)scale(0.1 -0.1)">
       <defs>
        <path d="M 40.578125 39.3125 
Q 47.65625 37.796875 51.625 33 
Q 55.609375 28.21875 55.609375 21.1875 
Q 55.609375 10.40625 48.1875 4.484375 
Q 40.765625 -1.421875 27.09375 -1.421875 
Q 22.515625 -1.421875 17.65625 -0.515625 
Q 12.796875 0.390625 7.625 2.203125 
L 7.625 11.71875 
Q 11.71875 9.328125 16.59375 8.109375 
Q 21.484375 6.890625 26.8125 6.890625 
Q 36.078125 6.890625 40.9375 10.546875 
Q 45.796875 14.203125 45.796875 21.1875 
Q 45.796875 27.640625 41.28125 31.265625 
Q 36.765625 34.90625 28.71875 34.90625 
L 20.21875 34.90625 
L 20.21875 43.015625 
L 29.109375 43.015625 
Q 36.375 43.015625 40.234375 45.921875 
Q 44.09375 48.828125 44.09375 54.296875 
Q 44.09375 59.90625 40.109375 62.90625 
Q 36.140625 65.921875 28.71875 65.921875 
Q 24.65625 65.921875 20.015625 65.03125 
Q 15.375 64.15625 9.8125 62.3125 
L 9.8125 71.09375 
Q 15.4375 72.65625 20.34375 73.4375 
Q 25.25 74.21875 29.59375 74.21875 
Q 40.828125 74.21875 47.359375 69.109375 
Q 53.90625 64.015625 53.90625 55.328125 
Q 53.90625 49.265625 50.4375 45.09375 
Q 46.96875 40.921875 40.578125 39.3125 
z
" id="DejaVuSans-51"/>
        <path d="M 8.203125 72.90625 
L 55.078125 72.90625 
L 55.078125 68.703125 
L 28.609375 0 
L 18.3125 0 
L 43.21875 64.59375 
L 8.203125 64.59375 
z
" id="DejaVuSans-55"/>
        <path d="M 10.796875 72.90625 
L 49.515625 72.90625 
L 49.515625 64.59375 
L 19.828125 64.59375 
L 19.828125 46.734375 
Q 21.96875 47.46875 24.109375 47.828125 
Q 26.265625 48.1875 28.421875 48.1875 
Q 40.625 48.1875 47.75 41.5 
Q 54.890625 34.8125 54.890625 23.390625 
Q 54.890625 11.625 47.5625 5.09375 
Q 40.234375 -1.421875 26.90625 -1.421875 
Q 22.3125 -1.421875 17.546875 -0.640625 
Q 12.796875 0.140625 7.71875 1.703125 
L 7.71875 11.625 
Q 12.109375 9.234375 16.796875 8.0625 
Q 21.484375 6.890625 26.703125 6.890625 
Q 35.15625 6.890625 40.078125 11.328125 
Q 45.015625 15.765625 45.015625 23.390625 
Q 45.015625 31 40.078125 35.4375 
Q 35.15625 39.890625 26.703125 39.890625 
Q 22.75 39.890625 18.8125 39.015625 
Q 14.890625 38.140625 10.796875 36.28125 
z
" id="DejaVuSans-53"/>
       </defs>
       <use xlink:href="#DejaVuSans-48"/>
       <use x="63.623047" xlink:href="#DejaVuSans-46"/>
       <use x="95.410156" xlink:href="#DejaVuSans-51"/>
       <use x="159.033203" xlink:href="#DejaVuSans-55"/>
       <use x="222.65625" xlink:href="#DejaVuSans-53"/>
      </g>
     </g>
    </g>
    <g id="ytick_2">
     <g id="line2d_8">
      <g>
       <use style="stroke:#000000;stroke-width:0.8;" x="56.50625" xlink:href="#mcdb587d164" y="215.146017"/>
      </g>
     </g>
     <g id="text_9">
      <!-- 0.400 -->
      <g transform="translate(20.878125 218.945236)scale(0.1 -0.1)">
       <use xlink:href="#DejaVuSans-48"/>
       <use x="63.623047" xlink:href="#DejaVuSans-46"/>
       <use x="95.410156" xlink:href="#DejaVuSans-52"/>
       <use x="159.033203" xlink:href="#DejaVuSans-48"/>
       <use x="222.65625" xlink:href="#DejaVuSans-48"/>
      </g>
     </g>
    </g>
    <g id="ytick_3">
     <g id="line2d_9">
      <g>
       <use style="stroke:#000000;stroke-width:0.8;" x="56.50625" xlink:href="#mcdb587d164" y="178.673948"/>
      </g>
     </g>
     <g id="text_10">
      <!-- 0.425 -->
      <g transform="translate(20.878125 182.473167)scale(0.1 -0.1)">
       <use xlink:href="#DejaVuSans-48"/>
       <use x="63.623047" xlink:href="#DejaVuSans-46"/>
       <use x="95.410156" xlink:href="#DejaVuSans-52"/>
       <use x="159.033203" xlink:href="#DejaVuSans-50"/>
       <use x="222.65625" xlink:href="#DejaVuSans-53"/>
      </g>
     </g>
    </g>
    <g id="ytick_4">
     <g id="line2d_10">
      <g>
       <use style="stroke:#000000;stroke-width:0.8;" x="56.50625" xlink:href="#mcdb587d164" y="142.201878"/>
      </g>
     </g>
     <g id="text_11">
      <!-- 0.450 -->
      <g transform="translate(20.878125 146.001097)scale(0.1 -0.1)">
       <use xlink:href="#DejaVuSans-48"/>
       <use x="63.623047" xlink:href="#DejaVuSans-46"/>
       <use x="95.410156" xlink:href="#DejaVuSans-52"/>
       <use x="159.033203" xlink:href="#DejaVuSans-53"/>
       <use x="222.65625" xlink:href="#DejaVuSans-48"/>
      </g>
     </g>
    </g>
    <g id="ytick_5">
     <g id="line2d_11">
      <g>
       <use style="stroke:#000000;stroke-width:0.8;" x="56.50625" xlink:href="#mcdb587d164" y="105.729809"/>
      </g>
     </g>
     <g id="text_12">
      <!-- 0.475 -->
      <g transform="translate(20.878125 109.529027)scale(0.1 -0.1)">
       <use xlink:href="#DejaVuSans-48"/>
       <use x="63.623047" xlink:href="#DejaVuSans-46"/>
       <use x="95.410156" xlink:href="#DejaVuSans-52"/>
       <use x="159.033203" xlink:href="#DejaVuSans-55"/>
       <use x="222.65625" xlink:href="#DejaVuSans-53"/>
      </g>
     </g>
    </g>
    <g id="ytick_6">
     <g id="line2d_12">
      <g>
       <use style="stroke:#000000;stroke-width:0.8;" x="56.50625" xlink:href="#mcdb587d164" y="69.257739"/>
      </g>
     </g>
     <g id="text_13">
      <!-- 0.500 -->
      <g transform="translate(20.878125 73.056958)scale(0.1 -0.1)">
       <use xlink:href="#DejaVuSans-48"/>
       <use x="63.623047" xlink:href="#DejaVuSans-46"/>
       <use x="95.410156" xlink:href="#DejaVuSans-53"/>
       <use x="159.033203" xlink:href="#DejaVuSans-48"/>
       <use x="222.65625" xlink:href="#DejaVuSans-48"/>
      </g>
     </g>
    </g>
    <g id="ytick_7">
     <g id="line2d_13">
      <g>
       <use style="stroke:#000000;stroke-width:0.8;" x="56.50625" xlink:href="#mcdb587d164" y="32.78567"/>
      </g>
     </g>
     <g id="text_14">
      <!-- 0.525 -->
      <g transform="translate(20.878125 36.584888)scale(0.1 -0.1)">
       <use xlink:href="#DejaVuSans-48"/>
       <use x="63.623047" xlink:href="#DejaVuSans-46"/>
       <use x="95.410156" xlink:href="#DejaVuSans-53"/>
       <use x="159.033203" xlink:href="#DejaVuSans-50"/>
       <use x="222.65625" xlink:href="#DejaVuSans-53"/>
      </g>
     </g>
    </g>
    <g id="text_15">
     <!-- performance -->
     <g transform="translate(14.798437 172.278656)rotate(-90)scale(0.1 -0.1)">
      <defs>
       <path d="M 18.109375 8.203125 
L 18.109375 -20.796875 
L 9.078125 -20.796875 
L 9.078125 54.6875 
L 18.109375 54.6875 
L 18.109375 46.390625 
Q 20.953125 51.265625 25.265625 53.625 
Q 29.59375 56 35.59375 56 
Q 45.5625 56 51.78125 48.09375 
Q 58.015625 40.1875 58.015625 27.296875 
Q 58.015625 14.40625 51.78125 6.484375 
Q 45.5625 -1.421875 35.59375 -1.421875 
Q 29.59375 -1.421875 25.265625 0.953125 
Q 20.953125 3.328125 18.109375 8.203125 
z
M 48.6875 27.296875 
Q 48.6875 37.203125 44.609375 42.84375 
Q 40.53125 48.484375 33.40625 48.484375 
Q 26.265625 48.484375 22.1875 42.84375 
Q 18.109375 37.203125 18.109375 27.296875 
Q 18.109375 17.390625 22.1875 11.75 
Q 26.265625 6.109375 33.40625 6.109375 
Q 40.53125 6.109375 44.609375 11.75 
Q 48.6875 17.390625 48.6875 27.296875 
z
" id="DejaVuSans-112"/>
       <path d="M 56.203125 29.59375 
L 56.203125 25.203125 
L 14.890625 25.203125 
Q 15.484375 15.921875 20.484375 11.0625 
Q 25.484375 6.203125 34.421875 6.203125 
Q 39.59375 6.203125 44.453125 7.46875 
Q 49.3125 8.734375 54.109375 11.28125 
L 54.109375 2.78125 
Q 49.265625 0.734375 44.1875 -0.34375 
Q 39.109375 -1.421875 33.890625 -1.421875 
Q 20.796875 -1.421875 13.15625 6.1875 
Q 5.515625 13.8125 5.515625 26.8125 
Q 5.515625 40.234375 12.765625 48.109375 
Q 20.015625 56 32.328125 56 
Q 43.359375 56 49.78125 48.890625 
Q 56.203125 41.796875 56.203125 29.59375 
z
M 47.21875 32.234375 
Q 47.125 39.59375 43.09375 43.984375 
Q 39.0625 48.390625 32.421875 48.390625 
Q 24.90625 48.390625 20.390625 44.140625 
Q 15.875 39.890625 15.1875 32.171875 
z
" id="DejaVuSans-101"/>
       <path d="M 41.109375 46.296875 
Q 39.59375 47.171875 37.8125 47.578125 
Q 36.03125 48 33.890625 48 
Q 26.265625 48 22.1875 43.046875 
Q 18.109375 38.09375 18.109375 28.8125 
L 18.109375 0 
L 9.078125 0 
L 9.078125 54.6875 
L 18.109375 54.6875 
L 18.109375 46.1875 
Q 20.953125 51.171875 25.484375 53.578125 
Q 30.03125 56 36.53125 56 
Q 37.453125 56 38.578125 55.875 
Q 39.703125 55.765625 41.0625 55.515625 
z
" id="DejaVuSans-114"/>
       <path d="M 52 44.1875 
Q 55.375 50.25 60.0625 53.125 
Q 64.75 56 71.09375 56 
Q 79.640625 56 84.28125 50.015625 
Q 88.921875 44.046875 88.921875 33.015625 
L 88.921875 0 
L 79.890625 0 
L 79.890625 32.71875 
Q 79.890625 40.578125 77.09375 44.375 
Q 74.3125 48.1875 68.609375 48.1875 
Q 61.625 48.1875 57.5625 43.546875 
Q 53.515625 38.921875 53.515625 30.90625 
L 53.515625 0 
L 44.484375 0 
L 44.484375 32.71875 
Q 44.484375 40.625 41.703125 44.40625 
Q 38.921875 48.1875 33.109375 48.1875 
Q 26.21875 48.1875 22.15625 43.53125 
Q 18.109375 38.875 18.109375 30.90625 
L 18.109375 0 
L 9.078125 0 
L 9.078125 54.6875 
L 18.109375 54.6875 
L 18.109375 46.1875 
Q 21.1875 51.21875 25.484375 53.609375 
Q 29.78125 56 35.6875 56 
Q 41.65625 56 45.828125 52.96875 
Q 50 49.953125 52 44.1875 
z
" id="DejaVuSans-109"/>
       <path d="M 34.28125 27.484375 
Q 23.390625 27.484375 19.1875 25 
Q 14.984375 22.515625 14.984375 16.5 
Q 14.984375 11.71875 18.140625 8.90625 
Q 21.296875 6.109375 26.703125 6.109375 
Q 34.1875 6.109375 38.703125 11.40625 
Q 43.21875 16.703125 43.21875 25.484375 
L 43.21875 27.484375 
z
M 52.203125 31.203125 
L 52.203125 0 
L 43.21875 0 
L 43.21875 8.296875 
Q 40.140625 3.328125 35.546875 0.953125 
Q 30.953125 -1.421875 24.3125 -1.421875 
Q 15.921875 -1.421875 10.953125 3.296875 
Q 6 8.015625 6 15.921875 
Q 6 25.140625 12.171875 29.828125 
Q 18.359375 34.515625 30.609375 34.515625 
L 43.21875 34.515625 
L 43.21875 35.40625 
Q 43.21875 41.609375 39.140625 45 
Q 35.0625 48.390625 27.6875 48.390625 
Q 23 48.390625 18.546875 47.265625 
Q 14.109375 46.140625 10.015625 43.890625 
L 10.015625 52.203125 
Q 14.9375 54.109375 19.578125 55.046875 
Q 24.21875 56 28.609375 56 
Q 40.484375 56 46.34375 49.84375 
Q 52.203125 43.703125 52.203125 31.203125 
z
" id="DejaVuSans-97"/>
       <path d="M 54.890625 33.015625 
L 54.890625 0 
L 45.90625 0 
L 45.90625 32.71875 
Q 45.90625 40.484375 42.875 44.328125 
Q 39.84375 48.1875 33.796875 48.1875 
Q 26.515625 48.1875 22.3125 43.546875 
Q 18.109375 38.921875 18.109375 30.90625 
L 18.109375 0 
L 9.078125 0 
L 9.078125 54.6875 
L 18.109375 54.6875 
L 18.109375 46.1875 
Q 21.34375 51.125 25.703125 53.5625 
Q 30.078125 56 35.796875 56 
Q 45.21875 56 50.046875 50.171875 
Q 54.890625 44.34375 54.890625 33.015625 
z
" id="DejaVuSans-110"/>
      </defs>
      <use xlink:href="#DejaVuSans-112"/>
      <use x="63.476562" xlink:href="#DejaVuSans-101"/>
      <use x="125" xlink:href="#DejaVuSans-114"/>
      <use x="166.113281" xlink:href="#DejaVuSans-102"/>
      <use x="201.318359" xlink:href="#DejaVuSans-111"/>
      <use x="262.5" xlink:href="#DejaVuSans-114"/>
      <use x="301.863281" xlink:href="#DejaVuSans-109"/>
      <use x="399.275391" xlink:href="#DejaVuSans-97"/>
      <use x="460.554688" xlink:href="#DejaVuSans-110"/>
      <use x="523.933594" xlink:href="#DejaVuSans-99"/>
      <use x="578.914062" xlink:href="#DejaVuSans-101"/>
     </g>
    </g>
   </g>
   <g id="line2d_14">
    <path clip-path="url(#p9075014b2d)" d="M 72.738977 20.628313 
L 79.502614 29.828475 
L 86.26625 29.828475 
L 93.029886 29.828475 
L 99.793523 20.628313 
L 106.557159 29.828475 
L 113.320795 39.280696 
L 120.084432 39.280696 
L 126.848068 39.280696 
L 133.611705 39.280696 
L 140.375341 101.919294 
L 147.138977 113.466308 
L 153.902614 137.64287 
L 160.66625 113.466308 
L 167.429886 150.306783 
L 174.193523 150.306783 
L 180.957159 150.306783 
L 187.720795 150.306783 
L 194.484432 137.64287 
L 201.248068 150.306783 
L 208.011705 190.831304 
L 214.775341 190.831304 
L 221.538977 190.831304 
L 228.302614 190.831304 
L 235.06625 176.880239 
L 241.829886 150.306783 
L 248.593523 150.306783 
L 255.357159 150.306783 
L 262.120795 150.306783 
L 268.884432 150.306783 
L 275.648068 150.306783 
L 282.411705 150.306783 
L 289.175341 150.306783 
L 295.938977 150.306783 
L 302.702614 150.306783 
L 309.46625 150.306783 
L 316.229886 150.306783 
L 322.993523 150.306783 
L 329.757159 150.306783 
L 336.520795 150.306783 
L 343.284432 150.306783 
L 350.048068 150.306783 
L 356.811705 150.306783 
L 363.575341 150.306783 
L 370.338977 150.306783 
L 377.102614 150.306783 
L 383.86625 150.306783 
L 390.629886 150.306783 
L 397.393523 150.306783 
" style="fill:none;stroke:#f26b38;stroke-dasharray:7.4,3.2;stroke-dashoffset:0;stroke-width:2;"/>
   </g>
   <g id="line2d_15">
    <path clip-path="url(#p9075014b2d)" d="M 72.738977 40.080083 
L 79.502614 49.543107 
L 86.26625 112.166056 
L 93.029886 147.812966 
L 99.793523 123.693664 
L 106.557159 160.437913 
L 113.320795 160.437913 
L 120.084432 160.437913 
L 126.848068 160.437913 
L 133.611705 112.166056 
L 140.375341 100.972582 
L 147.138977 229.982113 
L 153.902614 229.982113 
L 160.66625 229.982113 
L 167.429886 229.982113 
L 174.193523 261.216 
L 180.957159 215.146017 
L 187.720795 215.146017 
L 194.484432 215.146017 
L 201.248068 215.146017 
L 208.011705 215.146017 
L 214.775341 215.146017 
L 221.538977 215.146017 
L 228.302614 215.146017 
L 235.06625 215.146017 
L 241.829886 215.146017 
L 248.593523 215.146017 
L 255.357159 215.146017 
L 262.120795 215.146017 
L 268.884432 215.146017 
L 275.648068 215.146017 
L 282.411705 215.146017 
L 289.175341 215.146017 
L 295.938977 215.146017 
L 302.702614 215.146017 
L 309.46625 215.146017 
L 316.229886 215.146017 
L 322.993523 215.146017 
L 329.757159 215.146017 
L 336.520795 215.146017 
L 343.284432 215.146017 
L 350.048068 215.146017 
L 356.811705 215.146017 
L 363.575341 215.146017 
L 370.338977 215.146017 
L 377.102614 215.146017 
L 383.86625 215.146017 
L 390.629886 215.146017 
L 397.393523 215.146017 
" style="fill:none;stroke:#2f9599;stroke-dasharray:2,3.3;stroke-dashoffset:0;stroke-width:2;"/>
   </g>
   <g id="line2d_16">
    <path clip-path="url(#p9075014b2d)" d="M 72.738977 28.733217 
L 79.502614 28.733217 
L 86.26625 28.733217 
L 93.029886 28.733217 
L 99.793523 28.733217 
L 106.557159 28.733217 
L 113.320795 28.733217 
L 120.084432 38.436272 
L 126.848068 28.733217 
L 133.611705 19.296 
L 140.375341 19.296 
L 147.138977 28.733217 
L 153.902614 28.733217 
L 160.66625 28.733217 
L 167.429886 19.296 
L 174.193523 28.733217 
L 180.957159 28.733217 
L 187.720795 38.436272 
L 194.484432 38.436272 
L 201.248068 28.733217 
L 208.011705 28.733217 
L 214.775341 28.733217 
L 221.538977 19.296 
L 228.302614 58.686125 
L 235.06625 19.296 
L 241.829886 19.296 
L 248.593523 19.296 
L 255.357159 80.144924 
L 262.120795 19.296 
L 268.884432 48.416557 
L 275.648068 38.436272 
L 282.411705 38.436272 
L 289.175341 38.436272 
L 295.938977 127.149913 
L 302.702614 127.149913 
L 309.46625 127.149913 
L 316.229886 127.149913 
L 322.993523 127.149913 
L 329.757159 127.149913 
L 336.520795 127.149913 
L 343.284432 127.149913 
L 350.048068 127.149913 
L 356.811705 127.149913 
L 363.575341 127.149913 
L 370.338977 127.149913 
L 377.102614 127.149913 
L 383.86625 127.149913 
L 390.629886 127.149913 
L 397.393523 127.149913 
" style="fill:none;stroke:#a7226e;stroke-dasharray:12.8,3.2,2,3.2;stroke-dashoffset:0;stroke-width:2;"/>
   </g>
   <g id="patch_3">
    <path d="M 56.50625 273.312 
L 56.50625 7.2 
" style="fill:none;stroke:#000000;stroke-linecap:square;stroke-linejoin:miter;stroke-width:0.8;"/>
   </g>
   <g id="patch_4">
    <path d="M 413.62625 273.312 
L 413.62625 7.2 
" style="fill:none;stroke:#000000;stroke-linecap:square;stroke-linejoin:miter;stroke-width:0.8;"/>
   </g>
   <g id="patch_5">
    <path d="M 56.50625 273.312 
L 413.62625 273.312 
" style="fill:none;stroke:#000000;stroke-linecap:square;stroke-linejoin:miter;stroke-width:0.8;"/>
   </g>
   <g id="patch_6">
    <path d="M 56.50625 7.2 
L 413.62625 7.2 
" style="fill:none;stroke:#000000;stroke-linecap:square;stroke-linejoin:miter;stroke-width:0.8;"/>
   </g>
   <g id="legend_1">
    <g id="patch_7">
     <path d="M 328.152559 43.890912 
L 408.76825 43.890912 
Q 410.15625 43.890912 410.15625 42.502912 
L 410.15625 12.058 
Q 410.15625 10.67 408.76825 10.67 
L 328.152559 10.67 
Q 326.764559 10.67 326.764559 12.058 
L 326.764559 42.502912 
Q 326.764559 43.890912 328.152559 43.890912 
z
" style="fill:#ffffff;opacity:0.8;stroke:#cccccc;stroke-linejoin:miter;"/>
    </g>
    <g id="PathCollection_5">
     <defs>
      <path d="M 0 3 
C 0.795609 3 1.55874 2.683901 2.12132 2.12132 
C 2.683901 1.55874 3 0.795609 3 0 
C 3 -0.795609 2.683901 -1.55874 2.12132 -2.12132 
C 1.55874 -2.683901 0.795609 -3 0 -3 
C -0.795609 -3 -1.55874 -2.683901 -2.12132 -2.12132 
C -2.683901 -1.55874 -3 -0.795609 -3 0 
C -3 0.795609 -2.683901 1.55874 -2.12132 2.12132 
C -1.55874 2.683901 -0.795609 3 0 3 
z
" id="m10945f4026" style="stroke:#f26b38;"/>
     </defs>
     <g>
      <use style="fill:#f26b38;stroke:#f26b38;" x="336.480559" xlink:href="#m10945f4026" y="16.897566"/>
     </g>
    </g>
    <g id="text_16">
     <!-- mean_err -->
     <g transform="translate(348.972559 18.719316)scale(0.0694 -0.0694)">
      <defs>
       <path d="M 50.984375 -16.609375 
L 50.984375 -23.578125 
L -0.984375 -23.578125 
L -0.984375 -16.609375 
z
" id="DejaVuSans-95"/>
      </defs>
      <use xlink:href="#DejaVuSans-109"/>
      <use x="97.412109" xlink:href="#DejaVuSans-101"/>
      <use x="158.935547" xlink:href="#DejaVuSans-97"/>
      <use x="220.214844" xlink:href="#DejaVuSans-110"/>
      <use x="283.59375" xlink:href="#DejaVuSans-95"/>
      <use x="333.59375" xlink:href="#DejaVuSans-101"/>
      <use x="395.117188" xlink:href="#DejaVuSans-114"/>
      <use x="434.480469" xlink:href="#DejaVuSans-114"/>
     </g>
    </g>
    <g id="PathCollection_6">
     <defs>
      <path d="M -1.5 3 
L 0 1.5 
L 1.5 3 
L 3 1.5 
L 1.5 0 
L 3 -1.5 
L 1.5 -3 
L 0 -1.5 
L -1.5 -3 
L -3 -1.5 
L -1.5 0 
L -3 1.5 
z
" id="m611066a715" style="stroke:#2f9599;"/>
     </defs>
     <g>
      <use style="fill:#2f9599;stroke:#2f9599;" x="336.480559" xlink:href="#m611066a715" y="27.277203"/>
     </g>
    </g>
    <g id="text_17">
     <!-- mean_sq_err -->
     <g transform="translate(348.972559 29.098953)scale(0.0694 -0.0694)">
      <defs>
       <path d="M 44.28125 53.078125 
L 44.28125 44.578125 
Q 40.484375 46.53125 36.375 47.5 
Q 32.28125 48.484375 27.875 48.484375 
Q 21.1875 48.484375 17.84375 46.4375 
Q 14.5 44.390625 14.5 40.28125 
Q 14.5 37.15625 16.890625 35.375 
Q 19.28125 33.59375 26.515625 31.984375 
L 29.59375 31.296875 
Q 39.15625 29.25 43.1875 25.515625 
Q 47.21875 21.78125 47.21875 15.09375 
Q 47.21875 7.46875 41.1875 3.015625 
Q 35.15625 -1.421875 24.609375 -1.421875 
Q 20.21875 -1.421875 15.453125 -0.5625 
Q 10.6875 0.296875 5.421875 2 
L 5.421875 11.28125 
Q 10.40625 8.6875 15.234375 7.390625 
Q 20.0625 6.109375 24.8125 6.109375 
Q 31.15625 6.109375 34.5625 8.28125 
Q 37.984375 10.453125 37.984375 14.40625 
Q 37.984375 18.0625 35.515625 20.015625 
Q 33.0625 21.96875 24.703125 23.78125 
L 21.578125 24.515625 
Q 13.234375 26.265625 9.515625 29.90625 
Q 5.8125 33.546875 5.8125 39.890625 
Q 5.8125 47.609375 11.28125 51.796875 
Q 16.75 56 26.8125 56 
Q 31.78125 56 36.171875 55.265625 
Q 40.578125 54.546875 44.28125 53.078125 
z
" id="DejaVuSans-115"/>
       <path d="M 14.796875 27.296875 
Q 14.796875 17.390625 18.875 11.75 
Q 22.953125 6.109375 30.078125 6.109375 
Q 37.203125 6.109375 41.296875 11.75 
Q 45.40625 17.390625 45.40625 27.296875 
Q 45.40625 37.203125 41.296875 42.84375 
Q 37.203125 48.484375 30.078125 48.484375 
Q 22.953125 48.484375 18.875 42.84375 
Q 14.796875 37.203125 14.796875 27.296875 
z
M 45.40625 8.203125 
Q 42.578125 3.328125 38.25 0.953125 
Q 33.9375 -1.421875 27.875 -1.421875 
Q 17.96875 -1.421875 11.734375 6.484375 
Q 5.515625 14.40625 5.515625 27.296875 
Q 5.515625 40.1875 11.734375 48.09375 
Q 17.96875 56 27.875 56 
Q 33.9375 56 38.25 53.625 
Q 42.578125 51.265625 45.40625 46.390625 
L 45.40625 54.6875 
L 54.390625 54.6875 
L 54.390625 -20.796875 
L 45.40625 -20.796875 
z
" id="DejaVuSans-113"/>
      </defs>
      <use xlink:href="#DejaVuSans-109"/>
      <use x="97.412109" xlink:href="#DejaVuSans-101"/>
      <use x="158.935547" xlink:href="#DejaVuSans-97"/>
      <use x="220.214844" xlink:href="#DejaVuSans-110"/>
      <use x="283.59375" xlink:href="#DejaVuSans-95"/>
      <use x="333.59375" xlink:href="#DejaVuSans-115"/>
      <use x="385.693359" xlink:href="#DejaVuSans-113"/>
      <use x="449.169922" xlink:href="#DejaVuSans-95"/>
      <use x="499.169922" xlink:href="#DejaVuSans-101"/>
      <use x="560.693359" xlink:href="#DejaVuSans-114"/>
      <use x="600.056641" xlink:href="#DejaVuSans-114"/>
     </g>
    </g>
    <g id="PathCollection_7">
     <defs>
      <path d="M -2.12132 -2.12132 
L -2.12132 2.12132 
L 2.12132 2.12132 
L 2.12132 -2.12132 
z
" id="ma9cc1d0ff2" style="stroke:#a7226e;"/>
     </defs>
     <g>
      <use style="fill:#a7226e;stroke:#a7226e;" x="336.480559" xlink:href="#ma9cc1d0ff2" y="37.656841"/>
     </g>
    </g>
    <g id="text_18">
     <!-- mean_sqroot_err -->
     <g transform="translate(348.972559 39.478591)scale(0.0694 -0.0694)">
      <use xlink:href="#DejaVuSans-109"/>
      <use x="97.412109" xlink:href="#DejaVuSans-101"/>
      <use x="158.935547" xlink:href="#DejaVuSans-97"/>
      <use x="220.214844" xlink:href="#DejaVuSans-110"/>
      <use x="283.59375" xlink:href="#DejaVuSans-95"/>
      <use x="333.59375" xlink:href="#DejaVuSans-115"/>
      <use x="385.693359" xlink:href="#DejaVuSans-113"/>
      <use x="449.169922" xlink:href="#DejaVuSans-114"/>
      <use x="488.033203" xlink:href="#DejaVuSans-111"/>
      <use x="549.214844" xlink:href="#DejaVuSans-111"/>
      <use x="610.396484" xlink:href="#DejaVuSans-116"/>
      <use x="649.605469" xlink:href="#DejaVuSans-95"/>
      <use x="699.605469" xlink:href="#DejaVuSans-101"/>
      <use x="761.128906" xlink:href="#DejaVuSans-114"/>
      <use x="800.492188" xlink:href="#DejaVuSans-114"/>
     </g>
    </g>
   </g>
  </g>
 </g>
 <defs>
  <clipPath id="p9075014b2d">
   <rect height="266.112" width="357.12" x="56.50625" y="7.2"/>
  </clipPath>
 </defs>
</svg>
