<?xml version="1.0" encoding="utf-8" standalone="no"?>
<!DOCTYPE svg PUBLIC "-//W3C//DTD SVG 1.1//EN"
  "http://www.w3.org/Graphics/SVG/1.1/DTD/svg11.dtd">
<!-- Created with matplotlib (https://matplotlib.org/) -->
<svg height="310.86825pt" version="1.1" viewBox="0 0 414.46375 310.86825" width="414.46375pt" xmlns="http://www.w3.org/2000/svg" xmlns:xlink="http://www.w3.org/1999/xlink">
 <metadata>
  <rdf:RDF xmlns:cc="http://creativecommons.org/ns#" xmlns:dc="http://purl.org/dc/elements/1.1/" xmlns:rdf="http://www.w3.org/1999/02/22-rdf-syntax-ns#">
   <cc:Work>
    <dc:type rdf:resource="http://purl.org/dc/dcmitype/StillImage"/>
    <dc:date>2022-05-27T21:30:00.597533</dc:date>
    <dc:format>image/svg+xml</dc:format>
    <dc:creator>
     <cc:Agent>
      <dc:title>Matplotlib v3.3.4, https://matplotlib.org/</dc:title>
     </cc:Agent>
    </dc:creator>
   </cc:Work>
  </rdf:RDF>
 </metadata>
 <defs>
  <style type="text/css">*{stroke-linecap:butt;stroke-linejoin:round;}</style>
 </defs>
 <g id="figure_1">
  <g id="patch_1">
   <path d="M 0 310.86825 
L 414.46375 310.86825 
L 414.46375 0 
L 0 0 
z
" style="fill:#ffffff;"/>
  </g>
  <g id="axes_1">
   <g id="patch_2">
    <path d="M 50.14375 273.312 
L 407.26375 273.312 
L 407.26375 7.2 
L 50.14375 7.2 
z
" style="fill:#ffffff;"/>
   </g>
   <g id="PathCollection_1">
    <path clip-path="url(#p42e3e6e989)" d="M 66.376477 33.11015 
C 67.172087 33.11015 67.935217 32.794051 68.497798 32.231471 
C 69.060378 31.66889 69.376477 30.90576 69.376477 30.11015 
C 69.376477 29.314541 69.060378 28.551411 68.497798 27.98883 
C 67.935217 27.426249 67.172087 27.11015 66.376477 27.11015 
C 65.580868 27.11015 64.817738 27.426249 64.255157 27.98883 
C 63.692576 28.551411 63.376477 29.314541 63.376477 30.11015 
C 63.376477 30.90576 63.692576 31.66889 64.255157 32.231471 
C 64.817738 32.794051 65.580868 33.11015 66.376477 33.11015 
z
" style="fill:#f26b38;stroke:#ffffff;stroke-width:0.48;"/>
    <path clip-path="url(#p42e3e6e989)" d="M 73.140114 42.572532 
C 73.935723 42.572532 74.698853 42.256433 75.261434 41.693852 
C 75.824015 41.131271 76.140114 40.368141 76.140114 39.572532 
C 76.140114 38.776922 75.824015 38.013792 75.261434 37.451211 
C 74.698853 36.888631 73.935723 36.572532 73.140114 36.572532 
C 72.344504 36.572532 71.581374 36.888631 71.018793 37.451211 
C 70.456213 38.013792 70.140114 38.776922 70.140114 39.572532 
C 70.140114 40.368141 70.456213 41.131271 71.018793 41.693852 
C 71.581374 42.256433 72.344504 42.572532 73.140114 42.572532 
z
" style="fill:#f26b38;stroke:#ffffff;stroke-width:0.48;"/>
    <path clip-path="url(#p42e3e6e989)" d="M 79.90375 42.572532 
C 80.699359 42.572532 81.46249 42.256433 82.02507 41.693852 
C 82.587651 41.131271 82.90375 40.368141 82.90375 39.572532 
C 82.90375 38.776922 82.587651 38.013792 82.02507 37.451211 
C 81.46249 36.888631 80.699359 36.572532 79.90375 36.572532 
C 79.108141 36.572532 78.34501 36.888631 77.78243 37.451211 
C 77.219849 38.013792 76.90375 38.776922 76.90375 39.572532 
C 76.90375 40.368141 77.219849 41.131271 77.78243 41.693852 
C 78.34501 42.256433 79.108141 42.572532 79.90375 42.572532 
z
" style="fill:#f26b38;stroke:#ffffff;stroke-width:0.48;"/>
    <path clip-path="url(#p42e3e6e989)" d="M 86.667386 42.572532 
C 87.462996 42.572532 88.226126 42.256433 88.788707 41.693852 
C 89.351287 41.131271 89.667386 40.368141 89.667386 39.572532 
C 89.667386 38.776922 89.351287 38.013792 88.788707 37.451211 
C 88.226126 36.888631 87.462996 36.572532 86.667386 36.572532 
C 85.871777 36.572532 85.108647 36.888631 84.546066 37.451211 
C 83.983485 38.013792 83.667386 38.776922 83.667386 39.572532 
C 83.667386 40.368141 83.983485 41.131271 84.546066 41.693852 
C 85.108647 42.256433 85.871777 42.572532 86.667386 42.572532 
z
" style="fill:#f26b38;stroke:#ffffff;stroke-width:0.48;"/>
    <path clip-path="url(#p42e3e6e989)" d="M 93.431023 33.11015 
C 94.226632 33.11015 94.989762 32.794051 95.552343 32.231471 
C 96.114924 31.66889 96.431023 30.90576 96.431023 30.11015 
C 96.431023 29.314541 96.114924 28.551411 95.552343 27.98883 
C 94.989762 27.426249 94.226632 27.11015 93.431023 27.11015 
C 92.635413 27.11015 91.872283 27.426249 91.309702 27.98883 
C 90.747122 28.551411 90.431023 29.314541 90.431023 30.11015 
C 90.431023 30.90576 90.747122 31.66889 91.309702 32.231471 
C 91.872283 32.794051 92.635413 33.11015 93.431023 33.11015 
z
" style="fill:#f26b38;stroke:#ffffff;stroke-width:0.48;"/>
    <path clip-path="url(#p42e3e6e989)" d="M 100.194659 42.572532 
C 100.990268 42.572532 101.753399 42.256433 102.315979 41.693852 
C 102.87856 41.131271 103.194659 40.368141 103.194659 39.572532 
C 103.194659 38.776922 102.87856 38.013792 102.315979 37.451211 
C 101.753399 36.888631 100.990268 36.572532 100.194659 36.572532 
C 99.39905 36.572532 98.635919 36.888631 98.073339 37.451211 
C 97.510758 38.013792 97.194659 38.776922 97.194659 39.572532 
C 97.194659 40.368141 97.510758 41.131271 98.073339 41.693852 
C 98.635919 42.256433 99.39905 42.572532 100.194659 42.572532 
z
" style="fill:#f26b38;stroke:#ffffff;stroke-width:0.48;"/>
    <path clip-path="url(#p42e3e6e989)" d="M 106.958295 52.294157 
C 107.753905 52.294157 108.517035 51.978058 109.079616 51.415477 
C 109.642197 50.852896 109.958295 50.089766 109.958295 49.294157 
C 109.958295 48.498547 109.642197 47.735417 109.079616 47.172836 
C 108.517035 46.610256 107.753905 46.294157 106.958295 46.294157 
C 106.162686 46.294157 105.399556 46.610256 104.836975 47.172836 
C 104.274394 47.735417 103.958295 48.498547 103.958295 49.294157 
C 103.958295 50.089766 104.274394 50.852896 104.836975 51.415477 
C 105.399556 51.978058 106.162686 52.294157 106.958295 52.294157 
z
" style="fill:#f26b38;stroke:#ffffff;stroke-width:0.48;"/>
    <path clip-path="url(#p42e3e6e989)" d="M 113.721932 52.294157 
C 114.517541 52.294157 115.280671 51.978058 115.843252 51.415477 
C 116.405833 50.852896 116.721932 50.089766 116.721932 49.294157 
C 116.721932 48.498547 116.405833 47.735417 115.843252 47.172836 
C 115.280671 46.610256 114.517541 46.294157 113.721932 46.294157 
C 112.926323 46.294157 112.163192 46.610256 111.600611 47.172836 
C 111.038031 47.735417 110.721932 48.498547 110.721932 49.294157 
C 110.721932 50.089766 111.038031 50.852896 111.600611 51.415477 
C 112.163192 51.978058 112.926323 52.294157 113.721932 52.294157 
z
" style="fill:#f26b38;stroke:#ffffff;stroke-width:0.48;"/>
    <path clip-path="url(#p42e3e6e989)" d="M 120.485568 52.294157 
C 121.281177 52.294157 122.044308 51.978058 122.606889 51.415477 
C 123.169469 50.852896 123.485568 50.089766 123.485568 49.294157 
C 123.485568 48.498547 123.169469 47.735417 122.606889 47.172836 
C 122.044308 46.610256 121.281177 46.294157 120.485568 46.294157 
C 119.689959 46.294157 118.926829 46.610256 118.364248 47.172836 
C 117.801667 47.735417 117.485568 48.498547 117.485568 49.294157 
C 117.485568 50.089766 117.801667 50.852896 118.364248 51.415477 
C 118.926829 51.978058 119.689959 52.294157 120.485568 52.294157 
z
" style="fill:#f26b38;stroke:#ffffff;stroke-width:0.48;"/>
    <path clip-path="url(#p42e3e6e989)" d="M 127.249205 52.294157 
C 128.044814 52.294157 128.807944 51.978058 129.370525 51.415477 
C 129.933106 50.852896 130.249205 50.089766 130.249205 49.294157 
C 130.249205 48.498547 129.933106 47.735417 129.370525 47.172836 
C 128.807944 46.610256 128.044814 46.294157 127.249205 46.294157 
C 126.453595 46.294157 125.690465 46.610256 125.127884 47.172836 
C 124.565303 47.735417 124.249205 48.498547 124.249205 49.294157 
C 124.249205 50.089766 124.565303 50.852896 125.127884 51.415477 
C 125.690465 51.978058 126.453595 52.294157 127.249205 52.294157 
z
" style="fill:#f26b38;stroke:#ffffff;stroke-width:0.48;"/>
    <path clip-path="url(#p42e3e6e989)" d="M 134.012841 116.718058 
C 134.80845 116.718058 135.571581 116.40196 136.134161 115.839379 
C 136.696742 115.276798 137.012841 114.513668 137.012841 113.718058 
C 137.012841 112.922449 136.696742 112.159319 136.134161 111.596738 
C 135.571581 111.034157 134.80845 110.718058 134.012841 110.718058 
C 133.217232 110.718058 132.454101 111.034157 131.891521 111.596738 
C 131.32894 112.159319 131.012841 112.922449 131.012841 113.718058 
C 131.012841 114.513668 131.32894 115.276798 131.891521 115.839379 
C 132.454101 116.40196 133.217232 116.718058 134.012841 116.718058 
z
" style="fill:#f26b38;stroke:#ffffff;stroke-width:0.48;"/>
    <path clip-path="url(#p42e3e6e989)" d="M 140.776477 128.594182 
C 141.572087 128.594182 142.335217 128.278083 142.897798 127.715502 
C 143.460378 127.152921 143.776477 126.389791 143.776477 125.594182 
C 143.776477 124.798573 143.460378 124.035442 142.897798 123.472861 
C 142.335217 122.910281 141.572087 122.594182 140.776477 122.594182 
C 139.980868 122.594182 139.217738 122.910281 138.655157 123.472861 
C 138.092576 124.035442 137.776477 124.798573 137.776477 125.594182 
C 137.776477 126.389791 138.092576 127.152921 138.655157 127.715502 
C 139.217738 128.278083 139.980868 128.594182 140.776477 128.594182 
z
" style="fill:#f26b38;stroke:#ffffff;stroke-width:0.48;"/>
    <path clip-path="url(#p42e3e6e989)" d="M 147.540114 153.459815 
C 148.335723 153.459815 149.098853 153.143716 149.661434 152.581135 
C 150.224015 152.018555 150.540114 151.255424 150.540114 150.459815 
C 150.540114 149.664206 150.224015 148.901075 149.661434 148.338495 
C 149.098853 147.775914 148.335723 147.459815 147.540114 147.459815 
C 146.744504 147.459815 145.981374 147.775914 145.418793 148.338495 
C 144.856213 148.901075 144.540114 149.664206 144.540114 150.459815 
C 144.540114 151.255424 144.856213 152.018555 145.418793 152.581135 
C 145.981374 153.143716 146.744504 153.459815 147.540114 153.459815 
z
" style="fill:#f26b38;stroke:#ffffff;stroke-width:0.48;"/>
    <path clip-path="url(#p42e3e6e989)" d="M 154.30375 128.594182 
C 155.099359 128.594182 155.86249 128.278083 156.42507 127.715502 
C 156.987651 127.152921 157.30375 126.389791 157.30375 125.594182 
C 157.30375 124.798573 156.987651 124.035442 156.42507 123.472861 
C 155.86249 122.910281 155.099359 122.594182 154.30375 122.594182 
C 153.508141 122.594182 152.74501 122.910281 152.18243 123.472861 
C 151.619849 124.035442 151.30375 124.798573 151.30375 125.594182 
C 151.30375 126.389791 151.619849 127.152921 152.18243 127.715502 
C 152.74501 128.278083 153.508141 128.594182 154.30375 128.594182 
z
" style="fill:#f26b38;stroke:#ffffff;stroke-width:0.48;"/>
    <path clip-path="url(#p42e3e6e989)" d="M 161.067386 166.484671 
C 161.862996 166.484671 162.626126 166.168572 163.188707 165.605991 
C 163.751287 165.04341 164.067386 164.28028 164.067386 163.484671 
C 164.067386 162.689061 163.751287 161.925931 163.188707 161.36335 
C 162.626126 160.800769 161.862996 160.484671 161.067386 160.484671 
C 160.271777 160.484671 159.508647 160.800769 158.946066 161.36335 
C 158.383485 161.925931 158.067386 162.689061 158.067386 163.484671 
C 158.067386 164.28028 158.383485 165.04341 158.946066 165.605991 
C 159.508647 166.168572 160.271777 166.484671 161.067386 166.484671 
z
" style="fill:#f26b38;stroke:#ffffff;stroke-width:0.48;"/>
    <path clip-path="url(#p42e3e6e989)" d="M 167.831023 166.484671 
C 168.626632 166.484671 169.389762 166.168572 169.952343 165.605991 
C 170.514924 165.04341 170.831023 164.28028 170.831023 163.484671 
C 170.831023 162.689061 170.514924 161.925931 169.952343 161.36335 
C 169.389762 160.800769 168.626632 160.484671 167.831023 160.484671 
C 167.035413 160.484671 166.272283 160.800769 165.709702 161.36335 
C 165.147122 161.925931 164.831023 162.689061 164.831023 163.484671 
C 164.831023 164.28028 165.147122 165.04341 165.709702 165.605991 
C 166.272283 166.168572 167.035413 166.484671 167.831023 166.484671 
z
" style="fill:#f26b38;stroke:#ffffff;stroke-width:0.48;"/>
    <path clip-path="url(#p42e3e6e989)" d="M 174.594659 166.484671 
C 175.390268 166.484671 176.153399 166.168572 176.715979 165.605991 
C 177.27856 165.04341 177.594659 164.28028 177.594659 163.484671 
C 177.594659 162.689061 177.27856 161.925931 176.715979 161.36335 
C 176.153399 160.800769 175.390268 160.484671 174.594659 160.484671 
C 173.79905 160.484671 173.035919 160.800769 172.473339 161.36335 
C 171.910758 161.925931 171.594659 162.689061 171.594659 163.484671 
C 171.594659 164.28028 171.910758 165.04341 172.473339 165.605991 
C 173.035919 166.168572 173.79905 166.484671 174.594659 166.484671 
z
" style="fill:#f26b38;stroke:#ffffff;stroke-width:0.48;"/>
    <path clip-path="url(#p42e3e6e989)" d="M 181.358295 166.484671 
C 182.153905 166.484671 182.917035 166.168572 183.479616 165.605991 
C 184.042197 165.04341 184.358295 164.28028 184.358295 163.484671 
C 184.358295 162.689061 184.042197 161.925931 183.479616 161.36335 
C 182.917035 160.800769 182.153905 160.484671 181.358295 160.484671 
C 180.562686 160.484671 179.799556 160.800769 179.236975 161.36335 
C 178.674394 161.925931 178.358295 162.689061 178.358295 163.484671 
C 178.358295 164.28028 178.674394 165.04341 179.236975 165.605991 
C 179.799556 166.168572 180.562686 166.484671 181.358295 166.484671 
z
" style="fill:#f26b38;stroke:#ffffff;stroke-width:0.48;"/>
    <path clip-path="url(#p42e3e6e989)" d="M 188.121932 153.459815 
C 188.917541 153.459815 189.680671 153.143716 190.243252 152.581135 
C 190.805833 152.018555 191.121932 151.255424 191.121932 150.459815 
C 191.121932 149.664206 190.805833 148.901075 190.243252 148.338495 
C 189.680671 147.775914 188.917541 147.459815 188.121932 147.459815 
C 187.326323 147.459815 186.563192 147.775914 186.000611 148.338495 
C 185.438031 148.901075 185.121932 149.664206 185.121932 150.459815 
C 185.121932 151.255424 185.438031 152.018555 186.000611 152.581135 
C 186.563192 153.143716 187.326323 153.459815 188.121932 153.459815 
z
" style="fill:#f26b38;stroke:#ffffff;stroke-width:0.48;"/>
    <path clip-path="url(#p42e3e6e989)" d="M 194.885568 166.484671 
C 195.681177 166.484671 196.444308 166.168572 197.006889 165.605991 
C 197.569469 165.04341 197.885568 164.28028 197.885568 163.484671 
C 197.885568 162.689061 197.569469 161.925931 197.006889 161.36335 
C 196.444308 160.800769 195.681177 160.484671 194.885568 160.484671 
C 194.089959 160.484671 193.326829 160.800769 192.764248 161.36335 
C 192.201667 161.925931 191.885568 162.689061 191.885568 163.484671 
C 191.885568 164.28028 192.201667 165.04341 192.764248 165.605991 
C 193.326829 166.168572 194.089959 166.484671 194.885568 166.484671 
z
" style="fill:#f26b38;stroke:#ffffff;stroke-width:0.48;"/>
    <path clip-path="url(#p42e3e6e989)" d="M 201.649205 208.164208 
C 202.444814 208.164208 203.207944 207.848109 203.770525 207.285528 
C 204.333106 206.722948 204.649205 205.959817 204.649205 205.164208 
C 204.649205 204.368599 204.333106 203.605468 203.770525 203.042888 
C 203.207944 202.480307 202.444814 202.164208 201.649205 202.164208 
C 200.853595 202.164208 200.090465 202.480307 199.527884 203.042888 
C 198.965303 203.605468 198.649205 204.368599 198.649205 205.164208 
C 198.649205 205.959817 198.965303 206.722948 199.527884 207.285528 
C 200.090465 207.848109 200.853595 208.164208 201.649205 208.164208 
z
" style="fill:#f26b38;stroke:#ffffff;stroke-width:0.48;"/>
    <path clip-path="url(#p42e3e6e989)" d="M 208.412841 208.164208 
C 209.20845 208.164208 209.971581 207.848109 210.534161 207.285528 
C 211.096742 206.722948 211.412841 205.959817 211.412841 205.164208 
C 211.412841 204.368599 211.096742 203.605468 210.534161 203.042888 
C 209.971581 202.480307 209.20845 202.164208 208.412841 202.164208 
C 207.617232 202.164208 206.854101 202.480307 206.291521 203.042888 
C 205.72894 203.605468 205.412841 204.368599 205.412841 205.164208 
C 205.412841 205.959817 205.72894 206.722948 206.291521 207.285528 
C 206.854101 207.848109 207.617232 208.164208 208.412841 208.164208 
z
" style="fill:#f26b38;stroke:#ffffff;stroke-width:0.48;"/>
    <path clip-path="url(#p42e3e6e989)" d="M 215.176477 208.164208 
C 215.972087 208.164208 216.735217 207.848109 217.297798 207.285528 
C 217.860378 206.722948 218.176477 205.959817 218.176477 205.164208 
C 218.176477 204.368599 217.860378 203.605468 217.297798 203.042888 
C 216.735217 202.480307 215.972087 202.164208 215.176477 202.164208 
C 214.380868 202.164208 213.617738 202.480307 213.055157 203.042888 
C 212.492576 203.605468 212.176477 204.368599 212.176477 205.164208 
C 212.176477 205.959817 212.492576 206.722948 213.055157 207.285528 
C 213.617738 207.848109 214.380868 208.164208 215.176477 208.164208 
z
" style="fill:#f26b38;stroke:#ffffff;stroke-width:0.48;"/>
    <path clip-path="url(#p42e3e6e989)" d="M 221.940114 208.164208 
C 222.735723 208.164208 223.498853 207.848109 224.061434 207.285528 
C 224.624015 206.722948 224.940114 205.959817 224.940114 205.164208 
C 224.940114 204.368599 224.624015 203.605468 224.061434 203.042888 
C 223.498853 202.480307 222.735723 202.164208 221.940114 202.164208 
C 221.144504 202.164208 220.381374 202.480307 219.818793 203.042888 
C 219.256213 203.605468 218.940114 204.368599 218.940114 205.164208 
C 218.940114 205.959817 219.256213 206.722948 219.818793 207.285528 
C 220.381374 207.848109 221.144504 208.164208 221.940114 208.164208 
z
" style="fill:#f26b38;stroke:#ffffff;stroke-width:0.48;"/>
    <path clip-path="url(#p42e3e6e989)" d="M 228.70375 193.815515 
C 229.499359 193.815515 230.26249 193.499416 230.82507 192.936835 
C 231.387651 192.374254 231.70375 191.611124 231.70375 190.815515 
C 231.70375 190.019906 231.387651 189.256775 230.82507 188.694194 
C 230.26249 188.131614 229.499359 187.815515 228.70375 187.815515 
C 227.908141 187.815515 227.14501 188.131614 226.58243 188.694194 
C 226.019849 189.256775 225.70375 190.019906 225.70375 190.815515 
C 225.70375 191.611124 226.019849 192.374254 226.58243 192.936835 
C 227.14501 193.499416 227.908141 193.815515 228.70375 193.815515 
z
" style="fill:#f26b38;stroke:#ffffff;stroke-width:0.48;"/>
    <path clip-path="url(#p42e3e6e989)" d="M 235.467386 166.484671 
C 236.262996 166.484671 237.026126 166.168572 237.588707 165.605991 
C 238.151287 165.04341 238.467386 164.28028 238.467386 163.484671 
C 238.467386 162.689061 238.151287 161.925931 237.588707 161.36335 
C 237.026126 160.800769 236.262996 160.484671 235.467386 160.484671 
C 234.671777 160.484671 233.908647 160.800769 233.346066 161.36335 
C 232.783485 161.925931 232.467386 162.689061 232.467386 163.484671 
C 232.467386 164.28028 232.783485 165.04341 233.346066 165.605991 
C 233.908647 166.168572 234.671777 166.484671 235.467386 166.484671 
z
" style="fill:#f26b38;stroke:#ffffff;stroke-width:0.48;"/>
    <path clip-path="url(#p42e3e6e989)" d="M 242.231023 166.484671 
C 243.026632 166.484671 243.789762 166.168572 244.352343 165.605991 
C 244.914924 165.04341 245.231023 164.28028 245.231023 163.484671 
C 245.231023 162.689061 244.914924 161.925931 244.352343 161.36335 
C 243.789762 160.800769 243.026632 160.484671 242.231023 160.484671 
C 241.435413 160.484671 240.672283 160.800769 240.109702 161.36335 
C 239.547122 161.925931 239.231023 162.689061 239.231023 163.484671 
C 239.231023 164.28028 239.547122 165.04341 240.109702 165.605991 
C 240.672283 166.168572 241.435413 166.484671 242.231023 166.484671 
z
" style="fill:#f26b38;stroke:#ffffff;stroke-width:0.48;"/>
    <path clip-path="url(#p42e3e6e989)" d="M 248.994659 166.484671 
C 249.790268 166.484671 250.553399 166.168572 251.115979 165.605991 
C 251.67856 165.04341 251.994659 164.28028 251.994659 163.484671 
C 251.994659 162.689061 251.67856 161.925931 251.115979 161.36335 
C 250.553399 160.800769 249.790268 160.484671 248.994659 160.484671 
C 248.19905 160.484671 247.435919 160.800769 246.873339 161.36335 
C 246.310758 161.925931 245.994659 162.689061 245.994659 163.484671 
C 245.994659 164.28028 246.310758 165.04341 246.873339 165.605991 
C 247.435919 166.168572 248.19905 166.484671 248.994659 166.484671 
z
" style="fill:#f26b38;stroke:#ffffff;stroke-width:0.48;"/>
    <path clip-path="url(#p42e3e6e989)" d="M 255.758295 166.484671 
C 256.553905 166.484671 257.317035 166.168572 257.879616 165.605991 
C 258.442197 165.04341 258.758295 164.28028 258.758295 163.484671 
C 258.758295 162.689061 258.442197 161.925931 257.879616 161.36335 
C 257.317035 160.800769 256.553905 160.484671 255.758295 160.484671 
C 254.962686 160.484671 254.199556 160.800769 253.636975 161.36335 
C 253.074394 161.925931 252.758295 162.689061 252.758295 163.484671 
C 252.758295 164.28028 253.074394 165.04341 253.636975 165.605991 
C 254.199556 166.168572 254.962686 166.484671 255.758295 166.484671 
z
" style="fill:#f26b38;stroke:#ffffff;stroke-width:0.48;"/>
    <path clip-path="url(#p42e3e6e989)" d="M 262.521932 166.484671 
C 263.317541 166.484671 264.080671 166.168572 264.643252 165.605991 
C 265.205833 165.04341 265.521932 164.28028 265.521932 163.484671 
C 265.521932 162.689061 265.205833 161.925931 264.643252 161.36335 
C 264.080671 160.800769 263.317541 160.484671 262.521932 160.484671 
C 261.726323 160.484671 260.963192 160.800769 260.400611 161.36335 
C 259.838031 161.925931 259.521932 162.689061 259.521932 163.484671 
C 259.521932 164.28028 259.838031 165.04341 260.400611 165.605991 
C 260.963192 166.168572 261.726323 166.484671 262.521932 166.484671 
z
" style="fill:#f26b38;stroke:#ffffff;stroke-width:0.48;"/>
    <path clip-path="url(#p42e3e6e989)" d="M 269.285568 166.484671 
C 270.081177 166.484671 270.844308 166.168572 271.406889 165.605991 
C 271.969469 165.04341 272.285568 164.28028 272.285568 163.484671 
C 272.285568 162.689061 271.969469 161.925931 271.406889 161.36335 
C 270.844308 160.800769 270.081177 160.484671 269.285568 160.484671 
C 268.489959 160.484671 267.726829 160.800769 267.164248 161.36335 
C 266.601667 161.925931 266.285568 162.689061 266.285568 163.484671 
C 266.285568 164.28028 266.601667 165.04341 267.164248 165.605991 
C 267.726829 166.168572 268.489959 166.484671 269.285568 166.484671 
z
" style="fill:#f26b38;stroke:#ffffff;stroke-width:0.48;"/>
    <path clip-path="url(#p42e3e6e989)" d="M 276.049205 166.484671 
C 276.844814 166.484671 277.607944 166.168572 278.170525 165.605991 
C 278.733106 165.04341 279.049205 164.28028 279.049205 163.484671 
C 279.049205 162.689061 278.733106 161.925931 278.170525 161.36335 
C 277.607944 160.800769 276.844814 160.484671 276.049205 160.484671 
C 275.253595 160.484671 274.490465 160.800769 273.927884 161.36335 
C 273.365303 161.925931 273.049205 162.689061 273.049205 163.484671 
C 273.049205 164.28028 273.365303 165.04341 273.927884 165.605991 
C 274.490465 166.168572 275.253595 166.484671 276.049205 166.484671 
z
" style="fill:#f26b38;stroke:#ffffff;stroke-width:0.48;"/>
    <path clip-path="url(#p42e3e6e989)" d="M 282.812841 166.484671 
C 283.60845 166.484671 284.371581 166.168572 284.934161 165.605991 
C 285.496742 165.04341 285.812841 164.28028 285.812841 163.484671 
C 285.812841 162.689061 285.496742 161.925931 284.934161 161.36335 
C 284.371581 160.800769 283.60845 160.484671 282.812841 160.484671 
C 282.017232 160.484671 281.254101 160.800769 280.691521 161.36335 
C 280.12894 161.925931 279.812841 162.689061 279.812841 163.484671 
C 279.812841 164.28028 280.12894 165.04341 280.691521 165.605991 
C 281.254101 166.168572 282.017232 166.484671 282.812841 166.484671 
z
" style="fill:#f26b38;stroke:#ffffff;stroke-width:0.48;"/>
    <path clip-path="url(#p42e3e6e989)" d="M 289.576477 166.484671 
C 290.372087 166.484671 291.135217 166.168572 291.697798 165.605991 
C 292.260378 165.04341 292.576477 164.28028 292.576477 163.484671 
C 292.576477 162.689061 292.260378 161.925931 291.697798 161.36335 
C 291.135217 160.800769 290.372087 160.484671 289.576477 160.484671 
C 288.780868 160.484671 288.017738 160.800769 287.455157 161.36335 
C 286.892576 161.925931 286.576477 162.689061 286.576477 163.484671 
C 286.576477 164.28028 286.892576 165.04341 287.455157 165.605991 
C 288.017738 166.168572 288.780868 166.484671 289.576477 166.484671 
z
" style="fill:#f26b38;stroke:#ffffff;stroke-width:0.48;"/>
    <path clip-path="url(#p42e3e6e989)" d="M 296.340114 166.484671 
C 297.135723 166.484671 297.898853 166.168572 298.461434 165.605991 
C 299.024015 165.04341 299.340114 164.28028 299.340114 163.484671 
C 299.340114 162.689061 299.024015 161.925931 298.461434 161.36335 
C 297.898853 160.800769 297.135723 160.484671 296.340114 160.484671 
C 295.544504 160.484671 294.781374 160.800769 294.218793 161.36335 
C 293.656213 161.925931 293.340114 162.689061 293.340114 163.484671 
C 293.340114 164.28028 293.656213 165.04341 294.218793 165.605991 
C 294.781374 166.168572 295.544504 166.484671 296.340114 166.484671 
z
" style="fill:#f26b38;stroke:#ffffff;stroke-width:0.48;"/>
    <path clip-path="url(#p42e3e6e989)" d="M 303.10375 166.484671 
C 303.899359 166.484671 304.66249 166.168572 305.22507 165.605991 
C 305.787651 165.04341 306.10375 164.28028 306.10375 163.484671 
C 306.10375 162.689061 305.787651 161.925931 305.22507 161.36335 
C 304.66249 160.800769 303.899359 160.484671 303.10375 160.484671 
C 302.308141 160.484671 301.54501 160.800769 300.98243 161.36335 
C 300.419849 161.925931 300.10375 162.689061 300.10375 163.484671 
C 300.10375 164.28028 300.419849 165.04341 300.98243 165.605991 
C 301.54501 166.168572 302.308141 166.484671 303.10375 166.484671 
z
" style="fill:#f26b38;stroke:#ffffff;stroke-width:0.48;"/>
    <path clip-path="url(#p42e3e6e989)" d="M 309.867386 166.484671 
C 310.662996 166.484671 311.426126 166.168572 311.988707 165.605991 
C 312.551287 165.04341 312.867386 164.28028 312.867386 163.484671 
C 312.867386 162.689061 312.551287 161.925931 311.988707 161.36335 
C 311.426126 160.800769 310.662996 160.484671 309.867386 160.484671 
C 309.071777 160.484671 308.308647 160.800769 307.746066 161.36335 
C 307.183485 161.925931 306.867386 162.689061 306.867386 163.484671 
C 306.867386 164.28028 307.183485 165.04341 307.746066 165.605991 
C 308.308647 166.168572 309.071777 166.484671 309.867386 166.484671 
z
" style="fill:#f26b38;stroke:#ffffff;stroke-width:0.48;"/>
    <path clip-path="url(#p42e3e6e989)" d="M 316.631023 166.484671 
C 317.426632 166.484671 318.189762 166.168572 318.752343 165.605991 
C 319.314924 165.04341 319.631023 164.28028 319.631023 163.484671 
C 319.631023 162.689061 319.314924 161.925931 318.752343 161.36335 
C 318.189762 160.800769 317.426632 160.484671 316.631023 160.484671 
C 315.835413 160.484671 315.072283 160.800769 314.509702 161.36335 
C 313.947122 161.925931 313.631023 162.689061 313.631023 163.484671 
C 313.631023 164.28028 313.947122 165.04341 314.509702 165.605991 
C 315.072283 166.168572 315.835413 166.484671 316.631023 166.484671 
z
" style="fill:#f26b38;stroke:#ffffff;stroke-width:0.48;"/>
    <path clip-path="url(#p42e3e6e989)" d="M 323.394659 166.484671 
C 324.190268 166.484671 324.953399 166.168572 325.515979 165.605991 
C 326.07856 165.04341 326.394659 164.28028 326.394659 163.484671 
C 326.394659 162.689061 326.07856 161.925931 325.515979 161.36335 
C 324.953399 160.800769 324.190268 160.484671 323.394659 160.484671 
C 322.59905 160.484671 321.835919 160.800769 321.273339 161.36335 
C 320.710758 161.925931 320.394659 162.689061 320.394659 163.484671 
C 320.394659 164.28028 320.710758 165.04341 321.273339 165.605991 
C 321.835919 166.168572 322.59905 166.484671 323.394659 166.484671 
z
" style="fill:#f26b38;stroke:#ffffff;stroke-width:0.48;"/>
    <path clip-path="url(#p42e3e6e989)" d="M 330.158295 166.484671 
C 330.953905 166.484671 331.717035 166.168572 332.279616 165.605991 
C 332.842197 165.04341 333.158295 164.28028 333.158295 163.484671 
C 333.158295 162.689061 332.842197 161.925931 332.279616 161.36335 
C 331.717035 160.800769 330.953905 160.484671 330.158295 160.484671 
C 329.362686 160.484671 328.599556 160.800769 328.036975 161.36335 
C 327.474394 161.925931 327.158295 162.689061 327.158295 163.484671 
C 327.158295 164.28028 327.474394 165.04341 328.036975 165.605991 
C 328.599556 166.168572 329.362686 166.484671 330.158295 166.484671 
z
" style="fill:#f26b38;stroke:#ffffff;stroke-width:0.48;"/>
    <path clip-path="url(#p42e3e6e989)" d="M 336.921932 166.484671 
C 337.717541 166.484671 338.480671 166.168572 339.043252 165.605991 
C 339.605833 165.04341 339.921932 164.28028 339.921932 163.484671 
C 339.921932 162.689061 339.605833 161.925931 339.043252 161.36335 
C 338.480671 160.800769 337.717541 160.484671 336.921932 160.484671 
C 336.126323 160.484671 335.363192 160.800769 334.800611 161.36335 
C 334.238031 161.925931 333.921932 162.689061 333.921932 163.484671 
C 333.921932 164.28028 334.238031 165.04341 334.800611 165.605991 
C 335.363192 166.168572 336.126323 166.484671 336.921932 166.484671 
z
" style="fill:#f26b38;stroke:#ffffff;stroke-width:0.48;"/>
    <path clip-path="url(#p42e3e6e989)" d="M 343.685568 166.484671 
C 344.481177 166.484671 345.244308 166.168572 345.806889 165.605991 
C 346.369469 165.04341 346.685568 164.28028 346.685568 163.484671 
C 346.685568 162.689061 346.369469 161.925931 345.806889 161.36335 
C 345.244308 160.800769 344.481177 160.484671 343.685568 160.484671 
C 342.889959 160.484671 342.126829 160.800769 341.564248 161.36335 
C 341.001667 161.925931 340.685568 162.689061 340.685568 163.484671 
C 340.685568 164.28028 341.001667 165.04341 341.564248 165.605991 
C 342.126829 166.168572 342.889959 166.484671 343.685568 166.484671 
z
" style="fill:#f26b38;stroke:#ffffff;stroke-width:0.48;"/>
    <path clip-path="url(#p42e3e6e989)" d="M 350.449205 166.484671 
C 351.244814 166.484671 352.007944 166.168572 352.570525 165.605991 
C 353.133106 165.04341 353.449205 164.28028 353.449205 163.484671 
C 353.449205 162.689061 353.133106 161.925931 352.570525 161.36335 
C 352.007944 160.800769 351.244814 160.484671 350.449205 160.484671 
C 349.653595 160.484671 348.890465 160.800769 348.327884 161.36335 
C 347.765303 161.925931 347.449205 162.689061 347.449205 163.484671 
C 347.449205 164.28028 347.765303 165.04341 348.327884 165.605991 
C 348.890465 166.168572 349.653595 166.484671 350.449205 166.484671 
z
" style="fill:#f26b38;stroke:#ffffff;stroke-width:0.48;"/>
    <path clip-path="url(#p42e3e6e989)" d="M 357.212841 166.484671 
C 358.00845 166.484671 358.771581 166.168572 359.334161 165.605991 
C 359.896742 165.04341 360.212841 164.28028 360.212841 163.484671 
C 360.212841 162.689061 359.896742 161.925931 359.334161 161.36335 
C 358.771581 160.800769 358.00845 160.484671 357.212841 160.484671 
C 356.417232 160.484671 355.654101 160.800769 355.091521 161.36335 
C 354.52894 161.925931 354.212841 162.689061 354.212841 163.484671 
C 354.212841 164.28028 354.52894 165.04341 355.091521 165.605991 
C 355.654101 166.168572 356.417232 166.484671 357.212841 166.484671 
z
" style="fill:#f26b38;stroke:#ffffff;stroke-width:0.48;"/>
    <path clip-path="url(#p42e3e6e989)" d="M 363.976477 166.484671 
C 364.772087 166.484671 365.535217 166.168572 366.097798 165.605991 
C 366.660378 165.04341 366.976477 164.28028 366.976477 163.484671 
C 366.976477 162.689061 366.660378 161.925931 366.097798 161.36335 
C 365.535217 160.800769 364.772087 160.484671 363.976477 160.484671 
C 363.180868 160.484671 362.417738 160.800769 361.855157 161.36335 
C 361.292576 161.925931 360.976477 162.689061 360.976477 163.484671 
C 360.976477 164.28028 361.292576 165.04341 361.855157 165.605991 
C 362.417738 166.168572 363.180868 166.484671 363.976477 166.484671 
z
" style="fill:#f26b38;stroke:#ffffff;stroke-width:0.48;"/>
    <path clip-path="url(#p42e3e6e989)" d="M 370.740114 166.484671 
C 371.535723 166.484671 372.298853 166.168572 372.861434 165.605991 
C 373.424015 165.04341 373.740114 164.28028 373.740114 163.484671 
C 373.740114 162.689061 373.424015 161.925931 372.861434 161.36335 
C 372.298853 160.800769 371.535723 160.484671 370.740114 160.484671 
C 369.944504 160.484671 369.181374 160.800769 368.618793 161.36335 
C 368.056213 161.925931 367.740114 162.689061 367.740114 163.484671 
C 367.740114 164.28028 368.056213 165.04341 368.618793 165.605991 
C 369.181374 166.168572 369.944504 166.484671 370.740114 166.484671 
z
" style="fill:#f26b38;stroke:#ffffff;stroke-width:0.48;"/>
    <path clip-path="url(#p42e3e6e989)" d="M 377.50375 166.484671 
C 378.299359 166.484671 379.06249 166.168572 379.62507 165.605991 
C 380.187651 165.04341 380.50375 164.28028 380.50375 163.484671 
C 380.50375 162.689061 380.187651 161.925931 379.62507 161.36335 
C 379.06249 160.800769 378.299359 160.484671 377.50375 160.484671 
C 376.708141 160.484671 375.94501 160.800769 375.38243 161.36335 
C 374.819849 161.925931 374.50375 162.689061 374.50375 163.484671 
C 374.50375 164.28028 374.819849 165.04341 375.38243 165.605991 
C 375.94501 166.168572 376.708141 166.484671 377.50375 166.484671 
z
" style="fill:#f26b38;stroke:#ffffff;stroke-width:0.48;"/>
    <path clip-path="url(#p42e3e6e989)" d="M 384.267386 166.484671 
C 385.062996 166.484671 385.826126 166.168572 386.388707 165.605991 
C 386.951287 165.04341 387.267386 164.28028 387.267386 163.484671 
C 387.267386 162.689061 386.951287 161.925931 386.388707 161.36335 
C 385.826126 160.800769 385.062996 160.484671 384.267386 160.484671 
C 383.471777 160.484671 382.708647 160.800769 382.146066 161.36335 
C 381.583485 161.925931 381.267386 162.689061 381.267386 163.484671 
C 381.267386 164.28028 381.583485 165.04341 382.146066 165.605991 
C 382.708647 166.168572 383.471777 166.484671 384.267386 166.484671 
z
" style="fill:#f26b38;stroke:#ffffff;stroke-width:0.48;"/>
    <path clip-path="url(#p42e3e6e989)" d="M 391.031023 166.484671 
C 391.826632 166.484671 392.589762 166.168572 393.152343 165.605991 
C 393.714924 165.04341 394.031023 164.28028 394.031023 163.484671 
C 394.031023 162.689061 393.714924 161.925931 393.152343 161.36335 
C 392.589762 160.800769 391.826632 160.484671 391.031023 160.484671 
C 390.235413 160.484671 389.472283 160.800769 388.909702 161.36335 
C 388.347122 161.925931 388.031023 162.689061 388.031023 163.484671 
C 388.031023 164.28028 388.347122 165.04341 388.909702 165.605991 
C 389.472283 166.168572 390.235413 166.484671 391.031023 166.484671 
z
" style="fill:#f26b38;stroke:#ffffff;stroke-width:0.48;"/>
    <path clip-path="url(#p42e3e6e989)" d="M 64.876477 53.116328 
L 66.376477 51.616328 
L 67.876477 53.116328 
L 69.376477 51.616328 
L 67.876477 50.116328 
L 69.376477 48.616328 
L 67.876477 47.116328 
L 66.376477 48.616328 
L 64.876477 47.116328 
L 63.376477 48.616328 
L 64.876477 50.116328 
L 63.376477 51.616328 
z
" style="fill:#2f9599;stroke:#ffffff;stroke-width:0.48;"/>
    <path clip-path="url(#p42e3e6e989)" d="M 71.640114 62.849064 
L 73.140114 61.349064 
L 74.640114 62.849064 
L 76.140114 61.349064 
L 74.640114 59.849064 
L 76.140114 58.349064 
L 74.640114 56.849064 
L 73.140114 58.349064 
L 71.640114 56.849064 
L 70.140114 58.349064 
L 71.640114 59.849064 
L 70.140114 61.349064 
z
" style="fill:#2f9599;stroke:#ffffff;stroke-width:0.48;"/>
    <path clip-path="url(#p42e3e6e989)" d="M 78.40375 127.25687 
L 79.90375 125.75687 
L 81.40375 127.25687 
L 82.90375 125.75687 
L 81.40375 124.25687 
L 82.90375 122.75687 
L 81.40375 121.25687 
L 79.90375 122.75687 
L 78.40375 121.25687 
L 76.90375 122.75687 
L 78.40375 124.25687 
L 76.90375 125.75687 
z
" style="fill:#2f9599;stroke:#ffffff;stroke-width:0.48;"/>
    <path clip-path="url(#p42e3e6e989)" d="M 85.167386 163.919776 
L 86.667386 162.419776 
L 88.167386 163.919776 
L 89.667386 162.419776 
L 88.167386 160.919776 
L 89.667386 159.419776 
L 88.167386 157.919776 
L 86.667386 159.419776 
L 85.167386 157.919776 
L 83.667386 159.419776 
L 85.167386 160.919776 
L 83.667386 162.419776 
z
" style="fill:#2f9599;stroke:#ffffff;stroke-width:0.48;"/>
    <path clip-path="url(#p42e3e6e989)" d="M 91.931023 139.113034 
L 93.431023 137.613034 
L 94.931023 139.113034 
L 96.431023 137.613034 
L 94.931023 136.113034 
L 96.431023 134.613034 
L 94.931023 133.113034 
L 93.431023 134.613034 
L 91.931023 133.113034 
L 90.431023 134.613034 
L 91.931023 136.113034 
L 90.431023 137.613034 
z
" style="fill:#2f9599;stroke:#ffffff;stroke-width:0.48;"/>
    <path clip-path="url(#p42e3e6e989)" d="M 98.694659 176.904555 
L 100.194659 175.404555 
L 101.694659 176.904555 
L 103.194659 175.404555 
L 101.694659 173.904555 
L 103.194659 172.404555 
L 101.694659 170.904555 
L 100.194659 172.404555 
L 98.694659 170.904555 
L 97.194659 172.404555 
L 98.694659 173.904555 
L 97.194659 175.404555 
z
" style="fill:#2f9599;stroke:#ffffff;stroke-width:0.48;"/>
    <path clip-path="url(#p42e3e6e989)" d="M 105.458295 176.904555 
L 106.958295 175.404555 
L 108.458295 176.904555 
L 109.958295 175.404555 
L 108.458295 173.904555 
L 109.958295 172.404555 
L 108.458295 170.904555 
L 106.958295 172.404555 
L 105.458295 170.904555 
L 103.958295 172.404555 
L 105.458295 173.904555 
L 103.958295 175.404555 
z
" style="fill:#2f9599;stroke:#ffffff;stroke-width:0.48;"/>
    <path clip-path="url(#p42e3e6e989)" d="M 112.221932 176.904555 
L 113.721932 175.404555 
L 115.221932 176.904555 
L 116.721932 175.404555 
L 115.221932 173.904555 
L 116.721932 172.404555 
L 115.221932 170.904555 
L 113.721932 172.404555 
L 112.221932 170.904555 
L 110.721932 172.404555 
L 112.221932 173.904555 
L 110.721932 175.404555 
z
" style="fill:#2f9599;stroke:#ffffff;stroke-width:0.48;"/>
    <path clip-path="url(#p42e3e6e989)" d="M 118.985568 176.904555 
L 120.485568 175.404555 
L 121.985568 176.904555 
L 123.485568 175.404555 
L 121.985568 173.904555 
L 123.485568 172.404555 
L 121.985568 170.904555 
L 120.485568 172.404555 
L 118.985568 170.904555 
L 117.485568 172.404555 
L 118.985568 173.904555 
L 117.485568 175.404555 
z
" style="fill:#2f9599;stroke:#ffffff;stroke-width:0.48;"/>
    <path clip-path="url(#p42e3e6e989)" d="M 125.749205 127.25687 
L 127.249205 125.75687 
L 128.749205 127.25687 
L 130.249205 125.75687 
L 128.749205 124.25687 
L 130.249205 122.75687 
L 128.749205 121.25687 
L 127.249205 122.75687 
L 125.749205 121.25687 
L 124.249205 122.75687 
L 125.749205 124.25687 
L 124.249205 125.75687 
z
" style="fill:#2f9599;stroke:#ffffff;stroke-width:0.48;"/>
    <path clip-path="url(#p42e3e6e989)" d="M 132.512841 115.744364 
L 134.012841 114.244364 
L 135.512841 115.744364 
L 137.012841 114.244364 
L 135.512841 112.744364 
L 137.012841 111.244364 
L 135.512841 109.744364 
L 134.012841 111.244364 
L 132.512841 109.744364 
L 131.012841 111.244364 
L 132.512841 112.744364 
L 131.012841 114.244364 
z
" style="fill:#2f9599;stroke:#ffffff;stroke-width:0.48;"/>
    <path clip-path="url(#p42e3e6e989)" d="M 139.276477 233.171931 
L 140.776477 231.671931 
L 142.276477 233.171931 
L 143.776477 231.671931 
L 142.276477 230.171931 
L 143.776477 228.671931 
L 142.276477 227.171931 
L 140.776477 228.671931 
L 139.276477 227.171931 
L 137.776477 228.671931 
L 139.276477 230.171931 
L 137.776477 231.671931 
z
" style="fill:#2f9599;stroke:#ffffff;stroke-width:0.48;"/>
    <path clip-path="url(#p42e3e6e989)" d="M 146.040114 233.171931 
L 147.540114 231.671931 
L 149.040114 233.171931 
L 150.540114 231.671931 
L 149.040114 230.171931 
L 150.540114 228.671931 
L 149.040114 227.171931 
L 147.540114 228.671931 
L 146.040114 227.171931 
L 144.540114 228.671931 
L 146.040114 230.171931 
L 144.540114 231.671931 
z
" style="fill:#2f9599;stroke:#ffffff;stroke-width:0.48;"/>
    <path clip-path="url(#p42e3e6e989)" d="M 152.80375 233.171931 
L 154.30375 231.671931 
L 155.80375 233.171931 
L 157.30375 231.671931 
L 155.80375 230.171931 
L 157.30375 228.671931 
L 155.80375 227.171931 
L 154.30375 228.671931 
L 152.80375 227.171931 
L 151.30375 228.671931 
L 152.80375 230.171931 
L 151.30375 231.671931 
z
" style="fill:#2f9599;stroke:#ffffff;stroke-width:0.48;"/>
    <path clip-path="url(#p42e3e6e989)" d="M 159.567386 233.171931 
L 161.067386 231.671931 
L 162.567386 233.171931 
L 164.067386 231.671931 
L 162.567386 230.171931 
L 164.067386 228.671931 
L 162.567386 227.171931 
L 161.067386 228.671931 
L 159.567386 227.171931 
L 158.067386 228.671931 
L 159.567386 230.171931 
L 158.067386 231.671931 
z
" style="fill:#2f9599;stroke:#ffffff;stroke-width:0.48;"/>
    <path clip-path="url(#p42e3e6e989)" d="M 166.331023 264.216 
L 167.831023 262.716 
L 169.331023 264.216 
L 170.831023 262.716 
L 169.331023 261.216 
L 170.831023 259.716 
L 169.331023 258.216 
L 167.831023 259.716 
L 166.331023 258.216 
L 164.831023 259.716 
L 166.331023 261.216 
L 164.831023 262.716 
z
" style="fill:#2f9599;stroke:#ffffff;stroke-width:0.48;"/>
    <path clip-path="url(#p42e3e6e989)" d="M 173.094659 233.171931 
L 174.594659 231.671931 
L 176.094659 233.171931 
L 177.594659 231.671931 
L 176.094659 230.171931 
L 177.594659 228.671931 
L 176.094659 227.171931 
L 174.594659 228.671931 
L 173.094659 227.171931 
L 171.594659 228.671931 
L 173.094659 230.171931 
L 171.594659 231.671931 
z
" style="fill:#2f9599;stroke:#ffffff;stroke-width:0.48;"/>
    <path clip-path="url(#p42e3e6e989)" d="M 179.858295 233.171931 
L 181.358295 231.671931 
L 182.858295 233.171931 
L 184.358295 231.671931 
L 182.858295 230.171931 
L 184.358295 228.671931 
L 182.858295 227.171931 
L 181.358295 228.671931 
L 179.858295 227.171931 
L 178.358295 228.671931 
L 179.858295 230.171931 
L 178.358295 231.671931 
z
" style="fill:#2f9599;stroke:#ffffff;stroke-width:0.48;"/>
    <path clip-path="url(#p42e3e6e989)" d="M 186.621932 233.171931 
L 188.121932 231.671931 
L 189.621932 233.171931 
L 191.121932 231.671931 
L 189.621932 230.171931 
L 191.121932 228.671931 
L 189.621932 227.171931 
L 188.121932 228.671931 
L 186.621932 227.171931 
L 185.121932 228.671931 
L 186.621932 230.171931 
L 185.121932 231.671931 
z
" style="fill:#2f9599;stroke:#ffffff;stroke-width:0.48;"/>
    <path clip-path="url(#p42e3e6e989)" d="M 193.385568 233.171931 
L 194.885568 231.671931 
L 196.385568 233.171931 
L 197.885568 231.671931 
L 196.385568 230.171931 
L 197.885568 228.671931 
L 196.385568 227.171931 
L 194.885568 228.671931 
L 193.385568 227.171931 
L 191.885568 228.671931 
L 193.385568 230.171931 
L 191.885568 231.671931 
z
" style="fill:#2f9599;stroke:#ffffff;stroke-width:0.48;"/>
    <path clip-path="url(#p42e3e6e989)" d="M 200.149205 233.171931 
L 201.649205 231.671931 
L 203.149205 233.171931 
L 204.649205 231.671931 
L 203.149205 230.171931 
L 204.649205 228.671931 
L 203.149205 227.171931 
L 201.649205 228.671931 
L 200.149205 227.171931 
L 198.649205 228.671931 
L 200.149205 230.171931 
L 198.649205 231.671931 
z
" style="fill:#2f9599;stroke:#ffffff;stroke-width:0.48;"/>
    <path clip-path="url(#p42e3e6e989)" d="M 206.912841 233.171931 
L 208.412841 231.671931 
L 209.912841 233.171931 
L 211.412841 231.671931 
L 209.912841 230.171931 
L 211.412841 228.671931 
L 209.912841 227.171931 
L 208.412841 228.671931 
L 206.912841 227.171931 
L 205.412841 228.671931 
L 206.912841 230.171931 
L 205.412841 231.671931 
z
" style="fill:#2f9599;stroke:#ffffff;stroke-width:0.48;"/>
    <path clip-path="url(#p42e3e6e989)" d="M 213.676477 233.171931 
L 215.176477 231.671931 
L 216.676477 233.171931 
L 218.176477 231.671931 
L 216.676477 230.171931 
L 218.176477 228.671931 
L 216.676477 227.171931 
L 215.176477 228.671931 
L 213.676477 227.171931 
L 212.176477 228.671931 
L 213.676477 230.171931 
L 212.176477 231.671931 
z
" style="fill:#2f9599;stroke:#ffffff;stroke-width:0.48;"/>
    <path clip-path="url(#p42e3e6e989)" d="M 220.440114 233.171931 
L 221.940114 231.671931 
L 223.440114 233.171931 
L 224.940114 231.671931 
L 223.440114 230.171931 
L 224.940114 228.671931 
L 223.440114 227.171931 
L 221.940114 228.671931 
L 220.440114 227.171931 
L 218.940114 228.671931 
L 220.440114 230.171931 
L 218.940114 231.671931 
z
" style="fill:#2f9599;stroke:#ffffff;stroke-width:0.48;"/>
    <path clip-path="url(#p42e3e6e989)" d="M 227.20375 233.171931 
L 228.70375 231.671931 
L 230.20375 233.171931 
L 231.70375 231.671931 
L 230.20375 230.171931 
L 231.70375 228.671931 
L 230.20375 227.171931 
L 228.70375 228.671931 
L 227.20375 227.171931 
L 225.70375 228.671931 
L 227.20375 230.171931 
L 225.70375 231.671931 
z
" style="fill:#2f9599;stroke:#ffffff;stroke-width:0.48;"/>
    <path clip-path="url(#p42e3e6e989)" d="M 233.967386 233.171931 
L 235.467386 231.671931 
L 236.967386 233.171931 
L 238.467386 231.671931 
L 236.967386 230.171931 
L 238.467386 228.671931 
L 236.967386 227.171931 
L 235.467386 228.671931 
L 233.967386 227.171931 
L 232.467386 228.671931 
L 233.967386 230.171931 
L 232.467386 231.671931 
z
" style="fill:#2f9599;stroke:#ffffff;stroke-width:0.48;"/>
    <path clip-path="url(#p42e3e6e989)" d="M 240.731023 233.171931 
L 242.231023 231.671931 
L 243.731023 233.171931 
L 245.231023 231.671931 
L 243.731023 230.171931 
L 245.231023 228.671931 
L 243.731023 227.171931 
L 242.231023 228.671931 
L 240.731023 227.171931 
L 239.231023 228.671931 
L 240.731023 230.171931 
L 239.231023 231.671931 
z
" style="fill:#2f9599;stroke:#ffffff;stroke-width:0.48;"/>
    <path clip-path="url(#p42e3e6e989)" d="M 247.494659 233.171931 
L 248.994659 231.671931 
L 250.494659 233.171931 
L 251.994659 231.671931 
L 250.494659 230.171931 
L 251.994659 228.671931 
L 250.494659 227.171931 
L 248.994659 228.671931 
L 247.494659 227.171931 
L 245.994659 228.671931 
L 247.494659 230.171931 
L 245.994659 231.671931 
z
" style="fill:#2f9599;stroke:#ffffff;stroke-width:0.48;"/>
    <path clip-path="url(#p42e3e6e989)" d="M 254.258295 233.171931 
L 255.758295 231.671931 
L 257.258295 233.171931 
L 258.758295 231.671931 
L 257.258295 230.171931 
L 258.758295 228.671931 
L 257.258295 227.171931 
L 255.758295 228.671931 
L 254.258295 227.171931 
L 252.758295 228.671931 
L 254.258295 230.171931 
L 252.758295 231.671931 
z
" style="fill:#2f9599;stroke:#ffffff;stroke-width:0.48;"/>
    <path clip-path="url(#p42e3e6e989)" d="M 261.021932 233.171931 
L 262.521932 231.671931 
L 264.021932 233.171931 
L 265.521932 231.671931 
L 264.021932 230.171931 
L 265.521932 228.671931 
L 264.021932 227.171931 
L 262.521932 228.671931 
L 261.021932 227.171931 
L 259.521932 228.671931 
L 261.021932 230.171931 
L 259.521932 231.671931 
z
" style="fill:#2f9599;stroke:#ffffff;stroke-width:0.48;"/>
    <path clip-path="url(#p42e3e6e989)" d="M 267.785568 233.171931 
L 269.285568 231.671931 
L 270.785568 233.171931 
L 272.285568 231.671931 
L 270.785568 230.171931 
L 272.285568 228.671931 
L 270.785568 227.171931 
L 269.285568 228.671931 
L 267.785568 227.171931 
L 266.285568 228.671931 
L 267.785568 230.171931 
L 266.285568 231.671931 
z
" style="fill:#2f9599;stroke:#ffffff;stroke-width:0.48;"/>
    <path clip-path="url(#p42e3e6e989)" d="M 274.549205 233.171931 
L 276.049205 231.671931 
L 277.549205 233.171931 
L 279.049205 231.671931 
L 277.549205 230.171931 
L 279.049205 228.671931 
L 277.549205 227.171931 
L 276.049205 228.671931 
L 274.549205 227.171931 
L 273.049205 228.671931 
L 274.549205 230.171931 
L 273.049205 231.671931 
z
" style="fill:#2f9599;stroke:#ffffff;stroke-width:0.48;"/>
    <path clip-path="url(#p42e3e6e989)" d="M 281.312841 233.171931 
L 282.812841 231.671931 
L 284.312841 233.171931 
L 285.812841 231.671931 
L 284.312841 230.171931 
L 285.812841 228.671931 
L 284.312841 227.171931 
L 282.812841 228.671931 
L 281.312841 227.171931 
L 279.812841 228.671931 
L 281.312841 230.171931 
L 279.812841 231.671931 
z
" style="fill:#2f9599;stroke:#ffffff;stroke-width:0.48;"/>
    <path clip-path="url(#p42e3e6e989)" d="M 288.076477 233.171931 
L 289.576477 231.671931 
L 291.076477 233.171931 
L 292.576477 231.671931 
L 291.076477 230.171931 
L 292.576477 228.671931 
L 291.076477 227.171931 
L 289.576477 228.671931 
L 288.076477 227.171931 
L 286.576477 228.671931 
L 288.076477 230.171931 
L 286.576477 231.671931 
z
" style="fill:#2f9599;stroke:#ffffff;stroke-width:0.48;"/>
    <path clip-path="url(#p42e3e6e989)" d="M 294.840114 233.171931 
L 296.340114 231.671931 
L 297.840114 233.171931 
L 299.340114 231.671931 
L 297.840114 230.171931 
L 299.340114 228.671931 
L 297.840114 227.171931 
L 296.340114 228.671931 
L 294.840114 227.171931 
L 293.340114 228.671931 
L 294.840114 230.171931 
L 293.340114 231.671931 
z
" style="fill:#2f9599;stroke:#ffffff;stroke-width:0.48;"/>
    <path clip-path="url(#p42e3e6e989)" d="M 301.60375 233.171931 
L 303.10375 231.671931 
L 304.60375 233.171931 
L 306.10375 231.671931 
L 304.60375 230.171931 
L 306.10375 228.671931 
L 304.60375 227.171931 
L 303.10375 228.671931 
L 301.60375 227.171931 
L 300.10375 228.671931 
L 301.60375 230.171931 
L 300.10375 231.671931 
z
" style="fill:#2f9599;stroke:#ffffff;stroke-width:0.48;"/>
    <path clip-path="url(#p42e3e6e989)" d="M 308.367386 233.171931 
L 309.867386 231.671931 
L 311.367386 233.171931 
L 312.867386 231.671931 
L 311.367386 230.171931 
L 312.867386 228.671931 
L 311.367386 227.171931 
L 309.867386 228.671931 
L 308.367386 227.171931 
L 306.867386 228.671931 
L 308.367386 230.171931 
L 306.867386 231.671931 
z
" style="fill:#2f9599;stroke:#ffffff;stroke-width:0.48;"/>
    <path clip-path="url(#p42e3e6e989)" d="M 315.131023 233.171931 
L 316.631023 231.671931 
L 318.131023 233.171931 
L 319.631023 231.671931 
L 318.131023 230.171931 
L 319.631023 228.671931 
L 318.131023 227.171931 
L 316.631023 228.671931 
L 315.131023 227.171931 
L 313.631023 228.671931 
L 315.131023 230.171931 
L 313.631023 231.671931 
z
" style="fill:#2f9599;stroke:#ffffff;stroke-width:0.48;"/>
    <path clip-path="url(#p42e3e6e989)" d="M 321.894659 233.171931 
L 323.394659 231.671931 
L 324.894659 233.171931 
L 326.394659 231.671931 
L 324.894659 230.171931 
L 326.394659 228.671931 
L 324.894659 227.171931 
L 323.394659 228.671931 
L 321.894659 227.171931 
L 320.394659 228.671931 
L 321.894659 230.171931 
L 320.394659 231.671931 
z
" style="fill:#2f9599;stroke:#ffffff;stroke-width:0.48;"/>
    <path clip-path="url(#p42e3e6e989)" d="M 328.658295 233.171931 
L 330.158295 231.671931 
L 331.658295 233.171931 
L 333.158295 231.671931 
L 331.658295 230.171931 
L 333.158295 228.671931 
L 331.658295 227.171931 
L 330.158295 228.671931 
L 328.658295 227.171931 
L 327.158295 228.671931 
L 328.658295 230.171931 
L 327.158295 231.671931 
z
" style="fill:#2f9599;stroke:#ffffff;stroke-width:0.48;"/>
    <path clip-path="url(#p42e3e6e989)" d="M 335.421932 233.171931 
L 336.921932 231.671931 
L 338.421932 233.171931 
L 339.921932 231.671931 
L 338.421932 230.171931 
L 339.921932 228.671931 
L 338.421932 227.171931 
L 336.921932 228.671931 
L 335.421932 227.171931 
L 333.921932 228.671931 
L 335.421932 230.171931 
L 333.921932 231.671931 
z
" style="fill:#2f9599;stroke:#ffffff;stroke-width:0.48;"/>
    <path clip-path="url(#p42e3e6e989)" d="M 342.185568 233.171931 
L 343.685568 231.671931 
L 345.185568 233.171931 
L 346.685568 231.671931 
L 345.185568 230.171931 
L 346.685568 228.671931 
L 345.185568 227.171931 
L 343.685568 228.671931 
L 342.185568 227.171931 
L 340.685568 228.671931 
L 342.185568 230.171931 
L 340.685568 231.671931 
z
" style="fill:#2f9599;stroke:#ffffff;stroke-width:0.48;"/>
    <path clip-path="url(#p42e3e6e989)" d="M 348.949205 233.171931 
L 350.449205 231.671931 
L 351.949205 233.171931 
L 353.449205 231.671931 
L 351.949205 230.171931 
L 353.449205 228.671931 
L 351.949205 227.171931 
L 350.449205 228.671931 
L 348.949205 227.171931 
L 347.449205 228.671931 
L 348.949205 230.171931 
L 347.449205 231.671931 
z
" style="fill:#2f9599;stroke:#ffffff;stroke-width:0.48;"/>
    <path clip-path="url(#p42e3e6e989)" d="M 355.712841 233.171931 
L 357.212841 231.671931 
L 358.712841 233.171931 
L 360.212841 231.671931 
L 358.712841 230.171931 
L 360.212841 228.671931 
L 358.712841 227.171931 
L 357.212841 228.671931 
L 355.712841 227.171931 
L 354.212841 228.671931 
L 355.712841 230.171931 
L 354.212841 231.671931 
z
" style="fill:#2f9599;stroke:#ffffff;stroke-width:0.48;"/>
    <path clip-path="url(#p42e3e6e989)" d="M 362.476477 233.171931 
L 363.976477 231.671931 
L 365.476477 233.171931 
L 366.976477 231.671931 
L 365.476477 230.171931 
L 366.976477 228.671931 
L 365.476477 227.171931 
L 363.976477 228.671931 
L 362.476477 227.171931 
L 360.976477 228.671931 
L 362.476477 230.171931 
L 360.976477 231.671931 
z
" style="fill:#2f9599;stroke:#ffffff;stroke-width:0.48;"/>
    <path clip-path="url(#p42e3e6e989)" d="M 369.240114 233.171931 
L 370.740114 231.671931 
L 372.240114 233.171931 
L 373.740114 231.671931 
L 372.240114 230.171931 
L 373.740114 228.671931 
L 372.240114 227.171931 
L 370.740114 228.671931 
L 369.240114 227.171931 
L 367.740114 228.671931 
L 369.240114 230.171931 
L 367.740114 231.671931 
z
" style="fill:#2f9599;stroke:#ffffff;stroke-width:0.48;"/>
    <path clip-path="url(#p42e3e6e989)" d="M 376.00375 233.171931 
L 377.50375 231.671931 
L 379.00375 233.171931 
L 380.50375 231.671931 
L 379.00375 230.171931 
L 380.50375 228.671931 
L 379.00375 227.171931 
L 377.50375 228.671931 
L 376.00375 227.171931 
L 374.50375 228.671931 
L 376.00375 230.171931 
L 374.50375 231.671931 
z
" style="fill:#2f9599;stroke:#ffffff;stroke-width:0.48;"/>
    <path clip-path="url(#p42e3e6e989)" d="M 382.767386 233.171931 
L 384.267386 231.671931 
L 385.767386 233.171931 
L 387.267386 231.671931 
L 385.767386 230.171931 
L 387.267386 228.671931 
L 385.767386 227.171931 
L 384.267386 228.671931 
L 382.767386 227.171931 
L 381.267386 228.671931 
L 382.767386 230.171931 
L 381.267386 231.671931 
z
" style="fill:#2f9599;stroke:#ffffff;stroke-width:0.48;"/>
    <path clip-path="url(#p42e3e6e989)" d="M 389.531023 233.171931 
L 391.031023 231.671931 
L 392.531023 233.171931 
L 394.031023 231.671931 
L 392.531023 230.171931 
L 394.031023 228.671931 
L 392.531023 227.171931 
L 391.031023 228.671931 
L 389.531023 227.171931 
L 388.031023 228.671931 
L 389.531023 230.171931 
L 388.031023 231.671931 
z
" style="fill:#2f9599;stroke:#ffffff;stroke-width:0.48;"/>
    <path clip-path="url(#p42e3e6e989)" d="M 64.255157 17.17468 
L 64.255157 21.41732 
L 68.497798 21.41732 
L 68.497798 17.17468 
z
" style="fill:#a7226e;stroke:#ffffff;stroke-width:0.48;"/>
    <path clip-path="url(#p42e3e6e989)" d="M 71.018793 17.17468 
L 71.018793 21.41732 
L 75.261434 21.41732 
L 75.261434 17.17468 
z
" style="fill:#a7226e;stroke:#ffffff;stroke-width:0.48;"/>
    <path clip-path="url(#p42e3e6e989)" d="M 77.78243 17.17468 
L 77.78243 21.41732 
L 82.02507 21.41732 
L 82.02507 17.17468 
z
" style="fill:#a7226e;stroke:#ffffff;stroke-width:0.48;"/>
    <path clip-path="url(#p42e3e6e989)" d="M 84.546066 17.17468 
L 84.546066 21.41732 
L 88.788707 21.41732 
L 88.788707 17.17468 
z
" style="fill:#a7226e;stroke:#ffffff;stroke-width:0.48;"/>
    <path clip-path="url(#p42e3e6e989)" d="M 91.309702 17.17468 
L 91.309702 21.41732 
L 95.552343 21.41732 
L 95.552343 17.17468 
z
" style="fill:#a7226e;stroke:#ffffff;stroke-width:0.48;"/>
    <path clip-path="url(#p42e3e6e989)" d="M 98.073339 17.17468 
L 98.073339 21.41732 
L 102.315979 21.41732 
L 102.315979 17.17468 
z
" style="fill:#a7226e;stroke:#ffffff;stroke-width:0.48;"/>
    <path clip-path="url(#p42e3e6e989)" d="M 104.836975 17.17468 
L 104.836975 21.41732 
L 109.079616 21.41732 
L 109.079616 17.17468 
z
" style="fill:#a7226e;stroke:#ffffff;stroke-width:0.48;"/>
    <path clip-path="url(#p42e3e6e989)" d="M 111.600611 26.618544 
L 111.600611 30.861184 
L 115.843252 30.861184 
L 115.843252 26.618544 
z
" style="fill:#a7226e;stroke:#ffffff;stroke-width:0.48;"/>
    <path clip-path="url(#p42e3e6e989)" d="M 118.364248 26.618544 
L 118.364248 30.861184 
L 122.606889 30.861184 
L 122.606889 26.618544 
z
" style="fill:#a7226e;stroke:#ffffff;stroke-width:0.48;"/>
    <path clip-path="url(#p42e3e6e989)" d="M 125.127884 17.17468 
L 125.127884 21.41732 
L 129.370525 21.41732 
L 129.370525 17.17468 
z
" style="fill:#a7226e;stroke:#ffffff;stroke-width:0.48;"/>
    <path clip-path="url(#p42e3e6e989)" d="M 131.891521 17.17468 
L 131.891521 21.41732 
L 136.134161 21.41732 
L 136.134161 17.17468 
z
" style="fill:#a7226e;stroke:#ffffff;stroke-width:0.48;"/>
    <path clip-path="url(#p42e3e6e989)" d="M 138.655157 26.618544 
L 138.655157 30.861184 
L 142.897798 30.861184 
L 142.897798 26.618544 
z
" style="fill:#a7226e;stroke:#ffffff;stroke-width:0.48;"/>
    <path clip-path="url(#p42e3e6e989)" d="M 145.418793 26.618544 
L 145.418793 30.861184 
L 149.661434 30.861184 
L 149.661434 26.618544 
z
" style="fill:#a7226e;stroke:#ffffff;stroke-width:0.48;"/>
    <path clip-path="url(#p42e3e6e989)" d="M 152.18243 26.618544 
L 152.18243 30.861184 
L 156.42507 30.861184 
L 156.42507 26.618544 
z
" style="fill:#a7226e;stroke:#ffffff;stroke-width:0.48;"/>
    <path clip-path="url(#p42e3e6e989)" d="M 158.946066 17.17468 
L 158.946066 21.41732 
L 163.188707 21.41732 
L 163.188707 17.17468 
z
" style="fill:#a7226e;stroke:#ffffff;stroke-width:0.48;"/>
    <path clip-path="url(#p42e3e6e989)" d="M 165.709702 100.738568 
L 165.709702 104.981209 
L 169.952343 104.981209 
L 169.952343 100.738568 
z
" style="fill:#a7226e;stroke:#ffffff;stroke-width:0.48;"/>
    <path clip-path="url(#p42e3e6e989)" d="M 172.473339 100.738568 
L 172.473339 104.981209 
L 176.715979 104.981209 
L 176.715979 100.738568 
z
" style="fill:#a7226e;stroke:#ffffff;stroke-width:0.48;"/>
    <path clip-path="url(#p42e3e6e989)" d="M 179.236975 150.60734 
L 179.236975 154.849981 
L 183.479616 154.849981 
L 183.479616 150.60734 
z
" style="fill:#a7226e;stroke:#ffffff;stroke-width:0.48;"/>
    <path clip-path="url(#p42e3e6e989)" d="M 186.000611 150.60734 
L 186.000611 154.849981 
L 190.243252 154.849981 
L 190.243252 150.60734 
z
" style="fill:#a7226e;stroke:#ffffff;stroke-width:0.48;"/>
    <path clip-path="url(#p42e3e6e989)" d="M 192.764248 137.546472 
L 192.764248 141.789112 
L 197.006889 141.789112 
L 197.006889 137.546472 
z
" style="fill:#a7226e;stroke:#ffffff;stroke-width:0.48;"/>
    <path clip-path="url(#p42e3e6e989)" d="M 199.527884 137.546472 
L 199.527884 141.789112 
L 203.770525 141.789112 
L 203.770525 137.546472 
z
" style="fill:#a7226e;stroke:#ffffff;stroke-width:0.48;"/>
    <path clip-path="url(#p42e3e6e989)" d="M 206.291521 137.546472 
L 206.291521 141.789112 
L 210.534161 141.789112 
L 210.534161 137.546472 
z
" style="fill:#a7226e;stroke:#ffffff;stroke-width:0.48;"/>
    <path clip-path="url(#p42e3e6e989)" d="M 213.055157 124.893755 
L 213.055157 129.136395 
L 217.297798 129.136395 
L 217.297798 124.893755 
z
" style="fill:#a7226e;stroke:#ffffff;stroke-width:0.48;"/>
    <path clip-path="url(#p42e3e6e989)" d="M 219.818793 124.893755 
L 219.818793 129.136395 
L 224.061434 129.136395 
L 224.061434 124.893755 
z
" style="fill:#a7226e;stroke:#ffffff;stroke-width:0.48;"/>
    <path clip-path="url(#p42e3e6e989)" d="M 226.58243 124.893755 
L 226.58243 129.136395 
L 230.82507 129.136395 
L 230.82507 124.893755 
z
" style="fill:#a7226e;stroke:#ffffff;stroke-width:0.48;"/>
    <path clip-path="url(#p42e3e6e989)" d="M 233.346066 124.893755 
L 233.346066 129.136395 
L 237.588707 129.136395 
L 237.588707 124.893755 
z
" style="fill:#a7226e;stroke:#ffffff;stroke-width:0.48;"/>
    <path clip-path="url(#p42e3e6e989)" d="M 240.109702 124.893755 
L 240.109702 129.136395 
L 244.352343 129.136395 
L 244.352343 124.893755 
z
" style="fill:#a7226e;stroke:#ffffff;stroke-width:0.48;"/>
    <path clip-path="url(#p42e3e6e989)" d="M 246.873339 78.004275 
L 246.873339 82.246916 
L 251.115979 82.246916 
L 251.115979 78.004275 
z
" style="fill:#a7226e;stroke:#ffffff;stroke-width:0.48;"/>
    <path clip-path="url(#p42e3e6e989)" d="M 253.636975 124.893755 
L 253.636975 129.136395 
L 257.879616 129.136395 
L 257.879616 124.893755 
z
" style="fill:#a7226e;stroke:#ffffff;stroke-width:0.48;"/>
    <path clip-path="url(#p42e3e6e989)" d="M 260.400611 178.035165 
L 260.400611 182.277806 
L 264.643252 182.277806 
L 264.643252 178.035165 
z
" style="fill:#a7226e;stroke:#ffffff;stroke-width:0.48;"/>
    <path clip-path="url(#p42e3e6e989)" d="M 267.164248 164.096435 
L 267.164248 168.339075 
L 271.406889 168.339075 
L 271.406889 164.096435 
z
" style="fill:#a7226e;stroke:#ffffff;stroke-width:0.48;"/>
    <path clip-path="url(#p42e3e6e989)" d="M 273.927884 164.096435 
L 273.927884 168.339075 
L 278.170525 168.339075 
L 278.170525 164.096435 
z
" style="fill:#a7226e;stroke:#ffffff;stroke-width:0.48;"/>
    <path clip-path="url(#p42e3e6e989)" d="M 280.691521 164.096435 
L 280.691521 168.339075 
L 284.934161 168.339075 
L 284.934161 164.096435 
z
" style="fill:#a7226e;stroke:#ffffff;stroke-width:0.48;"/>
    <path clip-path="url(#p42e3e6e989)" d="M 287.455157 137.546472 
L 287.455157 141.789112 
L 291.697798 141.789112 
L 291.697798 137.546472 
z
" style="fill:#a7226e;stroke:#ffffff;stroke-width:0.48;"/>
    <path clip-path="url(#p42e3e6e989)" d="M 294.218793 137.546472 
L 294.218793 141.789112 
L 298.461434 141.789112 
L 298.461434 137.546472 
z
" style="fill:#a7226e;stroke:#ffffff;stroke-width:0.48;"/>
    <path clip-path="url(#p42e3e6e989)" d="M 300.98243 137.546472 
L 300.98243 141.789112 
L 305.22507 141.789112 
L 305.22507 137.546472 
z
" style="fill:#a7226e;stroke:#ffffff;stroke-width:0.48;"/>
    <path clip-path="url(#p42e3e6e989)" d="M 307.746066 137.546472 
L 307.746066 141.789112 
L 311.988707 141.789112 
L 311.988707 137.546472 
z
" style="fill:#a7226e;stroke:#ffffff;stroke-width:0.48;"/>
    <path clip-path="url(#p42e3e6e989)" d="M 314.509702 137.546472 
L 314.509702 141.789112 
L 318.752343 141.789112 
L 318.752343 137.546472 
z
" style="fill:#a7226e;stroke:#ffffff;stroke-width:0.48;"/>
    <path clip-path="url(#p42e3e6e989)" d="M 321.273339 137.546472 
L 321.273339 141.789112 
L 325.515979 141.789112 
L 325.515979 137.546472 
z
" style="fill:#a7226e;stroke:#ffffff;stroke-width:0.48;"/>
    <path clip-path="url(#p42e3e6e989)" d="M 328.036975 137.546472 
L 328.036975 141.789112 
L 332.279616 141.789112 
L 332.279616 137.546472 
z
" style="fill:#a7226e;stroke:#ffffff;stroke-width:0.48;"/>
    <path clip-path="url(#p42e3e6e989)" d="M 334.800611 137.546472 
L 334.800611 141.789112 
L 339.043252 141.789112 
L 339.043252 137.546472 
z
" style="fill:#a7226e;stroke:#ffffff;stroke-width:0.48;"/>
    <path clip-path="url(#p42e3e6e989)" d="M 341.564248 137.546472 
L 341.564248 141.789112 
L 345.806889 141.789112 
L 345.806889 137.546472 
z
" style="fill:#a7226e;stroke:#ffffff;stroke-width:0.48;"/>
    <path clip-path="url(#p42e3e6e989)" d="M 348.327884 137.546472 
L 348.327884 141.789112 
L 352.570525 141.789112 
L 352.570525 137.546472 
z
" style="fill:#a7226e;stroke:#ffffff;stroke-width:0.48;"/>
    <path clip-path="url(#p42e3e6e989)" d="M 355.091521 137.546472 
L 355.091521 141.789112 
L 359.334161 141.789112 
L 359.334161 137.546472 
z
" style="fill:#a7226e;stroke:#ffffff;stroke-width:0.48;"/>
    <path clip-path="url(#p42e3e6e989)" d="M 361.855157 137.546472 
L 361.855157 141.789112 
L 366.097798 141.789112 
L 366.097798 137.546472 
z
" style="fill:#a7226e;stroke:#ffffff;stroke-width:0.48;"/>
    <path clip-path="url(#p42e3e6e989)" d="M 368.618793 137.546472 
L 368.618793 141.789112 
L 372.861434 141.789112 
L 372.861434 137.546472 
z
" style="fill:#a7226e;stroke:#ffffff;stroke-width:0.48;"/>
    <path clip-path="url(#p42e3e6e989)" d="M 375.38243 137.546472 
L 375.38243 141.789112 
L 379.62507 141.789112 
L 379.62507 137.546472 
z
" style="fill:#a7226e;stroke:#ffffff;stroke-width:0.48;"/>
    <path clip-path="url(#p42e3e6e989)" d="M 382.146066 137.546472 
L 382.146066 141.789112 
L 386.388707 141.789112 
L 386.388707 137.546472 
z
" style="fill:#a7226e;stroke:#ffffff;stroke-width:0.48;"/>
    <path clip-path="url(#p42e3e6e989)" d="M 388.909702 137.546472 
L 388.909702 141.789112 
L 393.152343 141.789112 
L 393.152343 137.546472 
z
" style="fill:#a7226e;stroke:#ffffff;stroke-width:0.48;"/>
   </g>
   <g id="PathCollection_2"/>
   <g id="PathCollection_3"/>
   <g id="PathCollection_4"/>
   <g id="matplotlib.axis_1">
    <g id="xtick_1">
     <g id="line2d_1">
      <defs>
       <path d="M 0 0 
L 0 3.5 
" id="mc6254ee9e6" style="stroke:#000000;stroke-width:0.8;"/>
      </defs>
      <g>
       <use style="stroke:#000000;stroke-width:0.8;" x="59.612841" xlink:href="#mc6254ee9e6" y="273.312"/>
      </g>
     </g>
     <g id="text_1">
      <!-- 0.0 -->
      <g transform="translate(51.661278 287.910437)scale(0.1 -0.1)">
       <defs>
        <path d="M 31.78125 66.40625 
Q 24.171875 66.40625 20.328125 58.90625 
Q 16.5 51.421875 16.5 36.375 
Q 16.5 21.390625 20.328125 13.890625 
Q 24.171875 6.390625 31.78125 6.390625 
Q 39.453125 6.390625 43.28125 13.890625 
Q 47.125 21.390625 47.125 36.375 
Q 47.125 51.421875 43.28125 58.90625 
Q 39.453125 66.40625 31.78125 66.40625 
z
M 31.78125 74.21875 
Q 44.046875 74.21875 50.515625 64.515625 
Q 56.984375 54.828125 56.984375 36.375 
Q 56.984375 17.96875 50.515625 8.265625 
Q 44.046875 -1.421875 31.78125 -1.421875 
Q 19.53125 -1.421875 13.0625 8.265625 
Q 6.59375 17.96875 6.59375 36.375 
Q 6.59375 54.828125 13.0625 64.515625 
Q 19.53125 74.21875 31.78125 74.21875 
z
" id="DejaVuSans-48"/>
        <path d="M 10.6875 12.40625 
L 21 12.40625 
L 21 0 
L 10.6875 0 
z
" id="DejaVuSans-46"/>
       </defs>
       <use xlink:href="#DejaVuSans-48"/>
       <use x="63.623047" xlink:href="#DejaVuSans-46"/>
       <use x="95.410156" xlink:href="#DejaVuSans-48"/>
      </g>
     </g>
    </g>
    <g id="xtick_2">
     <g id="line2d_2">
      <g>
       <use style="stroke:#000000;stroke-width:0.8;" x="127.249205" xlink:href="#mc6254ee9e6" y="273.312"/>
      </g>
     </g>
     <g id="text_2">
      <!-- 0.2 -->
      <g transform="translate(119.297642 287.910437)scale(0.1 -0.1)">
       <defs>
        <path d="M 19.1875 8.296875 
L 53.609375 8.296875 
L 53.609375 0 
L 7.328125 0 
L 7.328125 8.296875 
Q 12.9375 14.109375 22.625 23.890625 
Q 32.328125 33.6875 34.8125 36.53125 
Q 39.546875 41.84375 41.421875 45.53125 
Q 43.3125 49.21875 43.3125 52.78125 
Q 43.3125 58.59375 39.234375 62.25 
Q 35.15625 65.921875 28.609375 65.921875 
Q 23.96875 65.921875 18.8125 64.3125 
Q 13.671875 62.703125 7.8125 59.421875 
L 7.8125 69.390625 
Q 13.765625 71.78125 18.9375 73 
Q 24.125 74.21875 28.421875 74.21875 
Q 39.75 74.21875 46.484375 68.546875 
Q 53.21875 62.890625 53.21875 53.421875 
Q 53.21875 48.921875 51.53125 44.890625 
Q 49.859375 40.875 45.40625 35.40625 
Q 44.1875 33.984375 37.640625 27.21875 
Q 31.109375 20.453125 19.1875 8.296875 
z
" id="DejaVuSans-50"/>
       </defs>
       <use xlink:href="#DejaVuSans-48"/>
       <use x="63.623047" xlink:href="#DejaVuSans-46"/>
       <use x="95.410156" xlink:href="#DejaVuSans-50"/>
      </g>
     </g>
    </g>
    <g id="xtick_3">
     <g id="line2d_3">
      <g>
       <use style="stroke:#000000;stroke-width:0.8;" x="194.885568" xlink:href="#mc6254ee9e6" y="273.312"/>
      </g>
     </g>
     <g id="text_3">
      <!-- 0.4 -->
      <g transform="translate(186.934006 287.910437)scale(0.1 -0.1)">
       <defs>
        <path d="M 37.796875 64.3125 
L 12.890625 25.390625 
L 37.796875 25.390625 
z
M 35.203125 72.90625 
L 47.609375 72.90625 
L 47.609375 25.390625 
L 58.015625 25.390625 
L 58.015625 17.1875 
L 47.609375 17.1875 
L 47.609375 0 
L 37.796875 0 
L 37.796875 17.1875 
L 4.890625 17.1875 
L 4.890625 26.703125 
z
" id="DejaVuSans-52"/>
       </defs>
       <use xlink:href="#DejaVuSans-48"/>
       <use x="63.623047" xlink:href="#DejaVuSans-46"/>
       <use x="95.410156" xlink:href="#DejaVuSans-52"/>
      </g>
     </g>
    </g>
    <g id="xtick_4">
     <g id="line2d_4">
      <g>
       <use style="stroke:#000000;stroke-width:0.8;" x="262.521932" xlink:href="#mc6254ee9e6" y="273.312"/>
      </g>
     </g>
     <g id="text_4">
      <!-- 0.6 -->
      <g transform="translate(254.570369 287.910437)scale(0.1 -0.1)">
       <defs>
        <path d="M 33.015625 40.375 
Q 26.375 40.375 22.484375 35.828125 
Q 18.609375 31.296875 18.609375 23.390625 
Q 18.609375 15.53125 22.484375 10.953125 
Q 26.375 6.390625 33.015625 6.390625 
Q 39.65625 6.390625 43.53125 10.953125 
Q 47.40625 15.53125 47.40625 23.390625 
Q 47.40625 31.296875 43.53125 35.828125 
Q 39.65625 40.375 33.015625 40.375 
z
M 52.59375 71.296875 
L 52.59375 62.3125 
Q 48.875 64.0625 45.09375 64.984375 
Q 41.3125 65.921875 37.59375 65.921875 
Q 27.828125 65.921875 22.671875 59.328125 
Q 17.53125 52.734375 16.796875 39.40625 
Q 19.671875 43.65625 24.015625 45.921875 
Q 28.375 48.1875 33.59375 48.1875 
Q 44.578125 48.1875 50.953125 41.515625 
Q 57.328125 34.859375 57.328125 23.390625 
Q 57.328125 12.15625 50.6875 5.359375 
Q 44.046875 -1.421875 33.015625 -1.421875 
Q 20.359375 -1.421875 13.671875 8.265625 
Q 6.984375 17.96875 6.984375 36.375 
Q 6.984375 53.65625 15.1875 63.9375 
Q 23.390625 74.21875 37.203125 74.21875 
Q 40.921875 74.21875 44.703125 73.484375 
Q 48.484375 72.75 52.59375 71.296875 
z
" id="DejaVuSans-54"/>
       </defs>
       <use xlink:href="#DejaVuSans-48"/>
       <use x="63.623047" xlink:href="#DejaVuSans-46"/>
       <use x="95.410156" xlink:href="#DejaVuSans-54"/>
      </g>
     </g>
    </g>
    <g id="xtick_5">
     <g id="line2d_5">
      <g>
       <use style="stroke:#000000;stroke-width:0.8;" x="330.158295" xlink:href="#mc6254ee9e6" y="273.312"/>
      </g>
     </g>
     <g id="text_5">
      <!-- 0.8 -->
      <g transform="translate(322.206733 287.910437)scale(0.1 -0.1)">
       <defs>
        <path d="M 31.78125 34.625 
Q 24.75 34.625 20.71875 30.859375 
Q 16.703125 27.09375 16.703125 20.515625 
Q 16.703125 13.921875 20.71875 10.15625 
Q 24.75 6.390625 31.78125 6.390625 
Q 38.8125 6.390625 42.859375 10.171875 
Q 46.921875 13.96875 46.921875 20.515625 
Q 46.921875 27.09375 42.890625 30.859375 
Q 38.875 34.625 31.78125 34.625 
z
M 21.921875 38.8125 
Q 15.578125 40.375 12.03125 44.71875 
Q 8.5 49.078125 8.5 55.328125 
Q 8.5 64.0625 14.71875 69.140625 
Q 20.953125 74.21875 31.78125 74.21875 
Q 42.671875 74.21875 48.875 69.140625 
Q 55.078125 64.0625 55.078125 55.328125 
Q 55.078125 49.078125 51.53125 44.71875 
Q 48 40.375 41.703125 38.8125 
Q 48.828125 37.15625 52.796875 32.3125 
Q 56.78125 27.484375 56.78125 20.515625 
Q 56.78125 9.90625 50.3125 4.234375 
Q 43.84375 -1.421875 31.78125 -1.421875 
Q 19.734375 -1.421875 13.25 4.234375 
Q 6.78125 9.90625 6.78125 20.515625 
Q 6.78125 27.484375 10.78125 32.3125 
Q 14.796875 37.15625 21.921875 38.8125 
z
M 18.3125 54.390625 
Q 18.3125 48.734375 21.84375 45.5625 
Q 25.390625 42.390625 31.78125 42.390625 
Q 38.140625 42.390625 41.71875 45.5625 
Q 45.3125 48.734375 45.3125 54.390625 
Q 45.3125 60.0625 41.71875 63.234375 
Q 38.140625 66.40625 31.78125 66.40625 
Q 25.390625 66.40625 21.84375 63.234375 
Q 18.3125 60.0625 18.3125 54.390625 
z
" id="DejaVuSans-56"/>
       </defs>
       <use xlink:href="#DejaVuSans-48"/>
       <use x="63.623047" xlink:href="#DejaVuSans-46"/>
       <use x="95.410156" xlink:href="#DejaVuSans-56"/>
      </g>
     </g>
    </g>
    <g id="xtick_6">
     <g id="line2d_6">
      <g>
       <use style="stroke:#000000;stroke-width:0.8;" x="397.794659" xlink:href="#mc6254ee9e6" y="273.312"/>
      </g>
     </g>
     <g id="text_6">
      <!-- 1.0 -->
      <g transform="translate(389.843097 287.910437)scale(0.1 -0.1)">
       <defs>
        <path d="M 12.40625 8.296875 
L 28.515625 8.296875 
L 28.515625 63.921875 
L 10.984375 60.40625 
L 10.984375 69.390625 
L 28.421875 72.90625 
L 38.28125 72.90625 
L 38.28125 8.296875 
L 54.390625 8.296875 
L 54.390625 0 
L 12.40625 0 
z
" id="DejaVuSans-49"/>
       </defs>
       <use xlink:href="#DejaVuSans-49"/>
       <use x="63.623047" xlink:href="#DejaVuSans-46"/>
       <use x="95.410156" xlink:href="#DejaVuSans-48"/>
      </g>
     </g>
    </g>
    <g id="text_7">
     <!-- cutoff -->
     <g transform="translate(214.245938 301.588562)scale(0.1 -0.1)">
      <defs>
       <path d="M 48.78125 52.59375 
L 48.78125 44.1875 
Q 44.96875 46.296875 41.140625 47.34375 
Q 37.3125 48.390625 33.40625 48.390625 
Q 24.65625 48.390625 19.8125 42.84375 
Q 14.984375 37.3125 14.984375 27.296875 
Q 14.984375 17.28125 19.8125 11.734375 
Q 24.65625 6.203125 33.40625 6.203125 
Q 37.3125 6.203125 41.140625 7.25 
Q 44.96875 8.296875 48.78125 10.40625 
L 48.78125 2.09375 
Q 45.015625 0.34375 40.984375 -0.53125 
Q 36.96875 -1.421875 32.421875 -1.421875 
Q 20.0625 -1.421875 12.78125 6.34375 
Q 5.515625 14.109375 5.515625 27.296875 
Q 5.515625 40.671875 12.859375 48.328125 
Q 20.21875 56 33.015625 56 
Q 37.15625 56 41.109375 55.140625 
Q 45.0625 54.296875 48.78125 52.59375 
z
" id="DejaVuSans-99"/>
       <path d="M 8.5 21.578125 
L 8.5 54.6875 
L 17.484375 54.6875 
L 17.484375 21.921875 
Q 17.484375 14.15625 20.5 10.265625 
Q 23.53125 6.390625 29.59375 6.390625 
Q 36.859375 6.390625 41.078125 11.03125 
Q 45.3125 15.671875 45.3125 23.6875 
L 45.3125 54.6875 
L 54.296875 54.6875 
L 54.296875 0 
L 45.3125 0 
L 45.3125 8.40625 
Q 42.046875 3.421875 37.71875 1 
Q 33.40625 -1.421875 27.6875 -1.421875 
Q 18.265625 -1.421875 13.375 4.4375 
Q 8.5 10.296875 8.5 21.578125 
z
M 31.109375 56 
z
" id="DejaVuSans-117"/>
       <path d="M 18.3125 70.21875 
L 18.3125 54.6875 
L 36.8125 54.6875 
L 36.8125 47.703125 
L 18.3125 47.703125 
L 18.3125 18.015625 
Q 18.3125 11.328125 20.140625 9.421875 
Q 21.96875 7.515625 27.59375 7.515625 
L 36.8125 7.515625 
L 36.8125 0 
L 27.59375 0 
Q 17.1875 0 13.234375 3.875 
Q 9.28125 7.765625 9.28125 18.015625 
L 9.28125 47.703125 
L 2.6875 47.703125 
L 2.6875 54.6875 
L 9.28125 54.6875 
L 9.28125 70.21875 
z
" id="DejaVuSans-116"/>
       <path d="M 30.609375 48.390625 
Q 23.390625 48.390625 19.1875 42.75 
Q 14.984375 37.109375 14.984375 27.296875 
Q 14.984375 17.484375 19.15625 11.84375 
Q 23.34375 6.203125 30.609375 6.203125 
Q 37.796875 6.203125 41.984375 11.859375 
Q 46.1875 17.53125 46.1875 27.296875 
Q 46.1875 37.015625 41.984375 42.703125 
Q 37.796875 48.390625 30.609375 48.390625 
z
M 30.609375 56 
Q 42.328125 56 49.015625 48.375 
Q 55.71875 40.765625 55.71875 27.296875 
Q 55.71875 13.875 49.015625 6.21875 
Q 42.328125 -1.421875 30.609375 -1.421875 
Q 18.84375 -1.421875 12.171875 6.21875 
Q 5.515625 13.875 5.515625 27.296875 
Q 5.515625 40.765625 12.171875 48.375 
Q 18.84375 56 30.609375 56 
z
" id="DejaVuSans-111"/>
       <path d="M 37.109375 75.984375 
L 37.109375 68.5 
L 28.515625 68.5 
Q 23.6875 68.5 21.796875 66.546875 
Q 19.921875 64.59375 19.921875 59.515625 
L 19.921875 54.6875 
L 34.71875 54.6875 
L 34.71875 47.703125 
L 19.921875 47.703125 
L 19.921875 0 
L 10.890625 0 
L 10.890625 47.703125 
L 2.296875 47.703125 
L 2.296875 54.6875 
L 10.890625 54.6875 
L 10.890625 58.5 
Q 10.890625 67.625 15.140625 71.796875 
Q 19.390625 75.984375 28.609375 75.984375 
z
" id="DejaVuSans-102"/>
      </defs>
      <use xlink:href="#DejaVuSans-99"/>
      <use x="54.980469" xlink:href="#DejaVuSans-117"/>
      <use x="118.359375" xlink:href="#DejaVuSans-116"/>
      <use x="157.568359" xlink:href="#DejaVuSans-111"/>
      <use x="218.75" xlink:href="#DejaVuSans-102"/>
      <use x="253.955078" xlink:href="#DejaVuSans-102"/>
     </g>
    </g>
   </g>
   <g id="matplotlib.axis_2">
    <g id="ytick_1">
     <g id="line2d_7">
      <defs>
       <path d="M 0 0 
L -3.5 0 
" id="mbca8335914" style="stroke:#000000;stroke-width:0.8;"/>
      </defs>
      <g>
       <use style="stroke:#000000;stroke-width:0.8;" x="50.14375" xlink:href="#mbca8335914" y="260.181198"/>
      </g>
     </g>
     <g id="text_8">
      <!-- 0.38 -->
      <g transform="translate(20.878125 263.980416)scale(0.1 -0.1)">
       <defs>
        <path d="M 40.578125 39.3125 
Q 47.65625 37.796875 51.625 33 
Q 55.609375 28.21875 55.609375 21.1875 
Q 55.609375 10.40625 48.1875 4.484375 
Q 40.765625 -1.421875 27.09375 -1.421875 
Q 22.515625 -1.421875 17.65625 -0.515625 
Q 12.796875 0.390625 7.625 2.203125 
L 7.625 11.71875 
Q 11.71875 9.328125 16.59375 8.109375 
Q 21.484375 6.890625 26.8125 6.890625 
Q 36.078125 6.890625 40.9375 10.546875 
Q 45.796875 14.203125 45.796875 21.1875 
Q 45.796875 27.640625 41.28125 31.265625 
Q 36.765625 34.90625 28.71875 34.90625 
L 20.21875 34.90625 
L 20.21875 43.015625 
L 29.109375 43.015625 
Q 36.375 43.015625 40.234375 45.921875 
Q 44.09375 48.828125 44.09375 54.296875 
Q 44.09375 59.90625 40.109375 62.90625 
Q 36.140625 65.921875 28.71875 65.921875 
Q 24.65625 65.921875 20.015625 65.03125 
Q 15.375 64.15625 9.8125 62.3125 
L 9.8125 71.09375 
Q 15.4375 72.65625 20.34375 73.4375 
Q 25.25 74.21875 29.59375 74.21875 
Q 40.828125 74.21875 47.359375 69.109375 
Q 53.90625 64.015625 53.90625 55.328125 
Q 53.90625 49.265625 50.4375 45.09375 
Q 46.96875 40.921875 40.578125 39.3125 
z
" id="DejaVuSans-51"/>
       </defs>
       <use xlink:href="#DejaVuSans-48"/>
       <use x="63.623047" xlink:href="#DejaVuSans-46"/>
       <use x="95.410156" xlink:href="#DejaVuSans-51"/>
       <use x="159.033203" xlink:href="#DejaVuSans-56"/>
      </g>
     </g>
    </g>
    <g id="ytick_2">
     <g id="line2d_8">
      <g>
       <use style="stroke:#000000;stroke-width:0.8;" x="50.14375" xlink:href="#mbca8335914" y="230.171931"/>
      </g>
     </g>
     <g id="text_9">
      <!-- 0.40 -->
      <g transform="translate(20.878125 233.971149)scale(0.1 -0.1)">
       <use xlink:href="#DejaVuSans-48"/>
       <use x="63.623047" xlink:href="#DejaVuSans-46"/>
       <use x="95.410156" xlink:href="#DejaVuSans-52"/>
       <use x="159.033203" xlink:href="#DejaVuSans-48"/>
      </g>
     </g>
    </g>
    <g id="ytick_3">
     <g id="line2d_9">
      <g>
       <use style="stroke:#000000;stroke-width:0.8;" x="50.14375" xlink:href="#mbca8335914" y="200.162664"/>
      </g>
     </g>
     <g id="text_10">
      <!-- 0.42 -->
      <g transform="translate(20.878125 203.961882)scale(0.1 -0.1)">
       <use xlink:href="#DejaVuSans-48"/>
       <use x="63.623047" xlink:href="#DejaVuSans-46"/>
       <use x="95.410156" xlink:href="#DejaVuSans-52"/>
       <use x="159.033203" xlink:href="#DejaVuSans-50"/>
      </g>
     </g>
    </g>
    <g id="ytick_4">
     <g id="line2d_10">
      <g>
       <use style="stroke:#000000;stroke-width:0.8;" x="50.14375" xlink:href="#mbca8335914" y="170.153397"/>
      </g>
     </g>
     <g id="text_11">
      <!-- 0.44 -->
      <g transform="translate(20.878125 173.952615)scale(0.1 -0.1)">
       <use xlink:href="#DejaVuSans-48"/>
       <use x="63.623047" xlink:href="#DejaVuSans-46"/>
       <use x="95.410156" xlink:href="#DejaVuSans-52"/>
       <use x="159.033203" xlink:href="#DejaVuSans-52"/>
      </g>
     </g>
    </g>
    <g id="ytick_5">
     <g id="line2d_11">
      <g>
       <use style="stroke:#000000;stroke-width:0.8;" x="50.14375" xlink:href="#mbca8335914" y="140.144129"/>
      </g>
     </g>
     <g id="text_12">
      <!-- 0.46 -->
      <g transform="translate(20.878125 143.943348)scale(0.1 -0.1)">
       <use xlink:href="#DejaVuSans-48"/>
       <use x="63.623047" xlink:href="#DejaVuSans-46"/>
       <use x="95.410156" xlink:href="#DejaVuSans-52"/>
       <use x="159.033203" xlink:href="#DejaVuSans-54"/>
      </g>
     </g>
    </g>
    <g id="ytick_6">
     <g id="line2d_12">
      <g>
       <use style="stroke:#000000;stroke-width:0.8;" x="50.14375" xlink:href="#mbca8335914" y="110.134862"/>
      </g>
     </g>
     <g id="text_13">
      <!-- 0.48 -->
      <g transform="translate(20.878125 113.934081)scale(0.1 -0.1)">
       <use xlink:href="#DejaVuSans-48"/>
       <use x="63.623047" xlink:href="#DejaVuSans-46"/>
       <use x="95.410156" xlink:href="#DejaVuSans-52"/>
       <use x="159.033203" xlink:href="#DejaVuSans-56"/>
      </g>
     </g>
    </g>
    <g id="ytick_7">
     <g id="line2d_13">
      <g>
       <use style="stroke:#000000;stroke-width:0.8;" x="50.14375" xlink:href="#mbca8335914" y="80.125595"/>
      </g>
     </g>
     <g id="text_14">
      <!-- 0.50 -->
      <g transform="translate(20.878125 83.924814)scale(0.1 -0.1)">
       <defs>
        <path d="M 10.796875 72.90625 
L 49.515625 72.90625 
L 49.515625 64.59375 
L 19.828125 64.59375 
L 19.828125 46.734375 
Q 21.96875 47.46875 24.109375 47.828125 
Q 26.265625 48.1875 28.421875 48.1875 
Q 40.625 48.1875 47.75 41.5 
Q 54.890625 34.8125 54.890625 23.390625 
Q 54.890625 11.625 47.5625 5.09375 
Q 40.234375 -1.421875 26.90625 -1.421875 
Q 22.3125 -1.421875 17.546875 -0.640625 
Q 12.796875 0.140625 7.71875 1.703125 
L 7.71875 11.625 
Q 12.109375 9.234375 16.796875 8.0625 
Q 21.484375 6.890625 26.703125 6.890625 
Q 35.15625 6.890625 40.078125 11.328125 
Q 45.015625 15.765625 45.015625 23.390625 
Q 45.015625 31 40.078125 35.4375 
Q 35.15625 39.890625 26.703125 39.890625 
Q 22.75 39.890625 18.8125 39.015625 
Q 14.890625 38.140625 10.796875 36.28125 
z
" id="DejaVuSans-53"/>
       </defs>
       <use xlink:href="#DejaVuSans-48"/>
       <use x="63.623047" xlink:href="#DejaVuSans-46"/>
       <use x="95.410156" xlink:href="#DejaVuSans-53"/>
       <use x="159.033203" xlink:href="#DejaVuSans-48"/>
      </g>
     </g>
    </g>
    <g id="ytick_8">
     <g id="line2d_14">
      <g>
       <use style="stroke:#000000;stroke-width:0.8;" x="50.14375" xlink:href="#mbca8335914" y="50.116328"/>
      </g>
     </g>
     <g id="text_15">
      <!-- 0.52 -->
      <g transform="translate(20.878125 53.915547)scale(0.1 -0.1)">
       <use xlink:href="#DejaVuSans-48"/>
       <use x="63.623047" xlink:href="#DejaVuSans-46"/>
       <use x="95.410156" xlink:href="#DejaVuSans-53"/>
       <use x="159.033203" xlink:href="#DejaVuSans-50"/>
      </g>
     </g>
    </g>
    <g id="ytick_9">
     <g id="line2d_15">
      <g>
       <use style="stroke:#000000;stroke-width:0.8;" x="50.14375" xlink:href="#mbca8335914" y="20.107061"/>
      </g>
     </g>
     <g id="text_16">
      <!-- 0.54 -->
      <g transform="translate(20.878125 23.90628)scale(0.1 -0.1)">
       <use xlink:href="#DejaVuSans-48"/>
       <use x="63.623047" xlink:href="#DejaVuSans-46"/>
       <use x="95.410156" xlink:href="#DejaVuSans-53"/>
       <use x="159.033203" xlink:href="#DejaVuSans-52"/>
      </g>
     </g>
    </g>
    <g id="text_17">
     <!-- performance -->
     <g transform="translate(14.798438 172.278656)rotate(-90)scale(0.1 -0.1)">
      <defs>
       <path d="M 18.109375 8.203125 
L 18.109375 -20.796875 
L 9.078125 -20.796875 
L 9.078125 54.6875 
L 18.109375 54.6875 
L 18.109375 46.390625 
Q 20.953125 51.265625 25.265625 53.625 
Q 29.59375 56 35.59375 56 
Q 45.5625 56 51.78125 48.09375 
Q 58.015625 40.1875 58.015625 27.296875 
Q 58.015625 14.40625 51.78125 6.484375 
Q 45.5625 -1.421875 35.59375 -1.421875 
Q 29.59375 -1.421875 25.265625 0.953125 
Q 20.953125 3.328125 18.109375 8.203125 
z
M 48.6875 27.296875 
Q 48.6875 37.203125 44.609375 42.84375 
Q 40.53125 48.484375 33.40625 48.484375 
Q 26.265625 48.484375 22.1875 42.84375 
Q 18.109375 37.203125 18.109375 27.296875 
Q 18.109375 17.390625 22.1875 11.75 
Q 26.265625 6.109375 33.40625 6.109375 
Q 40.53125 6.109375 44.609375 11.75 
Q 48.6875 17.390625 48.6875 27.296875 
z
" id="DejaVuSans-112"/>
       <path d="M 56.203125 29.59375 
L 56.203125 25.203125 
L 14.890625 25.203125 
Q 15.484375 15.921875 20.484375 11.0625 
Q 25.484375 6.203125 34.421875 6.203125 
Q 39.59375 6.203125 44.453125 7.46875 
Q 49.3125 8.734375 54.109375 11.28125 
L 54.109375 2.78125 
Q 49.265625 0.734375 44.1875 -0.34375 
Q 39.109375 -1.421875 33.890625 -1.421875 
Q 20.796875 -1.421875 13.15625 6.1875 
Q 5.515625 13.8125 5.515625 26.8125 
Q 5.515625 40.234375 12.765625 48.109375 
Q 20.015625 56 32.328125 56 
Q 43.359375 56 49.78125 48.890625 
Q 56.203125 41.796875 56.203125 29.59375 
z
M 47.21875 32.234375 
Q 47.125 39.59375 43.09375 43.984375 
Q 39.0625 48.390625 32.421875 48.390625 
Q 24.90625 48.390625 20.390625 44.140625 
Q 15.875 39.890625 15.1875 32.171875 
z
" id="DejaVuSans-101"/>
       <path d="M 41.109375 46.296875 
Q 39.59375 47.171875 37.8125 47.578125 
Q 36.03125 48 33.890625 48 
Q 26.265625 48 22.1875 43.046875 
Q 18.109375 38.09375 18.109375 28.8125 
L 18.109375 0 
L 9.078125 0 
L 9.078125 54.6875 
L 18.109375 54.6875 
L 18.109375 46.1875 
Q 20.953125 51.171875 25.484375 53.578125 
Q 30.03125 56 36.53125 56 
Q 37.453125 56 38.578125 55.875 
Q 39.703125 55.765625 41.0625 55.515625 
z
" id="DejaVuSans-114"/>
       <path d="M 52 44.1875 
Q 55.375 50.25 60.0625 53.125 
Q 64.75 56 71.09375 56 
Q 79.640625 56 84.28125 50.015625 
Q 88.921875 44.046875 88.921875 33.015625 
L 88.921875 0 
L 79.890625 0 
L 79.890625 32.71875 
Q 79.890625 40.578125 77.09375 44.375 
Q 74.3125 48.1875 68.609375 48.1875 
Q 61.625 48.1875 57.5625 43.546875 
Q 53.515625 38.921875 53.515625 30.90625 
L 53.515625 0 
L 44.484375 0 
L 44.484375 32.71875 
Q 44.484375 40.625 41.703125 44.40625 
Q 38.921875 48.1875 33.109375 48.1875 
Q 26.21875 48.1875 22.15625 43.53125 
Q 18.109375 38.875 18.109375 30.90625 
L 18.109375 0 
L 9.078125 0 
L 9.078125 54.6875 
L 18.109375 54.6875 
L 18.109375 46.1875 
Q 21.1875 51.21875 25.484375 53.609375 
Q 29.78125 56 35.6875 56 
Q 41.65625 56 45.828125 52.96875 
Q 50 49.953125 52 44.1875 
z
" id="DejaVuSans-109"/>
       <path d="M 34.28125 27.484375 
Q 23.390625 27.484375 19.1875 25 
Q 14.984375 22.515625 14.984375 16.5 
Q 14.984375 11.71875 18.140625 8.90625 
Q 21.296875 6.109375 26.703125 6.109375 
Q 34.1875 6.109375 38.703125 11.40625 
Q 43.21875 16.703125 43.21875 25.484375 
L 43.21875 27.484375 
z
M 52.203125 31.203125 
L 52.203125 0 
L 43.21875 0 
L 43.21875 8.296875 
Q 40.140625 3.328125 35.546875 0.953125 
Q 30.953125 -1.421875 24.3125 -1.421875 
Q 15.921875 -1.421875 10.953125 3.296875 
Q 6 8.015625 6 15.921875 
Q 6 25.140625 12.171875 29.828125 
Q 18.359375 34.515625 30.609375 34.515625 
L 43.21875 34.515625 
L 43.21875 35.40625 
Q 43.21875 41.609375 39.140625 45 
Q 35.0625 48.390625 27.6875 48.390625 
Q 23 48.390625 18.546875 47.265625 
Q 14.109375 46.140625 10.015625 43.890625 
L 10.015625 52.203125 
Q 14.9375 54.109375 19.578125 55.046875 
Q 24.21875 56 28.609375 56 
Q 40.484375 56 46.34375 49.84375 
Q 52.203125 43.703125 52.203125 31.203125 
z
" id="DejaVuSans-97"/>
       <path d="M 54.890625 33.015625 
L 54.890625 0 
L 45.90625 0 
L 45.90625 32.71875 
Q 45.90625 40.484375 42.875 44.328125 
Q 39.84375 48.1875 33.796875 48.1875 
Q 26.515625 48.1875 22.3125 43.546875 
Q 18.109375 38.921875 18.109375 30.90625 
L 18.109375 0 
L 9.078125 0 
L 9.078125 54.6875 
L 18.109375 54.6875 
L 18.109375 46.1875 
Q 21.34375 51.125 25.703125 53.5625 
Q 30.078125 56 35.796875 56 
Q 45.21875 56 50.046875 50.171875 
Q 54.890625 44.34375 54.890625 33.015625 
z
" id="DejaVuSans-110"/>
      </defs>
      <use xlink:href="#DejaVuSans-112"/>
      <use x="63.476562" xlink:href="#DejaVuSans-101"/>
      <use x="125" xlink:href="#DejaVuSans-114"/>
      <use x="166.113281" xlink:href="#DejaVuSans-102"/>
      <use x="201.318359" xlink:href="#DejaVuSans-111"/>
      <use x="262.5" xlink:href="#DejaVuSans-114"/>
      <use x="301.863281" xlink:href="#DejaVuSans-109"/>
      <use x="399.275391" xlink:href="#DejaVuSans-97"/>
      <use x="460.554688" xlink:href="#DejaVuSans-110"/>
      <use x="523.933594" xlink:href="#DejaVuSans-99"/>
      <use x="578.914062" xlink:href="#DejaVuSans-101"/>
     </g>
    </g>
   </g>
   <g id="line2d_16">
    <path clip-path="url(#p42e3e6e989)" d="M 66.376477 30.11015 
L 73.140114 39.572532 
L 79.90375 39.572532 
L 86.667386 39.572532 
L 93.431023 30.11015 
L 100.194659 39.572532 
L 106.958295 49.294157 
L 113.721932 49.294157 
L 120.485568 49.294157 
L 127.249205 49.294157 
L 134.012841 113.718058 
L 140.776477 125.594182 
L 147.540114 150.459815 
L 154.30375 125.594182 
L 161.067386 163.484671 
L 167.831023 163.484671 
L 174.594659 163.484671 
L 181.358295 163.484671 
L 188.121932 150.459815 
L 194.885568 163.484671 
L 201.649205 205.164208 
L 208.412841 205.164208 
L 215.176477 205.164208 
L 221.940114 205.164208 
L 228.70375 190.815515 
L 235.467386 163.484671 
L 242.231023 163.484671 
L 248.994659 163.484671 
L 255.758295 163.484671 
L 262.521932 163.484671 
L 269.285568 163.484671 
L 276.049205 163.484671 
L 282.812841 163.484671 
L 289.576477 163.484671 
L 296.340114 163.484671 
L 303.10375 163.484671 
L 309.867386 163.484671 
L 316.631023 163.484671 
L 323.394659 163.484671 
L 330.158295 163.484671 
L 336.921932 163.484671 
L 343.685568 163.484671 
L 350.449205 163.484671 
L 357.212841 163.484671 
L 363.976477 163.484671 
L 370.740114 163.484671 
L 377.50375 163.484671 
L 384.267386 163.484671 
L 391.031023 163.484671 
" style="fill:none;stroke:#f26b38;stroke-dasharray:7.4,3.2;stroke-dashoffset:0;stroke-width:2;"/>
   </g>
   <g id="line2d_17">
    <path clip-path="url(#p42e3e6e989)" d="M 66.376477 50.116328 
L 73.140114 59.849064 
L 79.90375 124.25687 
L 86.667386 160.919776 
L 93.431023 136.113034 
L 100.194659 173.904555 
L 106.958295 173.904555 
L 113.721932 173.904555 
L 120.485568 173.904555 
L 127.249205 124.25687 
L 134.012841 112.744364 
L 140.776477 230.171931 
L 147.540114 230.171931 
L 154.30375 230.171931 
L 161.067386 230.171931 
L 167.831023 261.216 
L 174.594659 230.171931 
L 181.358295 230.171931 
L 188.121932 230.171931 
L 194.885568 230.171931 
L 201.649205 230.171931 
L 208.412841 230.171931 
L 215.176477 230.171931 
L 221.940114 230.171931 
L 228.70375 230.171931 
L 235.467386 230.171931 
L 242.231023 230.171931 
L 248.994659 230.171931 
L 255.758295 230.171931 
L 262.521932 230.171931 
L 269.285568 230.171931 
L 276.049205 230.171931 
L 282.812841 230.171931 
L 289.576477 230.171931 
L 296.340114 230.171931 
L 303.10375 230.171931 
L 309.867386 230.171931 
L 316.631023 230.171931 
L 323.394659 230.171931 
L 330.158295 230.171931 
L 336.921932 230.171931 
L 343.685568 230.171931 
L 350.449205 230.171931 
L 357.212841 230.171931 
L 363.976477 230.171931 
L 370.740114 230.171931 
L 377.50375 230.171931 
L 384.267386 230.171931 
L 391.031023 230.171931 
" style="fill:none;stroke:#2f9599;stroke-dasharray:2,3.3;stroke-dashoffset:0;stroke-width:2;"/>
   </g>
   <g id="line2d_18">
    <path clip-path="url(#p42e3e6e989)" d="M 66.376477 19.296 
L 73.140114 19.296 
L 79.90375 19.296 
L 86.667386 19.296 
L 93.431023 19.296 
L 100.194659 19.296 
L 106.958295 19.296 
L 113.721932 28.739864 
L 120.485568 28.739864 
L 127.249205 19.296 
L 134.012841 19.296 
L 140.776477 28.739864 
L 147.540114 28.739864 
L 154.30375 28.739864 
L 161.067386 19.296 
L 167.831023 102.859889 
L 174.594659 102.859889 
L 181.358295 152.728661 
L 188.121932 152.728661 
L 194.885568 139.667792 
L 201.649205 139.667792 
L 208.412841 139.667792 
L 215.176477 127.015075 
L 221.940114 127.015075 
L 228.70375 127.015075 
L 235.467386 127.015075 
L 242.231023 127.015075 
L 248.994659 80.125595 
L 255.758295 127.015075 
L 262.521932 180.156486 
L 269.285568 166.217755 
L 276.049205 166.217755 
L 282.812841 166.217755 
L 289.576477 139.667792 
L 296.340114 139.667792 
L 303.10375 139.667792 
L 309.867386 139.667792 
L 316.631023 139.667792 
L 323.394659 139.667792 
L 330.158295 139.667792 
L 336.921932 139.667792 
L 343.685568 139.667792 
L 350.449205 139.667792 
L 357.212841 139.667792 
L 363.976477 139.667792 
L 370.740114 139.667792 
L 377.50375 139.667792 
L 384.267386 139.667792 
L 391.031023 139.667792 
" style="fill:none;stroke:#a7226e;stroke-dasharray:12.8,3.2,2,3.2;stroke-dashoffset:0;stroke-width:2;"/>
   </g>
   <g id="patch_3">
    <path d="M 50.14375 273.312 
L 50.14375 7.2 
" style="fill:none;stroke:#000000;stroke-linecap:square;stroke-linejoin:miter;stroke-width:0.8;"/>
   </g>
   <g id="patch_4">
    <path d="M 407.26375 273.312 
L 407.26375 7.2 
" style="fill:none;stroke:#000000;stroke-linecap:square;stroke-linejoin:miter;stroke-width:0.8;"/>
   </g>
   <g id="patch_5">
    <path d="M 50.14375 273.312 
L 407.26375 273.312 
" style="fill:none;stroke:#000000;stroke-linecap:square;stroke-linejoin:miter;stroke-width:0.8;"/>
   </g>
   <g id="patch_6">
    <path d="M 50.14375 7.2 
L 407.26375 7.2 
" style="fill:none;stroke:#000000;stroke-linecap:square;stroke-linejoin:miter;stroke-width:0.8;"/>
   </g>
   <g id="legend_1">
    <g id="patch_7">
     <path d="M 321.790059 43.890912 
L 402.40575 43.890912 
Q 403.79375 43.890912 403.79375 42.502912 
L 403.79375 12.058 
Q 403.79375 10.67 402.40575 10.67 
L 321.790059 10.67 
Q 320.402059 10.67 320.402059 12.058 
L 320.402059 42.502912 
Q 320.402059 43.890912 321.790059 43.890912 
z
" style="fill:#ffffff;opacity:0.8;stroke:#cccccc;stroke-linejoin:miter;"/>
    </g>
    <g id="PathCollection_5">
     <defs>
      <path d="M 0 3 
C 0.795609 3 1.55874 2.683901 2.12132 2.12132 
C 2.683901 1.55874 3 0.795609 3 0 
C 3 -0.795609 2.683901 -1.55874 2.12132 -2.12132 
C 1.55874 -2.683901 0.795609 -3 0 -3 
C -0.795609 -3 -1.55874 -2.683901 -2.12132 -2.12132 
C -2.683901 -1.55874 -3 -0.795609 -3 0 
C -3 0.795609 -2.683901 1.55874 -2.12132 2.12132 
C -1.55874 2.683901 -0.795609 3 0 3 
z
" id="mf4b59ee419" style="stroke:#f26b38;"/>
     </defs>
     <g>
      <use style="fill:#f26b38;stroke:#f26b38;" x="330.118059" xlink:href="#mf4b59ee419" y="16.897566"/>
     </g>
    </g>
    <g id="text_18">
     <!-- mean_err -->
     <g transform="translate(342.610059 18.719316)scale(0.0694 -0.0694)">
      <defs>
       <path d="M 50.984375 -16.609375 
L 50.984375 -23.578125 
L -0.984375 -23.578125 
L -0.984375 -16.609375 
z
" id="DejaVuSans-95"/>
      </defs>
      <use xlink:href="#DejaVuSans-109"/>
      <use x="97.412109" xlink:href="#DejaVuSans-101"/>
      <use x="158.935547" xlink:href="#DejaVuSans-97"/>
      <use x="220.214844" xlink:href="#DejaVuSans-110"/>
      <use x="283.59375" xlink:href="#DejaVuSans-95"/>
      <use x="333.59375" xlink:href="#DejaVuSans-101"/>
      <use x="395.117188" xlink:href="#DejaVuSans-114"/>
      <use x="434.480469" xlink:href="#DejaVuSans-114"/>
     </g>
    </g>
    <g id="PathCollection_6">
     <defs>
      <path d="M -1.5 3 
L 0 1.5 
L 1.5 3 
L 3 1.5 
L 1.5 0 
L 3 -1.5 
L 1.5 -3 
L 0 -1.5 
L -1.5 -3 
L -3 -1.5 
L -1.5 0 
L -3 1.5 
z
" id="m22599fdb1c" style="stroke:#2f9599;"/>
     </defs>
     <g>
      <use style="fill:#2f9599;stroke:#2f9599;" x="330.118059" xlink:href="#m22599fdb1c" y="27.277203"/>
     </g>
    </g>
    <g id="text_19">
     <!-- mean_sq_err -->
     <g transform="translate(342.610059 29.098953)scale(0.0694 -0.0694)">
      <defs>
       <path d="M 44.28125 53.078125 
L 44.28125 44.578125 
Q 40.484375 46.53125 36.375 47.5 
Q 32.28125 48.484375 27.875 48.484375 
Q 21.1875 48.484375 17.84375 46.4375 
Q 14.5 44.390625 14.5 40.28125 
Q 14.5 37.15625 16.890625 35.375 
Q 19.28125 33.59375 26.515625 31.984375 
L 29.59375 31.296875 
Q 39.15625 29.25 43.1875 25.515625 
Q 47.21875 21.78125 47.21875 15.09375 
Q 47.21875 7.46875 41.1875 3.015625 
Q 35.15625 -1.421875 24.609375 -1.421875 
Q 20.21875 -1.421875 15.453125 -0.5625 
Q 10.6875 0.296875 5.421875 2 
L 5.421875 11.28125 
Q 10.40625 8.6875 15.234375 7.390625 
Q 20.0625 6.109375 24.8125 6.109375 
Q 31.15625 6.109375 34.5625 8.28125 
Q 37.984375 10.453125 37.984375 14.40625 
Q 37.984375 18.0625 35.515625 20.015625 
Q 33.0625 21.96875 24.703125 23.78125 
L 21.578125 24.515625 
Q 13.234375 26.265625 9.515625 29.90625 
Q 5.8125 33.546875 5.8125 39.890625 
Q 5.8125 47.609375 11.28125 51.796875 
Q 16.75 56 26.8125 56 
Q 31.78125 56 36.171875 55.265625 
Q 40.578125 54.546875 44.28125 53.078125 
z
" id="DejaVuSans-115"/>
       <path d="M 14.796875 27.296875 
Q 14.796875 17.390625 18.875 11.75 
Q 22.953125 6.109375 30.078125 6.109375 
Q 37.203125 6.109375 41.296875 11.75 
Q 45.40625 17.390625 45.40625 27.296875 
Q 45.40625 37.203125 41.296875 42.84375 
Q 37.203125 48.484375 30.078125 48.484375 
Q 22.953125 48.484375 18.875 42.84375 
Q 14.796875 37.203125 14.796875 27.296875 
z
M 45.40625 8.203125 
Q 42.578125 3.328125 38.25 0.953125 
Q 33.9375 -1.421875 27.875 -1.421875 
Q 17.96875 -1.421875 11.734375 6.484375 
Q 5.515625 14.40625 5.515625 27.296875 
Q 5.515625 40.1875 11.734375 48.09375 
Q 17.96875 56 27.875 56 
Q 33.9375 56 38.25 53.625 
Q 42.578125 51.265625 45.40625 46.390625 
L 45.40625 54.6875 
L 54.390625 54.6875 
L 54.390625 -20.796875 
L 45.40625 -20.796875 
z
" id="DejaVuSans-113"/>
      </defs>
      <use xlink:href="#DejaVuSans-109"/>
      <use x="97.412109" xlink:href="#DejaVuSans-101"/>
      <use x="158.935547" xlink:href="#DejaVuSans-97"/>
      <use x="220.214844" xlink:href="#DejaVuSans-110"/>
      <use x="283.59375" xlink:href="#DejaVuSans-95"/>
      <use x="333.59375" xlink:href="#DejaVuSans-115"/>
      <use x="385.693359" xlink:href="#DejaVuSans-113"/>
      <use x="449.169922" xlink:href="#DejaVuSans-95"/>
      <use x="499.169922" xlink:href="#DejaVuSans-101"/>
      <use x="560.693359" xlink:href="#DejaVuSans-114"/>
      <use x="600.056641" xlink:href="#DejaVuSans-114"/>
     </g>
    </g>
    <g id="PathCollection_7">
     <defs>
      <path d="M -2.12132 -2.12132 
L -2.12132 2.12132 
L 2.12132 2.12132 
L 2.12132 -2.12132 
z
" id="ma39073fb4f" style="stroke:#a7226e;"/>
     </defs>
     <g>
      <use style="fill:#a7226e;stroke:#a7226e;" x="330.118059" xlink:href="#ma39073fb4f" y="37.656841"/>
     </g>
    </g>
    <g id="text_20">
     <!-- mean_sqroot_err -->
     <g transform="translate(342.610059 39.478591)scale(0.0694 -0.0694)">
      <use xlink:href="#DejaVuSans-109"/>
      <use x="97.412109" xlink:href="#DejaVuSans-101"/>
      <use x="158.935547" xlink:href="#DejaVuSans-97"/>
      <use x="220.214844" xlink:href="#DejaVuSans-110"/>
      <use x="283.59375" xlink:href="#DejaVuSans-95"/>
      <use x="333.59375" xlink:href="#DejaVuSans-115"/>
      <use x="385.693359" xlink:href="#DejaVuSans-113"/>
      <use x="449.169922" xlink:href="#DejaVuSans-114"/>
      <use x="488.033203" xlink:href="#DejaVuSans-111"/>
      <use x="549.214844" xlink:href="#DejaVuSans-111"/>
      <use x="610.396484" xlink:href="#DejaVuSans-116"/>
      <use x="649.605469" xlink:href="#DejaVuSans-95"/>
      <use x="699.605469" xlink:href="#DejaVuSans-101"/>
      <use x="761.128906" xlink:href="#DejaVuSans-114"/>
      <use x="800.492188" xlink:href="#DejaVuSans-114"/>
     </g>
    </g>
   </g>
  </g>
 </g>
 <defs>
  <clipPath id="p42e3e6e989">
   <rect height="266.112" width="357.12" x="50.14375" y="7.2"/>
  </clipPath>
 </defs>
</svg>
