<?xml version="1.0" encoding="utf-8" standalone="no"?>
<!DOCTYPE svg PUBLIC "-//W3C//DTD SVG 1.1//EN"
  "http://www.w3.org/Graphics/SVG/1.1/DTD/svg11.dtd">
<!-- Created with matplotlib (https://matplotlib.org/) -->
<svg height="310.86825pt" version="1.1" viewBox="0 0 414.46375 310.86825" width="414.46375pt" xmlns="http://www.w3.org/2000/svg" xmlns:xlink="http://www.w3.org/1999/xlink">
 <metadata>
  <rdf:RDF xmlns:cc="http://creativecommons.org/ns#" xmlns:dc="http://purl.org/dc/elements/1.1/" xmlns:rdf="http://www.w3.org/1999/02/22-rdf-syntax-ns#">
   <cc:Work>
    <dc:type rdf:resource="http://purl.org/dc/dcmitype/StillImage"/>
    <dc:date>2022-05-27T21:58:05.158363</dc:date>
    <dc:format>image/svg+xml</dc:format>
    <dc:creator>
     <cc:Agent>
      <dc:title>Matplotlib v3.3.4, https://matplotlib.org/</dc:title>
     </cc:Agent>
    </dc:creator>
   </cc:Work>
  </rdf:RDF>
 </metadata>
 <defs>
  <style type="text/css">*{stroke-linecap:butt;stroke-linejoin:round;}</style>
 </defs>
 <g id="figure_1">
  <g id="patch_1">
   <path d="M 0 310.86825 
L 414.46375 310.86825 
L 414.46375 0 
L 0 0 
z
" style="fill:#ffffff;"/>
  </g>
  <g id="axes_1">
   <g id="patch_2">
    <path d="M 50.14375 273.312 
L 407.26375 273.312 
L 407.26375 7.2 
L 50.14375 7.2 
z
" style="fill:#ffffff;"/>
   </g>
   <g id="PathCollection_1">
    <path clip-path="url(#p498fdc1810)" d="M 66.376477 22.296 
C 67.172087 22.296 67.935217 21.979901 68.497798 21.41732 
C 69.060378 20.85474 69.376477 20.091609 69.376477 19.296 
C 69.376477 18.500391 69.060378 17.73726 68.497798 17.17468 
C 67.935217 16.612099 67.172087 16.296 66.376477 16.296 
C 65.580868 16.296 64.817738 16.612099 64.255157 17.17468 
C 63.692576 17.73726 63.376477 18.500391 63.376477 19.296 
C 63.376477 20.091609 63.692576 20.85474 64.255157 21.41732 
C 64.817738 21.979901 65.580868 22.296 66.376477 22.296 
z
" style="fill:#f26b38;stroke:#ffffff;stroke-width:0.48;"/>
    <path clip-path="url(#p498fdc1810)" d="M 73.140114 33.150047 
C 73.935723 33.150047 74.698853 32.833948 75.261434 32.271367 
C 75.824015 31.708786 76.140114 30.945656 76.140114 30.150047 
C 76.140114 29.354437 75.824015 28.591307 75.261434 28.028726 
C 74.698853 27.466146 73.935723 27.150047 73.140114 27.150047 
C 72.344504 27.150047 71.581374 27.466146 71.018793 28.028726 
C 70.456213 28.591307 70.140114 29.354437 70.140114 30.150047 
C 70.140114 30.945656 70.456213 31.708786 71.018793 32.271367 
C 71.581374 32.833948 72.344504 33.150047 73.140114 33.150047 
z
" style="fill:#f26b38;stroke:#ffffff;stroke-width:0.48;"/>
    <path clip-path="url(#p498fdc1810)" d="M 79.90375 33.150047 
C 80.699359 33.150047 81.46249 32.833948 82.02507 32.271367 
C 82.587651 31.708786 82.90375 30.945656 82.90375 30.150047 
C 82.90375 29.354437 82.587651 28.591307 82.02507 28.028726 
C 81.46249 27.466146 80.699359 27.150047 79.90375 27.150047 
C 79.108141 27.150047 78.34501 27.466146 77.78243 28.028726 
C 77.219849 28.591307 76.90375 29.354437 76.90375 30.150047 
C 76.90375 30.945656 77.219849 31.708786 77.78243 32.271367 
C 78.34501 32.833948 79.108141 33.150047 79.90375 33.150047 
z
" style="fill:#f26b38;stroke:#ffffff;stroke-width:0.48;"/>
    <path clip-path="url(#p498fdc1810)" d="M 86.667386 33.150047 
C 87.462996 33.150047 88.226126 32.833948 88.788707 32.271367 
C 89.351287 31.708786 89.667386 30.945656 89.667386 30.150047 
C 89.667386 29.354437 89.351287 28.591307 88.788707 28.028726 
C 88.226126 27.466146 87.462996 27.150047 86.667386 27.150047 
C 85.871777 27.150047 85.108647 27.466146 84.546066 28.028726 
C 83.983485 28.591307 83.667386 29.354437 83.667386 30.150047 
C 83.667386 30.945656 83.983485 31.708786 84.546066 32.271367 
C 85.108647 32.833948 85.871777 33.150047 86.667386 33.150047 
z
" style="fill:#f26b38;stroke:#ffffff;stroke-width:0.48;"/>
    <path clip-path="url(#p498fdc1810)" d="M 93.431023 22.296 
C 94.226632 22.296 94.989762 21.979901 95.552343 21.41732 
C 96.114924 20.85474 96.431023 20.091609 96.431023 19.296 
C 96.431023 18.500391 96.114924 17.73726 95.552343 17.17468 
C 94.989762 16.612099 94.226632 16.296 93.431023 16.296 
C 92.635413 16.296 91.872283 16.612099 91.309702 17.17468 
C 90.747122 17.73726 90.431023 18.500391 90.431023 19.296 
C 90.431023 20.091609 90.747122 20.85474 91.309702 21.41732 
C 91.872283 21.979901 92.635413 22.296 93.431023 22.296 
z
" style="fill:#f26b38;stroke:#ffffff;stroke-width:0.48;"/>
    <path clip-path="url(#p498fdc1810)" d="M 100.194659 33.150047 
C 100.990268 33.150047 101.753399 32.833948 102.315979 32.271367 
C 102.87856 31.708786 103.194659 30.945656 103.194659 30.150047 
C 103.194659 29.354437 102.87856 28.591307 102.315979 28.028726 
C 101.753399 27.466146 100.990268 27.150047 100.194659 27.150047 
C 99.39905 27.150047 98.635919 27.466146 98.073339 28.028726 
C 97.510758 28.591307 97.194659 29.354437 97.194659 30.150047 
C 97.194659 30.945656 97.510758 31.708786 98.073339 32.271367 
C 98.635919 32.833948 99.39905 33.150047 100.194659 33.150047 
z
" style="fill:#f26b38;stroke:#ffffff;stroke-width:0.48;"/>
    <path clip-path="url(#p498fdc1810)" d="M 106.958295 44.183499 
C 107.753905 44.183499 108.517035 43.8674 109.079616 43.304819 
C 109.642197 42.742239 109.958295 41.979108 109.958295 41.183499 
C 109.958295 40.38789 109.642197 39.624759 109.079616 39.062179 
C 108.517035 38.499598 107.753905 38.183499 106.958295 38.183499 
C 106.162686 38.183499 105.399556 38.499598 104.836975 39.062179 
C 104.274394 39.624759 103.958295 40.38789 103.958295 41.183499 
C 103.958295 41.979108 104.274394 42.742239 104.836975 43.304819 
C 105.399556 43.8674 106.162686 44.183499 106.958295 44.183499 
z
" style="fill:#f26b38;stroke:#ffffff;stroke-width:0.48;"/>
    <path clip-path="url(#p498fdc1810)" d="M 113.721932 44.183499 
C 114.517541 44.183499 115.280671 43.8674 115.843252 43.304819 
C 116.405833 42.742239 116.721932 41.979108 116.721932 41.183499 
C 116.721932 40.38789 116.405833 39.624759 115.843252 39.062179 
C 115.280671 38.499598 114.517541 38.183499 113.721932 38.183499 
C 112.926323 38.183499 112.163192 38.499598 111.600611 39.062179 
C 111.038031 39.624759 110.721932 40.38789 110.721932 41.183499 
C 110.721932 41.979108 111.038031 42.742239 111.600611 43.304819 
C 112.163192 43.8674 112.926323 44.183499 113.721932 44.183499 
z
" style="fill:#f26b38;stroke:#ffffff;stroke-width:0.48;"/>
    <path clip-path="url(#p498fdc1810)" d="M 120.485568 44.183499 
C 121.281177 44.183499 122.044308 43.8674 122.606889 43.304819 
C 123.169469 42.742239 123.485568 41.979108 123.485568 41.183499 
C 123.485568 40.38789 123.169469 39.624759 122.606889 39.062179 
C 122.044308 38.499598 121.281177 38.183499 120.485568 38.183499 
C 119.689959 38.183499 118.926829 38.499598 118.364248 39.062179 
C 117.801667 39.624759 117.485568 40.38789 117.485568 41.183499 
C 117.485568 41.979108 117.801667 42.742239 118.364248 43.304819 
C 118.926829 43.8674 119.689959 44.183499 120.485568 44.183499 
z
" style="fill:#f26b38;stroke:#ffffff;stroke-width:0.48;"/>
    <path clip-path="url(#p498fdc1810)" d="M 127.249205 44.183499 
C 128.044814 44.183499 128.807944 43.8674 129.370525 43.304819 
C 129.933106 42.742239 130.249205 41.979108 130.249205 41.183499 
C 130.249205 40.38789 129.933106 39.624759 129.370525 39.062179 
C 128.807944 38.499598 128.044814 38.183499 127.249205 38.183499 
C 126.453595 38.183499 125.690465 38.499598 125.127884 39.062179 
C 124.565303 39.624759 124.249205 40.38789 124.249205 41.183499 
C 124.249205 41.979108 124.565303 42.742239 125.127884 43.304819 
C 125.690465 43.8674 126.453595 44.183499 127.249205 44.183499 
z
" style="fill:#f26b38;stroke:#ffffff;stroke-width:0.48;"/>
    <path clip-path="url(#p498fdc1810)" d="M 134.012841 114.413822 
C 134.80845 114.413822 135.571581 114.097723 136.134161 113.535142 
C 136.696742 112.972561 137.012841 112.209431 137.012841 111.413822 
C 137.012841 110.618212 136.696742 109.855082 136.134161 109.292501 
C 135.571581 108.72992 134.80845 108.413822 134.012841 108.413822 
C 133.217232 108.413822 132.454101 108.72992 131.891521 109.292501 
C 131.32894 109.855082 131.012841 110.618212 131.012841 111.413822 
C 131.012841 112.209431 131.32894 112.972561 131.891521 113.535142 
C 132.454101 114.097723 133.217232 114.413822 134.012841 114.413822 
z
" style="fill:#f26b38;stroke:#ffffff;stroke-width:0.48;"/>
    <path clip-path="url(#p498fdc1810)" d="M 140.776477 126.837607 
C 141.572087 126.837607 142.335217 126.521508 142.897798 125.958927 
C 143.460378 125.396346 143.776477 124.633216 143.776477 123.837607 
C 143.776477 123.041997 143.460378 122.278867 142.897798 121.716286 
C 142.335217 121.153706 141.572087 120.837607 140.776477 120.837607 
C 139.980868 120.837607 139.217738 121.153706 138.655157 121.716286 
C 138.092576 122.278867 137.776477 123.041997 137.776477 123.837607 
C 137.776477 124.633216 138.092576 125.396346 138.655157 125.958927 
C 139.217738 126.521508 139.980868 126.837607 140.776477 126.837607 
z
" style="fill:#f26b38;stroke:#ffffff;stroke-width:0.48;"/>
    <path clip-path="url(#p498fdc1810)" d="M 147.540114 152.350737 
C 148.335723 152.350737 149.098853 152.034638 149.661434 151.472057 
C 150.224015 150.909476 150.540114 150.146346 150.540114 149.350737 
C 150.540114 148.555128 150.224015 147.791997 149.661434 147.229416 
C 149.098853 146.666836 148.335723 146.350737 147.540114 146.350737 
C 146.744504 146.350737 145.981374 146.666836 145.418793 147.229416 
C 144.856213 147.791997 144.540114 148.555128 144.540114 149.350737 
C 144.540114 150.146346 144.856213 150.909476 145.418793 151.472057 
C 145.981374 152.034638 146.744504 152.350737 147.540114 152.350737 
z
" style="fill:#f26b38;stroke:#ffffff;stroke-width:0.48;"/>
    <path clip-path="url(#p498fdc1810)" d="M 154.30375 126.837607 
C 155.099359 126.837607 155.86249 126.521508 156.42507 125.958927 
C 156.987651 125.396346 157.30375 124.633216 157.30375 123.837607 
C 157.30375 123.041997 156.987651 122.278867 156.42507 121.716286 
C 155.86249 121.153706 155.099359 120.837607 154.30375 120.837607 
C 153.508141 120.837607 152.74501 121.153706 152.18243 121.716286 
C 151.619849 122.278867 151.30375 123.041997 151.30375 123.837607 
C 151.30375 124.633216 151.619849 125.396346 152.18243 125.958927 
C 152.74501 126.521508 153.508141 126.837607 154.30375 126.837607 
z
" style="fill:#f26b38;stroke:#ffffff;stroke-width:0.48;"/>
    <path clip-path="url(#p498fdc1810)" d="M 161.067386 165.452074 
C 161.862996 165.452074 162.626126 165.135975 163.188707 164.573394 
C 163.751287 164.010814 164.067386 163.247683 164.067386 162.452074 
C 164.067386 161.656465 163.751287 160.893334 163.188707 160.330754 
C 162.626126 159.768173 161.862996 159.452074 161.067386 159.452074 
C 160.271777 159.452074 159.508647 159.768173 158.946066 160.330754 
C 158.383485 160.893334 158.067386 161.656465 158.067386 162.452074 
C 158.067386 163.247683 158.383485 164.010814 158.946066 164.573394 
C 159.508647 165.135975 160.271777 165.452074 161.067386 165.452074 
z
" style="fill:#f26b38;stroke:#ffffff;stroke-width:0.48;"/>
    <path clip-path="url(#p498fdc1810)" d="M 167.831023 165.452074 
C 168.626632 165.452074 169.389762 165.135975 169.952343 164.573394 
C 170.514924 164.010814 170.831023 163.247683 170.831023 162.452074 
C 170.831023 161.656465 170.514924 160.893334 169.952343 160.330754 
C 169.389762 159.768173 168.626632 159.452074 167.831023 159.452074 
C 167.035413 159.452074 166.272283 159.768173 165.709702 160.330754 
C 165.147122 160.893334 164.831023 161.656465 164.831023 162.452074 
C 164.831023 163.247683 165.147122 164.010814 165.709702 164.573394 
C 166.272283 165.135975 167.035413 165.452074 167.831023 165.452074 
z
" style="fill:#f26b38;stroke:#ffffff;stroke-width:0.48;"/>
    <path clip-path="url(#p498fdc1810)" d="M 174.594659 165.452074 
C 175.390268 165.452074 176.153399 165.135975 176.715979 164.573394 
C 177.27856 164.010814 177.594659 163.247683 177.594659 162.452074 
C 177.594659 161.656465 177.27856 160.893334 176.715979 160.330754 
C 176.153399 159.768173 175.390268 159.452074 174.594659 159.452074 
C 173.79905 159.452074 173.035919 159.768173 172.473339 160.330754 
C 171.910758 160.893334 171.594659 161.656465 171.594659 162.452074 
C 171.594659 163.247683 171.910758 164.010814 172.473339 164.573394 
C 173.035919 165.135975 173.79905 165.452074 174.594659 165.452074 
z
" style="fill:#f26b38;stroke:#ffffff;stroke-width:0.48;"/>
    <path clip-path="url(#p498fdc1810)" d="M 181.358295 165.452074 
C 182.153905 165.452074 182.917035 165.135975 183.479616 164.573394 
C 184.042197 164.010814 184.358295 163.247683 184.358295 162.452074 
C 184.358295 161.656465 184.042197 160.893334 183.479616 160.330754 
C 182.917035 159.768173 182.153905 159.452074 181.358295 159.452074 
C 180.562686 159.452074 179.799556 159.768173 179.236975 160.330754 
C 178.674394 160.893334 178.358295 161.656465 178.358295 162.452074 
C 178.358295 163.247683 178.674394 164.010814 179.236975 164.573394 
C 179.799556 165.135975 180.562686 165.452074 181.358295 165.452074 
z
" style="fill:#f26b38;stroke:#ffffff;stroke-width:0.48;"/>
    <path clip-path="url(#p498fdc1810)" d="M 188.121932 152.350737 
C 188.917541 152.350737 189.680671 152.034638 190.243252 151.472057 
C 190.805833 150.909476 191.121932 150.146346 191.121932 149.350737 
C 191.121932 148.555128 190.805833 147.791997 190.243252 147.229416 
C 189.680671 146.666836 188.917541 146.350737 188.121932 146.350737 
C 187.326323 146.350737 186.563192 146.666836 186.000611 147.229416 
C 185.438031 147.791997 185.121932 148.555128 185.121932 149.350737 
C 185.121932 150.146346 185.438031 150.909476 186.000611 151.472057 
C 186.563192 152.034638 187.326323 152.350737 188.121932 152.350737 
z
" style="fill:#f26b38;stroke:#ffffff;stroke-width:0.48;"/>
    <path clip-path="url(#p498fdc1810)" d="M 194.885568 165.452074 
C 195.681177 165.452074 196.444308 165.135975 197.006889 164.573394 
C 197.569469 164.010814 197.885568 163.247683 197.885568 162.452074 
C 197.885568 161.656465 197.569469 160.893334 197.006889 160.330754 
C 196.444308 159.768173 195.681177 159.452074 194.885568 159.452074 
C 194.089959 159.452074 193.326829 159.768173 192.764248 160.330754 
C 192.201667 160.893334 191.885568 161.656465 191.885568 162.452074 
C 191.885568 163.247683 192.201667 164.010814 192.764248 164.573394 
C 193.326829 165.135975 194.089959 165.452074 194.885568 165.452074 
z
" style="fill:#f26b38;stroke:#ffffff;stroke-width:0.48;"/>
    <path clip-path="url(#p498fdc1810)" d="M 201.649205 206.211789 
C 202.444814 206.211789 203.207944 205.895691 203.770525 205.33311 
C 204.333106 204.770529 204.649205 204.007399 204.649205 203.211789 
C 204.649205 202.41618 204.333106 201.65305 203.770525 201.090469 
C 203.207944 200.527888 202.444814 200.211789 201.649205 200.211789 
C 200.853595 200.211789 200.090465 200.527888 199.527884 201.090469 
C 198.965303 201.65305 198.649205 202.41618 198.649205 203.211789 
C 198.649205 204.007399 198.965303 204.770529 199.527884 205.33311 
C 200.090465 205.895691 200.853595 206.211789 201.649205 206.211789 
z
" style="fill:#f26b38;stroke:#ffffff;stroke-width:0.48;"/>
    <path clip-path="url(#p498fdc1810)" d="M 208.412841 206.211789 
C 209.20845 206.211789 209.971581 205.895691 210.534161 205.33311 
C 211.096742 204.770529 211.412841 204.007399 211.412841 203.211789 
C 211.412841 202.41618 211.096742 201.65305 210.534161 201.090469 
C 209.971581 200.527888 209.20845 200.211789 208.412841 200.211789 
C 207.617232 200.211789 206.854101 200.527888 206.291521 201.090469 
C 205.72894 201.65305 205.412841 202.41618 205.412841 203.211789 
C 205.412841 204.007399 205.72894 204.770529 206.291521 205.33311 
C 206.854101 205.895691 207.617232 206.211789 208.412841 206.211789 
z
" style="fill:#f26b38;stroke:#ffffff;stroke-width:0.48;"/>
    <path clip-path="url(#p498fdc1810)" d="M 215.176477 206.211789 
C 215.972087 206.211789 216.735217 205.895691 217.297798 205.33311 
C 217.860378 204.770529 218.176477 204.007399 218.176477 203.211789 
C 218.176477 202.41618 217.860378 201.65305 217.297798 201.090469 
C 216.735217 200.527888 215.972087 200.211789 215.176477 200.211789 
C 214.380868 200.211789 213.617738 200.527888 213.055157 201.090469 
C 212.492576 201.65305 212.176477 202.41618 212.176477 203.211789 
C 212.176477 204.007399 212.492576 204.770529 213.055157 205.33311 
C 213.617738 205.895691 214.380868 206.211789 215.176477 206.211789 
z
" style="fill:#f26b38;stroke:#ffffff;stroke-width:0.48;"/>
    <path clip-path="url(#p498fdc1810)" d="M 221.940114 206.211789 
C 222.735723 206.211789 223.498853 205.895691 224.061434 205.33311 
C 224.624015 204.770529 224.940114 204.007399 224.940114 203.211789 
C 224.940114 202.41618 224.624015 201.65305 224.061434 201.090469 
C 223.498853 200.527888 222.735723 200.211789 221.940114 200.211789 
C 221.144504 200.211789 220.381374 200.527888 219.818793 201.090469 
C 219.256213 201.65305 218.940114 202.41618 218.940114 203.211789 
C 218.940114 204.007399 219.256213 204.770529 219.818793 205.33311 
C 220.381374 205.895691 221.144504 206.211789 221.940114 206.211789 
z
" style="fill:#f26b38;stroke:#ffffff;stroke-width:0.48;"/>
    <path clip-path="url(#p498fdc1810)" d="M 228.70375 192.375923 
C 229.499359 192.375923 230.26249 192.059824 230.82507 191.497243 
C 231.387651 190.934662 231.70375 190.171532 231.70375 189.375923 
C 231.70375 188.580313 231.387651 187.817183 230.82507 187.254602 
C 230.26249 186.692022 229.499359 186.375923 228.70375 186.375923 
C 227.908141 186.375923 227.14501 186.692022 226.58243 187.254602 
C 226.019849 187.817183 225.70375 188.580313 225.70375 189.375923 
C 225.70375 190.171532 226.019849 190.934662 226.58243 191.497243 
C 227.14501 192.059824 227.908141 192.375923 228.70375 192.375923 
z
" style="fill:#f26b38;stroke:#ffffff;stroke-width:0.48;"/>
    <path clip-path="url(#p498fdc1810)" d="M 235.467386 165.452074 
C 236.262996 165.452074 237.026126 165.135975 237.588707 164.573394 
C 238.151287 164.010814 238.467386 163.247683 238.467386 162.452074 
C 238.467386 161.656465 238.151287 160.893334 237.588707 160.330754 
C 237.026126 159.768173 236.262996 159.452074 235.467386 159.452074 
C 234.671777 159.452074 233.908647 159.768173 233.346066 160.330754 
C 232.783485 160.893334 232.467386 161.656465 232.467386 162.452074 
C 232.467386 163.247683 232.783485 164.010814 233.346066 164.573394 
C 233.908647 165.135975 234.671777 165.452074 235.467386 165.452074 
z
" style="fill:#f26b38;stroke:#ffffff;stroke-width:0.48;"/>
    <path clip-path="url(#p498fdc1810)" d="M 242.231023 165.452074 
C 243.026632 165.452074 243.789762 165.135975 244.352343 164.573394 
C 244.914924 164.010814 245.231023 163.247683 245.231023 162.452074 
C 245.231023 161.656465 244.914924 160.893334 244.352343 160.330754 
C 243.789762 159.768173 243.026632 159.452074 242.231023 159.452074 
C 241.435413 159.452074 240.672283 159.768173 240.109702 160.330754 
C 239.547122 160.893334 239.231023 161.656465 239.231023 162.452074 
C 239.231023 163.247683 239.547122 164.010814 240.109702 164.573394 
C 240.672283 165.135975 241.435413 165.452074 242.231023 165.452074 
z
" style="fill:#f26b38;stroke:#ffffff;stroke-width:0.48;"/>
    <path clip-path="url(#p498fdc1810)" d="M 248.994659 165.452074 
C 249.790268 165.452074 250.553399 165.135975 251.115979 164.573394 
C 251.67856 164.010814 251.994659 163.247683 251.994659 162.452074 
C 251.994659 161.656465 251.67856 160.893334 251.115979 160.330754 
C 250.553399 159.768173 249.790268 159.452074 248.994659 159.452074 
C 248.19905 159.452074 247.435919 159.768173 246.873339 160.330754 
C 246.310758 160.893334 245.994659 161.656465 245.994659 162.452074 
C 245.994659 163.247683 246.310758 164.010814 246.873339 164.573394 
C 247.435919 165.135975 248.19905 165.452074 248.994659 165.452074 
z
" style="fill:#f26b38;stroke:#ffffff;stroke-width:0.48;"/>
    <path clip-path="url(#p498fdc1810)" d="M 255.758295 165.452074 
C 256.553905 165.452074 257.317035 165.135975 257.879616 164.573394 
C 258.442197 164.010814 258.758295 163.247683 258.758295 162.452074 
C 258.758295 161.656465 258.442197 160.893334 257.879616 160.330754 
C 257.317035 159.768173 256.553905 159.452074 255.758295 159.452074 
C 254.962686 159.452074 254.199556 159.768173 253.636975 160.330754 
C 253.074394 160.893334 252.758295 161.656465 252.758295 162.452074 
C 252.758295 163.247683 253.074394 164.010814 253.636975 164.573394 
C 254.199556 165.135975 254.962686 165.452074 255.758295 165.452074 
z
" style="fill:#f26b38;stroke:#ffffff;stroke-width:0.48;"/>
    <path clip-path="url(#p498fdc1810)" d="M 262.521932 165.452074 
C 263.317541 165.452074 264.080671 165.135975 264.643252 164.573394 
C 265.205833 164.010814 265.521932 163.247683 265.521932 162.452074 
C 265.521932 161.656465 265.205833 160.893334 264.643252 160.330754 
C 264.080671 159.768173 263.317541 159.452074 262.521932 159.452074 
C 261.726323 159.452074 260.963192 159.768173 260.400611 160.330754 
C 259.838031 160.893334 259.521932 161.656465 259.521932 162.452074 
C 259.521932 163.247683 259.838031 164.010814 260.400611 164.573394 
C 260.963192 165.135975 261.726323 165.452074 262.521932 165.452074 
z
" style="fill:#f26b38;stroke:#ffffff;stroke-width:0.48;"/>
    <path clip-path="url(#p498fdc1810)" d="M 269.285568 165.452074 
C 270.081177 165.452074 270.844308 165.135975 271.406889 164.573394 
C 271.969469 164.010814 272.285568 163.247683 272.285568 162.452074 
C 272.285568 161.656465 271.969469 160.893334 271.406889 160.330754 
C 270.844308 159.768173 270.081177 159.452074 269.285568 159.452074 
C 268.489959 159.452074 267.726829 159.768173 267.164248 160.330754 
C 266.601667 160.893334 266.285568 161.656465 266.285568 162.452074 
C 266.285568 163.247683 266.601667 164.010814 267.164248 164.573394 
C 267.726829 165.135975 268.489959 165.452074 269.285568 165.452074 
z
" style="fill:#f26b38;stroke:#ffffff;stroke-width:0.48;"/>
    <path clip-path="url(#p498fdc1810)" d="M 276.049205 165.452074 
C 276.844814 165.452074 277.607944 165.135975 278.170525 164.573394 
C 278.733106 164.010814 279.049205 163.247683 279.049205 162.452074 
C 279.049205 161.656465 278.733106 160.893334 278.170525 160.330754 
C 277.607944 159.768173 276.844814 159.452074 276.049205 159.452074 
C 275.253595 159.452074 274.490465 159.768173 273.927884 160.330754 
C 273.365303 160.893334 273.049205 161.656465 273.049205 162.452074 
C 273.049205 163.247683 273.365303 164.010814 273.927884 164.573394 
C 274.490465 165.135975 275.253595 165.452074 276.049205 165.452074 
z
" style="fill:#f26b38;stroke:#ffffff;stroke-width:0.48;"/>
    <path clip-path="url(#p498fdc1810)" d="M 282.812841 165.452074 
C 283.60845 165.452074 284.371581 165.135975 284.934161 164.573394 
C 285.496742 164.010814 285.812841 163.247683 285.812841 162.452074 
C 285.812841 161.656465 285.496742 160.893334 284.934161 160.330754 
C 284.371581 159.768173 283.60845 159.452074 282.812841 159.452074 
C 282.017232 159.452074 281.254101 159.768173 280.691521 160.330754 
C 280.12894 160.893334 279.812841 161.656465 279.812841 162.452074 
C 279.812841 163.247683 280.12894 164.010814 280.691521 164.573394 
C 281.254101 165.135975 282.017232 165.452074 282.812841 165.452074 
z
" style="fill:#f26b38;stroke:#ffffff;stroke-width:0.48;"/>
    <path clip-path="url(#p498fdc1810)" d="M 289.576477 165.452074 
C 290.372087 165.452074 291.135217 165.135975 291.697798 164.573394 
C 292.260378 164.010814 292.576477 163.247683 292.576477 162.452074 
C 292.576477 161.656465 292.260378 160.893334 291.697798 160.330754 
C 291.135217 159.768173 290.372087 159.452074 289.576477 159.452074 
C 288.780868 159.452074 288.017738 159.768173 287.455157 160.330754 
C 286.892576 160.893334 286.576477 161.656465 286.576477 162.452074 
C 286.576477 163.247683 286.892576 164.010814 287.455157 164.573394 
C 288.017738 165.135975 288.780868 165.452074 289.576477 165.452074 
z
" style="fill:#f26b38;stroke:#ffffff;stroke-width:0.48;"/>
    <path clip-path="url(#p498fdc1810)" d="M 296.340114 165.452074 
C 297.135723 165.452074 297.898853 165.135975 298.461434 164.573394 
C 299.024015 164.010814 299.340114 163.247683 299.340114 162.452074 
C 299.340114 161.656465 299.024015 160.893334 298.461434 160.330754 
C 297.898853 159.768173 297.135723 159.452074 296.340114 159.452074 
C 295.544504 159.452074 294.781374 159.768173 294.218793 160.330754 
C 293.656213 160.893334 293.340114 161.656465 293.340114 162.452074 
C 293.340114 163.247683 293.656213 164.010814 294.218793 164.573394 
C 294.781374 165.135975 295.544504 165.452074 296.340114 165.452074 
z
" style="fill:#f26b38;stroke:#ffffff;stroke-width:0.48;"/>
    <path clip-path="url(#p498fdc1810)" d="M 303.10375 165.452074 
C 303.899359 165.452074 304.66249 165.135975 305.22507 164.573394 
C 305.787651 164.010814 306.10375 163.247683 306.10375 162.452074 
C 306.10375 161.656465 305.787651 160.893334 305.22507 160.330754 
C 304.66249 159.768173 303.899359 159.452074 303.10375 159.452074 
C 302.308141 159.452074 301.54501 159.768173 300.98243 160.330754 
C 300.419849 160.893334 300.10375 161.656465 300.10375 162.452074 
C 300.10375 163.247683 300.419849 164.010814 300.98243 164.573394 
C 301.54501 165.135975 302.308141 165.452074 303.10375 165.452074 
z
" style="fill:#f26b38;stroke:#ffffff;stroke-width:0.48;"/>
    <path clip-path="url(#p498fdc1810)" d="M 309.867386 165.452074 
C 310.662996 165.452074 311.426126 165.135975 311.988707 164.573394 
C 312.551287 164.010814 312.867386 163.247683 312.867386 162.452074 
C 312.867386 161.656465 312.551287 160.893334 311.988707 160.330754 
C 311.426126 159.768173 310.662996 159.452074 309.867386 159.452074 
C 309.071777 159.452074 308.308647 159.768173 307.746066 160.330754 
C 307.183485 160.893334 306.867386 161.656465 306.867386 162.452074 
C 306.867386 163.247683 307.183485 164.010814 307.746066 164.573394 
C 308.308647 165.135975 309.071777 165.452074 309.867386 165.452074 
z
" style="fill:#f26b38;stroke:#ffffff;stroke-width:0.48;"/>
    <path clip-path="url(#p498fdc1810)" d="M 316.631023 165.452074 
C 317.426632 165.452074 318.189762 165.135975 318.752343 164.573394 
C 319.314924 164.010814 319.631023 163.247683 319.631023 162.452074 
C 319.631023 161.656465 319.314924 160.893334 318.752343 160.330754 
C 318.189762 159.768173 317.426632 159.452074 316.631023 159.452074 
C 315.835413 159.452074 315.072283 159.768173 314.509702 160.330754 
C 313.947122 160.893334 313.631023 161.656465 313.631023 162.452074 
C 313.631023 163.247683 313.947122 164.010814 314.509702 164.573394 
C 315.072283 165.135975 315.835413 165.452074 316.631023 165.452074 
z
" style="fill:#f26b38;stroke:#ffffff;stroke-width:0.48;"/>
    <path clip-path="url(#p498fdc1810)" d="M 323.394659 165.452074 
C 324.190268 165.452074 324.953399 165.135975 325.515979 164.573394 
C 326.07856 164.010814 326.394659 163.247683 326.394659 162.452074 
C 326.394659 161.656465 326.07856 160.893334 325.515979 160.330754 
C 324.953399 159.768173 324.190268 159.452074 323.394659 159.452074 
C 322.59905 159.452074 321.835919 159.768173 321.273339 160.330754 
C 320.710758 160.893334 320.394659 161.656465 320.394659 162.452074 
C 320.394659 163.247683 320.710758 164.010814 321.273339 164.573394 
C 321.835919 165.135975 322.59905 165.452074 323.394659 165.452074 
z
" style="fill:#f26b38;stroke:#ffffff;stroke-width:0.48;"/>
    <path clip-path="url(#p498fdc1810)" d="M 330.158295 165.452074 
C 330.953905 165.452074 331.717035 165.135975 332.279616 164.573394 
C 332.842197 164.010814 333.158295 163.247683 333.158295 162.452074 
C 333.158295 161.656465 332.842197 160.893334 332.279616 160.330754 
C 331.717035 159.768173 330.953905 159.452074 330.158295 159.452074 
C 329.362686 159.452074 328.599556 159.768173 328.036975 160.330754 
C 327.474394 160.893334 327.158295 161.656465 327.158295 162.452074 
C 327.158295 163.247683 327.474394 164.010814 328.036975 164.573394 
C 328.599556 165.135975 329.362686 165.452074 330.158295 165.452074 
z
" style="fill:#f26b38;stroke:#ffffff;stroke-width:0.48;"/>
    <path clip-path="url(#p498fdc1810)" d="M 336.921932 165.452074 
C 337.717541 165.452074 338.480671 165.135975 339.043252 164.573394 
C 339.605833 164.010814 339.921932 163.247683 339.921932 162.452074 
C 339.921932 161.656465 339.605833 160.893334 339.043252 160.330754 
C 338.480671 159.768173 337.717541 159.452074 336.921932 159.452074 
C 336.126323 159.452074 335.363192 159.768173 334.800611 160.330754 
C 334.238031 160.893334 333.921932 161.656465 333.921932 162.452074 
C 333.921932 163.247683 334.238031 164.010814 334.800611 164.573394 
C 335.363192 165.135975 336.126323 165.452074 336.921932 165.452074 
z
" style="fill:#f26b38;stroke:#ffffff;stroke-width:0.48;"/>
    <path clip-path="url(#p498fdc1810)" d="M 343.685568 165.452074 
C 344.481177 165.452074 345.244308 165.135975 345.806889 164.573394 
C 346.369469 164.010814 346.685568 163.247683 346.685568 162.452074 
C 346.685568 161.656465 346.369469 160.893334 345.806889 160.330754 
C 345.244308 159.768173 344.481177 159.452074 343.685568 159.452074 
C 342.889959 159.452074 342.126829 159.768173 341.564248 160.330754 
C 341.001667 160.893334 340.685568 161.656465 340.685568 162.452074 
C 340.685568 163.247683 341.001667 164.010814 341.564248 164.573394 
C 342.126829 165.135975 342.889959 165.452074 343.685568 165.452074 
z
" style="fill:#f26b38;stroke:#ffffff;stroke-width:0.48;"/>
    <path clip-path="url(#p498fdc1810)" d="M 350.449205 165.452074 
C 351.244814 165.452074 352.007944 165.135975 352.570525 164.573394 
C 353.133106 164.010814 353.449205 163.247683 353.449205 162.452074 
C 353.449205 161.656465 353.133106 160.893334 352.570525 160.330754 
C 352.007944 159.768173 351.244814 159.452074 350.449205 159.452074 
C 349.653595 159.452074 348.890465 159.768173 348.327884 160.330754 
C 347.765303 160.893334 347.449205 161.656465 347.449205 162.452074 
C 347.449205 163.247683 347.765303 164.010814 348.327884 164.573394 
C 348.890465 165.135975 349.653595 165.452074 350.449205 165.452074 
z
" style="fill:#f26b38;stroke:#ffffff;stroke-width:0.48;"/>
    <path clip-path="url(#p498fdc1810)" d="M 357.212841 165.452074 
C 358.00845 165.452074 358.771581 165.135975 359.334161 164.573394 
C 359.896742 164.010814 360.212841 163.247683 360.212841 162.452074 
C 360.212841 161.656465 359.896742 160.893334 359.334161 160.330754 
C 358.771581 159.768173 358.00845 159.452074 357.212841 159.452074 
C 356.417232 159.452074 355.654101 159.768173 355.091521 160.330754 
C 354.52894 160.893334 354.212841 161.656465 354.212841 162.452074 
C 354.212841 163.247683 354.52894 164.010814 355.091521 164.573394 
C 355.654101 165.135975 356.417232 165.452074 357.212841 165.452074 
z
" style="fill:#f26b38;stroke:#ffffff;stroke-width:0.48;"/>
    <path clip-path="url(#p498fdc1810)" d="M 363.976477 165.452074 
C 364.772087 165.452074 365.535217 165.135975 366.097798 164.573394 
C 366.660378 164.010814 366.976477 163.247683 366.976477 162.452074 
C 366.976477 161.656465 366.660378 160.893334 366.097798 160.330754 
C 365.535217 159.768173 364.772087 159.452074 363.976477 159.452074 
C 363.180868 159.452074 362.417738 159.768173 361.855157 160.330754 
C 361.292576 160.893334 360.976477 161.656465 360.976477 162.452074 
C 360.976477 163.247683 361.292576 164.010814 361.855157 164.573394 
C 362.417738 165.135975 363.180868 165.452074 363.976477 165.452074 
z
" style="fill:#f26b38;stroke:#ffffff;stroke-width:0.48;"/>
    <path clip-path="url(#p498fdc1810)" d="M 370.740114 165.452074 
C 371.535723 165.452074 372.298853 165.135975 372.861434 164.573394 
C 373.424015 164.010814 373.740114 163.247683 373.740114 162.452074 
C 373.740114 161.656465 373.424015 160.893334 372.861434 160.330754 
C 372.298853 159.768173 371.535723 159.452074 370.740114 159.452074 
C 369.944504 159.452074 369.181374 159.768173 368.618793 160.330754 
C 368.056213 160.893334 367.740114 161.656465 367.740114 162.452074 
C 367.740114 163.247683 368.056213 164.010814 368.618793 164.573394 
C 369.181374 165.135975 369.944504 165.452074 370.740114 165.452074 
z
" style="fill:#f26b38;stroke:#ffffff;stroke-width:0.48;"/>
    <path clip-path="url(#p498fdc1810)" d="M 377.50375 165.452074 
C 378.299359 165.452074 379.06249 165.135975 379.62507 164.573394 
C 380.187651 164.010814 380.50375 163.247683 380.50375 162.452074 
C 380.50375 161.656465 380.187651 160.893334 379.62507 160.330754 
C 379.06249 159.768173 378.299359 159.452074 377.50375 159.452074 
C 376.708141 159.452074 375.94501 159.768173 375.38243 160.330754 
C 374.819849 160.893334 374.50375 161.656465 374.50375 162.452074 
C 374.50375 163.247683 374.819849 164.010814 375.38243 164.573394 
C 375.94501 165.135975 376.708141 165.452074 377.50375 165.452074 
z
" style="fill:#f26b38;stroke:#ffffff;stroke-width:0.48;"/>
    <path clip-path="url(#p498fdc1810)" d="M 384.267386 165.452074 
C 385.062996 165.452074 385.826126 165.135975 386.388707 164.573394 
C 386.951287 164.010814 387.267386 163.247683 387.267386 162.452074 
C 387.267386 161.656465 386.951287 160.893334 386.388707 160.330754 
C 385.826126 159.768173 385.062996 159.452074 384.267386 159.452074 
C 383.471777 159.452074 382.708647 159.768173 382.146066 160.330754 
C 381.583485 160.893334 381.267386 161.656465 381.267386 162.452074 
C 381.267386 163.247683 381.583485 164.010814 382.146066 164.573394 
C 382.708647 165.135975 383.471777 165.452074 384.267386 165.452074 
z
" style="fill:#f26b38;stroke:#ffffff;stroke-width:0.48;"/>
    <path clip-path="url(#p498fdc1810)" d="M 391.031023 165.452074 
C 391.826632 165.452074 392.589762 165.135975 393.152343 164.573394 
C 393.714924 164.010814 394.031023 163.247683 394.031023 162.452074 
C 394.031023 161.656465 393.714924 160.893334 393.152343 160.330754 
C 392.589762 159.768173 391.826632 159.452074 391.031023 159.452074 
C 390.235413 159.452074 389.472283 159.768173 388.909702 160.330754 
C 388.347122 160.893334 388.031023 161.656465 388.031023 162.452074 
C 388.031023 163.247683 388.347122 164.010814 388.909702 164.573394 
C 389.472283 165.135975 390.235413 165.452074 391.031023 165.452074 
z
" style="fill:#f26b38;stroke:#ffffff;stroke-width:0.48;"/>
    <path clip-path="url(#p498fdc1810)" d="M 64.876477 33.150047 
L 66.376477 31.650047 
L 67.876477 33.150047 
L 69.376477 31.650047 
L 67.876477 30.150047 
L 69.376477 28.650047 
L 67.876477 27.150047 
L 66.376477 28.650047 
L 64.876477 27.150047 
L 63.376477 28.650047 
L 64.876477 30.150047 
L 63.376477 31.650047 
z
" style="fill:#2f9599;stroke:#ffffff;stroke-width:0.48;"/>
    <path clip-path="url(#p498fdc1810)" d="M 71.640114 44.183499 
L 73.140114 42.683499 
L 74.640114 44.183499 
L 76.140114 42.683499 
L 74.640114 41.183499 
L 76.140114 39.683499 
L 74.640114 38.183499 
L 73.140114 39.683499 
L 71.640114 38.183499 
L 70.140114 39.683499 
L 71.640114 41.183499 
L 70.140114 42.683499 
z
" style="fill:#2f9599;stroke:#ffffff;stroke-width:0.48;"/>
    <path clip-path="url(#p498fdc1810)" d="M 78.40375 114.413822 
L 79.90375 112.913822 
L 81.40375 114.413822 
L 82.90375 112.913822 
L 81.40375 111.413822 
L 82.90375 109.913822 
L 81.40375 108.413822 
L 79.90375 109.913822 
L 78.40375 108.413822 
L 76.90375 109.913822 
L 78.40375 111.413822 
L 76.90375 112.913822 
z
" style="fill:#2f9599;stroke:#ffffff;stroke-width:0.48;"/>
    <path clip-path="url(#p498fdc1810)" d="M 85.167386 152.350737 
L 86.667386 150.850737 
L 88.167386 152.350737 
L 89.667386 150.850737 
L 88.167386 149.350737 
L 89.667386 147.850737 
L 88.167386 146.350737 
L 86.667386 147.850737 
L 85.167386 146.350737 
L 83.667386 147.850737 
L 85.167386 149.350737 
L 83.667386 150.850737 
z
" style="fill:#2f9599;stroke:#ffffff;stroke-width:0.48;"/>
    <path clip-path="url(#p498fdc1810)" d="M 91.931023 126.837607 
L 93.431023 125.337607 
L 94.931023 126.837607 
L 96.431023 125.337607 
L 94.931023 123.837607 
L 96.431023 122.337607 
L 94.931023 120.837607 
L 93.431023 122.337607 
L 91.931023 120.837607 
L 90.431023 122.337607 
L 91.931023 123.837607 
L 90.431023 125.337607 
z
" style="fill:#2f9599;stroke:#ffffff;stroke-width:0.48;"/>
    <path clip-path="url(#p498fdc1810)" d="M 98.694659 165.452074 
L 100.194659 163.952074 
L 101.694659 165.452074 
L 103.194659 163.952074 
L 101.694659 162.452074 
L 103.194659 160.952074 
L 101.694659 159.452074 
L 100.194659 160.952074 
L 98.694659 159.452074 
L 97.194659 160.952074 
L 98.694659 162.452074 
L 97.194659 163.952074 
z
" style="fill:#2f9599;stroke:#ffffff;stroke-width:0.48;"/>
    <path clip-path="url(#p498fdc1810)" d="M 105.458295 165.452074 
L 106.958295 163.952074 
L 108.458295 165.452074 
L 109.958295 163.952074 
L 108.458295 162.452074 
L 109.958295 160.952074 
L 108.458295 159.452074 
L 106.958295 160.952074 
L 105.458295 159.452074 
L 103.958295 160.952074 
L 105.458295 162.452074 
L 103.958295 163.952074 
z
" style="fill:#2f9599;stroke:#ffffff;stroke-width:0.48;"/>
    <path clip-path="url(#p498fdc1810)" d="M 112.221932 165.452074 
L 113.721932 163.952074 
L 115.221932 165.452074 
L 116.721932 163.952074 
L 115.221932 162.452074 
L 116.721932 160.952074 
L 115.221932 159.452074 
L 113.721932 160.952074 
L 112.221932 159.452074 
L 110.721932 160.952074 
L 112.221932 162.452074 
L 110.721932 163.952074 
z
" style="fill:#2f9599;stroke:#ffffff;stroke-width:0.48;"/>
    <path clip-path="url(#p498fdc1810)" d="M 118.985568 165.452074 
L 120.485568 163.952074 
L 121.985568 165.452074 
L 123.485568 163.952074 
L 121.985568 162.452074 
L 123.485568 160.952074 
L 121.985568 159.452074 
L 120.485568 160.952074 
L 118.985568 159.452074 
L 117.485568 160.952074 
L 118.985568 162.452074 
L 117.485568 163.952074 
z
" style="fill:#2f9599;stroke:#ffffff;stroke-width:0.48;"/>
    <path clip-path="url(#p498fdc1810)" d="M 125.749205 114.413822 
L 127.249205 112.913822 
L 128.749205 114.413822 
L 130.249205 112.913822 
L 128.749205 111.413822 
L 130.249205 109.913822 
L 128.749205 108.413822 
L 127.249205 109.913822 
L 125.749205 108.413822 
L 124.249205 109.913822 
L 125.749205 111.413822 
L 124.249205 112.913822 
z
" style="fill:#2f9599;stroke:#ffffff;stroke-width:0.48;"/>
    <path clip-path="url(#p498fdc1810)" d="M 132.512841 102.20424 
L 134.012841 100.70424 
L 135.512841 102.20424 
L 137.012841 100.70424 
L 135.512841 99.20424 
L 137.012841 97.70424 
L 135.512841 96.20424 
L 134.012841 97.70424 
L 132.512841 96.20424 
L 131.012841 97.70424 
L 132.512841 99.20424 
L 131.012841 100.70424 
z
" style="fill:#2f9599;stroke:#ffffff;stroke-width:0.48;"/>
    <path clip-path="url(#p498fdc1810)" d="M 139.276477 234.666685 
L 140.776477 233.166685 
L 142.276477 234.666685 
L 143.776477 233.166685 
L 142.276477 231.666685 
L 143.776477 230.166685 
L 142.276477 228.666685 
L 140.776477 230.166685 
L 139.276477 228.666685 
L 137.776477 230.166685 
L 139.276477 231.666685 
L 137.776477 233.166685 
z
" style="fill:#2f9599;stroke:#ffffff;stroke-width:0.48;"/>
    <path clip-path="url(#p498fdc1810)" d="M 146.040114 234.666685 
L 147.540114 233.166685 
L 149.040114 234.666685 
L 150.540114 233.166685 
L 149.040114 231.666685 
L 150.540114 230.166685 
L 149.040114 228.666685 
L 147.540114 230.166685 
L 146.040114 228.666685 
L 144.540114 230.166685 
L 146.040114 231.666685 
L 144.540114 233.166685 
z
" style="fill:#2f9599;stroke:#ffffff;stroke-width:0.48;"/>
    <path clip-path="url(#p498fdc1810)" d="M 152.80375 234.666685 
L 154.30375 233.166685 
L 155.80375 234.666685 
L 157.30375 233.166685 
L 155.80375 231.666685 
L 157.30375 230.166685 
L 155.80375 228.666685 
L 154.30375 230.166685 
L 152.80375 228.666685 
L 151.30375 230.166685 
L 152.80375 231.666685 
L 151.30375 233.166685 
z
" style="fill:#2f9599;stroke:#ffffff;stroke-width:0.48;"/>
    <path clip-path="url(#p498fdc1810)" d="M 159.567386 234.666685 
L 161.067386 233.166685 
L 162.567386 234.666685 
L 164.067386 233.166685 
L 162.567386 231.666685 
L 164.067386 230.166685 
L 162.567386 228.666685 
L 161.067386 230.166685 
L 159.567386 228.666685 
L 158.067386 230.166685 
L 159.567386 231.666685 
L 158.067386 233.166685 
z
" style="fill:#2f9599;stroke:#ffffff;stroke-width:0.48;"/>
    <path clip-path="url(#p498fdc1810)" d="M 166.331023 264.216 
L 167.831023 262.716 
L 169.331023 264.216 
L 170.831023 262.716 
L 169.331023 261.216 
L 170.831023 259.716 
L 169.331023 258.216 
L 167.831023 259.716 
L 166.331023 258.216 
L 164.831023 259.716 
L 166.331023 261.216 
L 164.831023 262.716 
z
" style="fill:#2f9599;stroke:#ffffff;stroke-width:0.48;"/>
    <path clip-path="url(#p498fdc1810)" d="M 173.094659 220.306271 
L 174.594659 218.806271 
L 176.094659 220.306271 
L 177.594659 218.806271 
L 176.094659 217.306271 
L 177.594659 215.806271 
L 176.094659 214.306271 
L 174.594659 215.806271 
L 173.094659 214.306271 
L 171.594659 215.806271 
L 173.094659 217.306271 
L 171.594659 218.806271 
z
" style="fill:#2f9599;stroke:#ffffff;stroke-width:0.48;"/>
    <path clip-path="url(#p498fdc1810)" d="M 179.858295 220.306271 
L 181.358295 218.806271 
L 182.858295 220.306271 
L 184.358295 218.806271 
L 182.858295 217.306271 
L 184.358295 215.806271 
L 182.858295 214.306271 
L 181.358295 215.806271 
L 179.858295 214.306271 
L 178.358295 215.806271 
L 179.858295 217.306271 
L 178.358295 218.806271 
z
" style="fill:#2f9599;stroke:#ffffff;stroke-width:0.48;"/>
    <path clip-path="url(#p498fdc1810)" d="M 186.621932 220.306271 
L 188.121932 218.806271 
L 189.621932 220.306271 
L 191.121932 218.806271 
L 189.621932 217.306271 
L 191.121932 215.806271 
L 189.621932 214.306271 
L 188.121932 215.806271 
L 186.621932 214.306271 
L 185.121932 215.806271 
L 186.621932 217.306271 
L 185.121932 218.806271 
z
" style="fill:#2f9599;stroke:#ffffff;stroke-width:0.48;"/>
    <path clip-path="url(#p498fdc1810)" d="M 193.385568 220.306271 
L 194.885568 218.806271 
L 196.385568 220.306271 
L 197.885568 218.806271 
L 196.385568 217.306271 
L 197.885568 215.806271 
L 196.385568 214.306271 
L 194.885568 215.806271 
L 193.385568 214.306271 
L 191.885568 215.806271 
L 193.385568 217.306271 
L 191.885568 218.806271 
z
" style="fill:#2f9599;stroke:#ffffff;stroke-width:0.48;"/>
    <path clip-path="url(#p498fdc1810)" d="M 200.149205 220.306271 
L 201.649205 218.806271 
L 203.149205 220.306271 
L 204.649205 218.806271 
L 203.149205 217.306271 
L 204.649205 215.806271 
L 203.149205 214.306271 
L 201.649205 215.806271 
L 200.149205 214.306271 
L 198.649205 215.806271 
L 200.149205 217.306271 
L 198.649205 218.806271 
z
" style="fill:#2f9599;stroke:#ffffff;stroke-width:0.48;"/>
    <path clip-path="url(#p498fdc1810)" d="M 206.912841 220.306271 
L 208.412841 218.806271 
L 209.912841 220.306271 
L 211.412841 218.806271 
L 209.912841 217.306271 
L 211.412841 215.806271 
L 209.912841 214.306271 
L 208.412841 215.806271 
L 206.912841 214.306271 
L 205.412841 215.806271 
L 206.912841 217.306271 
L 205.412841 218.806271 
z
" style="fill:#2f9599;stroke:#ffffff;stroke-width:0.48;"/>
    <path clip-path="url(#p498fdc1810)" d="M 213.676477 220.306271 
L 215.176477 218.806271 
L 216.676477 220.306271 
L 218.176477 218.806271 
L 216.676477 217.306271 
L 218.176477 215.806271 
L 216.676477 214.306271 
L 215.176477 215.806271 
L 213.676477 214.306271 
L 212.176477 215.806271 
L 213.676477 217.306271 
L 212.176477 218.806271 
z
" style="fill:#2f9599;stroke:#ffffff;stroke-width:0.48;"/>
    <path clip-path="url(#p498fdc1810)" d="M 220.440114 220.306271 
L 221.940114 218.806271 
L 223.440114 220.306271 
L 224.940114 218.806271 
L 223.440114 217.306271 
L 224.940114 215.806271 
L 223.440114 214.306271 
L 221.940114 215.806271 
L 220.440114 214.306271 
L 218.940114 215.806271 
L 220.440114 217.306271 
L 218.940114 218.806271 
z
" style="fill:#2f9599;stroke:#ffffff;stroke-width:0.48;"/>
    <path clip-path="url(#p498fdc1810)" d="M 227.20375 220.306271 
L 228.70375 218.806271 
L 230.20375 220.306271 
L 231.70375 218.806271 
L 230.20375 217.306271 
L 231.70375 215.806271 
L 230.20375 214.306271 
L 228.70375 215.806271 
L 227.20375 214.306271 
L 225.70375 215.806271 
L 227.20375 217.306271 
L 225.70375 218.806271 
z
" style="fill:#2f9599;stroke:#ffffff;stroke-width:0.48;"/>
    <path clip-path="url(#p498fdc1810)" d="M 233.967386 220.306271 
L 235.467386 218.806271 
L 236.967386 220.306271 
L 238.467386 218.806271 
L 236.967386 217.306271 
L 238.467386 215.806271 
L 236.967386 214.306271 
L 235.467386 215.806271 
L 233.967386 214.306271 
L 232.467386 215.806271 
L 233.967386 217.306271 
L 232.467386 218.806271 
z
" style="fill:#2f9599;stroke:#ffffff;stroke-width:0.48;"/>
    <path clip-path="url(#p498fdc1810)" d="M 240.731023 220.306271 
L 242.231023 218.806271 
L 243.731023 220.306271 
L 245.231023 218.806271 
L 243.731023 217.306271 
L 245.231023 215.806271 
L 243.731023 214.306271 
L 242.231023 215.806271 
L 240.731023 214.306271 
L 239.231023 215.806271 
L 240.731023 217.306271 
L 239.231023 218.806271 
z
" style="fill:#2f9599;stroke:#ffffff;stroke-width:0.48;"/>
    <path clip-path="url(#p498fdc1810)" d="M 247.494659 220.306271 
L 248.994659 218.806271 
L 250.494659 220.306271 
L 251.994659 218.806271 
L 250.494659 217.306271 
L 251.994659 215.806271 
L 250.494659 214.306271 
L 248.994659 215.806271 
L 247.494659 214.306271 
L 245.994659 215.806271 
L 247.494659 217.306271 
L 245.994659 218.806271 
z
" style="fill:#2f9599;stroke:#ffffff;stroke-width:0.48;"/>
    <path clip-path="url(#p498fdc1810)" d="M 254.258295 220.306271 
L 255.758295 218.806271 
L 257.258295 220.306271 
L 258.758295 218.806271 
L 257.258295 217.306271 
L 258.758295 215.806271 
L 257.258295 214.306271 
L 255.758295 215.806271 
L 254.258295 214.306271 
L 252.758295 215.806271 
L 254.258295 217.306271 
L 252.758295 218.806271 
z
" style="fill:#2f9599;stroke:#ffffff;stroke-width:0.48;"/>
    <path clip-path="url(#p498fdc1810)" d="M 261.021932 220.306271 
L 262.521932 218.806271 
L 264.021932 220.306271 
L 265.521932 218.806271 
L 264.021932 217.306271 
L 265.521932 215.806271 
L 264.021932 214.306271 
L 262.521932 215.806271 
L 261.021932 214.306271 
L 259.521932 215.806271 
L 261.021932 217.306271 
L 259.521932 218.806271 
z
" style="fill:#2f9599;stroke:#ffffff;stroke-width:0.48;"/>
    <path clip-path="url(#p498fdc1810)" d="M 267.785568 220.306271 
L 269.285568 218.806271 
L 270.785568 220.306271 
L 272.285568 218.806271 
L 270.785568 217.306271 
L 272.285568 215.806271 
L 270.785568 214.306271 
L 269.285568 215.806271 
L 267.785568 214.306271 
L 266.285568 215.806271 
L 267.785568 217.306271 
L 266.285568 218.806271 
z
" style="fill:#2f9599;stroke:#ffffff;stroke-width:0.48;"/>
    <path clip-path="url(#p498fdc1810)" d="M 274.549205 220.306271 
L 276.049205 218.806271 
L 277.549205 220.306271 
L 279.049205 218.806271 
L 277.549205 217.306271 
L 279.049205 215.806271 
L 277.549205 214.306271 
L 276.049205 215.806271 
L 274.549205 214.306271 
L 273.049205 215.806271 
L 274.549205 217.306271 
L 273.049205 218.806271 
z
" style="fill:#2f9599;stroke:#ffffff;stroke-width:0.48;"/>
    <path clip-path="url(#p498fdc1810)" d="M 281.312841 220.306271 
L 282.812841 218.806271 
L 284.312841 220.306271 
L 285.812841 218.806271 
L 284.312841 217.306271 
L 285.812841 215.806271 
L 284.312841 214.306271 
L 282.812841 215.806271 
L 281.312841 214.306271 
L 279.812841 215.806271 
L 281.312841 217.306271 
L 279.812841 218.806271 
z
" style="fill:#2f9599;stroke:#ffffff;stroke-width:0.48;"/>
    <path clip-path="url(#p498fdc1810)" d="M 288.076477 220.306271 
L 289.576477 218.806271 
L 291.076477 220.306271 
L 292.576477 218.806271 
L 291.076477 217.306271 
L 292.576477 215.806271 
L 291.076477 214.306271 
L 289.576477 215.806271 
L 288.076477 214.306271 
L 286.576477 215.806271 
L 288.076477 217.306271 
L 286.576477 218.806271 
z
" style="fill:#2f9599;stroke:#ffffff;stroke-width:0.48;"/>
    <path clip-path="url(#p498fdc1810)" d="M 294.840114 220.306271 
L 296.340114 218.806271 
L 297.840114 220.306271 
L 299.340114 218.806271 
L 297.840114 217.306271 
L 299.340114 215.806271 
L 297.840114 214.306271 
L 296.340114 215.806271 
L 294.840114 214.306271 
L 293.340114 215.806271 
L 294.840114 217.306271 
L 293.340114 218.806271 
z
" style="fill:#2f9599;stroke:#ffffff;stroke-width:0.48;"/>
    <path clip-path="url(#p498fdc1810)" d="M 301.60375 220.306271 
L 303.10375 218.806271 
L 304.60375 220.306271 
L 306.10375 218.806271 
L 304.60375 217.306271 
L 306.10375 215.806271 
L 304.60375 214.306271 
L 303.10375 215.806271 
L 301.60375 214.306271 
L 300.10375 215.806271 
L 301.60375 217.306271 
L 300.10375 218.806271 
z
" style="fill:#2f9599;stroke:#ffffff;stroke-width:0.48;"/>
    <path clip-path="url(#p498fdc1810)" d="M 308.367386 220.306271 
L 309.867386 218.806271 
L 311.367386 220.306271 
L 312.867386 218.806271 
L 311.367386 217.306271 
L 312.867386 215.806271 
L 311.367386 214.306271 
L 309.867386 215.806271 
L 308.367386 214.306271 
L 306.867386 215.806271 
L 308.367386 217.306271 
L 306.867386 218.806271 
z
" style="fill:#2f9599;stroke:#ffffff;stroke-width:0.48;"/>
    <path clip-path="url(#p498fdc1810)" d="M 315.131023 220.306271 
L 316.631023 218.806271 
L 318.131023 220.306271 
L 319.631023 218.806271 
L 318.131023 217.306271 
L 319.631023 215.806271 
L 318.131023 214.306271 
L 316.631023 215.806271 
L 315.131023 214.306271 
L 313.631023 215.806271 
L 315.131023 217.306271 
L 313.631023 218.806271 
z
" style="fill:#2f9599;stroke:#ffffff;stroke-width:0.48;"/>
    <path clip-path="url(#p498fdc1810)" d="M 321.894659 220.306271 
L 323.394659 218.806271 
L 324.894659 220.306271 
L 326.394659 218.806271 
L 324.894659 217.306271 
L 326.394659 215.806271 
L 324.894659 214.306271 
L 323.394659 215.806271 
L 321.894659 214.306271 
L 320.394659 215.806271 
L 321.894659 217.306271 
L 320.394659 218.806271 
z
" style="fill:#2f9599;stroke:#ffffff;stroke-width:0.48;"/>
    <path clip-path="url(#p498fdc1810)" d="M 328.658295 220.306271 
L 330.158295 218.806271 
L 331.658295 220.306271 
L 333.158295 218.806271 
L 331.658295 217.306271 
L 333.158295 215.806271 
L 331.658295 214.306271 
L 330.158295 215.806271 
L 328.658295 214.306271 
L 327.158295 215.806271 
L 328.658295 217.306271 
L 327.158295 218.806271 
z
" style="fill:#2f9599;stroke:#ffffff;stroke-width:0.48;"/>
    <path clip-path="url(#p498fdc1810)" d="M 335.421932 220.306271 
L 336.921932 218.806271 
L 338.421932 220.306271 
L 339.921932 218.806271 
L 338.421932 217.306271 
L 339.921932 215.806271 
L 338.421932 214.306271 
L 336.921932 215.806271 
L 335.421932 214.306271 
L 333.921932 215.806271 
L 335.421932 217.306271 
L 333.921932 218.806271 
z
" style="fill:#2f9599;stroke:#ffffff;stroke-width:0.48;"/>
    <path clip-path="url(#p498fdc1810)" d="M 342.185568 220.306271 
L 343.685568 218.806271 
L 345.185568 220.306271 
L 346.685568 218.806271 
L 345.185568 217.306271 
L 346.685568 215.806271 
L 345.185568 214.306271 
L 343.685568 215.806271 
L 342.185568 214.306271 
L 340.685568 215.806271 
L 342.185568 217.306271 
L 340.685568 218.806271 
z
" style="fill:#2f9599;stroke:#ffffff;stroke-width:0.48;"/>
    <path clip-path="url(#p498fdc1810)" d="M 348.949205 220.306271 
L 350.449205 218.806271 
L 351.949205 220.306271 
L 353.449205 218.806271 
L 351.949205 217.306271 
L 353.449205 215.806271 
L 351.949205 214.306271 
L 350.449205 215.806271 
L 348.949205 214.306271 
L 347.449205 215.806271 
L 348.949205 217.306271 
L 347.449205 218.806271 
z
" style="fill:#2f9599;stroke:#ffffff;stroke-width:0.48;"/>
    <path clip-path="url(#p498fdc1810)" d="M 355.712841 220.306271 
L 357.212841 218.806271 
L 358.712841 220.306271 
L 360.212841 218.806271 
L 358.712841 217.306271 
L 360.212841 215.806271 
L 358.712841 214.306271 
L 357.212841 215.806271 
L 355.712841 214.306271 
L 354.212841 215.806271 
L 355.712841 217.306271 
L 354.212841 218.806271 
z
" style="fill:#2f9599;stroke:#ffffff;stroke-width:0.48;"/>
    <path clip-path="url(#p498fdc1810)" d="M 362.476477 220.306271 
L 363.976477 218.806271 
L 365.476477 220.306271 
L 366.976477 218.806271 
L 365.476477 217.306271 
L 366.976477 215.806271 
L 365.476477 214.306271 
L 363.976477 215.806271 
L 362.476477 214.306271 
L 360.976477 215.806271 
L 362.476477 217.306271 
L 360.976477 218.806271 
z
" style="fill:#2f9599;stroke:#ffffff;stroke-width:0.48;"/>
    <path clip-path="url(#p498fdc1810)" d="M 369.240114 220.306271 
L 370.740114 218.806271 
L 372.240114 220.306271 
L 373.740114 218.806271 
L 372.240114 217.306271 
L 373.740114 215.806271 
L 372.240114 214.306271 
L 370.740114 215.806271 
L 369.240114 214.306271 
L 367.740114 215.806271 
L 369.240114 217.306271 
L 367.740114 218.806271 
z
" style="fill:#2f9599;stroke:#ffffff;stroke-width:0.48;"/>
    <path clip-path="url(#p498fdc1810)" d="M 376.00375 220.306271 
L 377.50375 218.806271 
L 379.00375 220.306271 
L 380.50375 218.806271 
L 379.00375 217.306271 
L 380.50375 215.806271 
L 379.00375 214.306271 
L 377.50375 215.806271 
L 376.00375 214.306271 
L 374.50375 215.806271 
L 376.00375 217.306271 
L 374.50375 218.806271 
z
" style="fill:#2f9599;stroke:#ffffff;stroke-width:0.48;"/>
    <path clip-path="url(#p498fdc1810)" d="M 382.767386 220.306271 
L 384.267386 218.806271 
L 385.767386 220.306271 
L 387.267386 218.806271 
L 385.767386 217.306271 
L 387.267386 215.806271 
L 385.767386 214.306271 
L 384.267386 215.806271 
L 382.767386 214.306271 
L 381.267386 215.806271 
L 382.767386 217.306271 
L 381.267386 218.806271 
z
" style="fill:#2f9599;stroke:#ffffff;stroke-width:0.48;"/>
    <path clip-path="url(#p498fdc1810)" d="M 389.531023 220.306271 
L 391.031023 218.806271 
L 392.531023 220.306271 
L 394.031023 218.806271 
L 392.531023 217.306271 
L 394.031023 215.806271 
L 392.531023 214.306271 
L 391.031023 215.806271 
L 389.531023 214.306271 
L 388.031023 215.806271 
L 389.531023 217.306271 
L 388.031023 218.806271 
z
" style="fill:#2f9599;stroke:#ffffff;stroke-width:0.48;"/>
    <path clip-path="url(#p498fdc1810)" d="M 64.255157 39.062179 
L 64.255157 43.304819 
L 68.497798 43.304819 
L 68.497798 39.062179 
z
" style="fill:#a7226e;stroke:#ffffff;stroke-width:0.48;"/>
    <path clip-path="url(#p498fdc1810)" d="M 71.018793 39.062179 
L 71.018793 43.304819 
L 75.261434 43.304819 
L 75.261434 39.062179 
z
" style="fill:#a7226e;stroke:#ffffff;stroke-width:0.48;"/>
    <path clip-path="url(#p498fdc1810)" d="M 77.78243 39.062179 
L 77.78243 43.304819 
L 82.02507 43.304819 
L 82.02507 39.062179 
z
" style="fill:#a7226e;stroke:#ffffff;stroke-width:0.48;"/>
    <path clip-path="url(#p498fdc1810)" d="M 84.546066 39.062179 
L 84.546066 43.304819 
L 88.788707 43.304819 
L 88.788707 39.062179 
z
" style="fill:#a7226e;stroke:#ffffff;stroke-width:0.48;"/>
    <path clip-path="url(#p498fdc1810)" d="M 91.309702 39.062179 
L 91.309702 43.304819 
L 95.552343 43.304819 
L 95.552343 39.062179 
z
" style="fill:#a7226e;stroke:#ffffff;stroke-width:0.48;"/>
    <path clip-path="url(#p498fdc1810)" d="M 98.073339 39.062179 
L 98.073339 43.304819 
L 102.315979 43.304819 
L 102.315979 39.062179 
z
" style="fill:#a7226e;stroke:#ffffff;stroke-width:0.48;"/>
    <path clip-path="url(#p498fdc1810)" d="M 104.836975 39.062179 
L 104.836975 43.304819 
L 109.079616 43.304819 
L 109.079616 39.062179 
z
" style="fill:#a7226e;stroke:#ffffff;stroke-width:0.48;"/>
    <path clip-path="url(#p498fdc1810)" d="M 111.600611 50.279522 
L 111.600611 54.522162 
L 115.843252 54.522162 
L 115.843252 50.279522 
z
" style="fill:#a7226e;stroke:#ffffff;stroke-width:0.48;"/>
    <path clip-path="url(#p498fdc1810)" d="M 118.364248 39.062179 
L 118.364248 43.304819 
L 122.606889 43.304819 
L 122.606889 39.062179 
z
" style="fill:#a7226e;stroke:#ffffff;stroke-width:0.48;"/>
    <path clip-path="url(#p498fdc1810)" d="M 125.127884 28.028726 
L 125.127884 32.271367 
L 129.370525 32.271367 
L 129.370525 28.028726 
z
" style="fill:#a7226e;stroke:#ffffff;stroke-width:0.48;"/>
    <path clip-path="url(#p498fdc1810)" d="M 131.891521 28.028726 
L 131.891521 32.271367 
L 136.134161 32.271367 
L 136.134161 28.028726 
z
" style="fill:#a7226e;stroke:#ffffff;stroke-width:0.48;"/>
    <path clip-path="url(#p498fdc1810)" d="M 138.655157 39.062179 
L 138.655157 43.304819 
L 142.897798 43.304819 
L 142.897798 39.062179 
z
" style="fill:#a7226e;stroke:#ffffff;stroke-width:0.48;"/>
    <path clip-path="url(#p498fdc1810)" d="M 145.418793 39.062179 
L 145.418793 43.304819 
L 149.661434 43.304819 
L 149.661434 39.062179 
z
" style="fill:#a7226e;stroke:#ffffff;stroke-width:0.48;"/>
    <path clip-path="url(#p498fdc1810)" d="M 152.18243 39.062179 
L 152.18243 43.304819 
L 156.42507 43.304819 
L 156.42507 39.062179 
z
" style="fill:#a7226e;stroke:#ffffff;stroke-width:0.48;"/>
    <path clip-path="url(#p498fdc1810)" d="M 158.946066 28.028726 
L 158.946066 32.271367 
L 163.188707 32.271367 
L 163.188707 28.028726 
z
" style="fill:#a7226e;stroke:#ffffff;stroke-width:0.48;"/>
    <path clip-path="url(#p498fdc1810)" d="M 165.709702 39.062179 
L 165.709702 43.304819 
L 169.952343 43.304819 
L 169.952343 39.062179 
z
" style="fill:#a7226e;stroke:#ffffff;stroke-width:0.48;"/>
    <path clip-path="url(#p498fdc1810)" d="M 172.473339 39.062179 
L 172.473339 43.304819 
L 176.715979 43.304819 
L 176.715979 39.062179 
z
" style="fill:#a7226e;stroke:#ffffff;stroke-width:0.48;"/>
    <path clip-path="url(#p498fdc1810)" d="M 179.236975 50.279522 
L 179.236975 54.522162 
L 183.479616 54.522162 
L 183.479616 50.279522 
z
" style="fill:#a7226e;stroke:#ffffff;stroke-width:0.48;"/>
    <path clip-path="url(#p498fdc1810)" d="M 186.000611 50.279522 
L 186.000611 54.522162 
L 190.243252 54.522162 
L 190.243252 50.279522 
z
" style="fill:#a7226e;stroke:#ffffff;stroke-width:0.48;"/>
    <path clip-path="url(#p498fdc1810)" d="M 192.764248 39.062179 
L 192.764248 43.304819 
L 197.006889 43.304819 
L 197.006889 39.062179 
z
" style="fill:#a7226e;stroke:#ffffff;stroke-width:0.48;"/>
    <path clip-path="url(#p498fdc1810)" d="M 199.527884 39.062179 
L 199.527884 43.304819 
L 203.770525 43.304819 
L 203.770525 39.062179 
z
" style="fill:#a7226e;stroke:#ffffff;stroke-width:0.48;"/>
    <path clip-path="url(#p498fdc1810)" d="M 206.291521 39.062179 
L 206.291521 43.304819 
L 210.534161 43.304819 
L 210.534161 39.062179 
z
" style="fill:#a7226e;stroke:#ffffff;stroke-width:0.48;"/>
    <path clip-path="url(#p498fdc1810)" d="M 213.055157 28.028726 
L 213.055157 32.271367 
L 217.297798 32.271367 
L 217.297798 28.028726 
z
" style="fill:#a7226e;stroke:#ffffff;stroke-width:0.48;"/>
    <path clip-path="url(#p498fdc1810)" d="M 219.818793 73.284582 
L 219.818793 77.527222 
L 224.061434 77.527222 
L 224.061434 73.284582 
z
" style="fill:#a7226e;stroke:#ffffff;stroke-width:0.48;"/>
    <path clip-path="url(#p498fdc1810)" d="M 226.58243 28.028726 
L 226.58243 32.271367 
L 230.82507 32.271367 
L 230.82507 28.028726 
z
" style="fill:#a7226e;stroke:#ffffff;stroke-width:0.48;"/>
    <path clip-path="url(#p498fdc1810)" d="M 233.346066 28.028726 
L 233.346066 32.271367 
L 237.588707 32.271367 
L 237.588707 28.028726 
z
" style="fill:#a7226e;stroke:#ffffff;stroke-width:0.48;"/>
    <path clip-path="url(#p498fdc1810)" d="M 240.109702 28.028726 
L 240.109702 32.271367 
L 244.352343 32.271367 
L 244.352343 28.028726 
z
" style="fill:#a7226e;stroke:#ffffff;stroke-width:0.48;"/>
    <path clip-path="url(#p498fdc1810)" d="M 246.873339 97.082919 
L 246.873339 101.32556 
L 251.115979 101.32556 
L 251.115979 97.082919 
z
" style="fill:#a7226e;stroke:#ffffff;stroke-width:0.48;"/>
    <path clip-path="url(#p498fdc1810)" d="M 253.636975 28.028726 
L 253.636975 32.271367 
L 257.879616 32.271367 
L 257.879616 28.028726 
z
" style="fill:#a7226e;stroke:#ffffff;stroke-width:0.48;"/>
    <path clip-path="url(#p498fdc1810)" d="M 260.400611 61.685392 
L 260.400611 65.928032 
L 264.643252 65.928032 
L 264.643252 61.685392 
z
" style="fill:#a7226e;stroke:#ffffff;stroke-width:0.48;"/>
    <path clip-path="url(#p498fdc1810)" d="M 267.164248 50.279522 
L 267.164248 54.522162 
L 271.406889 54.522162 
L 271.406889 50.279522 
z
" style="fill:#a7226e;stroke:#ffffff;stroke-width:0.48;"/>
    <path clip-path="url(#p498fdc1810)" d="M 273.927884 50.279522 
L 273.927884 54.522162 
L 278.170525 54.522162 
L 278.170525 50.279522 
z
" style="fill:#a7226e;stroke:#ffffff;stroke-width:0.48;"/>
    <path clip-path="url(#p498fdc1810)" d="M 280.691521 50.279522 
L 280.691521 54.522162 
L 284.934161 54.522162 
L 284.934161 50.279522 
z
" style="fill:#a7226e;stroke:#ffffff;stroke-width:0.48;"/>
    <path clip-path="url(#p498fdc1810)" d="M 287.455157 147.229416 
L 287.455157 151.472057 
L 291.697798 151.472057 
L 291.697798 147.229416 
z
" style="fill:#a7226e;stroke:#ffffff;stroke-width:0.48;"/>
    <path clip-path="url(#p498fdc1810)" d="M 294.218793 147.229416 
L 294.218793 151.472057 
L 298.461434 151.472057 
L 298.461434 147.229416 
z
" style="fill:#a7226e;stroke:#ffffff;stroke-width:0.48;"/>
    <path clip-path="url(#p498fdc1810)" d="M 300.98243 147.229416 
L 300.98243 151.472057 
L 305.22507 151.472057 
L 305.22507 147.229416 
z
" style="fill:#a7226e;stroke:#ffffff;stroke-width:0.48;"/>
    <path clip-path="url(#p498fdc1810)" d="M 307.746066 147.229416 
L 307.746066 151.472057 
L 311.988707 151.472057 
L 311.988707 147.229416 
z
" style="fill:#a7226e;stroke:#ffffff;stroke-width:0.48;"/>
    <path clip-path="url(#p498fdc1810)" d="M 314.509702 147.229416 
L 314.509702 151.472057 
L 318.752343 151.472057 
L 318.752343 147.229416 
z
" style="fill:#a7226e;stroke:#ffffff;stroke-width:0.48;"/>
    <path clip-path="url(#p498fdc1810)" d="M 321.273339 147.229416 
L 321.273339 151.472057 
L 325.515979 151.472057 
L 325.515979 147.229416 
z
" style="fill:#a7226e;stroke:#ffffff;stroke-width:0.48;"/>
    <path clip-path="url(#p498fdc1810)" d="M 328.036975 147.229416 
L 328.036975 151.472057 
L 332.279616 151.472057 
L 332.279616 147.229416 
z
" style="fill:#a7226e;stroke:#ffffff;stroke-width:0.48;"/>
    <path clip-path="url(#p498fdc1810)" d="M 334.800611 147.229416 
L 334.800611 151.472057 
L 339.043252 151.472057 
L 339.043252 147.229416 
z
" style="fill:#a7226e;stroke:#ffffff;stroke-width:0.48;"/>
    <path clip-path="url(#p498fdc1810)" d="M 341.564248 147.229416 
L 341.564248 151.472057 
L 345.806889 151.472057 
L 345.806889 147.229416 
z
" style="fill:#a7226e;stroke:#ffffff;stroke-width:0.48;"/>
    <path clip-path="url(#p498fdc1810)" d="M 348.327884 147.229416 
L 348.327884 151.472057 
L 352.570525 151.472057 
L 352.570525 147.229416 
z
" style="fill:#a7226e;stroke:#ffffff;stroke-width:0.48;"/>
    <path clip-path="url(#p498fdc1810)" d="M 355.091521 147.229416 
L 355.091521 151.472057 
L 359.334161 151.472057 
L 359.334161 147.229416 
z
" style="fill:#a7226e;stroke:#ffffff;stroke-width:0.48;"/>
    <path clip-path="url(#p498fdc1810)" d="M 361.855157 147.229416 
L 361.855157 151.472057 
L 366.097798 151.472057 
L 366.097798 147.229416 
z
" style="fill:#a7226e;stroke:#ffffff;stroke-width:0.48;"/>
    <path clip-path="url(#p498fdc1810)" d="M 368.618793 147.229416 
L 368.618793 151.472057 
L 372.861434 151.472057 
L 372.861434 147.229416 
z
" style="fill:#a7226e;stroke:#ffffff;stroke-width:0.48;"/>
    <path clip-path="url(#p498fdc1810)" d="M 375.38243 147.229416 
L 375.38243 151.472057 
L 379.62507 151.472057 
L 379.62507 147.229416 
z
" style="fill:#a7226e;stroke:#ffffff;stroke-width:0.48;"/>
    <path clip-path="url(#p498fdc1810)" d="M 382.146066 147.229416 
L 382.146066 151.472057 
L 386.388707 151.472057 
L 386.388707 147.229416 
z
" style="fill:#a7226e;stroke:#ffffff;stroke-width:0.48;"/>
    <path clip-path="url(#p498fdc1810)" d="M 388.909702 147.229416 
L 388.909702 151.472057 
L 393.152343 151.472057 
L 393.152343 147.229416 
z
" style="fill:#a7226e;stroke:#ffffff;stroke-width:0.48;"/>
   </g>
   <g id="PathCollection_2"/>
   <g id="PathCollection_3"/>
   <g id="PathCollection_4"/>
   <g id="matplotlib.axis_1">
    <g id="xtick_1">
     <g id="line2d_1">
      <defs>
       <path d="M 0 0 
L 0 3.5 
" id="mcf69d705a4" style="stroke:#000000;stroke-width:0.8;"/>
      </defs>
      <g>
       <use style="stroke:#000000;stroke-width:0.8;" x="59.612841" xlink:href="#mcf69d705a4" y="273.312"/>
      </g>
     </g>
     <g id="text_1">
      <!-- 0.0 -->
      <g transform="translate(51.661278 287.910437)scale(0.1 -0.1)">
       <defs>
        <path d="M 31.78125 66.40625 
Q 24.171875 66.40625 20.328125 58.90625 
Q 16.5 51.421875 16.5 36.375 
Q 16.5 21.390625 20.328125 13.890625 
Q 24.171875 6.390625 31.78125 6.390625 
Q 39.453125 6.390625 43.28125 13.890625 
Q 47.125 21.390625 47.125 36.375 
Q 47.125 51.421875 43.28125 58.90625 
Q 39.453125 66.40625 31.78125 66.40625 
z
M 31.78125 74.21875 
Q 44.046875 74.21875 50.515625 64.515625 
Q 56.984375 54.828125 56.984375 36.375 
Q 56.984375 17.96875 50.515625 8.265625 
Q 44.046875 -1.421875 31.78125 -1.421875 
Q 19.53125 -1.421875 13.0625 8.265625 
Q 6.59375 17.96875 6.59375 36.375 
Q 6.59375 54.828125 13.0625 64.515625 
Q 19.53125 74.21875 31.78125 74.21875 
z
" id="DejaVuSans-48"/>
        <path d="M 10.6875 12.40625 
L 21 12.40625 
L 21 0 
L 10.6875 0 
z
" id="DejaVuSans-46"/>
       </defs>
       <use xlink:href="#DejaVuSans-48"/>
       <use x="63.623047" xlink:href="#DejaVuSans-46"/>
       <use x="95.410156" xlink:href="#DejaVuSans-48"/>
      </g>
     </g>
    </g>
    <g id="xtick_2">
     <g id="line2d_2">
      <g>
       <use style="stroke:#000000;stroke-width:0.8;" x="127.249205" xlink:href="#mcf69d705a4" y="273.312"/>
      </g>
     </g>
     <g id="text_2">
      <!-- 0.2 -->
      <g transform="translate(119.297642 287.910437)scale(0.1 -0.1)">
       <defs>
        <path d="M 19.1875 8.296875 
L 53.609375 8.296875 
L 53.609375 0 
L 7.328125 0 
L 7.328125 8.296875 
Q 12.9375 14.109375 22.625 23.890625 
Q 32.328125 33.6875 34.8125 36.53125 
Q 39.546875 41.84375 41.421875 45.53125 
Q 43.3125 49.21875 43.3125 52.78125 
Q 43.3125 58.59375 39.234375 62.25 
Q 35.15625 65.921875 28.609375 65.921875 
Q 23.96875 65.921875 18.8125 64.3125 
Q 13.671875 62.703125 7.8125 59.421875 
L 7.8125 69.390625 
Q 13.765625 71.78125 18.9375 73 
Q 24.125 74.21875 28.421875 74.21875 
Q 39.75 74.21875 46.484375 68.546875 
Q 53.21875 62.890625 53.21875 53.421875 
Q 53.21875 48.921875 51.53125 44.890625 
Q 49.859375 40.875 45.40625 35.40625 
Q 44.1875 33.984375 37.640625 27.21875 
Q 31.109375 20.453125 19.1875 8.296875 
z
" id="DejaVuSans-50"/>
       </defs>
       <use xlink:href="#DejaVuSans-48"/>
       <use x="63.623047" xlink:href="#DejaVuSans-46"/>
       <use x="95.410156" xlink:href="#DejaVuSans-50"/>
      </g>
     </g>
    </g>
    <g id="xtick_3">
     <g id="line2d_3">
      <g>
       <use style="stroke:#000000;stroke-width:0.8;" x="194.885568" xlink:href="#mcf69d705a4" y="273.312"/>
      </g>
     </g>
     <g id="text_3">
      <!-- 0.4 -->
      <g transform="translate(186.934006 287.910437)scale(0.1 -0.1)">
       <defs>
        <path d="M 37.796875 64.3125 
L 12.890625 25.390625 
L 37.796875 25.390625 
z
M 35.203125 72.90625 
L 47.609375 72.90625 
L 47.609375 25.390625 
L 58.015625 25.390625 
L 58.015625 17.1875 
L 47.609375 17.1875 
L 47.609375 0 
L 37.796875 0 
L 37.796875 17.1875 
L 4.890625 17.1875 
L 4.890625 26.703125 
z
" id="DejaVuSans-52"/>
       </defs>
       <use xlink:href="#DejaVuSans-48"/>
       <use x="63.623047" xlink:href="#DejaVuSans-46"/>
       <use x="95.410156" xlink:href="#DejaVuSans-52"/>
      </g>
     </g>
    </g>
    <g id="xtick_4">
     <g id="line2d_4">
      <g>
       <use style="stroke:#000000;stroke-width:0.8;" x="262.521932" xlink:href="#mcf69d705a4" y="273.312"/>
      </g>
     </g>
     <g id="text_4">
      <!-- 0.6 -->
      <g transform="translate(254.570369 287.910437)scale(0.1 -0.1)">
       <defs>
        <path d="M 33.015625 40.375 
Q 26.375 40.375 22.484375 35.828125 
Q 18.609375 31.296875 18.609375 23.390625 
Q 18.609375 15.53125 22.484375 10.953125 
Q 26.375 6.390625 33.015625 6.390625 
Q 39.65625 6.390625 43.53125 10.953125 
Q 47.40625 15.53125 47.40625 23.390625 
Q 47.40625 31.296875 43.53125 35.828125 
Q 39.65625 40.375 33.015625 40.375 
z
M 52.59375 71.296875 
L 52.59375 62.3125 
Q 48.875 64.0625 45.09375 64.984375 
Q 41.3125 65.921875 37.59375 65.921875 
Q 27.828125 65.921875 22.671875 59.328125 
Q 17.53125 52.734375 16.796875 39.40625 
Q 19.671875 43.65625 24.015625 45.921875 
Q 28.375 48.1875 33.59375 48.1875 
Q 44.578125 48.1875 50.953125 41.515625 
Q 57.328125 34.859375 57.328125 23.390625 
Q 57.328125 12.15625 50.6875 5.359375 
Q 44.046875 -1.421875 33.015625 -1.421875 
Q 20.359375 -1.421875 13.671875 8.265625 
Q 6.984375 17.96875 6.984375 36.375 
Q 6.984375 53.65625 15.1875 63.9375 
Q 23.390625 74.21875 37.203125 74.21875 
Q 40.921875 74.21875 44.703125 73.484375 
Q 48.484375 72.75 52.59375 71.296875 
z
" id="DejaVuSans-54"/>
       </defs>
       <use xlink:href="#DejaVuSans-48"/>
       <use x="63.623047" xlink:href="#DejaVuSans-46"/>
       <use x="95.410156" xlink:href="#DejaVuSans-54"/>
      </g>
     </g>
    </g>
    <g id="xtick_5">
     <g id="line2d_5">
      <g>
       <use style="stroke:#000000;stroke-width:0.8;" x="330.158295" xlink:href="#mcf69d705a4" y="273.312"/>
      </g>
     </g>
     <g id="text_5">
      <!-- 0.8 -->
      <g transform="translate(322.206733 287.910437)scale(0.1 -0.1)">
       <defs>
        <path d="M 31.78125 34.625 
Q 24.75 34.625 20.71875 30.859375 
Q 16.703125 27.09375 16.703125 20.515625 
Q 16.703125 13.921875 20.71875 10.15625 
Q 24.75 6.390625 31.78125 6.390625 
Q 38.8125 6.390625 42.859375 10.171875 
Q 46.921875 13.96875 46.921875 20.515625 
Q 46.921875 27.09375 42.890625 30.859375 
Q 38.875 34.625 31.78125 34.625 
z
M 21.921875 38.8125 
Q 15.578125 40.375 12.03125 44.71875 
Q 8.5 49.078125 8.5 55.328125 
Q 8.5 64.0625 14.71875 69.140625 
Q 20.953125 74.21875 31.78125 74.21875 
Q 42.671875 74.21875 48.875 69.140625 
Q 55.078125 64.0625 55.078125 55.328125 
Q 55.078125 49.078125 51.53125 44.71875 
Q 48 40.375 41.703125 38.8125 
Q 48.828125 37.15625 52.796875 32.3125 
Q 56.78125 27.484375 56.78125 20.515625 
Q 56.78125 9.90625 50.3125 4.234375 
Q 43.84375 -1.421875 31.78125 -1.421875 
Q 19.734375 -1.421875 13.25 4.234375 
Q 6.78125 9.90625 6.78125 20.515625 
Q 6.78125 27.484375 10.78125 32.3125 
Q 14.796875 37.15625 21.921875 38.8125 
z
M 18.3125 54.390625 
Q 18.3125 48.734375 21.84375 45.5625 
Q 25.390625 42.390625 31.78125 42.390625 
Q 38.140625 42.390625 41.71875 45.5625 
Q 45.3125 48.734375 45.3125 54.390625 
Q 45.3125 60.0625 41.71875 63.234375 
Q 38.140625 66.40625 31.78125 66.40625 
Q 25.390625 66.40625 21.84375 63.234375 
Q 18.3125 60.0625 18.3125 54.390625 
z
" id="DejaVuSans-56"/>
       </defs>
       <use xlink:href="#DejaVuSans-48"/>
       <use x="63.623047" xlink:href="#DejaVuSans-46"/>
       <use x="95.410156" xlink:href="#DejaVuSans-56"/>
      </g>
     </g>
    </g>
    <g id="xtick_6">
     <g id="line2d_6">
      <g>
       <use style="stroke:#000000;stroke-width:0.8;" x="397.794659" xlink:href="#mcf69d705a4" y="273.312"/>
      </g>
     </g>
     <g id="text_6">
      <!-- 1.0 -->
      <g transform="translate(389.843097 287.910437)scale(0.1 -0.1)">
       <defs>
        <path d="M 12.40625 8.296875 
L 28.515625 8.296875 
L 28.515625 63.921875 
L 10.984375 60.40625 
L 10.984375 69.390625 
L 28.421875 72.90625 
L 38.28125 72.90625 
L 38.28125 8.296875 
L 54.390625 8.296875 
L 54.390625 0 
L 12.40625 0 
z
" id="DejaVuSans-49"/>
       </defs>
       <use xlink:href="#DejaVuSans-49"/>
       <use x="63.623047" xlink:href="#DejaVuSans-46"/>
       <use x="95.410156" xlink:href="#DejaVuSans-48"/>
      </g>
     </g>
    </g>
    <g id="text_7">
     <!-- cutoff -->
     <g transform="translate(214.245938 301.588562)scale(0.1 -0.1)">
      <defs>
       <path d="M 48.78125 52.59375 
L 48.78125 44.1875 
Q 44.96875 46.296875 41.140625 47.34375 
Q 37.3125 48.390625 33.40625 48.390625 
Q 24.65625 48.390625 19.8125 42.84375 
Q 14.984375 37.3125 14.984375 27.296875 
Q 14.984375 17.28125 19.8125 11.734375 
Q 24.65625 6.203125 33.40625 6.203125 
Q 37.3125 6.203125 41.140625 7.25 
Q 44.96875 8.296875 48.78125 10.40625 
L 48.78125 2.09375 
Q 45.015625 0.34375 40.984375 -0.53125 
Q 36.96875 -1.421875 32.421875 -1.421875 
Q 20.0625 -1.421875 12.78125 6.34375 
Q 5.515625 14.109375 5.515625 27.296875 
Q 5.515625 40.671875 12.859375 48.328125 
Q 20.21875 56 33.015625 56 
Q 37.15625 56 41.109375 55.140625 
Q 45.0625 54.296875 48.78125 52.59375 
z
" id="DejaVuSans-99"/>
       <path d="M 8.5 21.578125 
L 8.5 54.6875 
L 17.484375 54.6875 
L 17.484375 21.921875 
Q 17.484375 14.15625 20.5 10.265625 
Q 23.53125 6.390625 29.59375 6.390625 
Q 36.859375 6.390625 41.078125 11.03125 
Q 45.3125 15.671875 45.3125 23.6875 
L 45.3125 54.6875 
L 54.296875 54.6875 
L 54.296875 0 
L 45.3125 0 
L 45.3125 8.40625 
Q 42.046875 3.421875 37.71875 1 
Q 33.40625 -1.421875 27.6875 -1.421875 
Q 18.265625 -1.421875 13.375 4.4375 
Q 8.5 10.296875 8.5 21.578125 
z
M 31.109375 56 
z
" id="DejaVuSans-117"/>
       <path d="M 18.3125 70.21875 
L 18.3125 54.6875 
L 36.8125 54.6875 
L 36.8125 47.703125 
L 18.3125 47.703125 
L 18.3125 18.015625 
Q 18.3125 11.328125 20.140625 9.421875 
Q 21.96875 7.515625 27.59375 7.515625 
L 36.8125 7.515625 
L 36.8125 0 
L 27.59375 0 
Q 17.1875 0 13.234375 3.875 
Q 9.28125 7.765625 9.28125 18.015625 
L 9.28125 47.703125 
L 2.6875 47.703125 
L 2.6875 54.6875 
L 9.28125 54.6875 
L 9.28125 70.21875 
z
" id="DejaVuSans-116"/>
       <path d="M 30.609375 48.390625 
Q 23.390625 48.390625 19.1875 42.75 
Q 14.984375 37.109375 14.984375 27.296875 
Q 14.984375 17.484375 19.15625 11.84375 
Q 23.34375 6.203125 30.609375 6.203125 
Q 37.796875 6.203125 41.984375 11.859375 
Q 46.1875 17.53125 46.1875 27.296875 
Q 46.1875 37.015625 41.984375 42.703125 
Q 37.796875 48.390625 30.609375 48.390625 
z
M 30.609375 56 
Q 42.328125 56 49.015625 48.375 
Q 55.71875 40.765625 55.71875 27.296875 
Q 55.71875 13.875 49.015625 6.21875 
Q 42.328125 -1.421875 30.609375 -1.421875 
Q 18.84375 -1.421875 12.171875 6.21875 
Q 5.515625 13.875 5.515625 27.296875 
Q 5.515625 40.765625 12.171875 48.375 
Q 18.84375 56 30.609375 56 
z
" id="DejaVuSans-111"/>
       <path d="M 37.109375 75.984375 
L 37.109375 68.5 
L 28.515625 68.5 
Q 23.6875 68.5 21.796875 66.546875 
Q 19.921875 64.59375 19.921875 59.515625 
L 19.921875 54.6875 
L 34.71875 54.6875 
L 34.71875 47.703125 
L 19.921875 47.703125 
L 19.921875 0 
L 10.890625 0 
L 10.890625 47.703125 
L 2.296875 47.703125 
L 2.296875 54.6875 
L 10.890625 54.6875 
L 10.890625 58.5 
Q 10.890625 67.625 15.140625 71.796875 
Q 19.390625 75.984375 28.609375 75.984375 
z
" id="DejaVuSans-102"/>
      </defs>
      <use xlink:href="#DejaVuSans-99"/>
      <use x="54.980469" xlink:href="#DejaVuSans-117"/>
      <use x="118.359375" xlink:href="#DejaVuSans-116"/>
      <use x="157.568359" xlink:href="#DejaVuSans-111"/>
      <use x="218.75" xlink:href="#DejaVuSans-102"/>
      <use x="253.955078" xlink:href="#DejaVuSans-102"/>
     </g>
    </g>
   </g>
   <g id="matplotlib.axis_2">
    <g id="ytick_1">
     <g id="line2d_7">
      <defs>
       <path d="M 0 0 
L -3.5 0 
" id="m800a6f2fc7" style="stroke:#000000;stroke-width:0.8;"/>
      </defs>
      <g>
       <use style="stroke:#000000;stroke-width:0.8;" x="50.14375" xlink:href="#m800a6f2fc7" y="264.989768"/>
      </g>
     </g>
     <g id="text_8">
      <!-- 0.40 -->
      <g transform="translate(20.878125 268.788987)scale(0.1 -0.1)">
       <use xlink:href="#DejaVuSans-48"/>
       <use x="63.623047" xlink:href="#DejaVuSans-46"/>
       <use x="95.410156" xlink:href="#DejaVuSans-52"/>
       <use x="159.033203" xlink:href="#DejaVuSans-48"/>
      </g>
     </g>
    </g>
    <g id="ytick_2">
     <g id="line2d_8">
      <g>
       <use style="stroke:#000000;stroke-width:0.8;" x="50.14375" xlink:href="#m800a6f2fc7" y="215.930785"/>
      </g>
     </g>
     <g id="text_9">
      <!-- 0.45 -->
      <g transform="translate(20.878125 219.730004)scale(0.1 -0.1)">
       <defs>
        <path d="M 10.796875 72.90625 
L 49.515625 72.90625 
L 49.515625 64.59375 
L 19.828125 64.59375 
L 19.828125 46.734375 
Q 21.96875 47.46875 24.109375 47.828125 
Q 26.265625 48.1875 28.421875 48.1875 
Q 40.625 48.1875 47.75 41.5 
Q 54.890625 34.8125 54.890625 23.390625 
Q 54.890625 11.625 47.5625 5.09375 
Q 40.234375 -1.421875 26.90625 -1.421875 
Q 22.3125 -1.421875 17.546875 -0.640625 
Q 12.796875 0.140625 7.71875 1.703125 
L 7.71875 11.625 
Q 12.109375 9.234375 16.796875 8.0625 
Q 21.484375 6.890625 26.703125 6.890625 
Q 35.15625 6.890625 40.078125 11.328125 
Q 45.015625 15.765625 45.015625 23.390625 
Q 45.015625 31 40.078125 35.4375 
Q 35.15625 39.890625 26.703125 39.890625 
Q 22.75 39.890625 18.8125 39.015625 
Q 14.890625 38.140625 10.796875 36.28125 
z
" id="DejaVuSans-53"/>
       </defs>
       <use xlink:href="#DejaVuSans-48"/>
       <use x="63.623047" xlink:href="#DejaVuSans-46"/>
       <use x="95.410156" xlink:href="#DejaVuSans-52"/>
       <use x="159.033203" xlink:href="#DejaVuSans-53"/>
      </g>
     </g>
    </g>
    <g id="ytick_3">
     <g id="line2d_9">
      <g>
       <use style="stroke:#000000;stroke-width:0.8;" x="50.14375" xlink:href="#m800a6f2fc7" y="166.871802"/>
      </g>
     </g>
     <g id="text_10">
      <!-- 0.50 -->
      <g transform="translate(20.878125 170.671021)scale(0.1 -0.1)">
       <use xlink:href="#DejaVuSans-48"/>
       <use x="63.623047" xlink:href="#DejaVuSans-46"/>
       <use x="95.410156" xlink:href="#DejaVuSans-53"/>
       <use x="159.033203" xlink:href="#DejaVuSans-48"/>
      </g>
     </g>
    </g>
    <g id="ytick_4">
     <g id="line2d_10">
      <g>
       <use style="stroke:#000000;stroke-width:0.8;" x="50.14375" xlink:href="#m800a6f2fc7" y="117.812819"/>
      </g>
     </g>
     <g id="text_11">
      <!-- 0.55 -->
      <g transform="translate(20.878125 121.612038)scale(0.1 -0.1)">
       <use xlink:href="#DejaVuSans-48"/>
       <use x="63.623047" xlink:href="#DejaVuSans-46"/>
       <use x="95.410156" xlink:href="#DejaVuSans-53"/>
       <use x="159.033203" xlink:href="#DejaVuSans-53"/>
      </g>
     </g>
    </g>
    <g id="ytick_5">
     <g id="line2d_11">
      <g>
       <use style="stroke:#000000;stroke-width:0.8;" x="50.14375" xlink:href="#m800a6f2fc7" y="68.753836"/>
      </g>
     </g>
     <g id="text_12">
      <!-- 0.60 -->
      <g transform="translate(20.878125 72.553055)scale(0.1 -0.1)">
       <use xlink:href="#DejaVuSans-48"/>
       <use x="63.623047" xlink:href="#DejaVuSans-46"/>
       <use x="95.410156" xlink:href="#DejaVuSans-54"/>
       <use x="159.033203" xlink:href="#DejaVuSans-48"/>
      </g>
     </g>
    </g>
    <g id="ytick_6">
     <g id="line2d_12">
      <g>
       <use style="stroke:#000000;stroke-width:0.8;" x="50.14375" xlink:href="#m800a6f2fc7" y="19.694854"/>
      </g>
     </g>
     <g id="text_13">
      <!-- 0.65 -->
      <g transform="translate(20.878125 23.494072)scale(0.1 -0.1)">
       <use xlink:href="#DejaVuSans-48"/>
       <use x="63.623047" xlink:href="#DejaVuSans-46"/>
       <use x="95.410156" xlink:href="#DejaVuSans-54"/>
       <use x="159.033203" xlink:href="#DejaVuSans-53"/>
      </g>
     </g>
    </g>
    <g id="text_14">
     <!-- performance -->
     <g transform="translate(14.798438 172.278656)rotate(-90)scale(0.1 -0.1)">
      <defs>
       <path d="M 18.109375 8.203125 
L 18.109375 -20.796875 
L 9.078125 -20.796875 
L 9.078125 54.6875 
L 18.109375 54.6875 
L 18.109375 46.390625 
Q 20.953125 51.265625 25.265625 53.625 
Q 29.59375 56 35.59375 56 
Q 45.5625 56 51.78125 48.09375 
Q 58.015625 40.1875 58.015625 27.296875 
Q 58.015625 14.40625 51.78125 6.484375 
Q 45.5625 -1.421875 35.59375 -1.421875 
Q 29.59375 -1.421875 25.265625 0.953125 
Q 20.953125 3.328125 18.109375 8.203125 
z
M 48.6875 27.296875 
Q 48.6875 37.203125 44.609375 42.84375 
Q 40.53125 48.484375 33.40625 48.484375 
Q 26.265625 48.484375 22.1875 42.84375 
Q 18.109375 37.203125 18.109375 27.296875 
Q 18.109375 17.390625 22.1875 11.75 
Q 26.265625 6.109375 33.40625 6.109375 
Q 40.53125 6.109375 44.609375 11.75 
Q 48.6875 17.390625 48.6875 27.296875 
z
" id="DejaVuSans-112"/>
       <path d="M 56.203125 29.59375 
L 56.203125 25.203125 
L 14.890625 25.203125 
Q 15.484375 15.921875 20.484375 11.0625 
Q 25.484375 6.203125 34.421875 6.203125 
Q 39.59375 6.203125 44.453125 7.46875 
Q 49.3125 8.734375 54.109375 11.28125 
L 54.109375 2.78125 
Q 49.265625 0.734375 44.1875 -0.34375 
Q 39.109375 -1.421875 33.890625 -1.421875 
Q 20.796875 -1.421875 13.15625 6.1875 
Q 5.515625 13.8125 5.515625 26.8125 
Q 5.515625 40.234375 12.765625 48.109375 
Q 20.015625 56 32.328125 56 
Q 43.359375 56 49.78125 48.890625 
Q 56.203125 41.796875 56.203125 29.59375 
z
M 47.21875 32.234375 
Q 47.125 39.59375 43.09375 43.984375 
Q 39.0625 48.390625 32.421875 48.390625 
Q 24.90625 48.390625 20.390625 44.140625 
Q 15.875 39.890625 15.1875 32.171875 
z
" id="DejaVuSans-101"/>
       <path d="M 41.109375 46.296875 
Q 39.59375 47.171875 37.8125 47.578125 
Q 36.03125 48 33.890625 48 
Q 26.265625 48 22.1875 43.046875 
Q 18.109375 38.09375 18.109375 28.8125 
L 18.109375 0 
L 9.078125 0 
L 9.078125 54.6875 
L 18.109375 54.6875 
L 18.109375 46.1875 
Q 20.953125 51.171875 25.484375 53.578125 
Q 30.03125 56 36.53125 56 
Q 37.453125 56 38.578125 55.875 
Q 39.703125 55.765625 41.0625 55.515625 
z
" id="DejaVuSans-114"/>
       <path d="M 52 44.1875 
Q 55.375 50.25 60.0625 53.125 
Q 64.75 56 71.09375 56 
Q 79.640625 56 84.28125 50.015625 
Q 88.921875 44.046875 88.921875 33.015625 
L 88.921875 0 
L 79.890625 0 
L 79.890625 32.71875 
Q 79.890625 40.578125 77.09375 44.375 
Q 74.3125 48.1875 68.609375 48.1875 
Q 61.625 48.1875 57.5625 43.546875 
Q 53.515625 38.921875 53.515625 30.90625 
L 53.515625 0 
L 44.484375 0 
L 44.484375 32.71875 
Q 44.484375 40.625 41.703125 44.40625 
Q 38.921875 48.1875 33.109375 48.1875 
Q 26.21875 48.1875 22.15625 43.53125 
Q 18.109375 38.875 18.109375 30.90625 
L 18.109375 0 
L 9.078125 0 
L 9.078125 54.6875 
L 18.109375 54.6875 
L 18.109375 46.1875 
Q 21.1875 51.21875 25.484375 53.609375 
Q 29.78125 56 35.6875 56 
Q 41.65625 56 45.828125 52.96875 
Q 50 49.953125 52 44.1875 
z
" id="DejaVuSans-109"/>
       <path d="M 34.28125 27.484375 
Q 23.390625 27.484375 19.1875 25 
Q 14.984375 22.515625 14.984375 16.5 
Q 14.984375 11.71875 18.140625 8.90625 
Q 21.296875 6.109375 26.703125 6.109375 
Q 34.1875 6.109375 38.703125 11.40625 
Q 43.21875 16.703125 43.21875 25.484375 
L 43.21875 27.484375 
z
M 52.203125 31.203125 
L 52.203125 0 
L 43.21875 0 
L 43.21875 8.296875 
Q 40.140625 3.328125 35.546875 0.953125 
Q 30.953125 -1.421875 24.3125 -1.421875 
Q 15.921875 -1.421875 10.953125 3.296875 
Q 6 8.015625 6 15.921875 
Q 6 25.140625 12.171875 29.828125 
Q 18.359375 34.515625 30.609375 34.515625 
L 43.21875 34.515625 
L 43.21875 35.40625 
Q 43.21875 41.609375 39.140625 45 
Q 35.0625 48.390625 27.6875 48.390625 
Q 23 48.390625 18.546875 47.265625 
Q 14.109375 46.140625 10.015625 43.890625 
L 10.015625 52.203125 
Q 14.9375 54.109375 19.578125 55.046875 
Q 24.21875 56 28.609375 56 
Q 40.484375 56 46.34375 49.84375 
Q 52.203125 43.703125 52.203125 31.203125 
z
" id="DejaVuSans-97"/>
       <path d="M 54.890625 33.015625 
L 54.890625 0 
L 45.90625 0 
L 45.90625 32.71875 
Q 45.90625 40.484375 42.875 44.328125 
Q 39.84375 48.1875 33.796875 48.1875 
Q 26.515625 48.1875 22.3125 43.546875 
Q 18.109375 38.921875 18.109375 30.90625 
L 18.109375 0 
L 9.078125 0 
L 9.078125 54.6875 
L 18.109375 54.6875 
L 18.109375 46.1875 
Q 21.34375 51.125 25.703125 53.5625 
Q 30.078125 56 35.796875 56 
Q 45.21875 56 50.046875 50.171875 
Q 54.890625 44.34375 54.890625 33.015625 
z
" id="DejaVuSans-110"/>
      </defs>
      <use xlink:href="#DejaVuSans-112"/>
      <use x="63.476562" xlink:href="#DejaVuSans-101"/>
      <use x="125" xlink:href="#DejaVuSans-114"/>
      <use x="166.113281" xlink:href="#DejaVuSans-102"/>
      <use x="201.318359" xlink:href="#DejaVuSans-111"/>
      <use x="262.5" xlink:href="#DejaVuSans-114"/>
      <use x="301.863281" xlink:href="#DejaVuSans-109"/>
      <use x="399.275391" xlink:href="#DejaVuSans-97"/>
      <use x="460.554688" xlink:href="#DejaVuSans-110"/>
      <use x="523.933594" xlink:href="#DejaVuSans-99"/>
      <use x="578.914062" xlink:href="#DejaVuSans-101"/>
     </g>
    </g>
   </g>
   <g id="line2d_13">
    <path clip-path="url(#p498fdc1810)" d="M 66.376477 19.296 
L 73.140114 30.150047 
L 79.90375 30.150047 
L 86.667386 30.150047 
L 93.431023 19.296 
L 100.194659 30.150047 
L 106.958295 41.183499 
L 113.721932 41.183499 
L 120.485568 41.183499 
L 127.249205 41.183499 
L 134.012841 111.413822 
L 140.776477 123.837607 
L 147.540114 149.350737 
L 154.30375 123.837607 
L 161.067386 162.452074 
L 167.831023 162.452074 
L 174.594659 162.452074 
L 181.358295 162.452074 
L 188.121932 149.350737 
L 194.885568 162.452074 
L 201.649205 203.211789 
L 208.412841 203.211789 
L 215.176477 203.211789 
L 221.940114 203.211789 
L 228.70375 189.375923 
L 235.467386 162.452074 
L 242.231023 162.452074 
L 248.994659 162.452074 
L 255.758295 162.452074 
L 262.521932 162.452074 
L 269.285568 162.452074 
L 276.049205 162.452074 
L 282.812841 162.452074 
L 289.576477 162.452074 
L 296.340114 162.452074 
L 303.10375 162.452074 
L 309.867386 162.452074 
L 316.631023 162.452074 
L 323.394659 162.452074 
L 330.158295 162.452074 
L 336.921932 162.452074 
L 343.685568 162.452074 
L 350.449205 162.452074 
L 357.212841 162.452074 
L 363.976477 162.452074 
L 370.740114 162.452074 
L 377.50375 162.452074 
L 384.267386 162.452074 
L 391.031023 162.452074 
" style="fill:none;stroke:#f26b38;stroke-dasharray:7.4,3.2;stroke-dashoffset:0;stroke-width:2;"/>
   </g>
   <g id="line2d_14">
    <path clip-path="url(#p498fdc1810)" d="M 66.376477 30.150047 
L 73.140114 41.183499 
L 79.90375 111.413822 
L 86.667386 149.350737 
L 93.431023 123.837607 
L 100.194659 162.452074 
L 106.958295 162.452074 
L 113.721932 162.452074 
L 120.485568 162.452074 
L 127.249205 111.413822 
L 134.012841 99.20424 
L 140.776477 231.666685 
L 147.540114 231.666685 
L 154.30375 231.666685 
L 161.067386 231.666685 
L 167.831023 261.216 
L 174.594659 217.306271 
L 181.358295 217.306271 
L 188.121932 217.306271 
L 194.885568 217.306271 
L 201.649205 217.306271 
L 208.412841 217.306271 
L 215.176477 217.306271 
L 221.940114 217.306271 
L 228.70375 217.306271 
L 235.467386 217.306271 
L 242.231023 217.306271 
L 248.994659 217.306271 
L 255.758295 217.306271 
L 262.521932 217.306271 
L 269.285568 217.306271 
L 276.049205 217.306271 
L 282.812841 217.306271 
L 289.576477 217.306271 
L 296.340114 217.306271 
L 303.10375 217.306271 
L 309.867386 217.306271 
L 316.631023 217.306271 
L 323.394659 217.306271 
L 330.158295 217.306271 
L 336.921932 217.306271 
L 343.685568 217.306271 
L 350.449205 217.306271 
L 357.212841 217.306271 
L 363.976477 217.306271 
L 370.740114 217.306271 
L 377.50375 217.306271 
L 384.267386 217.306271 
L 391.031023 217.306271 
" style="fill:none;stroke:#2f9599;stroke-dasharray:2,3.3;stroke-dashoffset:0;stroke-width:2;"/>
   </g>
   <g id="line2d_15">
    <path clip-path="url(#p498fdc1810)" d="M 66.376477 41.183499 
L 73.140114 41.183499 
L 79.90375 41.183499 
L 86.667386 41.183499 
L 93.431023 41.183499 
L 100.194659 41.183499 
L 106.958295 41.183499 
L 113.721932 52.400842 
L 120.485568 41.183499 
L 127.249205 30.150047 
L 134.012841 30.150047 
L 140.776477 41.183499 
L 147.540114 41.183499 
L 154.30375 41.183499 
L 161.067386 30.150047 
L 167.831023 41.183499 
L 174.594659 41.183499 
L 181.358295 52.400842 
L 188.121932 52.400842 
L 194.885568 41.183499 
L 201.649205 41.183499 
L 208.412841 41.183499 
L 215.176477 30.150047 
L 221.940114 75.405902 
L 228.70375 30.150047 
L 235.467386 30.150047 
L 242.231023 30.150047 
L 248.994659 99.20424 
L 255.758295 30.150047 
L 262.521932 63.806712 
L 269.285568 52.400842 
L 276.049205 52.400842 
L 282.812841 52.400842 
L 289.576477 149.350737 
L 296.340114 149.350737 
L 303.10375 149.350737 
L 309.867386 149.350737 
L 316.631023 149.350737 
L 323.394659 149.350737 
L 330.158295 149.350737 
L 336.921932 149.350737 
L 343.685568 149.350737 
L 350.449205 149.350737 
L 357.212841 149.350737 
L 363.976477 149.350737 
L 370.740114 149.350737 
L 377.50375 149.350737 
L 384.267386 149.350737 
L 391.031023 149.350737 
" style="fill:none;stroke:#a7226e;stroke-dasharray:12.8,3.2,2,3.2;stroke-dashoffset:0;stroke-width:2;"/>
   </g>
   <g id="patch_3">
    <path d="M 50.14375 273.312 
L 50.14375 7.2 
" style="fill:none;stroke:#000000;stroke-linecap:square;stroke-linejoin:miter;stroke-width:0.8;"/>
   </g>
   <g id="patch_4">
    <path d="M 407.26375 273.312 
L 407.26375 7.2 
" style="fill:none;stroke:#000000;stroke-linecap:square;stroke-linejoin:miter;stroke-width:0.8;"/>
   </g>
   <g id="patch_5">
    <path d="M 50.14375 273.312 
L 407.26375 273.312 
" style="fill:none;stroke:#000000;stroke-linecap:square;stroke-linejoin:miter;stroke-width:0.8;"/>
   </g>
   <g id="patch_6">
    <path d="M 50.14375 7.2 
L 407.26375 7.2 
" style="fill:none;stroke:#000000;stroke-linecap:square;stroke-linejoin:miter;stroke-width:0.8;"/>
   </g>
   <g id="legend_1">
    <g id="patch_7">
     <path d="M 321.790059 43.890912 
L 402.40575 43.890912 
Q 403.79375 43.890912 403.79375 42.502912 
L 403.79375 12.058 
Q 403.79375 10.67 402.40575 10.67 
L 321.790059 10.67 
Q 320.402059 10.67 320.402059 12.058 
L 320.402059 42.502912 
Q 320.402059 43.890912 321.790059 43.890912 
z
" style="fill:#ffffff;opacity:0.8;stroke:#cccccc;stroke-linejoin:miter;"/>
    </g>
    <g id="PathCollection_5">
     <defs>
      <path d="M 0 3 
C 0.795609 3 1.55874 2.683901 2.12132 2.12132 
C 2.683901 1.55874 3 0.795609 3 0 
C 3 -0.795609 2.683901 -1.55874 2.12132 -2.12132 
C 1.55874 -2.683901 0.795609 -3 0 -3 
C -0.795609 -3 -1.55874 -2.683901 -2.12132 -2.12132 
C -2.683901 -1.55874 -3 -0.795609 -3 0 
C -3 0.795609 -2.683901 1.55874 -2.12132 2.12132 
C -1.55874 2.683901 -0.795609 3 0 3 
z
" id="m88abab9957" style="stroke:#f26b38;"/>
     </defs>
     <g>
      <use style="fill:#f26b38;stroke:#f26b38;" x="330.118059" xlink:href="#m88abab9957" y="16.897566"/>
     </g>
    </g>
    <g id="text_15">
     <!-- mean_err -->
     <g transform="translate(342.610059 18.719316)scale(0.0694 -0.0694)">
      <defs>
       <path d="M 50.984375 -16.609375 
L 50.984375 -23.578125 
L -0.984375 -23.578125 
L -0.984375 -16.609375 
z
" id="DejaVuSans-95"/>
      </defs>
      <use xlink:href="#DejaVuSans-109"/>
      <use x="97.412109" xlink:href="#DejaVuSans-101"/>
      <use x="158.935547" xlink:href="#DejaVuSans-97"/>
      <use x="220.214844" xlink:href="#DejaVuSans-110"/>
      <use x="283.59375" xlink:href="#DejaVuSans-95"/>
      <use x="333.59375" xlink:href="#DejaVuSans-101"/>
      <use x="395.117188" xlink:href="#DejaVuSans-114"/>
      <use x="434.480469" xlink:href="#DejaVuSans-114"/>
     </g>
    </g>
    <g id="PathCollection_6">
     <defs>
      <path d="M -1.5 3 
L 0 1.5 
L 1.5 3 
L 3 1.5 
L 1.5 0 
L 3 -1.5 
L 1.5 -3 
L 0 -1.5 
L -1.5 -3 
L -3 -1.5 
L -1.5 0 
L -3 1.5 
z
" id="mbe948abc83" style="stroke:#2f9599;"/>
     </defs>
     <g>
      <use style="fill:#2f9599;stroke:#2f9599;" x="330.118059" xlink:href="#mbe948abc83" y="27.277203"/>
     </g>
    </g>
    <g id="text_16">
     <!-- mean_sq_err -->
     <g transform="translate(342.610059 29.098953)scale(0.0694 -0.0694)">
      <defs>
       <path d="M 44.28125 53.078125 
L 44.28125 44.578125 
Q 40.484375 46.53125 36.375 47.5 
Q 32.28125 48.484375 27.875 48.484375 
Q 21.1875 48.484375 17.84375 46.4375 
Q 14.5 44.390625 14.5 40.28125 
Q 14.5 37.15625 16.890625 35.375 
Q 19.28125 33.59375 26.515625 31.984375 
L 29.59375 31.296875 
Q 39.15625 29.25 43.1875 25.515625 
Q 47.21875 21.78125 47.21875 15.09375 
Q 47.21875 7.46875 41.1875 3.015625 
Q 35.15625 -1.421875 24.609375 -1.421875 
Q 20.21875 -1.421875 15.453125 -0.5625 
Q 10.6875 0.296875 5.421875 2 
L 5.421875 11.28125 
Q 10.40625 8.6875 15.234375 7.390625 
Q 20.0625 6.109375 24.8125 6.109375 
Q 31.15625 6.109375 34.5625 8.28125 
Q 37.984375 10.453125 37.984375 14.40625 
Q 37.984375 18.0625 35.515625 20.015625 
Q 33.0625 21.96875 24.703125 23.78125 
L 21.578125 24.515625 
Q 13.234375 26.265625 9.515625 29.90625 
Q 5.8125 33.546875 5.8125 39.890625 
Q 5.8125 47.609375 11.28125 51.796875 
Q 16.75 56 26.8125 56 
Q 31.78125 56 36.171875 55.265625 
Q 40.578125 54.546875 44.28125 53.078125 
z
" id="DejaVuSans-115"/>
       <path d="M 14.796875 27.296875 
Q 14.796875 17.390625 18.875 11.75 
Q 22.953125 6.109375 30.078125 6.109375 
Q 37.203125 6.109375 41.296875 11.75 
Q 45.40625 17.390625 45.40625 27.296875 
Q 45.40625 37.203125 41.296875 42.84375 
Q 37.203125 48.484375 30.078125 48.484375 
Q 22.953125 48.484375 18.875 42.84375 
Q 14.796875 37.203125 14.796875 27.296875 
z
M 45.40625 8.203125 
Q 42.578125 3.328125 38.25 0.953125 
Q 33.9375 -1.421875 27.875 -1.421875 
Q 17.96875 -1.421875 11.734375 6.484375 
Q 5.515625 14.40625 5.515625 27.296875 
Q 5.515625 40.1875 11.734375 48.09375 
Q 17.96875 56 27.875 56 
Q 33.9375 56 38.25 53.625 
Q 42.578125 51.265625 45.40625 46.390625 
L 45.40625 54.6875 
L 54.390625 54.6875 
L 54.390625 -20.796875 
L 45.40625 -20.796875 
z
" id="DejaVuSans-113"/>
      </defs>
      <use xlink:href="#DejaVuSans-109"/>
      <use x="97.412109" xlink:href="#DejaVuSans-101"/>
      <use x="158.935547" xlink:href="#DejaVuSans-97"/>
      <use x="220.214844" xlink:href="#DejaVuSans-110"/>
      <use x="283.59375" xlink:href="#DejaVuSans-95"/>
      <use x="333.59375" xlink:href="#DejaVuSans-115"/>
      <use x="385.693359" xlink:href="#DejaVuSans-113"/>
      <use x="449.169922" xlink:href="#DejaVuSans-95"/>
      <use x="499.169922" xlink:href="#DejaVuSans-101"/>
      <use x="560.693359" xlink:href="#DejaVuSans-114"/>
      <use x="600.056641" xlink:href="#DejaVuSans-114"/>
     </g>
    </g>
    <g id="PathCollection_7">
     <defs>
      <path d="M -2.12132 -2.12132 
L -2.12132 2.12132 
L 2.12132 2.12132 
L 2.12132 -2.12132 
z
" id="m55a1fc8e43" style="stroke:#a7226e;"/>
     </defs>
     <g>
      <use style="fill:#a7226e;stroke:#a7226e;" x="330.118059" xlink:href="#m55a1fc8e43" y="37.656841"/>
     </g>
    </g>
    <g id="text_17">
     <!-- mean_sqroot_err -->
     <g transform="translate(342.610059 39.478591)scale(0.0694 -0.0694)">
      <use xlink:href="#DejaVuSans-109"/>
      <use x="97.412109" xlink:href="#DejaVuSans-101"/>
      <use x="158.935547" xlink:href="#DejaVuSans-97"/>
      <use x="220.214844" xlink:href="#DejaVuSans-110"/>
      <use x="283.59375" xlink:href="#DejaVuSans-95"/>
      <use x="333.59375" xlink:href="#DejaVuSans-115"/>
      <use x="385.693359" xlink:href="#DejaVuSans-113"/>
      <use x="449.169922" xlink:href="#DejaVuSans-114"/>
      <use x="488.033203" xlink:href="#DejaVuSans-111"/>
      <use x="549.214844" xlink:href="#DejaVuSans-111"/>
      <use x="610.396484" xlink:href="#DejaVuSans-116"/>
      <use x="649.605469" xlink:href="#DejaVuSans-95"/>
      <use x="699.605469" xlink:href="#DejaVuSans-101"/>
      <use x="761.128906" xlink:href="#DejaVuSans-114"/>
      <use x="800.492188" xlink:href="#DejaVuSans-114"/>
     </g>
    </g>
   </g>
  </g>
 </g>
 <defs>
  <clipPath id="p498fdc1810">
   <rect height="266.112" width="357.12" x="50.14375" y="7.2"/>
  </clipPath>
 </defs>
</svg>
