<?xml version="1.0" encoding="utf-8" standalone="no"?>
<!DOCTYPE svg PUBLIC "-//W3C//DTD SVG 1.1//EN"
  "http://www.w3.org/Graphics/SVG/1.1/DTD/svg11.dtd">
<!-- Created with matplotlib (https://matplotlib.org/) -->
<svg height="310.86825pt" version="1.1" viewBox="0 0 420.82625 310.86825" width="420.82625pt" xmlns="http://www.w3.org/2000/svg" xmlns:xlink="http://www.w3.org/1999/xlink">
 <metadata>
  <rdf:RDF xmlns:cc="http://creativecommons.org/ns#" xmlns:dc="http://purl.org/dc/elements/1.1/" xmlns:rdf="http://www.w3.org/1999/02/22-rdf-syntax-ns#">
   <cc:Work>
    <dc:type rdf:resource="http://purl.org/dc/dcmitype/StillImage"/>
    <dc:date>2022-05-27T22:17:45.440220</dc:date>
    <dc:format>image/svg+xml</dc:format>
    <dc:creator>
     <cc:Agent>
      <dc:title>Matplotlib v3.3.4, https://matplotlib.org/</dc:title>
     </cc:Agent>
    </dc:creator>
   </cc:Work>
  </rdf:RDF>
 </metadata>
 <defs>
  <style type="text/css">*{stroke-linecap:butt;stroke-linejoin:round;}</style>
 </defs>
 <g id="figure_1">
  <g id="patch_1">
   <path d="M 0 310.86825 
L 420.82625 310.86825 
L 420.82625 0 
L 0 0 
z
" style="fill:#ffffff;"/>
  </g>
  <g id="axes_1">
   <g id="patch_2">
    <path d="M 56.50625 273.312 
L 413.62625 273.312 
L 413.62625 7.2 
L 56.50625 7.2 
z
" style="fill:#ffffff;"/>
   </g>
   <g id="PathCollection_1">
    <path clip-path="url(#p4cf8576b4d)" d="M 72.738977 94.561394 
C 73.534587 94.561394 74.297717 94.245295 74.860298 93.682715 
C 75.422878 93.120134 75.738977 92.357004 75.738977 91.561394 
C 75.738977 90.765785 75.422878 90.002655 74.860298 89.440074 
C 74.297717 88.877493 73.534587 88.561394 72.738977 88.561394 
C 71.943368 88.561394 71.180238 88.877493 70.617657 89.440074 
C 70.055076 90.002655 69.738977 90.765785 69.738977 91.561394 
C 69.738977 92.357004 70.055076 93.120134 70.617657 93.682715 
C 71.180238 94.245295 71.943368 94.561394 72.738977 94.561394 
z
" style="fill:#f26b38;stroke:#ffffff;stroke-width:0.48;"/>
    <path clip-path="url(#p4cf8576b4d)" d="M 79.502614 117.58647 
C 80.298223 117.58647 81.061353 117.270371 81.623934 116.70779 
C 82.186515 116.14521 82.502614 115.382079 82.502614 114.58647 
C 82.502614 113.790861 82.186515 113.02773 81.623934 112.46515 
C 81.061353 111.902569 80.298223 111.58647 79.502614 111.58647 
C 78.707004 111.58647 77.943874 111.902569 77.381293 112.46515 
C 76.818713 113.02773 76.502614 113.790861 76.502614 114.58647 
C 76.502614 115.382079 76.818713 116.14521 77.381293 116.70779 
C 77.943874 117.270371 78.707004 117.58647 79.502614 117.58647 
z
" style="fill:#f26b38;stroke:#ffffff;stroke-width:0.48;"/>
    <path clip-path="url(#p4cf8576b4d)" d="M 86.26625 117.58647 
C 87.061859 117.58647 87.82499 117.270371 88.38757 116.70779 
C 88.950151 116.14521 89.26625 115.382079 89.26625 114.58647 
C 89.26625 113.790861 88.950151 113.02773 88.38757 112.46515 
C 87.82499 111.902569 87.061859 111.58647 86.26625 111.58647 
C 85.470641 111.58647 84.70751 111.902569 84.14493 112.46515 
C 83.582349 113.02773 83.26625 113.790861 83.26625 114.58647 
C 83.26625 115.382079 83.582349 116.14521 84.14493 116.70779 
C 84.70751 117.270371 85.470641 117.58647 86.26625 117.58647 
z
" style="fill:#f26b38;stroke:#ffffff;stroke-width:0.48;"/>
    <path clip-path="url(#p4cf8576b4d)" d="M 93.029886 117.58647 
C 93.825496 117.58647 94.588626 117.270371 95.151207 116.70779 
C 95.713787 116.14521 96.029886 115.382079 96.029886 114.58647 
C 96.029886 113.790861 95.713787 113.02773 95.151207 112.46515 
C 94.588626 111.902569 93.825496 111.58647 93.029886 111.58647 
C 92.234277 111.58647 91.471147 111.902569 90.908566 112.46515 
C 90.345985 113.02773 90.029886 113.790861 90.029886 114.58647 
C 90.029886 115.382079 90.345985 116.14521 90.908566 116.70779 
C 91.471147 117.270371 92.234277 117.58647 93.029886 117.58647 
z
" style="fill:#f26b38;stroke:#ffffff;stroke-width:0.48;"/>
    <path clip-path="url(#p4cf8576b4d)" d="M 99.793523 105.902103 
C 100.589132 105.902103 101.352262 105.586004 101.914843 105.023424 
C 102.477424 104.460843 102.793523 103.697713 102.793523 102.902103 
C 102.793523 102.106494 102.477424 101.343364 101.914843 100.780783 
C 101.352262 100.218202 100.589132 99.902103 99.793523 99.902103 
C 98.997913 99.902103 98.234783 100.218202 97.672202 100.780783 
C 97.109622 101.343364 96.793523 102.106494 96.793523 102.902103 
C 96.793523 103.697713 97.109622 104.460843 97.672202 105.023424 
C 98.234783 105.586004 98.997913 105.902103 99.793523 105.902103 
z
" style="fill:#f26b38;stroke:#ffffff;stroke-width:0.48;"/>
    <path clip-path="url(#p4cf8576b4d)" d="M 106.557159 142.050613 
C 107.352768 142.050613 108.115899 141.734514 108.678479 141.171933 
C 109.24106 140.609353 109.557159 139.846222 109.557159 139.050613 
C 109.557159 138.255004 109.24106 137.491873 108.678479 136.929293 
C 108.115899 136.366712 107.352768 136.050613 106.557159 136.050613 
C 105.76155 136.050613 104.998419 136.366712 104.435839 136.929293 
C 103.873258 137.491873 103.557159 138.255004 103.557159 139.050613 
C 103.557159 139.846222 103.873258 140.609353 104.435839 141.171933 
C 104.998419 141.734514 105.76155 142.050613 106.557159 142.050613 
z
" style="fill:#f26b38;stroke:#ffffff;stroke-width:0.48;"/>
    <path clip-path="url(#p4cf8576b4d)" d="M 113.320795 52.348755 
C 114.116405 52.348755 114.879535 52.032656 115.442116 51.470076 
C 116.004697 50.907495 116.320795 50.144365 116.320795 49.348755 
C 116.320795 48.553146 116.004697 47.790016 115.442116 47.227435 
C 114.879535 46.664854 114.116405 46.348755 113.320795 46.348755 
C 112.525186 46.348755 111.762056 46.664854 111.199475 47.227435 
C 110.636894 47.790016 110.320795 48.553146 110.320795 49.348755 
C 110.320795 50.144365 110.636894 50.907495 111.199475 51.470076 
C 111.762056 52.032656 112.525186 52.348755 113.320795 52.348755 
z
" style="fill:#f26b38;stroke:#ffffff;stroke-width:0.48;"/>
    <path clip-path="url(#p4cf8576b4d)" d="M 120.084432 52.348755 
C 120.880041 52.348755 121.643171 52.032656 122.205752 51.470076 
C 122.768333 50.907495 123.084432 50.144365 123.084432 49.348755 
C 123.084432 48.553146 122.768333 47.790016 122.205752 47.227435 
C 121.643171 46.664854 120.880041 46.348755 120.084432 46.348755 
C 119.288823 46.348755 118.525692 46.664854 117.963111 47.227435 
C 117.400531 47.790016 117.084432 48.553146 117.084432 49.348755 
C 117.084432 50.144365 117.400531 50.907495 117.963111 51.470076 
C 118.525692 52.032656 119.288823 52.348755 120.084432 52.348755 
z
" style="fill:#f26b38;stroke:#ffffff;stroke-width:0.48;"/>
    <path clip-path="url(#p4cf8576b4d)" d="M 126.848068 52.348755 
C 127.643677 52.348755 128.406808 52.032656 128.969389 51.470076 
C 129.531969 50.907495 129.848068 50.144365 129.848068 49.348755 
C 129.848068 48.553146 129.531969 47.790016 128.969389 47.227435 
C 128.406808 46.664854 127.643677 46.348755 126.848068 46.348755 
C 126.052459 46.348755 125.289329 46.664854 124.726748 47.227435 
C 124.164167 47.790016 123.848068 48.553146 123.848068 49.348755 
C 123.848068 50.144365 124.164167 50.907495 124.726748 51.470076 
C 125.289329 52.032656 126.052459 52.348755 126.848068 52.348755 
z
" style="fill:#f26b38;stroke:#ffffff;stroke-width:0.48;"/>
    <path clip-path="url(#p4cf8576b4d)" d="M 133.611705 52.348755 
C 134.407314 52.348755 135.170444 52.032656 135.733025 51.470076 
C 136.295606 50.907495 136.611705 50.144365 136.611705 49.348755 
C 136.611705 48.553146 136.295606 47.790016 135.733025 47.227435 
C 135.170444 46.664854 134.407314 46.348755 133.611705 46.348755 
C 132.816095 46.348755 132.052965 46.664854 131.490384 47.227435 
C 130.927803 47.790016 130.611705 48.553146 130.611705 49.348755 
C 130.611705 50.144365 130.927803 50.907495 131.490384 51.470076 
C 132.052965 52.032656 132.816095 52.348755 133.611705 52.348755 
z
" style="fill:#f26b38;stroke:#ffffff;stroke-width:0.48;"/>
    <path clip-path="url(#p4cf8576b4d)" d="M 140.375341 94.561394 
C 141.17095 94.561394 141.934081 94.245295 142.496661 93.682715 
C 143.059242 93.120134 143.375341 92.357004 143.375341 91.561394 
C 143.375341 90.765785 143.059242 90.002655 142.496661 89.440074 
C 141.934081 88.877493 141.17095 88.561394 140.375341 88.561394 
C 139.579732 88.561394 138.816601 88.877493 138.254021 89.440074 
C 137.69144 90.002655 137.375341 90.765785 137.375341 91.561394 
C 137.375341 92.357004 137.69144 93.120134 138.254021 93.682715 
C 138.816601 94.245295 139.579732 94.561394 140.375341 94.561394 
z
" style="fill:#f26b38;stroke:#ffffff;stroke-width:0.48;"/>
    <path clip-path="url(#p4cf8576b4d)" d="M 147.138977 94.561394 
C 147.934587 94.561394 148.697717 94.245295 149.260298 93.682715 
C 149.822878 93.120134 150.138977 92.357004 150.138977 91.561394 
C 150.138977 90.765785 149.822878 90.002655 149.260298 89.440074 
C 148.697717 88.877493 147.934587 88.561394 147.138977 88.561394 
C 146.343368 88.561394 145.580238 88.877493 145.017657 89.440074 
C 144.455076 90.002655 144.138977 90.765785 144.138977 91.561394 
C 144.138977 92.357004 144.455076 93.120134 145.017657 93.682715 
C 145.580238 94.245295 146.343368 94.561394 147.138977 94.561394 
z
" style="fill:#f26b38;stroke:#ffffff;stroke-width:0.48;"/>
    <path clip-path="url(#p4cf8576b4d)" d="M 153.902614 181.754714 
C 154.698223 181.754714 155.461353 181.438615 156.023934 180.876034 
C 156.586515 180.313454 156.902614 179.550323 156.902614 178.754714 
C 156.902614 177.959105 156.586515 177.195974 156.023934 176.633394 
C 155.461353 176.070813 154.698223 175.754714 153.902614 175.754714 
C 153.107004 175.754714 152.343874 176.070813 151.781293 176.633394 
C 151.218713 177.195974 150.902614 177.959105 150.902614 178.754714 
C 150.902614 179.550323 151.218713 180.313454 151.781293 180.876034 
C 152.343874 181.438615 153.107004 181.754714 153.902614 181.754714 
z
" style="fill:#f26b38;stroke:#ffffff;stroke-width:0.48;"/>
    <path clip-path="url(#p4cf8576b4d)" d="M 160.66625 181.754714 
C 161.461859 181.754714 162.22499 181.438615 162.78757 180.876034 
C 163.350151 180.313454 163.66625 179.550323 163.66625 178.754714 
C 163.66625 177.959105 163.350151 177.195974 162.78757 176.633394 
C 162.22499 176.070813 161.461859 175.754714 160.66625 175.754714 
C 159.870641 175.754714 159.10751 176.070813 158.54493 176.633394 
C 157.982349 177.195974 157.66625 177.959105 157.66625 178.754714 
C 157.66625 179.550323 157.982349 180.313454 158.54493 180.876034 
C 159.10751 181.438615 159.870641 181.754714 160.66625 181.754714 
z
" style="fill:#f26b38;stroke:#ffffff;stroke-width:0.48;"/>
    <path clip-path="url(#p4cf8576b4d)" d="M 167.429886 62.456007 
C 168.225496 62.456007 168.988626 62.139908 169.551207 61.577327 
C 170.113787 61.014747 170.429886 60.251616 170.429886 59.456007 
C 170.429886 58.660398 170.113787 57.897267 169.551207 57.334687 
C 168.988626 56.772106 168.225496 56.456007 167.429886 56.456007 
C 166.634277 56.456007 165.871147 56.772106 165.308566 57.334687 
C 164.745985 57.897267 164.429886 58.660398 164.429886 59.456007 
C 164.429886 60.251616 164.745985 61.014747 165.308566 61.577327 
C 165.871147 62.139908 166.634277 62.456007 167.429886 62.456007 
z
" style="fill:#f26b38;stroke:#ffffff;stroke-width:0.48;"/>
    <path clip-path="url(#p4cf8576b4d)" d="M 174.193523 94.561394 
C 174.989132 94.561394 175.752262 94.245295 176.314843 93.682715 
C 176.877424 93.120134 177.193523 92.357004 177.193523 91.561394 
C 177.193523 90.765785 176.877424 90.002655 176.314843 89.440074 
C 175.752262 88.877493 174.989132 88.561394 174.193523 88.561394 
C 173.397913 88.561394 172.634783 88.877493 172.072202 89.440074 
C 171.509622 90.002655 171.193523 90.765785 171.193523 91.561394 
C 171.193523 92.357004 171.509622 93.120134 172.072202 93.682715 
C 172.634783 94.245295 173.397913 94.561394 174.193523 94.561394 
z
" style="fill:#f26b38;stroke:#ffffff;stroke-width:0.48;"/>
    <path clip-path="url(#p4cf8576b4d)" d="M 180.957159 94.561394 
C 181.752768 94.561394 182.515899 94.245295 183.078479 93.682715 
C 183.64106 93.120134 183.957159 92.357004 183.957159 91.561394 
C 183.957159 90.765785 183.64106 90.002655 183.078479 89.440074 
C 182.515899 88.877493 181.752768 88.561394 180.957159 88.561394 
C 180.16155 88.561394 179.398419 88.877493 178.835839 89.440074 
C 178.273258 90.002655 177.957159 90.765785 177.957159 91.561394 
C 177.957159 92.357004 178.273258 93.120134 178.835839 93.682715 
C 179.398419 94.245295 180.16155 94.561394 180.957159 94.561394 
z
" style="fill:#f26b38;stroke:#ffffff;stroke-width:0.48;"/>
    <path clip-path="url(#p4cf8576b4d)" d="M 187.720795 94.561394 
C 188.516405 94.561394 189.279535 94.245295 189.842116 93.682715 
C 190.404697 93.120134 190.720795 92.357004 190.720795 91.561394 
C 190.720795 90.765785 190.404697 90.002655 189.842116 89.440074 
C 189.279535 88.877493 188.516405 88.561394 187.720795 88.561394 
C 186.925186 88.561394 186.162056 88.877493 185.599475 89.440074 
C 185.036894 90.002655 184.720795 90.765785 184.720795 91.561394 
C 184.720795 92.357004 185.036894 93.120134 185.599475 93.682715 
C 186.162056 94.245295 186.925186 94.561394 187.720795 94.561394 
z
" style="fill:#f26b38;stroke:#ffffff;stroke-width:0.48;"/>
    <path clip-path="url(#p4cf8576b4d)" d="M 194.484432 142.050613 
C 195.280041 142.050613 196.043171 141.734514 196.605752 141.171933 
C 197.168333 140.609353 197.484432 139.846222 197.484432 139.050613 
C 197.484432 138.255004 197.168333 137.491873 196.605752 136.929293 
C 196.043171 136.366712 195.280041 136.050613 194.484432 136.050613 
C 193.688823 136.050613 192.925692 136.366712 192.363111 136.929293 
C 191.800531 137.491873 191.484432 138.255004 191.484432 139.050613 
C 191.484432 139.846222 191.800531 140.609353 192.363111 141.171933 
C 192.925692 141.734514 193.688823 142.050613 194.484432 142.050613 
z
" style="fill:#f26b38;stroke:#ffffff;stroke-width:0.48;"/>
    <path clip-path="url(#p4cf8576b4d)" d="M 201.248068 94.561394 
C 202.043677 94.561394 202.806808 94.245295 203.369389 93.682715 
C 203.931969 93.120134 204.248068 92.357004 204.248068 91.561394 
C 204.248068 90.765785 203.931969 90.002655 203.369389 89.440074 
C 202.806808 88.877493 202.043677 88.561394 201.248068 88.561394 
C 200.452459 88.561394 199.689329 88.877493 199.126748 89.440074 
C 198.564167 90.002655 198.248068 90.765785 198.248068 91.561394 
C 198.248068 92.357004 198.564167 93.120134 199.126748 93.682715 
C 199.689329 94.245295 200.452459 94.561394 201.248068 94.561394 
z
" style="fill:#f26b38;stroke:#ffffff;stroke-width:0.48;"/>
    <path clip-path="url(#p4cf8576b4d)" d="M 208.011705 142.050613 
C 208.807314 142.050613 209.570444 141.734514 210.133025 141.171933 
C 210.695606 140.609353 211.011705 139.846222 211.011705 139.050613 
C 211.011705 138.255004 210.695606 137.491873 210.133025 136.929293 
C 209.570444 136.366712 208.807314 136.050613 208.011705 136.050613 
C 207.216095 136.050613 206.452965 136.366712 205.890384 136.929293 
C 205.327803 137.491873 205.011705 138.255004 205.011705 139.050613 
C 205.011705 139.846222 205.327803 140.609353 205.890384 141.171933 
C 206.452965 141.734514 207.216095 142.050613 208.011705 142.050613 
z
" style="fill:#f26b38;stroke:#ffffff;stroke-width:0.48;"/>
    <path clip-path="url(#p4cf8576b4d)" d="M 214.775341 142.050613 
C 215.57095 142.050613 216.334081 141.734514 216.896661 141.171933 
C 217.459242 140.609353 217.775341 139.846222 217.775341 139.050613 
C 217.775341 138.255004 217.459242 137.491873 216.896661 136.929293 
C 216.334081 136.366712 215.57095 136.050613 214.775341 136.050613 
C 213.979732 136.050613 213.216601 136.366712 212.654021 136.929293 
C 212.09144 137.491873 211.775341 138.255004 211.775341 139.050613 
C 211.775341 139.846222 212.09144 140.609353 212.654021 141.171933 
C 213.216601 141.734514 213.979732 142.050613 214.775341 142.050613 
z
" style="fill:#f26b38;stroke:#ffffff;stroke-width:0.48;"/>
    <path clip-path="url(#p4cf8576b4d)" d="M 221.538977 142.050613 
C 222.334587 142.050613 223.097717 141.734514 223.660298 141.171933 
C 224.222878 140.609353 224.538977 139.846222 224.538977 139.050613 
C 224.538977 138.255004 224.222878 137.491873 223.660298 136.929293 
C 223.097717 136.366712 222.334587 136.050613 221.538977 136.050613 
C 220.743368 136.050613 219.980238 136.366712 219.417657 136.929293 
C 218.855076 137.491873 218.538977 138.255004 218.538977 139.050613 
C 218.538977 139.846222 218.855076 140.609353 219.417657 141.171933 
C 219.980238 141.734514 220.743368 142.050613 221.538977 142.050613 
z
" style="fill:#f26b38;stroke:#ffffff;stroke-width:0.48;"/>
    <path clip-path="url(#p4cf8576b4d)" d="M 228.302614 142.050613 
C 229.098223 142.050613 229.861353 141.734514 230.423934 141.171933 
C 230.986515 140.609353 231.302614 139.846222 231.302614 139.050613 
C 231.302614 138.255004 230.986515 137.491873 230.423934 136.929293 
C 229.861353 136.366712 229.098223 136.050613 228.302614 136.050613 
C 227.507004 136.050613 226.743874 136.366712 226.181293 136.929293 
C 225.618713 137.491873 225.302614 138.255004 225.302614 139.050613 
C 225.302614 139.846222 225.618713 140.609353 226.181293 141.171933 
C 226.743874 141.734514 227.507004 142.050613 228.302614 142.050613 
z
" style="fill:#f26b38;stroke:#ffffff;stroke-width:0.48;"/>
    <path clip-path="url(#p4cf8576b4d)" d="M 235.06625 168.093088 
C 235.861859 168.093088 236.62499 167.776989 237.18757 167.214408 
C 237.750151 166.651827 238.06625 165.888697 238.06625 165.093088 
C 238.06625 164.297478 237.750151 163.534348 237.18757 162.971767 
C 236.62499 162.409187 235.861859 162.093088 235.06625 162.093088 
C 234.270641 162.093088 233.50751 162.409187 232.94493 162.971767 
C 232.382349 163.534348 232.06625 164.297478 232.06625 165.093088 
C 232.06625 165.888697 232.382349 166.651827 232.94493 167.214408 
C 233.50751 167.776989 234.270641 168.093088 235.06625 168.093088 
z
" style="fill:#f26b38;stroke:#ffffff;stroke-width:0.48;"/>
    <path clip-path="url(#p4cf8576b4d)" d="M 241.829886 142.050613 
C 242.625496 142.050613 243.388626 141.734514 243.951207 141.171933 
C 244.513787 140.609353 244.829886 139.846222 244.829886 139.050613 
C 244.829886 138.255004 244.513787 137.491873 243.951207 136.929293 
C 243.388626 136.366712 242.625496 136.050613 241.829886 136.050613 
C 241.034277 136.050613 240.271147 136.366712 239.708566 136.929293 
C 239.145985 137.491873 238.829886 138.255004 238.829886 139.050613 
C 238.829886 139.846222 239.145985 140.609353 239.708566 141.171933 
C 240.271147 141.734514 241.034277 142.050613 241.829886 142.050613 
z
" style="fill:#f26b38;stroke:#ffffff;stroke-width:0.48;"/>
    <path clip-path="url(#p4cf8576b4d)" d="M 248.593523 142.050613 
C 249.389132 142.050613 250.152262 141.734514 250.714843 141.171933 
C 251.277424 140.609353 251.593523 139.846222 251.593523 139.050613 
C 251.593523 138.255004 251.277424 137.491873 250.714843 136.929293 
C 250.152262 136.366712 249.389132 136.050613 248.593523 136.050613 
C 247.797913 136.050613 247.034783 136.366712 246.472202 136.929293 
C 245.909622 137.491873 245.593523 138.255004 245.593523 139.050613 
C 245.593523 139.846222 245.909622 140.609353 246.472202 141.171933 
C 247.034783 141.734514 247.797913 142.050613 248.593523 142.050613 
z
" style="fill:#f26b38;stroke:#ffffff;stroke-width:0.48;"/>
    <path clip-path="url(#p4cf8576b4d)" d="M 255.357159 142.050613 
C 256.152768 142.050613 256.915899 141.734514 257.478479 141.171933 
C 258.04106 140.609353 258.357159 139.846222 258.357159 139.050613 
C 258.357159 138.255004 258.04106 137.491873 257.478479 136.929293 
C 256.915899 136.366712 256.152768 136.050613 255.357159 136.050613 
C 254.56155 136.050613 253.798419 136.366712 253.235839 136.929293 
C 252.673258 137.491873 252.357159 138.255004 252.357159 139.050613 
C 252.357159 139.846222 252.673258 140.609353 253.235839 141.171933 
C 253.798419 141.734514 254.56155 142.050613 255.357159 142.050613 
z
" style="fill:#f26b38;stroke:#ffffff;stroke-width:0.48;"/>
    <path clip-path="url(#p4cf8576b4d)" d="M 262.120795 142.050613 
C 262.916405 142.050613 263.679535 141.734514 264.242116 141.171933 
C 264.804697 140.609353 265.120795 139.846222 265.120795 139.050613 
C 265.120795 138.255004 264.804697 137.491873 264.242116 136.929293 
C 263.679535 136.366712 262.916405 136.050613 262.120795 136.050613 
C 261.325186 136.050613 260.562056 136.366712 259.999475 136.929293 
C 259.436894 137.491873 259.120795 138.255004 259.120795 139.050613 
C 259.120795 139.846222 259.436894 140.609353 259.999475 141.171933 
C 260.562056 141.734514 261.325186 142.050613 262.120795 142.050613 
z
" style="fill:#f26b38;stroke:#ffffff;stroke-width:0.48;"/>
    <path clip-path="url(#p4cf8576b4d)" d="M 268.884432 142.050613 
C 269.680041 142.050613 270.443171 141.734514 271.005752 141.171933 
C 271.568333 140.609353 271.884432 139.846222 271.884432 139.050613 
C 271.884432 138.255004 271.568333 137.491873 271.005752 136.929293 
C 270.443171 136.366712 269.680041 136.050613 268.884432 136.050613 
C 268.088823 136.050613 267.325692 136.366712 266.763111 136.929293 
C 266.200531 137.491873 265.884432 138.255004 265.884432 139.050613 
C 265.884432 139.846222 266.200531 140.609353 266.763111 141.171933 
C 267.325692 141.734514 268.088823 142.050613 268.884432 142.050613 
z
" style="fill:#f26b38;stroke:#ffffff;stroke-width:0.48;"/>
    <path clip-path="url(#p4cf8576b4d)" d="M 275.648068 142.050613 
C 276.443677 142.050613 277.206808 141.734514 277.769389 141.171933 
C 278.331969 140.609353 278.648068 139.846222 278.648068 139.050613 
C 278.648068 138.255004 278.331969 137.491873 277.769389 136.929293 
C 277.206808 136.366712 276.443677 136.050613 275.648068 136.050613 
C 274.852459 136.050613 274.089329 136.366712 273.526748 136.929293 
C 272.964167 137.491873 272.648068 138.255004 272.648068 139.050613 
C 272.648068 139.846222 272.964167 140.609353 273.526748 141.171933 
C 274.089329 141.734514 274.852459 142.050613 275.648068 142.050613 
z
" style="fill:#f26b38;stroke:#ffffff;stroke-width:0.48;"/>
    <path clip-path="url(#p4cf8576b4d)" d="M 282.411705 142.050613 
C 283.207314 142.050613 283.970444 141.734514 284.533025 141.171933 
C 285.095606 140.609353 285.411705 139.846222 285.411705 139.050613 
C 285.411705 138.255004 285.095606 137.491873 284.533025 136.929293 
C 283.970444 136.366712 283.207314 136.050613 282.411705 136.050613 
C 281.616095 136.050613 280.852965 136.366712 280.290384 136.929293 
C 279.727803 137.491873 279.411705 138.255004 279.411705 139.050613 
C 279.411705 139.846222 279.727803 140.609353 280.290384 141.171933 
C 280.852965 141.734514 281.616095 142.050613 282.411705 142.050613 
z
" style="fill:#f26b38;stroke:#ffffff;stroke-width:0.48;"/>
    <path clip-path="url(#p4cf8576b4d)" d="M 289.175341 142.050613 
C 289.97095 142.050613 290.734081 141.734514 291.296661 141.171933 
C 291.859242 140.609353 292.175341 139.846222 292.175341 139.050613 
C 292.175341 138.255004 291.859242 137.491873 291.296661 136.929293 
C 290.734081 136.366712 289.97095 136.050613 289.175341 136.050613 
C 288.379732 136.050613 287.616601 136.366712 287.054021 136.929293 
C 286.49144 137.491873 286.175341 138.255004 286.175341 139.050613 
C 286.175341 139.846222 286.49144 140.609353 287.054021 141.171933 
C 287.616601 141.734514 288.379732 142.050613 289.175341 142.050613 
z
" style="fill:#f26b38;stroke:#ffffff;stroke-width:0.48;"/>
    <path clip-path="url(#p4cf8576b4d)" d="M 295.938977 142.050613 
C 296.734587 142.050613 297.497717 141.734514 298.060298 141.171933 
C 298.622878 140.609353 298.938977 139.846222 298.938977 139.050613 
C 298.938977 138.255004 298.622878 137.491873 298.060298 136.929293 
C 297.497717 136.366712 296.734587 136.050613 295.938977 136.050613 
C 295.143368 136.050613 294.380238 136.366712 293.817657 136.929293 
C 293.255076 137.491873 292.938977 138.255004 292.938977 139.050613 
C 292.938977 139.846222 293.255076 140.609353 293.817657 141.171933 
C 294.380238 141.734514 295.143368 142.050613 295.938977 142.050613 
z
" style="fill:#f26b38;stroke:#ffffff;stroke-width:0.48;"/>
    <path clip-path="url(#p4cf8576b4d)" d="M 302.702614 142.050613 
C 303.498223 142.050613 304.261353 141.734514 304.823934 141.171933 
C 305.386515 140.609353 305.702614 139.846222 305.702614 139.050613 
C 305.702614 138.255004 305.386515 137.491873 304.823934 136.929293 
C 304.261353 136.366712 303.498223 136.050613 302.702614 136.050613 
C 301.907004 136.050613 301.143874 136.366712 300.581293 136.929293 
C 300.018713 137.491873 299.702614 138.255004 299.702614 139.050613 
C 299.702614 139.846222 300.018713 140.609353 300.581293 141.171933 
C 301.143874 141.734514 301.907004 142.050613 302.702614 142.050613 
z
" style="fill:#f26b38;stroke:#ffffff;stroke-width:0.48;"/>
    <path clip-path="url(#p4cf8576b4d)" d="M 309.46625 142.050613 
C 310.261859 142.050613 311.02499 141.734514 311.58757 141.171933 
C 312.150151 140.609353 312.46625 139.846222 312.46625 139.050613 
C 312.46625 138.255004 312.150151 137.491873 311.58757 136.929293 
C 311.02499 136.366712 310.261859 136.050613 309.46625 136.050613 
C 308.670641 136.050613 307.90751 136.366712 307.34493 136.929293 
C 306.782349 137.491873 306.46625 138.255004 306.46625 139.050613 
C 306.46625 139.846222 306.782349 140.609353 307.34493 141.171933 
C 307.90751 141.734514 308.670641 142.050613 309.46625 142.050613 
z
" style="fill:#f26b38;stroke:#ffffff;stroke-width:0.48;"/>
    <path clip-path="url(#p4cf8576b4d)" d="M 316.229886 142.050613 
C 317.025496 142.050613 317.788626 141.734514 318.351207 141.171933 
C 318.913787 140.609353 319.229886 139.846222 319.229886 139.050613 
C 319.229886 138.255004 318.913787 137.491873 318.351207 136.929293 
C 317.788626 136.366712 317.025496 136.050613 316.229886 136.050613 
C 315.434277 136.050613 314.671147 136.366712 314.108566 136.929293 
C 313.545985 137.491873 313.229886 138.255004 313.229886 139.050613 
C 313.229886 139.846222 313.545985 140.609353 314.108566 141.171933 
C 314.671147 141.734514 315.434277 142.050613 316.229886 142.050613 
z
" style="fill:#f26b38;stroke:#ffffff;stroke-width:0.48;"/>
    <path clip-path="url(#p4cf8576b4d)" d="M 322.993523 142.050613 
C 323.789132 142.050613 324.552262 141.734514 325.114843 141.171933 
C 325.677424 140.609353 325.993523 139.846222 325.993523 139.050613 
C 325.993523 138.255004 325.677424 137.491873 325.114843 136.929293 
C 324.552262 136.366712 323.789132 136.050613 322.993523 136.050613 
C 322.197913 136.050613 321.434783 136.366712 320.872202 136.929293 
C 320.309622 137.491873 319.993523 138.255004 319.993523 139.050613 
C 319.993523 139.846222 320.309622 140.609353 320.872202 141.171933 
C 321.434783 141.734514 322.197913 142.050613 322.993523 142.050613 
z
" style="fill:#f26b38;stroke:#ffffff;stroke-width:0.48;"/>
    <path clip-path="url(#p4cf8576b4d)" d="M 329.757159 142.050613 
C 330.552768 142.050613 331.315899 141.734514 331.878479 141.171933 
C 332.44106 140.609353 332.757159 139.846222 332.757159 139.050613 
C 332.757159 138.255004 332.44106 137.491873 331.878479 136.929293 
C 331.315899 136.366712 330.552768 136.050613 329.757159 136.050613 
C 328.96155 136.050613 328.198419 136.366712 327.635839 136.929293 
C 327.073258 137.491873 326.757159 138.255004 326.757159 139.050613 
C 326.757159 139.846222 327.073258 140.609353 327.635839 141.171933 
C 328.198419 141.734514 328.96155 142.050613 329.757159 142.050613 
z
" style="fill:#f26b38;stroke:#ffffff;stroke-width:0.48;"/>
    <path clip-path="url(#p4cf8576b4d)" d="M 336.520795 142.050613 
C 337.316405 142.050613 338.079535 141.734514 338.642116 141.171933 
C 339.204697 140.609353 339.520795 139.846222 339.520795 139.050613 
C 339.520795 138.255004 339.204697 137.491873 338.642116 136.929293 
C 338.079535 136.366712 337.316405 136.050613 336.520795 136.050613 
C 335.725186 136.050613 334.962056 136.366712 334.399475 136.929293 
C 333.836894 137.491873 333.520795 138.255004 333.520795 139.050613 
C 333.520795 139.846222 333.836894 140.609353 334.399475 141.171933 
C 334.962056 141.734514 335.725186 142.050613 336.520795 142.050613 
z
" style="fill:#f26b38;stroke:#ffffff;stroke-width:0.48;"/>
    <path clip-path="url(#p4cf8576b4d)" d="M 343.284432 142.050613 
C 344.080041 142.050613 344.843171 141.734514 345.405752 141.171933 
C 345.968333 140.609353 346.284432 139.846222 346.284432 139.050613 
C 346.284432 138.255004 345.968333 137.491873 345.405752 136.929293 
C 344.843171 136.366712 344.080041 136.050613 343.284432 136.050613 
C 342.488823 136.050613 341.725692 136.366712 341.163111 136.929293 
C 340.600531 137.491873 340.284432 138.255004 340.284432 139.050613 
C 340.284432 139.846222 340.600531 140.609353 341.163111 141.171933 
C 341.725692 141.734514 342.488823 142.050613 343.284432 142.050613 
z
" style="fill:#f26b38;stroke:#ffffff;stroke-width:0.48;"/>
    <path clip-path="url(#p4cf8576b4d)" d="M 350.048068 142.050613 
C 350.843677 142.050613 351.606808 141.734514 352.169389 141.171933 
C 352.731969 140.609353 353.048068 139.846222 353.048068 139.050613 
C 353.048068 138.255004 352.731969 137.491873 352.169389 136.929293 
C 351.606808 136.366712 350.843677 136.050613 350.048068 136.050613 
C 349.252459 136.050613 348.489329 136.366712 347.926748 136.929293 
C 347.364167 137.491873 347.048068 138.255004 347.048068 139.050613 
C 347.048068 139.846222 347.364167 140.609353 347.926748 141.171933 
C 348.489329 141.734514 349.252459 142.050613 350.048068 142.050613 
z
" style="fill:#f26b38;stroke:#ffffff;stroke-width:0.48;"/>
    <path clip-path="url(#p4cf8576b4d)" d="M 356.811705 142.050613 
C 357.607314 142.050613 358.370444 141.734514 358.933025 141.171933 
C 359.495606 140.609353 359.811705 139.846222 359.811705 139.050613 
C 359.811705 138.255004 359.495606 137.491873 358.933025 136.929293 
C 358.370444 136.366712 357.607314 136.050613 356.811705 136.050613 
C 356.016095 136.050613 355.252965 136.366712 354.690384 136.929293 
C 354.127803 137.491873 353.811705 138.255004 353.811705 139.050613 
C 353.811705 139.846222 354.127803 140.609353 354.690384 141.171933 
C 355.252965 141.734514 356.016095 142.050613 356.811705 142.050613 
z
" style="fill:#f26b38;stroke:#ffffff;stroke-width:0.48;"/>
    <path clip-path="url(#p4cf8576b4d)" d="M 363.575341 142.050613 
C 364.37095 142.050613 365.134081 141.734514 365.696661 141.171933 
C 366.259242 140.609353 366.575341 139.846222 366.575341 139.050613 
C 366.575341 138.255004 366.259242 137.491873 365.696661 136.929293 
C 365.134081 136.366712 364.37095 136.050613 363.575341 136.050613 
C 362.779732 136.050613 362.016601 136.366712 361.454021 136.929293 
C 360.89144 137.491873 360.575341 138.255004 360.575341 139.050613 
C 360.575341 139.846222 360.89144 140.609353 361.454021 141.171933 
C 362.016601 141.734514 362.779732 142.050613 363.575341 142.050613 
z
" style="fill:#f26b38;stroke:#ffffff;stroke-width:0.48;"/>
    <path clip-path="url(#p4cf8576b4d)" d="M 370.338977 142.050613 
C 371.134587 142.050613 371.897717 141.734514 372.460298 141.171933 
C 373.022878 140.609353 373.338977 139.846222 373.338977 139.050613 
C 373.338977 138.255004 373.022878 137.491873 372.460298 136.929293 
C 371.897717 136.366712 371.134587 136.050613 370.338977 136.050613 
C 369.543368 136.050613 368.780238 136.366712 368.217657 136.929293 
C 367.655076 137.491873 367.338977 138.255004 367.338977 139.050613 
C 367.338977 139.846222 367.655076 140.609353 368.217657 141.171933 
C 368.780238 141.734514 369.543368 142.050613 370.338977 142.050613 
z
" style="fill:#f26b38;stroke:#ffffff;stroke-width:0.48;"/>
    <path clip-path="url(#p4cf8576b4d)" d="M 377.102614 142.050613 
C 377.898223 142.050613 378.661353 141.734514 379.223934 141.171933 
C 379.786515 140.609353 380.102614 139.846222 380.102614 139.050613 
C 380.102614 138.255004 379.786515 137.491873 379.223934 136.929293 
C 378.661353 136.366712 377.898223 136.050613 377.102614 136.050613 
C 376.307004 136.050613 375.543874 136.366712 374.981293 136.929293 
C 374.418713 137.491873 374.102614 138.255004 374.102614 139.050613 
C 374.102614 139.846222 374.418713 140.609353 374.981293 141.171933 
C 375.543874 141.734514 376.307004 142.050613 377.102614 142.050613 
z
" style="fill:#f26b38;stroke:#ffffff;stroke-width:0.48;"/>
    <path clip-path="url(#p4cf8576b4d)" d="M 383.86625 142.050613 
C 384.661859 142.050613 385.42499 141.734514 385.98757 141.171933 
C 386.550151 140.609353 386.86625 139.846222 386.86625 139.050613 
C 386.86625 138.255004 386.550151 137.491873 385.98757 136.929293 
C 385.42499 136.366712 384.661859 136.050613 383.86625 136.050613 
C 383.070641 136.050613 382.30751 136.366712 381.74493 136.929293 
C 381.182349 137.491873 380.86625 138.255004 380.86625 139.050613 
C 380.86625 139.846222 381.182349 140.609353 381.74493 141.171933 
C 382.30751 141.734514 383.070641 142.050613 383.86625 142.050613 
z
" style="fill:#f26b38;stroke:#ffffff;stroke-width:0.48;"/>
    <path clip-path="url(#p4cf8576b4d)" d="M 390.629886 142.050613 
C 391.425496 142.050613 392.188626 141.734514 392.751207 141.171933 
C 393.313787 140.609353 393.629886 139.846222 393.629886 139.050613 
C 393.629886 138.255004 393.313787 137.491873 392.751207 136.929293 
C 392.188626 136.366712 391.425496 136.050613 390.629886 136.050613 
C 389.834277 136.050613 389.071147 136.366712 388.508566 136.929293 
C 387.945985 137.491873 387.629886 138.255004 387.629886 139.050613 
C 387.629886 139.846222 387.945985 140.609353 388.508566 141.171933 
C 389.071147 141.734514 389.834277 142.050613 390.629886 142.050613 
z
" style="fill:#f26b38;stroke:#ffffff;stroke-width:0.48;"/>
    <path clip-path="url(#p4cf8576b4d)" d="M 397.393523 142.050613 
C 398.189132 142.050613 398.952262 141.734514 399.514843 141.171933 
C 400.077424 140.609353 400.393523 139.846222 400.393523 139.050613 
C 400.393523 138.255004 400.077424 137.491873 399.514843 136.929293 
C 398.952262 136.366712 398.189132 136.050613 397.393523 136.050613 
C 396.597913 136.050613 395.834783 136.366712 395.272202 136.929293 
C 394.709622 137.491873 394.393523 138.255004 394.393523 139.050613 
C 394.393523 139.846222 394.709622 140.609353 395.272202 141.171933 
C 395.834783 141.734514 396.597913 142.050613 397.393523 142.050613 
z
" style="fill:#f26b38;stroke:#ffffff;stroke-width:0.48;"/>
    <path clip-path="url(#p4cf8576b4d)" d="M 71.238977 142.050613 
L 72.738977 140.550613 
L 74.238977 142.050613 
L 75.738977 140.550613 
L 74.238977 139.050613 
L 75.738977 137.550613 
L 74.238977 136.050613 
L 72.738977 137.550613 
L 71.238977 136.050613 
L 69.738977 137.550613 
L 71.238977 139.050613 
L 69.738977 140.550613 
z
" style="fill:#2f9599;stroke:#ffffff;stroke-width:0.48;"/>
    <path clip-path="url(#p4cf8576b4d)" d="M 78.002614 117.58647 
L 79.502614 116.08647 
L 81.002614 117.58647 
L 82.502614 116.08647 
L 81.002614 114.58647 
L 82.502614 113.08647 
L 81.002614 111.58647 
L 79.502614 113.08647 
L 78.002614 111.58647 
L 76.502614 113.08647 
L 78.002614 114.58647 
L 76.502614 116.08647 
z
" style="fill:#2f9599;stroke:#ffffff;stroke-width:0.48;"/>
    <path clip-path="url(#p4cf8576b4d)" d="M 84.76625 117.58647 
L 86.26625 116.08647 
L 87.76625 117.58647 
L 89.26625 116.08647 
L 87.76625 114.58647 
L 89.26625 113.08647 
L 87.76625 111.58647 
L 86.26625 113.08647 
L 84.76625 111.58647 
L 83.26625 113.08647 
L 84.76625 114.58647 
L 83.26625 116.08647 
z
" style="fill:#2f9599;stroke:#ffffff;stroke-width:0.48;"/>
    <path clip-path="url(#p4cf8576b4d)" d="M 91.529886 117.58647 
L 93.029886 116.08647 
L 94.529886 117.58647 
L 96.029886 116.08647 
L 94.529886 114.58647 
L 96.029886 113.08647 
L 94.529886 111.58647 
L 93.029886 113.08647 
L 91.529886 111.58647 
L 90.029886 113.08647 
L 91.529886 114.58647 
L 90.029886 116.08647 
z
" style="fill:#2f9599;stroke:#ffffff;stroke-width:0.48;"/>
    <path clip-path="url(#p4cf8576b4d)" d="M 98.293523 117.58647 
L 99.793523 116.08647 
L 101.293523 117.58647 
L 102.793523 116.08647 
L 101.293523 114.58647 
L 102.793523 113.08647 
L 101.293523 111.58647 
L 99.793523 113.08647 
L 98.293523 111.58647 
L 96.793523 113.08647 
L 98.293523 114.58647 
L 96.793523 116.08647 
z
" style="fill:#2f9599;stroke:#ffffff;stroke-width:0.48;"/>
    <path clip-path="url(#p4cf8576b4d)" d="M 105.057159 154.865164 
L 106.557159 153.365164 
L 108.057159 154.865164 
L 109.557159 153.365164 
L 108.057159 151.865164 
L 109.557159 150.365164 
L 108.057159 148.865164 
L 106.557159 150.365164 
L 105.057159 148.865164 
L 103.557159 150.365164 
L 105.057159 151.865164 
L 103.557159 153.365164 
z
" style="fill:#2f9599;stroke:#ffffff;stroke-width:0.48;"/>
    <path clip-path="url(#p4cf8576b4d)" d="M 111.820795 154.865164 
L 113.320795 153.365164 
L 114.820795 154.865164 
L 116.320795 153.365164 
L 114.820795 151.865164 
L 116.320795 150.365164 
L 114.820795 148.865164 
L 113.320795 150.365164 
L 111.820795 148.865164 
L 110.320795 150.365164 
L 111.820795 151.865164 
L 110.320795 153.365164 
z
" style="fill:#2f9599;stroke:#ffffff;stroke-width:0.48;"/>
    <path clip-path="url(#p4cf8576b4d)" d="M 118.584432 154.865164 
L 120.084432 153.365164 
L 121.584432 154.865164 
L 123.084432 153.365164 
L 121.584432 151.865164 
L 123.084432 150.365164 
L 121.584432 148.865164 
L 120.084432 150.365164 
L 118.584432 148.865164 
L 117.084432 150.365164 
L 118.584432 151.865164 
L 117.084432 153.365164 
z
" style="fill:#2f9599;stroke:#ffffff;stroke-width:0.48;"/>
    <path clip-path="url(#p4cf8576b4d)" d="M 125.348068 154.865164 
L 126.848068 153.365164 
L 128.348068 154.865164 
L 129.848068 153.365164 
L 128.348068 151.865164 
L 129.848068 150.365164 
L 128.348068 148.865164 
L 126.848068 150.365164 
L 125.348068 148.865164 
L 123.848068 150.365164 
L 125.348068 151.865164 
L 123.848068 153.365164 
z
" style="fill:#2f9599;stroke:#ffffff;stroke-width:0.48;"/>
    <path clip-path="url(#p4cf8576b4d)" d="M 132.111705 117.58647 
L 133.611705 116.08647 
L 135.111705 117.58647 
L 136.611705 116.08647 
L 135.111705 114.58647 
L 136.611705 113.08647 
L 135.111705 111.58647 
L 133.611705 113.08647 
L 132.111705 111.58647 
L 130.611705 113.08647 
L 132.111705 114.58647 
L 130.611705 116.08647 
z
" style="fill:#2f9599;stroke:#ffffff;stroke-width:0.48;"/>
    <path clip-path="url(#p4cf8576b4d)" d="M 138.875341 105.902103 
L 140.375341 104.402103 
L 141.875341 105.902103 
L 143.375341 104.402103 
L 141.875341 102.902103 
L 143.375341 101.402103 
L 141.875341 99.902103 
L 140.375341 101.402103 
L 138.875341 99.902103 
L 137.375341 101.402103 
L 138.875341 102.902103 
L 137.375341 104.402103 
z
" style="fill:#2f9599;stroke:#ffffff;stroke-width:0.48;"/>
    <path clip-path="url(#p4cf8576b4d)" d="M 145.638977 195.871728 
L 147.138977 194.371728 
L 148.638977 195.871728 
L 150.138977 194.371728 
L 148.638977 192.871728 
L 150.138977 191.371728 
L 148.638977 189.871728 
L 147.138977 191.371728 
L 145.638977 189.871728 
L 144.138977 191.371728 
L 145.638977 192.871728 
L 144.138977 194.371728 
z
" style="fill:#2f9599;stroke:#ffffff;stroke-width:0.48;"/>
    <path clip-path="url(#p4cf8576b4d)" d="M 152.402614 195.871728 
L 153.902614 194.371728 
L 155.402614 195.871728 
L 156.902614 194.371728 
L 155.402614 192.871728 
L 156.902614 191.371728 
L 155.402614 189.871728 
L 153.902614 191.371728 
L 152.402614 189.871728 
L 150.902614 191.371728 
L 152.402614 192.871728 
L 150.902614 194.371728 
z
" style="fill:#2f9599;stroke:#ffffff;stroke-width:0.48;"/>
    <path clip-path="url(#p4cf8576b4d)" d="M 159.16625 195.871728 
L 160.66625 194.371728 
L 162.16625 195.871728 
L 163.66625 194.371728 
L 162.16625 192.871728 
L 163.66625 191.371728 
L 162.16625 189.871728 
L 160.66625 191.371728 
L 159.16625 189.871728 
L 157.66625 191.371728 
L 159.16625 192.871728 
L 157.66625 194.371728 
z
" style="fill:#2f9599;stroke:#ffffff;stroke-width:0.48;"/>
    <path clip-path="url(#p4cf8576b4d)" d="M 165.929886 195.871728 
L 167.429886 194.371728 
L 168.929886 195.871728 
L 170.429886 194.371728 
L 168.929886 192.871728 
L 170.429886 191.371728 
L 168.929886 189.871728 
L 167.429886 191.371728 
L 165.929886 189.871728 
L 164.429886 191.371728 
L 165.929886 192.871728 
L 164.429886 194.371728 
z
" style="fill:#2f9599;stroke:#ffffff;stroke-width:0.48;"/>
    <path clip-path="url(#p4cf8576b4d)" d="M 172.693523 181.754714 
L 174.193523 180.254714 
L 175.693523 181.754714 
L 177.193523 180.254714 
L 175.693523 178.754714 
L 177.193523 177.254714 
L 175.693523 175.754714 
L 174.193523 177.254714 
L 172.693523 175.754714 
L 171.193523 177.254714 
L 172.693523 178.754714 
L 171.193523 180.254714 
z
" style="fill:#2f9599;stroke:#ffffff;stroke-width:0.48;"/>
    <path clip-path="url(#p4cf8576b4d)" d="M 179.457159 168.093088 
L 180.957159 166.593088 
L 182.457159 168.093088 
L 183.957159 166.593088 
L 182.457159 165.093088 
L 183.957159 163.593088 
L 182.457159 162.093088 
L 180.957159 163.593088 
L 179.457159 162.093088 
L 177.957159 163.593088 
L 179.457159 165.093088 
L 177.957159 166.593088 
z
" style="fill:#2f9599;stroke:#ffffff;stroke-width:0.48;"/>
    <path clip-path="url(#p4cf8576b4d)" d="M 186.220795 168.093088 
L 187.720795 166.593088 
L 189.220795 168.093088 
L 190.720795 166.593088 
L 189.220795 165.093088 
L 190.720795 163.593088 
L 189.220795 162.093088 
L 187.720795 163.593088 
L 186.220795 162.093088 
L 184.720795 163.593088 
L 186.220795 165.093088 
L 184.720795 166.593088 
z
" style="fill:#2f9599;stroke:#ffffff;stroke-width:0.48;"/>
    <path clip-path="url(#p4cf8576b4d)" d="M 192.984432 168.093088 
L 194.484432 166.593088 
L 195.984432 168.093088 
L 197.484432 166.593088 
L 195.984432 165.093088 
L 197.484432 163.593088 
L 195.984432 162.093088 
L 194.484432 163.593088 
L 192.984432 162.093088 
L 191.484432 163.593088 
L 192.984432 165.093088 
L 191.484432 166.593088 
z
" style="fill:#2f9599;stroke:#ffffff;stroke-width:0.48;"/>
    <path clip-path="url(#p4cf8576b4d)" d="M 199.748068 168.093088 
L 201.248068 166.593088 
L 202.748068 168.093088 
L 204.248068 166.593088 
L 202.748068 165.093088 
L 204.248068 163.593088 
L 202.748068 162.093088 
L 201.248068 163.593088 
L 199.748068 162.093088 
L 198.248068 163.593088 
L 199.748068 165.093088 
L 198.248068 166.593088 
z
" style="fill:#2f9599;stroke:#ffffff;stroke-width:0.48;"/>
    <path clip-path="url(#p4cf8576b4d)" d="M 206.511705 168.093088 
L 208.011705 166.593088 
L 209.511705 168.093088 
L 211.011705 166.593088 
L 209.511705 165.093088 
L 211.011705 163.593088 
L 209.511705 162.093088 
L 208.011705 163.593088 
L 206.511705 162.093088 
L 205.011705 163.593088 
L 206.511705 165.093088 
L 205.011705 166.593088 
z
" style="fill:#2f9599;stroke:#ffffff;stroke-width:0.48;"/>
    <path clip-path="url(#p4cf8576b4d)" d="M 213.275341 168.093088 
L 214.775341 166.593088 
L 216.275341 168.093088 
L 217.775341 166.593088 
L 216.275341 165.093088 
L 217.775341 163.593088 
L 216.275341 162.093088 
L 214.775341 163.593088 
L 213.275341 162.093088 
L 211.775341 163.593088 
L 213.275341 165.093088 
L 211.775341 166.593088 
z
" style="fill:#2f9599;stroke:#ffffff;stroke-width:0.48;"/>
    <path clip-path="url(#p4cf8576b4d)" d="M 220.038977 168.093088 
L 221.538977 166.593088 
L 223.038977 168.093088 
L 224.538977 166.593088 
L 223.038977 165.093088 
L 224.538977 163.593088 
L 223.038977 162.093088 
L 221.538977 163.593088 
L 220.038977 162.093088 
L 218.538977 163.593088 
L 220.038977 165.093088 
L 218.538977 166.593088 
z
" style="fill:#2f9599;stroke:#ffffff;stroke-width:0.48;"/>
    <path clip-path="url(#p4cf8576b4d)" d="M 226.802614 168.093088 
L 228.302614 166.593088 
L 229.802614 168.093088 
L 231.302614 166.593088 
L 229.802614 165.093088 
L 231.302614 163.593088 
L 229.802614 162.093088 
L 228.302614 163.593088 
L 226.802614 162.093088 
L 225.302614 163.593088 
L 226.802614 165.093088 
L 225.302614 166.593088 
z
" style="fill:#2f9599;stroke:#ffffff;stroke-width:0.48;"/>
    <path clip-path="url(#p4cf8576b4d)" d="M 233.56625 168.093088 
L 235.06625 166.593088 
L 236.56625 168.093088 
L 238.06625 166.593088 
L 236.56625 165.093088 
L 238.06625 163.593088 
L 236.56625 162.093088 
L 235.06625 163.593088 
L 233.56625 162.093088 
L 232.06625 163.593088 
L 233.56625 165.093088 
L 232.06625 166.593088 
z
" style="fill:#2f9599;stroke:#ffffff;stroke-width:0.48;"/>
    <path clip-path="url(#p4cf8576b4d)" d="M 240.329886 168.093088 
L 241.829886 166.593088 
L 243.329886 168.093088 
L 244.829886 166.593088 
L 243.329886 165.093088 
L 244.829886 163.593088 
L 243.329886 162.093088 
L 241.829886 163.593088 
L 240.329886 162.093088 
L 238.829886 163.593088 
L 240.329886 165.093088 
L 238.829886 166.593088 
z
" style="fill:#2f9599;stroke:#ffffff;stroke-width:0.48;"/>
    <path clip-path="url(#p4cf8576b4d)" d="M 247.093523 168.093088 
L 248.593523 166.593088 
L 250.093523 168.093088 
L 251.593523 166.593088 
L 250.093523 165.093088 
L 251.593523 163.593088 
L 250.093523 162.093088 
L 248.593523 163.593088 
L 247.093523 162.093088 
L 245.593523 163.593088 
L 247.093523 165.093088 
L 245.593523 166.593088 
z
" style="fill:#2f9599;stroke:#ffffff;stroke-width:0.48;"/>
    <path clip-path="url(#p4cf8576b4d)" d="M 253.857159 168.093088 
L 255.357159 166.593088 
L 256.857159 168.093088 
L 258.357159 166.593088 
L 256.857159 165.093088 
L 258.357159 163.593088 
L 256.857159 162.093088 
L 255.357159 163.593088 
L 253.857159 162.093088 
L 252.357159 163.593088 
L 253.857159 165.093088 
L 252.357159 166.593088 
z
" style="fill:#2f9599;stroke:#ffffff;stroke-width:0.48;"/>
    <path clip-path="url(#p4cf8576b4d)" d="M 260.620795 168.093088 
L 262.120795 166.593088 
L 263.620795 168.093088 
L 265.120795 166.593088 
L 263.620795 165.093088 
L 265.120795 163.593088 
L 263.620795 162.093088 
L 262.120795 163.593088 
L 260.620795 162.093088 
L 259.120795 163.593088 
L 260.620795 165.093088 
L 259.120795 166.593088 
z
" style="fill:#2f9599;stroke:#ffffff;stroke-width:0.48;"/>
    <path clip-path="url(#p4cf8576b4d)" d="M 267.384432 168.093088 
L 268.884432 166.593088 
L 270.384432 168.093088 
L 271.884432 166.593088 
L 270.384432 165.093088 
L 271.884432 163.593088 
L 270.384432 162.093088 
L 268.884432 163.593088 
L 267.384432 162.093088 
L 265.884432 163.593088 
L 267.384432 165.093088 
L 265.884432 166.593088 
z
" style="fill:#2f9599;stroke:#ffffff;stroke-width:0.48;"/>
    <path clip-path="url(#p4cf8576b4d)" d="M 274.148068 168.093088 
L 275.648068 166.593088 
L 277.148068 168.093088 
L 278.648068 166.593088 
L 277.148068 165.093088 
L 278.648068 163.593088 
L 277.148068 162.093088 
L 275.648068 163.593088 
L 274.148068 162.093088 
L 272.648068 163.593088 
L 274.148068 165.093088 
L 272.648068 166.593088 
z
" style="fill:#2f9599;stroke:#ffffff;stroke-width:0.48;"/>
    <path clip-path="url(#p4cf8576b4d)" d="M 280.911705 168.093088 
L 282.411705 166.593088 
L 283.911705 168.093088 
L 285.411705 166.593088 
L 283.911705 165.093088 
L 285.411705 163.593088 
L 283.911705 162.093088 
L 282.411705 163.593088 
L 280.911705 162.093088 
L 279.411705 163.593088 
L 280.911705 165.093088 
L 279.411705 166.593088 
z
" style="fill:#2f9599;stroke:#ffffff;stroke-width:0.48;"/>
    <path clip-path="url(#p4cf8576b4d)" d="M 287.675341 168.093088 
L 289.175341 166.593088 
L 290.675341 168.093088 
L 292.175341 166.593088 
L 290.675341 165.093088 
L 292.175341 163.593088 
L 290.675341 162.093088 
L 289.175341 163.593088 
L 287.675341 162.093088 
L 286.175341 163.593088 
L 287.675341 165.093088 
L 286.175341 166.593088 
z
" style="fill:#2f9599;stroke:#ffffff;stroke-width:0.48;"/>
    <path clip-path="url(#p4cf8576b4d)" d="M 294.438977 168.093088 
L 295.938977 166.593088 
L 297.438977 168.093088 
L 298.938977 166.593088 
L 297.438977 165.093088 
L 298.938977 163.593088 
L 297.438977 162.093088 
L 295.938977 163.593088 
L 294.438977 162.093088 
L 292.938977 163.593088 
L 294.438977 165.093088 
L 292.938977 166.593088 
z
" style="fill:#2f9599;stroke:#ffffff;stroke-width:0.48;"/>
    <path clip-path="url(#p4cf8576b4d)" d="M 301.202614 168.093088 
L 302.702614 166.593088 
L 304.202614 168.093088 
L 305.702614 166.593088 
L 304.202614 165.093088 
L 305.702614 163.593088 
L 304.202614 162.093088 
L 302.702614 163.593088 
L 301.202614 162.093088 
L 299.702614 163.593088 
L 301.202614 165.093088 
L 299.702614 166.593088 
z
" style="fill:#2f9599;stroke:#ffffff;stroke-width:0.48;"/>
    <path clip-path="url(#p4cf8576b4d)" d="M 307.96625 168.093088 
L 309.46625 166.593088 
L 310.96625 168.093088 
L 312.46625 166.593088 
L 310.96625 165.093088 
L 312.46625 163.593088 
L 310.96625 162.093088 
L 309.46625 163.593088 
L 307.96625 162.093088 
L 306.46625 163.593088 
L 307.96625 165.093088 
L 306.46625 166.593088 
z
" style="fill:#2f9599;stroke:#ffffff;stroke-width:0.48;"/>
    <path clip-path="url(#p4cf8576b4d)" d="M 314.729886 168.093088 
L 316.229886 166.593088 
L 317.729886 168.093088 
L 319.229886 166.593088 
L 317.729886 165.093088 
L 319.229886 163.593088 
L 317.729886 162.093088 
L 316.229886 163.593088 
L 314.729886 162.093088 
L 313.229886 163.593088 
L 314.729886 165.093088 
L 313.229886 166.593088 
z
" style="fill:#2f9599;stroke:#ffffff;stroke-width:0.48;"/>
    <path clip-path="url(#p4cf8576b4d)" d="M 321.493523 168.093088 
L 322.993523 166.593088 
L 324.493523 168.093088 
L 325.993523 166.593088 
L 324.493523 165.093088 
L 325.993523 163.593088 
L 324.493523 162.093088 
L 322.993523 163.593088 
L 321.493523 162.093088 
L 319.993523 163.593088 
L 321.493523 165.093088 
L 319.993523 166.593088 
z
" style="fill:#2f9599;stroke:#ffffff;stroke-width:0.48;"/>
    <path clip-path="url(#p4cf8576b4d)" d="M 328.257159 168.093088 
L 329.757159 166.593088 
L 331.257159 168.093088 
L 332.757159 166.593088 
L 331.257159 165.093088 
L 332.757159 163.593088 
L 331.257159 162.093088 
L 329.757159 163.593088 
L 328.257159 162.093088 
L 326.757159 163.593088 
L 328.257159 165.093088 
L 326.757159 166.593088 
z
" style="fill:#2f9599;stroke:#ffffff;stroke-width:0.48;"/>
    <path clip-path="url(#p4cf8576b4d)" d="M 335.020795 168.093088 
L 336.520795 166.593088 
L 338.020795 168.093088 
L 339.520795 166.593088 
L 338.020795 165.093088 
L 339.520795 163.593088 
L 338.020795 162.093088 
L 336.520795 163.593088 
L 335.020795 162.093088 
L 333.520795 163.593088 
L 335.020795 165.093088 
L 333.520795 166.593088 
z
" style="fill:#2f9599;stroke:#ffffff;stroke-width:0.48;"/>
    <path clip-path="url(#p4cf8576b4d)" d="M 341.784432 168.093088 
L 343.284432 166.593088 
L 344.784432 168.093088 
L 346.284432 166.593088 
L 344.784432 165.093088 
L 346.284432 163.593088 
L 344.784432 162.093088 
L 343.284432 163.593088 
L 341.784432 162.093088 
L 340.284432 163.593088 
L 341.784432 165.093088 
L 340.284432 166.593088 
z
" style="fill:#2f9599;stroke:#ffffff;stroke-width:0.48;"/>
    <path clip-path="url(#p4cf8576b4d)" d="M 348.548068 168.093088 
L 350.048068 166.593088 
L 351.548068 168.093088 
L 353.048068 166.593088 
L 351.548068 165.093088 
L 353.048068 163.593088 
L 351.548068 162.093088 
L 350.048068 163.593088 
L 348.548068 162.093088 
L 347.048068 163.593088 
L 348.548068 165.093088 
L 347.048068 166.593088 
z
" style="fill:#2f9599;stroke:#ffffff;stroke-width:0.48;"/>
    <path clip-path="url(#p4cf8576b4d)" d="M 355.311705 168.093088 
L 356.811705 166.593088 
L 358.311705 168.093088 
L 359.811705 166.593088 
L 358.311705 165.093088 
L 359.811705 163.593088 
L 358.311705 162.093088 
L 356.811705 163.593088 
L 355.311705 162.093088 
L 353.811705 163.593088 
L 355.311705 165.093088 
L 353.811705 166.593088 
z
" style="fill:#2f9599;stroke:#ffffff;stroke-width:0.48;"/>
    <path clip-path="url(#p4cf8576b4d)" d="M 362.075341 168.093088 
L 363.575341 166.593088 
L 365.075341 168.093088 
L 366.575341 166.593088 
L 365.075341 165.093088 
L 366.575341 163.593088 
L 365.075341 162.093088 
L 363.575341 163.593088 
L 362.075341 162.093088 
L 360.575341 163.593088 
L 362.075341 165.093088 
L 360.575341 166.593088 
z
" style="fill:#2f9599;stroke:#ffffff;stroke-width:0.48;"/>
    <path clip-path="url(#p4cf8576b4d)" d="M 368.838977 168.093088 
L 370.338977 166.593088 
L 371.838977 168.093088 
L 373.338977 166.593088 
L 371.838977 165.093088 
L 373.338977 163.593088 
L 371.838977 162.093088 
L 370.338977 163.593088 
L 368.838977 162.093088 
L 367.338977 163.593088 
L 368.838977 165.093088 
L 367.338977 166.593088 
z
" style="fill:#2f9599;stroke:#ffffff;stroke-width:0.48;"/>
    <path clip-path="url(#p4cf8576b4d)" d="M 375.602614 168.093088 
L 377.102614 166.593088 
L 378.602614 168.093088 
L 380.102614 166.593088 
L 378.602614 165.093088 
L 380.102614 163.593088 
L 378.602614 162.093088 
L 377.102614 163.593088 
L 375.602614 162.093088 
L 374.102614 163.593088 
L 375.602614 165.093088 
L 374.102614 166.593088 
z
" style="fill:#2f9599;stroke:#ffffff;stroke-width:0.48;"/>
    <path clip-path="url(#p4cf8576b4d)" d="M 382.36625 168.093088 
L 383.86625 166.593088 
L 385.36625 168.093088 
L 386.86625 166.593088 
L 385.36625 165.093088 
L 386.86625 163.593088 
L 385.36625 162.093088 
L 383.86625 163.593088 
L 382.36625 162.093088 
L 380.86625 163.593088 
L 382.36625 165.093088 
L 380.86625 166.593088 
z
" style="fill:#2f9599;stroke:#ffffff;stroke-width:0.48;"/>
    <path clip-path="url(#p4cf8576b4d)" d="M 389.129886 168.093088 
L 390.629886 166.593088 
L 392.129886 168.093088 
L 393.629886 166.593088 
L 392.129886 165.093088 
L 393.629886 163.593088 
L 392.129886 162.093088 
L 390.629886 163.593088 
L 389.129886 162.093088 
L 387.629886 163.593088 
L 389.129886 165.093088 
L 387.629886 166.593088 
z
" style="fill:#2f9599;stroke:#ffffff;stroke-width:0.48;"/>
    <path clip-path="url(#p4cf8576b4d)" d="M 395.893523 168.093088 
L 397.393523 166.593088 
L 398.893523 168.093088 
L 400.393523 166.593088 
L 398.893523 165.093088 
L 400.393523 163.593088 
L 398.893523 162.093088 
L 397.393523 163.593088 
L 395.893523 162.093088 
L 394.393523 163.593088 
L 395.893523 165.093088 
L 394.393523 166.593088 
z
" style="fill:#2f9599;stroke:#ffffff;stroke-width:0.48;"/>
    <path clip-path="url(#p4cf8576b4d)" d="M 70.617657 113.863101 
L 70.617657 118.105741 
L 74.860298 118.105741 
L 74.860298 113.863101 
z
" style="fill:#a7226e;stroke:#ffffff;stroke-width:0.48;"/>
    <path clip-path="url(#p4cf8576b4d)" d="M 77.381293 113.863101 
L 77.381293 118.105741 
L 81.623934 118.105741 
L 81.623934 113.863101 
z
" style="fill:#a7226e;stroke:#ffffff;stroke-width:0.48;"/>
    <path clip-path="url(#p4cf8576b4d)" d="M 84.14493 113.863101 
L 84.14493 118.105741 
L 88.38757 118.105741 
L 88.38757 113.863101 
z
" style="fill:#a7226e;stroke:#ffffff;stroke-width:0.48;"/>
    <path clip-path="url(#p4cf8576b4d)" d="M 90.908566 113.863101 
L 90.908566 118.105741 
L 95.151207 118.105741 
L 95.151207 113.863101 
z
" style="fill:#a7226e;stroke:#ffffff;stroke-width:0.48;"/>
    <path clip-path="url(#p4cf8576b4d)" d="M 97.672202 113.863101 
L 97.672202 118.105741 
L 101.914843 118.105741 
L 101.914843 113.863101 
z
" style="fill:#a7226e;stroke:#ffffff;stroke-width:0.48;"/>
    <path clip-path="url(#p4cf8576b4d)" d="M 104.435839 126.311522 
L 104.435839 130.554162 
L 108.678479 130.554162 
L 108.678479 126.311522 
z
" style="fill:#a7226e;stroke:#ffffff;stroke-width:0.48;"/>
    <path clip-path="url(#p4cf8576b4d)" d="M 111.199475 126.311522 
L 111.199475 130.554162 
L 115.442116 130.554162 
L 115.442116 126.311522 
z
" style="fill:#a7226e;stroke:#ffffff;stroke-width:0.48;"/>
    <path clip-path="url(#p4cf8576b4d)" d="M 117.963111 126.311522 
L 117.963111 130.554162 
L 122.205752 130.554162 
L 122.205752 126.311522 
z
" style="fill:#a7226e;stroke:#ffffff;stroke-width:0.48;"/>
    <path clip-path="url(#p4cf8576b4d)" d="M 124.726748 139.161505 
L 124.726748 143.404145 
L 128.969389 143.404145 
L 128.969389 139.161505 
z
" style="fill:#a7226e;stroke:#ffffff;stroke-width:0.48;"/>
    <path clip-path="url(#p4cf8576b4d)" d="M 131.490384 113.863101 
L 131.490384 118.105741 
L 135.733025 118.105741 
L 135.733025 113.863101 
z
" style="fill:#a7226e;stroke:#ffffff;stroke-width:0.48;"/>
    <path clip-path="url(#p4cf8576b4d)" d="M 138.254021 113.863101 
L 138.254021 118.105741 
L 142.496661 118.105741 
L 142.496661 113.863101 
z
" style="fill:#a7226e;stroke:#ffffff;stroke-width:0.48;"/>
    <path clip-path="url(#p4cf8576b4d)" d="M 145.017657 126.311522 
L 145.017657 130.554162 
L 149.260298 130.554162 
L 149.260298 126.311522 
z
" style="fill:#a7226e;stroke:#ffffff;stroke-width:0.48;"/>
    <path clip-path="url(#p4cf8576b4d)" d="M 151.781293 126.311522 
L 151.781293 130.554162 
L 156.023934 130.554162 
L 156.023934 126.311522 
z
" style="fill:#a7226e;stroke:#ffffff;stroke-width:0.48;"/>
    <path clip-path="url(#p4cf8576b4d)" d="M 158.54493 126.311522 
L 158.54493 130.554162 
L 162.78757 130.554162 
L 162.78757 126.311522 
z
" style="fill:#a7226e;stroke:#ffffff;stroke-width:0.48;"/>
    <path clip-path="url(#p4cf8576b4d)" d="M 165.308566 101.797708 
L 165.308566 106.040349 
L 169.551207 106.040349 
L 169.551207 101.797708 
z
" style="fill:#a7226e;stroke:#ffffff;stroke-width:0.48;"/>
    <path clip-path="url(#p4cf8576b4d)" d="M 172.072202 126.311522 
L 172.072202 130.554162 
L 176.314843 130.554162 
L 176.314843 126.311522 
z
" style="fill:#a7226e;stroke:#ffffff;stroke-width:0.48;"/>
    <path clip-path="url(#p4cf8576b4d)" d="M 178.835839 126.311522 
L 178.835839 130.554162 
L 183.078479 130.554162 
L 183.078479 126.311522 
z
" style="fill:#a7226e;stroke:#ffffff;stroke-width:0.48;"/>
    <path clip-path="url(#p4cf8576b4d)" d="M 185.599475 113.863101 
L 185.599475 118.105741 
L 189.842116 118.105741 
L 189.842116 113.863101 
z
" style="fill:#a7226e;stroke:#ffffff;stroke-width:0.48;"/>
    <path clip-path="url(#p4cf8576b4d)" d="M 192.363111 36.542626 
L 192.363111 40.785267 
L 196.605752 40.785267 
L 196.605752 36.542626 
z
" style="fill:#a7226e;stroke:#ffffff;stroke-width:0.48;"/>
    <path clip-path="url(#p4cf8576b4d)" d="M 199.126748 26.724153 
L 199.126748 30.966794 
L 203.369389 30.966794 
L 203.369389 26.724153 
z
" style="fill:#a7226e;stroke:#ffffff;stroke-width:0.48;"/>
    <path clip-path="url(#p4cf8576b4d)" d="M 205.890384 26.724153 
L 205.890384 30.966794 
L 210.133025 30.966794 
L 210.133025 26.724153 
z
" style="fill:#a7226e;stroke:#ffffff;stroke-width:0.48;"/>
    <path clip-path="url(#p4cf8576b4d)" d="M 212.654021 17.17468 
L 212.654021 21.41732 
L 216.896661 21.41732 
L 216.896661 17.17468 
z
" style="fill:#a7226e;stroke:#ffffff;stroke-width:0.48;"/>
    <path clip-path="url(#p4cf8576b4d)" d="M 219.417657 17.17468 
L 219.417657 21.41732 
L 223.660298 21.41732 
L 223.660298 17.17468 
z
" style="fill:#a7226e;stroke:#ffffff;stroke-width:0.48;"/>
    <path clip-path="url(#p4cf8576b4d)" d="M 226.181293 57.033352 
L 226.181293 61.275993 
L 230.423934 61.275993 
L 230.423934 57.033352 
z
" style="fill:#a7226e;stroke:#ffffff;stroke-width:0.48;"/>
    <path clip-path="url(#p4cf8576b4d)" d="M 232.94493 17.17468 
L 232.94493 21.41732 
L 237.18757 21.41732 
L 237.18757 17.17468 
z
" style="fill:#a7226e;stroke:#ffffff;stroke-width:0.48;"/>
    <path clip-path="url(#p4cf8576b4d)" d="M 239.708566 17.17468 
L 239.708566 21.41732 
L 243.951207 21.41732 
L 243.951207 17.17468 
z
" style="fill:#a7226e;stroke:#ffffff;stroke-width:0.48;"/>
    <path clip-path="url(#p4cf8576b4d)" d="M 246.472202 17.17468 
L 246.472202 21.41732 
L 250.714843 21.41732 
L 250.714843 17.17468 
z
" style="fill:#a7226e;stroke:#ffffff;stroke-width:0.48;"/>
    <path clip-path="url(#p4cf8576b4d)" d="M 253.235839 26.724153 
L 253.235839 30.966794 
L 257.478479 30.966794 
L 257.478479 26.724153 
z
" style="fill:#a7226e;stroke:#ffffff;stroke-width:0.48;"/>
    <path clip-path="url(#p4cf8576b4d)" d="M 259.999475 17.17468 
L 259.999475 21.41732 
L 264.242116 21.41732 
L 264.242116 17.17468 
z
" style="fill:#a7226e;stroke:#ffffff;stroke-width:0.48;"/>
    <path clip-path="url(#p4cf8576b4d)" d="M 266.763111 57.033352 
L 266.763111 61.275993 
L 271.005752 61.275993 
L 271.005752 57.033352 
z
" style="fill:#a7226e;stroke:#ffffff;stroke-width:0.48;"/>
    <path clip-path="url(#p4cf8576b4d)" d="M 273.526748 57.033352 
L 273.526748 61.275993 
L 277.769389 61.275993 
L 277.769389 57.033352 
z
" style="fill:#a7226e;stroke:#ffffff;stroke-width:0.48;"/>
    <path clip-path="url(#p4cf8576b4d)" d="M 280.290384 57.033352 
L 280.290384 61.275993 
L 284.533025 61.275993 
L 284.533025 57.033352 
z
" style="fill:#a7226e;stroke:#ffffff;stroke-width:0.48;"/>
    <path clip-path="url(#p4cf8576b4d)" d="M 287.054021 57.033352 
L 287.054021 61.275993 
L 291.296661 61.275993 
L 291.296661 57.033352 
z
" style="fill:#a7226e;stroke:#ffffff;stroke-width:0.48;"/>
    <path clip-path="url(#p4cf8576b4d)" d="M 293.817657 259.09468 
L 293.817657 263.33732 
L 298.060298 263.33732 
L 298.060298 259.09468 
z
" style="fill:#a7226e;stroke:#ffffff;stroke-width:0.48;"/>
    <path clip-path="url(#p4cf8576b4d)" d="M 300.581293 259.09468 
L 300.581293 263.33732 
L 304.823934 263.33732 
L 304.823934 259.09468 
z
" style="fill:#a7226e;stroke:#ffffff;stroke-width:0.48;"/>
    <path clip-path="url(#p4cf8576b4d)" d="M 307.34493 259.09468 
L 307.34493 263.33732 
L 311.58757 263.33732 
L 311.58757 259.09468 
z
" style="fill:#a7226e;stroke:#ffffff;stroke-width:0.48;"/>
    <path clip-path="url(#p4cf8576b4d)" d="M 314.108566 259.09468 
L 314.108566 263.33732 
L 318.351207 263.33732 
L 318.351207 259.09468 
z
" style="fill:#a7226e;stroke:#ffffff;stroke-width:0.48;"/>
    <path clip-path="url(#p4cf8576b4d)" d="M 320.872202 259.09468 
L 320.872202 263.33732 
L 325.114843 263.33732 
L 325.114843 259.09468 
z
" style="fill:#a7226e;stroke:#ffffff;stroke-width:0.48;"/>
    <path clip-path="url(#p4cf8576b4d)" d="M 327.635839 259.09468 
L 327.635839 263.33732 
L 331.878479 263.33732 
L 331.878479 259.09468 
z
" style="fill:#a7226e;stroke:#ffffff;stroke-width:0.48;"/>
    <path clip-path="url(#p4cf8576b4d)" d="M 334.399475 259.09468 
L 334.399475 263.33732 
L 338.642116 263.33732 
L 338.642116 259.09468 
z
" style="fill:#a7226e;stroke:#ffffff;stroke-width:0.48;"/>
    <path clip-path="url(#p4cf8576b4d)" d="M 341.163111 259.09468 
L 341.163111 263.33732 
L 345.405752 263.33732 
L 345.405752 259.09468 
z
" style="fill:#a7226e;stroke:#ffffff;stroke-width:0.48;"/>
    <path clip-path="url(#p4cf8576b4d)" d="M 347.926748 259.09468 
L 347.926748 263.33732 
L 352.169389 263.33732 
L 352.169389 259.09468 
z
" style="fill:#a7226e;stroke:#ffffff;stroke-width:0.48;"/>
    <path clip-path="url(#p4cf8576b4d)" d="M 354.690384 259.09468 
L 354.690384 263.33732 
L 358.933025 263.33732 
L 358.933025 259.09468 
z
" style="fill:#a7226e;stroke:#ffffff;stroke-width:0.48;"/>
    <path clip-path="url(#p4cf8576b4d)" d="M 361.454021 259.09468 
L 361.454021 263.33732 
L 365.696661 263.33732 
L 365.696661 259.09468 
z
" style="fill:#a7226e;stroke:#ffffff;stroke-width:0.48;"/>
    <path clip-path="url(#p4cf8576b4d)" d="M 368.217657 259.09468 
L 368.217657 263.33732 
L 372.460298 263.33732 
L 372.460298 259.09468 
z
" style="fill:#a7226e;stroke:#ffffff;stroke-width:0.48;"/>
    <path clip-path="url(#p4cf8576b4d)" d="M 374.981293 259.09468 
L 374.981293 263.33732 
L 379.223934 263.33732 
L 379.223934 259.09468 
z
" style="fill:#a7226e;stroke:#ffffff;stroke-width:0.48;"/>
    <path clip-path="url(#p4cf8576b4d)" d="M 381.74493 259.09468 
L 381.74493 263.33732 
L 385.98757 263.33732 
L 385.98757 259.09468 
z
" style="fill:#a7226e;stroke:#ffffff;stroke-width:0.48;"/>
    <path clip-path="url(#p4cf8576b4d)" d="M 388.508566 259.09468 
L 388.508566 263.33732 
L 392.751207 263.33732 
L 392.751207 259.09468 
z
" style="fill:#a7226e;stroke:#ffffff;stroke-width:0.48;"/>
    <path clip-path="url(#p4cf8576b4d)" d="M 395.272202 259.09468 
L 395.272202 263.33732 
L 399.514843 263.33732 
L 399.514843 259.09468 
z
" style="fill:#a7226e;stroke:#ffffff;stroke-width:0.48;"/>
   </g>
   <g id="PathCollection_2"/>
   <g id="PathCollection_3"/>
   <g id="PathCollection_4"/>
   <g id="matplotlib.axis_1">
    <g id="xtick_1">
     <g id="line2d_1">
      <defs>
       <path d="M 0 0 
L 0 3.5 
" id="mb7ab62bf56" style="stroke:#000000;stroke-width:0.8;"/>
      </defs>
      <g>
       <use style="stroke:#000000;stroke-width:0.8;" x="65.975341" xlink:href="#mb7ab62bf56" y="273.312"/>
      </g>
     </g>
     <g id="text_1">
      <!-- 0.0 -->
      <g transform="translate(58.023778 287.910437)scale(0.1 -0.1)">
       <defs>
        <path d="M 31.78125 66.40625 
Q 24.171875 66.40625 20.328125 58.90625 
Q 16.5 51.421875 16.5 36.375 
Q 16.5 21.390625 20.328125 13.890625 
Q 24.171875 6.390625 31.78125 6.390625 
Q 39.453125 6.390625 43.28125 13.890625 
Q 47.125 21.390625 47.125 36.375 
Q 47.125 51.421875 43.28125 58.90625 
Q 39.453125 66.40625 31.78125 66.40625 
z
M 31.78125 74.21875 
Q 44.046875 74.21875 50.515625 64.515625 
Q 56.984375 54.828125 56.984375 36.375 
Q 56.984375 17.96875 50.515625 8.265625 
Q 44.046875 -1.421875 31.78125 -1.421875 
Q 19.53125 -1.421875 13.0625 8.265625 
Q 6.59375 17.96875 6.59375 36.375 
Q 6.59375 54.828125 13.0625 64.515625 
Q 19.53125 74.21875 31.78125 74.21875 
z
" id="DejaVuSans-48"/>
        <path d="M 10.6875 12.40625 
L 21 12.40625 
L 21 0 
L 10.6875 0 
z
" id="DejaVuSans-46"/>
       </defs>
       <use xlink:href="#DejaVuSans-48"/>
       <use x="63.623047" xlink:href="#DejaVuSans-46"/>
       <use x="95.410156" xlink:href="#DejaVuSans-48"/>
      </g>
     </g>
    </g>
    <g id="xtick_2">
     <g id="line2d_2">
      <g>
       <use style="stroke:#000000;stroke-width:0.8;" x="133.611705" xlink:href="#mb7ab62bf56" y="273.312"/>
      </g>
     </g>
     <g id="text_2">
      <!-- 0.2 -->
      <g transform="translate(125.660142 287.910437)scale(0.1 -0.1)">
       <defs>
        <path d="M 19.1875 8.296875 
L 53.609375 8.296875 
L 53.609375 0 
L 7.328125 0 
L 7.328125 8.296875 
Q 12.9375 14.109375 22.625 23.890625 
Q 32.328125 33.6875 34.8125 36.53125 
Q 39.546875 41.84375 41.421875 45.53125 
Q 43.3125 49.21875 43.3125 52.78125 
Q 43.3125 58.59375 39.234375 62.25 
Q 35.15625 65.921875 28.609375 65.921875 
Q 23.96875 65.921875 18.8125 64.3125 
Q 13.671875 62.703125 7.8125 59.421875 
L 7.8125 69.390625 
Q 13.765625 71.78125 18.9375 73 
Q 24.125 74.21875 28.421875 74.21875 
Q 39.75 74.21875 46.484375 68.546875 
Q 53.21875 62.890625 53.21875 53.421875 
Q 53.21875 48.921875 51.53125 44.890625 
Q 49.859375 40.875 45.40625 35.40625 
Q 44.1875 33.984375 37.640625 27.21875 
Q 31.109375 20.453125 19.1875 8.296875 
z
" id="DejaVuSans-50"/>
       </defs>
       <use xlink:href="#DejaVuSans-48"/>
       <use x="63.623047" xlink:href="#DejaVuSans-46"/>
       <use x="95.410156" xlink:href="#DejaVuSans-50"/>
      </g>
     </g>
    </g>
    <g id="xtick_3">
     <g id="line2d_3">
      <g>
       <use style="stroke:#000000;stroke-width:0.8;" x="201.248068" xlink:href="#mb7ab62bf56" y="273.312"/>
      </g>
     </g>
     <g id="text_3">
      <!-- 0.4 -->
      <g transform="translate(193.296506 287.910437)scale(0.1 -0.1)">
       <defs>
        <path d="M 37.796875 64.3125 
L 12.890625 25.390625 
L 37.796875 25.390625 
z
M 35.203125 72.90625 
L 47.609375 72.90625 
L 47.609375 25.390625 
L 58.015625 25.390625 
L 58.015625 17.1875 
L 47.609375 17.1875 
L 47.609375 0 
L 37.796875 0 
L 37.796875 17.1875 
L 4.890625 17.1875 
L 4.890625 26.703125 
z
" id="DejaVuSans-52"/>
       </defs>
       <use xlink:href="#DejaVuSans-48"/>
       <use x="63.623047" xlink:href="#DejaVuSans-46"/>
       <use x="95.410156" xlink:href="#DejaVuSans-52"/>
      </g>
     </g>
    </g>
    <g id="xtick_4">
     <g id="line2d_4">
      <g>
       <use style="stroke:#000000;stroke-width:0.8;" x="268.884432" xlink:href="#mb7ab62bf56" y="273.312"/>
      </g>
     </g>
     <g id="text_4">
      <!-- 0.6 -->
      <g transform="translate(260.932869 287.910437)scale(0.1 -0.1)">
       <defs>
        <path d="M 33.015625 40.375 
Q 26.375 40.375 22.484375 35.828125 
Q 18.609375 31.296875 18.609375 23.390625 
Q 18.609375 15.53125 22.484375 10.953125 
Q 26.375 6.390625 33.015625 6.390625 
Q 39.65625 6.390625 43.53125 10.953125 
Q 47.40625 15.53125 47.40625 23.390625 
Q 47.40625 31.296875 43.53125 35.828125 
Q 39.65625 40.375 33.015625 40.375 
z
M 52.59375 71.296875 
L 52.59375 62.3125 
Q 48.875 64.0625 45.09375 64.984375 
Q 41.3125 65.921875 37.59375 65.921875 
Q 27.828125 65.921875 22.671875 59.328125 
Q 17.53125 52.734375 16.796875 39.40625 
Q 19.671875 43.65625 24.015625 45.921875 
Q 28.375 48.1875 33.59375 48.1875 
Q 44.578125 48.1875 50.953125 41.515625 
Q 57.328125 34.859375 57.328125 23.390625 
Q 57.328125 12.15625 50.6875 5.359375 
Q 44.046875 -1.421875 33.015625 -1.421875 
Q 20.359375 -1.421875 13.671875 8.265625 
Q 6.984375 17.96875 6.984375 36.375 
Q 6.984375 53.65625 15.1875 63.9375 
Q 23.390625 74.21875 37.203125 74.21875 
Q 40.921875 74.21875 44.703125 73.484375 
Q 48.484375 72.75 52.59375 71.296875 
z
" id="DejaVuSans-54"/>
       </defs>
       <use xlink:href="#DejaVuSans-48"/>
       <use x="63.623047" xlink:href="#DejaVuSans-46"/>
       <use x="95.410156" xlink:href="#DejaVuSans-54"/>
      </g>
     </g>
    </g>
    <g id="xtick_5">
     <g id="line2d_5">
      <g>
       <use style="stroke:#000000;stroke-width:0.8;" x="336.520795" xlink:href="#mb7ab62bf56" y="273.312"/>
      </g>
     </g>
     <g id="text_5">
      <!-- 0.8 -->
      <g transform="translate(328.569233 287.910437)scale(0.1 -0.1)">
       <defs>
        <path d="M 31.78125 34.625 
Q 24.75 34.625 20.71875 30.859375 
Q 16.703125 27.09375 16.703125 20.515625 
Q 16.703125 13.921875 20.71875 10.15625 
Q 24.75 6.390625 31.78125 6.390625 
Q 38.8125 6.390625 42.859375 10.171875 
Q 46.921875 13.96875 46.921875 20.515625 
Q 46.921875 27.09375 42.890625 30.859375 
Q 38.875 34.625 31.78125 34.625 
z
M 21.921875 38.8125 
Q 15.578125 40.375 12.03125 44.71875 
Q 8.5 49.078125 8.5 55.328125 
Q 8.5 64.0625 14.71875 69.140625 
Q 20.953125 74.21875 31.78125 74.21875 
Q 42.671875 74.21875 48.875 69.140625 
Q 55.078125 64.0625 55.078125 55.328125 
Q 55.078125 49.078125 51.53125 44.71875 
Q 48 40.375 41.703125 38.8125 
Q 48.828125 37.15625 52.796875 32.3125 
Q 56.78125 27.484375 56.78125 20.515625 
Q 56.78125 9.90625 50.3125 4.234375 
Q 43.84375 -1.421875 31.78125 -1.421875 
Q 19.734375 -1.421875 13.25 4.234375 
Q 6.78125 9.90625 6.78125 20.515625 
Q 6.78125 27.484375 10.78125 32.3125 
Q 14.796875 37.15625 21.921875 38.8125 
z
M 18.3125 54.390625 
Q 18.3125 48.734375 21.84375 45.5625 
Q 25.390625 42.390625 31.78125 42.390625 
Q 38.140625 42.390625 41.71875 45.5625 
Q 45.3125 48.734375 45.3125 54.390625 
Q 45.3125 60.0625 41.71875 63.234375 
Q 38.140625 66.40625 31.78125 66.40625 
Q 25.390625 66.40625 21.84375 63.234375 
Q 18.3125 60.0625 18.3125 54.390625 
z
" id="DejaVuSans-56"/>
       </defs>
       <use xlink:href="#DejaVuSans-48"/>
       <use x="63.623047" xlink:href="#DejaVuSans-46"/>
       <use x="95.410156" xlink:href="#DejaVuSans-56"/>
      </g>
     </g>
    </g>
    <g id="xtick_6">
     <g id="line2d_6">
      <g>
       <use style="stroke:#000000;stroke-width:0.8;" x="404.157159" xlink:href="#mb7ab62bf56" y="273.312"/>
      </g>
     </g>
     <g id="text_6">
      <!-- 1.0 -->
      <g transform="translate(396.205597 287.910437)scale(0.1 -0.1)">
       <defs>
        <path d="M 12.40625 8.296875 
L 28.515625 8.296875 
L 28.515625 63.921875 
L 10.984375 60.40625 
L 10.984375 69.390625 
L 28.421875 72.90625 
L 38.28125 72.90625 
L 38.28125 8.296875 
L 54.390625 8.296875 
L 54.390625 0 
L 12.40625 0 
z
" id="DejaVuSans-49"/>
       </defs>
       <use xlink:href="#DejaVuSans-49"/>
       <use x="63.623047" xlink:href="#DejaVuSans-46"/>
       <use x="95.410156" xlink:href="#DejaVuSans-48"/>
      </g>
     </g>
    </g>
    <g id="text_7">
     <!-- cutoff -->
     <g transform="translate(220.608438 301.588562)scale(0.1 -0.1)">
      <defs>
       <path d="M 48.78125 52.59375 
L 48.78125 44.1875 
Q 44.96875 46.296875 41.140625 47.34375 
Q 37.3125 48.390625 33.40625 48.390625 
Q 24.65625 48.390625 19.8125 42.84375 
Q 14.984375 37.3125 14.984375 27.296875 
Q 14.984375 17.28125 19.8125 11.734375 
Q 24.65625 6.203125 33.40625 6.203125 
Q 37.3125 6.203125 41.140625 7.25 
Q 44.96875 8.296875 48.78125 10.40625 
L 48.78125 2.09375 
Q 45.015625 0.34375 40.984375 -0.53125 
Q 36.96875 -1.421875 32.421875 -1.421875 
Q 20.0625 -1.421875 12.78125 6.34375 
Q 5.515625 14.109375 5.515625 27.296875 
Q 5.515625 40.671875 12.859375 48.328125 
Q 20.21875 56 33.015625 56 
Q 37.15625 56 41.109375 55.140625 
Q 45.0625 54.296875 48.78125 52.59375 
z
" id="DejaVuSans-99"/>
       <path d="M 8.5 21.578125 
L 8.5 54.6875 
L 17.484375 54.6875 
L 17.484375 21.921875 
Q 17.484375 14.15625 20.5 10.265625 
Q 23.53125 6.390625 29.59375 6.390625 
Q 36.859375 6.390625 41.078125 11.03125 
Q 45.3125 15.671875 45.3125 23.6875 
L 45.3125 54.6875 
L 54.296875 54.6875 
L 54.296875 0 
L 45.3125 0 
L 45.3125 8.40625 
Q 42.046875 3.421875 37.71875 1 
Q 33.40625 -1.421875 27.6875 -1.421875 
Q 18.265625 -1.421875 13.375 4.4375 
Q 8.5 10.296875 8.5 21.578125 
z
M 31.109375 56 
z
" id="DejaVuSans-117"/>
       <path d="M 18.3125 70.21875 
L 18.3125 54.6875 
L 36.8125 54.6875 
L 36.8125 47.703125 
L 18.3125 47.703125 
L 18.3125 18.015625 
Q 18.3125 11.328125 20.140625 9.421875 
Q 21.96875 7.515625 27.59375 7.515625 
L 36.8125 7.515625 
L 36.8125 0 
L 27.59375 0 
Q 17.1875 0 13.234375 3.875 
Q 9.28125 7.765625 9.28125 18.015625 
L 9.28125 47.703125 
L 2.6875 47.703125 
L 2.6875 54.6875 
L 9.28125 54.6875 
L 9.28125 70.21875 
z
" id="DejaVuSans-116"/>
       <path d="M 30.609375 48.390625 
Q 23.390625 48.390625 19.1875 42.75 
Q 14.984375 37.109375 14.984375 27.296875 
Q 14.984375 17.484375 19.15625 11.84375 
Q 23.34375 6.203125 30.609375 6.203125 
Q 37.796875 6.203125 41.984375 11.859375 
Q 46.1875 17.53125 46.1875 27.296875 
Q 46.1875 37.015625 41.984375 42.703125 
Q 37.796875 48.390625 30.609375 48.390625 
z
M 30.609375 56 
Q 42.328125 56 49.015625 48.375 
Q 55.71875 40.765625 55.71875 27.296875 
Q 55.71875 13.875 49.015625 6.21875 
Q 42.328125 -1.421875 30.609375 -1.421875 
Q 18.84375 -1.421875 12.171875 6.21875 
Q 5.515625 13.875 5.515625 27.296875 
Q 5.515625 40.765625 12.171875 48.375 
Q 18.84375 56 30.609375 56 
z
" id="DejaVuSans-111"/>
       <path d="M 37.109375 75.984375 
L 37.109375 68.5 
L 28.515625 68.5 
Q 23.6875 68.5 21.796875 66.546875 
Q 19.921875 64.59375 19.921875 59.515625 
L 19.921875 54.6875 
L 34.71875 54.6875 
L 34.71875 47.703125 
L 19.921875 47.703125 
L 19.921875 0 
L 10.890625 0 
L 10.890625 47.703125 
L 2.296875 47.703125 
L 2.296875 54.6875 
L 10.890625 54.6875 
L 10.890625 58.5 
Q 10.890625 67.625 15.140625 71.796875 
Q 19.390625 75.984375 28.609375 75.984375 
z
" id="DejaVuSans-102"/>
      </defs>
      <use xlink:href="#DejaVuSans-99"/>
      <use x="54.980469" xlink:href="#DejaVuSans-117"/>
      <use x="118.359375" xlink:href="#DejaVuSans-116"/>
      <use x="157.568359" xlink:href="#DejaVuSans-111"/>
      <use x="218.75" xlink:href="#DejaVuSans-102"/>
      <use x="253.955078" xlink:href="#DejaVuSans-102"/>
     </g>
    </g>
   </g>
   <g id="matplotlib.axis_2">
    <g id="ytick_1">
     <g id="line2d_7">
      <defs>
       <path d="M 0 0 
L -3.5 0 
" id="ma2dfe16a50" style="stroke:#000000;stroke-width:0.8;"/>
      </defs>
      <g>
       <use style="stroke:#000000;stroke-width:0.8;" x="56.50625" xlink:href="#ma2dfe16a50" y="254.381573"/>
      </g>
     </g>
     <g id="text_8">
      <!-- 0.375 -->
      <g transform="translate(20.878125 258.180792)scale(0.1 -0.1)">
       <defs>
        <path d="M 40.578125 39.3125 
Q 47.65625 37.796875 51.625 33 
Q 55.609375 28.21875 55.609375 21.1875 
Q 55.609375 10.40625 48.1875 4.484375 
Q 40.765625 -1.421875 27.09375 -1.421875 
Q 22.515625 -1.421875 17.65625 -0.515625 
Q 12.796875 0.390625 7.625 2.203125 
L 7.625 11.71875 
Q 11.71875 9.328125 16.59375 8.109375 
Q 21.484375 6.890625 26.8125 6.890625 
Q 36.078125 6.890625 40.9375 10.546875 
Q 45.796875 14.203125 45.796875 21.1875 
Q 45.796875 27.640625 41.28125 31.265625 
Q 36.765625 34.90625 28.71875 34.90625 
L 20.21875 34.90625 
L 20.21875 43.015625 
L 29.109375 43.015625 
Q 36.375 43.015625 40.234375 45.921875 
Q 44.09375 48.828125 44.09375 54.296875 
Q 44.09375 59.90625 40.109375 62.90625 
Q 36.140625 65.921875 28.71875 65.921875 
Q 24.65625 65.921875 20.015625 65.03125 
Q 15.375 64.15625 9.8125 62.3125 
L 9.8125 71.09375 
Q 15.4375 72.65625 20.34375 73.4375 
Q 25.25 74.21875 29.59375 74.21875 
Q 40.828125 74.21875 47.359375 69.109375 
Q 53.90625 64.015625 53.90625 55.328125 
Q 53.90625 49.265625 50.4375 45.09375 
Q 46.96875 40.921875 40.578125 39.3125 
z
" id="DejaVuSans-51"/>
        <path d="M 8.203125 72.90625 
L 55.078125 72.90625 
L 55.078125 68.703125 
L 28.609375 0 
L 18.3125 0 
L 43.21875 64.59375 
L 8.203125 64.59375 
z
" id="DejaVuSans-55"/>
        <path d="M 10.796875 72.90625 
L 49.515625 72.90625 
L 49.515625 64.59375 
L 19.828125 64.59375 
L 19.828125 46.734375 
Q 21.96875 47.46875 24.109375 47.828125 
Q 26.265625 48.1875 28.421875 48.1875 
Q 40.625 48.1875 47.75 41.5 
Q 54.890625 34.8125 54.890625 23.390625 
Q 54.890625 11.625 47.5625 5.09375 
Q 40.234375 -1.421875 26.90625 -1.421875 
Q 22.3125 -1.421875 17.546875 -0.640625 
Q 12.796875 0.140625 7.71875 1.703125 
L 7.71875 11.625 
Q 12.109375 9.234375 16.796875 8.0625 
Q 21.484375 6.890625 26.703125 6.890625 
Q 35.15625 6.890625 40.078125 11.328125 
Q 45.015625 15.765625 45.015625 23.390625 
Q 45.015625 31 40.078125 35.4375 
Q 35.15625 39.890625 26.703125 39.890625 
Q 22.75 39.890625 18.8125 39.015625 
Q 14.890625 38.140625 10.796875 36.28125 
z
" id="DejaVuSans-53"/>
       </defs>
       <use xlink:href="#DejaVuSans-48"/>
       <use x="63.623047" xlink:href="#DejaVuSans-46"/>
       <use x="95.410156" xlink:href="#DejaVuSans-51"/>
       <use x="159.033203" xlink:href="#DejaVuSans-55"/>
       <use x="222.65625" xlink:href="#DejaVuSans-53"/>
      </g>
     </g>
    </g>
    <g id="ytick_2">
     <g id="line2d_8">
      <g>
       <use style="stroke:#000000;stroke-width:0.8;" x="56.50625" xlink:href="#ma2dfe16a50" y="217.475666"/>
      </g>
     </g>
     <g id="text_9">
      <!-- 0.400 -->
      <g transform="translate(20.878125 221.274884)scale(0.1 -0.1)">
       <use xlink:href="#DejaVuSans-48"/>
       <use x="63.623047" xlink:href="#DejaVuSans-46"/>
       <use x="95.410156" xlink:href="#DejaVuSans-52"/>
       <use x="159.033203" xlink:href="#DejaVuSans-48"/>
       <use x="222.65625" xlink:href="#DejaVuSans-48"/>
      </g>
     </g>
    </g>
    <g id="ytick_3">
     <g id="line2d_9">
      <g>
       <use style="stroke:#000000;stroke-width:0.8;" x="56.50625" xlink:href="#ma2dfe16a50" y="180.569759"/>
      </g>
     </g>
     <g id="text_10">
      <!-- 0.425 -->
      <g transform="translate(20.878125 184.368977)scale(0.1 -0.1)">
       <use xlink:href="#DejaVuSans-48"/>
       <use x="63.623047" xlink:href="#DejaVuSans-46"/>
       <use x="95.410156" xlink:href="#DejaVuSans-52"/>
       <use x="159.033203" xlink:href="#DejaVuSans-50"/>
       <use x="222.65625" xlink:href="#DejaVuSans-53"/>
      </g>
     </g>
    </g>
    <g id="ytick_4">
     <g id="line2d_10">
      <g>
       <use style="stroke:#000000;stroke-width:0.8;" x="56.50625" xlink:href="#ma2dfe16a50" y="143.663851"/>
      </g>
     </g>
     <g id="text_11">
      <!-- 0.450 -->
      <g transform="translate(20.878125 147.46307)scale(0.1 -0.1)">
       <use xlink:href="#DejaVuSans-48"/>
       <use x="63.623047" xlink:href="#DejaVuSans-46"/>
       <use x="95.410156" xlink:href="#DejaVuSans-52"/>
       <use x="159.033203" xlink:href="#DejaVuSans-53"/>
       <use x="222.65625" xlink:href="#DejaVuSans-48"/>
      </g>
     </g>
    </g>
    <g id="ytick_5">
     <g id="line2d_11">
      <g>
       <use style="stroke:#000000;stroke-width:0.8;" x="56.50625" xlink:href="#ma2dfe16a50" y="106.757944"/>
      </g>
     </g>
     <g id="text_12">
      <!-- 0.475 -->
      <g transform="translate(20.878125 110.557163)scale(0.1 -0.1)">
       <use xlink:href="#DejaVuSans-48"/>
       <use x="63.623047" xlink:href="#DejaVuSans-46"/>
       <use x="95.410156" xlink:href="#DejaVuSans-52"/>
       <use x="159.033203" xlink:href="#DejaVuSans-55"/>
       <use x="222.65625" xlink:href="#DejaVuSans-53"/>
      </g>
     </g>
    </g>
    <g id="ytick_6">
     <g id="line2d_12">
      <g>
       <use style="stroke:#000000;stroke-width:0.8;" x="56.50625" xlink:href="#ma2dfe16a50" y="69.852037"/>
      </g>
     </g>
     <g id="text_13">
      <!-- 0.500 -->
      <g transform="translate(20.878125 73.651256)scale(0.1 -0.1)">
       <use xlink:href="#DejaVuSans-48"/>
       <use x="63.623047" xlink:href="#DejaVuSans-46"/>
       <use x="95.410156" xlink:href="#DejaVuSans-53"/>
       <use x="159.033203" xlink:href="#DejaVuSans-48"/>
       <use x="222.65625" xlink:href="#DejaVuSans-48"/>
      </g>
     </g>
    </g>
    <g id="ytick_7">
     <g id="line2d_13">
      <g>
       <use style="stroke:#000000;stroke-width:0.8;" x="56.50625" xlink:href="#ma2dfe16a50" y="32.94613"/>
      </g>
     </g>
     <g id="text_14">
      <!-- 0.525 -->
      <g transform="translate(20.878125 36.745349)scale(0.1 -0.1)">
       <use xlink:href="#DejaVuSans-48"/>
       <use x="63.623047" xlink:href="#DejaVuSans-46"/>
       <use x="95.410156" xlink:href="#DejaVuSans-53"/>
       <use x="159.033203" xlink:href="#DejaVuSans-50"/>
       <use x="222.65625" xlink:href="#DejaVuSans-53"/>
      </g>
     </g>
    </g>
    <g id="text_15">
     <!-- performance -->
     <g transform="translate(14.798437 172.278656)rotate(-90)scale(0.1 -0.1)">
      <defs>
       <path d="M 18.109375 8.203125 
L 18.109375 -20.796875 
L 9.078125 -20.796875 
L 9.078125 54.6875 
L 18.109375 54.6875 
L 18.109375 46.390625 
Q 20.953125 51.265625 25.265625 53.625 
Q 29.59375 56 35.59375 56 
Q 45.5625 56 51.78125 48.09375 
Q 58.015625 40.1875 58.015625 27.296875 
Q 58.015625 14.40625 51.78125 6.484375 
Q 45.5625 -1.421875 35.59375 -1.421875 
Q 29.59375 -1.421875 25.265625 0.953125 
Q 20.953125 3.328125 18.109375 8.203125 
z
M 48.6875 27.296875 
Q 48.6875 37.203125 44.609375 42.84375 
Q 40.53125 48.484375 33.40625 48.484375 
Q 26.265625 48.484375 22.1875 42.84375 
Q 18.109375 37.203125 18.109375 27.296875 
Q 18.109375 17.390625 22.1875 11.75 
Q 26.265625 6.109375 33.40625 6.109375 
Q 40.53125 6.109375 44.609375 11.75 
Q 48.6875 17.390625 48.6875 27.296875 
z
" id="DejaVuSans-112"/>
       <path d="M 56.203125 29.59375 
L 56.203125 25.203125 
L 14.890625 25.203125 
Q 15.484375 15.921875 20.484375 11.0625 
Q 25.484375 6.203125 34.421875 6.203125 
Q 39.59375 6.203125 44.453125 7.46875 
Q 49.3125 8.734375 54.109375 11.28125 
L 54.109375 2.78125 
Q 49.265625 0.734375 44.1875 -0.34375 
Q 39.109375 -1.421875 33.890625 -1.421875 
Q 20.796875 -1.421875 13.15625 6.1875 
Q 5.515625 13.8125 5.515625 26.8125 
Q 5.515625 40.234375 12.765625 48.109375 
Q 20.015625 56 32.328125 56 
Q 43.359375 56 49.78125 48.890625 
Q 56.203125 41.796875 56.203125 29.59375 
z
M 47.21875 32.234375 
Q 47.125 39.59375 43.09375 43.984375 
Q 39.0625 48.390625 32.421875 48.390625 
Q 24.90625 48.390625 20.390625 44.140625 
Q 15.875 39.890625 15.1875 32.171875 
z
" id="DejaVuSans-101"/>
       <path d="M 41.109375 46.296875 
Q 39.59375 47.171875 37.8125 47.578125 
Q 36.03125 48 33.890625 48 
Q 26.265625 48 22.1875 43.046875 
Q 18.109375 38.09375 18.109375 28.8125 
L 18.109375 0 
L 9.078125 0 
L 9.078125 54.6875 
L 18.109375 54.6875 
L 18.109375 46.1875 
Q 20.953125 51.171875 25.484375 53.578125 
Q 30.03125 56 36.53125 56 
Q 37.453125 56 38.578125 55.875 
Q 39.703125 55.765625 41.0625 55.515625 
z
" id="DejaVuSans-114"/>
       <path d="M 52 44.1875 
Q 55.375 50.25 60.0625 53.125 
Q 64.75 56 71.09375 56 
Q 79.640625 56 84.28125 50.015625 
Q 88.921875 44.046875 88.921875 33.015625 
L 88.921875 0 
L 79.890625 0 
L 79.890625 32.71875 
Q 79.890625 40.578125 77.09375 44.375 
Q 74.3125 48.1875 68.609375 48.1875 
Q 61.625 48.1875 57.5625 43.546875 
Q 53.515625 38.921875 53.515625 30.90625 
L 53.515625 0 
L 44.484375 0 
L 44.484375 32.71875 
Q 44.484375 40.625 41.703125 44.40625 
Q 38.921875 48.1875 33.109375 48.1875 
Q 26.21875 48.1875 22.15625 43.53125 
Q 18.109375 38.875 18.109375 30.90625 
L 18.109375 0 
L 9.078125 0 
L 9.078125 54.6875 
L 18.109375 54.6875 
L 18.109375 46.1875 
Q 21.1875 51.21875 25.484375 53.609375 
Q 29.78125 56 35.6875 56 
Q 41.65625 56 45.828125 52.96875 
Q 50 49.953125 52 44.1875 
z
" id="DejaVuSans-109"/>
       <path d="M 34.28125 27.484375 
Q 23.390625 27.484375 19.1875 25 
Q 14.984375 22.515625 14.984375 16.5 
Q 14.984375 11.71875 18.140625 8.90625 
Q 21.296875 6.109375 26.703125 6.109375 
Q 34.1875 6.109375 38.703125 11.40625 
Q 43.21875 16.703125 43.21875 25.484375 
L 43.21875 27.484375 
z
M 52.203125 31.203125 
L 52.203125 0 
L 43.21875 0 
L 43.21875 8.296875 
Q 40.140625 3.328125 35.546875 0.953125 
Q 30.953125 -1.421875 24.3125 -1.421875 
Q 15.921875 -1.421875 10.953125 3.296875 
Q 6 8.015625 6 15.921875 
Q 6 25.140625 12.171875 29.828125 
Q 18.359375 34.515625 30.609375 34.515625 
L 43.21875 34.515625 
L 43.21875 35.40625 
Q 43.21875 41.609375 39.140625 45 
Q 35.0625 48.390625 27.6875 48.390625 
Q 23 48.390625 18.546875 47.265625 
Q 14.109375 46.140625 10.015625 43.890625 
L 10.015625 52.203125 
Q 14.9375 54.109375 19.578125 55.046875 
Q 24.21875 56 28.609375 56 
Q 40.484375 56 46.34375 49.84375 
Q 52.203125 43.703125 52.203125 31.203125 
z
" id="DejaVuSans-97"/>
       <path d="M 54.890625 33.015625 
L 54.890625 0 
L 45.90625 0 
L 45.90625 32.71875 
Q 45.90625 40.484375 42.875 44.328125 
Q 39.84375 48.1875 33.796875 48.1875 
Q 26.515625 48.1875 22.3125 43.546875 
Q 18.109375 38.921875 18.109375 30.90625 
L 18.109375 0 
L 9.078125 0 
L 9.078125 54.6875 
L 18.109375 54.6875 
L 18.109375 46.1875 
Q 21.34375 51.125 25.703125 53.5625 
Q 30.078125 56 35.796875 56 
Q 45.21875 56 50.046875 50.171875 
Q 54.890625 44.34375 54.890625 33.015625 
z
" id="DejaVuSans-110"/>
      </defs>
      <use xlink:href="#DejaVuSans-112"/>
      <use x="63.476562" xlink:href="#DejaVuSans-101"/>
      <use x="125" xlink:href="#DejaVuSans-114"/>
      <use x="166.113281" xlink:href="#DejaVuSans-102"/>
      <use x="201.318359" xlink:href="#DejaVuSans-111"/>
      <use x="262.5" xlink:href="#DejaVuSans-114"/>
      <use x="301.863281" xlink:href="#DejaVuSans-109"/>
      <use x="399.275391" xlink:href="#DejaVuSans-97"/>
      <use x="460.554688" xlink:href="#DejaVuSans-110"/>
      <use x="523.933594" xlink:href="#DejaVuSans-99"/>
      <use x="578.914062" xlink:href="#DejaVuSans-101"/>
     </g>
    </g>
   </g>
   <g id="line2d_14">
    <path clip-path="url(#p4cf8576b4d)" d="M 72.738977 91.561394 
L 79.502614 114.58647 
L 86.26625 114.58647 
L 93.029886 114.58647 
L 99.793523 102.902103 
L 106.557159 139.050613 
L 113.320795 49.348755 
L 120.084432 49.348755 
L 126.848068 49.348755 
L 133.611705 49.348755 
L 140.375341 91.561394 
L 147.138977 91.561394 
L 153.902614 178.754714 
L 160.66625 178.754714 
L 167.429886 59.456007 
L 174.193523 91.561394 
L 180.957159 91.561394 
L 187.720795 91.561394 
L 194.484432 139.050613 
L 201.248068 91.561394 
L 208.011705 139.050613 
L 214.775341 139.050613 
L 221.538977 139.050613 
L 228.302614 139.050613 
L 235.06625 165.093088 
L 241.829886 139.050613 
L 248.593523 139.050613 
L 255.357159 139.050613 
L 262.120795 139.050613 
L 268.884432 139.050613 
L 275.648068 139.050613 
L 282.411705 139.050613 
L 289.175341 139.050613 
L 295.938977 139.050613 
L 302.702614 139.050613 
L 309.46625 139.050613 
L 316.229886 139.050613 
L 322.993523 139.050613 
L 329.757159 139.050613 
L 336.520795 139.050613 
L 343.284432 139.050613 
L 350.048068 139.050613 
L 356.811705 139.050613 
L 363.575341 139.050613 
L 370.338977 139.050613 
L 377.102614 139.050613 
L 383.86625 139.050613 
L 390.629886 139.050613 
L 397.393523 139.050613 
" style="fill:none;stroke:#f26b38;stroke-dasharray:7.4,3.2;stroke-dashoffset:0;stroke-width:2;"/>
   </g>
   <g id="line2d_15">
    <path clip-path="url(#p4cf8576b4d)" d="M 72.738977 139.050613 
L 79.502614 114.58647 
L 86.26625 114.58647 
L 93.029886 114.58647 
L 99.793523 114.58647 
L 106.557159 151.865164 
L 113.320795 151.865164 
L 120.084432 151.865164 
L 126.848068 151.865164 
L 133.611705 114.58647 
L 140.375341 102.902103 
L 147.138977 192.871728 
L 153.902614 192.871728 
L 160.66625 192.871728 
L 167.429886 192.871728 
L 174.193523 178.754714 
L 180.957159 165.093088 
L 187.720795 165.093088 
L 194.484432 165.093088 
L 201.248068 165.093088 
L 208.011705 165.093088 
L 214.775341 165.093088 
L 221.538977 165.093088 
L 228.302614 165.093088 
L 235.06625 165.093088 
L 241.829886 165.093088 
L 248.593523 165.093088 
L 255.357159 165.093088 
L 262.120795 165.093088 
L 268.884432 165.093088 
L 275.648068 165.093088 
L 282.411705 165.093088 
L 289.175341 165.093088 
L 295.938977 165.093088 
L 302.702614 165.093088 
L 309.46625 165.093088 
L 316.229886 165.093088 
L 322.993523 165.093088 
L 329.757159 165.093088 
L 336.520795 165.093088 
L 343.284432 165.093088 
L 350.048068 165.093088 
L 356.811705 165.093088 
L 363.575341 165.093088 
L 370.338977 165.093088 
L 377.102614 165.093088 
L 383.86625 165.093088 
L 390.629886 165.093088 
L 397.393523 165.093088 
" style="fill:none;stroke:#2f9599;stroke-dasharray:2,3.3;stroke-dashoffset:0;stroke-width:2;"/>
   </g>
   <g id="line2d_16">
    <path clip-path="url(#p4cf8576b4d)" d="M 72.738977 115.984421 
L 79.502614 115.984421 
L 86.26625 115.984421 
L 93.029886 115.984421 
L 99.793523 115.984421 
L 106.557159 128.432842 
L 113.320795 128.432842 
L 120.084432 128.432842 
L 126.848068 141.282825 
L 133.611705 115.984421 
L 140.375341 115.984421 
L 147.138977 128.432842 
L 153.902614 128.432842 
L 160.66625 128.432842 
L 167.429886 103.919028 
L 174.193523 128.432842 
L 180.957159 128.432842 
L 187.720795 115.984421 
L 194.484432 38.663947 
L 201.248068 28.845474 
L 208.011705 28.845474 
L 214.775341 19.296 
L 221.538977 19.296 
L 228.302614 59.154673 
L 235.06625 19.296 
L 241.829886 19.296 
L 248.593523 19.296 
L 255.357159 28.845474 
L 262.120795 19.296 
L 268.884432 59.154673 
L 275.648068 59.154673 
L 282.411705 59.154673 
L 289.175341 59.154673 
L 295.938977 261.216 
L 302.702614 261.216 
L 309.46625 261.216 
L 316.229886 261.216 
L 322.993523 261.216 
L 329.757159 261.216 
L 336.520795 261.216 
L 343.284432 261.216 
L 350.048068 261.216 
L 356.811705 261.216 
L 363.575341 261.216 
L 370.338977 261.216 
L 377.102614 261.216 
L 383.86625 261.216 
L 390.629886 261.216 
L 397.393523 261.216 
" style="fill:none;stroke:#a7226e;stroke-dasharray:12.8,3.2,2,3.2;stroke-dashoffset:0;stroke-width:2;"/>
   </g>
   <g id="patch_3">
    <path d="M 56.50625 273.312 
L 56.50625 7.2 
" style="fill:none;stroke:#000000;stroke-linecap:square;stroke-linejoin:miter;stroke-width:0.8;"/>
   </g>
   <g id="patch_4">
    <path d="M 413.62625 273.312 
L 413.62625 7.2 
" style="fill:none;stroke:#000000;stroke-linecap:square;stroke-linejoin:miter;stroke-width:0.8;"/>
   </g>
   <g id="patch_5">
    <path d="M 56.50625 273.312 
L 413.62625 273.312 
" style="fill:none;stroke:#000000;stroke-linecap:square;stroke-linejoin:miter;stroke-width:0.8;"/>
   </g>
   <g id="patch_6">
    <path d="M 56.50625 7.2 
L 413.62625 7.2 
" style="fill:none;stroke:#000000;stroke-linecap:square;stroke-linejoin:miter;stroke-width:0.8;"/>
   </g>
   <g id="legend_1">
    <g id="patch_7">
     <path d="M 328.152559 43.890912 
L 408.76825 43.890912 
Q 410.15625 43.890912 410.15625 42.502912 
L 410.15625 12.058 
Q 410.15625 10.67 408.76825 10.67 
L 328.152559 10.67 
Q 326.764559 10.67 326.764559 12.058 
L 326.764559 42.502912 
Q 326.764559 43.890912 328.152559 43.890912 
z
" style="fill:#ffffff;opacity:0.8;stroke:#cccccc;stroke-linejoin:miter;"/>
    </g>
    <g id="PathCollection_5">
     <defs>
      <path d="M 0 3 
C 0.795609 3 1.55874 2.683901 2.12132 2.12132 
C 2.683901 1.55874 3 0.795609 3 0 
C 3 -0.795609 2.683901 -1.55874 2.12132 -2.12132 
C 1.55874 -2.683901 0.795609 -3 0 -3 
C -0.795609 -3 -1.55874 -2.683901 -2.12132 -2.12132 
C -2.683901 -1.55874 -3 -0.795609 -3 0 
C -3 0.795609 -2.683901 1.55874 -2.12132 2.12132 
C -1.55874 2.683901 -0.795609 3 0 3 
z
" id="m5b1584995f" style="stroke:#f26b38;"/>
     </defs>
     <g>
      <use style="fill:#f26b38;stroke:#f26b38;" x="336.480559" xlink:href="#m5b1584995f" y="16.897566"/>
     </g>
    </g>
    <g id="text_16">
     <!-- mean_err -->
     <g transform="translate(348.972559 18.719316)scale(0.0694 -0.0694)">
      <defs>
       <path d="M 50.984375 -16.609375 
L 50.984375 -23.578125 
L -0.984375 -23.578125 
L -0.984375 -16.609375 
z
" id="DejaVuSans-95"/>
      </defs>
      <use xlink:href="#DejaVuSans-109"/>
      <use x="97.412109" xlink:href="#DejaVuSans-101"/>
      <use x="158.935547" xlink:href="#DejaVuSans-97"/>
      <use x="220.214844" xlink:href="#DejaVuSans-110"/>
      <use x="283.59375" xlink:href="#DejaVuSans-95"/>
      <use x="333.59375" xlink:href="#DejaVuSans-101"/>
      <use x="395.117188" xlink:href="#DejaVuSans-114"/>
      <use x="434.480469" xlink:href="#DejaVuSans-114"/>
     </g>
    </g>
    <g id="PathCollection_6">
     <defs>
      <path d="M -1.5 3 
L 0 1.5 
L 1.5 3 
L 3 1.5 
L 1.5 0 
L 3 -1.5 
L 1.5 -3 
L 0 -1.5 
L -1.5 -3 
L -3 -1.5 
L -1.5 0 
L -3 1.5 
z
" id="mcb139fb983" style="stroke:#2f9599;"/>
     </defs>
     <g>
      <use style="fill:#2f9599;stroke:#2f9599;" x="336.480559" xlink:href="#mcb139fb983" y="27.277203"/>
     </g>
    </g>
    <g id="text_17">
     <!-- mean_sq_err -->
     <g transform="translate(348.972559 29.098953)scale(0.0694 -0.0694)">
      <defs>
       <path d="M 44.28125 53.078125 
L 44.28125 44.578125 
Q 40.484375 46.53125 36.375 47.5 
Q 32.28125 48.484375 27.875 48.484375 
Q 21.1875 48.484375 17.84375 46.4375 
Q 14.5 44.390625 14.5 40.28125 
Q 14.5 37.15625 16.890625 35.375 
Q 19.28125 33.59375 26.515625 31.984375 
L 29.59375 31.296875 
Q 39.15625 29.25 43.1875 25.515625 
Q 47.21875 21.78125 47.21875 15.09375 
Q 47.21875 7.46875 41.1875 3.015625 
Q 35.15625 -1.421875 24.609375 -1.421875 
Q 20.21875 -1.421875 15.453125 -0.5625 
Q 10.6875 0.296875 5.421875 2 
L 5.421875 11.28125 
Q 10.40625 8.6875 15.234375 7.390625 
Q 20.0625 6.109375 24.8125 6.109375 
Q 31.15625 6.109375 34.5625 8.28125 
Q 37.984375 10.453125 37.984375 14.40625 
Q 37.984375 18.0625 35.515625 20.015625 
Q 33.0625 21.96875 24.703125 23.78125 
L 21.578125 24.515625 
Q 13.234375 26.265625 9.515625 29.90625 
Q 5.8125 33.546875 5.8125 39.890625 
Q 5.8125 47.609375 11.28125 51.796875 
Q 16.75 56 26.8125 56 
Q 31.78125 56 36.171875 55.265625 
Q 40.578125 54.546875 44.28125 53.078125 
z
" id="DejaVuSans-115"/>
       <path d="M 14.796875 27.296875 
Q 14.796875 17.390625 18.875 11.75 
Q 22.953125 6.109375 30.078125 6.109375 
Q 37.203125 6.109375 41.296875 11.75 
Q 45.40625 17.390625 45.40625 27.296875 
Q 45.40625 37.203125 41.296875 42.84375 
Q 37.203125 48.484375 30.078125 48.484375 
Q 22.953125 48.484375 18.875 42.84375 
Q 14.796875 37.203125 14.796875 27.296875 
z
M 45.40625 8.203125 
Q 42.578125 3.328125 38.25 0.953125 
Q 33.9375 -1.421875 27.875 -1.421875 
Q 17.96875 -1.421875 11.734375 6.484375 
Q 5.515625 14.40625 5.515625 27.296875 
Q 5.515625 40.1875 11.734375 48.09375 
Q 17.96875 56 27.875 56 
Q 33.9375 56 38.25 53.625 
Q 42.578125 51.265625 45.40625 46.390625 
L 45.40625 54.6875 
L 54.390625 54.6875 
L 54.390625 -20.796875 
L 45.40625 -20.796875 
z
" id="DejaVuSans-113"/>
      </defs>
      <use xlink:href="#DejaVuSans-109"/>
      <use x="97.412109" xlink:href="#DejaVuSans-101"/>
      <use x="158.935547" xlink:href="#DejaVuSans-97"/>
      <use x="220.214844" xlink:href="#DejaVuSans-110"/>
      <use x="283.59375" xlink:href="#DejaVuSans-95"/>
      <use x="333.59375" xlink:href="#DejaVuSans-115"/>
      <use x="385.693359" xlink:href="#DejaVuSans-113"/>
      <use x="449.169922" xlink:href="#DejaVuSans-95"/>
      <use x="499.169922" xlink:href="#DejaVuSans-101"/>
      <use x="560.693359" xlink:href="#DejaVuSans-114"/>
      <use x="600.056641" xlink:href="#DejaVuSans-114"/>
     </g>
    </g>
    <g id="PathCollection_7">
     <defs>
      <path d="M -2.12132 -2.12132 
L -2.12132 2.12132 
L 2.12132 2.12132 
L 2.12132 -2.12132 
z
" id="mf62e1e343c" style="stroke:#a7226e;"/>
     </defs>
     <g>
      <use style="fill:#a7226e;stroke:#a7226e;" x="336.480559" xlink:href="#mf62e1e343c" y="37.656841"/>
     </g>
    </g>
    <g id="text_18">
     <!-- mean_sqroot_err -->
     <g transform="translate(348.972559 39.478591)scale(0.0694 -0.0694)">
      <use xlink:href="#DejaVuSans-109"/>
      <use x="97.412109" xlink:href="#DejaVuSans-101"/>
      <use x="158.935547" xlink:href="#DejaVuSans-97"/>
      <use x="220.214844" xlink:href="#DejaVuSans-110"/>
      <use x="283.59375" xlink:href="#DejaVuSans-95"/>
      <use x="333.59375" xlink:href="#DejaVuSans-115"/>
      <use x="385.693359" xlink:href="#DejaVuSans-113"/>
      <use x="449.169922" xlink:href="#DejaVuSans-114"/>
      <use x="488.033203" xlink:href="#DejaVuSans-111"/>
      <use x="549.214844" xlink:href="#DejaVuSans-111"/>
      <use x="610.396484" xlink:href="#DejaVuSans-116"/>
      <use x="649.605469" xlink:href="#DejaVuSans-95"/>
      <use x="699.605469" xlink:href="#DejaVuSans-101"/>
      <use x="761.128906" xlink:href="#DejaVuSans-114"/>
      <use x="800.492188" xlink:href="#DejaVuSans-114"/>
     </g>
    </g>
   </g>
  </g>
 </g>
 <defs>
  <clipPath id="p4cf8576b4d">
   <rect height="266.112" width="357.12" x="56.50625" y="7.2"/>
  </clipPath>
 </defs>
</svg>
