<?xml version="1.0" encoding="utf-8" standalone="no"?>
<!DOCTYPE svg PUBLIC "-//W3C//DTD SVG 1.1//EN"
  "http://www.w3.org/Graphics/SVG/1.1/DTD/svg11.dtd">
<!-- Created with matplotlib (https://matplotlib.org/) -->
<svg height="310.86825pt" version="1.1" viewBox="0 0 414.46375 310.86825" width="414.46375pt" xmlns="http://www.w3.org/2000/svg" xmlns:xlink="http://www.w3.org/1999/xlink">
 <metadata>
  <rdf:RDF xmlns:cc="http://creativecommons.org/ns#" xmlns:dc="http://purl.org/dc/elements/1.1/" xmlns:rdf="http://www.w3.org/1999/02/22-rdf-syntax-ns#">
   <cc:Work>
    <dc:type rdf:resource="http://purl.org/dc/dcmitype/StillImage"/>
    <dc:date>2022-05-27T22:18:57.482132</dc:date>
    <dc:format>image/svg+xml</dc:format>
    <dc:creator>
     <cc:Agent>
      <dc:title>Matplotlib v3.3.4, https://matplotlib.org/</dc:title>
     </cc:Agent>
    </dc:creator>
   </cc:Work>
  </rdf:RDF>
 </metadata>
 <defs>
  <style type="text/css">*{stroke-linecap:butt;stroke-linejoin:round;}</style>
 </defs>
 <g id="figure_1">
  <g id="patch_1">
   <path d="M 0 310.86825 
L 414.46375 310.86825 
L 414.46375 0 
L 0 0 
z
" style="fill:#ffffff;"/>
  </g>
  <g id="axes_1">
   <g id="patch_2">
    <path d="M 50.14375 273.312 
L 407.26375 273.312 
L 407.26375 7.2 
L 50.14375 7.2 
z
" style="fill:#ffffff;"/>
   </g>
   <g id="PathCollection_1">
    <path clip-path="url(#p40a500acf6)" d="M 66.376477 87.589287 
C 67.172087 87.589287 67.935217 87.273188 68.497798 86.710608 
C 69.060378 86.148027 69.376477 85.384896 69.376477 84.589287 
C 69.376477 83.793678 69.060378 83.030548 68.497798 82.467967 
C 67.935217 81.905386 67.172087 81.589287 66.376477 81.589287 
C 65.580868 81.589287 64.817738 81.905386 64.255157 82.467967 
C 63.692576 83.030548 63.376477 83.793678 63.376477 84.589287 
C 63.376477 85.384896 63.692576 86.148027 64.255157 86.710608 
C 64.817738 87.273188 65.580868 87.589287 66.376477 87.589287 
z
" style="fill:#f26b38;stroke:#ffffff;stroke-width:0.48;"/>
    <path clip-path="url(#p40a500acf6)" d="M 73.140114 111.560599 
C 73.935723 111.560599 74.698853 111.2445 75.261434 110.681919 
C 75.824015 110.119339 76.140114 109.356208 76.140114 108.560599 
C 76.140114 107.76499 75.824015 107.001859 75.261434 106.439279 
C 74.698853 105.876698 73.935723 105.560599 73.140114 105.560599 
C 72.344504 105.560599 71.581374 105.876698 71.018793 106.439279 
C 70.456213 107.001859 70.140114 107.76499 70.140114 108.560599 
C 70.140114 109.356208 70.456213 110.119339 71.018793 110.681919 
C 71.581374 111.2445 72.344504 111.560599 73.140114 111.560599 
z
" style="fill:#f26b38;stroke:#ffffff;stroke-width:0.48;"/>
    <path clip-path="url(#p40a500acf6)" d="M 79.90375 111.560599 
C 80.699359 111.560599 81.46249 111.2445 82.02507 110.681919 
C 82.587651 110.119339 82.90375 109.356208 82.90375 108.560599 
C 82.90375 107.76499 82.587651 107.001859 82.02507 106.439279 
C 81.46249 105.876698 80.699359 105.560599 79.90375 105.560599 
C 79.108141 105.560599 78.34501 105.876698 77.78243 106.439279 
C 77.219849 107.001859 76.90375 107.76499 76.90375 108.560599 
C 76.90375 109.356208 77.219849 110.119339 77.78243 110.681919 
C 78.34501 111.2445 79.108141 111.560599 79.90375 111.560599 
z
" style="fill:#f26b38;stroke:#ffffff;stroke-width:0.48;"/>
    <path clip-path="url(#p40a500acf6)" d="M 86.667386 111.560599 
C 87.462996 111.560599 88.226126 111.2445 88.788707 110.681919 
C 89.351287 110.119339 89.667386 109.356208 89.667386 108.560599 
C 89.667386 107.76499 89.351287 107.001859 88.788707 106.439279 
C 88.226126 105.876698 87.462996 105.560599 86.667386 105.560599 
C 85.871777 105.560599 85.108647 105.876698 84.546066 106.439279 
C 83.983485 107.001859 83.667386 107.76499 83.667386 108.560599 
C 83.667386 109.356208 83.983485 110.119339 84.546066 110.681919 
C 85.108647 111.2445 85.871777 111.560599 86.667386 111.560599 
z
" style="fill:#f26b38;stroke:#ffffff;stroke-width:0.48;"/>
    <path clip-path="url(#p40a500acf6)" d="M 93.431023 111.560599 
C 94.226632 111.560599 94.989762 111.2445 95.552343 110.681919 
C 96.114924 110.119339 96.431023 109.356208 96.431023 108.560599 
C 96.431023 107.76499 96.114924 107.001859 95.552343 106.439279 
C 94.989762 105.876698 94.226632 105.560599 93.431023 105.560599 
C 92.635413 105.560599 91.872283 105.876698 91.309702 106.439279 
C 90.747122 107.001859 90.431023 107.76499 90.431023 108.560599 
C 90.431023 109.356208 90.747122 110.119339 91.309702 110.681919 
C 91.872283 111.2445 92.635413 111.560599 93.431023 111.560599 
z
" style="fill:#f26b38;stroke:#ffffff;stroke-width:0.48;"/>
    <path clip-path="url(#p40a500acf6)" d="M 100.194659 137.030118 
C 100.990268 137.030118 101.753399 136.714019 102.315979 136.151438 
C 102.87856 135.588857 103.194659 134.825727 103.194659 134.030118 
C 103.194659 133.234508 102.87856 132.471378 102.315979 131.908797 
C 101.753399 131.346217 100.990268 131.030118 100.194659 131.030118 
C 99.39905 131.030118 98.635919 131.346217 98.073339 131.908797 
C 97.510758 132.471378 97.194659 133.234508 97.194659 134.030118 
C 97.194659 134.825727 97.510758 135.588857 98.073339 136.151438 
C 98.635919 136.714019 99.39905 137.030118 100.194659 137.030118 
z
" style="fill:#f26b38;stroke:#ffffff;stroke-width:0.48;"/>
    <path clip-path="url(#p40a500acf6)" d="M 106.958295 54.1645 
C 107.753905 54.1645 108.517035 53.848401 109.079616 53.285821 
C 109.642197 52.72324 109.958295 51.96011 109.958295 51.1645 
C 109.958295 50.368891 109.642197 49.605761 109.079616 49.04318 
C 108.517035 48.480599 107.753905 48.1645 106.958295 48.1645 
C 106.162686 48.1645 105.399556 48.480599 104.836975 49.04318 
C 104.274394 49.605761 103.958295 50.368891 103.958295 51.1645 
C 103.958295 51.96011 104.274394 52.72324 104.836975 53.285821 
C 105.399556 53.848401 106.162686 54.1645 106.958295 54.1645 
z
" style="fill:#f26b38;stroke:#ffffff;stroke-width:0.48;"/>
    <path clip-path="url(#p40a500acf6)" d="M 113.721932 54.1645 
C 114.517541 54.1645 115.280671 53.848401 115.843252 53.285821 
C 116.405833 52.72324 116.721932 51.96011 116.721932 51.1645 
C 116.721932 50.368891 116.405833 49.605761 115.843252 49.04318 
C 115.280671 48.480599 114.517541 48.1645 113.721932 48.1645 
C 112.926323 48.1645 112.163192 48.480599 111.600611 49.04318 
C 111.038031 49.605761 110.721932 50.368891 110.721932 51.1645 
C 110.721932 51.96011 111.038031 52.72324 111.600611 53.285821 
C 112.163192 53.848401 112.926323 54.1645 113.721932 54.1645 
z
" style="fill:#f26b38;stroke:#ffffff;stroke-width:0.48;"/>
    <path clip-path="url(#p40a500acf6)" d="M 120.485568 54.1645 
C 121.281177 54.1645 122.044308 53.848401 122.606889 53.285821 
C 123.169469 52.72324 123.485568 51.96011 123.485568 51.1645 
C 123.485568 50.368891 123.169469 49.605761 122.606889 49.04318 
C 122.044308 48.480599 121.281177 48.1645 120.485568 48.1645 
C 119.689959 48.1645 118.926829 48.480599 118.364248 49.04318 
C 117.801667 49.605761 117.485568 50.368891 117.485568 51.1645 
C 117.485568 51.96011 117.801667 52.72324 118.364248 53.285821 
C 118.926829 53.848401 119.689959 54.1645 120.485568 54.1645 
z
" style="fill:#f26b38;stroke:#ffffff;stroke-width:0.48;"/>
    <path clip-path="url(#p40a500acf6)" d="M 127.249205 76.124747 
C 128.044814 76.124747 128.807944 75.808648 129.370525 75.246067 
C 129.933106 74.683486 130.249205 73.920356 130.249205 73.124747 
C 130.249205 72.329138 129.933106 71.566007 129.370525 71.003426 
C 128.807944 70.440846 128.044814 70.124747 127.249205 70.124747 
C 126.453595 70.124747 125.690465 70.440846 125.127884 71.003426 
C 124.565303 71.566007 124.249205 72.329138 124.249205 73.124747 
C 124.249205 73.920356 124.565303 74.683486 125.127884 75.246067 
C 125.690465 75.808648 126.453595 76.124747 127.249205 76.124747 
z
" style="fill:#f26b38;stroke:#ffffff;stroke-width:0.48;"/>
    <path clip-path="url(#p40a500acf6)" d="M 134.012841 87.589287 
C 134.80845 87.589287 135.571581 87.273188 136.134161 86.710608 
C 136.696742 86.148027 137.012841 85.384896 137.012841 84.589287 
C 137.012841 83.793678 136.696742 83.030548 136.134161 82.467967 
C 135.571581 81.905386 134.80845 81.589287 134.012841 81.589287 
C 133.217232 81.589287 132.454101 81.905386 131.891521 82.467967 
C 131.32894 83.030548 131.012841 83.793678 131.012841 84.589287 
C 131.012841 85.384896 131.32894 86.148027 131.891521 86.710608 
C 132.454101 87.273188 133.217232 87.589287 134.012841 87.589287 
z
" style="fill:#f26b38;stroke:#ffffff;stroke-width:0.48;"/>
    <path clip-path="url(#p40a500acf6)" d="M 140.776477 124.099439 
C 141.572087 124.099439 142.335217 123.78334 142.897798 123.220759 
C 143.460378 122.658179 143.776477 121.895048 143.776477 121.099439 
C 143.776477 120.30383 143.460378 119.540699 142.897798 118.978119 
C 142.335217 118.415538 141.572087 118.099439 140.776477 118.099439 
C 139.980868 118.099439 139.217738 118.415538 138.655157 118.978119 
C 138.092576 119.540699 137.776477 120.30383 137.776477 121.099439 
C 137.776477 121.895048 138.092576 122.658179 138.655157 123.220759 
C 139.217738 123.78334 139.980868 124.099439 140.776477 124.099439 
z
" style="fill:#f26b38;stroke:#ffffff;stroke-width:0.48;"/>
    <path clip-path="url(#p40a500acf6)" d="M 147.540114 164.142831 
C 148.335723 164.142831 149.098853 163.826732 149.661434 163.264151 
C 150.224015 162.701571 150.540114 161.93844 150.540114 161.142831 
C 150.540114 160.347222 150.224015 159.584092 149.661434 159.021511 
C 149.098853 158.45893 148.335723 158.142831 147.540114 158.142831 
C 146.744504 158.142831 145.981374 158.45893 145.418793 159.021511 
C 144.856213 159.584092 144.540114 160.347222 144.540114 161.142831 
C 144.540114 161.93844 144.856213 162.701571 145.418793 163.264151 
C 145.981374 163.826732 146.744504 164.142831 147.540114 164.142831 
z
" style="fill:#f26b38;stroke:#ffffff;stroke-width:0.48;"/>
    <path clip-path="url(#p40a500acf6)" d="M 154.30375 164.142831 
C 155.099359 164.142831 155.86249 163.826732 156.42507 163.264151 
C 156.987651 162.701571 157.30375 161.93844 157.30375 161.142831 
C 157.30375 160.347222 156.987651 159.584092 156.42507 159.021511 
C 155.86249 158.45893 155.099359 158.142831 154.30375 158.142831 
C 153.508141 158.142831 152.74501 158.45893 152.18243 159.021511 
C 151.619849 159.584092 151.30375 160.347222 151.30375 161.142831 
C 151.30375 161.93844 151.619849 162.701571 152.18243 163.264151 
C 152.74501 163.826732 153.508141 164.142831 154.30375 164.142831 
z
" style="fill:#f26b38;stroke:#ffffff;stroke-width:0.48;"/>
    <path clip-path="url(#p40a500acf6)" d="M 161.067386 87.589287 
C 161.862996 87.589287 162.626126 87.273188 163.188707 86.710608 
C 163.751287 86.148027 164.067386 85.384896 164.067386 84.589287 
C 164.067386 83.793678 163.751287 83.030548 163.188707 82.467967 
C 162.626126 81.905386 161.862996 81.589287 161.067386 81.589287 
C 160.271777 81.589287 159.508647 81.905386 158.946066 82.467967 
C 158.383485 83.030548 158.067386 83.793678 158.067386 84.589287 
C 158.067386 85.384896 158.383485 86.148027 158.946066 86.710608 
C 159.508647 87.273188 160.271777 87.589287 161.067386 87.589287 
z
" style="fill:#f26b38;stroke:#ffffff;stroke-width:0.48;"/>
    <path clip-path="url(#p40a500acf6)" d="M 167.831023 87.589287 
C 168.626632 87.589287 169.389762 87.273188 169.952343 86.710608 
C 170.514924 86.148027 170.831023 85.384896 170.831023 84.589287 
C 170.831023 83.793678 170.514924 83.030548 169.952343 82.467967 
C 169.389762 81.905386 168.626632 81.589287 167.831023 81.589287 
C 167.035413 81.589287 166.272283 81.905386 165.709702 82.467967 
C 165.147122 83.030548 164.831023 83.793678 164.831023 84.589287 
C 164.831023 85.384896 165.147122 86.148027 165.709702 86.710608 
C 166.272283 87.273188 167.035413 87.589287 167.831023 87.589287 
z
" style="fill:#f26b38;stroke:#ffffff;stroke-width:0.48;"/>
    <path clip-path="url(#p40a500acf6)" d="M 174.594659 87.589287 
C 175.390268 87.589287 176.153399 87.273188 176.715979 86.710608 
C 177.27856 86.148027 177.594659 85.384896 177.594659 84.589287 
C 177.594659 83.793678 177.27856 83.030548 176.715979 82.467967 
C 176.153399 81.905386 175.390268 81.589287 174.594659 81.589287 
C 173.79905 81.589287 173.035919 81.905386 172.473339 82.467967 
C 171.910758 83.030548 171.594659 83.793678 171.594659 84.589287 
C 171.594659 85.384896 171.910758 86.148027 172.473339 86.710608 
C 173.035919 87.273188 173.79905 87.589287 174.594659 87.589287 
z
" style="fill:#f26b38;stroke:#ffffff;stroke-width:0.48;"/>
    <path clip-path="url(#p40a500acf6)" d="M 181.358295 87.589287 
C 182.153905 87.589287 182.917035 87.273188 183.479616 86.710608 
C 184.042197 86.148027 184.358295 85.384896 184.358295 84.589287 
C 184.358295 83.793678 184.042197 83.030548 183.479616 82.467967 
C 182.917035 81.905386 182.153905 81.589287 181.358295 81.589287 
C 180.562686 81.589287 179.799556 81.905386 179.236975 82.467967 
C 178.674394 83.030548 178.358295 83.793678 178.358295 84.589287 
C 178.358295 85.384896 178.674394 86.148027 179.236975 86.710608 
C 179.799556 87.273188 180.562686 87.589287 181.358295 87.589287 
z
" style="fill:#f26b38;stroke:#ffffff;stroke-width:0.48;"/>
    <path clip-path="url(#p40a500acf6)" d="M 188.121932 87.589287 
C 188.917541 87.589287 189.680671 87.273188 190.243252 86.710608 
C 190.805833 86.148027 191.121932 85.384896 191.121932 84.589287 
C 191.121932 83.793678 190.805833 83.030548 190.243252 82.467967 
C 189.680671 81.905386 188.917541 81.589287 188.121932 81.589287 
C 187.326323 81.589287 186.563192 81.905386 186.000611 82.467967 
C 185.438031 83.030548 185.121932 83.793678 185.121932 84.589287 
C 185.121932 85.384896 185.438031 86.148027 186.000611 86.710608 
C 186.563192 87.273188 187.326323 87.589287 188.121932 87.589287 
z
" style="fill:#f26b38;stroke:#ffffff;stroke-width:0.48;"/>
    <path clip-path="url(#p40a500acf6)" d="M 194.885568 87.589287 
C 195.681177 87.589287 196.444308 87.273188 197.006889 86.710608 
C 197.569469 86.148027 197.885568 85.384896 197.885568 84.589287 
C 197.885568 83.793678 197.569469 83.030548 197.006889 82.467967 
C 196.444308 81.905386 195.681177 81.589287 194.885568 81.589287 
C 194.089959 81.589287 193.326829 81.905386 192.764248 82.467967 
C 192.201667 83.030548 191.885568 83.793678 191.885568 84.589287 
C 191.885568 85.384896 192.201667 86.148027 192.764248 86.710608 
C 193.326829 87.273188 194.089959 87.589287 194.885568 87.589287 
z
" style="fill:#f26b38;stroke:#ffffff;stroke-width:0.48;"/>
    <path clip-path="url(#p40a500acf6)" d="M 201.649205 87.589287 
C 202.444814 87.589287 203.207944 87.273188 203.770525 86.710608 
C 204.333106 86.148027 204.649205 85.384896 204.649205 84.589287 
C 204.649205 83.793678 204.333106 83.030548 203.770525 82.467967 
C 203.207944 81.905386 202.444814 81.589287 201.649205 81.589287 
C 200.853595 81.589287 200.090465 81.905386 199.527884 82.467967 
C 198.965303 83.030548 198.649205 83.793678 198.649205 84.589287 
C 198.649205 85.384896 198.965303 86.148027 199.527884 86.710608 
C 200.090465 87.273188 200.853595 87.589287 201.649205 87.589287 
z
" style="fill:#f26b38;stroke:#ffffff;stroke-width:0.48;"/>
    <path clip-path="url(#p40a500acf6)" d="M 208.412841 87.589287 
C 209.20845 87.589287 209.971581 87.273188 210.534161 86.710608 
C 211.096742 86.148027 211.412841 85.384896 211.412841 84.589287 
C 211.412841 83.793678 211.096742 83.030548 210.534161 82.467967 
C 209.971581 81.905386 209.20845 81.589287 208.412841 81.589287 
C 207.617232 81.589287 206.854101 81.905386 206.291521 82.467967 
C 205.72894 83.030548 205.412841 83.793678 205.412841 84.589287 
C 205.412841 85.384896 205.72894 86.148027 206.291521 86.710608 
C 206.854101 87.273188 207.617232 87.589287 208.412841 87.589287 
z
" style="fill:#f26b38;stroke:#ffffff;stroke-width:0.48;"/>
    <path clip-path="url(#p40a500acf6)" d="M 215.176477 87.589287 
C 215.972087 87.589287 216.735217 87.273188 217.297798 86.710608 
C 217.860378 86.148027 218.176477 85.384896 218.176477 84.589287 
C 218.176477 83.793678 217.860378 83.030548 217.297798 82.467967 
C 216.735217 81.905386 215.972087 81.589287 215.176477 81.589287 
C 214.380868 81.589287 213.617738 81.905386 213.055157 82.467967 
C 212.492576 83.030548 212.176477 83.793678 212.176477 84.589287 
C 212.176477 85.384896 212.492576 86.148027 213.055157 86.710608 
C 213.617738 87.273188 214.380868 87.589287 215.176477 87.589287 
z
" style="fill:#f26b38;stroke:#ffffff;stroke-width:0.48;"/>
    <path clip-path="url(#p40a500acf6)" d="M 221.940114 87.589287 
C 222.735723 87.589287 223.498853 87.273188 224.061434 86.710608 
C 224.624015 86.148027 224.940114 85.384896 224.940114 84.589287 
C 224.940114 83.793678 224.624015 83.030548 224.061434 82.467967 
C 223.498853 81.905386 222.735723 81.589287 221.940114 81.589287 
C 221.144504 81.589287 220.381374 81.905386 219.818793 82.467967 
C 219.256213 83.030548 218.940114 83.793678 218.940114 84.589287 
C 218.940114 85.384896 219.256213 86.148027 219.818793 86.710608 
C 220.381374 87.273188 221.144504 87.589287 221.940114 87.589287 
z
" style="fill:#f26b38;stroke:#ffffff;stroke-width:0.48;"/>
    <path clip-path="url(#p40a500acf6)" d="M 228.70375 124.099439 
C 229.499359 124.099439 230.26249 123.78334 230.82507 123.220759 
C 231.387651 122.658179 231.70375 121.895048 231.70375 121.099439 
C 231.70375 120.30383 231.387651 119.540699 230.82507 118.978119 
C 230.26249 118.415538 229.499359 118.099439 228.70375 118.099439 
C 227.908141 118.099439 227.14501 118.415538 226.58243 118.978119 
C 226.019849 119.540699 225.70375 120.30383 225.70375 121.099439 
C 225.70375 121.895048 226.019849 122.658179 226.58243 123.220759 
C 227.14501 123.78334 227.908141 124.099439 228.70375 124.099439 
z
" style="fill:#f26b38;stroke:#ffffff;stroke-width:0.48;"/>
    <path clip-path="url(#p40a500acf6)" d="M 235.467386 137.030118 
C 236.262996 137.030118 237.026126 136.714019 237.588707 136.151438 
C 238.151287 135.588857 238.467386 134.825727 238.467386 134.030118 
C 238.467386 133.234508 238.151287 132.471378 237.588707 131.908797 
C 237.026126 131.346217 236.262996 131.030118 235.467386 131.030118 
C 234.671777 131.030118 233.908647 131.346217 233.346066 131.908797 
C 232.783485 132.471378 232.467386 133.234508 232.467386 134.030118 
C 232.467386 134.825727 232.783485 135.588857 233.346066 136.151438 
C 233.908647 136.714019 234.671777 137.030118 235.467386 137.030118 
z
" style="fill:#f26b38;stroke:#ffffff;stroke-width:0.48;"/>
    <path clip-path="url(#p40a500acf6)" d="M 242.231023 137.030118 
C 243.026632 137.030118 243.789762 136.714019 244.352343 136.151438 
C 244.914924 135.588857 245.231023 134.825727 245.231023 134.030118 
C 245.231023 133.234508 244.914924 132.471378 244.352343 131.908797 
C 243.789762 131.346217 243.026632 131.030118 242.231023 131.030118 
C 241.435413 131.030118 240.672283 131.346217 240.109702 131.908797 
C 239.547122 132.471378 239.231023 133.234508 239.231023 134.030118 
C 239.231023 134.825727 239.547122 135.588857 240.109702 136.151438 
C 240.672283 136.714019 241.435413 137.030118 242.231023 137.030118 
z
" style="fill:#f26b38;stroke:#ffffff;stroke-width:0.48;"/>
    <path clip-path="url(#p40a500acf6)" d="M 248.994659 137.030118 
C 249.790268 137.030118 250.553399 136.714019 251.115979 136.151438 
C 251.67856 135.588857 251.994659 134.825727 251.994659 134.030118 
C 251.994659 133.234508 251.67856 132.471378 251.115979 131.908797 
C 250.553399 131.346217 249.790268 131.030118 248.994659 131.030118 
C 248.19905 131.030118 247.435919 131.346217 246.873339 131.908797 
C 246.310758 132.471378 245.994659 133.234508 245.994659 134.030118 
C 245.994659 134.825727 246.310758 135.588857 246.873339 136.151438 
C 247.435919 136.714019 248.19905 137.030118 248.994659 137.030118 
z
" style="fill:#f26b38;stroke:#ffffff;stroke-width:0.48;"/>
    <path clip-path="url(#p40a500acf6)" d="M 255.758295 137.030118 
C 256.553905 137.030118 257.317035 136.714019 257.879616 136.151438 
C 258.442197 135.588857 258.758295 134.825727 258.758295 134.030118 
C 258.758295 133.234508 258.442197 132.471378 257.879616 131.908797 
C 257.317035 131.346217 256.553905 131.030118 255.758295 131.030118 
C 254.962686 131.030118 254.199556 131.346217 253.636975 131.908797 
C 253.074394 132.471378 252.758295 133.234508 252.758295 134.030118 
C 252.758295 134.825727 253.074394 135.588857 253.636975 136.151438 
C 254.199556 136.714019 254.962686 137.030118 255.758295 137.030118 
z
" style="fill:#f26b38;stroke:#ffffff;stroke-width:0.48;"/>
    <path clip-path="url(#p40a500acf6)" d="M 262.521932 137.030118 
C 263.317541 137.030118 264.080671 136.714019 264.643252 136.151438 
C 265.205833 135.588857 265.521932 134.825727 265.521932 134.030118 
C 265.521932 133.234508 265.205833 132.471378 264.643252 131.908797 
C 264.080671 131.346217 263.317541 131.030118 262.521932 131.030118 
C 261.726323 131.030118 260.963192 131.346217 260.400611 131.908797 
C 259.838031 132.471378 259.521932 133.234508 259.521932 134.030118 
C 259.521932 134.825727 259.838031 135.588857 260.400611 136.151438 
C 260.963192 136.714019 261.726323 137.030118 262.521932 137.030118 
z
" style="fill:#f26b38;stroke:#ffffff;stroke-width:0.48;"/>
    <path clip-path="url(#p40a500acf6)" d="M 269.285568 137.030118 
C 270.081177 137.030118 270.844308 136.714019 271.406889 136.151438 
C 271.969469 135.588857 272.285568 134.825727 272.285568 134.030118 
C 272.285568 133.234508 271.969469 132.471378 271.406889 131.908797 
C 270.844308 131.346217 270.081177 131.030118 269.285568 131.030118 
C 268.489959 131.030118 267.726829 131.346217 267.164248 131.908797 
C 266.601667 132.471378 266.285568 133.234508 266.285568 134.030118 
C 266.285568 134.825727 266.601667 135.588857 267.164248 136.151438 
C 267.726829 136.714019 268.489959 137.030118 269.285568 137.030118 
z
" style="fill:#f26b38;stroke:#ffffff;stroke-width:0.48;"/>
    <path clip-path="url(#p40a500acf6)" d="M 276.049205 137.030118 
C 276.844814 137.030118 277.607944 136.714019 278.170525 136.151438 
C 278.733106 135.588857 279.049205 134.825727 279.049205 134.030118 
C 279.049205 133.234508 278.733106 132.471378 278.170525 131.908797 
C 277.607944 131.346217 276.844814 131.030118 276.049205 131.030118 
C 275.253595 131.030118 274.490465 131.346217 273.927884 131.908797 
C 273.365303 132.471378 273.049205 133.234508 273.049205 134.030118 
C 273.049205 134.825727 273.365303 135.588857 273.927884 136.151438 
C 274.490465 136.714019 275.253595 137.030118 276.049205 137.030118 
z
" style="fill:#f26b38;stroke:#ffffff;stroke-width:0.48;"/>
    <path clip-path="url(#p40a500acf6)" d="M 282.812841 137.030118 
C 283.60845 137.030118 284.371581 136.714019 284.934161 136.151438 
C 285.496742 135.588857 285.812841 134.825727 285.812841 134.030118 
C 285.812841 133.234508 285.496742 132.471378 284.934161 131.908797 
C 284.371581 131.346217 283.60845 131.030118 282.812841 131.030118 
C 282.017232 131.030118 281.254101 131.346217 280.691521 131.908797 
C 280.12894 132.471378 279.812841 133.234508 279.812841 134.030118 
C 279.812841 134.825727 280.12894 135.588857 280.691521 136.151438 
C 281.254101 136.714019 282.017232 137.030118 282.812841 137.030118 
z
" style="fill:#f26b38;stroke:#ffffff;stroke-width:0.48;"/>
    <path clip-path="url(#p40a500acf6)" d="M 289.576477 137.030118 
C 290.372087 137.030118 291.135217 136.714019 291.697798 136.151438 
C 292.260378 135.588857 292.576477 134.825727 292.576477 134.030118 
C 292.576477 133.234508 292.260378 132.471378 291.697798 131.908797 
C 291.135217 131.346217 290.372087 131.030118 289.576477 131.030118 
C 288.780868 131.030118 288.017738 131.346217 287.455157 131.908797 
C 286.892576 132.471378 286.576477 133.234508 286.576477 134.030118 
C 286.576477 134.825727 286.892576 135.588857 287.455157 136.151438 
C 288.017738 136.714019 288.780868 137.030118 289.576477 137.030118 
z
" style="fill:#f26b38;stroke:#ffffff;stroke-width:0.48;"/>
    <path clip-path="url(#p40a500acf6)" d="M 296.340114 137.030118 
C 297.135723 137.030118 297.898853 136.714019 298.461434 136.151438 
C 299.024015 135.588857 299.340114 134.825727 299.340114 134.030118 
C 299.340114 133.234508 299.024015 132.471378 298.461434 131.908797 
C 297.898853 131.346217 297.135723 131.030118 296.340114 131.030118 
C 295.544504 131.030118 294.781374 131.346217 294.218793 131.908797 
C 293.656213 132.471378 293.340114 133.234508 293.340114 134.030118 
C 293.340114 134.825727 293.656213 135.588857 294.218793 136.151438 
C 294.781374 136.714019 295.544504 137.030118 296.340114 137.030118 
z
" style="fill:#f26b38;stroke:#ffffff;stroke-width:0.48;"/>
    <path clip-path="url(#p40a500acf6)" d="M 303.10375 137.030118 
C 303.899359 137.030118 304.66249 136.714019 305.22507 136.151438 
C 305.787651 135.588857 306.10375 134.825727 306.10375 134.030118 
C 306.10375 133.234508 305.787651 132.471378 305.22507 131.908797 
C 304.66249 131.346217 303.899359 131.030118 303.10375 131.030118 
C 302.308141 131.030118 301.54501 131.346217 300.98243 131.908797 
C 300.419849 132.471378 300.10375 133.234508 300.10375 134.030118 
C 300.10375 134.825727 300.419849 135.588857 300.98243 136.151438 
C 301.54501 136.714019 302.308141 137.030118 303.10375 137.030118 
z
" style="fill:#f26b38;stroke:#ffffff;stroke-width:0.48;"/>
    <path clip-path="url(#p40a500acf6)" d="M 309.867386 137.030118 
C 310.662996 137.030118 311.426126 136.714019 311.988707 136.151438 
C 312.551287 135.588857 312.867386 134.825727 312.867386 134.030118 
C 312.867386 133.234508 312.551287 132.471378 311.988707 131.908797 
C 311.426126 131.346217 310.662996 131.030118 309.867386 131.030118 
C 309.071777 131.030118 308.308647 131.346217 307.746066 131.908797 
C 307.183485 132.471378 306.867386 133.234508 306.867386 134.030118 
C 306.867386 134.825727 307.183485 135.588857 307.746066 136.151438 
C 308.308647 136.714019 309.071777 137.030118 309.867386 137.030118 
z
" style="fill:#f26b38;stroke:#ffffff;stroke-width:0.48;"/>
    <path clip-path="url(#p40a500acf6)" d="M 316.631023 137.030118 
C 317.426632 137.030118 318.189762 136.714019 318.752343 136.151438 
C 319.314924 135.588857 319.631023 134.825727 319.631023 134.030118 
C 319.631023 133.234508 319.314924 132.471378 318.752343 131.908797 
C 318.189762 131.346217 317.426632 131.030118 316.631023 131.030118 
C 315.835413 131.030118 315.072283 131.346217 314.509702 131.908797 
C 313.947122 132.471378 313.631023 133.234508 313.631023 134.030118 
C 313.631023 134.825727 313.947122 135.588857 314.509702 136.151438 
C 315.072283 136.714019 315.835413 137.030118 316.631023 137.030118 
z
" style="fill:#f26b38;stroke:#ffffff;stroke-width:0.48;"/>
    <path clip-path="url(#p40a500acf6)" d="M 323.394659 137.030118 
C 324.190268 137.030118 324.953399 136.714019 325.515979 136.151438 
C 326.07856 135.588857 326.394659 134.825727 326.394659 134.030118 
C 326.394659 133.234508 326.07856 132.471378 325.515979 131.908797 
C 324.953399 131.346217 324.190268 131.030118 323.394659 131.030118 
C 322.59905 131.030118 321.835919 131.346217 321.273339 131.908797 
C 320.710758 132.471378 320.394659 133.234508 320.394659 134.030118 
C 320.394659 134.825727 320.710758 135.588857 321.273339 136.151438 
C 321.835919 136.714019 322.59905 137.030118 323.394659 137.030118 
z
" style="fill:#f26b38;stroke:#ffffff;stroke-width:0.48;"/>
    <path clip-path="url(#p40a500acf6)" d="M 330.158295 137.030118 
C 330.953905 137.030118 331.717035 136.714019 332.279616 136.151438 
C 332.842197 135.588857 333.158295 134.825727 333.158295 134.030118 
C 333.158295 133.234508 332.842197 132.471378 332.279616 131.908797 
C 331.717035 131.346217 330.953905 131.030118 330.158295 131.030118 
C 329.362686 131.030118 328.599556 131.346217 328.036975 131.908797 
C 327.474394 132.471378 327.158295 133.234508 327.158295 134.030118 
C 327.158295 134.825727 327.474394 135.588857 328.036975 136.151438 
C 328.599556 136.714019 329.362686 137.030118 330.158295 137.030118 
z
" style="fill:#f26b38;stroke:#ffffff;stroke-width:0.48;"/>
    <path clip-path="url(#p40a500acf6)" d="M 336.921932 137.030118 
C 337.717541 137.030118 338.480671 136.714019 339.043252 136.151438 
C 339.605833 135.588857 339.921932 134.825727 339.921932 134.030118 
C 339.921932 133.234508 339.605833 132.471378 339.043252 131.908797 
C 338.480671 131.346217 337.717541 131.030118 336.921932 131.030118 
C 336.126323 131.030118 335.363192 131.346217 334.800611 131.908797 
C 334.238031 132.471378 333.921932 133.234508 333.921932 134.030118 
C 333.921932 134.825727 334.238031 135.588857 334.800611 136.151438 
C 335.363192 136.714019 336.126323 137.030118 336.921932 137.030118 
z
" style="fill:#f26b38;stroke:#ffffff;stroke-width:0.48;"/>
    <path clip-path="url(#p40a500acf6)" d="M 343.685568 137.030118 
C 344.481177 137.030118 345.244308 136.714019 345.806889 136.151438 
C 346.369469 135.588857 346.685568 134.825727 346.685568 134.030118 
C 346.685568 133.234508 346.369469 132.471378 345.806889 131.908797 
C 345.244308 131.346217 344.481177 131.030118 343.685568 131.030118 
C 342.889959 131.030118 342.126829 131.346217 341.564248 131.908797 
C 341.001667 132.471378 340.685568 133.234508 340.685568 134.030118 
C 340.685568 134.825727 341.001667 135.588857 341.564248 136.151438 
C 342.126829 136.714019 342.889959 137.030118 343.685568 137.030118 
z
" style="fill:#f26b38;stroke:#ffffff;stroke-width:0.48;"/>
    <path clip-path="url(#p40a500acf6)" d="M 350.449205 137.030118 
C 351.244814 137.030118 352.007944 136.714019 352.570525 136.151438 
C 353.133106 135.588857 353.449205 134.825727 353.449205 134.030118 
C 353.449205 133.234508 353.133106 132.471378 352.570525 131.908797 
C 352.007944 131.346217 351.244814 131.030118 350.449205 131.030118 
C 349.653595 131.030118 348.890465 131.346217 348.327884 131.908797 
C 347.765303 132.471378 347.449205 133.234508 347.449205 134.030118 
C 347.449205 134.825727 347.765303 135.588857 348.327884 136.151438 
C 348.890465 136.714019 349.653595 137.030118 350.449205 137.030118 
z
" style="fill:#f26b38;stroke:#ffffff;stroke-width:0.48;"/>
    <path clip-path="url(#p40a500acf6)" d="M 357.212841 137.030118 
C 358.00845 137.030118 358.771581 136.714019 359.334161 136.151438 
C 359.896742 135.588857 360.212841 134.825727 360.212841 134.030118 
C 360.212841 133.234508 359.896742 132.471378 359.334161 131.908797 
C 358.771581 131.346217 358.00845 131.030118 357.212841 131.030118 
C 356.417232 131.030118 355.654101 131.346217 355.091521 131.908797 
C 354.52894 132.471378 354.212841 133.234508 354.212841 134.030118 
C 354.212841 134.825727 354.52894 135.588857 355.091521 136.151438 
C 355.654101 136.714019 356.417232 137.030118 357.212841 137.030118 
z
" style="fill:#f26b38;stroke:#ffffff;stroke-width:0.48;"/>
    <path clip-path="url(#p40a500acf6)" d="M 363.976477 137.030118 
C 364.772087 137.030118 365.535217 136.714019 366.097798 136.151438 
C 366.660378 135.588857 366.976477 134.825727 366.976477 134.030118 
C 366.976477 133.234508 366.660378 132.471378 366.097798 131.908797 
C 365.535217 131.346217 364.772087 131.030118 363.976477 131.030118 
C 363.180868 131.030118 362.417738 131.346217 361.855157 131.908797 
C 361.292576 132.471378 360.976477 133.234508 360.976477 134.030118 
C 360.976477 134.825727 361.292576 135.588857 361.855157 136.151438 
C 362.417738 136.714019 363.180868 137.030118 363.976477 137.030118 
z
" style="fill:#f26b38;stroke:#ffffff;stroke-width:0.48;"/>
    <path clip-path="url(#p40a500acf6)" d="M 370.740114 137.030118 
C 371.535723 137.030118 372.298853 136.714019 372.861434 136.151438 
C 373.424015 135.588857 373.740114 134.825727 373.740114 134.030118 
C 373.740114 133.234508 373.424015 132.471378 372.861434 131.908797 
C 372.298853 131.346217 371.535723 131.030118 370.740114 131.030118 
C 369.944504 131.030118 369.181374 131.346217 368.618793 131.908797 
C 368.056213 132.471378 367.740114 133.234508 367.740114 134.030118 
C 367.740114 134.825727 368.056213 135.588857 368.618793 136.151438 
C 369.181374 136.714019 369.944504 137.030118 370.740114 137.030118 
z
" style="fill:#f26b38;stroke:#ffffff;stroke-width:0.48;"/>
    <path clip-path="url(#p40a500acf6)" d="M 377.50375 137.030118 
C 378.299359 137.030118 379.06249 136.714019 379.62507 136.151438 
C 380.187651 135.588857 380.50375 134.825727 380.50375 134.030118 
C 380.50375 133.234508 380.187651 132.471378 379.62507 131.908797 
C 379.06249 131.346217 378.299359 131.030118 377.50375 131.030118 
C 376.708141 131.030118 375.94501 131.346217 375.38243 131.908797 
C 374.819849 132.471378 374.50375 133.234508 374.50375 134.030118 
C 374.50375 134.825727 374.819849 135.588857 375.38243 136.151438 
C 375.94501 136.714019 376.708141 137.030118 377.50375 137.030118 
z
" style="fill:#f26b38;stroke:#ffffff;stroke-width:0.48;"/>
    <path clip-path="url(#p40a500acf6)" d="M 384.267386 137.030118 
C 385.062996 137.030118 385.826126 136.714019 386.388707 136.151438 
C 386.951287 135.588857 387.267386 134.825727 387.267386 134.030118 
C 387.267386 133.234508 386.951287 132.471378 386.388707 131.908797 
C 385.826126 131.346217 385.062996 131.030118 384.267386 131.030118 
C 383.471777 131.030118 382.708647 131.346217 382.146066 131.908797 
C 381.583485 132.471378 381.267386 133.234508 381.267386 134.030118 
C 381.267386 134.825727 381.583485 135.588857 382.146066 136.151438 
C 382.708647 136.714019 383.471777 137.030118 384.267386 137.030118 
z
" style="fill:#f26b38;stroke:#ffffff;stroke-width:0.48;"/>
    <path clip-path="url(#p40a500acf6)" d="M 391.031023 137.030118 
C 391.826632 137.030118 392.589762 136.714019 393.152343 136.151438 
C 393.714924 135.588857 394.031023 134.825727 394.031023 134.030118 
C 394.031023 133.234508 393.714924 132.471378 393.152343 131.908797 
C 392.589762 131.346217 391.826632 131.030118 391.031023 131.030118 
C 390.235413 131.030118 389.472283 131.346217 388.909702 131.908797 
C 388.347122 132.471378 388.031023 133.234508 388.031023 134.030118 
C 388.031023 134.825727 388.347122 135.588857 388.909702 136.151438 
C 389.472283 136.714019 390.235413 137.030118 391.031023 137.030118 
z
" style="fill:#f26b38;stroke:#ffffff;stroke-width:0.48;"/>
    <path clip-path="url(#p40a500acf6)" d="M 64.876477 137.030118 
L 66.376477 135.530118 
L 67.876477 137.030118 
L 69.376477 135.530118 
L 67.876477 134.030118 
L 69.376477 132.530118 
L 67.876477 131.030118 
L 66.376477 132.530118 
L 64.876477 131.030118 
L 63.376477 132.530118 
L 64.876477 134.030118 
L 63.376477 135.530118 
z
" style="fill:#2f9599;stroke:#ffffff;stroke-width:0.48;"/>
    <path clip-path="url(#p40a500acf6)" d="M 71.640114 111.560599 
L 73.140114 110.060599 
L 74.640114 111.560599 
L 76.140114 110.060599 
L 74.640114 108.560599 
L 76.140114 107.060599 
L 74.640114 105.560599 
L 73.140114 107.060599 
L 71.640114 105.560599 
L 70.140114 107.060599 
L 71.640114 108.560599 
L 70.140114 110.060599 
z
" style="fill:#2f9599;stroke:#ffffff;stroke-width:0.48;"/>
    <path clip-path="url(#p40a500acf6)" d="M 78.40375 111.560599 
L 79.90375 110.060599 
L 81.40375 111.560599 
L 82.90375 110.060599 
L 81.40375 108.560599 
L 82.90375 107.060599 
L 81.40375 105.560599 
L 79.90375 107.060599 
L 78.40375 105.560599 
L 76.90375 107.060599 
L 78.40375 108.560599 
L 76.90375 110.060599 
z
" style="fill:#2f9599;stroke:#ffffff;stroke-width:0.48;"/>
    <path clip-path="url(#p40a500acf6)" d="M 85.167386 111.560599 
L 86.667386 110.060599 
L 88.167386 111.560599 
L 89.667386 110.060599 
L 88.167386 108.560599 
L 89.667386 107.060599 
L 88.167386 105.560599 
L 86.667386 107.060599 
L 85.167386 105.560599 
L 83.667386 107.060599 
L 85.167386 108.560599 
L 83.667386 110.060599 
z
" style="fill:#2f9599;stroke:#ffffff;stroke-width:0.48;"/>
    <path clip-path="url(#p40a500acf6)" d="M 91.931023 150.371294 
L 93.431023 148.871294 
L 94.931023 150.371294 
L 96.431023 148.871294 
L 94.931023 147.371294 
L 96.431023 145.871294 
L 94.931023 144.371294 
L 93.431023 145.871294 
L 91.931023 144.371294 
L 90.431023 145.871294 
L 91.931023 147.371294 
L 90.431023 148.871294 
z
" style="fill:#2f9599;stroke:#ffffff;stroke-width:0.48;"/>
    <path clip-path="url(#p40a500acf6)" d="M 98.694659 150.371294 
L 100.194659 148.871294 
L 101.694659 150.371294 
L 103.194659 148.871294 
L 101.694659 147.371294 
L 103.194659 145.871294 
L 101.694659 144.371294 
L 100.194659 145.871294 
L 98.694659 144.371294 
L 97.194659 145.871294 
L 98.694659 147.371294 
L 97.194659 148.871294 
z
" style="fill:#2f9599;stroke:#ffffff;stroke-width:0.48;"/>
    <path clip-path="url(#p40a500acf6)" d="M 105.458295 150.371294 
L 106.958295 148.871294 
L 108.458295 150.371294 
L 109.958295 148.871294 
L 108.458295 147.371294 
L 109.958295 145.871294 
L 108.458295 144.371294 
L 106.958295 145.871294 
L 105.458295 144.371294 
L 103.958295 145.871294 
L 105.458295 147.371294 
L 103.958295 148.871294 
z
" style="fill:#2f9599;stroke:#ffffff;stroke-width:0.48;"/>
    <path clip-path="url(#p40a500acf6)" d="M 112.221932 150.371294 
L 113.721932 148.871294 
L 115.221932 150.371294 
L 116.721932 148.871294 
L 115.221932 147.371294 
L 116.721932 145.871294 
L 115.221932 144.371294 
L 113.721932 145.871294 
L 112.221932 144.371294 
L 110.721932 145.871294 
L 112.221932 147.371294 
L 110.721932 148.871294 
z
" style="fill:#2f9599;stroke:#ffffff;stroke-width:0.48;"/>
    <path clip-path="url(#p40a500acf6)" d="M 118.985568 150.371294 
L 120.485568 148.871294 
L 121.985568 150.371294 
L 123.485568 148.871294 
L 121.985568 147.371294 
L 123.485568 145.871294 
L 121.985568 144.371294 
L 120.485568 145.871294 
L 118.985568 144.371294 
L 117.485568 145.871294 
L 118.985568 147.371294 
L 117.485568 148.871294 
z
" style="fill:#2f9599;stroke:#ffffff;stroke-width:0.48;"/>
    <path clip-path="url(#p40a500acf6)" d="M 125.749205 150.371294 
L 127.249205 148.871294 
L 128.749205 150.371294 
L 130.249205 148.871294 
L 128.749205 147.371294 
L 130.249205 145.871294 
L 128.749205 144.371294 
L 127.249205 145.871294 
L 125.749205 144.371294 
L 124.249205 145.871294 
L 125.749205 147.371294 
L 124.249205 148.871294 
z
" style="fill:#2f9599;stroke:#ffffff;stroke-width:0.48;"/>
    <path clip-path="url(#p40a500acf6)" d="M 132.512841 150.371294 
L 134.012841 148.871294 
L 135.512841 150.371294 
L 137.012841 148.871294 
L 135.512841 147.371294 
L 137.012841 145.871294 
L 135.512841 144.371294 
L 134.012841 145.871294 
L 132.512841 144.371294 
L 131.012841 145.871294 
L 132.512841 147.371294 
L 131.012841 148.871294 
z
" style="fill:#2f9599;stroke:#ffffff;stroke-width:0.48;"/>
    <path clip-path="url(#p40a500acf6)" d="M 139.276477 150.371294 
L 140.776477 148.871294 
L 142.276477 150.371294 
L 143.776477 148.871294 
L 142.276477 147.371294 
L 143.776477 145.871294 
L 142.276477 144.371294 
L 140.776477 145.871294 
L 139.276477 144.371294 
L 137.776477 145.871294 
L 139.276477 147.371294 
L 137.776477 148.871294 
z
" style="fill:#2f9599;stroke:#ffffff;stroke-width:0.48;"/>
    <path clip-path="url(#p40a500acf6)" d="M 146.040114 150.371294 
L 147.540114 148.871294 
L 149.040114 150.371294 
L 150.540114 148.871294 
L 149.040114 147.371294 
L 150.540114 145.871294 
L 149.040114 144.371294 
L 147.540114 145.871294 
L 146.040114 144.371294 
L 144.540114 145.871294 
L 146.040114 147.371294 
L 144.540114 148.871294 
z
" style="fill:#2f9599;stroke:#ffffff;stroke-width:0.48;"/>
    <path clip-path="url(#p40a500acf6)" d="M 152.80375 150.371294 
L 154.30375 148.871294 
L 155.80375 150.371294 
L 157.30375 148.871294 
L 155.80375 147.371294 
L 157.30375 145.871294 
L 155.80375 144.371294 
L 154.30375 145.871294 
L 152.80375 144.371294 
L 151.30375 145.871294 
L 152.80375 147.371294 
L 151.30375 148.871294 
z
" style="fill:#2f9599;stroke:#ffffff;stroke-width:0.48;"/>
    <path clip-path="url(#p40a500acf6)" d="M 159.567386 150.371294 
L 161.067386 148.871294 
L 162.567386 150.371294 
L 164.067386 148.871294 
L 162.567386 147.371294 
L 164.067386 145.871294 
L 162.567386 144.371294 
L 161.067386 145.871294 
L 159.567386 144.371294 
L 158.067386 145.871294 
L 159.567386 147.371294 
L 158.067386 148.871294 
z
" style="fill:#2f9599;stroke:#ffffff;stroke-width:0.48;"/>
    <path clip-path="url(#p40a500acf6)" d="M 166.331023 150.371294 
L 167.831023 148.871294 
L 169.331023 150.371294 
L 170.831023 148.871294 
L 169.331023 147.371294 
L 170.831023 145.871294 
L 169.331023 144.371294 
L 167.831023 145.871294 
L 166.331023 144.371294 
L 164.831023 145.871294 
L 166.331023 147.371294 
L 164.831023 148.871294 
z
" style="fill:#2f9599;stroke:#ffffff;stroke-width:0.48;"/>
    <path clip-path="url(#p40a500acf6)" d="M 173.094659 164.142831 
L 174.594659 162.642831 
L 176.094659 164.142831 
L 177.594659 162.642831 
L 176.094659 161.142831 
L 177.594659 159.642831 
L 176.094659 158.142831 
L 174.594659 159.642831 
L 173.094659 158.142831 
L 171.594659 159.642831 
L 173.094659 161.142831 
L 171.594659 162.642831 
z
" style="fill:#2f9599;stroke:#ffffff;stroke-width:0.48;"/>
    <path clip-path="url(#p40a500acf6)" d="M 179.858295 164.142831 
L 181.358295 162.642831 
L 182.858295 164.142831 
L 184.358295 162.642831 
L 182.858295 161.142831 
L 184.358295 159.642831 
L 182.858295 158.142831 
L 181.358295 159.642831 
L 179.858295 158.142831 
L 178.358295 159.642831 
L 179.858295 161.142831 
L 178.358295 162.642831 
z
" style="fill:#2f9599;stroke:#ffffff;stroke-width:0.48;"/>
    <path clip-path="url(#p40a500acf6)" d="M 186.621932 164.142831 
L 188.121932 162.642831 
L 189.621932 164.142831 
L 191.121932 162.642831 
L 189.621932 161.142831 
L 191.121932 159.642831 
L 189.621932 158.142831 
L 188.121932 159.642831 
L 186.621932 158.142831 
L 185.121932 159.642831 
L 186.621932 161.142831 
L 185.121932 162.642831 
z
" style="fill:#2f9599;stroke:#ffffff;stroke-width:0.48;"/>
    <path clip-path="url(#p40a500acf6)" d="M 193.385568 164.142831 
L 194.885568 162.642831 
L 196.385568 164.142831 
L 197.885568 162.642831 
L 196.385568 161.142831 
L 197.885568 159.642831 
L 196.385568 158.142831 
L 194.885568 159.642831 
L 193.385568 158.142831 
L 191.885568 159.642831 
L 193.385568 161.142831 
L 191.885568 162.642831 
z
" style="fill:#2f9599;stroke:#ffffff;stroke-width:0.48;"/>
    <path clip-path="url(#p40a500acf6)" d="M 200.149205 164.142831 
L 201.649205 162.642831 
L 203.149205 164.142831 
L 204.649205 162.642831 
L 203.149205 161.142831 
L 204.649205 159.642831 
L 203.149205 158.142831 
L 201.649205 159.642831 
L 200.149205 158.142831 
L 198.649205 159.642831 
L 200.149205 161.142831 
L 198.649205 162.642831 
z
" style="fill:#2f9599;stroke:#ffffff;stroke-width:0.48;"/>
    <path clip-path="url(#p40a500acf6)" d="M 206.912841 164.142831 
L 208.412841 162.642831 
L 209.912841 164.142831 
L 211.412841 162.642831 
L 209.912841 161.142831 
L 211.412841 159.642831 
L 209.912841 158.142831 
L 208.412841 159.642831 
L 206.912841 158.142831 
L 205.412841 159.642831 
L 206.912841 161.142831 
L 205.412841 162.642831 
z
" style="fill:#2f9599;stroke:#ffffff;stroke-width:0.48;"/>
    <path clip-path="url(#p40a500acf6)" d="M 213.676477 164.142831 
L 215.176477 162.642831 
L 216.676477 164.142831 
L 218.176477 162.642831 
L 216.676477 161.142831 
L 218.176477 159.642831 
L 216.676477 158.142831 
L 215.176477 159.642831 
L 213.676477 158.142831 
L 212.176477 159.642831 
L 213.676477 161.142831 
L 212.176477 162.642831 
z
" style="fill:#2f9599;stroke:#ffffff;stroke-width:0.48;"/>
    <path clip-path="url(#p40a500acf6)" d="M 220.440114 164.142831 
L 221.940114 162.642831 
L 223.440114 164.142831 
L 224.940114 162.642831 
L 223.440114 161.142831 
L 224.940114 159.642831 
L 223.440114 158.142831 
L 221.940114 159.642831 
L 220.440114 158.142831 
L 218.940114 159.642831 
L 220.440114 161.142831 
L 218.940114 162.642831 
z
" style="fill:#2f9599;stroke:#ffffff;stroke-width:0.48;"/>
    <path clip-path="url(#p40a500acf6)" d="M 227.20375 164.142831 
L 228.70375 162.642831 
L 230.20375 164.142831 
L 231.70375 162.642831 
L 230.20375 161.142831 
L 231.70375 159.642831 
L 230.20375 158.142831 
L 228.70375 159.642831 
L 227.20375 158.142831 
L 225.70375 159.642831 
L 227.20375 161.142831 
L 225.70375 162.642831 
z
" style="fill:#2f9599;stroke:#ffffff;stroke-width:0.48;"/>
    <path clip-path="url(#p40a500acf6)" d="M 233.967386 164.142831 
L 235.467386 162.642831 
L 236.967386 164.142831 
L 238.467386 162.642831 
L 236.967386 161.142831 
L 238.467386 159.642831 
L 236.967386 158.142831 
L 235.467386 159.642831 
L 233.967386 158.142831 
L 232.467386 159.642831 
L 233.967386 161.142831 
L 232.467386 162.642831 
z
" style="fill:#2f9599;stroke:#ffffff;stroke-width:0.48;"/>
    <path clip-path="url(#p40a500acf6)" d="M 240.731023 164.142831 
L 242.231023 162.642831 
L 243.731023 164.142831 
L 245.231023 162.642831 
L 243.731023 161.142831 
L 245.231023 159.642831 
L 243.731023 158.142831 
L 242.231023 159.642831 
L 240.731023 158.142831 
L 239.231023 159.642831 
L 240.731023 161.142831 
L 239.231023 162.642831 
z
" style="fill:#2f9599;stroke:#ffffff;stroke-width:0.48;"/>
    <path clip-path="url(#p40a500acf6)" d="M 247.494659 164.142831 
L 248.994659 162.642831 
L 250.494659 164.142831 
L 251.994659 162.642831 
L 250.494659 161.142831 
L 251.994659 159.642831 
L 250.494659 158.142831 
L 248.994659 159.642831 
L 247.494659 158.142831 
L 245.994659 159.642831 
L 247.494659 161.142831 
L 245.994659 162.642831 
z
" style="fill:#2f9599;stroke:#ffffff;stroke-width:0.48;"/>
    <path clip-path="url(#p40a500acf6)" d="M 254.258295 164.142831 
L 255.758295 162.642831 
L 257.258295 164.142831 
L 258.758295 162.642831 
L 257.258295 161.142831 
L 258.758295 159.642831 
L 257.258295 158.142831 
L 255.758295 159.642831 
L 254.258295 158.142831 
L 252.758295 159.642831 
L 254.258295 161.142831 
L 252.758295 162.642831 
z
" style="fill:#2f9599;stroke:#ffffff;stroke-width:0.48;"/>
    <path clip-path="url(#p40a500acf6)" d="M 261.021932 164.142831 
L 262.521932 162.642831 
L 264.021932 164.142831 
L 265.521932 162.642831 
L 264.021932 161.142831 
L 265.521932 159.642831 
L 264.021932 158.142831 
L 262.521932 159.642831 
L 261.021932 158.142831 
L 259.521932 159.642831 
L 261.021932 161.142831 
L 259.521932 162.642831 
z
" style="fill:#2f9599;stroke:#ffffff;stroke-width:0.48;"/>
    <path clip-path="url(#p40a500acf6)" d="M 267.785568 164.142831 
L 269.285568 162.642831 
L 270.785568 164.142831 
L 272.285568 162.642831 
L 270.785568 161.142831 
L 272.285568 159.642831 
L 270.785568 158.142831 
L 269.285568 159.642831 
L 267.785568 158.142831 
L 266.285568 159.642831 
L 267.785568 161.142831 
L 266.285568 162.642831 
z
" style="fill:#2f9599;stroke:#ffffff;stroke-width:0.48;"/>
    <path clip-path="url(#p40a500acf6)" d="M 274.549205 164.142831 
L 276.049205 162.642831 
L 277.549205 164.142831 
L 279.049205 162.642831 
L 277.549205 161.142831 
L 279.049205 159.642831 
L 277.549205 158.142831 
L 276.049205 159.642831 
L 274.549205 158.142831 
L 273.049205 159.642831 
L 274.549205 161.142831 
L 273.049205 162.642831 
z
" style="fill:#2f9599;stroke:#ffffff;stroke-width:0.48;"/>
    <path clip-path="url(#p40a500acf6)" d="M 281.312841 164.142831 
L 282.812841 162.642831 
L 284.312841 164.142831 
L 285.812841 162.642831 
L 284.312841 161.142831 
L 285.812841 159.642831 
L 284.312841 158.142831 
L 282.812841 159.642831 
L 281.312841 158.142831 
L 279.812841 159.642831 
L 281.312841 161.142831 
L 279.812841 162.642831 
z
" style="fill:#2f9599;stroke:#ffffff;stroke-width:0.48;"/>
    <path clip-path="url(#p40a500acf6)" d="M 288.076477 164.142831 
L 289.576477 162.642831 
L 291.076477 164.142831 
L 292.576477 162.642831 
L 291.076477 161.142831 
L 292.576477 159.642831 
L 291.076477 158.142831 
L 289.576477 159.642831 
L 288.076477 158.142831 
L 286.576477 159.642831 
L 288.076477 161.142831 
L 286.576477 162.642831 
z
" style="fill:#2f9599;stroke:#ffffff;stroke-width:0.48;"/>
    <path clip-path="url(#p40a500acf6)" d="M 294.840114 164.142831 
L 296.340114 162.642831 
L 297.840114 164.142831 
L 299.340114 162.642831 
L 297.840114 161.142831 
L 299.340114 159.642831 
L 297.840114 158.142831 
L 296.340114 159.642831 
L 294.840114 158.142831 
L 293.340114 159.642831 
L 294.840114 161.142831 
L 293.340114 162.642831 
z
" style="fill:#2f9599;stroke:#ffffff;stroke-width:0.48;"/>
    <path clip-path="url(#p40a500acf6)" d="M 301.60375 164.142831 
L 303.10375 162.642831 
L 304.60375 164.142831 
L 306.10375 162.642831 
L 304.60375 161.142831 
L 306.10375 159.642831 
L 304.60375 158.142831 
L 303.10375 159.642831 
L 301.60375 158.142831 
L 300.10375 159.642831 
L 301.60375 161.142831 
L 300.10375 162.642831 
z
" style="fill:#2f9599;stroke:#ffffff;stroke-width:0.48;"/>
    <path clip-path="url(#p40a500acf6)" d="M 308.367386 164.142831 
L 309.867386 162.642831 
L 311.367386 164.142831 
L 312.867386 162.642831 
L 311.367386 161.142831 
L 312.867386 159.642831 
L 311.367386 158.142831 
L 309.867386 159.642831 
L 308.367386 158.142831 
L 306.867386 159.642831 
L 308.367386 161.142831 
L 306.867386 162.642831 
z
" style="fill:#2f9599;stroke:#ffffff;stroke-width:0.48;"/>
    <path clip-path="url(#p40a500acf6)" d="M 315.131023 164.142831 
L 316.631023 162.642831 
L 318.131023 164.142831 
L 319.631023 162.642831 
L 318.131023 161.142831 
L 319.631023 159.642831 
L 318.131023 158.142831 
L 316.631023 159.642831 
L 315.131023 158.142831 
L 313.631023 159.642831 
L 315.131023 161.142831 
L 313.631023 162.642831 
z
" style="fill:#2f9599;stroke:#ffffff;stroke-width:0.48;"/>
    <path clip-path="url(#p40a500acf6)" d="M 321.894659 164.142831 
L 323.394659 162.642831 
L 324.894659 164.142831 
L 326.394659 162.642831 
L 324.894659 161.142831 
L 326.394659 159.642831 
L 324.894659 158.142831 
L 323.394659 159.642831 
L 321.894659 158.142831 
L 320.394659 159.642831 
L 321.894659 161.142831 
L 320.394659 162.642831 
z
" style="fill:#2f9599;stroke:#ffffff;stroke-width:0.48;"/>
    <path clip-path="url(#p40a500acf6)" d="M 328.658295 164.142831 
L 330.158295 162.642831 
L 331.658295 164.142831 
L 333.158295 162.642831 
L 331.658295 161.142831 
L 333.158295 159.642831 
L 331.658295 158.142831 
L 330.158295 159.642831 
L 328.658295 158.142831 
L 327.158295 159.642831 
L 328.658295 161.142831 
L 327.158295 162.642831 
z
" style="fill:#2f9599;stroke:#ffffff;stroke-width:0.48;"/>
    <path clip-path="url(#p40a500acf6)" d="M 335.421932 164.142831 
L 336.921932 162.642831 
L 338.421932 164.142831 
L 339.921932 162.642831 
L 338.421932 161.142831 
L 339.921932 159.642831 
L 338.421932 158.142831 
L 336.921932 159.642831 
L 335.421932 158.142831 
L 333.921932 159.642831 
L 335.421932 161.142831 
L 333.921932 162.642831 
z
" style="fill:#2f9599;stroke:#ffffff;stroke-width:0.48;"/>
    <path clip-path="url(#p40a500acf6)" d="M 342.185568 164.142831 
L 343.685568 162.642831 
L 345.185568 164.142831 
L 346.685568 162.642831 
L 345.185568 161.142831 
L 346.685568 159.642831 
L 345.185568 158.142831 
L 343.685568 159.642831 
L 342.185568 158.142831 
L 340.685568 159.642831 
L 342.185568 161.142831 
L 340.685568 162.642831 
z
" style="fill:#2f9599;stroke:#ffffff;stroke-width:0.48;"/>
    <path clip-path="url(#p40a500acf6)" d="M 348.949205 164.142831 
L 350.449205 162.642831 
L 351.949205 164.142831 
L 353.449205 162.642831 
L 351.949205 161.142831 
L 353.449205 159.642831 
L 351.949205 158.142831 
L 350.449205 159.642831 
L 348.949205 158.142831 
L 347.449205 159.642831 
L 348.949205 161.142831 
L 347.449205 162.642831 
z
" style="fill:#2f9599;stroke:#ffffff;stroke-width:0.48;"/>
    <path clip-path="url(#p40a500acf6)" d="M 355.712841 164.142831 
L 357.212841 162.642831 
L 358.712841 164.142831 
L 360.212841 162.642831 
L 358.712841 161.142831 
L 360.212841 159.642831 
L 358.712841 158.142831 
L 357.212841 159.642831 
L 355.712841 158.142831 
L 354.212841 159.642831 
L 355.712841 161.142831 
L 354.212841 162.642831 
z
" style="fill:#2f9599;stroke:#ffffff;stroke-width:0.48;"/>
    <path clip-path="url(#p40a500acf6)" d="M 362.476477 164.142831 
L 363.976477 162.642831 
L 365.476477 164.142831 
L 366.976477 162.642831 
L 365.476477 161.142831 
L 366.976477 159.642831 
L 365.476477 158.142831 
L 363.976477 159.642831 
L 362.476477 158.142831 
L 360.976477 159.642831 
L 362.476477 161.142831 
L 360.976477 162.642831 
z
" style="fill:#2f9599;stroke:#ffffff;stroke-width:0.48;"/>
    <path clip-path="url(#p40a500acf6)" d="M 369.240114 164.142831 
L 370.740114 162.642831 
L 372.240114 164.142831 
L 373.740114 162.642831 
L 372.240114 161.142831 
L 373.740114 159.642831 
L 372.240114 158.142831 
L 370.740114 159.642831 
L 369.240114 158.142831 
L 367.740114 159.642831 
L 369.240114 161.142831 
L 367.740114 162.642831 
z
" style="fill:#2f9599;stroke:#ffffff;stroke-width:0.48;"/>
    <path clip-path="url(#p40a500acf6)" d="M 376.00375 164.142831 
L 377.50375 162.642831 
L 379.00375 164.142831 
L 380.50375 162.642831 
L 379.00375 161.142831 
L 380.50375 159.642831 
L 379.00375 158.142831 
L 377.50375 159.642831 
L 376.00375 158.142831 
L 374.50375 159.642831 
L 376.00375 161.142831 
L 374.50375 162.642831 
z
" style="fill:#2f9599;stroke:#ffffff;stroke-width:0.48;"/>
    <path clip-path="url(#p40a500acf6)" d="M 382.767386 164.142831 
L 384.267386 162.642831 
L 385.767386 164.142831 
L 387.267386 162.642831 
L 385.767386 161.142831 
L 387.267386 159.642831 
L 385.767386 158.142831 
L 384.267386 159.642831 
L 382.767386 158.142831 
L 381.267386 159.642831 
L 382.767386 161.142831 
L 381.267386 162.642831 
z
" style="fill:#2f9599;stroke:#ffffff;stroke-width:0.48;"/>
    <path clip-path="url(#p40a500acf6)" d="M 389.531023 164.142831 
L 391.031023 162.642831 
L 392.531023 164.142831 
L 394.031023 162.642831 
L 392.531023 161.142831 
L 394.031023 159.642831 
L 392.531023 158.142831 
L 391.031023 159.642831 
L 389.531023 158.142831 
L 388.031023 159.642831 
L 389.531023 161.142831 
L 388.031023 162.642831 
z
" style="fill:#2f9599;stroke:#ffffff;stroke-width:0.48;"/>
    <path clip-path="url(#p40a500acf6)" d="M 64.255157 107.89468 
L 64.255157 112.13732 
L 68.497798 112.13732 
L 68.497798 107.89468 
z
" style="fill:#a7226e;stroke:#ffffff;stroke-width:0.48;"/>
    <path clip-path="url(#p40a500acf6)" d="M 71.018793 107.89468 
L 71.018793 112.13732 
L 75.261434 112.13732 
L 75.261434 107.89468 
z
" style="fill:#a7226e;stroke:#ffffff;stroke-width:0.48;"/>
    <path clip-path="url(#p40a500acf6)" d="M 77.78243 107.89468 
L 77.78243 112.13732 
L 82.02507 112.13732 
L 82.02507 107.89468 
z
" style="fill:#a7226e;stroke:#ffffff;stroke-width:0.48;"/>
    <path clip-path="url(#p40a500acf6)" d="M 84.546066 107.89468 
L 84.546066 112.13732 
L 88.788707 112.13732 
L 88.788707 107.89468 
z
" style="fill:#a7226e;stroke:#ffffff;stroke-width:0.48;"/>
    <path clip-path="url(#p40a500acf6)" d="M 91.309702 107.89468 
L 91.309702 112.13732 
L 95.552343 112.13732 
L 95.552343 107.89468 
z
" style="fill:#a7226e;stroke:#ffffff;stroke-width:0.48;"/>
    <path clip-path="url(#p40a500acf6)" d="M 98.073339 120.85468 
L 98.073339 125.09732 
L 102.315979 125.09732 
L 102.315979 120.85468 
z
" style="fill:#a7226e;stroke:#ffffff;stroke-width:0.48;"/>
    <path clip-path="url(#p40a500acf6)" d="M 104.836975 120.85468 
L 104.836975 125.09732 
L 109.079616 125.09732 
L 109.079616 120.85468 
z
" style="fill:#a7226e;stroke:#ffffff;stroke-width:0.48;"/>
    <path clip-path="url(#p40a500acf6)" d="M 111.600611 120.85468 
L 111.600611 125.09732 
L 115.843252 125.09732 
L 115.843252 120.85468 
z
" style="fill:#a7226e;stroke:#ffffff;stroke-width:0.48;"/>
    <path clip-path="url(#p40a500acf6)" d="M 118.364248 134.232744 
L 118.364248 138.475385 
L 122.606889 138.475385 
L 122.606889 134.232744 
z
" style="fill:#a7226e;stroke:#ffffff;stroke-width:0.48;"/>
    <path clip-path="url(#p40a500acf6)" d="M 125.127884 134.232744 
L 125.127884 138.475385 
L 129.370525 138.475385 
L 129.370525 134.232744 
z
" style="fill:#a7226e;stroke:#ffffff;stroke-width:0.48;"/>
    <path clip-path="url(#p40a500acf6)" d="M 131.891521 148.049434 
L 131.891521 152.292074 
L 136.134161 152.292074 
L 136.134161 148.049434 
z
" style="fill:#a7226e;stroke:#ffffff;stroke-width:0.48;"/>
    <path clip-path="url(#p40a500acf6)" d="M 138.655157 120.85468 
L 138.655157 125.09732 
L 142.897798 125.09732 
L 142.897798 120.85468 
z
" style="fill:#a7226e;stroke:#ffffff;stroke-width:0.48;"/>
    <path clip-path="url(#p40a500acf6)" d="M 145.418793 120.85468 
L 145.418793 125.09732 
L 149.661434 125.09732 
L 149.661434 120.85468 
z
" style="fill:#a7226e;stroke:#ffffff;stroke-width:0.48;"/>
    <path clip-path="url(#p40a500acf6)" d="M 152.18243 120.85468 
L 152.18243 125.09732 
L 156.42507 125.09732 
L 156.42507 120.85468 
z
" style="fill:#a7226e;stroke:#ffffff;stroke-width:0.48;"/>
    <path clip-path="url(#p40a500acf6)" d="M 158.946066 107.89468 
L 158.946066 112.13732 
L 163.188707 112.13732 
L 163.188707 107.89468 
z
" style="fill:#a7226e;stroke:#ffffff;stroke-width:0.48;"/>
    <path clip-path="url(#p40a500acf6)" d="M 165.709702 120.85468 
L 165.709702 125.09732 
L 169.952343 125.09732 
L 169.952343 120.85468 
z
" style="fill:#a7226e;stroke:#ffffff;stroke-width:0.48;"/>
    <path clip-path="url(#p40a500acf6)" d="M 172.473339 107.89468 
L 172.473339 112.13732 
L 176.715979 112.13732 
L 176.715979 107.89468 
z
" style="fill:#a7226e;stroke:#ffffff;stroke-width:0.48;"/>
    <path clip-path="url(#p40a500acf6)" d="M 179.236975 107.89468 
L 179.236975 112.13732 
L 183.479616 112.13732 
L 183.479616 107.89468 
z
" style="fill:#a7226e;stroke:#ffffff;stroke-width:0.48;"/>
    <path clip-path="url(#p40a500acf6)" d="M 186.000611 27.396651 
L 186.000611 31.639292 
L 190.243252 31.639292 
L 190.243252 27.396651 
z
" style="fill:#a7226e;stroke:#ffffff;stroke-width:0.48;"/>
    <path clip-path="url(#p40a500acf6)" d="M 192.764248 17.17468 
L 192.764248 21.41732 
L 197.006889 21.41732 
L 197.006889 17.17468 
z
" style="fill:#a7226e;stroke:#ffffff;stroke-width:0.48;"/>
    <path clip-path="url(#p40a500acf6)" d="M 199.527884 17.17468 
L 199.527884 21.41732 
L 203.770525 21.41732 
L 203.770525 17.17468 
z
" style="fill:#a7226e;stroke:#ffffff;stroke-width:0.48;"/>
    <path clip-path="url(#p40a500acf6)" d="M 206.291521 17.17468 
L 206.291521 21.41732 
L 210.534161 21.41732 
L 210.534161 17.17468 
z
" style="fill:#a7226e;stroke:#ffffff;stroke-width:0.48;"/>
    <path clip-path="url(#p40a500acf6)" d="M 213.055157 17.17468 
L 213.055157 21.41732 
L 217.297798 21.41732 
L 217.297798 17.17468 
z
" style="fill:#a7226e;stroke:#ffffff;stroke-width:0.48;"/>
    <path clip-path="url(#p40a500acf6)" d="M 219.818793 48.729462 
L 219.818793 52.972103 
L 224.061434 52.972103 
L 224.061434 48.729462 
z
" style="fill:#a7226e;stroke:#ffffff;stroke-width:0.48;"/>
    <path clip-path="url(#p40a500acf6)" d="M 226.58243 48.729462 
L 226.58243 52.972103 
L 230.82507 52.972103 
L 230.82507 48.729462 
z
" style="fill:#a7226e;stroke:#ffffff;stroke-width:0.48;"/>
    <path clip-path="url(#p40a500acf6)" d="M 233.346066 48.729462 
L 233.346066 52.972103 
L 237.588707 52.972103 
L 237.588707 48.729462 
z
" style="fill:#a7226e;stroke:#ffffff;stroke-width:0.48;"/>
    <path clip-path="url(#p40a500acf6)" d="M 240.109702 17.17468 
L 240.109702 21.41732 
L 244.352343 21.41732 
L 244.352343 17.17468 
z
" style="fill:#a7226e;stroke:#ffffff;stroke-width:0.48;"/>
    <path clip-path="url(#p40a500acf6)" d="M 246.873339 17.17468 
L 246.873339 21.41732 
L 251.115979 21.41732 
L 251.115979 17.17468 
z
" style="fill:#a7226e;stroke:#ffffff;stroke-width:0.48;"/>
    <path clip-path="url(#p40a500acf6)" d="M 253.636975 17.17468 
L 253.636975 21.41732 
L 257.879616 21.41732 
L 257.879616 17.17468 
z
" style="fill:#a7226e;stroke:#ffffff;stroke-width:0.48;"/>
    <path clip-path="url(#p40a500acf6)" d="M 260.400611 17.17468 
L 260.400611 21.41732 
L 264.643252 21.41732 
L 264.643252 17.17468 
z
" style="fill:#a7226e;stroke:#ffffff;stroke-width:0.48;"/>
    <path clip-path="url(#p40a500acf6)" d="M 267.164248 17.17468 
L 267.164248 21.41732 
L 271.406889 21.41732 
L 271.406889 17.17468 
z
" style="fill:#a7226e;stroke:#ffffff;stroke-width:0.48;"/>
    <path clip-path="url(#p40a500acf6)" d="M 273.927884 17.17468 
L 273.927884 21.41732 
L 278.170525 21.41732 
L 278.170525 17.17468 
z
" style="fill:#a7226e;stroke:#ffffff;stroke-width:0.48;"/>
    <path clip-path="url(#p40a500acf6)" d="M 280.691521 17.17468 
L 280.691521 21.41732 
L 284.934161 21.41732 
L 284.934161 17.17468 
z
" style="fill:#a7226e;stroke:#ffffff;stroke-width:0.48;"/>
    <path clip-path="url(#p40a500acf6)" d="M 287.455157 259.09468 
L 287.455157 263.33732 
L 291.697798 263.33732 
L 291.697798 259.09468 
z
" style="fill:#a7226e;stroke:#ffffff;stroke-width:0.48;"/>
    <path clip-path="url(#p40a500acf6)" d="M 294.218793 259.09468 
L 294.218793 263.33732 
L 298.461434 263.33732 
L 298.461434 259.09468 
z
" style="fill:#a7226e;stroke:#ffffff;stroke-width:0.48;"/>
    <path clip-path="url(#p40a500acf6)" d="M 300.98243 259.09468 
L 300.98243 263.33732 
L 305.22507 263.33732 
L 305.22507 259.09468 
z
" style="fill:#a7226e;stroke:#ffffff;stroke-width:0.48;"/>
    <path clip-path="url(#p40a500acf6)" d="M 307.746066 259.09468 
L 307.746066 263.33732 
L 311.988707 263.33732 
L 311.988707 259.09468 
z
" style="fill:#a7226e;stroke:#ffffff;stroke-width:0.48;"/>
    <path clip-path="url(#p40a500acf6)" d="M 314.509702 259.09468 
L 314.509702 263.33732 
L 318.752343 263.33732 
L 318.752343 259.09468 
z
" style="fill:#a7226e;stroke:#ffffff;stroke-width:0.48;"/>
    <path clip-path="url(#p40a500acf6)" d="M 321.273339 259.09468 
L 321.273339 263.33732 
L 325.515979 263.33732 
L 325.515979 259.09468 
z
" style="fill:#a7226e;stroke:#ffffff;stroke-width:0.48;"/>
    <path clip-path="url(#p40a500acf6)" d="M 328.036975 259.09468 
L 328.036975 263.33732 
L 332.279616 263.33732 
L 332.279616 259.09468 
z
" style="fill:#a7226e;stroke:#ffffff;stroke-width:0.48;"/>
    <path clip-path="url(#p40a500acf6)" d="M 334.800611 259.09468 
L 334.800611 263.33732 
L 339.043252 263.33732 
L 339.043252 259.09468 
z
" style="fill:#a7226e;stroke:#ffffff;stroke-width:0.48;"/>
    <path clip-path="url(#p40a500acf6)" d="M 341.564248 259.09468 
L 341.564248 263.33732 
L 345.806889 263.33732 
L 345.806889 259.09468 
z
" style="fill:#a7226e;stroke:#ffffff;stroke-width:0.48;"/>
    <path clip-path="url(#p40a500acf6)" d="M 348.327884 259.09468 
L 348.327884 263.33732 
L 352.570525 263.33732 
L 352.570525 259.09468 
z
" style="fill:#a7226e;stroke:#ffffff;stroke-width:0.48;"/>
    <path clip-path="url(#p40a500acf6)" d="M 355.091521 259.09468 
L 355.091521 263.33732 
L 359.334161 263.33732 
L 359.334161 259.09468 
z
" style="fill:#a7226e;stroke:#ffffff;stroke-width:0.48;"/>
    <path clip-path="url(#p40a500acf6)" d="M 361.855157 259.09468 
L 361.855157 263.33732 
L 366.097798 263.33732 
L 366.097798 259.09468 
z
" style="fill:#a7226e;stroke:#ffffff;stroke-width:0.48;"/>
    <path clip-path="url(#p40a500acf6)" d="M 368.618793 259.09468 
L 368.618793 263.33732 
L 372.861434 263.33732 
L 372.861434 259.09468 
z
" style="fill:#a7226e;stroke:#ffffff;stroke-width:0.48;"/>
    <path clip-path="url(#p40a500acf6)" d="M 375.38243 259.09468 
L 375.38243 263.33732 
L 379.62507 263.33732 
L 379.62507 259.09468 
z
" style="fill:#a7226e;stroke:#ffffff;stroke-width:0.48;"/>
    <path clip-path="url(#p40a500acf6)" d="M 382.146066 259.09468 
L 382.146066 263.33732 
L 386.388707 263.33732 
L 386.388707 259.09468 
z
" style="fill:#a7226e;stroke:#ffffff;stroke-width:0.48;"/>
    <path clip-path="url(#p40a500acf6)" d="M 388.909702 259.09468 
L 388.909702 263.33732 
L 393.152343 263.33732 
L 393.152343 259.09468 
z
" style="fill:#a7226e;stroke:#ffffff;stroke-width:0.48;"/>
   </g>
   <g id="PathCollection_2"/>
   <g id="PathCollection_3"/>
   <g id="PathCollection_4"/>
   <g id="matplotlib.axis_1">
    <g id="xtick_1">
     <g id="line2d_1">
      <defs>
       <path d="M 0 0 
L 0 3.5 
" id="mb20ce7f6b3" style="stroke:#000000;stroke-width:0.8;"/>
      </defs>
      <g>
       <use style="stroke:#000000;stroke-width:0.8;" x="59.612841" xlink:href="#mb20ce7f6b3" y="273.312"/>
      </g>
     </g>
     <g id="text_1">
      <!-- 0.0 -->
      <g transform="translate(51.661278 287.910438)scale(0.1 -0.1)">
       <defs>
        <path d="M 31.78125 66.40625 
Q 24.171875 66.40625 20.328125 58.90625 
Q 16.5 51.421875 16.5 36.375 
Q 16.5 21.390625 20.328125 13.890625 
Q 24.171875 6.390625 31.78125 6.390625 
Q 39.453125 6.390625 43.28125 13.890625 
Q 47.125 21.390625 47.125 36.375 
Q 47.125 51.421875 43.28125 58.90625 
Q 39.453125 66.40625 31.78125 66.40625 
z
M 31.78125 74.21875 
Q 44.046875 74.21875 50.515625 64.515625 
Q 56.984375 54.828125 56.984375 36.375 
Q 56.984375 17.96875 50.515625 8.265625 
Q 44.046875 -1.421875 31.78125 -1.421875 
Q 19.53125 -1.421875 13.0625 8.265625 
Q 6.59375 17.96875 6.59375 36.375 
Q 6.59375 54.828125 13.0625 64.515625 
Q 19.53125 74.21875 31.78125 74.21875 
z
" id="DejaVuSans-48"/>
        <path d="M 10.6875 12.40625 
L 21 12.40625 
L 21 0 
L 10.6875 0 
z
" id="DejaVuSans-46"/>
       </defs>
       <use xlink:href="#DejaVuSans-48"/>
       <use x="63.623047" xlink:href="#DejaVuSans-46"/>
       <use x="95.410156" xlink:href="#DejaVuSans-48"/>
      </g>
     </g>
    </g>
    <g id="xtick_2">
     <g id="line2d_2">
      <g>
       <use style="stroke:#000000;stroke-width:0.8;" x="127.249205" xlink:href="#mb20ce7f6b3" y="273.312"/>
      </g>
     </g>
     <g id="text_2">
      <!-- 0.2 -->
      <g transform="translate(119.297642 287.910438)scale(0.1 -0.1)">
       <defs>
        <path d="M 19.1875 8.296875 
L 53.609375 8.296875 
L 53.609375 0 
L 7.328125 0 
L 7.328125 8.296875 
Q 12.9375 14.109375 22.625 23.890625 
Q 32.328125 33.6875 34.8125 36.53125 
Q 39.546875 41.84375 41.421875 45.53125 
Q 43.3125 49.21875 43.3125 52.78125 
Q 43.3125 58.59375 39.234375 62.25 
Q 35.15625 65.921875 28.609375 65.921875 
Q 23.96875 65.921875 18.8125 64.3125 
Q 13.671875 62.703125 7.8125 59.421875 
L 7.8125 69.390625 
Q 13.765625 71.78125 18.9375 73 
Q 24.125 74.21875 28.421875 74.21875 
Q 39.75 74.21875 46.484375 68.546875 
Q 53.21875 62.890625 53.21875 53.421875 
Q 53.21875 48.921875 51.53125 44.890625 
Q 49.859375 40.875 45.40625 35.40625 
Q 44.1875 33.984375 37.640625 27.21875 
Q 31.109375 20.453125 19.1875 8.296875 
z
" id="DejaVuSans-50"/>
       </defs>
       <use xlink:href="#DejaVuSans-48"/>
       <use x="63.623047" xlink:href="#DejaVuSans-46"/>
       <use x="95.410156" xlink:href="#DejaVuSans-50"/>
      </g>
     </g>
    </g>
    <g id="xtick_3">
     <g id="line2d_3">
      <g>
       <use style="stroke:#000000;stroke-width:0.8;" x="194.885568" xlink:href="#mb20ce7f6b3" y="273.312"/>
      </g>
     </g>
     <g id="text_3">
      <!-- 0.4 -->
      <g transform="translate(186.934006 287.910438)scale(0.1 -0.1)">
       <defs>
        <path d="M 37.796875 64.3125 
L 12.890625 25.390625 
L 37.796875 25.390625 
z
M 35.203125 72.90625 
L 47.609375 72.90625 
L 47.609375 25.390625 
L 58.015625 25.390625 
L 58.015625 17.1875 
L 47.609375 17.1875 
L 47.609375 0 
L 37.796875 0 
L 37.796875 17.1875 
L 4.890625 17.1875 
L 4.890625 26.703125 
z
" id="DejaVuSans-52"/>
       </defs>
       <use xlink:href="#DejaVuSans-48"/>
       <use x="63.623047" xlink:href="#DejaVuSans-46"/>
       <use x="95.410156" xlink:href="#DejaVuSans-52"/>
      </g>
     </g>
    </g>
    <g id="xtick_4">
     <g id="line2d_4">
      <g>
       <use style="stroke:#000000;stroke-width:0.8;" x="262.521932" xlink:href="#mb20ce7f6b3" y="273.312"/>
      </g>
     </g>
     <g id="text_4">
      <!-- 0.6 -->
      <g transform="translate(254.570369 287.910438)scale(0.1 -0.1)">
       <defs>
        <path d="M 33.015625 40.375 
Q 26.375 40.375 22.484375 35.828125 
Q 18.609375 31.296875 18.609375 23.390625 
Q 18.609375 15.53125 22.484375 10.953125 
Q 26.375 6.390625 33.015625 6.390625 
Q 39.65625 6.390625 43.53125 10.953125 
Q 47.40625 15.53125 47.40625 23.390625 
Q 47.40625 31.296875 43.53125 35.828125 
Q 39.65625 40.375 33.015625 40.375 
z
M 52.59375 71.296875 
L 52.59375 62.3125 
Q 48.875 64.0625 45.09375 64.984375 
Q 41.3125 65.921875 37.59375 65.921875 
Q 27.828125 65.921875 22.671875 59.328125 
Q 17.53125 52.734375 16.796875 39.40625 
Q 19.671875 43.65625 24.015625 45.921875 
Q 28.375 48.1875 33.59375 48.1875 
Q 44.578125 48.1875 50.953125 41.515625 
Q 57.328125 34.859375 57.328125 23.390625 
Q 57.328125 12.15625 50.6875 5.359375 
Q 44.046875 -1.421875 33.015625 -1.421875 
Q 20.359375 -1.421875 13.671875 8.265625 
Q 6.984375 17.96875 6.984375 36.375 
Q 6.984375 53.65625 15.1875 63.9375 
Q 23.390625 74.21875 37.203125 74.21875 
Q 40.921875 74.21875 44.703125 73.484375 
Q 48.484375 72.75 52.59375 71.296875 
z
" id="DejaVuSans-54"/>
       </defs>
       <use xlink:href="#DejaVuSans-48"/>
       <use x="63.623047" xlink:href="#DejaVuSans-46"/>
       <use x="95.410156" xlink:href="#DejaVuSans-54"/>
      </g>
     </g>
    </g>
    <g id="xtick_5">
     <g id="line2d_5">
      <g>
       <use style="stroke:#000000;stroke-width:0.8;" x="330.158295" xlink:href="#mb20ce7f6b3" y="273.312"/>
      </g>
     </g>
     <g id="text_5">
      <!-- 0.8 -->
      <g transform="translate(322.206733 287.910438)scale(0.1 -0.1)">
       <defs>
        <path d="M 31.78125 34.625 
Q 24.75 34.625 20.71875 30.859375 
Q 16.703125 27.09375 16.703125 20.515625 
Q 16.703125 13.921875 20.71875 10.15625 
Q 24.75 6.390625 31.78125 6.390625 
Q 38.8125 6.390625 42.859375 10.171875 
Q 46.921875 13.96875 46.921875 20.515625 
Q 46.921875 27.09375 42.890625 30.859375 
Q 38.875 34.625 31.78125 34.625 
z
M 21.921875 38.8125 
Q 15.578125 40.375 12.03125 44.71875 
Q 8.5 49.078125 8.5 55.328125 
Q 8.5 64.0625 14.71875 69.140625 
Q 20.953125 74.21875 31.78125 74.21875 
Q 42.671875 74.21875 48.875 69.140625 
Q 55.078125 64.0625 55.078125 55.328125 
Q 55.078125 49.078125 51.53125 44.71875 
Q 48 40.375 41.703125 38.8125 
Q 48.828125 37.15625 52.796875 32.3125 
Q 56.78125 27.484375 56.78125 20.515625 
Q 56.78125 9.90625 50.3125 4.234375 
Q 43.84375 -1.421875 31.78125 -1.421875 
Q 19.734375 -1.421875 13.25 4.234375 
Q 6.78125 9.90625 6.78125 20.515625 
Q 6.78125 27.484375 10.78125 32.3125 
Q 14.796875 37.15625 21.921875 38.8125 
z
M 18.3125 54.390625 
Q 18.3125 48.734375 21.84375 45.5625 
Q 25.390625 42.390625 31.78125 42.390625 
Q 38.140625 42.390625 41.71875 45.5625 
Q 45.3125 48.734375 45.3125 54.390625 
Q 45.3125 60.0625 41.71875 63.234375 
Q 38.140625 66.40625 31.78125 66.40625 
Q 25.390625 66.40625 21.84375 63.234375 
Q 18.3125 60.0625 18.3125 54.390625 
z
" id="DejaVuSans-56"/>
       </defs>
       <use xlink:href="#DejaVuSans-48"/>
       <use x="63.623047" xlink:href="#DejaVuSans-46"/>
       <use x="95.410156" xlink:href="#DejaVuSans-56"/>
      </g>
     </g>
    </g>
    <g id="xtick_6">
     <g id="line2d_6">
      <g>
       <use style="stroke:#000000;stroke-width:0.8;" x="397.794659" xlink:href="#mb20ce7f6b3" y="273.312"/>
      </g>
     </g>
     <g id="text_6">
      <!-- 1.0 -->
      <g transform="translate(389.843097 287.910438)scale(0.1 -0.1)">
       <defs>
        <path d="M 12.40625 8.296875 
L 28.515625 8.296875 
L 28.515625 63.921875 
L 10.984375 60.40625 
L 10.984375 69.390625 
L 28.421875 72.90625 
L 38.28125 72.90625 
L 38.28125 8.296875 
L 54.390625 8.296875 
L 54.390625 0 
L 12.40625 0 
z
" id="DejaVuSans-49"/>
       </defs>
       <use xlink:href="#DejaVuSans-49"/>
       <use x="63.623047" xlink:href="#DejaVuSans-46"/>
       <use x="95.410156" xlink:href="#DejaVuSans-48"/>
      </g>
     </g>
    </g>
    <g id="text_7">
     <!-- cutoff -->
     <g transform="translate(214.245938 301.588562)scale(0.1 -0.1)">
      <defs>
       <path d="M 48.78125 52.59375 
L 48.78125 44.1875 
Q 44.96875 46.296875 41.140625 47.34375 
Q 37.3125 48.390625 33.40625 48.390625 
Q 24.65625 48.390625 19.8125 42.84375 
Q 14.984375 37.3125 14.984375 27.296875 
Q 14.984375 17.28125 19.8125 11.734375 
Q 24.65625 6.203125 33.40625 6.203125 
Q 37.3125 6.203125 41.140625 7.25 
Q 44.96875 8.296875 48.78125 10.40625 
L 48.78125 2.09375 
Q 45.015625 0.34375 40.984375 -0.53125 
Q 36.96875 -1.421875 32.421875 -1.421875 
Q 20.0625 -1.421875 12.78125 6.34375 
Q 5.515625 14.109375 5.515625 27.296875 
Q 5.515625 40.671875 12.859375 48.328125 
Q 20.21875 56 33.015625 56 
Q 37.15625 56 41.109375 55.140625 
Q 45.0625 54.296875 48.78125 52.59375 
z
" id="DejaVuSans-99"/>
       <path d="M 8.5 21.578125 
L 8.5 54.6875 
L 17.484375 54.6875 
L 17.484375 21.921875 
Q 17.484375 14.15625 20.5 10.265625 
Q 23.53125 6.390625 29.59375 6.390625 
Q 36.859375 6.390625 41.078125 11.03125 
Q 45.3125 15.671875 45.3125 23.6875 
L 45.3125 54.6875 
L 54.296875 54.6875 
L 54.296875 0 
L 45.3125 0 
L 45.3125 8.40625 
Q 42.046875 3.421875 37.71875 1 
Q 33.40625 -1.421875 27.6875 -1.421875 
Q 18.265625 -1.421875 13.375 4.4375 
Q 8.5 10.296875 8.5 21.578125 
z
M 31.109375 56 
z
" id="DejaVuSans-117"/>
       <path d="M 18.3125 70.21875 
L 18.3125 54.6875 
L 36.8125 54.6875 
L 36.8125 47.703125 
L 18.3125 47.703125 
L 18.3125 18.015625 
Q 18.3125 11.328125 20.140625 9.421875 
Q 21.96875 7.515625 27.59375 7.515625 
L 36.8125 7.515625 
L 36.8125 0 
L 27.59375 0 
Q 17.1875 0 13.234375 3.875 
Q 9.28125 7.765625 9.28125 18.015625 
L 9.28125 47.703125 
L 2.6875 47.703125 
L 2.6875 54.6875 
L 9.28125 54.6875 
L 9.28125 70.21875 
z
" id="DejaVuSans-116"/>
       <path d="M 30.609375 48.390625 
Q 23.390625 48.390625 19.1875 42.75 
Q 14.984375 37.109375 14.984375 27.296875 
Q 14.984375 17.484375 19.15625 11.84375 
Q 23.34375 6.203125 30.609375 6.203125 
Q 37.796875 6.203125 41.984375 11.859375 
Q 46.1875 17.53125 46.1875 27.296875 
Q 46.1875 37.015625 41.984375 42.703125 
Q 37.796875 48.390625 30.609375 48.390625 
z
M 30.609375 56 
Q 42.328125 56 49.015625 48.375 
Q 55.71875 40.765625 55.71875 27.296875 
Q 55.71875 13.875 49.015625 6.21875 
Q 42.328125 -1.421875 30.609375 -1.421875 
Q 18.84375 -1.421875 12.171875 6.21875 
Q 5.515625 13.875 5.515625 27.296875 
Q 5.515625 40.765625 12.171875 48.375 
Q 18.84375 56 30.609375 56 
z
" id="DejaVuSans-111"/>
       <path d="M 37.109375 75.984375 
L 37.109375 68.5 
L 28.515625 68.5 
Q 23.6875 68.5 21.796875 66.546875 
Q 19.921875 64.59375 19.921875 59.515625 
L 19.921875 54.6875 
L 34.71875 54.6875 
L 34.71875 47.703125 
L 19.921875 47.703125 
L 19.921875 0 
L 10.890625 0 
L 10.890625 47.703125 
L 2.296875 47.703125 
L 2.296875 54.6875 
L 10.890625 54.6875 
L 10.890625 58.5 
Q 10.890625 67.625 15.140625 71.796875 
Q 19.390625 75.984375 28.609375 75.984375 
z
" id="DejaVuSans-102"/>
      </defs>
      <use xlink:href="#DejaVuSans-99"/>
      <use x="54.980469" xlink:href="#DejaVuSans-117"/>
      <use x="118.359375" xlink:href="#DejaVuSans-116"/>
      <use x="157.568359" xlink:href="#DejaVuSans-111"/>
      <use x="218.75" xlink:href="#DejaVuSans-102"/>
      <use x="253.955078" xlink:href="#DejaVuSans-102"/>
     </g>
    </g>
   </g>
   <g id="matplotlib.axis_2">
    <g id="ytick_1">
     <g id="line2d_7">
      <defs>
       <path d="M 0 0 
L -3.5 0 
" id="m4914f1ce9c" style="stroke:#000000;stroke-width:0.8;"/>
      </defs>
      <g>
       <use style="stroke:#000000;stroke-width:0.8;" x="50.14375" xlink:href="#m4914f1ce9c" y="246.416188"/>
      </g>
     </g>
     <g id="text_8">
      <!-- 0.38 -->
      <g transform="translate(20.878125 250.215407)scale(0.1 -0.1)">
       <defs>
        <path d="M 40.578125 39.3125 
Q 47.65625 37.796875 51.625 33 
Q 55.609375 28.21875 55.609375 21.1875 
Q 55.609375 10.40625 48.1875 4.484375 
Q 40.765625 -1.421875 27.09375 -1.421875 
Q 22.515625 -1.421875 17.65625 -0.515625 
Q 12.796875 0.390625 7.625 2.203125 
L 7.625 11.71875 
Q 11.71875 9.328125 16.59375 8.109375 
Q 21.484375 6.890625 26.8125 6.890625 
Q 36.078125 6.890625 40.9375 10.546875 
Q 45.796875 14.203125 45.796875 21.1875 
Q 45.796875 27.640625 41.28125 31.265625 
Q 36.765625 34.90625 28.71875 34.90625 
L 20.21875 34.90625 
L 20.21875 43.015625 
L 29.109375 43.015625 
Q 36.375 43.015625 40.234375 45.921875 
Q 44.09375 48.828125 44.09375 54.296875 
Q 44.09375 59.90625 40.109375 62.90625 
Q 36.140625 65.921875 28.71875 65.921875 
Q 24.65625 65.921875 20.015625 65.03125 
Q 15.375 64.15625 9.8125 62.3125 
L 9.8125 71.09375 
Q 15.4375 72.65625 20.34375 73.4375 
Q 25.25 74.21875 29.59375 74.21875 
Q 40.828125 74.21875 47.359375 69.109375 
Q 53.90625 64.015625 53.90625 55.328125 
Q 53.90625 49.265625 50.4375 45.09375 
Q 46.96875 40.921875 40.578125 39.3125 
z
" id="DejaVuSans-51"/>
       </defs>
       <use xlink:href="#DejaVuSans-48"/>
       <use x="63.623047" xlink:href="#DejaVuSans-46"/>
       <use x="95.410156" xlink:href="#DejaVuSans-51"/>
       <use x="159.033203" xlink:href="#DejaVuSans-56"/>
      </g>
     </g>
    </g>
    <g id="ytick_2">
     <g id="line2d_8">
      <g>
       <use style="stroke:#000000;stroke-width:0.8;" x="50.14375" xlink:href="#m4914f1ce9c" y="215.678118"/>
      </g>
     </g>
     <g id="text_9">
      <!-- 0.40 -->
      <g transform="translate(20.878125 219.477336)scale(0.1 -0.1)">
       <use xlink:href="#DejaVuSans-48"/>
       <use x="63.623047" xlink:href="#DejaVuSans-46"/>
       <use x="95.410156" xlink:href="#DejaVuSans-52"/>
       <use x="159.033203" xlink:href="#DejaVuSans-48"/>
      </g>
     </g>
    </g>
    <g id="ytick_3">
     <g id="line2d_9">
      <g>
       <use style="stroke:#000000;stroke-width:0.8;" x="50.14375" xlink:href="#m4914f1ce9c" y="184.940047"/>
      </g>
     </g>
     <g id="text_10">
      <!-- 0.42 -->
      <g transform="translate(20.878125 188.739266)scale(0.1 -0.1)">
       <use xlink:href="#DejaVuSans-48"/>
       <use x="63.623047" xlink:href="#DejaVuSans-46"/>
       <use x="95.410156" xlink:href="#DejaVuSans-52"/>
       <use x="159.033203" xlink:href="#DejaVuSans-50"/>
      </g>
     </g>
    </g>
    <g id="ytick_4">
     <g id="line2d_10">
      <g>
       <use style="stroke:#000000;stroke-width:0.8;" x="50.14375" xlink:href="#m4914f1ce9c" y="154.201976"/>
      </g>
     </g>
     <g id="text_11">
      <!-- 0.44 -->
      <g transform="translate(20.878125 158.001195)scale(0.1 -0.1)">
       <use xlink:href="#DejaVuSans-48"/>
       <use x="63.623047" xlink:href="#DejaVuSans-46"/>
       <use x="95.410156" xlink:href="#DejaVuSans-52"/>
       <use x="159.033203" xlink:href="#DejaVuSans-52"/>
      </g>
     </g>
    </g>
    <g id="ytick_5">
     <g id="line2d_11">
      <g>
       <use style="stroke:#000000;stroke-width:0.8;" x="50.14375" xlink:href="#m4914f1ce9c" y="123.463906"/>
      </g>
     </g>
     <g id="text_12">
      <!-- 0.46 -->
      <g transform="translate(20.878125 127.263125)scale(0.1 -0.1)">
       <use xlink:href="#DejaVuSans-48"/>
       <use x="63.623047" xlink:href="#DejaVuSans-46"/>
       <use x="95.410156" xlink:href="#DejaVuSans-52"/>
       <use x="159.033203" xlink:href="#DejaVuSans-54"/>
      </g>
     </g>
    </g>
    <g id="ytick_6">
     <g id="line2d_12">
      <g>
       <use style="stroke:#000000;stroke-width:0.8;" x="50.14375" xlink:href="#m4914f1ce9c" y="92.725835"/>
      </g>
     </g>
     <g id="text_13">
      <!-- 0.48 -->
      <g transform="translate(20.878125 96.525054)scale(0.1 -0.1)">
       <use xlink:href="#DejaVuSans-48"/>
       <use x="63.623047" xlink:href="#DejaVuSans-46"/>
       <use x="95.410156" xlink:href="#DejaVuSans-52"/>
       <use x="159.033203" xlink:href="#DejaVuSans-56"/>
      </g>
     </g>
    </g>
    <g id="ytick_7">
     <g id="line2d_13">
      <g>
       <use style="stroke:#000000;stroke-width:0.8;" x="50.14375" xlink:href="#m4914f1ce9c" y="61.987765"/>
      </g>
     </g>
     <g id="text_14">
      <!-- 0.50 -->
      <g transform="translate(20.878125 65.786983)scale(0.1 -0.1)">
       <defs>
        <path d="M 10.796875 72.90625 
L 49.515625 72.90625 
L 49.515625 64.59375 
L 19.828125 64.59375 
L 19.828125 46.734375 
Q 21.96875 47.46875 24.109375 47.828125 
Q 26.265625 48.1875 28.421875 48.1875 
Q 40.625 48.1875 47.75 41.5 
Q 54.890625 34.8125 54.890625 23.390625 
Q 54.890625 11.625 47.5625 5.09375 
Q 40.234375 -1.421875 26.90625 -1.421875 
Q 22.3125 -1.421875 17.546875 -0.640625 
Q 12.796875 0.140625 7.71875 1.703125 
L 7.71875 11.625 
Q 12.109375 9.234375 16.796875 8.0625 
Q 21.484375 6.890625 26.703125 6.890625 
Q 35.15625 6.890625 40.078125 11.328125 
Q 45.015625 15.765625 45.015625 23.390625 
Q 45.015625 31 40.078125 35.4375 
Q 35.15625 39.890625 26.703125 39.890625 
Q 22.75 39.890625 18.8125 39.015625 
Q 14.890625 38.140625 10.796875 36.28125 
z
" id="DejaVuSans-53"/>
       </defs>
       <use xlink:href="#DejaVuSans-48"/>
       <use x="63.623047" xlink:href="#DejaVuSans-46"/>
       <use x="95.410156" xlink:href="#DejaVuSans-53"/>
       <use x="159.033203" xlink:href="#DejaVuSans-48"/>
      </g>
     </g>
    </g>
    <g id="ytick_8">
     <g id="line2d_14">
      <g>
       <use style="stroke:#000000;stroke-width:0.8;" x="50.14375" xlink:href="#m4914f1ce9c" y="31.249694"/>
      </g>
     </g>
     <g id="text_15">
      <!-- 0.52 -->
      <g transform="translate(20.878125 35.048913)scale(0.1 -0.1)">
       <use xlink:href="#DejaVuSans-48"/>
       <use x="63.623047" xlink:href="#DejaVuSans-46"/>
       <use x="95.410156" xlink:href="#DejaVuSans-53"/>
       <use x="159.033203" xlink:href="#DejaVuSans-50"/>
      </g>
     </g>
    </g>
    <g id="text_16">
     <!-- performance -->
     <g transform="translate(14.798438 172.278656)rotate(-90)scale(0.1 -0.1)">
      <defs>
       <path d="M 18.109375 8.203125 
L 18.109375 -20.796875 
L 9.078125 -20.796875 
L 9.078125 54.6875 
L 18.109375 54.6875 
L 18.109375 46.390625 
Q 20.953125 51.265625 25.265625 53.625 
Q 29.59375 56 35.59375 56 
Q 45.5625 56 51.78125 48.09375 
Q 58.015625 40.1875 58.015625 27.296875 
Q 58.015625 14.40625 51.78125 6.484375 
Q 45.5625 -1.421875 35.59375 -1.421875 
Q 29.59375 -1.421875 25.265625 0.953125 
Q 20.953125 3.328125 18.109375 8.203125 
z
M 48.6875 27.296875 
Q 48.6875 37.203125 44.609375 42.84375 
Q 40.53125 48.484375 33.40625 48.484375 
Q 26.265625 48.484375 22.1875 42.84375 
Q 18.109375 37.203125 18.109375 27.296875 
Q 18.109375 17.390625 22.1875 11.75 
Q 26.265625 6.109375 33.40625 6.109375 
Q 40.53125 6.109375 44.609375 11.75 
Q 48.6875 17.390625 48.6875 27.296875 
z
" id="DejaVuSans-112"/>
       <path d="M 56.203125 29.59375 
L 56.203125 25.203125 
L 14.890625 25.203125 
Q 15.484375 15.921875 20.484375 11.0625 
Q 25.484375 6.203125 34.421875 6.203125 
Q 39.59375 6.203125 44.453125 7.46875 
Q 49.3125 8.734375 54.109375 11.28125 
L 54.109375 2.78125 
Q 49.265625 0.734375 44.1875 -0.34375 
Q 39.109375 -1.421875 33.890625 -1.421875 
Q 20.796875 -1.421875 13.15625 6.1875 
Q 5.515625 13.8125 5.515625 26.8125 
Q 5.515625 40.234375 12.765625 48.109375 
Q 20.015625 56 32.328125 56 
Q 43.359375 56 49.78125 48.890625 
Q 56.203125 41.796875 56.203125 29.59375 
z
M 47.21875 32.234375 
Q 47.125 39.59375 43.09375 43.984375 
Q 39.0625 48.390625 32.421875 48.390625 
Q 24.90625 48.390625 20.390625 44.140625 
Q 15.875 39.890625 15.1875 32.171875 
z
" id="DejaVuSans-101"/>
       <path d="M 41.109375 46.296875 
Q 39.59375 47.171875 37.8125 47.578125 
Q 36.03125 48 33.890625 48 
Q 26.265625 48 22.1875 43.046875 
Q 18.109375 38.09375 18.109375 28.8125 
L 18.109375 0 
L 9.078125 0 
L 9.078125 54.6875 
L 18.109375 54.6875 
L 18.109375 46.1875 
Q 20.953125 51.171875 25.484375 53.578125 
Q 30.03125 56 36.53125 56 
Q 37.453125 56 38.578125 55.875 
Q 39.703125 55.765625 41.0625 55.515625 
z
" id="DejaVuSans-114"/>
       <path d="M 52 44.1875 
Q 55.375 50.25 60.0625 53.125 
Q 64.75 56 71.09375 56 
Q 79.640625 56 84.28125 50.015625 
Q 88.921875 44.046875 88.921875 33.015625 
L 88.921875 0 
L 79.890625 0 
L 79.890625 32.71875 
Q 79.890625 40.578125 77.09375 44.375 
Q 74.3125 48.1875 68.609375 48.1875 
Q 61.625 48.1875 57.5625 43.546875 
Q 53.515625 38.921875 53.515625 30.90625 
L 53.515625 0 
L 44.484375 0 
L 44.484375 32.71875 
Q 44.484375 40.625 41.703125 44.40625 
Q 38.921875 48.1875 33.109375 48.1875 
Q 26.21875 48.1875 22.15625 43.53125 
Q 18.109375 38.875 18.109375 30.90625 
L 18.109375 0 
L 9.078125 0 
L 9.078125 54.6875 
L 18.109375 54.6875 
L 18.109375 46.1875 
Q 21.1875 51.21875 25.484375 53.609375 
Q 29.78125 56 35.6875 56 
Q 41.65625 56 45.828125 52.96875 
Q 50 49.953125 52 44.1875 
z
" id="DejaVuSans-109"/>
       <path d="M 34.28125 27.484375 
Q 23.390625 27.484375 19.1875 25 
Q 14.984375 22.515625 14.984375 16.5 
Q 14.984375 11.71875 18.140625 8.90625 
Q 21.296875 6.109375 26.703125 6.109375 
Q 34.1875 6.109375 38.703125 11.40625 
Q 43.21875 16.703125 43.21875 25.484375 
L 43.21875 27.484375 
z
M 52.203125 31.203125 
L 52.203125 0 
L 43.21875 0 
L 43.21875 8.296875 
Q 40.140625 3.328125 35.546875 0.953125 
Q 30.953125 -1.421875 24.3125 -1.421875 
Q 15.921875 -1.421875 10.953125 3.296875 
Q 6 8.015625 6 15.921875 
Q 6 25.140625 12.171875 29.828125 
Q 18.359375 34.515625 30.609375 34.515625 
L 43.21875 34.515625 
L 43.21875 35.40625 
Q 43.21875 41.609375 39.140625 45 
Q 35.0625 48.390625 27.6875 48.390625 
Q 23 48.390625 18.546875 47.265625 
Q 14.109375 46.140625 10.015625 43.890625 
L 10.015625 52.203125 
Q 14.9375 54.109375 19.578125 55.046875 
Q 24.21875 56 28.609375 56 
Q 40.484375 56 46.34375 49.84375 
Q 52.203125 43.703125 52.203125 31.203125 
z
" id="DejaVuSans-97"/>
       <path d="M 54.890625 33.015625 
L 54.890625 0 
L 45.90625 0 
L 45.90625 32.71875 
Q 45.90625 40.484375 42.875 44.328125 
Q 39.84375 48.1875 33.796875 48.1875 
Q 26.515625 48.1875 22.3125 43.546875 
Q 18.109375 38.921875 18.109375 30.90625 
L 18.109375 0 
L 9.078125 0 
L 9.078125 54.6875 
L 18.109375 54.6875 
L 18.109375 46.1875 
Q 21.34375 51.125 25.703125 53.5625 
Q 30.078125 56 35.796875 56 
Q 45.21875 56 50.046875 50.171875 
Q 54.890625 44.34375 54.890625 33.015625 
z
" id="DejaVuSans-110"/>
      </defs>
      <use xlink:href="#DejaVuSans-112"/>
      <use x="63.476562" xlink:href="#DejaVuSans-101"/>
      <use x="125" xlink:href="#DejaVuSans-114"/>
      <use x="166.113281" xlink:href="#DejaVuSans-102"/>
      <use x="201.318359" xlink:href="#DejaVuSans-111"/>
      <use x="262.5" xlink:href="#DejaVuSans-114"/>
      <use x="301.863281" xlink:href="#DejaVuSans-109"/>
      <use x="399.275391" xlink:href="#DejaVuSans-97"/>
      <use x="460.554688" xlink:href="#DejaVuSans-110"/>
      <use x="523.933594" xlink:href="#DejaVuSans-99"/>
      <use x="578.914062" xlink:href="#DejaVuSans-101"/>
     </g>
    </g>
   </g>
   <g id="line2d_15">
    <path clip-path="url(#p40a500acf6)" d="M 66.376477 84.589287 
L 73.140114 108.560599 
L 79.90375 108.560599 
L 86.667386 108.560599 
L 93.431023 108.560599 
L 100.194659 134.030118 
L 106.958295 51.1645 
L 113.721932 51.1645 
L 120.485568 51.1645 
L 127.249205 73.124747 
L 134.012841 84.589287 
L 140.776477 121.099439 
L 147.540114 161.142831 
L 154.30375 161.142831 
L 161.067386 84.589287 
L 167.831023 84.589287 
L 174.594659 84.589287 
L 181.358295 84.589287 
L 188.121932 84.589287 
L 194.885568 84.589287 
L 201.649205 84.589287 
L 208.412841 84.589287 
L 215.176477 84.589287 
L 221.940114 84.589287 
L 228.70375 121.099439 
L 235.467386 134.030118 
L 242.231023 134.030118 
L 248.994659 134.030118 
L 255.758295 134.030118 
L 262.521932 134.030118 
L 269.285568 134.030118 
L 276.049205 134.030118 
L 282.812841 134.030118 
L 289.576477 134.030118 
L 296.340114 134.030118 
L 303.10375 134.030118 
L 309.867386 134.030118 
L 316.631023 134.030118 
L 323.394659 134.030118 
L 330.158295 134.030118 
L 336.921932 134.030118 
L 343.685568 134.030118 
L 350.449205 134.030118 
L 357.212841 134.030118 
L 363.976477 134.030118 
L 370.740114 134.030118 
L 377.50375 134.030118 
L 384.267386 134.030118 
L 391.031023 134.030118 
" style="fill:none;stroke:#f26b38;stroke-dasharray:7.4,3.2;stroke-dashoffset:0;stroke-width:2;"/>
   </g>
   <g id="line2d_16">
    <path clip-path="url(#p40a500acf6)" d="M 66.376477 134.030118 
L 73.140114 108.560599 
L 79.90375 108.560599 
L 86.667386 108.560599 
L 93.431023 147.371294 
L 100.194659 147.371294 
L 106.958295 147.371294 
L 113.721932 147.371294 
L 120.485568 147.371294 
L 127.249205 147.371294 
L 134.012841 147.371294 
L 140.776477 147.371294 
L 147.540114 147.371294 
L 154.30375 147.371294 
L 161.067386 147.371294 
L 167.831023 147.371294 
L 174.594659 161.142831 
L 181.358295 161.142831 
L 188.121932 161.142831 
L 194.885568 161.142831 
L 201.649205 161.142831 
L 208.412841 161.142831 
L 215.176477 161.142831 
L 221.940114 161.142831 
L 228.70375 161.142831 
L 235.467386 161.142831 
L 242.231023 161.142831 
L 248.994659 161.142831 
L 255.758295 161.142831 
L 262.521932 161.142831 
L 269.285568 161.142831 
L 276.049205 161.142831 
L 282.812841 161.142831 
L 289.576477 161.142831 
L 296.340114 161.142831 
L 303.10375 161.142831 
L 309.867386 161.142831 
L 316.631023 161.142831 
L 323.394659 161.142831 
L 330.158295 161.142831 
L 336.921932 161.142831 
L 343.685568 161.142831 
L 350.449205 161.142831 
L 357.212841 161.142831 
L 363.976477 161.142831 
L 370.740114 161.142831 
L 377.50375 161.142831 
L 384.267386 161.142831 
L 391.031023 161.142831 
" style="fill:none;stroke:#2f9599;stroke-dasharray:2,3.3;stroke-dashoffset:0;stroke-width:2;"/>
   </g>
   <g id="line2d_17">
    <path clip-path="url(#p40a500acf6)" d="M 66.376477 110.016 
L 73.140114 110.016 
L 79.90375 110.016 
L 86.667386 110.016 
L 93.431023 110.016 
L 100.194659 122.976 
L 106.958295 122.976 
L 113.721932 122.976 
L 120.485568 136.354065 
L 127.249205 136.354065 
L 134.012841 150.170754 
L 140.776477 122.976 
L 147.540114 122.976 
L 154.30375 122.976 
L 161.067386 110.016 
L 167.831023 122.976 
L 174.594659 110.016 
L 181.358295 110.016 
L 188.121932 29.517972 
L 194.885568 19.296 
L 201.649205 19.296 
L 208.412841 19.296 
L 215.176477 19.296 
L 221.940114 50.850783 
L 228.70375 50.850783 
L 235.467386 50.850783 
L 242.231023 19.296 
L 248.994659 19.296 
L 255.758295 19.296 
L 262.521932 19.296 
L 269.285568 19.296 
L 276.049205 19.296 
L 282.812841 19.296 
L 289.576477 261.216 
L 296.340114 261.216 
L 303.10375 261.216 
L 309.867386 261.216 
L 316.631023 261.216 
L 323.394659 261.216 
L 330.158295 261.216 
L 336.921932 261.216 
L 343.685568 261.216 
L 350.449205 261.216 
L 357.212841 261.216 
L 363.976477 261.216 
L 370.740114 261.216 
L 377.50375 261.216 
L 384.267386 261.216 
L 391.031023 261.216 
" style="fill:none;stroke:#a7226e;stroke-dasharray:12.8,3.2,2,3.2;stroke-dashoffset:0;stroke-width:2;"/>
   </g>
   <g id="patch_3">
    <path d="M 50.14375 273.312 
L 50.14375 7.2 
" style="fill:none;stroke:#000000;stroke-linecap:square;stroke-linejoin:miter;stroke-width:0.8;"/>
   </g>
   <g id="patch_4">
    <path d="M 407.26375 273.312 
L 407.26375 7.2 
" style="fill:none;stroke:#000000;stroke-linecap:square;stroke-linejoin:miter;stroke-width:0.8;"/>
   </g>
   <g id="patch_5">
    <path d="M 50.14375 273.312 
L 407.26375 273.312 
" style="fill:none;stroke:#000000;stroke-linecap:square;stroke-linejoin:miter;stroke-width:0.8;"/>
   </g>
   <g id="patch_6">
    <path d="M 50.14375 7.2 
L 407.26375 7.2 
" style="fill:none;stroke:#000000;stroke-linecap:square;stroke-linejoin:miter;stroke-width:0.8;"/>
   </g>
   <g id="legend_1">
    <g id="patch_7">
     <path d="M 321.790059 43.890913 
L 402.40575 43.890913 
Q 403.79375 43.890913 403.79375 42.502913 
L 403.79375 12.058 
Q 403.79375 10.67 402.40575 10.67 
L 321.790059 10.67 
Q 320.402059 10.67 320.402059 12.058 
L 320.402059 42.502913 
Q 320.402059 43.890913 321.790059 43.890913 
z
" style="fill:#ffffff;opacity:0.8;stroke:#cccccc;stroke-linejoin:miter;"/>
    </g>
    <g id="PathCollection_5">
     <defs>
      <path d="M 0 3 
C 0.795609 3 1.55874 2.683901 2.12132 2.12132 
C 2.683901 1.55874 3 0.795609 3 0 
C 3 -0.795609 2.683901 -1.55874 2.12132 -2.12132 
C 1.55874 -2.683901 0.795609 -3 0 -3 
C -0.795609 -3 -1.55874 -2.683901 -2.12132 -2.12132 
C -2.683901 -1.55874 -3 -0.795609 -3 0 
C -3 0.795609 -2.683901 1.55874 -2.12132 2.12132 
C -1.55874 2.683901 -0.795609 3 0 3 
z
" id="m9055f26e28" style="stroke:#f26b38;"/>
     </defs>
     <g>
      <use style="fill:#f26b38;stroke:#f26b38;" x="330.118059" xlink:href="#m9055f26e28" y="16.897566"/>
     </g>
    </g>
    <g id="text_17">
     <!-- mean_err -->
     <g transform="translate(342.610059 18.719316)scale(0.0694 -0.0694)">
      <defs>
       <path d="M 50.984375 -16.609375 
L 50.984375 -23.578125 
L -0.984375 -23.578125 
L -0.984375 -16.609375 
z
" id="DejaVuSans-95"/>
      </defs>
      <use xlink:href="#DejaVuSans-109"/>
      <use x="97.412109" xlink:href="#DejaVuSans-101"/>
      <use x="158.935547" xlink:href="#DejaVuSans-97"/>
      <use x="220.214844" xlink:href="#DejaVuSans-110"/>
      <use x="283.59375" xlink:href="#DejaVuSans-95"/>
      <use x="333.59375" xlink:href="#DejaVuSans-101"/>
      <use x="395.117188" xlink:href="#DejaVuSans-114"/>
      <use x="434.480469" xlink:href="#DejaVuSans-114"/>
     </g>
    </g>
    <g id="PathCollection_6">
     <defs>
      <path d="M -1.5 3 
L 0 1.5 
L 1.5 3 
L 3 1.5 
L 1.5 0 
L 3 -1.5 
L 1.5 -3 
L 0 -1.5 
L -1.5 -3 
L -3 -1.5 
L -1.5 0 
L -3 1.5 
z
" id="m7d1b064e85" style="stroke:#2f9599;"/>
     </defs>
     <g>
      <use style="fill:#2f9599;stroke:#2f9599;" x="330.118059" xlink:href="#m7d1b064e85" y="27.277203"/>
     </g>
    </g>
    <g id="text_18">
     <!-- mean_sq_err -->
     <g transform="translate(342.610059 29.098953)scale(0.0694 -0.0694)">
      <defs>
       <path d="M 44.28125 53.078125 
L 44.28125 44.578125 
Q 40.484375 46.53125 36.375 47.5 
Q 32.28125 48.484375 27.875 48.484375 
Q 21.1875 48.484375 17.84375 46.4375 
Q 14.5 44.390625 14.5 40.28125 
Q 14.5 37.15625 16.890625 35.375 
Q 19.28125 33.59375 26.515625 31.984375 
L 29.59375 31.296875 
Q 39.15625 29.25 43.1875 25.515625 
Q 47.21875 21.78125 47.21875 15.09375 
Q 47.21875 7.46875 41.1875 3.015625 
Q 35.15625 -1.421875 24.609375 -1.421875 
Q 20.21875 -1.421875 15.453125 -0.5625 
Q 10.6875 0.296875 5.421875 2 
L 5.421875 11.28125 
Q 10.40625 8.6875 15.234375 7.390625 
Q 20.0625 6.109375 24.8125 6.109375 
Q 31.15625 6.109375 34.5625 8.28125 
Q 37.984375 10.453125 37.984375 14.40625 
Q 37.984375 18.0625 35.515625 20.015625 
Q 33.0625 21.96875 24.703125 23.78125 
L 21.578125 24.515625 
Q 13.234375 26.265625 9.515625 29.90625 
Q 5.8125 33.546875 5.8125 39.890625 
Q 5.8125 47.609375 11.28125 51.796875 
Q 16.75 56 26.8125 56 
Q 31.78125 56 36.171875 55.265625 
Q 40.578125 54.546875 44.28125 53.078125 
z
" id="DejaVuSans-115"/>
       <path d="M 14.796875 27.296875 
Q 14.796875 17.390625 18.875 11.75 
Q 22.953125 6.109375 30.078125 6.109375 
Q 37.203125 6.109375 41.296875 11.75 
Q 45.40625 17.390625 45.40625 27.296875 
Q 45.40625 37.203125 41.296875 42.84375 
Q 37.203125 48.484375 30.078125 48.484375 
Q 22.953125 48.484375 18.875 42.84375 
Q 14.796875 37.203125 14.796875 27.296875 
z
M 45.40625 8.203125 
Q 42.578125 3.328125 38.25 0.953125 
Q 33.9375 -1.421875 27.875 -1.421875 
Q 17.96875 -1.421875 11.734375 6.484375 
Q 5.515625 14.40625 5.515625 27.296875 
Q 5.515625 40.1875 11.734375 48.09375 
Q 17.96875 56 27.875 56 
Q 33.9375 56 38.25 53.625 
Q 42.578125 51.265625 45.40625 46.390625 
L 45.40625 54.6875 
L 54.390625 54.6875 
L 54.390625 -20.796875 
L 45.40625 -20.796875 
z
" id="DejaVuSans-113"/>
      </defs>
      <use xlink:href="#DejaVuSans-109"/>
      <use x="97.412109" xlink:href="#DejaVuSans-101"/>
      <use x="158.935547" xlink:href="#DejaVuSans-97"/>
      <use x="220.214844" xlink:href="#DejaVuSans-110"/>
      <use x="283.59375" xlink:href="#DejaVuSans-95"/>
      <use x="333.59375" xlink:href="#DejaVuSans-115"/>
      <use x="385.693359" xlink:href="#DejaVuSans-113"/>
      <use x="449.169922" xlink:href="#DejaVuSans-95"/>
      <use x="499.169922" xlink:href="#DejaVuSans-101"/>
      <use x="560.693359" xlink:href="#DejaVuSans-114"/>
      <use x="600.056641" xlink:href="#DejaVuSans-114"/>
     </g>
    </g>
    <g id="PathCollection_7">
     <defs>
      <path d="M -2.12132 -2.12132 
L -2.12132 2.12132 
L 2.12132 2.12132 
L 2.12132 -2.12132 
z
" id="m5be8020733" style="stroke:#a7226e;"/>
     </defs>
     <g>
      <use style="fill:#a7226e;stroke:#a7226e;" x="330.118059" xlink:href="#m5be8020733" y="37.656841"/>
     </g>
    </g>
    <g id="text_19">
     <!-- mean_sqroot_err -->
     <g transform="translate(342.610059 39.478591)scale(0.0694 -0.0694)">
      <use xlink:href="#DejaVuSans-109"/>
      <use x="97.412109" xlink:href="#DejaVuSans-101"/>
      <use x="158.935547" xlink:href="#DejaVuSans-97"/>
      <use x="220.214844" xlink:href="#DejaVuSans-110"/>
      <use x="283.59375" xlink:href="#DejaVuSans-95"/>
      <use x="333.59375" xlink:href="#DejaVuSans-115"/>
      <use x="385.693359" xlink:href="#DejaVuSans-113"/>
      <use x="449.169922" xlink:href="#DejaVuSans-114"/>
      <use x="488.033203" xlink:href="#DejaVuSans-111"/>
      <use x="549.214844" xlink:href="#DejaVuSans-111"/>
      <use x="610.396484" xlink:href="#DejaVuSans-116"/>
      <use x="649.605469" xlink:href="#DejaVuSans-95"/>
      <use x="699.605469" xlink:href="#DejaVuSans-101"/>
      <use x="761.128906" xlink:href="#DejaVuSans-114"/>
      <use x="800.492188" xlink:href="#DejaVuSans-114"/>
     </g>
    </g>
   </g>
  </g>
 </g>
 <defs>
  <clipPath id="p40a500acf6">
   <rect height="266.112" width="357.12" x="50.14375" y="7.2"/>
  </clipPath>
 </defs>
</svg>
