<?xml version="1.0" encoding="utf-8" standalone="no"?>
<!DOCTYPE svg PUBLIC "-//W3C//DTD SVG 1.1//EN"
  "http://www.w3.org/Graphics/SVG/1.1/DTD/svg11.dtd">
<!-- Created with matplotlib (https://matplotlib.org/) -->
<svg height="310.86825pt" version="1.1" viewBox="0 0 414.46375 310.86825" width="414.46375pt" xmlns="http://www.w3.org/2000/svg" xmlns:xlink="http://www.w3.org/1999/xlink">
 <metadata>
  <rdf:RDF xmlns:cc="http://creativecommons.org/ns#" xmlns:dc="http://purl.org/dc/elements/1.1/" xmlns:rdf="http://www.w3.org/1999/02/22-rdf-syntax-ns#">
   <cc:Work>
    <dc:type rdf:resource="http://purl.org/dc/dcmitype/StillImage"/>
    <dc:date>2022-05-27T21:44:04.722532</dc:date>
    <dc:format>image/svg+xml</dc:format>
    <dc:creator>
     <cc:Agent>
      <dc:title>Matplotlib v3.3.4, https://matplotlib.org/</dc:title>
     </cc:Agent>
    </dc:creator>
   </cc:Work>
  </rdf:RDF>
 </metadata>
 <defs>
  <style type="text/css">*{stroke-linecap:butt;stroke-linejoin:round;}</style>
 </defs>
 <g id="figure_1">
  <g id="patch_1">
   <path d="M 0 310.86825 
L 414.46375 310.86825 
L 414.46375 0 
L 0 0 
z
" style="fill:#ffffff;"/>
  </g>
  <g id="axes_1">
   <g id="patch_2">
    <path d="M 50.14375 273.312 
L 407.26375 273.312 
L 407.26375 7.2 
L 50.14375 7.2 
z
" style="fill:#ffffff;"/>
   </g>
   <g id="PathCollection_1">
    <path clip-path="url(#pcc6264fe89)" d="M 66.376477 77.537575 
C 67.172087 77.537575 67.935217 77.221476 68.497798 76.658895 
C 69.060378 76.096314 69.376477 75.333184 69.376477 74.537575 
C 69.376477 73.741966 69.060378 72.978835 68.497798 72.416254 
C 67.935217 71.853674 67.172087 71.537575 66.376477 71.537575 
C 65.580868 71.537575 64.817738 71.853674 64.255157 72.416254 
C 63.692576 72.978835 63.376477 73.741966 63.376477 74.537575 
C 63.376477 75.333184 63.692576 76.096314 64.255157 76.658895 
C 64.817738 77.221476 65.580868 77.537575 66.376477 77.537575 
z
" style="fill:#f26b38;stroke:#ffffff;stroke-width:0.48;"/>
    <path clip-path="url(#pcc6264fe89)" d="M 73.140114 64.203402 
C 73.935723 64.203402 74.698853 63.887303 75.261434 63.324722 
C 75.824015 62.762141 76.140114 61.999011 76.140114 61.203402 
C 76.140114 60.407792 75.824015 59.644662 75.261434 59.082081 
C 74.698853 58.519501 73.935723 58.203402 73.140114 58.203402 
C 72.344504 58.203402 71.581374 58.519501 71.018793 59.082081 
C 70.456213 59.644662 70.140114 60.407792 70.140114 61.203402 
C 70.140114 61.999011 70.456213 62.762141 71.018793 63.324722 
C 71.581374 63.887303 72.344504 64.203402 73.140114 64.203402 
z
" style="fill:#f26b38;stroke:#ffffff;stroke-width:0.48;"/>
    <path clip-path="url(#pcc6264fe89)" d="M 79.90375 37.535055 
C 80.699359 37.535055 81.46249 37.218956 82.02507 36.656375 
C 82.587651 36.093795 82.90375 35.330664 82.90375 34.535055 
C 82.90375 33.739446 82.587651 32.976316 82.02507 32.413735 
C 81.46249 31.851154 80.699359 31.535055 79.90375 31.535055 
C 79.108141 31.535055 78.34501 31.851154 77.78243 32.413735 
C 77.219849 32.976316 76.90375 33.739446 76.90375 34.535055 
C 76.90375 35.330664 77.219849 36.093795 77.78243 36.656375 
C 78.34501 37.218956 79.108141 37.535055 79.90375 37.535055 
z
" style="fill:#f26b38;stroke:#ffffff;stroke-width:0.48;"/>
    <path clip-path="url(#pcc6264fe89)" d="M 86.667386 37.535055 
C 87.462996 37.535055 88.226126 37.218956 88.788707 36.656375 
C 89.351287 36.093795 89.667386 35.330664 89.667386 34.535055 
C 89.667386 33.739446 89.351287 32.976316 88.788707 32.413735 
C 88.226126 31.851154 87.462996 31.535055 86.667386 31.535055 
C 85.871777 31.535055 85.108647 31.851154 84.546066 32.413735 
C 83.983485 32.976316 83.667386 33.739446 83.667386 34.535055 
C 83.667386 35.330664 83.983485 36.093795 84.546066 36.656375 
C 85.108647 37.218956 85.871777 37.535055 86.667386 37.535055 
z
" style="fill:#f26b38;stroke:#ffffff;stroke-width:0.48;"/>
    <path clip-path="url(#pcc6264fe89)" d="M 93.431023 24.200882 
C 94.226632 24.200882 94.989762 23.884783 95.552343 23.322202 
C 96.114924 22.759622 96.431023 21.996491 96.431023 21.200882 
C 96.431023 20.405273 96.114924 19.642142 95.552343 19.079562 
C 94.989762 18.516981 94.226632 18.200882 93.431023 18.200882 
C 92.635413 18.200882 91.872283 18.516981 91.309702 19.079562 
C 90.747122 19.642142 90.431023 20.405273 90.431023 21.200882 
C 90.431023 21.996491 90.747122 22.759622 91.309702 23.322202 
C 91.872283 23.884783 92.635413 24.200882 93.431023 24.200882 
z
" style="fill:#f26b38;stroke:#ffffff;stroke-width:0.48;"/>
    <path clip-path="url(#pcc6264fe89)" d="M 100.194659 64.203402 
C 100.990268 64.203402 101.753399 63.887303 102.315979 63.324722 
C 102.87856 62.762141 103.194659 61.999011 103.194659 61.203402 
C 103.194659 60.407792 102.87856 59.644662 102.315979 59.082081 
C 101.753399 58.519501 100.990268 58.203402 100.194659 58.203402 
C 99.39905 58.203402 98.635919 58.519501 98.073339 59.082081 
C 97.510758 59.644662 97.194659 60.407792 97.194659 61.203402 
C 97.194659 61.999011 97.510758 62.762141 98.073339 63.324722 
C 98.635919 63.887303 99.39905 64.203402 100.194659 64.203402 
z
" style="fill:#f26b38;stroke:#ffffff;stroke-width:0.48;"/>
    <path clip-path="url(#pcc6264fe89)" d="M 106.958295 50.869228 
C 107.753905 50.869228 108.517035 50.553129 109.079616 49.990549 
C 109.642197 49.427968 109.958295 48.664838 109.958295 47.869228 
C 109.958295 47.073619 109.642197 46.310489 109.079616 45.747908 
C 108.517035 45.185327 107.753905 44.869228 106.958295 44.869228 
C 106.162686 44.869228 105.399556 45.185327 104.836975 45.747908 
C 104.274394 46.310489 103.958295 47.073619 103.958295 47.869228 
C 103.958295 48.664838 104.274394 49.427968 104.836975 49.990549 
C 105.399556 50.553129 106.162686 50.869228 106.958295 50.869228 
z
" style="fill:#f26b38;stroke:#ffffff;stroke-width:0.48;"/>
    <path clip-path="url(#pcc6264fe89)" d="M 113.721932 50.869228 
C 114.517541 50.869228 115.280671 50.553129 115.843252 49.990549 
C 116.405833 49.427968 116.721932 48.664838 116.721932 47.869228 
C 116.721932 47.073619 116.405833 46.310489 115.843252 45.747908 
C 115.280671 45.185327 114.517541 44.869228 113.721932 44.869228 
C 112.926323 44.869228 112.163192 45.185327 111.600611 45.747908 
C 111.038031 46.310489 110.721932 47.073619 110.721932 47.869228 
C 110.721932 48.664838 111.038031 49.427968 111.600611 49.990549 
C 112.163192 50.553129 112.926323 50.869228 113.721932 50.869228 
z
" style="fill:#f26b38;stroke:#ffffff;stroke-width:0.48;"/>
    <path clip-path="url(#pcc6264fe89)" d="M 120.485568 50.869228 
C 121.281177 50.869228 122.044308 50.553129 122.606889 49.990549 
C 123.169469 49.427968 123.485568 48.664838 123.485568 47.869228 
C 123.485568 47.073619 123.169469 46.310489 122.606889 45.747908 
C 122.044308 45.185327 121.281177 44.869228 120.485568 44.869228 
C 119.689959 44.869228 118.926829 45.185327 118.364248 45.747908 
C 117.801667 46.310489 117.485568 47.073619 117.485568 47.869228 
C 117.485568 48.664838 117.801667 49.427968 118.364248 49.990549 
C 118.926829 50.553129 119.689959 50.869228 120.485568 50.869228 
z
" style="fill:#f26b38;stroke:#ffffff;stroke-width:0.48;"/>
    <path clip-path="url(#pcc6264fe89)" d="M 127.249205 50.869228 
C 128.044814 50.869228 128.807944 50.553129 129.370525 49.990549 
C 129.933106 49.427968 130.249205 48.664838 130.249205 47.869228 
C 130.249205 47.073619 129.933106 46.310489 129.370525 45.747908 
C 128.807944 45.185327 128.044814 44.869228 127.249205 44.869228 
C 126.453595 44.869228 125.690465 45.185327 125.127884 45.747908 
C 124.565303 46.310489 124.249205 47.073619 124.249205 47.869228 
C 124.249205 48.664838 124.565303 49.427968 125.127884 49.990549 
C 125.690465 50.553129 126.453595 50.869228 127.249205 50.869228 
z
" style="fill:#f26b38;stroke:#ffffff;stroke-width:0.48;"/>
    <path clip-path="url(#pcc6264fe89)" d="M 134.012841 104.205921 
C 134.80845 104.205921 135.571581 103.889822 136.134161 103.327242 
C 136.696742 102.764661 137.012841 102.001531 137.012841 101.205921 
C 137.012841 100.410312 136.696742 99.647182 136.134161 99.084601 
C 135.571581 98.52202 134.80845 98.205921 134.012841 98.205921 
C 133.217232 98.205921 132.454101 98.52202 131.891521 99.084601 
C 131.32894 99.647182 131.012841 100.410312 131.012841 101.205921 
C 131.012841 102.001531 131.32894 102.764661 131.891521 103.327242 
C 132.454101 103.889822 133.217232 104.205921 134.012841 104.205921 
z
" style="fill:#f26b38;stroke:#ffffff;stroke-width:0.48;"/>
    <path clip-path="url(#pcc6264fe89)" d="M 140.776477 104.205921 
C 141.572087 104.205921 142.335217 103.889822 142.897798 103.327242 
C 143.460378 102.764661 143.776477 102.001531 143.776477 101.205921 
C 143.776477 100.410312 143.460378 99.647182 142.897798 99.084601 
C 142.335217 98.52202 141.572087 98.205921 140.776477 98.205921 
C 139.980868 98.205921 139.217738 98.52202 138.655157 99.084601 
C 138.092576 99.647182 137.776477 100.410312 137.776477 101.205921 
C 137.776477 102.001531 138.092576 102.764661 138.655157 103.327242 
C 139.217738 103.889822 139.980868 104.205921 140.776477 104.205921 
z
" style="fill:#f26b38;stroke:#ffffff;stroke-width:0.48;"/>
    <path clip-path="url(#pcc6264fe89)" d="M 147.540114 144.208441 
C 148.335723 144.208441 149.098853 143.892342 149.661434 143.329761 
C 150.224015 142.767181 150.540114 142.00405 150.540114 141.208441 
C 150.540114 140.412832 150.224015 139.649701 149.661434 139.087121 
C 149.098853 138.52454 148.335723 138.208441 147.540114 138.208441 
C 146.744504 138.208441 145.981374 138.52454 145.418793 139.087121 
C 144.856213 139.649701 144.540114 140.412832 144.540114 141.208441 
C 144.540114 142.00405 144.856213 142.767181 145.418793 143.329761 
C 145.981374 143.892342 146.744504 144.208441 147.540114 144.208441 
z
" style="fill:#f26b38;stroke:#ffffff;stroke-width:0.48;"/>
    <path clip-path="url(#pcc6264fe89)" d="M 154.30375 144.208441 
C 155.099359 144.208441 155.86249 143.892342 156.42507 143.329761 
C 156.987651 142.767181 157.30375 142.00405 157.30375 141.208441 
C 157.30375 140.412832 156.987651 139.649701 156.42507 139.087121 
C 155.86249 138.52454 155.099359 138.208441 154.30375 138.208441 
C 153.508141 138.208441 152.74501 138.52454 152.18243 139.087121 
C 151.619849 139.649701 151.30375 140.412832 151.30375 141.208441 
C 151.30375 142.00405 151.619849 142.767181 152.18243 143.329761 
C 152.74501 143.892342 153.508141 144.208441 154.30375 144.208441 
z
" style="fill:#f26b38;stroke:#ffffff;stroke-width:0.48;"/>
    <path clip-path="url(#pcc6264fe89)" d="M 161.067386 64.203402 
C 161.862996 64.203402 162.626126 63.887303 163.188707 63.324722 
C 163.751287 62.762141 164.067386 61.999011 164.067386 61.203402 
C 164.067386 60.407792 163.751287 59.644662 163.188707 59.082081 
C 162.626126 58.519501 161.862996 58.203402 161.067386 58.203402 
C 160.271777 58.203402 159.508647 58.519501 158.946066 59.082081 
C 158.383485 59.644662 158.067386 60.407792 158.067386 61.203402 
C 158.067386 61.999011 158.383485 62.762141 158.946066 63.324722 
C 159.508647 63.887303 160.271777 64.203402 161.067386 64.203402 
z
" style="fill:#f26b38;stroke:#ffffff;stroke-width:0.48;"/>
    <path clip-path="url(#pcc6264fe89)" d="M 167.831023 104.205921 
C 168.626632 104.205921 169.389762 103.889822 169.952343 103.327242 
C 170.514924 102.764661 170.831023 102.001531 170.831023 101.205921 
C 170.831023 100.410312 170.514924 99.647182 169.952343 99.084601 
C 169.389762 98.52202 168.626632 98.205921 167.831023 98.205921 
C 167.035413 98.205921 166.272283 98.52202 165.709702 99.084601 
C 165.147122 99.647182 164.831023 100.410312 164.831023 101.205921 
C 164.831023 102.001531 165.147122 102.764661 165.709702 103.327242 
C 166.272283 103.889822 167.035413 104.205921 167.831023 104.205921 
z
" style="fill:#f26b38;stroke:#ffffff;stroke-width:0.48;"/>
    <path clip-path="url(#pcc6264fe89)" d="M 174.594659 104.205921 
C 175.390268 104.205921 176.153399 103.889822 176.715979 103.327242 
C 177.27856 102.764661 177.594659 102.001531 177.594659 101.205921 
C 177.594659 100.410312 177.27856 99.647182 176.715979 99.084601 
C 176.153399 98.52202 175.390268 98.205921 174.594659 98.205921 
C 173.79905 98.205921 173.035919 98.52202 172.473339 99.084601 
C 171.910758 99.647182 171.594659 100.410312 171.594659 101.205921 
C 171.594659 102.001531 171.910758 102.764661 172.473339 103.327242 
C 173.035919 103.889822 173.79905 104.205921 174.594659 104.205921 
z
" style="fill:#f26b38;stroke:#ffffff;stroke-width:0.48;"/>
    <path clip-path="url(#pcc6264fe89)" d="M 181.358295 104.205921 
C 182.153905 104.205921 182.917035 103.889822 183.479616 103.327242 
C 184.042197 102.764661 184.358295 102.001531 184.358295 101.205921 
C 184.358295 100.410312 184.042197 99.647182 183.479616 99.084601 
C 182.917035 98.52202 182.153905 98.205921 181.358295 98.205921 
C 180.562686 98.205921 179.799556 98.52202 179.236975 99.084601 
C 178.674394 99.647182 178.358295 100.410312 178.358295 101.205921 
C 178.358295 102.001531 178.674394 102.764661 179.236975 103.327242 
C 179.799556 103.889822 180.562686 104.205921 181.358295 104.205921 
z
" style="fill:#f26b38;stroke:#ffffff;stroke-width:0.48;"/>
    <path clip-path="url(#pcc6264fe89)" d="M 188.121932 144.208441 
C 188.917541 144.208441 189.680671 143.892342 190.243252 143.329761 
C 190.805833 142.767181 191.121932 142.00405 191.121932 141.208441 
C 191.121932 140.412832 190.805833 139.649701 190.243252 139.087121 
C 189.680671 138.52454 188.917541 138.208441 188.121932 138.208441 
C 187.326323 138.208441 186.563192 138.52454 186.000611 139.087121 
C 185.438031 139.649701 185.121932 140.412832 185.121932 141.208441 
C 185.121932 142.00405 185.438031 142.767181 186.000611 143.329761 
C 186.563192 143.892342 187.326323 144.208441 188.121932 144.208441 
z
" style="fill:#f26b38;stroke:#ffffff;stroke-width:0.48;"/>
    <path clip-path="url(#pcc6264fe89)" d="M 194.885568 104.205921 
C 195.681177 104.205921 196.444308 103.889822 197.006889 103.327242 
C 197.569469 102.764661 197.885568 102.001531 197.885568 101.205921 
C 197.885568 100.410312 197.569469 99.647182 197.006889 99.084601 
C 196.444308 98.52202 195.681177 98.205921 194.885568 98.205921 
C 194.089959 98.205921 193.326829 98.52202 192.764248 99.084601 
C 192.201667 99.647182 191.885568 100.410312 191.885568 101.205921 
C 191.885568 102.001531 192.201667 102.764661 192.764248 103.327242 
C 193.326829 103.889822 194.089959 104.205921 194.885568 104.205921 
z
" style="fill:#f26b38;stroke:#ffffff;stroke-width:0.48;"/>
    <path clip-path="url(#pcc6264fe89)" d="M 201.649205 184.210961 
C 202.444814 184.210961 203.207944 183.894862 203.770525 183.332281 
C 204.333106 182.7697 204.649205 182.00657 204.649205 181.210961 
C 204.649205 180.415351 204.333106 179.652221 203.770525 179.08964 
C 203.207944 178.52706 202.444814 178.210961 201.649205 178.210961 
C 200.853595 178.210961 200.090465 178.52706 199.527884 179.08964 
C 198.965303 179.652221 198.649205 180.415351 198.649205 181.210961 
C 198.649205 182.00657 198.965303 182.7697 199.527884 183.332281 
C 200.090465 183.894862 200.853595 184.210961 201.649205 184.210961 
z
" style="fill:#f26b38;stroke:#ffffff;stroke-width:0.48;"/>
    <path clip-path="url(#pcc6264fe89)" d="M 208.412841 184.210961 
C 209.20845 184.210961 209.971581 183.894862 210.534161 183.332281 
C 211.096742 182.7697 211.412841 182.00657 211.412841 181.210961 
C 211.412841 180.415351 211.096742 179.652221 210.534161 179.08964 
C 209.971581 178.52706 209.20845 178.210961 208.412841 178.210961 
C 207.617232 178.210961 206.854101 178.52706 206.291521 179.08964 
C 205.72894 179.652221 205.412841 180.415351 205.412841 181.210961 
C 205.412841 182.00657 205.72894 182.7697 206.291521 183.332281 
C 206.854101 183.894862 207.617232 184.210961 208.412841 184.210961 
z
" style="fill:#f26b38;stroke:#ffffff;stroke-width:0.48;"/>
    <path clip-path="url(#pcc6264fe89)" d="M 215.176477 184.210961 
C 215.972087 184.210961 216.735217 183.894862 217.297798 183.332281 
C 217.860378 182.7697 218.176477 182.00657 218.176477 181.210961 
C 218.176477 180.415351 217.860378 179.652221 217.297798 179.08964 
C 216.735217 178.52706 215.972087 178.210961 215.176477 178.210961 
C 214.380868 178.210961 213.617738 178.52706 213.055157 179.08964 
C 212.492576 179.652221 212.176477 180.415351 212.176477 181.210961 
C 212.176477 182.00657 212.492576 182.7697 213.055157 183.332281 
C 213.617738 183.894862 214.380868 184.210961 215.176477 184.210961 
z
" style="fill:#f26b38;stroke:#ffffff;stroke-width:0.48;"/>
    <path clip-path="url(#pcc6264fe89)" d="M 221.940114 184.210961 
C 222.735723 184.210961 223.498853 183.894862 224.061434 183.332281 
C 224.624015 182.7697 224.940114 182.00657 224.940114 181.210961 
C 224.940114 180.415351 224.624015 179.652221 224.061434 179.08964 
C 223.498853 178.52706 222.735723 178.210961 221.940114 178.210961 
C 221.144504 178.210961 220.381374 178.52706 219.818793 179.08964 
C 219.256213 179.652221 218.940114 180.415351 218.940114 181.210961 
C 218.940114 182.00657 219.256213 182.7697 219.818793 183.332281 
C 220.381374 183.894862 221.144504 184.210961 221.940114 184.210961 
z
" style="fill:#f26b38;stroke:#ffffff;stroke-width:0.48;"/>
    <path clip-path="url(#pcc6264fe89)" d="M 228.70375 170.876787 
C 229.499359 170.876787 230.26249 170.560688 230.82507 169.998108 
C 231.387651 169.435527 231.70375 168.672397 231.70375 167.876787 
C 231.70375 167.081178 231.387651 166.318048 230.82507 165.755467 
C 230.26249 165.192886 229.499359 164.876787 228.70375 164.876787 
C 227.908141 164.876787 227.14501 165.192886 226.58243 165.755467 
C 226.019849 166.318048 225.70375 167.081178 225.70375 167.876787 
C 225.70375 168.672397 226.019849 169.435527 226.58243 169.998108 
C 227.14501 170.560688 227.908141 170.876787 228.70375 170.876787 
z
" style="fill:#f26b38;stroke:#ffffff;stroke-width:0.48;"/>
    <path clip-path="url(#pcc6264fe89)" d="M 235.467386 144.208441 
C 236.262996 144.208441 237.026126 143.892342 237.588707 143.329761 
C 238.151287 142.767181 238.467386 142.00405 238.467386 141.208441 
C 238.467386 140.412832 238.151287 139.649701 237.588707 139.087121 
C 237.026126 138.52454 236.262996 138.208441 235.467386 138.208441 
C 234.671777 138.208441 233.908647 138.52454 233.346066 139.087121 
C 232.783485 139.649701 232.467386 140.412832 232.467386 141.208441 
C 232.467386 142.00405 232.783485 142.767181 233.346066 143.329761 
C 233.908647 143.892342 234.671777 144.208441 235.467386 144.208441 
z
" style="fill:#f26b38;stroke:#ffffff;stroke-width:0.48;"/>
    <path clip-path="url(#pcc6264fe89)" d="M 242.231023 144.208441 
C 243.026632 144.208441 243.789762 143.892342 244.352343 143.329761 
C 244.914924 142.767181 245.231023 142.00405 245.231023 141.208441 
C 245.231023 140.412832 244.914924 139.649701 244.352343 139.087121 
C 243.789762 138.52454 243.026632 138.208441 242.231023 138.208441 
C 241.435413 138.208441 240.672283 138.52454 240.109702 139.087121 
C 239.547122 139.649701 239.231023 140.412832 239.231023 141.208441 
C 239.231023 142.00405 239.547122 142.767181 240.109702 143.329761 
C 240.672283 143.892342 241.435413 144.208441 242.231023 144.208441 
z
" style="fill:#f26b38;stroke:#ffffff;stroke-width:0.48;"/>
    <path clip-path="url(#pcc6264fe89)" d="M 248.994659 144.208441 
C 249.790268 144.208441 250.553399 143.892342 251.115979 143.329761 
C 251.67856 142.767181 251.994659 142.00405 251.994659 141.208441 
C 251.994659 140.412832 251.67856 139.649701 251.115979 139.087121 
C 250.553399 138.52454 249.790268 138.208441 248.994659 138.208441 
C 248.19905 138.208441 247.435919 138.52454 246.873339 139.087121 
C 246.310758 139.649701 245.994659 140.412832 245.994659 141.208441 
C 245.994659 142.00405 246.310758 142.767181 246.873339 143.329761 
C 247.435919 143.892342 248.19905 144.208441 248.994659 144.208441 
z
" style="fill:#f26b38;stroke:#ffffff;stroke-width:0.48;"/>
    <path clip-path="url(#pcc6264fe89)" d="M 255.758295 144.208441 
C 256.553905 144.208441 257.317035 143.892342 257.879616 143.329761 
C 258.442197 142.767181 258.758295 142.00405 258.758295 141.208441 
C 258.758295 140.412832 258.442197 139.649701 257.879616 139.087121 
C 257.317035 138.52454 256.553905 138.208441 255.758295 138.208441 
C 254.962686 138.208441 254.199556 138.52454 253.636975 139.087121 
C 253.074394 139.649701 252.758295 140.412832 252.758295 141.208441 
C 252.758295 142.00405 253.074394 142.767181 253.636975 143.329761 
C 254.199556 143.892342 254.962686 144.208441 255.758295 144.208441 
z
" style="fill:#f26b38;stroke:#ffffff;stroke-width:0.48;"/>
    <path clip-path="url(#pcc6264fe89)" d="M 262.521932 144.208441 
C 263.317541 144.208441 264.080671 143.892342 264.643252 143.329761 
C 265.205833 142.767181 265.521932 142.00405 265.521932 141.208441 
C 265.521932 140.412832 265.205833 139.649701 264.643252 139.087121 
C 264.080671 138.52454 263.317541 138.208441 262.521932 138.208441 
C 261.726323 138.208441 260.963192 138.52454 260.400611 139.087121 
C 259.838031 139.649701 259.521932 140.412832 259.521932 141.208441 
C 259.521932 142.00405 259.838031 142.767181 260.400611 143.329761 
C 260.963192 143.892342 261.726323 144.208441 262.521932 144.208441 
z
" style="fill:#f26b38;stroke:#ffffff;stroke-width:0.48;"/>
    <path clip-path="url(#pcc6264fe89)" d="M 269.285568 144.208441 
C 270.081177 144.208441 270.844308 143.892342 271.406889 143.329761 
C 271.969469 142.767181 272.285568 142.00405 272.285568 141.208441 
C 272.285568 140.412832 271.969469 139.649701 271.406889 139.087121 
C 270.844308 138.52454 270.081177 138.208441 269.285568 138.208441 
C 268.489959 138.208441 267.726829 138.52454 267.164248 139.087121 
C 266.601667 139.649701 266.285568 140.412832 266.285568 141.208441 
C 266.285568 142.00405 266.601667 142.767181 267.164248 143.329761 
C 267.726829 143.892342 268.489959 144.208441 269.285568 144.208441 
z
" style="fill:#f26b38;stroke:#ffffff;stroke-width:0.48;"/>
    <path clip-path="url(#pcc6264fe89)" d="M 276.049205 144.208441 
C 276.844814 144.208441 277.607944 143.892342 278.170525 143.329761 
C 278.733106 142.767181 279.049205 142.00405 279.049205 141.208441 
C 279.049205 140.412832 278.733106 139.649701 278.170525 139.087121 
C 277.607944 138.52454 276.844814 138.208441 276.049205 138.208441 
C 275.253595 138.208441 274.490465 138.52454 273.927884 139.087121 
C 273.365303 139.649701 273.049205 140.412832 273.049205 141.208441 
C 273.049205 142.00405 273.365303 142.767181 273.927884 143.329761 
C 274.490465 143.892342 275.253595 144.208441 276.049205 144.208441 
z
" style="fill:#f26b38;stroke:#ffffff;stroke-width:0.48;"/>
    <path clip-path="url(#pcc6264fe89)" d="M 282.812841 144.208441 
C 283.60845 144.208441 284.371581 143.892342 284.934161 143.329761 
C 285.496742 142.767181 285.812841 142.00405 285.812841 141.208441 
C 285.812841 140.412832 285.496742 139.649701 284.934161 139.087121 
C 284.371581 138.52454 283.60845 138.208441 282.812841 138.208441 
C 282.017232 138.208441 281.254101 138.52454 280.691521 139.087121 
C 280.12894 139.649701 279.812841 140.412832 279.812841 141.208441 
C 279.812841 142.00405 280.12894 142.767181 280.691521 143.329761 
C 281.254101 143.892342 282.017232 144.208441 282.812841 144.208441 
z
" style="fill:#f26b38;stroke:#ffffff;stroke-width:0.48;"/>
    <path clip-path="url(#pcc6264fe89)" d="M 289.576477 144.208441 
C 290.372087 144.208441 291.135217 143.892342 291.697798 143.329761 
C 292.260378 142.767181 292.576477 142.00405 292.576477 141.208441 
C 292.576477 140.412832 292.260378 139.649701 291.697798 139.087121 
C 291.135217 138.52454 290.372087 138.208441 289.576477 138.208441 
C 288.780868 138.208441 288.017738 138.52454 287.455157 139.087121 
C 286.892576 139.649701 286.576477 140.412832 286.576477 141.208441 
C 286.576477 142.00405 286.892576 142.767181 287.455157 143.329761 
C 288.017738 143.892342 288.780868 144.208441 289.576477 144.208441 
z
" style="fill:#f26b38;stroke:#ffffff;stroke-width:0.48;"/>
    <path clip-path="url(#pcc6264fe89)" d="M 296.340114 144.208441 
C 297.135723 144.208441 297.898853 143.892342 298.461434 143.329761 
C 299.024015 142.767181 299.340114 142.00405 299.340114 141.208441 
C 299.340114 140.412832 299.024015 139.649701 298.461434 139.087121 
C 297.898853 138.52454 297.135723 138.208441 296.340114 138.208441 
C 295.544504 138.208441 294.781374 138.52454 294.218793 139.087121 
C 293.656213 139.649701 293.340114 140.412832 293.340114 141.208441 
C 293.340114 142.00405 293.656213 142.767181 294.218793 143.329761 
C 294.781374 143.892342 295.544504 144.208441 296.340114 144.208441 
z
" style="fill:#f26b38;stroke:#ffffff;stroke-width:0.48;"/>
    <path clip-path="url(#pcc6264fe89)" d="M 303.10375 144.208441 
C 303.899359 144.208441 304.66249 143.892342 305.22507 143.329761 
C 305.787651 142.767181 306.10375 142.00405 306.10375 141.208441 
C 306.10375 140.412832 305.787651 139.649701 305.22507 139.087121 
C 304.66249 138.52454 303.899359 138.208441 303.10375 138.208441 
C 302.308141 138.208441 301.54501 138.52454 300.98243 139.087121 
C 300.419849 139.649701 300.10375 140.412832 300.10375 141.208441 
C 300.10375 142.00405 300.419849 142.767181 300.98243 143.329761 
C 301.54501 143.892342 302.308141 144.208441 303.10375 144.208441 
z
" style="fill:#f26b38;stroke:#ffffff;stroke-width:0.48;"/>
    <path clip-path="url(#pcc6264fe89)" d="M 309.867386 144.208441 
C 310.662996 144.208441 311.426126 143.892342 311.988707 143.329761 
C 312.551287 142.767181 312.867386 142.00405 312.867386 141.208441 
C 312.867386 140.412832 312.551287 139.649701 311.988707 139.087121 
C 311.426126 138.52454 310.662996 138.208441 309.867386 138.208441 
C 309.071777 138.208441 308.308647 138.52454 307.746066 139.087121 
C 307.183485 139.649701 306.867386 140.412832 306.867386 141.208441 
C 306.867386 142.00405 307.183485 142.767181 307.746066 143.329761 
C 308.308647 143.892342 309.071777 144.208441 309.867386 144.208441 
z
" style="fill:#f26b38;stroke:#ffffff;stroke-width:0.48;"/>
    <path clip-path="url(#pcc6264fe89)" d="M 316.631023 144.208441 
C 317.426632 144.208441 318.189762 143.892342 318.752343 143.329761 
C 319.314924 142.767181 319.631023 142.00405 319.631023 141.208441 
C 319.631023 140.412832 319.314924 139.649701 318.752343 139.087121 
C 318.189762 138.52454 317.426632 138.208441 316.631023 138.208441 
C 315.835413 138.208441 315.072283 138.52454 314.509702 139.087121 
C 313.947122 139.649701 313.631023 140.412832 313.631023 141.208441 
C 313.631023 142.00405 313.947122 142.767181 314.509702 143.329761 
C 315.072283 143.892342 315.835413 144.208441 316.631023 144.208441 
z
" style="fill:#f26b38;stroke:#ffffff;stroke-width:0.48;"/>
    <path clip-path="url(#pcc6264fe89)" d="M 323.394659 144.208441 
C 324.190268 144.208441 324.953399 143.892342 325.515979 143.329761 
C 326.07856 142.767181 326.394659 142.00405 326.394659 141.208441 
C 326.394659 140.412832 326.07856 139.649701 325.515979 139.087121 
C 324.953399 138.52454 324.190268 138.208441 323.394659 138.208441 
C 322.59905 138.208441 321.835919 138.52454 321.273339 139.087121 
C 320.710758 139.649701 320.394659 140.412832 320.394659 141.208441 
C 320.394659 142.00405 320.710758 142.767181 321.273339 143.329761 
C 321.835919 143.892342 322.59905 144.208441 323.394659 144.208441 
z
" style="fill:#f26b38;stroke:#ffffff;stroke-width:0.48;"/>
    <path clip-path="url(#pcc6264fe89)" d="M 330.158295 144.208441 
C 330.953905 144.208441 331.717035 143.892342 332.279616 143.329761 
C 332.842197 142.767181 333.158295 142.00405 333.158295 141.208441 
C 333.158295 140.412832 332.842197 139.649701 332.279616 139.087121 
C 331.717035 138.52454 330.953905 138.208441 330.158295 138.208441 
C 329.362686 138.208441 328.599556 138.52454 328.036975 139.087121 
C 327.474394 139.649701 327.158295 140.412832 327.158295 141.208441 
C 327.158295 142.00405 327.474394 142.767181 328.036975 143.329761 
C 328.599556 143.892342 329.362686 144.208441 330.158295 144.208441 
z
" style="fill:#f26b38;stroke:#ffffff;stroke-width:0.48;"/>
    <path clip-path="url(#pcc6264fe89)" d="M 336.921932 144.208441 
C 337.717541 144.208441 338.480671 143.892342 339.043252 143.329761 
C 339.605833 142.767181 339.921932 142.00405 339.921932 141.208441 
C 339.921932 140.412832 339.605833 139.649701 339.043252 139.087121 
C 338.480671 138.52454 337.717541 138.208441 336.921932 138.208441 
C 336.126323 138.208441 335.363192 138.52454 334.800611 139.087121 
C 334.238031 139.649701 333.921932 140.412832 333.921932 141.208441 
C 333.921932 142.00405 334.238031 142.767181 334.800611 143.329761 
C 335.363192 143.892342 336.126323 144.208441 336.921932 144.208441 
z
" style="fill:#f26b38;stroke:#ffffff;stroke-width:0.48;"/>
    <path clip-path="url(#pcc6264fe89)" d="M 343.685568 144.208441 
C 344.481177 144.208441 345.244308 143.892342 345.806889 143.329761 
C 346.369469 142.767181 346.685568 142.00405 346.685568 141.208441 
C 346.685568 140.412832 346.369469 139.649701 345.806889 139.087121 
C 345.244308 138.52454 344.481177 138.208441 343.685568 138.208441 
C 342.889959 138.208441 342.126829 138.52454 341.564248 139.087121 
C 341.001667 139.649701 340.685568 140.412832 340.685568 141.208441 
C 340.685568 142.00405 341.001667 142.767181 341.564248 143.329761 
C 342.126829 143.892342 342.889959 144.208441 343.685568 144.208441 
z
" style="fill:#f26b38;stroke:#ffffff;stroke-width:0.48;"/>
    <path clip-path="url(#pcc6264fe89)" d="M 350.449205 144.208441 
C 351.244814 144.208441 352.007944 143.892342 352.570525 143.329761 
C 353.133106 142.767181 353.449205 142.00405 353.449205 141.208441 
C 353.449205 140.412832 353.133106 139.649701 352.570525 139.087121 
C 352.007944 138.52454 351.244814 138.208441 350.449205 138.208441 
C 349.653595 138.208441 348.890465 138.52454 348.327884 139.087121 
C 347.765303 139.649701 347.449205 140.412832 347.449205 141.208441 
C 347.449205 142.00405 347.765303 142.767181 348.327884 143.329761 
C 348.890465 143.892342 349.653595 144.208441 350.449205 144.208441 
z
" style="fill:#f26b38;stroke:#ffffff;stroke-width:0.48;"/>
    <path clip-path="url(#pcc6264fe89)" d="M 357.212841 144.208441 
C 358.00845 144.208441 358.771581 143.892342 359.334161 143.329761 
C 359.896742 142.767181 360.212841 142.00405 360.212841 141.208441 
C 360.212841 140.412832 359.896742 139.649701 359.334161 139.087121 
C 358.771581 138.52454 358.00845 138.208441 357.212841 138.208441 
C 356.417232 138.208441 355.654101 138.52454 355.091521 139.087121 
C 354.52894 139.649701 354.212841 140.412832 354.212841 141.208441 
C 354.212841 142.00405 354.52894 142.767181 355.091521 143.329761 
C 355.654101 143.892342 356.417232 144.208441 357.212841 144.208441 
z
" style="fill:#f26b38;stroke:#ffffff;stroke-width:0.48;"/>
    <path clip-path="url(#pcc6264fe89)" d="M 363.976477 144.208441 
C 364.772087 144.208441 365.535217 143.892342 366.097798 143.329761 
C 366.660378 142.767181 366.976477 142.00405 366.976477 141.208441 
C 366.976477 140.412832 366.660378 139.649701 366.097798 139.087121 
C 365.535217 138.52454 364.772087 138.208441 363.976477 138.208441 
C 363.180868 138.208441 362.417738 138.52454 361.855157 139.087121 
C 361.292576 139.649701 360.976477 140.412832 360.976477 141.208441 
C 360.976477 142.00405 361.292576 142.767181 361.855157 143.329761 
C 362.417738 143.892342 363.180868 144.208441 363.976477 144.208441 
z
" style="fill:#f26b38;stroke:#ffffff;stroke-width:0.48;"/>
    <path clip-path="url(#pcc6264fe89)" d="M 370.740114 144.208441 
C 371.535723 144.208441 372.298853 143.892342 372.861434 143.329761 
C 373.424015 142.767181 373.740114 142.00405 373.740114 141.208441 
C 373.740114 140.412832 373.424015 139.649701 372.861434 139.087121 
C 372.298853 138.52454 371.535723 138.208441 370.740114 138.208441 
C 369.944504 138.208441 369.181374 138.52454 368.618793 139.087121 
C 368.056213 139.649701 367.740114 140.412832 367.740114 141.208441 
C 367.740114 142.00405 368.056213 142.767181 368.618793 143.329761 
C 369.181374 143.892342 369.944504 144.208441 370.740114 144.208441 
z
" style="fill:#f26b38;stroke:#ffffff;stroke-width:0.48;"/>
    <path clip-path="url(#pcc6264fe89)" d="M 377.50375 144.208441 
C 378.299359 144.208441 379.06249 143.892342 379.62507 143.329761 
C 380.187651 142.767181 380.50375 142.00405 380.50375 141.208441 
C 380.50375 140.412832 380.187651 139.649701 379.62507 139.087121 
C 379.06249 138.52454 378.299359 138.208441 377.50375 138.208441 
C 376.708141 138.208441 375.94501 138.52454 375.38243 139.087121 
C 374.819849 139.649701 374.50375 140.412832 374.50375 141.208441 
C 374.50375 142.00405 374.819849 142.767181 375.38243 143.329761 
C 375.94501 143.892342 376.708141 144.208441 377.50375 144.208441 
z
" style="fill:#f26b38;stroke:#ffffff;stroke-width:0.48;"/>
    <path clip-path="url(#pcc6264fe89)" d="M 384.267386 144.208441 
C 385.062996 144.208441 385.826126 143.892342 386.388707 143.329761 
C 386.951287 142.767181 387.267386 142.00405 387.267386 141.208441 
C 387.267386 140.412832 386.951287 139.649701 386.388707 139.087121 
C 385.826126 138.52454 385.062996 138.208441 384.267386 138.208441 
C 383.471777 138.208441 382.708647 138.52454 382.146066 139.087121 
C 381.583485 139.649701 381.267386 140.412832 381.267386 141.208441 
C 381.267386 142.00405 381.583485 142.767181 382.146066 143.329761 
C 382.708647 143.892342 383.471777 144.208441 384.267386 144.208441 
z
" style="fill:#f26b38;stroke:#ffffff;stroke-width:0.48;"/>
    <path clip-path="url(#pcc6264fe89)" d="M 391.031023 144.208441 
C 391.826632 144.208441 392.589762 143.892342 393.152343 143.329761 
C 393.714924 142.767181 394.031023 142.00405 394.031023 141.208441 
C 394.031023 140.412832 393.714924 139.649701 393.152343 139.087121 
C 392.589762 138.52454 391.826632 138.208441 391.031023 138.208441 
C 390.235413 138.208441 389.472283 138.52454 388.909702 139.087121 
C 388.347122 139.649701 388.031023 140.412832 388.031023 141.208441 
C 388.031023 142.00405 388.347122 142.767181 388.909702 143.329761 
C 389.472283 143.892342 390.235413 144.208441 391.031023 144.208441 
z
" style="fill:#f26b38;stroke:#ffffff;stroke-width:0.48;"/>
    <path clip-path="url(#pcc6264fe89)" d="M 64.876477 184.210961 
L 66.376477 182.710961 
L 67.876477 184.210961 
L 69.376477 182.710961 
L 67.876477 181.210961 
L 69.376477 179.710961 
L 67.876477 178.210961 
L 66.376477 179.710961 
L 64.876477 178.210961 
L 63.376477 179.710961 
L 64.876477 181.210961 
L 63.376477 182.710961 
z
" style="fill:#2f9599;stroke:#ffffff;stroke-width:0.48;"/>
    <path clip-path="url(#pcc6264fe89)" d="M 71.640114 157.542614 
L 73.140114 156.042614 
L 74.640114 157.542614 
L 76.140114 156.042614 
L 74.640114 154.542614 
L 76.140114 153.042614 
L 74.640114 151.542614 
L 73.140114 153.042614 
L 71.640114 151.542614 
L 70.140114 153.042614 
L 71.640114 154.542614 
L 70.140114 156.042614 
z
" style="fill:#2f9599;stroke:#ffffff;stroke-width:0.48;"/>
    <path clip-path="url(#pcc6264fe89)" d="M 78.40375 157.542614 
L 79.90375 156.042614 
L 81.40375 157.542614 
L 82.90375 156.042614 
L 81.40375 154.542614 
L 82.90375 153.042614 
L 81.40375 151.542614 
L 79.90375 153.042614 
L 78.40375 151.542614 
L 76.90375 153.042614 
L 78.40375 154.542614 
L 76.90375 156.042614 
z
" style="fill:#2f9599;stroke:#ffffff;stroke-width:0.48;"/>
    <path clip-path="url(#pcc6264fe89)" d="M 85.167386 157.542614 
L 86.667386 156.042614 
L 88.167386 157.542614 
L 89.667386 156.042614 
L 88.167386 154.542614 
L 89.667386 153.042614 
L 88.167386 151.542614 
L 86.667386 153.042614 
L 85.167386 151.542614 
L 83.667386 153.042614 
L 85.167386 154.542614 
L 83.667386 156.042614 
z
" style="fill:#2f9599;stroke:#ffffff;stroke-width:0.48;"/>
    <path clip-path="url(#pcc6264fe89)" d="M 91.931023 157.542614 
L 93.431023 156.042614 
L 94.931023 157.542614 
L 96.431023 156.042614 
L 94.931023 154.542614 
L 96.431023 153.042614 
L 94.931023 151.542614 
L 93.431023 153.042614 
L 91.931023 151.542614 
L 90.431023 153.042614 
L 91.931023 154.542614 
L 90.431023 156.042614 
z
" style="fill:#2f9599;stroke:#ffffff;stroke-width:0.48;"/>
    <path clip-path="url(#pcc6264fe89)" d="M 98.694659 197.545134 
L 100.194659 196.045134 
L 101.694659 197.545134 
L 103.194659 196.045134 
L 101.694659 194.545134 
L 103.194659 193.045134 
L 101.694659 191.545134 
L 100.194659 193.045134 
L 98.694659 191.545134 
L 97.194659 193.045134 
L 98.694659 194.545134 
L 97.194659 196.045134 
z
" style="fill:#2f9599;stroke:#ffffff;stroke-width:0.48;"/>
    <path clip-path="url(#pcc6264fe89)" d="M 105.458295 197.545134 
L 106.958295 196.045134 
L 108.458295 197.545134 
L 109.958295 196.045134 
L 108.458295 194.545134 
L 109.958295 193.045134 
L 108.458295 191.545134 
L 106.958295 193.045134 
L 105.458295 191.545134 
L 103.958295 193.045134 
L 105.458295 194.545134 
L 103.958295 196.045134 
z
" style="fill:#2f9599;stroke:#ffffff;stroke-width:0.48;"/>
    <path clip-path="url(#pcc6264fe89)" d="M 112.221932 197.545134 
L 113.721932 196.045134 
L 115.221932 197.545134 
L 116.721932 196.045134 
L 115.221932 194.545134 
L 116.721932 193.045134 
L 115.221932 191.545134 
L 113.721932 193.045134 
L 112.221932 191.545134 
L 110.721932 193.045134 
L 112.221932 194.545134 
L 110.721932 196.045134 
z
" style="fill:#2f9599;stroke:#ffffff;stroke-width:0.48;"/>
    <path clip-path="url(#pcc6264fe89)" d="M 118.985568 197.545134 
L 120.485568 196.045134 
L 121.985568 197.545134 
L 123.485568 196.045134 
L 121.985568 194.545134 
L 123.485568 193.045134 
L 121.985568 191.545134 
L 120.485568 193.045134 
L 118.985568 191.545134 
L 117.485568 193.045134 
L 118.985568 194.545134 
L 117.485568 196.045134 
z
" style="fill:#2f9599;stroke:#ffffff;stroke-width:0.48;"/>
    <path clip-path="url(#pcc6264fe89)" d="M 125.749205 157.542614 
L 127.249205 156.042614 
L 128.749205 157.542614 
L 130.249205 156.042614 
L 128.749205 154.542614 
L 130.249205 153.042614 
L 128.749205 151.542614 
L 127.249205 153.042614 
L 125.749205 151.542614 
L 124.249205 153.042614 
L 125.749205 154.542614 
L 124.249205 156.042614 
z
" style="fill:#2f9599;stroke:#ffffff;stroke-width:0.48;"/>
    <path clip-path="url(#pcc6264fe89)" d="M 132.512841 144.208441 
L 134.012841 142.708441 
L 135.512841 144.208441 
L 137.012841 142.708441 
L 135.512841 141.208441 
L 137.012841 139.708441 
L 135.512841 138.208441 
L 134.012841 139.708441 
L 132.512841 138.208441 
L 131.012841 139.708441 
L 132.512841 141.208441 
L 131.012841 142.708441 
z
" style="fill:#2f9599;stroke:#ffffff;stroke-width:0.48;"/>
    <path clip-path="url(#pcc6264fe89)" d="M 139.276477 264.216 
L 140.776477 262.716 
L 142.276477 264.216 
L 143.776477 262.716 
L 142.276477 261.216 
L 143.776477 259.716 
L 142.276477 258.216 
L 140.776477 259.716 
L 139.276477 258.216 
L 137.776477 259.716 
L 139.276477 261.216 
L 137.776477 262.716 
z
" style="fill:#2f9599;stroke:#ffffff;stroke-width:0.48;"/>
    <path clip-path="url(#pcc6264fe89)" d="M 146.040114 264.216 
L 147.540114 262.716 
L 149.040114 264.216 
L 150.540114 262.716 
L 149.040114 261.216 
L 150.540114 259.716 
L 149.040114 258.216 
L 147.540114 259.716 
L 146.040114 258.216 
L 144.540114 259.716 
L 146.040114 261.216 
L 144.540114 262.716 
z
" style="fill:#2f9599;stroke:#ffffff;stroke-width:0.48;"/>
    <path clip-path="url(#pcc6264fe89)" d="M 152.80375 264.216 
L 154.30375 262.716 
L 155.80375 264.216 
L 157.30375 262.716 
L 155.80375 261.216 
L 157.30375 259.716 
L 155.80375 258.216 
L 154.30375 259.716 
L 152.80375 258.216 
L 151.30375 259.716 
L 152.80375 261.216 
L 151.30375 262.716 
z
" style="fill:#2f9599;stroke:#ffffff;stroke-width:0.48;"/>
    <path clip-path="url(#pcc6264fe89)" d="M 159.567386 264.216 
L 161.067386 262.716 
L 162.567386 264.216 
L 164.067386 262.716 
L 162.567386 261.216 
L 164.067386 259.716 
L 162.567386 258.216 
L 161.067386 259.716 
L 159.567386 258.216 
L 158.067386 259.716 
L 159.567386 261.216 
L 158.067386 262.716 
z
" style="fill:#2f9599;stroke:#ffffff;stroke-width:0.48;"/>
    <path clip-path="url(#pcc6264fe89)" d="M 166.331023 250.881827 
L 167.831023 249.381827 
L 169.331023 250.881827 
L 170.831023 249.381827 
L 169.331023 247.881827 
L 170.831023 246.381827 
L 169.331023 244.881827 
L 167.831023 246.381827 
L 166.331023 244.881827 
L 164.831023 246.381827 
L 166.331023 247.881827 
L 164.831023 249.381827 
z
" style="fill:#2f9599;stroke:#ffffff;stroke-width:0.48;"/>
    <path clip-path="url(#pcc6264fe89)" d="M 173.094659 224.21348 
L 174.594659 222.71348 
L 176.094659 224.21348 
L 177.594659 222.71348 
L 176.094659 221.21348 
L 177.594659 219.71348 
L 176.094659 218.21348 
L 174.594659 219.71348 
L 173.094659 218.21348 
L 171.594659 219.71348 
L 173.094659 221.21348 
L 171.594659 222.71348 
z
" style="fill:#2f9599;stroke:#ffffff;stroke-width:0.48;"/>
    <path clip-path="url(#pcc6264fe89)" d="M 179.858295 224.21348 
L 181.358295 222.71348 
L 182.858295 224.21348 
L 184.358295 222.71348 
L 182.858295 221.21348 
L 184.358295 219.71348 
L 182.858295 218.21348 
L 181.358295 219.71348 
L 179.858295 218.21348 
L 178.358295 219.71348 
L 179.858295 221.21348 
L 178.358295 222.71348 
z
" style="fill:#2f9599;stroke:#ffffff;stroke-width:0.48;"/>
    <path clip-path="url(#pcc6264fe89)" d="M 186.621932 224.21348 
L 188.121932 222.71348 
L 189.621932 224.21348 
L 191.121932 222.71348 
L 189.621932 221.21348 
L 191.121932 219.71348 
L 189.621932 218.21348 
L 188.121932 219.71348 
L 186.621932 218.21348 
L 185.121932 219.71348 
L 186.621932 221.21348 
L 185.121932 222.71348 
z
" style="fill:#2f9599;stroke:#ffffff;stroke-width:0.48;"/>
    <path clip-path="url(#pcc6264fe89)" d="M 193.385568 224.21348 
L 194.885568 222.71348 
L 196.385568 224.21348 
L 197.885568 222.71348 
L 196.385568 221.21348 
L 197.885568 219.71348 
L 196.385568 218.21348 
L 194.885568 219.71348 
L 193.385568 218.21348 
L 191.885568 219.71348 
L 193.385568 221.21348 
L 191.885568 222.71348 
z
" style="fill:#2f9599;stroke:#ffffff;stroke-width:0.48;"/>
    <path clip-path="url(#pcc6264fe89)" d="M 200.149205 224.21348 
L 201.649205 222.71348 
L 203.149205 224.21348 
L 204.649205 222.71348 
L 203.149205 221.21348 
L 204.649205 219.71348 
L 203.149205 218.21348 
L 201.649205 219.71348 
L 200.149205 218.21348 
L 198.649205 219.71348 
L 200.149205 221.21348 
L 198.649205 222.71348 
z
" style="fill:#2f9599;stroke:#ffffff;stroke-width:0.48;"/>
    <path clip-path="url(#pcc6264fe89)" d="M 206.912841 224.21348 
L 208.412841 222.71348 
L 209.912841 224.21348 
L 211.412841 222.71348 
L 209.912841 221.21348 
L 211.412841 219.71348 
L 209.912841 218.21348 
L 208.412841 219.71348 
L 206.912841 218.21348 
L 205.412841 219.71348 
L 206.912841 221.21348 
L 205.412841 222.71348 
z
" style="fill:#2f9599;stroke:#ffffff;stroke-width:0.48;"/>
    <path clip-path="url(#pcc6264fe89)" d="M 213.676477 224.21348 
L 215.176477 222.71348 
L 216.676477 224.21348 
L 218.176477 222.71348 
L 216.676477 221.21348 
L 218.176477 219.71348 
L 216.676477 218.21348 
L 215.176477 219.71348 
L 213.676477 218.21348 
L 212.176477 219.71348 
L 213.676477 221.21348 
L 212.176477 222.71348 
z
" style="fill:#2f9599;stroke:#ffffff;stroke-width:0.48;"/>
    <path clip-path="url(#pcc6264fe89)" d="M 220.440114 224.21348 
L 221.940114 222.71348 
L 223.440114 224.21348 
L 224.940114 222.71348 
L 223.440114 221.21348 
L 224.940114 219.71348 
L 223.440114 218.21348 
L 221.940114 219.71348 
L 220.440114 218.21348 
L 218.940114 219.71348 
L 220.440114 221.21348 
L 218.940114 222.71348 
z
" style="fill:#2f9599;stroke:#ffffff;stroke-width:0.48;"/>
    <path clip-path="url(#pcc6264fe89)" d="M 227.20375 224.21348 
L 228.70375 222.71348 
L 230.20375 224.21348 
L 231.70375 222.71348 
L 230.20375 221.21348 
L 231.70375 219.71348 
L 230.20375 218.21348 
L 228.70375 219.71348 
L 227.20375 218.21348 
L 225.70375 219.71348 
L 227.20375 221.21348 
L 225.70375 222.71348 
z
" style="fill:#2f9599;stroke:#ffffff;stroke-width:0.48;"/>
    <path clip-path="url(#pcc6264fe89)" d="M 233.967386 224.21348 
L 235.467386 222.71348 
L 236.967386 224.21348 
L 238.467386 222.71348 
L 236.967386 221.21348 
L 238.467386 219.71348 
L 236.967386 218.21348 
L 235.467386 219.71348 
L 233.967386 218.21348 
L 232.467386 219.71348 
L 233.967386 221.21348 
L 232.467386 222.71348 
z
" style="fill:#2f9599;stroke:#ffffff;stroke-width:0.48;"/>
    <path clip-path="url(#pcc6264fe89)" d="M 240.731023 224.21348 
L 242.231023 222.71348 
L 243.731023 224.21348 
L 245.231023 222.71348 
L 243.731023 221.21348 
L 245.231023 219.71348 
L 243.731023 218.21348 
L 242.231023 219.71348 
L 240.731023 218.21348 
L 239.231023 219.71348 
L 240.731023 221.21348 
L 239.231023 222.71348 
z
" style="fill:#2f9599;stroke:#ffffff;stroke-width:0.48;"/>
    <path clip-path="url(#pcc6264fe89)" d="M 247.494659 224.21348 
L 248.994659 222.71348 
L 250.494659 224.21348 
L 251.994659 222.71348 
L 250.494659 221.21348 
L 251.994659 219.71348 
L 250.494659 218.21348 
L 248.994659 219.71348 
L 247.494659 218.21348 
L 245.994659 219.71348 
L 247.494659 221.21348 
L 245.994659 222.71348 
z
" style="fill:#2f9599;stroke:#ffffff;stroke-width:0.48;"/>
    <path clip-path="url(#pcc6264fe89)" d="M 254.258295 224.21348 
L 255.758295 222.71348 
L 257.258295 224.21348 
L 258.758295 222.71348 
L 257.258295 221.21348 
L 258.758295 219.71348 
L 257.258295 218.21348 
L 255.758295 219.71348 
L 254.258295 218.21348 
L 252.758295 219.71348 
L 254.258295 221.21348 
L 252.758295 222.71348 
z
" style="fill:#2f9599;stroke:#ffffff;stroke-width:0.48;"/>
    <path clip-path="url(#pcc6264fe89)" d="M 261.021932 224.21348 
L 262.521932 222.71348 
L 264.021932 224.21348 
L 265.521932 222.71348 
L 264.021932 221.21348 
L 265.521932 219.71348 
L 264.021932 218.21348 
L 262.521932 219.71348 
L 261.021932 218.21348 
L 259.521932 219.71348 
L 261.021932 221.21348 
L 259.521932 222.71348 
z
" style="fill:#2f9599;stroke:#ffffff;stroke-width:0.48;"/>
    <path clip-path="url(#pcc6264fe89)" d="M 267.785568 224.21348 
L 269.285568 222.71348 
L 270.785568 224.21348 
L 272.285568 222.71348 
L 270.785568 221.21348 
L 272.285568 219.71348 
L 270.785568 218.21348 
L 269.285568 219.71348 
L 267.785568 218.21348 
L 266.285568 219.71348 
L 267.785568 221.21348 
L 266.285568 222.71348 
z
" style="fill:#2f9599;stroke:#ffffff;stroke-width:0.48;"/>
    <path clip-path="url(#pcc6264fe89)" d="M 274.549205 224.21348 
L 276.049205 222.71348 
L 277.549205 224.21348 
L 279.049205 222.71348 
L 277.549205 221.21348 
L 279.049205 219.71348 
L 277.549205 218.21348 
L 276.049205 219.71348 
L 274.549205 218.21348 
L 273.049205 219.71348 
L 274.549205 221.21348 
L 273.049205 222.71348 
z
" style="fill:#2f9599;stroke:#ffffff;stroke-width:0.48;"/>
    <path clip-path="url(#pcc6264fe89)" d="M 281.312841 224.21348 
L 282.812841 222.71348 
L 284.312841 224.21348 
L 285.812841 222.71348 
L 284.312841 221.21348 
L 285.812841 219.71348 
L 284.312841 218.21348 
L 282.812841 219.71348 
L 281.312841 218.21348 
L 279.812841 219.71348 
L 281.312841 221.21348 
L 279.812841 222.71348 
z
" style="fill:#2f9599;stroke:#ffffff;stroke-width:0.48;"/>
    <path clip-path="url(#pcc6264fe89)" d="M 288.076477 224.21348 
L 289.576477 222.71348 
L 291.076477 224.21348 
L 292.576477 222.71348 
L 291.076477 221.21348 
L 292.576477 219.71348 
L 291.076477 218.21348 
L 289.576477 219.71348 
L 288.076477 218.21348 
L 286.576477 219.71348 
L 288.076477 221.21348 
L 286.576477 222.71348 
z
" style="fill:#2f9599;stroke:#ffffff;stroke-width:0.48;"/>
    <path clip-path="url(#pcc6264fe89)" d="M 294.840114 224.21348 
L 296.340114 222.71348 
L 297.840114 224.21348 
L 299.340114 222.71348 
L 297.840114 221.21348 
L 299.340114 219.71348 
L 297.840114 218.21348 
L 296.340114 219.71348 
L 294.840114 218.21348 
L 293.340114 219.71348 
L 294.840114 221.21348 
L 293.340114 222.71348 
z
" style="fill:#2f9599;stroke:#ffffff;stroke-width:0.48;"/>
    <path clip-path="url(#pcc6264fe89)" d="M 301.60375 224.21348 
L 303.10375 222.71348 
L 304.60375 224.21348 
L 306.10375 222.71348 
L 304.60375 221.21348 
L 306.10375 219.71348 
L 304.60375 218.21348 
L 303.10375 219.71348 
L 301.60375 218.21348 
L 300.10375 219.71348 
L 301.60375 221.21348 
L 300.10375 222.71348 
z
" style="fill:#2f9599;stroke:#ffffff;stroke-width:0.48;"/>
    <path clip-path="url(#pcc6264fe89)" d="M 308.367386 224.21348 
L 309.867386 222.71348 
L 311.367386 224.21348 
L 312.867386 222.71348 
L 311.367386 221.21348 
L 312.867386 219.71348 
L 311.367386 218.21348 
L 309.867386 219.71348 
L 308.367386 218.21348 
L 306.867386 219.71348 
L 308.367386 221.21348 
L 306.867386 222.71348 
z
" style="fill:#2f9599;stroke:#ffffff;stroke-width:0.48;"/>
    <path clip-path="url(#pcc6264fe89)" d="M 315.131023 224.21348 
L 316.631023 222.71348 
L 318.131023 224.21348 
L 319.631023 222.71348 
L 318.131023 221.21348 
L 319.631023 219.71348 
L 318.131023 218.21348 
L 316.631023 219.71348 
L 315.131023 218.21348 
L 313.631023 219.71348 
L 315.131023 221.21348 
L 313.631023 222.71348 
z
" style="fill:#2f9599;stroke:#ffffff;stroke-width:0.48;"/>
    <path clip-path="url(#pcc6264fe89)" d="M 321.894659 224.21348 
L 323.394659 222.71348 
L 324.894659 224.21348 
L 326.394659 222.71348 
L 324.894659 221.21348 
L 326.394659 219.71348 
L 324.894659 218.21348 
L 323.394659 219.71348 
L 321.894659 218.21348 
L 320.394659 219.71348 
L 321.894659 221.21348 
L 320.394659 222.71348 
z
" style="fill:#2f9599;stroke:#ffffff;stroke-width:0.48;"/>
    <path clip-path="url(#pcc6264fe89)" d="M 328.658295 224.21348 
L 330.158295 222.71348 
L 331.658295 224.21348 
L 333.158295 222.71348 
L 331.658295 221.21348 
L 333.158295 219.71348 
L 331.658295 218.21348 
L 330.158295 219.71348 
L 328.658295 218.21348 
L 327.158295 219.71348 
L 328.658295 221.21348 
L 327.158295 222.71348 
z
" style="fill:#2f9599;stroke:#ffffff;stroke-width:0.48;"/>
    <path clip-path="url(#pcc6264fe89)" d="M 335.421932 224.21348 
L 336.921932 222.71348 
L 338.421932 224.21348 
L 339.921932 222.71348 
L 338.421932 221.21348 
L 339.921932 219.71348 
L 338.421932 218.21348 
L 336.921932 219.71348 
L 335.421932 218.21348 
L 333.921932 219.71348 
L 335.421932 221.21348 
L 333.921932 222.71348 
z
" style="fill:#2f9599;stroke:#ffffff;stroke-width:0.48;"/>
    <path clip-path="url(#pcc6264fe89)" d="M 342.185568 224.21348 
L 343.685568 222.71348 
L 345.185568 224.21348 
L 346.685568 222.71348 
L 345.185568 221.21348 
L 346.685568 219.71348 
L 345.185568 218.21348 
L 343.685568 219.71348 
L 342.185568 218.21348 
L 340.685568 219.71348 
L 342.185568 221.21348 
L 340.685568 222.71348 
z
" style="fill:#2f9599;stroke:#ffffff;stroke-width:0.48;"/>
    <path clip-path="url(#pcc6264fe89)" d="M 348.949205 224.21348 
L 350.449205 222.71348 
L 351.949205 224.21348 
L 353.449205 222.71348 
L 351.949205 221.21348 
L 353.449205 219.71348 
L 351.949205 218.21348 
L 350.449205 219.71348 
L 348.949205 218.21348 
L 347.449205 219.71348 
L 348.949205 221.21348 
L 347.449205 222.71348 
z
" style="fill:#2f9599;stroke:#ffffff;stroke-width:0.48;"/>
    <path clip-path="url(#pcc6264fe89)" d="M 355.712841 224.21348 
L 357.212841 222.71348 
L 358.712841 224.21348 
L 360.212841 222.71348 
L 358.712841 221.21348 
L 360.212841 219.71348 
L 358.712841 218.21348 
L 357.212841 219.71348 
L 355.712841 218.21348 
L 354.212841 219.71348 
L 355.712841 221.21348 
L 354.212841 222.71348 
z
" style="fill:#2f9599;stroke:#ffffff;stroke-width:0.48;"/>
    <path clip-path="url(#pcc6264fe89)" d="M 362.476477 224.21348 
L 363.976477 222.71348 
L 365.476477 224.21348 
L 366.976477 222.71348 
L 365.476477 221.21348 
L 366.976477 219.71348 
L 365.476477 218.21348 
L 363.976477 219.71348 
L 362.476477 218.21348 
L 360.976477 219.71348 
L 362.476477 221.21348 
L 360.976477 222.71348 
z
" style="fill:#2f9599;stroke:#ffffff;stroke-width:0.48;"/>
    <path clip-path="url(#pcc6264fe89)" d="M 369.240114 224.21348 
L 370.740114 222.71348 
L 372.240114 224.21348 
L 373.740114 222.71348 
L 372.240114 221.21348 
L 373.740114 219.71348 
L 372.240114 218.21348 
L 370.740114 219.71348 
L 369.240114 218.21348 
L 367.740114 219.71348 
L 369.240114 221.21348 
L 367.740114 222.71348 
z
" style="fill:#2f9599;stroke:#ffffff;stroke-width:0.48;"/>
    <path clip-path="url(#pcc6264fe89)" d="M 376.00375 224.21348 
L 377.50375 222.71348 
L 379.00375 224.21348 
L 380.50375 222.71348 
L 379.00375 221.21348 
L 380.50375 219.71348 
L 379.00375 218.21348 
L 377.50375 219.71348 
L 376.00375 218.21348 
L 374.50375 219.71348 
L 376.00375 221.21348 
L 374.50375 222.71348 
z
" style="fill:#2f9599;stroke:#ffffff;stroke-width:0.48;"/>
    <path clip-path="url(#pcc6264fe89)" d="M 382.767386 224.21348 
L 384.267386 222.71348 
L 385.767386 224.21348 
L 387.267386 222.71348 
L 385.767386 221.21348 
L 387.267386 219.71348 
L 385.767386 218.21348 
L 384.267386 219.71348 
L 382.767386 218.21348 
L 381.267386 219.71348 
L 382.767386 221.21348 
L 381.267386 222.71348 
z
" style="fill:#2f9599;stroke:#ffffff;stroke-width:0.48;"/>
    <path clip-path="url(#pcc6264fe89)" d="M 389.531023 224.21348 
L 391.031023 222.71348 
L 392.531023 224.21348 
L 394.031023 222.71348 
L 392.531023 221.21348 
L 394.031023 219.71348 
L 392.531023 218.21348 
L 391.031023 219.71348 
L 389.531023 218.21348 
L 388.031023 219.71348 
L 389.531023 221.21348 
L 388.031023 222.71348 
z
" style="fill:#2f9599;stroke:#ffffff;stroke-width:0.48;"/>
    <path clip-path="url(#pcc6264fe89)" d="M 64.255157 56.360821 
L 64.255157 60.603462 
L 68.497798 60.603462 
L 68.497798 56.360821 
z
" style="fill:#a7226e;stroke:#ffffff;stroke-width:0.48;"/>
    <path clip-path="url(#pcc6264fe89)" d="M 71.018793 56.360821 
L 71.018793 60.603462 
L 75.261434 60.603462 
L 75.261434 56.360821 
z
" style="fill:#a7226e;stroke:#ffffff;stroke-width:0.48;"/>
    <path clip-path="url(#pcc6264fe89)" d="M 77.78243 56.360821 
L 77.78243 60.603462 
L 82.02507 60.603462 
L 82.02507 56.360821 
z
" style="fill:#a7226e;stroke:#ffffff;stroke-width:0.48;"/>
    <path clip-path="url(#pcc6264fe89)" d="M 84.546066 56.360821 
L 84.546066 60.603462 
L 88.788707 60.603462 
L 88.788707 56.360821 
z
" style="fill:#a7226e;stroke:#ffffff;stroke-width:0.48;"/>
    <path clip-path="url(#pcc6264fe89)" d="M 91.309702 56.360821 
L 91.309702 60.603462 
L 95.552343 60.603462 
L 95.552343 56.360821 
z
" style="fill:#a7226e;stroke:#ffffff;stroke-width:0.48;"/>
    <path clip-path="url(#pcc6264fe89)" d="M 98.073339 69.422869 
L 98.073339 73.665509 
L 102.315979 73.665509 
L 102.315979 69.422869 
z
" style="fill:#a7226e;stroke:#ffffff;stroke-width:0.48;"/>
    <path clip-path="url(#pcc6264fe89)" d="M 104.836975 56.360821 
L 104.836975 60.603462 
L 109.079616 60.603462 
L 109.079616 56.360821 
z
" style="fill:#a7226e;stroke:#ffffff;stroke-width:0.48;"/>
    <path clip-path="url(#pcc6264fe89)" d="M 111.600611 56.360821 
L 111.600611 60.603462 
L 115.843252 60.603462 
L 115.843252 56.360821 
z
" style="fill:#a7226e;stroke:#ffffff;stroke-width:0.48;"/>
    <path clip-path="url(#pcc6264fe89)" d="M 118.364248 56.360821 
L 118.364248 60.603462 
L 122.606889 60.603462 
L 122.606889 56.360821 
z
" style="fill:#a7226e;stroke:#ffffff;stroke-width:0.48;"/>
    <path clip-path="url(#pcc6264fe89)" d="M 125.127884 17.17468 
L 125.127884 21.41732 
L 129.370525 21.41732 
L 129.370525 17.17468 
z
" style="fill:#a7226e;stroke:#ffffff;stroke-width:0.48;"/>
    <path clip-path="url(#pcc6264fe89)" d="M 131.891521 17.17468 
L 131.891521 21.41732 
L 136.134161 21.41732 
L 136.134161 17.17468 
z
" style="fill:#a7226e;stroke:#ffffff;stroke-width:0.48;"/>
    <path clip-path="url(#pcc6264fe89)" d="M 138.655157 30.236727 
L 138.655157 34.479368 
L 142.897798 34.479368 
L 142.897798 30.236727 
z
" style="fill:#a7226e;stroke:#ffffff;stroke-width:0.48;"/>
    <path clip-path="url(#pcc6264fe89)" d="M 145.418793 30.236727 
L 145.418793 34.479368 
L 149.661434 34.479368 
L 149.661434 30.236727 
z
" style="fill:#a7226e;stroke:#ffffff;stroke-width:0.48;"/>
    <path clip-path="url(#pcc6264fe89)" d="M 152.18243 30.236727 
L 152.18243 34.479368 
L 156.42507 34.479368 
L 156.42507 30.236727 
z
" style="fill:#a7226e;stroke:#ffffff;stroke-width:0.48;"/>
    <path clip-path="url(#pcc6264fe89)" d="M 158.946066 17.17468 
L 158.946066 21.41732 
L 163.188707 21.41732 
L 163.188707 17.17468 
z
" style="fill:#a7226e;stroke:#ffffff;stroke-width:0.48;"/>
    <path clip-path="url(#pcc6264fe89)" d="M 165.709702 56.360821 
L 165.709702 60.603462 
L 169.952343 60.603462 
L 169.952343 56.360821 
z
" style="fill:#a7226e;stroke:#ffffff;stroke-width:0.48;"/>
    <path clip-path="url(#pcc6264fe89)" d="M 172.473339 56.360821 
L 172.473339 60.603462 
L 176.715979 60.603462 
L 176.715979 56.360821 
z
" style="fill:#a7226e;stroke:#ffffff;stroke-width:0.48;"/>
    <path clip-path="url(#pcc6264fe89)" d="M 179.236975 43.298774 
L 179.236975 47.541415 
L 183.479616 47.541415 
L 183.479616 43.298774 
z
" style="fill:#a7226e;stroke:#ffffff;stroke-width:0.48;"/>
    <path clip-path="url(#pcc6264fe89)" d="M 186.000611 43.298774 
L 186.000611 47.541415 
L 190.243252 47.541415 
L 190.243252 43.298774 
z
" style="fill:#a7226e;stroke:#ffffff;stroke-width:0.48;"/>
    <path clip-path="url(#pcc6264fe89)" d="M 192.764248 43.298774 
L 192.764248 47.541415 
L 197.006889 47.541415 
L 197.006889 43.298774 
z
" style="fill:#a7226e;stroke:#ffffff;stroke-width:0.48;"/>
    <path clip-path="url(#pcc6264fe89)" d="M 199.527884 43.298774 
L 199.527884 47.541415 
L 203.770525 47.541415 
L 203.770525 43.298774 
z
" style="fill:#a7226e;stroke:#ffffff;stroke-width:0.48;"/>
    <path clip-path="url(#pcc6264fe89)" d="M 206.291521 43.298774 
L 206.291521 47.541415 
L 210.534161 47.541415 
L 210.534161 43.298774 
z
" style="fill:#a7226e;stroke:#ffffff;stroke-width:0.48;"/>
    <path clip-path="url(#pcc6264fe89)" d="M 213.055157 43.298774 
L 213.055157 47.541415 
L 217.297798 47.541415 
L 217.297798 43.298774 
z
" style="fill:#a7226e;stroke:#ffffff;stroke-width:0.48;"/>
    <path clip-path="url(#pcc6264fe89)" d="M 219.818793 43.298774 
L 219.818793 47.541415 
L 224.061434 47.541415 
L 224.061434 43.298774 
z
" style="fill:#a7226e;stroke:#ffffff;stroke-width:0.48;"/>
    <path clip-path="url(#pcc6264fe89)" d="M 226.58243 43.298774 
L 226.58243 47.541415 
L 230.82507 47.541415 
L 230.82507 43.298774 
z
" style="fill:#a7226e;stroke:#ffffff;stroke-width:0.48;"/>
    <path clip-path="url(#pcc6264fe89)" d="M 233.346066 43.298774 
L 233.346066 47.541415 
L 237.588707 47.541415 
L 237.588707 43.298774 
z
" style="fill:#a7226e;stroke:#ffffff;stroke-width:0.48;"/>
    <path clip-path="url(#pcc6264fe89)" d="M 240.109702 43.298774 
L 240.109702 47.541415 
L 244.352343 47.541415 
L 244.352343 43.298774 
z
" style="fill:#a7226e;stroke:#ffffff;stroke-width:0.48;"/>
    <path clip-path="url(#pcc6264fe89)" d="M 246.873339 56.360821 
L 246.873339 60.603462 
L 251.115979 60.603462 
L 251.115979 56.360821 
z
" style="fill:#a7226e;stroke:#ffffff;stroke-width:0.48;"/>
    <path clip-path="url(#pcc6264fe89)" d="M 253.636975 43.298774 
L 253.636975 47.541415 
L 257.879616 47.541415 
L 257.879616 43.298774 
z
" style="fill:#a7226e;stroke:#ffffff;stroke-width:0.48;"/>
    <path clip-path="url(#pcc6264fe89)" d="M 260.400611 82.484916 
L 260.400611 86.727557 
L 264.643252 86.727557 
L 264.643252 82.484916 
z
" style="fill:#a7226e;stroke:#ffffff;stroke-width:0.48;"/>
    <path clip-path="url(#pcc6264fe89)" d="M 267.164248 82.484916 
L 267.164248 86.727557 
L 271.406889 86.727557 
L 271.406889 82.484916 
z
" style="fill:#a7226e;stroke:#ffffff;stroke-width:0.48;"/>
    <path clip-path="url(#pcc6264fe89)" d="M 273.927884 82.484916 
L 273.927884 86.727557 
L 278.170525 86.727557 
L 278.170525 82.484916 
z
" style="fill:#a7226e;stroke:#ffffff;stroke-width:0.48;"/>
    <path clip-path="url(#pcc6264fe89)" d="M 280.691521 82.484916 
L 280.691521 86.727557 
L 284.934161 86.727557 
L 284.934161 82.484916 
z
" style="fill:#a7226e;stroke:#ffffff;stroke-width:0.48;"/>
    <path clip-path="url(#pcc6264fe89)" d="M 287.455157 82.484916 
L 287.455157 86.727557 
L 291.697798 86.727557 
L 291.697798 82.484916 
z
" style="fill:#a7226e;stroke:#ffffff;stroke-width:0.48;"/>
    <path clip-path="url(#pcc6264fe89)" d="M 294.218793 82.484916 
L 294.218793 86.727557 
L 298.461434 86.727557 
L 298.461434 82.484916 
z
" style="fill:#a7226e;stroke:#ffffff;stroke-width:0.48;"/>
    <path clip-path="url(#pcc6264fe89)" d="M 300.98243 82.484916 
L 300.98243 86.727557 
L 305.22507 86.727557 
L 305.22507 82.484916 
z
" style="fill:#a7226e;stroke:#ffffff;stroke-width:0.48;"/>
    <path clip-path="url(#pcc6264fe89)" d="M 307.746066 82.484916 
L 307.746066 86.727557 
L 311.988707 86.727557 
L 311.988707 82.484916 
z
" style="fill:#a7226e;stroke:#ffffff;stroke-width:0.48;"/>
    <path clip-path="url(#pcc6264fe89)" d="M 314.509702 82.484916 
L 314.509702 86.727557 
L 318.752343 86.727557 
L 318.752343 82.484916 
z
" style="fill:#a7226e;stroke:#ffffff;stroke-width:0.48;"/>
    <path clip-path="url(#pcc6264fe89)" d="M 321.273339 82.484916 
L 321.273339 86.727557 
L 325.515979 86.727557 
L 325.515979 82.484916 
z
" style="fill:#a7226e;stroke:#ffffff;stroke-width:0.48;"/>
    <path clip-path="url(#pcc6264fe89)" d="M 328.036975 82.484916 
L 328.036975 86.727557 
L 332.279616 86.727557 
L 332.279616 82.484916 
z
" style="fill:#a7226e;stroke:#ffffff;stroke-width:0.48;"/>
    <path clip-path="url(#pcc6264fe89)" d="M 334.800611 82.484916 
L 334.800611 86.727557 
L 339.043252 86.727557 
L 339.043252 82.484916 
z
" style="fill:#a7226e;stroke:#ffffff;stroke-width:0.48;"/>
    <path clip-path="url(#pcc6264fe89)" d="M 341.564248 82.484916 
L 341.564248 86.727557 
L 345.806889 86.727557 
L 345.806889 82.484916 
z
" style="fill:#a7226e;stroke:#ffffff;stroke-width:0.48;"/>
    <path clip-path="url(#pcc6264fe89)" d="M 348.327884 82.484916 
L 348.327884 86.727557 
L 352.570525 86.727557 
L 352.570525 82.484916 
z
" style="fill:#a7226e;stroke:#ffffff;stroke-width:0.48;"/>
    <path clip-path="url(#pcc6264fe89)" d="M 355.091521 82.484916 
L 355.091521 86.727557 
L 359.334161 86.727557 
L 359.334161 82.484916 
z
" style="fill:#a7226e;stroke:#ffffff;stroke-width:0.48;"/>
    <path clip-path="url(#pcc6264fe89)" d="M 361.855157 82.484916 
L 361.855157 86.727557 
L 366.097798 86.727557 
L 366.097798 82.484916 
z
" style="fill:#a7226e;stroke:#ffffff;stroke-width:0.48;"/>
    <path clip-path="url(#pcc6264fe89)" d="M 368.618793 82.484916 
L 368.618793 86.727557 
L 372.861434 86.727557 
L 372.861434 82.484916 
z
" style="fill:#a7226e;stroke:#ffffff;stroke-width:0.48;"/>
    <path clip-path="url(#pcc6264fe89)" d="M 375.38243 82.484916 
L 375.38243 86.727557 
L 379.62507 86.727557 
L 379.62507 82.484916 
z
" style="fill:#a7226e;stroke:#ffffff;stroke-width:0.48;"/>
    <path clip-path="url(#pcc6264fe89)" d="M 382.146066 82.484916 
L 382.146066 86.727557 
L 386.388707 86.727557 
L 386.388707 82.484916 
z
" style="fill:#a7226e;stroke:#ffffff;stroke-width:0.48;"/>
    <path clip-path="url(#pcc6264fe89)" d="M 388.909702 82.484916 
L 388.909702 86.727557 
L 393.152343 86.727557 
L 393.152343 82.484916 
z
" style="fill:#a7226e;stroke:#ffffff;stroke-width:0.48;"/>
   </g>
   <g id="PathCollection_2"/>
   <g id="PathCollection_3"/>
   <g id="PathCollection_4"/>
   <g id="matplotlib.axis_1">
    <g id="xtick_1">
     <g id="line2d_1">
      <defs>
       <path d="M 0 0 
L 0 3.5 
" id="ma90cd82026" style="stroke:#000000;stroke-width:0.8;"/>
      </defs>
      <g>
       <use style="stroke:#000000;stroke-width:0.8;" x="59.612841" xlink:href="#ma90cd82026" y="273.312"/>
      </g>
     </g>
     <g id="text_1">
      <!-- 0.0 -->
      <g transform="translate(51.661278 287.910437)scale(0.1 -0.1)">
       <defs>
        <path d="M 31.78125 66.40625 
Q 24.171875 66.40625 20.328125 58.90625 
Q 16.5 51.421875 16.5 36.375 
Q 16.5 21.390625 20.328125 13.890625 
Q 24.171875 6.390625 31.78125 6.390625 
Q 39.453125 6.390625 43.28125 13.890625 
Q 47.125 21.390625 47.125 36.375 
Q 47.125 51.421875 43.28125 58.90625 
Q 39.453125 66.40625 31.78125 66.40625 
z
M 31.78125 74.21875 
Q 44.046875 74.21875 50.515625 64.515625 
Q 56.984375 54.828125 56.984375 36.375 
Q 56.984375 17.96875 50.515625 8.265625 
Q 44.046875 -1.421875 31.78125 -1.421875 
Q 19.53125 -1.421875 13.0625 8.265625 
Q 6.59375 17.96875 6.59375 36.375 
Q 6.59375 54.828125 13.0625 64.515625 
Q 19.53125 74.21875 31.78125 74.21875 
z
" id="DejaVuSans-48"/>
        <path d="M 10.6875 12.40625 
L 21 12.40625 
L 21 0 
L 10.6875 0 
z
" id="DejaVuSans-46"/>
       </defs>
       <use xlink:href="#DejaVuSans-48"/>
       <use x="63.623047" xlink:href="#DejaVuSans-46"/>
       <use x="95.410156" xlink:href="#DejaVuSans-48"/>
      </g>
     </g>
    </g>
    <g id="xtick_2">
     <g id="line2d_2">
      <g>
       <use style="stroke:#000000;stroke-width:0.8;" x="127.249205" xlink:href="#ma90cd82026" y="273.312"/>
      </g>
     </g>
     <g id="text_2">
      <!-- 0.2 -->
      <g transform="translate(119.297642 287.910437)scale(0.1 -0.1)">
       <defs>
        <path d="M 19.1875 8.296875 
L 53.609375 8.296875 
L 53.609375 0 
L 7.328125 0 
L 7.328125 8.296875 
Q 12.9375 14.109375 22.625 23.890625 
Q 32.328125 33.6875 34.8125 36.53125 
Q 39.546875 41.84375 41.421875 45.53125 
Q 43.3125 49.21875 43.3125 52.78125 
Q 43.3125 58.59375 39.234375 62.25 
Q 35.15625 65.921875 28.609375 65.921875 
Q 23.96875 65.921875 18.8125 64.3125 
Q 13.671875 62.703125 7.8125 59.421875 
L 7.8125 69.390625 
Q 13.765625 71.78125 18.9375 73 
Q 24.125 74.21875 28.421875 74.21875 
Q 39.75 74.21875 46.484375 68.546875 
Q 53.21875 62.890625 53.21875 53.421875 
Q 53.21875 48.921875 51.53125 44.890625 
Q 49.859375 40.875 45.40625 35.40625 
Q 44.1875 33.984375 37.640625 27.21875 
Q 31.109375 20.453125 19.1875 8.296875 
z
" id="DejaVuSans-50"/>
       </defs>
       <use xlink:href="#DejaVuSans-48"/>
       <use x="63.623047" xlink:href="#DejaVuSans-46"/>
       <use x="95.410156" xlink:href="#DejaVuSans-50"/>
      </g>
     </g>
    </g>
    <g id="xtick_3">
     <g id="line2d_3">
      <g>
       <use style="stroke:#000000;stroke-width:0.8;" x="194.885568" xlink:href="#ma90cd82026" y="273.312"/>
      </g>
     </g>
     <g id="text_3">
      <!-- 0.4 -->
      <g transform="translate(186.934006 287.910437)scale(0.1 -0.1)">
       <defs>
        <path d="M 37.796875 64.3125 
L 12.890625 25.390625 
L 37.796875 25.390625 
z
M 35.203125 72.90625 
L 47.609375 72.90625 
L 47.609375 25.390625 
L 58.015625 25.390625 
L 58.015625 17.1875 
L 47.609375 17.1875 
L 47.609375 0 
L 37.796875 0 
L 37.796875 17.1875 
L 4.890625 17.1875 
L 4.890625 26.703125 
z
" id="DejaVuSans-52"/>
       </defs>
       <use xlink:href="#DejaVuSans-48"/>
       <use x="63.623047" xlink:href="#DejaVuSans-46"/>
       <use x="95.410156" xlink:href="#DejaVuSans-52"/>
      </g>
     </g>
    </g>
    <g id="xtick_4">
     <g id="line2d_4">
      <g>
       <use style="stroke:#000000;stroke-width:0.8;" x="262.521932" xlink:href="#ma90cd82026" y="273.312"/>
      </g>
     </g>
     <g id="text_4">
      <!-- 0.6 -->
      <g transform="translate(254.570369 287.910437)scale(0.1 -0.1)">
       <defs>
        <path d="M 33.015625 40.375 
Q 26.375 40.375 22.484375 35.828125 
Q 18.609375 31.296875 18.609375 23.390625 
Q 18.609375 15.53125 22.484375 10.953125 
Q 26.375 6.390625 33.015625 6.390625 
Q 39.65625 6.390625 43.53125 10.953125 
Q 47.40625 15.53125 47.40625 23.390625 
Q 47.40625 31.296875 43.53125 35.828125 
Q 39.65625 40.375 33.015625 40.375 
z
M 52.59375 71.296875 
L 52.59375 62.3125 
Q 48.875 64.0625 45.09375 64.984375 
Q 41.3125 65.921875 37.59375 65.921875 
Q 27.828125 65.921875 22.671875 59.328125 
Q 17.53125 52.734375 16.796875 39.40625 
Q 19.671875 43.65625 24.015625 45.921875 
Q 28.375 48.1875 33.59375 48.1875 
Q 44.578125 48.1875 50.953125 41.515625 
Q 57.328125 34.859375 57.328125 23.390625 
Q 57.328125 12.15625 50.6875 5.359375 
Q 44.046875 -1.421875 33.015625 -1.421875 
Q 20.359375 -1.421875 13.671875 8.265625 
Q 6.984375 17.96875 6.984375 36.375 
Q 6.984375 53.65625 15.1875 63.9375 
Q 23.390625 74.21875 37.203125 74.21875 
Q 40.921875 74.21875 44.703125 73.484375 
Q 48.484375 72.75 52.59375 71.296875 
z
" id="DejaVuSans-54"/>
       </defs>
       <use xlink:href="#DejaVuSans-48"/>
       <use x="63.623047" xlink:href="#DejaVuSans-46"/>
       <use x="95.410156" xlink:href="#DejaVuSans-54"/>
      </g>
     </g>
    </g>
    <g id="xtick_5">
     <g id="line2d_5">
      <g>
       <use style="stroke:#000000;stroke-width:0.8;" x="330.158295" xlink:href="#ma90cd82026" y="273.312"/>
      </g>
     </g>
     <g id="text_5">
      <!-- 0.8 -->
      <g transform="translate(322.206733 287.910437)scale(0.1 -0.1)">
       <defs>
        <path d="M 31.78125 34.625 
Q 24.75 34.625 20.71875 30.859375 
Q 16.703125 27.09375 16.703125 20.515625 
Q 16.703125 13.921875 20.71875 10.15625 
Q 24.75 6.390625 31.78125 6.390625 
Q 38.8125 6.390625 42.859375 10.171875 
Q 46.921875 13.96875 46.921875 20.515625 
Q 46.921875 27.09375 42.890625 30.859375 
Q 38.875 34.625 31.78125 34.625 
z
M 21.921875 38.8125 
Q 15.578125 40.375 12.03125 44.71875 
Q 8.5 49.078125 8.5 55.328125 
Q 8.5 64.0625 14.71875 69.140625 
Q 20.953125 74.21875 31.78125 74.21875 
Q 42.671875 74.21875 48.875 69.140625 
Q 55.078125 64.0625 55.078125 55.328125 
Q 55.078125 49.078125 51.53125 44.71875 
Q 48 40.375 41.703125 38.8125 
Q 48.828125 37.15625 52.796875 32.3125 
Q 56.78125 27.484375 56.78125 20.515625 
Q 56.78125 9.90625 50.3125 4.234375 
Q 43.84375 -1.421875 31.78125 -1.421875 
Q 19.734375 -1.421875 13.25 4.234375 
Q 6.78125 9.90625 6.78125 20.515625 
Q 6.78125 27.484375 10.78125 32.3125 
Q 14.796875 37.15625 21.921875 38.8125 
z
M 18.3125 54.390625 
Q 18.3125 48.734375 21.84375 45.5625 
Q 25.390625 42.390625 31.78125 42.390625 
Q 38.140625 42.390625 41.71875 45.5625 
Q 45.3125 48.734375 45.3125 54.390625 
Q 45.3125 60.0625 41.71875 63.234375 
Q 38.140625 66.40625 31.78125 66.40625 
Q 25.390625 66.40625 21.84375 63.234375 
Q 18.3125 60.0625 18.3125 54.390625 
z
" id="DejaVuSans-56"/>
       </defs>
       <use xlink:href="#DejaVuSans-48"/>
       <use x="63.623047" xlink:href="#DejaVuSans-46"/>
       <use x="95.410156" xlink:href="#DejaVuSans-56"/>
      </g>
     </g>
    </g>
    <g id="xtick_6">
     <g id="line2d_6">
      <g>
       <use style="stroke:#000000;stroke-width:0.8;" x="397.794659" xlink:href="#ma90cd82026" y="273.312"/>
      </g>
     </g>
     <g id="text_6">
      <!-- 1.0 -->
      <g transform="translate(389.843097 287.910437)scale(0.1 -0.1)">
       <defs>
        <path d="M 12.40625 8.296875 
L 28.515625 8.296875 
L 28.515625 63.921875 
L 10.984375 60.40625 
L 10.984375 69.390625 
L 28.421875 72.90625 
L 38.28125 72.90625 
L 38.28125 8.296875 
L 54.390625 8.296875 
L 54.390625 0 
L 12.40625 0 
z
" id="DejaVuSans-49"/>
       </defs>
       <use xlink:href="#DejaVuSans-49"/>
       <use x="63.623047" xlink:href="#DejaVuSans-46"/>
       <use x="95.410156" xlink:href="#DejaVuSans-48"/>
      </g>
     </g>
    </g>
    <g id="text_7">
     <!-- cutoff -->
     <g transform="translate(214.245938 301.588562)scale(0.1 -0.1)">
      <defs>
       <path d="M 48.78125 52.59375 
L 48.78125 44.1875 
Q 44.96875 46.296875 41.140625 47.34375 
Q 37.3125 48.390625 33.40625 48.390625 
Q 24.65625 48.390625 19.8125 42.84375 
Q 14.984375 37.3125 14.984375 27.296875 
Q 14.984375 17.28125 19.8125 11.734375 
Q 24.65625 6.203125 33.40625 6.203125 
Q 37.3125 6.203125 41.140625 7.25 
Q 44.96875 8.296875 48.78125 10.40625 
L 48.78125 2.09375 
Q 45.015625 0.34375 40.984375 -0.53125 
Q 36.96875 -1.421875 32.421875 -1.421875 
Q 20.0625 -1.421875 12.78125 6.34375 
Q 5.515625 14.109375 5.515625 27.296875 
Q 5.515625 40.671875 12.859375 48.328125 
Q 20.21875 56 33.015625 56 
Q 37.15625 56 41.109375 55.140625 
Q 45.0625 54.296875 48.78125 52.59375 
z
" id="DejaVuSans-99"/>
       <path d="M 8.5 21.578125 
L 8.5 54.6875 
L 17.484375 54.6875 
L 17.484375 21.921875 
Q 17.484375 14.15625 20.5 10.265625 
Q 23.53125 6.390625 29.59375 6.390625 
Q 36.859375 6.390625 41.078125 11.03125 
Q 45.3125 15.671875 45.3125 23.6875 
L 45.3125 54.6875 
L 54.296875 54.6875 
L 54.296875 0 
L 45.3125 0 
L 45.3125 8.40625 
Q 42.046875 3.421875 37.71875 1 
Q 33.40625 -1.421875 27.6875 -1.421875 
Q 18.265625 -1.421875 13.375 4.4375 
Q 8.5 10.296875 8.5 21.578125 
z
M 31.109375 56 
z
" id="DejaVuSans-117"/>
       <path d="M 18.3125 70.21875 
L 18.3125 54.6875 
L 36.8125 54.6875 
L 36.8125 47.703125 
L 18.3125 47.703125 
L 18.3125 18.015625 
Q 18.3125 11.328125 20.140625 9.421875 
Q 21.96875 7.515625 27.59375 7.515625 
L 36.8125 7.515625 
L 36.8125 0 
L 27.59375 0 
Q 17.1875 0 13.234375 3.875 
Q 9.28125 7.765625 9.28125 18.015625 
L 9.28125 47.703125 
L 2.6875 47.703125 
L 2.6875 54.6875 
L 9.28125 54.6875 
L 9.28125 70.21875 
z
" id="DejaVuSans-116"/>
       <path d="M 30.609375 48.390625 
Q 23.390625 48.390625 19.1875 42.75 
Q 14.984375 37.109375 14.984375 27.296875 
Q 14.984375 17.484375 19.15625 11.84375 
Q 23.34375 6.203125 30.609375 6.203125 
Q 37.796875 6.203125 41.984375 11.859375 
Q 46.1875 17.53125 46.1875 27.296875 
Q 46.1875 37.015625 41.984375 42.703125 
Q 37.796875 48.390625 30.609375 48.390625 
z
M 30.609375 56 
Q 42.328125 56 49.015625 48.375 
Q 55.71875 40.765625 55.71875 27.296875 
Q 55.71875 13.875 49.015625 6.21875 
Q 42.328125 -1.421875 30.609375 -1.421875 
Q 18.84375 -1.421875 12.171875 6.21875 
Q 5.515625 13.875 5.515625 27.296875 
Q 5.515625 40.765625 12.171875 48.375 
Q 18.84375 56 30.609375 56 
z
" id="DejaVuSans-111"/>
       <path d="M 37.109375 75.984375 
L 37.109375 68.5 
L 28.515625 68.5 
Q 23.6875 68.5 21.796875 66.546875 
Q 19.921875 64.59375 19.921875 59.515625 
L 19.921875 54.6875 
L 34.71875 54.6875 
L 34.71875 47.703125 
L 19.921875 47.703125 
L 19.921875 0 
L 10.890625 0 
L 10.890625 47.703125 
L 2.296875 47.703125 
L 2.296875 54.6875 
L 10.890625 54.6875 
L 10.890625 58.5 
Q 10.890625 67.625 15.140625 71.796875 
Q 19.390625 75.984375 28.609375 75.984375 
z
" id="DejaVuSans-102"/>
      </defs>
      <use xlink:href="#DejaVuSans-99"/>
      <use x="54.980469" xlink:href="#DejaVuSans-117"/>
      <use x="118.359375" xlink:href="#DejaVuSans-116"/>
      <use x="157.568359" xlink:href="#DejaVuSans-111"/>
      <use x="218.75" xlink:href="#DejaVuSans-102"/>
      <use x="253.955078" xlink:href="#DejaVuSans-102"/>
     </g>
    </g>
   </g>
   <g id="matplotlib.axis_2">
    <g id="ytick_1">
     <g id="line2d_7">
      <defs>
       <path d="M 0 0 
L -3.5 0 
" id="m6da04cd1b3" style="stroke:#000000;stroke-width:0.8;"/>
      </defs>
      <g>
       <use style="stroke:#000000;stroke-width:0.8;" x="50.14375" xlink:href="#m6da04cd1b3" y="247.881827"/>
      </g>
     </g>
     <g id="text_8">
      <!-- 0.50 -->
      <g transform="translate(20.878125 251.681046)scale(0.1 -0.1)">
       <defs>
        <path d="M 10.796875 72.90625 
L 49.515625 72.90625 
L 49.515625 64.59375 
L 19.828125 64.59375 
L 19.828125 46.734375 
Q 21.96875 47.46875 24.109375 47.828125 
Q 26.265625 48.1875 28.421875 48.1875 
Q 40.625 48.1875 47.75 41.5 
Q 54.890625 34.8125 54.890625 23.390625 
Q 54.890625 11.625 47.5625 5.09375 
Q 40.234375 -1.421875 26.90625 -1.421875 
Q 22.3125 -1.421875 17.546875 -0.640625 
Q 12.796875 0.140625 7.71875 1.703125 
L 7.71875 11.625 
Q 12.109375 9.234375 16.796875 8.0625 
Q 21.484375 6.890625 26.703125 6.890625 
Q 35.15625 6.890625 40.078125 11.328125 
Q 45.015625 15.765625 45.015625 23.390625 
Q 45.015625 31 40.078125 35.4375 
Q 35.15625 39.890625 26.703125 39.890625 
Q 22.75 39.890625 18.8125 39.015625 
Q 14.890625 38.140625 10.796875 36.28125 
z
" id="DejaVuSans-53"/>
       </defs>
       <use xlink:href="#DejaVuSans-48"/>
       <use x="63.623047" xlink:href="#DejaVuSans-46"/>
       <use x="95.410156" xlink:href="#DejaVuSans-53"/>
       <use x="159.033203" xlink:href="#DejaVuSans-48"/>
      </g>
     </g>
    </g>
    <g id="ytick_2">
     <g id="line2d_8">
      <g>
       <use style="stroke:#000000;stroke-width:0.8;" x="50.14375" xlink:href="#m6da04cd1b3" y="215.879811"/>
      </g>
     </g>
     <g id="text_9">
      <!-- 0.55 -->
      <g transform="translate(20.878125 219.67903)scale(0.1 -0.1)">
       <use xlink:href="#DejaVuSans-48"/>
       <use x="63.623047" xlink:href="#DejaVuSans-46"/>
       <use x="95.410156" xlink:href="#DejaVuSans-53"/>
       <use x="159.033203" xlink:href="#DejaVuSans-53"/>
      </g>
     </g>
    </g>
    <g id="ytick_3">
     <g id="line2d_9">
      <g>
       <use style="stroke:#000000;stroke-width:0.8;" x="50.14375" xlink:href="#m6da04cd1b3" y="183.877795"/>
      </g>
     </g>
     <g id="text_10">
      <!-- 0.60 -->
      <g transform="translate(20.878125 187.677014)scale(0.1 -0.1)">
       <use xlink:href="#DejaVuSans-48"/>
       <use x="63.623047" xlink:href="#DejaVuSans-46"/>
       <use x="95.410156" xlink:href="#DejaVuSans-54"/>
       <use x="159.033203" xlink:href="#DejaVuSans-48"/>
      </g>
     </g>
    </g>
    <g id="ytick_4">
     <g id="line2d_10">
      <g>
       <use style="stroke:#000000;stroke-width:0.8;" x="50.14375" xlink:href="#m6da04cd1b3" y="151.87578"/>
      </g>
     </g>
     <g id="text_11">
      <!-- 0.65 -->
      <g transform="translate(20.878125 155.674998)scale(0.1 -0.1)">
       <use xlink:href="#DejaVuSans-48"/>
       <use x="63.623047" xlink:href="#DejaVuSans-46"/>
       <use x="95.410156" xlink:href="#DejaVuSans-54"/>
       <use x="159.033203" xlink:href="#DejaVuSans-53"/>
      </g>
     </g>
    </g>
    <g id="ytick_5">
     <g id="line2d_11">
      <g>
       <use style="stroke:#000000;stroke-width:0.8;" x="50.14375" xlink:href="#m6da04cd1b3" y="119.873764"/>
      </g>
     </g>
     <g id="text_12">
      <!-- 0.70 -->
      <g transform="translate(20.878125 123.672983)scale(0.1 -0.1)">
       <defs>
        <path d="M 8.203125 72.90625 
L 55.078125 72.90625 
L 55.078125 68.703125 
L 28.609375 0 
L 18.3125 0 
L 43.21875 64.59375 
L 8.203125 64.59375 
z
" id="DejaVuSans-55"/>
       </defs>
       <use xlink:href="#DejaVuSans-48"/>
       <use x="63.623047" xlink:href="#DejaVuSans-46"/>
       <use x="95.410156" xlink:href="#DejaVuSans-55"/>
       <use x="159.033203" xlink:href="#DejaVuSans-48"/>
      </g>
     </g>
    </g>
    <g id="ytick_6">
     <g id="line2d_12">
      <g>
       <use style="stroke:#000000;stroke-width:0.8;" x="50.14375" xlink:href="#m6da04cd1b3" y="87.871748"/>
      </g>
     </g>
     <g id="text_13">
      <!-- 0.75 -->
      <g transform="translate(20.878125 91.670967)scale(0.1 -0.1)">
       <use xlink:href="#DejaVuSans-48"/>
       <use x="63.623047" xlink:href="#DejaVuSans-46"/>
       <use x="95.410156" xlink:href="#DejaVuSans-55"/>
       <use x="159.033203" xlink:href="#DejaVuSans-53"/>
      </g>
     </g>
    </g>
    <g id="ytick_7">
     <g id="line2d_13">
      <g>
       <use style="stroke:#000000;stroke-width:0.8;" x="50.14375" xlink:href="#m6da04cd1b3" y="55.869732"/>
      </g>
     </g>
     <g id="text_14">
      <!-- 0.80 -->
      <g transform="translate(20.878125 59.668951)scale(0.1 -0.1)">
       <use xlink:href="#DejaVuSans-48"/>
       <use x="63.623047" xlink:href="#DejaVuSans-46"/>
       <use x="95.410156" xlink:href="#DejaVuSans-56"/>
       <use x="159.033203" xlink:href="#DejaVuSans-48"/>
      </g>
     </g>
    </g>
    <g id="ytick_8">
     <g id="line2d_14">
      <g>
       <use style="stroke:#000000;stroke-width:0.8;" x="50.14375" xlink:href="#m6da04cd1b3" y="23.867717"/>
      </g>
     </g>
     <g id="text_15">
      <!-- 0.85 -->
      <g transform="translate(20.878125 27.666935)scale(0.1 -0.1)">
       <use xlink:href="#DejaVuSans-48"/>
       <use x="63.623047" xlink:href="#DejaVuSans-46"/>
       <use x="95.410156" xlink:href="#DejaVuSans-56"/>
       <use x="159.033203" xlink:href="#DejaVuSans-53"/>
      </g>
     </g>
    </g>
    <g id="text_16">
     <!-- performance -->
     <g transform="translate(14.798438 172.278656)rotate(-90)scale(0.1 -0.1)">
      <defs>
       <path d="M 18.109375 8.203125 
L 18.109375 -20.796875 
L 9.078125 -20.796875 
L 9.078125 54.6875 
L 18.109375 54.6875 
L 18.109375 46.390625 
Q 20.953125 51.265625 25.265625 53.625 
Q 29.59375 56 35.59375 56 
Q 45.5625 56 51.78125 48.09375 
Q 58.015625 40.1875 58.015625 27.296875 
Q 58.015625 14.40625 51.78125 6.484375 
Q 45.5625 -1.421875 35.59375 -1.421875 
Q 29.59375 -1.421875 25.265625 0.953125 
Q 20.953125 3.328125 18.109375 8.203125 
z
M 48.6875 27.296875 
Q 48.6875 37.203125 44.609375 42.84375 
Q 40.53125 48.484375 33.40625 48.484375 
Q 26.265625 48.484375 22.1875 42.84375 
Q 18.109375 37.203125 18.109375 27.296875 
Q 18.109375 17.390625 22.1875 11.75 
Q 26.265625 6.109375 33.40625 6.109375 
Q 40.53125 6.109375 44.609375 11.75 
Q 48.6875 17.390625 48.6875 27.296875 
z
" id="DejaVuSans-112"/>
       <path d="M 56.203125 29.59375 
L 56.203125 25.203125 
L 14.890625 25.203125 
Q 15.484375 15.921875 20.484375 11.0625 
Q 25.484375 6.203125 34.421875 6.203125 
Q 39.59375 6.203125 44.453125 7.46875 
Q 49.3125 8.734375 54.109375 11.28125 
L 54.109375 2.78125 
Q 49.265625 0.734375 44.1875 -0.34375 
Q 39.109375 -1.421875 33.890625 -1.421875 
Q 20.796875 -1.421875 13.15625 6.1875 
Q 5.515625 13.8125 5.515625 26.8125 
Q 5.515625 40.234375 12.765625 48.109375 
Q 20.015625 56 32.328125 56 
Q 43.359375 56 49.78125 48.890625 
Q 56.203125 41.796875 56.203125 29.59375 
z
M 47.21875 32.234375 
Q 47.125 39.59375 43.09375 43.984375 
Q 39.0625 48.390625 32.421875 48.390625 
Q 24.90625 48.390625 20.390625 44.140625 
Q 15.875 39.890625 15.1875 32.171875 
z
" id="DejaVuSans-101"/>
       <path d="M 41.109375 46.296875 
Q 39.59375 47.171875 37.8125 47.578125 
Q 36.03125 48 33.890625 48 
Q 26.265625 48 22.1875 43.046875 
Q 18.109375 38.09375 18.109375 28.8125 
L 18.109375 0 
L 9.078125 0 
L 9.078125 54.6875 
L 18.109375 54.6875 
L 18.109375 46.1875 
Q 20.953125 51.171875 25.484375 53.578125 
Q 30.03125 56 36.53125 56 
Q 37.453125 56 38.578125 55.875 
Q 39.703125 55.765625 41.0625 55.515625 
z
" id="DejaVuSans-114"/>
       <path d="M 52 44.1875 
Q 55.375 50.25 60.0625 53.125 
Q 64.75 56 71.09375 56 
Q 79.640625 56 84.28125 50.015625 
Q 88.921875 44.046875 88.921875 33.015625 
L 88.921875 0 
L 79.890625 0 
L 79.890625 32.71875 
Q 79.890625 40.578125 77.09375 44.375 
Q 74.3125 48.1875 68.609375 48.1875 
Q 61.625 48.1875 57.5625 43.546875 
Q 53.515625 38.921875 53.515625 30.90625 
L 53.515625 0 
L 44.484375 0 
L 44.484375 32.71875 
Q 44.484375 40.625 41.703125 44.40625 
Q 38.921875 48.1875 33.109375 48.1875 
Q 26.21875 48.1875 22.15625 43.53125 
Q 18.109375 38.875 18.109375 30.90625 
L 18.109375 0 
L 9.078125 0 
L 9.078125 54.6875 
L 18.109375 54.6875 
L 18.109375 46.1875 
Q 21.1875 51.21875 25.484375 53.609375 
Q 29.78125 56 35.6875 56 
Q 41.65625 56 45.828125 52.96875 
Q 50 49.953125 52 44.1875 
z
" id="DejaVuSans-109"/>
       <path d="M 34.28125 27.484375 
Q 23.390625 27.484375 19.1875 25 
Q 14.984375 22.515625 14.984375 16.5 
Q 14.984375 11.71875 18.140625 8.90625 
Q 21.296875 6.109375 26.703125 6.109375 
Q 34.1875 6.109375 38.703125 11.40625 
Q 43.21875 16.703125 43.21875 25.484375 
L 43.21875 27.484375 
z
M 52.203125 31.203125 
L 52.203125 0 
L 43.21875 0 
L 43.21875 8.296875 
Q 40.140625 3.328125 35.546875 0.953125 
Q 30.953125 -1.421875 24.3125 -1.421875 
Q 15.921875 -1.421875 10.953125 3.296875 
Q 6 8.015625 6 15.921875 
Q 6 25.140625 12.171875 29.828125 
Q 18.359375 34.515625 30.609375 34.515625 
L 43.21875 34.515625 
L 43.21875 35.40625 
Q 43.21875 41.609375 39.140625 45 
Q 35.0625 48.390625 27.6875 48.390625 
Q 23 48.390625 18.546875 47.265625 
Q 14.109375 46.140625 10.015625 43.890625 
L 10.015625 52.203125 
Q 14.9375 54.109375 19.578125 55.046875 
Q 24.21875 56 28.609375 56 
Q 40.484375 56 46.34375 49.84375 
Q 52.203125 43.703125 52.203125 31.203125 
z
" id="DejaVuSans-97"/>
       <path d="M 54.890625 33.015625 
L 54.890625 0 
L 45.90625 0 
L 45.90625 32.71875 
Q 45.90625 40.484375 42.875 44.328125 
Q 39.84375 48.1875 33.796875 48.1875 
Q 26.515625 48.1875 22.3125 43.546875 
Q 18.109375 38.921875 18.109375 30.90625 
L 18.109375 0 
L 9.078125 0 
L 9.078125 54.6875 
L 18.109375 54.6875 
L 18.109375 46.1875 
Q 21.34375 51.125 25.703125 53.5625 
Q 30.078125 56 35.796875 56 
Q 45.21875 56 50.046875 50.171875 
Q 54.890625 44.34375 54.890625 33.015625 
z
" id="DejaVuSans-110"/>
      </defs>
      <use xlink:href="#DejaVuSans-112"/>
      <use x="63.476562" xlink:href="#DejaVuSans-101"/>
      <use x="125" xlink:href="#DejaVuSans-114"/>
      <use x="166.113281" xlink:href="#DejaVuSans-102"/>
      <use x="201.318359" xlink:href="#DejaVuSans-111"/>
      <use x="262.5" xlink:href="#DejaVuSans-114"/>
      <use x="301.863281" xlink:href="#DejaVuSans-109"/>
      <use x="399.275391" xlink:href="#DejaVuSans-97"/>
      <use x="460.554688" xlink:href="#DejaVuSans-110"/>
      <use x="523.933594" xlink:href="#DejaVuSans-99"/>
      <use x="578.914062" xlink:href="#DejaVuSans-101"/>
     </g>
    </g>
   </g>
   <g id="line2d_15">
    <path clip-path="url(#pcc6264fe89)" d="M 66.376477 74.537575 
L 73.140114 61.203402 
L 79.90375 34.535055 
L 86.667386 34.535055 
L 93.431023 21.200882 
L 100.194659 61.203402 
L 106.958295 47.869228 
L 113.721932 47.869228 
L 120.485568 47.869228 
L 127.249205 47.869228 
L 134.012841 101.205921 
L 140.776477 101.205921 
L 147.540114 141.208441 
L 154.30375 141.208441 
L 161.067386 61.203402 
L 167.831023 101.205921 
L 174.594659 101.205921 
L 181.358295 101.205921 
L 188.121932 141.208441 
L 194.885568 101.205921 
L 201.649205 181.210961 
L 208.412841 181.210961 
L 215.176477 181.210961 
L 221.940114 181.210961 
L 228.70375 167.876787 
L 235.467386 141.208441 
L 242.231023 141.208441 
L 248.994659 141.208441 
L 255.758295 141.208441 
L 262.521932 141.208441 
L 269.285568 141.208441 
L 276.049205 141.208441 
L 282.812841 141.208441 
L 289.576477 141.208441 
L 296.340114 141.208441 
L 303.10375 141.208441 
L 309.867386 141.208441 
L 316.631023 141.208441 
L 323.394659 141.208441 
L 330.158295 141.208441 
L 336.921932 141.208441 
L 343.685568 141.208441 
L 350.449205 141.208441 
L 357.212841 141.208441 
L 363.976477 141.208441 
L 370.740114 141.208441 
L 377.50375 141.208441 
L 384.267386 141.208441 
L 391.031023 141.208441 
" style="fill:none;stroke:#f26b38;stroke-dasharray:7.4,3.2;stroke-dashoffset:0;stroke-width:2;"/>
   </g>
   <g id="line2d_16">
    <path clip-path="url(#pcc6264fe89)" d="M 66.376477 181.210961 
L 73.140114 154.542614 
L 79.90375 154.542614 
L 86.667386 154.542614 
L 93.431023 154.542614 
L 100.194659 194.545134 
L 106.958295 194.545134 
L 113.721932 194.545134 
L 120.485568 194.545134 
L 127.249205 154.542614 
L 134.012841 141.208441 
L 140.776477 261.216 
L 147.540114 261.216 
L 154.30375 261.216 
L 161.067386 261.216 
L 167.831023 247.881827 
L 174.594659 221.21348 
L 181.358295 221.21348 
L 188.121932 221.21348 
L 194.885568 221.21348 
L 201.649205 221.21348 
L 208.412841 221.21348 
L 215.176477 221.21348 
L 221.940114 221.21348 
L 228.70375 221.21348 
L 235.467386 221.21348 
L 242.231023 221.21348 
L 248.994659 221.21348 
L 255.758295 221.21348 
L 262.521932 221.21348 
L 269.285568 221.21348 
L 276.049205 221.21348 
L 282.812841 221.21348 
L 289.576477 221.21348 
L 296.340114 221.21348 
L 303.10375 221.21348 
L 309.867386 221.21348 
L 316.631023 221.21348 
L 323.394659 221.21348 
L 330.158295 221.21348 
L 336.921932 221.21348 
L 343.685568 221.21348 
L 350.449205 221.21348 
L 357.212841 221.21348 
L 363.976477 221.21348 
L 370.740114 221.21348 
L 377.50375 221.21348 
L 384.267386 221.21348 
L 391.031023 221.21348 
" style="fill:none;stroke:#2f9599;stroke-dasharray:2,3.3;stroke-dashoffset:0;stroke-width:2;"/>
   </g>
   <g id="line2d_17">
    <path clip-path="url(#pcc6264fe89)" d="M 66.376477 58.482142 
L 73.140114 58.482142 
L 79.90375 58.482142 
L 86.667386 58.482142 
L 93.431023 58.482142 
L 100.194659 71.544189 
L 106.958295 58.482142 
L 113.721932 58.482142 
L 120.485568 58.482142 
L 127.249205 19.296 
L 134.012841 19.296 
L 140.776477 32.358047 
L 147.540114 32.358047 
L 154.30375 32.358047 
L 161.067386 19.296 
L 167.831023 58.482142 
L 174.594659 58.482142 
L 181.358295 45.420094 
L 188.121932 45.420094 
L 194.885568 45.420094 
L 201.649205 45.420094 
L 208.412841 45.420094 
L 215.176477 45.420094 
L 221.940114 45.420094 
L 228.70375 45.420094 
L 235.467386 45.420094 
L 242.231023 45.420094 
L 248.994659 58.482142 
L 255.758295 45.420094 
L 262.521932 84.606236 
L 269.285568 84.606236 
L 276.049205 84.606236 
L 282.812841 84.606236 
L 289.576477 84.606236 
L 296.340114 84.606236 
L 303.10375 84.606236 
L 309.867386 84.606236 
L 316.631023 84.606236 
L 323.394659 84.606236 
L 330.158295 84.606236 
L 336.921932 84.606236 
L 343.685568 84.606236 
L 350.449205 84.606236 
L 357.212841 84.606236 
L 363.976477 84.606236 
L 370.740114 84.606236 
L 377.50375 84.606236 
L 384.267386 84.606236 
L 391.031023 84.606236 
" style="fill:none;stroke:#a7226e;stroke-dasharray:12.8,3.2,2,3.2;stroke-dashoffset:0;stroke-width:2;"/>
   </g>
   <g id="patch_3">
    <path d="M 50.14375 273.312 
L 50.14375 7.2 
" style="fill:none;stroke:#000000;stroke-linecap:square;stroke-linejoin:miter;stroke-width:0.8;"/>
   </g>
   <g id="patch_4">
    <path d="M 407.26375 273.312 
L 407.26375 7.2 
" style="fill:none;stroke:#000000;stroke-linecap:square;stroke-linejoin:miter;stroke-width:0.8;"/>
   </g>
   <g id="patch_5">
    <path d="M 50.14375 273.312 
L 407.26375 273.312 
" style="fill:none;stroke:#000000;stroke-linecap:square;stroke-linejoin:miter;stroke-width:0.8;"/>
   </g>
   <g id="patch_6">
    <path d="M 50.14375 7.2 
L 407.26375 7.2 
" style="fill:none;stroke:#000000;stroke-linecap:square;stroke-linejoin:miter;stroke-width:0.8;"/>
   </g>
   <g id="legend_1">
    <g id="patch_7">
     <path d="M 321.790059 43.890912 
L 402.40575 43.890912 
Q 403.79375 43.890912 403.79375 42.502912 
L 403.79375 12.058 
Q 403.79375 10.67 402.40575 10.67 
L 321.790059 10.67 
Q 320.402059 10.67 320.402059 12.058 
L 320.402059 42.502912 
Q 320.402059 43.890912 321.790059 43.890912 
z
" style="fill:#ffffff;opacity:0.8;stroke:#cccccc;stroke-linejoin:miter;"/>
    </g>
    <g id="PathCollection_5">
     <defs>
      <path d="M 0 3 
C 0.795609 3 1.55874 2.683901 2.12132 2.12132 
C 2.683901 1.55874 3 0.795609 3 0 
C 3 -0.795609 2.683901 -1.55874 2.12132 -2.12132 
C 1.55874 -2.683901 0.795609 -3 0 -3 
C -0.795609 -3 -1.55874 -2.683901 -2.12132 -2.12132 
C -2.683901 -1.55874 -3 -0.795609 -3 0 
C -3 0.795609 -2.683901 1.55874 -2.12132 2.12132 
C -1.55874 2.683901 -0.795609 3 0 3 
z
" id="m5f3dfcc238" style="stroke:#f26b38;"/>
     </defs>
     <g>
      <use style="fill:#f26b38;stroke:#f26b38;" x="330.118059" xlink:href="#m5f3dfcc238" y="16.897566"/>
     </g>
    </g>
    <g id="text_17">
     <!-- mean_err -->
     <g transform="translate(342.610059 18.719316)scale(0.0694 -0.0694)">
      <defs>
       <path d="M 50.984375 -16.609375 
L 50.984375 -23.578125 
L -0.984375 -23.578125 
L -0.984375 -16.609375 
z
" id="DejaVuSans-95"/>
      </defs>
      <use xlink:href="#DejaVuSans-109"/>
      <use x="97.412109" xlink:href="#DejaVuSans-101"/>
      <use x="158.935547" xlink:href="#DejaVuSans-97"/>
      <use x="220.214844" xlink:href="#DejaVuSans-110"/>
      <use x="283.59375" xlink:href="#DejaVuSans-95"/>
      <use x="333.59375" xlink:href="#DejaVuSans-101"/>
      <use x="395.117188" xlink:href="#DejaVuSans-114"/>
      <use x="434.480469" xlink:href="#DejaVuSans-114"/>
     </g>
    </g>
    <g id="PathCollection_6">
     <defs>
      <path d="M -1.5 3 
L 0 1.5 
L 1.5 3 
L 3 1.5 
L 1.5 0 
L 3 -1.5 
L 1.5 -3 
L 0 -1.5 
L -1.5 -3 
L -3 -1.5 
L -1.5 0 
L -3 1.5 
z
" id="mb5a872ca89" style="stroke:#2f9599;"/>
     </defs>
     <g>
      <use style="fill:#2f9599;stroke:#2f9599;" x="330.118059" xlink:href="#mb5a872ca89" y="27.277203"/>
     </g>
    </g>
    <g id="text_18">
     <!-- mean_sq_err -->
     <g transform="translate(342.610059 29.098953)scale(0.0694 -0.0694)">
      <defs>
       <path d="M 44.28125 53.078125 
L 44.28125 44.578125 
Q 40.484375 46.53125 36.375 47.5 
Q 32.28125 48.484375 27.875 48.484375 
Q 21.1875 48.484375 17.84375 46.4375 
Q 14.5 44.390625 14.5 40.28125 
Q 14.5 37.15625 16.890625 35.375 
Q 19.28125 33.59375 26.515625 31.984375 
L 29.59375 31.296875 
Q 39.15625 29.25 43.1875 25.515625 
Q 47.21875 21.78125 47.21875 15.09375 
Q 47.21875 7.46875 41.1875 3.015625 
Q 35.15625 -1.421875 24.609375 -1.421875 
Q 20.21875 -1.421875 15.453125 -0.5625 
Q 10.6875 0.296875 5.421875 2 
L 5.421875 11.28125 
Q 10.40625 8.6875 15.234375 7.390625 
Q 20.0625 6.109375 24.8125 6.109375 
Q 31.15625 6.109375 34.5625 8.28125 
Q 37.984375 10.453125 37.984375 14.40625 
Q 37.984375 18.0625 35.515625 20.015625 
Q 33.0625 21.96875 24.703125 23.78125 
L 21.578125 24.515625 
Q 13.234375 26.265625 9.515625 29.90625 
Q 5.8125 33.546875 5.8125 39.890625 
Q 5.8125 47.609375 11.28125 51.796875 
Q 16.75 56 26.8125 56 
Q 31.78125 56 36.171875 55.265625 
Q 40.578125 54.546875 44.28125 53.078125 
z
" id="DejaVuSans-115"/>
       <path d="M 14.796875 27.296875 
Q 14.796875 17.390625 18.875 11.75 
Q 22.953125 6.109375 30.078125 6.109375 
Q 37.203125 6.109375 41.296875 11.75 
Q 45.40625 17.390625 45.40625 27.296875 
Q 45.40625 37.203125 41.296875 42.84375 
Q 37.203125 48.484375 30.078125 48.484375 
Q 22.953125 48.484375 18.875 42.84375 
Q 14.796875 37.203125 14.796875 27.296875 
z
M 45.40625 8.203125 
Q 42.578125 3.328125 38.25 0.953125 
Q 33.9375 -1.421875 27.875 -1.421875 
Q 17.96875 -1.421875 11.734375 6.484375 
Q 5.515625 14.40625 5.515625 27.296875 
Q 5.515625 40.1875 11.734375 48.09375 
Q 17.96875 56 27.875 56 
Q 33.9375 56 38.25 53.625 
Q 42.578125 51.265625 45.40625 46.390625 
L 45.40625 54.6875 
L 54.390625 54.6875 
L 54.390625 -20.796875 
L 45.40625 -20.796875 
z
" id="DejaVuSans-113"/>
      </defs>
      <use xlink:href="#DejaVuSans-109"/>
      <use x="97.412109" xlink:href="#DejaVuSans-101"/>
      <use x="158.935547" xlink:href="#DejaVuSans-97"/>
      <use x="220.214844" xlink:href="#DejaVuSans-110"/>
      <use x="283.59375" xlink:href="#DejaVuSans-95"/>
      <use x="333.59375" xlink:href="#DejaVuSans-115"/>
      <use x="385.693359" xlink:href="#DejaVuSans-113"/>
      <use x="449.169922" xlink:href="#DejaVuSans-95"/>
      <use x="499.169922" xlink:href="#DejaVuSans-101"/>
      <use x="560.693359" xlink:href="#DejaVuSans-114"/>
      <use x="600.056641" xlink:href="#DejaVuSans-114"/>
     </g>
    </g>
    <g id="PathCollection_7">
     <defs>
      <path d="M -2.12132 -2.12132 
L -2.12132 2.12132 
L 2.12132 2.12132 
L 2.12132 -2.12132 
z
" id="m4a3fdcac7b" style="stroke:#a7226e;"/>
     </defs>
     <g>
      <use style="fill:#a7226e;stroke:#a7226e;" x="330.118059" xlink:href="#m4a3fdcac7b" y="37.656841"/>
     </g>
    </g>
    <g id="text_19">
     <!-- mean_sqroot_err -->
     <g transform="translate(342.610059 39.478591)scale(0.0694 -0.0694)">
      <use xlink:href="#DejaVuSans-109"/>
      <use x="97.412109" xlink:href="#DejaVuSans-101"/>
      <use x="158.935547" xlink:href="#DejaVuSans-97"/>
      <use x="220.214844" xlink:href="#DejaVuSans-110"/>
      <use x="283.59375" xlink:href="#DejaVuSans-95"/>
      <use x="333.59375" xlink:href="#DejaVuSans-115"/>
      <use x="385.693359" xlink:href="#DejaVuSans-113"/>
      <use x="449.169922" xlink:href="#DejaVuSans-114"/>
      <use x="488.033203" xlink:href="#DejaVuSans-111"/>
      <use x="549.214844" xlink:href="#DejaVuSans-111"/>
      <use x="610.396484" xlink:href="#DejaVuSans-116"/>
      <use x="649.605469" xlink:href="#DejaVuSans-95"/>
      <use x="699.605469" xlink:href="#DejaVuSans-101"/>
      <use x="761.128906" xlink:href="#DejaVuSans-114"/>
      <use x="800.492188" xlink:href="#DejaVuSans-114"/>
     </g>
    </g>
   </g>
  </g>
 </g>
 <defs>
  <clipPath id="pcc6264fe89">
   <rect height="266.112" width="357.12" x="50.14375" y="7.2"/>
  </clipPath>
 </defs>
</svg>
