<?xml version="1.0" encoding="utf-8" standalone="no"?>
<!DOCTYPE svg PUBLIC "-//W3C//DTD SVG 1.1//EN"
  "http://www.w3.org/Graphics/SVG/1.1/DTD/svg11.dtd">
<!-- Created with matplotlib (https://matplotlib.org/) -->
<svg height="313.002882pt" version="1.1" viewBox="0 0 414.46375 313.002882" width="414.46375pt" xmlns="http://www.w3.org/2000/svg" xmlns:xlink="http://www.w3.org/1999/xlink">
 <metadata>
  <rdf:RDF xmlns:cc="http://creativecommons.org/ns#" xmlns:dc="http://purl.org/dc/elements/1.1/" xmlns:rdf="http://www.w3.org/1999/02/22-rdf-syntax-ns#">
   <cc:Work>
    <dc:type rdf:resource="http://purl.org/dc/dcmitype/StillImage"/>
    <dc:date>2022-05-27T21:58:05.622055</dc:date>
    <dc:format>image/svg+xml</dc:format>
    <dc:creator>
     <cc:Agent>
      <dc:title>Matplotlib v3.3.4, https://matplotlib.org/</dc:title>
     </cc:Agent>
    </dc:creator>
   </cc:Work>
  </rdf:RDF>
 </metadata>
 <defs>
  <style type="text/css">*{stroke-linecap:butt;stroke-linejoin:round;}</style>
 </defs>
 <g id="figure_1">
  <g id="patch_1">
   <path d="M 0 313.002882 
L 414.46375 313.002882 
L 414.46375 0 
L 0 0 
z
" style="fill:#ffffff;"/>
  </g>
  <g id="axes_1">
   <g id="patch_2">
    <path d="M 50.14375 275.446632 
L 407.26375 275.446632 
L 407.26375 9.334632 
L 50.14375 9.334632 
z
" style="fill:#ffffff;"/>
   </g>
   <g id="PathCollection_1">
    <path clip-path="url(#pc30384eb55)" d="M 66.376477 24.430632 
C 67.172087 24.430632 67.935217 24.114533 68.497798 23.551952 
C 69.060378 22.989371 69.376477 22.226241 69.376477 21.430632 
C 69.376477 20.635022 69.060378 19.871892 68.497798 19.309311 
C 67.935217 18.746731 67.172087 18.430632 66.376477 18.430632 
C 65.580868 18.430632 64.817738 18.746731 64.255157 19.309311 
C 63.692576 19.871892 63.376477 20.635022 63.376477 21.430632 
C 63.376477 22.226241 63.692576 22.989371 64.255157 23.551952 
C 64.817738 24.114533 65.580868 24.430632 66.376477 24.430632 
z
" style="fill:#f26b38;stroke:#ffffff;stroke-width:0.48;"/>
    <path clip-path="url(#pc30384eb55)" d="M 73.140114 37.469898 
C 73.935723 37.469898 74.698853 37.153799 75.261434 36.591218 
C 75.824015 36.028637 76.140114 35.265507 76.140114 34.469898 
C 76.140114 33.674288 75.824015 32.911158 75.261434 32.348577 
C 74.698853 31.785997 73.935723 31.469898 73.140114 31.469898 
C 72.344504 31.469898 71.581374 31.785997 71.018793 32.348577 
C 70.456213 32.911158 70.140114 33.674288 70.140114 34.469898 
C 70.140114 35.265507 70.456213 36.028637 71.018793 36.591218 
C 71.581374 37.153799 72.344504 37.469898 73.140114 37.469898 
z
" style="fill:#f26b38;stroke:#ffffff;stroke-width:0.48;"/>
    <path clip-path="url(#pc30384eb55)" d="M 79.90375 37.469898 
C 80.699359 37.469898 81.46249 37.153799 82.02507 36.591218 
C 82.587651 36.028637 82.90375 35.265507 82.90375 34.469898 
C 82.90375 33.674288 82.587651 32.911158 82.02507 32.348577 
C 81.46249 31.785997 80.699359 31.469898 79.90375 31.469898 
C 79.108141 31.469898 78.34501 31.785997 77.78243 32.348577 
C 77.219849 32.911158 76.90375 33.674288 76.90375 34.469898 
C 76.90375 35.265507 77.219849 36.028637 77.78243 36.591218 
C 78.34501 37.153799 79.108141 37.469898 79.90375 37.469898 
z
" style="fill:#f26b38;stroke:#ffffff;stroke-width:0.48;"/>
    <path clip-path="url(#pc30384eb55)" d="M 86.667386 37.469898 
C 87.462996 37.469898 88.226126 37.153799 88.788707 36.591218 
C 89.351287 36.028637 89.667386 35.265507 89.667386 34.469898 
C 89.667386 33.674288 89.351287 32.911158 88.788707 32.348577 
C 88.226126 31.785997 87.462996 31.469898 86.667386 31.469898 
C 85.871777 31.469898 85.108647 31.785997 84.546066 32.348577 
C 83.983485 32.911158 83.667386 33.674288 83.667386 34.469898 
C 83.667386 35.265507 83.983485 36.028637 84.546066 36.591218 
C 85.108647 37.153799 85.871777 37.469898 86.667386 37.469898 
z
" style="fill:#f26b38;stroke:#ffffff;stroke-width:0.48;"/>
    <path clip-path="url(#pc30384eb55)" d="M 93.431023 24.430632 
C 94.226632 24.430632 94.989762 24.114533 95.552343 23.551952 
C 96.114924 22.989371 96.431023 22.226241 96.431023 21.430632 
C 96.431023 20.635022 96.114924 19.871892 95.552343 19.309311 
C 94.989762 18.746731 94.226632 18.430632 93.431023 18.430632 
C 92.635413 18.430632 91.872283 18.746731 91.309702 19.309311 
C 90.747122 19.871892 90.431023 20.635022 90.431023 21.430632 
C 90.431023 22.226241 90.747122 22.989371 91.309702 23.551952 
C 91.872283 24.114533 92.635413 24.430632 93.431023 24.430632 
z
" style="fill:#f26b38;stroke:#ffffff;stroke-width:0.48;"/>
    <path clip-path="url(#pc30384eb55)" d="M 100.194659 37.469898 
C 100.990268 37.469898 101.753399 37.153799 102.315979 36.591218 
C 102.87856 36.028637 103.194659 35.265507 103.194659 34.469898 
C 103.194659 33.674288 102.87856 32.911158 102.315979 32.348577 
C 101.753399 31.785997 100.990268 31.469898 100.194659 31.469898 
C 99.39905 31.469898 98.635919 31.785997 98.073339 32.348577 
C 97.510758 32.911158 97.194659 33.674288 97.194659 34.469898 
C 97.194659 35.265507 97.510758 36.028637 98.073339 36.591218 
C 98.635919 37.153799 99.39905 37.469898 100.194659 37.469898 
z
" style="fill:#f26b38;stroke:#ffffff;stroke-width:0.48;"/>
    <path clip-path="url(#pc30384eb55)" d="M 106.958295 50.509164 
C 107.753905 50.509164 108.517035 50.193065 109.079616 49.630484 
C 109.642197 49.067903 109.958295 48.304773 109.958295 47.509164 
C 109.958295 46.713554 109.642197 45.950424 109.079616 45.387843 
C 108.517035 44.825263 107.753905 44.509164 106.958295 44.509164 
C 106.162686 44.509164 105.399556 44.825263 104.836975 45.387843 
C 104.274394 45.950424 103.958295 46.713554 103.958295 47.509164 
C 103.958295 48.304773 104.274394 49.067903 104.836975 49.630484 
C 105.399556 50.193065 106.162686 50.509164 106.958295 50.509164 
z
" style="fill:#f26b38;stroke:#ffffff;stroke-width:0.48;"/>
    <path clip-path="url(#pc30384eb55)" d="M 113.721932 50.509164 
C 114.517541 50.509164 115.280671 50.193065 115.843252 49.630484 
C 116.405833 49.067903 116.721932 48.304773 116.721932 47.509164 
C 116.721932 46.713554 116.405833 45.950424 115.843252 45.387843 
C 115.280671 44.825263 114.517541 44.509164 113.721932 44.509164 
C 112.926323 44.509164 112.163192 44.825263 111.600611 45.387843 
C 111.038031 45.950424 110.721932 46.713554 110.721932 47.509164 
C 110.721932 48.304773 111.038031 49.067903 111.600611 49.630484 
C 112.163192 50.193065 112.926323 50.509164 113.721932 50.509164 
z
" style="fill:#f26b38;stroke:#ffffff;stroke-width:0.48;"/>
    <path clip-path="url(#pc30384eb55)" d="M 120.485568 50.509164 
C 121.281177 50.509164 122.044308 50.193065 122.606889 49.630484 
C 123.169469 49.067903 123.485568 48.304773 123.485568 47.509164 
C 123.485568 46.713554 123.169469 45.950424 122.606889 45.387843 
C 122.044308 44.825263 121.281177 44.509164 120.485568 44.509164 
C 119.689959 44.509164 118.926829 44.825263 118.364248 45.387843 
C 117.801667 45.950424 117.485568 46.713554 117.485568 47.509164 
C 117.485568 48.304773 117.801667 49.067903 118.364248 49.630484 
C 118.926829 50.193065 119.689959 50.509164 120.485568 50.509164 
z
" style="fill:#f26b38;stroke:#ffffff;stroke-width:0.48;"/>
    <path clip-path="url(#pc30384eb55)" d="M 127.249205 50.509164 
C 128.044814 50.509164 128.807944 50.193065 129.370525 49.630484 
C 129.933106 49.067903 130.249205 48.304773 130.249205 47.509164 
C 130.249205 46.713554 129.933106 45.950424 129.370525 45.387843 
C 128.807944 44.825263 128.044814 44.509164 127.249205 44.509164 
C 126.453595 44.509164 125.690465 44.825263 125.127884 45.387843 
C 124.565303 45.950424 124.249205 46.713554 124.249205 47.509164 
C 124.249205 48.304773 124.565303 49.067903 125.127884 49.630484 
C 125.690465 50.193065 126.453595 50.509164 127.249205 50.509164 
z
" style="fill:#f26b38;stroke:#ffffff;stroke-width:0.48;"/>
    <path clip-path="url(#pc30384eb55)" d="M 134.012841 128.74476 
C 134.80845 128.74476 135.571581 128.428661 136.134161 127.86608 
C 136.696742 127.3035 137.012841 126.540369 137.012841 125.74476 
C 137.012841 124.949151 136.696742 124.18602 136.134161 123.62344 
C 135.571581 123.060859 134.80845 122.74476 134.012841 122.74476 
C 133.217232 122.74476 132.454101 123.060859 131.891521 123.62344 
C 131.32894 124.18602 131.012841 124.949151 131.012841 125.74476 
C 131.012841 126.540369 131.32894 127.3035 131.891521 127.86608 
C 132.454101 128.428661 133.217232 128.74476 134.012841 128.74476 
z
" style="fill:#f26b38;stroke:#ffffff;stroke-width:0.48;"/>
    <path clip-path="url(#pc30384eb55)" d="M 140.776477 141.784026 
C 141.572087 141.784026 142.335217 141.467927 142.897798 140.905346 
C 143.460378 140.342766 143.776477 139.579635 143.776477 138.784026 
C 143.776477 137.988417 143.460378 137.225286 142.897798 136.662706 
C 142.335217 136.100125 141.572087 135.784026 140.776477 135.784026 
C 139.980868 135.784026 139.217738 136.100125 138.655157 136.662706 
C 138.092576 137.225286 137.776477 137.988417 137.776477 138.784026 
C 137.776477 139.579635 138.092576 140.342766 138.655157 140.905346 
C 139.217738 141.467927 139.980868 141.784026 140.776477 141.784026 
z
" style="fill:#f26b38;stroke:#ffffff;stroke-width:0.48;"/>
    <path clip-path="url(#pc30384eb55)" d="M 147.540114 167.862558 
C 148.335723 167.862558 149.098853 167.546459 149.661434 166.983879 
C 150.224015 166.421298 150.540114 165.658167 150.540114 164.862558 
C 150.540114 164.066949 150.224015 163.303819 149.661434 162.741238 
C 149.098853 162.178657 148.335723 161.862558 147.540114 161.862558 
C 146.744504 161.862558 145.981374 162.178657 145.418793 162.741238 
C 144.856213 163.303819 144.540114 164.066949 144.540114 164.862558 
C 144.540114 165.658167 144.856213 166.421298 145.418793 166.983879 
C 145.981374 167.546459 146.744504 167.862558 147.540114 167.862558 
z
" style="fill:#f26b38;stroke:#ffffff;stroke-width:0.48;"/>
    <path clip-path="url(#pc30384eb55)" d="M 154.30375 141.784026 
C 155.099359 141.784026 155.86249 141.467927 156.42507 140.905346 
C 156.987651 140.342766 157.30375 139.579635 157.30375 138.784026 
C 157.30375 137.988417 156.987651 137.225286 156.42507 136.662706 
C 155.86249 136.100125 155.099359 135.784026 154.30375 135.784026 
C 153.508141 135.784026 152.74501 136.100125 152.18243 136.662706 
C 151.619849 137.225286 151.30375 137.988417 151.30375 138.784026 
C 151.30375 139.579635 151.619849 140.342766 152.18243 140.905346 
C 152.74501 141.467927 153.508141 141.784026 154.30375 141.784026 
z
" style="fill:#f26b38;stroke:#ffffff;stroke-width:0.48;"/>
    <path clip-path="url(#pc30384eb55)" d="M 161.067386 180.901824 
C 161.862996 180.901824 162.626126 180.585725 163.188707 180.023145 
C 163.751287 179.460564 164.067386 178.697434 164.067386 177.901824 
C 164.067386 177.106215 163.751287 176.343085 163.188707 175.780504 
C 162.626126 175.217923 161.862996 174.901824 161.067386 174.901824 
C 160.271777 174.901824 159.508647 175.217923 158.946066 175.780504 
C 158.383485 176.343085 158.067386 177.106215 158.067386 177.901824 
C 158.067386 178.697434 158.383485 179.460564 158.946066 180.023145 
C 159.508647 180.585725 160.271777 180.901824 161.067386 180.901824 
z
" style="fill:#f26b38;stroke:#ffffff;stroke-width:0.48;"/>
    <path clip-path="url(#pc30384eb55)" d="M 167.831023 180.901824 
C 168.626632 180.901824 169.389762 180.585725 169.952343 180.023145 
C 170.514924 179.460564 170.831023 178.697434 170.831023 177.901824 
C 170.831023 177.106215 170.514924 176.343085 169.952343 175.780504 
C 169.389762 175.217923 168.626632 174.901824 167.831023 174.901824 
C 167.035413 174.901824 166.272283 175.217923 165.709702 175.780504 
C 165.147122 176.343085 164.831023 177.106215 164.831023 177.901824 
C 164.831023 178.697434 165.147122 179.460564 165.709702 180.023145 
C 166.272283 180.585725 167.035413 180.901824 167.831023 180.901824 
z
" style="fill:#f26b38;stroke:#ffffff;stroke-width:0.48;"/>
    <path clip-path="url(#pc30384eb55)" d="M 174.594659 180.901824 
C 175.390268 180.901824 176.153399 180.585725 176.715979 180.023145 
C 177.27856 179.460564 177.594659 178.697434 177.594659 177.901824 
C 177.594659 177.106215 177.27856 176.343085 176.715979 175.780504 
C 176.153399 175.217923 175.390268 174.901824 174.594659 174.901824 
C 173.79905 174.901824 173.035919 175.217923 172.473339 175.780504 
C 171.910758 176.343085 171.594659 177.106215 171.594659 177.901824 
C 171.594659 178.697434 171.910758 179.460564 172.473339 180.023145 
C 173.035919 180.585725 173.79905 180.901824 174.594659 180.901824 
z
" style="fill:#f26b38;stroke:#ffffff;stroke-width:0.48;"/>
    <path clip-path="url(#pc30384eb55)" d="M 181.358295 180.901824 
C 182.153905 180.901824 182.917035 180.585725 183.479616 180.023145 
C 184.042197 179.460564 184.358295 178.697434 184.358295 177.901824 
C 184.358295 177.106215 184.042197 176.343085 183.479616 175.780504 
C 182.917035 175.217923 182.153905 174.901824 181.358295 174.901824 
C 180.562686 174.901824 179.799556 175.217923 179.236975 175.780504 
C 178.674394 176.343085 178.358295 177.106215 178.358295 177.901824 
C 178.358295 178.697434 178.674394 179.460564 179.236975 180.023145 
C 179.799556 180.585725 180.562686 180.901824 181.358295 180.901824 
z
" style="fill:#f26b38;stroke:#ffffff;stroke-width:0.48;"/>
    <path clip-path="url(#pc30384eb55)" d="M 188.121932 167.862558 
C 188.917541 167.862558 189.680671 167.546459 190.243252 166.983879 
C 190.805833 166.421298 191.121932 165.658167 191.121932 164.862558 
C 191.121932 164.066949 190.805833 163.303819 190.243252 162.741238 
C 189.680671 162.178657 188.917541 161.862558 188.121932 161.862558 
C 187.326323 161.862558 186.563192 162.178657 186.000611 162.741238 
C 185.438031 163.303819 185.121932 164.066949 185.121932 164.862558 
C 185.121932 165.658167 185.438031 166.421298 186.000611 166.983879 
C 186.563192 167.546459 187.326323 167.862558 188.121932 167.862558 
z
" style="fill:#f26b38;stroke:#ffffff;stroke-width:0.48;"/>
    <path clip-path="url(#pc30384eb55)" d="M 194.885568 180.901824 
C 195.681177 180.901824 196.444308 180.585725 197.006889 180.023145 
C 197.569469 179.460564 197.885568 178.697434 197.885568 177.901824 
C 197.885568 177.106215 197.569469 176.343085 197.006889 175.780504 
C 196.444308 175.217923 195.681177 174.901824 194.885568 174.901824 
C 194.089959 174.901824 193.326829 175.217923 192.764248 175.780504 
C 192.201667 176.343085 191.885568 177.106215 191.885568 177.901824 
C 191.885568 178.697434 192.201667 179.460564 192.764248 180.023145 
C 193.326829 180.585725 194.089959 180.901824 194.885568 180.901824 
z
" style="fill:#f26b38;stroke:#ffffff;stroke-width:0.48;"/>
    <path clip-path="url(#pc30384eb55)" d="M 201.649205 220.019622 
C 202.444814 220.019622 203.207944 219.703523 203.770525 219.140943 
C 204.333106 218.578362 204.649205 217.815232 204.649205 217.019622 
C 204.649205 216.224013 204.333106 215.460883 203.770525 214.898302 
C 203.207944 214.335721 202.444814 214.019622 201.649205 214.019622 
C 200.853595 214.019622 200.090465 214.335721 199.527884 214.898302 
C 198.965303 215.460883 198.649205 216.224013 198.649205 217.019622 
C 198.649205 217.815232 198.965303 218.578362 199.527884 219.140943 
C 200.090465 219.703523 200.853595 220.019622 201.649205 220.019622 
z
" style="fill:#f26b38;stroke:#ffffff;stroke-width:0.48;"/>
    <path clip-path="url(#pc30384eb55)" d="M 208.412841 220.019622 
C 209.20845 220.019622 209.971581 219.703523 210.534161 219.140943 
C 211.096742 218.578362 211.412841 217.815232 211.412841 217.019622 
C 211.412841 216.224013 211.096742 215.460883 210.534161 214.898302 
C 209.971581 214.335721 209.20845 214.019622 208.412841 214.019622 
C 207.617232 214.019622 206.854101 214.335721 206.291521 214.898302 
C 205.72894 215.460883 205.412841 216.224013 205.412841 217.019622 
C 205.412841 217.815232 205.72894 218.578362 206.291521 219.140943 
C 206.854101 219.703523 207.617232 220.019622 208.412841 220.019622 
z
" style="fill:#f26b38;stroke:#ffffff;stroke-width:0.48;"/>
    <path clip-path="url(#pc30384eb55)" d="M 215.176477 220.019622 
C 215.972087 220.019622 216.735217 219.703523 217.297798 219.140943 
C 217.860378 218.578362 218.176477 217.815232 218.176477 217.019622 
C 218.176477 216.224013 217.860378 215.460883 217.297798 214.898302 
C 216.735217 214.335721 215.972087 214.019622 215.176477 214.019622 
C 214.380868 214.019622 213.617738 214.335721 213.055157 214.898302 
C 212.492576 215.460883 212.176477 216.224013 212.176477 217.019622 
C 212.176477 217.815232 212.492576 218.578362 213.055157 219.140943 
C 213.617738 219.703523 214.380868 220.019622 215.176477 220.019622 
z
" style="fill:#f26b38;stroke:#ffffff;stroke-width:0.48;"/>
    <path clip-path="url(#pc30384eb55)" d="M 221.940114 220.019622 
C 222.735723 220.019622 223.498853 219.703523 224.061434 219.140943 
C 224.624015 218.578362 224.940114 217.815232 224.940114 217.019622 
C 224.940114 216.224013 224.624015 215.460883 224.061434 214.898302 
C 223.498853 214.335721 222.735723 214.019622 221.940114 214.019622 
C 221.144504 214.019622 220.381374 214.335721 219.818793 214.898302 
C 219.256213 215.460883 218.940114 216.224013 218.940114 217.019622 
C 218.940114 217.815232 219.256213 218.578362 219.818793 219.140943 
C 220.381374 219.703523 221.144504 220.019622 221.940114 220.019622 
z
" style="fill:#f26b38;stroke:#ffffff;stroke-width:0.48;"/>
    <path clip-path="url(#pc30384eb55)" d="M 228.70375 206.980356 
C 229.499359 206.980356 230.26249 206.664257 230.82507 206.101677 
C 231.387651 205.539096 231.70375 204.775966 231.70375 203.980356 
C 231.70375 203.184747 231.387651 202.421617 230.82507 201.859036 
C 230.26249 201.296455 229.499359 200.980356 228.70375 200.980356 
C 227.908141 200.980356 227.14501 201.296455 226.58243 201.859036 
C 226.019849 202.421617 225.70375 203.184747 225.70375 203.980356 
C 225.70375 204.775966 226.019849 205.539096 226.58243 206.101677 
C 227.14501 206.664257 227.908141 206.980356 228.70375 206.980356 
z
" style="fill:#f26b38;stroke:#ffffff;stroke-width:0.48;"/>
    <path clip-path="url(#pc30384eb55)" d="M 235.467386 180.901824 
C 236.262996 180.901824 237.026126 180.585725 237.588707 180.023145 
C 238.151287 179.460564 238.467386 178.697434 238.467386 177.901824 
C 238.467386 177.106215 238.151287 176.343085 237.588707 175.780504 
C 237.026126 175.217923 236.262996 174.901824 235.467386 174.901824 
C 234.671777 174.901824 233.908647 175.217923 233.346066 175.780504 
C 232.783485 176.343085 232.467386 177.106215 232.467386 177.901824 
C 232.467386 178.697434 232.783485 179.460564 233.346066 180.023145 
C 233.908647 180.585725 234.671777 180.901824 235.467386 180.901824 
z
" style="fill:#f26b38;stroke:#ffffff;stroke-width:0.48;"/>
    <path clip-path="url(#pc30384eb55)" d="M 242.231023 180.901824 
C 243.026632 180.901824 243.789762 180.585725 244.352343 180.023145 
C 244.914924 179.460564 245.231023 178.697434 245.231023 177.901824 
C 245.231023 177.106215 244.914924 176.343085 244.352343 175.780504 
C 243.789762 175.217923 243.026632 174.901824 242.231023 174.901824 
C 241.435413 174.901824 240.672283 175.217923 240.109702 175.780504 
C 239.547122 176.343085 239.231023 177.106215 239.231023 177.901824 
C 239.231023 178.697434 239.547122 179.460564 240.109702 180.023145 
C 240.672283 180.585725 241.435413 180.901824 242.231023 180.901824 
z
" style="fill:#f26b38;stroke:#ffffff;stroke-width:0.48;"/>
    <path clip-path="url(#pc30384eb55)" d="M 248.994659 180.901824 
C 249.790268 180.901824 250.553399 180.585725 251.115979 180.023145 
C 251.67856 179.460564 251.994659 178.697434 251.994659 177.901824 
C 251.994659 177.106215 251.67856 176.343085 251.115979 175.780504 
C 250.553399 175.217923 249.790268 174.901824 248.994659 174.901824 
C 248.19905 174.901824 247.435919 175.217923 246.873339 175.780504 
C 246.310758 176.343085 245.994659 177.106215 245.994659 177.901824 
C 245.994659 178.697434 246.310758 179.460564 246.873339 180.023145 
C 247.435919 180.585725 248.19905 180.901824 248.994659 180.901824 
z
" style="fill:#f26b38;stroke:#ffffff;stroke-width:0.48;"/>
    <path clip-path="url(#pc30384eb55)" d="M 255.758295 180.901824 
C 256.553905 180.901824 257.317035 180.585725 257.879616 180.023145 
C 258.442197 179.460564 258.758295 178.697434 258.758295 177.901824 
C 258.758295 177.106215 258.442197 176.343085 257.879616 175.780504 
C 257.317035 175.217923 256.553905 174.901824 255.758295 174.901824 
C 254.962686 174.901824 254.199556 175.217923 253.636975 175.780504 
C 253.074394 176.343085 252.758295 177.106215 252.758295 177.901824 
C 252.758295 178.697434 253.074394 179.460564 253.636975 180.023145 
C 254.199556 180.585725 254.962686 180.901824 255.758295 180.901824 
z
" style="fill:#f26b38;stroke:#ffffff;stroke-width:0.48;"/>
    <path clip-path="url(#pc30384eb55)" d="M 262.521932 180.901824 
C 263.317541 180.901824 264.080671 180.585725 264.643252 180.023145 
C 265.205833 179.460564 265.521932 178.697434 265.521932 177.901824 
C 265.521932 177.106215 265.205833 176.343085 264.643252 175.780504 
C 264.080671 175.217923 263.317541 174.901824 262.521932 174.901824 
C 261.726323 174.901824 260.963192 175.217923 260.400611 175.780504 
C 259.838031 176.343085 259.521932 177.106215 259.521932 177.901824 
C 259.521932 178.697434 259.838031 179.460564 260.400611 180.023145 
C 260.963192 180.585725 261.726323 180.901824 262.521932 180.901824 
z
" style="fill:#f26b38;stroke:#ffffff;stroke-width:0.48;"/>
    <path clip-path="url(#pc30384eb55)" d="M 269.285568 180.901824 
C 270.081177 180.901824 270.844308 180.585725 271.406889 180.023145 
C 271.969469 179.460564 272.285568 178.697434 272.285568 177.901824 
C 272.285568 177.106215 271.969469 176.343085 271.406889 175.780504 
C 270.844308 175.217923 270.081177 174.901824 269.285568 174.901824 
C 268.489959 174.901824 267.726829 175.217923 267.164248 175.780504 
C 266.601667 176.343085 266.285568 177.106215 266.285568 177.901824 
C 266.285568 178.697434 266.601667 179.460564 267.164248 180.023145 
C 267.726829 180.585725 268.489959 180.901824 269.285568 180.901824 
z
" style="fill:#f26b38;stroke:#ffffff;stroke-width:0.48;"/>
    <path clip-path="url(#pc30384eb55)" d="M 276.049205 180.901824 
C 276.844814 180.901824 277.607944 180.585725 278.170525 180.023145 
C 278.733106 179.460564 279.049205 178.697434 279.049205 177.901824 
C 279.049205 177.106215 278.733106 176.343085 278.170525 175.780504 
C 277.607944 175.217923 276.844814 174.901824 276.049205 174.901824 
C 275.253595 174.901824 274.490465 175.217923 273.927884 175.780504 
C 273.365303 176.343085 273.049205 177.106215 273.049205 177.901824 
C 273.049205 178.697434 273.365303 179.460564 273.927884 180.023145 
C 274.490465 180.585725 275.253595 180.901824 276.049205 180.901824 
z
" style="fill:#f26b38;stroke:#ffffff;stroke-width:0.48;"/>
    <path clip-path="url(#pc30384eb55)" d="M 282.812841 180.901824 
C 283.60845 180.901824 284.371581 180.585725 284.934161 180.023145 
C 285.496742 179.460564 285.812841 178.697434 285.812841 177.901824 
C 285.812841 177.106215 285.496742 176.343085 284.934161 175.780504 
C 284.371581 175.217923 283.60845 174.901824 282.812841 174.901824 
C 282.017232 174.901824 281.254101 175.217923 280.691521 175.780504 
C 280.12894 176.343085 279.812841 177.106215 279.812841 177.901824 
C 279.812841 178.697434 280.12894 179.460564 280.691521 180.023145 
C 281.254101 180.585725 282.017232 180.901824 282.812841 180.901824 
z
" style="fill:#f26b38;stroke:#ffffff;stroke-width:0.48;"/>
    <path clip-path="url(#pc30384eb55)" d="M 289.576477 180.901824 
C 290.372087 180.901824 291.135217 180.585725 291.697798 180.023145 
C 292.260378 179.460564 292.576477 178.697434 292.576477 177.901824 
C 292.576477 177.106215 292.260378 176.343085 291.697798 175.780504 
C 291.135217 175.217923 290.372087 174.901824 289.576477 174.901824 
C 288.780868 174.901824 288.017738 175.217923 287.455157 175.780504 
C 286.892576 176.343085 286.576477 177.106215 286.576477 177.901824 
C 286.576477 178.697434 286.892576 179.460564 287.455157 180.023145 
C 288.017738 180.585725 288.780868 180.901824 289.576477 180.901824 
z
" style="fill:#f26b38;stroke:#ffffff;stroke-width:0.48;"/>
    <path clip-path="url(#pc30384eb55)" d="M 296.340114 180.901824 
C 297.135723 180.901824 297.898853 180.585725 298.461434 180.023145 
C 299.024015 179.460564 299.340114 178.697434 299.340114 177.901824 
C 299.340114 177.106215 299.024015 176.343085 298.461434 175.780504 
C 297.898853 175.217923 297.135723 174.901824 296.340114 174.901824 
C 295.544504 174.901824 294.781374 175.217923 294.218793 175.780504 
C 293.656213 176.343085 293.340114 177.106215 293.340114 177.901824 
C 293.340114 178.697434 293.656213 179.460564 294.218793 180.023145 
C 294.781374 180.585725 295.544504 180.901824 296.340114 180.901824 
z
" style="fill:#f26b38;stroke:#ffffff;stroke-width:0.48;"/>
    <path clip-path="url(#pc30384eb55)" d="M 303.10375 180.901824 
C 303.899359 180.901824 304.66249 180.585725 305.22507 180.023145 
C 305.787651 179.460564 306.10375 178.697434 306.10375 177.901824 
C 306.10375 177.106215 305.787651 176.343085 305.22507 175.780504 
C 304.66249 175.217923 303.899359 174.901824 303.10375 174.901824 
C 302.308141 174.901824 301.54501 175.217923 300.98243 175.780504 
C 300.419849 176.343085 300.10375 177.106215 300.10375 177.901824 
C 300.10375 178.697434 300.419849 179.460564 300.98243 180.023145 
C 301.54501 180.585725 302.308141 180.901824 303.10375 180.901824 
z
" style="fill:#f26b38;stroke:#ffffff;stroke-width:0.48;"/>
    <path clip-path="url(#pc30384eb55)" d="M 309.867386 180.901824 
C 310.662996 180.901824 311.426126 180.585725 311.988707 180.023145 
C 312.551287 179.460564 312.867386 178.697434 312.867386 177.901824 
C 312.867386 177.106215 312.551287 176.343085 311.988707 175.780504 
C 311.426126 175.217923 310.662996 174.901824 309.867386 174.901824 
C 309.071777 174.901824 308.308647 175.217923 307.746066 175.780504 
C 307.183485 176.343085 306.867386 177.106215 306.867386 177.901824 
C 306.867386 178.697434 307.183485 179.460564 307.746066 180.023145 
C 308.308647 180.585725 309.071777 180.901824 309.867386 180.901824 
z
" style="fill:#f26b38;stroke:#ffffff;stroke-width:0.48;"/>
    <path clip-path="url(#pc30384eb55)" d="M 316.631023 180.901824 
C 317.426632 180.901824 318.189762 180.585725 318.752343 180.023145 
C 319.314924 179.460564 319.631023 178.697434 319.631023 177.901824 
C 319.631023 177.106215 319.314924 176.343085 318.752343 175.780504 
C 318.189762 175.217923 317.426632 174.901824 316.631023 174.901824 
C 315.835413 174.901824 315.072283 175.217923 314.509702 175.780504 
C 313.947122 176.343085 313.631023 177.106215 313.631023 177.901824 
C 313.631023 178.697434 313.947122 179.460564 314.509702 180.023145 
C 315.072283 180.585725 315.835413 180.901824 316.631023 180.901824 
z
" style="fill:#f26b38;stroke:#ffffff;stroke-width:0.48;"/>
    <path clip-path="url(#pc30384eb55)" d="M 323.394659 180.901824 
C 324.190268 180.901824 324.953399 180.585725 325.515979 180.023145 
C 326.07856 179.460564 326.394659 178.697434 326.394659 177.901824 
C 326.394659 177.106215 326.07856 176.343085 325.515979 175.780504 
C 324.953399 175.217923 324.190268 174.901824 323.394659 174.901824 
C 322.59905 174.901824 321.835919 175.217923 321.273339 175.780504 
C 320.710758 176.343085 320.394659 177.106215 320.394659 177.901824 
C 320.394659 178.697434 320.710758 179.460564 321.273339 180.023145 
C 321.835919 180.585725 322.59905 180.901824 323.394659 180.901824 
z
" style="fill:#f26b38;stroke:#ffffff;stroke-width:0.48;"/>
    <path clip-path="url(#pc30384eb55)" d="M 330.158295 180.901824 
C 330.953905 180.901824 331.717035 180.585725 332.279616 180.023145 
C 332.842197 179.460564 333.158295 178.697434 333.158295 177.901824 
C 333.158295 177.106215 332.842197 176.343085 332.279616 175.780504 
C 331.717035 175.217923 330.953905 174.901824 330.158295 174.901824 
C 329.362686 174.901824 328.599556 175.217923 328.036975 175.780504 
C 327.474394 176.343085 327.158295 177.106215 327.158295 177.901824 
C 327.158295 178.697434 327.474394 179.460564 328.036975 180.023145 
C 328.599556 180.585725 329.362686 180.901824 330.158295 180.901824 
z
" style="fill:#f26b38;stroke:#ffffff;stroke-width:0.48;"/>
    <path clip-path="url(#pc30384eb55)" d="M 336.921932 180.901824 
C 337.717541 180.901824 338.480671 180.585725 339.043252 180.023145 
C 339.605833 179.460564 339.921932 178.697434 339.921932 177.901824 
C 339.921932 177.106215 339.605833 176.343085 339.043252 175.780504 
C 338.480671 175.217923 337.717541 174.901824 336.921932 174.901824 
C 336.126323 174.901824 335.363192 175.217923 334.800611 175.780504 
C 334.238031 176.343085 333.921932 177.106215 333.921932 177.901824 
C 333.921932 178.697434 334.238031 179.460564 334.800611 180.023145 
C 335.363192 180.585725 336.126323 180.901824 336.921932 180.901824 
z
" style="fill:#f26b38;stroke:#ffffff;stroke-width:0.48;"/>
    <path clip-path="url(#pc30384eb55)" d="M 343.685568 180.901824 
C 344.481177 180.901824 345.244308 180.585725 345.806889 180.023145 
C 346.369469 179.460564 346.685568 178.697434 346.685568 177.901824 
C 346.685568 177.106215 346.369469 176.343085 345.806889 175.780504 
C 345.244308 175.217923 344.481177 174.901824 343.685568 174.901824 
C 342.889959 174.901824 342.126829 175.217923 341.564248 175.780504 
C 341.001667 176.343085 340.685568 177.106215 340.685568 177.901824 
C 340.685568 178.697434 341.001667 179.460564 341.564248 180.023145 
C 342.126829 180.585725 342.889959 180.901824 343.685568 180.901824 
z
" style="fill:#f26b38;stroke:#ffffff;stroke-width:0.48;"/>
    <path clip-path="url(#pc30384eb55)" d="M 350.449205 180.901824 
C 351.244814 180.901824 352.007944 180.585725 352.570525 180.023145 
C 353.133106 179.460564 353.449205 178.697434 353.449205 177.901824 
C 353.449205 177.106215 353.133106 176.343085 352.570525 175.780504 
C 352.007944 175.217923 351.244814 174.901824 350.449205 174.901824 
C 349.653595 174.901824 348.890465 175.217923 348.327884 175.780504 
C 347.765303 176.343085 347.449205 177.106215 347.449205 177.901824 
C 347.449205 178.697434 347.765303 179.460564 348.327884 180.023145 
C 348.890465 180.585725 349.653595 180.901824 350.449205 180.901824 
z
" style="fill:#f26b38;stroke:#ffffff;stroke-width:0.48;"/>
    <path clip-path="url(#pc30384eb55)" d="M 357.212841 180.901824 
C 358.00845 180.901824 358.771581 180.585725 359.334161 180.023145 
C 359.896742 179.460564 360.212841 178.697434 360.212841 177.901824 
C 360.212841 177.106215 359.896742 176.343085 359.334161 175.780504 
C 358.771581 175.217923 358.00845 174.901824 357.212841 174.901824 
C 356.417232 174.901824 355.654101 175.217923 355.091521 175.780504 
C 354.52894 176.343085 354.212841 177.106215 354.212841 177.901824 
C 354.212841 178.697434 354.52894 179.460564 355.091521 180.023145 
C 355.654101 180.585725 356.417232 180.901824 357.212841 180.901824 
z
" style="fill:#f26b38;stroke:#ffffff;stroke-width:0.48;"/>
    <path clip-path="url(#pc30384eb55)" d="M 363.976477 180.901824 
C 364.772087 180.901824 365.535217 180.585725 366.097798 180.023145 
C 366.660378 179.460564 366.976477 178.697434 366.976477 177.901824 
C 366.976477 177.106215 366.660378 176.343085 366.097798 175.780504 
C 365.535217 175.217923 364.772087 174.901824 363.976477 174.901824 
C 363.180868 174.901824 362.417738 175.217923 361.855157 175.780504 
C 361.292576 176.343085 360.976477 177.106215 360.976477 177.901824 
C 360.976477 178.697434 361.292576 179.460564 361.855157 180.023145 
C 362.417738 180.585725 363.180868 180.901824 363.976477 180.901824 
z
" style="fill:#f26b38;stroke:#ffffff;stroke-width:0.48;"/>
    <path clip-path="url(#pc30384eb55)" d="M 370.740114 180.901824 
C 371.535723 180.901824 372.298853 180.585725 372.861434 180.023145 
C 373.424015 179.460564 373.740114 178.697434 373.740114 177.901824 
C 373.740114 177.106215 373.424015 176.343085 372.861434 175.780504 
C 372.298853 175.217923 371.535723 174.901824 370.740114 174.901824 
C 369.944504 174.901824 369.181374 175.217923 368.618793 175.780504 
C 368.056213 176.343085 367.740114 177.106215 367.740114 177.901824 
C 367.740114 178.697434 368.056213 179.460564 368.618793 180.023145 
C 369.181374 180.585725 369.944504 180.901824 370.740114 180.901824 
z
" style="fill:#f26b38;stroke:#ffffff;stroke-width:0.48;"/>
    <path clip-path="url(#pc30384eb55)" d="M 377.50375 180.901824 
C 378.299359 180.901824 379.06249 180.585725 379.62507 180.023145 
C 380.187651 179.460564 380.50375 178.697434 380.50375 177.901824 
C 380.50375 177.106215 380.187651 176.343085 379.62507 175.780504 
C 379.06249 175.217923 378.299359 174.901824 377.50375 174.901824 
C 376.708141 174.901824 375.94501 175.217923 375.38243 175.780504 
C 374.819849 176.343085 374.50375 177.106215 374.50375 177.901824 
C 374.50375 178.697434 374.819849 179.460564 375.38243 180.023145 
C 375.94501 180.585725 376.708141 180.901824 377.50375 180.901824 
z
" style="fill:#f26b38;stroke:#ffffff;stroke-width:0.48;"/>
    <path clip-path="url(#pc30384eb55)" d="M 384.267386 180.901824 
C 385.062996 180.901824 385.826126 180.585725 386.388707 180.023145 
C 386.951287 179.460564 387.267386 178.697434 387.267386 177.901824 
C 387.267386 177.106215 386.951287 176.343085 386.388707 175.780504 
C 385.826126 175.217923 385.062996 174.901824 384.267386 174.901824 
C 383.471777 174.901824 382.708647 175.217923 382.146066 175.780504 
C 381.583485 176.343085 381.267386 177.106215 381.267386 177.901824 
C 381.267386 178.697434 381.583485 179.460564 382.146066 180.023145 
C 382.708647 180.585725 383.471777 180.901824 384.267386 180.901824 
z
" style="fill:#f26b38;stroke:#ffffff;stroke-width:0.48;"/>
    <path clip-path="url(#pc30384eb55)" d="M 391.031023 180.901824 
C 391.826632 180.901824 392.589762 180.585725 393.152343 180.023145 
C 393.714924 179.460564 394.031023 178.697434 394.031023 177.901824 
C 394.031023 177.106215 393.714924 176.343085 393.152343 175.780504 
C 392.589762 175.217923 391.826632 174.901824 391.031023 174.901824 
C 390.235413 174.901824 389.472283 175.217923 388.909702 175.780504 
C 388.347122 176.343085 388.031023 177.106215 388.031023 177.901824 
C 388.031023 178.697434 388.347122 179.460564 388.909702 180.023145 
C 389.472283 180.585725 390.235413 180.901824 391.031023 180.901824 
z
" style="fill:#f26b38;stroke:#ffffff;stroke-width:0.48;"/>
    <path clip-path="url(#pc30384eb55)" d="M 64.876477 26.650081 
L 66.376477 25.150081 
L 67.876477 26.650081 
L 69.376477 25.150081 
L 67.876477 23.650081 
L 69.376477 22.150081 
L 67.876477 20.650081 
L 66.376477 22.150081 
L 64.876477 20.650081 
L 63.376477 22.150081 
L 64.876477 23.650081 
L 63.376477 25.150081 
z
" style="fill:#2f9599;stroke:#ffffff;stroke-width:0.48;"/>
    <path clip-path="url(#pc30384eb55)" d="M 71.640114 39.966778 
L 73.140114 38.466778 
L 74.640114 39.966778 
L 76.140114 38.466778 
L 74.640114 36.966778 
L 76.140114 35.466778 
L 74.640114 33.966778 
L 73.140114 35.466778 
L 71.640114 33.966778 
L 70.140114 35.466778 
L 71.640114 36.966778 
L 70.140114 38.466778 
z
" style="fill:#2f9599;stroke:#ffffff;stroke-width:0.48;"/>
    <path clip-path="url(#pc30384eb55)" d="M 78.40375 119.866962 
L 79.90375 118.366962 
L 81.40375 119.866962 
L 82.90375 118.366962 
L 81.40375 116.866962 
L 82.90375 115.366962 
L 81.40375 113.866962 
L 79.90375 115.366962 
L 78.40375 113.866962 
L 76.90375 115.366962 
L 78.40375 116.866962 
L 76.90375 118.366962 
z
" style="fill:#2f9599;stroke:#ffffff;stroke-width:0.48;"/>
    <path clip-path="url(#pc30384eb55)" d="M 85.167386 159.817054 
L 86.667386 158.317054 
L 88.167386 159.817054 
L 89.667386 158.317054 
L 88.167386 156.817054 
L 89.667386 155.317054 
L 88.167386 153.817054 
L 86.667386 155.317054 
L 85.167386 153.817054 
L 83.667386 155.317054 
L 85.167386 156.817054 
L 83.667386 158.317054 
z
" style="fill:#2f9599;stroke:#ffffff;stroke-width:0.48;"/>
    <path clip-path="url(#pc30384eb55)" d="M 91.931023 133.183659 
L 93.431023 131.683659 
L 94.931023 133.183659 
L 96.431023 131.683659 
L 94.931023 130.183659 
L 96.431023 128.683659 
L 94.931023 127.183659 
L 93.431023 128.683659 
L 91.931023 127.183659 
L 90.431023 128.683659 
L 91.931023 130.183659 
L 90.431023 131.683659 
z
" style="fill:#2f9599;stroke:#ffffff;stroke-width:0.48;"/>
    <path clip-path="url(#pc30384eb55)" d="M 98.694659 173.133751 
L 100.194659 171.633751 
L 101.694659 173.133751 
L 103.194659 171.633751 
L 101.694659 170.133751 
L 103.194659 168.633751 
L 101.694659 167.133751 
L 100.194659 168.633751 
L 98.694659 167.133751 
L 97.194659 168.633751 
L 98.694659 170.133751 
L 97.194659 171.633751 
z
" style="fill:#2f9599;stroke:#ffffff;stroke-width:0.48;"/>
    <path clip-path="url(#pc30384eb55)" d="M 105.458295 173.133751 
L 106.958295 171.633751 
L 108.458295 173.133751 
L 109.958295 171.633751 
L 108.458295 170.133751 
L 109.958295 168.633751 
L 108.458295 167.133751 
L 106.958295 168.633751 
L 105.458295 167.133751 
L 103.958295 168.633751 
L 105.458295 170.133751 
L 103.958295 171.633751 
z
" style="fill:#2f9599;stroke:#ffffff;stroke-width:0.48;"/>
    <path clip-path="url(#pc30384eb55)" d="M 112.221932 173.133751 
L 113.721932 171.633751 
L 115.221932 173.133751 
L 116.721932 171.633751 
L 115.221932 170.133751 
L 116.721932 168.633751 
L 115.221932 167.133751 
L 113.721932 168.633751 
L 112.221932 167.133751 
L 110.721932 168.633751 
L 112.221932 170.133751 
L 110.721932 171.633751 
z
" style="fill:#2f9599;stroke:#ffffff;stroke-width:0.48;"/>
    <path clip-path="url(#pc30384eb55)" d="M 118.985568 173.133751 
L 120.485568 171.633751 
L 121.985568 173.133751 
L 123.485568 171.633751 
L 121.985568 170.133751 
L 123.485568 168.633751 
L 121.985568 167.133751 
L 120.485568 168.633751 
L 118.985568 167.133751 
L 117.485568 168.633751 
L 118.985568 170.133751 
L 117.485568 171.633751 
z
" style="fill:#2f9599;stroke:#ffffff;stroke-width:0.48;"/>
    <path clip-path="url(#pc30384eb55)" d="M 125.749205 119.866962 
L 127.249205 118.366962 
L 128.749205 119.866962 
L 130.249205 118.366962 
L 128.749205 116.866962 
L 130.249205 115.366962 
L 128.749205 113.866962 
L 127.249205 115.366962 
L 125.749205 113.866962 
L 124.249205 115.366962 
L 125.749205 116.866962 
L 124.249205 118.366962 
z
" style="fill:#2f9599;stroke:#ffffff;stroke-width:0.48;"/>
    <path clip-path="url(#pc30384eb55)" d="M 132.512841 106.550265 
L 134.012841 105.050265 
L 135.512841 106.550265 
L 137.012841 105.050265 
L 135.512841 103.550265 
L 137.012841 102.050265 
L 135.512841 100.550265 
L 134.012841 102.050265 
L 132.512841 100.550265 
L 131.012841 102.050265 
L 132.512841 103.550265 
L 131.012841 105.050265 
z
" style="fill:#2f9599;stroke:#ffffff;stroke-width:0.48;"/>
    <path clip-path="url(#pc30384eb55)" d="M 139.276477 239.717237 
L 140.776477 238.217237 
L 142.276477 239.717237 
L 143.776477 238.217237 
L 142.276477 236.717237 
L 143.776477 235.217237 
L 142.276477 233.717237 
L 140.776477 235.217237 
L 139.276477 233.717237 
L 137.776477 235.217237 
L 139.276477 236.717237 
L 137.776477 238.217237 
z
" style="fill:#2f9599;stroke:#ffffff;stroke-width:0.48;"/>
    <path clip-path="url(#pc30384eb55)" d="M 146.040114 239.717237 
L 147.540114 238.217237 
L 149.040114 239.717237 
L 150.540114 238.217237 
L 149.040114 236.717237 
L 150.540114 235.217237 
L 149.040114 233.717237 
L 147.540114 235.217237 
L 146.040114 233.717237 
L 144.540114 235.217237 
L 146.040114 236.717237 
L 144.540114 238.217237 
z
" style="fill:#2f9599;stroke:#ffffff;stroke-width:0.48;"/>
    <path clip-path="url(#pc30384eb55)" d="M 152.80375 239.717237 
L 154.30375 238.217237 
L 155.80375 239.717237 
L 157.30375 238.217237 
L 155.80375 236.717237 
L 157.30375 235.217237 
L 155.80375 233.717237 
L 154.30375 235.217237 
L 152.80375 233.717237 
L 151.30375 235.217237 
L 152.80375 236.717237 
L 151.30375 238.217237 
z
" style="fill:#2f9599;stroke:#ffffff;stroke-width:0.48;"/>
    <path clip-path="url(#pc30384eb55)" d="M 159.567386 239.717237 
L 161.067386 238.217237 
L 162.567386 239.717237 
L 164.067386 238.217237 
L 162.567386 236.717237 
L 164.067386 235.217237 
L 162.567386 233.717237 
L 161.067386 235.217237 
L 159.567386 233.717237 
L 158.067386 235.217237 
L 159.567386 236.717237 
L 158.067386 238.217237 
z
" style="fill:#2f9599;stroke:#ffffff;stroke-width:0.48;"/>
    <path clip-path="url(#pc30384eb55)" d="M 166.331023 266.350632 
L 167.831023 264.850632 
L 169.331023 266.350632 
L 170.831023 264.850632 
L 169.331023 263.350632 
L 170.831023 261.850632 
L 169.331023 260.350632 
L 167.831023 261.850632 
L 166.331023 260.350632 
L 164.831023 261.850632 
L 166.331023 263.350632 
L 164.831023 264.850632 
z
" style="fill:#2f9599;stroke:#ffffff;stroke-width:0.48;"/>
    <path clip-path="url(#pc30384eb55)" d="M 173.094659 226.40054 
L 174.594659 224.90054 
L 176.094659 226.40054 
L 177.594659 224.90054 
L 176.094659 223.40054 
L 177.594659 221.90054 
L 176.094659 220.40054 
L 174.594659 221.90054 
L 173.094659 220.40054 
L 171.594659 221.90054 
L 173.094659 223.40054 
L 171.594659 224.90054 
z
" style="fill:#2f9599;stroke:#ffffff;stroke-width:0.48;"/>
    <path clip-path="url(#pc30384eb55)" d="M 179.858295 226.40054 
L 181.358295 224.90054 
L 182.858295 226.40054 
L 184.358295 224.90054 
L 182.858295 223.40054 
L 184.358295 221.90054 
L 182.858295 220.40054 
L 181.358295 221.90054 
L 179.858295 220.40054 
L 178.358295 221.90054 
L 179.858295 223.40054 
L 178.358295 224.90054 
z
" style="fill:#2f9599;stroke:#ffffff;stroke-width:0.48;"/>
    <path clip-path="url(#pc30384eb55)" d="M 186.621932 226.40054 
L 188.121932 224.90054 
L 189.621932 226.40054 
L 191.121932 224.90054 
L 189.621932 223.40054 
L 191.121932 221.90054 
L 189.621932 220.40054 
L 188.121932 221.90054 
L 186.621932 220.40054 
L 185.121932 221.90054 
L 186.621932 223.40054 
L 185.121932 224.90054 
z
" style="fill:#2f9599;stroke:#ffffff;stroke-width:0.48;"/>
    <path clip-path="url(#pc30384eb55)" d="M 193.385568 226.40054 
L 194.885568 224.90054 
L 196.385568 226.40054 
L 197.885568 224.90054 
L 196.385568 223.40054 
L 197.885568 221.90054 
L 196.385568 220.40054 
L 194.885568 221.90054 
L 193.385568 220.40054 
L 191.885568 221.90054 
L 193.385568 223.40054 
L 191.885568 224.90054 
z
" style="fill:#2f9599;stroke:#ffffff;stroke-width:0.48;"/>
    <path clip-path="url(#pc30384eb55)" d="M 200.149205 226.40054 
L 201.649205 224.90054 
L 203.149205 226.40054 
L 204.649205 224.90054 
L 203.149205 223.40054 
L 204.649205 221.90054 
L 203.149205 220.40054 
L 201.649205 221.90054 
L 200.149205 220.40054 
L 198.649205 221.90054 
L 200.149205 223.40054 
L 198.649205 224.90054 
z
" style="fill:#2f9599;stroke:#ffffff;stroke-width:0.48;"/>
    <path clip-path="url(#pc30384eb55)" d="M 206.912841 226.40054 
L 208.412841 224.90054 
L 209.912841 226.40054 
L 211.412841 224.90054 
L 209.912841 223.40054 
L 211.412841 221.90054 
L 209.912841 220.40054 
L 208.412841 221.90054 
L 206.912841 220.40054 
L 205.412841 221.90054 
L 206.912841 223.40054 
L 205.412841 224.90054 
z
" style="fill:#2f9599;stroke:#ffffff;stroke-width:0.48;"/>
    <path clip-path="url(#pc30384eb55)" d="M 213.676477 226.40054 
L 215.176477 224.90054 
L 216.676477 226.40054 
L 218.176477 224.90054 
L 216.676477 223.40054 
L 218.176477 221.90054 
L 216.676477 220.40054 
L 215.176477 221.90054 
L 213.676477 220.40054 
L 212.176477 221.90054 
L 213.676477 223.40054 
L 212.176477 224.90054 
z
" style="fill:#2f9599;stroke:#ffffff;stroke-width:0.48;"/>
    <path clip-path="url(#pc30384eb55)" d="M 220.440114 226.40054 
L 221.940114 224.90054 
L 223.440114 226.40054 
L 224.940114 224.90054 
L 223.440114 223.40054 
L 224.940114 221.90054 
L 223.440114 220.40054 
L 221.940114 221.90054 
L 220.440114 220.40054 
L 218.940114 221.90054 
L 220.440114 223.40054 
L 218.940114 224.90054 
z
" style="fill:#2f9599;stroke:#ffffff;stroke-width:0.48;"/>
    <path clip-path="url(#pc30384eb55)" d="M 227.20375 226.40054 
L 228.70375 224.90054 
L 230.20375 226.40054 
L 231.70375 224.90054 
L 230.20375 223.40054 
L 231.70375 221.90054 
L 230.20375 220.40054 
L 228.70375 221.90054 
L 227.20375 220.40054 
L 225.70375 221.90054 
L 227.20375 223.40054 
L 225.70375 224.90054 
z
" style="fill:#2f9599;stroke:#ffffff;stroke-width:0.48;"/>
    <path clip-path="url(#pc30384eb55)" d="M 233.967386 226.40054 
L 235.467386 224.90054 
L 236.967386 226.40054 
L 238.467386 224.90054 
L 236.967386 223.40054 
L 238.467386 221.90054 
L 236.967386 220.40054 
L 235.467386 221.90054 
L 233.967386 220.40054 
L 232.467386 221.90054 
L 233.967386 223.40054 
L 232.467386 224.90054 
z
" style="fill:#2f9599;stroke:#ffffff;stroke-width:0.48;"/>
    <path clip-path="url(#pc30384eb55)" d="M 240.731023 226.40054 
L 242.231023 224.90054 
L 243.731023 226.40054 
L 245.231023 224.90054 
L 243.731023 223.40054 
L 245.231023 221.90054 
L 243.731023 220.40054 
L 242.231023 221.90054 
L 240.731023 220.40054 
L 239.231023 221.90054 
L 240.731023 223.40054 
L 239.231023 224.90054 
z
" style="fill:#2f9599;stroke:#ffffff;stroke-width:0.48;"/>
    <path clip-path="url(#pc30384eb55)" d="M 247.494659 226.40054 
L 248.994659 224.90054 
L 250.494659 226.40054 
L 251.994659 224.90054 
L 250.494659 223.40054 
L 251.994659 221.90054 
L 250.494659 220.40054 
L 248.994659 221.90054 
L 247.494659 220.40054 
L 245.994659 221.90054 
L 247.494659 223.40054 
L 245.994659 224.90054 
z
" style="fill:#2f9599;stroke:#ffffff;stroke-width:0.48;"/>
    <path clip-path="url(#pc30384eb55)" d="M 254.258295 226.40054 
L 255.758295 224.90054 
L 257.258295 226.40054 
L 258.758295 224.90054 
L 257.258295 223.40054 
L 258.758295 221.90054 
L 257.258295 220.40054 
L 255.758295 221.90054 
L 254.258295 220.40054 
L 252.758295 221.90054 
L 254.258295 223.40054 
L 252.758295 224.90054 
z
" style="fill:#2f9599;stroke:#ffffff;stroke-width:0.48;"/>
    <path clip-path="url(#pc30384eb55)" d="M 261.021932 226.40054 
L 262.521932 224.90054 
L 264.021932 226.40054 
L 265.521932 224.90054 
L 264.021932 223.40054 
L 265.521932 221.90054 
L 264.021932 220.40054 
L 262.521932 221.90054 
L 261.021932 220.40054 
L 259.521932 221.90054 
L 261.021932 223.40054 
L 259.521932 224.90054 
z
" style="fill:#2f9599;stroke:#ffffff;stroke-width:0.48;"/>
    <path clip-path="url(#pc30384eb55)" d="M 267.785568 226.40054 
L 269.285568 224.90054 
L 270.785568 226.40054 
L 272.285568 224.90054 
L 270.785568 223.40054 
L 272.285568 221.90054 
L 270.785568 220.40054 
L 269.285568 221.90054 
L 267.785568 220.40054 
L 266.285568 221.90054 
L 267.785568 223.40054 
L 266.285568 224.90054 
z
" style="fill:#2f9599;stroke:#ffffff;stroke-width:0.48;"/>
    <path clip-path="url(#pc30384eb55)" d="M 274.549205 226.40054 
L 276.049205 224.90054 
L 277.549205 226.40054 
L 279.049205 224.90054 
L 277.549205 223.40054 
L 279.049205 221.90054 
L 277.549205 220.40054 
L 276.049205 221.90054 
L 274.549205 220.40054 
L 273.049205 221.90054 
L 274.549205 223.40054 
L 273.049205 224.90054 
z
" style="fill:#2f9599;stroke:#ffffff;stroke-width:0.48;"/>
    <path clip-path="url(#pc30384eb55)" d="M 281.312841 226.40054 
L 282.812841 224.90054 
L 284.312841 226.40054 
L 285.812841 224.90054 
L 284.312841 223.40054 
L 285.812841 221.90054 
L 284.312841 220.40054 
L 282.812841 221.90054 
L 281.312841 220.40054 
L 279.812841 221.90054 
L 281.312841 223.40054 
L 279.812841 224.90054 
z
" style="fill:#2f9599;stroke:#ffffff;stroke-width:0.48;"/>
    <path clip-path="url(#pc30384eb55)" d="M 288.076477 226.40054 
L 289.576477 224.90054 
L 291.076477 226.40054 
L 292.576477 224.90054 
L 291.076477 223.40054 
L 292.576477 221.90054 
L 291.076477 220.40054 
L 289.576477 221.90054 
L 288.076477 220.40054 
L 286.576477 221.90054 
L 288.076477 223.40054 
L 286.576477 224.90054 
z
" style="fill:#2f9599;stroke:#ffffff;stroke-width:0.48;"/>
    <path clip-path="url(#pc30384eb55)" d="M 294.840114 226.40054 
L 296.340114 224.90054 
L 297.840114 226.40054 
L 299.340114 224.90054 
L 297.840114 223.40054 
L 299.340114 221.90054 
L 297.840114 220.40054 
L 296.340114 221.90054 
L 294.840114 220.40054 
L 293.340114 221.90054 
L 294.840114 223.40054 
L 293.340114 224.90054 
z
" style="fill:#2f9599;stroke:#ffffff;stroke-width:0.48;"/>
    <path clip-path="url(#pc30384eb55)" d="M 301.60375 226.40054 
L 303.10375 224.90054 
L 304.60375 226.40054 
L 306.10375 224.90054 
L 304.60375 223.40054 
L 306.10375 221.90054 
L 304.60375 220.40054 
L 303.10375 221.90054 
L 301.60375 220.40054 
L 300.10375 221.90054 
L 301.60375 223.40054 
L 300.10375 224.90054 
z
" style="fill:#2f9599;stroke:#ffffff;stroke-width:0.48;"/>
    <path clip-path="url(#pc30384eb55)" d="M 308.367386 226.40054 
L 309.867386 224.90054 
L 311.367386 226.40054 
L 312.867386 224.90054 
L 311.367386 223.40054 
L 312.867386 221.90054 
L 311.367386 220.40054 
L 309.867386 221.90054 
L 308.367386 220.40054 
L 306.867386 221.90054 
L 308.367386 223.40054 
L 306.867386 224.90054 
z
" style="fill:#2f9599;stroke:#ffffff;stroke-width:0.48;"/>
    <path clip-path="url(#pc30384eb55)" d="M 315.131023 226.40054 
L 316.631023 224.90054 
L 318.131023 226.40054 
L 319.631023 224.90054 
L 318.131023 223.40054 
L 319.631023 221.90054 
L 318.131023 220.40054 
L 316.631023 221.90054 
L 315.131023 220.40054 
L 313.631023 221.90054 
L 315.131023 223.40054 
L 313.631023 224.90054 
z
" style="fill:#2f9599;stroke:#ffffff;stroke-width:0.48;"/>
    <path clip-path="url(#pc30384eb55)" d="M 321.894659 226.40054 
L 323.394659 224.90054 
L 324.894659 226.40054 
L 326.394659 224.90054 
L 324.894659 223.40054 
L 326.394659 221.90054 
L 324.894659 220.40054 
L 323.394659 221.90054 
L 321.894659 220.40054 
L 320.394659 221.90054 
L 321.894659 223.40054 
L 320.394659 224.90054 
z
" style="fill:#2f9599;stroke:#ffffff;stroke-width:0.48;"/>
    <path clip-path="url(#pc30384eb55)" d="M 328.658295 226.40054 
L 330.158295 224.90054 
L 331.658295 226.40054 
L 333.158295 224.90054 
L 331.658295 223.40054 
L 333.158295 221.90054 
L 331.658295 220.40054 
L 330.158295 221.90054 
L 328.658295 220.40054 
L 327.158295 221.90054 
L 328.658295 223.40054 
L 327.158295 224.90054 
z
" style="fill:#2f9599;stroke:#ffffff;stroke-width:0.48;"/>
    <path clip-path="url(#pc30384eb55)" d="M 335.421932 226.40054 
L 336.921932 224.90054 
L 338.421932 226.40054 
L 339.921932 224.90054 
L 338.421932 223.40054 
L 339.921932 221.90054 
L 338.421932 220.40054 
L 336.921932 221.90054 
L 335.421932 220.40054 
L 333.921932 221.90054 
L 335.421932 223.40054 
L 333.921932 224.90054 
z
" style="fill:#2f9599;stroke:#ffffff;stroke-width:0.48;"/>
    <path clip-path="url(#pc30384eb55)" d="M 342.185568 226.40054 
L 343.685568 224.90054 
L 345.185568 226.40054 
L 346.685568 224.90054 
L 345.185568 223.40054 
L 346.685568 221.90054 
L 345.185568 220.40054 
L 343.685568 221.90054 
L 342.185568 220.40054 
L 340.685568 221.90054 
L 342.185568 223.40054 
L 340.685568 224.90054 
z
" style="fill:#2f9599;stroke:#ffffff;stroke-width:0.48;"/>
    <path clip-path="url(#pc30384eb55)" d="M 348.949205 226.40054 
L 350.449205 224.90054 
L 351.949205 226.40054 
L 353.449205 224.90054 
L 351.949205 223.40054 
L 353.449205 221.90054 
L 351.949205 220.40054 
L 350.449205 221.90054 
L 348.949205 220.40054 
L 347.449205 221.90054 
L 348.949205 223.40054 
L 347.449205 224.90054 
z
" style="fill:#2f9599;stroke:#ffffff;stroke-width:0.48;"/>
    <path clip-path="url(#pc30384eb55)" d="M 355.712841 226.40054 
L 357.212841 224.90054 
L 358.712841 226.40054 
L 360.212841 224.90054 
L 358.712841 223.40054 
L 360.212841 221.90054 
L 358.712841 220.40054 
L 357.212841 221.90054 
L 355.712841 220.40054 
L 354.212841 221.90054 
L 355.712841 223.40054 
L 354.212841 224.90054 
z
" style="fill:#2f9599;stroke:#ffffff;stroke-width:0.48;"/>
    <path clip-path="url(#pc30384eb55)" d="M 362.476477 226.40054 
L 363.976477 224.90054 
L 365.476477 226.40054 
L 366.976477 224.90054 
L 365.476477 223.40054 
L 366.976477 221.90054 
L 365.476477 220.40054 
L 363.976477 221.90054 
L 362.476477 220.40054 
L 360.976477 221.90054 
L 362.476477 223.40054 
L 360.976477 224.90054 
z
" style="fill:#2f9599;stroke:#ffffff;stroke-width:0.48;"/>
    <path clip-path="url(#pc30384eb55)" d="M 369.240114 226.40054 
L 370.740114 224.90054 
L 372.240114 226.40054 
L 373.740114 224.90054 
L 372.240114 223.40054 
L 373.740114 221.90054 
L 372.240114 220.40054 
L 370.740114 221.90054 
L 369.240114 220.40054 
L 367.740114 221.90054 
L 369.240114 223.40054 
L 367.740114 224.90054 
z
" style="fill:#2f9599;stroke:#ffffff;stroke-width:0.48;"/>
    <path clip-path="url(#pc30384eb55)" d="M 376.00375 226.40054 
L 377.50375 224.90054 
L 379.00375 226.40054 
L 380.50375 224.90054 
L 379.00375 223.40054 
L 380.50375 221.90054 
L 379.00375 220.40054 
L 377.50375 221.90054 
L 376.00375 220.40054 
L 374.50375 221.90054 
L 376.00375 223.40054 
L 374.50375 224.90054 
z
" style="fill:#2f9599;stroke:#ffffff;stroke-width:0.48;"/>
    <path clip-path="url(#pc30384eb55)" d="M 382.767386 226.40054 
L 384.267386 224.90054 
L 385.767386 226.40054 
L 387.267386 224.90054 
L 385.767386 223.40054 
L 387.267386 221.90054 
L 385.767386 220.40054 
L 384.267386 221.90054 
L 382.767386 220.40054 
L 381.267386 221.90054 
L 382.767386 223.40054 
L 381.267386 224.90054 
z
" style="fill:#2f9599;stroke:#ffffff;stroke-width:0.48;"/>
    <path clip-path="url(#pc30384eb55)" d="M 389.531023 226.40054 
L 391.031023 224.90054 
L 392.531023 226.40054 
L 394.031023 224.90054 
L 392.531023 223.40054 
L 394.031023 221.90054 
L 392.531023 220.40054 
L 391.031023 221.90054 
L 389.531023 220.40054 
L 388.031023 221.90054 
L 389.531023 223.40054 
L 388.031023 224.90054 
z
" style="fill:#2f9599;stroke:#ffffff;stroke-width:0.48;"/>
    <path clip-path="url(#pc30384eb55)" d="M 64.255157 55.499927 
L 64.255157 59.742568 
L 68.497798 59.742568 
L 68.497798 55.499927 
z
" style="fill:#a7226e;stroke:#ffffff;stroke-width:0.48;"/>
    <path clip-path="url(#pc30384eb55)" d="M 71.018793 55.499927 
L 71.018793 59.742568 
L 75.261434 59.742568 
L 75.261434 55.499927 
z
" style="fill:#a7226e;stroke:#ffffff;stroke-width:0.48;"/>
    <path clip-path="url(#pc30384eb55)" d="M 77.78243 55.499927 
L 77.78243 59.742568 
L 82.02507 59.742568 
L 82.02507 55.499927 
z
" style="fill:#a7226e;stroke:#ffffff;stroke-width:0.48;"/>
    <path clip-path="url(#pc30384eb55)" d="M 84.546066 55.499927 
L 84.546066 59.742568 
L 88.788707 59.742568 
L 88.788707 55.499927 
z
" style="fill:#a7226e;stroke:#ffffff;stroke-width:0.48;"/>
    <path clip-path="url(#pc30384eb55)" d="M 91.309702 55.499927 
L 91.309702 59.742568 
L 95.552343 59.742568 
L 95.552343 55.499927 
z
" style="fill:#a7226e;stroke:#ffffff;stroke-width:0.48;"/>
    <path clip-path="url(#pc30384eb55)" d="M 98.073339 55.499927 
L 98.073339 59.742568 
L 102.315979 59.742568 
L 102.315979 55.499927 
z
" style="fill:#a7226e;stroke:#ffffff;stroke-width:0.48;"/>
    <path clip-path="url(#pc30384eb55)" d="M 104.836975 55.499927 
L 104.836975 59.742568 
L 109.079616 59.742568 
L 109.079616 55.499927 
z
" style="fill:#a7226e;stroke:#ffffff;stroke-width:0.48;"/>
    <path clip-path="url(#pc30384eb55)" d="M 111.600611 68.273086 
L 111.600611 72.515727 
L 115.843252 72.515727 
L 115.843252 68.273086 
z
" style="fill:#a7226e;stroke:#ffffff;stroke-width:0.48;"/>
    <path clip-path="url(#pc30384eb55)" d="M 118.364248 55.499927 
L 118.364248 59.742568 
L 122.606889 59.742568 
L 122.606889 55.499927 
z
" style="fill:#a7226e;stroke:#ffffff;stroke-width:0.48;"/>
    <path clip-path="url(#pc30384eb55)" d="M 125.127884 42.726769 
L 125.127884 46.969409 
L 129.370525 46.969409 
L 129.370525 42.726769 
z
" style="fill:#a7226e;stroke:#ffffff;stroke-width:0.48;"/>
    <path clip-path="url(#pc30384eb55)" d="M 131.891521 42.726769 
L 131.891521 46.969409 
L 136.134161 46.969409 
L 136.134161 42.726769 
z
" style="fill:#a7226e;stroke:#ffffff;stroke-width:0.48;"/>
    <path clip-path="url(#pc30384eb55)" d="M 138.655157 55.499927 
L 138.655157 59.742568 
L 142.897798 59.742568 
L 142.897798 55.499927 
z
" style="fill:#a7226e;stroke:#ffffff;stroke-width:0.48;"/>
    <path clip-path="url(#pc30384eb55)" d="M 145.418793 55.499927 
L 145.418793 59.742568 
L 149.661434 59.742568 
L 149.661434 55.499927 
z
" style="fill:#a7226e;stroke:#ffffff;stroke-width:0.48;"/>
    <path clip-path="url(#pc30384eb55)" d="M 152.18243 55.499927 
L 152.18243 59.742568 
L 156.42507 59.742568 
L 156.42507 55.499927 
z
" style="fill:#a7226e;stroke:#ffffff;stroke-width:0.48;"/>
    <path clip-path="url(#pc30384eb55)" d="M 158.946066 42.726769 
L 158.946066 46.969409 
L 163.188707 46.969409 
L 163.188707 42.726769 
z
" style="fill:#a7226e;stroke:#ffffff;stroke-width:0.48;"/>
    <path clip-path="url(#pc30384eb55)" d="M 165.709702 55.499927 
L 165.709702 59.742568 
L 169.952343 59.742568 
L 169.952343 55.499927 
z
" style="fill:#a7226e;stroke:#ffffff;stroke-width:0.48;"/>
    <path clip-path="url(#pc30384eb55)" d="M 172.473339 55.499927 
L 172.473339 59.742568 
L 176.715979 59.742568 
L 176.715979 55.499927 
z
" style="fill:#a7226e;stroke:#ffffff;stroke-width:0.48;"/>
    <path clip-path="url(#pc30384eb55)" d="M 179.236975 68.273086 
L 179.236975 72.515727 
L 183.479616 72.515727 
L 183.479616 68.273086 
z
" style="fill:#a7226e;stroke:#ffffff;stroke-width:0.48;"/>
    <path clip-path="url(#pc30384eb55)" d="M 186.000611 68.273086 
L 186.000611 72.515727 
L 190.243252 72.515727 
L 190.243252 68.273086 
z
" style="fill:#a7226e;stroke:#ffffff;stroke-width:0.48;"/>
    <path clip-path="url(#pc30384eb55)" d="M 192.764248 55.499927 
L 192.764248 59.742568 
L 197.006889 59.742568 
L 197.006889 55.499927 
z
" style="fill:#a7226e;stroke:#ffffff;stroke-width:0.48;"/>
    <path clip-path="url(#pc30384eb55)" d="M 199.527884 55.499927 
L 199.527884 59.742568 
L 203.770525 59.742568 
L 203.770525 55.499927 
z
" style="fill:#a7226e;stroke:#ffffff;stroke-width:0.48;"/>
    <path clip-path="url(#pc30384eb55)" d="M 206.291521 55.499927 
L 206.291521 59.742568 
L 210.534161 59.742568 
L 210.534161 55.499927 
z
" style="fill:#a7226e;stroke:#ffffff;stroke-width:0.48;"/>
    <path clip-path="url(#pc30384eb55)" d="M 213.055157 42.726769 
L 213.055157 46.969409 
L 217.297798 46.969409 
L 217.297798 42.726769 
z
" style="fill:#a7226e;stroke:#ffffff;stroke-width:0.48;"/>
    <path clip-path="url(#pc30384eb55)" d="M 219.818793 93.819403 
L 219.818793 98.062044 
L 224.061434 98.062044 
L 224.061434 93.819403 
z
" style="fill:#a7226e;stroke:#ffffff;stroke-width:0.48;"/>
    <path clip-path="url(#pc30384eb55)" d="M 226.58243 42.726769 
L 226.58243 46.969409 
L 230.82507 46.969409 
L 230.82507 42.726769 
z
" style="fill:#a7226e;stroke:#ffffff;stroke-width:0.48;"/>
    <path clip-path="url(#pc30384eb55)" d="M 233.346066 42.726769 
L 233.346066 46.969409 
L 237.588707 46.969409 
L 237.588707 42.726769 
z
" style="fill:#a7226e;stroke:#ffffff;stroke-width:0.48;"/>
    <path clip-path="url(#pc30384eb55)" d="M 240.109702 42.726769 
L 240.109702 46.969409 
L 244.352343 46.969409 
L 244.352343 42.726769 
z
" style="fill:#a7226e;stroke:#ffffff;stroke-width:0.48;"/>
    <path clip-path="url(#pc30384eb55)" d="M 246.873339 119.36572 
L 246.873339 123.608361 
L 251.115979 123.608361 
L 251.115979 119.36572 
z
" style="fill:#a7226e;stroke:#ffffff;stroke-width:0.48;"/>
    <path clip-path="url(#pc30384eb55)" d="M 253.636975 42.726769 
L 253.636975 46.969409 
L 257.879616 46.969409 
L 257.879616 42.726769 
z
" style="fill:#a7226e;stroke:#ffffff;stroke-width:0.48;"/>
    <path clip-path="url(#pc30384eb55)" d="M 260.400611 81.046244 
L 260.400611 85.288885 
L 264.643252 85.288885 
L 264.643252 81.046244 
z
" style="fill:#a7226e;stroke:#ffffff;stroke-width:0.48;"/>
    <path clip-path="url(#pc30384eb55)" d="M 267.164248 68.273086 
L 267.164248 72.515727 
L 271.406889 72.515727 
L 271.406889 68.273086 
z
" style="fill:#a7226e;stroke:#ffffff;stroke-width:0.48;"/>
    <path clip-path="url(#pc30384eb55)" d="M 273.927884 68.273086 
L 273.927884 72.515727 
L 278.170525 72.515727 
L 278.170525 68.273086 
z
" style="fill:#a7226e;stroke:#ffffff;stroke-width:0.48;"/>
    <path clip-path="url(#pc30384eb55)" d="M 280.691521 68.273086 
L 280.691521 72.515727 
L 284.934161 72.515727 
L 284.934161 68.273086 
z
" style="fill:#a7226e;stroke:#ffffff;stroke-width:0.48;"/>
    <path clip-path="url(#pc30384eb55)" d="M 287.455157 170.458355 
L 287.455157 174.700995 
L 291.697798 174.700995 
L 291.697798 170.458355 
z
" style="fill:#a7226e;stroke:#ffffff;stroke-width:0.48;"/>
    <path clip-path="url(#pc30384eb55)" d="M 294.218793 170.458355 
L 294.218793 174.700995 
L 298.461434 174.700995 
L 298.461434 170.458355 
z
" style="fill:#a7226e;stroke:#ffffff;stroke-width:0.48;"/>
    <path clip-path="url(#pc30384eb55)" d="M 300.98243 170.458355 
L 300.98243 174.700995 
L 305.22507 174.700995 
L 305.22507 170.458355 
z
" style="fill:#a7226e;stroke:#ffffff;stroke-width:0.48;"/>
    <path clip-path="url(#pc30384eb55)" d="M 307.746066 170.458355 
L 307.746066 174.700995 
L 311.988707 174.700995 
L 311.988707 170.458355 
z
" style="fill:#a7226e;stroke:#ffffff;stroke-width:0.48;"/>
    <path clip-path="url(#pc30384eb55)" d="M 314.509702 170.458355 
L 314.509702 174.700995 
L 318.752343 174.700995 
L 318.752343 170.458355 
z
" style="fill:#a7226e;stroke:#ffffff;stroke-width:0.48;"/>
    <path clip-path="url(#pc30384eb55)" d="M 321.273339 170.458355 
L 321.273339 174.700995 
L 325.515979 174.700995 
L 325.515979 170.458355 
z
" style="fill:#a7226e;stroke:#ffffff;stroke-width:0.48;"/>
    <path clip-path="url(#pc30384eb55)" d="M 328.036975 170.458355 
L 328.036975 174.700995 
L 332.279616 174.700995 
L 332.279616 170.458355 
z
" style="fill:#a7226e;stroke:#ffffff;stroke-width:0.48;"/>
    <path clip-path="url(#pc30384eb55)" d="M 334.800611 170.458355 
L 334.800611 174.700995 
L 339.043252 174.700995 
L 339.043252 170.458355 
z
" style="fill:#a7226e;stroke:#ffffff;stroke-width:0.48;"/>
    <path clip-path="url(#pc30384eb55)" d="M 341.564248 170.458355 
L 341.564248 174.700995 
L 345.806889 174.700995 
L 345.806889 170.458355 
z
" style="fill:#a7226e;stroke:#ffffff;stroke-width:0.48;"/>
    <path clip-path="url(#pc30384eb55)" d="M 348.327884 170.458355 
L 348.327884 174.700995 
L 352.570525 174.700995 
L 352.570525 170.458355 
z
" style="fill:#a7226e;stroke:#ffffff;stroke-width:0.48;"/>
    <path clip-path="url(#pc30384eb55)" d="M 355.091521 170.458355 
L 355.091521 174.700995 
L 359.334161 174.700995 
L 359.334161 170.458355 
z
" style="fill:#a7226e;stroke:#ffffff;stroke-width:0.48;"/>
    <path clip-path="url(#pc30384eb55)" d="M 361.855157 170.458355 
L 361.855157 174.700995 
L 366.097798 174.700995 
L 366.097798 170.458355 
z
" style="fill:#a7226e;stroke:#ffffff;stroke-width:0.48;"/>
    <path clip-path="url(#pc30384eb55)" d="M 368.618793 170.458355 
L 368.618793 174.700995 
L 372.861434 174.700995 
L 372.861434 170.458355 
z
" style="fill:#a7226e;stroke:#ffffff;stroke-width:0.48;"/>
    <path clip-path="url(#pc30384eb55)" d="M 375.38243 170.458355 
L 375.38243 174.700995 
L 379.62507 174.700995 
L 379.62507 170.458355 
z
" style="fill:#a7226e;stroke:#ffffff;stroke-width:0.48;"/>
    <path clip-path="url(#pc30384eb55)" d="M 382.146066 170.458355 
L 382.146066 174.700995 
L 386.388707 174.700995 
L 386.388707 170.458355 
z
" style="fill:#a7226e;stroke:#ffffff;stroke-width:0.48;"/>
    <path clip-path="url(#pc30384eb55)" d="M 388.909702 170.458355 
L 388.909702 174.700995 
L 393.152343 174.700995 
L 393.152343 170.458355 
z
" style="fill:#a7226e;stroke:#ffffff;stroke-width:0.48;"/>
   </g>
   <g id="PathCollection_2"/>
   <g id="PathCollection_3"/>
   <g id="PathCollection_4"/>
   <g id="matplotlib.axis_1">
    <g id="xtick_1">
     <g id="line2d_1">
      <defs>
       <path d="M 0 0 
L 0 3.5 
" id="m684848ee64" style="stroke:#000000;stroke-width:0.8;"/>
      </defs>
      <g>
       <use style="stroke:#000000;stroke-width:0.8;" x="59.612841" xlink:href="#m684848ee64" y="275.446632"/>
      </g>
     </g>
     <g id="text_1">
      <!-- 0.0 -->
      <g transform="translate(51.661278 290.045069)scale(0.1 -0.1)">
       <defs>
        <path d="M 31.78125 66.40625 
Q 24.171875 66.40625 20.328125 58.90625 
Q 16.5 51.421875 16.5 36.375 
Q 16.5 21.390625 20.328125 13.890625 
Q 24.171875 6.390625 31.78125 6.390625 
Q 39.453125 6.390625 43.28125 13.890625 
Q 47.125 21.390625 47.125 36.375 
Q 47.125 51.421875 43.28125 58.90625 
Q 39.453125 66.40625 31.78125 66.40625 
z
M 31.78125 74.21875 
Q 44.046875 74.21875 50.515625 64.515625 
Q 56.984375 54.828125 56.984375 36.375 
Q 56.984375 17.96875 50.515625 8.265625 
Q 44.046875 -1.421875 31.78125 -1.421875 
Q 19.53125 -1.421875 13.0625 8.265625 
Q 6.59375 17.96875 6.59375 36.375 
Q 6.59375 54.828125 13.0625 64.515625 
Q 19.53125 74.21875 31.78125 74.21875 
z
" id="DejaVuSans-48"/>
        <path d="M 10.6875 12.40625 
L 21 12.40625 
L 21 0 
L 10.6875 0 
z
" id="DejaVuSans-46"/>
       </defs>
       <use xlink:href="#DejaVuSans-48"/>
       <use x="63.623047" xlink:href="#DejaVuSans-46"/>
       <use x="95.410156" xlink:href="#DejaVuSans-48"/>
      </g>
     </g>
    </g>
    <g id="xtick_2">
     <g id="line2d_2">
      <g>
       <use style="stroke:#000000;stroke-width:0.8;" x="127.249205" xlink:href="#m684848ee64" y="275.446632"/>
      </g>
     </g>
     <g id="text_2">
      <!-- 0.2 -->
      <g transform="translate(119.297642 290.045069)scale(0.1 -0.1)">
       <defs>
        <path d="M 19.1875 8.296875 
L 53.609375 8.296875 
L 53.609375 0 
L 7.328125 0 
L 7.328125 8.296875 
Q 12.9375 14.109375 22.625 23.890625 
Q 32.328125 33.6875 34.8125 36.53125 
Q 39.546875 41.84375 41.421875 45.53125 
Q 43.3125 49.21875 43.3125 52.78125 
Q 43.3125 58.59375 39.234375 62.25 
Q 35.15625 65.921875 28.609375 65.921875 
Q 23.96875 65.921875 18.8125 64.3125 
Q 13.671875 62.703125 7.8125 59.421875 
L 7.8125 69.390625 
Q 13.765625 71.78125 18.9375 73 
Q 24.125 74.21875 28.421875 74.21875 
Q 39.75 74.21875 46.484375 68.546875 
Q 53.21875 62.890625 53.21875 53.421875 
Q 53.21875 48.921875 51.53125 44.890625 
Q 49.859375 40.875 45.40625 35.40625 
Q 44.1875 33.984375 37.640625 27.21875 
Q 31.109375 20.453125 19.1875 8.296875 
z
" id="DejaVuSans-50"/>
       </defs>
       <use xlink:href="#DejaVuSans-48"/>
       <use x="63.623047" xlink:href="#DejaVuSans-46"/>
       <use x="95.410156" xlink:href="#DejaVuSans-50"/>
      </g>
     </g>
    </g>
    <g id="xtick_3">
     <g id="line2d_3">
      <g>
       <use style="stroke:#000000;stroke-width:0.8;" x="194.885568" xlink:href="#m684848ee64" y="275.446632"/>
      </g>
     </g>
     <g id="text_3">
      <!-- 0.4 -->
      <g transform="translate(186.934006 290.045069)scale(0.1 -0.1)">
       <defs>
        <path d="M 37.796875 64.3125 
L 12.890625 25.390625 
L 37.796875 25.390625 
z
M 35.203125 72.90625 
L 47.609375 72.90625 
L 47.609375 25.390625 
L 58.015625 25.390625 
L 58.015625 17.1875 
L 47.609375 17.1875 
L 47.609375 0 
L 37.796875 0 
L 37.796875 17.1875 
L 4.890625 17.1875 
L 4.890625 26.703125 
z
" id="DejaVuSans-52"/>
       </defs>
       <use xlink:href="#DejaVuSans-48"/>
       <use x="63.623047" xlink:href="#DejaVuSans-46"/>
       <use x="95.410156" xlink:href="#DejaVuSans-52"/>
      </g>
     </g>
    </g>
    <g id="xtick_4">
     <g id="line2d_4">
      <g>
       <use style="stroke:#000000;stroke-width:0.8;" x="262.521932" xlink:href="#m684848ee64" y="275.446632"/>
      </g>
     </g>
     <g id="text_4">
      <!-- 0.6 -->
      <g transform="translate(254.570369 290.045069)scale(0.1 -0.1)">
       <defs>
        <path d="M 33.015625 40.375 
Q 26.375 40.375 22.484375 35.828125 
Q 18.609375 31.296875 18.609375 23.390625 
Q 18.609375 15.53125 22.484375 10.953125 
Q 26.375 6.390625 33.015625 6.390625 
Q 39.65625 6.390625 43.53125 10.953125 
Q 47.40625 15.53125 47.40625 23.390625 
Q 47.40625 31.296875 43.53125 35.828125 
Q 39.65625 40.375 33.015625 40.375 
z
M 52.59375 71.296875 
L 52.59375 62.3125 
Q 48.875 64.0625 45.09375 64.984375 
Q 41.3125 65.921875 37.59375 65.921875 
Q 27.828125 65.921875 22.671875 59.328125 
Q 17.53125 52.734375 16.796875 39.40625 
Q 19.671875 43.65625 24.015625 45.921875 
Q 28.375 48.1875 33.59375 48.1875 
Q 44.578125 48.1875 50.953125 41.515625 
Q 57.328125 34.859375 57.328125 23.390625 
Q 57.328125 12.15625 50.6875 5.359375 
Q 44.046875 -1.421875 33.015625 -1.421875 
Q 20.359375 -1.421875 13.671875 8.265625 
Q 6.984375 17.96875 6.984375 36.375 
Q 6.984375 53.65625 15.1875 63.9375 
Q 23.390625 74.21875 37.203125 74.21875 
Q 40.921875 74.21875 44.703125 73.484375 
Q 48.484375 72.75 52.59375 71.296875 
z
" id="DejaVuSans-54"/>
       </defs>
       <use xlink:href="#DejaVuSans-48"/>
       <use x="63.623047" xlink:href="#DejaVuSans-46"/>
       <use x="95.410156" xlink:href="#DejaVuSans-54"/>
      </g>
     </g>
    </g>
    <g id="xtick_5">
     <g id="line2d_5">
      <g>
       <use style="stroke:#000000;stroke-width:0.8;" x="330.158295" xlink:href="#m684848ee64" y="275.446632"/>
      </g>
     </g>
     <g id="text_5">
      <!-- 0.8 -->
      <g transform="translate(322.206733 290.045069)scale(0.1 -0.1)">
       <defs>
        <path d="M 31.78125 34.625 
Q 24.75 34.625 20.71875 30.859375 
Q 16.703125 27.09375 16.703125 20.515625 
Q 16.703125 13.921875 20.71875 10.15625 
Q 24.75 6.390625 31.78125 6.390625 
Q 38.8125 6.390625 42.859375 10.171875 
Q 46.921875 13.96875 46.921875 20.515625 
Q 46.921875 27.09375 42.890625 30.859375 
Q 38.875 34.625 31.78125 34.625 
z
M 21.921875 38.8125 
Q 15.578125 40.375 12.03125 44.71875 
Q 8.5 49.078125 8.5 55.328125 
Q 8.5 64.0625 14.71875 69.140625 
Q 20.953125 74.21875 31.78125 74.21875 
Q 42.671875 74.21875 48.875 69.140625 
Q 55.078125 64.0625 55.078125 55.328125 
Q 55.078125 49.078125 51.53125 44.71875 
Q 48 40.375 41.703125 38.8125 
Q 48.828125 37.15625 52.796875 32.3125 
Q 56.78125 27.484375 56.78125 20.515625 
Q 56.78125 9.90625 50.3125 4.234375 
Q 43.84375 -1.421875 31.78125 -1.421875 
Q 19.734375 -1.421875 13.25 4.234375 
Q 6.78125 9.90625 6.78125 20.515625 
Q 6.78125 27.484375 10.78125 32.3125 
Q 14.796875 37.15625 21.921875 38.8125 
z
M 18.3125 54.390625 
Q 18.3125 48.734375 21.84375 45.5625 
Q 25.390625 42.390625 31.78125 42.390625 
Q 38.140625 42.390625 41.71875 45.5625 
Q 45.3125 48.734375 45.3125 54.390625 
Q 45.3125 60.0625 41.71875 63.234375 
Q 38.140625 66.40625 31.78125 66.40625 
Q 25.390625 66.40625 21.84375 63.234375 
Q 18.3125 60.0625 18.3125 54.390625 
z
" id="DejaVuSans-56"/>
       </defs>
       <use xlink:href="#DejaVuSans-48"/>
       <use x="63.623047" xlink:href="#DejaVuSans-46"/>
       <use x="95.410156" xlink:href="#DejaVuSans-56"/>
      </g>
     </g>
    </g>
    <g id="xtick_6">
     <g id="line2d_6">
      <g>
       <use style="stroke:#000000;stroke-width:0.8;" x="397.794659" xlink:href="#m684848ee64" y="275.446632"/>
      </g>
     </g>
     <g id="text_6">
      <!-- 1.0 -->
      <g transform="translate(389.843097 290.045069)scale(0.1 -0.1)">
       <defs>
        <path d="M 12.40625 8.296875 
L 28.515625 8.296875 
L 28.515625 63.921875 
L 10.984375 60.40625 
L 10.984375 69.390625 
L 28.421875 72.90625 
L 38.28125 72.90625 
L 38.28125 8.296875 
L 54.390625 8.296875 
L 54.390625 0 
L 12.40625 0 
z
" id="DejaVuSans-49"/>
       </defs>
       <use xlink:href="#DejaVuSans-49"/>
       <use x="63.623047" xlink:href="#DejaVuSans-46"/>
       <use x="95.410156" xlink:href="#DejaVuSans-48"/>
      </g>
     </g>
    </g>
    <g id="text_7">
     <!-- cutoff -->
     <g transform="translate(214.245938 303.723194)scale(0.1 -0.1)">
      <defs>
       <path d="M 48.78125 52.59375 
L 48.78125 44.1875 
Q 44.96875 46.296875 41.140625 47.34375 
Q 37.3125 48.390625 33.40625 48.390625 
Q 24.65625 48.390625 19.8125 42.84375 
Q 14.984375 37.3125 14.984375 27.296875 
Q 14.984375 17.28125 19.8125 11.734375 
Q 24.65625 6.203125 33.40625 6.203125 
Q 37.3125 6.203125 41.140625 7.25 
Q 44.96875 8.296875 48.78125 10.40625 
L 48.78125 2.09375 
Q 45.015625 0.34375 40.984375 -0.53125 
Q 36.96875 -1.421875 32.421875 -1.421875 
Q 20.0625 -1.421875 12.78125 6.34375 
Q 5.515625 14.109375 5.515625 27.296875 
Q 5.515625 40.671875 12.859375 48.328125 
Q 20.21875 56 33.015625 56 
Q 37.15625 56 41.109375 55.140625 
Q 45.0625 54.296875 48.78125 52.59375 
z
" id="DejaVuSans-99"/>
       <path d="M 8.5 21.578125 
L 8.5 54.6875 
L 17.484375 54.6875 
L 17.484375 21.921875 
Q 17.484375 14.15625 20.5 10.265625 
Q 23.53125 6.390625 29.59375 6.390625 
Q 36.859375 6.390625 41.078125 11.03125 
Q 45.3125 15.671875 45.3125 23.6875 
L 45.3125 54.6875 
L 54.296875 54.6875 
L 54.296875 0 
L 45.3125 0 
L 45.3125 8.40625 
Q 42.046875 3.421875 37.71875 1 
Q 33.40625 -1.421875 27.6875 -1.421875 
Q 18.265625 -1.421875 13.375 4.4375 
Q 8.5 10.296875 8.5 21.578125 
z
M 31.109375 56 
z
" id="DejaVuSans-117"/>
       <path d="M 18.3125 70.21875 
L 18.3125 54.6875 
L 36.8125 54.6875 
L 36.8125 47.703125 
L 18.3125 47.703125 
L 18.3125 18.015625 
Q 18.3125 11.328125 20.140625 9.421875 
Q 21.96875 7.515625 27.59375 7.515625 
L 36.8125 7.515625 
L 36.8125 0 
L 27.59375 0 
Q 17.1875 0 13.234375 3.875 
Q 9.28125 7.765625 9.28125 18.015625 
L 9.28125 47.703125 
L 2.6875 47.703125 
L 2.6875 54.6875 
L 9.28125 54.6875 
L 9.28125 70.21875 
z
" id="DejaVuSans-116"/>
       <path d="M 30.609375 48.390625 
Q 23.390625 48.390625 19.1875 42.75 
Q 14.984375 37.109375 14.984375 27.296875 
Q 14.984375 17.484375 19.15625 11.84375 
Q 23.34375 6.203125 30.609375 6.203125 
Q 37.796875 6.203125 41.984375 11.859375 
Q 46.1875 17.53125 46.1875 27.296875 
Q 46.1875 37.015625 41.984375 42.703125 
Q 37.796875 48.390625 30.609375 48.390625 
z
M 30.609375 56 
Q 42.328125 56 49.015625 48.375 
Q 55.71875 40.765625 55.71875 27.296875 
Q 55.71875 13.875 49.015625 6.21875 
Q 42.328125 -1.421875 30.609375 -1.421875 
Q 18.84375 -1.421875 12.171875 6.21875 
Q 5.515625 13.875 5.515625 27.296875 
Q 5.515625 40.765625 12.171875 48.375 
Q 18.84375 56 30.609375 56 
z
" id="DejaVuSans-111"/>
       <path d="M 37.109375 75.984375 
L 37.109375 68.5 
L 28.515625 68.5 
Q 23.6875 68.5 21.796875 66.546875 
Q 19.921875 64.59375 19.921875 59.515625 
L 19.921875 54.6875 
L 34.71875 54.6875 
L 34.71875 47.703125 
L 19.921875 47.703125 
L 19.921875 0 
L 10.890625 0 
L 10.890625 47.703125 
L 2.296875 47.703125 
L 2.296875 54.6875 
L 10.890625 54.6875 
L 10.890625 58.5 
Q 10.890625 67.625 15.140625 71.796875 
Q 19.390625 75.984375 28.609375 75.984375 
z
" id="DejaVuSans-102"/>
      </defs>
      <use xlink:href="#DejaVuSans-99"/>
      <use x="54.980469" xlink:href="#DejaVuSans-117"/>
      <use x="118.359375" xlink:href="#DejaVuSans-116"/>
      <use x="157.568359" xlink:href="#DejaVuSans-111"/>
      <use x="218.75" xlink:href="#DejaVuSans-102"/>
      <use x="253.955078" xlink:href="#DejaVuSans-102"/>
     </g>
    </g>
   </g>
   <g id="matplotlib.axis_2">
    <g id="ytick_1">
     <g id="line2d_7">
      <defs>
       <path d="M 0 0 
L -3.5 0 
" id="m012d011c31" style="stroke:#000000;stroke-width:0.8;"/>
      </defs>
      <g>
       <use style="stroke:#000000;stroke-width:0.8;" x="50.14375" xlink:href="#m012d011c31" y="261.353127"/>
      </g>
     </g>
     <g id="text_8">
      <!-- 0.45 -->
      <g transform="translate(20.878125 265.152346)scale(0.1 -0.1)">
       <defs>
        <path d="M 10.796875 72.90625 
L 49.515625 72.90625 
L 49.515625 64.59375 
L 19.828125 64.59375 
L 19.828125 46.734375 
Q 21.96875 47.46875 24.109375 47.828125 
Q 26.265625 48.1875 28.421875 48.1875 
Q 40.625 48.1875 47.75 41.5 
Q 54.890625 34.8125 54.890625 23.390625 
Q 54.890625 11.625 47.5625 5.09375 
Q 40.234375 -1.421875 26.90625 -1.421875 
Q 22.3125 -1.421875 17.546875 -0.640625 
Q 12.796875 0.140625 7.71875 1.703125 
L 7.71875 11.625 
Q 12.109375 9.234375 16.796875 8.0625 
Q 21.484375 6.890625 26.703125 6.890625 
Q 35.15625 6.890625 40.078125 11.328125 
Q 45.015625 15.765625 45.015625 23.390625 
Q 45.015625 31 40.078125 35.4375 
Q 35.15625 39.890625 26.703125 39.890625 
Q 22.75 39.890625 18.8125 39.015625 
Q 14.890625 38.140625 10.796875 36.28125 
z
" id="DejaVuSans-53"/>
       </defs>
       <use xlink:href="#DejaVuSans-48"/>
       <use x="63.623047" xlink:href="#DejaVuSans-46"/>
       <use x="95.410156" xlink:href="#DejaVuSans-52"/>
       <use x="159.033203" xlink:href="#DejaVuSans-53"/>
      </g>
     </g>
    </g>
    <g id="ytick_2">
     <g id="line2d_8">
      <g>
       <use style="stroke:#000000;stroke-width:0.8;" x="50.14375" xlink:href="#m012d011c31" y="230.058888"/>
      </g>
     </g>
     <g id="text_9">
      <!-- 0.50 -->
      <g transform="translate(20.878125 233.858107)scale(0.1 -0.1)">
       <use xlink:href="#DejaVuSans-48"/>
       <use x="63.623047" xlink:href="#DejaVuSans-46"/>
       <use x="95.410156" xlink:href="#DejaVuSans-53"/>
       <use x="159.033203" xlink:href="#DejaVuSans-48"/>
      </g>
     </g>
    </g>
    <g id="ytick_3">
     <g id="line2d_9">
      <g>
       <use style="stroke:#000000;stroke-width:0.8;" x="50.14375" xlink:href="#m012d011c31" y="198.76465"/>
      </g>
     </g>
     <g id="text_10">
      <!-- 0.55 -->
      <g transform="translate(20.878125 202.563869)scale(0.1 -0.1)">
       <use xlink:href="#DejaVuSans-48"/>
       <use x="63.623047" xlink:href="#DejaVuSans-46"/>
       <use x="95.410156" xlink:href="#DejaVuSans-53"/>
       <use x="159.033203" xlink:href="#DejaVuSans-53"/>
      </g>
     </g>
    </g>
    <g id="ytick_4">
     <g id="line2d_10">
      <g>
       <use style="stroke:#000000;stroke-width:0.8;" x="50.14375" xlink:href="#m012d011c31" y="167.470411"/>
      </g>
     </g>
     <g id="text_11">
      <!-- 0.60 -->
      <g transform="translate(20.878125 171.26963)scale(0.1 -0.1)">
       <use xlink:href="#DejaVuSans-48"/>
       <use x="63.623047" xlink:href="#DejaVuSans-46"/>
       <use x="95.410156" xlink:href="#DejaVuSans-54"/>
       <use x="159.033203" xlink:href="#DejaVuSans-48"/>
      </g>
     </g>
    </g>
    <g id="ytick_5">
     <g id="line2d_11">
      <g>
       <use style="stroke:#000000;stroke-width:0.8;" x="50.14375" xlink:href="#m012d011c31" y="136.176173"/>
      </g>
     </g>
     <g id="text_12">
      <!-- 0.65 -->
      <g transform="translate(20.878125 139.975392)scale(0.1 -0.1)">
       <use xlink:href="#DejaVuSans-48"/>
       <use x="63.623047" xlink:href="#DejaVuSans-46"/>
       <use x="95.410156" xlink:href="#DejaVuSans-54"/>
       <use x="159.033203" xlink:href="#DejaVuSans-53"/>
      </g>
     </g>
    </g>
    <g id="ytick_6">
     <g id="line2d_12">
      <g>
       <use style="stroke:#000000;stroke-width:0.8;" x="50.14375" xlink:href="#m012d011c31" y="104.881934"/>
      </g>
     </g>
     <g id="text_13">
      <!-- 0.70 -->
      <g transform="translate(20.878125 108.681153)scale(0.1 -0.1)">
       <defs>
        <path d="M 8.203125 72.90625 
L 55.078125 72.90625 
L 55.078125 68.703125 
L 28.609375 0 
L 18.3125 0 
L 43.21875 64.59375 
L 8.203125 64.59375 
z
" id="DejaVuSans-55"/>
       </defs>
       <use xlink:href="#DejaVuSans-48"/>
       <use x="63.623047" xlink:href="#DejaVuSans-46"/>
       <use x="95.410156" xlink:href="#DejaVuSans-55"/>
       <use x="159.033203" xlink:href="#DejaVuSans-48"/>
      </g>
     </g>
    </g>
    <g id="ytick_7">
     <g id="line2d_13">
      <g>
       <use style="stroke:#000000;stroke-width:0.8;" x="50.14375" xlink:href="#m012d011c31" y="73.587696"/>
      </g>
     </g>
     <g id="text_14">
      <!-- 0.75 -->
      <g transform="translate(20.878125 77.386915)scale(0.1 -0.1)">
       <use xlink:href="#DejaVuSans-48"/>
       <use x="63.623047" xlink:href="#DejaVuSans-46"/>
       <use x="95.410156" xlink:href="#DejaVuSans-55"/>
       <use x="159.033203" xlink:href="#DejaVuSans-53"/>
      </g>
     </g>
    </g>
    <g id="ytick_8">
     <g id="line2d_14">
      <g>
       <use style="stroke:#000000;stroke-width:0.8;" x="50.14375" xlink:href="#m012d011c31" y="42.293457"/>
      </g>
     </g>
     <g id="text_15">
      <!-- 0.80 -->
      <g transform="translate(20.878125 46.092676)scale(0.1 -0.1)">
       <use xlink:href="#DejaVuSans-48"/>
       <use x="63.623047" xlink:href="#DejaVuSans-46"/>
       <use x="95.410156" xlink:href="#DejaVuSans-56"/>
       <use x="159.033203" xlink:href="#DejaVuSans-48"/>
      </g>
     </g>
    </g>
    <g id="ytick_9">
     <g id="line2d_15">
      <g>
       <use style="stroke:#000000;stroke-width:0.8;" x="50.14375" xlink:href="#m012d011c31" y="10.999219"/>
      </g>
     </g>
     <g id="text_16">
      <!-- 0.85 -->
      <g transform="translate(20.878125 14.798437)scale(0.1 -0.1)">
       <use xlink:href="#DejaVuSans-48"/>
       <use x="63.623047" xlink:href="#DejaVuSans-46"/>
       <use x="95.410156" xlink:href="#DejaVuSans-56"/>
       <use x="159.033203" xlink:href="#DejaVuSans-53"/>
      </g>
     </g>
    </g>
    <g id="text_17">
     <!-- performance -->
     <g transform="translate(14.798438 174.413288)rotate(-90)scale(0.1 -0.1)">
      <defs>
       <path d="M 18.109375 8.203125 
L 18.109375 -20.796875 
L 9.078125 -20.796875 
L 9.078125 54.6875 
L 18.109375 54.6875 
L 18.109375 46.390625 
Q 20.953125 51.265625 25.265625 53.625 
Q 29.59375 56 35.59375 56 
Q 45.5625 56 51.78125 48.09375 
Q 58.015625 40.1875 58.015625 27.296875 
Q 58.015625 14.40625 51.78125 6.484375 
Q 45.5625 -1.421875 35.59375 -1.421875 
Q 29.59375 -1.421875 25.265625 0.953125 
Q 20.953125 3.328125 18.109375 8.203125 
z
M 48.6875 27.296875 
Q 48.6875 37.203125 44.609375 42.84375 
Q 40.53125 48.484375 33.40625 48.484375 
Q 26.265625 48.484375 22.1875 42.84375 
Q 18.109375 37.203125 18.109375 27.296875 
Q 18.109375 17.390625 22.1875 11.75 
Q 26.265625 6.109375 33.40625 6.109375 
Q 40.53125 6.109375 44.609375 11.75 
Q 48.6875 17.390625 48.6875 27.296875 
z
" id="DejaVuSans-112"/>
       <path d="M 56.203125 29.59375 
L 56.203125 25.203125 
L 14.890625 25.203125 
Q 15.484375 15.921875 20.484375 11.0625 
Q 25.484375 6.203125 34.421875 6.203125 
Q 39.59375 6.203125 44.453125 7.46875 
Q 49.3125 8.734375 54.109375 11.28125 
L 54.109375 2.78125 
Q 49.265625 0.734375 44.1875 -0.34375 
Q 39.109375 -1.421875 33.890625 -1.421875 
Q 20.796875 -1.421875 13.15625 6.1875 
Q 5.515625 13.8125 5.515625 26.8125 
Q 5.515625 40.234375 12.765625 48.109375 
Q 20.015625 56 32.328125 56 
Q 43.359375 56 49.78125 48.890625 
Q 56.203125 41.796875 56.203125 29.59375 
z
M 47.21875 32.234375 
Q 47.125 39.59375 43.09375 43.984375 
Q 39.0625 48.390625 32.421875 48.390625 
Q 24.90625 48.390625 20.390625 44.140625 
Q 15.875 39.890625 15.1875 32.171875 
z
" id="DejaVuSans-101"/>
       <path d="M 41.109375 46.296875 
Q 39.59375 47.171875 37.8125 47.578125 
Q 36.03125 48 33.890625 48 
Q 26.265625 48 22.1875 43.046875 
Q 18.109375 38.09375 18.109375 28.8125 
L 18.109375 0 
L 9.078125 0 
L 9.078125 54.6875 
L 18.109375 54.6875 
L 18.109375 46.1875 
Q 20.953125 51.171875 25.484375 53.578125 
Q 30.03125 56 36.53125 56 
Q 37.453125 56 38.578125 55.875 
Q 39.703125 55.765625 41.0625 55.515625 
z
" id="DejaVuSans-114"/>
       <path d="M 52 44.1875 
Q 55.375 50.25 60.0625 53.125 
Q 64.75 56 71.09375 56 
Q 79.640625 56 84.28125 50.015625 
Q 88.921875 44.046875 88.921875 33.015625 
L 88.921875 0 
L 79.890625 0 
L 79.890625 32.71875 
Q 79.890625 40.578125 77.09375 44.375 
Q 74.3125 48.1875 68.609375 48.1875 
Q 61.625 48.1875 57.5625 43.546875 
Q 53.515625 38.921875 53.515625 30.90625 
L 53.515625 0 
L 44.484375 0 
L 44.484375 32.71875 
Q 44.484375 40.625 41.703125 44.40625 
Q 38.921875 48.1875 33.109375 48.1875 
Q 26.21875 48.1875 22.15625 43.53125 
Q 18.109375 38.875 18.109375 30.90625 
L 18.109375 0 
L 9.078125 0 
L 9.078125 54.6875 
L 18.109375 54.6875 
L 18.109375 46.1875 
Q 21.1875 51.21875 25.484375 53.609375 
Q 29.78125 56 35.6875 56 
Q 41.65625 56 45.828125 52.96875 
Q 50 49.953125 52 44.1875 
z
" id="DejaVuSans-109"/>
       <path d="M 34.28125 27.484375 
Q 23.390625 27.484375 19.1875 25 
Q 14.984375 22.515625 14.984375 16.5 
Q 14.984375 11.71875 18.140625 8.90625 
Q 21.296875 6.109375 26.703125 6.109375 
Q 34.1875 6.109375 38.703125 11.40625 
Q 43.21875 16.703125 43.21875 25.484375 
L 43.21875 27.484375 
z
M 52.203125 31.203125 
L 52.203125 0 
L 43.21875 0 
L 43.21875 8.296875 
Q 40.140625 3.328125 35.546875 0.953125 
Q 30.953125 -1.421875 24.3125 -1.421875 
Q 15.921875 -1.421875 10.953125 3.296875 
Q 6 8.015625 6 15.921875 
Q 6 25.140625 12.171875 29.828125 
Q 18.359375 34.515625 30.609375 34.515625 
L 43.21875 34.515625 
L 43.21875 35.40625 
Q 43.21875 41.609375 39.140625 45 
Q 35.0625 48.390625 27.6875 48.390625 
Q 23 48.390625 18.546875 47.265625 
Q 14.109375 46.140625 10.015625 43.890625 
L 10.015625 52.203125 
Q 14.9375 54.109375 19.578125 55.046875 
Q 24.21875 56 28.609375 56 
Q 40.484375 56 46.34375 49.84375 
Q 52.203125 43.703125 52.203125 31.203125 
z
" id="DejaVuSans-97"/>
       <path d="M 54.890625 33.015625 
L 54.890625 0 
L 45.90625 0 
L 45.90625 32.71875 
Q 45.90625 40.484375 42.875 44.328125 
Q 39.84375 48.1875 33.796875 48.1875 
Q 26.515625 48.1875 22.3125 43.546875 
Q 18.109375 38.921875 18.109375 30.90625 
L 18.109375 0 
L 9.078125 0 
L 9.078125 54.6875 
L 18.109375 54.6875 
L 18.109375 46.1875 
Q 21.34375 51.125 25.703125 53.5625 
Q 30.078125 56 35.796875 56 
Q 45.21875 56 50.046875 50.171875 
Q 54.890625 44.34375 54.890625 33.015625 
z
" id="DejaVuSans-110"/>
      </defs>
      <use xlink:href="#DejaVuSans-112"/>
      <use x="63.476562" xlink:href="#DejaVuSans-101"/>
      <use x="125" xlink:href="#DejaVuSans-114"/>
      <use x="166.113281" xlink:href="#DejaVuSans-102"/>
      <use x="201.318359" xlink:href="#DejaVuSans-111"/>
      <use x="262.5" xlink:href="#DejaVuSans-114"/>
      <use x="301.863281" xlink:href="#DejaVuSans-109"/>
      <use x="399.275391" xlink:href="#DejaVuSans-97"/>
      <use x="460.554688" xlink:href="#DejaVuSans-110"/>
      <use x="523.933594" xlink:href="#DejaVuSans-99"/>
      <use x="578.914062" xlink:href="#DejaVuSans-101"/>
     </g>
    </g>
   </g>
   <g id="line2d_16">
    <path clip-path="url(#pc30384eb55)" d="M 66.376477 21.430632 
L 73.140114 34.469898 
L 79.90375 34.469898 
L 86.667386 34.469898 
L 93.431023 21.430632 
L 100.194659 34.469898 
L 106.958295 47.509164 
L 113.721932 47.509164 
L 120.485568 47.509164 
L 127.249205 47.509164 
L 134.012841 125.74476 
L 140.776477 138.784026 
L 147.540114 164.862558 
L 154.30375 138.784026 
L 161.067386 177.901824 
L 167.831023 177.901824 
L 174.594659 177.901824 
L 181.358295 177.901824 
L 188.121932 164.862558 
L 194.885568 177.901824 
L 201.649205 217.019622 
L 208.412841 217.019622 
L 215.176477 217.019622 
L 221.940114 217.019622 
L 228.70375 203.980356 
L 235.467386 177.901824 
L 242.231023 177.901824 
L 248.994659 177.901824 
L 255.758295 177.901824 
L 262.521932 177.901824 
L 269.285568 177.901824 
L 276.049205 177.901824 
L 282.812841 177.901824 
L 289.576477 177.901824 
L 296.340114 177.901824 
L 303.10375 177.901824 
L 309.867386 177.901824 
L 316.631023 177.901824 
L 323.394659 177.901824 
L 330.158295 177.901824 
L 336.921932 177.901824 
L 343.685568 177.901824 
L 350.449205 177.901824 
L 357.212841 177.901824 
L 363.976477 177.901824 
L 370.740114 177.901824 
L 377.50375 177.901824 
L 384.267386 177.901824 
L 391.031023 177.901824 
" style="fill:none;stroke:#f26b38;stroke-dasharray:7.4,3.2;stroke-dashoffset:0;stroke-width:2;"/>
   </g>
   <g id="line2d_17">
    <path clip-path="url(#pc30384eb55)" d="M 66.376477 23.650081 
L 73.140114 36.966778 
L 79.90375 116.866962 
L 86.667386 156.817054 
L 93.431023 130.183659 
L 100.194659 170.133751 
L 106.958295 170.133751 
L 113.721932 170.133751 
L 120.485568 170.133751 
L 127.249205 116.866962 
L 134.012841 103.550265 
L 140.776477 236.717237 
L 147.540114 236.717237 
L 154.30375 236.717237 
L 161.067386 236.717237 
L 167.831023 263.350632 
L 174.594659 223.40054 
L 181.358295 223.40054 
L 188.121932 223.40054 
L 194.885568 223.40054 
L 201.649205 223.40054 
L 208.412841 223.40054 
L 215.176477 223.40054 
L 221.940114 223.40054 
L 228.70375 223.40054 
L 235.467386 223.40054 
L 242.231023 223.40054 
L 248.994659 223.40054 
L 255.758295 223.40054 
L 262.521932 223.40054 
L 269.285568 223.40054 
L 276.049205 223.40054 
L 282.812841 223.40054 
L 289.576477 223.40054 
L 296.340114 223.40054 
L 303.10375 223.40054 
L 309.867386 223.40054 
L 316.631023 223.40054 
L 323.394659 223.40054 
L 330.158295 223.40054 
L 336.921932 223.40054 
L 343.685568 223.40054 
L 350.449205 223.40054 
L 357.212841 223.40054 
L 363.976477 223.40054 
L 370.740114 223.40054 
L 377.50375 223.40054 
L 384.267386 223.40054 
L 391.031023 223.40054 
" style="fill:none;stroke:#2f9599;stroke-dasharray:2,3.3;stroke-dashoffset:0;stroke-width:2;"/>
   </g>
   <g id="line2d_18">
    <path clip-path="url(#pc30384eb55)" d="M 66.376477 57.621248 
L 73.140114 57.621248 
L 79.90375 57.621248 
L 86.667386 57.621248 
L 93.431023 57.621248 
L 100.194659 57.621248 
L 106.958295 57.621248 
L 113.721932 70.394406 
L 120.485568 57.621248 
L 127.249205 44.848089 
L 134.012841 44.848089 
L 140.776477 57.621248 
L 147.540114 57.621248 
L 154.30375 57.621248 
L 161.067386 44.848089 
L 167.831023 57.621248 
L 174.594659 57.621248 
L 181.358295 70.394406 
L 188.121932 70.394406 
L 194.885568 57.621248 
L 201.649205 57.621248 
L 208.412841 57.621248 
L 215.176477 44.848089 
L 221.940114 95.940723 
L 228.70375 44.848089 
L 235.467386 44.848089 
L 242.231023 44.848089 
L 248.994659 121.487041 
L 255.758295 44.848089 
L 262.521932 83.167565 
L 269.285568 70.394406 
L 276.049205 70.394406 
L 282.812841 70.394406 
L 289.576477 172.579675 
L 296.340114 172.579675 
L 303.10375 172.579675 
L 309.867386 172.579675 
L 316.631023 172.579675 
L 323.394659 172.579675 
L 330.158295 172.579675 
L 336.921932 172.579675 
L 343.685568 172.579675 
L 350.449205 172.579675 
L 357.212841 172.579675 
L 363.976477 172.579675 
L 370.740114 172.579675 
L 377.50375 172.579675 
L 384.267386 172.579675 
L 391.031023 172.579675 
" style="fill:none;stroke:#a7226e;stroke-dasharray:12.8,3.2,2,3.2;stroke-dashoffset:0;stroke-width:2;"/>
   </g>
   <g id="patch_3">
    <path d="M 50.14375 275.446632 
L 50.14375 9.334632 
" style="fill:none;stroke:#000000;stroke-linecap:square;stroke-linejoin:miter;stroke-width:0.8;"/>
   </g>
   <g id="patch_4">
    <path d="M 407.26375 275.446632 
L 407.26375 9.334632 
" style="fill:none;stroke:#000000;stroke-linecap:square;stroke-linejoin:miter;stroke-width:0.8;"/>
   </g>
   <g id="patch_5">
    <path d="M 50.14375 275.446632 
L 407.26375 275.446632 
" style="fill:none;stroke:#000000;stroke-linecap:square;stroke-linejoin:miter;stroke-width:0.8;"/>
   </g>
   <g id="patch_6">
    <path d="M 50.14375 9.334632 
L 407.26375 9.334632 
" style="fill:none;stroke:#000000;stroke-linecap:square;stroke-linejoin:miter;stroke-width:0.8;"/>
   </g>
   <g id="legend_1">
    <g id="patch_7">
     <path d="M 321.790059 46.025544 
L 402.40575 46.025544 
Q 403.79375 46.025544 403.79375 44.637544 
L 403.79375 14.192632 
Q 403.79375 12.804632 402.40575 12.804632 
L 321.790059 12.804632 
Q 320.402059 12.804632 320.402059 14.192632 
L 320.402059 44.637544 
Q 320.402059 46.025544 321.790059 46.025544 
z
" style="fill:#ffffff;opacity:0.8;stroke:#cccccc;stroke-linejoin:miter;"/>
    </g>
    <g id="PathCollection_5">
     <defs>
      <path d="M 0 3 
C 0.795609 3 1.55874 2.683901 2.12132 2.12132 
C 2.683901 1.55874 3 0.795609 3 0 
C 3 -0.795609 2.683901 -1.55874 2.12132 -2.12132 
C 1.55874 -2.683901 0.795609 -3 0 -3 
C -0.795609 -3 -1.55874 -2.683901 -2.12132 -2.12132 
C -2.683901 -1.55874 -3 -0.795609 -3 0 
C -3 0.795609 -2.683901 1.55874 -2.12132 2.12132 
C -1.55874 2.683901 -0.795609 3 0 3 
z
" id="mb160f92775" style="stroke:#f26b38;"/>
     </defs>
     <g>
      <use style="fill:#f26b38;stroke:#f26b38;" x="330.118059" xlink:href="#mb160f92775" y="19.032197"/>
     </g>
    </g>
    <g id="text_18">
     <!-- mean_err -->
     <g transform="translate(342.610059 20.853947)scale(0.0694 -0.0694)">
      <defs>
       <path d="M 50.984375 -16.609375 
L 50.984375 -23.578125 
L -0.984375 -23.578125 
L -0.984375 -16.609375 
z
" id="DejaVuSans-95"/>
      </defs>
      <use xlink:href="#DejaVuSans-109"/>
      <use x="97.412109" xlink:href="#DejaVuSans-101"/>
      <use x="158.935547" xlink:href="#DejaVuSans-97"/>
      <use x="220.214844" xlink:href="#DejaVuSans-110"/>
      <use x="283.59375" xlink:href="#DejaVuSans-95"/>
      <use x="333.59375" xlink:href="#DejaVuSans-101"/>
      <use x="395.117188" xlink:href="#DejaVuSans-114"/>
      <use x="434.480469" xlink:href="#DejaVuSans-114"/>
     </g>
    </g>
    <g id="PathCollection_6">
     <defs>
      <path d="M -1.5 3 
L 0 1.5 
L 1.5 3 
L 3 1.5 
L 1.5 0 
L 3 -1.5 
L 1.5 -3 
L 0 -1.5 
L -1.5 -3 
L -3 -1.5 
L -1.5 0 
L -3 1.5 
z
" id="m3cd3e463d9" style="stroke:#2f9599;"/>
     </defs>
     <g>
      <use style="fill:#2f9599;stroke:#2f9599;" x="330.118059" xlink:href="#m3cd3e463d9" y="29.411835"/>
     </g>
    </g>
    <g id="text_19">
     <!-- mean_sq_err -->
     <g transform="translate(342.610059 31.233585)scale(0.0694 -0.0694)">
      <defs>
       <path d="M 44.28125 53.078125 
L 44.28125 44.578125 
Q 40.484375 46.53125 36.375 47.5 
Q 32.28125 48.484375 27.875 48.484375 
Q 21.1875 48.484375 17.84375 46.4375 
Q 14.5 44.390625 14.5 40.28125 
Q 14.5 37.15625 16.890625 35.375 
Q 19.28125 33.59375 26.515625 31.984375 
L 29.59375 31.296875 
Q 39.15625 29.25 43.1875 25.515625 
Q 47.21875 21.78125 47.21875 15.09375 
Q 47.21875 7.46875 41.1875 3.015625 
Q 35.15625 -1.421875 24.609375 -1.421875 
Q 20.21875 -1.421875 15.453125 -0.5625 
Q 10.6875 0.296875 5.421875 2 
L 5.421875 11.28125 
Q 10.40625 8.6875 15.234375 7.390625 
Q 20.0625 6.109375 24.8125 6.109375 
Q 31.15625 6.109375 34.5625 8.28125 
Q 37.984375 10.453125 37.984375 14.40625 
Q 37.984375 18.0625 35.515625 20.015625 
Q 33.0625 21.96875 24.703125 23.78125 
L 21.578125 24.515625 
Q 13.234375 26.265625 9.515625 29.90625 
Q 5.8125 33.546875 5.8125 39.890625 
Q 5.8125 47.609375 11.28125 51.796875 
Q 16.75 56 26.8125 56 
Q 31.78125 56 36.171875 55.265625 
Q 40.578125 54.546875 44.28125 53.078125 
z
" id="DejaVuSans-115"/>
       <path d="M 14.796875 27.296875 
Q 14.796875 17.390625 18.875 11.75 
Q 22.953125 6.109375 30.078125 6.109375 
Q 37.203125 6.109375 41.296875 11.75 
Q 45.40625 17.390625 45.40625 27.296875 
Q 45.40625 37.203125 41.296875 42.84375 
Q 37.203125 48.484375 30.078125 48.484375 
Q 22.953125 48.484375 18.875 42.84375 
Q 14.796875 37.203125 14.796875 27.296875 
z
M 45.40625 8.203125 
Q 42.578125 3.328125 38.25 0.953125 
Q 33.9375 -1.421875 27.875 -1.421875 
Q 17.96875 -1.421875 11.734375 6.484375 
Q 5.515625 14.40625 5.515625 27.296875 
Q 5.515625 40.1875 11.734375 48.09375 
Q 17.96875 56 27.875 56 
Q 33.9375 56 38.25 53.625 
Q 42.578125 51.265625 45.40625 46.390625 
L 45.40625 54.6875 
L 54.390625 54.6875 
L 54.390625 -20.796875 
L 45.40625 -20.796875 
z
" id="DejaVuSans-113"/>
      </defs>
      <use xlink:href="#DejaVuSans-109"/>
      <use x="97.412109" xlink:href="#DejaVuSans-101"/>
      <use x="158.935547" xlink:href="#DejaVuSans-97"/>
      <use x="220.214844" xlink:href="#DejaVuSans-110"/>
      <use x="283.59375" xlink:href="#DejaVuSans-95"/>
      <use x="333.59375" xlink:href="#DejaVuSans-115"/>
      <use x="385.693359" xlink:href="#DejaVuSans-113"/>
      <use x="449.169922" xlink:href="#DejaVuSans-95"/>
      <use x="499.169922" xlink:href="#DejaVuSans-101"/>
      <use x="560.693359" xlink:href="#DejaVuSans-114"/>
      <use x="600.056641" xlink:href="#DejaVuSans-114"/>
     </g>
    </g>
    <g id="PathCollection_7">
     <defs>
      <path d="M -2.12132 -2.12132 
L -2.12132 2.12132 
L 2.12132 2.12132 
L 2.12132 -2.12132 
z
" id="m2bebaec801" style="stroke:#a7226e;"/>
     </defs>
     <g>
      <use style="fill:#a7226e;stroke:#a7226e;" x="330.118059" xlink:href="#m2bebaec801" y="39.791472"/>
     </g>
    </g>
    <g id="text_20">
     <!-- mean_sqroot_err -->
     <g transform="translate(342.610059 41.613222)scale(0.0694 -0.0694)">
      <use xlink:href="#DejaVuSans-109"/>
      <use x="97.412109" xlink:href="#DejaVuSans-101"/>
      <use x="158.935547" xlink:href="#DejaVuSans-97"/>
      <use x="220.214844" xlink:href="#DejaVuSans-110"/>
      <use x="283.59375" xlink:href="#DejaVuSans-95"/>
      <use x="333.59375" xlink:href="#DejaVuSans-115"/>
      <use x="385.693359" xlink:href="#DejaVuSans-113"/>
      <use x="449.169922" xlink:href="#DejaVuSans-114"/>
      <use x="488.033203" xlink:href="#DejaVuSans-111"/>
      <use x="549.214844" xlink:href="#DejaVuSans-111"/>
      <use x="610.396484" xlink:href="#DejaVuSans-116"/>
      <use x="649.605469" xlink:href="#DejaVuSans-95"/>
      <use x="699.605469" xlink:href="#DejaVuSans-101"/>
      <use x="761.128906" xlink:href="#DejaVuSans-114"/>
      <use x="800.492188" xlink:href="#DejaVuSans-114"/>
     </g>
    </g>
   </g>
  </g>
 </g>
 <defs>
  <clipPath id="pc30384eb55">
   <rect height="266.112" width="357.12" x="50.14375" y="9.334632"/>
  </clipPath>
 </defs>
</svg>
