<?xml version="1.0" encoding="utf-8" standalone="no"?>
<!DOCTYPE svg PUBLIC "-//W3C//DTD SVG 1.1//EN"
  "http://www.w3.org/Graphics/SVG/1.1/DTD/svg11.dtd">
<!-- Created with matplotlib (https://matplotlib.org/) -->
<svg height="310.86825pt" version="1.1" viewBox="0 0 414.46375 310.86825" width="414.46375pt" xmlns="http://www.w3.org/2000/svg" xmlns:xlink="http://www.w3.org/1999/xlink">
 <metadata>
  <rdf:RDF xmlns:cc="http://creativecommons.org/ns#" xmlns:dc="http://purl.org/dc/elements/1.1/" xmlns:rdf="http://www.w3.org/1999/02/22-rdf-syntax-ns#">
   <cc:Work>
    <dc:type rdf:resource="http://purl.org/dc/dcmitype/StillImage"/>
    <dc:date>2022-05-27T22:18:57.079500</dc:date>
    <dc:format>image/svg+xml</dc:format>
    <dc:creator>
     <cc:Agent>
      <dc:title>Matplotlib v3.3.4, https://matplotlib.org/</dc:title>
     </cc:Agent>
    </dc:creator>
   </cc:Work>
  </rdf:RDF>
 </metadata>
 <defs>
  <style type="text/css">*{stroke-linecap:butt;stroke-linejoin:round;}</style>
 </defs>
 <g id="figure_1">
  <g id="patch_1">
   <path d="M 0 310.86825 
L 414.46375 310.86825 
L 414.46375 0 
L 0 0 
z
" style="fill:#ffffff;"/>
  </g>
  <g id="axes_1">
   <g id="patch_2">
    <path d="M 50.14375 273.312 
L 407.26375 273.312 
L 407.26375 7.2 
L 50.14375 7.2 
z
" style="fill:#ffffff;"/>
   </g>
   <g id="PathCollection_1">
    <path clip-path="url(#pd167b990e1)" d="M 66.376477 80.256 
C 67.172087 80.256 67.935217 79.939901 68.497798 79.37732 
C 69.060378 78.81474 69.376477 78.051609 69.376477 77.256 
C 69.376477 76.460391 69.060378 75.69726 68.497798 75.13468 
C 67.935217 74.572099 67.172087 74.256 66.376477 74.256 
C 65.580868 74.256 64.817738 74.572099 64.255157 75.13468 
C 63.692576 75.69726 63.376477 76.460391 63.376477 77.256 
C 63.376477 78.051609 63.692576 78.81474 64.255157 79.37732 
C 64.817738 79.939901 65.580868 80.256 66.376477 80.256 
z
" style="fill:#f26b38;stroke:#ffffff;stroke-width:0.48;"/>
    <path clip-path="url(#pd167b990e1)" d="M 73.140114 107.696 
C 73.935723 107.696 74.698853 107.379901 75.261434 106.81732 
C 75.824015 106.25474 76.140114 105.491609 76.140114 104.696 
C 76.140114 103.900391 75.824015 103.13726 75.261434 102.57468 
C 74.698853 102.012099 73.935723 101.696 73.140114 101.696 
C 72.344504 101.696 71.581374 102.012099 71.018793 102.57468 
C 70.456213 103.13726 70.140114 103.900391 70.140114 104.696 
C 70.140114 105.491609 70.456213 106.25474 71.018793 106.81732 
C 71.581374 107.379901 72.344504 107.696 73.140114 107.696 
z
" style="fill:#f26b38;stroke:#ffffff;stroke-width:0.48;"/>
    <path clip-path="url(#pd167b990e1)" d="M 79.90375 107.696 
C 80.699359 107.696 81.46249 107.379901 82.02507 106.81732 
C 82.587651 106.25474 82.90375 105.491609 82.90375 104.696 
C 82.90375 103.900391 82.587651 103.13726 82.02507 102.57468 
C 81.46249 102.012099 80.699359 101.696 79.90375 101.696 
C 79.108141 101.696 78.34501 102.012099 77.78243 102.57468 
C 77.219849 103.13726 76.90375 103.900391 76.90375 104.696 
C 76.90375 105.491609 77.219849 106.25474 77.78243 106.81732 
C 78.34501 107.379901 79.108141 107.696 79.90375 107.696 
z
" style="fill:#f26b38;stroke:#ffffff;stroke-width:0.48;"/>
    <path clip-path="url(#pd167b990e1)" d="M 86.667386 107.696 
C 87.462996 107.696 88.226126 107.379901 88.788707 106.81732 
C 89.351287 106.25474 89.667386 105.491609 89.667386 104.696 
C 89.667386 103.900391 89.351287 103.13726 88.788707 102.57468 
C 88.226126 102.012099 87.462996 101.696 86.667386 101.696 
C 85.871777 101.696 85.108647 102.012099 84.546066 102.57468 
C 83.983485 103.13726 83.667386 103.900391 83.667386 104.696 
C 83.667386 105.491609 83.983485 106.25474 84.546066 106.81732 
C 85.108647 107.379901 85.871777 107.696 86.667386 107.696 
z
" style="fill:#f26b38;stroke:#ffffff;stroke-width:0.48;"/>
    <path clip-path="url(#pd167b990e1)" d="M 93.431023 107.696 
C 94.226632 107.696 94.989762 107.379901 95.552343 106.81732 
C 96.114924 106.25474 96.431023 105.491609 96.431023 104.696 
C 96.431023 103.900391 96.114924 103.13726 95.552343 102.57468 
C 94.989762 102.012099 94.226632 101.696 93.431023 101.696 
C 92.635413 101.696 91.872283 102.012099 91.309702 102.57468 
C 90.747122 103.13726 90.431023 103.900391 90.431023 104.696 
C 90.431023 105.491609 90.747122 106.25474 91.309702 106.81732 
C 91.872283 107.379901 92.635413 107.696 93.431023 107.696 
z
" style="fill:#f26b38;stroke:#ffffff;stroke-width:0.48;"/>
    <path clip-path="url(#pd167b990e1)" d="M 100.194659 135.136 
C 100.990268 135.136 101.753399 134.819901 102.315979 134.25732 
C 102.87856 133.69474 103.194659 132.931609 103.194659 132.136 
C 103.194659 131.340391 102.87856 130.57726 102.315979 130.01468 
C 101.753399 129.452099 100.990268 129.136 100.194659 129.136 
C 99.39905 129.136 98.635919 129.452099 98.073339 130.01468 
C 97.510758 130.57726 97.194659 131.340391 97.194659 132.136 
C 97.194659 132.931609 97.510758 133.69474 98.073339 134.25732 
C 98.635919 134.819901 99.39905 135.136 100.194659 135.136 
z
" style="fill:#f26b38;stroke:#ffffff;stroke-width:0.48;"/>
    <path clip-path="url(#pd167b990e1)" d="M 106.958295 39.096 
C 107.753905 39.096 108.517035 38.779901 109.079616 38.21732 
C 109.642197 37.65474 109.958295 36.891609 109.958295 36.096 
C 109.958295 35.300391 109.642197 34.53726 109.079616 33.97468 
C 108.517035 33.412099 107.753905 33.096 106.958295 33.096 
C 106.162686 33.096 105.399556 33.412099 104.836975 33.97468 
C 104.274394 34.53726 103.958295 35.300391 103.958295 36.096 
C 103.958295 36.891609 104.274394 37.65474 104.836975 38.21732 
C 105.399556 38.779901 106.162686 39.096 106.958295 39.096 
z
" style="fill:#f26b38;stroke:#ffffff;stroke-width:0.48;"/>
    <path clip-path="url(#pd167b990e1)" d="M 113.721932 39.096 
C 114.517541 39.096 115.280671 38.779901 115.843252 38.21732 
C 116.405833 37.65474 116.721932 36.891609 116.721932 36.096 
C 116.721932 35.300391 116.405833 34.53726 115.843252 33.97468 
C 115.280671 33.412099 114.517541 33.096 113.721932 33.096 
C 112.926323 33.096 112.163192 33.412099 111.600611 33.97468 
C 111.038031 34.53726 110.721932 35.300391 110.721932 36.096 
C 110.721932 36.891609 111.038031 37.65474 111.600611 38.21732 
C 112.163192 38.779901 112.926323 39.096 113.721932 39.096 
z
" style="fill:#f26b38;stroke:#ffffff;stroke-width:0.48;"/>
    <path clip-path="url(#pd167b990e1)" d="M 120.485568 39.096 
C 121.281177 39.096 122.044308 38.779901 122.606889 38.21732 
C 123.169469 37.65474 123.485568 36.891609 123.485568 36.096 
C 123.485568 35.300391 123.169469 34.53726 122.606889 33.97468 
C 122.044308 33.412099 121.281177 33.096 120.485568 33.096 
C 119.689959 33.096 118.926829 33.412099 118.364248 33.97468 
C 117.801667 34.53726 117.485568 35.300391 117.485568 36.096 
C 117.485568 36.891609 117.801667 37.65474 118.364248 38.21732 
C 118.926829 38.779901 119.689959 39.096 120.485568 39.096 
z
" style="fill:#f26b38;stroke:#ffffff;stroke-width:0.48;"/>
    <path clip-path="url(#pd167b990e1)" d="M 127.249205 66.536 
C 128.044814 66.536 128.807944 66.219901 129.370525 65.65732 
C 129.933106 65.09474 130.249205 64.331609 130.249205 63.536 
C 130.249205 62.740391 129.933106 61.97726 129.370525 61.41468 
C 128.807944 60.852099 128.044814 60.536 127.249205 60.536 
C 126.453595 60.536 125.690465 60.852099 125.127884 61.41468 
C 124.565303 61.97726 124.249205 62.740391 124.249205 63.536 
C 124.249205 64.331609 124.565303 65.09474 125.127884 65.65732 
C 125.690465 66.219901 126.453595 66.536 127.249205 66.536 
z
" style="fill:#f26b38;stroke:#ffffff;stroke-width:0.48;"/>
    <path clip-path="url(#pd167b990e1)" d="M 134.012841 80.256 
C 134.80845 80.256 135.571581 79.939901 136.134161 79.37732 
C 136.696742 78.81474 137.012841 78.051609 137.012841 77.256 
C 137.012841 76.460391 136.696742 75.69726 136.134161 75.13468 
C 135.571581 74.572099 134.80845 74.256 134.012841 74.256 
C 133.217232 74.256 132.454101 74.572099 131.891521 75.13468 
C 131.32894 75.69726 131.012841 76.460391 131.012841 77.256 
C 131.012841 78.051609 131.32894 78.81474 131.891521 79.37732 
C 132.454101 79.939901 133.217232 80.256 134.012841 80.256 
z
" style="fill:#f26b38;stroke:#ffffff;stroke-width:0.48;"/>
    <path clip-path="url(#pd167b990e1)" d="M 140.776477 121.416 
C 141.572087 121.416 142.335217 121.099901 142.897798 120.53732 
C 143.460378 119.97474 143.776477 119.211609 143.776477 118.416 
C 143.776477 117.620391 143.460378 116.85726 142.897798 116.29468 
C 142.335217 115.732099 141.572087 115.416 140.776477 115.416 
C 139.980868 115.416 139.217738 115.732099 138.655157 116.29468 
C 138.092576 116.85726 137.776477 117.620391 137.776477 118.416 
C 137.776477 119.211609 138.092576 119.97474 138.655157 120.53732 
C 139.217738 121.099901 139.980868 121.416 140.776477 121.416 
z
" style="fill:#f26b38;stroke:#ffffff;stroke-width:0.48;"/>
    <path clip-path="url(#pd167b990e1)" d="M 147.540114 162.576 
C 148.335723 162.576 149.098853 162.259901 149.661434 161.69732 
C 150.224015 161.13474 150.540114 160.371609 150.540114 159.576 
C 150.540114 158.780391 150.224015 158.01726 149.661434 157.45468 
C 149.098853 156.892099 148.335723 156.576 147.540114 156.576 
C 146.744504 156.576 145.981374 156.892099 145.418793 157.45468 
C 144.856213 158.01726 144.540114 158.780391 144.540114 159.576 
C 144.540114 160.371609 144.856213 161.13474 145.418793 161.69732 
C 145.981374 162.259901 146.744504 162.576 147.540114 162.576 
z
" style="fill:#f26b38;stroke:#ffffff;stroke-width:0.48;"/>
    <path clip-path="url(#pd167b990e1)" d="M 154.30375 162.576 
C 155.099359 162.576 155.86249 162.259901 156.42507 161.69732 
C 156.987651 161.13474 157.30375 160.371609 157.30375 159.576 
C 157.30375 158.780391 156.987651 158.01726 156.42507 157.45468 
C 155.86249 156.892099 155.099359 156.576 154.30375 156.576 
C 153.508141 156.576 152.74501 156.892099 152.18243 157.45468 
C 151.619849 158.01726 151.30375 158.780391 151.30375 159.576 
C 151.30375 160.371609 151.619849 161.13474 152.18243 161.69732 
C 152.74501 162.259901 153.508141 162.576 154.30375 162.576 
z
" style="fill:#f26b38;stroke:#ffffff;stroke-width:0.48;"/>
    <path clip-path="url(#pd167b990e1)" d="M 161.067386 80.256 
C 161.862996 80.256 162.626126 79.939901 163.188707 79.37732 
C 163.751287 78.81474 164.067386 78.051609 164.067386 77.256 
C 164.067386 76.460391 163.751287 75.69726 163.188707 75.13468 
C 162.626126 74.572099 161.862996 74.256 161.067386 74.256 
C 160.271777 74.256 159.508647 74.572099 158.946066 75.13468 
C 158.383485 75.69726 158.067386 76.460391 158.067386 77.256 
C 158.067386 78.051609 158.383485 78.81474 158.946066 79.37732 
C 159.508647 79.939901 160.271777 80.256 161.067386 80.256 
z
" style="fill:#f26b38;stroke:#ffffff;stroke-width:0.48;"/>
    <path clip-path="url(#pd167b990e1)" d="M 167.831023 80.256 
C 168.626632 80.256 169.389762 79.939901 169.952343 79.37732 
C 170.514924 78.81474 170.831023 78.051609 170.831023 77.256 
C 170.831023 76.460391 170.514924 75.69726 169.952343 75.13468 
C 169.389762 74.572099 168.626632 74.256 167.831023 74.256 
C 167.035413 74.256 166.272283 74.572099 165.709702 75.13468 
C 165.147122 75.69726 164.831023 76.460391 164.831023 77.256 
C 164.831023 78.051609 165.147122 78.81474 165.709702 79.37732 
C 166.272283 79.939901 167.035413 80.256 167.831023 80.256 
z
" style="fill:#f26b38;stroke:#ffffff;stroke-width:0.48;"/>
    <path clip-path="url(#pd167b990e1)" d="M 174.594659 80.256 
C 175.390268 80.256 176.153399 79.939901 176.715979 79.37732 
C 177.27856 78.81474 177.594659 78.051609 177.594659 77.256 
C 177.594659 76.460391 177.27856 75.69726 176.715979 75.13468 
C 176.153399 74.572099 175.390268 74.256 174.594659 74.256 
C 173.79905 74.256 173.035919 74.572099 172.473339 75.13468 
C 171.910758 75.69726 171.594659 76.460391 171.594659 77.256 
C 171.594659 78.051609 171.910758 78.81474 172.473339 79.37732 
C 173.035919 79.939901 173.79905 80.256 174.594659 80.256 
z
" style="fill:#f26b38;stroke:#ffffff;stroke-width:0.48;"/>
    <path clip-path="url(#pd167b990e1)" d="M 181.358295 80.256 
C 182.153905 80.256 182.917035 79.939901 183.479616 79.37732 
C 184.042197 78.81474 184.358295 78.051609 184.358295 77.256 
C 184.358295 76.460391 184.042197 75.69726 183.479616 75.13468 
C 182.917035 74.572099 182.153905 74.256 181.358295 74.256 
C 180.562686 74.256 179.799556 74.572099 179.236975 75.13468 
C 178.674394 75.69726 178.358295 76.460391 178.358295 77.256 
C 178.358295 78.051609 178.674394 78.81474 179.236975 79.37732 
C 179.799556 79.939901 180.562686 80.256 181.358295 80.256 
z
" style="fill:#f26b38;stroke:#ffffff;stroke-width:0.48;"/>
    <path clip-path="url(#pd167b990e1)" d="M 188.121932 80.256 
C 188.917541 80.256 189.680671 79.939901 190.243252 79.37732 
C 190.805833 78.81474 191.121932 78.051609 191.121932 77.256 
C 191.121932 76.460391 190.805833 75.69726 190.243252 75.13468 
C 189.680671 74.572099 188.917541 74.256 188.121932 74.256 
C 187.326323 74.256 186.563192 74.572099 186.000611 75.13468 
C 185.438031 75.69726 185.121932 76.460391 185.121932 77.256 
C 185.121932 78.051609 185.438031 78.81474 186.000611 79.37732 
C 186.563192 79.939901 187.326323 80.256 188.121932 80.256 
z
" style="fill:#f26b38;stroke:#ffffff;stroke-width:0.48;"/>
    <path clip-path="url(#pd167b990e1)" d="M 194.885568 80.256 
C 195.681177 80.256 196.444308 79.939901 197.006889 79.37732 
C 197.569469 78.81474 197.885568 78.051609 197.885568 77.256 
C 197.885568 76.460391 197.569469 75.69726 197.006889 75.13468 
C 196.444308 74.572099 195.681177 74.256 194.885568 74.256 
C 194.089959 74.256 193.326829 74.572099 192.764248 75.13468 
C 192.201667 75.69726 191.885568 76.460391 191.885568 77.256 
C 191.885568 78.051609 192.201667 78.81474 192.764248 79.37732 
C 193.326829 79.939901 194.089959 80.256 194.885568 80.256 
z
" style="fill:#f26b38;stroke:#ffffff;stroke-width:0.48;"/>
    <path clip-path="url(#pd167b990e1)" d="M 201.649205 80.256 
C 202.444814 80.256 203.207944 79.939901 203.770525 79.37732 
C 204.333106 78.81474 204.649205 78.051609 204.649205 77.256 
C 204.649205 76.460391 204.333106 75.69726 203.770525 75.13468 
C 203.207944 74.572099 202.444814 74.256 201.649205 74.256 
C 200.853595 74.256 200.090465 74.572099 199.527884 75.13468 
C 198.965303 75.69726 198.649205 76.460391 198.649205 77.256 
C 198.649205 78.051609 198.965303 78.81474 199.527884 79.37732 
C 200.090465 79.939901 200.853595 80.256 201.649205 80.256 
z
" style="fill:#f26b38;stroke:#ffffff;stroke-width:0.48;"/>
    <path clip-path="url(#pd167b990e1)" d="M 208.412841 80.256 
C 209.20845 80.256 209.971581 79.939901 210.534161 79.37732 
C 211.096742 78.81474 211.412841 78.051609 211.412841 77.256 
C 211.412841 76.460391 211.096742 75.69726 210.534161 75.13468 
C 209.971581 74.572099 209.20845 74.256 208.412841 74.256 
C 207.617232 74.256 206.854101 74.572099 206.291521 75.13468 
C 205.72894 75.69726 205.412841 76.460391 205.412841 77.256 
C 205.412841 78.051609 205.72894 78.81474 206.291521 79.37732 
C 206.854101 79.939901 207.617232 80.256 208.412841 80.256 
z
" style="fill:#f26b38;stroke:#ffffff;stroke-width:0.48;"/>
    <path clip-path="url(#pd167b990e1)" d="M 215.176477 80.256 
C 215.972087 80.256 216.735217 79.939901 217.297798 79.37732 
C 217.860378 78.81474 218.176477 78.051609 218.176477 77.256 
C 218.176477 76.460391 217.860378 75.69726 217.297798 75.13468 
C 216.735217 74.572099 215.972087 74.256 215.176477 74.256 
C 214.380868 74.256 213.617738 74.572099 213.055157 75.13468 
C 212.492576 75.69726 212.176477 76.460391 212.176477 77.256 
C 212.176477 78.051609 212.492576 78.81474 213.055157 79.37732 
C 213.617738 79.939901 214.380868 80.256 215.176477 80.256 
z
" style="fill:#f26b38;stroke:#ffffff;stroke-width:0.48;"/>
    <path clip-path="url(#pd167b990e1)" d="M 221.940114 80.256 
C 222.735723 80.256 223.498853 79.939901 224.061434 79.37732 
C 224.624015 78.81474 224.940114 78.051609 224.940114 77.256 
C 224.940114 76.460391 224.624015 75.69726 224.061434 75.13468 
C 223.498853 74.572099 222.735723 74.256 221.940114 74.256 
C 221.144504 74.256 220.381374 74.572099 219.818793 75.13468 
C 219.256213 75.69726 218.940114 76.460391 218.940114 77.256 
C 218.940114 78.051609 219.256213 78.81474 219.818793 79.37732 
C 220.381374 79.939901 221.144504 80.256 221.940114 80.256 
z
" style="fill:#f26b38;stroke:#ffffff;stroke-width:0.48;"/>
    <path clip-path="url(#pd167b990e1)" d="M 228.70375 121.416 
C 229.499359 121.416 230.26249 121.099901 230.82507 120.53732 
C 231.387651 119.97474 231.70375 119.211609 231.70375 118.416 
C 231.70375 117.620391 231.387651 116.85726 230.82507 116.29468 
C 230.26249 115.732099 229.499359 115.416 228.70375 115.416 
C 227.908141 115.416 227.14501 115.732099 226.58243 116.29468 
C 226.019849 116.85726 225.70375 117.620391 225.70375 118.416 
C 225.70375 119.211609 226.019849 119.97474 226.58243 120.53732 
C 227.14501 121.099901 227.908141 121.416 228.70375 121.416 
z
" style="fill:#f26b38;stroke:#ffffff;stroke-width:0.48;"/>
    <path clip-path="url(#pd167b990e1)" d="M 235.467386 135.136 
C 236.262996 135.136 237.026126 134.819901 237.588707 134.25732 
C 238.151287 133.69474 238.467386 132.931609 238.467386 132.136 
C 238.467386 131.340391 238.151287 130.57726 237.588707 130.01468 
C 237.026126 129.452099 236.262996 129.136 235.467386 129.136 
C 234.671777 129.136 233.908647 129.452099 233.346066 130.01468 
C 232.783485 130.57726 232.467386 131.340391 232.467386 132.136 
C 232.467386 132.931609 232.783485 133.69474 233.346066 134.25732 
C 233.908647 134.819901 234.671777 135.136 235.467386 135.136 
z
" style="fill:#f26b38;stroke:#ffffff;stroke-width:0.48;"/>
    <path clip-path="url(#pd167b990e1)" d="M 242.231023 135.136 
C 243.026632 135.136 243.789762 134.819901 244.352343 134.25732 
C 244.914924 133.69474 245.231023 132.931609 245.231023 132.136 
C 245.231023 131.340391 244.914924 130.57726 244.352343 130.01468 
C 243.789762 129.452099 243.026632 129.136 242.231023 129.136 
C 241.435413 129.136 240.672283 129.452099 240.109702 130.01468 
C 239.547122 130.57726 239.231023 131.340391 239.231023 132.136 
C 239.231023 132.931609 239.547122 133.69474 240.109702 134.25732 
C 240.672283 134.819901 241.435413 135.136 242.231023 135.136 
z
" style="fill:#f26b38;stroke:#ffffff;stroke-width:0.48;"/>
    <path clip-path="url(#pd167b990e1)" d="M 248.994659 135.136 
C 249.790268 135.136 250.553399 134.819901 251.115979 134.25732 
C 251.67856 133.69474 251.994659 132.931609 251.994659 132.136 
C 251.994659 131.340391 251.67856 130.57726 251.115979 130.01468 
C 250.553399 129.452099 249.790268 129.136 248.994659 129.136 
C 248.19905 129.136 247.435919 129.452099 246.873339 130.01468 
C 246.310758 130.57726 245.994659 131.340391 245.994659 132.136 
C 245.994659 132.931609 246.310758 133.69474 246.873339 134.25732 
C 247.435919 134.819901 248.19905 135.136 248.994659 135.136 
z
" style="fill:#f26b38;stroke:#ffffff;stroke-width:0.48;"/>
    <path clip-path="url(#pd167b990e1)" d="M 255.758295 135.136 
C 256.553905 135.136 257.317035 134.819901 257.879616 134.25732 
C 258.442197 133.69474 258.758295 132.931609 258.758295 132.136 
C 258.758295 131.340391 258.442197 130.57726 257.879616 130.01468 
C 257.317035 129.452099 256.553905 129.136 255.758295 129.136 
C 254.962686 129.136 254.199556 129.452099 253.636975 130.01468 
C 253.074394 130.57726 252.758295 131.340391 252.758295 132.136 
C 252.758295 132.931609 253.074394 133.69474 253.636975 134.25732 
C 254.199556 134.819901 254.962686 135.136 255.758295 135.136 
z
" style="fill:#f26b38;stroke:#ffffff;stroke-width:0.48;"/>
    <path clip-path="url(#pd167b990e1)" d="M 262.521932 135.136 
C 263.317541 135.136 264.080671 134.819901 264.643252 134.25732 
C 265.205833 133.69474 265.521932 132.931609 265.521932 132.136 
C 265.521932 131.340391 265.205833 130.57726 264.643252 130.01468 
C 264.080671 129.452099 263.317541 129.136 262.521932 129.136 
C 261.726323 129.136 260.963192 129.452099 260.400611 130.01468 
C 259.838031 130.57726 259.521932 131.340391 259.521932 132.136 
C 259.521932 132.931609 259.838031 133.69474 260.400611 134.25732 
C 260.963192 134.819901 261.726323 135.136 262.521932 135.136 
z
" style="fill:#f26b38;stroke:#ffffff;stroke-width:0.48;"/>
    <path clip-path="url(#pd167b990e1)" d="M 269.285568 135.136 
C 270.081177 135.136 270.844308 134.819901 271.406889 134.25732 
C 271.969469 133.69474 272.285568 132.931609 272.285568 132.136 
C 272.285568 131.340391 271.969469 130.57726 271.406889 130.01468 
C 270.844308 129.452099 270.081177 129.136 269.285568 129.136 
C 268.489959 129.136 267.726829 129.452099 267.164248 130.01468 
C 266.601667 130.57726 266.285568 131.340391 266.285568 132.136 
C 266.285568 132.931609 266.601667 133.69474 267.164248 134.25732 
C 267.726829 134.819901 268.489959 135.136 269.285568 135.136 
z
" style="fill:#f26b38;stroke:#ffffff;stroke-width:0.48;"/>
    <path clip-path="url(#pd167b990e1)" d="M 276.049205 135.136 
C 276.844814 135.136 277.607944 134.819901 278.170525 134.25732 
C 278.733106 133.69474 279.049205 132.931609 279.049205 132.136 
C 279.049205 131.340391 278.733106 130.57726 278.170525 130.01468 
C 277.607944 129.452099 276.844814 129.136 276.049205 129.136 
C 275.253595 129.136 274.490465 129.452099 273.927884 130.01468 
C 273.365303 130.57726 273.049205 131.340391 273.049205 132.136 
C 273.049205 132.931609 273.365303 133.69474 273.927884 134.25732 
C 274.490465 134.819901 275.253595 135.136 276.049205 135.136 
z
" style="fill:#f26b38;stroke:#ffffff;stroke-width:0.48;"/>
    <path clip-path="url(#pd167b990e1)" d="M 282.812841 135.136 
C 283.60845 135.136 284.371581 134.819901 284.934161 134.25732 
C 285.496742 133.69474 285.812841 132.931609 285.812841 132.136 
C 285.812841 131.340391 285.496742 130.57726 284.934161 130.01468 
C 284.371581 129.452099 283.60845 129.136 282.812841 129.136 
C 282.017232 129.136 281.254101 129.452099 280.691521 130.01468 
C 280.12894 130.57726 279.812841 131.340391 279.812841 132.136 
C 279.812841 132.931609 280.12894 133.69474 280.691521 134.25732 
C 281.254101 134.819901 282.017232 135.136 282.812841 135.136 
z
" style="fill:#f26b38;stroke:#ffffff;stroke-width:0.48;"/>
    <path clip-path="url(#pd167b990e1)" d="M 289.576477 135.136 
C 290.372087 135.136 291.135217 134.819901 291.697798 134.25732 
C 292.260378 133.69474 292.576477 132.931609 292.576477 132.136 
C 292.576477 131.340391 292.260378 130.57726 291.697798 130.01468 
C 291.135217 129.452099 290.372087 129.136 289.576477 129.136 
C 288.780868 129.136 288.017738 129.452099 287.455157 130.01468 
C 286.892576 130.57726 286.576477 131.340391 286.576477 132.136 
C 286.576477 132.931609 286.892576 133.69474 287.455157 134.25732 
C 288.017738 134.819901 288.780868 135.136 289.576477 135.136 
z
" style="fill:#f26b38;stroke:#ffffff;stroke-width:0.48;"/>
    <path clip-path="url(#pd167b990e1)" d="M 296.340114 135.136 
C 297.135723 135.136 297.898853 134.819901 298.461434 134.25732 
C 299.024015 133.69474 299.340114 132.931609 299.340114 132.136 
C 299.340114 131.340391 299.024015 130.57726 298.461434 130.01468 
C 297.898853 129.452099 297.135723 129.136 296.340114 129.136 
C 295.544504 129.136 294.781374 129.452099 294.218793 130.01468 
C 293.656213 130.57726 293.340114 131.340391 293.340114 132.136 
C 293.340114 132.931609 293.656213 133.69474 294.218793 134.25732 
C 294.781374 134.819901 295.544504 135.136 296.340114 135.136 
z
" style="fill:#f26b38;stroke:#ffffff;stroke-width:0.48;"/>
    <path clip-path="url(#pd167b990e1)" d="M 303.10375 135.136 
C 303.899359 135.136 304.66249 134.819901 305.22507 134.25732 
C 305.787651 133.69474 306.10375 132.931609 306.10375 132.136 
C 306.10375 131.340391 305.787651 130.57726 305.22507 130.01468 
C 304.66249 129.452099 303.899359 129.136 303.10375 129.136 
C 302.308141 129.136 301.54501 129.452099 300.98243 130.01468 
C 300.419849 130.57726 300.10375 131.340391 300.10375 132.136 
C 300.10375 132.931609 300.419849 133.69474 300.98243 134.25732 
C 301.54501 134.819901 302.308141 135.136 303.10375 135.136 
z
" style="fill:#f26b38;stroke:#ffffff;stroke-width:0.48;"/>
    <path clip-path="url(#pd167b990e1)" d="M 309.867386 135.136 
C 310.662996 135.136 311.426126 134.819901 311.988707 134.25732 
C 312.551287 133.69474 312.867386 132.931609 312.867386 132.136 
C 312.867386 131.340391 312.551287 130.57726 311.988707 130.01468 
C 311.426126 129.452099 310.662996 129.136 309.867386 129.136 
C 309.071777 129.136 308.308647 129.452099 307.746066 130.01468 
C 307.183485 130.57726 306.867386 131.340391 306.867386 132.136 
C 306.867386 132.931609 307.183485 133.69474 307.746066 134.25732 
C 308.308647 134.819901 309.071777 135.136 309.867386 135.136 
z
" style="fill:#f26b38;stroke:#ffffff;stroke-width:0.48;"/>
    <path clip-path="url(#pd167b990e1)" d="M 316.631023 135.136 
C 317.426632 135.136 318.189762 134.819901 318.752343 134.25732 
C 319.314924 133.69474 319.631023 132.931609 319.631023 132.136 
C 319.631023 131.340391 319.314924 130.57726 318.752343 130.01468 
C 318.189762 129.452099 317.426632 129.136 316.631023 129.136 
C 315.835413 129.136 315.072283 129.452099 314.509702 130.01468 
C 313.947122 130.57726 313.631023 131.340391 313.631023 132.136 
C 313.631023 132.931609 313.947122 133.69474 314.509702 134.25732 
C 315.072283 134.819901 315.835413 135.136 316.631023 135.136 
z
" style="fill:#f26b38;stroke:#ffffff;stroke-width:0.48;"/>
    <path clip-path="url(#pd167b990e1)" d="M 323.394659 135.136 
C 324.190268 135.136 324.953399 134.819901 325.515979 134.25732 
C 326.07856 133.69474 326.394659 132.931609 326.394659 132.136 
C 326.394659 131.340391 326.07856 130.57726 325.515979 130.01468 
C 324.953399 129.452099 324.190268 129.136 323.394659 129.136 
C 322.59905 129.136 321.835919 129.452099 321.273339 130.01468 
C 320.710758 130.57726 320.394659 131.340391 320.394659 132.136 
C 320.394659 132.931609 320.710758 133.69474 321.273339 134.25732 
C 321.835919 134.819901 322.59905 135.136 323.394659 135.136 
z
" style="fill:#f26b38;stroke:#ffffff;stroke-width:0.48;"/>
    <path clip-path="url(#pd167b990e1)" d="M 330.158295 135.136 
C 330.953905 135.136 331.717035 134.819901 332.279616 134.25732 
C 332.842197 133.69474 333.158295 132.931609 333.158295 132.136 
C 333.158295 131.340391 332.842197 130.57726 332.279616 130.01468 
C 331.717035 129.452099 330.953905 129.136 330.158295 129.136 
C 329.362686 129.136 328.599556 129.452099 328.036975 130.01468 
C 327.474394 130.57726 327.158295 131.340391 327.158295 132.136 
C 327.158295 132.931609 327.474394 133.69474 328.036975 134.25732 
C 328.599556 134.819901 329.362686 135.136 330.158295 135.136 
z
" style="fill:#f26b38;stroke:#ffffff;stroke-width:0.48;"/>
    <path clip-path="url(#pd167b990e1)" d="M 336.921932 135.136 
C 337.717541 135.136 338.480671 134.819901 339.043252 134.25732 
C 339.605833 133.69474 339.921932 132.931609 339.921932 132.136 
C 339.921932 131.340391 339.605833 130.57726 339.043252 130.01468 
C 338.480671 129.452099 337.717541 129.136 336.921932 129.136 
C 336.126323 129.136 335.363192 129.452099 334.800611 130.01468 
C 334.238031 130.57726 333.921932 131.340391 333.921932 132.136 
C 333.921932 132.931609 334.238031 133.69474 334.800611 134.25732 
C 335.363192 134.819901 336.126323 135.136 336.921932 135.136 
z
" style="fill:#f26b38;stroke:#ffffff;stroke-width:0.48;"/>
    <path clip-path="url(#pd167b990e1)" d="M 343.685568 135.136 
C 344.481177 135.136 345.244308 134.819901 345.806889 134.25732 
C 346.369469 133.69474 346.685568 132.931609 346.685568 132.136 
C 346.685568 131.340391 346.369469 130.57726 345.806889 130.01468 
C 345.244308 129.452099 344.481177 129.136 343.685568 129.136 
C 342.889959 129.136 342.126829 129.452099 341.564248 130.01468 
C 341.001667 130.57726 340.685568 131.340391 340.685568 132.136 
C 340.685568 132.931609 341.001667 133.69474 341.564248 134.25732 
C 342.126829 134.819901 342.889959 135.136 343.685568 135.136 
z
" style="fill:#f26b38;stroke:#ffffff;stroke-width:0.48;"/>
    <path clip-path="url(#pd167b990e1)" d="M 350.449205 135.136 
C 351.244814 135.136 352.007944 134.819901 352.570525 134.25732 
C 353.133106 133.69474 353.449205 132.931609 353.449205 132.136 
C 353.449205 131.340391 353.133106 130.57726 352.570525 130.01468 
C 352.007944 129.452099 351.244814 129.136 350.449205 129.136 
C 349.653595 129.136 348.890465 129.452099 348.327884 130.01468 
C 347.765303 130.57726 347.449205 131.340391 347.449205 132.136 
C 347.449205 132.931609 347.765303 133.69474 348.327884 134.25732 
C 348.890465 134.819901 349.653595 135.136 350.449205 135.136 
z
" style="fill:#f26b38;stroke:#ffffff;stroke-width:0.48;"/>
    <path clip-path="url(#pd167b990e1)" d="M 357.212841 135.136 
C 358.00845 135.136 358.771581 134.819901 359.334161 134.25732 
C 359.896742 133.69474 360.212841 132.931609 360.212841 132.136 
C 360.212841 131.340391 359.896742 130.57726 359.334161 130.01468 
C 358.771581 129.452099 358.00845 129.136 357.212841 129.136 
C 356.417232 129.136 355.654101 129.452099 355.091521 130.01468 
C 354.52894 130.57726 354.212841 131.340391 354.212841 132.136 
C 354.212841 132.931609 354.52894 133.69474 355.091521 134.25732 
C 355.654101 134.819901 356.417232 135.136 357.212841 135.136 
z
" style="fill:#f26b38;stroke:#ffffff;stroke-width:0.48;"/>
    <path clip-path="url(#pd167b990e1)" d="M 363.976477 135.136 
C 364.772087 135.136 365.535217 134.819901 366.097798 134.25732 
C 366.660378 133.69474 366.976477 132.931609 366.976477 132.136 
C 366.976477 131.340391 366.660378 130.57726 366.097798 130.01468 
C 365.535217 129.452099 364.772087 129.136 363.976477 129.136 
C 363.180868 129.136 362.417738 129.452099 361.855157 130.01468 
C 361.292576 130.57726 360.976477 131.340391 360.976477 132.136 
C 360.976477 132.931609 361.292576 133.69474 361.855157 134.25732 
C 362.417738 134.819901 363.180868 135.136 363.976477 135.136 
z
" style="fill:#f26b38;stroke:#ffffff;stroke-width:0.48;"/>
    <path clip-path="url(#pd167b990e1)" d="M 370.740114 135.136 
C 371.535723 135.136 372.298853 134.819901 372.861434 134.25732 
C 373.424015 133.69474 373.740114 132.931609 373.740114 132.136 
C 373.740114 131.340391 373.424015 130.57726 372.861434 130.01468 
C 372.298853 129.452099 371.535723 129.136 370.740114 129.136 
C 369.944504 129.136 369.181374 129.452099 368.618793 130.01468 
C 368.056213 130.57726 367.740114 131.340391 367.740114 132.136 
C 367.740114 132.931609 368.056213 133.69474 368.618793 134.25732 
C 369.181374 134.819901 369.944504 135.136 370.740114 135.136 
z
" style="fill:#f26b38;stroke:#ffffff;stroke-width:0.48;"/>
    <path clip-path="url(#pd167b990e1)" d="M 377.50375 135.136 
C 378.299359 135.136 379.06249 134.819901 379.62507 134.25732 
C 380.187651 133.69474 380.50375 132.931609 380.50375 132.136 
C 380.50375 131.340391 380.187651 130.57726 379.62507 130.01468 
C 379.06249 129.452099 378.299359 129.136 377.50375 129.136 
C 376.708141 129.136 375.94501 129.452099 375.38243 130.01468 
C 374.819849 130.57726 374.50375 131.340391 374.50375 132.136 
C 374.50375 132.931609 374.819849 133.69474 375.38243 134.25732 
C 375.94501 134.819901 376.708141 135.136 377.50375 135.136 
z
" style="fill:#f26b38;stroke:#ffffff;stroke-width:0.48;"/>
    <path clip-path="url(#pd167b990e1)" d="M 384.267386 135.136 
C 385.062996 135.136 385.826126 134.819901 386.388707 134.25732 
C 386.951287 133.69474 387.267386 132.931609 387.267386 132.136 
C 387.267386 131.340391 386.951287 130.57726 386.388707 130.01468 
C 385.826126 129.452099 385.062996 129.136 384.267386 129.136 
C 383.471777 129.136 382.708647 129.452099 382.146066 130.01468 
C 381.583485 130.57726 381.267386 131.340391 381.267386 132.136 
C 381.267386 132.931609 381.583485 133.69474 382.146066 134.25732 
C 382.708647 134.819901 383.471777 135.136 384.267386 135.136 
z
" style="fill:#f26b38;stroke:#ffffff;stroke-width:0.48;"/>
    <path clip-path="url(#pd167b990e1)" d="M 391.031023 135.136 
C 391.826632 135.136 392.589762 134.819901 393.152343 134.25732 
C 393.714924 133.69474 394.031023 132.931609 394.031023 132.136 
C 394.031023 131.340391 393.714924 130.57726 393.152343 130.01468 
C 392.589762 129.452099 391.826632 129.136 391.031023 129.136 
C 390.235413 129.136 389.472283 129.452099 388.909702 130.01468 
C 388.347122 130.57726 388.031023 131.340391 388.031023 132.136 
C 388.031023 132.931609 388.347122 133.69474 388.909702 134.25732 
C 389.472283 134.819901 390.235413 135.136 391.031023 135.136 
z
" style="fill:#f26b38;stroke:#ffffff;stroke-width:0.48;"/>
    <path clip-path="url(#pd167b990e1)" d="M 64.876477 135.136 
L 66.376477 133.636 
L 67.876477 135.136 
L 69.376477 133.636 
L 67.876477 132.136 
L 69.376477 130.636 
L 67.876477 129.136 
L 66.376477 130.636 
L 64.876477 129.136 
L 63.376477 130.636 
L 64.876477 132.136 
L 63.376477 133.636 
z
" style="fill:#2f9599;stroke:#ffffff;stroke-width:0.48;"/>
    <path clip-path="url(#pd167b990e1)" d="M 71.640114 107.696 
L 73.140114 106.196 
L 74.640114 107.696 
L 76.140114 106.196 
L 74.640114 104.696 
L 76.140114 103.196 
L 74.640114 101.696 
L 73.140114 103.196 
L 71.640114 101.696 
L 70.140114 103.196 
L 71.640114 104.696 
L 70.140114 106.196 
z
" style="fill:#2f9599;stroke:#ffffff;stroke-width:0.48;"/>
    <path clip-path="url(#pd167b990e1)" d="M 78.40375 107.696 
L 79.90375 106.196 
L 81.40375 107.696 
L 82.90375 106.196 
L 81.40375 104.696 
L 82.90375 103.196 
L 81.40375 101.696 
L 79.90375 103.196 
L 78.40375 101.696 
L 76.90375 103.196 
L 78.40375 104.696 
L 76.90375 106.196 
z
" style="fill:#2f9599;stroke:#ffffff;stroke-width:0.48;"/>
    <path clip-path="url(#pd167b990e1)" d="M 85.167386 107.696 
L 86.667386 106.196 
L 88.167386 107.696 
L 89.667386 106.196 
L 88.167386 104.696 
L 89.667386 103.196 
L 88.167386 101.696 
L 86.667386 103.196 
L 85.167386 101.696 
L 83.667386 103.196 
L 85.167386 104.696 
L 83.667386 106.196 
z
" style="fill:#2f9599;stroke:#ffffff;stroke-width:0.48;"/>
    <path clip-path="url(#pd167b990e1)" d="M 91.931023 148.856 
L 93.431023 147.356 
L 94.931023 148.856 
L 96.431023 147.356 
L 94.931023 145.856 
L 96.431023 144.356 
L 94.931023 142.856 
L 93.431023 144.356 
L 91.931023 142.856 
L 90.431023 144.356 
L 91.931023 145.856 
L 90.431023 147.356 
z
" style="fill:#2f9599;stroke:#ffffff;stroke-width:0.48;"/>
    <path clip-path="url(#pd167b990e1)" d="M 98.694659 148.856 
L 100.194659 147.356 
L 101.694659 148.856 
L 103.194659 147.356 
L 101.694659 145.856 
L 103.194659 144.356 
L 101.694659 142.856 
L 100.194659 144.356 
L 98.694659 142.856 
L 97.194659 144.356 
L 98.694659 145.856 
L 97.194659 147.356 
z
" style="fill:#2f9599;stroke:#ffffff;stroke-width:0.48;"/>
    <path clip-path="url(#pd167b990e1)" d="M 105.458295 148.856 
L 106.958295 147.356 
L 108.458295 148.856 
L 109.958295 147.356 
L 108.458295 145.856 
L 109.958295 144.356 
L 108.458295 142.856 
L 106.958295 144.356 
L 105.458295 142.856 
L 103.958295 144.356 
L 105.458295 145.856 
L 103.958295 147.356 
z
" style="fill:#2f9599;stroke:#ffffff;stroke-width:0.48;"/>
    <path clip-path="url(#pd167b990e1)" d="M 112.221932 148.856 
L 113.721932 147.356 
L 115.221932 148.856 
L 116.721932 147.356 
L 115.221932 145.856 
L 116.721932 144.356 
L 115.221932 142.856 
L 113.721932 144.356 
L 112.221932 142.856 
L 110.721932 144.356 
L 112.221932 145.856 
L 110.721932 147.356 
z
" style="fill:#2f9599;stroke:#ffffff;stroke-width:0.48;"/>
    <path clip-path="url(#pd167b990e1)" d="M 118.985568 148.856 
L 120.485568 147.356 
L 121.985568 148.856 
L 123.485568 147.356 
L 121.985568 145.856 
L 123.485568 144.356 
L 121.985568 142.856 
L 120.485568 144.356 
L 118.985568 142.856 
L 117.485568 144.356 
L 118.985568 145.856 
L 117.485568 147.356 
z
" style="fill:#2f9599;stroke:#ffffff;stroke-width:0.48;"/>
    <path clip-path="url(#pd167b990e1)" d="M 125.749205 148.856 
L 127.249205 147.356 
L 128.749205 148.856 
L 130.249205 147.356 
L 128.749205 145.856 
L 130.249205 144.356 
L 128.749205 142.856 
L 127.249205 144.356 
L 125.749205 142.856 
L 124.249205 144.356 
L 125.749205 145.856 
L 124.249205 147.356 
z
" style="fill:#2f9599;stroke:#ffffff;stroke-width:0.48;"/>
    <path clip-path="url(#pd167b990e1)" d="M 132.512841 148.856 
L 134.012841 147.356 
L 135.512841 148.856 
L 137.012841 147.356 
L 135.512841 145.856 
L 137.012841 144.356 
L 135.512841 142.856 
L 134.012841 144.356 
L 132.512841 142.856 
L 131.012841 144.356 
L 132.512841 145.856 
L 131.012841 147.356 
z
" style="fill:#2f9599;stroke:#ffffff;stroke-width:0.48;"/>
    <path clip-path="url(#pd167b990e1)" d="M 139.276477 148.856 
L 140.776477 147.356 
L 142.276477 148.856 
L 143.776477 147.356 
L 142.276477 145.856 
L 143.776477 144.356 
L 142.276477 142.856 
L 140.776477 144.356 
L 139.276477 142.856 
L 137.776477 144.356 
L 139.276477 145.856 
L 137.776477 147.356 
z
" style="fill:#2f9599;stroke:#ffffff;stroke-width:0.48;"/>
    <path clip-path="url(#pd167b990e1)" d="M 146.040114 148.856 
L 147.540114 147.356 
L 149.040114 148.856 
L 150.540114 147.356 
L 149.040114 145.856 
L 150.540114 144.356 
L 149.040114 142.856 
L 147.540114 144.356 
L 146.040114 142.856 
L 144.540114 144.356 
L 146.040114 145.856 
L 144.540114 147.356 
z
" style="fill:#2f9599;stroke:#ffffff;stroke-width:0.48;"/>
    <path clip-path="url(#pd167b990e1)" d="M 152.80375 148.856 
L 154.30375 147.356 
L 155.80375 148.856 
L 157.30375 147.356 
L 155.80375 145.856 
L 157.30375 144.356 
L 155.80375 142.856 
L 154.30375 144.356 
L 152.80375 142.856 
L 151.30375 144.356 
L 152.80375 145.856 
L 151.30375 147.356 
z
" style="fill:#2f9599;stroke:#ffffff;stroke-width:0.48;"/>
    <path clip-path="url(#pd167b990e1)" d="M 159.567386 148.856 
L 161.067386 147.356 
L 162.567386 148.856 
L 164.067386 147.356 
L 162.567386 145.856 
L 164.067386 144.356 
L 162.567386 142.856 
L 161.067386 144.356 
L 159.567386 142.856 
L 158.067386 144.356 
L 159.567386 145.856 
L 158.067386 147.356 
z
" style="fill:#2f9599;stroke:#ffffff;stroke-width:0.48;"/>
    <path clip-path="url(#pd167b990e1)" d="M 166.331023 148.856 
L 167.831023 147.356 
L 169.331023 148.856 
L 170.831023 147.356 
L 169.331023 145.856 
L 170.831023 144.356 
L 169.331023 142.856 
L 167.831023 144.356 
L 166.331023 142.856 
L 164.831023 144.356 
L 166.331023 145.856 
L 164.831023 147.356 
z
" style="fill:#2f9599;stroke:#ffffff;stroke-width:0.48;"/>
    <path clip-path="url(#pd167b990e1)" d="M 173.094659 162.576 
L 174.594659 161.076 
L 176.094659 162.576 
L 177.594659 161.076 
L 176.094659 159.576 
L 177.594659 158.076 
L 176.094659 156.576 
L 174.594659 158.076 
L 173.094659 156.576 
L 171.594659 158.076 
L 173.094659 159.576 
L 171.594659 161.076 
z
" style="fill:#2f9599;stroke:#ffffff;stroke-width:0.48;"/>
    <path clip-path="url(#pd167b990e1)" d="M 179.858295 162.576 
L 181.358295 161.076 
L 182.858295 162.576 
L 184.358295 161.076 
L 182.858295 159.576 
L 184.358295 158.076 
L 182.858295 156.576 
L 181.358295 158.076 
L 179.858295 156.576 
L 178.358295 158.076 
L 179.858295 159.576 
L 178.358295 161.076 
z
" style="fill:#2f9599;stroke:#ffffff;stroke-width:0.48;"/>
    <path clip-path="url(#pd167b990e1)" d="M 186.621932 162.576 
L 188.121932 161.076 
L 189.621932 162.576 
L 191.121932 161.076 
L 189.621932 159.576 
L 191.121932 158.076 
L 189.621932 156.576 
L 188.121932 158.076 
L 186.621932 156.576 
L 185.121932 158.076 
L 186.621932 159.576 
L 185.121932 161.076 
z
" style="fill:#2f9599;stroke:#ffffff;stroke-width:0.48;"/>
    <path clip-path="url(#pd167b990e1)" d="M 193.385568 162.576 
L 194.885568 161.076 
L 196.385568 162.576 
L 197.885568 161.076 
L 196.385568 159.576 
L 197.885568 158.076 
L 196.385568 156.576 
L 194.885568 158.076 
L 193.385568 156.576 
L 191.885568 158.076 
L 193.385568 159.576 
L 191.885568 161.076 
z
" style="fill:#2f9599;stroke:#ffffff;stroke-width:0.48;"/>
    <path clip-path="url(#pd167b990e1)" d="M 200.149205 162.576 
L 201.649205 161.076 
L 203.149205 162.576 
L 204.649205 161.076 
L 203.149205 159.576 
L 204.649205 158.076 
L 203.149205 156.576 
L 201.649205 158.076 
L 200.149205 156.576 
L 198.649205 158.076 
L 200.149205 159.576 
L 198.649205 161.076 
z
" style="fill:#2f9599;stroke:#ffffff;stroke-width:0.48;"/>
    <path clip-path="url(#pd167b990e1)" d="M 206.912841 162.576 
L 208.412841 161.076 
L 209.912841 162.576 
L 211.412841 161.076 
L 209.912841 159.576 
L 211.412841 158.076 
L 209.912841 156.576 
L 208.412841 158.076 
L 206.912841 156.576 
L 205.412841 158.076 
L 206.912841 159.576 
L 205.412841 161.076 
z
" style="fill:#2f9599;stroke:#ffffff;stroke-width:0.48;"/>
    <path clip-path="url(#pd167b990e1)" d="M 213.676477 162.576 
L 215.176477 161.076 
L 216.676477 162.576 
L 218.176477 161.076 
L 216.676477 159.576 
L 218.176477 158.076 
L 216.676477 156.576 
L 215.176477 158.076 
L 213.676477 156.576 
L 212.176477 158.076 
L 213.676477 159.576 
L 212.176477 161.076 
z
" style="fill:#2f9599;stroke:#ffffff;stroke-width:0.48;"/>
    <path clip-path="url(#pd167b990e1)" d="M 220.440114 162.576 
L 221.940114 161.076 
L 223.440114 162.576 
L 224.940114 161.076 
L 223.440114 159.576 
L 224.940114 158.076 
L 223.440114 156.576 
L 221.940114 158.076 
L 220.440114 156.576 
L 218.940114 158.076 
L 220.440114 159.576 
L 218.940114 161.076 
z
" style="fill:#2f9599;stroke:#ffffff;stroke-width:0.48;"/>
    <path clip-path="url(#pd167b990e1)" d="M 227.20375 162.576 
L 228.70375 161.076 
L 230.20375 162.576 
L 231.70375 161.076 
L 230.20375 159.576 
L 231.70375 158.076 
L 230.20375 156.576 
L 228.70375 158.076 
L 227.20375 156.576 
L 225.70375 158.076 
L 227.20375 159.576 
L 225.70375 161.076 
z
" style="fill:#2f9599;stroke:#ffffff;stroke-width:0.48;"/>
    <path clip-path="url(#pd167b990e1)" d="M 233.967386 162.576 
L 235.467386 161.076 
L 236.967386 162.576 
L 238.467386 161.076 
L 236.967386 159.576 
L 238.467386 158.076 
L 236.967386 156.576 
L 235.467386 158.076 
L 233.967386 156.576 
L 232.467386 158.076 
L 233.967386 159.576 
L 232.467386 161.076 
z
" style="fill:#2f9599;stroke:#ffffff;stroke-width:0.48;"/>
    <path clip-path="url(#pd167b990e1)" d="M 240.731023 162.576 
L 242.231023 161.076 
L 243.731023 162.576 
L 245.231023 161.076 
L 243.731023 159.576 
L 245.231023 158.076 
L 243.731023 156.576 
L 242.231023 158.076 
L 240.731023 156.576 
L 239.231023 158.076 
L 240.731023 159.576 
L 239.231023 161.076 
z
" style="fill:#2f9599;stroke:#ffffff;stroke-width:0.48;"/>
    <path clip-path="url(#pd167b990e1)" d="M 247.494659 162.576 
L 248.994659 161.076 
L 250.494659 162.576 
L 251.994659 161.076 
L 250.494659 159.576 
L 251.994659 158.076 
L 250.494659 156.576 
L 248.994659 158.076 
L 247.494659 156.576 
L 245.994659 158.076 
L 247.494659 159.576 
L 245.994659 161.076 
z
" style="fill:#2f9599;stroke:#ffffff;stroke-width:0.48;"/>
    <path clip-path="url(#pd167b990e1)" d="M 254.258295 162.576 
L 255.758295 161.076 
L 257.258295 162.576 
L 258.758295 161.076 
L 257.258295 159.576 
L 258.758295 158.076 
L 257.258295 156.576 
L 255.758295 158.076 
L 254.258295 156.576 
L 252.758295 158.076 
L 254.258295 159.576 
L 252.758295 161.076 
z
" style="fill:#2f9599;stroke:#ffffff;stroke-width:0.48;"/>
    <path clip-path="url(#pd167b990e1)" d="M 261.021932 162.576 
L 262.521932 161.076 
L 264.021932 162.576 
L 265.521932 161.076 
L 264.021932 159.576 
L 265.521932 158.076 
L 264.021932 156.576 
L 262.521932 158.076 
L 261.021932 156.576 
L 259.521932 158.076 
L 261.021932 159.576 
L 259.521932 161.076 
z
" style="fill:#2f9599;stroke:#ffffff;stroke-width:0.48;"/>
    <path clip-path="url(#pd167b990e1)" d="M 267.785568 162.576 
L 269.285568 161.076 
L 270.785568 162.576 
L 272.285568 161.076 
L 270.785568 159.576 
L 272.285568 158.076 
L 270.785568 156.576 
L 269.285568 158.076 
L 267.785568 156.576 
L 266.285568 158.076 
L 267.785568 159.576 
L 266.285568 161.076 
z
" style="fill:#2f9599;stroke:#ffffff;stroke-width:0.48;"/>
    <path clip-path="url(#pd167b990e1)" d="M 274.549205 162.576 
L 276.049205 161.076 
L 277.549205 162.576 
L 279.049205 161.076 
L 277.549205 159.576 
L 279.049205 158.076 
L 277.549205 156.576 
L 276.049205 158.076 
L 274.549205 156.576 
L 273.049205 158.076 
L 274.549205 159.576 
L 273.049205 161.076 
z
" style="fill:#2f9599;stroke:#ffffff;stroke-width:0.48;"/>
    <path clip-path="url(#pd167b990e1)" d="M 281.312841 162.576 
L 282.812841 161.076 
L 284.312841 162.576 
L 285.812841 161.076 
L 284.312841 159.576 
L 285.812841 158.076 
L 284.312841 156.576 
L 282.812841 158.076 
L 281.312841 156.576 
L 279.812841 158.076 
L 281.312841 159.576 
L 279.812841 161.076 
z
" style="fill:#2f9599;stroke:#ffffff;stroke-width:0.48;"/>
    <path clip-path="url(#pd167b990e1)" d="M 288.076477 162.576 
L 289.576477 161.076 
L 291.076477 162.576 
L 292.576477 161.076 
L 291.076477 159.576 
L 292.576477 158.076 
L 291.076477 156.576 
L 289.576477 158.076 
L 288.076477 156.576 
L 286.576477 158.076 
L 288.076477 159.576 
L 286.576477 161.076 
z
" style="fill:#2f9599;stroke:#ffffff;stroke-width:0.48;"/>
    <path clip-path="url(#pd167b990e1)" d="M 294.840114 162.576 
L 296.340114 161.076 
L 297.840114 162.576 
L 299.340114 161.076 
L 297.840114 159.576 
L 299.340114 158.076 
L 297.840114 156.576 
L 296.340114 158.076 
L 294.840114 156.576 
L 293.340114 158.076 
L 294.840114 159.576 
L 293.340114 161.076 
z
" style="fill:#2f9599;stroke:#ffffff;stroke-width:0.48;"/>
    <path clip-path="url(#pd167b990e1)" d="M 301.60375 162.576 
L 303.10375 161.076 
L 304.60375 162.576 
L 306.10375 161.076 
L 304.60375 159.576 
L 306.10375 158.076 
L 304.60375 156.576 
L 303.10375 158.076 
L 301.60375 156.576 
L 300.10375 158.076 
L 301.60375 159.576 
L 300.10375 161.076 
z
" style="fill:#2f9599;stroke:#ffffff;stroke-width:0.48;"/>
    <path clip-path="url(#pd167b990e1)" d="M 308.367386 162.576 
L 309.867386 161.076 
L 311.367386 162.576 
L 312.867386 161.076 
L 311.367386 159.576 
L 312.867386 158.076 
L 311.367386 156.576 
L 309.867386 158.076 
L 308.367386 156.576 
L 306.867386 158.076 
L 308.367386 159.576 
L 306.867386 161.076 
z
" style="fill:#2f9599;stroke:#ffffff;stroke-width:0.48;"/>
    <path clip-path="url(#pd167b990e1)" d="M 315.131023 162.576 
L 316.631023 161.076 
L 318.131023 162.576 
L 319.631023 161.076 
L 318.131023 159.576 
L 319.631023 158.076 
L 318.131023 156.576 
L 316.631023 158.076 
L 315.131023 156.576 
L 313.631023 158.076 
L 315.131023 159.576 
L 313.631023 161.076 
z
" style="fill:#2f9599;stroke:#ffffff;stroke-width:0.48;"/>
    <path clip-path="url(#pd167b990e1)" d="M 321.894659 162.576 
L 323.394659 161.076 
L 324.894659 162.576 
L 326.394659 161.076 
L 324.894659 159.576 
L 326.394659 158.076 
L 324.894659 156.576 
L 323.394659 158.076 
L 321.894659 156.576 
L 320.394659 158.076 
L 321.894659 159.576 
L 320.394659 161.076 
z
" style="fill:#2f9599;stroke:#ffffff;stroke-width:0.48;"/>
    <path clip-path="url(#pd167b990e1)" d="M 328.658295 162.576 
L 330.158295 161.076 
L 331.658295 162.576 
L 333.158295 161.076 
L 331.658295 159.576 
L 333.158295 158.076 
L 331.658295 156.576 
L 330.158295 158.076 
L 328.658295 156.576 
L 327.158295 158.076 
L 328.658295 159.576 
L 327.158295 161.076 
z
" style="fill:#2f9599;stroke:#ffffff;stroke-width:0.48;"/>
    <path clip-path="url(#pd167b990e1)" d="M 335.421932 162.576 
L 336.921932 161.076 
L 338.421932 162.576 
L 339.921932 161.076 
L 338.421932 159.576 
L 339.921932 158.076 
L 338.421932 156.576 
L 336.921932 158.076 
L 335.421932 156.576 
L 333.921932 158.076 
L 335.421932 159.576 
L 333.921932 161.076 
z
" style="fill:#2f9599;stroke:#ffffff;stroke-width:0.48;"/>
    <path clip-path="url(#pd167b990e1)" d="M 342.185568 162.576 
L 343.685568 161.076 
L 345.185568 162.576 
L 346.685568 161.076 
L 345.185568 159.576 
L 346.685568 158.076 
L 345.185568 156.576 
L 343.685568 158.076 
L 342.185568 156.576 
L 340.685568 158.076 
L 342.185568 159.576 
L 340.685568 161.076 
z
" style="fill:#2f9599;stroke:#ffffff;stroke-width:0.48;"/>
    <path clip-path="url(#pd167b990e1)" d="M 348.949205 162.576 
L 350.449205 161.076 
L 351.949205 162.576 
L 353.449205 161.076 
L 351.949205 159.576 
L 353.449205 158.076 
L 351.949205 156.576 
L 350.449205 158.076 
L 348.949205 156.576 
L 347.449205 158.076 
L 348.949205 159.576 
L 347.449205 161.076 
z
" style="fill:#2f9599;stroke:#ffffff;stroke-width:0.48;"/>
    <path clip-path="url(#pd167b990e1)" d="M 355.712841 162.576 
L 357.212841 161.076 
L 358.712841 162.576 
L 360.212841 161.076 
L 358.712841 159.576 
L 360.212841 158.076 
L 358.712841 156.576 
L 357.212841 158.076 
L 355.712841 156.576 
L 354.212841 158.076 
L 355.712841 159.576 
L 354.212841 161.076 
z
" style="fill:#2f9599;stroke:#ffffff;stroke-width:0.48;"/>
    <path clip-path="url(#pd167b990e1)" d="M 362.476477 162.576 
L 363.976477 161.076 
L 365.476477 162.576 
L 366.976477 161.076 
L 365.476477 159.576 
L 366.976477 158.076 
L 365.476477 156.576 
L 363.976477 158.076 
L 362.476477 156.576 
L 360.976477 158.076 
L 362.476477 159.576 
L 360.976477 161.076 
z
" style="fill:#2f9599;stroke:#ffffff;stroke-width:0.48;"/>
    <path clip-path="url(#pd167b990e1)" d="M 369.240114 162.576 
L 370.740114 161.076 
L 372.240114 162.576 
L 373.740114 161.076 
L 372.240114 159.576 
L 373.740114 158.076 
L 372.240114 156.576 
L 370.740114 158.076 
L 369.240114 156.576 
L 367.740114 158.076 
L 369.240114 159.576 
L 367.740114 161.076 
z
" style="fill:#2f9599;stroke:#ffffff;stroke-width:0.48;"/>
    <path clip-path="url(#pd167b990e1)" d="M 376.00375 162.576 
L 377.50375 161.076 
L 379.00375 162.576 
L 380.50375 161.076 
L 379.00375 159.576 
L 380.50375 158.076 
L 379.00375 156.576 
L 377.50375 158.076 
L 376.00375 156.576 
L 374.50375 158.076 
L 376.00375 159.576 
L 374.50375 161.076 
z
" style="fill:#2f9599;stroke:#ffffff;stroke-width:0.48;"/>
    <path clip-path="url(#pd167b990e1)" d="M 382.767386 162.576 
L 384.267386 161.076 
L 385.767386 162.576 
L 387.267386 161.076 
L 385.767386 159.576 
L 387.267386 158.076 
L 385.767386 156.576 
L 384.267386 158.076 
L 382.767386 156.576 
L 381.267386 158.076 
L 382.767386 159.576 
L 381.267386 161.076 
z
" style="fill:#2f9599;stroke:#ffffff;stroke-width:0.48;"/>
    <path clip-path="url(#pd167b990e1)" d="M 389.531023 162.576 
L 391.031023 161.076 
L 392.531023 162.576 
L 394.031023 161.076 
L 392.531023 159.576 
L 394.031023 158.076 
L 392.531023 156.576 
L 391.031023 158.076 
L 389.531023 156.576 
L 388.031023 158.076 
L 389.531023 159.576 
L 388.031023 161.076 
z
" style="fill:#2f9599;stroke:#ffffff;stroke-width:0.48;"/>
    <path clip-path="url(#pd167b990e1)" d="M 64.255157 124.69468 
L 64.255157 128.93732 
L 68.497798 128.93732 
L 68.497798 124.69468 
z
" style="fill:#a7226e;stroke:#ffffff;stroke-width:0.48;"/>
    <path clip-path="url(#pd167b990e1)" d="M 71.018793 124.69468 
L 71.018793 128.93732 
L 75.261434 128.93732 
L 75.261434 124.69468 
z
" style="fill:#a7226e;stroke:#ffffff;stroke-width:0.48;"/>
    <path clip-path="url(#pd167b990e1)" d="M 77.78243 124.69468 
L 77.78243 128.93732 
L 82.02507 128.93732 
L 82.02507 124.69468 
z
" style="fill:#a7226e;stroke:#ffffff;stroke-width:0.48;"/>
    <path clip-path="url(#pd167b990e1)" d="M 84.546066 124.69468 
L 84.546066 128.93732 
L 88.788707 128.93732 
L 88.788707 124.69468 
z
" style="fill:#a7226e;stroke:#ffffff;stroke-width:0.48;"/>
    <path clip-path="url(#pd167b990e1)" d="M 91.309702 124.69468 
L 91.309702 128.93732 
L 95.552343 128.93732 
L 95.552343 124.69468 
z
" style="fill:#a7226e;stroke:#ffffff;stroke-width:0.48;"/>
    <path clip-path="url(#pd167b990e1)" d="M 98.073339 138.13468 
L 98.073339 142.37732 
L 102.315979 142.37732 
L 102.315979 138.13468 
z
" style="fill:#a7226e;stroke:#ffffff;stroke-width:0.48;"/>
    <path clip-path="url(#pd167b990e1)" d="M 104.836975 138.13468 
L 104.836975 142.37732 
L 109.079616 142.37732 
L 109.079616 138.13468 
z
" style="fill:#a7226e;stroke:#ffffff;stroke-width:0.48;"/>
    <path clip-path="url(#pd167b990e1)" d="M 111.600611 138.13468 
L 111.600611 142.37732 
L 115.843252 142.37732 
L 115.843252 138.13468 
z
" style="fill:#a7226e;stroke:#ffffff;stroke-width:0.48;"/>
    <path clip-path="url(#pd167b990e1)" d="M 118.364248 151.57468 
L 118.364248 155.81732 
L 122.606889 155.81732 
L 122.606889 151.57468 
z
" style="fill:#a7226e;stroke:#ffffff;stroke-width:0.48;"/>
    <path clip-path="url(#pd167b990e1)" d="M 125.127884 151.57468 
L 125.127884 155.81732 
L 129.370525 155.81732 
L 129.370525 151.57468 
z
" style="fill:#a7226e;stroke:#ffffff;stroke-width:0.48;"/>
    <path clip-path="url(#pd167b990e1)" d="M 131.891521 165.01468 
L 131.891521 169.25732 
L 136.134161 169.25732 
L 136.134161 165.01468 
z
" style="fill:#a7226e;stroke:#ffffff;stroke-width:0.48;"/>
    <path clip-path="url(#pd167b990e1)" d="M 138.655157 138.13468 
L 138.655157 142.37732 
L 142.897798 142.37732 
L 142.897798 138.13468 
z
" style="fill:#a7226e;stroke:#ffffff;stroke-width:0.48;"/>
    <path clip-path="url(#pd167b990e1)" d="M 145.418793 138.13468 
L 145.418793 142.37732 
L 149.661434 142.37732 
L 149.661434 138.13468 
z
" style="fill:#a7226e;stroke:#ffffff;stroke-width:0.48;"/>
    <path clip-path="url(#pd167b990e1)" d="M 152.18243 138.13468 
L 152.18243 142.37732 
L 156.42507 142.37732 
L 156.42507 138.13468 
z
" style="fill:#a7226e;stroke:#ffffff;stroke-width:0.48;"/>
    <path clip-path="url(#pd167b990e1)" d="M 158.946066 124.69468 
L 158.946066 128.93732 
L 163.188707 128.93732 
L 163.188707 124.69468 
z
" style="fill:#a7226e;stroke:#ffffff;stroke-width:0.48;"/>
    <path clip-path="url(#pd167b990e1)" d="M 165.709702 138.13468 
L 165.709702 142.37732 
L 169.952343 142.37732 
L 169.952343 138.13468 
z
" style="fill:#a7226e;stroke:#ffffff;stroke-width:0.48;"/>
    <path clip-path="url(#pd167b990e1)" d="M 172.473339 124.69468 
L 172.473339 128.93732 
L 176.715979 128.93732 
L 176.715979 124.69468 
z
" style="fill:#a7226e;stroke:#ffffff;stroke-width:0.48;"/>
    <path clip-path="url(#pd167b990e1)" d="M 179.236975 124.69468 
L 179.236975 128.93732 
L 183.479616 128.93732 
L 183.479616 124.69468 
z
" style="fill:#a7226e;stroke:#ffffff;stroke-width:0.48;"/>
    <path clip-path="url(#pd167b990e1)" d="M 186.000611 30.61468 
L 186.000611 34.85732 
L 190.243252 34.85732 
L 190.243252 30.61468 
z
" style="fill:#a7226e;stroke:#ffffff;stroke-width:0.48;"/>
    <path clip-path="url(#pd167b990e1)" d="M 192.764248 17.17468 
L 192.764248 21.41732 
L 197.006889 21.41732 
L 197.006889 17.17468 
z
" style="fill:#a7226e;stroke:#ffffff;stroke-width:0.48;"/>
    <path clip-path="url(#pd167b990e1)" d="M 199.527884 17.17468 
L 199.527884 21.41732 
L 203.770525 21.41732 
L 203.770525 17.17468 
z
" style="fill:#a7226e;stroke:#ffffff;stroke-width:0.48;"/>
    <path clip-path="url(#pd167b990e1)" d="M 206.291521 17.17468 
L 206.291521 21.41732 
L 210.534161 21.41732 
L 210.534161 17.17468 
z
" style="fill:#a7226e;stroke:#ffffff;stroke-width:0.48;"/>
    <path clip-path="url(#pd167b990e1)" d="M 213.055157 17.17468 
L 213.055157 21.41732 
L 217.297798 21.41732 
L 217.297798 17.17468 
z
" style="fill:#a7226e;stroke:#ffffff;stroke-width:0.48;"/>
    <path clip-path="url(#pd167b990e1)" d="M 219.818793 57.49468 
L 219.818793 61.73732 
L 224.061434 61.73732 
L 224.061434 57.49468 
z
" style="fill:#a7226e;stroke:#ffffff;stroke-width:0.48;"/>
    <path clip-path="url(#pd167b990e1)" d="M 226.58243 57.49468 
L 226.58243 61.73732 
L 230.82507 61.73732 
L 230.82507 57.49468 
z
" style="fill:#a7226e;stroke:#ffffff;stroke-width:0.48;"/>
    <path clip-path="url(#pd167b990e1)" d="M 233.346066 57.49468 
L 233.346066 61.73732 
L 237.588707 61.73732 
L 237.588707 57.49468 
z
" style="fill:#a7226e;stroke:#ffffff;stroke-width:0.48;"/>
    <path clip-path="url(#pd167b990e1)" d="M 240.109702 17.17468 
L 240.109702 21.41732 
L 244.352343 21.41732 
L 244.352343 17.17468 
z
" style="fill:#a7226e;stroke:#ffffff;stroke-width:0.48;"/>
    <path clip-path="url(#pd167b990e1)" d="M 246.873339 17.17468 
L 246.873339 21.41732 
L 251.115979 21.41732 
L 251.115979 17.17468 
z
" style="fill:#a7226e;stroke:#ffffff;stroke-width:0.48;"/>
    <path clip-path="url(#pd167b990e1)" d="M 253.636975 17.17468 
L 253.636975 21.41732 
L 257.879616 21.41732 
L 257.879616 17.17468 
z
" style="fill:#a7226e;stroke:#ffffff;stroke-width:0.48;"/>
    <path clip-path="url(#pd167b990e1)" d="M 260.400611 17.17468 
L 260.400611 21.41732 
L 264.643252 21.41732 
L 264.643252 17.17468 
z
" style="fill:#a7226e;stroke:#ffffff;stroke-width:0.48;"/>
    <path clip-path="url(#pd167b990e1)" d="M 267.164248 17.17468 
L 267.164248 21.41732 
L 271.406889 21.41732 
L 271.406889 17.17468 
z
" style="fill:#a7226e;stroke:#ffffff;stroke-width:0.48;"/>
    <path clip-path="url(#pd167b990e1)" d="M 273.927884 17.17468 
L 273.927884 21.41732 
L 278.170525 21.41732 
L 278.170525 17.17468 
z
" style="fill:#a7226e;stroke:#ffffff;stroke-width:0.48;"/>
    <path clip-path="url(#pd167b990e1)" d="M 280.691521 17.17468 
L 280.691521 21.41732 
L 284.934161 21.41732 
L 284.934161 17.17468 
z
" style="fill:#a7226e;stroke:#ffffff;stroke-width:0.48;"/>
    <path clip-path="url(#pd167b990e1)" d="M 287.455157 259.09468 
L 287.455157 263.33732 
L 291.697798 263.33732 
L 291.697798 259.09468 
z
" style="fill:#a7226e;stroke:#ffffff;stroke-width:0.48;"/>
    <path clip-path="url(#pd167b990e1)" d="M 294.218793 259.09468 
L 294.218793 263.33732 
L 298.461434 263.33732 
L 298.461434 259.09468 
z
" style="fill:#a7226e;stroke:#ffffff;stroke-width:0.48;"/>
    <path clip-path="url(#pd167b990e1)" d="M 300.98243 259.09468 
L 300.98243 263.33732 
L 305.22507 263.33732 
L 305.22507 259.09468 
z
" style="fill:#a7226e;stroke:#ffffff;stroke-width:0.48;"/>
    <path clip-path="url(#pd167b990e1)" d="M 307.746066 259.09468 
L 307.746066 263.33732 
L 311.988707 263.33732 
L 311.988707 259.09468 
z
" style="fill:#a7226e;stroke:#ffffff;stroke-width:0.48;"/>
    <path clip-path="url(#pd167b990e1)" d="M 314.509702 259.09468 
L 314.509702 263.33732 
L 318.752343 263.33732 
L 318.752343 259.09468 
z
" style="fill:#a7226e;stroke:#ffffff;stroke-width:0.48;"/>
    <path clip-path="url(#pd167b990e1)" d="M 321.273339 259.09468 
L 321.273339 263.33732 
L 325.515979 263.33732 
L 325.515979 259.09468 
z
" style="fill:#a7226e;stroke:#ffffff;stroke-width:0.48;"/>
    <path clip-path="url(#pd167b990e1)" d="M 328.036975 259.09468 
L 328.036975 263.33732 
L 332.279616 263.33732 
L 332.279616 259.09468 
z
" style="fill:#a7226e;stroke:#ffffff;stroke-width:0.48;"/>
    <path clip-path="url(#pd167b990e1)" d="M 334.800611 259.09468 
L 334.800611 263.33732 
L 339.043252 263.33732 
L 339.043252 259.09468 
z
" style="fill:#a7226e;stroke:#ffffff;stroke-width:0.48;"/>
    <path clip-path="url(#pd167b990e1)" d="M 341.564248 259.09468 
L 341.564248 263.33732 
L 345.806889 263.33732 
L 345.806889 259.09468 
z
" style="fill:#a7226e;stroke:#ffffff;stroke-width:0.48;"/>
    <path clip-path="url(#pd167b990e1)" d="M 348.327884 259.09468 
L 348.327884 263.33732 
L 352.570525 263.33732 
L 352.570525 259.09468 
z
" style="fill:#a7226e;stroke:#ffffff;stroke-width:0.48;"/>
    <path clip-path="url(#pd167b990e1)" d="M 355.091521 259.09468 
L 355.091521 263.33732 
L 359.334161 263.33732 
L 359.334161 259.09468 
z
" style="fill:#a7226e;stroke:#ffffff;stroke-width:0.48;"/>
    <path clip-path="url(#pd167b990e1)" d="M 361.855157 259.09468 
L 361.855157 263.33732 
L 366.097798 263.33732 
L 366.097798 259.09468 
z
" style="fill:#a7226e;stroke:#ffffff;stroke-width:0.48;"/>
    <path clip-path="url(#pd167b990e1)" d="M 368.618793 259.09468 
L 368.618793 263.33732 
L 372.861434 263.33732 
L 372.861434 259.09468 
z
" style="fill:#a7226e;stroke:#ffffff;stroke-width:0.48;"/>
    <path clip-path="url(#pd167b990e1)" d="M 375.38243 259.09468 
L 375.38243 263.33732 
L 379.62507 263.33732 
L 379.62507 259.09468 
z
" style="fill:#a7226e;stroke:#ffffff;stroke-width:0.48;"/>
    <path clip-path="url(#pd167b990e1)" d="M 382.146066 259.09468 
L 382.146066 263.33732 
L 386.388707 263.33732 
L 386.388707 259.09468 
z
" style="fill:#a7226e;stroke:#ffffff;stroke-width:0.48;"/>
    <path clip-path="url(#pd167b990e1)" d="M 388.909702 259.09468 
L 388.909702 263.33732 
L 393.152343 263.33732 
L 393.152343 259.09468 
z
" style="fill:#a7226e;stroke:#ffffff;stroke-width:0.48;"/>
   </g>
   <g id="PathCollection_2"/>
   <g id="PathCollection_3"/>
   <g id="PathCollection_4"/>
   <g id="matplotlib.axis_1">
    <g id="xtick_1">
     <g id="line2d_1">
      <defs>
       <path d="M 0 0 
L 0 3.5 
" id="m2f645770f0" style="stroke:#000000;stroke-width:0.8;"/>
      </defs>
      <g>
       <use style="stroke:#000000;stroke-width:0.8;" x="59.612841" xlink:href="#m2f645770f0" y="273.312"/>
      </g>
     </g>
     <g id="text_1">
      <!-- 0.0 -->
      <g transform="translate(51.661278 287.910437)scale(0.1 -0.1)">
       <defs>
        <path d="M 31.78125 66.40625 
Q 24.171875 66.40625 20.328125 58.90625 
Q 16.5 51.421875 16.5 36.375 
Q 16.5 21.390625 20.328125 13.890625 
Q 24.171875 6.390625 31.78125 6.390625 
Q 39.453125 6.390625 43.28125 13.890625 
Q 47.125 21.390625 47.125 36.375 
Q 47.125 51.421875 43.28125 58.90625 
Q 39.453125 66.40625 31.78125 66.40625 
z
M 31.78125 74.21875 
Q 44.046875 74.21875 50.515625 64.515625 
Q 56.984375 54.828125 56.984375 36.375 
Q 56.984375 17.96875 50.515625 8.265625 
Q 44.046875 -1.421875 31.78125 -1.421875 
Q 19.53125 -1.421875 13.0625 8.265625 
Q 6.59375 17.96875 6.59375 36.375 
Q 6.59375 54.828125 13.0625 64.515625 
Q 19.53125 74.21875 31.78125 74.21875 
z
" id="DejaVuSans-48"/>
        <path d="M 10.6875 12.40625 
L 21 12.40625 
L 21 0 
L 10.6875 0 
z
" id="DejaVuSans-46"/>
       </defs>
       <use xlink:href="#DejaVuSans-48"/>
       <use x="63.623047" xlink:href="#DejaVuSans-46"/>
       <use x="95.410156" xlink:href="#DejaVuSans-48"/>
      </g>
     </g>
    </g>
    <g id="xtick_2">
     <g id="line2d_2">
      <g>
       <use style="stroke:#000000;stroke-width:0.8;" x="127.249205" xlink:href="#m2f645770f0" y="273.312"/>
      </g>
     </g>
     <g id="text_2">
      <!-- 0.2 -->
      <g transform="translate(119.297642 287.910437)scale(0.1 -0.1)">
       <defs>
        <path d="M 19.1875 8.296875 
L 53.609375 8.296875 
L 53.609375 0 
L 7.328125 0 
L 7.328125 8.296875 
Q 12.9375 14.109375 22.625 23.890625 
Q 32.328125 33.6875 34.8125 36.53125 
Q 39.546875 41.84375 41.421875 45.53125 
Q 43.3125 49.21875 43.3125 52.78125 
Q 43.3125 58.59375 39.234375 62.25 
Q 35.15625 65.921875 28.609375 65.921875 
Q 23.96875 65.921875 18.8125 64.3125 
Q 13.671875 62.703125 7.8125 59.421875 
L 7.8125 69.390625 
Q 13.765625 71.78125 18.9375 73 
Q 24.125 74.21875 28.421875 74.21875 
Q 39.75 74.21875 46.484375 68.546875 
Q 53.21875 62.890625 53.21875 53.421875 
Q 53.21875 48.921875 51.53125 44.890625 
Q 49.859375 40.875 45.40625 35.40625 
Q 44.1875 33.984375 37.640625 27.21875 
Q 31.109375 20.453125 19.1875 8.296875 
z
" id="DejaVuSans-50"/>
       </defs>
       <use xlink:href="#DejaVuSans-48"/>
       <use x="63.623047" xlink:href="#DejaVuSans-46"/>
       <use x="95.410156" xlink:href="#DejaVuSans-50"/>
      </g>
     </g>
    </g>
    <g id="xtick_3">
     <g id="line2d_3">
      <g>
       <use style="stroke:#000000;stroke-width:0.8;" x="194.885568" xlink:href="#m2f645770f0" y="273.312"/>
      </g>
     </g>
     <g id="text_3">
      <!-- 0.4 -->
      <g transform="translate(186.934006 287.910437)scale(0.1 -0.1)">
       <defs>
        <path d="M 37.796875 64.3125 
L 12.890625 25.390625 
L 37.796875 25.390625 
z
M 35.203125 72.90625 
L 47.609375 72.90625 
L 47.609375 25.390625 
L 58.015625 25.390625 
L 58.015625 17.1875 
L 47.609375 17.1875 
L 47.609375 0 
L 37.796875 0 
L 37.796875 17.1875 
L 4.890625 17.1875 
L 4.890625 26.703125 
z
" id="DejaVuSans-52"/>
       </defs>
       <use xlink:href="#DejaVuSans-48"/>
       <use x="63.623047" xlink:href="#DejaVuSans-46"/>
       <use x="95.410156" xlink:href="#DejaVuSans-52"/>
      </g>
     </g>
    </g>
    <g id="xtick_4">
     <g id="line2d_4">
      <g>
       <use style="stroke:#000000;stroke-width:0.8;" x="262.521932" xlink:href="#m2f645770f0" y="273.312"/>
      </g>
     </g>
     <g id="text_4">
      <!-- 0.6 -->
      <g transform="translate(254.570369 287.910437)scale(0.1 -0.1)">
       <defs>
        <path d="M 33.015625 40.375 
Q 26.375 40.375 22.484375 35.828125 
Q 18.609375 31.296875 18.609375 23.390625 
Q 18.609375 15.53125 22.484375 10.953125 
Q 26.375 6.390625 33.015625 6.390625 
Q 39.65625 6.390625 43.53125 10.953125 
Q 47.40625 15.53125 47.40625 23.390625 
Q 47.40625 31.296875 43.53125 35.828125 
Q 39.65625 40.375 33.015625 40.375 
z
M 52.59375 71.296875 
L 52.59375 62.3125 
Q 48.875 64.0625 45.09375 64.984375 
Q 41.3125 65.921875 37.59375 65.921875 
Q 27.828125 65.921875 22.671875 59.328125 
Q 17.53125 52.734375 16.796875 39.40625 
Q 19.671875 43.65625 24.015625 45.921875 
Q 28.375 48.1875 33.59375 48.1875 
Q 44.578125 48.1875 50.953125 41.515625 
Q 57.328125 34.859375 57.328125 23.390625 
Q 57.328125 12.15625 50.6875 5.359375 
Q 44.046875 -1.421875 33.015625 -1.421875 
Q 20.359375 -1.421875 13.671875 8.265625 
Q 6.984375 17.96875 6.984375 36.375 
Q 6.984375 53.65625 15.1875 63.9375 
Q 23.390625 74.21875 37.203125 74.21875 
Q 40.921875 74.21875 44.703125 73.484375 
Q 48.484375 72.75 52.59375 71.296875 
z
" id="DejaVuSans-54"/>
       </defs>
       <use xlink:href="#DejaVuSans-48"/>
       <use x="63.623047" xlink:href="#DejaVuSans-46"/>
       <use x="95.410156" xlink:href="#DejaVuSans-54"/>
      </g>
     </g>
    </g>
    <g id="xtick_5">
     <g id="line2d_5">
      <g>
       <use style="stroke:#000000;stroke-width:0.8;" x="330.158295" xlink:href="#m2f645770f0" y="273.312"/>
      </g>
     </g>
     <g id="text_5">
      <!-- 0.8 -->
      <g transform="translate(322.206733 287.910437)scale(0.1 -0.1)">
       <defs>
        <path d="M 31.78125 34.625 
Q 24.75 34.625 20.71875 30.859375 
Q 16.703125 27.09375 16.703125 20.515625 
Q 16.703125 13.921875 20.71875 10.15625 
Q 24.75 6.390625 31.78125 6.390625 
Q 38.8125 6.390625 42.859375 10.171875 
Q 46.921875 13.96875 46.921875 20.515625 
Q 46.921875 27.09375 42.890625 30.859375 
Q 38.875 34.625 31.78125 34.625 
z
M 21.921875 38.8125 
Q 15.578125 40.375 12.03125 44.71875 
Q 8.5 49.078125 8.5 55.328125 
Q 8.5 64.0625 14.71875 69.140625 
Q 20.953125 74.21875 31.78125 74.21875 
Q 42.671875 74.21875 48.875 69.140625 
Q 55.078125 64.0625 55.078125 55.328125 
Q 55.078125 49.078125 51.53125 44.71875 
Q 48 40.375 41.703125 38.8125 
Q 48.828125 37.15625 52.796875 32.3125 
Q 56.78125 27.484375 56.78125 20.515625 
Q 56.78125 9.90625 50.3125 4.234375 
Q 43.84375 -1.421875 31.78125 -1.421875 
Q 19.734375 -1.421875 13.25 4.234375 
Q 6.78125 9.90625 6.78125 20.515625 
Q 6.78125 27.484375 10.78125 32.3125 
Q 14.796875 37.15625 21.921875 38.8125 
z
M 18.3125 54.390625 
Q 18.3125 48.734375 21.84375 45.5625 
Q 25.390625 42.390625 31.78125 42.390625 
Q 38.140625 42.390625 41.71875 45.5625 
Q 45.3125 48.734375 45.3125 54.390625 
Q 45.3125 60.0625 41.71875 63.234375 
Q 38.140625 66.40625 31.78125 66.40625 
Q 25.390625 66.40625 21.84375 63.234375 
Q 18.3125 60.0625 18.3125 54.390625 
z
" id="DejaVuSans-56"/>
       </defs>
       <use xlink:href="#DejaVuSans-48"/>
       <use x="63.623047" xlink:href="#DejaVuSans-46"/>
       <use x="95.410156" xlink:href="#DejaVuSans-56"/>
      </g>
     </g>
    </g>
    <g id="xtick_6">
     <g id="line2d_6">
      <g>
       <use style="stroke:#000000;stroke-width:0.8;" x="397.794659" xlink:href="#m2f645770f0" y="273.312"/>
      </g>
     </g>
     <g id="text_6">
      <!-- 1.0 -->
      <g transform="translate(389.843097 287.910437)scale(0.1 -0.1)">
       <defs>
        <path d="M 12.40625 8.296875 
L 28.515625 8.296875 
L 28.515625 63.921875 
L 10.984375 60.40625 
L 10.984375 69.390625 
L 28.421875 72.90625 
L 38.28125 72.90625 
L 38.28125 8.296875 
L 54.390625 8.296875 
L 54.390625 0 
L 12.40625 0 
z
" id="DejaVuSans-49"/>
       </defs>
       <use xlink:href="#DejaVuSans-49"/>
       <use x="63.623047" xlink:href="#DejaVuSans-46"/>
       <use x="95.410156" xlink:href="#DejaVuSans-48"/>
      </g>
     </g>
    </g>
    <g id="text_7">
     <!-- cutoff -->
     <g transform="translate(214.245938 301.588562)scale(0.1 -0.1)">
      <defs>
       <path d="M 48.78125 52.59375 
L 48.78125 44.1875 
Q 44.96875 46.296875 41.140625 47.34375 
Q 37.3125 48.390625 33.40625 48.390625 
Q 24.65625 48.390625 19.8125 42.84375 
Q 14.984375 37.3125 14.984375 27.296875 
Q 14.984375 17.28125 19.8125 11.734375 
Q 24.65625 6.203125 33.40625 6.203125 
Q 37.3125 6.203125 41.140625 7.25 
Q 44.96875 8.296875 48.78125 10.40625 
L 48.78125 2.09375 
Q 45.015625 0.34375 40.984375 -0.53125 
Q 36.96875 -1.421875 32.421875 -1.421875 
Q 20.0625 -1.421875 12.78125 6.34375 
Q 5.515625 14.109375 5.515625 27.296875 
Q 5.515625 40.671875 12.859375 48.328125 
Q 20.21875 56 33.015625 56 
Q 37.15625 56 41.109375 55.140625 
Q 45.0625 54.296875 48.78125 52.59375 
z
" id="DejaVuSans-99"/>
       <path d="M 8.5 21.578125 
L 8.5 54.6875 
L 17.484375 54.6875 
L 17.484375 21.921875 
Q 17.484375 14.15625 20.5 10.265625 
Q 23.53125 6.390625 29.59375 6.390625 
Q 36.859375 6.390625 41.078125 11.03125 
Q 45.3125 15.671875 45.3125 23.6875 
L 45.3125 54.6875 
L 54.296875 54.6875 
L 54.296875 0 
L 45.3125 0 
L 45.3125 8.40625 
Q 42.046875 3.421875 37.71875 1 
Q 33.40625 -1.421875 27.6875 -1.421875 
Q 18.265625 -1.421875 13.375 4.4375 
Q 8.5 10.296875 8.5 21.578125 
z
M 31.109375 56 
z
" id="DejaVuSans-117"/>
       <path d="M 18.3125 70.21875 
L 18.3125 54.6875 
L 36.8125 54.6875 
L 36.8125 47.703125 
L 18.3125 47.703125 
L 18.3125 18.015625 
Q 18.3125 11.328125 20.140625 9.421875 
Q 21.96875 7.515625 27.59375 7.515625 
L 36.8125 7.515625 
L 36.8125 0 
L 27.59375 0 
Q 17.1875 0 13.234375 3.875 
Q 9.28125 7.765625 9.28125 18.015625 
L 9.28125 47.703125 
L 2.6875 47.703125 
L 2.6875 54.6875 
L 9.28125 54.6875 
L 9.28125 70.21875 
z
" id="DejaVuSans-116"/>
       <path d="M 30.609375 48.390625 
Q 23.390625 48.390625 19.1875 42.75 
Q 14.984375 37.109375 14.984375 27.296875 
Q 14.984375 17.484375 19.15625 11.84375 
Q 23.34375 6.203125 30.609375 6.203125 
Q 37.796875 6.203125 41.984375 11.859375 
Q 46.1875 17.53125 46.1875 27.296875 
Q 46.1875 37.015625 41.984375 42.703125 
Q 37.796875 48.390625 30.609375 48.390625 
z
M 30.609375 56 
Q 42.328125 56 49.015625 48.375 
Q 55.71875 40.765625 55.71875 27.296875 
Q 55.71875 13.875 49.015625 6.21875 
Q 42.328125 -1.421875 30.609375 -1.421875 
Q 18.84375 -1.421875 12.171875 6.21875 
Q 5.515625 13.875 5.515625 27.296875 
Q 5.515625 40.765625 12.171875 48.375 
Q 18.84375 56 30.609375 56 
z
" id="DejaVuSans-111"/>
       <path d="M 37.109375 75.984375 
L 37.109375 68.5 
L 28.515625 68.5 
Q 23.6875 68.5 21.796875 66.546875 
Q 19.921875 64.59375 19.921875 59.515625 
L 19.921875 54.6875 
L 34.71875 54.6875 
L 34.71875 47.703125 
L 19.921875 47.703125 
L 19.921875 0 
L 10.890625 0 
L 10.890625 47.703125 
L 2.296875 47.703125 
L 2.296875 54.6875 
L 10.890625 54.6875 
L 10.890625 58.5 
Q 10.890625 67.625 15.140625 71.796875 
Q 19.390625 75.984375 28.609375 75.984375 
z
" id="DejaVuSans-102"/>
      </defs>
      <use xlink:href="#DejaVuSans-99"/>
      <use x="54.980469" xlink:href="#DejaVuSans-117"/>
      <use x="118.359375" xlink:href="#DejaVuSans-116"/>
      <use x="157.568359" xlink:href="#DejaVuSans-111"/>
      <use x="218.75" xlink:href="#DejaVuSans-102"/>
      <use x="253.955078" xlink:href="#DejaVuSans-102"/>
     </g>
    </g>
   </g>
   <g id="matplotlib.axis_2">
    <g id="ytick_1">
     <g id="line2d_7">
      <defs>
       <path d="M 0 0 
L -3.5 0 
" id="mc8689fb195" style="stroke:#000000;stroke-width:0.8;"/>
      </defs>
      <g>
       <use style="stroke:#000000;stroke-width:0.8;" x="50.14375" xlink:href="#mc8689fb195" y="266.592"/>
      </g>
     </g>
     <g id="text_8">
      <!-- 0.40 -->
      <g transform="translate(20.878125 270.391219)scale(0.1 -0.1)">
       <use xlink:href="#DejaVuSans-48"/>
       <use x="63.623047" xlink:href="#DejaVuSans-46"/>
       <use x="95.410156" xlink:href="#DejaVuSans-52"/>
       <use x="159.033203" xlink:href="#DejaVuSans-48"/>
      </g>
     </g>
    </g>
    <g id="ytick_2">
     <g id="line2d_8">
      <g>
       <use style="stroke:#000000;stroke-width:0.8;" x="50.14375" xlink:href="#mc8689fb195" y="233.664"/>
      </g>
     </g>
     <g id="text_9">
      <!-- 0.45 -->
      <g transform="translate(20.878125 237.463219)scale(0.1 -0.1)">
       <defs>
        <path d="M 10.796875 72.90625 
L 49.515625 72.90625 
L 49.515625 64.59375 
L 19.828125 64.59375 
L 19.828125 46.734375 
Q 21.96875 47.46875 24.109375 47.828125 
Q 26.265625 48.1875 28.421875 48.1875 
Q 40.625 48.1875 47.75 41.5 
Q 54.890625 34.8125 54.890625 23.390625 
Q 54.890625 11.625 47.5625 5.09375 
Q 40.234375 -1.421875 26.90625 -1.421875 
Q 22.3125 -1.421875 17.546875 -0.640625 
Q 12.796875 0.140625 7.71875 1.703125 
L 7.71875 11.625 
Q 12.109375 9.234375 16.796875 8.0625 
Q 21.484375 6.890625 26.703125 6.890625 
Q 35.15625 6.890625 40.078125 11.328125 
Q 45.015625 15.765625 45.015625 23.390625 
Q 45.015625 31 40.078125 35.4375 
Q 35.15625 39.890625 26.703125 39.890625 
Q 22.75 39.890625 18.8125 39.015625 
Q 14.890625 38.140625 10.796875 36.28125 
z
" id="DejaVuSans-53"/>
       </defs>
       <use xlink:href="#DejaVuSans-48"/>
       <use x="63.623047" xlink:href="#DejaVuSans-46"/>
       <use x="95.410156" xlink:href="#DejaVuSans-52"/>
       <use x="159.033203" xlink:href="#DejaVuSans-53"/>
      </g>
     </g>
    </g>
    <g id="ytick_3">
     <g id="line2d_9">
      <g>
       <use style="stroke:#000000;stroke-width:0.8;" x="50.14375" xlink:href="#mc8689fb195" y="200.736"/>
      </g>
     </g>
     <g id="text_10">
      <!-- 0.50 -->
      <g transform="translate(20.878125 204.535219)scale(0.1 -0.1)">
       <use xlink:href="#DejaVuSans-48"/>
       <use x="63.623047" xlink:href="#DejaVuSans-46"/>
       <use x="95.410156" xlink:href="#DejaVuSans-53"/>
       <use x="159.033203" xlink:href="#DejaVuSans-48"/>
      </g>
     </g>
    </g>
    <g id="ytick_4">
     <g id="line2d_10">
      <g>
       <use style="stroke:#000000;stroke-width:0.8;" x="50.14375" xlink:href="#mc8689fb195" y="167.808"/>
      </g>
     </g>
     <g id="text_11">
      <!-- 0.55 -->
      <g transform="translate(20.878125 171.607219)scale(0.1 -0.1)">
       <use xlink:href="#DejaVuSans-48"/>
       <use x="63.623047" xlink:href="#DejaVuSans-46"/>
       <use x="95.410156" xlink:href="#DejaVuSans-53"/>
       <use x="159.033203" xlink:href="#DejaVuSans-53"/>
      </g>
     </g>
    </g>
    <g id="ytick_5">
     <g id="line2d_11">
      <g>
       <use style="stroke:#000000;stroke-width:0.8;" x="50.14375" xlink:href="#mc8689fb195" y="134.88"/>
      </g>
     </g>
     <g id="text_12">
      <!-- 0.60 -->
      <g transform="translate(20.878125 138.679219)scale(0.1 -0.1)">
       <use xlink:href="#DejaVuSans-48"/>
       <use x="63.623047" xlink:href="#DejaVuSans-46"/>
       <use x="95.410156" xlink:href="#DejaVuSans-54"/>
       <use x="159.033203" xlink:href="#DejaVuSans-48"/>
      </g>
     </g>
    </g>
    <g id="ytick_6">
     <g id="line2d_12">
      <g>
       <use style="stroke:#000000;stroke-width:0.8;" x="50.14375" xlink:href="#mc8689fb195" y="101.952"/>
      </g>
     </g>
     <g id="text_13">
      <!-- 0.65 -->
      <g transform="translate(20.878125 105.751219)scale(0.1 -0.1)">
       <use xlink:href="#DejaVuSans-48"/>
       <use x="63.623047" xlink:href="#DejaVuSans-46"/>
       <use x="95.410156" xlink:href="#DejaVuSans-54"/>
       <use x="159.033203" xlink:href="#DejaVuSans-53"/>
      </g>
     </g>
    </g>
    <g id="ytick_7">
     <g id="line2d_13">
      <g>
       <use style="stroke:#000000;stroke-width:0.8;" x="50.14375" xlink:href="#mc8689fb195" y="69.024"/>
      </g>
     </g>
     <g id="text_14">
      <!-- 0.70 -->
      <g transform="translate(20.878125 72.823219)scale(0.1 -0.1)">
       <defs>
        <path d="M 8.203125 72.90625 
L 55.078125 72.90625 
L 55.078125 68.703125 
L 28.609375 0 
L 18.3125 0 
L 43.21875 64.59375 
L 8.203125 64.59375 
z
" id="DejaVuSans-55"/>
       </defs>
       <use xlink:href="#DejaVuSans-48"/>
       <use x="63.623047" xlink:href="#DejaVuSans-46"/>
       <use x="95.410156" xlink:href="#DejaVuSans-55"/>
       <use x="159.033203" xlink:href="#DejaVuSans-48"/>
      </g>
     </g>
    </g>
    <g id="ytick_8">
     <g id="line2d_14">
      <g>
       <use style="stroke:#000000;stroke-width:0.8;" x="50.14375" xlink:href="#mc8689fb195" y="36.096"/>
      </g>
     </g>
     <g id="text_15">
      <!-- 0.75 -->
      <g transform="translate(20.878125 39.895219)scale(0.1 -0.1)">
       <use xlink:href="#DejaVuSans-48"/>
       <use x="63.623047" xlink:href="#DejaVuSans-46"/>
       <use x="95.410156" xlink:href="#DejaVuSans-55"/>
       <use x="159.033203" xlink:href="#DejaVuSans-53"/>
      </g>
     </g>
    </g>
    <g id="text_16">
     <!-- performance -->
     <g transform="translate(14.798438 172.278656)rotate(-90)scale(0.1 -0.1)">
      <defs>
       <path d="M 18.109375 8.203125 
L 18.109375 -20.796875 
L 9.078125 -20.796875 
L 9.078125 54.6875 
L 18.109375 54.6875 
L 18.109375 46.390625 
Q 20.953125 51.265625 25.265625 53.625 
Q 29.59375 56 35.59375 56 
Q 45.5625 56 51.78125 48.09375 
Q 58.015625 40.1875 58.015625 27.296875 
Q 58.015625 14.40625 51.78125 6.484375 
Q 45.5625 -1.421875 35.59375 -1.421875 
Q 29.59375 -1.421875 25.265625 0.953125 
Q 20.953125 3.328125 18.109375 8.203125 
z
M 48.6875 27.296875 
Q 48.6875 37.203125 44.609375 42.84375 
Q 40.53125 48.484375 33.40625 48.484375 
Q 26.265625 48.484375 22.1875 42.84375 
Q 18.109375 37.203125 18.109375 27.296875 
Q 18.109375 17.390625 22.1875 11.75 
Q 26.265625 6.109375 33.40625 6.109375 
Q 40.53125 6.109375 44.609375 11.75 
Q 48.6875 17.390625 48.6875 27.296875 
z
" id="DejaVuSans-112"/>
       <path d="M 56.203125 29.59375 
L 56.203125 25.203125 
L 14.890625 25.203125 
Q 15.484375 15.921875 20.484375 11.0625 
Q 25.484375 6.203125 34.421875 6.203125 
Q 39.59375 6.203125 44.453125 7.46875 
Q 49.3125 8.734375 54.109375 11.28125 
L 54.109375 2.78125 
Q 49.265625 0.734375 44.1875 -0.34375 
Q 39.109375 -1.421875 33.890625 -1.421875 
Q 20.796875 -1.421875 13.15625 6.1875 
Q 5.515625 13.8125 5.515625 26.8125 
Q 5.515625 40.234375 12.765625 48.109375 
Q 20.015625 56 32.328125 56 
Q 43.359375 56 49.78125 48.890625 
Q 56.203125 41.796875 56.203125 29.59375 
z
M 47.21875 32.234375 
Q 47.125 39.59375 43.09375 43.984375 
Q 39.0625 48.390625 32.421875 48.390625 
Q 24.90625 48.390625 20.390625 44.140625 
Q 15.875 39.890625 15.1875 32.171875 
z
" id="DejaVuSans-101"/>
       <path d="M 41.109375 46.296875 
Q 39.59375 47.171875 37.8125 47.578125 
Q 36.03125 48 33.890625 48 
Q 26.265625 48 22.1875 43.046875 
Q 18.109375 38.09375 18.109375 28.8125 
L 18.109375 0 
L 9.078125 0 
L 9.078125 54.6875 
L 18.109375 54.6875 
L 18.109375 46.1875 
Q 20.953125 51.171875 25.484375 53.578125 
Q 30.03125 56 36.53125 56 
Q 37.453125 56 38.578125 55.875 
Q 39.703125 55.765625 41.0625 55.515625 
z
" id="DejaVuSans-114"/>
       <path d="M 52 44.1875 
Q 55.375 50.25 60.0625 53.125 
Q 64.75 56 71.09375 56 
Q 79.640625 56 84.28125 50.015625 
Q 88.921875 44.046875 88.921875 33.015625 
L 88.921875 0 
L 79.890625 0 
L 79.890625 32.71875 
Q 79.890625 40.578125 77.09375 44.375 
Q 74.3125 48.1875 68.609375 48.1875 
Q 61.625 48.1875 57.5625 43.546875 
Q 53.515625 38.921875 53.515625 30.90625 
L 53.515625 0 
L 44.484375 0 
L 44.484375 32.71875 
Q 44.484375 40.625 41.703125 44.40625 
Q 38.921875 48.1875 33.109375 48.1875 
Q 26.21875 48.1875 22.15625 43.53125 
Q 18.109375 38.875 18.109375 30.90625 
L 18.109375 0 
L 9.078125 0 
L 9.078125 54.6875 
L 18.109375 54.6875 
L 18.109375 46.1875 
Q 21.1875 51.21875 25.484375 53.609375 
Q 29.78125 56 35.6875 56 
Q 41.65625 56 45.828125 52.96875 
Q 50 49.953125 52 44.1875 
z
" id="DejaVuSans-109"/>
       <path d="M 34.28125 27.484375 
Q 23.390625 27.484375 19.1875 25 
Q 14.984375 22.515625 14.984375 16.5 
Q 14.984375 11.71875 18.140625 8.90625 
Q 21.296875 6.109375 26.703125 6.109375 
Q 34.1875 6.109375 38.703125 11.40625 
Q 43.21875 16.703125 43.21875 25.484375 
L 43.21875 27.484375 
z
M 52.203125 31.203125 
L 52.203125 0 
L 43.21875 0 
L 43.21875 8.296875 
Q 40.140625 3.328125 35.546875 0.953125 
Q 30.953125 -1.421875 24.3125 -1.421875 
Q 15.921875 -1.421875 10.953125 3.296875 
Q 6 8.015625 6 15.921875 
Q 6 25.140625 12.171875 29.828125 
Q 18.359375 34.515625 30.609375 34.515625 
L 43.21875 34.515625 
L 43.21875 35.40625 
Q 43.21875 41.609375 39.140625 45 
Q 35.0625 48.390625 27.6875 48.390625 
Q 23 48.390625 18.546875 47.265625 
Q 14.109375 46.140625 10.015625 43.890625 
L 10.015625 52.203125 
Q 14.9375 54.109375 19.578125 55.046875 
Q 24.21875 56 28.609375 56 
Q 40.484375 56 46.34375 49.84375 
Q 52.203125 43.703125 52.203125 31.203125 
z
" id="DejaVuSans-97"/>
       <path d="M 54.890625 33.015625 
L 54.890625 0 
L 45.90625 0 
L 45.90625 32.71875 
Q 45.90625 40.484375 42.875 44.328125 
Q 39.84375 48.1875 33.796875 48.1875 
Q 26.515625 48.1875 22.3125 43.546875 
Q 18.109375 38.921875 18.109375 30.90625 
L 18.109375 0 
L 9.078125 0 
L 9.078125 54.6875 
L 18.109375 54.6875 
L 18.109375 46.1875 
Q 21.34375 51.125 25.703125 53.5625 
Q 30.078125 56 35.796875 56 
Q 45.21875 56 50.046875 50.171875 
Q 54.890625 44.34375 54.890625 33.015625 
z
" id="DejaVuSans-110"/>
      </defs>
      <use xlink:href="#DejaVuSans-112"/>
      <use x="63.476562" xlink:href="#DejaVuSans-101"/>
      <use x="125" xlink:href="#DejaVuSans-114"/>
      <use x="166.113281" xlink:href="#DejaVuSans-102"/>
      <use x="201.318359" xlink:href="#DejaVuSans-111"/>
      <use x="262.5" xlink:href="#DejaVuSans-114"/>
      <use x="301.863281" xlink:href="#DejaVuSans-109"/>
      <use x="399.275391" xlink:href="#DejaVuSans-97"/>
      <use x="460.554688" xlink:href="#DejaVuSans-110"/>
      <use x="523.933594" xlink:href="#DejaVuSans-99"/>
      <use x="578.914062" xlink:href="#DejaVuSans-101"/>
     </g>
    </g>
   </g>
   <g id="line2d_15">
    <path clip-path="url(#pd167b990e1)" d="M 66.376477 77.256 
L 73.140114 104.696 
L 79.90375 104.696 
L 86.667386 104.696 
L 93.431023 104.696 
L 100.194659 132.136 
L 106.958295 36.096 
L 113.721932 36.096 
L 120.485568 36.096 
L 127.249205 63.536 
L 134.012841 77.256 
L 140.776477 118.416 
L 147.540114 159.576 
L 154.30375 159.576 
L 161.067386 77.256 
L 167.831023 77.256 
L 174.594659 77.256 
L 181.358295 77.256 
L 188.121932 77.256 
L 194.885568 77.256 
L 201.649205 77.256 
L 208.412841 77.256 
L 215.176477 77.256 
L 221.940114 77.256 
L 228.70375 118.416 
L 235.467386 132.136 
L 242.231023 132.136 
L 248.994659 132.136 
L 255.758295 132.136 
L 262.521932 132.136 
L 269.285568 132.136 
L 276.049205 132.136 
L 282.812841 132.136 
L 289.576477 132.136 
L 296.340114 132.136 
L 303.10375 132.136 
L 309.867386 132.136 
L 316.631023 132.136 
L 323.394659 132.136 
L 330.158295 132.136 
L 336.921932 132.136 
L 343.685568 132.136 
L 350.449205 132.136 
L 357.212841 132.136 
L 363.976477 132.136 
L 370.740114 132.136 
L 377.50375 132.136 
L 384.267386 132.136 
L 391.031023 132.136 
" style="fill:none;stroke:#f26b38;stroke-dasharray:7.4,3.2;stroke-dashoffset:0;stroke-width:2;"/>
   </g>
   <g id="line2d_16">
    <path clip-path="url(#pd167b990e1)" d="M 66.376477 132.136 
L 73.140114 104.696 
L 79.90375 104.696 
L 86.667386 104.696 
L 93.431023 145.856 
L 100.194659 145.856 
L 106.958295 145.856 
L 113.721932 145.856 
L 120.485568 145.856 
L 127.249205 145.856 
L 134.012841 145.856 
L 140.776477 145.856 
L 147.540114 145.856 
L 154.30375 145.856 
L 161.067386 145.856 
L 167.831023 145.856 
L 174.594659 159.576 
L 181.358295 159.576 
L 188.121932 159.576 
L 194.885568 159.576 
L 201.649205 159.576 
L 208.412841 159.576 
L 215.176477 159.576 
L 221.940114 159.576 
L 228.70375 159.576 
L 235.467386 159.576 
L 242.231023 159.576 
L 248.994659 159.576 
L 255.758295 159.576 
L 262.521932 159.576 
L 269.285568 159.576 
L 276.049205 159.576 
L 282.812841 159.576 
L 289.576477 159.576 
L 296.340114 159.576 
L 303.10375 159.576 
L 309.867386 159.576 
L 316.631023 159.576 
L 323.394659 159.576 
L 330.158295 159.576 
L 336.921932 159.576 
L 343.685568 159.576 
L 350.449205 159.576 
L 357.212841 159.576 
L 363.976477 159.576 
L 370.740114 159.576 
L 377.50375 159.576 
L 384.267386 159.576 
L 391.031023 159.576 
" style="fill:none;stroke:#2f9599;stroke-dasharray:2,3.3;stroke-dashoffset:0;stroke-width:2;"/>
   </g>
   <g id="line2d_17">
    <path clip-path="url(#pd167b990e1)" d="M 66.376477 126.816 
L 73.140114 126.816 
L 79.90375 126.816 
L 86.667386 126.816 
L 93.431023 126.816 
L 100.194659 140.256 
L 106.958295 140.256 
L 113.721932 140.256 
L 120.485568 153.696 
L 127.249205 153.696 
L 134.012841 167.136 
L 140.776477 140.256 
L 147.540114 140.256 
L 154.30375 140.256 
L 161.067386 126.816 
L 167.831023 140.256 
L 174.594659 126.816 
L 181.358295 126.816 
L 188.121932 32.736 
L 194.885568 19.296 
L 201.649205 19.296 
L 208.412841 19.296 
L 215.176477 19.296 
L 221.940114 59.616 
L 228.70375 59.616 
L 235.467386 59.616 
L 242.231023 19.296 
L 248.994659 19.296 
L 255.758295 19.296 
L 262.521932 19.296 
L 269.285568 19.296 
L 276.049205 19.296 
L 282.812841 19.296 
L 289.576477 261.216 
L 296.340114 261.216 
L 303.10375 261.216 
L 309.867386 261.216 
L 316.631023 261.216 
L 323.394659 261.216 
L 330.158295 261.216 
L 336.921932 261.216 
L 343.685568 261.216 
L 350.449205 261.216 
L 357.212841 261.216 
L 363.976477 261.216 
L 370.740114 261.216 
L 377.50375 261.216 
L 384.267386 261.216 
L 391.031023 261.216 
" style="fill:none;stroke:#a7226e;stroke-dasharray:12.8,3.2,2,3.2;stroke-dashoffset:0;stroke-width:2;"/>
   </g>
   <g id="patch_3">
    <path d="M 50.14375 273.312 
L 50.14375 7.2 
" style="fill:none;stroke:#000000;stroke-linecap:square;stroke-linejoin:miter;stroke-width:0.8;"/>
   </g>
   <g id="patch_4">
    <path d="M 407.26375 273.312 
L 407.26375 7.2 
" style="fill:none;stroke:#000000;stroke-linecap:square;stroke-linejoin:miter;stroke-width:0.8;"/>
   </g>
   <g id="patch_5">
    <path d="M 50.14375 273.312 
L 407.26375 273.312 
" style="fill:none;stroke:#000000;stroke-linecap:square;stroke-linejoin:miter;stroke-width:0.8;"/>
   </g>
   <g id="patch_6">
    <path d="M 50.14375 7.2 
L 407.26375 7.2 
" style="fill:none;stroke:#000000;stroke-linecap:square;stroke-linejoin:miter;stroke-width:0.8;"/>
   </g>
   <g id="legend_1">
    <g id="patch_7">
     <path d="M 321.790059 43.890912 
L 402.40575 43.890912 
Q 403.79375 43.890912 403.79375 42.502912 
L 403.79375 12.058 
Q 403.79375 10.67 402.40575 10.67 
L 321.790059 10.67 
Q 320.402059 10.67 320.402059 12.058 
L 320.402059 42.502912 
Q 320.402059 43.890912 321.790059 43.890912 
z
" style="fill:#ffffff;opacity:0.8;stroke:#cccccc;stroke-linejoin:miter;"/>
    </g>
    <g id="PathCollection_5">
     <defs>
      <path d="M 0 3 
C 0.795609 3 1.55874 2.683901 2.12132 2.12132 
C 2.683901 1.55874 3 0.795609 3 0 
C 3 -0.795609 2.683901 -1.55874 2.12132 -2.12132 
C 1.55874 -2.683901 0.795609 -3 0 -3 
C -0.795609 -3 -1.55874 -2.683901 -2.12132 -2.12132 
C -2.683901 -1.55874 -3 -0.795609 -3 0 
C -3 0.795609 -2.683901 1.55874 -2.12132 2.12132 
C -1.55874 2.683901 -0.795609 3 0 3 
z
" id="m985c642c92" style="stroke:#f26b38;"/>
     </defs>
     <g>
      <use style="fill:#f26b38;stroke:#f26b38;" x="330.118059" xlink:href="#m985c642c92" y="16.897566"/>
     </g>
    </g>
    <g id="text_17">
     <!-- mean_err -->
     <g transform="translate(342.610059 18.719316)scale(0.0694 -0.0694)">
      <defs>
       <path d="M 50.984375 -16.609375 
L 50.984375 -23.578125 
L -0.984375 -23.578125 
L -0.984375 -16.609375 
z
" id="DejaVuSans-95"/>
      </defs>
      <use xlink:href="#DejaVuSans-109"/>
      <use x="97.412109" xlink:href="#DejaVuSans-101"/>
      <use x="158.935547" xlink:href="#DejaVuSans-97"/>
      <use x="220.214844" xlink:href="#DejaVuSans-110"/>
      <use x="283.59375" xlink:href="#DejaVuSans-95"/>
      <use x="333.59375" xlink:href="#DejaVuSans-101"/>
      <use x="395.117188" xlink:href="#DejaVuSans-114"/>
      <use x="434.480469" xlink:href="#DejaVuSans-114"/>
     </g>
    </g>
    <g id="PathCollection_6">
     <defs>
      <path d="M -1.5 3 
L 0 1.5 
L 1.5 3 
L 3 1.5 
L 1.5 0 
L 3 -1.5 
L 1.5 -3 
L 0 -1.5 
L -1.5 -3 
L -3 -1.5 
L -1.5 0 
L -3 1.5 
z
" id="m6cf62e5dfc" style="stroke:#2f9599;"/>
     </defs>
     <g>
      <use style="fill:#2f9599;stroke:#2f9599;" x="330.118059" xlink:href="#m6cf62e5dfc" y="27.277203"/>
     </g>
    </g>
    <g id="text_18">
     <!-- mean_sq_err -->
     <g transform="translate(342.610059 29.098953)scale(0.0694 -0.0694)">
      <defs>
       <path d="M 44.28125 53.078125 
L 44.28125 44.578125 
Q 40.484375 46.53125 36.375 47.5 
Q 32.28125 48.484375 27.875 48.484375 
Q 21.1875 48.484375 17.84375 46.4375 
Q 14.5 44.390625 14.5 40.28125 
Q 14.5 37.15625 16.890625 35.375 
Q 19.28125 33.59375 26.515625 31.984375 
L 29.59375 31.296875 
Q 39.15625 29.25 43.1875 25.515625 
Q 47.21875 21.78125 47.21875 15.09375 
Q 47.21875 7.46875 41.1875 3.015625 
Q 35.15625 -1.421875 24.609375 -1.421875 
Q 20.21875 -1.421875 15.453125 -0.5625 
Q 10.6875 0.296875 5.421875 2 
L 5.421875 11.28125 
Q 10.40625 8.6875 15.234375 7.390625 
Q 20.0625 6.109375 24.8125 6.109375 
Q 31.15625 6.109375 34.5625 8.28125 
Q 37.984375 10.453125 37.984375 14.40625 
Q 37.984375 18.0625 35.515625 20.015625 
Q 33.0625 21.96875 24.703125 23.78125 
L 21.578125 24.515625 
Q 13.234375 26.265625 9.515625 29.90625 
Q 5.8125 33.546875 5.8125 39.890625 
Q 5.8125 47.609375 11.28125 51.796875 
Q 16.75 56 26.8125 56 
Q 31.78125 56 36.171875 55.265625 
Q 40.578125 54.546875 44.28125 53.078125 
z
" id="DejaVuSans-115"/>
       <path d="M 14.796875 27.296875 
Q 14.796875 17.390625 18.875 11.75 
Q 22.953125 6.109375 30.078125 6.109375 
Q 37.203125 6.109375 41.296875 11.75 
Q 45.40625 17.390625 45.40625 27.296875 
Q 45.40625 37.203125 41.296875 42.84375 
Q 37.203125 48.484375 30.078125 48.484375 
Q 22.953125 48.484375 18.875 42.84375 
Q 14.796875 37.203125 14.796875 27.296875 
z
M 45.40625 8.203125 
Q 42.578125 3.328125 38.25 0.953125 
Q 33.9375 -1.421875 27.875 -1.421875 
Q 17.96875 -1.421875 11.734375 6.484375 
Q 5.515625 14.40625 5.515625 27.296875 
Q 5.515625 40.1875 11.734375 48.09375 
Q 17.96875 56 27.875 56 
Q 33.9375 56 38.25 53.625 
Q 42.578125 51.265625 45.40625 46.390625 
L 45.40625 54.6875 
L 54.390625 54.6875 
L 54.390625 -20.796875 
L 45.40625 -20.796875 
z
" id="DejaVuSans-113"/>
      </defs>
      <use xlink:href="#DejaVuSans-109"/>
      <use x="97.412109" xlink:href="#DejaVuSans-101"/>
      <use x="158.935547" xlink:href="#DejaVuSans-97"/>
      <use x="220.214844" xlink:href="#DejaVuSans-110"/>
      <use x="283.59375" xlink:href="#DejaVuSans-95"/>
      <use x="333.59375" xlink:href="#DejaVuSans-115"/>
      <use x="385.693359" xlink:href="#DejaVuSans-113"/>
      <use x="449.169922" xlink:href="#DejaVuSans-95"/>
      <use x="499.169922" xlink:href="#DejaVuSans-101"/>
      <use x="560.693359" xlink:href="#DejaVuSans-114"/>
      <use x="600.056641" xlink:href="#DejaVuSans-114"/>
     </g>
    </g>
    <g id="PathCollection_7">
     <defs>
      <path d="M -2.12132 -2.12132 
L -2.12132 2.12132 
L 2.12132 2.12132 
L 2.12132 -2.12132 
z
" id="m5b37618ed6" style="stroke:#a7226e;"/>
     </defs>
     <g>
      <use style="fill:#a7226e;stroke:#a7226e;" x="330.118059" xlink:href="#m5b37618ed6" y="37.656841"/>
     </g>
    </g>
    <g id="text_19">
     <!-- mean_sqroot_err -->
     <g transform="translate(342.610059 39.478591)scale(0.0694 -0.0694)">
      <use xlink:href="#DejaVuSans-109"/>
      <use x="97.412109" xlink:href="#DejaVuSans-101"/>
      <use x="158.935547" xlink:href="#DejaVuSans-97"/>
      <use x="220.214844" xlink:href="#DejaVuSans-110"/>
      <use x="283.59375" xlink:href="#DejaVuSans-95"/>
      <use x="333.59375" xlink:href="#DejaVuSans-115"/>
      <use x="385.693359" xlink:href="#DejaVuSans-113"/>
      <use x="449.169922" xlink:href="#DejaVuSans-114"/>
      <use x="488.033203" xlink:href="#DejaVuSans-111"/>
      <use x="549.214844" xlink:href="#DejaVuSans-111"/>
      <use x="610.396484" xlink:href="#DejaVuSans-116"/>
      <use x="649.605469" xlink:href="#DejaVuSans-95"/>
      <use x="699.605469" xlink:href="#DejaVuSans-101"/>
      <use x="761.128906" xlink:href="#DejaVuSans-114"/>
      <use x="800.492188" xlink:href="#DejaVuSans-114"/>
     </g>
    </g>
   </g>
  </g>
 </g>
 <defs>
  <clipPath id="pd167b990e1">
   <rect height="266.112" width="357.12" x="50.14375" y="7.2"/>
  </clipPath>
 </defs>
</svg>
