<?xml version="1.0" encoding="utf-8" standalone="no"?>
<!DOCTYPE svg PUBLIC "-//W3C//DTD SVG 1.1//EN"
  "http://www.w3.org/Graphics/SVG/1.1/DTD/svg11.dtd">
<!-- Created with matplotlib (https://matplotlib.org/) -->
<svg height="313.610537pt" version="1.1" viewBox="0 0 414.46375 313.610537" width="414.46375pt" xmlns="http://www.w3.org/2000/svg" xmlns:xlink="http://www.w3.org/1999/xlink">
 <metadata>
  <rdf:RDF xmlns:cc="http://creativecommons.org/ns#" xmlns:dc="http://purl.org/dc/elements/1.1/" xmlns:rdf="http://www.w3.org/1999/02/22-rdf-syntax-ns#">
   <cc:Work>
    <dc:type rdf:resource="http://purl.org/dc/dcmitype/StillImage"/>
    <dc:date>2022-05-27T21:29:47.690619</dc:date>
    <dc:format>image/svg+xml</dc:format>
    <dc:creator>
     <cc:Agent>
      <dc:title>Matplotlib v3.3.4, https://matplotlib.org/</dc:title>
     </cc:Agent>
    </dc:creator>
   </cc:Work>
  </rdf:RDF>
 </metadata>
 <defs>
  <style type="text/css">*{stroke-linecap:butt;stroke-linejoin:round;}</style>
 </defs>
 <g id="figure_1">
  <g id="patch_1">
   <path d="M 0 313.610537 
L 414.46375 313.610537 
L 414.46375 0 
L 0 0 
z
" style="fill:#ffffff;"/>
  </g>
  <g id="axes_1">
   <g id="patch_2">
    <path d="M 50.14375 276.054287 
L 407.26375 276.054287 
L 407.26375 9.942287 
L 50.14375 9.942287 
z
" style="fill:#ffffff;"/>
   </g>
   <g id="PathCollection_1">
    <path clip-path="url(#p4c316cc6f9)" d="M 66.376477 25.038287 
C 67.172087 25.038287 67.935217 24.722188 68.497798 24.159607 
C 69.060378 23.597026 69.376477 22.833896 69.376477 22.038287 
C 69.376477 21.242677 69.060378 20.479547 68.497798 19.916966 
C 67.935217 19.354386 67.172087 19.038287 66.376477 19.038287 
C 65.580868 19.038287 64.817738 19.354386 64.255157 19.916966 
C 63.692576 20.479547 63.376477 21.242677 63.376477 22.038287 
C 63.376477 22.833896 63.692576 23.597026 64.255157 24.159607 
C 64.817738 24.722188 65.580868 25.038287 66.376477 25.038287 
z
" style="fill:#f26b38;stroke:#ffffff;stroke-width:0.48;"/>
    <path clip-path="url(#p4c316cc6f9)" d="M 73.140114 38.837122 
C 73.935723 38.837122 74.698853 38.521023 75.261434 37.958442 
C 75.824015 37.395861 76.140114 36.632731 76.140114 35.837122 
C 76.140114 35.041512 75.824015 34.278382 75.261434 33.715801 
C 74.698853 33.153221 73.935723 32.837122 73.140114 32.837122 
C 72.344504 32.837122 71.581374 33.153221 71.018793 33.715801 
C 70.456213 34.278382 70.140114 35.041512 70.140114 35.837122 
C 70.140114 36.632731 70.456213 37.395861 71.018793 37.958442 
C 71.581374 38.521023 72.344504 38.837122 73.140114 38.837122 
z
" style="fill:#f26b38;stroke:#ffffff;stroke-width:0.48;"/>
    <path clip-path="url(#p4c316cc6f9)" d="M 79.90375 38.837122 
C 80.699359 38.837122 81.46249 38.521023 82.02507 37.958442 
C 82.587651 37.395861 82.90375 36.632731 82.90375 35.837122 
C 82.90375 35.041512 82.587651 34.278382 82.02507 33.715801 
C 81.46249 33.153221 80.699359 32.837122 79.90375 32.837122 
C 79.108141 32.837122 78.34501 33.153221 77.78243 33.715801 
C 77.219849 34.278382 76.90375 35.041512 76.90375 35.837122 
C 76.90375 36.632731 77.219849 37.395861 77.78243 37.958442 
C 78.34501 38.521023 79.108141 38.837122 79.90375 38.837122 
z
" style="fill:#f26b38;stroke:#ffffff;stroke-width:0.48;"/>
    <path clip-path="url(#p4c316cc6f9)" d="M 86.667386 38.837122 
C 87.462996 38.837122 88.226126 38.521023 88.788707 37.958442 
C 89.351287 37.395861 89.667386 36.632731 89.667386 35.837122 
C 89.667386 35.041512 89.351287 34.278382 88.788707 33.715801 
C 88.226126 33.153221 87.462996 32.837122 86.667386 32.837122 
C 85.871777 32.837122 85.108647 33.153221 84.546066 33.715801 
C 83.983485 34.278382 83.667386 35.041512 83.667386 35.837122 
C 83.667386 36.632731 83.983485 37.395861 84.546066 37.958442 
C 85.108647 38.521023 85.871777 38.837122 86.667386 38.837122 
z
" style="fill:#f26b38;stroke:#ffffff;stroke-width:0.48;"/>
    <path clip-path="url(#p4c316cc6f9)" d="M 93.431023 25.038287 
C 94.226632 25.038287 94.989762 24.722188 95.552343 24.159607 
C 96.114924 23.597026 96.431023 22.833896 96.431023 22.038287 
C 96.431023 21.242677 96.114924 20.479547 95.552343 19.916966 
C 94.989762 19.354386 94.226632 19.038287 93.431023 19.038287 
C 92.635413 19.038287 91.872283 19.354386 91.309702 19.916966 
C 90.747122 20.479547 90.431023 21.242677 90.431023 22.038287 
C 90.431023 22.833896 90.747122 23.597026 91.309702 24.159607 
C 91.872283 24.722188 92.635413 25.038287 93.431023 25.038287 
z
" style="fill:#f26b38;stroke:#ffffff;stroke-width:0.48;"/>
    <path clip-path="url(#p4c316cc6f9)" d="M 100.194659 38.837122 
C 100.990268 38.837122 101.753399 38.521023 102.315979 37.958442 
C 102.87856 37.395861 103.194659 36.632731 103.194659 35.837122 
C 103.194659 35.041512 102.87856 34.278382 102.315979 33.715801 
C 101.753399 33.153221 100.990268 32.837122 100.194659 32.837122 
C 99.39905 32.837122 98.635919 33.153221 98.073339 33.715801 
C 97.510758 34.278382 97.194659 35.041512 97.194659 35.837122 
C 97.194659 36.632731 97.510758 37.395861 98.073339 37.958442 
C 98.635919 38.521023 99.39905 38.837122 100.194659 38.837122 
z
" style="fill:#f26b38;stroke:#ffffff;stroke-width:0.48;"/>
    <path clip-path="url(#p4c316cc6f9)" d="M 106.958295 52.635957 
C 107.753905 52.635957 108.517035 52.319858 109.079616 51.757277 
C 109.642197 51.194696 109.958295 50.431566 109.958295 49.635957 
C 109.958295 48.840347 109.642197 48.077217 109.079616 47.514636 
C 108.517035 46.952056 107.753905 46.635957 106.958295 46.635957 
C 106.162686 46.635957 105.399556 46.952056 104.836975 47.514636 
C 104.274394 48.077217 103.958295 48.840347 103.958295 49.635957 
C 103.958295 50.431566 104.274394 51.194696 104.836975 51.757277 
C 105.399556 52.319858 106.162686 52.635957 106.958295 52.635957 
z
" style="fill:#f26b38;stroke:#ffffff;stroke-width:0.48;"/>
    <path clip-path="url(#p4c316cc6f9)" d="M 113.721932 52.635957 
C 114.517541 52.635957 115.280671 52.319858 115.843252 51.757277 
C 116.405833 51.194696 116.721932 50.431566 116.721932 49.635957 
C 116.721932 48.840347 116.405833 48.077217 115.843252 47.514636 
C 115.280671 46.952056 114.517541 46.635957 113.721932 46.635957 
C 112.926323 46.635957 112.163192 46.952056 111.600611 47.514636 
C 111.038031 48.077217 110.721932 48.840347 110.721932 49.635957 
C 110.721932 50.431566 111.038031 51.194696 111.600611 51.757277 
C 112.163192 52.319858 112.926323 52.635957 113.721932 52.635957 
z
" style="fill:#f26b38;stroke:#ffffff;stroke-width:0.48;"/>
    <path clip-path="url(#p4c316cc6f9)" d="M 120.485568 52.635957 
C 121.281177 52.635957 122.044308 52.319858 122.606889 51.757277 
C 123.169469 51.194696 123.485568 50.431566 123.485568 49.635957 
C 123.485568 48.840347 123.169469 48.077217 122.606889 47.514636 
C 122.044308 46.952056 121.281177 46.635957 120.485568 46.635957 
C 119.689959 46.635957 118.926829 46.952056 118.364248 47.514636 
C 117.801667 48.077217 117.485568 48.840347 117.485568 49.635957 
C 117.485568 50.431566 117.801667 51.194696 118.364248 51.757277 
C 118.926829 52.319858 119.689959 52.635957 120.485568 52.635957 
z
" style="fill:#f26b38;stroke:#ffffff;stroke-width:0.48;"/>
    <path clip-path="url(#p4c316cc6f9)" d="M 127.249205 52.635957 
C 128.044814 52.635957 128.807944 52.319858 129.370525 51.757277 
C 129.933106 51.194696 130.249205 50.431566 130.249205 49.635957 
C 130.249205 48.840347 129.933106 48.077217 129.370525 47.514636 
C 128.807944 46.952056 128.044814 46.635957 127.249205 46.635957 
C 126.453595 46.635957 125.690465 46.952056 125.127884 47.514636 
C 124.565303 48.077217 124.249205 48.840347 124.249205 49.635957 
C 124.249205 50.431566 124.565303 51.194696 125.127884 51.757277 
C 125.690465 52.319858 126.453595 52.635957 127.249205 52.635957 
z
" style="fill:#f26b38;stroke:#ffffff;stroke-width:0.48;"/>
    <path clip-path="url(#p4c316cc6f9)" d="M 134.012841 135.428966 
C 134.80845 135.428966 135.571581 135.112867 136.134161 134.550287 
C 136.696742 133.987706 137.012841 133.224576 137.012841 132.428966 
C 137.012841 131.633357 136.696742 130.870227 136.134161 130.307646 
C 135.571581 129.745065 134.80845 129.428966 134.012841 129.428966 
C 133.217232 129.428966 132.454101 129.745065 131.891521 130.307646 
C 131.32894 130.870227 131.012841 131.633357 131.012841 132.428966 
C 131.012841 133.224576 131.32894 133.987706 131.891521 134.550287 
C 132.454101 135.112867 133.217232 135.428966 134.012841 135.428966 
z
" style="fill:#f26b38;stroke:#ffffff;stroke-width:0.48;"/>
    <path clip-path="url(#p4c316cc6f9)" d="M 140.776477 149.227801 
C 141.572087 149.227801 142.335217 148.911702 142.897798 148.349122 
C 143.460378 147.786541 143.776477 147.023411 143.776477 146.227801 
C 143.776477 145.432192 143.460378 144.669062 142.897798 144.106481 
C 142.335217 143.5439 141.572087 143.227801 140.776477 143.227801 
C 139.980868 143.227801 139.217738 143.5439 138.655157 144.106481 
C 138.092576 144.669062 137.776477 145.432192 137.776477 146.227801 
C 137.776477 147.023411 138.092576 147.786541 138.655157 148.349122 
C 139.217738 148.911702 139.980868 149.227801 140.776477 149.227801 
z
" style="fill:#f26b38;stroke:#ffffff;stroke-width:0.48;"/>
    <path clip-path="url(#p4c316cc6f9)" d="M 147.540114 176.825471 
C 148.335723 176.825471 149.098853 176.509372 149.661434 175.946792 
C 150.224015 175.384211 150.540114 174.62108 150.540114 173.825471 
C 150.540114 173.029862 150.224015 172.266732 149.661434 171.704151 
C 149.098853 171.14157 148.335723 170.825471 147.540114 170.825471 
C 146.744504 170.825471 145.981374 171.14157 145.418793 171.704151 
C 144.856213 172.266732 144.540114 173.029862 144.540114 173.825471 
C 144.540114 174.62108 144.856213 175.384211 145.418793 175.946792 
C 145.981374 176.509372 146.744504 176.825471 147.540114 176.825471 
z
" style="fill:#f26b38;stroke:#ffffff;stroke-width:0.48;"/>
    <path clip-path="url(#p4c316cc6f9)" d="M 154.30375 149.227801 
C 155.099359 149.227801 155.86249 148.911702 156.42507 148.349122 
C 156.987651 147.786541 157.30375 147.023411 157.30375 146.227801 
C 157.30375 145.432192 156.987651 144.669062 156.42507 144.106481 
C 155.86249 143.5439 155.099359 143.227801 154.30375 143.227801 
C 153.508141 143.227801 152.74501 143.5439 152.18243 144.106481 
C 151.619849 144.669062 151.30375 145.432192 151.30375 146.227801 
C 151.30375 147.023411 151.619849 147.786541 152.18243 148.349122 
C 152.74501 148.911702 153.508141 149.227801 154.30375 149.227801 
z
" style="fill:#f26b38;stroke:#ffffff;stroke-width:0.48;"/>
    <path clip-path="url(#p4c316cc6f9)" d="M 161.067386 190.624306 
C 161.862996 190.624306 162.626126 190.308207 163.188707 189.745626 
C 163.751287 189.183046 164.067386 188.419915 164.067386 187.624306 
C 164.067386 186.828697 163.751287 186.065567 163.188707 185.502986 
C 162.626126 184.940405 161.862996 184.624306 161.067386 184.624306 
C 160.271777 184.624306 159.508647 184.940405 158.946066 185.502986 
C 158.383485 186.065567 158.067386 186.828697 158.067386 187.624306 
C 158.067386 188.419915 158.383485 189.183046 158.946066 189.745626 
C 159.508647 190.308207 160.271777 190.624306 161.067386 190.624306 
z
" style="fill:#f26b38;stroke:#ffffff;stroke-width:0.48;"/>
    <path clip-path="url(#p4c316cc6f9)" d="M 167.831023 190.624306 
C 168.626632 190.624306 169.389762 190.308207 169.952343 189.745626 
C 170.514924 189.183046 170.831023 188.419915 170.831023 187.624306 
C 170.831023 186.828697 170.514924 186.065567 169.952343 185.502986 
C 169.389762 184.940405 168.626632 184.624306 167.831023 184.624306 
C 167.035413 184.624306 166.272283 184.940405 165.709702 185.502986 
C 165.147122 186.065567 164.831023 186.828697 164.831023 187.624306 
C 164.831023 188.419915 165.147122 189.183046 165.709702 189.745626 
C 166.272283 190.308207 167.035413 190.624306 167.831023 190.624306 
z
" style="fill:#f26b38;stroke:#ffffff;stroke-width:0.48;"/>
    <path clip-path="url(#p4c316cc6f9)" d="M 174.594659 190.624306 
C 175.390268 190.624306 176.153399 190.308207 176.715979 189.745626 
C 177.27856 189.183046 177.594659 188.419915 177.594659 187.624306 
C 177.594659 186.828697 177.27856 186.065567 176.715979 185.502986 
C 176.153399 184.940405 175.390268 184.624306 174.594659 184.624306 
C 173.79905 184.624306 173.035919 184.940405 172.473339 185.502986 
C 171.910758 186.065567 171.594659 186.828697 171.594659 187.624306 
C 171.594659 188.419915 171.910758 189.183046 172.473339 189.745626 
C 173.035919 190.308207 173.79905 190.624306 174.594659 190.624306 
z
" style="fill:#f26b38;stroke:#ffffff;stroke-width:0.48;"/>
    <path clip-path="url(#p4c316cc6f9)" d="M 181.358295 190.624306 
C 182.153905 190.624306 182.917035 190.308207 183.479616 189.745626 
C 184.042197 189.183046 184.358295 188.419915 184.358295 187.624306 
C 184.358295 186.828697 184.042197 186.065567 183.479616 185.502986 
C 182.917035 184.940405 182.153905 184.624306 181.358295 184.624306 
C 180.562686 184.624306 179.799556 184.940405 179.236975 185.502986 
C 178.674394 186.065567 178.358295 186.828697 178.358295 187.624306 
C 178.358295 188.419915 178.674394 189.183046 179.236975 189.745626 
C 179.799556 190.308207 180.562686 190.624306 181.358295 190.624306 
z
" style="fill:#f26b38;stroke:#ffffff;stroke-width:0.48;"/>
    <path clip-path="url(#p4c316cc6f9)" d="M 188.121932 176.825471 
C 188.917541 176.825471 189.680671 176.509372 190.243252 175.946792 
C 190.805833 175.384211 191.121932 174.62108 191.121932 173.825471 
C 191.121932 173.029862 190.805833 172.266732 190.243252 171.704151 
C 189.680671 171.14157 188.917541 170.825471 188.121932 170.825471 
C 187.326323 170.825471 186.563192 171.14157 186.000611 171.704151 
C 185.438031 172.266732 185.121932 173.029862 185.121932 173.825471 
C 185.121932 174.62108 185.438031 175.384211 186.000611 175.946792 
C 186.563192 176.509372 187.326323 176.825471 188.121932 176.825471 
z
" style="fill:#f26b38;stroke:#ffffff;stroke-width:0.48;"/>
    <path clip-path="url(#p4c316cc6f9)" d="M 194.885568 190.624306 
C 195.681177 190.624306 196.444308 190.308207 197.006889 189.745626 
C 197.569469 189.183046 197.885568 188.419915 197.885568 187.624306 
C 197.885568 186.828697 197.569469 186.065567 197.006889 185.502986 
C 196.444308 184.940405 195.681177 184.624306 194.885568 184.624306 
C 194.089959 184.624306 193.326829 184.940405 192.764248 185.502986 
C 192.201667 186.065567 191.885568 186.828697 191.885568 187.624306 
C 191.885568 188.419915 192.201667 189.183046 192.764248 189.745626 
C 193.326829 190.308207 194.089959 190.624306 194.885568 190.624306 
z
" style="fill:#f26b38;stroke:#ffffff;stroke-width:0.48;"/>
    <path clip-path="url(#p4c316cc6f9)" d="M 201.649205 232.020811 
C 202.444814 232.020811 203.207944 231.704712 203.770525 231.142131 
C 204.333106 230.579551 204.649205 229.81642 204.649205 229.020811 
C 204.649205 228.225202 204.333106 227.462071 203.770525 226.899491 
C 203.207944 226.33691 202.444814 226.020811 201.649205 226.020811 
C 200.853595 226.020811 200.090465 226.33691 199.527884 226.899491 
C 198.965303 227.462071 198.649205 228.225202 198.649205 229.020811 
C 198.649205 229.81642 198.965303 230.579551 199.527884 231.142131 
C 200.090465 231.704712 200.853595 232.020811 201.649205 232.020811 
z
" style="fill:#f26b38;stroke:#ffffff;stroke-width:0.48;"/>
    <path clip-path="url(#p4c316cc6f9)" d="M 208.412841 232.020811 
C 209.20845 232.020811 209.971581 231.704712 210.534161 231.142131 
C 211.096742 230.579551 211.412841 229.81642 211.412841 229.020811 
C 211.412841 228.225202 211.096742 227.462071 210.534161 226.899491 
C 209.971581 226.33691 209.20845 226.020811 208.412841 226.020811 
C 207.617232 226.020811 206.854101 226.33691 206.291521 226.899491 
C 205.72894 227.462071 205.412841 228.225202 205.412841 229.020811 
C 205.412841 229.81642 205.72894 230.579551 206.291521 231.142131 
C 206.854101 231.704712 207.617232 232.020811 208.412841 232.020811 
z
" style="fill:#f26b38;stroke:#ffffff;stroke-width:0.48;"/>
    <path clip-path="url(#p4c316cc6f9)" d="M 215.176477 232.020811 
C 215.972087 232.020811 216.735217 231.704712 217.297798 231.142131 
C 217.860378 230.579551 218.176477 229.81642 218.176477 229.020811 
C 218.176477 228.225202 217.860378 227.462071 217.297798 226.899491 
C 216.735217 226.33691 215.972087 226.020811 215.176477 226.020811 
C 214.380868 226.020811 213.617738 226.33691 213.055157 226.899491 
C 212.492576 227.462071 212.176477 228.225202 212.176477 229.020811 
C 212.176477 229.81642 212.492576 230.579551 213.055157 231.142131 
C 213.617738 231.704712 214.380868 232.020811 215.176477 232.020811 
z
" style="fill:#f26b38;stroke:#ffffff;stroke-width:0.48;"/>
    <path clip-path="url(#p4c316cc6f9)" d="M 221.940114 232.020811 
C 222.735723 232.020811 223.498853 231.704712 224.061434 231.142131 
C 224.624015 230.579551 224.940114 229.81642 224.940114 229.020811 
C 224.940114 228.225202 224.624015 227.462071 224.061434 226.899491 
C 223.498853 226.33691 222.735723 226.020811 221.940114 226.020811 
C 221.144504 226.020811 220.381374 226.33691 219.818793 226.899491 
C 219.256213 227.462071 218.940114 228.225202 218.940114 229.020811 
C 218.940114 229.81642 219.256213 230.579551 219.818793 231.142131 
C 220.381374 231.704712 221.144504 232.020811 221.940114 232.020811 
z
" style="fill:#f26b38;stroke:#ffffff;stroke-width:0.48;"/>
    <path clip-path="url(#p4c316cc6f9)" d="M 228.70375 218.221976 
C 229.499359 218.221976 230.26249 217.905877 230.82507 217.343296 
C 231.387651 216.780716 231.70375 216.017585 231.70375 215.221976 
C 231.70375 214.426367 231.387651 213.663236 230.82507 213.100656 
C 230.26249 212.538075 229.499359 212.221976 228.70375 212.221976 
C 227.908141 212.221976 227.14501 212.538075 226.58243 213.100656 
C 226.019849 213.663236 225.70375 214.426367 225.70375 215.221976 
C 225.70375 216.017585 226.019849 216.780716 226.58243 217.343296 
C 227.14501 217.905877 227.908141 218.221976 228.70375 218.221976 
z
" style="fill:#f26b38;stroke:#ffffff;stroke-width:0.48;"/>
    <path clip-path="url(#p4c316cc6f9)" d="M 235.467386 190.624306 
C 236.262996 190.624306 237.026126 190.308207 237.588707 189.745626 
C 238.151287 189.183046 238.467386 188.419915 238.467386 187.624306 
C 238.467386 186.828697 238.151287 186.065567 237.588707 185.502986 
C 237.026126 184.940405 236.262996 184.624306 235.467386 184.624306 
C 234.671777 184.624306 233.908647 184.940405 233.346066 185.502986 
C 232.783485 186.065567 232.467386 186.828697 232.467386 187.624306 
C 232.467386 188.419915 232.783485 189.183046 233.346066 189.745626 
C 233.908647 190.308207 234.671777 190.624306 235.467386 190.624306 
z
" style="fill:#f26b38;stroke:#ffffff;stroke-width:0.48;"/>
    <path clip-path="url(#p4c316cc6f9)" d="M 242.231023 190.624306 
C 243.026632 190.624306 243.789762 190.308207 244.352343 189.745626 
C 244.914924 189.183046 245.231023 188.419915 245.231023 187.624306 
C 245.231023 186.828697 244.914924 186.065567 244.352343 185.502986 
C 243.789762 184.940405 243.026632 184.624306 242.231023 184.624306 
C 241.435413 184.624306 240.672283 184.940405 240.109702 185.502986 
C 239.547122 186.065567 239.231023 186.828697 239.231023 187.624306 
C 239.231023 188.419915 239.547122 189.183046 240.109702 189.745626 
C 240.672283 190.308207 241.435413 190.624306 242.231023 190.624306 
z
" style="fill:#f26b38;stroke:#ffffff;stroke-width:0.48;"/>
    <path clip-path="url(#p4c316cc6f9)" d="M 248.994659 190.624306 
C 249.790268 190.624306 250.553399 190.308207 251.115979 189.745626 
C 251.67856 189.183046 251.994659 188.419915 251.994659 187.624306 
C 251.994659 186.828697 251.67856 186.065567 251.115979 185.502986 
C 250.553399 184.940405 249.790268 184.624306 248.994659 184.624306 
C 248.19905 184.624306 247.435919 184.940405 246.873339 185.502986 
C 246.310758 186.065567 245.994659 186.828697 245.994659 187.624306 
C 245.994659 188.419915 246.310758 189.183046 246.873339 189.745626 
C 247.435919 190.308207 248.19905 190.624306 248.994659 190.624306 
z
" style="fill:#f26b38;stroke:#ffffff;stroke-width:0.48;"/>
    <path clip-path="url(#p4c316cc6f9)" d="M 255.758295 190.624306 
C 256.553905 190.624306 257.317035 190.308207 257.879616 189.745626 
C 258.442197 189.183046 258.758295 188.419915 258.758295 187.624306 
C 258.758295 186.828697 258.442197 186.065567 257.879616 185.502986 
C 257.317035 184.940405 256.553905 184.624306 255.758295 184.624306 
C 254.962686 184.624306 254.199556 184.940405 253.636975 185.502986 
C 253.074394 186.065567 252.758295 186.828697 252.758295 187.624306 
C 252.758295 188.419915 253.074394 189.183046 253.636975 189.745626 
C 254.199556 190.308207 254.962686 190.624306 255.758295 190.624306 
z
" style="fill:#f26b38;stroke:#ffffff;stroke-width:0.48;"/>
    <path clip-path="url(#p4c316cc6f9)" d="M 262.521932 190.624306 
C 263.317541 190.624306 264.080671 190.308207 264.643252 189.745626 
C 265.205833 189.183046 265.521932 188.419915 265.521932 187.624306 
C 265.521932 186.828697 265.205833 186.065567 264.643252 185.502986 
C 264.080671 184.940405 263.317541 184.624306 262.521932 184.624306 
C 261.726323 184.624306 260.963192 184.940405 260.400611 185.502986 
C 259.838031 186.065567 259.521932 186.828697 259.521932 187.624306 
C 259.521932 188.419915 259.838031 189.183046 260.400611 189.745626 
C 260.963192 190.308207 261.726323 190.624306 262.521932 190.624306 
z
" style="fill:#f26b38;stroke:#ffffff;stroke-width:0.48;"/>
    <path clip-path="url(#p4c316cc6f9)" d="M 269.285568 190.624306 
C 270.081177 190.624306 270.844308 190.308207 271.406889 189.745626 
C 271.969469 189.183046 272.285568 188.419915 272.285568 187.624306 
C 272.285568 186.828697 271.969469 186.065567 271.406889 185.502986 
C 270.844308 184.940405 270.081177 184.624306 269.285568 184.624306 
C 268.489959 184.624306 267.726829 184.940405 267.164248 185.502986 
C 266.601667 186.065567 266.285568 186.828697 266.285568 187.624306 
C 266.285568 188.419915 266.601667 189.183046 267.164248 189.745626 
C 267.726829 190.308207 268.489959 190.624306 269.285568 190.624306 
z
" style="fill:#f26b38;stroke:#ffffff;stroke-width:0.48;"/>
    <path clip-path="url(#p4c316cc6f9)" d="M 276.049205 190.624306 
C 276.844814 190.624306 277.607944 190.308207 278.170525 189.745626 
C 278.733106 189.183046 279.049205 188.419915 279.049205 187.624306 
C 279.049205 186.828697 278.733106 186.065567 278.170525 185.502986 
C 277.607944 184.940405 276.844814 184.624306 276.049205 184.624306 
C 275.253595 184.624306 274.490465 184.940405 273.927884 185.502986 
C 273.365303 186.065567 273.049205 186.828697 273.049205 187.624306 
C 273.049205 188.419915 273.365303 189.183046 273.927884 189.745626 
C 274.490465 190.308207 275.253595 190.624306 276.049205 190.624306 
z
" style="fill:#f26b38;stroke:#ffffff;stroke-width:0.48;"/>
    <path clip-path="url(#p4c316cc6f9)" d="M 282.812841 190.624306 
C 283.60845 190.624306 284.371581 190.308207 284.934161 189.745626 
C 285.496742 189.183046 285.812841 188.419915 285.812841 187.624306 
C 285.812841 186.828697 285.496742 186.065567 284.934161 185.502986 
C 284.371581 184.940405 283.60845 184.624306 282.812841 184.624306 
C 282.017232 184.624306 281.254101 184.940405 280.691521 185.502986 
C 280.12894 186.065567 279.812841 186.828697 279.812841 187.624306 
C 279.812841 188.419915 280.12894 189.183046 280.691521 189.745626 
C 281.254101 190.308207 282.017232 190.624306 282.812841 190.624306 
z
" style="fill:#f26b38;stroke:#ffffff;stroke-width:0.48;"/>
    <path clip-path="url(#p4c316cc6f9)" d="M 289.576477 190.624306 
C 290.372087 190.624306 291.135217 190.308207 291.697798 189.745626 
C 292.260378 189.183046 292.576477 188.419915 292.576477 187.624306 
C 292.576477 186.828697 292.260378 186.065567 291.697798 185.502986 
C 291.135217 184.940405 290.372087 184.624306 289.576477 184.624306 
C 288.780868 184.624306 288.017738 184.940405 287.455157 185.502986 
C 286.892576 186.065567 286.576477 186.828697 286.576477 187.624306 
C 286.576477 188.419915 286.892576 189.183046 287.455157 189.745626 
C 288.017738 190.308207 288.780868 190.624306 289.576477 190.624306 
z
" style="fill:#f26b38;stroke:#ffffff;stroke-width:0.48;"/>
    <path clip-path="url(#p4c316cc6f9)" d="M 296.340114 190.624306 
C 297.135723 190.624306 297.898853 190.308207 298.461434 189.745626 
C 299.024015 189.183046 299.340114 188.419915 299.340114 187.624306 
C 299.340114 186.828697 299.024015 186.065567 298.461434 185.502986 
C 297.898853 184.940405 297.135723 184.624306 296.340114 184.624306 
C 295.544504 184.624306 294.781374 184.940405 294.218793 185.502986 
C 293.656213 186.065567 293.340114 186.828697 293.340114 187.624306 
C 293.340114 188.419915 293.656213 189.183046 294.218793 189.745626 
C 294.781374 190.308207 295.544504 190.624306 296.340114 190.624306 
z
" style="fill:#f26b38;stroke:#ffffff;stroke-width:0.48;"/>
    <path clip-path="url(#p4c316cc6f9)" d="M 303.10375 190.624306 
C 303.899359 190.624306 304.66249 190.308207 305.22507 189.745626 
C 305.787651 189.183046 306.10375 188.419915 306.10375 187.624306 
C 306.10375 186.828697 305.787651 186.065567 305.22507 185.502986 
C 304.66249 184.940405 303.899359 184.624306 303.10375 184.624306 
C 302.308141 184.624306 301.54501 184.940405 300.98243 185.502986 
C 300.419849 186.065567 300.10375 186.828697 300.10375 187.624306 
C 300.10375 188.419915 300.419849 189.183046 300.98243 189.745626 
C 301.54501 190.308207 302.308141 190.624306 303.10375 190.624306 
z
" style="fill:#f26b38;stroke:#ffffff;stroke-width:0.48;"/>
    <path clip-path="url(#p4c316cc6f9)" d="M 309.867386 190.624306 
C 310.662996 190.624306 311.426126 190.308207 311.988707 189.745626 
C 312.551287 189.183046 312.867386 188.419915 312.867386 187.624306 
C 312.867386 186.828697 312.551287 186.065567 311.988707 185.502986 
C 311.426126 184.940405 310.662996 184.624306 309.867386 184.624306 
C 309.071777 184.624306 308.308647 184.940405 307.746066 185.502986 
C 307.183485 186.065567 306.867386 186.828697 306.867386 187.624306 
C 306.867386 188.419915 307.183485 189.183046 307.746066 189.745626 
C 308.308647 190.308207 309.071777 190.624306 309.867386 190.624306 
z
" style="fill:#f26b38;stroke:#ffffff;stroke-width:0.48;"/>
    <path clip-path="url(#p4c316cc6f9)" d="M 316.631023 190.624306 
C 317.426632 190.624306 318.189762 190.308207 318.752343 189.745626 
C 319.314924 189.183046 319.631023 188.419915 319.631023 187.624306 
C 319.631023 186.828697 319.314924 186.065567 318.752343 185.502986 
C 318.189762 184.940405 317.426632 184.624306 316.631023 184.624306 
C 315.835413 184.624306 315.072283 184.940405 314.509702 185.502986 
C 313.947122 186.065567 313.631023 186.828697 313.631023 187.624306 
C 313.631023 188.419915 313.947122 189.183046 314.509702 189.745626 
C 315.072283 190.308207 315.835413 190.624306 316.631023 190.624306 
z
" style="fill:#f26b38;stroke:#ffffff;stroke-width:0.48;"/>
    <path clip-path="url(#p4c316cc6f9)" d="M 323.394659 190.624306 
C 324.190268 190.624306 324.953399 190.308207 325.515979 189.745626 
C 326.07856 189.183046 326.394659 188.419915 326.394659 187.624306 
C 326.394659 186.828697 326.07856 186.065567 325.515979 185.502986 
C 324.953399 184.940405 324.190268 184.624306 323.394659 184.624306 
C 322.59905 184.624306 321.835919 184.940405 321.273339 185.502986 
C 320.710758 186.065567 320.394659 186.828697 320.394659 187.624306 
C 320.394659 188.419915 320.710758 189.183046 321.273339 189.745626 
C 321.835919 190.308207 322.59905 190.624306 323.394659 190.624306 
z
" style="fill:#f26b38;stroke:#ffffff;stroke-width:0.48;"/>
    <path clip-path="url(#p4c316cc6f9)" d="M 330.158295 190.624306 
C 330.953905 190.624306 331.717035 190.308207 332.279616 189.745626 
C 332.842197 189.183046 333.158295 188.419915 333.158295 187.624306 
C 333.158295 186.828697 332.842197 186.065567 332.279616 185.502986 
C 331.717035 184.940405 330.953905 184.624306 330.158295 184.624306 
C 329.362686 184.624306 328.599556 184.940405 328.036975 185.502986 
C 327.474394 186.065567 327.158295 186.828697 327.158295 187.624306 
C 327.158295 188.419915 327.474394 189.183046 328.036975 189.745626 
C 328.599556 190.308207 329.362686 190.624306 330.158295 190.624306 
z
" style="fill:#f26b38;stroke:#ffffff;stroke-width:0.48;"/>
    <path clip-path="url(#p4c316cc6f9)" d="M 336.921932 190.624306 
C 337.717541 190.624306 338.480671 190.308207 339.043252 189.745626 
C 339.605833 189.183046 339.921932 188.419915 339.921932 187.624306 
C 339.921932 186.828697 339.605833 186.065567 339.043252 185.502986 
C 338.480671 184.940405 337.717541 184.624306 336.921932 184.624306 
C 336.126323 184.624306 335.363192 184.940405 334.800611 185.502986 
C 334.238031 186.065567 333.921932 186.828697 333.921932 187.624306 
C 333.921932 188.419915 334.238031 189.183046 334.800611 189.745626 
C 335.363192 190.308207 336.126323 190.624306 336.921932 190.624306 
z
" style="fill:#f26b38;stroke:#ffffff;stroke-width:0.48;"/>
    <path clip-path="url(#p4c316cc6f9)" d="M 343.685568 190.624306 
C 344.481177 190.624306 345.244308 190.308207 345.806889 189.745626 
C 346.369469 189.183046 346.685568 188.419915 346.685568 187.624306 
C 346.685568 186.828697 346.369469 186.065567 345.806889 185.502986 
C 345.244308 184.940405 344.481177 184.624306 343.685568 184.624306 
C 342.889959 184.624306 342.126829 184.940405 341.564248 185.502986 
C 341.001667 186.065567 340.685568 186.828697 340.685568 187.624306 
C 340.685568 188.419915 341.001667 189.183046 341.564248 189.745626 
C 342.126829 190.308207 342.889959 190.624306 343.685568 190.624306 
z
" style="fill:#f26b38;stroke:#ffffff;stroke-width:0.48;"/>
    <path clip-path="url(#p4c316cc6f9)" d="M 350.449205 190.624306 
C 351.244814 190.624306 352.007944 190.308207 352.570525 189.745626 
C 353.133106 189.183046 353.449205 188.419915 353.449205 187.624306 
C 353.449205 186.828697 353.133106 186.065567 352.570525 185.502986 
C 352.007944 184.940405 351.244814 184.624306 350.449205 184.624306 
C 349.653595 184.624306 348.890465 184.940405 348.327884 185.502986 
C 347.765303 186.065567 347.449205 186.828697 347.449205 187.624306 
C 347.449205 188.419915 347.765303 189.183046 348.327884 189.745626 
C 348.890465 190.308207 349.653595 190.624306 350.449205 190.624306 
z
" style="fill:#f26b38;stroke:#ffffff;stroke-width:0.48;"/>
    <path clip-path="url(#p4c316cc6f9)" d="M 357.212841 190.624306 
C 358.00845 190.624306 358.771581 190.308207 359.334161 189.745626 
C 359.896742 189.183046 360.212841 188.419915 360.212841 187.624306 
C 360.212841 186.828697 359.896742 186.065567 359.334161 185.502986 
C 358.771581 184.940405 358.00845 184.624306 357.212841 184.624306 
C 356.417232 184.624306 355.654101 184.940405 355.091521 185.502986 
C 354.52894 186.065567 354.212841 186.828697 354.212841 187.624306 
C 354.212841 188.419915 354.52894 189.183046 355.091521 189.745626 
C 355.654101 190.308207 356.417232 190.624306 357.212841 190.624306 
z
" style="fill:#f26b38;stroke:#ffffff;stroke-width:0.48;"/>
    <path clip-path="url(#p4c316cc6f9)" d="M 363.976477 190.624306 
C 364.772087 190.624306 365.535217 190.308207 366.097798 189.745626 
C 366.660378 189.183046 366.976477 188.419915 366.976477 187.624306 
C 366.976477 186.828697 366.660378 186.065567 366.097798 185.502986 
C 365.535217 184.940405 364.772087 184.624306 363.976477 184.624306 
C 363.180868 184.624306 362.417738 184.940405 361.855157 185.502986 
C 361.292576 186.065567 360.976477 186.828697 360.976477 187.624306 
C 360.976477 188.419915 361.292576 189.183046 361.855157 189.745626 
C 362.417738 190.308207 363.180868 190.624306 363.976477 190.624306 
z
" style="fill:#f26b38;stroke:#ffffff;stroke-width:0.48;"/>
    <path clip-path="url(#p4c316cc6f9)" d="M 370.740114 190.624306 
C 371.535723 190.624306 372.298853 190.308207 372.861434 189.745626 
C 373.424015 189.183046 373.740114 188.419915 373.740114 187.624306 
C 373.740114 186.828697 373.424015 186.065567 372.861434 185.502986 
C 372.298853 184.940405 371.535723 184.624306 370.740114 184.624306 
C 369.944504 184.624306 369.181374 184.940405 368.618793 185.502986 
C 368.056213 186.065567 367.740114 186.828697 367.740114 187.624306 
C 367.740114 188.419915 368.056213 189.183046 368.618793 189.745626 
C 369.181374 190.308207 369.944504 190.624306 370.740114 190.624306 
z
" style="fill:#f26b38;stroke:#ffffff;stroke-width:0.48;"/>
    <path clip-path="url(#p4c316cc6f9)" d="M 377.50375 190.624306 
C 378.299359 190.624306 379.06249 190.308207 379.62507 189.745626 
C 380.187651 189.183046 380.50375 188.419915 380.50375 187.624306 
C 380.50375 186.828697 380.187651 186.065567 379.62507 185.502986 
C 379.06249 184.940405 378.299359 184.624306 377.50375 184.624306 
C 376.708141 184.624306 375.94501 184.940405 375.38243 185.502986 
C 374.819849 186.065567 374.50375 186.828697 374.50375 187.624306 
C 374.50375 188.419915 374.819849 189.183046 375.38243 189.745626 
C 375.94501 190.308207 376.708141 190.624306 377.50375 190.624306 
z
" style="fill:#f26b38;stroke:#ffffff;stroke-width:0.48;"/>
    <path clip-path="url(#p4c316cc6f9)" d="M 384.267386 190.624306 
C 385.062996 190.624306 385.826126 190.308207 386.388707 189.745626 
C 386.951287 189.183046 387.267386 188.419915 387.267386 187.624306 
C 387.267386 186.828697 386.951287 186.065567 386.388707 185.502986 
C 385.826126 184.940405 385.062996 184.624306 384.267386 184.624306 
C 383.471777 184.624306 382.708647 184.940405 382.146066 185.502986 
C 381.583485 186.065567 381.267386 186.828697 381.267386 187.624306 
C 381.267386 188.419915 381.583485 189.183046 382.146066 189.745626 
C 382.708647 190.308207 383.471777 190.624306 384.267386 190.624306 
z
" style="fill:#f26b38;stroke:#ffffff;stroke-width:0.48;"/>
    <path clip-path="url(#p4c316cc6f9)" d="M 391.031023 190.624306 
C 391.826632 190.624306 392.589762 190.308207 393.152343 189.745626 
C 393.714924 189.183046 394.031023 188.419915 394.031023 187.624306 
C 394.031023 186.828697 393.714924 186.065567 393.152343 185.502986 
C 392.589762 184.940405 391.826632 184.624306 391.031023 184.624306 
C 390.235413 184.624306 389.472283 184.940405 388.909702 185.502986 
C 388.347122 186.065567 388.031023 186.828697 388.031023 187.624306 
C 388.031023 188.419915 388.347122 189.183046 388.909702 189.745626 
C 389.472283 190.308207 390.235413 190.624306 391.031023 190.624306 
z
" style="fill:#f26b38;stroke:#ffffff;stroke-width:0.48;"/>
    <path clip-path="url(#p4c316cc6f9)" d="M 64.876477 27.387025 
L 66.376477 25.887025 
L 67.876477 27.387025 
L 69.376477 25.887025 
L 67.876477 24.387025 
L 69.376477 22.887025 
L 67.876477 21.387025 
L 66.376477 22.887025 
L 64.876477 21.387025 
L 63.376477 22.887025 
L 64.876477 24.387025 
L 63.376477 25.887025 
z
" style="fill:#2f9599;stroke:#ffffff;stroke-width:0.48;"/>
    <path clip-path="url(#p4c316cc6f9)" d="M 71.640114 41.479452 
L 73.140114 39.979452 
L 74.640114 41.479452 
L 76.140114 39.979452 
L 74.640114 38.479452 
L 76.140114 36.979452 
L 74.640114 35.479452 
L 73.140114 36.979452 
L 71.640114 35.479452 
L 70.140114 36.979452 
L 71.640114 38.479452 
L 70.140114 39.979452 
z
" style="fill:#2f9599;stroke:#ffffff;stroke-width:0.48;"/>
    <path clip-path="url(#p4c316cc6f9)" d="M 78.40375 126.034015 
L 79.90375 124.534015 
L 81.40375 126.034015 
L 82.90375 124.534015 
L 81.40375 123.034015 
L 82.90375 121.534015 
L 81.40375 120.034015 
L 79.90375 121.534015 
L 78.40375 120.034015 
L 76.90375 121.534015 
L 78.40375 123.034015 
L 76.90375 124.534015 
z
" style="fill:#2f9599;stroke:#ffffff;stroke-width:0.48;"/>
    <path clip-path="url(#p4c316cc6f9)" d="M 85.167386 168.311296 
L 86.667386 166.811296 
L 88.167386 168.311296 
L 89.667386 166.811296 
L 88.167386 165.311296 
L 89.667386 163.811296 
L 88.167386 162.311296 
L 86.667386 163.811296 
L 85.167386 162.311296 
L 83.667386 163.811296 
L 85.167386 165.311296 
L 83.667386 166.811296 
z
" style="fill:#2f9599;stroke:#ffffff;stroke-width:0.48;"/>
    <path clip-path="url(#p4c316cc6f9)" d="M 91.931023 140.126442 
L 93.431023 138.626442 
L 94.931023 140.126442 
L 96.431023 138.626442 
L 94.931023 137.126442 
L 96.431023 135.626442 
L 94.931023 134.126442 
L 93.431023 135.626442 
L 91.931023 134.126442 
L 90.431023 135.626442 
L 91.931023 137.126442 
L 90.431023 138.626442 
z
" style="fill:#2f9599;stroke:#ffffff;stroke-width:0.48;"/>
    <path clip-path="url(#p4c316cc6f9)" d="M 98.694659 182.403724 
L 100.194659 180.903724 
L 101.694659 182.403724 
L 103.194659 180.903724 
L 101.694659 179.403724 
L 103.194659 177.903724 
L 101.694659 176.403724 
L 100.194659 177.903724 
L 98.694659 176.403724 
L 97.194659 177.903724 
L 98.694659 179.403724 
L 97.194659 180.903724 
z
" style="fill:#2f9599;stroke:#ffffff;stroke-width:0.48;"/>
    <path clip-path="url(#p4c316cc6f9)" d="M 105.458295 182.403724 
L 106.958295 180.903724 
L 108.458295 182.403724 
L 109.958295 180.903724 
L 108.458295 179.403724 
L 109.958295 177.903724 
L 108.458295 176.403724 
L 106.958295 177.903724 
L 105.458295 176.403724 
L 103.958295 177.903724 
L 105.458295 179.403724 
L 103.958295 180.903724 
z
" style="fill:#2f9599;stroke:#ffffff;stroke-width:0.48;"/>
    <path clip-path="url(#p4c316cc6f9)" d="M 112.221932 182.403724 
L 113.721932 180.903724 
L 115.221932 182.403724 
L 116.721932 180.903724 
L 115.221932 179.403724 
L 116.721932 177.903724 
L 115.221932 176.403724 
L 113.721932 177.903724 
L 112.221932 176.403724 
L 110.721932 177.903724 
L 112.221932 179.403724 
L 110.721932 180.903724 
z
" style="fill:#2f9599;stroke:#ffffff;stroke-width:0.48;"/>
    <path clip-path="url(#p4c316cc6f9)" d="M 118.985568 182.403724 
L 120.485568 180.903724 
L 121.985568 182.403724 
L 123.485568 180.903724 
L 121.985568 179.403724 
L 123.485568 177.903724 
L 121.985568 176.403724 
L 120.485568 177.903724 
L 118.985568 176.403724 
L 117.485568 177.903724 
L 118.985568 179.403724 
L 117.485568 180.903724 
z
" style="fill:#2f9599;stroke:#ffffff;stroke-width:0.48;"/>
    <path clip-path="url(#p4c316cc6f9)" d="M 125.749205 126.034015 
L 127.249205 124.534015 
L 128.749205 126.034015 
L 130.249205 124.534015 
L 128.749205 123.034015 
L 130.249205 121.534015 
L 128.749205 120.034015 
L 127.249205 121.534015 
L 125.749205 120.034015 
L 124.249205 121.534015 
L 125.749205 123.034015 
L 124.249205 124.534015 
z
" style="fill:#2f9599;stroke:#ffffff;stroke-width:0.48;"/>
    <path clip-path="url(#p4c316cc6f9)" d="M 132.512841 111.941588 
L 134.012841 110.441588 
L 135.512841 111.941588 
L 137.012841 110.441588 
L 135.512841 108.941588 
L 137.012841 107.441588 
L 135.512841 105.941588 
L 134.012841 107.441588 
L 132.512841 105.941588 
L 131.012841 107.441588 
L 132.512841 108.941588 
L 131.012841 110.441588 
z
" style="fill:#2f9599;stroke:#ffffff;stroke-width:0.48;"/>
    <path clip-path="url(#p4c316cc6f9)" d="M 139.276477 238.773432 
L 140.776477 237.273432 
L 142.276477 238.773432 
L 143.776477 237.273432 
L 142.276477 235.773432 
L 143.776477 234.273432 
L 142.276477 232.773432 
L 140.776477 234.273432 
L 139.276477 232.773432 
L 137.776477 234.273432 
L 139.276477 235.773432 
L 137.776477 237.273432 
z
" style="fill:#2f9599;stroke:#ffffff;stroke-width:0.48;"/>
    <path clip-path="url(#p4c316cc6f9)" d="M 146.040114 238.773432 
L 147.540114 237.273432 
L 149.040114 238.773432 
L 150.540114 237.273432 
L 149.040114 235.773432 
L 150.540114 234.273432 
L 149.040114 232.773432 
L 147.540114 234.273432 
L 146.040114 232.773432 
L 144.540114 234.273432 
L 146.040114 235.773432 
L 144.540114 237.273432 
z
" style="fill:#2f9599;stroke:#ffffff;stroke-width:0.48;"/>
    <path clip-path="url(#p4c316cc6f9)" d="M 152.80375 238.773432 
L 154.30375 237.273432 
L 155.80375 238.773432 
L 157.30375 237.273432 
L 155.80375 235.773432 
L 157.30375 234.273432 
L 155.80375 232.773432 
L 154.30375 234.273432 
L 152.80375 232.773432 
L 151.30375 234.273432 
L 152.80375 235.773432 
L 151.30375 237.273432 
z
" style="fill:#2f9599;stroke:#ffffff;stroke-width:0.48;"/>
    <path clip-path="url(#p4c316cc6f9)" d="M 159.567386 238.773432 
L 161.067386 237.273432 
L 162.567386 238.773432 
L 164.067386 237.273432 
L 162.567386 235.773432 
L 164.067386 234.273432 
L 162.567386 232.773432 
L 161.067386 234.273432 
L 159.567386 232.773432 
L 158.067386 234.273432 
L 159.567386 235.773432 
L 158.067386 237.273432 
z
" style="fill:#2f9599;stroke:#ffffff;stroke-width:0.48;"/>
    <path clip-path="url(#p4c316cc6f9)" d="M 166.331023 266.958287 
L 167.831023 265.458287 
L 169.331023 266.958287 
L 170.831023 265.458287 
L 169.331023 263.958287 
L 170.831023 262.458287 
L 169.331023 260.958287 
L 167.831023 262.458287 
L 166.331023 260.958287 
L 164.831023 262.458287 
L 166.331023 263.958287 
L 164.831023 265.458287 
z
" style="fill:#2f9599;stroke:#ffffff;stroke-width:0.48;"/>
    <path clip-path="url(#p4c316cc6f9)" d="M 173.094659 238.773432 
L 174.594659 237.273432 
L 176.094659 238.773432 
L 177.594659 237.273432 
L 176.094659 235.773432 
L 177.594659 234.273432 
L 176.094659 232.773432 
L 174.594659 234.273432 
L 173.094659 232.773432 
L 171.594659 234.273432 
L 173.094659 235.773432 
L 171.594659 237.273432 
z
" style="fill:#2f9599;stroke:#ffffff;stroke-width:0.48;"/>
    <path clip-path="url(#p4c316cc6f9)" d="M 179.858295 238.773432 
L 181.358295 237.273432 
L 182.858295 238.773432 
L 184.358295 237.273432 
L 182.858295 235.773432 
L 184.358295 234.273432 
L 182.858295 232.773432 
L 181.358295 234.273432 
L 179.858295 232.773432 
L 178.358295 234.273432 
L 179.858295 235.773432 
L 178.358295 237.273432 
z
" style="fill:#2f9599;stroke:#ffffff;stroke-width:0.48;"/>
    <path clip-path="url(#p4c316cc6f9)" d="M 186.621932 238.773432 
L 188.121932 237.273432 
L 189.621932 238.773432 
L 191.121932 237.273432 
L 189.621932 235.773432 
L 191.121932 234.273432 
L 189.621932 232.773432 
L 188.121932 234.273432 
L 186.621932 232.773432 
L 185.121932 234.273432 
L 186.621932 235.773432 
L 185.121932 237.273432 
z
" style="fill:#2f9599;stroke:#ffffff;stroke-width:0.48;"/>
    <path clip-path="url(#p4c316cc6f9)" d="M 193.385568 238.773432 
L 194.885568 237.273432 
L 196.385568 238.773432 
L 197.885568 237.273432 
L 196.385568 235.773432 
L 197.885568 234.273432 
L 196.385568 232.773432 
L 194.885568 234.273432 
L 193.385568 232.773432 
L 191.885568 234.273432 
L 193.385568 235.773432 
L 191.885568 237.273432 
z
" style="fill:#2f9599;stroke:#ffffff;stroke-width:0.48;"/>
    <path clip-path="url(#p4c316cc6f9)" d="M 200.149205 238.773432 
L 201.649205 237.273432 
L 203.149205 238.773432 
L 204.649205 237.273432 
L 203.149205 235.773432 
L 204.649205 234.273432 
L 203.149205 232.773432 
L 201.649205 234.273432 
L 200.149205 232.773432 
L 198.649205 234.273432 
L 200.149205 235.773432 
L 198.649205 237.273432 
z
" style="fill:#2f9599;stroke:#ffffff;stroke-width:0.48;"/>
    <path clip-path="url(#p4c316cc6f9)" d="M 206.912841 238.773432 
L 208.412841 237.273432 
L 209.912841 238.773432 
L 211.412841 237.273432 
L 209.912841 235.773432 
L 211.412841 234.273432 
L 209.912841 232.773432 
L 208.412841 234.273432 
L 206.912841 232.773432 
L 205.412841 234.273432 
L 206.912841 235.773432 
L 205.412841 237.273432 
z
" style="fill:#2f9599;stroke:#ffffff;stroke-width:0.48;"/>
    <path clip-path="url(#p4c316cc6f9)" d="M 213.676477 238.773432 
L 215.176477 237.273432 
L 216.676477 238.773432 
L 218.176477 237.273432 
L 216.676477 235.773432 
L 218.176477 234.273432 
L 216.676477 232.773432 
L 215.176477 234.273432 
L 213.676477 232.773432 
L 212.176477 234.273432 
L 213.676477 235.773432 
L 212.176477 237.273432 
z
" style="fill:#2f9599;stroke:#ffffff;stroke-width:0.48;"/>
    <path clip-path="url(#p4c316cc6f9)" d="M 220.440114 238.773432 
L 221.940114 237.273432 
L 223.440114 238.773432 
L 224.940114 237.273432 
L 223.440114 235.773432 
L 224.940114 234.273432 
L 223.440114 232.773432 
L 221.940114 234.273432 
L 220.440114 232.773432 
L 218.940114 234.273432 
L 220.440114 235.773432 
L 218.940114 237.273432 
z
" style="fill:#2f9599;stroke:#ffffff;stroke-width:0.48;"/>
    <path clip-path="url(#p4c316cc6f9)" d="M 227.20375 238.773432 
L 228.70375 237.273432 
L 230.20375 238.773432 
L 231.70375 237.273432 
L 230.20375 235.773432 
L 231.70375 234.273432 
L 230.20375 232.773432 
L 228.70375 234.273432 
L 227.20375 232.773432 
L 225.70375 234.273432 
L 227.20375 235.773432 
L 225.70375 237.273432 
z
" style="fill:#2f9599;stroke:#ffffff;stroke-width:0.48;"/>
    <path clip-path="url(#p4c316cc6f9)" d="M 233.967386 238.773432 
L 235.467386 237.273432 
L 236.967386 238.773432 
L 238.467386 237.273432 
L 236.967386 235.773432 
L 238.467386 234.273432 
L 236.967386 232.773432 
L 235.467386 234.273432 
L 233.967386 232.773432 
L 232.467386 234.273432 
L 233.967386 235.773432 
L 232.467386 237.273432 
z
" style="fill:#2f9599;stroke:#ffffff;stroke-width:0.48;"/>
    <path clip-path="url(#p4c316cc6f9)" d="M 240.731023 238.773432 
L 242.231023 237.273432 
L 243.731023 238.773432 
L 245.231023 237.273432 
L 243.731023 235.773432 
L 245.231023 234.273432 
L 243.731023 232.773432 
L 242.231023 234.273432 
L 240.731023 232.773432 
L 239.231023 234.273432 
L 240.731023 235.773432 
L 239.231023 237.273432 
z
" style="fill:#2f9599;stroke:#ffffff;stroke-width:0.48;"/>
    <path clip-path="url(#p4c316cc6f9)" d="M 247.494659 238.773432 
L 248.994659 237.273432 
L 250.494659 238.773432 
L 251.994659 237.273432 
L 250.494659 235.773432 
L 251.994659 234.273432 
L 250.494659 232.773432 
L 248.994659 234.273432 
L 247.494659 232.773432 
L 245.994659 234.273432 
L 247.494659 235.773432 
L 245.994659 237.273432 
z
" style="fill:#2f9599;stroke:#ffffff;stroke-width:0.48;"/>
    <path clip-path="url(#p4c316cc6f9)" d="M 254.258295 238.773432 
L 255.758295 237.273432 
L 257.258295 238.773432 
L 258.758295 237.273432 
L 257.258295 235.773432 
L 258.758295 234.273432 
L 257.258295 232.773432 
L 255.758295 234.273432 
L 254.258295 232.773432 
L 252.758295 234.273432 
L 254.258295 235.773432 
L 252.758295 237.273432 
z
" style="fill:#2f9599;stroke:#ffffff;stroke-width:0.48;"/>
    <path clip-path="url(#p4c316cc6f9)" d="M 261.021932 238.773432 
L 262.521932 237.273432 
L 264.021932 238.773432 
L 265.521932 237.273432 
L 264.021932 235.773432 
L 265.521932 234.273432 
L 264.021932 232.773432 
L 262.521932 234.273432 
L 261.021932 232.773432 
L 259.521932 234.273432 
L 261.021932 235.773432 
L 259.521932 237.273432 
z
" style="fill:#2f9599;stroke:#ffffff;stroke-width:0.48;"/>
    <path clip-path="url(#p4c316cc6f9)" d="M 267.785568 238.773432 
L 269.285568 237.273432 
L 270.785568 238.773432 
L 272.285568 237.273432 
L 270.785568 235.773432 
L 272.285568 234.273432 
L 270.785568 232.773432 
L 269.285568 234.273432 
L 267.785568 232.773432 
L 266.285568 234.273432 
L 267.785568 235.773432 
L 266.285568 237.273432 
z
" style="fill:#2f9599;stroke:#ffffff;stroke-width:0.48;"/>
    <path clip-path="url(#p4c316cc6f9)" d="M 274.549205 238.773432 
L 276.049205 237.273432 
L 277.549205 238.773432 
L 279.049205 237.273432 
L 277.549205 235.773432 
L 279.049205 234.273432 
L 277.549205 232.773432 
L 276.049205 234.273432 
L 274.549205 232.773432 
L 273.049205 234.273432 
L 274.549205 235.773432 
L 273.049205 237.273432 
z
" style="fill:#2f9599;stroke:#ffffff;stroke-width:0.48;"/>
    <path clip-path="url(#p4c316cc6f9)" d="M 281.312841 238.773432 
L 282.812841 237.273432 
L 284.312841 238.773432 
L 285.812841 237.273432 
L 284.312841 235.773432 
L 285.812841 234.273432 
L 284.312841 232.773432 
L 282.812841 234.273432 
L 281.312841 232.773432 
L 279.812841 234.273432 
L 281.312841 235.773432 
L 279.812841 237.273432 
z
" style="fill:#2f9599;stroke:#ffffff;stroke-width:0.48;"/>
    <path clip-path="url(#p4c316cc6f9)" d="M 288.076477 238.773432 
L 289.576477 237.273432 
L 291.076477 238.773432 
L 292.576477 237.273432 
L 291.076477 235.773432 
L 292.576477 234.273432 
L 291.076477 232.773432 
L 289.576477 234.273432 
L 288.076477 232.773432 
L 286.576477 234.273432 
L 288.076477 235.773432 
L 286.576477 237.273432 
z
" style="fill:#2f9599;stroke:#ffffff;stroke-width:0.48;"/>
    <path clip-path="url(#p4c316cc6f9)" d="M 294.840114 238.773432 
L 296.340114 237.273432 
L 297.840114 238.773432 
L 299.340114 237.273432 
L 297.840114 235.773432 
L 299.340114 234.273432 
L 297.840114 232.773432 
L 296.340114 234.273432 
L 294.840114 232.773432 
L 293.340114 234.273432 
L 294.840114 235.773432 
L 293.340114 237.273432 
z
" style="fill:#2f9599;stroke:#ffffff;stroke-width:0.48;"/>
    <path clip-path="url(#p4c316cc6f9)" d="M 301.60375 238.773432 
L 303.10375 237.273432 
L 304.60375 238.773432 
L 306.10375 237.273432 
L 304.60375 235.773432 
L 306.10375 234.273432 
L 304.60375 232.773432 
L 303.10375 234.273432 
L 301.60375 232.773432 
L 300.10375 234.273432 
L 301.60375 235.773432 
L 300.10375 237.273432 
z
" style="fill:#2f9599;stroke:#ffffff;stroke-width:0.48;"/>
    <path clip-path="url(#p4c316cc6f9)" d="M 308.367386 238.773432 
L 309.867386 237.273432 
L 311.367386 238.773432 
L 312.867386 237.273432 
L 311.367386 235.773432 
L 312.867386 234.273432 
L 311.367386 232.773432 
L 309.867386 234.273432 
L 308.367386 232.773432 
L 306.867386 234.273432 
L 308.367386 235.773432 
L 306.867386 237.273432 
z
" style="fill:#2f9599;stroke:#ffffff;stroke-width:0.48;"/>
    <path clip-path="url(#p4c316cc6f9)" d="M 315.131023 238.773432 
L 316.631023 237.273432 
L 318.131023 238.773432 
L 319.631023 237.273432 
L 318.131023 235.773432 
L 319.631023 234.273432 
L 318.131023 232.773432 
L 316.631023 234.273432 
L 315.131023 232.773432 
L 313.631023 234.273432 
L 315.131023 235.773432 
L 313.631023 237.273432 
z
" style="fill:#2f9599;stroke:#ffffff;stroke-width:0.48;"/>
    <path clip-path="url(#p4c316cc6f9)" d="M 321.894659 238.773432 
L 323.394659 237.273432 
L 324.894659 238.773432 
L 326.394659 237.273432 
L 324.894659 235.773432 
L 326.394659 234.273432 
L 324.894659 232.773432 
L 323.394659 234.273432 
L 321.894659 232.773432 
L 320.394659 234.273432 
L 321.894659 235.773432 
L 320.394659 237.273432 
z
" style="fill:#2f9599;stroke:#ffffff;stroke-width:0.48;"/>
    <path clip-path="url(#p4c316cc6f9)" d="M 328.658295 238.773432 
L 330.158295 237.273432 
L 331.658295 238.773432 
L 333.158295 237.273432 
L 331.658295 235.773432 
L 333.158295 234.273432 
L 331.658295 232.773432 
L 330.158295 234.273432 
L 328.658295 232.773432 
L 327.158295 234.273432 
L 328.658295 235.773432 
L 327.158295 237.273432 
z
" style="fill:#2f9599;stroke:#ffffff;stroke-width:0.48;"/>
    <path clip-path="url(#p4c316cc6f9)" d="M 335.421932 238.773432 
L 336.921932 237.273432 
L 338.421932 238.773432 
L 339.921932 237.273432 
L 338.421932 235.773432 
L 339.921932 234.273432 
L 338.421932 232.773432 
L 336.921932 234.273432 
L 335.421932 232.773432 
L 333.921932 234.273432 
L 335.421932 235.773432 
L 333.921932 237.273432 
z
" style="fill:#2f9599;stroke:#ffffff;stroke-width:0.48;"/>
    <path clip-path="url(#p4c316cc6f9)" d="M 342.185568 238.773432 
L 343.685568 237.273432 
L 345.185568 238.773432 
L 346.685568 237.273432 
L 345.185568 235.773432 
L 346.685568 234.273432 
L 345.185568 232.773432 
L 343.685568 234.273432 
L 342.185568 232.773432 
L 340.685568 234.273432 
L 342.185568 235.773432 
L 340.685568 237.273432 
z
" style="fill:#2f9599;stroke:#ffffff;stroke-width:0.48;"/>
    <path clip-path="url(#p4c316cc6f9)" d="M 348.949205 238.773432 
L 350.449205 237.273432 
L 351.949205 238.773432 
L 353.449205 237.273432 
L 351.949205 235.773432 
L 353.449205 234.273432 
L 351.949205 232.773432 
L 350.449205 234.273432 
L 348.949205 232.773432 
L 347.449205 234.273432 
L 348.949205 235.773432 
L 347.449205 237.273432 
z
" style="fill:#2f9599;stroke:#ffffff;stroke-width:0.48;"/>
    <path clip-path="url(#p4c316cc6f9)" d="M 355.712841 238.773432 
L 357.212841 237.273432 
L 358.712841 238.773432 
L 360.212841 237.273432 
L 358.712841 235.773432 
L 360.212841 234.273432 
L 358.712841 232.773432 
L 357.212841 234.273432 
L 355.712841 232.773432 
L 354.212841 234.273432 
L 355.712841 235.773432 
L 354.212841 237.273432 
z
" style="fill:#2f9599;stroke:#ffffff;stroke-width:0.48;"/>
    <path clip-path="url(#p4c316cc6f9)" d="M 362.476477 238.773432 
L 363.976477 237.273432 
L 365.476477 238.773432 
L 366.976477 237.273432 
L 365.476477 235.773432 
L 366.976477 234.273432 
L 365.476477 232.773432 
L 363.976477 234.273432 
L 362.476477 232.773432 
L 360.976477 234.273432 
L 362.476477 235.773432 
L 360.976477 237.273432 
z
" style="fill:#2f9599;stroke:#ffffff;stroke-width:0.48;"/>
    <path clip-path="url(#p4c316cc6f9)" d="M 369.240114 238.773432 
L 370.740114 237.273432 
L 372.240114 238.773432 
L 373.740114 237.273432 
L 372.240114 235.773432 
L 373.740114 234.273432 
L 372.240114 232.773432 
L 370.740114 234.273432 
L 369.240114 232.773432 
L 367.740114 234.273432 
L 369.240114 235.773432 
L 367.740114 237.273432 
z
" style="fill:#2f9599;stroke:#ffffff;stroke-width:0.48;"/>
    <path clip-path="url(#p4c316cc6f9)" d="M 376.00375 238.773432 
L 377.50375 237.273432 
L 379.00375 238.773432 
L 380.50375 237.273432 
L 379.00375 235.773432 
L 380.50375 234.273432 
L 379.00375 232.773432 
L 377.50375 234.273432 
L 376.00375 232.773432 
L 374.50375 234.273432 
L 376.00375 235.773432 
L 374.50375 237.273432 
z
" style="fill:#2f9599;stroke:#ffffff;stroke-width:0.48;"/>
    <path clip-path="url(#p4c316cc6f9)" d="M 382.767386 238.773432 
L 384.267386 237.273432 
L 385.767386 238.773432 
L 387.267386 237.273432 
L 385.767386 235.773432 
L 387.267386 234.273432 
L 385.767386 232.773432 
L 384.267386 234.273432 
L 382.767386 232.773432 
L 381.267386 234.273432 
L 382.767386 235.773432 
L 381.267386 237.273432 
z
" style="fill:#2f9599;stroke:#ffffff;stroke-width:0.48;"/>
    <path clip-path="url(#p4c316cc6f9)" d="M 389.531023 238.773432 
L 391.031023 237.273432 
L 392.531023 238.773432 
L 394.031023 237.273432 
L 392.531023 235.773432 
L 394.031023 234.273432 
L 392.531023 232.773432 
L 391.031023 234.273432 
L 389.531023 232.773432 
L 388.031023 234.273432 
L 389.531023 235.773432 
L 388.031023 237.273432 
z
" style="fill:#2f9599;stroke:#ffffff;stroke-width:0.48;"/>
    <path clip-path="url(#p4c316cc6f9)" d="M 64.255157 31.181321 
L 64.255157 35.423962 
L 68.497798 35.423962 
L 68.497798 31.181321 
z
" style="fill:#a7226e;stroke:#ffffff;stroke-width:0.48;"/>
    <path clip-path="url(#p4c316cc6f9)" d="M 71.018793 31.181321 
L 71.018793 35.423962 
L 75.261434 35.423962 
L 75.261434 31.181321 
z
" style="fill:#a7226e;stroke:#ffffff;stroke-width:0.48;"/>
    <path clip-path="url(#p4c316cc6f9)" d="M 77.78243 31.181321 
L 77.78243 35.423962 
L 82.02507 35.423962 
L 82.02507 31.181321 
z
" style="fill:#a7226e;stroke:#ffffff;stroke-width:0.48;"/>
    <path clip-path="url(#p4c316cc6f9)" d="M 84.546066 31.181321 
L 84.546066 35.423962 
L 88.788707 35.423962 
L 88.788707 31.181321 
z
" style="fill:#a7226e;stroke:#ffffff;stroke-width:0.48;"/>
    <path clip-path="url(#p4c316cc6f9)" d="M 91.309702 31.181321 
L 91.309702 35.423962 
L 95.552343 35.423962 
L 95.552343 31.181321 
z
" style="fill:#a7226e;stroke:#ffffff;stroke-width:0.48;"/>
    <path clip-path="url(#p4c316cc6f9)" d="M 98.073339 31.181321 
L 98.073339 35.423962 
L 102.315979 35.423962 
L 102.315979 31.181321 
z
" style="fill:#a7226e;stroke:#ffffff;stroke-width:0.48;"/>
    <path clip-path="url(#p4c316cc6f9)" d="M 104.836975 31.181321 
L 104.836975 35.423962 
L 109.079616 35.423962 
L 109.079616 31.181321 
z
" style="fill:#a7226e;stroke:#ffffff;stroke-width:0.48;"/>
    <path clip-path="url(#p4c316cc6f9)" d="M 111.600611 44.698548 
L 111.600611 48.941188 
L 115.843252 48.941188 
L 115.843252 44.698548 
z
" style="fill:#a7226e;stroke:#ffffff;stroke-width:0.48;"/>
    <path clip-path="url(#p4c316cc6f9)" d="M 118.364248 44.698548 
L 118.364248 48.941188 
L 122.606889 48.941188 
L 122.606889 44.698548 
z
" style="fill:#a7226e;stroke:#ffffff;stroke-width:0.48;"/>
    <path clip-path="url(#p4c316cc6f9)" d="M 125.127884 31.181321 
L 125.127884 35.423962 
L 129.370525 35.423962 
L 129.370525 31.181321 
z
" style="fill:#a7226e;stroke:#ffffff;stroke-width:0.48;"/>
    <path clip-path="url(#p4c316cc6f9)" d="M 131.891521 31.181321 
L 131.891521 35.423962 
L 136.134161 35.423962 
L 136.134161 31.181321 
z
" style="fill:#a7226e;stroke:#ffffff;stroke-width:0.48;"/>
    <path clip-path="url(#p4c316cc6f9)" d="M 138.655157 44.698548 
L 138.655157 48.941188 
L 142.897798 48.941188 
L 142.897798 44.698548 
z
" style="fill:#a7226e;stroke:#ffffff;stroke-width:0.48;"/>
    <path clip-path="url(#p4c316cc6f9)" d="M 145.418793 44.698548 
L 145.418793 48.941188 
L 149.661434 48.941188 
L 149.661434 44.698548 
z
" style="fill:#a7226e;stroke:#ffffff;stroke-width:0.48;"/>
    <path clip-path="url(#p4c316cc6f9)" d="M 152.18243 44.698548 
L 152.18243 48.941188 
L 156.42507 48.941188 
L 156.42507 44.698548 
z
" style="fill:#a7226e;stroke:#ffffff;stroke-width:0.48;"/>
    <path clip-path="url(#p4c316cc6f9)" d="M 158.946066 31.181321 
L 158.946066 35.423962 
L 163.188707 35.423962 
L 163.188707 31.181321 
z
" style="fill:#a7226e;stroke:#ffffff;stroke-width:0.48;"/>
    <path clip-path="url(#p4c316cc6f9)" d="M 165.709702 139.31913 
L 165.709702 143.561771 
L 169.952343 143.561771 
L 169.952343 139.31913 
z
" style="fill:#a7226e;stroke:#ffffff;stroke-width:0.48;"/>
    <path clip-path="url(#p4c316cc6f9)" d="M 172.473339 139.31913 
L 172.473339 143.561771 
L 176.715979 143.561771 
L 176.715979 139.31913 
z
" style="fill:#a7226e;stroke:#ffffff;stroke-width:0.48;"/>
    <path clip-path="url(#p4c316cc6f9)" d="M 179.236975 193.388034 
L 179.236975 197.630675 
L 183.479616 197.630675 
L 183.479616 193.388034 
z
" style="fill:#a7226e;stroke:#ffffff;stroke-width:0.48;"/>
    <path clip-path="url(#p4c316cc6f9)" d="M 186.000611 193.388034 
L 186.000611 197.630675 
L 190.243252 197.630675 
L 190.243252 193.388034 
z
" style="fill:#a7226e;stroke:#ffffff;stroke-width:0.48;"/>
    <path clip-path="url(#p4c316cc6f9)" d="M 192.764248 179.870808 
L 192.764248 184.113449 
L 197.006889 184.113449 
L 197.006889 179.870808 
z
" style="fill:#a7226e;stroke:#ffffff;stroke-width:0.48;"/>
    <path clip-path="url(#p4c316cc6f9)" d="M 199.527884 179.870808 
L 199.527884 184.113449 
L 203.770525 184.113449 
L 203.770525 179.870808 
z
" style="fill:#a7226e;stroke:#ffffff;stroke-width:0.48;"/>
    <path clip-path="url(#p4c316cc6f9)" d="M 206.291521 179.870808 
L 206.291521 184.113449 
L 210.534161 184.113449 
L 210.534161 179.870808 
z
" style="fill:#a7226e;stroke:#ffffff;stroke-width:0.48;"/>
    <path clip-path="url(#p4c316cc6f9)" d="M 213.055157 166.353582 
L 213.055157 170.596223 
L 217.297798 170.596223 
L 217.297798 166.353582 
z
" style="fill:#a7226e;stroke:#ffffff;stroke-width:0.48;"/>
    <path clip-path="url(#p4c316cc6f9)" d="M 219.818793 166.353582 
L 219.818793 170.596223 
L 224.061434 170.596223 
L 224.061434 166.353582 
z
" style="fill:#a7226e;stroke:#ffffff;stroke-width:0.48;"/>
    <path clip-path="url(#p4c316cc6f9)" d="M 226.58243 166.353582 
L 226.58243 170.596223 
L 230.82507 170.596223 
L 230.82507 166.353582 
z
" style="fill:#a7226e;stroke:#ffffff;stroke-width:0.48;"/>
    <path clip-path="url(#p4c316cc6f9)" d="M 233.346066 166.353582 
L 233.346066 170.596223 
L 237.588707 170.596223 
L 237.588707 166.353582 
z
" style="fill:#a7226e;stroke:#ffffff;stroke-width:0.48;"/>
    <path clip-path="url(#p4c316cc6f9)" d="M 240.109702 166.353582 
L 240.109702 170.596223 
L 244.352343 170.596223 
L 244.352343 166.353582 
z
" style="fill:#a7226e;stroke:#ffffff;stroke-width:0.48;"/>
    <path clip-path="url(#p4c316cc6f9)" d="M 246.873339 112.284678 
L 246.873339 116.527319 
L 251.115979 116.527319 
L 251.115979 112.284678 
z
" style="fill:#a7226e;stroke:#ffffff;stroke-width:0.48;"/>
    <path clip-path="url(#p4c316cc6f9)" d="M 253.636975 166.353582 
L 253.636975 170.596223 
L 257.879616 170.596223 
L 257.879616 166.353582 
z
" style="fill:#a7226e;stroke:#ffffff;stroke-width:0.48;"/>
    <path clip-path="url(#p4c316cc6f9)" d="M 260.400611 220.422486 
L 260.400611 224.665127 
L 264.643252 224.665127 
L 264.643252 220.422486 
z
" style="fill:#a7226e;stroke:#ffffff;stroke-width:0.48;"/>
    <path clip-path="url(#p4c316cc6f9)" d="M 267.164248 206.90526 
L 267.164248 211.147901 
L 271.406889 211.147901 
L 271.406889 206.90526 
z
" style="fill:#a7226e;stroke:#ffffff;stroke-width:0.48;"/>
    <path clip-path="url(#p4c316cc6f9)" d="M 273.927884 206.90526 
L 273.927884 211.147901 
L 278.170525 211.147901 
L 278.170525 206.90526 
z
" style="fill:#a7226e;stroke:#ffffff;stroke-width:0.48;"/>
    <path clip-path="url(#p4c316cc6f9)" d="M 280.691521 206.90526 
L 280.691521 211.147901 
L 284.934161 211.147901 
L 284.934161 206.90526 
z
" style="fill:#a7226e;stroke:#ffffff;stroke-width:0.48;"/>
    <path clip-path="url(#p4c316cc6f9)" d="M 287.455157 179.870808 
L 287.455157 184.113449 
L 291.697798 184.113449 
L 291.697798 179.870808 
z
" style="fill:#a7226e;stroke:#ffffff;stroke-width:0.48;"/>
    <path clip-path="url(#p4c316cc6f9)" d="M 294.218793 179.870808 
L 294.218793 184.113449 
L 298.461434 184.113449 
L 298.461434 179.870808 
z
" style="fill:#a7226e;stroke:#ffffff;stroke-width:0.48;"/>
    <path clip-path="url(#p4c316cc6f9)" d="M 300.98243 179.870808 
L 300.98243 184.113449 
L 305.22507 184.113449 
L 305.22507 179.870808 
z
" style="fill:#a7226e;stroke:#ffffff;stroke-width:0.48;"/>
    <path clip-path="url(#p4c316cc6f9)" d="M 307.746066 179.870808 
L 307.746066 184.113449 
L 311.988707 184.113449 
L 311.988707 179.870808 
z
" style="fill:#a7226e;stroke:#ffffff;stroke-width:0.48;"/>
    <path clip-path="url(#p4c316cc6f9)" d="M 314.509702 179.870808 
L 314.509702 184.113449 
L 318.752343 184.113449 
L 318.752343 179.870808 
z
" style="fill:#a7226e;stroke:#ffffff;stroke-width:0.48;"/>
    <path clip-path="url(#p4c316cc6f9)" d="M 321.273339 179.870808 
L 321.273339 184.113449 
L 325.515979 184.113449 
L 325.515979 179.870808 
z
" style="fill:#a7226e;stroke:#ffffff;stroke-width:0.48;"/>
    <path clip-path="url(#p4c316cc6f9)" d="M 328.036975 179.870808 
L 328.036975 184.113449 
L 332.279616 184.113449 
L 332.279616 179.870808 
z
" style="fill:#a7226e;stroke:#ffffff;stroke-width:0.48;"/>
    <path clip-path="url(#p4c316cc6f9)" d="M 334.800611 179.870808 
L 334.800611 184.113449 
L 339.043252 184.113449 
L 339.043252 179.870808 
z
" style="fill:#a7226e;stroke:#ffffff;stroke-width:0.48;"/>
    <path clip-path="url(#p4c316cc6f9)" d="M 341.564248 179.870808 
L 341.564248 184.113449 
L 345.806889 184.113449 
L 345.806889 179.870808 
z
" style="fill:#a7226e;stroke:#ffffff;stroke-width:0.48;"/>
    <path clip-path="url(#p4c316cc6f9)" d="M 348.327884 179.870808 
L 348.327884 184.113449 
L 352.570525 184.113449 
L 352.570525 179.870808 
z
" style="fill:#a7226e;stroke:#ffffff;stroke-width:0.48;"/>
    <path clip-path="url(#p4c316cc6f9)" d="M 355.091521 179.870808 
L 355.091521 184.113449 
L 359.334161 184.113449 
L 359.334161 179.870808 
z
" style="fill:#a7226e;stroke:#ffffff;stroke-width:0.48;"/>
    <path clip-path="url(#p4c316cc6f9)" d="M 361.855157 179.870808 
L 361.855157 184.113449 
L 366.097798 184.113449 
L 366.097798 179.870808 
z
" style="fill:#a7226e;stroke:#ffffff;stroke-width:0.48;"/>
    <path clip-path="url(#p4c316cc6f9)" d="M 368.618793 179.870808 
L 368.618793 184.113449 
L 372.861434 184.113449 
L 372.861434 179.870808 
z
" style="fill:#a7226e;stroke:#ffffff;stroke-width:0.48;"/>
    <path clip-path="url(#p4c316cc6f9)" d="M 375.38243 179.870808 
L 375.38243 184.113449 
L 379.62507 184.113449 
L 379.62507 179.870808 
z
" style="fill:#a7226e;stroke:#ffffff;stroke-width:0.48;"/>
    <path clip-path="url(#p4c316cc6f9)" d="M 382.146066 179.870808 
L 382.146066 184.113449 
L 386.388707 184.113449 
L 386.388707 179.870808 
z
" style="fill:#a7226e;stroke:#ffffff;stroke-width:0.48;"/>
    <path clip-path="url(#p4c316cc6f9)" d="M 388.909702 179.870808 
L 388.909702 184.113449 
L 393.152343 184.113449 
L 393.152343 179.870808 
z
" style="fill:#a7226e;stroke:#ffffff;stroke-width:0.48;"/>
   </g>
   <g id="PathCollection_2"/>
   <g id="PathCollection_3"/>
   <g id="PathCollection_4"/>
   <g id="matplotlib.axis_1">
    <g id="xtick_1">
     <g id="line2d_1">
      <defs>
       <path d="M 0 0 
L 0 3.5 
" id="m0b7249d25d" style="stroke:#000000;stroke-width:0.8;"/>
      </defs>
      <g>
       <use style="stroke:#000000;stroke-width:0.8;" x="59.612841" xlink:href="#m0b7249d25d" y="276.054287"/>
      </g>
     </g>
     <g id="text_1">
      <!-- 0.0 -->
      <g transform="translate(51.661278 290.652724)scale(0.1 -0.1)">
       <defs>
        <path d="M 31.78125 66.40625 
Q 24.171875 66.40625 20.328125 58.90625 
Q 16.5 51.421875 16.5 36.375 
Q 16.5 21.390625 20.328125 13.890625 
Q 24.171875 6.390625 31.78125 6.390625 
Q 39.453125 6.390625 43.28125 13.890625 
Q 47.125 21.390625 47.125 36.375 
Q 47.125 51.421875 43.28125 58.90625 
Q 39.453125 66.40625 31.78125 66.40625 
z
M 31.78125 74.21875 
Q 44.046875 74.21875 50.515625 64.515625 
Q 56.984375 54.828125 56.984375 36.375 
Q 56.984375 17.96875 50.515625 8.265625 
Q 44.046875 -1.421875 31.78125 -1.421875 
Q 19.53125 -1.421875 13.0625 8.265625 
Q 6.59375 17.96875 6.59375 36.375 
Q 6.59375 54.828125 13.0625 64.515625 
Q 19.53125 74.21875 31.78125 74.21875 
z
" id="DejaVuSans-48"/>
        <path d="M 10.6875 12.40625 
L 21 12.40625 
L 21 0 
L 10.6875 0 
z
" id="DejaVuSans-46"/>
       </defs>
       <use xlink:href="#DejaVuSans-48"/>
       <use x="63.623047" xlink:href="#DejaVuSans-46"/>
       <use x="95.410156" xlink:href="#DejaVuSans-48"/>
      </g>
     </g>
    </g>
    <g id="xtick_2">
     <g id="line2d_2">
      <g>
       <use style="stroke:#000000;stroke-width:0.8;" x="127.249205" xlink:href="#m0b7249d25d" y="276.054287"/>
      </g>
     </g>
     <g id="text_2">
      <!-- 0.2 -->
      <g transform="translate(119.297642 290.652724)scale(0.1 -0.1)">
       <defs>
        <path d="M 19.1875 8.296875 
L 53.609375 8.296875 
L 53.609375 0 
L 7.328125 0 
L 7.328125 8.296875 
Q 12.9375 14.109375 22.625 23.890625 
Q 32.328125 33.6875 34.8125 36.53125 
Q 39.546875 41.84375 41.421875 45.53125 
Q 43.3125 49.21875 43.3125 52.78125 
Q 43.3125 58.59375 39.234375 62.25 
Q 35.15625 65.921875 28.609375 65.921875 
Q 23.96875 65.921875 18.8125 64.3125 
Q 13.671875 62.703125 7.8125 59.421875 
L 7.8125 69.390625 
Q 13.765625 71.78125 18.9375 73 
Q 24.125 74.21875 28.421875 74.21875 
Q 39.75 74.21875 46.484375 68.546875 
Q 53.21875 62.890625 53.21875 53.421875 
Q 53.21875 48.921875 51.53125 44.890625 
Q 49.859375 40.875 45.40625 35.40625 
Q 44.1875 33.984375 37.640625 27.21875 
Q 31.109375 20.453125 19.1875 8.296875 
z
" id="DejaVuSans-50"/>
       </defs>
       <use xlink:href="#DejaVuSans-48"/>
       <use x="63.623047" xlink:href="#DejaVuSans-46"/>
       <use x="95.410156" xlink:href="#DejaVuSans-50"/>
      </g>
     </g>
    </g>
    <g id="xtick_3">
     <g id="line2d_3">
      <g>
       <use style="stroke:#000000;stroke-width:0.8;" x="194.885568" xlink:href="#m0b7249d25d" y="276.054287"/>
      </g>
     </g>
     <g id="text_3">
      <!-- 0.4 -->
      <g transform="translate(186.934006 290.652724)scale(0.1 -0.1)">
       <defs>
        <path d="M 37.796875 64.3125 
L 12.890625 25.390625 
L 37.796875 25.390625 
z
M 35.203125 72.90625 
L 47.609375 72.90625 
L 47.609375 25.390625 
L 58.015625 25.390625 
L 58.015625 17.1875 
L 47.609375 17.1875 
L 47.609375 0 
L 37.796875 0 
L 37.796875 17.1875 
L 4.890625 17.1875 
L 4.890625 26.703125 
z
" id="DejaVuSans-52"/>
       </defs>
       <use xlink:href="#DejaVuSans-48"/>
       <use x="63.623047" xlink:href="#DejaVuSans-46"/>
       <use x="95.410156" xlink:href="#DejaVuSans-52"/>
      </g>
     </g>
    </g>
    <g id="xtick_4">
     <g id="line2d_4">
      <g>
       <use style="stroke:#000000;stroke-width:0.8;" x="262.521932" xlink:href="#m0b7249d25d" y="276.054287"/>
      </g>
     </g>
     <g id="text_4">
      <!-- 0.6 -->
      <g transform="translate(254.570369 290.652724)scale(0.1 -0.1)">
       <defs>
        <path d="M 33.015625 40.375 
Q 26.375 40.375 22.484375 35.828125 
Q 18.609375 31.296875 18.609375 23.390625 
Q 18.609375 15.53125 22.484375 10.953125 
Q 26.375 6.390625 33.015625 6.390625 
Q 39.65625 6.390625 43.53125 10.953125 
Q 47.40625 15.53125 47.40625 23.390625 
Q 47.40625 31.296875 43.53125 35.828125 
Q 39.65625 40.375 33.015625 40.375 
z
M 52.59375 71.296875 
L 52.59375 62.3125 
Q 48.875 64.0625 45.09375 64.984375 
Q 41.3125 65.921875 37.59375 65.921875 
Q 27.828125 65.921875 22.671875 59.328125 
Q 17.53125 52.734375 16.796875 39.40625 
Q 19.671875 43.65625 24.015625 45.921875 
Q 28.375 48.1875 33.59375 48.1875 
Q 44.578125 48.1875 50.953125 41.515625 
Q 57.328125 34.859375 57.328125 23.390625 
Q 57.328125 12.15625 50.6875 5.359375 
Q 44.046875 -1.421875 33.015625 -1.421875 
Q 20.359375 -1.421875 13.671875 8.265625 
Q 6.984375 17.96875 6.984375 36.375 
Q 6.984375 53.65625 15.1875 63.9375 
Q 23.390625 74.21875 37.203125 74.21875 
Q 40.921875 74.21875 44.703125 73.484375 
Q 48.484375 72.75 52.59375 71.296875 
z
" id="DejaVuSans-54"/>
       </defs>
       <use xlink:href="#DejaVuSans-48"/>
       <use x="63.623047" xlink:href="#DejaVuSans-46"/>
       <use x="95.410156" xlink:href="#DejaVuSans-54"/>
      </g>
     </g>
    </g>
    <g id="xtick_5">
     <g id="line2d_5">
      <g>
       <use style="stroke:#000000;stroke-width:0.8;" x="330.158295" xlink:href="#m0b7249d25d" y="276.054287"/>
      </g>
     </g>
     <g id="text_5">
      <!-- 0.8 -->
      <g transform="translate(322.206733 290.652724)scale(0.1 -0.1)">
       <defs>
        <path d="M 31.78125 34.625 
Q 24.75 34.625 20.71875 30.859375 
Q 16.703125 27.09375 16.703125 20.515625 
Q 16.703125 13.921875 20.71875 10.15625 
Q 24.75 6.390625 31.78125 6.390625 
Q 38.8125 6.390625 42.859375 10.171875 
Q 46.921875 13.96875 46.921875 20.515625 
Q 46.921875 27.09375 42.890625 30.859375 
Q 38.875 34.625 31.78125 34.625 
z
M 21.921875 38.8125 
Q 15.578125 40.375 12.03125 44.71875 
Q 8.5 49.078125 8.5 55.328125 
Q 8.5 64.0625 14.71875 69.140625 
Q 20.953125 74.21875 31.78125 74.21875 
Q 42.671875 74.21875 48.875 69.140625 
Q 55.078125 64.0625 55.078125 55.328125 
Q 55.078125 49.078125 51.53125 44.71875 
Q 48 40.375 41.703125 38.8125 
Q 48.828125 37.15625 52.796875 32.3125 
Q 56.78125 27.484375 56.78125 20.515625 
Q 56.78125 9.90625 50.3125 4.234375 
Q 43.84375 -1.421875 31.78125 -1.421875 
Q 19.734375 -1.421875 13.25 4.234375 
Q 6.78125 9.90625 6.78125 20.515625 
Q 6.78125 27.484375 10.78125 32.3125 
Q 14.796875 37.15625 21.921875 38.8125 
z
M 18.3125 54.390625 
Q 18.3125 48.734375 21.84375 45.5625 
Q 25.390625 42.390625 31.78125 42.390625 
Q 38.140625 42.390625 41.71875 45.5625 
Q 45.3125 48.734375 45.3125 54.390625 
Q 45.3125 60.0625 41.71875 63.234375 
Q 38.140625 66.40625 31.78125 66.40625 
Q 25.390625 66.40625 21.84375 63.234375 
Q 18.3125 60.0625 18.3125 54.390625 
z
" id="DejaVuSans-56"/>
       </defs>
       <use xlink:href="#DejaVuSans-48"/>
       <use x="63.623047" xlink:href="#DejaVuSans-46"/>
       <use x="95.410156" xlink:href="#DejaVuSans-56"/>
      </g>
     </g>
    </g>
    <g id="xtick_6">
     <g id="line2d_6">
      <g>
       <use style="stroke:#000000;stroke-width:0.8;" x="397.794659" xlink:href="#m0b7249d25d" y="276.054287"/>
      </g>
     </g>
     <g id="text_6">
      <!-- 1.0 -->
      <g transform="translate(389.843097 290.652724)scale(0.1 -0.1)">
       <defs>
        <path d="M 12.40625 8.296875 
L 28.515625 8.296875 
L 28.515625 63.921875 
L 10.984375 60.40625 
L 10.984375 69.390625 
L 28.421875 72.90625 
L 38.28125 72.90625 
L 38.28125 8.296875 
L 54.390625 8.296875 
L 54.390625 0 
L 12.40625 0 
z
" id="DejaVuSans-49"/>
       </defs>
       <use xlink:href="#DejaVuSans-49"/>
       <use x="63.623047" xlink:href="#DejaVuSans-46"/>
       <use x="95.410156" xlink:href="#DejaVuSans-48"/>
      </g>
     </g>
    </g>
    <g id="text_7">
     <!-- cutoff -->
     <g transform="translate(214.245938 304.330849)scale(0.1 -0.1)">
      <defs>
       <path d="M 48.78125 52.59375 
L 48.78125 44.1875 
Q 44.96875 46.296875 41.140625 47.34375 
Q 37.3125 48.390625 33.40625 48.390625 
Q 24.65625 48.390625 19.8125 42.84375 
Q 14.984375 37.3125 14.984375 27.296875 
Q 14.984375 17.28125 19.8125 11.734375 
Q 24.65625 6.203125 33.40625 6.203125 
Q 37.3125 6.203125 41.140625 7.25 
Q 44.96875 8.296875 48.78125 10.40625 
L 48.78125 2.09375 
Q 45.015625 0.34375 40.984375 -0.53125 
Q 36.96875 -1.421875 32.421875 -1.421875 
Q 20.0625 -1.421875 12.78125 6.34375 
Q 5.515625 14.109375 5.515625 27.296875 
Q 5.515625 40.671875 12.859375 48.328125 
Q 20.21875 56 33.015625 56 
Q 37.15625 56 41.109375 55.140625 
Q 45.0625 54.296875 48.78125 52.59375 
z
" id="DejaVuSans-99"/>
       <path d="M 8.5 21.578125 
L 8.5 54.6875 
L 17.484375 54.6875 
L 17.484375 21.921875 
Q 17.484375 14.15625 20.5 10.265625 
Q 23.53125 6.390625 29.59375 6.390625 
Q 36.859375 6.390625 41.078125 11.03125 
Q 45.3125 15.671875 45.3125 23.6875 
L 45.3125 54.6875 
L 54.296875 54.6875 
L 54.296875 0 
L 45.3125 0 
L 45.3125 8.40625 
Q 42.046875 3.421875 37.71875 1 
Q 33.40625 -1.421875 27.6875 -1.421875 
Q 18.265625 -1.421875 13.375 4.4375 
Q 8.5 10.296875 8.5 21.578125 
z
M 31.109375 56 
z
" id="DejaVuSans-117"/>
       <path d="M 18.3125 70.21875 
L 18.3125 54.6875 
L 36.8125 54.6875 
L 36.8125 47.703125 
L 18.3125 47.703125 
L 18.3125 18.015625 
Q 18.3125 11.328125 20.140625 9.421875 
Q 21.96875 7.515625 27.59375 7.515625 
L 36.8125 7.515625 
L 36.8125 0 
L 27.59375 0 
Q 17.1875 0 13.234375 3.875 
Q 9.28125 7.765625 9.28125 18.015625 
L 9.28125 47.703125 
L 2.6875 47.703125 
L 2.6875 54.6875 
L 9.28125 54.6875 
L 9.28125 70.21875 
z
" id="DejaVuSans-116"/>
       <path d="M 30.609375 48.390625 
Q 23.390625 48.390625 19.1875 42.75 
Q 14.984375 37.109375 14.984375 27.296875 
Q 14.984375 17.484375 19.15625 11.84375 
Q 23.34375 6.203125 30.609375 6.203125 
Q 37.796875 6.203125 41.984375 11.859375 
Q 46.1875 17.53125 46.1875 27.296875 
Q 46.1875 37.015625 41.984375 42.703125 
Q 37.796875 48.390625 30.609375 48.390625 
z
M 30.609375 56 
Q 42.328125 56 49.015625 48.375 
Q 55.71875 40.765625 55.71875 27.296875 
Q 55.71875 13.875 49.015625 6.21875 
Q 42.328125 -1.421875 30.609375 -1.421875 
Q 18.84375 -1.421875 12.171875 6.21875 
Q 5.515625 13.875 5.515625 27.296875 
Q 5.515625 40.765625 12.171875 48.375 
Q 18.84375 56 30.609375 56 
z
" id="DejaVuSans-111"/>
       <path d="M 37.109375 75.984375 
L 37.109375 68.5 
L 28.515625 68.5 
Q 23.6875 68.5 21.796875 66.546875 
Q 19.921875 64.59375 19.921875 59.515625 
L 19.921875 54.6875 
L 34.71875 54.6875 
L 34.71875 47.703125 
L 19.921875 47.703125 
L 19.921875 0 
L 10.890625 0 
L 10.890625 47.703125 
L 2.296875 47.703125 
L 2.296875 54.6875 
L 10.890625 54.6875 
L 10.890625 58.5 
Q 10.890625 67.625 15.140625 71.796875 
Q 19.390625 75.984375 28.609375 75.984375 
z
" id="DejaVuSans-102"/>
      </defs>
      <use xlink:href="#DejaVuSans-99"/>
      <use x="54.980469" xlink:href="#DejaVuSans-117"/>
      <use x="118.359375" xlink:href="#DejaVuSans-116"/>
      <use x="157.568359" xlink:href="#DejaVuSans-111"/>
      <use x="218.75" xlink:href="#DejaVuSans-102"/>
      <use x="253.955078" xlink:href="#DejaVuSans-102"/>
     </g>
    </g>
   </g>
   <g id="matplotlib.axis_2">
    <g id="ytick_1">
     <g id="line2d_7">
      <defs>
       <path d="M 0 0 
L -3.5 0 
" id="m57db5a4622" style="stroke:#000000;stroke-width:0.8;"/>
      </defs>
      <g>
       <use style="stroke:#000000;stroke-width:0.8;" x="50.14375" xlink:href="#m57db5a4622" y="275.93685"/>
      </g>
     </g>
     <g id="text_8">
      <!-- 0.45 -->
      <g transform="translate(20.878125 279.736069)scale(0.1 -0.1)">
       <defs>
        <path d="M 10.796875 72.90625 
L 49.515625 72.90625 
L 49.515625 64.59375 
L 19.828125 64.59375 
L 19.828125 46.734375 
Q 21.96875 47.46875 24.109375 47.828125 
Q 26.265625 48.1875 28.421875 48.1875 
Q 40.625 48.1875 47.75 41.5 
Q 54.890625 34.8125 54.890625 23.390625 
Q 54.890625 11.625 47.5625 5.09375 
Q 40.234375 -1.421875 26.90625 -1.421875 
Q 22.3125 -1.421875 17.546875 -0.640625 
Q 12.796875 0.140625 7.71875 1.703125 
L 7.71875 11.625 
Q 12.109375 9.234375 16.796875 8.0625 
Q 21.484375 6.890625 26.703125 6.890625 
Q 35.15625 6.890625 40.078125 11.328125 
Q 45.015625 15.765625 45.015625 23.390625 
Q 45.015625 31 40.078125 35.4375 
Q 35.15625 39.890625 26.703125 39.890625 
Q 22.75 39.890625 18.8125 39.015625 
Q 14.890625 38.140625 10.796875 36.28125 
z
" id="DejaVuSans-53"/>
       </defs>
       <use xlink:href="#DejaVuSans-48"/>
       <use x="63.623047" xlink:href="#DejaVuSans-46"/>
       <use x="95.410156" xlink:href="#DejaVuSans-52"/>
       <use x="159.033203" xlink:href="#DejaVuSans-53"/>
      </g>
     </g>
    </g>
    <g id="ytick_2">
     <g id="line2d_8">
      <g>
       <use style="stroke:#000000;stroke-width:0.8;" x="50.14375" xlink:href="#m57db5a4622" y="242.819646"/>
      </g>
     </g>
     <g id="text_9">
      <!-- 0.50 -->
      <g transform="translate(20.878125 246.618865)scale(0.1 -0.1)">
       <use xlink:href="#DejaVuSans-48"/>
       <use x="63.623047" xlink:href="#DejaVuSans-46"/>
       <use x="95.410156" xlink:href="#DejaVuSans-53"/>
       <use x="159.033203" xlink:href="#DejaVuSans-48"/>
      </g>
     </g>
    </g>
    <g id="ytick_3">
     <g id="line2d_9">
      <g>
       <use style="stroke:#000000;stroke-width:0.8;" x="50.14375" xlink:href="#m57db5a4622" y="209.702442"/>
      </g>
     </g>
     <g id="text_10">
      <!-- 0.55 -->
      <g transform="translate(20.878125 213.501661)scale(0.1 -0.1)">
       <use xlink:href="#DejaVuSans-48"/>
       <use x="63.623047" xlink:href="#DejaVuSans-46"/>
       <use x="95.410156" xlink:href="#DejaVuSans-53"/>
       <use x="159.033203" xlink:href="#DejaVuSans-53"/>
      </g>
     </g>
    </g>
    <g id="ytick_4">
     <g id="line2d_10">
      <g>
       <use style="stroke:#000000;stroke-width:0.8;" x="50.14375" xlink:href="#m57db5a4622" y="176.585238"/>
      </g>
     </g>
     <g id="text_11">
      <!-- 0.60 -->
      <g transform="translate(20.878125 180.384457)scale(0.1 -0.1)">
       <use xlink:href="#DejaVuSans-48"/>
       <use x="63.623047" xlink:href="#DejaVuSans-46"/>
       <use x="95.410156" xlink:href="#DejaVuSans-54"/>
       <use x="159.033203" xlink:href="#DejaVuSans-48"/>
      </g>
     </g>
    </g>
    <g id="ytick_5">
     <g id="line2d_11">
      <g>
       <use style="stroke:#000000;stroke-width:0.8;" x="50.14375" xlink:href="#m57db5a4622" y="143.468034"/>
      </g>
     </g>
     <g id="text_12">
      <!-- 0.65 -->
      <g transform="translate(20.878125 147.267253)scale(0.1 -0.1)">
       <use xlink:href="#DejaVuSans-48"/>
       <use x="63.623047" xlink:href="#DejaVuSans-46"/>
       <use x="95.410156" xlink:href="#DejaVuSans-54"/>
       <use x="159.033203" xlink:href="#DejaVuSans-53"/>
      </g>
     </g>
    </g>
    <g id="ytick_6">
     <g id="line2d_12">
      <g>
       <use style="stroke:#000000;stroke-width:0.8;" x="50.14375" xlink:href="#m57db5a4622" y="110.35083"/>
      </g>
     </g>
     <g id="text_13">
      <!-- 0.70 -->
      <g transform="translate(20.878125 114.150049)scale(0.1 -0.1)">
       <defs>
        <path d="M 8.203125 72.90625 
L 55.078125 72.90625 
L 55.078125 68.703125 
L 28.609375 0 
L 18.3125 0 
L 43.21875 64.59375 
L 8.203125 64.59375 
z
" id="DejaVuSans-55"/>
       </defs>
       <use xlink:href="#DejaVuSans-48"/>
       <use x="63.623047" xlink:href="#DejaVuSans-46"/>
       <use x="95.410156" xlink:href="#DejaVuSans-55"/>
       <use x="159.033203" xlink:href="#DejaVuSans-48"/>
      </g>
     </g>
    </g>
    <g id="ytick_7">
     <g id="line2d_13">
      <g>
       <use style="stroke:#000000;stroke-width:0.8;" x="50.14375" xlink:href="#m57db5a4622" y="77.233627"/>
      </g>
     </g>
     <g id="text_14">
      <!-- 0.75 -->
      <g transform="translate(20.878125 81.032845)scale(0.1 -0.1)">
       <use xlink:href="#DejaVuSans-48"/>
       <use x="63.623047" xlink:href="#DejaVuSans-46"/>
       <use x="95.410156" xlink:href="#DejaVuSans-55"/>
       <use x="159.033203" xlink:href="#DejaVuSans-53"/>
      </g>
     </g>
    </g>
    <g id="ytick_8">
     <g id="line2d_14">
      <g>
       <use style="stroke:#000000;stroke-width:0.8;" x="50.14375" xlink:href="#m57db5a4622" y="44.116423"/>
      </g>
     </g>
     <g id="text_15">
      <!-- 0.80 -->
      <g transform="translate(20.878125 47.915641)scale(0.1 -0.1)">
       <use xlink:href="#DejaVuSans-48"/>
       <use x="63.623047" xlink:href="#DejaVuSans-46"/>
       <use x="95.410156" xlink:href="#DejaVuSans-56"/>
       <use x="159.033203" xlink:href="#DejaVuSans-48"/>
      </g>
     </g>
    </g>
    <g id="ytick_9">
     <g id="line2d_15">
      <g>
       <use style="stroke:#000000;stroke-width:0.8;" x="50.14375" xlink:href="#m57db5a4622" y="10.999219"/>
      </g>
     </g>
     <g id="text_16">
      <!-- 0.85 -->
      <g transform="translate(20.878125 14.798438)scale(0.1 -0.1)">
       <use xlink:href="#DejaVuSans-48"/>
       <use x="63.623047" xlink:href="#DejaVuSans-46"/>
       <use x="95.410156" xlink:href="#DejaVuSans-56"/>
       <use x="159.033203" xlink:href="#DejaVuSans-53"/>
      </g>
     </g>
    </g>
    <g id="text_17">
     <!-- performance -->
     <g transform="translate(14.798438 175.020943)rotate(-90)scale(0.1 -0.1)">
      <defs>
       <path d="M 18.109375 8.203125 
L 18.109375 -20.796875 
L 9.078125 -20.796875 
L 9.078125 54.6875 
L 18.109375 54.6875 
L 18.109375 46.390625 
Q 20.953125 51.265625 25.265625 53.625 
Q 29.59375 56 35.59375 56 
Q 45.5625 56 51.78125 48.09375 
Q 58.015625 40.1875 58.015625 27.296875 
Q 58.015625 14.40625 51.78125 6.484375 
Q 45.5625 -1.421875 35.59375 -1.421875 
Q 29.59375 -1.421875 25.265625 0.953125 
Q 20.953125 3.328125 18.109375 8.203125 
z
M 48.6875 27.296875 
Q 48.6875 37.203125 44.609375 42.84375 
Q 40.53125 48.484375 33.40625 48.484375 
Q 26.265625 48.484375 22.1875 42.84375 
Q 18.109375 37.203125 18.109375 27.296875 
Q 18.109375 17.390625 22.1875 11.75 
Q 26.265625 6.109375 33.40625 6.109375 
Q 40.53125 6.109375 44.609375 11.75 
Q 48.6875 17.390625 48.6875 27.296875 
z
" id="DejaVuSans-112"/>
       <path d="M 56.203125 29.59375 
L 56.203125 25.203125 
L 14.890625 25.203125 
Q 15.484375 15.921875 20.484375 11.0625 
Q 25.484375 6.203125 34.421875 6.203125 
Q 39.59375 6.203125 44.453125 7.46875 
Q 49.3125 8.734375 54.109375 11.28125 
L 54.109375 2.78125 
Q 49.265625 0.734375 44.1875 -0.34375 
Q 39.109375 -1.421875 33.890625 -1.421875 
Q 20.796875 -1.421875 13.15625 6.1875 
Q 5.515625 13.8125 5.515625 26.8125 
Q 5.515625 40.234375 12.765625 48.109375 
Q 20.015625 56 32.328125 56 
Q 43.359375 56 49.78125 48.890625 
Q 56.203125 41.796875 56.203125 29.59375 
z
M 47.21875 32.234375 
Q 47.125 39.59375 43.09375 43.984375 
Q 39.0625 48.390625 32.421875 48.390625 
Q 24.90625 48.390625 20.390625 44.140625 
Q 15.875 39.890625 15.1875 32.171875 
z
" id="DejaVuSans-101"/>
       <path d="M 41.109375 46.296875 
Q 39.59375 47.171875 37.8125 47.578125 
Q 36.03125 48 33.890625 48 
Q 26.265625 48 22.1875 43.046875 
Q 18.109375 38.09375 18.109375 28.8125 
L 18.109375 0 
L 9.078125 0 
L 9.078125 54.6875 
L 18.109375 54.6875 
L 18.109375 46.1875 
Q 20.953125 51.171875 25.484375 53.578125 
Q 30.03125 56 36.53125 56 
Q 37.453125 56 38.578125 55.875 
Q 39.703125 55.765625 41.0625 55.515625 
z
" id="DejaVuSans-114"/>
       <path d="M 52 44.1875 
Q 55.375 50.25 60.0625 53.125 
Q 64.75 56 71.09375 56 
Q 79.640625 56 84.28125 50.015625 
Q 88.921875 44.046875 88.921875 33.015625 
L 88.921875 0 
L 79.890625 0 
L 79.890625 32.71875 
Q 79.890625 40.578125 77.09375 44.375 
Q 74.3125 48.1875 68.609375 48.1875 
Q 61.625 48.1875 57.5625 43.546875 
Q 53.515625 38.921875 53.515625 30.90625 
L 53.515625 0 
L 44.484375 0 
L 44.484375 32.71875 
Q 44.484375 40.625 41.703125 44.40625 
Q 38.921875 48.1875 33.109375 48.1875 
Q 26.21875 48.1875 22.15625 43.53125 
Q 18.109375 38.875 18.109375 30.90625 
L 18.109375 0 
L 9.078125 0 
L 9.078125 54.6875 
L 18.109375 54.6875 
L 18.109375 46.1875 
Q 21.1875 51.21875 25.484375 53.609375 
Q 29.78125 56 35.6875 56 
Q 41.65625 56 45.828125 52.96875 
Q 50 49.953125 52 44.1875 
z
" id="DejaVuSans-109"/>
       <path d="M 34.28125 27.484375 
Q 23.390625 27.484375 19.1875 25 
Q 14.984375 22.515625 14.984375 16.5 
Q 14.984375 11.71875 18.140625 8.90625 
Q 21.296875 6.109375 26.703125 6.109375 
Q 34.1875 6.109375 38.703125 11.40625 
Q 43.21875 16.703125 43.21875 25.484375 
L 43.21875 27.484375 
z
M 52.203125 31.203125 
L 52.203125 0 
L 43.21875 0 
L 43.21875 8.296875 
Q 40.140625 3.328125 35.546875 0.953125 
Q 30.953125 -1.421875 24.3125 -1.421875 
Q 15.921875 -1.421875 10.953125 3.296875 
Q 6 8.015625 6 15.921875 
Q 6 25.140625 12.171875 29.828125 
Q 18.359375 34.515625 30.609375 34.515625 
L 43.21875 34.515625 
L 43.21875 35.40625 
Q 43.21875 41.609375 39.140625 45 
Q 35.0625 48.390625 27.6875 48.390625 
Q 23 48.390625 18.546875 47.265625 
Q 14.109375 46.140625 10.015625 43.890625 
L 10.015625 52.203125 
Q 14.9375 54.109375 19.578125 55.046875 
Q 24.21875 56 28.609375 56 
Q 40.484375 56 46.34375 49.84375 
Q 52.203125 43.703125 52.203125 31.203125 
z
" id="DejaVuSans-97"/>
       <path d="M 54.890625 33.015625 
L 54.890625 0 
L 45.90625 0 
L 45.90625 32.71875 
Q 45.90625 40.484375 42.875 44.328125 
Q 39.84375 48.1875 33.796875 48.1875 
Q 26.515625 48.1875 22.3125 43.546875 
Q 18.109375 38.921875 18.109375 30.90625 
L 18.109375 0 
L 9.078125 0 
L 9.078125 54.6875 
L 18.109375 54.6875 
L 18.109375 46.1875 
Q 21.34375 51.125 25.703125 53.5625 
Q 30.078125 56 35.796875 56 
Q 45.21875 56 50.046875 50.171875 
Q 54.890625 44.34375 54.890625 33.015625 
z
" id="DejaVuSans-110"/>
      </defs>
      <use xlink:href="#DejaVuSans-112"/>
      <use x="63.476562" xlink:href="#DejaVuSans-101"/>
      <use x="125" xlink:href="#DejaVuSans-114"/>
      <use x="166.113281" xlink:href="#DejaVuSans-102"/>
      <use x="201.318359" xlink:href="#DejaVuSans-111"/>
      <use x="262.5" xlink:href="#DejaVuSans-114"/>
      <use x="301.863281" xlink:href="#DejaVuSans-109"/>
      <use x="399.275391" xlink:href="#DejaVuSans-97"/>
      <use x="460.554688" xlink:href="#DejaVuSans-110"/>
      <use x="523.933594" xlink:href="#DejaVuSans-99"/>
      <use x="578.914062" xlink:href="#DejaVuSans-101"/>
     </g>
    </g>
   </g>
   <g id="line2d_16">
    <path clip-path="url(#p4c316cc6f9)" d="M 66.376477 22.038287 
L 73.140114 35.837122 
L 79.90375 35.837122 
L 86.667386 35.837122 
L 93.431023 22.038287 
L 100.194659 35.837122 
L 106.958295 49.635957 
L 113.721932 49.635957 
L 120.485568 49.635957 
L 127.249205 49.635957 
L 134.012841 132.428966 
L 140.776477 146.227801 
L 147.540114 173.825471 
L 154.30375 146.227801 
L 161.067386 187.624306 
L 167.831023 187.624306 
L 174.594659 187.624306 
L 181.358295 187.624306 
L 188.121932 173.825471 
L 194.885568 187.624306 
L 201.649205 229.020811 
L 208.412841 229.020811 
L 215.176477 229.020811 
L 221.940114 229.020811 
L 228.70375 215.221976 
L 235.467386 187.624306 
L 242.231023 187.624306 
L 248.994659 187.624306 
L 255.758295 187.624306 
L 262.521932 187.624306 
L 269.285568 187.624306 
L 276.049205 187.624306 
L 282.812841 187.624306 
L 289.576477 187.624306 
L 296.340114 187.624306 
L 303.10375 187.624306 
L 309.867386 187.624306 
L 316.631023 187.624306 
L 323.394659 187.624306 
L 330.158295 187.624306 
L 336.921932 187.624306 
L 343.685568 187.624306 
L 350.449205 187.624306 
L 357.212841 187.624306 
L 363.976477 187.624306 
L 370.740114 187.624306 
L 377.50375 187.624306 
L 384.267386 187.624306 
L 391.031023 187.624306 
" style="fill:none;stroke:#f26b38;stroke-dasharray:7.4,3.2;stroke-dashoffset:0;stroke-width:2;"/>
   </g>
   <g id="line2d_17">
    <path clip-path="url(#p4c316cc6f9)" d="M 66.376477 24.387025 
L 73.140114 38.479452 
L 79.90375 123.034015 
L 86.667386 165.311296 
L 93.431023 137.126442 
L 100.194659 179.403724 
L 106.958295 179.403724 
L 113.721932 179.403724 
L 120.485568 179.403724 
L 127.249205 123.034015 
L 134.012841 108.941588 
L 140.776477 235.773432 
L 147.540114 235.773432 
L 154.30375 235.773432 
L 161.067386 235.773432 
L 167.831023 263.958287 
L 174.594659 235.773432 
L 181.358295 235.773432 
L 188.121932 235.773432 
L 194.885568 235.773432 
L 201.649205 235.773432 
L 208.412841 235.773432 
L 215.176477 235.773432 
L 221.940114 235.773432 
L 228.70375 235.773432 
L 235.467386 235.773432 
L 242.231023 235.773432 
L 248.994659 235.773432 
L 255.758295 235.773432 
L 262.521932 235.773432 
L 269.285568 235.773432 
L 276.049205 235.773432 
L 282.812841 235.773432 
L 289.576477 235.773432 
L 296.340114 235.773432 
L 303.10375 235.773432 
L 309.867386 235.773432 
L 316.631023 235.773432 
L 323.394659 235.773432 
L 330.158295 235.773432 
L 336.921932 235.773432 
L 343.685568 235.773432 
L 350.449205 235.773432 
L 357.212841 235.773432 
L 363.976477 235.773432 
L 370.740114 235.773432 
L 377.50375 235.773432 
L 384.267386 235.773432 
L 391.031023 235.773432 
" style="fill:none;stroke:#2f9599;stroke-dasharray:2,3.3;stroke-dashoffset:0;stroke-width:2;"/>
   </g>
   <g id="line2d_18">
    <path clip-path="url(#p4c316cc6f9)" d="M 66.376477 33.302642 
L 73.140114 33.302642 
L 79.90375 33.302642 
L 86.667386 33.302642 
L 93.431023 33.302642 
L 100.194659 33.302642 
L 106.958295 33.302642 
L 113.721932 46.819868 
L 120.485568 46.819868 
L 127.249205 33.302642 
L 134.012841 33.302642 
L 140.776477 46.819868 
L 147.540114 46.819868 
L 154.30375 46.819868 
L 161.067386 33.302642 
L 167.831023 141.44045 
L 174.594659 141.44045 
L 181.358295 195.509355 
L 188.121932 195.509355 
L 194.885568 181.992129 
L 201.649205 181.992129 
L 208.412841 181.992129 
L 215.176477 168.474903 
L 221.940114 168.474903 
L 228.70375 168.474903 
L 235.467386 168.474903 
L 242.231023 168.474903 
L 248.994659 114.405998 
L 255.758295 168.474903 
L 262.521932 222.543807 
L 269.285568 209.026581 
L 276.049205 209.026581 
L 282.812841 209.026581 
L 289.576477 181.992129 
L 296.340114 181.992129 
L 303.10375 181.992129 
L 309.867386 181.992129 
L 316.631023 181.992129 
L 323.394659 181.992129 
L 330.158295 181.992129 
L 336.921932 181.992129 
L 343.685568 181.992129 
L 350.449205 181.992129 
L 357.212841 181.992129 
L 363.976477 181.992129 
L 370.740114 181.992129 
L 377.50375 181.992129 
L 384.267386 181.992129 
L 391.031023 181.992129 
" style="fill:none;stroke:#a7226e;stroke-dasharray:12.8,3.2,2,3.2;stroke-dashoffset:0;stroke-width:2;"/>
   </g>
   <g id="patch_3">
    <path d="M 50.14375 276.054287 
L 50.14375 9.942287 
" style="fill:none;stroke:#000000;stroke-linecap:square;stroke-linejoin:miter;stroke-width:0.8;"/>
   </g>
   <g id="patch_4">
    <path d="M 407.26375 276.054287 
L 407.26375 9.942287 
" style="fill:none;stroke:#000000;stroke-linecap:square;stroke-linejoin:miter;stroke-width:0.8;"/>
   </g>
   <g id="patch_5">
    <path d="M 50.14375 276.054287 
L 407.26375 276.054287 
" style="fill:none;stroke:#000000;stroke-linecap:square;stroke-linejoin:miter;stroke-width:0.8;"/>
   </g>
   <g id="patch_6">
    <path d="M 50.14375 9.942287 
L 407.26375 9.942287 
" style="fill:none;stroke:#000000;stroke-linecap:square;stroke-linejoin:miter;stroke-width:0.8;"/>
   </g>
   <g id="legend_1">
    <g id="patch_7">
     <path d="M 321.790059 46.633199 
L 402.40575 46.633199 
Q 403.79375 46.633199 403.79375 45.245199 
L 403.79375 14.800287 
Q 403.79375 13.412287 402.40575 13.412287 
L 321.790059 13.412287 
Q 320.402059 13.412287 320.402059 14.800287 
L 320.402059 45.245199 
Q 320.402059 46.633199 321.790059 46.633199 
z
" style="fill:#ffffff;opacity:0.8;stroke:#cccccc;stroke-linejoin:miter;"/>
    </g>
    <g id="PathCollection_5">
     <defs>
      <path d="M 0 3 
C 0.795609 3 1.55874 2.683901 2.12132 2.12132 
C 2.683901 1.55874 3 0.795609 3 0 
C 3 -0.795609 2.683901 -1.55874 2.12132 -2.12132 
C 1.55874 -2.683901 0.795609 -3 0 -3 
C -0.795609 -3 -1.55874 -2.683901 -2.12132 -2.12132 
C -2.683901 -1.55874 -3 -0.795609 -3 0 
C -3 0.795609 -2.683901 1.55874 -2.12132 2.12132 
C -1.55874 2.683901 -0.795609 3 0 3 
z
" id="m657c0f7237" style="stroke:#f26b38;"/>
     </defs>
     <g>
      <use style="fill:#f26b38;stroke:#f26b38;" x="330.118059" xlink:href="#m657c0f7237" y="19.639852"/>
     </g>
    </g>
    <g id="text_18">
     <!-- mean_err -->
     <g transform="translate(342.610059 21.461602)scale(0.0694 -0.0694)">
      <defs>
       <path d="M 50.984375 -16.609375 
L 50.984375 -23.578125 
L -0.984375 -23.578125 
L -0.984375 -16.609375 
z
" id="DejaVuSans-95"/>
      </defs>
      <use xlink:href="#DejaVuSans-109"/>
      <use x="97.412109" xlink:href="#DejaVuSans-101"/>
      <use x="158.935547" xlink:href="#DejaVuSans-97"/>
      <use x="220.214844" xlink:href="#DejaVuSans-110"/>
      <use x="283.59375" xlink:href="#DejaVuSans-95"/>
      <use x="333.59375" xlink:href="#DejaVuSans-101"/>
      <use x="395.117188" xlink:href="#DejaVuSans-114"/>
      <use x="434.480469" xlink:href="#DejaVuSans-114"/>
     </g>
    </g>
    <g id="PathCollection_6">
     <defs>
      <path d="M -1.5 3 
L 0 1.5 
L 1.5 3 
L 3 1.5 
L 1.5 0 
L 3 -1.5 
L 1.5 -3 
L 0 -1.5 
L -1.5 -3 
L -3 -1.5 
L -1.5 0 
L -3 1.5 
z
" id="mfb3ba217d4" style="stroke:#2f9599;"/>
     </defs>
     <g>
      <use style="fill:#2f9599;stroke:#2f9599;" x="330.118059" xlink:href="#mfb3ba217d4" y="30.01949"/>
     </g>
    </g>
    <g id="text_19">
     <!-- mean_sq_err -->
     <g transform="translate(342.610059 31.84124)scale(0.0694 -0.0694)">
      <defs>
       <path d="M 44.28125 53.078125 
L 44.28125 44.578125 
Q 40.484375 46.53125 36.375 47.5 
Q 32.28125 48.484375 27.875 48.484375 
Q 21.1875 48.484375 17.84375 46.4375 
Q 14.5 44.390625 14.5 40.28125 
Q 14.5 37.15625 16.890625 35.375 
Q 19.28125 33.59375 26.515625 31.984375 
L 29.59375 31.296875 
Q 39.15625 29.25 43.1875 25.515625 
Q 47.21875 21.78125 47.21875 15.09375 
Q 47.21875 7.46875 41.1875 3.015625 
Q 35.15625 -1.421875 24.609375 -1.421875 
Q 20.21875 -1.421875 15.453125 -0.5625 
Q 10.6875 0.296875 5.421875 2 
L 5.421875 11.28125 
Q 10.40625 8.6875 15.234375 7.390625 
Q 20.0625 6.109375 24.8125 6.109375 
Q 31.15625 6.109375 34.5625 8.28125 
Q 37.984375 10.453125 37.984375 14.40625 
Q 37.984375 18.0625 35.515625 20.015625 
Q 33.0625 21.96875 24.703125 23.78125 
L 21.578125 24.515625 
Q 13.234375 26.265625 9.515625 29.90625 
Q 5.8125 33.546875 5.8125 39.890625 
Q 5.8125 47.609375 11.28125 51.796875 
Q 16.75 56 26.8125 56 
Q 31.78125 56 36.171875 55.265625 
Q 40.578125 54.546875 44.28125 53.078125 
z
" id="DejaVuSans-115"/>
       <path d="M 14.796875 27.296875 
Q 14.796875 17.390625 18.875 11.75 
Q 22.953125 6.109375 30.078125 6.109375 
Q 37.203125 6.109375 41.296875 11.75 
Q 45.40625 17.390625 45.40625 27.296875 
Q 45.40625 37.203125 41.296875 42.84375 
Q 37.203125 48.484375 30.078125 48.484375 
Q 22.953125 48.484375 18.875 42.84375 
Q 14.796875 37.203125 14.796875 27.296875 
z
M 45.40625 8.203125 
Q 42.578125 3.328125 38.25 0.953125 
Q 33.9375 -1.421875 27.875 -1.421875 
Q 17.96875 -1.421875 11.734375 6.484375 
Q 5.515625 14.40625 5.515625 27.296875 
Q 5.515625 40.1875 11.734375 48.09375 
Q 17.96875 56 27.875 56 
Q 33.9375 56 38.25 53.625 
Q 42.578125 51.265625 45.40625 46.390625 
L 45.40625 54.6875 
L 54.390625 54.6875 
L 54.390625 -20.796875 
L 45.40625 -20.796875 
z
" id="DejaVuSans-113"/>
      </defs>
      <use xlink:href="#DejaVuSans-109"/>
      <use x="97.412109" xlink:href="#DejaVuSans-101"/>
      <use x="158.935547" xlink:href="#DejaVuSans-97"/>
      <use x="220.214844" xlink:href="#DejaVuSans-110"/>
      <use x="283.59375" xlink:href="#DejaVuSans-95"/>
      <use x="333.59375" xlink:href="#DejaVuSans-115"/>
      <use x="385.693359" xlink:href="#DejaVuSans-113"/>
      <use x="449.169922" xlink:href="#DejaVuSans-95"/>
      <use x="499.169922" xlink:href="#DejaVuSans-101"/>
      <use x="560.693359" xlink:href="#DejaVuSans-114"/>
      <use x="600.056641" xlink:href="#DejaVuSans-114"/>
     </g>
    </g>
    <g id="PathCollection_7">
     <defs>
      <path d="M -2.12132 -2.12132 
L -2.12132 2.12132 
L 2.12132 2.12132 
L 2.12132 -2.12132 
z
" id="m28da307f15" style="stroke:#a7226e;"/>
     </defs>
     <g>
      <use style="fill:#a7226e;stroke:#a7226e;" x="330.118059" xlink:href="#m28da307f15" y="40.399127"/>
     </g>
    </g>
    <g id="text_20">
     <!-- mean_sqroot_err -->
     <g transform="translate(342.610059 42.220877)scale(0.0694 -0.0694)">
      <use xlink:href="#DejaVuSans-109"/>
      <use x="97.412109" xlink:href="#DejaVuSans-101"/>
      <use x="158.935547" xlink:href="#DejaVuSans-97"/>
      <use x="220.214844" xlink:href="#DejaVuSans-110"/>
      <use x="283.59375" xlink:href="#DejaVuSans-95"/>
      <use x="333.59375" xlink:href="#DejaVuSans-115"/>
      <use x="385.693359" xlink:href="#DejaVuSans-113"/>
      <use x="449.169922" xlink:href="#DejaVuSans-114"/>
      <use x="488.033203" xlink:href="#DejaVuSans-111"/>
      <use x="549.214844" xlink:href="#DejaVuSans-111"/>
      <use x="610.396484" xlink:href="#DejaVuSans-116"/>
      <use x="649.605469" xlink:href="#DejaVuSans-95"/>
      <use x="699.605469" xlink:href="#DejaVuSans-101"/>
      <use x="761.128906" xlink:href="#DejaVuSans-114"/>
      <use x="800.492188" xlink:href="#DejaVuSans-114"/>
     </g>
    </g>
   </g>
  </g>
 </g>
 <defs>
  <clipPath id="p4c316cc6f9">
   <rect height="266.112" width="357.12" x="50.14375" y="9.942287"/>
  </clipPath>
 </defs>
</svg>
