<?xml version="1.0" encoding="utf-8" standalone="no"?>
<!DOCTYPE svg PUBLIC "-//W3C//DTD SVG 1.1//EN"
  "http://www.w3.org/Graphics/SVG/1.1/DTD/svg11.dtd">
<!-- Created with matplotlib (https://matplotlib.org/) -->
<svg height="310.86825pt" version="1.1" viewBox="0 0 414.46375 310.86825" width="414.46375pt" xmlns="http://www.w3.org/2000/svg" xmlns:xlink="http://www.w3.org/1999/xlink">
 <metadata>
  <rdf:RDF xmlns:cc="http://creativecommons.org/ns#" xmlns:dc="http://purl.org/dc/elements/1.1/" xmlns:rdf="http://www.w3.org/1999/02/22-rdf-syntax-ns#">
   <cc:Work>
    <dc:type rdf:resource="http://purl.org/dc/dcmitype/StillImage"/>
    <dc:date>2022-05-27T21:47:16.437522</dc:date>
    <dc:format>image/svg+xml</dc:format>
    <dc:creator>
     <cc:Agent>
      <dc:title>Matplotlib v3.3.4, https://matplotlib.org/</dc:title>
     </cc:Agent>
    </dc:creator>
   </cc:Work>
  </rdf:RDF>
 </metadata>
 <defs>
  <style type="text/css">*{stroke-linecap:butt;stroke-linejoin:round;}</style>
 </defs>
 <g id="figure_1">
  <g id="patch_1">
   <path d="M 0 310.86825 
L 414.46375 310.86825 
L 414.46375 0 
L 0 0 
z
" style="fill:#ffffff;"/>
  </g>
  <g id="axes_1">
   <g id="patch_2">
    <path d="M 50.14375 273.312 
L 407.26375 273.312 
L 407.26375 7.2 
L 50.14375 7.2 
z
" style="fill:#ffffff;"/>
   </g>
   <g id="PathCollection_1">
    <path clip-path="url(#p3eaa12657a)" d="M 66.376477 88.136145 
C 67.172087 88.136145 67.935217 87.820046 68.497798 87.257466 
C 69.060378 86.694885 69.376477 85.931754 69.376477 85.136145 
C 69.376477 84.340536 69.060378 83.577406 68.497798 83.014825 
C 67.935217 82.452244 67.172087 82.136145 66.376477 82.136145 
C 65.580868 82.136145 64.817738 82.452244 64.255157 83.014825 
C 63.692576 83.577406 63.376477 84.340536 63.376477 85.136145 
C 63.376477 85.931754 63.692576 86.694885 64.255157 87.257466 
C 64.817738 87.820046 65.580868 88.136145 66.376477 88.136145 
z
" style="fill:#f26b38;stroke:#ffffff;stroke-width:0.48;"/>
    <path clip-path="url(#p3eaa12657a)" d="M 73.140114 74.760216 
C 73.935723 74.760216 74.698853 74.444117 75.261434 73.881536 
C 75.824015 73.318956 76.140114 72.555825 76.140114 71.760216 
C 76.140114 70.964607 75.824015 70.201476 75.261434 69.638896 
C 74.698853 69.076315 73.935723 68.760216 73.140114 68.760216 
C 72.344504 68.760216 71.581374 69.076315 71.018793 69.638896 
C 70.456213 70.201476 70.140114 70.964607 70.140114 71.760216 
C 70.140114 72.555825 70.456213 73.318956 71.018793 73.881536 
C 71.581374 74.444117 72.344504 74.760216 73.140114 74.760216 
z
" style="fill:#f26b38;stroke:#ffffff;stroke-width:0.48;"/>
    <path clip-path="url(#p3eaa12657a)" d="M 79.90375 49.078432 
C 80.699359 49.078432 81.46249 48.762333 82.02507 48.199752 
C 82.587651 47.637172 82.90375 46.874041 82.90375 46.078432 
C 82.90375 45.282823 82.587651 44.519692 82.02507 43.957112 
C 81.46249 43.394531 80.699359 43.078432 79.90375 43.078432 
C 79.108141 43.078432 78.34501 43.394531 77.78243 43.957112 
C 77.219849 44.519692 76.90375 45.282823 76.90375 46.078432 
C 76.90375 46.874041 77.219849 47.637172 77.78243 48.199752 
C 78.34501 48.762333 79.108141 49.078432 79.90375 49.078432 
z
" style="fill:#f26b38;stroke:#ffffff;stroke-width:0.48;"/>
    <path clip-path="url(#p3eaa12657a)" d="M 86.667386 49.078432 
C 87.462996 49.078432 88.226126 48.762333 88.788707 48.199752 
C 89.351287 47.637172 89.667386 46.874041 89.667386 46.078432 
C 89.667386 45.282823 89.351287 44.519692 88.788707 43.957112 
C 88.226126 43.394531 87.462996 43.078432 86.667386 43.078432 
C 85.871777 43.078432 85.108647 43.394531 84.546066 43.957112 
C 83.983485 44.519692 83.667386 45.282823 83.667386 46.078432 
C 83.667386 46.874041 83.983485 47.637172 84.546066 48.199752 
C 85.108647 48.762333 85.871777 49.078432 86.667386 49.078432 
z
" style="fill:#f26b38;stroke:#ffffff;stroke-width:0.48;"/>
    <path clip-path="url(#p3eaa12657a)" d="M 93.431023 49.078432 
C 94.226632 49.078432 94.989762 48.762333 95.552343 48.199752 
C 96.114924 47.637172 96.431023 46.874041 96.431023 46.078432 
C 96.431023 45.282823 96.114924 44.519692 95.552343 43.957112 
C 94.989762 43.394531 94.226632 43.078432 93.431023 43.078432 
C 92.635413 43.078432 91.872283 43.394531 91.309702 43.957112 
C 90.747122 44.519692 90.431023 45.282823 90.431023 46.078432 
C 90.431023 46.874041 90.747122 47.637172 91.309702 48.199752 
C 91.872283 48.762333 92.635413 49.078432 93.431023 49.078432 
z
" style="fill:#f26b38;stroke:#ffffff;stroke-width:0.48;"/>
    <path clip-path="url(#p3eaa12657a)" d="M 100.194659 74.760216 
C 100.990268 74.760216 101.753399 74.444117 102.315979 73.881536 
C 102.87856 73.318956 103.194659 72.555825 103.194659 71.760216 
C 103.194659 70.964607 102.87856 70.201476 102.315979 69.638896 
C 101.753399 69.076315 100.990268 68.760216 100.194659 68.760216 
C 99.39905 68.760216 98.635919 69.076315 98.073339 69.638896 
C 97.510758 70.201476 97.194659 70.964607 97.194659 71.760216 
C 97.194659 72.555825 97.510758 73.318956 98.073339 73.881536 
C 98.635919 74.444117 99.39905 74.760216 100.194659 74.760216 
z
" style="fill:#f26b38;stroke:#ffffff;stroke-width:0.48;"/>
    <path clip-path="url(#p3eaa12657a)" d="M 106.958295 74.760216 
C 107.753905 74.760216 108.517035 74.444117 109.079616 73.881536 
C 109.642197 73.318956 109.958295 72.555825 109.958295 71.760216 
C 109.958295 70.964607 109.642197 70.201476 109.079616 69.638896 
C 108.517035 69.076315 107.753905 68.760216 106.958295 68.760216 
C 106.162686 68.760216 105.399556 69.076315 104.836975 69.638896 
C 104.274394 70.201476 103.958295 70.964607 103.958295 71.760216 
C 103.958295 72.555825 104.274394 73.318956 104.836975 73.881536 
C 105.399556 74.444117 106.162686 74.760216 106.958295 74.760216 
z
" style="fill:#f26b38;stroke:#ffffff;stroke-width:0.48;"/>
    <path clip-path="url(#p3eaa12657a)" d="M 113.721932 74.760216 
C 114.517541 74.760216 115.280671 74.444117 115.843252 73.881536 
C 116.405833 73.318956 116.721932 72.555825 116.721932 71.760216 
C 116.721932 70.964607 116.405833 70.201476 115.843252 69.638896 
C 115.280671 69.076315 114.517541 68.760216 113.721932 68.760216 
C 112.926323 68.760216 112.163192 69.076315 111.600611 69.638896 
C 111.038031 70.201476 110.721932 70.964607 110.721932 71.760216 
C 110.721932 72.555825 111.038031 73.318956 111.600611 73.881536 
C 112.163192 74.444117 112.926323 74.760216 113.721932 74.760216 
z
" style="fill:#f26b38;stroke:#ffffff;stroke-width:0.48;"/>
    <path clip-path="url(#p3eaa12657a)" d="M 120.485568 74.760216 
C 121.281177 74.760216 122.044308 74.444117 122.606889 73.881536 
C 123.169469 73.318956 123.485568 72.555825 123.485568 71.760216 
C 123.485568 70.964607 123.169469 70.201476 122.606889 69.638896 
C 122.044308 69.076315 121.281177 68.760216 120.485568 68.760216 
C 119.689959 68.760216 118.926829 69.076315 118.364248 69.638896 
C 117.801667 70.201476 117.485568 70.964607 117.485568 71.760216 
C 117.485568 72.555825 117.801667 73.318956 118.364248 73.881536 
C 118.926829 74.444117 119.689959 74.760216 120.485568 74.760216 
z
" style="fill:#f26b38;stroke:#ffffff;stroke-width:0.48;"/>
    <path clip-path="url(#p3eaa12657a)" d="M 127.249205 116.034512 
C 128.044814 116.034512 128.807944 115.718413 129.370525 115.155832 
C 129.933106 114.593251 130.249205 113.830121 130.249205 113.034512 
C 130.249205 112.238902 129.933106 111.475772 129.370525 110.913191 
C 128.807944 110.350611 128.044814 110.034512 127.249205 110.034512 
C 126.453595 110.034512 125.690465 110.350611 125.127884 110.913191 
C 124.565303 111.475772 124.249205 112.238902 124.249205 113.034512 
C 124.249205 113.830121 124.565303 114.593251 125.127884 115.155832 
C 125.690465 115.718413 126.453595 116.034512 127.249205 116.034512 
z
" style="fill:#f26b38;stroke:#ffffff;stroke-width:0.48;"/>
    <path clip-path="url(#p3eaa12657a)" d="M 134.012841 130.590181 
C 134.80845 130.590181 135.571581 130.274082 136.134161 129.711502 
C 136.696742 129.148921 137.012841 128.385791 137.012841 127.590181 
C 137.012841 126.794572 136.696742 126.031442 136.134161 125.468861 
C 135.571581 124.90628 134.80845 124.590181 134.012841 124.590181 
C 133.217232 124.590181 132.454101 124.90628 131.891521 125.468861 
C 131.32894 126.031442 131.012841 126.794572 131.012841 127.590181 
C 131.012841 128.385791 131.32894 129.148921 131.891521 129.711502 
C 132.454101 130.274082 133.217232 130.590181 134.012841 130.590181 
z
" style="fill:#f26b38;stroke:#ffffff;stroke-width:0.48;"/>
    <path clip-path="url(#p3eaa12657a)" d="M 140.776477 176.903675 
C 141.572087 176.903675 142.335217 176.587576 142.897798 176.024996 
C 143.460378 175.462415 143.776477 174.699285 143.776477 173.903675 
C 143.776477 173.108066 143.460378 172.344936 142.897798 171.782355 
C 142.335217 171.219774 141.572087 170.903675 140.776477 170.903675 
C 139.980868 170.903675 139.217738 171.219774 138.655157 171.782355 
C 138.092576 172.344936 137.776477 173.108066 137.776477 173.903675 
C 137.776477 174.699285 138.092576 175.462415 138.655157 176.024996 
C 139.217738 176.587576 139.980868 176.903675 140.776477 176.903675 
z
" style="fill:#f26b38;stroke:#ffffff;stroke-width:0.48;"/>
    <path clip-path="url(#p3eaa12657a)" d="M 147.540114 227.627978 
C 148.335723 227.627978 149.098853 227.311879 149.661434 226.749299 
C 150.224015 226.186718 150.540114 225.423588 150.540114 224.627978 
C 150.540114 223.832369 150.224015 223.069239 149.661434 222.506658 
C 149.098853 221.944077 148.335723 221.627978 147.540114 221.627978 
C 146.744504 221.627978 145.981374 221.944077 145.418793 222.506658 
C 144.856213 223.069239 144.540114 223.832369 144.540114 224.627978 
C 144.540114 225.423588 144.856213 226.186718 145.418793 226.749299 
C 145.981374 227.311879 146.744504 227.627978 147.540114 227.627978 
z
" style="fill:#f26b38;stroke:#ffffff;stroke-width:0.48;"/>
    <path clip-path="url(#p3eaa12657a)" d="M 154.30375 227.627978 
C 155.099359 227.627978 155.86249 227.311879 156.42507 226.749299 
C 156.987651 226.186718 157.30375 225.423588 157.30375 224.627978 
C 157.30375 223.832369 156.987651 223.069239 156.42507 222.506658 
C 155.86249 221.944077 155.099359 221.627978 154.30375 221.627978 
C 153.508141 221.627978 152.74501 221.944077 152.18243 222.506658 
C 151.619849 223.069239 151.30375 223.832369 151.30375 224.627978 
C 151.30375 225.423588 151.619849 226.186718 152.18243 226.749299 
C 152.74501 227.311879 153.508141 227.627978 154.30375 227.627978 
z
" style="fill:#f26b38;stroke:#ffffff;stroke-width:0.48;"/>
    <path clip-path="url(#p3eaa12657a)" d="M 161.067386 130.590181 
C 161.862996 130.590181 162.626126 130.274082 163.188707 129.711502 
C 163.751287 129.148921 164.067386 128.385791 164.067386 127.590181 
C 164.067386 126.794572 163.751287 126.031442 163.188707 125.468861 
C 162.626126 124.90628 161.862996 124.590181 161.067386 124.590181 
C 160.271777 124.590181 159.508647 124.90628 158.946066 125.468861 
C 158.383485 126.031442 158.067386 126.794572 158.067386 127.590181 
C 158.067386 128.385791 158.383485 129.148921 158.946066 129.711502 
C 159.508647 130.274082 160.271777 130.590181 161.067386 130.590181 
z
" style="fill:#f26b38;stroke:#ffffff;stroke-width:0.48;"/>
    <path clip-path="url(#p3eaa12657a)" d="M 167.831023 130.590181 
C 168.626632 130.590181 169.389762 130.274082 169.952343 129.711502 
C 170.514924 129.148921 170.831023 128.385791 170.831023 127.590181 
C 170.831023 126.794572 170.514924 126.031442 169.952343 125.468861 
C 169.389762 124.90628 168.626632 124.590181 167.831023 124.590181 
C 167.035413 124.590181 166.272283 124.90628 165.709702 125.468861 
C 165.147122 126.031442 164.831023 126.794572 164.831023 127.590181 
C 164.831023 128.385791 165.147122 129.148921 165.709702 129.711502 
C 166.272283 130.274082 167.035413 130.590181 167.831023 130.590181 
z
" style="fill:#f26b38;stroke:#ffffff;stroke-width:0.48;"/>
    <path clip-path="url(#p3eaa12657a)" d="M 174.594659 130.590181 
C 175.390268 130.590181 176.153399 130.274082 176.715979 129.711502 
C 177.27856 129.148921 177.594659 128.385791 177.594659 127.590181 
C 177.594659 126.794572 177.27856 126.031442 176.715979 125.468861 
C 176.153399 124.90628 175.390268 124.590181 174.594659 124.590181 
C 173.79905 124.590181 173.035919 124.90628 172.473339 125.468861 
C 171.910758 126.031442 171.594659 126.794572 171.594659 127.590181 
C 171.594659 128.385791 171.910758 129.148921 172.473339 129.711502 
C 173.035919 130.274082 173.79905 130.590181 174.594659 130.590181 
z
" style="fill:#f26b38;stroke:#ffffff;stroke-width:0.48;"/>
    <path clip-path="url(#p3eaa12657a)" d="M 181.358295 130.590181 
C 182.153905 130.590181 182.917035 130.274082 183.479616 129.711502 
C 184.042197 129.148921 184.358295 128.385791 184.358295 127.590181 
C 184.358295 126.794572 184.042197 126.031442 183.479616 125.468861 
C 182.917035 124.90628 182.153905 124.590181 181.358295 124.590181 
C 180.562686 124.590181 179.799556 124.90628 179.236975 125.468861 
C 178.674394 126.031442 178.358295 126.794572 178.358295 127.590181 
C 178.358295 128.385791 178.674394 129.148921 179.236975 129.711502 
C 179.799556 130.274082 180.562686 130.590181 181.358295 130.590181 
z
" style="fill:#f26b38;stroke:#ffffff;stroke-width:0.48;"/>
    <path clip-path="url(#p3eaa12657a)" d="M 188.121932 130.590181 
C 188.917541 130.590181 189.680671 130.274082 190.243252 129.711502 
C 190.805833 129.148921 191.121932 128.385791 191.121932 127.590181 
C 191.121932 126.794572 190.805833 126.031442 190.243252 125.468861 
C 189.680671 124.90628 188.917541 124.590181 188.121932 124.590181 
C 187.326323 124.590181 186.563192 124.90628 186.000611 125.468861 
C 185.438031 126.031442 185.121932 126.794572 185.121932 127.590181 
C 185.121932 128.385791 185.438031 129.148921 186.000611 129.711502 
C 186.563192 130.274082 187.326323 130.590181 188.121932 130.590181 
z
" style="fill:#f26b38;stroke:#ffffff;stroke-width:0.48;"/>
    <path clip-path="url(#p3eaa12657a)" d="M 194.885568 130.590181 
C 195.681177 130.590181 196.444308 130.274082 197.006889 129.711502 
C 197.569469 129.148921 197.885568 128.385791 197.885568 127.590181 
C 197.885568 126.794572 197.569469 126.031442 197.006889 125.468861 
C 196.444308 124.90628 195.681177 124.590181 194.885568 124.590181 
C 194.089959 124.590181 193.326829 124.90628 192.764248 125.468861 
C 192.201667 126.031442 191.885568 126.794572 191.885568 127.590181 
C 191.885568 128.385791 192.201667 129.148921 192.764248 129.711502 
C 193.326829 130.274082 194.089959 130.590181 194.885568 130.590181 
z
" style="fill:#f26b38;stroke:#ffffff;stroke-width:0.48;"/>
    <path clip-path="url(#p3eaa12657a)" d="M 201.649205 130.590181 
C 202.444814 130.590181 203.207944 130.274082 203.770525 129.711502 
C 204.333106 129.148921 204.649205 128.385791 204.649205 127.590181 
C 204.649205 126.794572 204.333106 126.031442 203.770525 125.468861 
C 203.207944 124.90628 202.444814 124.590181 201.649205 124.590181 
C 200.853595 124.590181 200.090465 124.90628 199.527884 125.468861 
C 198.965303 126.031442 198.649205 126.794572 198.649205 127.590181 
C 198.649205 128.385791 198.965303 129.148921 199.527884 129.711502 
C 200.090465 130.274082 200.853595 130.590181 201.649205 130.590181 
z
" style="fill:#f26b38;stroke:#ffffff;stroke-width:0.48;"/>
    <path clip-path="url(#p3eaa12657a)" d="M 208.412841 130.590181 
C 209.20845 130.590181 209.971581 130.274082 210.534161 129.711502 
C 211.096742 129.148921 211.412841 128.385791 211.412841 127.590181 
C 211.412841 126.794572 211.096742 126.031442 210.534161 125.468861 
C 209.971581 124.90628 209.20845 124.590181 208.412841 124.590181 
C 207.617232 124.590181 206.854101 124.90628 206.291521 125.468861 
C 205.72894 126.031442 205.412841 126.794572 205.412841 127.590181 
C 205.412841 128.385791 205.72894 129.148921 206.291521 129.711502 
C 206.854101 130.274082 207.617232 130.590181 208.412841 130.590181 
z
" style="fill:#f26b38;stroke:#ffffff;stroke-width:0.48;"/>
    <path clip-path="url(#p3eaa12657a)" d="M 215.176477 130.590181 
C 215.972087 130.590181 216.735217 130.274082 217.297798 129.711502 
C 217.860378 129.148921 218.176477 128.385791 218.176477 127.590181 
C 218.176477 126.794572 217.860378 126.031442 217.297798 125.468861 
C 216.735217 124.90628 215.972087 124.590181 215.176477 124.590181 
C 214.380868 124.590181 213.617738 124.90628 213.055157 125.468861 
C 212.492576 126.031442 212.176477 126.794572 212.176477 127.590181 
C 212.176477 128.385791 212.492576 129.148921 213.055157 129.711502 
C 213.617738 130.274082 214.380868 130.590181 215.176477 130.590181 
z
" style="fill:#f26b38;stroke:#ffffff;stroke-width:0.48;"/>
    <path clip-path="url(#p3eaa12657a)" d="M 221.940114 130.590181 
C 222.735723 130.590181 223.498853 130.274082 224.061434 129.711502 
C 224.624015 129.148921 224.940114 128.385791 224.940114 127.590181 
C 224.940114 126.794572 224.624015 126.031442 224.061434 125.468861 
C 223.498853 124.90628 222.735723 124.590181 221.940114 124.590181 
C 221.144504 124.590181 220.381374 124.90628 219.818793 125.468861 
C 219.256213 126.031442 218.940114 126.794572 218.940114 127.590181 
C 218.940114 128.385791 219.256213 129.148921 219.818793 129.711502 
C 220.381374 130.274082 221.144504 130.590181 221.940114 130.590181 
z
" style="fill:#f26b38;stroke:#ffffff;stroke-width:0.48;"/>
    <path clip-path="url(#p3eaa12657a)" d="M 228.70375 145.573959 
C 229.499359 145.573959 230.26249 145.25786 230.82507 144.695279 
C 231.387651 144.132698 231.70375 143.369568 231.70375 142.573959 
C 231.70375 141.778349 231.387651 141.015219 230.82507 140.452638 
C 230.26249 139.890058 229.499359 139.573959 228.70375 139.573959 
C 227.908141 139.573959 227.14501 139.890058 226.58243 140.452638 
C 226.019849 141.015219 225.70375 141.778349 225.70375 142.573959 
C 225.70375 143.369568 226.019849 144.132698 226.58243 144.695279 
C 227.14501 145.25786 227.908141 145.573959 228.70375 145.573959 
z
" style="fill:#f26b38;stroke:#ffffff;stroke-width:0.48;"/>
    <path clip-path="url(#p3eaa12657a)" d="M 235.467386 161.005013 
C 236.262996 161.005013 237.026126 160.688914 237.588707 160.126334 
C 238.151287 159.563753 238.467386 158.800622 238.467386 158.005013 
C 238.467386 157.209404 238.151287 156.446274 237.588707 155.883693 
C 237.026126 155.321112 236.262996 155.005013 235.467386 155.005013 
C 234.671777 155.005013 233.908647 155.321112 233.346066 155.883693 
C 232.783485 156.446274 232.467386 157.209404 232.467386 158.005013 
C 232.467386 158.800622 232.783485 159.563753 233.346066 160.126334 
C 233.908647 160.688914 234.671777 161.005013 235.467386 161.005013 
z
" style="fill:#f26b38;stroke:#ffffff;stroke-width:0.48;"/>
    <path clip-path="url(#p3eaa12657a)" d="M 242.231023 161.005013 
C 243.026632 161.005013 243.789762 160.688914 244.352343 160.126334 
C 244.914924 159.563753 245.231023 158.800622 245.231023 158.005013 
C 245.231023 157.209404 244.914924 156.446274 244.352343 155.883693 
C 243.789762 155.321112 243.026632 155.005013 242.231023 155.005013 
C 241.435413 155.005013 240.672283 155.321112 240.109702 155.883693 
C 239.547122 156.446274 239.231023 157.209404 239.231023 158.005013 
C 239.231023 158.800622 239.547122 159.563753 240.109702 160.126334 
C 240.672283 160.688914 241.435413 161.005013 242.231023 161.005013 
z
" style="fill:#f26b38;stroke:#ffffff;stroke-width:0.48;"/>
    <path clip-path="url(#p3eaa12657a)" d="M 248.994659 161.005013 
C 249.790268 161.005013 250.553399 160.688914 251.115979 160.126334 
C 251.67856 159.563753 251.994659 158.800622 251.994659 158.005013 
C 251.994659 157.209404 251.67856 156.446274 251.115979 155.883693 
C 250.553399 155.321112 249.790268 155.005013 248.994659 155.005013 
C 248.19905 155.005013 247.435919 155.321112 246.873339 155.883693 
C 246.310758 156.446274 245.994659 157.209404 245.994659 158.005013 
C 245.994659 158.800622 246.310758 159.563753 246.873339 160.126334 
C 247.435919 160.688914 248.19905 161.005013 248.994659 161.005013 
z
" style="fill:#f26b38;stroke:#ffffff;stroke-width:0.48;"/>
    <path clip-path="url(#p3eaa12657a)" d="M 255.758295 161.005013 
C 256.553905 161.005013 257.317035 160.688914 257.879616 160.126334 
C 258.442197 159.563753 258.758295 158.800622 258.758295 158.005013 
C 258.758295 157.209404 258.442197 156.446274 257.879616 155.883693 
C 257.317035 155.321112 256.553905 155.005013 255.758295 155.005013 
C 254.962686 155.005013 254.199556 155.321112 253.636975 155.883693 
C 253.074394 156.446274 252.758295 157.209404 252.758295 158.005013 
C 252.758295 158.800622 253.074394 159.563753 253.636975 160.126334 
C 254.199556 160.688914 254.962686 161.005013 255.758295 161.005013 
z
" style="fill:#f26b38;stroke:#ffffff;stroke-width:0.48;"/>
    <path clip-path="url(#p3eaa12657a)" d="M 262.521932 161.005013 
C 263.317541 161.005013 264.080671 160.688914 264.643252 160.126334 
C 265.205833 159.563753 265.521932 158.800622 265.521932 158.005013 
C 265.521932 157.209404 265.205833 156.446274 264.643252 155.883693 
C 264.080671 155.321112 263.317541 155.005013 262.521932 155.005013 
C 261.726323 155.005013 260.963192 155.321112 260.400611 155.883693 
C 259.838031 156.446274 259.521932 157.209404 259.521932 158.005013 
C 259.521932 158.800622 259.838031 159.563753 260.400611 160.126334 
C 260.963192 160.688914 261.726323 161.005013 262.521932 161.005013 
z
" style="fill:#f26b38;stroke:#ffffff;stroke-width:0.48;"/>
    <path clip-path="url(#p3eaa12657a)" d="M 269.285568 161.005013 
C 270.081177 161.005013 270.844308 160.688914 271.406889 160.126334 
C 271.969469 159.563753 272.285568 158.800622 272.285568 158.005013 
C 272.285568 157.209404 271.969469 156.446274 271.406889 155.883693 
C 270.844308 155.321112 270.081177 155.005013 269.285568 155.005013 
C 268.489959 155.005013 267.726829 155.321112 267.164248 155.883693 
C 266.601667 156.446274 266.285568 157.209404 266.285568 158.005013 
C 266.285568 158.800622 266.601667 159.563753 267.164248 160.126334 
C 267.726829 160.688914 268.489959 161.005013 269.285568 161.005013 
z
" style="fill:#f26b38;stroke:#ffffff;stroke-width:0.48;"/>
    <path clip-path="url(#p3eaa12657a)" d="M 276.049205 161.005013 
C 276.844814 161.005013 277.607944 160.688914 278.170525 160.126334 
C 278.733106 159.563753 279.049205 158.800622 279.049205 158.005013 
C 279.049205 157.209404 278.733106 156.446274 278.170525 155.883693 
C 277.607944 155.321112 276.844814 155.005013 276.049205 155.005013 
C 275.253595 155.005013 274.490465 155.321112 273.927884 155.883693 
C 273.365303 156.446274 273.049205 157.209404 273.049205 158.005013 
C 273.049205 158.800622 273.365303 159.563753 273.927884 160.126334 
C 274.490465 160.688914 275.253595 161.005013 276.049205 161.005013 
z
" style="fill:#f26b38;stroke:#ffffff;stroke-width:0.48;"/>
    <path clip-path="url(#p3eaa12657a)" d="M 282.812841 161.005013 
C 283.60845 161.005013 284.371581 160.688914 284.934161 160.126334 
C 285.496742 159.563753 285.812841 158.800622 285.812841 158.005013 
C 285.812841 157.209404 285.496742 156.446274 284.934161 155.883693 
C 284.371581 155.321112 283.60845 155.005013 282.812841 155.005013 
C 282.017232 155.005013 281.254101 155.321112 280.691521 155.883693 
C 280.12894 156.446274 279.812841 157.209404 279.812841 158.005013 
C 279.812841 158.800622 280.12894 159.563753 280.691521 160.126334 
C 281.254101 160.688914 282.017232 161.005013 282.812841 161.005013 
z
" style="fill:#f26b38;stroke:#ffffff;stroke-width:0.48;"/>
    <path clip-path="url(#p3eaa12657a)" d="M 289.576477 161.005013 
C 290.372087 161.005013 291.135217 160.688914 291.697798 160.126334 
C 292.260378 159.563753 292.576477 158.800622 292.576477 158.005013 
C 292.576477 157.209404 292.260378 156.446274 291.697798 155.883693 
C 291.135217 155.321112 290.372087 155.005013 289.576477 155.005013 
C 288.780868 155.005013 288.017738 155.321112 287.455157 155.883693 
C 286.892576 156.446274 286.576477 157.209404 286.576477 158.005013 
C 286.576477 158.800622 286.892576 159.563753 287.455157 160.126334 
C 288.017738 160.688914 288.780868 161.005013 289.576477 161.005013 
z
" style="fill:#f26b38;stroke:#ffffff;stroke-width:0.48;"/>
    <path clip-path="url(#p3eaa12657a)" d="M 296.340114 161.005013 
C 297.135723 161.005013 297.898853 160.688914 298.461434 160.126334 
C 299.024015 159.563753 299.340114 158.800622 299.340114 158.005013 
C 299.340114 157.209404 299.024015 156.446274 298.461434 155.883693 
C 297.898853 155.321112 297.135723 155.005013 296.340114 155.005013 
C 295.544504 155.005013 294.781374 155.321112 294.218793 155.883693 
C 293.656213 156.446274 293.340114 157.209404 293.340114 158.005013 
C 293.340114 158.800622 293.656213 159.563753 294.218793 160.126334 
C 294.781374 160.688914 295.544504 161.005013 296.340114 161.005013 
z
" style="fill:#f26b38;stroke:#ffffff;stroke-width:0.48;"/>
    <path clip-path="url(#p3eaa12657a)" d="M 303.10375 161.005013 
C 303.899359 161.005013 304.66249 160.688914 305.22507 160.126334 
C 305.787651 159.563753 306.10375 158.800622 306.10375 158.005013 
C 306.10375 157.209404 305.787651 156.446274 305.22507 155.883693 
C 304.66249 155.321112 303.899359 155.005013 303.10375 155.005013 
C 302.308141 155.005013 301.54501 155.321112 300.98243 155.883693 
C 300.419849 156.446274 300.10375 157.209404 300.10375 158.005013 
C 300.10375 158.800622 300.419849 159.563753 300.98243 160.126334 
C 301.54501 160.688914 302.308141 161.005013 303.10375 161.005013 
z
" style="fill:#f26b38;stroke:#ffffff;stroke-width:0.48;"/>
    <path clip-path="url(#p3eaa12657a)" d="M 309.867386 161.005013 
C 310.662996 161.005013 311.426126 160.688914 311.988707 160.126334 
C 312.551287 159.563753 312.867386 158.800622 312.867386 158.005013 
C 312.867386 157.209404 312.551287 156.446274 311.988707 155.883693 
C 311.426126 155.321112 310.662996 155.005013 309.867386 155.005013 
C 309.071777 155.005013 308.308647 155.321112 307.746066 155.883693 
C 307.183485 156.446274 306.867386 157.209404 306.867386 158.005013 
C 306.867386 158.800622 307.183485 159.563753 307.746066 160.126334 
C 308.308647 160.688914 309.071777 161.005013 309.867386 161.005013 
z
" style="fill:#f26b38;stroke:#ffffff;stroke-width:0.48;"/>
    <path clip-path="url(#p3eaa12657a)" d="M 316.631023 161.005013 
C 317.426632 161.005013 318.189762 160.688914 318.752343 160.126334 
C 319.314924 159.563753 319.631023 158.800622 319.631023 158.005013 
C 319.631023 157.209404 319.314924 156.446274 318.752343 155.883693 
C 318.189762 155.321112 317.426632 155.005013 316.631023 155.005013 
C 315.835413 155.005013 315.072283 155.321112 314.509702 155.883693 
C 313.947122 156.446274 313.631023 157.209404 313.631023 158.005013 
C 313.631023 158.800622 313.947122 159.563753 314.509702 160.126334 
C 315.072283 160.688914 315.835413 161.005013 316.631023 161.005013 
z
" style="fill:#f26b38;stroke:#ffffff;stroke-width:0.48;"/>
    <path clip-path="url(#p3eaa12657a)" d="M 323.394659 161.005013 
C 324.190268 161.005013 324.953399 160.688914 325.515979 160.126334 
C 326.07856 159.563753 326.394659 158.800622 326.394659 158.005013 
C 326.394659 157.209404 326.07856 156.446274 325.515979 155.883693 
C 324.953399 155.321112 324.190268 155.005013 323.394659 155.005013 
C 322.59905 155.005013 321.835919 155.321112 321.273339 155.883693 
C 320.710758 156.446274 320.394659 157.209404 320.394659 158.005013 
C 320.394659 158.800622 320.710758 159.563753 321.273339 160.126334 
C 321.835919 160.688914 322.59905 161.005013 323.394659 161.005013 
z
" style="fill:#f26b38;stroke:#ffffff;stroke-width:0.48;"/>
    <path clip-path="url(#p3eaa12657a)" d="M 330.158295 161.005013 
C 330.953905 161.005013 331.717035 160.688914 332.279616 160.126334 
C 332.842197 159.563753 333.158295 158.800622 333.158295 158.005013 
C 333.158295 157.209404 332.842197 156.446274 332.279616 155.883693 
C 331.717035 155.321112 330.953905 155.005013 330.158295 155.005013 
C 329.362686 155.005013 328.599556 155.321112 328.036975 155.883693 
C 327.474394 156.446274 327.158295 157.209404 327.158295 158.005013 
C 327.158295 158.800622 327.474394 159.563753 328.036975 160.126334 
C 328.599556 160.688914 329.362686 161.005013 330.158295 161.005013 
z
" style="fill:#f26b38;stroke:#ffffff;stroke-width:0.48;"/>
    <path clip-path="url(#p3eaa12657a)" d="M 336.921932 161.005013 
C 337.717541 161.005013 338.480671 160.688914 339.043252 160.126334 
C 339.605833 159.563753 339.921932 158.800622 339.921932 158.005013 
C 339.921932 157.209404 339.605833 156.446274 339.043252 155.883693 
C 338.480671 155.321112 337.717541 155.005013 336.921932 155.005013 
C 336.126323 155.005013 335.363192 155.321112 334.800611 155.883693 
C 334.238031 156.446274 333.921932 157.209404 333.921932 158.005013 
C 333.921932 158.800622 334.238031 159.563753 334.800611 160.126334 
C 335.363192 160.688914 336.126323 161.005013 336.921932 161.005013 
z
" style="fill:#f26b38;stroke:#ffffff;stroke-width:0.48;"/>
    <path clip-path="url(#p3eaa12657a)" d="M 343.685568 161.005013 
C 344.481177 161.005013 345.244308 160.688914 345.806889 160.126334 
C 346.369469 159.563753 346.685568 158.800622 346.685568 158.005013 
C 346.685568 157.209404 346.369469 156.446274 345.806889 155.883693 
C 345.244308 155.321112 344.481177 155.005013 343.685568 155.005013 
C 342.889959 155.005013 342.126829 155.321112 341.564248 155.883693 
C 341.001667 156.446274 340.685568 157.209404 340.685568 158.005013 
C 340.685568 158.800622 341.001667 159.563753 341.564248 160.126334 
C 342.126829 160.688914 342.889959 161.005013 343.685568 161.005013 
z
" style="fill:#f26b38;stroke:#ffffff;stroke-width:0.48;"/>
    <path clip-path="url(#p3eaa12657a)" d="M 350.449205 161.005013 
C 351.244814 161.005013 352.007944 160.688914 352.570525 160.126334 
C 353.133106 159.563753 353.449205 158.800622 353.449205 158.005013 
C 353.449205 157.209404 353.133106 156.446274 352.570525 155.883693 
C 352.007944 155.321112 351.244814 155.005013 350.449205 155.005013 
C 349.653595 155.005013 348.890465 155.321112 348.327884 155.883693 
C 347.765303 156.446274 347.449205 157.209404 347.449205 158.005013 
C 347.449205 158.800622 347.765303 159.563753 348.327884 160.126334 
C 348.890465 160.688914 349.653595 161.005013 350.449205 161.005013 
z
" style="fill:#f26b38;stroke:#ffffff;stroke-width:0.48;"/>
    <path clip-path="url(#p3eaa12657a)" d="M 357.212841 161.005013 
C 358.00845 161.005013 358.771581 160.688914 359.334161 160.126334 
C 359.896742 159.563753 360.212841 158.800622 360.212841 158.005013 
C 360.212841 157.209404 359.896742 156.446274 359.334161 155.883693 
C 358.771581 155.321112 358.00845 155.005013 357.212841 155.005013 
C 356.417232 155.005013 355.654101 155.321112 355.091521 155.883693 
C 354.52894 156.446274 354.212841 157.209404 354.212841 158.005013 
C 354.212841 158.800622 354.52894 159.563753 355.091521 160.126334 
C 355.654101 160.688914 356.417232 161.005013 357.212841 161.005013 
z
" style="fill:#f26b38;stroke:#ffffff;stroke-width:0.48;"/>
    <path clip-path="url(#p3eaa12657a)" d="M 363.976477 161.005013 
C 364.772087 161.005013 365.535217 160.688914 366.097798 160.126334 
C 366.660378 159.563753 366.976477 158.800622 366.976477 158.005013 
C 366.976477 157.209404 366.660378 156.446274 366.097798 155.883693 
C 365.535217 155.321112 364.772087 155.005013 363.976477 155.005013 
C 363.180868 155.005013 362.417738 155.321112 361.855157 155.883693 
C 361.292576 156.446274 360.976477 157.209404 360.976477 158.005013 
C 360.976477 158.800622 361.292576 159.563753 361.855157 160.126334 
C 362.417738 160.688914 363.180868 161.005013 363.976477 161.005013 
z
" style="fill:#f26b38;stroke:#ffffff;stroke-width:0.48;"/>
    <path clip-path="url(#p3eaa12657a)" d="M 370.740114 161.005013 
C 371.535723 161.005013 372.298853 160.688914 372.861434 160.126334 
C 373.424015 159.563753 373.740114 158.800622 373.740114 158.005013 
C 373.740114 157.209404 373.424015 156.446274 372.861434 155.883693 
C 372.298853 155.321112 371.535723 155.005013 370.740114 155.005013 
C 369.944504 155.005013 369.181374 155.321112 368.618793 155.883693 
C 368.056213 156.446274 367.740114 157.209404 367.740114 158.005013 
C 367.740114 158.800622 368.056213 159.563753 368.618793 160.126334 
C 369.181374 160.688914 369.944504 161.005013 370.740114 161.005013 
z
" style="fill:#f26b38;stroke:#ffffff;stroke-width:0.48;"/>
    <path clip-path="url(#p3eaa12657a)" d="M 377.50375 161.005013 
C 378.299359 161.005013 379.06249 160.688914 379.62507 160.126334 
C 380.187651 159.563753 380.50375 158.800622 380.50375 158.005013 
C 380.50375 157.209404 380.187651 156.446274 379.62507 155.883693 
C 379.06249 155.321112 378.299359 155.005013 377.50375 155.005013 
C 376.708141 155.005013 375.94501 155.321112 375.38243 155.883693 
C 374.819849 156.446274 374.50375 157.209404 374.50375 158.005013 
C 374.50375 158.800622 374.819849 159.563753 375.38243 160.126334 
C 375.94501 160.688914 376.708141 161.005013 377.50375 161.005013 
z
" style="fill:#f26b38;stroke:#ffffff;stroke-width:0.48;"/>
    <path clip-path="url(#p3eaa12657a)" d="M 384.267386 161.005013 
C 385.062996 161.005013 385.826126 160.688914 386.388707 160.126334 
C 386.951287 159.563753 387.267386 158.800622 387.267386 158.005013 
C 387.267386 157.209404 386.951287 156.446274 386.388707 155.883693 
C 385.826126 155.321112 385.062996 155.005013 384.267386 155.005013 
C 383.471777 155.005013 382.708647 155.321112 382.146066 155.883693 
C 381.583485 156.446274 381.267386 157.209404 381.267386 158.005013 
C 381.267386 158.800622 381.583485 159.563753 382.146066 160.126334 
C 382.708647 160.688914 383.471777 161.005013 384.267386 161.005013 
z
" style="fill:#f26b38;stroke:#ffffff;stroke-width:0.48;"/>
    <path clip-path="url(#p3eaa12657a)" d="M 391.031023 161.005013 
C 391.826632 161.005013 392.589762 160.688914 393.152343 160.126334 
C 393.714924 159.563753 394.031023 158.800622 394.031023 158.005013 
C 394.031023 157.209404 393.714924 156.446274 393.152343 155.883693 
C 392.589762 155.321112 391.826632 155.005013 391.031023 155.005013 
C 390.235413 155.005013 389.472283 155.321112 388.909702 155.883693 
C 388.347122 156.446274 388.031023 157.209404 388.031023 158.005013 
C 388.031023 158.800622 388.347122 159.563753 388.909702 160.126334 
C 389.472283 160.688914 390.235413 161.005013 391.031023 161.005013 
z
" style="fill:#f26b38;stroke:#ffffff;stroke-width:0.48;"/>
    <path clip-path="url(#p3eaa12657a)" d="M 64.876477 210.191499 
L 66.376477 208.691499 
L 67.876477 210.191499 
L 69.376477 208.691499 
L 67.876477 207.191499 
L 69.376477 205.691499 
L 67.876477 204.191499 
L 66.376477 205.691499 
L 64.876477 204.191499 
L 63.376477 205.691499 
L 64.876477 207.191499 
L 63.376477 208.691499 
z
" style="fill:#2f9599;stroke:#ffffff;stroke-width:0.48;"/>
    <path clip-path="url(#p3eaa12657a)" d="M 71.640114 176.903675 
L 73.140114 175.403675 
L 74.640114 176.903675 
L 76.140114 175.403675 
L 74.640114 173.903675 
L 76.140114 172.403675 
L 74.640114 170.903675 
L 73.140114 172.403675 
L 71.640114 170.903675 
L 70.140114 172.403675 
L 71.640114 173.903675 
L 70.140114 175.403675 
z
" style="fill:#2f9599;stroke:#ffffff;stroke-width:0.48;"/>
    <path clip-path="url(#p3eaa12657a)" d="M 78.40375 176.903675 
L 79.90375 175.403675 
L 81.40375 176.903675 
L 82.90375 175.403675 
L 81.40375 173.903675 
L 82.90375 172.403675 
L 81.40375 170.903675 
L 79.90375 172.403675 
L 78.40375 170.903675 
L 76.90375 172.403675 
L 78.40375 173.903675 
L 76.90375 175.403675 
z
" style="fill:#2f9599;stroke:#ffffff;stroke-width:0.48;"/>
    <path clip-path="url(#p3eaa12657a)" d="M 85.167386 176.903675 
L 86.667386 175.403675 
L 88.167386 176.903675 
L 89.667386 175.403675 
L 88.167386 173.903675 
L 89.667386 172.403675 
L 88.167386 170.903675 
L 86.667386 172.403675 
L 85.167386 170.903675 
L 83.667386 172.403675 
L 85.167386 173.903675 
L 83.667386 175.403675 
z
" style="fill:#2f9599;stroke:#ffffff;stroke-width:0.48;"/>
    <path clip-path="url(#p3eaa12657a)" d="M 91.931023 227.627978 
L 93.431023 226.127978 
L 94.931023 227.627978 
L 96.431023 226.127978 
L 94.931023 224.627978 
L 96.431023 223.127978 
L 94.931023 221.627978 
L 93.431023 223.127978 
L 91.931023 221.627978 
L 90.431023 223.127978 
L 91.931023 224.627978 
L 90.431023 226.127978 
z
" style="fill:#2f9599;stroke:#ffffff;stroke-width:0.48;"/>
    <path clip-path="url(#p3eaa12657a)" d="M 98.694659 227.627978 
L 100.194659 226.127978 
L 101.694659 227.627978 
L 103.194659 226.127978 
L 101.694659 224.627978 
L 103.194659 223.127978 
L 101.694659 221.627978 
L 100.194659 223.127978 
L 98.694659 221.627978 
L 97.194659 223.127978 
L 98.694659 224.627978 
L 97.194659 226.127978 
z
" style="fill:#2f9599;stroke:#ffffff;stroke-width:0.48;"/>
    <path clip-path="url(#p3eaa12657a)" d="M 105.458295 227.627978 
L 106.958295 226.127978 
L 108.458295 227.627978 
L 109.958295 226.127978 
L 108.458295 224.627978 
L 109.958295 223.127978 
L 108.458295 221.627978 
L 106.958295 223.127978 
L 105.458295 221.627978 
L 103.958295 223.127978 
L 105.458295 224.627978 
L 103.958295 226.127978 
z
" style="fill:#2f9599;stroke:#ffffff;stroke-width:0.48;"/>
    <path clip-path="url(#p3eaa12657a)" d="M 112.221932 227.627978 
L 113.721932 226.127978 
L 115.221932 227.627978 
L 116.721932 226.127978 
L 115.221932 224.627978 
L 116.721932 223.127978 
L 115.221932 221.627978 
L 113.721932 223.127978 
L 112.221932 221.627978 
L 110.721932 223.127978 
L 112.221932 224.627978 
L 110.721932 226.127978 
z
" style="fill:#2f9599;stroke:#ffffff;stroke-width:0.48;"/>
    <path clip-path="url(#p3eaa12657a)" d="M 118.985568 227.627978 
L 120.485568 226.127978 
L 121.985568 227.627978 
L 123.485568 226.127978 
L 121.985568 224.627978 
L 123.485568 223.127978 
L 121.985568 221.627978 
L 120.485568 223.127978 
L 118.985568 221.627978 
L 117.485568 223.127978 
L 118.985568 224.627978 
L 117.485568 226.127978 
z
" style="fill:#2f9599;stroke:#ffffff;stroke-width:0.48;"/>
    <path clip-path="url(#p3eaa12657a)" d="M 125.749205 227.627978 
L 127.249205 226.127978 
L 128.749205 227.627978 
L 130.249205 226.127978 
L 128.749205 224.627978 
L 130.249205 223.127978 
L 128.749205 221.627978 
L 127.249205 223.127978 
L 125.749205 221.627978 
L 124.249205 223.127978 
L 125.749205 224.627978 
L 124.249205 226.127978 
z
" style="fill:#2f9599;stroke:#ffffff;stroke-width:0.48;"/>
    <path clip-path="url(#p3eaa12657a)" d="M 132.512841 227.627978 
L 134.012841 226.127978 
L 135.512841 227.627978 
L 137.012841 226.127978 
L 135.512841 224.627978 
L 137.012841 223.127978 
L 135.512841 221.627978 
L 134.012841 223.127978 
L 132.512841 221.627978 
L 131.012841 223.127978 
L 132.512841 224.627978 
L 131.012841 226.127978 
z
" style="fill:#2f9599;stroke:#ffffff;stroke-width:0.48;"/>
    <path clip-path="url(#p3eaa12657a)" d="M 139.276477 227.627978 
L 140.776477 226.127978 
L 142.276477 227.627978 
L 143.776477 226.127978 
L 142.276477 224.627978 
L 143.776477 223.127978 
L 142.276477 221.627978 
L 140.776477 223.127978 
L 139.276477 221.627978 
L 137.776477 223.127978 
L 139.276477 224.627978 
L 137.776477 226.127978 
z
" style="fill:#2f9599;stroke:#ffffff;stroke-width:0.48;"/>
    <path clip-path="url(#p3eaa12657a)" d="M 146.040114 227.627978 
L 147.540114 226.127978 
L 149.040114 227.627978 
L 150.540114 226.127978 
L 149.040114 224.627978 
L 150.540114 223.127978 
L 149.040114 221.627978 
L 147.540114 223.127978 
L 146.040114 221.627978 
L 144.540114 223.127978 
L 146.040114 224.627978 
L 144.540114 226.127978 
z
" style="fill:#2f9599;stroke:#ffffff;stroke-width:0.48;"/>
    <path clip-path="url(#p3eaa12657a)" d="M 152.80375 227.627978 
L 154.30375 226.127978 
L 155.80375 227.627978 
L 157.30375 226.127978 
L 155.80375 224.627978 
L 157.30375 223.127978 
L 155.80375 221.627978 
L 154.30375 223.127978 
L 152.80375 221.627978 
L 151.30375 223.127978 
L 152.80375 224.627978 
L 151.30375 226.127978 
z
" style="fill:#2f9599;stroke:#ffffff;stroke-width:0.48;"/>
    <path clip-path="url(#p3eaa12657a)" d="M 159.567386 227.627978 
L 161.067386 226.127978 
L 162.567386 227.627978 
L 164.067386 226.127978 
L 162.567386 224.627978 
L 164.067386 223.127978 
L 162.567386 221.627978 
L 161.067386 223.127978 
L 159.567386 221.627978 
L 158.067386 223.127978 
L 159.567386 224.627978 
L 158.067386 226.127978 
z
" style="fill:#2f9599;stroke:#ffffff;stroke-width:0.48;"/>
    <path clip-path="url(#p3eaa12657a)" d="M 166.331023 227.627978 
L 167.831023 226.127978 
L 169.331023 227.627978 
L 170.831023 226.127978 
L 169.331023 224.627978 
L 170.831023 223.127978 
L 169.331023 221.627978 
L 167.831023 223.127978 
L 166.331023 221.627978 
L 164.831023 223.127978 
L 166.331023 224.627978 
L 164.831023 226.127978 
z
" style="fill:#2f9599;stroke:#ffffff;stroke-width:0.48;"/>
    <path clip-path="url(#p3eaa12657a)" d="M 173.094659 264.216 
L 174.594659 262.716 
L 176.094659 264.216 
L 177.594659 262.716 
L 176.094659 261.216 
L 177.594659 259.716 
L 176.094659 258.216 
L 174.594659 259.716 
L 173.094659 258.216 
L 171.594659 259.716 
L 173.094659 261.216 
L 171.594659 262.716 
z
" style="fill:#2f9599;stroke:#ffffff;stroke-width:0.48;"/>
    <path clip-path="url(#p3eaa12657a)" d="M 179.858295 264.216 
L 181.358295 262.716 
L 182.858295 264.216 
L 184.358295 262.716 
L 182.858295 261.216 
L 184.358295 259.716 
L 182.858295 258.216 
L 181.358295 259.716 
L 179.858295 258.216 
L 178.358295 259.716 
L 179.858295 261.216 
L 178.358295 262.716 
z
" style="fill:#2f9599;stroke:#ffffff;stroke-width:0.48;"/>
    <path clip-path="url(#p3eaa12657a)" d="M 186.621932 264.216 
L 188.121932 262.716 
L 189.621932 264.216 
L 191.121932 262.716 
L 189.621932 261.216 
L 191.121932 259.716 
L 189.621932 258.216 
L 188.121932 259.716 
L 186.621932 258.216 
L 185.121932 259.716 
L 186.621932 261.216 
L 185.121932 262.716 
z
" style="fill:#2f9599;stroke:#ffffff;stroke-width:0.48;"/>
    <path clip-path="url(#p3eaa12657a)" d="M 193.385568 264.216 
L 194.885568 262.716 
L 196.385568 264.216 
L 197.885568 262.716 
L 196.385568 261.216 
L 197.885568 259.716 
L 196.385568 258.216 
L 194.885568 259.716 
L 193.385568 258.216 
L 191.885568 259.716 
L 193.385568 261.216 
L 191.885568 262.716 
z
" style="fill:#2f9599;stroke:#ffffff;stroke-width:0.48;"/>
    <path clip-path="url(#p3eaa12657a)" d="M 200.149205 264.216 
L 201.649205 262.716 
L 203.149205 264.216 
L 204.649205 262.716 
L 203.149205 261.216 
L 204.649205 259.716 
L 203.149205 258.216 
L 201.649205 259.716 
L 200.149205 258.216 
L 198.649205 259.716 
L 200.149205 261.216 
L 198.649205 262.716 
z
" style="fill:#2f9599;stroke:#ffffff;stroke-width:0.48;"/>
    <path clip-path="url(#p3eaa12657a)" d="M 206.912841 264.216 
L 208.412841 262.716 
L 209.912841 264.216 
L 211.412841 262.716 
L 209.912841 261.216 
L 211.412841 259.716 
L 209.912841 258.216 
L 208.412841 259.716 
L 206.912841 258.216 
L 205.412841 259.716 
L 206.912841 261.216 
L 205.412841 262.716 
z
" style="fill:#2f9599;stroke:#ffffff;stroke-width:0.48;"/>
    <path clip-path="url(#p3eaa12657a)" d="M 213.676477 264.216 
L 215.176477 262.716 
L 216.676477 264.216 
L 218.176477 262.716 
L 216.676477 261.216 
L 218.176477 259.716 
L 216.676477 258.216 
L 215.176477 259.716 
L 213.676477 258.216 
L 212.176477 259.716 
L 213.676477 261.216 
L 212.176477 262.716 
z
" style="fill:#2f9599;stroke:#ffffff;stroke-width:0.48;"/>
    <path clip-path="url(#p3eaa12657a)" d="M 220.440114 264.216 
L 221.940114 262.716 
L 223.440114 264.216 
L 224.940114 262.716 
L 223.440114 261.216 
L 224.940114 259.716 
L 223.440114 258.216 
L 221.940114 259.716 
L 220.440114 258.216 
L 218.940114 259.716 
L 220.440114 261.216 
L 218.940114 262.716 
z
" style="fill:#2f9599;stroke:#ffffff;stroke-width:0.48;"/>
    <path clip-path="url(#p3eaa12657a)" d="M 227.20375 264.216 
L 228.70375 262.716 
L 230.20375 264.216 
L 231.70375 262.716 
L 230.20375 261.216 
L 231.70375 259.716 
L 230.20375 258.216 
L 228.70375 259.716 
L 227.20375 258.216 
L 225.70375 259.716 
L 227.20375 261.216 
L 225.70375 262.716 
z
" style="fill:#2f9599;stroke:#ffffff;stroke-width:0.48;"/>
    <path clip-path="url(#p3eaa12657a)" d="M 233.967386 264.216 
L 235.467386 262.716 
L 236.967386 264.216 
L 238.467386 262.716 
L 236.967386 261.216 
L 238.467386 259.716 
L 236.967386 258.216 
L 235.467386 259.716 
L 233.967386 258.216 
L 232.467386 259.716 
L 233.967386 261.216 
L 232.467386 262.716 
z
" style="fill:#2f9599;stroke:#ffffff;stroke-width:0.48;"/>
    <path clip-path="url(#p3eaa12657a)" d="M 240.731023 264.216 
L 242.231023 262.716 
L 243.731023 264.216 
L 245.231023 262.716 
L 243.731023 261.216 
L 245.231023 259.716 
L 243.731023 258.216 
L 242.231023 259.716 
L 240.731023 258.216 
L 239.231023 259.716 
L 240.731023 261.216 
L 239.231023 262.716 
z
" style="fill:#2f9599;stroke:#ffffff;stroke-width:0.48;"/>
    <path clip-path="url(#p3eaa12657a)" d="M 247.494659 264.216 
L 248.994659 262.716 
L 250.494659 264.216 
L 251.994659 262.716 
L 250.494659 261.216 
L 251.994659 259.716 
L 250.494659 258.216 
L 248.994659 259.716 
L 247.494659 258.216 
L 245.994659 259.716 
L 247.494659 261.216 
L 245.994659 262.716 
z
" style="fill:#2f9599;stroke:#ffffff;stroke-width:0.48;"/>
    <path clip-path="url(#p3eaa12657a)" d="M 254.258295 264.216 
L 255.758295 262.716 
L 257.258295 264.216 
L 258.758295 262.716 
L 257.258295 261.216 
L 258.758295 259.716 
L 257.258295 258.216 
L 255.758295 259.716 
L 254.258295 258.216 
L 252.758295 259.716 
L 254.258295 261.216 
L 252.758295 262.716 
z
" style="fill:#2f9599;stroke:#ffffff;stroke-width:0.48;"/>
    <path clip-path="url(#p3eaa12657a)" d="M 261.021932 264.216 
L 262.521932 262.716 
L 264.021932 264.216 
L 265.521932 262.716 
L 264.021932 261.216 
L 265.521932 259.716 
L 264.021932 258.216 
L 262.521932 259.716 
L 261.021932 258.216 
L 259.521932 259.716 
L 261.021932 261.216 
L 259.521932 262.716 
z
" style="fill:#2f9599;stroke:#ffffff;stroke-width:0.48;"/>
    <path clip-path="url(#p3eaa12657a)" d="M 267.785568 264.216 
L 269.285568 262.716 
L 270.785568 264.216 
L 272.285568 262.716 
L 270.785568 261.216 
L 272.285568 259.716 
L 270.785568 258.216 
L 269.285568 259.716 
L 267.785568 258.216 
L 266.285568 259.716 
L 267.785568 261.216 
L 266.285568 262.716 
z
" style="fill:#2f9599;stroke:#ffffff;stroke-width:0.48;"/>
    <path clip-path="url(#p3eaa12657a)" d="M 274.549205 264.216 
L 276.049205 262.716 
L 277.549205 264.216 
L 279.049205 262.716 
L 277.549205 261.216 
L 279.049205 259.716 
L 277.549205 258.216 
L 276.049205 259.716 
L 274.549205 258.216 
L 273.049205 259.716 
L 274.549205 261.216 
L 273.049205 262.716 
z
" style="fill:#2f9599;stroke:#ffffff;stroke-width:0.48;"/>
    <path clip-path="url(#p3eaa12657a)" d="M 281.312841 264.216 
L 282.812841 262.716 
L 284.312841 264.216 
L 285.812841 262.716 
L 284.312841 261.216 
L 285.812841 259.716 
L 284.312841 258.216 
L 282.812841 259.716 
L 281.312841 258.216 
L 279.812841 259.716 
L 281.312841 261.216 
L 279.812841 262.716 
z
" style="fill:#2f9599;stroke:#ffffff;stroke-width:0.48;"/>
    <path clip-path="url(#p3eaa12657a)" d="M 288.076477 264.216 
L 289.576477 262.716 
L 291.076477 264.216 
L 292.576477 262.716 
L 291.076477 261.216 
L 292.576477 259.716 
L 291.076477 258.216 
L 289.576477 259.716 
L 288.076477 258.216 
L 286.576477 259.716 
L 288.076477 261.216 
L 286.576477 262.716 
z
" style="fill:#2f9599;stroke:#ffffff;stroke-width:0.48;"/>
    <path clip-path="url(#p3eaa12657a)" d="M 294.840114 264.216 
L 296.340114 262.716 
L 297.840114 264.216 
L 299.340114 262.716 
L 297.840114 261.216 
L 299.340114 259.716 
L 297.840114 258.216 
L 296.340114 259.716 
L 294.840114 258.216 
L 293.340114 259.716 
L 294.840114 261.216 
L 293.340114 262.716 
z
" style="fill:#2f9599;stroke:#ffffff;stroke-width:0.48;"/>
    <path clip-path="url(#p3eaa12657a)" d="M 301.60375 264.216 
L 303.10375 262.716 
L 304.60375 264.216 
L 306.10375 262.716 
L 304.60375 261.216 
L 306.10375 259.716 
L 304.60375 258.216 
L 303.10375 259.716 
L 301.60375 258.216 
L 300.10375 259.716 
L 301.60375 261.216 
L 300.10375 262.716 
z
" style="fill:#2f9599;stroke:#ffffff;stroke-width:0.48;"/>
    <path clip-path="url(#p3eaa12657a)" d="M 308.367386 264.216 
L 309.867386 262.716 
L 311.367386 264.216 
L 312.867386 262.716 
L 311.367386 261.216 
L 312.867386 259.716 
L 311.367386 258.216 
L 309.867386 259.716 
L 308.367386 258.216 
L 306.867386 259.716 
L 308.367386 261.216 
L 306.867386 262.716 
z
" style="fill:#2f9599;stroke:#ffffff;stroke-width:0.48;"/>
    <path clip-path="url(#p3eaa12657a)" d="M 315.131023 264.216 
L 316.631023 262.716 
L 318.131023 264.216 
L 319.631023 262.716 
L 318.131023 261.216 
L 319.631023 259.716 
L 318.131023 258.216 
L 316.631023 259.716 
L 315.131023 258.216 
L 313.631023 259.716 
L 315.131023 261.216 
L 313.631023 262.716 
z
" style="fill:#2f9599;stroke:#ffffff;stroke-width:0.48;"/>
    <path clip-path="url(#p3eaa12657a)" d="M 321.894659 264.216 
L 323.394659 262.716 
L 324.894659 264.216 
L 326.394659 262.716 
L 324.894659 261.216 
L 326.394659 259.716 
L 324.894659 258.216 
L 323.394659 259.716 
L 321.894659 258.216 
L 320.394659 259.716 
L 321.894659 261.216 
L 320.394659 262.716 
z
" style="fill:#2f9599;stroke:#ffffff;stroke-width:0.48;"/>
    <path clip-path="url(#p3eaa12657a)" d="M 328.658295 264.216 
L 330.158295 262.716 
L 331.658295 264.216 
L 333.158295 262.716 
L 331.658295 261.216 
L 333.158295 259.716 
L 331.658295 258.216 
L 330.158295 259.716 
L 328.658295 258.216 
L 327.158295 259.716 
L 328.658295 261.216 
L 327.158295 262.716 
z
" style="fill:#2f9599;stroke:#ffffff;stroke-width:0.48;"/>
    <path clip-path="url(#p3eaa12657a)" d="M 335.421932 264.216 
L 336.921932 262.716 
L 338.421932 264.216 
L 339.921932 262.716 
L 338.421932 261.216 
L 339.921932 259.716 
L 338.421932 258.216 
L 336.921932 259.716 
L 335.421932 258.216 
L 333.921932 259.716 
L 335.421932 261.216 
L 333.921932 262.716 
z
" style="fill:#2f9599;stroke:#ffffff;stroke-width:0.48;"/>
    <path clip-path="url(#p3eaa12657a)" d="M 342.185568 264.216 
L 343.685568 262.716 
L 345.185568 264.216 
L 346.685568 262.716 
L 345.185568 261.216 
L 346.685568 259.716 
L 345.185568 258.216 
L 343.685568 259.716 
L 342.185568 258.216 
L 340.685568 259.716 
L 342.185568 261.216 
L 340.685568 262.716 
z
" style="fill:#2f9599;stroke:#ffffff;stroke-width:0.48;"/>
    <path clip-path="url(#p3eaa12657a)" d="M 348.949205 264.216 
L 350.449205 262.716 
L 351.949205 264.216 
L 353.449205 262.716 
L 351.949205 261.216 
L 353.449205 259.716 
L 351.949205 258.216 
L 350.449205 259.716 
L 348.949205 258.216 
L 347.449205 259.716 
L 348.949205 261.216 
L 347.449205 262.716 
z
" style="fill:#2f9599;stroke:#ffffff;stroke-width:0.48;"/>
    <path clip-path="url(#p3eaa12657a)" d="M 355.712841 264.216 
L 357.212841 262.716 
L 358.712841 264.216 
L 360.212841 262.716 
L 358.712841 261.216 
L 360.212841 259.716 
L 358.712841 258.216 
L 357.212841 259.716 
L 355.712841 258.216 
L 354.212841 259.716 
L 355.712841 261.216 
L 354.212841 262.716 
z
" style="fill:#2f9599;stroke:#ffffff;stroke-width:0.48;"/>
    <path clip-path="url(#p3eaa12657a)" d="M 362.476477 264.216 
L 363.976477 262.716 
L 365.476477 264.216 
L 366.976477 262.716 
L 365.476477 261.216 
L 366.976477 259.716 
L 365.476477 258.216 
L 363.976477 259.716 
L 362.476477 258.216 
L 360.976477 259.716 
L 362.476477 261.216 
L 360.976477 262.716 
z
" style="fill:#2f9599;stroke:#ffffff;stroke-width:0.48;"/>
    <path clip-path="url(#p3eaa12657a)" d="M 369.240114 264.216 
L 370.740114 262.716 
L 372.240114 264.216 
L 373.740114 262.716 
L 372.240114 261.216 
L 373.740114 259.716 
L 372.240114 258.216 
L 370.740114 259.716 
L 369.240114 258.216 
L 367.740114 259.716 
L 369.240114 261.216 
L 367.740114 262.716 
z
" style="fill:#2f9599;stroke:#ffffff;stroke-width:0.48;"/>
    <path clip-path="url(#p3eaa12657a)" d="M 376.00375 264.216 
L 377.50375 262.716 
L 379.00375 264.216 
L 380.50375 262.716 
L 379.00375 261.216 
L 380.50375 259.716 
L 379.00375 258.216 
L 377.50375 259.716 
L 376.00375 258.216 
L 374.50375 259.716 
L 376.00375 261.216 
L 374.50375 262.716 
z
" style="fill:#2f9599;stroke:#ffffff;stroke-width:0.48;"/>
    <path clip-path="url(#p3eaa12657a)" d="M 382.767386 264.216 
L 384.267386 262.716 
L 385.767386 264.216 
L 387.267386 262.716 
L 385.767386 261.216 
L 387.267386 259.716 
L 385.767386 258.216 
L 384.267386 259.716 
L 382.767386 258.216 
L 381.267386 259.716 
L 382.767386 261.216 
L 381.267386 262.716 
z
" style="fill:#2f9599;stroke:#ffffff;stroke-width:0.48;"/>
    <path clip-path="url(#p3eaa12657a)" d="M 389.531023 264.216 
L 391.031023 262.716 
L 392.531023 264.216 
L 394.031023 262.716 
L 392.531023 261.216 
L 394.031023 259.716 
L 392.531023 258.216 
L 391.031023 259.716 
L 389.531023 258.216 
L 388.031023 259.716 
L 389.531023 261.216 
L 388.031023 262.716 
z
" style="fill:#2f9599;stroke:#ffffff;stroke-width:0.48;"/>
    <path clip-path="url(#p3eaa12657a)" d="M 64.255157 42.122698 
L 64.255157 46.365339 
L 68.497798 46.365339 
L 68.497798 42.122698 
z
" style="fill:#a7226e;stroke:#ffffff;stroke-width:0.48;"/>
    <path clip-path="url(#p3eaa12657a)" d="M 71.018793 42.122698 
L 71.018793 46.365339 
L 75.261434 46.365339 
L 75.261434 42.122698 
z
" style="fill:#a7226e;stroke:#ffffff;stroke-width:0.48;"/>
    <path clip-path="url(#p3eaa12657a)" d="M 77.78243 42.122698 
L 77.78243 46.365339 
L 82.02507 46.365339 
L 82.02507 42.122698 
z
" style="fill:#a7226e;stroke:#ffffff;stroke-width:0.48;"/>
    <path clip-path="url(#p3eaa12657a)" d="M 84.546066 42.122698 
L 84.546066 46.365339 
L 88.788707 46.365339 
L 88.788707 42.122698 
z
" style="fill:#a7226e;stroke:#ffffff;stroke-width:0.48;"/>
    <path clip-path="url(#p3eaa12657a)" d="M 91.309702 42.122698 
L 91.309702 46.365339 
L 95.552343 46.365339 
L 95.552343 42.122698 
z
" style="fill:#a7226e;stroke:#ffffff;stroke-width:0.48;"/>
    <path clip-path="url(#p3eaa12657a)" d="M 98.073339 55.116458 
L 98.073339 59.359099 
L 102.315979 59.359099 
L 102.315979 55.116458 
z
" style="fill:#a7226e;stroke:#ffffff;stroke-width:0.48;"/>
    <path clip-path="url(#p3eaa12657a)" d="M 104.836975 42.122698 
L 104.836975 46.365339 
L 109.079616 46.365339 
L 109.079616 42.122698 
z
" style="fill:#a7226e;stroke:#ffffff;stroke-width:0.48;"/>
    <path clip-path="url(#p3eaa12657a)" d="M 111.600611 42.122698 
L 111.600611 46.365339 
L 115.843252 46.365339 
L 115.843252 42.122698 
z
" style="fill:#a7226e;stroke:#ffffff;stroke-width:0.48;"/>
    <path clip-path="url(#p3eaa12657a)" d="M 118.364248 42.122698 
L 118.364248 46.365339 
L 122.606889 46.365339 
L 122.606889 42.122698 
z
" style="fill:#a7226e;stroke:#ffffff;stroke-width:0.48;"/>
    <path clip-path="url(#p3eaa12657a)" d="M 125.127884 29.480121 
L 125.127884 33.722762 
L 129.370525 33.722762 
L 129.370525 29.480121 
z
" style="fill:#a7226e;stroke:#ffffff;stroke-width:0.48;"/>
    <path clip-path="url(#p3eaa12657a)" d="M 131.891521 42.122698 
L 131.891521 46.365339 
L 136.134161 46.365339 
L 136.134161 42.122698 
z
" style="fill:#a7226e;stroke:#ffffff;stroke-width:0.48;"/>
    <path clip-path="url(#p3eaa12657a)" d="M 138.655157 17.17468 
L 138.655157 21.41732 
L 142.897798 21.41732 
L 142.897798 17.17468 
z
" style="fill:#a7226e;stroke:#ffffff;stroke-width:0.48;"/>
    <path clip-path="url(#p3eaa12657a)" d="M 145.418793 17.17468 
L 145.418793 21.41732 
L 149.661434 21.41732 
L 149.661434 17.17468 
z
" style="fill:#a7226e;stroke:#ffffff;stroke-width:0.48;"/>
    <path clip-path="url(#p3eaa12657a)" d="M 152.18243 17.17468 
L 152.18243 21.41732 
L 156.42507 21.41732 
L 156.42507 17.17468 
z
" style="fill:#a7226e;stroke:#ffffff;stroke-width:0.48;"/>
    <path clip-path="url(#p3eaa12657a)" d="M 158.946066 17.17468 
L 158.946066 21.41732 
L 163.188707 21.41732 
L 163.188707 17.17468 
z
" style="fill:#a7226e;stroke:#ffffff;stroke-width:0.48;"/>
    <path clip-path="url(#p3eaa12657a)" d="M 165.709702 42.122698 
L 165.709702 46.365339 
L 169.952343 46.365339 
L 169.952343 42.122698 
z
" style="fill:#a7226e;stroke:#ffffff;stroke-width:0.48;"/>
    <path clip-path="url(#p3eaa12657a)" d="M 172.473339 29.480121 
L 172.473339 33.722762 
L 176.715979 33.722762 
L 176.715979 29.480121 
z
" style="fill:#a7226e;stroke:#ffffff;stroke-width:0.48;"/>
    <path clip-path="url(#p3eaa12657a)" d="M 179.236975 29.480121 
L 179.236975 33.722762 
L 183.479616 33.722762 
L 183.479616 29.480121 
z
" style="fill:#a7226e;stroke:#ffffff;stroke-width:0.48;"/>
    <path clip-path="url(#p3eaa12657a)" d="M 186.000611 29.480121 
L 186.000611 33.722762 
L 190.243252 33.722762 
L 190.243252 29.480121 
z
" style="fill:#a7226e;stroke:#ffffff;stroke-width:0.48;"/>
    <path clip-path="url(#p3eaa12657a)" d="M 192.764248 29.480121 
L 192.764248 33.722762 
L 197.006889 33.722762 
L 197.006889 29.480121 
z
" style="fill:#a7226e;stroke:#ffffff;stroke-width:0.48;"/>
    <path clip-path="url(#p3eaa12657a)" d="M 199.527884 29.480121 
L 199.527884 33.722762 
L 203.770525 33.722762 
L 203.770525 29.480121 
z
" style="fill:#a7226e;stroke:#ffffff;stroke-width:0.48;"/>
    <path clip-path="url(#p3eaa12657a)" d="M 206.291521 42.122698 
L 206.291521 46.365339 
L 210.534161 46.365339 
L 210.534161 42.122698 
z
" style="fill:#a7226e;stroke:#ffffff;stroke-width:0.48;"/>
    <path clip-path="url(#p3eaa12657a)" d="M 213.055157 42.122698 
L 213.055157 46.365339 
L 217.297798 46.365339 
L 217.297798 42.122698 
z
" style="fill:#a7226e;stroke:#ffffff;stroke-width:0.48;"/>
    <path clip-path="url(#p3eaa12657a)" d="M 219.818793 82.217729 
L 219.818793 86.460369 
L 224.061434 86.460369 
L 224.061434 82.217729 
z
" style="fill:#a7226e;stroke:#ffffff;stroke-width:0.48;"/>
    <path clip-path="url(#p3eaa12657a)" d="M 226.58243 82.217729 
L 226.58243 86.460369 
L 230.82507 86.460369 
L 230.82507 82.217729 
z
" style="fill:#a7226e;stroke:#ffffff;stroke-width:0.48;"/>
    <path clip-path="url(#p3eaa12657a)" d="M 233.346066 82.217729 
L 233.346066 86.460369 
L 237.588707 86.460369 
L 237.588707 82.217729 
z
" style="fill:#a7226e;stroke:#ffffff;stroke-width:0.48;"/>
    <path clip-path="url(#p3eaa12657a)" d="M 240.109702 42.122698 
L 240.109702 46.365339 
L 244.352343 46.365339 
L 244.352343 42.122698 
z
" style="fill:#a7226e;stroke:#ffffff;stroke-width:0.48;"/>
    <path clip-path="url(#p3eaa12657a)" d="M 246.873339 42.122698 
L 246.873339 46.365339 
L 251.115979 46.365339 
L 251.115979 42.122698 
z
" style="fill:#a7226e;stroke:#ffffff;stroke-width:0.48;"/>
    <path clip-path="url(#p3eaa12657a)" d="M 253.636975 42.122698 
L 253.636975 46.365339 
L 257.879616 46.365339 
L 257.879616 42.122698 
z
" style="fill:#a7226e;stroke:#ffffff;stroke-width:0.48;"/>
    <path clip-path="url(#p3eaa12657a)" d="M 260.400611 42.122698 
L 260.400611 46.365339 
L 264.643252 46.365339 
L 264.643252 42.122698 
z
" style="fill:#a7226e;stroke:#ffffff;stroke-width:0.48;"/>
    <path clip-path="url(#p3eaa12657a)" d="M 267.164248 42.122698 
L 267.164248 46.365339 
L 271.406889 46.365339 
L 271.406889 42.122698 
z
" style="fill:#a7226e;stroke:#ffffff;stroke-width:0.48;"/>
    <path clip-path="url(#p3eaa12657a)" d="M 273.927884 42.122698 
L 273.927884 46.365339 
L 278.170525 46.365339 
L 278.170525 42.122698 
z
" style="fill:#a7226e;stroke:#ffffff;stroke-width:0.48;"/>
    <path clip-path="url(#p3eaa12657a)" d="M 280.691521 42.122698 
L 280.691521 46.365339 
L 284.934161 46.365339 
L 284.934161 42.122698 
z
" style="fill:#a7226e;stroke:#ffffff;stroke-width:0.48;"/>
    <path clip-path="url(#p3eaa12657a)" d="M 287.455157 68.476239 
L 287.455157 72.71888 
L 291.697798 72.71888 
L 291.697798 68.476239 
z
" style="fill:#a7226e;stroke:#ffffff;stroke-width:0.48;"/>
    <path clip-path="url(#p3eaa12657a)" d="M 294.218793 68.476239 
L 294.218793 72.71888 
L 298.461434 72.71888 
L 298.461434 68.476239 
z
" style="fill:#a7226e;stroke:#ffffff;stroke-width:0.48;"/>
    <path clip-path="url(#p3eaa12657a)" d="M 300.98243 68.476239 
L 300.98243 72.71888 
L 305.22507 72.71888 
L 305.22507 68.476239 
z
" style="fill:#a7226e;stroke:#ffffff;stroke-width:0.48;"/>
    <path clip-path="url(#p3eaa12657a)" d="M 307.746066 68.476239 
L 307.746066 72.71888 
L 311.988707 72.71888 
L 311.988707 68.476239 
z
" style="fill:#a7226e;stroke:#ffffff;stroke-width:0.48;"/>
    <path clip-path="url(#p3eaa12657a)" d="M 314.509702 68.476239 
L 314.509702 72.71888 
L 318.752343 72.71888 
L 318.752343 68.476239 
z
" style="fill:#a7226e;stroke:#ffffff;stroke-width:0.48;"/>
    <path clip-path="url(#p3eaa12657a)" d="M 321.273339 68.476239 
L 321.273339 72.71888 
L 325.515979 72.71888 
L 325.515979 68.476239 
z
" style="fill:#a7226e;stroke:#ffffff;stroke-width:0.48;"/>
    <path clip-path="url(#p3eaa12657a)" d="M 328.036975 68.476239 
L 328.036975 72.71888 
L 332.279616 72.71888 
L 332.279616 68.476239 
z
" style="fill:#a7226e;stroke:#ffffff;stroke-width:0.48;"/>
    <path clip-path="url(#p3eaa12657a)" d="M 334.800611 68.476239 
L 334.800611 72.71888 
L 339.043252 72.71888 
L 339.043252 68.476239 
z
" style="fill:#a7226e;stroke:#ffffff;stroke-width:0.48;"/>
    <path clip-path="url(#p3eaa12657a)" d="M 341.564248 68.476239 
L 341.564248 72.71888 
L 345.806889 72.71888 
L 345.806889 68.476239 
z
" style="fill:#a7226e;stroke:#ffffff;stroke-width:0.48;"/>
    <path clip-path="url(#p3eaa12657a)" d="M 348.327884 68.476239 
L 348.327884 72.71888 
L 352.570525 72.71888 
L 352.570525 68.476239 
z
" style="fill:#a7226e;stroke:#ffffff;stroke-width:0.48;"/>
    <path clip-path="url(#p3eaa12657a)" d="M 355.091521 68.476239 
L 355.091521 72.71888 
L 359.334161 72.71888 
L 359.334161 68.476239 
z
" style="fill:#a7226e;stroke:#ffffff;stroke-width:0.48;"/>
    <path clip-path="url(#p3eaa12657a)" d="M 361.855157 68.476239 
L 361.855157 72.71888 
L 366.097798 72.71888 
L 366.097798 68.476239 
z
" style="fill:#a7226e;stroke:#ffffff;stroke-width:0.48;"/>
    <path clip-path="url(#p3eaa12657a)" d="M 368.618793 68.476239 
L 368.618793 72.71888 
L 372.861434 72.71888 
L 372.861434 68.476239 
z
" style="fill:#a7226e;stroke:#ffffff;stroke-width:0.48;"/>
    <path clip-path="url(#p3eaa12657a)" d="M 375.38243 68.476239 
L 375.38243 72.71888 
L 379.62507 72.71888 
L 379.62507 68.476239 
z
" style="fill:#a7226e;stroke:#ffffff;stroke-width:0.48;"/>
    <path clip-path="url(#p3eaa12657a)" d="M 382.146066 68.476239 
L 382.146066 72.71888 
L 386.388707 72.71888 
L 386.388707 68.476239 
z
" style="fill:#a7226e;stroke:#ffffff;stroke-width:0.48;"/>
    <path clip-path="url(#p3eaa12657a)" d="M 388.909702 68.476239 
L 388.909702 72.71888 
L 393.152343 72.71888 
L 393.152343 68.476239 
z
" style="fill:#a7226e;stroke:#ffffff;stroke-width:0.48;"/>
   </g>
   <g id="PathCollection_2"/>
   <g id="PathCollection_3"/>
   <g id="PathCollection_4"/>
   <g id="matplotlib.axis_1">
    <g id="xtick_1">
     <g id="line2d_1">
      <defs>
       <path d="M 0 0 
L 0 3.5 
" id="m9b3f849bb8" style="stroke:#000000;stroke-width:0.8;"/>
      </defs>
      <g>
       <use style="stroke:#000000;stroke-width:0.8;" x="59.612841" xlink:href="#m9b3f849bb8" y="273.312"/>
      </g>
     </g>
     <g id="text_1">
      <!-- 0.0 -->
      <g transform="translate(51.661278 287.910437)scale(0.1 -0.1)">
       <defs>
        <path d="M 31.78125 66.40625 
Q 24.171875 66.40625 20.328125 58.90625 
Q 16.5 51.421875 16.5 36.375 
Q 16.5 21.390625 20.328125 13.890625 
Q 24.171875 6.390625 31.78125 6.390625 
Q 39.453125 6.390625 43.28125 13.890625 
Q 47.125 21.390625 47.125 36.375 
Q 47.125 51.421875 43.28125 58.90625 
Q 39.453125 66.40625 31.78125 66.40625 
z
M 31.78125 74.21875 
Q 44.046875 74.21875 50.515625 64.515625 
Q 56.984375 54.828125 56.984375 36.375 
Q 56.984375 17.96875 50.515625 8.265625 
Q 44.046875 -1.421875 31.78125 -1.421875 
Q 19.53125 -1.421875 13.0625 8.265625 
Q 6.59375 17.96875 6.59375 36.375 
Q 6.59375 54.828125 13.0625 64.515625 
Q 19.53125 74.21875 31.78125 74.21875 
z
" id="DejaVuSans-48"/>
        <path d="M 10.6875 12.40625 
L 21 12.40625 
L 21 0 
L 10.6875 0 
z
" id="DejaVuSans-46"/>
       </defs>
       <use xlink:href="#DejaVuSans-48"/>
       <use x="63.623047" xlink:href="#DejaVuSans-46"/>
       <use x="95.410156" xlink:href="#DejaVuSans-48"/>
      </g>
     </g>
    </g>
    <g id="xtick_2">
     <g id="line2d_2">
      <g>
       <use style="stroke:#000000;stroke-width:0.8;" x="127.249205" xlink:href="#m9b3f849bb8" y="273.312"/>
      </g>
     </g>
     <g id="text_2">
      <!-- 0.2 -->
      <g transform="translate(119.297642 287.910437)scale(0.1 -0.1)">
       <defs>
        <path d="M 19.1875 8.296875 
L 53.609375 8.296875 
L 53.609375 0 
L 7.328125 0 
L 7.328125 8.296875 
Q 12.9375 14.109375 22.625 23.890625 
Q 32.328125 33.6875 34.8125 36.53125 
Q 39.546875 41.84375 41.421875 45.53125 
Q 43.3125 49.21875 43.3125 52.78125 
Q 43.3125 58.59375 39.234375 62.25 
Q 35.15625 65.921875 28.609375 65.921875 
Q 23.96875 65.921875 18.8125 64.3125 
Q 13.671875 62.703125 7.8125 59.421875 
L 7.8125 69.390625 
Q 13.765625 71.78125 18.9375 73 
Q 24.125 74.21875 28.421875 74.21875 
Q 39.75 74.21875 46.484375 68.546875 
Q 53.21875 62.890625 53.21875 53.421875 
Q 53.21875 48.921875 51.53125 44.890625 
Q 49.859375 40.875 45.40625 35.40625 
Q 44.1875 33.984375 37.640625 27.21875 
Q 31.109375 20.453125 19.1875 8.296875 
z
" id="DejaVuSans-50"/>
       </defs>
       <use xlink:href="#DejaVuSans-48"/>
       <use x="63.623047" xlink:href="#DejaVuSans-46"/>
       <use x="95.410156" xlink:href="#DejaVuSans-50"/>
      </g>
     </g>
    </g>
    <g id="xtick_3">
     <g id="line2d_3">
      <g>
       <use style="stroke:#000000;stroke-width:0.8;" x="194.885568" xlink:href="#m9b3f849bb8" y="273.312"/>
      </g>
     </g>
     <g id="text_3">
      <!-- 0.4 -->
      <g transform="translate(186.934006 287.910437)scale(0.1 -0.1)">
       <defs>
        <path d="M 37.796875 64.3125 
L 12.890625 25.390625 
L 37.796875 25.390625 
z
M 35.203125 72.90625 
L 47.609375 72.90625 
L 47.609375 25.390625 
L 58.015625 25.390625 
L 58.015625 17.1875 
L 47.609375 17.1875 
L 47.609375 0 
L 37.796875 0 
L 37.796875 17.1875 
L 4.890625 17.1875 
L 4.890625 26.703125 
z
" id="DejaVuSans-52"/>
       </defs>
       <use xlink:href="#DejaVuSans-48"/>
       <use x="63.623047" xlink:href="#DejaVuSans-46"/>
       <use x="95.410156" xlink:href="#DejaVuSans-52"/>
      </g>
     </g>
    </g>
    <g id="xtick_4">
     <g id="line2d_4">
      <g>
       <use style="stroke:#000000;stroke-width:0.8;" x="262.521932" xlink:href="#m9b3f849bb8" y="273.312"/>
      </g>
     </g>
     <g id="text_4">
      <!-- 0.6 -->
      <g transform="translate(254.570369 287.910437)scale(0.1 -0.1)">
       <defs>
        <path d="M 33.015625 40.375 
Q 26.375 40.375 22.484375 35.828125 
Q 18.609375 31.296875 18.609375 23.390625 
Q 18.609375 15.53125 22.484375 10.953125 
Q 26.375 6.390625 33.015625 6.390625 
Q 39.65625 6.390625 43.53125 10.953125 
Q 47.40625 15.53125 47.40625 23.390625 
Q 47.40625 31.296875 43.53125 35.828125 
Q 39.65625 40.375 33.015625 40.375 
z
M 52.59375 71.296875 
L 52.59375 62.3125 
Q 48.875 64.0625 45.09375 64.984375 
Q 41.3125 65.921875 37.59375 65.921875 
Q 27.828125 65.921875 22.671875 59.328125 
Q 17.53125 52.734375 16.796875 39.40625 
Q 19.671875 43.65625 24.015625 45.921875 
Q 28.375 48.1875 33.59375 48.1875 
Q 44.578125 48.1875 50.953125 41.515625 
Q 57.328125 34.859375 57.328125 23.390625 
Q 57.328125 12.15625 50.6875 5.359375 
Q 44.046875 -1.421875 33.015625 -1.421875 
Q 20.359375 -1.421875 13.671875 8.265625 
Q 6.984375 17.96875 6.984375 36.375 
Q 6.984375 53.65625 15.1875 63.9375 
Q 23.390625 74.21875 37.203125 74.21875 
Q 40.921875 74.21875 44.703125 73.484375 
Q 48.484375 72.75 52.59375 71.296875 
z
" id="DejaVuSans-54"/>
       </defs>
       <use xlink:href="#DejaVuSans-48"/>
       <use x="63.623047" xlink:href="#DejaVuSans-46"/>
       <use x="95.410156" xlink:href="#DejaVuSans-54"/>
      </g>
     </g>
    </g>
    <g id="xtick_5">
     <g id="line2d_5">
      <g>
       <use style="stroke:#000000;stroke-width:0.8;" x="330.158295" xlink:href="#m9b3f849bb8" y="273.312"/>
      </g>
     </g>
     <g id="text_5">
      <!-- 0.8 -->
      <g transform="translate(322.206733 287.910437)scale(0.1 -0.1)">
       <defs>
        <path d="M 31.78125 34.625 
Q 24.75 34.625 20.71875 30.859375 
Q 16.703125 27.09375 16.703125 20.515625 
Q 16.703125 13.921875 20.71875 10.15625 
Q 24.75 6.390625 31.78125 6.390625 
Q 38.8125 6.390625 42.859375 10.171875 
Q 46.921875 13.96875 46.921875 20.515625 
Q 46.921875 27.09375 42.890625 30.859375 
Q 38.875 34.625 31.78125 34.625 
z
M 21.921875 38.8125 
Q 15.578125 40.375 12.03125 44.71875 
Q 8.5 49.078125 8.5 55.328125 
Q 8.5 64.0625 14.71875 69.140625 
Q 20.953125 74.21875 31.78125 74.21875 
Q 42.671875 74.21875 48.875 69.140625 
Q 55.078125 64.0625 55.078125 55.328125 
Q 55.078125 49.078125 51.53125 44.71875 
Q 48 40.375 41.703125 38.8125 
Q 48.828125 37.15625 52.796875 32.3125 
Q 56.78125 27.484375 56.78125 20.515625 
Q 56.78125 9.90625 50.3125 4.234375 
Q 43.84375 -1.421875 31.78125 -1.421875 
Q 19.734375 -1.421875 13.25 4.234375 
Q 6.78125 9.90625 6.78125 20.515625 
Q 6.78125 27.484375 10.78125 32.3125 
Q 14.796875 37.15625 21.921875 38.8125 
z
M 18.3125 54.390625 
Q 18.3125 48.734375 21.84375 45.5625 
Q 25.390625 42.390625 31.78125 42.390625 
Q 38.140625 42.390625 41.71875 45.5625 
Q 45.3125 48.734375 45.3125 54.390625 
Q 45.3125 60.0625 41.71875 63.234375 
Q 38.140625 66.40625 31.78125 66.40625 
Q 25.390625 66.40625 21.84375 63.234375 
Q 18.3125 60.0625 18.3125 54.390625 
z
" id="DejaVuSans-56"/>
       </defs>
       <use xlink:href="#DejaVuSans-48"/>
       <use x="63.623047" xlink:href="#DejaVuSans-46"/>
       <use x="95.410156" xlink:href="#DejaVuSans-56"/>
      </g>
     </g>
    </g>
    <g id="xtick_6">
     <g id="line2d_6">
      <g>
       <use style="stroke:#000000;stroke-width:0.8;" x="397.794659" xlink:href="#m9b3f849bb8" y="273.312"/>
      </g>
     </g>
     <g id="text_6">
      <!-- 1.0 -->
      <g transform="translate(389.843097 287.910437)scale(0.1 -0.1)">
       <defs>
        <path d="M 12.40625 8.296875 
L 28.515625 8.296875 
L 28.515625 63.921875 
L 10.984375 60.40625 
L 10.984375 69.390625 
L 28.421875 72.90625 
L 38.28125 72.90625 
L 38.28125 8.296875 
L 54.390625 8.296875 
L 54.390625 0 
L 12.40625 0 
z
" id="DejaVuSans-49"/>
       </defs>
       <use xlink:href="#DejaVuSans-49"/>
       <use x="63.623047" xlink:href="#DejaVuSans-46"/>
       <use x="95.410156" xlink:href="#DejaVuSans-48"/>
      </g>
     </g>
    </g>
    <g id="text_7">
     <!-- cutoff -->
     <g transform="translate(214.245938 301.588562)scale(0.1 -0.1)">
      <defs>
       <path d="M 48.78125 52.59375 
L 48.78125 44.1875 
Q 44.96875 46.296875 41.140625 47.34375 
Q 37.3125 48.390625 33.40625 48.390625 
Q 24.65625 48.390625 19.8125 42.84375 
Q 14.984375 37.3125 14.984375 27.296875 
Q 14.984375 17.28125 19.8125 11.734375 
Q 24.65625 6.203125 33.40625 6.203125 
Q 37.3125 6.203125 41.140625 7.25 
Q 44.96875 8.296875 48.78125 10.40625 
L 48.78125 2.09375 
Q 45.015625 0.34375 40.984375 -0.53125 
Q 36.96875 -1.421875 32.421875 -1.421875 
Q 20.0625 -1.421875 12.78125 6.34375 
Q 5.515625 14.109375 5.515625 27.296875 
Q 5.515625 40.671875 12.859375 48.328125 
Q 20.21875 56 33.015625 56 
Q 37.15625 56 41.109375 55.140625 
Q 45.0625 54.296875 48.78125 52.59375 
z
" id="DejaVuSans-99"/>
       <path d="M 8.5 21.578125 
L 8.5 54.6875 
L 17.484375 54.6875 
L 17.484375 21.921875 
Q 17.484375 14.15625 20.5 10.265625 
Q 23.53125 6.390625 29.59375 6.390625 
Q 36.859375 6.390625 41.078125 11.03125 
Q 45.3125 15.671875 45.3125 23.6875 
L 45.3125 54.6875 
L 54.296875 54.6875 
L 54.296875 0 
L 45.3125 0 
L 45.3125 8.40625 
Q 42.046875 3.421875 37.71875 1 
Q 33.40625 -1.421875 27.6875 -1.421875 
Q 18.265625 -1.421875 13.375 4.4375 
Q 8.5 10.296875 8.5 21.578125 
z
M 31.109375 56 
z
" id="DejaVuSans-117"/>
       <path d="M 18.3125 70.21875 
L 18.3125 54.6875 
L 36.8125 54.6875 
L 36.8125 47.703125 
L 18.3125 47.703125 
L 18.3125 18.015625 
Q 18.3125 11.328125 20.140625 9.421875 
Q 21.96875 7.515625 27.59375 7.515625 
L 36.8125 7.515625 
L 36.8125 0 
L 27.59375 0 
Q 17.1875 0 13.234375 3.875 
Q 9.28125 7.765625 9.28125 18.015625 
L 9.28125 47.703125 
L 2.6875 47.703125 
L 2.6875 54.6875 
L 9.28125 54.6875 
L 9.28125 70.21875 
z
" id="DejaVuSans-116"/>
       <path d="M 30.609375 48.390625 
Q 23.390625 48.390625 19.1875 42.75 
Q 14.984375 37.109375 14.984375 27.296875 
Q 14.984375 17.484375 19.15625 11.84375 
Q 23.34375 6.203125 30.609375 6.203125 
Q 37.796875 6.203125 41.984375 11.859375 
Q 46.1875 17.53125 46.1875 27.296875 
Q 46.1875 37.015625 41.984375 42.703125 
Q 37.796875 48.390625 30.609375 48.390625 
z
M 30.609375 56 
Q 42.328125 56 49.015625 48.375 
Q 55.71875 40.765625 55.71875 27.296875 
Q 55.71875 13.875 49.015625 6.21875 
Q 42.328125 -1.421875 30.609375 -1.421875 
Q 18.84375 -1.421875 12.171875 6.21875 
Q 5.515625 13.875 5.515625 27.296875 
Q 5.515625 40.765625 12.171875 48.375 
Q 18.84375 56 30.609375 56 
z
" id="DejaVuSans-111"/>
       <path d="M 37.109375 75.984375 
L 37.109375 68.5 
L 28.515625 68.5 
Q 23.6875 68.5 21.796875 66.546875 
Q 19.921875 64.59375 19.921875 59.515625 
L 19.921875 54.6875 
L 34.71875 54.6875 
L 34.71875 47.703125 
L 19.921875 47.703125 
L 19.921875 0 
L 10.890625 0 
L 10.890625 47.703125 
L 2.296875 47.703125 
L 2.296875 54.6875 
L 10.890625 54.6875 
L 10.890625 58.5 
Q 10.890625 67.625 15.140625 71.796875 
Q 19.390625 75.984375 28.609375 75.984375 
z
" id="DejaVuSans-102"/>
      </defs>
      <use xlink:href="#DejaVuSans-99"/>
      <use x="54.980469" xlink:href="#DejaVuSans-117"/>
      <use x="118.359375" xlink:href="#DejaVuSans-116"/>
      <use x="157.568359" xlink:href="#DejaVuSans-111"/>
      <use x="218.75" xlink:href="#DejaVuSans-102"/>
      <use x="253.955078" xlink:href="#DejaVuSans-102"/>
     </g>
    </g>
   </g>
   <g id="matplotlib.axis_2">
    <g id="ytick_1">
     <g id="line2d_7">
      <defs>
       <path d="M 0 0 
L -3.5 0 
" id="m8d7fd760b5" style="stroke:#000000;stroke-width:0.8;"/>
      </defs>
      <g>
       <use style="stroke:#000000;stroke-width:0.8;" x="50.14375" xlink:href="#m8d7fd760b5" y="233.555456"/>
      </g>
     </g>
     <g id="text_8">
      <!-- 0.44 -->
      <g transform="translate(20.878125 237.354674)scale(0.1 -0.1)">
       <use xlink:href="#DejaVuSans-48"/>
       <use x="63.623047" xlink:href="#DejaVuSans-46"/>
       <use x="95.410156" xlink:href="#DejaVuSans-52"/>
       <use x="159.033203" xlink:href="#DejaVuSans-52"/>
      </g>
     </g>
    </g>
    <g id="ytick_2">
     <g id="line2d_8">
      <g>
       <use style="stroke:#000000;stroke-width:0.8;" x="50.14375" xlink:href="#m8d7fd760b5" y="193.381808"/>
      </g>
     </g>
     <g id="text_9">
      <!-- 0.46 -->
      <g transform="translate(20.878125 197.181026)scale(0.1 -0.1)">
       <use xlink:href="#DejaVuSans-48"/>
       <use x="63.623047" xlink:href="#DejaVuSans-46"/>
       <use x="95.410156" xlink:href="#DejaVuSans-52"/>
       <use x="159.033203" xlink:href="#DejaVuSans-54"/>
      </g>
     </g>
    </g>
    <g id="ytick_3">
     <g id="line2d_9">
      <g>
       <use style="stroke:#000000;stroke-width:0.8;" x="50.14375" xlink:href="#m8d7fd760b5" y="153.20816"/>
      </g>
     </g>
     <g id="text_10">
      <!-- 0.48 -->
      <g transform="translate(20.878125 157.007378)scale(0.1 -0.1)">
       <use xlink:href="#DejaVuSans-48"/>
       <use x="63.623047" xlink:href="#DejaVuSans-46"/>
       <use x="95.410156" xlink:href="#DejaVuSans-52"/>
       <use x="159.033203" xlink:href="#DejaVuSans-56"/>
      </g>
     </g>
    </g>
    <g id="ytick_4">
     <g id="line2d_10">
      <g>
       <use style="stroke:#000000;stroke-width:0.8;" x="50.14375" xlink:href="#m8d7fd760b5" y="113.034512"/>
      </g>
     </g>
     <g id="text_11">
      <!-- 0.50 -->
      <g transform="translate(20.878125 116.833731)scale(0.1 -0.1)">
       <defs>
        <path d="M 10.796875 72.90625 
L 49.515625 72.90625 
L 49.515625 64.59375 
L 19.828125 64.59375 
L 19.828125 46.734375 
Q 21.96875 47.46875 24.109375 47.828125 
Q 26.265625 48.1875 28.421875 48.1875 
Q 40.625 48.1875 47.75 41.5 
Q 54.890625 34.8125 54.890625 23.390625 
Q 54.890625 11.625 47.5625 5.09375 
Q 40.234375 -1.421875 26.90625 -1.421875 
Q 22.3125 -1.421875 17.546875 -0.640625 
Q 12.796875 0.140625 7.71875 1.703125 
L 7.71875 11.625 
Q 12.109375 9.234375 16.796875 8.0625 
Q 21.484375 6.890625 26.703125 6.890625 
Q 35.15625 6.890625 40.078125 11.328125 
Q 45.015625 15.765625 45.015625 23.390625 
Q 45.015625 31 40.078125 35.4375 
Q 35.15625 39.890625 26.703125 39.890625 
Q 22.75 39.890625 18.8125 39.015625 
Q 14.890625 38.140625 10.796875 36.28125 
z
" id="DejaVuSans-53"/>
       </defs>
       <use xlink:href="#DejaVuSans-48"/>
       <use x="63.623047" xlink:href="#DejaVuSans-46"/>
       <use x="95.410156" xlink:href="#DejaVuSans-53"/>
       <use x="159.033203" xlink:href="#DejaVuSans-48"/>
      </g>
     </g>
    </g>
    <g id="ytick_5">
     <g id="line2d_11">
      <g>
       <use style="stroke:#000000;stroke-width:0.8;" x="50.14375" xlink:href="#m8d7fd760b5" y="72.860864"/>
      </g>
     </g>
     <g id="text_12">
      <!-- 0.52 -->
      <g transform="translate(20.878125 76.660083)scale(0.1 -0.1)">
       <use xlink:href="#DejaVuSans-48"/>
       <use x="63.623047" xlink:href="#DejaVuSans-46"/>
       <use x="95.410156" xlink:href="#DejaVuSans-53"/>
       <use x="159.033203" xlink:href="#DejaVuSans-50"/>
      </g>
     </g>
    </g>
    <g id="ytick_6">
     <g id="line2d_12">
      <g>
       <use style="stroke:#000000;stroke-width:0.8;" x="50.14375" xlink:href="#m8d7fd760b5" y="32.687216"/>
      </g>
     </g>
     <g id="text_13">
      <!-- 0.54 -->
      <g transform="translate(20.878125 36.486435)scale(0.1 -0.1)">
       <use xlink:href="#DejaVuSans-48"/>
       <use x="63.623047" xlink:href="#DejaVuSans-46"/>
       <use x="95.410156" xlink:href="#DejaVuSans-53"/>
       <use x="159.033203" xlink:href="#DejaVuSans-52"/>
      </g>
     </g>
    </g>
    <g id="text_14">
     <!-- performance -->
     <g transform="translate(14.798438 172.278656)rotate(-90)scale(0.1 -0.1)">
      <defs>
       <path d="M 18.109375 8.203125 
L 18.109375 -20.796875 
L 9.078125 -20.796875 
L 9.078125 54.6875 
L 18.109375 54.6875 
L 18.109375 46.390625 
Q 20.953125 51.265625 25.265625 53.625 
Q 29.59375 56 35.59375 56 
Q 45.5625 56 51.78125 48.09375 
Q 58.015625 40.1875 58.015625 27.296875 
Q 58.015625 14.40625 51.78125 6.484375 
Q 45.5625 -1.421875 35.59375 -1.421875 
Q 29.59375 -1.421875 25.265625 0.953125 
Q 20.953125 3.328125 18.109375 8.203125 
z
M 48.6875 27.296875 
Q 48.6875 37.203125 44.609375 42.84375 
Q 40.53125 48.484375 33.40625 48.484375 
Q 26.265625 48.484375 22.1875 42.84375 
Q 18.109375 37.203125 18.109375 27.296875 
Q 18.109375 17.390625 22.1875 11.75 
Q 26.265625 6.109375 33.40625 6.109375 
Q 40.53125 6.109375 44.609375 11.75 
Q 48.6875 17.390625 48.6875 27.296875 
z
" id="DejaVuSans-112"/>
       <path d="M 56.203125 29.59375 
L 56.203125 25.203125 
L 14.890625 25.203125 
Q 15.484375 15.921875 20.484375 11.0625 
Q 25.484375 6.203125 34.421875 6.203125 
Q 39.59375 6.203125 44.453125 7.46875 
Q 49.3125 8.734375 54.109375 11.28125 
L 54.109375 2.78125 
Q 49.265625 0.734375 44.1875 -0.34375 
Q 39.109375 -1.421875 33.890625 -1.421875 
Q 20.796875 -1.421875 13.15625 6.1875 
Q 5.515625 13.8125 5.515625 26.8125 
Q 5.515625 40.234375 12.765625 48.109375 
Q 20.015625 56 32.328125 56 
Q 43.359375 56 49.78125 48.890625 
Q 56.203125 41.796875 56.203125 29.59375 
z
M 47.21875 32.234375 
Q 47.125 39.59375 43.09375 43.984375 
Q 39.0625 48.390625 32.421875 48.390625 
Q 24.90625 48.390625 20.390625 44.140625 
Q 15.875 39.890625 15.1875 32.171875 
z
" id="DejaVuSans-101"/>
       <path d="M 41.109375 46.296875 
Q 39.59375 47.171875 37.8125 47.578125 
Q 36.03125 48 33.890625 48 
Q 26.265625 48 22.1875 43.046875 
Q 18.109375 38.09375 18.109375 28.8125 
L 18.109375 0 
L 9.078125 0 
L 9.078125 54.6875 
L 18.109375 54.6875 
L 18.109375 46.1875 
Q 20.953125 51.171875 25.484375 53.578125 
Q 30.03125 56 36.53125 56 
Q 37.453125 56 38.578125 55.875 
Q 39.703125 55.765625 41.0625 55.515625 
z
" id="DejaVuSans-114"/>
       <path d="M 52 44.1875 
Q 55.375 50.25 60.0625 53.125 
Q 64.75 56 71.09375 56 
Q 79.640625 56 84.28125 50.015625 
Q 88.921875 44.046875 88.921875 33.015625 
L 88.921875 0 
L 79.890625 0 
L 79.890625 32.71875 
Q 79.890625 40.578125 77.09375 44.375 
Q 74.3125 48.1875 68.609375 48.1875 
Q 61.625 48.1875 57.5625 43.546875 
Q 53.515625 38.921875 53.515625 30.90625 
L 53.515625 0 
L 44.484375 0 
L 44.484375 32.71875 
Q 44.484375 40.625 41.703125 44.40625 
Q 38.921875 48.1875 33.109375 48.1875 
Q 26.21875 48.1875 22.15625 43.53125 
Q 18.109375 38.875 18.109375 30.90625 
L 18.109375 0 
L 9.078125 0 
L 9.078125 54.6875 
L 18.109375 54.6875 
L 18.109375 46.1875 
Q 21.1875 51.21875 25.484375 53.609375 
Q 29.78125 56 35.6875 56 
Q 41.65625 56 45.828125 52.96875 
Q 50 49.953125 52 44.1875 
z
" id="DejaVuSans-109"/>
       <path d="M 34.28125 27.484375 
Q 23.390625 27.484375 19.1875 25 
Q 14.984375 22.515625 14.984375 16.5 
Q 14.984375 11.71875 18.140625 8.90625 
Q 21.296875 6.109375 26.703125 6.109375 
Q 34.1875 6.109375 38.703125 11.40625 
Q 43.21875 16.703125 43.21875 25.484375 
L 43.21875 27.484375 
z
M 52.203125 31.203125 
L 52.203125 0 
L 43.21875 0 
L 43.21875 8.296875 
Q 40.140625 3.328125 35.546875 0.953125 
Q 30.953125 -1.421875 24.3125 -1.421875 
Q 15.921875 -1.421875 10.953125 3.296875 
Q 6 8.015625 6 15.921875 
Q 6 25.140625 12.171875 29.828125 
Q 18.359375 34.515625 30.609375 34.515625 
L 43.21875 34.515625 
L 43.21875 35.40625 
Q 43.21875 41.609375 39.140625 45 
Q 35.0625 48.390625 27.6875 48.390625 
Q 23 48.390625 18.546875 47.265625 
Q 14.109375 46.140625 10.015625 43.890625 
L 10.015625 52.203125 
Q 14.9375 54.109375 19.578125 55.046875 
Q 24.21875 56 28.609375 56 
Q 40.484375 56 46.34375 49.84375 
Q 52.203125 43.703125 52.203125 31.203125 
z
" id="DejaVuSans-97"/>
       <path d="M 54.890625 33.015625 
L 54.890625 0 
L 45.90625 0 
L 45.90625 32.71875 
Q 45.90625 40.484375 42.875 44.328125 
Q 39.84375 48.1875 33.796875 48.1875 
Q 26.515625 48.1875 22.3125 43.546875 
Q 18.109375 38.921875 18.109375 30.90625 
L 18.109375 0 
L 9.078125 0 
L 9.078125 54.6875 
L 18.109375 54.6875 
L 18.109375 46.1875 
Q 21.34375 51.125 25.703125 53.5625 
Q 30.078125 56 35.796875 56 
Q 45.21875 56 50.046875 50.171875 
Q 54.890625 44.34375 54.890625 33.015625 
z
" id="DejaVuSans-110"/>
      </defs>
      <use xlink:href="#DejaVuSans-112"/>
      <use x="63.476562" xlink:href="#DejaVuSans-101"/>
      <use x="125" xlink:href="#DejaVuSans-114"/>
      <use x="166.113281" xlink:href="#DejaVuSans-102"/>
      <use x="201.318359" xlink:href="#DejaVuSans-111"/>
      <use x="262.5" xlink:href="#DejaVuSans-114"/>
      <use x="301.863281" xlink:href="#DejaVuSans-109"/>
      <use x="399.275391" xlink:href="#DejaVuSans-97"/>
      <use x="460.554688" xlink:href="#DejaVuSans-110"/>
      <use x="523.933594" xlink:href="#DejaVuSans-99"/>
      <use x="578.914062" xlink:href="#DejaVuSans-101"/>
     </g>
    </g>
   </g>
   <g id="line2d_13">
    <path clip-path="url(#p3eaa12657a)" d="M 66.376477 85.136145 
L 73.140114 71.760216 
L 79.90375 46.078432 
L 86.667386 46.078432 
L 93.431023 46.078432 
L 100.194659 71.760216 
L 106.958295 71.760216 
L 113.721932 71.760216 
L 120.485568 71.760216 
L 127.249205 113.034512 
L 134.012841 127.590181 
L 140.776477 173.903675 
L 147.540114 224.627978 
L 154.30375 224.627978 
L 161.067386 127.590181 
L 167.831023 127.590181 
L 174.594659 127.590181 
L 181.358295 127.590181 
L 188.121932 127.590181 
L 194.885568 127.590181 
L 201.649205 127.590181 
L 208.412841 127.590181 
L 215.176477 127.590181 
L 221.940114 127.590181 
L 228.70375 142.573959 
L 235.467386 158.005013 
L 242.231023 158.005013 
L 248.994659 158.005013 
L 255.758295 158.005013 
L 262.521932 158.005013 
L 269.285568 158.005013 
L 276.049205 158.005013 
L 282.812841 158.005013 
L 289.576477 158.005013 
L 296.340114 158.005013 
L 303.10375 158.005013 
L 309.867386 158.005013 
L 316.631023 158.005013 
L 323.394659 158.005013 
L 330.158295 158.005013 
L 336.921932 158.005013 
L 343.685568 158.005013 
L 350.449205 158.005013 
L 357.212841 158.005013 
L 363.976477 158.005013 
L 370.740114 158.005013 
L 377.50375 158.005013 
L 384.267386 158.005013 
L 391.031023 158.005013 
" style="fill:none;stroke:#f26b38;stroke-dasharray:7.4,3.2;stroke-dashoffset:0;stroke-width:2;"/>
   </g>
   <g id="line2d_14">
    <path clip-path="url(#p3eaa12657a)" d="M 66.376477 207.191499 
L 73.140114 173.903675 
L 79.90375 173.903675 
L 86.667386 173.903675 
L 93.431023 224.627978 
L 100.194659 224.627978 
L 106.958295 224.627978 
L 113.721932 224.627978 
L 120.485568 224.627978 
L 127.249205 224.627978 
L 134.012841 224.627978 
L 140.776477 224.627978 
L 147.540114 224.627978 
L 154.30375 224.627978 
L 161.067386 224.627978 
L 167.831023 224.627978 
L 174.594659 261.216 
L 181.358295 261.216 
L 188.121932 261.216 
L 194.885568 261.216 
L 201.649205 261.216 
L 208.412841 261.216 
L 215.176477 261.216 
L 221.940114 261.216 
L 228.70375 261.216 
L 235.467386 261.216 
L 242.231023 261.216 
L 248.994659 261.216 
L 255.758295 261.216 
L 262.521932 261.216 
L 269.285568 261.216 
L 276.049205 261.216 
L 282.812841 261.216 
L 289.576477 261.216 
L 296.340114 261.216 
L 303.10375 261.216 
L 309.867386 261.216 
L 316.631023 261.216 
L 323.394659 261.216 
L 330.158295 261.216 
L 336.921932 261.216 
L 343.685568 261.216 
L 350.449205 261.216 
L 357.212841 261.216 
L 363.976477 261.216 
L 370.740114 261.216 
L 377.50375 261.216 
L 384.267386 261.216 
L 391.031023 261.216 
" style="fill:none;stroke:#2f9599;stroke-dasharray:2,3.3;stroke-dashoffset:0;stroke-width:2;"/>
   </g>
   <g id="line2d_15">
    <path clip-path="url(#p3eaa12657a)" d="M 66.376477 44.244019 
L 73.140114 44.244019 
L 79.90375 44.244019 
L 86.667386 44.244019 
L 93.431023 44.244019 
L 100.194659 57.237779 
L 106.958295 44.244019 
L 113.721932 44.244019 
L 120.485568 44.244019 
L 127.249205 31.601442 
L 134.012841 44.244019 
L 140.776477 19.296 
L 147.540114 19.296 
L 154.30375 19.296 
L 161.067386 19.296 
L 167.831023 44.244019 
L 174.594659 31.601442 
L 181.358295 31.601442 
L 188.121932 31.601442 
L 194.885568 31.601442 
L 201.649205 31.601442 
L 208.412841 44.244019 
L 215.176477 44.244019 
L 221.940114 84.339049 
L 228.70375 84.339049 
L 235.467386 84.339049 
L 242.231023 44.244019 
L 248.994659 44.244019 
L 255.758295 44.244019 
L 262.521932 44.244019 
L 269.285568 44.244019 
L 276.049205 44.244019 
L 282.812841 44.244019 
L 289.576477 70.59756 
L 296.340114 70.59756 
L 303.10375 70.59756 
L 309.867386 70.59756 
L 316.631023 70.59756 
L 323.394659 70.59756 
L 330.158295 70.59756 
L 336.921932 70.59756 
L 343.685568 70.59756 
L 350.449205 70.59756 
L 357.212841 70.59756 
L 363.976477 70.59756 
L 370.740114 70.59756 
L 377.50375 70.59756 
L 384.267386 70.59756 
L 391.031023 70.59756 
" style="fill:none;stroke:#a7226e;stroke-dasharray:12.8,3.2,2,3.2;stroke-dashoffset:0;stroke-width:2;"/>
   </g>
   <g id="patch_3">
    <path d="M 50.14375 273.312 
L 50.14375 7.2 
" style="fill:none;stroke:#000000;stroke-linecap:square;stroke-linejoin:miter;stroke-width:0.8;"/>
   </g>
   <g id="patch_4">
    <path d="M 407.26375 273.312 
L 407.26375 7.2 
" style="fill:none;stroke:#000000;stroke-linecap:square;stroke-linejoin:miter;stroke-width:0.8;"/>
   </g>
   <g id="patch_5">
    <path d="M 50.14375 273.312 
L 407.26375 273.312 
" style="fill:none;stroke:#000000;stroke-linecap:square;stroke-linejoin:miter;stroke-width:0.8;"/>
   </g>
   <g id="patch_6">
    <path d="M 50.14375 7.2 
L 407.26375 7.2 
" style="fill:none;stroke:#000000;stroke-linecap:square;stroke-linejoin:miter;stroke-width:0.8;"/>
   </g>
   <g id="legend_1">
    <g id="patch_7">
     <path d="M 321.790059 43.890912 
L 402.40575 43.890912 
Q 403.79375 43.890912 403.79375 42.502912 
L 403.79375 12.058 
Q 403.79375 10.67 402.40575 10.67 
L 321.790059 10.67 
Q 320.402059 10.67 320.402059 12.058 
L 320.402059 42.502912 
Q 320.402059 43.890912 321.790059 43.890912 
z
" style="fill:#ffffff;opacity:0.8;stroke:#cccccc;stroke-linejoin:miter;"/>
    </g>
    <g id="PathCollection_5">
     <defs>
      <path d="M 0 3 
C 0.795609 3 1.55874 2.683901 2.12132 2.12132 
C 2.683901 1.55874 3 0.795609 3 0 
C 3 -0.795609 2.683901 -1.55874 2.12132 -2.12132 
C 1.55874 -2.683901 0.795609 -3 0 -3 
C -0.795609 -3 -1.55874 -2.683901 -2.12132 -2.12132 
C -2.683901 -1.55874 -3 -0.795609 -3 0 
C -3 0.795609 -2.683901 1.55874 -2.12132 2.12132 
C -1.55874 2.683901 -0.795609 3 0 3 
z
" id="mbc9bfe49a6" style="stroke:#f26b38;"/>
     </defs>
     <g>
      <use style="fill:#f26b38;stroke:#f26b38;" x="330.118059" xlink:href="#mbc9bfe49a6" y="16.897566"/>
     </g>
    </g>
    <g id="text_15">
     <!-- mean_err -->
     <g transform="translate(342.610059 18.719316)scale(0.0694 -0.0694)">
      <defs>
       <path d="M 50.984375 -16.609375 
L 50.984375 -23.578125 
L -0.984375 -23.578125 
L -0.984375 -16.609375 
z
" id="DejaVuSans-95"/>
      </defs>
      <use xlink:href="#DejaVuSans-109"/>
      <use x="97.412109" xlink:href="#DejaVuSans-101"/>
      <use x="158.935547" xlink:href="#DejaVuSans-97"/>
      <use x="220.214844" xlink:href="#DejaVuSans-110"/>
      <use x="283.59375" xlink:href="#DejaVuSans-95"/>
      <use x="333.59375" xlink:href="#DejaVuSans-101"/>
      <use x="395.117188" xlink:href="#DejaVuSans-114"/>
      <use x="434.480469" xlink:href="#DejaVuSans-114"/>
     </g>
    </g>
    <g id="PathCollection_6">
     <defs>
      <path d="M -1.5 3 
L 0 1.5 
L 1.5 3 
L 3 1.5 
L 1.5 0 
L 3 -1.5 
L 1.5 -3 
L 0 -1.5 
L -1.5 -3 
L -3 -1.5 
L -1.5 0 
L -3 1.5 
z
" id="m5c59bbbe8c" style="stroke:#2f9599;"/>
     </defs>
     <g>
      <use style="fill:#2f9599;stroke:#2f9599;" x="330.118059" xlink:href="#m5c59bbbe8c" y="27.277203"/>
     </g>
    </g>
    <g id="text_16">
     <!-- mean_sq_err -->
     <g transform="translate(342.610059 29.098953)scale(0.0694 -0.0694)">
      <defs>
       <path d="M 44.28125 53.078125 
L 44.28125 44.578125 
Q 40.484375 46.53125 36.375 47.5 
Q 32.28125 48.484375 27.875 48.484375 
Q 21.1875 48.484375 17.84375 46.4375 
Q 14.5 44.390625 14.5 40.28125 
Q 14.5 37.15625 16.890625 35.375 
Q 19.28125 33.59375 26.515625 31.984375 
L 29.59375 31.296875 
Q 39.15625 29.25 43.1875 25.515625 
Q 47.21875 21.78125 47.21875 15.09375 
Q 47.21875 7.46875 41.1875 3.015625 
Q 35.15625 -1.421875 24.609375 -1.421875 
Q 20.21875 -1.421875 15.453125 -0.5625 
Q 10.6875 0.296875 5.421875 2 
L 5.421875 11.28125 
Q 10.40625 8.6875 15.234375 7.390625 
Q 20.0625 6.109375 24.8125 6.109375 
Q 31.15625 6.109375 34.5625 8.28125 
Q 37.984375 10.453125 37.984375 14.40625 
Q 37.984375 18.0625 35.515625 20.015625 
Q 33.0625 21.96875 24.703125 23.78125 
L 21.578125 24.515625 
Q 13.234375 26.265625 9.515625 29.90625 
Q 5.8125 33.546875 5.8125 39.890625 
Q 5.8125 47.609375 11.28125 51.796875 
Q 16.75 56 26.8125 56 
Q 31.78125 56 36.171875 55.265625 
Q 40.578125 54.546875 44.28125 53.078125 
z
" id="DejaVuSans-115"/>
       <path d="M 14.796875 27.296875 
Q 14.796875 17.390625 18.875 11.75 
Q 22.953125 6.109375 30.078125 6.109375 
Q 37.203125 6.109375 41.296875 11.75 
Q 45.40625 17.390625 45.40625 27.296875 
Q 45.40625 37.203125 41.296875 42.84375 
Q 37.203125 48.484375 30.078125 48.484375 
Q 22.953125 48.484375 18.875 42.84375 
Q 14.796875 37.203125 14.796875 27.296875 
z
M 45.40625 8.203125 
Q 42.578125 3.328125 38.25 0.953125 
Q 33.9375 -1.421875 27.875 -1.421875 
Q 17.96875 -1.421875 11.734375 6.484375 
Q 5.515625 14.40625 5.515625 27.296875 
Q 5.515625 40.1875 11.734375 48.09375 
Q 17.96875 56 27.875 56 
Q 33.9375 56 38.25 53.625 
Q 42.578125 51.265625 45.40625 46.390625 
L 45.40625 54.6875 
L 54.390625 54.6875 
L 54.390625 -20.796875 
L 45.40625 -20.796875 
z
" id="DejaVuSans-113"/>
      </defs>
      <use xlink:href="#DejaVuSans-109"/>
      <use x="97.412109" xlink:href="#DejaVuSans-101"/>
      <use x="158.935547" xlink:href="#DejaVuSans-97"/>
      <use x="220.214844" xlink:href="#DejaVuSans-110"/>
      <use x="283.59375" xlink:href="#DejaVuSans-95"/>
      <use x="333.59375" xlink:href="#DejaVuSans-115"/>
      <use x="385.693359" xlink:href="#DejaVuSans-113"/>
      <use x="449.169922" xlink:href="#DejaVuSans-95"/>
      <use x="499.169922" xlink:href="#DejaVuSans-101"/>
      <use x="560.693359" xlink:href="#DejaVuSans-114"/>
      <use x="600.056641" xlink:href="#DejaVuSans-114"/>
     </g>
    </g>
    <g id="PathCollection_7">
     <defs>
      <path d="M -2.12132 -2.12132 
L -2.12132 2.12132 
L 2.12132 2.12132 
L 2.12132 -2.12132 
z
" id="m8e8653bf84" style="stroke:#a7226e;"/>
     </defs>
     <g>
      <use style="fill:#a7226e;stroke:#a7226e;" x="330.118059" xlink:href="#m8e8653bf84" y="37.656841"/>
     </g>
    </g>
    <g id="text_17">
     <!-- mean_sqroot_err -->
     <g transform="translate(342.610059 39.478591)scale(0.0694 -0.0694)">
      <use xlink:href="#DejaVuSans-109"/>
      <use x="97.412109" xlink:href="#DejaVuSans-101"/>
      <use x="158.935547" xlink:href="#DejaVuSans-97"/>
      <use x="220.214844" xlink:href="#DejaVuSans-110"/>
      <use x="283.59375" xlink:href="#DejaVuSans-95"/>
      <use x="333.59375" xlink:href="#DejaVuSans-115"/>
      <use x="385.693359" xlink:href="#DejaVuSans-113"/>
      <use x="449.169922" xlink:href="#DejaVuSans-114"/>
      <use x="488.033203" xlink:href="#DejaVuSans-111"/>
      <use x="549.214844" xlink:href="#DejaVuSans-111"/>
      <use x="610.396484" xlink:href="#DejaVuSans-116"/>
      <use x="649.605469" xlink:href="#DejaVuSans-95"/>
      <use x="699.605469" xlink:href="#DejaVuSans-101"/>
      <use x="761.128906" xlink:href="#DejaVuSans-114"/>
      <use x="800.492188" xlink:href="#DejaVuSans-114"/>
     </g>
    </g>
   </g>
  </g>
 </g>
 <defs>
  <clipPath id="p3eaa12657a">
   <rect height="266.112" width="357.12" x="50.14375" y="7.2"/>
  </clipPath>
 </defs>
</svg>
