<?xml version="1.0" encoding="utf-8" standalone="no"?>
<!DOCTYPE svg PUBLIC "-//W3C//DTD SVG 1.1//EN"
  "http://www.w3.org/Graphics/SVG/1.1/DTD/svg11.dtd">
<!-- Created with matplotlib (https://matplotlib.org/) -->
<svg height="310.86825pt" version="1.1" viewBox="0 0 420.82625 310.86825" width="420.82625pt" xmlns="http://www.w3.org/2000/svg" xmlns:xlink="http://www.w3.org/1999/xlink">
 <metadata>
  <rdf:RDF xmlns:cc="http://creativecommons.org/ns#" xmlns:dc="http://purl.org/dc/elements/1.1/" xmlns:rdf="http://www.w3.org/1999/02/22-rdf-syntax-ns#">
   <cc:Work>
    <dc:type rdf:resource="http://purl.org/dc/dcmitype/StillImage"/>
    <dc:date>2022-05-19T08:45:33.891607</dc:date>
    <dc:format>image/svg+xml</dc:format>
    <dc:creator>
     <cc:Agent>
      <dc:title>Matplotlib v3.3.4, https://matplotlib.org/</dc:title>
     </cc:Agent>
    </dc:creator>
   </cc:Work>
  </rdf:RDF>
 </metadata>
 <defs>
  <style type="text/css">*{stroke-linecap:butt;stroke-linejoin:round;}</style>
 </defs>
 <g id="figure_1">
  <g id="patch_1">
   <path d="M 0 310.86825 
L 420.82625 310.86825 
L 420.82625 0 
L 0 0 
z
" style="fill:#ffffff;"/>
  </g>
  <g id="axes_1">
   <g id="patch_2">
    <path d="M 56.50625 273.312 
L 413.62625 273.312 
L 413.62625 7.2 
L 56.50625 7.2 
z
" style="fill:#ffffff;"/>
   </g>
   <g id="PathCollection_1">
    <path clip-path="url(#p3ae0272fa6)" d="M 72.738977 22.296 
C 73.534587 22.296 74.297717 21.979901 74.860298 21.41732 
C 75.422878 20.85474 75.738977 20.091609 75.738977 19.296 
C 75.738977 18.500391 75.422878 17.73726 74.860298 17.17468 
C 74.297717 16.612099 73.534587 16.296 72.738977 16.296 
C 71.943368 16.296 71.180238 16.612099 70.617657 17.17468 
C 70.055076 17.73726 69.738977 18.500391 69.738977 19.296 
C 69.738977 20.091609 70.055076 20.85474 70.617657 21.41732 
C 71.180238 21.979901 71.943368 22.296 72.738977 22.296 
z
" style="fill:#f26b38;stroke:#ffffff;stroke-width:0.48;"/>
    <path clip-path="url(#p3ae0272fa6)" d="M 79.502614 35.556984 
C 80.298223 35.556984 81.061353 35.240885 81.623934 34.678304 
C 82.186515 34.115723 82.502614 33.352593 82.502614 32.556984 
C 82.502614 31.761374 82.186515 30.998244 81.623934 30.435663 
C 81.061353 29.873083 80.298223 29.556984 79.502614 29.556984 
C 78.707004 29.556984 77.943874 29.873083 77.381293 30.435663 
C 76.818713 30.998244 76.502614 31.761374 76.502614 32.556984 
C 76.502614 33.352593 76.818713 34.115723 77.381293 34.678304 
C 77.943874 35.240885 78.707004 35.556984 79.502614 35.556984 
z
" style="fill:#f26b38;stroke:#ffffff;stroke-width:0.48;"/>
    <path clip-path="url(#p3ae0272fa6)" d="M 86.26625 35.556984 
C 87.061859 35.556984 87.82499 35.240885 88.38757 34.678304 
C 88.950151 34.115723 89.26625 33.352593 89.26625 32.556984 
C 89.26625 31.761374 88.950151 30.998244 88.38757 30.435663 
C 87.82499 29.873083 87.061859 29.556984 86.26625 29.556984 
C 85.470641 29.556984 84.70751 29.873083 84.14493 30.435663 
C 83.582349 30.998244 83.26625 31.761374 83.26625 32.556984 
C 83.26625 33.352593 83.582349 34.115723 84.14493 34.678304 
C 84.70751 35.240885 85.470641 35.556984 86.26625 35.556984 
z
" style="fill:#f26b38;stroke:#ffffff;stroke-width:0.48;"/>
    <path clip-path="url(#p3ae0272fa6)" d="M 93.029886 35.556984 
C 93.825496 35.556984 94.588626 35.240885 95.151207 34.678304 
C 95.713787 34.115723 96.029886 33.352593 96.029886 32.556984 
C 96.029886 31.761374 95.713787 30.998244 95.151207 30.435663 
C 94.588626 29.873083 93.825496 29.556984 93.029886 29.556984 
C 92.234277 29.556984 91.471147 29.873083 90.908566 30.435663 
C 90.345985 30.998244 90.029886 31.761374 90.029886 32.556984 
C 90.029886 33.352593 90.345985 34.115723 90.908566 34.678304 
C 91.471147 35.240885 92.234277 35.556984 93.029886 35.556984 
z
" style="fill:#f26b38;stroke:#ffffff;stroke-width:0.48;"/>
    <path clip-path="url(#p3ae0272fa6)" d="M 99.793523 35.556984 
C 100.589132 35.556984 101.352262 35.240885 101.914843 34.678304 
C 102.477424 34.115723 102.793523 33.352593 102.793523 32.556984 
C 102.793523 31.761374 102.477424 30.998244 101.914843 30.435663 
C 101.352262 29.873083 100.589132 29.556984 99.793523 29.556984 
C 98.997913 29.556984 98.234783 29.873083 97.672202 30.435663 
C 97.109622 30.998244 96.793523 31.761374 96.793523 32.556984 
C 96.793523 33.352593 97.109622 34.115723 97.672202 34.678304 
C 98.234783 35.240885 98.997913 35.556984 99.793523 35.556984 
z
" style="fill:#f26b38;stroke:#ffffff;stroke-width:0.48;"/>
    <path clip-path="url(#p3ae0272fa6)" d="M 106.557159 35.556984 
C 107.352768 35.556984 108.115899 35.240885 108.678479 34.678304 
C 109.24106 34.115723 109.557159 33.352593 109.557159 32.556984 
C 109.557159 31.761374 109.24106 30.998244 108.678479 30.435663 
C 108.115899 29.873083 107.352768 29.556984 106.557159 29.556984 
C 105.76155 29.556984 104.998419 29.873083 104.435839 30.435663 
C 103.873258 30.998244 103.557159 31.761374 103.557159 32.556984 
C 103.557159 33.352593 103.873258 34.115723 104.435839 34.678304 
C 104.998419 35.240885 105.76155 35.556984 106.557159 35.556984 
z
" style="fill:#f26b38;stroke:#ffffff;stroke-width:0.48;"/>
    <path clip-path="url(#p3ae0272fa6)" d="M 113.320795 35.556984 
C 114.116405 35.556984 114.879535 35.240885 115.442116 34.678304 
C 116.004697 34.115723 116.320795 33.352593 116.320795 32.556984 
C 116.320795 31.761374 116.004697 30.998244 115.442116 30.435663 
C 114.879535 29.873083 114.116405 29.556984 113.320795 29.556984 
C 112.525186 29.556984 111.762056 29.873083 111.199475 30.435663 
C 110.636894 30.998244 110.320795 31.761374 110.320795 32.556984 
C 110.320795 33.352593 110.636894 34.115723 111.199475 34.678304 
C 111.762056 35.240885 112.525186 35.556984 113.320795 35.556984 
z
" style="fill:#f26b38;stroke:#ffffff;stroke-width:0.48;"/>
    <path clip-path="url(#p3ae0272fa6)" d="M 120.084432 35.556984 
C 120.880041 35.556984 121.643171 35.240885 122.205752 34.678304 
C 122.768333 34.115723 123.084432 33.352593 123.084432 32.556984 
C 123.084432 31.761374 122.768333 30.998244 122.205752 30.435663 
C 121.643171 29.873083 120.880041 29.556984 120.084432 29.556984 
C 119.288823 29.556984 118.525692 29.873083 117.963111 30.435663 
C 117.400531 30.998244 117.084432 31.761374 117.084432 32.556984 
C 117.084432 33.352593 117.400531 34.115723 117.963111 34.678304 
C 118.525692 35.240885 119.288823 35.556984 120.084432 35.556984 
z
" style="fill:#f26b38;stroke:#ffffff;stroke-width:0.48;"/>
    <path clip-path="url(#p3ae0272fa6)" d="M 126.848068 35.556984 
C 127.643677 35.556984 128.406808 35.240885 128.969389 34.678304 
C 129.531969 34.115723 129.848068 33.352593 129.848068 32.556984 
C 129.848068 31.761374 129.531969 30.998244 128.969389 30.435663 
C 128.406808 29.873083 127.643677 29.556984 126.848068 29.556984 
C 126.052459 29.556984 125.289329 29.873083 124.726748 30.435663 
C 124.164167 30.998244 123.848068 31.761374 123.848068 32.556984 
C 123.848068 33.352593 124.164167 34.115723 124.726748 34.678304 
C 125.289329 35.240885 126.052459 35.556984 126.848068 35.556984 
z
" style="fill:#f26b38;stroke:#ffffff;stroke-width:0.48;"/>
    <path clip-path="url(#p3ae0272fa6)" d="M 133.611705 119.924276 
C 134.407314 119.924276 135.170444 119.608177 135.733025 119.045596 
C 136.295606 118.483015 136.611705 117.719885 136.611705 116.924276 
C 136.611705 116.128667 136.295606 115.365536 135.733025 114.802956 
C 135.170444 114.240375 134.407314 113.924276 133.611705 113.924276 
C 132.816095 113.924276 132.052965 114.240375 131.490384 114.802956 
C 130.927803 115.365536 130.611705 116.128667 130.611705 116.924276 
C 130.611705 117.719885 130.927803 118.483015 131.490384 119.045596 
C 132.052965 119.608177 132.816095 119.924276 133.611705 119.924276 
z
" style="fill:#f26b38;stroke:#ffffff;stroke-width:0.48;"/>
    <path clip-path="url(#p3ae0272fa6)" d="M 140.375341 119.924276 
C 141.17095 119.924276 141.934081 119.608177 142.496661 119.045596 
C 143.059242 118.483015 143.375341 117.719885 143.375341 116.924276 
C 143.375341 116.128667 143.059242 115.365536 142.496661 114.802956 
C 141.934081 114.240375 141.17095 113.924276 140.375341 113.924276 
C 139.579732 113.924276 138.816601 114.240375 138.254021 114.802956 
C 137.69144 115.365536 137.375341 116.128667 137.375341 116.924276 
C 137.375341 117.719885 137.69144 118.483015 138.254021 119.045596 
C 138.816601 119.608177 139.579732 119.924276 140.375341 119.924276 
z
" style="fill:#f26b38;stroke:#ffffff;stroke-width:0.48;"/>
    <path clip-path="url(#p3ae0272fa6)" d="M 147.138977 134.841391 
C 147.934587 134.841391 148.697717 134.525292 149.260298 133.962712 
C 149.822878 133.400131 150.138977 132.637001 150.138977 131.841391 
C 150.138977 131.045782 149.822878 130.282652 149.260298 129.720071 
C 148.697717 129.15749 147.934587 128.841391 147.138977 128.841391 
C 146.343368 128.841391 145.580238 129.15749 145.017657 129.720071 
C 144.455076 130.282652 144.138977 131.045782 144.138977 131.841391 
C 144.138977 132.637001 144.455076 133.400131 145.017657 133.962712 
C 145.580238 134.525292 146.343368 134.841391 147.138977 134.841391 
z
" style="fill:#f26b38;stroke:#ffffff;stroke-width:0.48;"/>
    <path clip-path="url(#p3ae0272fa6)" d="M 153.902614 134.841391 
C 154.698223 134.841391 155.461353 134.525292 156.023934 133.962712 
C 156.586515 133.400131 156.902614 132.637001 156.902614 131.841391 
C 156.902614 131.045782 156.586515 130.282652 156.023934 129.720071 
C 155.461353 129.15749 154.698223 128.841391 153.902614 128.841391 
C 153.107004 128.841391 152.343874 129.15749 151.781293 129.720071 
C 151.218713 130.282652 150.902614 131.045782 150.902614 131.841391 
C 150.902614 132.637001 151.218713 133.400131 151.781293 133.962712 
C 152.343874 134.525292 153.107004 134.841391 153.902614 134.841391 
z
" style="fill:#f26b38;stroke:#ffffff;stroke-width:0.48;"/>
    <path clip-path="url(#p3ae0272fa6)" d="M 160.66625 134.841391 
C 161.461859 134.841391 162.22499 134.525292 162.78757 133.962712 
C 163.350151 133.400131 163.66625 132.637001 163.66625 131.841391 
C 163.66625 131.045782 163.350151 130.282652 162.78757 129.720071 
C 162.22499 129.15749 161.461859 128.841391 160.66625 128.841391 
C 159.870641 128.841391 159.10751 129.15749 158.54493 129.720071 
C 157.982349 130.282652 157.66625 131.045782 157.66625 131.841391 
C 157.66625 132.637001 157.982349 133.400131 158.54493 133.962712 
C 159.10751 134.525292 159.870641 134.841391 160.66625 134.841391 
z
" style="fill:#f26b38;stroke:#ffffff;stroke-width:0.48;"/>
    <path clip-path="url(#p3ae0272fa6)" d="M 167.429886 181.191 
C 168.225496 181.191 168.988626 180.874901 169.551207 180.31232 
C 170.113787 179.74974 170.429886 178.986609 170.429886 178.191 
C 170.429886 177.395391 170.113787 176.63226 169.551207 176.06968 
C 168.988626 175.507099 168.225496 175.191 167.429886 175.191 
C 166.634277 175.191 165.871147 175.507099 165.308566 176.06968 
C 164.745985 176.63226 164.429886 177.395391 164.429886 178.191 
C 164.429886 178.986609 164.745985 179.74974 165.308566 180.31232 
C 165.871147 180.874901 166.634277 181.191 167.429886 181.191 
z
" style="fill:#f26b38;stroke:#ffffff;stroke-width:0.48;"/>
    <path clip-path="url(#p3ae0272fa6)" d="M 174.193523 181.191 
C 174.989132 181.191 175.752262 180.874901 176.314843 180.31232 
C 176.877424 179.74974 177.193523 178.986609 177.193523 178.191 
C 177.193523 177.395391 176.877424 176.63226 176.314843 176.06968 
C 175.752262 175.507099 174.989132 175.191 174.193523 175.191 
C 173.397913 175.191 172.634783 175.507099 172.072202 176.06968 
C 171.509622 176.63226 171.193523 177.395391 171.193523 178.191 
C 171.193523 178.986609 171.509622 179.74974 172.072202 180.31232 
C 172.634783 180.874901 173.397913 181.191 174.193523 181.191 
z
" style="fill:#f26b38;stroke:#ffffff;stroke-width:0.48;"/>
    <path clip-path="url(#p3ae0272fa6)" d="M 180.957159 181.191 
C 181.752768 181.191 182.515899 180.874901 183.078479 180.31232 
C 183.64106 179.74974 183.957159 178.986609 183.957159 178.191 
C 183.957159 177.395391 183.64106 176.63226 183.078479 176.06968 
C 182.515899 175.507099 181.752768 175.191 180.957159 175.191 
C 180.16155 175.191 179.398419 175.507099 178.835839 176.06968 
C 178.273258 176.63226 177.957159 177.395391 177.957159 178.191 
C 177.957159 178.986609 178.273258 179.74974 178.835839 180.31232 
C 179.398419 180.874901 180.16155 181.191 180.957159 181.191 
z
" style="fill:#f26b38;stroke:#ffffff;stroke-width:0.48;"/>
    <path clip-path="url(#p3ae0272fa6)" d="M 187.720795 181.191 
C 188.516405 181.191 189.279535 180.874901 189.842116 180.31232 
C 190.404697 179.74974 190.720795 178.986609 190.720795 178.191 
C 190.720795 177.395391 190.404697 176.63226 189.842116 176.06968 
C 189.279535 175.507099 188.516405 175.191 187.720795 175.191 
C 186.925186 175.191 186.162056 175.507099 185.599475 176.06968 
C 185.036894 176.63226 184.720795 177.395391 184.720795 178.191 
C 184.720795 178.986609 185.036894 179.74974 185.599475 180.31232 
C 186.162056 180.874901 186.925186 181.191 187.720795 181.191 
z
" style="fill:#f26b38;stroke:#ffffff;stroke-width:0.48;"/>
    <path clip-path="url(#p3ae0272fa6)" d="M 194.484432 181.191 
C 195.280041 181.191 196.043171 180.874901 196.605752 180.31232 
C 197.168333 179.74974 197.484432 178.986609 197.484432 178.191 
C 197.484432 177.395391 197.168333 176.63226 196.605752 176.06968 
C 196.043171 175.507099 195.280041 175.191 194.484432 175.191 
C 193.688823 175.191 192.925692 175.507099 192.363111 176.06968 
C 191.800531 176.63226 191.484432 177.395391 191.484432 178.191 
C 191.484432 178.986609 191.800531 179.74974 192.363111 180.31232 
C 192.925692 180.874901 193.688823 181.191 194.484432 181.191 
z
" style="fill:#f26b38;stroke:#ffffff;stroke-width:0.48;"/>
    <path clip-path="url(#p3ae0272fa6)" d="M 201.248068 181.191 
C 202.043677 181.191 202.806808 180.874901 203.369389 180.31232 
C 203.931969 179.74974 204.248068 178.986609 204.248068 178.191 
C 204.248068 177.395391 203.931969 176.63226 203.369389 176.06968 
C 202.806808 175.507099 202.043677 175.191 201.248068 175.191 
C 200.452459 175.191 199.689329 175.507099 199.126748 176.06968 
C 198.564167 176.63226 198.248068 177.395391 198.248068 178.191 
C 198.248068 178.986609 198.564167 179.74974 199.126748 180.31232 
C 199.689329 180.874901 200.452459 181.191 201.248068 181.191 
z
" style="fill:#f26b38;stroke:#ffffff;stroke-width:0.48;"/>
    <path clip-path="url(#p3ae0272fa6)" d="M 208.011705 181.191 
C 208.807314 181.191 209.570444 180.874901 210.133025 180.31232 
C 210.695606 179.74974 211.011705 178.986609 211.011705 178.191 
C 211.011705 177.395391 210.695606 176.63226 210.133025 176.06968 
C 209.570444 175.507099 208.807314 175.191 208.011705 175.191 
C 207.216095 175.191 206.452965 175.507099 205.890384 176.06968 
C 205.327803 176.63226 205.011705 177.395391 205.011705 178.191 
C 205.011705 178.986609 205.327803 179.74974 205.890384 180.31232 
C 206.452965 180.874901 207.216095 181.191 208.011705 181.191 
z
" style="fill:#f26b38;stroke:#ffffff;stroke-width:0.48;"/>
    <path clip-path="url(#p3ae0272fa6)" d="M 214.775341 181.191 
C 215.57095 181.191 216.334081 180.874901 216.896661 180.31232 
C 217.459242 179.74974 217.775341 178.986609 217.775341 178.191 
C 217.775341 177.395391 217.459242 176.63226 216.896661 176.06968 
C 216.334081 175.507099 215.57095 175.191 214.775341 175.191 
C 213.979732 175.191 213.216601 175.507099 212.654021 176.06968 
C 212.09144 176.63226 211.775341 177.395391 211.775341 178.191 
C 211.775341 178.986609 212.09144 179.74974 212.654021 180.31232 
C 213.216601 180.874901 213.979732 181.191 214.775341 181.191 
z
" style="fill:#f26b38;stroke:#ffffff;stroke-width:0.48;"/>
    <path clip-path="url(#p3ae0272fa6)" d="M 221.538977 181.191 
C 222.334587 181.191 223.097717 180.874901 223.660298 180.31232 
C 224.222878 179.74974 224.538977 178.986609 224.538977 178.191 
C 224.538977 177.395391 224.222878 176.63226 223.660298 176.06968 
C 223.097717 175.507099 222.334587 175.191 221.538977 175.191 
C 220.743368 175.191 219.980238 175.507099 219.417657 176.06968 
C 218.855076 176.63226 218.538977 177.395391 218.538977 178.191 
C 218.538977 178.986609 218.855076 179.74974 219.417657 180.31232 
C 219.980238 180.874901 220.743368 181.191 221.538977 181.191 
z
" style="fill:#f26b38;stroke:#ffffff;stroke-width:0.48;"/>
    <path clip-path="url(#p3ae0272fa6)" d="M 228.302614 181.191 
C 229.098223 181.191 229.861353 180.874901 230.423934 180.31232 
C 230.986515 179.74974 231.302614 178.986609 231.302614 178.191 
C 231.302614 177.395391 230.986515 176.63226 230.423934 176.06968 
C 229.861353 175.507099 229.098223 175.191 228.302614 175.191 
C 227.507004 175.191 226.743874 175.507099 226.181293 176.06968 
C 225.618713 176.63226 225.302614 177.395391 225.302614 178.191 
C 225.302614 178.986609 225.618713 179.74974 226.181293 180.31232 
C 226.743874 180.874901 227.507004 181.191 228.302614 181.191 
z
" style="fill:#f26b38;stroke:#ffffff;stroke-width:0.48;"/>
    <path clip-path="url(#p3ae0272fa6)" d="M 235.06625 181.191 
C 235.861859 181.191 236.62499 180.874901 237.18757 180.31232 
C 237.750151 179.74974 238.06625 178.986609 238.06625 178.191 
C 238.06625 177.395391 237.750151 176.63226 237.18757 176.06968 
C 236.62499 175.507099 235.861859 175.191 235.06625 175.191 
C 234.270641 175.191 233.50751 175.507099 232.94493 176.06968 
C 232.382349 176.63226 232.06625 177.395391 232.06625 178.191 
C 232.06625 178.986609 232.382349 179.74974 232.94493 180.31232 
C 233.50751 180.874901 234.270641 181.191 235.06625 181.191 
z
" style="fill:#f26b38;stroke:#ffffff;stroke-width:0.48;"/>
    <path clip-path="url(#p3ae0272fa6)" d="M 241.829886 197.197622 
C 242.625496 197.197622 243.388626 196.881523 243.951207 196.318942 
C 244.513787 195.756361 244.829886 194.993231 244.829886 194.197622 
C 244.829886 193.402012 244.513787 192.638882 243.951207 192.076301 
C 243.388626 191.513721 242.625496 191.197622 241.829886 191.197622 
C 241.034277 191.197622 240.271147 191.513721 239.708566 192.076301 
C 239.145985 192.638882 238.829886 193.402012 238.829886 194.197622 
C 238.829886 194.993231 239.145985 195.756361 239.708566 196.318942 
C 240.271147 196.881523 241.034277 197.197622 241.829886 197.197622 
z
" style="fill:#f26b38;stroke:#ffffff;stroke-width:0.48;"/>
    <path clip-path="url(#p3ae0272fa6)" d="M 248.593523 197.197622 
C 249.389132 197.197622 250.152262 196.881523 250.714843 196.318942 
C 251.277424 195.756361 251.593523 194.993231 251.593523 194.197622 
C 251.593523 193.402012 251.277424 192.638882 250.714843 192.076301 
C 250.152262 191.513721 249.389132 191.197622 248.593523 191.197622 
C 247.797913 191.197622 247.034783 191.513721 246.472202 192.076301 
C 245.909622 192.638882 245.593523 193.402012 245.593523 194.197622 
C 245.593523 194.993231 245.909622 195.756361 246.472202 196.318942 
C 247.034783 196.881523 247.797913 197.197622 248.593523 197.197622 
z
" style="fill:#f26b38;stroke:#ffffff;stroke-width:0.48;"/>
    <path clip-path="url(#p3ae0272fa6)" d="M 255.357159 197.197622 
C 256.152768 197.197622 256.915899 196.881523 257.478479 196.318942 
C 258.04106 195.756361 258.357159 194.993231 258.357159 194.197622 
C 258.357159 193.402012 258.04106 192.638882 257.478479 192.076301 
C 256.915899 191.513721 256.152768 191.197622 255.357159 191.197622 
C 254.56155 191.197622 253.798419 191.513721 253.235839 192.076301 
C 252.673258 192.638882 252.357159 193.402012 252.357159 194.197622 
C 252.357159 194.993231 252.673258 195.756361 253.235839 196.318942 
C 253.798419 196.881523 254.56155 197.197622 255.357159 197.197622 
z
" style="fill:#f26b38;stroke:#ffffff;stroke-width:0.48;"/>
    <path clip-path="url(#p3ae0272fa6)" d="M 262.120795 197.197622 
C 262.916405 197.197622 263.679535 196.881523 264.242116 196.318942 
C 264.804697 195.756361 265.120795 194.993231 265.120795 194.197622 
C 265.120795 193.402012 264.804697 192.638882 264.242116 192.076301 
C 263.679535 191.513721 262.916405 191.197622 262.120795 191.197622 
C 261.325186 191.197622 260.562056 191.513721 259.999475 192.076301 
C 259.436894 192.638882 259.120795 193.402012 259.120795 194.197622 
C 259.120795 194.993231 259.436894 195.756361 259.999475 196.318942 
C 260.562056 196.881523 261.325186 197.197622 262.120795 197.197622 
z
" style="fill:#f26b38;stroke:#ffffff;stroke-width:0.48;"/>
    <path clip-path="url(#p3ae0272fa6)" d="M 268.884432 197.197622 
C 269.680041 197.197622 270.443171 196.881523 271.005752 196.318942 
C 271.568333 195.756361 271.884432 194.993231 271.884432 194.197622 
C 271.884432 193.402012 271.568333 192.638882 271.005752 192.076301 
C 270.443171 191.513721 269.680041 191.197622 268.884432 191.197622 
C 268.088823 191.197622 267.325692 191.513721 266.763111 192.076301 
C 266.200531 192.638882 265.884432 193.402012 265.884432 194.197622 
C 265.884432 194.993231 266.200531 195.756361 266.763111 196.318942 
C 267.325692 196.881523 268.088823 197.197622 268.884432 197.197622 
z
" style="fill:#f26b38;stroke:#ffffff;stroke-width:0.48;"/>
    <path clip-path="url(#p3ae0272fa6)" d="M 275.648068 197.197622 
C 276.443677 197.197622 277.206808 196.881523 277.769389 196.318942 
C 278.331969 195.756361 278.648068 194.993231 278.648068 194.197622 
C 278.648068 193.402012 278.331969 192.638882 277.769389 192.076301 
C 277.206808 191.513721 276.443677 191.197622 275.648068 191.197622 
C 274.852459 191.197622 274.089329 191.513721 273.526748 192.076301 
C 272.964167 192.638882 272.648068 193.402012 272.648068 194.197622 
C 272.648068 194.993231 272.964167 195.756361 273.526748 196.318942 
C 274.089329 196.881523 274.852459 197.197622 275.648068 197.197622 
z
" style="fill:#f26b38;stroke:#ffffff;stroke-width:0.48;"/>
    <path clip-path="url(#p3ae0272fa6)" d="M 282.411705 197.197622 
C 283.207314 197.197622 283.970444 196.881523 284.533025 196.318942 
C 285.095606 195.756361 285.411705 194.993231 285.411705 194.197622 
C 285.411705 193.402012 285.095606 192.638882 284.533025 192.076301 
C 283.970444 191.513721 283.207314 191.197622 282.411705 191.197622 
C 281.616095 191.197622 280.852965 191.513721 280.290384 192.076301 
C 279.727803 192.638882 279.411705 193.402012 279.411705 194.197622 
C 279.411705 194.993231 279.727803 195.756361 280.290384 196.318942 
C 280.852965 196.881523 281.616095 197.197622 282.411705 197.197622 
z
" style="fill:#f26b38;stroke:#ffffff;stroke-width:0.48;"/>
    <path clip-path="url(#p3ae0272fa6)" d="M 289.175341 197.197622 
C 289.97095 197.197622 290.734081 196.881523 291.296661 196.318942 
C 291.859242 195.756361 292.175341 194.993231 292.175341 194.197622 
C 292.175341 193.402012 291.859242 192.638882 291.296661 192.076301 
C 290.734081 191.513721 289.97095 191.197622 289.175341 191.197622 
C 288.379732 191.197622 287.616601 191.513721 287.054021 192.076301 
C 286.49144 192.638882 286.175341 193.402012 286.175341 194.197622 
C 286.175341 194.993231 286.49144 195.756361 287.054021 196.318942 
C 287.616601 196.881523 288.379732 197.197622 289.175341 197.197622 
z
" style="fill:#f26b38;stroke:#ffffff;stroke-width:0.48;"/>
    <path clip-path="url(#p3ae0272fa6)" d="M 295.938977 197.197622 
C 296.734587 197.197622 297.497717 196.881523 298.060298 196.318942 
C 298.622878 195.756361 298.938977 194.993231 298.938977 194.197622 
C 298.938977 193.402012 298.622878 192.638882 298.060298 192.076301 
C 297.497717 191.513721 296.734587 191.197622 295.938977 191.197622 
C 295.143368 191.197622 294.380238 191.513721 293.817657 192.076301 
C 293.255076 192.638882 292.938977 193.402012 292.938977 194.197622 
C 292.938977 194.993231 293.255076 195.756361 293.817657 196.318942 
C 294.380238 196.881523 295.143368 197.197622 295.938977 197.197622 
z
" style="fill:#f26b38;stroke:#ffffff;stroke-width:0.48;"/>
    <path clip-path="url(#p3ae0272fa6)" d="M 302.702614 197.197622 
C 303.498223 197.197622 304.261353 196.881523 304.823934 196.318942 
C 305.386515 195.756361 305.702614 194.993231 305.702614 194.197622 
C 305.702614 193.402012 305.386515 192.638882 304.823934 192.076301 
C 304.261353 191.513721 303.498223 191.197622 302.702614 191.197622 
C 301.907004 191.197622 301.143874 191.513721 300.581293 192.076301 
C 300.018713 192.638882 299.702614 193.402012 299.702614 194.197622 
C 299.702614 194.993231 300.018713 195.756361 300.581293 196.318942 
C 301.143874 196.881523 301.907004 197.197622 302.702614 197.197622 
z
" style="fill:#f26b38;stroke:#ffffff;stroke-width:0.48;"/>
    <path clip-path="url(#p3ae0272fa6)" d="M 309.46625 197.197622 
C 310.261859 197.197622 311.02499 196.881523 311.58757 196.318942 
C 312.150151 195.756361 312.46625 194.993231 312.46625 194.197622 
C 312.46625 193.402012 312.150151 192.638882 311.58757 192.076301 
C 311.02499 191.513721 310.261859 191.197622 309.46625 191.197622 
C 308.670641 191.197622 307.90751 191.513721 307.34493 192.076301 
C 306.782349 192.638882 306.46625 193.402012 306.46625 194.197622 
C 306.46625 194.993231 306.782349 195.756361 307.34493 196.318942 
C 307.90751 196.881523 308.670641 197.197622 309.46625 197.197622 
z
" style="fill:#f26b38;stroke:#ffffff;stroke-width:0.48;"/>
    <path clip-path="url(#p3ae0272fa6)" d="M 316.229886 197.197622 
C 317.025496 197.197622 317.788626 196.881523 318.351207 196.318942 
C 318.913787 195.756361 319.229886 194.993231 319.229886 194.197622 
C 319.229886 193.402012 318.913787 192.638882 318.351207 192.076301 
C 317.788626 191.513721 317.025496 191.197622 316.229886 191.197622 
C 315.434277 191.197622 314.671147 191.513721 314.108566 192.076301 
C 313.545985 192.638882 313.229886 193.402012 313.229886 194.197622 
C 313.229886 194.993231 313.545985 195.756361 314.108566 196.318942 
C 314.671147 196.881523 315.434277 197.197622 316.229886 197.197622 
z
" style="fill:#f26b38;stroke:#ffffff;stroke-width:0.48;"/>
    <path clip-path="url(#p3ae0272fa6)" d="M 322.993523 197.197622 
C 323.789132 197.197622 324.552262 196.881523 325.114843 196.318942 
C 325.677424 195.756361 325.993523 194.993231 325.993523 194.197622 
C 325.993523 193.402012 325.677424 192.638882 325.114843 192.076301 
C 324.552262 191.513721 323.789132 191.197622 322.993523 191.197622 
C 322.197913 191.197622 321.434783 191.513721 320.872202 192.076301 
C 320.309622 192.638882 319.993523 193.402012 319.993523 194.197622 
C 319.993523 194.993231 320.309622 195.756361 320.872202 196.318942 
C 321.434783 196.881523 322.197913 197.197622 322.993523 197.197622 
z
" style="fill:#f26b38;stroke:#ffffff;stroke-width:0.48;"/>
    <path clip-path="url(#p3ae0272fa6)" d="M 329.757159 197.197622 
C 330.552768 197.197622 331.315899 196.881523 331.878479 196.318942 
C 332.44106 195.756361 332.757159 194.993231 332.757159 194.197622 
C 332.757159 193.402012 332.44106 192.638882 331.878479 192.076301 
C 331.315899 191.513721 330.552768 191.197622 329.757159 191.197622 
C 328.96155 191.197622 328.198419 191.513721 327.635839 192.076301 
C 327.073258 192.638882 326.757159 193.402012 326.757159 194.197622 
C 326.757159 194.993231 327.073258 195.756361 327.635839 196.318942 
C 328.198419 196.881523 328.96155 197.197622 329.757159 197.197622 
z
" style="fill:#f26b38;stroke:#ffffff;stroke-width:0.48;"/>
    <path clip-path="url(#p3ae0272fa6)" d="M 336.520795 197.197622 
C 337.316405 197.197622 338.079535 196.881523 338.642116 196.318942 
C 339.204697 195.756361 339.520795 194.993231 339.520795 194.197622 
C 339.520795 193.402012 339.204697 192.638882 338.642116 192.076301 
C 338.079535 191.513721 337.316405 191.197622 336.520795 191.197622 
C 335.725186 191.197622 334.962056 191.513721 334.399475 192.076301 
C 333.836894 192.638882 333.520795 193.402012 333.520795 194.197622 
C 333.520795 194.993231 333.836894 195.756361 334.399475 196.318942 
C 334.962056 196.881523 335.725186 197.197622 336.520795 197.197622 
z
" style="fill:#f26b38;stroke:#ffffff;stroke-width:0.48;"/>
    <path clip-path="url(#p3ae0272fa6)" d="M 343.284432 197.197622 
C 344.080041 197.197622 344.843171 196.881523 345.405752 196.318942 
C 345.968333 195.756361 346.284432 194.993231 346.284432 194.197622 
C 346.284432 193.402012 345.968333 192.638882 345.405752 192.076301 
C 344.843171 191.513721 344.080041 191.197622 343.284432 191.197622 
C 342.488823 191.197622 341.725692 191.513721 341.163111 192.076301 
C 340.600531 192.638882 340.284432 193.402012 340.284432 194.197622 
C 340.284432 194.993231 340.600531 195.756361 341.163111 196.318942 
C 341.725692 196.881523 342.488823 197.197622 343.284432 197.197622 
z
" style="fill:#f26b38;stroke:#ffffff;stroke-width:0.48;"/>
    <path clip-path="url(#p3ae0272fa6)" d="M 350.048068 197.197622 
C 350.843677 197.197622 351.606808 196.881523 352.169389 196.318942 
C 352.731969 195.756361 353.048068 194.993231 353.048068 194.197622 
C 353.048068 193.402012 352.731969 192.638882 352.169389 192.076301 
C 351.606808 191.513721 350.843677 191.197622 350.048068 191.197622 
C 349.252459 191.197622 348.489329 191.513721 347.926748 192.076301 
C 347.364167 192.638882 347.048068 193.402012 347.048068 194.197622 
C 347.048068 194.993231 347.364167 195.756361 347.926748 196.318942 
C 348.489329 196.881523 349.252459 197.197622 350.048068 197.197622 
z
" style="fill:#f26b38;stroke:#ffffff;stroke-width:0.48;"/>
    <path clip-path="url(#p3ae0272fa6)" d="M 356.811705 197.197622 
C 357.607314 197.197622 358.370444 196.881523 358.933025 196.318942 
C 359.495606 195.756361 359.811705 194.993231 359.811705 194.197622 
C 359.811705 193.402012 359.495606 192.638882 358.933025 192.076301 
C 358.370444 191.513721 357.607314 191.197622 356.811705 191.197622 
C 356.016095 191.197622 355.252965 191.513721 354.690384 192.076301 
C 354.127803 192.638882 353.811705 193.402012 353.811705 194.197622 
C 353.811705 194.993231 354.127803 195.756361 354.690384 196.318942 
C 355.252965 196.881523 356.016095 197.197622 356.811705 197.197622 
z
" style="fill:#f26b38;stroke:#ffffff;stroke-width:0.48;"/>
    <path clip-path="url(#p3ae0272fa6)" d="M 363.575341 197.197622 
C 364.37095 197.197622 365.134081 196.881523 365.696661 196.318942 
C 366.259242 195.756361 366.575341 194.993231 366.575341 194.197622 
C 366.575341 193.402012 366.259242 192.638882 365.696661 192.076301 
C 365.134081 191.513721 364.37095 191.197622 363.575341 191.197622 
C 362.779732 191.197622 362.016601 191.513721 361.454021 192.076301 
C 360.89144 192.638882 360.575341 193.402012 360.575341 194.197622 
C 360.575341 194.993231 360.89144 195.756361 361.454021 196.318942 
C 362.016601 196.881523 362.779732 197.197622 363.575341 197.197622 
z
" style="fill:#f26b38;stroke:#ffffff;stroke-width:0.48;"/>
    <path clip-path="url(#p3ae0272fa6)" d="M 370.338977 197.197622 
C 371.134587 197.197622 371.897717 196.881523 372.460298 196.318942 
C 373.022878 195.756361 373.338977 194.993231 373.338977 194.197622 
C 373.338977 193.402012 373.022878 192.638882 372.460298 192.076301 
C 371.897717 191.513721 371.134587 191.197622 370.338977 191.197622 
C 369.543368 191.197622 368.780238 191.513721 368.217657 192.076301 
C 367.655076 192.638882 367.338977 193.402012 367.338977 194.197622 
C 367.338977 194.993231 367.655076 195.756361 368.217657 196.318942 
C 368.780238 196.881523 369.543368 197.197622 370.338977 197.197622 
z
" style="fill:#f26b38;stroke:#ffffff;stroke-width:0.48;"/>
    <path clip-path="url(#p3ae0272fa6)" d="M 377.102614 197.197622 
C 377.898223 197.197622 378.661353 196.881523 379.223934 196.318942 
C 379.786515 195.756361 380.102614 194.993231 380.102614 194.197622 
C 380.102614 193.402012 379.786515 192.638882 379.223934 192.076301 
C 378.661353 191.513721 377.898223 191.197622 377.102614 191.197622 
C 376.307004 191.197622 375.543874 191.513721 374.981293 192.076301 
C 374.418713 192.638882 374.102614 193.402012 374.102614 194.197622 
C 374.102614 194.993231 374.418713 195.756361 374.981293 196.318942 
C 375.543874 196.881523 376.307004 197.197622 377.102614 197.197622 
z
" style="fill:#f26b38;stroke:#ffffff;stroke-width:0.48;"/>
    <path clip-path="url(#p3ae0272fa6)" d="M 383.86625 197.197622 
C 384.661859 197.197622 385.42499 196.881523 385.98757 196.318942 
C 386.550151 195.756361 386.86625 194.993231 386.86625 194.197622 
C 386.86625 193.402012 386.550151 192.638882 385.98757 192.076301 
C 385.42499 191.513721 384.661859 191.197622 383.86625 191.197622 
C 383.070641 191.197622 382.30751 191.513721 381.74493 192.076301 
C 381.182349 192.638882 380.86625 193.402012 380.86625 194.197622 
C 380.86625 194.993231 381.182349 195.756361 381.74493 196.318942 
C 382.30751 196.881523 383.070641 197.197622 383.86625 197.197622 
z
" style="fill:#f26b38;stroke:#ffffff;stroke-width:0.48;"/>
    <path clip-path="url(#p3ae0272fa6)" d="M 390.629886 197.197622 
C 391.425496 197.197622 392.188626 196.881523 392.751207 196.318942 
C 393.313787 195.756361 393.629886 194.993231 393.629886 194.197622 
C 393.629886 193.402012 393.313787 192.638882 392.751207 192.076301 
C 392.188626 191.513721 391.425496 191.197622 390.629886 191.197622 
C 389.834277 191.197622 389.071147 191.513721 388.508566 192.076301 
C 387.945985 192.638882 387.629886 193.402012 387.629886 194.197622 
C 387.629886 194.993231 387.945985 195.756361 388.508566 196.318942 
C 389.071147 196.881523 389.834277 197.197622 390.629886 197.197622 
z
" style="fill:#f26b38;stroke:#ffffff;stroke-width:0.48;"/>
    <path clip-path="url(#p3ae0272fa6)" d="M 397.393523 197.197622 
C 398.189132 197.197622 398.952262 196.881523 399.514843 196.318942 
C 400.077424 195.756361 400.393523 194.993231 400.393523 194.197622 
C 400.393523 193.402012 400.077424 192.638882 399.514843 192.076301 
C 398.952262 191.513721 398.189132 191.197622 397.393523 191.197622 
C 396.597913 191.197622 395.834783 191.513721 395.272202 192.076301 
C 394.709622 192.638882 394.393523 193.402012 394.393523 194.197622 
C 394.393523 194.993231 394.709622 195.756361 395.272202 196.318942 
C 395.834783 196.881523 396.597913 197.197622 397.393523 197.197622 
z
" style="fill:#f26b38;stroke:#ffffff;stroke-width:0.48;"/>
    <path clip-path="url(#p3ae0272fa6)" d="M 71.238977 35.556984 
L 72.738977 34.056984 
L 74.238977 35.556984 
L 75.738977 34.056984 
L 74.238977 32.556984 
L 75.738977 31.056984 
L 74.238977 29.556984 
L 72.738977 31.056984 
L 71.238977 29.556984 
L 69.738977 31.056984 
L 71.238977 32.556984 
L 69.738977 34.056984 
z
" style="fill:#2f9599;stroke:#ffffff;stroke-width:0.48;"/>
    <path clip-path="url(#p3ae0272fa6)" d="M 78.002614 134.841391 
L 79.502614 133.341391 
L 81.002614 134.841391 
L 82.502614 133.341391 
L 81.002614 131.841391 
L 82.502614 130.341391 
L 81.002614 128.841391 
L 79.502614 130.341391 
L 78.002614 128.841391 
L 76.502614 130.341391 
L 78.002614 131.841391 
L 76.502614 133.341391 
z
" style="fill:#2f9599;stroke:#ffffff;stroke-width:0.48;"/>
    <path clip-path="url(#p3ae0272fa6)" d="M 84.76625 134.841391 
L 86.26625 133.341391 
L 87.76625 134.841391 
L 89.26625 133.341391 
L 87.76625 131.841391 
L 89.26625 130.341391 
L 87.76625 128.841391 
L 86.26625 130.341391 
L 84.76625 128.841391 
L 83.26625 130.341391 
L 84.76625 131.841391 
L 83.26625 133.341391 
z
" style="fill:#2f9599;stroke:#ffffff;stroke-width:0.48;"/>
    <path clip-path="url(#p3ae0272fa6)" d="M 91.529886 181.191 
L 93.029886 179.691 
L 94.529886 181.191 
L 96.029886 179.691 
L 94.529886 178.191 
L 96.029886 176.691 
L 94.529886 175.191 
L 93.029886 176.691 
L 91.529886 175.191 
L 90.029886 176.691 
L 91.529886 178.191 
L 90.029886 179.691 
z
" style="fill:#2f9599;stroke:#ffffff;stroke-width:0.48;"/>
    <path clip-path="url(#p3ae0272fa6)" d="M 98.293523 197.197622 
L 99.793523 195.697622 
L 101.293523 197.197622 
L 102.793523 195.697622 
L 101.293523 194.197622 
L 102.793523 192.697622 
L 101.293523 191.197622 
L 99.793523 192.697622 
L 98.293523 191.197622 
L 96.793523 192.697622 
L 98.293523 194.197622 
L 96.793523 195.697622 
z
" style="fill:#2f9599;stroke:#ffffff;stroke-width:0.48;"/>
    <path clip-path="url(#p3ae0272fa6)" d="M 105.057159 246.996 
L 106.557159 245.496 
L 108.057159 246.996 
L 109.557159 245.496 
L 108.057159 243.996 
L 109.557159 242.496 
L 108.057159 240.996 
L 106.557159 242.496 
L 105.057159 240.996 
L 103.557159 242.496 
L 105.057159 243.996 
L 103.557159 245.496 
z
" style="fill:#2f9599;stroke:#ffffff;stroke-width:0.48;"/>
    <path clip-path="url(#p3ae0272fa6)" d="M 111.820795 246.996 
L 113.320795 245.496 
L 114.820795 246.996 
L 116.320795 245.496 
L 114.820795 243.996 
L 116.320795 242.496 
L 114.820795 240.996 
L 113.320795 242.496 
L 111.820795 240.996 
L 110.320795 242.496 
L 111.820795 243.996 
L 110.320795 245.496 
z
" style="fill:#2f9599;stroke:#ffffff;stroke-width:0.48;"/>
    <path clip-path="url(#p3ae0272fa6)" d="M 118.584432 246.996 
L 120.084432 245.496 
L 121.584432 246.996 
L 123.084432 245.496 
L 121.584432 243.996 
L 123.084432 242.496 
L 121.584432 240.996 
L 120.084432 242.496 
L 118.584432 240.996 
L 117.084432 242.496 
L 118.584432 243.996 
L 117.084432 245.496 
z
" style="fill:#2f9599;stroke:#ffffff;stroke-width:0.48;"/>
    <path clip-path="url(#p3ae0272fa6)" d="M 125.348068 246.996 
L 126.848068 245.496 
L 128.348068 246.996 
L 129.848068 245.496 
L 128.348068 243.996 
L 129.848068 242.496 
L 128.348068 240.996 
L 126.848068 242.496 
L 125.348068 240.996 
L 123.848068 242.496 
L 125.348068 243.996 
L 123.848068 245.496 
z
" style="fill:#2f9599;stroke:#ffffff;stroke-width:0.48;"/>
    <path clip-path="url(#p3ae0272fa6)" d="M 132.111705 246.996 
L 133.611705 245.496 
L 135.111705 246.996 
L 136.611705 245.496 
L 135.111705 243.996 
L 136.611705 242.496 
L 135.111705 240.996 
L 133.611705 242.496 
L 132.111705 240.996 
L 130.611705 242.496 
L 132.111705 243.996 
L 130.611705 245.496 
z
" style="fill:#2f9599;stroke:#ffffff;stroke-width:0.48;"/>
    <path clip-path="url(#p3ae0272fa6)" d="M 138.875341 246.996 
L 140.375341 245.496 
L 141.875341 246.996 
L 143.375341 245.496 
L 141.875341 243.996 
L 143.375341 242.496 
L 141.875341 240.996 
L 140.375341 242.496 
L 138.875341 240.996 
L 137.375341 242.496 
L 138.875341 243.996 
L 137.375341 245.496 
z
" style="fill:#2f9599;stroke:#ffffff;stroke-width:0.48;"/>
    <path clip-path="url(#p3ae0272fa6)" d="M 145.638977 246.996 
L 147.138977 245.496 
L 148.638977 246.996 
L 150.138977 245.496 
L 148.638977 243.996 
L 150.138977 242.496 
L 148.638977 240.996 
L 147.138977 242.496 
L 145.638977 240.996 
L 144.138977 242.496 
L 145.638977 243.996 
L 144.138977 245.496 
z
" style="fill:#2f9599;stroke:#ffffff;stroke-width:0.48;"/>
    <path clip-path="url(#p3ae0272fa6)" d="M 152.402614 246.996 
L 153.902614 245.496 
L 155.402614 246.996 
L 156.902614 245.496 
L 155.402614 243.996 
L 156.902614 242.496 
L 155.402614 240.996 
L 153.902614 242.496 
L 152.402614 240.996 
L 150.902614 242.496 
L 152.402614 243.996 
L 150.902614 245.496 
z
" style="fill:#2f9599;stroke:#ffffff;stroke-width:0.48;"/>
    <path clip-path="url(#p3ae0272fa6)" d="M 159.16625 246.996 
L 160.66625 245.496 
L 162.16625 246.996 
L 163.66625 245.496 
L 162.16625 243.996 
L 163.66625 242.496 
L 162.16625 240.996 
L 160.66625 242.496 
L 159.16625 240.996 
L 157.66625 242.496 
L 159.16625 243.996 
L 157.66625 245.496 
z
" style="fill:#2f9599;stroke:#ffffff;stroke-width:0.48;"/>
    <path clip-path="url(#p3ae0272fa6)" d="M 165.929886 246.996 
L 167.429886 245.496 
L 168.929886 246.996 
L 170.429886 245.496 
L 168.929886 243.996 
L 170.429886 242.496 
L 168.929886 240.996 
L 167.429886 242.496 
L 165.929886 240.996 
L 164.429886 242.496 
L 165.929886 243.996 
L 164.429886 245.496 
z
" style="fill:#2f9599;stroke:#ffffff;stroke-width:0.48;"/>
    <path clip-path="url(#p3ae0272fa6)" d="M 172.693523 246.996 
L 174.193523 245.496 
L 175.693523 246.996 
L 177.193523 245.496 
L 175.693523 243.996 
L 177.193523 242.496 
L 175.693523 240.996 
L 174.193523 242.496 
L 172.693523 240.996 
L 171.193523 242.496 
L 172.693523 243.996 
L 171.193523 245.496 
z
" style="fill:#2f9599;stroke:#ffffff;stroke-width:0.48;"/>
    <path clip-path="url(#p3ae0272fa6)" d="M 179.457159 264.216 
L 180.957159 262.716 
L 182.457159 264.216 
L 183.957159 262.716 
L 182.457159 261.216 
L 183.957159 259.716 
L 182.457159 258.216 
L 180.957159 259.716 
L 179.457159 258.216 
L 177.957159 259.716 
L 179.457159 261.216 
L 177.957159 262.716 
z
" style="fill:#2f9599;stroke:#ffffff;stroke-width:0.48;"/>
    <path clip-path="url(#p3ae0272fa6)" d="M 186.220795 264.216 
L 187.720795 262.716 
L 189.220795 264.216 
L 190.720795 262.716 
L 189.220795 261.216 
L 190.720795 259.716 
L 189.220795 258.216 
L 187.720795 259.716 
L 186.220795 258.216 
L 184.720795 259.716 
L 186.220795 261.216 
L 184.720795 262.716 
z
" style="fill:#2f9599;stroke:#ffffff;stroke-width:0.48;"/>
    <path clip-path="url(#p3ae0272fa6)" d="M 192.984432 264.216 
L 194.484432 262.716 
L 195.984432 264.216 
L 197.484432 262.716 
L 195.984432 261.216 
L 197.484432 259.716 
L 195.984432 258.216 
L 194.484432 259.716 
L 192.984432 258.216 
L 191.484432 259.716 
L 192.984432 261.216 
L 191.484432 262.716 
z
" style="fill:#2f9599;stroke:#ffffff;stroke-width:0.48;"/>
    <path clip-path="url(#p3ae0272fa6)" d="M 199.748068 264.216 
L 201.248068 262.716 
L 202.748068 264.216 
L 204.248068 262.716 
L 202.748068 261.216 
L 204.248068 259.716 
L 202.748068 258.216 
L 201.248068 259.716 
L 199.748068 258.216 
L 198.248068 259.716 
L 199.748068 261.216 
L 198.248068 262.716 
z
" style="fill:#2f9599;stroke:#ffffff;stroke-width:0.48;"/>
    <path clip-path="url(#p3ae0272fa6)" d="M 206.511705 264.216 
L 208.011705 262.716 
L 209.511705 264.216 
L 211.011705 262.716 
L 209.511705 261.216 
L 211.011705 259.716 
L 209.511705 258.216 
L 208.011705 259.716 
L 206.511705 258.216 
L 205.011705 259.716 
L 206.511705 261.216 
L 205.011705 262.716 
z
" style="fill:#2f9599;stroke:#ffffff;stroke-width:0.48;"/>
    <path clip-path="url(#p3ae0272fa6)" d="M 213.275341 264.216 
L 214.775341 262.716 
L 216.275341 264.216 
L 217.775341 262.716 
L 216.275341 261.216 
L 217.775341 259.716 
L 216.275341 258.216 
L 214.775341 259.716 
L 213.275341 258.216 
L 211.775341 259.716 
L 213.275341 261.216 
L 211.775341 262.716 
z
" style="fill:#2f9599;stroke:#ffffff;stroke-width:0.48;"/>
    <path clip-path="url(#p3ae0272fa6)" d="M 220.038977 264.216 
L 221.538977 262.716 
L 223.038977 264.216 
L 224.538977 262.716 
L 223.038977 261.216 
L 224.538977 259.716 
L 223.038977 258.216 
L 221.538977 259.716 
L 220.038977 258.216 
L 218.538977 259.716 
L 220.038977 261.216 
L 218.538977 262.716 
z
" style="fill:#2f9599;stroke:#ffffff;stroke-width:0.48;"/>
    <path clip-path="url(#p3ae0272fa6)" d="M 226.802614 264.216 
L 228.302614 262.716 
L 229.802614 264.216 
L 231.302614 262.716 
L 229.802614 261.216 
L 231.302614 259.716 
L 229.802614 258.216 
L 228.302614 259.716 
L 226.802614 258.216 
L 225.302614 259.716 
L 226.802614 261.216 
L 225.302614 262.716 
z
" style="fill:#2f9599;stroke:#ffffff;stroke-width:0.48;"/>
    <path clip-path="url(#p3ae0272fa6)" d="M 233.56625 264.216 
L 235.06625 262.716 
L 236.56625 264.216 
L 238.06625 262.716 
L 236.56625 261.216 
L 238.06625 259.716 
L 236.56625 258.216 
L 235.06625 259.716 
L 233.56625 258.216 
L 232.06625 259.716 
L 233.56625 261.216 
L 232.06625 262.716 
z
" style="fill:#2f9599;stroke:#ffffff;stroke-width:0.48;"/>
    <path clip-path="url(#p3ae0272fa6)" d="M 240.329886 264.216 
L 241.829886 262.716 
L 243.329886 264.216 
L 244.829886 262.716 
L 243.329886 261.216 
L 244.829886 259.716 
L 243.329886 258.216 
L 241.829886 259.716 
L 240.329886 258.216 
L 238.829886 259.716 
L 240.329886 261.216 
L 238.829886 262.716 
z
" style="fill:#2f9599;stroke:#ffffff;stroke-width:0.48;"/>
    <path clip-path="url(#p3ae0272fa6)" d="M 247.093523 264.216 
L 248.593523 262.716 
L 250.093523 264.216 
L 251.593523 262.716 
L 250.093523 261.216 
L 251.593523 259.716 
L 250.093523 258.216 
L 248.593523 259.716 
L 247.093523 258.216 
L 245.593523 259.716 
L 247.093523 261.216 
L 245.593523 262.716 
z
" style="fill:#2f9599;stroke:#ffffff;stroke-width:0.48;"/>
    <path clip-path="url(#p3ae0272fa6)" d="M 253.857159 264.216 
L 255.357159 262.716 
L 256.857159 264.216 
L 258.357159 262.716 
L 256.857159 261.216 
L 258.357159 259.716 
L 256.857159 258.216 
L 255.357159 259.716 
L 253.857159 258.216 
L 252.357159 259.716 
L 253.857159 261.216 
L 252.357159 262.716 
z
" style="fill:#2f9599;stroke:#ffffff;stroke-width:0.48;"/>
    <path clip-path="url(#p3ae0272fa6)" d="M 260.620795 264.216 
L 262.120795 262.716 
L 263.620795 264.216 
L 265.120795 262.716 
L 263.620795 261.216 
L 265.120795 259.716 
L 263.620795 258.216 
L 262.120795 259.716 
L 260.620795 258.216 
L 259.120795 259.716 
L 260.620795 261.216 
L 259.120795 262.716 
z
" style="fill:#2f9599;stroke:#ffffff;stroke-width:0.48;"/>
    <path clip-path="url(#p3ae0272fa6)" d="M 267.384432 264.216 
L 268.884432 262.716 
L 270.384432 264.216 
L 271.884432 262.716 
L 270.384432 261.216 
L 271.884432 259.716 
L 270.384432 258.216 
L 268.884432 259.716 
L 267.384432 258.216 
L 265.884432 259.716 
L 267.384432 261.216 
L 265.884432 262.716 
z
" style="fill:#2f9599;stroke:#ffffff;stroke-width:0.48;"/>
    <path clip-path="url(#p3ae0272fa6)" d="M 274.148068 264.216 
L 275.648068 262.716 
L 277.148068 264.216 
L 278.648068 262.716 
L 277.148068 261.216 
L 278.648068 259.716 
L 277.148068 258.216 
L 275.648068 259.716 
L 274.148068 258.216 
L 272.648068 259.716 
L 274.148068 261.216 
L 272.648068 262.716 
z
" style="fill:#2f9599;stroke:#ffffff;stroke-width:0.48;"/>
    <path clip-path="url(#p3ae0272fa6)" d="M 280.911705 264.216 
L 282.411705 262.716 
L 283.911705 264.216 
L 285.411705 262.716 
L 283.911705 261.216 
L 285.411705 259.716 
L 283.911705 258.216 
L 282.411705 259.716 
L 280.911705 258.216 
L 279.411705 259.716 
L 280.911705 261.216 
L 279.411705 262.716 
z
" style="fill:#2f9599;stroke:#ffffff;stroke-width:0.48;"/>
    <path clip-path="url(#p3ae0272fa6)" d="M 287.675341 264.216 
L 289.175341 262.716 
L 290.675341 264.216 
L 292.175341 262.716 
L 290.675341 261.216 
L 292.175341 259.716 
L 290.675341 258.216 
L 289.175341 259.716 
L 287.675341 258.216 
L 286.175341 259.716 
L 287.675341 261.216 
L 286.175341 262.716 
z
" style="fill:#2f9599;stroke:#ffffff;stroke-width:0.48;"/>
    <path clip-path="url(#p3ae0272fa6)" d="M 294.438977 264.216 
L 295.938977 262.716 
L 297.438977 264.216 
L 298.938977 262.716 
L 297.438977 261.216 
L 298.938977 259.716 
L 297.438977 258.216 
L 295.938977 259.716 
L 294.438977 258.216 
L 292.938977 259.716 
L 294.438977 261.216 
L 292.938977 262.716 
z
" style="fill:#2f9599;stroke:#ffffff;stroke-width:0.48;"/>
    <path clip-path="url(#p3ae0272fa6)" d="M 301.202614 264.216 
L 302.702614 262.716 
L 304.202614 264.216 
L 305.702614 262.716 
L 304.202614 261.216 
L 305.702614 259.716 
L 304.202614 258.216 
L 302.702614 259.716 
L 301.202614 258.216 
L 299.702614 259.716 
L 301.202614 261.216 
L 299.702614 262.716 
z
" style="fill:#2f9599;stroke:#ffffff;stroke-width:0.48;"/>
    <path clip-path="url(#p3ae0272fa6)" d="M 307.96625 264.216 
L 309.46625 262.716 
L 310.96625 264.216 
L 312.46625 262.716 
L 310.96625 261.216 
L 312.46625 259.716 
L 310.96625 258.216 
L 309.46625 259.716 
L 307.96625 258.216 
L 306.46625 259.716 
L 307.96625 261.216 
L 306.46625 262.716 
z
" style="fill:#2f9599;stroke:#ffffff;stroke-width:0.48;"/>
    <path clip-path="url(#p3ae0272fa6)" d="M 314.729886 264.216 
L 316.229886 262.716 
L 317.729886 264.216 
L 319.229886 262.716 
L 317.729886 261.216 
L 319.229886 259.716 
L 317.729886 258.216 
L 316.229886 259.716 
L 314.729886 258.216 
L 313.229886 259.716 
L 314.729886 261.216 
L 313.229886 262.716 
z
" style="fill:#2f9599;stroke:#ffffff;stroke-width:0.48;"/>
    <path clip-path="url(#p3ae0272fa6)" d="M 321.493523 264.216 
L 322.993523 262.716 
L 324.493523 264.216 
L 325.993523 262.716 
L 324.493523 261.216 
L 325.993523 259.716 
L 324.493523 258.216 
L 322.993523 259.716 
L 321.493523 258.216 
L 319.993523 259.716 
L 321.493523 261.216 
L 319.993523 262.716 
z
" style="fill:#2f9599;stroke:#ffffff;stroke-width:0.48;"/>
    <path clip-path="url(#p3ae0272fa6)" d="M 328.257159 264.216 
L 329.757159 262.716 
L 331.257159 264.216 
L 332.757159 262.716 
L 331.257159 261.216 
L 332.757159 259.716 
L 331.257159 258.216 
L 329.757159 259.716 
L 328.257159 258.216 
L 326.757159 259.716 
L 328.257159 261.216 
L 326.757159 262.716 
z
" style="fill:#2f9599;stroke:#ffffff;stroke-width:0.48;"/>
    <path clip-path="url(#p3ae0272fa6)" d="M 335.020795 264.216 
L 336.520795 262.716 
L 338.020795 264.216 
L 339.520795 262.716 
L 338.020795 261.216 
L 339.520795 259.716 
L 338.020795 258.216 
L 336.520795 259.716 
L 335.020795 258.216 
L 333.520795 259.716 
L 335.020795 261.216 
L 333.520795 262.716 
z
" style="fill:#2f9599;stroke:#ffffff;stroke-width:0.48;"/>
    <path clip-path="url(#p3ae0272fa6)" d="M 341.784432 264.216 
L 343.284432 262.716 
L 344.784432 264.216 
L 346.284432 262.716 
L 344.784432 261.216 
L 346.284432 259.716 
L 344.784432 258.216 
L 343.284432 259.716 
L 341.784432 258.216 
L 340.284432 259.716 
L 341.784432 261.216 
L 340.284432 262.716 
z
" style="fill:#2f9599;stroke:#ffffff;stroke-width:0.48;"/>
    <path clip-path="url(#p3ae0272fa6)" d="M 348.548068 264.216 
L 350.048068 262.716 
L 351.548068 264.216 
L 353.048068 262.716 
L 351.548068 261.216 
L 353.048068 259.716 
L 351.548068 258.216 
L 350.048068 259.716 
L 348.548068 258.216 
L 347.048068 259.716 
L 348.548068 261.216 
L 347.048068 262.716 
z
" style="fill:#2f9599;stroke:#ffffff;stroke-width:0.48;"/>
    <path clip-path="url(#p3ae0272fa6)" d="M 355.311705 264.216 
L 356.811705 262.716 
L 358.311705 264.216 
L 359.811705 262.716 
L 358.311705 261.216 
L 359.811705 259.716 
L 358.311705 258.216 
L 356.811705 259.716 
L 355.311705 258.216 
L 353.811705 259.716 
L 355.311705 261.216 
L 353.811705 262.716 
z
" style="fill:#2f9599;stroke:#ffffff;stroke-width:0.48;"/>
    <path clip-path="url(#p3ae0272fa6)" d="M 362.075341 264.216 
L 363.575341 262.716 
L 365.075341 264.216 
L 366.575341 262.716 
L 365.075341 261.216 
L 366.575341 259.716 
L 365.075341 258.216 
L 363.575341 259.716 
L 362.075341 258.216 
L 360.575341 259.716 
L 362.075341 261.216 
L 360.575341 262.716 
z
" style="fill:#2f9599;stroke:#ffffff;stroke-width:0.48;"/>
    <path clip-path="url(#p3ae0272fa6)" d="M 368.838977 264.216 
L 370.338977 262.716 
L 371.838977 264.216 
L 373.338977 262.716 
L 371.838977 261.216 
L 373.338977 259.716 
L 371.838977 258.216 
L 370.338977 259.716 
L 368.838977 258.216 
L 367.338977 259.716 
L 368.838977 261.216 
L 367.338977 262.716 
z
" style="fill:#2f9599;stroke:#ffffff;stroke-width:0.48;"/>
    <path clip-path="url(#p3ae0272fa6)" d="M 375.602614 264.216 
L 377.102614 262.716 
L 378.602614 264.216 
L 380.102614 262.716 
L 378.602614 261.216 
L 380.102614 259.716 
L 378.602614 258.216 
L 377.102614 259.716 
L 375.602614 258.216 
L 374.102614 259.716 
L 375.602614 261.216 
L 374.102614 262.716 
z
" style="fill:#2f9599;stroke:#ffffff;stroke-width:0.48;"/>
    <path clip-path="url(#p3ae0272fa6)" d="M 382.36625 264.216 
L 383.86625 262.716 
L 385.36625 264.216 
L 386.86625 262.716 
L 385.36625 261.216 
L 386.86625 259.716 
L 385.36625 258.216 
L 383.86625 259.716 
L 382.36625 258.216 
L 380.86625 259.716 
L 382.36625 261.216 
L 380.86625 262.716 
z
" style="fill:#2f9599;stroke:#ffffff;stroke-width:0.48;"/>
    <path clip-path="url(#p3ae0272fa6)" d="M 389.129886 264.216 
L 390.629886 262.716 
L 392.129886 264.216 
L 393.629886 262.716 
L 392.129886 261.216 
L 393.629886 259.716 
L 392.129886 258.216 
L 390.629886 259.716 
L 389.129886 258.216 
L 387.629886 259.716 
L 389.129886 261.216 
L 387.629886 262.716 
z
" style="fill:#2f9599;stroke:#ffffff;stroke-width:0.48;"/>
    <path clip-path="url(#p3ae0272fa6)" d="M 395.893523 264.216 
L 397.393523 262.716 
L 398.893523 264.216 
L 400.393523 262.716 
L 398.893523 261.216 
L 400.393523 259.716 
L 398.893523 258.216 
L 397.393523 259.716 
L 395.893523 258.216 
L 394.393523 259.716 
L 395.893523 261.216 
L 394.393523 262.716 
z
" style="fill:#2f9599;stroke:#ffffff;stroke-width:0.48;"/>
    <path clip-path="url(#p3ae0272fa6)" d="M 70.617657 43.915837 
L 70.617657 48.158477 
L 74.860298 48.158477 
L 74.860298 43.915837 
z
" style="fill:#a7226e;stroke:#ffffff;stroke-width:0.48;"/>
    <path clip-path="url(#p3ae0272fa6)" d="M 77.381293 43.915837 
L 77.381293 48.158477 
L 81.623934 48.158477 
L 81.623934 43.915837 
z
" style="fill:#a7226e;stroke:#ffffff;stroke-width:0.48;"/>
    <path clip-path="url(#p3ae0272fa6)" d="M 84.14493 43.915837 
L 84.14493 48.158477 
L 88.38757 48.158477 
L 88.38757 43.915837 
z
" style="fill:#a7226e;stroke:#ffffff;stroke-width:0.48;"/>
    <path clip-path="url(#p3ae0272fa6)" d="M 90.908566 43.915837 
L 90.908566 48.158477 
L 95.151207 48.158477 
L 95.151207 43.915837 
z
" style="fill:#a7226e;stroke:#ffffff;stroke-width:0.48;"/>
    <path clip-path="url(#p3ae0272fa6)" d="M 97.672202 43.915837 
L 97.672202 48.158477 
L 101.914843 48.158477 
L 101.914843 43.915837 
z
" style="fill:#a7226e;stroke:#ffffff;stroke-width:0.48;"/>
    <path clip-path="url(#p3ae0272fa6)" d="M 104.435839 43.915837 
L 104.435839 48.158477 
L 108.678479 48.158477 
L 108.678479 43.915837 
z
" style="fill:#a7226e;stroke:#ffffff;stroke-width:0.48;"/>
    <path clip-path="url(#p3ae0272fa6)" d="M 111.199475 43.915837 
L 111.199475 48.158477 
L 115.442116 48.158477 
L 115.442116 43.915837 
z
" style="fill:#a7226e;stroke:#ffffff;stroke-width:0.48;"/>
    <path clip-path="url(#p3ae0272fa6)" d="M 117.963111 57.62068 
L 117.963111 61.86332 
L 122.205752 61.86332 
L 122.205752 57.62068 
z
" style="fill:#a7226e;stroke:#ffffff;stroke-width:0.48;"/>
    <path clip-path="url(#p3ae0272fa6)" d="M 124.726748 43.915837 
L 124.726748 48.158477 
L 128.969389 48.158477 
L 128.969389 43.915837 
z
" style="fill:#a7226e;stroke:#ffffff;stroke-width:0.48;"/>
    <path clip-path="url(#p3ae0272fa6)" d="M 131.490384 43.915837 
L 131.490384 48.158477 
L 135.733025 48.158477 
L 135.733025 43.915837 
z
" style="fill:#a7226e;stroke:#ffffff;stroke-width:0.48;"/>
    <path clip-path="url(#p3ae0272fa6)" d="M 138.254021 43.915837 
L 138.254021 48.158477 
L 142.496661 48.158477 
L 142.496661 43.915837 
z
" style="fill:#a7226e;stroke:#ffffff;stroke-width:0.48;"/>
    <path clip-path="url(#p3ae0272fa6)" d="M 145.017657 43.915837 
L 145.017657 48.158477 
L 149.260298 48.158477 
L 149.260298 43.915837 
z
" style="fill:#a7226e;stroke:#ffffff;stroke-width:0.48;"/>
    <path clip-path="url(#p3ae0272fa6)" d="M 151.781293 43.915837 
L 151.781293 48.158477 
L 156.023934 48.158477 
L 156.023934 43.915837 
z
" style="fill:#a7226e;stroke:#ffffff;stroke-width:0.48;"/>
    <path clip-path="url(#p3ae0272fa6)" d="M 158.54493 43.915837 
L 158.54493 48.158477 
L 162.78757 48.158477 
L 162.78757 43.915837 
z
" style="fill:#a7226e;stroke:#ffffff;stroke-width:0.48;"/>
    <path clip-path="url(#p3ae0272fa6)" d="M 165.308566 43.915837 
L 165.308566 48.158477 
L 169.551207 48.158477 
L 169.551207 43.915837 
z
" style="fill:#a7226e;stroke:#ffffff;stroke-width:0.48;"/>
    <path clip-path="url(#p3ae0272fa6)" d="M 172.072202 43.915837 
L 172.072202 48.158477 
L 176.314843 48.158477 
L 176.314843 43.915837 
z
" style="fill:#a7226e;stroke:#ffffff;stroke-width:0.48;"/>
    <path clip-path="url(#p3ae0272fa6)" d="M 178.835839 30.435663 
L 178.835839 34.678304 
L 183.078479 34.678304 
L 183.078479 30.435663 
z
" style="fill:#a7226e;stroke:#ffffff;stroke-width:0.48;"/>
    <path clip-path="url(#p3ae0272fa6)" d="M 185.599475 30.435663 
L 185.599475 34.678304 
L 189.842116 34.678304 
L 189.842116 30.435663 
z
" style="fill:#a7226e;stroke:#ffffff;stroke-width:0.48;"/>
    <path clip-path="url(#p3ae0272fa6)" d="M 192.363111 30.435663 
L 192.363111 34.678304 
L 196.605752 34.678304 
L 196.605752 30.435663 
z
" style="fill:#a7226e;stroke:#ffffff;stroke-width:0.48;"/>
    <path clip-path="url(#p3ae0272fa6)" d="M 199.126748 17.17468 
L 199.126748 21.41732 
L 203.369389 21.41732 
L 203.369389 17.17468 
z
" style="fill:#a7226e;stroke:#ffffff;stroke-width:0.48;"/>
    <path clip-path="url(#p3ae0272fa6)" d="M 205.890384 17.17468 
L 205.890384 21.41732 
L 210.133025 21.41732 
L 210.133025 17.17468 
z
" style="fill:#a7226e;stroke:#ffffff;stroke-width:0.48;"/>
    <path clip-path="url(#p3ae0272fa6)" d="M 212.654021 114.802956 
L 212.654021 119.045596 
L 216.896661 119.045596 
L 216.896661 114.802956 
z
" style="fill:#a7226e;stroke:#ffffff;stroke-width:0.48;"/>
    <path clip-path="url(#p3ae0272fa6)" d="M 219.417657 114.802956 
L 219.417657 119.045596 
L 223.660298 119.045596 
L 223.660298 114.802956 
z
" style="fill:#a7226e;stroke:#ffffff;stroke-width:0.48;"/>
    <path clip-path="url(#p3ae0272fa6)" d="M 226.181293 129.720071 
L 226.181293 133.962712 
L 230.423934 133.962712 
L 230.423934 129.720071 
z
" style="fill:#a7226e;stroke:#ffffff;stroke-width:0.48;"/>
    <path clip-path="url(#p3ae0272fa6)" d="M 232.94493 129.720071 
L 232.94493 133.962712 
L 237.18757 133.962712 
L 237.18757 129.720071 
z
" style="fill:#a7226e;stroke:#ffffff;stroke-width:0.48;"/>
    <path clip-path="url(#p3ae0272fa6)" d="M 239.708566 129.720071 
L 239.708566 133.962712 
L 243.951207 133.962712 
L 243.951207 129.720071 
z
" style="fill:#a7226e;stroke:#ffffff;stroke-width:0.48;"/>
    <path clip-path="url(#p3ae0272fa6)" d="M 246.472202 176.06968 
L 246.472202 180.31232 
L 250.714843 180.31232 
L 250.714843 176.06968 
z
" style="fill:#a7226e;stroke:#ffffff;stroke-width:0.48;"/>
    <path clip-path="url(#p3ae0272fa6)" d="M 253.235839 176.06968 
L 253.235839 180.31232 
L 257.478479 180.31232 
L 257.478479 176.06968 
z
" style="fill:#a7226e;stroke:#ffffff;stroke-width:0.48;"/>
    <path clip-path="url(#p3ae0272fa6)" d="M 259.999475 176.06968 
L 259.999475 180.31232 
L 264.242116 180.31232 
L 264.242116 176.06968 
z
" style="fill:#a7226e;stroke:#ffffff;stroke-width:0.48;"/>
    <path clip-path="url(#p3ae0272fa6)" d="M 266.763111 176.06968 
L 266.763111 180.31232 
L 271.005752 180.31232 
L 271.005752 176.06968 
z
" style="fill:#a7226e;stroke:#ffffff;stroke-width:0.48;"/>
    <path clip-path="url(#p3ae0272fa6)" d="M 273.526748 176.06968 
L 273.526748 180.31232 
L 277.769389 180.31232 
L 277.769389 176.06968 
z
" style="fill:#a7226e;stroke:#ffffff;stroke-width:0.48;"/>
    <path clip-path="url(#p3ae0272fa6)" d="M 280.290384 176.06968 
L 280.290384 180.31232 
L 284.533025 180.31232 
L 284.533025 176.06968 
z
" style="fill:#a7226e;stroke:#ffffff;stroke-width:0.48;"/>
    <path clip-path="url(#p3ae0272fa6)" d="M 287.054021 176.06968 
L 287.054021 180.31232 
L 291.296661 180.31232 
L 291.296661 176.06968 
z
" style="fill:#a7226e;stroke:#ffffff;stroke-width:0.48;"/>
    <path clip-path="url(#p3ae0272fa6)" d="M 293.817657 176.06968 
L 293.817657 180.31232 
L 298.060298 180.31232 
L 298.060298 176.06968 
z
" style="fill:#a7226e;stroke:#ffffff;stroke-width:0.48;"/>
    <path clip-path="url(#p3ae0272fa6)" d="M 300.581293 176.06968 
L 300.581293 180.31232 
L 304.823934 180.31232 
L 304.823934 176.06968 
z
" style="fill:#a7226e;stroke:#ffffff;stroke-width:0.48;"/>
    <path clip-path="url(#p3ae0272fa6)" d="M 307.34493 176.06968 
L 307.34493 180.31232 
L 311.58757 180.31232 
L 311.58757 176.06968 
z
" style="fill:#a7226e;stroke:#ffffff;stroke-width:0.48;"/>
    <path clip-path="url(#p3ae0272fa6)" d="M 314.108566 176.06968 
L 314.108566 180.31232 
L 318.351207 180.31232 
L 318.351207 176.06968 
z
" style="fill:#a7226e;stroke:#ffffff;stroke-width:0.48;"/>
    <path clip-path="url(#p3ae0272fa6)" d="M 320.872202 176.06968 
L 320.872202 180.31232 
L 325.114843 180.31232 
L 325.114843 176.06968 
z
" style="fill:#a7226e;stroke:#ffffff;stroke-width:0.48;"/>
    <path clip-path="url(#p3ae0272fa6)" d="M 327.635839 176.06968 
L 327.635839 180.31232 
L 331.878479 180.31232 
L 331.878479 176.06968 
z
" style="fill:#a7226e;stroke:#ffffff;stroke-width:0.48;"/>
    <path clip-path="url(#p3ae0272fa6)" d="M 334.399475 176.06968 
L 334.399475 180.31232 
L 338.642116 180.31232 
L 338.642116 176.06968 
z
" style="fill:#a7226e;stroke:#ffffff;stroke-width:0.48;"/>
    <path clip-path="url(#p3ae0272fa6)" d="M 341.163111 176.06968 
L 341.163111 180.31232 
L 345.405752 180.31232 
L 345.405752 176.06968 
z
" style="fill:#a7226e;stroke:#ffffff;stroke-width:0.48;"/>
    <path clip-path="url(#p3ae0272fa6)" d="M 347.926748 176.06968 
L 347.926748 180.31232 
L 352.169389 180.31232 
L 352.169389 176.06968 
z
" style="fill:#a7226e;stroke:#ffffff;stroke-width:0.48;"/>
    <path clip-path="url(#p3ae0272fa6)" d="M 354.690384 176.06968 
L 354.690384 180.31232 
L 358.933025 180.31232 
L 358.933025 176.06968 
z
" style="fill:#a7226e;stroke:#ffffff;stroke-width:0.48;"/>
    <path clip-path="url(#p3ae0272fa6)" d="M 361.454021 176.06968 
L 361.454021 180.31232 
L 365.696661 180.31232 
L 365.696661 176.06968 
z
" style="fill:#a7226e;stroke:#ffffff;stroke-width:0.48;"/>
    <path clip-path="url(#p3ae0272fa6)" d="M 368.217657 176.06968 
L 368.217657 180.31232 
L 372.460298 180.31232 
L 372.460298 176.06968 
z
" style="fill:#a7226e;stroke:#ffffff;stroke-width:0.48;"/>
    <path clip-path="url(#p3ae0272fa6)" d="M 374.981293 176.06968 
L 374.981293 180.31232 
L 379.223934 180.31232 
L 379.223934 176.06968 
z
" style="fill:#a7226e;stroke:#ffffff;stroke-width:0.48;"/>
    <path clip-path="url(#p3ae0272fa6)" d="M 381.74493 176.06968 
L 381.74493 180.31232 
L 385.98757 180.31232 
L 385.98757 176.06968 
z
" style="fill:#a7226e;stroke:#ffffff;stroke-width:0.48;"/>
    <path clip-path="url(#p3ae0272fa6)" d="M 388.508566 176.06968 
L 388.508566 180.31232 
L 392.751207 180.31232 
L 392.751207 176.06968 
z
" style="fill:#a7226e;stroke:#ffffff;stroke-width:0.48;"/>
    <path clip-path="url(#p3ae0272fa6)" d="M 395.272202 176.06968 
L 395.272202 180.31232 
L 399.514843 180.31232 
L 399.514843 176.06968 
z
" style="fill:#a7226e;stroke:#ffffff;stroke-width:0.48;"/>
   </g>
   <g id="PathCollection_2"/>
   <g id="PathCollection_3"/>
   <g id="PathCollection_4"/>
   <g id="matplotlib.axis_1">
    <g id="xtick_1">
     <g id="line2d_1">
      <defs>
       <path d="M 0 0 
L 0 3.5 
" id="m76a35a6aea" style="stroke:#000000;stroke-width:0.8;"/>
      </defs>
      <g>
       <use style="stroke:#000000;stroke-width:0.8;" x="65.975341" xlink:href="#m76a35a6aea" y="273.312"/>
      </g>
     </g>
     <g id="text_1">
      <!-- 0.0 -->
      <g transform="translate(58.023778 287.910437)scale(0.1 -0.1)">
       <defs>
        <path d="M 31.78125 66.40625 
Q 24.171875 66.40625 20.328125 58.90625 
Q 16.5 51.421875 16.5 36.375 
Q 16.5 21.390625 20.328125 13.890625 
Q 24.171875 6.390625 31.78125 6.390625 
Q 39.453125 6.390625 43.28125 13.890625 
Q 47.125 21.390625 47.125 36.375 
Q 47.125 51.421875 43.28125 58.90625 
Q 39.453125 66.40625 31.78125 66.40625 
z
M 31.78125 74.21875 
Q 44.046875 74.21875 50.515625 64.515625 
Q 56.984375 54.828125 56.984375 36.375 
Q 56.984375 17.96875 50.515625 8.265625 
Q 44.046875 -1.421875 31.78125 -1.421875 
Q 19.53125 -1.421875 13.0625 8.265625 
Q 6.59375 17.96875 6.59375 36.375 
Q 6.59375 54.828125 13.0625 64.515625 
Q 19.53125 74.21875 31.78125 74.21875 
z
" id="DejaVuSans-48"/>
        <path d="M 10.6875 12.40625 
L 21 12.40625 
L 21 0 
L 10.6875 0 
z
" id="DejaVuSans-46"/>
       </defs>
       <use xlink:href="#DejaVuSans-48"/>
       <use x="63.623047" xlink:href="#DejaVuSans-46"/>
       <use x="95.410156" xlink:href="#DejaVuSans-48"/>
      </g>
     </g>
    </g>
    <g id="xtick_2">
     <g id="line2d_2">
      <g>
       <use style="stroke:#000000;stroke-width:0.8;" x="133.611705" xlink:href="#m76a35a6aea" y="273.312"/>
      </g>
     </g>
     <g id="text_2">
      <!-- 0.2 -->
      <g transform="translate(125.660142 287.910437)scale(0.1 -0.1)">
       <defs>
        <path d="M 19.1875 8.296875 
L 53.609375 8.296875 
L 53.609375 0 
L 7.328125 0 
L 7.328125 8.296875 
Q 12.9375 14.109375 22.625 23.890625 
Q 32.328125 33.6875 34.8125 36.53125 
Q 39.546875 41.84375 41.421875 45.53125 
Q 43.3125 49.21875 43.3125 52.78125 
Q 43.3125 58.59375 39.234375 62.25 
Q 35.15625 65.921875 28.609375 65.921875 
Q 23.96875 65.921875 18.8125 64.3125 
Q 13.671875 62.703125 7.8125 59.421875 
L 7.8125 69.390625 
Q 13.765625 71.78125 18.9375 73 
Q 24.125 74.21875 28.421875 74.21875 
Q 39.75 74.21875 46.484375 68.546875 
Q 53.21875 62.890625 53.21875 53.421875 
Q 53.21875 48.921875 51.53125 44.890625 
Q 49.859375 40.875 45.40625 35.40625 
Q 44.1875 33.984375 37.640625 27.21875 
Q 31.109375 20.453125 19.1875 8.296875 
z
" id="DejaVuSans-50"/>
       </defs>
       <use xlink:href="#DejaVuSans-48"/>
       <use x="63.623047" xlink:href="#DejaVuSans-46"/>
       <use x="95.410156" xlink:href="#DejaVuSans-50"/>
      </g>
     </g>
    </g>
    <g id="xtick_3">
     <g id="line2d_3">
      <g>
       <use style="stroke:#000000;stroke-width:0.8;" x="201.248068" xlink:href="#m76a35a6aea" y="273.312"/>
      </g>
     </g>
     <g id="text_3">
      <!-- 0.4 -->
      <g transform="translate(193.296506 287.910437)scale(0.1 -0.1)">
       <defs>
        <path d="M 37.796875 64.3125 
L 12.890625 25.390625 
L 37.796875 25.390625 
z
M 35.203125 72.90625 
L 47.609375 72.90625 
L 47.609375 25.390625 
L 58.015625 25.390625 
L 58.015625 17.1875 
L 47.609375 17.1875 
L 47.609375 0 
L 37.796875 0 
L 37.796875 17.1875 
L 4.890625 17.1875 
L 4.890625 26.703125 
z
" id="DejaVuSans-52"/>
       </defs>
       <use xlink:href="#DejaVuSans-48"/>
       <use x="63.623047" xlink:href="#DejaVuSans-46"/>
       <use x="95.410156" xlink:href="#DejaVuSans-52"/>
      </g>
     </g>
    </g>
    <g id="xtick_4">
     <g id="line2d_4">
      <g>
       <use style="stroke:#000000;stroke-width:0.8;" x="268.884432" xlink:href="#m76a35a6aea" y="273.312"/>
      </g>
     </g>
     <g id="text_4">
      <!-- 0.6 -->
      <g transform="translate(260.932869 287.910437)scale(0.1 -0.1)">
       <defs>
        <path d="M 33.015625 40.375 
Q 26.375 40.375 22.484375 35.828125 
Q 18.609375 31.296875 18.609375 23.390625 
Q 18.609375 15.53125 22.484375 10.953125 
Q 26.375 6.390625 33.015625 6.390625 
Q 39.65625 6.390625 43.53125 10.953125 
Q 47.40625 15.53125 47.40625 23.390625 
Q 47.40625 31.296875 43.53125 35.828125 
Q 39.65625 40.375 33.015625 40.375 
z
M 52.59375 71.296875 
L 52.59375 62.3125 
Q 48.875 64.0625 45.09375 64.984375 
Q 41.3125 65.921875 37.59375 65.921875 
Q 27.828125 65.921875 22.671875 59.328125 
Q 17.53125 52.734375 16.796875 39.40625 
Q 19.671875 43.65625 24.015625 45.921875 
Q 28.375 48.1875 33.59375 48.1875 
Q 44.578125 48.1875 50.953125 41.515625 
Q 57.328125 34.859375 57.328125 23.390625 
Q 57.328125 12.15625 50.6875 5.359375 
Q 44.046875 -1.421875 33.015625 -1.421875 
Q 20.359375 -1.421875 13.671875 8.265625 
Q 6.984375 17.96875 6.984375 36.375 
Q 6.984375 53.65625 15.1875 63.9375 
Q 23.390625 74.21875 37.203125 74.21875 
Q 40.921875 74.21875 44.703125 73.484375 
Q 48.484375 72.75 52.59375 71.296875 
z
" id="DejaVuSans-54"/>
       </defs>
       <use xlink:href="#DejaVuSans-48"/>
       <use x="63.623047" xlink:href="#DejaVuSans-46"/>
       <use x="95.410156" xlink:href="#DejaVuSans-54"/>
      </g>
     </g>
    </g>
    <g id="xtick_5">
     <g id="line2d_5">
      <g>
       <use style="stroke:#000000;stroke-width:0.8;" x="336.520795" xlink:href="#m76a35a6aea" y="273.312"/>
      </g>
     </g>
     <g id="text_5">
      <!-- 0.8 -->
      <g transform="translate(328.569233 287.910437)scale(0.1 -0.1)">
       <defs>
        <path d="M 31.78125 34.625 
Q 24.75 34.625 20.71875 30.859375 
Q 16.703125 27.09375 16.703125 20.515625 
Q 16.703125 13.921875 20.71875 10.15625 
Q 24.75 6.390625 31.78125 6.390625 
Q 38.8125 6.390625 42.859375 10.171875 
Q 46.921875 13.96875 46.921875 20.515625 
Q 46.921875 27.09375 42.890625 30.859375 
Q 38.875 34.625 31.78125 34.625 
z
M 21.921875 38.8125 
Q 15.578125 40.375 12.03125 44.71875 
Q 8.5 49.078125 8.5 55.328125 
Q 8.5 64.0625 14.71875 69.140625 
Q 20.953125 74.21875 31.78125 74.21875 
Q 42.671875 74.21875 48.875 69.140625 
Q 55.078125 64.0625 55.078125 55.328125 
Q 55.078125 49.078125 51.53125 44.71875 
Q 48 40.375 41.703125 38.8125 
Q 48.828125 37.15625 52.796875 32.3125 
Q 56.78125 27.484375 56.78125 20.515625 
Q 56.78125 9.90625 50.3125 4.234375 
Q 43.84375 -1.421875 31.78125 -1.421875 
Q 19.734375 -1.421875 13.25 4.234375 
Q 6.78125 9.90625 6.78125 20.515625 
Q 6.78125 27.484375 10.78125 32.3125 
Q 14.796875 37.15625 21.921875 38.8125 
z
M 18.3125 54.390625 
Q 18.3125 48.734375 21.84375 45.5625 
Q 25.390625 42.390625 31.78125 42.390625 
Q 38.140625 42.390625 41.71875 45.5625 
Q 45.3125 48.734375 45.3125 54.390625 
Q 45.3125 60.0625 41.71875 63.234375 
Q 38.140625 66.40625 31.78125 66.40625 
Q 25.390625 66.40625 21.84375 63.234375 
Q 18.3125 60.0625 18.3125 54.390625 
z
" id="DejaVuSans-56"/>
       </defs>
       <use xlink:href="#DejaVuSans-48"/>
       <use x="63.623047" xlink:href="#DejaVuSans-46"/>
       <use x="95.410156" xlink:href="#DejaVuSans-56"/>
      </g>
     </g>
    </g>
    <g id="xtick_6">
     <g id="line2d_6">
      <g>
       <use style="stroke:#000000;stroke-width:0.8;" x="404.157159" xlink:href="#m76a35a6aea" y="273.312"/>
      </g>
     </g>
     <g id="text_6">
      <!-- 1.0 -->
      <g transform="translate(396.205597 287.910437)scale(0.1 -0.1)">
       <defs>
        <path d="M 12.40625 8.296875 
L 28.515625 8.296875 
L 28.515625 63.921875 
L 10.984375 60.40625 
L 10.984375 69.390625 
L 28.421875 72.90625 
L 38.28125 72.90625 
L 38.28125 8.296875 
L 54.390625 8.296875 
L 54.390625 0 
L 12.40625 0 
z
" id="DejaVuSans-49"/>
       </defs>
       <use xlink:href="#DejaVuSans-49"/>
       <use x="63.623047" xlink:href="#DejaVuSans-46"/>
       <use x="95.410156" xlink:href="#DejaVuSans-48"/>
      </g>
     </g>
    </g>
    <g id="text_7">
     <!-- cutoff -->
     <g transform="translate(220.608438 301.588562)scale(0.1 -0.1)">
      <defs>
       <path d="M 48.78125 52.59375 
L 48.78125 44.1875 
Q 44.96875 46.296875 41.140625 47.34375 
Q 37.3125 48.390625 33.40625 48.390625 
Q 24.65625 48.390625 19.8125 42.84375 
Q 14.984375 37.3125 14.984375 27.296875 
Q 14.984375 17.28125 19.8125 11.734375 
Q 24.65625 6.203125 33.40625 6.203125 
Q 37.3125 6.203125 41.140625 7.25 
Q 44.96875 8.296875 48.78125 10.40625 
L 48.78125 2.09375 
Q 45.015625 0.34375 40.984375 -0.53125 
Q 36.96875 -1.421875 32.421875 -1.421875 
Q 20.0625 -1.421875 12.78125 6.34375 
Q 5.515625 14.109375 5.515625 27.296875 
Q 5.515625 40.671875 12.859375 48.328125 
Q 20.21875 56 33.015625 56 
Q 37.15625 56 41.109375 55.140625 
Q 45.0625 54.296875 48.78125 52.59375 
z
" id="DejaVuSans-99"/>
       <path d="M 8.5 21.578125 
L 8.5 54.6875 
L 17.484375 54.6875 
L 17.484375 21.921875 
Q 17.484375 14.15625 20.5 10.265625 
Q 23.53125 6.390625 29.59375 6.390625 
Q 36.859375 6.390625 41.078125 11.03125 
Q 45.3125 15.671875 45.3125 23.6875 
L 45.3125 54.6875 
L 54.296875 54.6875 
L 54.296875 0 
L 45.3125 0 
L 45.3125 8.40625 
Q 42.046875 3.421875 37.71875 1 
Q 33.40625 -1.421875 27.6875 -1.421875 
Q 18.265625 -1.421875 13.375 4.4375 
Q 8.5 10.296875 8.5 21.578125 
z
M 31.109375 56 
z
" id="DejaVuSans-117"/>
       <path d="M 18.3125 70.21875 
L 18.3125 54.6875 
L 36.8125 54.6875 
L 36.8125 47.703125 
L 18.3125 47.703125 
L 18.3125 18.015625 
Q 18.3125 11.328125 20.140625 9.421875 
Q 21.96875 7.515625 27.59375 7.515625 
L 36.8125 7.515625 
L 36.8125 0 
L 27.59375 0 
Q 17.1875 0 13.234375 3.875 
Q 9.28125 7.765625 9.28125 18.015625 
L 9.28125 47.703125 
L 2.6875 47.703125 
L 2.6875 54.6875 
L 9.28125 54.6875 
L 9.28125 70.21875 
z
" id="DejaVuSans-116"/>
       <path d="M 30.609375 48.390625 
Q 23.390625 48.390625 19.1875 42.75 
Q 14.984375 37.109375 14.984375 27.296875 
Q 14.984375 17.484375 19.15625 11.84375 
Q 23.34375 6.203125 30.609375 6.203125 
Q 37.796875 6.203125 41.984375 11.859375 
Q 46.1875 17.53125 46.1875 27.296875 
Q 46.1875 37.015625 41.984375 42.703125 
Q 37.796875 48.390625 30.609375 48.390625 
z
M 30.609375 56 
Q 42.328125 56 49.015625 48.375 
Q 55.71875 40.765625 55.71875 27.296875 
Q 55.71875 13.875 49.015625 6.21875 
Q 42.328125 -1.421875 30.609375 -1.421875 
Q 18.84375 -1.421875 12.171875 6.21875 
Q 5.515625 13.875 5.515625 27.296875 
Q 5.515625 40.765625 12.171875 48.375 
Q 18.84375 56 30.609375 56 
z
" id="DejaVuSans-111"/>
       <path d="M 37.109375 75.984375 
L 37.109375 68.5 
L 28.515625 68.5 
Q 23.6875 68.5 21.796875 66.546875 
Q 19.921875 64.59375 19.921875 59.515625 
L 19.921875 54.6875 
L 34.71875 54.6875 
L 34.71875 47.703125 
L 19.921875 47.703125 
L 19.921875 0 
L 10.890625 0 
L 10.890625 47.703125 
L 2.296875 47.703125 
L 2.296875 54.6875 
L 10.890625 54.6875 
L 10.890625 58.5 
Q 10.890625 67.625 15.140625 71.796875 
Q 19.390625 75.984375 28.609375 75.984375 
z
" id="DejaVuSans-102"/>
      </defs>
      <use xlink:href="#DejaVuSans-99"/>
      <use x="54.980469" xlink:href="#DejaVuSans-117"/>
      <use x="118.359375" xlink:href="#DejaVuSans-116"/>
      <use x="157.568359" xlink:href="#DejaVuSans-111"/>
      <use x="218.75" xlink:href="#DejaVuSans-102"/>
      <use x="253.955078" xlink:href="#DejaVuSans-102"/>
     </g>
    </g>
   </g>
   <g id="matplotlib.axis_2">
    <g id="ytick_1">
     <g id="line2d_7">
      <defs>
       <path d="M 0 0 
L -3.5 0 
" id="m838d6647be" style="stroke:#000000;stroke-width:0.8;"/>
      </defs>
      <g>
       <use style="stroke:#000000;stroke-width:0.8;" x="56.50625" xlink:href="#m838d6647be" y="259.535494"/>
      </g>
     </g>
     <g id="text_8">
      <!-- 0.450 -->
      <g transform="translate(20.878125 263.334713)scale(0.1 -0.1)">
       <defs>
        <path d="M 10.796875 72.90625 
L 49.515625 72.90625 
L 49.515625 64.59375 
L 19.828125 64.59375 
L 19.828125 46.734375 
Q 21.96875 47.46875 24.109375 47.828125 
Q 26.265625 48.1875 28.421875 48.1875 
Q 40.625 48.1875 47.75 41.5 
Q 54.890625 34.8125 54.890625 23.390625 
Q 54.890625 11.625 47.5625 5.09375 
Q 40.234375 -1.421875 26.90625 -1.421875 
Q 22.3125 -1.421875 17.546875 -0.640625 
Q 12.796875 0.140625 7.71875 1.703125 
L 7.71875 11.625 
Q 12.109375 9.234375 16.796875 8.0625 
Q 21.484375 6.890625 26.703125 6.890625 
Q 35.15625 6.890625 40.078125 11.328125 
Q 45.015625 15.765625 45.015625 23.390625 
Q 45.015625 31 40.078125 35.4375 
Q 35.15625 39.890625 26.703125 39.890625 
Q 22.75 39.890625 18.8125 39.015625 
Q 14.890625 38.140625 10.796875 36.28125 
z
" id="DejaVuSans-53"/>
       </defs>
       <use xlink:href="#DejaVuSans-48"/>
       <use x="63.623047" xlink:href="#DejaVuSans-46"/>
       <use x="95.410156" xlink:href="#DejaVuSans-52"/>
       <use x="159.033203" xlink:href="#DejaVuSans-53"/>
       <use x="222.65625" xlink:href="#DejaVuSans-48"/>
      </g>
     </g>
    </g>
    <g id="ytick_2">
     <g id="line2d_8">
      <g>
       <use style="stroke:#000000;stroke-width:0.8;" x="56.50625" xlink:href="#m838d6647be" y="229.56647"/>
      </g>
     </g>
     <g id="text_9">
      <!-- 0.475 -->
      <g transform="translate(20.878125 233.365689)scale(0.1 -0.1)">
       <defs>
        <path d="M 8.203125 72.90625 
L 55.078125 72.90625 
L 55.078125 68.703125 
L 28.609375 0 
L 18.3125 0 
L 43.21875 64.59375 
L 8.203125 64.59375 
z
" id="DejaVuSans-55"/>
       </defs>
       <use xlink:href="#DejaVuSans-48"/>
       <use x="63.623047" xlink:href="#DejaVuSans-46"/>
       <use x="95.410156" xlink:href="#DejaVuSans-52"/>
       <use x="159.033203" xlink:href="#DejaVuSans-55"/>
       <use x="222.65625" xlink:href="#DejaVuSans-53"/>
      </g>
     </g>
    </g>
    <g id="ytick_3">
     <g id="line2d_9">
      <g>
       <use style="stroke:#000000;stroke-width:0.8;" x="56.50625" xlink:href="#m838d6647be" y="199.597446"/>
      </g>
     </g>
     <g id="text_10">
      <!-- 0.500 -->
      <g transform="translate(20.878125 203.396665)scale(0.1 -0.1)">
       <use xlink:href="#DejaVuSans-48"/>
       <use x="63.623047" xlink:href="#DejaVuSans-46"/>
       <use x="95.410156" xlink:href="#DejaVuSans-53"/>
       <use x="159.033203" xlink:href="#DejaVuSans-48"/>
       <use x="222.65625" xlink:href="#DejaVuSans-48"/>
      </g>
     </g>
    </g>
    <g id="ytick_4">
     <g id="line2d_10">
      <g>
       <use style="stroke:#000000;stroke-width:0.8;" x="56.50625" xlink:href="#m838d6647be" y="169.628422"/>
      </g>
     </g>
     <g id="text_11">
      <!-- 0.525 -->
      <g transform="translate(20.878125 173.42764)scale(0.1 -0.1)">
       <use xlink:href="#DejaVuSans-48"/>
       <use x="63.623047" xlink:href="#DejaVuSans-46"/>
       <use x="95.410156" xlink:href="#DejaVuSans-53"/>
       <use x="159.033203" xlink:href="#DejaVuSans-50"/>
       <use x="222.65625" xlink:href="#DejaVuSans-53"/>
      </g>
     </g>
    </g>
    <g id="ytick_5">
     <g id="line2d_11">
      <g>
       <use style="stroke:#000000;stroke-width:0.8;" x="56.50625" xlink:href="#m838d6647be" y="139.659398"/>
      </g>
     </g>
     <g id="text_12">
      <!-- 0.550 -->
      <g transform="translate(20.878125 143.458616)scale(0.1 -0.1)">
       <use xlink:href="#DejaVuSans-48"/>
       <use x="63.623047" xlink:href="#DejaVuSans-46"/>
       <use x="95.410156" xlink:href="#DejaVuSans-53"/>
       <use x="159.033203" xlink:href="#DejaVuSans-53"/>
       <use x="222.65625" xlink:href="#DejaVuSans-48"/>
      </g>
     </g>
    </g>
    <g id="ytick_6">
     <g id="line2d_12">
      <g>
       <use style="stroke:#000000;stroke-width:0.8;" x="56.50625" xlink:href="#m838d6647be" y="109.690373"/>
      </g>
     </g>
     <g id="text_13">
      <!-- 0.575 -->
      <g transform="translate(20.878125 113.489592)scale(0.1 -0.1)">
       <use xlink:href="#DejaVuSans-48"/>
       <use x="63.623047" xlink:href="#DejaVuSans-46"/>
       <use x="95.410156" xlink:href="#DejaVuSans-53"/>
       <use x="159.033203" xlink:href="#DejaVuSans-55"/>
       <use x="222.65625" xlink:href="#DejaVuSans-53"/>
      </g>
     </g>
    </g>
    <g id="ytick_7">
     <g id="line2d_13">
      <g>
       <use style="stroke:#000000;stroke-width:0.8;" x="56.50625" xlink:href="#m838d6647be" y="79.721349"/>
      </g>
     </g>
     <g id="text_14">
      <!-- 0.600 -->
      <g transform="translate(20.878125 83.520568)scale(0.1 -0.1)">
       <use xlink:href="#DejaVuSans-48"/>
       <use x="63.623047" xlink:href="#DejaVuSans-46"/>
       <use x="95.410156" xlink:href="#DejaVuSans-54"/>
       <use x="159.033203" xlink:href="#DejaVuSans-48"/>
       <use x="222.65625" xlink:href="#DejaVuSans-48"/>
      </g>
     </g>
    </g>
    <g id="ytick_8">
     <g id="line2d_14">
      <g>
       <use style="stroke:#000000;stroke-width:0.8;" x="56.50625" xlink:href="#m838d6647be" y="49.752325"/>
      </g>
     </g>
     <g id="text_15">
      <!-- 0.625 -->
      <g transform="translate(20.878125 53.551544)scale(0.1 -0.1)">
       <use xlink:href="#DejaVuSans-48"/>
       <use x="63.623047" xlink:href="#DejaVuSans-46"/>
       <use x="95.410156" xlink:href="#DejaVuSans-54"/>
       <use x="159.033203" xlink:href="#DejaVuSans-50"/>
       <use x="222.65625" xlink:href="#DejaVuSans-53"/>
      </g>
     </g>
    </g>
    <g id="ytick_9">
     <g id="line2d_15">
      <g>
       <use style="stroke:#000000;stroke-width:0.8;" x="56.50625" xlink:href="#m838d6647be" y="19.783301"/>
      </g>
     </g>
     <g id="text_16">
      <!-- 0.650 -->
      <g transform="translate(20.878125 23.58252)scale(0.1 -0.1)">
       <use xlink:href="#DejaVuSans-48"/>
       <use x="63.623047" xlink:href="#DejaVuSans-46"/>
       <use x="95.410156" xlink:href="#DejaVuSans-54"/>
       <use x="159.033203" xlink:href="#DejaVuSans-53"/>
       <use x="222.65625" xlink:href="#DejaVuSans-48"/>
      </g>
     </g>
    </g>
    <g id="text_17">
     <!-- performance -->
     <g transform="translate(14.798437 172.278656)rotate(-90)scale(0.1 -0.1)">
      <defs>
       <path d="M 18.109375 8.203125 
L 18.109375 -20.796875 
L 9.078125 -20.796875 
L 9.078125 54.6875 
L 18.109375 54.6875 
L 18.109375 46.390625 
Q 20.953125 51.265625 25.265625 53.625 
Q 29.59375 56 35.59375 56 
Q 45.5625 56 51.78125 48.09375 
Q 58.015625 40.1875 58.015625 27.296875 
Q 58.015625 14.40625 51.78125 6.484375 
Q 45.5625 -1.421875 35.59375 -1.421875 
Q 29.59375 -1.421875 25.265625 0.953125 
Q 20.953125 3.328125 18.109375 8.203125 
z
M 48.6875 27.296875 
Q 48.6875 37.203125 44.609375 42.84375 
Q 40.53125 48.484375 33.40625 48.484375 
Q 26.265625 48.484375 22.1875 42.84375 
Q 18.109375 37.203125 18.109375 27.296875 
Q 18.109375 17.390625 22.1875 11.75 
Q 26.265625 6.109375 33.40625 6.109375 
Q 40.53125 6.109375 44.609375 11.75 
Q 48.6875 17.390625 48.6875 27.296875 
z
" id="DejaVuSans-112"/>
       <path d="M 56.203125 29.59375 
L 56.203125 25.203125 
L 14.890625 25.203125 
Q 15.484375 15.921875 20.484375 11.0625 
Q 25.484375 6.203125 34.421875 6.203125 
Q 39.59375 6.203125 44.453125 7.46875 
Q 49.3125 8.734375 54.109375 11.28125 
L 54.109375 2.78125 
Q 49.265625 0.734375 44.1875 -0.34375 
Q 39.109375 -1.421875 33.890625 -1.421875 
Q 20.796875 -1.421875 13.15625 6.1875 
Q 5.515625 13.8125 5.515625 26.8125 
Q 5.515625 40.234375 12.765625 48.109375 
Q 20.015625 56 32.328125 56 
Q 43.359375 56 49.78125 48.890625 
Q 56.203125 41.796875 56.203125 29.59375 
z
M 47.21875 32.234375 
Q 47.125 39.59375 43.09375 43.984375 
Q 39.0625 48.390625 32.421875 48.390625 
Q 24.90625 48.390625 20.390625 44.140625 
Q 15.875 39.890625 15.1875 32.171875 
z
" id="DejaVuSans-101"/>
       <path d="M 41.109375 46.296875 
Q 39.59375 47.171875 37.8125 47.578125 
Q 36.03125 48 33.890625 48 
Q 26.265625 48 22.1875 43.046875 
Q 18.109375 38.09375 18.109375 28.8125 
L 18.109375 0 
L 9.078125 0 
L 9.078125 54.6875 
L 18.109375 54.6875 
L 18.109375 46.1875 
Q 20.953125 51.171875 25.484375 53.578125 
Q 30.03125 56 36.53125 56 
Q 37.453125 56 38.578125 55.875 
Q 39.703125 55.765625 41.0625 55.515625 
z
" id="DejaVuSans-114"/>
       <path d="M 52 44.1875 
Q 55.375 50.25 60.0625 53.125 
Q 64.75 56 71.09375 56 
Q 79.640625 56 84.28125 50.015625 
Q 88.921875 44.046875 88.921875 33.015625 
L 88.921875 0 
L 79.890625 0 
L 79.890625 32.71875 
Q 79.890625 40.578125 77.09375 44.375 
Q 74.3125 48.1875 68.609375 48.1875 
Q 61.625 48.1875 57.5625 43.546875 
Q 53.515625 38.921875 53.515625 30.90625 
L 53.515625 0 
L 44.484375 0 
L 44.484375 32.71875 
Q 44.484375 40.625 41.703125 44.40625 
Q 38.921875 48.1875 33.109375 48.1875 
Q 26.21875 48.1875 22.15625 43.53125 
Q 18.109375 38.875 18.109375 30.90625 
L 18.109375 0 
L 9.078125 0 
L 9.078125 54.6875 
L 18.109375 54.6875 
L 18.109375 46.1875 
Q 21.1875 51.21875 25.484375 53.609375 
Q 29.78125 56 35.6875 56 
Q 41.65625 56 45.828125 52.96875 
Q 50 49.953125 52 44.1875 
z
" id="DejaVuSans-109"/>
       <path d="M 34.28125 27.484375 
Q 23.390625 27.484375 19.1875 25 
Q 14.984375 22.515625 14.984375 16.5 
Q 14.984375 11.71875 18.140625 8.90625 
Q 21.296875 6.109375 26.703125 6.109375 
Q 34.1875 6.109375 38.703125 11.40625 
Q 43.21875 16.703125 43.21875 25.484375 
L 43.21875 27.484375 
z
M 52.203125 31.203125 
L 52.203125 0 
L 43.21875 0 
L 43.21875 8.296875 
Q 40.140625 3.328125 35.546875 0.953125 
Q 30.953125 -1.421875 24.3125 -1.421875 
Q 15.921875 -1.421875 10.953125 3.296875 
Q 6 8.015625 6 15.921875 
Q 6 25.140625 12.171875 29.828125 
Q 18.359375 34.515625 30.609375 34.515625 
L 43.21875 34.515625 
L 43.21875 35.40625 
Q 43.21875 41.609375 39.140625 45 
Q 35.0625 48.390625 27.6875 48.390625 
Q 23 48.390625 18.546875 47.265625 
Q 14.109375 46.140625 10.015625 43.890625 
L 10.015625 52.203125 
Q 14.9375 54.109375 19.578125 55.046875 
Q 24.21875 56 28.609375 56 
Q 40.484375 56 46.34375 49.84375 
Q 52.203125 43.703125 52.203125 31.203125 
z
" id="DejaVuSans-97"/>
       <path d="M 54.890625 33.015625 
L 54.890625 0 
L 45.90625 0 
L 45.90625 32.71875 
Q 45.90625 40.484375 42.875 44.328125 
Q 39.84375 48.1875 33.796875 48.1875 
Q 26.515625 48.1875 22.3125 43.546875 
Q 18.109375 38.921875 18.109375 30.90625 
L 18.109375 0 
L 9.078125 0 
L 9.078125 54.6875 
L 18.109375 54.6875 
L 18.109375 46.1875 
Q 21.34375 51.125 25.703125 53.5625 
Q 30.078125 56 35.796875 56 
Q 45.21875 56 50.046875 50.171875 
Q 54.890625 44.34375 54.890625 33.015625 
z
" id="DejaVuSans-110"/>
      </defs>
      <use xlink:href="#DejaVuSans-112"/>
      <use x="63.476562" xlink:href="#DejaVuSans-101"/>
      <use x="125" xlink:href="#DejaVuSans-114"/>
      <use x="166.113281" xlink:href="#DejaVuSans-102"/>
      <use x="201.318359" xlink:href="#DejaVuSans-111"/>
      <use x="262.5" xlink:href="#DejaVuSans-114"/>
      <use x="301.863281" xlink:href="#DejaVuSans-109"/>
      <use x="399.275391" xlink:href="#DejaVuSans-97"/>
      <use x="460.554688" xlink:href="#DejaVuSans-110"/>
      <use x="523.933594" xlink:href="#DejaVuSans-99"/>
      <use x="578.914062" xlink:href="#DejaVuSans-101"/>
     </g>
    </g>
   </g>
   <g id="line2d_16">
    <path clip-path="url(#p3ae0272fa6)" d="M 72.738977 19.296 
L 79.502614 32.556984 
L 86.26625 32.556984 
L 93.029886 32.556984 
L 99.793523 32.556984 
L 106.557159 32.556984 
L 113.320795 32.556984 
L 120.084432 32.556984 
L 126.848068 32.556984 
L 133.611705 116.924276 
L 140.375341 116.924276 
L 147.138977 131.841391 
L 153.902614 131.841391 
L 160.66625 131.841391 
L 167.429886 178.191 
L 174.193523 178.191 
L 180.957159 178.191 
L 187.720795 178.191 
L 194.484432 178.191 
L 201.248068 178.191 
L 208.011705 178.191 
L 214.775341 178.191 
L 221.538977 178.191 
L 228.302614 178.191 
L 235.06625 178.191 
L 241.829886 194.197622 
L 248.593523 194.197622 
L 255.357159 194.197622 
L 262.120795 194.197622 
L 268.884432 194.197622 
L 275.648068 194.197622 
L 282.411705 194.197622 
L 289.175341 194.197622 
L 295.938977 194.197622 
L 302.702614 194.197622 
L 309.46625 194.197622 
L 316.229886 194.197622 
L 322.993523 194.197622 
L 329.757159 194.197622 
L 336.520795 194.197622 
L 343.284432 194.197622 
L 350.048068 194.197622 
L 356.811705 194.197622 
L 363.575341 194.197622 
L 370.338977 194.197622 
L 377.102614 194.197622 
L 383.86625 194.197622 
L 390.629886 194.197622 
L 397.393523 194.197622 
" style="fill:none;stroke:#f26b38;stroke-dasharray:7.4,3.2;stroke-dashoffset:0;stroke-width:2;"/>
   </g>
   <g id="line2d_17">
    <path clip-path="url(#p3ae0272fa6)" d="M 72.738977 32.556984 
L 79.502614 131.841391 
L 86.26625 131.841391 
L 93.029886 178.191 
L 99.793523 194.197622 
L 106.557159 243.996 
L 113.320795 243.996 
L 120.084432 243.996 
L 126.848068 243.996 
L 133.611705 243.996 
L 140.375341 243.996 
L 147.138977 243.996 
L 153.902614 243.996 
L 160.66625 243.996 
L 167.429886 243.996 
L 174.193523 243.996 
L 180.957159 261.216 
L 187.720795 261.216 
L 194.484432 261.216 
L 201.248068 261.216 
L 208.011705 261.216 
L 214.775341 261.216 
L 221.538977 261.216 
L 228.302614 261.216 
L 235.06625 261.216 
L 241.829886 261.216 
L 248.593523 261.216 
L 255.357159 261.216 
L 262.120795 261.216 
L 268.884432 261.216 
L 275.648068 261.216 
L 282.411705 261.216 
L 289.175341 261.216 
L 295.938977 261.216 
L 302.702614 261.216 
L 309.46625 261.216 
L 316.229886 261.216 
L 322.993523 261.216 
L 329.757159 261.216 
L 336.520795 261.216 
L 343.284432 261.216 
L 350.048068 261.216 
L 356.811705 261.216 
L 363.575341 261.216 
L 370.338977 261.216 
L 377.102614 261.216 
L 383.86625 261.216 
L 390.629886 261.216 
L 397.393523 261.216 
" style="fill:none;stroke:#2f9599;stroke-dasharray:2,3.3;stroke-dashoffset:0;stroke-width:2;"/>
   </g>
   <g id="line2d_18">
    <path clip-path="url(#p3ae0272fa6)" d="M 72.738977 46.037157 
L 79.502614 46.037157 
L 86.26625 46.037157 
L 93.029886 46.037157 
L 99.793523 46.037157 
L 106.557159 46.037157 
L 113.320795 46.037157 
L 120.084432 59.742 
L 126.848068 46.037157 
L 133.611705 46.037157 
L 140.375341 46.037157 
L 147.138977 46.037157 
L 153.902614 46.037157 
L 160.66625 46.037157 
L 167.429886 46.037157 
L 174.193523 46.037157 
L 180.957159 32.556984 
L 187.720795 32.556984 
L 194.484432 32.556984 
L 201.248068 19.296 
L 208.011705 19.296 
L 214.775341 116.924276 
L 221.538977 116.924276 
L 228.302614 131.841391 
L 235.06625 131.841391 
L 241.829886 131.841391 
L 248.593523 178.191 
L 255.357159 178.191 
L 262.120795 178.191 
L 268.884432 178.191 
L 275.648068 178.191 
L 282.411705 178.191 
L 289.175341 178.191 
L 295.938977 178.191 
L 302.702614 178.191 
L 309.46625 178.191 
L 316.229886 178.191 
L 322.993523 178.191 
L 329.757159 178.191 
L 336.520795 178.191 
L 343.284432 178.191 
L 350.048068 178.191 
L 356.811705 178.191 
L 363.575341 178.191 
L 370.338977 178.191 
L 377.102614 178.191 
L 383.86625 178.191 
L 390.629886 178.191 
L 397.393523 178.191 
" style="fill:none;stroke:#a7226e;stroke-dasharray:12.8,3.2,2,3.2;stroke-dashoffset:0;stroke-width:2;"/>
   </g>
   <g id="patch_3">
    <path d="M 56.50625 273.312 
L 56.50625 7.2 
" style="fill:none;stroke:#000000;stroke-linecap:square;stroke-linejoin:miter;stroke-width:0.8;"/>
   </g>
   <g id="patch_4">
    <path d="M 413.62625 273.312 
L 413.62625 7.2 
" style="fill:none;stroke:#000000;stroke-linecap:square;stroke-linejoin:miter;stroke-width:0.8;"/>
   </g>
   <g id="patch_5">
    <path d="M 56.50625 273.312 
L 413.62625 273.312 
" style="fill:none;stroke:#000000;stroke-linecap:square;stroke-linejoin:miter;stroke-width:0.8;"/>
   </g>
   <g id="patch_6">
    <path d="M 56.50625 7.2 
L 413.62625 7.2 
" style="fill:none;stroke:#000000;stroke-linecap:square;stroke-linejoin:miter;stroke-width:0.8;"/>
   </g>
   <g id="legend_1">
    <g id="patch_7">
     <path d="M 328.152559 43.890912 
L 408.76825 43.890912 
Q 410.15625 43.890912 410.15625 42.502912 
L 410.15625 12.058 
Q 410.15625 10.67 408.76825 10.67 
L 328.152559 10.67 
Q 326.764559 10.67 326.764559 12.058 
L 326.764559 42.502912 
Q 326.764559 43.890912 328.152559 43.890912 
z
" style="fill:#ffffff;opacity:0.8;stroke:#cccccc;stroke-linejoin:miter;"/>
    </g>
    <g id="PathCollection_5">
     <defs>
      <path d="M 0 3 
C 0.795609 3 1.55874 2.683901 2.12132 2.12132 
C 2.683901 1.55874 3 0.795609 3 0 
C 3 -0.795609 2.683901 -1.55874 2.12132 -2.12132 
C 1.55874 -2.683901 0.795609 -3 0 -3 
C -0.795609 -3 -1.55874 -2.683901 -2.12132 -2.12132 
C -2.683901 -1.55874 -3 -0.795609 -3 0 
C -3 0.795609 -2.683901 1.55874 -2.12132 2.12132 
C -1.55874 2.683901 -0.795609 3 0 3 
z
" id="m2fd3392ff3" style="stroke:#f26b38;"/>
     </defs>
     <g>
      <use style="fill:#f26b38;stroke:#f26b38;" x="336.480559" xlink:href="#m2fd3392ff3" y="16.897566"/>
     </g>
    </g>
    <g id="text_18">
     <!-- mean_err -->
     <g transform="translate(348.972559 18.719316)scale(0.0694 -0.0694)">
      <defs>
       <path d="M 50.984375 -16.609375 
L 50.984375 -23.578125 
L -0.984375 -23.578125 
L -0.984375 -16.609375 
z
" id="DejaVuSans-95"/>
      </defs>
      <use xlink:href="#DejaVuSans-109"/>
      <use x="97.412109" xlink:href="#DejaVuSans-101"/>
      <use x="158.935547" xlink:href="#DejaVuSans-97"/>
      <use x="220.214844" xlink:href="#DejaVuSans-110"/>
      <use x="283.59375" xlink:href="#DejaVuSans-95"/>
      <use x="333.59375" xlink:href="#DejaVuSans-101"/>
      <use x="395.117188" xlink:href="#DejaVuSans-114"/>
      <use x="434.480469" xlink:href="#DejaVuSans-114"/>
     </g>
    </g>
    <g id="PathCollection_6">
     <defs>
      <path d="M -1.5 3 
L 0 1.5 
L 1.5 3 
L 3 1.5 
L 1.5 0 
L 3 -1.5 
L 1.5 -3 
L 0 -1.5 
L -1.5 -3 
L -3 -1.5 
L -1.5 0 
L -3 1.5 
z
" id="m199e2619ca" style="stroke:#2f9599;"/>
     </defs>
     <g>
      <use style="fill:#2f9599;stroke:#2f9599;" x="336.480559" xlink:href="#m199e2619ca" y="27.277203"/>
     </g>
    </g>
    <g id="text_19">
     <!-- mean_sq_err -->
     <g transform="translate(348.972559 29.098953)scale(0.0694 -0.0694)">
      <defs>
       <path d="M 44.28125 53.078125 
L 44.28125 44.578125 
Q 40.484375 46.53125 36.375 47.5 
Q 32.28125 48.484375 27.875 48.484375 
Q 21.1875 48.484375 17.84375 46.4375 
Q 14.5 44.390625 14.5 40.28125 
Q 14.5 37.15625 16.890625 35.375 
Q 19.28125 33.59375 26.515625 31.984375 
L 29.59375 31.296875 
Q 39.15625 29.25 43.1875 25.515625 
Q 47.21875 21.78125 47.21875 15.09375 
Q 47.21875 7.46875 41.1875 3.015625 
Q 35.15625 -1.421875 24.609375 -1.421875 
Q 20.21875 -1.421875 15.453125 -0.5625 
Q 10.6875 0.296875 5.421875 2 
L 5.421875 11.28125 
Q 10.40625 8.6875 15.234375 7.390625 
Q 20.0625 6.109375 24.8125 6.109375 
Q 31.15625 6.109375 34.5625 8.28125 
Q 37.984375 10.453125 37.984375 14.40625 
Q 37.984375 18.0625 35.515625 20.015625 
Q 33.0625 21.96875 24.703125 23.78125 
L 21.578125 24.515625 
Q 13.234375 26.265625 9.515625 29.90625 
Q 5.8125 33.546875 5.8125 39.890625 
Q 5.8125 47.609375 11.28125 51.796875 
Q 16.75 56 26.8125 56 
Q 31.78125 56 36.171875 55.265625 
Q 40.578125 54.546875 44.28125 53.078125 
z
" id="DejaVuSans-115"/>
       <path d="M 14.796875 27.296875 
Q 14.796875 17.390625 18.875 11.75 
Q 22.953125 6.109375 30.078125 6.109375 
Q 37.203125 6.109375 41.296875 11.75 
Q 45.40625 17.390625 45.40625 27.296875 
Q 45.40625 37.203125 41.296875 42.84375 
Q 37.203125 48.484375 30.078125 48.484375 
Q 22.953125 48.484375 18.875 42.84375 
Q 14.796875 37.203125 14.796875 27.296875 
z
M 45.40625 8.203125 
Q 42.578125 3.328125 38.25 0.953125 
Q 33.9375 -1.421875 27.875 -1.421875 
Q 17.96875 -1.421875 11.734375 6.484375 
Q 5.515625 14.40625 5.515625 27.296875 
Q 5.515625 40.1875 11.734375 48.09375 
Q 17.96875 56 27.875 56 
Q 33.9375 56 38.25 53.625 
Q 42.578125 51.265625 45.40625 46.390625 
L 45.40625 54.6875 
L 54.390625 54.6875 
L 54.390625 -20.796875 
L 45.40625 -20.796875 
z
" id="DejaVuSans-113"/>
      </defs>
      <use xlink:href="#DejaVuSans-109"/>
      <use x="97.412109" xlink:href="#DejaVuSans-101"/>
      <use x="158.935547" xlink:href="#DejaVuSans-97"/>
      <use x="220.214844" xlink:href="#DejaVuSans-110"/>
      <use x="283.59375" xlink:href="#DejaVuSans-95"/>
      <use x="333.59375" xlink:href="#DejaVuSans-115"/>
      <use x="385.693359" xlink:href="#DejaVuSans-113"/>
      <use x="449.169922" xlink:href="#DejaVuSans-95"/>
      <use x="499.169922" xlink:href="#DejaVuSans-101"/>
      <use x="560.693359" xlink:href="#DejaVuSans-114"/>
      <use x="600.056641" xlink:href="#DejaVuSans-114"/>
     </g>
    </g>
    <g id="PathCollection_7">
     <defs>
      <path d="M -2.12132 -2.12132 
L -2.12132 2.12132 
L 2.12132 2.12132 
L 2.12132 -2.12132 
z
" id="m89ca4a72f5" style="stroke:#a7226e;"/>
     </defs>
     <g>
      <use style="fill:#a7226e;stroke:#a7226e;" x="336.480559" xlink:href="#m89ca4a72f5" y="37.656841"/>
     </g>
    </g>
    <g id="text_20">
     <!-- mean_sqroot_err -->
     <g transform="translate(348.972559 39.478591)scale(0.0694 -0.0694)">
      <use xlink:href="#DejaVuSans-109"/>
      <use x="97.412109" xlink:href="#DejaVuSans-101"/>
      <use x="158.935547" xlink:href="#DejaVuSans-97"/>
      <use x="220.214844" xlink:href="#DejaVuSans-110"/>
      <use x="283.59375" xlink:href="#DejaVuSans-95"/>
      <use x="333.59375" xlink:href="#DejaVuSans-115"/>
      <use x="385.693359" xlink:href="#DejaVuSans-113"/>
      <use x="449.169922" xlink:href="#DejaVuSans-114"/>
      <use x="488.033203" xlink:href="#DejaVuSans-111"/>
      <use x="549.214844" xlink:href="#DejaVuSans-111"/>
      <use x="610.396484" xlink:href="#DejaVuSans-116"/>
      <use x="649.605469" xlink:href="#DejaVuSans-95"/>
      <use x="699.605469" xlink:href="#DejaVuSans-101"/>
      <use x="761.128906" xlink:href="#DejaVuSans-114"/>
      <use x="800.492188" xlink:href="#DejaVuSans-114"/>
     </g>
    </g>
   </g>
  </g>
 </g>
 <defs>
  <clipPath id="p3ae0272fa6">
   <rect height="266.112" width="357.12" x="56.50625" y="7.2"/>
  </clipPath>
 </defs>
</svg>
