<?xml version="1.0" encoding="utf-8" standalone="no"?>
<!DOCTYPE svg PUBLIC "-//W3C//DTD SVG 1.1//EN"
  "http://www.w3.org/Graphics/SVG/1.1/DTD/svg11.dtd">
<!-- Created with matplotlib (https://matplotlib.org/) -->
<svg height="313.447411pt" version="1.1" viewBox="0 0 414.46375 313.447411" width="414.46375pt" xmlns="http://www.w3.org/2000/svg" xmlns:xlink="http://www.w3.org/1999/xlink">
 <metadata>
  <rdf:RDF xmlns:cc="http://creativecommons.org/ns#" xmlns:dc="http://purl.org/dc/elements/1.1/" xmlns:rdf="http://www.w3.org/1999/02/22-rdf-syntax-ns#">
   <cc:Work>
    <dc:type rdf:resource="http://purl.org/dc/dcmitype/StillImage"/>
    <dc:date>2022-05-27T21:47:15.880731</dc:date>
    <dc:format>image/svg+xml</dc:format>
    <dc:creator>
     <cc:Agent>
      <dc:title>Matplotlib v3.3.4, https://matplotlib.org/</dc:title>
     </cc:Agent>
    </dc:creator>
   </cc:Work>
  </rdf:RDF>
 </metadata>
 <defs>
  <style type="text/css">*{stroke-linecap:butt;stroke-linejoin:round;}</style>
 </defs>
 <g id="figure_1">
  <g id="patch_1">
   <path d="M 0 313.447411 
L 414.46375 313.447411 
L 414.46375 0 
L 0 0 
z
" style="fill:#ffffff;"/>
  </g>
  <g id="axes_1">
   <g id="patch_2">
    <path d="M 50.14375 275.891161 
L 407.26375 275.891161 
L 407.26375 9.779161 
L 50.14375 9.779161 
z
" style="fill:#ffffff;"/>
   </g>
   <g id="PathCollection_1">
    <path clip-path="url(#p82ee61fae6)" d="M 66.376477 78.906285 
C 67.172087 78.906285 67.935217 78.590186 68.497798 78.027605 
C 69.060378 77.465025 69.376477 76.701894 69.376477 75.906285 
C 69.376477 75.110676 69.060378 74.347545 68.497798 73.784965 
C 67.935217 73.222384 67.172087 72.906285 66.376477 72.906285 
C 65.580868 72.906285 64.817738 73.222384 64.255157 73.784965 
C 63.692576 74.347545 63.376477 75.110676 63.376477 75.906285 
C 63.376477 76.701894 63.692576 77.465025 64.255157 78.027605 
C 64.817738 78.590186 65.580868 78.906285 66.376477 78.906285 
z
" style="fill:#f26b38;stroke:#ffffff;stroke-width:0.48;"/>
    <path clip-path="url(#p82ee61fae6)" d="M 73.140114 61.825478 
C 73.935723 61.825478 74.698853 61.509379 75.261434 60.946798 
C 75.824015 60.384218 76.140114 59.621087 76.140114 58.825478 
C 76.140114 58.029869 75.824015 57.266739 75.261434 56.704158 
C 74.698853 56.141577 73.935723 55.825478 73.140114 55.825478 
C 72.344504 55.825478 71.581374 56.141577 71.018793 56.704158 
C 70.456213 57.266739 70.140114 58.029869 70.140114 58.825478 
C 70.140114 59.621087 70.456213 60.384218 71.018793 60.946798 
C 71.581374 61.509379 72.344504 61.825478 73.140114 61.825478 
z
" style="fill:#f26b38;stroke:#ffffff;stroke-width:0.48;"/>
    <path clip-path="url(#p82ee61fae6)" d="M 79.90375 27.663864 
C 80.699359 27.663864 81.46249 27.347765 82.02507 26.785185 
C 82.587651 26.222604 82.90375 25.459474 82.90375 24.663864 
C 82.90375 23.868255 82.587651 23.105125 82.02507 22.542544 
C 81.46249 21.979963 80.699359 21.663864 79.90375 21.663864 
C 79.108141 21.663864 78.34501 21.979963 77.78243 22.542544 
C 77.219849 23.105125 76.90375 23.868255 76.90375 24.663864 
C 76.90375 25.459474 77.219849 26.222604 77.78243 26.785185 
C 78.34501 27.347765 79.108141 27.663864 79.90375 27.663864 
z
" style="fill:#f26b38;stroke:#ffffff;stroke-width:0.48;"/>
    <path clip-path="url(#p82ee61fae6)" d="M 86.667386 27.663864 
C 87.462996 27.663864 88.226126 27.347765 88.788707 26.785185 
C 89.351287 26.222604 89.667386 25.459474 89.667386 24.663864 
C 89.667386 23.868255 89.351287 23.105125 88.788707 22.542544 
C 88.226126 21.979963 87.462996 21.663864 86.667386 21.663864 
C 85.871777 21.663864 85.108647 21.979963 84.546066 22.542544 
C 83.983485 23.105125 83.667386 23.868255 83.667386 24.663864 
C 83.667386 25.459474 83.983485 26.222604 84.546066 26.785185 
C 85.108647 27.347765 85.871777 27.663864 86.667386 27.663864 
z
" style="fill:#f26b38;stroke:#ffffff;stroke-width:0.48;"/>
    <path clip-path="url(#p82ee61fae6)" d="M 93.431023 27.663864 
C 94.226632 27.663864 94.989762 27.347765 95.552343 26.785185 
C 96.114924 26.222604 96.431023 25.459474 96.431023 24.663864 
C 96.431023 23.868255 96.114924 23.105125 95.552343 22.542544 
C 94.989762 21.979963 94.226632 21.663864 93.431023 21.663864 
C 92.635413 21.663864 91.872283 21.979963 91.309702 22.542544 
C 90.747122 23.105125 90.431023 23.868255 90.431023 24.663864 
C 90.431023 25.459474 90.747122 26.222604 91.309702 26.785185 
C 91.872283 27.347765 92.635413 27.663864 93.431023 27.663864 
z
" style="fill:#f26b38;stroke:#ffffff;stroke-width:0.48;"/>
    <path clip-path="url(#p82ee61fae6)" d="M 100.194659 61.825478 
C 100.990268 61.825478 101.753399 61.509379 102.315979 60.946798 
C 102.87856 60.384218 103.194659 59.621087 103.194659 58.825478 
C 103.194659 58.029869 102.87856 57.266739 102.315979 56.704158 
C 101.753399 56.141577 100.990268 55.825478 100.194659 55.825478 
C 99.39905 55.825478 98.635919 56.141577 98.073339 56.704158 
C 97.510758 57.266739 97.194659 58.029869 97.194659 58.825478 
C 97.194659 59.621087 97.510758 60.384218 98.073339 60.946798 
C 98.635919 61.509379 99.39905 61.825478 100.194659 61.825478 
z
" style="fill:#f26b38;stroke:#ffffff;stroke-width:0.48;"/>
    <path clip-path="url(#p82ee61fae6)" d="M 106.958295 61.825478 
C 107.753905 61.825478 108.517035 61.509379 109.079616 60.946798 
C 109.642197 60.384218 109.958295 59.621087 109.958295 58.825478 
C 109.958295 58.029869 109.642197 57.266739 109.079616 56.704158 
C 108.517035 56.141577 107.753905 55.825478 106.958295 55.825478 
C 106.162686 55.825478 105.399556 56.141577 104.836975 56.704158 
C 104.274394 57.266739 103.958295 58.029869 103.958295 58.825478 
C 103.958295 59.621087 104.274394 60.384218 104.836975 60.946798 
C 105.399556 61.509379 106.162686 61.825478 106.958295 61.825478 
z
" style="fill:#f26b38;stroke:#ffffff;stroke-width:0.48;"/>
    <path clip-path="url(#p82ee61fae6)" d="M 113.721932 61.825478 
C 114.517541 61.825478 115.280671 61.509379 115.843252 60.946798 
C 116.405833 60.384218 116.721932 59.621087 116.721932 58.825478 
C 116.721932 58.029869 116.405833 57.266739 115.843252 56.704158 
C 115.280671 56.141577 114.517541 55.825478 113.721932 55.825478 
C 112.926323 55.825478 112.163192 56.141577 111.600611 56.704158 
C 111.038031 57.266739 110.721932 58.029869 110.721932 58.825478 
C 110.721932 59.621087 111.038031 60.384218 111.600611 60.946798 
C 112.163192 61.509379 112.926323 61.825478 113.721932 61.825478 
z
" style="fill:#f26b38;stroke:#ffffff;stroke-width:0.48;"/>
    <path clip-path="url(#p82ee61fae6)" d="M 120.485568 61.825478 
C 121.281177 61.825478 122.044308 61.509379 122.606889 60.946798 
C 123.169469 60.384218 123.485568 59.621087 123.485568 58.825478 
C 123.485568 58.029869 123.169469 57.266739 122.606889 56.704158 
C 122.044308 56.141577 121.281177 55.825478 120.485568 55.825478 
C 119.689959 55.825478 118.926829 56.141577 118.364248 56.704158 
C 117.801667 57.266739 117.485568 58.029869 117.485568 58.825478 
C 117.485568 59.621087 117.801667 60.384218 118.364248 60.946798 
C 118.926829 61.509379 119.689959 61.825478 120.485568 61.825478 
z
" style="fill:#f26b38;stroke:#ffffff;stroke-width:0.48;"/>
    <path clip-path="url(#p82ee61fae6)" d="M 127.249205 113.067899 
C 128.044814 113.067899 128.807944 112.7518 129.370525 112.189219 
C 129.933106 111.626638 130.249205 110.863508 130.249205 110.067899 
C 130.249205 109.27229 129.933106 108.509159 129.370525 107.946579 
C 128.807944 107.383998 128.044814 107.067899 127.249205 107.067899 
C 126.453595 107.067899 125.690465 107.383998 125.127884 107.946579 
C 124.565303 108.509159 124.249205 109.27229 124.249205 110.067899 
C 124.249205 110.863508 124.565303 111.626638 125.127884 112.189219 
C 125.690465 112.7518 126.453595 113.067899 127.249205 113.067899 
z
" style="fill:#f26b38;stroke:#ffffff;stroke-width:0.48;"/>
    <path clip-path="url(#p82ee61fae6)" d="M 134.012841 130.148706 
C 134.80845 130.148706 135.571581 129.832607 136.134161 129.270026 
C 136.696742 128.707445 137.012841 127.944315 137.012841 127.148706 
C 137.012841 126.353096 136.696742 125.589966 136.134161 125.027385 
C 135.571581 124.464805 134.80845 124.148706 134.012841 124.148706 
C 133.217232 124.148706 132.454101 124.464805 131.891521 125.027385 
C 131.32894 125.589966 131.012841 126.353096 131.012841 127.148706 
C 131.012841 127.944315 131.32894 128.707445 131.891521 129.270026 
C 132.454101 129.832607 133.217232 130.148706 134.012841 130.148706 
z
" style="fill:#f26b38;stroke:#ffffff;stroke-width:0.48;"/>
    <path clip-path="url(#p82ee61fae6)" d="M 140.776477 181.391127 
C 141.572087 181.391127 142.335217 181.075028 142.897798 180.512447 
C 143.460378 179.949866 143.776477 179.186736 143.776477 178.391127 
C 143.776477 177.595517 143.460378 176.832387 142.897798 176.269806 
C 142.335217 175.707225 141.572087 175.391127 140.776477 175.391127 
C 139.980868 175.391127 139.217738 175.707225 138.655157 176.269806 
C 138.092576 176.832387 137.776477 177.595517 137.776477 178.391127 
C 137.776477 179.186736 138.092576 179.949866 138.655157 180.512447 
C 139.217738 181.075028 139.980868 181.391127 140.776477 181.391127 
z
" style="fill:#f26b38;stroke:#ffffff;stroke-width:0.48;"/>
    <path clip-path="url(#p82ee61fae6)" d="M 147.540114 232.633547 
C 148.335723 232.633547 149.098853 232.317448 149.661434 231.754868 
C 150.224015 231.192287 150.540114 230.429157 150.540114 229.633547 
C 150.540114 228.837938 150.224015 228.074808 149.661434 227.512227 
C 149.098853 226.949646 148.335723 226.633547 147.540114 226.633547 
C 146.744504 226.633547 145.981374 226.949646 145.418793 227.512227 
C 144.856213 228.074808 144.540114 228.837938 144.540114 229.633547 
C 144.540114 230.429157 144.856213 231.192287 145.418793 231.754868 
C 145.981374 232.317448 146.744504 232.633547 147.540114 232.633547 
z
" style="fill:#f26b38;stroke:#ffffff;stroke-width:0.48;"/>
    <path clip-path="url(#p82ee61fae6)" d="M 154.30375 232.633547 
C 155.099359 232.633547 155.86249 232.317448 156.42507 231.754868 
C 156.987651 231.192287 157.30375 230.429157 157.30375 229.633547 
C 157.30375 228.837938 156.987651 228.074808 156.42507 227.512227 
C 155.86249 226.949646 155.099359 226.633547 154.30375 226.633547 
C 153.508141 226.633547 152.74501 226.949646 152.18243 227.512227 
C 151.619849 228.074808 151.30375 228.837938 151.30375 229.633547 
C 151.30375 230.429157 151.619849 231.192287 152.18243 231.754868 
C 152.74501 232.317448 153.508141 232.633547 154.30375 232.633547 
z
" style="fill:#f26b38;stroke:#ffffff;stroke-width:0.48;"/>
    <path clip-path="url(#p82ee61fae6)" d="M 161.067386 130.148706 
C 161.862996 130.148706 162.626126 129.832607 163.188707 129.270026 
C 163.751287 128.707445 164.067386 127.944315 164.067386 127.148706 
C 164.067386 126.353096 163.751287 125.589966 163.188707 125.027385 
C 162.626126 124.464805 161.862996 124.148706 161.067386 124.148706 
C 160.271777 124.148706 159.508647 124.464805 158.946066 125.027385 
C 158.383485 125.589966 158.067386 126.353096 158.067386 127.148706 
C 158.067386 127.944315 158.383485 128.707445 158.946066 129.270026 
C 159.508647 129.832607 160.271777 130.148706 161.067386 130.148706 
z
" style="fill:#f26b38;stroke:#ffffff;stroke-width:0.48;"/>
    <path clip-path="url(#p82ee61fae6)" d="M 167.831023 130.148706 
C 168.626632 130.148706 169.389762 129.832607 169.952343 129.270026 
C 170.514924 128.707445 170.831023 127.944315 170.831023 127.148706 
C 170.831023 126.353096 170.514924 125.589966 169.952343 125.027385 
C 169.389762 124.464805 168.626632 124.148706 167.831023 124.148706 
C 167.035413 124.148706 166.272283 124.464805 165.709702 125.027385 
C 165.147122 125.589966 164.831023 126.353096 164.831023 127.148706 
C 164.831023 127.944315 165.147122 128.707445 165.709702 129.270026 
C 166.272283 129.832607 167.035413 130.148706 167.831023 130.148706 
z
" style="fill:#f26b38;stroke:#ffffff;stroke-width:0.48;"/>
    <path clip-path="url(#p82ee61fae6)" d="M 174.594659 130.148706 
C 175.390268 130.148706 176.153399 129.832607 176.715979 129.270026 
C 177.27856 128.707445 177.594659 127.944315 177.594659 127.148706 
C 177.594659 126.353096 177.27856 125.589966 176.715979 125.027385 
C 176.153399 124.464805 175.390268 124.148706 174.594659 124.148706 
C 173.79905 124.148706 173.035919 124.464805 172.473339 125.027385 
C 171.910758 125.589966 171.594659 126.353096 171.594659 127.148706 
C 171.594659 127.944315 171.910758 128.707445 172.473339 129.270026 
C 173.035919 129.832607 173.79905 130.148706 174.594659 130.148706 
z
" style="fill:#f26b38;stroke:#ffffff;stroke-width:0.48;"/>
    <path clip-path="url(#p82ee61fae6)" d="M 181.358295 130.148706 
C 182.153905 130.148706 182.917035 129.832607 183.479616 129.270026 
C 184.042197 128.707445 184.358295 127.944315 184.358295 127.148706 
C 184.358295 126.353096 184.042197 125.589966 183.479616 125.027385 
C 182.917035 124.464805 182.153905 124.148706 181.358295 124.148706 
C 180.562686 124.148706 179.799556 124.464805 179.236975 125.027385 
C 178.674394 125.589966 178.358295 126.353096 178.358295 127.148706 
C 178.358295 127.944315 178.674394 128.707445 179.236975 129.270026 
C 179.799556 129.832607 180.562686 130.148706 181.358295 130.148706 
z
" style="fill:#f26b38;stroke:#ffffff;stroke-width:0.48;"/>
    <path clip-path="url(#p82ee61fae6)" d="M 188.121932 130.148706 
C 188.917541 130.148706 189.680671 129.832607 190.243252 129.270026 
C 190.805833 128.707445 191.121932 127.944315 191.121932 127.148706 
C 191.121932 126.353096 190.805833 125.589966 190.243252 125.027385 
C 189.680671 124.464805 188.917541 124.148706 188.121932 124.148706 
C 187.326323 124.148706 186.563192 124.464805 186.000611 125.027385 
C 185.438031 125.589966 185.121932 126.353096 185.121932 127.148706 
C 185.121932 127.944315 185.438031 128.707445 186.000611 129.270026 
C 186.563192 129.832607 187.326323 130.148706 188.121932 130.148706 
z
" style="fill:#f26b38;stroke:#ffffff;stroke-width:0.48;"/>
    <path clip-path="url(#p82ee61fae6)" d="M 194.885568 130.148706 
C 195.681177 130.148706 196.444308 129.832607 197.006889 129.270026 
C 197.569469 128.707445 197.885568 127.944315 197.885568 127.148706 
C 197.885568 126.353096 197.569469 125.589966 197.006889 125.027385 
C 196.444308 124.464805 195.681177 124.148706 194.885568 124.148706 
C 194.089959 124.148706 193.326829 124.464805 192.764248 125.027385 
C 192.201667 125.589966 191.885568 126.353096 191.885568 127.148706 
C 191.885568 127.944315 192.201667 128.707445 192.764248 129.270026 
C 193.326829 129.832607 194.089959 130.148706 194.885568 130.148706 
z
" style="fill:#f26b38;stroke:#ffffff;stroke-width:0.48;"/>
    <path clip-path="url(#p82ee61fae6)" d="M 201.649205 130.148706 
C 202.444814 130.148706 203.207944 129.832607 203.770525 129.270026 
C 204.333106 128.707445 204.649205 127.944315 204.649205 127.148706 
C 204.649205 126.353096 204.333106 125.589966 203.770525 125.027385 
C 203.207944 124.464805 202.444814 124.148706 201.649205 124.148706 
C 200.853595 124.148706 200.090465 124.464805 199.527884 125.027385 
C 198.965303 125.589966 198.649205 126.353096 198.649205 127.148706 
C 198.649205 127.944315 198.965303 128.707445 199.527884 129.270026 
C 200.090465 129.832607 200.853595 130.148706 201.649205 130.148706 
z
" style="fill:#f26b38;stroke:#ffffff;stroke-width:0.48;"/>
    <path clip-path="url(#p82ee61fae6)" d="M 208.412841 130.148706 
C 209.20845 130.148706 209.971581 129.832607 210.534161 129.270026 
C 211.096742 128.707445 211.412841 127.944315 211.412841 127.148706 
C 211.412841 126.353096 211.096742 125.589966 210.534161 125.027385 
C 209.971581 124.464805 209.20845 124.148706 208.412841 124.148706 
C 207.617232 124.148706 206.854101 124.464805 206.291521 125.027385 
C 205.72894 125.589966 205.412841 126.353096 205.412841 127.148706 
C 205.412841 127.944315 205.72894 128.707445 206.291521 129.270026 
C 206.854101 129.832607 207.617232 130.148706 208.412841 130.148706 
z
" style="fill:#f26b38;stroke:#ffffff;stroke-width:0.48;"/>
    <path clip-path="url(#p82ee61fae6)" d="M 215.176477 130.148706 
C 215.972087 130.148706 216.735217 129.832607 217.297798 129.270026 
C 217.860378 128.707445 218.176477 127.944315 218.176477 127.148706 
C 218.176477 126.353096 217.860378 125.589966 217.297798 125.027385 
C 216.735217 124.464805 215.972087 124.148706 215.176477 124.148706 
C 214.380868 124.148706 213.617738 124.464805 213.055157 125.027385 
C 212.492576 125.589966 212.176477 126.353096 212.176477 127.148706 
C 212.176477 127.944315 212.492576 128.707445 213.055157 129.270026 
C 213.617738 129.832607 214.380868 130.148706 215.176477 130.148706 
z
" style="fill:#f26b38;stroke:#ffffff;stroke-width:0.48;"/>
    <path clip-path="url(#p82ee61fae6)" d="M 221.940114 130.148706 
C 222.735723 130.148706 223.498853 129.832607 224.061434 129.270026 
C 224.624015 128.707445 224.940114 127.944315 224.940114 127.148706 
C 224.940114 126.353096 224.624015 125.589966 224.061434 125.027385 
C 223.498853 124.464805 222.735723 124.148706 221.940114 124.148706 
C 221.144504 124.148706 220.381374 124.464805 219.818793 125.027385 
C 219.256213 125.589966 218.940114 126.353096 218.940114 127.148706 
C 218.940114 127.944315 219.256213 128.707445 219.818793 129.270026 
C 220.381374 129.832607 221.144504 130.148706 221.940114 130.148706 
z
" style="fill:#f26b38;stroke:#ffffff;stroke-width:0.48;"/>
    <path clip-path="url(#p82ee61fae6)" d="M 228.70375 147.229513 
C 229.499359 147.229513 230.26249 146.913414 230.82507 146.350833 
C 231.387651 145.788252 231.70375 145.025122 231.70375 144.229513 
C 231.70375 143.433903 231.387651 142.670773 230.82507 142.108192 
C 230.26249 141.545612 229.499359 141.229513 228.70375 141.229513 
C 227.908141 141.229513 227.14501 141.545612 226.58243 142.108192 
C 226.019849 142.670773 225.70375 143.433903 225.70375 144.229513 
C 225.70375 145.025122 226.019849 145.788252 226.58243 146.350833 
C 227.14501 146.913414 227.908141 147.229513 228.70375 147.229513 
z
" style="fill:#f26b38;stroke:#ffffff;stroke-width:0.48;"/>
    <path clip-path="url(#p82ee61fae6)" d="M 235.467386 164.31032 
C 236.262996 164.31032 237.026126 163.994221 237.588707 163.43164 
C 238.151287 162.869059 238.467386 162.105929 238.467386 161.31032 
C 238.467386 160.51471 238.151287 159.75158 237.588707 159.188999 
C 237.026126 158.626419 236.262996 158.31032 235.467386 158.31032 
C 234.671777 158.31032 233.908647 158.626419 233.346066 159.188999 
C 232.783485 159.75158 232.467386 160.51471 232.467386 161.31032 
C 232.467386 162.105929 232.783485 162.869059 233.346066 163.43164 
C 233.908647 163.994221 234.671777 164.31032 235.467386 164.31032 
z
" style="fill:#f26b38;stroke:#ffffff;stroke-width:0.48;"/>
    <path clip-path="url(#p82ee61fae6)" d="M 242.231023 164.31032 
C 243.026632 164.31032 243.789762 163.994221 244.352343 163.43164 
C 244.914924 162.869059 245.231023 162.105929 245.231023 161.31032 
C 245.231023 160.51471 244.914924 159.75158 244.352343 159.188999 
C 243.789762 158.626419 243.026632 158.31032 242.231023 158.31032 
C 241.435413 158.31032 240.672283 158.626419 240.109702 159.188999 
C 239.547122 159.75158 239.231023 160.51471 239.231023 161.31032 
C 239.231023 162.105929 239.547122 162.869059 240.109702 163.43164 
C 240.672283 163.994221 241.435413 164.31032 242.231023 164.31032 
z
" style="fill:#f26b38;stroke:#ffffff;stroke-width:0.48;"/>
    <path clip-path="url(#p82ee61fae6)" d="M 248.994659 164.31032 
C 249.790268 164.31032 250.553399 163.994221 251.115979 163.43164 
C 251.67856 162.869059 251.994659 162.105929 251.994659 161.31032 
C 251.994659 160.51471 251.67856 159.75158 251.115979 159.188999 
C 250.553399 158.626419 249.790268 158.31032 248.994659 158.31032 
C 248.19905 158.31032 247.435919 158.626419 246.873339 159.188999 
C 246.310758 159.75158 245.994659 160.51471 245.994659 161.31032 
C 245.994659 162.105929 246.310758 162.869059 246.873339 163.43164 
C 247.435919 163.994221 248.19905 164.31032 248.994659 164.31032 
z
" style="fill:#f26b38;stroke:#ffffff;stroke-width:0.48;"/>
    <path clip-path="url(#p82ee61fae6)" d="M 255.758295 164.31032 
C 256.553905 164.31032 257.317035 163.994221 257.879616 163.43164 
C 258.442197 162.869059 258.758295 162.105929 258.758295 161.31032 
C 258.758295 160.51471 258.442197 159.75158 257.879616 159.188999 
C 257.317035 158.626419 256.553905 158.31032 255.758295 158.31032 
C 254.962686 158.31032 254.199556 158.626419 253.636975 159.188999 
C 253.074394 159.75158 252.758295 160.51471 252.758295 161.31032 
C 252.758295 162.105929 253.074394 162.869059 253.636975 163.43164 
C 254.199556 163.994221 254.962686 164.31032 255.758295 164.31032 
z
" style="fill:#f26b38;stroke:#ffffff;stroke-width:0.48;"/>
    <path clip-path="url(#p82ee61fae6)" d="M 262.521932 164.31032 
C 263.317541 164.31032 264.080671 163.994221 264.643252 163.43164 
C 265.205833 162.869059 265.521932 162.105929 265.521932 161.31032 
C 265.521932 160.51471 265.205833 159.75158 264.643252 159.188999 
C 264.080671 158.626419 263.317541 158.31032 262.521932 158.31032 
C 261.726323 158.31032 260.963192 158.626419 260.400611 159.188999 
C 259.838031 159.75158 259.521932 160.51471 259.521932 161.31032 
C 259.521932 162.105929 259.838031 162.869059 260.400611 163.43164 
C 260.963192 163.994221 261.726323 164.31032 262.521932 164.31032 
z
" style="fill:#f26b38;stroke:#ffffff;stroke-width:0.48;"/>
    <path clip-path="url(#p82ee61fae6)" d="M 269.285568 164.31032 
C 270.081177 164.31032 270.844308 163.994221 271.406889 163.43164 
C 271.969469 162.869059 272.285568 162.105929 272.285568 161.31032 
C 272.285568 160.51471 271.969469 159.75158 271.406889 159.188999 
C 270.844308 158.626419 270.081177 158.31032 269.285568 158.31032 
C 268.489959 158.31032 267.726829 158.626419 267.164248 159.188999 
C 266.601667 159.75158 266.285568 160.51471 266.285568 161.31032 
C 266.285568 162.105929 266.601667 162.869059 267.164248 163.43164 
C 267.726829 163.994221 268.489959 164.31032 269.285568 164.31032 
z
" style="fill:#f26b38;stroke:#ffffff;stroke-width:0.48;"/>
    <path clip-path="url(#p82ee61fae6)" d="M 276.049205 164.31032 
C 276.844814 164.31032 277.607944 163.994221 278.170525 163.43164 
C 278.733106 162.869059 279.049205 162.105929 279.049205 161.31032 
C 279.049205 160.51471 278.733106 159.75158 278.170525 159.188999 
C 277.607944 158.626419 276.844814 158.31032 276.049205 158.31032 
C 275.253595 158.31032 274.490465 158.626419 273.927884 159.188999 
C 273.365303 159.75158 273.049205 160.51471 273.049205 161.31032 
C 273.049205 162.105929 273.365303 162.869059 273.927884 163.43164 
C 274.490465 163.994221 275.253595 164.31032 276.049205 164.31032 
z
" style="fill:#f26b38;stroke:#ffffff;stroke-width:0.48;"/>
    <path clip-path="url(#p82ee61fae6)" d="M 282.812841 164.31032 
C 283.60845 164.31032 284.371581 163.994221 284.934161 163.43164 
C 285.496742 162.869059 285.812841 162.105929 285.812841 161.31032 
C 285.812841 160.51471 285.496742 159.75158 284.934161 159.188999 
C 284.371581 158.626419 283.60845 158.31032 282.812841 158.31032 
C 282.017232 158.31032 281.254101 158.626419 280.691521 159.188999 
C 280.12894 159.75158 279.812841 160.51471 279.812841 161.31032 
C 279.812841 162.105929 280.12894 162.869059 280.691521 163.43164 
C 281.254101 163.994221 282.017232 164.31032 282.812841 164.31032 
z
" style="fill:#f26b38;stroke:#ffffff;stroke-width:0.48;"/>
    <path clip-path="url(#p82ee61fae6)" d="M 289.576477 164.31032 
C 290.372087 164.31032 291.135217 163.994221 291.697798 163.43164 
C 292.260378 162.869059 292.576477 162.105929 292.576477 161.31032 
C 292.576477 160.51471 292.260378 159.75158 291.697798 159.188999 
C 291.135217 158.626419 290.372087 158.31032 289.576477 158.31032 
C 288.780868 158.31032 288.017738 158.626419 287.455157 159.188999 
C 286.892576 159.75158 286.576477 160.51471 286.576477 161.31032 
C 286.576477 162.105929 286.892576 162.869059 287.455157 163.43164 
C 288.017738 163.994221 288.780868 164.31032 289.576477 164.31032 
z
" style="fill:#f26b38;stroke:#ffffff;stroke-width:0.48;"/>
    <path clip-path="url(#p82ee61fae6)" d="M 296.340114 164.31032 
C 297.135723 164.31032 297.898853 163.994221 298.461434 163.43164 
C 299.024015 162.869059 299.340114 162.105929 299.340114 161.31032 
C 299.340114 160.51471 299.024015 159.75158 298.461434 159.188999 
C 297.898853 158.626419 297.135723 158.31032 296.340114 158.31032 
C 295.544504 158.31032 294.781374 158.626419 294.218793 159.188999 
C 293.656213 159.75158 293.340114 160.51471 293.340114 161.31032 
C 293.340114 162.105929 293.656213 162.869059 294.218793 163.43164 
C 294.781374 163.994221 295.544504 164.31032 296.340114 164.31032 
z
" style="fill:#f26b38;stroke:#ffffff;stroke-width:0.48;"/>
    <path clip-path="url(#p82ee61fae6)" d="M 303.10375 164.31032 
C 303.899359 164.31032 304.66249 163.994221 305.22507 163.43164 
C 305.787651 162.869059 306.10375 162.105929 306.10375 161.31032 
C 306.10375 160.51471 305.787651 159.75158 305.22507 159.188999 
C 304.66249 158.626419 303.899359 158.31032 303.10375 158.31032 
C 302.308141 158.31032 301.54501 158.626419 300.98243 159.188999 
C 300.419849 159.75158 300.10375 160.51471 300.10375 161.31032 
C 300.10375 162.105929 300.419849 162.869059 300.98243 163.43164 
C 301.54501 163.994221 302.308141 164.31032 303.10375 164.31032 
z
" style="fill:#f26b38;stroke:#ffffff;stroke-width:0.48;"/>
    <path clip-path="url(#p82ee61fae6)" d="M 309.867386 164.31032 
C 310.662996 164.31032 311.426126 163.994221 311.988707 163.43164 
C 312.551287 162.869059 312.867386 162.105929 312.867386 161.31032 
C 312.867386 160.51471 312.551287 159.75158 311.988707 159.188999 
C 311.426126 158.626419 310.662996 158.31032 309.867386 158.31032 
C 309.071777 158.31032 308.308647 158.626419 307.746066 159.188999 
C 307.183485 159.75158 306.867386 160.51471 306.867386 161.31032 
C 306.867386 162.105929 307.183485 162.869059 307.746066 163.43164 
C 308.308647 163.994221 309.071777 164.31032 309.867386 164.31032 
z
" style="fill:#f26b38;stroke:#ffffff;stroke-width:0.48;"/>
    <path clip-path="url(#p82ee61fae6)" d="M 316.631023 164.31032 
C 317.426632 164.31032 318.189762 163.994221 318.752343 163.43164 
C 319.314924 162.869059 319.631023 162.105929 319.631023 161.31032 
C 319.631023 160.51471 319.314924 159.75158 318.752343 159.188999 
C 318.189762 158.626419 317.426632 158.31032 316.631023 158.31032 
C 315.835413 158.31032 315.072283 158.626419 314.509702 159.188999 
C 313.947122 159.75158 313.631023 160.51471 313.631023 161.31032 
C 313.631023 162.105929 313.947122 162.869059 314.509702 163.43164 
C 315.072283 163.994221 315.835413 164.31032 316.631023 164.31032 
z
" style="fill:#f26b38;stroke:#ffffff;stroke-width:0.48;"/>
    <path clip-path="url(#p82ee61fae6)" d="M 323.394659 164.31032 
C 324.190268 164.31032 324.953399 163.994221 325.515979 163.43164 
C 326.07856 162.869059 326.394659 162.105929 326.394659 161.31032 
C 326.394659 160.51471 326.07856 159.75158 325.515979 159.188999 
C 324.953399 158.626419 324.190268 158.31032 323.394659 158.31032 
C 322.59905 158.31032 321.835919 158.626419 321.273339 159.188999 
C 320.710758 159.75158 320.394659 160.51471 320.394659 161.31032 
C 320.394659 162.105929 320.710758 162.869059 321.273339 163.43164 
C 321.835919 163.994221 322.59905 164.31032 323.394659 164.31032 
z
" style="fill:#f26b38;stroke:#ffffff;stroke-width:0.48;"/>
    <path clip-path="url(#p82ee61fae6)" d="M 330.158295 164.31032 
C 330.953905 164.31032 331.717035 163.994221 332.279616 163.43164 
C 332.842197 162.869059 333.158295 162.105929 333.158295 161.31032 
C 333.158295 160.51471 332.842197 159.75158 332.279616 159.188999 
C 331.717035 158.626419 330.953905 158.31032 330.158295 158.31032 
C 329.362686 158.31032 328.599556 158.626419 328.036975 159.188999 
C 327.474394 159.75158 327.158295 160.51471 327.158295 161.31032 
C 327.158295 162.105929 327.474394 162.869059 328.036975 163.43164 
C 328.599556 163.994221 329.362686 164.31032 330.158295 164.31032 
z
" style="fill:#f26b38;stroke:#ffffff;stroke-width:0.48;"/>
    <path clip-path="url(#p82ee61fae6)" d="M 336.921932 164.31032 
C 337.717541 164.31032 338.480671 163.994221 339.043252 163.43164 
C 339.605833 162.869059 339.921932 162.105929 339.921932 161.31032 
C 339.921932 160.51471 339.605833 159.75158 339.043252 159.188999 
C 338.480671 158.626419 337.717541 158.31032 336.921932 158.31032 
C 336.126323 158.31032 335.363192 158.626419 334.800611 159.188999 
C 334.238031 159.75158 333.921932 160.51471 333.921932 161.31032 
C 333.921932 162.105929 334.238031 162.869059 334.800611 163.43164 
C 335.363192 163.994221 336.126323 164.31032 336.921932 164.31032 
z
" style="fill:#f26b38;stroke:#ffffff;stroke-width:0.48;"/>
    <path clip-path="url(#p82ee61fae6)" d="M 343.685568 164.31032 
C 344.481177 164.31032 345.244308 163.994221 345.806889 163.43164 
C 346.369469 162.869059 346.685568 162.105929 346.685568 161.31032 
C 346.685568 160.51471 346.369469 159.75158 345.806889 159.188999 
C 345.244308 158.626419 344.481177 158.31032 343.685568 158.31032 
C 342.889959 158.31032 342.126829 158.626419 341.564248 159.188999 
C 341.001667 159.75158 340.685568 160.51471 340.685568 161.31032 
C 340.685568 162.105929 341.001667 162.869059 341.564248 163.43164 
C 342.126829 163.994221 342.889959 164.31032 343.685568 164.31032 
z
" style="fill:#f26b38;stroke:#ffffff;stroke-width:0.48;"/>
    <path clip-path="url(#p82ee61fae6)" d="M 350.449205 164.31032 
C 351.244814 164.31032 352.007944 163.994221 352.570525 163.43164 
C 353.133106 162.869059 353.449205 162.105929 353.449205 161.31032 
C 353.449205 160.51471 353.133106 159.75158 352.570525 159.188999 
C 352.007944 158.626419 351.244814 158.31032 350.449205 158.31032 
C 349.653595 158.31032 348.890465 158.626419 348.327884 159.188999 
C 347.765303 159.75158 347.449205 160.51471 347.449205 161.31032 
C 347.449205 162.105929 347.765303 162.869059 348.327884 163.43164 
C 348.890465 163.994221 349.653595 164.31032 350.449205 164.31032 
z
" style="fill:#f26b38;stroke:#ffffff;stroke-width:0.48;"/>
    <path clip-path="url(#p82ee61fae6)" d="M 357.212841 164.31032 
C 358.00845 164.31032 358.771581 163.994221 359.334161 163.43164 
C 359.896742 162.869059 360.212841 162.105929 360.212841 161.31032 
C 360.212841 160.51471 359.896742 159.75158 359.334161 159.188999 
C 358.771581 158.626419 358.00845 158.31032 357.212841 158.31032 
C 356.417232 158.31032 355.654101 158.626419 355.091521 159.188999 
C 354.52894 159.75158 354.212841 160.51471 354.212841 161.31032 
C 354.212841 162.105929 354.52894 162.869059 355.091521 163.43164 
C 355.654101 163.994221 356.417232 164.31032 357.212841 164.31032 
z
" style="fill:#f26b38;stroke:#ffffff;stroke-width:0.48;"/>
    <path clip-path="url(#p82ee61fae6)" d="M 363.976477 164.31032 
C 364.772087 164.31032 365.535217 163.994221 366.097798 163.43164 
C 366.660378 162.869059 366.976477 162.105929 366.976477 161.31032 
C 366.976477 160.51471 366.660378 159.75158 366.097798 159.188999 
C 365.535217 158.626419 364.772087 158.31032 363.976477 158.31032 
C 363.180868 158.31032 362.417738 158.626419 361.855157 159.188999 
C 361.292576 159.75158 360.976477 160.51471 360.976477 161.31032 
C 360.976477 162.105929 361.292576 162.869059 361.855157 163.43164 
C 362.417738 163.994221 363.180868 164.31032 363.976477 164.31032 
z
" style="fill:#f26b38;stroke:#ffffff;stroke-width:0.48;"/>
    <path clip-path="url(#p82ee61fae6)" d="M 370.740114 164.31032 
C 371.535723 164.31032 372.298853 163.994221 372.861434 163.43164 
C 373.424015 162.869059 373.740114 162.105929 373.740114 161.31032 
C 373.740114 160.51471 373.424015 159.75158 372.861434 159.188999 
C 372.298853 158.626419 371.535723 158.31032 370.740114 158.31032 
C 369.944504 158.31032 369.181374 158.626419 368.618793 159.188999 
C 368.056213 159.75158 367.740114 160.51471 367.740114 161.31032 
C 367.740114 162.105929 368.056213 162.869059 368.618793 163.43164 
C 369.181374 163.994221 369.944504 164.31032 370.740114 164.31032 
z
" style="fill:#f26b38;stroke:#ffffff;stroke-width:0.48;"/>
    <path clip-path="url(#p82ee61fae6)" d="M 377.50375 164.31032 
C 378.299359 164.31032 379.06249 163.994221 379.62507 163.43164 
C 380.187651 162.869059 380.50375 162.105929 380.50375 161.31032 
C 380.50375 160.51471 380.187651 159.75158 379.62507 159.188999 
C 379.06249 158.626419 378.299359 158.31032 377.50375 158.31032 
C 376.708141 158.31032 375.94501 158.626419 375.38243 159.188999 
C 374.819849 159.75158 374.50375 160.51471 374.50375 161.31032 
C 374.50375 162.105929 374.819849 162.869059 375.38243 163.43164 
C 375.94501 163.994221 376.708141 164.31032 377.50375 164.31032 
z
" style="fill:#f26b38;stroke:#ffffff;stroke-width:0.48;"/>
    <path clip-path="url(#p82ee61fae6)" d="M 384.267386 164.31032 
C 385.062996 164.31032 385.826126 163.994221 386.388707 163.43164 
C 386.951287 162.869059 387.267386 162.105929 387.267386 161.31032 
C 387.267386 160.51471 386.951287 159.75158 386.388707 159.188999 
C 385.826126 158.626419 385.062996 158.31032 384.267386 158.31032 
C 383.471777 158.31032 382.708647 158.626419 382.146066 159.188999 
C 381.583485 159.75158 381.267386 160.51471 381.267386 161.31032 
C 381.267386 162.105929 381.583485 162.869059 382.146066 163.43164 
C 382.708647 163.994221 383.471777 164.31032 384.267386 164.31032 
z
" style="fill:#f26b38;stroke:#ffffff;stroke-width:0.48;"/>
    <path clip-path="url(#p82ee61fae6)" d="M 391.031023 164.31032 
C 391.826632 164.31032 392.589762 163.994221 393.152343 163.43164 
C 393.714924 162.869059 394.031023 162.105929 394.031023 161.31032 
C 394.031023 160.51471 393.714924 159.75158 393.152343 159.188999 
C 392.589762 158.626419 391.826632 158.31032 391.031023 158.31032 
C 390.235413 158.31032 389.472283 158.626419 388.909702 159.188999 
C 388.347122 159.75158 388.031023 160.51471 388.031023 161.31032 
C 388.031023 162.105929 388.347122 162.869059 388.909702 163.43164 
C 389.472283 163.994221 390.235413 164.31032 391.031023 164.31032 
z
" style="fill:#f26b38;stroke:#ffffff;stroke-width:0.48;"/>
    <path clip-path="url(#p82ee61fae6)" d="M 64.876477 215.55274 
L 66.376477 214.05274 
L 67.876477 215.55274 
L 69.376477 214.05274 
L 67.876477 212.55274 
L 69.376477 211.05274 
L 67.876477 209.55274 
L 66.376477 211.05274 
L 64.876477 209.55274 
L 63.376477 211.05274 
L 64.876477 212.55274 
L 63.376477 214.05274 
z
" style="fill:#2f9599;stroke:#ffffff;stroke-width:0.48;"/>
    <path clip-path="url(#p82ee61fae6)" d="M 71.640114 181.391127 
L 73.140114 179.891127 
L 74.640114 181.391127 
L 76.140114 179.891127 
L 74.640114 178.391127 
L 76.140114 176.891127 
L 74.640114 175.391127 
L 73.140114 176.891127 
L 71.640114 175.391127 
L 70.140114 176.891127 
L 71.640114 178.391127 
L 70.140114 179.891127 
z
" style="fill:#2f9599;stroke:#ffffff;stroke-width:0.48;"/>
    <path clip-path="url(#p82ee61fae6)" d="M 78.40375 181.391127 
L 79.90375 179.891127 
L 81.40375 181.391127 
L 82.90375 179.891127 
L 81.40375 178.391127 
L 82.90375 176.891127 
L 81.40375 175.391127 
L 79.90375 176.891127 
L 78.40375 175.391127 
L 76.90375 176.891127 
L 78.40375 178.391127 
L 76.90375 179.891127 
z
" style="fill:#2f9599;stroke:#ffffff;stroke-width:0.48;"/>
    <path clip-path="url(#p82ee61fae6)" d="M 85.167386 181.391127 
L 86.667386 179.891127 
L 88.167386 181.391127 
L 89.667386 179.891127 
L 88.167386 178.391127 
L 89.667386 176.891127 
L 88.167386 175.391127 
L 86.667386 176.891127 
L 85.167386 175.391127 
L 83.667386 176.891127 
L 85.167386 178.391127 
L 83.667386 179.891127 
z
" style="fill:#2f9599;stroke:#ffffff;stroke-width:0.48;"/>
    <path clip-path="url(#p82ee61fae6)" d="M 91.931023 232.633547 
L 93.431023 231.133547 
L 94.931023 232.633547 
L 96.431023 231.133547 
L 94.931023 229.633547 
L 96.431023 228.133547 
L 94.931023 226.633547 
L 93.431023 228.133547 
L 91.931023 226.633547 
L 90.431023 228.133547 
L 91.931023 229.633547 
L 90.431023 231.133547 
z
" style="fill:#2f9599;stroke:#ffffff;stroke-width:0.48;"/>
    <path clip-path="url(#p82ee61fae6)" d="M 98.694659 232.633547 
L 100.194659 231.133547 
L 101.694659 232.633547 
L 103.194659 231.133547 
L 101.694659 229.633547 
L 103.194659 228.133547 
L 101.694659 226.633547 
L 100.194659 228.133547 
L 98.694659 226.633547 
L 97.194659 228.133547 
L 98.694659 229.633547 
L 97.194659 231.133547 
z
" style="fill:#2f9599;stroke:#ffffff;stroke-width:0.48;"/>
    <path clip-path="url(#p82ee61fae6)" d="M 105.458295 232.633547 
L 106.958295 231.133547 
L 108.458295 232.633547 
L 109.958295 231.133547 
L 108.458295 229.633547 
L 109.958295 228.133547 
L 108.458295 226.633547 
L 106.958295 228.133547 
L 105.458295 226.633547 
L 103.958295 228.133547 
L 105.458295 229.633547 
L 103.958295 231.133547 
z
" style="fill:#2f9599;stroke:#ffffff;stroke-width:0.48;"/>
    <path clip-path="url(#p82ee61fae6)" d="M 112.221932 232.633547 
L 113.721932 231.133547 
L 115.221932 232.633547 
L 116.721932 231.133547 
L 115.221932 229.633547 
L 116.721932 228.133547 
L 115.221932 226.633547 
L 113.721932 228.133547 
L 112.221932 226.633547 
L 110.721932 228.133547 
L 112.221932 229.633547 
L 110.721932 231.133547 
z
" style="fill:#2f9599;stroke:#ffffff;stroke-width:0.48;"/>
    <path clip-path="url(#p82ee61fae6)" d="M 118.985568 232.633547 
L 120.485568 231.133547 
L 121.985568 232.633547 
L 123.485568 231.133547 
L 121.985568 229.633547 
L 123.485568 228.133547 
L 121.985568 226.633547 
L 120.485568 228.133547 
L 118.985568 226.633547 
L 117.485568 228.133547 
L 118.985568 229.633547 
L 117.485568 231.133547 
z
" style="fill:#2f9599;stroke:#ffffff;stroke-width:0.48;"/>
    <path clip-path="url(#p82ee61fae6)" d="M 125.749205 232.633547 
L 127.249205 231.133547 
L 128.749205 232.633547 
L 130.249205 231.133547 
L 128.749205 229.633547 
L 130.249205 228.133547 
L 128.749205 226.633547 
L 127.249205 228.133547 
L 125.749205 226.633547 
L 124.249205 228.133547 
L 125.749205 229.633547 
L 124.249205 231.133547 
z
" style="fill:#2f9599;stroke:#ffffff;stroke-width:0.48;"/>
    <path clip-path="url(#p82ee61fae6)" d="M 132.512841 232.633547 
L 134.012841 231.133547 
L 135.512841 232.633547 
L 137.012841 231.133547 
L 135.512841 229.633547 
L 137.012841 228.133547 
L 135.512841 226.633547 
L 134.012841 228.133547 
L 132.512841 226.633547 
L 131.012841 228.133547 
L 132.512841 229.633547 
L 131.012841 231.133547 
z
" style="fill:#2f9599;stroke:#ffffff;stroke-width:0.48;"/>
    <path clip-path="url(#p82ee61fae6)" d="M 139.276477 232.633547 
L 140.776477 231.133547 
L 142.276477 232.633547 
L 143.776477 231.133547 
L 142.276477 229.633547 
L 143.776477 228.133547 
L 142.276477 226.633547 
L 140.776477 228.133547 
L 139.276477 226.633547 
L 137.776477 228.133547 
L 139.276477 229.633547 
L 137.776477 231.133547 
z
" style="fill:#2f9599;stroke:#ffffff;stroke-width:0.48;"/>
    <path clip-path="url(#p82ee61fae6)" d="M 146.040114 232.633547 
L 147.540114 231.133547 
L 149.040114 232.633547 
L 150.540114 231.133547 
L 149.040114 229.633547 
L 150.540114 228.133547 
L 149.040114 226.633547 
L 147.540114 228.133547 
L 146.040114 226.633547 
L 144.540114 228.133547 
L 146.040114 229.633547 
L 144.540114 231.133547 
z
" style="fill:#2f9599;stroke:#ffffff;stroke-width:0.48;"/>
    <path clip-path="url(#p82ee61fae6)" d="M 152.80375 232.633547 
L 154.30375 231.133547 
L 155.80375 232.633547 
L 157.30375 231.133547 
L 155.80375 229.633547 
L 157.30375 228.133547 
L 155.80375 226.633547 
L 154.30375 228.133547 
L 152.80375 226.633547 
L 151.30375 228.133547 
L 152.80375 229.633547 
L 151.30375 231.133547 
z
" style="fill:#2f9599;stroke:#ffffff;stroke-width:0.48;"/>
    <path clip-path="url(#p82ee61fae6)" d="M 159.567386 232.633547 
L 161.067386 231.133547 
L 162.567386 232.633547 
L 164.067386 231.133547 
L 162.567386 229.633547 
L 164.067386 228.133547 
L 162.567386 226.633547 
L 161.067386 228.133547 
L 159.567386 226.633547 
L 158.067386 228.133547 
L 159.567386 229.633547 
L 158.067386 231.133547 
z
" style="fill:#2f9599;stroke:#ffffff;stroke-width:0.48;"/>
    <path clip-path="url(#p82ee61fae6)" d="M 166.331023 232.633547 
L 167.831023 231.133547 
L 169.331023 232.633547 
L 170.831023 231.133547 
L 169.331023 229.633547 
L 170.831023 228.133547 
L 169.331023 226.633547 
L 167.831023 228.133547 
L 166.331023 226.633547 
L 164.831023 228.133547 
L 166.331023 229.633547 
L 164.831023 231.133547 
z
" style="fill:#2f9599;stroke:#ffffff;stroke-width:0.48;"/>
    <path clip-path="url(#p82ee61fae6)" d="M 173.094659 266.795161 
L 174.594659 265.295161 
L 176.094659 266.795161 
L 177.594659 265.295161 
L 176.094659 263.795161 
L 177.594659 262.295161 
L 176.094659 260.795161 
L 174.594659 262.295161 
L 173.094659 260.795161 
L 171.594659 262.295161 
L 173.094659 263.795161 
L 171.594659 265.295161 
z
" style="fill:#2f9599;stroke:#ffffff;stroke-width:0.48;"/>
    <path clip-path="url(#p82ee61fae6)" d="M 179.858295 266.795161 
L 181.358295 265.295161 
L 182.858295 266.795161 
L 184.358295 265.295161 
L 182.858295 263.795161 
L 184.358295 262.295161 
L 182.858295 260.795161 
L 181.358295 262.295161 
L 179.858295 260.795161 
L 178.358295 262.295161 
L 179.858295 263.795161 
L 178.358295 265.295161 
z
" style="fill:#2f9599;stroke:#ffffff;stroke-width:0.48;"/>
    <path clip-path="url(#p82ee61fae6)" d="M 186.621932 266.795161 
L 188.121932 265.295161 
L 189.621932 266.795161 
L 191.121932 265.295161 
L 189.621932 263.795161 
L 191.121932 262.295161 
L 189.621932 260.795161 
L 188.121932 262.295161 
L 186.621932 260.795161 
L 185.121932 262.295161 
L 186.621932 263.795161 
L 185.121932 265.295161 
z
" style="fill:#2f9599;stroke:#ffffff;stroke-width:0.48;"/>
    <path clip-path="url(#p82ee61fae6)" d="M 193.385568 266.795161 
L 194.885568 265.295161 
L 196.385568 266.795161 
L 197.885568 265.295161 
L 196.385568 263.795161 
L 197.885568 262.295161 
L 196.385568 260.795161 
L 194.885568 262.295161 
L 193.385568 260.795161 
L 191.885568 262.295161 
L 193.385568 263.795161 
L 191.885568 265.295161 
z
" style="fill:#2f9599;stroke:#ffffff;stroke-width:0.48;"/>
    <path clip-path="url(#p82ee61fae6)" d="M 200.149205 266.795161 
L 201.649205 265.295161 
L 203.149205 266.795161 
L 204.649205 265.295161 
L 203.149205 263.795161 
L 204.649205 262.295161 
L 203.149205 260.795161 
L 201.649205 262.295161 
L 200.149205 260.795161 
L 198.649205 262.295161 
L 200.149205 263.795161 
L 198.649205 265.295161 
z
" style="fill:#2f9599;stroke:#ffffff;stroke-width:0.48;"/>
    <path clip-path="url(#p82ee61fae6)" d="M 206.912841 266.795161 
L 208.412841 265.295161 
L 209.912841 266.795161 
L 211.412841 265.295161 
L 209.912841 263.795161 
L 211.412841 262.295161 
L 209.912841 260.795161 
L 208.412841 262.295161 
L 206.912841 260.795161 
L 205.412841 262.295161 
L 206.912841 263.795161 
L 205.412841 265.295161 
z
" style="fill:#2f9599;stroke:#ffffff;stroke-width:0.48;"/>
    <path clip-path="url(#p82ee61fae6)" d="M 213.676477 266.795161 
L 215.176477 265.295161 
L 216.676477 266.795161 
L 218.176477 265.295161 
L 216.676477 263.795161 
L 218.176477 262.295161 
L 216.676477 260.795161 
L 215.176477 262.295161 
L 213.676477 260.795161 
L 212.176477 262.295161 
L 213.676477 263.795161 
L 212.176477 265.295161 
z
" style="fill:#2f9599;stroke:#ffffff;stroke-width:0.48;"/>
    <path clip-path="url(#p82ee61fae6)" d="M 220.440114 266.795161 
L 221.940114 265.295161 
L 223.440114 266.795161 
L 224.940114 265.295161 
L 223.440114 263.795161 
L 224.940114 262.295161 
L 223.440114 260.795161 
L 221.940114 262.295161 
L 220.440114 260.795161 
L 218.940114 262.295161 
L 220.440114 263.795161 
L 218.940114 265.295161 
z
" style="fill:#2f9599;stroke:#ffffff;stroke-width:0.48;"/>
    <path clip-path="url(#p82ee61fae6)" d="M 227.20375 266.795161 
L 228.70375 265.295161 
L 230.20375 266.795161 
L 231.70375 265.295161 
L 230.20375 263.795161 
L 231.70375 262.295161 
L 230.20375 260.795161 
L 228.70375 262.295161 
L 227.20375 260.795161 
L 225.70375 262.295161 
L 227.20375 263.795161 
L 225.70375 265.295161 
z
" style="fill:#2f9599;stroke:#ffffff;stroke-width:0.48;"/>
    <path clip-path="url(#p82ee61fae6)" d="M 233.967386 266.795161 
L 235.467386 265.295161 
L 236.967386 266.795161 
L 238.467386 265.295161 
L 236.967386 263.795161 
L 238.467386 262.295161 
L 236.967386 260.795161 
L 235.467386 262.295161 
L 233.967386 260.795161 
L 232.467386 262.295161 
L 233.967386 263.795161 
L 232.467386 265.295161 
z
" style="fill:#2f9599;stroke:#ffffff;stroke-width:0.48;"/>
    <path clip-path="url(#p82ee61fae6)" d="M 240.731023 266.795161 
L 242.231023 265.295161 
L 243.731023 266.795161 
L 245.231023 265.295161 
L 243.731023 263.795161 
L 245.231023 262.295161 
L 243.731023 260.795161 
L 242.231023 262.295161 
L 240.731023 260.795161 
L 239.231023 262.295161 
L 240.731023 263.795161 
L 239.231023 265.295161 
z
" style="fill:#2f9599;stroke:#ffffff;stroke-width:0.48;"/>
    <path clip-path="url(#p82ee61fae6)" d="M 247.494659 266.795161 
L 248.994659 265.295161 
L 250.494659 266.795161 
L 251.994659 265.295161 
L 250.494659 263.795161 
L 251.994659 262.295161 
L 250.494659 260.795161 
L 248.994659 262.295161 
L 247.494659 260.795161 
L 245.994659 262.295161 
L 247.494659 263.795161 
L 245.994659 265.295161 
z
" style="fill:#2f9599;stroke:#ffffff;stroke-width:0.48;"/>
    <path clip-path="url(#p82ee61fae6)" d="M 254.258295 266.795161 
L 255.758295 265.295161 
L 257.258295 266.795161 
L 258.758295 265.295161 
L 257.258295 263.795161 
L 258.758295 262.295161 
L 257.258295 260.795161 
L 255.758295 262.295161 
L 254.258295 260.795161 
L 252.758295 262.295161 
L 254.258295 263.795161 
L 252.758295 265.295161 
z
" style="fill:#2f9599;stroke:#ffffff;stroke-width:0.48;"/>
    <path clip-path="url(#p82ee61fae6)" d="M 261.021932 266.795161 
L 262.521932 265.295161 
L 264.021932 266.795161 
L 265.521932 265.295161 
L 264.021932 263.795161 
L 265.521932 262.295161 
L 264.021932 260.795161 
L 262.521932 262.295161 
L 261.021932 260.795161 
L 259.521932 262.295161 
L 261.021932 263.795161 
L 259.521932 265.295161 
z
" style="fill:#2f9599;stroke:#ffffff;stroke-width:0.48;"/>
    <path clip-path="url(#p82ee61fae6)" d="M 267.785568 266.795161 
L 269.285568 265.295161 
L 270.785568 266.795161 
L 272.285568 265.295161 
L 270.785568 263.795161 
L 272.285568 262.295161 
L 270.785568 260.795161 
L 269.285568 262.295161 
L 267.785568 260.795161 
L 266.285568 262.295161 
L 267.785568 263.795161 
L 266.285568 265.295161 
z
" style="fill:#2f9599;stroke:#ffffff;stroke-width:0.48;"/>
    <path clip-path="url(#p82ee61fae6)" d="M 274.549205 266.795161 
L 276.049205 265.295161 
L 277.549205 266.795161 
L 279.049205 265.295161 
L 277.549205 263.795161 
L 279.049205 262.295161 
L 277.549205 260.795161 
L 276.049205 262.295161 
L 274.549205 260.795161 
L 273.049205 262.295161 
L 274.549205 263.795161 
L 273.049205 265.295161 
z
" style="fill:#2f9599;stroke:#ffffff;stroke-width:0.48;"/>
    <path clip-path="url(#p82ee61fae6)" d="M 281.312841 266.795161 
L 282.812841 265.295161 
L 284.312841 266.795161 
L 285.812841 265.295161 
L 284.312841 263.795161 
L 285.812841 262.295161 
L 284.312841 260.795161 
L 282.812841 262.295161 
L 281.312841 260.795161 
L 279.812841 262.295161 
L 281.312841 263.795161 
L 279.812841 265.295161 
z
" style="fill:#2f9599;stroke:#ffffff;stroke-width:0.48;"/>
    <path clip-path="url(#p82ee61fae6)" d="M 288.076477 266.795161 
L 289.576477 265.295161 
L 291.076477 266.795161 
L 292.576477 265.295161 
L 291.076477 263.795161 
L 292.576477 262.295161 
L 291.076477 260.795161 
L 289.576477 262.295161 
L 288.076477 260.795161 
L 286.576477 262.295161 
L 288.076477 263.795161 
L 286.576477 265.295161 
z
" style="fill:#2f9599;stroke:#ffffff;stroke-width:0.48;"/>
    <path clip-path="url(#p82ee61fae6)" d="M 294.840114 266.795161 
L 296.340114 265.295161 
L 297.840114 266.795161 
L 299.340114 265.295161 
L 297.840114 263.795161 
L 299.340114 262.295161 
L 297.840114 260.795161 
L 296.340114 262.295161 
L 294.840114 260.795161 
L 293.340114 262.295161 
L 294.840114 263.795161 
L 293.340114 265.295161 
z
" style="fill:#2f9599;stroke:#ffffff;stroke-width:0.48;"/>
    <path clip-path="url(#p82ee61fae6)" d="M 301.60375 266.795161 
L 303.10375 265.295161 
L 304.60375 266.795161 
L 306.10375 265.295161 
L 304.60375 263.795161 
L 306.10375 262.295161 
L 304.60375 260.795161 
L 303.10375 262.295161 
L 301.60375 260.795161 
L 300.10375 262.295161 
L 301.60375 263.795161 
L 300.10375 265.295161 
z
" style="fill:#2f9599;stroke:#ffffff;stroke-width:0.48;"/>
    <path clip-path="url(#p82ee61fae6)" d="M 308.367386 266.795161 
L 309.867386 265.295161 
L 311.367386 266.795161 
L 312.867386 265.295161 
L 311.367386 263.795161 
L 312.867386 262.295161 
L 311.367386 260.795161 
L 309.867386 262.295161 
L 308.367386 260.795161 
L 306.867386 262.295161 
L 308.367386 263.795161 
L 306.867386 265.295161 
z
" style="fill:#2f9599;stroke:#ffffff;stroke-width:0.48;"/>
    <path clip-path="url(#p82ee61fae6)" d="M 315.131023 266.795161 
L 316.631023 265.295161 
L 318.131023 266.795161 
L 319.631023 265.295161 
L 318.131023 263.795161 
L 319.631023 262.295161 
L 318.131023 260.795161 
L 316.631023 262.295161 
L 315.131023 260.795161 
L 313.631023 262.295161 
L 315.131023 263.795161 
L 313.631023 265.295161 
z
" style="fill:#2f9599;stroke:#ffffff;stroke-width:0.48;"/>
    <path clip-path="url(#p82ee61fae6)" d="M 321.894659 266.795161 
L 323.394659 265.295161 
L 324.894659 266.795161 
L 326.394659 265.295161 
L 324.894659 263.795161 
L 326.394659 262.295161 
L 324.894659 260.795161 
L 323.394659 262.295161 
L 321.894659 260.795161 
L 320.394659 262.295161 
L 321.894659 263.795161 
L 320.394659 265.295161 
z
" style="fill:#2f9599;stroke:#ffffff;stroke-width:0.48;"/>
    <path clip-path="url(#p82ee61fae6)" d="M 328.658295 266.795161 
L 330.158295 265.295161 
L 331.658295 266.795161 
L 333.158295 265.295161 
L 331.658295 263.795161 
L 333.158295 262.295161 
L 331.658295 260.795161 
L 330.158295 262.295161 
L 328.658295 260.795161 
L 327.158295 262.295161 
L 328.658295 263.795161 
L 327.158295 265.295161 
z
" style="fill:#2f9599;stroke:#ffffff;stroke-width:0.48;"/>
    <path clip-path="url(#p82ee61fae6)" d="M 335.421932 266.795161 
L 336.921932 265.295161 
L 338.421932 266.795161 
L 339.921932 265.295161 
L 338.421932 263.795161 
L 339.921932 262.295161 
L 338.421932 260.795161 
L 336.921932 262.295161 
L 335.421932 260.795161 
L 333.921932 262.295161 
L 335.421932 263.795161 
L 333.921932 265.295161 
z
" style="fill:#2f9599;stroke:#ffffff;stroke-width:0.48;"/>
    <path clip-path="url(#p82ee61fae6)" d="M 342.185568 266.795161 
L 343.685568 265.295161 
L 345.185568 266.795161 
L 346.685568 265.295161 
L 345.185568 263.795161 
L 346.685568 262.295161 
L 345.185568 260.795161 
L 343.685568 262.295161 
L 342.185568 260.795161 
L 340.685568 262.295161 
L 342.185568 263.795161 
L 340.685568 265.295161 
z
" style="fill:#2f9599;stroke:#ffffff;stroke-width:0.48;"/>
    <path clip-path="url(#p82ee61fae6)" d="M 348.949205 266.795161 
L 350.449205 265.295161 
L 351.949205 266.795161 
L 353.449205 265.295161 
L 351.949205 263.795161 
L 353.449205 262.295161 
L 351.949205 260.795161 
L 350.449205 262.295161 
L 348.949205 260.795161 
L 347.449205 262.295161 
L 348.949205 263.795161 
L 347.449205 265.295161 
z
" style="fill:#2f9599;stroke:#ffffff;stroke-width:0.48;"/>
    <path clip-path="url(#p82ee61fae6)" d="M 355.712841 266.795161 
L 357.212841 265.295161 
L 358.712841 266.795161 
L 360.212841 265.295161 
L 358.712841 263.795161 
L 360.212841 262.295161 
L 358.712841 260.795161 
L 357.212841 262.295161 
L 355.712841 260.795161 
L 354.212841 262.295161 
L 355.712841 263.795161 
L 354.212841 265.295161 
z
" style="fill:#2f9599;stroke:#ffffff;stroke-width:0.48;"/>
    <path clip-path="url(#p82ee61fae6)" d="M 362.476477 266.795161 
L 363.976477 265.295161 
L 365.476477 266.795161 
L 366.976477 265.295161 
L 365.476477 263.795161 
L 366.976477 262.295161 
L 365.476477 260.795161 
L 363.976477 262.295161 
L 362.476477 260.795161 
L 360.976477 262.295161 
L 362.476477 263.795161 
L 360.976477 265.295161 
z
" style="fill:#2f9599;stroke:#ffffff;stroke-width:0.48;"/>
    <path clip-path="url(#p82ee61fae6)" d="M 369.240114 266.795161 
L 370.740114 265.295161 
L 372.240114 266.795161 
L 373.740114 265.295161 
L 372.240114 263.795161 
L 373.740114 262.295161 
L 372.240114 260.795161 
L 370.740114 262.295161 
L 369.240114 260.795161 
L 367.740114 262.295161 
L 369.240114 263.795161 
L 367.740114 265.295161 
z
" style="fill:#2f9599;stroke:#ffffff;stroke-width:0.48;"/>
    <path clip-path="url(#p82ee61fae6)" d="M 376.00375 266.795161 
L 377.50375 265.295161 
L 379.00375 266.795161 
L 380.50375 265.295161 
L 379.00375 263.795161 
L 380.50375 262.295161 
L 379.00375 260.795161 
L 377.50375 262.295161 
L 376.00375 260.795161 
L 374.50375 262.295161 
L 376.00375 263.795161 
L 374.50375 265.295161 
z
" style="fill:#2f9599;stroke:#ffffff;stroke-width:0.48;"/>
    <path clip-path="url(#p82ee61fae6)" d="M 382.767386 266.795161 
L 384.267386 265.295161 
L 385.767386 266.795161 
L 387.267386 265.295161 
L 385.767386 263.795161 
L 387.267386 262.295161 
L 385.767386 260.795161 
L 384.267386 262.295161 
L 382.767386 260.795161 
L 381.267386 262.295161 
L 382.767386 263.795161 
L 381.267386 265.295161 
z
" style="fill:#2f9599;stroke:#ffffff;stroke-width:0.48;"/>
    <path clip-path="url(#p82ee61fae6)" d="M 389.531023 266.795161 
L 391.031023 265.295161 
L 392.531023 266.795161 
L 394.031023 265.295161 
L 392.531023 263.795161 
L 394.031023 262.295161 
L 392.531023 260.795161 
L 391.031023 262.295161 
L 389.531023 260.795161 
L 388.031023 262.295161 
L 389.531023 263.795161 
L 388.031023 265.295161 
z
" style="fill:#2f9599;stroke:#ffffff;stroke-width:0.48;"/>
    <path clip-path="url(#p82ee61fae6)" d="M 64.255157 53.218279 
L 64.255157 57.460919 
L 68.497798 57.460919 
L 68.497798 53.218279 
z
" style="fill:#a7226e;stroke:#ffffff;stroke-width:0.48;"/>
    <path clip-path="url(#p82ee61fae6)" d="M 71.018793 53.218279 
L 71.018793 57.460919 
L 75.261434 57.460919 
L 75.261434 53.218279 
z
" style="fill:#a7226e;stroke:#ffffff;stroke-width:0.48;"/>
    <path clip-path="url(#p82ee61fae6)" d="M 77.78243 53.218279 
L 77.78243 57.460919 
L 82.02507 57.460919 
L 82.02507 53.218279 
z
" style="fill:#a7226e;stroke:#ffffff;stroke-width:0.48;"/>
    <path clip-path="url(#p82ee61fae6)" d="M 84.546066 53.218279 
L 84.546066 57.460919 
L 88.788707 57.460919 
L 88.788707 53.218279 
z
" style="fill:#a7226e;stroke:#ffffff;stroke-width:0.48;"/>
    <path clip-path="url(#p82ee61fae6)" d="M 91.309702 53.218279 
L 91.309702 57.460919 
L 95.552343 57.460919 
L 95.552343 53.218279 
z
" style="fill:#a7226e;stroke:#ffffff;stroke-width:0.48;"/>
    <path clip-path="url(#p82ee61fae6)" d="M 98.073339 69.950498 
L 98.073339 74.193139 
L 102.315979 74.193139 
L 102.315979 69.950498 
z
" style="fill:#a7226e;stroke:#ffffff;stroke-width:0.48;"/>
    <path clip-path="url(#p82ee61fae6)" d="M 104.836975 53.218279 
L 104.836975 57.460919 
L 109.079616 57.460919 
L 109.079616 53.218279 
z
" style="fill:#a7226e;stroke:#ffffff;stroke-width:0.48;"/>
    <path clip-path="url(#p82ee61fae6)" d="M 111.600611 53.218279 
L 111.600611 57.460919 
L 115.843252 57.460919 
L 115.843252 53.218279 
z
" style="fill:#a7226e;stroke:#ffffff;stroke-width:0.48;"/>
    <path clip-path="url(#p82ee61fae6)" d="M 118.364248 53.218279 
L 118.364248 57.460919 
L 122.606889 57.460919 
L 122.606889 53.218279 
z
" style="fill:#a7226e;stroke:#ffffff;stroke-width:0.48;"/>
    <path clip-path="url(#p82ee61fae6)" d="M 125.127884 36.48606 
L 125.127884 40.7287 
L 129.370525 40.7287 
L 129.370525 36.48606 
z
" style="fill:#a7226e;stroke:#ffffff;stroke-width:0.48;"/>
    <path clip-path="url(#p82ee61fae6)" d="M 131.891521 53.218279 
L 131.891521 57.460919 
L 136.134161 57.460919 
L 136.134161 53.218279 
z
" style="fill:#a7226e;stroke:#ffffff;stroke-width:0.48;"/>
    <path clip-path="url(#p82ee61fae6)" d="M 138.655157 19.753841 
L 138.655157 23.996481 
L 142.897798 23.996481 
L 142.897798 19.753841 
z
" style="fill:#a7226e;stroke:#ffffff;stroke-width:0.48;"/>
    <path clip-path="url(#p82ee61fae6)" d="M 145.418793 19.753841 
L 145.418793 23.996481 
L 149.661434 23.996481 
L 149.661434 19.753841 
z
" style="fill:#a7226e;stroke:#ffffff;stroke-width:0.48;"/>
    <path clip-path="url(#p82ee61fae6)" d="M 152.18243 19.753841 
L 152.18243 23.996481 
L 156.42507 23.996481 
L 156.42507 19.753841 
z
" style="fill:#a7226e;stroke:#ffffff;stroke-width:0.48;"/>
    <path clip-path="url(#p82ee61fae6)" d="M 158.946066 19.753841 
L 158.946066 23.996481 
L 163.188707 23.996481 
L 163.188707 19.753841 
z
" style="fill:#a7226e;stroke:#ffffff;stroke-width:0.48;"/>
    <path clip-path="url(#p82ee61fae6)" d="M 165.709702 53.218279 
L 165.709702 57.460919 
L 169.952343 57.460919 
L 169.952343 53.218279 
z
" style="fill:#a7226e;stroke:#ffffff;stroke-width:0.48;"/>
    <path clip-path="url(#p82ee61fae6)" d="M 172.473339 36.48606 
L 172.473339 40.7287 
L 176.715979 40.7287 
L 176.715979 36.48606 
z
" style="fill:#a7226e;stroke:#ffffff;stroke-width:0.48;"/>
    <path clip-path="url(#p82ee61fae6)" d="M 179.236975 36.48606 
L 179.236975 40.7287 
L 183.479616 40.7287 
L 183.479616 36.48606 
z
" style="fill:#a7226e;stroke:#ffffff;stroke-width:0.48;"/>
    <path clip-path="url(#p82ee61fae6)" d="M 186.000611 36.48606 
L 186.000611 40.7287 
L 190.243252 40.7287 
L 190.243252 36.48606 
z
" style="fill:#a7226e;stroke:#ffffff;stroke-width:0.48;"/>
    <path clip-path="url(#p82ee61fae6)" d="M 192.764248 36.48606 
L 192.764248 40.7287 
L 197.006889 40.7287 
L 197.006889 36.48606 
z
" style="fill:#a7226e;stroke:#ffffff;stroke-width:0.48;"/>
    <path clip-path="url(#p82ee61fae6)" d="M 199.527884 36.48606 
L 199.527884 40.7287 
L 203.770525 40.7287 
L 203.770525 36.48606 
z
" style="fill:#a7226e;stroke:#ffffff;stroke-width:0.48;"/>
    <path clip-path="url(#p82ee61fae6)" d="M 206.291521 53.218279 
L 206.291521 57.460919 
L 210.534161 57.460919 
L 210.534161 53.218279 
z
" style="fill:#a7226e;stroke:#ffffff;stroke-width:0.48;"/>
    <path clip-path="url(#p82ee61fae6)" d="M 213.055157 53.218279 
L 213.055157 57.460919 
L 217.297798 57.460919 
L 217.297798 53.218279 
z
" style="fill:#a7226e;stroke:#ffffff;stroke-width:0.48;"/>
    <path clip-path="url(#p82ee61fae6)" d="M 219.818793 103.414936 
L 219.818793 107.657577 
L 224.061434 107.657577 
L 224.061434 103.414936 
z
" style="fill:#a7226e;stroke:#ffffff;stroke-width:0.48;"/>
    <path clip-path="url(#p82ee61fae6)" d="M 226.58243 103.414936 
L 226.58243 107.657577 
L 230.82507 107.657577 
L 230.82507 103.414936 
z
" style="fill:#a7226e;stroke:#ffffff;stroke-width:0.48;"/>
    <path clip-path="url(#p82ee61fae6)" d="M 233.346066 103.414936 
L 233.346066 107.657577 
L 237.588707 107.657577 
L 237.588707 103.414936 
z
" style="fill:#a7226e;stroke:#ffffff;stroke-width:0.48;"/>
    <path clip-path="url(#p82ee61fae6)" d="M 240.109702 53.218279 
L 240.109702 57.460919 
L 244.352343 57.460919 
L 244.352343 53.218279 
z
" style="fill:#a7226e;stroke:#ffffff;stroke-width:0.48;"/>
    <path clip-path="url(#p82ee61fae6)" d="M 246.873339 53.218279 
L 246.873339 57.460919 
L 251.115979 57.460919 
L 251.115979 53.218279 
z
" style="fill:#a7226e;stroke:#ffffff;stroke-width:0.48;"/>
    <path clip-path="url(#p82ee61fae6)" d="M 253.636975 53.218279 
L 253.636975 57.460919 
L 257.879616 57.460919 
L 257.879616 53.218279 
z
" style="fill:#a7226e;stroke:#ffffff;stroke-width:0.48;"/>
    <path clip-path="url(#p82ee61fae6)" d="M 260.400611 53.218279 
L 260.400611 57.460919 
L 264.643252 57.460919 
L 264.643252 53.218279 
z
" style="fill:#a7226e;stroke:#ffffff;stroke-width:0.48;"/>
    <path clip-path="url(#p82ee61fae6)" d="M 267.164248 53.218279 
L 267.164248 57.460919 
L 271.406889 57.460919 
L 271.406889 53.218279 
z
" style="fill:#a7226e;stroke:#ffffff;stroke-width:0.48;"/>
    <path clip-path="url(#p82ee61fae6)" d="M 273.927884 53.218279 
L 273.927884 57.460919 
L 278.170525 57.460919 
L 278.170525 53.218279 
z
" style="fill:#a7226e;stroke:#ffffff;stroke-width:0.48;"/>
    <path clip-path="url(#p82ee61fae6)" d="M 280.691521 53.218279 
L 280.691521 57.460919 
L 284.934161 57.460919 
L 284.934161 53.218279 
z
" style="fill:#a7226e;stroke:#ffffff;stroke-width:0.48;"/>
    <path clip-path="url(#p82ee61fae6)" d="M 287.455157 86.682717 
L 287.455157 90.925358 
L 291.697798 90.925358 
L 291.697798 86.682717 
z
" style="fill:#a7226e;stroke:#ffffff;stroke-width:0.48;"/>
    <path clip-path="url(#p82ee61fae6)" d="M 294.218793 86.682717 
L 294.218793 90.925358 
L 298.461434 90.925358 
L 298.461434 86.682717 
z
" style="fill:#a7226e;stroke:#ffffff;stroke-width:0.48;"/>
    <path clip-path="url(#p82ee61fae6)" d="M 300.98243 86.682717 
L 300.98243 90.925358 
L 305.22507 90.925358 
L 305.22507 86.682717 
z
" style="fill:#a7226e;stroke:#ffffff;stroke-width:0.48;"/>
    <path clip-path="url(#p82ee61fae6)" d="M 307.746066 86.682717 
L 307.746066 90.925358 
L 311.988707 90.925358 
L 311.988707 86.682717 
z
" style="fill:#a7226e;stroke:#ffffff;stroke-width:0.48;"/>
    <path clip-path="url(#p82ee61fae6)" d="M 314.509702 86.682717 
L 314.509702 90.925358 
L 318.752343 90.925358 
L 318.752343 86.682717 
z
" style="fill:#a7226e;stroke:#ffffff;stroke-width:0.48;"/>
    <path clip-path="url(#p82ee61fae6)" d="M 321.273339 86.682717 
L 321.273339 90.925358 
L 325.515979 90.925358 
L 325.515979 86.682717 
z
" style="fill:#a7226e;stroke:#ffffff;stroke-width:0.48;"/>
    <path clip-path="url(#p82ee61fae6)" d="M 328.036975 86.682717 
L 328.036975 90.925358 
L 332.279616 90.925358 
L 332.279616 86.682717 
z
" style="fill:#a7226e;stroke:#ffffff;stroke-width:0.48;"/>
    <path clip-path="url(#p82ee61fae6)" d="M 334.800611 86.682717 
L 334.800611 90.925358 
L 339.043252 90.925358 
L 339.043252 86.682717 
z
" style="fill:#a7226e;stroke:#ffffff;stroke-width:0.48;"/>
    <path clip-path="url(#p82ee61fae6)" d="M 341.564248 86.682717 
L 341.564248 90.925358 
L 345.806889 90.925358 
L 345.806889 86.682717 
z
" style="fill:#a7226e;stroke:#ffffff;stroke-width:0.48;"/>
    <path clip-path="url(#p82ee61fae6)" d="M 348.327884 86.682717 
L 348.327884 90.925358 
L 352.570525 90.925358 
L 352.570525 86.682717 
z
" style="fill:#a7226e;stroke:#ffffff;stroke-width:0.48;"/>
    <path clip-path="url(#p82ee61fae6)" d="M 355.091521 86.682717 
L 355.091521 90.925358 
L 359.334161 90.925358 
L 359.334161 86.682717 
z
" style="fill:#a7226e;stroke:#ffffff;stroke-width:0.48;"/>
    <path clip-path="url(#p82ee61fae6)" d="M 361.855157 86.682717 
L 361.855157 90.925358 
L 366.097798 90.925358 
L 366.097798 86.682717 
z
" style="fill:#a7226e;stroke:#ffffff;stroke-width:0.48;"/>
    <path clip-path="url(#p82ee61fae6)" d="M 368.618793 86.682717 
L 368.618793 90.925358 
L 372.861434 90.925358 
L 372.861434 86.682717 
z
" style="fill:#a7226e;stroke:#ffffff;stroke-width:0.48;"/>
    <path clip-path="url(#p82ee61fae6)" d="M 375.38243 86.682717 
L 375.38243 90.925358 
L 379.62507 90.925358 
L 379.62507 86.682717 
z
" style="fill:#a7226e;stroke:#ffffff;stroke-width:0.48;"/>
    <path clip-path="url(#p82ee61fae6)" d="M 382.146066 86.682717 
L 382.146066 90.925358 
L 386.388707 90.925358 
L 386.388707 86.682717 
z
" style="fill:#a7226e;stroke:#ffffff;stroke-width:0.48;"/>
    <path clip-path="url(#p82ee61fae6)" d="M 388.909702 86.682717 
L 388.909702 90.925358 
L 393.152343 90.925358 
L 393.152343 86.682717 
z
" style="fill:#a7226e;stroke:#ffffff;stroke-width:0.48;"/>
   </g>
   <g id="PathCollection_2"/>
   <g id="PathCollection_3"/>
   <g id="PathCollection_4"/>
   <g id="matplotlib.axis_1">
    <g id="xtick_1">
     <g id="line2d_1">
      <defs>
       <path d="M 0 0 
L 0 3.5 
" id="m95b2d08191" style="stroke:#000000;stroke-width:0.8;"/>
      </defs>
      <g>
       <use style="stroke:#000000;stroke-width:0.8;" x="59.612841" xlink:href="#m95b2d08191" y="275.891161"/>
      </g>
     </g>
     <g id="text_1">
      <!-- 0.0 -->
      <g transform="translate(51.661278 290.489599)scale(0.1 -0.1)">
       <defs>
        <path d="M 31.78125 66.40625 
Q 24.171875 66.40625 20.328125 58.90625 
Q 16.5 51.421875 16.5 36.375 
Q 16.5 21.390625 20.328125 13.890625 
Q 24.171875 6.390625 31.78125 6.390625 
Q 39.453125 6.390625 43.28125 13.890625 
Q 47.125 21.390625 47.125 36.375 
Q 47.125 51.421875 43.28125 58.90625 
Q 39.453125 66.40625 31.78125 66.40625 
z
M 31.78125 74.21875 
Q 44.046875 74.21875 50.515625 64.515625 
Q 56.984375 54.828125 56.984375 36.375 
Q 56.984375 17.96875 50.515625 8.265625 
Q 44.046875 -1.421875 31.78125 -1.421875 
Q 19.53125 -1.421875 13.0625 8.265625 
Q 6.59375 17.96875 6.59375 36.375 
Q 6.59375 54.828125 13.0625 64.515625 
Q 19.53125 74.21875 31.78125 74.21875 
z
" id="DejaVuSans-48"/>
        <path d="M 10.6875 12.40625 
L 21 12.40625 
L 21 0 
L 10.6875 0 
z
" id="DejaVuSans-46"/>
       </defs>
       <use xlink:href="#DejaVuSans-48"/>
       <use x="63.623047" xlink:href="#DejaVuSans-46"/>
       <use x="95.410156" xlink:href="#DejaVuSans-48"/>
      </g>
     </g>
    </g>
    <g id="xtick_2">
     <g id="line2d_2">
      <g>
       <use style="stroke:#000000;stroke-width:0.8;" x="127.249205" xlink:href="#m95b2d08191" y="275.891161"/>
      </g>
     </g>
     <g id="text_2">
      <!-- 0.2 -->
      <g transform="translate(119.297642 290.489599)scale(0.1 -0.1)">
       <defs>
        <path d="M 19.1875 8.296875 
L 53.609375 8.296875 
L 53.609375 0 
L 7.328125 0 
L 7.328125 8.296875 
Q 12.9375 14.109375 22.625 23.890625 
Q 32.328125 33.6875 34.8125 36.53125 
Q 39.546875 41.84375 41.421875 45.53125 
Q 43.3125 49.21875 43.3125 52.78125 
Q 43.3125 58.59375 39.234375 62.25 
Q 35.15625 65.921875 28.609375 65.921875 
Q 23.96875 65.921875 18.8125 64.3125 
Q 13.671875 62.703125 7.8125 59.421875 
L 7.8125 69.390625 
Q 13.765625 71.78125 18.9375 73 
Q 24.125 74.21875 28.421875 74.21875 
Q 39.75 74.21875 46.484375 68.546875 
Q 53.21875 62.890625 53.21875 53.421875 
Q 53.21875 48.921875 51.53125 44.890625 
Q 49.859375 40.875 45.40625 35.40625 
Q 44.1875 33.984375 37.640625 27.21875 
Q 31.109375 20.453125 19.1875 8.296875 
z
" id="DejaVuSans-50"/>
       </defs>
       <use xlink:href="#DejaVuSans-48"/>
       <use x="63.623047" xlink:href="#DejaVuSans-46"/>
       <use x="95.410156" xlink:href="#DejaVuSans-50"/>
      </g>
     </g>
    </g>
    <g id="xtick_3">
     <g id="line2d_3">
      <g>
       <use style="stroke:#000000;stroke-width:0.8;" x="194.885568" xlink:href="#m95b2d08191" y="275.891161"/>
      </g>
     </g>
     <g id="text_3">
      <!-- 0.4 -->
      <g transform="translate(186.934006 290.489599)scale(0.1 -0.1)">
       <defs>
        <path d="M 37.796875 64.3125 
L 12.890625 25.390625 
L 37.796875 25.390625 
z
M 35.203125 72.90625 
L 47.609375 72.90625 
L 47.609375 25.390625 
L 58.015625 25.390625 
L 58.015625 17.1875 
L 47.609375 17.1875 
L 47.609375 0 
L 37.796875 0 
L 37.796875 17.1875 
L 4.890625 17.1875 
L 4.890625 26.703125 
z
" id="DejaVuSans-52"/>
       </defs>
       <use xlink:href="#DejaVuSans-48"/>
       <use x="63.623047" xlink:href="#DejaVuSans-46"/>
       <use x="95.410156" xlink:href="#DejaVuSans-52"/>
      </g>
     </g>
    </g>
    <g id="xtick_4">
     <g id="line2d_4">
      <g>
       <use style="stroke:#000000;stroke-width:0.8;" x="262.521932" xlink:href="#m95b2d08191" y="275.891161"/>
      </g>
     </g>
     <g id="text_4">
      <!-- 0.6 -->
      <g transform="translate(254.570369 290.489599)scale(0.1 -0.1)">
       <defs>
        <path d="M 33.015625 40.375 
Q 26.375 40.375 22.484375 35.828125 
Q 18.609375 31.296875 18.609375 23.390625 
Q 18.609375 15.53125 22.484375 10.953125 
Q 26.375 6.390625 33.015625 6.390625 
Q 39.65625 6.390625 43.53125 10.953125 
Q 47.40625 15.53125 47.40625 23.390625 
Q 47.40625 31.296875 43.53125 35.828125 
Q 39.65625 40.375 33.015625 40.375 
z
M 52.59375 71.296875 
L 52.59375 62.3125 
Q 48.875 64.0625 45.09375 64.984375 
Q 41.3125 65.921875 37.59375 65.921875 
Q 27.828125 65.921875 22.671875 59.328125 
Q 17.53125 52.734375 16.796875 39.40625 
Q 19.671875 43.65625 24.015625 45.921875 
Q 28.375 48.1875 33.59375 48.1875 
Q 44.578125 48.1875 50.953125 41.515625 
Q 57.328125 34.859375 57.328125 23.390625 
Q 57.328125 12.15625 50.6875 5.359375 
Q 44.046875 -1.421875 33.015625 -1.421875 
Q 20.359375 -1.421875 13.671875 8.265625 
Q 6.984375 17.96875 6.984375 36.375 
Q 6.984375 53.65625 15.1875 63.9375 
Q 23.390625 74.21875 37.203125 74.21875 
Q 40.921875 74.21875 44.703125 73.484375 
Q 48.484375 72.75 52.59375 71.296875 
z
" id="DejaVuSans-54"/>
       </defs>
       <use xlink:href="#DejaVuSans-48"/>
       <use x="63.623047" xlink:href="#DejaVuSans-46"/>
       <use x="95.410156" xlink:href="#DejaVuSans-54"/>
      </g>
     </g>
    </g>
    <g id="xtick_5">
     <g id="line2d_5">
      <g>
       <use style="stroke:#000000;stroke-width:0.8;" x="330.158295" xlink:href="#m95b2d08191" y="275.891161"/>
      </g>
     </g>
     <g id="text_5">
      <!-- 0.8 -->
      <g transform="translate(322.206733 290.489599)scale(0.1 -0.1)">
       <defs>
        <path d="M 31.78125 34.625 
Q 24.75 34.625 20.71875 30.859375 
Q 16.703125 27.09375 16.703125 20.515625 
Q 16.703125 13.921875 20.71875 10.15625 
Q 24.75 6.390625 31.78125 6.390625 
Q 38.8125 6.390625 42.859375 10.171875 
Q 46.921875 13.96875 46.921875 20.515625 
Q 46.921875 27.09375 42.890625 30.859375 
Q 38.875 34.625 31.78125 34.625 
z
M 21.921875 38.8125 
Q 15.578125 40.375 12.03125 44.71875 
Q 8.5 49.078125 8.5 55.328125 
Q 8.5 64.0625 14.71875 69.140625 
Q 20.953125 74.21875 31.78125 74.21875 
Q 42.671875 74.21875 48.875 69.140625 
Q 55.078125 64.0625 55.078125 55.328125 
Q 55.078125 49.078125 51.53125 44.71875 
Q 48 40.375 41.703125 38.8125 
Q 48.828125 37.15625 52.796875 32.3125 
Q 56.78125 27.484375 56.78125 20.515625 
Q 56.78125 9.90625 50.3125 4.234375 
Q 43.84375 -1.421875 31.78125 -1.421875 
Q 19.734375 -1.421875 13.25 4.234375 
Q 6.78125 9.90625 6.78125 20.515625 
Q 6.78125 27.484375 10.78125 32.3125 
Q 14.796875 37.15625 21.921875 38.8125 
z
M 18.3125 54.390625 
Q 18.3125 48.734375 21.84375 45.5625 
Q 25.390625 42.390625 31.78125 42.390625 
Q 38.140625 42.390625 41.71875 45.5625 
Q 45.3125 48.734375 45.3125 54.390625 
Q 45.3125 60.0625 41.71875 63.234375 
Q 38.140625 66.40625 31.78125 66.40625 
Q 25.390625 66.40625 21.84375 63.234375 
Q 18.3125 60.0625 18.3125 54.390625 
z
" id="DejaVuSans-56"/>
       </defs>
       <use xlink:href="#DejaVuSans-48"/>
       <use x="63.623047" xlink:href="#DejaVuSans-46"/>
       <use x="95.410156" xlink:href="#DejaVuSans-56"/>
      </g>
     </g>
    </g>
    <g id="xtick_6">
     <g id="line2d_6">
      <g>
       <use style="stroke:#000000;stroke-width:0.8;" x="397.794659" xlink:href="#m95b2d08191" y="275.891161"/>
      </g>
     </g>
     <g id="text_6">
      <!-- 1.0 -->
      <g transform="translate(389.843097 290.489599)scale(0.1 -0.1)">
       <defs>
        <path d="M 12.40625 8.296875 
L 28.515625 8.296875 
L 28.515625 63.921875 
L 10.984375 60.40625 
L 10.984375 69.390625 
L 28.421875 72.90625 
L 38.28125 72.90625 
L 38.28125 8.296875 
L 54.390625 8.296875 
L 54.390625 0 
L 12.40625 0 
z
" id="DejaVuSans-49"/>
       </defs>
       <use xlink:href="#DejaVuSans-49"/>
       <use x="63.623047" xlink:href="#DejaVuSans-46"/>
       <use x="95.410156" xlink:href="#DejaVuSans-48"/>
      </g>
     </g>
    </g>
    <g id="text_7">
     <!-- cutoff -->
     <g transform="translate(214.245938 304.167724)scale(0.1 -0.1)">
      <defs>
       <path d="M 48.78125 52.59375 
L 48.78125 44.1875 
Q 44.96875 46.296875 41.140625 47.34375 
Q 37.3125 48.390625 33.40625 48.390625 
Q 24.65625 48.390625 19.8125 42.84375 
Q 14.984375 37.3125 14.984375 27.296875 
Q 14.984375 17.28125 19.8125 11.734375 
Q 24.65625 6.203125 33.40625 6.203125 
Q 37.3125 6.203125 41.140625 7.25 
Q 44.96875 8.296875 48.78125 10.40625 
L 48.78125 2.09375 
Q 45.015625 0.34375 40.984375 -0.53125 
Q 36.96875 -1.421875 32.421875 -1.421875 
Q 20.0625 -1.421875 12.78125 6.34375 
Q 5.515625 14.109375 5.515625 27.296875 
Q 5.515625 40.671875 12.859375 48.328125 
Q 20.21875 56 33.015625 56 
Q 37.15625 56 41.109375 55.140625 
Q 45.0625 54.296875 48.78125 52.59375 
z
" id="DejaVuSans-99"/>
       <path d="M 8.5 21.578125 
L 8.5 54.6875 
L 17.484375 54.6875 
L 17.484375 21.921875 
Q 17.484375 14.15625 20.5 10.265625 
Q 23.53125 6.390625 29.59375 6.390625 
Q 36.859375 6.390625 41.078125 11.03125 
Q 45.3125 15.671875 45.3125 23.6875 
L 45.3125 54.6875 
L 54.296875 54.6875 
L 54.296875 0 
L 45.3125 0 
L 45.3125 8.40625 
Q 42.046875 3.421875 37.71875 1 
Q 33.40625 -1.421875 27.6875 -1.421875 
Q 18.265625 -1.421875 13.375 4.4375 
Q 8.5 10.296875 8.5 21.578125 
z
M 31.109375 56 
z
" id="DejaVuSans-117"/>
       <path d="M 18.3125 70.21875 
L 18.3125 54.6875 
L 36.8125 54.6875 
L 36.8125 47.703125 
L 18.3125 47.703125 
L 18.3125 18.015625 
Q 18.3125 11.328125 20.140625 9.421875 
Q 21.96875 7.515625 27.59375 7.515625 
L 36.8125 7.515625 
L 36.8125 0 
L 27.59375 0 
Q 17.1875 0 13.234375 3.875 
Q 9.28125 7.765625 9.28125 18.015625 
L 9.28125 47.703125 
L 2.6875 47.703125 
L 2.6875 54.6875 
L 9.28125 54.6875 
L 9.28125 70.21875 
z
" id="DejaVuSans-116"/>
       <path d="M 30.609375 48.390625 
Q 23.390625 48.390625 19.1875 42.75 
Q 14.984375 37.109375 14.984375 27.296875 
Q 14.984375 17.484375 19.15625 11.84375 
Q 23.34375 6.203125 30.609375 6.203125 
Q 37.796875 6.203125 41.984375 11.859375 
Q 46.1875 17.53125 46.1875 27.296875 
Q 46.1875 37.015625 41.984375 42.703125 
Q 37.796875 48.390625 30.609375 48.390625 
z
M 30.609375 56 
Q 42.328125 56 49.015625 48.375 
Q 55.71875 40.765625 55.71875 27.296875 
Q 55.71875 13.875 49.015625 6.21875 
Q 42.328125 -1.421875 30.609375 -1.421875 
Q 18.84375 -1.421875 12.171875 6.21875 
Q 5.515625 13.875 5.515625 27.296875 
Q 5.515625 40.765625 12.171875 48.375 
Q 18.84375 56 30.609375 56 
z
" id="DejaVuSans-111"/>
       <path d="M 37.109375 75.984375 
L 37.109375 68.5 
L 28.515625 68.5 
Q 23.6875 68.5 21.796875 66.546875 
Q 19.921875 64.59375 19.921875 59.515625 
L 19.921875 54.6875 
L 34.71875 54.6875 
L 34.71875 47.703125 
L 19.921875 47.703125 
L 19.921875 0 
L 10.890625 0 
L 10.890625 47.703125 
L 2.296875 47.703125 
L 2.296875 54.6875 
L 10.890625 54.6875 
L 10.890625 58.5 
Q 10.890625 67.625 15.140625 71.796875 
Q 19.390625 75.984375 28.609375 75.984375 
z
" id="DejaVuSans-102"/>
      </defs>
      <use xlink:href="#DejaVuSans-99"/>
      <use x="54.980469" xlink:href="#DejaVuSans-117"/>
      <use x="118.359375" xlink:href="#DejaVuSans-116"/>
      <use x="157.568359" xlink:href="#DejaVuSans-111"/>
      <use x="218.75" xlink:href="#DejaVuSans-102"/>
      <use x="253.955078" xlink:href="#DejaVuSans-102"/>
     </g>
    </g>
   </g>
   <g id="matplotlib.axis_2">
    <g id="ytick_1">
     <g id="line2d_7">
      <defs>
       <path d="M 0 0 
L -3.5 0 
" id="m68696e8a62" style="stroke:#000000;stroke-width:0.8;"/>
      </defs>
      <g>
       <use style="stroke:#000000;stroke-width:0.8;" x="50.14375" xlink:href="#m68696e8a62" y="256.962838"/>
      </g>
     </g>
     <g id="text_8">
      <!-- 0.55 -->
      <g transform="translate(20.878125 260.762057)scale(0.1 -0.1)">
       <defs>
        <path d="M 10.796875 72.90625 
L 49.515625 72.90625 
L 49.515625 64.59375 
L 19.828125 64.59375 
L 19.828125 46.734375 
Q 21.96875 47.46875 24.109375 47.828125 
Q 26.265625 48.1875 28.421875 48.1875 
Q 40.625 48.1875 47.75 41.5 
Q 54.890625 34.8125 54.890625 23.390625 
Q 54.890625 11.625 47.5625 5.09375 
Q 40.234375 -1.421875 26.90625 -1.421875 
Q 22.3125 -1.421875 17.546875 -0.640625 
Q 12.796875 0.140625 7.71875 1.703125 
L 7.71875 11.625 
Q 12.109375 9.234375 16.796875 8.0625 
Q 21.484375 6.890625 26.703125 6.890625 
Q 35.15625 6.890625 40.078125 11.328125 
Q 45.015625 15.765625 45.015625 23.390625 
Q 45.015625 31 40.078125 35.4375 
Q 35.15625 39.890625 26.703125 39.890625 
Q 22.75 39.890625 18.8125 39.015625 
Q 14.890625 38.140625 10.796875 36.28125 
z
" id="DejaVuSans-53"/>
       </defs>
       <use xlink:href="#DejaVuSans-48"/>
       <use x="63.623047" xlink:href="#DejaVuSans-46"/>
       <use x="95.410156" xlink:href="#DejaVuSans-53"/>
       <use x="159.033203" xlink:href="#DejaVuSans-53"/>
      </g>
     </g>
    </g>
    <g id="ytick_2">
     <g id="line2d_8">
      <g>
       <use style="stroke:#000000;stroke-width:0.8;" x="50.14375" xlink:href="#m68696e8a62" y="215.968902"/>
      </g>
     </g>
     <g id="text_9">
      <!-- 0.60 -->
      <g transform="translate(20.878125 219.76812)scale(0.1 -0.1)">
       <use xlink:href="#DejaVuSans-48"/>
       <use x="63.623047" xlink:href="#DejaVuSans-46"/>
       <use x="95.410156" xlink:href="#DejaVuSans-54"/>
       <use x="159.033203" xlink:href="#DejaVuSans-48"/>
      </g>
     </g>
    </g>
    <g id="ytick_3">
     <g id="line2d_9">
      <g>
       <use style="stroke:#000000;stroke-width:0.8;" x="50.14375" xlink:href="#m68696e8a62" y="174.974965"/>
      </g>
     </g>
     <g id="text_10">
      <!-- 0.65 -->
      <g transform="translate(20.878125 178.774184)scale(0.1 -0.1)">
       <use xlink:href="#DejaVuSans-48"/>
       <use x="63.623047" xlink:href="#DejaVuSans-46"/>
       <use x="95.410156" xlink:href="#DejaVuSans-54"/>
       <use x="159.033203" xlink:href="#DejaVuSans-53"/>
      </g>
     </g>
    </g>
    <g id="ytick_4">
     <g id="line2d_10">
      <g>
       <use style="stroke:#000000;stroke-width:0.8;" x="50.14375" xlink:href="#m68696e8a62" y="133.981029"/>
      </g>
     </g>
     <g id="text_11">
      <!-- 0.70 -->
      <g transform="translate(20.878125 137.780247)scale(0.1 -0.1)">
       <defs>
        <path d="M 8.203125 72.90625 
L 55.078125 72.90625 
L 55.078125 68.703125 
L 28.609375 0 
L 18.3125 0 
L 43.21875 64.59375 
L 8.203125 64.59375 
z
" id="DejaVuSans-55"/>
       </defs>
       <use xlink:href="#DejaVuSans-48"/>
       <use x="63.623047" xlink:href="#DejaVuSans-46"/>
       <use x="95.410156" xlink:href="#DejaVuSans-55"/>
       <use x="159.033203" xlink:href="#DejaVuSans-48"/>
      </g>
     </g>
    </g>
    <g id="ytick_5">
     <g id="line2d_11">
      <g>
       <use style="stroke:#000000;stroke-width:0.8;" x="50.14375" xlink:href="#m68696e8a62" y="92.987092"/>
      </g>
     </g>
     <g id="text_12">
      <!-- 0.75 -->
      <g transform="translate(20.878125 96.786311)scale(0.1 -0.1)">
       <use xlink:href="#DejaVuSans-48"/>
       <use x="63.623047" xlink:href="#DejaVuSans-46"/>
       <use x="95.410156" xlink:href="#DejaVuSans-55"/>
       <use x="159.033203" xlink:href="#DejaVuSans-53"/>
      </g>
     </g>
    </g>
    <g id="ytick_6">
     <g id="line2d_12">
      <g>
       <use style="stroke:#000000;stroke-width:0.8;" x="50.14375" xlink:href="#m68696e8a62" y="51.993155"/>
      </g>
     </g>
     <g id="text_13">
      <!-- 0.80 -->
      <g transform="translate(20.878125 55.792374)scale(0.1 -0.1)">
       <use xlink:href="#DejaVuSans-48"/>
       <use x="63.623047" xlink:href="#DejaVuSans-46"/>
       <use x="95.410156" xlink:href="#DejaVuSans-56"/>
       <use x="159.033203" xlink:href="#DejaVuSans-48"/>
      </g>
     </g>
    </g>
    <g id="ytick_7">
     <g id="line2d_13">
      <g>
       <use style="stroke:#000000;stroke-width:0.8;" x="50.14375" xlink:href="#m68696e8a62" y="10.999219"/>
      </g>
     </g>
     <g id="text_14">
      <!-- 0.85 -->
      <g transform="translate(20.878125 14.798437)scale(0.1 -0.1)">
       <use xlink:href="#DejaVuSans-48"/>
       <use x="63.623047" xlink:href="#DejaVuSans-46"/>
       <use x="95.410156" xlink:href="#DejaVuSans-56"/>
       <use x="159.033203" xlink:href="#DejaVuSans-53"/>
      </g>
     </g>
    </g>
    <g id="text_15">
     <!-- performance -->
     <g transform="translate(14.798438 174.857817)rotate(-90)scale(0.1 -0.1)">
      <defs>
       <path d="M 18.109375 8.203125 
L 18.109375 -20.796875 
L 9.078125 -20.796875 
L 9.078125 54.6875 
L 18.109375 54.6875 
L 18.109375 46.390625 
Q 20.953125 51.265625 25.265625 53.625 
Q 29.59375 56 35.59375 56 
Q 45.5625 56 51.78125 48.09375 
Q 58.015625 40.1875 58.015625 27.296875 
Q 58.015625 14.40625 51.78125 6.484375 
Q 45.5625 -1.421875 35.59375 -1.421875 
Q 29.59375 -1.421875 25.265625 0.953125 
Q 20.953125 3.328125 18.109375 8.203125 
z
M 48.6875 27.296875 
Q 48.6875 37.203125 44.609375 42.84375 
Q 40.53125 48.484375 33.40625 48.484375 
Q 26.265625 48.484375 22.1875 42.84375 
Q 18.109375 37.203125 18.109375 27.296875 
Q 18.109375 17.390625 22.1875 11.75 
Q 26.265625 6.109375 33.40625 6.109375 
Q 40.53125 6.109375 44.609375 11.75 
Q 48.6875 17.390625 48.6875 27.296875 
z
" id="DejaVuSans-112"/>
       <path d="M 56.203125 29.59375 
L 56.203125 25.203125 
L 14.890625 25.203125 
Q 15.484375 15.921875 20.484375 11.0625 
Q 25.484375 6.203125 34.421875 6.203125 
Q 39.59375 6.203125 44.453125 7.46875 
Q 49.3125 8.734375 54.109375 11.28125 
L 54.109375 2.78125 
Q 49.265625 0.734375 44.1875 -0.34375 
Q 39.109375 -1.421875 33.890625 -1.421875 
Q 20.796875 -1.421875 13.15625 6.1875 
Q 5.515625 13.8125 5.515625 26.8125 
Q 5.515625 40.234375 12.765625 48.109375 
Q 20.015625 56 32.328125 56 
Q 43.359375 56 49.78125 48.890625 
Q 56.203125 41.796875 56.203125 29.59375 
z
M 47.21875 32.234375 
Q 47.125 39.59375 43.09375 43.984375 
Q 39.0625 48.390625 32.421875 48.390625 
Q 24.90625 48.390625 20.390625 44.140625 
Q 15.875 39.890625 15.1875 32.171875 
z
" id="DejaVuSans-101"/>
       <path d="M 41.109375 46.296875 
Q 39.59375 47.171875 37.8125 47.578125 
Q 36.03125 48 33.890625 48 
Q 26.265625 48 22.1875 43.046875 
Q 18.109375 38.09375 18.109375 28.8125 
L 18.109375 0 
L 9.078125 0 
L 9.078125 54.6875 
L 18.109375 54.6875 
L 18.109375 46.1875 
Q 20.953125 51.171875 25.484375 53.578125 
Q 30.03125 56 36.53125 56 
Q 37.453125 56 38.578125 55.875 
Q 39.703125 55.765625 41.0625 55.515625 
z
" id="DejaVuSans-114"/>
       <path d="M 52 44.1875 
Q 55.375 50.25 60.0625 53.125 
Q 64.75 56 71.09375 56 
Q 79.640625 56 84.28125 50.015625 
Q 88.921875 44.046875 88.921875 33.015625 
L 88.921875 0 
L 79.890625 0 
L 79.890625 32.71875 
Q 79.890625 40.578125 77.09375 44.375 
Q 74.3125 48.1875 68.609375 48.1875 
Q 61.625 48.1875 57.5625 43.546875 
Q 53.515625 38.921875 53.515625 30.90625 
L 53.515625 0 
L 44.484375 0 
L 44.484375 32.71875 
Q 44.484375 40.625 41.703125 44.40625 
Q 38.921875 48.1875 33.109375 48.1875 
Q 26.21875 48.1875 22.15625 43.53125 
Q 18.109375 38.875 18.109375 30.90625 
L 18.109375 0 
L 9.078125 0 
L 9.078125 54.6875 
L 18.109375 54.6875 
L 18.109375 46.1875 
Q 21.1875 51.21875 25.484375 53.609375 
Q 29.78125 56 35.6875 56 
Q 41.65625 56 45.828125 52.96875 
Q 50 49.953125 52 44.1875 
z
" id="DejaVuSans-109"/>
       <path d="M 34.28125 27.484375 
Q 23.390625 27.484375 19.1875 25 
Q 14.984375 22.515625 14.984375 16.5 
Q 14.984375 11.71875 18.140625 8.90625 
Q 21.296875 6.109375 26.703125 6.109375 
Q 34.1875 6.109375 38.703125 11.40625 
Q 43.21875 16.703125 43.21875 25.484375 
L 43.21875 27.484375 
z
M 52.203125 31.203125 
L 52.203125 0 
L 43.21875 0 
L 43.21875 8.296875 
Q 40.140625 3.328125 35.546875 0.953125 
Q 30.953125 -1.421875 24.3125 -1.421875 
Q 15.921875 -1.421875 10.953125 3.296875 
Q 6 8.015625 6 15.921875 
Q 6 25.140625 12.171875 29.828125 
Q 18.359375 34.515625 30.609375 34.515625 
L 43.21875 34.515625 
L 43.21875 35.40625 
Q 43.21875 41.609375 39.140625 45 
Q 35.0625 48.390625 27.6875 48.390625 
Q 23 48.390625 18.546875 47.265625 
Q 14.109375 46.140625 10.015625 43.890625 
L 10.015625 52.203125 
Q 14.9375 54.109375 19.578125 55.046875 
Q 24.21875 56 28.609375 56 
Q 40.484375 56 46.34375 49.84375 
Q 52.203125 43.703125 52.203125 31.203125 
z
" id="DejaVuSans-97"/>
       <path d="M 54.890625 33.015625 
L 54.890625 0 
L 45.90625 0 
L 45.90625 32.71875 
Q 45.90625 40.484375 42.875 44.328125 
Q 39.84375 48.1875 33.796875 48.1875 
Q 26.515625 48.1875 22.3125 43.546875 
Q 18.109375 38.921875 18.109375 30.90625 
L 18.109375 0 
L 9.078125 0 
L 9.078125 54.6875 
L 18.109375 54.6875 
L 18.109375 46.1875 
Q 21.34375 51.125 25.703125 53.5625 
Q 30.078125 56 35.796875 56 
Q 45.21875 56 50.046875 50.171875 
Q 54.890625 44.34375 54.890625 33.015625 
z
" id="DejaVuSans-110"/>
      </defs>
      <use xlink:href="#DejaVuSans-112"/>
      <use x="63.476562" xlink:href="#DejaVuSans-101"/>
      <use x="125" xlink:href="#DejaVuSans-114"/>
      <use x="166.113281" xlink:href="#DejaVuSans-102"/>
      <use x="201.318359" xlink:href="#DejaVuSans-111"/>
      <use x="262.5" xlink:href="#DejaVuSans-114"/>
      <use x="301.863281" xlink:href="#DejaVuSans-109"/>
      <use x="399.275391" xlink:href="#DejaVuSans-97"/>
      <use x="460.554688" xlink:href="#DejaVuSans-110"/>
      <use x="523.933594" xlink:href="#DejaVuSans-99"/>
      <use x="578.914062" xlink:href="#DejaVuSans-101"/>
     </g>
    </g>
   </g>
   <g id="line2d_14">
    <path clip-path="url(#p82ee61fae6)" d="M 66.376477 75.906285 
L 73.140114 58.825478 
L 79.90375 24.663864 
L 86.667386 24.663864 
L 93.431023 24.663864 
L 100.194659 58.825478 
L 106.958295 58.825478 
L 113.721932 58.825478 
L 120.485568 58.825478 
L 127.249205 110.067899 
L 134.012841 127.148706 
L 140.776477 178.391127 
L 147.540114 229.633547 
L 154.30375 229.633547 
L 161.067386 127.148706 
L 167.831023 127.148706 
L 174.594659 127.148706 
L 181.358295 127.148706 
L 188.121932 127.148706 
L 194.885568 127.148706 
L 201.649205 127.148706 
L 208.412841 127.148706 
L 215.176477 127.148706 
L 221.940114 127.148706 
L 228.70375 144.229513 
L 235.467386 161.31032 
L 242.231023 161.31032 
L 248.994659 161.31032 
L 255.758295 161.31032 
L 262.521932 161.31032 
L 269.285568 161.31032 
L 276.049205 161.31032 
L 282.812841 161.31032 
L 289.576477 161.31032 
L 296.340114 161.31032 
L 303.10375 161.31032 
L 309.867386 161.31032 
L 316.631023 161.31032 
L 323.394659 161.31032 
L 330.158295 161.31032 
L 336.921932 161.31032 
L 343.685568 161.31032 
L 350.449205 161.31032 
L 357.212841 161.31032 
L 363.976477 161.31032 
L 370.740114 161.31032 
L 377.50375 161.31032 
L 384.267386 161.31032 
L 391.031023 161.31032 
" style="fill:none;stroke:#f26b38;stroke-dasharray:7.4,3.2;stroke-dashoffset:0;stroke-width:2;"/>
   </g>
   <g id="line2d_15">
    <path clip-path="url(#p82ee61fae6)" d="M 66.376477 212.55274 
L 73.140114 178.391127 
L 79.90375 178.391127 
L 86.667386 178.391127 
L 93.431023 229.633547 
L 100.194659 229.633547 
L 106.958295 229.633547 
L 113.721932 229.633547 
L 120.485568 229.633547 
L 127.249205 229.633547 
L 134.012841 229.633547 
L 140.776477 229.633547 
L 147.540114 229.633547 
L 154.30375 229.633547 
L 161.067386 229.633547 
L 167.831023 229.633547 
L 174.594659 263.795161 
L 181.358295 263.795161 
L 188.121932 263.795161 
L 194.885568 263.795161 
L 201.649205 263.795161 
L 208.412841 263.795161 
L 215.176477 263.795161 
L 221.940114 263.795161 
L 228.70375 263.795161 
L 235.467386 263.795161 
L 242.231023 263.795161 
L 248.994659 263.795161 
L 255.758295 263.795161 
L 262.521932 263.795161 
L 269.285568 263.795161 
L 276.049205 263.795161 
L 282.812841 263.795161 
L 289.576477 263.795161 
L 296.340114 263.795161 
L 303.10375 263.795161 
L 309.867386 263.795161 
L 316.631023 263.795161 
L 323.394659 263.795161 
L 330.158295 263.795161 
L 336.921932 263.795161 
L 343.685568 263.795161 
L 350.449205 263.795161 
L 357.212841 263.795161 
L 363.976477 263.795161 
L 370.740114 263.795161 
L 377.50375 263.795161 
L 384.267386 263.795161 
L 391.031023 263.795161 
" style="fill:none;stroke:#2f9599;stroke-dasharray:2,3.3;stroke-dashoffset:0;stroke-width:2;"/>
   </g>
   <g id="line2d_16">
    <path clip-path="url(#p82ee61fae6)" d="M 66.376477 55.339599 
L 73.140114 55.339599 
L 79.90375 55.339599 
L 86.667386 55.339599 
L 93.431023 55.339599 
L 100.194659 72.071818 
L 106.958295 55.339599 
L 113.721932 55.339599 
L 120.485568 55.339599 
L 127.249205 38.60738 
L 134.012841 55.339599 
L 140.776477 21.875161 
L 147.540114 21.875161 
L 154.30375 21.875161 
L 161.067386 21.875161 
L 167.831023 55.339599 
L 174.594659 38.60738 
L 181.358295 38.60738 
L 188.121932 38.60738 
L 194.885568 38.60738 
L 201.649205 38.60738 
L 208.412841 55.339599 
L 215.176477 55.339599 
L 221.940114 105.536256 
L 228.70375 105.536256 
L 235.467386 105.536256 
L 242.231023 55.339599 
L 248.994659 55.339599 
L 255.758295 55.339599 
L 262.521932 55.339599 
L 269.285568 55.339599 
L 276.049205 55.339599 
L 282.812841 55.339599 
L 289.576477 88.804037 
L 296.340114 88.804037 
L 303.10375 88.804037 
L 309.867386 88.804037 
L 316.631023 88.804037 
L 323.394659 88.804037 
L 330.158295 88.804037 
L 336.921932 88.804037 
L 343.685568 88.804037 
L 350.449205 88.804037 
L 357.212841 88.804037 
L 363.976477 88.804037 
L 370.740114 88.804037 
L 377.50375 88.804037 
L 384.267386 88.804037 
L 391.031023 88.804037 
" style="fill:none;stroke:#a7226e;stroke-dasharray:12.8,3.2,2,3.2;stroke-dashoffset:0;stroke-width:2;"/>
   </g>
   <g id="patch_3">
    <path d="M 50.14375 275.891161 
L 50.14375 9.779161 
" style="fill:none;stroke:#000000;stroke-linecap:square;stroke-linejoin:miter;stroke-width:0.8;"/>
   </g>
   <g id="patch_4">
    <path d="M 407.26375 275.891161 
L 407.26375 9.779161 
" style="fill:none;stroke:#000000;stroke-linecap:square;stroke-linejoin:miter;stroke-width:0.8;"/>
   </g>
   <g id="patch_5">
    <path d="M 50.14375 275.891161 
L 407.26375 275.891161 
" style="fill:none;stroke:#000000;stroke-linecap:square;stroke-linejoin:miter;stroke-width:0.8;"/>
   </g>
   <g id="patch_6">
    <path d="M 50.14375 9.779161 
L 407.26375 9.779161 
" style="fill:none;stroke:#000000;stroke-linecap:square;stroke-linejoin:miter;stroke-width:0.8;"/>
   </g>
   <g id="legend_1">
    <g id="patch_7">
     <path d="M 321.790059 46.470074 
L 402.40575 46.470074 
Q 403.79375 46.470074 403.79375 45.082074 
L 403.79375 14.637161 
Q 403.79375 13.249161 402.40575 13.249161 
L 321.790059 13.249161 
Q 320.402059 13.249161 320.402059 14.637161 
L 320.402059 45.082074 
Q 320.402059 46.470074 321.790059 46.470074 
z
" style="fill:#ffffff;opacity:0.8;stroke:#cccccc;stroke-linejoin:miter;"/>
    </g>
    <g id="PathCollection_5">
     <defs>
      <path d="M 0 3 
C 0.795609 3 1.55874 2.683901 2.12132 2.12132 
C 2.683901 1.55874 3 0.795609 3 0 
C 3 -0.795609 2.683901 -1.55874 2.12132 -2.12132 
C 1.55874 -2.683901 0.795609 -3 0 -3 
C -0.795609 -3 -1.55874 -2.683901 -2.12132 -2.12132 
C -2.683901 -1.55874 -3 -0.795609 -3 0 
C -3 0.795609 -2.683901 1.55874 -2.12132 2.12132 
C -1.55874 2.683901 -0.795609 3 0 3 
z
" id="m5a97511a07" style="stroke:#f26b38;"/>
     </defs>
     <g>
      <use style="fill:#f26b38;stroke:#f26b38;" x="330.118059" xlink:href="#m5a97511a07" y="19.476727"/>
     </g>
    </g>
    <g id="text_16">
     <!-- mean_err -->
     <g transform="translate(342.610059 21.298477)scale(0.0694 -0.0694)">
      <defs>
       <path d="M 50.984375 -16.609375 
L 50.984375 -23.578125 
L -0.984375 -23.578125 
L -0.984375 -16.609375 
z
" id="DejaVuSans-95"/>
      </defs>
      <use xlink:href="#DejaVuSans-109"/>
      <use x="97.412109" xlink:href="#DejaVuSans-101"/>
      <use x="158.935547" xlink:href="#DejaVuSans-97"/>
      <use x="220.214844" xlink:href="#DejaVuSans-110"/>
      <use x="283.59375" xlink:href="#DejaVuSans-95"/>
      <use x="333.59375" xlink:href="#DejaVuSans-101"/>
      <use x="395.117188" xlink:href="#DejaVuSans-114"/>
      <use x="434.480469" xlink:href="#DejaVuSans-114"/>
     </g>
    </g>
    <g id="PathCollection_6">
     <defs>
      <path d="M -1.5 3 
L 0 1.5 
L 1.5 3 
L 3 1.5 
L 1.5 0 
L 3 -1.5 
L 1.5 -3 
L 0 -1.5 
L -1.5 -3 
L -3 -1.5 
L -1.5 0 
L -3 1.5 
z
" id="mb8e2488afb" style="stroke:#2f9599;"/>
     </defs>
     <g>
      <use style="fill:#2f9599;stroke:#2f9599;" x="330.118059" xlink:href="#mb8e2488afb" y="29.856364"/>
     </g>
    </g>
    <g id="text_17">
     <!-- mean_sq_err -->
     <g transform="translate(342.610059 31.678114)scale(0.0694 -0.0694)">
      <defs>
       <path d="M 44.28125 53.078125 
L 44.28125 44.578125 
Q 40.484375 46.53125 36.375 47.5 
Q 32.28125 48.484375 27.875 48.484375 
Q 21.1875 48.484375 17.84375 46.4375 
Q 14.5 44.390625 14.5 40.28125 
Q 14.5 37.15625 16.890625 35.375 
Q 19.28125 33.59375 26.515625 31.984375 
L 29.59375 31.296875 
Q 39.15625 29.25 43.1875 25.515625 
Q 47.21875 21.78125 47.21875 15.09375 
Q 47.21875 7.46875 41.1875 3.015625 
Q 35.15625 -1.421875 24.609375 -1.421875 
Q 20.21875 -1.421875 15.453125 -0.5625 
Q 10.6875 0.296875 5.421875 2 
L 5.421875 11.28125 
Q 10.40625 8.6875 15.234375 7.390625 
Q 20.0625 6.109375 24.8125 6.109375 
Q 31.15625 6.109375 34.5625 8.28125 
Q 37.984375 10.453125 37.984375 14.40625 
Q 37.984375 18.0625 35.515625 20.015625 
Q 33.0625 21.96875 24.703125 23.78125 
L 21.578125 24.515625 
Q 13.234375 26.265625 9.515625 29.90625 
Q 5.8125 33.546875 5.8125 39.890625 
Q 5.8125 47.609375 11.28125 51.796875 
Q 16.75 56 26.8125 56 
Q 31.78125 56 36.171875 55.265625 
Q 40.578125 54.546875 44.28125 53.078125 
z
" id="DejaVuSans-115"/>
       <path d="M 14.796875 27.296875 
Q 14.796875 17.390625 18.875 11.75 
Q 22.953125 6.109375 30.078125 6.109375 
Q 37.203125 6.109375 41.296875 11.75 
Q 45.40625 17.390625 45.40625 27.296875 
Q 45.40625 37.203125 41.296875 42.84375 
Q 37.203125 48.484375 30.078125 48.484375 
Q 22.953125 48.484375 18.875 42.84375 
Q 14.796875 37.203125 14.796875 27.296875 
z
M 45.40625 8.203125 
Q 42.578125 3.328125 38.25 0.953125 
Q 33.9375 -1.421875 27.875 -1.421875 
Q 17.96875 -1.421875 11.734375 6.484375 
Q 5.515625 14.40625 5.515625 27.296875 
Q 5.515625 40.1875 11.734375 48.09375 
Q 17.96875 56 27.875 56 
Q 33.9375 56 38.25 53.625 
Q 42.578125 51.265625 45.40625 46.390625 
L 45.40625 54.6875 
L 54.390625 54.6875 
L 54.390625 -20.796875 
L 45.40625 -20.796875 
z
" id="DejaVuSans-113"/>
      </defs>
      <use xlink:href="#DejaVuSans-109"/>
      <use x="97.412109" xlink:href="#DejaVuSans-101"/>
      <use x="158.935547" xlink:href="#DejaVuSans-97"/>
      <use x="220.214844" xlink:href="#DejaVuSans-110"/>
      <use x="283.59375" xlink:href="#DejaVuSans-95"/>
      <use x="333.59375" xlink:href="#DejaVuSans-115"/>
      <use x="385.693359" xlink:href="#DejaVuSans-113"/>
      <use x="449.169922" xlink:href="#DejaVuSans-95"/>
      <use x="499.169922" xlink:href="#DejaVuSans-101"/>
      <use x="560.693359" xlink:href="#DejaVuSans-114"/>
      <use x="600.056641" xlink:href="#DejaVuSans-114"/>
     </g>
    </g>
    <g id="PathCollection_7">
     <defs>
      <path d="M -2.12132 -2.12132 
L -2.12132 2.12132 
L 2.12132 2.12132 
L 2.12132 -2.12132 
z
" id="ma8a327d3b8" style="stroke:#a7226e;"/>
     </defs>
     <g>
      <use style="fill:#a7226e;stroke:#a7226e;" x="330.118059" xlink:href="#ma8a327d3b8" y="40.236002"/>
     </g>
    </g>
    <g id="text_18">
     <!-- mean_sqroot_err -->
     <g transform="translate(342.610059 42.057752)scale(0.0694 -0.0694)">
      <use xlink:href="#DejaVuSans-109"/>
      <use x="97.412109" xlink:href="#DejaVuSans-101"/>
      <use x="158.935547" xlink:href="#DejaVuSans-97"/>
      <use x="220.214844" xlink:href="#DejaVuSans-110"/>
      <use x="283.59375" xlink:href="#DejaVuSans-95"/>
      <use x="333.59375" xlink:href="#DejaVuSans-115"/>
      <use x="385.693359" xlink:href="#DejaVuSans-113"/>
      <use x="449.169922" xlink:href="#DejaVuSans-114"/>
      <use x="488.033203" xlink:href="#DejaVuSans-111"/>
      <use x="549.214844" xlink:href="#DejaVuSans-111"/>
      <use x="610.396484" xlink:href="#DejaVuSans-116"/>
      <use x="649.605469" xlink:href="#DejaVuSans-95"/>
      <use x="699.605469" xlink:href="#DejaVuSans-101"/>
      <use x="761.128906" xlink:href="#DejaVuSans-114"/>
      <use x="800.492188" xlink:href="#DejaVuSans-114"/>
     </g>
    </g>
   </g>
  </g>
 </g>
 <defs>
  <clipPath id="p82ee61fae6">
   <rect height="266.112" width="357.12" x="50.14375" y="9.779161"/>
  </clipPath>
 </defs>
</svg>
