<?xml version="1.0" encoding="utf-8" standalone="no"?>
<!DOCTYPE svg PUBLIC "-//W3C//DTD SVG 1.1//EN"
  "http://www.w3.org/Graphics/SVG/1.1/DTD/svg11.dtd">
<!-- Created with matplotlib (https://matplotlib.org/) -->
<svg height="310.86825pt" version="1.1" viewBox="0 0 414.46375 310.86825" width="414.46375pt" xmlns="http://www.w3.org/2000/svg" xmlns:xlink="http://www.w3.org/1999/xlink">
 <metadata>
  <rdf:RDF xmlns:cc="http://creativecommons.org/ns#" xmlns:dc="http://purl.org/dc/elements/1.1/" xmlns:rdf="http://www.w3.org/1999/02/22-rdf-syntax-ns#">
   <cc:Work>
    <dc:type rdf:resource="http://purl.org/dc/dcmitype/StillImage"/>
    <dc:date>2022-05-27T21:58:44.940587</dc:date>
    <dc:format>image/svg+xml</dc:format>
    <dc:creator>
     <cc:Agent>
      <dc:title>Matplotlib v3.3.4, https://matplotlib.org/</dc:title>
     </cc:Agent>
    </dc:creator>
   </cc:Work>
  </rdf:RDF>
 </metadata>
 <defs>
  <style type="text/css">*{stroke-linecap:butt;stroke-linejoin:round;}</style>
 </defs>
 <g id="figure_1">
  <g id="patch_1">
   <path d="M 0 310.86825 
L 414.46375 310.86825 
L 414.46375 0 
L 0 0 
z
" style="fill:#ffffff;"/>
  </g>
  <g id="axes_1">
   <g id="patch_2">
    <path d="M 50.14375 273.312 
L 407.26375 273.312 
L 407.26375 7.2 
L 50.14375 7.2 
z
" style="fill:#ffffff;"/>
   </g>
   <g id="PathCollection_1">
    <path clip-path="url(#p3620d72f3a)" d="M 66.376477 34.702154 
C 67.172087 34.702154 67.935217 34.386055 68.497798 33.823474 
C 69.060378 33.260893 69.376477 32.497763 69.376477 31.702154 
C 69.376477 30.906545 69.060378 30.143414 68.497798 29.580834 
C 67.935217 29.018253 67.172087 28.702154 66.376477 28.702154 
C 65.580868 28.702154 64.817738 29.018253 64.255157 29.580834 
C 63.692576 30.143414 63.376477 30.906545 63.376477 31.702154 
C 63.376477 32.497763 63.692576 33.260893 64.255157 33.823474 
C 64.817738 34.386055 65.580868 34.702154 66.376477 34.702154 
z
" style="fill:#f26b38;stroke:#ffffff;stroke-width:0.48;"/>
    <path clip-path="url(#p3620d72f3a)" d="M 73.140114 45.557538 
C 73.935723 45.557538 74.698853 45.24144 75.261434 44.678859 
C 75.824015 44.116278 76.140114 43.353148 76.140114 42.557538 
C 76.140114 41.761929 75.824015 40.998799 75.261434 40.436218 
C 74.698853 39.873637 73.935723 39.557538 73.140114 39.557538 
C 72.344504 39.557538 71.581374 39.873637 71.018793 40.436218 
C 70.456213 40.998799 70.140114 41.761929 70.140114 42.557538 
C 70.140114 43.353148 70.456213 44.116278 71.018793 44.678859 
C 71.581374 45.24144 72.344504 45.557538 73.140114 45.557538 
z
" style="fill:#f26b38;stroke:#ffffff;stroke-width:0.48;"/>
    <path clip-path="url(#p3620d72f3a)" d="M 79.90375 45.557538 
C 80.699359 45.557538 81.46249 45.24144 82.02507 44.678859 
C 82.587651 44.116278 82.90375 43.353148 82.90375 42.557538 
C 82.90375 41.761929 82.587651 40.998799 82.02507 40.436218 
C 81.46249 39.873637 80.699359 39.557538 79.90375 39.557538 
C 79.108141 39.557538 78.34501 39.873637 77.78243 40.436218 
C 77.219849 40.998799 76.90375 41.761929 76.90375 42.557538 
C 76.90375 43.353148 77.219849 44.116278 77.78243 44.678859 
C 78.34501 45.24144 79.108141 45.557538 79.90375 45.557538 
z
" style="fill:#f26b38;stroke:#ffffff;stroke-width:0.48;"/>
    <path clip-path="url(#p3620d72f3a)" d="M 86.667386 45.557538 
C 87.462996 45.557538 88.226126 45.24144 88.788707 44.678859 
C 89.351287 44.116278 89.667386 43.353148 89.667386 42.557538 
C 89.667386 41.761929 89.351287 40.998799 88.788707 40.436218 
C 88.226126 39.873637 87.462996 39.557538 86.667386 39.557538 
C 85.871777 39.557538 85.108647 39.873637 84.546066 40.436218 
C 83.983485 40.998799 83.667386 41.761929 83.667386 42.557538 
C 83.667386 43.353148 83.983485 44.116278 84.546066 44.678859 
C 85.108647 45.24144 85.871777 45.557538 86.667386 45.557538 
z
" style="fill:#f26b38;stroke:#ffffff;stroke-width:0.48;"/>
    <path clip-path="url(#p3620d72f3a)" d="M 93.431023 45.557538 
C 94.226632 45.557538 94.989762 45.24144 95.552343 44.678859 
C 96.114924 44.116278 96.431023 43.353148 96.431023 42.557538 
C 96.431023 41.761929 96.114924 40.998799 95.552343 40.436218 
C 94.989762 39.873637 94.226632 39.557538 93.431023 39.557538 
C 92.635413 39.557538 91.872283 39.873637 91.309702 40.436218 
C 90.747122 40.998799 90.431023 41.761929 90.431023 42.557538 
C 90.431023 43.353148 90.747122 44.116278 91.309702 44.678859 
C 91.872283 45.24144 92.635413 45.557538 93.431023 45.557538 
z
" style="fill:#f26b38;stroke:#ffffff;stroke-width:0.48;"/>
    <path clip-path="url(#p3620d72f3a)" d="M 100.194659 45.557538 
C 100.990268 45.557538 101.753399 45.24144 102.315979 44.678859 
C 102.87856 44.116278 103.194659 43.353148 103.194659 42.557538 
C 103.194659 41.761929 102.87856 40.998799 102.315979 40.436218 
C 101.753399 39.873637 100.990268 39.557538 100.194659 39.557538 
C 99.39905 39.557538 98.635919 39.873637 98.073339 40.436218 
C 97.510758 40.998799 97.194659 41.761929 97.194659 42.557538 
C 97.194659 43.353148 97.510758 44.116278 98.073339 44.678859 
C 98.635919 45.24144 99.39905 45.557538 100.194659 45.557538 
z
" style="fill:#f26b38;stroke:#ffffff;stroke-width:0.48;"/>
    <path clip-path="url(#p3620d72f3a)" d="M 106.958295 45.557538 
C 107.753905 45.557538 108.517035 45.24144 109.079616 44.678859 
C 109.642197 44.116278 109.958295 43.353148 109.958295 42.557538 
C 109.958295 41.761929 109.642197 40.998799 109.079616 40.436218 
C 108.517035 39.873637 107.753905 39.557538 106.958295 39.557538 
C 106.162686 39.557538 105.399556 39.873637 104.836975 40.436218 
C 104.274394 40.998799 103.958295 41.761929 103.958295 42.557538 
C 103.958295 43.353148 104.274394 44.116278 104.836975 44.678859 
C 105.399556 45.24144 106.162686 45.557538 106.958295 45.557538 
z
" style="fill:#f26b38;stroke:#ffffff;stroke-width:0.48;"/>
    <path clip-path="url(#p3620d72f3a)" d="M 113.721932 45.557538 
C 114.517541 45.557538 115.280671 45.24144 115.843252 44.678859 
C 116.405833 44.116278 116.721932 43.353148 116.721932 42.557538 
C 116.721932 41.761929 116.405833 40.998799 115.843252 40.436218 
C 115.280671 39.873637 114.517541 39.557538 113.721932 39.557538 
C 112.926323 39.557538 112.163192 39.873637 111.600611 40.436218 
C 111.038031 40.998799 110.721932 41.761929 110.721932 42.557538 
C 110.721932 43.353148 111.038031 44.116278 111.600611 44.678859 
C 112.163192 45.24144 112.926323 45.557538 113.721932 45.557538 
z
" style="fill:#f26b38;stroke:#ffffff;stroke-width:0.48;"/>
    <path clip-path="url(#p3620d72f3a)" d="M 120.485568 45.557538 
C 121.281177 45.557538 122.044308 45.24144 122.606889 44.678859 
C 123.169469 44.116278 123.485568 43.353148 123.485568 42.557538 
C 123.485568 41.761929 123.169469 40.998799 122.606889 40.436218 
C 122.044308 39.873637 121.281177 39.557538 120.485568 39.557538 
C 119.689959 39.557538 118.926829 39.873637 118.364248 40.436218 
C 117.801667 40.998799 117.485568 41.761929 117.485568 42.557538 
C 117.485568 43.353148 117.801667 44.116278 118.364248 44.678859 
C 118.926829 45.24144 119.689959 45.557538 120.485568 45.557538 
z
" style="fill:#f26b38;stroke:#ffffff;stroke-width:0.48;"/>
    <path clip-path="url(#p3620d72f3a)" d="M 127.249205 117.394643 
C 128.044814 117.394643 128.807944 117.078544 129.370525 116.515963 
C 129.933106 115.953382 130.249205 115.190252 130.249205 114.394643 
C 130.249205 113.599033 129.933106 112.835903 129.370525 112.273322 
C 128.807944 111.710741 128.044814 111.394643 127.249205 111.394643 
C 126.453595 111.394643 125.690465 111.710741 125.127884 112.273322 
C 124.565303 112.835903 124.249205 113.599033 124.249205 114.394643 
C 124.249205 115.190252 124.565303 115.953382 125.127884 116.515963 
C 125.690465 117.078544 126.453595 117.394643 127.249205 117.394643 
z
" style="fill:#f26b38;stroke:#ffffff;stroke-width:0.48;"/>
    <path clip-path="url(#p3620d72f3a)" d="M 134.012841 117.394643 
C 134.80845 117.394643 135.571581 117.078544 136.134161 116.515963 
C 136.696742 115.953382 137.012841 115.190252 137.012841 114.394643 
C 137.012841 113.599033 136.696742 112.835903 136.134161 112.273322 
C 135.571581 111.710741 134.80845 111.394643 134.012841 111.394643 
C 133.217232 111.394643 132.454101 111.710741 131.891521 112.273322 
C 131.32894 112.835903 131.012841 113.599033 131.012841 114.394643 
C 131.012841 115.190252 131.32894 115.953382 131.891521 116.515963 
C 132.454101 117.078544 133.217232 117.394643 134.012841 117.394643 
z
" style="fill:#f26b38;stroke:#ffffff;stroke-width:0.48;"/>
    <path clip-path="url(#p3620d72f3a)" d="M 140.776477 130.618388 
C 141.572087 130.618388 142.335217 130.302289 142.897798 129.739708 
C 143.460378 129.177128 143.776477 128.413997 143.776477 127.618388 
C 143.776477 126.822779 143.460378 126.059648 142.897798 125.497068 
C 142.335217 124.934487 141.572087 124.618388 140.776477 124.618388 
C 139.980868 124.618388 139.217738 124.934487 138.655157 125.497068 
C 138.092576 126.059648 137.776477 126.822779 137.776477 127.618388 
C 137.776477 128.413997 138.092576 129.177128 138.655157 129.739708 
C 139.217738 130.302289 139.980868 130.618388 140.776477 130.618388 
z
" style="fill:#f26b38;stroke:#ffffff;stroke-width:0.48;"/>
    <path clip-path="url(#p3620d72f3a)" d="M 147.540114 130.618388 
C 148.335723 130.618388 149.098853 130.302289 149.661434 129.739708 
C 150.224015 129.177128 150.540114 128.413997 150.540114 127.618388 
C 150.540114 126.822779 150.224015 126.059648 149.661434 125.497068 
C 149.098853 124.934487 148.335723 124.618388 147.540114 124.618388 
C 146.744504 124.618388 145.981374 124.934487 145.418793 125.497068 
C 144.856213 126.059648 144.540114 126.822779 144.540114 127.618388 
C 144.540114 128.413997 144.856213 129.177128 145.418793 129.739708 
C 145.981374 130.302289 146.744504 130.618388 147.540114 130.618388 
z
" style="fill:#f26b38;stroke:#ffffff;stroke-width:0.48;"/>
    <path clip-path="url(#p3620d72f3a)" d="M 154.30375 130.618388 
C 155.099359 130.618388 155.86249 130.302289 156.42507 129.739708 
C 156.987651 129.177128 157.30375 128.413997 157.30375 127.618388 
C 157.30375 126.822779 156.987651 126.059648 156.42507 125.497068 
C 155.86249 124.934487 155.099359 124.618388 154.30375 124.618388 
C 153.508141 124.618388 152.74501 124.934487 152.18243 125.497068 
C 151.619849 126.059648 151.30375 126.822779 151.30375 127.618388 
C 151.30375 128.413997 151.619849 129.177128 152.18243 129.739708 
C 152.74501 130.302289 153.508141 130.618388 154.30375 130.618388 
z
" style="fill:#f26b38;stroke:#ffffff;stroke-width:0.48;"/>
    <path clip-path="url(#p3620d72f3a)" d="M 161.067386 172.769077 
C 161.862996 172.769077 162.626126 172.452978 163.188707 171.890397 
C 163.751287 171.327817 164.067386 170.564686 164.067386 169.769077 
C 164.067386 168.973468 163.751287 168.210337 163.188707 167.647757 
C 162.626126 167.085176 161.862996 166.769077 161.067386 166.769077 
C 160.271777 166.769077 159.508647 167.085176 158.946066 167.647757 
C 158.383485 168.210337 158.067386 168.973468 158.067386 169.769077 
C 158.067386 170.564686 158.383485 171.327817 158.946066 171.890397 
C 159.508647 172.452978 160.271777 172.769077 161.067386 172.769077 
z
" style="fill:#f26b38;stroke:#ffffff;stroke-width:0.48;"/>
    <path clip-path="url(#p3620d72f3a)" d="M 167.831023 172.769077 
C 168.626632 172.769077 169.389762 172.452978 169.952343 171.890397 
C 170.514924 171.327817 170.831023 170.564686 170.831023 169.769077 
C 170.831023 168.973468 170.514924 168.210337 169.952343 167.647757 
C 169.389762 167.085176 168.626632 166.769077 167.831023 166.769077 
C 167.035413 166.769077 166.272283 167.085176 165.709702 167.647757 
C 165.147122 168.210337 164.831023 168.973468 164.831023 169.769077 
C 164.831023 170.564686 165.147122 171.327817 165.709702 171.890397 
C 166.272283 172.452978 167.035413 172.769077 167.831023 172.769077 
z
" style="fill:#f26b38;stroke:#ffffff;stroke-width:0.48;"/>
    <path clip-path="url(#p3620d72f3a)" d="M 174.594659 172.769077 
C 175.390268 172.769077 176.153399 172.452978 176.715979 171.890397 
C 177.27856 171.327817 177.594659 170.564686 177.594659 169.769077 
C 177.594659 168.973468 177.27856 168.210337 176.715979 167.647757 
C 176.153399 167.085176 175.390268 166.769077 174.594659 166.769077 
C 173.79905 166.769077 173.035919 167.085176 172.473339 167.647757 
C 171.910758 168.210337 171.594659 168.973468 171.594659 169.769077 
C 171.594659 170.564686 171.910758 171.327817 172.473339 171.890397 
C 173.035919 172.452978 173.79905 172.769077 174.594659 172.769077 
z
" style="fill:#f26b38;stroke:#ffffff;stroke-width:0.48;"/>
    <path clip-path="url(#p3620d72f3a)" d="M 181.358295 172.769077 
C 182.153905 172.769077 182.917035 172.452978 183.479616 171.890397 
C 184.042197 171.327817 184.358295 170.564686 184.358295 169.769077 
C 184.358295 168.973468 184.042197 168.210337 183.479616 167.647757 
C 182.917035 167.085176 182.153905 166.769077 181.358295 166.769077 
C 180.562686 166.769077 179.799556 167.085176 179.236975 167.647757 
C 178.674394 168.210337 178.358295 168.973468 178.358295 169.769077 
C 178.358295 170.564686 178.674394 171.327817 179.236975 171.890397 
C 179.799556 172.452978 180.562686 172.769077 181.358295 172.769077 
z
" style="fill:#f26b38;stroke:#ffffff;stroke-width:0.48;"/>
    <path clip-path="url(#p3620d72f3a)" d="M 188.121932 172.769077 
C 188.917541 172.769077 189.680671 172.452978 190.243252 171.890397 
C 190.805833 171.327817 191.121932 170.564686 191.121932 169.769077 
C 191.121932 168.973468 190.805833 168.210337 190.243252 167.647757 
C 189.680671 167.085176 188.917541 166.769077 188.121932 166.769077 
C 187.326323 166.769077 186.563192 167.085176 186.000611 167.647757 
C 185.438031 168.210337 185.121932 168.973468 185.121932 169.769077 
C 185.121932 170.564686 185.438031 171.327817 186.000611 171.890397 
C 186.563192 172.452978 187.326323 172.769077 188.121932 172.769077 
z
" style="fill:#f26b38;stroke:#ffffff;stroke-width:0.48;"/>
    <path clip-path="url(#p3620d72f3a)" d="M 194.885568 172.769077 
C 195.681177 172.769077 196.444308 172.452978 197.006889 171.890397 
C 197.569469 171.327817 197.885568 170.564686 197.885568 169.769077 
C 197.885568 168.973468 197.569469 168.210337 197.006889 167.647757 
C 196.444308 167.085176 195.681177 166.769077 194.885568 166.769077 
C 194.089959 166.769077 193.326829 167.085176 192.764248 167.647757 
C 192.201667 168.210337 191.885568 168.973468 191.885568 169.769077 
C 191.885568 170.564686 192.201667 171.327817 192.764248 171.890397 
C 193.326829 172.452978 194.089959 172.769077 194.885568 172.769077 
z
" style="fill:#f26b38;stroke:#ffffff;stroke-width:0.48;"/>
    <path clip-path="url(#p3620d72f3a)" d="M 201.649205 172.769077 
C 202.444814 172.769077 203.207944 172.452978 203.770525 171.890397 
C 204.333106 171.327817 204.649205 170.564686 204.649205 169.769077 
C 204.649205 168.973468 204.333106 168.210337 203.770525 167.647757 
C 203.207944 167.085176 202.444814 166.769077 201.649205 166.769077 
C 200.853595 166.769077 200.090465 167.085176 199.527884 167.647757 
C 198.965303 168.210337 198.649205 168.973468 198.649205 169.769077 
C 198.649205 170.564686 198.965303 171.327817 199.527884 171.890397 
C 200.090465 172.452978 200.853595 172.769077 201.649205 172.769077 
z
" style="fill:#f26b38;stroke:#ffffff;stroke-width:0.48;"/>
    <path clip-path="url(#p3620d72f3a)" d="M 208.412841 172.769077 
C 209.20845 172.769077 209.971581 172.452978 210.534161 171.890397 
C 211.096742 171.327817 211.412841 170.564686 211.412841 169.769077 
C 211.412841 168.973468 211.096742 168.210337 210.534161 167.647757 
C 209.971581 167.085176 209.20845 166.769077 208.412841 166.769077 
C 207.617232 166.769077 206.854101 167.085176 206.291521 167.647757 
C 205.72894 168.210337 205.412841 168.973468 205.412841 169.769077 
C 205.412841 170.564686 205.72894 171.327817 206.291521 171.890397 
C 206.854101 172.452978 207.617232 172.769077 208.412841 172.769077 
z
" style="fill:#f26b38;stroke:#ffffff;stroke-width:0.48;"/>
    <path clip-path="url(#p3620d72f3a)" d="M 215.176477 172.769077 
C 215.972087 172.769077 216.735217 172.452978 217.297798 171.890397 
C 217.860378 171.327817 218.176477 170.564686 218.176477 169.769077 
C 218.176477 168.973468 217.860378 168.210337 217.297798 167.647757 
C 216.735217 167.085176 215.972087 166.769077 215.176477 166.769077 
C 214.380868 166.769077 213.617738 167.085176 213.055157 167.647757 
C 212.492576 168.210337 212.176477 168.973468 212.176477 169.769077 
C 212.176477 170.564686 212.492576 171.327817 213.055157 171.890397 
C 213.617738 172.452978 214.380868 172.769077 215.176477 172.769077 
z
" style="fill:#f26b38;stroke:#ffffff;stroke-width:0.48;"/>
    <path clip-path="url(#p3620d72f3a)" d="M 221.940114 172.769077 
C 222.735723 172.769077 223.498853 172.452978 224.061434 171.890397 
C 224.624015 171.327817 224.940114 170.564686 224.940114 169.769077 
C 224.940114 168.973468 224.624015 168.210337 224.061434 167.647757 
C 223.498853 167.085176 222.735723 166.769077 221.940114 166.769077 
C 221.144504 166.769077 220.381374 167.085176 219.818793 167.647757 
C 219.256213 168.210337 218.940114 168.973468 218.940114 169.769077 
C 218.940114 170.564686 219.256213 171.327817 219.818793 171.890397 
C 220.381374 172.452978 221.144504 172.769077 221.940114 172.769077 
z
" style="fill:#f26b38;stroke:#ffffff;stroke-width:0.48;"/>
    <path clip-path="url(#p3620d72f3a)" d="M 228.70375 172.769077 
C 229.499359 172.769077 230.26249 172.452978 230.82507 171.890397 
C 231.387651 171.327817 231.70375 170.564686 231.70375 169.769077 
C 231.70375 168.973468 231.387651 168.210337 230.82507 167.647757 
C 230.26249 167.085176 229.499359 166.769077 228.70375 166.769077 
C 227.908141 166.769077 227.14501 167.085176 226.58243 167.647757 
C 226.019849 168.210337 225.70375 168.973468 225.70375 169.769077 
C 225.70375 170.564686 226.019849 171.327817 226.58243 171.890397 
C 227.14501 172.452978 227.908141 172.769077 228.70375 172.769077 
z
" style="fill:#f26b38;stroke:#ffffff;stroke-width:0.48;"/>
    <path clip-path="url(#p3620d72f3a)" d="M 235.467386 187.711385 
C 236.262996 187.711385 237.026126 187.395286 237.588707 186.832705 
C 238.151287 186.270124 238.467386 185.506994 238.467386 184.711385 
C 238.467386 183.915775 238.151287 183.152645 237.588707 182.590064 
C 237.026126 182.027484 236.262996 181.711385 235.467386 181.711385 
C 234.671777 181.711385 233.908647 182.027484 233.346066 182.590064 
C 232.783485 183.152645 232.467386 183.915775 232.467386 184.711385 
C 232.467386 185.506994 232.783485 186.270124 233.346066 186.832705 
C 233.908647 187.395286 234.671777 187.711385 235.467386 187.711385 
z
" style="fill:#f26b38;stroke:#ffffff;stroke-width:0.48;"/>
    <path clip-path="url(#p3620d72f3a)" d="M 242.231023 187.711385 
C 243.026632 187.711385 243.789762 187.395286 244.352343 186.832705 
C 244.914924 186.270124 245.231023 185.506994 245.231023 184.711385 
C 245.231023 183.915775 244.914924 183.152645 244.352343 182.590064 
C 243.789762 182.027484 243.026632 181.711385 242.231023 181.711385 
C 241.435413 181.711385 240.672283 182.027484 240.109702 182.590064 
C 239.547122 183.152645 239.231023 183.915775 239.231023 184.711385 
C 239.231023 185.506994 239.547122 186.270124 240.109702 186.832705 
C 240.672283 187.395286 241.435413 187.711385 242.231023 187.711385 
z
" style="fill:#f26b38;stroke:#ffffff;stroke-width:0.48;"/>
    <path clip-path="url(#p3620d72f3a)" d="M 248.994659 187.711385 
C 249.790268 187.711385 250.553399 187.395286 251.115979 186.832705 
C 251.67856 186.270124 251.994659 185.506994 251.994659 184.711385 
C 251.994659 183.915775 251.67856 183.152645 251.115979 182.590064 
C 250.553399 182.027484 249.790268 181.711385 248.994659 181.711385 
C 248.19905 181.711385 247.435919 182.027484 246.873339 182.590064 
C 246.310758 183.152645 245.994659 183.915775 245.994659 184.711385 
C 245.994659 185.506994 246.310758 186.270124 246.873339 186.832705 
C 247.435919 187.395286 248.19905 187.711385 248.994659 187.711385 
z
" style="fill:#f26b38;stroke:#ffffff;stroke-width:0.48;"/>
    <path clip-path="url(#p3620d72f3a)" d="M 255.758295 187.711385 
C 256.553905 187.711385 257.317035 187.395286 257.879616 186.832705 
C 258.442197 186.270124 258.758295 185.506994 258.758295 184.711385 
C 258.758295 183.915775 258.442197 183.152645 257.879616 182.590064 
C 257.317035 182.027484 256.553905 181.711385 255.758295 181.711385 
C 254.962686 181.711385 254.199556 182.027484 253.636975 182.590064 
C 253.074394 183.152645 252.758295 183.915775 252.758295 184.711385 
C 252.758295 185.506994 253.074394 186.270124 253.636975 186.832705 
C 254.199556 187.395286 254.962686 187.711385 255.758295 187.711385 
z
" style="fill:#f26b38;stroke:#ffffff;stroke-width:0.48;"/>
    <path clip-path="url(#p3620d72f3a)" d="M 262.521932 187.711385 
C 263.317541 187.711385 264.080671 187.395286 264.643252 186.832705 
C 265.205833 186.270124 265.521932 185.506994 265.521932 184.711385 
C 265.521932 183.915775 265.205833 183.152645 264.643252 182.590064 
C 264.080671 182.027484 263.317541 181.711385 262.521932 181.711385 
C 261.726323 181.711385 260.963192 182.027484 260.400611 182.590064 
C 259.838031 183.152645 259.521932 183.915775 259.521932 184.711385 
C 259.521932 185.506994 259.838031 186.270124 260.400611 186.832705 
C 260.963192 187.395286 261.726323 187.711385 262.521932 187.711385 
z
" style="fill:#f26b38;stroke:#ffffff;stroke-width:0.48;"/>
    <path clip-path="url(#p3620d72f3a)" d="M 269.285568 187.711385 
C 270.081177 187.711385 270.844308 187.395286 271.406889 186.832705 
C 271.969469 186.270124 272.285568 185.506994 272.285568 184.711385 
C 272.285568 183.915775 271.969469 183.152645 271.406889 182.590064 
C 270.844308 182.027484 270.081177 181.711385 269.285568 181.711385 
C 268.489959 181.711385 267.726829 182.027484 267.164248 182.590064 
C 266.601667 183.152645 266.285568 183.915775 266.285568 184.711385 
C 266.285568 185.506994 266.601667 186.270124 267.164248 186.832705 
C 267.726829 187.395286 268.489959 187.711385 269.285568 187.711385 
z
" style="fill:#f26b38;stroke:#ffffff;stroke-width:0.48;"/>
    <path clip-path="url(#p3620d72f3a)" d="M 276.049205 187.711385 
C 276.844814 187.711385 277.607944 187.395286 278.170525 186.832705 
C 278.733106 186.270124 279.049205 185.506994 279.049205 184.711385 
C 279.049205 183.915775 278.733106 183.152645 278.170525 182.590064 
C 277.607944 182.027484 276.844814 181.711385 276.049205 181.711385 
C 275.253595 181.711385 274.490465 182.027484 273.927884 182.590064 
C 273.365303 183.152645 273.049205 183.915775 273.049205 184.711385 
C 273.049205 185.506994 273.365303 186.270124 273.927884 186.832705 
C 274.490465 187.395286 275.253595 187.711385 276.049205 187.711385 
z
" style="fill:#f26b38;stroke:#ffffff;stroke-width:0.48;"/>
    <path clip-path="url(#p3620d72f3a)" d="M 282.812841 187.711385 
C 283.60845 187.711385 284.371581 187.395286 284.934161 186.832705 
C 285.496742 186.270124 285.812841 185.506994 285.812841 184.711385 
C 285.812841 183.915775 285.496742 183.152645 284.934161 182.590064 
C 284.371581 182.027484 283.60845 181.711385 282.812841 181.711385 
C 282.017232 181.711385 281.254101 182.027484 280.691521 182.590064 
C 280.12894 183.152645 279.812841 183.915775 279.812841 184.711385 
C 279.812841 185.506994 280.12894 186.270124 280.691521 186.832705 
C 281.254101 187.395286 282.017232 187.711385 282.812841 187.711385 
z
" style="fill:#f26b38;stroke:#ffffff;stroke-width:0.48;"/>
    <path clip-path="url(#p3620d72f3a)" d="M 289.576477 187.711385 
C 290.372087 187.711385 291.135217 187.395286 291.697798 186.832705 
C 292.260378 186.270124 292.576477 185.506994 292.576477 184.711385 
C 292.576477 183.915775 292.260378 183.152645 291.697798 182.590064 
C 291.135217 182.027484 290.372087 181.711385 289.576477 181.711385 
C 288.780868 181.711385 288.017738 182.027484 287.455157 182.590064 
C 286.892576 183.152645 286.576477 183.915775 286.576477 184.711385 
C 286.576477 185.506994 286.892576 186.270124 287.455157 186.832705 
C 288.017738 187.395286 288.780868 187.711385 289.576477 187.711385 
z
" style="fill:#f26b38;stroke:#ffffff;stroke-width:0.48;"/>
    <path clip-path="url(#p3620d72f3a)" d="M 296.340114 187.711385 
C 297.135723 187.711385 297.898853 187.395286 298.461434 186.832705 
C 299.024015 186.270124 299.340114 185.506994 299.340114 184.711385 
C 299.340114 183.915775 299.024015 183.152645 298.461434 182.590064 
C 297.898853 182.027484 297.135723 181.711385 296.340114 181.711385 
C 295.544504 181.711385 294.781374 182.027484 294.218793 182.590064 
C 293.656213 183.152645 293.340114 183.915775 293.340114 184.711385 
C 293.340114 185.506994 293.656213 186.270124 294.218793 186.832705 
C 294.781374 187.395286 295.544504 187.711385 296.340114 187.711385 
z
" style="fill:#f26b38;stroke:#ffffff;stroke-width:0.48;"/>
    <path clip-path="url(#p3620d72f3a)" d="M 303.10375 187.711385 
C 303.899359 187.711385 304.66249 187.395286 305.22507 186.832705 
C 305.787651 186.270124 306.10375 185.506994 306.10375 184.711385 
C 306.10375 183.915775 305.787651 183.152645 305.22507 182.590064 
C 304.66249 182.027484 303.899359 181.711385 303.10375 181.711385 
C 302.308141 181.711385 301.54501 182.027484 300.98243 182.590064 
C 300.419849 183.152645 300.10375 183.915775 300.10375 184.711385 
C 300.10375 185.506994 300.419849 186.270124 300.98243 186.832705 
C 301.54501 187.395286 302.308141 187.711385 303.10375 187.711385 
z
" style="fill:#f26b38;stroke:#ffffff;stroke-width:0.48;"/>
    <path clip-path="url(#p3620d72f3a)" d="M 309.867386 187.711385 
C 310.662996 187.711385 311.426126 187.395286 311.988707 186.832705 
C 312.551287 186.270124 312.867386 185.506994 312.867386 184.711385 
C 312.867386 183.915775 312.551287 183.152645 311.988707 182.590064 
C 311.426126 182.027484 310.662996 181.711385 309.867386 181.711385 
C 309.071777 181.711385 308.308647 182.027484 307.746066 182.590064 
C 307.183485 183.152645 306.867386 183.915775 306.867386 184.711385 
C 306.867386 185.506994 307.183485 186.270124 307.746066 186.832705 
C 308.308647 187.395286 309.071777 187.711385 309.867386 187.711385 
z
" style="fill:#f26b38;stroke:#ffffff;stroke-width:0.48;"/>
    <path clip-path="url(#p3620d72f3a)" d="M 316.631023 187.711385 
C 317.426632 187.711385 318.189762 187.395286 318.752343 186.832705 
C 319.314924 186.270124 319.631023 185.506994 319.631023 184.711385 
C 319.631023 183.915775 319.314924 183.152645 318.752343 182.590064 
C 318.189762 182.027484 317.426632 181.711385 316.631023 181.711385 
C 315.835413 181.711385 315.072283 182.027484 314.509702 182.590064 
C 313.947122 183.152645 313.631023 183.915775 313.631023 184.711385 
C 313.631023 185.506994 313.947122 186.270124 314.509702 186.832705 
C 315.072283 187.395286 315.835413 187.711385 316.631023 187.711385 
z
" style="fill:#f26b38;stroke:#ffffff;stroke-width:0.48;"/>
    <path clip-path="url(#p3620d72f3a)" d="M 323.394659 187.711385 
C 324.190268 187.711385 324.953399 187.395286 325.515979 186.832705 
C 326.07856 186.270124 326.394659 185.506994 326.394659 184.711385 
C 326.394659 183.915775 326.07856 183.152645 325.515979 182.590064 
C 324.953399 182.027484 324.190268 181.711385 323.394659 181.711385 
C 322.59905 181.711385 321.835919 182.027484 321.273339 182.590064 
C 320.710758 183.152645 320.394659 183.915775 320.394659 184.711385 
C 320.394659 185.506994 320.710758 186.270124 321.273339 186.832705 
C 321.835919 187.395286 322.59905 187.711385 323.394659 187.711385 
z
" style="fill:#f26b38;stroke:#ffffff;stroke-width:0.48;"/>
    <path clip-path="url(#p3620d72f3a)" d="M 330.158295 187.711385 
C 330.953905 187.711385 331.717035 187.395286 332.279616 186.832705 
C 332.842197 186.270124 333.158295 185.506994 333.158295 184.711385 
C 333.158295 183.915775 332.842197 183.152645 332.279616 182.590064 
C 331.717035 182.027484 330.953905 181.711385 330.158295 181.711385 
C 329.362686 181.711385 328.599556 182.027484 328.036975 182.590064 
C 327.474394 183.152645 327.158295 183.915775 327.158295 184.711385 
C 327.158295 185.506994 327.474394 186.270124 328.036975 186.832705 
C 328.599556 187.395286 329.362686 187.711385 330.158295 187.711385 
z
" style="fill:#f26b38;stroke:#ffffff;stroke-width:0.48;"/>
    <path clip-path="url(#p3620d72f3a)" d="M 336.921932 187.711385 
C 337.717541 187.711385 338.480671 187.395286 339.043252 186.832705 
C 339.605833 186.270124 339.921932 185.506994 339.921932 184.711385 
C 339.921932 183.915775 339.605833 183.152645 339.043252 182.590064 
C 338.480671 182.027484 337.717541 181.711385 336.921932 181.711385 
C 336.126323 181.711385 335.363192 182.027484 334.800611 182.590064 
C 334.238031 183.152645 333.921932 183.915775 333.921932 184.711385 
C 333.921932 185.506994 334.238031 186.270124 334.800611 186.832705 
C 335.363192 187.395286 336.126323 187.711385 336.921932 187.711385 
z
" style="fill:#f26b38;stroke:#ffffff;stroke-width:0.48;"/>
    <path clip-path="url(#p3620d72f3a)" d="M 343.685568 187.711385 
C 344.481177 187.711385 345.244308 187.395286 345.806889 186.832705 
C 346.369469 186.270124 346.685568 185.506994 346.685568 184.711385 
C 346.685568 183.915775 346.369469 183.152645 345.806889 182.590064 
C 345.244308 182.027484 344.481177 181.711385 343.685568 181.711385 
C 342.889959 181.711385 342.126829 182.027484 341.564248 182.590064 
C 341.001667 183.152645 340.685568 183.915775 340.685568 184.711385 
C 340.685568 185.506994 341.001667 186.270124 341.564248 186.832705 
C 342.126829 187.395286 342.889959 187.711385 343.685568 187.711385 
z
" style="fill:#f26b38;stroke:#ffffff;stroke-width:0.48;"/>
    <path clip-path="url(#p3620d72f3a)" d="M 350.449205 187.711385 
C 351.244814 187.711385 352.007944 187.395286 352.570525 186.832705 
C 353.133106 186.270124 353.449205 185.506994 353.449205 184.711385 
C 353.449205 183.915775 353.133106 183.152645 352.570525 182.590064 
C 352.007944 182.027484 351.244814 181.711385 350.449205 181.711385 
C 349.653595 181.711385 348.890465 182.027484 348.327884 182.590064 
C 347.765303 183.152645 347.449205 183.915775 347.449205 184.711385 
C 347.449205 185.506994 347.765303 186.270124 348.327884 186.832705 
C 348.890465 187.395286 349.653595 187.711385 350.449205 187.711385 
z
" style="fill:#f26b38;stroke:#ffffff;stroke-width:0.48;"/>
    <path clip-path="url(#p3620d72f3a)" d="M 357.212841 187.711385 
C 358.00845 187.711385 358.771581 187.395286 359.334161 186.832705 
C 359.896742 186.270124 360.212841 185.506994 360.212841 184.711385 
C 360.212841 183.915775 359.896742 183.152645 359.334161 182.590064 
C 358.771581 182.027484 358.00845 181.711385 357.212841 181.711385 
C 356.417232 181.711385 355.654101 182.027484 355.091521 182.590064 
C 354.52894 183.152645 354.212841 183.915775 354.212841 184.711385 
C 354.212841 185.506994 354.52894 186.270124 355.091521 186.832705 
C 355.654101 187.395286 356.417232 187.711385 357.212841 187.711385 
z
" style="fill:#f26b38;stroke:#ffffff;stroke-width:0.48;"/>
    <path clip-path="url(#p3620d72f3a)" d="M 363.976477 187.711385 
C 364.772087 187.711385 365.535217 187.395286 366.097798 186.832705 
C 366.660378 186.270124 366.976477 185.506994 366.976477 184.711385 
C 366.976477 183.915775 366.660378 183.152645 366.097798 182.590064 
C 365.535217 182.027484 364.772087 181.711385 363.976477 181.711385 
C 363.180868 181.711385 362.417738 182.027484 361.855157 182.590064 
C 361.292576 183.152645 360.976477 183.915775 360.976477 184.711385 
C 360.976477 185.506994 361.292576 186.270124 361.855157 186.832705 
C 362.417738 187.395286 363.180868 187.711385 363.976477 187.711385 
z
" style="fill:#f26b38;stroke:#ffffff;stroke-width:0.48;"/>
    <path clip-path="url(#p3620d72f3a)" d="M 370.740114 187.711385 
C 371.535723 187.711385 372.298853 187.395286 372.861434 186.832705 
C 373.424015 186.270124 373.740114 185.506994 373.740114 184.711385 
C 373.740114 183.915775 373.424015 183.152645 372.861434 182.590064 
C 372.298853 182.027484 371.535723 181.711385 370.740114 181.711385 
C 369.944504 181.711385 369.181374 182.027484 368.618793 182.590064 
C 368.056213 183.152645 367.740114 183.915775 367.740114 184.711385 
C 367.740114 185.506994 368.056213 186.270124 368.618793 186.832705 
C 369.181374 187.395286 369.944504 187.711385 370.740114 187.711385 
z
" style="fill:#f26b38;stroke:#ffffff;stroke-width:0.48;"/>
    <path clip-path="url(#p3620d72f3a)" d="M 377.50375 187.711385 
C 378.299359 187.711385 379.06249 187.395286 379.62507 186.832705 
C 380.187651 186.270124 380.50375 185.506994 380.50375 184.711385 
C 380.50375 183.915775 380.187651 183.152645 379.62507 182.590064 
C 379.06249 182.027484 378.299359 181.711385 377.50375 181.711385 
C 376.708141 181.711385 375.94501 182.027484 375.38243 182.590064 
C 374.819849 183.152645 374.50375 183.915775 374.50375 184.711385 
C 374.50375 185.506994 374.819849 186.270124 375.38243 186.832705 
C 375.94501 187.395286 376.708141 187.711385 377.50375 187.711385 
z
" style="fill:#f26b38;stroke:#ffffff;stroke-width:0.48;"/>
    <path clip-path="url(#p3620d72f3a)" d="M 384.267386 187.711385 
C 385.062996 187.711385 385.826126 187.395286 386.388707 186.832705 
C 386.951287 186.270124 387.267386 185.506994 387.267386 184.711385 
C 387.267386 183.915775 386.951287 183.152645 386.388707 182.590064 
C 385.826126 182.027484 385.062996 181.711385 384.267386 181.711385 
C 383.471777 181.711385 382.708647 182.027484 382.146066 182.590064 
C 381.583485 183.152645 381.267386 183.915775 381.267386 184.711385 
C 381.267386 185.506994 381.583485 186.270124 382.146066 186.832705 
C 382.708647 187.395286 383.471777 187.711385 384.267386 187.711385 
z
" style="fill:#f26b38;stroke:#ffffff;stroke-width:0.48;"/>
    <path clip-path="url(#p3620d72f3a)" d="M 391.031023 187.711385 
C 391.826632 187.711385 392.589762 187.395286 393.152343 186.832705 
C 393.714924 186.270124 394.031023 185.506994 394.031023 184.711385 
C 394.031023 183.915775 393.714924 183.152645 393.152343 182.590064 
C 392.589762 182.027484 391.826632 181.711385 391.031023 181.711385 
C 390.235413 181.711385 389.472283 182.027484 388.909702 182.590064 
C 388.347122 183.152645 388.031023 183.915775 388.031023 184.711385 
C 388.031023 185.506994 388.347122 186.270124 388.909702 186.832705 
C 389.472283 187.395286 390.235413 187.711385 391.031023 187.711385 
z
" style="fill:#f26b38;stroke:#ffffff;stroke-width:0.48;"/>
    <path clip-path="url(#p3620d72f3a)" d="M 64.876477 57.653538 
L 66.376477 56.153538 
L 67.876477 57.653538 
L 69.376477 56.153538 
L 67.876477 54.653538 
L 69.376477 53.153538 
L 67.876477 51.653538 
L 66.376477 53.153538 
L 64.876477 51.653538 
L 63.376477 53.153538 
L 64.876477 54.653538 
L 63.376477 56.153538 
z
" style="fill:#2f9599;stroke:#ffffff;stroke-width:0.48;"/>
    <path clip-path="url(#p3620d72f3a)" d="M 71.640114 142.70867 
L 73.140114 141.20867 
L 74.640114 142.70867 
L 76.140114 141.20867 
L 74.640114 139.70867 
L 76.140114 138.20867 
L 74.640114 136.70867 
L 73.140114 138.20867 
L 71.640114 136.70867 
L 70.140114 138.20867 
L 71.640114 139.70867 
L 70.140114 141.20867 
z
" style="fill:#2f9599;stroke:#ffffff;stroke-width:0.48;"/>
    <path clip-path="url(#p3620d72f3a)" d="M 78.40375 142.70867 
L 79.90375 141.20867 
L 81.40375 142.70867 
L 82.90375 141.20867 
L 81.40375 139.70867 
L 82.90375 138.20867 
L 81.40375 136.70867 
L 79.90375 138.20867 
L 78.40375 136.70867 
L 76.90375 138.20867 
L 78.40375 139.70867 
L 76.90375 141.20867 
z
" style="fill:#2f9599;stroke:#ffffff;stroke-width:0.48;"/>
    <path clip-path="url(#p3620d72f3a)" d="M 85.167386 184.768899 
L 86.667386 183.268899 
L 88.167386 184.768899 
L 89.667386 183.268899 
L 88.167386 181.768899 
L 89.667386 180.268899 
L 88.167386 178.768899 
L 86.667386 180.268899 
L 85.167386 178.768899 
L 83.667386 180.268899 
L 85.167386 181.768899 
L 83.667386 183.268899 
z
" style="fill:#2f9599;stroke:#ffffff;stroke-width:0.48;"/>
    <path clip-path="url(#p3620d72f3a)" d="M 91.931023 199.665231 
L 93.431023 198.165231 
L 94.931023 199.665231 
L 96.431023 198.165231 
L 94.931023 196.665231 
L 96.431023 195.165231 
L 94.931023 193.665231 
L 93.431023 195.165231 
L 91.931023 193.665231 
L 90.431023 195.165231 
L 91.931023 196.665231 
L 90.431023 198.165231 
z
" style="fill:#2f9599;stroke:#ffffff;stroke-width:0.48;"/>
    <path clip-path="url(#p3620d72f3a)" d="M 98.694659 247.284651 
L 100.194659 245.784651 
L 101.694659 247.284651 
L 103.194659 245.784651 
L 101.694659 244.284651 
L 103.194659 242.784651 
L 101.694659 241.284651 
L 100.194659 242.784651 
L 98.694659 241.284651 
L 97.194659 242.784651 
L 98.694659 244.284651 
L 97.194659 245.784651 
z
" style="fill:#2f9599;stroke:#ffffff;stroke-width:0.48;"/>
    <path clip-path="url(#p3620d72f3a)" d="M 105.458295 247.284651 
L 106.958295 245.784651 
L 108.458295 247.284651 
L 109.958295 245.784651 
L 108.458295 244.284651 
L 109.958295 242.784651 
L 108.458295 241.284651 
L 106.958295 242.784651 
L 105.458295 241.284651 
L 103.958295 242.784651 
L 105.458295 244.284651 
L 103.958295 245.784651 
z
" style="fill:#2f9599;stroke:#ffffff;stroke-width:0.48;"/>
    <path clip-path="url(#p3620d72f3a)" d="M 112.221932 247.284651 
L 113.721932 245.784651 
L 115.221932 247.284651 
L 116.721932 245.784651 
L 115.221932 244.284651 
L 116.721932 242.784651 
L 115.221932 241.284651 
L 113.721932 242.784651 
L 112.221932 241.284651 
L 110.721932 242.784651 
L 112.221932 244.284651 
L 110.721932 245.784651 
z
" style="fill:#2f9599;stroke:#ffffff;stroke-width:0.48;"/>
    <path clip-path="url(#p3620d72f3a)" d="M 118.985568 247.284651 
L 120.485568 245.784651 
L 121.985568 247.284651 
L 123.485568 245.784651 
L 121.985568 244.284651 
L 123.485568 242.784651 
L 121.985568 241.284651 
L 120.485568 242.784651 
L 118.985568 241.284651 
L 117.485568 242.784651 
L 118.985568 244.284651 
L 117.485568 245.784651 
z
" style="fill:#2f9599;stroke:#ffffff;stroke-width:0.48;"/>
    <path clip-path="url(#p3620d72f3a)" d="M 125.749205 247.284651 
L 127.249205 245.784651 
L 128.749205 247.284651 
L 130.249205 245.784651 
L 128.749205 244.284651 
L 130.249205 242.784651 
L 128.749205 241.284651 
L 127.249205 242.784651 
L 125.749205 241.284651 
L 124.249205 242.784651 
L 125.749205 244.284651 
L 124.249205 245.784651 
z
" style="fill:#2f9599;stroke:#ffffff;stroke-width:0.48;"/>
    <path clip-path="url(#p3620d72f3a)" d="M 132.512841 247.284651 
L 134.012841 245.784651 
L 135.512841 247.284651 
L 137.012841 245.784651 
L 135.512841 244.284651 
L 137.012841 242.784651 
L 135.512841 241.284651 
L 134.012841 242.784651 
L 132.512841 241.284651 
L 131.012841 242.784651 
L 132.512841 244.284651 
L 131.012841 245.784651 
z
" style="fill:#2f9599;stroke:#ffffff;stroke-width:0.48;"/>
    <path clip-path="url(#p3620d72f3a)" d="M 139.276477 247.284651 
L 140.776477 245.784651 
L 142.276477 247.284651 
L 143.776477 245.784651 
L 142.276477 244.284651 
L 143.776477 242.784651 
L 142.276477 241.284651 
L 140.776477 242.784651 
L 139.276477 241.284651 
L 137.776477 242.784651 
L 139.276477 244.284651 
L 137.776477 245.784651 
z
" style="fill:#2f9599;stroke:#ffffff;stroke-width:0.48;"/>
    <path clip-path="url(#p3620d72f3a)" d="M 146.040114 247.284651 
L 147.540114 245.784651 
L 149.040114 247.284651 
L 150.540114 245.784651 
L 149.040114 244.284651 
L 150.540114 242.784651 
L 149.040114 241.284651 
L 147.540114 242.784651 
L 146.040114 241.284651 
L 144.540114 242.784651 
L 146.040114 244.284651 
L 144.540114 245.784651 
z
" style="fill:#2f9599;stroke:#ffffff;stroke-width:0.48;"/>
    <path clip-path="url(#p3620d72f3a)" d="M 152.80375 247.284651 
L 154.30375 245.784651 
L 155.80375 247.284651 
L 157.30375 245.784651 
L 155.80375 244.284651 
L 157.30375 242.784651 
L 155.80375 241.284651 
L 154.30375 242.784651 
L 152.80375 241.284651 
L 151.30375 242.784651 
L 152.80375 244.284651 
L 151.30375 245.784651 
z
" style="fill:#2f9599;stroke:#ffffff;stroke-width:0.48;"/>
    <path clip-path="url(#p3620d72f3a)" d="M 159.567386 247.284651 
L 161.067386 245.784651 
L 162.567386 247.284651 
L 164.067386 245.784651 
L 162.567386 244.284651 
L 164.067386 242.784651 
L 162.567386 241.284651 
L 161.067386 242.784651 
L 159.567386 241.284651 
L 158.067386 242.784651 
L 159.567386 244.284651 
L 158.067386 245.784651 
z
" style="fill:#2f9599;stroke:#ffffff;stroke-width:0.48;"/>
    <path clip-path="url(#p3620d72f3a)" d="M 166.331023 247.284651 
L 167.831023 245.784651 
L 169.331023 247.284651 
L 170.831023 245.784651 
L 169.331023 244.284651 
L 170.831023 242.784651 
L 169.331023 241.284651 
L 167.831023 242.784651 
L 166.331023 241.284651 
L 164.831023 242.784651 
L 166.331023 244.284651 
L 164.831023 245.784651 
z
" style="fill:#2f9599;stroke:#ffffff;stroke-width:0.48;"/>
    <path clip-path="url(#p3620d72f3a)" d="M 173.094659 264.216 
L 174.594659 262.716 
L 176.094659 264.216 
L 177.594659 262.716 
L 176.094659 261.216 
L 177.594659 259.716 
L 176.094659 258.216 
L 174.594659 259.716 
L 173.094659 258.216 
L 171.594659 259.716 
L 173.094659 261.216 
L 171.594659 262.716 
z
" style="fill:#2f9599;stroke:#ffffff;stroke-width:0.48;"/>
    <path clip-path="url(#p3620d72f3a)" d="M 179.858295 264.216 
L 181.358295 262.716 
L 182.858295 264.216 
L 184.358295 262.716 
L 182.858295 261.216 
L 184.358295 259.716 
L 182.858295 258.216 
L 181.358295 259.716 
L 179.858295 258.216 
L 178.358295 259.716 
L 179.858295 261.216 
L 178.358295 262.716 
z
" style="fill:#2f9599;stroke:#ffffff;stroke-width:0.48;"/>
    <path clip-path="url(#p3620d72f3a)" d="M 186.621932 264.216 
L 188.121932 262.716 
L 189.621932 264.216 
L 191.121932 262.716 
L 189.621932 261.216 
L 191.121932 259.716 
L 189.621932 258.216 
L 188.121932 259.716 
L 186.621932 258.216 
L 185.121932 259.716 
L 186.621932 261.216 
L 185.121932 262.716 
z
" style="fill:#2f9599;stroke:#ffffff;stroke-width:0.48;"/>
    <path clip-path="url(#p3620d72f3a)" d="M 193.385568 264.216 
L 194.885568 262.716 
L 196.385568 264.216 
L 197.885568 262.716 
L 196.385568 261.216 
L 197.885568 259.716 
L 196.385568 258.216 
L 194.885568 259.716 
L 193.385568 258.216 
L 191.885568 259.716 
L 193.385568 261.216 
L 191.885568 262.716 
z
" style="fill:#2f9599;stroke:#ffffff;stroke-width:0.48;"/>
    <path clip-path="url(#p3620d72f3a)" d="M 200.149205 264.216 
L 201.649205 262.716 
L 203.149205 264.216 
L 204.649205 262.716 
L 203.149205 261.216 
L 204.649205 259.716 
L 203.149205 258.216 
L 201.649205 259.716 
L 200.149205 258.216 
L 198.649205 259.716 
L 200.149205 261.216 
L 198.649205 262.716 
z
" style="fill:#2f9599;stroke:#ffffff;stroke-width:0.48;"/>
    <path clip-path="url(#p3620d72f3a)" d="M 206.912841 264.216 
L 208.412841 262.716 
L 209.912841 264.216 
L 211.412841 262.716 
L 209.912841 261.216 
L 211.412841 259.716 
L 209.912841 258.216 
L 208.412841 259.716 
L 206.912841 258.216 
L 205.412841 259.716 
L 206.912841 261.216 
L 205.412841 262.716 
z
" style="fill:#2f9599;stroke:#ffffff;stroke-width:0.48;"/>
    <path clip-path="url(#p3620d72f3a)" d="M 213.676477 264.216 
L 215.176477 262.716 
L 216.676477 264.216 
L 218.176477 262.716 
L 216.676477 261.216 
L 218.176477 259.716 
L 216.676477 258.216 
L 215.176477 259.716 
L 213.676477 258.216 
L 212.176477 259.716 
L 213.676477 261.216 
L 212.176477 262.716 
z
" style="fill:#2f9599;stroke:#ffffff;stroke-width:0.48;"/>
    <path clip-path="url(#p3620d72f3a)" d="M 220.440114 264.216 
L 221.940114 262.716 
L 223.440114 264.216 
L 224.940114 262.716 
L 223.440114 261.216 
L 224.940114 259.716 
L 223.440114 258.216 
L 221.940114 259.716 
L 220.440114 258.216 
L 218.940114 259.716 
L 220.440114 261.216 
L 218.940114 262.716 
z
" style="fill:#2f9599;stroke:#ffffff;stroke-width:0.48;"/>
    <path clip-path="url(#p3620d72f3a)" d="M 227.20375 264.216 
L 228.70375 262.716 
L 230.20375 264.216 
L 231.70375 262.716 
L 230.20375 261.216 
L 231.70375 259.716 
L 230.20375 258.216 
L 228.70375 259.716 
L 227.20375 258.216 
L 225.70375 259.716 
L 227.20375 261.216 
L 225.70375 262.716 
z
" style="fill:#2f9599;stroke:#ffffff;stroke-width:0.48;"/>
    <path clip-path="url(#p3620d72f3a)" d="M 233.967386 264.216 
L 235.467386 262.716 
L 236.967386 264.216 
L 238.467386 262.716 
L 236.967386 261.216 
L 238.467386 259.716 
L 236.967386 258.216 
L 235.467386 259.716 
L 233.967386 258.216 
L 232.467386 259.716 
L 233.967386 261.216 
L 232.467386 262.716 
z
" style="fill:#2f9599;stroke:#ffffff;stroke-width:0.48;"/>
    <path clip-path="url(#p3620d72f3a)" d="M 240.731023 264.216 
L 242.231023 262.716 
L 243.731023 264.216 
L 245.231023 262.716 
L 243.731023 261.216 
L 245.231023 259.716 
L 243.731023 258.216 
L 242.231023 259.716 
L 240.731023 258.216 
L 239.231023 259.716 
L 240.731023 261.216 
L 239.231023 262.716 
z
" style="fill:#2f9599;stroke:#ffffff;stroke-width:0.48;"/>
    <path clip-path="url(#p3620d72f3a)" d="M 247.494659 264.216 
L 248.994659 262.716 
L 250.494659 264.216 
L 251.994659 262.716 
L 250.494659 261.216 
L 251.994659 259.716 
L 250.494659 258.216 
L 248.994659 259.716 
L 247.494659 258.216 
L 245.994659 259.716 
L 247.494659 261.216 
L 245.994659 262.716 
z
" style="fill:#2f9599;stroke:#ffffff;stroke-width:0.48;"/>
    <path clip-path="url(#p3620d72f3a)" d="M 254.258295 264.216 
L 255.758295 262.716 
L 257.258295 264.216 
L 258.758295 262.716 
L 257.258295 261.216 
L 258.758295 259.716 
L 257.258295 258.216 
L 255.758295 259.716 
L 254.258295 258.216 
L 252.758295 259.716 
L 254.258295 261.216 
L 252.758295 262.716 
z
" style="fill:#2f9599;stroke:#ffffff;stroke-width:0.48;"/>
    <path clip-path="url(#p3620d72f3a)" d="M 261.021932 264.216 
L 262.521932 262.716 
L 264.021932 264.216 
L 265.521932 262.716 
L 264.021932 261.216 
L 265.521932 259.716 
L 264.021932 258.216 
L 262.521932 259.716 
L 261.021932 258.216 
L 259.521932 259.716 
L 261.021932 261.216 
L 259.521932 262.716 
z
" style="fill:#2f9599;stroke:#ffffff;stroke-width:0.48;"/>
    <path clip-path="url(#p3620d72f3a)" d="M 267.785568 264.216 
L 269.285568 262.716 
L 270.785568 264.216 
L 272.285568 262.716 
L 270.785568 261.216 
L 272.285568 259.716 
L 270.785568 258.216 
L 269.285568 259.716 
L 267.785568 258.216 
L 266.285568 259.716 
L 267.785568 261.216 
L 266.285568 262.716 
z
" style="fill:#2f9599;stroke:#ffffff;stroke-width:0.48;"/>
    <path clip-path="url(#p3620d72f3a)" d="M 274.549205 264.216 
L 276.049205 262.716 
L 277.549205 264.216 
L 279.049205 262.716 
L 277.549205 261.216 
L 279.049205 259.716 
L 277.549205 258.216 
L 276.049205 259.716 
L 274.549205 258.216 
L 273.049205 259.716 
L 274.549205 261.216 
L 273.049205 262.716 
z
" style="fill:#2f9599;stroke:#ffffff;stroke-width:0.48;"/>
    <path clip-path="url(#p3620d72f3a)" d="M 281.312841 264.216 
L 282.812841 262.716 
L 284.312841 264.216 
L 285.812841 262.716 
L 284.312841 261.216 
L 285.812841 259.716 
L 284.312841 258.216 
L 282.812841 259.716 
L 281.312841 258.216 
L 279.812841 259.716 
L 281.312841 261.216 
L 279.812841 262.716 
z
" style="fill:#2f9599;stroke:#ffffff;stroke-width:0.48;"/>
    <path clip-path="url(#p3620d72f3a)" d="M 288.076477 264.216 
L 289.576477 262.716 
L 291.076477 264.216 
L 292.576477 262.716 
L 291.076477 261.216 
L 292.576477 259.716 
L 291.076477 258.216 
L 289.576477 259.716 
L 288.076477 258.216 
L 286.576477 259.716 
L 288.076477 261.216 
L 286.576477 262.716 
z
" style="fill:#2f9599;stroke:#ffffff;stroke-width:0.48;"/>
    <path clip-path="url(#p3620d72f3a)" d="M 294.840114 264.216 
L 296.340114 262.716 
L 297.840114 264.216 
L 299.340114 262.716 
L 297.840114 261.216 
L 299.340114 259.716 
L 297.840114 258.216 
L 296.340114 259.716 
L 294.840114 258.216 
L 293.340114 259.716 
L 294.840114 261.216 
L 293.340114 262.716 
z
" style="fill:#2f9599;stroke:#ffffff;stroke-width:0.48;"/>
    <path clip-path="url(#p3620d72f3a)" d="M 301.60375 264.216 
L 303.10375 262.716 
L 304.60375 264.216 
L 306.10375 262.716 
L 304.60375 261.216 
L 306.10375 259.716 
L 304.60375 258.216 
L 303.10375 259.716 
L 301.60375 258.216 
L 300.10375 259.716 
L 301.60375 261.216 
L 300.10375 262.716 
z
" style="fill:#2f9599;stroke:#ffffff;stroke-width:0.48;"/>
    <path clip-path="url(#p3620d72f3a)" d="M 308.367386 264.216 
L 309.867386 262.716 
L 311.367386 264.216 
L 312.867386 262.716 
L 311.367386 261.216 
L 312.867386 259.716 
L 311.367386 258.216 
L 309.867386 259.716 
L 308.367386 258.216 
L 306.867386 259.716 
L 308.367386 261.216 
L 306.867386 262.716 
z
" style="fill:#2f9599;stroke:#ffffff;stroke-width:0.48;"/>
    <path clip-path="url(#p3620d72f3a)" d="M 315.131023 264.216 
L 316.631023 262.716 
L 318.131023 264.216 
L 319.631023 262.716 
L 318.131023 261.216 
L 319.631023 259.716 
L 318.131023 258.216 
L 316.631023 259.716 
L 315.131023 258.216 
L 313.631023 259.716 
L 315.131023 261.216 
L 313.631023 262.716 
z
" style="fill:#2f9599;stroke:#ffffff;stroke-width:0.48;"/>
    <path clip-path="url(#p3620d72f3a)" d="M 321.894659 264.216 
L 323.394659 262.716 
L 324.894659 264.216 
L 326.394659 262.716 
L 324.894659 261.216 
L 326.394659 259.716 
L 324.894659 258.216 
L 323.394659 259.716 
L 321.894659 258.216 
L 320.394659 259.716 
L 321.894659 261.216 
L 320.394659 262.716 
z
" style="fill:#2f9599;stroke:#ffffff;stroke-width:0.48;"/>
    <path clip-path="url(#p3620d72f3a)" d="M 328.658295 264.216 
L 330.158295 262.716 
L 331.658295 264.216 
L 333.158295 262.716 
L 331.658295 261.216 
L 333.158295 259.716 
L 331.658295 258.216 
L 330.158295 259.716 
L 328.658295 258.216 
L 327.158295 259.716 
L 328.658295 261.216 
L 327.158295 262.716 
z
" style="fill:#2f9599;stroke:#ffffff;stroke-width:0.48;"/>
    <path clip-path="url(#p3620d72f3a)" d="M 335.421932 264.216 
L 336.921932 262.716 
L 338.421932 264.216 
L 339.921932 262.716 
L 338.421932 261.216 
L 339.921932 259.716 
L 338.421932 258.216 
L 336.921932 259.716 
L 335.421932 258.216 
L 333.921932 259.716 
L 335.421932 261.216 
L 333.921932 262.716 
z
" style="fill:#2f9599;stroke:#ffffff;stroke-width:0.48;"/>
    <path clip-path="url(#p3620d72f3a)" d="M 342.185568 264.216 
L 343.685568 262.716 
L 345.185568 264.216 
L 346.685568 262.716 
L 345.185568 261.216 
L 346.685568 259.716 
L 345.185568 258.216 
L 343.685568 259.716 
L 342.185568 258.216 
L 340.685568 259.716 
L 342.185568 261.216 
L 340.685568 262.716 
z
" style="fill:#2f9599;stroke:#ffffff;stroke-width:0.48;"/>
    <path clip-path="url(#p3620d72f3a)" d="M 348.949205 264.216 
L 350.449205 262.716 
L 351.949205 264.216 
L 353.449205 262.716 
L 351.949205 261.216 
L 353.449205 259.716 
L 351.949205 258.216 
L 350.449205 259.716 
L 348.949205 258.216 
L 347.449205 259.716 
L 348.949205 261.216 
L 347.449205 262.716 
z
" style="fill:#2f9599;stroke:#ffffff;stroke-width:0.48;"/>
    <path clip-path="url(#p3620d72f3a)" d="M 355.712841 264.216 
L 357.212841 262.716 
L 358.712841 264.216 
L 360.212841 262.716 
L 358.712841 261.216 
L 360.212841 259.716 
L 358.712841 258.216 
L 357.212841 259.716 
L 355.712841 258.216 
L 354.212841 259.716 
L 355.712841 261.216 
L 354.212841 262.716 
z
" style="fill:#2f9599;stroke:#ffffff;stroke-width:0.48;"/>
    <path clip-path="url(#p3620d72f3a)" d="M 362.476477 264.216 
L 363.976477 262.716 
L 365.476477 264.216 
L 366.976477 262.716 
L 365.476477 261.216 
L 366.976477 259.716 
L 365.476477 258.216 
L 363.976477 259.716 
L 362.476477 258.216 
L 360.976477 259.716 
L 362.476477 261.216 
L 360.976477 262.716 
z
" style="fill:#2f9599;stroke:#ffffff;stroke-width:0.48;"/>
    <path clip-path="url(#p3620d72f3a)" d="M 369.240114 264.216 
L 370.740114 262.716 
L 372.240114 264.216 
L 373.740114 262.716 
L 372.240114 261.216 
L 373.740114 259.716 
L 372.240114 258.216 
L 370.740114 259.716 
L 369.240114 258.216 
L 367.740114 259.716 
L 369.240114 261.216 
L 367.740114 262.716 
z
" style="fill:#2f9599;stroke:#ffffff;stroke-width:0.48;"/>
    <path clip-path="url(#p3620d72f3a)" d="M 376.00375 264.216 
L 377.50375 262.716 
L 379.00375 264.216 
L 380.50375 262.716 
L 379.00375 261.216 
L 380.50375 259.716 
L 379.00375 258.216 
L 377.50375 259.716 
L 376.00375 258.216 
L 374.50375 259.716 
L 376.00375 261.216 
L 374.50375 262.716 
z
" style="fill:#2f9599;stroke:#ffffff;stroke-width:0.48;"/>
    <path clip-path="url(#p3620d72f3a)" d="M 382.767386 264.216 
L 384.267386 262.716 
L 385.767386 264.216 
L 387.267386 262.716 
L 385.767386 261.216 
L 387.267386 259.716 
L 385.767386 258.216 
L 384.267386 259.716 
L 382.767386 258.216 
L 381.267386 259.716 
L 382.767386 261.216 
L 381.267386 262.716 
z
" style="fill:#2f9599;stroke:#ffffff;stroke-width:0.48;"/>
    <path clip-path="url(#p3620d72f3a)" d="M 389.531023 264.216 
L 391.031023 262.716 
L 392.531023 264.216 
L 394.031023 262.716 
L 392.531023 261.216 
L 394.031023 259.716 
L 392.531023 258.216 
L 391.031023 259.716 
L 389.531023 258.216 
L 388.031023 259.716 
L 389.531023 261.216 
L 388.031023 262.716 
z
" style="fill:#2f9599;stroke:#ffffff;stroke-width:0.48;"/>
    <path clip-path="url(#p3620d72f3a)" d="M 64.255157 39.14391 
L 64.255157 43.386551 
L 68.497798 43.386551 
L 68.497798 39.14391 
z
" style="fill:#a7226e;stroke:#ffffff;stroke-width:0.48;"/>
    <path clip-path="url(#p3620d72f3a)" d="M 71.018793 39.14391 
L 71.018793 43.386551 
L 75.261434 43.386551 
L 75.261434 39.14391 
z
" style="fill:#a7226e;stroke:#ffffff;stroke-width:0.48;"/>
    <path clip-path="url(#p3620d72f3a)" d="M 77.78243 39.14391 
L 77.78243 43.386551 
L 82.02507 43.386551 
L 82.02507 39.14391 
z
" style="fill:#a7226e;stroke:#ffffff;stroke-width:0.48;"/>
    <path clip-path="url(#p3620d72f3a)" d="M 84.546066 39.14391 
L 84.546066 43.386551 
L 88.788707 43.386551 
L 88.788707 39.14391 
z
" style="fill:#a7226e;stroke:#ffffff;stroke-width:0.48;"/>
    <path clip-path="url(#p3620d72f3a)" d="M 91.309702 39.14391 
L 91.309702 43.386551 
L 95.552343 43.386551 
L 95.552343 39.14391 
z
" style="fill:#a7226e;stroke:#ffffff;stroke-width:0.48;"/>
    <path clip-path="url(#p3620d72f3a)" d="M 98.073339 39.14391 
L 98.073339 43.386551 
L 102.315979 43.386551 
L 102.315979 39.14391 
z
" style="fill:#a7226e;stroke:#ffffff;stroke-width:0.48;"/>
    <path clip-path="url(#p3620d72f3a)" d="M 104.836975 39.14391 
L 104.836975 43.386551 
L 109.079616 43.386551 
L 109.079616 39.14391 
z
" style="fill:#a7226e;stroke:#ffffff;stroke-width:0.48;"/>
    <path clip-path="url(#p3620d72f3a)" d="M 111.600611 50.592664 
L 111.600611 54.835305 
L 115.843252 54.835305 
L 115.843252 50.592664 
z
" style="fill:#a7226e;stroke:#ffffff;stroke-width:0.48;"/>
    <path clip-path="url(#p3620d72f3a)" d="M 118.364248 39.14391 
L 118.364248 43.386551 
L 122.606889 43.386551 
L 122.606889 39.14391 
z
" style="fill:#a7226e;stroke:#ffffff;stroke-width:0.48;"/>
    <path clip-path="url(#p3620d72f3a)" d="M 125.127884 39.14391 
L 125.127884 43.386551 
L 129.370525 43.386551 
L 129.370525 39.14391 
z
" style="fill:#a7226e;stroke:#ffffff;stroke-width:0.48;"/>
    <path clip-path="url(#p3620d72f3a)" d="M 131.891521 39.14391 
L 131.891521 43.386551 
L 136.134161 43.386551 
L 136.134161 39.14391 
z
" style="fill:#a7226e;stroke:#ffffff;stroke-width:0.48;"/>
    <path clip-path="url(#p3620d72f3a)" d="M 138.655157 39.14391 
L 138.655157 43.386551 
L 142.897798 43.386551 
L 142.897798 39.14391 
z
" style="fill:#a7226e;stroke:#ffffff;stroke-width:0.48;"/>
    <path clip-path="url(#p3620d72f3a)" d="M 145.418793 39.14391 
L 145.418793 43.386551 
L 149.661434 43.386551 
L 149.661434 39.14391 
z
" style="fill:#a7226e;stroke:#ffffff;stroke-width:0.48;"/>
    <path clip-path="url(#p3620d72f3a)" d="M 152.18243 39.14391 
L 152.18243 43.386551 
L 156.42507 43.386551 
L 156.42507 39.14391 
z
" style="fill:#a7226e;stroke:#ffffff;stroke-width:0.48;"/>
    <path clip-path="url(#p3620d72f3a)" d="M 158.946066 39.14391 
L 158.946066 43.386551 
L 163.188707 43.386551 
L 163.188707 39.14391 
z
" style="fill:#a7226e;stroke:#ffffff;stroke-width:0.48;"/>
    <path clip-path="url(#p3620d72f3a)" d="M 165.709702 39.14391 
L 165.709702 43.386551 
L 169.952343 43.386551 
L 169.952343 39.14391 
z
" style="fill:#a7226e;stroke:#ffffff;stroke-width:0.48;"/>
    <path clip-path="url(#p3620d72f3a)" d="M 172.473339 28.008821 
L 172.473339 32.251462 
L 176.715979 32.251462 
L 176.715979 28.008821 
z
" style="fill:#a7226e;stroke:#ffffff;stroke-width:0.48;"/>
    <path clip-path="url(#p3620d72f3a)" d="M 179.236975 28.008821 
L 179.236975 32.251462 
L 183.479616 32.251462 
L 183.479616 28.008821 
z
" style="fill:#a7226e;stroke:#ffffff;stroke-width:0.48;"/>
    <path clip-path="url(#p3620d72f3a)" d="M 186.000611 28.008821 
L 186.000611 32.251462 
L 190.243252 32.251462 
L 190.243252 28.008821 
z
" style="fill:#a7226e;stroke:#ffffff;stroke-width:0.48;"/>
    <path clip-path="url(#p3620d72f3a)" d="M 192.764248 17.17468 
L 192.764248 21.41732 
L 197.006889 21.41732 
L 197.006889 17.17468 
z
" style="fill:#a7226e;stroke:#ffffff;stroke-width:0.48;"/>
    <path clip-path="url(#p3620d72f3a)" d="M 199.527884 17.17468 
L 199.527884 21.41732 
L 203.770525 21.41732 
L 203.770525 17.17468 
z
" style="fill:#a7226e;stroke:#ffffff;stroke-width:0.48;"/>
    <path clip-path="url(#p3620d72f3a)" d="M 206.291521 99.805219 
L 206.291521 104.04786 
L 210.534161 104.04786 
L 210.534161 99.805219 
z
" style="fill:#a7226e;stroke:#ffffff;stroke-width:0.48;"/>
    <path clip-path="url(#p3620d72f3a)" d="M 213.055157 99.805219 
L 213.055157 104.04786 
L 217.297798 104.04786 
L 217.297798 99.805219 
z
" style="fill:#a7226e;stroke:#ffffff;stroke-width:0.48;"/>
    <path clip-path="url(#p3620d72f3a)" d="M 219.818793 113.040414 
L 219.818793 117.283055 
L 224.061434 117.283055 
L 224.061434 113.040414 
z
" style="fill:#a7226e;stroke:#ffffff;stroke-width:0.48;"/>
    <path clip-path="url(#p3620d72f3a)" d="M 226.58243 113.040414 
L 226.58243 117.283055 
L 230.82507 117.283055 
L 230.82507 113.040414 
z
" style="fill:#a7226e;stroke:#ffffff;stroke-width:0.48;"/>
    <path clip-path="url(#p3620d72f3a)" d="M 233.346066 113.040414 
L 233.346066 117.283055 
L 237.588707 117.283055 
L 237.588707 113.040414 
z
" style="fill:#a7226e;stroke:#ffffff;stroke-width:0.48;"/>
    <path clip-path="url(#p3620d72f3a)" d="M 240.109702 155.266987 
L 240.109702 159.509628 
L 244.352343 159.509628 
L 244.352343 155.266987 
z
" style="fill:#a7226e;stroke:#ffffff;stroke-width:0.48;"/>
    <path clip-path="url(#p3620d72f3a)" d="M 246.873339 155.266987 
L 246.873339 159.509628 
L 251.115979 159.509628 
L 251.115979 155.266987 
z
" style="fill:#a7226e;stroke:#ffffff;stroke-width:0.48;"/>
    <path clip-path="url(#p3620d72f3a)" d="M 253.636975 155.266987 
L 253.636975 159.509628 
L 257.879616 159.509628 
L 257.879616 155.266987 
z
" style="fill:#a7226e;stroke:#ffffff;stroke-width:0.48;"/>
    <path clip-path="url(#p3620d72f3a)" d="M 260.400611 155.266987 
L 260.400611 159.509628 
L 264.643252 159.509628 
L 264.643252 155.266987 
z
" style="fill:#a7226e;stroke:#ffffff;stroke-width:0.48;"/>
    <path clip-path="url(#p3620d72f3a)" d="M 267.164248 155.266987 
L 267.164248 159.509628 
L 271.406889 159.509628 
L 271.406889 155.266987 
z
" style="fill:#a7226e;stroke:#ffffff;stroke-width:0.48;"/>
    <path clip-path="url(#p3620d72f3a)" d="M 273.927884 155.266987 
L 273.927884 159.509628 
L 278.170525 159.509628 
L 278.170525 155.266987 
z
" style="fill:#a7226e;stroke:#ffffff;stroke-width:0.48;"/>
    <path clip-path="url(#p3620d72f3a)" d="M 280.691521 155.266987 
L 280.691521 159.509628 
L 284.934161 159.509628 
L 284.934161 155.266987 
z
" style="fill:#a7226e;stroke:#ffffff;stroke-width:0.48;"/>
    <path clip-path="url(#p3620d72f3a)" d="M 287.455157 155.266987 
L 287.455157 159.509628 
L 291.697798 159.509628 
L 291.697798 155.266987 
z
" style="fill:#a7226e;stroke:#ffffff;stroke-width:0.48;"/>
    <path clip-path="url(#p3620d72f3a)" d="M 294.218793 155.266987 
L 294.218793 159.509628 
L 298.461434 159.509628 
L 298.461434 155.266987 
z
" style="fill:#a7226e;stroke:#ffffff;stroke-width:0.48;"/>
    <path clip-path="url(#p3620d72f3a)" d="M 300.98243 155.266987 
L 300.98243 159.509628 
L 305.22507 159.509628 
L 305.22507 155.266987 
z
" style="fill:#a7226e;stroke:#ffffff;stroke-width:0.48;"/>
    <path clip-path="url(#p3620d72f3a)" d="M 307.746066 155.266987 
L 307.746066 159.509628 
L 311.988707 159.509628 
L 311.988707 155.266987 
z
" style="fill:#a7226e;stroke:#ffffff;stroke-width:0.48;"/>
    <path clip-path="url(#p3620d72f3a)" d="M 314.509702 155.266987 
L 314.509702 159.509628 
L 318.752343 159.509628 
L 318.752343 155.266987 
z
" style="fill:#a7226e;stroke:#ffffff;stroke-width:0.48;"/>
    <path clip-path="url(#p3620d72f3a)" d="M 321.273339 155.266987 
L 321.273339 159.509628 
L 325.515979 159.509628 
L 325.515979 155.266987 
z
" style="fill:#a7226e;stroke:#ffffff;stroke-width:0.48;"/>
    <path clip-path="url(#p3620d72f3a)" d="M 328.036975 155.266987 
L 328.036975 159.509628 
L 332.279616 159.509628 
L 332.279616 155.266987 
z
" style="fill:#a7226e;stroke:#ffffff;stroke-width:0.48;"/>
    <path clip-path="url(#p3620d72f3a)" d="M 334.800611 155.266987 
L 334.800611 159.509628 
L 339.043252 159.509628 
L 339.043252 155.266987 
z
" style="fill:#a7226e;stroke:#ffffff;stroke-width:0.48;"/>
    <path clip-path="url(#p3620d72f3a)" d="M 341.564248 155.266987 
L 341.564248 159.509628 
L 345.806889 159.509628 
L 345.806889 155.266987 
z
" style="fill:#a7226e;stroke:#ffffff;stroke-width:0.48;"/>
    <path clip-path="url(#p3620d72f3a)" d="M 348.327884 155.266987 
L 348.327884 159.509628 
L 352.570525 159.509628 
L 352.570525 155.266987 
z
" style="fill:#a7226e;stroke:#ffffff;stroke-width:0.48;"/>
    <path clip-path="url(#p3620d72f3a)" d="M 355.091521 155.266987 
L 355.091521 159.509628 
L 359.334161 159.509628 
L 359.334161 155.266987 
z
" style="fill:#a7226e;stroke:#ffffff;stroke-width:0.48;"/>
    <path clip-path="url(#p3620d72f3a)" d="M 361.855157 155.266987 
L 361.855157 159.509628 
L 366.097798 159.509628 
L 366.097798 155.266987 
z
" style="fill:#a7226e;stroke:#ffffff;stroke-width:0.48;"/>
    <path clip-path="url(#p3620d72f3a)" d="M 368.618793 155.266987 
L 368.618793 159.509628 
L 372.861434 159.509628 
L 372.861434 155.266987 
z
" style="fill:#a7226e;stroke:#ffffff;stroke-width:0.48;"/>
    <path clip-path="url(#p3620d72f3a)" d="M 375.38243 155.266987 
L 375.38243 159.509628 
L 379.62507 159.509628 
L 379.62507 155.266987 
z
" style="fill:#a7226e;stroke:#ffffff;stroke-width:0.48;"/>
    <path clip-path="url(#p3620d72f3a)" d="M 382.146066 155.266987 
L 382.146066 159.509628 
L 386.388707 159.509628 
L 386.388707 155.266987 
z
" style="fill:#a7226e;stroke:#ffffff;stroke-width:0.48;"/>
    <path clip-path="url(#p3620d72f3a)" d="M 388.909702 155.266987 
L 388.909702 159.509628 
L 393.152343 159.509628 
L 393.152343 155.266987 
z
" style="fill:#a7226e;stroke:#ffffff;stroke-width:0.48;"/>
   </g>
   <g id="PathCollection_2"/>
   <g id="PathCollection_3"/>
   <g id="PathCollection_4"/>
   <g id="matplotlib.axis_1">
    <g id="xtick_1">
     <g id="line2d_1">
      <defs>
       <path d="M 0 0 
L 0 3.5 
" id="m18b3748728" style="stroke:#000000;stroke-width:0.8;"/>
      </defs>
      <g>
       <use style="stroke:#000000;stroke-width:0.8;" x="59.612841" xlink:href="#m18b3748728" y="273.312"/>
      </g>
     </g>
     <g id="text_1">
      <!-- 0.0 -->
      <g transform="translate(51.661278 287.910437)scale(0.1 -0.1)">
       <defs>
        <path d="M 31.78125 66.40625 
Q 24.171875 66.40625 20.328125 58.90625 
Q 16.5 51.421875 16.5 36.375 
Q 16.5 21.390625 20.328125 13.890625 
Q 24.171875 6.390625 31.78125 6.390625 
Q 39.453125 6.390625 43.28125 13.890625 
Q 47.125 21.390625 47.125 36.375 
Q 47.125 51.421875 43.28125 58.90625 
Q 39.453125 66.40625 31.78125 66.40625 
z
M 31.78125 74.21875 
Q 44.046875 74.21875 50.515625 64.515625 
Q 56.984375 54.828125 56.984375 36.375 
Q 56.984375 17.96875 50.515625 8.265625 
Q 44.046875 -1.421875 31.78125 -1.421875 
Q 19.53125 -1.421875 13.0625 8.265625 
Q 6.59375 17.96875 6.59375 36.375 
Q 6.59375 54.828125 13.0625 64.515625 
Q 19.53125 74.21875 31.78125 74.21875 
z
" id="DejaVuSans-48"/>
        <path d="M 10.6875 12.40625 
L 21 12.40625 
L 21 0 
L 10.6875 0 
z
" id="DejaVuSans-46"/>
       </defs>
       <use xlink:href="#DejaVuSans-48"/>
       <use x="63.623047" xlink:href="#DejaVuSans-46"/>
       <use x="95.410156" xlink:href="#DejaVuSans-48"/>
      </g>
     </g>
    </g>
    <g id="xtick_2">
     <g id="line2d_2">
      <g>
       <use style="stroke:#000000;stroke-width:0.8;" x="127.249205" xlink:href="#m18b3748728" y="273.312"/>
      </g>
     </g>
     <g id="text_2">
      <!-- 0.2 -->
      <g transform="translate(119.297642 287.910437)scale(0.1 -0.1)">
       <defs>
        <path d="M 19.1875 8.296875 
L 53.609375 8.296875 
L 53.609375 0 
L 7.328125 0 
L 7.328125 8.296875 
Q 12.9375 14.109375 22.625 23.890625 
Q 32.328125 33.6875 34.8125 36.53125 
Q 39.546875 41.84375 41.421875 45.53125 
Q 43.3125 49.21875 43.3125 52.78125 
Q 43.3125 58.59375 39.234375 62.25 
Q 35.15625 65.921875 28.609375 65.921875 
Q 23.96875 65.921875 18.8125 64.3125 
Q 13.671875 62.703125 7.8125 59.421875 
L 7.8125 69.390625 
Q 13.765625 71.78125 18.9375 73 
Q 24.125 74.21875 28.421875 74.21875 
Q 39.75 74.21875 46.484375 68.546875 
Q 53.21875 62.890625 53.21875 53.421875 
Q 53.21875 48.921875 51.53125 44.890625 
Q 49.859375 40.875 45.40625 35.40625 
Q 44.1875 33.984375 37.640625 27.21875 
Q 31.109375 20.453125 19.1875 8.296875 
z
" id="DejaVuSans-50"/>
       </defs>
       <use xlink:href="#DejaVuSans-48"/>
       <use x="63.623047" xlink:href="#DejaVuSans-46"/>
       <use x="95.410156" xlink:href="#DejaVuSans-50"/>
      </g>
     </g>
    </g>
    <g id="xtick_3">
     <g id="line2d_3">
      <g>
       <use style="stroke:#000000;stroke-width:0.8;" x="194.885568" xlink:href="#m18b3748728" y="273.312"/>
      </g>
     </g>
     <g id="text_3">
      <!-- 0.4 -->
      <g transform="translate(186.934006 287.910437)scale(0.1 -0.1)">
       <defs>
        <path d="M 37.796875 64.3125 
L 12.890625 25.390625 
L 37.796875 25.390625 
z
M 35.203125 72.90625 
L 47.609375 72.90625 
L 47.609375 25.390625 
L 58.015625 25.390625 
L 58.015625 17.1875 
L 47.609375 17.1875 
L 47.609375 0 
L 37.796875 0 
L 37.796875 17.1875 
L 4.890625 17.1875 
L 4.890625 26.703125 
z
" id="DejaVuSans-52"/>
       </defs>
       <use xlink:href="#DejaVuSans-48"/>
       <use x="63.623047" xlink:href="#DejaVuSans-46"/>
       <use x="95.410156" xlink:href="#DejaVuSans-52"/>
      </g>
     </g>
    </g>
    <g id="xtick_4">
     <g id="line2d_4">
      <g>
       <use style="stroke:#000000;stroke-width:0.8;" x="262.521932" xlink:href="#m18b3748728" y="273.312"/>
      </g>
     </g>
     <g id="text_4">
      <!-- 0.6 -->
      <g transform="translate(254.570369 287.910437)scale(0.1 -0.1)">
       <defs>
        <path d="M 33.015625 40.375 
Q 26.375 40.375 22.484375 35.828125 
Q 18.609375 31.296875 18.609375 23.390625 
Q 18.609375 15.53125 22.484375 10.953125 
Q 26.375 6.390625 33.015625 6.390625 
Q 39.65625 6.390625 43.53125 10.953125 
Q 47.40625 15.53125 47.40625 23.390625 
Q 47.40625 31.296875 43.53125 35.828125 
Q 39.65625 40.375 33.015625 40.375 
z
M 52.59375 71.296875 
L 52.59375 62.3125 
Q 48.875 64.0625 45.09375 64.984375 
Q 41.3125 65.921875 37.59375 65.921875 
Q 27.828125 65.921875 22.671875 59.328125 
Q 17.53125 52.734375 16.796875 39.40625 
Q 19.671875 43.65625 24.015625 45.921875 
Q 28.375 48.1875 33.59375 48.1875 
Q 44.578125 48.1875 50.953125 41.515625 
Q 57.328125 34.859375 57.328125 23.390625 
Q 57.328125 12.15625 50.6875 5.359375 
Q 44.046875 -1.421875 33.015625 -1.421875 
Q 20.359375 -1.421875 13.671875 8.265625 
Q 6.984375 17.96875 6.984375 36.375 
Q 6.984375 53.65625 15.1875 63.9375 
Q 23.390625 74.21875 37.203125 74.21875 
Q 40.921875 74.21875 44.703125 73.484375 
Q 48.484375 72.75 52.59375 71.296875 
z
" id="DejaVuSans-54"/>
       </defs>
       <use xlink:href="#DejaVuSans-48"/>
       <use x="63.623047" xlink:href="#DejaVuSans-46"/>
       <use x="95.410156" xlink:href="#DejaVuSans-54"/>
      </g>
     </g>
    </g>
    <g id="xtick_5">
     <g id="line2d_5">
      <g>
       <use style="stroke:#000000;stroke-width:0.8;" x="330.158295" xlink:href="#m18b3748728" y="273.312"/>
      </g>
     </g>
     <g id="text_5">
      <!-- 0.8 -->
      <g transform="translate(322.206733 287.910437)scale(0.1 -0.1)">
       <defs>
        <path d="M 31.78125 34.625 
Q 24.75 34.625 20.71875 30.859375 
Q 16.703125 27.09375 16.703125 20.515625 
Q 16.703125 13.921875 20.71875 10.15625 
Q 24.75 6.390625 31.78125 6.390625 
Q 38.8125 6.390625 42.859375 10.171875 
Q 46.921875 13.96875 46.921875 20.515625 
Q 46.921875 27.09375 42.890625 30.859375 
Q 38.875 34.625 31.78125 34.625 
z
M 21.921875 38.8125 
Q 15.578125 40.375 12.03125 44.71875 
Q 8.5 49.078125 8.5 55.328125 
Q 8.5 64.0625 14.71875 69.140625 
Q 20.953125 74.21875 31.78125 74.21875 
Q 42.671875 74.21875 48.875 69.140625 
Q 55.078125 64.0625 55.078125 55.328125 
Q 55.078125 49.078125 51.53125 44.71875 
Q 48 40.375 41.703125 38.8125 
Q 48.828125 37.15625 52.796875 32.3125 
Q 56.78125 27.484375 56.78125 20.515625 
Q 56.78125 9.90625 50.3125 4.234375 
Q 43.84375 -1.421875 31.78125 -1.421875 
Q 19.734375 -1.421875 13.25 4.234375 
Q 6.78125 9.90625 6.78125 20.515625 
Q 6.78125 27.484375 10.78125 32.3125 
Q 14.796875 37.15625 21.921875 38.8125 
z
M 18.3125 54.390625 
Q 18.3125 48.734375 21.84375 45.5625 
Q 25.390625 42.390625 31.78125 42.390625 
Q 38.140625 42.390625 41.71875 45.5625 
Q 45.3125 48.734375 45.3125 54.390625 
Q 45.3125 60.0625 41.71875 63.234375 
Q 38.140625 66.40625 31.78125 66.40625 
Q 25.390625 66.40625 21.84375 63.234375 
Q 18.3125 60.0625 18.3125 54.390625 
z
" id="DejaVuSans-56"/>
       </defs>
       <use xlink:href="#DejaVuSans-48"/>
       <use x="63.623047" xlink:href="#DejaVuSans-46"/>
       <use x="95.410156" xlink:href="#DejaVuSans-56"/>
      </g>
     </g>
    </g>
    <g id="xtick_6">
     <g id="line2d_6">
      <g>
       <use style="stroke:#000000;stroke-width:0.8;" x="397.794659" xlink:href="#m18b3748728" y="273.312"/>
      </g>
     </g>
     <g id="text_6">
      <!-- 1.0 -->
      <g transform="translate(389.843097 287.910437)scale(0.1 -0.1)">
       <defs>
        <path d="M 12.40625 8.296875 
L 28.515625 8.296875 
L 28.515625 63.921875 
L 10.984375 60.40625 
L 10.984375 69.390625 
L 28.421875 72.90625 
L 38.28125 72.90625 
L 38.28125 8.296875 
L 54.390625 8.296875 
L 54.390625 0 
L 12.40625 0 
z
" id="DejaVuSans-49"/>
       </defs>
       <use xlink:href="#DejaVuSans-49"/>
       <use x="63.623047" xlink:href="#DejaVuSans-46"/>
       <use x="95.410156" xlink:href="#DejaVuSans-48"/>
      </g>
     </g>
    </g>
    <g id="text_7">
     <!-- cutoff -->
     <g transform="translate(214.245938 301.588562)scale(0.1 -0.1)">
      <defs>
       <path d="M 48.78125 52.59375 
L 48.78125 44.1875 
Q 44.96875 46.296875 41.140625 47.34375 
Q 37.3125 48.390625 33.40625 48.390625 
Q 24.65625 48.390625 19.8125 42.84375 
Q 14.984375 37.3125 14.984375 27.296875 
Q 14.984375 17.28125 19.8125 11.734375 
Q 24.65625 6.203125 33.40625 6.203125 
Q 37.3125 6.203125 41.140625 7.25 
Q 44.96875 8.296875 48.78125 10.40625 
L 48.78125 2.09375 
Q 45.015625 0.34375 40.984375 -0.53125 
Q 36.96875 -1.421875 32.421875 -1.421875 
Q 20.0625 -1.421875 12.78125 6.34375 
Q 5.515625 14.109375 5.515625 27.296875 
Q 5.515625 40.671875 12.859375 48.328125 
Q 20.21875 56 33.015625 56 
Q 37.15625 56 41.109375 55.140625 
Q 45.0625 54.296875 48.78125 52.59375 
z
" id="DejaVuSans-99"/>
       <path d="M 8.5 21.578125 
L 8.5 54.6875 
L 17.484375 54.6875 
L 17.484375 21.921875 
Q 17.484375 14.15625 20.5 10.265625 
Q 23.53125 6.390625 29.59375 6.390625 
Q 36.859375 6.390625 41.078125 11.03125 
Q 45.3125 15.671875 45.3125 23.6875 
L 45.3125 54.6875 
L 54.296875 54.6875 
L 54.296875 0 
L 45.3125 0 
L 45.3125 8.40625 
Q 42.046875 3.421875 37.71875 1 
Q 33.40625 -1.421875 27.6875 -1.421875 
Q 18.265625 -1.421875 13.375 4.4375 
Q 8.5 10.296875 8.5 21.578125 
z
M 31.109375 56 
z
" id="DejaVuSans-117"/>
       <path d="M 18.3125 70.21875 
L 18.3125 54.6875 
L 36.8125 54.6875 
L 36.8125 47.703125 
L 18.3125 47.703125 
L 18.3125 18.015625 
Q 18.3125 11.328125 20.140625 9.421875 
Q 21.96875 7.515625 27.59375 7.515625 
L 36.8125 7.515625 
L 36.8125 0 
L 27.59375 0 
Q 17.1875 0 13.234375 3.875 
Q 9.28125 7.765625 9.28125 18.015625 
L 9.28125 47.703125 
L 2.6875 47.703125 
L 2.6875 54.6875 
L 9.28125 54.6875 
L 9.28125 70.21875 
z
" id="DejaVuSans-116"/>
       <path d="M 30.609375 48.390625 
Q 23.390625 48.390625 19.1875 42.75 
Q 14.984375 37.109375 14.984375 27.296875 
Q 14.984375 17.484375 19.15625 11.84375 
Q 23.34375 6.203125 30.609375 6.203125 
Q 37.796875 6.203125 41.984375 11.859375 
Q 46.1875 17.53125 46.1875 27.296875 
Q 46.1875 37.015625 41.984375 42.703125 
Q 37.796875 48.390625 30.609375 48.390625 
z
M 30.609375 56 
Q 42.328125 56 49.015625 48.375 
Q 55.71875 40.765625 55.71875 27.296875 
Q 55.71875 13.875 49.015625 6.21875 
Q 42.328125 -1.421875 30.609375 -1.421875 
Q 18.84375 -1.421875 12.171875 6.21875 
Q 5.515625 13.875 5.515625 27.296875 
Q 5.515625 40.765625 12.171875 48.375 
Q 18.84375 56 30.609375 56 
z
" id="DejaVuSans-111"/>
       <path d="M 37.109375 75.984375 
L 37.109375 68.5 
L 28.515625 68.5 
Q 23.6875 68.5 21.796875 66.546875 
Q 19.921875 64.59375 19.921875 59.515625 
L 19.921875 54.6875 
L 34.71875 54.6875 
L 34.71875 47.703125 
L 19.921875 47.703125 
L 19.921875 0 
L 10.890625 0 
L 10.890625 47.703125 
L 2.296875 47.703125 
L 2.296875 54.6875 
L 10.890625 54.6875 
L 10.890625 58.5 
Q 10.890625 67.625 15.140625 71.796875 
Q 19.390625 75.984375 28.609375 75.984375 
z
" id="DejaVuSans-102"/>
      </defs>
      <use xlink:href="#DejaVuSans-99"/>
      <use x="54.980469" xlink:href="#DejaVuSans-117"/>
      <use x="118.359375" xlink:href="#DejaVuSans-116"/>
      <use x="157.568359" xlink:href="#DejaVuSans-111"/>
      <use x="218.75" xlink:href="#DejaVuSans-102"/>
      <use x="253.955078" xlink:href="#DejaVuSans-102"/>
     </g>
    </g>
   </g>
   <g id="matplotlib.axis_2">
    <g id="ytick_1">
     <g id="line2d_7">
      <defs>
       <path d="M 0 0 
L -3.5 0 
" id="m1343fb52ba" style="stroke:#000000;stroke-width:0.8;"/>
      </defs>
      <g>
       <use style="stroke:#000000;stroke-width:0.8;" x="50.14375" xlink:href="#m1343fb52ba" y="261.216"/>
      </g>
     </g>
     <g id="text_8">
      <!-- 0.40 -->
      <g transform="translate(20.878125 265.015219)scale(0.1 -0.1)">
       <use xlink:href="#DejaVuSans-48"/>
       <use x="63.623047" xlink:href="#DejaVuSans-46"/>
       <use x="95.410156" xlink:href="#DejaVuSans-52"/>
       <use x="159.033203" xlink:href="#DejaVuSans-48"/>
      </g>
     </g>
    </g>
    <g id="ytick_2">
     <g id="line2d_8">
      <g>
       <use style="stroke:#000000;stroke-width:0.8;" x="50.14375" xlink:href="#m1343fb52ba" y="226.788923"/>
      </g>
     </g>
     <g id="text_9">
      <!-- 0.42 -->
      <g transform="translate(20.878125 230.588142)scale(0.1 -0.1)">
       <use xlink:href="#DejaVuSans-48"/>
       <use x="63.623047" xlink:href="#DejaVuSans-46"/>
       <use x="95.410156" xlink:href="#DejaVuSans-52"/>
       <use x="159.033203" xlink:href="#DejaVuSans-50"/>
      </g>
     </g>
    </g>
    <g id="ytick_3">
     <g id="line2d_9">
      <g>
       <use style="stroke:#000000;stroke-width:0.8;" x="50.14375" xlink:href="#m1343fb52ba" y="192.361846"/>
      </g>
     </g>
     <g id="text_10">
      <!-- 0.44 -->
      <g transform="translate(20.878125 196.161065)scale(0.1 -0.1)">
       <use xlink:href="#DejaVuSans-48"/>
       <use x="63.623047" xlink:href="#DejaVuSans-46"/>
       <use x="95.410156" xlink:href="#DejaVuSans-52"/>
       <use x="159.033203" xlink:href="#DejaVuSans-52"/>
      </g>
     </g>
    </g>
    <g id="ytick_4">
     <g id="line2d_10">
      <g>
       <use style="stroke:#000000;stroke-width:0.8;" x="50.14375" xlink:href="#m1343fb52ba" y="157.934769"/>
      </g>
     </g>
     <g id="text_11">
      <!-- 0.46 -->
      <g transform="translate(20.878125 161.733988)scale(0.1 -0.1)">
       <use xlink:href="#DejaVuSans-48"/>
       <use x="63.623047" xlink:href="#DejaVuSans-46"/>
       <use x="95.410156" xlink:href="#DejaVuSans-52"/>
       <use x="159.033203" xlink:href="#DejaVuSans-54"/>
      </g>
     </g>
    </g>
    <g id="ytick_5">
     <g id="line2d_11">
      <g>
       <use style="stroke:#000000;stroke-width:0.8;" x="50.14375" xlink:href="#m1343fb52ba" y="123.507692"/>
      </g>
     </g>
     <g id="text_12">
      <!-- 0.48 -->
      <g transform="translate(20.878125 127.306911)scale(0.1 -0.1)">
       <use xlink:href="#DejaVuSans-48"/>
       <use x="63.623047" xlink:href="#DejaVuSans-46"/>
       <use x="95.410156" xlink:href="#DejaVuSans-52"/>
       <use x="159.033203" xlink:href="#DejaVuSans-56"/>
      </g>
     </g>
    </g>
    <g id="ytick_6">
     <g id="line2d_12">
      <g>
       <use style="stroke:#000000;stroke-width:0.8;" x="50.14375" xlink:href="#m1343fb52ba" y="89.080615"/>
      </g>
     </g>
     <g id="text_13">
      <!-- 0.50 -->
      <g transform="translate(20.878125 92.879834)scale(0.1 -0.1)">
       <defs>
        <path d="M 10.796875 72.90625 
L 49.515625 72.90625 
L 49.515625 64.59375 
L 19.828125 64.59375 
L 19.828125 46.734375 
Q 21.96875 47.46875 24.109375 47.828125 
Q 26.265625 48.1875 28.421875 48.1875 
Q 40.625 48.1875 47.75 41.5 
Q 54.890625 34.8125 54.890625 23.390625 
Q 54.890625 11.625 47.5625 5.09375 
Q 40.234375 -1.421875 26.90625 -1.421875 
Q 22.3125 -1.421875 17.546875 -0.640625 
Q 12.796875 0.140625 7.71875 1.703125 
L 7.71875 11.625 
Q 12.109375 9.234375 16.796875 8.0625 
Q 21.484375 6.890625 26.703125 6.890625 
Q 35.15625 6.890625 40.078125 11.328125 
Q 45.015625 15.765625 45.015625 23.390625 
Q 45.015625 31 40.078125 35.4375 
Q 35.15625 39.890625 26.703125 39.890625 
Q 22.75 39.890625 18.8125 39.015625 
Q 14.890625 38.140625 10.796875 36.28125 
z
" id="DejaVuSans-53"/>
       </defs>
       <use xlink:href="#DejaVuSans-48"/>
       <use x="63.623047" xlink:href="#DejaVuSans-46"/>
       <use x="95.410156" xlink:href="#DejaVuSans-53"/>
       <use x="159.033203" xlink:href="#DejaVuSans-48"/>
      </g>
     </g>
    </g>
    <g id="ytick_7">
     <g id="line2d_13">
      <g>
       <use style="stroke:#000000;stroke-width:0.8;" x="50.14375" xlink:href="#m1343fb52ba" y="54.653538"/>
      </g>
     </g>
     <g id="text_14">
      <!-- 0.52 -->
      <g transform="translate(20.878125 58.452757)scale(0.1 -0.1)">
       <use xlink:href="#DejaVuSans-48"/>
       <use x="63.623047" xlink:href="#DejaVuSans-46"/>
       <use x="95.410156" xlink:href="#DejaVuSans-53"/>
       <use x="159.033203" xlink:href="#DejaVuSans-50"/>
      </g>
     </g>
    </g>
    <g id="ytick_8">
     <g id="line2d_14">
      <g>
       <use style="stroke:#000000;stroke-width:0.8;" x="50.14375" xlink:href="#m1343fb52ba" y="20.226462"/>
      </g>
     </g>
     <g id="text_15">
      <!-- 0.54 -->
      <g transform="translate(20.878125 24.02568)scale(0.1 -0.1)">
       <use xlink:href="#DejaVuSans-48"/>
       <use x="63.623047" xlink:href="#DejaVuSans-46"/>
       <use x="95.410156" xlink:href="#DejaVuSans-53"/>
       <use x="159.033203" xlink:href="#DejaVuSans-52"/>
      </g>
     </g>
    </g>
    <g id="text_16">
     <!-- performance -->
     <g transform="translate(14.798438 172.278656)rotate(-90)scale(0.1 -0.1)">
      <defs>
       <path d="M 18.109375 8.203125 
L 18.109375 -20.796875 
L 9.078125 -20.796875 
L 9.078125 54.6875 
L 18.109375 54.6875 
L 18.109375 46.390625 
Q 20.953125 51.265625 25.265625 53.625 
Q 29.59375 56 35.59375 56 
Q 45.5625 56 51.78125 48.09375 
Q 58.015625 40.1875 58.015625 27.296875 
Q 58.015625 14.40625 51.78125 6.484375 
Q 45.5625 -1.421875 35.59375 -1.421875 
Q 29.59375 -1.421875 25.265625 0.953125 
Q 20.953125 3.328125 18.109375 8.203125 
z
M 48.6875 27.296875 
Q 48.6875 37.203125 44.609375 42.84375 
Q 40.53125 48.484375 33.40625 48.484375 
Q 26.265625 48.484375 22.1875 42.84375 
Q 18.109375 37.203125 18.109375 27.296875 
Q 18.109375 17.390625 22.1875 11.75 
Q 26.265625 6.109375 33.40625 6.109375 
Q 40.53125 6.109375 44.609375 11.75 
Q 48.6875 17.390625 48.6875 27.296875 
z
" id="DejaVuSans-112"/>
       <path d="M 56.203125 29.59375 
L 56.203125 25.203125 
L 14.890625 25.203125 
Q 15.484375 15.921875 20.484375 11.0625 
Q 25.484375 6.203125 34.421875 6.203125 
Q 39.59375 6.203125 44.453125 7.46875 
Q 49.3125 8.734375 54.109375 11.28125 
L 54.109375 2.78125 
Q 49.265625 0.734375 44.1875 -0.34375 
Q 39.109375 -1.421875 33.890625 -1.421875 
Q 20.796875 -1.421875 13.15625 6.1875 
Q 5.515625 13.8125 5.515625 26.8125 
Q 5.515625 40.234375 12.765625 48.109375 
Q 20.015625 56 32.328125 56 
Q 43.359375 56 49.78125 48.890625 
Q 56.203125 41.796875 56.203125 29.59375 
z
M 47.21875 32.234375 
Q 47.125 39.59375 43.09375 43.984375 
Q 39.0625 48.390625 32.421875 48.390625 
Q 24.90625 48.390625 20.390625 44.140625 
Q 15.875 39.890625 15.1875 32.171875 
z
" id="DejaVuSans-101"/>
       <path d="M 41.109375 46.296875 
Q 39.59375 47.171875 37.8125 47.578125 
Q 36.03125 48 33.890625 48 
Q 26.265625 48 22.1875 43.046875 
Q 18.109375 38.09375 18.109375 28.8125 
L 18.109375 0 
L 9.078125 0 
L 9.078125 54.6875 
L 18.109375 54.6875 
L 18.109375 46.1875 
Q 20.953125 51.171875 25.484375 53.578125 
Q 30.03125 56 36.53125 56 
Q 37.453125 56 38.578125 55.875 
Q 39.703125 55.765625 41.0625 55.515625 
z
" id="DejaVuSans-114"/>
       <path d="M 52 44.1875 
Q 55.375 50.25 60.0625 53.125 
Q 64.75 56 71.09375 56 
Q 79.640625 56 84.28125 50.015625 
Q 88.921875 44.046875 88.921875 33.015625 
L 88.921875 0 
L 79.890625 0 
L 79.890625 32.71875 
Q 79.890625 40.578125 77.09375 44.375 
Q 74.3125 48.1875 68.609375 48.1875 
Q 61.625 48.1875 57.5625 43.546875 
Q 53.515625 38.921875 53.515625 30.90625 
L 53.515625 0 
L 44.484375 0 
L 44.484375 32.71875 
Q 44.484375 40.625 41.703125 44.40625 
Q 38.921875 48.1875 33.109375 48.1875 
Q 26.21875 48.1875 22.15625 43.53125 
Q 18.109375 38.875 18.109375 30.90625 
L 18.109375 0 
L 9.078125 0 
L 9.078125 54.6875 
L 18.109375 54.6875 
L 18.109375 46.1875 
Q 21.1875 51.21875 25.484375 53.609375 
Q 29.78125 56 35.6875 56 
Q 41.65625 56 45.828125 52.96875 
Q 50 49.953125 52 44.1875 
z
" id="DejaVuSans-109"/>
       <path d="M 34.28125 27.484375 
Q 23.390625 27.484375 19.1875 25 
Q 14.984375 22.515625 14.984375 16.5 
Q 14.984375 11.71875 18.140625 8.90625 
Q 21.296875 6.109375 26.703125 6.109375 
Q 34.1875 6.109375 38.703125 11.40625 
Q 43.21875 16.703125 43.21875 25.484375 
L 43.21875 27.484375 
z
M 52.203125 31.203125 
L 52.203125 0 
L 43.21875 0 
L 43.21875 8.296875 
Q 40.140625 3.328125 35.546875 0.953125 
Q 30.953125 -1.421875 24.3125 -1.421875 
Q 15.921875 -1.421875 10.953125 3.296875 
Q 6 8.015625 6 15.921875 
Q 6 25.140625 12.171875 29.828125 
Q 18.359375 34.515625 30.609375 34.515625 
L 43.21875 34.515625 
L 43.21875 35.40625 
Q 43.21875 41.609375 39.140625 45 
Q 35.0625 48.390625 27.6875 48.390625 
Q 23 48.390625 18.546875 47.265625 
Q 14.109375 46.140625 10.015625 43.890625 
L 10.015625 52.203125 
Q 14.9375 54.109375 19.578125 55.046875 
Q 24.21875 56 28.609375 56 
Q 40.484375 56 46.34375 49.84375 
Q 52.203125 43.703125 52.203125 31.203125 
z
" id="DejaVuSans-97"/>
       <path d="M 54.890625 33.015625 
L 54.890625 0 
L 45.90625 0 
L 45.90625 32.71875 
Q 45.90625 40.484375 42.875 44.328125 
Q 39.84375 48.1875 33.796875 48.1875 
Q 26.515625 48.1875 22.3125 43.546875 
Q 18.109375 38.921875 18.109375 30.90625 
L 18.109375 0 
L 9.078125 0 
L 9.078125 54.6875 
L 18.109375 54.6875 
L 18.109375 46.1875 
Q 21.34375 51.125 25.703125 53.5625 
Q 30.078125 56 35.796875 56 
Q 45.21875 56 50.046875 50.171875 
Q 54.890625 44.34375 54.890625 33.015625 
z
" id="DejaVuSans-110"/>
      </defs>
      <use xlink:href="#DejaVuSans-112"/>
      <use x="63.476562" xlink:href="#DejaVuSans-101"/>
      <use x="125" xlink:href="#DejaVuSans-114"/>
      <use x="166.113281" xlink:href="#DejaVuSans-102"/>
      <use x="201.318359" xlink:href="#DejaVuSans-111"/>
      <use x="262.5" xlink:href="#DejaVuSans-114"/>
      <use x="301.863281" xlink:href="#DejaVuSans-109"/>
      <use x="399.275391" xlink:href="#DejaVuSans-97"/>
      <use x="460.554688" xlink:href="#DejaVuSans-110"/>
      <use x="523.933594" xlink:href="#DejaVuSans-99"/>
      <use x="578.914062" xlink:href="#DejaVuSans-101"/>
     </g>
    </g>
   </g>
   <g id="line2d_15">
    <path clip-path="url(#p3620d72f3a)" d="M 66.376477 31.702154 
L 73.140114 42.557538 
L 79.90375 42.557538 
L 86.667386 42.557538 
L 93.431023 42.557538 
L 100.194659 42.557538 
L 106.958295 42.557538 
L 113.721932 42.557538 
L 120.485568 42.557538 
L 127.249205 114.394643 
L 134.012841 114.394643 
L 140.776477 127.618388 
L 147.540114 127.618388 
L 154.30375 127.618388 
L 161.067386 169.769077 
L 167.831023 169.769077 
L 174.594659 169.769077 
L 181.358295 169.769077 
L 188.121932 169.769077 
L 194.885568 169.769077 
L 201.649205 169.769077 
L 208.412841 169.769077 
L 215.176477 169.769077 
L 221.940114 169.769077 
L 228.70375 169.769077 
L 235.467386 184.711385 
L 242.231023 184.711385 
L 248.994659 184.711385 
L 255.758295 184.711385 
L 262.521932 184.711385 
L 269.285568 184.711385 
L 276.049205 184.711385 
L 282.812841 184.711385 
L 289.576477 184.711385 
L 296.340114 184.711385 
L 303.10375 184.711385 
L 309.867386 184.711385 
L 316.631023 184.711385 
L 323.394659 184.711385 
L 330.158295 184.711385 
L 336.921932 184.711385 
L 343.685568 184.711385 
L 350.449205 184.711385 
L 357.212841 184.711385 
L 363.976477 184.711385 
L 370.740114 184.711385 
L 377.50375 184.711385 
L 384.267386 184.711385 
L 391.031023 184.711385 
" style="fill:none;stroke:#f26b38;stroke-dasharray:7.4,3.2;stroke-dashoffset:0;stroke-width:2;"/>
   </g>
   <g id="line2d_16">
    <path clip-path="url(#p3620d72f3a)" d="M 66.376477 54.653538 
L 73.140114 139.70867 
L 79.90375 139.70867 
L 86.667386 181.768899 
L 93.431023 196.665231 
L 100.194659 244.284651 
L 106.958295 244.284651 
L 113.721932 244.284651 
L 120.485568 244.284651 
L 127.249205 244.284651 
L 134.012841 244.284651 
L 140.776477 244.284651 
L 147.540114 244.284651 
L 154.30375 244.284651 
L 161.067386 244.284651 
L 167.831023 244.284651 
L 174.594659 261.216 
L 181.358295 261.216 
L 188.121932 261.216 
L 194.885568 261.216 
L 201.649205 261.216 
L 208.412841 261.216 
L 215.176477 261.216 
L 221.940114 261.216 
L 228.70375 261.216 
L 235.467386 261.216 
L 242.231023 261.216 
L 248.994659 261.216 
L 255.758295 261.216 
L 262.521932 261.216 
L 269.285568 261.216 
L 276.049205 261.216 
L 282.812841 261.216 
L 289.576477 261.216 
L 296.340114 261.216 
L 303.10375 261.216 
L 309.867386 261.216 
L 316.631023 261.216 
L 323.394659 261.216 
L 330.158295 261.216 
L 336.921932 261.216 
L 343.685568 261.216 
L 350.449205 261.216 
L 357.212841 261.216 
L 363.976477 261.216 
L 370.740114 261.216 
L 377.50375 261.216 
L 384.267386 261.216 
L 391.031023 261.216 
" style="fill:none;stroke:#2f9599;stroke-dasharray:2,3.3;stroke-dashoffset:0;stroke-width:2;"/>
   </g>
   <g id="line2d_17">
    <path clip-path="url(#p3620d72f3a)" d="M 66.376477 41.265231 
L 73.140114 41.265231 
L 79.90375 41.265231 
L 86.667386 41.265231 
L 93.431023 41.265231 
L 100.194659 41.265231 
L 106.958295 41.265231 
L 113.721932 52.713985 
L 120.485568 41.265231 
L 127.249205 41.265231 
L 134.012841 41.265231 
L 140.776477 41.265231 
L 147.540114 41.265231 
L 154.30375 41.265231 
L 161.067386 41.265231 
L 167.831023 41.265231 
L 174.594659 30.130141 
L 181.358295 30.130141 
L 188.121932 30.130141 
L 194.885568 19.296 
L 201.649205 19.296 
L 208.412841 101.92654 
L 215.176477 101.92654 
L 221.940114 115.161734 
L 228.70375 115.161734 
L 235.467386 115.161734 
L 242.231023 157.388308 
L 248.994659 157.388308 
L 255.758295 157.388308 
L 262.521932 157.388308 
L 269.285568 157.388308 
L 276.049205 157.388308 
L 282.812841 157.388308 
L 289.576477 157.388308 
L 296.340114 157.388308 
L 303.10375 157.388308 
L 309.867386 157.388308 
L 316.631023 157.388308 
L 323.394659 157.388308 
L 330.158295 157.388308 
L 336.921932 157.388308 
L 343.685568 157.388308 
L 350.449205 157.388308 
L 357.212841 157.388308 
L 363.976477 157.388308 
L 370.740114 157.388308 
L 377.50375 157.388308 
L 384.267386 157.388308 
L 391.031023 157.388308 
" style="fill:none;stroke:#a7226e;stroke-dasharray:12.8,3.2,2,3.2;stroke-dashoffset:0;stroke-width:2;"/>
   </g>
   <g id="patch_3">
    <path d="M 50.14375 273.312 
L 50.14375 7.2 
" style="fill:none;stroke:#000000;stroke-linecap:square;stroke-linejoin:miter;stroke-width:0.8;"/>
   </g>
   <g id="patch_4">
    <path d="M 407.26375 273.312 
L 407.26375 7.2 
" style="fill:none;stroke:#000000;stroke-linecap:square;stroke-linejoin:miter;stroke-width:0.8;"/>
   </g>
   <g id="patch_5">
    <path d="M 50.14375 273.312 
L 407.26375 273.312 
" style="fill:none;stroke:#000000;stroke-linecap:square;stroke-linejoin:miter;stroke-width:0.8;"/>
   </g>
   <g id="patch_6">
    <path d="M 50.14375 7.2 
L 407.26375 7.2 
" style="fill:none;stroke:#000000;stroke-linecap:square;stroke-linejoin:miter;stroke-width:0.8;"/>
   </g>
   <g id="legend_1">
    <g id="patch_7">
     <path d="M 321.790059 43.890912 
L 402.40575 43.890912 
Q 403.79375 43.890912 403.79375 42.502912 
L 403.79375 12.058 
Q 403.79375 10.67 402.40575 10.67 
L 321.790059 10.67 
Q 320.402059 10.67 320.402059 12.058 
L 320.402059 42.502912 
Q 320.402059 43.890912 321.790059 43.890912 
z
" style="fill:#ffffff;opacity:0.8;stroke:#cccccc;stroke-linejoin:miter;"/>
    </g>
    <g id="PathCollection_5">
     <defs>
      <path d="M 0 3 
C 0.795609 3 1.55874 2.683901 2.12132 2.12132 
C 2.683901 1.55874 3 0.795609 3 0 
C 3 -0.795609 2.683901 -1.55874 2.12132 -2.12132 
C 1.55874 -2.683901 0.795609 -3 0 -3 
C -0.795609 -3 -1.55874 -2.683901 -2.12132 -2.12132 
C -2.683901 -1.55874 -3 -0.795609 -3 0 
C -3 0.795609 -2.683901 1.55874 -2.12132 2.12132 
C -1.55874 2.683901 -0.795609 3 0 3 
z
" id="mabaef295d3" style="stroke:#f26b38;"/>
     </defs>
     <g>
      <use style="fill:#f26b38;stroke:#f26b38;" x="330.118059" xlink:href="#mabaef295d3" y="16.897566"/>
     </g>
    </g>
    <g id="text_17">
     <!-- mean_err -->
     <g transform="translate(342.610059 18.719316)scale(0.0694 -0.0694)">
      <defs>
       <path d="M 50.984375 -16.609375 
L 50.984375 -23.578125 
L -0.984375 -23.578125 
L -0.984375 -16.609375 
z
" id="DejaVuSans-95"/>
      </defs>
      <use xlink:href="#DejaVuSans-109"/>
      <use x="97.412109" xlink:href="#DejaVuSans-101"/>
      <use x="158.935547" xlink:href="#DejaVuSans-97"/>
      <use x="220.214844" xlink:href="#DejaVuSans-110"/>
      <use x="283.59375" xlink:href="#DejaVuSans-95"/>
      <use x="333.59375" xlink:href="#DejaVuSans-101"/>
      <use x="395.117188" xlink:href="#DejaVuSans-114"/>
      <use x="434.480469" xlink:href="#DejaVuSans-114"/>
     </g>
    </g>
    <g id="PathCollection_6">
     <defs>
      <path d="M -1.5 3 
L 0 1.5 
L 1.5 3 
L 3 1.5 
L 1.5 0 
L 3 -1.5 
L 1.5 -3 
L 0 -1.5 
L -1.5 -3 
L -3 -1.5 
L -1.5 0 
L -3 1.5 
z
" id="m748f2ec9f9" style="stroke:#2f9599;"/>
     </defs>
     <g>
      <use style="fill:#2f9599;stroke:#2f9599;" x="330.118059" xlink:href="#m748f2ec9f9" y="27.277203"/>
     </g>
    </g>
    <g id="text_18">
     <!-- mean_sq_err -->
     <g transform="translate(342.610059 29.098953)scale(0.0694 -0.0694)">
      <defs>
       <path d="M 44.28125 53.078125 
L 44.28125 44.578125 
Q 40.484375 46.53125 36.375 47.5 
Q 32.28125 48.484375 27.875 48.484375 
Q 21.1875 48.484375 17.84375 46.4375 
Q 14.5 44.390625 14.5 40.28125 
Q 14.5 37.15625 16.890625 35.375 
Q 19.28125 33.59375 26.515625 31.984375 
L 29.59375 31.296875 
Q 39.15625 29.25 43.1875 25.515625 
Q 47.21875 21.78125 47.21875 15.09375 
Q 47.21875 7.46875 41.1875 3.015625 
Q 35.15625 -1.421875 24.609375 -1.421875 
Q 20.21875 -1.421875 15.453125 -0.5625 
Q 10.6875 0.296875 5.421875 2 
L 5.421875 11.28125 
Q 10.40625 8.6875 15.234375 7.390625 
Q 20.0625 6.109375 24.8125 6.109375 
Q 31.15625 6.109375 34.5625 8.28125 
Q 37.984375 10.453125 37.984375 14.40625 
Q 37.984375 18.0625 35.515625 20.015625 
Q 33.0625 21.96875 24.703125 23.78125 
L 21.578125 24.515625 
Q 13.234375 26.265625 9.515625 29.90625 
Q 5.8125 33.546875 5.8125 39.890625 
Q 5.8125 47.609375 11.28125 51.796875 
Q 16.75 56 26.8125 56 
Q 31.78125 56 36.171875 55.265625 
Q 40.578125 54.546875 44.28125 53.078125 
z
" id="DejaVuSans-115"/>
       <path d="M 14.796875 27.296875 
Q 14.796875 17.390625 18.875 11.75 
Q 22.953125 6.109375 30.078125 6.109375 
Q 37.203125 6.109375 41.296875 11.75 
Q 45.40625 17.390625 45.40625 27.296875 
Q 45.40625 37.203125 41.296875 42.84375 
Q 37.203125 48.484375 30.078125 48.484375 
Q 22.953125 48.484375 18.875 42.84375 
Q 14.796875 37.203125 14.796875 27.296875 
z
M 45.40625 8.203125 
Q 42.578125 3.328125 38.25 0.953125 
Q 33.9375 -1.421875 27.875 -1.421875 
Q 17.96875 -1.421875 11.734375 6.484375 
Q 5.515625 14.40625 5.515625 27.296875 
Q 5.515625 40.1875 11.734375 48.09375 
Q 17.96875 56 27.875 56 
Q 33.9375 56 38.25 53.625 
Q 42.578125 51.265625 45.40625 46.390625 
L 45.40625 54.6875 
L 54.390625 54.6875 
L 54.390625 -20.796875 
L 45.40625 -20.796875 
z
" id="DejaVuSans-113"/>
      </defs>
      <use xlink:href="#DejaVuSans-109"/>
      <use x="97.412109" xlink:href="#DejaVuSans-101"/>
      <use x="158.935547" xlink:href="#DejaVuSans-97"/>
      <use x="220.214844" xlink:href="#DejaVuSans-110"/>
      <use x="283.59375" xlink:href="#DejaVuSans-95"/>
      <use x="333.59375" xlink:href="#DejaVuSans-115"/>
      <use x="385.693359" xlink:href="#DejaVuSans-113"/>
      <use x="449.169922" xlink:href="#DejaVuSans-95"/>
      <use x="499.169922" xlink:href="#DejaVuSans-101"/>
      <use x="560.693359" xlink:href="#DejaVuSans-114"/>
      <use x="600.056641" xlink:href="#DejaVuSans-114"/>
     </g>
    </g>
    <g id="PathCollection_7">
     <defs>
      <path d="M -2.12132 -2.12132 
L -2.12132 2.12132 
L 2.12132 2.12132 
L 2.12132 -2.12132 
z
" id="m9b2bd6f4a1" style="stroke:#a7226e;"/>
     </defs>
     <g>
      <use style="fill:#a7226e;stroke:#a7226e;" x="330.118059" xlink:href="#m9b2bd6f4a1" y="37.656841"/>
     </g>
    </g>
    <g id="text_19">
     <!-- mean_sqroot_err -->
     <g transform="translate(342.610059 39.478591)scale(0.0694 -0.0694)">
      <use xlink:href="#DejaVuSans-109"/>
      <use x="97.412109" xlink:href="#DejaVuSans-101"/>
      <use x="158.935547" xlink:href="#DejaVuSans-97"/>
      <use x="220.214844" xlink:href="#DejaVuSans-110"/>
      <use x="283.59375" xlink:href="#DejaVuSans-95"/>
      <use x="333.59375" xlink:href="#DejaVuSans-115"/>
      <use x="385.693359" xlink:href="#DejaVuSans-113"/>
      <use x="449.169922" xlink:href="#DejaVuSans-114"/>
      <use x="488.033203" xlink:href="#DejaVuSans-111"/>
      <use x="549.214844" xlink:href="#DejaVuSans-111"/>
      <use x="610.396484" xlink:href="#DejaVuSans-116"/>
      <use x="649.605469" xlink:href="#DejaVuSans-95"/>
      <use x="699.605469" xlink:href="#DejaVuSans-101"/>
      <use x="761.128906" xlink:href="#DejaVuSans-114"/>
      <use x="800.492188" xlink:href="#DejaVuSans-114"/>
     </g>
    </g>
   </g>
  </g>
 </g>
 <defs>
  <clipPath id="p3620d72f3a">
   <rect height="266.112" width="357.12" x="50.14375" y="7.2"/>
  </clipPath>
 </defs>
</svg>
