<?xml version="1.0" encoding="utf-8" standalone="no"?>
<!DOCTYPE svg PUBLIC "-//W3C//DTD SVG 1.1//EN"
  "http://www.w3.org/Graphics/SVG/1.1/DTD/svg11.dtd">
<!-- Created with matplotlib (https://matplotlib.org/) -->
<svg height="310.86825pt" version="1.1" viewBox="0 0 414.46375 310.86825" width="414.46375pt" xmlns="http://www.w3.org/2000/svg" xmlns:xlink="http://www.w3.org/1999/xlink">
 <metadata>
  <rdf:RDF xmlns:cc="http://creativecommons.org/ns#" xmlns:dc="http://purl.org/dc/elements/1.1/" xmlns:rdf="http://www.w3.org/1999/02/22-rdf-syntax-ns#">
   <cc:Work>
    <dc:type rdf:resource="http://purl.org/dc/dcmitype/StillImage"/>
    <dc:date>2022-05-27T22:17:45.038704</dc:date>
    <dc:format>image/svg+xml</dc:format>
    <dc:creator>
     <cc:Agent>
      <dc:title>Matplotlib v3.3.4, https://matplotlib.org/</dc:title>
     </cc:Agent>
    </dc:creator>
   </cc:Work>
  </rdf:RDF>
 </metadata>
 <defs>
  <style type="text/css">*{stroke-linecap:butt;stroke-linejoin:round;}</style>
 </defs>
 <g id="figure_1">
  <g id="patch_1">
   <path d="M 0 310.86825 
L 414.46375 310.86825 
L 414.46375 0 
L 0 0 
z
" style="fill:#ffffff;"/>
  </g>
  <g id="axes_1">
   <g id="patch_2">
    <path d="M 50.14375 273.312 
L 407.26375 273.312 
L 407.26375 7.2 
L 50.14375 7.2 
z
" style="fill:#ffffff;"/>
   </g>
   <g id="PathCollection_1">
    <path clip-path="url(#p36c5a60d0d)" d="M 66.376477 89.938105 
C 67.172087 89.938105 67.935217 89.622006 68.497798 89.059426 
C 69.060378 88.496845 69.376477 87.733715 69.376477 86.938105 
C 69.376477 86.142496 69.060378 85.379366 68.497798 84.816785 
C 67.935217 84.254204 67.172087 83.938105 66.376477 83.938105 
C 65.580868 83.938105 64.817738 84.254204 64.255157 84.816785 
C 63.692576 85.379366 63.376477 86.142496 63.376477 86.938105 
C 63.376477 87.733715 63.692576 88.496845 64.255157 89.059426 
C 64.817738 89.622006 65.580868 89.938105 66.376477 89.938105 
z
" style="fill:#f26b38;stroke:#ffffff;stroke-width:0.48;"/>
    <path clip-path="url(#p36c5a60d0d)" d="M 73.140114 115.933895 
C 73.935723 115.933895 74.698853 115.617796 75.261434 115.055215 
C 75.824015 114.492634 76.140114 113.729504 76.140114 112.933895 
C 76.140114 112.138285 75.824015 111.375155 75.261434 110.812574 
C 74.698853 110.249994 73.935723 109.933895 73.140114 109.933895 
C 72.344504 109.933895 71.581374 110.249994 71.018793 110.812574 
C 70.456213 111.375155 70.140114 112.138285 70.140114 112.933895 
C 70.140114 113.729504 70.456213 114.492634 71.018793 115.055215 
C 71.581374 115.617796 72.344504 115.933895 73.140114 115.933895 
z
" style="fill:#f26b38;stroke:#ffffff;stroke-width:0.48;"/>
    <path clip-path="url(#p36c5a60d0d)" d="M 79.90375 115.933895 
C 80.699359 115.933895 81.46249 115.617796 82.02507 115.055215 
C 82.587651 114.492634 82.90375 113.729504 82.90375 112.933895 
C 82.90375 112.138285 82.587651 111.375155 82.02507 110.812574 
C 81.46249 110.249994 80.699359 109.933895 79.90375 109.933895 
C 79.108141 109.933895 78.34501 110.249994 77.78243 110.812574 
C 77.219849 111.375155 76.90375 112.138285 76.90375 112.933895 
C 76.90375 113.729504 77.219849 114.492634 77.78243 115.055215 
C 78.34501 115.617796 79.108141 115.933895 79.90375 115.933895 
z
" style="fill:#f26b38;stroke:#ffffff;stroke-width:0.48;"/>
    <path clip-path="url(#p36c5a60d0d)" d="M 86.667386 115.933895 
C 87.462996 115.933895 88.226126 115.617796 88.788707 115.055215 
C 89.351287 114.492634 89.667386 113.729504 89.667386 112.933895 
C 89.667386 112.138285 89.351287 111.375155 88.788707 110.812574 
C 88.226126 110.249994 87.462996 109.933895 86.667386 109.933895 
C 85.871777 109.933895 85.108647 110.249994 84.546066 110.812574 
C 83.983485 111.375155 83.667386 112.138285 83.667386 112.933895 
C 83.667386 113.729504 83.983485 114.492634 84.546066 115.055215 
C 85.108647 115.617796 85.871777 115.933895 86.667386 115.933895 
z
" style="fill:#f26b38;stroke:#ffffff;stroke-width:0.48;"/>
    <path clip-path="url(#p36c5a60d0d)" d="M 93.431023 102.936 
C 94.226632 102.936 94.989762 102.619901 95.552343 102.05732 
C 96.114924 101.49474 96.431023 100.731609 96.431023 99.936 
C 96.431023 99.140391 96.114924 98.37726 95.552343 97.81468 
C 94.989762 97.252099 94.226632 96.936 93.431023 96.936 
C 92.635413 96.936 91.872283 97.252099 91.309702 97.81468 
C 90.747122 98.37726 90.431023 99.140391 90.431023 99.936 
C 90.431023 100.731609 90.747122 101.49474 91.309702 102.05732 
C 91.872283 102.619901 92.635413 102.936 93.431023 102.936 
z
" style="fill:#f26b38;stroke:#ffffff;stroke-width:0.48;"/>
    <path clip-path="url(#p36c5a60d0d)" d="M 100.194659 141.929684 
C 100.990268 141.929684 101.753399 141.613585 102.315979 141.051005 
C 102.87856 140.488424 103.194659 139.725294 103.194659 138.929684 
C 103.194659 138.134075 102.87856 137.370945 102.315979 136.808364 
C 101.753399 136.245783 100.990268 135.929684 100.194659 135.929684 
C 99.39905 135.929684 98.635919 136.245783 98.073339 136.808364 
C 97.510758 137.370945 97.194659 138.134075 97.194659 138.929684 
C 97.194659 139.725294 97.510758 140.488424 98.073339 141.051005 
C 98.635919 141.613585 99.39905 141.929684 100.194659 141.929684 
z
" style="fill:#f26b38;stroke:#ffffff;stroke-width:0.48;"/>
    <path clip-path="url(#p36c5a60d0d)" d="M 106.958295 37.946526 
C 107.753905 37.946526 108.517035 37.630427 109.079616 37.067847 
C 109.642197 36.505266 109.958295 35.742136 109.958295 34.946526 
C 109.958295 34.150917 109.642197 33.387787 109.079616 32.825206 
C 108.517035 32.262625 107.753905 31.946526 106.958295 31.946526 
C 106.162686 31.946526 105.399556 32.262625 104.836975 32.825206 
C 104.274394 33.387787 103.958295 34.150917 103.958295 34.946526 
C 103.958295 35.742136 104.274394 36.505266 104.836975 37.067847 
C 105.399556 37.630427 106.162686 37.946526 106.958295 37.946526 
z
" style="fill:#f26b38;stroke:#ffffff;stroke-width:0.48;"/>
    <path clip-path="url(#p36c5a60d0d)" d="M 113.721932 37.946526 
C 114.517541 37.946526 115.280671 37.630427 115.843252 37.067847 
C 116.405833 36.505266 116.721932 35.742136 116.721932 34.946526 
C 116.721932 34.150917 116.405833 33.387787 115.843252 32.825206 
C 115.280671 32.262625 114.517541 31.946526 113.721932 31.946526 
C 112.926323 31.946526 112.163192 32.262625 111.600611 32.825206 
C 111.038031 33.387787 110.721932 34.150917 110.721932 34.946526 
C 110.721932 35.742136 111.038031 36.505266 111.600611 37.067847 
C 112.163192 37.630427 112.926323 37.946526 113.721932 37.946526 
z
" style="fill:#f26b38;stroke:#ffffff;stroke-width:0.48;"/>
    <path clip-path="url(#p36c5a60d0d)" d="M 120.485568 37.946526 
C 121.281177 37.946526 122.044308 37.630427 122.606889 37.067847 
C 123.169469 36.505266 123.485568 35.742136 123.485568 34.946526 
C 123.485568 34.150917 123.169469 33.387787 122.606889 32.825206 
C 122.044308 32.262625 121.281177 31.946526 120.485568 31.946526 
C 119.689959 31.946526 118.926829 32.262625 118.364248 32.825206 
C 117.801667 33.387787 117.485568 34.150917 117.485568 34.946526 
C 117.485568 35.742136 117.801667 36.505266 118.364248 37.067847 
C 118.926829 37.630427 119.689959 37.946526 120.485568 37.946526 
z
" style="fill:#f26b38;stroke:#ffffff;stroke-width:0.48;"/>
    <path clip-path="url(#p36c5a60d0d)" d="M 127.249205 37.946526 
C 128.044814 37.946526 128.807944 37.630427 129.370525 37.067847 
C 129.933106 36.505266 130.249205 35.742136 130.249205 34.946526 
C 130.249205 34.150917 129.933106 33.387787 129.370525 32.825206 
C 128.807944 32.262625 128.044814 31.946526 127.249205 31.946526 
C 126.453595 31.946526 125.690465 32.262625 125.127884 32.825206 
C 124.565303 33.387787 124.249205 34.150917 124.249205 34.946526 
C 124.249205 35.742136 124.565303 36.505266 125.127884 37.067847 
C 125.690465 37.630427 126.453595 37.946526 127.249205 37.946526 
z
" style="fill:#f26b38;stroke:#ffffff;stroke-width:0.48;"/>
    <path clip-path="url(#p36c5a60d0d)" d="M 134.012841 89.938105 
C 134.80845 89.938105 135.571581 89.622006 136.134161 89.059426 
C 136.696742 88.496845 137.012841 87.733715 137.012841 86.938105 
C 137.012841 86.142496 136.696742 85.379366 136.134161 84.816785 
C 135.571581 84.254204 134.80845 83.938105 134.012841 83.938105 
C 133.217232 83.938105 132.454101 84.254204 131.891521 84.816785 
C 131.32894 85.379366 131.012841 86.142496 131.012841 86.938105 
C 131.012841 87.733715 131.32894 88.496845 131.891521 89.059426 
C 132.454101 89.622006 133.217232 89.938105 134.012841 89.938105 
z
" style="fill:#f26b38;stroke:#ffffff;stroke-width:0.48;"/>
    <path clip-path="url(#p36c5a60d0d)" d="M 140.776477 89.938105 
C 141.572087 89.938105 142.335217 89.622006 142.897798 89.059426 
C 143.460378 88.496845 143.776477 87.733715 143.776477 86.938105 
C 143.776477 86.142496 143.460378 85.379366 142.897798 84.816785 
C 142.335217 84.254204 141.572087 83.938105 140.776477 83.938105 
C 139.980868 83.938105 139.217738 84.254204 138.655157 84.816785 
C 138.092576 85.379366 137.776477 86.142496 137.776477 86.938105 
C 137.776477 87.733715 138.092576 88.496845 138.655157 89.059426 
C 139.217738 89.622006 139.980868 89.938105 140.776477 89.938105 
z
" style="fill:#f26b38;stroke:#ffffff;stroke-width:0.48;"/>
    <path clip-path="url(#p36c5a60d0d)" d="M 147.540114 180.923368 
C 148.335723 180.923368 149.098853 180.607269 149.661434 180.044689 
C 150.224015 179.482108 150.540114 178.718978 150.540114 177.923368 
C 150.540114 177.127759 150.224015 176.364629 149.661434 175.802048 
C 149.098853 175.239467 148.335723 174.923368 147.540114 174.923368 
C 146.744504 174.923368 145.981374 175.239467 145.418793 175.802048 
C 144.856213 176.364629 144.540114 177.127759 144.540114 177.923368 
C 144.540114 178.718978 144.856213 179.482108 145.418793 180.044689 
C 145.981374 180.607269 146.744504 180.923368 147.540114 180.923368 
z
" style="fill:#f26b38;stroke:#ffffff;stroke-width:0.48;"/>
    <path clip-path="url(#p36c5a60d0d)" d="M 154.30375 180.923368 
C 155.099359 180.923368 155.86249 180.607269 156.42507 180.044689 
C 156.987651 179.482108 157.30375 178.718978 157.30375 177.923368 
C 157.30375 177.127759 156.987651 176.364629 156.42507 175.802048 
C 155.86249 175.239467 155.099359 174.923368 154.30375 174.923368 
C 153.508141 174.923368 152.74501 175.239467 152.18243 175.802048 
C 151.619849 176.364629 151.30375 177.127759 151.30375 177.923368 
C 151.30375 178.718978 151.619849 179.482108 152.18243 180.044689 
C 152.74501 180.607269 153.508141 180.923368 154.30375 180.923368 
z
" style="fill:#f26b38;stroke:#ffffff;stroke-width:0.48;"/>
    <path clip-path="url(#p36c5a60d0d)" d="M 161.067386 50.944421 
C 161.862996 50.944421 162.626126 50.628322 163.188707 50.065741 
C 163.751287 49.503161 164.067386 48.74003 164.067386 47.944421 
C 164.067386 47.148812 163.751287 46.385681 163.188707 45.823101 
C 162.626126 45.26052 161.862996 44.944421 161.067386 44.944421 
C 160.271777 44.944421 159.508647 45.26052 158.946066 45.823101 
C 158.383485 46.385681 158.067386 47.148812 158.067386 47.944421 
C 158.067386 48.74003 158.383485 49.503161 158.946066 50.065741 
C 159.508647 50.628322 160.271777 50.944421 161.067386 50.944421 
z
" style="fill:#f26b38;stroke:#ffffff;stroke-width:0.48;"/>
    <path clip-path="url(#p36c5a60d0d)" d="M 167.831023 89.938105 
C 168.626632 89.938105 169.389762 89.622006 169.952343 89.059426 
C 170.514924 88.496845 170.831023 87.733715 170.831023 86.938105 
C 170.831023 86.142496 170.514924 85.379366 169.952343 84.816785 
C 169.389762 84.254204 168.626632 83.938105 167.831023 83.938105 
C 167.035413 83.938105 166.272283 84.254204 165.709702 84.816785 
C 165.147122 85.379366 164.831023 86.142496 164.831023 86.938105 
C 164.831023 87.733715 165.147122 88.496845 165.709702 89.059426 
C 166.272283 89.622006 167.035413 89.938105 167.831023 89.938105 
z
" style="fill:#f26b38;stroke:#ffffff;stroke-width:0.48;"/>
    <path clip-path="url(#p36c5a60d0d)" d="M 174.594659 89.938105 
C 175.390268 89.938105 176.153399 89.622006 176.715979 89.059426 
C 177.27856 88.496845 177.594659 87.733715 177.594659 86.938105 
C 177.594659 86.142496 177.27856 85.379366 176.715979 84.816785 
C 176.153399 84.254204 175.390268 83.938105 174.594659 83.938105 
C 173.79905 83.938105 173.035919 84.254204 172.473339 84.816785 
C 171.910758 85.379366 171.594659 86.142496 171.594659 86.938105 
C 171.594659 87.733715 171.910758 88.496845 172.473339 89.059426 
C 173.035919 89.622006 173.79905 89.938105 174.594659 89.938105 
z
" style="fill:#f26b38;stroke:#ffffff;stroke-width:0.48;"/>
    <path clip-path="url(#p36c5a60d0d)" d="M 181.358295 89.938105 
C 182.153905 89.938105 182.917035 89.622006 183.479616 89.059426 
C 184.042197 88.496845 184.358295 87.733715 184.358295 86.938105 
C 184.358295 86.142496 184.042197 85.379366 183.479616 84.816785 
C 182.917035 84.254204 182.153905 83.938105 181.358295 83.938105 
C 180.562686 83.938105 179.799556 84.254204 179.236975 84.816785 
C 178.674394 85.379366 178.358295 86.142496 178.358295 86.938105 
C 178.358295 87.733715 178.674394 88.496845 179.236975 89.059426 
C 179.799556 89.622006 180.562686 89.938105 181.358295 89.938105 
z
" style="fill:#f26b38;stroke:#ffffff;stroke-width:0.48;"/>
    <path clip-path="url(#p36c5a60d0d)" d="M 188.121932 141.929684 
C 188.917541 141.929684 189.680671 141.613585 190.243252 141.051005 
C 190.805833 140.488424 191.121932 139.725294 191.121932 138.929684 
C 191.121932 138.134075 190.805833 137.370945 190.243252 136.808364 
C 189.680671 136.245783 188.917541 135.929684 188.121932 135.929684 
C 187.326323 135.929684 186.563192 136.245783 186.000611 136.808364 
C 185.438031 137.370945 185.121932 138.134075 185.121932 138.929684 
C 185.121932 139.725294 185.438031 140.488424 186.000611 141.051005 
C 186.563192 141.613585 187.326323 141.929684 188.121932 141.929684 
z
" style="fill:#f26b38;stroke:#ffffff;stroke-width:0.48;"/>
    <path clip-path="url(#p36c5a60d0d)" d="M 194.885568 89.938105 
C 195.681177 89.938105 196.444308 89.622006 197.006889 89.059426 
C 197.569469 88.496845 197.885568 87.733715 197.885568 86.938105 
C 197.885568 86.142496 197.569469 85.379366 197.006889 84.816785 
C 196.444308 84.254204 195.681177 83.938105 194.885568 83.938105 
C 194.089959 83.938105 193.326829 84.254204 192.764248 84.816785 
C 192.201667 85.379366 191.885568 86.142496 191.885568 86.938105 
C 191.885568 87.733715 192.201667 88.496845 192.764248 89.059426 
C 193.326829 89.622006 194.089959 89.938105 194.885568 89.938105 
z
" style="fill:#f26b38;stroke:#ffffff;stroke-width:0.48;"/>
    <path clip-path="url(#p36c5a60d0d)" d="M 201.649205 141.929684 
C 202.444814 141.929684 203.207944 141.613585 203.770525 141.051005 
C 204.333106 140.488424 204.649205 139.725294 204.649205 138.929684 
C 204.649205 138.134075 204.333106 137.370945 203.770525 136.808364 
C 203.207944 136.245783 202.444814 135.929684 201.649205 135.929684 
C 200.853595 135.929684 200.090465 136.245783 199.527884 136.808364 
C 198.965303 137.370945 198.649205 138.134075 198.649205 138.929684 
C 198.649205 139.725294 198.965303 140.488424 199.527884 141.051005 
C 200.090465 141.613585 200.853595 141.929684 201.649205 141.929684 
z
" style="fill:#f26b38;stroke:#ffffff;stroke-width:0.48;"/>
    <path clip-path="url(#p36c5a60d0d)" d="M 208.412841 141.929684 
C 209.20845 141.929684 209.971581 141.613585 210.534161 141.051005 
C 211.096742 140.488424 211.412841 139.725294 211.412841 138.929684 
C 211.412841 138.134075 211.096742 137.370945 210.534161 136.808364 
C 209.971581 136.245783 209.20845 135.929684 208.412841 135.929684 
C 207.617232 135.929684 206.854101 136.245783 206.291521 136.808364 
C 205.72894 137.370945 205.412841 138.134075 205.412841 138.929684 
C 205.412841 139.725294 205.72894 140.488424 206.291521 141.051005 
C 206.854101 141.613585 207.617232 141.929684 208.412841 141.929684 
z
" style="fill:#f26b38;stroke:#ffffff;stroke-width:0.48;"/>
    <path clip-path="url(#p36c5a60d0d)" d="M 215.176477 141.929684 
C 215.972087 141.929684 216.735217 141.613585 217.297798 141.051005 
C 217.860378 140.488424 218.176477 139.725294 218.176477 138.929684 
C 218.176477 138.134075 217.860378 137.370945 217.297798 136.808364 
C 216.735217 136.245783 215.972087 135.929684 215.176477 135.929684 
C 214.380868 135.929684 213.617738 136.245783 213.055157 136.808364 
C 212.492576 137.370945 212.176477 138.134075 212.176477 138.929684 
C 212.176477 139.725294 212.492576 140.488424 213.055157 141.051005 
C 213.617738 141.613585 214.380868 141.929684 215.176477 141.929684 
z
" style="fill:#f26b38;stroke:#ffffff;stroke-width:0.48;"/>
    <path clip-path="url(#p36c5a60d0d)" d="M 221.940114 141.929684 
C 222.735723 141.929684 223.498853 141.613585 224.061434 141.051005 
C 224.624015 140.488424 224.940114 139.725294 224.940114 138.929684 
C 224.940114 138.134075 224.624015 137.370945 224.061434 136.808364 
C 223.498853 136.245783 222.735723 135.929684 221.940114 135.929684 
C 221.144504 135.929684 220.381374 136.245783 219.818793 136.808364 
C 219.256213 137.370945 218.940114 138.134075 218.940114 138.929684 
C 218.940114 139.725294 219.256213 140.488424 219.818793 141.051005 
C 220.381374 141.613585 221.144504 141.929684 221.940114 141.929684 
z
" style="fill:#f26b38;stroke:#ffffff;stroke-width:0.48;"/>
    <path clip-path="url(#p36c5a60d0d)" d="M 228.70375 167.925474 
C 229.499359 167.925474 230.26249 167.609375 230.82507 167.046794 
C 231.387651 166.484213 231.70375 165.721083 231.70375 164.925474 
C 231.70375 164.129864 231.387651 163.366734 230.82507 162.804153 
C 230.26249 162.241573 229.499359 161.925474 228.70375 161.925474 
C 227.908141 161.925474 227.14501 162.241573 226.58243 162.804153 
C 226.019849 163.366734 225.70375 164.129864 225.70375 164.925474 
C 225.70375 165.721083 226.019849 166.484213 226.58243 167.046794 
C 227.14501 167.609375 227.908141 167.925474 228.70375 167.925474 
z
" style="fill:#f26b38;stroke:#ffffff;stroke-width:0.48;"/>
    <path clip-path="url(#p36c5a60d0d)" d="M 235.467386 141.929684 
C 236.262996 141.929684 237.026126 141.613585 237.588707 141.051005 
C 238.151287 140.488424 238.467386 139.725294 238.467386 138.929684 
C 238.467386 138.134075 238.151287 137.370945 237.588707 136.808364 
C 237.026126 136.245783 236.262996 135.929684 235.467386 135.929684 
C 234.671777 135.929684 233.908647 136.245783 233.346066 136.808364 
C 232.783485 137.370945 232.467386 138.134075 232.467386 138.929684 
C 232.467386 139.725294 232.783485 140.488424 233.346066 141.051005 
C 233.908647 141.613585 234.671777 141.929684 235.467386 141.929684 
z
" style="fill:#f26b38;stroke:#ffffff;stroke-width:0.48;"/>
    <path clip-path="url(#p36c5a60d0d)" d="M 242.231023 141.929684 
C 243.026632 141.929684 243.789762 141.613585 244.352343 141.051005 
C 244.914924 140.488424 245.231023 139.725294 245.231023 138.929684 
C 245.231023 138.134075 244.914924 137.370945 244.352343 136.808364 
C 243.789762 136.245783 243.026632 135.929684 242.231023 135.929684 
C 241.435413 135.929684 240.672283 136.245783 240.109702 136.808364 
C 239.547122 137.370945 239.231023 138.134075 239.231023 138.929684 
C 239.231023 139.725294 239.547122 140.488424 240.109702 141.051005 
C 240.672283 141.613585 241.435413 141.929684 242.231023 141.929684 
z
" style="fill:#f26b38;stroke:#ffffff;stroke-width:0.48;"/>
    <path clip-path="url(#p36c5a60d0d)" d="M 248.994659 141.929684 
C 249.790268 141.929684 250.553399 141.613585 251.115979 141.051005 
C 251.67856 140.488424 251.994659 139.725294 251.994659 138.929684 
C 251.994659 138.134075 251.67856 137.370945 251.115979 136.808364 
C 250.553399 136.245783 249.790268 135.929684 248.994659 135.929684 
C 248.19905 135.929684 247.435919 136.245783 246.873339 136.808364 
C 246.310758 137.370945 245.994659 138.134075 245.994659 138.929684 
C 245.994659 139.725294 246.310758 140.488424 246.873339 141.051005 
C 247.435919 141.613585 248.19905 141.929684 248.994659 141.929684 
z
" style="fill:#f26b38;stroke:#ffffff;stroke-width:0.48;"/>
    <path clip-path="url(#p36c5a60d0d)" d="M 255.758295 141.929684 
C 256.553905 141.929684 257.317035 141.613585 257.879616 141.051005 
C 258.442197 140.488424 258.758295 139.725294 258.758295 138.929684 
C 258.758295 138.134075 258.442197 137.370945 257.879616 136.808364 
C 257.317035 136.245783 256.553905 135.929684 255.758295 135.929684 
C 254.962686 135.929684 254.199556 136.245783 253.636975 136.808364 
C 253.074394 137.370945 252.758295 138.134075 252.758295 138.929684 
C 252.758295 139.725294 253.074394 140.488424 253.636975 141.051005 
C 254.199556 141.613585 254.962686 141.929684 255.758295 141.929684 
z
" style="fill:#f26b38;stroke:#ffffff;stroke-width:0.48;"/>
    <path clip-path="url(#p36c5a60d0d)" d="M 262.521932 141.929684 
C 263.317541 141.929684 264.080671 141.613585 264.643252 141.051005 
C 265.205833 140.488424 265.521932 139.725294 265.521932 138.929684 
C 265.521932 138.134075 265.205833 137.370945 264.643252 136.808364 
C 264.080671 136.245783 263.317541 135.929684 262.521932 135.929684 
C 261.726323 135.929684 260.963192 136.245783 260.400611 136.808364 
C 259.838031 137.370945 259.521932 138.134075 259.521932 138.929684 
C 259.521932 139.725294 259.838031 140.488424 260.400611 141.051005 
C 260.963192 141.613585 261.726323 141.929684 262.521932 141.929684 
z
" style="fill:#f26b38;stroke:#ffffff;stroke-width:0.48;"/>
    <path clip-path="url(#p36c5a60d0d)" d="M 269.285568 141.929684 
C 270.081177 141.929684 270.844308 141.613585 271.406889 141.051005 
C 271.969469 140.488424 272.285568 139.725294 272.285568 138.929684 
C 272.285568 138.134075 271.969469 137.370945 271.406889 136.808364 
C 270.844308 136.245783 270.081177 135.929684 269.285568 135.929684 
C 268.489959 135.929684 267.726829 136.245783 267.164248 136.808364 
C 266.601667 137.370945 266.285568 138.134075 266.285568 138.929684 
C 266.285568 139.725294 266.601667 140.488424 267.164248 141.051005 
C 267.726829 141.613585 268.489959 141.929684 269.285568 141.929684 
z
" style="fill:#f26b38;stroke:#ffffff;stroke-width:0.48;"/>
    <path clip-path="url(#p36c5a60d0d)" d="M 276.049205 141.929684 
C 276.844814 141.929684 277.607944 141.613585 278.170525 141.051005 
C 278.733106 140.488424 279.049205 139.725294 279.049205 138.929684 
C 279.049205 138.134075 278.733106 137.370945 278.170525 136.808364 
C 277.607944 136.245783 276.844814 135.929684 276.049205 135.929684 
C 275.253595 135.929684 274.490465 136.245783 273.927884 136.808364 
C 273.365303 137.370945 273.049205 138.134075 273.049205 138.929684 
C 273.049205 139.725294 273.365303 140.488424 273.927884 141.051005 
C 274.490465 141.613585 275.253595 141.929684 276.049205 141.929684 
z
" style="fill:#f26b38;stroke:#ffffff;stroke-width:0.48;"/>
    <path clip-path="url(#p36c5a60d0d)" d="M 282.812841 141.929684 
C 283.60845 141.929684 284.371581 141.613585 284.934161 141.051005 
C 285.496742 140.488424 285.812841 139.725294 285.812841 138.929684 
C 285.812841 138.134075 285.496742 137.370945 284.934161 136.808364 
C 284.371581 136.245783 283.60845 135.929684 282.812841 135.929684 
C 282.017232 135.929684 281.254101 136.245783 280.691521 136.808364 
C 280.12894 137.370945 279.812841 138.134075 279.812841 138.929684 
C 279.812841 139.725294 280.12894 140.488424 280.691521 141.051005 
C 281.254101 141.613585 282.017232 141.929684 282.812841 141.929684 
z
" style="fill:#f26b38;stroke:#ffffff;stroke-width:0.48;"/>
    <path clip-path="url(#p36c5a60d0d)" d="M 289.576477 141.929684 
C 290.372087 141.929684 291.135217 141.613585 291.697798 141.051005 
C 292.260378 140.488424 292.576477 139.725294 292.576477 138.929684 
C 292.576477 138.134075 292.260378 137.370945 291.697798 136.808364 
C 291.135217 136.245783 290.372087 135.929684 289.576477 135.929684 
C 288.780868 135.929684 288.017738 136.245783 287.455157 136.808364 
C 286.892576 137.370945 286.576477 138.134075 286.576477 138.929684 
C 286.576477 139.725294 286.892576 140.488424 287.455157 141.051005 
C 288.017738 141.613585 288.780868 141.929684 289.576477 141.929684 
z
" style="fill:#f26b38;stroke:#ffffff;stroke-width:0.48;"/>
    <path clip-path="url(#p36c5a60d0d)" d="M 296.340114 141.929684 
C 297.135723 141.929684 297.898853 141.613585 298.461434 141.051005 
C 299.024015 140.488424 299.340114 139.725294 299.340114 138.929684 
C 299.340114 138.134075 299.024015 137.370945 298.461434 136.808364 
C 297.898853 136.245783 297.135723 135.929684 296.340114 135.929684 
C 295.544504 135.929684 294.781374 136.245783 294.218793 136.808364 
C 293.656213 137.370945 293.340114 138.134075 293.340114 138.929684 
C 293.340114 139.725294 293.656213 140.488424 294.218793 141.051005 
C 294.781374 141.613585 295.544504 141.929684 296.340114 141.929684 
z
" style="fill:#f26b38;stroke:#ffffff;stroke-width:0.48;"/>
    <path clip-path="url(#p36c5a60d0d)" d="M 303.10375 141.929684 
C 303.899359 141.929684 304.66249 141.613585 305.22507 141.051005 
C 305.787651 140.488424 306.10375 139.725294 306.10375 138.929684 
C 306.10375 138.134075 305.787651 137.370945 305.22507 136.808364 
C 304.66249 136.245783 303.899359 135.929684 303.10375 135.929684 
C 302.308141 135.929684 301.54501 136.245783 300.98243 136.808364 
C 300.419849 137.370945 300.10375 138.134075 300.10375 138.929684 
C 300.10375 139.725294 300.419849 140.488424 300.98243 141.051005 
C 301.54501 141.613585 302.308141 141.929684 303.10375 141.929684 
z
" style="fill:#f26b38;stroke:#ffffff;stroke-width:0.48;"/>
    <path clip-path="url(#p36c5a60d0d)" d="M 309.867386 141.929684 
C 310.662996 141.929684 311.426126 141.613585 311.988707 141.051005 
C 312.551287 140.488424 312.867386 139.725294 312.867386 138.929684 
C 312.867386 138.134075 312.551287 137.370945 311.988707 136.808364 
C 311.426126 136.245783 310.662996 135.929684 309.867386 135.929684 
C 309.071777 135.929684 308.308647 136.245783 307.746066 136.808364 
C 307.183485 137.370945 306.867386 138.134075 306.867386 138.929684 
C 306.867386 139.725294 307.183485 140.488424 307.746066 141.051005 
C 308.308647 141.613585 309.071777 141.929684 309.867386 141.929684 
z
" style="fill:#f26b38;stroke:#ffffff;stroke-width:0.48;"/>
    <path clip-path="url(#p36c5a60d0d)" d="M 316.631023 141.929684 
C 317.426632 141.929684 318.189762 141.613585 318.752343 141.051005 
C 319.314924 140.488424 319.631023 139.725294 319.631023 138.929684 
C 319.631023 138.134075 319.314924 137.370945 318.752343 136.808364 
C 318.189762 136.245783 317.426632 135.929684 316.631023 135.929684 
C 315.835413 135.929684 315.072283 136.245783 314.509702 136.808364 
C 313.947122 137.370945 313.631023 138.134075 313.631023 138.929684 
C 313.631023 139.725294 313.947122 140.488424 314.509702 141.051005 
C 315.072283 141.613585 315.835413 141.929684 316.631023 141.929684 
z
" style="fill:#f26b38;stroke:#ffffff;stroke-width:0.48;"/>
    <path clip-path="url(#p36c5a60d0d)" d="M 323.394659 141.929684 
C 324.190268 141.929684 324.953399 141.613585 325.515979 141.051005 
C 326.07856 140.488424 326.394659 139.725294 326.394659 138.929684 
C 326.394659 138.134075 326.07856 137.370945 325.515979 136.808364 
C 324.953399 136.245783 324.190268 135.929684 323.394659 135.929684 
C 322.59905 135.929684 321.835919 136.245783 321.273339 136.808364 
C 320.710758 137.370945 320.394659 138.134075 320.394659 138.929684 
C 320.394659 139.725294 320.710758 140.488424 321.273339 141.051005 
C 321.835919 141.613585 322.59905 141.929684 323.394659 141.929684 
z
" style="fill:#f26b38;stroke:#ffffff;stroke-width:0.48;"/>
    <path clip-path="url(#p36c5a60d0d)" d="M 330.158295 141.929684 
C 330.953905 141.929684 331.717035 141.613585 332.279616 141.051005 
C 332.842197 140.488424 333.158295 139.725294 333.158295 138.929684 
C 333.158295 138.134075 332.842197 137.370945 332.279616 136.808364 
C 331.717035 136.245783 330.953905 135.929684 330.158295 135.929684 
C 329.362686 135.929684 328.599556 136.245783 328.036975 136.808364 
C 327.474394 137.370945 327.158295 138.134075 327.158295 138.929684 
C 327.158295 139.725294 327.474394 140.488424 328.036975 141.051005 
C 328.599556 141.613585 329.362686 141.929684 330.158295 141.929684 
z
" style="fill:#f26b38;stroke:#ffffff;stroke-width:0.48;"/>
    <path clip-path="url(#p36c5a60d0d)" d="M 336.921932 141.929684 
C 337.717541 141.929684 338.480671 141.613585 339.043252 141.051005 
C 339.605833 140.488424 339.921932 139.725294 339.921932 138.929684 
C 339.921932 138.134075 339.605833 137.370945 339.043252 136.808364 
C 338.480671 136.245783 337.717541 135.929684 336.921932 135.929684 
C 336.126323 135.929684 335.363192 136.245783 334.800611 136.808364 
C 334.238031 137.370945 333.921932 138.134075 333.921932 138.929684 
C 333.921932 139.725294 334.238031 140.488424 334.800611 141.051005 
C 335.363192 141.613585 336.126323 141.929684 336.921932 141.929684 
z
" style="fill:#f26b38;stroke:#ffffff;stroke-width:0.48;"/>
    <path clip-path="url(#p36c5a60d0d)" d="M 343.685568 141.929684 
C 344.481177 141.929684 345.244308 141.613585 345.806889 141.051005 
C 346.369469 140.488424 346.685568 139.725294 346.685568 138.929684 
C 346.685568 138.134075 346.369469 137.370945 345.806889 136.808364 
C 345.244308 136.245783 344.481177 135.929684 343.685568 135.929684 
C 342.889959 135.929684 342.126829 136.245783 341.564248 136.808364 
C 341.001667 137.370945 340.685568 138.134075 340.685568 138.929684 
C 340.685568 139.725294 341.001667 140.488424 341.564248 141.051005 
C 342.126829 141.613585 342.889959 141.929684 343.685568 141.929684 
z
" style="fill:#f26b38;stroke:#ffffff;stroke-width:0.48;"/>
    <path clip-path="url(#p36c5a60d0d)" d="M 350.449205 141.929684 
C 351.244814 141.929684 352.007944 141.613585 352.570525 141.051005 
C 353.133106 140.488424 353.449205 139.725294 353.449205 138.929684 
C 353.449205 138.134075 353.133106 137.370945 352.570525 136.808364 
C 352.007944 136.245783 351.244814 135.929684 350.449205 135.929684 
C 349.653595 135.929684 348.890465 136.245783 348.327884 136.808364 
C 347.765303 137.370945 347.449205 138.134075 347.449205 138.929684 
C 347.449205 139.725294 347.765303 140.488424 348.327884 141.051005 
C 348.890465 141.613585 349.653595 141.929684 350.449205 141.929684 
z
" style="fill:#f26b38;stroke:#ffffff;stroke-width:0.48;"/>
    <path clip-path="url(#p36c5a60d0d)" d="M 357.212841 141.929684 
C 358.00845 141.929684 358.771581 141.613585 359.334161 141.051005 
C 359.896742 140.488424 360.212841 139.725294 360.212841 138.929684 
C 360.212841 138.134075 359.896742 137.370945 359.334161 136.808364 
C 358.771581 136.245783 358.00845 135.929684 357.212841 135.929684 
C 356.417232 135.929684 355.654101 136.245783 355.091521 136.808364 
C 354.52894 137.370945 354.212841 138.134075 354.212841 138.929684 
C 354.212841 139.725294 354.52894 140.488424 355.091521 141.051005 
C 355.654101 141.613585 356.417232 141.929684 357.212841 141.929684 
z
" style="fill:#f26b38;stroke:#ffffff;stroke-width:0.48;"/>
    <path clip-path="url(#p36c5a60d0d)" d="M 363.976477 141.929684 
C 364.772087 141.929684 365.535217 141.613585 366.097798 141.051005 
C 366.660378 140.488424 366.976477 139.725294 366.976477 138.929684 
C 366.976477 138.134075 366.660378 137.370945 366.097798 136.808364 
C 365.535217 136.245783 364.772087 135.929684 363.976477 135.929684 
C 363.180868 135.929684 362.417738 136.245783 361.855157 136.808364 
C 361.292576 137.370945 360.976477 138.134075 360.976477 138.929684 
C 360.976477 139.725294 361.292576 140.488424 361.855157 141.051005 
C 362.417738 141.613585 363.180868 141.929684 363.976477 141.929684 
z
" style="fill:#f26b38;stroke:#ffffff;stroke-width:0.48;"/>
    <path clip-path="url(#p36c5a60d0d)" d="M 370.740114 141.929684 
C 371.535723 141.929684 372.298853 141.613585 372.861434 141.051005 
C 373.424015 140.488424 373.740114 139.725294 373.740114 138.929684 
C 373.740114 138.134075 373.424015 137.370945 372.861434 136.808364 
C 372.298853 136.245783 371.535723 135.929684 370.740114 135.929684 
C 369.944504 135.929684 369.181374 136.245783 368.618793 136.808364 
C 368.056213 137.370945 367.740114 138.134075 367.740114 138.929684 
C 367.740114 139.725294 368.056213 140.488424 368.618793 141.051005 
C 369.181374 141.613585 369.944504 141.929684 370.740114 141.929684 
z
" style="fill:#f26b38;stroke:#ffffff;stroke-width:0.48;"/>
    <path clip-path="url(#p36c5a60d0d)" d="M 377.50375 141.929684 
C 378.299359 141.929684 379.06249 141.613585 379.62507 141.051005 
C 380.187651 140.488424 380.50375 139.725294 380.50375 138.929684 
C 380.50375 138.134075 380.187651 137.370945 379.62507 136.808364 
C 379.06249 136.245783 378.299359 135.929684 377.50375 135.929684 
C 376.708141 135.929684 375.94501 136.245783 375.38243 136.808364 
C 374.819849 137.370945 374.50375 138.134075 374.50375 138.929684 
C 374.50375 139.725294 374.819849 140.488424 375.38243 141.051005 
C 375.94501 141.613585 376.708141 141.929684 377.50375 141.929684 
z
" style="fill:#f26b38;stroke:#ffffff;stroke-width:0.48;"/>
    <path clip-path="url(#p36c5a60d0d)" d="M 384.267386 141.929684 
C 385.062996 141.929684 385.826126 141.613585 386.388707 141.051005 
C 386.951287 140.488424 387.267386 139.725294 387.267386 138.929684 
C 387.267386 138.134075 386.951287 137.370945 386.388707 136.808364 
C 385.826126 136.245783 385.062996 135.929684 384.267386 135.929684 
C 383.471777 135.929684 382.708647 136.245783 382.146066 136.808364 
C 381.583485 137.370945 381.267386 138.134075 381.267386 138.929684 
C 381.267386 139.725294 381.583485 140.488424 382.146066 141.051005 
C 382.708647 141.613585 383.471777 141.929684 384.267386 141.929684 
z
" style="fill:#f26b38;stroke:#ffffff;stroke-width:0.48;"/>
    <path clip-path="url(#p36c5a60d0d)" d="M 391.031023 141.929684 
C 391.826632 141.929684 392.589762 141.613585 393.152343 141.051005 
C 393.714924 140.488424 394.031023 139.725294 394.031023 138.929684 
C 394.031023 138.134075 393.714924 137.370945 393.152343 136.808364 
C 392.589762 136.245783 391.826632 135.929684 391.031023 135.929684 
C 390.235413 135.929684 389.472283 136.245783 388.909702 136.808364 
C 388.347122 137.370945 388.031023 138.134075 388.031023 138.929684 
C 388.031023 139.725294 388.347122 140.488424 388.909702 141.051005 
C 389.472283 141.613585 390.235413 141.929684 391.031023 141.929684 
z
" style="fill:#f26b38;stroke:#ffffff;stroke-width:0.48;"/>
    <path clip-path="url(#p36c5a60d0d)" d="M 64.876477 141.929684 
L 66.376477 140.429684 
L 67.876477 141.929684 
L 69.376477 140.429684 
L 67.876477 138.929684 
L 69.376477 137.429684 
L 67.876477 135.929684 
L 66.376477 137.429684 
L 64.876477 135.929684 
L 63.376477 137.429684 
L 64.876477 138.929684 
L 63.376477 140.429684 
z
" style="fill:#2f9599;stroke:#ffffff;stroke-width:0.48;"/>
    <path clip-path="url(#p36c5a60d0d)" d="M 71.640114 115.933895 
L 73.140114 114.433895 
L 74.640114 115.933895 
L 76.140114 114.433895 
L 74.640114 112.933895 
L 76.140114 111.433895 
L 74.640114 109.933895 
L 73.140114 111.433895 
L 71.640114 109.933895 
L 70.140114 111.433895 
L 71.640114 112.933895 
L 70.140114 114.433895 
z
" style="fill:#2f9599;stroke:#ffffff;stroke-width:0.48;"/>
    <path clip-path="url(#p36c5a60d0d)" d="M 78.40375 115.933895 
L 79.90375 114.433895 
L 81.40375 115.933895 
L 82.90375 114.433895 
L 81.40375 112.933895 
L 82.90375 111.433895 
L 81.40375 109.933895 
L 79.90375 111.433895 
L 78.40375 109.933895 
L 76.90375 111.433895 
L 78.40375 112.933895 
L 76.90375 114.433895 
z
" style="fill:#2f9599;stroke:#ffffff;stroke-width:0.48;"/>
    <path clip-path="url(#p36c5a60d0d)" d="M 85.167386 115.933895 
L 86.667386 114.433895 
L 88.167386 115.933895 
L 89.667386 114.433895 
L 88.167386 112.933895 
L 89.667386 111.433895 
L 88.167386 109.933895 
L 86.667386 111.433895 
L 85.167386 109.933895 
L 83.667386 111.433895 
L 85.167386 112.933895 
L 83.667386 114.433895 
z
" style="fill:#2f9599;stroke:#ffffff;stroke-width:0.48;"/>
    <path clip-path="url(#p36c5a60d0d)" d="M 91.931023 115.933895 
L 93.431023 114.433895 
L 94.931023 115.933895 
L 96.431023 114.433895 
L 94.931023 112.933895 
L 96.431023 111.433895 
L 94.931023 109.933895 
L 93.431023 111.433895 
L 91.931023 109.933895 
L 90.431023 111.433895 
L 91.931023 112.933895 
L 90.431023 114.433895 
z
" style="fill:#2f9599;stroke:#ffffff;stroke-width:0.48;"/>
    <path clip-path="url(#p36c5a60d0d)" d="M 98.694659 154.927579 
L 100.194659 153.427579 
L 101.694659 154.927579 
L 103.194659 153.427579 
L 101.694659 151.927579 
L 103.194659 150.427579 
L 101.694659 148.927579 
L 100.194659 150.427579 
L 98.694659 148.927579 
L 97.194659 150.427579 
L 98.694659 151.927579 
L 97.194659 153.427579 
z
" style="fill:#2f9599;stroke:#ffffff;stroke-width:0.48;"/>
    <path clip-path="url(#p36c5a60d0d)" d="M 105.458295 154.927579 
L 106.958295 153.427579 
L 108.458295 154.927579 
L 109.958295 153.427579 
L 108.458295 151.927579 
L 109.958295 150.427579 
L 108.458295 148.927579 
L 106.958295 150.427579 
L 105.458295 148.927579 
L 103.958295 150.427579 
L 105.458295 151.927579 
L 103.958295 153.427579 
z
" style="fill:#2f9599;stroke:#ffffff;stroke-width:0.48;"/>
    <path clip-path="url(#p36c5a60d0d)" d="M 112.221932 154.927579 
L 113.721932 153.427579 
L 115.221932 154.927579 
L 116.721932 153.427579 
L 115.221932 151.927579 
L 116.721932 150.427579 
L 115.221932 148.927579 
L 113.721932 150.427579 
L 112.221932 148.927579 
L 110.721932 150.427579 
L 112.221932 151.927579 
L 110.721932 153.427579 
z
" style="fill:#2f9599;stroke:#ffffff;stroke-width:0.48;"/>
    <path clip-path="url(#p36c5a60d0d)" d="M 118.985568 154.927579 
L 120.485568 153.427579 
L 121.985568 154.927579 
L 123.485568 153.427579 
L 121.985568 151.927579 
L 123.485568 150.427579 
L 121.985568 148.927579 
L 120.485568 150.427579 
L 118.985568 148.927579 
L 117.485568 150.427579 
L 118.985568 151.927579 
L 117.485568 153.427579 
z
" style="fill:#2f9599;stroke:#ffffff;stroke-width:0.48;"/>
    <path clip-path="url(#p36c5a60d0d)" d="M 125.749205 115.933895 
L 127.249205 114.433895 
L 128.749205 115.933895 
L 130.249205 114.433895 
L 128.749205 112.933895 
L 130.249205 111.433895 
L 128.749205 109.933895 
L 127.249205 111.433895 
L 125.749205 109.933895 
L 124.249205 111.433895 
L 125.749205 112.933895 
L 124.249205 114.433895 
z
" style="fill:#2f9599;stroke:#ffffff;stroke-width:0.48;"/>
    <path clip-path="url(#p36c5a60d0d)" d="M 132.512841 102.936 
L 134.012841 101.436 
L 135.512841 102.936 
L 137.012841 101.436 
L 135.512841 99.936 
L 137.012841 98.436 
L 135.512841 96.936 
L 134.012841 98.436 
L 132.512841 96.936 
L 131.012841 98.436 
L 132.512841 99.936 
L 131.012841 101.436 
z
" style="fill:#2f9599;stroke:#ffffff;stroke-width:0.48;"/>
    <path clip-path="url(#p36c5a60d0d)" d="M 139.276477 193.921263 
L 140.776477 192.421263 
L 142.276477 193.921263 
L 143.776477 192.421263 
L 142.276477 190.921263 
L 143.776477 189.421263 
L 142.276477 187.921263 
L 140.776477 189.421263 
L 139.276477 187.921263 
L 137.776477 189.421263 
L 139.276477 190.921263 
L 137.776477 192.421263 
z
" style="fill:#2f9599;stroke:#ffffff;stroke-width:0.48;"/>
    <path clip-path="url(#p36c5a60d0d)" d="M 146.040114 193.921263 
L 147.540114 192.421263 
L 149.040114 193.921263 
L 150.540114 192.421263 
L 149.040114 190.921263 
L 150.540114 189.421263 
L 149.040114 187.921263 
L 147.540114 189.421263 
L 146.040114 187.921263 
L 144.540114 189.421263 
L 146.040114 190.921263 
L 144.540114 192.421263 
z
" style="fill:#2f9599;stroke:#ffffff;stroke-width:0.48;"/>
    <path clip-path="url(#p36c5a60d0d)" d="M 152.80375 193.921263 
L 154.30375 192.421263 
L 155.80375 193.921263 
L 157.30375 192.421263 
L 155.80375 190.921263 
L 157.30375 189.421263 
L 155.80375 187.921263 
L 154.30375 189.421263 
L 152.80375 187.921263 
L 151.30375 189.421263 
L 152.80375 190.921263 
L 151.30375 192.421263 
z
" style="fill:#2f9599;stroke:#ffffff;stroke-width:0.48;"/>
    <path clip-path="url(#p36c5a60d0d)" d="M 159.567386 193.921263 
L 161.067386 192.421263 
L 162.567386 193.921263 
L 164.067386 192.421263 
L 162.567386 190.921263 
L 164.067386 189.421263 
L 162.567386 187.921263 
L 161.067386 189.421263 
L 159.567386 187.921263 
L 158.067386 189.421263 
L 159.567386 190.921263 
L 158.067386 192.421263 
z
" style="fill:#2f9599;stroke:#ffffff;stroke-width:0.48;"/>
    <path clip-path="url(#p36c5a60d0d)" d="M 166.331023 180.923368 
L 167.831023 179.423368 
L 169.331023 180.923368 
L 170.831023 179.423368 
L 169.331023 177.923368 
L 170.831023 176.423368 
L 169.331023 174.923368 
L 167.831023 176.423368 
L 166.331023 174.923368 
L 164.831023 176.423368 
L 166.331023 177.923368 
L 164.831023 179.423368 
z
" style="fill:#2f9599;stroke:#ffffff;stroke-width:0.48;"/>
    <path clip-path="url(#p36c5a60d0d)" d="M 173.094659 167.925474 
L 174.594659 166.425474 
L 176.094659 167.925474 
L 177.594659 166.425474 
L 176.094659 164.925474 
L 177.594659 163.425474 
L 176.094659 161.925474 
L 174.594659 163.425474 
L 173.094659 161.925474 
L 171.594659 163.425474 
L 173.094659 164.925474 
L 171.594659 166.425474 
z
" style="fill:#2f9599;stroke:#ffffff;stroke-width:0.48;"/>
    <path clip-path="url(#p36c5a60d0d)" d="M 179.858295 167.925474 
L 181.358295 166.425474 
L 182.858295 167.925474 
L 184.358295 166.425474 
L 182.858295 164.925474 
L 184.358295 163.425474 
L 182.858295 161.925474 
L 181.358295 163.425474 
L 179.858295 161.925474 
L 178.358295 163.425474 
L 179.858295 164.925474 
L 178.358295 166.425474 
z
" style="fill:#2f9599;stroke:#ffffff;stroke-width:0.48;"/>
    <path clip-path="url(#p36c5a60d0d)" d="M 186.621932 167.925474 
L 188.121932 166.425474 
L 189.621932 167.925474 
L 191.121932 166.425474 
L 189.621932 164.925474 
L 191.121932 163.425474 
L 189.621932 161.925474 
L 188.121932 163.425474 
L 186.621932 161.925474 
L 185.121932 163.425474 
L 186.621932 164.925474 
L 185.121932 166.425474 
z
" style="fill:#2f9599;stroke:#ffffff;stroke-width:0.48;"/>
    <path clip-path="url(#p36c5a60d0d)" d="M 193.385568 167.925474 
L 194.885568 166.425474 
L 196.385568 167.925474 
L 197.885568 166.425474 
L 196.385568 164.925474 
L 197.885568 163.425474 
L 196.385568 161.925474 
L 194.885568 163.425474 
L 193.385568 161.925474 
L 191.885568 163.425474 
L 193.385568 164.925474 
L 191.885568 166.425474 
z
" style="fill:#2f9599;stroke:#ffffff;stroke-width:0.48;"/>
    <path clip-path="url(#p36c5a60d0d)" d="M 200.149205 167.925474 
L 201.649205 166.425474 
L 203.149205 167.925474 
L 204.649205 166.425474 
L 203.149205 164.925474 
L 204.649205 163.425474 
L 203.149205 161.925474 
L 201.649205 163.425474 
L 200.149205 161.925474 
L 198.649205 163.425474 
L 200.149205 164.925474 
L 198.649205 166.425474 
z
" style="fill:#2f9599;stroke:#ffffff;stroke-width:0.48;"/>
    <path clip-path="url(#p36c5a60d0d)" d="M 206.912841 167.925474 
L 208.412841 166.425474 
L 209.912841 167.925474 
L 211.412841 166.425474 
L 209.912841 164.925474 
L 211.412841 163.425474 
L 209.912841 161.925474 
L 208.412841 163.425474 
L 206.912841 161.925474 
L 205.412841 163.425474 
L 206.912841 164.925474 
L 205.412841 166.425474 
z
" style="fill:#2f9599;stroke:#ffffff;stroke-width:0.48;"/>
    <path clip-path="url(#p36c5a60d0d)" d="M 213.676477 167.925474 
L 215.176477 166.425474 
L 216.676477 167.925474 
L 218.176477 166.425474 
L 216.676477 164.925474 
L 218.176477 163.425474 
L 216.676477 161.925474 
L 215.176477 163.425474 
L 213.676477 161.925474 
L 212.176477 163.425474 
L 213.676477 164.925474 
L 212.176477 166.425474 
z
" style="fill:#2f9599;stroke:#ffffff;stroke-width:0.48;"/>
    <path clip-path="url(#p36c5a60d0d)" d="M 220.440114 167.925474 
L 221.940114 166.425474 
L 223.440114 167.925474 
L 224.940114 166.425474 
L 223.440114 164.925474 
L 224.940114 163.425474 
L 223.440114 161.925474 
L 221.940114 163.425474 
L 220.440114 161.925474 
L 218.940114 163.425474 
L 220.440114 164.925474 
L 218.940114 166.425474 
z
" style="fill:#2f9599;stroke:#ffffff;stroke-width:0.48;"/>
    <path clip-path="url(#p36c5a60d0d)" d="M 227.20375 167.925474 
L 228.70375 166.425474 
L 230.20375 167.925474 
L 231.70375 166.425474 
L 230.20375 164.925474 
L 231.70375 163.425474 
L 230.20375 161.925474 
L 228.70375 163.425474 
L 227.20375 161.925474 
L 225.70375 163.425474 
L 227.20375 164.925474 
L 225.70375 166.425474 
z
" style="fill:#2f9599;stroke:#ffffff;stroke-width:0.48;"/>
    <path clip-path="url(#p36c5a60d0d)" d="M 233.967386 167.925474 
L 235.467386 166.425474 
L 236.967386 167.925474 
L 238.467386 166.425474 
L 236.967386 164.925474 
L 238.467386 163.425474 
L 236.967386 161.925474 
L 235.467386 163.425474 
L 233.967386 161.925474 
L 232.467386 163.425474 
L 233.967386 164.925474 
L 232.467386 166.425474 
z
" style="fill:#2f9599;stroke:#ffffff;stroke-width:0.48;"/>
    <path clip-path="url(#p36c5a60d0d)" d="M 240.731023 167.925474 
L 242.231023 166.425474 
L 243.731023 167.925474 
L 245.231023 166.425474 
L 243.731023 164.925474 
L 245.231023 163.425474 
L 243.731023 161.925474 
L 242.231023 163.425474 
L 240.731023 161.925474 
L 239.231023 163.425474 
L 240.731023 164.925474 
L 239.231023 166.425474 
z
" style="fill:#2f9599;stroke:#ffffff;stroke-width:0.48;"/>
    <path clip-path="url(#p36c5a60d0d)" d="M 247.494659 167.925474 
L 248.994659 166.425474 
L 250.494659 167.925474 
L 251.994659 166.425474 
L 250.494659 164.925474 
L 251.994659 163.425474 
L 250.494659 161.925474 
L 248.994659 163.425474 
L 247.494659 161.925474 
L 245.994659 163.425474 
L 247.494659 164.925474 
L 245.994659 166.425474 
z
" style="fill:#2f9599;stroke:#ffffff;stroke-width:0.48;"/>
    <path clip-path="url(#p36c5a60d0d)" d="M 254.258295 167.925474 
L 255.758295 166.425474 
L 257.258295 167.925474 
L 258.758295 166.425474 
L 257.258295 164.925474 
L 258.758295 163.425474 
L 257.258295 161.925474 
L 255.758295 163.425474 
L 254.258295 161.925474 
L 252.758295 163.425474 
L 254.258295 164.925474 
L 252.758295 166.425474 
z
" style="fill:#2f9599;stroke:#ffffff;stroke-width:0.48;"/>
    <path clip-path="url(#p36c5a60d0d)" d="M 261.021932 167.925474 
L 262.521932 166.425474 
L 264.021932 167.925474 
L 265.521932 166.425474 
L 264.021932 164.925474 
L 265.521932 163.425474 
L 264.021932 161.925474 
L 262.521932 163.425474 
L 261.021932 161.925474 
L 259.521932 163.425474 
L 261.021932 164.925474 
L 259.521932 166.425474 
z
" style="fill:#2f9599;stroke:#ffffff;stroke-width:0.48;"/>
    <path clip-path="url(#p36c5a60d0d)" d="M 267.785568 167.925474 
L 269.285568 166.425474 
L 270.785568 167.925474 
L 272.285568 166.425474 
L 270.785568 164.925474 
L 272.285568 163.425474 
L 270.785568 161.925474 
L 269.285568 163.425474 
L 267.785568 161.925474 
L 266.285568 163.425474 
L 267.785568 164.925474 
L 266.285568 166.425474 
z
" style="fill:#2f9599;stroke:#ffffff;stroke-width:0.48;"/>
    <path clip-path="url(#p36c5a60d0d)" d="M 274.549205 167.925474 
L 276.049205 166.425474 
L 277.549205 167.925474 
L 279.049205 166.425474 
L 277.549205 164.925474 
L 279.049205 163.425474 
L 277.549205 161.925474 
L 276.049205 163.425474 
L 274.549205 161.925474 
L 273.049205 163.425474 
L 274.549205 164.925474 
L 273.049205 166.425474 
z
" style="fill:#2f9599;stroke:#ffffff;stroke-width:0.48;"/>
    <path clip-path="url(#p36c5a60d0d)" d="M 281.312841 167.925474 
L 282.812841 166.425474 
L 284.312841 167.925474 
L 285.812841 166.425474 
L 284.312841 164.925474 
L 285.812841 163.425474 
L 284.312841 161.925474 
L 282.812841 163.425474 
L 281.312841 161.925474 
L 279.812841 163.425474 
L 281.312841 164.925474 
L 279.812841 166.425474 
z
" style="fill:#2f9599;stroke:#ffffff;stroke-width:0.48;"/>
    <path clip-path="url(#p36c5a60d0d)" d="M 288.076477 167.925474 
L 289.576477 166.425474 
L 291.076477 167.925474 
L 292.576477 166.425474 
L 291.076477 164.925474 
L 292.576477 163.425474 
L 291.076477 161.925474 
L 289.576477 163.425474 
L 288.076477 161.925474 
L 286.576477 163.425474 
L 288.076477 164.925474 
L 286.576477 166.425474 
z
" style="fill:#2f9599;stroke:#ffffff;stroke-width:0.48;"/>
    <path clip-path="url(#p36c5a60d0d)" d="M 294.840114 167.925474 
L 296.340114 166.425474 
L 297.840114 167.925474 
L 299.340114 166.425474 
L 297.840114 164.925474 
L 299.340114 163.425474 
L 297.840114 161.925474 
L 296.340114 163.425474 
L 294.840114 161.925474 
L 293.340114 163.425474 
L 294.840114 164.925474 
L 293.340114 166.425474 
z
" style="fill:#2f9599;stroke:#ffffff;stroke-width:0.48;"/>
    <path clip-path="url(#p36c5a60d0d)" d="M 301.60375 167.925474 
L 303.10375 166.425474 
L 304.60375 167.925474 
L 306.10375 166.425474 
L 304.60375 164.925474 
L 306.10375 163.425474 
L 304.60375 161.925474 
L 303.10375 163.425474 
L 301.60375 161.925474 
L 300.10375 163.425474 
L 301.60375 164.925474 
L 300.10375 166.425474 
z
" style="fill:#2f9599;stroke:#ffffff;stroke-width:0.48;"/>
    <path clip-path="url(#p36c5a60d0d)" d="M 308.367386 167.925474 
L 309.867386 166.425474 
L 311.367386 167.925474 
L 312.867386 166.425474 
L 311.367386 164.925474 
L 312.867386 163.425474 
L 311.367386 161.925474 
L 309.867386 163.425474 
L 308.367386 161.925474 
L 306.867386 163.425474 
L 308.367386 164.925474 
L 306.867386 166.425474 
z
" style="fill:#2f9599;stroke:#ffffff;stroke-width:0.48;"/>
    <path clip-path="url(#p36c5a60d0d)" d="M 315.131023 167.925474 
L 316.631023 166.425474 
L 318.131023 167.925474 
L 319.631023 166.425474 
L 318.131023 164.925474 
L 319.631023 163.425474 
L 318.131023 161.925474 
L 316.631023 163.425474 
L 315.131023 161.925474 
L 313.631023 163.425474 
L 315.131023 164.925474 
L 313.631023 166.425474 
z
" style="fill:#2f9599;stroke:#ffffff;stroke-width:0.48;"/>
    <path clip-path="url(#p36c5a60d0d)" d="M 321.894659 167.925474 
L 323.394659 166.425474 
L 324.894659 167.925474 
L 326.394659 166.425474 
L 324.894659 164.925474 
L 326.394659 163.425474 
L 324.894659 161.925474 
L 323.394659 163.425474 
L 321.894659 161.925474 
L 320.394659 163.425474 
L 321.894659 164.925474 
L 320.394659 166.425474 
z
" style="fill:#2f9599;stroke:#ffffff;stroke-width:0.48;"/>
    <path clip-path="url(#p36c5a60d0d)" d="M 328.658295 167.925474 
L 330.158295 166.425474 
L 331.658295 167.925474 
L 333.158295 166.425474 
L 331.658295 164.925474 
L 333.158295 163.425474 
L 331.658295 161.925474 
L 330.158295 163.425474 
L 328.658295 161.925474 
L 327.158295 163.425474 
L 328.658295 164.925474 
L 327.158295 166.425474 
z
" style="fill:#2f9599;stroke:#ffffff;stroke-width:0.48;"/>
    <path clip-path="url(#p36c5a60d0d)" d="M 335.421932 167.925474 
L 336.921932 166.425474 
L 338.421932 167.925474 
L 339.921932 166.425474 
L 338.421932 164.925474 
L 339.921932 163.425474 
L 338.421932 161.925474 
L 336.921932 163.425474 
L 335.421932 161.925474 
L 333.921932 163.425474 
L 335.421932 164.925474 
L 333.921932 166.425474 
z
" style="fill:#2f9599;stroke:#ffffff;stroke-width:0.48;"/>
    <path clip-path="url(#p36c5a60d0d)" d="M 342.185568 167.925474 
L 343.685568 166.425474 
L 345.185568 167.925474 
L 346.685568 166.425474 
L 345.185568 164.925474 
L 346.685568 163.425474 
L 345.185568 161.925474 
L 343.685568 163.425474 
L 342.185568 161.925474 
L 340.685568 163.425474 
L 342.185568 164.925474 
L 340.685568 166.425474 
z
" style="fill:#2f9599;stroke:#ffffff;stroke-width:0.48;"/>
    <path clip-path="url(#p36c5a60d0d)" d="M 348.949205 167.925474 
L 350.449205 166.425474 
L 351.949205 167.925474 
L 353.449205 166.425474 
L 351.949205 164.925474 
L 353.449205 163.425474 
L 351.949205 161.925474 
L 350.449205 163.425474 
L 348.949205 161.925474 
L 347.449205 163.425474 
L 348.949205 164.925474 
L 347.449205 166.425474 
z
" style="fill:#2f9599;stroke:#ffffff;stroke-width:0.48;"/>
    <path clip-path="url(#p36c5a60d0d)" d="M 355.712841 167.925474 
L 357.212841 166.425474 
L 358.712841 167.925474 
L 360.212841 166.425474 
L 358.712841 164.925474 
L 360.212841 163.425474 
L 358.712841 161.925474 
L 357.212841 163.425474 
L 355.712841 161.925474 
L 354.212841 163.425474 
L 355.712841 164.925474 
L 354.212841 166.425474 
z
" style="fill:#2f9599;stroke:#ffffff;stroke-width:0.48;"/>
    <path clip-path="url(#p36c5a60d0d)" d="M 362.476477 167.925474 
L 363.976477 166.425474 
L 365.476477 167.925474 
L 366.976477 166.425474 
L 365.476477 164.925474 
L 366.976477 163.425474 
L 365.476477 161.925474 
L 363.976477 163.425474 
L 362.476477 161.925474 
L 360.976477 163.425474 
L 362.476477 164.925474 
L 360.976477 166.425474 
z
" style="fill:#2f9599;stroke:#ffffff;stroke-width:0.48;"/>
    <path clip-path="url(#p36c5a60d0d)" d="M 369.240114 167.925474 
L 370.740114 166.425474 
L 372.240114 167.925474 
L 373.740114 166.425474 
L 372.240114 164.925474 
L 373.740114 163.425474 
L 372.240114 161.925474 
L 370.740114 163.425474 
L 369.240114 161.925474 
L 367.740114 163.425474 
L 369.240114 164.925474 
L 367.740114 166.425474 
z
" style="fill:#2f9599;stroke:#ffffff;stroke-width:0.48;"/>
    <path clip-path="url(#p36c5a60d0d)" d="M 376.00375 167.925474 
L 377.50375 166.425474 
L 379.00375 167.925474 
L 380.50375 166.425474 
L 379.00375 164.925474 
L 380.50375 163.425474 
L 379.00375 161.925474 
L 377.50375 163.425474 
L 376.00375 161.925474 
L 374.50375 163.425474 
L 376.00375 164.925474 
L 374.50375 166.425474 
z
" style="fill:#2f9599;stroke:#ffffff;stroke-width:0.48;"/>
    <path clip-path="url(#p36c5a60d0d)" d="M 382.767386 167.925474 
L 384.267386 166.425474 
L 385.767386 167.925474 
L 387.267386 166.425474 
L 385.767386 164.925474 
L 387.267386 163.425474 
L 385.767386 161.925474 
L 384.267386 163.425474 
L 382.767386 161.925474 
L 381.267386 163.425474 
L 382.767386 164.925474 
L 381.267386 166.425474 
z
" style="fill:#2f9599;stroke:#ffffff;stroke-width:0.48;"/>
    <path clip-path="url(#p36c5a60d0d)" d="M 389.531023 167.925474 
L 391.031023 166.425474 
L 392.531023 167.925474 
L 394.031023 166.425474 
L 392.531023 164.925474 
L 394.031023 163.425474 
L 392.531023 161.925474 
L 391.031023 163.425474 
L 389.531023 161.925474 
L 388.031023 163.425474 
L 389.531023 164.925474 
L 388.031023 166.425474 
z
" style="fill:#2f9599;stroke:#ffffff;stroke-width:0.48;"/>
    <path clip-path="url(#p36c5a60d0d)" d="M 64.255157 131.768364 
L 64.255157 136.011005 
L 68.497798 136.011005 
L 68.497798 131.768364 
z
" style="fill:#a7226e;stroke:#ffffff;stroke-width:0.48;"/>
    <path clip-path="url(#p36c5a60d0d)" d="M 71.018793 131.768364 
L 71.018793 136.011005 
L 75.261434 136.011005 
L 75.261434 131.768364 
z
" style="fill:#a7226e;stroke:#ffffff;stroke-width:0.48;"/>
    <path clip-path="url(#p36c5a60d0d)" d="M 77.78243 131.768364 
L 77.78243 136.011005 
L 82.02507 136.011005 
L 82.02507 131.768364 
z
" style="fill:#a7226e;stroke:#ffffff;stroke-width:0.48;"/>
    <path clip-path="url(#p36c5a60d0d)" d="M 84.546066 131.768364 
L 84.546066 136.011005 
L 88.788707 136.011005 
L 88.788707 131.768364 
z
" style="fill:#a7226e;stroke:#ffffff;stroke-width:0.48;"/>
    <path clip-path="url(#p36c5a60d0d)" d="M 91.309702 131.768364 
L 91.309702 136.011005 
L 95.552343 136.011005 
L 95.552343 131.768364 
z
" style="fill:#a7226e;stroke:#ffffff;stroke-width:0.48;"/>
    <path clip-path="url(#p36c5a60d0d)" d="M 98.073339 144.500995 
L 98.073339 148.743636 
L 102.315979 148.743636 
L 102.315979 144.500995 
z
" style="fill:#a7226e;stroke:#ffffff;stroke-width:0.48;"/>
    <path clip-path="url(#p36c5a60d0d)" d="M 104.836975 144.500995 
L 104.836975 148.743636 
L 109.079616 148.743636 
L 109.079616 144.500995 
z
" style="fill:#a7226e;stroke:#ffffff;stroke-width:0.48;"/>
    <path clip-path="url(#p36c5a60d0d)" d="M 111.600611 144.500995 
L 111.600611 148.743636 
L 115.843252 148.743636 
L 115.843252 144.500995 
z
" style="fill:#a7226e;stroke:#ffffff;stroke-width:0.48;"/>
    <path clip-path="url(#p36c5a60d0d)" d="M 118.364248 157.233627 
L 118.364248 161.476268 
L 122.606889 161.476268 
L 122.606889 157.233627 
z
" style="fill:#a7226e;stroke:#ffffff;stroke-width:0.48;"/>
    <path clip-path="url(#p36c5a60d0d)" d="M 125.127884 131.768364 
L 125.127884 136.011005 
L 129.370525 136.011005 
L 129.370525 131.768364 
z
" style="fill:#a7226e;stroke:#ffffff;stroke-width:0.48;"/>
    <path clip-path="url(#p36c5a60d0d)" d="M 131.891521 131.768364 
L 131.891521 136.011005 
L 136.134161 136.011005 
L 136.134161 131.768364 
z
" style="fill:#a7226e;stroke:#ffffff;stroke-width:0.48;"/>
    <path clip-path="url(#p36c5a60d0d)" d="M 138.655157 144.500995 
L 138.655157 148.743636 
L 142.897798 148.743636 
L 142.897798 144.500995 
z
" style="fill:#a7226e;stroke:#ffffff;stroke-width:0.48;"/>
    <path clip-path="url(#p36c5a60d0d)" d="M 145.418793 144.500995 
L 145.418793 148.743636 
L 149.661434 148.743636 
L 149.661434 144.500995 
z
" style="fill:#a7226e;stroke:#ffffff;stroke-width:0.48;"/>
    <path clip-path="url(#p36c5a60d0d)" d="M 152.18243 144.500995 
L 152.18243 148.743636 
L 156.42507 148.743636 
L 156.42507 144.500995 
z
" style="fill:#a7226e;stroke:#ffffff;stroke-width:0.48;"/>
    <path clip-path="url(#p36c5a60d0d)" d="M 158.946066 119.035732 
L 158.946066 123.278373 
L 163.188707 123.278373 
L 163.188707 119.035732 
z
" style="fill:#a7226e;stroke:#ffffff;stroke-width:0.48;"/>
    <path clip-path="url(#p36c5a60d0d)" d="M 165.709702 144.500995 
L 165.709702 148.743636 
L 169.952343 148.743636 
L 169.952343 144.500995 
z
" style="fill:#a7226e;stroke:#ffffff;stroke-width:0.48;"/>
    <path clip-path="url(#p36c5a60d0d)" d="M 172.473339 144.500995 
L 172.473339 148.743636 
L 176.715979 148.743636 
L 176.715979 144.500995 
z
" style="fill:#a7226e;stroke:#ffffff;stroke-width:0.48;"/>
    <path clip-path="url(#p36c5a60d0d)" d="M 179.236975 131.768364 
L 179.236975 136.011005 
L 183.479616 136.011005 
L 183.479616 131.768364 
z
" style="fill:#a7226e;stroke:#ffffff;stroke-width:0.48;"/>
    <path clip-path="url(#p36c5a60d0d)" d="M 186.000611 42.639943 
L 186.000611 46.882584 
L 190.243252 46.882584 
L 190.243252 42.639943 
z
" style="fill:#a7226e;stroke:#ffffff;stroke-width:0.48;"/>
    <path clip-path="url(#p36c5a60d0d)" d="M 192.764248 29.907311 
L 192.764248 34.149952 
L 197.006889 34.149952 
L 197.006889 29.907311 
z
" style="fill:#a7226e;stroke:#ffffff;stroke-width:0.48;"/>
    <path clip-path="url(#p36c5a60d0d)" d="M 199.527884 29.907311 
L 199.527884 34.149952 
L 203.770525 34.149952 
L 203.770525 29.907311 
z
" style="fill:#a7226e;stroke:#ffffff;stroke-width:0.48;"/>
    <path clip-path="url(#p36c5a60d0d)" d="M 206.291521 17.17468 
L 206.291521 21.41732 
L 210.534161 21.41732 
L 210.534161 17.17468 
z
" style="fill:#a7226e;stroke:#ffffff;stroke-width:0.48;"/>
    <path clip-path="url(#p36c5a60d0d)" d="M 213.055157 17.17468 
L 213.055157 21.41732 
L 217.297798 21.41732 
L 217.297798 17.17468 
z
" style="fill:#a7226e;stroke:#ffffff;stroke-width:0.48;"/>
    <path clip-path="url(#p36c5a60d0d)" d="M 219.818793 68.105206 
L 219.818793 72.347847 
L 224.061434 72.347847 
L 224.061434 68.105206 
z
" style="fill:#a7226e;stroke:#ffffff;stroke-width:0.48;"/>
    <path clip-path="url(#p36c5a60d0d)" d="M 226.58243 17.17468 
L 226.58243 21.41732 
L 230.82507 21.41732 
L 230.82507 17.17468 
z
" style="fill:#a7226e;stroke:#ffffff;stroke-width:0.48;"/>
    <path clip-path="url(#p36c5a60d0d)" d="M 233.346066 17.17468 
L 233.346066 21.41732 
L 237.588707 21.41732 
L 237.588707 17.17468 
z
" style="fill:#a7226e;stroke:#ffffff;stroke-width:0.48;"/>
    <path clip-path="url(#p36c5a60d0d)" d="M 240.109702 17.17468 
L 240.109702 21.41732 
L 244.352343 21.41732 
L 244.352343 17.17468 
z
" style="fill:#a7226e;stroke:#ffffff;stroke-width:0.48;"/>
    <path clip-path="url(#p36c5a60d0d)" d="M 246.873339 29.907311 
L 246.873339 34.149952 
L 251.115979 34.149952 
L 251.115979 29.907311 
z
" style="fill:#a7226e;stroke:#ffffff;stroke-width:0.48;"/>
    <path clip-path="url(#p36c5a60d0d)" d="M 253.636975 17.17468 
L 253.636975 21.41732 
L 257.879616 21.41732 
L 257.879616 17.17468 
z
" style="fill:#a7226e;stroke:#ffffff;stroke-width:0.48;"/>
    <path clip-path="url(#p36c5a60d0d)" d="M 260.400611 68.105206 
L 260.400611 72.347847 
L 264.643252 72.347847 
L 264.643252 68.105206 
z
" style="fill:#a7226e;stroke:#ffffff;stroke-width:0.48;"/>
    <path clip-path="url(#p36c5a60d0d)" d="M 267.164248 68.105206 
L 267.164248 72.347847 
L 271.406889 72.347847 
L 271.406889 68.105206 
z
" style="fill:#a7226e;stroke:#ffffff;stroke-width:0.48;"/>
    <path clip-path="url(#p36c5a60d0d)" d="M 273.927884 68.105206 
L 273.927884 72.347847 
L 278.170525 72.347847 
L 278.170525 68.105206 
z
" style="fill:#a7226e;stroke:#ffffff;stroke-width:0.48;"/>
    <path clip-path="url(#p36c5a60d0d)" d="M 280.691521 68.105206 
L 280.691521 72.347847 
L 284.934161 72.347847 
L 284.934161 68.105206 
z
" style="fill:#a7226e;stroke:#ffffff;stroke-width:0.48;"/>
    <path clip-path="url(#p36c5a60d0d)" d="M 287.455157 259.09468 
L 287.455157 263.33732 
L 291.697798 263.33732 
L 291.697798 259.09468 
z
" style="fill:#a7226e;stroke:#ffffff;stroke-width:0.48;"/>
    <path clip-path="url(#p36c5a60d0d)" d="M 294.218793 259.09468 
L 294.218793 263.33732 
L 298.461434 263.33732 
L 298.461434 259.09468 
z
" style="fill:#a7226e;stroke:#ffffff;stroke-width:0.48;"/>
    <path clip-path="url(#p36c5a60d0d)" d="M 300.98243 259.09468 
L 300.98243 263.33732 
L 305.22507 263.33732 
L 305.22507 259.09468 
z
" style="fill:#a7226e;stroke:#ffffff;stroke-width:0.48;"/>
    <path clip-path="url(#p36c5a60d0d)" d="M 307.746066 259.09468 
L 307.746066 263.33732 
L 311.988707 263.33732 
L 311.988707 259.09468 
z
" style="fill:#a7226e;stroke:#ffffff;stroke-width:0.48;"/>
    <path clip-path="url(#p36c5a60d0d)" d="M 314.509702 259.09468 
L 314.509702 263.33732 
L 318.752343 263.33732 
L 318.752343 259.09468 
z
" style="fill:#a7226e;stroke:#ffffff;stroke-width:0.48;"/>
    <path clip-path="url(#p36c5a60d0d)" d="M 321.273339 259.09468 
L 321.273339 263.33732 
L 325.515979 263.33732 
L 325.515979 259.09468 
z
" style="fill:#a7226e;stroke:#ffffff;stroke-width:0.48;"/>
    <path clip-path="url(#p36c5a60d0d)" d="M 328.036975 259.09468 
L 328.036975 263.33732 
L 332.279616 263.33732 
L 332.279616 259.09468 
z
" style="fill:#a7226e;stroke:#ffffff;stroke-width:0.48;"/>
    <path clip-path="url(#p36c5a60d0d)" d="M 334.800611 259.09468 
L 334.800611 263.33732 
L 339.043252 263.33732 
L 339.043252 259.09468 
z
" style="fill:#a7226e;stroke:#ffffff;stroke-width:0.48;"/>
    <path clip-path="url(#p36c5a60d0d)" d="M 341.564248 259.09468 
L 341.564248 263.33732 
L 345.806889 263.33732 
L 345.806889 259.09468 
z
" style="fill:#a7226e;stroke:#ffffff;stroke-width:0.48;"/>
    <path clip-path="url(#p36c5a60d0d)" d="M 348.327884 259.09468 
L 348.327884 263.33732 
L 352.570525 263.33732 
L 352.570525 259.09468 
z
" style="fill:#a7226e;stroke:#ffffff;stroke-width:0.48;"/>
    <path clip-path="url(#p36c5a60d0d)" d="M 355.091521 259.09468 
L 355.091521 263.33732 
L 359.334161 263.33732 
L 359.334161 259.09468 
z
" style="fill:#a7226e;stroke:#ffffff;stroke-width:0.48;"/>
    <path clip-path="url(#p36c5a60d0d)" d="M 361.855157 259.09468 
L 361.855157 263.33732 
L 366.097798 263.33732 
L 366.097798 259.09468 
z
" style="fill:#a7226e;stroke:#ffffff;stroke-width:0.48;"/>
    <path clip-path="url(#p36c5a60d0d)" d="M 368.618793 259.09468 
L 368.618793 263.33732 
L 372.861434 263.33732 
L 372.861434 259.09468 
z
" style="fill:#a7226e;stroke:#ffffff;stroke-width:0.48;"/>
    <path clip-path="url(#p36c5a60d0d)" d="M 375.38243 259.09468 
L 375.38243 263.33732 
L 379.62507 263.33732 
L 379.62507 259.09468 
z
" style="fill:#a7226e;stroke:#ffffff;stroke-width:0.48;"/>
    <path clip-path="url(#p36c5a60d0d)" d="M 382.146066 259.09468 
L 382.146066 263.33732 
L 386.388707 263.33732 
L 386.388707 259.09468 
z
" style="fill:#a7226e;stroke:#ffffff;stroke-width:0.48;"/>
    <path clip-path="url(#p36c5a60d0d)" d="M 388.909702 259.09468 
L 388.909702 263.33732 
L 393.152343 263.33732 
L 393.152343 259.09468 
z
" style="fill:#a7226e;stroke:#ffffff;stroke-width:0.48;"/>
   </g>
   <g id="PathCollection_2"/>
   <g id="PathCollection_3"/>
   <g id="PathCollection_4"/>
   <g id="matplotlib.axis_1">
    <g id="xtick_1">
     <g id="line2d_1">
      <defs>
       <path d="M 0 0 
L 0 3.5 
" id="m6b0154923e" style="stroke:#000000;stroke-width:0.8;"/>
      </defs>
      <g>
       <use style="stroke:#000000;stroke-width:0.8;" x="59.612841" xlink:href="#m6b0154923e" y="273.312"/>
      </g>
     </g>
     <g id="text_1">
      <!-- 0.0 -->
      <g transform="translate(51.661278 287.910437)scale(0.1 -0.1)">
       <defs>
        <path d="M 31.78125 66.40625 
Q 24.171875 66.40625 20.328125 58.90625 
Q 16.5 51.421875 16.5 36.375 
Q 16.5 21.390625 20.328125 13.890625 
Q 24.171875 6.390625 31.78125 6.390625 
Q 39.453125 6.390625 43.28125 13.890625 
Q 47.125 21.390625 47.125 36.375 
Q 47.125 51.421875 43.28125 58.90625 
Q 39.453125 66.40625 31.78125 66.40625 
z
M 31.78125 74.21875 
Q 44.046875 74.21875 50.515625 64.515625 
Q 56.984375 54.828125 56.984375 36.375 
Q 56.984375 17.96875 50.515625 8.265625 
Q 44.046875 -1.421875 31.78125 -1.421875 
Q 19.53125 -1.421875 13.0625 8.265625 
Q 6.59375 17.96875 6.59375 36.375 
Q 6.59375 54.828125 13.0625 64.515625 
Q 19.53125 74.21875 31.78125 74.21875 
z
" id="DejaVuSans-48"/>
        <path d="M 10.6875 12.40625 
L 21 12.40625 
L 21 0 
L 10.6875 0 
z
" id="DejaVuSans-46"/>
       </defs>
       <use xlink:href="#DejaVuSans-48"/>
       <use x="63.623047" xlink:href="#DejaVuSans-46"/>
       <use x="95.410156" xlink:href="#DejaVuSans-48"/>
      </g>
     </g>
    </g>
    <g id="xtick_2">
     <g id="line2d_2">
      <g>
       <use style="stroke:#000000;stroke-width:0.8;" x="127.249205" xlink:href="#m6b0154923e" y="273.312"/>
      </g>
     </g>
     <g id="text_2">
      <!-- 0.2 -->
      <g transform="translate(119.297642 287.910437)scale(0.1 -0.1)">
       <defs>
        <path d="M 19.1875 8.296875 
L 53.609375 8.296875 
L 53.609375 0 
L 7.328125 0 
L 7.328125 8.296875 
Q 12.9375 14.109375 22.625 23.890625 
Q 32.328125 33.6875 34.8125 36.53125 
Q 39.546875 41.84375 41.421875 45.53125 
Q 43.3125 49.21875 43.3125 52.78125 
Q 43.3125 58.59375 39.234375 62.25 
Q 35.15625 65.921875 28.609375 65.921875 
Q 23.96875 65.921875 18.8125 64.3125 
Q 13.671875 62.703125 7.8125 59.421875 
L 7.8125 69.390625 
Q 13.765625 71.78125 18.9375 73 
Q 24.125 74.21875 28.421875 74.21875 
Q 39.75 74.21875 46.484375 68.546875 
Q 53.21875 62.890625 53.21875 53.421875 
Q 53.21875 48.921875 51.53125 44.890625 
Q 49.859375 40.875 45.40625 35.40625 
Q 44.1875 33.984375 37.640625 27.21875 
Q 31.109375 20.453125 19.1875 8.296875 
z
" id="DejaVuSans-50"/>
       </defs>
       <use xlink:href="#DejaVuSans-48"/>
       <use x="63.623047" xlink:href="#DejaVuSans-46"/>
       <use x="95.410156" xlink:href="#DejaVuSans-50"/>
      </g>
     </g>
    </g>
    <g id="xtick_3">
     <g id="line2d_3">
      <g>
       <use style="stroke:#000000;stroke-width:0.8;" x="194.885568" xlink:href="#m6b0154923e" y="273.312"/>
      </g>
     </g>
     <g id="text_3">
      <!-- 0.4 -->
      <g transform="translate(186.934006 287.910437)scale(0.1 -0.1)">
       <defs>
        <path d="M 37.796875 64.3125 
L 12.890625 25.390625 
L 37.796875 25.390625 
z
M 35.203125 72.90625 
L 47.609375 72.90625 
L 47.609375 25.390625 
L 58.015625 25.390625 
L 58.015625 17.1875 
L 47.609375 17.1875 
L 47.609375 0 
L 37.796875 0 
L 37.796875 17.1875 
L 4.890625 17.1875 
L 4.890625 26.703125 
z
" id="DejaVuSans-52"/>
       </defs>
       <use xlink:href="#DejaVuSans-48"/>
       <use x="63.623047" xlink:href="#DejaVuSans-46"/>
       <use x="95.410156" xlink:href="#DejaVuSans-52"/>
      </g>
     </g>
    </g>
    <g id="xtick_4">
     <g id="line2d_4">
      <g>
       <use style="stroke:#000000;stroke-width:0.8;" x="262.521932" xlink:href="#m6b0154923e" y="273.312"/>
      </g>
     </g>
     <g id="text_4">
      <!-- 0.6 -->
      <g transform="translate(254.570369 287.910437)scale(0.1 -0.1)">
       <defs>
        <path d="M 33.015625 40.375 
Q 26.375 40.375 22.484375 35.828125 
Q 18.609375 31.296875 18.609375 23.390625 
Q 18.609375 15.53125 22.484375 10.953125 
Q 26.375 6.390625 33.015625 6.390625 
Q 39.65625 6.390625 43.53125 10.953125 
Q 47.40625 15.53125 47.40625 23.390625 
Q 47.40625 31.296875 43.53125 35.828125 
Q 39.65625 40.375 33.015625 40.375 
z
M 52.59375 71.296875 
L 52.59375 62.3125 
Q 48.875 64.0625 45.09375 64.984375 
Q 41.3125 65.921875 37.59375 65.921875 
Q 27.828125 65.921875 22.671875 59.328125 
Q 17.53125 52.734375 16.796875 39.40625 
Q 19.671875 43.65625 24.015625 45.921875 
Q 28.375 48.1875 33.59375 48.1875 
Q 44.578125 48.1875 50.953125 41.515625 
Q 57.328125 34.859375 57.328125 23.390625 
Q 57.328125 12.15625 50.6875 5.359375 
Q 44.046875 -1.421875 33.015625 -1.421875 
Q 20.359375 -1.421875 13.671875 8.265625 
Q 6.984375 17.96875 6.984375 36.375 
Q 6.984375 53.65625 15.1875 63.9375 
Q 23.390625 74.21875 37.203125 74.21875 
Q 40.921875 74.21875 44.703125 73.484375 
Q 48.484375 72.75 52.59375 71.296875 
z
" id="DejaVuSans-54"/>
       </defs>
       <use xlink:href="#DejaVuSans-48"/>
       <use x="63.623047" xlink:href="#DejaVuSans-46"/>
       <use x="95.410156" xlink:href="#DejaVuSans-54"/>
      </g>
     </g>
    </g>
    <g id="xtick_5">
     <g id="line2d_5">
      <g>
       <use style="stroke:#000000;stroke-width:0.8;" x="330.158295" xlink:href="#m6b0154923e" y="273.312"/>
      </g>
     </g>
     <g id="text_5">
      <!-- 0.8 -->
      <g transform="translate(322.206733 287.910437)scale(0.1 -0.1)">
       <defs>
        <path d="M 31.78125 34.625 
Q 24.75 34.625 20.71875 30.859375 
Q 16.703125 27.09375 16.703125 20.515625 
Q 16.703125 13.921875 20.71875 10.15625 
Q 24.75 6.390625 31.78125 6.390625 
Q 38.8125 6.390625 42.859375 10.171875 
Q 46.921875 13.96875 46.921875 20.515625 
Q 46.921875 27.09375 42.890625 30.859375 
Q 38.875 34.625 31.78125 34.625 
z
M 21.921875 38.8125 
Q 15.578125 40.375 12.03125 44.71875 
Q 8.5 49.078125 8.5 55.328125 
Q 8.5 64.0625 14.71875 69.140625 
Q 20.953125 74.21875 31.78125 74.21875 
Q 42.671875 74.21875 48.875 69.140625 
Q 55.078125 64.0625 55.078125 55.328125 
Q 55.078125 49.078125 51.53125 44.71875 
Q 48 40.375 41.703125 38.8125 
Q 48.828125 37.15625 52.796875 32.3125 
Q 56.78125 27.484375 56.78125 20.515625 
Q 56.78125 9.90625 50.3125 4.234375 
Q 43.84375 -1.421875 31.78125 -1.421875 
Q 19.734375 -1.421875 13.25 4.234375 
Q 6.78125 9.90625 6.78125 20.515625 
Q 6.78125 27.484375 10.78125 32.3125 
Q 14.796875 37.15625 21.921875 38.8125 
z
M 18.3125 54.390625 
Q 18.3125 48.734375 21.84375 45.5625 
Q 25.390625 42.390625 31.78125 42.390625 
Q 38.140625 42.390625 41.71875 45.5625 
Q 45.3125 48.734375 45.3125 54.390625 
Q 45.3125 60.0625 41.71875 63.234375 
Q 38.140625 66.40625 31.78125 66.40625 
Q 25.390625 66.40625 21.84375 63.234375 
Q 18.3125 60.0625 18.3125 54.390625 
z
" id="DejaVuSans-56"/>
       </defs>
       <use xlink:href="#DejaVuSans-48"/>
       <use x="63.623047" xlink:href="#DejaVuSans-46"/>
       <use x="95.410156" xlink:href="#DejaVuSans-56"/>
      </g>
     </g>
    </g>
    <g id="xtick_6">
     <g id="line2d_6">
      <g>
       <use style="stroke:#000000;stroke-width:0.8;" x="397.794659" xlink:href="#m6b0154923e" y="273.312"/>
      </g>
     </g>
     <g id="text_6">
      <!-- 1.0 -->
      <g transform="translate(389.843097 287.910437)scale(0.1 -0.1)">
       <defs>
        <path d="M 12.40625 8.296875 
L 28.515625 8.296875 
L 28.515625 63.921875 
L 10.984375 60.40625 
L 10.984375 69.390625 
L 28.421875 72.90625 
L 38.28125 72.90625 
L 38.28125 8.296875 
L 54.390625 8.296875 
L 54.390625 0 
L 12.40625 0 
z
" id="DejaVuSans-49"/>
       </defs>
       <use xlink:href="#DejaVuSans-49"/>
       <use x="63.623047" xlink:href="#DejaVuSans-46"/>
       <use x="95.410156" xlink:href="#DejaVuSans-48"/>
      </g>
     </g>
    </g>
    <g id="text_7">
     <!-- cutoff -->
     <g transform="translate(214.245938 301.588562)scale(0.1 -0.1)">
      <defs>
       <path d="M 48.78125 52.59375 
L 48.78125 44.1875 
Q 44.96875 46.296875 41.140625 47.34375 
Q 37.3125 48.390625 33.40625 48.390625 
Q 24.65625 48.390625 19.8125 42.84375 
Q 14.984375 37.3125 14.984375 27.296875 
Q 14.984375 17.28125 19.8125 11.734375 
Q 24.65625 6.203125 33.40625 6.203125 
Q 37.3125 6.203125 41.140625 7.25 
Q 44.96875 8.296875 48.78125 10.40625 
L 48.78125 2.09375 
Q 45.015625 0.34375 40.984375 -0.53125 
Q 36.96875 -1.421875 32.421875 -1.421875 
Q 20.0625 -1.421875 12.78125 6.34375 
Q 5.515625 14.109375 5.515625 27.296875 
Q 5.515625 40.671875 12.859375 48.328125 
Q 20.21875 56 33.015625 56 
Q 37.15625 56 41.109375 55.140625 
Q 45.0625 54.296875 48.78125 52.59375 
z
" id="DejaVuSans-99"/>
       <path d="M 8.5 21.578125 
L 8.5 54.6875 
L 17.484375 54.6875 
L 17.484375 21.921875 
Q 17.484375 14.15625 20.5 10.265625 
Q 23.53125 6.390625 29.59375 6.390625 
Q 36.859375 6.390625 41.078125 11.03125 
Q 45.3125 15.671875 45.3125 23.6875 
L 45.3125 54.6875 
L 54.296875 54.6875 
L 54.296875 0 
L 45.3125 0 
L 45.3125 8.40625 
Q 42.046875 3.421875 37.71875 1 
Q 33.40625 -1.421875 27.6875 -1.421875 
Q 18.265625 -1.421875 13.375 4.4375 
Q 8.5 10.296875 8.5 21.578125 
z
M 31.109375 56 
z
" id="DejaVuSans-117"/>
       <path d="M 18.3125 70.21875 
L 18.3125 54.6875 
L 36.8125 54.6875 
L 36.8125 47.703125 
L 18.3125 47.703125 
L 18.3125 18.015625 
Q 18.3125 11.328125 20.140625 9.421875 
Q 21.96875 7.515625 27.59375 7.515625 
L 36.8125 7.515625 
L 36.8125 0 
L 27.59375 0 
Q 17.1875 0 13.234375 3.875 
Q 9.28125 7.765625 9.28125 18.015625 
L 9.28125 47.703125 
L 2.6875 47.703125 
L 2.6875 54.6875 
L 9.28125 54.6875 
L 9.28125 70.21875 
z
" id="DejaVuSans-116"/>
       <path d="M 30.609375 48.390625 
Q 23.390625 48.390625 19.1875 42.75 
Q 14.984375 37.109375 14.984375 27.296875 
Q 14.984375 17.484375 19.15625 11.84375 
Q 23.34375 6.203125 30.609375 6.203125 
Q 37.796875 6.203125 41.984375 11.859375 
Q 46.1875 17.53125 46.1875 27.296875 
Q 46.1875 37.015625 41.984375 42.703125 
Q 37.796875 48.390625 30.609375 48.390625 
z
M 30.609375 56 
Q 42.328125 56 49.015625 48.375 
Q 55.71875 40.765625 55.71875 27.296875 
Q 55.71875 13.875 49.015625 6.21875 
Q 42.328125 -1.421875 30.609375 -1.421875 
Q 18.84375 -1.421875 12.171875 6.21875 
Q 5.515625 13.875 5.515625 27.296875 
Q 5.515625 40.765625 12.171875 48.375 
Q 18.84375 56 30.609375 56 
z
" id="DejaVuSans-111"/>
       <path d="M 37.109375 75.984375 
L 37.109375 68.5 
L 28.515625 68.5 
Q 23.6875 68.5 21.796875 66.546875 
Q 19.921875 64.59375 19.921875 59.515625 
L 19.921875 54.6875 
L 34.71875 54.6875 
L 34.71875 47.703125 
L 19.921875 47.703125 
L 19.921875 0 
L 10.890625 0 
L 10.890625 47.703125 
L 2.296875 47.703125 
L 2.296875 54.6875 
L 10.890625 54.6875 
L 10.890625 58.5 
Q 10.890625 67.625 15.140625 71.796875 
Q 19.390625 75.984375 28.609375 75.984375 
z
" id="DejaVuSans-102"/>
      </defs>
      <use xlink:href="#DejaVuSans-99"/>
      <use x="54.980469" xlink:href="#DejaVuSans-117"/>
      <use x="118.359375" xlink:href="#DejaVuSans-116"/>
      <use x="157.568359" xlink:href="#DejaVuSans-111"/>
      <use x="218.75" xlink:href="#DejaVuSans-102"/>
      <use x="253.955078" xlink:href="#DejaVuSans-102"/>
     </g>
    </g>
   </g>
   <g id="matplotlib.axis_2">
    <g id="ytick_1">
     <g id="line2d_7">
      <defs>
       <path d="M 0 0 
L -3.5 0 
" id="m8e1a74c5e6" style="stroke:#000000;stroke-width:0.8;"/>
      </defs>
      <g>
       <use style="stroke:#000000;stroke-width:0.8;" x="50.14375" xlink:href="#m8e1a74c5e6" y="266.309053"/>
      </g>
     </g>
     <g id="text_8">
      <!-- 0.40 -->
      <g transform="translate(20.878125 270.108271)scale(0.1 -0.1)">
       <use xlink:href="#DejaVuSans-48"/>
       <use x="63.623047" xlink:href="#DejaVuSans-46"/>
       <use x="95.410156" xlink:href="#DejaVuSans-52"/>
       <use x="159.033203" xlink:href="#DejaVuSans-48"/>
      </g>
     </g>
    </g>
    <g id="ytick_2">
     <g id="line2d_8">
      <g>
       <use style="stroke:#000000;stroke-width:0.8;" x="50.14375" xlink:href="#m8e1a74c5e6" y="235.114105"/>
      </g>
     </g>
     <g id="text_9">
      <!-- 0.45 -->
      <g transform="translate(20.878125 238.913324)scale(0.1 -0.1)">
       <defs>
        <path d="M 10.796875 72.90625 
L 49.515625 72.90625 
L 49.515625 64.59375 
L 19.828125 64.59375 
L 19.828125 46.734375 
Q 21.96875 47.46875 24.109375 47.828125 
Q 26.265625 48.1875 28.421875 48.1875 
Q 40.625 48.1875 47.75 41.5 
Q 54.890625 34.8125 54.890625 23.390625 
Q 54.890625 11.625 47.5625 5.09375 
Q 40.234375 -1.421875 26.90625 -1.421875 
Q 22.3125 -1.421875 17.546875 -0.640625 
Q 12.796875 0.140625 7.71875 1.703125 
L 7.71875 11.625 
Q 12.109375 9.234375 16.796875 8.0625 
Q 21.484375 6.890625 26.703125 6.890625 
Q 35.15625 6.890625 40.078125 11.328125 
Q 45.015625 15.765625 45.015625 23.390625 
Q 45.015625 31 40.078125 35.4375 
Q 35.15625 39.890625 26.703125 39.890625 
Q 22.75 39.890625 18.8125 39.015625 
Q 14.890625 38.140625 10.796875 36.28125 
z
" id="DejaVuSans-53"/>
       </defs>
       <use xlink:href="#DejaVuSans-48"/>
       <use x="63.623047" xlink:href="#DejaVuSans-46"/>
       <use x="95.410156" xlink:href="#DejaVuSans-52"/>
       <use x="159.033203" xlink:href="#DejaVuSans-53"/>
      </g>
     </g>
    </g>
    <g id="ytick_3">
     <g id="line2d_9">
      <g>
       <use style="stroke:#000000;stroke-width:0.8;" x="50.14375" xlink:href="#m8e1a74c5e6" y="203.919158"/>
      </g>
     </g>
     <g id="text_10">
      <!-- 0.50 -->
      <g transform="translate(20.878125 207.718377)scale(0.1 -0.1)">
       <use xlink:href="#DejaVuSans-48"/>
       <use x="63.623047" xlink:href="#DejaVuSans-46"/>
       <use x="95.410156" xlink:href="#DejaVuSans-53"/>
       <use x="159.033203" xlink:href="#DejaVuSans-48"/>
      </g>
     </g>
    </g>
    <g id="ytick_4">
     <g id="line2d_10">
      <g>
       <use style="stroke:#000000;stroke-width:0.8;" x="50.14375" xlink:href="#m8e1a74c5e6" y="172.724211"/>
      </g>
     </g>
     <g id="text_11">
      <!-- 0.55 -->
      <g transform="translate(20.878125 176.523429)scale(0.1 -0.1)">
       <use xlink:href="#DejaVuSans-48"/>
       <use x="63.623047" xlink:href="#DejaVuSans-46"/>
       <use x="95.410156" xlink:href="#DejaVuSans-53"/>
       <use x="159.033203" xlink:href="#DejaVuSans-53"/>
      </g>
     </g>
    </g>
    <g id="ytick_5">
     <g id="line2d_11">
      <g>
       <use style="stroke:#000000;stroke-width:0.8;" x="50.14375" xlink:href="#m8e1a74c5e6" y="141.529263"/>
      </g>
     </g>
     <g id="text_12">
      <!-- 0.60 -->
      <g transform="translate(20.878125 145.328482)scale(0.1 -0.1)">
       <use xlink:href="#DejaVuSans-48"/>
       <use x="63.623047" xlink:href="#DejaVuSans-46"/>
       <use x="95.410156" xlink:href="#DejaVuSans-54"/>
       <use x="159.033203" xlink:href="#DejaVuSans-48"/>
      </g>
     </g>
    </g>
    <g id="ytick_6">
     <g id="line2d_12">
      <g>
       <use style="stroke:#000000;stroke-width:0.8;" x="50.14375" xlink:href="#m8e1a74c5e6" y="110.334316"/>
      </g>
     </g>
     <g id="text_13">
      <!-- 0.65 -->
      <g transform="translate(20.878125 114.133535)scale(0.1 -0.1)">
       <use xlink:href="#DejaVuSans-48"/>
       <use x="63.623047" xlink:href="#DejaVuSans-46"/>
       <use x="95.410156" xlink:href="#DejaVuSans-54"/>
       <use x="159.033203" xlink:href="#DejaVuSans-53"/>
      </g>
     </g>
    </g>
    <g id="ytick_7">
     <g id="line2d_13">
      <g>
       <use style="stroke:#000000;stroke-width:0.8;" x="50.14375" xlink:href="#m8e1a74c5e6" y="79.139368"/>
      </g>
     </g>
     <g id="text_14">
      <!-- 0.70 -->
      <g transform="translate(20.878125 82.938587)scale(0.1 -0.1)">
       <defs>
        <path d="M 8.203125 72.90625 
L 55.078125 72.90625 
L 55.078125 68.703125 
L 28.609375 0 
L 18.3125 0 
L 43.21875 64.59375 
L 8.203125 64.59375 
z
" id="DejaVuSans-55"/>
       </defs>
       <use xlink:href="#DejaVuSans-48"/>
       <use x="63.623047" xlink:href="#DejaVuSans-46"/>
       <use x="95.410156" xlink:href="#DejaVuSans-55"/>
       <use x="159.033203" xlink:href="#DejaVuSans-48"/>
      </g>
     </g>
    </g>
    <g id="ytick_8">
     <g id="line2d_14">
      <g>
       <use style="stroke:#000000;stroke-width:0.8;" x="50.14375" xlink:href="#m8e1a74c5e6" y="47.944421"/>
      </g>
     </g>
     <g id="text_15">
      <!-- 0.75 -->
      <g transform="translate(20.878125 51.74364)scale(0.1 -0.1)">
       <use xlink:href="#DejaVuSans-48"/>
       <use x="63.623047" xlink:href="#DejaVuSans-46"/>
       <use x="95.410156" xlink:href="#DejaVuSans-55"/>
       <use x="159.033203" xlink:href="#DejaVuSans-53"/>
      </g>
     </g>
    </g>
    <g id="ytick_9">
     <g id="line2d_15">
      <g>
       <use style="stroke:#000000;stroke-width:0.8;" x="50.14375" xlink:href="#m8e1a74c5e6" y="16.749474"/>
      </g>
     </g>
     <g id="text_16">
      <!-- 0.80 -->
      <g transform="translate(20.878125 20.548692)scale(0.1 -0.1)">
       <use xlink:href="#DejaVuSans-48"/>
       <use x="63.623047" xlink:href="#DejaVuSans-46"/>
       <use x="95.410156" xlink:href="#DejaVuSans-56"/>
       <use x="159.033203" xlink:href="#DejaVuSans-48"/>
      </g>
     </g>
    </g>
    <g id="text_17">
     <!-- performance -->
     <g transform="translate(14.798438 172.278656)rotate(-90)scale(0.1 -0.1)">
      <defs>
       <path d="M 18.109375 8.203125 
L 18.109375 -20.796875 
L 9.078125 -20.796875 
L 9.078125 54.6875 
L 18.109375 54.6875 
L 18.109375 46.390625 
Q 20.953125 51.265625 25.265625 53.625 
Q 29.59375 56 35.59375 56 
Q 45.5625 56 51.78125 48.09375 
Q 58.015625 40.1875 58.015625 27.296875 
Q 58.015625 14.40625 51.78125 6.484375 
Q 45.5625 -1.421875 35.59375 -1.421875 
Q 29.59375 -1.421875 25.265625 0.953125 
Q 20.953125 3.328125 18.109375 8.203125 
z
M 48.6875 27.296875 
Q 48.6875 37.203125 44.609375 42.84375 
Q 40.53125 48.484375 33.40625 48.484375 
Q 26.265625 48.484375 22.1875 42.84375 
Q 18.109375 37.203125 18.109375 27.296875 
Q 18.109375 17.390625 22.1875 11.75 
Q 26.265625 6.109375 33.40625 6.109375 
Q 40.53125 6.109375 44.609375 11.75 
Q 48.6875 17.390625 48.6875 27.296875 
z
" id="DejaVuSans-112"/>
       <path d="M 56.203125 29.59375 
L 56.203125 25.203125 
L 14.890625 25.203125 
Q 15.484375 15.921875 20.484375 11.0625 
Q 25.484375 6.203125 34.421875 6.203125 
Q 39.59375 6.203125 44.453125 7.46875 
Q 49.3125 8.734375 54.109375 11.28125 
L 54.109375 2.78125 
Q 49.265625 0.734375 44.1875 -0.34375 
Q 39.109375 -1.421875 33.890625 -1.421875 
Q 20.796875 -1.421875 13.15625 6.1875 
Q 5.515625 13.8125 5.515625 26.8125 
Q 5.515625 40.234375 12.765625 48.109375 
Q 20.015625 56 32.328125 56 
Q 43.359375 56 49.78125 48.890625 
Q 56.203125 41.796875 56.203125 29.59375 
z
M 47.21875 32.234375 
Q 47.125 39.59375 43.09375 43.984375 
Q 39.0625 48.390625 32.421875 48.390625 
Q 24.90625 48.390625 20.390625 44.140625 
Q 15.875 39.890625 15.1875 32.171875 
z
" id="DejaVuSans-101"/>
       <path d="M 41.109375 46.296875 
Q 39.59375 47.171875 37.8125 47.578125 
Q 36.03125 48 33.890625 48 
Q 26.265625 48 22.1875 43.046875 
Q 18.109375 38.09375 18.109375 28.8125 
L 18.109375 0 
L 9.078125 0 
L 9.078125 54.6875 
L 18.109375 54.6875 
L 18.109375 46.1875 
Q 20.953125 51.171875 25.484375 53.578125 
Q 30.03125 56 36.53125 56 
Q 37.453125 56 38.578125 55.875 
Q 39.703125 55.765625 41.0625 55.515625 
z
" id="DejaVuSans-114"/>
       <path d="M 52 44.1875 
Q 55.375 50.25 60.0625 53.125 
Q 64.75 56 71.09375 56 
Q 79.640625 56 84.28125 50.015625 
Q 88.921875 44.046875 88.921875 33.015625 
L 88.921875 0 
L 79.890625 0 
L 79.890625 32.71875 
Q 79.890625 40.578125 77.09375 44.375 
Q 74.3125 48.1875 68.609375 48.1875 
Q 61.625 48.1875 57.5625 43.546875 
Q 53.515625 38.921875 53.515625 30.90625 
L 53.515625 0 
L 44.484375 0 
L 44.484375 32.71875 
Q 44.484375 40.625 41.703125 44.40625 
Q 38.921875 48.1875 33.109375 48.1875 
Q 26.21875 48.1875 22.15625 43.53125 
Q 18.109375 38.875 18.109375 30.90625 
L 18.109375 0 
L 9.078125 0 
L 9.078125 54.6875 
L 18.109375 54.6875 
L 18.109375 46.1875 
Q 21.1875 51.21875 25.484375 53.609375 
Q 29.78125 56 35.6875 56 
Q 41.65625 56 45.828125 52.96875 
Q 50 49.953125 52 44.1875 
z
" id="DejaVuSans-109"/>
       <path d="M 34.28125 27.484375 
Q 23.390625 27.484375 19.1875 25 
Q 14.984375 22.515625 14.984375 16.5 
Q 14.984375 11.71875 18.140625 8.90625 
Q 21.296875 6.109375 26.703125 6.109375 
Q 34.1875 6.109375 38.703125 11.40625 
Q 43.21875 16.703125 43.21875 25.484375 
L 43.21875 27.484375 
z
M 52.203125 31.203125 
L 52.203125 0 
L 43.21875 0 
L 43.21875 8.296875 
Q 40.140625 3.328125 35.546875 0.953125 
Q 30.953125 -1.421875 24.3125 -1.421875 
Q 15.921875 -1.421875 10.953125 3.296875 
Q 6 8.015625 6 15.921875 
Q 6 25.140625 12.171875 29.828125 
Q 18.359375 34.515625 30.609375 34.515625 
L 43.21875 34.515625 
L 43.21875 35.40625 
Q 43.21875 41.609375 39.140625 45 
Q 35.0625 48.390625 27.6875 48.390625 
Q 23 48.390625 18.546875 47.265625 
Q 14.109375 46.140625 10.015625 43.890625 
L 10.015625 52.203125 
Q 14.9375 54.109375 19.578125 55.046875 
Q 24.21875 56 28.609375 56 
Q 40.484375 56 46.34375 49.84375 
Q 52.203125 43.703125 52.203125 31.203125 
z
" id="DejaVuSans-97"/>
       <path d="M 54.890625 33.015625 
L 54.890625 0 
L 45.90625 0 
L 45.90625 32.71875 
Q 45.90625 40.484375 42.875 44.328125 
Q 39.84375 48.1875 33.796875 48.1875 
Q 26.515625 48.1875 22.3125 43.546875 
Q 18.109375 38.921875 18.109375 30.90625 
L 18.109375 0 
L 9.078125 0 
L 9.078125 54.6875 
L 18.109375 54.6875 
L 18.109375 46.1875 
Q 21.34375 51.125 25.703125 53.5625 
Q 30.078125 56 35.796875 56 
Q 45.21875 56 50.046875 50.171875 
Q 54.890625 44.34375 54.890625 33.015625 
z
" id="DejaVuSans-110"/>
      </defs>
      <use xlink:href="#DejaVuSans-112"/>
      <use x="63.476562" xlink:href="#DejaVuSans-101"/>
      <use x="125" xlink:href="#DejaVuSans-114"/>
      <use x="166.113281" xlink:href="#DejaVuSans-102"/>
      <use x="201.318359" xlink:href="#DejaVuSans-111"/>
      <use x="262.5" xlink:href="#DejaVuSans-114"/>
      <use x="301.863281" xlink:href="#DejaVuSans-109"/>
      <use x="399.275391" xlink:href="#DejaVuSans-97"/>
      <use x="460.554688" xlink:href="#DejaVuSans-110"/>
      <use x="523.933594" xlink:href="#DejaVuSans-99"/>
      <use x="578.914062" xlink:href="#DejaVuSans-101"/>
     </g>
    </g>
   </g>
   <g id="line2d_16">
    <path clip-path="url(#p36c5a60d0d)" d="M 66.376477 86.938105 
L 73.140114 112.933895 
L 79.90375 112.933895 
L 86.667386 112.933895 
L 93.431023 99.936 
L 100.194659 138.929684 
L 106.958295 34.946526 
L 113.721932 34.946526 
L 120.485568 34.946526 
L 127.249205 34.946526 
L 134.012841 86.938105 
L 140.776477 86.938105 
L 147.540114 177.923368 
L 154.30375 177.923368 
L 161.067386 47.944421 
L 167.831023 86.938105 
L 174.594659 86.938105 
L 181.358295 86.938105 
L 188.121932 138.929684 
L 194.885568 86.938105 
L 201.649205 138.929684 
L 208.412841 138.929684 
L 215.176477 138.929684 
L 221.940114 138.929684 
L 228.70375 164.925474 
L 235.467386 138.929684 
L 242.231023 138.929684 
L 248.994659 138.929684 
L 255.758295 138.929684 
L 262.521932 138.929684 
L 269.285568 138.929684 
L 276.049205 138.929684 
L 282.812841 138.929684 
L 289.576477 138.929684 
L 296.340114 138.929684 
L 303.10375 138.929684 
L 309.867386 138.929684 
L 316.631023 138.929684 
L 323.394659 138.929684 
L 330.158295 138.929684 
L 336.921932 138.929684 
L 343.685568 138.929684 
L 350.449205 138.929684 
L 357.212841 138.929684 
L 363.976477 138.929684 
L 370.740114 138.929684 
L 377.50375 138.929684 
L 384.267386 138.929684 
L 391.031023 138.929684 
" style="fill:none;stroke:#f26b38;stroke-dasharray:7.4,3.2;stroke-dashoffset:0;stroke-width:2;"/>
   </g>
   <g id="line2d_17">
    <path clip-path="url(#p36c5a60d0d)" d="M 66.376477 138.929684 
L 73.140114 112.933895 
L 79.90375 112.933895 
L 86.667386 112.933895 
L 93.431023 112.933895 
L 100.194659 151.927579 
L 106.958295 151.927579 
L 113.721932 151.927579 
L 120.485568 151.927579 
L 127.249205 112.933895 
L 134.012841 99.936 
L 140.776477 190.921263 
L 147.540114 190.921263 
L 154.30375 190.921263 
L 161.067386 190.921263 
L 167.831023 177.923368 
L 174.594659 164.925474 
L 181.358295 164.925474 
L 188.121932 164.925474 
L 194.885568 164.925474 
L 201.649205 164.925474 
L 208.412841 164.925474 
L 215.176477 164.925474 
L 221.940114 164.925474 
L 228.70375 164.925474 
L 235.467386 164.925474 
L 242.231023 164.925474 
L 248.994659 164.925474 
L 255.758295 164.925474 
L 262.521932 164.925474 
L 269.285568 164.925474 
L 276.049205 164.925474 
L 282.812841 164.925474 
L 289.576477 164.925474 
L 296.340114 164.925474 
L 303.10375 164.925474 
L 309.867386 164.925474 
L 316.631023 164.925474 
L 323.394659 164.925474 
L 330.158295 164.925474 
L 336.921932 164.925474 
L 343.685568 164.925474 
L 350.449205 164.925474 
L 357.212841 164.925474 
L 363.976477 164.925474 
L 370.740114 164.925474 
L 377.50375 164.925474 
L 384.267386 164.925474 
L 391.031023 164.925474 
" style="fill:none;stroke:#2f9599;stroke-dasharray:2,3.3;stroke-dashoffset:0;stroke-width:2;"/>
   </g>
   <g id="line2d_18">
    <path clip-path="url(#p36c5a60d0d)" d="M 66.376477 133.889684 
L 73.140114 133.889684 
L 79.90375 133.889684 
L 86.667386 133.889684 
L 93.431023 133.889684 
L 100.194659 146.622316 
L 106.958295 146.622316 
L 113.721932 146.622316 
L 120.485568 159.354947 
L 127.249205 133.889684 
L 134.012841 133.889684 
L 140.776477 146.622316 
L 147.540114 146.622316 
L 154.30375 146.622316 
L 161.067386 121.157053 
L 167.831023 146.622316 
L 174.594659 146.622316 
L 181.358295 133.889684 
L 188.121932 44.761263 
L 194.885568 32.028632 
L 201.649205 32.028632 
L 208.412841 19.296 
L 215.176477 19.296 
L 221.940114 70.226526 
L 228.70375 19.296 
L 235.467386 19.296 
L 242.231023 19.296 
L 248.994659 32.028632 
L 255.758295 19.296 
L 262.521932 70.226526 
L 269.285568 70.226526 
L 276.049205 70.226526 
L 282.812841 70.226526 
L 289.576477 261.216 
L 296.340114 261.216 
L 303.10375 261.216 
L 309.867386 261.216 
L 316.631023 261.216 
L 323.394659 261.216 
L 330.158295 261.216 
L 336.921932 261.216 
L 343.685568 261.216 
L 350.449205 261.216 
L 357.212841 261.216 
L 363.976477 261.216 
L 370.740114 261.216 
L 377.50375 261.216 
L 384.267386 261.216 
L 391.031023 261.216 
" style="fill:none;stroke:#a7226e;stroke-dasharray:12.8,3.2,2,3.2;stroke-dashoffset:0;stroke-width:2;"/>
   </g>
   <g id="patch_3">
    <path d="M 50.14375 273.312 
L 50.14375 7.2 
" style="fill:none;stroke:#000000;stroke-linecap:square;stroke-linejoin:miter;stroke-width:0.8;"/>
   </g>
   <g id="patch_4">
    <path d="M 407.26375 273.312 
L 407.26375 7.2 
" style="fill:none;stroke:#000000;stroke-linecap:square;stroke-linejoin:miter;stroke-width:0.8;"/>
   </g>
   <g id="patch_5">
    <path d="M 50.14375 273.312 
L 407.26375 273.312 
" style="fill:none;stroke:#000000;stroke-linecap:square;stroke-linejoin:miter;stroke-width:0.8;"/>
   </g>
   <g id="patch_6">
    <path d="M 50.14375 7.2 
L 407.26375 7.2 
" style="fill:none;stroke:#000000;stroke-linecap:square;stroke-linejoin:miter;stroke-width:0.8;"/>
   </g>
   <g id="legend_1">
    <g id="patch_7">
     <path d="M 321.790059 43.890912 
L 402.40575 43.890912 
Q 403.79375 43.890912 403.79375 42.502912 
L 403.79375 12.058 
Q 403.79375 10.67 402.40575 10.67 
L 321.790059 10.67 
Q 320.402059 10.67 320.402059 12.058 
L 320.402059 42.502912 
Q 320.402059 43.890912 321.790059 43.890912 
z
" style="fill:#ffffff;opacity:0.8;stroke:#cccccc;stroke-linejoin:miter;"/>
    </g>
    <g id="PathCollection_5">
     <defs>
      <path d="M 0 3 
C 0.795609 3 1.55874 2.683901 2.12132 2.12132 
C 2.683901 1.55874 3 0.795609 3 0 
C 3 -0.795609 2.683901 -1.55874 2.12132 -2.12132 
C 1.55874 -2.683901 0.795609 -3 0 -3 
C -0.795609 -3 -1.55874 -2.683901 -2.12132 -2.12132 
C -2.683901 -1.55874 -3 -0.795609 -3 0 
C -3 0.795609 -2.683901 1.55874 -2.12132 2.12132 
C -1.55874 2.683901 -0.795609 3 0 3 
z
" id="m0be0a05ec3" style="stroke:#f26b38;"/>
     </defs>
     <g>
      <use style="fill:#f26b38;stroke:#f26b38;" x="330.118059" xlink:href="#m0be0a05ec3" y="16.897566"/>
     </g>
    </g>
    <g id="text_18">
     <!-- mean_err -->
     <g transform="translate(342.610059 18.719316)scale(0.0694 -0.0694)">
      <defs>
       <path d="M 50.984375 -16.609375 
L 50.984375 -23.578125 
L -0.984375 -23.578125 
L -0.984375 -16.609375 
z
" id="DejaVuSans-95"/>
      </defs>
      <use xlink:href="#DejaVuSans-109"/>
      <use x="97.412109" xlink:href="#DejaVuSans-101"/>
      <use x="158.935547" xlink:href="#DejaVuSans-97"/>
      <use x="220.214844" xlink:href="#DejaVuSans-110"/>
      <use x="283.59375" xlink:href="#DejaVuSans-95"/>
      <use x="333.59375" xlink:href="#DejaVuSans-101"/>
      <use x="395.117188" xlink:href="#DejaVuSans-114"/>
      <use x="434.480469" xlink:href="#DejaVuSans-114"/>
     </g>
    </g>
    <g id="PathCollection_6">
     <defs>
      <path d="M -1.5 3 
L 0 1.5 
L 1.5 3 
L 3 1.5 
L 1.5 0 
L 3 -1.5 
L 1.5 -3 
L 0 -1.5 
L -1.5 -3 
L -3 -1.5 
L -1.5 0 
L -3 1.5 
z
" id="m0db5f05120" style="stroke:#2f9599;"/>
     </defs>
     <g>
      <use style="fill:#2f9599;stroke:#2f9599;" x="330.118059" xlink:href="#m0db5f05120" y="27.277203"/>
     </g>
    </g>
    <g id="text_19">
     <!-- mean_sq_err -->
     <g transform="translate(342.610059 29.098953)scale(0.0694 -0.0694)">
      <defs>
       <path d="M 44.28125 53.078125 
L 44.28125 44.578125 
Q 40.484375 46.53125 36.375 47.5 
Q 32.28125 48.484375 27.875 48.484375 
Q 21.1875 48.484375 17.84375 46.4375 
Q 14.5 44.390625 14.5 40.28125 
Q 14.5 37.15625 16.890625 35.375 
Q 19.28125 33.59375 26.515625 31.984375 
L 29.59375 31.296875 
Q 39.15625 29.25 43.1875 25.515625 
Q 47.21875 21.78125 47.21875 15.09375 
Q 47.21875 7.46875 41.1875 3.015625 
Q 35.15625 -1.421875 24.609375 -1.421875 
Q 20.21875 -1.421875 15.453125 -0.5625 
Q 10.6875 0.296875 5.421875 2 
L 5.421875 11.28125 
Q 10.40625 8.6875 15.234375 7.390625 
Q 20.0625 6.109375 24.8125 6.109375 
Q 31.15625 6.109375 34.5625 8.28125 
Q 37.984375 10.453125 37.984375 14.40625 
Q 37.984375 18.0625 35.515625 20.015625 
Q 33.0625 21.96875 24.703125 23.78125 
L 21.578125 24.515625 
Q 13.234375 26.265625 9.515625 29.90625 
Q 5.8125 33.546875 5.8125 39.890625 
Q 5.8125 47.609375 11.28125 51.796875 
Q 16.75 56 26.8125 56 
Q 31.78125 56 36.171875 55.265625 
Q 40.578125 54.546875 44.28125 53.078125 
z
" id="DejaVuSans-115"/>
       <path d="M 14.796875 27.296875 
Q 14.796875 17.390625 18.875 11.75 
Q 22.953125 6.109375 30.078125 6.109375 
Q 37.203125 6.109375 41.296875 11.75 
Q 45.40625 17.390625 45.40625 27.296875 
Q 45.40625 37.203125 41.296875 42.84375 
Q 37.203125 48.484375 30.078125 48.484375 
Q 22.953125 48.484375 18.875 42.84375 
Q 14.796875 37.203125 14.796875 27.296875 
z
M 45.40625 8.203125 
Q 42.578125 3.328125 38.25 0.953125 
Q 33.9375 -1.421875 27.875 -1.421875 
Q 17.96875 -1.421875 11.734375 6.484375 
Q 5.515625 14.40625 5.515625 27.296875 
Q 5.515625 40.1875 11.734375 48.09375 
Q 17.96875 56 27.875 56 
Q 33.9375 56 38.25 53.625 
Q 42.578125 51.265625 45.40625 46.390625 
L 45.40625 54.6875 
L 54.390625 54.6875 
L 54.390625 -20.796875 
L 45.40625 -20.796875 
z
" id="DejaVuSans-113"/>
      </defs>
      <use xlink:href="#DejaVuSans-109"/>
      <use x="97.412109" xlink:href="#DejaVuSans-101"/>
      <use x="158.935547" xlink:href="#DejaVuSans-97"/>
      <use x="220.214844" xlink:href="#DejaVuSans-110"/>
      <use x="283.59375" xlink:href="#DejaVuSans-95"/>
      <use x="333.59375" xlink:href="#DejaVuSans-115"/>
      <use x="385.693359" xlink:href="#DejaVuSans-113"/>
      <use x="449.169922" xlink:href="#DejaVuSans-95"/>
      <use x="499.169922" xlink:href="#DejaVuSans-101"/>
      <use x="560.693359" xlink:href="#DejaVuSans-114"/>
      <use x="600.056641" xlink:href="#DejaVuSans-114"/>
     </g>
    </g>
    <g id="PathCollection_7">
     <defs>
      <path d="M -2.12132 -2.12132 
L -2.12132 2.12132 
L 2.12132 2.12132 
L 2.12132 -2.12132 
z
" id="m1d759c5bd0" style="stroke:#a7226e;"/>
     </defs>
     <g>
      <use style="fill:#a7226e;stroke:#a7226e;" x="330.118059" xlink:href="#m1d759c5bd0" y="37.656841"/>
     </g>
    </g>
    <g id="text_20">
     <!-- mean_sqroot_err -->
     <g transform="translate(342.610059 39.478591)scale(0.0694 -0.0694)">
      <use xlink:href="#DejaVuSans-109"/>
      <use x="97.412109" xlink:href="#DejaVuSans-101"/>
      <use x="158.935547" xlink:href="#DejaVuSans-97"/>
      <use x="220.214844" xlink:href="#DejaVuSans-110"/>
      <use x="283.59375" xlink:href="#DejaVuSans-95"/>
      <use x="333.59375" xlink:href="#DejaVuSans-115"/>
      <use x="385.693359" xlink:href="#DejaVuSans-113"/>
      <use x="449.169922" xlink:href="#DejaVuSans-114"/>
      <use x="488.033203" xlink:href="#DejaVuSans-111"/>
      <use x="549.214844" xlink:href="#DejaVuSans-111"/>
      <use x="610.396484" xlink:href="#DejaVuSans-116"/>
      <use x="649.605469" xlink:href="#DejaVuSans-95"/>
      <use x="699.605469" xlink:href="#DejaVuSans-101"/>
      <use x="761.128906" xlink:href="#DejaVuSans-114"/>
      <use x="800.492188" xlink:href="#DejaVuSans-114"/>
     </g>
    </g>
   </g>
  </g>
 </g>
 <defs>
  <clipPath id="p36c5a60d0d">
   <rect height="266.112" width="357.12" x="50.14375" y="7.2"/>
  </clipPath>
 </defs>
</svg>
