<?xml version="1.0" encoding="utf-8" standalone="no"?>
<!DOCTYPE svg PUBLIC "-//W3C//DTD SVG 1.1//EN"
  "http://www.w3.org/Graphics/SVG/1.1/DTD/svg11.dtd">
<!-- Created with matplotlib (https://matplotlib.org/) -->
<svg height="310.86825pt" version="1.1" viewBox="0 0 408.10125 310.86825" width="408.10125pt" xmlns="http://www.w3.org/2000/svg" xmlns:xlink="http://www.w3.org/1999/xlink">
 <metadata>
  <rdf:RDF xmlns:cc="http://creativecommons.org/ns#" xmlns:dc="http://purl.org/dc/elements/1.1/" xmlns:rdf="http://www.w3.org/1999/02/22-rdf-syntax-ns#">
   <cc:Work>
    <dc:type rdf:resource="http://purl.org/dc/dcmitype/StillImage"/>
    <dc:date>2023-04-20T17:47:32.072988</dc:date>
    <dc:format>image/svg+xml</dc:format>
    <dc:creator>
     <cc:Agent>
      <dc:title>Matplotlib v3.3.4, https://matplotlib.org/</dc:title>
     </cc:Agent>
    </dc:creator>
   </cc:Work>
  </rdf:RDF>
 </metadata>
 <defs>
  <style type="text/css">*{stroke-linecap:butt;stroke-linejoin:round;}</style>
 </defs>
 <g id="figure_1">
  <g id="patch_1">
   <path d="M 0 310.86825 
L 408.10125 310.86825 
L 408.10125 0 
L 0 0 
z
" style="fill:#ffffff;"/>
  </g>
  <g id="axes_1">
   <g id="patch_2">
    <path d="M 43.78125 273.312 
L 400.90125 273.312 
L 400.90125 7.2 
L 43.78125 7.2 
z
" style="fill:#ffffff;"/>
   </g>
   <g id="PathCollection_1">
    <path clip-path="url(#pb793546cb5)" d="M 384.668523 156.636486 
C 385.787809 156.636486 386.861402 156.191789 387.652857 155.400334 
C 388.444311 154.608879 388.889008 153.535286 388.889008 152.416 
C 388.889008 151.296714 388.444311 150.223121 387.652857 149.431666 
C 386.861402 148.640211 385.787809 148.195514 384.668523 148.195514 
C 383.549237 148.195514 382.475643 148.640211 381.684189 149.431666 
C 380.892734 150.223121 380.448037 151.296714 380.448037 152.416 
C 380.448037 153.535286 380.892734 154.608879 381.684189 155.400334 
C 382.475643 156.191789 383.549237 156.636486 384.668523 156.636486 
z
" style="fill:#2ca02c;stroke:#ffffff;stroke-width:0.525357;"/>
    <path clip-path="url(#pb793546cb5)" d="M 384.668523 150.633727 
C 385.787809 150.633727 386.861402 150.18903 387.652857 149.397575 
C 388.444311 148.606121 388.889008 147.532527 388.889008 146.413241 
C 388.889008 145.293955 388.444311 144.220362 387.652857 143.428907 
C 386.861402 142.637453 385.787809 142.192756 384.668523 142.192756 
C 383.549237 142.192756 382.475643 142.637453 381.684189 143.428907 
C 380.892734 144.220362 380.448037 145.293955 380.448037 146.413241 
C 380.448037 147.532527 380.892734 148.606121 381.684189 149.397575 
C 382.475643 150.18903 383.549237 150.633727 384.668523 150.633727 
z
" style="fill:#1f77b4;stroke:#ffffff;stroke-width:0.525357;"/>
    <path clip-path="url(#pb793546cb5)" d="M 384.668523 23.516486 
C 385.787809 23.516486 386.861402 23.071789 387.652857 22.280334 
C 388.444311 21.488879 388.889008 20.415286 388.889008 19.296 
C 388.889008 18.176714 388.444311 17.103121 387.652857 16.311666 
C 386.861402 15.520211 385.787809 15.075514 384.668523 15.075514 
C 383.549237 15.075514 382.475643 15.520211 381.684189 16.311666 
C 380.892734 17.103121 380.448037 18.176714 380.448037 19.296 
C 380.448037 20.415286 380.892734 21.488879 381.684189 22.280334 
C 382.475643 23.071789 383.549237 23.516486 384.668523 23.516486 
z
" style="fill:#ff7f0e;stroke:#ffffff;stroke-width:0.525357;"/>
    <path clip-path="url(#pb793546cb5)" d="M 384.668523 103.655616 
C 385.787809 103.655616 386.861402 103.210919 387.652857 102.419465 
C 388.444311 101.62801 388.889008 100.554416 388.889008 99.43513 
C 388.889008 98.315845 388.444311 97.242251 387.652857 96.450796 
C 386.861402 95.659342 385.787809 95.214645 384.668523 95.214645 
C 383.549237 95.214645 382.475643 95.659342 381.684189 96.450796 
C 380.892734 97.242251 380.448037 98.315845 380.448037 99.43513 
C 380.448037 100.554416 380.892734 101.62801 381.684189 102.419465 
C 382.475643 103.210919 383.549237 103.655616 384.668523 103.655616 
z
" style="fill:#d62728;stroke:#ffffff;stroke-width:0.525357;"/>
    <path clip-path="url(#pb793546cb5)" d="M 344.086705 196.009208 
C 345.41272 196.009208 346.684604 195.482376 347.622238 194.544741 
C 348.559873 193.607107 349.086705 192.335223 349.086705 191.009208 
C 349.086705 189.683192 348.559873 188.411308 347.622238 187.473674 
C 346.684604 186.536039 345.41272 186.009208 344.086705 186.009208 
C 342.760689 186.009208 341.488805 186.536039 340.551171 187.473674 
C 339.613536 188.411308 339.086705 189.683192 339.086705 191.009208 
C 339.086705 192.335223 339.613536 193.607107 340.551171 194.544741 
C 341.488805 195.482376 342.760689 196.009208 344.086705 196.009208 
z
" style="fill:#2ca02c;stroke:#ffffff;stroke-width:0.525357;"/>
    <path clip-path="url(#pb793546cb5)" d="M 344.086705 178.713021 
C 345.41272 178.713021 346.684604 178.18619 347.622238 177.248555 
C 348.559873 176.310921 349.086705 175.039037 349.086705 173.713021 
C 349.086705 172.387006 348.559873 171.115122 347.622238 170.177487 
C 346.684604 169.239853 345.41272 168.713021 344.086705 168.713021 
C 342.760689 168.713021 341.488805 169.239853 340.551171 170.177487 
C 339.613536 171.115122 339.086705 172.387006 339.086705 173.713021 
C 339.086705 175.039037 339.613536 176.310921 340.551171 177.248555 
C 341.488805 178.18619 342.760689 178.713021 344.086705 178.713021 
z
" style="fill:#1f77b4;stroke:#ffffff;stroke-width:0.525357;"/>
    <path clip-path="url(#pb793546cb5)" d="M 344.086705 75.038857 
C 345.41272 75.038857 346.684604 74.512026 347.622238 73.574391 
C 348.559873 72.636756 349.086705 71.364873 349.086705 70.038857 
C 349.086705 68.712842 348.559873 67.440958 347.622238 66.503323 
C 346.684604 65.565689 345.41272 65.038857 344.086705 65.038857 
C 342.760689 65.038857 341.488805 65.565689 340.551171 66.503323 
C 339.613536 67.440958 339.086705 68.712842 339.086705 70.038857 
C 339.086705 71.364873 339.613536 72.636756 340.551171 73.574391 
C 341.488805 74.512026 342.760689 75.038857 344.086705 75.038857 
z
" style="fill:#ff7f0e;stroke:#ffffff;stroke-width:0.525357;"/>
    <path clip-path="url(#pb793546cb5)" d="M 344.086705 140.008 
C 345.41272 140.008 346.684604 139.481168 347.622238 138.543534 
C 348.559873 137.605899 349.086705 136.334015 349.086705 135.008 
C 349.086705 133.681984 348.559873 132.410101 347.622238 131.472466 
C 346.684604 130.534832 345.41272 130.008 344.086705 130.008 
C 342.760689 130.008 341.488805 130.534832 340.551171 131.472466 
C 339.613536 132.410101 339.086705 133.681984 339.086705 135.008 
C 339.086705 136.334015 339.613536 137.605899 340.551171 138.543534 
C 341.488805 139.481168 342.760689 140.008 344.086705 140.008 
z
" style="fill:#d62728;stroke:#ffffff;stroke-width:0.525357;"/>
    <path clip-path="url(#pb793546cb5)" d="M 60.013977 264.378278 
C 60.852623 264.378278 61.657033 264.04508 62.250045 263.452068 
C 62.843057 262.859056 63.176255 262.054646 63.176255 261.216 
C 63.176255 260.377354 62.843057 259.572944 62.250045 258.979932 
C 61.657033 258.38692 60.852623 258.053722 60.013977 258.053722 
C 59.175331 258.053722 58.370921 258.38692 57.777909 258.979932 
C 57.184897 259.572944 56.8517 260.377354 56.8517 261.216 
C 56.8517 262.054646 57.184897 262.859056 57.777909 263.452068 
C 58.370921 264.04508 59.175331 264.378278 60.013977 264.378278 
z
" style="fill:#2ca02c;stroke:#ffffff;stroke-width:0.525357;"/>
    <path clip-path="url(#pb793546cb5)" d="M 60.013977 220.858278 
C 60.852623 220.858278 61.657033 220.52508 62.250045 219.932068 
C 62.843057 219.339056 63.176255 218.534646 63.176255 217.696 
C 63.176255 216.857354 62.843057 216.052944 62.250045 215.459932 
C 61.657033 214.86692 60.852623 214.533722 60.013977 214.533722 
C 59.175331 214.533722 58.370921 214.86692 57.777909 215.459932 
C 57.184897 216.052944 56.8517 216.857354 56.8517 217.696 
C 56.8517 218.534646 57.184897 219.339056 57.777909 219.932068 
C 58.370921 220.52508 59.175331 220.858278 60.013977 220.858278 
z
" style="fill:#1f77b4;stroke:#ffffff;stroke-width:0.525357;"/>
    <path clip-path="url(#pb793546cb5)" d="M 60.013977 220.858278 
C 60.852623 220.858278 61.657033 220.52508 62.250045 219.932068 
C 62.843057 219.339056 63.176255 218.534646 63.176255 217.696 
C 63.176255 216.857354 62.843057 216.052944 62.250045 215.459932 
C 61.657033 214.86692 60.852623 214.533722 60.013977 214.533722 
C 59.175331 214.533722 58.370921 214.86692 57.777909 215.459932 
C 57.184897 216.052944 56.8517 216.857354 56.8517 217.696 
C 56.8517 218.534646 57.184897 219.339056 57.777909 219.932068 
C 58.370921 220.52508 59.175331 220.858278 60.013977 220.858278 
z
" style="fill:#ff7f0e;stroke:#ffffff;stroke-width:0.525357;"/>
    <path clip-path="url(#pb793546cb5)" d="M 60.013977 220.858278 
C 60.852623 220.858278 61.657033 220.52508 62.250045 219.932068 
C 62.843057 219.339056 63.176255 218.534646 63.176255 217.696 
C 63.176255 216.857354 62.843057 216.052944 62.250045 215.459932 
C 61.657033 214.86692 60.852623 214.533722 60.013977 214.533722 
C 59.175331 214.533722 58.370921 214.86692 57.777909 215.459932 
C 57.184897 216.052944 56.8517 216.857354 56.8517 217.696 
C 56.8517 218.534646 57.184897 219.339056 57.777909 219.932068 
C 58.370921 220.52508 59.175331 220.858278 60.013977 220.858278 
z
" style="fill:#d62728;stroke:#ffffff;stroke-width:0.525357;"/>
    <path clip-path="url(#pb793546cb5)" d="M 100.595795 231.976368 
C 101.497583 231.976368 102.362558 231.618083 103.000218 230.980423 
C 103.637879 230.342763 103.996163 229.477788 103.996163 228.576 
C 103.996163 227.674212 103.637879 226.809237 103.000218 226.171577 
C 102.362558 225.533917 101.497583 225.175632 100.595795 225.175632 
C 99.694007 225.175632 98.829033 225.533917 98.191372 226.171577 
C 97.553712 226.809237 97.195428 227.674212 97.195428 228.576 
C 97.195428 229.477788 97.553712 230.342763 98.191372 230.980423 
C 98.829033 231.618083 99.694007 231.976368 100.595795 231.976368 
z
" style="fill:#2ca02c;stroke:#ffffff;stroke-width:0.525357;"/>
    <path clip-path="url(#pb793546cb5)" d="M 100.595795 166.696368 
C 101.497583 166.696368 102.362558 166.338083 103.000218 165.700423 
C 103.637879 165.062763 103.996163 164.197788 103.996163 163.296 
C 103.996163 162.394212 103.637879 161.529237 103.000218 160.891577 
C 102.362558 160.253917 101.497583 159.895632 100.595795 159.895632 
C 99.694007 159.895632 98.829033 160.253917 98.191372 160.891577 
C 97.553712 161.529237 97.195428 162.394212 97.195428 163.296 
C 97.195428 164.197788 97.553712 165.062763 98.191372 165.700423 
C 98.829033 166.338083 99.694007 166.696368 100.595795 166.696368 
z
" style="fill:#1f77b4;stroke:#ffffff;stroke-width:0.525357;"/>
    <path clip-path="url(#pb793546cb5)" d="M 100.595795 190.010653 
C 101.497583 190.010653 102.362558 189.652369 103.000218 189.014709 
C 103.637879 188.377048 103.996163 187.512074 103.996163 186.610286 
C 103.996163 185.708498 103.637879 184.843523 103.000218 184.205863 
C 102.362558 183.568202 101.497583 183.209918 100.595795 183.209918 
C 99.694007 183.209918 98.829033 183.568202 98.191372 184.205863 
C 97.553712 184.843523 97.195428 185.708498 97.195428 186.610286 
C 97.195428 187.512074 97.553712 188.377048 98.191372 189.014709 
C 98.829033 189.652369 99.694007 190.010653 100.595795 190.010653 
z
" style="fill:#ff7f0e;stroke:#ffffff;stroke-width:0.525357;"/>
    <path clip-path="url(#pb793546cb5)" d="M 100.595795 179.250214 
C 101.497583 179.250214 102.362558 178.89193 103.000218 178.254269 
C 103.637879 177.616609 103.996163 176.751634 103.996163 175.849846 
C 103.996163 174.948058 103.637879 174.083084 103.000218 173.445423 
C 102.362558 172.807763 101.497583 172.449479 100.595795 172.449479 
C 99.694007 172.449479 98.829033 172.807763 98.191372 173.445423 
C 97.553712 174.083084 97.195428 174.948058 97.195428 175.849846 
C 97.195428 176.751634 97.553712 177.616609 98.191372 178.254269 
C 98.829033 178.89193 99.694007 179.250214 100.595795 179.250214 
z
" style="fill:#d62728;stroke:#ffffff;stroke-width:0.525357;"/>
    <path clip-path="url(#pb793546cb5)" d="M 141.177614 229.600765 
C 142.115248 229.600765 143.014606 229.228239 143.677614 228.565231 
C 144.340621 227.902223 144.713148 227.002865 144.713148 226.065231 
C 144.713148 225.127596 144.340621 224.228239 143.677614 223.565231 
C 143.014606 222.902223 142.115248 222.529697 141.177614 222.529697 
C 140.239979 222.529697 139.340621 222.902223 138.677614 223.565231 
C 138.014606 224.228239 137.64208 225.127596 137.64208 226.065231 
C 137.64208 227.002865 138.014606 227.902223 138.677614 228.565231 
C 139.340621 229.228239 140.239979 229.600765 141.177614 229.600765 
z
" style="fill:#2ca02c;stroke:#ffffff;stroke-width:0.525357;"/>
    <path clip-path="url(#pb793546cb5)" d="M 141.177614 184.964867 
C 142.115248 184.964867 143.014606 184.592341 143.677614 183.929333 
C 144.340621 183.266326 144.713148 182.366968 144.713148 181.429333 
C 144.713148 180.491699 144.340621 179.592341 143.677614 178.929333 
C 143.014606 178.266326 142.115248 177.893799 141.177614 177.893799 
C 140.239979 177.893799 139.340621 178.266326 138.677614 178.929333 
C 138.014606 179.592341 137.64208 180.491699 137.64208 181.429333 
C 137.64208 182.366968 138.014606 183.266326 138.677614 183.929333 
C 139.340621 184.592341 140.239979 184.964867 141.177614 184.964867 
z
" style="fill:#1f77b4;stroke:#ffffff;stroke-width:0.525357;"/>
    <path clip-path="url(#pb793546cb5)" d="M 141.177614 166.831534 
C 142.115248 166.831534 143.014606 166.459008 143.677614 165.796 
C 144.340621 165.132992 144.713148 164.233635 144.713148 163.296 
C 144.713148 162.358365 144.340621 161.459008 143.677614 160.796 
C 143.014606 160.132992 142.115248 159.760466 141.177614 159.760466 
C 140.239979 159.760466 139.340621 160.132992 138.677614 160.796 
C 138.014606 161.459008 137.64208 162.358365 137.64208 163.296 
C 137.64208 164.233635 138.014606 165.132992 138.677614 165.796 
C 139.340621 166.459008 140.239979 166.831534 141.177614 166.831534 
z
" style="fill:#ff7f0e;stroke:#ffffff;stroke-width:0.525357;"/>
    <path clip-path="url(#pb793546cb5)" d="M 141.177614 176.431534 
C 142.115248 176.431534 143.014606 176.059008 143.677614 175.396 
C 144.340621 174.732992 144.713148 173.833635 144.713148 172.896 
C 144.713148 171.958365 144.340621 171.059008 143.677614 170.396 
C 143.014606 169.732992 142.115248 169.360466 141.177614 169.360466 
C 140.239979 169.360466 139.340621 169.732992 138.677614 170.396 
C 138.014606 171.059008 137.64208 171.958365 137.64208 172.896 
C 137.64208 173.833635 138.014606 174.732992 138.677614 175.396 
C 139.340621 176.059008 140.239979 176.431534 141.177614 176.431534 
z
" style="fill:#d62728;stroke:#ffffff;stroke-width:0.525357;"/>
    <path clip-path="url(#pb793546cb5)" d="M 181.759432 203.312667 
C 182.753943 203.312667 183.707856 202.917543 184.411082 202.214317 
C 185.114308 201.511091 185.509432 200.557178 185.509432 199.562667 
C 185.509432 198.568155 185.114308 197.614242 184.411082 196.911016 
C 183.707856 196.20779 182.753943 195.812667 181.759432 195.812667 
C 180.76492 195.812667 179.811007 196.20779 179.107781 196.911016 
C 178.404555 197.614242 178.009432 198.568155 178.009432 199.562667 
C 178.009432 200.557178 178.404555 201.511091 179.107781 202.214317 
C 179.811007 202.917543 180.76492 203.312667 181.759432 203.312667 
z
" style="fill:#2ca02c;stroke:#ffffff;stroke-width:0.525357;"/>
    <path clip-path="url(#pb793546cb5)" d="M 181.759432 154.492154 
C 182.753943 154.492154 183.707856 154.09703 184.411082 153.393804 
C 185.114308 152.690578 185.509432 151.736665 185.509432 150.742154 
C 185.509432 149.747642 185.114308 148.793729 184.411082 148.090503 
C 183.707856 147.387278 182.753943 146.992154 181.759432 146.992154 
C 180.76492 146.992154 179.811007 147.387278 179.107781 148.090503 
C 178.404555 148.793729 178.009432 149.747642 178.009432 150.742154 
C 178.009432 151.736665 178.404555 152.690578 179.107781 153.393804 
C 179.811007 154.09703 180.76492 154.492154 181.759432 154.492154 
z
" style="fill:#1f77b4;stroke:#ffffff;stroke-width:0.525357;"/>
    <path clip-path="url(#pb793546cb5)" d="M 181.759432 139.846 
C 182.753943 139.846 183.707856 139.450876 184.411082 138.74765 
C 185.114308 138.044425 185.509432 137.090512 185.509432 136.096 
C 185.509432 135.101488 185.114308 134.147575 184.411082 133.44435 
C 183.707856 132.741124 182.753943 132.346 181.759432 132.346 
C 180.76492 132.346 179.811007 132.741124 179.107781 133.44435 
C 178.404555 134.147575 178.009432 135.101488 178.009432 136.096 
C 178.009432 137.090512 178.404555 138.044425 179.107781 138.74765 
C 179.811007 139.450876 180.76492 139.846 181.759432 139.846 
z
" style="fill:#ff7f0e;stroke:#ffffff;stroke-width:0.525357;"/>
    <path clip-path="url(#pb793546cb5)" d="M 181.759432 147.462 
C 182.753943 147.462 183.707856 147.066876 184.411082 146.36365 
C 185.114308 145.660425 185.509432 144.706512 185.509432 143.712 
C 185.509432 142.717488 185.114308 141.763575 184.411082 141.06035 
C 183.707856 140.357124 182.753943 139.962 181.759432 139.962 
C 180.76492 139.962 179.811007 140.357124 179.107781 141.06035 
C 178.404555 141.763575 178.009432 142.717488 178.009432 143.712 
C 178.009432 144.706512 178.404555 145.660425 179.107781 146.36365 
C 179.811007 147.066876 180.76492 147.462 181.759432 147.462 
z
" style="fill:#d62728;stroke:#ffffff;stroke-width:0.525357;"/>
    <path clip-path="url(#pb793546cb5)" d="M 222.34125 213.023129 
C 223.410318 213.023129 224.435743 212.598384 225.191689 211.842439 
C 225.947634 211.086493 226.372379 210.061068 226.372379 208.992 
C 226.372379 207.922932 225.947634 206.897507 225.191689 206.141561 
C 224.435743 205.385616 223.410318 204.960871 222.34125 204.960871 
C 221.272182 204.960871 220.246757 205.385616 219.490811 206.141561 
C 218.734866 206.897507 218.310121 207.922932 218.310121 208.992 
C 218.310121 210.061068 218.734866 211.086493 219.490811 211.842439 
C 220.246757 212.598384 221.272182 213.023129 222.34125 213.023129 
z
" style="fill:#2ca02c;stroke:#ffffff;stroke-width:0.525357;"/>
    <path clip-path="url(#pb793546cb5)" d="M 222.34125 175.916603 
C 223.410318 175.916603 224.435743 175.491857 225.191689 174.735912 
C 225.947634 173.979967 226.372379 172.954542 226.372379 171.885474 
C 226.372379 170.816406 225.947634 169.79098 225.191689 169.035035 
C 224.435743 168.27909 223.410318 167.854345 222.34125 167.854345 
C 221.272182 167.854345 220.246757 168.27909 219.490811 169.035035 
C 218.734866 169.79098 218.310121 170.816406 218.310121 171.885474 
C 218.310121 172.954542 218.734866 173.979967 219.490811 174.735912 
C 220.246757 175.491857 221.272182 175.916603 222.34125 175.916603 
z
" style="fill:#1f77b4;stroke:#ffffff;stroke-width:0.525357;"/>
    <path clip-path="url(#pb793546cb5)" d="M 222.34125 134.687129 
C 223.410318 134.687129 224.435743 134.262384 225.191689 133.506439 
C 225.947634 132.750493 226.372379 131.725068 226.372379 130.656 
C 226.372379 129.586932 225.947634 128.561507 225.191689 127.805561 
C 224.435743 127.049616 223.410318 126.624871 222.34125 126.624871 
C 221.272182 126.624871 220.246757 127.049616 219.490811 127.805561 
C 218.734866 128.561507 218.310121 129.586932 218.310121 130.656 
C 218.310121 131.725068 218.734866 132.750493 219.490811 133.506439 
C 220.246757 134.262384 221.272182 134.687129 222.34125 134.687129 
z
" style="fill:#ff7f0e;stroke:#ffffff;stroke-width:0.525357;"/>
    <path clip-path="url(#pb793546cb5)" d="M 222.34125 157.727129 
C 223.410318 157.727129 224.435743 157.302384 225.191689 156.546439 
C 225.947634 155.790493 226.372379 154.765068 226.372379 153.696 
C 226.372379 152.626932 225.947634 151.601507 225.191689 150.845561 
C 224.435743 150.089616 223.410318 149.664871 222.34125 149.664871 
C 221.272182 149.664871 220.246757 150.089616 219.490811 150.845561 
C 218.734866 151.601507 218.310121 152.626932 218.310121 153.696 
C 218.310121 154.765068 218.734866 155.790493 219.490811 156.546439 
C 220.246757 157.302384 221.272182 157.727129 222.34125 157.727129 
z
" style="fill:#d62728;stroke:#ffffff;stroke-width:0.525357;"/>
    <path clip-path="url(#pb793546cb5)" d="M 262.923068 202.244309 
C 264.071431 202.244309 265.172915 201.788059 265.98493 200.976044 
C 266.796946 200.164029 267.253195 199.062545 267.253195 197.914182 
C 267.253195 196.765819 266.796946 195.664335 265.98493 194.85232 
C 265.172915 194.040304 264.071431 193.584055 262.923068 193.584055 
C 261.774705 193.584055 260.673221 194.040304 259.861206 194.85232 
C 259.049191 195.664335 258.592941 196.765819 258.592941 197.914182 
C 258.592941 199.062545 259.049191 200.164029 259.861206 200.976044 
C 260.673221 201.788059 261.774705 202.244309 262.923068 202.244309 
z
" style="fill:#2ca02c;stroke:#ffffff;stroke-width:0.525357;"/>
    <path clip-path="url(#pb793546cb5)" d="M 262.923068 173.670571 
C 264.071431 173.670571 265.172915 173.214322 265.98493 172.402307 
C 266.796946 171.590291 267.253195 170.488808 267.253195 169.340444 
C 267.253195 168.192081 266.796946 167.090598 265.98493 166.278582 
C 265.172915 165.466567 264.071431 165.010317 262.923068 165.010317 
C 261.774705 165.010317 260.673221 165.466567 259.861206 166.278582 
C 259.049191 167.090598 258.592941 168.192081 258.592941 169.340444 
C 258.592941 170.488808 259.049191 171.590291 259.861206 172.402307 
C 260.673221 173.214322 261.774705 173.670571 262.923068 173.670571 
z
" style="fill:#1f77b4;stroke:#ffffff;stroke-width:0.525357;"/>
    <path clip-path="url(#pb793546cb5)" d="M 262.923068 107.499811 
C 264.071431 107.499811 265.172915 107.043562 265.98493 106.231546 
C 266.796946 105.419531 267.253195 104.318047 267.253195 103.169684 
C 267.253195 102.021321 266.796946 100.919837 265.98493 100.107822 
C 265.172915 99.295807 264.071431 98.839557 262.923068 98.839557 
C 261.774705 98.839557 260.673221 99.295807 259.861206 100.107822 
C 259.049191 100.919837 258.592941 102.021321 258.592941 103.169684 
C 258.592941 104.318047 259.049191 105.419531 259.861206 106.231546 
C 260.673221 107.043562 261.774705 107.499811 262.923068 107.499811 
z
" style="fill:#ff7f0e;stroke:#ffffff;stroke-width:0.525357;"/>
    <path clip-path="url(#pb793546cb5)" d="M 262.923068 146.33917 
C 264.071431 146.33917 265.172915 145.882921 265.98493 145.070906 
C 266.796946 144.25889 267.253195 143.157407 267.253195 142.009043 
C 267.253195 140.86068 266.796946 139.759197 265.98493 138.947181 
C 265.172915 138.135166 264.071431 137.678916 262.923068 137.678916 
C 261.774705 137.678916 260.673221 138.135166 259.861206 138.947181 
C 259.049191 139.759197 258.592941 140.86068 258.592941 142.009043 
C 258.592941 143.157407 259.049191 144.25889 259.861206 145.070906 
C 260.673221 145.882921 261.774705 146.33917 262.923068 146.33917 
z
" style="fill:#d62728;stroke:#ffffff;stroke-width:0.525357;"/>
    <path clip-path="url(#pb793546cb5)" d="M 303.504886 207.93275 
C 304.762855 207.93275 305.96947 207.432954 306.858988 206.543435 
C 307.748507 205.653917 308.248303 204.447302 308.248303 203.189333 
C 308.248303 201.931365 307.748507 200.72475 306.858988 199.835231 
C 305.96947 198.945713 304.762855 198.445917 303.504886 198.445917 
C 302.246918 198.445917 301.040303 198.945713 300.150784 199.835231 
C 299.261266 200.72475 298.76147 201.931365 298.76147 203.189333 
C 298.76147 204.447302 299.261266 205.653917 300.150784 206.543435 
C 301.040303 207.432954 302.246918 207.93275 303.504886 207.93275 
z
" style="fill:#2ca02c;stroke:#ffffff;stroke-width:0.525357;"/>
    <path clip-path="url(#pb793546cb5)" d="M 303.504886 188.962493 
C 304.762855 188.962493 305.96947 188.462697 306.858988 187.573179 
C 307.748507 186.683661 308.248303 185.477046 308.248303 184.219077 
C 308.248303 182.961108 307.748507 181.754493 306.858988 180.864975 
C 305.96947 179.975457 304.762855 179.47566 303.504886 179.47566 
C 302.246918 179.47566 301.040303 179.975457 300.150784 180.864975 
C 299.261266 181.754493 298.76147 182.961108 298.76147 184.219077 
C 298.76147 185.477046 299.261266 186.683661 300.150784 187.573179 
C 301.040303 188.462697 302.246918 188.962493 303.504886 188.962493 
z
" style="fill:#1f77b4;stroke:#ffffff;stroke-width:0.525357;"/>
    <path clip-path="url(#pb793546cb5)" d="M 303.504886 89.987243 
C 304.762855 89.987243 305.96947 89.487446 306.858988 88.597928 
C 307.748507 87.70841 308.248303 86.501795 308.248303 85.243826 
C 308.248303 83.985857 307.748507 82.779242 306.858988 81.889724 
C 305.96947 81.000206 304.762855 80.50041 303.504886 80.50041 
C 302.246918 80.50041 301.040303 81.000206 300.150784 81.889724 
C 299.261266 82.779242 298.76147 83.985857 298.76147 85.243826 
C 298.76147 86.501795 299.261266 87.70841 300.150784 88.597928 
C 301.040303 89.487446 302.246918 89.987243 303.504886 89.987243 
z
" style="fill:#ff7f0e;stroke:#ffffff;stroke-width:0.525357;"/>
    <path clip-path="url(#pb793546cb5)" d="M 303.504886 152.245868 
C 304.762855 152.245868 305.96947 151.746072 306.858988 150.856554 
C 307.748507 149.967035 308.248303 148.76042 308.248303 147.502452 
C 308.248303 146.244483 307.748507 145.037868 306.858988 144.14835 
C 305.96947 143.258831 304.762855 142.759035 303.504886 142.759035 
C 302.246918 142.759035 301.040303 143.258831 300.150784 144.14835 
C 299.261266 145.037868 298.76147 146.244483 298.76147 147.502452 
C 298.76147 148.76042 299.261266 149.967035 300.150784 150.856554 
C 301.040303 151.746072 302.246918 152.245868 303.504886 152.245868 
z
" style="fill:#d62728;stroke:#ffffff;stroke-width:0.525357;"/>
   </g>
   <g id="PathCollection_2"/>
   <g id="PathCollection_3"/>
   <g id="PathCollection_4"/>
   <g id="PathCollection_5"/>
   <g id="PathCollection_6"/>
   <g id="PathCollection_7"/>
   <g id="PathCollection_8"/>
   <g id="PathCollection_9"/>
   <g id="PathCollection_10"/>
   <g id="PathCollection_11"/>
   <g id="matplotlib.axis_1">
    <g id="xtick_1">
     <g id="line2d_1">
      <defs>
       <path d="M 0 0 
L 0 3.5 
" id="m3ff0ab029a" style="stroke:#000000;stroke-width:0.8;"/>
      </defs>
      <g>
       <use style="stroke:#000000;stroke-width:0.8;" x="60.013977" xlink:href="#m3ff0ab029a" y="273.312"/>
      </g>
     </g>
     <g id="text_1">
      <!-- 20 -->
      <g transform="translate(53.651477 287.910437)scale(0.1 -0.1)">
       <defs>
        <path d="M 19.1875 8.296875 
L 53.609375 8.296875 
L 53.609375 0 
L 7.328125 0 
L 7.328125 8.296875 
Q 12.9375 14.109375 22.625 23.890625 
Q 32.328125 33.6875 34.8125 36.53125 
Q 39.546875 41.84375 41.421875 45.53125 
Q 43.3125 49.21875 43.3125 52.78125 
Q 43.3125 58.59375 39.234375 62.25 
Q 35.15625 65.921875 28.609375 65.921875 
Q 23.96875 65.921875 18.8125 64.3125 
Q 13.671875 62.703125 7.8125 59.421875 
L 7.8125 69.390625 
Q 13.765625 71.78125 18.9375 73 
Q 24.125 74.21875 28.421875 74.21875 
Q 39.75 74.21875 46.484375 68.546875 
Q 53.21875 62.890625 53.21875 53.421875 
Q 53.21875 48.921875 51.53125 44.890625 
Q 49.859375 40.875 45.40625 35.40625 
Q 44.1875 33.984375 37.640625 27.21875 
Q 31.109375 20.453125 19.1875 8.296875 
z
" id="DejaVuSans-50"/>
        <path d="M 31.78125 66.40625 
Q 24.171875 66.40625 20.328125 58.90625 
Q 16.5 51.421875 16.5 36.375 
Q 16.5 21.390625 20.328125 13.890625 
Q 24.171875 6.390625 31.78125 6.390625 
Q 39.453125 6.390625 43.28125 13.890625 
Q 47.125 21.390625 47.125 36.375 
Q 47.125 51.421875 43.28125 58.90625 
Q 39.453125 66.40625 31.78125 66.40625 
z
M 31.78125 74.21875 
Q 44.046875 74.21875 50.515625 64.515625 
Q 56.984375 54.828125 56.984375 36.375 
Q 56.984375 17.96875 50.515625 8.265625 
Q 44.046875 -1.421875 31.78125 -1.421875 
Q 19.53125 -1.421875 13.0625 8.265625 
Q 6.59375 17.96875 6.59375 36.375 
Q 6.59375 54.828125 13.0625 64.515625 
Q 19.53125 74.21875 31.78125 74.21875 
z
" id="DejaVuSans-48"/>
       </defs>
       <use xlink:href="#DejaVuSans-50"/>
       <use x="63.623047" xlink:href="#DejaVuSans-48"/>
      </g>
     </g>
    </g>
    <g id="xtick_2">
     <g id="line2d_2">
      <g>
       <use style="stroke:#000000;stroke-width:0.8;" x="100.595795" xlink:href="#m3ff0ab029a" y="273.312"/>
      </g>
     </g>
     <g id="text_2">
      <!-- 30 -->
      <g transform="translate(94.233295 287.910437)scale(0.1 -0.1)">
       <defs>
        <path d="M 40.578125 39.3125 
Q 47.65625 37.796875 51.625 33 
Q 55.609375 28.21875 55.609375 21.1875 
Q 55.609375 10.40625 48.1875 4.484375 
Q 40.765625 -1.421875 27.09375 -1.421875 
Q 22.515625 -1.421875 17.65625 -0.515625 
Q 12.796875 0.390625 7.625 2.203125 
L 7.625 11.71875 
Q 11.71875 9.328125 16.59375 8.109375 
Q 21.484375 6.890625 26.8125 6.890625 
Q 36.078125 6.890625 40.9375 10.546875 
Q 45.796875 14.203125 45.796875 21.1875 
Q 45.796875 27.640625 41.28125 31.265625 
Q 36.765625 34.90625 28.71875 34.90625 
L 20.21875 34.90625 
L 20.21875 43.015625 
L 29.109375 43.015625 
Q 36.375 43.015625 40.234375 45.921875 
Q 44.09375 48.828125 44.09375 54.296875 
Q 44.09375 59.90625 40.109375 62.90625 
Q 36.140625 65.921875 28.71875 65.921875 
Q 24.65625 65.921875 20.015625 65.03125 
Q 15.375 64.15625 9.8125 62.3125 
L 9.8125 71.09375 
Q 15.4375 72.65625 20.34375 73.4375 
Q 25.25 74.21875 29.59375 74.21875 
Q 40.828125 74.21875 47.359375 69.109375 
Q 53.90625 64.015625 53.90625 55.328125 
Q 53.90625 49.265625 50.4375 45.09375 
Q 46.96875 40.921875 40.578125 39.3125 
z
" id="DejaVuSans-51"/>
       </defs>
       <use xlink:href="#DejaVuSans-51"/>
       <use x="63.623047" xlink:href="#DejaVuSans-48"/>
      </g>
     </g>
    </g>
    <g id="xtick_3">
     <g id="line2d_3">
      <g>
       <use style="stroke:#000000;stroke-width:0.8;" x="141.177614" xlink:href="#m3ff0ab029a" y="273.312"/>
      </g>
     </g>
     <g id="text_3">
      <!-- 40 -->
      <g transform="translate(134.815114 287.910437)scale(0.1 -0.1)">
       <defs>
        <path d="M 37.796875 64.3125 
L 12.890625 25.390625 
L 37.796875 25.390625 
z
M 35.203125 72.90625 
L 47.609375 72.90625 
L 47.609375 25.390625 
L 58.015625 25.390625 
L 58.015625 17.1875 
L 47.609375 17.1875 
L 47.609375 0 
L 37.796875 0 
L 37.796875 17.1875 
L 4.890625 17.1875 
L 4.890625 26.703125 
z
" id="DejaVuSans-52"/>
       </defs>
       <use xlink:href="#DejaVuSans-52"/>
       <use x="63.623047" xlink:href="#DejaVuSans-48"/>
      </g>
     </g>
    </g>
    <g id="xtick_4">
     <g id="line2d_4">
      <g>
       <use style="stroke:#000000;stroke-width:0.8;" x="181.759432" xlink:href="#m3ff0ab029a" y="273.312"/>
      </g>
     </g>
     <g id="text_4">
      <!-- 50 -->
      <g transform="translate(175.396932 287.910437)scale(0.1 -0.1)">
       <defs>
        <path d="M 10.796875 72.90625 
L 49.515625 72.90625 
L 49.515625 64.59375 
L 19.828125 64.59375 
L 19.828125 46.734375 
Q 21.96875 47.46875 24.109375 47.828125 
Q 26.265625 48.1875 28.421875 48.1875 
Q 40.625 48.1875 47.75 41.5 
Q 54.890625 34.8125 54.890625 23.390625 
Q 54.890625 11.625 47.5625 5.09375 
Q 40.234375 -1.421875 26.90625 -1.421875 
Q 22.3125 -1.421875 17.546875 -0.640625 
Q 12.796875 0.140625 7.71875 1.703125 
L 7.71875 11.625 
Q 12.109375 9.234375 16.796875 8.0625 
Q 21.484375 6.890625 26.703125 6.890625 
Q 35.15625 6.890625 40.078125 11.328125 
Q 45.015625 15.765625 45.015625 23.390625 
Q 45.015625 31 40.078125 35.4375 
Q 35.15625 39.890625 26.703125 39.890625 
Q 22.75 39.890625 18.8125 39.015625 
Q 14.890625 38.140625 10.796875 36.28125 
z
" id="DejaVuSans-53"/>
       </defs>
       <use xlink:href="#DejaVuSans-53"/>
       <use x="63.623047" xlink:href="#DejaVuSans-48"/>
      </g>
     </g>
    </g>
    <g id="xtick_5">
     <g id="line2d_5">
      <g>
       <use style="stroke:#000000;stroke-width:0.8;" x="222.34125" xlink:href="#m3ff0ab029a" y="273.312"/>
      </g>
     </g>
     <g id="text_5">
      <!-- 70 -->
      <g transform="translate(215.97875 287.910437)scale(0.1 -0.1)">
       <defs>
        <path d="M 8.203125 72.90625 
L 55.078125 72.90625 
L 55.078125 68.703125 
L 28.609375 0 
L 18.3125 0 
L 43.21875 64.59375 
L 8.203125 64.59375 
z
" id="DejaVuSans-55"/>
       </defs>
       <use xlink:href="#DejaVuSans-55"/>
       <use x="63.623047" xlink:href="#DejaVuSans-48"/>
      </g>
     </g>
    </g>
    <g id="xtick_6">
     <g id="line2d_6">
      <g>
       <use style="stroke:#000000;stroke-width:0.8;" x="262.923068" xlink:href="#m3ff0ab029a" y="273.312"/>
      </g>
     </g>
     <g id="text_6">
      <!-- 100 -->
      <g transform="translate(253.379318 287.910437)scale(0.1 -0.1)">
       <defs>
        <path d="M 12.40625 8.296875 
L 28.515625 8.296875 
L 28.515625 63.921875 
L 10.984375 60.40625 
L 10.984375 69.390625 
L 28.421875 72.90625 
L 38.28125 72.90625 
L 38.28125 8.296875 
L 54.390625 8.296875 
L 54.390625 0 
L 12.40625 0 
z
" id="DejaVuSans-49"/>
       </defs>
       <use xlink:href="#DejaVuSans-49"/>
       <use x="63.623047" xlink:href="#DejaVuSans-48"/>
       <use x="127.246094" xlink:href="#DejaVuSans-48"/>
      </g>
     </g>
    </g>
    <g id="xtick_7">
     <g id="line2d_7">
      <g>
       <use style="stroke:#000000;stroke-width:0.8;" x="303.504886" xlink:href="#m3ff0ab029a" y="273.312"/>
      </g>
     </g>
     <g id="text_7">
      <!-- 150 -->
      <g transform="translate(293.961136 287.910437)scale(0.1 -0.1)">
       <use xlink:href="#DejaVuSans-49"/>
       <use x="63.623047" xlink:href="#DejaVuSans-53"/>
       <use x="127.246094" xlink:href="#DejaVuSans-48"/>
      </g>
     </g>
    </g>
    <g id="xtick_8">
     <g id="line2d_8">
      <g>
       <use style="stroke:#000000;stroke-width:0.8;" x="344.086705" xlink:href="#m3ff0ab029a" y="273.312"/>
      </g>
     </g>
     <g id="text_8">
      <!-- 200 -->
      <g transform="translate(334.542955 287.910437)scale(0.1 -0.1)">
       <use xlink:href="#DejaVuSans-50"/>
       <use x="63.623047" xlink:href="#DejaVuSans-48"/>
       <use x="127.246094" xlink:href="#DejaVuSans-48"/>
      </g>
     </g>
    </g>
    <g id="xtick_9">
     <g id="line2d_9">
      <g>
       <use style="stroke:#000000;stroke-width:0.8;" x="384.668523" xlink:href="#m3ff0ab029a" y="273.312"/>
      </g>
     </g>
     <g id="text_9">
      <!-- 200&lt; -->
      <g transform="translate(370.934929 287.910437)scale(0.1 -0.1)">
       <defs>
        <path d="M 73.1875 49.21875 
L 22.796875 31.296875 
L 73.1875 13.484375 
L 73.1875 4.59375 
L 10.59375 27.296875 
L 10.59375 35.40625 
L 73.1875 58.109375 
z
" id="DejaVuSans-60"/>
       </defs>
       <use xlink:href="#DejaVuSans-50"/>
       <use x="63.623047" xlink:href="#DejaVuSans-48"/>
       <use x="127.246094" xlink:href="#DejaVuSans-48"/>
       <use x="190.869141" xlink:href="#DejaVuSans-60"/>
      </g>
     </g>
    </g>
    <g id="text_10">
     <!-- nrows -->
     <g transform="translate(207.476406 301.588562)scale(0.1 -0.1)">
      <defs>
       <path d="M 54.890625 33.015625 
L 54.890625 0 
L 45.90625 0 
L 45.90625 32.71875 
Q 45.90625 40.484375 42.875 44.328125 
Q 39.84375 48.1875 33.796875 48.1875 
Q 26.515625 48.1875 22.3125 43.546875 
Q 18.109375 38.921875 18.109375 30.90625 
L 18.109375 0 
L 9.078125 0 
L 9.078125 54.6875 
L 18.109375 54.6875 
L 18.109375 46.1875 
Q 21.34375 51.125 25.703125 53.5625 
Q 30.078125 56 35.796875 56 
Q 45.21875 56 50.046875 50.171875 
Q 54.890625 44.34375 54.890625 33.015625 
z
" id="DejaVuSans-110"/>
       <path d="M 41.109375 46.296875 
Q 39.59375 47.171875 37.8125 47.578125 
Q 36.03125 48 33.890625 48 
Q 26.265625 48 22.1875 43.046875 
Q 18.109375 38.09375 18.109375 28.8125 
L 18.109375 0 
L 9.078125 0 
L 9.078125 54.6875 
L 18.109375 54.6875 
L 18.109375 46.1875 
Q 20.953125 51.171875 25.484375 53.578125 
Q 30.03125 56 36.53125 56 
Q 37.453125 56 38.578125 55.875 
Q 39.703125 55.765625 41.0625 55.515625 
z
" id="DejaVuSans-114"/>
       <path d="M 30.609375 48.390625 
Q 23.390625 48.390625 19.1875 42.75 
Q 14.984375 37.109375 14.984375 27.296875 
Q 14.984375 17.484375 19.15625 11.84375 
Q 23.34375 6.203125 30.609375 6.203125 
Q 37.796875 6.203125 41.984375 11.859375 
Q 46.1875 17.53125 46.1875 27.296875 
Q 46.1875 37.015625 41.984375 42.703125 
Q 37.796875 48.390625 30.609375 48.390625 
z
M 30.609375 56 
Q 42.328125 56 49.015625 48.375 
Q 55.71875 40.765625 55.71875 27.296875 
Q 55.71875 13.875 49.015625 6.21875 
Q 42.328125 -1.421875 30.609375 -1.421875 
Q 18.84375 -1.421875 12.171875 6.21875 
Q 5.515625 13.875 5.515625 27.296875 
Q 5.515625 40.765625 12.171875 48.375 
Q 18.84375 56 30.609375 56 
z
" id="DejaVuSans-111"/>
       <path d="M 4.203125 54.6875 
L 13.1875 54.6875 
L 24.421875 12.015625 
L 35.59375 54.6875 
L 46.1875 54.6875 
L 57.421875 12.015625 
L 68.609375 54.6875 
L 77.59375 54.6875 
L 63.28125 0 
L 52.6875 0 
L 40.921875 44.828125 
L 29.109375 0 
L 18.5 0 
z
" id="DejaVuSans-119"/>
       <path d="M 44.28125 53.078125 
L 44.28125 44.578125 
Q 40.484375 46.53125 36.375 47.5 
Q 32.28125 48.484375 27.875 48.484375 
Q 21.1875 48.484375 17.84375 46.4375 
Q 14.5 44.390625 14.5 40.28125 
Q 14.5 37.15625 16.890625 35.375 
Q 19.28125 33.59375 26.515625 31.984375 
L 29.59375 31.296875 
Q 39.15625 29.25 43.1875 25.515625 
Q 47.21875 21.78125 47.21875 15.09375 
Q 47.21875 7.46875 41.1875 3.015625 
Q 35.15625 -1.421875 24.609375 -1.421875 
Q 20.21875 -1.421875 15.453125 -0.5625 
Q 10.6875 0.296875 5.421875 2 
L 5.421875 11.28125 
Q 10.40625 8.6875 15.234375 7.390625 
Q 20.0625 6.109375 24.8125 6.109375 
Q 31.15625 6.109375 34.5625 8.28125 
Q 37.984375 10.453125 37.984375 14.40625 
Q 37.984375 18.0625 35.515625 20.015625 
Q 33.0625 21.96875 24.703125 23.78125 
L 21.578125 24.515625 
Q 13.234375 26.265625 9.515625 29.90625 
Q 5.8125 33.546875 5.8125 39.890625 
Q 5.8125 47.609375 11.28125 51.796875 
Q 16.75 56 26.8125 56 
Q 31.78125 56 36.171875 55.265625 
Q 40.578125 54.546875 44.28125 53.078125 
z
" id="DejaVuSans-115"/>
      </defs>
      <use xlink:href="#DejaVuSans-110"/>
      <use x="63.378906" xlink:href="#DejaVuSans-114"/>
      <use x="102.242188" xlink:href="#DejaVuSans-111"/>
      <use x="163.423828" xlink:href="#DejaVuSans-119"/>
      <use x="245.210938" xlink:href="#DejaVuSans-115"/>
     </g>
    </g>
   </g>
   <g id="matplotlib.axis_2">
    <g id="ytick_1">
     <g id="line2d_10">
      <defs>
       <path d="M 0 0 
L -3.5 0 
" id="maa1f1118ad" style="stroke:#000000;stroke-width:0.8;"/>
      </defs>
      <g>
       <use style="stroke:#000000;stroke-width:0.8;" x="43.78125" xlink:href="#maa1f1118ad" y="261.216"/>
      </g>
     </g>
     <g id="text_11">
      <!-- 0.2 -->
      <g transform="translate(20.878125 265.015219)scale(0.1 -0.1)">
       <defs>
        <path d="M 10.6875 12.40625 
L 21 12.40625 
L 21 0 
L 10.6875 0 
z
" id="DejaVuSans-46"/>
       </defs>
       <use xlink:href="#DejaVuSans-48"/>
       <use x="63.623047" xlink:href="#DejaVuSans-46"/>
       <use x="95.410156" xlink:href="#DejaVuSans-50"/>
      </g>
     </g>
    </g>
    <g id="ytick_2">
     <g id="line2d_11">
      <g>
       <use style="stroke:#000000;stroke-width:0.8;" x="43.78125" xlink:href="#maa1f1118ad" y="228.576"/>
      </g>
     </g>
     <g id="text_12">
      <!-- 0.3 -->
      <g transform="translate(20.878125 232.375219)scale(0.1 -0.1)">
       <use xlink:href="#DejaVuSans-48"/>
       <use x="63.623047" xlink:href="#DejaVuSans-46"/>
       <use x="95.410156" xlink:href="#DejaVuSans-51"/>
      </g>
     </g>
    </g>
    <g id="ytick_3">
     <g id="line2d_12">
      <g>
       <use style="stroke:#000000;stroke-width:0.8;" x="43.78125" xlink:href="#maa1f1118ad" y="195.936"/>
      </g>
     </g>
     <g id="text_13">
      <!-- 0.4 -->
      <g transform="translate(20.878125 199.735219)scale(0.1 -0.1)">
       <use xlink:href="#DejaVuSans-48"/>
       <use x="63.623047" xlink:href="#DejaVuSans-46"/>
       <use x="95.410156" xlink:href="#DejaVuSans-52"/>
      </g>
     </g>
    </g>
    <g id="ytick_4">
     <g id="line2d_13">
      <g>
       <use style="stroke:#000000;stroke-width:0.8;" x="43.78125" xlink:href="#maa1f1118ad" y="163.296"/>
      </g>
     </g>
     <g id="text_14">
      <!-- 0.5 -->
      <g transform="translate(20.878125 167.095219)scale(0.1 -0.1)">
       <use xlink:href="#DejaVuSans-48"/>
       <use x="63.623047" xlink:href="#DejaVuSans-46"/>
       <use x="95.410156" xlink:href="#DejaVuSans-53"/>
      </g>
     </g>
    </g>
    <g id="ytick_5">
     <g id="line2d_14">
      <g>
       <use style="stroke:#000000;stroke-width:0.8;" x="43.78125" xlink:href="#maa1f1118ad" y="130.656"/>
      </g>
     </g>
     <g id="text_15">
      <!-- 0.6 -->
      <g transform="translate(20.878125 134.455219)scale(0.1 -0.1)">
       <defs>
        <path d="M 33.015625 40.375 
Q 26.375 40.375 22.484375 35.828125 
Q 18.609375 31.296875 18.609375 23.390625 
Q 18.609375 15.53125 22.484375 10.953125 
Q 26.375 6.390625 33.015625 6.390625 
Q 39.65625 6.390625 43.53125 10.953125 
Q 47.40625 15.53125 47.40625 23.390625 
Q 47.40625 31.296875 43.53125 35.828125 
Q 39.65625 40.375 33.015625 40.375 
z
M 52.59375 71.296875 
L 52.59375 62.3125 
Q 48.875 64.0625 45.09375 64.984375 
Q 41.3125 65.921875 37.59375 65.921875 
Q 27.828125 65.921875 22.671875 59.328125 
Q 17.53125 52.734375 16.796875 39.40625 
Q 19.671875 43.65625 24.015625 45.921875 
Q 28.375 48.1875 33.59375 48.1875 
Q 44.578125 48.1875 50.953125 41.515625 
Q 57.328125 34.859375 57.328125 23.390625 
Q 57.328125 12.15625 50.6875 5.359375 
Q 44.046875 -1.421875 33.015625 -1.421875 
Q 20.359375 -1.421875 13.671875 8.265625 
Q 6.984375 17.96875 6.984375 36.375 
Q 6.984375 53.65625 15.1875 63.9375 
Q 23.390625 74.21875 37.203125 74.21875 
Q 40.921875 74.21875 44.703125 73.484375 
Q 48.484375 72.75 52.59375 71.296875 
z
" id="DejaVuSans-54"/>
       </defs>
       <use xlink:href="#DejaVuSans-48"/>
       <use x="63.623047" xlink:href="#DejaVuSans-46"/>
       <use x="95.410156" xlink:href="#DejaVuSans-54"/>
      </g>
     </g>
    </g>
    <g id="ytick_6">
     <g id="line2d_15">
      <g>
       <use style="stroke:#000000;stroke-width:0.8;" x="43.78125" xlink:href="#maa1f1118ad" y="98.016"/>
      </g>
     </g>
     <g id="text_16">
      <!-- 0.7 -->
      <g transform="translate(20.878125 101.815219)scale(0.1 -0.1)">
       <use xlink:href="#DejaVuSans-48"/>
       <use x="63.623047" xlink:href="#DejaVuSans-46"/>
       <use x="95.410156" xlink:href="#DejaVuSans-55"/>
      </g>
     </g>
    </g>
    <g id="ytick_7">
     <g id="line2d_16">
      <g>
       <use style="stroke:#000000;stroke-width:0.8;" x="43.78125" xlink:href="#maa1f1118ad" y="65.376"/>
      </g>
     </g>
     <g id="text_17">
      <!-- 0.8 -->
      <g transform="translate(20.878125 69.175219)scale(0.1 -0.1)">
       <defs>
        <path d="M 31.78125 34.625 
Q 24.75 34.625 20.71875 30.859375 
Q 16.703125 27.09375 16.703125 20.515625 
Q 16.703125 13.921875 20.71875 10.15625 
Q 24.75 6.390625 31.78125 6.390625 
Q 38.8125 6.390625 42.859375 10.171875 
Q 46.921875 13.96875 46.921875 20.515625 
Q 46.921875 27.09375 42.890625 30.859375 
Q 38.875 34.625 31.78125 34.625 
z
M 21.921875 38.8125 
Q 15.578125 40.375 12.03125 44.71875 
Q 8.5 49.078125 8.5 55.328125 
Q 8.5 64.0625 14.71875 69.140625 
Q 20.953125 74.21875 31.78125 74.21875 
Q 42.671875 74.21875 48.875 69.140625 
Q 55.078125 64.0625 55.078125 55.328125 
Q 55.078125 49.078125 51.53125 44.71875 
Q 48 40.375 41.703125 38.8125 
Q 48.828125 37.15625 52.796875 32.3125 
Q 56.78125 27.484375 56.78125 20.515625 
Q 56.78125 9.90625 50.3125 4.234375 
Q 43.84375 -1.421875 31.78125 -1.421875 
Q 19.734375 -1.421875 13.25 4.234375 
Q 6.78125 9.90625 6.78125 20.515625 
Q 6.78125 27.484375 10.78125 32.3125 
Q 14.796875 37.15625 21.921875 38.8125 
z
M 18.3125 54.390625 
Q 18.3125 48.734375 21.84375 45.5625 
Q 25.390625 42.390625 31.78125 42.390625 
Q 38.140625 42.390625 41.71875 45.5625 
Q 45.3125 48.734375 45.3125 54.390625 
Q 45.3125 60.0625 41.71875 63.234375 
Q 38.140625 66.40625 31.78125 66.40625 
Q 25.390625 66.40625 21.84375 63.234375 
Q 18.3125 60.0625 18.3125 54.390625 
z
" id="DejaVuSans-56"/>
       </defs>
       <use xlink:href="#DejaVuSans-48"/>
       <use x="63.623047" xlink:href="#DejaVuSans-46"/>
       <use x="95.410156" xlink:href="#DejaVuSans-56"/>
      </g>
     </g>
    </g>
    <g id="ytick_8">
     <g id="line2d_17">
      <g>
       <use style="stroke:#000000;stroke-width:0.8;" x="43.78125" xlink:href="#maa1f1118ad" y="32.736"/>
      </g>
     </g>
     <g id="text_18">
      <!-- 0.9 -->
      <g transform="translate(20.878125 36.535219)scale(0.1 -0.1)">
       <defs>
        <path d="M 10.984375 1.515625 
L 10.984375 10.5 
Q 14.703125 8.734375 18.5 7.8125 
Q 22.3125 6.890625 25.984375 6.890625 
Q 35.75 6.890625 40.890625 13.453125 
Q 46.046875 20.015625 46.78125 33.40625 
Q 43.953125 29.203125 39.59375 26.953125 
Q 35.25 24.703125 29.984375 24.703125 
Q 19.046875 24.703125 12.671875 31.3125 
Q 6.296875 37.9375 6.296875 49.421875 
Q 6.296875 60.640625 12.9375 67.421875 
Q 19.578125 74.21875 30.609375 74.21875 
Q 43.265625 74.21875 49.921875 64.515625 
Q 56.59375 54.828125 56.59375 36.375 
Q 56.59375 19.140625 48.40625 8.859375 
Q 40.234375 -1.421875 26.421875 -1.421875 
Q 22.703125 -1.421875 18.890625 -0.6875 
Q 15.09375 0.046875 10.984375 1.515625 
z
M 30.609375 32.421875 
Q 37.25 32.421875 41.125 36.953125 
Q 45.015625 41.5 45.015625 49.421875 
Q 45.015625 57.28125 41.125 61.84375 
Q 37.25 66.40625 30.609375 66.40625 
Q 23.96875 66.40625 20.09375 61.84375 
Q 16.21875 57.28125 16.21875 49.421875 
Q 16.21875 41.5 20.09375 36.953125 
Q 23.96875 32.421875 30.609375 32.421875 
z
" id="DejaVuSans-57"/>
       </defs>
       <use xlink:href="#DejaVuSans-48"/>
       <use x="63.623047" xlink:href="#DejaVuSans-46"/>
       <use x="95.410156" xlink:href="#DejaVuSans-57"/>
      </g>
     </g>
    </g>
    <g id="text_19">
     <!-- score -->
     <g transform="translate(14.798438 153.688812)rotate(-90)scale(0.1 -0.1)">
      <defs>
       <path d="M 48.78125 52.59375 
L 48.78125 44.1875 
Q 44.96875 46.296875 41.140625 47.34375 
Q 37.3125 48.390625 33.40625 48.390625 
Q 24.65625 48.390625 19.8125 42.84375 
Q 14.984375 37.3125 14.984375 27.296875 
Q 14.984375 17.28125 19.8125 11.734375 
Q 24.65625 6.203125 33.40625 6.203125 
Q 37.3125 6.203125 41.140625 7.25 
Q 44.96875 8.296875 48.78125 10.40625 
L 48.78125 2.09375 
Q 45.015625 0.34375 40.984375 -0.53125 
Q 36.96875 -1.421875 32.421875 -1.421875 
Q 20.0625 -1.421875 12.78125 6.34375 
Q 5.515625 14.109375 5.515625 27.296875 
Q 5.515625 40.671875 12.859375 48.328125 
Q 20.21875 56 33.015625 56 
Q 37.15625 56 41.109375 55.140625 
Q 45.0625 54.296875 48.78125 52.59375 
z
" id="DejaVuSans-99"/>
       <path d="M 56.203125 29.59375 
L 56.203125 25.203125 
L 14.890625 25.203125 
Q 15.484375 15.921875 20.484375 11.0625 
Q 25.484375 6.203125 34.421875 6.203125 
Q 39.59375 6.203125 44.453125 7.46875 
Q 49.3125 8.734375 54.109375 11.28125 
L 54.109375 2.78125 
Q 49.265625 0.734375 44.1875 -0.34375 
Q 39.109375 -1.421875 33.890625 -1.421875 
Q 20.796875 -1.421875 13.15625 6.1875 
Q 5.515625 13.8125 5.515625 26.8125 
Q 5.515625 40.234375 12.765625 48.109375 
Q 20.015625 56 32.328125 56 
Q 43.359375 56 49.78125 48.890625 
Q 56.203125 41.796875 56.203125 29.59375 
z
M 47.21875 32.234375 
Q 47.125 39.59375 43.09375 43.984375 
Q 39.0625 48.390625 32.421875 48.390625 
Q 24.90625 48.390625 20.390625 44.140625 
Q 15.875 39.890625 15.1875 32.171875 
z
" id="DejaVuSans-101"/>
      </defs>
      <use xlink:href="#DejaVuSans-115"/>
      <use x="52.099609" xlink:href="#DejaVuSans-99"/>
      <use x="107.080078" xlink:href="#DejaVuSans-111"/>
      <use x="168.261719" xlink:href="#DejaVuSans-114"/>
      <use x="207.125" xlink:href="#DejaVuSans-101"/>
     </g>
    </g>
   </g>
   <g id="line2d_18">
    <path clip-path="url(#pb793546cb5)" d="M 60.013977 217.696 
L 100.595795 163.296 
L 141.177614 181.429333 
L 181.759432 150.742154 
L 222.34125 171.885474 
L 262.923068 169.340444 
L 303.504886 184.219077 
L 344.086705 173.713021 
L 384.668523 146.413241 
" style="fill:none;stroke:#1f77b4;stroke-dasharray:3.7,1.6;stroke-dashoffset:0;"/>
   </g>
   <g id="line2d_19">
    <path clip-path="url(#pb793546cb5)" d="M 60.013977 217.696 
L 100.595795 186.610286 
L 141.177614 163.296 
L 181.759432 136.096 
L 222.34125 130.656 
L 262.923068 103.169684 
L 303.504886 85.243826 
L 344.086705 70.038857 
L 384.668523 19.296 
" style="fill:none;stroke:#ff7f0e;stroke-dasharray:1,1.65;stroke-dashoffset:0;"/>
   </g>
   <g id="line2d_20">
    <path clip-path="url(#pb793546cb5)" d="M 60.013977 261.216 
L 100.595795 228.576 
L 141.177614 226.065231 
L 181.759432 199.562667 
L 222.34125 208.992 
L 262.923068 197.914182 
L 303.504886 203.189333 
L 344.086705 191.009208 
L 384.668523 152.416 
" style="fill:none;stroke:#2ca02c;stroke-dasharray:6.4,1.6,1,1.6;stroke-dashoffset:0;"/>
   </g>
   <g id="line2d_21">
    <path clip-path="url(#pb793546cb5)" d="M 60.013977 217.696 
L 100.595795 175.849846 
L 141.177614 172.896 
L 181.759432 143.712 
L 222.34125 153.696 
L 262.923068 142.009043 
L 303.504886 147.502452 
L 344.086705 135.008 
L 384.668523 99.43513 
" style="fill:none;stroke:#d62728;stroke-linecap:square;"/>
   </g>
   <g id="patch_3">
    <path d="M 43.78125 273.312 
L 43.78125 7.2 
" style="fill:none;stroke:#000000;stroke-linecap:square;stroke-linejoin:miter;stroke-width:0.8;"/>
   </g>
   <g id="patch_4">
    <path d="M 400.90125 273.312 
L 400.90125 7.2 
" style="fill:none;stroke:#000000;stroke-linecap:square;stroke-linejoin:miter;stroke-width:0.8;"/>
   </g>
   <g id="patch_5">
    <path d="M 43.78125 273.312 
L 400.90125 273.312 
" style="fill:none;stroke:#000000;stroke-linecap:square;stroke-linejoin:miter;stroke-width:0.8;"/>
   </g>
   <g id="patch_6">
    <path d="M 43.78125 7.2 
L 400.90125 7.2 
" style="fill:none;stroke:#000000;stroke-linecap:square;stroke-linejoin:miter;stroke-width:0.8;"/>
   </g>
   <g id="legend_1">
    <g id="patch_7">
     <path d="M 48.63925 134.991425 
L 102.159662 134.991425 
Q 103.547663 134.991425 103.547663 133.603425 
L 103.547663 12.058 
Q 103.547663 10.67 102.159662 10.67 
L 48.63925 10.67 
Q 47.25125 10.67 47.25125 12.058 
L 47.25125 133.603425 
Q 47.25125 134.991425 48.63925 134.991425 
z
" style="fill:#ffffff;opacity:0.8;stroke:#cccccc;stroke-linejoin:miter;"/>
    </g>
    <g id="text_20">
     <!-- metric -->
     <g transform="translate(69.45925 18.719316)scale(0.0694 -0.0694)">
      <defs>
       <path d="M 52 44.1875 
Q 55.375 50.25 60.0625 53.125 
Q 64.75 56 71.09375 56 
Q 79.640625 56 84.28125 50.015625 
Q 88.921875 44.046875 88.921875 33.015625 
L 88.921875 0 
L 79.890625 0 
L 79.890625 32.71875 
Q 79.890625 40.578125 77.09375 44.375 
Q 74.3125 48.1875 68.609375 48.1875 
Q 61.625 48.1875 57.5625 43.546875 
Q 53.515625 38.921875 53.515625 30.90625 
L 53.515625 0 
L 44.484375 0 
L 44.484375 32.71875 
Q 44.484375 40.625 41.703125 44.40625 
Q 38.921875 48.1875 33.109375 48.1875 
Q 26.21875 48.1875 22.15625 43.53125 
Q 18.109375 38.875 18.109375 30.90625 
L 18.109375 0 
L 9.078125 0 
L 9.078125 54.6875 
L 18.109375 54.6875 
L 18.109375 46.1875 
Q 21.1875 51.21875 25.484375 53.609375 
Q 29.78125 56 35.6875 56 
Q 41.65625 56 45.828125 52.96875 
Q 50 49.953125 52 44.1875 
z
" id="DejaVuSans-109"/>
       <path d="M 18.3125 70.21875 
L 18.3125 54.6875 
L 36.8125 54.6875 
L 36.8125 47.703125 
L 18.3125 47.703125 
L 18.3125 18.015625 
Q 18.3125 11.328125 20.140625 9.421875 
Q 21.96875 7.515625 27.59375 7.515625 
L 36.8125 7.515625 
L 36.8125 0 
L 27.59375 0 
Q 17.1875 0 13.234375 3.875 
Q 9.28125 7.765625 9.28125 18.015625 
L 9.28125 47.703125 
L 2.6875 47.703125 
L 2.6875 54.6875 
L 9.28125 54.6875 
L 9.28125 70.21875 
z
" id="DejaVuSans-116"/>
       <path d="M 9.421875 54.6875 
L 18.40625 54.6875 
L 18.40625 0 
L 9.421875 0 
z
M 9.421875 75.984375 
L 18.40625 75.984375 
L 18.40625 64.59375 
L 9.421875 64.59375 
z
" id="DejaVuSans-105"/>
      </defs>
      <use xlink:href="#DejaVuSans-109"/>
      <use x="97.412109" xlink:href="#DejaVuSans-101"/>
      <use x="158.935547" xlink:href="#DejaVuSans-116"/>
      <use x="198.144531" xlink:href="#DejaVuSans-114"/>
      <use x="239.257812" xlink:href="#DejaVuSans-105"/>
      <use x="267.041016" xlink:href="#DejaVuSans-99"/>
     </g>
    </g>
    <g id="PathCollection_12">
     <defs>
      <path d="M 0 3 
C 0.795609 3 1.55874 2.683901 2.12132 2.12132 
C 2.683901 1.55874 3 0.795609 3 0 
C 3 -0.795609 2.683901 -1.55874 2.12132 -2.12132 
C 1.55874 -2.683901 0.795609 -3 0 -3 
C -0.795609 -3 -1.55874 -2.683901 -2.12132 -2.12132 
C -2.683901 -1.55874 -3 -0.795609 -3 0 
C -3 0.795609 -2.683901 1.55874 -2.12132 2.12132 
C -1.55874 2.683901 -0.795609 3 0 3 
z
" id="m9c076750de" style="stroke:#1f77b4;"/>
     </defs>
     <g>
      <use style="fill:#1f77b4;stroke:#1f77b4;" x="56.96725" xlink:href="#m9c076750de" y="27.084184"/>
     </g>
    </g>
    <g id="text_21">
     <!-- precision -->
     <g transform="translate(69.45925 28.905934)scale(0.0694 -0.0694)">
      <defs>
       <path d="M 18.109375 8.203125 
L 18.109375 -20.796875 
L 9.078125 -20.796875 
L 9.078125 54.6875 
L 18.109375 54.6875 
L 18.109375 46.390625 
Q 20.953125 51.265625 25.265625 53.625 
Q 29.59375 56 35.59375 56 
Q 45.5625 56 51.78125 48.09375 
Q 58.015625 40.1875 58.015625 27.296875 
Q 58.015625 14.40625 51.78125 6.484375 
Q 45.5625 -1.421875 35.59375 -1.421875 
Q 29.59375 -1.421875 25.265625 0.953125 
Q 20.953125 3.328125 18.109375 8.203125 
z
M 48.6875 27.296875 
Q 48.6875 37.203125 44.609375 42.84375 
Q 40.53125 48.484375 33.40625 48.484375 
Q 26.265625 48.484375 22.1875 42.84375 
Q 18.109375 37.203125 18.109375 27.296875 
Q 18.109375 17.390625 22.1875 11.75 
Q 26.265625 6.109375 33.40625 6.109375 
Q 40.53125 6.109375 44.609375 11.75 
Q 48.6875 17.390625 48.6875 27.296875 
z
" id="DejaVuSans-112"/>
      </defs>
      <use xlink:href="#DejaVuSans-112"/>
      <use x="63.476562" xlink:href="#DejaVuSans-114"/>
      <use x="102.339844" xlink:href="#DejaVuSans-101"/>
      <use x="163.863281" xlink:href="#DejaVuSans-99"/>
      <use x="218.84375" xlink:href="#DejaVuSans-105"/>
      <use x="246.626953" xlink:href="#DejaVuSans-115"/>
      <use x="298.726562" xlink:href="#DejaVuSans-105"/>
      <use x="326.509766" xlink:href="#DejaVuSans-111"/>
      <use x="387.691406" xlink:href="#DejaVuSans-110"/>
     </g>
    </g>
    <g id="PathCollection_13">
     <defs>
      <path d="M 0 3 
C 0.795609 3 1.55874 2.683901 2.12132 2.12132 
C 2.683901 1.55874 3 0.795609 3 0 
C 3 -0.795609 2.683901 -1.55874 2.12132 -2.12132 
C 1.55874 -2.683901 0.795609 -3 0 -3 
C -0.795609 -3 -1.55874 -2.683901 -2.12132 -2.12132 
C -2.683901 -1.55874 -3 -0.795609 -3 0 
C -3 0.795609 -2.683901 1.55874 -2.12132 2.12132 
C -1.55874 2.683901 -0.795609 3 0 3 
z
" id="m2dfd6810fc" style="stroke:#ff7f0e;"/>
     </defs>
     <g>
      <use style="fill:#ff7f0e;stroke:#ff7f0e;" x="56.96725" xlink:href="#m2dfd6810fc" y="37.270803"/>
     </g>
    </g>
    <g id="text_22">
     <!-- recall -->
     <g transform="translate(69.45925 39.092553)scale(0.0694 -0.0694)">
      <defs>
       <path d="M 34.28125 27.484375 
Q 23.390625 27.484375 19.1875 25 
Q 14.984375 22.515625 14.984375 16.5 
Q 14.984375 11.71875 18.140625 8.90625 
Q 21.296875 6.109375 26.703125 6.109375 
Q 34.1875 6.109375 38.703125 11.40625 
Q 43.21875 16.703125 43.21875 25.484375 
L 43.21875 27.484375 
z
M 52.203125 31.203125 
L 52.203125 0 
L 43.21875 0 
L 43.21875 8.296875 
Q 40.140625 3.328125 35.546875 0.953125 
Q 30.953125 -1.421875 24.3125 -1.421875 
Q 15.921875 -1.421875 10.953125 3.296875 
Q 6 8.015625 6 15.921875 
Q 6 25.140625 12.171875 29.828125 
Q 18.359375 34.515625 30.609375 34.515625 
L 43.21875 34.515625 
L 43.21875 35.40625 
Q 43.21875 41.609375 39.140625 45 
Q 35.0625 48.390625 27.6875 48.390625 
Q 23 48.390625 18.546875 47.265625 
Q 14.109375 46.140625 10.015625 43.890625 
L 10.015625 52.203125 
Q 14.9375 54.109375 19.578125 55.046875 
Q 24.21875 56 28.609375 56 
Q 40.484375 56 46.34375 49.84375 
Q 52.203125 43.703125 52.203125 31.203125 
z
" id="DejaVuSans-97"/>
       <path d="M 9.421875 75.984375 
L 18.40625 75.984375 
L 18.40625 0 
L 9.421875 0 
z
" id="DejaVuSans-108"/>
      </defs>
      <use xlink:href="#DejaVuSans-114"/>
      <use x="38.863281" xlink:href="#DejaVuSans-101"/>
      <use x="100.386719" xlink:href="#DejaVuSans-99"/>
      <use x="155.367188" xlink:href="#DejaVuSans-97"/>
      <use x="216.646484" xlink:href="#DejaVuSans-108"/>
      <use x="244.429688" xlink:href="#DejaVuSans-108"/>
     </g>
    </g>
    <g id="PathCollection_14">
     <defs>
      <path d="M 0 3 
C 0.795609 3 1.55874 2.683901 2.12132 2.12132 
C 2.683901 1.55874 3 0.795609 3 0 
C 3 -0.795609 2.683901 -1.55874 2.12132 -2.12132 
C 1.55874 -2.683901 0.795609 -3 0 -3 
C -0.795609 -3 -1.55874 -2.683901 -2.12132 -2.12132 
C -2.683901 -1.55874 -3 -0.795609 -3 0 
C -3 0.795609 -2.683901 1.55874 -2.12132 2.12132 
C -1.55874 2.683901 -0.795609 3 0 3 
z
" id="m39679284e5" style="stroke:#2ca02c;"/>
     </defs>
     <g>
      <use style="fill:#2ca02c;stroke:#2ca02c;" x="56.96725" xlink:href="#m39679284e5" y="47.457422"/>
     </g>
    </g>
    <g id="text_23">
     <!-- accuracy -->
     <g transform="translate(69.45925 49.279172)scale(0.0694 -0.0694)">
      <defs>
       <path d="M 8.5 21.578125 
L 8.5 54.6875 
L 17.484375 54.6875 
L 17.484375 21.921875 
Q 17.484375 14.15625 20.5 10.265625 
Q 23.53125 6.390625 29.59375 6.390625 
Q 36.859375 6.390625 41.078125 11.03125 
Q 45.3125 15.671875 45.3125 23.6875 
L 45.3125 54.6875 
L 54.296875 54.6875 
L 54.296875 0 
L 45.3125 0 
L 45.3125 8.40625 
Q 42.046875 3.421875 37.71875 1 
Q 33.40625 -1.421875 27.6875 -1.421875 
Q 18.265625 -1.421875 13.375 4.4375 
Q 8.5 10.296875 8.5 21.578125 
z
M 31.109375 56 
z
" id="DejaVuSans-117"/>
       <path d="M 32.171875 -5.078125 
Q 28.375 -14.84375 24.75 -17.8125 
Q 21.140625 -20.796875 15.09375 -20.796875 
L 7.90625 -20.796875 
L 7.90625 -13.28125 
L 13.1875 -13.28125 
Q 16.890625 -13.28125 18.9375 -11.515625 
Q 21 -9.765625 23.484375 -3.21875 
L 25.09375 0.875 
L 2.984375 54.6875 
L 12.5 54.6875 
L 29.59375 11.921875 
L 46.6875 54.6875 
L 56.203125 54.6875 
z
" id="DejaVuSans-121"/>
      </defs>
      <use xlink:href="#DejaVuSans-97"/>
      <use x="61.279297" xlink:href="#DejaVuSans-99"/>
      <use x="116.259766" xlink:href="#DejaVuSans-99"/>
      <use x="171.240234" xlink:href="#DejaVuSans-117"/>
      <use x="234.619141" xlink:href="#DejaVuSans-114"/>
      <use x="275.732422" xlink:href="#DejaVuSans-97"/>
      <use x="337.011719" xlink:href="#DejaVuSans-99"/>
      <use x="391.992188" xlink:href="#DejaVuSans-121"/>
     </g>
    </g>
    <g id="PathCollection_15">
     <defs>
      <path d="M 0 3 
C 0.795609 3 1.55874 2.683901 2.12132 2.12132 
C 2.683901 1.55874 3 0.795609 3 0 
C 3 -0.795609 2.683901 -1.55874 2.12132 -2.12132 
C 1.55874 -2.683901 0.795609 -3 0 -3 
C -0.795609 -3 -1.55874 -2.683901 -2.12132 -2.12132 
C -2.683901 -1.55874 -3 -0.795609 -3 0 
C -3 0.795609 -2.683901 1.55874 -2.12132 2.12132 
C -1.55874 2.683901 -0.795609 3 0 3 
z
" id="mac820dca90" style="stroke:#d62728;"/>
     </defs>
     <g>
      <use style="fill:#d62728;stroke:#d62728;" x="56.96725" xlink:href="#mac820dca90" y="57.644041"/>
     </g>
    </g>
    <g id="text_24">
     <!-- f1 -->
     <g transform="translate(69.45925 59.465791)scale(0.0694 -0.0694)">
      <defs>
       <path d="M 37.109375 75.984375 
L 37.109375 68.5 
L 28.515625 68.5 
Q 23.6875 68.5 21.796875 66.546875 
Q 19.921875 64.59375 19.921875 59.515625 
L 19.921875 54.6875 
L 34.71875 54.6875 
L 34.71875 47.703125 
L 19.921875 47.703125 
L 19.921875 0 
L 10.890625 0 
L 10.890625 47.703125 
L 2.296875 47.703125 
L 2.296875 54.6875 
L 10.890625 54.6875 
L 10.890625 58.5 
Q 10.890625 67.625 15.140625 71.796875 
Q 19.390625 75.984375 28.609375 75.984375 
z
" id="DejaVuSans-102"/>
      </defs>
      <use xlink:href="#DejaVuSans-102"/>
      <use x="35.205078" xlink:href="#DejaVuSans-49"/>
     </g>
    </g>
    <g id="text_25">
     <!-- ncols -->
     <g transform="translate(69.45925 69.652409)scale(0.0694 -0.0694)">
      <use xlink:href="#DejaVuSans-110"/>
      <use x="63.378906" xlink:href="#DejaVuSans-99"/>
      <use x="118.359375" xlink:href="#DejaVuSans-111"/>
      <use x="179.541016" xlink:href="#DejaVuSans-108"/>
      <use x="207.324219" xlink:href="#DejaVuSans-115"/>
     </g>
    </g>
    <g id="PathCollection_16">
     <defs>
      <path d="M 0 3.307189 
C 0.877077 3.307189 1.718349 2.958723 2.338536 2.338536 
C 2.958723 1.718349 3.307189 0.877077 3.307189 0 
C 3.307189 -0.877077 2.958723 -1.718349 2.338536 -2.338536 
C 1.718349 -2.958723 0.877077 -3.307189 0 -3.307189 
C -0.877077 -3.307189 -1.718349 -2.958723 -2.338536 -2.338536 
C -2.958723 -1.718349 -3.307189 -0.877077 -3.307189 0 
C -3.307189 0.877077 -2.958723 1.718349 -2.338536 2.338536 
C -1.718349 2.958723 -0.877077 3.307189 0 3.307189 
z
" id="m1074f6b1b2" style="stroke:#333333;"/>
     </defs>
     <g>
      <use style="fill:#333333;stroke:#333333;" x="56.96725" xlink:href="#m1074f6b1b2" y="78.017278"/>
     </g>
    </g>
    <g id="text_26">
     <!-- 8 -->
     <g transform="translate(69.45925 79.839028)scale(0.0694 -0.0694)">
      <use xlink:href="#DejaVuSans-56"/>
     </g>
    </g>
    <g id="PathCollection_17">
     <defs>
      <path d="M 0 3.66572 
C 0.97216 3.66572 1.904634 3.279476 2.592055 2.592055 
C 3.279476 1.904634 3.66572 0.97216 3.66572 0 
C 3.66572 -0.97216 3.279476 -1.904634 2.592055 -2.592055 
C 1.904634 -3.279476 0.97216 -3.66572 0 -3.66572 
C -0.97216 -3.66572 -1.904634 -3.279476 -2.592055 -2.592055 
C -3.279476 -1.904634 -3.66572 -0.97216 -3.66572 0 
C -3.66572 0.97216 -3.279476 1.904634 -2.592055 2.592055 
C -1.904634 3.279476 -0.97216 3.66572 0 3.66572 
z
" id="m68a6447c26" style="stroke:#333333;"/>
     </defs>
     <g>
      <use style="fill:#333333;stroke:#333333;" x="56.96725" xlink:href="#m68a6447c26" y="88.203897"/>
     </g>
    </g>
    <g id="text_27">
     <!-- 16 -->
     <g transform="translate(69.45925 90.025647)scale(0.0694 -0.0694)">
      <use xlink:href="#DejaVuSans-49"/>
      <use x="63.623047" xlink:href="#DejaVuSans-54"/>
     </g>
    </g>
    <g id="PathCollection_18">
     <defs>
      <path d="M 0 3.99218 
C 1.058738 3.99218 2.074256 3.571539 2.822897 2.822897 
C 3.571539 2.074256 3.99218 1.058738 3.99218 0 
C 3.99218 -1.058738 3.571539 -2.074256 2.822897 -2.822897 
C 2.074256 -3.571539 1.058738 -3.99218 0 -3.99218 
C -1.058738 -3.99218 -2.074256 -3.571539 -2.822897 -2.822897 
C -3.571539 -2.074256 -3.99218 -1.058738 -3.99218 0 
C -3.99218 1.058738 -3.571539 2.074256 -2.822897 2.822897 
C -2.074256 3.571539 -1.058738 3.99218 0 3.99218 
z
" id="mded1c69c2f" style="stroke:#333333;"/>
     </defs>
     <g>
      <use style="fill:#333333;stroke:#333333;" x="56.96725" xlink:href="#mded1c69c2f" y="98.390516"/>
     </g>
    </g>
    <g id="text_28">
     <!-- 24 -->
     <g transform="translate(69.45925 100.212266)scale(0.0694 -0.0694)">
      <use xlink:href="#DejaVuSans-50"/>
      <use x="63.623047" xlink:href="#DejaVuSans-52"/>
     </g>
    </g>
    <g id="PathCollection_19">
     <defs>
      <path d="M 0 4.293891 
C 1.138753 4.293891 2.231019 3.84146 3.036239 3.036239 
C 3.84146 2.231019 4.293891 1.138753 4.293891 0 
C 4.293891 -1.138753 3.84146 -2.231019 3.036239 -3.036239 
C 2.231019 -3.84146 1.138753 -4.293891 0 -4.293891 
C -1.138753 -4.293891 -2.231019 -3.84146 -3.036239 -3.036239 
C -3.84146 -2.231019 -4.293891 -1.138753 -4.293891 0 
C -4.293891 1.138753 -3.84146 2.231019 -3.036239 3.036239 
C -2.231019 3.84146 -1.138753 4.293891 0 4.293891 
z
" id="mc91ddc98e0" style="stroke:#333333;"/>
     </defs>
     <g>
      <use style="fill:#333333;stroke:#333333;" x="56.96725" xlink:href="#mc91ddc98e0" y="108.577134"/>
     </g>
    </g>
    <g id="text_29">
     <!-- 32 -->
     <g transform="translate(69.45925 110.398884)scale(0.0694 -0.0694)">
      <use xlink:href="#DejaVuSans-51"/>
      <use x="63.623047" xlink:href="#DejaVuSans-50"/>
     </g>
    </g>
    <g id="PathCollection_20">
     <defs>
      <path d="M 0 4.575751 
C 1.213503 4.575751 2.377468 4.093621 3.235545 3.235545 
C 4.093621 2.377468 4.575751 1.213503 4.575751 0 
C 4.575751 -1.213503 4.093621 -2.377468 3.235545 -3.235545 
C 2.377468 -4.093621 1.213503 -4.575751 0 -4.575751 
C -1.213503 -4.575751 -2.377468 -4.093621 -3.235545 -3.235545 
C -4.093621 -2.377468 -4.575751 -1.213503 -4.575751 0 
C -4.575751 1.213503 -4.093621 2.377468 -3.235545 3.235545 
C -2.377468 4.093621 -1.213503 4.575751 0 4.575751 
z
" id="mb7cf821d38" style="stroke:#333333;"/>
     </defs>
     <g>
      <use style="fill:#333333;stroke:#333333;" x="56.96725" xlink:href="#mb7cf821d38" y="118.763753"/>
     </g>
    </g>
    <g id="text_30">
     <!-- 40 -->
     <g transform="translate(69.45925 120.585503)scale(0.0694 -0.0694)">
      <use xlink:href="#DejaVuSans-52"/>
      <use x="63.623047" xlink:href="#DejaVuSans-48"/>
     </g>
    </g>
    <g id="PathCollection_21">
     <defs>
      <path d="M 0 4.841229 
C 1.283909 4.841229 2.515405 4.331127 3.423266 3.423266 
C 4.331127 2.515405 4.841229 1.283909 4.841229 0 
C 4.841229 -1.283909 4.331127 -2.515405 3.423266 -3.423266 
C 2.515405 -4.331127 1.283909 -4.841229 0 -4.841229 
C -1.283909 -4.841229 -2.515405 -4.331127 -3.423266 -3.423266 
C -4.331127 -2.515405 -4.841229 -1.283909 -4.841229 0 
C -4.841229 1.283909 -4.331127 2.515405 -3.423266 3.423266 
C -2.515405 4.331127 -1.283909 4.841229 0 4.841229 
z
" id="m3f2918af43" style="stroke:#333333;"/>
     </defs>
     <g>
      <use style="fill:#333333;stroke:#333333;" x="56.96725" xlink:href="#m3f2918af43" y="128.950372"/>
     </g>
    </g>
    <g id="text_31">
     <!-- 48 -->
     <g transform="translate(69.45925 130.772122)scale(0.0694 -0.0694)">
      <use xlink:href="#DejaVuSans-52"/>
      <use x="63.623047" xlink:href="#DejaVuSans-56"/>
     </g>
    </g>
   </g>
  </g>
 </g>
 <defs>
  <clipPath id="pb793546cb5">
   <rect height="266.112" width="357.12" x="43.78125" y="7.2"/>
  </clipPath>
 </defs>
</svg>
