<?xml version="1.0" encoding="utf-8" standalone="no"?>
<!DOCTYPE svg PUBLIC "-//W3C//DTD SVG 1.1//EN"
  "http://www.w3.org/Graphics/SVG/1.1/DTD/svg11.dtd">
<!-- Created with matplotlib (https://matplotlib.org/) -->
<svg height="310.86825pt" version="1.1" viewBox="0 0 414.46375 310.86825" width="414.46375pt" xmlns="http://www.w3.org/2000/svg" xmlns:xlink="http://www.w3.org/1999/xlink">
 <metadata>
  <rdf:RDF xmlns:cc="http://creativecommons.org/ns#" xmlns:dc="http://purl.org/dc/elements/1.1/" xmlns:rdf="http://www.w3.org/1999/02/22-rdf-syntax-ns#">
   <cc:Work>
    <dc:type rdf:resource="http://purl.org/dc/dcmitype/StillImage"/>
    <dc:date>2023-04-20T17:48:06.959291</dc:date>
    <dc:format>image/svg+xml</dc:format>
    <dc:creator>
     <cc:Agent>
      <dc:title>Matplotlib v3.3.4, https://matplotlib.org/</dc:title>
     </cc:Agent>
    </dc:creator>
   </cc:Work>
  </rdf:RDF>
 </metadata>
 <defs>
  <style type="text/css">*{stroke-linecap:butt;stroke-linejoin:round;}</style>
 </defs>
 <g id="figure_1">
  <g id="patch_1">
   <path d="M 0 310.86825 
L 414.46375 310.86825 
L 414.46375 0 
L 0 0 
z
" style="fill:#ffffff;"/>
  </g>
  <g id="axes_1">
   <g id="patch_2">
    <path d="M 50.14375 273.312 
L 407.26375 273.312 
L 407.26375 7.2 
L 50.14375 7.2 
z
" style="fill:#ffffff;"/>
   </g>
   <g id="PathCollection_1">
    <path clip-path="url(#p12967084ee)" d="M 391.031023 22.296 
C 391.826632 22.296 392.589762 21.979901 393.152343 21.41732 
C 393.714924 20.85474 394.031023 20.091609 394.031023 19.296 
C 394.031023 18.500391 393.714924 17.73726 393.152343 17.17468 
C 392.589762 16.612099 391.826632 16.296 391.031023 16.296 
C 390.235413 16.296 389.472283 16.612099 388.909702 17.17468 
C 388.347122 17.73726 388.031023 18.500391 388.031023 19.296 
C 388.031023 20.091609 388.347122 20.85474 388.909702 21.41732 
C 389.472283 21.979901 390.235413 22.296 391.031023 22.296 
z
" style="fill:#f26b38;stroke:#ffffff;stroke-width:0.48;"/>
    <path clip-path="url(#p12967084ee)" d="M 350.449205 95.065536 
C 351.244814 95.065536 352.007944 94.749437 352.570525 94.186856 
C 353.133106 93.624276 353.449205 92.861145 353.449205 92.065536 
C 353.449205 91.269927 353.133106 90.506796 352.570525 89.944216 
C 352.007944 89.381635 351.244814 89.065536 350.449205 89.065536 
C 349.653595 89.065536 348.890465 89.381635 348.327884 89.944216 
C 347.765303 90.506796 347.449205 91.269927 347.449205 92.065536 
C 347.449205 92.861145 347.765303 93.624276 348.327884 94.186856 
C 348.890465 94.749437 349.653595 95.065536 350.449205 95.065536 
z
" style="fill:#f26b38;stroke:#ffffff;stroke-width:0.48;"/>
    <path clip-path="url(#p12967084ee)" d="M 66.376477 264.216 
C 67.172087 264.216 67.935217 263.899901 68.497798 263.33732 
C 69.060378 262.77474 69.376477 262.011609 69.376477 261.216 
C 69.376477 260.420391 69.060378 259.65726 68.497798 259.09468 
C 67.935217 258.532099 67.172087 258.216 66.376477 258.216 
C 65.580868 258.216 64.817738 258.532099 64.255157 259.09468 
C 63.692576 259.65726 63.376477 260.420391 63.376477 261.216 
C 63.376477 262.011609 63.692576 262.77474 64.255157 263.33732 
C 64.817738 263.899901 65.580868 264.216 66.376477 264.216 
z
" style="fill:#f26b38;stroke:#ffffff;stroke-width:0.48;"/>
    <path clip-path="url(#p12967084ee)" d="M 106.958295 178.613538 
C 107.753905 178.613538 108.517035 178.29744 109.079616 177.734859 
C 109.642197 177.172278 109.958295 176.409148 109.958295 175.613538 
C 109.958295 174.817929 109.642197 174.054799 109.079616 173.492218 
C 108.517035 172.929637 107.753905 172.613538 106.958295 172.613538 
C 106.162686 172.613538 105.399556 172.929637 104.836975 173.492218 
C 104.274394 174.054799 103.958295 174.817929 103.958295 175.613538 
C 103.958295 176.409148 104.274394 177.172278 104.836975 177.734859 
C 105.399556 178.29744 106.162686 178.613538 106.958295 178.613538 
z
" style="fill:#f26b38;stroke:#ffffff;stroke-width:0.48;"/>
    <path clip-path="url(#p12967084ee)" d="M 147.540114 172.571012 
C 148.335723 172.571012 149.098853 172.254913 149.661434 171.692332 
C 150.224015 171.129751 150.540114 170.366621 150.540114 169.571012 
C 150.540114 168.775402 150.224015 168.012272 149.661434 167.449691 
C 149.098853 166.887111 148.335723 166.571012 147.540114 166.571012 
C 146.744504 166.571012 145.981374 166.887111 145.418793 167.449691 
C 144.856213 168.012272 144.540114 168.775402 144.540114 169.571012 
C 144.540114 170.366621 144.856213 171.129751 145.418793 171.692332 
C 145.981374 172.254913 146.744504 172.571012 147.540114 172.571012 
z
" style="fill:#f26b38;stroke:#ffffff;stroke-width:0.48;"/>
    <path clip-path="url(#p12967084ee)" d="M 188.121932 112.870848 
C 188.917541 112.870848 189.680671 112.554749 190.243252 111.992168 
C 190.805833 111.429588 191.121932 110.666457 191.121932 109.870848 
C 191.121932 109.075239 190.805833 108.312108 190.243252 107.749528 
C 189.680671 107.186947 188.917541 106.870848 188.121932 106.870848 
C 187.326323 106.870848 186.563192 107.186947 186.000611 107.749528 
C 185.438031 108.312108 185.121932 109.075239 185.121932 109.870848 
C 185.121932 110.666457 185.438031 111.429588 186.000611 111.992168 
C 186.563192 112.554749 187.326323 112.870848 188.121932 112.870848 
z
" style="fill:#f26b38;stroke:#ffffff;stroke-width:0.48;"/>
    <path clip-path="url(#p12967084ee)" d="M 228.70375 133.294588 
C 229.499359 133.294588 230.26249 132.978489 230.82507 132.415909 
C 231.387651 131.853328 231.70375 131.090198 231.70375 130.294588 
C 231.70375 129.498979 231.387651 128.735849 230.82507 128.173268 
C 230.26249 127.610687 229.499359 127.294588 228.70375 127.294588 
C 227.908141 127.294588 227.14501 127.610687 226.58243 128.173268 
C 226.019849 128.735849 225.70375 129.498979 225.70375 130.294588 
C 225.70375 131.090198 226.019849 131.853328 226.58243 132.415909 
C 227.14501 132.978489 227.908141 133.294588 228.70375 133.294588 
z
" style="fill:#f26b38;stroke:#ffffff;stroke-width:0.48;"/>
    <path clip-path="url(#p12967084ee)" d="M 269.285568 109.3872 
C 270.081177 109.3872 270.844308 109.071101 271.406889 108.50852 
C 271.969469 107.94594 272.285568 107.182809 272.285568 106.3872 
C 272.285568 105.591591 271.969469 104.82846 271.406889 104.26588 
C 270.844308 103.703299 270.081177 103.3872 269.285568 103.3872 
C 268.489959 103.3872 267.726829 103.703299 267.164248 104.26588 
C 266.601667 104.82846 266.285568 105.591591 266.285568 106.3872 
C 266.285568 107.182809 266.601667 107.94594 267.164248 108.50852 
C 267.726829 109.071101 268.489959 109.3872 269.285568 109.3872 
z
" style="fill:#f26b38;stroke:#ffffff;stroke-width:0.48;"/>
    <path clip-path="url(#p12967084ee)" d="M 309.867386 120.624774 
C 310.662996 120.624774 311.426126 120.308675 311.988707 119.746095 
C 312.551287 119.183514 312.867386 118.420383 312.867386 117.624774 
C 312.867386 116.829165 312.551287 116.066035 311.988707 115.503454 
C 311.426126 114.940873 310.662996 114.624774 309.867386 114.624774 
C 309.071777 114.624774 308.308647 114.940873 307.746066 115.503454 
C 307.183485 116.066035 306.867386 116.829165 306.867386 117.624774 
C 306.867386 118.420383 307.183485 119.183514 307.746066 119.746095 
C 308.308647 120.308675 309.071777 120.624774 309.867386 120.624774 
z
" style="fill:#f26b38;stroke:#ffffff;stroke-width:0.48;"/>
    <path clip-path="url(#p12967084ee)" d="M 389.531023 128.50478 
L 391.031023 127.00478 
L 392.531023 128.50478 
L 394.031023 127.00478 
L 392.531023 125.50478 
L 394.031023 124.00478 
L 392.531023 122.50478 
L 391.031023 124.00478 
L 389.531023 122.50478 
L 388.031023 124.00478 
L 389.531023 125.50478 
L 388.031023 127.00478 
z
" style="fill:#f26b38;stroke:#ffffff;stroke-width:0.48;"/>
    <path clip-path="url(#p12967084ee)" d="M 348.949205 36.08544 
L 350.449205 34.58544 
L 351.949205 36.08544 
L 353.449205 34.58544 
L 351.949205 33.08544 
L 353.449205 31.58544 
L 351.949205 30.08544 
L 350.449205 31.58544 
L 348.949205 30.08544 
L 347.449205 31.58544 
L 348.949205 33.08544 
L 347.449205 34.58544 
z
" style="fill:#f26b38;stroke:#ffffff;stroke-width:0.48;"/>
    <path clip-path="url(#p12967084ee)" d="M 64.876477 264.216 
L 66.376477 262.716 
L 67.876477 264.216 
L 69.376477 262.716 
L 67.876477 261.216 
L 69.376477 259.716 
L 67.876477 258.216 
L 66.376477 259.716 
L 64.876477 258.216 
L 63.376477 259.716 
L 64.876477 261.216 
L 63.376477 262.716 
z
" style="fill:#f26b38;stroke:#ffffff;stroke-width:0.48;"/>
    <path clip-path="url(#p12967084ee)" d="M 105.458295 178.613538 
L 106.958295 177.113538 
L 108.458295 178.613538 
L 109.958295 177.113538 
L 108.458295 175.613538 
L 109.958295 174.113538 
L 108.458295 172.613538 
L 106.958295 174.113538 
L 105.458295 172.613538 
L 103.958295 174.113538 
L 105.458295 175.613538 
L 103.958295 177.113538 
z
" style="fill:#f26b38;stroke:#ffffff;stroke-width:0.48;"/>
    <path clip-path="url(#p12967084ee)" d="M 146.040114 172.571012 
L 147.540114 171.071012 
L 149.040114 172.571012 
L 150.540114 171.071012 
L 149.040114 169.571012 
L 150.540114 168.071012 
L 149.040114 166.571012 
L 147.540114 168.071012 
L 146.040114 166.571012 
L 144.540114 168.071012 
L 146.040114 169.571012 
L 144.540114 171.071012 
z
" style="fill:#f26b38;stroke:#ffffff;stroke-width:0.48;"/>
    <path clip-path="url(#p12967084ee)" d="M 186.621932 112.870848 
L 188.121932 111.370848 
L 189.621932 112.870848 
L 191.121932 111.370848 
L 189.621932 109.870848 
L 191.121932 108.370848 
L 189.621932 106.870848 
L 188.121932 108.370848 
L 186.621932 106.870848 
L 185.121932 108.370848 
L 186.621932 109.870848 
L 185.121932 111.370848 
z
" style="fill:#f26b38;stroke:#ffffff;stroke-width:0.48;"/>
    <path clip-path="url(#p12967084ee)" d="M 227.20375 133.294588 
L 228.70375 131.794588 
L 230.20375 133.294588 
L 231.70375 131.794588 
L 230.20375 130.294588 
L 231.70375 128.794588 
L 230.20375 127.294588 
L 228.70375 128.794588 
L 227.20375 127.294588 
L 225.70375 128.794588 
L 227.20375 130.294588 
L 225.70375 131.794588 
z
" style="fill:#f26b38;stroke:#ffffff;stroke-width:0.48;"/>
    <path clip-path="url(#p12967084ee)" d="M 267.785568 69.4704 
L 269.285568 67.9704 
L 270.785568 69.4704 
L 272.285568 67.9704 
L 270.785568 66.4704 
L 272.285568 64.9704 
L 270.785568 63.4704 
L 269.285568 64.9704 
L 267.785568 63.4704 
L 266.285568 64.9704 
L 267.785568 66.4704 
L 266.285568 67.9704 
z
" style="fill:#f26b38;stroke:#ffffff;stroke-width:0.48;"/>
    <path clip-path="url(#p12967084ee)" d="M 308.367386 48.293373 
L 309.867386 46.793373 
L 311.367386 48.293373 
L 312.867386 46.793373 
L 311.367386 45.293373 
L 312.867386 43.793373 
L 311.367386 42.293373 
L 309.867386 43.793373 
L 308.367386 42.293373 
L 306.867386 43.793373 
L 308.367386 45.293373 
L 306.867386 46.793373 
z
" style="fill:#f26b38;stroke:#ffffff;stroke-width:0.48;"/>
    <path clip-path="url(#p12967084ee)" d="M 391.031023 22.296 
C 391.826632 22.296 392.589762 21.979901 393.152343 21.41732 
C 393.714924 20.85474 394.031023 20.091609 394.031023 19.296 
C 394.031023 18.500391 393.714924 17.73726 393.152343 17.17468 
C 392.589762 16.612099 391.826632 16.296 391.031023 16.296 
C 390.235413 16.296 389.472283 16.612099 388.909702 17.17468 
C 388.347122 17.73726 388.031023 18.500391 388.031023 19.296 
C 388.031023 20.091609 388.347122 20.85474 388.909702 21.41732 
C 389.472283 21.979901 390.235413 22.296 391.031023 22.296 
z
" style="fill:#2f9599;stroke:#ffffff;stroke-width:0.48;"/>
    <path clip-path="url(#p12967084ee)" d="M 350.449205 95.065536 
C 351.244814 95.065536 352.007944 94.749437 352.570525 94.186856 
C 353.133106 93.624276 353.449205 92.861145 353.449205 92.065536 
C 353.449205 91.269927 353.133106 90.506796 352.570525 89.944216 
C 352.007944 89.381635 351.244814 89.065536 350.449205 89.065536 
C 349.653595 89.065536 348.890465 89.381635 348.327884 89.944216 
C 347.765303 90.506796 347.449205 91.269927 347.449205 92.065536 
C 347.449205 92.861145 347.765303 93.624276 348.327884 94.186856 
C 348.890465 94.749437 349.653595 95.065536 350.449205 95.065536 
z
" style="fill:#2f9599;stroke:#ffffff;stroke-width:0.48;"/>
    <path clip-path="url(#p12967084ee)" d="M 66.376477 264.216 
C 67.172087 264.216 67.935217 263.899901 68.497798 263.33732 
C 69.060378 262.77474 69.376477 262.011609 69.376477 261.216 
C 69.376477 260.420391 69.060378 259.65726 68.497798 259.09468 
C 67.935217 258.532099 67.172087 258.216 66.376477 258.216 
C 65.580868 258.216 64.817738 258.532099 64.255157 259.09468 
C 63.692576 259.65726 63.376477 260.420391 63.376477 261.216 
C 63.376477 262.011609 63.692576 262.77474 64.255157 263.33732 
C 64.817738 263.899901 65.580868 264.216 66.376477 264.216 
z
" style="fill:#2f9599;stroke:#ffffff;stroke-width:0.48;"/>
    <path clip-path="url(#p12967084ee)" d="M 106.958295 178.613538 
C 107.753905 178.613538 108.517035 178.29744 109.079616 177.734859 
C 109.642197 177.172278 109.958295 176.409148 109.958295 175.613538 
C 109.958295 174.817929 109.642197 174.054799 109.079616 173.492218 
C 108.517035 172.929637 107.753905 172.613538 106.958295 172.613538 
C 106.162686 172.613538 105.399556 172.929637 104.836975 173.492218 
C 104.274394 174.054799 103.958295 174.817929 103.958295 175.613538 
C 103.958295 176.409148 104.274394 177.172278 104.836975 177.734859 
C 105.399556 178.29744 106.162686 178.613538 106.958295 178.613538 
z
" style="fill:#2f9599;stroke:#ffffff;stroke-width:0.48;"/>
    <path clip-path="url(#p12967084ee)" d="M 147.540114 172.571012 
C 148.335723 172.571012 149.098853 172.254913 149.661434 171.692332 
C 150.224015 171.129751 150.540114 170.366621 150.540114 169.571012 
C 150.540114 168.775402 150.224015 168.012272 149.661434 167.449691 
C 149.098853 166.887111 148.335723 166.571012 147.540114 166.571012 
C 146.744504 166.571012 145.981374 166.887111 145.418793 167.449691 
C 144.856213 168.012272 144.540114 168.775402 144.540114 169.571012 
C 144.540114 170.366621 144.856213 171.129751 145.418793 171.692332 
C 145.981374 172.254913 146.744504 172.571012 147.540114 172.571012 
z
" style="fill:#2f9599;stroke:#ffffff;stroke-width:0.48;"/>
    <path clip-path="url(#p12967084ee)" d="M 188.121932 112.870848 
C 188.917541 112.870848 189.680671 112.554749 190.243252 111.992168 
C 190.805833 111.429588 191.121932 110.666457 191.121932 109.870848 
C 191.121932 109.075239 190.805833 108.312108 190.243252 107.749528 
C 189.680671 107.186947 188.917541 106.870848 188.121932 106.870848 
C 187.326323 106.870848 186.563192 107.186947 186.000611 107.749528 
C 185.438031 108.312108 185.121932 109.075239 185.121932 109.870848 
C 185.121932 110.666457 185.438031 111.429588 186.000611 111.992168 
C 186.563192 112.554749 187.326323 112.870848 188.121932 112.870848 
z
" style="fill:#2f9599;stroke:#ffffff;stroke-width:0.48;"/>
    <path clip-path="url(#p12967084ee)" d="M 228.70375 133.294588 
C 229.499359 133.294588 230.26249 132.978489 230.82507 132.415909 
C 231.387651 131.853328 231.70375 131.090198 231.70375 130.294588 
C 231.70375 129.498979 231.387651 128.735849 230.82507 128.173268 
C 230.26249 127.610687 229.499359 127.294588 228.70375 127.294588 
C 227.908141 127.294588 227.14501 127.610687 226.58243 128.173268 
C 226.019849 128.735849 225.70375 129.498979 225.70375 130.294588 
C 225.70375 131.090198 226.019849 131.853328 226.58243 132.415909 
C 227.14501 132.978489 227.908141 133.294588 228.70375 133.294588 
z
" style="fill:#2f9599;stroke:#ffffff;stroke-width:0.48;"/>
    <path clip-path="url(#p12967084ee)" d="M 269.285568 109.3872 
C 270.081177 109.3872 270.844308 109.071101 271.406889 108.50852 
C 271.969469 107.94594 272.285568 107.182809 272.285568 106.3872 
C 272.285568 105.591591 271.969469 104.82846 271.406889 104.26588 
C 270.844308 103.703299 270.081177 103.3872 269.285568 103.3872 
C 268.489959 103.3872 267.726829 103.703299 267.164248 104.26588 
C 266.601667 104.82846 266.285568 105.591591 266.285568 106.3872 
C 266.285568 107.182809 266.601667 107.94594 267.164248 108.50852 
C 267.726829 109.071101 268.489959 109.3872 269.285568 109.3872 
z
" style="fill:#2f9599;stroke:#ffffff;stroke-width:0.48;"/>
    <path clip-path="url(#p12967084ee)" d="M 309.867386 120.624774 
C 310.662996 120.624774 311.426126 120.308675 311.988707 119.746095 
C 312.551287 119.183514 312.867386 118.420383 312.867386 117.624774 
C 312.867386 116.829165 312.551287 116.066035 311.988707 115.503454 
C 311.426126 114.940873 310.662996 114.624774 309.867386 114.624774 
C 309.071777 114.624774 308.308647 114.940873 307.746066 115.503454 
C 307.183485 116.066035 306.867386 116.829165 306.867386 117.624774 
C 306.867386 118.420383 307.183485 119.183514 307.746066 119.746095 
C 308.308647 120.308675 309.071777 120.624774 309.867386 120.624774 
z
" style="fill:#2f9599;stroke:#ffffff;stroke-width:0.48;"/>
    <path clip-path="url(#p12967084ee)" d="M 389.531023 128.50478 
L 391.031023 127.00478 
L 392.531023 128.50478 
L 394.031023 127.00478 
L 392.531023 125.50478 
L 394.031023 124.00478 
L 392.531023 122.50478 
L 391.031023 124.00478 
L 389.531023 122.50478 
L 388.031023 124.00478 
L 389.531023 125.50478 
L 388.031023 127.00478 
z
" style="fill:#2f9599;stroke:#ffffff;stroke-width:0.48;"/>
    <path clip-path="url(#p12967084ee)" d="M 348.949205 36.08544 
L 350.449205 34.58544 
L 351.949205 36.08544 
L 353.449205 34.58544 
L 351.949205 33.08544 
L 353.449205 31.58544 
L 351.949205 30.08544 
L 350.449205 31.58544 
L 348.949205 30.08544 
L 347.449205 31.58544 
L 348.949205 33.08544 
L 347.449205 34.58544 
z
" style="fill:#2f9599;stroke:#ffffff;stroke-width:0.48;"/>
    <path clip-path="url(#p12967084ee)" d="M 64.876477 264.216 
L 66.376477 262.716 
L 67.876477 264.216 
L 69.376477 262.716 
L 67.876477 261.216 
L 69.376477 259.716 
L 67.876477 258.216 
L 66.376477 259.716 
L 64.876477 258.216 
L 63.376477 259.716 
L 64.876477 261.216 
L 63.376477 262.716 
z
" style="fill:#2f9599;stroke:#ffffff;stroke-width:0.48;"/>
    <path clip-path="url(#p12967084ee)" d="M 105.458295 178.613538 
L 106.958295 177.113538 
L 108.458295 178.613538 
L 109.958295 177.113538 
L 108.458295 175.613538 
L 109.958295 174.113538 
L 108.458295 172.613538 
L 106.958295 174.113538 
L 105.458295 172.613538 
L 103.958295 174.113538 
L 105.458295 175.613538 
L 103.958295 177.113538 
z
" style="fill:#2f9599;stroke:#ffffff;stroke-width:0.48;"/>
    <path clip-path="url(#p12967084ee)" d="M 146.040114 172.571012 
L 147.540114 171.071012 
L 149.040114 172.571012 
L 150.540114 171.071012 
L 149.040114 169.571012 
L 150.540114 168.071012 
L 149.040114 166.571012 
L 147.540114 168.071012 
L 146.040114 166.571012 
L 144.540114 168.071012 
L 146.040114 169.571012 
L 144.540114 171.071012 
z
" style="fill:#2f9599;stroke:#ffffff;stroke-width:0.48;"/>
    <path clip-path="url(#p12967084ee)" d="M 186.621932 112.870848 
L 188.121932 111.370848 
L 189.621932 112.870848 
L 191.121932 111.370848 
L 189.621932 109.870848 
L 191.121932 108.370848 
L 189.621932 106.870848 
L 188.121932 108.370848 
L 186.621932 106.870848 
L 185.121932 108.370848 
L 186.621932 109.870848 
L 185.121932 111.370848 
z
" style="fill:#2f9599;stroke:#ffffff;stroke-width:0.48;"/>
    <path clip-path="url(#p12967084ee)" d="M 227.20375 133.294588 
L 228.70375 131.794588 
L 230.20375 133.294588 
L 231.70375 131.794588 
L 230.20375 130.294588 
L 231.70375 128.794588 
L 230.20375 127.294588 
L 228.70375 128.794588 
L 227.20375 127.294588 
L 225.70375 128.794588 
L 227.20375 130.294588 
L 225.70375 131.794588 
z
" style="fill:#2f9599;stroke:#ffffff;stroke-width:0.48;"/>
    <path clip-path="url(#p12967084ee)" d="M 267.785568 69.4704 
L 269.285568 67.9704 
L 270.785568 69.4704 
L 272.285568 67.9704 
L 270.785568 66.4704 
L 272.285568 64.9704 
L 270.785568 63.4704 
L 269.285568 64.9704 
L 267.785568 63.4704 
L 266.285568 64.9704 
L 267.785568 66.4704 
L 266.285568 67.9704 
z
" style="fill:#2f9599;stroke:#ffffff;stroke-width:0.48;"/>
    <path clip-path="url(#p12967084ee)" d="M 308.367386 48.293373 
L 309.867386 46.793373 
L 311.367386 48.293373 
L 312.867386 46.793373 
L 311.367386 45.293373 
L 312.867386 43.793373 
L 311.367386 42.293373 
L 309.867386 43.793373 
L 308.367386 42.293373 
L 306.867386 43.793373 
L 308.367386 45.293373 
L 306.867386 46.793373 
z
" style="fill:#2f9599;stroke:#ffffff;stroke-width:0.48;"/>
   </g>
   <g id="PathCollection_2"/>
   <g id="PathCollection_3"/>
   <g id="PathCollection_4"/>
   <g id="PathCollection_5"/>
   <g id="matplotlib.axis_1">
    <g id="xtick_1">
     <g id="line2d_1">
      <defs>
       <path d="M 0 0 
L 0 3.5 
" id="me3d28b5447" style="stroke:#000000;stroke-width:0.8;"/>
      </defs>
      <g>
       <use style="stroke:#000000;stroke-width:0.8;" x="66.376477" xlink:href="#me3d28b5447" y="273.312"/>
      </g>
     </g>
     <g id="text_1">
      <!-- 20 -->
      <g transform="translate(60.013977 287.910437)scale(0.1 -0.1)">
       <defs>
        <path d="M 19.1875 8.296875 
L 53.609375 8.296875 
L 53.609375 0 
L 7.328125 0 
L 7.328125 8.296875 
Q 12.9375 14.109375 22.625 23.890625 
Q 32.328125 33.6875 34.8125 36.53125 
Q 39.546875 41.84375 41.421875 45.53125 
Q 43.3125 49.21875 43.3125 52.78125 
Q 43.3125 58.59375 39.234375 62.25 
Q 35.15625 65.921875 28.609375 65.921875 
Q 23.96875 65.921875 18.8125 64.3125 
Q 13.671875 62.703125 7.8125 59.421875 
L 7.8125 69.390625 
Q 13.765625 71.78125 18.9375 73 
Q 24.125 74.21875 28.421875 74.21875 
Q 39.75 74.21875 46.484375 68.546875 
Q 53.21875 62.890625 53.21875 53.421875 
Q 53.21875 48.921875 51.53125 44.890625 
Q 49.859375 40.875 45.40625 35.40625 
Q 44.1875 33.984375 37.640625 27.21875 
Q 31.109375 20.453125 19.1875 8.296875 
z
" id="DejaVuSans-50"/>
        <path d="M 31.78125 66.40625 
Q 24.171875 66.40625 20.328125 58.90625 
Q 16.5 51.421875 16.5 36.375 
Q 16.5 21.390625 20.328125 13.890625 
Q 24.171875 6.390625 31.78125 6.390625 
Q 39.453125 6.390625 43.28125 13.890625 
Q 47.125 21.390625 47.125 36.375 
Q 47.125 51.421875 43.28125 58.90625 
Q 39.453125 66.40625 31.78125 66.40625 
z
M 31.78125 74.21875 
Q 44.046875 74.21875 50.515625 64.515625 
Q 56.984375 54.828125 56.984375 36.375 
Q 56.984375 17.96875 50.515625 8.265625 
Q 44.046875 -1.421875 31.78125 -1.421875 
Q 19.53125 -1.421875 13.0625 8.265625 
Q 6.59375 17.96875 6.59375 36.375 
Q 6.59375 54.828125 13.0625 64.515625 
Q 19.53125 74.21875 31.78125 74.21875 
z
" id="DejaVuSans-48"/>
       </defs>
       <use xlink:href="#DejaVuSans-50"/>
       <use x="63.623047" xlink:href="#DejaVuSans-48"/>
      </g>
     </g>
    </g>
    <g id="xtick_2">
     <g id="line2d_2">
      <g>
       <use style="stroke:#000000;stroke-width:0.8;" x="106.958295" xlink:href="#me3d28b5447" y="273.312"/>
      </g>
     </g>
     <g id="text_2">
      <!-- 30 -->
      <g transform="translate(100.595795 287.910437)scale(0.1 -0.1)">
       <defs>
        <path d="M 40.578125 39.3125 
Q 47.65625 37.796875 51.625 33 
Q 55.609375 28.21875 55.609375 21.1875 
Q 55.609375 10.40625 48.1875 4.484375 
Q 40.765625 -1.421875 27.09375 -1.421875 
Q 22.515625 -1.421875 17.65625 -0.515625 
Q 12.796875 0.390625 7.625 2.203125 
L 7.625 11.71875 
Q 11.71875 9.328125 16.59375 8.109375 
Q 21.484375 6.890625 26.8125 6.890625 
Q 36.078125 6.890625 40.9375 10.546875 
Q 45.796875 14.203125 45.796875 21.1875 
Q 45.796875 27.640625 41.28125 31.265625 
Q 36.765625 34.90625 28.71875 34.90625 
L 20.21875 34.90625 
L 20.21875 43.015625 
L 29.109375 43.015625 
Q 36.375 43.015625 40.234375 45.921875 
Q 44.09375 48.828125 44.09375 54.296875 
Q 44.09375 59.90625 40.109375 62.90625 
Q 36.140625 65.921875 28.71875 65.921875 
Q 24.65625 65.921875 20.015625 65.03125 
Q 15.375 64.15625 9.8125 62.3125 
L 9.8125 71.09375 
Q 15.4375 72.65625 20.34375 73.4375 
Q 25.25 74.21875 29.59375 74.21875 
Q 40.828125 74.21875 47.359375 69.109375 
Q 53.90625 64.015625 53.90625 55.328125 
Q 53.90625 49.265625 50.4375 45.09375 
Q 46.96875 40.921875 40.578125 39.3125 
z
" id="DejaVuSans-51"/>
       </defs>
       <use xlink:href="#DejaVuSans-51"/>
       <use x="63.623047" xlink:href="#DejaVuSans-48"/>
      </g>
     </g>
    </g>
    <g id="xtick_3">
     <g id="line2d_3">
      <g>
       <use style="stroke:#000000;stroke-width:0.8;" x="147.540114" xlink:href="#me3d28b5447" y="273.312"/>
      </g>
     </g>
     <g id="text_3">
      <!-- 40 -->
      <g transform="translate(141.177614 287.910437)scale(0.1 -0.1)">
       <defs>
        <path d="M 37.796875 64.3125 
L 12.890625 25.390625 
L 37.796875 25.390625 
z
M 35.203125 72.90625 
L 47.609375 72.90625 
L 47.609375 25.390625 
L 58.015625 25.390625 
L 58.015625 17.1875 
L 47.609375 17.1875 
L 47.609375 0 
L 37.796875 0 
L 37.796875 17.1875 
L 4.890625 17.1875 
L 4.890625 26.703125 
z
" id="DejaVuSans-52"/>
       </defs>
       <use xlink:href="#DejaVuSans-52"/>
       <use x="63.623047" xlink:href="#DejaVuSans-48"/>
      </g>
     </g>
    </g>
    <g id="xtick_4">
     <g id="line2d_4">
      <g>
       <use style="stroke:#000000;stroke-width:0.8;" x="188.121932" xlink:href="#me3d28b5447" y="273.312"/>
      </g>
     </g>
     <g id="text_4">
      <!-- 50 -->
      <g transform="translate(181.759432 287.910437)scale(0.1 -0.1)">
       <defs>
        <path d="M 10.796875 72.90625 
L 49.515625 72.90625 
L 49.515625 64.59375 
L 19.828125 64.59375 
L 19.828125 46.734375 
Q 21.96875 47.46875 24.109375 47.828125 
Q 26.265625 48.1875 28.421875 48.1875 
Q 40.625 48.1875 47.75 41.5 
Q 54.890625 34.8125 54.890625 23.390625 
Q 54.890625 11.625 47.5625 5.09375 
Q 40.234375 -1.421875 26.90625 -1.421875 
Q 22.3125 -1.421875 17.546875 -0.640625 
Q 12.796875 0.140625 7.71875 1.703125 
L 7.71875 11.625 
Q 12.109375 9.234375 16.796875 8.0625 
Q 21.484375 6.890625 26.703125 6.890625 
Q 35.15625 6.890625 40.078125 11.328125 
Q 45.015625 15.765625 45.015625 23.390625 
Q 45.015625 31 40.078125 35.4375 
Q 35.15625 39.890625 26.703125 39.890625 
Q 22.75 39.890625 18.8125 39.015625 
Q 14.890625 38.140625 10.796875 36.28125 
z
" id="DejaVuSans-53"/>
       </defs>
       <use xlink:href="#DejaVuSans-53"/>
       <use x="63.623047" xlink:href="#DejaVuSans-48"/>
      </g>
     </g>
    </g>
    <g id="xtick_5">
     <g id="line2d_5">
      <g>
       <use style="stroke:#000000;stroke-width:0.8;" x="228.70375" xlink:href="#me3d28b5447" y="273.312"/>
      </g>
     </g>
     <g id="text_5">
      <!-- 70 -->
      <g transform="translate(222.34125 287.910437)scale(0.1 -0.1)">
       <defs>
        <path d="M 8.203125 72.90625 
L 55.078125 72.90625 
L 55.078125 68.703125 
L 28.609375 0 
L 18.3125 0 
L 43.21875 64.59375 
L 8.203125 64.59375 
z
" id="DejaVuSans-55"/>
       </defs>
       <use xlink:href="#DejaVuSans-55"/>
       <use x="63.623047" xlink:href="#DejaVuSans-48"/>
      </g>
     </g>
    </g>
    <g id="xtick_6">
     <g id="line2d_6">
      <g>
       <use style="stroke:#000000;stroke-width:0.8;" x="269.285568" xlink:href="#me3d28b5447" y="273.312"/>
      </g>
     </g>
     <g id="text_6">
      <!-- 100 -->
      <g transform="translate(259.741818 287.910437)scale(0.1 -0.1)">
       <defs>
        <path d="M 12.40625 8.296875 
L 28.515625 8.296875 
L 28.515625 63.921875 
L 10.984375 60.40625 
L 10.984375 69.390625 
L 28.421875 72.90625 
L 38.28125 72.90625 
L 38.28125 8.296875 
L 54.390625 8.296875 
L 54.390625 0 
L 12.40625 0 
z
" id="DejaVuSans-49"/>
       </defs>
       <use xlink:href="#DejaVuSans-49"/>
       <use x="63.623047" xlink:href="#DejaVuSans-48"/>
       <use x="127.246094" xlink:href="#DejaVuSans-48"/>
      </g>
     </g>
    </g>
    <g id="xtick_7">
     <g id="line2d_7">
      <g>
       <use style="stroke:#000000;stroke-width:0.8;" x="309.867386" xlink:href="#me3d28b5447" y="273.312"/>
      </g>
     </g>
     <g id="text_7">
      <!-- 150 -->
      <g transform="translate(300.323636 287.910437)scale(0.1 -0.1)">
       <use xlink:href="#DejaVuSans-49"/>
       <use x="63.623047" xlink:href="#DejaVuSans-53"/>
       <use x="127.246094" xlink:href="#DejaVuSans-48"/>
      </g>
     </g>
    </g>
    <g id="xtick_8">
     <g id="line2d_8">
      <g>
       <use style="stroke:#000000;stroke-width:0.8;" x="350.449205" xlink:href="#me3d28b5447" y="273.312"/>
      </g>
     </g>
     <g id="text_8">
      <!-- 200 -->
      <g transform="translate(340.905455 287.910437)scale(0.1 -0.1)">
       <use xlink:href="#DejaVuSans-50"/>
       <use x="63.623047" xlink:href="#DejaVuSans-48"/>
       <use x="127.246094" xlink:href="#DejaVuSans-48"/>
      </g>
     </g>
    </g>
    <g id="xtick_9">
     <g id="line2d_9">
      <g>
       <use style="stroke:#000000;stroke-width:0.8;" x="391.031023" xlink:href="#me3d28b5447" y="273.312"/>
      </g>
     </g>
     <g id="text_9">
      <!-- 200&lt; -->
      <g transform="translate(377.297429 287.910437)scale(0.1 -0.1)">
       <defs>
        <path d="M 73.1875 49.21875 
L 22.796875 31.296875 
L 73.1875 13.484375 
L 73.1875 4.59375 
L 10.59375 27.296875 
L 10.59375 35.40625 
L 73.1875 58.109375 
z
" id="DejaVuSans-60"/>
       </defs>
       <use xlink:href="#DejaVuSans-50"/>
       <use x="63.623047" xlink:href="#DejaVuSans-48"/>
       <use x="127.246094" xlink:href="#DejaVuSans-48"/>
       <use x="190.869141" xlink:href="#DejaVuSans-60"/>
      </g>
     </g>
    </g>
    <g id="text_10">
     <!-- nrows -->
     <g transform="translate(213.838906 301.588562)scale(0.1 -0.1)">
      <defs>
       <path d="M 54.890625 33.015625 
L 54.890625 0 
L 45.90625 0 
L 45.90625 32.71875 
Q 45.90625 40.484375 42.875 44.328125 
Q 39.84375 48.1875 33.796875 48.1875 
Q 26.515625 48.1875 22.3125 43.546875 
Q 18.109375 38.921875 18.109375 30.90625 
L 18.109375 0 
L 9.078125 0 
L 9.078125 54.6875 
L 18.109375 54.6875 
L 18.109375 46.1875 
Q 21.34375 51.125 25.703125 53.5625 
Q 30.078125 56 35.796875 56 
Q 45.21875 56 50.046875 50.171875 
Q 54.890625 44.34375 54.890625 33.015625 
z
" id="DejaVuSans-110"/>
       <path d="M 41.109375 46.296875 
Q 39.59375 47.171875 37.8125 47.578125 
Q 36.03125 48 33.890625 48 
Q 26.265625 48 22.1875 43.046875 
Q 18.109375 38.09375 18.109375 28.8125 
L 18.109375 0 
L 9.078125 0 
L 9.078125 54.6875 
L 18.109375 54.6875 
L 18.109375 46.1875 
Q 20.953125 51.171875 25.484375 53.578125 
Q 30.03125 56 36.53125 56 
Q 37.453125 56 38.578125 55.875 
Q 39.703125 55.765625 41.0625 55.515625 
z
" id="DejaVuSans-114"/>
       <path d="M 30.609375 48.390625 
Q 23.390625 48.390625 19.1875 42.75 
Q 14.984375 37.109375 14.984375 27.296875 
Q 14.984375 17.484375 19.15625 11.84375 
Q 23.34375 6.203125 30.609375 6.203125 
Q 37.796875 6.203125 41.984375 11.859375 
Q 46.1875 17.53125 46.1875 27.296875 
Q 46.1875 37.015625 41.984375 42.703125 
Q 37.796875 48.390625 30.609375 48.390625 
z
M 30.609375 56 
Q 42.328125 56 49.015625 48.375 
Q 55.71875 40.765625 55.71875 27.296875 
Q 55.71875 13.875 49.015625 6.21875 
Q 42.328125 -1.421875 30.609375 -1.421875 
Q 18.84375 -1.421875 12.171875 6.21875 
Q 5.515625 13.875 5.515625 27.296875 
Q 5.515625 40.765625 12.171875 48.375 
Q 18.84375 56 30.609375 56 
z
" id="DejaVuSans-111"/>
       <path d="M 4.203125 54.6875 
L 13.1875 54.6875 
L 24.421875 12.015625 
L 35.59375 54.6875 
L 46.1875 54.6875 
L 57.421875 12.015625 
L 68.609375 54.6875 
L 77.59375 54.6875 
L 63.28125 0 
L 52.6875 0 
L 40.921875 44.828125 
L 29.109375 0 
L 18.5 0 
z
" id="DejaVuSans-119"/>
       <path d="M 44.28125 53.078125 
L 44.28125 44.578125 
Q 40.484375 46.53125 36.375 47.5 
Q 32.28125 48.484375 27.875 48.484375 
Q 21.1875 48.484375 17.84375 46.4375 
Q 14.5 44.390625 14.5 40.28125 
Q 14.5 37.15625 16.890625 35.375 
Q 19.28125 33.59375 26.515625 31.984375 
L 29.59375 31.296875 
Q 39.15625 29.25 43.1875 25.515625 
Q 47.21875 21.78125 47.21875 15.09375 
Q 47.21875 7.46875 41.1875 3.015625 
Q 35.15625 -1.421875 24.609375 -1.421875 
Q 20.21875 -1.421875 15.453125 -0.5625 
Q 10.6875 0.296875 5.421875 2 
L 5.421875 11.28125 
Q 10.40625 8.6875 15.234375 7.390625 
Q 20.0625 6.109375 24.8125 6.109375 
Q 31.15625 6.109375 34.5625 8.28125 
Q 37.984375 10.453125 37.984375 14.40625 
Q 37.984375 18.0625 35.515625 20.015625 
Q 33.0625 21.96875 24.703125 23.78125 
L 21.578125 24.515625 
Q 13.234375 26.265625 9.515625 29.90625 
Q 5.8125 33.546875 5.8125 39.890625 
Q 5.8125 47.609375 11.28125 51.796875 
Q 16.75 56 26.8125 56 
Q 31.78125 56 36.171875 55.265625 
Q 40.578125 54.546875 44.28125 53.078125 
z
" id="DejaVuSans-115"/>
      </defs>
      <use xlink:href="#DejaVuSans-110"/>
      <use x="63.378906" xlink:href="#DejaVuSans-114"/>
      <use x="102.242188" xlink:href="#DejaVuSans-111"/>
      <use x="163.423828" xlink:href="#DejaVuSans-119"/>
      <use x="245.210938" xlink:href="#DejaVuSans-115"/>
     </g>
    </g>
   </g>
   <g id="matplotlib.axis_2">
    <g id="ytick_1">
     <g id="line2d_10">
      <defs>
       <path d="M 0 0 
L -3.5 0 
" id="m1673179589" style="stroke:#000000;stroke-width:0.8;"/>
      </defs>
      <g>
       <use style="stroke:#000000;stroke-width:0.8;" x="50.14375" xlink:href="#m1673179589" y="250.08768"/>
      </g>
     </g>
     <g id="text_11">
      <!-- 0.35 -->
      <g transform="translate(20.878125 253.886899)scale(0.1 -0.1)">
       <defs>
        <path d="M 10.6875 12.40625 
L 21 12.40625 
L 21 0 
L 10.6875 0 
z
" id="DejaVuSans-46"/>
       </defs>
       <use xlink:href="#DejaVuSans-48"/>
       <use x="63.623047" xlink:href="#DejaVuSans-46"/>
       <use x="95.410156" xlink:href="#DejaVuSans-51"/>
       <use x="159.033203" xlink:href="#DejaVuSans-53"/>
      </g>
     </g>
    </g>
    <g id="ytick_2">
     <g id="line2d_11">
      <g>
       <use style="stroke:#000000;stroke-width:0.8;" x="50.14375" xlink:href="#m1673179589" y="216.70272"/>
      </g>
     </g>
     <g id="text_12">
      <!-- 0.40 -->
      <g transform="translate(20.878125 220.501939)scale(0.1 -0.1)">
       <use xlink:href="#DejaVuSans-48"/>
       <use x="63.623047" xlink:href="#DejaVuSans-46"/>
       <use x="95.410156" xlink:href="#DejaVuSans-52"/>
       <use x="159.033203" xlink:href="#DejaVuSans-48"/>
      </g>
     </g>
    </g>
    <g id="ytick_3">
     <g id="line2d_12">
      <g>
       <use style="stroke:#000000;stroke-width:0.8;" x="50.14375" xlink:href="#m1673179589" y="183.31776"/>
      </g>
     </g>
     <g id="text_13">
      <!-- 0.45 -->
      <g transform="translate(20.878125 187.116979)scale(0.1 -0.1)">
       <use xlink:href="#DejaVuSans-48"/>
       <use x="63.623047" xlink:href="#DejaVuSans-46"/>
       <use x="95.410156" xlink:href="#DejaVuSans-52"/>
       <use x="159.033203" xlink:href="#DejaVuSans-53"/>
      </g>
     </g>
    </g>
    <g id="ytick_4">
     <g id="line2d_13">
      <g>
       <use style="stroke:#000000;stroke-width:0.8;" x="50.14375" xlink:href="#m1673179589" y="149.9328"/>
      </g>
     </g>
     <g id="text_14">
      <!-- 0.50 -->
      <g transform="translate(20.878125 153.732019)scale(0.1 -0.1)">
       <use xlink:href="#DejaVuSans-48"/>
       <use x="63.623047" xlink:href="#DejaVuSans-46"/>
       <use x="95.410156" xlink:href="#DejaVuSans-53"/>
       <use x="159.033203" xlink:href="#DejaVuSans-48"/>
      </g>
     </g>
    </g>
    <g id="ytick_5">
     <g id="line2d_14">
      <g>
       <use style="stroke:#000000;stroke-width:0.8;" x="50.14375" xlink:href="#m1673179589" y="116.54784"/>
      </g>
     </g>
     <g id="text_15">
      <!-- 0.55 -->
      <g transform="translate(20.878125 120.347059)scale(0.1 -0.1)">
       <use xlink:href="#DejaVuSans-48"/>
       <use x="63.623047" xlink:href="#DejaVuSans-46"/>
       <use x="95.410156" xlink:href="#DejaVuSans-53"/>
       <use x="159.033203" xlink:href="#DejaVuSans-53"/>
      </g>
     </g>
    </g>
    <g id="ytick_6">
     <g id="line2d_15">
      <g>
       <use style="stroke:#000000;stroke-width:0.8;" x="50.14375" xlink:href="#m1673179589" y="83.16288"/>
      </g>
     </g>
     <g id="text_16">
      <!-- 0.60 -->
      <g transform="translate(20.878125 86.962099)scale(0.1 -0.1)">
       <defs>
        <path d="M 33.015625 40.375 
Q 26.375 40.375 22.484375 35.828125 
Q 18.609375 31.296875 18.609375 23.390625 
Q 18.609375 15.53125 22.484375 10.953125 
Q 26.375 6.390625 33.015625 6.390625 
Q 39.65625 6.390625 43.53125 10.953125 
Q 47.40625 15.53125 47.40625 23.390625 
Q 47.40625 31.296875 43.53125 35.828125 
Q 39.65625 40.375 33.015625 40.375 
z
M 52.59375 71.296875 
L 52.59375 62.3125 
Q 48.875 64.0625 45.09375 64.984375 
Q 41.3125 65.921875 37.59375 65.921875 
Q 27.828125 65.921875 22.671875 59.328125 
Q 17.53125 52.734375 16.796875 39.40625 
Q 19.671875 43.65625 24.015625 45.921875 
Q 28.375 48.1875 33.59375 48.1875 
Q 44.578125 48.1875 50.953125 41.515625 
Q 57.328125 34.859375 57.328125 23.390625 
Q 57.328125 12.15625 50.6875 5.359375 
Q 44.046875 -1.421875 33.015625 -1.421875 
Q 20.359375 -1.421875 13.671875 8.265625 
Q 6.984375 17.96875 6.984375 36.375 
Q 6.984375 53.65625 15.1875 63.9375 
Q 23.390625 74.21875 37.203125 74.21875 
Q 40.921875 74.21875 44.703125 73.484375 
Q 48.484375 72.75 52.59375 71.296875 
z
" id="DejaVuSans-54"/>
       </defs>
       <use xlink:href="#DejaVuSans-48"/>
       <use x="63.623047" xlink:href="#DejaVuSans-46"/>
       <use x="95.410156" xlink:href="#DejaVuSans-54"/>
       <use x="159.033203" xlink:href="#DejaVuSans-48"/>
      </g>
     </g>
    </g>
    <g id="ytick_7">
     <g id="line2d_16">
      <g>
       <use style="stroke:#000000;stroke-width:0.8;" x="50.14375" xlink:href="#m1673179589" y="49.77792"/>
      </g>
     </g>
     <g id="text_17">
      <!-- 0.65 -->
      <g transform="translate(20.878125 53.577139)scale(0.1 -0.1)">
       <use xlink:href="#DejaVuSans-48"/>
       <use x="63.623047" xlink:href="#DejaVuSans-46"/>
       <use x="95.410156" xlink:href="#DejaVuSans-54"/>
       <use x="159.033203" xlink:href="#DejaVuSans-53"/>
      </g>
     </g>
    </g>
    <g id="ytick_8">
     <g id="line2d_17">
      <g>
       <use style="stroke:#000000;stroke-width:0.8;" x="50.14375" xlink:href="#m1673179589" y="16.39296"/>
      </g>
     </g>
     <g id="text_18">
      <!-- 0.70 -->
      <g transform="translate(20.878125 20.192179)scale(0.1 -0.1)">
       <use xlink:href="#DejaVuSans-48"/>
       <use x="63.623047" xlink:href="#DejaVuSans-46"/>
       <use x="95.410156" xlink:href="#DejaVuSans-55"/>
       <use x="159.033203" xlink:href="#DejaVuSans-48"/>
      </g>
     </g>
    </g>
    <g id="text_19">
     <!-- score -->
     <g transform="translate(14.798438 153.688812)rotate(-90)scale(0.1 -0.1)">
      <defs>
       <path d="M 48.78125 52.59375 
L 48.78125 44.1875 
Q 44.96875 46.296875 41.140625 47.34375 
Q 37.3125 48.390625 33.40625 48.390625 
Q 24.65625 48.390625 19.8125 42.84375 
Q 14.984375 37.3125 14.984375 27.296875 
Q 14.984375 17.28125 19.8125 11.734375 
Q 24.65625 6.203125 33.40625 6.203125 
Q 37.3125 6.203125 41.140625 7.25 
Q 44.96875 8.296875 48.78125 10.40625 
L 48.78125 2.09375 
Q 45.015625 0.34375 40.984375 -0.53125 
Q 36.96875 -1.421875 32.421875 -1.421875 
Q 20.0625 -1.421875 12.78125 6.34375 
Q 5.515625 14.109375 5.515625 27.296875 
Q 5.515625 40.671875 12.859375 48.328125 
Q 20.21875 56 33.015625 56 
Q 37.15625 56 41.109375 55.140625 
Q 45.0625 54.296875 48.78125 52.59375 
z
" id="DejaVuSans-99"/>
       <path d="M 56.203125 29.59375 
L 56.203125 25.203125 
L 14.890625 25.203125 
Q 15.484375 15.921875 20.484375 11.0625 
Q 25.484375 6.203125 34.421875 6.203125 
Q 39.59375 6.203125 44.453125 7.46875 
Q 49.3125 8.734375 54.109375 11.28125 
L 54.109375 2.78125 
Q 49.265625 0.734375 44.1875 -0.34375 
Q 39.109375 -1.421875 33.890625 -1.421875 
Q 20.796875 -1.421875 13.15625 6.1875 
Q 5.515625 13.8125 5.515625 26.8125 
Q 5.515625 40.234375 12.765625 48.109375 
Q 20.015625 56 32.328125 56 
Q 43.359375 56 49.78125 48.890625 
Q 56.203125 41.796875 56.203125 29.59375 
z
M 47.21875 32.234375 
Q 47.125 39.59375 43.09375 43.984375 
Q 39.0625 48.390625 32.421875 48.390625 
Q 24.90625 48.390625 20.390625 44.140625 
Q 15.875 39.890625 15.1875 32.171875 
z
" id="DejaVuSans-101"/>
      </defs>
      <use xlink:href="#DejaVuSans-115"/>
      <use x="52.099609" xlink:href="#DejaVuSans-99"/>
      <use x="107.080078" xlink:href="#DejaVuSans-111"/>
      <use x="168.261719" xlink:href="#DejaVuSans-114"/>
      <use x="207.125" xlink:href="#DejaVuSans-101"/>
     </g>
    </g>
   </g>
   <g id="line2d_18">
    <path clip-path="url(#p12967084ee)" d="M 66.376477 261.216 
L 106.958295 175.613538 
L 147.540114 169.571012 
L 188.121932 109.870848 
L 228.70375 130.294588 
L 269.285568 106.3872 
L 309.867386 117.624774 
L 350.449205 92.065536 
L 391.031023 19.296 
" style="fill:none;stroke:#f26b38;stroke-dasharray:7.4,3.2;stroke-dashoffset:0;stroke-width:2;"/>
   </g>
   <g id="line2d_19">
    <path clip-path="url(#p12967084ee)" d="M 66.376477 261.216 
L 106.958295 175.613538 
L 147.540114 169.571012 
L 188.121932 109.870848 
L 228.70375 130.294588 
L 269.285568 66.4704 
L 309.867386 45.293373 
L 350.449205 33.08544 
L 391.031023 125.50478 
" style="fill:none;stroke:#f26b38;stroke-dasharray:7.4,3.2;stroke-dashoffset:0;stroke-width:2;"/>
   </g>
   <g id="line2d_20">
    <path clip-path="url(#p12967084ee)" d="M 66.376477 261.216 
L 106.958295 175.613538 
L 147.540114 169.571012 
L 188.121932 109.870848 
L 228.70375 130.294588 
L 269.285568 106.3872 
L 309.867386 117.624774 
L 350.449205 92.065536 
L 391.031023 19.296 
" style="fill:none;stroke:#2f9599;stroke-dasharray:2,3.3;stroke-dashoffset:0;stroke-width:2;"/>
   </g>
   <g id="line2d_21">
    <path clip-path="url(#p12967084ee)" d="M 66.376477 261.216 
L 106.958295 175.613538 
L 147.540114 169.571012 
L 188.121932 109.870848 
L 228.70375 130.294588 
L 269.285568 66.4704 
L 309.867386 45.293373 
L 350.449205 33.08544 
L 391.031023 125.50478 
" style="fill:none;stroke:#2f9599;stroke-dasharray:2,3.3;stroke-dashoffset:0;stroke-width:2;"/>
   </g>
   <g id="patch_3">
    <path d="M 50.14375 273.312 
L 50.14375 7.2 
" style="fill:none;stroke:#000000;stroke-linecap:square;stroke-linejoin:miter;stroke-width:0.8;"/>
   </g>
   <g id="patch_4">
    <path d="M 407.26375 273.312 
L 407.26375 7.2 
" style="fill:none;stroke:#000000;stroke-linecap:square;stroke-linejoin:miter;stroke-width:0.8;"/>
   </g>
   <g id="patch_5">
    <path d="M 50.14375 273.312 
L 407.26375 273.312 
" style="fill:none;stroke:#000000;stroke-linecap:square;stroke-linejoin:miter;stroke-width:0.8;"/>
   </g>
   <g id="patch_6">
    <path d="M 50.14375 7.2 
L 407.26375 7.2 
" style="fill:none;stroke:#000000;stroke-linecap:square;stroke-linejoin:miter;stroke-width:0.8;"/>
   </g>
   <g id="legend_1">
    <g id="patch_7">
     <path d="M 55.00175 73.871712 
L 107.747919 73.871712 
Q 109.135919 73.871712 109.135919 72.483712 
L 109.135919 12.058 
Q 109.135919 10.67 107.747919 10.67 
L 55.00175 10.67 
Q 53.61375 10.67 53.61375 12.058 
L 53.61375 72.483712 
Q 53.61375 73.871712 55.00175 73.871712 
z
" style="fill:#ffffff;opacity:0.8;stroke:#cccccc;stroke-linejoin:miter;"/>
    </g>
    <g id="text_20">
     <!-- pred -->
     <g transform="translate(75.82175 18.719316)scale(0.0694 -0.0694)">
      <defs>
       <path d="M 18.109375 8.203125 
L 18.109375 -20.796875 
L 9.078125 -20.796875 
L 9.078125 54.6875 
L 18.109375 54.6875 
L 18.109375 46.390625 
Q 20.953125 51.265625 25.265625 53.625 
Q 29.59375 56 35.59375 56 
Q 45.5625 56 51.78125 48.09375 
Q 58.015625 40.1875 58.015625 27.296875 
Q 58.015625 14.40625 51.78125 6.484375 
Q 45.5625 -1.421875 35.59375 -1.421875 
Q 29.59375 -1.421875 25.265625 0.953125 
Q 20.953125 3.328125 18.109375 8.203125 
z
M 48.6875 27.296875 
Q 48.6875 37.203125 44.609375 42.84375 
Q 40.53125 48.484375 33.40625 48.484375 
Q 26.265625 48.484375 22.1875 42.84375 
Q 18.109375 37.203125 18.109375 27.296875 
Q 18.109375 17.390625 22.1875 11.75 
Q 26.265625 6.109375 33.40625 6.109375 
Q 40.53125 6.109375 44.609375 11.75 
Q 48.6875 17.390625 48.6875 27.296875 
z
" id="DejaVuSans-112"/>
       <path d="M 45.40625 46.390625 
L 45.40625 75.984375 
L 54.390625 75.984375 
L 54.390625 0 
L 45.40625 0 
L 45.40625 8.203125 
Q 42.578125 3.328125 38.25 0.953125 
Q 33.9375 -1.421875 27.875 -1.421875 
Q 17.96875 -1.421875 11.734375 6.484375 
Q 5.515625 14.40625 5.515625 27.296875 
Q 5.515625 40.1875 11.734375 48.09375 
Q 17.96875 56 27.875 56 
Q 33.9375 56 38.25 53.625 
Q 42.578125 51.265625 45.40625 46.390625 
z
M 14.796875 27.296875 
Q 14.796875 17.390625 18.875 11.75 
Q 22.953125 6.109375 30.078125 6.109375 
Q 37.203125 6.109375 41.296875 11.75 
Q 45.40625 17.390625 45.40625 27.296875 
Q 45.40625 37.203125 41.296875 42.84375 
Q 37.203125 48.484375 30.078125 48.484375 
Q 22.953125 48.484375 18.875 42.84375 
Q 14.796875 37.203125 14.796875 27.296875 
z
" id="DejaVuSans-100"/>
      </defs>
      <use xlink:href="#DejaVuSans-112"/>
      <use x="63.476562" xlink:href="#DejaVuSans-114"/>
      <use x="102.339844" xlink:href="#DejaVuSans-101"/>
      <use x="163.863281" xlink:href="#DejaVuSans-100"/>
     </g>
    </g>
    <g id="PathCollection_6">
     <defs>
      <path d="M 0 3 
C 0.795609 3 1.55874 2.683901 2.12132 2.12132 
C 2.683901 1.55874 3 0.795609 3 0 
C 3 -0.795609 2.683901 -1.55874 2.12132 -2.12132 
C 1.55874 -2.683901 0.795609 -3 0 -3 
C -0.795609 -3 -1.55874 -2.683901 -2.12132 -2.12132 
C -2.683901 -1.55874 -3 -0.795609 -3 0 
C -3 0.795609 -2.683901 1.55874 -2.12132 2.12132 
C -1.55874 2.683901 -0.795609 3 0 3 
z
" id="mc5cefc485e" style="stroke:#f26b38;"/>
     </defs>
     <g>
      <use style="fill:#f26b38;stroke:#f26b38;" x="63.32975" xlink:href="#mc5cefc485e" y="27.084184"/>
     </g>
    </g>
    <g id="text_21">
     <!-- estimate -->
     <g transform="translate(75.82175 28.905934)scale(0.0694 -0.0694)">
      <defs>
       <path d="M 18.3125 70.21875 
L 18.3125 54.6875 
L 36.8125 54.6875 
L 36.8125 47.703125 
L 18.3125 47.703125 
L 18.3125 18.015625 
Q 18.3125 11.328125 20.140625 9.421875 
Q 21.96875 7.515625 27.59375 7.515625 
L 36.8125 7.515625 
L 36.8125 0 
L 27.59375 0 
Q 17.1875 0 13.234375 3.875 
Q 9.28125 7.765625 9.28125 18.015625 
L 9.28125 47.703125 
L 2.6875 47.703125 
L 2.6875 54.6875 
L 9.28125 54.6875 
L 9.28125 70.21875 
z
" id="DejaVuSans-116"/>
       <path d="M 9.421875 54.6875 
L 18.40625 54.6875 
L 18.40625 0 
L 9.421875 0 
z
M 9.421875 75.984375 
L 18.40625 75.984375 
L 18.40625 64.59375 
L 9.421875 64.59375 
z
" id="DejaVuSans-105"/>
       <path d="M 52 44.1875 
Q 55.375 50.25 60.0625 53.125 
Q 64.75 56 71.09375 56 
Q 79.640625 56 84.28125 50.015625 
Q 88.921875 44.046875 88.921875 33.015625 
L 88.921875 0 
L 79.890625 0 
L 79.890625 32.71875 
Q 79.890625 40.578125 77.09375 44.375 
Q 74.3125 48.1875 68.609375 48.1875 
Q 61.625 48.1875 57.5625 43.546875 
Q 53.515625 38.921875 53.515625 30.90625 
L 53.515625 0 
L 44.484375 0 
L 44.484375 32.71875 
Q 44.484375 40.625 41.703125 44.40625 
Q 38.921875 48.1875 33.109375 48.1875 
Q 26.21875 48.1875 22.15625 43.53125 
Q 18.109375 38.875 18.109375 30.90625 
L 18.109375 0 
L 9.078125 0 
L 9.078125 54.6875 
L 18.109375 54.6875 
L 18.109375 46.1875 
Q 21.1875 51.21875 25.484375 53.609375 
Q 29.78125 56 35.6875 56 
Q 41.65625 56 45.828125 52.96875 
Q 50 49.953125 52 44.1875 
z
" id="DejaVuSans-109"/>
       <path d="M 34.28125 27.484375 
Q 23.390625 27.484375 19.1875 25 
Q 14.984375 22.515625 14.984375 16.5 
Q 14.984375 11.71875 18.140625 8.90625 
Q 21.296875 6.109375 26.703125 6.109375 
Q 34.1875 6.109375 38.703125 11.40625 
Q 43.21875 16.703125 43.21875 25.484375 
L 43.21875 27.484375 
z
M 52.203125 31.203125 
L 52.203125 0 
L 43.21875 0 
L 43.21875 8.296875 
Q 40.140625 3.328125 35.546875 0.953125 
Q 30.953125 -1.421875 24.3125 -1.421875 
Q 15.921875 -1.421875 10.953125 3.296875 
Q 6 8.015625 6 15.921875 
Q 6 25.140625 12.171875 29.828125 
Q 18.359375 34.515625 30.609375 34.515625 
L 43.21875 34.515625 
L 43.21875 35.40625 
Q 43.21875 41.609375 39.140625 45 
Q 35.0625 48.390625 27.6875 48.390625 
Q 23 48.390625 18.546875 47.265625 
Q 14.109375 46.140625 10.015625 43.890625 
L 10.015625 52.203125 
Q 14.9375 54.109375 19.578125 55.046875 
Q 24.21875 56 28.609375 56 
Q 40.484375 56 46.34375 49.84375 
Q 52.203125 43.703125 52.203125 31.203125 
z
" id="DejaVuSans-97"/>
      </defs>
      <use xlink:href="#DejaVuSans-101"/>
      <use x="61.523438" xlink:href="#DejaVuSans-115"/>
      <use x="113.623047" xlink:href="#DejaVuSans-116"/>
      <use x="152.832031" xlink:href="#DejaVuSans-105"/>
      <use x="180.615234" xlink:href="#DejaVuSans-109"/>
      <use x="278.027344" xlink:href="#DejaVuSans-97"/>
      <use x="339.306641" xlink:href="#DejaVuSans-116"/>
      <use x="378.515625" xlink:href="#DejaVuSans-101"/>
     </g>
    </g>
    <g id="PathCollection_7">
     <defs>
      <path d="M 0 3 
C 0.795609 3 1.55874 2.683901 2.12132 2.12132 
C 2.683901 1.55874 3 0.795609 3 0 
C 3 -0.795609 2.683901 -1.55874 2.12132 -2.12132 
C 1.55874 -2.683901 0.795609 -3 0 -3 
C -0.795609 -3 -1.55874 -2.683901 -2.12132 -2.12132 
C -2.683901 -1.55874 -3 -0.795609 -3 0 
C -3 0.795609 -2.683901 1.55874 -2.12132 2.12132 
C -1.55874 2.683901 -0.795609 3 0 3 
z
" id="m141953f622" style="stroke:#2f9599;"/>
     </defs>
     <g>
      <use style="fill:#2f9599;stroke:#2f9599;" x="63.32975" xlink:href="#m141953f622" y="37.270803"/>
     </g>
    </g>
    <g id="text_22">
     <!-- exact -->
     <g transform="translate(75.82175 39.092553)scale(0.0694 -0.0694)">
      <defs>
       <path d="M 54.890625 54.6875 
L 35.109375 28.078125 
L 55.90625 0 
L 45.3125 0 
L 29.390625 21.484375 
L 13.484375 0 
L 2.875 0 
L 24.125 28.609375 
L 4.6875 54.6875 
L 15.28125 54.6875 
L 29.78125 35.203125 
L 44.28125 54.6875 
z
" id="DejaVuSans-120"/>
      </defs>
      <use xlink:href="#DejaVuSans-101"/>
      <use x="59.773438" xlink:href="#DejaVuSans-120"/>
      <use x="118.953125" xlink:href="#DejaVuSans-97"/>
      <use x="180.232422" xlink:href="#DejaVuSans-99"/>
      <use x="235.212891" xlink:href="#DejaVuSans-116"/>
     </g>
    </g>
    <g id="text_23">
     <!-- dist -->
     <g transform="translate(75.82175 49.279172)scale(0.0694 -0.0694)">
      <use xlink:href="#DejaVuSans-100"/>
      <use x="63.476562" xlink:href="#DejaVuSans-105"/>
      <use x="91.259766" xlink:href="#DejaVuSans-115"/>
      <use x="143.359375" xlink:href="#DejaVuSans-116"/>
     </g>
    </g>
    <g id="PathCollection_8">
     <defs>
      <path d="M 0 3 
C 0.795609 3 1.55874 2.683901 2.12132 2.12132 
C 2.683901 1.55874 3 0.795609 3 0 
C 3 -0.795609 2.683901 -1.55874 2.12132 -2.12132 
C 1.55874 -2.683901 0.795609 -3 0 -3 
C -0.795609 -3 -1.55874 -2.683901 -2.12132 -2.12132 
C -2.683901 -1.55874 -3 -0.795609 -3 0 
C -3 0.795609 -2.683901 1.55874 -2.12132 2.12132 
C -1.55874 2.683901 -0.795609 3 0 3 
z
" id="mfdb3af675b" style="stroke:#333333;"/>
     </defs>
     <g>
      <use style="fill:#333333;stroke:#333333;" x="63.32975" xlink:href="#mfdb3af675b" y="57.644041"/>
     </g>
    </g>
    <g id="text_24">
     <!-- pva -->
     <g transform="translate(75.82175 59.465791)scale(0.0694 -0.0694)">
      <defs>
       <path d="M 2.984375 54.6875 
L 12.5 54.6875 
L 29.59375 8.796875 
L 46.6875 54.6875 
L 56.203125 54.6875 
L 35.6875 0 
L 23.484375 0 
z
" id="DejaVuSans-118"/>
      </defs>
      <use xlink:href="#DejaVuSans-112"/>
      <use x="63.476562" xlink:href="#DejaVuSans-118"/>
      <use x="122.65625" xlink:href="#DejaVuSans-97"/>
     </g>
    </g>
    <g id="PathCollection_9">
     <defs>
      <path d="M -1.5 3 
L 0 1.5 
L 1.5 3 
L 3 1.5 
L 1.5 0 
L 3 -1.5 
L 1.5 -3 
L 0 -1.5 
L -1.5 -3 
L -3 -1.5 
L -1.5 0 
L -3 1.5 
z
" id="m6ab37e51fd" style="stroke:#333333;"/>
     </defs>
     <g>
      <use style="fill:#333333;stroke:#333333;" x="63.32975" xlink:href="#m6ab37e51fd" y="67.830659"/>
     </g>
    </g>
    <g id="text_25">
     <!-- sup -->
     <g transform="translate(75.82175 69.652409)scale(0.0694 -0.0694)">
      <defs>
       <path d="M 8.5 21.578125 
L 8.5 54.6875 
L 17.484375 54.6875 
L 17.484375 21.921875 
Q 17.484375 14.15625 20.5 10.265625 
Q 23.53125 6.390625 29.59375 6.390625 
Q 36.859375 6.390625 41.078125 11.03125 
Q 45.3125 15.671875 45.3125 23.6875 
L 45.3125 54.6875 
L 54.296875 54.6875 
L 54.296875 0 
L 45.3125 0 
L 45.3125 8.40625 
Q 42.046875 3.421875 37.71875 1 
Q 33.40625 -1.421875 27.6875 -1.421875 
Q 18.265625 -1.421875 13.375 4.4375 
Q 8.5 10.296875 8.5 21.578125 
z
M 31.109375 56 
z
" id="DejaVuSans-117"/>
      </defs>
      <use xlink:href="#DejaVuSans-115"/>
      <use x="52.099609" xlink:href="#DejaVuSans-117"/>
      <use x="115.478516" xlink:href="#DejaVuSans-112"/>
     </g>
    </g>
   </g>
  </g>
 </g>
 <defs>
  <clipPath id="p12967084ee">
   <rect height="266.112" width="357.12" x="50.14375" y="7.2"/>
  </clipPath>
 </defs>
</svg>
