<?xml version="1.0" encoding="utf-8" standalone="no"?>
<!DOCTYPE svg PUBLIC "-//W3C//DTD SVG 1.1//EN"
  "http://www.w3.org/Graphics/SVG/1.1/DTD/svg11.dtd">
<!-- Created with matplotlib (https://matplotlib.org/) -->
<svg height="310.86825pt" version="1.1" viewBox="0 0 420.82625 310.86825" width="420.82625pt" xmlns="http://www.w3.org/2000/svg" xmlns:xlink="http://www.w3.org/1999/xlink">
 <metadata>
  <rdf:RDF xmlns:cc="http://creativecommons.org/ns#" xmlns:dc="http://purl.org/dc/elements/1.1/" xmlns:rdf="http://www.w3.org/1999/02/22-rdf-syntax-ns#">
   <cc:Work>
    <dc:type rdf:resource="http://purl.org/dc/dcmitype/StillImage"/>
    <dc:date>2022-04-11T15:54:53.250933</dc:date>
    <dc:format>image/svg+xml</dc:format>
    <dc:creator>
     <cc:Agent>
      <dc:title>Matplotlib v3.3.4, https://matplotlib.org/</dc:title>
     </cc:Agent>
    </dc:creator>
   </cc:Work>
  </rdf:RDF>
 </metadata>
 <defs>
  <style type="text/css">*{stroke-linecap:butt;stroke-linejoin:round;}</style>
 </defs>
 <g id="figure_1">
  <g id="patch_1">
   <path d="M 0 310.86825 
L 420.82625 310.86825 
L 420.82625 0 
L 0 0 
z
" style="fill:#ffffff;"/>
  </g>
  <g id="axes_1">
   <g id="patch_2">
    <path d="M 56.50625 273.312 
L 413.62625 273.312 
L 413.62625 7.2 
L 56.50625 7.2 
z
" style="fill:#ffffff;"/>
   </g>
   <g id="PathCollection_1">
    <path clip-path="url(#p5f92ab6733)" d="M 72.738977 80.8944 
C 73.534587 80.8944 74.297717 80.578301 74.860298 80.01572 
C 75.422878 79.45314 75.738977 78.690009 75.738977 77.8944 
C 75.738977 77.098791 75.422878 76.33566 74.860298 75.77308 
C 74.297717 75.210499 73.534587 74.8944 72.738977 74.8944 
C 71.943368 74.8944 71.180238 75.210499 70.617657 75.77308 
C 70.055076 76.33566 69.738977 77.098791 69.738977 77.8944 
C 69.738977 78.690009 70.055076 79.45314 70.617657 80.01572 
C 71.180238 80.578301 71.943368 80.8944 72.738977 80.8944 
z
" style="fill:#f26b38;stroke:#ffffff;stroke-width:0.48;"/>
    <path clip-path="url(#p5f92ab6733)" d="M 79.502614 65.881587 
C 80.298223 65.881587 81.061353 65.565488 81.623934 65.002907 
C 82.186515 64.440326 82.502614 63.677196 82.502614 62.881587 
C 82.502614 62.085977 82.186515 61.322847 81.623934 60.760266 
C 81.061353 60.197686 80.298223 59.881587 79.502614 59.881587 
C 78.707004 59.881587 77.943874 60.197686 77.381293 60.760266 
C 76.818713 61.322847 76.502614 62.085977 76.502614 62.881587 
C 76.502614 63.677196 76.818713 64.440326 77.381293 65.002907 
C 77.943874 65.565488 78.707004 65.881587 79.502614 65.881587 
z
" style="fill:#f26b38;stroke:#ffffff;stroke-width:0.48;"/>
    <path clip-path="url(#p5f92ab6733)" d="M 86.26625 36.588293 
C 87.061859 36.588293 87.82499 36.272194 88.38757 35.709613 
C 88.950151 35.147032 89.26625 34.383902 89.26625 33.588293 
C 89.26625 32.792683 88.950151 32.029553 88.38757 31.466972 
C 87.82499 30.904392 87.061859 30.588293 86.26625 30.588293 
C 85.470641 30.588293 84.70751 30.904392 84.14493 31.466972 
C 83.582349 32.029553 83.26625 32.792683 83.26625 33.588293 
C 83.26625 34.383902 83.582349 35.147032 84.14493 35.709613 
C 84.70751 36.272194 85.470641 36.588293 86.26625 36.588293 
z
" style="fill:#f26b38;stroke:#ffffff;stroke-width:0.48;"/>
    <path clip-path="url(#p5f92ab6733)" d="M 93.029886 36.588293 
C 93.825496 36.588293 94.588626 36.272194 95.151207 35.709613 
C 95.713787 35.147032 96.029886 34.383902 96.029886 33.588293 
C 96.029886 32.792683 95.713787 32.029553 95.151207 31.466972 
C 94.588626 30.904392 93.825496 30.588293 93.029886 30.588293 
C 92.234277 30.588293 91.471147 30.904392 90.908566 31.466972 
C 90.345985 32.029553 90.029886 32.792683 90.029886 33.588293 
C 90.029886 34.383902 90.345985 35.147032 90.908566 35.709613 
C 91.471147 36.272194 92.234277 36.588293 93.029886 36.588293 
z
" style="fill:#f26b38;stroke:#ffffff;stroke-width:0.48;"/>
    <path clip-path="url(#p5f92ab6733)" d="M 99.793523 36.588293 
C 100.589132 36.588293 101.352262 36.272194 101.914843 35.709613 
C 102.477424 35.147032 102.793523 34.383902 102.793523 33.588293 
C 102.793523 32.792683 102.477424 32.029553 101.914843 31.466972 
C 101.352262 30.904392 100.589132 30.588293 99.793523 30.588293 
C 98.997913 30.588293 98.234783 30.904392 97.672202 31.466972 
C 97.109622 32.029553 96.793523 32.792683 96.793523 33.588293 
C 96.793523 34.383902 97.109622 35.147032 97.672202 35.709613 
C 98.234783 36.272194 98.997913 36.588293 99.793523 36.588293 
z
" style="fill:#f26b38;stroke:#ffffff;stroke-width:0.48;"/>
    <path clip-path="url(#p5f92ab6733)" d="M 106.557159 65.881587 
C 107.352768 65.881587 108.115899 65.565488 108.678479 65.002907 
C 109.24106 64.440326 109.557159 63.677196 109.557159 62.881587 
C 109.557159 62.085977 109.24106 61.322847 108.678479 60.760266 
C 108.115899 60.197686 107.352768 59.881587 106.557159 59.881587 
C 105.76155 59.881587 104.998419 60.197686 104.435839 60.760266 
C 103.873258 61.322847 103.557159 62.085977 103.557159 62.881587 
C 103.557159 63.677196 103.873258 64.440326 104.435839 65.002907 
C 104.998419 65.565488 105.76155 65.881587 106.557159 65.881587 
z
" style="fill:#f26b38;stroke:#ffffff;stroke-width:0.48;"/>
    <path clip-path="url(#p5f92ab6733)" d="M 113.320795 65.881587 
C 114.116405 65.881587 114.879535 65.565488 115.442116 65.002907 
C 116.004697 64.440326 116.320795 63.677196 116.320795 62.881587 
C 116.320795 62.085977 116.004697 61.322847 115.442116 60.760266 
C 114.879535 60.197686 114.116405 59.881587 113.320795 59.881587 
C 112.525186 59.881587 111.762056 60.197686 111.199475 60.760266 
C 110.636894 61.322847 110.320795 62.085977 110.320795 62.881587 
C 110.320795 63.677196 110.636894 64.440326 111.199475 65.002907 
C 111.762056 65.565488 112.525186 65.881587 113.320795 65.881587 
z
" style="fill:#f26b38;stroke:#ffffff;stroke-width:0.48;"/>
    <path clip-path="url(#p5f92ab6733)" d="M 120.084432 65.881587 
C 120.880041 65.881587 121.643171 65.565488 122.205752 65.002907 
C 122.768333 64.440326 123.084432 63.677196 123.084432 62.881587 
C 123.084432 62.085977 122.768333 61.322847 122.205752 60.760266 
C 121.643171 60.197686 120.880041 59.881587 120.084432 59.881587 
C 119.288823 59.881587 118.525692 60.197686 117.963111 60.760266 
C 117.400531 61.322847 117.084432 62.085977 117.084432 62.881587 
C 117.084432 63.677196 117.400531 64.440326 117.963111 65.002907 
C 118.525692 65.565488 119.288823 65.881587 120.084432 65.881587 
z
" style="fill:#f26b38;stroke:#ffffff;stroke-width:0.48;"/>
    <path clip-path="url(#p5f92ab6733)" d="M 126.848068 65.881587 
C 127.643677 65.881587 128.406808 65.565488 128.969389 65.002907 
C 129.531969 64.440326 129.848068 63.677196 129.848068 62.881587 
C 129.848068 62.085977 129.531969 61.322847 128.969389 60.760266 
C 128.406808 60.197686 127.643677 59.881587 126.848068 59.881587 
C 126.052459 59.881587 125.289329 60.197686 124.726748 60.760266 
C 124.164167 61.322847 123.848068 62.085977 123.848068 62.881587 
C 123.848068 63.677196 124.164167 64.440326 124.726748 65.002907 
C 125.289329 65.565488 126.052459 65.881587 126.848068 65.881587 
z
" style="fill:#f26b38;stroke:#ffffff;stroke-width:0.48;"/>
    <path clip-path="url(#p5f92ab6733)" d="M 133.611705 111.68339 
C 134.407314 111.68339 135.170444 111.367291 135.733025 110.80471 
C 136.295606 110.242129 136.611705 109.478999 136.611705 108.68339 
C 136.611705 107.887781 136.295606 107.12465 135.733025 106.562069 
C 135.170444 105.999489 134.407314 105.68339 133.611705 105.68339 
C 132.816095 105.68339 132.052965 105.999489 131.490384 106.562069 
C 130.927803 107.12465 130.611705 107.887781 130.611705 108.68339 
C 130.611705 109.478999 130.927803 110.242129 131.490384 110.80471 
C 132.052965 111.367291 132.816095 111.68339 133.611705 111.68339 
z
" style="fill:#f26b38;stroke:#ffffff;stroke-width:0.48;"/>
    <path clip-path="url(#p5f92ab6733)" d="M 140.375341 127.472615 
C 141.17095 127.472615 141.934081 127.156516 142.496661 126.593936 
C 143.059242 126.031355 143.375341 125.268225 143.375341 124.472615 
C 143.375341 123.677006 143.059242 122.913876 142.496661 122.351295 
C 141.934081 121.788714 141.17095 121.472615 140.375341 121.472615 
C 139.579732 121.472615 138.816601 121.788714 138.254021 122.351295 
C 137.69144 122.913876 137.375341 123.677006 137.375341 124.472615 
C 137.375341 125.268225 137.69144 126.031355 138.254021 126.593936 
C 138.816601 127.156516 139.579732 127.472615 140.375341 127.472615 
z
" style="fill:#f26b38;stroke:#ffffff;stroke-width:0.48;"/>
    <path clip-path="url(#p5f92ab6733)" d="M 147.138977 176.502316 
C 147.934587 176.502316 148.697717 176.186217 149.260298 175.623636 
C 149.822878 175.061055 150.138977 174.297925 150.138977 173.502316 
C 150.138977 172.706706 149.822878 171.943576 149.260298 171.380995 
C 148.697717 170.818415 147.934587 170.502316 147.138977 170.502316 
C 146.343368 170.502316 145.580238 170.818415 145.017657 171.380995 
C 144.455076 171.943576 144.138977 172.706706 144.138977 173.502316 
C 144.138977 174.297925 144.455076 175.061055 145.017657 175.623636 
C 145.580238 176.186217 146.343368 176.502316 147.138977 176.502316 
z
" style="fill:#f26b38;stroke:#ffffff;stroke-width:0.48;"/>
    <path clip-path="url(#p5f92ab6733)" d="M 153.902614 228.18227 
C 154.698223 228.18227 155.461353 227.866171 156.023934 227.303591 
C 156.586515 226.74101 156.902614 225.97788 156.902614 225.18227 
C 156.902614 224.386661 156.586515 223.623531 156.023934 223.06095 
C 155.461353 222.498369 154.698223 222.18227 153.902614 222.18227 
C 153.107004 222.18227 152.343874 222.498369 151.781293 223.06095 
C 151.218713 223.623531 150.902614 224.386661 150.902614 225.18227 
C 150.902614 225.97788 151.218713 226.74101 151.781293 227.303591 
C 152.343874 227.866171 153.107004 228.18227 153.902614 228.18227 
z
" style="fill:#f26b38;stroke:#ffffff;stroke-width:0.48;"/>
    <path clip-path="url(#p5f92ab6733)" d="M 160.66625 228.18227 
C 161.461859 228.18227 162.22499 227.866171 162.78757 227.303591 
C 163.350151 226.74101 163.66625 225.97788 163.66625 225.18227 
C 163.66625 224.386661 163.350151 223.623531 162.78757 223.06095 
C 162.22499 222.498369 161.461859 222.18227 160.66625 222.18227 
C 159.870641 222.18227 159.10751 222.498369 158.54493 223.06095 
C 157.982349 223.623531 157.66625 224.386661 157.66625 225.18227 
C 157.66625 225.97788 157.982349 226.74101 158.54493 227.303591 
C 159.10751 227.866171 159.870641 228.18227 160.66625 228.18227 
z
" style="fill:#f26b38;stroke:#ffffff;stroke-width:0.48;"/>
    <path clip-path="url(#p5f92ab6733)" d="M 167.429886 127.472615 
C 168.225496 127.472615 168.988626 127.156516 169.551207 126.593936 
C 170.113787 126.031355 170.429886 125.268225 170.429886 124.472615 
C 170.429886 123.677006 170.113787 122.913876 169.551207 122.351295 
C 168.988626 121.788714 168.225496 121.472615 167.429886 121.472615 
C 166.634277 121.472615 165.871147 121.788714 165.308566 122.351295 
C 164.745985 122.913876 164.429886 123.677006 164.429886 124.472615 
C 164.429886 125.268225 164.745985 126.031355 165.308566 126.593936 
C 165.871147 127.156516 166.634277 127.472615 167.429886 127.472615 
z
" style="fill:#f26b38;stroke:#ffffff;stroke-width:0.48;"/>
    <path clip-path="url(#p5f92ab6733)" d="M 174.193523 127.472615 
C 174.989132 127.472615 175.752262 127.156516 176.314843 126.593936 
C 176.877424 126.031355 177.193523 125.268225 177.193523 124.472615 
C 177.193523 123.677006 176.877424 122.913876 176.314843 122.351295 
C 175.752262 121.788714 174.989132 121.472615 174.193523 121.472615 
C 173.397913 121.472615 172.634783 121.788714 172.072202 122.351295 
C 171.509622 122.913876 171.193523 123.677006 171.193523 124.472615 
C 171.193523 125.268225 171.509622 126.031355 172.072202 126.593936 
C 172.634783 127.156516 173.397913 127.472615 174.193523 127.472615 
z
" style="fill:#f26b38;stroke:#ffffff;stroke-width:0.48;"/>
    <path clip-path="url(#p5f92ab6733)" d="M 180.957159 127.472615 
C 181.752768 127.472615 182.515899 127.156516 183.078479 126.593936 
C 183.64106 126.031355 183.957159 125.268225 183.957159 124.472615 
C 183.957159 123.677006 183.64106 122.913876 183.078479 122.351295 
C 182.515899 121.788714 181.752768 121.472615 180.957159 121.472615 
C 180.16155 121.472615 179.398419 121.788714 178.835839 122.351295 
C 178.273258 122.913876 177.957159 123.677006 177.957159 124.472615 
C 177.957159 125.268225 178.273258 126.031355 178.835839 126.593936 
C 179.398419 127.156516 180.16155 127.472615 180.957159 127.472615 
z
" style="fill:#f26b38;stroke:#ffffff;stroke-width:0.48;"/>
    <path clip-path="url(#p5f92ab6733)" d="M 187.720795 127.472615 
C 188.516405 127.472615 189.279535 127.156516 189.842116 126.593936 
C 190.404697 126.031355 190.720795 125.268225 190.720795 124.472615 
C 190.720795 123.677006 190.404697 122.913876 189.842116 122.351295 
C 189.279535 121.788714 188.516405 121.472615 187.720795 121.472615 
C 186.925186 121.472615 186.162056 121.788714 185.599475 122.351295 
C 185.036894 122.913876 184.720795 123.677006 184.720795 124.472615 
C 184.720795 125.268225 185.036894 126.031355 185.599475 126.593936 
C 186.162056 127.156516 186.925186 127.472615 187.720795 127.472615 
z
" style="fill:#f26b38;stroke:#ffffff;stroke-width:0.48;"/>
    <path clip-path="url(#p5f92ab6733)" d="M 194.484432 127.472615 
C 195.280041 127.472615 196.043171 127.156516 196.605752 126.593936 
C 197.168333 126.031355 197.484432 125.268225 197.484432 124.472615 
C 197.484432 123.677006 197.168333 122.913876 196.605752 122.351295 
C 196.043171 121.788714 195.280041 121.472615 194.484432 121.472615 
C 193.688823 121.472615 192.925692 121.788714 192.363111 122.351295 
C 191.800531 122.913876 191.484432 123.677006 191.484432 124.472615 
C 191.484432 125.268225 191.800531 126.031355 192.363111 126.593936 
C 192.925692 127.156516 193.688823 127.472615 194.484432 127.472615 
z
" style="fill:#f26b38;stroke:#ffffff;stroke-width:0.48;"/>
    <path clip-path="url(#p5f92ab6733)" d="M 201.248068 127.472615 
C 202.043677 127.472615 202.806808 127.156516 203.369389 126.593936 
C 203.931969 126.031355 204.248068 125.268225 204.248068 124.472615 
C 204.248068 123.677006 203.931969 122.913876 203.369389 122.351295 
C 202.806808 121.788714 202.043677 121.472615 201.248068 121.472615 
C 200.452459 121.472615 199.689329 121.788714 199.126748 122.351295 
C 198.564167 122.913876 198.248068 123.677006 198.248068 124.472615 
C 198.248068 125.268225 198.564167 126.031355 199.126748 126.593936 
C 199.689329 127.156516 200.452459 127.472615 201.248068 127.472615 
z
" style="fill:#f26b38;stroke:#ffffff;stroke-width:0.48;"/>
    <path clip-path="url(#p5f92ab6733)" d="M 208.011705 127.472615 
C 208.807314 127.472615 209.570444 127.156516 210.133025 126.593936 
C 210.695606 126.031355 211.011705 125.268225 211.011705 124.472615 
C 211.011705 123.677006 210.695606 122.913876 210.133025 122.351295 
C 209.570444 121.788714 208.807314 121.472615 208.011705 121.472615 
C 207.216095 121.472615 206.452965 121.788714 205.890384 122.351295 
C 205.327803 122.913876 205.011705 123.677006 205.011705 124.472615 
C 205.011705 125.268225 205.327803 126.031355 205.890384 126.593936 
C 206.452965 127.156516 207.216095 127.472615 208.011705 127.472615 
z
" style="fill:#f26b38;stroke:#ffffff;stroke-width:0.48;"/>
    <path clip-path="url(#p5f92ab6733)" d="M 214.775341 127.472615 
C 215.57095 127.472615 216.334081 127.156516 216.896661 126.593936 
C 217.459242 126.031355 217.775341 125.268225 217.775341 124.472615 
C 217.775341 123.677006 217.459242 122.913876 216.896661 122.351295 
C 216.334081 121.788714 215.57095 121.472615 214.775341 121.472615 
C 213.979732 121.472615 213.216601 121.788714 212.654021 122.351295 
C 212.09144 122.913876 211.775341 123.677006 211.775341 124.472615 
C 211.775341 125.268225 212.09144 126.031355 212.654021 126.593936 
C 213.216601 127.156516 213.979732 127.472615 214.775341 127.472615 
z
" style="fill:#f26b38;stroke:#ffffff;stroke-width:0.48;"/>
    <path clip-path="url(#p5f92ab6733)" d="M 221.538977 127.472615 
C 222.334587 127.472615 223.097717 127.156516 223.660298 126.593936 
C 224.222878 126.031355 224.538977 125.268225 224.538977 124.472615 
C 224.538977 123.677006 224.222878 122.913876 223.660298 122.351295 
C 223.097717 121.788714 222.334587 121.472615 221.538977 121.472615 
C 220.743368 121.472615 219.980238 121.788714 219.417657 122.351295 
C 218.855076 122.913876 218.538977 123.677006 218.538977 124.472615 
C 218.538977 125.268225 218.855076 126.031355 219.417657 126.593936 
C 219.980238 127.156516 220.743368 127.472615 221.538977 127.472615 
z
" style="fill:#f26b38;stroke:#ffffff;stroke-width:0.48;"/>
    <path clip-path="url(#p5f92ab6733)" d="M 228.302614 127.472615 
C 229.098223 127.472615 229.861353 127.156516 230.423934 126.593936 
C 230.986515 126.031355 231.302614 125.268225 231.302614 124.472615 
C 231.302614 123.677006 230.986515 122.913876 230.423934 122.351295 
C 229.861353 121.788714 229.098223 121.472615 228.302614 121.472615 
C 227.507004 121.472615 226.743874 121.788714 226.181293 122.351295 
C 225.618713 122.913876 225.302614 123.677006 225.302614 124.472615 
C 225.302614 125.268225 225.618713 126.031355 226.181293 126.593936 
C 226.743874 127.156516 227.507004 127.472615 228.302614 127.472615 
z
" style="fill:#f26b38;stroke:#ffffff;stroke-width:0.48;"/>
    <path clip-path="url(#p5f92ab6733)" d="M 235.06625 143.534069 
C 235.861859 143.534069 236.62499 143.21797 237.18757 142.655389 
C 237.750151 142.092809 238.06625 141.329678 238.06625 140.534069 
C 238.06625 139.73846 237.750151 138.975329 237.18757 138.412749 
C 236.62499 137.850168 235.861859 137.534069 235.06625 137.534069 
C 234.270641 137.534069 233.50751 137.850168 232.94493 138.412749 
C 232.382349 138.975329 232.06625 139.73846 232.06625 140.534069 
C 232.06625 141.329678 232.382349 142.092809 232.94493 142.655389 
C 233.50751 143.21797 234.270641 143.534069 235.06625 143.534069 
z
" style="fill:#f26b38;stroke:#ffffff;stroke-width:0.48;"/>
    <path clip-path="url(#p5f92ab6733)" d="M 241.829886 159.874852 
C 242.625496 159.874852 243.388626 159.558753 243.951207 158.996173 
C 244.513787 158.433592 244.829886 157.670461 244.829886 156.874852 
C 244.829886 156.079243 244.513787 155.316113 243.951207 154.753532 
C 243.388626 154.190951 242.625496 153.874852 241.829886 153.874852 
C 241.034277 153.874852 240.271147 154.190951 239.708566 154.753532 
C 239.145985 155.316113 238.829886 156.079243 238.829886 156.874852 
C 238.829886 157.670461 239.145985 158.433592 239.708566 158.996173 
C 240.271147 159.558753 241.034277 159.874852 241.829886 159.874852 
z
" style="fill:#f26b38;stroke:#ffffff;stroke-width:0.48;"/>
    <path clip-path="url(#p5f92ab6733)" d="M 248.593523 159.874852 
C 249.389132 159.874852 250.152262 159.558753 250.714843 158.996173 
C 251.277424 158.433592 251.593523 157.670461 251.593523 156.874852 
C 251.593523 156.079243 251.277424 155.316113 250.714843 154.753532 
C 250.152262 154.190951 249.389132 153.874852 248.593523 153.874852 
C 247.797913 153.874852 247.034783 154.190951 246.472202 154.753532 
C 245.909622 155.316113 245.593523 156.079243 245.593523 156.874852 
C 245.593523 157.670461 245.909622 158.433592 246.472202 158.996173 
C 247.034783 159.558753 247.797913 159.874852 248.593523 159.874852 
z
" style="fill:#f26b38;stroke:#ffffff;stroke-width:0.48;"/>
    <path clip-path="url(#p5f92ab6733)" d="M 255.357159 159.874852 
C 256.152768 159.874852 256.915899 159.558753 257.478479 158.996173 
C 258.04106 158.433592 258.357159 157.670461 258.357159 156.874852 
C 258.357159 156.079243 258.04106 155.316113 257.478479 154.753532 
C 256.915899 154.190951 256.152768 153.874852 255.357159 153.874852 
C 254.56155 153.874852 253.798419 154.190951 253.235839 154.753532 
C 252.673258 155.316113 252.357159 156.079243 252.357159 156.874852 
C 252.357159 157.670461 252.673258 158.433592 253.235839 158.996173 
C 253.798419 159.558753 254.56155 159.874852 255.357159 159.874852 
z
" style="fill:#f26b38;stroke:#ffffff;stroke-width:0.48;"/>
    <path clip-path="url(#p5f92ab6733)" d="M 262.120795 159.874852 
C 262.916405 159.874852 263.679535 159.558753 264.242116 158.996173 
C 264.804697 158.433592 265.120795 157.670461 265.120795 156.874852 
C 265.120795 156.079243 264.804697 155.316113 264.242116 154.753532 
C 263.679535 154.190951 262.916405 153.874852 262.120795 153.874852 
C 261.325186 153.874852 260.562056 154.190951 259.999475 154.753532 
C 259.436894 155.316113 259.120795 156.079243 259.120795 156.874852 
C 259.120795 157.670461 259.436894 158.433592 259.999475 158.996173 
C 260.562056 159.558753 261.325186 159.874852 262.120795 159.874852 
z
" style="fill:#f26b38;stroke:#ffffff;stroke-width:0.48;"/>
    <path clip-path="url(#p5f92ab6733)" d="M 268.884432 159.874852 
C 269.680041 159.874852 270.443171 159.558753 271.005752 158.996173 
C 271.568333 158.433592 271.884432 157.670461 271.884432 156.874852 
C 271.884432 156.079243 271.568333 155.316113 271.005752 154.753532 
C 270.443171 154.190951 269.680041 153.874852 268.884432 153.874852 
C 268.088823 153.874852 267.325692 154.190951 266.763111 154.753532 
C 266.200531 155.316113 265.884432 156.079243 265.884432 156.874852 
C 265.884432 157.670461 266.200531 158.433592 266.763111 158.996173 
C 267.325692 159.558753 268.088823 159.874852 268.884432 159.874852 
z
" style="fill:#f26b38;stroke:#ffffff;stroke-width:0.48;"/>
    <path clip-path="url(#p5f92ab6733)" d="M 275.648068 159.874852 
C 276.443677 159.874852 277.206808 159.558753 277.769389 158.996173 
C 278.331969 158.433592 278.648068 157.670461 278.648068 156.874852 
C 278.648068 156.079243 278.331969 155.316113 277.769389 154.753532 
C 277.206808 154.190951 276.443677 153.874852 275.648068 153.874852 
C 274.852459 153.874852 274.089329 154.190951 273.526748 154.753532 
C 272.964167 155.316113 272.648068 156.079243 272.648068 156.874852 
C 272.648068 157.670461 272.964167 158.433592 273.526748 158.996173 
C 274.089329 159.558753 274.852459 159.874852 275.648068 159.874852 
z
" style="fill:#f26b38;stroke:#ffffff;stroke-width:0.48;"/>
    <path clip-path="url(#p5f92ab6733)" d="M 282.411705 159.874852 
C 283.207314 159.874852 283.970444 159.558753 284.533025 158.996173 
C 285.095606 158.433592 285.411705 157.670461 285.411705 156.874852 
C 285.411705 156.079243 285.095606 155.316113 284.533025 154.753532 
C 283.970444 154.190951 283.207314 153.874852 282.411705 153.874852 
C 281.616095 153.874852 280.852965 154.190951 280.290384 154.753532 
C 279.727803 155.316113 279.411705 156.079243 279.411705 156.874852 
C 279.411705 157.670461 279.727803 158.433592 280.290384 158.996173 
C 280.852965 159.558753 281.616095 159.874852 282.411705 159.874852 
z
" style="fill:#f26b38;stroke:#ffffff;stroke-width:0.48;"/>
    <path clip-path="url(#p5f92ab6733)" d="M 289.175341 159.874852 
C 289.97095 159.874852 290.734081 159.558753 291.296661 158.996173 
C 291.859242 158.433592 292.175341 157.670461 292.175341 156.874852 
C 292.175341 156.079243 291.859242 155.316113 291.296661 154.753532 
C 290.734081 154.190951 289.97095 153.874852 289.175341 153.874852 
C 288.379732 153.874852 287.616601 154.190951 287.054021 154.753532 
C 286.49144 155.316113 286.175341 156.079243 286.175341 156.874852 
C 286.175341 157.670461 286.49144 158.433592 287.054021 158.996173 
C 287.616601 159.558753 288.379732 159.874852 289.175341 159.874852 
z
" style="fill:#f26b38;stroke:#ffffff;stroke-width:0.48;"/>
    <path clip-path="url(#p5f92ab6733)" d="M 295.938977 159.874852 
C 296.734587 159.874852 297.497717 159.558753 298.060298 158.996173 
C 298.622878 158.433592 298.938977 157.670461 298.938977 156.874852 
C 298.938977 156.079243 298.622878 155.316113 298.060298 154.753532 
C 297.497717 154.190951 296.734587 153.874852 295.938977 153.874852 
C 295.143368 153.874852 294.380238 154.190951 293.817657 154.753532 
C 293.255076 155.316113 292.938977 156.079243 292.938977 156.874852 
C 292.938977 157.670461 293.255076 158.433592 293.817657 158.996173 
C 294.380238 159.558753 295.143368 159.874852 295.938977 159.874852 
z
" style="fill:#f26b38;stroke:#ffffff;stroke-width:0.48;"/>
    <path clip-path="url(#p5f92ab6733)" d="M 302.702614 159.874852 
C 303.498223 159.874852 304.261353 159.558753 304.823934 158.996173 
C 305.386515 158.433592 305.702614 157.670461 305.702614 156.874852 
C 305.702614 156.079243 305.386515 155.316113 304.823934 154.753532 
C 304.261353 154.190951 303.498223 153.874852 302.702614 153.874852 
C 301.907004 153.874852 301.143874 154.190951 300.581293 154.753532 
C 300.018713 155.316113 299.702614 156.079243 299.702614 156.874852 
C 299.702614 157.670461 300.018713 158.433592 300.581293 158.996173 
C 301.143874 159.558753 301.907004 159.874852 302.702614 159.874852 
z
" style="fill:#f26b38;stroke:#ffffff;stroke-width:0.48;"/>
    <path clip-path="url(#p5f92ab6733)" d="M 309.46625 159.874852 
C 310.261859 159.874852 311.02499 159.558753 311.58757 158.996173 
C 312.150151 158.433592 312.46625 157.670461 312.46625 156.874852 
C 312.46625 156.079243 312.150151 155.316113 311.58757 154.753532 
C 311.02499 154.190951 310.261859 153.874852 309.46625 153.874852 
C 308.670641 153.874852 307.90751 154.190951 307.34493 154.753532 
C 306.782349 155.316113 306.46625 156.079243 306.46625 156.874852 
C 306.46625 157.670461 306.782349 158.433592 307.34493 158.996173 
C 307.90751 159.558753 308.670641 159.874852 309.46625 159.874852 
z
" style="fill:#f26b38;stroke:#ffffff;stroke-width:0.48;"/>
    <path clip-path="url(#p5f92ab6733)" d="M 316.229886 159.874852 
C 317.025496 159.874852 317.788626 159.558753 318.351207 158.996173 
C 318.913787 158.433592 319.229886 157.670461 319.229886 156.874852 
C 319.229886 156.079243 318.913787 155.316113 318.351207 154.753532 
C 317.788626 154.190951 317.025496 153.874852 316.229886 153.874852 
C 315.434277 153.874852 314.671147 154.190951 314.108566 154.753532 
C 313.545985 155.316113 313.229886 156.079243 313.229886 156.874852 
C 313.229886 157.670461 313.545985 158.433592 314.108566 158.996173 
C 314.671147 159.558753 315.434277 159.874852 316.229886 159.874852 
z
" style="fill:#f26b38;stroke:#ffffff;stroke-width:0.48;"/>
    <path clip-path="url(#p5f92ab6733)" d="M 322.993523 159.874852 
C 323.789132 159.874852 324.552262 159.558753 325.114843 158.996173 
C 325.677424 158.433592 325.993523 157.670461 325.993523 156.874852 
C 325.993523 156.079243 325.677424 155.316113 325.114843 154.753532 
C 324.552262 154.190951 323.789132 153.874852 322.993523 153.874852 
C 322.197913 153.874852 321.434783 154.190951 320.872202 154.753532 
C 320.309622 155.316113 319.993523 156.079243 319.993523 156.874852 
C 319.993523 157.670461 320.309622 158.433592 320.872202 158.996173 
C 321.434783 159.558753 322.197913 159.874852 322.993523 159.874852 
z
" style="fill:#f26b38;stroke:#ffffff;stroke-width:0.48;"/>
    <path clip-path="url(#p5f92ab6733)" d="M 329.757159 159.874852 
C 330.552768 159.874852 331.315899 159.558753 331.878479 158.996173 
C 332.44106 158.433592 332.757159 157.670461 332.757159 156.874852 
C 332.757159 156.079243 332.44106 155.316113 331.878479 154.753532 
C 331.315899 154.190951 330.552768 153.874852 329.757159 153.874852 
C 328.96155 153.874852 328.198419 154.190951 327.635839 154.753532 
C 327.073258 155.316113 326.757159 156.079243 326.757159 156.874852 
C 326.757159 157.670461 327.073258 158.433592 327.635839 158.996173 
C 328.198419 159.558753 328.96155 159.874852 329.757159 159.874852 
z
" style="fill:#f26b38;stroke:#ffffff;stroke-width:0.48;"/>
    <path clip-path="url(#p5f92ab6733)" d="M 336.520795 159.874852 
C 337.316405 159.874852 338.079535 159.558753 338.642116 158.996173 
C 339.204697 158.433592 339.520795 157.670461 339.520795 156.874852 
C 339.520795 156.079243 339.204697 155.316113 338.642116 154.753532 
C 338.079535 154.190951 337.316405 153.874852 336.520795 153.874852 
C 335.725186 153.874852 334.962056 154.190951 334.399475 154.753532 
C 333.836894 155.316113 333.520795 156.079243 333.520795 156.874852 
C 333.520795 157.670461 333.836894 158.433592 334.399475 158.996173 
C 334.962056 159.558753 335.725186 159.874852 336.520795 159.874852 
z
" style="fill:#f26b38;stroke:#ffffff;stroke-width:0.48;"/>
    <path clip-path="url(#p5f92ab6733)" d="M 343.284432 159.874852 
C 344.080041 159.874852 344.843171 159.558753 345.405752 158.996173 
C 345.968333 158.433592 346.284432 157.670461 346.284432 156.874852 
C 346.284432 156.079243 345.968333 155.316113 345.405752 154.753532 
C 344.843171 154.190951 344.080041 153.874852 343.284432 153.874852 
C 342.488823 153.874852 341.725692 154.190951 341.163111 154.753532 
C 340.600531 155.316113 340.284432 156.079243 340.284432 156.874852 
C 340.284432 157.670461 340.600531 158.433592 341.163111 158.996173 
C 341.725692 159.558753 342.488823 159.874852 343.284432 159.874852 
z
" style="fill:#f26b38;stroke:#ffffff;stroke-width:0.48;"/>
    <path clip-path="url(#p5f92ab6733)" d="M 350.048068 159.874852 
C 350.843677 159.874852 351.606808 159.558753 352.169389 158.996173 
C 352.731969 158.433592 353.048068 157.670461 353.048068 156.874852 
C 353.048068 156.079243 352.731969 155.316113 352.169389 154.753532 
C 351.606808 154.190951 350.843677 153.874852 350.048068 153.874852 
C 349.252459 153.874852 348.489329 154.190951 347.926748 154.753532 
C 347.364167 155.316113 347.048068 156.079243 347.048068 156.874852 
C 347.048068 157.670461 347.364167 158.433592 347.926748 158.996173 
C 348.489329 159.558753 349.252459 159.874852 350.048068 159.874852 
z
" style="fill:#f26b38;stroke:#ffffff;stroke-width:0.48;"/>
    <path clip-path="url(#p5f92ab6733)" d="M 356.811705 159.874852 
C 357.607314 159.874852 358.370444 159.558753 358.933025 158.996173 
C 359.495606 158.433592 359.811705 157.670461 359.811705 156.874852 
C 359.811705 156.079243 359.495606 155.316113 358.933025 154.753532 
C 358.370444 154.190951 357.607314 153.874852 356.811705 153.874852 
C 356.016095 153.874852 355.252965 154.190951 354.690384 154.753532 
C 354.127803 155.316113 353.811705 156.079243 353.811705 156.874852 
C 353.811705 157.670461 354.127803 158.433592 354.690384 158.996173 
C 355.252965 159.558753 356.016095 159.874852 356.811705 159.874852 
z
" style="fill:#f26b38;stroke:#ffffff;stroke-width:0.48;"/>
    <path clip-path="url(#p5f92ab6733)" d="M 363.575341 159.874852 
C 364.37095 159.874852 365.134081 159.558753 365.696661 158.996173 
C 366.259242 158.433592 366.575341 157.670461 366.575341 156.874852 
C 366.575341 156.079243 366.259242 155.316113 365.696661 154.753532 
C 365.134081 154.190951 364.37095 153.874852 363.575341 153.874852 
C 362.779732 153.874852 362.016601 154.190951 361.454021 154.753532 
C 360.89144 155.316113 360.575341 156.079243 360.575341 156.874852 
C 360.575341 157.670461 360.89144 158.433592 361.454021 158.996173 
C 362.016601 159.558753 362.779732 159.874852 363.575341 159.874852 
z
" style="fill:#f26b38;stroke:#ffffff;stroke-width:0.48;"/>
    <path clip-path="url(#p5f92ab6733)" d="M 370.338977 159.874852 
C 371.134587 159.874852 371.897717 159.558753 372.460298 158.996173 
C 373.022878 158.433592 373.338977 157.670461 373.338977 156.874852 
C 373.338977 156.079243 373.022878 155.316113 372.460298 154.753532 
C 371.897717 154.190951 371.134587 153.874852 370.338977 153.874852 
C 369.543368 153.874852 368.780238 154.190951 368.217657 154.753532 
C 367.655076 155.316113 367.338977 156.079243 367.338977 156.874852 
C 367.338977 157.670461 367.655076 158.433592 368.217657 158.996173 
C 368.780238 159.558753 369.543368 159.874852 370.338977 159.874852 
z
" style="fill:#f26b38;stroke:#ffffff;stroke-width:0.48;"/>
    <path clip-path="url(#p5f92ab6733)" d="M 377.102614 159.874852 
C 377.898223 159.874852 378.661353 159.558753 379.223934 158.996173 
C 379.786515 158.433592 380.102614 157.670461 380.102614 156.874852 
C 380.102614 156.079243 379.786515 155.316113 379.223934 154.753532 
C 378.661353 154.190951 377.898223 153.874852 377.102614 153.874852 
C 376.307004 153.874852 375.543874 154.190951 374.981293 154.753532 
C 374.418713 155.316113 374.102614 156.079243 374.102614 156.874852 
C 374.102614 157.670461 374.418713 158.433592 374.981293 158.996173 
C 375.543874 159.558753 376.307004 159.874852 377.102614 159.874852 
z
" style="fill:#f26b38;stroke:#ffffff;stroke-width:0.48;"/>
    <path clip-path="url(#p5f92ab6733)" d="M 383.86625 159.874852 
C 384.661859 159.874852 385.42499 159.558753 385.98757 158.996173 
C 386.550151 158.433592 386.86625 157.670461 386.86625 156.874852 
C 386.86625 156.079243 386.550151 155.316113 385.98757 154.753532 
C 385.42499 154.190951 384.661859 153.874852 383.86625 153.874852 
C 383.070641 153.874852 382.30751 154.190951 381.74493 154.753532 
C 381.182349 155.316113 380.86625 156.079243 380.86625 156.874852 
C 380.86625 157.670461 381.182349 158.433592 381.74493 158.996173 
C 382.30751 159.558753 383.070641 159.874852 383.86625 159.874852 
z
" style="fill:#f26b38;stroke:#ffffff;stroke-width:0.48;"/>
    <path clip-path="url(#p5f92ab6733)" d="M 390.629886 159.874852 
C 391.425496 159.874852 392.188626 159.558753 392.751207 158.996173 
C 393.313787 158.433592 393.629886 157.670461 393.629886 156.874852 
C 393.629886 156.079243 393.313787 155.316113 392.751207 154.753532 
C 392.188626 154.190951 391.425496 153.874852 390.629886 153.874852 
C 389.834277 153.874852 389.071147 154.190951 388.508566 154.753532 
C 387.945985 155.316113 387.629886 156.079243 387.629886 156.874852 
C 387.629886 157.670461 387.945985 158.433592 388.508566 158.996173 
C 389.071147 159.558753 389.834277 159.874852 390.629886 159.874852 
z
" style="fill:#f26b38;stroke:#ffffff;stroke-width:0.48;"/>
    <path clip-path="url(#p5f92ab6733)" d="M 397.393523 159.874852 
C 398.189132 159.874852 398.952262 159.558753 399.514843 158.996173 
C 400.077424 158.433592 400.393523 157.670461 400.393523 156.874852 
C 400.393523 156.079243 400.077424 155.316113 399.514843 154.753532 
C 398.952262 154.190951 398.189132 153.874852 397.393523 153.874852 
C 396.597913 153.874852 395.834783 154.190951 395.272202 154.753532 
C 394.709622 155.316113 394.393523 156.079243 394.393523 156.874852 
C 394.393523 157.670461 394.709622 158.433592 395.272202 158.996173 
C 395.834783 159.558753 396.597913 159.874852 397.393523 159.874852 
z
" style="fill:#f26b38;stroke:#ffffff;stroke-width:0.48;"/>
    <path clip-path="url(#p5f92ab6733)" d="M 71.238977 210.648 
L 72.738977 209.148 
L 74.238977 210.648 
L 75.738977 209.148 
L 74.238977 207.648 
L 75.738977 206.148 
L 74.238977 204.648 
L 72.738977 206.148 
L 71.238977 204.648 
L 69.738977 206.148 
L 71.238977 207.648 
L 69.738977 209.148 
z
" style="fill:#2f9599;stroke:#ffffff;stroke-width:0.48;"/>
    <path clip-path="url(#p5f92ab6733)" d="M 78.002614 176.502316 
L 79.502614 175.002316 
L 81.002614 176.502316 
L 82.502614 175.002316 
L 81.002614 173.502316 
L 82.502614 172.002316 
L 81.002614 170.502316 
L 79.502614 172.002316 
L 78.002614 170.502316 
L 76.502614 172.002316 
L 78.002614 173.502316 
L 76.502614 175.002316 
z
" style="fill:#2f9599;stroke:#ffffff;stroke-width:0.48;"/>
    <path clip-path="url(#p5f92ab6733)" d="M 84.76625 176.502316 
L 86.26625 175.002316 
L 87.76625 176.502316 
L 89.26625 175.002316 
L 87.76625 173.502316 
L 89.26625 172.002316 
L 87.76625 170.502316 
L 86.26625 172.002316 
L 84.76625 170.502316 
L 83.26625 172.002316 
L 84.76625 173.502316 
L 83.26625 175.002316 
z
" style="fill:#2f9599;stroke:#ffffff;stroke-width:0.48;"/>
    <path clip-path="url(#p5f92ab6733)" d="M 91.529886 176.502316 
L 93.029886 175.002316 
L 94.529886 176.502316 
L 96.029886 175.002316 
L 94.529886 173.502316 
L 96.029886 172.002316 
L 94.529886 170.502316 
L 93.029886 172.002316 
L 91.529886 170.502316 
L 90.029886 172.002316 
L 91.529886 173.502316 
L 90.029886 175.002316 
z
" style="fill:#2f9599;stroke:#ffffff;stroke-width:0.48;"/>
    <path clip-path="url(#p5f92ab6733)" d="M 98.293523 228.18227 
L 99.793523 226.68227 
L 101.293523 228.18227 
L 102.793523 226.68227 
L 101.293523 225.18227 
L 102.793523 223.68227 
L 101.293523 222.18227 
L 99.793523 223.68227 
L 98.293523 222.18227 
L 96.793523 223.68227 
L 98.293523 225.18227 
L 96.793523 226.68227 
z
" style="fill:#2f9599;stroke:#ffffff;stroke-width:0.48;"/>
    <path clip-path="url(#p5f92ab6733)" d="M 105.057159 228.18227 
L 106.557159 226.68227 
L 108.057159 228.18227 
L 109.557159 226.68227 
L 108.057159 225.18227 
L 109.557159 223.68227 
L 108.057159 222.18227 
L 106.557159 223.68227 
L 105.057159 222.18227 
L 103.557159 223.68227 
L 105.057159 225.18227 
L 103.557159 226.68227 
z
" style="fill:#2f9599;stroke:#ffffff;stroke-width:0.48;"/>
    <path clip-path="url(#p5f92ab6733)" d="M 111.820795 228.18227 
L 113.320795 226.68227 
L 114.820795 228.18227 
L 116.320795 226.68227 
L 114.820795 225.18227 
L 116.320795 223.68227 
L 114.820795 222.18227 
L 113.320795 223.68227 
L 111.820795 222.18227 
L 110.320795 223.68227 
L 111.820795 225.18227 
L 110.320795 226.68227 
z
" style="fill:#2f9599;stroke:#ffffff;stroke-width:0.48;"/>
    <path clip-path="url(#p5f92ab6733)" d="M 118.584432 228.18227 
L 120.084432 226.68227 
L 121.584432 228.18227 
L 123.084432 226.68227 
L 121.584432 225.18227 
L 123.084432 223.68227 
L 121.584432 222.18227 
L 120.084432 223.68227 
L 118.584432 222.18227 
L 117.084432 223.68227 
L 118.584432 225.18227 
L 117.084432 226.68227 
z
" style="fill:#2f9599;stroke:#ffffff;stroke-width:0.48;"/>
    <path clip-path="url(#p5f92ab6733)" d="M 125.348068 228.18227 
L 126.848068 226.68227 
L 128.348068 228.18227 
L 129.848068 226.68227 
L 128.348068 225.18227 
L 129.848068 223.68227 
L 128.348068 222.18227 
L 126.848068 223.68227 
L 125.348068 222.18227 
L 123.848068 223.68227 
L 125.348068 225.18227 
L 123.848068 226.68227 
z
" style="fill:#2f9599;stroke:#ffffff;stroke-width:0.48;"/>
    <path clip-path="url(#p5f92ab6733)" d="M 132.111705 228.18227 
L 133.611705 226.68227 
L 135.111705 228.18227 
L 136.611705 226.68227 
L 135.111705 225.18227 
L 136.611705 223.68227 
L 135.111705 222.18227 
L 133.611705 223.68227 
L 132.111705 222.18227 
L 130.611705 223.68227 
L 132.111705 225.18227 
L 130.611705 226.68227 
z
" style="fill:#2f9599;stroke:#ffffff;stroke-width:0.48;"/>
    <path clip-path="url(#p5f92ab6733)" d="M 138.875341 228.18227 
L 140.375341 226.68227 
L 141.875341 228.18227 
L 143.375341 226.68227 
L 141.875341 225.18227 
L 143.375341 223.68227 
L 141.875341 222.18227 
L 140.375341 223.68227 
L 138.875341 222.18227 
L 137.375341 223.68227 
L 138.875341 225.18227 
L 137.375341 226.68227 
z
" style="fill:#2f9599;stroke:#ffffff;stroke-width:0.48;"/>
    <path clip-path="url(#p5f92ab6733)" d="M 145.638977 228.18227 
L 147.138977 226.68227 
L 148.638977 228.18227 
L 150.138977 226.68227 
L 148.638977 225.18227 
L 150.138977 223.68227 
L 148.638977 222.18227 
L 147.138977 223.68227 
L 145.638977 222.18227 
L 144.138977 223.68227 
L 145.638977 225.18227 
L 144.138977 226.68227 
z
" style="fill:#2f9599;stroke:#ffffff;stroke-width:0.48;"/>
    <path clip-path="url(#p5f92ab6733)" d="M 152.402614 228.18227 
L 153.902614 226.68227 
L 155.402614 228.18227 
L 156.902614 226.68227 
L 155.402614 225.18227 
L 156.902614 223.68227 
L 155.402614 222.18227 
L 153.902614 223.68227 
L 152.402614 222.18227 
L 150.902614 223.68227 
L 152.402614 225.18227 
L 150.902614 226.68227 
z
" style="fill:#2f9599;stroke:#ffffff;stroke-width:0.48;"/>
    <path clip-path="url(#p5f92ab6733)" d="M 159.16625 228.18227 
L 160.66625 226.68227 
L 162.16625 228.18227 
L 163.66625 226.68227 
L 162.16625 225.18227 
L 163.66625 223.68227 
L 162.16625 222.18227 
L 160.66625 223.68227 
L 159.16625 222.18227 
L 157.66625 223.68227 
L 159.16625 225.18227 
L 157.66625 226.68227 
z
" style="fill:#2f9599;stroke:#ffffff;stroke-width:0.48;"/>
    <path clip-path="url(#p5f92ab6733)" d="M 165.929886 228.18227 
L 167.429886 226.68227 
L 168.929886 228.18227 
L 170.429886 226.68227 
L 168.929886 225.18227 
L 170.429886 223.68227 
L 168.929886 222.18227 
L 167.429886 223.68227 
L 165.929886 222.18227 
L 164.429886 223.68227 
L 165.929886 225.18227 
L 164.429886 226.68227 
z
" style="fill:#2f9599;stroke:#ffffff;stroke-width:0.48;"/>
    <path clip-path="url(#p5f92ab6733)" d="M 172.693523 228.18227 
L 174.193523 226.68227 
L 175.693523 228.18227 
L 177.193523 226.68227 
L 175.693523 225.18227 
L 177.193523 223.68227 
L 175.693523 222.18227 
L 174.193523 223.68227 
L 172.693523 222.18227 
L 171.193523 223.68227 
L 172.693523 225.18227 
L 171.193523 226.68227 
z
" style="fill:#2f9599;stroke:#ffffff;stroke-width:0.48;"/>
    <path clip-path="url(#p5f92ab6733)" d="M 179.457159 264.216 
L 180.957159 262.716 
L 182.457159 264.216 
L 183.957159 262.716 
L 182.457159 261.216 
L 183.957159 259.716 
L 182.457159 258.216 
L 180.957159 259.716 
L 179.457159 258.216 
L 177.957159 259.716 
L 179.457159 261.216 
L 177.957159 262.716 
z
" style="fill:#2f9599;stroke:#ffffff;stroke-width:0.48;"/>
    <path clip-path="url(#p5f92ab6733)" d="M 186.220795 264.216 
L 187.720795 262.716 
L 189.220795 264.216 
L 190.720795 262.716 
L 189.220795 261.216 
L 190.720795 259.716 
L 189.220795 258.216 
L 187.720795 259.716 
L 186.220795 258.216 
L 184.720795 259.716 
L 186.220795 261.216 
L 184.720795 262.716 
z
" style="fill:#2f9599;stroke:#ffffff;stroke-width:0.48;"/>
    <path clip-path="url(#p5f92ab6733)" d="M 192.984432 264.216 
L 194.484432 262.716 
L 195.984432 264.216 
L 197.484432 262.716 
L 195.984432 261.216 
L 197.484432 259.716 
L 195.984432 258.216 
L 194.484432 259.716 
L 192.984432 258.216 
L 191.484432 259.716 
L 192.984432 261.216 
L 191.484432 262.716 
z
" style="fill:#2f9599;stroke:#ffffff;stroke-width:0.48;"/>
    <path clip-path="url(#p5f92ab6733)" d="M 199.748068 264.216 
L 201.248068 262.716 
L 202.748068 264.216 
L 204.248068 262.716 
L 202.748068 261.216 
L 204.248068 259.716 
L 202.748068 258.216 
L 201.248068 259.716 
L 199.748068 258.216 
L 198.248068 259.716 
L 199.748068 261.216 
L 198.248068 262.716 
z
" style="fill:#2f9599;stroke:#ffffff;stroke-width:0.48;"/>
    <path clip-path="url(#p5f92ab6733)" d="M 206.511705 264.216 
L 208.011705 262.716 
L 209.511705 264.216 
L 211.011705 262.716 
L 209.511705 261.216 
L 211.011705 259.716 
L 209.511705 258.216 
L 208.011705 259.716 
L 206.511705 258.216 
L 205.011705 259.716 
L 206.511705 261.216 
L 205.011705 262.716 
z
" style="fill:#2f9599;stroke:#ffffff;stroke-width:0.48;"/>
    <path clip-path="url(#p5f92ab6733)" d="M 213.275341 264.216 
L 214.775341 262.716 
L 216.275341 264.216 
L 217.775341 262.716 
L 216.275341 261.216 
L 217.775341 259.716 
L 216.275341 258.216 
L 214.775341 259.716 
L 213.275341 258.216 
L 211.775341 259.716 
L 213.275341 261.216 
L 211.775341 262.716 
z
" style="fill:#2f9599;stroke:#ffffff;stroke-width:0.48;"/>
    <path clip-path="url(#p5f92ab6733)" d="M 220.038977 264.216 
L 221.538977 262.716 
L 223.038977 264.216 
L 224.538977 262.716 
L 223.038977 261.216 
L 224.538977 259.716 
L 223.038977 258.216 
L 221.538977 259.716 
L 220.038977 258.216 
L 218.538977 259.716 
L 220.038977 261.216 
L 218.538977 262.716 
z
" style="fill:#2f9599;stroke:#ffffff;stroke-width:0.48;"/>
    <path clip-path="url(#p5f92ab6733)" d="M 226.802614 264.216 
L 228.302614 262.716 
L 229.802614 264.216 
L 231.302614 262.716 
L 229.802614 261.216 
L 231.302614 259.716 
L 229.802614 258.216 
L 228.302614 259.716 
L 226.802614 258.216 
L 225.302614 259.716 
L 226.802614 261.216 
L 225.302614 262.716 
z
" style="fill:#2f9599;stroke:#ffffff;stroke-width:0.48;"/>
    <path clip-path="url(#p5f92ab6733)" d="M 233.56625 264.216 
L 235.06625 262.716 
L 236.56625 264.216 
L 238.06625 262.716 
L 236.56625 261.216 
L 238.06625 259.716 
L 236.56625 258.216 
L 235.06625 259.716 
L 233.56625 258.216 
L 232.06625 259.716 
L 233.56625 261.216 
L 232.06625 262.716 
z
" style="fill:#2f9599;stroke:#ffffff;stroke-width:0.48;"/>
    <path clip-path="url(#p5f92ab6733)" d="M 240.329886 264.216 
L 241.829886 262.716 
L 243.329886 264.216 
L 244.829886 262.716 
L 243.329886 261.216 
L 244.829886 259.716 
L 243.329886 258.216 
L 241.829886 259.716 
L 240.329886 258.216 
L 238.829886 259.716 
L 240.329886 261.216 
L 238.829886 262.716 
z
" style="fill:#2f9599;stroke:#ffffff;stroke-width:0.48;"/>
    <path clip-path="url(#p5f92ab6733)" d="M 247.093523 264.216 
L 248.593523 262.716 
L 250.093523 264.216 
L 251.593523 262.716 
L 250.093523 261.216 
L 251.593523 259.716 
L 250.093523 258.216 
L 248.593523 259.716 
L 247.093523 258.216 
L 245.593523 259.716 
L 247.093523 261.216 
L 245.593523 262.716 
z
" style="fill:#2f9599;stroke:#ffffff;stroke-width:0.48;"/>
    <path clip-path="url(#p5f92ab6733)" d="M 253.857159 264.216 
L 255.357159 262.716 
L 256.857159 264.216 
L 258.357159 262.716 
L 256.857159 261.216 
L 258.357159 259.716 
L 256.857159 258.216 
L 255.357159 259.716 
L 253.857159 258.216 
L 252.357159 259.716 
L 253.857159 261.216 
L 252.357159 262.716 
z
" style="fill:#2f9599;stroke:#ffffff;stroke-width:0.48;"/>
    <path clip-path="url(#p5f92ab6733)" d="M 260.620795 264.216 
L 262.120795 262.716 
L 263.620795 264.216 
L 265.120795 262.716 
L 263.620795 261.216 
L 265.120795 259.716 
L 263.620795 258.216 
L 262.120795 259.716 
L 260.620795 258.216 
L 259.120795 259.716 
L 260.620795 261.216 
L 259.120795 262.716 
z
" style="fill:#2f9599;stroke:#ffffff;stroke-width:0.48;"/>
    <path clip-path="url(#p5f92ab6733)" d="M 267.384432 264.216 
L 268.884432 262.716 
L 270.384432 264.216 
L 271.884432 262.716 
L 270.384432 261.216 
L 271.884432 259.716 
L 270.384432 258.216 
L 268.884432 259.716 
L 267.384432 258.216 
L 265.884432 259.716 
L 267.384432 261.216 
L 265.884432 262.716 
z
" style="fill:#2f9599;stroke:#ffffff;stroke-width:0.48;"/>
    <path clip-path="url(#p5f92ab6733)" d="M 274.148068 264.216 
L 275.648068 262.716 
L 277.148068 264.216 
L 278.648068 262.716 
L 277.148068 261.216 
L 278.648068 259.716 
L 277.148068 258.216 
L 275.648068 259.716 
L 274.148068 258.216 
L 272.648068 259.716 
L 274.148068 261.216 
L 272.648068 262.716 
z
" style="fill:#2f9599;stroke:#ffffff;stroke-width:0.48;"/>
    <path clip-path="url(#p5f92ab6733)" d="M 280.911705 264.216 
L 282.411705 262.716 
L 283.911705 264.216 
L 285.411705 262.716 
L 283.911705 261.216 
L 285.411705 259.716 
L 283.911705 258.216 
L 282.411705 259.716 
L 280.911705 258.216 
L 279.411705 259.716 
L 280.911705 261.216 
L 279.411705 262.716 
z
" style="fill:#2f9599;stroke:#ffffff;stroke-width:0.48;"/>
    <path clip-path="url(#p5f92ab6733)" d="M 287.675341 264.216 
L 289.175341 262.716 
L 290.675341 264.216 
L 292.175341 262.716 
L 290.675341 261.216 
L 292.175341 259.716 
L 290.675341 258.216 
L 289.175341 259.716 
L 287.675341 258.216 
L 286.175341 259.716 
L 287.675341 261.216 
L 286.175341 262.716 
z
" style="fill:#2f9599;stroke:#ffffff;stroke-width:0.48;"/>
    <path clip-path="url(#p5f92ab6733)" d="M 294.438977 264.216 
L 295.938977 262.716 
L 297.438977 264.216 
L 298.938977 262.716 
L 297.438977 261.216 
L 298.938977 259.716 
L 297.438977 258.216 
L 295.938977 259.716 
L 294.438977 258.216 
L 292.938977 259.716 
L 294.438977 261.216 
L 292.938977 262.716 
z
" style="fill:#2f9599;stroke:#ffffff;stroke-width:0.48;"/>
    <path clip-path="url(#p5f92ab6733)" d="M 301.202614 264.216 
L 302.702614 262.716 
L 304.202614 264.216 
L 305.702614 262.716 
L 304.202614 261.216 
L 305.702614 259.716 
L 304.202614 258.216 
L 302.702614 259.716 
L 301.202614 258.216 
L 299.702614 259.716 
L 301.202614 261.216 
L 299.702614 262.716 
z
" style="fill:#2f9599;stroke:#ffffff;stroke-width:0.48;"/>
    <path clip-path="url(#p5f92ab6733)" d="M 307.96625 264.216 
L 309.46625 262.716 
L 310.96625 264.216 
L 312.46625 262.716 
L 310.96625 261.216 
L 312.46625 259.716 
L 310.96625 258.216 
L 309.46625 259.716 
L 307.96625 258.216 
L 306.46625 259.716 
L 307.96625 261.216 
L 306.46625 262.716 
z
" style="fill:#2f9599;stroke:#ffffff;stroke-width:0.48;"/>
    <path clip-path="url(#p5f92ab6733)" d="M 314.729886 264.216 
L 316.229886 262.716 
L 317.729886 264.216 
L 319.229886 262.716 
L 317.729886 261.216 
L 319.229886 259.716 
L 317.729886 258.216 
L 316.229886 259.716 
L 314.729886 258.216 
L 313.229886 259.716 
L 314.729886 261.216 
L 313.229886 262.716 
z
" style="fill:#2f9599;stroke:#ffffff;stroke-width:0.48;"/>
    <path clip-path="url(#p5f92ab6733)" d="M 321.493523 264.216 
L 322.993523 262.716 
L 324.493523 264.216 
L 325.993523 262.716 
L 324.493523 261.216 
L 325.993523 259.716 
L 324.493523 258.216 
L 322.993523 259.716 
L 321.493523 258.216 
L 319.993523 259.716 
L 321.493523 261.216 
L 319.993523 262.716 
z
" style="fill:#2f9599;stroke:#ffffff;stroke-width:0.48;"/>
    <path clip-path="url(#p5f92ab6733)" d="M 328.257159 264.216 
L 329.757159 262.716 
L 331.257159 264.216 
L 332.757159 262.716 
L 331.257159 261.216 
L 332.757159 259.716 
L 331.257159 258.216 
L 329.757159 259.716 
L 328.257159 258.216 
L 326.757159 259.716 
L 328.257159 261.216 
L 326.757159 262.716 
z
" style="fill:#2f9599;stroke:#ffffff;stroke-width:0.48;"/>
    <path clip-path="url(#p5f92ab6733)" d="M 335.020795 264.216 
L 336.520795 262.716 
L 338.020795 264.216 
L 339.520795 262.716 
L 338.020795 261.216 
L 339.520795 259.716 
L 338.020795 258.216 
L 336.520795 259.716 
L 335.020795 258.216 
L 333.520795 259.716 
L 335.020795 261.216 
L 333.520795 262.716 
z
" style="fill:#2f9599;stroke:#ffffff;stroke-width:0.48;"/>
    <path clip-path="url(#p5f92ab6733)" d="M 341.784432 264.216 
L 343.284432 262.716 
L 344.784432 264.216 
L 346.284432 262.716 
L 344.784432 261.216 
L 346.284432 259.716 
L 344.784432 258.216 
L 343.284432 259.716 
L 341.784432 258.216 
L 340.284432 259.716 
L 341.784432 261.216 
L 340.284432 262.716 
z
" style="fill:#2f9599;stroke:#ffffff;stroke-width:0.48;"/>
    <path clip-path="url(#p5f92ab6733)" d="M 348.548068 264.216 
L 350.048068 262.716 
L 351.548068 264.216 
L 353.048068 262.716 
L 351.548068 261.216 
L 353.048068 259.716 
L 351.548068 258.216 
L 350.048068 259.716 
L 348.548068 258.216 
L 347.048068 259.716 
L 348.548068 261.216 
L 347.048068 262.716 
z
" style="fill:#2f9599;stroke:#ffffff;stroke-width:0.48;"/>
    <path clip-path="url(#p5f92ab6733)" d="M 355.311705 264.216 
L 356.811705 262.716 
L 358.311705 264.216 
L 359.811705 262.716 
L 358.311705 261.216 
L 359.811705 259.716 
L 358.311705 258.216 
L 356.811705 259.716 
L 355.311705 258.216 
L 353.811705 259.716 
L 355.311705 261.216 
L 353.811705 262.716 
z
" style="fill:#2f9599;stroke:#ffffff;stroke-width:0.48;"/>
    <path clip-path="url(#p5f92ab6733)" d="M 362.075341 264.216 
L 363.575341 262.716 
L 365.075341 264.216 
L 366.575341 262.716 
L 365.075341 261.216 
L 366.575341 259.716 
L 365.075341 258.216 
L 363.575341 259.716 
L 362.075341 258.216 
L 360.575341 259.716 
L 362.075341 261.216 
L 360.575341 262.716 
z
" style="fill:#2f9599;stroke:#ffffff;stroke-width:0.48;"/>
    <path clip-path="url(#p5f92ab6733)" d="M 368.838977 264.216 
L 370.338977 262.716 
L 371.838977 264.216 
L 373.338977 262.716 
L 371.838977 261.216 
L 373.338977 259.716 
L 371.838977 258.216 
L 370.338977 259.716 
L 368.838977 258.216 
L 367.338977 259.716 
L 368.838977 261.216 
L 367.338977 262.716 
z
" style="fill:#2f9599;stroke:#ffffff;stroke-width:0.48;"/>
    <path clip-path="url(#p5f92ab6733)" d="M 375.602614 264.216 
L 377.102614 262.716 
L 378.602614 264.216 
L 380.102614 262.716 
L 378.602614 261.216 
L 380.102614 259.716 
L 378.602614 258.216 
L 377.102614 259.716 
L 375.602614 258.216 
L 374.102614 259.716 
L 375.602614 261.216 
L 374.102614 262.716 
z
" style="fill:#2f9599;stroke:#ffffff;stroke-width:0.48;"/>
    <path clip-path="url(#p5f92ab6733)" d="M 382.36625 264.216 
L 383.86625 262.716 
L 385.36625 264.216 
L 386.86625 262.716 
L 385.36625 261.216 
L 386.86625 259.716 
L 385.36625 258.216 
L 383.86625 259.716 
L 382.36625 258.216 
L 380.86625 259.716 
L 382.36625 261.216 
L 380.86625 262.716 
z
" style="fill:#2f9599;stroke:#ffffff;stroke-width:0.48;"/>
    <path clip-path="url(#p5f92ab6733)" d="M 389.129886 264.216 
L 390.629886 262.716 
L 392.129886 264.216 
L 393.629886 262.716 
L 392.129886 261.216 
L 393.629886 259.716 
L 392.129886 258.216 
L 390.629886 259.716 
L 389.129886 258.216 
L 387.629886 259.716 
L 389.129886 261.216 
L 387.629886 262.716 
z
" style="fill:#2f9599;stroke:#ffffff;stroke-width:0.48;"/>
    <path clip-path="url(#p5f92ab6733)" d="M 395.893523 264.216 
L 397.393523 262.716 
L 398.893523 264.216 
L 400.393523 262.716 
L 398.893523 261.216 
L 400.393523 259.716 
L 398.893523 258.216 
L 397.393523 259.716 
L 395.893523 258.216 
L 394.393523 259.716 
L 395.893523 261.216 
L 394.393523 262.716 
z
" style="fill:#2f9599;stroke:#ffffff;stroke-width:0.48;"/>
    <path clip-path="url(#p5f92ab6733)" d="M 70.617657 45.993565 
L 70.617657 50.236206 
L 74.860298 50.236206 
L 74.860298 45.993565 
z
" style="fill:#a7226e;stroke:#ffffff;stroke-width:0.48;"/>
    <path clip-path="url(#p5f92ab6733)" d="M 77.381293 45.993565 
L 77.381293 50.236206 
L 81.623934 50.236206 
L 81.623934 45.993565 
z
" style="fill:#a7226e;stroke:#ffffff;stroke-width:0.48;"/>
    <path clip-path="url(#p5f92ab6733)" d="M 84.14493 45.993565 
L 84.14493 50.236206 
L 88.38757 50.236206 
L 88.38757 45.993565 
z
" style="fill:#a7226e;stroke:#ffffff;stroke-width:0.48;"/>
    <path clip-path="url(#p5f92ab6733)" d="M 90.908566 45.993565 
L 90.908566 50.236206 
L 95.151207 50.236206 
L 95.151207 45.993565 
z
" style="fill:#a7226e;stroke:#ffffff;stroke-width:0.48;"/>
    <path clip-path="url(#p5f92ab6733)" d="M 97.672202 45.993565 
L 97.672202 50.236206 
L 101.914843 50.236206 
L 101.914843 45.993565 
z
" style="fill:#a7226e;stroke:#ffffff;stroke-width:0.48;"/>
    <path clip-path="url(#p5f92ab6733)" d="M 104.435839 60.760266 
L 104.435839 65.002907 
L 108.678479 65.002907 
L 108.678479 60.760266 
z
" style="fill:#a7226e;stroke:#ffffff;stroke-width:0.48;"/>
    <path clip-path="url(#p5f92ab6733)" d="M 111.199475 45.993565 
L 111.199475 50.236206 
L 115.442116 50.236206 
L 115.442116 45.993565 
z
" style="fill:#a7226e;stroke:#ffffff;stroke-width:0.48;"/>
    <path clip-path="url(#p5f92ab6733)" d="M 117.963111 45.993565 
L 117.963111 50.236206 
L 122.205752 50.236206 
L 122.205752 45.993565 
z
" style="fill:#a7226e;stroke:#ffffff;stroke-width:0.48;"/>
    <path clip-path="url(#p5f92ab6733)" d="M 124.726748 45.993565 
L 124.726748 50.236206 
L 128.969389 50.236206 
L 128.969389 45.993565 
z
" style="fill:#a7226e;stroke:#ffffff;stroke-width:0.48;"/>
    <path clip-path="url(#p5f92ab6733)" d="M 131.490384 31.466972 
L 131.490384 35.709613 
L 135.733025 35.709613 
L 135.733025 31.466972 
z
" style="fill:#a7226e;stroke:#ffffff;stroke-width:0.48;"/>
    <path clip-path="url(#p5f92ab6733)" d="M 138.254021 45.993565 
L 138.254021 50.236206 
L 142.496661 50.236206 
L 142.496661 45.993565 
z
" style="fill:#a7226e;stroke:#ffffff;stroke-width:0.48;"/>
    <path clip-path="url(#p5f92ab6733)" d="M 145.017657 17.17468 
L 145.017657 21.41732 
L 149.260298 21.41732 
L 149.260298 17.17468 
z
" style="fill:#a7226e;stroke:#ffffff;stroke-width:0.48;"/>
    <path clip-path="url(#p5f92ab6733)" d="M 151.781293 17.17468 
L 151.781293 21.41732 
L 156.023934 21.41732 
L 156.023934 17.17468 
z
" style="fill:#a7226e;stroke:#ffffff;stroke-width:0.48;"/>
    <path clip-path="url(#p5f92ab6733)" d="M 158.54493 17.17468 
L 158.54493 21.41732 
L 162.78757 21.41732 
L 162.78757 17.17468 
z
" style="fill:#a7226e;stroke:#ffffff;stroke-width:0.48;"/>
    <path clip-path="url(#p5f92ab6733)" d="M 165.308566 17.17468 
L 165.308566 21.41732 
L 169.551207 21.41732 
L 169.551207 17.17468 
z
" style="fill:#a7226e;stroke:#ffffff;stroke-width:0.48;"/>
    <path clip-path="url(#p5f92ab6733)" d="M 172.072202 45.993565 
L 172.072202 50.236206 
L 176.314843 50.236206 
L 176.314843 45.993565 
z
" style="fill:#a7226e;stroke:#ffffff;stroke-width:0.48;"/>
    <path clip-path="url(#p5f92ab6733)" d="M 178.835839 31.466972 
L 178.835839 35.709613 
L 183.078479 35.709613 
L 183.078479 31.466972 
z
" style="fill:#a7226e;stroke:#ffffff;stroke-width:0.48;"/>
    <path clip-path="url(#p5f92ab6733)" d="M 185.599475 31.466972 
L 185.599475 35.709613 
L 189.842116 35.709613 
L 189.842116 31.466972 
z
" style="fill:#a7226e;stroke:#ffffff;stroke-width:0.48;"/>
    <path clip-path="url(#p5f92ab6733)" d="M 192.363111 31.466972 
L 192.363111 35.709613 
L 196.605752 35.709613 
L 196.605752 31.466972 
z
" style="fill:#a7226e;stroke:#ffffff;stroke-width:0.48;"/>
    <path clip-path="url(#p5f92ab6733)" d="M 199.126748 31.466972 
L 199.126748 35.709613 
L 203.369389 35.709613 
L 203.369389 31.466972 
z
" style="fill:#a7226e;stroke:#ffffff;stroke-width:0.48;"/>
    <path clip-path="url(#p5f92ab6733)" d="M 205.890384 31.466972 
L 205.890384 35.709613 
L 210.133025 35.709613 
L 210.133025 31.466972 
z
" style="fill:#a7226e;stroke:#ffffff;stroke-width:0.48;"/>
    <path clip-path="url(#p5f92ab6733)" d="M 212.654021 45.993565 
L 212.654021 50.236206 
L 216.896661 50.236206 
L 216.896661 45.993565 
z
" style="fill:#a7226e;stroke:#ffffff;stroke-width:0.48;"/>
    <path clip-path="url(#p5f92ab6733)" d="M 219.417657 45.993565 
L 219.417657 50.236206 
L 223.660298 50.236206 
L 223.660298 45.993565 
z
" style="fill:#a7226e;stroke:#ffffff;stroke-width:0.48;"/>
    <path clip-path="url(#p5f92ab6733)" d="M 226.181293 91.038209 
L 226.181293 95.28085 
L 230.423934 95.28085 
L 230.423934 91.038209 
z
" style="fill:#a7226e;stroke:#ffffff;stroke-width:0.48;"/>
    <path clip-path="url(#p5f92ab6733)" d="M 232.94493 91.038209 
L 232.94493 95.28085 
L 237.18757 95.28085 
L 237.18757 91.038209 
z
" style="fill:#a7226e;stroke:#ffffff;stroke-width:0.48;"/>
    <path clip-path="url(#p5f92ab6733)" d="M 239.708566 91.038209 
L 239.708566 95.28085 
L 243.951207 95.28085 
L 243.951207 91.038209 
z
" style="fill:#a7226e;stroke:#ffffff;stroke-width:0.48;"/>
    <path clip-path="url(#p5f92ab6733)" d="M 246.472202 45.993565 
L 246.472202 50.236206 
L 250.714843 50.236206 
L 250.714843 45.993565 
z
" style="fill:#a7226e;stroke:#ffffff;stroke-width:0.48;"/>
    <path clip-path="url(#p5f92ab6733)" d="M 253.235839 45.993565 
L 253.235839 50.236206 
L 257.478479 50.236206 
L 257.478479 45.993565 
z
" style="fill:#a7226e;stroke:#ffffff;stroke-width:0.48;"/>
    <path clip-path="url(#p5f92ab6733)" d="M 259.999475 45.993565 
L 259.999475 50.236206 
L 264.242116 50.236206 
L 264.242116 45.993565 
z
" style="fill:#a7226e;stroke:#ffffff;stroke-width:0.48;"/>
    <path clip-path="url(#p5f92ab6733)" d="M 266.763111 45.993565 
L 266.763111 50.236206 
L 271.005752 50.236206 
L 271.005752 45.993565 
z
" style="fill:#a7226e;stroke:#ffffff;stroke-width:0.48;"/>
    <path clip-path="url(#p5f92ab6733)" d="M 273.526748 45.993565 
L 273.526748 50.236206 
L 277.769389 50.236206 
L 277.769389 45.993565 
z
" style="fill:#a7226e;stroke:#ffffff;stroke-width:0.48;"/>
    <path clip-path="url(#p5f92ab6733)" d="M 280.290384 45.993565 
L 280.290384 50.236206 
L 284.533025 50.236206 
L 284.533025 45.993565 
z
" style="fill:#a7226e;stroke:#ffffff;stroke-width:0.48;"/>
    <path clip-path="url(#p5f92ab6733)" d="M 287.054021 45.993565 
L 287.054021 50.236206 
L 291.296661 50.236206 
L 291.296661 45.993565 
z
" style="fill:#a7226e;stroke:#ffffff;stroke-width:0.48;"/>
    <path clip-path="url(#p5f92ab6733)" d="M 293.817657 75.77308 
L 293.817657 80.01572 
L 298.060298 80.01572 
L 298.060298 75.77308 
z
" style="fill:#a7226e;stroke:#ffffff;stroke-width:0.48;"/>
    <path clip-path="url(#p5f92ab6733)" d="M 300.581293 75.77308 
L 300.581293 80.01572 
L 304.823934 80.01572 
L 304.823934 75.77308 
z
" style="fill:#a7226e;stroke:#ffffff;stroke-width:0.48;"/>
    <path clip-path="url(#p5f92ab6733)" d="M 307.34493 75.77308 
L 307.34493 80.01572 
L 311.58757 80.01572 
L 311.58757 75.77308 
z
" style="fill:#a7226e;stroke:#ffffff;stroke-width:0.48;"/>
    <path clip-path="url(#p5f92ab6733)" d="M 314.108566 75.77308 
L 314.108566 80.01572 
L 318.351207 80.01572 
L 318.351207 75.77308 
z
" style="fill:#a7226e;stroke:#ffffff;stroke-width:0.48;"/>
    <path clip-path="url(#p5f92ab6733)" d="M 320.872202 75.77308 
L 320.872202 80.01572 
L 325.114843 80.01572 
L 325.114843 75.77308 
z
" style="fill:#a7226e;stroke:#ffffff;stroke-width:0.48;"/>
    <path clip-path="url(#p5f92ab6733)" d="M 327.635839 75.77308 
L 327.635839 80.01572 
L 331.878479 80.01572 
L 331.878479 75.77308 
z
" style="fill:#a7226e;stroke:#ffffff;stroke-width:0.48;"/>
    <path clip-path="url(#p5f92ab6733)" d="M 334.399475 75.77308 
L 334.399475 80.01572 
L 338.642116 80.01572 
L 338.642116 75.77308 
z
" style="fill:#a7226e;stroke:#ffffff;stroke-width:0.48;"/>
    <path clip-path="url(#p5f92ab6733)" d="M 341.163111 75.77308 
L 341.163111 80.01572 
L 345.405752 80.01572 
L 345.405752 75.77308 
z
" style="fill:#a7226e;stroke:#ffffff;stroke-width:0.48;"/>
    <path clip-path="url(#p5f92ab6733)" d="M 347.926748 75.77308 
L 347.926748 80.01572 
L 352.169389 80.01572 
L 352.169389 75.77308 
z
" style="fill:#a7226e;stroke:#ffffff;stroke-width:0.48;"/>
    <path clip-path="url(#p5f92ab6733)" d="M 354.690384 75.77308 
L 354.690384 80.01572 
L 358.933025 80.01572 
L 358.933025 75.77308 
z
" style="fill:#a7226e;stroke:#ffffff;stroke-width:0.48;"/>
    <path clip-path="url(#p5f92ab6733)" d="M 361.454021 75.77308 
L 361.454021 80.01572 
L 365.696661 80.01572 
L 365.696661 75.77308 
z
" style="fill:#a7226e;stroke:#ffffff;stroke-width:0.48;"/>
    <path clip-path="url(#p5f92ab6733)" d="M 368.217657 75.77308 
L 368.217657 80.01572 
L 372.460298 80.01572 
L 372.460298 75.77308 
z
" style="fill:#a7226e;stroke:#ffffff;stroke-width:0.48;"/>
    <path clip-path="url(#p5f92ab6733)" d="M 374.981293 75.77308 
L 374.981293 80.01572 
L 379.223934 80.01572 
L 379.223934 75.77308 
z
" style="fill:#a7226e;stroke:#ffffff;stroke-width:0.48;"/>
    <path clip-path="url(#p5f92ab6733)" d="M 381.74493 75.77308 
L 381.74493 80.01572 
L 385.98757 80.01572 
L 385.98757 75.77308 
z
" style="fill:#a7226e;stroke:#ffffff;stroke-width:0.48;"/>
    <path clip-path="url(#p5f92ab6733)" d="M 388.508566 75.77308 
L 388.508566 80.01572 
L 392.751207 80.01572 
L 392.751207 75.77308 
z
" style="fill:#a7226e;stroke:#ffffff;stroke-width:0.48;"/>
    <path clip-path="url(#p5f92ab6733)" d="M 395.272202 75.77308 
L 395.272202 80.01572 
L 399.514843 80.01572 
L 399.514843 75.77308 
z
" style="fill:#a7226e;stroke:#ffffff;stroke-width:0.48;"/>
   </g>
   <g id="PathCollection_2"/>
   <g id="PathCollection_3"/>
   <g id="PathCollection_4"/>
   <g id="matplotlib.axis_1">
    <g id="xtick_1">
     <g id="line2d_1">
      <defs>
       <path d="M 0 0 
L 0 3.5 
" id="m857e193579" style="stroke:#000000;stroke-width:0.8;"/>
      </defs>
      <g>
       <use style="stroke:#000000;stroke-width:0.8;" x="65.975341" xlink:href="#m857e193579" y="273.312"/>
      </g>
     </g>
     <g id="text_1">
      <!-- 0.0 -->
      <g transform="translate(58.023778 287.910437)scale(0.1 -0.1)">
       <defs>
        <path d="M 31.78125 66.40625 
Q 24.171875 66.40625 20.328125 58.90625 
Q 16.5 51.421875 16.5 36.375 
Q 16.5 21.390625 20.328125 13.890625 
Q 24.171875 6.390625 31.78125 6.390625 
Q 39.453125 6.390625 43.28125 13.890625 
Q 47.125 21.390625 47.125 36.375 
Q 47.125 51.421875 43.28125 58.90625 
Q 39.453125 66.40625 31.78125 66.40625 
z
M 31.78125 74.21875 
Q 44.046875 74.21875 50.515625 64.515625 
Q 56.984375 54.828125 56.984375 36.375 
Q 56.984375 17.96875 50.515625 8.265625 
Q 44.046875 -1.421875 31.78125 -1.421875 
Q 19.53125 -1.421875 13.0625 8.265625 
Q 6.59375 17.96875 6.59375 36.375 
Q 6.59375 54.828125 13.0625 64.515625 
Q 19.53125 74.21875 31.78125 74.21875 
z
" id="DejaVuSans-48"/>
        <path d="M 10.6875 12.40625 
L 21 12.40625 
L 21 0 
L 10.6875 0 
z
" id="DejaVuSans-46"/>
       </defs>
       <use xlink:href="#DejaVuSans-48"/>
       <use x="63.623047" xlink:href="#DejaVuSans-46"/>
       <use x="95.410156" xlink:href="#DejaVuSans-48"/>
      </g>
     </g>
    </g>
    <g id="xtick_2">
     <g id="line2d_2">
      <g>
       <use style="stroke:#000000;stroke-width:0.8;" x="133.611705" xlink:href="#m857e193579" y="273.312"/>
      </g>
     </g>
     <g id="text_2">
      <!-- 0.2 -->
      <g transform="translate(125.660142 287.910437)scale(0.1 -0.1)">
       <defs>
        <path d="M 19.1875 8.296875 
L 53.609375 8.296875 
L 53.609375 0 
L 7.328125 0 
L 7.328125 8.296875 
Q 12.9375 14.109375 22.625 23.890625 
Q 32.328125 33.6875 34.8125 36.53125 
Q 39.546875 41.84375 41.421875 45.53125 
Q 43.3125 49.21875 43.3125 52.78125 
Q 43.3125 58.59375 39.234375 62.25 
Q 35.15625 65.921875 28.609375 65.921875 
Q 23.96875 65.921875 18.8125 64.3125 
Q 13.671875 62.703125 7.8125 59.421875 
L 7.8125 69.390625 
Q 13.765625 71.78125 18.9375 73 
Q 24.125 74.21875 28.421875 74.21875 
Q 39.75 74.21875 46.484375 68.546875 
Q 53.21875 62.890625 53.21875 53.421875 
Q 53.21875 48.921875 51.53125 44.890625 
Q 49.859375 40.875 45.40625 35.40625 
Q 44.1875 33.984375 37.640625 27.21875 
Q 31.109375 20.453125 19.1875 8.296875 
z
" id="DejaVuSans-50"/>
       </defs>
       <use xlink:href="#DejaVuSans-48"/>
       <use x="63.623047" xlink:href="#DejaVuSans-46"/>
       <use x="95.410156" xlink:href="#DejaVuSans-50"/>
      </g>
     </g>
    </g>
    <g id="xtick_3">
     <g id="line2d_3">
      <g>
       <use style="stroke:#000000;stroke-width:0.8;" x="201.248068" xlink:href="#m857e193579" y="273.312"/>
      </g>
     </g>
     <g id="text_3">
      <!-- 0.4 -->
      <g transform="translate(193.296506 287.910437)scale(0.1 -0.1)">
       <defs>
        <path d="M 37.796875 64.3125 
L 12.890625 25.390625 
L 37.796875 25.390625 
z
M 35.203125 72.90625 
L 47.609375 72.90625 
L 47.609375 25.390625 
L 58.015625 25.390625 
L 58.015625 17.1875 
L 47.609375 17.1875 
L 47.609375 0 
L 37.796875 0 
L 37.796875 17.1875 
L 4.890625 17.1875 
L 4.890625 26.703125 
z
" id="DejaVuSans-52"/>
       </defs>
       <use xlink:href="#DejaVuSans-48"/>
       <use x="63.623047" xlink:href="#DejaVuSans-46"/>
       <use x="95.410156" xlink:href="#DejaVuSans-52"/>
      </g>
     </g>
    </g>
    <g id="xtick_4">
     <g id="line2d_4">
      <g>
       <use style="stroke:#000000;stroke-width:0.8;" x="268.884432" xlink:href="#m857e193579" y="273.312"/>
      </g>
     </g>
     <g id="text_4">
      <!-- 0.6 -->
      <g transform="translate(260.932869 287.910437)scale(0.1 -0.1)">
       <defs>
        <path d="M 33.015625 40.375 
Q 26.375 40.375 22.484375 35.828125 
Q 18.609375 31.296875 18.609375 23.390625 
Q 18.609375 15.53125 22.484375 10.953125 
Q 26.375 6.390625 33.015625 6.390625 
Q 39.65625 6.390625 43.53125 10.953125 
Q 47.40625 15.53125 47.40625 23.390625 
Q 47.40625 31.296875 43.53125 35.828125 
Q 39.65625 40.375 33.015625 40.375 
z
M 52.59375 71.296875 
L 52.59375 62.3125 
Q 48.875 64.0625 45.09375 64.984375 
Q 41.3125 65.921875 37.59375 65.921875 
Q 27.828125 65.921875 22.671875 59.328125 
Q 17.53125 52.734375 16.796875 39.40625 
Q 19.671875 43.65625 24.015625 45.921875 
Q 28.375 48.1875 33.59375 48.1875 
Q 44.578125 48.1875 50.953125 41.515625 
Q 57.328125 34.859375 57.328125 23.390625 
Q 57.328125 12.15625 50.6875 5.359375 
Q 44.046875 -1.421875 33.015625 -1.421875 
Q 20.359375 -1.421875 13.671875 8.265625 
Q 6.984375 17.96875 6.984375 36.375 
Q 6.984375 53.65625 15.1875 63.9375 
Q 23.390625 74.21875 37.203125 74.21875 
Q 40.921875 74.21875 44.703125 73.484375 
Q 48.484375 72.75 52.59375 71.296875 
z
" id="DejaVuSans-54"/>
       </defs>
       <use xlink:href="#DejaVuSans-48"/>
       <use x="63.623047" xlink:href="#DejaVuSans-46"/>
       <use x="95.410156" xlink:href="#DejaVuSans-54"/>
      </g>
     </g>
    </g>
    <g id="xtick_5">
     <g id="line2d_5">
      <g>
       <use style="stroke:#000000;stroke-width:0.8;" x="336.520795" xlink:href="#m857e193579" y="273.312"/>
      </g>
     </g>
     <g id="text_5">
      <!-- 0.8 -->
      <g transform="translate(328.569233 287.910437)scale(0.1 -0.1)">
       <defs>
        <path d="M 31.78125 34.625 
Q 24.75 34.625 20.71875 30.859375 
Q 16.703125 27.09375 16.703125 20.515625 
Q 16.703125 13.921875 20.71875 10.15625 
Q 24.75 6.390625 31.78125 6.390625 
Q 38.8125 6.390625 42.859375 10.171875 
Q 46.921875 13.96875 46.921875 20.515625 
Q 46.921875 27.09375 42.890625 30.859375 
Q 38.875 34.625 31.78125 34.625 
z
M 21.921875 38.8125 
Q 15.578125 40.375 12.03125 44.71875 
Q 8.5 49.078125 8.5 55.328125 
Q 8.5 64.0625 14.71875 69.140625 
Q 20.953125 74.21875 31.78125 74.21875 
Q 42.671875 74.21875 48.875 69.140625 
Q 55.078125 64.0625 55.078125 55.328125 
Q 55.078125 49.078125 51.53125 44.71875 
Q 48 40.375 41.703125 38.8125 
Q 48.828125 37.15625 52.796875 32.3125 
Q 56.78125 27.484375 56.78125 20.515625 
Q 56.78125 9.90625 50.3125 4.234375 
Q 43.84375 -1.421875 31.78125 -1.421875 
Q 19.734375 -1.421875 13.25 4.234375 
Q 6.78125 9.90625 6.78125 20.515625 
Q 6.78125 27.484375 10.78125 32.3125 
Q 14.796875 37.15625 21.921875 38.8125 
z
M 18.3125 54.390625 
Q 18.3125 48.734375 21.84375 45.5625 
Q 25.390625 42.390625 31.78125 42.390625 
Q 38.140625 42.390625 41.71875 45.5625 
Q 45.3125 48.734375 45.3125 54.390625 
Q 45.3125 60.0625 41.71875 63.234375 
Q 38.140625 66.40625 31.78125 66.40625 
Q 25.390625 66.40625 21.84375 63.234375 
Q 18.3125 60.0625 18.3125 54.390625 
z
" id="DejaVuSans-56"/>
       </defs>
       <use xlink:href="#DejaVuSans-48"/>
       <use x="63.623047" xlink:href="#DejaVuSans-46"/>
       <use x="95.410156" xlink:href="#DejaVuSans-56"/>
      </g>
     </g>
    </g>
    <g id="xtick_6">
     <g id="line2d_6">
      <g>
       <use style="stroke:#000000;stroke-width:0.8;" x="404.157159" xlink:href="#m857e193579" y="273.312"/>
      </g>
     </g>
     <g id="text_6">
      <!-- 1.0 -->
      <g transform="translate(396.205597 287.910437)scale(0.1 -0.1)">
       <defs>
        <path d="M 12.40625 8.296875 
L 28.515625 8.296875 
L 28.515625 63.921875 
L 10.984375 60.40625 
L 10.984375 69.390625 
L 28.421875 72.90625 
L 38.28125 72.90625 
L 38.28125 8.296875 
L 54.390625 8.296875 
L 54.390625 0 
L 12.40625 0 
z
" id="DejaVuSans-49"/>
       </defs>
       <use xlink:href="#DejaVuSans-49"/>
       <use x="63.623047" xlink:href="#DejaVuSans-46"/>
       <use x="95.410156" xlink:href="#DejaVuSans-48"/>
      </g>
     </g>
    </g>
    <g id="text_7">
     <!-- cutoff -->
     <g transform="translate(220.608438 301.588562)scale(0.1 -0.1)">
      <defs>
       <path d="M 48.78125 52.59375 
L 48.78125 44.1875 
Q 44.96875 46.296875 41.140625 47.34375 
Q 37.3125 48.390625 33.40625 48.390625 
Q 24.65625 48.390625 19.8125 42.84375 
Q 14.984375 37.3125 14.984375 27.296875 
Q 14.984375 17.28125 19.8125 11.734375 
Q 24.65625 6.203125 33.40625 6.203125 
Q 37.3125 6.203125 41.140625 7.25 
Q 44.96875 8.296875 48.78125 10.40625 
L 48.78125 2.09375 
Q 45.015625 0.34375 40.984375 -0.53125 
Q 36.96875 -1.421875 32.421875 -1.421875 
Q 20.0625 -1.421875 12.78125 6.34375 
Q 5.515625 14.109375 5.515625 27.296875 
Q 5.515625 40.671875 12.859375 48.328125 
Q 20.21875 56 33.015625 56 
Q 37.15625 56 41.109375 55.140625 
Q 45.0625 54.296875 48.78125 52.59375 
z
" id="DejaVuSans-99"/>
       <path d="M 8.5 21.578125 
L 8.5 54.6875 
L 17.484375 54.6875 
L 17.484375 21.921875 
Q 17.484375 14.15625 20.5 10.265625 
Q 23.53125 6.390625 29.59375 6.390625 
Q 36.859375 6.390625 41.078125 11.03125 
Q 45.3125 15.671875 45.3125 23.6875 
L 45.3125 54.6875 
L 54.296875 54.6875 
L 54.296875 0 
L 45.3125 0 
L 45.3125 8.40625 
Q 42.046875 3.421875 37.71875 1 
Q 33.40625 -1.421875 27.6875 -1.421875 
Q 18.265625 -1.421875 13.375 4.4375 
Q 8.5 10.296875 8.5 21.578125 
z
M 31.109375 56 
z
" id="DejaVuSans-117"/>
       <path d="M 18.3125 70.21875 
L 18.3125 54.6875 
L 36.8125 54.6875 
L 36.8125 47.703125 
L 18.3125 47.703125 
L 18.3125 18.015625 
Q 18.3125 11.328125 20.140625 9.421875 
Q 21.96875 7.515625 27.59375 7.515625 
L 36.8125 7.515625 
L 36.8125 0 
L 27.59375 0 
Q 17.1875 0 13.234375 3.875 
Q 9.28125 7.765625 9.28125 18.015625 
L 9.28125 47.703125 
L 2.6875 47.703125 
L 2.6875 54.6875 
L 9.28125 54.6875 
L 9.28125 70.21875 
z
" id="DejaVuSans-116"/>
       <path d="M 30.609375 48.390625 
Q 23.390625 48.390625 19.1875 42.75 
Q 14.984375 37.109375 14.984375 27.296875 
Q 14.984375 17.484375 19.15625 11.84375 
Q 23.34375 6.203125 30.609375 6.203125 
Q 37.796875 6.203125 41.984375 11.859375 
Q 46.1875 17.53125 46.1875 27.296875 
Q 46.1875 37.015625 41.984375 42.703125 
Q 37.796875 48.390625 30.609375 48.390625 
z
M 30.609375 56 
Q 42.328125 56 49.015625 48.375 
Q 55.71875 40.765625 55.71875 27.296875 
Q 55.71875 13.875 49.015625 6.21875 
Q 42.328125 -1.421875 30.609375 -1.421875 
Q 18.84375 -1.421875 12.171875 6.21875 
Q 5.515625 13.875 5.515625 27.296875 
Q 5.515625 40.765625 12.171875 48.375 
Q 18.84375 56 30.609375 56 
z
" id="DejaVuSans-111"/>
       <path d="M 37.109375 75.984375 
L 37.109375 68.5 
L 28.515625 68.5 
Q 23.6875 68.5 21.796875 66.546875 
Q 19.921875 64.59375 19.921875 59.515625 
L 19.921875 54.6875 
L 34.71875 54.6875 
L 34.71875 47.703125 
L 19.921875 47.703125 
L 19.921875 0 
L 10.890625 0 
L 10.890625 47.703125 
L 2.296875 47.703125 
L 2.296875 54.6875 
L 10.890625 54.6875 
L 10.890625 58.5 
Q 10.890625 67.625 15.140625 71.796875 
Q 19.390625 75.984375 28.609375 75.984375 
z
" id="DejaVuSans-102"/>
      </defs>
      <use xlink:href="#DejaVuSans-99"/>
      <use x="54.980469" xlink:href="#DejaVuSans-117"/>
      <use x="118.359375" xlink:href="#DejaVuSans-116"/>
      <use x="157.568359" xlink:href="#DejaVuSans-111"/>
      <use x="218.75" xlink:href="#DejaVuSans-102"/>
      <use x="253.955078" xlink:href="#DejaVuSans-102"/>
     </g>
    </g>
   </g>
   <g id="matplotlib.axis_2">
    <g id="ytick_1">
     <g id="line2d_7">
      <defs>
       <path d="M 0 0 
L -3.5 0 
" id="mdf45a0cb94" style="stroke:#000000;stroke-width:0.8;"/>
      </defs>
      <g>
       <use style="stroke:#000000;stroke-width:0.8;" x="56.50625" xlink:href="#mdf45a0cb94" y="263.92667"/>
      </g>
     </g>
     <g id="text_8">
      <!-- 0.475 -->
      <g transform="translate(20.878125 267.725889)scale(0.1 -0.1)">
       <defs>
        <path d="M 8.203125 72.90625 
L 55.078125 72.90625 
L 55.078125 68.703125 
L 28.609375 0 
L 18.3125 0 
L 43.21875 64.59375 
L 8.203125 64.59375 
z
" id="DejaVuSans-55"/>
        <path d="M 10.796875 72.90625 
L 49.515625 72.90625 
L 49.515625 64.59375 
L 19.828125 64.59375 
L 19.828125 46.734375 
Q 21.96875 47.46875 24.109375 47.828125 
Q 26.265625 48.1875 28.421875 48.1875 
Q 40.625 48.1875 47.75 41.5 
Q 54.890625 34.8125 54.890625 23.390625 
Q 54.890625 11.625 47.5625 5.09375 
Q 40.234375 -1.421875 26.90625 -1.421875 
Q 22.3125 -1.421875 17.546875 -0.640625 
Q 12.796875 0.140625 7.71875 1.703125 
L 7.71875 11.625 
Q 12.109375 9.234375 16.796875 8.0625 
Q 21.484375 6.890625 26.703125 6.890625 
Q 35.15625 6.890625 40.078125 11.328125 
Q 45.015625 15.765625 45.015625 23.390625 
Q 45.015625 31 40.078125 35.4375 
Q 35.15625 39.890625 26.703125 39.890625 
Q 22.75 39.890625 18.8125 39.015625 
Q 14.890625 38.140625 10.796875 36.28125 
z
" id="DejaVuSans-53"/>
       </defs>
       <use xlink:href="#DejaVuSans-48"/>
       <use x="63.623047" xlink:href="#DejaVuSans-46"/>
       <use x="95.410156" xlink:href="#DejaVuSans-52"/>
       <use x="159.033203" xlink:href="#DejaVuSans-55"/>
       <use x="222.65625" xlink:href="#DejaVuSans-53"/>
      </g>
     </g>
    </g>
    <g id="ytick_2">
     <g id="line2d_8">
      <g>
       <use style="stroke:#000000;stroke-width:0.8;" x="56.50625" xlink:href="#mdf45a0cb94" y="231.097446"/>
      </g>
     </g>
     <g id="text_9">
      <!-- 0.500 -->
      <g transform="translate(20.878125 234.896665)scale(0.1 -0.1)">
       <use xlink:href="#DejaVuSans-48"/>
       <use x="63.623047" xlink:href="#DejaVuSans-46"/>
       <use x="95.410156" xlink:href="#DejaVuSans-53"/>
       <use x="159.033203" xlink:href="#DejaVuSans-48"/>
       <use x="222.65625" xlink:href="#DejaVuSans-48"/>
      </g>
     </g>
    </g>
    <g id="ytick_3">
     <g id="line2d_9">
      <g>
       <use style="stroke:#000000;stroke-width:0.8;" x="56.50625" xlink:href="#mdf45a0cb94" y="198.268222"/>
      </g>
     </g>
     <g id="text_10">
      <!-- 0.525 -->
      <g transform="translate(20.878125 202.06744)scale(0.1 -0.1)">
       <use xlink:href="#DejaVuSans-48"/>
       <use x="63.623047" xlink:href="#DejaVuSans-46"/>
       <use x="95.410156" xlink:href="#DejaVuSans-53"/>
       <use x="159.033203" xlink:href="#DejaVuSans-50"/>
       <use x="222.65625" xlink:href="#DejaVuSans-53"/>
      </g>
     </g>
    </g>
    <g id="ytick_4">
     <g id="line2d_10">
      <g>
       <use style="stroke:#000000;stroke-width:0.8;" x="56.50625" xlink:href="#mdf45a0cb94" y="165.438998"/>
      </g>
     </g>
     <g id="text_11">
      <!-- 0.550 -->
      <g transform="translate(20.878125 169.238216)scale(0.1 -0.1)">
       <use xlink:href="#DejaVuSans-48"/>
       <use x="63.623047" xlink:href="#DejaVuSans-46"/>
       <use x="95.410156" xlink:href="#DejaVuSans-53"/>
       <use x="159.033203" xlink:href="#DejaVuSans-53"/>
       <use x="222.65625" xlink:href="#DejaVuSans-48"/>
      </g>
     </g>
    </g>
    <g id="ytick_5">
     <g id="line2d_11">
      <g>
       <use style="stroke:#000000;stroke-width:0.8;" x="56.50625" xlink:href="#mdf45a0cb94" y="132.609773"/>
      </g>
     </g>
     <g id="text_12">
      <!-- 0.575 -->
      <g transform="translate(20.878125 136.408992)scale(0.1 -0.1)">
       <use xlink:href="#DejaVuSans-48"/>
       <use x="63.623047" xlink:href="#DejaVuSans-46"/>
       <use x="95.410156" xlink:href="#DejaVuSans-53"/>
       <use x="159.033203" xlink:href="#DejaVuSans-55"/>
       <use x="222.65625" xlink:href="#DejaVuSans-53"/>
      </g>
     </g>
    </g>
    <g id="ytick_6">
     <g id="line2d_12">
      <g>
       <use style="stroke:#000000;stroke-width:0.8;" x="56.50625" xlink:href="#mdf45a0cb94" y="99.780549"/>
      </g>
     </g>
     <g id="text_13">
      <!-- 0.600 -->
      <g transform="translate(20.878125 103.579768)scale(0.1 -0.1)">
       <use xlink:href="#DejaVuSans-48"/>
       <use x="63.623047" xlink:href="#DejaVuSans-46"/>
       <use x="95.410156" xlink:href="#DejaVuSans-54"/>
       <use x="159.033203" xlink:href="#DejaVuSans-48"/>
       <use x="222.65625" xlink:href="#DejaVuSans-48"/>
      </g>
     </g>
    </g>
    <g id="ytick_7">
     <g id="line2d_13">
      <g>
       <use style="stroke:#000000;stroke-width:0.8;" x="56.50625" xlink:href="#mdf45a0cb94" y="66.951325"/>
      </g>
     </g>
     <g id="text_14">
      <!-- 0.625 -->
      <g transform="translate(20.878125 70.750544)scale(0.1 -0.1)">
       <use xlink:href="#DejaVuSans-48"/>
       <use x="63.623047" xlink:href="#DejaVuSans-46"/>
       <use x="95.410156" xlink:href="#DejaVuSans-54"/>
       <use x="159.033203" xlink:href="#DejaVuSans-50"/>
       <use x="222.65625" xlink:href="#DejaVuSans-53"/>
      </g>
     </g>
    </g>
    <g id="ytick_8">
     <g id="line2d_14">
      <g>
       <use style="stroke:#000000;stroke-width:0.8;" x="56.50625" xlink:href="#mdf45a0cb94" y="34.122101"/>
      </g>
     </g>
     <g id="text_15">
      <!-- 0.650 -->
      <g transform="translate(20.878125 37.92132)scale(0.1 -0.1)">
       <use xlink:href="#DejaVuSans-48"/>
       <use x="63.623047" xlink:href="#DejaVuSans-46"/>
       <use x="95.410156" xlink:href="#DejaVuSans-54"/>
       <use x="159.033203" xlink:href="#DejaVuSans-53"/>
       <use x="222.65625" xlink:href="#DejaVuSans-48"/>
      </g>
     </g>
    </g>
    <g id="text_16">
     <!-- performance -->
     <g transform="translate(14.798437 172.278656)rotate(-90)scale(0.1 -0.1)">
      <defs>
       <path d="M 18.109375 8.203125 
L 18.109375 -20.796875 
L 9.078125 -20.796875 
L 9.078125 54.6875 
L 18.109375 54.6875 
L 18.109375 46.390625 
Q 20.953125 51.265625 25.265625 53.625 
Q 29.59375 56 35.59375 56 
Q 45.5625 56 51.78125 48.09375 
Q 58.015625 40.1875 58.015625 27.296875 
Q 58.015625 14.40625 51.78125 6.484375 
Q 45.5625 -1.421875 35.59375 -1.421875 
Q 29.59375 -1.421875 25.265625 0.953125 
Q 20.953125 3.328125 18.109375 8.203125 
z
M 48.6875 27.296875 
Q 48.6875 37.203125 44.609375 42.84375 
Q 40.53125 48.484375 33.40625 48.484375 
Q 26.265625 48.484375 22.1875 42.84375 
Q 18.109375 37.203125 18.109375 27.296875 
Q 18.109375 17.390625 22.1875 11.75 
Q 26.265625 6.109375 33.40625 6.109375 
Q 40.53125 6.109375 44.609375 11.75 
Q 48.6875 17.390625 48.6875 27.296875 
z
" id="DejaVuSans-112"/>
       <path d="M 56.203125 29.59375 
L 56.203125 25.203125 
L 14.890625 25.203125 
Q 15.484375 15.921875 20.484375 11.0625 
Q 25.484375 6.203125 34.421875 6.203125 
Q 39.59375 6.203125 44.453125 7.46875 
Q 49.3125 8.734375 54.109375 11.28125 
L 54.109375 2.78125 
Q 49.265625 0.734375 44.1875 -0.34375 
Q 39.109375 -1.421875 33.890625 -1.421875 
Q 20.796875 -1.421875 13.15625 6.1875 
Q 5.515625 13.8125 5.515625 26.8125 
Q 5.515625 40.234375 12.765625 48.109375 
Q 20.015625 56 32.328125 56 
Q 43.359375 56 49.78125 48.890625 
Q 56.203125 41.796875 56.203125 29.59375 
z
M 47.21875 32.234375 
Q 47.125 39.59375 43.09375 43.984375 
Q 39.0625 48.390625 32.421875 48.390625 
Q 24.90625 48.390625 20.390625 44.140625 
Q 15.875 39.890625 15.1875 32.171875 
z
" id="DejaVuSans-101"/>
       <path d="M 41.109375 46.296875 
Q 39.59375 47.171875 37.8125 47.578125 
Q 36.03125 48 33.890625 48 
Q 26.265625 48 22.1875 43.046875 
Q 18.109375 38.09375 18.109375 28.8125 
L 18.109375 0 
L 9.078125 0 
L 9.078125 54.6875 
L 18.109375 54.6875 
L 18.109375 46.1875 
Q 20.953125 51.171875 25.484375 53.578125 
Q 30.03125 56 36.53125 56 
Q 37.453125 56 38.578125 55.875 
Q 39.703125 55.765625 41.0625 55.515625 
z
" id="DejaVuSans-114"/>
       <path d="M 52 44.1875 
Q 55.375 50.25 60.0625 53.125 
Q 64.75 56 71.09375 56 
Q 79.640625 56 84.28125 50.015625 
Q 88.921875 44.046875 88.921875 33.015625 
L 88.921875 0 
L 79.890625 0 
L 79.890625 32.71875 
Q 79.890625 40.578125 77.09375 44.375 
Q 74.3125 48.1875 68.609375 48.1875 
Q 61.625 48.1875 57.5625 43.546875 
Q 53.515625 38.921875 53.515625 30.90625 
L 53.515625 0 
L 44.484375 0 
L 44.484375 32.71875 
Q 44.484375 40.625 41.703125 44.40625 
Q 38.921875 48.1875 33.109375 48.1875 
Q 26.21875 48.1875 22.15625 43.53125 
Q 18.109375 38.875 18.109375 30.90625 
L 18.109375 0 
L 9.078125 0 
L 9.078125 54.6875 
L 18.109375 54.6875 
L 18.109375 46.1875 
Q 21.1875 51.21875 25.484375 53.609375 
Q 29.78125 56 35.6875 56 
Q 41.65625 56 45.828125 52.96875 
Q 50 49.953125 52 44.1875 
z
" id="DejaVuSans-109"/>
       <path d="M 34.28125 27.484375 
Q 23.390625 27.484375 19.1875 25 
Q 14.984375 22.515625 14.984375 16.5 
Q 14.984375 11.71875 18.140625 8.90625 
Q 21.296875 6.109375 26.703125 6.109375 
Q 34.1875 6.109375 38.703125 11.40625 
Q 43.21875 16.703125 43.21875 25.484375 
L 43.21875 27.484375 
z
M 52.203125 31.203125 
L 52.203125 0 
L 43.21875 0 
L 43.21875 8.296875 
Q 40.140625 3.328125 35.546875 0.953125 
Q 30.953125 -1.421875 24.3125 -1.421875 
Q 15.921875 -1.421875 10.953125 3.296875 
Q 6 8.015625 6 15.921875 
Q 6 25.140625 12.171875 29.828125 
Q 18.359375 34.515625 30.609375 34.515625 
L 43.21875 34.515625 
L 43.21875 35.40625 
Q 43.21875 41.609375 39.140625 45 
Q 35.0625 48.390625 27.6875 48.390625 
Q 23 48.390625 18.546875 47.265625 
Q 14.109375 46.140625 10.015625 43.890625 
L 10.015625 52.203125 
Q 14.9375 54.109375 19.578125 55.046875 
Q 24.21875 56 28.609375 56 
Q 40.484375 56 46.34375 49.84375 
Q 52.203125 43.703125 52.203125 31.203125 
z
" id="DejaVuSans-97"/>
       <path d="M 54.890625 33.015625 
L 54.890625 0 
L 45.90625 0 
L 45.90625 32.71875 
Q 45.90625 40.484375 42.875 44.328125 
Q 39.84375 48.1875 33.796875 48.1875 
Q 26.515625 48.1875 22.3125 43.546875 
Q 18.109375 38.921875 18.109375 30.90625 
L 18.109375 0 
L 9.078125 0 
L 9.078125 54.6875 
L 18.109375 54.6875 
L 18.109375 46.1875 
Q 21.34375 51.125 25.703125 53.5625 
Q 30.078125 56 35.796875 56 
Q 45.21875 56 50.046875 50.171875 
Q 54.890625 44.34375 54.890625 33.015625 
z
" id="DejaVuSans-110"/>
      </defs>
      <use xlink:href="#DejaVuSans-112"/>
      <use x="63.476562" xlink:href="#DejaVuSans-101"/>
      <use x="125" xlink:href="#DejaVuSans-114"/>
      <use x="166.113281" xlink:href="#DejaVuSans-102"/>
      <use x="201.318359" xlink:href="#DejaVuSans-111"/>
      <use x="262.5" xlink:href="#DejaVuSans-114"/>
      <use x="301.863281" xlink:href="#DejaVuSans-109"/>
      <use x="399.275391" xlink:href="#DejaVuSans-97"/>
      <use x="460.554688" xlink:href="#DejaVuSans-110"/>
      <use x="523.933594" xlink:href="#DejaVuSans-99"/>
      <use x="578.914062" xlink:href="#DejaVuSans-101"/>
     </g>
    </g>
   </g>
   <g id="line2d_15">
    <path clip-path="url(#p5f92ab6733)" d="M 72.738977 77.8944 
L 79.502614 62.881587 
L 86.26625 33.588293 
L 93.029886 33.588293 
L 99.793523 33.588293 
L 106.557159 62.881587 
L 113.320795 62.881587 
L 120.084432 62.881587 
L 126.848068 62.881587 
L 133.611705 108.68339 
L 140.375341 124.472615 
L 147.138977 173.502316 
L 153.902614 225.18227 
L 160.66625 225.18227 
L 167.429886 124.472615 
L 174.193523 124.472615 
L 180.957159 124.472615 
L 187.720795 124.472615 
L 194.484432 124.472615 
L 201.248068 124.472615 
L 208.011705 124.472615 
L 214.775341 124.472615 
L 221.538977 124.472615 
L 228.302614 124.472615 
L 235.06625 140.534069 
L 241.829886 156.874852 
L 248.593523 156.874852 
L 255.357159 156.874852 
L 262.120795 156.874852 
L 268.884432 156.874852 
L 275.648068 156.874852 
L 282.411705 156.874852 
L 289.175341 156.874852 
L 295.938977 156.874852 
L 302.702614 156.874852 
L 309.46625 156.874852 
L 316.229886 156.874852 
L 322.993523 156.874852 
L 329.757159 156.874852 
L 336.520795 156.874852 
L 343.284432 156.874852 
L 350.048068 156.874852 
L 356.811705 156.874852 
L 363.575341 156.874852 
L 370.338977 156.874852 
L 377.102614 156.874852 
L 383.86625 156.874852 
L 390.629886 156.874852 
L 397.393523 156.874852 
" style="fill:none;stroke:#f26b38;stroke-dasharray:7.4,3.2;stroke-dashoffset:0;stroke-width:2;"/>
   </g>
   <g id="line2d_16">
    <path clip-path="url(#p5f92ab6733)" d="M 72.738977 207.648 
L 79.502614 173.502316 
L 86.26625 173.502316 
L 93.029886 173.502316 
L 99.793523 225.18227 
L 106.557159 225.18227 
L 113.320795 225.18227 
L 120.084432 225.18227 
L 126.848068 225.18227 
L 133.611705 225.18227 
L 140.375341 225.18227 
L 147.138977 225.18227 
L 153.902614 225.18227 
L 160.66625 225.18227 
L 167.429886 225.18227 
L 174.193523 225.18227 
L 180.957159 261.216 
L 187.720795 261.216 
L 194.484432 261.216 
L 201.248068 261.216 
L 208.011705 261.216 
L 214.775341 261.216 
L 221.538977 261.216 
L 228.302614 261.216 
L 235.06625 261.216 
L 241.829886 261.216 
L 248.593523 261.216 
L 255.357159 261.216 
L 262.120795 261.216 
L 268.884432 261.216 
L 275.648068 261.216 
L 282.411705 261.216 
L 289.175341 261.216 
L 295.938977 261.216 
L 302.702614 261.216 
L 309.46625 261.216 
L 316.229886 261.216 
L 322.993523 261.216 
L 329.757159 261.216 
L 336.520795 261.216 
L 343.284432 261.216 
L 350.048068 261.216 
L 356.811705 261.216 
L 363.575341 261.216 
L 370.338977 261.216 
L 377.102614 261.216 
L 383.86625 261.216 
L 390.629886 261.216 
L 397.393523 261.216 
" style="fill:none;stroke:#2f9599;stroke-dasharray:2,3.3;stroke-dashoffset:0;stroke-width:2;"/>
   </g>
   <g id="line2d_17">
    <path clip-path="url(#p5f92ab6733)" d="M 72.738977 48.114885 
L 79.502614 48.114885 
L 86.26625 48.114885 
L 93.029886 48.114885 
L 99.793523 48.114885 
L 106.557159 62.881587 
L 113.320795 48.114885 
L 120.084432 48.114885 
L 126.848068 48.114885 
L 133.611705 33.588293 
L 140.375341 48.114885 
L 147.138977 19.296 
L 153.902614 19.296 
L 160.66625 19.296 
L 167.429886 19.296 
L 174.193523 48.114885 
L 180.957159 33.588293 
L 187.720795 33.588293 
L 194.484432 33.588293 
L 201.248068 33.588293 
L 208.011705 33.588293 
L 214.775341 48.114885 
L 221.538977 48.114885 
L 228.302614 93.159529 
L 235.06625 93.159529 
L 241.829886 93.159529 
L 248.593523 48.114885 
L 255.357159 48.114885 
L 262.120795 48.114885 
L 268.884432 48.114885 
L 275.648068 48.114885 
L 282.411705 48.114885 
L 289.175341 48.114885 
L 295.938977 77.8944 
L 302.702614 77.8944 
L 309.46625 77.8944 
L 316.229886 77.8944 
L 322.993523 77.8944 
L 329.757159 77.8944 
L 336.520795 77.8944 
L 343.284432 77.8944 
L 350.048068 77.8944 
L 356.811705 77.8944 
L 363.575341 77.8944 
L 370.338977 77.8944 
L 377.102614 77.8944 
L 383.86625 77.8944 
L 390.629886 77.8944 
L 397.393523 77.8944 
" style="fill:none;stroke:#a7226e;stroke-dasharray:12.8,3.2,2,3.2;stroke-dashoffset:0;stroke-width:2;"/>
   </g>
   <g id="patch_3">
    <path d="M 56.50625 273.312 
L 56.50625 7.2 
" style="fill:none;stroke:#000000;stroke-linecap:square;stroke-linejoin:miter;stroke-width:0.8;"/>
   </g>
   <g id="patch_4">
    <path d="M 413.62625 273.312 
L 413.62625 7.2 
" style="fill:none;stroke:#000000;stroke-linecap:square;stroke-linejoin:miter;stroke-width:0.8;"/>
   </g>
   <g id="patch_5">
    <path d="M 56.50625 273.312 
L 413.62625 273.312 
" style="fill:none;stroke:#000000;stroke-linecap:square;stroke-linejoin:miter;stroke-width:0.8;"/>
   </g>
   <g id="patch_6">
    <path d="M 56.50625 7.2 
L 413.62625 7.2 
" style="fill:none;stroke:#000000;stroke-linecap:square;stroke-linejoin:miter;stroke-width:0.8;"/>
   </g>
   <g id="legend_1">
    <g id="patch_7">
     <path d="M 328.152559 43.890912 
L 408.76825 43.890912 
Q 410.15625 43.890912 410.15625 42.502912 
L 410.15625 12.058 
Q 410.15625 10.67 408.76825 10.67 
L 328.152559 10.67 
Q 326.764559 10.67 326.764559 12.058 
L 326.764559 42.502912 
Q 326.764559 43.890912 328.152559 43.890912 
z
" style="fill:#ffffff;opacity:0.8;stroke:#cccccc;stroke-linejoin:miter;"/>
    </g>
    <g id="PathCollection_5">
     <defs>
      <path d="M 0 3 
C 0.795609 3 1.55874 2.683901 2.12132 2.12132 
C 2.683901 1.55874 3 0.795609 3 0 
C 3 -0.795609 2.683901 -1.55874 2.12132 -2.12132 
C 1.55874 -2.683901 0.795609 -3 0 -3 
C -0.795609 -3 -1.55874 -2.683901 -2.12132 -2.12132 
C -2.683901 -1.55874 -3 -0.795609 -3 0 
C -3 0.795609 -2.683901 1.55874 -2.12132 2.12132 
C -1.55874 2.683901 -0.795609 3 0 3 
z
" id="m3a5cb86a6d" style="stroke:#f26b38;"/>
     </defs>
     <g>
      <use style="fill:#f26b38;stroke:#f26b38;" x="336.480559" xlink:href="#m3a5cb86a6d" y="16.897566"/>
     </g>
    </g>
    <g id="text_17">
     <!-- mean_err -->
     <g transform="translate(348.972559 18.719316)scale(0.0694 -0.0694)">
      <defs>
       <path d="M 50.984375 -16.609375 
L 50.984375 -23.578125 
L -0.984375 -23.578125 
L -0.984375 -16.609375 
z
" id="DejaVuSans-95"/>
      </defs>
      <use xlink:href="#DejaVuSans-109"/>
      <use x="97.412109" xlink:href="#DejaVuSans-101"/>
      <use x="158.935547" xlink:href="#DejaVuSans-97"/>
      <use x="220.214844" xlink:href="#DejaVuSans-110"/>
      <use x="283.59375" xlink:href="#DejaVuSans-95"/>
      <use x="333.59375" xlink:href="#DejaVuSans-101"/>
      <use x="395.117188" xlink:href="#DejaVuSans-114"/>
      <use x="434.480469" xlink:href="#DejaVuSans-114"/>
     </g>
    </g>
    <g id="PathCollection_6">
     <defs>
      <path d="M -1.5 3 
L 0 1.5 
L 1.5 3 
L 3 1.5 
L 1.5 0 
L 3 -1.5 
L 1.5 -3 
L 0 -1.5 
L -1.5 -3 
L -3 -1.5 
L -1.5 0 
L -3 1.5 
z
" id="mef783266b2" style="stroke:#2f9599;"/>
     </defs>
     <g>
      <use style="fill:#2f9599;stroke:#2f9599;" x="336.480559" xlink:href="#mef783266b2" y="27.277203"/>
     </g>
    </g>
    <g id="text_18">
     <!-- mean_sq_err -->
     <g transform="translate(348.972559 29.098953)scale(0.0694 -0.0694)">
      <defs>
       <path d="M 44.28125 53.078125 
L 44.28125 44.578125 
Q 40.484375 46.53125 36.375 47.5 
Q 32.28125 48.484375 27.875 48.484375 
Q 21.1875 48.484375 17.84375 46.4375 
Q 14.5 44.390625 14.5 40.28125 
Q 14.5 37.15625 16.890625 35.375 
Q 19.28125 33.59375 26.515625 31.984375 
L 29.59375 31.296875 
Q 39.15625 29.25 43.1875 25.515625 
Q 47.21875 21.78125 47.21875 15.09375 
Q 47.21875 7.46875 41.1875 3.015625 
Q 35.15625 -1.421875 24.609375 -1.421875 
Q 20.21875 -1.421875 15.453125 -0.5625 
Q 10.6875 0.296875 5.421875 2 
L 5.421875 11.28125 
Q 10.40625 8.6875 15.234375 7.390625 
Q 20.0625 6.109375 24.8125 6.109375 
Q 31.15625 6.109375 34.5625 8.28125 
Q 37.984375 10.453125 37.984375 14.40625 
Q 37.984375 18.0625 35.515625 20.015625 
Q 33.0625 21.96875 24.703125 23.78125 
L 21.578125 24.515625 
Q 13.234375 26.265625 9.515625 29.90625 
Q 5.8125 33.546875 5.8125 39.890625 
Q 5.8125 47.609375 11.28125 51.796875 
Q 16.75 56 26.8125 56 
Q 31.78125 56 36.171875 55.265625 
Q 40.578125 54.546875 44.28125 53.078125 
z
" id="DejaVuSans-115"/>
       <path d="M 14.796875 27.296875 
Q 14.796875 17.390625 18.875 11.75 
Q 22.953125 6.109375 30.078125 6.109375 
Q 37.203125 6.109375 41.296875 11.75 
Q 45.40625 17.390625 45.40625 27.296875 
Q 45.40625 37.203125 41.296875 42.84375 
Q 37.203125 48.484375 30.078125 48.484375 
Q 22.953125 48.484375 18.875 42.84375 
Q 14.796875 37.203125 14.796875 27.296875 
z
M 45.40625 8.203125 
Q 42.578125 3.328125 38.25 0.953125 
Q 33.9375 -1.421875 27.875 -1.421875 
Q 17.96875 -1.421875 11.734375 6.484375 
Q 5.515625 14.40625 5.515625 27.296875 
Q 5.515625 40.1875 11.734375 48.09375 
Q 17.96875 56 27.875 56 
Q 33.9375 56 38.25 53.625 
Q 42.578125 51.265625 45.40625 46.390625 
L 45.40625 54.6875 
L 54.390625 54.6875 
L 54.390625 -20.796875 
L 45.40625 -20.796875 
z
" id="DejaVuSans-113"/>
      </defs>
      <use xlink:href="#DejaVuSans-109"/>
      <use x="97.412109" xlink:href="#DejaVuSans-101"/>
      <use x="158.935547" xlink:href="#DejaVuSans-97"/>
      <use x="220.214844" xlink:href="#DejaVuSans-110"/>
      <use x="283.59375" xlink:href="#DejaVuSans-95"/>
      <use x="333.59375" xlink:href="#DejaVuSans-115"/>
      <use x="385.693359" xlink:href="#DejaVuSans-113"/>
      <use x="449.169922" xlink:href="#DejaVuSans-95"/>
      <use x="499.169922" xlink:href="#DejaVuSans-101"/>
      <use x="560.693359" xlink:href="#DejaVuSans-114"/>
      <use x="600.056641" xlink:href="#DejaVuSans-114"/>
     </g>
    </g>
    <g id="PathCollection_7">
     <defs>
      <path d="M -2.12132 -2.12132 
L -2.12132 2.12132 
L 2.12132 2.12132 
L 2.12132 -2.12132 
z
" id="m313052812a" style="stroke:#a7226e;"/>
     </defs>
     <g>
      <use style="fill:#a7226e;stroke:#a7226e;" x="336.480559" xlink:href="#m313052812a" y="37.656841"/>
     </g>
    </g>
    <g id="text_19">
     <!-- mean_sqroot_err -->
     <g transform="translate(348.972559 39.478591)scale(0.0694 -0.0694)">
      <use xlink:href="#DejaVuSans-109"/>
      <use x="97.412109" xlink:href="#DejaVuSans-101"/>
      <use x="158.935547" xlink:href="#DejaVuSans-97"/>
      <use x="220.214844" xlink:href="#DejaVuSans-110"/>
      <use x="283.59375" xlink:href="#DejaVuSans-95"/>
      <use x="333.59375" xlink:href="#DejaVuSans-115"/>
      <use x="385.693359" xlink:href="#DejaVuSans-113"/>
      <use x="449.169922" xlink:href="#DejaVuSans-114"/>
      <use x="488.033203" xlink:href="#DejaVuSans-111"/>
      <use x="549.214844" xlink:href="#DejaVuSans-111"/>
      <use x="610.396484" xlink:href="#DejaVuSans-116"/>
      <use x="649.605469" xlink:href="#DejaVuSans-95"/>
      <use x="699.605469" xlink:href="#DejaVuSans-101"/>
      <use x="761.128906" xlink:href="#DejaVuSans-114"/>
      <use x="800.492188" xlink:href="#DejaVuSans-114"/>
     </g>
    </g>
   </g>
  </g>
 </g>
 <defs>
  <clipPath id="p5f92ab6733">
   <rect height="266.112" width="357.12" x="56.50625" y="7.2"/>
  </clipPath>
 </defs>
</svg>
