<?xml version="1.0" encoding="utf-8" standalone="no"?>
<!DOCTYPE svg PUBLIC "-//W3C//DTD SVG 1.1//EN"
  "http://www.w3.org/Graphics/SVG/1.1/DTD/svg11.dtd">
<!-- Created with matplotlib (https://matplotlib.org/) -->
<svg height="310.86825pt" version="1.1" viewBox="0 0 414.46375 310.86825" width="414.46375pt" xmlns="http://www.w3.org/2000/svg" xmlns:xlink="http://www.w3.org/1999/xlink">
 <metadata>
  <rdf:RDF xmlns:cc="http://creativecommons.org/ns#" xmlns:dc="http://purl.org/dc/elements/1.1/" xmlns:rdf="http://www.w3.org/1999/02/22-rdf-syntax-ns#">
   <cc:Work>
    <dc:type rdf:resource="http://purl.org/dc/dcmitype/StillImage"/>
    <dc:date>2022-04-11T13:56:19.180030</dc:date>
    <dc:format>image/svg+xml</dc:format>
    <dc:creator>
     <cc:Agent>
      <dc:title>Matplotlib v3.3.4, https://matplotlib.org/</dc:title>
     </cc:Agent>
    </dc:creator>
   </cc:Work>
  </rdf:RDF>
 </metadata>
 <defs>
  <style type="text/css">*{stroke-linecap:butt;stroke-linejoin:round;}</style>
 </defs>
 <g id="figure_1">
  <g id="patch_1">
   <path d="M 0 310.86825 
L 414.46375 310.86825 
L 414.46375 0 
L 0 0 
z
" style="fill:#ffffff;"/>
  </g>
  <g id="axes_1">
   <g id="patch_2">
    <path d="M 50.14375 273.312 
L 407.26375 273.312 
L 407.26375 7.2 
L 50.14375 7.2 
z
" style="fill:#ffffff;"/>
   </g>
   <g id="PathCollection_1">
    <path clip-path="url(#pa0b5c3d100)" d="M 66.376477 78.531789 
C 67.172087 78.531789 67.935217 78.215691 68.497798 77.65311 
C 69.060378 77.090529 69.376477 76.327399 69.376477 75.531789 
C 69.376477 74.73618 69.060378 73.97305 68.497798 73.410469 
C 67.935217 72.847888 67.172087 72.531789 66.376477 72.531789 
C 65.580868 72.531789 64.817738 72.847888 64.255157 73.410469 
C 63.692576 73.97305 63.376477 74.73618 63.376477 75.531789 
C 63.376477 76.327399 63.692576 77.090529 64.255157 77.65311 
C 64.817738 78.215691 65.580868 78.531789 66.376477 78.531789 
z
" style="fill:#f26b38;stroke:#ffffff;stroke-width:0.48;"/>
    <path clip-path="url(#pa0b5c3d100)" d="M 73.140114 66.912825 
C 73.935723 66.912825 74.698853 66.596726 75.261434 66.034145 
C 75.824015 65.471564 76.140114 64.708434 76.140114 63.912825 
C 76.140114 63.117215 75.824015 62.354085 75.261434 61.791504 
C 74.698853 61.228924 73.935723 60.912825 73.140114 60.912825 
C 72.344504 60.912825 71.581374 61.228924 71.018793 61.791504 
C 70.456213 62.354085 70.140114 63.117215 70.140114 63.912825 
C 70.140114 64.708434 70.456213 65.471564 71.018793 66.034145 
C 71.581374 66.596726 72.344504 66.912825 73.140114 66.912825 
z
" style="fill:#f26b38;stroke:#ffffff;stroke-width:0.48;"/>
    <path clip-path="url(#pa0b5c3d100)" d="M 79.90375 44.241674 
C 80.699359 44.241674 81.46249 43.925575 82.02507 43.362994 
C 82.587651 42.800414 82.90375 42.037283 82.90375 41.241674 
C 82.90375 40.446065 82.587651 39.682934 82.02507 39.120354 
C 81.46249 38.557773 80.699359 38.241674 79.90375 38.241674 
C 79.108141 38.241674 78.34501 38.557773 77.78243 39.120354 
C 77.219849 39.682934 76.90375 40.446065 76.90375 41.241674 
C 76.90375 42.037283 77.219849 42.800414 77.78243 43.362994 
C 78.34501 43.925575 79.108141 44.241674 79.90375 44.241674 
z
" style="fill:#f26b38;stroke:#ffffff;stroke-width:0.48;"/>
    <path clip-path="url(#pa0b5c3d100)" d="M 86.667386 44.241674 
C 87.462996 44.241674 88.226126 43.925575 88.788707 43.362994 
C 89.351287 42.800414 89.667386 42.037283 89.667386 41.241674 
C 89.667386 40.446065 89.351287 39.682934 88.788707 39.120354 
C 88.226126 38.557773 87.462996 38.241674 86.667386 38.241674 
C 85.871777 38.241674 85.108647 38.557773 84.546066 39.120354 
C 83.983485 39.682934 83.667386 40.446065 83.667386 41.241674 
C 83.667386 42.037283 83.983485 42.800414 84.546066 43.362994 
C 85.108647 43.925575 85.871777 44.241674 86.667386 44.241674 
z
" style="fill:#f26b38;stroke:#ffffff;stroke-width:0.48;"/>
    <path clip-path="url(#pa0b5c3d100)" d="M 93.431023 33.180346 
C 94.226632 33.180346 94.989762 32.864247 95.552343 32.301667 
C 96.114924 31.739086 96.431023 30.975956 96.431023 30.180346 
C 96.431023 29.384737 96.114924 28.621607 95.552343 28.059026 
C 94.989762 27.496445 94.226632 27.180346 93.431023 27.180346 
C 92.635413 27.180346 91.872283 27.496445 91.309702 28.059026 
C 90.747122 28.621607 90.431023 29.384737 90.431023 30.180346 
C 90.431023 30.975956 90.747122 31.739086 91.309702 32.301667 
C 91.872283 32.864247 92.635413 33.180346 93.431023 33.180346 
z
" style="fill:#f26b38;stroke:#ffffff;stroke-width:0.48;"/>
    <path clip-path="url(#pa0b5c3d100)" d="M 100.194659 66.912825 
C 100.990268 66.912825 101.753399 66.596726 102.315979 66.034145 
C 102.87856 65.471564 103.194659 64.708434 103.194659 63.912825 
C 103.194659 63.117215 102.87856 62.354085 102.315979 61.791504 
C 101.753399 61.228924 100.990268 60.912825 100.194659 60.912825 
C 99.39905 60.912825 98.635919 61.228924 98.073339 61.791504 
C 97.510758 62.354085 97.194659 63.117215 97.194659 63.912825 
C 97.194659 64.708434 97.510758 65.471564 98.073339 66.034145 
C 98.635919 66.596726 99.39905 66.912825 100.194659 66.912825 
z
" style="fill:#f26b38;stroke:#ffffff;stroke-width:0.48;"/>
    <path clip-path="url(#pa0b5c3d100)" d="M 106.958295 55.484335 
C 107.753905 55.484335 108.517035 55.168236 109.079616 54.605655 
C 109.642197 54.043074 109.958295 53.279944 109.958295 52.484335 
C 109.958295 51.688725 109.642197 50.925595 109.079616 50.363014 
C 108.517035 49.800434 107.753905 49.484335 106.958295 49.484335 
C 106.162686 49.484335 105.399556 49.800434 104.836975 50.363014 
C 104.274394 50.925595 103.958295 51.688725 103.958295 52.484335 
C 103.958295 53.279944 104.274394 54.043074 104.836975 54.605655 
C 105.399556 55.168236 106.162686 55.484335 106.958295 55.484335 
z
" style="fill:#f26b38;stroke:#ffffff;stroke-width:0.48;"/>
    <path clip-path="url(#pa0b5c3d100)" d="M 113.721932 55.484335 
C 114.517541 55.484335 115.280671 55.168236 115.843252 54.605655 
C 116.405833 54.043074 116.721932 53.279944 116.721932 52.484335 
C 116.721932 51.688725 116.405833 50.925595 115.843252 50.363014 
C 115.280671 49.800434 114.517541 49.484335 113.721932 49.484335 
C 112.926323 49.484335 112.163192 49.800434 111.600611 50.363014 
C 111.038031 50.925595 110.721932 51.688725 110.721932 52.484335 
C 110.721932 53.279944 111.038031 54.043074 111.600611 54.605655 
C 112.163192 55.168236 112.926323 55.484335 113.721932 55.484335 
z
" style="fill:#f26b38;stroke:#ffffff;stroke-width:0.48;"/>
    <path clip-path="url(#pa0b5c3d100)" d="M 120.485568 55.484335 
C 121.281177 55.484335 122.044308 55.168236 122.606889 54.605655 
C 123.169469 54.043074 123.485568 53.279944 123.485568 52.484335 
C 123.485568 51.688725 123.169469 50.925595 122.606889 50.363014 
C 122.044308 49.800434 121.281177 49.484335 120.485568 49.484335 
C 119.689959 49.484335 118.926829 49.800434 118.364248 50.363014 
C 117.801667 50.925595 117.485568 51.688725 117.485568 52.484335 
C 117.485568 53.279944 117.801667 54.043074 118.364248 54.605655 
C 118.926829 55.168236 119.689959 55.484335 120.485568 55.484335 
z
" style="fill:#f26b38;stroke:#ffffff;stroke-width:0.48;"/>
    <path clip-path="url(#pa0b5c3d100)" d="M 127.249205 55.484335 
C 128.044814 55.484335 128.807944 55.168236 129.370525 54.605655 
C 129.933106 54.043074 130.249205 53.279944 130.249205 52.484335 
C 130.249205 51.688725 129.933106 50.925595 129.370525 50.363014 
C 128.807944 49.800434 128.044814 49.484335 127.249205 49.484335 
C 126.453595 49.484335 125.690465 49.800434 125.127884 50.363014 
C 124.565303 50.925595 124.249205 51.688725 124.249205 52.484335 
C 124.249205 53.279944 124.565303 54.043074 125.127884 54.605655 
C 125.690465 55.168236 126.453595 55.484335 127.249205 55.484335 
z
" style="fill:#f26b38;stroke:#ffffff;stroke-width:0.48;"/>
    <path clip-path="url(#pa0b5c3d100)" d="M 134.012841 102.360514 
C 134.80845 102.360514 135.571581 102.044415 136.134161 101.481834 
C 136.696742 100.919253 137.012841 100.156123 137.012841 99.360514 
C 137.012841 98.564905 136.696742 97.801774 136.134161 97.239193 
C 135.571581 96.676613 134.80845 96.360514 134.012841 96.360514 
C 133.217232 96.360514 132.454101 96.676613 131.891521 97.239193 
C 131.32894 97.801774 131.012841 98.564905 131.012841 99.360514 
C 131.012841 100.156123 131.32894 100.919253 131.891521 101.481834 
C 132.454101 102.044415 133.217232 102.360514 134.012841 102.360514 
z
" style="fill:#f26b38;stroke:#ffffff;stroke-width:0.48;"/>
    <path clip-path="url(#pa0b5c3d100)" d="M 140.776477 102.360514 
C 141.572087 102.360514 142.335217 102.044415 142.897798 101.481834 
C 143.460378 100.919253 143.776477 100.156123 143.776477 99.360514 
C 143.776477 98.564905 143.460378 97.801774 142.897798 97.239193 
C 142.335217 96.676613 141.572087 96.360514 140.776477 96.360514 
C 139.980868 96.360514 139.217738 96.676613 138.655157 97.239193 
C 138.092576 97.801774 137.776477 98.564905 137.776477 99.360514 
C 137.776477 100.156123 138.092576 100.919253 138.655157 101.481834 
C 139.217738 102.044415 139.980868 102.360514 140.776477 102.360514 
z
" style="fill:#f26b38;stroke:#ffffff;stroke-width:0.48;"/>
    <path clip-path="url(#pa0b5c3d100)" d="M 147.540114 139.657648 
C 148.335723 139.657648 149.098853 139.341549 149.661434 138.778968 
C 150.224015 138.216387 150.540114 137.453257 150.540114 136.657648 
C 150.540114 135.862038 150.224015 135.098908 149.661434 134.536327 
C 149.098853 133.973747 148.335723 133.657648 147.540114 133.657648 
C 146.744504 133.657648 145.981374 133.973747 145.418793 134.536327 
C 144.856213 135.098908 144.540114 135.862038 144.540114 136.657648 
C 144.540114 137.453257 144.856213 138.216387 145.418793 138.778968 
C 145.981374 139.341549 146.744504 139.657648 147.540114 139.657648 
z
" style="fill:#f26b38;stroke:#ffffff;stroke-width:0.48;"/>
    <path clip-path="url(#pa0b5c3d100)" d="M 154.30375 139.657648 
C 155.099359 139.657648 155.86249 139.341549 156.42507 138.778968 
C 156.987651 138.216387 157.30375 137.453257 157.30375 136.657648 
C 157.30375 135.862038 156.987651 135.098908 156.42507 134.536327 
C 155.86249 133.973747 155.099359 133.657648 154.30375 133.657648 
C 153.508141 133.657648 152.74501 133.973747 152.18243 134.536327 
C 151.619849 135.098908 151.30375 135.862038 151.30375 136.657648 
C 151.30375 137.453257 151.619849 138.216387 152.18243 138.778968 
C 152.74501 139.341549 153.508141 139.657648 154.30375 139.657648 
z
" style="fill:#f26b38;stroke:#ffffff;stroke-width:0.48;"/>
    <path clip-path="url(#pa0b5c3d100)" d="M 161.067386 66.912825 
C 161.862996 66.912825 162.626126 66.596726 163.188707 66.034145 
C 163.751287 65.471564 164.067386 64.708434 164.067386 63.912825 
C 164.067386 63.117215 163.751287 62.354085 163.188707 61.791504 
C 162.626126 61.228924 161.862996 60.912825 161.067386 60.912825 
C 160.271777 60.912825 159.508647 61.228924 158.946066 61.791504 
C 158.383485 62.354085 158.067386 63.117215 158.067386 63.912825 
C 158.067386 64.708434 158.383485 65.471564 158.946066 66.034145 
C 159.508647 66.596726 160.271777 66.912825 161.067386 66.912825 
z
" style="fill:#f26b38;stroke:#ffffff;stroke-width:0.48;"/>
    <path clip-path="url(#pa0b5c3d100)" d="M 167.831023 102.360514 
C 168.626632 102.360514 169.389762 102.044415 169.952343 101.481834 
C 170.514924 100.919253 170.831023 100.156123 170.831023 99.360514 
C 170.831023 98.564905 170.514924 97.801774 169.952343 97.239193 
C 169.389762 96.676613 168.626632 96.360514 167.831023 96.360514 
C 167.035413 96.360514 166.272283 96.676613 165.709702 97.239193 
C 165.147122 97.801774 164.831023 98.564905 164.831023 99.360514 
C 164.831023 100.156123 165.147122 100.919253 165.709702 101.481834 
C 166.272283 102.044415 167.035413 102.360514 167.831023 102.360514 
z
" style="fill:#f26b38;stroke:#ffffff;stroke-width:0.48;"/>
    <path clip-path="url(#pa0b5c3d100)" d="M 174.594659 102.360514 
C 175.390268 102.360514 176.153399 102.044415 176.715979 101.481834 
C 177.27856 100.919253 177.594659 100.156123 177.594659 99.360514 
C 177.594659 98.564905 177.27856 97.801774 176.715979 97.239193 
C 176.153399 96.676613 175.390268 96.360514 174.594659 96.360514 
C 173.79905 96.360514 173.035919 96.676613 172.473339 97.239193 
C 171.910758 97.801774 171.594659 98.564905 171.594659 99.360514 
C 171.594659 100.156123 171.910758 100.919253 172.473339 101.481834 
C 173.035919 102.044415 173.79905 102.360514 174.594659 102.360514 
z
" style="fill:#f26b38;stroke:#ffffff;stroke-width:0.48;"/>
    <path clip-path="url(#pa0b5c3d100)" d="M 181.358295 102.360514 
C 182.153905 102.360514 182.917035 102.044415 183.479616 101.481834 
C 184.042197 100.919253 184.358295 100.156123 184.358295 99.360514 
C 184.358295 98.564905 184.042197 97.801774 183.479616 97.239193 
C 182.917035 96.676613 182.153905 96.360514 181.358295 96.360514 
C 180.562686 96.360514 179.799556 96.676613 179.236975 97.239193 
C 178.674394 97.801774 178.358295 98.564905 178.358295 99.360514 
C 178.358295 100.156123 178.674394 100.919253 179.236975 101.481834 
C 179.799556 102.044415 180.562686 102.360514 181.358295 102.360514 
z
" style="fill:#f26b38;stroke:#ffffff;stroke-width:0.48;"/>
    <path clip-path="url(#pa0b5c3d100)" d="M 188.121932 139.657648 
C 188.917541 139.657648 189.680671 139.341549 190.243252 138.778968 
C 190.805833 138.216387 191.121932 137.453257 191.121932 136.657648 
C 191.121932 135.862038 190.805833 135.098908 190.243252 134.536327 
C 189.680671 133.973747 188.917541 133.657648 188.121932 133.657648 
C 187.326323 133.657648 186.563192 133.973747 186.000611 134.536327 
C 185.438031 135.098908 185.121932 135.862038 185.121932 136.657648 
C 185.121932 137.453257 185.438031 138.216387 186.000611 138.778968 
C 186.563192 139.341549 187.326323 139.657648 188.121932 139.657648 
z
" style="fill:#f26b38;stroke:#ffffff;stroke-width:0.48;"/>
    <path clip-path="url(#pa0b5c3d100)" d="M 194.885568 102.360514 
C 195.681177 102.360514 196.444308 102.044415 197.006889 101.481834 
C 197.569469 100.919253 197.885568 100.156123 197.885568 99.360514 
C 197.885568 98.564905 197.569469 97.801774 197.006889 97.239193 
C 196.444308 96.676613 195.681177 96.360514 194.885568 96.360514 
C 194.089959 96.360514 193.326829 96.676613 192.764248 97.239193 
C 192.201667 97.801774 191.885568 98.564905 191.885568 99.360514 
C 191.885568 100.156123 192.201667 100.919253 192.764248 101.481834 
C 193.326829 102.044415 194.089959 102.360514 194.885568 102.360514 
z
" style="fill:#f26b38;stroke:#ffffff;stroke-width:0.48;"/>
    <path clip-path="url(#pa0b5c3d100)" d="M 201.649205 178.952842 
C 202.444814 178.952842 203.207944 178.636743 203.770525 178.074162 
C 204.333106 177.511582 204.649205 176.748451 204.649205 175.952842 
C 204.649205 175.157233 204.333106 174.394102 203.770525 173.831522 
C 203.207944 173.268941 202.444814 172.952842 201.649205 172.952842 
C 200.853595 172.952842 200.090465 173.268941 199.527884 173.831522 
C 198.965303 174.394102 198.649205 175.157233 198.649205 175.952842 
C 198.649205 176.748451 198.965303 177.511582 199.527884 178.074162 
C 200.090465 178.636743 200.853595 178.952842 201.649205 178.952842 
z
" style="fill:#f26b38;stroke:#ffffff;stroke-width:0.48;"/>
    <path clip-path="url(#pa0b5c3d100)" d="M 208.412841 178.952842 
C 209.20845 178.952842 209.971581 178.636743 210.534161 178.074162 
C 211.096742 177.511582 211.412841 176.748451 211.412841 175.952842 
C 211.412841 175.157233 211.096742 174.394102 210.534161 173.831522 
C 209.971581 173.268941 209.20845 172.952842 208.412841 172.952842 
C 207.617232 172.952842 206.854101 173.268941 206.291521 173.831522 
C 205.72894 174.394102 205.412841 175.157233 205.412841 175.952842 
C 205.412841 176.748451 205.72894 177.511582 206.291521 178.074162 
C 206.854101 178.636743 207.617232 178.952842 208.412841 178.952842 
z
" style="fill:#f26b38;stroke:#ffffff;stroke-width:0.48;"/>
    <path clip-path="url(#pa0b5c3d100)" d="M 215.176477 178.952842 
C 215.972087 178.952842 216.735217 178.636743 217.297798 178.074162 
C 217.860378 177.511582 218.176477 176.748451 218.176477 175.952842 
C 218.176477 175.157233 217.860378 174.394102 217.297798 173.831522 
C 216.735217 173.268941 215.972087 172.952842 215.176477 172.952842 
C 214.380868 172.952842 213.617738 173.268941 213.055157 173.831522 
C 212.492576 174.394102 212.176477 175.157233 212.176477 175.952842 
C 212.176477 176.748451 212.492576 177.511582 213.055157 178.074162 
C 213.617738 178.636743 214.380868 178.952842 215.176477 178.952842 
z
" style="fill:#f26b38;stroke:#ffffff;stroke-width:0.48;"/>
    <path clip-path="url(#pa0b5c3d100)" d="M 221.940114 178.952842 
C 222.735723 178.952842 223.498853 178.636743 224.061434 178.074162 
C 224.624015 177.511582 224.940114 176.748451 224.940114 175.952842 
C 224.940114 175.157233 224.624015 174.394102 224.061434 173.831522 
C 223.498853 173.268941 222.735723 172.952842 221.940114 172.952842 
C 221.144504 172.952842 220.381374 173.268941 219.818793 173.831522 
C 219.256213 174.394102 218.940114 175.157233 218.940114 175.952842 
C 218.940114 176.748451 219.256213 177.511582 219.818793 178.074162 
C 220.381374 178.636743 221.144504 178.952842 221.940114 178.952842 
z
" style="fill:#f26b38;stroke:#ffffff;stroke-width:0.48;"/>
    <path clip-path="url(#pa0b5c3d100)" d="M 228.70375 165.622614 
C 229.499359 165.622614 230.26249 165.306515 230.82507 164.743934 
C 231.387651 164.181353 231.70375 163.418223 231.70375 162.622614 
C 231.70375 161.827005 231.387651 161.063874 230.82507 160.501294 
C 230.26249 159.938713 229.499359 159.622614 228.70375 159.622614 
C 227.908141 159.622614 227.14501 159.938713 226.58243 160.501294 
C 226.019849 161.063874 225.70375 161.827005 225.70375 162.622614 
C 225.70375 163.418223 226.019849 164.181353 226.58243 164.743934 
C 227.14501 165.306515 227.908141 165.622614 228.70375 165.622614 
z
" style="fill:#f26b38;stroke:#ffffff;stroke-width:0.48;"/>
    <path clip-path="url(#pa0b5c3d100)" d="M 235.467386 139.657648 
C 236.262996 139.657648 237.026126 139.341549 237.588707 138.778968 
C 238.151287 138.216387 238.467386 137.453257 238.467386 136.657648 
C 238.467386 135.862038 238.151287 135.098908 237.588707 134.536327 
C 237.026126 133.973747 236.262996 133.657648 235.467386 133.657648 
C 234.671777 133.657648 233.908647 133.973747 233.346066 134.536327 
C 232.783485 135.098908 232.467386 135.862038 232.467386 136.657648 
C 232.467386 137.453257 232.783485 138.216387 233.346066 138.778968 
C 233.908647 139.341549 234.671777 139.657648 235.467386 139.657648 
z
" style="fill:#f26b38;stroke:#ffffff;stroke-width:0.48;"/>
    <path clip-path="url(#pa0b5c3d100)" d="M 242.231023 139.657648 
C 243.026632 139.657648 243.789762 139.341549 244.352343 138.778968 
C 244.914924 138.216387 245.231023 137.453257 245.231023 136.657648 
C 245.231023 135.862038 244.914924 135.098908 244.352343 134.536327 
C 243.789762 133.973747 243.026632 133.657648 242.231023 133.657648 
C 241.435413 133.657648 240.672283 133.973747 240.109702 134.536327 
C 239.547122 135.098908 239.231023 135.862038 239.231023 136.657648 
C 239.231023 137.453257 239.547122 138.216387 240.109702 138.778968 
C 240.672283 139.341549 241.435413 139.657648 242.231023 139.657648 
z
" style="fill:#f26b38;stroke:#ffffff;stroke-width:0.48;"/>
    <path clip-path="url(#pa0b5c3d100)" d="M 248.994659 139.657648 
C 249.790268 139.657648 250.553399 139.341549 251.115979 138.778968 
C 251.67856 138.216387 251.994659 137.453257 251.994659 136.657648 
C 251.994659 135.862038 251.67856 135.098908 251.115979 134.536327 
C 250.553399 133.973747 249.790268 133.657648 248.994659 133.657648 
C 248.19905 133.657648 247.435919 133.973747 246.873339 134.536327 
C 246.310758 135.098908 245.994659 135.862038 245.994659 136.657648 
C 245.994659 137.453257 246.310758 138.216387 246.873339 138.778968 
C 247.435919 139.341549 248.19905 139.657648 248.994659 139.657648 
z
" style="fill:#f26b38;stroke:#ffffff;stroke-width:0.48;"/>
    <path clip-path="url(#pa0b5c3d100)" d="M 255.758295 139.657648 
C 256.553905 139.657648 257.317035 139.341549 257.879616 138.778968 
C 258.442197 138.216387 258.758295 137.453257 258.758295 136.657648 
C 258.758295 135.862038 258.442197 135.098908 257.879616 134.536327 
C 257.317035 133.973747 256.553905 133.657648 255.758295 133.657648 
C 254.962686 133.657648 254.199556 133.973747 253.636975 134.536327 
C 253.074394 135.098908 252.758295 135.862038 252.758295 136.657648 
C 252.758295 137.453257 253.074394 138.216387 253.636975 138.778968 
C 254.199556 139.341549 254.962686 139.657648 255.758295 139.657648 
z
" style="fill:#f26b38;stroke:#ffffff;stroke-width:0.48;"/>
    <path clip-path="url(#pa0b5c3d100)" d="M 262.521932 139.657648 
C 263.317541 139.657648 264.080671 139.341549 264.643252 138.778968 
C 265.205833 138.216387 265.521932 137.453257 265.521932 136.657648 
C 265.521932 135.862038 265.205833 135.098908 264.643252 134.536327 
C 264.080671 133.973747 263.317541 133.657648 262.521932 133.657648 
C 261.726323 133.657648 260.963192 133.973747 260.400611 134.536327 
C 259.838031 135.098908 259.521932 135.862038 259.521932 136.657648 
C 259.521932 137.453257 259.838031 138.216387 260.400611 138.778968 
C 260.963192 139.341549 261.726323 139.657648 262.521932 139.657648 
z
" style="fill:#f26b38;stroke:#ffffff;stroke-width:0.48;"/>
    <path clip-path="url(#pa0b5c3d100)" d="M 269.285568 139.657648 
C 270.081177 139.657648 270.844308 139.341549 271.406889 138.778968 
C 271.969469 138.216387 272.285568 137.453257 272.285568 136.657648 
C 272.285568 135.862038 271.969469 135.098908 271.406889 134.536327 
C 270.844308 133.973747 270.081177 133.657648 269.285568 133.657648 
C 268.489959 133.657648 267.726829 133.973747 267.164248 134.536327 
C 266.601667 135.098908 266.285568 135.862038 266.285568 136.657648 
C 266.285568 137.453257 266.601667 138.216387 267.164248 138.778968 
C 267.726829 139.341549 268.489959 139.657648 269.285568 139.657648 
z
" style="fill:#f26b38;stroke:#ffffff;stroke-width:0.48;"/>
    <path clip-path="url(#pa0b5c3d100)" d="M 276.049205 139.657648 
C 276.844814 139.657648 277.607944 139.341549 278.170525 138.778968 
C 278.733106 138.216387 279.049205 137.453257 279.049205 136.657648 
C 279.049205 135.862038 278.733106 135.098908 278.170525 134.536327 
C 277.607944 133.973747 276.844814 133.657648 276.049205 133.657648 
C 275.253595 133.657648 274.490465 133.973747 273.927884 134.536327 
C 273.365303 135.098908 273.049205 135.862038 273.049205 136.657648 
C 273.049205 137.453257 273.365303 138.216387 273.927884 138.778968 
C 274.490465 139.341549 275.253595 139.657648 276.049205 139.657648 
z
" style="fill:#f26b38;stroke:#ffffff;stroke-width:0.48;"/>
    <path clip-path="url(#pa0b5c3d100)" d="M 282.812841 139.657648 
C 283.60845 139.657648 284.371581 139.341549 284.934161 138.778968 
C 285.496742 138.216387 285.812841 137.453257 285.812841 136.657648 
C 285.812841 135.862038 285.496742 135.098908 284.934161 134.536327 
C 284.371581 133.973747 283.60845 133.657648 282.812841 133.657648 
C 282.017232 133.657648 281.254101 133.973747 280.691521 134.536327 
C 280.12894 135.098908 279.812841 135.862038 279.812841 136.657648 
C 279.812841 137.453257 280.12894 138.216387 280.691521 138.778968 
C 281.254101 139.341549 282.017232 139.657648 282.812841 139.657648 
z
" style="fill:#f26b38;stroke:#ffffff;stroke-width:0.48;"/>
    <path clip-path="url(#pa0b5c3d100)" d="M 289.576477 139.657648 
C 290.372087 139.657648 291.135217 139.341549 291.697798 138.778968 
C 292.260378 138.216387 292.576477 137.453257 292.576477 136.657648 
C 292.576477 135.862038 292.260378 135.098908 291.697798 134.536327 
C 291.135217 133.973747 290.372087 133.657648 289.576477 133.657648 
C 288.780868 133.657648 288.017738 133.973747 287.455157 134.536327 
C 286.892576 135.098908 286.576477 135.862038 286.576477 136.657648 
C 286.576477 137.453257 286.892576 138.216387 287.455157 138.778968 
C 288.017738 139.341549 288.780868 139.657648 289.576477 139.657648 
z
" style="fill:#f26b38;stroke:#ffffff;stroke-width:0.48;"/>
    <path clip-path="url(#pa0b5c3d100)" d="M 296.340114 139.657648 
C 297.135723 139.657648 297.898853 139.341549 298.461434 138.778968 
C 299.024015 138.216387 299.340114 137.453257 299.340114 136.657648 
C 299.340114 135.862038 299.024015 135.098908 298.461434 134.536327 
C 297.898853 133.973747 297.135723 133.657648 296.340114 133.657648 
C 295.544504 133.657648 294.781374 133.973747 294.218793 134.536327 
C 293.656213 135.098908 293.340114 135.862038 293.340114 136.657648 
C 293.340114 137.453257 293.656213 138.216387 294.218793 138.778968 
C 294.781374 139.341549 295.544504 139.657648 296.340114 139.657648 
z
" style="fill:#f26b38;stroke:#ffffff;stroke-width:0.48;"/>
    <path clip-path="url(#pa0b5c3d100)" d="M 303.10375 139.657648 
C 303.899359 139.657648 304.66249 139.341549 305.22507 138.778968 
C 305.787651 138.216387 306.10375 137.453257 306.10375 136.657648 
C 306.10375 135.862038 305.787651 135.098908 305.22507 134.536327 
C 304.66249 133.973747 303.899359 133.657648 303.10375 133.657648 
C 302.308141 133.657648 301.54501 133.973747 300.98243 134.536327 
C 300.419849 135.098908 300.10375 135.862038 300.10375 136.657648 
C 300.10375 137.453257 300.419849 138.216387 300.98243 138.778968 
C 301.54501 139.341549 302.308141 139.657648 303.10375 139.657648 
z
" style="fill:#f26b38;stroke:#ffffff;stroke-width:0.48;"/>
    <path clip-path="url(#pa0b5c3d100)" d="M 309.867386 139.657648 
C 310.662996 139.657648 311.426126 139.341549 311.988707 138.778968 
C 312.551287 138.216387 312.867386 137.453257 312.867386 136.657648 
C 312.867386 135.862038 312.551287 135.098908 311.988707 134.536327 
C 311.426126 133.973747 310.662996 133.657648 309.867386 133.657648 
C 309.071777 133.657648 308.308647 133.973747 307.746066 134.536327 
C 307.183485 135.098908 306.867386 135.862038 306.867386 136.657648 
C 306.867386 137.453257 307.183485 138.216387 307.746066 138.778968 
C 308.308647 139.341549 309.071777 139.657648 309.867386 139.657648 
z
" style="fill:#f26b38;stroke:#ffffff;stroke-width:0.48;"/>
    <path clip-path="url(#pa0b5c3d100)" d="M 316.631023 139.657648 
C 317.426632 139.657648 318.189762 139.341549 318.752343 138.778968 
C 319.314924 138.216387 319.631023 137.453257 319.631023 136.657648 
C 319.631023 135.862038 319.314924 135.098908 318.752343 134.536327 
C 318.189762 133.973747 317.426632 133.657648 316.631023 133.657648 
C 315.835413 133.657648 315.072283 133.973747 314.509702 134.536327 
C 313.947122 135.098908 313.631023 135.862038 313.631023 136.657648 
C 313.631023 137.453257 313.947122 138.216387 314.509702 138.778968 
C 315.072283 139.341549 315.835413 139.657648 316.631023 139.657648 
z
" style="fill:#f26b38;stroke:#ffffff;stroke-width:0.48;"/>
    <path clip-path="url(#pa0b5c3d100)" d="M 323.394659 139.657648 
C 324.190268 139.657648 324.953399 139.341549 325.515979 138.778968 
C 326.07856 138.216387 326.394659 137.453257 326.394659 136.657648 
C 326.394659 135.862038 326.07856 135.098908 325.515979 134.536327 
C 324.953399 133.973747 324.190268 133.657648 323.394659 133.657648 
C 322.59905 133.657648 321.835919 133.973747 321.273339 134.536327 
C 320.710758 135.098908 320.394659 135.862038 320.394659 136.657648 
C 320.394659 137.453257 320.710758 138.216387 321.273339 138.778968 
C 321.835919 139.341549 322.59905 139.657648 323.394659 139.657648 
z
" style="fill:#f26b38;stroke:#ffffff;stroke-width:0.48;"/>
    <path clip-path="url(#pa0b5c3d100)" d="M 330.158295 139.657648 
C 330.953905 139.657648 331.717035 139.341549 332.279616 138.778968 
C 332.842197 138.216387 333.158295 137.453257 333.158295 136.657648 
C 333.158295 135.862038 332.842197 135.098908 332.279616 134.536327 
C 331.717035 133.973747 330.953905 133.657648 330.158295 133.657648 
C 329.362686 133.657648 328.599556 133.973747 328.036975 134.536327 
C 327.474394 135.098908 327.158295 135.862038 327.158295 136.657648 
C 327.158295 137.453257 327.474394 138.216387 328.036975 138.778968 
C 328.599556 139.341549 329.362686 139.657648 330.158295 139.657648 
z
" style="fill:#f26b38;stroke:#ffffff;stroke-width:0.48;"/>
    <path clip-path="url(#pa0b5c3d100)" d="M 336.921932 139.657648 
C 337.717541 139.657648 338.480671 139.341549 339.043252 138.778968 
C 339.605833 138.216387 339.921932 137.453257 339.921932 136.657648 
C 339.921932 135.862038 339.605833 135.098908 339.043252 134.536327 
C 338.480671 133.973747 337.717541 133.657648 336.921932 133.657648 
C 336.126323 133.657648 335.363192 133.973747 334.800611 134.536327 
C 334.238031 135.098908 333.921932 135.862038 333.921932 136.657648 
C 333.921932 137.453257 334.238031 138.216387 334.800611 138.778968 
C 335.363192 139.341549 336.126323 139.657648 336.921932 139.657648 
z
" style="fill:#f26b38;stroke:#ffffff;stroke-width:0.48;"/>
    <path clip-path="url(#pa0b5c3d100)" d="M 343.685568 139.657648 
C 344.481177 139.657648 345.244308 139.341549 345.806889 138.778968 
C 346.369469 138.216387 346.685568 137.453257 346.685568 136.657648 
C 346.685568 135.862038 346.369469 135.098908 345.806889 134.536327 
C 345.244308 133.973747 344.481177 133.657648 343.685568 133.657648 
C 342.889959 133.657648 342.126829 133.973747 341.564248 134.536327 
C 341.001667 135.098908 340.685568 135.862038 340.685568 136.657648 
C 340.685568 137.453257 341.001667 138.216387 341.564248 138.778968 
C 342.126829 139.341549 342.889959 139.657648 343.685568 139.657648 
z
" style="fill:#f26b38;stroke:#ffffff;stroke-width:0.48;"/>
    <path clip-path="url(#pa0b5c3d100)" d="M 350.449205 139.657648 
C 351.244814 139.657648 352.007944 139.341549 352.570525 138.778968 
C 353.133106 138.216387 353.449205 137.453257 353.449205 136.657648 
C 353.449205 135.862038 353.133106 135.098908 352.570525 134.536327 
C 352.007944 133.973747 351.244814 133.657648 350.449205 133.657648 
C 349.653595 133.657648 348.890465 133.973747 348.327884 134.536327 
C 347.765303 135.098908 347.449205 135.862038 347.449205 136.657648 
C 347.449205 137.453257 347.765303 138.216387 348.327884 138.778968 
C 348.890465 139.341549 349.653595 139.657648 350.449205 139.657648 
z
" style="fill:#f26b38;stroke:#ffffff;stroke-width:0.48;"/>
    <path clip-path="url(#pa0b5c3d100)" d="M 357.212841 139.657648 
C 358.00845 139.657648 358.771581 139.341549 359.334161 138.778968 
C 359.896742 138.216387 360.212841 137.453257 360.212841 136.657648 
C 360.212841 135.862038 359.896742 135.098908 359.334161 134.536327 
C 358.771581 133.973747 358.00845 133.657648 357.212841 133.657648 
C 356.417232 133.657648 355.654101 133.973747 355.091521 134.536327 
C 354.52894 135.098908 354.212841 135.862038 354.212841 136.657648 
C 354.212841 137.453257 354.52894 138.216387 355.091521 138.778968 
C 355.654101 139.341549 356.417232 139.657648 357.212841 139.657648 
z
" style="fill:#f26b38;stroke:#ffffff;stroke-width:0.48;"/>
    <path clip-path="url(#pa0b5c3d100)" d="M 363.976477 139.657648 
C 364.772087 139.657648 365.535217 139.341549 366.097798 138.778968 
C 366.660378 138.216387 366.976477 137.453257 366.976477 136.657648 
C 366.976477 135.862038 366.660378 135.098908 366.097798 134.536327 
C 365.535217 133.973747 364.772087 133.657648 363.976477 133.657648 
C 363.180868 133.657648 362.417738 133.973747 361.855157 134.536327 
C 361.292576 135.098908 360.976477 135.862038 360.976477 136.657648 
C 360.976477 137.453257 361.292576 138.216387 361.855157 138.778968 
C 362.417738 139.341549 363.180868 139.657648 363.976477 139.657648 
z
" style="fill:#f26b38;stroke:#ffffff;stroke-width:0.48;"/>
    <path clip-path="url(#pa0b5c3d100)" d="M 370.740114 139.657648 
C 371.535723 139.657648 372.298853 139.341549 372.861434 138.778968 
C 373.424015 138.216387 373.740114 137.453257 373.740114 136.657648 
C 373.740114 135.862038 373.424015 135.098908 372.861434 134.536327 
C 372.298853 133.973747 371.535723 133.657648 370.740114 133.657648 
C 369.944504 133.657648 369.181374 133.973747 368.618793 134.536327 
C 368.056213 135.098908 367.740114 135.862038 367.740114 136.657648 
C 367.740114 137.453257 368.056213 138.216387 368.618793 138.778968 
C 369.181374 139.341549 369.944504 139.657648 370.740114 139.657648 
z
" style="fill:#f26b38;stroke:#ffffff;stroke-width:0.48;"/>
    <path clip-path="url(#pa0b5c3d100)" d="M 377.50375 139.657648 
C 378.299359 139.657648 379.06249 139.341549 379.62507 138.778968 
C 380.187651 138.216387 380.50375 137.453257 380.50375 136.657648 
C 380.50375 135.862038 380.187651 135.098908 379.62507 134.536327 
C 379.06249 133.973747 378.299359 133.657648 377.50375 133.657648 
C 376.708141 133.657648 375.94501 133.973747 375.38243 134.536327 
C 374.819849 135.098908 374.50375 135.862038 374.50375 136.657648 
C 374.50375 137.453257 374.819849 138.216387 375.38243 138.778968 
C 375.94501 139.341549 376.708141 139.657648 377.50375 139.657648 
z
" style="fill:#f26b38;stroke:#ffffff;stroke-width:0.48;"/>
    <path clip-path="url(#pa0b5c3d100)" d="M 384.267386 139.657648 
C 385.062996 139.657648 385.826126 139.341549 386.388707 138.778968 
C 386.951287 138.216387 387.267386 137.453257 387.267386 136.657648 
C 387.267386 135.862038 386.951287 135.098908 386.388707 134.536327 
C 385.826126 133.973747 385.062996 133.657648 384.267386 133.657648 
C 383.471777 133.657648 382.708647 133.973747 382.146066 134.536327 
C 381.583485 135.098908 381.267386 135.862038 381.267386 136.657648 
C 381.267386 137.453257 381.583485 138.216387 382.146066 138.778968 
C 382.708647 139.341549 383.471777 139.657648 384.267386 139.657648 
z
" style="fill:#f26b38;stroke:#ffffff;stroke-width:0.48;"/>
    <path clip-path="url(#pa0b5c3d100)" d="M 391.031023 139.657648 
C 391.826632 139.657648 392.589762 139.341549 393.152343 138.778968 
C 393.714924 138.216387 394.031023 137.453257 394.031023 136.657648 
C 394.031023 135.862038 393.714924 135.098908 393.152343 134.536327 
C 392.589762 133.973747 391.826632 133.657648 391.031023 133.657648 
C 390.235413 133.657648 389.472283 133.973747 388.909702 134.536327 
C 388.347122 135.098908 388.031023 135.862038 388.031023 136.657648 
C 388.031023 137.453257 388.347122 138.216387 388.909702 138.778968 
C 389.472283 139.341549 390.235413 139.657648 391.031023 139.657648 
z
" style="fill:#f26b38;stroke:#ffffff;stroke-width:0.48;"/>
    <path clip-path="url(#pa0b5c3d100)" d="M 64.876477 178.952842 
L 66.376477 177.452842 
L 67.876477 178.952842 
L 69.376477 177.452842 
L 67.876477 175.952842 
L 69.376477 174.452842 
L 67.876477 172.952842 
L 66.376477 174.452842 
L 64.876477 172.952842 
L 63.376477 174.452842 
L 64.876477 175.952842 
L 63.376477 177.452842 
z
" style="fill:#2f9599;stroke:#ffffff;stroke-width:0.48;"/>
    <path clip-path="url(#pa0b5c3d100)" d="M 71.640114 152.526249 
L 73.140114 151.026249 
L 74.640114 152.526249 
L 76.140114 151.026249 
L 74.640114 149.526249 
L 76.140114 148.026249 
L 74.640114 146.526249 
L 73.140114 148.026249 
L 71.640114 146.526249 
L 70.140114 148.026249 
L 71.640114 149.526249 
L 70.140114 151.026249 
z
" style="fill:#2f9599;stroke:#ffffff;stroke-width:0.48;"/>
    <path clip-path="url(#pa0b5c3d100)" d="M 78.40375 152.526249 
L 79.90375 151.026249 
L 81.40375 152.526249 
L 82.90375 151.026249 
L 81.40375 149.526249 
L 82.90375 148.026249 
L 81.40375 146.526249 
L 79.90375 148.026249 
L 78.40375 146.526249 
L 76.90375 148.026249 
L 78.40375 149.526249 
L 76.90375 151.026249 
z
" style="fill:#2f9599;stroke:#ffffff;stroke-width:0.48;"/>
    <path clip-path="url(#pa0b5c3d100)" d="M 85.167386 152.526249 
L 86.667386 151.026249 
L 88.167386 152.526249 
L 89.667386 151.026249 
L 88.167386 149.526249 
L 89.667386 148.026249 
L 88.167386 146.526249 
L 86.667386 148.026249 
L 85.167386 146.526249 
L 83.667386 148.026249 
L 85.167386 149.526249 
L 83.667386 151.026249 
z
" style="fill:#2f9599;stroke:#ffffff;stroke-width:0.48;"/>
    <path clip-path="url(#pa0b5c3d100)" d="M 91.931023 152.526249 
L 93.431023 151.026249 
L 94.931023 152.526249 
L 96.431023 151.026249 
L 94.931023 149.526249 
L 96.431023 148.026249 
L 94.931023 146.526249 
L 93.431023 148.026249 
L 91.931023 146.526249 
L 90.431023 148.026249 
L 91.931023 149.526249 
L 90.431023 151.026249 
z
" style="fill:#2f9599;stroke:#ffffff;stroke-width:0.48;"/>
    <path clip-path="url(#pa0b5c3d100)" d="M 98.694659 192.523255 
L 100.194659 191.023255 
L 101.694659 192.523255 
L 103.194659 191.023255 
L 101.694659 189.523255 
L 103.194659 188.023255 
L 101.694659 186.523255 
L 100.194659 188.023255 
L 98.694659 186.523255 
L 97.194659 188.023255 
L 98.694659 189.523255 
L 97.194659 191.023255 
z
" style="fill:#2f9599;stroke:#ffffff;stroke-width:0.48;"/>
    <path clip-path="url(#pa0b5c3d100)" d="M 105.458295 192.523255 
L 106.958295 191.023255 
L 108.458295 192.523255 
L 109.958295 191.023255 
L 108.458295 189.523255 
L 109.958295 188.023255 
L 108.458295 186.523255 
L 106.958295 188.023255 
L 105.458295 186.523255 
L 103.958295 188.023255 
L 105.458295 189.523255 
L 103.958295 191.023255 
z
" style="fill:#2f9599;stroke:#ffffff;stroke-width:0.48;"/>
    <path clip-path="url(#pa0b5c3d100)" d="M 112.221932 192.523255 
L 113.721932 191.023255 
L 115.221932 192.523255 
L 116.721932 191.023255 
L 115.221932 189.523255 
L 116.721932 188.023255 
L 115.221932 186.523255 
L 113.721932 188.023255 
L 112.221932 186.523255 
L 110.721932 188.023255 
L 112.221932 189.523255 
L 110.721932 191.023255 
z
" style="fill:#2f9599;stroke:#ffffff;stroke-width:0.48;"/>
    <path clip-path="url(#pa0b5c3d100)" d="M 118.985568 192.523255 
L 120.485568 191.023255 
L 121.985568 192.523255 
L 123.485568 191.023255 
L 121.985568 189.523255 
L 123.485568 188.023255 
L 121.985568 186.523255 
L 120.485568 188.023255 
L 118.985568 186.523255 
L 117.485568 188.023255 
L 118.985568 189.523255 
L 117.485568 191.023255 
z
" style="fill:#2f9599;stroke:#ffffff;stroke-width:0.48;"/>
    <path clip-path="url(#pa0b5c3d100)" d="M 125.749205 152.526249 
L 127.249205 151.026249 
L 128.749205 152.526249 
L 130.249205 151.026249 
L 128.749205 149.526249 
L 130.249205 148.026249 
L 128.749205 146.526249 
L 127.249205 148.026249 
L 125.749205 146.526249 
L 124.249205 148.026249 
L 125.749205 149.526249 
L 124.249205 151.026249 
z
" style="fill:#2f9599;stroke:#ffffff;stroke-width:0.48;"/>
    <path clip-path="url(#pa0b5c3d100)" d="M 132.512841 139.657648 
L 134.012841 138.157648 
L 135.512841 139.657648 
L 137.012841 138.157648 
L 135.512841 136.657648 
L 137.012841 135.157648 
L 135.512841 133.657648 
L 134.012841 135.157648 
L 132.512841 133.657648 
L 131.012841 135.157648 
L 132.512841 136.657648 
L 131.012841 138.157648 
z
" style="fill:#2f9599;stroke:#ffffff;stroke-width:0.48;"/>
    <path clip-path="url(#pa0b5c3d100)" d="M 139.276477 264.216 
L 140.776477 262.716 
L 142.276477 264.216 
L 143.776477 262.716 
L 142.276477 261.216 
L 143.776477 259.716 
L 142.276477 258.216 
L 140.776477 259.716 
L 139.276477 258.216 
L 137.776477 259.716 
L 139.276477 261.216 
L 137.776477 262.716 
z
" style="fill:#2f9599;stroke:#ffffff;stroke-width:0.48;"/>
    <path clip-path="url(#pa0b5c3d100)" d="M 146.040114 264.216 
L 147.540114 262.716 
L 149.040114 264.216 
L 150.540114 262.716 
L 149.040114 261.216 
L 150.540114 259.716 
L 149.040114 258.216 
L 147.540114 259.716 
L 146.040114 258.216 
L 144.540114 259.716 
L 146.040114 261.216 
L 144.540114 262.716 
z
" style="fill:#2f9599;stroke:#ffffff;stroke-width:0.48;"/>
    <path clip-path="url(#pa0b5c3d100)" d="M 152.80375 264.216 
L 154.30375 262.716 
L 155.80375 264.216 
L 157.30375 262.716 
L 155.80375 261.216 
L 157.30375 259.716 
L 155.80375 258.216 
L 154.30375 259.716 
L 152.80375 258.216 
L 151.30375 259.716 
L 152.80375 261.216 
L 151.30375 262.716 
z
" style="fill:#2f9599;stroke:#ffffff;stroke-width:0.48;"/>
    <path clip-path="url(#pa0b5c3d100)" d="M 159.567386 264.216 
L 161.067386 262.716 
L 162.567386 264.216 
L 164.067386 262.716 
L 162.567386 261.216 
L 164.067386 259.716 
L 162.567386 258.216 
L 161.067386 259.716 
L 159.567386 258.216 
L 158.067386 259.716 
L 159.567386 261.216 
L 158.067386 262.716 
z
" style="fill:#2f9599;stroke:#ffffff;stroke-width:0.48;"/>
    <path clip-path="url(#pa0b5c3d100)" d="M 166.331023 249.34143 
L 167.831023 247.84143 
L 169.331023 249.34143 
L 170.831023 247.84143 
L 169.331023 246.34143 
L 170.831023 244.84143 
L 169.331023 243.34143 
L 167.831023 244.84143 
L 166.331023 243.34143 
L 164.831023 244.84143 
L 166.331023 246.34143 
L 164.831023 247.84143 
z
" style="fill:#2f9599;stroke:#ffffff;stroke-width:0.48;"/>
    <path clip-path="url(#pa0b5c3d100)" d="M 173.094659 220.411075 
L 174.594659 218.911075 
L 176.094659 220.411075 
L 177.594659 218.911075 
L 176.094659 217.411075 
L 177.594659 215.911075 
L 176.094659 214.411075 
L 174.594659 215.911075 
L 173.094659 214.411075 
L 171.594659 215.911075 
L 173.094659 217.411075 
L 171.594659 218.911075 
z
" style="fill:#2f9599;stroke:#ffffff;stroke-width:0.48;"/>
    <path clip-path="url(#pa0b5c3d100)" d="M 179.858295 220.411075 
L 181.358295 218.911075 
L 182.858295 220.411075 
L 184.358295 218.911075 
L 182.858295 217.411075 
L 184.358295 215.911075 
L 182.858295 214.411075 
L 181.358295 215.911075 
L 179.858295 214.411075 
L 178.358295 215.911075 
L 179.858295 217.411075 
L 178.358295 218.911075 
z
" style="fill:#2f9599;stroke:#ffffff;stroke-width:0.48;"/>
    <path clip-path="url(#pa0b5c3d100)" d="M 186.621932 220.411075 
L 188.121932 218.911075 
L 189.621932 220.411075 
L 191.121932 218.911075 
L 189.621932 217.411075 
L 191.121932 215.911075 
L 189.621932 214.411075 
L 188.121932 215.911075 
L 186.621932 214.411075 
L 185.121932 215.911075 
L 186.621932 217.411075 
L 185.121932 218.911075 
z
" style="fill:#2f9599;stroke:#ffffff;stroke-width:0.48;"/>
    <path clip-path="url(#pa0b5c3d100)" d="M 193.385568 220.411075 
L 194.885568 218.911075 
L 196.385568 220.411075 
L 197.885568 218.911075 
L 196.385568 217.411075 
L 197.885568 215.911075 
L 196.385568 214.411075 
L 194.885568 215.911075 
L 193.385568 214.411075 
L 191.885568 215.911075 
L 193.385568 217.411075 
L 191.885568 218.911075 
z
" style="fill:#2f9599;stroke:#ffffff;stroke-width:0.48;"/>
    <path clip-path="url(#pa0b5c3d100)" d="M 200.149205 220.411075 
L 201.649205 218.911075 
L 203.149205 220.411075 
L 204.649205 218.911075 
L 203.149205 217.411075 
L 204.649205 215.911075 
L 203.149205 214.411075 
L 201.649205 215.911075 
L 200.149205 214.411075 
L 198.649205 215.911075 
L 200.149205 217.411075 
L 198.649205 218.911075 
z
" style="fill:#2f9599;stroke:#ffffff;stroke-width:0.48;"/>
    <path clip-path="url(#pa0b5c3d100)" d="M 206.912841 220.411075 
L 208.412841 218.911075 
L 209.912841 220.411075 
L 211.412841 218.911075 
L 209.912841 217.411075 
L 211.412841 215.911075 
L 209.912841 214.411075 
L 208.412841 215.911075 
L 206.912841 214.411075 
L 205.412841 215.911075 
L 206.912841 217.411075 
L 205.412841 218.911075 
z
" style="fill:#2f9599;stroke:#ffffff;stroke-width:0.48;"/>
    <path clip-path="url(#pa0b5c3d100)" d="M 213.676477 220.411075 
L 215.176477 218.911075 
L 216.676477 220.411075 
L 218.176477 218.911075 
L 216.676477 217.411075 
L 218.176477 215.911075 
L 216.676477 214.411075 
L 215.176477 215.911075 
L 213.676477 214.411075 
L 212.176477 215.911075 
L 213.676477 217.411075 
L 212.176477 218.911075 
z
" style="fill:#2f9599;stroke:#ffffff;stroke-width:0.48;"/>
    <path clip-path="url(#pa0b5c3d100)" d="M 220.440114 220.411075 
L 221.940114 218.911075 
L 223.440114 220.411075 
L 224.940114 218.911075 
L 223.440114 217.411075 
L 224.940114 215.911075 
L 223.440114 214.411075 
L 221.940114 215.911075 
L 220.440114 214.411075 
L 218.940114 215.911075 
L 220.440114 217.411075 
L 218.940114 218.911075 
z
" style="fill:#2f9599;stroke:#ffffff;stroke-width:0.48;"/>
    <path clip-path="url(#pa0b5c3d100)" d="M 227.20375 220.411075 
L 228.70375 218.911075 
L 230.20375 220.411075 
L 231.70375 218.911075 
L 230.20375 217.411075 
L 231.70375 215.911075 
L 230.20375 214.411075 
L 228.70375 215.911075 
L 227.20375 214.411075 
L 225.70375 215.911075 
L 227.20375 217.411075 
L 225.70375 218.911075 
z
" style="fill:#2f9599;stroke:#ffffff;stroke-width:0.48;"/>
    <path clip-path="url(#pa0b5c3d100)" d="M 233.967386 220.411075 
L 235.467386 218.911075 
L 236.967386 220.411075 
L 238.467386 218.911075 
L 236.967386 217.411075 
L 238.467386 215.911075 
L 236.967386 214.411075 
L 235.467386 215.911075 
L 233.967386 214.411075 
L 232.467386 215.911075 
L 233.967386 217.411075 
L 232.467386 218.911075 
z
" style="fill:#2f9599;stroke:#ffffff;stroke-width:0.48;"/>
    <path clip-path="url(#pa0b5c3d100)" d="M 240.731023 220.411075 
L 242.231023 218.911075 
L 243.731023 220.411075 
L 245.231023 218.911075 
L 243.731023 217.411075 
L 245.231023 215.911075 
L 243.731023 214.411075 
L 242.231023 215.911075 
L 240.731023 214.411075 
L 239.231023 215.911075 
L 240.731023 217.411075 
L 239.231023 218.911075 
z
" style="fill:#2f9599;stroke:#ffffff;stroke-width:0.48;"/>
    <path clip-path="url(#pa0b5c3d100)" d="M 247.494659 220.411075 
L 248.994659 218.911075 
L 250.494659 220.411075 
L 251.994659 218.911075 
L 250.494659 217.411075 
L 251.994659 215.911075 
L 250.494659 214.411075 
L 248.994659 215.911075 
L 247.494659 214.411075 
L 245.994659 215.911075 
L 247.494659 217.411075 
L 245.994659 218.911075 
z
" style="fill:#2f9599;stroke:#ffffff;stroke-width:0.48;"/>
    <path clip-path="url(#pa0b5c3d100)" d="M 254.258295 220.411075 
L 255.758295 218.911075 
L 257.258295 220.411075 
L 258.758295 218.911075 
L 257.258295 217.411075 
L 258.758295 215.911075 
L 257.258295 214.411075 
L 255.758295 215.911075 
L 254.258295 214.411075 
L 252.758295 215.911075 
L 254.258295 217.411075 
L 252.758295 218.911075 
z
" style="fill:#2f9599;stroke:#ffffff;stroke-width:0.48;"/>
    <path clip-path="url(#pa0b5c3d100)" d="M 261.021932 220.411075 
L 262.521932 218.911075 
L 264.021932 220.411075 
L 265.521932 218.911075 
L 264.021932 217.411075 
L 265.521932 215.911075 
L 264.021932 214.411075 
L 262.521932 215.911075 
L 261.021932 214.411075 
L 259.521932 215.911075 
L 261.021932 217.411075 
L 259.521932 218.911075 
z
" style="fill:#2f9599;stroke:#ffffff;stroke-width:0.48;"/>
    <path clip-path="url(#pa0b5c3d100)" d="M 267.785568 220.411075 
L 269.285568 218.911075 
L 270.785568 220.411075 
L 272.285568 218.911075 
L 270.785568 217.411075 
L 272.285568 215.911075 
L 270.785568 214.411075 
L 269.285568 215.911075 
L 267.785568 214.411075 
L 266.285568 215.911075 
L 267.785568 217.411075 
L 266.285568 218.911075 
z
" style="fill:#2f9599;stroke:#ffffff;stroke-width:0.48;"/>
    <path clip-path="url(#pa0b5c3d100)" d="M 274.549205 220.411075 
L 276.049205 218.911075 
L 277.549205 220.411075 
L 279.049205 218.911075 
L 277.549205 217.411075 
L 279.049205 215.911075 
L 277.549205 214.411075 
L 276.049205 215.911075 
L 274.549205 214.411075 
L 273.049205 215.911075 
L 274.549205 217.411075 
L 273.049205 218.911075 
z
" style="fill:#2f9599;stroke:#ffffff;stroke-width:0.48;"/>
    <path clip-path="url(#pa0b5c3d100)" d="M 281.312841 220.411075 
L 282.812841 218.911075 
L 284.312841 220.411075 
L 285.812841 218.911075 
L 284.312841 217.411075 
L 285.812841 215.911075 
L 284.312841 214.411075 
L 282.812841 215.911075 
L 281.312841 214.411075 
L 279.812841 215.911075 
L 281.312841 217.411075 
L 279.812841 218.911075 
z
" style="fill:#2f9599;stroke:#ffffff;stroke-width:0.48;"/>
    <path clip-path="url(#pa0b5c3d100)" d="M 288.076477 220.411075 
L 289.576477 218.911075 
L 291.076477 220.411075 
L 292.576477 218.911075 
L 291.076477 217.411075 
L 292.576477 215.911075 
L 291.076477 214.411075 
L 289.576477 215.911075 
L 288.076477 214.411075 
L 286.576477 215.911075 
L 288.076477 217.411075 
L 286.576477 218.911075 
z
" style="fill:#2f9599;stroke:#ffffff;stroke-width:0.48;"/>
    <path clip-path="url(#pa0b5c3d100)" d="M 294.840114 220.411075 
L 296.340114 218.911075 
L 297.840114 220.411075 
L 299.340114 218.911075 
L 297.840114 217.411075 
L 299.340114 215.911075 
L 297.840114 214.411075 
L 296.340114 215.911075 
L 294.840114 214.411075 
L 293.340114 215.911075 
L 294.840114 217.411075 
L 293.340114 218.911075 
z
" style="fill:#2f9599;stroke:#ffffff;stroke-width:0.48;"/>
    <path clip-path="url(#pa0b5c3d100)" d="M 301.60375 220.411075 
L 303.10375 218.911075 
L 304.60375 220.411075 
L 306.10375 218.911075 
L 304.60375 217.411075 
L 306.10375 215.911075 
L 304.60375 214.411075 
L 303.10375 215.911075 
L 301.60375 214.411075 
L 300.10375 215.911075 
L 301.60375 217.411075 
L 300.10375 218.911075 
z
" style="fill:#2f9599;stroke:#ffffff;stroke-width:0.48;"/>
    <path clip-path="url(#pa0b5c3d100)" d="M 308.367386 220.411075 
L 309.867386 218.911075 
L 311.367386 220.411075 
L 312.867386 218.911075 
L 311.367386 217.411075 
L 312.867386 215.911075 
L 311.367386 214.411075 
L 309.867386 215.911075 
L 308.367386 214.411075 
L 306.867386 215.911075 
L 308.367386 217.411075 
L 306.867386 218.911075 
z
" style="fill:#2f9599;stroke:#ffffff;stroke-width:0.48;"/>
    <path clip-path="url(#pa0b5c3d100)" d="M 315.131023 220.411075 
L 316.631023 218.911075 
L 318.131023 220.411075 
L 319.631023 218.911075 
L 318.131023 217.411075 
L 319.631023 215.911075 
L 318.131023 214.411075 
L 316.631023 215.911075 
L 315.131023 214.411075 
L 313.631023 215.911075 
L 315.131023 217.411075 
L 313.631023 218.911075 
z
" style="fill:#2f9599;stroke:#ffffff;stroke-width:0.48;"/>
    <path clip-path="url(#pa0b5c3d100)" d="M 321.894659 220.411075 
L 323.394659 218.911075 
L 324.894659 220.411075 
L 326.394659 218.911075 
L 324.894659 217.411075 
L 326.394659 215.911075 
L 324.894659 214.411075 
L 323.394659 215.911075 
L 321.894659 214.411075 
L 320.394659 215.911075 
L 321.894659 217.411075 
L 320.394659 218.911075 
z
" style="fill:#2f9599;stroke:#ffffff;stroke-width:0.48;"/>
    <path clip-path="url(#pa0b5c3d100)" d="M 328.658295 220.411075 
L 330.158295 218.911075 
L 331.658295 220.411075 
L 333.158295 218.911075 
L 331.658295 217.411075 
L 333.158295 215.911075 
L 331.658295 214.411075 
L 330.158295 215.911075 
L 328.658295 214.411075 
L 327.158295 215.911075 
L 328.658295 217.411075 
L 327.158295 218.911075 
z
" style="fill:#2f9599;stroke:#ffffff;stroke-width:0.48;"/>
    <path clip-path="url(#pa0b5c3d100)" d="M 335.421932 220.411075 
L 336.921932 218.911075 
L 338.421932 220.411075 
L 339.921932 218.911075 
L 338.421932 217.411075 
L 339.921932 215.911075 
L 338.421932 214.411075 
L 336.921932 215.911075 
L 335.421932 214.411075 
L 333.921932 215.911075 
L 335.421932 217.411075 
L 333.921932 218.911075 
z
" style="fill:#2f9599;stroke:#ffffff;stroke-width:0.48;"/>
    <path clip-path="url(#pa0b5c3d100)" d="M 342.185568 220.411075 
L 343.685568 218.911075 
L 345.185568 220.411075 
L 346.685568 218.911075 
L 345.185568 217.411075 
L 346.685568 215.911075 
L 345.185568 214.411075 
L 343.685568 215.911075 
L 342.185568 214.411075 
L 340.685568 215.911075 
L 342.185568 217.411075 
L 340.685568 218.911075 
z
" style="fill:#2f9599;stroke:#ffffff;stroke-width:0.48;"/>
    <path clip-path="url(#pa0b5c3d100)" d="M 348.949205 220.411075 
L 350.449205 218.911075 
L 351.949205 220.411075 
L 353.449205 218.911075 
L 351.949205 217.411075 
L 353.449205 215.911075 
L 351.949205 214.411075 
L 350.449205 215.911075 
L 348.949205 214.411075 
L 347.449205 215.911075 
L 348.949205 217.411075 
L 347.449205 218.911075 
z
" style="fill:#2f9599;stroke:#ffffff;stroke-width:0.48;"/>
    <path clip-path="url(#pa0b5c3d100)" d="M 355.712841 220.411075 
L 357.212841 218.911075 
L 358.712841 220.411075 
L 360.212841 218.911075 
L 358.712841 217.411075 
L 360.212841 215.911075 
L 358.712841 214.411075 
L 357.212841 215.911075 
L 355.712841 214.411075 
L 354.212841 215.911075 
L 355.712841 217.411075 
L 354.212841 218.911075 
z
" style="fill:#2f9599;stroke:#ffffff;stroke-width:0.48;"/>
    <path clip-path="url(#pa0b5c3d100)" d="M 362.476477 220.411075 
L 363.976477 218.911075 
L 365.476477 220.411075 
L 366.976477 218.911075 
L 365.476477 217.411075 
L 366.976477 215.911075 
L 365.476477 214.411075 
L 363.976477 215.911075 
L 362.476477 214.411075 
L 360.976477 215.911075 
L 362.476477 217.411075 
L 360.976477 218.911075 
z
" style="fill:#2f9599;stroke:#ffffff;stroke-width:0.48;"/>
    <path clip-path="url(#pa0b5c3d100)" d="M 369.240114 220.411075 
L 370.740114 218.911075 
L 372.240114 220.411075 
L 373.740114 218.911075 
L 372.240114 217.411075 
L 373.740114 215.911075 
L 372.240114 214.411075 
L 370.740114 215.911075 
L 369.240114 214.411075 
L 367.740114 215.911075 
L 369.240114 217.411075 
L 367.740114 218.911075 
z
" style="fill:#2f9599;stroke:#ffffff;stroke-width:0.48;"/>
    <path clip-path="url(#pa0b5c3d100)" d="M 376.00375 220.411075 
L 377.50375 218.911075 
L 379.00375 220.411075 
L 380.50375 218.911075 
L 379.00375 217.411075 
L 380.50375 215.911075 
L 379.00375 214.411075 
L 377.50375 215.911075 
L 376.00375 214.411075 
L 374.50375 215.911075 
L 376.00375 217.411075 
L 374.50375 218.911075 
z
" style="fill:#2f9599;stroke:#ffffff;stroke-width:0.48;"/>
    <path clip-path="url(#pa0b5c3d100)" d="M 382.767386 220.411075 
L 384.267386 218.911075 
L 385.767386 220.411075 
L 387.267386 218.911075 
L 385.767386 217.411075 
L 387.267386 215.911075 
L 385.767386 214.411075 
L 384.267386 215.911075 
L 382.767386 214.411075 
L 381.267386 215.911075 
L 382.767386 217.411075 
L 381.267386 218.911075 
z
" style="fill:#2f9599;stroke:#ffffff;stroke-width:0.48;"/>
    <path clip-path="url(#pa0b5c3d100)" d="M 389.531023 220.411075 
L 391.031023 218.911075 
L 392.531023 220.411075 
L 394.031023 218.911075 
L 392.531023 217.411075 
L 394.031023 215.911075 
L 392.531023 214.411075 
L 391.031023 215.911075 
L 389.531023 214.411075 
L 388.031023 215.911075 
L 389.531023 217.411075 
L 388.031023 218.911075 
z
" style="fill:#2f9599;stroke:#ffffff;stroke-width:0.48;"/>
    <path clip-path="url(#pa0b5c3d100)" d="M 64.255157 50.363014 
L 64.255157 54.605655 
L 68.497798 54.605655 
L 68.497798 50.363014 
z
" style="fill:#a7226e;stroke:#ffffff;stroke-width:0.48;"/>
    <path clip-path="url(#pa0b5c3d100)" d="M 71.018793 50.363014 
L 71.018793 54.605655 
L 75.261434 54.605655 
L 75.261434 50.363014 
z
" style="fill:#a7226e;stroke:#ffffff;stroke-width:0.48;"/>
    <path clip-path="url(#pa0b5c3d100)" d="M 77.78243 50.363014 
L 77.78243 54.605655 
L 82.02507 54.605655 
L 82.02507 50.363014 
z
" style="fill:#a7226e;stroke:#ffffff;stroke-width:0.48;"/>
    <path clip-path="url(#pa0b5c3d100)" d="M 84.546066 50.363014 
L 84.546066 54.605655 
L 88.788707 54.605655 
L 88.788707 50.363014 
z
" style="fill:#a7226e;stroke:#ffffff;stroke-width:0.48;"/>
    <path clip-path="url(#pa0b5c3d100)" d="M 91.309702 50.363014 
L 91.309702 54.605655 
L 95.552343 54.605655 
L 95.552343 50.363014 
z
" style="fill:#a7226e;stroke:#ffffff;stroke-width:0.48;"/>
    <path clip-path="url(#pa0b5c3d100)" d="M 98.073339 61.791504 
L 98.073339 66.034145 
L 102.315979 66.034145 
L 102.315979 61.791504 
z
" style="fill:#a7226e;stroke:#ffffff;stroke-width:0.48;"/>
    <path clip-path="url(#pa0b5c3d100)" d="M 104.836975 50.363014 
L 104.836975 54.605655 
L 109.079616 54.605655 
L 109.079616 50.363014 
z
" style="fill:#a7226e;stroke:#ffffff;stroke-width:0.48;"/>
    <path clip-path="url(#pa0b5c3d100)" d="M 111.600611 50.363014 
L 111.600611 54.605655 
L 115.843252 54.605655 
L 115.843252 50.363014 
z
" style="fill:#a7226e;stroke:#ffffff;stroke-width:0.48;"/>
    <path clip-path="url(#pa0b5c3d100)" d="M 118.364248 50.363014 
L 118.364248 54.605655 
L 122.606889 54.605655 
L 122.606889 50.363014 
z
" style="fill:#a7226e;stroke:#ffffff;stroke-width:0.48;"/>
    <path clip-path="url(#pa0b5c3d100)" d="M 125.127884 17.17468 
L 125.127884 21.41732 
L 129.370525 21.41732 
L 129.370525 17.17468 
z
" style="fill:#a7226e;stroke:#ffffff;stroke-width:0.48;"/>
    <path clip-path="url(#pa0b5c3d100)" d="M 131.891521 17.17468 
L 131.891521 21.41732 
L 136.134161 21.41732 
L 136.134161 17.17468 
z
" style="fill:#a7226e;stroke:#ffffff;stroke-width:0.48;"/>
    <path clip-path="url(#pa0b5c3d100)" d="M 138.655157 28.059026 
L 138.655157 32.301667 
L 142.897798 32.301667 
L 142.897798 28.059026 
z
" style="fill:#a7226e;stroke:#ffffff;stroke-width:0.48;"/>
    <path clip-path="url(#pa0b5c3d100)" d="M 145.418793 28.059026 
L 145.418793 32.301667 
L 149.661434 32.301667 
L 149.661434 28.059026 
z
" style="fill:#a7226e;stroke:#ffffff;stroke-width:0.48;"/>
    <path clip-path="url(#pa0b5c3d100)" d="M 152.18243 28.059026 
L 152.18243 32.301667 
L 156.42507 32.301667 
L 156.42507 28.059026 
z
" style="fill:#a7226e;stroke:#ffffff;stroke-width:0.48;"/>
    <path clip-path="url(#pa0b5c3d100)" d="M 158.946066 17.17468 
L 158.946066 21.41732 
L 163.188707 21.41732 
L 163.188707 17.17468 
z
" style="fill:#a7226e;stroke:#ffffff;stroke-width:0.48;"/>
    <path clip-path="url(#pa0b5c3d100)" d="M 165.709702 50.363014 
L 165.709702 54.605655 
L 169.952343 54.605655 
L 169.952343 50.363014 
z
" style="fill:#a7226e;stroke:#ffffff;stroke-width:0.48;"/>
    <path clip-path="url(#pa0b5c3d100)" d="M 172.473339 50.363014 
L 172.473339 54.605655 
L 176.715979 54.605655 
L 176.715979 50.363014 
z
" style="fill:#a7226e;stroke:#ffffff;stroke-width:0.48;"/>
    <path clip-path="url(#pa0b5c3d100)" d="M 179.236975 39.120354 
L 179.236975 43.362994 
L 183.479616 43.362994 
L 183.479616 39.120354 
z
" style="fill:#a7226e;stroke:#ffffff;stroke-width:0.48;"/>
    <path clip-path="url(#pa0b5c3d100)" d="M 186.000611 39.120354 
L 186.000611 43.362994 
L 190.243252 43.362994 
L 190.243252 39.120354 
z
" style="fill:#a7226e;stroke:#ffffff;stroke-width:0.48;"/>
    <path clip-path="url(#pa0b5c3d100)" d="M 192.764248 39.120354 
L 192.764248 43.362994 
L 197.006889 43.362994 
L 197.006889 39.120354 
z
" style="fill:#a7226e;stroke:#ffffff;stroke-width:0.48;"/>
    <path clip-path="url(#pa0b5c3d100)" d="M 199.527884 39.120354 
L 199.527884 43.362994 
L 203.770525 43.362994 
L 203.770525 39.120354 
z
" style="fill:#a7226e;stroke:#ffffff;stroke-width:0.48;"/>
    <path clip-path="url(#pa0b5c3d100)" d="M 206.291521 39.120354 
L 206.291521 43.362994 
L 210.534161 43.362994 
L 210.534161 39.120354 
z
" style="fill:#a7226e;stroke:#ffffff;stroke-width:0.48;"/>
    <path clip-path="url(#pa0b5c3d100)" d="M 213.055157 39.120354 
L 213.055157 43.362994 
L 217.297798 43.362994 
L 217.297798 39.120354 
z
" style="fill:#a7226e;stroke:#ffffff;stroke-width:0.48;"/>
    <path clip-path="url(#pa0b5c3d100)" d="M 219.818793 39.120354 
L 219.818793 43.362994 
L 224.061434 43.362994 
L 224.061434 39.120354 
z
" style="fill:#a7226e;stroke:#ffffff;stroke-width:0.48;"/>
    <path clip-path="url(#pa0b5c3d100)" d="M 226.58243 39.120354 
L 226.58243 43.362994 
L 230.82507 43.362994 
L 230.82507 39.120354 
z
" style="fill:#a7226e;stroke:#ffffff;stroke-width:0.48;"/>
    <path clip-path="url(#pa0b5c3d100)" d="M 233.346066 39.120354 
L 233.346066 43.362994 
L 237.588707 43.362994 
L 237.588707 39.120354 
z
" style="fill:#a7226e;stroke:#ffffff;stroke-width:0.48;"/>
    <path clip-path="url(#pa0b5c3d100)" d="M 240.109702 39.120354 
L 240.109702 43.362994 
L 244.352343 43.362994 
L 244.352343 39.120354 
z
" style="fill:#a7226e;stroke:#ffffff;stroke-width:0.48;"/>
    <path clip-path="url(#pa0b5c3d100)" d="M 246.873339 50.363014 
L 246.873339 54.605655 
L 251.115979 54.605655 
L 251.115979 50.363014 
z
" style="fill:#a7226e;stroke:#ffffff;stroke-width:0.48;"/>
    <path clip-path="url(#pa0b5c3d100)" d="M 253.636975 39.120354 
L 253.636975 43.362994 
L 257.879616 43.362994 
L 257.879616 39.120354 
z
" style="fill:#a7226e;stroke:#ffffff;stroke-width:0.48;"/>
    <path clip-path="url(#pa0b5c3d100)" d="M 260.400611 73.410469 
L 260.400611 77.65311 
L 264.643252 77.65311 
L 264.643252 73.410469 
z
" style="fill:#a7226e;stroke:#ffffff;stroke-width:0.48;"/>
    <path clip-path="url(#pa0b5c3d100)" d="M 267.164248 73.410469 
L 267.164248 77.65311 
L 271.406889 77.65311 
L 271.406889 73.410469 
z
" style="fill:#a7226e;stroke:#ffffff;stroke-width:0.48;"/>
    <path clip-path="url(#pa0b5c3d100)" d="M 273.927884 73.410469 
L 273.927884 77.65311 
L 278.170525 77.65311 
L 278.170525 73.410469 
z
" style="fill:#a7226e;stroke:#ffffff;stroke-width:0.48;"/>
    <path clip-path="url(#pa0b5c3d100)" d="M 280.691521 73.410469 
L 280.691521 77.65311 
L 284.934161 77.65311 
L 284.934161 73.410469 
z
" style="fill:#a7226e;stroke:#ffffff;stroke-width:0.48;"/>
    <path clip-path="url(#pa0b5c3d100)" d="M 287.455157 73.410469 
L 287.455157 77.65311 
L 291.697798 77.65311 
L 291.697798 73.410469 
z
" style="fill:#a7226e;stroke:#ffffff;stroke-width:0.48;"/>
    <path clip-path="url(#pa0b5c3d100)" d="M 294.218793 73.410469 
L 294.218793 77.65311 
L 298.461434 77.65311 
L 298.461434 73.410469 
z
" style="fill:#a7226e;stroke:#ffffff;stroke-width:0.48;"/>
    <path clip-path="url(#pa0b5c3d100)" d="M 300.98243 73.410469 
L 300.98243 77.65311 
L 305.22507 77.65311 
L 305.22507 73.410469 
z
" style="fill:#a7226e;stroke:#ffffff;stroke-width:0.48;"/>
    <path clip-path="url(#pa0b5c3d100)" d="M 307.746066 73.410469 
L 307.746066 77.65311 
L 311.988707 77.65311 
L 311.988707 73.410469 
z
" style="fill:#a7226e;stroke:#ffffff;stroke-width:0.48;"/>
    <path clip-path="url(#pa0b5c3d100)" d="M 314.509702 73.410469 
L 314.509702 77.65311 
L 318.752343 77.65311 
L 318.752343 73.410469 
z
" style="fill:#a7226e;stroke:#ffffff;stroke-width:0.48;"/>
    <path clip-path="url(#pa0b5c3d100)" d="M 321.273339 73.410469 
L 321.273339 77.65311 
L 325.515979 77.65311 
L 325.515979 73.410469 
z
" style="fill:#a7226e;stroke:#ffffff;stroke-width:0.48;"/>
    <path clip-path="url(#pa0b5c3d100)" d="M 328.036975 73.410469 
L 328.036975 77.65311 
L 332.279616 77.65311 
L 332.279616 73.410469 
z
" style="fill:#a7226e;stroke:#ffffff;stroke-width:0.48;"/>
    <path clip-path="url(#pa0b5c3d100)" d="M 334.800611 73.410469 
L 334.800611 77.65311 
L 339.043252 77.65311 
L 339.043252 73.410469 
z
" style="fill:#a7226e;stroke:#ffffff;stroke-width:0.48;"/>
    <path clip-path="url(#pa0b5c3d100)" d="M 341.564248 73.410469 
L 341.564248 77.65311 
L 345.806889 77.65311 
L 345.806889 73.410469 
z
" style="fill:#a7226e;stroke:#ffffff;stroke-width:0.48;"/>
    <path clip-path="url(#pa0b5c3d100)" d="M 348.327884 73.410469 
L 348.327884 77.65311 
L 352.570525 77.65311 
L 352.570525 73.410469 
z
" style="fill:#a7226e;stroke:#ffffff;stroke-width:0.48;"/>
    <path clip-path="url(#pa0b5c3d100)" d="M 355.091521 73.410469 
L 355.091521 77.65311 
L 359.334161 77.65311 
L 359.334161 73.410469 
z
" style="fill:#a7226e;stroke:#ffffff;stroke-width:0.48;"/>
    <path clip-path="url(#pa0b5c3d100)" d="M 361.855157 73.410469 
L 361.855157 77.65311 
L 366.097798 77.65311 
L 366.097798 73.410469 
z
" style="fill:#a7226e;stroke:#ffffff;stroke-width:0.48;"/>
    <path clip-path="url(#pa0b5c3d100)" d="M 368.618793 73.410469 
L 368.618793 77.65311 
L 372.861434 77.65311 
L 372.861434 73.410469 
z
" style="fill:#a7226e;stroke:#ffffff;stroke-width:0.48;"/>
    <path clip-path="url(#pa0b5c3d100)" d="M 375.38243 73.410469 
L 375.38243 77.65311 
L 379.62507 77.65311 
L 379.62507 73.410469 
z
" style="fill:#a7226e;stroke:#ffffff;stroke-width:0.48;"/>
    <path clip-path="url(#pa0b5c3d100)" d="M 382.146066 73.410469 
L 382.146066 77.65311 
L 386.388707 77.65311 
L 386.388707 73.410469 
z
" style="fill:#a7226e;stroke:#ffffff;stroke-width:0.48;"/>
    <path clip-path="url(#pa0b5c3d100)" d="M 388.909702 73.410469 
L 388.909702 77.65311 
L 393.152343 77.65311 
L 393.152343 73.410469 
z
" style="fill:#a7226e;stroke:#ffffff;stroke-width:0.48;"/>
   </g>
   <g id="PathCollection_2"/>
   <g id="PathCollection_3"/>
   <g id="PathCollection_4"/>
   <g id="matplotlib.axis_1">
    <g id="xtick_1">
     <g id="line2d_1">
      <defs>
       <path d="M 0 0 
L 0 3.5 
" id="mcd596bdee7" style="stroke:#000000;stroke-width:0.8;"/>
      </defs>
      <g>
       <use style="stroke:#000000;stroke-width:0.8;" x="59.612841" xlink:href="#mcd596bdee7" y="273.312"/>
      </g>
     </g>
     <g id="text_1">
      <!-- 0.0 -->
      <g transform="translate(51.661278 287.910438)scale(0.1 -0.1)">
       <defs>
        <path d="M 31.78125 66.40625 
Q 24.171875 66.40625 20.328125 58.90625 
Q 16.5 51.421875 16.5 36.375 
Q 16.5 21.390625 20.328125 13.890625 
Q 24.171875 6.390625 31.78125 6.390625 
Q 39.453125 6.390625 43.28125 13.890625 
Q 47.125 21.390625 47.125 36.375 
Q 47.125 51.421875 43.28125 58.90625 
Q 39.453125 66.40625 31.78125 66.40625 
z
M 31.78125 74.21875 
Q 44.046875 74.21875 50.515625 64.515625 
Q 56.984375 54.828125 56.984375 36.375 
Q 56.984375 17.96875 50.515625 8.265625 
Q 44.046875 -1.421875 31.78125 -1.421875 
Q 19.53125 -1.421875 13.0625 8.265625 
Q 6.59375 17.96875 6.59375 36.375 
Q 6.59375 54.828125 13.0625 64.515625 
Q 19.53125 74.21875 31.78125 74.21875 
z
" id="DejaVuSans-48"/>
        <path d="M 10.6875 12.40625 
L 21 12.40625 
L 21 0 
L 10.6875 0 
z
" id="DejaVuSans-46"/>
       </defs>
       <use xlink:href="#DejaVuSans-48"/>
       <use x="63.623047" xlink:href="#DejaVuSans-46"/>
       <use x="95.410156" xlink:href="#DejaVuSans-48"/>
      </g>
     </g>
    </g>
    <g id="xtick_2">
     <g id="line2d_2">
      <g>
       <use style="stroke:#000000;stroke-width:0.8;" x="127.249205" xlink:href="#mcd596bdee7" y="273.312"/>
      </g>
     </g>
     <g id="text_2">
      <!-- 0.2 -->
      <g transform="translate(119.297642 287.910438)scale(0.1 -0.1)">
       <defs>
        <path d="M 19.1875 8.296875 
L 53.609375 8.296875 
L 53.609375 0 
L 7.328125 0 
L 7.328125 8.296875 
Q 12.9375 14.109375 22.625 23.890625 
Q 32.328125 33.6875 34.8125 36.53125 
Q 39.546875 41.84375 41.421875 45.53125 
Q 43.3125 49.21875 43.3125 52.78125 
Q 43.3125 58.59375 39.234375 62.25 
Q 35.15625 65.921875 28.609375 65.921875 
Q 23.96875 65.921875 18.8125 64.3125 
Q 13.671875 62.703125 7.8125 59.421875 
L 7.8125 69.390625 
Q 13.765625 71.78125 18.9375 73 
Q 24.125 74.21875 28.421875 74.21875 
Q 39.75 74.21875 46.484375 68.546875 
Q 53.21875 62.890625 53.21875 53.421875 
Q 53.21875 48.921875 51.53125 44.890625 
Q 49.859375 40.875 45.40625 35.40625 
Q 44.1875 33.984375 37.640625 27.21875 
Q 31.109375 20.453125 19.1875 8.296875 
z
" id="DejaVuSans-50"/>
       </defs>
       <use xlink:href="#DejaVuSans-48"/>
       <use x="63.623047" xlink:href="#DejaVuSans-46"/>
       <use x="95.410156" xlink:href="#DejaVuSans-50"/>
      </g>
     </g>
    </g>
    <g id="xtick_3">
     <g id="line2d_3">
      <g>
       <use style="stroke:#000000;stroke-width:0.8;" x="194.885568" xlink:href="#mcd596bdee7" y="273.312"/>
      </g>
     </g>
     <g id="text_3">
      <!-- 0.4 -->
      <g transform="translate(186.934006 287.910438)scale(0.1 -0.1)">
       <defs>
        <path d="M 37.796875 64.3125 
L 12.890625 25.390625 
L 37.796875 25.390625 
z
M 35.203125 72.90625 
L 47.609375 72.90625 
L 47.609375 25.390625 
L 58.015625 25.390625 
L 58.015625 17.1875 
L 47.609375 17.1875 
L 47.609375 0 
L 37.796875 0 
L 37.796875 17.1875 
L 4.890625 17.1875 
L 4.890625 26.703125 
z
" id="DejaVuSans-52"/>
       </defs>
       <use xlink:href="#DejaVuSans-48"/>
       <use x="63.623047" xlink:href="#DejaVuSans-46"/>
       <use x="95.410156" xlink:href="#DejaVuSans-52"/>
      </g>
     </g>
    </g>
    <g id="xtick_4">
     <g id="line2d_4">
      <g>
       <use style="stroke:#000000;stroke-width:0.8;" x="262.521932" xlink:href="#mcd596bdee7" y="273.312"/>
      </g>
     </g>
     <g id="text_4">
      <!-- 0.6 -->
      <g transform="translate(254.570369 287.910438)scale(0.1 -0.1)">
       <defs>
        <path d="M 33.015625 40.375 
Q 26.375 40.375 22.484375 35.828125 
Q 18.609375 31.296875 18.609375 23.390625 
Q 18.609375 15.53125 22.484375 10.953125 
Q 26.375 6.390625 33.015625 6.390625 
Q 39.65625 6.390625 43.53125 10.953125 
Q 47.40625 15.53125 47.40625 23.390625 
Q 47.40625 31.296875 43.53125 35.828125 
Q 39.65625 40.375 33.015625 40.375 
z
M 52.59375 71.296875 
L 52.59375 62.3125 
Q 48.875 64.0625 45.09375 64.984375 
Q 41.3125 65.921875 37.59375 65.921875 
Q 27.828125 65.921875 22.671875 59.328125 
Q 17.53125 52.734375 16.796875 39.40625 
Q 19.671875 43.65625 24.015625 45.921875 
Q 28.375 48.1875 33.59375 48.1875 
Q 44.578125 48.1875 50.953125 41.515625 
Q 57.328125 34.859375 57.328125 23.390625 
Q 57.328125 12.15625 50.6875 5.359375 
Q 44.046875 -1.421875 33.015625 -1.421875 
Q 20.359375 -1.421875 13.671875 8.265625 
Q 6.984375 17.96875 6.984375 36.375 
Q 6.984375 53.65625 15.1875 63.9375 
Q 23.390625 74.21875 37.203125 74.21875 
Q 40.921875 74.21875 44.703125 73.484375 
Q 48.484375 72.75 52.59375 71.296875 
z
" id="DejaVuSans-54"/>
       </defs>
       <use xlink:href="#DejaVuSans-48"/>
       <use x="63.623047" xlink:href="#DejaVuSans-46"/>
       <use x="95.410156" xlink:href="#DejaVuSans-54"/>
      </g>
     </g>
    </g>
    <g id="xtick_5">
     <g id="line2d_5">
      <g>
       <use style="stroke:#000000;stroke-width:0.8;" x="330.158295" xlink:href="#mcd596bdee7" y="273.312"/>
      </g>
     </g>
     <g id="text_5">
      <!-- 0.8 -->
      <g transform="translate(322.206733 287.910438)scale(0.1 -0.1)">
       <defs>
        <path d="M 31.78125 34.625 
Q 24.75 34.625 20.71875 30.859375 
Q 16.703125 27.09375 16.703125 20.515625 
Q 16.703125 13.921875 20.71875 10.15625 
Q 24.75 6.390625 31.78125 6.390625 
Q 38.8125 6.390625 42.859375 10.171875 
Q 46.921875 13.96875 46.921875 20.515625 
Q 46.921875 27.09375 42.890625 30.859375 
Q 38.875 34.625 31.78125 34.625 
z
M 21.921875 38.8125 
Q 15.578125 40.375 12.03125 44.71875 
Q 8.5 49.078125 8.5 55.328125 
Q 8.5 64.0625 14.71875 69.140625 
Q 20.953125 74.21875 31.78125 74.21875 
Q 42.671875 74.21875 48.875 69.140625 
Q 55.078125 64.0625 55.078125 55.328125 
Q 55.078125 49.078125 51.53125 44.71875 
Q 48 40.375 41.703125 38.8125 
Q 48.828125 37.15625 52.796875 32.3125 
Q 56.78125 27.484375 56.78125 20.515625 
Q 56.78125 9.90625 50.3125 4.234375 
Q 43.84375 -1.421875 31.78125 -1.421875 
Q 19.734375 -1.421875 13.25 4.234375 
Q 6.78125 9.90625 6.78125 20.515625 
Q 6.78125 27.484375 10.78125 32.3125 
Q 14.796875 37.15625 21.921875 38.8125 
z
M 18.3125 54.390625 
Q 18.3125 48.734375 21.84375 45.5625 
Q 25.390625 42.390625 31.78125 42.390625 
Q 38.140625 42.390625 41.71875 45.5625 
Q 45.3125 48.734375 45.3125 54.390625 
Q 45.3125 60.0625 41.71875 63.234375 
Q 38.140625 66.40625 31.78125 66.40625 
Q 25.390625 66.40625 21.84375 63.234375 
Q 18.3125 60.0625 18.3125 54.390625 
z
" id="DejaVuSans-56"/>
       </defs>
       <use xlink:href="#DejaVuSans-48"/>
       <use x="63.623047" xlink:href="#DejaVuSans-46"/>
       <use x="95.410156" xlink:href="#DejaVuSans-56"/>
      </g>
     </g>
    </g>
    <g id="xtick_6">
     <g id="line2d_6">
      <g>
       <use style="stroke:#000000;stroke-width:0.8;" x="397.794659" xlink:href="#mcd596bdee7" y="273.312"/>
      </g>
     </g>
     <g id="text_6">
      <!-- 1.0 -->
      <g transform="translate(389.843097 287.910438)scale(0.1 -0.1)">
       <defs>
        <path d="M 12.40625 8.296875 
L 28.515625 8.296875 
L 28.515625 63.921875 
L 10.984375 60.40625 
L 10.984375 69.390625 
L 28.421875 72.90625 
L 38.28125 72.90625 
L 38.28125 8.296875 
L 54.390625 8.296875 
L 54.390625 0 
L 12.40625 0 
z
" id="DejaVuSans-49"/>
       </defs>
       <use xlink:href="#DejaVuSans-49"/>
       <use x="63.623047" xlink:href="#DejaVuSans-46"/>
       <use x="95.410156" xlink:href="#DejaVuSans-48"/>
      </g>
     </g>
    </g>
    <g id="text_7">
     <!-- cutoff -->
     <g transform="translate(214.245938 301.588562)scale(0.1 -0.1)">
      <defs>
       <path d="M 48.78125 52.59375 
L 48.78125 44.1875 
Q 44.96875 46.296875 41.140625 47.34375 
Q 37.3125 48.390625 33.40625 48.390625 
Q 24.65625 48.390625 19.8125 42.84375 
Q 14.984375 37.3125 14.984375 27.296875 
Q 14.984375 17.28125 19.8125 11.734375 
Q 24.65625 6.203125 33.40625 6.203125 
Q 37.3125 6.203125 41.140625 7.25 
Q 44.96875 8.296875 48.78125 10.40625 
L 48.78125 2.09375 
Q 45.015625 0.34375 40.984375 -0.53125 
Q 36.96875 -1.421875 32.421875 -1.421875 
Q 20.0625 -1.421875 12.78125 6.34375 
Q 5.515625 14.109375 5.515625 27.296875 
Q 5.515625 40.671875 12.859375 48.328125 
Q 20.21875 56 33.015625 56 
Q 37.15625 56 41.109375 55.140625 
Q 45.0625 54.296875 48.78125 52.59375 
z
" id="DejaVuSans-99"/>
       <path d="M 8.5 21.578125 
L 8.5 54.6875 
L 17.484375 54.6875 
L 17.484375 21.921875 
Q 17.484375 14.15625 20.5 10.265625 
Q 23.53125 6.390625 29.59375 6.390625 
Q 36.859375 6.390625 41.078125 11.03125 
Q 45.3125 15.671875 45.3125 23.6875 
L 45.3125 54.6875 
L 54.296875 54.6875 
L 54.296875 0 
L 45.3125 0 
L 45.3125 8.40625 
Q 42.046875 3.421875 37.71875 1 
Q 33.40625 -1.421875 27.6875 -1.421875 
Q 18.265625 -1.421875 13.375 4.4375 
Q 8.5 10.296875 8.5 21.578125 
z
M 31.109375 56 
z
" id="DejaVuSans-117"/>
       <path d="M 18.3125 70.21875 
L 18.3125 54.6875 
L 36.8125 54.6875 
L 36.8125 47.703125 
L 18.3125 47.703125 
L 18.3125 18.015625 
Q 18.3125 11.328125 20.140625 9.421875 
Q 21.96875 7.515625 27.59375 7.515625 
L 36.8125 7.515625 
L 36.8125 0 
L 27.59375 0 
Q 17.1875 0 13.234375 3.875 
Q 9.28125 7.765625 9.28125 18.015625 
L 9.28125 47.703125 
L 2.6875 47.703125 
L 2.6875 54.6875 
L 9.28125 54.6875 
L 9.28125 70.21875 
z
" id="DejaVuSans-116"/>
       <path d="M 30.609375 48.390625 
Q 23.390625 48.390625 19.1875 42.75 
Q 14.984375 37.109375 14.984375 27.296875 
Q 14.984375 17.484375 19.15625 11.84375 
Q 23.34375 6.203125 30.609375 6.203125 
Q 37.796875 6.203125 41.984375 11.859375 
Q 46.1875 17.53125 46.1875 27.296875 
Q 46.1875 37.015625 41.984375 42.703125 
Q 37.796875 48.390625 30.609375 48.390625 
z
M 30.609375 56 
Q 42.328125 56 49.015625 48.375 
Q 55.71875 40.765625 55.71875 27.296875 
Q 55.71875 13.875 49.015625 6.21875 
Q 42.328125 -1.421875 30.609375 -1.421875 
Q 18.84375 -1.421875 12.171875 6.21875 
Q 5.515625 13.875 5.515625 27.296875 
Q 5.515625 40.765625 12.171875 48.375 
Q 18.84375 56 30.609375 56 
z
" id="DejaVuSans-111"/>
       <path d="M 37.109375 75.984375 
L 37.109375 68.5 
L 28.515625 68.5 
Q 23.6875 68.5 21.796875 66.546875 
Q 19.921875 64.59375 19.921875 59.515625 
L 19.921875 54.6875 
L 34.71875 54.6875 
L 34.71875 47.703125 
L 19.921875 47.703125 
L 19.921875 0 
L 10.890625 0 
L 10.890625 47.703125 
L 2.296875 47.703125 
L 2.296875 54.6875 
L 10.890625 54.6875 
L 10.890625 58.5 
Q 10.890625 67.625 15.140625 71.796875 
Q 19.390625 75.984375 28.609375 75.984375 
z
" id="DejaVuSans-102"/>
      </defs>
      <use xlink:href="#DejaVuSans-99"/>
      <use x="54.980469" xlink:href="#DejaVuSans-117"/>
      <use x="118.359375" xlink:href="#DejaVuSans-116"/>
      <use x="157.568359" xlink:href="#DejaVuSans-111"/>
      <use x="218.75" xlink:href="#DejaVuSans-102"/>
      <use x="253.955078" xlink:href="#DejaVuSans-102"/>
     </g>
    </g>
   </g>
   <g id="matplotlib.axis_2">
    <g id="ytick_1">
     <g id="line2d_7">
      <defs>
       <path d="M 0 0 
L -3.5 0 
" id="md40b0efb18" style="stroke:#000000;stroke-width:0.8;"/>
      </defs>
      <g>
       <use style="stroke:#000000;stroke-width:0.8;" x="50.14375" xlink:href="#md40b0efb18" y="244.916698"/>
      </g>
     </g>
     <g id="text_8">
      <!-- 0.45 -->
      <g transform="translate(20.878125 248.715916)scale(0.1 -0.1)">
       <defs>
        <path d="M 10.796875 72.90625 
L 49.515625 72.90625 
L 49.515625 64.59375 
L 19.828125 64.59375 
L 19.828125 46.734375 
Q 21.96875 47.46875 24.109375 47.828125 
Q 26.265625 48.1875 28.421875 48.1875 
Q 40.625 48.1875 47.75 41.5 
Q 54.890625 34.8125 54.890625 23.390625 
Q 54.890625 11.625 47.5625 5.09375 
Q 40.234375 -1.421875 26.90625 -1.421875 
Q 22.3125 -1.421875 17.546875 -0.640625 
Q 12.796875 0.140625 7.71875 1.703125 
L 7.71875 11.625 
Q 12.109375 9.234375 16.796875 8.0625 
Q 21.484375 6.890625 26.703125 6.890625 
Q 35.15625 6.890625 40.078125 11.328125 
Q 45.015625 15.765625 45.015625 23.390625 
Q 45.015625 31 40.078125 35.4375 
Q 35.15625 39.890625 26.703125 39.890625 
Q 22.75 39.890625 18.8125 39.015625 
Q 14.890625 38.140625 10.796875 36.28125 
z
" id="DejaVuSans-53"/>
       </defs>
       <use xlink:href="#DejaVuSans-48"/>
       <use x="63.623047" xlink:href="#DejaVuSans-46"/>
       <use x="95.410156" xlink:href="#DejaVuSans-52"/>
       <use x="159.033203" xlink:href="#DejaVuSans-53"/>
      </g>
     </g>
    </g>
    <g id="ytick_2">
     <g id="line2d_8">
      <g>
       <use style="stroke:#000000;stroke-width:0.8;" x="50.14375" xlink:href="#md40b0efb18" y="194.101225"/>
      </g>
     </g>
     <g id="text_9">
      <!-- 0.50 -->
      <g transform="translate(20.878125 197.900444)scale(0.1 -0.1)">
       <use xlink:href="#DejaVuSans-48"/>
       <use x="63.623047" xlink:href="#DejaVuSans-46"/>
       <use x="95.410156" xlink:href="#DejaVuSans-53"/>
       <use x="159.033203" xlink:href="#DejaVuSans-48"/>
      </g>
     </g>
    </g>
    <g id="ytick_3">
     <g id="line2d_9">
      <g>
       <use style="stroke:#000000;stroke-width:0.8;" x="50.14375" xlink:href="#md40b0efb18" y="143.285753"/>
      </g>
     </g>
     <g id="text_10">
      <!-- 0.55 -->
      <g transform="translate(20.878125 147.084971)scale(0.1 -0.1)">
       <use xlink:href="#DejaVuSans-48"/>
       <use x="63.623047" xlink:href="#DejaVuSans-46"/>
       <use x="95.410156" xlink:href="#DejaVuSans-53"/>
       <use x="159.033203" xlink:href="#DejaVuSans-53"/>
      </g>
     </g>
    </g>
    <g id="ytick_4">
     <g id="line2d_10">
      <g>
       <use style="stroke:#000000;stroke-width:0.8;" x="50.14375" xlink:href="#md40b0efb18" y="92.47028"/>
      </g>
     </g>
     <g id="text_11">
      <!-- 0.60 -->
      <g transform="translate(20.878125 96.269499)scale(0.1 -0.1)">
       <use xlink:href="#DejaVuSans-48"/>
       <use x="63.623047" xlink:href="#DejaVuSans-46"/>
       <use x="95.410156" xlink:href="#DejaVuSans-54"/>
       <use x="159.033203" xlink:href="#DejaVuSans-48"/>
      </g>
     </g>
    </g>
    <g id="ytick_5">
     <g id="line2d_11">
      <g>
       <use style="stroke:#000000;stroke-width:0.8;" x="50.14375" xlink:href="#md40b0efb18" y="41.654808"/>
      </g>
     </g>
     <g id="text_12">
      <!-- 0.65 -->
      <g transform="translate(20.878125 45.454027)scale(0.1 -0.1)">
       <use xlink:href="#DejaVuSans-48"/>
       <use x="63.623047" xlink:href="#DejaVuSans-46"/>
       <use x="95.410156" xlink:href="#DejaVuSans-54"/>
       <use x="159.033203" xlink:href="#DejaVuSans-53"/>
      </g>
     </g>
    </g>
    <g id="text_13">
     <!-- performance -->
     <g transform="translate(14.798438 172.278656)rotate(-90)scale(0.1 -0.1)">
      <defs>
       <path d="M 18.109375 8.203125 
L 18.109375 -20.796875 
L 9.078125 -20.796875 
L 9.078125 54.6875 
L 18.109375 54.6875 
L 18.109375 46.390625 
Q 20.953125 51.265625 25.265625 53.625 
Q 29.59375 56 35.59375 56 
Q 45.5625 56 51.78125 48.09375 
Q 58.015625 40.1875 58.015625 27.296875 
Q 58.015625 14.40625 51.78125 6.484375 
Q 45.5625 -1.421875 35.59375 -1.421875 
Q 29.59375 -1.421875 25.265625 0.953125 
Q 20.953125 3.328125 18.109375 8.203125 
z
M 48.6875 27.296875 
Q 48.6875 37.203125 44.609375 42.84375 
Q 40.53125 48.484375 33.40625 48.484375 
Q 26.265625 48.484375 22.1875 42.84375 
Q 18.109375 37.203125 18.109375 27.296875 
Q 18.109375 17.390625 22.1875 11.75 
Q 26.265625 6.109375 33.40625 6.109375 
Q 40.53125 6.109375 44.609375 11.75 
Q 48.6875 17.390625 48.6875 27.296875 
z
" id="DejaVuSans-112"/>
       <path d="M 56.203125 29.59375 
L 56.203125 25.203125 
L 14.890625 25.203125 
Q 15.484375 15.921875 20.484375 11.0625 
Q 25.484375 6.203125 34.421875 6.203125 
Q 39.59375 6.203125 44.453125 7.46875 
Q 49.3125 8.734375 54.109375 11.28125 
L 54.109375 2.78125 
Q 49.265625 0.734375 44.1875 -0.34375 
Q 39.109375 -1.421875 33.890625 -1.421875 
Q 20.796875 -1.421875 13.15625 6.1875 
Q 5.515625 13.8125 5.515625 26.8125 
Q 5.515625 40.234375 12.765625 48.109375 
Q 20.015625 56 32.328125 56 
Q 43.359375 56 49.78125 48.890625 
Q 56.203125 41.796875 56.203125 29.59375 
z
M 47.21875 32.234375 
Q 47.125 39.59375 43.09375 43.984375 
Q 39.0625 48.390625 32.421875 48.390625 
Q 24.90625 48.390625 20.390625 44.140625 
Q 15.875 39.890625 15.1875 32.171875 
z
" id="DejaVuSans-101"/>
       <path d="M 41.109375 46.296875 
Q 39.59375 47.171875 37.8125 47.578125 
Q 36.03125 48 33.890625 48 
Q 26.265625 48 22.1875 43.046875 
Q 18.109375 38.09375 18.109375 28.8125 
L 18.109375 0 
L 9.078125 0 
L 9.078125 54.6875 
L 18.109375 54.6875 
L 18.109375 46.1875 
Q 20.953125 51.171875 25.484375 53.578125 
Q 30.03125 56 36.53125 56 
Q 37.453125 56 38.578125 55.875 
Q 39.703125 55.765625 41.0625 55.515625 
z
" id="DejaVuSans-114"/>
       <path d="M 52 44.1875 
Q 55.375 50.25 60.0625 53.125 
Q 64.75 56 71.09375 56 
Q 79.640625 56 84.28125 50.015625 
Q 88.921875 44.046875 88.921875 33.015625 
L 88.921875 0 
L 79.890625 0 
L 79.890625 32.71875 
Q 79.890625 40.578125 77.09375 44.375 
Q 74.3125 48.1875 68.609375 48.1875 
Q 61.625 48.1875 57.5625 43.546875 
Q 53.515625 38.921875 53.515625 30.90625 
L 53.515625 0 
L 44.484375 0 
L 44.484375 32.71875 
Q 44.484375 40.625 41.703125 44.40625 
Q 38.921875 48.1875 33.109375 48.1875 
Q 26.21875 48.1875 22.15625 43.53125 
Q 18.109375 38.875 18.109375 30.90625 
L 18.109375 0 
L 9.078125 0 
L 9.078125 54.6875 
L 18.109375 54.6875 
L 18.109375 46.1875 
Q 21.1875 51.21875 25.484375 53.609375 
Q 29.78125 56 35.6875 56 
Q 41.65625 56 45.828125 52.96875 
Q 50 49.953125 52 44.1875 
z
" id="DejaVuSans-109"/>
       <path d="M 34.28125 27.484375 
Q 23.390625 27.484375 19.1875 25 
Q 14.984375 22.515625 14.984375 16.5 
Q 14.984375 11.71875 18.140625 8.90625 
Q 21.296875 6.109375 26.703125 6.109375 
Q 34.1875 6.109375 38.703125 11.40625 
Q 43.21875 16.703125 43.21875 25.484375 
L 43.21875 27.484375 
z
M 52.203125 31.203125 
L 52.203125 0 
L 43.21875 0 
L 43.21875 8.296875 
Q 40.140625 3.328125 35.546875 0.953125 
Q 30.953125 -1.421875 24.3125 -1.421875 
Q 15.921875 -1.421875 10.953125 3.296875 
Q 6 8.015625 6 15.921875 
Q 6 25.140625 12.171875 29.828125 
Q 18.359375 34.515625 30.609375 34.515625 
L 43.21875 34.515625 
L 43.21875 35.40625 
Q 43.21875 41.609375 39.140625 45 
Q 35.0625 48.390625 27.6875 48.390625 
Q 23 48.390625 18.546875 47.265625 
Q 14.109375 46.140625 10.015625 43.890625 
L 10.015625 52.203125 
Q 14.9375 54.109375 19.578125 55.046875 
Q 24.21875 56 28.609375 56 
Q 40.484375 56 46.34375 49.84375 
Q 52.203125 43.703125 52.203125 31.203125 
z
" id="DejaVuSans-97"/>
       <path d="M 54.890625 33.015625 
L 54.890625 0 
L 45.90625 0 
L 45.90625 32.71875 
Q 45.90625 40.484375 42.875 44.328125 
Q 39.84375 48.1875 33.796875 48.1875 
Q 26.515625 48.1875 22.3125 43.546875 
Q 18.109375 38.921875 18.109375 30.90625 
L 18.109375 0 
L 9.078125 0 
L 9.078125 54.6875 
L 18.109375 54.6875 
L 18.109375 46.1875 
Q 21.34375 51.125 25.703125 53.5625 
Q 30.078125 56 35.796875 56 
Q 45.21875 56 50.046875 50.171875 
Q 54.890625 44.34375 54.890625 33.015625 
z
" id="DejaVuSans-110"/>
      </defs>
      <use xlink:href="#DejaVuSans-112"/>
      <use x="63.476562" xlink:href="#DejaVuSans-101"/>
      <use x="125" xlink:href="#DejaVuSans-114"/>
      <use x="166.113281" xlink:href="#DejaVuSans-102"/>
      <use x="201.318359" xlink:href="#DejaVuSans-111"/>
      <use x="262.5" xlink:href="#DejaVuSans-114"/>
      <use x="301.863281" xlink:href="#DejaVuSans-109"/>
      <use x="399.275391" xlink:href="#DejaVuSans-97"/>
      <use x="460.554688" xlink:href="#DejaVuSans-110"/>
      <use x="523.933594" xlink:href="#DejaVuSans-99"/>
      <use x="578.914062" xlink:href="#DejaVuSans-101"/>
     </g>
    </g>
   </g>
   <g id="line2d_12">
    <path clip-path="url(#pa0b5c3d100)" d="M 66.376477 75.531789 
L 73.140114 63.912825 
L 79.90375 41.241674 
L 86.667386 41.241674 
L 93.431023 30.180346 
L 100.194659 63.912825 
L 106.958295 52.484335 
L 113.721932 52.484335 
L 120.485568 52.484335 
L 127.249205 52.484335 
L 134.012841 99.360514 
L 140.776477 99.360514 
L 147.540114 136.657648 
L 154.30375 136.657648 
L 161.067386 63.912825 
L 167.831023 99.360514 
L 174.594659 99.360514 
L 181.358295 99.360514 
L 188.121932 136.657648 
L 194.885568 99.360514 
L 201.649205 175.952842 
L 208.412841 175.952842 
L 215.176477 175.952842 
L 221.940114 175.952842 
L 228.70375 162.622614 
L 235.467386 136.657648 
L 242.231023 136.657648 
L 248.994659 136.657648 
L 255.758295 136.657648 
L 262.521932 136.657648 
L 269.285568 136.657648 
L 276.049205 136.657648 
L 282.812841 136.657648 
L 289.576477 136.657648 
L 296.340114 136.657648 
L 303.10375 136.657648 
L 309.867386 136.657648 
L 316.631023 136.657648 
L 323.394659 136.657648 
L 330.158295 136.657648 
L 336.921932 136.657648 
L 343.685568 136.657648 
L 350.449205 136.657648 
L 357.212841 136.657648 
L 363.976477 136.657648 
L 370.740114 136.657648 
L 377.50375 136.657648 
L 384.267386 136.657648 
L 391.031023 136.657648 
" style="fill:none;stroke:#f26b38;stroke-dasharray:7.4,3.2;stroke-dashoffset:0;stroke-width:2;"/>
   </g>
   <g id="line2d_13">
    <path clip-path="url(#pa0b5c3d100)" d="M 66.376477 175.952842 
L 73.140114 149.526249 
L 79.90375 149.526249 
L 86.667386 149.526249 
L 93.431023 149.526249 
L 100.194659 189.523255 
L 106.958295 189.523255 
L 113.721932 189.523255 
L 120.485568 189.523255 
L 127.249205 149.526249 
L 134.012841 136.657648 
L 140.776477 261.216 
L 147.540114 261.216 
L 154.30375 261.216 
L 161.067386 261.216 
L 167.831023 246.34143 
L 174.594659 217.411075 
L 181.358295 217.411075 
L 188.121932 217.411075 
L 194.885568 217.411075 
L 201.649205 217.411075 
L 208.412841 217.411075 
L 215.176477 217.411075 
L 221.940114 217.411075 
L 228.70375 217.411075 
L 235.467386 217.411075 
L 242.231023 217.411075 
L 248.994659 217.411075 
L 255.758295 217.411075 
L 262.521932 217.411075 
L 269.285568 217.411075 
L 276.049205 217.411075 
L 282.812841 217.411075 
L 289.576477 217.411075 
L 296.340114 217.411075 
L 303.10375 217.411075 
L 309.867386 217.411075 
L 316.631023 217.411075 
L 323.394659 217.411075 
L 330.158295 217.411075 
L 336.921932 217.411075 
L 343.685568 217.411075 
L 350.449205 217.411075 
L 357.212841 217.411075 
L 363.976477 217.411075 
L 370.740114 217.411075 
L 377.50375 217.411075 
L 384.267386 217.411075 
L 391.031023 217.411075 
" style="fill:none;stroke:#2f9599;stroke-dasharray:2,3.3;stroke-dashoffset:0;stroke-width:2;"/>
   </g>
   <g id="line2d_14">
    <path clip-path="url(#pa0b5c3d100)" d="M 66.376477 52.484335 
L 73.140114 52.484335 
L 79.90375 52.484335 
L 86.667386 52.484335 
L 93.431023 52.484335 
L 100.194659 63.912825 
L 106.958295 52.484335 
L 113.721932 52.484335 
L 120.485568 52.484335 
L 127.249205 19.296 
L 134.012841 19.296 
L 140.776477 30.180346 
L 147.540114 30.180346 
L 154.30375 30.180346 
L 161.067386 19.296 
L 167.831023 52.484335 
L 174.594659 52.484335 
L 181.358295 41.241674 
L 188.121932 41.241674 
L 194.885568 41.241674 
L 201.649205 41.241674 
L 208.412841 41.241674 
L 215.176477 41.241674 
L 221.940114 41.241674 
L 228.70375 41.241674 
L 235.467386 41.241674 
L 242.231023 41.241674 
L 248.994659 52.484335 
L 255.758295 41.241674 
L 262.521932 75.531789 
L 269.285568 75.531789 
L 276.049205 75.531789 
L 282.812841 75.531789 
L 289.576477 75.531789 
L 296.340114 75.531789 
L 303.10375 75.531789 
L 309.867386 75.531789 
L 316.631023 75.531789 
L 323.394659 75.531789 
L 330.158295 75.531789 
L 336.921932 75.531789 
L 343.685568 75.531789 
L 350.449205 75.531789 
L 357.212841 75.531789 
L 363.976477 75.531789 
L 370.740114 75.531789 
L 377.50375 75.531789 
L 384.267386 75.531789 
L 391.031023 75.531789 
" style="fill:none;stroke:#a7226e;stroke-dasharray:12.8,3.2,2,3.2;stroke-dashoffset:0;stroke-width:2;"/>
   </g>
   <g id="patch_3">
    <path d="M 50.14375 273.312 
L 50.14375 7.2 
" style="fill:none;stroke:#000000;stroke-linecap:square;stroke-linejoin:miter;stroke-width:0.8;"/>
   </g>
   <g id="patch_4">
    <path d="M 407.26375 273.312 
L 407.26375 7.2 
" style="fill:none;stroke:#000000;stroke-linecap:square;stroke-linejoin:miter;stroke-width:0.8;"/>
   </g>
   <g id="patch_5">
    <path d="M 50.14375 273.312 
L 407.26375 273.312 
" style="fill:none;stroke:#000000;stroke-linecap:square;stroke-linejoin:miter;stroke-width:0.8;"/>
   </g>
   <g id="patch_6">
    <path d="M 50.14375 7.2 
L 407.26375 7.2 
" style="fill:none;stroke:#000000;stroke-linecap:square;stroke-linejoin:miter;stroke-width:0.8;"/>
   </g>
   <g id="legend_1">
    <g id="patch_7">
     <path d="M 321.790059 43.890913 
L 402.40575 43.890913 
Q 403.79375 43.890913 403.79375 42.502913 
L 403.79375 12.058 
Q 403.79375 10.67 402.40575 10.67 
L 321.790059 10.67 
Q 320.402059 10.67 320.402059 12.058 
L 320.402059 42.502913 
Q 320.402059 43.890913 321.790059 43.890913 
z
" style="fill:#ffffff;opacity:0.8;stroke:#cccccc;stroke-linejoin:miter;"/>
    </g>
    <g id="PathCollection_5">
     <defs>
      <path d="M 0 3 
C 0.795609 3 1.55874 2.683901 2.12132 2.12132 
C 2.683901 1.55874 3 0.795609 3 0 
C 3 -0.795609 2.683901 -1.55874 2.12132 -2.12132 
C 1.55874 -2.683901 0.795609 -3 0 -3 
C -0.795609 -3 -1.55874 -2.683901 -2.12132 -2.12132 
C -2.683901 -1.55874 -3 -0.795609 -3 0 
C -3 0.795609 -2.683901 1.55874 -2.12132 2.12132 
C -1.55874 2.683901 -0.795609 3 0 3 
z
" id="m0ab0939a8b" style="stroke:#f26b38;"/>
     </defs>
     <g>
      <use style="fill:#f26b38;stroke:#f26b38;" x="330.118059" xlink:href="#m0ab0939a8b" y="16.897566"/>
     </g>
    </g>
    <g id="text_14">
     <!-- mean_err -->
     <g transform="translate(342.610059 18.719316)scale(0.0694 -0.0694)">
      <defs>
       <path d="M 50.984375 -16.609375 
L 50.984375 -23.578125 
L -0.984375 -23.578125 
L -0.984375 -16.609375 
z
" id="DejaVuSans-95"/>
      </defs>
      <use xlink:href="#DejaVuSans-109"/>
      <use x="97.412109" xlink:href="#DejaVuSans-101"/>
      <use x="158.935547" xlink:href="#DejaVuSans-97"/>
      <use x="220.214844" xlink:href="#DejaVuSans-110"/>
      <use x="283.59375" xlink:href="#DejaVuSans-95"/>
      <use x="333.59375" xlink:href="#DejaVuSans-101"/>
      <use x="395.117188" xlink:href="#DejaVuSans-114"/>
      <use x="434.480469" xlink:href="#DejaVuSans-114"/>
     </g>
    </g>
    <g id="PathCollection_6">
     <defs>
      <path d="M -1.5 3 
L 0 1.5 
L 1.5 3 
L 3 1.5 
L 1.5 0 
L 3 -1.5 
L 1.5 -3 
L 0 -1.5 
L -1.5 -3 
L -3 -1.5 
L -1.5 0 
L -3 1.5 
z
" id="m273576197f" style="stroke:#2f9599;"/>
     </defs>
     <g>
      <use style="fill:#2f9599;stroke:#2f9599;" x="330.118059" xlink:href="#m273576197f" y="27.277203"/>
     </g>
    </g>
    <g id="text_15">
     <!-- mean_sq_err -->
     <g transform="translate(342.610059 29.098953)scale(0.0694 -0.0694)">
      <defs>
       <path d="M 44.28125 53.078125 
L 44.28125 44.578125 
Q 40.484375 46.53125 36.375 47.5 
Q 32.28125 48.484375 27.875 48.484375 
Q 21.1875 48.484375 17.84375 46.4375 
Q 14.5 44.390625 14.5 40.28125 
Q 14.5 37.15625 16.890625 35.375 
Q 19.28125 33.59375 26.515625 31.984375 
L 29.59375 31.296875 
Q 39.15625 29.25 43.1875 25.515625 
Q 47.21875 21.78125 47.21875 15.09375 
Q 47.21875 7.46875 41.1875 3.015625 
Q 35.15625 -1.421875 24.609375 -1.421875 
Q 20.21875 -1.421875 15.453125 -0.5625 
Q 10.6875 0.296875 5.421875 2 
L 5.421875 11.28125 
Q 10.40625 8.6875 15.234375 7.390625 
Q 20.0625 6.109375 24.8125 6.109375 
Q 31.15625 6.109375 34.5625 8.28125 
Q 37.984375 10.453125 37.984375 14.40625 
Q 37.984375 18.0625 35.515625 20.015625 
Q 33.0625 21.96875 24.703125 23.78125 
L 21.578125 24.515625 
Q 13.234375 26.265625 9.515625 29.90625 
Q 5.8125 33.546875 5.8125 39.890625 
Q 5.8125 47.609375 11.28125 51.796875 
Q 16.75 56 26.8125 56 
Q 31.78125 56 36.171875 55.265625 
Q 40.578125 54.546875 44.28125 53.078125 
z
" id="DejaVuSans-115"/>
       <path d="M 14.796875 27.296875 
Q 14.796875 17.390625 18.875 11.75 
Q 22.953125 6.109375 30.078125 6.109375 
Q 37.203125 6.109375 41.296875 11.75 
Q 45.40625 17.390625 45.40625 27.296875 
Q 45.40625 37.203125 41.296875 42.84375 
Q 37.203125 48.484375 30.078125 48.484375 
Q 22.953125 48.484375 18.875 42.84375 
Q 14.796875 37.203125 14.796875 27.296875 
z
M 45.40625 8.203125 
Q 42.578125 3.328125 38.25 0.953125 
Q 33.9375 -1.421875 27.875 -1.421875 
Q 17.96875 -1.421875 11.734375 6.484375 
Q 5.515625 14.40625 5.515625 27.296875 
Q 5.515625 40.1875 11.734375 48.09375 
Q 17.96875 56 27.875 56 
Q 33.9375 56 38.25 53.625 
Q 42.578125 51.265625 45.40625 46.390625 
L 45.40625 54.6875 
L 54.390625 54.6875 
L 54.390625 -20.796875 
L 45.40625 -20.796875 
z
" id="DejaVuSans-113"/>
      </defs>
      <use xlink:href="#DejaVuSans-109"/>
      <use x="97.412109" xlink:href="#DejaVuSans-101"/>
      <use x="158.935547" xlink:href="#DejaVuSans-97"/>
      <use x="220.214844" xlink:href="#DejaVuSans-110"/>
      <use x="283.59375" xlink:href="#DejaVuSans-95"/>
      <use x="333.59375" xlink:href="#DejaVuSans-115"/>
      <use x="385.693359" xlink:href="#DejaVuSans-113"/>
      <use x="449.169922" xlink:href="#DejaVuSans-95"/>
      <use x="499.169922" xlink:href="#DejaVuSans-101"/>
      <use x="560.693359" xlink:href="#DejaVuSans-114"/>
      <use x="600.056641" xlink:href="#DejaVuSans-114"/>
     </g>
    </g>
    <g id="PathCollection_7">
     <defs>
      <path d="M -2.12132 -2.12132 
L -2.12132 2.12132 
L 2.12132 2.12132 
L 2.12132 -2.12132 
z
" id="mc8a250d2df" style="stroke:#a7226e;"/>
     </defs>
     <g>
      <use style="fill:#a7226e;stroke:#a7226e;" x="330.118059" xlink:href="#mc8a250d2df" y="37.656841"/>
     </g>
    </g>
    <g id="text_16">
     <!-- mean_sqroot_err -->
     <g transform="translate(342.610059 39.478591)scale(0.0694 -0.0694)">
      <use xlink:href="#DejaVuSans-109"/>
      <use x="97.412109" xlink:href="#DejaVuSans-101"/>
      <use x="158.935547" xlink:href="#DejaVuSans-97"/>
      <use x="220.214844" xlink:href="#DejaVuSans-110"/>
      <use x="283.59375" xlink:href="#DejaVuSans-95"/>
      <use x="333.59375" xlink:href="#DejaVuSans-115"/>
      <use x="385.693359" xlink:href="#DejaVuSans-113"/>
      <use x="449.169922" xlink:href="#DejaVuSans-114"/>
      <use x="488.033203" xlink:href="#DejaVuSans-111"/>
      <use x="549.214844" xlink:href="#DejaVuSans-111"/>
      <use x="610.396484" xlink:href="#DejaVuSans-116"/>
      <use x="649.605469" xlink:href="#DejaVuSans-95"/>
      <use x="699.605469" xlink:href="#DejaVuSans-101"/>
      <use x="761.128906" xlink:href="#DejaVuSans-114"/>
      <use x="800.492188" xlink:href="#DejaVuSans-114"/>
     </g>
    </g>
   </g>
  </g>
 </g>
 <defs>
  <clipPath id="pa0b5c3d100">
   <rect height="266.112" width="357.12" x="50.14375" y="7.2"/>
  </clipPath>
 </defs>
</svg>
