<?xml version="1.0" encoding="utf-8" standalone="no"?>
<!DOCTYPE svg PUBLIC "-//W3C//DTD SVG 1.1//EN"
  "http://www.w3.org/Graphics/SVG/1.1/DTD/svg11.dtd">
<!-- Created with matplotlib (https://matplotlib.org/) -->
<svg height="312.841947pt" version="1.1" viewBox="0 0 414.46375 312.841947" width="414.46375pt" xmlns="http://www.w3.org/2000/svg" xmlns:xlink="http://www.w3.org/1999/xlink">
 <metadata>
  <rdf:RDF xmlns:cc="http://creativecommons.org/ns#" xmlns:dc="http://purl.org/dc/elements/1.1/" xmlns:rdf="http://www.w3.org/1999/02/22-rdf-syntax-ns#">
   <cc:Work>
    <dc:type rdf:resource="http://purl.org/dc/dcmitype/StillImage"/>
    <dc:date>2022-04-11T14:25:19.635601</dc:date>
    <dc:format>image/svg+xml</dc:format>
    <dc:creator>
     <cc:Agent>
      <dc:title>Matplotlib v3.3.4, https://matplotlib.org/</dc:title>
     </cc:Agent>
    </dc:creator>
   </cc:Work>
  </rdf:RDF>
 </metadata>
 <defs>
  <style type="text/css">*{stroke-linecap:butt;stroke-linejoin:round;}</style>
 </defs>
 <g id="figure_1">
  <g id="patch_1">
   <path d="M 0 312.841947 
L 414.46375 312.841947 
L 414.46375 0 
L 0 0 
z
" style="fill:#ffffff;"/>
  </g>
  <g id="axes_1">
   <g id="patch_2">
    <path d="M 50.14375 275.285697 
L 407.26375 275.285697 
L 407.26375 9.173697 
L 50.14375 9.173697 
z
" style="fill:#ffffff;"/>
   </g>
   <g id="PathCollection_1">
    <path clip-path="url(#p2a8a878662)" d="M 66.376477 92.103889 
C 67.172087 92.103889 67.935217 91.78779 68.497798 91.22521 
C 69.060378 90.662629 69.376477 89.899499 69.376477 89.103889 
C 69.376477 88.30828 69.060378 87.54515 68.497798 86.982569 
C 67.935217 86.419988 67.172087 86.103889 66.376477 86.103889 
C 65.580868 86.103889 64.817738 86.419988 64.255157 86.982569 
C 63.692576 87.54515 63.376477 88.30828 63.376477 89.103889 
C 63.376477 89.899499 63.692576 90.662629 64.255157 91.22521 
C 64.817738 91.78779 65.580868 92.103889 66.376477 92.103889 
z
" style="fill:#f26b38;stroke:#ffffff;stroke-width:0.48;"/>
    <path clip-path="url(#p2a8a878662)" d="M 73.140114 116.302051 
C 73.935723 116.302051 74.698853 115.985953 75.261434 115.423372 
C 75.824015 114.860791 76.140114 114.097661 76.140114 113.302051 
C 76.140114 112.506442 75.824015 111.743312 75.261434 111.180731 
C 74.698853 110.61815 73.935723 110.302051 73.140114 110.302051 
C 72.344504 110.302051 71.581374 110.61815 71.018793 111.180731 
C 70.456213 111.743312 70.140114 112.506442 70.140114 113.302051 
C 70.140114 114.097661 70.456213 114.860791 71.018793 115.423372 
C 71.581374 115.985953 72.344504 116.302051 73.140114 116.302051 
z
" style="fill:#f26b38;stroke:#ffffff;stroke-width:0.48;"/>
    <path clip-path="url(#p2a8a878662)" d="M 79.90375 116.302051 
C 80.699359 116.302051 81.46249 115.985953 82.02507 115.423372 
C 82.587651 114.860791 82.90375 114.097661 82.90375 113.302051 
C 82.90375 112.506442 82.587651 111.743312 82.02507 111.180731 
C 81.46249 110.61815 80.699359 110.302051 79.90375 110.302051 
C 79.108141 110.302051 78.34501 110.61815 77.78243 111.180731 
C 77.219849 111.743312 76.90375 112.506442 76.90375 113.302051 
C 76.90375 114.097661 77.219849 114.860791 77.78243 115.423372 
C 78.34501 115.985953 79.108141 116.302051 79.90375 116.302051 
z
" style="fill:#f26b38;stroke:#ffffff;stroke-width:0.48;"/>
    <path clip-path="url(#p2a8a878662)" d="M 86.667386 116.302051 
C 87.462996 116.302051 88.226126 115.985953 88.788707 115.423372 
C 89.351287 114.860791 89.667386 114.097661 89.667386 113.302051 
C 89.667386 112.506442 89.351287 111.743312 88.788707 111.180731 
C 88.226126 110.61815 87.462996 110.302051 86.667386 110.302051 
C 85.871777 110.302051 85.108647 110.61815 84.546066 111.180731 
C 83.983485 111.743312 83.667386 112.506442 83.667386 113.302051 
C 83.667386 114.097661 83.983485 114.860791 84.546066 115.423372 
C 85.108647 115.985953 85.871777 116.302051 86.667386 116.302051 
z
" style="fill:#f26b38;stroke:#ffffff;stroke-width:0.48;"/>
    <path clip-path="url(#p2a8a878662)" d="M 93.431023 104.097761 
C 94.226632 104.097761 94.989762 103.781662 95.552343 103.219081 
C 96.114924 102.656501 96.431023 101.89337 96.431023 101.097761 
C 96.431023 100.302152 96.114924 99.539021 95.552343 98.976441 
C 94.989762 98.41386 94.226632 98.097761 93.431023 98.097761 
C 92.635413 98.097761 91.872283 98.41386 91.309702 98.976441 
C 90.747122 99.539021 90.431023 100.302152 90.431023 101.097761 
C 90.431023 101.89337 90.747122 102.656501 91.309702 103.219081 
C 91.872283 103.781662 92.635413 104.097761 93.431023 104.097761 
z
" style="fill:#f26b38;stroke:#ffffff;stroke-width:0.48;"/>
    <path clip-path="url(#p2a8a878662)" d="M 100.194659 141.364434 
C 100.990268 141.364434 101.753399 141.048335 102.315979 140.485754 
C 102.87856 139.923173 103.194659 139.160043 103.194659 138.364434 
C 103.194659 137.568824 102.87856 136.805694 102.315979 136.243113 
C 101.753399 135.680533 100.990268 135.364434 100.194659 135.364434 
C 99.39905 135.364434 98.635919 135.680533 98.073339 136.243113 
C 97.510758 136.805694 97.194659 137.568824 97.194659 138.364434 
C 97.194659 139.160043 97.510758 139.923173 98.073339 140.485754 
C 98.635919 141.048335 99.39905 141.364434 100.194659 141.364434 
z
" style="fill:#f26b38;stroke:#ffffff;stroke-width:0.48;"/>
    <path clip-path="url(#p2a8a878662)" d="M 106.958295 46.127381 
C 107.753905 46.127381 108.517035 45.811282 109.079616 45.248701 
C 109.642197 44.686121 109.958295 43.92299 109.958295 43.127381 
C 109.958295 42.331772 109.642197 41.568641 109.079616 41.006061 
C 108.517035 40.44348 107.753905 40.127381 106.958295 40.127381 
C 106.162686 40.127381 105.399556 40.44348 104.836975 41.006061 
C 104.274394 41.568641 103.958295 42.331772 103.958295 43.127381 
C 103.958295 43.92299 104.274394 44.686121 104.836975 45.248701 
C 105.399556 45.811282 106.162686 46.127381 106.958295 46.127381 
z
" style="fill:#f26b38;stroke:#ffffff;stroke-width:0.48;"/>
    <path clip-path="url(#p2a8a878662)" d="M 113.721932 46.127381 
C 114.517541 46.127381 115.280671 45.811282 115.843252 45.248701 
C 116.405833 44.686121 116.721932 43.92299 116.721932 43.127381 
C 116.721932 42.331772 116.405833 41.568641 115.843252 41.006061 
C 115.280671 40.44348 114.517541 40.127381 113.721932 40.127381 
C 112.926323 40.127381 112.163192 40.44348 111.600611 41.006061 
C 111.038031 41.568641 110.721932 42.331772 110.721932 43.127381 
C 110.721932 43.92299 111.038031 44.686121 111.600611 45.248701 
C 112.163192 45.811282 112.926323 46.127381 113.721932 46.127381 
z
" style="fill:#f26b38;stroke:#ffffff;stroke-width:0.48;"/>
    <path clip-path="url(#p2a8a878662)" d="M 120.485568 46.127381 
C 121.281177 46.127381 122.044308 45.811282 122.606889 45.248701 
C 123.169469 44.686121 123.485568 43.92299 123.485568 43.127381 
C 123.485568 42.331772 123.169469 41.568641 122.606889 41.006061 
C 122.044308 40.44348 121.281177 40.127381 120.485568 40.127381 
C 119.689959 40.127381 118.926829 40.44348 118.364248 41.006061 
C 117.801667 41.568641 117.485568 42.331772 117.485568 43.127381 
C 117.485568 43.92299 117.801667 44.686121 118.364248 45.248701 
C 118.926829 45.811282 119.689959 46.127381 120.485568 46.127381 
z
" style="fill:#f26b38;stroke:#ffffff;stroke-width:0.48;"/>
    <path clip-path="url(#p2a8a878662)" d="M 127.249205 46.127381 
C 128.044814 46.127381 128.807944 45.811282 129.370525 45.248701 
C 129.933106 44.686121 130.249205 43.92299 130.249205 43.127381 
C 130.249205 42.331772 129.933106 41.568641 129.370525 41.006061 
C 128.807944 40.44348 128.044814 40.127381 127.249205 40.127381 
C 126.453595 40.127381 125.690465 40.44348 125.127884 41.006061 
C 124.565303 41.568641 124.249205 42.331772 124.249205 43.127381 
C 124.249205 43.92299 124.565303 44.686121 125.127884 45.248701 
C 125.690465 45.811282 126.453595 46.127381 127.249205 46.127381 
z
" style="fill:#f26b38;stroke:#ffffff;stroke-width:0.48;"/>
    <path clip-path="url(#p2a8a878662)" d="M 134.012841 92.103889 
C 134.80845 92.103889 135.571581 91.78779 136.134161 91.22521 
C 136.696742 90.662629 137.012841 89.899499 137.012841 89.103889 
C 137.012841 88.30828 136.696742 87.54515 136.134161 86.982569 
C 135.571581 86.419988 134.80845 86.103889 134.012841 86.103889 
C 133.217232 86.103889 132.454101 86.419988 131.891521 86.982569 
C 131.32894 87.54515 131.012841 88.30828 131.012841 89.103889 
C 131.012841 89.899499 131.32894 90.662629 131.891521 91.22521 
C 132.454101 91.78779 133.217232 92.103889 134.012841 92.103889 
z
" style="fill:#f26b38;stroke:#ffffff;stroke-width:0.48;"/>
    <path clip-path="url(#p2a8a878662)" d="M 140.776477 92.103889 
C 141.572087 92.103889 142.335217 91.78779 142.897798 91.22521 
C 143.460378 90.662629 143.776477 89.899499 143.776477 89.103889 
C 143.776477 88.30828 143.460378 87.54515 142.897798 86.982569 
C 142.335217 86.419988 141.572087 86.103889 140.776477 86.103889 
C 139.980868 86.103889 139.217738 86.419988 138.655157 86.982569 
C 138.092576 87.54515 137.776477 88.30828 137.776477 89.103889 
C 137.776477 89.899499 138.092576 90.662629 138.655157 91.22521 
C 139.217738 91.78779 139.980868 92.103889 140.776477 92.103889 
z
" style="fill:#f26b38;stroke:#ffffff;stroke-width:0.48;"/>
    <path clip-path="url(#p2a8a878662)" d="M 147.540114 180.682483 
C 148.335723 180.682483 149.098853 180.366384 149.661434 179.803803 
C 150.224015 179.241223 150.540114 178.478092 150.540114 177.682483 
C 150.540114 176.886874 150.224015 176.123743 149.661434 175.561163 
C 149.098853 174.998582 148.335723 174.682483 147.540114 174.682483 
C 146.744504 174.682483 145.981374 174.998582 145.418793 175.561163 
C 144.856213 176.123743 144.540114 176.886874 144.540114 177.682483 
C 144.540114 178.478092 144.856213 179.241223 145.418793 179.803803 
C 145.981374 180.366384 146.744504 180.682483 147.540114 180.682483 
z
" style="fill:#f26b38;stroke:#ffffff;stroke-width:0.48;"/>
    <path clip-path="url(#p2a8a878662)" d="M 154.30375 180.682483 
C 155.099359 180.682483 155.86249 180.366384 156.42507 179.803803 
C 156.987651 179.241223 157.30375 178.478092 157.30375 177.682483 
C 157.30375 176.886874 156.987651 176.123743 156.42507 175.561163 
C 155.86249 174.998582 155.099359 174.682483 154.30375 174.682483 
C 153.508141 174.682483 152.74501 174.998582 152.18243 175.561163 
C 151.619849 176.123743 151.30375 176.886874 151.30375 177.682483 
C 151.30375 178.478092 151.619849 179.241223 152.18243 179.803803 
C 152.74501 180.366384 153.508141 180.682483 154.30375 180.682483 
z
" style="fill:#f26b38;stroke:#ffffff;stroke-width:0.48;"/>
    <path clip-path="url(#p2a8a878662)" d="M 161.067386 57.33174 
C 161.862996 57.33174 162.626126 57.015641 163.188707 56.453061 
C 163.751287 55.89048 164.067386 55.12735 164.067386 54.33174 
C 164.067386 53.536131 163.751287 52.773001 163.188707 52.21042 
C 162.626126 51.647839 161.862996 51.33174 161.067386 51.33174 
C 160.271777 51.33174 159.508647 51.647839 158.946066 52.21042 
C 158.383485 52.773001 158.067386 53.536131 158.067386 54.33174 
C 158.067386 55.12735 158.383485 55.89048 158.946066 56.453061 
C 159.508647 57.015641 160.271777 57.33174 161.067386 57.33174 
z
" style="fill:#f26b38;stroke:#ffffff;stroke-width:0.48;"/>
    <path clip-path="url(#p2a8a878662)" d="M 167.831023 92.103889 
C 168.626632 92.103889 169.389762 91.78779 169.952343 91.22521 
C 170.514924 90.662629 170.831023 89.899499 170.831023 89.103889 
C 170.831023 88.30828 170.514924 87.54515 169.952343 86.982569 
C 169.389762 86.419988 168.626632 86.103889 167.831023 86.103889 
C 167.035413 86.103889 166.272283 86.419988 165.709702 86.982569 
C 165.147122 87.54515 164.831023 88.30828 164.831023 89.103889 
C 164.831023 89.899499 165.147122 90.662629 165.709702 91.22521 
C 166.272283 91.78779 167.035413 92.103889 167.831023 92.103889 
z
" style="fill:#f26b38;stroke:#ffffff;stroke-width:0.48;"/>
    <path clip-path="url(#p2a8a878662)" d="M 174.594659 92.103889 
C 175.390268 92.103889 176.153399 91.78779 176.715979 91.22521 
C 177.27856 90.662629 177.594659 89.899499 177.594659 89.103889 
C 177.594659 88.30828 177.27856 87.54515 176.715979 86.982569 
C 176.153399 86.419988 175.390268 86.103889 174.594659 86.103889 
C 173.79905 86.103889 173.035919 86.419988 172.473339 86.982569 
C 171.910758 87.54515 171.594659 88.30828 171.594659 89.103889 
C 171.594659 89.899499 171.910758 90.662629 172.473339 91.22521 
C 173.035919 91.78779 173.79905 92.103889 174.594659 92.103889 
z
" style="fill:#f26b38;stroke:#ffffff;stroke-width:0.48;"/>
    <path clip-path="url(#p2a8a878662)" d="M 181.358295 92.103889 
C 182.153905 92.103889 182.917035 91.78779 183.479616 91.22521 
C 184.042197 90.662629 184.358295 89.899499 184.358295 89.103889 
C 184.358295 88.30828 184.042197 87.54515 183.479616 86.982569 
C 182.917035 86.419988 182.153905 86.103889 181.358295 86.103889 
C 180.562686 86.103889 179.799556 86.419988 179.236975 86.982569 
C 178.674394 87.54515 178.358295 88.30828 178.358295 89.103889 
C 178.358295 89.899499 178.674394 90.662629 179.236975 91.22521 
C 179.799556 91.78779 180.562686 92.103889 181.358295 92.103889 
z
" style="fill:#f26b38;stroke:#ffffff;stroke-width:0.48;"/>
    <path clip-path="url(#p2a8a878662)" d="M 188.121932 141.364434 
C 188.917541 141.364434 189.680671 141.048335 190.243252 140.485754 
C 190.805833 139.923173 191.121932 139.160043 191.121932 138.364434 
C 191.121932 137.568824 190.805833 136.805694 190.243252 136.243113 
C 189.680671 135.680533 188.917541 135.364434 188.121932 135.364434 
C 187.326323 135.364434 186.563192 135.680533 186.000611 136.243113 
C 185.438031 136.805694 185.121932 137.568824 185.121932 138.364434 
C 185.121932 139.160043 185.438031 139.923173 186.000611 140.485754 
C 186.563192 141.048335 187.326323 141.364434 188.121932 141.364434 
z
" style="fill:#f26b38;stroke:#ffffff;stroke-width:0.48;"/>
    <path clip-path="url(#p2a8a878662)" d="M 194.885568 92.103889 
C 195.681177 92.103889 196.444308 91.78779 197.006889 91.22521 
C 197.569469 90.662629 197.885568 89.899499 197.885568 89.103889 
C 197.885568 88.30828 197.569469 87.54515 197.006889 86.982569 
C 196.444308 86.419988 195.681177 86.103889 194.885568 86.103889 
C 194.089959 86.103889 193.326829 86.419988 192.764248 86.982569 
C 192.201667 87.54515 191.885568 88.30828 191.885568 89.103889 
C 191.885568 89.899499 192.201667 90.662629 192.764248 91.22521 
C 193.326829 91.78779 194.089959 92.103889 194.885568 92.103889 
z
" style="fill:#f26b38;stroke:#ffffff;stroke-width:0.48;"/>
    <path clip-path="url(#p2a8a878662)" d="M 201.649205 141.364434 
C 202.444814 141.364434 203.207944 141.048335 203.770525 140.485754 
C 204.333106 139.923173 204.649205 139.160043 204.649205 138.364434 
C 204.649205 137.568824 204.333106 136.805694 203.770525 136.243113 
C 203.207944 135.680533 202.444814 135.364434 201.649205 135.364434 
C 200.853595 135.364434 200.090465 135.680533 199.527884 136.243113 
C 198.965303 136.805694 198.649205 137.568824 198.649205 138.364434 
C 198.649205 139.160043 198.965303 139.923173 199.527884 140.485754 
C 200.090465 141.048335 200.853595 141.364434 201.649205 141.364434 
z
" style="fill:#f26b38;stroke:#ffffff;stroke-width:0.48;"/>
    <path clip-path="url(#p2a8a878662)" d="M 208.412841 141.364434 
C 209.20845 141.364434 209.971581 141.048335 210.534161 140.485754 
C 211.096742 139.923173 211.412841 139.160043 211.412841 138.364434 
C 211.412841 137.568824 211.096742 136.805694 210.534161 136.243113 
C 209.971581 135.680533 209.20845 135.364434 208.412841 135.364434 
C 207.617232 135.364434 206.854101 135.680533 206.291521 136.243113 
C 205.72894 136.805694 205.412841 137.568824 205.412841 138.364434 
C 205.412841 139.160043 205.72894 139.923173 206.291521 140.485754 
C 206.854101 141.048335 207.617232 141.364434 208.412841 141.364434 
z
" style="fill:#f26b38;stroke:#ffffff;stroke-width:0.48;"/>
    <path clip-path="url(#p2a8a878662)" d="M 215.176477 141.364434 
C 215.972087 141.364434 216.735217 141.048335 217.297798 140.485754 
C 217.860378 139.923173 218.176477 139.160043 218.176477 138.364434 
C 218.176477 137.568824 217.860378 136.805694 217.297798 136.243113 
C 216.735217 135.680533 215.972087 135.364434 215.176477 135.364434 
C 214.380868 135.364434 213.617738 135.680533 213.055157 136.243113 
C 212.492576 136.805694 212.176477 137.568824 212.176477 138.364434 
C 212.176477 139.160043 212.492576 139.923173 213.055157 140.485754 
C 213.617738 141.048335 214.380868 141.364434 215.176477 141.364434 
z
" style="fill:#f26b38;stroke:#ffffff;stroke-width:0.48;"/>
    <path clip-path="url(#p2a8a878662)" d="M 221.940114 141.364434 
C 222.735723 141.364434 223.498853 141.048335 224.061434 140.485754 
C 224.624015 139.923173 224.940114 139.160043 224.940114 138.364434 
C 224.940114 137.568824 224.624015 136.805694 224.061434 136.243113 
C 223.498853 135.680533 222.735723 135.364434 221.940114 135.364434 
C 221.144504 135.364434 220.381374 135.680533 219.818793 136.243113 
C 219.256213 136.805694 218.940114 137.568824 218.940114 138.364434 
C 218.940114 139.160043 219.256213 139.923173 219.818793 140.485754 
C 220.381374 141.048335 221.144504 141.364434 221.940114 141.364434 
z
" style="fill:#f26b38;stroke:#ffffff;stroke-width:0.48;"/>
    <path clip-path="url(#p2a8a878662)" d="M 228.70375 167.338175 
C 229.499359 167.338175 230.26249 167.022076 230.82507 166.459496 
C 231.387651 165.896915 231.70375 165.133785 231.70375 164.338175 
C 231.70375 163.542566 231.387651 162.779436 230.82507 162.216855 
C 230.26249 161.654274 229.499359 161.338175 228.70375 161.338175 
C 227.908141 161.338175 227.14501 161.654274 226.58243 162.216855 
C 226.019849 162.779436 225.70375 163.542566 225.70375 164.338175 
C 225.70375 165.133785 226.019849 165.896915 226.58243 166.459496 
C 227.14501 167.022076 227.908141 167.338175 228.70375 167.338175 
z
" style="fill:#f26b38;stroke:#ffffff;stroke-width:0.48;"/>
    <path clip-path="url(#p2a8a878662)" d="M 235.467386 141.364434 
C 236.262996 141.364434 237.026126 141.048335 237.588707 140.485754 
C 238.151287 139.923173 238.467386 139.160043 238.467386 138.364434 
C 238.467386 137.568824 238.151287 136.805694 237.588707 136.243113 
C 237.026126 135.680533 236.262996 135.364434 235.467386 135.364434 
C 234.671777 135.364434 233.908647 135.680533 233.346066 136.243113 
C 232.783485 136.805694 232.467386 137.568824 232.467386 138.364434 
C 232.467386 139.160043 232.783485 139.923173 233.346066 140.485754 
C 233.908647 141.048335 234.671777 141.364434 235.467386 141.364434 
z
" style="fill:#f26b38;stroke:#ffffff;stroke-width:0.48;"/>
    <path clip-path="url(#p2a8a878662)" d="M 242.231023 141.364434 
C 243.026632 141.364434 243.789762 141.048335 244.352343 140.485754 
C 244.914924 139.923173 245.231023 139.160043 245.231023 138.364434 
C 245.231023 137.568824 244.914924 136.805694 244.352343 136.243113 
C 243.789762 135.680533 243.026632 135.364434 242.231023 135.364434 
C 241.435413 135.364434 240.672283 135.680533 240.109702 136.243113 
C 239.547122 136.805694 239.231023 137.568824 239.231023 138.364434 
C 239.231023 139.160043 239.547122 139.923173 240.109702 140.485754 
C 240.672283 141.048335 241.435413 141.364434 242.231023 141.364434 
z
" style="fill:#f26b38;stroke:#ffffff;stroke-width:0.48;"/>
    <path clip-path="url(#p2a8a878662)" d="M 248.994659 141.364434 
C 249.790268 141.364434 250.553399 141.048335 251.115979 140.485754 
C 251.67856 139.923173 251.994659 139.160043 251.994659 138.364434 
C 251.994659 137.568824 251.67856 136.805694 251.115979 136.243113 
C 250.553399 135.680533 249.790268 135.364434 248.994659 135.364434 
C 248.19905 135.364434 247.435919 135.680533 246.873339 136.243113 
C 246.310758 136.805694 245.994659 137.568824 245.994659 138.364434 
C 245.994659 139.160043 246.310758 139.923173 246.873339 140.485754 
C 247.435919 141.048335 248.19905 141.364434 248.994659 141.364434 
z
" style="fill:#f26b38;stroke:#ffffff;stroke-width:0.48;"/>
    <path clip-path="url(#p2a8a878662)" d="M 255.758295 141.364434 
C 256.553905 141.364434 257.317035 141.048335 257.879616 140.485754 
C 258.442197 139.923173 258.758295 139.160043 258.758295 138.364434 
C 258.758295 137.568824 258.442197 136.805694 257.879616 136.243113 
C 257.317035 135.680533 256.553905 135.364434 255.758295 135.364434 
C 254.962686 135.364434 254.199556 135.680533 253.636975 136.243113 
C 253.074394 136.805694 252.758295 137.568824 252.758295 138.364434 
C 252.758295 139.160043 253.074394 139.923173 253.636975 140.485754 
C 254.199556 141.048335 254.962686 141.364434 255.758295 141.364434 
z
" style="fill:#f26b38;stroke:#ffffff;stroke-width:0.48;"/>
    <path clip-path="url(#p2a8a878662)" d="M 262.521932 141.364434 
C 263.317541 141.364434 264.080671 141.048335 264.643252 140.485754 
C 265.205833 139.923173 265.521932 139.160043 265.521932 138.364434 
C 265.521932 137.568824 265.205833 136.805694 264.643252 136.243113 
C 264.080671 135.680533 263.317541 135.364434 262.521932 135.364434 
C 261.726323 135.364434 260.963192 135.680533 260.400611 136.243113 
C 259.838031 136.805694 259.521932 137.568824 259.521932 138.364434 
C 259.521932 139.160043 259.838031 139.923173 260.400611 140.485754 
C 260.963192 141.048335 261.726323 141.364434 262.521932 141.364434 
z
" style="fill:#f26b38;stroke:#ffffff;stroke-width:0.48;"/>
    <path clip-path="url(#p2a8a878662)" d="M 269.285568 141.364434 
C 270.081177 141.364434 270.844308 141.048335 271.406889 140.485754 
C 271.969469 139.923173 272.285568 139.160043 272.285568 138.364434 
C 272.285568 137.568824 271.969469 136.805694 271.406889 136.243113 
C 270.844308 135.680533 270.081177 135.364434 269.285568 135.364434 
C 268.489959 135.364434 267.726829 135.680533 267.164248 136.243113 
C 266.601667 136.805694 266.285568 137.568824 266.285568 138.364434 
C 266.285568 139.160043 266.601667 139.923173 267.164248 140.485754 
C 267.726829 141.048335 268.489959 141.364434 269.285568 141.364434 
z
" style="fill:#f26b38;stroke:#ffffff;stroke-width:0.48;"/>
    <path clip-path="url(#p2a8a878662)" d="M 276.049205 141.364434 
C 276.844814 141.364434 277.607944 141.048335 278.170525 140.485754 
C 278.733106 139.923173 279.049205 139.160043 279.049205 138.364434 
C 279.049205 137.568824 278.733106 136.805694 278.170525 136.243113 
C 277.607944 135.680533 276.844814 135.364434 276.049205 135.364434 
C 275.253595 135.364434 274.490465 135.680533 273.927884 136.243113 
C 273.365303 136.805694 273.049205 137.568824 273.049205 138.364434 
C 273.049205 139.160043 273.365303 139.923173 273.927884 140.485754 
C 274.490465 141.048335 275.253595 141.364434 276.049205 141.364434 
z
" style="fill:#f26b38;stroke:#ffffff;stroke-width:0.48;"/>
    <path clip-path="url(#p2a8a878662)" d="M 282.812841 141.364434 
C 283.60845 141.364434 284.371581 141.048335 284.934161 140.485754 
C 285.496742 139.923173 285.812841 139.160043 285.812841 138.364434 
C 285.812841 137.568824 285.496742 136.805694 284.934161 136.243113 
C 284.371581 135.680533 283.60845 135.364434 282.812841 135.364434 
C 282.017232 135.364434 281.254101 135.680533 280.691521 136.243113 
C 280.12894 136.805694 279.812841 137.568824 279.812841 138.364434 
C 279.812841 139.160043 280.12894 139.923173 280.691521 140.485754 
C 281.254101 141.048335 282.017232 141.364434 282.812841 141.364434 
z
" style="fill:#f26b38;stroke:#ffffff;stroke-width:0.48;"/>
    <path clip-path="url(#p2a8a878662)" d="M 289.576477 141.364434 
C 290.372087 141.364434 291.135217 141.048335 291.697798 140.485754 
C 292.260378 139.923173 292.576477 139.160043 292.576477 138.364434 
C 292.576477 137.568824 292.260378 136.805694 291.697798 136.243113 
C 291.135217 135.680533 290.372087 135.364434 289.576477 135.364434 
C 288.780868 135.364434 288.017738 135.680533 287.455157 136.243113 
C 286.892576 136.805694 286.576477 137.568824 286.576477 138.364434 
C 286.576477 139.160043 286.892576 139.923173 287.455157 140.485754 
C 288.017738 141.048335 288.780868 141.364434 289.576477 141.364434 
z
" style="fill:#f26b38;stroke:#ffffff;stroke-width:0.48;"/>
    <path clip-path="url(#p2a8a878662)" d="M 296.340114 141.364434 
C 297.135723 141.364434 297.898853 141.048335 298.461434 140.485754 
C 299.024015 139.923173 299.340114 139.160043 299.340114 138.364434 
C 299.340114 137.568824 299.024015 136.805694 298.461434 136.243113 
C 297.898853 135.680533 297.135723 135.364434 296.340114 135.364434 
C 295.544504 135.364434 294.781374 135.680533 294.218793 136.243113 
C 293.656213 136.805694 293.340114 137.568824 293.340114 138.364434 
C 293.340114 139.160043 293.656213 139.923173 294.218793 140.485754 
C 294.781374 141.048335 295.544504 141.364434 296.340114 141.364434 
z
" style="fill:#f26b38;stroke:#ffffff;stroke-width:0.48;"/>
    <path clip-path="url(#p2a8a878662)" d="M 303.10375 141.364434 
C 303.899359 141.364434 304.66249 141.048335 305.22507 140.485754 
C 305.787651 139.923173 306.10375 139.160043 306.10375 138.364434 
C 306.10375 137.568824 305.787651 136.805694 305.22507 136.243113 
C 304.66249 135.680533 303.899359 135.364434 303.10375 135.364434 
C 302.308141 135.364434 301.54501 135.680533 300.98243 136.243113 
C 300.419849 136.805694 300.10375 137.568824 300.10375 138.364434 
C 300.10375 139.160043 300.419849 139.923173 300.98243 140.485754 
C 301.54501 141.048335 302.308141 141.364434 303.10375 141.364434 
z
" style="fill:#f26b38;stroke:#ffffff;stroke-width:0.48;"/>
    <path clip-path="url(#p2a8a878662)" d="M 309.867386 141.364434 
C 310.662996 141.364434 311.426126 141.048335 311.988707 140.485754 
C 312.551287 139.923173 312.867386 139.160043 312.867386 138.364434 
C 312.867386 137.568824 312.551287 136.805694 311.988707 136.243113 
C 311.426126 135.680533 310.662996 135.364434 309.867386 135.364434 
C 309.071777 135.364434 308.308647 135.680533 307.746066 136.243113 
C 307.183485 136.805694 306.867386 137.568824 306.867386 138.364434 
C 306.867386 139.160043 307.183485 139.923173 307.746066 140.485754 
C 308.308647 141.048335 309.071777 141.364434 309.867386 141.364434 
z
" style="fill:#f26b38;stroke:#ffffff;stroke-width:0.48;"/>
    <path clip-path="url(#p2a8a878662)" d="M 316.631023 141.364434 
C 317.426632 141.364434 318.189762 141.048335 318.752343 140.485754 
C 319.314924 139.923173 319.631023 139.160043 319.631023 138.364434 
C 319.631023 137.568824 319.314924 136.805694 318.752343 136.243113 
C 318.189762 135.680533 317.426632 135.364434 316.631023 135.364434 
C 315.835413 135.364434 315.072283 135.680533 314.509702 136.243113 
C 313.947122 136.805694 313.631023 137.568824 313.631023 138.364434 
C 313.631023 139.160043 313.947122 139.923173 314.509702 140.485754 
C 315.072283 141.048335 315.835413 141.364434 316.631023 141.364434 
z
" style="fill:#f26b38;stroke:#ffffff;stroke-width:0.48;"/>
    <path clip-path="url(#p2a8a878662)" d="M 323.394659 141.364434 
C 324.190268 141.364434 324.953399 141.048335 325.515979 140.485754 
C 326.07856 139.923173 326.394659 139.160043 326.394659 138.364434 
C 326.394659 137.568824 326.07856 136.805694 325.515979 136.243113 
C 324.953399 135.680533 324.190268 135.364434 323.394659 135.364434 
C 322.59905 135.364434 321.835919 135.680533 321.273339 136.243113 
C 320.710758 136.805694 320.394659 137.568824 320.394659 138.364434 
C 320.394659 139.160043 320.710758 139.923173 321.273339 140.485754 
C 321.835919 141.048335 322.59905 141.364434 323.394659 141.364434 
z
" style="fill:#f26b38;stroke:#ffffff;stroke-width:0.48;"/>
    <path clip-path="url(#p2a8a878662)" d="M 330.158295 141.364434 
C 330.953905 141.364434 331.717035 141.048335 332.279616 140.485754 
C 332.842197 139.923173 333.158295 139.160043 333.158295 138.364434 
C 333.158295 137.568824 332.842197 136.805694 332.279616 136.243113 
C 331.717035 135.680533 330.953905 135.364434 330.158295 135.364434 
C 329.362686 135.364434 328.599556 135.680533 328.036975 136.243113 
C 327.474394 136.805694 327.158295 137.568824 327.158295 138.364434 
C 327.158295 139.160043 327.474394 139.923173 328.036975 140.485754 
C 328.599556 141.048335 329.362686 141.364434 330.158295 141.364434 
z
" style="fill:#f26b38;stroke:#ffffff;stroke-width:0.48;"/>
    <path clip-path="url(#p2a8a878662)" d="M 336.921932 141.364434 
C 337.717541 141.364434 338.480671 141.048335 339.043252 140.485754 
C 339.605833 139.923173 339.921932 139.160043 339.921932 138.364434 
C 339.921932 137.568824 339.605833 136.805694 339.043252 136.243113 
C 338.480671 135.680533 337.717541 135.364434 336.921932 135.364434 
C 336.126323 135.364434 335.363192 135.680533 334.800611 136.243113 
C 334.238031 136.805694 333.921932 137.568824 333.921932 138.364434 
C 333.921932 139.160043 334.238031 139.923173 334.800611 140.485754 
C 335.363192 141.048335 336.126323 141.364434 336.921932 141.364434 
z
" style="fill:#f26b38;stroke:#ffffff;stroke-width:0.48;"/>
    <path clip-path="url(#p2a8a878662)" d="M 343.685568 141.364434 
C 344.481177 141.364434 345.244308 141.048335 345.806889 140.485754 
C 346.369469 139.923173 346.685568 139.160043 346.685568 138.364434 
C 346.685568 137.568824 346.369469 136.805694 345.806889 136.243113 
C 345.244308 135.680533 344.481177 135.364434 343.685568 135.364434 
C 342.889959 135.364434 342.126829 135.680533 341.564248 136.243113 
C 341.001667 136.805694 340.685568 137.568824 340.685568 138.364434 
C 340.685568 139.160043 341.001667 139.923173 341.564248 140.485754 
C 342.126829 141.048335 342.889959 141.364434 343.685568 141.364434 
z
" style="fill:#f26b38;stroke:#ffffff;stroke-width:0.48;"/>
    <path clip-path="url(#p2a8a878662)" d="M 350.449205 141.364434 
C 351.244814 141.364434 352.007944 141.048335 352.570525 140.485754 
C 353.133106 139.923173 353.449205 139.160043 353.449205 138.364434 
C 353.449205 137.568824 353.133106 136.805694 352.570525 136.243113 
C 352.007944 135.680533 351.244814 135.364434 350.449205 135.364434 
C 349.653595 135.364434 348.890465 135.680533 348.327884 136.243113 
C 347.765303 136.805694 347.449205 137.568824 347.449205 138.364434 
C 347.449205 139.160043 347.765303 139.923173 348.327884 140.485754 
C 348.890465 141.048335 349.653595 141.364434 350.449205 141.364434 
z
" style="fill:#f26b38;stroke:#ffffff;stroke-width:0.48;"/>
    <path clip-path="url(#p2a8a878662)" d="M 357.212841 141.364434 
C 358.00845 141.364434 358.771581 141.048335 359.334161 140.485754 
C 359.896742 139.923173 360.212841 139.160043 360.212841 138.364434 
C 360.212841 137.568824 359.896742 136.805694 359.334161 136.243113 
C 358.771581 135.680533 358.00845 135.364434 357.212841 135.364434 
C 356.417232 135.364434 355.654101 135.680533 355.091521 136.243113 
C 354.52894 136.805694 354.212841 137.568824 354.212841 138.364434 
C 354.212841 139.160043 354.52894 139.923173 355.091521 140.485754 
C 355.654101 141.048335 356.417232 141.364434 357.212841 141.364434 
z
" style="fill:#f26b38;stroke:#ffffff;stroke-width:0.48;"/>
    <path clip-path="url(#p2a8a878662)" d="M 363.976477 141.364434 
C 364.772087 141.364434 365.535217 141.048335 366.097798 140.485754 
C 366.660378 139.923173 366.976477 139.160043 366.976477 138.364434 
C 366.976477 137.568824 366.660378 136.805694 366.097798 136.243113 
C 365.535217 135.680533 364.772087 135.364434 363.976477 135.364434 
C 363.180868 135.364434 362.417738 135.680533 361.855157 136.243113 
C 361.292576 136.805694 360.976477 137.568824 360.976477 138.364434 
C 360.976477 139.160043 361.292576 139.923173 361.855157 140.485754 
C 362.417738 141.048335 363.180868 141.364434 363.976477 141.364434 
z
" style="fill:#f26b38;stroke:#ffffff;stroke-width:0.48;"/>
    <path clip-path="url(#p2a8a878662)" d="M 370.740114 141.364434 
C 371.535723 141.364434 372.298853 141.048335 372.861434 140.485754 
C 373.424015 139.923173 373.740114 139.160043 373.740114 138.364434 
C 373.740114 137.568824 373.424015 136.805694 372.861434 136.243113 
C 372.298853 135.680533 371.535723 135.364434 370.740114 135.364434 
C 369.944504 135.364434 369.181374 135.680533 368.618793 136.243113 
C 368.056213 136.805694 367.740114 137.568824 367.740114 138.364434 
C 367.740114 139.160043 368.056213 139.923173 368.618793 140.485754 
C 369.181374 141.048335 369.944504 141.364434 370.740114 141.364434 
z
" style="fill:#f26b38;stroke:#ffffff;stroke-width:0.48;"/>
    <path clip-path="url(#p2a8a878662)" d="M 377.50375 141.364434 
C 378.299359 141.364434 379.06249 141.048335 379.62507 140.485754 
C 380.187651 139.923173 380.50375 139.160043 380.50375 138.364434 
C 380.50375 137.568824 380.187651 136.805694 379.62507 136.243113 
C 379.06249 135.680533 378.299359 135.364434 377.50375 135.364434 
C 376.708141 135.364434 375.94501 135.680533 375.38243 136.243113 
C 374.819849 136.805694 374.50375 137.568824 374.50375 138.364434 
C 374.50375 139.160043 374.819849 139.923173 375.38243 140.485754 
C 375.94501 141.048335 376.708141 141.364434 377.50375 141.364434 
z
" style="fill:#f26b38;stroke:#ffffff;stroke-width:0.48;"/>
    <path clip-path="url(#p2a8a878662)" d="M 384.267386 141.364434 
C 385.062996 141.364434 385.826126 141.048335 386.388707 140.485754 
C 386.951287 139.923173 387.267386 139.160043 387.267386 138.364434 
C 387.267386 137.568824 386.951287 136.805694 386.388707 136.243113 
C 385.826126 135.680533 385.062996 135.364434 384.267386 135.364434 
C 383.471777 135.364434 382.708647 135.680533 382.146066 136.243113 
C 381.583485 136.805694 381.267386 137.568824 381.267386 138.364434 
C 381.267386 139.160043 381.583485 139.923173 382.146066 140.485754 
C 382.708647 141.048335 383.471777 141.364434 384.267386 141.364434 
z
" style="fill:#f26b38;stroke:#ffffff;stroke-width:0.48;"/>
    <path clip-path="url(#p2a8a878662)" d="M 391.031023 141.364434 
C 391.826632 141.364434 392.589762 141.048335 393.152343 140.485754 
C 393.714924 139.923173 394.031023 139.160043 394.031023 138.364434 
C 394.031023 137.568824 393.714924 136.805694 393.152343 136.243113 
C 392.589762 135.680533 391.826632 135.364434 391.031023 135.364434 
C 390.235413 135.364434 389.472283 135.680533 388.909702 136.243113 
C 388.347122 136.805694 388.031023 137.568824 388.031023 138.364434 
C 388.031023 139.160043 388.347122 139.923173 388.909702 140.485754 
C 389.472283 141.048335 390.235413 141.364434 391.031023 141.364434 
z
" style="fill:#f26b38;stroke:#ffffff;stroke-width:0.48;"/>
    <path clip-path="url(#p2a8a878662)" d="M 64.876477 141.364434 
L 66.376477 139.864434 
L 67.876477 141.364434 
L 69.376477 139.864434 
L 67.876477 138.364434 
L 69.376477 136.864434 
L 67.876477 135.364434 
L 66.376477 136.864434 
L 64.876477 135.364434 
L 63.376477 136.864434 
L 64.876477 138.364434 
L 63.376477 139.864434 
z
" style="fill:#2f9599;stroke:#ffffff;stroke-width:0.48;"/>
    <path clip-path="url(#p2a8a878662)" d="M 71.640114 116.302051 
L 73.140114 114.802051 
L 74.640114 116.302051 
L 76.140114 114.802051 
L 74.640114 113.302051 
L 76.140114 111.802051 
L 74.640114 110.302051 
L 73.140114 111.802051 
L 71.640114 110.302051 
L 70.140114 111.802051 
L 71.640114 113.302051 
L 70.140114 114.802051 
z
" style="fill:#2f9599;stroke:#ffffff;stroke-width:0.48;"/>
    <path clip-path="url(#p2a8a878662)" d="M 78.40375 116.302051 
L 79.90375 114.802051 
L 81.40375 116.302051 
L 82.90375 114.802051 
L 81.40375 113.302051 
L 82.90375 111.802051 
L 81.40375 110.302051 
L 79.90375 111.802051 
L 78.40375 110.302051 
L 76.90375 111.802051 
L 78.40375 113.302051 
L 76.90375 114.802051 
z
" style="fill:#2f9599;stroke:#ffffff;stroke-width:0.48;"/>
    <path clip-path="url(#p2a8a878662)" d="M 85.167386 116.302051 
L 86.667386 114.802051 
L 88.167386 116.302051 
L 89.667386 114.802051 
L 88.167386 113.302051 
L 89.667386 111.802051 
L 88.167386 110.302051 
L 86.667386 111.802051 
L 85.167386 110.302051 
L 83.667386 111.802051 
L 85.167386 113.302051 
L 83.667386 114.802051 
z
" style="fill:#2f9599;stroke:#ffffff;stroke-width:0.48;"/>
    <path clip-path="url(#p2a8a878662)" d="M 91.931023 116.302051 
L 93.431023 114.802051 
L 94.931023 116.302051 
L 96.431023 114.802051 
L 94.931023 113.302051 
L 96.431023 111.802051 
L 94.931023 110.302051 
L 93.431023 111.802051 
L 91.931023 110.302051 
L 90.431023 111.802051 
L 91.931023 113.302051 
L 90.431023 114.802051 
z
" style="fill:#2f9599;stroke:#ffffff;stroke-width:0.48;"/>
    <path clip-path="url(#p2a8a878662)" d="M 98.694659 154.234306 
L 100.194659 152.734306 
L 101.694659 154.234306 
L 103.194659 152.734306 
L 101.694659 151.234306 
L 103.194659 149.734306 
L 101.694659 148.234306 
L 100.194659 149.734306 
L 98.694659 148.234306 
L 97.194659 149.734306 
L 98.694659 151.234306 
L 97.194659 152.734306 
z
" style="fill:#2f9599;stroke:#ffffff;stroke-width:0.48;"/>
    <path clip-path="url(#p2a8a878662)" d="M 105.458295 154.234306 
L 106.958295 152.734306 
L 108.458295 154.234306 
L 109.958295 152.734306 
L 108.458295 151.234306 
L 109.958295 149.734306 
L 108.458295 148.234306 
L 106.958295 149.734306 
L 105.458295 148.234306 
L 103.958295 149.734306 
L 105.458295 151.234306 
L 103.958295 152.734306 
z
" style="fill:#2f9599;stroke:#ffffff;stroke-width:0.48;"/>
    <path clip-path="url(#p2a8a878662)" d="M 112.221932 154.234306 
L 113.721932 152.734306 
L 115.221932 154.234306 
L 116.721932 152.734306 
L 115.221932 151.234306 
L 116.721932 149.734306 
L 115.221932 148.234306 
L 113.721932 149.734306 
L 112.221932 148.234306 
L 110.721932 149.734306 
L 112.221932 151.234306 
L 110.721932 152.734306 
z
" style="fill:#2f9599;stroke:#ffffff;stroke-width:0.48;"/>
    <path clip-path="url(#p2a8a878662)" d="M 118.985568 154.234306 
L 120.485568 152.734306 
L 121.985568 154.234306 
L 123.485568 152.734306 
L 121.985568 151.234306 
L 123.485568 149.734306 
L 121.985568 148.234306 
L 120.485568 149.734306 
L 118.985568 148.234306 
L 117.485568 149.734306 
L 118.985568 151.234306 
L 117.485568 152.734306 
z
" style="fill:#2f9599;stroke:#ffffff;stroke-width:0.48;"/>
    <path clip-path="url(#p2a8a878662)" d="M 125.749205 116.302051 
L 127.249205 114.802051 
L 128.749205 116.302051 
L 130.249205 114.802051 
L 128.749205 113.302051 
L 130.249205 111.802051 
L 128.749205 110.302051 
L 127.249205 111.802051 
L 125.749205 110.302051 
L 124.249205 111.802051 
L 125.749205 113.302051 
L 124.249205 114.802051 
z
" style="fill:#2f9599;stroke:#ffffff;stroke-width:0.48;"/>
    <path clip-path="url(#p2a8a878662)" d="M 132.512841 104.097761 
L 134.012841 102.597761 
L 135.512841 104.097761 
L 137.012841 102.597761 
L 135.512841 101.097761 
L 137.012841 99.597761 
L 135.512841 98.097761 
L 134.012841 99.597761 
L 132.512841 98.097761 
L 131.012841 99.597761 
L 132.512841 101.097761 
L 131.012841 102.597761 
z
" style="fill:#2f9599;stroke:#ffffff;stroke-width:0.48;"/>
    <path clip-path="url(#p2a8a878662)" d="M 139.276477 194.273907 
L 140.776477 192.773907 
L 142.276477 194.273907 
L 143.776477 192.773907 
L 142.276477 191.273907 
L 143.776477 189.773907 
L 142.276477 188.273907 
L 140.776477 189.773907 
L 139.276477 188.273907 
L 137.776477 189.773907 
L 139.276477 191.273907 
L 137.776477 192.773907 
z
" style="fill:#2f9599;stroke:#ffffff;stroke-width:0.48;"/>
    <path clip-path="url(#p2a8a878662)" d="M 146.040114 194.273907 
L 147.540114 192.773907 
L 149.040114 194.273907 
L 150.540114 192.773907 
L 149.040114 191.273907 
L 150.540114 189.773907 
L 149.040114 188.273907 
L 147.540114 189.773907 
L 146.040114 188.273907 
L 144.540114 189.773907 
L 146.040114 191.273907 
L 144.540114 192.773907 
z
" style="fill:#2f9599;stroke:#ffffff;stroke-width:0.48;"/>
    <path clip-path="url(#p2a8a878662)" d="M 152.80375 194.273907 
L 154.30375 192.773907 
L 155.80375 194.273907 
L 157.30375 192.773907 
L 155.80375 191.273907 
L 157.30375 189.773907 
L 155.80375 188.273907 
L 154.30375 189.773907 
L 152.80375 188.273907 
L 151.30375 189.773907 
L 152.80375 191.273907 
L 151.30375 192.773907 
z
" style="fill:#2f9599;stroke:#ffffff;stroke-width:0.48;"/>
    <path clip-path="url(#p2a8a878662)" d="M 159.567386 194.273907 
L 161.067386 192.773907 
L 162.567386 194.273907 
L 164.067386 192.773907 
L 162.567386 191.273907 
L 164.067386 189.773907 
L 162.567386 188.273907 
L 161.067386 189.773907 
L 159.567386 188.273907 
L 158.067386 189.773907 
L 159.567386 191.273907 
L 158.067386 192.773907 
z
" style="fill:#2f9599;stroke:#ffffff;stroke-width:0.48;"/>
    <path clip-path="url(#p2a8a878662)" d="M 166.331023 180.682483 
L 167.831023 179.182483 
L 169.331023 180.682483 
L 170.831023 179.182483 
L 169.331023 177.682483 
L 170.831023 176.182483 
L 169.331023 174.682483 
L 167.831023 176.182483 
L 166.331023 174.682483 
L 164.831023 176.182483 
L 166.331023 177.682483 
L 164.831023 179.182483 
z
" style="fill:#2f9599;stroke:#ffffff;stroke-width:0.48;"/>
    <path clip-path="url(#p2a8a878662)" d="M 173.094659 167.338175 
L 174.594659 165.838175 
L 176.094659 167.338175 
L 177.594659 165.838175 
L 176.094659 164.338175 
L 177.594659 162.838175 
L 176.094659 161.338175 
L 174.594659 162.838175 
L 173.094659 161.338175 
L 171.594659 162.838175 
L 173.094659 164.338175 
L 171.594659 165.838175 
z
" style="fill:#2f9599;stroke:#ffffff;stroke-width:0.48;"/>
    <path clip-path="url(#p2a8a878662)" d="M 179.858295 167.338175 
L 181.358295 165.838175 
L 182.858295 167.338175 
L 184.358295 165.838175 
L 182.858295 164.338175 
L 184.358295 162.838175 
L 182.858295 161.338175 
L 181.358295 162.838175 
L 179.858295 161.338175 
L 178.358295 162.838175 
L 179.858295 164.338175 
L 178.358295 165.838175 
z
" style="fill:#2f9599;stroke:#ffffff;stroke-width:0.48;"/>
    <path clip-path="url(#p2a8a878662)" d="M 186.621932 167.338175 
L 188.121932 165.838175 
L 189.621932 167.338175 
L 191.121932 165.838175 
L 189.621932 164.338175 
L 191.121932 162.838175 
L 189.621932 161.338175 
L 188.121932 162.838175 
L 186.621932 161.338175 
L 185.121932 162.838175 
L 186.621932 164.338175 
L 185.121932 165.838175 
z
" style="fill:#2f9599;stroke:#ffffff;stroke-width:0.48;"/>
    <path clip-path="url(#p2a8a878662)" d="M 193.385568 167.338175 
L 194.885568 165.838175 
L 196.385568 167.338175 
L 197.885568 165.838175 
L 196.385568 164.338175 
L 197.885568 162.838175 
L 196.385568 161.338175 
L 194.885568 162.838175 
L 193.385568 161.338175 
L 191.885568 162.838175 
L 193.385568 164.338175 
L 191.885568 165.838175 
z
" style="fill:#2f9599;stroke:#ffffff;stroke-width:0.48;"/>
    <path clip-path="url(#p2a8a878662)" d="M 200.149205 167.338175 
L 201.649205 165.838175 
L 203.149205 167.338175 
L 204.649205 165.838175 
L 203.149205 164.338175 
L 204.649205 162.838175 
L 203.149205 161.338175 
L 201.649205 162.838175 
L 200.149205 161.338175 
L 198.649205 162.838175 
L 200.149205 164.338175 
L 198.649205 165.838175 
z
" style="fill:#2f9599;stroke:#ffffff;stroke-width:0.48;"/>
    <path clip-path="url(#p2a8a878662)" d="M 206.912841 167.338175 
L 208.412841 165.838175 
L 209.912841 167.338175 
L 211.412841 165.838175 
L 209.912841 164.338175 
L 211.412841 162.838175 
L 209.912841 161.338175 
L 208.412841 162.838175 
L 206.912841 161.338175 
L 205.412841 162.838175 
L 206.912841 164.338175 
L 205.412841 165.838175 
z
" style="fill:#2f9599;stroke:#ffffff;stroke-width:0.48;"/>
    <path clip-path="url(#p2a8a878662)" d="M 213.676477 167.338175 
L 215.176477 165.838175 
L 216.676477 167.338175 
L 218.176477 165.838175 
L 216.676477 164.338175 
L 218.176477 162.838175 
L 216.676477 161.338175 
L 215.176477 162.838175 
L 213.676477 161.338175 
L 212.176477 162.838175 
L 213.676477 164.338175 
L 212.176477 165.838175 
z
" style="fill:#2f9599;stroke:#ffffff;stroke-width:0.48;"/>
    <path clip-path="url(#p2a8a878662)" d="M 220.440114 167.338175 
L 221.940114 165.838175 
L 223.440114 167.338175 
L 224.940114 165.838175 
L 223.440114 164.338175 
L 224.940114 162.838175 
L 223.440114 161.338175 
L 221.940114 162.838175 
L 220.440114 161.338175 
L 218.940114 162.838175 
L 220.440114 164.338175 
L 218.940114 165.838175 
z
" style="fill:#2f9599;stroke:#ffffff;stroke-width:0.48;"/>
    <path clip-path="url(#p2a8a878662)" d="M 227.20375 167.338175 
L 228.70375 165.838175 
L 230.20375 167.338175 
L 231.70375 165.838175 
L 230.20375 164.338175 
L 231.70375 162.838175 
L 230.20375 161.338175 
L 228.70375 162.838175 
L 227.20375 161.338175 
L 225.70375 162.838175 
L 227.20375 164.338175 
L 225.70375 165.838175 
z
" style="fill:#2f9599;stroke:#ffffff;stroke-width:0.48;"/>
    <path clip-path="url(#p2a8a878662)" d="M 233.967386 167.338175 
L 235.467386 165.838175 
L 236.967386 167.338175 
L 238.467386 165.838175 
L 236.967386 164.338175 
L 238.467386 162.838175 
L 236.967386 161.338175 
L 235.467386 162.838175 
L 233.967386 161.338175 
L 232.467386 162.838175 
L 233.967386 164.338175 
L 232.467386 165.838175 
z
" style="fill:#2f9599;stroke:#ffffff;stroke-width:0.48;"/>
    <path clip-path="url(#p2a8a878662)" d="M 240.731023 167.338175 
L 242.231023 165.838175 
L 243.731023 167.338175 
L 245.231023 165.838175 
L 243.731023 164.338175 
L 245.231023 162.838175 
L 243.731023 161.338175 
L 242.231023 162.838175 
L 240.731023 161.338175 
L 239.231023 162.838175 
L 240.731023 164.338175 
L 239.231023 165.838175 
z
" style="fill:#2f9599;stroke:#ffffff;stroke-width:0.48;"/>
    <path clip-path="url(#p2a8a878662)" d="M 247.494659 167.338175 
L 248.994659 165.838175 
L 250.494659 167.338175 
L 251.994659 165.838175 
L 250.494659 164.338175 
L 251.994659 162.838175 
L 250.494659 161.338175 
L 248.994659 162.838175 
L 247.494659 161.338175 
L 245.994659 162.838175 
L 247.494659 164.338175 
L 245.994659 165.838175 
z
" style="fill:#2f9599;stroke:#ffffff;stroke-width:0.48;"/>
    <path clip-path="url(#p2a8a878662)" d="M 254.258295 167.338175 
L 255.758295 165.838175 
L 257.258295 167.338175 
L 258.758295 165.838175 
L 257.258295 164.338175 
L 258.758295 162.838175 
L 257.258295 161.338175 
L 255.758295 162.838175 
L 254.258295 161.338175 
L 252.758295 162.838175 
L 254.258295 164.338175 
L 252.758295 165.838175 
z
" style="fill:#2f9599;stroke:#ffffff;stroke-width:0.48;"/>
    <path clip-path="url(#p2a8a878662)" d="M 261.021932 167.338175 
L 262.521932 165.838175 
L 264.021932 167.338175 
L 265.521932 165.838175 
L 264.021932 164.338175 
L 265.521932 162.838175 
L 264.021932 161.338175 
L 262.521932 162.838175 
L 261.021932 161.338175 
L 259.521932 162.838175 
L 261.021932 164.338175 
L 259.521932 165.838175 
z
" style="fill:#2f9599;stroke:#ffffff;stroke-width:0.48;"/>
    <path clip-path="url(#p2a8a878662)" d="M 267.785568 167.338175 
L 269.285568 165.838175 
L 270.785568 167.338175 
L 272.285568 165.838175 
L 270.785568 164.338175 
L 272.285568 162.838175 
L 270.785568 161.338175 
L 269.285568 162.838175 
L 267.785568 161.338175 
L 266.285568 162.838175 
L 267.785568 164.338175 
L 266.285568 165.838175 
z
" style="fill:#2f9599;stroke:#ffffff;stroke-width:0.48;"/>
    <path clip-path="url(#p2a8a878662)" d="M 274.549205 167.338175 
L 276.049205 165.838175 
L 277.549205 167.338175 
L 279.049205 165.838175 
L 277.549205 164.338175 
L 279.049205 162.838175 
L 277.549205 161.338175 
L 276.049205 162.838175 
L 274.549205 161.338175 
L 273.049205 162.838175 
L 274.549205 164.338175 
L 273.049205 165.838175 
z
" style="fill:#2f9599;stroke:#ffffff;stroke-width:0.48;"/>
    <path clip-path="url(#p2a8a878662)" d="M 281.312841 167.338175 
L 282.812841 165.838175 
L 284.312841 167.338175 
L 285.812841 165.838175 
L 284.312841 164.338175 
L 285.812841 162.838175 
L 284.312841 161.338175 
L 282.812841 162.838175 
L 281.312841 161.338175 
L 279.812841 162.838175 
L 281.312841 164.338175 
L 279.812841 165.838175 
z
" style="fill:#2f9599;stroke:#ffffff;stroke-width:0.48;"/>
    <path clip-path="url(#p2a8a878662)" d="M 288.076477 167.338175 
L 289.576477 165.838175 
L 291.076477 167.338175 
L 292.576477 165.838175 
L 291.076477 164.338175 
L 292.576477 162.838175 
L 291.076477 161.338175 
L 289.576477 162.838175 
L 288.076477 161.338175 
L 286.576477 162.838175 
L 288.076477 164.338175 
L 286.576477 165.838175 
z
" style="fill:#2f9599;stroke:#ffffff;stroke-width:0.48;"/>
    <path clip-path="url(#p2a8a878662)" d="M 294.840114 167.338175 
L 296.340114 165.838175 
L 297.840114 167.338175 
L 299.340114 165.838175 
L 297.840114 164.338175 
L 299.340114 162.838175 
L 297.840114 161.338175 
L 296.340114 162.838175 
L 294.840114 161.338175 
L 293.340114 162.838175 
L 294.840114 164.338175 
L 293.340114 165.838175 
z
" style="fill:#2f9599;stroke:#ffffff;stroke-width:0.48;"/>
    <path clip-path="url(#p2a8a878662)" d="M 301.60375 167.338175 
L 303.10375 165.838175 
L 304.60375 167.338175 
L 306.10375 165.838175 
L 304.60375 164.338175 
L 306.10375 162.838175 
L 304.60375 161.338175 
L 303.10375 162.838175 
L 301.60375 161.338175 
L 300.10375 162.838175 
L 301.60375 164.338175 
L 300.10375 165.838175 
z
" style="fill:#2f9599;stroke:#ffffff;stroke-width:0.48;"/>
    <path clip-path="url(#p2a8a878662)" d="M 308.367386 167.338175 
L 309.867386 165.838175 
L 311.367386 167.338175 
L 312.867386 165.838175 
L 311.367386 164.338175 
L 312.867386 162.838175 
L 311.367386 161.338175 
L 309.867386 162.838175 
L 308.367386 161.338175 
L 306.867386 162.838175 
L 308.367386 164.338175 
L 306.867386 165.838175 
z
" style="fill:#2f9599;stroke:#ffffff;stroke-width:0.48;"/>
    <path clip-path="url(#p2a8a878662)" d="M 315.131023 167.338175 
L 316.631023 165.838175 
L 318.131023 167.338175 
L 319.631023 165.838175 
L 318.131023 164.338175 
L 319.631023 162.838175 
L 318.131023 161.338175 
L 316.631023 162.838175 
L 315.131023 161.338175 
L 313.631023 162.838175 
L 315.131023 164.338175 
L 313.631023 165.838175 
z
" style="fill:#2f9599;stroke:#ffffff;stroke-width:0.48;"/>
    <path clip-path="url(#p2a8a878662)" d="M 321.894659 167.338175 
L 323.394659 165.838175 
L 324.894659 167.338175 
L 326.394659 165.838175 
L 324.894659 164.338175 
L 326.394659 162.838175 
L 324.894659 161.338175 
L 323.394659 162.838175 
L 321.894659 161.338175 
L 320.394659 162.838175 
L 321.894659 164.338175 
L 320.394659 165.838175 
z
" style="fill:#2f9599;stroke:#ffffff;stroke-width:0.48;"/>
    <path clip-path="url(#p2a8a878662)" d="M 328.658295 167.338175 
L 330.158295 165.838175 
L 331.658295 167.338175 
L 333.158295 165.838175 
L 331.658295 164.338175 
L 333.158295 162.838175 
L 331.658295 161.338175 
L 330.158295 162.838175 
L 328.658295 161.338175 
L 327.158295 162.838175 
L 328.658295 164.338175 
L 327.158295 165.838175 
z
" style="fill:#2f9599;stroke:#ffffff;stroke-width:0.48;"/>
    <path clip-path="url(#p2a8a878662)" d="M 335.421932 167.338175 
L 336.921932 165.838175 
L 338.421932 167.338175 
L 339.921932 165.838175 
L 338.421932 164.338175 
L 339.921932 162.838175 
L 338.421932 161.338175 
L 336.921932 162.838175 
L 335.421932 161.338175 
L 333.921932 162.838175 
L 335.421932 164.338175 
L 333.921932 165.838175 
z
" style="fill:#2f9599;stroke:#ffffff;stroke-width:0.48;"/>
    <path clip-path="url(#p2a8a878662)" d="M 342.185568 167.338175 
L 343.685568 165.838175 
L 345.185568 167.338175 
L 346.685568 165.838175 
L 345.185568 164.338175 
L 346.685568 162.838175 
L 345.185568 161.338175 
L 343.685568 162.838175 
L 342.185568 161.338175 
L 340.685568 162.838175 
L 342.185568 164.338175 
L 340.685568 165.838175 
z
" style="fill:#2f9599;stroke:#ffffff;stroke-width:0.48;"/>
    <path clip-path="url(#p2a8a878662)" d="M 348.949205 167.338175 
L 350.449205 165.838175 
L 351.949205 167.338175 
L 353.449205 165.838175 
L 351.949205 164.338175 
L 353.449205 162.838175 
L 351.949205 161.338175 
L 350.449205 162.838175 
L 348.949205 161.338175 
L 347.449205 162.838175 
L 348.949205 164.338175 
L 347.449205 165.838175 
z
" style="fill:#2f9599;stroke:#ffffff;stroke-width:0.48;"/>
    <path clip-path="url(#p2a8a878662)" d="M 355.712841 167.338175 
L 357.212841 165.838175 
L 358.712841 167.338175 
L 360.212841 165.838175 
L 358.712841 164.338175 
L 360.212841 162.838175 
L 358.712841 161.338175 
L 357.212841 162.838175 
L 355.712841 161.338175 
L 354.212841 162.838175 
L 355.712841 164.338175 
L 354.212841 165.838175 
z
" style="fill:#2f9599;stroke:#ffffff;stroke-width:0.48;"/>
    <path clip-path="url(#p2a8a878662)" d="M 362.476477 167.338175 
L 363.976477 165.838175 
L 365.476477 167.338175 
L 366.976477 165.838175 
L 365.476477 164.338175 
L 366.976477 162.838175 
L 365.476477 161.338175 
L 363.976477 162.838175 
L 362.476477 161.338175 
L 360.976477 162.838175 
L 362.476477 164.338175 
L 360.976477 165.838175 
z
" style="fill:#2f9599;stroke:#ffffff;stroke-width:0.48;"/>
    <path clip-path="url(#p2a8a878662)" d="M 369.240114 167.338175 
L 370.740114 165.838175 
L 372.240114 167.338175 
L 373.740114 165.838175 
L 372.240114 164.338175 
L 373.740114 162.838175 
L 372.240114 161.338175 
L 370.740114 162.838175 
L 369.240114 161.338175 
L 367.740114 162.838175 
L 369.240114 164.338175 
L 367.740114 165.838175 
z
" style="fill:#2f9599;stroke:#ffffff;stroke-width:0.48;"/>
    <path clip-path="url(#p2a8a878662)" d="M 376.00375 167.338175 
L 377.50375 165.838175 
L 379.00375 167.338175 
L 380.50375 165.838175 
L 379.00375 164.338175 
L 380.50375 162.838175 
L 379.00375 161.338175 
L 377.50375 162.838175 
L 376.00375 161.338175 
L 374.50375 162.838175 
L 376.00375 164.338175 
L 374.50375 165.838175 
z
" style="fill:#2f9599;stroke:#ffffff;stroke-width:0.48;"/>
    <path clip-path="url(#p2a8a878662)" d="M 382.767386 167.338175 
L 384.267386 165.838175 
L 385.767386 167.338175 
L 387.267386 165.838175 
L 385.767386 164.338175 
L 387.267386 162.838175 
L 385.767386 161.338175 
L 384.267386 162.838175 
L 382.767386 161.338175 
L 381.267386 162.838175 
L 382.767386 164.338175 
L 381.267386 165.838175 
z
" style="fill:#2f9599;stroke:#ffffff;stroke-width:0.48;"/>
    <path clip-path="url(#p2a8a878662)" d="M 389.531023 167.338175 
L 391.031023 165.838175 
L 392.531023 167.338175 
L 394.031023 165.838175 
L 392.531023 164.338175 
L 394.031023 162.838175 
L 392.531023 161.338175 
L 391.031023 162.838175 
L 389.531023 161.338175 
L 388.031023 162.838175 
L 389.531023 164.338175 
L 388.031023 165.838175 
z
" style="fill:#2f9599;stroke:#ffffff;stroke-width:0.48;"/>
    <path clip-path="url(#p2a8a878662)" d="M 64.255157 123.601027 
L 64.255157 127.843667 
L 68.497798 127.843667 
L 68.497798 123.601027 
z
" style="fill:#a7226e;stroke:#ffffff;stroke-width:0.48;"/>
    <path clip-path="url(#p2a8a878662)" d="M 71.018793 123.601027 
L 71.018793 127.843667 
L 75.261434 127.843667 
L 75.261434 123.601027 
z
" style="fill:#a7226e;stroke:#ffffff;stroke-width:0.48;"/>
    <path clip-path="url(#p2a8a878662)" d="M 77.78243 123.601027 
L 77.78243 127.843667 
L 82.02507 127.843667 
L 82.02507 123.601027 
z
" style="fill:#a7226e;stroke:#ffffff;stroke-width:0.48;"/>
    <path clip-path="url(#p2a8a878662)" d="M 84.546066 123.601027 
L 84.546066 127.843667 
L 88.788707 127.843667 
L 88.788707 123.601027 
z
" style="fill:#a7226e;stroke:#ffffff;stroke-width:0.48;"/>
    <path clip-path="url(#p2a8a878662)" d="M 91.309702 123.601027 
L 91.309702 127.843667 
L 95.552343 127.843667 
L 95.552343 123.601027 
z
" style="fill:#a7226e;stroke:#ffffff;stroke-width:0.48;"/>
    <path clip-path="url(#p2a8a878662)" d="M 98.073339 136.243113 
L 98.073339 140.485754 
L 102.315979 140.485754 
L 102.315979 136.243113 
z
" style="fill:#a7226e;stroke:#ffffff;stroke-width:0.48;"/>
    <path clip-path="url(#p2a8a878662)" d="M 104.836975 136.243113 
L 104.836975 140.485754 
L 109.079616 140.485754 
L 109.079616 136.243113 
z
" style="fill:#a7226e;stroke:#ffffff;stroke-width:0.48;"/>
    <path clip-path="url(#p2a8a878662)" d="M 111.600611 136.243113 
L 111.600611 140.485754 
L 115.843252 140.485754 
L 115.843252 136.243113 
z
" style="fill:#a7226e;stroke:#ffffff;stroke-width:0.48;"/>
    <path clip-path="url(#p2a8a878662)" d="M 118.364248 149.112985 
L 118.364248 153.355626 
L 122.606889 153.355626 
L 122.606889 149.112985 
z
" style="fill:#a7226e;stroke:#ffffff;stroke-width:0.48;"/>
    <path clip-path="url(#p2a8a878662)" d="M 125.127884 123.601027 
L 125.127884 127.843667 
L 129.370525 127.843667 
L 129.370525 123.601027 
z
" style="fill:#a7226e;stroke:#ffffff;stroke-width:0.48;"/>
    <path clip-path="url(#p2a8a878662)" d="M 131.891521 123.601027 
L 131.891521 127.843667 
L 136.134161 127.843667 
L 136.134161 123.601027 
z
" style="fill:#a7226e;stroke:#ffffff;stroke-width:0.48;"/>
    <path clip-path="url(#p2a8a878662)" d="M 138.655157 136.243113 
L 138.655157 140.485754 
L 142.897798 140.485754 
L 142.897798 136.243113 
z
" style="fill:#a7226e;stroke:#ffffff;stroke-width:0.48;"/>
    <path clip-path="url(#p2a8a878662)" d="M 145.418793 136.243113 
L 145.418793 140.485754 
L 149.661434 140.485754 
L 149.661434 136.243113 
z
" style="fill:#a7226e;stroke:#ffffff;stroke-width:0.48;"/>
    <path clip-path="url(#p2a8a878662)" d="M 152.18243 136.243113 
L 152.18243 140.485754 
L 156.42507 140.485754 
L 156.42507 136.243113 
z
" style="fill:#a7226e;stroke:#ffffff;stroke-width:0.48;"/>
    <path clip-path="url(#p2a8a878662)" d="M 158.946066 111.180731 
L 158.946066 115.423372 
L 163.188707 115.423372 
L 163.188707 111.180731 
z
" style="fill:#a7226e;stroke:#ffffff;stroke-width:0.48;"/>
    <path clip-path="url(#p2a8a878662)" d="M 165.709702 136.243113 
L 165.709702 140.485754 
L 169.952343 140.485754 
L 169.952343 136.243113 
z
" style="fill:#a7226e;stroke:#ffffff;stroke-width:0.48;"/>
    <path clip-path="url(#p2a8a878662)" d="M 172.473339 136.243113 
L 172.473339 140.485754 
L 176.715979 140.485754 
L 176.715979 136.243113 
z
" style="fill:#a7226e;stroke:#ffffff;stroke-width:0.48;"/>
    <path clip-path="url(#p2a8a878662)" d="M 179.236975 123.601027 
L 179.236975 127.843667 
L 183.479616 127.843667 
L 183.479616 123.601027 
z
" style="fill:#a7226e;stroke:#ffffff;stroke-width:0.48;"/>
    <path clip-path="url(#p2a8a878662)" d="M 186.000611 41.006061 
L 186.000611 45.248701 
L 190.243252 45.248701 
L 190.243252 41.006061 
z
" style="fill:#a7226e;stroke:#ffffff;stroke-width:0.48;"/>
    <path clip-path="url(#p2a8a878662)" d="M 192.764248 29.986898 
L 192.764248 34.229538 
L 197.006889 34.229538 
L 197.006889 29.986898 
z
" style="fill:#a7226e;stroke:#ffffff;stroke-width:0.48;"/>
    <path clip-path="url(#p2a8a878662)" d="M 199.527884 29.986898 
L 199.527884 34.229538 
L 203.770525 34.229538 
L 203.770525 29.986898 
z
" style="fill:#a7226e;stroke:#ffffff;stroke-width:0.48;"/>
    <path clip-path="url(#p2a8a878662)" d="M 206.291521 19.148377 
L 206.291521 23.391017 
L 210.534161 23.391017 
L 210.534161 19.148377 
z
" style="fill:#a7226e;stroke:#ffffff;stroke-width:0.48;"/>
    <path clip-path="url(#p2a8a878662)" d="M 213.055157 19.148377 
L 213.055157 23.391017 
L 217.297798 23.391017 
L 217.297798 19.148377 
z
" style="fill:#a7226e;stroke:#ffffff;stroke-width:0.48;"/>
    <path clip-path="url(#p2a8a878662)" d="M 219.818793 63.604683 
L 219.818793 67.847324 
L 224.061434 67.847324 
L 224.061434 63.604683 
z
" style="fill:#a7226e;stroke:#ffffff;stroke-width:0.48;"/>
    <path clip-path="url(#p2a8a878662)" d="M 226.58243 19.148377 
L 226.58243 23.391017 
L 230.82507 23.391017 
L 230.82507 19.148377 
z
" style="fill:#a7226e;stroke:#ffffff;stroke-width:0.48;"/>
    <path clip-path="url(#p2a8a878662)" d="M 233.346066 19.148377 
L 233.346066 23.391017 
L 237.588707 23.391017 
L 237.588707 19.148377 
z
" style="fill:#a7226e;stroke:#ffffff;stroke-width:0.48;"/>
    <path clip-path="url(#p2a8a878662)" d="M 240.109702 19.148377 
L 240.109702 23.391017 
L 244.352343 23.391017 
L 244.352343 19.148377 
z
" style="fill:#a7226e;stroke:#ffffff;stroke-width:0.48;"/>
    <path clip-path="url(#p2a8a878662)" d="M 246.873339 29.986898 
L 246.873339 34.229538 
L 251.115979 34.229538 
L 251.115979 29.986898 
z
" style="fill:#a7226e;stroke:#ffffff;stroke-width:0.48;"/>
    <path clip-path="url(#p2a8a878662)" d="M 253.636975 19.148377 
L 253.636975 23.391017 
L 257.879616 23.391017 
L 257.879616 19.148377 
z
" style="fill:#a7226e;stroke:#ffffff;stroke-width:0.48;"/>
    <path clip-path="url(#p2a8a878662)" d="M 260.400611 63.604683 
L 260.400611 67.847324 
L 264.643252 67.847324 
L 264.643252 63.604683 
z
" style="fill:#a7226e;stroke:#ffffff;stroke-width:0.48;"/>
    <path clip-path="url(#p2a8a878662)" d="M 267.164248 63.604683 
L 267.164248 67.847324 
L 271.406889 67.847324 
L 271.406889 63.604683 
z
" style="fill:#a7226e;stroke:#ffffff;stroke-width:0.48;"/>
    <path clip-path="url(#p2a8a878662)" d="M 273.927884 63.604683 
L 273.927884 67.847324 
L 278.170525 67.847324 
L 278.170525 63.604683 
z
" style="fill:#a7226e;stroke:#ffffff;stroke-width:0.48;"/>
    <path clip-path="url(#p2a8a878662)" d="M 280.691521 63.604683 
L 280.691521 67.847324 
L 284.934161 67.847324 
L 284.934161 63.604683 
z
" style="fill:#a7226e;stroke:#ffffff;stroke-width:0.48;"/>
    <path clip-path="url(#p2a8a878662)" d="M 287.455157 261.068377 
L 287.455157 265.311017 
L 291.697798 265.311017 
L 291.697798 261.068377 
z
" style="fill:#a7226e;stroke:#ffffff;stroke-width:0.48;"/>
    <path clip-path="url(#p2a8a878662)" d="M 294.218793 261.068377 
L 294.218793 265.311017 
L 298.461434 265.311017 
L 298.461434 261.068377 
z
" style="fill:#a7226e;stroke:#ffffff;stroke-width:0.48;"/>
    <path clip-path="url(#p2a8a878662)" d="M 300.98243 261.068377 
L 300.98243 265.311017 
L 305.22507 265.311017 
L 305.22507 261.068377 
z
" style="fill:#a7226e;stroke:#ffffff;stroke-width:0.48;"/>
    <path clip-path="url(#p2a8a878662)" d="M 307.746066 261.068377 
L 307.746066 265.311017 
L 311.988707 265.311017 
L 311.988707 261.068377 
z
" style="fill:#a7226e;stroke:#ffffff;stroke-width:0.48;"/>
    <path clip-path="url(#p2a8a878662)" d="M 314.509702 261.068377 
L 314.509702 265.311017 
L 318.752343 265.311017 
L 318.752343 261.068377 
z
" style="fill:#a7226e;stroke:#ffffff;stroke-width:0.48;"/>
    <path clip-path="url(#p2a8a878662)" d="M 321.273339 261.068377 
L 321.273339 265.311017 
L 325.515979 265.311017 
L 325.515979 261.068377 
z
" style="fill:#a7226e;stroke:#ffffff;stroke-width:0.48;"/>
    <path clip-path="url(#p2a8a878662)" d="M 328.036975 261.068377 
L 328.036975 265.311017 
L 332.279616 265.311017 
L 332.279616 261.068377 
z
" style="fill:#a7226e;stroke:#ffffff;stroke-width:0.48;"/>
    <path clip-path="url(#p2a8a878662)" d="M 334.800611 261.068377 
L 334.800611 265.311017 
L 339.043252 265.311017 
L 339.043252 261.068377 
z
" style="fill:#a7226e;stroke:#ffffff;stroke-width:0.48;"/>
    <path clip-path="url(#p2a8a878662)" d="M 341.564248 261.068377 
L 341.564248 265.311017 
L 345.806889 265.311017 
L 345.806889 261.068377 
z
" style="fill:#a7226e;stroke:#ffffff;stroke-width:0.48;"/>
    <path clip-path="url(#p2a8a878662)" d="M 348.327884 261.068377 
L 348.327884 265.311017 
L 352.570525 265.311017 
L 352.570525 261.068377 
z
" style="fill:#a7226e;stroke:#ffffff;stroke-width:0.48;"/>
    <path clip-path="url(#p2a8a878662)" d="M 355.091521 261.068377 
L 355.091521 265.311017 
L 359.334161 265.311017 
L 359.334161 261.068377 
z
" style="fill:#a7226e;stroke:#ffffff;stroke-width:0.48;"/>
    <path clip-path="url(#p2a8a878662)" d="M 361.855157 261.068377 
L 361.855157 265.311017 
L 366.097798 265.311017 
L 366.097798 261.068377 
z
" style="fill:#a7226e;stroke:#ffffff;stroke-width:0.48;"/>
    <path clip-path="url(#p2a8a878662)" d="M 368.618793 261.068377 
L 368.618793 265.311017 
L 372.861434 265.311017 
L 372.861434 261.068377 
z
" style="fill:#a7226e;stroke:#ffffff;stroke-width:0.48;"/>
    <path clip-path="url(#p2a8a878662)" d="M 375.38243 261.068377 
L 375.38243 265.311017 
L 379.62507 265.311017 
L 379.62507 261.068377 
z
" style="fill:#a7226e;stroke:#ffffff;stroke-width:0.48;"/>
    <path clip-path="url(#p2a8a878662)" d="M 382.146066 261.068377 
L 382.146066 265.311017 
L 386.388707 265.311017 
L 386.388707 261.068377 
z
" style="fill:#a7226e;stroke:#ffffff;stroke-width:0.48;"/>
    <path clip-path="url(#p2a8a878662)" d="M 388.909702 261.068377 
L 388.909702 265.311017 
L 393.152343 265.311017 
L 393.152343 261.068377 
z
" style="fill:#a7226e;stroke:#ffffff;stroke-width:0.48;"/>
   </g>
   <g id="PathCollection_2"/>
   <g id="PathCollection_3"/>
   <g id="PathCollection_4"/>
   <g id="matplotlib.axis_1">
    <g id="xtick_1">
     <g id="line2d_1">
      <defs>
       <path d="M 0 0 
L 0 3.5 
" id="md01d05335a" style="stroke:#000000;stroke-width:0.8;"/>
      </defs>
      <g>
       <use style="stroke:#000000;stroke-width:0.8;" x="59.612841" xlink:href="#md01d05335a" y="275.285697"/>
      </g>
     </g>
     <g id="text_1">
      <!-- 0.0 -->
      <g transform="translate(51.661278 289.884134)scale(0.1 -0.1)">
       <defs>
        <path d="M 31.78125 66.40625 
Q 24.171875 66.40625 20.328125 58.90625 
Q 16.5 51.421875 16.5 36.375 
Q 16.5 21.390625 20.328125 13.890625 
Q 24.171875 6.390625 31.78125 6.390625 
Q 39.453125 6.390625 43.28125 13.890625 
Q 47.125 21.390625 47.125 36.375 
Q 47.125 51.421875 43.28125 58.90625 
Q 39.453125 66.40625 31.78125 66.40625 
z
M 31.78125 74.21875 
Q 44.046875 74.21875 50.515625 64.515625 
Q 56.984375 54.828125 56.984375 36.375 
Q 56.984375 17.96875 50.515625 8.265625 
Q 44.046875 -1.421875 31.78125 -1.421875 
Q 19.53125 -1.421875 13.0625 8.265625 
Q 6.59375 17.96875 6.59375 36.375 
Q 6.59375 54.828125 13.0625 64.515625 
Q 19.53125 74.21875 31.78125 74.21875 
z
" id="DejaVuSans-48"/>
        <path d="M 10.6875 12.40625 
L 21 12.40625 
L 21 0 
L 10.6875 0 
z
" id="DejaVuSans-46"/>
       </defs>
       <use xlink:href="#DejaVuSans-48"/>
       <use x="63.623047" xlink:href="#DejaVuSans-46"/>
       <use x="95.410156" xlink:href="#DejaVuSans-48"/>
      </g>
     </g>
    </g>
    <g id="xtick_2">
     <g id="line2d_2">
      <g>
       <use style="stroke:#000000;stroke-width:0.8;" x="127.249205" xlink:href="#md01d05335a" y="275.285697"/>
      </g>
     </g>
     <g id="text_2">
      <!-- 0.2 -->
      <g transform="translate(119.297642 289.884134)scale(0.1 -0.1)">
       <defs>
        <path d="M 19.1875 8.296875 
L 53.609375 8.296875 
L 53.609375 0 
L 7.328125 0 
L 7.328125 8.296875 
Q 12.9375 14.109375 22.625 23.890625 
Q 32.328125 33.6875 34.8125 36.53125 
Q 39.546875 41.84375 41.421875 45.53125 
Q 43.3125 49.21875 43.3125 52.78125 
Q 43.3125 58.59375 39.234375 62.25 
Q 35.15625 65.921875 28.609375 65.921875 
Q 23.96875 65.921875 18.8125 64.3125 
Q 13.671875 62.703125 7.8125 59.421875 
L 7.8125 69.390625 
Q 13.765625 71.78125 18.9375 73 
Q 24.125 74.21875 28.421875 74.21875 
Q 39.75 74.21875 46.484375 68.546875 
Q 53.21875 62.890625 53.21875 53.421875 
Q 53.21875 48.921875 51.53125 44.890625 
Q 49.859375 40.875 45.40625 35.40625 
Q 44.1875 33.984375 37.640625 27.21875 
Q 31.109375 20.453125 19.1875 8.296875 
z
" id="DejaVuSans-50"/>
       </defs>
       <use xlink:href="#DejaVuSans-48"/>
       <use x="63.623047" xlink:href="#DejaVuSans-46"/>
       <use x="95.410156" xlink:href="#DejaVuSans-50"/>
      </g>
     </g>
    </g>
    <g id="xtick_3">
     <g id="line2d_3">
      <g>
       <use style="stroke:#000000;stroke-width:0.8;" x="194.885568" xlink:href="#md01d05335a" y="275.285697"/>
      </g>
     </g>
     <g id="text_3">
      <!-- 0.4 -->
      <g transform="translate(186.934006 289.884134)scale(0.1 -0.1)">
       <defs>
        <path d="M 37.796875 64.3125 
L 12.890625 25.390625 
L 37.796875 25.390625 
z
M 35.203125 72.90625 
L 47.609375 72.90625 
L 47.609375 25.390625 
L 58.015625 25.390625 
L 58.015625 17.1875 
L 47.609375 17.1875 
L 47.609375 0 
L 37.796875 0 
L 37.796875 17.1875 
L 4.890625 17.1875 
L 4.890625 26.703125 
z
" id="DejaVuSans-52"/>
       </defs>
       <use xlink:href="#DejaVuSans-48"/>
       <use x="63.623047" xlink:href="#DejaVuSans-46"/>
       <use x="95.410156" xlink:href="#DejaVuSans-52"/>
      </g>
     </g>
    </g>
    <g id="xtick_4">
     <g id="line2d_4">
      <g>
       <use style="stroke:#000000;stroke-width:0.8;" x="262.521932" xlink:href="#md01d05335a" y="275.285697"/>
      </g>
     </g>
     <g id="text_4">
      <!-- 0.6 -->
      <g transform="translate(254.570369 289.884134)scale(0.1 -0.1)">
       <defs>
        <path d="M 33.015625 40.375 
Q 26.375 40.375 22.484375 35.828125 
Q 18.609375 31.296875 18.609375 23.390625 
Q 18.609375 15.53125 22.484375 10.953125 
Q 26.375 6.390625 33.015625 6.390625 
Q 39.65625 6.390625 43.53125 10.953125 
Q 47.40625 15.53125 47.40625 23.390625 
Q 47.40625 31.296875 43.53125 35.828125 
Q 39.65625 40.375 33.015625 40.375 
z
M 52.59375 71.296875 
L 52.59375 62.3125 
Q 48.875 64.0625 45.09375 64.984375 
Q 41.3125 65.921875 37.59375 65.921875 
Q 27.828125 65.921875 22.671875 59.328125 
Q 17.53125 52.734375 16.796875 39.40625 
Q 19.671875 43.65625 24.015625 45.921875 
Q 28.375 48.1875 33.59375 48.1875 
Q 44.578125 48.1875 50.953125 41.515625 
Q 57.328125 34.859375 57.328125 23.390625 
Q 57.328125 12.15625 50.6875 5.359375 
Q 44.046875 -1.421875 33.015625 -1.421875 
Q 20.359375 -1.421875 13.671875 8.265625 
Q 6.984375 17.96875 6.984375 36.375 
Q 6.984375 53.65625 15.1875 63.9375 
Q 23.390625 74.21875 37.203125 74.21875 
Q 40.921875 74.21875 44.703125 73.484375 
Q 48.484375 72.75 52.59375 71.296875 
z
" id="DejaVuSans-54"/>
       </defs>
       <use xlink:href="#DejaVuSans-48"/>
       <use x="63.623047" xlink:href="#DejaVuSans-46"/>
       <use x="95.410156" xlink:href="#DejaVuSans-54"/>
      </g>
     </g>
    </g>
    <g id="xtick_5">
     <g id="line2d_5">
      <g>
       <use style="stroke:#000000;stroke-width:0.8;" x="330.158295" xlink:href="#md01d05335a" y="275.285697"/>
      </g>
     </g>
     <g id="text_5">
      <!-- 0.8 -->
      <g transform="translate(322.206733 289.884134)scale(0.1 -0.1)">
       <defs>
        <path d="M 31.78125 34.625 
Q 24.75 34.625 20.71875 30.859375 
Q 16.703125 27.09375 16.703125 20.515625 
Q 16.703125 13.921875 20.71875 10.15625 
Q 24.75 6.390625 31.78125 6.390625 
Q 38.8125 6.390625 42.859375 10.171875 
Q 46.921875 13.96875 46.921875 20.515625 
Q 46.921875 27.09375 42.890625 30.859375 
Q 38.875 34.625 31.78125 34.625 
z
M 21.921875 38.8125 
Q 15.578125 40.375 12.03125 44.71875 
Q 8.5 49.078125 8.5 55.328125 
Q 8.5 64.0625 14.71875 69.140625 
Q 20.953125 74.21875 31.78125 74.21875 
Q 42.671875 74.21875 48.875 69.140625 
Q 55.078125 64.0625 55.078125 55.328125 
Q 55.078125 49.078125 51.53125 44.71875 
Q 48 40.375 41.703125 38.8125 
Q 48.828125 37.15625 52.796875 32.3125 
Q 56.78125 27.484375 56.78125 20.515625 
Q 56.78125 9.90625 50.3125 4.234375 
Q 43.84375 -1.421875 31.78125 -1.421875 
Q 19.734375 -1.421875 13.25 4.234375 
Q 6.78125 9.90625 6.78125 20.515625 
Q 6.78125 27.484375 10.78125 32.3125 
Q 14.796875 37.15625 21.921875 38.8125 
z
M 18.3125 54.390625 
Q 18.3125 48.734375 21.84375 45.5625 
Q 25.390625 42.390625 31.78125 42.390625 
Q 38.140625 42.390625 41.71875 45.5625 
Q 45.3125 48.734375 45.3125 54.390625 
Q 45.3125 60.0625 41.71875 63.234375 
Q 38.140625 66.40625 31.78125 66.40625 
Q 25.390625 66.40625 21.84375 63.234375 
Q 18.3125 60.0625 18.3125 54.390625 
z
" id="DejaVuSans-56"/>
       </defs>
       <use xlink:href="#DejaVuSans-48"/>
       <use x="63.623047" xlink:href="#DejaVuSans-46"/>
       <use x="95.410156" xlink:href="#DejaVuSans-56"/>
      </g>
     </g>
    </g>
    <g id="xtick_6">
     <g id="line2d_6">
      <g>
       <use style="stroke:#000000;stroke-width:0.8;" x="397.794659" xlink:href="#md01d05335a" y="275.285697"/>
      </g>
     </g>
     <g id="text_6">
      <!-- 1.0 -->
      <g transform="translate(389.843097 289.884134)scale(0.1 -0.1)">
       <defs>
        <path d="M 12.40625 8.296875 
L 28.515625 8.296875 
L 28.515625 63.921875 
L 10.984375 60.40625 
L 10.984375 69.390625 
L 28.421875 72.90625 
L 38.28125 72.90625 
L 38.28125 8.296875 
L 54.390625 8.296875 
L 54.390625 0 
L 12.40625 0 
z
" id="DejaVuSans-49"/>
       </defs>
       <use xlink:href="#DejaVuSans-49"/>
       <use x="63.623047" xlink:href="#DejaVuSans-46"/>
       <use x="95.410156" xlink:href="#DejaVuSans-48"/>
      </g>
     </g>
    </g>
    <g id="text_7">
     <!-- cutoff -->
     <g transform="translate(214.245938 303.562259)scale(0.1 -0.1)">
      <defs>
       <path d="M 48.78125 52.59375 
L 48.78125 44.1875 
Q 44.96875 46.296875 41.140625 47.34375 
Q 37.3125 48.390625 33.40625 48.390625 
Q 24.65625 48.390625 19.8125 42.84375 
Q 14.984375 37.3125 14.984375 27.296875 
Q 14.984375 17.28125 19.8125 11.734375 
Q 24.65625 6.203125 33.40625 6.203125 
Q 37.3125 6.203125 41.140625 7.25 
Q 44.96875 8.296875 48.78125 10.40625 
L 48.78125 2.09375 
Q 45.015625 0.34375 40.984375 -0.53125 
Q 36.96875 -1.421875 32.421875 -1.421875 
Q 20.0625 -1.421875 12.78125 6.34375 
Q 5.515625 14.109375 5.515625 27.296875 
Q 5.515625 40.671875 12.859375 48.328125 
Q 20.21875 56 33.015625 56 
Q 37.15625 56 41.109375 55.140625 
Q 45.0625 54.296875 48.78125 52.59375 
z
" id="DejaVuSans-99"/>
       <path d="M 8.5 21.578125 
L 8.5 54.6875 
L 17.484375 54.6875 
L 17.484375 21.921875 
Q 17.484375 14.15625 20.5 10.265625 
Q 23.53125 6.390625 29.59375 6.390625 
Q 36.859375 6.390625 41.078125 11.03125 
Q 45.3125 15.671875 45.3125 23.6875 
L 45.3125 54.6875 
L 54.296875 54.6875 
L 54.296875 0 
L 45.3125 0 
L 45.3125 8.40625 
Q 42.046875 3.421875 37.71875 1 
Q 33.40625 -1.421875 27.6875 -1.421875 
Q 18.265625 -1.421875 13.375 4.4375 
Q 8.5 10.296875 8.5 21.578125 
z
M 31.109375 56 
z
" id="DejaVuSans-117"/>
       <path d="M 18.3125 70.21875 
L 18.3125 54.6875 
L 36.8125 54.6875 
L 36.8125 47.703125 
L 18.3125 47.703125 
L 18.3125 18.015625 
Q 18.3125 11.328125 20.140625 9.421875 
Q 21.96875 7.515625 27.59375 7.515625 
L 36.8125 7.515625 
L 36.8125 0 
L 27.59375 0 
Q 17.1875 0 13.234375 3.875 
Q 9.28125 7.765625 9.28125 18.015625 
L 9.28125 47.703125 
L 2.6875 47.703125 
L 2.6875 54.6875 
L 9.28125 54.6875 
L 9.28125 70.21875 
z
" id="DejaVuSans-116"/>
       <path d="M 30.609375 48.390625 
Q 23.390625 48.390625 19.1875 42.75 
Q 14.984375 37.109375 14.984375 27.296875 
Q 14.984375 17.484375 19.15625 11.84375 
Q 23.34375 6.203125 30.609375 6.203125 
Q 37.796875 6.203125 41.984375 11.859375 
Q 46.1875 17.53125 46.1875 27.296875 
Q 46.1875 37.015625 41.984375 42.703125 
Q 37.796875 48.390625 30.609375 48.390625 
z
M 30.609375 56 
Q 42.328125 56 49.015625 48.375 
Q 55.71875 40.765625 55.71875 27.296875 
Q 55.71875 13.875 49.015625 6.21875 
Q 42.328125 -1.421875 30.609375 -1.421875 
Q 18.84375 -1.421875 12.171875 6.21875 
Q 5.515625 13.875 5.515625 27.296875 
Q 5.515625 40.765625 12.171875 48.375 
Q 18.84375 56 30.609375 56 
z
" id="DejaVuSans-111"/>
       <path d="M 37.109375 75.984375 
L 37.109375 68.5 
L 28.515625 68.5 
Q 23.6875 68.5 21.796875 66.546875 
Q 19.921875 64.59375 19.921875 59.515625 
L 19.921875 54.6875 
L 34.71875 54.6875 
L 34.71875 47.703125 
L 19.921875 47.703125 
L 19.921875 0 
L 10.890625 0 
L 10.890625 47.703125 
L 2.296875 47.703125 
L 2.296875 54.6875 
L 10.890625 54.6875 
L 10.890625 58.5 
Q 10.890625 67.625 15.140625 71.796875 
Q 19.390625 75.984375 28.609375 75.984375 
z
" id="DejaVuSans-102"/>
      </defs>
      <use xlink:href="#DejaVuSans-99"/>
      <use x="54.980469" xlink:href="#DejaVuSans-117"/>
      <use x="118.359375" xlink:href="#DejaVuSans-116"/>
      <use x="157.568359" xlink:href="#DejaVuSans-111"/>
      <use x="218.75" xlink:href="#DejaVuSans-102"/>
      <use x="253.955078" xlink:href="#DejaVuSans-102"/>
     </g>
    </g>
   </g>
   <g id="matplotlib.axis_2">
    <g id="ytick_1">
     <g id="line2d_7">
      <defs>
       <path d="M 0 0 
L -3.5 0 
" id="mc835be9542" style="stroke:#000000;stroke-width:0.8;"/>
      </defs>
      <g>
       <use style="stroke:#000000;stroke-width:0.8;" x="50.14375" xlink:href="#mc835be9542" y="251.960436"/>
      </g>
     </g>
     <g id="text_8">
      <!-- 0.40 -->
      <g transform="translate(20.878125 255.759655)scale(0.1 -0.1)">
       <use xlink:href="#DejaVuSans-48"/>
       <use x="63.623047" xlink:href="#DejaVuSans-46"/>
       <use x="95.410156" xlink:href="#DejaVuSans-52"/>
       <use x="159.033203" xlink:href="#DejaVuSans-48"/>
      </g>
     </g>
    </g>
    <g id="ytick_2">
     <g id="line2d_8">
      <g>
       <use style="stroke:#000000;stroke-width:0.8;" x="50.14375" xlink:href="#mc835be9542" y="203.768193"/>
      </g>
     </g>
     <g id="text_9">
      <!-- 0.45 -->
      <g transform="translate(20.878125 207.567412)scale(0.1 -0.1)">
       <defs>
        <path d="M 10.796875 72.90625 
L 49.515625 72.90625 
L 49.515625 64.59375 
L 19.828125 64.59375 
L 19.828125 46.734375 
Q 21.96875 47.46875 24.109375 47.828125 
Q 26.265625 48.1875 28.421875 48.1875 
Q 40.625 48.1875 47.75 41.5 
Q 54.890625 34.8125 54.890625 23.390625 
Q 54.890625 11.625 47.5625 5.09375 
Q 40.234375 -1.421875 26.90625 -1.421875 
Q 22.3125 -1.421875 17.546875 -0.640625 
Q 12.796875 0.140625 7.71875 1.703125 
L 7.71875 11.625 
Q 12.109375 9.234375 16.796875 8.0625 
Q 21.484375 6.890625 26.703125 6.890625 
Q 35.15625 6.890625 40.078125 11.328125 
Q 45.015625 15.765625 45.015625 23.390625 
Q 45.015625 31 40.078125 35.4375 
Q 35.15625 39.890625 26.703125 39.890625 
Q 22.75 39.890625 18.8125 39.015625 
Q 14.890625 38.140625 10.796875 36.28125 
z
" id="DejaVuSans-53"/>
       </defs>
       <use xlink:href="#DejaVuSans-48"/>
       <use x="63.623047" xlink:href="#DejaVuSans-46"/>
       <use x="95.410156" xlink:href="#DejaVuSans-52"/>
       <use x="159.033203" xlink:href="#DejaVuSans-53"/>
      </g>
     </g>
    </g>
    <g id="ytick_3">
     <g id="line2d_9">
      <g>
       <use style="stroke:#000000;stroke-width:0.8;" x="50.14375" xlink:href="#mc835be9542" y="155.575949"/>
      </g>
     </g>
     <g id="text_10">
      <!-- 0.50 -->
      <g transform="translate(20.878125 159.375168)scale(0.1 -0.1)">
       <use xlink:href="#DejaVuSans-48"/>
       <use x="63.623047" xlink:href="#DejaVuSans-46"/>
       <use x="95.410156" xlink:href="#DejaVuSans-53"/>
       <use x="159.033203" xlink:href="#DejaVuSans-48"/>
      </g>
     </g>
    </g>
    <g id="ytick_4">
     <g id="line2d_10">
      <g>
       <use style="stroke:#000000;stroke-width:0.8;" x="50.14375" xlink:href="#mc835be9542" y="107.383706"/>
      </g>
     </g>
     <g id="text_11">
      <!-- 0.55 -->
      <g transform="translate(20.878125 111.182925)scale(0.1 -0.1)">
       <use xlink:href="#DejaVuSans-48"/>
       <use x="63.623047" xlink:href="#DejaVuSans-46"/>
       <use x="95.410156" xlink:href="#DejaVuSans-53"/>
       <use x="159.033203" xlink:href="#DejaVuSans-53"/>
      </g>
     </g>
    </g>
    <g id="ytick_5">
     <g id="line2d_11">
      <g>
       <use style="stroke:#000000;stroke-width:0.8;" x="50.14375" xlink:href="#mc835be9542" y="59.191462"/>
      </g>
     </g>
     <g id="text_12">
      <!-- 0.60 -->
      <g transform="translate(20.878125 62.990681)scale(0.1 -0.1)">
       <use xlink:href="#DejaVuSans-48"/>
       <use x="63.623047" xlink:href="#DejaVuSans-46"/>
       <use x="95.410156" xlink:href="#DejaVuSans-54"/>
       <use x="159.033203" xlink:href="#DejaVuSans-48"/>
      </g>
     </g>
    </g>
    <g id="ytick_6">
     <g id="line2d_12">
      <g>
       <use style="stroke:#000000;stroke-width:0.8;" x="50.14375" xlink:href="#mc835be9542" y="10.999219"/>
      </g>
     </g>
     <g id="text_13">
      <!-- 0.65 -->
      <g transform="translate(20.878125 14.798438)scale(0.1 -0.1)">
       <use xlink:href="#DejaVuSans-48"/>
       <use x="63.623047" xlink:href="#DejaVuSans-46"/>
       <use x="95.410156" xlink:href="#DejaVuSans-54"/>
       <use x="159.033203" xlink:href="#DejaVuSans-53"/>
      </g>
     </g>
    </g>
    <g id="text_14">
     <!-- performance -->
     <g transform="translate(14.798438 174.252353)rotate(-90)scale(0.1 -0.1)">
      <defs>
       <path d="M 18.109375 8.203125 
L 18.109375 -20.796875 
L 9.078125 -20.796875 
L 9.078125 54.6875 
L 18.109375 54.6875 
L 18.109375 46.390625 
Q 20.953125 51.265625 25.265625 53.625 
Q 29.59375 56 35.59375 56 
Q 45.5625 56 51.78125 48.09375 
Q 58.015625 40.1875 58.015625 27.296875 
Q 58.015625 14.40625 51.78125 6.484375 
Q 45.5625 -1.421875 35.59375 -1.421875 
Q 29.59375 -1.421875 25.265625 0.953125 
Q 20.953125 3.328125 18.109375 8.203125 
z
M 48.6875 27.296875 
Q 48.6875 37.203125 44.609375 42.84375 
Q 40.53125 48.484375 33.40625 48.484375 
Q 26.265625 48.484375 22.1875 42.84375 
Q 18.109375 37.203125 18.109375 27.296875 
Q 18.109375 17.390625 22.1875 11.75 
Q 26.265625 6.109375 33.40625 6.109375 
Q 40.53125 6.109375 44.609375 11.75 
Q 48.6875 17.390625 48.6875 27.296875 
z
" id="DejaVuSans-112"/>
       <path d="M 56.203125 29.59375 
L 56.203125 25.203125 
L 14.890625 25.203125 
Q 15.484375 15.921875 20.484375 11.0625 
Q 25.484375 6.203125 34.421875 6.203125 
Q 39.59375 6.203125 44.453125 7.46875 
Q 49.3125 8.734375 54.109375 11.28125 
L 54.109375 2.78125 
Q 49.265625 0.734375 44.1875 -0.34375 
Q 39.109375 -1.421875 33.890625 -1.421875 
Q 20.796875 -1.421875 13.15625 6.1875 
Q 5.515625 13.8125 5.515625 26.8125 
Q 5.515625 40.234375 12.765625 48.109375 
Q 20.015625 56 32.328125 56 
Q 43.359375 56 49.78125 48.890625 
Q 56.203125 41.796875 56.203125 29.59375 
z
M 47.21875 32.234375 
Q 47.125 39.59375 43.09375 43.984375 
Q 39.0625 48.390625 32.421875 48.390625 
Q 24.90625 48.390625 20.390625 44.140625 
Q 15.875 39.890625 15.1875 32.171875 
z
" id="DejaVuSans-101"/>
       <path d="M 41.109375 46.296875 
Q 39.59375 47.171875 37.8125 47.578125 
Q 36.03125 48 33.890625 48 
Q 26.265625 48 22.1875 43.046875 
Q 18.109375 38.09375 18.109375 28.8125 
L 18.109375 0 
L 9.078125 0 
L 9.078125 54.6875 
L 18.109375 54.6875 
L 18.109375 46.1875 
Q 20.953125 51.171875 25.484375 53.578125 
Q 30.03125 56 36.53125 56 
Q 37.453125 56 38.578125 55.875 
Q 39.703125 55.765625 41.0625 55.515625 
z
" id="DejaVuSans-114"/>
       <path d="M 52 44.1875 
Q 55.375 50.25 60.0625 53.125 
Q 64.75 56 71.09375 56 
Q 79.640625 56 84.28125 50.015625 
Q 88.921875 44.046875 88.921875 33.015625 
L 88.921875 0 
L 79.890625 0 
L 79.890625 32.71875 
Q 79.890625 40.578125 77.09375 44.375 
Q 74.3125 48.1875 68.609375 48.1875 
Q 61.625 48.1875 57.5625 43.546875 
Q 53.515625 38.921875 53.515625 30.90625 
L 53.515625 0 
L 44.484375 0 
L 44.484375 32.71875 
Q 44.484375 40.625 41.703125 44.40625 
Q 38.921875 48.1875 33.109375 48.1875 
Q 26.21875 48.1875 22.15625 43.53125 
Q 18.109375 38.875 18.109375 30.90625 
L 18.109375 0 
L 9.078125 0 
L 9.078125 54.6875 
L 18.109375 54.6875 
L 18.109375 46.1875 
Q 21.1875 51.21875 25.484375 53.609375 
Q 29.78125 56 35.6875 56 
Q 41.65625 56 45.828125 52.96875 
Q 50 49.953125 52 44.1875 
z
" id="DejaVuSans-109"/>
       <path d="M 34.28125 27.484375 
Q 23.390625 27.484375 19.1875 25 
Q 14.984375 22.515625 14.984375 16.5 
Q 14.984375 11.71875 18.140625 8.90625 
Q 21.296875 6.109375 26.703125 6.109375 
Q 34.1875 6.109375 38.703125 11.40625 
Q 43.21875 16.703125 43.21875 25.484375 
L 43.21875 27.484375 
z
M 52.203125 31.203125 
L 52.203125 0 
L 43.21875 0 
L 43.21875 8.296875 
Q 40.140625 3.328125 35.546875 0.953125 
Q 30.953125 -1.421875 24.3125 -1.421875 
Q 15.921875 -1.421875 10.953125 3.296875 
Q 6 8.015625 6 15.921875 
Q 6 25.140625 12.171875 29.828125 
Q 18.359375 34.515625 30.609375 34.515625 
L 43.21875 34.515625 
L 43.21875 35.40625 
Q 43.21875 41.609375 39.140625 45 
Q 35.0625 48.390625 27.6875 48.390625 
Q 23 48.390625 18.546875 47.265625 
Q 14.109375 46.140625 10.015625 43.890625 
L 10.015625 52.203125 
Q 14.9375 54.109375 19.578125 55.046875 
Q 24.21875 56 28.609375 56 
Q 40.484375 56 46.34375 49.84375 
Q 52.203125 43.703125 52.203125 31.203125 
z
" id="DejaVuSans-97"/>
       <path d="M 54.890625 33.015625 
L 54.890625 0 
L 45.90625 0 
L 45.90625 32.71875 
Q 45.90625 40.484375 42.875 44.328125 
Q 39.84375 48.1875 33.796875 48.1875 
Q 26.515625 48.1875 22.3125 43.546875 
Q 18.109375 38.921875 18.109375 30.90625 
L 18.109375 0 
L 9.078125 0 
L 9.078125 54.6875 
L 18.109375 54.6875 
L 18.109375 46.1875 
Q 21.34375 51.125 25.703125 53.5625 
Q 30.078125 56 35.796875 56 
Q 45.21875 56 50.046875 50.171875 
Q 54.890625 44.34375 54.890625 33.015625 
z
" id="DejaVuSans-110"/>
      </defs>
      <use xlink:href="#DejaVuSans-112"/>
      <use x="63.476562" xlink:href="#DejaVuSans-101"/>
      <use x="125" xlink:href="#DejaVuSans-114"/>
      <use x="166.113281" xlink:href="#DejaVuSans-102"/>
      <use x="201.318359" xlink:href="#DejaVuSans-111"/>
      <use x="262.5" xlink:href="#DejaVuSans-114"/>
      <use x="301.863281" xlink:href="#DejaVuSans-109"/>
      <use x="399.275391" xlink:href="#DejaVuSans-97"/>
      <use x="460.554688" xlink:href="#DejaVuSans-110"/>
      <use x="523.933594" xlink:href="#DejaVuSans-99"/>
      <use x="578.914062" xlink:href="#DejaVuSans-101"/>
     </g>
    </g>
   </g>
   <g id="line2d_13">
    <path clip-path="url(#p2a8a878662)" d="M 66.376477 89.103889 
L 73.140114 113.302051 
L 79.90375 113.302051 
L 86.667386 113.302051 
L 93.431023 101.097761 
L 100.194659 138.364434 
L 106.958295 43.127381 
L 113.721932 43.127381 
L 120.485568 43.127381 
L 127.249205 43.127381 
L 134.012841 89.103889 
L 140.776477 89.103889 
L 147.540114 177.682483 
L 154.30375 177.682483 
L 161.067386 54.33174 
L 167.831023 89.103889 
L 174.594659 89.103889 
L 181.358295 89.103889 
L 188.121932 138.364434 
L 194.885568 89.103889 
L 201.649205 138.364434 
L 208.412841 138.364434 
L 215.176477 138.364434 
L 221.940114 138.364434 
L 228.70375 164.338175 
L 235.467386 138.364434 
L 242.231023 138.364434 
L 248.994659 138.364434 
L 255.758295 138.364434 
L 262.521932 138.364434 
L 269.285568 138.364434 
L 276.049205 138.364434 
L 282.812841 138.364434 
L 289.576477 138.364434 
L 296.340114 138.364434 
L 303.10375 138.364434 
L 309.867386 138.364434 
L 316.631023 138.364434 
L 323.394659 138.364434 
L 330.158295 138.364434 
L 336.921932 138.364434 
L 343.685568 138.364434 
L 350.449205 138.364434 
L 357.212841 138.364434 
L 363.976477 138.364434 
L 370.740114 138.364434 
L 377.50375 138.364434 
L 384.267386 138.364434 
L 391.031023 138.364434 
" style="fill:none;stroke:#f26b38;stroke-dasharray:7.4,3.2;stroke-dashoffset:0;stroke-width:2;"/>
   </g>
   <g id="line2d_14">
    <path clip-path="url(#p2a8a878662)" d="M 66.376477 138.364434 
L 73.140114 113.302051 
L 79.90375 113.302051 
L 86.667386 113.302051 
L 93.431023 113.302051 
L 100.194659 151.234306 
L 106.958295 151.234306 
L 113.721932 151.234306 
L 120.485568 151.234306 
L 127.249205 113.302051 
L 134.012841 101.097761 
L 140.776477 191.273907 
L 147.540114 191.273907 
L 154.30375 191.273907 
L 161.067386 191.273907 
L 167.831023 177.682483 
L 174.594659 164.338175 
L 181.358295 164.338175 
L 188.121932 164.338175 
L 194.885568 164.338175 
L 201.649205 164.338175 
L 208.412841 164.338175 
L 215.176477 164.338175 
L 221.940114 164.338175 
L 228.70375 164.338175 
L 235.467386 164.338175 
L 242.231023 164.338175 
L 248.994659 164.338175 
L 255.758295 164.338175 
L 262.521932 164.338175 
L 269.285568 164.338175 
L 276.049205 164.338175 
L 282.812841 164.338175 
L 289.576477 164.338175 
L 296.340114 164.338175 
L 303.10375 164.338175 
L 309.867386 164.338175 
L 316.631023 164.338175 
L 323.394659 164.338175 
L 330.158295 164.338175 
L 336.921932 164.338175 
L 343.685568 164.338175 
L 350.449205 164.338175 
L 357.212841 164.338175 
L 363.976477 164.338175 
L 370.740114 164.338175 
L 377.50375 164.338175 
L 384.267386 164.338175 
L 391.031023 164.338175 
" style="fill:none;stroke:#2f9599;stroke-dasharray:2,3.3;stroke-dashoffset:0;stroke-width:2;"/>
   </g>
   <g id="line2d_15">
    <path clip-path="url(#p2a8a878662)" d="M 66.376477 125.722347 
L 73.140114 125.722347 
L 79.90375 125.722347 
L 86.667386 125.722347 
L 93.431023 125.722347 
L 100.194659 138.364434 
L 106.958295 138.364434 
L 113.721932 138.364434 
L 120.485568 151.234306 
L 127.249205 125.722347 
L 134.012841 125.722347 
L 140.776477 138.364434 
L 147.540114 138.364434 
L 154.30375 138.364434 
L 161.067386 113.302051 
L 167.831023 138.364434 
L 174.594659 138.364434 
L 181.358295 125.722347 
L 188.121932 43.127381 
L 194.885568 32.108218 
L 201.649205 32.108218 
L 208.412841 21.269697 
L 215.176477 21.269697 
L 221.940114 65.726004 
L 228.70375 21.269697 
L 235.467386 21.269697 
L 242.231023 21.269697 
L 248.994659 32.108218 
L 255.758295 21.269697 
L 262.521932 65.726004 
L 269.285568 65.726004 
L 276.049205 65.726004 
L 282.812841 65.726004 
L 289.576477 263.189697 
L 296.340114 263.189697 
L 303.10375 263.189697 
L 309.867386 263.189697 
L 316.631023 263.189697 
L 323.394659 263.189697 
L 330.158295 263.189697 
L 336.921932 263.189697 
L 343.685568 263.189697 
L 350.449205 263.189697 
L 357.212841 263.189697 
L 363.976477 263.189697 
L 370.740114 263.189697 
L 377.50375 263.189697 
L 384.267386 263.189697 
L 391.031023 263.189697 
" style="fill:none;stroke:#a7226e;stroke-dasharray:12.8,3.2,2,3.2;stroke-dashoffset:0;stroke-width:2;"/>
   </g>
   <g id="patch_3">
    <path d="M 50.14375 275.285697 
L 50.14375 9.173697 
" style="fill:none;stroke:#000000;stroke-linecap:square;stroke-linejoin:miter;stroke-width:0.8;"/>
   </g>
   <g id="patch_4">
    <path d="M 407.26375 275.285697 
L 407.26375 9.173697 
" style="fill:none;stroke:#000000;stroke-linecap:square;stroke-linejoin:miter;stroke-width:0.8;"/>
   </g>
   <g id="patch_5">
    <path d="M 50.14375 275.285697 
L 407.26375 275.285697 
" style="fill:none;stroke:#000000;stroke-linecap:square;stroke-linejoin:miter;stroke-width:0.8;"/>
   </g>
   <g id="patch_6">
    <path d="M 50.14375 9.173697 
L 407.26375 9.173697 
" style="fill:none;stroke:#000000;stroke-linecap:square;stroke-linejoin:miter;stroke-width:0.8;"/>
   </g>
   <g id="legend_1">
    <g id="patch_7">
     <path d="M 321.790059 45.864609 
L 402.40575 45.864609 
Q 403.79375 45.864609 403.79375 44.476609 
L 403.79375 14.031697 
Q 403.79375 12.643697 402.40575 12.643697 
L 321.790059 12.643697 
Q 320.402059 12.643697 320.402059 14.031697 
L 320.402059 44.476609 
Q 320.402059 45.864609 321.790059 45.864609 
z
" style="fill:#ffffff;opacity:0.8;stroke:#cccccc;stroke-linejoin:miter;"/>
    </g>
    <g id="PathCollection_5">
     <defs>
      <path d="M 0 3 
C 0.795609 3 1.55874 2.683901 2.12132 2.12132 
C 2.683901 1.55874 3 0.795609 3 0 
C 3 -0.795609 2.683901 -1.55874 2.12132 -2.12132 
C 1.55874 -2.683901 0.795609 -3 0 -3 
C -0.795609 -3 -1.55874 -2.683901 -2.12132 -2.12132 
C -2.683901 -1.55874 -3 -0.795609 -3 0 
C -3 0.795609 -2.683901 1.55874 -2.12132 2.12132 
C -1.55874 2.683901 -0.795609 3 0 3 
z
" id="m90f8ae6fe3" style="stroke:#f26b38;"/>
     </defs>
     <g>
      <use style="fill:#f26b38;stroke:#f26b38;" x="330.118059" xlink:href="#m90f8ae6fe3" y="18.871262"/>
     </g>
    </g>
    <g id="text_15">
     <!-- mean_err -->
     <g transform="translate(342.610059 20.693012)scale(0.0694 -0.0694)">
      <defs>
       <path d="M 50.984375 -16.609375 
L 50.984375 -23.578125 
L -0.984375 -23.578125 
L -0.984375 -16.609375 
z
" id="DejaVuSans-95"/>
      </defs>
      <use xlink:href="#DejaVuSans-109"/>
      <use x="97.412109" xlink:href="#DejaVuSans-101"/>
      <use x="158.935547" xlink:href="#DejaVuSans-97"/>
      <use x="220.214844" xlink:href="#DejaVuSans-110"/>
      <use x="283.59375" xlink:href="#DejaVuSans-95"/>
      <use x="333.59375" xlink:href="#DejaVuSans-101"/>
      <use x="395.117188" xlink:href="#DejaVuSans-114"/>
      <use x="434.480469" xlink:href="#DejaVuSans-114"/>
     </g>
    </g>
    <g id="PathCollection_6">
     <defs>
      <path d="M -1.5 3 
L 0 1.5 
L 1.5 3 
L 3 1.5 
L 1.5 0 
L 3 -1.5 
L 1.5 -3 
L 0 -1.5 
L -1.5 -3 
L -3 -1.5 
L -1.5 0 
L -3 1.5 
z
" id="m85ebee31cd" style="stroke:#2f9599;"/>
     </defs>
     <g>
      <use style="fill:#2f9599;stroke:#2f9599;" x="330.118059" xlink:href="#m85ebee31cd" y="29.2509"/>
     </g>
    </g>
    <g id="text_16">
     <!-- mean_sq_err -->
     <g transform="translate(342.610059 31.07265)scale(0.0694 -0.0694)">
      <defs>
       <path d="M 44.28125 53.078125 
L 44.28125 44.578125 
Q 40.484375 46.53125 36.375 47.5 
Q 32.28125 48.484375 27.875 48.484375 
Q 21.1875 48.484375 17.84375 46.4375 
Q 14.5 44.390625 14.5 40.28125 
Q 14.5 37.15625 16.890625 35.375 
Q 19.28125 33.59375 26.515625 31.984375 
L 29.59375 31.296875 
Q 39.15625 29.25 43.1875 25.515625 
Q 47.21875 21.78125 47.21875 15.09375 
Q 47.21875 7.46875 41.1875 3.015625 
Q 35.15625 -1.421875 24.609375 -1.421875 
Q 20.21875 -1.421875 15.453125 -0.5625 
Q 10.6875 0.296875 5.421875 2 
L 5.421875 11.28125 
Q 10.40625 8.6875 15.234375 7.390625 
Q 20.0625 6.109375 24.8125 6.109375 
Q 31.15625 6.109375 34.5625 8.28125 
Q 37.984375 10.453125 37.984375 14.40625 
Q 37.984375 18.0625 35.515625 20.015625 
Q 33.0625 21.96875 24.703125 23.78125 
L 21.578125 24.515625 
Q 13.234375 26.265625 9.515625 29.90625 
Q 5.8125 33.546875 5.8125 39.890625 
Q 5.8125 47.609375 11.28125 51.796875 
Q 16.75 56 26.8125 56 
Q 31.78125 56 36.171875 55.265625 
Q 40.578125 54.546875 44.28125 53.078125 
z
" id="DejaVuSans-115"/>
       <path d="M 14.796875 27.296875 
Q 14.796875 17.390625 18.875 11.75 
Q 22.953125 6.109375 30.078125 6.109375 
Q 37.203125 6.109375 41.296875 11.75 
Q 45.40625 17.390625 45.40625 27.296875 
Q 45.40625 37.203125 41.296875 42.84375 
Q 37.203125 48.484375 30.078125 48.484375 
Q 22.953125 48.484375 18.875 42.84375 
Q 14.796875 37.203125 14.796875 27.296875 
z
M 45.40625 8.203125 
Q 42.578125 3.328125 38.25 0.953125 
Q 33.9375 -1.421875 27.875 -1.421875 
Q 17.96875 -1.421875 11.734375 6.484375 
Q 5.515625 14.40625 5.515625 27.296875 
Q 5.515625 40.1875 11.734375 48.09375 
Q 17.96875 56 27.875 56 
Q 33.9375 56 38.25 53.625 
Q 42.578125 51.265625 45.40625 46.390625 
L 45.40625 54.6875 
L 54.390625 54.6875 
L 54.390625 -20.796875 
L 45.40625 -20.796875 
z
" id="DejaVuSans-113"/>
      </defs>
      <use xlink:href="#DejaVuSans-109"/>
      <use x="97.412109" xlink:href="#DejaVuSans-101"/>
      <use x="158.935547" xlink:href="#DejaVuSans-97"/>
      <use x="220.214844" xlink:href="#DejaVuSans-110"/>
      <use x="283.59375" xlink:href="#DejaVuSans-95"/>
      <use x="333.59375" xlink:href="#DejaVuSans-115"/>
      <use x="385.693359" xlink:href="#DejaVuSans-113"/>
      <use x="449.169922" xlink:href="#DejaVuSans-95"/>
      <use x="499.169922" xlink:href="#DejaVuSans-101"/>
      <use x="560.693359" xlink:href="#DejaVuSans-114"/>
      <use x="600.056641" xlink:href="#DejaVuSans-114"/>
     </g>
    </g>
    <g id="PathCollection_7">
     <defs>
      <path d="M -2.12132 -2.12132 
L -2.12132 2.12132 
L 2.12132 2.12132 
L 2.12132 -2.12132 
z
" id="m377f05c1b7" style="stroke:#a7226e;"/>
     </defs>
     <g>
      <use style="fill:#a7226e;stroke:#a7226e;" x="330.118059" xlink:href="#m377f05c1b7" y="39.630537"/>
     </g>
    </g>
    <g id="text_17">
     <!-- mean_sqroot_err -->
     <g transform="translate(342.610059 41.452287)scale(0.0694 -0.0694)">
      <use xlink:href="#DejaVuSans-109"/>
      <use x="97.412109" xlink:href="#DejaVuSans-101"/>
      <use x="158.935547" xlink:href="#DejaVuSans-97"/>
      <use x="220.214844" xlink:href="#DejaVuSans-110"/>
      <use x="283.59375" xlink:href="#DejaVuSans-95"/>
      <use x="333.59375" xlink:href="#DejaVuSans-115"/>
      <use x="385.693359" xlink:href="#DejaVuSans-113"/>
      <use x="449.169922" xlink:href="#DejaVuSans-114"/>
      <use x="488.033203" xlink:href="#DejaVuSans-111"/>
      <use x="549.214844" xlink:href="#DejaVuSans-111"/>
      <use x="610.396484" xlink:href="#DejaVuSans-116"/>
      <use x="649.605469" xlink:href="#DejaVuSans-95"/>
      <use x="699.605469" xlink:href="#DejaVuSans-101"/>
      <use x="761.128906" xlink:href="#DejaVuSans-114"/>
      <use x="800.492188" xlink:href="#DejaVuSans-114"/>
     </g>
    </g>
   </g>
  </g>
 </g>
 <defs>
  <clipPath id="p2a8a878662">
   <rect height="266.112" width="357.12" x="50.14375" y="9.173697"/>
  </clipPath>
 </defs>
</svg>
