<?xml version="1.0" encoding="utf-8" standalone="no"?>
<!DOCTYPE svg PUBLIC "-//W3C//DTD SVG 1.1//EN"
  "http://www.w3.org/Graphics/SVG/1.1/DTD/svg11.dtd">
<svg xmlns:xlink="http://www.w3.org/1999/xlink" width="408.10125pt" height="310.86825pt" viewBox="0 0 408.10125 310.86825" xmlns="http://www.w3.org/2000/svg" version="1.1">
 <metadata>
  <rdf:RDF xmlns:dc="http://purl.org/dc/elements/1.1/" xmlns:cc="http://creativecommons.org/ns#" xmlns:rdf="http://www.w3.org/1999/02/22-rdf-syntax-ns#">
   <cc:Work>
    <dc:type rdf:resource="http://purl.org/dc/dcmitype/StillImage"/>
    <dc:date>2022-04-06T14:51:47.918998</dc:date>
    <dc:format>image/svg+xml</dc:format>
    <dc:creator>
     <cc:Agent>
      <dc:title>Matplotlib v3.5.1, https://matplotlib.org/</dc:title>
     </cc:Agent>
    </dc:creator>
   </cc:Work>
  </rdf:RDF>
 </metadata>
 <defs>
  <style type="text/css">*{stroke-linejoin: round; stroke-linecap: butt}</style>
 </defs>
 <g id="figure_1">
  <g id="patch_1">
   <path d="M 0 310.86825 
L 408.10125 310.86825 
L 408.10125 0 
L 0 0 
z
" style="fill: #ffffff"/>
  </g>
  <g id="axes_1">
   <g id="patch_2">
    <path d="M 43.78125 273.312 
L 400.90125 273.312 
L 400.90125 7.2 
L 43.78125 7.2 
z
" style="fill: #ffffff"/>
   </g>
   <g id="PathCollection_1">
    <path d="M 384.668523 144.476486 
C 385.787809 144.476486 386.861402 144.031789 387.652857 143.240334 
C 388.444311 142.448879 388.889008 141.375286 388.889008 140.256 
C 388.889008 139.136714 388.444311 138.063121 387.652857 137.271666 
C 386.861402 136.480211 385.787809 136.035514 384.668523 136.035514 
C 383.549237 136.035514 382.475643 136.480211 381.684189 137.271666 
C 380.892734 138.063121 380.448037 139.136714 380.448037 140.256 
C 380.448037 141.375286 380.892734 142.448879 381.684189 143.240334 
C 382.475643 144.031789 383.549237 144.476486 384.668523 144.476486 
z
" clip-path="url(#pdc32f7a02c)" style="fill: #2ca02c; stroke: #ffffff; stroke-width: 0.525357"/>
    <path d="M 384.668523 140.305451 
C 385.787809 140.305451 386.861402 139.860754 387.652857 139.0693 
C 388.444311 138.277845 388.889008 137.204251 388.889008 136.084966 
C 388.889008 134.96568 388.444311 133.892086 387.652857 133.100631 
C 386.861402 132.309177 385.787809 131.86448 384.668523 131.86448 
C 383.549237 131.86448 382.475643 132.309177 381.684189 133.100631 
C 380.892734 133.892086 380.448037 134.96568 380.448037 136.084966 
C 380.448037 137.204251 380.892734 138.277845 381.684189 139.0693 
C 382.475643 139.860754 383.549237 140.305451 384.668523 140.305451 
z
" clip-path="url(#pdc32f7a02c)" style="fill: #1f77b4; stroke: #ffffff; stroke-width: 0.525357"/>
    <path d="M 384.668523 23.516486 
C 385.787809 23.516486 386.861402 23.071789 387.652857 22.280334 
C 388.444311 21.488879 388.889008 20.415286 388.889008 19.296 
C 388.889008 18.176714 388.444311 17.103121 387.652857 16.311666 
C 386.861402 15.520211 385.787809 15.075514 384.668523 15.075514 
C 383.549237 15.075514 382.475643 15.520211 381.684189 16.311666 
C 380.892734 17.103121 380.448037 18.176714 380.448037 19.296 
C 380.448037 20.415286 380.892734 21.488879 381.684189 22.280334 
C 382.475643 23.071789 383.549237 23.516486 384.668523 23.516486 
z
" clip-path="url(#pdc32f7a02c)" style="fill: #ff7f0e; stroke: #ffffff; stroke-width: 0.525357"/>
    <path d="M 384.668523 100.491031 
C 385.787809 100.491031 386.861402 100.046334 387.652857 99.25488 
C 388.444311 98.463425 388.889008 97.389831 388.889008 96.270545 
C 388.889008 95.15126 388.444311 94.077666 387.652857 93.286211 
C 386.861402 92.494757 385.787809 92.05006 384.668523 92.05006 
C 383.549237 92.05006 382.475643 92.494757 381.684189 93.286211 
C 380.892734 94.077666 380.448037 95.15126 380.448037 96.270545 
C 380.448037 97.389831 380.892734 98.463425 381.684189 99.25488 
C 382.475643 100.046334 383.549237 100.491031 384.668523 100.491031 
z
" clip-path="url(#pdc32f7a02c)" style="fill: #d62728; stroke: #ffffff; stroke-width: 0.525357"/>
    <path d="M 344.086705 148.842415 
C 345.41272 148.842415 346.684604 148.315584 347.622238 147.377949 
C 348.559873 146.440314 349.086705 145.168431 349.086705 143.842415 
C 349.086705 142.5164 348.559873 141.244516 347.622238 140.306881 
C 346.684604 139.369247 345.41272 138.842415 344.086705 138.842415 
C 342.760689 138.842415 341.488805 139.369247 340.551171 140.306881 
C 339.613536 141.244516 339.086705 142.5164 339.086705 143.842415 
C 339.086705 145.168431 339.613536 146.440314 340.551171 147.377949 
C 341.488805 148.315584 342.760689 148.842415 344.086705 148.842415 
z
" clip-path="url(#pdc32f7a02c)" style="fill: #2ca02c; stroke: #ffffff; stroke-width: 0.525357"/>
    <path d="M 344.086705 133.858553 
C 345.41272 133.858553 346.684604 133.331722 347.622238 132.394087 
C 348.559873 131.456453 349.086705 130.184569 349.086705 128.858553 
C 349.086705 127.532538 348.559873 126.260654 347.622238 125.323019 
C 346.684604 124.385385 345.41272 123.858553 344.086705 123.858553 
C 342.760689 123.858553 341.488805 124.385385 340.551171 125.323019 
C 339.613536 126.260654 339.086705 127.532538 339.086705 128.858553 
C 339.086705 130.184569 339.613536 131.456453 340.551171 132.394087 
C 341.488805 133.331722 342.760689 133.858553 344.086705 133.858553 
z
" clip-path="url(#pdc32f7a02c)" style="fill: #1f77b4; stroke: #ffffff; stroke-width: 0.525357"/>
    <path d="M 344.086705 58.856 
C 345.41272 58.856 346.684604 58.329168 347.622238 57.391534 
C 348.559873 56.453899 349.086705 55.182015 349.086705 53.856 
C 349.086705 52.529984 348.559873 51.258101 347.622238 50.320466 
C 346.684604 49.382832 345.41272 48.856 344.086705 48.856 
C 342.760689 48.856 341.488805 49.382832 340.551171 50.320466 
C 339.613536 51.258101 339.086705 52.529984 339.086705 53.856 
C 339.086705 55.182015 339.613536 56.453899 340.551171 57.391534 
C 341.488805 58.329168 342.760689 58.856 344.086705 58.856 
z
" clip-path="url(#pdc32f7a02c)" style="fill: #ff7f0e; stroke: #ffffff; stroke-width: 0.525357"/>
    <path d="M 344.086705 104.636779 
C 345.41272 104.636779 346.684604 104.109948 347.622238 103.172313 
C 348.559873 102.234679 349.086705 100.962795 349.086705 99.636779 
C 349.086705 98.310764 348.559873 97.03888 347.622238 96.101245 
C 346.684604 95.163611 345.41272 94.636779 344.086705 94.636779 
C 342.760689 94.636779 341.488805 95.163611 340.551171 96.101245 
C 339.613536 97.03888 339.086705 98.310764 339.086705 99.636779 
C 339.086705 100.962795 339.613536 102.234679 340.551171 103.172313 
C 341.488805 104.109948 342.760689 104.636779 344.086705 104.636779 
z
" clip-path="url(#pdc32f7a02c)" style="fill: #d62728; stroke: #ffffff; stroke-width: 0.525357"/>
    <path d="M 60.013977 264.378278 
C 60.852623 264.378278 61.657033 264.04508 62.250045 263.452068 
C 62.843057 262.859056 63.176255 262.054646 63.176255 261.216 
C 63.176255 260.377354 62.843057 259.572944 62.250045 258.979932 
C 61.657033 258.38692 60.852623 258.053722 60.013977 258.053722 
C 59.175331 258.053722 58.370921 258.38692 57.777909 258.979932 
C 57.184897 259.572944 56.8517 260.377354 56.8517 261.216 
C 56.8517 262.054646 57.184897 262.859056 57.777909 263.452068 
C 58.370921 264.04508 59.175331 264.378278 60.013977 264.378278 
z
" clip-path="url(#pdc32f7a02c)" style="fill: #2ca02c; stroke: #ffffff; stroke-width: 0.525357"/>
    <path d="M 60.013977 264.378278 
C 60.852623 264.378278 61.657033 264.04508 62.250045 263.452068 
C 62.843057 262.859056 63.176255 262.054646 63.176255 261.216 
C 63.176255 260.377354 62.843057 259.572944 62.250045 258.979932 
C 61.657033 258.38692 60.852623 258.053722 60.013977 258.053722 
C 59.175331 258.053722 58.370921 258.38692 57.777909 258.979932 
C 57.184897 259.572944 56.8517 260.377354 56.8517 261.216 
C 56.8517 262.054646 57.184897 262.859056 57.777909 263.452068 
C 58.370921 264.04508 59.175331 264.378278 60.013977 264.378278 
z
" clip-path="url(#pdc32f7a02c)" style="fill: #1f77b4; stroke: #ffffff; stroke-width: 0.525357"/>
    <path d="M 60.013977 264.378278 
C 60.852623 264.378278 61.657033 264.04508 62.250045 263.452068 
C 62.843057 262.859056 63.176255 262.054646 63.176255 261.216 
C 63.176255 260.377354 62.843057 259.572944 62.250045 258.979932 
C 61.657033 258.38692 60.852623 258.053722 60.013977 258.053722 
C 59.175331 258.053722 58.370921 258.38692 57.777909 258.979932 
C 57.184897 259.572944 56.8517 260.377354 56.8517 261.216 
C 56.8517 262.054646 57.184897 262.859056 57.777909 263.452068 
C 58.370921 264.04508 59.175331 264.378278 60.013977 264.378278 
z
" clip-path="url(#pdc32f7a02c)" style="fill: #ff7f0e; stroke: #ffffff; stroke-width: 0.525357"/>
    <path d="M 60.013977 264.378278 
C 60.852623 264.378278 61.657033 264.04508 62.250045 263.452068 
C 62.843057 262.859056 63.176255 262.054646 63.176255 261.216 
C 63.176255 260.377354 62.843057 259.572944 62.250045 258.979932 
C 61.657033 258.38692 60.852623 258.053722 60.013977 258.053722 
C 59.175331 258.053722 58.370921 258.38692 57.777909 258.979932 
C 57.184897 259.572944 56.8517 260.377354 56.8517 261.216 
C 56.8517 262.054646 57.184897 262.859056 57.777909 263.452068 
C 58.370921 264.04508 59.175331 264.378278 60.013977 264.378278 
z
" clip-path="url(#pdc32f7a02c)" style="fill: #d62728; stroke: #ffffff; stroke-width: 0.525357"/>
    <path d="M 100.595795 212.776368 
C 101.497583 212.776368 102.362558 212.418083 103.000218 211.780423 
C 103.637879 211.142763 103.996163 210.277788 103.996163 209.376 
C 103.996163 208.474212 103.637879 207.609237 103.000218 206.971577 
C 102.362558 206.333917 101.497583 205.975632 100.595795 205.975632 
C 99.694007 205.975632 98.829033 206.333917 98.191372 206.971577 
C 97.553712 207.609237 97.195428 208.474212 97.195428 209.376 
C 97.195428 210.277788 97.553712 211.142763 98.191372 211.780423 
C 98.829033 212.418083 99.694007 212.776368 100.595795 212.776368 
z
" clip-path="url(#pdc32f7a02c)" style="fill: #2ca02c; stroke: #ffffff; stroke-width: 0.525357"/>
    <path d="M 100.595795 178.216368 
C 101.497583 178.216368 102.362558 177.858083 103.000218 177.220423 
C 103.637879 176.582763 103.996163 175.717788 103.996163 174.816 
C 103.996163 173.914212 103.637879 173.049237 103.000218 172.411577 
C 102.362558 171.773917 101.497583 171.415632 100.595795 171.415632 
C 99.694007 171.415632 98.829033 171.773917 98.191372 172.411577 
C 97.553712 173.049237 97.195428 173.914212 97.195428 174.816 
C 97.195428 175.717788 97.553712 176.582763 98.191372 177.220423 
C 98.829033 177.858083 99.694007 178.216368 100.595795 178.216368 
z
" clip-path="url(#pdc32f7a02c)" style="fill: #1f77b4; stroke: #ffffff; stroke-width: 0.525357"/>
    <path d="M 100.595795 178.216368 
C 101.497583 178.216368 102.362558 177.858083 103.000218 177.220423 
C 103.637879 176.582763 103.996163 175.717788 103.996163 174.816 
C 103.996163 173.914212 103.637879 173.049237 103.000218 172.411577 
C 102.362558 171.773917 101.497583 171.415632 100.595795 171.415632 
C 99.694007 171.415632 98.829033 171.773917 98.191372 172.411577 
C 97.553712 173.049237 97.195428 173.914212 97.195428 174.816 
C 97.195428 175.717788 97.553712 176.582763 98.191372 177.220423 
C 98.829033 177.858083 99.694007 178.216368 100.595795 178.216368 
z
" clip-path="url(#pdc32f7a02c)" style="fill: #ff7f0e; stroke: #ffffff; stroke-width: 0.525357"/>
    <path d="M 100.595795 178.216368 
C 101.497583 178.216368 102.362558 177.858083 103.000218 177.220423 
C 103.637879 176.582763 103.996163 175.717788 103.996163 174.816 
C 103.996163 173.914212 103.637879 173.049237 103.000218 172.411577 
C 102.362558 171.773917 101.497583 171.415632 100.595795 171.415632 
C 99.694007 171.415632 98.829033 171.773917 98.191372 172.411577 
C 97.553712 173.049237 97.195428 173.914212 97.195428 174.816 
C 97.195428 175.717788 97.553712 176.582763 98.191372 177.220423 
C 98.829033 177.858083 99.694007 178.216368 100.595795 178.216368 
z
" clip-path="url(#pdc32f7a02c)" style="fill: #d62728; stroke: #ffffff; stroke-width: 0.525357"/>
    <path d="M 141.177614 204.936149 
C 142.115248 204.936149 143.014606 204.563623 143.677614 203.900615 
C 144.340621 203.237608 144.713148 202.33825 144.713148 201.400615 
C 144.713148 200.462981 144.340621 199.563623 143.677614 198.900615 
C 143.014606 198.237608 142.115248 197.865081 141.177614 197.865081 
C 140.239979 197.865081 139.340621 198.237608 138.677614 198.900615 
C 138.014606 199.563623 137.64208 200.462981 137.64208 201.400615 
C 137.64208 202.33825 138.014606 203.237608 138.677614 203.900615 
C 139.340621 204.563623 140.239979 204.936149 141.177614 204.936149 
z
" clip-path="url(#pdc32f7a02c)" style="fill: #2ca02c; stroke: #ffffff; stroke-width: 0.525357"/>
    <path d="M 141.177614 178.351534 
C 142.115248 178.351534 143.014606 177.979008 143.677614 177.316 
C 144.340621 176.652992 144.713148 175.753635 144.713148 174.816 
C 144.713148 173.878365 144.340621 172.979008 143.677614 172.316 
C 143.014606 171.652992 142.115248 171.280466 141.177614 171.280466 
C 140.239979 171.280466 139.340621 171.652992 138.677614 172.316 
C 138.014606 172.979008 137.64208 173.878365 137.64208 174.816 
C 137.64208 175.753635 138.014606 176.652992 138.677614 177.316 
C 139.340621 177.979008 140.239979 178.351534 141.177614 178.351534 
z
" clip-path="url(#pdc32f7a02c)" style="fill: #1f77b4; stroke: #ffffff; stroke-width: 0.525357"/>
    <path d="M 141.177614 153.66582 
C 142.115248 153.66582 143.014606 153.293293 143.677614 152.630286 
C 144.340621 151.967278 144.713148 151.06792 144.713148 150.130286 
C 144.713148 149.192651 144.340621 148.293293 143.677614 147.630286 
C 143.014606 146.967278 142.115248 146.594752 141.177614 146.594752 
C 140.239979 146.594752 139.340621 146.967278 138.677614 147.630286 
C 138.014606 148.293293 137.64208 149.192651 137.64208 150.130286 
C 137.64208 151.06792 138.014606 151.967278 138.677614 152.630286 
C 139.340621 153.293293 140.239979 153.66582 141.177614 153.66582 
z
" clip-path="url(#pdc32f7a02c)" style="fill: #ff7f0e; stroke: #ffffff; stroke-width: 0.525357"/>
    <path d="M 141.177614 167.551534 
C 142.115248 167.551534 143.014606 167.179008 143.677614 166.516 
C 144.340621 165.852992 144.713148 164.953635 144.713148 164.016 
C 144.713148 163.078365 144.340621 162.179008 143.677614 161.516 
C 143.014606 160.852992 142.115248 160.480466 141.177614 160.480466 
C 140.239979 160.480466 139.340621 160.852992 138.677614 161.516 
C 138.014606 162.179008 137.64208 163.078365 137.64208 164.016 
C 137.64208 164.953635 138.014606 165.852992 138.677614 166.516 
C 139.340621 167.179008 140.239979 167.551534 141.177614 167.551534 
z
" clip-path="url(#pdc32f7a02c)" style="fill: #d62728; stroke: #ffffff; stroke-width: 0.525357"/>
    <path d="M 181.759432 207.366 
C 182.753943 207.366 183.707856 206.970876 184.411082 206.26765 
C 185.114308 205.564425 185.509432 204.610512 185.509432 203.616 
C 185.509432 202.621488 185.114308 201.667575 184.411082 200.96435 
C 183.707856 200.261124 182.753943 199.866 181.759432 199.866 
C 180.76492 199.866 179.811007 200.261124 179.107781 200.96435 
C 178.404555 201.667575 178.009432 202.621488 178.009432 203.616 
C 178.009432 204.610512 178.404555 205.564425 179.107781 206.26765 
C 179.811007 206.970876 180.76492 207.366 181.759432 207.366 
z
" clip-path="url(#pdc32f7a02c)" style="fill: #2ca02c; stroke: #ffffff; stroke-width: 0.525357"/>
    <path d="M 181.759432 185.212154 
C 182.753943 185.212154 183.707856 184.81703 184.411082 184.113804 
C 185.114308 183.410578 185.509432 182.456665 185.509432 181.462154 
C 185.509432 180.467642 185.114308 179.513729 184.411082 178.810503 
C 183.707856 178.107278 182.753943 177.712154 181.759432 177.712154 
C 180.76492 177.712154 179.811007 178.107278 179.107781 178.810503 
C 178.404555 179.513729 178.009432 180.467642 178.009432 181.462154 
C 178.009432 182.456665 178.404555 183.410578 179.107781 184.113804 
C 179.811007 184.81703 180.76492 185.212154 181.759432 185.212154 
z
" clip-path="url(#pdc32f7a02c)" style="fill: #1f77b4; stroke: #ffffff; stroke-width: 0.525357"/>
    <path d="M 181.759432 149.766 
C 182.753943 149.766 183.707856 149.370876 184.411082 148.66765 
C 185.114308 147.964425 185.509432 147.010512 185.509432 146.016 
C 185.509432 145.021488 185.114308 144.067575 184.411082 143.36435 
C 183.707856 142.661124 182.753943 142.266 181.759432 142.266 
C 180.76492 142.266 179.811007 142.661124 179.107781 143.36435 
C 178.404555 144.067575 178.009432 145.021488 178.009432 146.016 
C 178.009432 147.010512 178.404555 147.964425 179.107781 148.66765 
C 179.811007 149.370876 180.76492 149.766 181.759432 149.766 
z
" clip-path="url(#pdc32f7a02c)" style="fill: #ff7f0e; stroke: #ffffff; stroke-width: 0.525357"/>
    <path d="M 181.759432 170.711455 
C 182.753943 170.711455 183.707856 170.316331 184.411082 169.613105 
C 185.114308 168.909879 185.509432 167.955966 185.509432 166.961455 
C 185.509432 165.966943 185.114308 165.01303 184.411082 164.309804 
C 183.707856 163.606578 182.753943 163.211455 181.759432 163.211455 
C 180.76492 163.211455 179.811007 163.606578 179.107781 164.309804 
C 178.404555 165.01303 178.009432 165.966943 178.009432 166.961455 
C 178.009432 167.955966 178.404555 168.909879 179.107781 169.613105 
C 179.811007 170.316331 180.76492 170.711455 181.759432 170.711455 
z
" clip-path="url(#pdc32f7a02c)" style="fill: #d62728; stroke: #ffffff; stroke-width: 0.525357"/>
    <path d="M 222.34125 203.039129 
C 223.410318 203.039129 224.435743 202.614384 225.191689 201.858439 
C 225.947634 201.102493 226.372379 200.077068 226.372379 199.008 
C 226.372379 197.938932 225.947634 196.913507 225.191689 196.157561 
C 224.435743 195.401616 223.410318 194.976871 222.34125 194.976871 
C 221.272182 194.976871 220.246757 195.401616 219.490811 196.157561 
C 218.734866 196.913507 218.310121 197.938932 218.310121 199.008 
C 218.310121 200.077068 218.734866 201.102493 219.490811 201.858439 
C 220.246757 202.614384 221.272182 203.039129 222.34125 203.039129 
z
" clip-path="url(#pdc32f7a02c)" style="fill: #2ca02c; stroke: #ffffff; stroke-width: 0.525357"/>
    <path d="M 222.34125 183.394497 
C 223.410318 183.394497 224.435743 182.969752 225.191689 182.213807 
C 225.947634 181.457862 226.372379 180.432436 226.372379 179.363368 
C 226.372379 178.294301 225.947634 177.268875 225.191689 176.51293 
C 224.435743 175.756985 223.410318 175.33224 222.34125 175.33224 
C 221.272182 175.33224 220.246757 175.756985 219.490811 176.51293 
C 218.734866 177.268875 218.310121 178.294301 218.310121 179.363368 
C 218.310121 180.432436 218.734866 181.457862 219.490811 182.213807 
C 220.246757 182.969752 221.272182 183.394497 222.34125 183.394497 
z
" clip-path="url(#pdc32f7a02c)" style="fill: #1f77b4; stroke: #ffffff; stroke-width: 0.525357"/>
    <path d="M 222.34125 135.647129 
C 223.410318 135.647129 224.435743 135.222384 225.191689 134.466439 
C 225.947634 133.710493 226.372379 132.685068 226.372379 131.616 
C 226.372379 130.546932 225.947634 129.521507 225.191689 128.765561 
C 224.435743 128.009616 223.410318 127.584871 222.34125 127.584871 
C 221.272182 127.584871 220.246757 128.009616 219.490811 128.765561 
C 218.734866 129.521507 218.310121 130.546932 218.310121 131.616 
C 218.310121 132.685068 218.734866 133.710493 219.490811 134.466439 
C 220.246757 135.222384 221.272182 135.647129 222.34125 135.647129 
z
" clip-path="url(#pdc32f7a02c)" style="fill: #ff7f0e; stroke: #ffffff; stroke-width: 0.525357"/>
    <path d="M 222.34125 164.911645 
C 223.410318 164.911645 224.435743 164.4869 225.191689 163.730955 
C 225.947634 162.97501 226.372379 161.949584 226.372379 160.880516 
C 226.372379 159.811448 225.947634 158.786023 225.191689 158.030078 
C 224.435743 157.274132 223.410318 156.849387 222.34125 156.849387 
C 221.272182 156.849387 220.246757 157.274132 219.490811 158.030078 
C 218.734866 158.786023 218.310121 159.811448 218.310121 160.880516 
C 218.310121 161.949584 218.734866 162.97501 219.490811 163.730955 
C 220.246757 164.4869 221.272182 164.911645 222.34125 164.911645 
z
" clip-path="url(#pdc32f7a02c)" style="fill: #d62728; stroke: #ffffff; stroke-width: 0.525357"/>
    <path d="M 262.923068 187.000672 
C 264.071431 187.000672 265.172915 186.544423 265.98493 185.732408 
C 266.796946 184.920392 267.253195 183.818909 267.253195 182.670545 
C 267.253195 181.522182 266.796946 180.420699 265.98493 179.608683 
C 265.172915 178.796668 264.071431 178.340418 262.923068 178.340418 
C 261.774705 178.340418 260.673221 178.796668 259.861206 179.608683 
C 259.049191 180.420699 258.592941 181.522182 258.592941 182.670545 
C 258.592941 183.818909 259.049191 184.920392 259.861206 185.732408 
C 260.673221 186.544423 261.774705 187.000672 262.923068 187.000672 
z
" clip-path="url(#pdc32f7a02c)" style="fill: #2ca02c; stroke: #ffffff; stroke-width: 0.525357"/>
    <path d="M 262.923068 169.546127 
C 264.071431 169.546127 265.172915 169.089878 265.98493 168.277862 
C 266.796946 167.465847 267.253195 166.364363 267.253195 165.216 
C 267.253195 164.067637 266.796946 162.966153 265.98493 162.154138 
C 265.172915 161.342122 264.071431 160.885873 262.923068 160.885873 
C 261.774705 160.885873 260.673221 161.342122 259.861206 162.154138 
C 259.049191 162.966153 258.592941 164.067637 258.592941 165.216 
C 258.592941 166.364363 259.049191 167.465847 259.861206 168.277862 
C 260.673221 169.089878 261.774705 169.546127 262.923068 169.546127 
z
" clip-path="url(#pdc32f7a02c)" style="fill: #1f77b4; stroke: #ffffff; stroke-width: 0.525357"/>
    <path d="M 262.923068 103.546127 
C 264.071431 103.546127 265.172915 103.089878 265.98493 102.277862 
C 266.796946 101.465847 267.253195 100.364363 267.253195 99.216 
C 267.253195 98.067637 266.796946 96.966153 265.98493 96.154138 
C 265.172915 95.342122 264.071431 94.885873 262.923068 94.885873 
C 261.774705 94.885873 260.673221 95.342122 259.861206 96.154138 
C 259.049191 96.966153 258.592941 98.067637 258.592941 99.216 
C 258.592941 100.364363 259.049191 101.465847 259.861206 102.277862 
C 260.673221 103.089878 261.774705 103.546127 262.923068 103.546127 
z
" clip-path="url(#pdc32f7a02c)" style="fill: #ff7f0e; stroke: #ffffff; stroke-width: 0.525357"/>
    <path d="M 262.923068 144.987987 
C 264.071431 144.987987 265.172915 144.531738 265.98493 143.719723 
C 266.796946 142.907707 267.253195 141.806224 267.253195 140.65786 
C 267.253195 139.509497 266.796946 138.408014 265.98493 137.595998 
C 265.172915 136.783983 264.071431 136.327733 262.923068 136.327733 
C 261.774705 136.327733 260.673221 136.783983 259.861206 137.595998 
C 259.049191 138.408014 258.592941 139.509497 258.592941 140.65786 
C 258.592941 141.806224 259.049191 142.907707 259.861206 143.719723 
C 260.673221 144.531738 261.774705 144.987987 262.923068 144.987987 
z
" clip-path="url(#pdc32f7a02c)" style="fill: #d62728; stroke: #ffffff; stroke-width: 0.525357"/>
    <path d="M 303.504886 162.279416 
C 304.762855 162.279416 305.96947 161.77962 306.858988 160.890102 
C 307.748507 160.000584 308.248303 158.793969 308.248303 157.536 
C 308.248303 156.278031 307.748507 155.071416 306.858988 154.181898 
C 305.96947 153.29238 304.762855 152.792584 303.504886 152.792584 
C 302.246918 152.792584 301.040303 153.29238 300.150784 154.181898 
C 299.261266 155.071416 298.76147 156.278031 298.76147 157.536 
C 298.76147 158.793969 299.261266 160.000584 300.150784 160.890102 
C 301.040303 161.77962 302.246918 162.279416 303.504886 162.279416 
z
" clip-path="url(#pdc32f7a02c)" style="fill: #2ca02c; stroke: #ffffff; stroke-width: 0.525357"/>
    <path d="M 303.504886 146.328647 
C 304.762855 146.328647 305.96947 145.828851 306.858988 144.939333 
C 307.748507 144.049814 308.248303 142.8432 308.248303 141.585231 
C 308.248303 140.327262 307.748507 139.120647 306.858988 138.231129 
C 305.96947 137.341611 304.762855 136.841814 303.504886 136.841814 
C 302.246918 136.841814 301.040303 137.341611 300.150784 138.231129 
C 299.261266 139.120647 298.76147 140.327262 298.76147 141.585231 
C 298.76147 142.8432 299.261266 144.049814 300.150784 144.939333 
C 301.040303 145.828851 302.246918 146.328647 303.504886 146.328647 
z
" clip-path="url(#pdc32f7a02c)" style="fill: #1f77b4; stroke: #ffffff; stroke-width: 0.525357"/>
    <path d="M 303.504886 71.559416 
C 304.762855 71.559416 305.96947 71.05962 306.858988 70.170102 
C 307.748507 69.280584 308.248303 68.073969 308.248303 66.816 
C 308.248303 65.558031 307.748507 64.351416 306.858988 63.461898 
C 305.96947 62.57238 304.762855 62.072584 303.504886 62.072584 
C 302.246918 62.072584 301.040303 62.57238 300.150784 63.461898 
C 299.261266 64.351416 298.76147 65.558031 298.76147 66.816 
C 298.76147 68.073969 299.261266 69.280584 300.150784 70.170102 
C 301.040303 71.05962 302.246918 71.559416 303.504886 71.559416 
z
" clip-path="url(#pdc32f7a02c)" style="fill: #ff7f0e; stroke: #ffffff; stroke-width: 0.525357"/>
    <path d="M 303.504886 117.845131 
C 304.762855 117.845131 305.96947 117.345334 306.858988 116.455816 
C 307.748507 115.566298 308.248303 114.359683 308.248303 113.101714 
C 308.248303 111.843746 307.748507 110.637131 306.858988 109.747612 
C 305.96947 108.858094 304.762855 108.358298 303.504886 108.358298 
C 302.246918 108.358298 301.040303 108.858094 300.150784 109.747612 
C 299.261266 110.637131 298.76147 111.843746 298.76147 113.101714 
C 298.76147 114.359683 299.261266 115.566298 300.150784 116.455816 
C 301.040303 117.345334 302.246918 117.845131 303.504886 117.845131 
z
" clip-path="url(#pdc32f7a02c)" style="fill: #d62728; stroke: #ffffff; stroke-width: 0.525357"/>
   </g>
   <g id="PathCollection_2"/>
   <g id="PathCollection_3"/>
   <g id="PathCollection_4"/>
   <g id="PathCollection_5"/>
   <g id="PathCollection_6"/>
   <g id="PathCollection_7"/>
   <g id="PathCollection_8"/>
   <g id="PathCollection_9"/>
   <g id="PathCollection_10"/>
   <g id="PathCollection_11"/>
   <g id="matplotlib.axis_1">
    <g id="xtick_1">
     <g id="line2d_1">
      <defs>
       <path id="maee25ff8f3" d="M 0 0 
L 0 3.5 
" style="stroke: #000000; stroke-width: 0.8"/>
      </defs>
      <g>
       <use xlink:href="#maee25ff8f3" x="60.013977" y="273.312" style="stroke: #000000; stroke-width: 0.8"/>
      </g>
     </g>
     <g id="text_1">
      <!-- 20 -->
      <g transform="translate(53.651477 287.910437)scale(0.1 -0.1)">
       <defs>
        <path id="DejaVuSans-32" d="M 1228 531 
L 3431 531 
L 3431 0 
L 469 0 
L 469 531 
Q 828 903 1448 1529 
Q 2069 2156 2228 2338 
Q 2531 2678 2651 2914 
Q 2772 3150 2772 3378 
Q 2772 3750 2511 3984 
Q 2250 4219 1831 4219 
Q 1534 4219 1204 4116 
Q 875 4013 500 3803 
L 500 4441 
Q 881 4594 1212 4672 
Q 1544 4750 1819 4750 
Q 2544 4750 2975 4387 
Q 3406 4025 3406 3419 
Q 3406 3131 3298 2873 
Q 3191 2616 2906 2266 
Q 2828 2175 2409 1742 
Q 1991 1309 1228 531 
z
" transform="scale(0.015625)"/>
        <path id="DejaVuSans-30" d="M 2034 4250 
Q 1547 4250 1301 3770 
Q 1056 3291 1056 2328 
Q 1056 1369 1301 889 
Q 1547 409 2034 409 
Q 2525 409 2770 889 
Q 3016 1369 3016 2328 
Q 3016 3291 2770 3770 
Q 2525 4250 2034 4250 
z
M 2034 4750 
Q 2819 4750 3233 4129 
Q 3647 3509 3647 2328 
Q 3647 1150 3233 529 
Q 2819 -91 2034 -91 
Q 1250 -91 836 529 
Q 422 1150 422 2328 
Q 422 3509 836 4129 
Q 1250 4750 2034 4750 
z
" transform="scale(0.015625)"/>
       </defs>
       <use xlink:href="#DejaVuSans-32"/>
       <use xlink:href="#DejaVuSans-30" x="63.623047"/>
      </g>
     </g>
    </g>
    <g id="xtick_2">
     <g id="line2d_2">
      <g>
       <use xlink:href="#maee25ff8f3" x="100.595795" y="273.312" style="stroke: #000000; stroke-width: 0.8"/>
      </g>
     </g>
     <g id="text_2">
      <!-- 30 -->
      <g transform="translate(94.233295 287.910437)scale(0.1 -0.1)">
       <defs>
        <path id="DejaVuSans-33" d="M 2597 2516 
Q 3050 2419 3304 2112 
Q 3559 1806 3559 1356 
Q 3559 666 3084 287 
Q 2609 -91 1734 -91 
Q 1441 -91 1130 -33 
Q 819 25 488 141 
L 488 750 
Q 750 597 1062 519 
Q 1375 441 1716 441 
Q 2309 441 2620 675 
Q 2931 909 2931 1356 
Q 2931 1769 2642 2001 
Q 2353 2234 1838 2234 
L 1294 2234 
L 1294 2753 
L 1863 2753 
Q 2328 2753 2575 2939 
Q 2822 3125 2822 3475 
Q 2822 3834 2567 4026 
Q 2313 4219 1838 4219 
Q 1578 4219 1281 4162 
Q 984 4106 628 3988 
L 628 4550 
Q 988 4650 1302 4700 
Q 1616 4750 1894 4750 
Q 2613 4750 3031 4423 
Q 3450 4097 3450 3541 
Q 3450 3153 3228 2886 
Q 3006 2619 2597 2516 
z
" transform="scale(0.015625)"/>
       </defs>
       <use xlink:href="#DejaVuSans-33"/>
       <use xlink:href="#DejaVuSans-30" x="63.623047"/>
      </g>
     </g>
    </g>
    <g id="xtick_3">
     <g id="line2d_3">
      <g>
       <use xlink:href="#maee25ff8f3" x="141.177614" y="273.312" style="stroke: #000000; stroke-width: 0.8"/>
      </g>
     </g>
     <g id="text_3">
      <!-- 40 -->
      <g transform="translate(134.815114 287.910437)scale(0.1 -0.1)">
       <defs>
        <path id="DejaVuSans-34" d="M 2419 4116 
L 825 1625 
L 2419 1625 
L 2419 4116 
z
M 2253 4666 
L 3047 4666 
L 3047 1625 
L 3713 1625 
L 3713 1100 
L 3047 1100 
L 3047 0 
L 2419 0 
L 2419 1100 
L 313 1100 
L 313 1709 
L 2253 4666 
z
" transform="scale(0.015625)"/>
       </defs>
       <use xlink:href="#DejaVuSans-34"/>
       <use xlink:href="#DejaVuSans-30" x="63.623047"/>
      </g>
     </g>
    </g>
    <g id="xtick_4">
     <g id="line2d_4">
      <g>
       <use xlink:href="#maee25ff8f3" x="181.759432" y="273.312" style="stroke: #000000; stroke-width: 0.8"/>
      </g>
     </g>
     <g id="text_4">
      <!-- 50 -->
      <g transform="translate(175.396932 287.910437)scale(0.1 -0.1)">
       <defs>
        <path id="DejaVuSans-35" d="M 691 4666 
L 3169 4666 
L 3169 4134 
L 1269 4134 
L 1269 2991 
Q 1406 3038 1543 3061 
Q 1681 3084 1819 3084 
Q 2600 3084 3056 2656 
Q 3513 2228 3513 1497 
Q 3513 744 3044 326 
Q 2575 -91 1722 -91 
Q 1428 -91 1123 -41 
Q 819 9 494 109 
L 494 744 
Q 775 591 1075 516 
Q 1375 441 1709 441 
Q 2250 441 2565 725 
Q 2881 1009 2881 1497 
Q 2881 1984 2565 2268 
Q 2250 2553 1709 2553 
Q 1456 2553 1204 2497 
Q 953 2441 691 2322 
L 691 4666 
z
" transform="scale(0.015625)"/>
       </defs>
       <use xlink:href="#DejaVuSans-35"/>
       <use xlink:href="#DejaVuSans-30" x="63.623047"/>
      </g>
     </g>
    </g>
    <g id="xtick_5">
     <g id="line2d_5">
      <g>
       <use xlink:href="#maee25ff8f3" x="222.34125" y="273.312" style="stroke: #000000; stroke-width: 0.8"/>
      </g>
     </g>
     <g id="text_5">
      <!-- 70 -->
      <g transform="translate(215.97875 287.910437)scale(0.1 -0.1)">
       <defs>
        <path id="DejaVuSans-37" d="M 525 4666 
L 3525 4666 
L 3525 4397 
L 1831 0 
L 1172 0 
L 2766 4134 
L 525 4134 
L 525 4666 
z
" transform="scale(0.015625)"/>
       </defs>
       <use xlink:href="#DejaVuSans-37"/>
       <use xlink:href="#DejaVuSans-30" x="63.623047"/>
      </g>
     </g>
    </g>
    <g id="xtick_6">
     <g id="line2d_6">
      <g>
       <use xlink:href="#maee25ff8f3" x="262.923068" y="273.312" style="stroke: #000000; stroke-width: 0.8"/>
      </g>
     </g>
     <g id="text_6">
      <!-- 100 -->
      <g transform="translate(253.379318 287.910437)scale(0.1 -0.1)">
       <defs>
        <path id="DejaVuSans-31" d="M 794 531 
L 1825 531 
L 1825 4091 
L 703 3866 
L 703 4441 
L 1819 4666 
L 2450 4666 
L 2450 531 
L 3481 531 
L 3481 0 
L 794 0 
L 794 531 
z
" transform="scale(0.015625)"/>
       </defs>
       <use xlink:href="#DejaVuSans-31"/>
       <use xlink:href="#DejaVuSans-30" x="63.623047"/>
       <use xlink:href="#DejaVuSans-30" x="127.246094"/>
      </g>
     </g>
    </g>
    <g id="xtick_7">
     <g id="line2d_7">
      <g>
       <use xlink:href="#maee25ff8f3" x="303.504886" y="273.312" style="stroke: #000000; stroke-width: 0.8"/>
      </g>
     </g>
     <g id="text_7">
      <!-- 150 -->
      <g transform="translate(293.961136 287.910437)scale(0.1 -0.1)">
       <use xlink:href="#DejaVuSans-31"/>
       <use xlink:href="#DejaVuSans-35" x="63.623047"/>
       <use xlink:href="#DejaVuSans-30" x="127.246094"/>
      </g>
     </g>
    </g>
    <g id="xtick_8">
     <g id="line2d_8">
      <g>
       <use xlink:href="#maee25ff8f3" x="344.086705" y="273.312" style="stroke: #000000; stroke-width: 0.8"/>
      </g>
     </g>
     <g id="text_8">
      <!-- 200 -->
      <g transform="translate(334.542955 287.910437)scale(0.1 -0.1)">
       <use xlink:href="#DejaVuSans-32"/>
       <use xlink:href="#DejaVuSans-30" x="63.623047"/>
       <use xlink:href="#DejaVuSans-30" x="127.246094"/>
      </g>
     </g>
    </g>
    <g id="xtick_9">
     <g id="line2d_9">
      <g>
       <use xlink:href="#maee25ff8f3" x="384.668523" y="273.312" style="stroke: #000000; stroke-width: 0.8"/>
      </g>
     </g>
     <g id="text_9">
      <!-- 200&lt; -->
      <g transform="translate(370.934929 287.910437)scale(0.1 -0.1)">
       <defs>
        <path id="DejaVuSans-3c" d="M 4684 3150 
L 1459 2003 
L 4684 863 
L 4684 294 
L 678 1747 
L 678 2266 
L 4684 3719 
L 4684 3150 
z
" transform="scale(0.015625)"/>
       </defs>
       <use xlink:href="#DejaVuSans-32"/>
       <use xlink:href="#DejaVuSans-30" x="63.623047"/>
       <use xlink:href="#DejaVuSans-30" x="127.246094"/>
       <use xlink:href="#DejaVuSans-3c" x="190.869141"/>
      </g>
     </g>
    </g>
    <g id="text_10">
     <!-- nrows -->
     <g transform="translate(207.476406 301.588562)scale(0.1 -0.1)">
      <defs>
       <path id="DejaVuSans-6e" d="M 3513 2113 
L 3513 0 
L 2938 0 
L 2938 2094 
Q 2938 2591 2744 2837 
Q 2550 3084 2163 3084 
Q 1697 3084 1428 2787 
Q 1159 2491 1159 1978 
L 1159 0 
L 581 0 
L 581 3500 
L 1159 3500 
L 1159 2956 
Q 1366 3272 1645 3428 
Q 1925 3584 2291 3584 
Q 2894 3584 3203 3211 
Q 3513 2838 3513 2113 
z
" transform="scale(0.015625)"/>
       <path id="DejaVuSans-72" d="M 2631 2963 
Q 2534 3019 2420 3045 
Q 2306 3072 2169 3072 
Q 1681 3072 1420 2755 
Q 1159 2438 1159 1844 
L 1159 0 
L 581 0 
L 581 3500 
L 1159 3500 
L 1159 2956 
Q 1341 3275 1631 3429 
Q 1922 3584 2338 3584 
Q 2397 3584 2469 3576 
Q 2541 3569 2628 3553 
L 2631 2963 
z
" transform="scale(0.015625)"/>
       <path id="DejaVuSans-6f" d="M 1959 3097 
Q 1497 3097 1228 2736 
Q 959 2375 959 1747 
Q 959 1119 1226 758 
Q 1494 397 1959 397 
Q 2419 397 2687 759 
Q 2956 1122 2956 1747 
Q 2956 2369 2687 2733 
Q 2419 3097 1959 3097 
z
M 1959 3584 
Q 2709 3584 3137 3096 
Q 3566 2609 3566 1747 
Q 3566 888 3137 398 
Q 2709 -91 1959 -91 
Q 1206 -91 779 398 
Q 353 888 353 1747 
Q 353 2609 779 3096 
Q 1206 3584 1959 3584 
z
" transform="scale(0.015625)"/>
       <path id="DejaVuSans-77" d="M 269 3500 
L 844 3500 
L 1563 769 
L 2278 3500 
L 2956 3500 
L 3675 769 
L 4391 3500 
L 4966 3500 
L 4050 0 
L 3372 0 
L 2619 2869 
L 1863 0 
L 1184 0 
L 269 3500 
z
" transform="scale(0.015625)"/>
       <path id="DejaVuSans-73" d="M 2834 3397 
L 2834 2853 
Q 2591 2978 2328 3040 
Q 2066 3103 1784 3103 
Q 1356 3103 1142 2972 
Q 928 2841 928 2578 
Q 928 2378 1081 2264 
Q 1234 2150 1697 2047 
L 1894 2003 
Q 2506 1872 2764 1633 
Q 3022 1394 3022 966 
Q 3022 478 2636 193 
Q 2250 -91 1575 -91 
Q 1294 -91 989 -36 
Q 684 19 347 128 
L 347 722 
Q 666 556 975 473 
Q 1284 391 1588 391 
Q 1994 391 2212 530 
Q 2431 669 2431 922 
Q 2431 1156 2273 1281 
Q 2116 1406 1581 1522 
L 1381 1569 
Q 847 1681 609 1914 
Q 372 2147 372 2553 
Q 372 3047 722 3315 
Q 1072 3584 1716 3584 
Q 2034 3584 2315 3537 
Q 2597 3491 2834 3397 
z
" transform="scale(0.015625)"/>
      </defs>
      <use xlink:href="#DejaVuSans-6e"/>
      <use xlink:href="#DejaVuSans-72" x="63.378906"/>
      <use xlink:href="#DejaVuSans-6f" x="102.242188"/>
      <use xlink:href="#DejaVuSans-77" x="163.423828"/>
      <use xlink:href="#DejaVuSans-73" x="245.210938"/>
     </g>
    </g>
   </g>
   <g id="matplotlib.axis_2">
    <g id="ytick_1">
     <g id="line2d_10">
      <defs>
       <path id="mc22cddf1c9" d="M 0 0 
L -3.5 0 
" style="stroke: #000000; stroke-width: 0.8"/>
      </defs>
      <g>
       <use xlink:href="#mc22cddf1c9" x="43.78125" y="261.216" style="stroke: #000000; stroke-width: 0.8"/>
      </g>
     </g>
     <g id="text_11">
      <!-- 0.0 -->
      <g transform="translate(20.878125 265.015219)scale(0.1 -0.1)">
       <defs>
        <path id="DejaVuSans-2e" d="M 684 794 
L 1344 794 
L 1344 0 
L 684 0 
L 684 794 
z
" transform="scale(0.015625)"/>
       </defs>
       <use xlink:href="#DejaVuSans-30"/>
       <use xlink:href="#DejaVuSans-2e" x="63.623047"/>
       <use xlink:href="#DejaVuSans-30" x="95.410156"/>
      </g>
     </g>
    </g>
    <g id="ytick_2">
     <g id="line2d_11">
      <g>
       <use xlink:href="#mc22cddf1c9" x="43.78125" y="209.376" style="stroke: #000000; stroke-width: 0.8"/>
      </g>
     </g>
     <g id="text_12">
      <!-- 0.2 -->
      <g transform="translate(20.878125 213.175219)scale(0.1 -0.1)">
       <use xlink:href="#DejaVuSans-30"/>
       <use xlink:href="#DejaVuSans-2e" x="63.623047"/>
       <use xlink:href="#DejaVuSans-32" x="95.410156"/>
      </g>
     </g>
    </g>
    <g id="ytick_3">
     <g id="line2d_12">
      <g>
       <use xlink:href="#mc22cddf1c9" x="43.78125" y="157.536" style="stroke: #000000; stroke-width: 0.8"/>
      </g>
     </g>
     <g id="text_13">
      <!-- 0.4 -->
      <g transform="translate(20.878125 161.335219)scale(0.1 -0.1)">
       <use xlink:href="#DejaVuSans-30"/>
       <use xlink:href="#DejaVuSans-2e" x="63.623047"/>
       <use xlink:href="#DejaVuSans-34" x="95.410156"/>
      </g>
     </g>
    </g>
    <g id="ytick_4">
     <g id="line2d_13">
      <g>
       <use xlink:href="#mc22cddf1c9" x="43.78125" y="105.696" style="stroke: #000000; stroke-width: 0.8"/>
      </g>
     </g>
     <g id="text_14">
      <!-- 0.6 -->
      <g transform="translate(20.878125 109.495219)scale(0.1 -0.1)">
       <defs>
        <path id="DejaVuSans-36" d="M 2113 2584 
Q 1688 2584 1439 2293 
Q 1191 2003 1191 1497 
Q 1191 994 1439 701 
Q 1688 409 2113 409 
Q 2538 409 2786 701 
Q 3034 994 3034 1497 
Q 3034 2003 2786 2293 
Q 2538 2584 2113 2584 
z
M 3366 4563 
L 3366 3988 
Q 3128 4100 2886 4159 
Q 2644 4219 2406 4219 
Q 1781 4219 1451 3797 
Q 1122 3375 1075 2522 
Q 1259 2794 1537 2939 
Q 1816 3084 2150 3084 
Q 2853 3084 3261 2657 
Q 3669 2231 3669 1497 
Q 3669 778 3244 343 
Q 2819 -91 2113 -91 
Q 1303 -91 875 529 
Q 447 1150 447 2328 
Q 447 3434 972 4092 
Q 1497 4750 2381 4750 
Q 2619 4750 2861 4703 
Q 3103 4656 3366 4563 
z
" transform="scale(0.015625)"/>
       </defs>
       <use xlink:href="#DejaVuSans-30"/>
       <use xlink:href="#DejaVuSans-2e" x="63.623047"/>
       <use xlink:href="#DejaVuSans-36" x="95.410156"/>
      </g>
     </g>
    </g>
    <g id="ytick_5">
     <g id="line2d_14">
      <g>
       <use xlink:href="#mc22cddf1c9" x="43.78125" y="53.856" style="stroke: #000000; stroke-width: 0.8"/>
      </g>
     </g>
     <g id="text_15">
      <!-- 0.8 -->
      <g transform="translate(20.878125 57.655219)scale(0.1 -0.1)">
       <defs>
        <path id="DejaVuSans-38" d="M 2034 2216 
Q 1584 2216 1326 1975 
Q 1069 1734 1069 1313 
Q 1069 891 1326 650 
Q 1584 409 2034 409 
Q 2484 409 2743 651 
Q 3003 894 3003 1313 
Q 3003 1734 2745 1975 
Q 2488 2216 2034 2216 
z
M 1403 2484 
Q 997 2584 770 2862 
Q 544 3141 544 3541 
Q 544 4100 942 4425 
Q 1341 4750 2034 4750 
Q 2731 4750 3128 4425 
Q 3525 4100 3525 3541 
Q 3525 3141 3298 2862 
Q 3072 2584 2669 2484 
Q 3125 2378 3379 2068 
Q 3634 1759 3634 1313 
Q 3634 634 3220 271 
Q 2806 -91 2034 -91 
Q 1263 -91 848 271 
Q 434 634 434 1313 
Q 434 1759 690 2068 
Q 947 2378 1403 2484 
z
M 1172 3481 
Q 1172 3119 1398 2916 
Q 1625 2713 2034 2713 
Q 2441 2713 2670 2916 
Q 2900 3119 2900 3481 
Q 2900 3844 2670 4047 
Q 2441 4250 2034 4250 
Q 1625 4250 1398 4047 
Q 1172 3844 1172 3481 
z
" transform="scale(0.015625)"/>
       </defs>
       <use xlink:href="#DejaVuSans-30"/>
       <use xlink:href="#DejaVuSans-2e" x="63.623047"/>
       <use xlink:href="#DejaVuSans-38" x="95.410156"/>
      </g>
     </g>
    </g>
    <g id="text_16">
     <!-- score -->
     <g transform="translate(14.798438 153.688812)rotate(-90)scale(0.1 -0.1)">
      <defs>
       <path id="DejaVuSans-63" d="M 3122 3366 
L 3122 2828 
Q 2878 2963 2633 3030 
Q 2388 3097 2138 3097 
Q 1578 3097 1268 2742 
Q 959 2388 959 1747 
Q 959 1106 1268 751 
Q 1578 397 2138 397 
Q 2388 397 2633 464 
Q 2878 531 3122 666 
L 3122 134 
Q 2881 22 2623 -34 
Q 2366 -91 2075 -91 
Q 1284 -91 818 406 
Q 353 903 353 1747 
Q 353 2603 823 3093 
Q 1294 3584 2113 3584 
Q 2378 3584 2631 3529 
Q 2884 3475 3122 3366 
z
" transform="scale(0.015625)"/>
       <path id="DejaVuSans-65" d="M 3597 1894 
L 3597 1613 
L 953 1613 
Q 991 1019 1311 708 
Q 1631 397 2203 397 
Q 2534 397 2845 478 
Q 3156 559 3463 722 
L 3463 178 
Q 3153 47 2828 -22 
Q 2503 -91 2169 -91 
Q 1331 -91 842 396 
Q 353 884 353 1716 
Q 353 2575 817 3079 
Q 1281 3584 2069 3584 
Q 2775 3584 3186 3129 
Q 3597 2675 3597 1894 
z
M 3022 2063 
Q 3016 2534 2758 2815 
Q 2500 3097 2075 3097 
Q 1594 3097 1305 2825 
Q 1016 2553 972 2059 
L 3022 2063 
z
" transform="scale(0.015625)"/>
      </defs>
      <use xlink:href="#DejaVuSans-73"/>
      <use xlink:href="#DejaVuSans-63" x="52.099609"/>
      <use xlink:href="#DejaVuSans-6f" x="107.080078"/>
      <use xlink:href="#DejaVuSans-72" x="168.261719"/>
      <use xlink:href="#DejaVuSans-65" x="207.125"/>
     </g>
    </g>
   </g>
   <g id="line2d_15">
    <path d="M 60.013977 261.216 
L 100.595795 174.816 
L 141.177614 174.816 
L 181.759432 181.462154 
L 222.34125 179.363368 
L 262.923068 165.216 
L 303.504886 141.585231 
L 344.086705 128.858553 
L 384.668523 136.084966 
" clip-path="url(#pdc32f7a02c)" style="fill: none; stroke-dasharray: 3.7,1.6; stroke-dashoffset: 0; stroke: #1f77b4"/>
   </g>
   <g id="line2d_16">
    <path d="M 60.013977 261.216 
L 100.595795 174.816 
L 141.177614 150.130286 
L 181.759432 146.016 
L 222.34125 131.616 
L 262.923068 99.216 
L 303.504886 66.816 
L 344.086705 53.856 
L 384.668523 19.296 
" clip-path="url(#pdc32f7a02c)" style="fill: none; stroke-dasharray: 1,1.65; stroke-dashoffset: 0; stroke: #ff7f0e"/>
   </g>
   <g id="line2d_17">
    <path d="M 60.013977 261.216 
L 100.595795 209.376 
L 141.177614 201.400615 
L 181.759432 203.616 
L 222.34125 199.008 
L 262.923068 182.670545 
L 303.504886 157.536 
L 344.086705 143.842415 
L 384.668523 140.256 
" clip-path="url(#pdc32f7a02c)" style="fill: none; stroke-dasharray: 6.4,1.6,1,1.6; stroke-dashoffset: 0; stroke: #2ca02c"/>
   </g>
   <g id="line2d_18">
    <path d="M 60.013977 261.216 
L 100.595795 174.816 
L 141.177614 164.016 
L 181.759432 166.961455 
L 222.34125 160.880516 
L 262.923068 140.65786 
L 303.504886 113.101714 
L 344.086705 99.636779 
L 384.668523 96.270545 
" clip-path="url(#pdc32f7a02c)" style="fill: none; stroke: #d62728; stroke-linecap: square"/>
   </g>
   <g id="patch_3">
    <path d="M 43.78125 273.312 
L 43.78125 7.2 
" style="fill: none; stroke: #000000; stroke-width: 0.8; stroke-linejoin: miter; stroke-linecap: square"/>
   </g>
   <g id="patch_4">
    <path d="M 400.90125 273.312 
L 400.90125 7.2 
" style="fill: none; stroke: #000000; stroke-width: 0.8; stroke-linejoin: miter; stroke-linecap: square"/>
   </g>
   <g id="patch_5">
    <path d="M 43.78125 273.312 
L 400.90125 273.312 
" style="fill: none; stroke: #000000; stroke-width: 0.8; stroke-linejoin: miter; stroke-linecap: square"/>
   </g>
   <g id="patch_6">
    <path d="M 43.78125 7.2 
L 400.90125 7.2 
" style="fill: none; stroke: #000000; stroke-width: 0.8; stroke-linejoin: miter; stroke-linecap: square"/>
   </g>
   <g id="legend_1">
    <g id="patch_7">
     <path d="M 48.63925 134.991425 
L 102.159662 134.991425 
Q 103.547663 134.991425 103.547663 133.603425 
L 103.547663 12.058 
Q 103.547663 10.67 102.159662 10.67 
L 48.63925 10.67 
Q 47.25125 10.67 47.25125 12.058 
L 47.25125 133.603425 
Q 47.25125 134.991425 48.63925 134.991425 
z
" style="fill: #ffffff; opacity: 0.8; stroke: #cccccc; stroke-linejoin: miter"/>
    </g>
    <g id="text_17">
     <!-- metric -->
     <g transform="translate(69.45925 18.719316)scale(0.0694 -0.0694)">
      <defs>
       <path id="DejaVuSans-6d" d="M 3328 2828 
Q 3544 3216 3844 3400 
Q 4144 3584 4550 3584 
Q 5097 3584 5394 3201 
Q 5691 2819 5691 2113 
L 5691 0 
L 5113 0 
L 5113 2094 
Q 5113 2597 4934 2840 
Q 4756 3084 4391 3084 
Q 3944 3084 3684 2787 
Q 3425 2491 3425 1978 
L 3425 0 
L 2847 0 
L 2847 2094 
Q 2847 2600 2669 2842 
Q 2491 3084 2119 3084 
Q 1678 3084 1418 2786 
Q 1159 2488 1159 1978 
L 1159 0 
L 581 0 
L 581 3500 
L 1159 3500 
L 1159 2956 
Q 1356 3278 1631 3431 
Q 1906 3584 2284 3584 
Q 2666 3584 2933 3390 
Q 3200 3197 3328 2828 
z
" transform="scale(0.015625)"/>
       <path id="DejaVuSans-74" d="M 1172 4494 
L 1172 3500 
L 2356 3500 
L 2356 3053 
L 1172 3053 
L 1172 1153 
Q 1172 725 1289 603 
Q 1406 481 1766 481 
L 2356 481 
L 2356 0 
L 1766 0 
Q 1100 0 847 248 
Q 594 497 594 1153 
L 594 3053 
L 172 3053 
L 172 3500 
L 594 3500 
L 594 4494 
L 1172 4494 
z
" transform="scale(0.015625)"/>
       <path id="DejaVuSans-69" d="M 603 3500 
L 1178 3500 
L 1178 0 
L 603 0 
L 603 3500 
z
M 603 4863 
L 1178 4863 
L 1178 4134 
L 603 4134 
L 603 4863 
z
" transform="scale(0.015625)"/>
      </defs>
      <use xlink:href="#DejaVuSans-6d"/>
      <use xlink:href="#DejaVuSans-65" x="97.412109"/>
      <use xlink:href="#DejaVuSans-74" x="158.935547"/>
      <use xlink:href="#DejaVuSans-72" x="198.144531"/>
      <use xlink:href="#DejaVuSans-69" x="239.257812"/>
      <use xlink:href="#DejaVuSans-63" x="267.041016"/>
     </g>
    </g>
    <g id="PathCollection_12">
     <defs>
      <path id="m82770adf50" d="M 0 3 
C 0.795609 3 1.55874 2.683901 2.12132 2.12132 
C 2.683901 1.55874 3 0.795609 3 0 
C 3 -0.795609 2.683901 -1.55874 2.12132 -2.12132 
C 1.55874 -2.683901 0.795609 -3 0 -3 
C -0.795609 -3 -1.55874 -2.683901 -2.12132 -2.12132 
C -2.683901 -1.55874 -3 -0.795609 -3 0 
C -3 0.795609 -2.683901 1.55874 -2.12132 2.12132 
C -1.55874 2.683901 -0.795609 3 0 3 
z
" style="stroke: #1f77b4"/>
     </defs>
     <g>
      <use xlink:href="#m82770adf50" x="56.96725" y="27.084184" style="fill: #1f77b4; stroke: #1f77b4"/>
     </g>
    </g>
    <g id="text_18">
     <!-- precision -->
     <g transform="translate(69.45925 28.905934)scale(0.0694 -0.0694)">
      <defs>
       <path id="DejaVuSans-70" d="M 1159 525 
L 1159 -1331 
L 581 -1331 
L 581 3500 
L 1159 3500 
L 1159 2969 
Q 1341 3281 1617 3432 
Q 1894 3584 2278 3584 
Q 2916 3584 3314 3078 
Q 3713 2572 3713 1747 
Q 3713 922 3314 415 
Q 2916 -91 2278 -91 
Q 1894 -91 1617 61 
Q 1341 213 1159 525 
z
M 3116 1747 
Q 3116 2381 2855 2742 
Q 2594 3103 2138 3103 
Q 1681 3103 1420 2742 
Q 1159 2381 1159 1747 
Q 1159 1113 1420 752 
Q 1681 391 2138 391 
Q 2594 391 2855 752 
Q 3116 1113 3116 1747 
z
" transform="scale(0.015625)"/>
      </defs>
      <use xlink:href="#DejaVuSans-70"/>
      <use xlink:href="#DejaVuSans-72" x="63.476562"/>
      <use xlink:href="#DejaVuSans-65" x="102.339844"/>
      <use xlink:href="#DejaVuSans-63" x="163.863281"/>
      <use xlink:href="#DejaVuSans-69" x="218.84375"/>
      <use xlink:href="#DejaVuSans-73" x="246.626953"/>
      <use xlink:href="#DejaVuSans-69" x="298.726562"/>
      <use xlink:href="#DejaVuSans-6f" x="326.509766"/>
      <use xlink:href="#DejaVuSans-6e" x="387.691406"/>
     </g>
    </g>
    <g id="PathCollection_13">
     <defs>
      <path id="m38c985209c" d="M 0 3 
C 0.795609 3 1.55874 2.683901 2.12132 2.12132 
C 2.683901 1.55874 3 0.795609 3 0 
C 3 -0.795609 2.683901 -1.55874 2.12132 -2.12132 
C 1.55874 -2.683901 0.795609 -3 0 -3 
C -0.795609 -3 -1.55874 -2.683901 -2.12132 -2.12132 
C -2.683901 -1.55874 -3 -0.795609 -3 0 
C -3 0.795609 -2.683901 1.55874 -2.12132 2.12132 
C -1.55874 2.683901 -0.795609 3 0 3 
z
" style="stroke: #ff7f0e"/>
     </defs>
     <g>
      <use xlink:href="#m38c985209c" x="56.96725" y="37.270803" style="fill: #ff7f0e; stroke: #ff7f0e"/>
     </g>
    </g>
    <g id="text_19">
     <!-- recall -->
     <g transform="translate(69.45925 39.092553)scale(0.0694 -0.0694)">
      <defs>
       <path id="DejaVuSans-61" d="M 2194 1759 
Q 1497 1759 1228 1600 
Q 959 1441 959 1056 
Q 959 750 1161 570 
Q 1363 391 1709 391 
Q 2188 391 2477 730 
Q 2766 1069 2766 1631 
L 2766 1759 
L 2194 1759 
z
M 3341 1997 
L 3341 0 
L 2766 0 
L 2766 531 
Q 2569 213 2275 61 
Q 1981 -91 1556 -91 
Q 1019 -91 701 211 
Q 384 513 384 1019 
Q 384 1609 779 1909 
Q 1175 2209 1959 2209 
L 2766 2209 
L 2766 2266 
Q 2766 2663 2505 2880 
Q 2244 3097 1772 3097 
Q 1472 3097 1187 3025 
Q 903 2953 641 2809 
L 641 3341 
Q 956 3463 1253 3523 
Q 1550 3584 1831 3584 
Q 2591 3584 2966 3190 
Q 3341 2797 3341 1997 
z
" transform="scale(0.015625)"/>
       <path id="DejaVuSans-6c" d="M 603 4863 
L 1178 4863 
L 1178 0 
L 603 0 
L 603 4863 
z
" transform="scale(0.015625)"/>
      </defs>
      <use xlink:href="#DejaVuSans-72"/>
      <use xlink:href="#DejaVuSans-65" x="38.863281"/>
      <use xlink:href="#DejaVuSans-63" x="100.386719"/>
      <use xlink:href="#DejaVuSans-61" x="155.367188"/>
      <use xlink:href="#DejaVuSans-6c" x="216.646484"/>
      <use xlink:href="#DejaVuSans-6c" x="244.429688"/>
     </g>
    </g>
    <g id="PathCollection_14">
     <defs>
      <path id="m1758389730" d="M 0 3 
C 0.795609 3 1.55874 2.683901 2.12132 2.12132 
C 2.683901 1.55874 3 0.795609 3 0 
C 3 -0.795609 2.683901 -1.55874 2.12132 -2.12132 
C 1.55874 -2.683901 0.795609 -3 0 -3 
C -0.795609 -3 -1.55874 -2.683901 -2.12132 -2.12132 
C -2.683901 -1.55874 -3 -0.795609 -3 0 
C -3 0.795609 -2.683901 1.55874 -2.12132 2.12132 
C -1.55874 2.683901 -0.795609 3 0 3 
z
" style="stroke: #2ca02c"/>
     </defs>
     <g>
      <use xlink:href="#m1758389730" x="56.96725" y="47.457422" style="fill: #2ca02c; stroke: #2ca02c"/>
     </g>
    </g>
    <g id="text_20">
     <!-- accuracy -->
     <g transform="translate(69.45925 49.279172)scale(0.0694 -0.0694)">
      <defs>
       <path id="DejaVuSans-75" d="M 544 1381 
L 544 3500 
L 1119 3500 
L 1119 1403 
Q 1119 906 1312 657 
Q 1506 409 1894 409 
Q 2359 409 2629 706 
Q 2900 1003 2900 1516 
L 2900 3500 
L 3475 3500 
L 3475 0 
L 2900 0 
L 2900 538 
Q 2691 219 2414 64 
Q 2138 -91 1772 -91 
Q 1169 -91 856 284 
Q 544 659 544 1381 
z
M 1991 3584 
L 1991 3584 
z
" transform="scale(0.015625)"/>
       <path id="DejaVuSans-79" d="M 2059 -325 
Q 1816 -950 1584 -1140 
Q 1353 -1331 966 -1331 
L 506 -1331 
L 506 -850 
L 844 -850 
Q 1081 -850 1212 -737 
Q 1344 -625 1503 -206 
L 1606 56 
L 191 3500 
L 800 3500 
L 1894 763 
L 2988 3500 
L 3597 3500 
L 2059 -325 
z
" transform="scale(0.015625)"/>
      </defs>
      <use xlink:href="#DejaVuSans-61"/>
      <use xlink:href="#DejaVuSans-63" x="61.279297"/>
      <use xlink:href="#DejaVuSans-63" x="116.259766"/>
      <use xlink:href="#DejaVuSans-75" x="171.240234"/>
      <use xlink:href="#DejaVuSans-72" x="234.619141"/>
      <use xlink:href="#DejaVuSans-61" x="275.732422"/>
      <use xlink:href="#DejaVuSans-63" x="337.011719"/>
      <use xlink:href="#DejaVuSans-79" x="391.992188"/>
     </g>
    </g>
    <g id="PathCollection_15">
     <defs>
      <path id="m96b3c598b0" d="M 0 3 
C 0.795609 3 1.55874 2.683901 2.12132 2.12132 
C 2.683901 1.55874 3 0.795609 3 0 
C 3 -0.795609 2.683901 -1.55874 2.12132 -2.12132 
C 1.55874 -2.683901 0.795609 -3 0 -3 
C -0.795609 -3 -1.55874 -2.683901 -2.12132 -2.12132 
C -2.683901 -1.55874 -3 -0.795609 -3 0 
C -3 0.795609 -2.683901 1.55874 -2.12132 2.12132 
C -1.55874 2.683901 -0.795609 3 0 3 
z
" style="stroke: #d62728"/>
     </defs>
     <g>
      <use xlink:href="#m96b3c598b0" x="56.96725" y="57.644041" style="fill: #d62728; stroke: #d62728"/>
     </g>
    </g>
    <g id="text_21">
     <!-- f1 -->
     <g transform="translate(69.45925 59.465791)scale(0.0694 -0.0694)">
      <defs>
       <path id="DejaVuSans-66" d="M 2375 4863 
L 2375 4384 
L 1825 4384 
Q 1516 4384 1395 4259 
Q 1275 4134 1275 3809 
L 1275 3500 
L 2222 3500 
L 2222 3053 
L 1275 3053 
L 1275 0 
L 697 0 
L 697 3053 
L 147 3053 
L 147 3500 
L 697 3500 
L 697 3744 
Q 697 4328 969 4595 
Q 1241 4863 1831 4863 
L 2375 4863 
z
" transform="scale(0.015625)"/>
      </defs>
      <use xlink:href="#DejaVuSans-66"/>
      <use xlink:href="#DejaVuSans-31" x="35.205078"/>
     </g>
    </g>
    <g id="text_22">
     <!-- ncols -->
     <g transform="translate(69.45925 69.652409)scale(0.0694 -0.0694)">
      <use xlink:href="#DejaVuSans-6e"/>
      <use xlink:href="#DejaVuSans-63" x="63.378906"/>
      <use xlink:href="#DejaVuSans-6f" x="118.359375"/>
      <use xlink:href="#DejaVuSans-6c" x="179.541016"/>
      <use xlink:href="#DejaVuSans-73" x="207.324219"/>
     </g>
    </g>
    <g id="PathCollection_16">
     <defs>
      <path id="m5d5b7d8058" d="M 0 3.307189 
C 0.877077 3.307189 1.718349 2.958723 2.338536 2.338536 
C 2.958723 1.718349 3.307189 0.877077 3.307189 0 
C 3.307189 -0.877077 2.958723 -1.718349 2.338536 -2.338536 
C 1.718349 -2.958723 0.877077 -3.307189 0 -3.307189 
C -0.877077 -3.307189 -1.718349 -2.958723 -2.338536 -2.338536 
C -2.958723 -1.718349 -3.307189 -0.877077 -3.307189 0 
C -3.307189 0.877077 -2.958723 1.718349 -2.338536 2.338536 
C -1.718349 2.958723 -0.877077 3.307189 0 3.307189 
z
" style="stroke: #333333"/>
     </defs>
     <g>
      <use xlink:href="#m5d5b7d8058" x="56.96725" y="78.017278" style="fill: #333333; stroke: #333333"/>
     </g>
    </g>
    <g id="text_23">
     <!-- 8 -->
     <g transform="translate(69.45925 79.839028)scale(0.0694 -0.0694)">
      <use xlink:href="#DejaVuSans-38"/>
     </g>
    </g>
    <g id="PathCollection_17">
     <defs>
      <path id="me8f805d536" d="M 0 3.66572 
C 0.97216 3.66572 1.904634 3.279476 2.592055 2.592055 
C 3.279476 1.904634 3.66572 0.97216 3.66572 0 
C 3.66572 -0.97216 3.279476 -1.904634 2.592055 -2.592055 
C 1.904634 -3.279476 0.97216 -3.66572 0 -3.66572 
C -0.97216 -3.66572 -1.904634 -3.279476 -2.592055 -2.592055 
C -3.279476 -1.904634 -3.66572 -0.97216 -3.66572 0 
C -3.66572 0.97216 -3.279476 1.904634 -2.592055 2.592055 
C -1.904634 3.279476 -0.97216 3.66572 0 3.66572 
z
" style="stroke: #333333"/>
     </defs>
     <g>
      <use xlink:href="#me8f805d536" x="56.96725" y="88.203897" style="fill: #333333; stroke: #333333"/>
     </g>
    </g>
    <g id="text_24">
     <!-- 16 -->
     <g transform="translate(69.45925 90.025647)scale(0.0694 -0.0694)">
      <use xlink:href="#DejaVuSans-31"/>
      <use xlink:href="#DejaVuSans-36" x="63.623047"/>
     </g>
    </g>
    <g id="PathCollection_18">
     <defs>
      <path id="m946408509c" d="M 0 3.99218 
C 1.058738 3.99218 2.074256 3.571539 2.822897 2.822897 
C 3.571539 2.074256 3.99218 1.058738 3.99218 0 
C 3.99218 -1.058738 3.571539 -2.074256 2.822897 -2.822897 
C 2.074256 -3.571539 1.058738 -3.99218 0 -3.99218 
C -1.058738 -3.99218 -2.074256 -3.571539 -2.822897 -2.822897 
C -3.571539 -2.074256 -3.99218 -1.058738 -3.99218 0 
C -3.99218 1.058738 -3.571539 2.074256 -2.822897 2.822897 
C -2.074256 3.571539 -1.058738 3.99218 0 3.99218 
z
" style="stroke: #333333"/>
     </defs>
     <g>
      <use xlink:href="#m946408509c" x="56.96725" y="98.390516" style="fill: #333333; stroke: #333333"/>
     </g>
    </g>
    <g id="text_25">
     <!-- 24 -->
     <g transform="translate(69.45925 100.212266)scale(0.0694 -0.0694)">
      <use xlink:href="#DejaVuSans-32"/>
      <use xlink:href="#DejaVuSans-34" x="63.623047"/>
     </g>
    </g>
    <g id="PathCollection_19">
     <defs>
      <path id="mc70cf6725c" d="M 0 4.293891 
C 1.138753 4.293891 2.231019 3.84146 3.036239 3.036239 
C 3.84146 2.231019 4.293891 1.138753 4.293891 0 
C 4.293891 -1.138753 3.84146 -2.231019 3.036239 -3.036239 
C 2.231019 -3.84146 1.138753 -4.293891 0 -4.293891 
C -1.138753 -4.293891 -2.231019 -3.84146 -3.036239 -3.036239 
C -3.84146 -2.231019 -4.293891 -1.138753 -4.293891 0 
C -4.293891 1.138753 -3.84146 2.231019 -3.036239 3.036239 
C -2.231019 3.84146 -1.138753 4.293891 0 4.293891 
z
" style="stroke: #333333"/>
     </defs>
     <g>
      <use xlink:href="#mc70cf6725c" x="56.96725" y="108.577134" style="fill: #333333; stroke: #333333"/>
     </g>
    </g>
    <g id="text_26">
     <!-- 32 -->
     <g transform="translate(69.45925 110.398884)scale(0.0694 -0.0694)">
      <use xlink:href="#DejaVuSans-33"/>
      <use xlink:href="#DejaVuSans-32" x="63.623047"/>
     </g>
    </g>
    <g id="PathCollection_20">
     <defs>
      <path id="mfa2949292c" d="M 0 4.575751 
C 1.213503 4.575751 2.377468 4.093621 3.235545 3.235545 
C 4.093621 2.377468 4.575751 1.213503 4.575751 0 
C 4.575751 -1.213503 4.093621 -2.377468 3.235545 -3.235545 
C 2.377468 -4.093621 1.213503 -4.575751 0 -4.575751 
C -1.213503 -4.575751 -2.377468 -4.093621 -3.235545 -3.235545 
C -4.093621 -2.377468 -4.575751 -1.213503 -4.575751 0 
C -4.575751 1.213503 -4.093621 2.377468 -3.235545 3.235545 
C -2.377468 4.093621 -1.213503 4.575751 0 4.575751 
z
" style="stroke: #333333"/>
     </defs>
     <g>
      <use xlink:href="#mfa2949292c" x="56.96725" y="118.763753" style="fill: #333333; stroke: #333333"/>
     </g>
    </g>
    <g id="text_27">
     <!-- 40 -->
     <g transform="translate(69.45925 120.585503)scale(0.0694 -0.0694)">
      <use xlink:href="#DejaVuSans-34"/>
      <use xlink:href="#DejaVuSans-30" x="63.623047"/>
     </g>
    </g>
    <g id="PathCollection_21">
     <defs>
      <path id="meb605eec40" d="M 0 4.841229 
C 1.283909 4.841229 2.515405 4.331127 3.423266 3.423266 
C 4.331127 2.515405 4.841229 1.283909 4.841229 0 
C 4.841229 -1.283909 4.331127 -2.515405 3.423266 -3.423266 
C 2.515405 -4.331127 1.283909 -4.841229 0 -4.841229 
C -1.283909 -4.841229 -2.515405 -4.331127 -3.423266 -3.423266 
C -4.331127 -2.515405 -4.841229 -1.283909 -4.841229 0 
C -4.841229 1.283909 -4.331127 2.515405 -3.423266 3.423266 
C -2.515405 4.331127 -1.283909 4.841229 0 4.841229 
z
" style="stroke: #333333"/>
     </defs>
     <g>
      <use xlink:href="#meb605eec40" x="56.96725" y="128.950372" style="fill: #333333; stroke: #333333"/>
     </g>
    </g>
    <g id="text_28">
     <!-- 48 -->
     <g transform="translate(69.45925 130.772122)scale(0.0694 -0.0694)">
      <use xlink:href="#DejaVuSans-34"/>
      <use xlink:href="#DejaVuSans-38" x="63.623047"/>
     </g>
    </g>
   </g>
  </g>
 </g>
 <defs>
  <clipPath id="pdc32f7a02c">
   <rect x="43.78125" y="7.2" width="357.12" height="266.112"/>
  </clipPath>
 </defs>
</svg>
