<?xml version="1.0" encoding="utf-8" standalone="no"?>
<!DOCTYPE svg PUBLIC "-//W3C//DTD SVG 1.1//EN"
  "http://www.w3.org/Graphics/SVG/1.1/DTD/svg11.dtd">
<svg xmlns:xlink="http://www.w3.org/1999/xlink" width="408.10125pt" height="310.86825pt" viewBox="0 0 408.10125 310.86825" xmlns="http://www.w3.org/2000/svg" version="1.1">
 <metadata>
  <rdf:RDF xmlns:dc="http://purl.org/dc/elements/1.1/" xmlns:cc="http://creativecommons.org/ns#" xmlns:rdf="http://www.w3.org/1999/02/22-rdf-syntax-ns#">
   <cc:Work>
    <dc:type rdf:resource="http://purl.org/dc/dcmitype/StillImage"/>
    <dc:date>2022-03-24T13:37:13.854507</dc:date>
    <dc:format>image/svg+xml</dc:format>
    <dc:creator>
     <cc:Agent>
      <dc:title>Matplotlib v3.5.1, https://matplotlib.org/</dc:title>
     </cc:Agent>
    </dc:creator>
   </cc:Work>
  </rdf:RDF>
 </metadata>
 <defs>
  <style type="text/css">*{stroke-linejoin: round; stroke-linecap: butt}</style>
 </defs>
 <g id="figure_1">
  <g id="patch_1">
   <path d="M 0 310.86825 
L 408.10125 310.86825 
L 408.10125 0 
L 0 0 
z
" style="fill: #ffffff"/>
  </g>
  <g id="axes_1">
   <g id="patch_2">
    <path d="M 43.78125 273.312 
L 400.90125 273.312 
L 400.90125 7.2 
L 43.78125 7.2 
z
" style="fill: #ffffff"/>
   </g>
   <g id="PathCollection_1">
    <path d="M 384.668523 144.476486 
C 385.787809 144.476486 386.861402 144.031789 387.652857 143.240334 
C 388.444311 142.448879 388.889008 141.375286 388.889008 140.256 
C 388.889008 139.136714 388.444311 138.063121 387.652857 137.271666 
C 386.861402 136.480211 385.787809 136.035514 384.668523 136.035514 
C 383.549237 136.035514 382.475643 136.480211 381.684189 137.271666 
C 380.892734 138.063121 380.448037 139.136714 380.448037 140.256 
C 380.448037 141.375286 380.892734 142.448879 381.684189 143.240334 
C 382.475643 144.031789 383.549237 144.476486 384.668523 144.476486 
z
" clip-path="url(#p14c8419412)" style="fill: #2ca02c; stroke: #ffffff; stroke-width: 0.525357"/>
    <path d="M 384.668523 140.305451 
C 385.787809 140.305451 386.861402 139.860754 387.652857 139.0693 
C 388.444311 138.277845 388.889008 137.204251 388.889008 136.084966 
C 388.889008 134.96568 388.444311 133.892086 387.652857 133.100631 
C 386.861402 132.309177 385.787809 131.86448 384.668523 131.86448 
C 383.549237 131.86448 382.475643 132.309177 381.684189 133.100631 
C 380.892734 133.892086 380.448037 134.96568 380.448037 136.084966 
C 380.448037 137.204251 380.892734 138.277845 381.684189 139.0693 
C 382.475643 139.860754 383.549237 140.305451 384.668523 140.305451 
z
" clip-path="url(#p14c8419412)" style="fill: #1f77b4; stroke: #ffffff; stroke-width: 0.525357"/>
    <path d="M 384.668523 23.516486 
C 385.787809 23.516486 386.861402 23.071789 387.652857 22.280334 
C 388.444311 21.488879 388.889008 20.415286 388.889008 19.296 
C 388.889008 18.176714 388.444311 17.103121 387.652857 16.311666 
C 386.861402 15.520211 385.787809 15.075514 384.668523 15.075514 
C 383.549237 15.075514 382.475643 15.520211 381.684189 16.311666 
C 380.892734 17.103121 380.448037 18.176714 380.448037 19.296 
C 380.448037 20.415286 380.892734 21.488879 381.684189 22.280334 
C 382.475643 23.071789 383.549237 23.516486 384.668523 23.516486 
z
" clip-path="url(#p14c8419412)" style="fill: #ff7f0e; stroke: #ffffff; stroke-width: 0.525357"/>
    <path d="M 384.668523 100.491031 
C 385.787809 100.491031 386.861402 100.046334 387.652857 99.25488 
C 388.444311 98.463425 388.889008 97.389831 388.889008 96.270545 
C 388.889008 95.15126 388.444311 94.077666 387.652857 93.286211 
C 386.861402 92.494757 385.787809 92.05006 384.668523 92.05006 
C 383.549237 92.05006 382.475643 92.494757 381.684189 93.286211 
C 380.892734 94.077666 380.448037 95.15126 380.448037 96.270545 
C 380.448037 97.389831 380.892734 98.463425 381.684189 99.25488 
C 382.475643 100.046334 383.549237 100.491031 384.668523 100.491031 
z
" clip-path="url(#p14c8419412)" style="fill: #d62728; stroke: #ffffff; stroke-width: 0.525357"/>
    <path d="M 344.086705 168.404679 
C 345.41272 168.404679 346.684604 167.877848 347.622238 166.940213 
C 348.559873 166.002579 349.086705 164.730695 349.086705 163.404679 
C 349.086705 162.078664 348.559873 160.80678 347.622238 159.869145 
C 346.684604 158.931511 345.41272 158.404679 344.086705 158.404679 
C 342.760689 158.404679 341.488805 158.931511 340.551171 159.869145 
C 339.613536 160.80678 339.086705 162.078664 339.086705 163.404679 
C 339.086705 164.730695 339.613536 166.002579 340.551171 166.940213 
C 341.488805 167.877848 342.760689 168.404679 344.086705 168.404679 
z
" clip-path="url(#p14c8419412)" style="fill: #2ca02c; stroke: #ffffff; stroke-width: 0.525357"/>
    <path d="M 344.086705 155.918128 
C 345.41272 155.918128 346.684604 155.391296 347.622238 154.453662 
C 348.559873 153.516027 349.086705 152.244143 349.086705 150.918128 
C 349.086705 149.592112 348.559873 148.320228 347.622238 147.382594 
C 346.684604 146.444959 345.41272 145.918128 344.086705 145.918128 
C 342.760689 145.918128 341.488805 146.444959 340.551171 147.382594 
C 339.613536 148.320228 339.086705 149.592112 339.086705 150.918128 
C 339.086705 152.244143 339.613536 153.516027 340.551171 154.453662 
C 341.488805 155.391296 342.760689 155.918128 344.086705 155.918128 
z
" clip-path="url(#p14c8419412)" style="fill: #1f77b4; stroke: #ffffff; stroke-width: 0.525357"/>
    <path d="M 344.086705 66.831385 
C 345.41272 66.831385 346.684604 66.304553 347.622238 65.366919 
C 348.559873 64.429284 349.086705 63.1574 349.086705 61.831385 
C 349.086705 60.505369 348.559873 59.233485 347.622238 58.295851 
C 346.684604 57.358216 345.41272 56.831385 344.086705 56.831385 
C 342.760689 56.831385 341.488805 57.358216 340.551171 58.295851 
C 339.613536 59.233485 339.086705 60.505369 339.086705 61.831385 
C 339.086705 63.1574 339.613536 64.429284 340.551171 65.366919 
C 341.488805 66.304553 342.760689 66.831385 344.086705 66.831385 
z
" clip-path="url(#p14c8419412)" style="fill: #ff7f0e; stroke: #ffffff; stroke-width: 0.525357"/>
    <path d="M 344.086705 124.188603 
C 345.41272 124.188603 346.684604 123.661771 347.622238 122.724137 
C 348.559873 121.786502 349.086705 120.514618 349.086705 119.188603 
C 349.086705 117.862587 348.559873 116.590703 347.622238 115.653069 
C 346.684604 114.715434 345.41272 114.188603 344.086705 114.188603 
C 342.760689 114.188603 341.488805 114.715434 340.551171 115.653069 
C 339.613536 116.590703 339.086705 117.862587 339.086705 119.188603 
C 339.086705 120.514618 339.613536 121.786502 340.551171 122.724137 
C 341.488805 123.661771 342.760689 124.188603 344.086705 124.188603 
z
" clip-path="url(#p14c8419412)" style="fill: #d62728; stroke: #ffffff; stroke-width: 0.525357"/>
    <path d="M 60.013977 264.378278 
C 60.852623 264.378278 61.657033 264.04508 62.250045 263.452068 
C 62.843057 262.859056 63.176255 262.054646 63.176255 261.216 
C 63.176255 260.377354 62.843057 259.572944 62.250045 258.979932 
C 61.657033 258.38692 60.852623 258.053722 60.013977 258.053722 
C 59.175331 258.053722 58.370921 258.38692 57.777909 258.979932 
C 57.184897 259.572944 56.8517 260.377354 56.8517 261.216 
C 56.8517 262.054646 57.184897 262.859056 57.777909 263.452068 
C 58.370921 264.04508 59.175331 264.378278 60.013977 264.378278 
z
" clip-path="url(#p14c8419412)" style="fill: #2ca02c; stroke: #ffffff; stroke-width: 0.525357"/>
    <path d="M 60.013977 264.378278 
C 60.852623 264.378278 61.657033 264.04508 62.250045 263.452068 
C 62.843057 262.859056 63.176255 262.054646 63.176255 261.216 
C 63.176255 260.377354 62.843057 259.572944 62.250045 258.979932 
C 61.657033 258.38692 60.852623 258.053722 60.013977 258.053722 
C 59.175331 258.053722 58.370921 258.38692 57.777909 258.979932 
C 57.184897 259.572944 56.8517 260.377354 56.8517 261.216 
C 56.8517 262.054646 57.184897 262.859056 57.777909 263.452068 
C 58.370921 264.04508 59.175331 264.378278 60.013977 264.378278 
z
" clip-path="url(#p14c8419412)" style="fill: #1f77b4; stroke: #ffffff; stroke-width: 0.525357"/>
    <path d="M 60.013977 264.378278 
C 60.852623 264.378278 61.657033 264.04508 62.250045 263.452068 
C 62.843057 262.859056 63.176255 262.054646 63.176255 261.216 
C 63.176255 260.377354 62.843057 259.572944 62.250045 258.979932 
C 61.657033 258.38692 60.852623 258.053722 60.013977 258.053722 
C 59.175331 258.053722 58.370921 258.38692 57.777909 258.979932 
C 57.184897 259.572944 56.8517 260.377354 56.8517 261.216 
C 56.8517 262.054646 57.184897 262.859056 57.777909 263.452068 
C 58.370921 264.04508 59.175331 264.378278 60.013977 264.378278 
z
" clip-path="url(#p14c8419412)" style="fill: #ff7f0e; stroke: #ffffff; stroke-width: 0.525357"/>
    <path d="M 60.013977 264.378278 
C 60.852623 264.378278 61.657033 264.04508 62.250045 263.452068 
C 62.843057 262.859056 63.176255 262.054646 63.176255 261.216 
C 63.176255 260.377354 62.843057 259.572944 62.250045 258.979932 
C 61.657033 258.38692 60.852623 258.053722 60.013977 258.053722 
C 59.175331 258.053722 58.370921 258.38692 57.777909 258.979932 
C 57.184897 259.572944 56.8517 260.377354 56.8517 261.216 
C 56.8517 262.054646 57.184897 262.859056 57.777909 263.452068 
C 58.370921 264.04508 59.175331 264.378278 60.013977 264.378278 
z
" clip-path="url(#p14c8419412)" style="fill: #d62728; stroke: #ffffff; stroke-width: 0.525357"/>
    <path d="M 100.595795 212.776368 
C 101.497583 212.776368 102.362558 212.418083 103.000218 211.780423 
C 103.637879 211.142763 103.996163 210.277788 103.996163 209.376 
C 103.996163 208.474212 103.637879 207.609237 103.000218 206.971577 
C 102.362558 206.333917 101.497583 205.975632 100.595795 205.975632 
C 99.694007 205.975632 98.829033 206.333917 98.191372 206.971577 
C 97.553712 207.609237 97.195428 208.474212 97.195428 209.376 
C 97.195428 210.277788 97.553712 211.142763 98.191372 211.780423 
C 98.829033 212.418083 99.694007 212.776368 100.595795 212.776368 
z
" clip-path="url(#p14c8419412)" style="fill: #2ca02c; stroke: #ffffff; stroke-width: 0.525357"/>
    <path d="M 100.595795 178.216368 
C 101.497583 178.216368 102.362558 177.858083 103.000218 177.220423 
C 103.637879 176.582763 103.996163 175.717788 103.996163 174.816 
C 103.996163 173.914212 103.637879 173.049237 103.000218 172.411577 
C 102.362558 171.773917 101.497583 171.415632 100.595795 171.415632 
C 99.694007 171.415632 98.829033 171.773917 98.191372 172.411577 
C 97.553712 173.049237 97.195428 173.914212 97.195428 174.816 
C 97.195428 175.717788 97.553712 176.582763 98.191372 177.220423 
C 98.829033 177.858083 99.694007 178.216368 100.595795 178.216368 
z
" clip-path="url(#p14c8419412)" style="fill: #1f77b4; stroke: #ffffff; stroke-width: 0.525357"/>
    <path d="M 100.595795 178.216368 
C 101.497583 178.216368 102.362558 177.858083 103.000218 177.220423 
C 103.637879 176.582763 103.996163 175.717788 103.996163 174.816 
C 103.996163 173.914212 103.637879 173.049237 103.000218 172.411577 
C 102.362558 171.773917 101.497583 171.415632 100.595795 171.415632 
C 99.694007 171.415632 98.829033 171.773917 98.191372 172.411577 
C 97.553712 173.049237 97.195428 173.914212 97.195428 174.816 
C 97.195428 175.717788 97.553712 176.582763 98.191372 177.220423 
C 98.829033 177.858083 99.694007 178.216368 100.595795 178.216368 
z
" clip-path="url(#p14c8419412)" style="fill: #ff7f0e; stroke: #ffffff; stroke-width: 0.525357"/>
    <path d="M 100.595795 178.216368 
C 101.497583 178.216368 102.362558 177.858083 103.000218 177.220423 
C 103.637879 176.582763 103.996163 175.717788 103.996163 174.816 
C 103.996163 173.914212 103.637879 173.049237 103.000218 172.411577 
C 102.362558 171.773917 101.497583 171.415632 100.595795 171.415632 
C 99.694007 171.415632 98.829033 171.773917 98.191372 172.411577 
C 97.553712 173.049237 97.195428 173.914212 97.195428 174.816 
C 97.195428 175.717788 97.553712 176.582763 98.191372 177.220423 
C 98.829033 177.858083 99.694007 178.216368 100.595795 178.216368 
z
" clip-path="url(#p14c8419412)" style="fill: #d62728; stroke: #ffffff; stroke-width: 0.525357"/>
    <path d="M 141.177614 224.874611 
C 142.115248 224.874611 143.014606 224.502085 143.677614 223.839077 
C 144.340621 223.176069 144.713148 222.276711 144.713148 221.339077 
C 144.713148 220.401442 144.340621 219.502085 143.677614 218.839077 
C 143.014606 218.176069 142.115248 217.803543 141.177614 217.803543 
C 140.239979 217.803543 139.340621 218.176069 138.677614 218.839077 
C 138.014606 219.502085 137.64208 220.401442 137.64208 221.339077 
C 137.64208 222.276711 138.014606 223.176069 138.677614 223.839077 
C 139.340621 224.502085 140.239979 224.874611 141.177614 224.874611 
z
" clip-path="url(#p14c8419412)" style="fill: #2ca02c; stroke: #ffffff; stroke-width: 0.525357"/>
    <path d="M 141.177614 207.151534 
C 142.115248 207.151534 143.014606 206.779008 143.677614 206.116 
C 144.340621 205.452992 144.713148 204.553635 144.713148 203.616 
C 144.713148 202.678365 144.340621 201.779008 143.677614 201.116 
C 143.014606 200.452992 142.115248 200.080466 141.177614 200.080466 
C 140.239979 200.080466 139.340621 200.452992 138.677614 201.116 
C 138.014606 201.779008 137.64208 202.678365 137.64208 203.616 
C 137.64208 204.553635 138.014606 205.452992 138.677614 206.116 
C 139.340621 206.779008 140.239979 207.151534 141.177614 207.151534 
z
" clip-path="url(#p14c8419412)" style="fill: #1f77b4; stroke: #ffffff; stroke-width: 0.525357"/>
    <path d="M 141.177614 178.351534 
C 142.115248 178.351534 143.014606 177.979008 143.677614 177.316 
C 144.340621 176.652992 144.713148 175.753635 144.713148 174.816 
C 144.713148 173.878365 144.340621 172.979008 143.677614 172.316 
C 143.014606 171.652992 142.115248 171.280466 141.177614 171.280466 
C 140.239979 171.280466 139.340621 171.652992 138.677614 172.316 
C 138.014606 172.979008 137.64208 173.878365 137.64208 174.816 
C 137.64208 175.753635 138.014606 176.652992 138.677614 177.316 
C 139.340621 177.979008 140.239979 178.351534 141.177614 178.351534 
z
" clip-path="url(#p14c8419412)" style="fill: #ff7f0e; stroke: #ffffff; stroke-width: 0.525357"/>
    <path d="M 141.177614 195.631534 
C 142.115248 195.631534 143.014606 195.259008 143.677614 194.596 
C 144.340621 193.932992 144.713148 193.033635 144.713148 192.096 
C 144.713148 191.158365 144.340621 190.259008 143.677614 189.596 
C 143.014606 188.932992 142.115248 188.560466 141.177614 188.560466 
C 140.239979 188.560466 139.340621 188.932992 138.677614 189.596 
C 138.014606 190.259008 137.64208 191.158365 137.64208 192.096 
C 137.64208 193.033635 138.014606 193.932992 138.677614 194.596 
C 139.340621 195.259008 140.239979 195.631534 141.177614 195.631534 
z
" clip-path="url(#p14c8419412)" style="fill: #d62728; stroke: #ffffff; stroke-width: 0.525357"/>
    <path d="M 181.759432 221.766 
C 182.753943 221.766 183.707856 221.370876 184.411082 220.66765 
C 185.114308 219.964425 185.509432 219.010512 185.509432 218.016 
C 185.509432 217.021488 185.114308 216.067575 184.411082 215.36435 
C 183.707856 214.661124 182.753943 214.266 181.759432 214.266 
C 180.76492 214.266 179.811007 214.661124 179.107781 215.36435 
C 178.404555 216.067575 178.009432 217.021488 178.009432 218.016 
C 178.009432 219.010512 178.404555 219.964425 179.107781 220.66765 
C 179.811007 221.370876 180.76492 221.766 181.759432 221.766 
z
" clip-path="url(#p14c8419412)" style="fill: #2ca02c; stroke: #ffffff; stroke-width: 0.525357"/>
    <path d="M 181.759432 205.150615 
C 182.753943 205.150615 183.707856 204.755492 184.411082 204.052266 
C 185.114308 203.34904 185.509432 202.395127 185.509432 201.400615 
C 185.509432 200.406104 185.114308 199.452191 184.411082 198.748965 
C 183.707856 198.045739 182.753943 197.650615 181.759432 197.650615 
C 180.76492 197.650615 179.811007 198.045739 179.107781 198.748965 
C 178.404555 199.452191 178.009432 200.406104 178.009432 201.400615 
C 178.009432 202.395127 178.404555 203.34904 179.107781 204.052266 
C 179.811007 204.755492 180.76492 205.150615 181.759432 205.150615 
z
" clip-path="url(#p14c8419412)" style="fill: #1f77b4; stroke: #ffffff; stroke-width: 0.525357"/>
    <path d="M 181.759432 167.766 
C 182.753943 167.766 183.707856 167.370876 184.411082 166.66765 
C 185.114308 165.964425 185.509432 165.010512 185.509432 164.016 
C 185.509432 163.021488 185.114308 162.067575 184.411082 161.36435 
C 183.707856 160.661124 182.753943 160.266 181.759432 160.266 
C 180.76492 160.266 179.811007 160.661124 179.107781 161.36435 
C 178.404555 162.067575 178.009432 163.021488 178.009432 164.016 
C 178.009432 165.010512 178.404555 165.964425 179.107781 166.66765 
C 179.811007 167.370876 180.76492 167.766 181.759432 167.766 
z
" clip-path="url(#p14c8419412)" style="fill: #ff7f0e; stroke: #ffffff; stroke-width: 0.525357"/>
    <path d="M 181.759432 190.908857 
C 182.753943 190.908857 183.707856 190.513733 184.411082 189.810508 
C 185.114308 189.107282 185.509432 188.153369 185.509432 187.158857 
C 185.509432 186.164346 185.114308 185.210433 184.411082 184.507207 
C 183.707856 183.803981 182.753943 183.408857 181.759432 183.408857 
C 180.76492 183.408857 179.811007 183.803981 179.107781 184.507207 
C 178.404555 185.210433 178.009432 186.164346 178.009432 187.158857 
C 178.009432 188.153369 178.404555 189.107282 179.107781 189.810508 
C 179.811007 190.513733 180.76492 190.908857 181.759432 190.908857 
z
" clip-path="url(#p14c8419412)" style="fill: #d62728; stroke: #ffffff; stroke-width: 0.525357"/>
    <path d="M 222.34125 223.775129 
C 223.410318 223.775129 224.435743 223.350384 225.191689 222.594439 
C 225.947634 221.838493 226.372379 220.813068 226.372379 219.744 
C 226.372379 218.674932 225.947634 217.649507 225.191689 216.893561 
C 224.435743 216.137616 223.410318 215.712871 222.34125 215.712871 
C 221.272182 215.712871 220.246757 216.137616 219.490811 216.893561 
C 218.734866 217.649507 218.310121 218.674932 218.310121 219.744 
C 218.310121 220.813068 218.734866 221.838493 219.490811 222.594439 
C 220.246757 223.350384 221.272182 223.775129 222.34125 223.775129 
z
" clip-path="url(#p14c8419412)" style="fill: #2ca02c; stroke: #ffffff; stroke-width: 0.525357"/>
    <path d="M 222.34125 210.678708 
C 223.410318 210.678708 224.435743 210.253963 225.191689 209.498018 
C 225.947634 208.742072 226.372379 207.716647 226.372379 206.647579 
C 226.372379 205.578511 225.947634 204.553086 225.191689 203.79714 
C 224.435743 203.041195 223.410318 202.61645 222.34125 202.61645 
C 221.272182 202.61645 220.246757 203.041195 219.490811 203.79714 
C 218.734866 204.553086 218.310121 205.578511 218.310121 206.647579 
C 218.310121 207.716647 218.734866 208.742072 219.490811 209.498018 
C 220.246757 210.253963 221.272182 210.678708 222.34125 210.678708 
z
" clip-path="url(#p14c8419412)" style="fill: #1f77b4; stroke: #ffffff; stroke-width: 0.525357"/>
    <path d="M 222.34125 161.567129 
C 223.410318 161.567129 224.435743 161.142384 225.191689 160.386439 
C 225.947634 159.630493 226.372379 158.605068 226.372379 157.536 
C 226.372379 156.466932 225.947634 155.441507 225.191689 154.685561 
C 224.435743 153.929616 223.410318 153.504871 222.34125 153.504871 
C 221.272182 153.504871 220.246757 153.929616 219.490811 154.685561 
C 218.734866 155.441507 218.310121 156.466932 218.310121 157.536 
C 218.310121 158.605068 218.734866 159.630493 219.490811 160.386439 
C 220.246757 161.142384 221.272182 161.567129 222.34125 161.567129 
z
" clip-path="url(#p14c8419412)" style="fill: #ff7f0e; stroke: #ffffff; stroke-width: 0.525357"/>
    <path d="M 222.34125 193.743681 
C 223.410318 193.743681 224.435743 193.318935 225.191689 192.56299 
C 225.947634 191.807045 226.372379 190.78162 226.372379 189.712552 
C 226.372379 188.643484 225.947634 187.618058 225.191689 186.862113 
C 224.435743 186.106168 223.410318 185.681423 222.34125 185.681423 
C 221.272182 185.681423 220.246757 186.106168 219.490811 186.862113 
C 218.734866 187.618058 218.310121 188.643484 218.310121 189.712552 
C 218.310121 190.78162 218.734866 191.807045 219.490811 192.56299 
C 220.246757 193.318935 221.272182 193.743681 222.34125 193.743681 
z
" clip-path="url(#p14c8419412)" style="fill: #d62728; stroke: #ffffff; stroke-width: 0.525357"/>
    <path d="M 262.923068 202.709763 
C 264.071431 202.709763 265.172915 202.253514 265.98493 201.441499 
C 266.796946 200.629483 267.253195 199.527999 267.253195 198.379636 
C 267.253195 197.231273 266.796946 196.12979 265.98493 195.317774 
C 265.172915 194.505759 264.071431 194.049509 262.923068 194.049509 
C 261.774705 194.049509 260.673221 194.505759 259.861206 195.317774 
C 259.049191 196.12979 258.592941 197.231273 258.592941 198.379636 
C 258.592941 199.527999 259.049191 200.629483 259.861206 201.441499 
C 260.673221 202.253514 261.774705 202.709763 262.923068 202.709763 
z
" clip-path="url(#p14c8419412)" style="fill: #2ca02c; stroke: #ffffff; stroke-width: 0.525357"/>
    <path d="M 262.923068 188.746127 
C 264.071431 188.746127 265.172915 188.289878 265.98493 187.477862 
C 266.796946 186.665847 267.253195 185.564363 267.253195 184.416 
C 267.253195 183.267637 266.796946 182.166153 265.98493 181.354138 
C 265.172915 180.542122 264.071431 180.085873 262.923068 180.085873 
C 261.774705 180.085873 260.673221 180.542122 259.861206 181.354138 
C 259.049191 182.166153 258.592941 183.267637 258.592941 184.416 
C 258.592941 185.564363 259.049191 186.665847 259.861206 187.477862 
C 260.673221 188.289878 261.774705 188.746127 262.923068 188.746127 
z
" clip-path="url(#p14c8419412)" style="fill: #1f77b4; stroke: #ffffff; stroke-width: 0.525357"/>
    <path d="M 262.923068 117.431841 
C 264.071431 117.431841 265.172915 116.975592 265.98493 116.163576 
C 266.796946 115.351561 267.253195 114.250077 267.253195 113.101714 
C 267.253195 111.953351 266.796946 110.851867 265.98493 110.039852 
C 265.172915 109.227837 264.071431 108.771587 262.923068 108.771587 
C 261.774705 108.771587 260.673221 109.227837 259.861206 110.039852 
C 259.049191 110.851867 258.592941 111.953351 258.592941 113.101714 
C 258.592941 114.250077 259.049191 115.351561 259.861206 116.163576 
C 260.673221 116.975592 261.774705 117.431841 262.923068 117.431841 
z
" clip-path="url(#p14c8419412)" style="fill: #ff7f0e; stroke: #ffffff; stroke-width: 0.525357"/>
    <path d="M 262.923068 164.394908 
C 264.071431 164.394908 265.172915 163.938658 265.98493 163.126643 
C 266.796946 162.314627 267.253195 161.213144 267.253195 160.06478 
C 267.253195 158.916417 266.796946 157.814934 265.98493 157.002918 
C 265.172915 156.190903 264.071431 155.734653 262.923068 155.734653 
C 261.774705 155.734653 260.673221 156.190903 259.861206 157.002918 
C 259.049191 157.814934 258.592941 158.916417 258.592941 160.06478 
C 258.592941 161.213144 259.049191 162.314627 259.861206 163.126643 
C 260.673221 163.938658 261.774705 164.394908 262.923068 164.394908 
z
" clip-path="url(#p14c8419412)" style="fill: #d62728; stroke: #ffffff; stroke-width: 0.525357"/>
    <path d="M 303.504886 168.039416 
C 304.762855 168.039416 305.96947 167.53962 306.858988 166.650102 
C 307.748507 165.760584 308.248303 164.553969 308.248303 163.296 
C 308.248303 162.038031 307.748507 160.831416 306.858988 159.941898 
C 305.96947 159.05238 304.762855 158.552584 303.504886 158.552584 
C 302.246918 158.552584 301.040303 159.05238 300.150784 159.941898 
C 299.261266 160.831416 298.76147 162.038031 298.76147 163.296 
C 298.76147 164.553969 299.261266 165.760584 300.150784 166.650102 
C 301.040303 167.53962 302.246918 168.039416 303.504886 168.039416 
z
" clip-path="url(#p14c8419412)" style="fill: #2ca02c; stroke: #ffffff; stroke-width: 0.525357"/>
    <path d="M 303.504886 152.974801 
C 304.762855 152.974801 305.96947 152.475005 306.858988 151.585487 
C 307.748507 150.695968 308.248303 149.489353 308.248303 148.231385 
C 308.248303 146.973416 307.748507 145.766801 306.858988 144.877283 
C 305.96947 143.987764 304.762855 143.487968 303.504886 143.487968 
C 302.246918 143.487968 301.040303 143.987764 300.150784 144.877283 
C 299.261266 145.766801 298.76147 146.973416 298.76147 148.231385 
C 298.76147 149.489353 299.261266 150.695968 300.150784 151.585487 
C 301.040303 152.475005 302.246918 152.974801 303.504886 152.974801 
z
" clip-path="url(#p14c8419412)" style="fill: #1f77b4; stroke: #ffffff; stroke-width: 0.525357"/>
    <path d="M 303.504886 74.376808 
C 304.762855 74.376808 305.96947 73.877012 306.858988 72.987493 
C 307.748507 72.097975 308.248303 70.89136 308.248303 69.633391 
C 308.248303 68.375423 307.748507 67.168808 306.858988 66.279289 
C 305.96947 65.389771 304.762855 64.889975 303.504886 64.889975 
C 302.246918 64.889975 301.040303 65.389771 300.150784 66.279289 
C 299.261266 67.168808 298.76147 68.375423 298.76147 69.633391 
C 298.76147 70.89136 299.261266 72.097975 300.150784 72.987493 
C 301.040303 73.877012 302.246918 74.376808 303.504886 74.376808 
z
" clip-path="url(#p14c8419412)" style="fill: #ff7f0e; stroke: #ffffff; stroke-width: 0.525357"/>
    <path d="M 303.504886 123.817481 
C 304.762855 123.817481 305.96947 123.317685 306.858988 122.428166 
C 307.748507 121.538648 308.248303 120.332033 308.248303 119.074065 
C 308.248303 117.816096 307.748507 116.609481 306.858988 115.719963 
C 305.96947 114.830444 304.762855 114.330648 303.504886 114.330648 
C 302.246918 114.330648 301.040303 114.830444 300.150784 115.719963 
C 299.261266 116.609481 298.76147 117.816096 298.76147 119.074065 
C 298.76147 120.332033 299.261266 121.538648 300.150784 122.428166 
C 301.040303 123.317685 302.246918 123.817481 303.504886 123.817481 
z
" clip-path="url(#p14c8419412)" style="fill: #d62728; stroke: #ffffff; stroke-width: 0.525357"/>
   </g>
   <g id="PathCollection_2"/>
   <g id="PathCollection_3"/>
   <g id="PathCollection_4"/>
   <g id="PathCollection_5"/>
   <g id="PathCollection_6"/>
   <g id="PathCollection_7"/>
   <g id="PathCollection_8"/>
   <g id="PathCollection_9"/>
   <g id="PathCollection_10"/>
   <g id="PathCollection_11"/>
   <g id="matplotlib.axis_1">
    <g id="xtick_1">
     <g id="line2d_1">
      <defs>
       <path id="mf96c2c9dcd" d="M 0 0 
L 0 3.5 
" style="stroke: #000000; stroke-width: 0.8"/>
      </defs>
      <g>
       <use xlink:href="#mf96c2c9dcd" x="60.013977" y="273.312" style="stroke: #000000; stroke-width: 0.8"/>
      </g>
     </g>
     <g id="text_1">
      <!-- 20 -->
      <g transform="translate(53.651477 287.910437)scale(0.1 -0.1)">
       <defs>
        <path id="DejaVuSans-32" d="M 1228 531 
L 3431 531 
L 3431 0 
L 469 0 
L 469 531 
Q 828 903 1448 1529 
Q 2069 2156 2228 2338 
Q 2531 2678 2651 2914 
Q 2772 3150 2772 3378 
Q 2772 3750 2511 3984 
Q 2250 4219 1831 4219 
Q 1534 4219 1204 4116 
Q 875 4013 500 3803 
L 500 4441 
Q 881 4594 1212 4672 
Q 1544 4750 1819 4750 
Q 2544 4750 2975 4387 
Q 3406 4025 3406 3419 
Q 3406 3131 3298 2873 
Q 3191 2616 2906 2266 
Q 2828 2175 2409 1742 
Q 1991 1309 1228 531 
z
" transform="scale(0.015625)"/>
        <path id="DejaVuSans-30" d="M 2034 4250 
Q 1547 4250 1301 3770 
Q 1056 3291 1056 2328 
Q 1056 1369 1301 889 
Q 1547 409 2034 409 
Q 2525 409 2770 889 
Q 3016 1369 3016 2328 
Q 3016 3291 2770 3770 
Q 2525 4250 2034 4250 
z
M 2034 4750 
Q 2819 4750 3233 4129 
Q 3647 3509 3647 2328 
Q 3647 1150 3233 529 
Q 2819 -91 2034 -91 
Q 1250 -91 836 529 
Q 422 1150 422 2328 
Q 422 3509 836 4129 
Q 1250 4750 2034 4750 
z
" transform="scale(0.015625)"/>
       </defs>
       <use xlink:href="#DejaVuSans-32"/>
       <use xlink:href="#DejaVuSans-30" x="63.623047"/>
      </g>
     </g>
    </g>
    <g id="xtick_2">
     <g id="line2d_2">
      <g>
       <use xlink:href="#mf96c2c9dcd" x="100.595795" y="273.312" style="stroke: #000000; stroke-width: 0.8"/>
      </g>
     </g>
     <g id="text_2">
      <!-- 30 -->
      <g transform="translate(94.233295 287.910437)scale(0.1 -0.1)">
       <defs>
        <path id="DejaVuSans-33" d="M 2597 2516 
Q 3050 2419 3304 2112 
Q 3559 1806 3559 1356 
Q 3559 666 3084 287 
Q 2609 -91 1734 -91 
Q 1441 -91 1130 -33 
Q 819 25 488 141 
L 488 750 
Q 750 597 1062 519 
Q 1375 441 1716 441 
Q 2309 441 2620 675 
Q 2931 909 2931 1356 
Q 2931 1769 2642 2001 
Q 2353 2234 1838 2234 
L 1294 2234 
L 1294 2753 
L 1863 2753 
Q 2328 2753 2575 2939 
Q 2822 3125 2822 3475 
Q 2822 3834 2567 4026 
Q 2313 4219 1838 4219 
Q 1578 4219 1281 4162 
Q 984 4106 628 3988 
L 628 4550 
Q 988 4650 1302 4700 
Q 1616 4750 1894 4750 
Q 2613 4750 3031 4423 
Q 3450 4097 3450 3541 
Q 3450 3153 3228 2886 
Q 3006 2619 2597 2516 
z
" transform="scale(0.015625)"/>
       </defs>
       <use xlink:href="#DejaVuSans-33"/>
       <use xlink:href="#DejaVuSans-30" x="63.623047"/>
      </g>
     </g>
    </g>
    <g id="xtick_3">
     <g id="line2d_3">
      <g>
       <use xlink:href="#mf96c2c9dcd" x="141.177614" y="273.312" style="stroke: #000000; stroke-width: 0.8"/>
      </g>
     </g>
     <g id="text_3">
      <!-- 40 -->
      <g transform="translate(134.815114 287.910437)scale(0.1 -0.1)">
       <defs>
        <path id="DejaVuSans-34" d="M 2419 4116 
L 825 1625 
L 2419 1625 
L 2419 4116 
z
M 2253 4666 
L 3047 4666 
L 3047 1625 
L 3713 1625 
L 3713 1100 
L 3047 1100 
L 3047 0 
L 2419 0 
L 2419 1100 
L 313 1100 
L 313 1709 
L 2253 4666 
z
" transform="scale(0.015625)"/>
       </defs>
       <use xlink:href="#DejaVuSans-34"/>
       <use xlink:href="#DejaVuSans-30" x="63.623047"/>
      </g>
     </g>
    </g>
    <g id="xtick_4">
     <g id="line2d_4">
      <g>
       <use xlink:href="#mf96c2c9dcd" x="181.759432" y="273.312" style="stroke: #000000; stroke-width: 0.8"/>
      </g>
     </g>
     <g id="text_4">
      <!-- 50 -->
      <g transform="translate(175.396932 287.910437)scale(0.1 -0.1)">
       <defs>
        <path id="DejaVuSans-35" d="M 691 4666 
L 3169 4666 
L 3169 4134 
L 1269 4134 
L 1269 2991 
Q 1406 3038 1543 3061 
Q 1681 3084 1819 3084 
Q 2600 3084 3056 2656 
Q 3513 2228 3513 1497 
Q 3513 744 3044 326 
Q 2575 -91 1722 -91 
Q 1428 -91 1123 -41 
Q 819 9 494 109 
L 494 744 
Q 775 591 1075 516 
Q 1375 441 1709 441 
Q 2250 441 2565 725 
Q 2881 1009 2881 1497 
Q 2881 1984 2565 2268 
Q 2250 2553 1709 2553 
Q 1456 2553 1204 2497 
Q 953 2441 691 2322 
L 691 4666 
z
" transform="scale(0.015625)"/>
       </defs>
       <use xlink:href="#DejaVuSans-35"/>
       <use xlink:href="#DejaVuSans-30" x="63.623047"/>
      </g>
     </g>
    </g>
    <g id="xtick_5">
     <g id="line2d_5">
      <g>
       <use xlink:href="#mf96c2c9dcd" x="222.34125" y="273.312" style="stroke: #000000; stroke-width: 0.8"/>
      </g>
     </g>
     <g id="text_5">
      <!-- 70 -->
      <g transform="translate(215.97875 287.910437)scale(0.1 -0.1)">
       <defs>
        <path id="DejaVuSans-37" d="M 525 4666 
L 3525 4666 
L 3525 4397 
L 1831 0 
L 1172 0 
L 2766 4134 
L 525 4134 
L 525 4666 
z
" transform="scale(0.015625)"/>
       </defs>
       <use xlink:href="#DejaVuSans-37"/>
       <use xlink:href="#DejaVuSans-30" x="63.623047"/>
      </g>
     </g>
    </g>
    <g id="xtick_6">
     <g id="line2d_6">
      <g>
       <use xlink:href="#mf96c2c9dcd" x="262.923068" y="273.312" style="stroke: #000000; stroke-width: 0.8"/>
      </g>
     </g>
     <g id="text_6">
      <!-- 100 -->
      <g transform="translate(253.379318 287.910437)scale(0.1 -0.1)">
       <defs>
        <path id="DejaVuSans-31" d="M 794 531 
L 1825 531 
L 1825 4091 
L 703 3866 
L 703 4441 
L 1819 4666 
L 2450 4666 
L 2450 531 
L 3481 531 
L 3481 0 
L 794 0 
L 794 531 
z
" transform="scale(0.015625)"/>
       </defs>
       <use xlink:href="#DejaVuSans-31"/>
       <use xlink:href="#DejaVuSans-30" x="63.623047"/>
       <use xlink:href="#DejaVuSans-30" x="127.246094"/>
      </g>
     </g>
    </g>
    <g id="xtick_7">
     <g id="line2d_7">
      <g>
       <use xlink:href="#mf96c2c9dcd" x="303.504886" y="273.312" style="stroke: #000000; stroke-width: 0.8"/>
      </g>
     </g>
     <g id="text_7">
      <!-- 150 -->
      <g transform="translate(293.961136 287.910437)scale(0.1 -0.1)">
       <use xlink:href="#DejaVuSans-31"/>
       <use xlink:href="#DejaVuSans-35" x="63.623047"/>
       <use xlink:href="#DejaVuSans-30" x="127.246094"/>
      </g>
     </g>
    </g>
    <g id="xtick_8">
     <g id="line2d_8">
      <g>
       <use xlink:href="#mf96c2c9dcd" x="344.086705" y="273.312" style="stroke: #000000; stroke-width: 0.8"/>
      </g>
     </g>
     <g id="text_8">
      <!-- 200 -->
      <g transform="translate(334.542955 287.910437)scale(0.1 -0.1)">
       <use xlink:href="#DejaVuSans-32"/>
       <use xlink:href="#DejaVuSans-30" x="63.623047"/>
       <use xlink:href="#DejaVuSans-30" x="127.246094"/>
      </g>
     </g>
    </g>
    <g id="xtick_9">
     <g id="line2d_9">
      <g>
       <use xlink:href="#mf96c2c9dcd" x="384.668523" y="273.312" style="stroke: #000000; stroke-width: 0.8"/>
      </g>
     </g>
     <g id="text_9">
      <!-- 200&lt; -->
      <g transform="translate(370.934929 287.910437)scale(0.1 -0.1)">
       <defs>
        <path id="DejaVuSans-3c" d="M 4684 3150 
L 1459 2003 
L 4684 863 
L 4684 294 
L 678 1747 
L 678 2266 
L 4684 3719 
L 4684 3150 
z
" transform="scale(0.015625)"/>
       </defs>
       <use xlink:href="#DejaVuSans-32"/>
       <use xlink:href="#DejaVuSans-30" x="63.623047"/>
       <use xlink:href="#DejaVuSans-30" x="127.246094"/>
       <use xlink:href="#DejaVuSans-3c" x="190.869141"/>
      </g>
     </g>
    </g>
    <g id="text_10">
     <!-- nrows -->
     <g transform="translate(207.476406 301.588562)scale(0.1 -0.1)">
      <defs>
       <path id="DejaVuSans-6e" d="M 3513 2113 
L 3513 0 
L 2938 0 
L 2938 2094 
Q 2938 2591 2744 2837 
Q 2550 3084 2163 3084 
Q 1697 3084 1428 2787 
Q 1159 2491 1159 1978 
L 1159 0 
L 581 0 
L 581 3500 
L 1159 3500 
L 1159 2956 
Q 1366 3272 1645 3428 
Q 1925 3584 2291 3584 
Q 2894 3584 3203 3211 
Q 3513 2838 3513 2113 
z
" transform="scale(0.015625)"/>
       <path id="DejaVuSans-72" d="M 2631 2963 
Q 2534 3019 2420 3045 
Q 2306 3072 2169 3072 
Q 1681 3072 1420 2755 
Q 1159 2438 1159 1844 
L 1159 0 
L 581 0 
L 581 3500 
L 1159 3500 
L 1159 2956 
Q 1341 3275 1631 3429 
Q 1922 3584 2338 3584 
Q 2397 3584 2469 3576 
Q 2541 3569 2628 3553 
L 2631 2963 
z
" transform="scale(0.015625)"/>
       <path id="DejaVuSans-6f" d="M 1959 3097 
Q 1497 3097 1228 2736 
Q 959 2375 959 1747 
Q 959 1119 1226 758 
Q 1494 397 1959 397 
Q 2419 397 2687 759 
Q 2956 1122 2956 1747 
Q 2956 2369 2687 2733 
Q 2419 3097 1959 3097 
z
M 1959 3584 
Q 2709 3584 3137 3096 
Q 3566 2609 3566 1747 
Q 3566 888 3137 398 
Q 2709 -91 1959 -91 
Q 1206 -91 779 398 
Q 353 888 353 1747 
Q 353 2609 779 3096 
Q 1206 3584 1959 3584 
z
" transform="scale(0.015625)"/>
       <path id="DejaVuSans-77" d="M 269 3500 
L 844 3500 
L 1563 769 
L 2278 3500 
L 2956 3500 
L 3675 769 
L 4391 3500 
L 4966 3500 
L 4050 0 
L 3372 0 
L 2619 2869 
L 1863 0 
L 1184 0 
L 269 3500 
z
" transform="scale(0.015625)"/>
       <path id="DejaVuSans-73" d="M 2834 3397 
L 2834 2853 
Q 2591 2978 2328 3040 
Q 2066 3103 1784 3103 
Q 1356 3103 1142 2972 
Q 928 2841 928 2578 
Q 928 2378 1081 2264 
Q 1234 2150 1697 2047 
L 1894 2003 
Q 2506 1872 2764 1633 
Q 3022 1394 3022 966 
Q 3022 478 2636 193 
Q 2250 -91 1575 -91 
Q 1294 -91 989 -36 
Q 684 19 347 128 
L 347 722 
Q 666 556 975 473 
Q 1284 391 1588 391 
Q 1994 391 2212 530 
Q 2431 669 2431 922 
Q 2431 1156 2273 1281 
Q 2116 1406 1581 1522 
L 1381 1569 
Q 847 1681 609 1914 
Q 372 2147 372 2553 
Q 372 3047 722 3315 
Q 1072 3584 1716 3584 
Q 2034 3584 2315 3537 
Q 2597 3491 2834 3397 
z
" transform="scale(0.015625)"/>
      </defs>
      <use xlink:href="#DejaVuSans-6e"/>
      <use xlink:href="#DejaVuSans-72" x="63.378906"/>
      <use xlink:href="#DejaVuSans-6f" x="102.242188"/>
      <use xlink:href="#DejaVuSans-77" x="163.423828"/>
      <use xlink:href="#DejaVuSans-73" x="245.210938"/>
     </g>
    </g>
   </g>
   <g id="matplotlib.axis_2">
    <g id="ytick_1">
     <g id="line2d_10">
      <defs>
       <path id="mb2755a77a8" d="M 0 0 
L -3.5 0 
" style="stroke: #000000; stroke-width: 0.8"/>
      </defs>
      <g>
       <use xlink:href="#mb2755a77a8" x="43.78125" y="261.216" style="stroke: #000000; stroke-width: 0.8"/>
      </g>
     </g>
     <g id="text_11">
      <!-- 0.0 -->
      <g transform="translate(20.878125 265.015219)scale(0.1 -0.1)">
       <defs>
        <path id="DejaVuSans-2e" d="M 684 794 
L 1344 794 
L 1344 0 
L 684 0 
L 684 794 
z
" transform="scale(0.015625)"/>
       </defs>
       <use xlink:href="#DejaVuSans-30"/>
       <use xlink:href="#DejaVuSans-2e" x="63.623047"/>
       <use xlink:href="#DejaVuSans-30" x="95.410156"/>
      </g>
     </g>
    </g>
    <g id="ytick_2">
     <g id="line2d_11">
      <g>
       <use xlink:href="#mb2755a77a8" x="43.78125" y="209.376" style="stroke: #000000; stroke-width: 0.8"/>
      </g>
     </g>
     <g id="text_12">
      <!-- 0.2 -->
      <g transform="translate(20.878125 213.175219)scale(0.1 -0.1)">
       <use xlink:href="#DejaVuSans-30"/>
       <use xlink:href="#DejaVuSans-2e" x="63.623047"/>
       <use xlink:href="#DejaVuSans-32" x="95.410156"/>
      </g>
     </g>
    </g>
    <g id="ytick_3">
     <g id="line2d_12">
      <g>
       <use xlink:href="#mb2755a77a8" x="43.78125" y="157.536" style="stroke: #000000; stroke-width: 0.8"/>
      </g>
     </g>
     <g id="text_13">
      <!-- 0.4 -->
      <g transform="translate(20.878125 161.335219)scale(0.1 -0.1)">
       <use xlink:href="#DejaVuSans-30"/>
       <use xlink:href="#DejaVuSans-2e" x="63.623047"/>
       <use xlink:href="#DejaVuSans-34" x="95.410156"/>
      </g>
     </g>
    </g>
    <g id="ytick_4">
     <g id="line2d_13">
      <g>
       <use xlink:href="#mb2755a77a8" x="43.78125" y="105.696" style="stroke: #000000; stroke-width: 0.8"/>
      </g>
     </g>
     <g id="text_14">
      <!-- 0.6 -->
      <g transform="translate(20.878125 109.495219)scale(0.1 -0.1)">
       <defs>
        <path id="DejaVuSans-36" d="M 2113 2584 
Q 1688 2584 1439 2293 
Q 1191 2003 1191 1497 
Q 1191 994 1439 701 
Q 1688 409 2113 409 
Q 2538 409 2786 701 
Q 3034 994 3034 1497 
Q 3034 2003 2786 2293 
Q 2538 2584 2113 2584 
z
M 3366 4563 
L 3366 3988 
Q 3128 4100 2886 4159 
Q 2644 4219 2406 4219 
Q 1781 4219 1451 3797 
Q 1122 3375 1075 2522 
Q 1259 2794 1537 2939 
Q 1816 3084 2150 3084 
Q 2853 3084 3261 2657 
Q 3669 2231 3669 1497 
Q 3669 778 3244 343 
Q 2819 -91 2113 -91 
Q 1303 -91 875 529 
Q 447 1150 447 2328 
Q 447 3434 972 4092 
Q 1497 4750 2381 4750 
Q 2619 4750 2861 4703 
Q 3103 4656 3366 4563 
z
" transform="scale(0.015625)"/>
       </defs>
       <use xlink:href="#DejaVuSans-30"/>
       <use xlink:href="#DejaVuSans-2e" x="63.623047"/>
       <use xlink:href="#DejaVuSans-36" x="95.410156"/>
      </g>
     </g>
    </g>
    <g id="ytick_5">
     <g id="line2d_14">
      <g>
       <use xlink:href="#mb2755a77a8" x="43.78125" y="53.856" style="stroke: #000000; stroke-width: 0.8"/>
      </g>
     </g>
     <g id="text_15">
      <!-- 0.8 -->
      <g transform="translate(20.878125 57.655219)scale(0.1 -0.1)">
       <defs>
        <path id="DejaVuSans-38" d="M 2034 2216 
Q 1584 2216 1326 1975 
Q 1069 1734 1069 1313 
Q 1069 891 1326 650 
Q 1584 409 2034 409 
Q 2484 409 2743 651 
Q 3003 894 3003 1313 
Q 3003 1734 2745 1975 
Q 2488 2216 2034 2216 
z
M 1403 2484 
Q 997 2584 770 2862 
Q 544 3141 544 3541 
Q 544 4100 942 4425 
Q 1341 4750 2034 4750 
Q 2731 4750 3128 4425 
Q 3525 4100 3525 3541 
Q 3525 3141 3298 2862 
Q 3072 2584 2669 2484 
Q 3125 2378 3379 2068 
Q 3634 1759 3634 1313 
Q 3634 634 3220 271 
Q 2806 -91 2034 -91 
Q 1263 -91 848 271 
Q 434 634 434 1313 
Q 434 1759 690 2068 
Q 947 2378 1403 2484 
z
M 1172 3481 
Q 1172 3119 1398 2916 
Q 1625 2713 2034 2713 
Q 2441 2713 2670 2916 
Q 2900 3119 2900 3481 
Q 2900 3844 2670 4047 
Q 2441 4250 2034 4250 
Q 1625 4250 1398 4047 
Q 1172 3844 1172 3481 
z
" transform="scale(0.015625)"/>
       </defs>
       <use xlink:href="#DejaVuSans-30"/>
       <use xlink:href="#DejaVuSans-2e" x="63.623047"/>
       <use xlink:href="#DejaVuSans-38" x="95.410156"/>
      </g>
     </g>
    </g>
    <g id="text_16">
     <!-- score -->
     <g transform="translate(14.798438 153.688812)rotate(-90)scale(0.1 -0.1)">
      <defs>
       <path id="DejaVuSans-63" d="M 3122 3366 
L 3122 2828 
Q 2878 2963 2633 3030 
Q 2388 3097 2138 3097 
Q 1578 3097 1268 2742 
Q 959 2388 959 1747 
Q 959 1106 1268 751 
Q 1578 397 2138 397 
Q 2388 397 2633 464 
Q 2878 531 3122 666 
L 3122 134 
Q 2881 22 2623 -34 
Q 2366 -91 2075 -91 
Q 1284 -91 818 406 
Q 353 903 353 1747 
Q 353 2603 823 3093 
Q 1294 3584 2113 3584 
Q 2378 3584 2631 3529 
Q 2884 3475 3122 3366 
z
" transform="scale(0.015625)"/>
       <path id="DejaVuSans-65" d="M 3597 1894 
L 3597 1613 
L 953 1613 
Q 991 1019 1311 708 
Q 1631 397 2203 397 
Q 2534 397 2845 478 
Q 3156 559 3463 722 
L 3463 178 
Q 3153 47 2828 -22 
Q 2503 -91 2169 -91 
Q 1331 -91 842 396 
Q 353 884 353 1716 
Q 353 2575 817 3079 
Q 1281 3584 2069 3584 
Q 2775 3584 3186 3129 
Q 3597 2675 3597 1894 
z
M 3022 2063 
Q 3016 2534 2758 2815 
Q 2500 3097 2075 3097 
Q 1594 3097 1305 2825 
Q 1016 2553 972 2059 
L 3022 2063 
z
" transform="scale(0.015625)"/>
      </defs>
      <use xlink:href="#DejaVuSans-73"/>
      <use xlink:href="#DejaVuSans-63" x="52.099609"/>
      <use xlink:href="#DejaVuSans-6f" x="107.080078"/>
      <use xlink:href="#DejaVuSans-72" x="168.261719"/>
      <use xlink:href="#DejaVuSans-65" x="207.125"/>
     </g>
    </g>
   </g>
   <g id="line2d_15">
    <path d="M 60.013977 261.216 
L 100.595795 174.816 
L 141.177614 203.616 
L 181.759432 201.400615 
L 222.34125 206.647579 
L 262.923068 184.416 
L 303.504886 148.231385 
L 344.086705 150.918128 
L 384.668523 136.084966 
" clip-path="url(#p14c8419412)" style="fill: none; stroke-dasharray: 3.7,1.6; stroke-dashoffset: 0; stroke: #1f77b4"/>
   </g>
   <g id="line2d_16">
    <path d="M 60.013977 261.216 
L 100.595795 174.816 
L 141.177614 174.816 
L 181.759432 164.016 
L 222.34125 157.536 
L 262.923068 113.101714 
L 303.504886 69.633391 
L 344.086705 61.831385 
L 384.668523 19.296 
" clip-path="url(#p14c8419412)" style="fill: none; stroke-dasharray: 1,1.65; stroke-dashoffset: 0; stroke: #ff7f0e"/>
   </g>
   <g id="line2d_17">
    <path d="M 60.013977 261.216 
L 100.595795 209.376 
L 141.177614 221.339077 
L 181.759432 218.016 
L 222.34125 219.744 
L 262.923068 198.379636 
L 303.504886 163.296 
L 344.086705 163.404679 
L 384.668523 140.256 
" clip-path="url(#p14c8419412)" style="fill: none; stroke-dasharray: 6.4,1.6,1,1.6; stroke-dashoffset: 0; stroke: #2ca02c"/>
   </g>
   <g id="line2d_18">
    <path d="M 60.013977 261.216 
L 100.595795 174.816 
L 141.177614 192.096 
L 181.759432 187.158857 
L 222.34125 189.712552 
L 262.923068 160.06478 
L 303.504886 119.074065 
L 344.086705 119.188603 
L 384.668523 96.270545 
" clip-path="url(#p14c8419412)" style="fill: none; stroke: #d62728; stroke-linecap: square"/>
   </g>
   <g id="patch_3">
    <path d="M 43.78125 273.312 
L 43.78125 7.2 
" style="fill: none; stroke: #000000; stroke-width: 0.8; stroke-linejoin: miter; stroke-linecap: square"/>
   </g>
   <g id="patch_4">
    <path d="M 400.90125 273.312 
L 400.90125 7.2 
" style="fill: none; stroke: #000000; stroke-width: 0.8; stroke-linejoin: miter; stroke-linecap: square"/>
   </g>
   <g id="patch_5">
    <path d="M 43.78125 273.312 
L 400.90125 273.312 
" style="fill: none; stroke: #000000; stroke-width: 0.8; stroke-linejoin: miter; stroke-linecap: square"/>
   </g>
   <g id="patch_6">
    <path d="M 43.78125 7.2 
L 400.90125 7.2 
" style="fill: none; stroke: #000000; stroke-width: 0.8; stroke-linejoin: miter; stroke-linecap: square"/>
   </g>
   <g id="legend_1">
    <g id="patch_7">
     <path d="M 48.63925 134.991425 
L 102.159662 134.991425 
Q 103.547663 134.991425 103.547663 133.603425 
L 103.547663 12.058 
Q 103.547663 10.67 102.159662 10.67 
L 48.63925 10.67 
Q 47.25125 10.67 47.25125 12.058 
L 47.25125 133.603425 
Q 47.25125 134.991425 48.63925 134.991425 
z
" style="fill: #ffffff; opacity: 0.8; stroke: #cccccc; stroke-linejoin: miter"/>
    </g>
    <g id="text_17">
     <!-- metric -->
     <g transform="translate(69.45925 18.719316)scale(0.0694 -0.0694)">
      <defs>
       <path id="DejaVuSans-6d" d="M 3328 2828 
Q 3544 3216 3844 3400 
Q 4144 3584 4550 3584 
Q 5097 3584 5394 3201 
Q 5691 2819 5691 2113 
L 5691 0 
L 5113 0 
L 5113 2094 
Q 5113 2597 4934 2840 
Q 4756 3084 4391 3084 
Q 3944 3084 3684 2787 
Q 3425 2491 3425 1978 
L 3425 0 
L 2847 0 
L 2847 2094 
Q 2847 2600 2669 2842 
Q 2491 3084 2119 3084 
Q 1678 3084 1418 2786 
Q 1159 2488 1159 1978 
L 1159 0 
L 581 0 
L 581 3500 
L 1159 3500 
L 1159 2956 
Q 1356 3278 1631 3431 
Q 1906 3584 2284 3584 
Q 2666 3584 2933 3390 
Q 3200 3197 3328 2828 
z
" transform="scale(0.015625)"/>
       <path id="DejaVuSans-74" d="M 1172 4494 
L 1172 3500 
L 2356 3500 
L 2356 3053 
L 1172 3053 
L 1172 1153 
Q 1172 725 1289 603 
Q 1406 481 1766 481 
L 2356 481 
L 2356 0 
L 1766 0 
Q 1100 0 847 248 
Q 594 497 594 1153 
L 594 3053 
L 172 3053 
L 172 3500 
L 594 3500 
L 594 4494 
L 1172 4494 
z
" transform="scale(0.015625)"/>
       <path id="DejaVuSans-69" d="M 603 3500 
L 1178 3500 
L 1178 0 
L 603 0 
L 603 3500 
z
M 603 4863 
L 1178 4863 
L 1178 4134 
L 603 4134 
L 603 4863 
z
" transform="scale(0.015625)"/>
      </defs>
      <use xlink:href="#DejaVuSans-6d"/>
      <use xlink:href="#DejaVuSans-65" x="97.412109"/>
      <use xlink:href="#DejaVuSans-74" x="158.935547"/>
      <use xlink:href="#DejaVuSans-72" x="198.144531"/>
      <use xlink:href="#DejaVuSans-69" x="239.257812"/>
      <use xlink:href="#DejaVuSans-63" x="267.041016"/>
     </g>
    </g>
    <g id="PathCollection_12">
     <defs>
      <path id="mefc60591a3" d="M 0 3 
C 0.795609 3 1.55874 2.683901 2.12132 2.12132 
C 2.683901 1.55874 3 0.795609 3 0 
C 3 -0.795609 2.683901 -1.55874 2.12132 -2.12132 
C 1.55874 -2.683901 0.795609 -3 0 -3 
C -0.795609 -3 -1.55874 -2.683901 -2.12132 -2.12132 
C -2.683901 -1.55874 -3 -0.795609 -3 0 
C -3 0.795609 -2.683901 1.55874 -2.12132 2.12132 
C -1.55874 2.683901 -0.795609 3 0 3 
z
" style="stroke: #1f77b4"/>
     </defs>
     <g>
      <use xlink:href="#mefc60591a3" x="56.96725" y="27.084184" style="fill: #1f77b4; stroke: #1f77b4"/>
     </g>
    </g>
    <g id="text_18">
     <!-- precision -->
     <g transform="translate(69.45925 28.905934)scale(0.0694 -0.0694)">
      <defs>
       <path id="DejaVuSans-70" d="M 1159 525 
L 1159 -1331 
L 581 -1331 
L 581 3500 
L 1159 3500 
L 1159 2969 
Q 1341 3281 1617 3432 
Q 1894 3584 2278 3584 
Q 2916 3584 3314 3078 
Q 3713 2572 3713 1747 
Q 3713 922 3314 415 
Q 2916 -91 2278 -91 
Q 1894 -91 1617 61 
Q 1341 213 1159 525 
z
M 3116 1747 
Q 3116 2381 2855 2742 
Q 2594 3103 2138 3103 
Q 1681 3103 1420 2742 
Q 1159 2381 1159 1747 
Q 1159 1113 1420 752 
Q 1681 391 2138 391 
Q 2594 391 2855 752 
Q 3116 1113 3116 1747 
z
" transform="scale(0.015625)"/>
      </defs>
      <use xlink:href="#DejaVuSans-70"/>
      <use xlink:href="#DejaVuSans-72" x="63.476562"/>
      <use xlink:href="#DejaVuSans-65" x="102.339844"/>
      <use xlink:href="#DejaVuSans-63" x="163.863281"/>
      <use xlink:href="#DejaVuSans-69" x="218.84375"/>
      <use xlink:href="#DejaVuSans-73" x="246.626953"/>
      <use xlink:href="#DejaVuSans-69" x="298.726562"/>
      <use xlink:href="#DejaVuSans-6f" x="326.509766"/>
      <use xlink:href="#DejaVuSans-6e" x="387.691406"/>
     </g>
    </g>
    <g id="PathCollection_13">
     <defs>
      <path id="madd42814b6" d="M 0 3 
C 0.795609 3 1.55874 2.683901 2.12132 2.12132 
C 2.683901 1.55874 3 0.795609 3 0 
C 3 -0.795609 2.683901 -1.55874 2.12132 -2.12132 
C 1.55874 -2.683901 0.795609 -3 0 -3 
C -0.795609 -3 -1.55874 -2.683901 -2.12132 -2.12132 
C -2.683901 -1.55874 -3 -0.795609 -3 0 
C -3 0.795609 -2.683901 1.55874 -2.12132 2.12132 
C -1.55874 2.683901 -0.795609 3 0 3 
z
" style="stroke: #ff7f0e"/>
     </defs>
     <g>
      <use xlink:href="#madd42814b6" x="56.96725" y="37.270803" style="fill: #ff7f0e; stroke: #ff7f0e"/>
     </g>
    </g>
    <g id="text_19">
     <!-- recall -->
     <g transform="translate(69.45925 39.092553)scale(0.0694 -0.0694)">
      <defs>
       <path id="DejaVuSans-61" d="M 2194 1759 
Q 1497 1759 1228 1600 
Q 959 1441 959 1056 
Q 959 750 1161 570 
Q 1363 391 1709 391 
Q 2188 391 2477 730 
Q 2766 1069 2766 1631 
L 2766 1759 
L 2194 1759 
z
M 3341 1997 
L 3341 0 
L 2766 0 
L 2766 531 
Q 2569 213 2275 61 
Q 1981 -91 1556 -91 
Q 1019 -91 701 211 
Q 384 513 384 1019 
Q 384 1609 779 1909 
Q 1175 2209 1959 2209 
L 2766 2209 
L 2766 2266 
Q 2766 2663 2505 2880 
Q 2244 3097 1772 3097 
Q 1472 3097 1187 3025 
Q 903 2953 641 2809 
L 641 3341 
Q 956 3463 1253 3523 
Q 1550 3584 1831 3584 
Q 2591 3584 2966 3190 
Q 3341 2797 3341 1997 
z
" transform="scale(0.015625)"/>
       <path id="DejaVuSans-6c" d="M 603 4863 
L 1178 4863 
L 1178 0 
L 603 0 
L 603 4863 
z
" transform="scale(0.015625)"/>
      </defs>
      <use xlink:href="#DejaVuSans-72"/>
      <use xlink:href="#DejaVuSans-65" x="38.863281"/>
      <use xlink:href="#DejaVuSans-63" x="100.386719"/>
      <use xlink:href="#DejaVuSans-61" x="155.367188"/>
      <use xlink:href="#DejaVuSans-6c" x="216.646484"/>
      <use xlink:href="#DejaVuSans-6c" x="244.429688"/>
     </g>
    </g>
    <g id="PathCollection_14">
     <defs>
      <path id="mc54cecedc6" d="M 0 3 
C 0.795609 3 1.55874 2.683901 2.12132 2.12132 
C 2.683901 1.55874 3 0.795609 3 0 
C 3 -0.795609 2.683901 -1.55874 2.12132 -2.12132 
C 1.55874 -2.683901 0.795609 -3 0 -3 
C -0.795609 -3 -1.55874 -2.683901 -2.12132 -2.12132 
C -2.683901 -1.55874 -3 -0.795609 -3 0 
C -3 0.795609 -2.683901 1.55874 -2.12132 2.12132 
C -1.55874 2.683901 -0.795609 3 0 3 
z
" style="stroke: #2ca02c"/>
     </defs>
     <g>
      <use xlink:href="#mc54cecedc6" x="56.96725" y="47.457422" style="fill: #2ca02c; stroke: #2ca02c"/>
     </g>
    </g>
    <g id="text_20">
     <!-- accuracy -->
     <g transform="translate(69.45925 49.279172)scale(0.0694 -0.0694)">
      <defs>
       <path id="DejaVuSans-75" d="M 544 1381 
L 544 3500 
L 1119 3500 
L 1119 1403 
Q 1119 906 1312 657 
Q 1506 409 1894 409 
Q 2359 409 2629 706 
Q 2900 1003 2900 1516 
L 2900 3500 
L 3475 3500 
L 3475 0 
L 2900 0 
L 2900 538 
Q 2691 219 2414 64 
Q 2138 -91 1772 -91 
Q 1169 -91 856 284 
Q 544 659 544 1381 
z
M 1991 3584 
L 1991 3584 
z
" transform="scale(0.015625)"/>
       <path id="DejaVuSans-79" d="M 2059 -325 
Q 1816 -950 1584 -1140 
Q 1353 -1331 966 -1331 
L 506 -1331 
L 506 -850 
L 844 -850 
Q 1081 -850 1212 -737 
Q 1344 -625 1503 -206 
L 1606 56 
L 191 3500 
L 800 3500 
L 1894 763 
L 2988 3500 
L 3597 3500 
L 2059 -325 
z
" transform="scale(0.015625)"/>
      </defs>
      <use xlink:href="#DejaVuSans-61"/>
      <use xlink:href="#DejaVuSans-63" x="61.279297"/>
      <use xlink:href="#DejaVuSans-63" x="116.259766"/>
      <use xlink:href="#DejaVuSans-75" x="171.240234"/>
      <use xlink:href="#DejaVuSans-72" x="234.619141"/>
      <use xlink:href="#DejaVuSans-61" x="275.732422"/>
      <use xlink:href="#DejaVuSans-63" x="337.011719"/>
      <use xlink:href="#DejaVuSans-79" x="391.992188"/>
     </g>
    </g>
    <g id="PathCollection_15">
     <defs>
      <path id="m8f80092995" d="M 0 3 
C 0.795609 3 1.55874 2.683901 2.12132 2.12132 
C 2.683901 1.55874 3 0.795609 3 0 
C 3 -0.795609 2.683901 -1.55874 2.12132 -2.12132 
C 1.55874 -2.683901 0.795609 -3 0 -3 
C -0.795609 -3 -1.55874 -2.683901 -2.12132 -2.12132 
C -2.683901 -1.55874 -3 -0.795609 -3 0 
C -3 0.795609 -2.683901 1.55874 -2.12132 2.12132 
C -1.55874 2.683901 -0.795609 3 0 3 
z
" style="stroke: #d62728"/>
     </defs>
     <g>
      <use xlink:href="#m8f80092995" x="56.96725" y="57.644041" style="fill: #d62728; stroke: #d62728"/>
     </g>
    </g>
    <g id="text_21">
     <!-- f1 -->
     <g transform="translate(69.45925 59.465791)scale(0.0694 -0.0694)">
      <defs>
       <path id="DejaVuSans-66" d="M 2375 4863 
L 2375 4384 
L 1825 4384 
Q 1516 4384 1395 4259 
Q 1275 4134 1275 3809 
L 1275 3500 
L 2222 3500 
L 2222 3053 
L 1275 3053 
L 1275 0 
L 697 0 
L 697 3053 
L 147 3053 
L 147 3500 
L 697 3500 
L 697 3744 
Q 697 4328 969 4595 
Q 1241 4863 1831 4863 
L 2375 4863 
z
" transform="scale(0.015625)"/>
      </defs>
      <use xlink:href="#DejaVuSans-66"/>
      <use xlink:href="#DejaVuSans-31" x="35.205078"/>
     </g>
    </g>
    <g id="text_22">
     <!-- ncols -->
     <g transform="translate(69.45925 69.652409)scale(0.0694 -0.0694)">
      <use xlink:href="#DejaVuSans-6e"/>
      <use xlink:href="#DejaVuSans-63" x="63.378906"/>
      <use xlink:href="#DejaVuSans-6f" x="118.359375"/>
      <use xlink:href="#DejaVuSans-6c" x="179.541016"/>
      <use xlink:href="#DejaVuSans-73" x="207.324219"/>
     </g>
    </g>
    <g id="PathCollection_16">
     <defs>
      <path id="m0d0909e5d1" d="M 0 3.307189 
C 0.877077 3.307189 1.718349 2.958723 2.338536 2.338536 
C 2.958723 1.718349 3.307189 0.877077 3.307189 0 
C 3.307189 -0.877077 2.958723 -1.718349 2.338536 -2.338536 
C 1.718349 -2.958723 0.877077 -3.307189 0 -3.307189 
C -0.877077 -3.307189 -1.718349 -2.958723 -2.338536 -2.338536 
C -2.958723 -1.718349 -3.307189 -0.877077 -3.307189 0 
C -3.307189 0.877077 -2.958723 1.718349 -2.338536 2.338536 
C -1.718349 2.958723 -0.877077 3.307189 0 3.307189 
z
" style="stroke: #333333"/>
     </defs>
     <g>
      <use xlink:href="#m0d0909e5d1" x="56.96725" y="78.017278" style="fill: #333333; stroke: #333333"/>
     </g>
    </g>
    <g id="text_23">
     <!-- 8 -->
     <g transform="translate(69.45925 79.839028)scale(0.0694 -0.0694)">
      <use xlink:href="#DejaVuSans-38"/>
     </g>
    </g>
    <g id="PathCollection_17">
     <defs>
      <path id="m000db06aab" d="M 0 3.66572 
C 0.97216 3.66572 1.904634 3.279476 2.592055 2.592055 
C 3.279476 1.904634 3.66572 0.97216 3.66572 0 
C 3.66572 -0.97216 3.279476 -1.904634 2.592055 -2.592055 
C 1.904634 -3.279476 0.97216 -3.66572 0 -3.66572 
C -0.97216 -3.66572 -1.904634 -3.279476 -2.592055 -2.592055 
C -3.279476 -1.904634 -3.66572 -0.97216 -3.66572 0 
C -3.66572 0.97216 -3.279476 1.904634 -2.592055 2.592055 
C -1.904634 3.279476 -0.97216 3.66572 0 3.66572 
z
" style="stroke: #333333"/>
     </defs>
     <g>
      <use xlink:href="#m000db06aab" x="56.96725" y="88.203897" style="fill: #333333; stroke: #333333"/>
     </g>
    </g>
    <g id="text_24">
     <!-- 16 -->
     <g transform="translate(69.45925 90.025647)scale(0.0694 -0.0694)">
      <use xlink:href="#DejaVuSans-31"/>
      <use xlink:href="#DejaVuSans-36" x="63.623047"/>
     </g>
    </g>
    <g id="PathCollection_18">
     <defs>
      <path id="m3f06267707" d="M 0 3.99218 
C 1.058738 3.99218 2.074256 3.571539 2.822897 2.822897 
C 3.571539 2.074256 3.99218 1.058738 3.99218 0 
C 3.99218 -1.058738 3.571539 -2.074256 2.822897 -2.822897 
C 2.074256 -3.571539 1.058738 -3.99218 0 -3.99218 
C -1.058738 -3.99218 -2.074256 -3.571539 -2.822897 -2.822897 
C -3.571539 -2.074256 -3.99218 -1.058738 -3.99218 0 
C -3.99218 1.058738 -3.571539 2.074256 -2.822897 2.822897 
C -2.074256 3.571539 -1.058738 3.99218 0 3.99218 
z
" style="stroke: #333333"/>
     </defs>
     <g>
      <use xlink:href="#m3f06267707" x="56.96725" y="98.390516" style="fill: #333333; stroke: #333333"/>
     </g>
    </g>
    <g id="text_25">
     <!-- 24 -->
     <g transform="translate(69.45925 100.212266)scale(0.0694 -0.0694)">
      <use xlink:href="#DejaVuSans-32"/>
      <use xlink:href="#DejaVuSans-34" x="63.623047"/>
     </g>
    </g>
    <g id="PathCollection_19">
     <defs>
      <path id="me72695418b" d="M 0 4.293891 
C 1.138753 4.293891 2.231019 3.84146 3.036239 3.036239 
C 3.84146 2.231019 4.293891 1.138753 4.293891 0 
C 4.293891 -1.138753 3.84146 -2.231019 3.036239 -3.036239 
C 2.231019 -3.84146 1.138753 -4.293891 0 -4.293891 
C -1.138753 -4.293891 -2.231019 -3.84146 -3.036239 -3.036239 
C -3.84146 -2.231019 -4.293891 -1.138753 -4.293891 0 
C -4.293891 1.138753 -3.84146 2.231019 -3.036239 3.036239 
C -2.231019 3.84146 -1.138753 4.293891 0 4.293891 
z
" style="stroke: #333333"/>
     </defs>
     <g>
      <use xlink:href="#me72695418b" x="56.96725" y="108.577134" style="fill: #333333; stroke: #333333"/>
     </g>
    </g>
    <g id="text_26">
     <!-- 32 -->
     <g transform="translate(69.45925 110.398884)scale(0.0694 -0.0694)">
      <use xlink:href="#DejaVuSans-33"/>
      <use xlink:href="#DejaVuSans-32" x="63.623047"/>
     </g>
    </g>
    <g id="PathCollection_20">
     <defs>
      <path id="m46c065f9ab" d="M 0 4.575751 
C 1.213503 4.575751 2.377468 4.093621 3.235545 3.235545 
C 4.093621 2.377468 4.575751 1.213503 4.575751 0 
C 4.575751 -1.213503 4.093621 -2.377468 3.235545 -3.235545 
C 2.377468 -4.093621 1.213503 -4.575751 0 -4.575751 
C -1.213503 -4.575751 -2.377468 -4.093621 -3.235545 -3.235545 
C -4.093621 -2.377468 -4.575751 -1.213503 -4.575751 0 
C -4.575751 1.213503 -4.093621 2.377468 -3.235545 3.235545 
C -2.377468 4.093621 -1.213503 4.575751 0 4.575751 
z
" style="stroke: #333333"/>
     </defs>
     <g>
      <use xlink:href="#m46c065f9ab" x="56.96725" y="118.763753" style="fill: #333333; stroke: #333333"/>
     </g>
    </g>
    <g id="text_27">
     <!-- 40 -->
     <g transform="translate(69.45925 120.585503)scale(0.0694 -0.0694)">
      <use xlink:href="#DejaVuSans-34"/>
      <use xlink:href="#DejaVuSans-30" x="63.623047"/>
     </g>
    </g>
    <g id="PathCollection_21">
     <defs>
      <path id="m3bd0f8a995" d="M 0 4.841229 
C 1.283909 4.841229 2.515405 4.331127 3.423266 3.423266 
C 4.331127 2.515405 4.841229 1.283909 4.841229 0 
C 4.841229 -1.283909 4.331127 -2.515405 3.423266 -3.423266 
C 2.515405 -4.331127 1.283909 -4.841229 0 -4.841229 
C -1.283909 -4.841229 -2.515405 -4.331127 -3.423266 -3.423266 
C -4.331127 -2.515405 -4.841229 -1.283909 -4.841229 0 
C -4.841229 1.283909 -4.331127 2.515405 -3.423266 3.423266 
C -2.515405 4.331127 -1.283909 4.841229 0 4.841229 
z
" style="stroke: #333333"/>
     </defs>
     <g>
      <use xlink:href="#m3bd0f8a995" x="56.96725" y="128.950372" style="fill: #333333; stroke: #333333"/>
     </g>
    </g>
    <g id="text_28">
     <!-- 48 -->
     <g transform="translate(69.45925 130.772122)scale(0.0694 -0.0694)">
      <use xlink:href="#DejaVuSans-34"/>
      <use xlink:href="#DejaVuSans-38" x="63.623047"/>
     </g>
    </g>
   </g>
  </g>
 </g>
 <defs>
  <clipPath id="p14c8419412">
   <rect x="43.78125" y="7.2" width="357.12" height="266.112"/>
  </clipPath>
 </defs>
</svg>
