<?xml version="1.0" encoding="utf-8" standalone="no"?>
<!DOCTYPE svg PUBLIC "-//W3C//DTD SVG 1.1//EN"
  "http://www.w3.org/Graphics/SVG/1.1/DTD/svg11.dtd">
<svg xmlns:xlink="http://www.w3.org/1999/xlink" width="408.10125pt" height="310.86825pt" viewBox="0 0 408.10125 310.86825" xmlns="http://www.w3.org/2000/svg" version="1.1">
 <metadata>
  <rdf:RDF xmlns:dc="http://purl.org/dc/elements/1.1/" xmlns:cc="http://creativecommons.org/ns#" xmlns:rdf="http://www.w3.org/1999/02/22-rdf-syntax-ns#">
   <cc:Work>
    <dc:type rdf:resource="http://purl.org/dc/dcmitype/StillImage"/>
    <dc:date>2022-04-06T14:53:32.513882</dc:date>
    <dc:format>image/svg+xml</dc:format>
    <dc:creator>
     <cc:Agent>
      <dc:title>Matplotlib v3.5.1, https://matplotlib.org/</dc:title>
     </cc:Agent>
    </dc:creator>
   </cc:Work>
  </rdf:RDF>
 </metadata>
 <defs>
  <style type="text/css">*{stroke-linejoin: round; stroke-linecap: butt}</style>
 </defs>
 <g id="figure_1">
  <g id="patch_1">
   <path d="M 0 310.86825 
L 408.10125 310.86825 
L 408.10125 0 
L 0 0 
z
" style="fill: #ffffff"/>
  </g>
  <g id="axes_1">
   <g id="patch_2">
    <path d="M 43.78125 273.312 
L 400.90125 273.312 
L 400.90125 7.2 
L 43.78125 7.2 
z
" style="fill: #ffffff"/>
   </g>
   <g id="PathCollection_1">
    <path d="M 384.668523 144.476486 
C 385.787809 144.476486 386.861402 144.031789 387.652857 143.240334 
C 388.444311 142.448879 388.889008 141.375286 388.889008 140.256 
C 388.889008 139.136714 388.444311 138.063121 387.652857 137.271666 
C 386.861402 136.480211 385.787809 136.035514 384.668523 136.035514 
C 383.549237 136.035514 382.475643 136.480211 381.684189 137.271666 
C 380.892734 138.063121 380.448037 139.136714 380.448037 140.256 
C 380.448037 141.375286 380.892734 142.448879 381.684189 143.240334 
C 382.475643 144.031789 383.549237 144.476486 384.668523 144.476486 
z
" clip-path="url(#p00aad37b6e)" style="fill: #2ca02c; stroke: #ffffff; stroke-width: 0.525357"/>
    <path d="M 384.668523 140.305451 
C 385.787809 140.305451 386.861402 139.860754 387.652857 139.0693 
C 388.444311 138.277845 388.889008 137.204251 388.889008 136.084966 
C 388.889008 134.96568 388.444311 133.892086 387.652857 133.100631 
C 386.861402 132.309177 385.787809 131.86448 384.668523 131.86448 
C 383.549237 131.86448 382.475643 132.309177 381.684189 133.100631 
C 380.892734 133.892086 380.448037 134.96568 380.448037 136.084966 
C 380.448037 137.204251 380.892734 138.277845 381.684189 139.0693 
C 382.475643 139.860754 383.549237 140.305451 384.668523 140.305451 
z
" clip-path="url(#p00aad37b6e)" style="fill: #1f77b4; stroke: #ffffff; stroke-width: 0.525357"/>
    <path d="M 384.668523 23.516486 
C 385.787809 23.516486 386.861402 23.071789 387.652857 22.280334 
C 388.444311 21.488879 388.889008 20.415286 388.889008 19.296 
C 388.889008 18.176714 388.444311 17.103121 387.652857 16.311666 
C 386.861402 15.520211 385.787809 15.075514 384.668523 15.075514 
C 383.549237 15.075514 382.475643 15.520211 381.684189 16.311666 
C 380.892734 17.103121 380.448037 18.176714 380.448037 19.296 
C 380.448037 20.415286 380.892734 21.488879 381.684189 22.280334 
C 382.475643 23.071789 383.549237 23.516486 384.668523 23.516486 
z
" clip-path="url(#p00aad37b6e)" style="fill: #ff7f0e; stroke: #ffffff; stroke-width: 0.525357"/>
    <path d="M 384.668523 100.491031 
C 385.787809 100.491031 386.861402 100.046334 387.652857 99.25488 
C 388.444311 98.463425 388.889008 97.389831 388.889008 96.270545 
C 388.889008 95.15126 388.444311 94.077666 387.652857 93.286211 
C 386.861402 92.494757 385.787809 92.05006 384.668523 92.05006 
C 383.549237 92.05006 382.475643 92.494757 381.684189 93.286211 
C 380.892734 94.077666 380.448037 95.15126 380.448037 96.270545 
C 380.448037 97.389831 380.892734 98.463425 381.684189 99.25488 
C 382.475643 100.046334 383.549237 100.491031 384.668523 100.491031 
z
" clip-path="url(#p00aad37b6e)" style="fill: #d62728; stroke: #ffffff; stroke-width: 0.525357"/>
    <path d="M 344.086705 139.061283 
C 345.41272 139.061283 346.684604 138.534451 347.622238 137.596817 
C 348.559873 136.659182 349.086705 135.387299 349.086705 134.061283 
C 349.086705 132.735268 348.559873 131.463384 347.622238 130.525749 
C 346.684604 129.588115 345.41272 129.061283 344.086705 129.061283 
C 342.760689 129.061283 341.488805 129.588115 340.551171 130.525749 
C 339.613536 131.463384 339.086705 132.735268 339.086705 134.061283 
C 339.086705 135.387299 339.613536 136.659182 340.551171 137.596817 
C 341.488805 138.534451 342.760689 139.061283 344.086705 139.061283 
z
" clip-path="url(#p00aad37b6e)" style="fill: #2ca02c; stroke: #ffffff; stroke-width: 0.525357"/>
    <path d="M 344.086705 122.828766 
C 345.41272 122.828766 346.684604 122.301934 347.622238 121.3643 
C 348.559873 120.426665 349.086705 119.154781 349.086705 117.828766 
C 349.086705 116.50275 348.559873 115.230867 347.622238 114.293232 
C 346.684604 113.355597 345.41272 112.828766 344.086705 112.828766 
C 342.760689 112.828766 341.488805 113.355597 340.551171 114.293232 
C 339.613536 115.230867 339.086705 116.50275 339.086705 117.828766 
C 339.086705 119.154781 339.613536 120.426665 340.551171 121.3643 
C 341.488805 122.301934 342.760689 122.828766 344.086705 122.828766 
z
" clip-path="url(#p00aad37b6e)" style="fill: #1f77b4; stroke: #ffffff; stroke-width: 0.525357"/>
    <path d="M 344.086705 55.616 
C 345.41272 55.616 346.684604 55.089168 347.622238 54.151534 
C 348.559873 53.213899 349.086705 51.942015 349.086705 50.616 
C 349.086705 49.289984 348.559873 48.018101 347.622238 47.080466 
C 346.684604 46.142832 345.41272 45.616 344.086705 45.616 
C 342.760689 45.616 341.488805 46.142832 340.551171 47.080466 
C 339.613536 48.018101 339.086705 49.289984 339.086705 50.616 
C 339.086705 51.942015 339.613536 53.213899 340.551171 54.151534 
C 341.488805 55.089168 342.760689 55.616 344.086705 55.616 
z
" clip-path="url(#p00aad37b6e)" style="fill: #ff7f0e; stroke: #ffffff; stroke-width: 0.525357"/>
    <path d="M 344.086705 95.603342 
C 345.41272 95.603342 346.684604 95.07651 347.622238 94.138876 
C 348.559873 93.201241 349.086705 91.929357 349.086705 90.603342 
C 349.086705 89.277326 348.559873 88.005442 347.622238 87.067808 
C 346.684604 86.130173 345.41272 85.603342 344.086705 85.603342 
C 342.760689 85.603342 341.488805 86.130173 340.551171 87.067808 
C 339.613536 88.005442 339.086705 89.277326 339.086705 90.603342 
C 339.086705 91.929357 339.613536 93.201241 340.551171 94.138876 
C 341.488805 95.07651 342.760689 95.603342 344.086705 95.603342 
z
" clip-path="url(#p00aad37b6e)" style="fill: #d62728; stroke: #ffffff; stroke-width: 0.525357"/>
    <path d="M 60.013977 264.378278 
C 60.852623 264.378278 61.657033 264.04508 62.250045 263.452068 
C 62.843057 262.859056 63.176255 262.054646 63.176255 261.216 
C 63.176255 260.377354 62.843057 259.572944 62.250045 258.979932 
C 61.657033 258.38692 60.852623 258.053722 60.013977 258.053722 
C 59.175331 258.053722 58.370921 258.38692 57.777909 258.979932 
C 57.184897 259.572944 56.8517 260.377354 56.8517 261.216 
C 56.8517 262.054646 57.184897 262.859056 57.777909 263.452068 
C 58.370921 264.04508 59.175331 264.378278 60.013977 264.378278 
z
" clip-path="url(#p00aad37b6e)" style="fill: #2ca02c; stroke: #ffffff; stroke-width: 0.525357"/>
    <path d="M 60.013977 264.378278 
C 60.852623 264.378278 61.657033 264.04508 62.250045 263.452068 
C 62.843057 262.859056 63.176255 262.054646 63.176255 261.216 
C 63.176255 260.377354 62.843057 259.572944 62.250045 258.979932 
C 61.657033 258.38692 60.852623 258.053722 60.013977 258.053722 
C 59.175331 258.053722 58.370921 258.38692 57.777909 258.979932 
C 57.184897 259.572944 56.8517 260.377354 56.8517 261.216 
C 56.8517 262.054646 57.184897 262.859056 57.777909 263.452068 
C 58.370921 264.04508 59.175331 264.378278 60.013977 264.378278 
z
" clip-path="url(#p00aad37b6e)" style="fill: #1f77b4; stroke: #ffffff; stroke-width: 0.525357"/>
    <path d="M 60.013977 264.378278 
C 60.852623 264.378278 61.657033 264.04508 62.250045 263.452068 
C 62.843057 262.859056 63.176255 262.054646 63.176255 261.216 
C 63.176255 260.377354 62.843057 259.572944 62.250045 258.979932 
C 61.657033 258.38692 60.852623 258.053722 60.013977 258.053722 
C 59.175331 258.053722 58.370921 258.38692 57.777909 258.979932 
C 57.184897 259.572944 56.8517 260.377354 56.8517 261.216 
C 56.8517 262.054646 57.184897 262.859056 57.777909 263.452068 
C 58.370921 264.04508 59.175331 264.378278 60.013977 264.378278 
z
" clip-path="url(#p00aad37b6e)" style="fill: #ff7f0e; stroke: #ffffff; stroke-width: 0.525357"/>
    <path d="M 60.013977 264.378278 
C 60.852623 264.378278 61.657033 264.04508 62.250045 263.452068 
C 62.843057 262.859056 63.176255 262.054646 63.176255 261.216 
C 63.176255 260.377354 62.843057 259.572944 62.250045 258.979932 
C 61.657033 258.38692 60.852623 258.053722 60.013977 258.053722 
C 59.175331 258.053722 58.370921 258.38692 57.777909 258.979932 
C 57.184897 259.572944 56.8517 260.377354 56.8517 261.216 
C 56.8517 262.054646 57.184897 262.859056 57.777909 263.452068 
C 58.370921 264.04508 59.175331 264.378278 60.013977 264.378278 
z
" clip-path="url(#p00aad37b6e)" style="fill: #d62728; stroke: #ffffff; stroke-width: 0.525357"/>
    <path d="M 100.595795 212.776368 
C 101.497583 212.776368 102.362558 212.418083 103.000218 211.780423 
C 103.637879 211.142763 103.996163 210.277788 103.996163 209.376 
C 103.996163 208.474212 103.637879 207.609237 103.000218 206.971577 
C 102.362558 206.333917 101.497583 205.975632 100.595795 205.975632 
C 99.694007 205.975632 98.829033 206.333917 98.191372 206.971577 
C 97.553712 207.609237 97.195428 208.474212 97.195428 209.376 
C 97.195428 210.277788 97.553712 211.142763 98.191372 211.780423 
C 98.829033 212.418083 99.694007 212.776368 100.595795 212.776368 
z
" clip-path="url(#p00aad37b6e)" style="fill: #2ca02c; stroke: #ffffff; stroke-width: 0.525357"/>
    <path d="M 100.595795 178.216368 
C 101.497583 178.216368 102.362558 177.858083 103.000218 177.220423 
C 103.637879 176.582763 103.996163 175.717788 103.996163 174.816 
C 103.996163 173.914212 103.637879 173.049237 103.000218 172.411577 
C 102.362558 171.773917 101.497583 171.415632 100.595795 171.415632 
C 99.694007 171.415632 98.829033 171.773917 98.191372 172.411577 
C 97.553712 173.049237 97.195428 173.914212 97.195428 174.816 
C 97.195428 175.717788 97.553712 176.582763 98.191372 177.220423 
C 98.829033 177.858083 99.694007 178.216368 100.595795 178.216368 
z
" clip-path="url(#p00aad37b6e)" style="fill: #1f77b4; stroke: #ffffff; stroke-width: 0.525357"/>
    <path d="M 100.595795 178.216368 
C 101.497583 178.216368 102.362558 177.858083 103.000218 177.220423 
C 103.637879 176.582763 103.996163 175.717788 103.996163 174.816 
C 103.996163 173.914212 103.637879 173.049237 103.000218 172.411577 
C 102.362558 171.773917 101.497583 171.415632 100.595795 171.415632 
C 99.694007 171.415632 98.829033 171.773917 98.191372 172.411577 
C 97.553712 173.049237 97.195428 173.914212 97.195428 174.816 
C 97.195428 175.717788 97.553712 176.582763 98.191372 177.220423 
C 98.829033 177.858083 99.694007 178.216368 100.595795 178.216368 
z
" clip-path="url(#p00aad37b6e)" style="fill: #ff7f0e; stroke: #ffffff; stroke-width: 0.525357"/>
    <path d="M 100.595795 178.216368 
C 101.497583 178.216368 102.362558 177.858083 103.000218 177.220423 
C 103.637879 176.582763 103.996163 175.717788 103.996163 174.816 
C 103.996163 173.914212 103.637879 173.049237 103.000218 172.411577 
C 102.362558 171.773917 101.497583 171.415632 100.595795 171.415632 
C 99.694007 171.415632 98.829033 171.773917 98.191372 172.411577 
C 97.553712 173.049237 97.195428 173.914212 97.195428 174.816 
C 97.195428 175.717788 97.553712 176.582763 98.191372 177.220423 
C 98.829033 177.858083 99.694007 178.216368 100.595795 178.216368 
z
" clip-path="url(#p00aad37b6e)" style="fill: #d62728; stroke: #ffffff; stroke-width: 0.525357"/>
    <path d="M 141.177614 204.936149 
C 142.115248 204.936149 143.014606 204.563623 143.677614 203.900615 
C 144.340621 203.237608 144.713148 202.33825 144.713148 201.400615 
C 144.713148 200.462981 144.340621 199.563623 143.677614 198.900615 
C 143.014606 198.237608 142.115248 197.865081 141.177614 197.865081 
C 140.239979 197.865081 139.340621 198.237608 138.677614 198.900615 
C 138.014606 199.563623 137.64208 200.462981 137.64208 201.400615 
C 137.64208 202.33825 138.014606 203.237608 138.677614 203.900615 
C 139.340621 204.563623 140.239979 204.936149 141.177614 204.936149 
z
" clip-path="url(#p00aad37b6e)" style="fill: #2ca02c; stroke: #ffffff; stroke-width: 0.525357"/>
    <path d="M 141.177614 178.351534 
C 142.115248 178.351534 143.014606 177.979008 143.677614 177.316 
C 144.340621 176.652992 144.713148 175.753635 144.713148 174.816 
C 144.713148 173.878365 144.340621 172.979008 143.677614 172.316 
C 143.014606 171.652992 142.115248 171.280466 141.177614 171.280466 
C 140.239979 171.280466 139.340621 171.652992 138.677614 172.316 
C 138.014606 172.979008 137.64208 173.878365 137.64208 174.816 
C 137.64208 175.753635 138.014606 176.652992 138.677614 177.316 
C 139.340621 177.979008 140.239979 178.351534 141.177614 178.351534 
z
" clip-path="url(#p00aad37b6e)" style="fill: #1f77b4; stroke: #ffffff; stroke-width: 0.525357"/>
    <path d="M 141.177614 153.66582 
C 142.115248 153.66582 143.014606 153.293293 143.677614 152.630286 
C 144.340621 151.967278 144.713148 151.06792 144.713148 150.130286 
C 144.713148 149.192651 144.340621 148.293293 143.677614 147.630286 
C 143.014606 146.967278 142.115248 146.594752 141.177614 146.594752 
C 140.239979 146.594752 139.340621 146.967278 138.677614 147.630286 
C 138.014606 148.293293 137.64208 149.192651 137.64208 150.130286 
C 137.64208 151.06792 138.014606 151.967278 138.677614 152.630286 
C 139.340621 153.293293 140.239979 153.66582 141.177614 153.66582 
z
" clip-path="url(#p00aad37b6e)" style="fill: #ff7f0e; stroke: #ffffff; stroke-width: 0.525357"/>
    <path d="M 141.177614 167.551534 
C 142.115248 167.551534 143.014606 167.179008 143.677614 166.516 
C 144.340621 165.852992 144.713148 164.953635 144.713148 164.016 
C 144.713148 163.078365 144.340621 162.179008 143.677614 161.516 
C 143.014606 160.852992 142.115248 160.480466 141.177614 160.480466 
C 140.239979 160.480466 139.340621 160.852992 138.677614 161.516 
C 138.014606 162.179008 137.64208 163.078365 137.64208 164.016 
C 137.64208 164.953635 138.014606 165.852992 138.677614 166.516 
C 139.340621 167.179008 140.239979 167.551534 141.177614 167.551534 
z
" clip-path="url(#p00aad37b6e)" style="fill: #d62728; stroke: #ffffff; stroke-width: 0.525357"/>
    <path d="M 181.759432 192.966 
C 182.753943 192.966 183.707856 192.570876 184.411082 191.86765 
C 185.114308 191.164425 185.509432 190.210512 185.509432 189.216 
C 185.509432 188.221488 185.114308 187.267575 184.411082 186.56435 
C 183.707856 185.861124 182.753943 185.466 181.759432 185.466 
C 180.76492 185.466 179.811007 185.861124 179.107781 186.56435 
C 178.404555 187.267575 178.009432 188.221488 178.009432 189.216 
C 178.009432 190.210512 178.404555 191.164425 179.107781 191.86765 
C 179.811007 192.570876 180.76492 192.966 181.759432 192.966 
z
" clip-path="url(#p00aad37b6e)" style="fill: #2ca02c; stroke: #ffffff; stroke-width: 0.525357"/>
    <path d="M 181.759432 165.273692 
C 182.753943 165.273692 183.707856 164.878569 184.411082 164.175343 
C 185.114308 163.472117 185.509432 162.518204 185.509432 161.523692 
C 185.509432 160.529181 185.114308 159.575268 184.411082 158.872042 
C 183.707856 158.168816 182.753943 157.773692 181.759432 157.773692 
C 180.76492 157.773692 179.811007 158.168816 179.107781 158.872042 
C 178.404555 159.575268 178.009432 160.529181 178.009432 161.523692 
C 178.009432 162.518204 178.404555 163.472117 179.107781 164.175343 
C 179.811007 164.878569 180.76492 165.273692 181.759432 165.273692 
z
" clip-path="url(#p00aad37b6e)" style="fill: #1f77b4; stroke: #ffffff; stroke-width: 0.525357"/>
    <path d="M 181.759432 135.366 
C 182.753943 135.366 183.707856 134.970876 184.411082 134.26765 
C 185.114308 133.564425 185.509432 132.610512 185.509432 131.616 
C 185.509432 130.621488 185.114308 129.667575 184.411082 128.96435 
C 183.707856 128.261124 182.753943 127.866 181.759432 127.866 
C 180.76492 127.866 179.811007 128.261124 179.107781 128.96435 
C 178.404555 129.667575 178.009432 130.621488 178.009432 131.616 
C 178.009432 132.610512 178.404555 133.564425 179.107781 134.26765 
C 179.811007 134.970876 180.76492 135.366 181.759432 135.366 
z
" clip-path="url(#p00aad37b6e)" style="fill: #ff7f0e; stroke: #ffffff; stroke-width: 0.525357"/>
    <path d="M 181.759432 152.270348 
C 182.753943 152.270348 183.707856 151.875224 184.411082 151.171998 
C 185.114308 150.468772 185.509432 149.514859 185.509432 148.520348 
C 185.509432 147.525836 185.114308 146.571923 184.411082 145.868697 
C 183.707856 145.165471 182.753943 144.770348 181.759432 144.770348 
C 180.76492 144.770348 179.811007 145.165471 179.107781 145.868697 
C 178.404555 146.571923 178.009432 147.525836 178.009432 148.520348 
C 178.009432 149.514859 178.404555 150.468772 179.107781 151.171998 
C 179.811007 151.875224 180.76492 152.270348 181.759432 152.270348 
z
" clip-path="url(#p00aad37b6e)" style="fill: #d62728; stroke: #ffffff; stroke-width: 0.525357"/>
    <path d="M 222.34125 192.671129 
C 223.410318 192.671129 224.435743 192.246384 225.191689 191.490439 
C 225.947634 190.734493 226.372379 189.709068 226.372379 188.64 
C 226.372379 187.570932 225.947634 186.545507 225.191689 185.789561 
C 224.435743 185.033616 223.410318 184.608871 222.34125 184.608871 
C 221.272182 184.608871 220.246757 185.033616 219.490811 185.789561 
C 218.734866 186.545507 218.310121 187.570932 218.310121 188.64 
C 218.310121 189.709068 218.734866 190.734493 219.490811 191.490439 
C 220.246757 192.246384 221.272182 192.671129 222.34125 192.671129 
z
" clip-path="url(#p00aad37b6e)" style="fill: #2ca02c; stroke: #ffffff; stroke-width: 0.525357"/>
    <path d="M 222.34125 169.752392 
C 223.410318 169.752392 224.435743 169.327647 225.191689 168.571702 
C 225.947634 167.815757 226.372379 166.790331 226.372379 165.721263 
C 226.372379 164.652195 225.947634 163.62677 225.191689 162.870825 
C 224.435743 162.114879 223.410318 161.690134 222.34125 161.690134 
C 221.272182 161.690134 220.246757 162.114879 219.490811 162.870825 
C 218.734866 163.62677 218.310121 164.652195 218.310121 165.721263 
C 218.310121 166.790331 218.734866 167.815757 219.490811 168.571702 
C 220.246757 169.327647 221.272182 169.752392 222.34125 169.752392 
z
" clip-path="url(#p00aad37b6e)" style="fill: #1f77b4; stroke: #ffffff; stroke-width: 0.525357"/>
    <path d="M 222.34125 125.677898 
C 223.410318 125.677898 224.435743 125.253153 225.191689 124.497208 
C 225.947634 123.741263 226.372379 122.715837 226.372379 121.646769 
C 226.372379 120.577701 225.947634 119.552276 225.191689 118.796331 
C 224.435743 118.040386 223.410318 117.61564 222.34125 117.61564 
C 221.272182 117.61564 220.246757 118.040386 219.490811 118.796331 
C 218.734866 119.552276 218.310121 120.577701 218.310121 121.646769 
C 218.310121 122.715837 218.734866 123.741263 219.490811 124.497208 
C 220.246757 125.253153 221.272182 125.677898 222.34125 125.677898 
z
" clip-path="url(#p00aad37b6e)" style="fill: #ff7f0e; stroke: #ffffff; stroke-width: 0.525357"/>
    <path d="M 222.34125 151.847129 
C 223.410318 151.847129 224.435743 151.422384 225.191689 150.666439 
C 225.947634 149.910493 226.372379 148.885068 226.372379 147.816 
C 226.372379 146.746932 225.947634 145.721507 225.191689 144.965561 
C 224.435743 144.209616 223.410318 143.784871 222.34125 143.784871 
C 221.272182 143.784871 220.246757 144.209616 219.490811 144.965561 
C 218.734866 145.721507 218.310121 146.746932 218.310121 147.816 
C 218.310121 148.885068 218.734866 149.910493 219.490811 150.666439 
C 220.246757 151.422384 221.272182 151.847129 222.34125 151.847129 
z
" clip-path="url(#p00aad37b6e)" style="fill: #d62728; stroke: #ffffff; stroke-width: 0.525357"/>
    <path d="M 262.923068 163.437036 
C 264.071431 163.437036 265.172915 162.980787 265.98493 162.168771 
C 266.796946 161.356756 267.253195 160.255272 267.253195 159.106909 
C 267.253195 157.958546 266.796946 156.857062 265.98493 156.045047 
C 265.172915 155.233032 264.071431 154.776782 262.923068 154.776782 
C 261.774705 154.776782 260.673221 155.233032 259.861206 156.045047 
C 259.049191 156.857062 258.592941 157.958546 258.592941 159.106909 
C 258.592941 160.255272 259.049191 161.356756 259.861206 162.168771 
C 260.673221 162.980787 261.774705 163.437036 262.923068 163.437036 
z
" clip-path="url(#p00aad37b6e)" style="fill: #2ca02c; stroke: #ffffff; stroke-width: 0.525357"/>
    <path d="M 262.923068 140.746127 
C 264.071431 140.746127 265.172915 140.289878 265.98493 139.477862 
C 266.796946 138.665847 267.253195 137.564363 267.253195 136.416 
C 267.253195 135.267637 266.796946 134.166153 265.98493 133.354138 
C 265.172915 132.542122 264.071431 132.085873 262.923068 132.085873 
C 261.774705 132.085873 260.673221 132.542122 259.861206 133.354138 
C 259.049191 134.166153 258.592941 135.267637 258.592941 136.416 
C 258.592941 137.564363 259.049191 138.665847 259.861206 139.477862 
C 260.673221 140.289878 261.774705 140.746127 262.923068 140.746127 
z
" clip-path="url(#p00aad37b6e)" style="fill: #1f77b4; stroke: #ffffff; stroke-width: 0.525357"/>
    <path d="M 262.923068 88.198759 
C 264.071431 88.198759 265.172915 87.742509 265.98493 86.930494 
C 266.796946 86.118478 267.253195 85.016995 267.253195 83.868632 
C 267.253195 82.720268 266.796946 81.618785 265.98493 80.806769 
C 265.172915 79.994754 264.071431 79.538505 262.923068 79.538505 
C 261.774705 79.538505 260.673221 79.994754 259.861206 80.806769 
C 259.049191 81.618785 258.592941 82.720268 258.592941 83.868632 
C 258.592941 85.016995 259.049191 86.118478 259.861206 86.930494 
C 260.673221 87.742509 261.774705 88.198759 262.923068 88.198759 
z
" clip-path="url(#p00aad37b6e)" style="fill: #ff7f0e; stroke: #ffffff; stroke-width: 0.525357"/>
    <path d="M 262.923068 119.041779 
C 264.071431 119.041779 265.172915 118.58553 265.98493 117.773514 
C 266.796946 116.961499 267.253195 115.860015 267.253195 114.711652 
C 267.253195 113.563289 266.796946 112.461805 265.98493 111.64979 
C 265.172915 110.837775 264.071431 110.381525 262.923068 110.381525 
C 261.774705 110.381525 260.673221 110.837775 259.861206 111.64979 
C 259.049191 112.461805 258.592941 113.563289 258.592941 114.711652 
C 258.592941 115.860015 259.049191 116.961499 259.861206 117.773514 
C 260.673221 118.58553 261.774705 119.041779 262.923068 119.041779 
z
" clip-path="url(#p00aad37b6e)" style="fill: #d62728; stroke: #ffffff; stroke-width: 0.525357"/>
    <path d="M 303.504886 144.999416 
C 304.762855 144.999416 305.96947 144.49962 306.858988 143.610102 
C 307.748507 142.720584 308.248303 141.513969 308.248303 140.256 
C 308.248303 138.998031 307.748507 137.791416 306.858988 136.901898 
C 305.96947 136.01238 304.762855 135.512584 303.504886 135.512584 
C 302.246918 135.512584 301.040303 136.01238 300.150784 136.901898 
C 299.261266 137.791416 298.76147 138.998031 298.76147 140.256 
C 298.76147 141.513969 299.261266 142.720584 300.150784 143.610102 
C 301.040303 144.49962 302.246918 144.999416 303.504886 144.999416 
z
" clip-path="url(#p00aad37b6e)" style="fill: #2ca02c; stroke: #ffffff; stroke-width: 0.525357"/>
    <path d="M 303.504886 126.390186 
C 304.762855 126.390186 305.96947 125.890389 306.858988 125.000871 
C 307.748507 124.111353 308.248303 122.904738 308.248303 121.646769 
C 308.248303 120.3888 307.748507 119.182186 306.858988 118.292667 
C 305.96947 117.403149 304.762855 116.903353 303.504886 116.903353 
C 302.246918 116.903353 301.040303 117.403149 300.150784 118.292667 
C 299.261266 119.182186 298.76147 120.3888 298.76147 121.646769 
C 298.76147 122.904738 299.261266 124.111353 300.150784 125.000871 
C 301.040303 125.890389 302.246918 126.390186 303.504886 126.390186 
z
" clip-path="url(#p00aad37b6e)" style="fill: #1f77b4; stroke: #ffffff; stroke-width: 0.525357"/>
    <path d="M 303.504886 64.359416 
C 304.762855 64.359416 305.96947 63.85962 306.858988 62.970102 
C 307.748507 62.080584 308.248303 60.873969 308.248303 59.616 
C 308.248303 58.358031 307.748507 57.151416 306.858988 56.261898 
C 305.96947 55.37238 304.762855 54.872584 303.504886 54.872584 
C 302.246918 54.872584 301.040303 55.37238 300.150784 56.261898 
C 299.261266 57.151416 298.76147 58.358031 298.76147 59.616 
C 298.76147 60.873969 299.261266 62.080584 300.150784 62.970102 
C 301.040303 63.85962 302.246918 64.359416 303.504886 64.359416 
z
" clip-path="url(#p00aad37b6e)" style="fill: #ff7f0e; stroke: #ffffff; stroke-width: 0.525357"/>
    <path d="M 303.504886 101.013962 
C 304.762855 101.013962 305.96947 100.514166 306.858988 99.624647 
C 307.748507 98.735129 308.248303 97.528514 308.248303 96.270545 
C 308.248303 95.012577 307.748507 93.805962 306.858988 92.916443 
C 305.96947 92.026925 304.762855 91.527129 303.504886 91.527129 
C 302.246918 91.527129 301.040303 92.026925 300.150784 92.916443 
C 299.261266 93.805962 298.76147 95.012577 298.76147 96.270545 
C 298.76147 97.528514 299.261266 98.735129 300.150784 99.624647 
C 301.040303 100.514166 302.246918 101.013962 303.504886 101.013962 
z
" clip-path="url(#p00aad37b6e)" style="fill: #d62728; stroke: #ffffff; stroke-width: 0.525357"/>
   </g>
   <g id="PathCollection_2"/>
   <g id="PathCollection_3"/>
   <g id="PathCollection_4"/>
   <g id="PathCollection_5"/>
   <g id="PathCollection_6"/>
   <g id="PathCollection_7"/>
   <g id="PathCollection_8"/>
   <g id="PathCollection_9"/>
   <g id="PathCollection_10"/>
   <g id="PathCollection_11"/>
   <g id="matplotlib.axis_1">
    <g id="xtick_1">
     <g id="line2d_1">
      <defs>
       <path id="m9f308ac52f" d="M 0 0 
L 0 3.5 
" style="stroke: #000000; stroke-width: 0.8"/>
      </defs>
      <g>
       <use xlink:href="#m9f308ac52f" x="60.013977" y="273.312" style="stroke: #000000; stroke-width: 0.8"/>
      </g>
     </g>
     <g id="text_1">
      <!-- 20 -->
      <g transform="translate(53.651477 287.910437)scale(0.1 -0.1)">
       <defs>
        <path id="DejaVuSans-32" d="M 1228 531 
L 3431 531 
L 3431 0 
L 469 0 
L 469 531 
Q 828 903 1448 1529 
Q 2069 2156 2228 2338 
Q 2531 2678 2651 2914 
Q 2772 3150 2772 3378 
Q 2772 3750 2511 3984 
Q 2250 4219 1831 4219 
Q 1534 4219 1204 4116 
Q 875 4013 500 3803 
L 500 4441 
Q 881 4594 1212 4672 
Q 1544 4750 1819 4750 
Q 2544 4750 2975 4387 
Q 3406 4025 3406 3419 
Q 3406 3131 3298 2873 
Q 3191 2616 2906 2266 
Q 2828 2175 2409 1742 
Q 1991 1309 1228 531 
z
" transform="scale(0.015625)"/>
        <path id="DejaVuSans-30" d="M 2034 4250 
Q 1547 4250 1301 3770 
Q 1056 3291 1056 2328 
Q 1056 1369 1301 889 
Q 1547 409 2034 409 
Q 2525 409 2770 889 
Q 3016 1369 3016 2328 
Q 3016 3291 2770 3770 
Q 2525 4250 2034 4250 
z
M 2034 4750 
Q 2819 4750 3233 4129 
Q 3647 3509 3647 2328 
Q 3647 1150 3233 529 
Q 2819 -91 2034 -91 
Q 1250 -91 836 529 
Q 422 1150 422 2328 
Q 422 3509 836 4129 
Q 1250 4750 2034 4750 
z
" transform="scale(0.015625)"/>
       </defs>
       <use xlink:href="#DejaVuSans-32"/>
       <use xlink:href="#DejaVuSans-30" x="63.623047"/>
      </g>
     </g>
    </g>
    <g id="xtick_2">
     <g id="line2d_2">
      <g>
       <use xlink:href="#m9f308ac52f" x="100.595795" y="273.312" style="stroke: #000000; stroke-width: 0.8"/>
      </g>
     </g>
     <g id="text_2">
      <!-- 30 -->
      <g transform="translate(94.233295 287.910437)scale(0.1 -0.1)">
       <defs>
        <path id="DejaVuSans-33" d="M 2597 2516 
Q 3050 2419 3304 2112 
Q 3559 1806 3559 1356 
Q 3559 666 3084 287 
Q 2609 -91 1734 -91 
Q 1441 -91 1130 -33 
Q 819 25 488 141 
L 488 750 
Q 750 597 1062 519 
Q 1375 441 1716 441 
Q 2309 441 2620 675 
Q 2931 909 2931 1356 
Q 2931 1769 2642 2001 
Q 2353 2234 1838 2234 
L 1294 2234 
L 1294 2753 
L 1863 2753 
Q 2328 2753 2575 2939 
Q 2822 3125 2822 3475 
Q 2822 3834 2567 4026 
Q 2313 4219 1838 4219 
Q 1578 4219 1281 4162 
Q 984 4106 628 3988 
L 628 4550 
Q 988 4650 1302 4700 
Q 1616 4750 1894 4750 
Q 2613 4750 3031 4423 
Q 3450 4097 3450 3541 
Q 3450 3153 3228 2886 
Q 3006 2619 2597 2516 
z
" transform="scale(0.015625)"/>
       </defs>
       <use xlink:href="#DejaVuSans-33"/>
       <use xlink:href="#DejaVuSans-30" x="63.623047"/>
      </g>
     </g>
    </g>
    <g id="xtick_3">
     <g id="line2d_3">
      <g>
       <use xlink:href="#m9f308ac52f" x="141.177614" y="273.312" style="stroke: #000000; stroke-width: 0.8"/>
      </g>
     </g>
     <g id="text_3">
      <!-- 40 -->
      <g transform="translate(134.815114 287.910437)scale(0.1 -0.1)">
       <defs>
        <path id="DejaVuSans-34" d="M 2419 4116 
L 825 1625 
L 2419 1625 
L 2419 4116 
z
M 2253 4666 
L 3047 4666 
L 3047 1625 
L 3713 1625 
L 3713 1100 
L 3047 1100 
L 3047 0 
L 2419 0 
L 2419 1100 
L 313 1100 
L 313 1709 
L 2253 4666 
z
" transform="scale(0.015625)"/>
       </defs>
       <use xlink:href="#DejaVuSans-34"/>
       <use xlink:href="#DejaVuSans-30" x="63.623047"/>
      </g>
     </g>
    </g>
    <g id="xtick_4">
     <g id="line2d_4">
      <g>
       <use xlink:href="#m9f308ac52f" x="181.759432" y="273.312" style="stroke: #000000; stroke-width: 0.8"/>
      </g>
     </g>
     <g id="text_4">
      <!-- 50 -->
      <g transform="translate(175.396932 287.910437)scale(0.1 -0.1)">
       <defs>
        <path id="DejaVuSans-35" d="M 691 4666 
L 3169 4666 
L 3169 4134 
L 1269 4134 
L 1269 2991 
Q 1406 3038 1543 3061 
Q 1681 3084 1819 3084 
Q 2600 3084 3056 2656 
Q 3513 2228 3513 1497 
Q 3513 744 3044 326 
Q 2575 -91 1722 -91 
Q 1428 -91 1123 -41 
Q 819 9 494 109 
L 494 744 
Q 775 591 1075 516 
Q 1375 441 1709 441 
Q 2250 441 2565 725 
Q 2881 1009 2881 1497 
Q 2881 1984 2565 2268 
Q 2250 2553 1709 2553 
Q 1456 2553 1204 2497 
Q 953 2441 691 2322 
L 691 4666 
z
" transform="scale(0.015625)"/>
       </defs>
       <use xlink:href="#DejaVuSans-35"/>
       <use xlink:href="#DejaVuSans-30" x="63.623047"/>
      </g>
     </g>
    </g>
    <g id="xtick_5">
     <g id="line2d_5">
      <g>
       <use xlink:href="#m9f308ac52f" x="222.34125" y="273.312" style="stroke: #000000; stroke-width: 0.8"/>
      </g>
     </g>
     <g id="text_5">
      <!-- 70 -->
      <g transform="translate(215.97875 287.910437)scale(0.1 -0.1)">
       <defs>
        <path id="DejaVuSans-37" d="M 525 4666 
L 3525 4666 
L 3525 4397 
L 1831 0 
L 1172 0 
L 2766 4134 
L 525 4134 
L 525 4666 
z
" transform="scale(0.015625)"/>
       </defs>
       <use xlink:href="#DejaVuSans-37"/>
       <use xlink:href="#DejaVuSans-30" x="63.623047"/>
      </g>
     </g>
    </g>
    <g id="xtick_6">
     <g id="line2d_6">
      <g>
       <use xlink:href="#m9f308ac52f" x="262.923068" y="273.312" style="stroke: #000000; stroke-width: 0.8"/>
      </g>
     </g>
     <g id="text_6">
      <!-- 100 -->
      <g transform="translate(253.379318 287.910437)scale(0.1 -0.1)">
       <defs>
        <path id="DejaVuSans-31" d="M 794 531 
L 1825 531 
L 1825 4091 
L 703 3866 
L 703 4441 
L 1819 4666 
L 2450 4666 
L 2450 531 
L 3481 531 
L 3481 0 
L 794 0 
L 794 531 
z
" transform="scale(0.015625)"/>
       </defs>
       <use xlink:href="#DejaVuSans-31"/>
       <use xlink:href="#DejaVuSans-30" x="63.623047"/>
       <use xlink:href="#DejaVuSans-30" x="127.246094"/>
      </g>
     </g>
    </g>
    <g id="xtick_7">
     <g id="line2d_7">
      <g>
       <use xlink:href="#m9f308ac52f" x="303.504886" y="273.312" style="stroke: #000000; stroke-width: 0.8"/>
      </g>
     </g>
     <g id="text_7">
      <!-- 150 -->
      <g transform="translate(293.961136 287.910437)scale(0.1 -0.1)">
       <use xlink:href="#DejaVuSans-31"/>
       <use xlink:href="#DejaVuSans-35" x="63.623047"/>
       <use xlink:href="#DejaVuSans-30" x="127.246094"/>
      </g>
     </g>
    </g>
    <g id="xtick_8">
     <g id="line2d_8">
      <g>
       <use xlink:href="#m9f308ac52f" x="344.086705" y="273.312" style="stroke: #000000; stroke-width: 0.8"/>
      </g>
     </g>
     <g id="text_8">
      <!-- 200 -->
      <g transform="translate(334.542955 287.910437)scale(0.1 -0.1)">
       <use xlink:href="#DejaVuSans-32"/>
       <use xlink:href="#DejaVuSans-30" x="63.623047"/>
       <use xlink:href="#DejaVuSans-30" x="127.246094"/>
      </g>
     </g>
    </g>
    <g id="xtick_9">
     <g id="line2d_9">
      <g>
       <use xlink:href="#m9f308ac52f" x="384.668523" y="273.312" style="stroke: #000000; stroke-width: 0.8"/>
      </g>
     </g>
     <g id="text_9">
      <!-- 200&lt; -->
      <g transform="translate(370.934929 287.910437)scale(0.1 -0.1)">
       <defs>
        <path id="DejaVuSans-3c" d="M 4684 3150 
L 1459 2003 
L 4684 863 
L 4684 294 
L 678 1747 
L 678 2266 
L 4684 3719 
L 4684 3150 
z
" transform="scale(0.015625)"/>
       </defs>
       <use xlink:href="#DejaVuSans-32"/>
       <use xlink:href="#DejaVuSans-30" x="63.623047"/>
       <use xlink:href="#DejaVuSans-30" x="127.246094"/>
       <use xlink:href="#DejaVuSans-3c" x="190.869141"/>
      </g>
     </g>
    </g>
    <g id="text_10">
     <!-- nrows -->
     <g transform="translate(207.476406 301.588562)scale(0.1 -0.1)">
      <defs>
       <path id="DejaVuSans-6e" d="M 3513 2113 
L 3513 0 
L 2938 0 
L 2938 2094 
Q 2938 2591 2744 2837 
Q 2550 3084 2163 3084 
Q 1697 3084 1428 2787 
Q 1159 2491 1159 1978 
L 1159 0 
L 581 0 
L 581 3500 
L 1159 3500 
L 1159 2956 
Q 1366 3272 1645 3428 
Q 1925 3584 2291 3584 
Q 2894 3584 3203 3211 
Q 3513 2838 3513 2113 
z
" transform="scale(0.015625)"/>
       <path id="DejaVuSans-72" d="M 2631 2963 
Q 2534 3019 2420 3045 
Q 2306 3072 2169 3072 
Q 1681 3072 1420 2755 
Q 1159 2438 1159 1844 
L 1159 0 
L 581 0 
L 581 3500 
L 1159 3500 
L 1159 2956 
Q 1341 3275 1631 3429 
Q 1922 3584 2338 3584 
Q 2397 3584 2469 3576 
Q 2541 3569 2628 3553 
L 2631 2963 
z
" transform="scale(0.015625)"/>
       <path id="DejaVuSans-6f" d="M 1959 3097 
Q 1497 3097 1228 2736 
Q 959 2375 959 1747 
Q 959 1119 1226 758 
Q 1494 397 1959 397 
Q 2419 397 2687 759 
Q 2956 1122 2956 1747 
Q 2956 2369 2687 2733 
Q 2419 3097 1959 3097 
z
M 1959 3584 
Q 2709 3584 3137 3096 
Q 3566 2609 3566 1747 
Q 3566 888 3137 398 
Q 2709 -91 1959 -91 
Q 1206 -91 779 398 
Q 353 888 353 1747 
Q 353 2609 779 3096 
Q 1206 3584 1959 3584 
z
" transform="scale(0.015625)"/>
       <path id="DejaVuSans-77" d="M 269 3500 
L 844 3500 
L 1563 769 
L 2278 3500 
L 2956 3500 
L 3675 769 
L 4391 3500 
L 4966 3500 
L 4050 0 
L 3372 0 
L 2619 2869 
L 1863 0 
L 1184 0 
L 269 3500 
z
" transform="scale(0.015625)"/>
       <path id="DejaVuSans-73" d="M 2834 3397 
L 2834 2853 
Q 2591 2978 2328 3040 
Q 2066 3103 1784 3103 
Q 1356 3103 1142 2972 
Q 928 2841 928 2578 
Q 928 2378 1081 2264 
Q 1234 2150 1697 2047 
L 1894 2003 
Q 2506 1872 2764 1633 
Q 3022 1394 3022 966 
Q 3022 478 2636 193 
Q 2250 -91 1575 -91 
Q 1294 -91 989 -36 
Q 684 19 347 128 
L 347 722 
Q 666 556 975 473 
Q 1284 391 1588 391 
Q 1994 391 2212 530 
Q 2431 669 2431 922 
Q 2431 1156 2273 1281 
Q 2116 1406 1581 1522 
L 1381 1569 
Q 847 1681 609 1914 
Q 372 2147 372 2553 
Q 372 3047 722 3315 
Q 1072 3584 1716 3584 
Q 2034 3584 2315 3537 
Q 2597 3491 2834 3397 
z
" transform="scale(0.015625)"/>
      </defs>
      <use xlink:href="#DejaVuSans-6e"/>
      <use xlink:href="#DejaVuSans-72" x="63.378906"/>
      <use xlink:href="#DejaVuSans-6f" x="102.242188"/>
      <use xlink:href="#DejaVuSans-77" x="163.423828"/>
      <use xlink:href="#DejaVuSans-73" x="245.210938"/>
     </g>
    </g>
   </g>
   <g id="matplotlib.axis_2">
    <g id="ytick_1">
     <g id="line2d_10">
      <defs>
       <path id="mde4310b7ad" d="M 0 0 
L -3.5 0 
" style="stroke: #000000; stroke-width: 0.8"/>
      </defs>
      <g>
       <use xlink:href="#mde4310b7ad" x="43.78125" y="261.216" style="stroke: #000000; stroke-width: 0.8"/>
      </g>
     </g>
     <g id="text_11">
      <!-- 0.0 -->
      <g transform="translate(20.878125 265.015219)scale(0.1 -0.1)">
       <defs>
        <path id="DejaVuSans-2e" d="M 684 794 
L 1344 794 
L 1344 0 
L 684 0 
L 684 794 
z
" transform="scale(0.015625)"/>
       </defs>
       <use xlink:href="#DejaVuSans-30"/>
       <use xlink:href="#DejaVuSans-2e" x="63.623047"/>
       <use xlink:href="#DejaVuSans-30" x="95.410156"/>
      </g>
     </g>
    </g>
    <g id="ytick_2">
     <g id="line2d_11">
      <g>
       <use xlink:href="#mde4310b7ad" x="43.78125" y="209.376" style="stroke: #000000; stroke-width: 0.8"/>
      </g>
     </g>
     <g id="text_12">
      <!-- 0.2 -->
      <g transform="translate(20.878125 213.175219)scale(0.1 -0.1)">
       <use xlink:href="#DejaVuSans-30"/>
       <use xlink:href="#DejaVuSans-2e" x="63.623047"/>
       <use xlink:href="#DejaVuSans-32" x="95.410156"/>
      </g>
     </g>
    </g>
    <g id="ytick_3">
     <g id="line2d_12">
      <g>
       <use xlink:href="#mde4310b7ad" x="43.78125" y="157.536" style="stroke: #000000; stroke-width: 0.8"/>
      </g>
     </g>
     <g id="text_13">
      <!-- 0.4 -->
      <g transform="translate(20.878125 161.335219)scale(0.1 -0.1)">
       <use xlink:href="#DejaVuSans-30"/>
       <use xlink:href="#DejaVuSans-2e" x="63.623047"/>
       <use xlink:href="#DejaVuSans-34" x="95.410156"/>
      </g>
     </g>
    </g>
    <g id="ytick_4">
     <g id="line2d_13">
      <g>
       <use xlink:href="#mde4310b7ad" x="43.78125" y="105.696" style="stroke: #000000; stroke-width: 0.8"/>
      </g>
     </g>
     <g id="text_14">
      <!-- 0.6 -->
      <g transform="translate(20.878125 109.495219)scale(0.1 -0.1)">
       <defs>
        <path id="DejaVuSans-36" d="M 2113 2584 
Q 1688 2584 1439 2293 
Q 1191 2003 1191 1497 
Q 1191 994 1439 701 
Q 1688 409 2113 409 
Q 2538 409 2786 701 
Q 3034 994 3034 1497 
Q 3034 2003 2786 2293 
Q 2538 2584 2113 2584 
z
M 3366 4563 
L 3366 3988 
Q 3128 4100 2886 4159 
Q 2644 4219 2406 4219 
Q 1781 4219 1451 3797 
Q 1122 3375 1075 2522 
Q 1259 2794 1537 2939 
Q 1816 3084 2150 3084 
Q 2853 3084 3261 2657 
Q 3669 2231 3669 1497 
Q 3669 778 3244 343 
Q 2819 -91 2113 -91 
Q 1303 -91 875 529 
Q 447 1150 447 2328 
Q 447 3434 972 4092 
Q 1497 4750 2381 4750 
Q 2619 4750 2861 4703 
Q 3103 4656 3366 4563 
z
" transform="scale(0.015625)"/>
       </defs>
       <use xlink:href="#DejaVuSans-30"/>
       <use xlink:href="#DejaVuSans-2e" x="63.623047"/>
       <use xlink:href="#DejaVuSans-36" x="95.410156"/>
      </g>
     </g>
    </g>
    <g id="ytick_5">
     <g id="line2d_14">
      <g>
       <use xlink:href="#mde4310b7ad" x="43.78125" y="53.856" style="stroke: #000000; stroke-width: 0.8"/>
      </g>
     </g>
     <g id="text_15">
      <!-- 0.8 -->
      <g transform="translate(20.878125 57.655219)scale(0.1 -0.1)">
       <defs>
        <path id="DejaVuSans-38" d="M 2034 2216 
Q 1584 2216 1326 1975 
Q 1069 1734 1069 1313 
Q 1069 891 1326 650 
Q 1584 409 2034 409 
Q 2484 409 2743 651 
Q 3003 894 3003 1313 
Q 3003 1734 2745 1975 
Q 2488 2216 2034 2216 
z
M 1403 2484 
Q 997 2584 770 2862 
Q 544 3141 544 3541 
Q 544 4100 942 4425 
Q 1341 4750 2034 4750 
Q 2731 4750 3128 4425 
Q 3525 4100 3525 3541 
Q 3525 3141 3298 2862 
Q 3072 2584 2669 2484 
Q 3125 2378 3379 2068 
Q 3634 1759 3634 1313 
Q 3634 634 3220 271 
Q 2806 -91 2034 -91 
Q 1263 -91 848 271 
Q 434 634 434 1313 
Q 434 1759 690 2068 
Q 947 2378 1403 2484 
z
M 1172 3481 
Q 1172 3119 1398 2916 
Q 1625 2713 2034 2713 
Q 2441 2713 2670 2916 
Q 2900 3119 2900 3481 
Q 2900 3844 2670 4047 
Q 2441 4250 2034 4250 
Q 1625 4250 1398 4047 
Q 1172 3844 1172 3481 
z
" transform="scale(0.015625)"/>
       </defs>
       <use xlink:href="#DejaVuSans-30"/>
       <use xlink:href="#DejaVuSans-2e" x="63.623047"/>
       <use xlink:href="#DejaVuSans-38" x="95.410156"/>
      </g>
     </g>
    </g>
    <g id="text_16">
     <!-- score -->
     <g transform="translate(14.798438 153.688812)rotate(-90)scale(0.1 -0.1)">
      <defs>
       <path id="DejaVuSans-63" d="M 3122 3366 
L 3122 2828 
Q 2878 2963 2633 3030 
Q 2388 3097 2138 3097 
Q 1578 3097 1268 2742 
Q 959 2388 959 1747 
Q 959 1106 1268 751 
Q 1578 397 2138 397 
Q 2388 397 2633 464 
Q 2878 531 3122 666 
L 3122 134 
Q 2881 22 2623 -34 
Q 2366 -91 2075 -91 
Q 1284 -91 818 406 
Q 353 903 353 1747 
Q 353 2603 823 3093 
Q 1294 3584 2113 3584 
Q 2378 3584 2631 3529 
Q 2884 3475 3122 3366 
z
" transform="scale(0.015625)"/>
       <path id="DejaVuSans-65" d="M 3597 1894 
L 3597 1613 
L 953 1613 
Q 991 1019 1311 708 
Q 1631 397 2203 397 
Q 2534 397 2845 478 
Q 3156 559 3463 722 
L 3463 178 
Q 3153 47 2828 -22 
Q 2503 -91 2169 -91 
Q 1331 -91 842 396 
Q 353 884 353 1716 
Q 353 2575 817 3079 
Q 1281 3584 2069 3584 
Q 2775 3584 3186 3129 
Q 3597 2675 3597 1894 
z
M 3022 2063 
Q 3016 2534 2758 2815 
Q 2500 3097 2075 3097 
Q 1594 3097 1305 2825 
Q 1016 2553 972 2059 
L 3022 2063 
z
" transform="scale(0.015625)"/>
      </defs>
      <use xlink:href="#DejaVuSans-73"/>
      <use xlink:href="#DejaVuSans-63" x="52.099609"/>
      <use xlink:href="#DejaVuSans-6f" x="107.080078"/>
      <use xlink:href="#DejaVuSans-72" x="168.261719"/>
      <use xlink:href="#DejaVuSans-65" x="207.125"/>
     </g>
    </g>
   </g>
   <g id="line2d_15">
    <path d="M 60.013977 261.216 
L 100.595795 174.816 
L 141.177614 174.816 
L 181.759432 161.523692 
L 222.34125 165.721263 
L 262.923068 136.416 
L 303.504886 121.646769 
L 344.086705 117.828766 
L 384.668523 136.084966 
" clip-path="url(#p00aad37b6e)" style="fill: none; stroke-dasharray: 3.7,1.6; stroke-dashoffset: 0; stroke: #1f77b4"/>
   </g>
   <g id="line2d_16">
    <path d="M 60.013977 261.216 
L 100.595795 174.816 
L 141.177614 150.130286 
L 181.759432 131.616 
L 222.34125 121.646769 
L 262.923068 83.868632 
L 303.504886 59.616 
L 344.086705 50.616 
L 384.668523 19.296 
" clip-path="url(#p00aad37b6e)" style="fill: none; stroke-dasharray: 1,1.65; stroke-dashoffset: 0; stroke: #ff7f0e"/>
   </g>
   <g id="line2d_17">
    <path d="M 60.013977 261.216 
L 100.595795 209.376 
L 141.177614 201.400615 
L 181.759432 189.216 
L 222.34125 188.64 
L 262.923068 159.106909 
L 303.504886 140.256 
L 344.086705 134.061283 
L 384.668523 140.256 
" clip-path="url(#p00aad37b6e)" style="fill: none; stroke-dasharray: 6.4,1.6,1,1.6; stroke-dashoffset: 0; stroke: #2ca02c"/>
   </g>
   <g id="line2d_18">
    <path d="M 60.013977 261.216 
L 100.595795 174.816 
L 141.177614 164.016 
L 181.759432 148.520348 
L 222.34125 147.816 
L 262.923068 114.711652 
L 303.504886 96.270545 
L 344.086705 90.603342 
L 384.668523 96.270545 
" clip-path="url(#p00aad37b6e)" style="fill: none; stroke: #d62728; stroke-linecap: square"/>
   </g>
   <g id="patch_3">
    <path d="M 43.78125 273.312 
L 43.78125 7.2 
" style="fill: none; stroke: #000000; stroke-width: 0.8; stroke-linejoin: miter; stroke-linecap: square"/>
   </g>
   <g id="patch_4">
    <path d="M 400.90125 273.312 
L 400.90125 7.2 
" style="fill: none; stroke: #000000; stroke-width: 0.8; stroke-linejoin: miter; stroke-linecap: square"/>
   </g>
   <g id="patch_5">
    <path d="M 43.78125 273.312 
L 400.90125 273.312 
" style="fill: none; stroke: #000000; stroke-width: 0.8; stroke-linejoin: miter; stroke-linecap: square"/>
   </g>
   <g id="patch_6">
    <path d="M 43.78125 7.2 
L 400.90125 7.2 
" style="fill: none; stroke: #000000; stroke-width: 0.8; stroke-linejoin: miter; stroke-linecap: square"/>
   </g>
   <g id="legend_1">
    <g id="patch_7">
     <path d="M 48.63925 134.991425 
L 102.159662 134.991425 
Q 103.547663 134.991425 103.547663 133.603425 
L 103.547663 12.058 
Q 103.547663 10.67 102.159662 10.67 
L 48.63925 10.67 
Q 47.25125 10.67 47.25125 12.058 
L 47.25125 133.603425 
Q 47.25125 134.991425 48.63925 134.991425 
z
" style="fill: #ffffff; opacity: 0.8; stroke: #cccccc; stroke-linejoin: miter"/>
    </g>
    <g id="text_17">
     <!-- metric -->
     <g transform="translate(69.45925 18.719316)scale(0.0694 -0.0694)">
      <defs>
       <path id="DejaVuSans-6d" d="M 3328 2828 
Q 3544 3216 3844 3400 
Q 4144 3584 4550 3584 
Q 5097 3584 5394 3201 
Q 5691 2819 5691 2113 
L 5691 0 
L 5113 0 
L 5113 2094 
Q 5113 2597 4934 2840 
Q 4756 3084 4391 3084 
Q 3944 3084 3684 2787 
Q 3425 2491 3425 1978 
L 3425 0 
L 2847 0 
L 2847 2094 
Q 2847 2600 2669 2842 
Q 2491 3084 2119 3084 
Q 1678 3084 1418 2786 
Q 1159 2488 1159 1978 
L 1159 0 
L 581 0 
L 581 3500 
L 1159 3500 
L 1159 2956 
Q 1356 3278 1631 3431 
Q 1906 3584 2284 3584 
Q 2666 3584 2933 3390 
Q 3200 3197 3328 2828 
z
" transform="scale(0.015625)"/>
       <path id="DejaVuSans-74" d="M 1172 4494 
L 1172 3500 
L 2356 3500 
L 2356 3053 
L 1172 3053 
L 1172 1153 
Q 1172 725 1289 603 
Q 1406 481 1766 481 
L 2356 481 
L 2356 0 
L 1766 0 
Q 1100 0 847 248 
Q 594 497 594 1153 
L 594 3053 
L 172 3053 
L 172 3500 
L 594 3500 
L 594 4494 
L 1172 4494 
z
" transform="scale(0.015625)"/>
       <path id="DejaVuSans-69" d="M 603 3500 
L 1178 3500 
L 1178 0 
L 603 0 
L 603 3500 
z
M 603 4863 
L 1178 4863 
L 1178 4134 
L 603 4134 
L 603 4863 
z
" transform="scale(0.015625)"/>
      </defs>
      <use xlink:href="#DejaVuSans-6d"/>
      <use xlink:href="#DejaVuSans-65" x="97.412109"/>
      <use xlink:href="#DejaVuSans-74" x="158.935547"/>
      <use xlink:href="#DejaVuSans-72" x="198.144531"/>
      <use xlink:href="#DejaVuSans-69" x="239.257812"/>
      <use xlink:href="#DejaVuSans-63" x="267.041016"/>
     </g>
    </g>
    <g id="PathCollection_12">
     <defs>
      <path id="m445fa5a693" d="M 0 3 
C 0.795609 3 1.55874 2.683901 2.12132 2.12132 
C 2.683901 1.55874 3 0.795609 3 0 
C 3 -0.795609 2.683901 -1.55874 2.12132 -2.12132 
C 1.55874 -2.683901 0.795609 -3 0 -3 
C -0.795609 -3 -1.55874 -2.683901 -2.12132 -2.12132 
C -2.683901 -1.55874 -3 -0.795609 -3 0 
C -3 0.795609 -2.683901 1.55874 -2.12132 2.12132 
C -1.55874 2.683901 -0.795609 3 0 3 
z
" style="stroke: #1f77b4"/>
     </defs>
     <g>
      <use xlink:href="#m445fa5a693" x="56.96725" y="27.084184" style="fill: #1f77b4; stroke: #1f77b4"/>
     </g>
    </g>
    <g id="text_18">
     <!-- precision -->
     <g transform="translate(69.45925 28.905934)scale(0.0694 -0.0694)">
      <defs>
       <path id="DejaVuSans-70" d="M 1159 525 
L 1159 -1331 
L 581 -1331 
L 581 3500 
L 1159 3500 
L 1159 2969 
Q 1341 3281 1617 3432 
Q 1894 3584 2278 3584 
Q 2916 3584 3314 3078 
Q 3713 2572 3713 1747 
Q 3713 922 3314 415 
Q 2916 -91 2278 -91 
Q 1894 -91 1617 61 
Q 1341 213 1159 525 
z
M 3116 1747 
Q 3116 2381 2855 2742 
Q 2594 3103 2138 3103 
Q 1681 3103 1420 2742 
Q 1159 2381 1159 1747 
Q 1159 1113 1420 752 
Q 1681 391 2138 391 
Q 2594 391 2855 752 
Q 3116 1113 3116 1747 
z
" transform="scale(0.015625)"/>
      </defs>
      <use xlink:href="#DejaVuSans-70"/>
      <use xlink:href="#DejaVuSans-72" x="63.476562"/>
      <use xlink:href="#DejaVuSans-65" x="102.339844"/>
      <use xlink:href="#DejaVuSans-63" x="163.863281"/>
      <use xlink:href="#DejaVuSans-69" x="218.84375"/>
      <use xlink:href="#DejaVuSans-73" x="246.626953"/>
      <use xlink:href="#DejaVuSans-69" x="298.726562"/>
      <use xlink:href="#DejaVuSans-6f" x="326.509766"/>
      <use xlink:href="#DejaVuSans-6e" x="387.691406"/>
     </g>
    </g>
    <g id="PathCollection_13">
     <defs>
      <path id="m079230208c" d="M 0 3 
C 0.795609 3 1.55874 2.683901 2.12132 2.12132 
C 2.683901 1.55874 3 0.795609 3 0 
C 3 -0.795609 2.683901 -1.55874 2.12132 -2.12132 
C 1.55874 -2.683901 0.795609 -3 0 -3 
C -0.795609 -3 -1.55874 -2.683901 -2.12132 -2.12132 
C -2.683901 -1.55874 -3 -0.795609 -3 0 
C -3 0.795609 -2.683901 1.55874 -2.12132 2.12132 
C -1.55874 2.683901 -0.795609 3 0 3 
z
" style="stroke: #ff7f0e"/>
     </defs>
     <g>
      <use xlink:href="#m079230208c" x="56.96725" y="37.270803" style="fill: #ff7f0e; stroke: #ff7f0e"/>
     </g>
    </g>
    <g id="text_19">
     <!-- recall -->
     <g transform="translate(69.45925 39.092553)scale(0.0694 -0.0694)">
      <defs>
       <path id="DejaVuSans-61" d="M 2194 1759 
Q 1497 1759 1228 1600 
Q 959 1441 959 1056 
Q 959 750 1161 570 
Q 1363 391 1709 391 
Q 2188 391 2477 730 
Q 2766 1069 2766 1631 
L 2766 1759 
L 2194 1759 
z
M 3341 1997 
L 3341 0 
L 2766 0 
L 2766 531 
Q 2569 213 2275 61 
Q 1981 -91 1556 -91 
Q 1019 -91 701 211 
Q 384 513 384 1019 
Q 384 1609 779 1909 
Q 1175 2209 1959 2209 
L 2766 2209 
L 2766 2266 
Q 2766 2663 2505 2880 
Q 2244 3097 1772 3097 
Q 1472 3097 1187 3025 
Q 903 2953 641 2809 
L 641 3341 
Q 956 3463 1253 3523 
Q 1550 3584 1831 3584 
Q 2591 3584 2966 3190 
Q 3341 2797 3341 1997 
z
" transform="scale(0.015625)"/>
       <path id="DejaVuSans-6c" d="M 603 4863 
L 1178 4863 
L 1178 0 
L 603 0 
L 603 4863 
z
" transform="scale(0.015625)"/>
      </defs>
      <use xlink:href="#DejaVuSans-72"/>
      <use xlink:href="#DejaVuSans-65" x="38.863281"/>
      <use xlink:href="#DejaVuSans-63" x="100.386719"/>
      <use xlink:href="#DejaVuSans-61" x="155.367188"/>
      <use xlink:href="#DejaVuSans-6c" x="216.646484"/>
      <use xlink:href="#DejaVuSans-6c" x="244.429688"/>
     </g>
    </g>
    <g id="PathCollection_14">
     <defs>
      <path id="mb57d672e31" d="M 0 3 
C 0.795609 3 1.55874 2.683901 2.12132 2.12132 
C 2.683901 1.55874 3 0.795609 3 0 
C 3 -0.795609 2.683901 -1.55874 2.12132 -2.12132 
C 1.55874 -2.683901 0.795609 -3 0 -3 
C -0.795609 -3 -1.55874 -2.683901 -2.12132 -2.12132 
C -2.683901 -1.55874 -3 -0.795609 -3 0 
C -3 0.795609 -2.683901 1.55874 -2.12132 2.12132 
C -1.55874 2.683901 -0.795609 3 0 3 
z
" style="stroke: #2ca02c"/>
     </defs>
     <g>
      <use xlink:href="#mb57d672e31" x="56.96725" y="47.457422" style="fill: #2ca02c; stroke: #2ca02c"/>
     </g>
    </g>
    <g id="text_20">
     <!-- accuracy -->
     <g transform="translate(69.45925 49.279172)scale(0.0694 -0.0694)">
      <defs>
       <path id="DejaVuSans-75" d="M 544 1381 
L 544 3500 
L 1119 3500 
L 1119 1403 
Q 1119 906 1312 657 
Q 1506 409 1894 409 
Q 2359 409 2629 706 
Q 2900 1003 2900 1516 
L 2900 3500 
L 3475 3500 
L 3475 0 
L 2900 0 
L 2900 538 
Q 2691 219 2414 64 
Q 2138 -91 1772 -91 
Q 1169 -91 856 284 
Q 544 659 544 1381 
z
M 1991 3584 
L 1991 3584 
z
" transform="scale(0.015625)"/>
       <path id="DejaVuSans-79" d="M 2059 -325 
Q 1816 -950 1584 -1140 
Q 1353 -1331 966 -1331 
L 506 -1331 
L 506 -850 
L 844 -850 
Q 1081 -850 1212 -737 
Q 1344 -625 1503 -206 
L 1606 56 
L 191 3500 
L 800 3500 
L 1894 763 
L 2988 3500 
L 3597 3500 
L 2059 -325 
z
" transform="scale(0.015625)"/>
      </defs>
      <use xlink:href="#DejaVuSans-61"/>
      <use xlink:href="#DejaVuSans-63" x="61.279297"/>
      <use xlink:href="#DejaVuSans-63" x="116.259766"/>
      <use xlink:href="#DejaVuSans-75" x="171.240234"/>
      <use xlink:href="#DejaVuSans-72" x="234.619141"/>
      <use xlink:href="#DejaVuSans-61" x="275.732422"/>
      <use xlink:href="#DejaVuSans-63" x="337.011719"/>
      <use xlink:href="#DejaVuSans-79" x="391.992188"/>
     </g>
    </g>
    <g id="PathCollection_15">
     <defs>
      <path id="m6c44d979e8" d="M 0 3 
C 0.795609 3 1.55874 2.683901 2.12132 2.12132 
C 2.683901 1.55874 3 0.795609 3 0 
C 3 -0.795609 2.683901 -1.55874 2.12132 -2.12132 
C 1.55874 -2.683901 0.795609 -3 0 -3 
C -0.795609 -3 -1.55874 -2.683901 -2.12132 -2.12132 
C -2.683901 -1.55874 -3 -0.795609 -3 0 
C -3 0.795609 -2.683901 1.55874 -2.12132 2.12132 
C -1.55874 2.683901 -0.795609 3 0 3 
z
" style="stroke: #d62728"/>
     </defs>
     <g>
      <use xlink:href="#m6c44d979e8" x="56.96725" y="57.644041" style="fill: #d62728; stroke: #d62728"/>
     </g>
    </g>
    <g id="text_21">
     <!-- f1 -->
     <g transform="translate(69.45925 59.465791)scale(0.0694 -0.0694)">
      <defs>
       <path id="DejaVuSans-66" d="M 2375 4863 
L 2375 4384 
L 1825 4384 
Q 1516 4384 1395 4259 
Q 1275 4134 1275 3809 
L 1275 3500 
L 2222 3500 
L 2222 3053 
L 1275 3053 
L 1275 0 
L 697 0 
L 697 3053 
L 147 3053 
L 147 3500 
L 697 3500 
L 697 3744 
Q 697 4328 969 4595 
Q 1241 4863 1831 4863 
L 2375 4863 
z
" transform="scale(0.015625)"/>
      </defs>
      <use xlink:href="#DejaVuSans-66"/>
      <use xlink:href="#DejaVuSans-31" x="35.205078"/>
     </g>
    </g>
    <g id="text_22">
     <!-- ncols -->
     <g transform="translate(69.45925 69.652409)scale(0.0694 -0.0694)">
      <use xlink:href="#DejaVuSans-6e"/>
      <use xlink:href="#DejaVuSans-63" x="63.378906"/>
      <use xlink:href="#DejaVuSans-6f" x="118.359375"/>
      <use xlink:href="#DejaVuSans-6c" x="179.541016"/>
      <use xlink:href="#DejaVuSans-73" x="207.324219"/>
     </g>
    </g>
    <g id="PathCollection_16">
     <defs>
      <path id="m9671e3c316" d="M 0 3.307189 
C 0.877077 3.307189 1.718349 2.958723 2.338536 2.338536 
C 2.958723 1.718349 3.307189 0.877077 3.307189 0 
C 3.307189 -0.877077 2.958723 -1.718349 2.338536 -2.338536 
C 1.718349 -2.958723 0.877077 -3.307189 0 -3.307189 
C -0.877077 -3.307189 -1.718349 -2.958723 -2.338536 -2.338536 
C -2.958723 -1.718349 -3.307189 -0.877077 -3.307189 0 
C -3.307189 0.877077 -2.958723 1.718349 -2.338536 2.338536 
C -1.718349 2.958723 -0.877077 3.307189 0 3.307189 
z
" style="stroke: #333333"/>
     </defs>
     <g>
      <use xlink:href="#m9671e3c316" x="56.96725" y="78.017278" style="fill: #333333; stroke: #333333"/>
     </g>
    </g>
    <g id="text_23">
     <!-- 8 -->
     <g transform="translate(69.45925 79.839028)scale(0.0694 -0.0694)">
      <use xlink:href="#DejaVuSans-38"/>
     </g>
    </g>
    <g id="PathCollection_17">
     <defs>
      <path id="md21673eb96" d="M 0 3.66572 
C 0.97216 3.66572 1.904634 3.279476 2.592055 2.592055 
C 3.279476 1.904634 3.66572 0.97216 3.66572 0 
C 3.66572 -0.97216 3.279476 -1.904634 2.592055 -2.592055 
C 1.904634 -3.279476 0.97216 -3.66572 0 -3.66572 
C -0.97216 -3.66572 -1.904634 -3.279476 -2.592055 -2.592055 
C -3.279476 -1.904634 -3.66572 -0.97216 -3.66572 0 
C -3.66572 0.97216 -3.279476 1.904634 -2.592055 2.592055 
C -1.904634 3.279476 -0.97216 3.66572 0 3.66572 
z
" style="stroke: #333333"/>
     </defs>
     <g>
      <use xlink:href="#md21673eb96" x="56.96725" y="88.203897" style="fill: #333333; stroke: #333333"/>
     </g>
    </g>
    <g id="text_24">
     <!-- 16 -->
     <g transform="translate(69.45925 90.025647)scale(0.0694 -0.0694)">
      <use xlink:href="#DejaVuSans-31"/>
      <use xlink:href="#DejaVuSans-36" x="63.623047"/>
     </g>
    </g>
    <g id="PathCollection_18">
     <defs>
      <path id="me6d3e275a8" d="M 0 3.99218 
C 1.058738 3.99218 2.074256 3.571539 2.822897 2.822897 
C 3.571539 2.074256 3.99218 1.058738 3.99218 0 
C 3.99218 -1.058738 3.571539 -2.074256 2.822897 -2.822897 
C 2.074256 -3.571539 1.058738 -3.99218 0 -3.99218 
C -1.058738 -3.99218 -2.074256 -3.571539 -2.822897 -2.822897 
C -3.571539 -2.074256 -3.99218 -1.058738 -3.99218 0 
C -3.99218 1.058738 -3.571539 2.074256 -2.822897 2.822897 
C -2.074256 3.571539 -1.058738 3.99218 0 3.99218 
z
" style="stroke: #333333"/>
     </defs>
     <g>
      <use xlink:href="#me6d3e275a8" x="56.96725" y="98.390516" style="fill: #333333; stroke: #333333"/>
     </g>
    </g>
    <g id="text_25">
     <!-- 24 -->
     <g transform="translate(69.45925 100.212266)scale(0.0694 -0.0694)">
      <use xlink:href="#DejaVuSans-32"/>
      <use xlink:href="#DejaVuSans-34" x="63.623047"/>
     </g>
    </g>
    <g id="PathCollection_19">
     <defs>
      <path id="m35a9ef3275" d="M 0 4.293891 
C 1.138753 4.293891 2.231019 3.84146 3.036239 3.036239 
C 3.84146 2.231019 4.293891 1.138753 4.293891 0 
C 4.293891 -1.138753 3.84146 -2.231019 3.036239 -3.036239 
C 2.231019 -3.84146 1.138753 -4.293891 0 -4.293891 
C -1.138753 -4.293891 -2.231019 -3.84146 -3.036239 -3.036239 
C -3.84146 -2.231019 -4.293891 -1.138753 -4.293891 0 
C -4.293891 1.138753 -3.84146 2.231019 -3.036239 3.036239 
C -2.231019 3.84146 -1.138753 4.293891 0 4.293891 
z
" style="stroke: #333333"/>
     </defs>
     <g>
      <use xlink:href="#m35a9ef3275" x="56.96725" y="108.577134" style="fill: #333333; stroke: #333333"/>
     </g>
    </g>
    <g id="text_26">
     <!-- 32 -->
     <g transform="translate(69.45925 110.398884)scale(0.0694 -0.0694)">
      <use xlink:href="#DejaVuSans-33"/>
      <use xlink:href="#DejaVuSans-32" x="63.623047"/>
     </g>
    </g>
    <g id="PathCollection_20">
     <defs>
      <path id="mdae6c81fb6" d="M 0 4.575751 
C 1.213503 4.575751 2.377468 4.093621 3.235545 3.235545 
C 4.093621 2.377468 4.575751 1.213503 4.575751 0 
C 4.575751 -1.213503 4.093621 -2.377468 3.235545 -3.235545 
C 2.377468 -4.093621 1.213503 -4.575751 0 -4.575751 
C -1.213503 -4.575751 -2.377468 -4.093621 -3.235545 -3.235545 
C -4.093621 -2.377468 -4.575751 -1.213503 -4.575751 0 
C -4.575751 1.213503 -4.093621 2.377468 -3.235545 3.235545 
C -2.377468 4.093621 -1.213503 4.575751 0 4.575751 
z
" style="stroke: #333333"/>
     </defs>
     <g>
      <use xlink:href="#mdae6c81fb6" x="56.96725" y="118.763753" style="fill: #333333; stroke: #333333"/>
     </g>
    </g>
    <g id="text_27">
     <!-- 40 -->
     <g transform="translate(69.45925 120.585503)scale(0.0694 -0.0694)">
      <use xlink:href="#DejaVuSans-34"/>
      <use xlink:href="#DejaVuSans-30" x="63.623047"/>
     </g>
    </g>
    <g id="PathCollection_21">
     <defs>
      <path id="m3ca93be2a7" d="M 0 4.841229 
C 1.283909 4.841229 2.515405 4.331127 3.423266 3.423266 
C 4.331127 2.515405 4.841229 1.283909 4.841229 0 
C 4.841229 -1.283909 4.331127 -2.515405 3.423266 -3.423266 
C 2.515405 -4.331127 1.283909 -4.841229 0 -4.841229 
C -1.283909 -4.841229 -2.515405 -4.331127 -3.423266 -3.423266 
C -4.331127 -2.515405 -4.841229 -1.283909 -4.841229 0 
C -4.841229 1.283909 -4.331127 2.515405 -3.423266 3.423266 
C -2.515405 4.331127 -1.283909 4.841229 0 4.841229 
z
" style="stroke: #333333"/>
     </defs>
     <g>
      <use xlink:href="#m3ca93be2a7" x="56.96725" y="128.950372" style="fill: #333333; stroke: #333333"/>
     </g>
    </g>
    <g id="text_28">
     <!-- 48 -->
     <g transform="translate(69.45925 130.772122)scale(0.0694 -0.0694)">
      <use xlink:href="#DejaVuSans-34"/>
      <use xlink:href="#DejaVuSans-38" x="63.623047"/>
     </g>
    </g>
   </g>
  </g>
 </g>
 <defs>
  <clipPath id="p00aad37b6e">
   <rect x="43.78125" y="7.2" width="357.12" height="266.112"/>
  </clipPath>
 </defs>
</svg>
