<?xml version="1.0" encoding="utf-8" standalone="no"?>
<!DOCTYPE svg PUBLIC "-//W3C//DTD SVG 1.1//EN"
  "http://www.w3.org/Graphics/SVG/1.1/DTD/svg11.dtd">
<svg xmlns:xlink="http://www.w3.org/1999/xlink" width="408.10125pt" height="310.86825pt" viewBox="0 0 408.10125 310.86825" xmlns="http://www.w3.org/2000/svg" version="1.1">
 <metadata>
  <rdf:RDF xmlns:dc="http://purl.org/dc/elements/1.1/" xmlns:cc="http://creativecommons.org/ns#" xmlns:rdf="http://www.w3.org/1999/02/22-rdf-syntax-ns#">
   <cc:Work>
    <dc:type rdf:resource="http://purl.org/dc/dcmitype/StillImage"/>
    <dc:date>2022-03-24T13:37:00.666637</dc:date>
    <dc:format>image/svg+xml</dc:format>
    <dc:creator>
     <cc:Agent>
      <dc:title>Matplotlib v3.5.1, https://matplotlib.org/</dc:title>
     </cc:Agent>
    </dc:creator>
   </cc:Work>
  </rdf:RDF>
 </metadata>
 <defs>
  <style type="text/css">*{stroke-linejoin: round; stroke-linecap: butt}</style>
 </defs>
 <g id="figure_1">
  <g id="patch_1">
   <path d="M 0 310.86825 
L 408.10125 310.86825 
L 408.10125 0 
L 0 0 
z
" style="fill: #ffffff"/>
  </g>
  <g id="axes_1">
   <g id="patch_2">
    <path d="M 43.78125 273.312 
L 400.90125 273.312 
L 400.90125 7.2 
L 43.78125 7.2 
z
" style="fill: #ffffff"/>
   </g>
   <g id="PathCollection_1">
    <path d="M 384.668523 177.465577 
C 385.787809 177.465577 386.861402 177.02088 387.652857 176.229425 
C 388.444311 175.43797 388.889008 174.364377 388.889008 173.245091 
C 388.889008 172.125805 388.444311 171.052211 387.652857 170.260757 
C 386.861402 169.469302 385.787809 169.024605 384.668523 169.024605 
C 383.549237 169.024605 382.475643 169.469302 381.684189 170.260757 
C 380.892734 171.052211 380.448037 172.125805 380.448037 173.245091 
C 380.448037 174.364377 380.892734 175.43797 381.684189 176.229425 
C 382.475643 177.02088 383.549237 177.465577 384.668523 177.465577 
z
" clip-path="url(#p3f5c5dd2ee)" style="fill: #2ca02c; stroke: #ffffff; stroke-width: 0.525357"/>
    <path d="M 384.668523 172.156987 
C 385.787809 172.156987 386.861402 171.71229 387.652857 170.920836 
C 388.444311 170.129381 388.889008 169.055787 388.889008 167.936502 
C 388.889008 166.817216 388.444311 165.743622 387.652857 164.952167 
C 386.861402 164.160713 385.787809 163.716016 384.668523 163.716016 
C 383.549237 163.716016 382.475643 164.160713 381.684189 164.952167 
C 380.892734 165.743622 380.448037 166.817216 380.448037 167.936502 
C 380.448037 169.055787 380.892734 170.129381 381.684189 170.920836 
C 382.475643 171.71229 383.549237 172.156987 384.668523 172.156987 
z
" clip-path="url(#p3f5c5dd2ee)" style="fill: #1f77b4; stroke: #ffffff; stroke-width: 0.525357"/>
    <path d="M 384.668523 23.516486 
C 385.787809 23.516486 386.861402 23.071789 387.652857 22.280334 
C 388.444311 21.488879 388.889008 20.415286 388.889008 19.296 
C 388.889008 18.176714 388.444311 17.103121 387.652857 16.311666 
C 386.861402 15.520211 385.787809 15.075514 384.668523 15.075514 
C 383.549237 15.075514 382.475643 15.520211 381.684189 16.311666 
C 380.892734 17.103121 380.448037 18.176714 380.448037 19.296 
C 380.448037 20.415286 380.892734 21.488879 381.684189 22.280334 
C 382.475643 23.071789 383.549237 23.516486 384.668523 23.516486 
z
" clip-path="url(#p3f5c5dd2ee)" style="fill: #ff7f0e; stroke: #ffffff; stroke-width: 0.525357"/>
    <path d="M 384.668523 121.484089 
C 385.787809 121.484089 386.861402 121.039392 387.652857 120.247937 
C 388.444311 119.456483 388.889008 118.382889 388.889008 117.263603 
C 388.889008 116.144317 388.444311 115.070724 387.652857 114.279269 
C 386.861402 113.487815 385.787809 113.043118 384.668523 113.043118 
C 383.549237 113.043118 382.475643 113.487815 381.684189 114.279269 
C 380.892734 115.070724 380.448037 116.144317 380.448037 117.263603 
C 380.448037 118.382889 380.892734 119.456483 381.684189 120.247937 
C 382.475643 121.039392 383.549237 121.484089 384.668523 121.484089 
z
" clip-path="url(#p3f5c5dd2ee)" style="fill: #d62728; stroke: #ffffff; stroke-width: 0.525357"/>
    <path d="M 344.086705 176.585262 
C 345.41272 176.585262 346.684604 176.058431 347.622238 175.120796 
C 348.559873 174.183162 349.086705 172.911278 349.086705 171.585262 
C 349.086705 170.259247 348.559873 168.987363 347.622238 168.049729 
C 346.684604 167.112094 345.41272 166.585262 344.086705 166.585262 
C 342.760689 166.585262 341.488805 167.112094 340.551171 168.049729 
C 339.613536 168.987363 339.086705 170.259247 339.086705 171.585262 
C 339.086705 172.911278 339.613536 174.183162 340.551171 175.120796 
C 341.488805 176.058431 342.760689 176.585262 344.086705 176.585262 
z
" clip-path="url(#p3f5c5dd2ee)" style="fill: #2ca02c; stroke: #ffffff; stroke-width: 0.525357"/>
    <path d="M 344.086705 156.720294 
C 345.41272 156.720294 346.684604 156.193462 347.622238 155.255828 
C 348.559873 154.318193 349.086705 153.04631 349.086705 151.720294 
C 349.086705 150.394279 348.559873 149.122395 347.622238 148.18476 
C 346.684604 147.247126 345.41272 146.720294 344.086705 146.720294 
C 342.760689 146.720294 341.488805 147.247126 340.551171 148.18476 
C 339.613536 149.122395 339.086705 150.394279 339.086705 151.720294 
C 339.086705 153.04631 339.613536 154.318193 340.551171 155.255828 
C 341.488805 156.193462 342.760689 156.720294 344.086705 156.720294 
z
" clip-path="url(#p3f5c5dd2ee)" style="fill: #1f77b4; stroke: #ffffff; stroke-width: 0.525357"/>
    <path d="M 344.086705 66.153126 
C 345.41272 66.153126 346.684604 65.626295 347.622238 64.68866 
C 348.559873 63.751025 349.086705 62.479142 349.086705 61.153126 
C 349.086705 59.827111 348.559873 58.555227 347.622238 57.617592 
C 346.684604 56.679958 345.41272 56.153126 344.086705 56.153126 
C 342.760689 56.153126 341.488805 56.679958 340.551171 57.617592 
C 339.613536 58.555227 339.086705 59.827111 339.086705 61.153126 
C 339.086705 62.479142 339.613536 63.751025 340.551171 64.68866 
C 341.488805 65.626295 342.760689 66.153126 344.086705 66.153126 
z
" clip-path="url(#p3f5c5dd2ee)" style="fill: #ff7f0e; stroke: #ffffff; stroke-width: 0.525357"/>
    <path d="M 344.086705 120.72565 
C 345.41272 120.72565 346.684604 120.198819 347.622238 119.261184 
C 348.559873 118.32355 349.086705 117.051666 349.086705 115.72565 
C 349.086705 114.399635 348.559873 113.127751 347.622238 112.190116 
C 346.684604 111.252482 345.41272 110.72565 344.086705 110.72565 
C 342.760689 110.72565 341.488805 111.252482 340.551171 112.190116 
C 339.613536 113.127751 339.086705 114.399635 339.086705 115.72565 
C 339.086705 117.051666 339.613536 118.32355 340.551171 119.261184 
C 341.488805 120.198819 342.760689 120.72565 344.086705 120.72565 
z
" clip-path="url(#p3f5c5dd2ee)" style="fill: #d62728; stroke: #ffffff; stroke-width: 0.525357"/>
    <path d="M 60.013977 264.378278 
C 60.852623 264.378278 61.657033 264.04508 62.250045 263.452068 
C 62.843057 262.859056 63.176255 262.054646 63.176255 261.216 
C 63.176255 260.377354 62.843057 259.572944 62.250045 258.979932 
C 61.657033 258.38692 60.852623 258.053722 60.013977 258.053722 
C 59.175331 258.053722 58.370921 258.38692 57.777909 258.979932 
C 57.184897 259.572944 56.8517 260.377354 56.8517 261.216 
C 56.8517 262.054646 57.184897 262.859056 57.777909 263.452068 
C 58.370921 264.04508 59.175331 264.378278 60.013977 264.378278 
z
" clip-path="url(#p3f5c5dd2ee)" style="fill: #2ca02c; stroke: #ffffff; stroke-width: 0.525357"/>
    <path d="M 60.013977 220.392823 
C 60.852623 220.392823 61.657033 220.059626 62.250045 219.466613 
C 62.843057 218.873601 63.176255 218.069191 63.176255 217.230545 
C 63.176255 216.3919 62.843057 215.58749 62.250045 214.994477 
C 61.657033 214.401465 60.852623 214.068268 60.013977 214.068268 
C 59.175331 214.068268 58.370921 214.401465 57.777909 214.994477 
C 57.184897 215.58749 56.8517 216.3919 56.8517 217.230545 
C 56.8517 218.069191 57.184897 218.873601 57.777909 219.466613 
C 58.370921 220.059626 59.175331 220.392823 60.013977 220.392823 
z
" clip-path="url(#p3f5c5dd2ee)" style="fill: #1f77b4; stroke: #ffffff; stroke-width: 0.525357"/>
    <path d="M 60.013977 220.392823 
C 60.852623 220.392823 61.657033 220.059626 62.250045 219.466613 
C 62.843057 218.873601 63.176255 218.069191 63.176255 217.230545 
C 63.176255 216.3919 62.843057 215.58749 62.250045 214.994477 
C 61.657033 214.401465 60.852623 214.068268 60.013977 214.068268 
C 59.175331 214.068268 58.370921 214.401465 57.777909 214.994477 
C 57.184897 215.58749 56.8517 216.3919 56.8517 217.230545 
C 56.8517 218.069191 57.184897 218.873601 57.777909 219.466613 
C 58.370921 220.059626 59.175331 220.392823 60.013977 220.392823 
z
" clip-path="url(#p3f5c5dd2ee)" style="fill: #ff7f0e; stroke: #ffffff; stroke-width: 0.525357"/>
    <path d="M 60.013977 220.392823 
C 60.852623 220.392823 61.657033 220.059626 62.250045 219.466613 
C 62.843057 218.873601 63.176255 218.069191 63.176255 217.230545 
C 63.176255 216.3919 62.843057 215.58749 62.250045 214.994477 
C 61.657033 214.401465 60.852623 214.068268 60.013977 214.068268 
C 59.175331 214.068268 58.370921 214.401465 57.777909 214.994477 
C 57.184897 215.58749 56.8517 216.3919 56.8517 217.230545 
C 56.8517 218.069191 57.184897 218.873601 57.777909 219.466613 
C 58.370921 220.059626 59.175331 220.392823 60.013977 220.392823 
z
" clip-path="url(#p3f5c5dd2ee)" style="fill: #d62728; stroke: #ffffff; stroke-width: 0.525357"/>
    <path d="M 100.595795 231.627277 
C 101.497583 231.627277 102.362558 231.268993 103.000218 230.631332 
C 103.637879 229.993672 103.996163 229.128697 103.996163 228.226909 
C 103.996163 227.325121 103.637879 226.460147 103.000218 225.822486 
C 102.362558 225.184826 101.497583 224.826541 100.595795 224.826541 
C 99.694007 224.826541 98.829033 225.184826 98.191372 225.822486 
C 97.553712 226.460147 97.195428 227.325121 97.195428 228.226909 
C 97.195428 229.128697 97.553712 229.993672 98.191372 230.631332 
C 98.829033 231.268993 99.694007 231.627277 100.595795 231.627277 
z
" clip-path="url(#p3f5c5dd2ee)" style="fill: #2ca02c; stroke: #ffffff; stroke-width: 0.525357"/>
    <path d="M 100.595795 165.649095 
C 101.497583 165.649095 102.362558 165.290811 103.000218 164.65315 
C 103.637879 164.01549 103.996163 163.150515 103.996163 162.248727 
C 103.996163 161.346939 103.637879 160.481965 103.000218 159.844304 
C 102.362558 159.206644 101.497583 158.84836 100.595795 158.84836 
C 99.694007 158.84836 98.829033 159.206644 98.191372 159.844304 
C 97.553712 160.481965 97.195428 161.346939 97.195428 162.248727 
C 97.195428 163.150515 97.553712 164.01549 98.191372 164.65315 
C 98.829033 165.290811 99.694007 165.649095 100.595795 165.649095 
z
" clip-path="url(#p3f5c5dd2ee)" style="fill: #1f77b4; stroke: #ffffff; stroke-width: 0.525357"/>
    <path d="M 100.595795 189.212731 
C 101.497583 189.212731 102.362558 188.854447 103.000218 188.216787 
C 103.637879 187.579126 103.996163 186.714152 103.996163 185.812364 
C 103.996163 184.910576 103.637879 184.045601 103.000218 183.407941 
C 102.362558 182.77028 101.497583 182.411996 100.595795 182.411996 
C 99.694007 182.411996 98.829033 182.77028 98.191372 183.407941 
C 97.553712 184.045601 97.195428 184.910576 97.195428 185.812364 
C 97.195428 186.714152 97.553712 187.579126 98.191372 188.216787 
C 98.829033 188.854447 99.694007 189.212731 100.595795 189.212731 
z
" clip-path="url(#p3f5c5dd2ee)" style="fill: #ff7f0e; stroke: #ffffff; stroke-width: 0.525357"/>
    <path d="M 100.595795 178.337207 
C 101.497583 178.337207 102.362558 177.978923 103.000218 177.341262 
C 103.637879 176.703602 103.996163 175.838627 103.996163 174.936839 
C 103.996163 174.035051 103.637879 173.170077 103.000218 172.532416 
C 102.362558 171.894756 101.497583 171.536472 100.595795 171.536472 
C 99.694007 171.536472 98.829033 171.894756 98.191372 172.532416 
C 97.553712 173.170077 97.195428 174.035051 97.195428 174.936839 
C 97.195428 175.838627 97.553712 176.703602 98.191372 177.341262 
C 98.829033 177.978923 99.694007 178.337207 100.595795 178.337207 
z
" clip-path="url(#p3f5c5dd2ee)" style="fill: #d62728; stroke: #ffffff; stroke-width: 0.525357"/>
    <path d="M 141.177614 203.848597 
C 142.115248 203.848597 143.014606 203.476071 143.677614 202.813063 
C 144.340621 202.150055 144.713148 201.250697 144.713148 200.313063 
C 144.713148 199.375428 144.340621 198.476071 143.677614 197.813063 
C 143.014606 197.150055 142.115248 196.777529 141.177614 196.777529 
C 140.239979 196.777529 139.340621 197.150055 138.677614 197.813063 
C 138.014606 198.476071 137.64208 199.375428 137.64208 200.313063 
C 137.64208 201.250697 138.014606 202.150055 138.677614 202.813063 
C 139.340621 203.476071 140.239979 203.848597 141.177614 203.848597 
z
" clip-path="url(#p3f5c5dd2ee)" style="fill: #2ca02c; stroke: #ffffff; stroke-width: 0.525357"/>
    <path d="M 141.177614 147.456988 
C 142.115248 147.456988 143.014606 147.084462 143.677614 146.421455 
C 144.340621 145.758447 144.713148 144.859089 144.713148 143.921455 
C 144.713148 142.98382 144.340621 142.084462 143.677614 141.421455 
C 143.014606 140.758447 142.115248 140.385921 141.177614 140.385921 
C 140.239979 140.385921 139.340621 140.758447 138.677614 141.421455 
C 138.014606 142.084462 137.64208 142.98382 137.64208 143.921455 
C 137.64208 144.859089 138.014606 145.758447 138.677614 146.421455 
C 139.340621 147.084462 140.239979 147.456988 141.177614 147.456988 
z
" clip-path="url(#p3f5c5dd2ee)" style="fill: #1f77b4; stroke: #ffffff; stroke-width: 0.525357"/>
    <path d="M 141.177614 147.456988 
C 142.115248 147.456988 143.014606 147.084462 143.677614 146.421455 
C 144.340621 145.758447 144.713148 144.859089 144.713148 143.921455 
C 144.713148 142.98382 144.340621 142.084462 143.677614 141.421455 
C 143.014606 140.758447 142.115248 140.385921 141.177614 140.385921 
C 140.239979 140.385921 139.340621 140.758447 138.677614 141.421455 
C 138.014606 142.084462 137.64208 142.98382 137.64208 143.921455 
C 137.64208 144.859089 138.014606 145.758447 138.677614 146.421455 
C 139.340621 147.084462 140.239979 147.456988 141.177614 147.456988 
z
" clip-path="url(#p3f5c5dd2ee)" style="fill: #ff7f0e; stroke: #ffffff; stroke-width: 0.525357"/>
    <path d="M 141.177614 147.456988 
C 142.115248 147.456988 143.014606 147.084462 143.677614 146.421455 
C 144.340621 145.758447 144.713148 144.859089 144.713148 143.921455 
C 144.713148 142.98382 144.340621 142.084462 143.677614 141.421455 
C 143.014606 140.758447 142.115248 140.385921 141.177614 140.385921 
C 140.239979 140.385921 139.340621 140.758447 138.677614 141.421455 
C 138.014606 142.084462 137.64208 142.98382 137.64208 143.921455 
C 137.64208 144.859089 138.014606 145.758447 138.677614 146.421455 
C 139.340621 147.084462 140.239979 147.456988 141.177614 147.456988 
z
" clip-path="url(#p3f5c5dd2ee)" style="fill: #d62728; stroke: #ffffff; stroke-width: 0.525357"/>
    <path d="M 181.759432 220.980545 
C 182.753943 220.980545 183.707856 220.585422 184.411082 219.882196 
C 185.114308 219.17897 185.509432 218.225057 185.509432 217.230545 
C 185.509432 216.236034 185.114308 215.282121 184.411082 214.578895 
C 183.707856 213.875669 182.753943 213.480545 181.759432 213.480545 
C 180.76492 213.480545 179.811007 213.875669 179.107781 214.578895 
C 178.404555 215.282121 178.009432 216.236034 178.009432 217.230545 
C 178.009432 218.225057 178.404555 219.17897 179.107781 219.882196 
C 179.811007 220.585422 180.76492 220.980545 181.759432 220.980545 
z
" clip-path="url(#p3f5c5dd2ee)" style="fill: #2ca02c; stroke: #ffffff; stroke-width: 0.525357"/>
    <path d="M 181.759432 178.686839 
C 182.753943 178.686839 183.707856 178.291716 184.411082 177.58849 
C 185.114308 176.885264 185.509432 175.931351 185.509432 174.936839 
C 185.509432 173.942328 185.114308 172.988415 184.411082 172.285189 
C 183.707856 171.581963 182.753943 171.186839 181.759432 171.186839 
C 180.76492 171.186839 179.811007 171.581963 179.107781 172.285189 
C 178.404555 172.988415 178.009432 173.942328 178.009432 174.936839 
C 178.009432 175.931351 178.404555 176.885264 179.107781 177.58849 
C 179.811007 178.291716 180.76492 178.686839 181.759432 178.686839 
z
" clip-path="url(#p3f5c5dd2ee)" style="fill: #1f77b4; stroke: #ffffff; stroke-width: 0.525357"/>
    <path d="M 181.759432 151.003686 
C 182.753943 151.003686 183.707856 150.608562 184.411082 149.905336 
C 185.114308 149.20211 185.509432 148.248198 185.509432 147.253686 
C 185.509432 146.259174 185.114308 145.305261 184.411082 144.602036 
C 183.707856 143.89881 182.753943 143.503686 181.759432 143.503686 
C 180.76492 143.503686 179.811007 143.89881 179.107781 144.602036 
C 178.404555 145.305261 178.009432 146.259174 178.009432 147.253686 
C 178.009432 148.248198 178.404555 149.20211 179.107781 149.905336 
C 179.811007 150.608562 180.76492 151.003686 181.759432 151.003686 
z
" clip-path="url(#p3f5c5dd2ee)" style="fill: #ff7f0e; stroke: #ffffff; stroke-width: 0.525357"/>
    <path d="M 181.759432 165.998727 
C 182.753943 165.998727 183.707856 165.603604 184.411082 164.900378 
C 185.114308 164.197152 185.509432 163.243239 185.509432 162.248727 
C 185.509432 161.254216 185.114308 160.300303 184.411082 159.597077 
C 183.707856 158.893851 182.753943 158.498727 181.759432 158.498727 
C 180.76492 158.498727 179.811007 158.893851 179.107781 159.597077 
C 178.404555 160.300303 178.009432 161.254216 178.009432 162.248727 
C 178.009432 163.243239 178.404555 164.197152 179.107781 164.900378 
C 179.811007 165.603604 180.76492 165.998727 181.759432 165.998727 
z
" clip-path="url(#p3f5c5dd2ee)" style="fill: #d62728; stroke: #ffffff; stroke-width: 0.525357"/>
    <path d="M 222.34125 238.855856 
C 223.410318 238.855856 224.435743 238.431111 225.191689 237.675166 
C 225.947634 236.919221 226.372379 235.893795 226.372379 234.824727 
C 226.372379 233.755659 225.947634 232.730234 225.191689 231.974289 
C 224.435743 231.218344 223.410318 230.793598 222.34125 230.793598 
C 221.272182 230.793598 220.246757 231.218344 219.490811 231.974289 
C 218.734866 232.730234 218.310121 233.755659 218.310121 234.824727 
C 218.310121 235.893795 218.734866 236.919221 219.490811 237.675166 
C 220.246757 238.431111 221.272182 238.855856 222.34125 238.855856 
z
" clip-path="url(#p3f5c5dd2ee)" style="fill: #2ca02c; stroke: #ffffff; stroke-width: 0.525357"/>
    <path d="M 222.34125 209.686555 
C 223.410318 209.686555 224.435743 209.26181 225.191689 208.505864 
C 225.947634 207.749919 226.372379 206.724494 226.372379 205.655426 
C 226.372379 204.586358 225.947634 203.560932 225.191689 202.804987 
C 224.435743 202.049042 223.410318 201.624297 222.34125 201.624297 
C 221.272182 201.624297 220.246757 202.049042 219.490811 202.804987 
C 218.734866 203.560932 218.310121 204.586358 218.310121 205.655426 
C 218.310121 206.724494 218.734866 207.749919 219.490811 208.505864 
C 220.246757 209.26181 221.272182 209.686555 222.34125 209.686555 
z
" clip-path="url(#p3f5c5dd2ee)" style="fill: #1f77b4; stroke: #ffffff; stroke-width: 0.525357"/>
    <path d="M 222.34125 153.591744 
C 223.410318 153.591744 224.435743 153.166999 225.191689 152.411054 
C 225.947634 151.655109 226.372379 150.629683 226.372379 149.560615 
C 226.372379 148.491548 225.947634 147.466122 225.191689 146.710177 
C 224.435743 145.954232 223.410318 145.529487 222.34125 145.529487 
C 221.272182 145.529487 220.246757 145.954232 219.490811 146.710177 
C 218.734866 147.466122 218.310121 148.491548 218.310121 149.560615 
C 218.310121 150.629683 218.734866 151.655109 219.490811 152.411054 
C 220.246757 153.166999 221.272182 153.591744 222.34125 153.591744 
z
" clip-path="url(#p3f5c5dd2ee)" style="fill: #ff7f0e; stroke: #ffffff; stroke-width: 0.525357"/>
    <path d="M 222.34125 186.898038 
C 223.410318 186.898038 224.435743 186.473293 225.191689 185.717348 
C 225.947634 184.961403 226.372379 183.935977 226.372379 182.866909 
C 226.372379 181.797841 225.947634 180.772416 225.191689 180.016471 
C 224.435743 179.260525 223.410318 178.83578 222.34125 178.83578 
C 221.272182 178.83578 220.246757 179.260525 219.490811 180.016471 
C 218.734866 180.772416 218.310121 181.797841 218.310121 182.866909 
C 218.310121 183.935977 218.734866 184.961403 219.490811 185.717348 
C 220.246757 186.473293 221.272182 186.898038 222.34125 186.898038 
z
" clip-path="url(#p3f5c5dd2ee)" style="fill: #d62728; stroke: #ffffff; stroke-width: 0.525357"/>
    <path d="M 262.923068 221.560672 
C 264.071431 221.560672 265.172915 221.104423 265.98493 220.292408 
C 266.796946 219.480392 267.253195 218.378909 267.253195 217.230545 
C 267.253195 216.082182 266.796946 214.980699 265.98493 214.168683 
C 265.172915 213.356668 264.071431 212.900418 262.923068 212.900418 
C 261.774705 212.900418 260.673221 213.356668 259.861206 214.168683 
C 259.049191 214.980699 258.592941 216.082182 258.592941 217.230545 
C 258.592941 218.378909 259.049191 219.480392 259.861206 220.292408 
C 260.673221 221.104423 261.774705 221.560672 262.923068 221.560672 
z
" clip-path="url(#p3f5c5dd2ee)" style="fill: #2ca02c; stroke: #ffffff; stroke-width: 0.525357"/>
    <path d="M 262.923068 197.124309 
C 264.071431 197.124309 265.172915 196.668059 265.98493 195.856044 
C 266.796946 195.044029 267.253195 193.942545 267.253195 192.794182 
C 267.253195 191.645819 266.796946 190.544335 265.98493 189.73232 
C 265.172915 188.920304 264.071431 188.464055 262.923068 188.464055 
C 261.774705 188.464055 260.673221 188.920304 259.861206 189.73232 
C 259.049191 190.544335 258.592941 191.645819 258.592941 192.794182 
C 258.592941 193.942545 259.049191 195.044029 259.861206 195.856044 
C 260.673221 196.668059 261.774705 197.124309 262.923068 197.124309 
z
" clip-path="url(#p3f5c5dd2ee)" style="fill: #1f77b4; stroke: #ffffff; stroke-width: 0.525357"/>
    <path d="M 262.923068 118.065485 
C 264.071431 118.065485 265.172915 117.609236 265.98493 116.79722 
C 266.796946 115.985205 267.253195 114.883721 267.253195 113.735358 
C 267.253195 112.586995 266.796946 111.485511 265.98493 110.673496 
C 265.172915 109.861481 264.071431 109.405231 262.923068 109.405231 
C 261.774705 109.405231 260.673221 109.861481 259.861206 110.673496 
C 259.049191 111.485511 258.592941 112.586995 258.592941 113.735358 
C 258.592941 114.883721 259.049191 115.985205 259.861206 116.79722 
C 260.673221 117.609236 261.774705 118.065485 262.923068 118.065485 
z
" clip-path="url(#p3f5c5dd2ee)" style="fill: #ff7f0e; stroke: #ffffff; stroke-width: 0.525357"/>
    <path d="M 262.923068 166.578854 
C 264.071431 166.578854 265.172915 166.122605 265.98493 165.310589 
C 266.796946 164.498574 267.253195 163.39709 267.253195 162.248727 
C 267.253195 161.100364 266.796946 159.99888 265.98493 159.186865 
C 265.172915 158.37485 264.071431 157.9186 262.923068 157.9186 
C 261.774705 157.9186 260.673221 158.37485 259.861206 159.186865 
C 259.049191 159.99888 258.592941 161.100364 258.592941 162.248727 
C 258.592941 163.39709 259.049191 164.498574 259.861206 165.310589 
C 260.673221 166.122605 261.774705 166.578854 262.923068 166.578854 
z
" clip-path="url(#p3f5c5dd2ee)" style="fill: #d62728; stroke: #ffffff; stroke-width: 0.525357"/>
    <path d="M 303.504886 185.319416 
C 304.762855 185.319416 305.96947 184.81962 306.858988 183.930102 
C 307.748507 183.040584 308.248303 181.833969 308.248303 180.576 
C 308.248303 179.318031 307.748507 178.111416 306.858988 177.221898 
C 305.96947 176.33238 304.762855 175.832584 303.504886 175.832584 
C 302.246918 175.832584 301.040303 176.33238 300.150784 177.221898 
C 299.261266 178.111416 298.76147 179.318031 298.76147 180.576 
C 298.76147 181.833969 299.261266 183.040584 300.150784 183.930102 
C 301.040303 184.81962 302.246918 185.319416 303.504886 185.319416 
z
" clip-path="url(#p3f5c5dd2ee)" style="fill: #2ca02c; stroke: #ffffff; stroke-width: 0.525357"/>
    <path d="M 303.504886 162.762773 
C 304.762855 162.762773 305.96947 162.262977 306.858988 161.373459 
C 307.748507 160.48394 308.248303 159.277325 308.248303 158.019357 
C 308.248303 156.761388 307.748507 155.554773 306.858988 154.665255 
C 305.96947 153.775736 304.762855 153.27594 303.504886 153.27594 
C 302.246918 153.27594 301.040303 153.775736 300.150784 154.665255 
C 299.261266 155.554773 298.76147 156.761388 298.76147 158.019357 
C 298.76147 159.277325 299.261266 160.48394 300.150784 161.373459 
C 301.040303 162.262977 302.246918 162.762773 303.504886 162.762773 
z
" clip-path="url(#p3f5c5dd2ee)" style="fill: #1f77b4; stroke: #ffffff; stroke-width: 0.525357"/>
    <path d="M 303.504886 78.175361 
C 304.762855 78.175361 305.96947 77.675564 306.858988 76.786046 
C 307.748507 75.896528 308.248303 74.689913 308.248303 73.431944 
C 308.248303 72.173975 307.748507 70.96736 306.858988 70.077842 
C 305.96947 69.188324 304.762855 68.688528 303.504886 68.688528 
C 302.246918 68.688528 301.040303 69.188324 300.150784 70.077842 
C 299.261266 70.96736 298.76147 72.173975 298.76147 73.431944 
C 298.76147 74.689913 299.261266 75.896528 300.150784 76.786046 
C 301.040303 77.675564 302.246918 78.175361 303.504886 78.175361 
z
" clip-path="url(#p3f5c5dd2ee)" style="fill: #ff7f0e; stroke: #ffffff; stroke-width: 0.525357"/>
    <path d="M 303.504886 128.927808 
C 304.762855 128.927808 305.96947 128.428012 306.858988 127.538494 
C 307.748507 126.648975 308.248303 125.44236 308.248303 124.184392 
C 308.248303 122.926423 307.748507 121.719808 306.858988 120.83029 
C 305.96947 119.940771 304.762855 119.440975 303.504886 119.440975 
C 302.246918 119.440975 301.040303 119.940771 300.150784 120.83029 
C 299.261266 121.719808 298.76147 122.926423 298.76147 124.184392 
C 298.76147 125.44236 299.261266 126.648975 300.150784 127.538494 
C 301.040303 128.428012 302.246918 128.927808 303.504886 128.927808 
z
" clip-path="url(#p3f5c5dd2ee)" style="fill: #d62728; stroke: #ffffff; stroke-width: 0.525357"/>
   </g>
   <g id="PathCollection_2"/>
   <g id="PathCollection_3"/>
   <g id="PathCollection_4"/>
   <g id="PathCollection_5"/>
   <g id="PathCollection_6"/>
   <g id="PathCollection_7"/>
   <g id="PathCollection_8"/>
   <g id="PathCollection_9"/>
   <g id="PathCollection_10"/>
   <g id="PathCollection_11"/>
   <g id="matplotlib.axis_1">
    <g id="xtick_1">
     <g id="line2d_1">
      <defs>
       <path id="m211ca6ebf6" d="M 0 0 
L 0 3.5 
" style="stroke: #000000; stroke-width: 0.8"/>
      </defs>
      <g>
       <use xlink:href="#m211ca6ebf6" x="60.013977" y="273.312" style="stroke: #000000; stroke-width: 0.8"/>
      </g>
     </g>
     <g id="text_1">
      <!-- 20 -->
      <g transform="translate(53.651477 287.910437)scale(0.1 -0.1)">
       <defs>
        <path id="DejaVuSans-32" d="M 1228 531 
L 3431 531 
L 3431 0 
L 469 0 
L 469 531 
Q 828 903 1448 1529 
Q 2069 2156 2228 2338 
Q 2531 2678 2651 2914 
Q 2772 3150 2772 3378 
Q 2772 3750 2511 3984 
Q 2250 4219 1831 4219 
Q 1534 4219 1204 4116 
Q 875 4013 500 3803 
L 500 4441 
Q 881 4594 1212 4672 
Q 1544 4750 1819 4750 
Q 2544 4750 2975 4387 
Q 3406 4025 3406 3419 
Q 3406 3131 3298 2873 
Q 3191 2616 2906 2266 
Q 2828 2175 2409 1742 
Q 1991 1309 1228 531 
z
" transform="scale(0.015625)"/>
        <path id="DejaVuSans-30" d="M 2034 4250 
Q 1547 4250 1301 3770 
Q 1056 3291 1056 2328 
Q 1056 1369 1301 889 
Q 1547 409 2034 409 
Q 2525 409 2770 889 
Q 3016 1369 3016 2328 
Q 3016 3291 2770 3770 
Q 2525 4250 2034 4250 
z
M 2034 4750 
Q 2819 4750 3233 4129 
Q 3647 3509 3647 2328 
Q 3647 1150 3233 529 
Q 2819 -91 2034 -91 
Q 1250 -91 836 529 
Q 422 1150 422 2328 
Q 422 3509 836 4129 
Q 1250 4750 2034 4750 
z
" transform="scale(0.015625)"/>
       </defs>
       <use xlink:href="#DejaVuSans-32"/>
       <use xlink:href="#DejaVuSans-30" x="63.623047"/>
      </g>
     </g>
    </g>
    <g id="xtick_2">
     <g id="line2d_2">
      <g>
       <use xlink:href="#m211ca6ebf6" x="100.595795" y="273.312" style="stroke: #000000; stroke-width: 0.8"/>
      </g>
     </g>
     <g id="text_2">
      <!-- 30 -->
      <g transform="translate(94.233295 287.910437)scale(0.1 -0.1)">
       <defs>
        <path id="DejaVuSans-33" d="M 2597 2516 
Q 3050 2419 3304 2112 
Q 3559 1806 3559 1356 
Q 3559 666 3084 287 
Q 2609 -91 1734 -91 
Q 1441 -91 1130 -33 
Q 819 25 488 141 
L 488 750 
Q 750 597 1062 519 
Q 1375 441 1716 441 
Q 2309 441 2620 675 
Q 2931 909 2931 1356 
Q 2931 1769 2642 2001 
Q 2353 2234 1838 2234 
L 1294 2234 
L 1294 2753 
L 1863 2753 
Q 2328 2753 2575 2939 
Q 2822 3125 2822 3475 
Q 2822 3834 2567 4026 
Q 2313 4219 1838 4219 
Q 1578 4219 1281 4162 
Q 984 4106 628 3988 
L 628 4550 
Q 988 4650 1302 4700 
Q 1616 4750 1894 4750 
Q 2613 4750 3031 4423 
Q 3450 4097 3450 3541 
Q 3450 3153 3228 2886 
Q 3006 2619 2597 2516 
z
" transform="scale(0.015625)"/>
       </defs>
       <use xlink:href="#DejaVuSans-33"/>
       <use xlink:href="#DejaVuSans-30" x="63.623047"/>
      </g>
     </g>
    </g>
    <g id="xtick_3">
     <g id="line2d_3">
      <g>
       <use xlink:href="#m211ca6ebf6" x="141.177614" y="273.312" style="stroke: #000000; stroke-width: 0.8"/>
      </g>
     </g>
     <g id="text_3">
      <!-- 40 -->
      <g transform="translate(134.815114 287.910437)scale(0.1 -0.1)">
       <defs>
        <path id="DejaVuSans-34" d="M 2419 4116 
L 825 1625 
L 2419 1625 
L 2419 4116 
z
M 2253 4666 
L 3047 4666 
L 3047 1625 
L 3713 1625 
L 3713 1100 
L 3047 1100 
L 3047 0 
L 2419 0 
L 2419 1100 
L 313 1100 
L 313 1709 
L 2253 4666 
z
" transform="scale(0.015625)"/>
       </defs>
       <use xlink:href="#DejaVuSans-34"/>
       <use xlink:href="#DejaVuSans-30" x="63.623047"/>
      </g>
     </g>
    </g>
    <g id="xtick_4">
     <g id="line2d_4">
      <g>
       <use xlink:href="#m211ca6ebf6" x="181.759432" y="273.312" style="stroke: #000000; stroke-width: 0.8"/>
      </g>
     </g>
     <g id="text_4">
      <!-- 50 -->
      <g transform="translate(175.396932 287.910437)scale(0.1 -0.1)">
       <defs>
        <path id="DejaVuSans-35" d="M 691 4666 
L 3169 4666 
L 3169 4134 
L 1269 4134 
L 1269 2991 
Q 1406 3038 1543 3061 
Q 1681 3084 1819 3084 
Q 2600 3084 3056 2656 
Q 3513 2228 3513 1497 
Q 3513 744 3044 326 
Q 2575 -91 1722 -91 
Q 1428 -91 1123 -41 
Q 819 9 494 109 
L 494 744 
Q 775 591 1075 516 
Q 1375 441 1709 441 
Q 2250 441 2565 725 
Q 2881 1009 2881 1497 
Q 2881 1984 2565 2268 
Q 2250 2553 1709 2553 
Q 1456 2553 1204 2497 
Q 953 2441 691 2322 
L 691 4666 
z
" transform="scale(0.015625)"/>
       </defs>
       <use xlink:href="#DejaVuSans-35"/>
       <use xlink:href="#DejaVuSans-30" x="63.623047"/>
      </g>
     </g>
    </g>
    <g id="xtick_5">
     <g id="line2d_5">
      <g>
       <use xlink:href="#m211ca6ebf6" x="222.34125" y="273.312" style="stroke: #000000; stroke-width: 0.8"/>
      </g>
     </g>
     <g id="text_5">
      <!-- 70 -->
      <g transform="translate(215.97875 287.910437)scale(0.1 -0.1)">
       <defs>
        <path id="DejaVuSans-37" d="M 525 4666 
L 3525 4666 
L 3525 4397 
L 1831 0 
L 1172 0 
L 2766 4134 
L 525 4134 
L 525 4666 
z
" transform="scale(0.015625)"/>
       </defs>
       <use xlink:href="#DejaVuSans-37"/>
       <use xlink:href="#DejaVuSans-30" x="63.623047"/>
      </g>
     </g>
    </g>
    <g id="xtick_6">
     <g id="line2d_6">
      <g>
       <use xlink:href="#m211ca6ebf6" x="262.923068" y="273.312" style="stroke: #000000; stroke-width: 0.8"/>
      </g>
     </g>
     <g id="text_6">
      <!-- 100 -->
      <g transform="translate(253.379318 287.910437)scale(0.1 -0.1)">
       <defs>
        <path id="DejaVuSans-31" d="M 794 531 
L 1825 531 
L 1825 4091 
L 703 3866 
L 703 4441 
L 1819 4666 
L 2450 4666 
L 2450 531 
L 3481 531 
L 3481 0 
L 794 0 
L 794 531 
z
" transform="scale(0.015625)"/>
       </defs>
       <use xlink:href="#DejaVuSans-31"/>
       <use xlink:href="#DejaVuSans-30" x="63.623047"/>
       <use xlink:href="#DejaVuSans-30" x="127.246094"/>
      </g>
     </g>
    </g>
    <g id="xtick_7">
     <g id="line2d_7">
      <g>
       <use xlink:href="#m211ca6ebf6" x="303.504886" y="273.312" style="stroke: #000000; stroke-width: 0.8"/>
      </g>
     </g>
     <g id="text_7">
      <!-- 150 -->
      <g transform="translate(293.961136 287.910437)scale(0.1 -0.1)">
       <use xlink:href="#DejaVuSans-31"/>
       <use xlink:href="#DejaVuSans-35" x="63.623047"/>
       <use xlink:href="#DejaVuSans-30" x="127.246094"/>
      </g>
     </g>
    </g>
    <g id="xtick_8">
     <g id="line2d_8">
      <g>
       <use xlink:href="#m211ca6ebf6" x="344.086705" y="273.312" style="stroke: #000000; stroke-width: 0.8"/>
      </g>
     </g>
     <g id="text_8">
      <!-- 200 -->
      <g transform="translate(334.542955 287.910437)scale(0.1 -0.1)">
       <use xlink:href="#DejaVuSans-32"/>
       <use xlink:href="#DejaVuSans-30" x="63.623047"/>
       <use xlink:href="#DejaVuSans-30" x="127.246094"/>
      </g>
     </g>
    </g>
    <g id="xtick_9">
     <g id="line2d_9">
      <g>
       <use xlink:href="#m211ca6ebf6" x="384.668523" y="273.312" style="stroke: #000000; stroke-width: 0.8"/>
      </g>
     </g>
     <g id="text_9">
      <!-- 200&lt; -->
      <g transform="translate(370.934929 287.910437)scale(0.1 -0.1)">
       <defs>
        <path id="DejaVuSans-3c" d="M 4684 3150 
L 1459 2003 
L 4684 863 
L 4684 294 
L 678 1747 
L 678 2266 
L 4684 3719 
L 4684 3150 
z
" transform="scale(0.015625)"/>
       </defs>
       <use xlink:href="#DejaVuSans-32"/>
       <use xlink:href="#DejaVuSans-30" x="63.623047"/>
       <use xlink:href="#DejaVuSans-30" x="127.246094"/>
       <use xlink:href="#DejaVuSans-3c" x="190.869141"/>
      </g>
     </g>
    </g>
    <g id="text_10">
     <!-- nrows -->
     <g transform="translate(207.476406 301.588562)scale(0.1 -0.1)">
      <defs>
       <path id="DejaVuSans-6e" d="M 3513 2113 
L 3513 0 
L 2938 0 
L 2938 2094 
Q 2938 2591 2744 2837 
Q 2550 3084 2163 3084 
Q 1697 3084 1428 2787 
Q 1159 2491 1159 1978 
L 1159 0 
L 581 0 
L 581 3500 
L 1159 3500 
L 1159 2956 
Q 1366 3272 1645 3428 
Q 1925 3584 2291 3584 
Q 2894 3584 3203 3211 
Q 3513 2838 3513 2113 
z
" transform="scale(0.015625)"/>
       <path id="DejaVuSans-72" d="M 2631 2963 
Q 2534 3019 2420 3045 
Q 2306 3072 2169 3072 
Q 1681 3072 1420 2755 
Q 1159 2438 1159 1844 
L 1159 0 
L 581 0 
L 581 3500 
L 1159 3500 
L 1159 2956 
Q 1341 3275 1631 3429 
Q 1922 3584 2338 3584 
Q 2397 3584 2469 3576 
Q 2541 3569 2628 3553 
L 2631 2963 
z
" transform="scale(0.015625)"/>
       <path id="DejaVuSans-6f" d="M 1959 3097 
Q 1497 3097 1228 2736 
Q 959 2375 959 1747 
Q 959 1119 1226 758 
Q 1494 397 1959 397 
Q 2419 397 2687 759 
Q 2956 1122 2956 1747 
Q 2956 2369 2687 2733 
Q 2419 3097 1959 3097 
z
M 1959 3584 
Q 2709 3584 3137 3096 
Q 3566 2609 3566 1747 
Q 3566 888 3137 398 
Q 2709 -91 1959 -91 
Q 1206 -91 779 398 
Q 353 888 353 1747 
Q 353 2609 779 3096 
Q 1206 3584 1959 3584 
z
" transform="scale(0.015625)"/>
       <path id="DejaVuSans-77" d="M 269 3500 
L 844 3500 
L 1563 769 
L 2278 3500 
L 2956 3500 
L 3675 769 
L 4391 3500 
L 4966 3500 
L 4050 0 
L 3372 0 
L 2619 2869 
L 1863 0 
L 1184 0 
L 269 3500 
z
" transform="scale(0.015625)"/>
       <path id="DejaVuSans-73" d="M 2834 3397 
L 2834 2853 
Q 2591 2978 2328 3040 
Q 2066 3103 1784 3103 
Q 1356 3103 1142 2972 
Q 928 2841 928 2578 
Q 928 2378 1081 2264 
Q 1234 2150 1697 2047 
L 1894 2003 
Q 2506 1872 2764 1633 
Q 3022 1394 3022 966 
Q 3022 478 2636 193 
Q 2250 -91 1575 -91 
Q 1294 -91 989 -36 
Q 684 19 347 128 
L 347 722 
Q 666 556 975 473 
Q 1284 391 1588 391 
Q 1994 391 2212 530 
Q 2431 669 2431 922 
Q 2431 1156 2273 1281 
Q 2116 1406 1581 1522 
L 1381 1569 
Q 847 1681 609 1914 
Q 372 2147 372 2553 
Q 372 3047 722 3315 
Q 1072 3584 1716 3584 
Q 2034 3584 2315 3537 
Q 2597 3491 2834 3397 
z
" transform="scale(0.015625)"/>
      </defs>
      <use xlink:href="#DejaVuSans-6e"/>
      <use xlink:href="#DejaVuSans-72" x="63.378906"/>
      <use xlink:href="#DejaVuSans-6f" x="102.242188"/>
      <use xlink:href="#DejaVuSans-77" x="163.423828"/>
      <use xlink:href="#DejaVuSans-73" x="245.210938"/>
     </g>
    </g>
   </g>
   <g id="matplotlib.axis_2">
    <g id="ytick_1">
     <g id="line2d_10">
      <defs>
       <path id="m8118e19df4" d="M 0 0 
L -3.5 0 
" style="stroke: #000000; stroke-width: 0.8"/>
      </defs>
      <g>
       <use xlink:href="#m8118e19df4" x="43.78125" y="261.216" style="stroke: #000000; stroke-width: 0.8"/>
      </g>
     </g>
     <g id="text_11">
      <!-- 0.2 -->
      <g transform="translate(20.878125 265.015219)scale(0.1 -0.1)">
       <defs>
        <path id="DejaVuSans-2e" d="M 684 794 
L 1344 794 
L 1344 0 
L 684 0 
L 684 794 
z
" transform="scale(0.015625)"/>
       </defs>
       <use xlink:href="#DejaVuSans-30"/>
       <use xlink:href="#DejaVuSans-2e" x="63.623047"/>
       <use xlink:href="#DejaVuSans-32" x="95.410156"/>
      </g>
     </g>
    </g>
    <g id="ytick_2">
     <g id="line2d_11">
      <g>
       <use xlink:href="#m8118e19df4" x="43.78125" y="228.226909" style="stroke: #000000; stroke-width: 0.8"/>
      </g>
     </g>
     <g id="text_12">
      <!-- 0.3 -->
      <g transform="translate(20.878125 232.026128)scale(0.1 -0.1)">
       <use xlink:href="#DejaVuSans-30"/>
       <use xlink:href="#DejaVuSans-2e" x="63.623047"/>
       <use xlink:href="#DejaVuSans-33" x="95.410156"/>
      </g>
     </g>
    </g>
    <g id="ytick_3">
     <g id="line2d_12">
      <g>
       <use xlink:href="#m8118e19df4" x="43.78125" y="195.237818" style="stroke: #000000; stroke-width: 0.8"/>
      </g>
     </g>
     <g id="text_13">
      <!-- 0.4 -->
      <g transform="translate(20.878125 199.037037)scale(0.1 -0.1)">
       <use xlink:href="#DejaVuSans-30"/>
       <use xlink:href="#DejaVuSans-2e" x="63.623047"/>
       <use xlink:href="#DejaVuSans-34" x="95.410156"/>
      </g>
     </g>
    </g>
    <g id="ytick_4">
     <g id="line2d_13">
      <g>
       <use xlink:href="#m8118e19df4" x="43.78125" y="162.248727" style="stroke: #000000; stroke-width: 0.8"/>
      </g>
     </g>
     <g id="text_14">
      <!-- 0.5 -->
      <g transform="translate(20.878125 166.047946)scale(0.1 -0.1)">
       <use xlink:href="#DejaVuSans-30"/>
       <use xlink:href="#DejaVuSans-2e" x="63.623047"/>
       <use xlink:href="#DejaVuSans-35" x="95.410156"/>
      </g>
     </g>
    </g>
    <g id="ytick_5">
     <g id="line2d_14">
      <g>
       <use xlink:href="#m8118e19df4" x="43.78125" y="129.259636" style="stroke: #000000; stroke-width: 0.8"/>
      </g>
     </g>
     <g id="text_15">
      <!-- 0.6 -->
      <g transform="translate(20.878125 133.058855)scale(0.1 -0.1)">
       <defs>
        <path id="DejaVuSans-36" d="M 2113 2584 
Q 1688 2584 1439 2293 
Q 1191 2003 1191 1497 
Q 1191 994 1439 701 
Q 1688 409 2113 409 
Q 2538 409 2786 701 
Q 3034 994 3034 1497 
Q 3034 2003 2786 2293 
Q 2538 2584 2113 2584 
z
M 3366 4563 
L 3366 3988 
Q 3128 4100 2886 4159 
Q 2644 4219 2406 4219 
Q 1781 4219 1451 3797 
Q 1122 3375 1075 2522 
Q 1259 2794 1537 2939 
Q 1816 3084 2150 3084 
Q 2853 3084 3261 2657 
Q 3669 2231 3669 1497 
Q 3669 778 3244 343 
Q 2819 -91 2113 -91 
Q 1303 -91 875 529 
Q 447 1150 447 2328 
Q 447 3434 972 4092 
Q 1497 4750 2381 4750 
Q 2619 4750 2861 4703 
Q 3103 4656 3366 4563 
z
" transform="scale(0.015625)"/>
       </defs>
       <use xlink:href="#DejaVuSans-30"/>
       <use xlink:href="#DejaVuSans-2e" x="63.623047"/>
       <use xlink:href="#DejaVuSans-36" x="95.410156"/>
      </g>
     </g>
    </g>
    <g id="ytick_6">
     <g id="line2d_15">
      <g>
       <use xlink:href="#m8118e19df4" x="43.78125" y="96.270545" style="stroke: #000000; stroke-width: 0.8"/>
      </g>
     </g>
     <g id="text_16">
      <!-- 0.7 -->
      <g transform="translate(20.878125 100.069764)scale(0.1 -0.1)">
       <use xlink:href="#DejaVuSans-30"/>
       <use xlink:href="#DejaVuSans-2e" x="63.623047"/>
       <use xlink:href="#DejaVuSans-37" x="95.410156"/>
      </g>
     </g>
    </g>
    <g id="ytick_7">
     <g id="line2d_16">
      <g>
       <use xlink:href="#m8118e19df4" x="43.78125" y="63.281455" style="stroke: #000000; stroke-width: 0.8"/>
      </g>
     </g>
     <g id="text_17">
      <!-- 0.8 -->
      <g transform="translate(20.878125 67.080673)scale(0.1 -0.1)">
       <defs>
        <path id="DejaVuSans-38" d="M 2034 2216 
Q 1584 2216 1326 1975 
Q 1069 1734 1069 1313 
Q 1069 891 1326 650 
Q 1584 409 2034 409 
Q 2484 409 2743 651 
Q 3003 894 3003 1313 
Q 3003 1734 2745 1975 
Q 2488 2216 2034 2216 
z
M 1403 2484 
Q 997 2584 770 2862 
Q 544 3141 544 3541 
Q 544 4100 942 4425 
Q 1341 4750 2034 4750 
Q 2731 4750 3128 4425 
Q 3525 4100 3525 3541 
Q 3525 3141 3298 2862 
Q 3072 2584 2669 2484 
Q 3125 2378 3379 2068 
Q 3634 1759 3634 1313 
Q 3634 634 3220 271 
Q 2806 -91 2034 -91 
Q 1263 -91 848 271 
Q 434 634 434 1313 
Q 434 1759 690 2068 
Q 947 2378 1403 2484 
z
M 1172 3481 
Q 1172 3119 1398 2916 
Q 1625 2713 2034 2713 
Q 2441 2713 2670 2916 
Q 2900 3119 2900 3481 
Q 2900 3844 2670 4047 
Q 2441 4250 2034 4250 
Q 1625 4250 1398 4047 
Q 1172 3844 1172 3481 
z
" transform="scale(0.015625)"/>
       </defs>
       <use xlink:href="#DejaVuSans-30"/>
       <use xlink:href="#DejaVuSans-2e" x="63.623047"/>
       <use xlink:href="#DejaVuSans-38" x="95.410156"/>
      </g>
     </g>
    </g>
    <g id="ytick_8">
     <g id="line2d_17">
      <g>
       <use xlink:href="#m8118e19df4" x="43.78125" y="30.292364" style="stroke: #000000; stroke-width: 0.8"/>
      </g>
     </g>
     <g id="text_18">
      <!-- 0.9 -->
      <g transform="translate(20.878125 34.091582)scale(0.1 -0.1)">
       <defs>
        <path id="DejaVuSans-39" d="M 703 97 
L 703 672 
Q 941 559 1184 500 
Q 1428 441 1663 441 
Q 2288 441 2617 861 
Q 2947 1281 2994 2138 
Q 2813 1869 2534 1725 
Q 2256 1581 1919 1581 
Q 1219 1581 811 2004 
Q 403 2428 403 3163 
Q 403 3881 828 4315 
Q 1253 4750 1959 4750 
Q 2769 4750 3195 4129 
Q 3622 3509 3622 2328 
Q 3622 1225 3098 567 
Q 2575 -91 1691 -91 
Q 1453 -91 1209 -44 
Q 966 3 703 97 
z
M 1959 2075 
Q 2384 2075 2632 2365 
Q 2881 2656 2881 3163 
Q 2881 3666 2632 3958 
Q 2384 4250 1959 4250 
Q 1534 4250 1286 3958 
Q 1038 3666 1038 3163 
Q 1038 2656 1286 2365 
Q 1534 2075 1959 2075 
z
" transform="scale(0.015625)"/>
       </defs>
       <use xlink:href="#DejaVuSans-30"/>
       <use xlink:href="#DejaVuSans-2e" x="63.623047"/>
       <use xlink:href="#DejaVuSans-39" x="95.410156"/>
      </g>
     </g>
    </g>
    <g id="text_19">
     <!-- score -->
     <g transform="translate(14.798438 153.688812)rotate(-90)scale(0.1 -0.1)">
      <defs>
       <path id="DejaVuSans-63" d="M 3122 3366 
L 3122 2828 
Q 2878 2963 2633 3030 
Q 2388 3097 2138 3097 
Q 1578 3097 1268 2742 
Q 959 2388 959 1747 
Q 959 1106 1268 751 
Q 1578 397 2138 397 
Q 2388 397 2633 464 
Q 2878 531 3122 666 
L 3122 134 
Q 2881 22 2623 -34 
Q 2366 -91 2075 -91 
Q 1284 -91 818 406 
Q 353 903 353 1747 
Q 353 2603 823 3093 
Q 1294 3584 2113 3584 
Q 2378 3584 2631 3529 
Q 2884 3475 3122 3366 
z
" transform="scale(0.015625)"/>
       <path id="DejaVuSans-65" d="M 3597 1894 
L 3597 1613 
L 953 1613 
Q 991 1019 1311 708 
Q 1631 397 2203 397 
Q 2534 397 2845 478 
Q 3156 559 3463 722 
L 3463 178 
Q 3153 47 2828 -22 
Q 2503 -91 2169 -91 
Q 1331 -91 842 396 
Q 353 884 353 1716 
Q 353 2575 817 3079 
Q 1281 3584 2069 3584 
Q 2775 3584 3186 3129 
Q 3597 2675 3597 1894 
z
M 3022 2063 
Q 3016 2534 2758 2815 
Q 2500 3097 2075 3097 
Q 1594 3097 1305 2825 
Q 1016 2553 972 2059 
L 3022 2063 
z
" transform="scale(0.015625)"/>
      </defs>
      <use xlink:href="#DejaVuSans-73"/>
      <use xlink:href="#DejaVuSans-63" x="52.099609"/>
      <use xlink:href="#DejaVuSans-6f" x="107.080078"/>
      <use xlink:href="#DejaVuSans-72" x="168.261719"/>
      <use xlink:href="#DejaVuSans-65" x="207.125"/>
     </g>
    </g>
   </g>
   <g id="line2d_18">
    <path d="M 60.013977 217.230545 
L 100.595795 162.248727 
L 141.177614 143.921455 
L 181.759432 174.936839 
L 222.34125 205.655426 
L 262.923068 192.794182 
L 303.504886 158.019357 
L 344.086705 151.720294 
L 384.668523 167.936502 
" clip-path="url(#p3f5c5dd2ee)" style="fill: none; stroke-dasharray: 3.7,1.6; stroke-dashoffset: 0; stroke: #1f77b4"/>
   </g>
   <g id="line2d_19">
    <path d="M 60.013977 217.230545 
L 100.595795 185.812364 
L 141.177614 143.921455 
L 181.759432 147.253686 
L 222.34125 149.560615 
L 262.923068 113.735358 
L 303.504886 73.431944 
L 344.086705 61.153126 
L 384.668523 19.296 
" clip-path="url(#p3f5c5dd2ee)" style="fill: none; stroke-dasharray: 1,1.65; stroke-dashoffset: 0; stroke: #ff7f0e"/>
   </g>
   <g id="line2d_20">
    <path d="M 60.013977 261.216 
L 100.595795 228.226909 
L 141.177614 200.313063 
L 181.759432 217.230545 
L 222.34125 234.824727 
L 262.923068 217.230545 
L 303.504886 180.576 
L 344.086705 171.585262 
L 384.668523 173.245091 
" clip-path="url(#p3f5c5dd2ee)" style="fill: none; stroke-dasharray: 6.4,1.6,1,1.6; stroke-dashoffset: 0; stroke: #2ca02c"/>
   </g>
   <g id="line2d_21">
    <path d="M 60.013977 217.230545 
L 100.595795 174.936839 
L 141.177614 143.921455 
L 181.759432 162.248727 
L 222.34125 182.866909 
L 262.923068 162.248727 
L 303.504886 124.184392 
L 344.086705 115.72565 
L 384.668523 117.263603 
" clip-path="url(#p3f5c5dd2ee)" style="fill: none; stroke: #d62728; stroke-linecap: square"/>
   </g>
   <g id="patch_3">
    <path d="M 43.78125 273.312 
L 43.78125 7.2 
" style="fill: none; stroke: #000000; stroke-width: 0.8; stroke-linejoin: miter; stroke-linecap: square"/>
   </g>
   <g id="patch_4">
    <path d="M 400.90125 273.312 
L 400.90125 7.2 
" style="fill: none; stroke: #000000; stroke-width: 0.8; stroke-linejoin: miter; stroke-linecap: square"/>
   </g>
   <g id="patch_5">
    <path d="M 43.78125 273.312 
L 400.90125 273.312 
" style="fill: none; stroke: #000000; stroke-width: 0.8; stroke-linejoin: miter; stroke-linecap: square"/>
   </g>
   <g id="patch_6">
    <path d="M 43.78125 7.2 
L 400.90125 7.2 
" style="fill: none; stroke: #000000; stroke-width: 0.8; stroke-linejoin: miter; stroke-linecap: square"/>
   </g>
   <g id="legend_1">
    <g id="patch_7">
     <path d="M 48.63925 134.991425 
L 102.159662 134.991425 
Q 103.547663 134.991425 103.547663 133.603425 
L 103.547663 12.058 
Q 103.547663 10.67 102.159662 10.67 
L 48.63925 10.67 
Q 47.25125 10.67 47.25125 12.058 
L 47.25125 133.603425 
Q 47.25125 134.991425 48.63925 134.991425 
z
" style="fill: #ffffff; opacity: 0.8; stroke: #cccccc; stroke-linejoin: miter"/>
    </g>
    <g id="text_20">
     <!-- metric -->
     <g transform="translate(69.45925 18.719316)scale(0.0694 -0.0694)">
      <defs>
       <path id="DejaVuSans-6d" d="M 3328 2828 
Q 3544 3216 3844 3400 
Q 4144 3584 4550 3584 
Q 5097 3584 5394 3201 
Q 5691 2819 5691 2113 
L 5691 0 
L 5113 0 
L 5113 2094 
Q 5113 2597 4934 2840 
Q 4756 3084 4391 3084 
Q 3944 3084 3684 2787 
Q 3425 2491 3425 1978 
L 3425 0 
L 2847 0 
L 2847 2094 
Q 2847 2600 2669 2842 
Q 2491 3084 2119 3084 
Q 1678 3084 1418 2786 
Q 1159 2488 1159 1978 
L 1159 0 
L 581 0 
L 581 3500 
L 1159 3500 
L 1159 2956 
Q 1356 3278 1631 3431 
Q 1906 3584 2284 3584 
Q 2666 3584 2933 3390 
Q 3200 3197 3328 2828 
z
" transform="scale(0.015625)"/>
       <path id="DejaVuSans-74" d="M 1172 4494 
L 1172 3500 
L 2356 3500 
L 2356 3053 
L 1172 3053 
L 1172 1153 
Q 1172 725 1289 603 
Q 1406 481 1766 481 
L 2356 481 
L 2356 0 
L 1766 0 
Q 1100 0 847 248 
Q 594 497 594 1153 
L 594 3053 
L 172 3053 
L 172 3500 
L 594 3500 
L 594 4494 
L 1172 4494 
z
" transform="scale(0.015625)"/>
       <path id="DejaVuSans-69" d="M 603 3500 
L 1178 3500 
L 1178 0 
L 603 0 
L 603 3500 
z
M 603 4863 
L 1178 4863 
L 1178 4134 
L 603 4134 
L 603 4863 
z
" transform="scale(0.015625)"/>
      </defs>
      <use xlink:href="#DejaVuSans-6d"/>
      <use xlink:href="#DejaVuSans-65" x="97.412109"/>
      <use xlink:href="#DejaVuSans-74" x="158.935547"/>
      <use xlink:href="#DejaVuSans-72" x="198.144531"/>
      <use xlink:href="#DejaVuSans-69" x="239.257812"/>
      <use xlink:href="#DejaVuSans-63" x="267.041016"/>
     </g>
    </g>
    <g id="PathCollection_12">
     <defs>
      <path id="ma780ec184b" d="M 0 3 
C 0.795609 3 1.55874 2.683901 2.12132 2.12132 
C 2.683901 1.55874 3 0.795609 3 0 
C 3 -0.795609 2.683901 -1.55874 2.12132 -2.12132 
C 1.55874 -2.683901 0.795609 -3 0 -3 
C -0.795609 -3 -1.55874 -2.683901 -2.12132 -2.12132 
C -2.683901 -1.55874 -3 -0.795609 -3 0 
C -3 0.795609 -2.683901 1.55874 -2.12132 2.12132 
C -1.55874 2.683901 -0.795609 3 0 3 
z
" style="stroke: #1f77b4"/>
     </defs>
     <g>
      <use xlink:href="#ma780ec184b" x="56.96725" y="27.084184" style="fill: #1f77b4; stroke: #1f77b4"/>
     </g>
    </g>
    <g id="text_21">
     <!-- precision -->
     <g transform="translate(69.45925 28.905934)scale(0.0694 -0.0694)">
      <defs>
       <path id="DejaVuSans-70" d="M 1159 525 
L 1159 -1331 
L 581 -1331 
L 581 3500 
L 1159 3500 
L 1159 2969 
Q 1341 3281 1617 3432 
Q 1894 3584 2278 3584 
Q 2916 3584 3314 3078 
Q 3713 2572 3713 1747 
Q 3713 922 3314 415 
Q 2916 -91 2278 -91 
Q 1894 -91 1617 61 
Q 1341 213 1159 525 
z
M 3116 1747 
Q 3116 2381 2855 2742 
Q 2594 3103 2138 3103 
Q 1681 3103 1420 2742 
Q 1159 2381 1159 1747 
Q 1159 1113 1420 752 
Q 1681 391 2138 391 
Q 2594 391 2855 752 
Q 3116 1113 3116 1747 
z
" transform="scale(0.015625)"/>
      </defs>
      <use xlink:href="#DejaVuSans-70"/>
      <use xlink:href="#DejaVuSans-72" x="63.476562"/>
      <use xlink:href="#DejaVuSans-65" x="102.339844"/>
      <use xlink:href="#DejaVuSans-63" x="163.863281"/>
      <use xlink:href="#DejaVuSans-69" x="218.84375"/>
      <use xlink:href="#DejaVuSans-73" x="246.626953"/>
      <use xlink:href="#DejaVuSans-69" x="298.726562"/>
      <use xlink:href="#DejaVuSans-6f" x="326.509766"/>
      <use xlink:href="#DejaVuSans-6e" x="387.691406"/>
     </g>
    </g>
    <g id="PathCollection_13">
     <defs>
      <path id="m9aa0eefa57" d="M 0 3 
C 0.795609 3 1.55874 2.683901 2.12132 2.12132 
C 2.683901 1.55874 3 0.795609 3 0 
C 3 -0.795609 2.683901 -1.55874 2.12132 -2.12132 
C 1.55874 -2.683901 0.795609 -3 0 -3 
C -0.795609 -3 -1.55874 -2.683901 -2.12132 -2.12132 
C -2.683901 -1.55874 -3 -0.795609 -3 0 
C -3 0.795609 -2.683901 1.55874 -2.12132 2.12132 
C -1.55874 2.683901 -0.795609 3 0 3 
z
" style="stroke: #ff7f0e"/>
     </defs>
     <g>
      <use xlink:href="#m9aa0eefa57" x="56.96725" y="37.270803" style="fill: #ff7f0e; stroke: #ff7f0e"/>
     </g>
    </g>
    <g id="text_22">
     <!-- recall -->
     <g transform="translate(69.45925 39.092553)scale(0.0694 -0.0694)">
      <defs>
       <path id="DejaVuSans-61" d="M 2194 1759 
Q 1497 1759 1228 1600 
Q 959 1441 959 1056 
Q 959 750 1161 570 
Q 1363 391 1709 391 
Q 2188 391 2477 730 
Q 2766 1069 2766 1631 
L 2766 1759 
L 2194 1759 
z
M 3341 1997 
L 3341 0 
L 2766 0 
L 2766 531 
Q 2569 213 2275 61 
Q 1981 -91 1556 -91 
Q 1019 -91 701 211 
Q 384 513 384 1019 
Q 384 1609 779 1909 
Q 1175 2209 1959 2209 
L 2766 2209 
L 2766 2266 
Q 2766 2663 2505 2880 
Q 2244 3097 1772 3097 
Q 1472 3097 1187 3025 
Q 903 2953 641 2809 
L 641 3341 
Q 956 3463 1253 3523 
Q 1550 3584 1831 3584 
Q 2591 3584 2966 3190 
Q 3341 2797 3341 1997 
z
" transform="scale(0.015625)"/>
       <path id="DejaVuSans-6c" d="M 603 4863 
L 1178 4863 
L 1178 0 
L 603 0 
L 603 4863 
z
" transform="scale(0.015625)"/>
      </defs>
      <use xlink:href="#DejaVuSans-72"/>
      <use xlink:href="#DejaVuSans-65" x="38.863281"/>
      <use xlink:href="#DejaVuSans-63" x="100.386719"/>
      <use xlink:href="#DejaVuSans-61" x="155.367188"/>
      <use xlink:href="#DejaVuSans-6c" x="216.646484"/>
      <use xlink:href="#DejaVuSans-6c" x="244.429688"/>
     </g>
    </g>
    <g id="PathCollection_14">
     <defs>
      <path id="m5439d7a038" d="M 0 3 
C 0.795609 3 1.55874 2.683901 2.12132 2.12132 
C 2.683901 1.55874 3 0.795609 3 0 
C 3 -0.795609 2.683901 -1.55874 2.12132 -2.12132 
C 1.55874 -2.683901 0.795609 -3 0 -3 
C -0.795609 -3 -1.55874 -2.683901 -2.12132 -2.12132 
C -2.683901 -1.55874 -3 -0.795609 -3 0 
C -3 0.795609 -2.683901 1.55874 -2.12132 2.12132 
C -1.55874 2.683901 -0.795609 3 0 3 
z
" style="stroke: #2ca02c"/>
     </defs>
     <g>
      <use xlink:href="#m5439d7a038" x="56.96725" y="47.457422" style="fill: #2ca02c; stroke: #2ca02c"/>
     </g>
    </g>
    <g id="text_23">
     <!-- accuracy -->
     <g transform="translate(69.45925 49.279172)scale(0.0694 -0.0694)">
      <defs>
       <path id="DejaVuSans-75" d="M 544 1381 
L 544 3500 
L 1119 3500 
L 1119 1403 
Q 1119 906 1312 657 
Q 1506 409 1894 409 
Q 2359 409 2629 706 
Q 2900 1003 2900 1516 
L 2900 3500 
L 3475 3500 
L 3475 0 
L 2900 0 
L 2900 538 
Q 2691 219 2414 64 
Q 2138 -91 1772 -91 
Q 1169 -91 856 284 
Q 544 659 544 1381 
z
M 1991 3584 
L 1991 3584 
z
" transform="scale(0.015625)"/>
       <path id="DejaVuSans-79" d="M 2059 -325 
Q 1816 -950 1584 -1140 
Q 1353 -1331 966 -1331 
L 506 -1331 
L 506 -850 
L 844 -850 
Q 1081 -850 1212 -737 
Q 1344 -625 1503 -206 
L 1606 56 
L 191 3500 
L 800 3500 
L 1894 763 
L 2988 3500 
L 3597 3500 
L 2059 -325 
z
" transform="scale(0.015625)"/>
      </defs>
      <use xlink:href="#DejaVuSans-61"/>
      <use xlink:href="#DejaVuSans-63" x="61.279297"/>
      <use xlink:href="#DejaVuSans-63" x="116.259766"/>
      <use xlink:href="#DejaVuSans-75" x="171.240234"/>
      <use xlink:href="#DejaVuSans-72" x="234.619141"/>
      <use xlink:href="#DejaVuSans-61" x="275.732422"/>
      <use xlink:href="#DejaVuSans-63" x="337.011719"/>
      <use xlink:href="#DejaVuSans-79" x="391.992188"/>
     </g>
    </g>
    <g id="PathCollection_15">
     <defs>
      <path id="mcdd772fde0" d="M 0 3 
C 0.795609 3 1.55874 2.683901 2.12132 2.12132 
C 2.683901 1.55874 3 0.795609 3 0 
C 3 -0.795609 2.683901 -1.55874 2.12132 -2.12132 
C 1.55874 -2.683901 0.795609 -3 0 -3 
C -0.795609 -3 -1.55874 -2.683901 -2.12132 -2.12132 
C -2.683901 -1.55874 -3 -0.795609 -3 0 
C -3 0.795609 -2.683901 1.55874 -2.12132 2.12132 
C -1.55874 2.683901 -0.795609 3 0 3 
z
" style="stroke: #d62728"/>
     </defs>
     <g>
      <use xlink:href="#mcdd772fde0" x="56.96725" y="57.644041" style="fill: #d62728; stroke: #d62728"/>
     </g>
    </g>
    <g id="text_24">
     <!-- f1 -->
     <g transform="translate(69.45925 59.465791)scale(0.0694 -0.0694)">
      <defs>
       <path id="DejaVuSans-66" d="M 2375 4863 
L 2375 4384 
L 1825 4384 
Q 1516 4384 1395 4259 
Q 1275 4134 1275 3809 
L 1275 3500 
L 2222 3500 
L 2222 3053 
L 1275 3053 
L 1275 0 
L 697 0 
L 697 3053 
L 147 3053 
L 147 3500 
L 697 3500 
L 697 3744 
Q 697 4328 969 4595 
Q 1241 4863 1831 4863 
L 2375 4863 
z
" transform="scale(0.015625)"/>
      </defs>
      <use xlink:href="#DejaVuSans-66"/>
      <use xlink:href="#DejaVuSans-31" x="35.205078"/>
     </g>
    </g>
    <g id="text_25">
     <!-- ncols -->
     <g transform="translate(69.45925 69.652409)scale(0.0694 -0.0694)">
      <use xlink:href="#DejaVuSans-6e"/>
      <use xlink:href="#DejaVuSans-63" x="63.378906"/>
      <use xlink:href="#DejaVuSans-6f" x="118.359375"/>
      <use xlink:href="#DejaVuSans-6c" x="179.541016"/>
      <use xlink:href="#DejaVuSans-73" x="207.324219"/>
     </g>
    </g>
    <g id="PathCollection_16">
     <defs>
      <path id="ma99b263657" d="M 0 3.307189 
C 0.877077 3.307189 1.718349 2.958723 2.338536 2.338536 
C 2.958723 1.718349 3.307189 0.877077 3.307189 0 
C 3.307189 -0.877077 2.958723 -1.718349 2.338536 -2.338536 
C 1.718349 -2.958723 0.877077 -3.307189 0 -3.307189 
C -0.877077 -3.307189 -1.718349 -2.958723 -2.338536 -2.338536 
C -2.958723 -1.718349 -3.307189 -0.877077 -3.307189 0 
C -3.307189 0.877077 -2.958723 1.718349 -2.338536 2.338536 
C -1.718349 2.958723 -0.877077 3.307189 0 3.307189 
z
" style="stroke: #333333"/>
     </defs>
     <g>
      <use xlink:href="#ma99b263657" x="56.96725" y="78.017278" style="fill: #333333; stroke: #333333"/>
     </g>
    </g>
    <g id="text_26">
     <!-- 8 -->
     <g transform="translate(69.45925 79.839028)scale(0.0694 -0.0694)">
      <use xlink:href="#DejaVuSans-38"/>
     </g>
    </g>
    <g id="PathCollection_17">
     <defs>
      <path id="mbd8609cf07" d="M 0 3.66572 
C 0.97216 3.66572 1.904634 3.279476 2.592055 2.592055 
C 3.279476 1.904634 3.66572 0.97216 3.66572 0 
C 3.66572 -0.97216 3.279476 -1.904634 2.592055 -2.592055 
C 1.904634 -3.279476 0.97216 -3.66572 0 -3.66572 
C -0.97216 -3.66572 -1.904634 -3.279476 -2.592055 -2.592055 
C -3.279476 -1.904634 -3.66572 -0.97216 -3.66572 0 
C -3.66572 0.97216 -3.279476 1.904634 -2.592055 2.592055 
C -1.904634 3.279476 -0.97216 3.66572 0 3.66572 
z
" style="stroke: #333333"/>
     </defs>
     <g>
      <use xlink:href="#mbd8609cf07" x="56.96725" y="88.203897" style="fill: #333333; stroke: #333333"/>
     </g>
    </g>
    <g id="text_27">
     <!-- 16 -->
     <g transform="translate(69.45925 90.025647)scale(0.0694 -0.0694)">
      <use xlink:href="#DejaVuSans-31"/>
      <use xlink:href="#DejaVuSans-36" x="63.623047"/>
     </g>
    </g>
    <g id="PathCollection_18">
     <defs>
      <path id="m33d0944c14" d="M 0 3.99218 
C 1.058738 3.99218 2.074256 3.571539 2.822897 2.822897 
C 3.571539 2.074256 3.99218 1.058738 3.99218 0 
C 3.99218 -1.058738 3.571539 -2.074256 2.822897 -2.822897 
C 2.074256 -3.571539 1.058738 -3.99218 0 -3.99218 
C -1.058738 -3.99218 -2.074256 -3.571539 -2.822897 -2.822897 
C -3.571539 -2.074256 -3.99218 -1.058738 -3.99218 0 
C -3.99218 1.058738 -3.571539 2.074256 -2.822897 2.822897 
C -2.074256 3.571539 -1.058738 3.99218 0 3.99218 
z
" style="stroke: #333333"/>
     </defs>
     <g>
      <use xlink:href="#m33d0944c14" x="56.96725" y="98.390516" style="fill: #333333; stroke: #333333"/>
     </g>
    </g>
    <g id="text_28">
     <!-- 24 -->
     <g transform="translate(69.45925 100.212266)scale(0.0694 -0.0694)">
      <use xlink:href="#DejaVuSans-32"/>
      <use xlink:href="#DejaVuSans-34" x="63.623047"/>
     </g>
    </g>
    <g id="PathCollection_19">
     <defs>
      <path id="maf5989a1f2" d="M 0 4.293891 
C 1.138753 4.293891 2.231019 3.84146 3.036239 3.036239 
C 3.84146 2.231019 4.293891 1.138753 4.293891 0 
C 4.293891 -1.138753 3.84146 -2.231019 3.036239 -3.036239 
C 2.231019 -3.84146 1.138753 -4.293891 0 -4.293891 
C -1.138753 -4.293891 -2.231019 -3.84146 -3.036239 -3.036239 
C -3.84146 -2.231019 -4.293891 -1.138753 -4.293891 0 
C -4.293891 1.138753 -3.84146 2.231019 -3.036239 3.036239 
C -2.231019 3.84146 -1.138753 4.293891 0 4.293891 
z
" style="stroke: #333333"/>
     </defs>
     <g>
      <use xlink:href="#maf5989a1f2" x="56.96725" y="108.577134" style="fill: #333333; stroke: #333333"/>
     </g>
    </g>
    <g id="text_29">
     <!-- 32 -->
     <g transform="translate(69.45925 110.398884)scale(0.0694 -0.0694)">
      <use xlink:href="#DejaVuSans-33"/>
      <use xlink:href="#DejaVuSans-32" x="63.623047"/>
     </g>
    </g>
    <g id="PathCollection_20">
     <defs>
      <path id="m034ae01840" d="M 0 4.575751 
C 1.213503 4.575751 2.377468 4.093621 3.235545 3.235545 
C 4.093621 2.377468 4.575751 1.213503 4.575751 0 
C 4.575751 -1.213503 4.093621 -2.377468 3.235545 -3.235545 
C 2.377468 -4.093621 1.213503 -4.575751 0 -4.575751 
C -1.213503 -4.575751 -2.377468 -4.093621 -3.235545 -3.235545 
C -4.093621 -2.377468 -4.575751 -1.213503 -4.575751 0 
C -4.575751 1.213503 -4.093621 2.377468 -3.235545 3.235545 
C -2.377468 4.093621 -1.213503 4.575751 0 4.575751 
z
" style="stroke: #333333"/>
     </defs>
     <g>
      <use xlink:href="#m034ae01840" x="56.96725" y="118.763753" style="fill: #333333; stroke: #333333"/>
     </g>
    </g>
    <g id="text_30">
     <!-- 40 -->
     <g transform="translate(69.45925 120.585503)scale(0.0694 -0.0694)">
      <use xlink:href="#DejaVuSans-34"/>
      <use xlink:href="#DejaVuSans-30" x="63.623047"/>
     </g>
    </g>
    <g id="PathCollection_21">
     <defs>
      <path id="m006bf60166" d="M 0 4.841229 
C 1.283909 4.841229 2.515405 4.331127 3.423266 3.423266 
C 4.331127 2.515405 4.841229 1.283909 4.841229 0 
C 4.841229 -1.283909 4.331127 -2.515405 3.423266 -3.423266 
C 2.515405 -4.331127 1.283909 -4.841229 0 -4.841229 
C -1.283909 -4.841229 -2.515405 -4.331127 -3.423266 -3.423266 
C -4.331127 -2.515405 -4.841229 -1.283909 -4.841229 0 
C -4.841229 1.283909 -4.331127 2.515405 -3.423266 3.423266 
C -2.515405 4.331127 -1.283909 4.841229 0 4.841229 
z
" style="stroke: #333333"/>
     </defs>
     <g>
      <use xlink:href="#m006bf60166" x="56.96725" y="128.950372" style="fill: #333333; stroke: #333333"/>
     </g>
    </g>
    <g id="text_31">
     <!-- 48 -->
     <g transform="translate(69.45925 130.772122)scale(0.0694 -0.0694)">
      <use xlink:href="#DejaVuSans-34"/>
      <use xlink:href="#DejaVuSans-38" x="63.623047"/>
     </g>
    </g>
   </g>
  </g>
 </g>
 <defs>
  <clipPath id="p3f5c5dd2ee">
   <rect x="43.78125" y="7.2" width="357.12" height="266.112"/>
  </clipPath>
 </defs>
</svg>
