<?xml version="1.0" encoding="utf-8" standalone="no"?>
<!DOCTYPE svg PUBLIC "-//W3C//DTD SVG 1.1//EN"
  "http://www.w3.org/Graphics/SVG/1.1/DTD/svg11.dtd">
<svg xmlns:xlink="http://www.w3.org/1999/xlink" width="408.10125pt" height="310.86825pt" viewBox="0 0 408.10125 310.86825" xmlns="http://www.w3.org/2000/svg" version="1.1">
 <metadata>
  <rdf:RDF xmlns:dc="http://purl.org/dc/elements/1.1/" xmlns:cc="http://creativecommons.org/ns#" xmlns:rdf="http://www.w3.org/1999/02/22-rdf-syntax-ns#">
   <cc:Work>
    <dc:type rdf:resource="http://purl.org/dc/dcmitype/StillImage"/>
    <dc:date>2022-04-06T14:52:48.170142</dc:date>
    <dc:format>image/svg+xml</dc:format>
    <dc:creator>
     <cc:Agent>
      <dc:title>Matplotlib v3.5.1, https://matplotlib.org/</dc:title>
     </cc:Agent>
    </dc:creator>
   </cc:Work>
  </rdf:RDF>
 </metadata>
 <defs>
  <style type="text/css">*{stroke-linejoin: round; stroke-linecap: butt}</style>
 </defs>
 <g id="figure_1">
  <g id="patch_1">
   <path d="M 0 310.86825 
L 408.10125 310.86825 
L 408.10125 0 
L 0 0 
z
" style="fill: #ffffff"/>
  </g>
  <g id="axes_1">
   <g id="patch_2">
    <path d="M 43.78125 273.312 
L 400.90125 273.312 
L 400.90125 7.2 
L 43.78125 7.2 
z
" style="fill: #ffffff"/>
   </g>
   <g id="PathCollection_1">
    <path d="M 384.668523 171.688924 
C 385.787809 171.688924 386.861402 171.244227 387.652857 170.452772 
C 388.444311 169.661318 388.889008 168.587724 388.889008 167.468438 
C 388.889008 166.349152 388.444311 165.275559 387.652857 164.484104 
C 386.861402 163.692649 385.787809 163.247952 384.668523 163.247952 
C 383.549237 163.247952 382.475643 163.692649 381.684189 164.484104 
C 380.892734 165.275559 380.448037 166.349152 380.448037 167.468438 
C 380.448037 168.587724 380.892734 169.661318 381.684189 170.452772 
C 382.475643 171.244227 383.549237 171.688924 384.668523 171.688924 
z
" clip-path="url(#pedeece53b8)" style="fill: #2ca02c; stroke: #ffffff; stroke-width: 0.525357"/>
    <path d="M 384.668523 167.218204 
C 385.787809 167.218204 386.861402 166.773507 387.652857 165.982052 
C 388.444311 165.190597 388.889008 164.117004 388.889008 162.997718 
C 388.889008 161.878432 388.444311 160.804839 387.652857 160.013384 
C 386.861402 159.221929 385.787809 158.777232 384.668523 158.777232 
C 383.549237 158.777232 382.475643 159.221929 381.684189 160.013384 
C 380.892734 160.804839 380.448037 161.878432 380.448037 162.997718 
C 380.448037 164.117004 380.892734 165.190597 381.684189 165.982052 
C 382.475643 166.773507 383.549237 167.218204 384.668523 167.218204 
z
" clip-path="url(#pedeece53b8)" style="fill: #1f77b4; stroke: #ffffff; stroke-width: 0.525357"/>
    <path d="M 384.668523 23.516486 
C 385.787809 23.516486 386.861402 23.071789 387.652857 22.280334 
C 388.444311 21.488879 388.889008 20.415286 388.889008 19.296 
C 388.889008 18.176714 388.444311 17.103121 387.652857 16.311666 
C 386.861402 15.520211 385.787809 15.075514 384.668523 15.075514 
C 383.549237 15.075514 382.475643 15.520211 381.684189 16.311666 
C 380.892734 17.103121 380.448037 18.176714 380.448037 19.296 
C 380.448037 20.415286 380.892734 21.488879 381.684189 22.280334 
C 382.475643 23.071789 383.549237 23.516486 384.668523 23.516486 
z
" clip-path="url(#pedeece53b8)" style="fill: #ff7f0e; stroke: #ffffff; stroke-width: 0.525357"/>
    <path d="M 384.668523 120.431598 
C 385.787809 120.431598 386.861402 119.986901 387.652857 119.195446 
C 388.444311 118.403992 388.889008 117.330398 388.889008 116.211112 
C 388.889008 115.091826 388.444311 114.018233 387.652857 113.226778 
C 386.861402 112.435323 385.787809 111.990626 384.668523 111.990626 
C 383.549237 111.990626 382.475643 112.435323 381.684189 113.226778 
C 380.892734 114.018233 380.448037 115.091826 380.448037 116.211112 
C 380.448037 117.330398 380.892734 118.403992 381.684189 119.195446 
C 382.475643 119.986901 383.549237 120.431598 384.668523 120.431598 
z
" clip-path="url(#pedeece53b8)" style="fill: #d62728; stroke: #ffffff; stroke-width: 0.525357"/>
    <path d="M 344.086705 206.151324 
C 345.41272 206.151324 346.684604 205.624492 347.622238 204.686858 
C 348.559873 203.749223 349.086705 202.477339 349.086705 201.151324 
C 349.086705 199.825308 348.559873 198.553424 347.622238 197.61579 
C 346.684604 196.678155 345.41272 196.151324 344.086705 196.151324 
C 342.760689 196.151324 341.488805 196.678155 340.551171 197.61579 
C 339.613536 198.553424 339.086705 199.825308 339.086705 201.151324 
C 339.086705 202.477339 339.613536 203.749223 340.551171 204.686858 
C 341.488805 205.624492 342.760689 206.151324 344.086705 206.151324 
z
" clip-path="url(#pedeece53b8)" style="fill: #2ca02c; stroke: #ffffff; stroke-width: 0.525357"/>
    <path d="M 344.086705 193.90009 
C 345.41272 193.90009 346.684604 193.373258 347.622238 192.435624 
C 348.559873 191.497989 349.086705 190.226105 349.086705 188.90009 
C 349.086705 187.574074 348.559873 186.302191 347.622238 185.364556 
C 346.684604 184.426921 345.41272 183.90009 344.086705 183.90009 
C 342.760689 183.90009 341.488805 184.426921 340.551171 185.364556 
C 339.613536 186.302191 339.086705 187.574074 339.086705 188.90009 
C 339.086705 190.226105 339.613536 191.497989 340.551171 192.435624 
C 341.488805 193.373258 342.760689 193.90009 344.086705 193.90009 
z
" clip-path="url(#pedeece53b8)" style="fill: #1f77b4; stroke: #ffffff; stroke-width: 0.525357"/>
    <path d="M 344.086705 80.975674 
C 345.41272 80.975674 346.684604 80.448843 347.622238 79.511208 
C 348.559873 78.573574 349.086705 77.30169 349.086705 75.975674 
C 349.086705 74.649659 348.559873 73.377775 347.622238 72.44014 
C 346.684604 71.502506 345.41272 70.975674 344.086705 70.975674 
C 342.760689 70.975674 341.488805 71.502506 340.551171 72.44014 
C 339.613536 73.377775 339.086705 74.649659 339.086705 75.975674 
C 339.086705 77.30169 339.613536 78.573574 340.551171 79.511208 
C 341.488805 80.448843 342.760689 80.975674 344.086705 80.975674 
z
" clip-path="url(#pedeece53b8)" style="fill: #ff7f0e; stroke: #ffffff; stroke-width: 0.525357"/>
    <path d="M 344.086705 156.796353 
C 345.41272 156.796353 346.684604 156.269522 347.622238 155.331887 
C 348.559873 154.394253 349.086705 153.122369 349.086705 151.796353 
C 349.086705 150.470338 348.559873 149.198454 347.622238 148.260819 
C 346.684604 147.323185 345.41272 146.796353 344.086705 146.796353 
C 342.760689 146.796353 341.488805 147.323185 340.551171 148.260819 
C 339.613536 149.198454 339.086705 150.470338 339.086705 151.796353 
C 339.086705 153.122369 339.613536 154.394253 340.551171 155.331887 
C 341.488805 156.269522 342.760689 156.796353 344.086705 156.796353 
z
" clip-path="url(#pedeece53b8)" style="fill: #d62728; stroke: #ffffff; stroke-width: 0.525357"/>
    <path d="M 60.013977 240.44273 
C 60.852623 240.44273 61.657033 240.109532 62.250045 239.51652 
C 62.843057 238.923508 63.176255 238.119098 63.176255 237.280452 
C 63.176255 236.441806 62.843057 235.637396 62.250045 235.044384 
C 61.657033 234.451372 60.852623 234.118175 60.013977 234.118175 
C 59.175331 234.118175 58.370921 234.451372 57.777909 235.044384 
C 57.184897 235.637396 56.8517 236.441806 56.8517 237.280452 
C 56.8517 238.119098 57.184897 238.923508 57.777909 239.51652 
C 58.370921 240.109532 59.175331 240.44273 60.013977 240.44273 
z
" clip-path="url(#pedeece53b8)" style="fill: #2ca02c; stroke: #ffffff; stroke-width: 0.525357"/>
    <path d="M 60.013977 200.55015 
C 60.852623 200.55015 61.657033 200.216953 62.250045 199.623941 
C 62.843057 199.030929 63.176255 198.226519 63.176255 197.387873 
C 63.176255 196.549227 62.843057 195.744817 62.250045 195.151805 
C 61.657033 194.558793 60.852623 194.225595 60.013977 194.225595 
C 59.175331 194.225595 58.370921 194.558793 57.777909 195.151805 
C 57.184897 195.744817 56.8517 196.549227 56.8517 197.387873 
C 56.8517 198.226519 57.184897 199.030929 57.777909 199.623941 
C 58.370921 200.216953 59.175331 200.55015 60.013977 200.55015 
z
" clip-path="url(#pedeece53b8)" style="fill: #1f77b4; stroke: #ffffff; stroke-width: 0.525357"/>
    <path d="M 60.013977 200.55015 
C 60.852623 200.55015 61.657033 200.216953 62.250045 199.623941 
C 62.843057 199.030929 63.176255 198.226519 63.176255 197.387873 
C 63.176255 196.549227 62.843057 195.744817 62.250045 195.151805 
C 61.657033 194.558793 60.852623 194.225595 60.013977 194.225595 
C 59.175331 194.225595 58.370921 194.558793 57.777909 195.151805 
C 57.184897 195.744817 56.8517 196.549227 56.8517 197.387873 
C 56.8517 198.226519 57.184897 199.030929 57.777909 199.623941 
C 58.370921 200.216953 59.175331 200.55015 60.013977 200.55015 
z
" clip-path="url(#pedeece53b8)" style="fill: #ff7f0e; stroke: #ffffff; stroke-width: 0.525357"/>
    <path d="M 60.013977 200.55015 
C 60.852623 200.55015 61.657033 200.216953 62.250045 199.623941 
C 62.843057 199.030929 63.176255 198.226519 63.176255 197.387873 
C 63.176255 196.549227 62.843057 195.744817 62.250045 195.151805 
C 61.657033 194.558793 60.852623 194.225595 60.013977 194.225595 
C 59.175331 194.225595 58.370921 194.558793 57.777909 195.151805 
C 57.184897 195.744817 56.8517 196.549227 56.8517 197.387873 
C 56.8517 198.226519 57.184897 199.030929 57.777909 199.623941 
C 58.370921 200.216953 59.175331 200.55015 60.013977 200.55015 
z
" clip-path="url(#pedeece53b8)" style="fill: #d62728; stroke: #ffffff; stroke-width: 0.525357"/>
    <path d="M 100.595795 210.761385 
C 101.497583 210.761385 102.362558 210.403101 103.000218 209.765441 
C 103.637879 209.12778 103.996163 208.262806 103.996163 207.361018 
C 103.996163 206.45923 103.637879 205.594255 103.000218 204.956595 
C 102.362558 204.318934 101.497583 203.96065 100.595795 203.96065 
C 99.694007 203.96065 98.829033 204.318934 98.191372 204.956595 
C 97.553712 205.594255 97.195428 206.45923 97.195428 207.361018 
C 97.195428 208.262806 97.553712 209.12778 98.191372 209.765441 
C 98.829033 210.403101 99.694007 210.761385 100.595795 210.761385 
z
" clip-path="url(#pedeece53b8)" style="fill: #2ca02c; stroke: #ffffff; stroke-width: 0.525357"/>
    <path d="M 100.595795 150.922516 
C 101.497583 150.922516 102.362558 150.564232 103.000218 149.926571 
C 103.637879 149.288911 103.996163 148.423936 103.996163 147.522148 
C 103.996163 146.62036 103.637879 145.755386 103.000218 145.117725 
C 102.362558 144.480065 101.497583 144.121781 100.595795 144.121781 
C 99.694007 144.121781 98.829033 144.480065 98.191372 145.117725 
C 97.553712 145.755386 97.195428 146.62036 97.195428 147.522148 
C 97.195428 148.423936 97.553712 149.288911 98.191372 149.926571 
C 98.829033 150.564232 99.694007 150.922516 100.595795 150.922516 
z
" clip-path="url(#pedeece53b8)" style="fill: #1f77b4; stroke: #ffffff; stroke-width: 0.525357"/>
    <path d="M 100.595795 172.293541 
C 101.497583 172.293541 102.362558 171.935257 103.000218 171.297596 
C 103.637879 170.659936 103.996163 169.794961 103.996163 168.893173 
C 103.996163 167.991385 103.637879 167.126411 103.000218 166.48875 
C 102.362558 165.85109 101.497583 165.492806 100.595795 165.492806 
C 99.694007 165.492806 98.829033 165.85109 98.191372 166.48875 
C 97.553712 167.126411 97.195428 167.991385 97.195428 168.893173 
C 97.195428 169.794961 97.553712 170.659936 98.191372 171.297596 
C 98.829033 171.935257 99.694007 172.293541 100.595795 172.293541 
z
" clip-path="url(#pedeece53b8)" style="fill: #ff7f0e; stroke: #ffffff; stroke-width: 0.525357"/>
    <path d="M 100.595795 162.429991 
C 101.497583 162.429991 102.362558 162.071707 103.000218 161.434046 
C 103.637879 160.796386 103.996163 159.931411 103.996163 159.029623 
C 103.996163 158.127835 103.637879 157.262861 103.000218 156.6252 
C 102.362558 155.98754 101.497583 155.629256 100.595795 155.629256 
C 99.694007 155.629256 98.829033 155.98754 98.191372 156.6252 
C 97.553712 157.262861 97.195428 158.127835 97.195428 159.029623 
C 97.195428 159.931411 97.553712 160.796386 98.191372 161.434046 
C 98.829033 162.071707 99.694007 162.429991 100.595795 162.429991 
z
" clip-path="url(#pedeece53b8)" style="fill: #d62728; stroke: #ffffff; stroke-width: 0.525357"/>
    <path d="M 141.177614 231.610006 
C 142.115248 231.610006 143.014606 231.23748 143.677614 230.574472 
C 144.340621 229.911465 144.713148 229.012107 144.713148 228.074472 
C 144.713148 227.136838 144.340621 226.23748 143.677614 225.574472 
C 143.014606 224.911465 142.115248 224.538939 141.177614 224.538939 
C 140.239979 224.538939 139.340621 224.911465 138.677614 225.574472 
C 138.014606 226.23748 137.64208 227.136838 137.64208 228.074472 
C 137.64208 229.012107 138.014606 229.911465 138.677614 230.574472 
C 139.340621 231.23748 140.239979 231.610006 141.177614 231.610006 
z
" clip-path="url(#pedeece53b8)" style="fill: #2ca02c; stroke: #ffffff; stroke-width: 0.525357"/>
    <path d="M 141.177614 200.923407 
C 142.115248 200.923407 143.014606 200.550881 143.677614 199.887873 
C 144.340621 199.224865 144.713148 198.325507 144.713148 197.387873 
C 144.713148 196.450238 144.340621 195.550881 143.677614 194.887873 
C 143.014606 194.224865 142.115248 193.852339 141.177614 193.852339 
C 140.239979 193.852339 139.340621 194.224865 138.677614 194.887873 
C 138.014606 195.550881 137.64208 196.450238 137.64208 197.387873 
C 137.64208 198.325507 138.014606 199.224865 138.677614 199.887873 
C 139.340621 200.550881 140.239979 200.923407 141.177614 200.923407 
z
" clip-path="url(#pedeece53b8)" style="fill: #1f77b4; stroke: #ffffff; stroke-width: 0.525357"/>
    <path d="M 141.177614 172.428707 
C 142.115248 172.428707 143.014606 172.056181 143.677614 171.393173 
C 144.340621 170.730165 144.713148 169.830808 144.713148 168.893173 
C 144.713148 167.955539 144.340621 167.056181 143.677614 166.393173 
C 143.014606 165.730165 142.115248 165.357639 141.177614 165.357639 
C 140.239979 165.357639 139.340621 165.730165 138.677614 166.393173 
C 138.014606 167.056181 137.64208 167.955539 137.64208 168.893173 
C 137.64208 169.830808 138.014606 170.730165 138.677614 171.393173 
C 139.340621 172.056181 140.239979 172.428707 141.177614 172.428707 
z
" clip-path="url(#pedeece53b8)" style="fill: #ff7f0e; stroke: #ffffff; stroke-width: 0.525357"/>
    <path d="M 141.177614 188.456976 
C 142.115248 188.456976 143.014606 188.084449 143.677614 187.421442 
C 144.340621 186.758434 144.713148 185.859076 144.713148 184.921442 
C 144.713148 183.983807 144.340621 183.084449 143.677614 182.421442 
C 143.014606 181.758434 142.115248 181.385908 141.177614 181.385908 
C 140.239979 181.385908 139.340621 181.758434 138.677614 182.421442 
C 138.014606 183.084449 137.64208 183.983807 137.64208 184.921442 
C 137.64208 185.859076 138.014606 186.758434 138.677614 187.421442 
C 139.340621 188.084449 140.239979 188.456976 141.177614 188.456976 
z
" clip-path="url(#pedeece53b8)" style="fill: #d62728; stroke: #ffffff; stroke-width: 0.525357"/>
    <path d="M 181.759432 251.003597 
C 182.753943 251.003597 183.707856 250.608474 184.411082 249.905248 
C 185.114308 249.202022 185.509432 248.248109 185.509432 247.253597 
C 185.509432 246.259086 185.114308 245.305173 184.411082 244.601947 
C 183.707856 243.898721 182.753943 243.503597 181.759432 243.503597 
C 180.76492 243.503597 179.811007 243.898721 179.107781 244.601947 
C 178.404555 245.305173 178.009432 246.259086 178.009432 247.253597 
C 178.009432 248.248109 178.404555 249.202022 179.107781 249.905248 
C 179.811007 250.608474 180.76492 251.003597 181.759432 251.003597 
z
" clip-path="url(#pedeece53b8)" style="fill: #2ca02c; stroke: #ffffff; stroke-width: 0.525357"/>
    <path d="M 181.759432 231.824472 
C 182.753943 231.824472 183.707856 231.429349 184.411082 230.726123 
C 185.114308 230.022897 185.509432 229.068984 185.509432 228.074472 
C 185.509432 227.079961 185.114308 226.126048 184.411082 225.422822 
C 183.707856 224.719596 182.753943 224.324472 181.759432 224.324472 
C 180.76492 224.324472 179.811007 224.719596 179.107781 225.422822 
C 178.404555 226.126048 178.009432 227.079961 178.009432 228.074472 
C 178.009432 229.068984 178.404555 230.022897 179.107781 230.726123 
C 179.811007 231.429349 180.76492 231.824472 181.759432 231.824472 
z
" clip-path="url(#pedeece53b8)" style="fill: #1f77b4; stroke: #ffffff; stroke-width: 0.525357"/>
    <path d="M 181.759432 188.671442 
C 182.753943 188.671442 183.707856 188.276318 184.411082 187.573092 
C 185.114308 186.869866 185.509432 185.915953 185.509432 184.921442 
C 185.509432 183.92693 185.114308 182.973017 184.411082 182.269791 
C 183.707856 181.566565 182.753943 181.171442 181.759432 181.171442 
C 180.76492 181.171442 179.811007 181.566565 179.107781 182.269791 
C 178.404555 182.973017 178.009432 183.92693 178.009432 184.921442 
C 178.009432 185.915953 178.404555 186.869866 179.107781 187.573092 
C 179.811007 188.276318 180.76492 188.671442 181.759432 188.671442 
z
" clip-path="url(#pedeece53b8)" style="fill: #ff7f0e; stroke: #ffffff; stroke-width: 0.525357"/>
    <path d="M 181.759432 215.385223 
C 182.753943 215.385223 183.707856 214.990099 184.411082 214.286873 
C 185.114308 213.583647 185.509432 212.629734 185.509432 211.635223 
C 185.509432 210.640711 185.114308 209.686798 184.411082 208.983572 
C 183.707856 208.280346 182.753943 207.885223 181.759432 207.885223 
C 180.76492 207.885223 179.811007 208.280346 179.107781 208.983572 
C 178.404555 209.686798 178.009432 210.640711 178.009432 211.635223 
C 178.009432 212.629734 178.404555 213.583647 179.107781 214.286873 
C 179.811007 214.990099 180.76492 215.385223 181.759432 215.385223 
z
" clip-path="url(#pedeece53b8)" style="fill: #d62728; stroke: #ffffff; stroke-width: 0.525357"/>
    <path d="M 222.34125 265.247129 
C 223.410318 265.247129 224.435743 264.822384 225.191689 264.066439 
C 225.947634 263.310493 226.372379 262.285068 226.372379 261.216 
C 226.372379 260.146932 225.947634 259.121507 225.191689 258.365561 
C 224.435743 257.609616 223.410318 257.184871 222.34125 257.184871 
C 221.272182 257.184871 220.246757 257.609616 219.490811 258.365561 
C 218.734866 259.121507 218.310121 260.146932 218.310121 261.216 
C 218.310121 262.285068 218.734866 263.310493 219.490811 264.066439 
C 220.246757 264.822384 221.272182 265.247129 222.34125 265.247129 
z
" clip-path="url(#pedeece53b8)" style="fill: #2ca02c; stroke: #ffffff; stroke-width: 0.525357"/>
    <path d="M 222.34125 253.909238 
C 223.410318 253.909238 224.435743 253.484493 225.191689 252.728548 
C 225.947634 251.972602 226.372379 250.947177 226.372379 249.878109 
C 226.372379 248.809041 225.947634 247.783616 225.191689 247.02767 
C 224.435743 246.271725 223.410318 245.84698 222.34125 245.84698 
C 221.272182 245.84698 220.246757 246.271725 219.490811 247.02767 
C 218.734866 247.783616 218.310121 248.809041 218.310121 249.878109 
C 218.310121 250.947177 218.734866 251.972602 219.490811 252.728548 
C 220.246757 253.484493 221.272182 253.909238 222.34125 253.909238 
z
" clip-path="url(#pedeece53b8)" style="fill: #1f77b4; stroke: #ffffff; stroke-width: 0.525357"/>
    <path d="M 222.34125 201.419002 
C 223.410318 201.419002 224.435743 200.994256 225.191689 200.238311 
C 225.947634 199.482366 226.372379 198.456941 226.372379 197.387873 
C 226.372379 196.318805 225.947634 195.293379 225.191689 194.537434 
C 224.435743 193.781489 223.410318 193.356744 222.34125 193.356744 
C 221.272182 193.356744 220.246757 193.781489 219.490811 194.537434 
C 218.734866 195.293379 218.310121 196.318805 218.310121 197.387873 
C 218.310121 198.456941 218.734866 199.482366 219.490811 200.238311 
C 220.246757 200.994256 221.272182 201.419002 222.34125 201.419002 
z
" clip-path="url(#pedeece53b8)" style="fill: #ff7f0e; stroke: #ffffff; stroke-width: 0.525357"/>
    <path d="M 222.34125 237.037376 
C 223.410318 237.037376 224.435743 236.612631 225.191689 235.856686 
C 225.947634 235.100741 226.372379 234.075315 226.372379 233.006247 
C 226.372379 231.937179 225.947634 230.911754 225.191689 230.155809 
C 224.435743 229.399864 223.410318 228.975118 222.34125 228.975118 
C 221.272182 228.975118 220.246757 229.399864 219.490811 230.155809 
C 218.734866 230.911754 218.310121 231.937179 218.310121 233.006247 
C 218.310121 234.075315 218.734866 235.100741 219.490811 235.856686 
C 220.246757 236.612631 221.272182 237.037376 222.34125 237.037376 
z
" clip-path="url(#pedeece53b8)" style="fill: #d62728; stroke: #ffffff; stroke-width: 0.525357"/>
    <path d="M 262.923068 256.116972 
C 264.071431 256.116972 265.172915 255.660722 265.98493 254.848707 
C 266.796946 254.036692 267.253195 252.935208 267.253195 251.786845 
C 267.253195 250.638482 266.796946 249.536998 265.98493 248.724983 
C 265.172915 247.912967 264.071431 247.456718 262.923068 247.456718 
C 261.774705 247.456718 260.673221 247.912967 259.861206 248.724983 
C 259.049191 249.536998 258.592941 250.638482 258.592941 251.786845 
C 258.592941 252.935208 259.049191 254.036692 259.861206 254.848707 
C 260.673221 255.660722 261.774705 256.116972 262.923068 256.116972 
z
" clip-path="url(#pedeece53b8)" style="fill: #2ca02c; stroke: #ffffff; stroke-width: 0.525357"/>
    <path d="M 262.923068 246.043088 
C 264.071431 246.043088 265.172915 245.586839 265.98493 244.774823 
C 266.796946 243.962808 267.253195 242.861324 267.253195 241.712961 
C 267.253195 240.564598 266.796946 239.463114 265.98493 238.651099 
C 265.172915 237.839084 264.071431 237.382834 262.923068 237.382834 
C 261.774705 237.382834 260.673221 237.839084 259.861206 238.651099 
C 259.049191 239.463114 258.592941 240.564598 258.592941 241.712961 
C 258.592941 242.861324 259.049191 243.962808 259.861206 244.774823 
C 260.673221 245.586839 261.774705 246.043088 262.923068 246.043088 
z
" clip-path="url(#pedeece53b8)" style="fill: #1f77b4; stroke: #ffffff; stroke-width: 0.525357"/>
    <path d="M 262.923068 165.452018 
C 264.071431 165.452018 265.172915 164.995769 265.98493 164.183754 
C 266.796946 163.371738 267.253195 162.270255 267.253195 161.121891 
C 267.253195 159.973528 266.796946 158.872045 265.98493 158.060029 
C 265.172915 157.248014 264.071431 156.791764 262.923068 156.791764 
C 261.774705 156.791764 260.673221 157.248014 259.861206 158.060029 
C 259.049191 158.872045 258.592941 159.973528 258.592941 161.121891 
C 258.592941 162.270255 259.049191 163.371738 259.861206 164.183754 
C 260.673221 164.995769 261.774705 165.452018 262.923068 165.452018 
z
" clip-path="url(#pedeece53b8)" style="fill: #ff7f0e; stroke: #ffffff; stroke-width: 0.525357"/>
    <path d="M 262.923068 222.714094 
C 264.071431 222.714094 265.172915 222.257845 265.98493 221.445829 
C 266.796946 220.633814 267.253195 219.53233 267.253195 218.383967 
C 267.253195 217.235604 266.796946 216.13412 265.98493 215.322105 
C 265.172915 214.51009 264.071431 214.05384 262.923068 214.05384 
C 261.774705 214.05384 260.673221 214.51009 259.861206 215.322105 
C 259.049191 216.13412 258.592941 217.235604 258.592941 218.383967 
C 258.592941 219.53233 259.049191 220.633814 259.861206 221.445829 
C 260.673221 222.257845 261.774705 222.714094 262.923068 222.714094 
z
" clip-path="url(#pedeece53b8)" style="fill: #d62728; stroke: #ffffff; stroke-width: 0.525357"/>
    <path d="M 303.504886 208.780053 
C 304.762855 208.780053 305.96947 208.280256 306.858988 207.390738 
C 307.748507 206.50122 308.248303 205.294605 308.248303 204.036636 
C 308.248303 202.778667 307.748507 201.572052 306.858988 200.682534 
C 305.96947 199.793016 304.762855 199.29322 303.504886 199.29322 
C 302.246918 199.29322 301.040303 199.793016 300.150784 200.682534 
C 299.261266 201.572052 298.76147 202.778667 298.76147 204.036636 
C 298.76147 205.294605 299.261266 206.50122 300.150784 207.390738 
C 301.040303 208.280256 302.246918 208.780053 303.504886 208.780053 
z
" clip-path="url(#pedeece53b8)" style="fill: #2ca02c; stroke: #ffffff; stroke-width: 0.525357"/>
    <path d="M 303.504886 194.459639 
C 304.762855 194.459639 305.96947 193.959843 306.858988 193.070325 
C 307.748507 192.180807 308.248303 190.974192 308.248303 189.716223 
C 308.248303 188.458254 307.748507 187.251639 306.858988 186.362121 
C 305.96947 185.472603 304.762855 184.972806 303.504886 184.972806 
C 302.246918 184.972806 301.040303 185.472603 300.150784 186.362121 
C 299.261266 187.251639 298.76147 188.458254 298.76147 189.716223 
C 298.76147 190.974192 299.261266 192.180807 300.150784 193.070325 
C 301.040303 193.959843 302.246918 194.459639 303.504886 194.459639 
z
" clip-path="url(#pedeece53b8)" style="fill: #1f77b4; stroke: #ffffff; stroke-width: 0.525357"/>
    <path d="M 303.504886 92.426696 
C 304.762855 92.426696 305.96947 91.926899 306.858988 91.037381 
C 307.748507 90.147863 308.248303 88.941248 308.248303 87.683279 
C 308.248303 86.42531 307.748507 85.218695 306.858988 84.329177 
C 305.96947 83.439659 304.762855 82.939863 303.504886 82.939863 
C 302.246918 82.939863 301.040303 83.439659 300.150784 84.329177 
C 299.261266 85.218695 298.76147 86.42531 298.76147 87.683279 
C 298.76147 88.941248 299.261266 90.147863 300.150784 91.037381 
C 301.040303 91.926899 302.246918 92.426696 303.504886 92.426696 
z
" clip-path="url(#pedeece53b8)" style="fill: #ff7f0e; stroke: #ffffff; stroke-width: 0.525357"/>
    <path d="M 303.504886 159.872201 
C 304.762855 159.872201 305.96947 159.372405 306.858988 158.482886 
C 307.748507 157.593368 308.248303 156.386753 308.248303 155.128784 
C 308.248303 153.870816 307.748507 152.664201 306.858988 151.774682 
C 305.96947 150.885164 304.762855 150.385368 303.504886 150.385368 
C 302.246918 150.385368 301.040303 150.885164 300.150784 151.774682 
C 299.261266 152.664201 298.76147 153.870816 298.76147 155.128784 
C 298.76147 156.386753 299.261266 157.593368 300.150784 158.482886 
C 301.040303 159.372405 302.246918 159.872201 303.504886 159.872201 
z
" clip-path="url(#pedeece53b8)" style="fill: #d62728; stroke: #ffffff; stroke-width: 0.525357"/>
   </g>
   <g id="PathCollection_2"/>
   <g id="PathCollection_3"/>
   <g id="PathCollection_4"/>
   <g id="PathCollection_5"/>
   <g id="PathCollection_6"/>
   <g id="PathCollection_7"/>
   <g id="PathCollection_8"/>
   <g id="PathCollection_9"/>
   <g id="PathCollection_10"/>
   <g id="PathCollection_11"/>
   <g id="matplotlib.axis_1">
    <g id="xtick_1">
     <g id="line2d_1">
      <defs>
       <path id="m9982dfd8ee" d="M 0 0 
L 0 3.5 
" style="stroke: #000000; stroke-width: 0.8"/>
      </defs>
      <g>
       <use xlink:href="#m9982dfd8ee" x="60.013977" y="273.312" style="stroke: #000000; stroke-width: 0.8"/>
      </g>
     </g>
     <g id="text_1">
      <!-- 20 -->
      <g transform="translate(53.651477 287.910437)scale(0.1 -0.1)">
       <defs>
        <path id="DejaVuSans-32" d="M 1228 531 
L 3431 531 
L 3431 0 
L 469 0 
L 469 531 
Q 828 903 1448 1529 
Q 2069 2156 2228 2338 
Q 2531 2678 2651 2914 
Q 2772 3150 2772 3378 
Q 2772 3750 2511 3984 
Q 2250 4219 1831 4219 
Q 1534 4219 1204 4116 
Q 875 4013 500 3803 
L 500 4441 
Q 881 4594 1212 4672 
Q 1544 4750 1819 4750 
Q 2544 4750 2975 4387 
Q 3406 4025 3406 3419 
Q 3406 3131 3298 2873 
Q 3191 2616 2906 2266 
Q 2828 2175 2409 1742 
Q 1991 1309 1228 531 
z
" transform="scale(0.015625)"/>
        <path id="DejaVuSans-30" d="M 2034 4250 
Q 1547 4250 1301 3770 
Q 1056 3291 1056 2328 
Q 1056 1369 1301 889 
Q 1547 409 2034 409 
Q 2525 409 2770 889 
Q 3016 1369 3016 2328 
Q 3016 3291 2770 3770 
Q 2525 4250 2034 4250 
z
M 2034 4750 
Q 2819 4750 3233 4129 
Q 3647 3509 3647 2328 
Q 3647 1150 3233 529 
Q 2819 -91 2034 -91 
Q 1250 -91 836 529 
Q 422 1150 422 2328 
Q 422 3509 836 4129 
Q 1250 4750 2034 4750 
z
" transform="scale(0.015625)"/>
       </defs>
       <use xlink:href="#DejaVuSans-32"/>
       <use xlink:href="#DejaVuSans-30" x="63.623047"/>
      </g>
     </g>
    </g>
    <g id="xtick_2">
     <g id="line2d_2">
      <g>
       <use xlink:href="#m9982dfd8ee" x="100.595795" y="273.312" style="stroke: #000000; stroke-width: 0.8"/>
      </g>
     </g>
     <g id="text_2">
      <!-- 30 -->
      <g transform="translate(94.233295 287.910437)scale(0.1 -0.1)">
       <defs>
        <path id="DejaVuSans-33" d="M 2597 2516 
Q 3050 2419 3304 2112 
Q 3559 1806 3559 1356 
Q 3559 666 3084 287 
Q 2609 -91 1734 -91 
Q 1441 -91 1130 -33 
Q 819 25 488 141 
L 488 750 
Q 750 597 1062 519 
Q 1375 441 1716 441 
Q 2309 441 2620 675 
Q 2931 909 2931 1356 
Q 2931 1769 2642 2001 
Q 2353 2234 1838 2234 
L 1294 2234 
L 1294 2753 
L 1863 2753 
Q 2328 2753 2575 2939 
Q 2822 3125 2822 3475 
Q 2822 3834 2567 4026 
Q 2313 4219 1838 4219 
Q 1578 4219 1281 4162 
Q 984 4106 628 3988 
L 628 4550 
Q 988 4650 1302 4700 
Q 1616 4750 1894 4750 
Q 2613 4750 3031 4423 
Q 3450 4097 3450 3541 
Q 3450 3153 3228 2886 
Q 3006 2619 2597 2516 
z
" transform="scale(0.015625)"/>
       </defs>
       <use xlink:href="#DejaVuSans-33"/>
       <use xlink:href="#DejaVuSans-30" x="63.623047"/>
      </g>
     </g>
    </g>
    <g id="xtick_3">
     <g id="line2d_3">
      <g>
       <use xlink:href="#m9982dfd8ee" x="141.177614" y="273.312" style="stroke: #000000; stroke-width: 0.8"/>
      </g>
     </g>
     <g id="text_3">
      <!-- 40 -->
      <g transform="translate(134.815114 287.910437)scale(0.1 -0.1)">
       <defs>
        <path id="DejaVuSans-34" d="M 2419 4116 
L 825 1625 
L 2419 1625 
L 2419 4116 
z
M 2253 4666 
L 3047 4666 
L 3047 1625 
L 3713 1625 
L 3713 1100 
L 3047 1100 
L 3047 0 
L 2419 0 
L 2419 1100 
L 313 1100 
L 313 1709 
L 2253 4666 
z
" transform="scale(0.015625)"/>
       </defs>
       <use xlink:href="#DejaVuSans-34"/>
       <use xlink:href="#DejaVuSans-30" x="63.623047"/>
      </g>
     </g>
    </g>
    <g id="xtick_4">
     <g id="line2d_4">
      <g>
       <use xlink:href="#m9982dfd8ee" x="181.759432" y="273.312" style="stroke: #000000; stroke-width: 0.8"/>
      </g>
     </g>
     <g id="text_4">
      <!-- 50 -->
      <g transform="translate(175.396932 287.910437)scale(0.1 -0.1)">
       <defs>
        <path id="DejaVuSans-35" d="M 691 4666 
L 3169 4666 
L 3169 4134 
L 1269 4134 
L 1269 2991 
Q 1406 3038 1543 3061 
Q 1681 3084 1819 3084 
Q 2600 3084 3056 2656 
Q 3513 2228 3513 1497 
Q 3513 744 3044 326 
Q 2575 -91 1722 -91 
Q 1428 -91 1123 -41 
Q 819 9 494 109 
L 494 744 
Q 775 591 1075 516 
Q 1375 441 1709 441 
Q 2250 441 2565 725 
Q 2881 1009 2881 1497 
Q 2881 1984 2565 2268 
Q 2250 2553 1709 2553 
Q 1456 2553 1204 2497 
Q 953 2441 691 2322 
L 691 4666 
z
" transform="scale(0.015625)"/>
       </defs>
       <use xlink:href="#DejaVuSans-35"/>
       <use xlink:href="#DejaVuSans-30" x="63.623047"/>
      </g>
     </g>
    </g>
    <g id="xtick_5">
     <g id="line2d_5">
      <g>
       <use xlink:href="#m9982dfd8ee" x="222.34125" y="273.312" style="stroke: #000000; stroke-width: 0.8"/>
      </g>
     </g>
     <g id="text_5">
      <!-- 70 -->
      <g transform="translate(215.97875 287.910437)scale(0.1 -0.1)">
       <defs>
        <path id="DejaVuSans-37" d="M 525 4666 
L 3525 4666 
L 3525 4397 
L 1831 0 
L 1172 0 
L 2766 4134 
L 525 4134 
L 525 4666 
z
" transform="scale(0.015625)"/>
       </defs>
       <use xlink:href="#DejaVuSans-37"/>
       <use xlink:href="#DejaVuSans-30" x="63.623047"/>
      </g>
     </g>
    </g>
    <g id="xtick_6">
     <g id="line2d_6">
      <g>
       <use xlink:href="#m9982dfd8ee" x="262.923068" y="273.312" style="stroke: #000000; stroke-width: 0.8"/>
      </g>
     </g>
     <g id="text_6">
      <!-- 100 -->
      <g transform="translate(253.379318 287.910437)scale(0.1 -0.1)">
       <defs>
        <path id="DejaVuSans-31" d="M 794 531 
L 1825 531 
L 1825 4091 
L 703 3866 
L 703 4441 
L 1819 4666 
L 2450 4666 
L 2450 531 
L 3481 531 
L 3481 0 
L 794 0 
L 794 531 
z
" transform="scale(0.015625)"/>
       </defs>
       <use xlink:href="#DejaVuSans-31"/>
       <use xlink:href="#DejaVuSans-30" x="63.623047"/>
       <use xlink:href="#DejaVuSans-30" x="127.246094"/>
      </g>
     </g>
    </g>
    <g id="xtick_7">
     <g id="line2d_7">
      <g>
       <use xlink:href="#m9982dfd8ee" x="303.504886" y="273.312" style="stroke: #000000; stroke-width: 0.8"/>
      </g>
     </g>
     <g id="text_7">
      <!-- 150 -->
      <g transform="translate(293.961136 287.910437)scale(0.1 -0.1)">
       <use xlink:href="#DejaVuSans-31"/>
       <use xlink:href="#DejaVuSans-35" x="63.623047"/>
       <use xlink:href="#DejaVuSans-30" x="127.246094"/>
      </g>
     </g>
    </g>
    <g id="xtick_8">
     <g id="line2d_8">
      <g>
       <use xlink:href="#m9982dfd8ee" x="344.086705" y="273.312" style="stroke: #000000; stroke-width: 0.8"/>
      </g>
     </g>
     <g id="text_8">
      <!-- 200 -->
      <g transform="translate(334.542955 287.910437)scale(0.1 -0.1)">
       <use xlink:href="#DejaVuSans-32"/>
       <use xlink:href="#DejaVuSans-30" x="63.623047"/>
       <use xlink:href="#DejaVuSans-30" x="127.246094"/>
      </g>
     </g>
    </g>
    <g id="xtick_9">
     <g id="line2d_9">
      <g>
       <use xlink:href="#m9982dfd8ee" x="384.668523" y="273.312" style="stroke: #000000; stroke-width: 0.8"/>
      </g>
     </g>
     <g id="text_9">
      <!-- 200&lt; -->
      <g transform="translate(370.934929 287.910437)scale(0.1 -0.1)">
       <defs>
        <path id="DejaVuSans-3c" d="M 4684 3150 
L 1459 2003 
L 4684 863 
L 4684 294 
L 678 1747 
L 678 2266 
L 4684 3719 
L 4684 3150 
z
" transform="scale(0.015625)"/>
       </defs>
       <use xlink:href="#DejaVuSans-32"/>
       <use xlink:href="#DejaVuSans-30" x="63.623047"/>
       <use xlink:href="#DejaVuSans-30" x="127.246094"/>
       <use xlink:href="#DejaVuSans-3c" x="190.869141"/>
      </g>
     </g>
    </g>
    <g id="text_10">
     <!-- nrows -->
     <g transform="translate(207.476406 301.588562)scale(0.1 -0.1)">
      <defs>
       <path id="DejaVuSans-6e" d="M 3513 2113 
L 3513 0 
L 2938 0 
L 2938 2094 
Q 2938 2591 2744 2837 
Q 2550 3084 2163 3084 
Q 1697 3084 1428 2787 
Q 1159 2491 1159 1978 
L 1159 0 
L 581 0 
L 581 3500 
L 1159 3500 
L 1159 2956 
Q 1366 3272 1645 3428 
Q 1925 3584 2291 3584 
Q 2894 3584 3203 3211 
Q 3513 2838 3513 2113 
z
" transform="scale(0.015625)"/>
       <path id="DejaVuSans-72" d="M 2631 2963 
Q 2534 3019 2420 3045 
Q 2306 3072 2169 3072 
Q 1681 3072 1420 2755 
Q 1159 2438 1159 1844 
L 1159 0 
L 581 0 
L 581 3500 
L 1159 3500 
L 1159 2956 
Q 1341 3275 1631 3429 
Q 1922 3584 2338 3584 
Q 2397 3584 2469 3576 
Q 2541 3569 2628 3553 
L 2631 2963 
z
" transform="scale(0.015625)"/>
       <path id="DejaVuSans-6f" d="M 1959 3097 
Q 1497 3097 1228 2736 
Q 959 2375 959 1747 
Q 959 1119 1226 758 
Q 1494 397 1959 397 
Q 2419 397 2687 759 
Q 2956 1122 2956 1747 
Q 2956 2369 2687 2733 
Q 2419 3097 1959 3097 
z
M 1959 3584 
Q 2709 3584 3137 3096 
Q 3566 2609 3566 1747 
Q 3566 888 3137 398 
Q 2709 -91 1959 -91 
Q 1206 -91 779 398 
Q 353 888 353 1747 
Q 353 2609 779 3096 
Q 1206 3584 1959 3584 
z
" transform="scale(0.015625)"/>
       <path id="DejaVuSans-77" d="M 269 3500 
L 844 3500 
L 1563 769 
L 2278 3500 
L 2956 3500 
L 3675 769 
L 4391 3500 
L 4966 3500 
L 4050 0 
L 3372 0 
L 2619 2869 
L 1863 0 
L 1184 0 
L 269 3500 
z
" transform="scale(0.015625)"/>
       <path id="DejaVuSans-73" d="M 2834 3397 
L 2834 2853 
Q 2591 2978 2328 3040 
Q 2066 3103 1784 3103 
Q 1356 3103 1142 2972 
Q 928 2841 928 2578 
Q 928 2378 1081 2264 
Q 1234 2150 1697 2047 
L 1894 2003 
Q 2506 1872 2764 1633 
Q 3022 1394 3022 966 
Q 3022 478 2636 193 
Q 2250 -91 1575 -91 
Q 1294 -91 989 -36 
Q 684 19 347 128 
L 347 722 
Q 666 556 975 473 
Q 1284 391 1588 391 
Q 1994 391 2212 530 
Q 2431 669 2431 922 
Q 2431 1156 2273 1281 
Q 2116 1406 1581 1522 
L 1381 1569 
Q 847 1681 609 1914 
Q 372 2147 372 2553 
Q 372 3047 722 3315 
Q 1072 3584 1716 3584 
Q 2034 3584 2315 3537 
Q 2597 3491 2834 3397 
z
" transform="scale(0.015625)"/>
      </defs>
      <use xlink:href="#DejaVuSans-6e"/>
      <use xlink:href="#DejaVuSans-72" x="63.378906"/>
      <use xlink:href="#DejaVuSans-6f" x="102.242188"/>
      <use xlink:href="#DejaVuSans-77" x="163.423828"/>
      <use xlink:href="#DejaVuSans-73" x="245.210938"/>
     </g>
    </g>
   </g>
   <g id="matplotlib.axis_2">
    <g id="ytick_1">
     <g id="line2d_10">
      <defs>
       <path id="m38c2d24ad9" d="M 0 0 
L -3.5 0 
" style="stroke: #000000; stroke-width: 0.8"/>
      </defs>
      <g>
       <use xlink:href="#m38c2d24ad9" x="43.78125" y="267.199887" style="stroke: #000000; stroke-width: 0.8"/>
      </g>
     </g>
     <g id="text_11">
      <!-- 0.1 -->
      <g transform="translate(20.878125 270.999106)scale(0.1 -0.1)">
       <defs>
        <path id="DejaVuSans-2e" d="M 684 794 
L 1344 794 
L 1344 0 
L 684 0 
L 684 794 
z
" transform="scale(0.015625)"/>
       </defs>
       <use xlink:href="#DejaVuSans-30"/>
       <use xlink:href="#DejaVuSans-2e" x="63.623047"/>
       <use xlink:href="#DejaVuSans-31" x="95.410156"/>
      </g>
     </g>
    </g>
    <g id="ytick_2">
     <g id="line2d_11">
      <g>
       <use xlink:href="#m38c2d24ad9" x="43.78125" y="237.280452" style="stroke: #000000; stroke-width: 0.8"/>
      </g>
     </g>
     <g id="text_12">
      <!-- 0.2 -->
      <g transform="translate(20.878125 241.079671)scale(0.1 -0.1)">
       <use xlink:href="#DejaVuSans-30"/>
       <use xlink:href="#DejaVuSans-2e" x="63.623047"/>
       <use xlink:href="#DejaVuSans-32" x="95.410156"/>
      </g>
     </g>
    </g>
    <g id="ytick_3">
     <g id="line2d_12">
      <g>
       <use xlink:href="#m38c2d24ad9" x="43.78125" y="207.361018" style="stroke: #000000; stroke-width: 0.8"/>
      </g>
     </g>
     <g id="text_13">
      <!-- 0.3 -->
      <g transform="translate(20.878125 211.160236)scale(0.1 -0.1)">
       <use xlink:href="#DejaVuSans-30"/>
       <use xlink:href="#DejaVuSans-2e" x="63.623047"/>
       <use xlink:href="#DejaVuSans-33" x="95.410156"/>
      </g>
     </g>
    </g>
    <g id="ytick_4">
     <g id="line2d_13">
      <g>
       <use xlink:href="#m38c2d24ad9" x="43.78125" y="177.441583" style="stroke: #000000; stroke-width: 0.8"/>
      </g>
     </g>
     <g id="text_14">
      <!-- 0.4 -->
      <g transform="translate(20.878125 181.240802)scale(0.1 -0.1)">
       <use xlink:href="#DejaVuSans-30"/>
       <use xlink:href="#DejaVuSans-2e" x="63.623047"/>
       <use xlink:href="#DejaVuSans-34" x="95.410156"/>
      </g>
     </g>
    </g>
    <g id="ytick_5">
     <g id="line2d_14">
      <g>
       <use xlink:href="#m38c2d24ad9" x="43.78125" y="147.522148" style="stroke: #000000; stroke-width: 0.8"/>
      </g>
     </g>
     <g id="text_15">
      <!-- 0.5 -->
      <g transform="translate(20.878125 151.321367)scale(0.1 -0.1)">
       <use xlink:href="#DejaVuSans-30"/>
       <use xlink:href="#DejaVuSans-2e" x="63.623047"/>
       <use xlink:href="#DejaVuSans-35" x="95.410156"/>
      </g>
     </g>
    </g>
    <g id="ytick_6">
     <g id="line2d_15">
      <g>
       <use xlink:href="#m38c2d24ad9" x="43.78125" y="117.602714" style="stroke: #000000; stroke-width: 0.8"/>
      </g>
     </g>
     <g id="text_16">
      <!-- 0.6 -->
      <g transform="translate(20.878125 121.401933)scale(0.1 -0.1)">
       <defs>
        <path id="DejaVuSans-36" d="M 2113 2584 
Q 1688 2584 1439 2293 
Q 1191 2003 1191 1497 
Q 1191 994 1439 701 
Q 1688 409 2113 409 
Q 2538 409 2786 701 
Q 3034 994 3034 1497 
Q 3034 2003 2786 2293 
Q 2538 2584 2113 2584 
z
M 3366 4563 
L 3366 3988 
Q 3128 4100 2886 4159 
Q 2644 4219 2406 4219 
Q 1781 4219 1451 3797 
Q 1122 3375 1075 2522 
Q 1259 2794 1537 2939 
Q 1816 3084 2150 3084 
Q 2853 3084 3261 2657 
Q 3669 2231 3669 1497 
Q 3669 778 3244 343 
Q 2819 -91 2113 -91 
Q 1303 -91 875 529 
Q 447 1150 447 2328 
Q 447 3434 972 4092 
Q 1497 4750 2381 4750 
Q 2619 4750 2861 4703 
Q 3103 4656 3366 4563 
z
" transform="scale(0.015625)"/>
       </defs>
       <use xlink:href="#DejaVuSans-30"/>
       <use xlink:href="#DejaVuSans-2e" x="63.623047"/>
       <use xlink:href="#DejaVuSans-36" x="95.410156"/>
      </g>
     </g>
    </g>
    <g id="ytick_7">
     <g id="line2d_16">
      <g>
       <use xlink:href="#m38c2d24ad9" x="43.78125" y="87.683279" style="stroke: #000000; stroke-width: 0.8"/>
      </g>
     </g>
     <g id="text_17">
      <!-- 0.7 -->
      <g transform="translate(20.878125 91.482498)scale(0.1 -0.1)">
       <use xlink:href="#DejaVuSans-30"/>
       <use xlink:href="#DejaVuSans-2e" x="63.623047"/>
       <use xlink:href="#DejaVuSans-37" x="95.410156"/>
      </g>
     </g>
    </g>
    <g id="ytick_8">
     <g id="line2d_17">
      <g>
       <use xlink:href="#m38c2d24ad9" x="43.78125" y="57.763845" style="stroke: #000000; stroke-width: 0.8"/>
      </g>
     </g>
     <g id="text_18">
      <!-- 0.8 -->
      <g transform="translate(20.878125 61.563063)scale(0.1 -0.1)">
       <defs>
        <path id="DejaVuSans-38" d="M 2034 2216 
Q 1584 2216 1326 1975 
Q 1069 1734 1069 1313 
Q 1069 891 1326 650 
Q 1584 409 2034 409 
Q 2484 409 2743 651 
Q 3003 894 3003 1313 
Q 3003 1734 2745 1975 
Q 2488 2216 2034 2216 
z
M 1403 2484 
Q 997 2584 770 2862 
Q 544 3141 544 3541 
Q 544 4100 942 4425 
Q 1341 4750 2034 4750 
Q 2731 4750 3128 4425 
Q 3525 4100 3525 3541 
Q 3525 3141 3298 2862 
Q 3072 2584 2669 2484 
Q 3125 2378 3379 2068 
Q 3634 1759 3634 1313 
Q 3634 634 3220 271 
Q 2806 -91 2034 -91 
Q 1263 -91 848 271 
Q 434 634 434 1313 
Q 434 1759 690 2068 
Q 947 2378 1403 2484 
z
M 1172 3481 
Q 1172 3119 1398 2916 
Q 1625 2713 2034 2713 
Q 2441 2713 2670 2916 
Q 2900 3119 2900 3481 
Q 2900 3844 2670 4047 
Q 2441 4250 2034 4250 
Q 1625 4250 1398 4047 
Q 1172 3844 1172 3481 
z
" transform="scale(0.015625)"/>
       </defs>
       <use xlink:href="#DejaVuSans-30"/>
       <use xlink:href="#DejaVuSans-2e" x="63.623047"/>
       <use xlink:href="#DejaVuSans-38" x="95.410156"/>
      </g>
     </g>
    </g>
    <g id="ytick_9">
     <g id="line2d_18">
      <g>
       <use xlink:href="#m38c2d24ad9" x="43.78125" y="27.84441" style="stroke: #000000; stroke-width: 0.8"/>
      </g>
     </g>
     <g id="text_19">
      <!-- 0.9 -->
      <g transform="translate(20.878125 31.643629)scale(0.1 -0.1)">
       <defs>
        <path id="DejaVuSans-39" d="M 703 97 
L 703 672 
Q 941 559 1184 500 
Q 1428 441 1663 441 
Q 2288 441 2617 861 
Q 2947 1281 2994 2138 
Q 2813 1869 2534 1725 
Q 2256 1581 1919 1581 
Q 1219 1581 811 2004 
Q 403 2428 403 3163 
Q 403 3881 828 4315 
Q 1253 4750 1959 4750 
Q 2769 4750 3195 4129 
Q 3622 3509 3622 2328 
Q 3622 1225 3098 567 
Q 2575 -91 1691 -91 
Q 1453 -91 1209 -44 
Q 966 3 703 97 
z
M 1959 2075 
Q 2384 2075 2632 2365 
Q 2881 2656 2881 3163 
Q 2881 3666 2632 3958 
Q 2384 4250 1959 4250 
Q 1534 4250 1286 3958 
Q 1038 3666 1038 3163 
Q 1038 2656 1286 2365 
Q 1534 2075 1959 2075 
z
" transform="scale(0.015625)"/>
       </defs>
       <use xlink:href="#DejaVuSans-30"/>
       <use xlink:href="#DejaVuSans-2e" x="63.623047"/>
       <use xlink:href="#DejaVuSans-39" x="95.410156"/>
      </g>
     </g>
    </g>
    <g id="text_20">
     <!-- score -->
     <g transform="translate(14.798438 153.688812)rotate(-90)scale(0.1 -0.1)">
      <defs>
       <path id="DejaVuSans-63" d="M 3122 3366 
L 3122 2828 
Q 2878 2963 2633 3030 
Q 2388 3097 2138 3097 
Q 1578 3097 1268 2742 
Q 959 2388 959 1747 
Q 959 1106 1268 751 
Q 1578 397 2138 397 
Q 2388 397 2633 464 
Q 2878 531 3122 666 
L 3122 134 
Q 2881 22 2623 -34 
Q 2366 -91 2075 -91 
Q 1284 -91 818 406 
Q 353 903 353 1747 
Q 353 2603 823 3093 
Q 1294 3584 2113 3584 
Q 2378 3584 2631 3529 
Q 2884 3475 3122 3366 
z
" transform="scale(0.015625)"/>
       <path id="DejaVuSans-65" d="M 3597 1894 
L 3597 1613 
L 953 1613 
Q 991 1019 1311 708 
Q 1631 397 2203 397 
Q 2534 397 2845 478 
Q 3156 559 3463 722 
L 3463 178 
Q 3153 47 2828 -22 
Q 2503 -91 2169 -91 
Q 1331 -91 842 396 
Q 353 884 353 1716 
Q 353 2575 817 3079 
Q 1281 3584 2069 3584 
Q 2775 3584 3186 3129 
Q 3597 2675 3597 1894 
z
M 3022 2063 
Q 3016 2534 2758 2815 
Q 2500 3097 2075 3097 
Q 1594 3097 1305 2825 
Q 1016 2553 972 2059 
L 3022 2063 
z
" transform="scale(0.015625)"/>
      </defs>
      <use xlink:href="#DejaVuSans-73"/>
      <use xlink:href="#DejaVuSans-63" x="52.099609"/>
      <use xlink:href="#DejaVuSans-6f" x="107.080078"/>
      <use xlink:href="#DejaVuSans-72" x="168.261719"/>
      <use xlink:href="#DejaVuSans-65" x="207.125"/>
     </g>
    </g>
   </g>
   <g id="line2d_19">
    <path d="M 60.013977 197.387873 
L 100.595795 147.522148 
L 141.177614 197.387873 
L 181.759432 228.074472 
L 222.34125 249.878109 
L 262.923068 241.712961 
L 303.504886 189.716223 
L 344.086705 188.90009 
L 384.668523 162.997718 
" clip-path="url(#pedeece53b8)" style="fill: none; stroke-dasharray: 3.7,1.6; stroke-dashoffset: 0; stroke: #1f77b4"/>
   </g>
   <g id="line2d_20">
    <path d="M 60.013977 197.387873 
L 100.595795 168.893173 
L 141.177614 168.893173 
L 181.759432 184.921442 
L 222.34125 197.387873 
L 262.923068 161.121891 
L 303.504886 87.683279 
L 344.086705 75.975674 
L 384.668523 19.296 
" clip-path="url(#pedeece53b8)" style="fill: none; stroke-dasharray: 1,1.65; stroke-dashoffset: 0; stroke: #ff7f0e"/>
   </g>
   <g id="line2d_21">
    <path d="M 60.013977 237.280452 
L 100.595795 207.361018 
L 141.177614 228.074472 
L 181.759432 247.253597 
L 222.34125 261.216 
L 262.923068 251.786845 
L 303.504886 204.036636 
L 344.086705 201.151324 
L 384.668523 167.468438 
" clip-path="url(#pedeece53b8)" style="fill: none; stroke-dasharray: 6.4,1.6,1,1.6; stroke-dashoffset: 0; stroke: #2ca02c"/>
   </g>
   <g id="line2d_22">
    <path d="M 60.013977 197.387873 
L 100.595795 159.029623 
L 141.177614 184.921442 
L 181.759432 211.635223 
L 222.34125 233.006247 
L 262.923068 218.383967 
L 303.504886 155.128784 
L 344.086705 151.796353 
L 384.668523 116.211112 
" clip-path="url(#pedeece53b8)" style="fill: none; stroke: #d62728; stroke-linecap: square"/>
   </g>
   <g id="patch_3">
    <path d="M 43.78125 273.312 
L 43.78125 7.2 
" style="fill: none; stroke: #000000; stroke-width: 0.8; stroke-linejoin: miter; stroke-linecap: square"/>
   </g>
   <g id="patch_4">
    <path d="M 400.90125 273.312 
L 400.90125 7.2 
" style="fill: none; stroke: #000000; stroke-width: 0.8; stroke-linejoin: miter; stroke-linecap: square"/>
   </g>
   <g id="patch_5">
    <path d="M 43.78125 273.312 
L 400.90125 273.312 
" style="fill: none; stroke: #000000; stroke-width: 0.8; stroke-linejoin: miter; stroke-linecap: square"/>
   </g>
   <g id="patch_6">
    <path d="M 43.78125 7.2 
L 400.90125 7.2 
" style="fill: none; stroke: #000000; stroke-width: 0.8; stroke-linejoin: miter; stroke-linecap: square"/>
   </g>
   <g id="legend_1">
    <g id="patch_7">
     <path d="M 48.63925 134.991425 
L 102.159662 134.991425 
Q 103.547663 134.991425 103.547663 133.603425 
L 103.547663 12.058 
Q 103.547663 10.67 102.159662 10.67 
L 48.63925 10.67 
Q 47.25125 10.67 47.25125 12.058 
L 47.25125 133.603425 
Q 47.25125 134.991425 48.63925 134.991425 
z
" style="fill: #ffffff; opacity: 0.8; stroke: #cccccc; stroke-linejoin: miter"/>
    </g>
    <g id="text_21">
     <!-- metric -->
     <g transform="translate(69.45925 18.719316)scale(0.0694 -0.0694)">
      <defs>
       <path id="DejaVuSans-6d" d="M 3328 2828 
Q 3544 3216 3844 3400 
Q 4144 3584 4550 3584 
Q 5097 3584 5394 3201 
Q 5691 2819 5691 2113 
L 5691 0 
L 5113 0 
L 5113 2094 
Q 5113 2597 4934 2840 
Q 4756 3084 4391 3084 
Q 3944 3084 3684 2787 
Q 3425 2491 3425 1978 
L 3425 0 
L 2847 0 
L 2847 2094 
Q 2847 2600 2669 2842 
Q 2491 3084 2119 3084 
Q 1678 3084 1418 2786 
Q 1159 2488 1159 1978 
L 1159 0 
L 581 0 
L 581 3500 
L 1159 3500 
L 1159 2956 
Q 1356 3278 1631 3431 
Q 1906 3584 2284 3584 
Q 2666 3584 2933 3390 
Q 3200 3197 3328 2828 
z
" transform="scale(0.015625)"/>
       <path id="DejaVuSans-74" d="M 1172 4494 
L 1172 3500 
L 2356 3500 
L 2356 3053 
L 1172 3053 
L 1172 1153 
Q 1172 725 1289 603 
Q 1406 481 1766 481 
L 2356 481 
L 2356 0 
L 1766 0 
Q 1100 0 847 248 
Q 594 497 594 1153 
L 594 3053 
L 172 3053 
L 172 3500 
L 594 3500 
L 594 4494 
L 1172 4494 
z
" transform="scale(0.015625)"/>
       <path id="DejaVuSans-69" d="M 603 3500 
L 1178 3500 
L 1178 0 
L 603 0 
L 603 3500 
z
M 603 4863 
L 1178 4863 
L 1178 4134 
L 603 4134 
L 603 4863 
z
" transform="scale(0.015625)"/>
      </defs>
      <use xlink:href="#DejaVuSans-6d"/>
      <use xlink:href="#DejaVuSans-65" x="97.412109"/>
      <use xlink:href="#DejaVuSans-74" x="158.935547"/>
      <use xlink:href="#DejaVuSans-72" x="198.144531"/>
      <use xlink:href="#DejaVuSans-69" x="239.257812"/>
      <use xlink:href="#DejaVuSans-63" x="267.041016"/>
     </g>
    </g>
    <g id="PathCollection_12">
     <defs>
      <path id="m4ca06b241b" d="M 0 3 
C 0.795609 3 1.55874 2.683901 2.12132 2.12132 
C 2.683901 1.55874 3 0.795609 3 0 
C 3 -0.795609 2.683901 -1.55874 2.12132 -2.12132 
C 1.55874 -2.683901 0.795609 -3 0 -3 
C -0.795609 -3 -1.55874 -2.683901 -2.12132 -2.12132 
C -2.683901 -1.55874 -3 -0.795609 -3 0 
C -3 0.795609 -2.683901 1.55874 -2.12132 2.12132 
C -1.55874 2.683901 -0.795609 3 0 3 
z
" style="stroke: #1f77b4"/>
     </defs>
     <g>
      <use xlink:href="#m4ca06b241b" x="56.96725" y="27.084184" style="fill: #1f77b4; stroke: #1f77b4"/>
     </g>
    </g>
    <g id="text_22">
     <!-- precision -->
     <g transform="translate(69.45925 28.905934)scale(0.0694 -0.0694)">
      <defs>
       <path id="DejaVuSans-70" d="M 1159 525 
L 1159 -1331 
L 581 -1331 
L 581 3500 
L 1159 3500 
L 1159 2969 
Q 1341 3281 1617 3432 
Q 1894 3584 2278 3584 
Q 2916 3584 3314 3078 
Q 3713 2572 3713 1747 
Q 3713 922 3314 415 
Q 2916 -91 2278 -91 
Q 1894 -91 1617 61 
Q 1341 213 1159 525 
z
M 3116 1747 
Q 3116 2381 2855 2742 
Q 2594 3103 2138 3103 
Q 1681 3103 1420 2742 
Q 1159 2381 1159 1747 
Q 1159 1113 1420 752 
Q 1681 391 2138 391 
Q 2594 391 2855 752 
Q 3116 1113 3116 1747 
z
" transform="scale(0.015625)"/>
      </defs>
      <use xlink:href="#DejaVuSans-70"/>
      <use xlink:href="#DejaVuSans-72" x="63.476562"/>
      <use xlink:href="#DejaVuSans-65" x="102.339844"/>
      <use xlink:href="#DejaVuSans-63" x="163.863281"/>
      <use xlink:href="#DejaVuSans-69" x="218.84375"/>
      <use xlink:href="#DejaVuSans-73" x="246.626953"/>
      <use xlink:href="#DejaVuSans-69" x="298.726562"/>
      <use xlink:href="#DejaVuSans-6f" x="326.509766"/>
      <use xlink:href="#DejaVuSans-6e" x="387.691406"/>
     </g>
    </g>
    <g id="PathCollection_13">
     <defs>
      <path id="m113d9b5840" d="M 0 3 
C 0.795609 3 1.55874 2.683901 2.12132 2.12132 
C 2.683901 1.55874 3 0.795609 3 0 
C 3 -0.795609 2.683901 -1.55874 2.12132 -2.12132 
C 1.55874 -2.683901 0.795609 -3 0 -3 
C -0.795609 -3 -1.55874 -2.683901 -2.12132 -2.12132 
C -2.683901 -1.55874 -3 -0.795609 -3 0 
C -3 0.795609 -2.683901 1.55874 -2.12132 2.12132 
C -1.55874 2.683901 -0.795609 3 0 3 
z
" style="stroke: #ff7f0e"/>
     </defs>
     <g>
      <use xlink:href="#m113d9b5840" x="56.96725" y="37.270803" style="fill: #ff7f0e; stroke: #ff7f0e"/>
     </g>
    </g>
    <g id="text_23">
     <!-- recall -->
     <g transform="translate(69.45925 39.092553)scale(0.0694 -0.0694)">
      <defs>
       <path id="DejaVuSans-61" d="M 2194 1759 
Q 1497 1759 1228 1600 
Q 959 1441 959 1056 
Q 959 750 1161 570 
Q 1363 391 1709 391 
Q 2188 391 2477 730 
Q 2766 1069 2766 1631 
L 2766 1759 
L 2194 1759 
z
M 3341 1997 
L 3341 0 
L 2766 0 
L 2766 531 
Q 2569 213 2275 61 
Q 1981 -91 1556 -91 
Q 1019 -91 701 211 
Q 384 513 384 1019 
Q 384 1609 779 1909 
Q 1175 2209 1959 2209 
L 2766 2209 
L 2766 2266 
Q 2766 2663 2505 2880 
Q 2244 3097 1772 3097 
Q 1472 3097 1187 3025 
Q 903 2953 641 2809 
L 641 3341 
Q 956 3463 1253 3523 
Q 1550 3584 1831 3584 
Q 2591 3584 2966 3190 
Q 3341 2797 3341 1997 
z
" transform="scale(0.015625)"/>
       <path id="DejaVuSans-6c" d="M 603 4863 
L 1178 4863 
L 1178 0 
L 603 0 
L 603 4863 
z
" transform="scale(0.015625)"/>
      </defs>
      <use xlink:href="#DejaVuSans-72"/>
      <use xlink:href="#DejaVuSans-65" x="38.863281"/>
      <use xlink:href="#DejaVuSans-63" x="100.386719"/>
      <use xlink:href="#DejaVuSans-61" x="155.367188"/>
      <use xlink:href="#DejaVuSans-6c" x="216.646484"/>
      <use xlink:href="#DejaVuSans-6c" x="244.429688"/>
     </g>
    </g>
    <g id="PathCollection_14">
     <defs>
      <path id="me18e37aed8" d="M 0 3 
C 0.795609 3 1.55874 2.683901 2.12132 2.12132 
C 2.683901 1.55874 3 0.795609 3 0 
C 3 -0.795609 2.683901 -1.55874 2.12132 -2.12132 
C 1.55874 -2.683901 0.795609 -3 0 -3 
C -0.795609 -3 -1.55874 -2.683901 -2.12132 -2.12132 
C -2.683901 -1.55874 -3 -0.795609 -3 0 
C -3 0.795609 -2.683901 1.55874 -2.12132 2.12132 
C -1.55874 2.683901 -0.795609 3 0 3 
z
" style="stroke: #2ca02c"/>
     </defs>
     <g>
      <use xlink:href="#me18e37aed8" x="56.96725" y="47.457422" style="fill: #2ca02c; stroke: #2ca02c"/>
     </g>
    </g>
    <g id="text_24">
     <!-- accuracy -->
     <g transform="translate(69.45925 49.279172)scale(0.0694 -0.0694)">
      <defs>
       <path id="DejaVuSans-75" d="M 544 1381 
L 544 3500 
L 1119 3500 
L 1119 1403 
Q 1119 906 1312 657 
Q 1506 409 1894 409 
Q 2359 409 2629 706 
Q 2900 1003 2900 1516 
L 2900 3500 
L 3475 3500 
L 3475 0 
L 2900 0 
L 2900 538 
Q 2691 219 2414 64 
Q 2138 -91 1772 -91 
Q 1169 -91 856 284 
Q 544 659 544 1381 
z
M 1991 3584 
L 1991 3584 
z
" transform="scale(0.015625)"/>
       <path id="DejaVuSans-79" d="M 2059 -325 
Q 1816 -950 1584 -1140 
Q 1353 -1331 966 -1331 
L 506 -1331 
L 506 -850 
L 844 -850 
Q 1081 -850 1212 -737 
Q 1344 -625 1503 -206 
L 1606 56 
L 191 3500 
L 800 3500 
L 1894 763 
L 2988 3500 
L 3597 3500 
L 2059 -325 
z
" transform="scale(0.015625)"/>
      </defs>
      <use xlink:href="#DejaVuSans-61"/>
      <use xlink:href="#DejaVuSans-63" x="61.279297"/>
      <use xlink:href="#DejaVuSans-63" x="116.259766"/>
      <use xlink:href="#DejaVuSans-75" x="171.240234"/>
      <use xlink:href="#DejaVuSans-72" x="234.619141"/>
      <use xlink:href="#DejaVuSans-61" x="275.732422"/>
      <use xlink:href="#DejaVuSans-63" x="337.011719"/>
      <use xlink:href="#DejaVuSans-79" x="391.992188"/>
     </g>
    </g>
    <g id="PathCollection_15">
     <defs>
      <path id="md346234bb3" d="M 0 3 
C 0.795609 3 1.55874 2.683901 2.12132 2.12132 
C 2.683901 1.55874 3 0.795609 3 0 
C 3 -0.795609 2.683901 -1.55874 2.12132 -2.12132 
C 1.55874 -2.683901 0.795609 -3 0 -3 
C -0.795609 -3 -1.55874 -2.683901 -2.12132 -2.12132 
C -2.683901 -1.55874 -3 -0.795609 -3 0 
C -3 0.795609 -2.683901 1.55874 -2.12132 2.12132 
C -1.55874 2.683901 -0.795609 3 0 3 
z
" style="stroke: #d62728"/>
     </defs>
     <g>
      <use xlink:href="#md346234bb3" x="56.96725" y="57.644041" style="fill: #d62728; stroke: #d62728"/>
     </g>
    </g>
    <g id="text_25">
     <!-- f1 -->
     <g transform="translate(69.45925 59.465791)scale(0.0694 -0.0694)">
      <defs>
       <path id="DejaVuSans-66" d="M 2375 4863 
L 2375 4384 
L 1825 4384 
Q 1516 4384 1395 4259 
Q 1275 4134 1275 3809 
L 1275 3500 
L 2222 3500 
L 2222 3053 
L 1275 3053 
L 1275 0 
L 697 0 
L 697 3053 
L 147 3053 
L 147 3500 
L 697 3500 
L 697 3744 
Q 697 4328 969 4595 
Q 1241 4863 1831 4863 
L 2375 4863 
z
" transform="scale(0.015625)"/>
      </defs>
      <use xlink:href="#DejaVuSans-66"/>
      <use xlink:href="#DejaVuSans-31" x="35.205078"/>
     </g>
    </g>
    <g id="text_26">
     <!-- ncols -->
     <g transform="translate(69.45925 69.652409)scale(0.0694 -0.0694)">
      <use xlink:href="#DejaVuSans-6e"/>
      <use xlink:href="#DejaVuSans-63" x="63.378906"/>
      <use xlink:href="#DejaVuSans-6f" x="118.359375"/>
      <use xlink:href="#DejaVuSans-6c" x="179.541016"/>
      <use xlink:href="#DejaVuSans-73" x="207.324219"/>
     </g>
    </g>
    <g id="PathCollection_16">
     <defs>
      <path id="md6fdd6e960" d="M 0 3.307189 
C 0.877077 3.307189 1.718349 2.958723 2.338536 2.338536 
C 2.958723 1.718349 3.307189 0.877077 3.307189 0 
C 3.307189 -0.877077 2.958723 -1.718349 2.338536 -2.338536 
C 1.718349 -2.958723 0.877077 -3.307189 0 -3.307189 
C -0.877077 -3.307189 -1.718349 -2.958723 -2.338536 -2.338536 
C -2.958723 -1.718349 -3.307189 -0.877077 -3.307189 0 
C -3.307189 0.877077 -2.958723 1.718349 -2.338536 2.338536 
C -1.718349 2.958723 -0.877077 3.307189 0 3.307189 
z
" style="stroke: #333333"/>
     </defs>
     <g>
      <use xlink:href="#md6fdd6e960" x="56.96725" y="78.017278" style="fill: #333333; stroke: #333333"/>
     </g>
    </g>
    <g id="text_27">
     <!-- 8 -->
     <g transform="translate(69.45925 79.839028)scale(0.0694 -0.0694)">
      <use xlink:href="#DejaVuSans-38"/>
     </g>
    </g>
    <g id="PathCollection_17">
     <defs>
      <path id="m3308bba69f" d="M 0 3.66572 
C 0.97216 3.66572 1.904634 3.279476 2.592055 2.592055 
C 3.279476 1.904634 3.66572 0.97216 3.66572 0 
C 3.66572 -0.97216 3.279476 -1.904634 2.592055 -2.592055 
C 1.904634 -3.279476 0.97216 -3.66572 0 -3.66572 
C -0.97216 -3.66572 -1.904634 -3.279476 -2.592055 -2.592055 
C -3.279476 -1.904634 -3.66572 -0.97216 -3.66572 0 
C -3.66572 0.97216 -3.279476 1.904634 -2.592055 2.592055 
C -1.904634 3.279476 -0.97216 3.66572 0 3.66572 
z
" style="stroke: #333333"/>
     </defs>
     <g>
      <use xlink:href="#m3308bba69f" x="56.96725" y="88.203897" style="fill: #333333; stroke: #333333"/>
     </g>
    </g>
    <g id="text_28">
     <!-- 16 -->
     <g transform="translate(69.45925 90.025647)scale(0.0694 -0.0694)">
      <use xlink:href="#DejaVuSans-31"/>
      <use xlink:href="#DejaVuSans-36" x="63.623047"/>
     </g>
    </g>
    <g id="PathCollection_18">
     <defs>
      <path id="m8c6b7893dc" d="M 0 3.99218 
C 1.058738 3.99218 2.074256 3.571539 2.822897 2.822897 
C 3.571539 2.074256 3.99218 1.058738 3.99218 0 
C 3.99218 -1.058738 3.571539 -2.074256 2.822897 -2.822897 
C 2.074256 -3.571539 1.058738 -3.99218 0 -3.99218 
C -1.058738 -3.99218 -2.074256 -3.571539 -2.822897 -2.822897 
C -3.571539 -2.074256 -3.99218 -1.058738 -3.99218 0 
C -3.99218 1.058738 -3.571539 2.074256 -2.822897 2.822897 
C -2.074256 3.571539 -1.058738 3.99218 0 3.99218 
z
" style="stroke: #333333"/>
     </defs>
     <g>
      <use xlink:href="#m8c6b7893dc" x="56.96725" y="98.390516" style="fill: #333333; stroke: #333333"/>
     </g>
    </g>
    <g id="text_29">
     <!-- 24 -->
     <g transform="translate(69.45925 100.212266)scale(0.0694 -0.0694)">
      <use xlink:href="#DejaVuSans-32"/>
      <use xlink:href="#DejaVuSans-34" x="63.623047"/>
     </g>
    </g>
    <g id="PathCollection_19">
     <defs>
      <path id="mf862fe301c" d="M 0 4.293891 
C 1.138753 4.293891 2.231019 3.84146 3.036239 3.036239 
C 3.84146 2.231019 4.293891 1.138753 4.293891 0 
C 4.293891 -1.138753 3.84146 -2.231019 3.036239 -3.036239 
C 2.231019 -3.84146 1.138753 -4.293891 0 -4.293891 
C -1.138753 -4.293891 -2.231019 -3.84146 -3.036239 -3.036239 
C -3.84146 -2.231019 -4.293891 -1.138753 -4.293891 0 
C -4.293891 1.138753 -3.84146 2.231019 -3.036239 3.036239 
C -2.231019 3.84146 -1.138753 4.293891 0 4.293891 
z
" style="stroke: #333333"/>
     </defs>
     <g>
      <use xlink:href="#mf862fe301c" x="56.96725" y="108.577134" style="fill: #333333; stroke: #333333"/>
     </g>
    </g>
    <g id="text_30">
     <!-- 32 -->
     <g transform="translate(69.45925 110.398884)scale(0.0694 -0.0694)">
      <use xlink:href="#DejaVuSans-33"/>
      <use xlink:href="#DejaVuSans-32" x="63.623047"/>
     </g>
    </g>
    <g id="PathCollection_20">
     <defs>
      <path id="m3b3baaa999" d="M 0 4.575751 
C 1.213503 4.575751 2.377468 4.093621 3.235545 3.235545 
C 4.093621 2.377468 4.575751 1.213503 4.575751 0 
C 4.575751 -1.213503 4.093621 -2.377468 3.235545 -3.235545 
C 2.377468 -4.093621 1.213503 -4.575751 0 -4.575751 
C -1.213503 -4.575751 -2.377468 -4.093621 -3.235545 -3.235545 
C -4.093621 -2.377468 -4.575751 -1.213503 -4.575751 0 
C -4.575751 1.213503 -4.093621 2.377468 -3.235545 3.235545 
C -2.377468 4.093621 -1.213503 4.575751 0 4.575751 
z
" style="stroke: #333333"/>
     </defs>
     <g>
      <use xlink:href="#m3b3baaa999" x="56.96725" y="118.763753" style="fill: #333333; stroke: #333333"/>
     </g>
    </g>
    <g id="text_31">
     <!-- 40 -->
     <g transform="translate(69.45925 120.585503)scale(0.0694 -0.0694)">
      <use xlink:href="#DejaVuSans-34"/>
      <use xlink:href="#DejaVuSans-30" x="63.623047"/>
     </g>
    </g>
    <g id="PathCollection_21">
     <defs>
      <path id="m5097468d49" d="M 0 4.841229 
C 1.283909 4.841229 2.515405 4.331127 3.423266 3.423266 
C 4.331127 2.515405 4.841229 1.283909 4.841229 0 
C 4.841229 -1.283909 4.331127 -2.515405 3.423266 -3.423266 
C 2.515405 -4.331127 1.283909 -4.841229 0 -4.841229 
C -1.283909 -4.841229 -2.515405 -4.331127 -3.423266 -3.423266 
C -4.331127 -2.515405 -4.841229 -1.283909 -4.841229 0 
C -4.841229 1.283909 -4.331127 2.515405 -3.423266 3.423266 
C -2.515405 4.331127 -1.283909 4.841229 0 4.841229 
z
" style="stroke: #333333"/>
     </defs>
     <g>
      <use xlink:href="#m5097468d49" x="56.96725" y="128.950372" style="fill: #333333; stroke: #333333"/>
     </g>
    </g>
    <g id="text_32">
     <!-- 48 -->
     <g transform="translate(69.45925 130.772122)scale(0.0694 -0.0694)">
      <use xlink:href="#DejaVuSans-34"/>
      <use xlink:href="#DejaVuSans-38" x="63.623047"/>
     </g>
    </g>
   </g>
  </g>
 </g>
 <defs>
  <clipPath id="pedeece53b8">
   <rect x="43.78125" y="7.2" width="357.12" height="266.112"/>
  </clipPath>
 </defs>
</svg>
