<?xml version="1.0" encoding="utf-8" standalone="no"?>
<!DOCTYPE svg PUBLIC "-//W3C//DTD SVG 1.1//EN"
  "http://www.w3.org/Graphics/SVG/1.1/DTD/svg11.dtd">
<svg xmlns:xlink="http://www.w3.org/1999/xlink" width="408.10125pt" height="310.86825pt" viewBox="0 0 408.10125 310.86825" xmlns="http://www.w3.org/2000/svg" version="1.1">
 <metadata>
  <rdf:RDF xmlns:dc="http://purl.org/dc/elements/1.1/" xmlns:cc="http://creativecommons.org/ns#" xmlns:rdf="http://www.w3.org/1999/02/22-rdf-syntax-ns#">
   <cc:Work>
    <dc:type rdf:resource="http://purl.org/dc/dcmitype/StillImage"/>
    <dc:date>2022-03-24T13:45:04.107140</dc:date>
    <dc:format>image/svg+xml</dc:format>
    <dc:creator>
     <cc:Agent>
      <dc:title>Matplotlib v3.5.1, https://matplotlib.org/</dc:title>
     </cc:Agent>
    </dc:creator>
   </cc:Work>
  </rdf:RDF>
 </metadata>
 <defs>
  <style type="text/css">*{stroke-linejoin: round; stroke-linecap: butt}</style>
 </defs>
 <g id="figure_1">
  <g id="patch_1">
   <path d="M 0 310.86825 
L 408.10125 310.86825 
L 408.10125 0 
L 0 0 
z
" style="fill: #ffffff"/>
  </g>
  <g id="axes_1">
   <g id="patch_2">
    <path d="M 43.78125 273.312 
L 400.90125 273.312 
L 400.90125 7.2 
L 43.78125 7.2 
z
" style="fill: #ffffff"/>
   </g>
   <g id="PathCollection_1">
    <path d="M 384.668523 30.331804 
C 385.464132 30.331804 386.227262 30.015705 386.789843 29.453125 
C 387.352424 28.890544 387.668523 28.127413 387.668523 27.331804 
C 387.668523 26.536195 387.352424 25.773065 386.789843 25.210484 
C 386.227262 24.647903 385.464132 24.331804 384.668523 24.331804 
C 383.872913 24.331804 383.109783 24.647903 382.547202 25.210484 
C 381.984622 25.773065 381.668523 26.536195 381.668523 27.331804 
C 381.668523 28.127413 381.984622 28.890544 382.547202 29.453125 
C 383.109783 30.015705 383.872913 30.331804 384.668523 30.331804 
z
" clip-path="url(#paff42b5931)" style="fill: #f26b38; stroke: #ffffff; stroke-width: 0.48"/>
    <path d="M 344.086705 22.296 
C 344.882314 22.296 345.645444 21.979901 346.208025 21.41732 
C 346.770606 20.85474 347.086705 20.091609 347.086705 19.296 
C 347.086705 18.500391 346.770606 17.73726 346.208025 17.17468 
C 345.645444 16.612099 344.882314 16.296 344.086705 16.296 
C 343.291095 16.296 342.527965 16.612099 341.965384 17.17468 
C 341.402803 17.73726 341.086705 18.500391 341.086705 19.296 
C 341.086705 20.091609 341.402803 20.85474 341.965384 21.41732 
C 342.527965 21.979901 343.291095 22.296 344.086705 22.296 
z
" clip-path="url(#paff42b5931)" style="fill: #f26b38; stroke: #ffffff; stroke-width: 0.48"/>
    <path d="M 60.013977 264.216 
C 60.809587 264.216 61.572717 263.899901 62.135298 263.33732 
C 62.697878 262.77474 63.013977 262.011609 63.013977 261.216 
C 63.013977 260.420391 62.697878 259.65726 62.135298 259.09468 
C 61.572717 258.532099 60.809587 258.216 60.013977 258.216 
C 59.218368 258.216 58.455238 258.532099 57.892657 259.09468 
C 57.330076 259.65726 57.013977 260.420391 57.013977 261.216 
C 57.013977 262.011609 57.330076 262.77474 57.892657 263.33732 
C 58.455238 263.899901 59.218368 264.216 60.013977 264.216 
z
" clip-path="url(#paff42b5931)" style="fill: #f26b38; stroke: #ffffff; stroke-width: 0.48"/>
    <path d="M 100.595795 141.705231 
C 101.391405 141.705231 102.154535 141.389132 102.717116 140.826551 
C 103.279697 140.26397 103.595795 139.50084 103.595795 138.705231 
C 103.595795 137.909621 103.279697 137.146491 102.717116 136.58391 
C 102.154535 136.02133 101.391405 135.705231 100.595795 135.705231 
C 99.800186 135.705231 99.037056 136.02133 98.474475 136.58391 
C 97.911894 137.146491 97.595795 137.909621 97.595795 138.705231 
C 97.595795 139.50084 97.911894 140.26397 98.474475 140.826551 
C 99.037056 141.389132 99.800186 141.705231 100.595795 141.705231 
z
" clip-path="url(#paff42b5931)" style="fill: #f26b38; stroke: #ffffff; stroke-width: 0.48"/>
    <path d="M 141.177614 126.391385 
C 141.973223 126.391385 142.736353 126.075286 143.298934 125.512705 
C 143.861515 124.950124 144.177614 124.186994 144.177614 123.391385 
C 144.177614 122.595775 143.861515 121.832645 143.298934 121.270064 
C 142.736353 120.707484 141.973223 120.391385 141.177614 120.391385 
C 140.382004 120.391385 139.618874 120.707484 139.056293 121.270064 
C 138.493713 121.832645 138.177614 122.595775 138.177614 123.391385 
C 138.177614 124.186994 138.493713 124.950124 139.056293 125.512705 
C 139.618874 126.075286 140.382004 126.391385 141.177614 126.391385 
z
" clip-path="url(#paff42b5931)" style="fill: #f26b38; stroke: #ffffff; stroke-width: 0.48"/>
    <path d="M 181.759432 104.419344 
C 182.555041 104.419344 183.318171 104.103246 183.880752 103.540665 
C 184.443333 102.978084 184.759432 102.214954 184.759432 101.419344 
C 184.759432 100.623735 184.443333 99.860605 183.880752 99.298024 
C 183.318171 98.735443 182.555041 98.419344 181.759432 98.419344 
C 180.963823 98.419344 180.200692 98.735443 179.638111 99.298024 
C 179.075531 99.860605 178.759432 100.623735 178.759432 101.419344 
C 178.759432 102.214954 179.075531 102.978084 179.638111 103.540665 
C 180.200692 104.103246 180.963823 104.419344 181.759432 104.419344 
z
" clip-path="url(#paff42b5931)" style="fill: #f26b38; stroke: #ffffff; stroke-width: 0.48"/>
    <path d="M 222.34125 103.420615 
C 223.136859 103.420615 223.89999 103.104516 224.46257 102.541936 
C 225.025151 101.979355 225.34125 101.216225 225.34125 100.420615 
C 225.34125 99.625006 225.025151 98.861876 224.46257 98.299295 
C 223.89999 97.736714 223.136859 97.420615 222.34125 97.420615 
C 221.545641 97.420615 220.78251 97.736714 220.21993 98.299295 
C 219.657349 98.861876 219.34125 99.625006 219.34125 100.420615 
C 219.34125 101.216225 219.657349 101.979355 220.21993 102.541936 
C 220.78251 103.104516 221.545641 103.420615 222.34125 103.420615 
z
" clip-path="url(#paff42b5931)" style="fill: #f26b38; stroke: #ffffff; stroke-width: 0.48"/>
    <path d="M 262.923068 56.480348 
C 263.718677 56.480348 264.481808 56.164249 265.044389 55.601668 
C 265.606969 55.039087 265.923068 54.275957 265.923068 53.480348 
C 265.923068 52.684739 265.606969 51.921608 265.044389 51.359027 
C 264.481808 50.796447 263.718677 50.480348 262.923068 50.480348 
C 262.127459 50.480348 261.364329 50.796447 260.801748 51.359027 
C 260.239167 51.921608 259.923068 52.684739 259.923068 53.480348 
C 259.923068 54.275957 260.239167 55.039087 260.801748 55.601668 
C 261.364329 56.164249 262.127459 56.480348 262.923068 56.480348 
z
" clip-path="url(#paff42b5931)" style="fill: #f26b38; stroke: #ffffff; stroke-width: 0.48"/>
    <path d="M 303.504886 30.331804 
C 304.300496 30.331804 305.063626 30.015705 305.626207 29.453125 
C 306.188787 28.890544 306.504886 28.127413 306.504886 27.331804 
C 306.504886 26.536195 306.188787 25.773065 305.626207 25.210484 
C 305.063626 24.647903 304.300496 24.331804 303.504886 24.331804 
C 302.709277 24.331804 301.946147 24.647903 301.383566 25.210484 
C 300.820985 25.773065 300.504886 26.536195 300.504886 27.331804 
C 300.504886 28.127413 300.820985 28.890544 301.383566 29.453125 
C 301.946147 30.015705 302.709277 30.331804 303.504886 30.331804 
z
" clip-path="url(#paff42b5931)" style="fill: #f26b38; stroke: #ffffff; stroke-width: 0.48"/>
    <path d="M 383.168523 30.331804 
L 384.668523 28.831804 
L 386.168523 30.331804 
L 387.668523 28.831804 
L 386.168523 27.331804 
L 387.668523 25.831804 
L 386.168523 24.331804 
L 384.668523 25.831804 
L 383.168523 24.331804 
L 381.668523 25.831804 
L 383.168523 27.331804 
L 381.668523 28.831804 
z
" clip-path="url(#paff42b5931)" style="fill: #f26b38; stroke: #ffffff; stroke-width: 0.48"/>
    <path d="M 342.586705 22.296 
L 344.086705 20.796 
L 345.586705 22.296 
L 347.086705 20.796 
L 345.586705 19.296 
L 347.086705 17.796 
L 345.586705 16.296 
L 344.086705 17.796 
L 342.586705 16.296 
L 341.086705 17.796 
L 342.586705 19.296 
L 341.086705 20.796 
z
" clip-path="url(#paff42b5931)" style="fill: #f26b38; stroke: #ffffff; stroke-width: 0.48"/>
    <path d="M 58.513977 264.216 
L 60.013977 262.716 
L 61.513977 264.216 
L 63.013977 262.716 
L 61.513977 261.216 
L 63.013977 259.716 
L 61.513977 258.216 
L 60.013977 259.716 
L 58.513977 258.216 
L 57.013977 259.716 
L 58.513977 261.216 
L 57.013977 262.716 
z
" clip-path="url(#paff42b5931)" style="fill: #f26b38; stroke: #ffffff; stroke-width: 0.48"/>
    <path d="M 99.095795 141.705231 
L 100.595795 140.205231 
L 102.095795 141.705231 
L 103.595795 140.205231 
L 102.095795 138.705231 
L 103.595795 137.205231 
L 102.095795 135.705231 
L 100.595795 137.205231 
L 99.095795 135.705231 
L 97.595795 137.205231 
L 99.095795 138.705231 
L 97.595795 140.205231 
z
" clip-path="url(#paff42b5931)" style="fill: #f26b38; stroke: #ffffff; stroke-width: 0.48"/>
    <path d="M 139.677614 126.391385 
L 141.177614 124.891385 
L 142.677614 126.391385 
L 144.177614 124.891385 
L 142.677614 123.391385 
L 144.177614 121.891385 
L 142.677614 120.391385 
L 141.177614 121.891385 
L 139.677614 120.391385 
L 138.177614 121.891385 
L 139.677614 123.391385 
L 138.177614 124.891385 
z
" clip-path="url(#paff42b5931)" style="fill: #f26b38; stroke: #ffffff; stroke-width: 0.48"/>
    <path d="M 180.259432 104.419344 
L 181.759432 102.919344 
L 183.259432 104.419344 
L 184.759432 102.919344 
L 183.259432 101.419344 
L 184.759432 99.919344 
L 183.259432 98.419344 
L 181.759432 99.919344 
L 180.259432 98.419344 
L 178.759432 99.919344 
L 180.259432 101.419344 
L 178.759432 102.919344 
z
" clip-path="url(#paff42b5931)" style="fill: #f26b38; stroke: #ffffff; stroke-width: 0.48"/>
    <path d="M 220.84125 103.420615 
L 222.34125 101.920615 
L 223.84125 103.420615 
L 225.34125 101.920615 
L 223.84125 100.420615 
L 225.34125 98.920615 
L 223.84125 97.420615 
L 222.34125 98.920615 
L 220.84125 97.420615 
L 219.34125 98.920615 
L 220.84125 100.420615 
L 219.34125 101.920615 
z
" clip-path="url(#paff42b5931)" style="fill: #f26b38; stroke: #ffffff; stroke-width: 0.48"/>
    <path d="M 261.423068 56.480348 
L 262.923068 54.980348 
L 264.423068 56.480348 
L 265.923068 54.980348 
L 264.423068 53.480348 
L 265.923068 51.980348 
L 264.423068 50.480348 
L 262.923068 51.980348 
L 261.423068 50.480348 
L 259.923068 51.980348 
L 261.423068 53.480348 
L 259.923068 54.980348 
z
" clip-path="url(#paff42b5931)" style="fill: #f26b38; stroke: #ffffff; stroke-width: 0.48"/>
    <path d="M 302.004886 30.331804 
L 303.504886 28.831804 
L 305.004886 30.331804 
L 306.504886 28.831804 
L 305.004886 27.331804 
L 306.504886 25.831804 
L 305.004886 24.331804 
L 303.504886 25.831804 
L 302.004886 24.331804 
L 300.504886 25.831804 
L 302.004886 27.331804 
L 300.504886 28.831804 
z
" clip-path="url(#paff42b5931)" style="fill: #f26b38; stroke: #ffffff; stroke-width: 0.48"/>
    <path d="M 382.547202 25.210484 
L 382.547202 29.453125 
L 386.789843 29.453125 
L 386.789843 25.210484 
z
" clip-path="url(#paff42b5931)" style="fill: #f26b38; stroke: #ffffff; stroke-width: 0.48"/>
    <path d="M 341.965384 17.17468 
L 341.965384 21.41732 
L 346.208025 21.41732 
L 346.208025 17.17468 
z
" clip-path="url(#paff42b5931)" style="fill: #f26b38; stroke: #ffffff; stroke-width: 0.48"/>
    <path d="M 57.892657 259.09468 
L 57.892657 263.33732 
L 62.135298 263.33732 
L 62.135298 259.09468 
z
" clip-path="url(#paff42b5931)" style="fill: #f26b38; stroke: #ffffff; stroke-width: 0.48"/>
    <path d="M 98.474475 136.58391 
L 98.474475 140.826551 
L 102.717116 140.826551 
L 102.717116 136.58391 
z
" clip-path="url(#paff42b5931)" style="fill: #f26b38; stroke: #ffffff; stroke-width: 0.48"/>
    <path d="M 139.056293 121.270064 
L 139.056293 125.512705 
L 143.298934 125.512705 
L 143.298934 121.270064 
z
" clip-path="url(#paff42b5931)" style="fill: #f26b38; stroke: #ffffff; stroke-width: 0.48"/>
    <path d="M 179.638111 99.298024 
L 179.638111 103.540665 
L 183.880752 103.540665 
L 183.880752 99.298024 
z
" clip-path="url(#paff42b5931)" style="fill: #f26b38; stroke: #ffffff; stroke-width: 0.48"/>
    <path d="M 220.21993 98.299295 
L 220.21993 102.541936 
L 224.46257 102.541936 
L 224.46257 98.299295 
z
" clip-path="url(#paff42b5931)" style="fill: #f26b38; stroke: #ffffff; stroke-width: 0.48"/>
    <path d="M 260.801748 51.359027 
L 260.801748 55.601668 
L 265.044389 55.601668 
L 265.044389 51.359027 
z
" clip-path="url(#paff42b5931)" style="fill: #f26b38; stroke: #ffffff; stroke-width: 0.48"/>
    <path d="M 301.383566 25.210484 
L 301.383566 29.453125 
L 305.626207 29.453125 
L 305.626207 25.210484 
z
" clip-path="url(#paff42b5931)" style="fill: #f26b38; stroke: #ffffff; stroke-width: 0.48"/>
    <path d="M 384.668523 30.331804 
C 385.464132 30.331804 386.227262 30.015705 386.789843 29.453125 
C 387.352424 28.890544 387.668523 28.127413 387.668523 27.331804 
C 387.668523 26.536195 387.352424 25.773065 386.789843 25.210484 
C 386.227262 24.647903 385.464132 24.331804 384.668523 24.331804 
C 383.872913 24.331804 383.109783 24.647903 382.547202 25.210484 
C 381.984622 25.773065 381.668523 26.536195 381.668523 27.331804 
C 381.668523 28.127413 381.984622 28.890544 382.547202 29.453125 
C 383.109783 30.015705 383.872913 30.331804 384.668523 30.331804 
z
" clip-path="url(#paff42b5931)" style="fill: #2f9599; stroke: #ffffff; stroke-width: 0.48"/>
    <path d="M 344.086705 22.296 
C 344.882314 22.296 345.645444 21.979901 346.208025 21.41732 
C 346.770606 20.85474 347.086705 20.091609 347.086705 19.296 
C 347.086705 18.500391 346.770606 17.73726 346.208025 17.17468 
C 345.645444 16.612099 344.882314 16.296 344.086705 16.296 
C 343.291095 16.296 342.527965 16.612099 341.965384 17.17468 
C 341.402803 17.73726 341.086705 18.500391 341.086705 19.296 
C 341.086705 20.091609 341.402803 20.85474 341.965384 21.41732 
C 342.527965 21.979901 343.291095 22.296 344.086705 22.296 
z
" clip-path="url(#paff42b5931)" style="fill: #2f9599; stroke: #ffffff; stroke-width: 0.48"/>
    <path d="M 60.013977 264.216 
C 60.809587 264.216 61.572717 263.899901 62.135298 263.33732 
C 62.697878 262.77474 63.013977 262.011609 63.013977 261.216 
C 63.013977 260.420391 62.697878 259.65726 62.135298 259.09468 
C 61.572717 258.532099 60.809587 258.216 60.013977 258.216 
C 59.218368 258.216 58.455238 258.532099 57.892657 259.09468 
C 57.330076 259.65726 57.013977 260.420391 57.013977 261.216 
C 57.013977 262.011609 57.330076 262.77474 57.892657 263.33732 
C 58.455238 263.899901 59.218368 264.216 60.013977 264.216 
z
" clip-path="url(#paff42b5931)" style="fill: #2f9599; stroke: #ffffff; stroke-width: 0.48"/>
    <path d="M 100.595795 141.705231 
C 101.391405 141.705231 102.154535 141.389132 102.717116 140.826551 
C 103.279697 140.26397 103.595795 139.50084 103.595795 138.705231 
C 103.595795 137.909621 103.279697 137.146491 102.717116 136.58391 
C 102.154535 136.02133 101.391405 135.705231 100.595795 135.705231 
C 99.800186 135.705231 99.037056 136.02133 98.474475 136.58391 
C 97.911894 137.146491 97.595795 137.909621 97.595795 138.705231 
C 97.595795 139.50084 97.911894 140.26397 98.474475 140.826551 
C 99.037056 141.389132 99.800186 141.705231 100.595795 141.705231 
z
" clip-path="url(#paff42b5931)" style="fill: #2f9599; stroke: #ffffff; stroke-width: 0.48"/>
    <path d="M 141.177614 126.391385 
C 141.973223 126.391385 142.736353 126.075286 143.298934 125.512705 
C 143.861515 124.950124 144.177614 124.186994 144.177614 123.391385 
C 144.177614 122.595775 143.861515 121.832645 143.298934 121.270064 
C 142.736353 120.707484 141.973223 120.391385 141.177614 120.391385 
C 140.382004 120.391385 139.618874 120.707484 139.056293 121.270064 
C 138.493713 121.832645 138.177614 122.595775 138.177614 123.391385 
C 138.177614 124.186994 138.493713 124.950124 139.056293 125.512705 
C 139.618874 126.075286 140.382004 126.391385 141.177614 126.391385 
z
" clip-path="url(#paff42b5931)" style="fill: #2f9599; stroke: #ffffff; stroke-width: 0.48"/>
    <path d="M 181.759432 104.419344 
C 182.555041 104.419344 183.318171 104.103246 183.880752 103.540665 
C 184.443333 102.978084 184.759432 102.214954 184.759432 101.419344 
C 184.759432 100.623735 184.443333 99.860605 183.880752 99.298024 
C 183.318171 98.735443 182.555041 98.419344 181.759432 98.419344 
C 180.963823 98.419344 180.200692 98.735443 179.638111 99.298024 
C 179.075531 99.860605 178.759432 100.623735 178.759432 101.419344 
C 178.759432 102.214954 179.075531 102.978084 179.638111 103.540665 
C 180.200692 104.103246 180.963823 104.419344 181.759432 104.419344 
z
" clip-path="url(#paff42b5931)" style="fill: #2f9599; stroke: #ffffff; stroke-width: 0.48"/>
    <path d="M 222.34125 103.420615 
C 223.136859 103.420615 223.89999 103.104516 224.46257 102.541936 
C 225.025151 101.979355 225.34125 101.216225 225.34125 100.420615 
C 225.34125 99.625006 225.025151 98.861876 224.46257 98.299295 
C 223.89999 97.736714 223.136859 97.420615 222.34125 97.420615 
C 221.545641 97.420615 220.78251 97.736714 220.21993 98.299295 
C 219.657349 98.861876 219.34125 99.625006 219.34125 100.420615 
C 219.34125 101.216225 219.657349 101.979355 220.21993 102.541936 
C 220.78251 103.104516 221.545641 103.420615 222.34125 103.420615 
z
" clip-path="url(#paff42b5931)" style="fill: #2f9599; stroke: #ffffff; stroke-width: 0.48"/>
    <path d="M 262.923068 56.480348 
C 263.718677 56.480348 264.481808 56.164249 265.044389 55.601668 
C 265.606969 55.039087 265.923068 54.275957 265.923068 53.480348 
C 265.923068 52.684739 265.606969 51.921608 265.044389 51.359027 
C 264.481808 50.796447 263.718677 50.480348 262.923068 50.480348 
C 262.127459 50.480348 261.364329 50.796447 260.801748 51.359027 
C 260.239167 51.921608 259.923068 52.684739 259.923068 53.480348 
C 259.923068 54.275957 260.239167 55.039087 260.801748 55.601668 
C 261.364329 56.164249 262.127459 56.480348 262.923068 56.480348 
z
" clip-path="url(#paff42b5931)" style="fill: #2f9599; stroke: #ffffff; stroke-width: 0.48"/>
    <path d="M 303.504886 30.331804 
C 304.300496 30.331804 305.063626 30.015705 305.626207 29.453125 
C 306.188787 28.890544 306.504886 28.127413 306.504886 27.331804 
C 306.504886 26.536195 306.188787 25.773065 305.626207 25.210484 
C 305.063626 24.647903 304.300496 24.331804 303.504886 24.331804 
C 302.709277 24.331804 301.946147 24.647903 301.383566 25.210484 
C 300.820985 25.773065 300.504886 26.536195 300.504886 27.331804 
C 300.504886 28.127413 300.820985 28.890544 301.383566 29.453125 
C 301.946147 30.015705 302.709277 30.331804 303.504886 30.331804 
z
" clip-path="url(#paff42b5931)" style="fill: #2f9599; stroke: #ffffff; stroke-width: 0.48"/>
    <path d="M 383.168523 30.331804 
L 384.668523 28.831804 
L 386.168523 30.331804 
L 387.668523 28.831804 
L 386.168523 27.331804 
L 387.668523 25.831804 
L 386.168523 24.331804 
L 384.668523 25.831804 
L 383.168523 24.331804 
L 381.668523 25.831804 
L 383.168523 27.331804 
L 381.668523 28.831804 
z
" clip-path="url(#paff42b5931)" style="fill: #2f9599; stroke: #ffffff; stroke-width: 0.48"/>
    <path d="M 342.586705 22.296 
L 344.086705 20.796 
L 345.586705 22.296 
L 347.086705 20.796 
L 345.586705 19.296 
L 347.086705 17.796 
L 345.586705 16.296 
L 344.086705 17.796 
L 342.586705 16.296 
L 341.086705 17.796 
L 342.586705 19.296 
L 341.086705 20.796 
z
" clip-path="url(#paff42b5931)" style="fill: #2f9599; stroke: #ffffff; stroke-width: 0.48"/>
    <path d="M 58.513977 264.216 
L 60.013977 262.716 
L 61.513977 264.216 
L 63.013977 262.716 
L 61.513977 261.216 
L 63.013977 259.716 
L 61.513977 258.216 
L 60.013977 259.716 
L 58.513977 258.216 
L 57.013977 259.716 
L 58.513977 261.216 
L 57.013977 262.716 
z
" clip-path="url(#paff42b5931)" style="fill: #2f9599; stroke: #ffffff; stroke-width: 0.48"/>
    <path d="M 99.095795 141.705231 
L 100.595795 140.205231 
L 102.095795 141.705231 
L 103.595795 140.205231 
L 102.095795 138.705231 
L 103.595795 137.205231 
L 102.095795 135.705231 
L 100.595795 137.205231 
L 99.095795 135.705231 
L 97.595795 137.205231 
L 99.095795 138.705231 
L 97.595795 140.205231 
z
" clip-path="url(#paff42b5931)" style="fill: #2f9599; stroke: #ffffff; stroke-width: 0.48"/>
    <path d="M 139.677614 126.391385 
L 141.177614 124.891385 
L 142.677614 126.391385 
L 144.177614 124.891385 
L 142.677614 123.391385 
L 144.177614 121.891385 
L 142.677614 120.391385 
L 141.177614 121.891385 
L 139.677614 120.391385 
L 138.177614 121.891385 
L 139.677614 123.391385 
L 138.177614 124.891385 
z
" clip-path="url(#paff42b5931)" style="fill: #2f9599; stroke: #ffffff; stroke-width: 0.48"/>
    <path d="M 180.259432 104.419344 
L 181.759432 102.919344 
L 183.259432 104.419344 
L 184.759432 102.919344 
L 183.259432 101.419344 
L 184.759432 99.919344 
L 183.259432 98.419344 
L 181.759432 99.919344 
L 180.259432 98.419344 
L 178.759432 99.919344 
L 180.259432 101.419344 
L 178.759432 102.919344 
z
" clip-path="url(#paff42b5931)" style="fill: #2f9599; stroke: #ffffff; stroke-width: 0.48"/>
    <path d="M 220.84125 103.420615 
L 222.34125 101.920615 
L 223.84125 103.420615 
L 225.34125 101.920615 
L 223.84125 100.420615 
L 225.34125 98.920615 
L 223.84125 97.420615 
L 222.34125 98.920615 
L 220.84125 97.420615 
L 219.34125 98.920615 
L 220.84125 100.420615 
L 219.34125 101.920615 
z
" clip-path="url(#paff42b5931)" style="fill: #2f9599; stroke: #ffffff; stroke-width: 0.48"/>
    <path d="M 261.423068 56.480348 
L 262.923068 54.980348 
L 264.423068 56.480348 
L 265.923068 54.980348 
L 264.423068 53.480348 
L 265.923068 51.980348 
L 264.423068 50.480348 
L 262.923068 51.980348 
L 261.423068 50.480348 
L 259.923068 51.980348 
L 261.423068 53.480348 
L 259.923068 54.980348 
z
" clip-path="url(#paff42b5931)" style="fill: #2f9599; stroke: #ffffff; stroke-width: 0.48"/>
    <path d="M 302.004886 30.331804 
L 303.504886 28.831804 
L 305.004886 30.331804 
L 306.504886 28.831804 
L 305.004886 27.331804 
L 306.504886 25.831804 
L 305.004886 24.331804 
L 303.504886 25.831804 
L 302.004886 24.331804 
L 300.504886 25.831804 
L 302.004886 27.331804 
L 300.504886 28.831804 
z
" clip-path="url(#paff42b5931)" style="fill: #2f9599; stroke: #ffffff; stroke-width: 0.48"/>
    <path d="M 382.547202 25.210484 
L 382.547202 29.453125 
L 386.789843 29.453125 
L 386.789843 25.210484 
z
" clip-path="url(#paff42b5931)" style="fill: #2f9599; stroke: #ffffff; stroke-width: 0.48"/>
    <path d="M 341.965384 29.983631 
L 341.965384 34.226271 
L 346.208025 34.226271 
L 346.208025 29.983631 
z
" clip-path="url(#paff42b5931)" style="fill: #2f9599; stroke: #ffffff; stroke-width: 0.48"/>
    <path d="M 57.892657 259.09468 
L 57.892657 263.33732 
L 62.135298 263.33732 
L 62.135298 259.09468 
z
" clip-path="url(#paff42b5931)" style="fill: #2f9599; stroke: #ffffff; stroke-width: 0.48"/>
    <path d="M 98.474475 136.58391 
L 98.474475 140.826551 
L 102.717116 140.826551 
L 102.717116 136.58391 
z
" clip-path="url(#paff42b5931)" style="fill: #2f9599; stroke: #ffffff; stroke-width: 0.48"/>
    <path d="M 139.056293 161.086064 
L 139.056293 165.328705 
L 143.298934 165.328705 
L 143.298934 161.086064 
z
" clip-path="url(#paff42b5931)" style="fill: #2f9599; stroke: #ffffff; stroke-width: 0.48"/>
    <path d="M 179.638111 125.446568 
L 179.638111 129.689208 
L 183.880752 129.689208 
L 183.880752 125.446568 
z
" clip-path="url(#paff42b5931)" style="fill: #2f9599; stroke: #ffffff; stroke-width: 0.48"/>
    <path d="M 220.21993 116.824109 
L 220.21993 121.06675 
L 224.46257 121.06675 
L 224.46257 116.824109 
z
" clip-path="url(#paff42b5931)" style="fill: #2f9599; stroke: #ffffff; stroke-width: 0.48"/>
    <path d="M 260.801748 75.328526 
L 260.801748 79.571166 
L 265.044389 79.571166 
L 265.044389 75.328526 
z
" clip-path="url(#paff42b5931)" style="fill: #2f9599; stroke: #ffffff; stroke-width: 0.48"/>
    <path d="M 301.383566 40.872372 
L 301.383566 45.115013 
L 305.626207 45.115013 
L 305.626207 40.872372 
z
" clip-path="url(#paff42b5931)" style="fill: #2f9599; stroke: #ffffff; stroke-width: 0.48"/>
   </g>
   <g id="PathCollection_2"/>
   <g id="PathCollection_3"/>
   <g id="PathCollection_4"/>
   <g id="PathCollection_5"/>
   <g id="PathCollection_6"/>
   <g id="matplotlib.axis_1">
    <g id="xtick_1">
     <g id="line2d_1">
      <defs>
       <path id="m9cc9239eea" d="M 0 0 
L 0 3.5 
" style="stroke: #000000; stroke-width: 0.8"/>
      </defs>
      <g>
       <use xlink:href="#m9cc9239eea" x="60.013977" y="273.312" style="stroke: #000000; stroke-width: 0.8"/>
      </g>
     </g>
     <g id="text_1">
      <!-- 20 -->
      <g transform="translate(53.651477 287.910438)scale(0.1 -0.1)">
       <defs>
        <path id="DejaVuSans-32" d="M 1228 531 
L 3431 531 
L 3431 0 
L 469 0 
L 469 531 
Q 828 903 1448 1529 
Q 2069 2156 2228 2338 
Q 2531 2678 2651 2914 
Q 2772 3150 2772 3378 
Q 2772 3750 2511 3984 
Q 2250 4219 1831 4219 
Q 1534 4219 1204 4116 
Q 875 4013 500 3803 
L 500 4441 
Q 881 4594 1212 4672 
Q 1544 4750 1819 4750 
Q 2544 4750 2975 4387 
Q 3406 4025 3406 3419 
Q 3406 3131 3298 2873 
Q 3191 2616 2906 2266 
Q 2828 2175 2409 1742 
Q 1991 1309 1228 531 
z
" transform="scale(0.015625)"/>
        <path id="DejaVuSans-30" d="M 2034 4250 
Q 1547 4250 1301 3770 
Q 1056 3291 1056 2328 
Q 1056 1369 1301 889 
Q 1547 409 2034 409 
Q 2525 409 2770 889 
Q 3016 1369 3016 2328 
Q 3016 3291 2770 3770 
Q 2525 4250 2034 4250 
z
M 2034 4750 
Q 2819 4750 3233 4129 
Q 3647 3509 3647 2328 
Q 3647 1150 3233 529 
Q 2819 -91 2034 -91 
Q 1250 -91 836 529 
Q 422 1150 422 2328 
Q 422 3509 836 4129 
Q 1250 4750 2034 4750 
z
" transform="scale(0.015625)"/>
       </defs>
       <use xlink:href="#DejaVuSans-32"/>
       <use xlink:href="#DejaVuSans-30" x="63.623047"/>
      </g>
     </g>
    </g>
    <g id="xtick_2">
     <g id="line2d_2">
      <g>
       <use xlink:href="#m9cc9239eea" x="100.595795" y="273.312" style="stroke: #000000; stroke-width: 0.8"/>
      </g>
     </g>
     <g id="text_2">
      <!-- 30 -->
      <g transform="translate(94.233295 287.910438)scale(0.1 -0.1)">
       <defs>
        <path id="DejaVuSans-33" d="M 2597 2516 
Q 3050 2419 3304 2112 
Q 3559 1806 3559 1356 
Q 3559 666 3084 287 
Q 2609 -91 1734 -91 
Q 1441 -91 1130 -33 
Q 819 25 488 141 
L 488 750 
Q 750 597 1062 519 
Q 1375 441 1716 441 
Q 2309 441 2620 675 
Q 2931 909 2931 1356 
Q 2931 1769 2642 2001 
Q 2353 2234 1838 2234 
L 1294 2234 
L 1294 2753 
L 1863 2753 
Q 2328 2753 2575 2939 
Q 2822 3125 2822 3475 
Q 2822 3834 2567 4026 
Q 2313 4219 1838 4219 
Q 1578 4219 1281 4162 
Q 984 4106 628 3988 
L 628 4550 
Q 988 4650 1302 4700 
Q 1616 4750 1894 4750 
Q 2613 4750 3031 4423 
Q 3450 4097 3450 3541 
Q 3450 3153 3228 2886 
Q 3006 2619 2597 2516 
z
" transform="scale(0.015625)"/>
       </defs>
       <use xlink:href="#DejaVuSans-33"/>
       <use xlink:href="#DejaVuSans-30" x="63.623047"/>
      </g>
     </g>
    </g>
    <g id="xtick_3">
     <g id="line2d_3">
      <g>
       <use xlink:href="#m9cc9239eea" x="141.177614" y="273.312" style="stroke: #000000; stroke-width: 0.8"/>
      </g>
     </g>
     <g id="text_3">
      <!-- 40 -->
      <g transform="translate(134.815114 287.910438)scale(0.1 -0.1)">
       <defs>
        <path id="DejaVuSans-34" d="M 2419 4116 
L 825 1625 
L 2419 1625 
L 2419 4116 
z
M 2253 4666 
L 3047 4666 
L 3047 1625 
L 3713 1625 
L 3713 1100 
L 3047 1100 
L 3047 0 
L 2419 0 
L 2419 1100 
L 313 1100 
L 313 1709 
L 2253 4666 
z
" transform="scale(0.015625)"/>
       </defs>
       <use xlink:href="#DejaVuSans-34"/>
       <use xlink:href="#DejaVuSans-30" x="63.623047"/>
      </g>
     </g>
    </g>
    <g id="xtick_4">
     <g id="line2d_4">
      <g>
       <use xlink:href="#m9cc9239eea" x="181.759432" y="273.312" style="stroke: #000000; stroke-width: 0.8"/>
      </g>
     </g>
     <g id="text_4">
      <!-- 50 -->
      <g transform="translate(175.396932 287.910438)scale(0.1 -0.1)">
       <defs>
        <path id="DejaVuSans-35" d="M 691 4666 
L 3169 4666 
L 3169 4134 
L 1269 4134 
L 1269 2991 
Q 1406 3038 1543 3061 
Q 1681 3084 1819 3084 
Q 2600 3084 3056 2656 
Q 3513 2228 3513 1497 
Q 3513 744 3044 326 
Q 2575 -91 1722 -91 
Q 1428 -91 1123 -41 
Q 819 9 494 109 
L 494 744 
Q 775 591 1075 516 
Q 1375 441 1709 441 
Q 2250 441 2565 725 
Q 2881 1009 2881 1497 
Q 2881 1984 2565 2268 
Q 2250 2553 1709 2553 
Q 1456 2553 1204 2497 
Q 953 2441 691 2322 
L 691 4666 
z
" transform="scale(0.015625)"/>
       </defs>
       <use xlink:href="#DejaVuSans-35"/>
       <use xlink:href="#DejaVuSans-30" x="63.623047"/>
      </g>
     </g>
    </g>
    <g id="xtick_5">
     <g id="line2d_5">
      <g>
       <use xlink:href="#m9cc9239eea" x="222.34125" y="273.312" style="stroke: #000000; stroke-width: 0.8"/>
      </g>
     </g>
     <g id="text_5">
      <!-- 70 -->
      <g transform="translate(215.97875 287.910438)scale(0.1 -0.1)">
       <defs>
        <path id="DejaVuSans-37" d="M 525 4666 
L 3525 4666 
L 3525 4397 
L 1831 0 
L 1172 0 
L 2766 4134 
L 525 4134 
L 525 4666 
z
" transform="scale(0.015625)"/>
       </defs>
       <use xlink:href="#DejaVuSans-37"/>
       <use xlink:href="#DejaVuSans-30" x="63.623047"/>
      </g>
     </g>
    </g>
    <g id="xtick_6">
     <g id="line2d_6">
      <g>
       <use xlink:href="#m9cc9239eea" x="262.923068" y="273.312" style="stroke: #000000; stroke-width: 0.8"/>
      </g>
     </g>
     <g id="text_6">
      <!-- 100 -->
      <g transform="translate(253.379318 287.910438)scale(0.1 -0.1)">
       <defs>
        <path id="DejaVuSans-31" d="M 794 531 
L 1825 531 
L 1825 4091 
L 703 3866 
L 703 4441 
L 1819 4666 
L 2450 4666 
L 2450 531 
L 3481 531 
L 3481 0 
L 794 0 
L 794 531 
z
" transform="scale(0.015625)"/>
       </defs>
       <use xlink:href="#DejaVuSans-31"/>
       <use xlink:href="#DejaVuSans-30" x="63.623047"/>
       <use xlink:href="#DejaVuSans-30" x="127.246094"/>
      </g>
     </g>
    </g>
    <g id="xtick_7">
     <g id="line2d_7">
      <g>
       <use xlink:href="#m9cc9239eea" x="303.504886" y="273.312" style="stroke: #000000; stroke-width: 0.8"/>
      </g>
     </g>
     <g id="text_7">
      <!-- 150 -->
      <g transform="translate(293.961136 287.910438)scale(0.1 -0.1)">
       <use xlink:href="#DejaVuSans-31"/>
       <use xlink:href="#DejaVuSans-35" x="63.623047"/>
       <use xlink:href="#DejaVuSans-30" x="127.246094"/>
      </g>
     </g>
    </g>
    <g id="xtick_8">
     <g id="line2d_8">
      <g>
       <use xlink:href="#m9cc9239eea" x="344.086705" y="273.312" style="stroke: #000000; stroke-width: 0.8"/>
      </g>
     </g>
     <g id="text_8">
      <!-- 200 -->
      <g transform="translate(334.542955 287.910438)scale(0.1 -0.1)">
       <use xlink:href="#DejaVuSans-32"/>
       <use xlink:href="#DejaVuSans-30" x="63.623047"/>
       <use xlink:href="#DejaVuSans-30" x="127.246094"/>
      </g>
     </g>
    </g>
    <g id="xtick_9">
     <g id="line2d_9">
      <g>
       <use xlink:href="#m9cc9239eea" x="384.668523" y="273.312" style="stroke: #000000; stroke-width: 0.8"/>
      </g>
     </g>
     <g id="text_9">
      <!-- 200&lt; -->
      <g transform="translate(370.934929 287.910438)scale(0.1 -0.1)">
       <defs>
        <path id="DejaVuSans-3c" d="M 4684 3150 
L 1459 2003 
L 4684 863 
L 4684 294 
L 678 1747 
L 678 2266 
L 4684 3719 
L 4684 3150 
z
" transform="scale(0.015625)"/>
       </defs>
       <use xlink:href="#DejaVuSans-32"/>
       <use xlink:href="#DejaVuSans-30" x="63.623047"/>
       <use xlink:href="#DejaVuSans-30" x="127.246094"/>
       <use xlink:href="#DejaVuSans-3c" x="190.869141"/>
      </g>
     </g>
    </g>
    <g id="text_10">
     <!-- nrows -->
     <g transform="translate(207.476406 301.588562)scale(0.1 -0.1)">
      <defs>
       <path id="DejaVuSans-6e" d="M 3513 2113 
L 3513 0 
L 2938 0 
L 2938 2094 
Q 2938 2591 2744 2837 
Q 2550 3084 2163 3084 
Q 1697 3084 1428 2787 
Q 1159 2491 1159 1978 
L 1159 0 
L 581 0 
L 581 3500 
L 1159 3500 
L 1159 2956 
Q 1366 3272 1645 3428 
Q 1925 3584 2291 3584 
Q 2894 3584 3203 3211 
Q 3513 2838 3513 2113 
z
" transform="scale(0.015625)"/>
       <path id="DejaVuSans-72" d="M 2631 2963 
Q 2534 3019 2420 3045 
Q 2306 3072 2169 3072 
Q 1681 3072 1420 2755 
Q 1159 2438 1159 1844 
L 1159 0 
L 581 0 
L 581 3500 
L 1159 3500 
L 1159 2956 
Q 1341 3275 1631 3429 
Q 1922 3584 2338 3584 
Q 2397 3584 2469 3576 
Q 2541 3569 2628 3553 
L 2631 2963 
z
" transform="scale(0.015625)"/>
       <path id="DejaVuSans-6f" d="M 1959 3097 
Q 1497 3097 1228 2736 
Q 959 2375 959 1747 
Q 959 1119 1226 758 
Q 1494 397 1959 397 
Q 2419 397 2687 759 
Q 2956 1122 2956 1747 
Q 2956 2369 2687 2733 
Q 2419 3097 1959 3097 
z
M 1959 3584 
Q 2709 3584 3137 3096 
Q 3566 2609 3566 1747 
Q 3566 888 3137 398 
Q 2709 -91 1959 -91 
Q 1206 -91 779 398 
Q 353 888 353 1747 
Q 353 2609 779 3096 
Q 1206 3584 1959 3584 
z
" transform="scale(0.015625)"/>
       <path id="DejaVuSans-77" d="M 269 3500 
L 844 3500 
L 1563 769 
L 2278 3500 
L 2956 3500 
L 3675 769 
L 4391 3500 
L 4966 3500 
L 4050 0 
L 3372 0 
L 2619 2869 
L 1863 0 
L 1184 0 
L 269 3500 
z
" transform="scale(0.015625)"/>
       <path id="DejaVuSans-73" d="M 2834 3397 
L 2834 2853 
Q 2591 2978 2328 3040 
Q 2066 3103 1784 3103 
Q 1356 3103 1142 2972 
Q 928 2841 928 2578 
Q 928 2378 1081 2264 
Q 1234 2150 1697 2047 
L 1894 2003 
Q 2506 1872 2764 1633 
Q 3022 1394 3022 966 
Q 3022 478 2636 193 
Q 2250 -91 1575 -91 
Q 1294 -91 989 -36 
Q 684 19 347 128 
L 347 722 
Q 666 556 975 473 
Q 1284 391 1588 391 
Q 1994 391 2212 530 
Q 2431 669 2431 922 
Q 2431 1156 2273 1281 
Q 2116 1406 1581 1522 
L 1381 1569 
Q 847 1681 609 1914 
Q 372 2147 372 2553 
Q 372 3047 722 3315 
Q 1072 3584 1716 3584 
Q 2034 3584 2315 3537 
Q 2597 3491 2834 3397 
z
" transform="scale(0.015625)"/>
      </defs>
      <use xlink:href="#DejaVuSans-6e"/>
      <use xlink:href="#DejaVuSans-72" x="63.378906"/>
      <use xlink:href="#DejaVuSans-6f" x="102.242188"/>
      <use xlink:href="#DejaVuSans-77" x="163.423828"/>
      <use xlink:href="#DejaVuSans-73" x="245.210938"/>
     </g>
    </g>
   </g>
   <g id="matplotlib.axis_2">
    <g id="ytick_1">
     <g id="line2d_10">
      <defs>
       <path id="m3ff4f7a8d5" d="M 0 0 
L -3.5 0 
" style="stroke: #000000; stroke-width: 0.8"/>
      </defs>
      <g>
       <use xlink:href="#m3ff4f7a8d5" x="43.78125" y="261.216" style="stroke: #000000; stroke-width: 0.8"/>
      </g>
     </g>
     <g id="text_11">
      <!-- 0.0 -->
      <g transform="translate(20.878125 265.015219)scale(0.1 -0.1)">
       <defs>
        <path id="DejaVuSans-2e" d="M 684 794 
L 1344 794 
L 1344 0 
L 684 0 
L 684 794 
z
" transform="scale(0.015625)"/>
       </defs>
       <use xlink:href="#DejaVuSans-30"/>
       <use xlink:href="#DejaVuSans-2e" x="63.623047"/>
       <use xlink:href="#DejaVuSans-30" x="95.410156"/>
      </g>
     </g>
    </g>
    <g id="ytick_2">
     <g id="line2d_11">
      <g>
       <use xlink:href="#m3ff4f7a8d5" x="43.78125" y="224.462769" style="stroke: #000000; stroke-width: 0.8"/>
      </g>
     </g>
     <g id="text_12">
      <!-- 0.1 -->
      <g transform="translate(20.878125 228.261988)scale(0.1 -0.1)">
       <use xlink:href="#DejaVuSans-30"/>
       <use xlink:href="#DejaVuSans-2e" x="63.623047"/>
       <use xlink:href="#DejaVuSans-31" x="95.410156"/>
      </g>
     </g>
    </g>
    <g id="ytick_3">
     <g id="line2d_12">
      <g>
       <use xlink:href="#m3ff4f7a8d5" x="43.78125" y="187.709538" style="stroke: #000000; stroke-width: 0.8"/>
      </g>
     </g>
     <g id="text_13">
      <!-- 0.2 -->
      <g transform="translate(20.878125 191.508757)scale(0.1 -0.1)">
       <use xlink:href="#DejaVuSans-30"/>
       <use xlink:href="#DejaVuSans-2e" x="63.623047"/>
       <use xlink:href="#DejaVuSans-32" x="95.410156"/>
      </g>
     </g>
    </g>
    <g id="ytick_4">
     <g id="line2d_13">
      <g>
       <use xlink:href="#m3ff4f7a8d5" x="43.78125" y="150.956308" style="stroke: #000000; stroke-width: 0.8"/>
      </g>
     </g>
     <g id="text_14">
      <!-- 0.3 -->
      <g transform="translate(20.878125 154.755526)scale(0.1 -0.1)">
       <use xlink:href="#DejaVuSans-30"/>
       <use xlink:href="#DejaVuSans-2e" x="63.623047"/>
       <use xlink:href="#DejaVuSans-33" x="95.410156"/>
      </g>
     </g>
    </g>
    <g id="ytick_5">
     <g id="line2d_14">
      <g>
       <use xlink:href="#m3ff4f7a8d5" x="43.78125" y="114.203077" style="stroke: #000000; stroke-width: 0.8"/>
      </g>
     </g>
     <g id="text_15">
      <!-- 0.4 -->
      <g transform="translate(20.878125 118.002296)scale(0.1 -0.1)">
       <use xlink:href="#DejaVuSans-30"/>
       <use xlink:href="#DejaVuSans-2e" x="63.623047"/>
       <use xlink:href="#DejaVuSans-34" x="95.410156"/>
      </g>
     </g>
    </g>
    <g id="ytick_6">
     <g id="line2d_15">
      <g>
       <use xlink:href="#m3ff4f7a8d5" x="43.78125" y="77.449846" style="stroke: #000000; stroke-width: 0.8"/>
      </g>
     </g>
     <g id="text_16">
      <!-- 0.5 -->
      <g transform="translate(20.878125 81.249065)scale(0.1 -0.1)">
       <use xlink:href="#DejaVuSans-30"/>
       <use xlink:href="#DejaVuSans-2e" x="63.623047"/>
       <use xlink:href="#DejaVuSans-35" x="95.410156"/>
      </g>
     </g>
    </g>
    <g id="ytick_7">
     <g id="line2d_16">
      <g>
       <use xlink:href="#m3ff4f7a8d5" x="43.78125" y="40.696615" style="stroke: #000000; stroke-width: 0.8"/>
      </g>
     </g>
     <g id="text_17">
      <!-- 0.6 -->
      <g transform="translate(20.878125 44.495834)scale(0.1 -0.1)">
       <defs>
        <path id="DejaVuSans-36" d="M 2113 2584 
Q 1688 2584 1439 2293 
Q 1191 2003 1191 1497 
Q 1191 994 1439 701 
Q 1688 409 2113 409 
Q 2538 409 2786 701 
Q 3034 994 3034 1497 
Q 3034 2003 2786 2293 
Q 2538 2584 2113 2584 
z
M 3366 4563 
L 3366 3988 
Q 3128 4100 2886 4159 
Q 2644 4219 2406 4219 
Q 1781 4219 1451 3797 
Q 1122 3375 1075 2522 
Q 1259 2794 1537 2939 
Q 1816 3084 2150 3084 
Q 2853 3084 3261 2657 
Q 3669 2231 3669 1497 
Q 3669 778 3244 343 
Q 2819 -91 2113 -91 
Q 1303 -91 875 529 
Q 447 1150 447 2328 
Q 447 3434 972 4092 
Q 1497 4750 2381 4750 
Q 2619 4750 2861 4703 
Q 3103 4656 3366 4563 
z
" transform="scale(0.015625)"/>
       </defs>
       <use xlink:href="#DejaVuSans-30"/>
       <use xlink:href="#DejaVuSans-2e" x="63.623047"/>
       <use xlink:href="#DejaVuSans-36" x="95.410156"/>
      </g>
     </g>
    </g>
    <g id="text_18">
     <!-- score -->
     <g transform="translate(14.798438 153.688813)rotate(-90)scale(0.1 -0.1)">
      <defs>
       <path id="DejaVuSans-63" d="M 3122 3366 
L 3122 2828 
Q 2878 2963 2633 3030 
Q 2388 3097 2138 3097 
Q 1578 3097 1268 2742 
Q 959 2388 959 1747 
Q 959 1106 1268 751 
Q 1578 397 2138 397 
Q 2388 397 2633 464 
Q 2878 531 3122 666 
L 3122 134 
Q 2881 22 2623 -34 
Q 2366 -91 2075 -91 
Q 1284 -91 818 406 
Q 353 903 353 1747 
Q 353 2603 823 3093 
Q 1294 3584 2113 3584 
Q 2378 3584 2631 3529 
Q 2884 3475 3122 3366 
z
" transform="scale(0.015625)"/>
       <path id="DejaVuSans-65" d="M 3597 1894 
L 3597 1613 
L 953 1613 
Q 991 1019 1311 708 
Q 1631 397 2203 397 
Q 2534 397 2845 478 
Q 3156 559 3463 722 
L 3463 178 
Q 3153 47 2828 -22 
Q 2503 -91 2169 -91 
Q 1331 -91 842 396 
Q 353 884 353 1716 
Q 353 2575 817 3079 
Q 1281 3584 2069 3584 
Q 2775 3584 3186 3129 
Q 3597 2675 3597 1894 
z
M 3022 2063 
Q 3016 2534 2758 2815 
Q 2500 3097 2075 3097 
Q 1594 3097 1305 2825 
Q 1016 2553 972 2059 
L 3022 2063 
z
" transform="scale(0.015625)"/>
      </defs>
      <use xlink:href="#DejaVuSans-73"/>
      <use xlink:href="#DejaVuSans-63" x="52.099609"/>
      <use xlink:href="#DejaVuSans-6f" x="107.080078"/>
      <use xlink:href="#DejaVuSans-72" x="168.261719"/>
      <use xlink:href="#DejaVuSans-65" x="207.125"/>
     </g>
    </g>
   </g>
   <g id="line2d_17">
    <path d="M 60.013977 261.216 
L 100.595795 138.705231 
L 141.177614 123.391385 
L 181.759432 101.419344 
L 222.34125 100.420615 
L 262.923068 53.480348 
L 303.504886 27.331804 
L 344.086705 19.296 
L 384.668523 27.331804 
" clip-path="url(#paff42b5931)" style="fill: none; stroke-dasharray: 7.4,3.2; stroke-dashoffset: 0; stroke: #f26b38; stroke-width: 2"/>
   </g>
   <g id="line2d_18">
    <path d="M 60.013977 261.216 
L 100.595795 138.705231 
L 141.177614 123.391385 
L 181.759432 101.419344 
L 222.34125 100.420615 
L 262.923068 53.480348 
L 303.504886 27.331804 
L 344.086705 19.296 
L 384.668523 27.331804 
" clip-path="url(#paff42b5931)" style="fill: none; stroke-dasharray: 7.4,3.2; stroke-dashoffset: 0; stroke: #f26b38; stroke-width: 2"/>
   </g>
   <g id="line2d_19">
    <path d="M 60.013977 261.216 
L 100.595795 138.705231 
L 141.177614 123.391385 
L 181.759432 101.419344 
L 222.34125 100.420615 
L 262.923068 53.480348 
L 303.504886 27.331804 
L 344.086705 19.296 
L 384.668523 27.331804 
" clip-path="url(#paff42b5931)" style="fill: none; stroke-dasharray: 7.4,3.2; stroke-dashoffset: 0; stroke: #f26b38; stroke-width: 2"/>
   </g>
   <g id="line2d_20">
    <path d="M 60.013977 261.216 
L 100.595795 138.705231 
L 141.177614 123.391385 
L 181.759432 101.419344 
L 222.34125 100.420615 
L 262.923068 53.480348 
L 303.504886 27.331804 
L 344.086705 19.296 
L 384.668523 27.331804 
" clip-path="url(#paff42b5931)" style="fill: none; stroke-dasharray: 2,3.3; stroke-dashoffset: 0; stroke: #2f9599; stroke-width: 2"/>
   </g>
   <g id="line2d_21">
    <path d="M 60.013977 261.216 
L 100.595795 138.705231 
L 141.177614 123.391385 
L 181.759432 101.419344 
L 222.34125 100.420615 
L 262.923068 53.480348 
L 303.504886 27.331804 
L 344.086705 19.296 
L 384.668523 27.331804 
" clip-path="url(#paff42b5931)" style="fill: none; stroke-dasharray: 2,3.3; stroke-dashoffset: 0; stroke: #2f9599; stroke-width: 2"/>
   </g>
   <g id="line2d_22">
    <path d="M 60.013977 261.216 
L 100.595795 138.705231 
L 141.177614 163.207385 
L 181.759432 127.567888 
L 222.34125 118.945429 
L 262.923068 77.449846 
L 303.504886 42.993692 
L 344.086705 32.104951 
L 384.668523 27.331804 
" clip-path="url(#paff42b5931)" style="fill: none; stroke-dasharray: 2,3.3; stroke-dashoffset: 0; stroke: #2f9599; stroke-width: 2"/>
   </g>
   <g id="patch_3">
    <path d="M 43.78125 273.312 
L 43.78125 7.2 
" style="fill: none; stroke: #000000; stroke-width: 0.8; stroke-linejoin: miter; stroke-linecap: square"/>
   </g>
   <g id="patch_4">
    <path d="M 400.90125 273.312 
L 400.90125 7.2 
" style="fill: none; stroke: #000000; stroke-width: 0.8; stroke-linejoin: miter; stroke-linecap: square"/>
   </g>
   <g id="patch_5">
    <path d="M 43.78125 273.312 
L 400.90125 273.312 
" style="fill: none; stroke: #000000; stroke-width: 0.8; stroke-linejoin: miter; stroke-linecap: square"/>
   </g>
   <g id="patch_6">
    <path d="M 43.78125 7.2 
L 400.90125 7.2 
" style="fill: none; stroke: #000000; stroke-width: 0.8; stroke-linejoin: miter; stroke-linecap: square"/>
   </g>
   <g id="legend_1">
    <g id="patch_7">
     <path d="M 48.63925 84.637388 
L 129.254941 84.637388 
Q 130.642941 84.637388 130.642941 83.249388 
L 130.642941 12.058 
Q 130.642941 10.67 129.254941 10.67 
L 48.63925 10.67 
Q 47.25125 10.67 47.25125 12.058 
L 47.25125 83.249388 
Q 47.25125 84.637388 48.63925 84.637388 
z
" style="fill: #ffffff; opacity: 0.8; stroke: #cccccc; stroke-linejoin: miter"/>
    </g>
    <g id="text_19">
     <!-- pred -->
     <g transform="translate(69.45925 18.719316)scale(0.0694 -0.0694)">
      <defs>
       <path id="DejaVuSans-70" d="M 1159 525 
L 1159 -1331 
L 581 -1331 
L 581 3500 
L 1159 3500 
L 1159 2969 
Q 1341 3281 1617 3432 
Q 1894 3584 2278 3584 
Q 2916 3584 3314 3078 
Q 3713 2572 3713 1747 
Q 3713 922 3314 415 
Q 2916 -91 2278 -91 
Q 1894 -91 1617 61 
Q 1341 213 1159 525 
z
M 3116 1747 
Q 3116 2381 2855 2742 
Q 2594 3103 2138 3103 
Q 1681 3103 1420 2742 
Q 1159 2381 1159 1747 
Q 1159 1113 1420 752 
Q 1681 391 2138 391 
Q 2594 391 2855 752 
Q 3116 1113 3116 1747 
z
" transform="scale(0.015625)"/>
       <path id="DejaVuSans-64" d="M 2906 2969 
L 2906 4863 
L 3481 4863 
L 3481 0 
L 2906 0 
L 2906 525 
Q 2725 213 2448 61 
Q 2172 -91 1784 -91 
Q 1150 -91 751 415 
Q 353 922 353 1747 
Q 353 2572 751 3078 
Q 1150 3584 1784 3584 
Q 2172 3584 2448 3432 
Q 2725 3281 2906 2969 
z
M 947 1747 
Q 947 1113 1208 752 
Q 1469 391 1925 391 
Q 2381 391 2643 752 
Q 2906 1113 2906 1747 
Q 2906 2381 2643 2742 
Q 2381 3103 1925 3103 
Q 1469 3103 1208 2742 
Q 947 2381 947 1747 
z
" transform="scale(0.015625)"/>
      </defs>
      <use xlink:href="#DejaVuSans-70"/>
      <use xlink:href="#DejaVuSans-72" x="63.476562"/>
      <use xlink:href="#DejaVuSans-65" x="102.339844"/>
      <use xlink:href="#DejaVuSans-64" x="163.863281"/>
     </g>
    </g>
    <g id="PathCollection_7">
     <defs>
      <path id="mce11e0a505" d="M 0 3 
C 0.795609 3 1.55874 2.683901 2.12132 2.12132 
C 2.683901 1.55874 3 0.795609 3 0 
C 3 -0.795609 2.683901 -1.55874 2.12132 -2.12132 
C 1.55874 -2.683901 0.795609 -3 0 -3 
C -0.795609 -3 -1.55874 -2.683901 -2.12132 -2.12132 
C -2.683901 -1.55874 -3 -0.795609 -3 0 
C -3 0.795609 -2.683901 1.55874 -2.12132 2.12132 
C -1.55874 2.683901 -0.795609 3 0 3 
z
" style="stroke: #f26b38"/>
     </defs>
     <g>
      <use xlink:href="#mce11e0a505" x="56.96725" y="27.084184" style="fill: #f26b38; stroke: #f26b38"/>
     </g>
    </g>
    <g id="text_20">
     <!-- estimate -->
     <g transform="translate(69.45925 28.905934)scale(0.0694 -0.0694)">
      <defs>
       <path id="DejaVuSans-74" d="M 1172 4494 
L 1172 3500 
L 2356 3500 
L 2356 3053 
L 1172 3053 
L 1172 1153 
Q 1172 725 1289 603 
Q 1406 481 1766 481 
L 2356 481 
L 2356 0 
L 1766 0 
Q 1100 0 847 248 
Q 594 497 594 1153 
L 594 3053 
L 172 3053 
L 172 3500 
L 594 3500 
L 594 4494 
L 1172 4494 
z
" transform="scale(0.015625)"/>
       <path id="DejaVuSans-69" d="M 603 3500 
L 1178 3500 
L 1178 0 
L 603 0 
L 603 3500 
z
M 603 4863 
L 1178 4863 
L 1178 4134 
L 603 4134 
L 603 4863 
z
" transform="scale(0.015625)"/>
       <path id="DejaVuSans-6d" d="M 3328 2828 
Q 3544 3216 3844 3400 
Q 4144 3584 4550 3584 
Q 5097 3584 5394 3201 
Q 5691 2819 5691 2113 
L 5691 0 
L 5113 0 
L 5113 2094 
Q 5113 2597 4934 2840 
Q 4756 3084 4391 3084 
Q 3944 3084 3684 2787 
Q 3425 2491 3425 1978 
L 3425 0 
L 2847 0 
L 2847 2094 
Q 2847 2600 2669 2842 
Q 2491 3084 2119 3084 
Q 1678 3084 1418 2786 
Q 1159 2488 1159 1978 
L 1159 0 
L 581 0 
L 581 3500 
L 1159 3500 
L 1159 2956 
Q 1356 3278 1631 3431 
Q 1906 3584 2284 3584 
Q 2666 3584 2933 3390 
Q 3200 3197 3328 2828 
z
" transform="scale(0.015625)"/>
       <path id="DejaVuSans-61" d="M 2194 1759 
Q 1497 1759 1228 1600 
Q 959 1441 959 1056 
Q 959 750 1161 570 
Q 1363 391 1709 391 
Q 2188 391 2477 730 
Q 2766 1069 2766 1631 
L 2766 1759 
L 2194 1759 
z
M 3341 1997 
L 3341 0 
L 2766 0 
L 2766 531 
Q 2569 213 2275 61 
Q 1981 -91 1556 -91 
Q 1019 -91 701 211 
Q 384 513 384 1019 
Q 384 1609 779 1909 
Q 1175 2209 1959 2209 
L 2766 2209 
L 2766 2266 
Q 2766 2663 2505 2880 
Q 2244 3097 1772 3097 
Q 1472 3097 1187 3025 
Q 903 2953 641 2809 
L 641 3341 
Q 956 3463 1253 3523 
Q 1550 3584 1831 3584 
Q 2591 3584 2966 3190 
Q 3341 2797 3341 1997 
z
" transform="scale(0.015625)"/>
      </defs>
      <use xlink:href="#DejaVuSans-65"/>
      <use xlink:href="#DejaVuSans-73" x="61.523438"/>
      <use xlink:href="#DejaVuSans-74" x="113.623047"/>
      <use xlink:href="#DejaVuSans-69" x="152.832031"/>
      <use xlink:href="#DejaVuSans-6d" x="180.615234"/>
      <use xlink:href="#DejaVuSans-61" x="278.027344"/>
      <use xlink:href="#DejaVuSans-74" x="339.306641"/>
      <use xlink:href="#DejaVuSans-65" x="378.515625"/>
     </g>
    </g>
    <g id="PathCollection_8">
     <defs>
      <path id="m4c90d1c6ba" d="M 0 3 
C 0.795609 3 1.55874 2.683901 2.12132 2.12132 
C 2.683901 1.55874 3 0.795609 3 0 
C 3 -0.795609 2.683901 -1.55874 2.12132 -2.12132 
C 1.55874 -2.683901 0.795609 -3 0 -3 
C -0.795609 -3 -1.55874 -2.683901 -2.12132 -2.12132 
C -2.683901 -1.55874 -3 -0.795609 -3 0 
C -3 0.795609 -2.683901 1.55874 -2.12132 2.12132 
C -1.55874 2.683901 -0.795609 3 0 3 
z
" style="stroke: #2f9599"/>
     </defs>
     <g>
      <use xlink:href="#m4c90d1c6ba" x="56.96725" y="37.270803" style="fill: #2f9599; stroke: #2f9599"/>
     </g>
    </g>
    <g id="text_21">
     <!-- exact -->
     <g transform="translate(69.45925 39.092553)scale(0.0694 -0.0694)">
      <defs>
       <path id="DejaVuSans-78" d="M 3513 3500 
L 2247 1797 
L 3578 0 
L 2900 0 
L 1881 1375 
L 863 0 
L 184 0 
L 1544 1831 
L 300 3500 
L 978 3500 
L 1906 2253 
L 2834 3500 
L 3513 3500 
z
" transform="scale(0.015625)"/>
      </defs>
      <use xlink:href="#DejaVuSans-65"/>
      <use xlink:href="#DejaVuSans-78" x="59.773438"/>
      <use xlink:href="#DejaVuSans-61" x="118.953125"/>
      <use xlink:href="#DejaVuSans-63" x="180.232422"/>
      <use xlink:href="#DejaVuSans-74" x="235.212891"/>
     </g>
    </g>
    <g id="text_22">
     <!-- method -->
     <g transform="translate(69.45925 49.279172)scale(0.0694 -0.0694)">
      <defs>
       <path id="DejaVuSans-68" d="M 3513 2113 
L 3513 0 
L 2938 0 
L 2938 2094 
Q 2938 2591 2744 2837 
Q 2550 3084 2163 3084 
Q 1697 3084 1428 2787 
Q 1159 2491 1159 1978 
L 1159 0 
L 581 0 
L 581 4863 
L 1159 4863 
L 1159 2956 
Q 1366 3272 1645 3428 
Q 1925 3584 2291 3584 
Q 2894 3584 3203 3211 
Q 3513 2838 3513 2113 
z
" transform="scale(0.015625)"/>
      </defs>
      <use xlink:href="#DejaVuSans-6d"/>
      <use xlink:href="#DejaVuSans-65" x="97.412109"/>
      <use xlink:href="#DejaVuSans-74" x="158.935547"/>
      <use xlink:href="#DejaVuSans-68" x="198.144531"/>
      <use xlink:href="#DejaVuSans-6f" x="261.523438"/>
      <use xlink:href="#DejaVuSans-64" x="322.705078"/>
     </g>
    </g>
    <g id="PathCollection_9">
     <defs>
      <path id="m03a9089d7e" d="M 0 3 
C 0.795609 3 1.55874 2.683901 2.12132 2.12132 
C 2.683901 1.55874 3 0.795609 3 0 
C 3 -0.795609 2.683901 -1.55874 2.12132 -2.12132 
C 1.55874 -2.683901 0.795609 -3 0 -3 
C -0.795609 -3 -1.55874 -2.683901 -2.12132 -2.12132 
C -2.683901 -1.55874 -3 -0.795609 -3 0 
C -3 0.795609 -2.683901 1.55874 -2.12132 2.12132 
C -1.55874 2.683901 -0.795609 3 0 3 
z
" style="stroke: #333333"/>
     </defs>
     <g>
      <use xlink:href="#m03a9089d7e" x="56.96725" y="57.644041" style="fill: #333333; stroke: #333333"/>
     </g>
    </g>
    <g id="text_23">
     <!-- mean_err -->
     <g transform="translate(69.45925 59.465791)scale(0.0694 -0.0694)">
      <defs>
       <path id="DejaVuSans-5f" d="M 3263 -1063 
L 3263 -1509 
L -63 -1509 
L -63 -1063 
L 3263 -1063 
z
" transform="scale(0.015625)"/>
      </defs>
      <use xlink:href="#DejaVuSans-6d"/>
      <use xlink:href="#DejaVuSans-65" x="97.412109"/>
      <use xlink:href="#DejaVuSans-61" x="158.935547"/>
      <use xlink:href="#DejaVuSans-6e" x="220.214844"/>
      <use xlink:href="#DejaVuSans-5f" x="283.59375"/>
      <use xlink:href="#DejaVuSans-65" x="333.59375"/>
      <use xlink:href="#DejaVuSans-72" x="395.117188"/>
      <use xlink:href="#DejaVuSans-72" x="434.480469"/>
     </g>
    </g>
    <g id="PathCollection_10">
     <defs>
      <path id="m98cabb2452" d="M -1.5 3 
L 0 1.5 
L 1.5 3 
L 3 1.5 
L 1.5 0 
L 3 -1.5 
L 1.5 -3 
L 0 -1.5 
L -1.5 -3 
L -3 -1.5 
L -1.5 0 
L -3 1.5 
z
" style="stroke: #333333"/>
     </defs>
     <g>
      <use xlink:href="#m98cabb2452" x="56.96725" y="68.023678" style="fill: #333333; stroke: #333333"/>
     </g>
    </g>
    <g id="text_24">
     <!-- mean_sq_err -->
     <g transform="translate(69.45925 69.845428)scale(0.0694 -0.0694)">
      <defs>
       <path id="DejaVuSans-71" d="M 947 1747 
Q 947 1113 1208 752 
Q 1469 391 1925 391 
Q 2381 391 2643 752 
Q 2906 1113 2906 1747 
Q 2906 2381 2643 2742 
Q 2381 3103 1925 3103 
Q 1469 3103 1208 2742 
Q 947 2381 947 1747 
z
M 2906 525 
Q 2725 213 2448 61 
Q 2172 -91 1784 -91 
Q 1150 -91 751 415 
Q 353 922 353 1747 
Q 353 2572 751 3078 
Q 1150 3584 1784 3584 
Q 2172 3584 2448 3432 
Q 2725 3281 2906 2969 
L 2906 3500 
L 3481 3500 
L 3481 -1331 
L 2906 -1331 
L 2906 525 
z
" transform="scale(0.015625)"/>
      </defs>
      <use xlink:href="#DejaVuSans-6d"/>
      <use xlink:href="#DejaVuSans-65" x="97.412109"/>
      <use xlink:href="#DejaVuSans-61" x="158.935547"/>
      <use xlink:href="#DejaVuSans-6e" x="220.214844"/>
      <use xlink:href="#DejaVuSans-5f" x="283.59375"/>
      <use xlink:href="#DejaVuSans-73" x="333.59375"/>
      <use xlink:href="#DejaVuSans-71" x="385.693359"/>
      <use xlink:href="#DejaVuSans-5f" x="449.169922"/>
      <use xlink:href="#DejaVuSans-65" x="499.169922"/>
      <use xlink:href="#DejaVuSans-72" x="560.693359"/>
      <use xlink:href="#DejaVuSans-72" x="600.056641"/>
     </g>
    </g>
    <g id="PathCollection_11">
     <defs>
      <path id="m1cf7a44201" d="M -2.12132 -2.12132 
L -2.12132 2.12132 
L 2.12132 2.12132 
L 2.12132 -2.12132 
z
" style="stroke: #333333"/>
     </defs>
     <g>
      <use xlink:href="#m1cf7a44201" x="56.96725" y="78.403316" style="fill: #333333; stroke: #333333"/>
     </g>
    </g>
    <g id="text_25">
     <!-- mean_sqroot_err -->
     <g transform="translate(69.45925 80.225066)scale(0.0694 -0.0694)">
      <use xlink:href="#DejaVuSans-6d"/>
      <use xlink:href="#DejaVuSans-65" x="97.412109"/>
      <use xlink:href="#DejaVuSans-61" x="158.935547"/>
      <use xlink:href="#DejaVuSans-6e" x="220.214844"/>
      <use xlink:href="#DejaVuSans-5f" x="283.59375"/>
      <use xlink:href="#DejaVuSans-73" x="333.59375"/>
      <use xlink:href="#DejaVuSans-71" x="385.693359"/>
      <use xlink:href="#DejaVuSans-72" x="449.169922"/>
      <use xlink:href="#DejaVuSans-6f" x="488.033203"/>
      <use xlink:href="#DejaVuSans-6f" x="549.214844"/>
      <use xlink:href="#DejaVuSans-74" x="610.396484"/>
      <use xlink:href="#DejaVuSans-5f" x="649.605469"/>
      <use xlink:href="#DejaVuSans-65" x="699.605469"/>
      <use xlink:href="#DejaVuSans-72" x="761.128906"/>
      <use xlink:href="#DejaVuSans-72" x="800.492188"/>
     </g>
    </g>
   </g>
  </g>
 </g>
 <defs>
  <clipPath id="paff42b5931">
   <rect x="43.78125" y="7.2" width="357.12" height="266.112"/>
  </clipPath>
 </defs>
</svg>
