<?xml version="1.0" encoding="utf-8" standalone="no"?>
<!DOCTYPE svg PUBLIC "-//W3C//DTD SVG 1.1//EN"
  "http://www.w3.org/Graphics/SVG/1.1/DTD/svg11.dtd">
<svg xmlns:xlink="http://www.w3.org/1999/xlink" width="408.10125pt" height="310.86825pt" viewBox="0 0 408.10125 310.86825" xmlns="http://www.w3.org/2000/svg" version="1.1">
 <metadata>
  <rdf:RDF xmlns:dc="http://purl.org/dc/elements/1.1/" xmlns:cc="http://creativecommons.org/ns#" xmlns:rdf="http://www.w3.org/1999/02/22-rdf-syntax-ns#">
   <cc:Work>
    <dc:type rdf:resource="http://purl.org/dc/dcmitype/StillImage"/>
    <dc:date>2022-03-24T13:37:40.911793</dc:date>
    <dc:format>image/svg+xml</dc:format>
    <dc:creator>
     <cc:Agent>
      <dc:title>Matplotlib v3.5.1, https://matplotlib.org/</dc:title>
     </cc:Agent>
    </dc:creator>
   </cc:Work>
  </rdf:RDF>
 </metadata>
 <defs>
  <style type="text/css">*{stroke-linejoin: round; stroke-linecap: butt}</style>
 </defs>
 <g id="figure_1">
  <g id="patch_1">
   <path d="M 0 310.86825 
L 408.10125 310.86825 
L 408.10125 0 
L 0 0 
z
" style="fill: #ffffff"/>
  </g>
  <g id="axes_1">
   <g id="patch_2">
    <path d="M 43.78125 273.312 
L 400.90125 273.312 
L 400.90125 7.2 
L 43.78125 7.2 
z
" style="fill: #ffffff"/>
   </g>
   <g id="PathCollection_1">
    <path d="M 384.668523 24.055418 
C 385.464132 24.055418 386.227262 23.739319 386.789843 23.176739 
C 387.352424 22.614158 387.668523 21.851027 387.668523 21.055418 
C 387.668523 20.259809 387.352424 19.496679 386.789843 18.934098 
C 386.227262 18.371517 385.464132 18.055418 384.668523 18.055418 
C 383.872913 18.055418 383.109783 18.371517 382.547202 18.934098 
C 381.984622 19.496679 381.668523 20.259809 381.668523 21.055418 
C 381.668523 21.851027 381.984622 22.614158 382.547202 23.176739 
C 383.109783 23.739319 383.872913 24.055418 384.668523 24.055418 
z
" clip-path="url(#pbf45595392)" style="fill: #f26b38; stroke: #ffffff; stroke-width: 0.48"/>
    <path d="M 344.086705 35.792589 
C 344.882314 35.792589 345.645444 35.476491 346.208025 34.91391 
C 346.770606 34.351329 347.086705 33.588199 347.086705 32.792589 
C 347.086705 31.99698 346.770606 31.23385 346.208025 30.671269 
C 345.645444 30.108688 344.882314 29.792589 344.086705 29.792589 
C 343.291095 29.792589 342.527965 30.108688 341.965384 30.671269 
C 341.402803 31.23385 341.086705 31.99698 341.086705 32.792589 
C 341.086705 33.588199 341.402803 34.351329 341.965384 34.91391 
C 342.527965 35.476491 343.291095 35.792589 344.086705 35.792589 
z
" clip-path="url(#pbf45595392)" style="fill: #f26b38; stroke: #ffffff; stroke-width: 0.48"/>
    <path d="M 60.013977 264.216 
C 60.809587 264.216 61.572717 263.899901 62.135298 263.33732 
C 62.697878 262.77474 63.013977 262.011609 63.013977 261.216 
C 63.013977 260.420391 62.697878 259.65726 62.135298 259.09468 
C 61.572717 258.532099 60.809587 258.216 60.013977 258.216 
C 59.218368 258.216 58.455238 258.532099 57.892657 259.09468 
C 57.330076 259.65726 57.013977 260.420391 57.013977 261.216 
C 57.013977 262.011609 57.330076 262.77474 57.892657 263.33732 
C 58.455238 263.899901 59.218368 264.216 60.013977 264.216 
z
" clip-path="url(#pbf45595392)" style="fill: #f26b38; stroke: #ffffff; stroke-width: 0.48"/>
    <path d="M 100.595795 138.4176 
C 101.391405 138.4176 102.154535 138.101501 102.717116 137.53892 
C 103.279697 136.97634 103.595795 136.213209 103.595795 135.4176 
C 103.595795 134.621991 103.279697 133.85886 102.717116 133.29628 
C 102.154535 132.733699 101.391405 132.4176 100.595795 132.4176 
C 99.800186 132.4176 99.037056 132.733699 98.474475 133.29628 
C 97.911894 133.85886 97.595795 134.621991 97.595795 135.4176 
C 97.595795 136.213209 97.911894 136.97634 98.474475 137.53892 
C 99.037056 138.101501 99.800186 138.4176 100.595795 138.4176 
z
" clip-path="url(#pbf45595392)" style="fill: #f26b38; stroke: #ffffff; stroke-width: 0.48"/>
    <path d="M 141.177614 86.618259 
C 141.973223 86.618259 142.736353 86.30216 143.298934 85.739579 
C 143.861515 85.176998 144.177614 84.413868 144.177614 83.618259 
C 144.177614 82.82265 143.861515 82.059519 143.298934 81.496938 
C 142.736353 80.934358 141.973223 80.618259 141.177614 80.618259 
C 140.382004 80.618259 139.618874 80.934358 139.056293 81.496938 
C 138.493713 82.059519 138.177614 82.82265 138.177614 83.618259 
C 138.177614 84.413868 138.493713 85.176998 139.056293 85.739579 
C 139.618874 86.30216 140.382004 86.618259 141.177614 86.618259 
z
" clip-path="url(#pbf45595392)" style="fill: #f26b38; stroke: #ffffff; stroke-width: 0.48"/>
    <path d="M 181.759432 100.13113 
C 182.555041 100.13113 183.318171 99.815032 183.880752 99.252451 
C 184.443333 98.68987 184.759432 97.92674 184.759432 97.13113 
C 184.759432 96.335521 184.443333 95.572391 183.880752 95.00981 
C 183.318171 94.447229 182.555041 94.13113 181.759432 94.13113 
C 180.963823 94.13113 180.200692 94.447229 179.638111 95.00981 
C 179.075531 95.572391 178.759432 96.335521 178.759432 97.13113 
C 178.759432 97.92674 179.075531 98.68987 179.638111 99.252451 
C 180.200692 99.815032 180.963823 100.13113 181.759432 100.13113 
z
" clip-path="url(#pbf45595392)" style="fill: #f26b38; stroke: #ffffff; stroke-width: 0.48"/>
    <path d="M 222.34125 118.127535 
C 223.136859 118.127535 223.89999 117.811437 224.46257 117.248856 
C 225.025151 116.686275 225.34125 115.923145 225.34125 115.127535 
C 225.34125 114.331926 225.025151 113.568796 224.46257 113.006215 
C 223.89999 112.443634 223.136859 112.127535 222.34125 112.127535 
C 221.545641 112.127535 220.78251 112.443634 220.21993 113.006215 
C 219.657349 113.568796 219.34125 114.331926 219.34125 115.127535 
C 219.34125 115.923145 219.657349 116.686275 220.21993 117.248856 
C 220.78251 117.811437 221.545641 118.127535 222.34125 118.127535 
z
" clip-path="url(#pbf45595392)" style="fill: #f26b38; stroke: #ffffff; stroke-width: 0.48"/>
    <path d="M 262.923068 88.683349 
C 263.718677 88.683349 264.481808 88.36725 265.044389 87.804669 
C 265.606969 87.242088 265.923068 86.478958 265.923068 85.683349 
C 265.923068 84.88774 265.606969 84.124609 265.044389 83.562028 
C 264.481808 82.999448 263.718677 82.683349 262.923068 82.683349 
C 262.127459 82.683349 261.364329 82.999448 260.801748 83.562028 
C 260.239167 84.124609 259.923068 84.88774 259.923068 85.683349 
C 259.923068 86.478958 260.239167 87.242088 260.801748 87.804669 
C 261.364329 88.36725 262.127459 88.683349 262.923068 88.683349 
z
" clip-path="url(#pbf45595392)" style="fill: #f26b38; stroke: #ffffff; stroke-width: 0.48"/>
    <path d="M 303.504886 48.5616 
C 304.300496 48.5616 305.063626 48.245501 305.626207 47.68292 
C 306.188787 47.12034 306.504886 46.357209 306.504886 45.5616 
C 306.504886 44.765991 306.188787 44.00286 305.626207 43.44028 
C 305.063626 42.877699 304.300496 42.5616 303.504886 42.5616 
C 302.709277 42.5616 301.946147 42.877699 301.383566 43.44028 
C 300.820985 44.00286 300.504886 44.765991 300.504886 45.5616 
C 300.504886 46.357209 300.820985 47.12034 301.383566 47.68292 
C 301.946147 48.245501 302.709277 48.5616 303.504886 48.5616 
z
" clip-path="url(#pbf45595392)" style="fill: #f26b38; stroke: #ffffff; stroke-width: 0.48"/>
    <path d="M 383.168523 24.055418 
L 384.668523 22.555418 
L 386.168523 24.055418 
L 387.668523 22.555418 
L 386.168523 21.055418 
L 387.668523 19.555418 
L 386.168523 18.055418 
L 384.668523 19.555418 
L 383.168523 18.055418 
L 381.668523 19.555418 
L 383.168523 21.055418 
L 381.668523 22.555418 
z
" clip-path="url(#pbf45595392)" style="fill: #f26b38; stroke: #ffffff; stroke-width: 0.48"/>
    <path d="M 342.586705 28.956655 
L 344.086705 27.456655 
L 345.586705 28.956655 
L 347.086705 27.456655 
L 345.586705 25.956655 
L 347.086705 24.456655 
L 345.586705 22.956655 
L 344.086705 24.456655 
L 342.586705 22.956655 
L 341.086705 24.456655 
L 342.586705 25.956655 
L 341.086705 27.456655 
z
" clip-path="url(#pbf45595392)" style="fill: #f26b38; stroke: #ffffff; stroke-width: 0.48"/>
    <path d="M 58.513977 264.216 
L 60.013977 262.716 
L 61.513977 264.216 
L 63.013977 262.716 
L 61.513977 261.216 
L 63.013977 259.716 
L 61.513977 258.216 
L 60.013977 259.716 
L 58.513977 258.216 
L 57.013977 259.716 
L 58.513977 261.216 
L 57.013977 262.716 
z
" clip-path="url(#pbf45595392)" style="fill: #f26b38; stroke: #ffffff; stroke-width: 0.48"/>
    <path d="M 99.095795 138.4176 
L 100.595795 136.9176 
L 102.095795 138.4176 
L 103.595795 136.9176 
L 102.095795 135.4176 
L 103.595795 133.9176 
L 102.095795 132.4176 
L 100.595795 133.9176 
L 99.095795 132.4176 
L 97.595795 133.9176 
L 99.095795 135.4176 
L 97.595795 136.9176 
z
" clip-path="url(#pbf45595392)" style="fill: #f26b38; stroke: #ffffff; stroke-width: 0.48"/>
    <path d="M 139.677614 122.6928 
L 141.177614 121.1928 
L 142.677614 122.6928 
L 144.177614 121.1928 
L 142.677614 119.6928 
L 144.177614 118.1928 
L 142.677614 116.6928 
L 141.177614 118.1928 
L 139.677614 116.6928 
L 138.177614 118.1928 
L 139.677614 119.6928 
L 138.177614 121.1928 
z
" clip-path="url(#pbf45595392)" style="fill: #f26b38; stroke: #ffffff; stroke-width: 0.48"/>
    <path d="M 180.259432 126.981382 
L 181.759432 125.481382 
L 183.259432 126.981382 
L 184.759432 125.481382 
L 183.259432 123.981382 
L 184.759432 122.481382 
L 183.259432 120.981382 
L 181.759432 122.481382 
L 180.259432 120.981382 
L 178.759432 122.481382 
L 180.259432 123.981382 
L 178.759432 125.481382 
z
" clip-path="url(#pbf45595392)" style="fill: #f26b38; stroke: #ffffff; stroke-width: 0.48"/>
    <path d="M 220.84125 118.127535 
L 222.34125 116.627535 
L 223.84125 118.127535 
L 225.34125 116.627535 
L 223.84125 115.127535 
L 225.34125 113.627535 
L 223.84125 112.127535 
L 222.34125 113.627535 
L 220.84125 112.127535 
L 219.34125 113.627535 
L 220.84125 115.127535 
L 219.34125 116.627535 
z
" clip-path="url(#pbf45595392)" style="fill: #f26b38; stroke: #ffffff; stroke-width: 0.48"/>
    <path d="M 261.423068 88.683349 
L 262.923068 87.183349 
L 264.423068 88.683349 
L 265.923068 87.183349 
L 264.423068 85.683349 
L 265.923068 84.183349 
L 264.423068 82.683349 
L 262.923068 84.183349 
L 261.423068 82.683349 
L 259.923068 84.183349 
L 261.423068 85.683349 
L 259.923068 87.183349 
z
" clip-path="url(#pbf45595392)" style="fill: #f26b38; stroke: #ffffff; stroke-width: 0.48"/>
    <path d="M 302.004886 48.5616 
L 303.504886 47.0616 
L 305.004886 48.5616 
L 306.504886 47.0616 
L 305.004886 45.5616 
L 306.504886 44.0616 
L 305.004886 42.5616 
L 303.504886 44.0616 
L 302.004886 42.5616 
L 300.504886 44.0616 
L 302.004886 45.5616 
L 300.504886 47.0616 
z
" clip-path="url(#pbf45595392)" style="fill: #f26b38; stroke: #ffffff; stroke-width: 0.48"/>
    <path d="M 382.547202 18.934098 
L 382.547202 23.176739 
L 386.789843 23.176739 
L 386.789843 18.934098 
z
" clip-path="url(#pbf45595392)" style="fill: #f26b38; stroke: #ffffff; stroke-width: 0.48"/>
    <path d="M 341.965384 17.17468 
L 341.965384 21.41732 
L 346.208025 21.41732 
L 346.208025 17.17468 
z
" clip-path="url(#pbf45595392)" style="fill: #f26b38; stroke: #ffffff; stroke-width: 0.48"/>
    <path d="M 57.892657 133.29628 
L 57.892657 137.53892 
L 62.135298 137.53892 
L 62.135298 133.29628 
z
" clip-path="url(#pbf45595392)" style="fill: #f26b38; stroke: #ffffff; stroke-width: 0.48"/>
    <path d="M 98.474475 84.91228 
L 98.474475 89.15492 
L 102.717116 89.15492 
L 102.717116 84.91228 
z
" clip-path="url(#pbf45595392)" style="fill: #f26b38; stroke: #ffffff; stroke-width: 0.48"/>
    <path d="M 139.056293 49.43068 
L 139.056293 53.67332 
L 143.298934 53.67332 
L 143.298934 49.43068 
z
" clip-path="url(#pbf45595392)" style="fill: #f26b38; stroke: #ffffff; stroke-width: 0.48"/>
    <path d="M 179.638111 70.39708 
L 179.638111 74.63972 
L 183.880752 74.63972 
L 183.880752 70.39708 
z
" clip-path="url(#pbf45595392)" style="fill: #f26b38; stroke: #ffffff; stroke-width: 0.48"/>
    <path d="M 220.21993 93.98428 
L 220.21993 98.22692 
L 224.46257 98.22692 
L 224.46257 93.98428 
z
" clip-path="url(#pbf45595392)" style="fill: #f26b38; stroke: #ffffff; stroke-width: 0.48"/>
    <path d="M 260.801748 70.39708 
L 260.801748 74.63972 
L 265.044389 74.63972 
L 265.044389 70.39708 
z
" clip-path="url(#pbf45595392)" style="fill: #f26b38; stroke: #ffffff; stroke-width: 0.48"/>
    <path d="M 301.383566 26.85148 
L 301.383566 31.09412 
L 305.626207 31.09412 
L 305.626207 26.85148 
z
" clip-path="url(#pbf45595392)" style="fill: #f26b38; stroke: #ffffff; stroke-width: 0.48"/>
    <path d="M 384.668523 24.055418 
C 385.464132 24.055418 386.227262 23.739319 386.789843 23.176739 
C 387.352424 22.614158 387.668523 21.851027 387.668523 21.055418 
C 387.668523 20.259809 387.352424 19.496679 386.789843 18.934098 
C 386.227262 18.371517 385.464132 18.055418 384.668523 18.055418 
C 383.872913 18.055418 383.109783 18.371517 382.547202 18.934098 
C 381.984622 19.496679 381.668523 20.259809 381.668523 21.055418 
C 381.668523 21.851027 381.984622 22.614158 382.547202 23.176739 
C 383.109783 23.739319 383.872913 24.055418 384.668523 24.055418 
z
" clip-path="url(#pbf45595392)" style="fill: #2f9599; stroke: #ffffff; stroke-width: 0.48"/>
    <path d="M 344.086705 57.42411 
C 344.882314 57.42411 345.645444 57.108011 346.208025 56.54543 
C 346.770606 55.982849 347.086705 55.219719 347.086705 54.42411 
C 347.086705 53.6285 346.770606 52.86537 346.208025 52.302789 
C 345.645444 51.740209 344.882314 51.42411 344.086705 51.42411 
C 343.291095 51.42411 342.527965 51.740209 341.965384 52.302789 
C 341.402803 52.86537 341.086705 53.6285 341.086705 54.42411 
C 341.086705 55.219719 341.402803 55.982849 341.965384 56.54543 
C 342.527965 57.108011 343.291095 57.42411 344.086705 57.42411 
z
" clip-path="url(#pbf45595392)" style="fill: #2f9599; stroke: #ffffff; stroke-width: 0.48"/>
    <path d="M 60.013977 264.216 
C 60.809587 264.216 61.572717 263.899901 62.135298 263.33732 
C 62.697878 262.77474 63.013977 262.011609 63.013977 261.216 
C 63.013977 260.420391 62.697878 259.65726 62.135298 259.09468 
C 61.572717 258.532099 60.809587 258.216 60.013977 258.216 
C 59.218368 258.216 58.455238 258.532099 57.892657 259.09468 
C 57.330076 259.65726 57.013977 260.420391 57.013977 261.216 
C 57.013977 262.011609 57.330076 262.77474 57.892657 263.33732 
C 58.455238 263.899901 59.218368 264.216 60.013977 264.216 
z
" clip-path="url(#pbf45595392)" style="fill: #2f9599; stroke: #ffffff; stroke-width: 0.48"/>
    <path d="M 100.595795 138.4176 
C 101.391405 138.4176 102.154535 138.101501 102.717116 137.53892 
C 103.279697 136.97634 103.595795 136.213209 103.595795 135.4176 
C 103.595795 134.621991 103.279697 133.85886 102.717116 133.29628 
C 102.154535 132.733699 101.391405 132.4176 100.595795 132.4176 
C 99.800186 132.4176 99.037056 132.733699 98.474475 133.29628 
C 97.911894 133.85886 97.595795 134.621991 97.595795 135.4176 
C 97.595795 136.213209 97.911894 136.97634 98.474475 137.53892 
C 99.037056 138.101501 99.800186 138.4176 100.595795 138.4176 
z
" clip-path="url(#pbf45595392)" style="fill: #2f9599; stroke: #ffffff; stroke-width: 0.48"/>
    <path d="M 141.177614 163.57728 
C 141.973223 163.57728 142.736353 163.261181 143.298934 162.6986 
C 143.861515 162.13602 144.177614 161.372889 144.177614 160.57728 
C 144.177614 159.781671 143.861515 159.01854 143.298934 158.45596 
C 142.736353 157.893379 141.973223 157.57728 141.177614 157.57728 
C 140.382004 157.57728 139.618874 157.893379 139.056293 158.45596 
C 138.493713 159.01854 138.177614 159.781671 138.177614 160.57728 
C 138.177614 161.372889 138.493713 162.13602 139.056293 162.6986 
C 139.618874 163.261181 140.382004 163.57728 141.177614 163.57728 
z
" clip-path="url(#pbf45595392)" style="fill: #2f9599; stroke: #ffffff; stroke-width: 0.48"/>
    <path d="M 181.759432 156.3888 
C 182.555041 156.3888 183.318171 156.072701 183.880752 155.51012 
C 184.443333 154.94754 184.759432 154.184409 184.759432 153.3888 
C 184.759432 152.593191 184.443333 151.83006 183.880752 151.26748 
C 183.318171 150.704899 182.555041 150.3888 181.759432 150.3888 
C 180.963823 150.3888 180.200692 150.704899 179.638111 151.26748 
C 179.075531 151.83006 178.759432 152.593191 178.759432 153.3888 
C 178.759432 154.184409 179.075531 154.94754 179.638111 155.51012 
C 180.200692 156.072701 180.963823 156.3888 181.759432 156.3888 
z
" clip-path="url(#pbf45595392)" style="fill: #2f9599; stroke: #ffffff; stroke-width: 0.48"/>
    <path d="M 222.34125 160.106979 
C 223.136859 160.106979 223.89999 159.79088 224.46257 159.2283 
C 225.025151 158.665719 225.34125 157.902589 225.34125 157.106979 
C 225.34125 156.31137 225.025151 155.54824 224.46257 154.985659 
C 223.89999 154.423078 223.136859 154.106979 222.34125 154.106979 
C 221.545641 154.106979 220.78251 154.423078 220.21993 154.985659 
C 219.657349 155.54824 219.34125 156.31137 219.34125 157.106979 
C 219.34125 157.902589 219.657349 158.665719 220.21993 159.2283 
C 220.78251 159.79088 221.545641 160.106979 222.34125 160.106979 
z
" clip-path="url(#pbf45595392)" style="fill: #2f9599; stroke: #ffffff; stroke-width: 0.48"/>
    <path d="M 262.923068 116.939824 
C 263.718677 116.939824 264.481808 116.623725 265.044389 116.061145 
C 265.606969 115.498564 265.923068 114.735434 265.923068 113.939824 
C 265.923068 113.144215 265.606969 112.381085 265.044389 111.818504 
C 264.481808 111.255923 263.718677 110.939824 262.923068 110.939824 
C 262.127459 110.939824 261.364329 111.255923 260.801748 111.818504 
C 260.239167 112.381085 259.923068 113.144215 259.923068 113.939824 
C 259.923068 114.735434 260.239167 115.498564 260.801748 116.061145 
C 261.364329 116.623725 262.127459 116.939824 262.923068 116.939824 
z
" clip-path="url(#pbf45595392)" style="fill: #2f9599; stroke: #ffffff; stroke-width: 0.48"/>
    <path d="M 303.504886 57.257342 
C 304.300496 57.257342 305.063626 56.941243 305.626207 56.378662 
C 306.188787 55.816082 306.504886 55.052951 306.504886 54.257342 
C 306.504886 53.461733 306.188787 52.698602 305.626207 52.136022 
C 305.063626 51.573441 304.300496 51.257342 303.504886 51.257342 
C 302.709277 51.257342 301.946147 51.573441 301.383566 52.136022 
C 300.820985 52.698602 300.504886 53.461733 300.504886 54.257342 
C 300.504886 55.052951 300.820985 55.816082 301.383566 56.378662 
C 301.946147 56.941243 302.709277 57.257342 303.504886 57.257342 
z
" clip-path="url(#pbf45595392)" style="fill: #2f9599; stroke: #ffffff; stroke-width: 0.48"/>
    <path d="M 383.168523 24.055418 
L 384.668523 22.555418 
L 386.168523 24.055418 
L 387.668523 22.555418 
L 386.168523 21.055418 
L 387.668523 19.555418 
L 386.168523 18.055418 
L 384.668523 19.555418 
L 383.168523 18.055418 
L 381.668523 19.555418 
L 383.168523 21.055418 
L 381.668523 22.555418 
z
" clip-path="url(#pbf45595392)" style="fill: #2f9599; stroke: #ffffff; stroke-width: 0.48"/>
    <path d="M 342.586705 35.792589 
L 344.086705 34.292589 
L 345.586705 35.792589 
L 347.086705 34.292589 
L 345.586705 32.792589 
L 347.086705 31.292589 
L 345.586705 29.792589 
L 344.086705 31.292589 
L 342.586705 29.792589 
L 341.086705 31.292589 
L 342.586705 32.792589 
L 341.086705 34.292589 
z
" clip-path="url(#pbf45595392)" style="fill: #2f9599; stroke: #ffffff; stroke-width: 0.48"/>
    <path d="M 58.513977 264.216 
L 60.013977 262.716 
L 61.513977 264.216 
L 63.013977 262.716 
L 61.513977 261.216 
L 63.013977 259.716 
L 61.513977 258.216 
L 60.013977 259.716 
L 58.513977 258.216 
L 57.013977 259.716 
L 58.513977 261.216 
L 57.013977 262.716 
z
" clip-path="url(#pbf45595392)" style="fill: #2f9599; stroke: #ffffff; stroke-width: 0.48"/>
    <path d="M 99.095795 138.4176 
L 100.595795 136.9176 
L 102.095795 138.4176 
L 103.595795 136.9176 
L 102.095795 135.4176 
L 103.595795 133.9176 
L 102.095795 132.4176 
L 100.595795 133.9176 
L 99.095795 132.4176 
L 97.595795 133.9176 
L 99.095795 135.4176 
L 97.595795 136.9176 
z
" clip-path="url(#pbf45595392)" style="fill: #2f9599; stroke: #ffffff; stroke-width: 0.48"/>
    <path d="M 139.677614 122.6928 
L 141.177614 121.1928 
L 142.677614 122.6928 
L 144.177614 121.1928 
L 142.677614 119.6928 
L 144.177614 118.1928 
L 142.677614 116.6928 
L 141.177614 118.1928 
L 139.677614 116.6928 
L 138.177614 118.1928 
L 139.677614 119.6928 
L 138.177614 121.1928 
z
" clip-path="url(#pbf45595392)" style="fill: #2f9599; stroke: #ffffff; stroke-width: 0.48"/>
    <path d="M 180.259432 126.981382 
L 181.759432 125.481382 
L 183.259432 126.981382 
L 184.759432 125.481382 
L 183.259432 123.981382 
L 184.759432 122.481382 
L 183.259432 120.981382 
L 181.759432 122.481382 
L 180.259432 120.981382 
L 178.759432 122.481382 
L 180.259432 123.981382 
L 178.759432 125.481382 
z
" clip-path="url(#pbf45595392)" style="fill: #2f9599; stroke: #ffffff; stroke-width: 0.48"/>
    <path d="M 220.84125 138.4176 
L 222.34125 136.9176 
L 223.84125 138.4176 
L 225.34125 136.9176 
L 223.84125 135.4176 
L 225.34125 133.9176 
L 223.84125 132.4176 
L 222.34125 133.9176 
L 220.84125 132.4176 
L 219.34125 133.9176 
L 220.84125 135.4176 
L 219.34125 136.9176 
z
" clip-path="url(#pbf45595392)" style="fill: #2f9599; stroke: #ffffff; stroke-width: 0.48"/>
    <path d="M 261.423068 102.4752 
L 262.923068 100.9752 
L 264.423068 102.4752 
L 265.923068 100.9752 
L 264.423068 99.4752 
L 265.923068 97.9752 
L 264.423068 96.4752 
L 262.923068 97.9752 
L 261.423068 96.4752 
L 259.923068 97.9752 
L 261.423068 99.4752 
L 259.923068 100.9752 
z
" clip-path="url(#pbf45595392)" style="fill: #2f9599; stroke: #ffffff; stroke-width: 0.48"/>
    <path d="M 302.004886 48.5616 
L 303.504886 47.0616 
L 305.004886 48.5616 
L 306.504886 47.0616 
L 305.004886 45.5616 
L 306.504886 44.0616 
L 305.004886 42.5616 
L 303.504886 44.0616 
L 302.004886 42.5616 
L 300.504886 44.0616 
L 302.004886 45.5616 
L 300.504886 47.0616 
z
" clip-path="url(#pbf45595392)" style="fill: #2f9599; stroke: #ffffff; stroke-width: 0.48"/>
    <path d="M 382.547202 30.902233 
L 382.547202 35.144874 
L 386.789843 35.144874 
L 386.789843 30.902233 
z
" clip-path="url(#pbf45595392)" style="fill: #2f9599; stroke: #ffffff; stroke-width: 0.48"/>
    <path d="M 341.965384 75.78844 
L 341.965384 80.03108 
L 346.208025 80.03108 
L 346.208025 75.78844 
z
" clip-path="url(#pbf45595392)" style="fill: #2f9599; stroke: #ffffff; stroke-width: 0.48"/>
    <path d="M 57.892657 133.29628 
L 57.892657 137.53892 
L 62.135298 137.53892 
L 62.135298 133.29628 
z
" clip-path="url(#pbf45595392)" style="fill: #2f9599; stroke: #ffffff; stroke-width: 0.48"/>
    <path d="M 98.474475 84.91228 
L 98.474475 89.15492 
L 102.717116 89.15492 
L 102.717116 84.91228 
z
" clip-path="url(#pbf45595392)" style="fill: #2f9599; stroke: #ffffff; stroke-width: 0.48"/>
    <path d="M 139.056293 117.57148 
L 139.056293 121.81412 
L 143.298934 121.81412 
L 143.298934 117.57148 
z
" clip-path="url(#pbf45595392)" style="fill: #2f9599; stroke: #ffffff; stroke-width: 0.48"/>
    <path d="M 179.638111 151.26748 
L 179.638111 155.51012 
L 183.880752 155.51012 
L 183.880752 151.26748 
z
" clip-path="url(#pbf45595392)" style="fill: #2f9599; stroke: #ffffff; stroke-width: 0.48"/>
    <path d="M 220.21993 178.22428 
L 220.21993 182.46692 
L 224.46257 182.46692 
L 224.46257 178.22428 
z
" clip-path="url(#pbf45595392)" style="fill: #2f9599; stroke: #ffffff; stroke-width: 0.48"/>
    <path d="M 260.801748 159.780153 
L 260.801748 164.022794 
L 265.044389 164.022794 
L 265.044389 159.780153 
z
" clip-path="url(#pbf45595392)" style="fill: #2f9599; stroke: #ffffff; stroke-width: 0.48"/>
    <path d="M 301.383566 79.991873 
L 301.383566 84.234514 
L 305.626207 84.234514 
L 305.626207 79.991873 
z
" clip-path="url(#pbf45595392)" style="fill: #2f9599; stroke: #ffffff; stroke-width: 0.48"/>
   </g>
   <g id="PathCollection_2"/>
   <g id="PathCollection_3"/>
   <g id="PathCollection_4"/>
   <g id="PathCollection_5"/>
   <g id="PathCollection_6"/>
   <g id="matplotlib.axis_1">
    <g id="xtick_1">
     <g id="line2d_1">
      <defs>
       <path id="md3eeb5d0f5" d="M 0 0 
L 0 3.5 
" style="stroke: #000000; stroke-width: 0.8"/>
      </defs>
      <g>
       <use xlink:href="#md3eeb5d0f5" x="60.013977" y="273.312" style="stroke: #000000; stroke-width: 0.8"/>
      </g>
     </g>
     <g id="text_1">
      <!-- 20 -->
      <g transform="translate(53.651477 287.910437)scale(0.1 -0.1)">
       <defs>
        <path id="DejaVuSans-32" d="M 1228 531 
L 3431 531 
L 3431 0 
L 469 0 
L 469 531 
Q 828 903 1448 1529 
Q 2069 2156 2228 2338 
Q 2531 2678 2651 2914 
Q 2772 3150 2772 3378 
Q 2772 3750 2511 3984 
Q 2250 4219 1831 4219 
Q 1534 4219 1204 4116 
Q 875 4013 500 3803 
L 500 4441 
Q 881 4594 1212 4672 
Q 1544 4750 1819 4750 
Q 2544 4750 2975 4387 
Q 3406 4025 3406 3419 
Q 3406 3131 3298 2873 
Q 3191 2616 2906 2266 
Q 2828 2175 2409 1742 
Q 1991 1309 1228 531 
z
" transform="scale(0.015625)"/>
        <path id="DejaVuSans-30" d="M 2034 4250 
Q 1547 4250 1301 3770 
Q 1056 3291 1056 2328 
Q 1056 1369 1301 889 
Q 1547 409 2034 409 
Q 2525 409 2770 889 
Q 3016 1369 3016 2328 
Q 3016 3291 2770 3770 
Q 2525 4250 2034 4250 
z
M 2034 4750 
Q 2819 4750 3233 4129 
Q 3647 3509 3647 2328 
Q 3647 1150 3233 529 
Q 2819 -91 2034 -91 
Q 1250 -91 836 529 
Q 422 1150 422 2328 
Q 422 3509 836 4129 
Q 1250 4750 2034 4750 
z
" transform="scale(0.015625)"/>
       </defs>
       <use xlink:href="#DejaVuSans-32"/>
       <use xlink:href="#DejaVuSans-30" x="63.623047"/>
      </g>
     </g>
    </g>
    <g id="xtick_2">
     <g id="line2d_2">
      <g>
       <use xlink:href="#md3eeb5d0f5" x="100.595795" y="273.312" style="stroke: #000000; stroke-width: 0.8"/>
      </g>
     </g>
     <g id="text_2">
      <!-- 30 -->
      <g transform="translate(94.233295 287.910437)scale(0.1 -0.1)">
       <defs>
        <path id="DejaVuSans-33" d="M 2597 2516 
Q 3050 2419 3304 2112 
Q 3559 1806 3559 1356 
Q 3559 666 3084 287 
Q 2609 -91 1734 -91 
Q 1441 -91 1130 -33 
Q 819 25 488 141 
L 488 750 
Q 750 597 1062 519 
Q 1375 441 1716 441 
Q 2309 441 2620 675 
Q 2931 909 2931 1356 
Q 2931 1769 2642 2001 
Q 2353 2234 1838 2234 
L 1294 2234 
L 1294 2753 
L 1863 2753 
Q 2328 2753 2575 2939 
Q 2822 3125 2822 3475 
Q 2822 3834 2567 4026 
Q 2313 4219 1838 4219 
Q 1578 4219 1281 4162 
Q 984 4106 628 3988 
L 628 4550 
Q 988 4650 1302 4700 
Q 1616 4750 1894 4750 
Q 2613 4750 3031 4423 
Q 3450 4097 3450 3541 
Q 3450 3153 3228 2886 
Q 3006 2619 2597 2516 
z
" transform="scale(0.015625)"/>
       </defs>
       <use xlink:href="#DejaVuSans-33"/>
       <use xlink:href="#DejaVuSans-30" x="63.623047"/>
      </g>
     </g>
    </g>
    <g id="xtick_3">
     <g id="line2d_3">
      <g>
       <use xlink:href="#md3eeb5d0f5" x="141.177614" y="273.312" style="stroke: #000000; stroke-width: 0.8"/>
      </g>
     </g>
     <g id="text_3">
      <!-- 40 -->
      <g transform="translate(134.815114 287.910437)scale(0.1 -0.1)">
       <defs>
        <path id="DejaVuSans-34" d="M 2419 4116 
L 825 1625 
L 2419 1625 
L 2419 4116 
z
M 2253 4666 
L 3047 4666 
L 3047 1625 
L 3713 1625 
L 3713 1100 
L 3047 1100 
L 3047 0 
L 2419 0 
L 2419 1100 
L 313 1100 
L 313 1709 
L 2253 4666 
z
" transform="scale(0.015625)"/>
       </defs>
       <use xlink:href="#DejaVuSans-34"/>
       <use xlink:href="#DejaVuSans-30" x="63.623047"/>
      </g>
     </g>
    </g>
    <g id="xtick_4">
     <g id="line2d_4">
      <g>
       <use xlink:href="#md3eeb5d0f5" x="181.759432" y="273.312" style="stroke: #000000; stroke-width: 0.8"/>
      </g>
     </g>
     <g id="text_4">
      <!-- 50 -->
      <g transform="translate(175.396932 287.910437)scale(0.1 -0.1)">
       <defs>
        <path id="DejaVuSans-35" d="M 691 4666 
L 3169 4666 
L 3169 4134 
L 1269 4134 
L 1269 2991 
Q 1406 3038 1543 3061 
Q 1681 3084 1819 3084 
Q 2600 3084 3056 2656 
Q 3513 2228 3513 1497 
Q 3513 744 3044 326 
Q 2575 -91 1722 -91 
Q 1428 -91 1123 -41 
Q 819 9 494 109 
L 494 744 
Q 775 591 1075 516 
Q 1375 441 1709 441 
Q 2250 441 2565 725 
Q 2881 1009 2881 1497 
Q 2881 1984 2565 2268 
Q 2250 2553 1709 2553 
Q 1456 2553 1204 2497 
Q 953 2441 691 2322 
L 691 4666 
z
" transform="scale(0.015625)"/>
       </defs>
       <use xlink:href="#DejaVuSans-35"/>
       <use xlink:href="#DejaVuSans-30" x="63.623047"/>
      </g>
     </g>
    </g>
    <g id="xtick_5">
     <g id="line2d_5">
      <g>
       <use xlink:href="#md3eeb5d0f5" x="222.34125" y="273.312" style="stroke: #000000; stroke-width: 0.8"/>
      </g>
     </g>
     <g id="text_5">
      <!-- 70 -->
      <g transform="translate(215.97875 287.910437)scale(0.1 -0.1)">
       <defs>
        <path id="DejaVuSans-37" d="M 525 4666 
L 3525 4666 
L 3525 4397 
L 1831 0 
L 1172 0 
L 2766 4134 
L 525 4134 
L 525 4666 
z
" transform="scale(0.015625)"/>
       </defs>
       <use xlink:href="#DejaVuSans-37"/>
       <use xlink:href="#DejaVuSans-30" x="63.623047"/>
      </g>
     </g>
    </g>
    <g id="xtick_6">
     <g id="line2d_6">
      <g>
       <use xlink:href="#md3eeb5d0f5" x="262.923068" y="273.312" style="stroke: #000000; stroke-width: 0.8"/>
      </g>
     </g>
     <g id="text_6">
      <!-- 100 -->
      <g transform="translate(253.379318 287.910437)scale(0.1 -0.1)">
       <defs>
        <path id="DejaVuSans-31" d="M 794 531 
L 1825 531 
L 1825 4091 
L 703 3866 
L 703 4441 
L 1819 4666 
L 2450 4666 
L 2450 531 
L 3481 531 
L 3481 0 
L 794 0 
L 794 531 
z
" transform="scale(0.015625)"/>
       </defs>
       <use xlink:href="#DejaVuSans-31"/>
       <use xlink:href="#DejaVuSans-30" x="63.623047"/>
       <use xlink:href="#DejaVuSans-30" x="127.246094"/>
      </g>
     </g>
    </g>
    <g id="xtick_7">
     <g id="line2d_7">
      <g>
       <use xlink:href="#md3eeb5d0f5" x="303.504886" y="273.312" style="stroke: #000000; stroke-width: 0.8"/>
      </g>
     </g>
     <g id="text_7">
      <!-- 150 -->
      <g transform="translate(293.961136 287.910437)scale(0.1 -0.1)">
       <use xlink:href="#DejaVuSans-31"/>
       <use xlink:href="#DejaVuSans-35" x="63.623047"/>
       <use xlink:href="#DejaVuSans-30" x="127.246094"/>
      </g>
     </g>
    </g>
    <g id="xtick_8">
     <g id="line2d_8">
      <g>
       <use xlink:href="#md3eeb5d0f5" x="344.086705" y="273.312" style="stroke: #000000; stroke-width: 0.8"/>
      </g>
     </g>
     <g id="text_8">
      <!-- 200 -->
      <g transform="translate(334.542955 287.910437)scale(0.1 -0.1)">
       <use xlink:href="#DejaVuSans-32"/>
       <use xlink:href="#DejaVuSans-30" x="63.623047"/>
       <use xlink:href="#DejaVuSans-30" x="127.246094"/>
      </g>
     </g>
    </g>
    <g id="xtick_9">
     <g id="line2d_9">
      <g>
       <use xlink:href="#md3eeb5d0f5" x="384.668523" y="273.312" style="stroke: #000000; stroke-width: 0.8"/>
      </g>
     </g>
     <g id="text_9">
      <!-- 200&lt; -->
      <g transform="translate(370.934929 287.910437)scale(0.1 -0.1)">
       <defs>
        <path id="DejaVuSans-3c" d="M 4684 3150 
L 1459 2003 
L 4684 863 
L 4684 294 
L 678 1747 
L 678 2266 
L 4684 3719 
L 4684 3150 
z
" transform="scale(0.015625)"/>
       </defs>
       <use xlink:href="#DejaVuSans-32"/>
       <use xlink:href="#DejaVuSans-30" x="63.623047"/>
       <use xlink:href="#DejaVuSans-30" x="127.246094"/>
       <use xlink:href="#DejaVuSans-3c" x="190.869141"/>
      </g>
     </g>
    </g>
    <g id="text_10">
     <!-- nrows -->
     <g transform="translate(207.476406 301.588562)scale(0.1 -0.1)">
      <defs>
       <path id="DejaVuSans-6e" d="M 3513 2113 
L 3513 0 
L 2938 0 
L 2938 2094 
Q 2938 2591 2744 2837 
Q 2550 3084 2163 3084 
Q 1697 3084 1428 2787 
Q 1159 2491 1159 1978 
L 1159 0 
L 581 0 
L 581 3500 
L 1159 3500 
L 1159 2956 
Q 1366 3272 1645 3428 
Q 1925 3584 2291 3584 
Q 2894 3584 3203 3211 
Q 3513 2838 3513 2113 
z
" transform="scale(0.015625)"/>
       <path id="DejaVuSans-72" d="M 2631 2963 
Q 2534 3019 2420 3045 
Q 2306 3072 2169 3072 
Q 1681 3072 1420 2755 
Q 1159 2438 1159 1844 
L 1159 0 
L 581 0 
L 581 3500 
L 1159 3500 
L 1159 2956 
Q 1341 3275 1631 3429 
Q 1922 3584 2338 3584 
Q 2397 3584 2469 3576 
Q 2541 3569 2628 3553 
L 2631 2963 
z
" transform="scale(0.015625)"/>
       <path id="DejaVuSans-6f" d="M 1959 3097 
Q 1497 3097 1228 2736 
Q 959 2375 959 1747 
Q 959 1119 1226 758 
Q 1494 397 1959 397 
Q 2419 397 2687 759 
Q 2956 1122 2956 1747 
Q 2956 2369 2687 2733 
Q 2419 3097 1959 3097 
z
M 1959 3584 
Q 2709 3584 3137 3096 
Q 3566 2609 3566 1747 
Q 3566 888 3137 398 
Q 2709 -91 1959 -91 
Q 1206 -91 779 398 
Q 353 888 353 1747 
Q 353 2609 779 3096 
Q 1206 3584 1959 3584 
z
" transform="scale(0.015625)"/>
       <path id="DejaVuSans-77" d="M 269 3500 
L 844 3500 
L 1563 769 
L 2278 3500 
L 2956 3500 
L 3675 769 
L 4391 3500 
L 4966 3500 
L 4050 0 
L 3372 0 
L 2619 2869 
L 1863 0 
L 1184 0 
L 269 3500 
z
" transform="scale(0.015625)"/>
       <path id="DejaVuSans-73" d="M 2834 3397 
L 2834 2853 
Q 2591 2978 2328 3040 
Q 2066 3103 1784 3103 
Q 1356 3103 1142 2972 
Q 928 2841 928 2578 
Q 928 2378 1081 2264 
Q 1234 2150 1697 2047 
L 1894 2003 
Q 2506 1872 2764 1633 
Q 3022 1394 3022 966 
Q 3022 478 2636 193 
Q 2250 -91 1575 -91 
Q 1294 -91 989 -36 
Q 684 19 347 128 
L 347 722 
Q 666 556 975 473 
Q 1284 391 1588 391 
Q 1994 391 2212 530 
Q 2431 669 2431 922 
Q 2431 1156 2273 1281 
Q 2116 1406 1581 1522 
L 1381 1569 
Q 847 1681 609 1914 
Q 372 2147 372 2553 
Q 372 3047 722 3315 
Q 1072 3584 1716 3584 
Q 2034 3584 2315 3537 
Q 2597 3491 2834 3397 
z
" transform="scale(0.015625)"/>
      </defs>
      <use xlink:href="#DejaVuSans-6e"/>
      <use xlink:href="#DejaVuSans-72" x="63.378906"/>
      <use xlink:href="#DejaVuSans-6f" x="102.242188"/>
      <use xlink:href="#DejaVuSans-77" x="163.423828"/>
      <use xlink:href="#DejaVuSans-73" x="245.210938"/>
     </g>
    </g>
   </g>
   <g id="matplotlib.axis_2">
    <g id="ytick_1">
     <g id="line2d_10">
      <defs>
       <path id="m6d4dc9c9d9" d="M 0 0 
L -3.5 0 
" style="stroke: #000000; stroke-width: 0.8"/>
      </defs>
      <g>
       <use xlink:href="#m6d4dc9c9d9" x="43.78125" y="261.216" style="stroke: #000000; stroke-width: 0.8"/>
      </g>
     </g>
     <g id="text_11">
      <!-- 0.0 -->
      <g transform="translate(20.878125 265.015219)scale(0.1 -0.1)">
       <defs>
        <path id="DejaVuSans-2e" d="M 684 794 
L 1344 794 
L 1344 0 
L 684 0 
L 684 794 
z
" transform="scale(0.015625)"/>
       </defs>
       <use xlink:href="#DejaVuSans-30"/>
       <use xlink:href="#DejaVuSans-2e" x="63.623047"/>
       <use xlink:href="#DejaVuSans-30" x="95.410156"/>
      </g>
     </g>
    </g>
    <g id="ytick_2">
     <g id="line2d_11">
      <g>
       <use xlink:href="#m6d4dc9c9d9" x="43.78125" y="223.47648" style="stroke: #000000; stroke-width: 0.8"/>
      </g>
     </g>
     <g id="text_12">
      <!-- 0.1 -->
      <g transform="translate(20.878125 227.275699)scale(0.1 -0.1)">
       <use xlink:href="#DejaVuSans-30"/>
       <use xlink:href="#DejaVuSans-2e" x="63.623047"/>
       <use xlink:href="#DejaVuSans-31" x="95.410156"/>
      </g>
     </g>
    </g>
    <g id="ytick_3">
     <g id="line2d_12">
      <g>
       <use xlink:href="#m6d4dc9c9d9" x="43.78125" y="185.73696" style="stroke: #000000; stroke-width: 0.8"/>
      </g>
     </g>
     <g id="text_13">
      <!-- 0.2 -->
      <g transform="translate(20.878125 189.536179)scale(0.1 -0.1)">
       <use xlink:href="#DejaVuSans-30"/>
       <use xlink:href="#DejaVuSans-2e" x="63.623047"/>
       <use xlink:href="#DejaVuSans-32" x="95.410156"/>
      </g>
     </g>
    </g>
    <g id="ytick_4">
     <g id="line2d_13">
      <g>
       <use xlink:href="#m6d4dc9c9d9" x="43.78125" y="147.99744" style="stroke: #000000; stroke-width: 0.8"/>
      </g>
     </g>
     <g id="text_14">
      <!-- 0.3 -->
      <g transform="translate(20.878125 151.796659)scale(0.1 -0.1)">
       <use xlink:href="#DejaVuSans-30"/>
       <use xlink:href="#DejaVuSans-2e" x="63.623047"/>
       <use xlink:href="#DejaVuSans-33" x="95.410156"/>
      </g>
     </g>
    </g>
    <g id="ytick_5">
     <g id="line2d_14">
      <g>
       <use xlink:href="#m6d4dc9c9d9" x="43.78125" y="110.25792" style="stroke: #000000; stroke-width: 0.8"/>
      </g>
     </g>
     <g id="text_15">
      <!-- 0.4 -->
      <g transform="translate(20.878125 114.057139)scale(0.1 -0.1)">
       <use xlink:href="#DejaVuSans-30"/>
       <use xlink:href="#DejaVuSans-2e" x="63.623047"/>
       <use xlink:href="#DejaVuSans-34" x="95.410156"/>
      </g>
     </g>
    </g>
    <g id="ytick_6">
     <g id="line2d_15">
      <g>
       <use xlink:href="#m6d4dc9c9d9" x="43.78125" y="72.5184" style="stroke: #000000; stroke-width: 0.8"/>
      </g>
     </g>
     <g id="text_16">
      <!-- 0.5 -->
      <g transform="translate(20.878125 76.317619)scale(0.1 -0.1)">
       <use xlink:href="#DejaVuSans-30"/>
       <use xlink:href="#DejaVuSans-2e" x="63.623047"/>
       <use xlink:href="#DejaVuSans-35" x="95.410156"/>
      </g>
     </g>
    </g>
    <g id="ytick_7">
     <g id="line2d_16">
      <g>
       <use xlink:href="#m6d4dc9c9d9" x="43.78125" y="34.77888" style="stroke: #000000; stroke-width: 0.8"/>
      </g>
     </g>
     <g id="text_17">
      <!-- 0.6 -->
      <g transform="translate(20.878125 38.578099)scale(0.1 -0.1)">
       <defs>
        <path id="DejaVuSans-36" d="M 2113 2584 
Q 1688 2584 1439 2293 
Q 1191 2003 1191 1497 
Q 1191 994 1439 701 
Q 1688 409 2113 409 
Q 2538 409 2786 701 
Q 3034 994 3034 1497 
Q 3034 2003 2786 2293 
Q 2538 2584 2113 2584 
z
M 3366 4563 
L 3366 3988 
Q 3128 4100 2886 4159 
Q 2644 4219 2406 4219 
Q 1781 4219 1451 3797 
Q 1122 3375 1075 2522 
Q 1259 2794 1537 2939 
Q 1816 3084 2150 3084 
Q 2853 3084 3261 2657 
Q 3669 2231 3669 1497 
Q 3669 778 3244 343 
Q 2819 -91 2113 -91 
Q 1303 -91 875 529 
Q 447 1150 447 2328 
Q 447 3434 972 4092 
Q 1497 4750 2381 4750 
Q 2619 4750 2861 4703 
Q 3103 4656 3366 4563 
z
" transform="scale(0.015625)"/>
       </defs>
       <use xlink:href="#DejaVuSans-30"/>
       <use xlink:href="#DejaVuSans-2e" x="63.623047"/>
       <use xlink:href="#DejaVuSans-36" x="95.410156"/>
      </g>
     </g>
    </g>
    <g id="text_18">
     <!-- score -->
     <g transform="translate(14.798438 153.688812)rotate(-90)scale(0.1 -0.1)">
      <defs>
       <path id="DejaVuSans-63" d="M 3122 3366 
L 3122 2828 
Q 2878 2963 2633 3030 
Q 2388 3097 2138 3097 
Q 1578 3097 1268 2742 
Q 959 2388 959 1747 
Q 959 1106 1268 751 
Q 1578 397 2138 397 
Q 2388 397 2633 464 
Q 2878 531 3122 666 
L 3122 134 
Q 2881 22 2623 -34 
Q 2366 -91 2075 -91 
Q 1284 -91 818 406 
Q 353 903 353 1747 
Q 353 2603 823 3093 
Q 1294 3584 2113 3584 
Q 2378 3584 2631 3529 
Q 2884 3475 3122 3366 
z
" transform="scale(0.015625)"/>
       <path id="DejaVuSans-65" d="M 3597 1894 
L 3597 1613 
L 953 1613 
Q 991 1019 1311 708 
Q 1631 397 2203 397 
Q 2534 397 2845 478 
Q 3156 559 3463 722 
L 3463 178 
Q 3153 47 2828 -22 
Q 2503 -91 2169 -91 
Q 1331 -91 842 396 
Q 353 884 353 1716 
Q 353 2575 817 3079 
Q 1281 3584 2069 3584 
Q 2775 3584 3186 3129 
Q 3597 2675 3597 1894 
z
M 3022 2063 
Q 3016 2534 2758 2815 
Q 2500 3097 2075 3097 
Q 1594 3097 1305 2825 
Q 1016 2553 972 2059 
L 3022 2063 
z
" transform="scale(0.015625)"/>
      </defs>
      <use xlink:href="#DejaVuSans-73"/>
      <use xlink:href="#DejaVuSans-63" x="52.099609"/>
      <use xlink:href="#DejaVuSans-6f" x="107.080078"/>
      <use xlink:href="#DejaVuSans-72" x="168.261719"/>
      <use xlink:href="#DejaVuSans-65" x="207.125"/>
     </g>
    </g>
   </g>
   <g id="line2d_17">
    <path d="M 60.013977 261.216 
L 100.595795 135.4176 
L 141.177614 83.618259 
L 181.759432 97.13113 
L 222.34125 115.127535 
L 262.923068 85.683349 
L 303.504886 45.5616 
L 344.086705 32.792589 
L 384.668523 21.055418 
" clip-path="url(#pbf45595392)" style="fill: none; stroke-dasharray: 7.4,3.2; stroke-dashoffset: 0; stroke: #f26b38; stroke-width: 2"/>
   </g>
   <g id="line2d_18">
    <path d="M 60.013977 261.216 
L 100.595795 135.4176 
L 141.177614 119.6928 
L 181.759432 123.981382 
L 222.34125 115.127535 
L 262.923068 85.683349 
L 303.504886 45.5616 
L 344.086705 25.956655 
L 384.668523 21.055418 
" clip-path="url(#pbf45595392)" style="fill: none; stroke-dasharray: 7.4,3.2; stroke-dashoffset: 0; stroke: #f26b38; stroke-width: 2"/>
   </g>
   <g id="line2d_19">
    <path d="M 60.013977 135.4176 
L 100.595795 87.0336 
L 141.177614 51.552 
L 181.759432 72.5184 
L 222.34125 96.1056 
L 262.923068 72.5184 
L 303.504886 28.9728 
L 344.086705 19.296 
L 384.668523 21.055418 
" clip-path="url(#pbf45595392)" style="fill: none; stroke-dasharray: 7.4,3.2; stroke-dashoffset: 0; stroke: #f26b38; stroke-width: 2"/>
   </g>
   <g id="line2d_20">
    <path d="M 60.013977 261.216 
L 100.595795 135.4176 
L 141.177614 160.57728 
L 181.759432 153.3888 
L 222.34125 157.106979 
L 262.923068 113.939824 
L 303.504886 54.257342 
L 344.086705 54.42411 
L 384.668523 21.055418 
" clip-path="url(#pbf45595392)" style="fill: none; stroke-dasharray: 2,3.3; stroke-dashoffset: 0; stroke: #2f9599; stroke-width: 2"/>
   </g>
   <g id="line2d_21">
    <path d="M 60.013977 261.216 
L 100.595795 135.4176 
L 141.177614 119.6928 
L 181.759432 123.981382 
L 222.34125 135.4176 
L 262.923068 99.4752 
L 303.504886 45.5616 
L 344.086705 32.792589 
L 384.668523 21.055418 
" clip-path="url(#pbf45595392)" style="fill: none; stroke-dasharray: 2,3.3; stroke-dashoffset: 0; stroke: #2f9599; stroke-width: 2"/>
   </g>
   <g id="line2d_22">
    <path d="M 60.013977 135.4176 
L 100.595795 87.0336 
L 141.177614 119.6928 
L 181.759432 153.3888 
L 222.34125 180.3456 
L 262.923068 161.901474 
L 303.504886 82.113193 
L 344.086705 77.90976 
L 384.668523 33.023553 
" clip-path="url(#pbf45595392)" style="fill: none; stroke-dasharray: 2,3.3; stroke-dashoffset: 0; stroke: #2f9599; stroke-width: 2"/>
   </g>
   <g id="patch_3">
    <path d="M 43.78125 273.312 
L 43.78125 7.2 
" style="fill: none; stroke: #000000; stroke-width: 0.8; stroke-linejoin: miter; stroke-linecap: square"/>
   </g>
   <g id="patch_4">
    <path d="M 400.90125 273.312 
L 400.90125 7.2 
" style="fill: none; stroke: #000000; stroke-width: 0.8; stroke-linejoin: miter; stroke-linecap: square"/>
   </g>
   <g id="patch_5">
    <path d="M 43.78125 273.312 
L 400.90125 273.312 
" style="fill: none; stroke: #000000; stroke-width: 0.8; stroke-linejoin: miter; stroke-linecap: square"/>
   </g>
   <g id="patch_6">
    <path d="M 43.78125 7.2 
L 400.90125 7.2 
" style="fill: none; stroke: #000000; stroke-width: 0.8; stroke-linejoin: miter; stroke-linecap: square"/>
   </g>
   <g id="legend_1">
    <g id="patch_7">
     <path d="M 48.63925 84.637387 
L 129.254941 84.637387 
Q 130.642941 84.637387 130.642941 83.249387 
L 130.642941 12.058 
Q 130.642941 10.67 129.254941 10.67 
L 48.63925 10.67 
Q 47.25125 10.67 47.25125 12.058 
L 47.25125 83.249387 
Q 47.25125 84.637387 48.63925 84.637387 
z
" style="fill: #ffffff; opacity: 0.8; stroke: #cccccc; stroke-linejoin: miter"/>
    </g>
    <g id="text_19">
     <!-- pred -->
     <g transform="translate(69.45925 18.719316)scale(0.0694 -0.0694)">
      <defs>
       <path id="DejaVuSans-70" d="M 1159 525 
L 1159 -1331 
L 581 -1331 
L 581 3500 
L 1159 3500 
L 1159 2969 
Q 1341 3281 1617 3432 
Q 1894 3584 2278 3584 
Q 2916 3584 3314 3078 
Q 3713 2572 3713 1747 
Q 3713 922 3314 415 
Q 2916 -91 2278 -91 
Q 1894 -91 1617 61 
Q 1341 213 1159 525 
z
M 3116 1747 
Q 3116 2381 2855 2742 
Q 2594 3103 2138 3103 
Q 1681 3103 1420 2742 
Q 1159 2381 1159 1747 
Q 1159 1113 1420 752 
Q 1681 391 2138 391 
Q 2594 391 2855 752 
Q 3116 1113 3116 1747 
z
" transform="scale(0.015625)"/>
       <path id="DejaVuSans-64" d="M 2906 2969 
L 2906 4863 
L 3481 4863 
L 3481 0 
L 2906 0 
L 2906 525 
Q 2725 213 2448 61 
Q 2172 -91 1784 -91 
Q 1150 -91 751 415 
Q 353 922 353 1747 
Q 353 2572 751 3078 
Q 1150 3584 1784 3584 
Q 2172 3584 2448 3432 
Q 2725 3281 2906 2969 
z
M 947 1747 
Q 947 1113 1208 752 
Q 1469 391 1925 391 
Q 2381 391 2643 752 
Q 2906 1113 2906 1747 
Q 2906 2381 2643 2742 
Q 2381 3103 1925 3103 
Q 1469 3103 1208 2742 
Q 947 2381 947 1747 
z
" transform="scale(0.015625)"/>
      </defs>
      <use xlink:href="#DejaVuSans-70"/>
      <use xlink:href="#DejaVuSans-72" x="63.476562"/>
      <use xlink:href="#DejaVuSans-65" x="102.339844"/>
      <use xlink:href="#DejaVuSans-64" x="163.863281"/>
     </g>
    </g>
    <g id="PathCollection_7">
     <defs>
      <path id="me47ad9d350" d="M 0 3 
C 0.795609 3 1.55874 2.683901 2.12132 2.12132 
C 2.683901 1.55874 3 0.795609 3 0 
C 3 -0.795609 2.683901 -1.55874 2.12132 -2.12132 
C 1.55874 -2.683901 0.795609 -3 0 -3 
C -0.795609 -3 -1.55874 -2.683901 -2.12132 -2.12132 
C -2.683901 -1.55874 -3 -0.795609 -3 0 
C -3 0.795609 -2.683901 1.55874 -2.12132 2.12132 
C -1.55874 2.683901 -0.795609 3 0 3 
z
" style="stroke: #f26b38"/>
     </defs>
     <g>
      <use xlink:href="#me47ad9d350" x="56.96725" y="27.084184" style="fill: #f26b38; stroke: #f26b38"/>
     </g>
    </g>
    <g id="text_20">
     <!-- estimate -->
     <g transform="translate(69.45925 28.905934)scale(0.0694 -0.0694)">
      <defs>
       <path id="DejaVuSans-74" d="M 1172 4494 
L 1172 3500 
L 2356 3500 
L 2356 3053 
L 1172 3053 
L 1172 1153 
Q 1172 725 1289 603 
Q 1406 481 1766 481 
L 2356 481 
L 2356 0 
L 1766 0 
Q 1100 0 847 248 
Q 594 497 594 1153 
L 594 3053 
L 172 3053 
L 172 3500 
L 594 3500 
L 594 4494 
L 1172 4494 
z
" transform="scale(0.015625)"/>
       <path id="DejaVuSans-69" d="M 603 3500 
L 1178 3500 
L 1178 0 
L 603 0 
L 603 3500 
z
M 603 4863 
L 1178 4863 
L 1178 4134 
L 603 4134 
L 603 4863 
z
" transform="scale(0.015625)"/>
       <path id="DejaVuSans-6d" d="M 3328 2828 
Q 3544 3216 3844 3400 
Q 4144 3584 4550 3584 
Q 5097 3584 5394 3201 
Q 5691 2819 5691 2113 
L 5691 0 
L 5113 0 
L 5113 2094 
Q 5113 2597 4934 2840 
Q 4756 3084 4391 3084 
Q 3944 3084 3684 2787 
Q 3425 2491 3425 1978 
L 3425 0 
L 2847 0 
L 2847 2094 
Q 2847 2600 2669 2842 
Q 2491 3084 2119 3084 
Q 1678 3084 1418 2786 
Q 1159 2488 1159 1978 
L 1159 0 
L 581 0 
L 581 3500 
L 1159 3500 
L 1159 2956 
Q 1356 3278 1631 3431 
Q 1906 3584 2284 3584 
Q 2666 3584 2933 3390 
Q 3200 3197 3328 2828 
z
" transform="scale(0.015625)"/>
       <path id="DejaVuSans-61" d="M 2194 1759 
Q 1497 1759 1228 1600 
Q 959 1441 959 1056 
Q 959 750 1161 570 
Q 1363 391 1709 391 
Q 2188 391 2477 730 
Q 2766 1069 2766 1631 
L 2766 1759 
L 2194 1759 
z
M 3341 1997 
L 3341 0 
L 2766 0 
L 2766 531 
Q 2569 213 2275 61 
Q 1981 -91 1556 -91 
Q 1019 -91 701 211 
Q 384 513 384 1019 
Q 384 1609 779 1909 
Q 1175 2209 1959 2209 
L 2766 2209 
L 2766 2266 
Q 2766 2663 2505 2880 
Q 2244 3097 1772 3097 
Q 1472 3097 1187 3025 
Q 903 2953 641 2809 
L 641 3341 
Q 956 3463 1253 3523 
Q 1550 3584 1831 3584 
Q 2591 3584 2966 3190 
Q 3341 2797 3341 1997 
z
" transform="scale(0.015625)"/>
      </defs>
      <use xlink:href="#DejaVuSans-65"/>
      <use xlink:href="#DejaVuSans-73" x="61.523438"/>
      <use xlink:href="#DejaVuSans-74" x="113.623047"/>
      <use xlink:href="#DejaVuSans-69" x="152.832031"/>
      <use xlink:href="#DejaVuSans-6d" x="180.615234"/>
      <use xlink:href="#DejaVuSans-61" x="278.027344"/>
      <use xlink:href="#DejaVuSans-74" x="339.306641"/>
      <use xlink:href="#DejaVuSans-65" x="378.515625"/>
     </g>
    </g>
    <g id="PathCollection_8">
     <defs>
      <path id="m9d0f53560f" d="M 0 3 
C 0.795609 3 1.55874 2.683901 2.12132 2.12132 
C 2.683901 1.55874 3 0.795609 3 0 
C 3 -0.795609 2.683901 -1.55874 2.12132 -2.12132 
C 1.55874 -2.683901 0.795609 -3 0 -3 
C -0.795609 -3 -1.55874 -2.683901 -2.12132 -2.12132 
C -2.683901 -1.55874 -3 -0.795609 -3 0 
C -3 0.795609 -2.683901 1.55874 -2.12132 2.12132 
C -1.55874 2.683901 -0.795609 3 0 3 
z
" style="stroke: #2f9599"/>
     </defs>
     <g>
      <use xlink:href="#m9d0f53560f" x="56.96725" y="37.270803" style="fill: #2f9599; stroke: #2f9599"/>
     </g>
    </g>
    <g id="text_21">
     <!-- exact -->
     <g transform="translate(69.45925 39.092553)scale(0.0694 -0.0694)">
      <defs>
       <path id="DejaVuSans-78" d="M 3513 3500 
L 2247 1797 
L 3578 0 
L 2900 0 
L 1881 1375 
L 863 0 
L 184 0 
L 1544 1831 
L 300 3500 
L 978 3500 
L 1906 2253 
L 2834 3500 
L 3513 3500 
z
" transform="scale(0.015625)"/>
      </defs>
      <use xlink:href="#DejaVuSans-65"/>
      <use xlink:href="#DejaVuSans-78" x="59.773438"/>
      <use xlink:href="#DejaVuSans-61" x="118.953125"/>
      <use xlink:href="#DejaVuSans-63" x="180.232422"/>
      <use xlink:href="#DejaVuSans-74" x="235.212891"/>
     </g>
    </g>
    <g id="text_22">
     <!-- method -->
     <g transform="translate(69.45925 49.279172)scale(0.0694 -0.0694)">
      <defs>
       <path id="DejaVuSans-68" d="M 3513 2113 
L 3513 0 
L 2938 0 
L 2938 2094 
Q 2938 2591 2744 2837 
Q 2550 3084 2163 3084 
Q 1697 3084 1428 2787 
Q 1159 2491 1159 1978 
L 1159 0 
L 581 0 
L 581 4863 
L 1159 4863 
L 1159 2956 
Q 1366 3272 1645 3428 
Q 1925 3584 2291 3584 
Q 2894 3584 3203 3211 
Q 3513 2838 3513 2113 
z
" transform="scale(0.015625)"/>
      </defs>
      <use xlink:href="#DejaVuSans-6d"/>
      <use xlink:href="#DejaVuSans-65" x="97.412109"/>
      <use xlink:href="#DejaVuSans-74" x="158.935547"/>
      <use xlink:href="#DejaVuSans-68" x="198.144531"/>
      <use xlink:href="#DejaVuSans-6f" x="261.523438"/>
      <use xlink:href="#DejaVuSans-64" x="322.705078"/>
     </g>
    </g>
    <g id="PathCollection_9">
     <defs>
      <path id="m6946b263a1" d="M 0 3 
C 0.795609 3 1.55874 2.683901 2.12132 2.12132 
C 2.683901 1.55874 3 0.795609 3 0 
C 3 -0.795609 2.683901 -1.55874 2.12132 -2.12132 
C 1.55874 -2.683901 0.795609 -3 0 -3 
C -0.795609 -3 -1.55874 -2.683901 -2.12132 -2.12132 
C -2.683901 -1.55874 -3 -0.795609 -3 0 
C -3 0.795609 -2.683901 1.55874 -2.12132 2.12132 
C -1.55874 2.683901 -0.795609 3 0 3 
z
" style="stroke: #333333"/>
     </defs>
     <g>
      <use xlink:href="#m6946b263a1" x="56.96725" y="57.644041" style="fill: #333333; stroke: #333333"/>
     </g>
    </g>
    <g id="text_23">
     <!-- mean_err -->
     <g transform="translate(69.45925 59.465791)scale(0.0694 -0.0694)">
      <defs>
       <path id="DejaVuSans-5f" d="M 3263 -1063 
L 3263 -1509 
L -63 -1509 
L -63 -1063 
L 3263 -1063 
z
" transform="scale(0.015625)"/>
      </defs>
      <use xlink:href="#DejaVuSans-6d"/>
      <use xlink:href="#DejaVuSans-65" x="97.412109"/>
      <use xlink:href="#DejaVuSans-61" x="158.935547"/>
      <use xlink:href="#DejaVuSans-6e" x="220.214844"/>
      <use xlink:href="#DejaVuSans-5f" x="283.59375"/>
      <use xlink:href="#DejaVuSans-65" x="333.59375"/>
      <use xlink:href="#DejaVuSans-72" x="395.117188"/>
      <use xlink:href="#DejaVuSans-72" x="434.480469"/>
     </g>
    </g>
    <g id="PathCollection_10">
     <defs>
      <path id="m3693d1e58f" d="M -1.5 3 
L 0 1.5 
L 1.5 3 
L 3 1.5 
L 1.5 0 
L 3 -1.5 
L 1.5 -3 
L 0 -1.5 
L -1.5 -3 
L -3 -1.5 
L -1.5 0 
L -3 1.5 
z
" style="stroke: #333333"/>
     </defs>
     <g>
      <use xlink:href="#m3693d1e58f" x="56.96725" y="68.023678" style="fill: #333333; stroke: #333333"/>
     </g>
    </g>
    <g id="text_24">
     <!-- mean_sq_err -->
     <g transform="translate(69.45925 69.845428)scale(0.0694 -0.0694)">
      <defs>
       <path id="DejaVuSans-71" d="M 947 1747 
Q 947 1113 1208 752 
Q 1469 391 1925 391 
Q 2381 391 2643 752 
Q 2906 1113 2906 1747 
Q 2906 2381 2643 2742 
Q 2381 3103 1925 3103 
Q 1469 3103 1208 2742 
Q 947 2381 947 1747 
z
M 2906 525 
Q 2725 213 2448 61 
Q 2172 -91 1784 -91 
Q 1150 -91 751 415 
Q 353 922 353 1747 
Q 353 2572 751 3078 
Q 1150 3584 1784 3584 
Q 2172 3584 2448 3432 
Q 2725 3281 2906 2969 
L 2906 3500 
L 3481 3500 
L 3481 -1331 
L 2906 -1331 
L 2906 525 
z
" transform="scale(0.015625)"/>
      </defs>
      <use xlink:href="#DejaVuSans-6d"/>
      <use xlink:href="#DejaVuSans-65" x="97.412109"/>
      <use xlink:href="#DejaVuSans-61" x="158.935547"/>
      <use xlink:href="#DejaVuSans-6e" x="220.214844"/>
      <use xlink:href="#DejaVuSans-5f" x="283.59375"/>
      <use xlink:href="#DejaVuSans-73" x="333.59375"/>
      <use xlink:href="#DejaVuSans-71" x="385.693359"/>
      <use xlink:href="#DejaVuSans-5f" x="449.169922"/>
      <use xlink:href="#DejaVuSans-65" x="499.169922"/>
      <use xlink:href="#DejaVuSans-72" x="560.693359"/>
      <use xlink:href="#DejaVuSans-72" x="600.056641"/>
     </g>
    </g>
    <g id="PathCollection_11">
     <defs>
      <path id="m008992d2ca" d="M -2.12132 -2.12132 
L -2.12132 2.12132 
L 2.12132 2.12132 
L 2.12132 -2.12132 
z
" style="stroke: #333333"/>
     </defs>
     <g>
      <use xlink:href="#m008992d2ca" x="56.96725" y="78.403316" style="fill: #333333; stroke: #333333"/>
     </g>
    </g>
    <g id="text_25">
     <!-- mean_sqroot_err -->
     <g transform="translate(69.45925 80.225066)scale(0.0694 -0.0694)">
      <use xlink:href="#DejaVuSans-6d"/>
      <use xlink:href="#DejaVuSans-65" x="97.412109"/>
      <use xlink:href="#DejaVuSans-61" x="158.935547"/>
      <use xlink:href="#DejaVuSans-6e" x="220.214844"/>
      <use xlink:href="#DejaVuSans-5f" x="283.59375"/>
      <use xlink:href="#DejaVuSans-73" x="333.59375"/>
      <use xlink:href="#DejaVuSans-71" x="385.693359"/>
      <use xlink:href="#DejaVuSans-72" x="449.169922"/>
      <use xlink:href="#DejaVuSans-6f" x="488.033203"/>
      <use xlink:href="#DejaVuSans-6f" x="549.214844"/>
      <use xlink:href="#DejaVuSans-74" x="610.396484"/>
      <use xlink:href="#DejaVuSans-5f" x="649.605469"/>
      <use xlink:href="#DejaVuSans-65" x="699.605469"/>
      <use xlink:href="#DejaVuSans-72" x="761.128906"/>
      <use xlink:href="#DejaVuSans-72" x="800.492188"/>
     </g>
    </g>
   </g>
  </g>
 </g>
 <defs>
  <clipPath id="pbf45595392">
   <rect x="43.78125" y="7.2" width="357.12" height="266.112"/>
  </clipPath>
 </defs>
</svg>
