<?xml version="1.0" encoding="utf-8" standalone="no"?>
<!DOCTYPE svg PUBLIC "-//W3C//DTD SVG 1.1//EN"
  "http://www.w3.org/Graphics/SVG/1.1/DTD/svg11.dtd">
<!-- Created with matplotlib (https://matplotlib.org/) -->
<svg height="310.86825pt" version="1.1" viewBox="0 0 408.10125 310.86825" width="408.10125pt" xmlns="http://www.w3.org/2000/svg" xmlns:xlink="http://www.w3.org/1999/xlink">
 <metadata>
  <rdf:RDF xmlns:cc="http://creativecommons.org/ns#" xmlns:dc="http://purl.org/dc/elements/1.1/" xmlns:rdf="http://www.w3.org/1999/02/22-rdf-syntax-ns#">
   <cc:Work>
    <dc:type rdf:resource="http://purl.org/dc/dcmitype/StillImage"/>
    <dc:date>2022-05-27T21:58:54.357836</dc:date>
    <dc:format>image/svg+xml</dc:format>
    <dc:creator>
     <cc:Agent>
      <dc:title>Matplotlib v3.3.4, https://matplotlib.org/</dc:title>
     </cc:Agent>
    </dc:creator>
   </cc:Work>
  </rdf:RDF>
 </metadata>
 <defs>
  <style type="text/css">*{stroke-linecap:butt;stroke-linejoin:round;}</style>
 </defs>
 <g id="figure_1">
  <g id="patch_1">
   <path d="M 0 310.86825 
L 408.10125 310.86825 
L 408.10125 0 
L 0 0 
z
" style="fill:#ffffff;"/>
  </g>
  <g id="axes_1">
   <g id="patch_2">
    <path d="M 43.78125 273.312 
L 400.90125 273.312 
L 400.90125 7.2 
L 43.78125 7.2 
z
" style="fill:#ffffff;"/>
   </g>
   <g id="PathCollection_1">
    <path clip-path="url(#p5f09ebf686)" d="M 60.013977 22.296 
C 60.809587 22.296 61.572717 21.979901 62.135298 21.41732 
C 62.697878 20.85474 63.013977 20.091609 63.013977 19.296 
C 63.013977 18.500391 62.697878 17.73726 62.135298 17.17468 
C 61.572717 16.612099 60.809587 16.296 60.013977 16.296 
C 59.218368 16.296 58.455238 16.612099 57.892657 17.17468 
C 57.330076 17.73726 57.013977 18.500391 57.013977 19.296 
C 57.013977 20.091609 57.330076 20.85474 57.892657 21.41732 
C 58.455238 21.979901 59.218368 22.296 60.013977 22.296 
z
" style="fill:#f26b38;stroke:#ffffff;stroke-width:0.48;"/>
    <path clip-path="url(#p5f09ebf686)" d="M 66.777614 33.820305 
C 67.573223 33.820305 68.336353 33.504206 68.898934 32.941626 
C 69.461515 32.379045 69.777614 31.615915 69.777614 30.820305 
C 69.777614 30.024696 69.461515 29.261566 68.898934 28.698985 
C 68.336353 28.136404 67.573223 27.820305 66.777614 27.820305 
C 65.982004 27.820305 65.218874 28.136404 64.656293 28.698985 
C 64.093713 29.261566 63.777614 30.024696 63.777614 30.820305 
C 63.777614 31.615915 64.093713 32.379045 64.656293 32.941626 
C 65.218874 33.504206 65.982004 33.820305 66.777614 33.820305 
z
" style="fill:#f26b38;stroke:#ffffff;stroke-width:0.48;"/>
    <path clip-path="url(#p5f09ebf686)" d="M 73.54125 47.550515 
C 74.336859 47.550515 75.09999 47.234416 75.66257 46.671836 
C 76.225151 46.109255 76.54125 45.346125 76.54125 44.550515 
C 76.54125 43.754906 76.225151 42.991776 75.66257 42.429195 
C 75.09999 41.866614 74.336859 41.550515 73.54125 41.550515 
C 72.745641 41.550515 71.98251 41.866614 71.41993 42.429195 
C 70.857349 42.991776 70.54125 43.754906 70.54125 44.550515 
C 70.54125 45.346125 70.857349 46.109255 71.41993 46.671836 
C 71.98251 47.234416 72.745641 47.550515 73.54125 47.550515 
z
" style="fill:#f26b38;stroke:#ffffff;stroke-width:0.48;"/>
    <path clip-path="url(#p5f09ebf686)" d="M 80.304886 63.569094 
C 81.100496 63.569094 81.863626 63.252995 82.426207 62.690414 
C 82.988787 62.127833 83.304886 61.364703 83.304886 60.569094 
C 83.304886 59.773484 82.988787 59.010354 82.426207 58.447773 
C 81.863626 57.885192 81.100496 57.569094 80.304886 57.569094 
C 79.509277 57.569094 78.746147 57.885192 78.183566 58.447773 
C 77.620985 59.010354 77.304886 59.773484 77.304886 60.569094 
C 77.304886 61.364703 77.620985 62.127833 78.183566 62.690414 
C 78.746147 63.252995 79.509277 63.569094 80.304886 63.569094 
z
" style="fill:#f26b38;stroke:#ffffff;stroke-width:0.48;"/>
    <path clip-path="url(#p5f09ebf686)" d="M 87.068523 93.053875 
C 87.864132 93.053875 88.627262 92.737776 89.189843 92.175195 
C 89.752424 91.612614 90.068523 90.849484 90.068523 90.053875 
C 90.068523 89.258265 89.752424 88.495135 89.189843 87.932554 
C 88.627262 87.369974 87.864132 87.053875 87.068523 87.053875 
C 86.272913 87.053875 85.509783 87.369974 84.947202 87.932554 
C 84.384622 88.495135 84.068523 89.258265 84.068523 90.053875 
C 84.068523 90.849484 84.384622 91.612614 84.947202 92.175195 
C 85.509783 92.737776 86.272913 93.053875 87.068523 93.053875 
z
" style="fill:#f26b38;stroke:#ffffff;stroke-width:0.48;"/>
    <path clip-path="url(#p5f09ebf686)" d="M 93.832159 102.803003 
C 94.627768 102.803003 95.390899 102.486904 95.953479 101.924323 
C 96.51606 101.361742 96.832159 100.598612 96.832159 99.803003 
C 96.832159 99.007393 96.51606 98.244263 95.953479 97.681682 
C 95.390899 97.119102 94.627768 96.803003 93.832159 96.803003 
C 93.03655 96.803003 92.273419 97.119102 91.710839 97.681682 
C 91.148258 98.244263 90.832159 99.007393 90.832159 99.803003 
C 90.832159 100.598612 91.148258 101.361742 91.710839 101.924323 
C 92.273419 102.486904 93.03655 102.803003 93.832159 102.803003 
z
" style="fill:#f26b38;stroke:#ffffff;stroke-width:0.48;"/>
    <path clip-path="url(#p5f09ebf686)" d="M 100.595795 116.381178 
C 101.391405 116.381178 102.154535 116.065079 102.717116 115.502498 
C 103.279697 114.939917 103.595795 114.176787 103.595795 113.381178 
C 103.595795 112.585568 103.279697 111.822438 102.717116 111.259857 
C 102.154535 110.697277 101.391405 110.381178 100.595795 110.381178 
C 99.800186 110.381178 99.037056 110.697277 98.474475 111.259857 
C 97.911894 111.822438 97.595795 112.585568 97.595795 113.381178 
C 97.595795 114.176787 97.911894 114.939917 98.474475 115.502498 
C 99.037056 116.065079 99.800186 116.381178 100.595795 116.381178 
z
" style="fill:#f26b38;stroke:#ffffff;stroke-width:0.48;"/>
    <path clip-path="url(#p5f09ebf686)" d="M 107.359432 116.381178 
C 108.155041 116.381178 108.918171 116.065079 109.480752 115.502498 
C 110.043333 114.939917 110.359432 114.176787 110.359432 113.381178 
C 110.359432 112.585568 110.043333 111.822438 109.480752 111.259857 
C 108.918171 110.697277 108.155041 110.381178 107.359432 110.381178 
C 106.563823 110.381178 105.800692 110.697277 105.238111 111.259857 
C 104.675531 111.822438 104.359432 112.585568 104.359432 113.381178 
C 104.359432 114.176787 104.675531 114.939917 105.238111 115.502498 
C 105.800692 116.065079 106.563823 116.381178 107.359432 116.381178 
z
" style="fill:#f26b38;stroke:#ffffff;stroke-width:0.48;"/>
    <path clip-path="url(#p5f09ebf686)" d="M 114.123068 118.481575 
C 114.918677 118.481575 115.681808 118.165477 116.244389 117.602896 
C 116.806969 117.040315 117.123068 116.277185 117.123068 115.481575 
C 117.123068 114.685966 116.806969 113.922836 116.244389 113.360255 
C 115.681808 112.797674 114.918677 112.481575 114.123068 112.481575 
C 113.327459 112.481575 112.564329 112.797674 112.001748 113.360255 
C 111.439167 113.922836 111.123068 114.685966 111.123068 115.481575 
C 111.123068 116.277185 111.439167 117.040315 112.001748 117.602896 
C 112.564329 118.165477 113.327459 118.481575 114.123068 118.481575 
z
" style="fill:#f26b38;stroke:#ffffff;stroke-width:0.48;"/>
    <path clip-path="url(#p5f09ebf686)" d="M 120.886705 116.441987 
C 121.682314 116.441987 122.445444 116.125888 123.008025 115.563308 
C 123.570606 115.000727 123.886705 114.237597 123.886705 113.441987 
C 123.886705 112.646378 123.570606 111.883248 123.008025 111.320667 
C 122.445444 110.758086 121.682314 110.441987 120.886705 110.441987 
C 120.091095 110.441987 119.327965 110.758086 118.765384 111.320667 
C 118.202803 111.883248 117.886705 112.646378 117.886705 113.441987 
C 117.886705 114.237597 118.202803 115.000727 118.765384 115.563308 
C 119.327965 116.125888 120.091095 116.441987 120.886705 116.441987 
z
" style="fill:#f26b38;stroke:#ffffff;stroke-width:0.48;"/>
    <path clip-path="url(#p5f09ebf686)" d="M 127.650341 143.076609 
C 128.44595 143.076609 129.209081 142.76051 129.771661 142.197929 
C 130.334242 141.635348 130.650341 140.872218 130.650341 140.076609 
C 130.650341 139.280999 130.334242 138.517869 129.771661 137.955288 
C 129.209081 137.392707 128.44595 137.076609 127.650341 137.076609 
C 126.854732 137.076609 126.091601 137.392707 125.529021 137.955288 
C 124.96644 138.517869 124.650341 139.280999 124.650341 140.076609 
C 124.650341 140.872218 124.96644 141.635348 125.529021 142.197929 
C 126.091601 142.76051 126.854732 143.076609 127.650341 143.076609 
z
" style="fill:#f26b38;stroke:#ffffff;stroke-width:0.48;"/>
    <path clip-path="url(#p5f09ebf686)" d="M 134.413977 157.996929 
C 135.209587 157.996929 135.972717 157.68083 136.535298 157.118249 
C 137.097878 156.555668 137.413977 155.792538 137.413977 154.996929 
C 137.413977 154.201319 137.097878 153.438189 136.535298 152.875608 
C 135.972717 152.313028 135.209587 151.996929 134.413977 151.996929 
C 133.618368 151.996929 132.855238 152.313028 132.292657 152.875608 
C 131.730076 153.438189 131.413977 154.201319 131.413977 154.996929 
C 131.413977 155.792538 131.730076 156.555668 132.292657 157.118249 
C 132.855238 157.68083 133.618368 157.996929 134.413977 157.996929 
z
" style="fill:#f26b38;stroke:#ffffff;stroke-width:0.48;"/>
    <path clip-path="url(#p5f09ebf686)" d="M 141.177614 186.95544 
C 141.973223 186.95544 142.736353 186.639341 143.298934 186.07676 
C 143.861515 185.514179 144.177614 184.751049 144.177614 183.95544 
C 144.177614 183.15983 143.861515 182.3967 143.298934 181.834119 
C 142.736353 181.271538 141.973223 180.95544 141.177614 180.95544 
C 140.382004 180.95544 139.618874 181.271538 139.056293 181.834119 
C 138.493713 182.3967 138.177614 183.15983 138.177614 183.95544 
C 138.177614 184.751049 138.493713 185.514179 139.056293 186.07676 
C 139.618874 186.639341 140.382004 186.95544 141.177614 186.95544 
z
" style="fill:#f26b38;stroke:#ffffff;stroke-width:0.48;"/>
    <path clip-path="url(#p5f09ebf686)" d="M 147.94125 176.060833 
C 148.736859 176.060833 149.49999 175.744735 150.06257 175.182154 
C 150.625151 174.619573 150.94125 173.856443 150.94125 173.060833 
C 150.94125 172.265224 150.625151 171.502094 150.06257 170.939513 
C 149.49999 170.376932 148.736859 170.060833 147.94125 170.060833 
C 147.145641 170.060833 146.38251 170.376932 145.81993 170.939513 
C 145.257349 171.502094 144.94125 172.265224 144.94125 173.060833 
C 144.94125 173.856443 145.257349 174.619573 145.81993 175.182154 
C 146.38251 175.744735 147.145641 176.060833 147.94125 176.060833 
z
" style="fill:#f26b38;stroke:#ffffff;stroke-width:0.48;"/>
    <path clip-path="url(#p5f09ebf686)" d="M 154.704886 193.98929 
C 155.500496 193.98929 156.263626 193.673191 156.826207 193.11061 
C 157.388787 192.548029 157.704886 191.784899 157.704886 190.98929 
C 157.704886 190.19368 157.388787 189.43055 156.826207 188.867969 
C 156.263626 188.305389 155.500496 187.98929 154.704886 187.98929 
C 153.909277 187.98929 153.146147 188.305389 152.583566 188.867969 
C 152.020985 189.43055 151.704886 190.19368 151.704886 190.98929 
C 151.704886 191.784899 152.020985 192.548029 152.583566 193.11061 
C 153.146147 193.673191 153.909277 193.98929 154.704886 193.98929 
z
" style="fill:#f26b38;stroke:#ffffff;stroke-width:0.48;"/>
    <path clip-path="url(#p5f09ebf686)" d="M 161.468523 193.98929 
C 162.264132 193.98929 163.027262 193.673191 163.589843 193.11061 
C 164.152424 192.548029 164.468523 191.784899 164.468523 190.98929 
C 164.468523 190.19368 164.152424 189.43055 163.589843 188.867969 
C 163.027262 188.305389 162.264132 187.98929 161.468523 187.98929 
C 160.672913 187.98929 159.909783 188.305389 159.347202 188.867969 
C 158.784622 189.43055 158.468523 190.19368 158.468523 190.98929 
C 158.468523 191.784899 158.784622 192.548029 159.347202 193.11061 
C 159.909783 193.673191 160.672913 193.98929 161.468523 193.98929 
z
" style="fill:#f26b38;stroke:#ffffff;stroke-width:0.48;"/>
    <path clip-path="url(#p5f09ebf686)" d="M 168.232159 193.98929 
C 169.027768 193.98929 169.790899 193.673191 170.353479 193.11061 
C 170.91606 192.548029 171.232159 191.784899 171.232159 190.98929 
C 171.232159 190.19368 170.91606 189.43055 170.353479 188.867969 
C 169.790899 188.305389 169.027768 187.98929 168.232159 187.98929 
C 167.43655 187.98929 166.673419 188.305389 166.110839 188.867969 
C 165.548258 189.43055 165.232159 190.19368 165.232159 190.98929 
C 165.232159 191.784899 165.548258 192.548029 166.110839 193.11061 
C 166.673419 193.673191 167.43655 193.98929 168.232159 193.98929 
z
" style="fill:#f26b38;stroke:#ffffff;stroke-width:0.48;"/>
    <path clip-path="url(#p5f09ebf686)" d="M 174.995795 193.98929 
C 175.791405 193.98929 176.554535 193.673191 177.117116 193.11061 
C 177.679697 192.548029 177.995795 191.784899 177.995795 190.98929 
C 177.995795 190.19368 177.679697 189.43055 177.117116 188.867969 
C 176.554535 188.305389 175.791405 187.98929 174.995795 187.98929 
C 174.200186 187.98929 173.437056 188.305389 172.874475 188.867969 
C 172.311894 189.43055 171.995795 190.19368 171.995795 190.98929 
C 171.995795 191.784899 172.311894 192.548029 172.874475 193.11061 
C 173.437056 193.673191 174.200186 193.98929 174.995795 193.98929 
z
" style="fill:#f26b38;stroke:#ffffff;stroke-width:0.48;"/>
    <path clip-path="url(#p5f09ebf686)" d="M 181.759432 194.93833 
C 182.555041 194.93833 183.318171 194.622231 183.880752 194.059651 
C 184.443333 193.49707 184.759432 192.73394 184.759432 191.93833 
C 184.759432 191.142721 184.443333 190.379591 183.880752 189.81701 
C 183.318171 189.254429 182.555041 188.93833 181.759432 188.93833 
C 180.963823 188.93833 180.200692 189.254429 179.638111 189.81701 
C 179.075531 190.379591 178.759432 191.142721 178.759432 191.93833 
C 178.759432 192.73394 179.075531 193.49707 179.638111 194.059651 
C 180.200692 194.622231 180.963823 194.93833 181.759432 194.93833 
z
" style="fill:#f26b38;stroke:#ffffff;stroke-width:0.48;"/>
    <path clip-path="url(#p5f09ebf686)" d="M 188.523068 195.864502 
C 189.318677 195.864502 190.081808 195.548403 190.644389 194.985823 
C 191.206969 194.423242 191.523068 193.660112 191.523068 192.864502 
C 191.523068 192.068893 191.206969 191.305763 190.644389 190.743182 
C 190.081808 190.180601 189.318677 189.864502 188.523068 189.864502 
C 187.727459 189.864502 186.964329 190.180601 186.401748 190.743182 
C 185.839167 191.305763 185.523068 192.068893 185.523068 192.864502 
C 185.523068 193.660112 185.839167 194.423242 186.401748 194.985823 
C 186.964329 195.548403 187.727459 195.864502 188.523068 195.864502 
z
" style="fill:#f26b38;stroke:#ffffff;stroke-width:0.48;"/>
    <path clip-path="url(#p5f09ebf686)" d="M 195.286705 195.864502 
C 196.082314 195.864502 196.845444 195.548403 197.408025 194.985823 
C 197.970606 194.423242 198.286705 193.660112 198.286705 192.864502 
C 198.286705 192.068893 197.970606 191.305763 197.408025 190.743182 
C 196.845444 190.180601 196.082314 189.864502 195.286705 189.864502 
C 194.491095 189.864502 193.727965 190.180601 193.165384 190.743182 
C 192.602803 191.305763 192.286705 192.068893 192.286705 192.864502 
C 192.286705 193.660112 192.602803 194.423242 193.165384 194.985823 
C 193.727965 195.548403 194.491095 195.864502 195.286705 195.864502 
z
" style="fill:#f26b38;stroke:#ffffff;stroke-width:0.48;"/>
    <path clip-path="url(#p5f09ebf686)" d="M 202.050341 195.864502 
C 202.84595 195.864502 203.609081 195.548403 204.171661 194.985823 
C 204.734242 194.423242 205.050341 193.660112 205.050341 192.864502 
C 205.050341 192.068893 204.734242 191.305763 204.171661 190.743182 
C 203.609081 190.180601 202.84595 189.864502 202.050341 189.864502 
C 201.254732 189.864502 200.491601 190.180601 199.929021 190.743182 
C 199.36644 191.305763 199.050341 192.068893 199.050341 192.864502 
C 199.050341 193.660112 199.36644 194.423242 199.929021 194.985823 
C 200.491601 195.548403 201.254732 195.864502 202.050341 195.864502 
z
" style="fill:#f26b38;stroke:#ffffff;stroke-width:0.48;"/>
    <path clip-path="url(#p5f09ebf686)" d="M 208.813977 195.864502 
C 209.609587 195.864502 210.372717 195.548403 210.935298 194.985823 
C 211.497878 194.423242 211.813977 193.660112 211.813977 192.864502 
C 211.813977 192.068893 211.497878 191.305763 210.935298 190.743182 
C 210.372717 190.180601 209.609587 189.864502 208.813977 189.864502 
C 208.018368 189.864502 207.255238 190.180601 206.692657 190.743182 
C 206.130076 191.305763 205.813977 192.068893 205.813977 192.864502 
C 205.813977 193.660112 206.130076 194.423242 206.692657 194.985823 
C 207.255238 195.548403 208.018368 195.864502 208.813977 195.864502 
z
" style="fill:#f26b38;stroke:#ffffff;stroke-width:0.48;"/>
    <path clip-path="url(#p5f09ebf686)" d="M 215.577614 192.067197 
C 216.373223 192.067197 217.136353 191.751098 217.698934 191.188517 
C 218.261515 190.625936 218.577614 189.862806 218.577614 189.067197 
C 218.577614 188.271588 218.261515 187.508457 217.698934 186.945877 
C 217.136353 186.383296 216.373223 186.067197 215.577614 186.067197 
C 214.782004 186.067197 214.018874 186.383296 213.456293 186.945877 
C 212.893713 187.508457 212.577614 188.271588 212.577614 189.067197 
C 212.577614 189.862806 212.893713 190.625936 213.456293 191.188517 
C 214.018874 191.751098 214.782004 192.067197 215.577614 192.067197 
z
" style="fill:#f26b38;stroke:#ffffff;stroke-width:0.48;"/>
    <path clip-path="url(#p5f09ebf686)" d="M 222.34125 230.040251 
C 223.136859 230.040251 223.89999 229.724152 224.46257 229.161571 
C 225.025151 228.598991 225.34125 227.83586 225.34125 227.040251 
C 225.34125 226.244642 225.025151 225.481512 224.46257 224.918931 
C 223.89999 224.35635 223.136859 224.040251 222.34125 224.040251 
C 221.545641 224.040251 220.78251 224.35635 220.21993 224.918931 
C 219.657349 225.481512 219.34125 226.244642 219.34125 227.040251 
C 219.34125 227.83586 219.657349 228.598991 220.21993 229.161571 
C 220.78251 229.724152 221.545641 230.040251 222.34125 230.040251 
z
" style="fill:#f26b38;stroke:#ffffff;stroke-width:0.48;"/>
    <path clip-path="url(#p5f09ebf686)" d="M 229.104886 264.216 
C 229.900496 264.216 230.663626 263.899901 231.226207 263.33732 
C 231.788787 262.77474 232.104886 262.011609 232.104886 261.216 
C 232.104886 260.420391 231.788787 259.65726 231.226207 259.09468 
C 230.663626 258.532099 229.900496 258.216 229.104886 258.216 
C 228.309277 258.216 227.546147 258.532099 226.983566 259.09468 
C 226.420985 259.65726 226.104886 260.420391 226.104886 261.216 
C 226.104886 262.011609 226.420985 262.77474 226.983566 263.33732 
C 227.546147 263.899901 228.309277 264.216 229.104886 264.216 
z
" style="fill:#f26b38;stroke:#ffffff;stroke-width:0.48;"/>
    <path clip-path="url(#p5f09ebf686)" d="M 235.868523 264.216 
C 236.664132 264.216 237.427262 263.899901 237.989843 263.33732 
C 238.552424 262.77474 238.868523 262.011609 238.868523 261.216 
C 238.868523 260.420391 238.552424 259.65726 237.989843 259.09468 
C 237.427262 258.532099 236.664132 258.216 235.868523 258.216 
C 235.072913 258.216 234.309783 258.532099 233.747202 259.09468 
C 233.184622 259.65726 232.868523 260.420391 232.868523 261.216 
C 232.868523 262.011609 233.184622 262.77474 233.747202 263.33732 
C 234.309783 263.899901 235.072913 264.216 235.868523 264.216 
z
" style="fill:#f26b38;stroke:#ffffff;stroke-width:0.48;"/>
    <path clip-path="url(#p5f09ebf686)" d="M 242.632159 264.216 
C 243.427768 264.216 244.190899 263.899901 244.753479 263.33732 
C 245.31606 262.77474 245.632159 262.011609 245.632159 261.216 
C 245.632159 260.420391 245.31606 259.65726 244.753479 259.09468 
C 244.190899 258.532099 243.427768 258.216 242.632159 258.216 
C 241.83655 258.216 241.073419 258.532099 240.510839 259.09468 
C 239.948258 259.65726 239.632159 260.420391 239.632159 261.216 
C 239.632159 262.011609 239.948258 262.77474 240.510839 263.33732 
C 241.073419 263.899901 241.83655 264.216 242.632159 264.216 
z
" style="fill:#f26b38;stroke:#ffffff;stroke-width:0.48;"/>
    <path clip-path="url(#p5f09ebf686)" d="M 249.395795 264.216 
C 250.191405 264.216 250.954535 263.899901 251.517116 263.33732 
C 252.079697 262.77474 252.395795 262.011609 252.395795 261.216 
C 252.395795 260.420391 252.079697 259.65726 251.517116 259.09468 
C 250.954535 258.532099 250.191405 258.216 249.395795 258.216 
C 248.600186 258.216 247.837056 258.532099 247.274475 259.09468 
C 246.711894 259.65726 246.395795 260.420391 246.395795 261.216 
C 246.395795 262.011609 246.711894 262.77474 247.274475 263.33732 
C 247.837056 263.899901 248.600186 264.216 249.395795 264.216 
z
" style="fill:#f26b38;stroke:#ffffff;stroke-width:0.48;"/>
    <path clip-path="url(#p5f09ebf686)" d="M 256.159432 264.216 
C 256.955041 264.216 257.718171 263.899901 258.280752 263.33732 
C 258.843333 262.77474 259.159432 262.011609 259.159432 261.216 
C 259.159432 260.420391 258.843333 259.65726 258.280752 259.09468 
C 257.718171 258.532099 256.955041 258.216 256.159432 258.216 
C 255.363823 258.216 254.600692 258.532099 254.038111 259.09468 
C 253.475531 259.65726 253.159432 260.420391 253.159432 261.216 
C 253.159432 262.011609 253.475531 262.77474 254.038111 263.33732 
C 254.600692 263.899901 255.363823 264.216 256.159432 264.216 
z
" style="fill:#f26b38;stroke:#ffffff;stroke-width:0.48;"/>
    <path clip-path="url(#p5f09ebf686)" d="M 262.923068 264.216 
C 263.718677 264.216 264.481808 263.899901 265.044389 263.33732 
C 265.606969 262.77474 265.923068 262.011609 265.923068 261.216 
C 265.923068 260.420391 265.606969 259.65726 265.044389 259.09468 
C 264.481808 258.532099 263.718677 258.216 262.923068 258.216 
C 262.127459 258.216 261.364329 258.532099 260.801748 259.09468 
C 260.239167 259.65726 259.923068 260.420391 259.923068 261.216 
C 259.923068 262.011609 260.239167 262.77474 260.801748 263.33732 
C 261.364329 263.899901 262.127459 264.216 262.923068 264.216 
z
" style="fill:#f26b38;stroke:#ffffff;stroke-width:0.48;"/>
    <path clip-path="url(#p5f09ebf686)" d="M 269.686705 264.216 
C 270.482314 264.216 271.245444 263.899901 271.808025 263.33732 
C 272.370606 262.77474 272.686705 262.011609 272.686705 261.216 
C 272.686705 260.420391 272.370606 259.65726 271.808025 259.09468 
C 271.245444 258.532099 270.482314 258.216 269.686705 258.216 
C 268.891095 258.216 268.127965 258.532099 267.565384 259.09468 
C 267.002803 259.65726 266.686705 260.420391 266.686705 261.216 
C 266.686705 262.011609 267.002803 262.77474 267.565384 263.33732 
C 268.127965 263.899901 268.891095 264.216 269.686705 264.216 
z
" style="fill:#f26b38;stroke:#ffffff;stroke-width:0.48;"/>
    <path clip-path="url(#p5f09ebf686)" d="M 276.450341 264.216 
C 277.24595 264.216 278.009081 263.899901 278.571661 263.33732 
C 279.134242 262.77474 279.450341 262.011609 279.450341 261.216 
C 279.450341 260.420391 279.134242 259.65726 278.571661 259.09468 
C 278.009081 258.532099 277.24595 258.216 276.450341 258.216 
C 275.654732 258.216 274.891601 258.532099 274.329021 259.09468 
C 273.76644 259.65726 273.450341 260.420391 273.450341 261.216 
C 273.450341 262.011609 273.76644 262.77474 274.329021 263.33732 
C 274.891601 263.899901 275.654732 264.216 276.450341 264.216 
z
" style="fill:#f26b38;stroke:#ffffff;stroke-width:0.48;"/>
    <path clip-path="url(#p5f09ebf686)" d="M 283.213977 264.216 
C 284.009587 264.216 284.772717 263.899901 285.335298 263.33732 
C 285.897878 262.77474 286.213977 262.011609 286.213977 261.216 
C 286.213977 260.420391 285.897878 259.65726 285.335298 259.09468 
C 284.772717 258.532099 284.009587 258.216 283.213977 258.216 
C 282.418368 258.216 281.655238 258.532099 281.092657 259.09468 
C 280.530076 259.65726 280.213977 260.420391 280.213977 261.216 
C 280.213977 262.011609 280.530076 262.77474 281.092657 263.33732 
C 281.655238 263.899901 282.418368 264.216 283.213977 264.216 
z
" style="fill:#f26b38;stroke:#ffffff;stroke-width:0.48;"/>
    <path clip-path="url(#p5f09ebf686)" d="M 289.977614 264.216 
C 290.773223 264.216 291.536353 263.899901 292.098934 263.33732 
C 292.661515 262.77474 292.977614 262.011609 292.977614 261.216 
C 292.977614 260.420391 292.661515 259.65726 292.098934 259.09468 
C 291.536353 258.532099 290.773223 258.216 289.977614 258.216 
C 289.182004 258.216 288.418874 258.532099 287.856293 259.09468 
C 287.293713 259.65726 286.977614 260.420391 286.977614 261.216 
C 286.977614 262.011609 287.293713 262.77474 287.856293 263.33732 
C 288.418874 263.899901 289.182004 264.216 289.977614 264.216 
z
" style="fill:#f26b38;stroke:#ffffff;stroke-width:0.48;"/>
    <path clip-path="url(#p5f09ebf686)" d="M 296.74125 264.216 
C 297.536859 264.216 298.29999 263.899901 298.86257 263.33732 
C 299.425151 262.77474 299.74125 262.011609 299.74125 261.216 
C 299.74125 260.420391 299.425151 259.65726 298.86257 259.09468 
C 298.29999 258.532099 297.536859 258.216 296.74125 258.216 
C 295.945641 258.216 295.18251 258.532099 294.61993 259.09468 
C 294.057349 259.65726 293.74125 260.420391 293.74125 261.216 
C 293.74125 262.011609 294.057349 262.77474 294.61993 263.33732 
C 295.18251 263.899901 295.945641 264.216 296.74125 264.216 
z
" style="fill:#f26b38;stroke:#ffffff;stroke-width:0.48;"/>
    <path clip-path="url(#p5f09ebf686)" d="M 303.504886 264.216 
C 304.300496 264.216 305.063626 263.899901 305.626207 263.33732 
C 306.188787 262.77474 306.504886 262.011609 306.504886 261.216 
C 306.504886 260.420391 306.188787 259.65726 305.626207 259.09468 
C 305.063626 258.532099 304.300496 258.216 303.504886 258.216 
C 302.709277 258.216 301.946147 258.532099 301.383566 259.09468 
C 300.820985 259.65726 300.504886 260.420391 300.504886 261.216 
C 300.504886 262.011609 300.820985 262.77474 301.383566 263.33732 
C 301.946147 263.899901 302.709277 264.216 303.504886 264.216 
z
" style="fill:#f26b38;stroke:#ffffff;stroke-width:0.48;"/>
    <path clip-path="url(#p5f09ebf686)" d="M 310.268523 264.216 
C 311.064132 264.216 311.827262 263.899901 312.389843 263.33732 
C 312.952424 262.77474 313.268523 262.011609 313.268523 261.216 
C 313.268523 260.420391 312.952424 259.65726 312.389843 259.09468 
C 311.827262 258.532099 311.064132 258.216 310.268523 258.216 
C 309.472913 258.216 308.709783 258.532099 308.147202 259.09468 
C 307.584622 259.65726 307.268523 260.420391 307.268523 261.216 
C 307.268523 262.011609 307.584622 262.77474 308.147202 263.33732 
C 308.709783 263.899901 309.472913 264.216 310.268523 264.216 
z
" style="fill:#f26b38;stroke:#ffffff;stroke-width:0.48;"/>
    <path clip-path="url(#p5f09ebf686)" d="M 317.032159 264.216 
C 317.827768 264.216 318.590899 263.899901 319.153479 263.33732 
C 319.71606 262.77474 320.032159 262.011609 320.032159 261.216 
C 320.032159 260.420391 319.71606 259.65726 319.153479 259.09468 
C 318.590899 258.532099 317.827768 258.216 317.032159 258.216 
C 316.23655 258.216 315.473419 258.532099 314.910839 259.09468 
C 314.348258 259.65726 314.032159 260.420391 314.032159 261.216 
C 314.032159 262.011609 314.348258 262.77474 314.910839 263.33732 
C 315.473419 263.899901 316.23655 264.216 317.032159 264.216 
z
" style="fill:#f26b38;stroke:#ffffff;stroke-width:0.48;"/>
    <path clip-path="url(#p5f09ebf686)" d="M 323.795795 264.216 
C 324.591405 264.216 325.354535 263.899901 325.917116 263.33732 
C 326.479697 262.77474 326.795795 262.011609 326.795795 261.216 
C 326.795795 260.420391 326.479697 259.65726 325.917116 259.09468 
C 325.354535 258.532099 324.591405 258.216 323.795795 258.216 
C 323.000186 258.216 322.237056 258.532099 321.674475 259.09468 
C 321.111894 259.65726 320.795795 260.420391 320.795795 261.216 
C 320.795795 262.011609 321.111894 262.77474 321.674475 263.33732 
C 322.237056 263.899901 323.000186 264.216 323.795795 264.216 
z
" style="fill:#f26b38;stroke:#ffffff;stroke-width:0.48;"/>
    <path clip-path="url(#p5f09ebf686)" d="M 330.559432 264.216 
C 331.355041 264.216 332.118171 263.899901 332.680752 263.33732 
C 333.243333 262.77474 333.559432 262.011609 333.559432 261.216 
C 333.559432 260.420391 333.243333 259.65726 332.680752 259.09468 
C 332.118171 258.532099 331.355041 258.216 330.559432 258.216 
C 329.763823 258.216 329.000692 258.532099 328.438111 259.09468 
C 327.875531 259.65726 327.559432 260.420391 327.559432 261.216 
C 327.559432 262.011609 327.875531 262.77474 328.438111 263.33732 
C 329.000692 263.899901 329.763823 264.216 330.559432 264.216 
z
" style="fill:#f26b38;stroke:#ffffff;stroke-width:0.48;"/>
    <path clip-path="url(#p5f09ebf686)" d="M 337.323068 264.216 
C 338.118677 264.216 338.881808 263.899901 339.444389 263.33732 
C 340.006969 262.77474 340.323068 262.011609 340.323068 261.216 
C 340.323068 260.420391 340.006969 259.65726 339.444389 259.09468 
C 338.881808 258.532099 338.118677 258.216 337.323068 258.216 
C 336.527459 258.216 335.764329 258.532099 335.201748 259.09468 
C 334.639167 259.65726 334.323068 260.420391 334.323068 261.216 
C 334.323068 262.011609 334.639167 262.77474 335.201748 263.33732 
C 335.764329 263.899901 336.527459 264.216 337.323068 264.216 
z
" style="fill:#f26b38;stroke:#ffffff;stroke-width:0.48;"/>
    <path clip-path="url(#p5f09ebf686)" d="M 344.086705 264.216 
C 344.882314 264.216 345.645444 263.899901 346.208025 263.33732 
C 346.770606 262.77474 347.086705 262.011609 347.086705 261.216 
C 347.086705 260.420391 346.770606 259.65726 346.208025 259.09468 
C 345.645444 258.532099 344.882314 258.216 344.086705 258.216 
C 343.291095 258.216 342.527965 258.532099 341.965384 259.09468 
C 341.402803 259.65726 341.086705 260.420391 341.086705 261.216 
C 341.086705 262.011609 341.402803 262.77474 341.965384 263.33732 
C 342.527965 263.899901 343.291095 264.216 344.086705 264.216 
z
" style="fill:#f26b38;stroke:#ffffff;stroke-width:0.48;"/>
    <path clip-path="url(#p5f09ebf686)" d="M 350.850341 264.216 
C 351.64595 264.216 352.409081 263.899901 352.971661 263.33732 
C 353.534242 262.77474 353.850341 262.011609 353.850341 261.216 
C 353.850341 260.420391 353.534242 259.65726 352.971661 259.09468 
C 352.409081 258.532099 351.64595 258.216 350.850341 258.216 
C 350.054732 258.216 349.291601 258.532099 348.729021 259.09468 
C 348.16644 259.65726 347.850341 260.420391 347.850341 261.216 
C 347.850341 262.011609 348.16644 262.77474 348.729021 263.33732 
C 349.291601 263.899901 350.054732 264.216 350.850341 264.216 
z
" style="fill:#f26b38;stroke:#ffffff;stroke-width:0.48;"/>
    <path clip-path="url(#p5f09ebf686)" d="M 357.613977 264.216 
C 358.409587 264.216 359.172717 263.899901 359.735298 263.33732 
C 360.297878 262.77474 360.613977 262.011609 360.613977 261.216 
C 360.613977 260.420391 360.297878 259.65726 359.735298 259.09468 
C 359.172717 258.532099 358.409587 258.216 357.613977 258.216 
C 356.818368 258.216 356.055238 258.532099 355.492657 259.09468 
C 354.930076 259.65726 354.613977 260.420391 354.613977 261.216 
C 354.613977 262.011609 354.930076 262.77474 355.492657 263.33732 
C 356.055238 263.899901 356.818368 264.216 357.613977 264.216 
z
" style="fill:#f26b38;stroke:#ffffff;stroke-width:0.48;"/>
    <path clip-path="url(#p5f09ebf686)" d="M 364.377614 264.216 
C 365.173223 264.216 365.936353 263.899901 366.498934 263.33732 
C 367.061515 262.77474 367.377614 262.011609 367.377614 261.216 
C 367.377614 260.420391 367.061515 259.65726 366.498934 259.09468 
C 365.936353 258.532099 365.173223 258.216 364.377614 258.216 
C 363.582004 258.216 362.818874 258.532099 362.256293 259.09468 
C 361.693713 259.65726 361.377614 260.420391 361.377614 261.216 
C 361.377614 262.011609 361.693713 262.77474 362.256293 263.33732 
C 362.818874 263.899901 363.582004 264.216 364.377614 264.216 
z
" style="fill:#f26b38;stroke:#ffffff;stroke-width:0.48;"/>
    <path clip-path="url(#p5f09ebf686)" d="M 371.14125 264.216 
C 371.936859 264.216 372.69999 263.899901 373.26257 263.33732 
C 373.825151 262.77474 374.14125 262.011609 374.14125 261.216 
C 374.14125 260.420391 373.825151 259.65726 373.26257 259.09468 
C 372.69999 258.532099 371.936859 258.216 371.14125 258.216 
C 370.345641 258.216 369.58251 258.532099 369.01993 259.09468 
C 368.457349 259.65726 368.14125 260.420391 368.14125 261.216 
C 368.14125 262.011609 368.457349 262.77474 369.01993 263.33732 
C 369.58251 263.899901 370.345641 264.216 371.14125 264.216 
z
" style="fill:#f26b38;stroke:#ffffff;stroke-width:0.48;"/>
    <path clip-path="url(#p5f09ebf686)" d="M 377.904886 264.216 
C 378.700496 264.216 379.463626 263.899901 380.026207 263.33732 
C 380.588787 262.77474 380.904886 262.011609 380.904886 261.216 
C 380.904886 260.420391 380.588787 259.65726 380.026207 259.09468 
C 379.463626 258.532099 378.700496 258.216 377.904886 258.216 
C 377.109277 258.216 376.346147 258.532099 375.783566 259.09468 
C 375.220985 259.65726 374.904886 260.420391 374.904886 261.216 
C 374.904886 262.011609 375.220985 262.77474 375.783566 263.33732 
C 376.346147 263.899901 377.109277 264.216 377.904886 264.216 
z
" style="fill:#f26b38;stroke:#ffffff;stroke-width:0.48;"/>
    <path clip-path="url(#p5f09ebf686)" d="M 384.668523 264.216 
C 385.464132 264.216 386.227262 263.899901 386.789843 263.33732 
C 387.352424 262.77474 387.668523 262.011609 387.668523 261.216 
C 387.668523 260.420391 387.352424 259.65726 386.789843 259.09468 
C 386.227262 258.532099 385.464132 258.216 384.668523 258.216 
C 383.872913 258.216 383.109783 258.532099 382.547202 259.09468 
C 381.984622 259.65726 381.668523 260.420391 381.668523 261.216 
C 381.668523 262.011609 381.984622 262.77474 382.547202 263.33732 
C 383.109783 263.899901 383.872913 264.216 384.668523 264.216 
z
" style="fill:#f26b38;stroke:#ffffff;stroke-width:0.48;"/>
    <path clip-path="url(#p5f09ebf686)" d="M 58.513977 100.317597 
L 60.013977 98.817597 
L 61.513977 100.317597 
L 63.013977 98.817597 
L 61.513977 97.317597 
L 63.013977 95.817597 
L 61.513977 94.317597 
L 60.013977 95.817597 
L 58.513977 94.317597 
L 57.013977 95.817597 
L 58.513977 97.317597 
L 57.013977 98.817597 
z
" style="fill:#2f9599;stroke:#ffffff;stroke-width:0.48;"/>
    <path clip-path="url(#p5f09ebf686)" d="M 65.277614 118.481575 
L 66.777614 116.981575 
L 68.277614 118.481575 
L 69.777614 116.981575 
L 68.277614 115.481575 
L 69.777614 113.981575 
L 68.277614 112.481575 
L 66.777614 113.981575 
L 65.277614 112.481575 
L 63.777614 113.981575 
L 65.277614 115.481575 
L 63.777614 116.981575 
z
" style="fill:#2f9599;stroke:#ffffff;stroke-width:0.48;"/>
    <path clip-path="url(#p5f09ebf686)" d="M 72.04125 143.076609 
L 73.54125 141.576609 
L 75.04125 143.076609 
L 76.54125 141.576609 
L 75.04125 140.076609 
L 76.54125 138.576609 
L 75.04125 137.076609 
L 73.54125 138.576609 
L 72.04125 137.076609 
L 70.54125 138.576609 
L 72.04125 140.076609 
L 70.54125 141.576609 
z
" style="fill:#2f9599;stroke:#ffffff;stroke-width:0.48;"/>
    <path clip-path="url(#p5f09ebf686)" d="M 78.804886 171.129277 
L 80.304886 169.629277 
L 81.804886 171.129277 
L 83.304886 169.629277 
L 81.804886 168.129277 
L 83.304886 166.629277 
L 81.804886 165.129277 
L 80.304886 166.629277 
L 78.804886 165.129277 
L 77.304886 166.629277 
L 78.804886 168.129277 
L 77.304886 169.629277 
z
" style="fill:#2f9599;stroke:#ffffff;stroke-width:0.48;"/>
    <path clip-path="url(#p5f09ebf686)" d="M 85.568523 174.833272 
L 87.068523 173.333272 
L 88.568523 174.833272 
L 90.068523 173.333272 
L 88.568523 171.833272 
L 90.068523 170.333272 
L 88.568523 168.833272 
L 87.068523 170.333272 
L 85.568523 168.833272 
L 84.068523 170.333272 
L 85.568523 171.833272 
L 84.068523 173.333272 
z
" style="fill:#2f9599;stroke:#ffffff;stroke-width:0.48;"/>
    <path clip-path="url(#p5f09ebf686)" d="M 92.332159 193.98929 
L 93.832159 192.48929 
L 95.332159 193.98929 
L 96.832159 192.48929 
L 95.332159 190.98929 
L 96.832159 189.48929 
L 95.332159 187.98929 
L 93.832159 189.48929 
L 92.332159 187.98929 
L 90.832159 189.48929 
L 92.332159 190.98929 
L 90.832159 192.48929 
z
" style="fill:#2f9599;stroke:#ffffff;stroke-width:0.48;"/>
    <path clip-path="url(#p5f09ebf686)" d="M 99.095795 193.98929 
L 100.595795 192.48929 
L 102.095795 193.98929 
L 103.595795 192.48929 
L 102.095795 190.98929 
L 103.595795 189.48929 
L 102.095795 187.98929 
L 100.595795 189.48929 
L 99.095795 187.98929 
L 97.595795 189.48929 
L 99.095795 190.98929 
L 97.595795 192.48929 
z
" style="fill:#2f9599;stroke:#ffffff;stroke-width:0.48;"/>
    <path clip-path="url(#p5f09ebf686)" d="M 105.859432 193.98929 
L 107.359432 192.48929 
L 108.859432 193.98929 
L 110.359432 192.48929 
L 108.859432 190.98929 
L 110.359432 189.48929 
L 108.859432 187.98929 
L 107.359432 189.48929 
L 105.859432 187.98929 
L 104.359432 189.48929 
L 105.859432 190.98929 
L 104.359432 192.48929 
z
" style="fill:#2f9599;stroke:#ffffff;stroke-width:0.48;"/>
    <path clip-path="url(#p5f09ebf686)" d="M 112.623068 193.98929 
L 114.123068 192.48929 
L 115.623068 193.98929 
L 117.123068 192.48929 
L 115.623068 190.98929 
L 117.123068 189.48929 
L 115.623068 187.98929 
L 114.123068 189.48929 
L 112.623068 187.98929 
L 111.123068 189.48929 
L 112.623068 190.98929 
L 111.123068 192.48929 
z
" style="fill:#2f9599;stroke:#ffffff;stroke-width:0.48;"/>
    <path clip-path="url(#p5f09ebf686)" d="M 119.386705 183.407488 
L 120.886705 181.907488 
L 122.386705 183.407488 
L 123.886705 181.907488 
L 122.386705 180.407488 
L 123.886705 178.907488 
L 122.386705 177.407488 
L 120.886705 178.907488 
L 119.386705 177.407488 
L 117.886705 178.907488 
L 119.386705 180.407488 
L 117.886705 181.907488 
z
" style="fill:#2f9599;stroke:#ffffff;stroke-width:0.48;"/>
    <path clip-path="url(#p5f09ebf686)" d="M 126.150341 168.033032 
L 127.650341 166.533032 
L 129.150341 168.033032 
L 130.650341 166.533032 
L 129.150341 165.033032 
L 130.650341 163.533032 
L 129.150341 162.033032 
L 127.650341 163.533032 
L 126.150341 162.033032 
L 124.650341 163.533032 
L 126.150341 165.033032 
L 124.650341 166.533032 
z
" style="fill:#2f9599;stroke:#ffffff;stroke-width:0.48;"/>
    <path clip-path="url(#p5f09ebf686)" d="M 132.913977 214.851029 
L 134.413977 213.351029 
L 135.913977 214.851029 
L 137.413977 213.351029 
L 135.913977 211.851029 
L 137.413977 210.351029 
L 135.913977 208.851029 
L 134.413977 210.351029 
L 132.913977 208.851029 
L 131.413977 210.351029 
L 132.913977 211.851029 
L 131.413977 213.351029 
z
" style="fill:#2f9599;stroke:#ffffff;stroke-width:0.48;"/>
    <path clip-path="url(#p5f09ebf686)" d="M 139.677614 214.851029 
L 141.177614 213.351029 
L 142.677614 214.851029 
L 144.177614 213.351029 
L 142.677614 211.851029 
L 144.177614 210.351029 
L 142.677614 208.851029 
L 141.177614 210.351029 
L 139.677614 208.851029 
L 138.177614 210.351029 
L 139.677614 211.851029 
L 138.177614 213.351029 
z
" style="fill:#2f9599;stroke:#ffffff;stroke-width:0.48;"/>
    <path clip-path="url(#p5f09ebf686)" d="M 146.44125 214.851029 
L 147.94125 213.351029 
L 149.44125 214.851029 
L 150.94125 213.351029 
L 149.44125 211.851029 
L 150.94125 210.351029 
L 149.44125 208.851029 
L 147.94125 210.351029 
L 146.44125 208.851029 
L 144.94125 210.351029 
L 146.44125 211.851029 
L 144.94125 213.351029 
z
" style="fill:#2f9599;stroke:#ffffff;stroke-width:0.48;"/>
    <path clip-path="url(#p5f09ebf686)" d="M 153.204886 214.851029 
L 154.704886 213.351029 
L 156.204886 214.851029 
L 157.704886 213.351029 
L 156.204886 211.851029 
L 157.704886 210.351029 
L 156.204886 208.851029 
L 154.704886 210.351029 
L 153.204886 208.851029 
L 151.704886 210.351029 
L 153.204886 211.851029 
L 151.704886 213.351029 
z
" style="fill:#2f9599;stroke:#ffffff;stroke-width:0.48;"/>
    <path clip-path="url(#p5f09ebf686)" d="M 159.968523 211.053724 
L 161.468523 209.553724 
L 162.968523 211.053724 
L 164.468523 209.553724 
L 162.968523 208.053724 
L 164.468523 206.553724 
L 162.968523 205.053724 
L 161.468523 206.553724 
L 159.968523 205.053724 
L 158.468523 206.553724 
L 159.968523 208.053724 
L 158.468523 209.553724 
z
" style="fill:#2f9599;stroke:#ffffff;stroke-width:0.48;"/>
    <path clip-path="url(#p5f09ebf686)" d="M 166.732159 264.216 
L 168.232159 262.716 
L 169.732159 264.216 
L 171.232159 262.716 
L 169.732159 261.216 
L 171.232159 259.716 
L 169.732159 258.216 
L 168.232159 259.716 
L 166.732159 258.216 
L 165.232159 259.716 
L 166.732159 261.216 
L 165.232159 262.716 
z
" style="fill:#2f9599;stroke:#ffffff;stroke-width:0.48;"/>
    <path clip-path="url(#p5f09ebf686)" d="M 173.495795 264.216 
L 174.995795 262.716 
L 176.495795 264.216 
L 177.995795 262.716 
L 176.495795 261.216 
L 177.995795 259.716 
L 176.495795 258.216 
L 174.995795 259.716 
L 173.495795 258.216 
L 171.995795 259.716 
L 173.495795 261.216 
L 171.995795 262.716 
z
" style="fill:#2f9599;stroke:#ffffff;stroke-width:0.48;"/>
    <path clip-path="url(#p5f09ebf686)" d="M 180.259432 264.216 
L 181.759432 262.716 
L 183.259432 264.216 
L 184.759432 262.716 
L 183.259432 261.216 
L 184.759432 259.716 
L 183.259432 258.216 
L 181.759432 259.716 
L 180.259432 258.216 
L 178.759432 259.716 
L 180.259432 261.216 
L 178.759432 262.716 
z
" style="fill:#2f9599;stroke:#ffffff;stroke-width:0.48;"/>
    <path clip-path="url(#p5f09ebf686)" d="M 187.023068 264.216 
L 188.523068 262.716 
L 190.023068 264.216 
L 191.523068 262.716 
L 190.023068 261.216 
L 191.523068 259.716 
L 190.023068 258.216 
L 188.523068 259.716 
L 187.023068 258.216 
L 185.523068 259.716 
L 187.023068 261.216 
L 185.523068 262.716 
z
" style="fill:#2f9599;stroke:#ffffff;stroke-width:0.48;"/>
    <path clip-path="url(#p5f09ebf686)" d="M 193.786705 264.216 
L 195.286705 262.716 
L 196.786705 264.216 
L 198.286705 262.716 
L 196.786705 261.216 
L 198.286705 259.716 
L 196.786705 258.216 
L 195.286705 259.716 
L 193.786705 258.216 
L 192.286705 259.716 
L 193.786705 261.216 
L 192.286705 262.716 
z
" style="fill:#2f9599;stroke:#ffffff;stroke-width:0.48;"/>
    <path clip-path="url(#p5f09ebf686)" d="M 200.550341 264.216 
L 202.050341 262.716 
L 203.550341 264.216 
L 205.050341 262.716 
L 203.550341 261.216 
L 205.050341 259.716 
L 203.550341 258.216 
L 202.050341 259.716 
L 200.550341 258.216 
L 199.050341 259.716 
L 200.550341 261.216 
L 199.050341 262.716 
z
" style="fill:#2f9599;stroke:#ffffff;stroke-width:0.48;"/>
    <path clip-path="url(#p5f09ebf686)" d="M 207.313977 264.216 
L 208.813977 262.716 
L 210.313977 264.216 
L 211.813977 262.716 
L 210.313977 261.216 
L 211.813977 259.716 
L 210.313977 258.216 
L 208.813977 259.716 
L 207.313977 258.216 
L 205.813977 259.716 
L 207.313977 261.216 
L 205.813977 262.716 
z
" style="fill:#2f9599;stroke:#ffffff;stroke-width:0.48;"/>
    <path clip-path="url(#p5f09ebf686)" d="M 214.077614 264.216 
L 215.577614 262.716 
L 217.077614 264.216 
L 218.577614 262.716 
L 217.077614 261.216 
L 218.577614 259.716 
L 217.077614 258.216 
L 215.577614 259.716 
L 214.077614 258.216 
L 212.577614 259.716 
L 214.077614 261.216 
L 212.577614 262.716 
z
" style="fill:#2f9599;stroke:#ffffff;stroke-width:0.48;"/>
    <path clip-path="url(#p5f09ebf686)" d="M 220.84125 264.216 
L 222.34125 262.716 
L 223.84125 264.216 
L 225.34125 262.716 
L 223.84125 261.216 
L 225.34125 259.716 
L 223.84125 258.216 
L 222.34125 259.716 
L 220.84125 258.216 
L 219.34125 259.716 
L 220.84125 261.216 
L 219.34125 262.716 
z
" style="fill:#2f9599;stroke:#ffffff;stroke-width:0.48;"/>
    <path clip-path="url(#p5f09ebf686)" d="M 227.604886 264.216 
L 229.104886 262.716 
L 230.604886 264.216 
L 232.104886 262.716 
L 230.604886 261.216 
L 232.104886 259.716 
L 230.604886 258.216 
L 229.104886 259.716 
L 227.604886 258.216 
L 226.104886 259.716 
L 227.604886 261.216 
L 226.104886 262.716 
z
" style="fill:#2f9599;stroke:#ffffff;stroke-width:0.48;"/>
    <path clip-path="url(#p5f09ebf686)" d="M 234.368523 264.216 
L 235.868523 262.716 
L 237.368523 264.216 
L 238.868523 262.716 
L 237.368523 261.216 
L 238.868523 259.716 
L 237.368523 258.216 
L 235.868523 259.716 
L 234.368523 258.216 
L 232.868523 259.716 
L 234.368523 261.216 
L 232.868523 262.716 
z
" style="fill:#2f9599;stroke:#ffffff;stroke-width:0.48;"/>
    <path clip-path="url(#p5f09ebf686)" d="M 241.132159 264.216 
L 242.632159 262.716 
L 244.132159 264.216 
L 245.632159 262.716 
L 244.132159 261.216 
L 245.632159 259.716 
L 244.132159 258.216 
L 242.632159 259.716 
L 241.132159 258.216 
L 239.632159 259.716 
L 241.132159 261.216 
L 239.632159 262.716 
z
" style="fill:#2f9599;stroke:#ffffff;stroke-width:0.48;"/>
    <path clip-path="url(#p5f09ebf686)" d="M 247.895795 264.216 
L 249.395795 262.716 
L 250.895795 264.216 
L 252.395795 262.716 
L 250.895795 261.216 
L 252.395795 259.716 
L 250.895795 258.216 
L 249.395795 259.716 
L 247.895795 258.216 
L 246.395795 259.716 
L 247.895795 261.216 
L 246.395795 262.716 
z
" style="fill:#2f9599;stroke:#ffffff;stroke-width:0.48;"/>
    <path clip-path="url(#p5f09ebf686)" d="M 254.659432 264.216 
L 256.159432 262.716 
L 257.659432 264.216 
L 259.159432 262.716 
L 257.659432 261.216 
L 259.159432 259.716 
L 257.659432 258.216 
L 256.159432 259.716 
L 254.659432 258.216 
L 253.159432 259.716 
L 254.659432 261.216 
L 253.159432 262.716 
z
" style="fill:#2f9599;stroke:#ffffff;stroke-width:0.48;"/>
    <path clip-path="url(#p5f09ebf686)" d="M 261.423068 264.216 
L 262.923068 262.716 
L 264.423068 264.216 
L 265.923068 262.716 
L 264.423068 261.216 
L 265.923068 259.716 
L 264.423068 258.216 
L 262.923068 259.716 
L 261.423068 258.216 
L 259.923068 259.716 
L 261.423068 261.216 
L 259.923068 262.716 
z
" style="fill:#2f9599;stroke:#ffffff;stroke-width:0.48;"/>
    <path clip-path="url(#p5f09ebf686)" d="M 268.186705 264.216 
L 269.686705 262.716 
L 271.186705 264.216 
L 272.686705 262.716 
L 271.186705 261.216 
L 272.686705 259.716 
L 271.186705 258.216 
L 269.686705 259.716 
L 268.186705 258.216 
L 266.686705 259.716 
L 268.186705 261.216 
L 266.686705 262.716 
z
" style="fill:#2f9599;stroke:#ffffff;stroke-width:0.48;"/>
    <path clip-path="url(#p5f09ebf686)" d="M 274.950341 264.216 
L 276.450341 262.716 
L 277.950341 264.216 
L 279.450341 262.716 
L 277.950341 261.216 
L 279.450341 259.716 
L 277.950341 258.216 
L 276.450341 259.716 
L 274.950341 258.216 
L 273.450341 259.716 
L 274.950341 261.216 
L 273.450341 262.716 
z
" style="fill:#2f9599;stroke:#ffffff;stroke-width:0.48;"/>
    <path clip-path="url(#p5f09ebf686)" d="M 281.713977 264.216 
L 283.213977 262.716 
L 284.713977 264.216 
L 286.213977 262.716 
L 284.713977 261.216 
L 286.213977 259.716 
L 284.713977 258.216 
L 283.213977 259.716 
L 281.713977 258.216 
L 280.213977 259.716 
L 281.713977 261.216 
L 280.213977 262.716 
z
" style="fill:#2f9599;stroke:#ffffff;stroke-width:0.48;"/>
    <path clip-path="url(#p5f09ebf686)" d="M 288.477614 264.216 
L 289.977614 262.716 
L 291.477614 264.216 
L 292.977614 262.716 
L 291.477614 261.216 
L 292.977614 259.716 
L 291.477614 258.216 
L 289.977614 259.716 
L 288.477614 258.216 
L 286.977614 259.716 
L 288.477614 261.216 
L 286.977614 262.716 
z
" style="fill:#2f9599;stroke:#ffffff;stroke-width:0.48;"/>
    <path clip-path="url(#p5f09ebf686)" d="M 295.24125 264.216 
L 296.74125 262.716 
L 298.24125 264.216 
L 299.74125 262.716 
L 298.24125 261.216 
L 299.74125 259.716 
L 298.24125 258.216 
L 296.74125 259.716 
L 295.24125 258.216 
L 293.74125 259.716 
L 295.24125 261.216 
L 293.74125 262.716 
z
" style="fill:#2f9599;stroke:#ffffff;stroke-width:0.48;"/>
    <path clip-path="url(#p5f09ebf686)" d="M 302.004886 264.216 
L 303.504886 262.716 
L 305.004886 264.216 
L 306.504886 262.716 
L 305.004886 261.216 
L 306.504886 259.716 
L 305.004886 258.216 
L 303.504886 259.716 
L 302.004886 258.216 
L 300.504886 259.716 
L 302.004886 261.216 
L 300.504886 262.716 
z
" style="fill:#2f9599;stroke:#ffffff;stroke-width:0.48;"/>
    <path clip-path="url(#p5f09ebf686)" d="M 308.768523 264.216 
L 310.268523 262.716 
L 311.768523 264.216 
L 313.268523 262.716 
L 311.768523 261.216 
L 313.268523 259.716 
L 311.768523 258.216 
L 310.268523 259.716 
L 308.768523 258.216 
L 307.268523 259.716 
L 308.768523 261.216 
L 307.268523 262.716 
z
" style="fill:#2f9599;stroke:#ffffff;stroke-width:0.48;"/>
    <path clip-path="url(#p5f09ebf686)" d="M 315.532159 264.216 
L 317.032159 262.716 
L 318.532159 264.216 
L 320.032159 262.716 
L 318.532159 261.216 
L 320.032159 259.716 
L 318.532159 258.216 
L 317.032159 259.716 
L 315.532159 258.216 
L 314.032159 259.716 
L 315.532159 261.216 
L 314.032159 262.716 
z
" style="fill:#2f9599;stroke:#ffffff;stroke-width:0.48;"/>
    <path clip-path="url(#p5f09ebf686)" d="M 322.295795 264.216 
L 323.795795 262.716 
L 325.295795 264.216 
L 326.795795 262.716 
L 325.295795 261.216 
L 326.795795 259.716 
L 325.295795 258.216 
L 323.795795 259.716 
L 322.295795 258.216 
L 320.795795 259.716 
L 322.295795 261.216 
L 320.795795 262.716 
z
" style="fill:#2f9599;stroke:#ffffff;stroke-width:0.48;"/>
    <path clip-path="url(#p5f09ebf686)" d="M 329.059432 264.216 
L 330.559432 262.716 
L 332.059432 264.216 
L 333.559432 262.716 
L 332.059432 261.216 
L 333.559432 259.716 
L 332.059432 258.216 
L 330.559432 259.716 
L 329.059432 258.216 
L 327.559432 259.716 
L 329.059432 261.216 
L 327.559432 262.716 
z
" style="fill:#2f9599;stroke:#ffffff;stroke-width:0.48;"/>
    <path clip-path="url(#p5f09ebf686)" d="M 335.823068 264.216 
L 337.323068 262.716 
L 338.823068 264.216 
L 340.323068 262.716 
L 338.823068 261.216 
L 340.323068 259.716 
L 338.823068 258.216 
L 337.323068 259.716 
L 335.823068 258.216 
L 334.323068 259.716 
L 335.823068 261.216 
L 334.323068 262.716 
z
" style="fill:#2f9599;stroke:#ffffff;stroke-width:0.48;"/>
    <path clip-path="url(#p5f09ebf686)" d="M 342.586705 264.216 
L 344.086705 262.716 
L 345.586705 264.216 
L 347.086705 262.716 
L 345.586705 261.216 
L 347.086705 259.716 
L 345.586705 258.216 
L 344.086705 259.716 
L 342.586705 258.216 
L 341.086705 259.716 
L 342.586705 261.216 
L 341.086705 262.716 
z
" style="fill:#2f9599;stroke:#ffffff;stroke-width:0.48;"/>
    <path clip-path="url(#p5f09ebf686)" d="M 349.350341 264.216 
L 350.850341 262.716 
L 352.350341 264.216 
L 353.850341 262.716 
L 352.350341 261.216 
L 353.850341 259.716 
L 352.350341 258.216 
L 350.850341 259.716 
L 349.350341 258.216 
L 347.850341 259.716 
L 349.350341 261.216 
L 347.850341 262.716 
z
" style="fill:#2f9599;stroke:#ffffff;stroke-width:0.48;"/>
    <path clip-path="url(#p5f09ebf686)" d="M 356.113977 264.216 
L 357.613977 262.716 
L 359.113977 264.216 
L 360.613977 262.716 
L 359.113977 261.216 
L 360.613977 259.716 
L 359.113977 258.216 
L 357.613977 259.716 
L 356.113977 258.216 
L 354.613977 259.716 
L 356.113977 261.216 
L 354.613977 262.716 
z
" style="fill:#2f9599;stroke:#ffffff;stroke-width:0.48;"/>
    <path clip-path="url(#p5f09ebf686)" d="M 362.877614 264.216 
L 364.377614 262.716 
L 365.877614 264.216 
L 367.377614 262.716 
L 365.877614 261.216 
L 367.377614 259.716 
L 365.877614 258.216 
L 364.377614 259.716 
L 362.877614 258.216 
L 361.377614 259.716 
L 362.877614 261.216 
L 361.377614 262.716 
z
" style="fill:#2f9599;stroke:#ffffff;stroke-width:0.48;"/>
    <path clip-path="url(#p5f09ebf686)" d="M 369.64125 264.216 
L 371.14125 262.716 
L 372.64125 264.216 
L 374.14125 262.716 
L 372.64125 261.216 
L 374.14125 259.716 
L 372.64125 258.216 
L 371.14125 259.716 
L 369.64125 258.216 
L 368.14125 259.716 
L 369.64125 261.216 
L 368.14125 262.716 
z
" style="fill:#2f9599;stroke:#ffffff;stroke-width:0.48;"/>
    <path clip-path="url(#p5f09ebf686)" d="M 376.404886 264.216 
L 377.904886 262.716 
L 379.404886 264.216 
L 380.904886 262.716 
L 379.404886 261.216 
L 380.904886 259.716 
L 379.404886 258.216 
L 377.904886 259.716 
L 376.404886 258.216 
L 374.904886 259.716 
L 376.404886 261.216 
L 374.904886 262.716 
z
" style="fill:#2f9599;stroke:#ffffff;stroke-width:0.48;"/>
    <path clip-path="url(#p5f09ebf686)" d="M 383.168523 264.216 
L 384.668523 262.716 
L 386.168523 264.216 
L 387.668523 262.716 
L 386.168523 261.216 
L 387.668523 259.716 
L 386.168523 258.216 
L 384.668523 259.716 
L 383.168523 258.216 
L 381.668523 259.716 
L 383.168523 261.216 
L 381.668523 262.716 
z
" style="fill:#2f9599;stroke:#ffffff;stroke-width:0.48;"/>
    <path clip-path="url(#p5f09ebf686)" d="M 57.892657 22.266815 
L 57.892657 26.509455 
L 62.135298 26.509455 
L 62.135298 22.266815 
z
" style="fill:#a7226e;stroke:#ffffff;stroke-width:0.48;"/>
    <path clip-path="url(#p5f09ebf686)" d="M 64.656293 22.266815 
L 64.656293 26.509455 
L 68.898934 26.509455 
L 68.898934 22.266815 
z
" style="fill:#a7226e;stroke:#ffffff;stroke-width:0.48;"/>
    <path clip-path="url(#p5f09ebf686)" d="M 71.41993 22.266815 
L 71.41993 26.509455 
L 75.66257 26.509455 
L 75.66257 22.266815 
z
" style="fill:#a7226e;stroke:#ffffff;stroke-width:0.48;"/>
    <path clip-path="url(#p5f09ebf686)" d="M 78.183566 22.266815 
L 78.183566 26.509455 
L 82.426207 26.509455 
L 82.426207 22.266815 
z
" style="fill:#a7226e;stroke:#ffffff;stroke-width:0.48;"/>
    <path clip-path="url(#p5f09ebf686)" d="M 84.947202 28.698985 
L 84.947202 32.941626 
L 89.189843 32.941626 
L 89.189843 28.698985 
z
" style="fill:#a7226e;stroke:#ffffff;stroke-width:0.48;"/>
    <path clip-path="url(#p5f09ebf686)" d="M 91.710839 35.131155 
L 91.710839 39.373796 
L 95.953479 39.373796 
L 95.953479 35.131155 
z
" style="fill:#a7226e;stroke:#ffffff;stroke-width:0.48;"/>
    <path clip-path="url(#p5f09ebf686)" d="M 98.474475 35.131155 
L 98.474475 39.373796 
L 102.717116 39.373796 
L 102.717116 35.131155 
z
" style="fill:#a7226e;stroke:#ffffff;stroke-width:0.48;"/>
    <path clip-path="url(#p5f09ebf686)" d="M 105.238111 46.065845 
L 105.238111 50.308486 
L 109.480752 50.308486 
L 109.480752 46.065845 
z
" style="fill:#a7226e;stroke:#ffffff;stroke-width:0.48;"/>
    <path clip-path="url(#p5f09ebf686)" d="M 112.001748 44.211867 
L 112.001748 48.454507 
L 116.244389 48.454507 
L 116.244389 44.211867 
z
" style="fill:#a7226e;stroke:#ffffff;stroke-width:0.48;"/>
    <path clip-path="url(#p5f09ebf686)" d="M 118.765384 42.429195 
L 118.765384 46.671836 
L 123.008025 46.671836 
L 123.008025 42.429195 
z
" style="fill:#a7226e;stroke:#ffffff;stroke-width:0.48;"/>
    <path clip-path="url(#p5f09ebf686)" d="M 125.529021 42.429195 
L 125.529021 46.671836 
L 129.771661 46.671836 
L 129.771661 42.429195 
z
" style="fill:#a7226e;stroke:#ffffff;stroke-width:0.48;"/>
    <path clip-path="url(#p5f09ebf686)" d="M 132.292657 52.607241 
L 132.292657 56.849882 
L 136.535298 56.849882 
L 136.535298 52.607241 
z
" style="fill:#a7226e;stroke:#ffffff;stroke-width:0.48;"/>
    <path clip-path="url(#p5f09ebf686)" d="M 139.056293 64.075922 
L 139.056293 68.318563 
L 143.298934 68.318563 
L 143.298934 64.075922 
z
" style="fill:#a7226e;stroke:#ffffff;stroke-width:0.48;"/>
    <path clip-path="url(#p5f09ebf686)" d="M 145.81993 74.378297 
L 145.81993 78.620938 
L 150.06257 78.620938 
L 150.06257 74.378297 
z
" style="fill:#a7226e;stroke:#ffffff;stroke-width:0.48;"/>
    <path clip-path="url(#p5f09ebf686)" d="M 152.583566 95.196276 
L 152.583566 99.438917 
L 156.826207 99.438917 
L 156.826207 95.196276 
z
" style="fill:#a7226e;stroke:#ffffff;stroke-width:0.48;"/>
    <path clip-path="url(#p5f09ebf686)" d="M 159.347202 104.598596 
L 159.347202 108.841237 
L 163.589843 108.841237 
L 163.589843 104.598596 
z
" style="fill:#a7226e;stroke:#ffffff;stroke-width:0.48;"/>
    <path clip-path="url(#p5f09ebf686)" d="M 166.110839 104.598596 
L 166.110839 108.841237 
L 170.353479 108.841237 
L 170.353479 104.598596 
z
" style="fill:#a7226e;stroke:#ffffff;stroke-width:0.48;"/>
    <path clip-path="url(#p5f09ebf686)" d="M 172.874475 117.619395 
L 172.874475 121.862036 
L 177.117116 121.862036 
L 177.117116 117.619395 
z
" style="fill:#a7226e;stroke:#ffffff;stroke-width:0.48;"/>
    <path clip-path="url(#p5f09ebf686)" d="M 179.638111 117.619395 
L 179.638111 121.862036 
L 183.880752 121.862036 
L 183.880752 117.619395 
z
" style="fill:#a7226e;stroke:#ffffff;stroke-width:0.48;"/>
    <path clip-path="url(#p5f09ebf686)" d="M 186.401748 109.101115 
L 186.401748 113.343756 
L 190.644389 113.343756 
L 190.644389 109.101115 
z
" style="fill:#a7226e;stroke:#ffffff;stroke-width:0.48;"/>
    <path clip-path="url(#p5f09ebf686)" d="M 193.165384 113.478565 
L 193.165384 117.721205 
L 197.408025 117.721205 
L 197.408025 113.478565 
z
" style="fill:#a7226e;stroke:#ffffff;stroke-width:0.48;"/>
    <path clip-path="url(#p5f09ebf686)" d="M 199.929021 111.320667 
L 199.929021 115.563308 
L 204.171661 115.563308 
L 204.171661 111.320667 
z
" style="fill:#a7226e;stroke:#ffffff;stroke-width:0.48;"/>
    <path clip-path="url(#p5f09ebf686)" d="M 206.692657 109.101115 
L 206.692657 113.343756 
L 210.935298 113.343756 
L 210.935298 109.101115 
z
" style="fill:#a7226e;stroke:#ffffff;stroke-width:0.48;"/>
    <path clip-path="url(#p5f09ebf686)" d="M 213.456293 156.377568 
L 213.456293 160.620209 
L 217.698934 160.620209 
L 217.698934 156.377568 
z
" style="fill:#a7226e;stroke:#ffffff;stroke-width:0.48;"/>
    <path clip-path="url(#p5f09ebf686)" d="M 220.21993 140.61875 
L 220.21993 144.861391 
L 224.46257 144.861391 
L 224.46257 140.61875 
z
" style="fill:#a7226e;stroke:#ffffff;stroke-width:0.48;"/>
    <path clip-path="url(#p5f09ebf686)" d="M 226.983566 143.693642 
L 226.983566 147.936282 
L 231.226207 147.936282 
L 231.226207 143.693642 
z
" style="fill:#a7226e;stroke:#ffffff;stroke-width:0.48;"/>
    <path clip-path="url(#p5f09ebf686)" d="M 233.747202 132.162799 
L 233.747202 136.40544 
L 237.989843 136.40544 
L 237.989843 132.162799 
z
" style="fill:#a7226e;stroke:#ffffff;stroke-width:0.48;"/>
    <path clip-path="url(#p5f09ebf686)" d="M 240.510839 160.364739 
L 240.510839 164.607379 
L 244.753479 164.607379 
L 244.753479 160.364739 
z
" style="fill:#a7226e;stroke:#ffffff;stroke-width:0.48;"/>
    <path clip-path="url(#p5f09ebf686)" d="M 247.274475 133.783601 
L 247.274475 138.026241 
L 251.517116 138.026241 
L 251.517116 133.783601 
z
" style="fill:#a7226e;stroke:#ffffff;stroke-width:0.48;"/>
    <path clip-path="url(#p5f09ebf686)" d="M 254.038111 148.972822 
L 254.038111 153.215463 
L 258.280752 153.215463 
L 258.280752 148.972822 
z
" style="fill:#a7226e;stroke:#ffffff;stroke-width:0.48;"/>
    <path clip-path="url(#p5f09ebf686)" d="M 260.801748 148.972822 
L 260.801748 153.215463 
L 265.044389 153.215463 
L 265.044389 148.972822 
z
" style="fill:#a7226e;stroke:#ffffff;stroke-width:0.48;"/>
    <path clip-path="url(#p5f09ebf686)" d="M 267.565384 148.972822 
L 267.565384 153.215463 
L 271.808025 153.215463 
L 271.808025 148.972822 
z
" style="fill:#a7226e;stroke:#ffffff;stroke-width:0.48;"/>
    <path clip-path="url(#p5f09ebf686)" d="M 274.329021 145.175517 
L 274.329021 149.418157 
L 278.571661 149.418157 
L 278.571661 145.175517 
z
" style="fill:#a7226e;stroke:#ffffff;stroke-width:0.48;"/>
    <path clip-path="url(#p5f09ebf686)" d="M 281.092657 259.09468 
L 281.092657 263.33732 
L 285.335298 263.33732 
L 285.335298 259.09468 
z
" style="fill:#a7226e;stroke:#ffffff;stroke-width:0.48;"/>
    <path clip-path="url(#p5f09ebf686)" d="M 287.856293 259.09468 
L 287.856293 263.33732 
L 292.098934 263.33732 
L 292.098934 259.09468 
z
" style="fill:#a7226e;stroke:#ffffff;stroke-width:0.48;"/>
    <path clip-path="url(#p5f09ebf686)" d="M 294.61993 259.09468 
L 294.61993 263.33732 
L 298.86257 263.33732 
L 298.86257 259.09468 
z
" style="fill:#a7226e;stroke:#ffffff;stroke-width:0.48;"/>
    <path clip-path="url(#p5f09ebf686)" d="M 301.383566 259.09468 
L 301.383566 263.33732 
L 305.626207 263.33732 
L 305.626207 259.09468 
z
" style="fill:#a7226e;stroke:#ffffff;stroke-width:0.48;"/>
    <path clip-path="url(#p5f09ebf686)" d="M 308.147202 259.09468 
L 308.147202 263.33732 
L 312.389843 263.33732 
L 312.389843 259.09468 
z
" style="fill:#a7226e;stroke:#ffffff;stroke-width:0.48;"/>
    <path clip-path="url(#p5f09ebf686)" d="M 314.910839 259.09468 
L 314.910839 263.33732 
L 319.153479 263.33732 
L 319.153479 259.09468 
z
" style="fill:#a7226e;stroke:#ffffff;stroke-width:0.48;"/>
    <path clip-path="url(#p5f09ebf686)" d="M 321.674475 259.09468 
L 321.674475 263.33732 
L 325.917116 263.33732 
L 325.917116 259.09468 
z
" style="fill:#a7226e;stroke:#ffffff;stroke-width:0.48;"/>
    <path clip-path="url(#p5f09ebf686)" d="M 328.438111 259.09468 
L 328.438111 263.33732 
L 332.680752 263.33732 
L 332.680752 259.09468 
z
" style="fill:#a7226e;stroke:#ffffff;stroke-width:0.48;"/>
    <path clip-path="url(#p5f09ebf686)" d="M 335.201748 259.09468 
L 335.201748 263.33732 
L 339.444389 263.33732 
L 339.444389 259.09468 
z
" style="fill:#a7226e;stroke:#ffffff;stroke-width:0.48;"/>
    <path clip-path="url(#p5f09ebf686)" d="M 341.965384 259.09468 
L 341.965384 263.33732 
L 346.208025 263.33732 
L 346.208025 259.09468 
z
" style="fill:#a7226e;stroke:#ffffff;stroke-width:0.48;"/>
    <path clip-path="url(#p5f09ebf686)" d="M 348.729021 259.09468 
L 348.729021 263.33732 
L 352.971661 263.33732 
L 352.971661 259.09468 
z
" style="fill:#a7226e;stroke:#ffffff;stroke-width:0.48;"/>
    <path clip-path="url(#p5f09ebf686)" d="M 355.492657 259.09468 
L 355.492657 263.33732 
L 359.735298 263.33732 
L 359.735298 259.09468 
z
" style="fill:#a7226e;stroke:#ffffff;stroke-width:0.48;"/>
    <path clip-path="url(#p5f09ebf686)" d="M 362.256293 259.09468 
L 362.256293 263.33732 
L 366.498934 263.33732 
L 366.498934 259.09468 
z
" style="fill:#a7226e;stroke:#ffffff;stroke-width:0.48;"/>
    <path clip-path="url(#p5f09ebf686)" d="M 369.01993 259.09468 
L 369.01993 263.33732 
L 373.26257 263.33732 
L 373.26257 259.09468 
z
" style="fill:#a7226e;stroke:#ffffff;stroke-width:0.48;"/>
    <path clip-path="url(#p5f09ebf686)" d="M 375.783566 259.09468 
L 375.783566 263.33732 
L 380.026207 263.33732 
L 380.026207 259.09468 
z
" style="fill:#a7226e;stroke:#ffffff;stroke-width:0.48;"/>
    <path clip-path="url(#p5f09ebf686)" d="M 382.547202 259.09468 
L 382.547202 263.33732 
L 386.789843 263.33732 
L 386.789843 259.09468 
z
" style="fill:#a7226e;stroke:#ffffff;stroke-width:0.48;"/>
   </g>
   <g id="PathCollection_2"/>
   <g id="PathCollection_3"/>
   <g id="PathCollection_4"/>
   <g id="matplotlib.axis_1">
    <g id="xtick_1">
     <g id="line2d_1">
      <defs>
       <path d="M 0 0 
L 0 3.5 
" id="m00ff3844a9" style="stroke:#000000;stroke-width:0.8;"/>
      </defs>
      <g>
       <use style="stroke:#000000;stroke-width:0.8;" x="53.250341" xlink:href="#m00ff3844a9" y="273.312"/>
      </g>
     </g>
     <g id="text_1">
      <!-- 0.0 -->
      <g transform="translate(45.298778 287.910437)scale(0.1 -0.1)">
       <defs>
        <path d="M 31.78125 66.40625 
Q 24.171875 66.40625 20.328125 58.90625 
Q 16.5 51.421875 16.5 36.375 
Q 16.5 21.390625 20.328125 13.890625 
Q 24.171875 6.390625 31.78125 6.390625 
Q 39.453125 6.390625 43.28125 13.890625 
Q 47.125 21.390625 47.125 36.375 
Q 47.125 51.421875 43.28125 58.90625 
Q 39.453125 66.40625 31.78125 66.40625 
z
M 31.78125 74.21875 
Q 44.046875 74.21875 50.515625 64.515625 
Q 56.984375 54.828125 56.984375 36.375 
Q 56.984375 17.96875 50.515625 8.265625 
Q 44.046875 -1.421875 31.78125 -1.421875 
Q 19.53125 -1.421875 13.0625 8.265625 
Q 6.59375 17.96875 6.59375 36.375 
Q 6.59375 54.828125 13.0625 64.515625 
Q 19.53125 74.21875 31.78125 74.21875 
z
" id="DejaVuSans-48"/>
        <path d="M 10.6875 12.40625 
L 21 12.40625 
L 21 0 
L 10.6875 0 
z
" id="DejaVuSans-46"/>
       </defs>
       <use xlink:href="#DejaVuSans-48"/>
       <use x="63.623047" xlink:href="#DejaVuSans-46"/>
       <use x="95.410156" xlink:href="#DejaVuSans-48"/>
      </g>
     </g>
    </g>
    <g id="xtick_2">
     <g id="line2d_2">
      <g>
       <use style="stroke:#000000;stroke-width:0.8;" x="120.886705" xlink:href="#m00ff3844a9" y="273.312"/>
      </g>
     </g>
     <g id="text_2">
      <!-- 0.2 -->
      <g transform="translate(112.935142 287.910437)scale(0.1 -0.1)">
       <defs>
        <path d="M 19.1875 8.296875 
L 53.609375 8.296875 
L 53.609375 0 
L 7.328125 0 
L 7.328125 8.296875 
Q 12.9375 14.109375 22.625 23.890625 
Q 32.328125 33.6875 34.8125 36.53125 
Q 39.546875 41.84375 41.421875 45.53125 
Q 43.3125 49.21875 43.3125 52.78125 
Q 43.3125 58.59375 39.234375 62.25 
Q 35.15625 65.921875 28.609375 65.921875 
Q 23.96875 65.921875 18.8125 64.3125 
Q 13.671875 62.703125 7.8125 59.421875 
L 7.8125 69.390625 
Q 13.765625 71.78125 18.9375 73 
Q 24.125 74.21875 28.421875 74.21875 
Q 39.75 74.21875 46.484375 68.546875 
Q 53.21875 62.890625 53.21875 53.421875 
Q 53.21875 48.921875 51.53125 44.890625 
Q 49.859375 40.875 45.40625 35.40625 
Q 44.1875 33.984375 37.640625 27.21875 
Q 31.109375 20.453125 19.1875 8.296875 
z
" id="DejaVuSans-50"/>
       </defs>
       <use xlink:href="#DejaVuSans-48"/>
       <use x="63.623047" xlink:href="#DejaVuSans-46"/>
       <use x="95.410156" xlink:href="#DejaVuSans-50"/>
      </g>
     </g>
    </g>
    <g id="xtick_3">
     <g id="line2d_3">
      <g>
       <use style="stroke:#000000;stroke-width:0.8;" x="188.523068" xlink:href="#m00ff3844a9" y="273.312"/>
      </g>
     </g>
     <g id="text_3">
      <!-- 0.4 -->
      <g transform="translate(180.571506 287.910437)scale(0.1 -0.1)">
       <defs>
        <path d="M 37.796875 64.3125 
L 12.890625 25.390625 
L 37.796875 25.390625 
z
M 35.203125 72.90625 
L 47.609375 72.90625 
L 47.609375 25.390625 
L 58.015625 25.390625 
L 58.015625 17.1875 
L 47.609375 17.1875 
L 47.609375 0 
L 37.796875 0 
L 37.796875 17.1875 
L 4.890625 17.1875 
L 4.890625 26.703125 
z
" id="DejaVuSans-52"/>
       </defs>
       <use xlink:href="#DejaVuSans-48"/>
       <use x="63.623047" xlink:href="#DejaVuSans-46"/>
       <use x="95.410156" xlink:href="#DejaVuSans-52"/>
      </g>
     </g>
    </g>
    <g id="xtick_4">
     <g id="line2d_4">
      <g>
       <use style="stroke:#000000;stroke-width:0.8;" x="256.159432" xlink:href="#m00ff3844a9" y="273.312"/>
      </g>
     </g>
     <g id="text_4">
      <!-- 0.6 -->
      <g transform="translate(248.207869 287.910437)scale(0.1 -0.1)">
       <defs>
        <path d="M 33.015625 40.375 
Q 26.375 40.375 22.484375 35.828125 
Q 18.609375 31.296875 18.609375 23.390625 
Q 18.609375 15.53125 22.484375 10.953125 
Q 26.375 6.390625 33.015625 6.390625 
Q 39.65625 6.390625 43.53125 10.953125 
Q 47.40625 15.53125 47.40625 23.390625 
Q 47.40625 31.296875 43.53125 35.828125 
Q 39.65625 40.375 33.015625 40.375 
z
M 52.59375 71.296875 
L 52.59375 62.3125 
Q 48.875 64.0625 45.09375 64.984375 
Q 41.3125 65.921875 37.59375 65.921875 
Q 27.828125 65.921875 22.671875 59.328125 
Q 17.53125 52.734375 16.796875 39.40625 
Q 19.671875 43.65625 24.015625 45.921875 
Q 28.375 48.1875 33.59375 48.1875 
Q 44.578125 48.1875 50.953125 41.515625 
Q 57.328125 34.859375 57.328125 23.390625 
Q 57.328125 12.15625 50.6875 5.359375 
Q 44.046875 -1.421875 33.015625 -1.421875 
Q 20.359375 -1.421875 13.671875 8.265625 
Q 6.984375 17.96875 6.984375 36.375 
Q 6.984375 53.65625 15.1875 63.9375 
Q 23.390625 74.21875 37.203125 74.21875 
Q 40.921875 74.21875 44.703125 73.484375 
Q 48.484375 72.75 52.59375 71.296875 
z
" id="DejaVuSans-54"/>
       </defs>
       <use xlink:href="#DejaVuSans-48"/>
       <use x="63.623047" xlink:href="#DejaVuSans-46"/>
       <use x="95.410156" xlink:href="#DejaVuSans-54"/>
      </g>
     </g>
    </g>
    <g id="xtick_5">
     <g id="line2d_5">
      <g>
       <use style="stroke:#000000;stroke-width:0.8;" x="323.795795" xlink:href="#m00ff3844a9" y="273.312"/>
      </g>
     </g>
     <g id="text_5">
      <!-- 0.8 -->
      <g transform="translate(315.844233 287.910437)scale(0.1 -0.1)">
       <defs>
        <path d="M 31.78125 34.625 
Q 24.75 34.625 20.71875 30.859375 
Q 16.703125 27.09375 16.703125 20.515625 
Q 16.703125 13.921875 20.71875 10.15625 
Q 24.75 6.390625 31.78125 6.390625 
Q 38.8125 6.390625 42.859375 10.171875 
Q 46.921875 13.96875 46.921875 20.515625 
Q 46.921875 27.09375 42.890625 30.859375 
Q 38.875 34.625 31.78125 34.625 
z
M 21.921875 38.8125 
Q 15.578125 40.375 12.03125 44.71875 
Q 8.5 49.078125 8.5 55.328125 
Q 8.5 64.0625 14.71875 69.140625 
Q 20.953125 74.21875 31.78125 74.21875 
Q 42.671875 74.21875 48.875 69.140625 
Q 55.078125 64.0625 55.078125 55.328125 
Q 55.078125 49.078125 51.53125 44.71875 
Q 48 40.375 41.703125 38.8125 
Q 48.828125 37.15625 52.796875 32.3125 
Q 56.78125 27.484375 56.78125 20.515625 
Q 56.78125 9.90625 50.3125 4.234375 
Q 43.84375 -1.421875 31.78125 -1.421875 
Q 19.734375 -1.421875 13.25 4.234375 
Q 6.78125 9.90625 6.78125 20.515625 
Q 6.78125 27.484375 10.78125 32.3125 
Q 14.796875 37.15625 21.921875 38.8125 
z
M 18.3125 54.390625 
Q 18.3125 48.734375 21.84375 45.5625 
Q 25.390625 42.390625 31.78125 42.390625 
Q 38.140625 42.390625 41.71875 45.5625 
Q 45.3125 48.734375 45.3125 54.390625 
Q 45.3125 60.0625 41.71875 63.234375 
Q 38.140625 66.40625 31.78125 66.40625 
Q 25.390625 66.40625 21.84375 63.234375 
Q 18.3125 60.0625 18.3125 54.390625 
z
" id="DejaVuSans-56"/>
       </defs>
       <use xlink:href="#DejaVuSans-48"/>
       <use x="63.623047" xlink:href="#DejaVuSans-46"/>
       <use x="95.410156" xlink:href="#DejaVuSans-56"/>
      </g>
     </g>
    </g>
    <g id="xtick_6">
     <g id="line2d_6">
      <g>
       <use style="stroke:#000000;stroke-width:0.8;" x="391.432159" xlink:href="#m00ff3844a9" y="273.312"/>
      </g>
     </g>
     <g id="text_6">
      <!-- 1.0 -->
      <g transform="translate(383.480597 287.910437)scale(0.1 -0.1)">
       <defs>
        <path d="M 12.40625 8.296875 
L 28.515625 8.296875 
L 28.515625 63.921875 
L 10.984375 60.40625 
L 10.984375 69.390625 
L 28.421875 72.90625 
L 38.28125 72.90625 
L 38.28125 8.296875 
L 54.390625 8.296875 
L 54.390625 0 
L 12.40625 0 
z
" id="DejaVuSans-49"/>
       </defs>
       <use xlink:href="#DejaVuSans-49"/>
       <use x="63.623047" xlink:href="#DejaVuSans-46"/>
       <use x="95.410156" xlink:href="#DejaVuSans-48"/>
      </g>
     </g>
    </g>
    <g id="text_7">
     <!-- cutoff -->
     <g transform="translate(207.883438 301.588562)scale(0.1 -0.1)">
      <defs>
       <path d="M 48.78125 52.59375 
L 48.78125 44.1875 
Q 44.96875 46.296875 41.140625 47.34375 
Q 37.3125 48.390625 33.40625 48.390625 
Q 24.65625 48.390625 19.8125 42.84375 
Q 14.984375 37.3125 14.984375 27.296875 
Q 14.984375 17.28125 19.8125 11.734375 
Q 24.65625 6.203125 33.40625 6.203125 
Q 37.3125 6.203125 41.140625 7.25 
Q 44.96875 8.296875 48.78125 10.40625 
L 48.78125 2.09375 
Q 45.015625 0.34375 40.984375 -0.53125 
Q 36.96875 -1.421875 32.421875 -1.421875 
Q 20.0625 -1.421875 12.78125 6.34375 
Q 5.515625 14.109375 5.515625 27.296875 
Q 5.515625 40.671875 12.859375 48.328125 
Q 20.21875 56 33.015625 56 
Q 37.15625 56 41.109375 55.140625 
Q 45.0625 54.296875 48.78125 52.59375 
z
" id="DejaVuSans-99"/>
       <path d="M 8.5 21.578125 
L 8.5 54.6875 
L 17.484375 54.6875 
L 17.484375 21.921875 
Q 17.484375 14.15625 20.5 10.265625 
Q 23.53125 6.390625 29.59375 6.390625 
Q 36.859375 6.390625 41.078125 11.03125 
Q 45.3125 15.671875 45.3125 23.6875 
L 45.3125 54.6875 
L 54.296875 54.6875 
L 54.296875 0 
L 45.3125 0 
L 45.3125 8.40625 
Q 42.046875 3.421875 37.71875 1 
Q 33.40625 -1.421875 27.6875 -1.421875 
Q 18.265625 -1.421875 13.375 4.4375 
Q 8.5 10.296875 8.5 21.578125 
z
M 31.109375 56 
z
" id="DejaVuSans-117"/>
       <path d="M 18.3125 70.21875 
L 18.3125 54.6875 
L 36.8125 54.6875 
L 36.8125 47.703125 
L 18.3125 47.703125 
L 18.3125 18.015625 
Q 18.3125 11.328125 20.140625 9.421875 
Q 21.96875 7.515625 27.59375 7.515625 
L 36.8125 7.515625 
L 36.8125 0 
L 27.59375 0 
Q 17.1875 0 13.234375 3.875 
Q 9.28125 7.765625 9.28125 18.015625 
L 9.28125 47.703125 
L 2.6875 47.703125 
L 2.6875 54.6875 
L 9.28125 54.6875 
L 9.28125 70.21875 
z
" id="DejaVuSans-116"/>
       <path d="M 30.609375 48.390625 
Q 23.390625 48.390625 19.1875 42.75 
Q 14.984375 37.109375 14.984375 27.296875 
Q 14.984375 17.484375 19.15625 11.84375 
Q 23.34375 6.203125 30.609375 6.203125 
Q 37.796875 6.203125 41.984375 11.859375 
Q 46.1875 17.53125 46.1875 27.296875 
Q 46.1875 37.015625 41.984375 42.703125 
Q 37.796875 48.390625 30.609375 48.390625 
z
M 30.609375 56 
Q 42.328125 56 49.015625 48.375 
Q 55.71875 40.765625 55.71875 27.296875 
Q 55.71875 13.875 49.015625 6.21875 
Q 42.328125 -1.421875 30.609375 -1.421875 
Q 18.84375 -1.421875 12.171875 6.21875 
Q 5.515625 13.875 5.515625 27.296875 
Q 5.515625 40.765625 12.171875 48.375 
Q 18.84375 56 30.609375 56 
z
" id="DejaVuSans-111"/>
       <path d="M 37.109375 75.984375 
L 37.109375 68.5 
L 28.515625 68.5 
Q 23.6875 68.5 21.796875 66.546875 
Q 19.921875 64.59375 19.921875 59.515625 
L 19.921875 54.6875 
L 34.71875 54.6875 
L 34.71875 47.703125 
L 19.921875 47.703125 
L 19.921875 0 
L 10.890625 0 
L 10.890625 47.703125 
L 2.296875 47.703125 
L 2.296875 54.6875 
L 10.890625 54.6875 
L 10.890625 58.5 
Q 10.890625 67.625 15.140625 71.796875 
Q 19.390625 75.984375 28.609375 75.984375 
z
" id="DejaVuSans-102"/>
      </defs>
      <use xlink:href="#DejaVuSans-99"/>
      <use x="54.980469" xlink:href="#DejaVuSans-117"/>
      <use x="118.359375" xlink:href="#DejaVuSans-116"/>
      <use x="157.568359" xlink:href="#DejaVuSans-111"/>
      <use x="218.75" xlink:href="#DejaVuSans-102"/>
      <use x="253.955078" xlink:href="#DejaVuSans-102"/>
     </g>
    </g>
   </g>
   <g id="matplotlib.axis_2">
    <g id="ytick_1">
     <g id="line2d_7">
      <defs>
       <path d="M 0 0 
L -3.5 0 
" id="mb949ab586d" style="stroke:#000000;stroke-width:0.8;"/>
      </defs>
      <g>
       <use style="stroke:#000000;stroke-width:0.8;" x="43.78125" xlink:href="#mb949ab586d" y="268.810611"/>
      </g>
     </g>
     <g id="text_8">
      <!-- 0.0 -->
      <g transform="translate(20.878125 272.60983)scale(0.1 -0.1)">
       <use xlink:href="#DejaVuSans-48"/>
       <use x="63.623047" xlink:href="#DejaVuSans-46"/>
       <use x="95.410156" xlink:href="#DejaVuSans-48"/>
      </g>
     </g>
    </g>
    <g id="ytick_2">
     <g id="line2d_8">
      <g>
       <use style="stroke:#000000;stroke-width:0.8;" x="43.78125" xlink:href="#mb949ab586d" y="237.292976"/>
      </g>
     </g>
     <g id="text_9">
      <!-- 0.1 -->
      <g transform="translate(20.878125 241.092195)scale(0.1 -0.1)">
       <use xlink:href="#DejaVuSans-48"/>
       <use x="63.623047" xlink:href="#DejaVuSans-46"/>
       <use x="95.410156" xlink:href="#DejaVuSans-49"/>
      </g>
     </g>
    </g>
    <g id="ytick_3">
     <g id="line2d_9">
      <g>
       <use style="stroke:#000000;stroke-width:0.8;" x="43.78125" xlink:href="#mb949ab586d" y="205.775341"/>
      </g>
     </g>
     <g id="text_10">
      <!-- 0.2 -->
      <g transform="translate(20.878125 209.574559)scale(0.1 -0.1)">
       <use xlink:href="#DejaVuSans-48"/>
       <use x="63.623047" xlink:href="#DejaVuSans-46"/>
       <use x="95.410156" xlink:href="#DejaVuSans-50"/>
      </g>
     </g>
    </g>
    <g id="ytick_4">
     <g id="line2d_10">
      <g>
       <use style="stroke:#000000;stroke-width:0.8;" x="43.78125" xlink:href="#mb949ab586d" y="174.257706"/>
      </g>
     </g>
     <g id="text_11">
      <!-- 0.3 -->
      <g transform="translate(20.878125 178.056924)scale(0.1 -0.1)">
       <defs>
        <path d="M 40.578125 39.3125 
Q 47.65625 37.796875 51.625 33 
Q 55.609375 28.21875 55.609375 21.1875 
Q 55.609375 10.40625 48.1875 4.484375 
Q 40.765625 -1.421875 27.09375 -1.421875 
Q 22.515625 -1.421875 17.65625 -0.515625 
Q 12.796875 0.390625 7.625 2.203125 
L 7.625 11.71875 
Q 11.71875 9.328125 16.59375 8.109375 
Q 21.484375 6.890625 26.8125 6.890625 
Q 36.078125 6.890625 40.9375 10.546875 
Q 45.796875 14.203125 45.796875 21.1875 
Q 45.796875 27.640625 41.28125 31.265625 
Q 36.765625 34.90625 28.71875 34.90625 
L 20.21875 34.90625 
L 20.21875 43.015625 
L 29.109375 43.015625 
Q 36.375 43.015625 40.234375 45.921875 
Q 44.09375 48.828125 44.09375 54.296875 
Q 44.09375 59.90625 40.109375 62.90625 
Q 36.140625 65.921875 28.71875 65.921875 
Q 24.65625 65.921875 20.015625 65.03125 
Q 15.375 64.15625 9.8125 62.3125 
L 9.8125 71.09375 
Q 15.4375 72.65625 20.34375 73.4375 
Q 25.25 74.21875 29.59375 74.21875 
Q 40.828125 74.21875 47.359375 69.109375 
Q 53.90625 64.015625 53.90625 55.328125 
Q 53.90625 49.265625 50.4375 45.09375 
Q 46.96875 40.921875 40.578125 39.3125 
z
" id="DejaVuSans-51"/>
       </defs>
       <use xlink:href="#DejaVuSans-48"/>
       <use x="63.623047" xlink:href="#DejaVuSans-46"/>
       <use x="95.410156" xlink:href="#DejaVuSans-51"/>
      </g>
     </g>
    </g>
    <g id="ytick_5">
     <g id="line2d_11">
      <g>
       <use style="stroke:#000000;stroke-width:0.8;" x="43.78125" xlink:href="#mb949ab586d" y="142.740071"/>
      </g>
     </g>
     <g id="text_12">
      <!-- 0.4 -->
      <g transform="translate(20.878125 146.539289)scale(0.1 -0.1)">
       <use xlink:href="#DejaVuSans-48"/>
       <use x="63.623047" xlink:href="#DejaVuSans-46"/>
       <use x="95.410156" xlink:href="#DejaVuSans-52"/>
      </g>
     </g>
    </g>
    <g id="ytick_6">
     <g id="line2d_12">
      <g>
       <use style="stroke:#000000;stroke-width:0.8;" x="43.78125" xlink:href="#mb949ab586d" y="111.222436"/>
      </g>
     </g>
     <g id="text_13">
      <!-- 0.5 -->
      <g transform="translate(20.878125 115.021654)scale(0.1 -0.1)">
       <defs>
        <path d="M 10.796875 72.90625 
L 49.515625 72.90625 
L 49.515625 64.59375 
L 19.828125 64.59375 
L 19.828125 46.734375 
Q 21.96875 47.46875 24.109375 47.828125 
Q 26.265625 48.1875 28.421875 48.1875 
Q 40.625 48.1875 47.75 41.5 
Q 54.890625 34.8125 54.890625 23.390625 
Q 54.890625 11.625 47.5625 5.09375 
Q 40.234375 -1.421875 26.90625 -1.421875 
Q 22.3125 -1.421875 17.546875 -0.640625 
Q 12.796875 0.140625 7.71875 1.703125 
L 7.71875 11.625 
Q 12.109375 9.234375 16.796875 8.0625 
Q 21.484375 6.890625 26.703125 6.890625 
Q 35.15625 6.890625 40.078125 11.328125 
Q 45.015625 15.765625 45.015625 23.390625 
Q 45.015625 31 40.078125 35.4375 
Q 35.15625 39.890625 26.703125 39.890625 
Q 22.75 39.890625 18.8125 39.015625 
Q 14.890625 38.140625 10.796875 36.28125 
z
" id="DejaVuSans-53"/>
       </defs>
       <use xlink:href="#DejaVuSans-48"/>
       <use x="63.623047" xlink:href="#DejaVuSans-46"/>
       <use x="95.410156" xlink:href="#DejaVuSans-53"/>
      </g>
     </g>
    </g>
    <g id="ytick_7">
     <g id="line2d_13">
      <g>
       <use style="stroke:#000000;stroke-width:0.8;" x="43.78125" xlink:href="#mb949ab586d" y="79.704801"/>
      </g>
     </g>
     <g id="text_14">
      <!-- 0.6 -->
      <g transform="translate(20.878125 83.504019)scale(0.1 -0.1)">
       <use xlink:href="#DejaVuSans-48"/>
       <use x="63.623047" xlink:href="#DejaVuSans-46"/>
       <use x="95.410156" xlink:href="#DejaVuSans-54"/>
      </g>
     </g>
    </g>
    <g id="ytick_8">
     <g id="line2d_14">
      <g>
       <use style="stroke:#000000;stroke-width:0.8;" x="43.78125" xlink:href="#mb949ab586d" y="48.187165"/>
      </g>
     </g>
     <g id="text_15">
      <!-- 0.7 -->
      <g transform="translate(20.878125 51.986384)scale(0.1 -0.1)">
       <defs>
        <path d="M 8.203125 72.90625 
L 55.078125 72.90625 
L 55.078125 68.703125 
L 28.609375 0 
L 18.3125 0 
L 43.21875 64.59375 
L 8.203125 64.59375 
z
" id="DejaVuSans-55"/>
       </defs>
       <use xlink:href="#DejaVuSans-48"/>
       <use x="63.623047" xlink:href="#DejaVuSans-46"/>
       <use x="95.410156" xlink:href="#DejaVuSans-55"/>
      </g>
     </g>
    </g>
    <g id="ytick_9">
     <g id="line2d_15">
      <g>
       <use style="stroke:#000000;stroke-width:0.8;" x="43.78125" xlink:href="#mb949ab586d" y="16.66953"/>
      </g>
     </g>
     <g id="text_16">
      <!-- 0.8 -->
      <g transform="translate(20.878125 20.468749)scale(0.1 -0.1)">
       <use xlink:href="#DejaVuSans-48"/>
       <use x="63.623047" xlink:href="#DejaVuSans-46"/>
       <use x="95.410156" xlink:href="#DejaVuSans-56"/>
      </g>
     </g>
    </g>
    <g id="text_17">
     <!-- performance -->
     <g transform="translate(14.798438 172.278656)rotate(-90)scale(0.1 -0.1)">
      <defs>
       <path d="M 18.109375 8.203125 
L 18.109375 -20.796875 
L 9.078125 -20.796875 
L 9.078125 54.6875 
L 18.109375 54.6875 
L 18.109375 46.390625 
Q 20.953125 51.265625 25.265625 53.625 
Q 29.59375 56 35.59375 56 
Q 45.5625 56 51.78125 48.09375 
Q 58.015625 40.1875 58.015625 27.296875 
Q 58.015625 14.40625 51.78125 6.484375 
Q 45.5625 -1.421875 35.59375 -1.421875 
Q 29.59375 -1.421875 25.265625 0.953125 
Q 20.953125 3.328125 18.109375 8.203125 
z
M 48.6875 27.296875 
Q 48.6875 37.203125 44.609375 42.84375 
Q 40.53125 48.484375 33.40625 48.484375 
Q 26.265625 48.484375 22.1875 42.84375 
Q 18.109375 37.203125 18.109375 27.296875 
Q 18.109375 17.390625 22.1875 11.75 
Q 26.265625 6.109375 33.40625 6.109375 
Q 40.53125 6.109375 44.609375 11.75 
Q 48.6875 17.390625 48.6875 27.296875 
z
" id="DejaVuSans-112"/>
       <path d="M 56.203125 29.59375 
L 56.203125 25.203125 
L 14.890625 25.203125 
Q 15.484375 15.921875 20.484375 11.0625 
Q 25.484375 6.203125 34.421875 6.203125 
Q 39.59375 6.203125 44.453125 7.46875 
Q 49.3125 8.734375 54.109375 11.28125 
L 54.109375 2.78125 
Q 49.265625 0.734375 44.1875 -0.34375 
Q 39.109375 -1.421875 33.890625 -1.421875 
Q 20.796875 -1.421875 13.15625 6.1875 
Q 5.515625 13.8125 5.515625 26.8125 
Q 5.515625 40.234375 12.765625 48.109375 
Q 20.015625 56 32.328125 56 
Q 43.359375 56 49.78125 48.890625 
Q 56.203125 41.796875 56.203125 29.59375 
z
M 47.21875 32.234375 
Q 47.125 39.59375 43.09375 43.984375 
Q 39.0625 48.390625 32.421875 48.390625 
Q 24.90625 48.390625 20.390625 44.140625 
Q 15.875 39.890625 15.1875 32.171875 
z
" id="DejaVuSans-101"/>
       <path d="M 41.109375 46.296875 
Q 39.59375 47.171875 37.8125 47.578125 
Q 36.03125 48 33.890625 48 
Q 26.265625 48 22.1875 43.046875 
Q 18.109375 38.09375 18.109375 28.8125 
L 18.109375 0 
L 9.078125 0 
L 9.078125 54.6875 
L 18.109375 54.6875 
L 18.109375 46.1875 
Q 20.953125 51.171875 25.484375 53.578125 
Q 30.03125 56 36.53125 56 
Q 37.453125 56 38.578125 55.875 
Q 39.703125 55.765625 41.0625 55.515625 
z
" id="DejaVuSans-114"/>
       <path d="M 52 44.1875 
Q 55.375 50.25 60.0625 53.125 
Q 64.75 56 71.09375 56 
Q 79.640625 56 84.28125 50.015625 
Q 88.921875 44.046875 88.921875 33.015625 
L 88.921875 0 
L 79.890625 0 
L 79.890625 32.71875 
Q 79.890625 40.578125 77.09375 44.375 
Q 74.3125 48.1875 68.609375 48.1875 
Q 61.625 48.1875 57.5625 43.546875 
Q 53.515625 38.921875 53.515625 30.90625 
L 53.515625 0 
L 44.484375 0 
L 44.484375 32.71875 
Q 44.484375 40.625 41.703125 44.40625 
Q 38.921875 48.1875 33.109375 48.1875 
Q 26.21875 48.1875 22.15625 43.53125 
Q 18.109375 38.875 18.109375 30.90625 
L 18.109375 0 
L 9.078125 0 
L 9.078125 54.6875 
L 18.109375 54.6875 
L 18.109375 46.1875 
Q 21.1875 51.21875 25.484375 53.609375 
Q 29.78125 56 35.6875 56 
Q 41.65625 56 45.828125 52.96875 
Q 50 49.953125 52 44.1875 
z
" id="DejaVuSans-109"/>
       <path d="M 34.28125 27.484375 
Q 23.390625 27.484375 19.1875 25 
Q 14.984375 22.515625 14.984375 16.5 
Q 14.984375 11.71875 18.140625 8.90625 
Q 21.296875 6.109375 26.703125 6.109375 
Q 34.1875 6.109375 38.703125 11.40625 
Q 43.21875 16.703125 43.21875 25.484375 
L 43.21875 27.484375 
z
M 52.203125 31.203125 
L 52.203125 0 
L 43.21875 0 
L 43.21875 8.296875 
Q 40.140625 3.328125 35.546875 0.953125 
Q 30.953125 -1.421875 24.3125 -1.421875 
Q 15.921875 -1.421875 10.953125 3.296875 
Q 6 8.015625 6 15.921875 
Q 6 25.140625 12.171875 29.828125 
Q 18.359375 34.515625 30.609375 34.515625 
L 43.21875 34.515625 
L 43.21875 35.40625 
Q 43.21875 41.609375 39.140625 45 
Q 35.0625 48.390625 27.6875 48.390625 
Q 23 48.390625 18.546875 47.265625 
Q 14.109375 46.140625 10.015625 43.890625 
L 10.015625 52.203125 
Q 14.9375 54.109375 19.578125 55.046875 
Q 24.21875 56 28.609375 56 
Q 40.484375 56 46.34375 49.84375 
Q 52.203125 43.703125 52.203125 31.203125 
z
" id="DejaVuSans-97"/>
       <path d="M 54.890625 33.015625 
L 54.890625 0 
L 45.90625 0 
L 45.90625 32.71875 
Q 45.90625 40.484375 42.875 44.328125 
Q 39.84375 48.1875 33.796875 48.1875 
Q 26.515625 48.1875 22.3125 43.546875 
Q 18.109375 38.921875 18.109375 30.90625 
L 18.109375 0 
L 9.078125 0 
L 9.078125 54.6875 
L 18.109375 54.6875 
L 18.109375 46.1875 
Q 21.34375 51.125 25.703125 53.5625 
Q 30.078125 56 35.796875 56 
Q 45.21875 56 50.046875 50.171875 
Q 54.890625 44.34375 54.890625 33.015625 
z
" id="DejaVuSans-110"/>
      </defs>
      <use xlink:href="#DejaVuSans-112"/>
      <use x="63.476562" xlink:href="#DejaVuSans-101"/>
      <use x="125" xlink:href="#DejaVuSans-114"/>
      <use x="166.113281" xlink:href="#DejaVuSans-102"/>
      <use x="201.318359" xlink:href="#DejaVuSans-111"/>
      <use x="262.5" xlink:href="#DejaVuSans-114"/>
      <use x="301.863281" xlink:href="#DejaVuSans-109"/>
      <use x="399.275391" xlink:href="#DejaVuSans-97"/>
      <use x="460.554688" xlink:href="#DejaVuSans-110"/>
      <use x="523.933594" xlink:href="#DejaVuSans-99"/>
      <use x="578.914062" xlink:href="#DejaVuSans-101"/>
     </g>
    </g>
   </g>
   <g id="line2d_16">
    <path clip-path="url(#p5f09ebf686)" d="M 60.013977 19.296 
L 66.777614 30.820305 
L 73.54125 44.550515 
L 80.304886 60.569094 
L 87.068523 90.053875 
L 93.832159 99.803003 
L 100.595795 113.381178 
L 107.359432 113.381178 
L 114.123068 115.481575 
L 120.886705 113.441987 
L 127.650341 140.076609 
L 134.413977 154.996929 
L 141.177614 183.95544 
L 147.94125 173.060833 
L 154.704886 190.98929 
L 161.468523 190.98929 
L 168.232159 190.98929 
L 174.995795 190.98929 
L 181.759432 191.93833 
L 188.523068 192.864502 
L 195.286705 192.864502 
L 202.050341 192.864502 
L 208.813977 192.864502 
L 215.577614 189.067197 
L 222.34125 227.040251 
L 229.104886 261.216 
L 235.868523 261.216 
L 242.632159 261.216 
L 249.395795 261.216 
L 256.159432 261.216 
L 262.923068 261.216 
L 269.686705 261.216 
L 276.450341 261.216 
L 283.213977 261.216 
L 289.977614 261.216 
L 296.74125 261.216 
L 303.504886 261.216 
L 310.268523 261.216 
L 317.032159 261.216 
L 323.795795 261.216 
L 330.559432 261.216 
L 337.323068 261.216 
L 344.086705 261.216 
L 350.850341 261.216 
L 357.613977 261.216 
L 364.377614 261.216 
L 371.14125 261.216 
L 377.904886 261.216 
L 384.668523 261.216 
" style="fill:none;stroke:#f26b38;stroke-dasharray:7.4,3.2;stroke-dashoffset:0;stroke-width:2;"/>
   </g>
   <g id="line2d_17">
    <path clip-path="url(#p5f09ebf686)" d="M 60.013977 97.317597 
L 66.777614 115.481575 
L 73.54125 140.076609 
L 80.304886 168.129277 
L 87.068523 171.833272 
L 93.832159 190.98929 
L 100.595795 190.98929 
L 107.359432 190.98929 
L 114.123068 190.98929 
L 120.886705 180.407488 
L 127.650341 165.033032 
L 134.413977 211.851029 
L 141.177614 211.851029 
L 147.94125 211.851029 
L 154.704886 211.851029 
L 161.468523 208.053724 
L 168.232159 261.216 
L 174.995795 261.216 
L 181.759432 261.216 
L 188.523068 261.216 
L 195.286705 261.216 
L 202.050341 261.216 
L 208.813977 261.216 
L 215.577614 261.216 
L 222.34125 261.216 
L 229.104886 261.216 
L 235.868523 261.216 
L 242.632159 261.216 
L 249.395795 261.216 
L 256.159432 261.216 
L 262.923068 261.216 
L 269.686705 261.216 
L 276.450341 261.216 
L 283.213977 261.216 
L 289.977614 261.216 
L 296.74125 261.216 
L 303.504886 261.216 
L 310.268523 261.216 
L 317.032159 261.216 
L 323.795795 261.216 
L 330.559432 261.216 
L 337.323068 261.216 
L 344.086705 261.216 
L 350.850341 261.216 
L 357.613977 261.216 
L 364.377614 261.216 
L 371.14125 261.216 
L 377.904886 261.216 
L 384.668523 261.216 
" style="fill:none;stroke:#2f9599;stroke-dasharray:2,3.3;stroke-dashoffset:0;stroke-width:2;"/>
   </g>
   <g id="line2d_18">
    <path clip-path="url(#p5f09ebf686)" d="M 60.013977 24.388135 
L 66.777614 24.388135 
L 73.54125 24.388135 
L 80.304886 24.388135 
L 87.068523 30.820305 
L 93.832159 37.252476 
L 100.595795 37.252476 
L 107.359432 48.187165 
L 114.123068 46.333187 
L 120.886705 44.550515 
L 127.650341 44.550515 
L 134.413977 54.728561 
L 141.177614 66.197243 
L 147.94125 76.499617 
L 154.704886 97.317597 
L 161.468523 106.719916 
L 168.232159 106.719916 
L 174.995795 119.740715 
L 181.759432 119.740715 
L 188.523068 111.222436 
L 195.286705 115.599885 
L 202.050341 113.441987 
L 208.813977 111.222436 
L 215.577614 158.498888 
L 222.34125 142.740071 
L 229.104886 145.814962 
L 235.868523 134.28412 
L 242.632159 162.486059 
L 249.395795 135.904921 
L 256.159432 151.094143 
L 262.923068 151.094143 
L 269.686705 151.094143 
L 276.450341 147.296837 
L 283.213977 261.216 
L 289.977614 261.216 
L 296.74125 261.216 
L 303.504886 261.216 
L 310.268523 261.216 
L 317.032159 261.216 
L 323.795795 261.216 
L 330.559432 261.216 
L 337.323068 261.216 
L 344.086705 261.216 
L 350.850341 261.216 
L 357.613977 261.216 
L 364.377614 261.216 
L 371.14125 261.216 
L 377.904886 261.216 
L 384.668523 261.216 
" style="fill:none;stroke:#a7226e;stroke-dasharray:12.8,3.2,2,3.2;stroke-dashoffset:0;stroke-width:2;"/>
   </g>
   <g id="patch_3">
    <path d="M 43.78125 273.312 
L 43.78125 7.2 
" style="fill:none;stroke:#000000;stroke-linecap:square;stroke-linejoin:miter;stroke-width:0.8;"/>
   </g>
   <g id="patch_4">
    <path d="M 400.90125 273.312 
L 400.90125 7.2 
" style="fill:none;stroke:#000000;stroke-linecap:square;stroke-linejoin:miter;stroke-width:0.8;"/>
   </g>
   <g id="patch_5">
    <path d="M 43.78125 273.312 
L 400.90125 273.312 
" style="fill:none;stroke:#000000;stroke-linecap:square;stroke-linejoin:miter;stroke-width:0.8;"/>
   </g>
   <g id="patch_6">
    <path d="M 43.78125 7.2 
L 400.90125 7.2 
" style="fill:none;stroke:#000000;stroke-linecap:square;stroke-linejoin:miter;stroke-width:0.8;"/>
   </g>
   <g id="legend_1">
    <g id="patch_7">
     <path d="M 315.427559 43.890912 
L 396.04325 43.890912 
Q 397.43125 43.890912 397.43125 42.502912 
L 397.43125 12.058 
Q 397.43125 10.67 396.04325 10.67 
L 315.427559 10.67 
Q 314.039559 10.67 314.039559 12.058 
L 314.039559 42.502912 
Q 314.039559 43.890912 315.427559 43.890912 
z
" style="fill:#ffffff;opacity:0.8;stroke:#cccccc;stroke-linejoin:miter;"/>
    </g>
    <g id="PathCollection_5">
     <defs>
      <path d="M 0 3 
C 0.795609 3 1.55874 2.683901 2.12132 2.12132 
C 2.683901 1.55874 3 0.795609 3 0 
C 3 -0.795609 2.683901 -1.55874 2.12132 -2.12132 
C 1.55874 -2.683901 0.795609 -3 0 -3 
C -0.795609 -3 -1.55874 -2.683901 -2.12132 -2.12132 
C -2.683901 -1.55874 -3 -0.795609 -3 0 
C -3 0.795609 -2.683901 1.55874 -2.12132 2.12132 
C -1.55874 2.683901 -0.795609 3 0 3 
z
" id="m5aca0ebe2e" style="stroke:#f26b38;"/>
     </defs>
     <g>
      <use style="fill:#f26b38;stroke:#f26b38;" x="323.755559" xlink:href="#m5aca0ebe2e" y="16.897566"/>
     </g>
    </g>
    <g id="text_18">
     <!-- mean_err -->
     <g transform="translate(336.247559 18.719316)scale(0.0694 -0.0694)">
      <defs>
       <path d="M 50.984375 -16.609375 
L 50.984375 -23.578125 
L -0.984375 -23.578125 
L -0.984375 -16.609375 
z
" id="DejaVuSans-95"/>
      </defs>
      <use xlink:href="#DejaVuSans-109"/>
      <use x="97.412109" xlink:href="#DejaVuSans-101"/>
      <use x="158.935547" xlink:href="#DejaVuSans-97"/>
      <use x="220.214844" xlink:href="#DejaVuSans-110"/>
      <use x="283.59375" xlink:href="#DejaVuSans-95"/>
      <use x="333.59375" xlink:href="#DejaVuSans-101"/>
      <use x="395.117188" xlink:href="#DejaVuSans-114"/>
      <use x="434.480469" xlink:href="#DejaVuSans-114"/>
     </g>
    </g>
    <g id="PathCollection_6">
     <defs>
      <path d="M -1.5 3 
L 0 1.5 
L 1.5 3 
L 3 1.5 
L 1.5 0 
L 3 -1.5 
L 1.5 -3 
L 0 -1.5 
L -1.5 -3 
L -3 -1.5 
L -1.5 0 
L -3 1.5 
z
" id="m56af9b091b" style="stroke:#2f9599;"/>
     </defs>
     <g>
      <use style="fill:#2f9599;stroke:#2f9599;" x="323.755559" xlink:href="#m56af9b091b" y="27.277203"/>
     </g>
    </g>
    <g id="text_19">
     <!-- mean_sq_err -->
     <g transform="translate(336.247559 29.098953)scale(0.0694 -0.0694)">
      <defs>
       <path d="M 44.28125 53.078125 
L 44.28125 44.578125 
Q 40.484375 46.53125 36.375 47.5 
Q 32.28125 48.484375 27.875 48.484375 
Q 21.1875 48.484375 17.84375 46.4375 
Q 14.5 44.390625 14.5 40.28125 
Q 14.5 37.15625 16.890625 35.375 
Q 19.28125 33.59375 26.515625 31.984375 
L 29.59375 31.296875 
Q 39.15625 29.25 43.1875 25.515625 
Q 47.21875 21.78125 47.21875 15.09375 
Q 47.21875 7.46875 41.1875 3.015625 
Q 35.15625 -1.421875 24.609375 -1.421875 
Q 20.21875 -1.421875 15.453125 -0.5625 
Q 10.6875 0.296875 5.421875 2 
L 5.421875 11.28125 
Q 10.40625 8.6875 15.234375 7.390625 
Q 20.0625 6.109375 24.8125 6.109375 
Q 31.15625 6.109375 34.5625 8.28125 
Q 37.984375 10.453125 37.984375 14.40625 
Q 37.984375 18.0625 35.515625 20.015625 
Q 33.0625 21.96875 24.703125 23.78125 
L 21.578125 24.515625 
Q 13.234375 26.265625 9.515625 29.90625 
Q 5.8125 33.546875 5.8125 39.890625 
Q 5.8125 47.609375 11.28125 51.796875 
Q 16.75 56 26.8125 56 
Q 31.78125 56 36.171875 55.265625 
Q 40.578125 54.546875 44.28125 53.078125 
z
" id="DejaVuSans-115"/>
       <path d="M 14.796875 27.296875 
Q 14.796875 17.390625 18.875 11.75 
Q 22.953125 6.109375 30.078125 6.109375 
Q 37.203125 6.109375 41.296875 11.75 
Q 45.40625 17.390625 45.40625 27.296875 
Q 45.40625 37.203125 41.296875 42.84375 
Q 37.203125 48.484375 30.078125 48.484375 
Q 22.953125 48.484375 18.875 42.84375 
Q 14.796875 37.203125 14.796875 27.296875 
z
M 45.40625 8.203125 
Q 42.578125 3.328125 38.25 0.953125 
Q 33.9375 -1.421875 27.875 -1.421875 
Q 17.96875 -1.421875 11.734375 6.484375 
Q 5.515625 14.40625 5.515625 27.296875 
Q 5.515625 40.1875 11.734375 48.09375 
Q 17.96875 56 27.875 56 
Q 33.9375 56 38.25 53.625 
Q 42.578125 51.265625 45.40625 46.390625 
L 45.40625 54.6875 
L 54.390625 54.6875 
L 54.390625 -20.796875 
L 45.40625 -20.796875 
z
" id="DejaVuSans-113"/>
      </defs>
      <use xlink:href="#DejaVuSans-109"/>
      <use x="97.412109" xlink:href="#DejaVuSans-101"/>
      <use x="158.935547" xlink:href="#DejaVuSans-97"/>
      <use x="220.214844" xlink:href="#DejaVuSans-110"/>
      <use x="283.59375" xlink:href="#DejaVuSans-95"/>
      <use x="333.59375" xlink:href="#DejaVuSans-115"/>
      <use x="385.693359" xlink:href="#DejaVuSans-113"/>
      <use x="449.169922" xlink:href="#DejaVuSans-95"/>
      <use x="499.169922" xlink:href="#DejaVuSans-101"/>
      <use x="560.693359" xlink:href="#DejaVuSans-114"/>
      <use x="600.056641" xlink:href="#DejaVuSans-114"/>
     </g>
    </g>
    <g id="PathCollection_7">
     <defs>
      <path d="M -2.12132 -2.12132 
L -2.12132 2.12132 
L 2.12132 2.12132 
L 2.12132 -2.12132 
z
" id="mdfa9cebd62" style="stroke:#a7226e;"/>
     </defs>
     <g>
      <use style="fill:#a7226e;stroke:#a7226e;" x="323.755559" xlink:href="#mdfa9cebd62" y="37.656841"/>
     </g>
    </g>
    <g id="text_20">
     <!-- mean_sqroot_err -->
     <g transform="translate(336.247559 39.478591)scale(0.0694 -0.0694)">
      <use xlink:href="#DejaVuSans-109"/>
      <use x="97.412109" xlink:href="#DejaVuSans-101"/>
      <use x="158.935547" xlink:href="#DejaVuSans-97"/>
      <use x="220.214844" xlink:href="#DejaVuSans-110"/>
      <use x="283.59375" xlink:href="#DejaVuSans-95"/>
      <use x="333.59375" xlink:href="#DejaVuSans-115"/>
      <use x="385.693359" xlink:href="#DejaVuSans-113"/>
      <use x="449.169922" xlink:href="#DejaVuSans-114"/>
      <use x="488.033203" xlink:href="#DejaVuSans-111"/>
      <use x="549.214844" xlink:href="#DejaVuSans-111"/>
      <use x="610.396484" xlink:href="#DejaVuSans-116"/>
      <use x="649.605469" xlink:href="#DejaVuSans-95"/>
      <use x="699.605469" xlink:href="#DejaVuSans-101"/>
      <use x="761.128906" xlink:href="#DejaVuSans-114"/>
      <use x="800.492188" xlink:href="#DejaVuSans-114"/>
     </g>
    </g>
   </g>
  </g>
 </g>
 <defs>
  <clipPath id="p5f09ebf686">
   <rect height="266.112" width="357.12" x="43.78125" y="7.2"/>
  </clipPath>
 </defs>
</svg>
