<?xml version="1.0" encoding="utf-8" standalone="no"?>
<!DOCTYPE svg PUBLIC "-//W3C//DTD SVG 1.1//EN"
  "http://www.w3.org/Graphics/SVG/1.1/DTD/svg11.dtd">
<!-- Created with matplotlib (https://matplotlib.org/) -->
<svg height="310.86825pt" version="1.1" viewBox="0 0 420.82625 310.86825" width="420.82625pt" xmlns="http://www.w3.org/2000/svg" xmlns:xlink="http://www.w3.org/1999/xlink">
 <metadata>
  <rdf:RDF xmlns:cc="http://creativecommons.org/ns#" xmlns:dc="http://purl.org/dc/elements/1.1/" xmlns:rdf="http://www.w3.org/1999/02/22-rdf-syntax-ns#">
   <cc:Work>
    <dc:type rdf:resource="http://purl.org/dc/dcmitype/StillImage"/>
    <dc:date>2022-05-05T15:02:47.507164</dc:date>
    <dc:format>image/svg+xml</dc:format>
    <dc:creator>
     <cc:Agent>
      <dc:title>Matplotlib v3.3.4, https://matplotlib.org/</dc:title>
     </cc:Agent>
    </dc:creator>
   </cc:Work>
  </rdf:RDF>
 </metadata>
 <defs>
  <style type="text/css">*{stroke-linecap:butt;stroke-linejoin:round;}</style>
 </defs>
 <g id="figure_1">
  <g id="patch_1">
   <path d="M 0 310.86825 
L 420.82625 310.86825 
L 420.82625 0 
L 0 0 
z
" style="fill:#ffffff;"/>
  </g>
  <g id="axes_1">
   <g id="patch_2">
    <path d="M 56.50625 273.312 
L 413.62625 273.312 
L 413.62625 7.2 
L 56.50625 7.2 
z
" style="fill:#ffffff;"/>
   </g>
   <g id="PathCollection_1">
    <path clip-path="url(#p50ea08ef59)" d="M 72.738977 22.296 
C 73.534587 22.296 74.297717 21.979901 74.860298 21.41732 
C 75.422878 20.85474 75.738977 20.091609 75.738977 19.296 
C 75.738977 18.500391 75.422878 17.73726 74.860298 17.17468 
C 74.297717 16.612099 73.534587 16.296 72.738977 16.296 
C 71.943368 16.296 71.180238 16.612099 70.617657 17.17468 
C 70.055076 17.73726 69.738977 18.500391 69.738977 19.296 
C 69.738977 20.091609 70.055076 20.85474 70.617657 21.41732 
C 71.180238 21.979901 71.943368 22.296 72.738977 22.296 
z
" style="fill:#f26b38;stroke:#ffffff;stroke-width:0.48;"/>
    <path clip-path="url(#p50ea08ef59)" d="M 79.502614 36.573246 
C 80.298223 36.573246 81.061353 36.257147 81.623934 35.694566 
C 82.186515 35.131986 82.502614 34.368855 82.502614 33.573246 
C 82.502614 32.777637 82.186515 32.014506 81.623934 31.451926 
C 81.061353 30.889345 80.298223 30.573246 79.502614 30.573246 
C 78.707004 30.573246 77.943874 30.889345 77.381293 31.451926 
C 76.818713 32.014506 76.502614 32.777637 76.502614 33.573246 
C 76.502614 34.368855 76.818713 35.131986 77.381293 35.694566 
C 77.943874 36.257147 78.707004 36.573246 79.502614 36.573246 
z
" style="fill:#f26b38;stroke:#ffffff;stroke-width:0.48;"/>
    <path clip-path="url(#p50ea08ef59)" d="M 86.26625 36.573246 
C 87.061859 36.573246 87.82499 36.257147 88.38757 35.694566 
C 88.950151 35.131986 89.26625 34.368855 89.26625 33.573246 
C 89.26625 32.777637 88.950151 32.014506 88.38757 31.451926 
C 87.82499 30.889345 87.061859 30.573246 86.26625 30.573246 
C 85.470641 30.573246 84.70751 30.889345 84.14493 31.451926 
C 83.582349 32.014506 83.26625 32.777637 83.26625 33.573246 
C 83.26625 34.368855 83.582349 35.131986 84.14493 35.694566 
C 84.70751 36.257147 85.470641 36.573246 86.26625 36.573246 
z
" style="fill:#f26b38;stroke:#ffffff;stroke-width:0.48;"/>
    <path clip-path="url(#p50ea08ef59)" d="M 93.029886 36.573246 
C 93.825496 36.573246 94.588626 36.257147 95.151207 35.694566 
C 95.713787 35.131986 96.029886 34.368855 96.029886 33.573246 
C 96.029886 32.777637 95.713787 32.014506 95.151207 31.451926 
C 94.588626 30.889345 93.825496 30.573246 93.029886 30.573246 
C 92.234277 30.573246 91.471147 30.889345 90.908566 31.451926 
C 90.345985 32.014506 90.029886 32.777637 90.029886 33.573246 
C 90.029886 34.368855 90.345985 35.131986 90.908566 35.694566 
C 91.471147 36.257147 92.234277 36.573246 93.029886 36.573246 
z
" style="fill:#f26b38;stroke:#ffffff;stroke-width:0.48;"/>
    <path clip-path="url(#p50ea08ef59)" d="M 99.793523 36.573246 
C 100.589132 36.573246 101.352262 36.257147 101.914843 35.694566 
C 102.477424 35.131986 102.793523 34.368855 102.793523 33.573246 
C 102.793523 32.777637 102.477424 32.014506 101.914843 31.451926 
C 101.352262 30.889345 100.589132 30.573246 99.793523 30.573246 
C 98.997913 30.573246 98.234783 30.889345 97.672202 31.451926 
C 97.109622 32.014506 96.793523 32.777637 96.793523 33.573246 
C 96.793523 34.368855 97.109622 35.131986 97.672202 35.694566 
C 98.234783 36.257147 98.997913 36.573246 99.793523 36.573246 
z
" style="fill:#f26b38;stroke:#ffffff;stroke-width:0.48;"/>
    <path clip-path="url(#p50ea08ef59)" d="M 106.557159 36.573246 
C 107.352768 36.573246 108.115899 36.257147 108.678479 35.694566 
C 109.24106 35.131986 109.557159 34.368855 109.557159 33.573246 
C 109.557159 32.777637 109.24106 32.014506 108.678479 31.451926 
C 108.115899 30.889345 107.352768 30.573246 106.557159 30.573246 
C 105.76155 30.573246 104.998419 30.889345 104.435839 31.451926 
C 103.873258 32.014506 103.557159 32.777637 103.557159 33.573246 
C 103.557159 34.368855 103.873258 35.131986 104.435839 35.694566 
C 104.998419 36.257147 105.76155 36.573246 106.557159 36.573246 
z
" style="fill:#f26b38;stroke:#ffffff;stroke-width:0.48;"/>
    <path clip-path="url(#p50ea08ef59)" d="M 113.320795 36.573246 
C 114.116405 36.573246 114.879535 36.257147 115.442116 35.694566 
C 116.004697 35.131986 116.320795 34.368855 116.320795 33.573246 
C 116.320795 32.777637 116.004697 32.014506 115.442116 31.451926 
C 114.879535 30.889345 114.116405 30.573246 113.320795 30.573246 
C 112.525186 30.573246 111.762056 30.889345 111.199475 31.451926 
C 110.636894 32.014506 110.320795 32.777637 110.320795 33.573246 
C 110.320795 34.368855 110.636894 35.131986 111.199475 35.694566 
C 111.762056 36.257147 112.525186 36.573246 113.320795 36.573246 
z
" style="fill:#f26b38;stroke:#ffffff;stroke-width:0.48;"/>
    <path clip-path="url(#p50ea08ef59)" d="M 120.084432 22.296 
C 120.880041 22.296 121.643171 21.979901 122.205752 21.41732 
C 122.768333 20.85474 123.084432 20.091609 123.084432 19.296 
C 123.084432 18.500391 122.768333 17.73726 122.205752 17.17468 
C 121.643171 16.612099 120.880041 16.296 120.084432 16.296 
C 119.288823 16.296 118.525692 16.612099 117.963111 17.17468 
C 117.400531 17.73726 117.084432 18.500391 117.084432 19.296 
C 117.084432 20.091609 117.400531 20.85474 117.963111 21.41732 
C 118.525692 21.979901 119.288823 22.296 120.084432 22.296 
z
" style="fill:#f26b38;stroke:#ffffff;stroke-width:0.48;"/>
    <path clip-path="url(#p50ea08ef59)" d="M 126.848068 22.296 
C 127.643677 22.296 128.406808 21.979901 128.969389 21.41732 
C 129.531969 20.85474 129.848068 20.091609 129.848068 19.296 
C 129.848068 18.500391 129.531969 17.73726 128.969389 17.17468 
C 128.406808 16.612099 127.643677 16.296 126.848068 16.296 
C 126.052459 16.296 125.289329 16.612099 124.726748 17.17468 
C 124.164167 17.73726 123.848068 18.500391 123.848068 19.296 
C 123.848068 20.091609 124.164167 20.85474 124.726748 21.41732 
C 125.289329 21.979901 126.052459 22.296 126.848068 22.296 
z
" style="fill:#f26b38;stroke:#ffffff;stroke-width:0.48;"/>
    <path clip-path="url(#p50ea08ef59)" d="M 133.611705 111.620308 
C 134.407314 111.620308 135.170444 111.304209 135.733025 110.741628 
C 136.295606 110.179047 136.611705 109.415917 136.611705 108.620308 
C 136.611705 107.824698 136.295606 107.061568 135.733025 106.498987 
C 135.170444 105.936407 134.407314 105.620308 133.611705 105.620308 
C 132.816095 105.620308 132.052965 105.936407 131.490384 106.498987 
C 130.927803 107.061568 130.611705 107.824698 130.611705 108.620308 
C 130.611705 109.415917 130.927803 110.179047 131.490384 110.741628 
C 132.052965 111.304209 132.816095 111.620308 133.611705 111.620308 
z
" style="fill:#f26b38;stroke:#ffffff;stroke-width:0.48;"/>
    <path clip-path="url(#p50ea08ef59)" d="M 140.375341 111.620308 
C 141.17095 111.620308 141.934081 111.304209 142.496661 110.741628 
C 143.059242 110.179047 143.375341 109.415917 143.375341 108.620308 
C 143.375341 107.824698 143.059242 107.061568 142.496661 106.498987 
C 141.934081 105.936407 141.17095 105.620308 140.375341 105.620308 
C 139.579732 105.620308 138.816601 105.936407 138.254021 106.498987 
C 137.69144 107.061568 137.375341 107.824698 137.375341 108.620308 
C 137.375341 109.415917 137.69144 110.179047 138.254021 110.741628 
C 138.816601 111.304209 139.579732 111.620308 140.375341 111.620308 
z
" style="fill:#f26b38;stroke:#ffffff;stroke-width:0.48;"/>
    <path clip-path="url(#p50ea08ef59)" d="M 147.138977 127.406069 
C 147.934587 127.406069 148.697717 127.08997 149.260298 126.527389 
C 149.822878 125.964809 150.138977 125.201678 150.138977 124.406069 
C 150.138977 123.61046 149.822878 122.847329 149.260298 122.284749 
C 148.697717 121.722168 147.934587 121.406069 147.138977 121.406069 
C 146.343368 121.406069 145.580238 121.722168 145.017657 122.284749 
C 144.455076 122.847329 144.138977 123.61046 144.138977 124.406069 
C 144.138977 125.201678 144.455076 125.964809 145.017657 126.527389 
C 145.580238 127.08997 146.343368 127.406069 147.138977 127.406069 
z
" style="fill:#f26b38;stroke:#ffffff;stroke-width:0.48;"/>
    <path clip-path="url(#p50ea08ef59)" d="M 153.902614 127.406069 
C 154.698223 127.406069 155.461353 127.08997 156.023934 126.527389 
C 156.586515 125.964809 156.902614 125.201678 156.902614 124.406069 
C 156.902614 123.61046 156.586515 122.847329 156.023934 122.284749 
C 155.461353 121.722168 154.698223 121.406069 153.902614 121.406069 
C 153.107004 121.406069 152.343874 121.722168 151.781293 122.284749 
C 151.218713 122.847329 150.902614 123.61046 150.902614 124.406069 
C 150.902614 125.201678 151.218713 125.964809 151.781293 126.527389 
C 152.343874 127.08997 153.107004 127.406069 153.902614 127.406069 
z
" style="fill:#f26b38;stroke:#ffffff;stroke-width:0.48;"/>
    <path clip-path="url(#p50ea08ef59)" d="M 160.66625 127.406069 
C 161.461859 127.406069 162.22499 127.08997 162.78757 126.527389 
C 163.350151 125.964809 163.66625 125.201678 163.66625 124.406069 
C 163.66625 123.61046 163.350151 122.847329 162.78757 122.284749 
C 162.22499 121.722168 161.461859 121.406069 160.66625 121.406069 
C 159.870641 121.406069 159.10751 121.722168 158.54493 122.284749 
C 157.982349 122.847329 157.66625 123.61046 157.66625 124.406069 
C 157.66625 125.201678 157.982349 125.964809 158.54493 126.527389 
C 159.10751 127.08997 159.870641 127.406069 160.66625 127.406069 
z
" style="fill:#f26b38;stroke:#ffffff;stroke-width:0.48;"/>
    <path clip-path="url(#p50ea08ef59)" d="M 167.429886 176.439717 
C 168.225496 176.439717 168.988626 176.123618 169.551207 175.561037 
C 170.113787 174.998456 170.429886 174.235326 170.429886 173.439717 
C 170.429886 172.644108 170.113787 171.880977 169.551207 171.318396 
C 168.988626 170.755816 168.225496 170.439717 167.429886 170.439717 
C 166.634277 170.439717 165.871147 170.755816 165.308566 171.318396 
C 164.745985 171.880977 164.429886 172.644108 164.429886 173.439717 
C 164.429886 174.235326 164.745985 174.998456 165.308566 175.561037 
C 165.871147 176.123618 166.634277 176.439717 167.429886 176.439717 
z
" style="fill:#f26b38;stroke:#ffffff;stroke-width:0.48;"/>
    <path clip-path="url(#p50ea08ef59)" d="M 174.193523 176.439717 
C 174.989132 176.439717 175.752262 176.123618 176.314843 175.561037 
C 176.877424 174.998456 177.193523 174.235326 177.193523 173.439717 
C 177.193523 172.644108 176.877424 171.880977 176.314843 171.318396 
C 175.752262 170.755816 174.989132 170.439717 174.193523 170.439717 
C 173.397913 170.439717 172.634783 170.755816 172.072202 171.318396 
C 171.509622 171.880977 171.193523 172.644108 171.193523 173.439717 
C 171.193523 174.235326 171.509622 174.998456 172.072202 175.561037 
C 172.634783 176.123618 173.397913 176.439717 174.193523 176.439717 
z
" style="fill:#f26b38;stroke:#ffffff;stroke-width:0.48;"/>
    <path clip-path="url(#p50ea08ef59)" d="M 180.957159 176.439717 
C 181.752768 176.439717 182.515899 176.123618 183.078479 175.561037 
C 183.64106 174.998456 183.957159 174.235326 183.957159 173.439717 
C 183.957159 172.644108 183.64106 171.880977 183.078479 171.318396 
C 182.515899 170.755816 181.752768 170.439717 180.957159 170.439717 
C 180.16155 170.439717 179.398419 170.755816 178.835839 171.318396 
C 178.273258 171.880977 177.957159 172.644108 177.957159 173.439717 
C 177.957159 174.235326 178.273258 174.998456 178.835839 175.561037 
C 179.398419 176.123618 180.16155 176.439717 180.957159 176.439717 
z
" style="fill:#f26b38;stroke:#ffffff;stroke-width:0.48;"/>
    <path clip-path="url(#p50ea08ef59)" d="M 187.720795 176.439717 
C 188.516405 176.439717 189.279535 176.123618 189.842116 175.561037 
C 190.404697 174.998456 190.720795 174.235326 190.720795 173.439717 
C 190.720795 172.644108 190.404697 171.880977 189.842116 171.318396 
C 189.279535 170.755816 188.516405 170.439717 187.720795 170.439717 
C 186.925186 170.439717 186.162056 170.755816 185.599475 171.318396 
C 185.036894 171.880977 184.720795 172.644108 184.720795 173.439717 
C 184.720795 174.235326 185.036894 174.998456 185.599475 175.561037 
C 186.162056 176.123618 186.925186 176.439717 187.720795 176.439717 
z
" style="fill:#f26b38;stroke:#ffffff;stroke-width:0.48;"/>
    <path clip-path="url(#p50ea08ef59)" d="M 194.484432 176.439717 
C 195.280041 176.439717 196.043171 176.123618 196.605752 175.561037 
C 197.168333 174.998456 197.484432 174.235326 197.484432 173.439717 
C 197.484432 172.644108 197.168333 171.880977 196.605752 171.318396 
C 196.043171 170.755816 195.280041 170.439717 194.484432 170.439717 
C 193.688823 170.439717 192.925692 170.755816 192.363111 171.318396 
C 191.800531 171.880977 191.484432 172.644108 191.484432 173.439717 
C 191.484432 174.235326 191.800531 174.998456 192.363111 175.561037 
C 192.925692 176.123618 193.688823 176.439717 194.484432 176.439717 
z
" style="fill:#f26b38;stroke:#ffffff;stroke-width:0.48;"/>
    <path clip-path="url(#p50ea08ef59)" d="M 201.248068 176.439717 
C 202.043677 176.439717 202.806808 176.123618 203.369389 175.561037 
C 203.931969 174.998456 204.248068 174.235326 204.248068 173.439717 
C 204.248068 172.644108 203.931969 171.880977 203.369389 171.318396 
C 202.806808 170.755816 202.043677 170.439717 201.248068 170.439717 
C 200.452459 170.439717 199.689329 170.755816 199.126748 171.318396 
C 198.564167 171.880977 198.248068 172.644108 198.248068 173.439717 
C 198.248068 174.235326 198.564167 174.998456 199.126748 175.561037 
C 199.689329 176.123618 200.452459 176.439717 201.248068 176.439717 
z
" style="fill:#f26b38;stroke:#ffffff;stroke-width:0.48;"/>
    <path clip-path="url(#p50ea08ef59)" d="M 208.011705 176.439717 
C 208.807314 176.439717 209.570444 176.123618 210.133025 175.561037 
C 210.695606 174.998456 211.011705 174.235326 211.011705 173.439717 
C 211.011705 172.644108 210.695606 171.880977 210.133025 171.318396 
C 209.570444 170.755816 208.807314 170.439717 208.011705 170.439717 
C 207.216095 170.439717 206.452965 170.755816 205.890384 171.318396 
C 205.327803 171.880977 205.011705 172.644108 205.011705 173.439717 
C 205.011705 174.235326 205.327803 174.998456 205.890384 175.561037 
C 206.452965 176.123618 207.216095 176.439717 208.011705 176.439717 
z
" style="fill:#f26b38;stroke:#ffffff;stroke-width:0.48;"/>
    <path clip-path="url(#p50ea08ef59)" d="M 214.775341 176.439717 
C 215.57095 176.439717 216.334081 176.123618 216.896661 175.561037 
C 217.459242 174.998456 217.775341 174.235326 217.775341 173.439717 
C 217.775341 172.644108 217.459242 171.880977 216.896661 171.318396 
C 216.334081 170.755816 215.57095 170.439717 214.775341 170.439717 
C 213.979732 170.439717 213.216601 170.755816 212.654021 171.318396 
C 212.09144 171.880977 211.775341 172.644108 211.775341 173.439717 
C 211.775341 174.235326 212.09144 174.998456 212.654021 175.561037 
C 213.216601 176.123618 213.979732 176.439717 214.775341 176.439717 
z
" style="fill:#f26b38;stroke:#ffffff;stroke-width:0.48;"/>
    <path clip-path="url(#p50ea08ef59)" d="M 221.538977 176.439717 
C 222.334587 176.439717 223.097717 176.123618 223.660298 175.561037 
C 224.222878 174.998456 224.538977 174.235326 224.538977 173.439717 
C 224.538977 172.644108 224.222878 171.880977 223.660298 171.318396 
C 223.097717 170.755816 222.334587 170.439717 221.538977 170.439717 
C 220.743368 170.439717 219.980238 170.755816 219.417657 171.318396 
C 218.855076 171.880977 218.538977 172.644108 218.538977 173.439717 
C 218.538977 174.235326 218.855076 174.998456 219.417657 175.561037 
C 219.980238 176.123618 220.743368 176.439717 221.538977 176.439717 
z
" style="fill:#f26b38;stroke:#ffffff;stroke-width:0.48;"/>
    <path clip-path="url(#p50ea08ef59)" d="M 228.302614 176.439717 
C 229.098223 176.439717 229.861353 176.123618 230.423934 175.561037 
C 230.986515 174.998456 231.302614 174.235326 231.302614 173.439717 
C 231.302614 172.644108 230.986515 171.880977 230.423934 171.318396 
C 229.861353 170.755816 229.098223 170.439717 228.302614 170.439717 
C 227.507004 170.439717 226.743874 170.755816 226.181293 171.318396 
C 225.618713 171.880977 225.302614 172.644108 225.302614 173.439717 
C 225.302614 174.235326 225.618713 174.998456 226.181293 175.561037 
C 226.743874 176.123618 227.507004 176.439717 228.302614 176.439717 
z
" style="fill:#f26b38;stroke:#ffffff;stroke-width:0.48;"/>
    <path clip-path="url(#p50ea08ef59)" d="M 235.06625 176.439717 
C 235.861859 176.439717 236.62499 176.123618 237.18757 175.561037 
C 237.750151 174.998456 238.06625 174.235326 238.06625 173.439717 
C 238.06625 172.644108 237.750151 171.880977 237.18757 171.318396 
C 236.62499 170.755816 235.861859 170.439717 235.06625 170.439717 
C 234.270641 170.439717 233.50751 170.755816 232.94493 171.318396 
C 232.382349 171.880977 232.06625 172.644108 232.06625 173.439717 
C 232.06625 174.235326 232.382349 174.998456 232.94493 175.561037 
C 233.50751 176.123618 234.270641 176.439717 235.06625 176.439717 
z
" style="fill:#f26b38;stroke:#ffffff;stroke-width:0.48;"/>
    <path clip-path="url(#p50ea08ef59)" d="M 241.829886 127.406069 
C 242.625496 127.406069 243.388626 127.08997 243.951207 126.527389 
C 244.513787 125.964809 244.829886 125.201678 244.829886 124.406069 
C 244.829886 123.61046 244.513787 122.847329 243.951207 122.284749 
C 243.388626 121.722168 242.625496 121.406069 241.829886 121.406069 
C 241.034277 121.406069 240.271147 121.722168 239.708566 122.284749 
C 239.145985 122.847329 238.829886 123.61046 238.829886 124.406069 
C 238.829886 125.201678 239.145985 125.964809 239.708566 126.527389 
C 240.271147 127.08997 241.034277 127.406069 241.829886 127.406069 
z
" style="fill:#f26b38;stroke:#ffffff;stroke-width:0.48;"/>
    <path clip-path="url(#p50ea08ef59)" d="M 248.593523 127.406069 
C 249.389132 127.406069 250.152262 127.08997 250.714843 126.527389 
C 251.277424 125.964809 251.593523 125.201678 251.593523 124.406069 
C 251.593523 123.61046 251.277424 122.847329 250.714843 122.284749 
C 250.152262 121.722168 249.389132 121.406069 248.593523 121.406069 
C 247.797913 121.406069 247.034783 121.722168 246.472202 122.284749 
C 245.909622 122.847329 245.593523 123.61046 245.593523 124.406069 
C 245.593523 125.201678 245.909622 125.964809 246.472202 126.527389 
C 247.034783 127.08997 247.797913 127.406069 248.593523 127.406069 
z
" style="fill:#f26b38;stroke:#ffffff;stroke-width:0.48;"/>
    <path clip-path="url(#p50ea08ef59)" d="M 255.357159 127.406069 
C 256.152768 127.406069 256.915899 127.08997 257.478479 126.527389 
C 258.04106 125.964809 258.357159 125.201678 258.357159 124.406069 
C 258.357159 123.61046 258.04106 122.847329 257.478479 122.284749 
C 256.915899 121.722168 256.152768 121.406069 255.357159 121.406069 
C 254.56155 121.406069 253.798419 121.722168 253.235839 122.284749 
C 252.673258 122.847329 252.357159 123.61046 252.357159 124.406069 
C 252.357159 125.201678 252.673258 125.964809 253.235839 126.527389 
C 253.798419 127.08997 254.56155 127.406069 255.357159 127.406069 
z
" style="fill:#f26b38;stroke:#ffffff;stroke-width:0.48;"/>
    <path clip-path="url(#p50ea08ef59)" d="M 262.120795 127.406069 
C 262.916405 127.406069 263.679535 127.08997 264.242116 126.527389 
C 264.804697 125.964809 265.120795 125.201678 265.120795 124.406069 
C 265.120795 123.61046 264.804697 122.847329 264.242116 122.284749 
C 263.679535 121.722168 262.916405 121.406069 262.120795 121.406069 
C 261.325186 121.406069 260.562056 121.722168 259.999475 122.284749 
C 259.436894 122.847329 259.120795 123.61046 259.120795 124.406069 
C 259.120795 125.201678 259.436894 125.964809 259.999475 126.527389 
C 260.562056 127.08997 261.325186 127.406069 262.120795 127.406069 
z
" style="fill:#f26b38;stroke:#ffffff;stroke-width:0.48;"/>
    <path clip-path="url(#p50ea08ef59)" d="M 268.884432 127.406069 
C 269.680041 127.406069 270.443171 127.08997 271.005752 126.527389 
C 271.568333 125.964809 271.884432 125.201678 271.884432 124.406069 
C 271.884432 123.61046 271.568333 122.847329 271.005752 122.284749 
C 270.443171 121.722168 269.680041 121.406069 268.884432 121.406069 
C 268.088823 121.406069 267.325692 121.722168 266.763111 122.284749 
C 266.200531 122.847329 265.884432 123.61046 265.884432 124.406069 
C 265.884432 125.201678 266.200531 125.964809 266.763111 126.527389 
C 267.325692 127.08997 268.088823 127.406069 268.884432 127.406069 
z
" style="fill:#f26b38;stroke:#ffffff;stroke-width:0.48;"/>
    <path clip-path="url(#p50ea08ef59)" d="M 275.648068 127.406069 
C 276.443677 127.406069 277.206808 127.08997 277.769389 126.527389 
C 278.331969 125.964809 278.648068 125.201678 278.648068 124.406069 
C 278.648068 123.61046 278.331969 122.847329 277.769389 122.284749 
C 277.206808 121.722168 276.443677 121.406069 275.648068 121.406069 
C 274.852459 121.406069 274.089329 121.722168 273.526748 122.284749 
C 272.964167 122.847329 272.648068 123.61046 272.648068 124.406069 
C 272.648068 125.201678 272.964167 125.964809 273.526748 126.527389 
C 274.089329 127.08997 274.852459 127.406069 275.648068 127.406069 
z
" style="fill:#f26b38;stroke:#ffffff;stroke-width:0.48;"/>
    <path clip-path="url(#p50ea08ef59)" d="M 282.411705 127.406069 
C 283.207314 127.406069 283.970444 127.08997 284.533025 126.527389 
C 285.095606 125.964809 285.411705 125.201678 285.411705 124.406069 
C 285.411705 123.61046 285.095606 122.847329 284.533025 122.284749 
C 283.970444 121.722168 283.207314 121.406069 282.411705 121.406069 
C 281.616095 121.406069 280.852965 121.722168 280.290384 122.284749 
C 279.727803 122.847329 279.411705 123.61046 279.411705 124.406069 
C 279.411705 125.201678 279.727803 125.964809 280.290384 126.527389 
C 280.852965 127.08997 281.616095 127.406069 282.411705 127.406069 
z
" style="fill:#f26b38;stroke:#ffffff;stroke-width:0.48;"/>
    <path clip-path="url(#p50ea08ef59)" d="M 289.175341 127.406069 
C 289.97095 127.406069 290.734081 127.08997 291.296661 126.527389 
C 291.859242 125.964809 292.175341 125.201678 292.175341 124.406069 
C 292.175341 123.61046 291.859242 122.847329 291.296661 122.284749 
C 290.734081 121.722168 289.97095 121.406069 289.175341 121.406069 
C 288.379732 121.406069 287.616601 121.722168 287.054021 122.284749 
C 286.49144 122.847329 286.175341 123.61046 286.175341 124.406069 
C 286.175341 125.201678 286.49144 125.964809 287.054021 126.527389 
C 287.616601 127.08997 288.379732 127.406069 289.175341 127.406069 
z
" style="fill:#f26b38;stroke:#ffffff;stroke-width:0.48;"/>
    <path clip-path="url(#p50ea08ef59)" d="M 295.938977 127.406069 
C 296.734587 127.406069 297.497717 127.08997 298.060298 126.527389 
C 298.622878 125.964809 298.938977 125.201678 298.938977 124.406069 
C 298.938977 123.61046 298.622878 122.847329 298.060298 122.284749 
C 297.497717 121.722168 296.734587 121.406069 295.938977 121.406069 
C 295.143368 121.406069 294.380238 121.722168 293.817657 122.284749 
C 293.255076 122.847329 292.938977 123.61046 292.938977 124.406069 
C 292.938977 125.201678 293.255076 125.964809 293.817657 126.527389 
C 294.380238 127.08997 295.143368 127.406069 295.938977 127.406069 
z
" style="fill:#f26b38;stroke:#ffffff;stroke-width:0.48;"/>
    <path clip-path="url(#p50ea08ef59)" d="M 302.702614 127.406069 
C 303.498223 127.406069 304.261353 127.08997 304.823934 126.527389 
C 305.386515 125.964809 305.702614 125.201678 305.702614 124.406069 
C 305.702614 123.61046 305.386515 122.847329 304.823934 122.284749 
C 304.261353 121.722168 303.498223 121.406069 302.702614 121.406069 
C 301.907004 121.406069 301.143874 121.722168 300.581293 122.284749 
C 300.018713 122.847329 299.702614 123.61046 299.702614 124.406069 
C 299.702614 125.201678 300.018713 125.964809 300.581293 126.527389 
C 301.143874 127.08997 301.907004 127.406069 302.702614 127.406069 
z
" style="fill:#f26b38;stroke:#ffffff;stroke-width:0.48;"/>
    <path clip-path="url(#p50ea08ef59)" d="M 309.46625 127.406069 
C 310.261859 127.406069 311.02499 127.08997 311.58757 126.527389 
C 312.150151 125.964809 312.46625 125.201678 312.46625 124.406069 
C 312.46625 123.61046 312.150151 122.847329 311.58757 122.284749 
C 311.02499 121.722168 310.261859 121.406069 309.46625 121.406069 
C 308.670641 121.406069 307.90751 121.722168 307.34493 122.284749 
C 306.782349 122.847329 306.46625 123.61046 306.46625 124.406069 
C 306.46625 125.201678 306.782349 125.964809 307.34493 126.527389 
C 307.90751 127.08997 308.670641 127.406069 309.46625 127.406069 
z
" style="fill:#f26b38;stroke:#ffffff;stroke-width:0.48;"/>
    <path clip-path="url(#p50ea08ef59)" d="M 316.229886 127.406069 
C 317.025496 127.406069 317.788626 127.08997 318.351207 126.527389 
C 318.913787 125.964809 319.229886 125.201678 319.229886 124.406069 
C 319.229886 123.61046 318.913787 122.847329 318.351207 122.284749 
C 317.788626 121.722168 317.025496 121.406069 316.229886 121.406069 
C 315.434277 121.406069 314.671147 121.722168 314.108566 122.284749 
C 313.545985 122.847329 313.229886 123.61046 313.229886 124.406069 
C 313.229886 125.201678 313.545985 125.964809 314.108566 126.527389 
C 314.671147 127.08997 315.434277 127.406069 316.229886 127.406069 
z
" style="fill:#f26b38;stroke:#ffffff;stroke-width:0.48;"/>
    <path clip-path="url(#p50ea08ef59)" d="M 322.993523 127.406069 
C 323.789132 127.406069 324.552262 127.08997 325.114843 126.527389 
C 325.677424 125.964809 325.993523 125.201678 325.993523 124.406069 
C 325.993523 123.61046 325.677424 122.847329 325.114843 122.284749 
C 324.552262 121.722168 323.789132 121.406069 322.993523 121.406069 
C 322.197913 121.406069 321.434783 121.722168 320.872202 122.284749 
C 320.309622 122.847329 319.993523 123.61046 319.993523 124.406069 
C 319.993523 125.201678 320.309622 125.964809 320.872202 126.527389 
C 321.434783 127.08997 322.197913 127.406069 322.993523 127.406069 
z
" style="fill:#f26b38;stroke:#ffffff;stroke-width:0.48;"/>
    <path clip-path="url(#p50ea08ef59)" d="M 329.757159 127.406069 
C 330.552768 127.406069 331.315899 127.08997 331.878479 126.527389 
C 332.44106 125.964809 332.757159 125.201678 332.757159 124.406069 
C 332.757159 123.61046 332.44106 122.847329 331.878479 122.284749 
C 331.315899 121.722168 330.552768 121.406069 329.757159 121.406069 
C 328.96155 121.406069 328.198419 121.722168 327.635839 122.284749 
C 327.073258 122.847329 326.757159 123.61046 326.757159 124.406069 
C 326.757159 125.201678 327.073258 125.964809 327.635839 126.527389 
C 328.198419 127.08997 328.96155 127.406069 329.757159 127.406069 
z
" style="fill:#f26b38;stroke:#ffffff;stroke-width:0.48;"/>
    <path clip-path="url(#p50ea08ef59)" d="M 336.520795 127.406069 
C 337.316405 127.406069 338.079535 127.08997 338.642116 126.527389 
C 339.204697 125.964809 339.520795 125.201678 339.520795 124.406069 
C 339.520795 123.61046 339.204697 122.847329 338.642116 122.284749 
C 338.079535 121.722168 337.316405 121.406069 336.520795 121.406069 
C 335.725186 121.406069 334.962056 121.722168 334.399475 122.284749 
C 333.836894 122.847329 333.520795 123.61046 333.520795 124.406069 
C 333.520795 125.201678 333.836894 125.964809 334.399475 126.527389 
C 334.962056 127.08997 335.725186 127.406069 336.520795 127.406069 
z
" style="fill:#f26b38;stroke:#ffffff;stroke-width:0.48;"/>
    <path clip-path="url(#p50ea08ef59)" d="M 343.284432 127.406069 
C 344.080041 127.406069 344.843171 127.08997 345.405752 126.527389 
C 345.968333 125.964809 346.284432 125.201678 346.284432 124.406069 
C 346.284432 123.61046 345.968333 122.847329 345.405752 122.284749 
C 344.843171 121.722168 344.080041 121.406069 343.284432 121.406069 
C 342.488823 121.406069 341.725692 121.722168 341.163111 122.284749 
C 340.600531 122.847329 340.284432 123.61046 340.284432 124.406069 
C 340.284432 125.201678 340.600531 125.964809 341.163111 126.527389 
C 341.725692 127.08997 342.488823 127.406069 343.284432 127.406069 
z
" style="fill:#f26b38;stroke:#ffffff;stroke-width:0.48;"/>
    <path clip-path="url(#p50ea08ef59)" d="M 350.048068 127.406069 
C 350.843677 127.406069 351.606808 127.08997 352.169389 126.527389 
C 352.731969 125.964809 353.048068 125.201678 353.048068 124.406069 
C 353.048068 123.61046 352.731969 122.847329 352.169389 122.284749 
C 351.606808 121.722168 350.843677 121.406069 350.048068 121.406069 
C 349.252459 121.406069 348.489329 121.722168 347.926748 122.284749 
C 347.364167 122.847329 347.048068 123.61046 347.048068 124.406069 
C 347.048068 125.201678 347.364167 125.964809 347.926748 126.527389 
C 348.489329 127.08997 349.252459 127.406069 350.048068 127.406069 
z
" style="fill:#f26b38;stroke:#ffffff;stroke-width:0.48;"/>
    <path clip-path="url(#p50ea08ef59)" d="M 356.811705 127.406069 
C 357.607314 127.406069 358.370444 127.08997 358.933025 126.527389 
C 359.495606 125.964809 359.811705 125.201678 359.811705 124.406069 
C 359.811705 123.61046 359.495606 122.847329 358.933025 122.284749 
C 358.370444 121.722168 357.607314 121.406069 356.811705 121.406069 
C 356.016095 121.406069 355.252965 121.722168 354.690384 122.284749 
C 354.127803 122.847329 353.811705 123.61046 353.811705 124.406069 
C 353.811705 125.201678 354.127803 125.964809 354.690384 126.527389 
C 355.252965 127.08997 356.016095 127.406069 356.811705 127.406069 
z
" style="fill:#f26b38;stroke:#ffffff;stroke-width:0.48;"/>
    <path clip-path="url(#p50ea08ef59)" d="M 363.575341 127.406069 
C 364.37095 127.406069 365.134081 127.08997 365.696661 126.527389 
C 366.259242 125.964809 366.575341 125.201678 366.575341 124.406069 
C 366.575341 123.61046 366.259242 122.847329 365.696661 122.284749 
C 365.134081 121.722168 364.37095 121.406069 363.575341 121.406069 
C 362.779732 121.406069 362.016601 121.722168 361.454021 122.284749 
C 360.89144 122.847329 360.575341 123.61046 360.575341 124.406069 
C 360.575341 125.201678 360.89144 125.964809 361.454021 126.527389 
C 362.016601 127.08997 362.779732 127.406069 363.575341 127.406069 
z
" style="fill:#f26b38;stroke:#ffffff;stroke-width:0.48;"/>
    <path clip-path="url(#p50ea08ef59)" d="M 370.338977 127.406069 
C 371.134587 127.406069 371.897717 127.08997 372.460298 126.527389 
C 373.022878 125.964809 373.338977 125.201678 373.338977 124.406069 
C 373.338977 123.61046 373.022878 122.847329 372.460298 122.284749 
C 371.897717 121.722168 371.134587 121.406069 370.338977 121.406069 
C 369.543368 121.406069 368.780238 121.722168 368.217657 122.284749 
C 367.655076 122.847329 367.338977 123.61046 367.338977 124.406069 
C 367.338977 125.201678 367.655076 125.964809 368.217657 126.527389 
C 368.780238 127.08997 369.543368 127.406069 370.338977 127.406069 
z
" style="fill:#f26b38;stroke:#ffffff;stroke-width:0.48;"/>
    <path clip-path="url(#p50ea08ef59)" d="M 377.102614 127.406069 
C 377.898223 127.406069 378.661353 127.08997 379.223934 126.527389 
C 379.786515 125.964809 380.102614 125.201678 380.102614 124.406069 
C 380.102614 123.61046 379.786515 122.847329 379.223934 122.284749 
C 378.661353 121.722168 377.898223 121.406069 377.102614 121.406069 
C 376.307004 121.406069 375.543874 121.722168 374.981293 122.284749 
C 374.418713 122.847329 374.102614 123.61046 374.102614 124.406069 
C 374.102614 125.201678 374.418713 125.964809 374.981293 126.527389 
C 375.543874 127.08997 376.307004 127.406069 377.102614 127.406069 
z
" style="fill:#f26b38;stroke:#ffffff;stroke-width:0.48;"/>
    <path clip-path="url(#p50ea08ef59)" d="M 383.86625 127.406069 
C 384.661859 127.406069 385.42499 127.08997 385.98757 126.527389 
C 386.550151 125.964809 386.86625 125.201678 386.86625 124.406069 
C 386.86625 123.61046 386.550151 122.847329 385.98757 122.284749 
C 385.42499 121.722168 384.661859 121.406069 383.86625 121.406069 
C 383.070641 121.406069 382.30751 121.722168 381.74493 122.284749 
C 381.182349 122.847329 380.86625 123.61046 380.86625 124.406069 
C 380.86625 125.201678 381.182349 125.964809 381.74493 126.527389 
C 382.30751 127.08997 383.070641 127.406069 383.86625 127.406069 
z
" style="fill:#f26b38;stroke:#ffffff;stroke-width:0.48;"/>
    <path clip-path="url(#p50ea08ef59)" d="M 390.629886 127.406069 
C 391.425496 127.406069 392.188626 127.08997 392.751207 126.527389 
C 393.313787 125.964809 393.629886 125.201678 393.629886 124.406069 
C 393.629886 123.61046 393.313787 122.847329 392.751207 122.284749 
C 392.188626 121.722168 391.425496 121.406069 390.629886 121.406069 
C 389.834277 121.406069 389.071147 121.722168 388.508566 122.284749 
C 387.945985 122.847329 387.629886 123.61046 387.629886 124.406069 
C 387.629886 125.201678 387.945985 125.964809 388.508566 126.527389 
C 389.071147 127.08997 389.834277 127.406069 390.629886 127.406069 
z
" style="fill:#f26b38;stroke:#ffffff;stroke-width:0.48;"/>
    <path clip-path="url(#p50ea08ef59)" d="M 397.393523 127.406069 
C 398.189132 127.406069 398.952262 127.08997 399.514843 126.527389 
C 400.077424 125.964809 400.393523 125.201678 400.393523 124.406069 
C 400.393523 123.61046 400.077424 122.847329 399.514843 122.284749 
C 398.952262 121.722168 398.189132 121.406069 397.393523 121.406069 
C 396.597913 121.406069 395.834783 121.722168 395.272202 122.284749 
C 394.709622 122.847329 394.393523 123.61046 394.393523 124.406069 
C 394.393523 125.201678 394.709622 125.964809 395.272202 126.527389 
C 395.834783 127.08997 396.597913 127.406069 397.393523 127.406069 
z
" style="fill:#f26b38;stroke:#ffffff;stroke-width:0.48;"/>
    <path clip-path="url(#p50ea08ef59)" d="M 71.238977 36.573246 
L 72.738977 35.073246 
L 74.238977 36.573246 
L 75.738977 35.073246 
L 74.238977 33.573246 
L 75.738977 32.073246 
L 74.238977 30.573246 
L 72.738977 32.073246 
L 71.238977 30.573246 
L 69.738977 32.073246 
L 71.238977 33.573246 
L 69.738977 35.073246 
z
" style="fill:#2f9599;stroke:#ffffff;stroke-width:0.48;"/>
    <path clip-path="url(#p50ea08ef59)" d="M 78.002614 127.406069 
L 79.502614 125.906069 
L 81.002614 127.406069 
L 82.502614 125.906069 
L 81.002614 124.406069 
L 82.502614 122.906069 
L 81.002614 121.406069 
L 79.502614 122.906069 
L 78.002614 121.406069 
L 76.502614 122.906069 
L 78.002614 124.406069 
L 76.502614 125.906069 
z
" style="fill:#2f9599;stroke:#ffffff;stroke-width:0.48;"/>
    <path clip-path="url(#p50ea08ef59)" d="M 84.76625 127.406069 
L 86.26625 125.906069 
L 87.76625 127.406069 
L 89.26625 125.906069 
L 87.76625 124.406069 
L 89.26625 122.906069 
L 87.76625 121.406069 
L 86.26625 122.906069 
L 84.76625 121.406069 
L 83.26625 122.906069 
L 84.76625 124.406069 
L 83.26625 125.906069 
z
" style="fill:#2f9599;stroke:#ffffff;stroke-width:0.48;"/>
    <path clip-path="url(#p50ea08ef59)" d="M 91.529886 193.368 
L 93.029886 191.868 
L 94.529886 193.368 
L 96.029886 191.868 
L 94.529886 190.368 
L 96.029886 188.868 
L 94.529886 187.368 
L 93.029886 188.868 
L 91.529886 187.368 
L 90.029886 188.868 
L 91.529886 190.368 
L 90.029886 191.868 
z
" style="fill:#2f9599;stroke:#ffffff;stroke-width:0.48;"/>
    <path clip-path="url(#p50ea08ef59)" d="M 98.293523 210.601297 
L 99.793523 209.101297 
L 101.293523 210.601297 
L 102.793523 209.101297 
L 101.293523 207.601297 
L 102.793523 206.101297 
L 101.293523 204.601297 
L 99.793523 206.101297 
L 98.293523 204.601297 
L 96.793523 206.101297 
L 98.293523 207.601297 
L 96.793523 209.101297 
z
" style="fill:#2f9599;stroke:#ffffff;stroke-width:0.48;"/>
    <path clip-path="url(#p50ea08ef59)" d="M 105.057159 264.216 
L 106.557159 262.716 
L 108.057159 264.216 
L 109.557159 262.716 
L 108.057159 261.216 
L 109.557159 259.716 
L 108.057159 258.216 
L 106.557159 259.716 
L 105.057159 258.216 
L 103.557159 259.716 
L 105.057159 261.216 
L 103.557159 262.716 
z
" style="fill:#2f9599;stroke:#ffffff;stroke-width:0.48;"/>
    <path clip-path="url(#p50ea08ef59)" d="M 111.820795 264.216 
L 113.320795 262.716 
L 114.820795 264.216 
L 116.320795 262.716 
L 114.820795 261.216 
L 116.320795 259.716 
L 114.820795 258.216 
L 113.320795 259.716 
L 111.820795 258.216 
L 110.320795 259.716 
L 111.820795 261.216 
L 110.320795 262.716 
z
" style="fill:#2f9599;stroke:#ffffff;stroke-width:0.48;"/>
    <path clip-path="url(#p50ea08ef59)" d="M 118.584432 264.216 
L 120.084432 262.716 
L 121.584432 264.216 
L 123.084432 262.716 
L 121.584432 261.216 
L 123.084432 259.716 
L 121.584432 258.216 
L 120.084432 259.716 
L 118.584432 258.216 
L 117.084432 259.716 
L 118.584432 261.216 
L 117.084432 262.716 
z
" style="fill:#2f9599;stroke:#ffffff;stroke-width:0.48;"/>
    <path clip-path="url(#p50ea08ef59)" d="M 125.348068 264.216 
L 126.848068 262.716 
L 128.348068 264.216 
L 129.848068 262.716 
L 128.348068 261.216 
L 129.848068 259.716 
L 128.348068 258.216 
L 126.848068 259.716 
L 125.348068 258.216 
L 123.848068 259.716 
L 125.348068 261.216 
L 123.848068 262.716 
z
" style="fill:#2f9599;stroke:#ffffff;stroke-width:0.48;"/>
    <path clip-path="url(#p50ea08ef59)" d="M 132.111705 264.216 
L 133.611705 262.716 
L 135.111705 264.216 
L 136.611705 262.716 
L 135.111705 261.216 
L 136.611705 259.716 
L 135.111705 258.216 
L 133.611705 259.716 
L 132.111705 258.216 
L 130.611705 259.716 
L 132.111705 261.216 
L 130.611705 262.716 
z
" style="fill:#2f9599;stroke:#ffffff;stroke-width:0.48;"/>
    <path clip-path="url(#p50ea08ef59)" d="M 138.875341 264.216 
L 140.375341 262.716 
L 141.875341 264.216 
L 143.375341 262.716 
L 141.875341 261.216 
L 143.375341 259.716 
L 141.875341 258.216 
L 140.375341 259.716 
L 138.875341 258.216 
L 137.375341 259.716 
L 138.875341 261.216 
L 137.375341 262.716 
z
" style="fill:#2f9599;stroke:#ffffff;stroke-width:0.48;"/>
    <path clip-path="url(#p50ea08ef59)" d="M 145.638977 264.216 
L 147.138977 262.716 
L 148.638977 264.216 
L 150.138977 262.716 
L 148.638977 261.216 
L 150.138977 259.716 
L 148.638977 258.216 
L 147.138977 259.716 
L 145.638977 258.216 
L 144.138977 259.716 
L 145.638977 261.216 
L 144.138977 262.716 
z
" style="fill:#2f9599;stroke:#ffffff;stroke-width:0.48;"/>
    <path clip-path="url(#p50ea08ef59)" d="M 152.402614 264.216 
L 153.902614 262.716 
L 155.402614 264.216 
L 156.902614 262.716 
L 155.402614 261.216 
L 156.902614 259.716 
L 155.402614 258.216 
L 153.902614 259.716 
L 152.402614 258.216 
L 150.902614 259.716 
L 152.402614 261.216 
L 150.902614 262.716 
z
" style="fill:#2f9599;stroke:#ffffff;stroke-width:0.48;"/>
    <path clip-path="url(#p50ea08ef59)" d="M 159.16625 264.216 
L 160.66625 262.716 
L 162.16625 264.216 
L 163.66625 262.716 
L 162.16625 261.216 
L 163.66625 259.716 
L 162.16625 258.216 
L 160.66625 259.716 
L 159.16625 258.216 
L 157.66625 259.716 
L 159.16625 261.216 
L 157.66625 262.716 
z
" style="fill:#2f9599;stroke:#ffffff;stroke-width:0.48;"/>
    <path clip-path="url(#p50ea08ef59)" d="M 165.929886 264.216 
L 167.429886 262.716 
L 168.929886 264.216 
L 170.429886 262.716 
L 168.929886 261.216 
L 170.429886 259.716 
L 168.929886 258.216 
L 167.429886 259.716 
L 165.929886 258.216 
L 164.429886 259.716 
L 165.929886 261.216 
L 164.429886 262.716 
z
" style="fill:#2f9599;stroke:#ffffff;stroke-width:0.48;"/>
    <path clip-path="url(#p50ea08ef59)" d="M 172.693523 264.216 
L 174.193523 262.716 
L 175.693523 264.216 
L 177.193523 262.716 
L 175.693523 261.216 
L 177.193523 259.716 
L 175.693523 258.216 
L 174.193523 259.716 
L 172.693523 258.216 
L 171.193523 259.716 
L 172.693523 261.216 
L 171.193523 262.716 
z
" style="fill:#2f9599;stroke:#ffffff;stroke-width:0.48;"/>
    <path clip-path="url(#p50ea08ef59)" d="M 179.457159 210.601297 
L 180.957159 209.101297 
L 182.457159 210.601297 
L 183.957159 209.101297 
L 182.457159 207.601297 
L 183.957159 206.101297 
L 182.457159 204.601297 
L 180.957159 206.101297 
L 179.457159 204.601297 
L 177.957159 206.101297 
L 179.457159 207.601297 
L 177.957159 209.101297 
z
" style="fill:#2f9599;stroke:#ffffff;stroke-width:0.48;"/>
    <path clip-path="url(#p50ea08ef59)" d="M 186.220795 210.601297 
L 187.720795 209.101297 
L 189.220795 210.601297 
L 190.720795 209.101297 
L 189.220795 207.601297 
L 190.720795 206.101297 
L 189.220795 204.601297 
L 187.720795 206.101297 
L 186.220795 204.601297 
L 184.720795 206.101297 
L 186.220795 207.601297 
L 184.720795 209.101297 
z
" style="fill:#2f9599;stroke:#ffffff;stroke-width:0.48;"/>
    <path clip-path="url(#p50ea08ef59)" d="M 192.984432 210.601297 
L 194.484432 209.101297 
L 195.984432 210.601297 
L 197.484432 209.101297 
L 195.984432 207.601297 
L 197.484432 206.101297 
L 195.984432 204.601297 
L 194.484432 206.101297 
L 192.984432 204.601297 
L 191.484432 206.101297 
L 192.984432 207.601297 
L 191.484432 209.101297 
z
" style="fill:#2f9599;stroke:#ffffff;stroke-width:0.48;"/>
    <path clip-path="url(#p50ea08ef59)" d="M 199.748068 210.601297 
L 201.248068 209.101297 
L 202.748068 210.601297 
L 204.248068 209.101297 
L 202.748068 207.601297 
L 204.248068 206.101297 
L 202.748068 204.601297 
L 201.248068 206.101297 
L 199.748068 204.601297 
L 198.248068 206.101297 
L 199.748068 207.601297 
L 198.248068 209.101297 
z
" style="fill:#2f9599;stroke:#ffffff;stroke-width:0.48;"/>
    <path clip-path="url(#p50ea08ef59)" d="M 206.511705 210.601297 
L 208.011705 209.101297 
L 209.511705 210.601297 
L 211.011705 209.101297 
L 209.511705 207.601297 
L 211.011705 206.101297 
L 209.511705 204.601297 
L 208.011705 206.101297 
L 206.511705 204.601297 
L 205.011705 206.101297 
L 206.511705 207.601297 
L 205.011705 209.101297 
z
" style="fill:#2f9599;stroke:#ffffff;stroke-width:0.48;"/>
    <path clip-path="url(#p50ea08ef59)" d="M 213.275341 210.601297 
L 214.775341 209.101297 
L 216.275341 210.601297 
L 217.775341 209.101297 
L 216.275341 207.601297 
L 217.775341 206.101297 
L 216.275341 204.601297 
L 214.775341 206.101297 
L 213.275341 204.601297 
L 211.775341 206.101297 
L 213.275341 207.601297 
L 211.775341 209.101297 
z
" style="fill:#2f9599;stroke:#ffffff;stroke-width:0.48;"/>
    <path clip-path="url(#p50ea08ef59)" d="M 220.038977 210.601297 
L 221.538977 209.101297 
L 223.038977 210.601297 
L 224.538977 209.101297 
L 223.038977 207.601297 
L 224.538977 206.101297 
L 223.038977 204.601297 
L 221.538977 206.101297 
L 220.038977 204.601297 
L 218.538977 206.101297 
L 220.038977 207.601297 
L 218.538977 209.101297 
z
" style="fill:#2f9599;stroke:#ffffff;stroke-width:0.48;"/>
    <path clip-path="url(#p50ea08ef59)" d="M 226.802614 210.601297 
L 228.302614 209.101297 
L 229.802614 210.601297 
L 231.302614 209.101297 
L 229.802614 207.601297 
L 231.302614 206.101297 
L 229.802614 204.601297 
L 228.302614 206.101297 
L 226.802614 204.601297 
L 225.302614 206.101297 
L 226.802614 207.601297 
L 225.302614 209.101297 
z
" style="fill:#2f9599;stroke:#ffffff;stroke-width:0.48;"/>
    <path clip-path="url(#p50ea08ef59)" d="M 233.56625 210.601297 
L 235.06625 209.101297 
L 236.56625 210.601297 
L 238.06625 209.101297 
L 236.56625 207.601297 
L 238.06625 206.101297 
L 236.56625 204.601297 
L 235.06625 206.101297 
L 233.56625 204.601297 
L 232.06625 206.101297 
L 233.56625 207.601297 
L 232.06625 209.101297 
z
" style="fill:#2f9599;stroke:#ffffff;stroke-width:0.48;"/>
    <path clip-path="url(#p50ea08ef59)" d="M 240.329886 210.601297 
L 241.829886 209.101297 
L 243.329886 210.601297 
L 244.829886 209.101297 
L 243.329886 207.601297 
L 244.829886 206.101297 
L 243.329886 204.601297 
L 241.829886 206.101297 
L 240.329886 204.601297 
L 238.829886 206.101297 
L 240.329886 207.601297 
L 238.829886 209.101297 
z
" style="fill:#2f9599;stroke:#ffffff;stroke-width:0.48;"/>
    <path clip-path="url(#p50ea08ef59)" d="M 247.093523 210.601297 
L 248.593523 209.101297 
L 250.093523 210.601297 
L 251.593523 209.101297 
L 250.093523 207.601297 
L 251.593523 206.101297 
L 250.093523 204.601297 
L 248.593523 206.101297 
L 247.093523 204.601297 
L 245.593523 206.101297 
L 247.093523 207.601297 
L 245.593523 209.101297 
z
" style="fill:#2f9599;stroke:#ffffff;stroke-width:0.48;"/>
    <path clip-path="url(#p50ea08ef59)" d="M 253.857159 210.601297 
L 255.357159 209.101297 
L 256.857159 210.601297 
L 258.357159 209.101297 
L 256.857159 207.601297 
L 258.357159 206.101297 
L 256.857159 204.601297 
L 255.357159 206.101297 
L 253.857159 204.601297 
L 252.357159 206.101297 
L 253.857159 207.601297 
L 252.357159 209.101297 
z
" style="fill:#2f9599;stroke:#ffffff;stroke-width:0.48;"/>
    <path clip-path="url(#p50ea08ef59)" d="M 260.620795 210.601297 
L 262.120795 209.101297 
L 263.620795 210.601297 
L 265.120795 209.101297 
L 263.620795 207.601297 
L 265.120795 206.101297 
L 263.620795 204.601297 
L 262.120795 206.101297 
L 260.620795 204.601297 
L 259.120795 206.101297 
L 260.620795 207.601297 
L 259.120795 209.101297 
z
" style="fill:#2f9599;stroke:#ffffff;stroke-width:0.48;"/>
    <path clip-path="url(#p50ea08ef59)" d="M 267.384432 210.601297 
L 268.884432 209.101297 
L 270.384432 210.601297 
L 271.884432 209.101297 
L 270.384432 207.601297 
L 271.884432 206.101297 
L 270.384432 204.601297 
L 268.884432 206.101297 
L 267.384432 204.601297 
L 265.884432 206.101297 
L 267.384432 207.601297 
L 265.884432 209.101297 
z
" style="fill:#2f9599;stroke:#ffffff;stroke-width:0.48;"/>
    <path clip-path="url(#p50ea08ef59)" d="M 274.148068 210.601297 
L 275.648068 209.101297 
L 277.148068 210.601297 
L 278.648068 209.101297 
L 277.148068 207.601297 
L 278.648068 206.101297 
L 277.148068 204.601297 
L 275.648068 206.101297 
L 274.148068 204.601297 
L 272.648068 206.101297 
L 274.148068 207.601297 
L 272.648068 209.101297 
z
" style="fill:#2f9599;stroke:#ffffff;stroke-width:0.48;"/>
    <path clip-path="url(#p50ea08ef59)" d="M 280.911705 210.601297 
L 282.411705 209.101297 
L 283.911705 210.601297 
L 285.411705 209.101297 
L 283.911705 207.601297 
L 285.411705 206.101297 
L 283.911705 204.601297 
L 282.411705 206.101297 
L 280.911705 204.601297 
L 279.411705 206.101297 
L 280.911705 207.601297 
L 279.411705 209.101297 
z
" style="fill:#2f9599;stroke:#ffffff;stroke-width:0.48;"/>
    <path clip-path="url(#p50ea08ef59)" d="M 287.675341 210.601297 
L 289.175341 209.101297 
L 290.675341 210.601297 
L 292.175341 209.101297 
L 290.675341 207.601297 
L 292.175341 206.101297 
L 290.675341 204.601297 
L 289.175341 206.101297 
L 287.675341 204.601297 
L 286.175341 206.101297 
L 287.675341 207.601297 
L 286.175341 209.101297 
z
" style="fill:#2f9599;stroke:#ffffff;stroke-width:0.48;"/>
    <path clip-path="url(#p50ea08ef59)" d="M 294.438977 210.601297 
L 295.938977 209.101297 
L 297.438977 210.601297 
L 298.938977 209.101297 
L 297.438977 207.601297 
L 298.938977 206.101297 
L 297.438977 204.601297 
L 295.938977 206.101297 
L 294.438977 204.601297 
L 292.938977 206.101297 
L 294.438977 207.601297 
L 292.938977 209.101297 
z
" style="fill:#2f9599;stroke:#ffffff;stroke-width:0.48;"/>
    <path clip-path="url(#p50ea08ef59)" d="M 301.202614 210.601297 
L 302.702614 209.101297 
L 304.202614 210.601297 
L 305.702614 209.101297 
L 304.202614 207.601297 
L 305.702614 206.101297 
L 304.202614 204.601297 
L 302.702614 206.101297 
L 301.202614 204.601297 
L 299.702614 206.101297 
L 301.202614 207.601297 
L 299.702614 209.101297 
z
" style="fill:#2f9599;stroke:#ffffff;stroke-width:0.48;"/>
    <path clip-path="url(#p50ea08ef59)" d="M 307.96625 210.601297 
L 309.46625 209.101297 
L 310.96625 210.601297 
L 312.46625 209.101297 
L 310.96625 207.601297 
L 312.46625 206.101297 
L 310.96625 204.601297 
L 309.46625 206.101297 
L 307.96625 204.601297 
L 306.46625 206.101297 
L 307.96625 207.601297 
L 306.46625 209.101297 
z
" style="fill:#2f9599;stroke:#ffffff;stroke-width:0.48;"/>
    <path clip-path="url(#p50ea08ef59)" d="M 314.729886 210.601297 
L 316.229886 209.101297 
L 317.729886 210.601297 
L 319.229886 209.101297 
L 317.729886 207.601297 
L 319.229886 206.101297 
L 317.729886 204.601297 
L 316.229886 206.101297 
L 314.729886 204.601297 
L 313.229886 206.101297 
L 314.729886 207.601297 
L 313.229886 209.101297 
z
" style="fill:#2f9599;stroke:#ffffff;stroke-width:0.48;"/>
    <path clip-path="url(#p50ea08ef59)" d="M 321.493523 210.601297 
L 322.993523 209.101297 
L 324.493523 210.601297 
L 325.993523 209.101297 
L 324.493523 207.601297 
L 325.993523 206.101297 
L 324.493523 204.601297 
L 322.993523 206.101297 
L 321.493523 204.601297 
L 319.993523 206.101297 
L 321.493523 207.601297 
L 319.993523 209.101297 
z
" style="fill:#2f9599;stroke:#ffffff;stroke-width:0.48;"/>
    <path clip-path="url(#p50ea08ef59)" d="M 328.257159 210.601297 
L 329.757159 209.101297 
L 331.257159 210.601297 
L 332.757159 209.101297 
L 331.257159 207.601297 
L 332.757159 206.101297 
L 331.257159 204.601297 
L 329.757159 206.101297 
L 328.257159 204.601297 
L 326.757159 206.101297 
L 328.257159 207.601297 
L 326.757159 209.101297 
z
" style="fill:#2f9599;stroke:#ffffff;stroke-width:0.48;"/>
    <path clip-path="url(#p50ea08ef59)" d="M 335.020795 210.601297 
L 336.520795 209.101297 
L 338.020795 210.601297 
L 339.520795 209.101297 
L 338.020795 207.601297 
L 339.520795 206.101297 
L 338.020795 204.601297 
L 336.520795 206.101297 
L 335.020795 204.601297 
L 333.520795 206.101297 
L 335.020795 207.601297 
L 333.520795 209.101297 
z
" style="fill:#2f9599;stroke:#ffffff;stroke-width:0.48;"/>
    <path clip-path="url(#p50ea08ef59)" d="M 341.784432 210.601297 
L 343.284432 209.101297 
L 344.784432 210.601297 
L 346.284432 209.101297 
L 344.784432 207.601297 
L 346.284432 206.101297 
L 344.784432 204.601297 
L 343.284432 206.101297 
L 341.784432 204.601297 
L 340.284432 206.101297 
L 341.784432 207.601297 
L 340.284432 209.101297 
z
" style="fill:#2f9599;stroke:#ffffff;stroke-width:0.48;"/>
    <path clip-path="url(#p50ea08ef59)" d="M 348.548068 210.601297 
L 350.048068 209.101297 
L 351.548068 210.601297 
L 353.048068 209.101297 
L 351.548068 207.601297 
L 353.048068 206.101297 
L 351.548068 204.601297 
L 350.048068 206.101297 
L 348.548068 204.601297 
L 347.048068 206.101297 
L 348.548068 207.601297 
L 347.048068 209.101297 
z
" style="fill:#2f9599;stroke:#ffffff;stroke-width:0.48;"/>
    <path clip-path="url(#p50ea08ef59)" d="M 355.311705 210.601297 
L 356.811705 209.101297 
L 358.311705 210.601297 
L 359.811705 209.101297 
L 358.311705 207.601297 
L 359.811705 206.101297 
L 358.311705 204.601297 
L 356.811705 206.101297 
L 355.311705 204.601297 
L 353.811705 206.101297 
L 355.311705 207.601297 
L 353.811705 209.101297 
z
" style="fill:#2f9599;stroke:#ffffff;stroke-width:0.48;"/>
    <path clip-path="url(#p50ea08ef59)" d="M 362.075341 210.601297 
L 363.575341 209.101297 
L 365.075341 210.601297 
L 366.575341 209.101297 
L 365.075341 207.601297 
L 366.575341 206.101297 
L 365.075341 204.601297 
L 363.575341 206.101297 
L 362.075341 204.601297 
L 360.575341 206.101297 
L 362.075341 207.601297 
L 360.575341 209.101297 
z
" style="fill:#2f9599;stroke:#ffffff;stroke-width:0.48;"/>
    <path clip-path="url(#p50ea08ef59)" d="M 368.838977 210.601297 
L 370.338977 209.101297 
L 371.838977 210.601297 
L 373.338977 209.101297 
L 371.838977 207.601297 
L 373.338977 206.101297 
L 371.838977 204.601297 
L 370.338977 206.101297 
L 368.838977 204.601297 
L 367.338977 206.101297 
L 368.838977 207.601297 
L 367.338977 209.101297 
z
" style="fill:#2f9599;stroke:#ffffff;stroke-width:0.48;"/>
    <path clip-path="url(#p50ea08ef59)" d="M 375.602614 210.601297 
L 377.102614 209.101297 
L 378.602614 210.601297 
L 380.102614 209.101297 
L 378.602614 207.601297 
L 380.102614 206.101297 
L 378.602614 204.601297 
L 377.102614 206.101297 
L 375.602614 204.601297 
L 374.102614 206.101297 
L 375.602614 207.601297 
L 374.102614 209.101297 
z
" style="fill:#2f9599;stroke:#ffffff;stroke-width:0.48;"/>
    <path clip-path="url(#p50ea08ef59)" d="M 382.36625 210.601297 
L 383.86625 209.101297 
L 385.36625 210.601297 
L 386.86625 209.101297 
L 385.36625 207.601297 
L 386.86625 206.101297 
L 385.36625 204.601297 
L 383.86625 206.101297 
L 382.36625 204.601297 
L 380.86625 206.101297 
L 382.36625 207.601297 
L 380.86625 209.101297 
z
" style="fill:#2f9599;stroke:#ffffff;stroke-width:0.48;"/>
    <path clip-path="url(#p50ea08ef59)" d="M 389.129886 210.601297 
L 390.629886 209.101297 
L 392.129886 210.601297 
L 393.629886 209.101297 
L 392.129886 207.601297 
L 393.629886 206.101297 
L 392.129886 204.601297 
L 390.629886 206.101297 
L 389.129886 204.601297 
L 387.629886 206.101297 
L 389.129886 207.601297 
L 387.629886 209.101297 
z
" style="fill:#2f9599;stroke:#ffffff;stroke-width:0.48;"/>
    <path clip-path="url(#p50ea08ef59)" d="M 395.893523 210.601297 
L 397.393523 209.101297 
L 398.893523 210.601297 
L 400.393523 209.101297 
L 398.893523 207.601297 
L 400.393523 206.101297 
L 398.893523 204.601297 
L 397.393523 206.101297 
L 395.893523 204.601297 
L 394.393523 206.101297 
L 395.893523 207.601297 
L 394.393523 209.101297 
z
" style="fill:#2f9599;stroke:#ffffff;stroke-width:0.48;"/>
    <path clip-path="url(#p50ea08ef59)" d="M 70.617657 45.965159 
L 70.617657 50.2078 
L 74.860298 50.2078 
L 74.860298 45.965159 
z
" style="fill:#a7226e;stroke:#ffffff;stroke-width:0.48;"/>
    <path clip-path="url(#p50ea08ef59)" d="M 77.381293 45.965159 
L 77.381293 50.2078 
L 81.623934 50.2078 
L 81.623934 45.965159 
z
" style="fill:#a7226e;stroke:#ffffff;stroke-width:0.48;"/>
    <path clip-path="url(#p50ea08ef59)" d="M 84.14493 45.965159 
L 84.14493 50.2078 
L 88.38757 50.2078 
L 88.38757 45.965159 
z
" style="fill:#a7226e;stroke:#ffffff;stroke-width:0.48;"/>
    <path clip-path="url(#p50ea08ef59)" d="M 90.908566 45.965159 
L 90.908566 50.2078 
L 95.151207 50.2078 
L 95.151207 45.965159 
z
" style="fill:#a7226e;stroke:#ffffff;stroke-width:0.48;"/>
    <path clip-path="url(#p50ea08ef59)" d="M 97.672202 45.965159 
L 97.672202 50.2078 
L 101.914843 50.2078 
L 101.914843 45.965159 
z
" style="fill:#a7226e;stroke:#ffffff;stroke-width:0.48;"/>
    <path clip-path="url(#p50ea08ef59)" d="M 104.435839 45.965159 
L 104.435839 50.2078 
L 108.678479 50.2078 
L 108.678479 45.965159 
z
" style="fill:#a7226e;stroke:#ffffff;stroke-width:0.48;"/>
    <path clip-path="url(#p50ea08ef59)" d="M 111.199475 45.965159 
L 111.199475 50.2078 
L 115.442116 50.2078 
L 115.442116 45.965159 
z
" style="fill:#a7226e;stroke:#ffffff;stroke-width:0.48;"/>
    <path clip-path="url(#p50ea08ef59)" d="M 117.963111 60.72028 
L 117.963111 64.96292 
L 122.205752 64.96292 
L 122.205752 60.72028 
z
" style="fill:#a7226e;stroke:#ffffff;stroke-width:0.48;"/>
    <path clip-path="url(#p50ea08ef59)" d="M 124.726748 45.965159 
L 124.726748 50.2078 
L 128.969389 50.2078 
L 128.969389 45.965159 
z
" style="fill:#a7226e;stroke:#ffffff;stroke-width:0.48;"/>
    <path clip-path="url(#p50ea08ef59)" d="M 131.490384 45.965159 
L 131.490384 50.2078 
L 135.733025 50.2078 
L 135.733025 45.965159 
z
" style="fill:#a7226e;stroke:#ffffff;stroke-width:0.48;"/>
    <path clip-path="url(#p50ea08ef59)" d="M 138.254021 45.965159 
L 138.254021 50.2078 
L 142.496661 50.2078 
L 142.496661 45.965159 
z
" style="fill:#a7226e;stroke:#ffffff;stroke-width:0.48;"/>
    <path clip-path="url(#p50ea08ef59)" d="M 145.017657 45.965159 
L 145.017657 50.2078 
L 149.260298 50.2078 
L 149.260298 45.965159 
z
" style="fill:#a7226e;stroke:#ffffff;stroke-width:0.48;"/>
    <path clip-path="url(#p50ea08ef59)" d="M 151.781293 45.965159 
L 151.781293 50.2078 
L 156.023934 50.2078 
L 156.023934 45.965159 
z
" style="fill:#a7226e;stroke:#ffffff;stroke-width:0.48;"/>
    <path clip-path="url(#p50ea08ef59)" d="M 158.54493 45.965159 
L 158.54493 50.2078 
L 162.78757 50.2078 
L 162.78757 45.965159 
z
" style="fill:#a7226e;stroke:#ffffff;stroke-width:0.48;"/>
    <path clip-path="url(#p50ea08ef59)" d="M 165.308566 45.965159 
L 165.308566 50.2078 
L 169.551207 50.2078 
L 169.551207 45.965159 
z
" style="fill:#a7226e;stroke:#ffffff;stroke-width:0.48;"/>
    <path clip-path="url(#p50ea08ef59)" d="M 172.072202 45.965159 
L 172.072202 50.2078 
L 176.314843 50.2078 
L 176.314843 45.965159 
z
" style="fill:#a7226e;stroke:#ffffff;stroke-width:0.48;"/>
    <path clip-path="url(#p50ea08ef59)" d="M 178.835839 31.451926 
L 178.835839 35.694566 
L 183.078479 35.694566 
L 183.078479 31.451926 
z
" style="fill:#a7226e;stroke:#ffffff;stroke-width:0.48;"/>
    <path clip-path="url(#p50ea08ef59)" d="M 185.599475 31.451926 
L 185.599475 35.694566 
L 189.842116 35.694566 
L 189.842116 31.451926 
z
" style="fill:#a7226e;stroke:#ffffff;stroke-width:0.48;"/>
    <path clip-path="url(#p50ea08ef59)" d="M 192.363111 31.451926 
L 192.363111 35.694566 
L 196.605752 35.694566 
L 196.605752 31.451926 
z
" style="fill:#a7226e;stroke:#ffffff;stroke-width:0.48;"/>
    <path clip-path="url(#p50ea08ef59)" d="M 199.126748 17.17468 
L 199.126748 21.41732 
L 203.369389 21.41732 
L 203.369389 17.17468 
z
" style="fill:#a7226e;stroke:#ffffff;stroke-width:0.48;"/>
    <path clip-path="url(#p50ea08ef59)" d="M 205.890384 17.17468 
L 205.890384 21.41732 
L 210.133025 21.41732 
L 210.133025 17.17468 
z
" style="fill:#a7226e;stroke:#ffffff;stroke-width:0.48;"/>
    <path clip-path="url(#p50ea08ef59)" d="M 212.654021 122.284749 
L 212.654021 126.527389 
L 216.896661 126.527389 
L 216.896661 122.284749 
z
" style="fill:#a7226e;stroke:#ffffff;stroke-width:0.48;"/>
    <path clip-path="url(#p50ea08ef59)" d="M 219.417657 122.284749 
L 219.417657 126.527389 
L 223.660298 126.527389 
L 223.660298 122.284749 
z
" style="fill:#a7226e;stroke:#ffffff;stroke-width:0.48;"/>
    <path clip-path="url(#p50ea08ef59)" d="M 226.181293 138.345045 
L 226.181293 142.587686 
L 230.423934 142.587686 
L 230.423934 138.345045 
z
" style="fill:#a7226e;stroke:#ffffff;stroke-width:0.48;"/>
    <path clip-path="url(#p50ea08ef59)" d="M 232.94493 138.345045 
L 232.94493 142.587686 
L 237.18757 142.587686 
L 237.18757 138.345045 
z
" style="fill:#a7226e;stroke:#ffffff;stroke-width:0.48;"/>
    <path clip-path="url(#p50ea08ef59)" d="M 239.708566 138.345045 
L 239.708566 142.587686 
L 243.951207 142.587686 
L 243.951207 138.345045 
z
" style="fill:#a7226e;stroke:#ffffff;stroke-width:0.48;"/>
    <path clip-path="url(#p50ea08ef59)" d="M 246.472202 188.24668 
L 246.472202 192.48932 
L 250.714843 192.48932 
L 250.714843 188.24668 
z
" style="fill:#a7226e;stroke:#ffffff;stroke-width:0.48;"/>
    <path clip-path="url(#p50ea08ef59)" d="M 253.235839 188.24668 
L 253.235839 192.48932 
L 257.478479 192.48932 
L 257.478479 188.24668 
z
" style="fill:#a7226e;stroke:#ffffff;stroke-width:0.48;"/>
    <path clip-path="url(#p50ea08ef59)" d="M 259.999475 188.24668 
L 259.999475 192.48932 
L 264.242116 192.48932 
L 264.242116 188.24668 
z
" style="fill:#a7226e;stroke:#ffffff;stroke-width:0.48;"/>
    <path clip-path="url(#p50ea08ef59)" d="M 266.763111 188.24668 
L 266.763111 192.48932 
L 271.005752 192.48932 
L 271.005752 188.24668 
z
" style="fill:#a7226e;stroke:#ffffff;stroke-width:0.48;"/>
    <path clip-path="url(#p50ea08ef59)" d="M 273.526748 188.24668 
L 273.526748 192.48932 
L 277.769389 192.48932 
L 277.769389 188.24668 
z
" style="fill:#a7226e;stroke:#ffffff;stroke-width:0.48;"/>
    <path clip-path="url(#p50ea08ef59)" d="M 280.290384 188.24668 
L 280.290384 192.48932 
L 284.533025 192.48932 
L 284.533025 188.24668 
z
" style="fill:#a7226e;stroke:#ffffff;stroke-width:0.48;"/>
    <path clip-path="url(#p50ea08ef59)" d="M 287.054021 188.24668 
L 287.054021 192.48932 
L 291.296661 192.48932 
L 291.296661 188.24668 
z
" style="fill:#a7226e;stroke:#ffffff;stroke-width:0.48;"/>
    <path clip-path="url(#p50ea08ef59)" d="M 293.817657 122.284749 
L 293.817657 126.527389 
L 298.060298 126.527389 
L 298.060298 122.284749 
z
" style="fill:#a7226e;stroke:#ffffff;stroke-width:0.48;"/>
    <path clip-path="url(#p50ea08ef59)" d="M 300.581293 122.284749 
L 300.581293 126.527389 
L 304.823934 126.527389 
L 304.823934 122.284749 
z
" style="fill:#a7226e;stroke:#ffffff;stroke-width:0.48;"/>
    <path clip-path="url(#p50ea08ef59)" d="M 307.34493 122.284749 
L 307.34493 126.527389 
L 311.58757 126.527389 
L 311.58757 122.284749 
z
" style="fill:#a7226e;stroke:#ffffff;stroke-width:0.48;"/>
    <path clip-path="url(#p50ea08ef59)" d="M 314.108566 122.284749 
L 314.108566 126.527389 
L 318.351207 126.527389 
L 318.351207 122.284749 
z
" style="fill:#a7226e;stroke:#ffffff;stroke-width:0.48;"/>
    <path clip-path="url(#p50ea08ef59)" d="M 320.872202 122.284749 
L 320.872202 126.527389 
L 325.114843 126.527389 
L 325.114843 122.284749 
z
" style="fill:#a7226e;stroke:#ffffff;stroke-width:0.48;"/>
    <path clip-path="url(#p50ea08ef59)" d="M 327.635839 122.284749 
L 327.635839 126.527389 
L 331.878479 126.527389 
L 331.878479 122.284749 
z
" style="fill:#a7226e;stroke:#ffffff;stroke-width:0.48;"/>
    <path clip-path="url(#p50ea08ef59)" d="M 334.399475 122.284749 
L 334.399475 126.527389 
L 338.642116 126.527389 
L 338.642116 122.284749 
z
" style="fill:#a7226e;stroke:#ffffff;stroke-width:0.48;"/>
    <path clip-path="url(#p50ea08ef59)" d="M 341.163111 122.284749 
L 341.163111 126.527389 
L 345.405752 126.527389 
L 345.405752 122.284749 
z
" style="fill:#a7226e;stroke:#ffffff;stroke-width:0.48;"/>
    <path clip-path="url(#p50ea08ef59)" d="M 347.926748 122.284749 
L 347.926748 126.527389 
L 352.169389 126.527389 
L 352.169389 122.284749 
z
" style="fill:#a7226e;stroke:#ffffff;stroke-width:0.48;"/>
    <path clip-path="url(#p50ea08ef59)" d="M 354.690384 122.284749 
L 354.690384 126.527389 
L 358.933025 126.527389 
L 358.933025 122.284749 
z
" style="fill:#a7226e;stroke:#ffffff;stroke-width:0.48;"/>
    <path clip-path="url(#p50ea08ef59)" d="M 361.454021 122.284749 
L 361.454021 126.527389 
L 365.696661 126.527389 
L 365.696661 122.284749 
z
" style="fill:#a7226e;stroke:#ffffff;stroke-width:0.48;"/>
    <path clip-path="url(#p50ea08ef59)" d="M 368.217657 122.284749 
L 368.217657 126.527389 
L 372.460298 126.527389 
L 372.460298 122.284749 
z
" style="fill:#a7226e;stroke:#ffffff;stroke-width:0.48;"/>
    <path clip-path="url(#p50ea08ef59)" d="M 374.981293 122.284749 
L 374.981293 126.527389 
L 379.223934 126.527389 
L 379.223934 122.284749 
z
" style="fill:#a7226e;stroke:#ffffff;stroke-width:0.48;"/>
    <path clip-path="url(#p50ea08ef59)" d="M 381.74493 122.284749 
L 381.74493 126.527389 
L 385.98757 126.527389 
L 385.98757 122.284749 
z
" style="fill:#a7226e;stroke:#ffffff;stroke-width:0.48;"/>
    <path clip-path="url(#p50ea08ef59)" d="M 388.508566 122.284749 
L 388.508566 126.527389 
L 392.751207 126.527389 
L 392.751207 122.284749 
z
" style="fill:#a7226e;stroke:#ffffff;stroke-width:0.48;"/>
    <path clip-path="url(#p50ea08ef59)" d="M 395.272202 122.284749 
L 395.272202 126.527389 
L 399.514843 126.527389 
L 399.514843 122.284749 
z
" style="fill:#a7226e;stroke:#ffffff;stroke-width:0.48;"/>
   </g>
   <g id="PathCollection_2"/>
   <g id="PathCollection_3"/>
   <g id="PathCollection_4"/>
   <g id="matplotlib.axis_1">
    <g id="xtick_1">
     <g id="line2d_1">
      <defs>
       <path d="M 0 0 
L 0 3.5 
" id="mab9d7a0975" style="stroke:#000000;stroke-width:0.8;"/>
      </defs>
      <g>
       <use style="stroke:#000000;stroke-width:0.8;" x="65.975341" xlink:href="#mab9d7a0975" y="273.312"/>
      </g>
     </g>
     <g id="text_1">
      <!-- 0.0 -->
      <g transform="translate(58.023778 287.910437)scale(0.1 -0.1)">
       <defs>
        <path d="M 31.78125 66.40625 
Q 24.171875 66.40625 20.328125 58.90625 
Q 16.5 51.421875 16.5 36.375 
Q 16.5 21.390625 20.328125 13.890625 
Q 24.171875 6.390625 31.78125 6.390625 
Q 39.453125 6.390625 43.28125 13.890625 
Q 47.125 21.390625 47.125 36.375 
Q 47.125 51.421875 43.28125 58.90625 
Q 39.453125 66.40625 31.78125 66.40625 
z
M 31.78125 74.21875 
Q 44.046875 74.21875 50.515625 64.515625 
Q 56.984375 54.828125 56.984375 36.375 
Q 56.984375 17.96875 50.515625 8.265625 
Q 44.046875 -1.421875 31.78125 -1.421875 
Q 19.53125 -1.421875 13.0625 8.265625 
Q 6.59375 17.96875 6.59375 36.375 
Q 6.59375 54.828125 13.0625 64.515625 
Q 19.53125 74.21875 31.78125 74.21875 
z
" id="DejaVuSans-48"/>
        <path d="M 10.6875 12.40625 
L 21 12.40625 
L 21 0 
L 10.6875 0 
z
" id="DejaVuSans-46"/>
       </defs>
       <use xlink:href="#DejaVuSans-48"/>
       <use x="63.623047" xlink:href="#DejaVuSans-46"/>
       <use x="95.410156" xlink:href="#DejaVuSans-48"/>
      </g>
     </g>
    </g>
    <g id="xtick_2">
     <g id="line2d_2">
      <g>
       <use style="stroke:#000000;stroke-width:0.8;" x="133.611705" xlink:href="#mab9d7a0975" y="273.312"/>
      </g>
     </g>
     <g id="text_2">
      <!-- 0.2 -->
      <g transform="translate(125.660142 287.910437)scale(0.1 -0.1)">
       <defs>
        <path d="M 19.1875 8.296875 
L 53.609375 8.296875 
L 53.609375 0 
L 7.328125 0 
L 7.328125 8.296875 
Q 12.9375 14.109375 22.625 23.890625 
Q 32.328125 33.6875 34.8125 36.53125 
Q 39.546875 41.84375 41.421875 45.53125 
Q 43.3125 49.21875 43.3125 52.78125 
Q 43.3125 58.59375 39.234375 62.25 
Q 35.15625 65.921875 28.609375 65.921875 
Q 23.96875 65.921875 18.8125 64.3125 
Q 13.671875 62.703125 7.8125 59.421875 
L 7.8125 69.390625 
Q 13.765625 71.78125 18.9375 73 
Q 24.125 74.21875 28.421875 74.21875 
Q 39.75 74.21875 46.484375 68.546875 
Q 53.21875 62.890625 53.21875 53.421875 
Q 53.21875 48.921875 51.53125 44.890625 
Q 49.859375 40.875 45.40625 35.40625 
Q 44.1875 33.984375 37.640625 27.21875 
Q 31.109375 20.453125 19.1875 8.296875 
z
" id="DejaVuSans-50"/>
       </defs>
       <use xlink:href="#DejaVuSans-48"/>
       <use x="63.623047" xlink:href="#DejaVuSans-46"/>
       <use x="95.410156" xlink:href="#DejaVuSans-50"/>
      </g>
     </g>
    </g>
    <g id="xtick_3">
     <g id="line2d_3">
      <g>
       <use style="stroke:#000000;stroke-width:0.8;" x="201.248068" xlink:href="#mab9d7a0975" y="273.312"/>
      </g>
     </g>
     <g id="text_3">
      <!-- 0.4 -->
      <g transform="translate(193.296506 287.910437)scale(0.1 -0.1)">
       <defs>
        <path d="M 37.796875 64.3125 
L 12.890625 25.390625 
L 37.796875 25.390625 
z
M 35.203125 72.90625 
L 47.609375 72.90625 
L 47.609375 25.390625 
L 58.015625 25.390625 
L 58.015625 17.1875 
L 47.609375 17.1875 
L 47.609375 0 
L 37.796875 0 
L 37.796875 17.1875 
L 4.890625 17.1875 
L 4.890625 26.703125 
z
" id="DejaVuSans-52"/>
       </defs>
       <use xlink:href="#DejaVuSans-48"/>
       <use x="63.623047" xlink:href="#DejaVuSans-46"/>
       <use x="95.410156" xlink:href="#DejaVuSans-52"/>
      </g>
     </g>
    </g>
    <g id="xtick_4">
     <g id="line2d_4">
      <g>
       <use style="stroke:#000000;stroke-width:0.8;" x="268.884432" xlink:href="#mab9d7a0975" y="273.312"/>
      </g>
     </g>
     <g id="text_4">
      <!-- 0.6 -->
      <g transform="translate(260.932869 287.910437)scale(0.1 -0.1)">
       <defs>
        <path d="M 33.015625 40.375 
Q 26.375 40.375 22.484375 35.828125 
Q 18.609375 31.296875 18.609375 23.390625 
Q 18.609375 15.53125 22.484375 10.953125 
Q 26.375 6.390625 33.015625 6.390625 
Q 39.65625 6.390625 43.53125 10.953125 
Q 47.40625 15.53125 47.40625 23.390625 
Q 47.40625 31.296875 43.53125 35.828125 
Q 39.65625 40.375 33.015625 40.375 
z
M 52.59375 71.296875 
L 52.59375 62.3125 
Q 48.875 64.0625 45.09375 64.984375 
Q 41.3125 65.921875 37.59375 65.921875 
Q 27.828125 65.921875 22.671875 59.328125 
Q 17.53125 52.734375 16.796875 39.40625 
Q 19.671875 43.65625 24.015625 45.921875 
Q 28.375 48.1875 33.59375 48.1875 
Q 44.578125 48.1875 50.953125 41.515625 
Q 57.328125 34.859375 57.328125 23.390625 
Q 57.328125 12.15625 50.6875 5.359375 
Q 44.046875 -1.421875 33.015625 -1.421875 
Q 20.359375 -1.421875 13.671875 8.265625 
Q 6.984375 17.96875 6.984375 36.375 
Q 6.984375 53.65625 15.1875 63.9375 
Q 23.390625 74.21875 37.203125 74.21875 
Q 40.921875 74.21875 44.703125 73.484375 
Q 48.484375 72.75 52.59375 71.296875 
z
" id="DejaVuSans-54"/>
       </defs>
       <use xlink:href="#DejaVuSans-48"/>
       <use x="63.623047" xlink:href="#DejaVuSans-46"/>
       <use x="95.410156" xlink:href="#DejaVuSans-54"/>
      </g>
     </g>
    </g>
    <g id="xtick_5">
     <g id="line2d_5">
      <g>
       <use style="stroke:#000000;stroke-width:0.8;" x="336.520795" xlink:href="#mab9d7a0975" y="273.312"/>
      </g>
     </g>
     <g id="text_5">
      <!-- 0.8 -->
      <g transform="translate(328.569233 287.910437)scale(0.1 -0.1)">
       <defs>
        <path d="M 31.78125 34.625 
Q 24.75 34.625 20.71875 30.859375 
Q 16.703125 27.09375 16.703125 20.515625 
Q 16.703125 13.921875 20.71875 10.15625 
Q 24.75 6.390625 31.78125 6.390625 
Q 38.8125 6.390625 42.859375 10.171875 
Q 46.921875 13.96875 46.921875 20.515625 
Q 46.921875 27.09375 42.890625 30.859375 
Q 38.875 34.625 31.78125 34.625 
z
M 21.921875 38.8125 
Q 15.578125 40.375 12.03125 44.71875 
Q 8.5 49.078125 8.5 55.328125 
Q 8.5 64.0625 14.71875 69.140625 
Q 20.953125 74.21875 31.78125 74.21875 
Q 42.671875 74.21875 48.875 69.140625 
Q 55.078125 64.0625 55.078125 55.328125 
Q 55.078125 49.078125 51.53125 44.71875 
Q 48 40.375 41.703125 38.8125 
Q 48.828125 37.15625 52.796875 32.3125 
Q 56.78125 27.484375 56.78125 20.515625 
Q 56.78125 9.90625 50.3125 4.234375 
Q 43.84375 -1.421875 31.78125 -1.421875 
Q 19.734375 -1.421875 13.25 4.234375 
Q 6.78125 9.90625 6.78125 20.515625 
Q 6.78125 27.484375 10.78125 32.3125 
Q 14.796875 37.15625 21.921875 38.8125 
z
M 18.3125 54.390625 
Q 18.3125 48.734375 21.84375 45.5625 
Q 25.390625 42.390625 31.78125 42.390625 
Q 38.140625 42.390625 41.71875 45.5625 
Q 45.3125 48.734375 45.3125 54.390625 
Q 45.3125 60.0625 41.71875 63.234375 
Q 38.140625 66.40625 31.78125 66.40625 
Q 25.390625 66.40625 21.84375 63.234375 
Q 18.3125 60.0625 18.3125 54.390625 
z
" id="DejaVuSans-56"/>
       </defs>
       <use xlink:href="#DejaVuSans-48"/>
       <use x="63.623047" xlink:href="#DejaVuSans-46"/>
       <use x="95.410156" xlink:href="#DejaVuSans-56"/>
      </g>
     </g>
    </g>
    <g id="xtick_6">
     <g id="line2d_6">
      <g>
       <use style="stroke:#000000;stroke-width:0.8;" x="404.157159" xlink:href="#mab9d7a0975" y="273.312"/>
      </g>
     </g>
     <g id="text_6">
      <!-- 1.0 -->
      <g transform="translate(396.205597 287.910437)scale(0.1 -0.1)">
       <defs>
        <path d="M 12.40625 8.296875 
L 28.515625 8.296875 
L 28.515625 63.921875 
L 10.984375 60.40625 
L 10.984375 69.390625 
L 28.421875 72.90625 
L 38.28125 72.90625 
L 38.28125 8.296875 
L 54.390625 8.296875 
L 54.390625 0 
L 12.40625 0 
z
" id="DejaVuSans-49"/>
       </defs>
       <use xlink:href="#DejaVuSans-49"/>
       <use x="63.623047" xlink:href="#DejaVuSans-46"/>
       <use x="95.410156" xlink:href="#DejaVuSans-48"/>
      </g>
     </g>
    </g>
    <g id="text_7">
     <!-- cutoff -->
     <g transform="translate(220.608438 301.588562)scale(0.1 -0.1)">
      <defs>
       <path d="M 48.78125 52.59375 
L 48.78125 44.1875 
Q 44.96875 46.296875 41.140625 47.34375 
Q 37.3125 48.390625 33.40625 48.390625 
Q 24.65625 48.390625 19.8125 42.84375 
Q 14.984375 37.3125 14.984375 27.296875 
Q 14.984375 17.28125 19.8125 11.734375 
Q 24.65625 6.203125 33.40625 6.203125 
Q 37.3125 6.203125 41.140625 7.25 
Q 44.96875 8.296875 48.78125 10.40625 
L 48.78125 2.09375 
Q 45.015625 0.34375 40.984375 -0.53125 
Q 36.96875 -1.421875 32.421875 -1.421875 
Q 20.0625 -1.421875 12.78125 6.34375 
Q 5.515625 14.109375 5.515625 27.296875 
Q 5.515625 40.671875 12.859375 48.328125 
Q 20.21875 56 33.015625 56 
Q 37.15625 56 41.109375 55.140625 
Q 45.0625 54.296875 48.78125 52.59375 
z
" id="DejaVuSans-99"/>
       <path d="M 8.5 21.578125 
L 8.5 54.6875 
L 17.484375 54.6875 
L 17.484375 21.921875 
Q 17.484375 14.15625 20.5 10.265625 
Q 23.53125 6.390625 29.59375 6.390625 
Q 36.859375 6.390625 41.078125 11.03125 
Q 45.3125 15.671875 45.3125 23.6875 
L 45.3125 54.6875 
L 54.296875 54.6875 
L 54.296875 0 
L 45.3125 0 
L 45.3125 8.40625 
Q 42.046875 3.421875 37.71875 1 
Q 33.40625 -1.421875 27.6875 -1.421875 
Q 18.265625 -1.421875 13.375 4.4375 
Q 8.5 10.296875 8.5 21.578125 
z
M 31.109375 56 
z
" id="DejaVuSans-117"/>
       <path d="M 18.3125 70.21875 
L 18.3125 54.6875 
L 36.8125 54.6875 
L 36.8125 47.703125 
L 18.3125 47.703125 
L 18.3125 18.015625 
Q 18.3125 11.328125 20.140625 9.421875 
Q 21.96875 7.515625 27.59375 7.515625 
L 36.8125 7.515625 
L 36.8125 0 
L 27.59375 0 
Q 17.1875 0 13.234375 3.875 
Q 9.28125 7.765625 9.28125 18.015625 
L 9.28125 47.703125 
L 2.6875 47.703125 
L 2.6875 54.6875 
L 9.28125 54.6875 
L 9.28125 70.21875 
z
" id="DejaVuSans-116"/>
       <path d="M 30.609375 48.390625 
Q 23.390625 48.390625 19.1875 42.75 
Q 14.984375 37.109375 14.984375 27.296875 
Q 14.984375 17.484375 19.15625 11.84375 
Q 23.34375 6.203125 30.609375 6.203125 
Q 37.796875 6.203125 41.984375 11.859375 
Q 46.1875 17.53125 46.1875 27.296875 
Q 46.1875 37.015625 41.984375 42.703125 
Q 37.796875 48.390625 30.609375 48.390625 
z
M 30.609375 56 
Q 42.328125 56 49.015625 48.375 
Q 55.71875 40.765625 55.71875 27.296875 
Q 55.71875 13.875 49.015625 6.21875 
Q 42.328125 -1.421875 30.609375 -1.421875 
Q 18.84375 -1.421875 12.171875 6.21875 
Q 5.515625 13.875 5.515625 27.296875 
Q 5.515625 40.765625 12.171875 48.375 
Q 18.84375 56 30.609375 56 
z
" id="DejaVuSans-111"/>
       <path d="M 37.109375 75.984375 
L 37.109375 68.5 
L 28.515625 68.5 
Q 23.6875 68.5 21.796875 66.546875 
Q 19.921875 64.59375 19.921875 59.515625 
L 19.921875 54.6875 
L 34.71875 54.6875 
L 34.71875 47.703125 
L 19.921875 47.703125 
L 19.921875 0 
L 10.890625 0 
L 10.890625 47.703125 
L 2.296875 47.703125 
L 2.296875 54.6875 
L 10.890625 54.6875 
L 10.890625 58.5 
Q 10.890625 67.625 15.140625 71.796875 
Q 19.390625 75.984375 28.609375 75.984375 
z
" id="DejaVuSans-102"/>
      </defs>
      <use xlink:href="#DejaVuSans-99"/>
      <use x="54.980469" xlink:href="#DejaVuSans-117"/>
      <use x="118.359375" xlink:href="#DejaVuSans-116"/>
      <use x="157.568359" xlink:href="#DejaVuSans-111"/>
      <use x="218.75" xlink:href="#DejaVuSans-102"/>
      <use x="253.955078" xlink:href="#DejaVuSans-102"/>
     </g>
    </g>
   </g>
   <g id="matplotlib.axis_2">
    <g id="ytick_1">
     <g id="line2d_7">
      <defs>
       <path d="M 0 0 
L -3.5 0 
" id="m141e995fd9" style="stroke:#000000;stroke-width:0.8;"/>
      </defs>
      <g>
       <use style="stroke:#000000;stroke-width:0.8;" x="56.50625" xlink:href="#m141e995fd9" y="245.680655"/>
      </g>
     </g>
     <g id="text_8">
      <!-- 0.475 -->
      <g transform="translate(20.878125 249.479874)scale(0.1 -0.1)">
       <defs>
        <path d="M 8.203125 72.90625 
L 55.078125 72.90625 
L 55.078125 68.703125 
L 28.609375 0 
L 18.3125 0 
L 43.21875 64.59375 
L 8.203125 64.59375 
z
" id="DejaVuSans-55"/>
        <path d="M 10.796875 72.90625 
L 49.515625 72.90625 
L 49.515625 64.59375 
L 19.828125 64.59375 
L 19.828125 46.734375 
Q 21.96875 47.46875 24.109375 47.828125 
Q 26.265625 48.1875 28.421875 48.1875 
Q 40.625 48.1875 47.75 41.5 
Q 54.890625 34.8125 54.890625 23.390625 
Q 54.890625 11.625 47.5625 5.09375 
Q 40.234375 -1.421875 26.90625 -1.421875 
Q 22.3125 -1.421875 17.546875 -0.640625 
Q 12.796875 0.140625 7.71875 1.703125 
L 7.71875 11.625 
Q 12.109375 9.234375 16.796875 8.0625 
Q 21.484375 6.890625 26.703125 6.890625 
Q 35.15625 6.890625 40.078125 11.328125 
Q 45.015625 15.765625 45.015625 23.390625 
Q 45.015625 31 40.078125 35.4375 
Q 35.15625 39.890625 26.703125 39.890625 
Q 22.75 39.890625 18.8125 39.015625 
Q 14.890625 38.140625 10.796875 36.28125 
z
" id="DejaVuSans-53"/>
       </defs>
       <use xlink:href="#DejaVuSans-48"/>
       <use x="63.623047" xlink:href="#DejaVuSans-46"/>
       <use x="95.410156" xlink:href="#DejaVuSans-52"/>
       <use x="159.033203" xlink:href="#DejaVuSans-55"/>
       <use x="222.65625" xlink:href="#DejaVuSans-53"/>
      </g>
     </g>
    </g>
    <g id="ytick_2">
     <g id="line2d_8">
      <g>
       <use style="stroke:#000000;stroke-width:0.8;" x="56.50625" xlink:href="#m141e995fd9" y="213.41494"/>
      </g>
     </g>
     <g id="text_9">
      <!-- 0.500 -->
      <g transform="translate(20.878125 217.214159)scale(0.1 -0.1)">
       <use xlink:href="#DejaVuSans-48"/>
       <use x="63.623047" xlink:href="#DejaVuSans-46"/>
       <use x="95.410156" xlink:href="#DejaVuSans-53"/>
       <use x="159.033203" xlink:href="#DejaVuSans-48"/>
       <use x="222.65625" xlink:href="#DejaVuSans-48"/>
      </g>
     </g>
    </g>
    <g id="ytick_3">
     <g id="line2d_9">
      <g>
       <use style="stroke:#000000;stroke-width:0.8;" x="56.50625" xlink:href="#m141e995fd9" y="181.149224"/>
      </g>
     </g>
     <g id="text_10">
      <!-- 0.525 -->
      <g transform="translate(20.878125 184.948443)scale(0.1 -0.1)">
       <use xlink:href="#DejaVuSans-48"/>
       <use x="63.623047" xlink:href="#DejaVuSans-46"/>
       <use x="95.410156" xlink:href="#DejaVuSans-53"/>
       <use x="159.033203" xlink:href="#DejaVuSans-50"/>
       <use x="222.65625" xlink:href="#DejaVuSans-53"/>
      </g>
     </g>
    </g>
    <g id="ytick_4">
     <g id="line2d_10">
      <g>
       <use style="stroke:#000000;stroke-width:0.8;" x="56.50625" xlink:href="#m141e995fd9" y="148.883508"/>
      </g>
     </g>
     <g id="text_11">
      <!-- 0.550 -->
      <g transform="translate(20.878125 152.682727)scale(0.1 -0.1)">
       <use xlink:href="#DejaVuSans-48"/>
       <use x="63.623047" xlink:href="#DejaVuSans-46"/>
       <use x="95.410156" xlink:href="#DejaVuSans-53"/>
       <use x="159.033203" xlink:href="#DejaVuSans-53"/>
       <use x="222.65625" xlink:href="#DejaVuSans-48"/>
      </g>
     </g>
    </g>
    <g id="ytick_5">
     <g id="line2d_11">
      <g>
       <use style="stroke:#000000;stroke-width:0.8;" x="56.50625" xlink:href="#m141e995fd9" y="116.617793"/>
      </g>
     </g>
     <g id="text_12">
      <!-- 0.575 -->
      <g transform="translate(20.878125 120.417012)scale(0.1 -0.1)">
       <use xlink:href="#DejaVuSans-48"/>
       <use x="63.623047" xlink:href="#DejaVuSans-46"/>
       <use x="95.410156" xlink:href="#DejaVuSans-53"/>
       <use x="159.033203" xlink:href="#DejaVuSans-55"/>
       <use x="222.65625" xlink:href="#DejaVuSans-53"/>
      </g>
     </g>
    </g>
    <g id="ytick_6">
     <g id="line2d_12">
      <g>
       <use style="stroke:#000000;stroke-width:0.8;" x="56.50625" xlink:href="#m141e995fd9" y="84.352077"/>
      </g>
     </g>
     <g id="text_13">
      <!-- 0.600 -->
      <g transform="translate(20.878125 88.151296)scale(0.1 -0.1)">
       <use xlink:href="#DejaVuSans-48"/>
       <use x="63.623047" xlink:href="#DejaVuSans-46"/>
       <use x="95.410156" xlink:href="#DejaVuSans-54"/>
       <use x="159.033203" xlink:href="#DejaVuSans-48"/>
       <use x="222.65625" xlink:href="#DejaVuSans-48"/>
      </g>
     </g>
    </g>
    <g id="ytick_7">
     <g id="line2d_13">
      <g>
       <use style="stroke:#000000;stroke-width:0.8;" x="56.50625" xlink:href="#m141e995fd9" y="52.086361"/>
      </g>
     </g>
     <g id="text_14">
      <!-- 0.625 -->
      <g transform="translate(20.878125 55.88558)scale(0.1 -0.1)">
       <use xlink:href="#DejaVuSans-48"/>
       <use x="63.623047" xlink:href="#DejaVuSans-46"/>
       <use x="95.410156" xlink:href="#DejaVuSans-54"/>
       <use x="159.033203" xlink:href="#DejaVuSans-50"/>
       <use x="222.65625" xlink:href="#DejaVuSans-53"/>
      </g>
     </g>
    </g>
    <g id="ytick_8">
     <g id="line2d_14">
      <g>
       <use style="stroke:#000000;stroke-width:0.8;" x="56.50625" xlink:href="#m141e995fd9" y="19.820646"/>
      </g>
     </g>
     <g id="text_15">
      <!-- 0.650 -->
      <g transform="translate(20.878125 23.619865)scale(0.1 -0.1)">
       <use xlink:href="#DejaVuSans-48"/>
       <use x="63.623047" xlink:href="#DejaVuSans-46"/>
       <use x="95.410156" xlink:href="#DejaVuSans-54"/>
       <use x="159.033203" xlink:href="#DejaVuSans-53"/>
       <use x="222.65625" xlink:href="#DejaVuSans-48"/>
      </g>
     </g>
    </g>
    <g id="text_16">
     <!-- performance -->
     <g transform="translate(14.798437 172.278656)rotate(-90)scale(0.1 -0.1)">
      <defs>
       <path d="M 18.109375 8.203125 
L 18.109375 -20.796875 
L 9.078125 -20.796875 
L 9.078125 54.6875 
L 18.109375 54.6875 
L 18.109375 46.390625 
Q 20.953125 51.265625 25.265625 53.625 
Q 29.59375 56 35.59375 56 
Q 45.5625 56 51.78125 48.09375 
Q 58.015625 40.1875 58.015625 27.296875 
Q 58.015625 14.40625 51.78125 6.484375 
Q 45.5625 -1.421875 35.59375 -1.421875 
Q 29.59375 -1.421875 25.265625 0.953125 
Q 20.953125 3.328125 18.109375 8.203125 
z
M 48.6875 27.296875 
Q 48.6875 37.203125 44.609375 42.84375 
Q 40.53125 48.484375 33.40625 48.484375 
Q 26.265625 48.484375 22.1875 42.84375 
Q 18.109375 37.203125 18.109375 27.296875 
Q 18.109375 17.390625 22.1875 11.75 
Q 26.265625 6.109375 33.40625 6.109375 
Q 40.53125 6.109375 44.609375 11.75 
Q 48.6875 17.390625 48.6875 27.296875 
z
" id="DejaVuSans-112"/>
       <path d="M 56.203125 29.59375 
L 56.203125 25.203125 
L 14.890625 25.203125 
Q 15.484375 15.921875 20.484375 11.0625 
Q 25.484375 6.203125 34.421875 6.203125 
Q 39.59375 6.203125 44.453125 7.46875 
Q 49.3125 8.734375 54.109375 11.28125 
L 54.109375 2.78125 
Q 49.265625 0.734375 44.1875 -0.34375 
Q 39.109375 -1.421875 33.890625 -1.421875 
Q 20.796875 -1.421875 13.15625 6.1875 
Q 5.515625 13.8125 5.515625 26.8125 
Q 5.515625 40.234375 12.765625 48.109375 
Q 20.015625 56 32.328125 56 
Q 43.359375 56 49.78125 48.890625 
Q 56.203125 41.796875 56.203125 29.59375 
z
M 47.21875 32.234375 
Q 47.125 39.59375 43.09375 43.984375 
Q 39.0625 48.390625 32.421875 48.390625 
Q 24.90625 48.390625 20.390625 44.140625 
Q 15.875 39.890625 15.1875 32.171875 
z
" id="DejaVuSans-101"/>
       <path d="M 41.109375 46.296875 
Q 39.59375 47.171875 37.8125 47.578125 
Q 36.03125 48 33.890625 48 
Q 26.265625 48 22.1875 43.046875 
Q 18.109375 38.09375 18.109375 28.8125 
L 18.109375 0 
L 9.078125 0 
L 9.078125 54.6875 
L 18.109375 54.6875 
L 18.109375 46.1875 
Q 20.953125 51.171875 25.484375 53.578125 
Q 30.03125 56 36.53125 56 
Q 37.453125 56 38.578125 55.875 
Q 39.703125 55.765625 41.0625 55.515625 
z
" id="DejaVuSans-114"/>
       <path d="M 52 44.1875 
Q 55.375 50.25 60.0625 53.125 
Q 64.75 56 71.09375 56 
Q 79.640625 56 84.28125 50.015625 
Q 88.921875 44.046875 88.921875 33.015625 
L 88.921875 0 
L 79.890625 0 
L 79.890625 32.71875 
Q 79.890625 40.578125 77.09375 44.375 
Q 74.3125 48.1875 68.609375 48.1875 
Q 61.625 48.1875 57.5625 43.546875 
Q 53.515625 38.921875 53.515625 30.90625 
L 53.515625 0 
L 44.484375 0 
L 44.484375 32.71875 
Q 44.484375 40.625 41.703125 44.40625 
Q 38.921875 48.1875 33.109375 48.1875 
Q 26.21875 48.1875 22.15625 43.53125 
Q 18.109375 38.875 18.109375 30.90625 
L 18.109375 0 
L 9.078125 0 
L 9.078125 54.6875 
L 18.109375 54.6875 
L 18.109375 46.1875 
Q 21.1875 51.21875 25.484375 53.609375 
Q 29.78125 56 35.6875 56 
Q 41.65625 56 45.828125 52.96875 
Q 50 49.953125 52 44.1875 
z
" id="DejaVuSans-109"/>
       <path d="M 34.28125 27.484375 
Q 23.390625 27.484375 19.1875 25 
Q 14.984375 22.515625 14.984375 16.5 
Q 14.984375 11.71875 18.140625 8.90625 
Q 21.296875 6.109375 26.703125 6.109375 
Q 34.1875 6.109375 38.703125 11.40625 
Q 43.21875 16.703125 43.21875 25.484375 
L 43.21875 27.484375 
z
M 52.203125 31.203125 
L 52.203125 0 
L 43.21875 0 
L 43.21875 8.296875 
Q 40.140625 3.328125 35.546875 0.953125 
Q 30.953125 -1.421875 24.3125 -1.421875 
Q 15.921875 -1.421875 10.953125 3.296875 
Q 6 8.015625 6 15.921875 
Q 6 25.140625 12.171875 29.828125 
Q 18.359375 34.515625 30.609375 34.515625 
L 43.21875 34.515625 
L 43.21875 35.40625 
Q 43.21875 41.609375 39.140625 45 
Q 35.0625 48.390625 27.6875 48.390625 
Q 23 48.390625 18.546875 47.265625 
Q 14.109375 46.140625 10.015625 43.890625 
L 10.015625 52.203125 
Q 14.9375 54.109375 19.578125 55.046875 
Q 24.21875 56 28.609375 56 
Q 40.484375 56 46.34375 49.84375 
Q 52.203125 43.703125 52.203125 31.203125 
z
" id="DejaVuSans-97"/>
       <path d="M 54.890625 33.015625 
L 54.890625 0 
L 45.90625 0 
L 45.90625 32.71875 
Q 45.90625 40.484375 42.875 44.328125 
Q 39.84375 48.1875 33.796875 48.1875 
Q 26.515625 48.1875 22.3125 43.546875 
Q 18.109375 38.921875 18.109375 30.90625 
L 18.109375 0 
L 9.078125 0 
L 9.078125 54.6875 
L 18.109375 54.6875 
L 18.109375 46.1875 
Q 21.34375 51.125 25.703125 53.5625 
Q 30.078125 56 35.796875 56 
Q 45.21875 56 50.046875 50.171875 
Q 54.890625 44.34375 54.890625 33.015625 
z
" id="DejaVuSans-110"/>
      </defs>
      <use xlink:href="#DejaVuSans-112"/>
      <use x="63.476562" xlink:href="#DejaVuSans-101"/>
      <use x="125" xlink:href="#DejaVuSans-114"/>
      <use x="166.113281" xlink:href="#DejaVuSans-102"/>
      <use x="201.318359" xlink:href="#DejaVuSans-111"/>
      <use x="262.5" xlink:href="#DejaVuSans-114"/>
      <use x="301.863281" xlink:href="#DejaVuSans-109"/>
      <use x="399.275391" xlink:href="#DejaVuSans-97"/>
      <use x="460.554688" xlink:href="#DejaVuSans-110"/>
      <use x="523.933594" xlink:href="#DejaVuSans-99"/>
      <use x="578.914062" xlink:href="#DejaVuSans-101"/>
     </g>
    </g>
   </g>
   <g id="line2d_15">
    <path clip-path="url(#p50ea08ef59)" d="M 72.738977 19.296 
L 79.502614 33.573246 
L 86.26625 33.573246 
L 93.029886 33.573246 
L 99.793523 33.573246 
L 106.557159 33.573246 
L 113.320795 33.573246 
L 120.084432 19.296 
L 126.848068 19.296 
L 133.611705 108.620308 
L 140.375341 108.620308 
L 147.138977 124.406069 
L 153.902614 124.406069 
L 160.66625 124.406069 
L 167.429886 173.439717 
L 174.193523 173.439717 
L 180.957159 173.439717 
L 187.720795 173.439717 
L 194.484432 173.439717 
L 201.248068 173.439717 
L 208.011705 173.439717 
L 214.775341 173.439717 
L 221.538977 173.439717 
L 228.302614 173.439717 
L 235.06625 173.439717 
L 241.829886 124.406069 
L 248.593523 124.406069 
L 255.357159 124.406069 
L 262.120795 124.406069 
L 268.884432 124.406069 
L 275.648068 124.406069 
L 282.411705 124.406069 
L 289.175341 124.406069 
L 295.938977 124.406069 
L 302.702614 124.406069 
L 309.46625 124.406069 
L 316.229886 124.406069 
L 322.993523 124.406069 
L 329.757159 124.406069 
L 336.520795 124.406069 
L 343.284432 124.406069 
L 350.048068 124.406069 
L 356.811705 124.406069 
L 363.575341 124.406069 
L 370.338977 124.406069 
L 377.102614 124.406069 
L 383.86625 124.406069 
L 390.629886 124.406069 
L 397.393523 124.406069 
" style="fill:none;stroke:#f26b38;stroke-dasharray:7.4,3.2;stroke-dashoffset:0;stroke-width:2;"/>
   </g>
   <g id="line2d_16">
    <path clip-path="url(#p50ea08ef59)" d="M 72.738977 33.573246 
L 79.502614 124.406069 
L 86.26625 124.406069 
L 93.029886 190.368 
L 99.793523 207.601297 
L 106.557159 261.216 
L 113.320795 261.216 
L 120.084432 261.216 
L 126.848068 261.216 
L 133.611705 261.216 
L 140.375341 261.216 
L 147.138977 261.216 
L 153.902614 261.216 
L 160.66625 261.216 
L 167.429886 261.216 
L 174.193523 261.216 
L 180.957159 207.601297 
L 187.720795 207.601297 
L 194.484432 207.601297 
L 201.248068 207.601297 
L 208.011705 207.601297 
L 214.775341 207.601297 
L 221.538977 207.601297 
L 228.302614 207.601297 
L 235.06625 207.601297 
L 241.829886 207.601297 
L 248.593523 207.601297 
L 255.357159 207.601297 
L 262.120795 207.601297 
L 268.884432 207.601297 
L 275.648068 207.601297 
L 282.411705 207.601297 
L 289.175341 207.601297 
L 295.938977 207.601297 
L 302.702614 207.601297 
L 309.46625 207.601297 
L 316.229886 207.601297 
L 322.993523 207.601297 
L 329.757159 207.601297 
L 336.520795 207.601297 
L 343.284432 207.601297 
L 350.048068 207.601297 
L 356.811705 207.601297 
L 363.575341 207.601297 
L 370.338977 207.601297 
L 377.102614 207.601297 
L 383.86625 207.601297 
L 390.629886 207.601297 
L 397.393523 207.601297 
" style="fill:none;stroke:#2f9599;stroke-dasharray:2,3.3;stroke-dashoffset:0;stroke-width:2;"/>
   </g>
   <g id="line2d_17">
    <path clip-path="url(#p50ea08ef59)" d="M 72.738977 48.086479 
L 79.502614 48.086479 
L 86.26625 48.086479 
L 93.029886 48.086479 
L 99.793523 48.086479 
L 106.557159 48.086479 
L 113.320795 48.086479 
L 120.084432 62.8416 
L 126.848068 48.086479 
L 133.611705 48.086479 
L 140.375341 48.086479 
L 147.138977 48.086479 
L 153.902614 48.086479 
L 160.66625 48.086479 
L 167.429886 48.086479 
L 174.193523 48.086479 
L 180.957159 33.573246 
L 187.720795 33.573246 
L 194.484432 33.573246 
L 201.248068 19.296 
L 208.011705 19.296 
L 214.775341 124.406069 
L 221.538977 124.406069 
L 228.302614 140.466365 
L 235.06625 140.466365 
L 241.829886 140.466365 
L 248.593523 190.368 
L 255.357159 190.368 
L 262.120795 190.368 
L 268.884432 190.368 
L 275.648068 190.368 
L 282.411705 190.368 
L 289.175341 190.368 
L 295.938977 124.406069 
L 302.702614 124.406069 
L 309.46625 124.406069 
L 316.229886 124.406069 
L 322.993523 124.406069 
L 329.757159 124.406069 
L 336.520795 124.406069 
L 343.284432 124.406069 
L 350.048068 124.406069 
L 356.811705 124.406069 
L 363.575341 124.406069 
L 370.338977 124.406069 
L 377.102614 124.406069 
L 383.86625 124.406069 
L 390.629886 124.406069 
L 397.393523 124.406069 
" style="fill:none;stroke:#a7226e;stroke-dasharray:12.8,3.2,2,3.2;stroke-dashoffset:0;stroke-width:2;"/>
   </g>
   <g id="patch_3">
    <path d="M 56.50625 273.312 
L 56.50625 7.2 
" style="fill:none;stroke:#000000;stroke-linecap:square;stroke-linejoin:miter;stroke-width:0.8;"/>
   </g>
   <g id="patch_4">
    <path d="M 413.62625 273.312 
L 413.62625 7.2 
" style="fill:none;stroke:#000000;stroke-linecap:square;stroke-linejoin:miter;stroke-width:0.8;"/>
   </g>
   <g id="patch_5">
    <path d="M 56.50625 273.312 
L 413.62625 273.312 
" style="fill:none;stroke:#000000;stroke-linecap:square;stroke-linejoin:miter;stroke-width:0.8;"/>
   </g>
   <g id="patch_6">
    <path d="M 56.50625 7.2 
L 413.62625 7.2 
" style="fill:none;stroke:#000000;stroke-linecap:square;stroke-linejoin:miter;stroke-width:0.8;"/>
   </g>
   <g id="legend_1">
    <g id="patch_7">
     <path d="M 328.152559 43.890912 
L 408.76825 43.890912 
Q 410.15625 43.890912 410.15625 42.502912 
L 410.15625 12.058 
Q 410.15625 10.67 408.76825 10.67 
L 328.152559 10.67 
Q 326.764559 10.67 326.764559 12.058 
L 326.764559 42.502912 
Q 326.764559 43.890912 328.152559 43.890912 
z
" style="fill:#ffffff;opacity:0.8;stroke:#cccccc;stroke-linejoin:miter;"/>
    </g>
    <g id="PathCollection_5">
     <defs>
      <path d="M 0 3 
C 0.795609 3 1.55874 2.683901 2.12132 2.12132 
C 2.683901 1.55874 3 0.795609 3 0 
C 3 -0.795609 2.683901 -1.55874 2.12132 -2.12132 
C 1.55874 -2.683901 0.795609 -3 0 -3 
C -0.795609 -3 -1.55874 -2.683901 -2.12132 -2.12132 
C -2.683901 -1.55874 -3 -0.795609 -3 0 
C -3 0.795609 -2.683901 1.55874 -2.12132 2.12132 
C -1.55874 2.683901 -0.795609 3 0 3 
z
" id="mb88b823f71" style="stroke:#f26b38;"/>
     </defs>
     <g>
      <use style="fill:#f26b38;stroke:#f26b38;" x="336.480559" xlink:href="#mb88b823f71" y="16.897566"/>
     </g>
    </g>
    <g id="text_17">
     <!-- mean_err -->
     <g transform="translate(348.972559 18.719316)scale(0.0694 -0.0694)">
      <defs>
       <path d="M 50.984375 -16.609375 
L 50.984375 -23.578125 
L -0.984375 -23.578125 
L -0.984375 -16.609375 
z
" id="DejaVuSans-95"/>
      </defs>
      <use xlink:href="#DejaVuSans-109"/>
      <use x="97.412109" xlink:href="#DejaVuSans-101"/>
      <use x="158.935547" xlink:href="#DejaVuSans-97"/>
      <use x="220.214844" xlink:href="#DejaVuSans-110"/>
      <use x="283.59375" xlink:href="#DejaVuSans-95"/>
      <use x="333.59375" xlink:href="#DejaVuSans-101"/>
      <use x="395.117188" xlink:href="#DejaVuSans-114"/>
      <use x="434.480469" xlink:href="#DejaVuSans-114"/>
     </g>
    </g>
    <g id="PathCollection_6">
     <defs>
      <path d="M -1.5 3 
L 0 1.5 
L 1.5 3 
L 3 1.5 
L 1.5 0 
L 3 -1.5 
L 1.5 -3 
L 0 -1.5 
L -1.5 -3 
L -3 -1.5 
L -1.5 0 
L -3 1.5 
z
" id="mdd32b9d776" style="stroke:#2f9599;"/>
     </defs>
     <g>
      <use style="fill:#2f9599;stroke:#2f9599;" x="336.480559" xlink:href="#mdd32b9d776" y="27.277203"/>
     </g>
    </g>
    <g id="text_18">
     <!-- mean_sq_err -->
     <g transform="translate(348.972559 29.098953)scale(0.0694 -0.0694)">
      <defs>
       <path d="M 44.28125 53.078125 
L 44.28125 44.578125 
Q 40.484375 46.53125 36.375 47.5 
Q 32.28125 48.484375 27.875 48.484375 
Q 21.1875 48.484375 17.84375 46.4375 
Q 14.5 44.390625 14.5 40.28125 
Q 14.5 37.15625 16.890625 35.375 
Q 19.28125 33.59375 26.515625 31.984375 
L 29.59375 31.296875 
Q 39.15625 29.25 43.1875 25.515625 
Q 47.21875 21.78125 47.21875 15.09375 
Q 47.21875 7.46875 41.1875 3.015625 
Q 35.15625 -1.421875 24.609375 -1.421875 
Q 20.21875 -1.421875 15.453125 -0.5625 
Q 10.6875 0.296875 5.421875 2 
L 5.421875 11.28125 
Q 10.40625 8.6875 15.234375 7.390625 
Q 20.0625 6.109375 24.8125 6.109375 
Q 31.15625 6.109375 34.5625 8.28125 
Q 37.984375 10.453125 37.984375 14.40625 
Q 37.984375 18.0625 35.515625 20.015625 
Q 33.0625 21.96875 24.703125 23.78125 
L 21.578125 24.515625 
Q 13.234375 26.265625 9.515625 29.90625 
Q 5.8125 33.546875 5.8125 39.890625 
Q 5.8125 47.609375 11.28125 51.796875 
Q 16.75 56 26.8125 56 
Q 31.78125 56 36.171875 55.265625 
Q 40.578125 54.546875 44.28125 53.078125 
z
" id="DejaVuSans-115"/>
       <path d="M 14.796875 27.296875 
Q 14.796875 17.390625 18.875 11.75 
Q 22.953125 6.109375 30.078125 6.109375 
Q 37.203125 6.109375 41.296875 11.75 
Q 45.40625 17.390625 45.40625 27.296875 
Q 45.40625 37.203125 41.296875 42.84375 
Q 37.203125 48.484375 30.078125 48.484375 
Q 22.953125 48.484375 18.875 42.84375 
Q 14.796875 37.203125 14.796875 27.296875 
z
M 45.40625 8.203125 
Q 42.578125 3.328125 38.25 0.953125 
Q 33.9375 -1.421875 27.875 -1.421875 
Q 17.96875 -1.421875 11.734375 6.484375 
Q 5.515625 14.40625 5.515625 27.296875 
Q 5.515625 40.1875 11.734375 48.09375 
Q 17.96875 56 27.875 56 
Q 33.9375 56 38.25 53.625 
Q 42.578125 51.265625 45.40625 46.390625 
L 45.40625 54.6875 
L 54.390625 54.6875 
L 54.390625 -20.796875 
L 45.40625 -20.796875 
z
" id="DejaVuSans-113"/>
      </defs>
      <use xlink:href="#DejaVuSans-109"/>
      <use x="97.412109" xlink:href="#DejaVuSans-101"/>
      <use x="158.935547" xlink:href="#DejaVuSans-97"/>
      <use x="220.214844" xlink:href="#DejaVuSans-110"/>
      <use x="283.59375" xlink:href="#DejaVuSans-95"/>
      <use x="333.59375" xlink:href="#DejaVuSans-115"/>
      <use x="385.693359" xlink:href="#DejaVuSans-113"/>
      <use x="449.169922" xlink:href="#DejaVuSans-95"/>
      <use x="499.169922" xlink:href="#DejaVuSans-101"/>
      <use x="560.693359" xlink:href="#DejaVuSans-114"/>
      <use x="600.056641" xlink:href="#DejaVuSans-114"/>
     </g>
    </g>
    <g id="PathCollection_7">
     <defs>
      <path d="M -2.12132 -2.12132 
L -2.12132 2.12132 
L 2.12132 2.12132 
L 2.12132 -2.12132 
z
" id="m9f67f276c6" style="stroke:#a7226e;"/>
     </defs>
     <g>
      <use style="fill:#a7226e;stroke:#a7226e;" x="336.480559" xlink:href="#m9f67f276c6" y="37.656841"/>
     </g>
    </g>
    <g id="text_19">
     <!-- mean_sqroot_err -->
     <g transform="translate(348.972559 39.478591)scale(0.0694 -0.0694)">
      <use xlink:href="#DejaVuSans-109"/>
      <use x="97.412109" xlink:href="#DejaVuSans-101"/>
      <use x="158.935547" xlink:href="#DejaVuSans-97"/>
      <use x="220.214844" xlink:href="#DejaVuSans-110"/>
      <use x="283.59375" xlink:href="#DejaVuSans-95"/>
      <use x="333.59375" xlink:href="#DejaVuSans-115"/>
      <use x="385.693359" xlink:href="#DejaVuSans-113"/>
      <use x="449.169922" xlink:href="#DejaVuSans-114"/>
      <use x="488.033203" xlink:href="#DejaVuSans-111"/>
      <use x="549.214844" xlink:href="#DejaVuSans-111"/>
      <use x="610.396484" xlink:href="#DejaVuSans-116"/>
      <use x="649.605469" xlink:href="#DejaVuSans-95"/>
      <use x="699.605469" xlink:href="#DejaVuSans-101"/>
      <use x="761.128906" xlink:href="#DejaVuSans-114"/>
      <use x="800.492188" xlink:href="#DejaVuSans-114"/>
     </g>
    </g>
   </g>
  </g>
 </g>
 <defs>
  <clipPath id="p50ea08ef59">
   <rect height="266.112" width="357.12" x="56.50625" y="7.2"/>
  </clipPath>
 </defs>
</svg>
