<?xml version="1.0" encoding="utf-8" standalone="no"?>
<!DOCTYPE svg PUBLIC "-//W3C//DTD SVG 1.1//EN"
  "http://www.w3.org/Graphics/SVG/1.1/DTD/svg11.dtd">
<!-- Created with matplotlib (https://matplotlib.org/) -->
<svg height="310.86825pt" version="1.1" viewBox="0 0 414.46375 310.86825" width="414.46375pt" xmlns="http://www.w3.org/2000/svg" xmlns:xlink="http://www.w3.org/1999/xlink">
 <metadata>
  <rdf:RDF xmlns:cc="http://creativecommons.org/ns#" xmlns:dc="http://purl.org/dc/elements/1.1/" xmlns:rdf="http://www.w3.org/1999/02/22-rdf-syntax-ns#">
   <cc:Work>
    <dc:type rdf:resource="http://purl.org/dc/dcmitype/StillImage"/>
    <dc:date>2022-05-27T21:48:30.010559</dc:date>
    <dc:format>image/svg+xml</dc:format>
    <dc:creator>
     <cc:Agent>
      <dc:title>Matplotlib v3.3.4, https://matplotlib.org/</dc:title>
     </cc:Agent>
    </dc:creator>
   </cc:Work>
  </rdf:RDF>
 </metadata>
 <defs>
  <style type="text/css">*{stroke-linecap:butt;stroke-linejoin:round;}</style>
 </defs>
 <g id="figure_1">
  <g id="patch_1">
   <path d="M 0 310.86825 
L 414.46375 310.86825 
L 414.46375 0 
L 0 0 
z
" style="fill:#ffffff;"/>
  </g>
  <g id="axes_1">
   <g id="patch_2">
    <path d="M 50.14375 273.312 
L 407.26375 273.312 
L 407.26375 7.2 
L 50.14375 7.2 
z
" style="fill:#ffffff;"/>
   </g>
   <g id="PathCollection_1">
    <path clip-path="url(#p30e5b417b9)" d="M 66.376477 59.47178 
C 67.172087 59.47178 67.935217 59.155681 68.497798 58.5931 
C 69.060378 58.030519 69.376477 57.267389 69.376477 56.47178 
C 69.376477 55.676171 69.060378 54.91304 68.497798 54.350459 
C 67.935217 53.787879 67.172087 53.47178 66.376477 53.47178 
C 65.580868 53.47178 64.817738 53.787879 64.255157 54.350459 
C 63.692576 54.91304 63.376477 55.676171 63.376477 56.47178 
C 63.376477 57.267389 63.692576 58.030519 64.255157 58.5931 
C 64.817738 59.155681 65.580868 59.47178 66.376477 59.47178 
z
" style="fill:#f26b38;stroke:#ffffff;stroke-width:0.48;"/>
    <path clip-path="url(#p30e5b417b9)" d="M 73.140114 56.497717 
C 73.935723 56.497717 74.698853 56.181619 75.261434 55.619038 
C 75.824015 55.056457 76.140114 54.293327 76.140114 53.497717 
C 76.140114 52.702108 75.824015 51.938978 75.261434 51.376397 
C 74.698853 50.813816 73.935723 50.497717 73.140114 50.497717 
C 72.344504 50.497717 71.581374 50.813816 71.018793 51.376397 
C 70.456213 51.938978 70.140114 52.702108 70.140114 53.497717 
C 70.140114 54.293327 70.456213 55.056457 71.018793 55.619038 
C 71.581374 56.181619 72.344504 56.497717 73.140114 56.497717 
z
" style="fill:#f26b38;stroke:#ffffff;stroke-width:0.48;"/>
    <path clip-path="url(#p30e5b417b9)" d="M 79.90375 22.296 
C 80.699359 22.296 81.46249 21.979901 82.02507 21.41732 
C 82.587651 20.85474 82.90375 20.091609 82.90375 19.296 
C 82.90375 18.500391 82.587651 17.73726 82.02507 17.17468 
C 81.46249 16.612099 80.699359 16.296 79.90375 16.296 
C 79.108141 16.296 78.34501 16.612099 77.78243 17.17468 
C 77.219849 17.73726 76.90375 18.500391 76.90375 19.296 
C 76.90375 20.091609 77.219849 20.85474 77.78243 21.41732 
C 78.34501 21.979901 79.108141 22.296 79.90375 22.296 
z
" style="fill:#f26b38;stroke:#ffffff;stroke-width:0.48;"/>
    <path clip-path="url(#p30e5b417b9)" d="M 86.667386 59.70559 
C 87.462996 59.70559 88.226126 59.389491 88.788707 58.82691 
C 89.351287 58.264329 89.667386 57.501199 89.667386 56.70559 
C 89.667386 55.90998 89.351287 55.14685 88.788707 54.584269 
C 88.226126 54.021689 87.462996 53.70559 86.667386 53.70559 
C 85.871777 53.70559 85.108647 54.021689 84.546066 54.584269 
C 83.983485 55.14685 83.667386 55.90998 83.667386 56.70559 
C 83.667386 57.501199 83.983485 58.264329 84.546066 58.82691 
C 85.108647 59.389491 85.871777 59.70559 86.667386 59.70559 
z
" style="fill:#f26b38;stroke:#ffffff;stroke-width:0.48;"/>
    <path clip-path="url(#p30e5b417b9)" d="M 93.431023 91.864711 
C 94.226632 91.864711 94.989762 91.548612 95.552343 90.986031 
C 96.114924 90.42345 96.431023 89.66032 96.431023 88.864711 
C 96.431023 88.069101 96.114924 87.305971 95.552343 86.74339 
C 94.989762 86.18081 94.226632 85.864711 93.431023 85.864711 
C 92.635413 85.864711 91.872283 86.18081 91.309702 86.74339 
C 90.747122 87.305971 90.431023 88.069101 90.431023 88.864711 
C 90.431023 89.66032 90.747122 90.42345 91.309702 90.986031 
C 91.872283 91.548612 92.635413 91.864711 93.431023 91.864711 
z
" style="fill:#f26b38;stroke:#ffffff;stroke-width:0.48;"/>
    <path clip-path="url(#p30e5b417b9)" d="M 100.194659 133.410275 
C 100.990268 133.410275 101.753399 133.094176 102.315979 132.531596 
C 102.87856 131.969015 103.194659 131.205885 103.194659 130.410275 
C 103.194659 129.614666 102.87856 128.851536 102.315979 128.288955 
C 101.753399 127.726374 100.990268 127.410275 100.194659 127.410275 
C 99.39905 127.410275 98.635919 127.726374 98.073339 128.288955 
C 97.510758 128.851536 97.194659 129.614666 97.194659 130.410275 
C 97.194659 131.205885 97.510758 131.969015 98.073339 132.531596 
C 98.635919 133.094176 99.39905 133.410275 100.194659 133.410275 
z
" style="fill:#f26b38;stroke:#ffffff;stroke-width:0.48;"/>
    <path clip-path="url(#p30e5b417b9)" d="M 106.958295 133.410275 
C 107.753905 133.410275 108.517035 133.094176 109.079616 132.531596 
C 109.642197 131.969015 109.958295 131.205885 109.958295 130.410275 
C 109.958295 129.614666 109.642197 128.851536 109.079616 128.288955 
C 108.517035 127.726374 107.753905 127.410275 106.958295 127.410275 
C 106.162686 127.410275 105.399556 127.726374 104.836975 128.288955 
C 104.274394 128.851536 103.958295 129.614666 103.958295 130.410275 
C 103.958295 131.205885 104.274394 131.969015 104.836975 132.531596 
C 105.399556 133.094176 106.162686 133.410275 106.958295 133.410275 
z
" style="fill:#f26b38;stroke:#ffffff;stroke-width:0.48;"/>
    <path clip-path="url(#p30e5b417b9)" d="M 113.721932 129.760413 
C 114.517541 129.760413 115.280671 129.444314 115.843252 128.881733 
C 116.405833 128.319152 116.721932 127.556022 116.721932 126.760413 
C 116.721932 125.964803 116.405833 125.201673 115.843252 124.639092 
C 115.280671 124.076512 114.517541 123.760413 113.721932 123.760413 
C 112.926323 123.760413 112.163192 124.076512 111.600611 124.639092 
C 111.038031 125.201673 110.721932 125.964803 110.721932 126.760413 
C 110.721932 127.556022 111.038031 128.319152 111.600611 128.881733 
C 112.163192 129.444314 112.926323 129.760413 113.721932 129.760413 
z
" style="fill:#f26b38;stroke:#ffffff;stroke-width:0.48;"/>
    <path clip-path="url(#p30e5b417b9)" d="M 120.485568 129.760413 
C 121.281177 129.760413 122.044308 129.444314 122.606889 128.881733 
C 123.169469 128.319152 123.485568 127.556022 123.485568 126.760413 
C 123.485568 125.964803 123.169469 125.201673 122.606889 124.639092 
C 122.044308 124.076512 121.281177 123.760413 120.485568 123.760413 
C 119.689959 123.760413 118.926829 124.076512 118.364248 124.639092 
C 117.801667 125.201673 117.485568 125.964803 117.485568 126.760413 
C 117.485568 127.556022 117.801667 128.319152 118.364248 128.881733 
C 118.926829 129.444314 119.689959 129.760413 120.485568 129.760413 
z
" style="fill:#f26b38;stroke:#ffffff;stroke-width:0.48;"/>
    <path clip-path="url(#p30e5b417b9)" d="M 127.249205 134.475546 
C 128.044814 134.475546 128.807944 134.159447 129.370525 133.596866 
C 129.933106 133.034286 130.249205 132.271155 130.249205 131.475546 
C 130.249205 130.679937 129.933106 129.916807 129.370525 129.354226 
C 128.807944 128.791645 128.044814 128.475546 127.249205 128.475546 
C 126.453595 128.475546 125.690465 128.791645 125.127884 129.354226 
C 124.565303 129.916807 124.249205 130.679937 124.249205 131.475546 
C 124.249205 132.271155 124.565303 133.034286 125.127884 133.596866 
C 125.690465 134.159447 126.453595 134.475546 127.249205 134.475546 
z
" style="fill:#f26b38;stroke:#ffffff;stroke-width:0.48;"/>
    <path clip-path="url(#p30e5b417b9)" d="M 134.012841 151.556614 
C 134.80845 151.556614 135.571581 151.240515 136.134161 150.677934 
C 136.696742 150.115353 137.012841 149.352223 137.012841 148.556614 
C 137.012841 147.761004 136.696742 146.997874 136.134161 146.435293 
C 135.571581 145.872713 134.80845 145.556614 134.012841 145.556614 
C 133.217232 145.556614 132.454101 145.872713 131.891521 146.435293 
C 131.32894 146.997874 131.012841 147.761004 131.012841 148.556614 
C 131.012841 149.352223 131.32894 150.115353 131.891521 150.677934 
C 132.454101 151.240515 133.217232 151.556614 134.012841 151.556614 
z
" style="fill:#f26b38;stroke:#ffffff;stroke-width:0.48;"/>
    <path clip-path="url(#p30e5b417b9)" d="M 140.776477 182.963738 
C 141.572087 182.963738 142.335217 182.647639 142.897798 182.085058 
C 143.460378 181.522478 143.776477 180.759347 143.776477 179.963738 
C 143.776477 179.168129 143.460378 178.404998 142.897798 177.842418 
C 142.335217 177.279837 141.572087 176.963738 140.776477 176.963738 
C 139.980868 176.963738 139.217738 177.279837 138.655157 177.842418 
C 138.092576 178.404998 137.776477 179.168129 137.776477 179.963738 
C 137.776477 180.759347 138.092576 181.522478 138.655157 182.085058 
C 139.217738 182.647639 139.980868 182.963738 140.776477 182.963738 
z
" style="fill:#f26b38;stroke:#ffffff;stroke-width:0.48;"/>
    <path clip-path="url(#p30e5b417b9)" d="M 147.540114 229.808262 
C 148.335723 229.808262 149.098853 229.492164 149.661434 228.929583 
C 150.224015 228.367002 150.540114 227.603872 150.540114 226.808262 
C 150.540114 226.012653 150.224015 225.249523 149.661434 224.686942 
C 149.098853 224.124361 148.335723 223.808262 147.540114 223.808262 
C 146.744504 223.808262 145.981374 224.124361 145.418793 224.686942 
C 144.856213 225.249523 144.540114 226.012653 144.540114 226.808262 
C 144.540114 227.603872 144.856213 228.367002 145.418793 228.929583 
C 145.981374 229.492164 146.744504 229.808262 147.540114 229.808262 
z
" style="fill:#f26b38;stroke:#ffffff;stroke-width:0.48;"/>
    <path clip-path="url(#p30e5b417b9)" d="M 154.30375 248.10444 
C 155.099359 248.10444 155.86249 247.788341 156.42507 247.225761 
C 156.987651 246.66318 157.30375 245.90005 157.30375 245.10444 
C 157.30375 244.308831 156.987651 243.545701 156.42507 242.98312 
C 155.86249 242.420539 155.099359 242.10444 154.30375 242.10444 
C 153.508141 242.10444 152.74501 242.420539 152.18243 242.98312 
C 151.619849 243.545701 151.30375 244.308831 151.30375 245.10444 
C 151.30375 245.90005 151.619849 246.66318 152.18243 247.225761 
C 152.74501 247.788341 153.508141 248.10444 154.30375 248.10444 
z
" style="fill:#f26b38;stroke:#ffffff;stroke-width:0.48;"/>
    <path clip-path="url(#p30e5b417b9)" d="M 161.067386 195.395725 
C 161.862996 195.395725 162.626126 195.079626 163.188707 194.517045 
C 163.751287 193.954464 164.067386 193.191334 164.067386 192.395725 
C 164.067386 191.600115 163.751287 190.836985 163.188707 190.274404 
C 162.626126 189.711824 161.862996 189.395725 161.067386 189.395725 
C 160.271777 189.395725 159.508647 189.711824 158.946066 190.274404 
C 158.383485 190.836985 158.067386 191.600115 158.067386 192.395725 
C 158.067386 193.191334 158.383485 193.954464 158.946066 194.517045 
C 159.508647 195.079626 160.271777 195.395725 161.067386 195.395725 
z
" style="fill:#f26b38;stroke:#ffffff;stroke-width:0.48;"/>
    <path clip-path="url(#p30e5b417b9)" d="M 167.831023 195.395725 
C 168.626632 195.395725 169.389762 195.079626 169.952343 194.517045 
C 170.514924 193.954464 170.831023 193.191334 170.831023 192.395725 
C 170.831023 191.600115 170.514924 190.836985 169.952343 190.274404 
C 169.389762 189.711824 168.626632 189.395725 167.831023 189.395725 
C 167.035413 189.395725 166.272283 189.711824 165.709702 190.274404 
C 165.147122 190.836985 164.831023 191.600115 164.831023 192.395725 
C 164.831023 193.191334 165.147122 193.954464 165.709702 194.517045 
C 166.272283 195.079626 167.035413 195.395725 167.831023 195.395725 
z
" style="fill:#f26b38;stroke:#ffffff;stroke-width:0.48;"/>
    <path clip-path="url(#p30e5b417b9)" d="M 174.594659 195.395725 
C 175.390268 195.395725 176.153399 195.079626 176.715979 194.517045 
C 177.27856 193.954464 177.594659 193.191334 177.594659 192.395725 
C 177.594659 191.600115 177.27856 190.836985 176.715979 190.274404 
C 176.153399 189.711824 175.390268 189.395725 174.594659 189.395725 
C 173.79905 189.395725 173.035919 189.711824 172.473339 190.274404 
C 171.910758 190.836985 171.594659 191.600115 171.594659 192.395725 
C 171.594659 193.191334 171.910758 193.954464 172.473339 194.517045 
C 173.035919 195.079626 173.79905 195.395725 174.594659 195.395725 
z
" style="fill:#f26b38;stroke:#ffffff;stroke-width:0.48;"/>
    <path clip-path="url(#p30e5b417b9)" d="M 181.358295 200.358453 
C 182.153905 200.358453 182.917035 200.042354 183.479616 199.479773 
C 184.042197 198.917193 184.358295 198.154062 184.358295 197.358453 
C 184.358295 196.562844 184.042197 195.799713 183.479616 195.237133 
C 182.917035 194.674552 182.153905 194.358453 181.358295 194.358453 
C 180.562686 194.358453 179.799556 194.674552 179.236975 195.237133 
C 178.674394 195.799713 178.358295 196.562844 178.358295 197.358453 
C 178.358295 198.154062 178.674394 198.917193 179.236975 199.479773 
C 179.799556 200.042354 180.562686 200.358453 181.358295 200.358453 
z
" style="fill:#f26b38;stroke:#ffffff;stroke-width:0.48;"/>
    <path clip-path="url(#p30e5b417b9)" d="M 188.121932 209.839486 
C 188.917541 209.839486 189.680671 209.523387 190.243252 208.960807 
C 190.805833 208.398226 191.121932 207.635096 191.121932 206.839486 
C 191.121932 206.043877 190.805833 205.280747 190.243252 204.718166 
C 189.680671 204.155585 188.917541 203.839486 188.121932 203.839486 
C 187.326323 203.839486 186.563192 204.155585 186.000611 204.718166 
C 185.438031 205.280747 185.121932 206.043877 185.121932 206.839486 
C 185.121932 207.635096 185.438031 208.398226 186.000611 208.960807 
C 186.563192 209.523387 187.326323 209.839486 188.121932 209.839486 
z
" style="fill:#f26b38;stroke:#ffffff;stroke-width:0.48;"/>
    <path clip-path="url(#p30e5b417b9)" d="M 194.885568 209.839486 
C 195.681177 209.839486 196.444308 209.523387 197.006889 208.960807 
C 197.569469 208.398226 197.885568 207.635096 197.885568 206.839486 
C 197.885568 206.043877 197.569469 205.280747 197.006889 204.718166 
C 196.444308 204.155585 195.681177 203.839486 194.885568 203.839486 
C 194.089959 203.839486 193.326829 204.155585 192.764248 204.718166 
C 192.201667 205.280747 191.885568 206.043877 191.885568 206.839486 
C 191.885568 207.635096 192.201667 208.398226 192.764248 208.960807 
C 193.326829 209.523387 194.089959 209.839486 194.885568 209.839486 
z
" style="fill:#f26b38;stroke:#ffffff;stroke-width:0.48;"/>
    <path clip-path="url(#p30e5b417b9)" d="M 201.649205 209.839486 
C 202.444814 209.839486 203.207944 209.523387 203.770525 208.960807 
C 204.333106 208.398226 204.649205 207.635096 204.649205 206.839486 
C 204.649205 206.043877 204.333106 205.280747 203.770525 204.718166 
C 203.207944 204.155585 202.444814 203.839486 201.649205 203.839486 
C 200.853595 203.839486 200.090465 204.155585 199.527884 204.718166 
C 198.965303 205.280747 198.649205 206.043877 198.649205 206.839486 
C 198.649205 207.635096 198.965303 208.398226 199.527884 208.960807 
C 200.090465 209.523387 200.853595 209.839486 201.649205 209.839486 
z
" style="fill:#f26b38;stroke:#ffffff;stroke-width:0.48;"/>
    <path clip-path="url(#p30e5b417b9)" d="M 208.412841 209.839486 
C 209.20845 209.839486 209.971581 209.523387 210.534161 208.960807 
C 211.096742 208.398226 211.412841 207.635096 211.412841 206.839486 
C 211.412841 206.043877 211.096742 205.280747 210.534161 204.718166 
C 209.971581 204.155585 209.20845 203.839486 208.412841 203.839486 
C 207.617232 203.839486 206.854101 204.155585 206.291521 204.718166 
C 205.72894 205.280747 205.412841 206.043877 205.412841 206.839486 
C 205.412841 207.635096 205.72894 208.398226 206.291521 208.960807 
C 206.854101 209.523387 207.617232 209.839486 208.412841 209.839486 
z
" style="fill:#f26b38;stroke:#ffffff;stroke-width:0.48;"/>
    <path clip-path="url(#p30e5b417b9)" d="M 215.176477 209.839486 
C 215.972087 209.839486 216.735217 209.523387 217.297798 208.960807 
C 217.860378 208.398226 218.176477 207.635096 218.176477 206.839486 
C 218.176477 206.043877 217.860378 205.280747 217.297798 204.718166 
C 216.735217 204.155585 215.972087 203.839486 215.176477 203.839486 
C 214.380868 203.839486 213.617738 204.155585 213.055157 204.718166 
C 212.492576 205.280747 212.176477 206.043877 212.176477 206.839486 
C 212.176477 207.635096 212.492576 208.398226 213.055157 208.960807 
C 213.617738 209.523387 214.380868 209.839486 215.176477 209.839486 
z
" style="fill:#f26b38;stroke:#ffffff;stroke-width:0.48;"/>
    <path clip-path="url(#p30e5b417b9)" d="M 221.940114 209.839486 
C 222.735723 209.839486 223.498853 209.523387 224.061434 208.960807 
C 224.624015 208.398226 224.940114 207.635096 224.940114 206.839486 
C 224.940114 206.043877 224.624015 205.280747 224.061434 204.718166 
C 223.498853 204.155585 222.735723 203.839486 221.940114 203.839486 
C 221.144504 203.839486 220.381374 204.155585 219.818793 204.718166 
C 219.256213 205.280747 218.940114 206.043877 218.940114 206.839486 
C 218.940114 207.635096 219.256213 208.398226 219.818793 208.960807 
C 220.381374 209.523387 221.144504 209.839486 221.940114 209.839486 
z
" style="fill:#f26b38;stroke:#ffffff;stroke-width:0.48;"/>
    <path clip-path="url(#p30e5b417b9)" d="M 228.70375 223.300339 
C 229.499359 223.300339 230.26249 222.98424 230.82507 222.421659 
C 231.387651 221.859079 231.70375 221.095948 231.70375 220.300339 
C 231.70375 219.50473 231.387651 218.741599 230.82507 218.179019 
C 230.26249 217.616438 229.499359 217.300339 228.70375 217.300339 
C 227.908141 217.300339 227.14501 217.616438 226.58243 218.179019 
C 226.019849 218.741599 225.70375 219.50473 225.70375 220.300339 
C 225.70375 221.095948 226.019849 221.859079 226.58243 222.421659 
C 227.14501 222.98424 227.908141 223.300339 228.70375 223.300339 
z
" style="fill:#f26b38;stroke:#ffffff;stroke-width:0.48;"/>
    <path clip-path="url(#p30e5b417b9)" d="M 235.467386 210.211928 
C 236.262996 210.211928 237.026126 209.895829 237.588707 209.333248 
C 238.151287 208.770668 238.467386 208.007537 238.467386 207.211928 
C 238.467386 206.416319 238.151287 205.653189 237.588707 205.090608 
C 237.026126 204.528027 236.262996 204.211928 235.467386 204.211928 
C 234.671777 204.211928 233.908647 204.528027 233.346066 205.090608 
C 232.783485 205.653189 232.467386 206.416319 232.467386 207.211928 
C 232.467386 208.007537 232.783485 208.770668 233.346066 209.333248 
C 233.908647 209.895829 234.671777 210.211928 235.467386 210.211928 
z
" style="fill:#f26b38;stroke:#ffffff;stroke-width:0.48;"/>
    <path clip-path="url(#p30e5b417b9)" d="M 242.231023 210.211928 
C 243.026632 210.211928 243.789762 209.895829 244.352343 209.333248 
C 244.914924 208.770668 245.231023 208.007537 245.231023 207.211928 
C 245.231023 206.416319 244.914924 205.653189 244.352343 205.090608 
C 243.789762 204.528027 243.026632 204.211928 242.231023 204.211928 
C 241.435413 204.211928 240.672283 204.528027 240.109702 205.090608 
C 239.547122 205.653189 239.231023 206.416319 239.231023 207.211928 
C 239.231023 208.007537 239.547122 208.770668 240.109702 209.333248 
C 240.672283 209.895829 241.435413 210.211928 242.231023 210.211928 
z
" style="fill:#f26b38;stroke:#ffffff;stroke-width:0.48;"/>
    <path clip-path="url(#p30e5b417b9)" d="M 248.994659 210.211928 
C 249.790268 210.211928 250.553399 209.895829 251.115979 209.333248 
C 251.67856 208.770668 251.994659 208.007537 251.994659 207.211928 
C 251.994659 206.416319 251.67856 205.653189 251.115979 205.090608 
C 250.553399 204.528027 249.790268 204.211928 248.994659 204.211928 
C 248.19905 204.211928 247.435919 204.528027 246.873339 205.090608 
C 246.310758 205.653189 245.994659 206.416319 245.994659 207.211928 
C 245.994659 208.007537 246.310758 208.770668 246.873339 209.333248 
C 247.435919 209.895829 248.19905 210.211928 248.994659 210.211928 
z
" style="fill:#f26b38;stroke:#ffffff;stroke-width:0.48;"/>
    <path clip-path="url(#p30e5b417b9)" d="M 255.758295 210.211928 
C 256.553905 210.211928 257.317035 209.895829 257.879616 209.333248 
C 258.442197 208.770668 258.758295 208.007537 258.758295 207.211928 
C 258.758295 206.416319 258.442197 205.653189 257.879616 205.090608 
C 257.317035 204.528027 256.553905 204.211928 255.758295 204.211928 
C 254.962686 204.211928 254.199556 204.528027 253.636975 205.090608 
C 253.074394 205.653189 252.758295 206.416319 252.758295 207.211928 
C 252.758295 208.007537 253.074394 208.770668 253.636975 209.333248 
C 254.199556 209.895829 254.962686 210.211928 255.758295 210.211928 
z
" style="fill:#f26b38;stroke:#ffffff;stroke-width:0.48;"/>
    <path clip-path="url(#p30e5b417b9)" d="M 262.521932 210.211928 
C 263.317541 210.211928 264.080671 209.895829 264.643252 209.333248 
C 265.205833 208.770668 265.521932 208.007537 265.521932 207.211928 
C 265.521932 206.416319 265.205833 205.653189 264.643252 205.090608 
C 264.080671 204.528027 263.317541 204.211928 262.521932 204.211928 
C 261.726323 204.211928 260.963192 204.528027 260.400611 205.090608 
C 259.838031 205.653189 259.521932 206.416319 259.521932 207.211928 
C 259.521932 208.007537 259.838031 208.770668 260.400611 209.333248 
C 260.963192 209.895829 261.726323 210.211928 262.521932 210.211928 
z
" style="fill:#f26b38;stroke:#ffffff;stroke-width:0.48;"/>
    <path clip-path="url(#p30e5b417b9)" d="M 269.285568 210.211928 
C 270.081177 210.211928 270.844308 209.895829 271.406889 209.333248 
C 271.969469 208.770668 272.285568 208.007537 272.285568 207.211928 
C 272.285568 206.416319 271.969469 205.653189 271.406889 205.090608 
C 270.844308 204.528027 270.081177 204.211928 269.285568 204.211928 
C 268.489959 204.211928 267.726829 204.528027 267.164248 205.090608 
C 266.601667 205.653189 266.285568 206.416319 266.285568 207.211928 
C 266.285568 208.007537 266.601667 208.770668 267.164248 209.333248 
C 267.726829 209.895829 268.489959 210.211928 269.285568 210.211928 
z
" style="fill:#f26b38;stroke:#ffffff;stroke-width:0.48;"/>
    <path clip-path="url(#p30e5b417b9)" d="M 276.049205 210.211928 
C 276.844814 210.211928 277.607944 209.895829 278.170525 209.333248 
C 278.733106 208.770668 279.049205 208.007537 279.049205 207.211928 
C 279.049205 206.416319 278.733106 205.653189 278.170525 205.090608 
C 277.607944 204.528027 276.844814 204.211928 276.049205 204.211928 
C 275.253595 204.211928 274.490465 204.528027 273.927884 205.090608 
C 273.365303 205.653189 273.049205 206.416319 273.049205 207.211928 
C 273.049205 208.007537 273.365303 208.770668 273.927884 209.333248 
C 274.490465 209.895829 275.253595 210.211928 276.049205 210.211928 
z
" style="fill:#f26b38;stroke:#ffffff;stroke-width:0.48;"/>
    <path clip-path="url(#p30e5b417b9)" d="M 282.812841 210.211928 
C 283.60845 210.211928 284.371581 209.895829 284.934161 209.333248 
C 285.496742 208.770668 285.812841 208.007537 285.812841 207.211928 
C 285.812841 206.416319 285.496742 205.653189 284.934161 205.090608 
C 284.371581 204.528027 283.60845 204.211928 282.812841 204.211928 
C 282.017232 204.211928 281.254101 204.528027 280.691521 205.090608 
C 280.12894 205.653189 279.812841 206.416319 279.812841 207.211928 
C 279.812841 208.007537 280.12894 208.770668 280.691521 209.333248 
C 281.254101 209.895829 282.017232 210.211928 282.812841 210.211928 
z
" style="fill:#f26b38;stroke:#ffffff;stroke-width:0.48;"/>
    <path clip-path="url(#p30e5b417b9)" d="M 289.576477 210.211928 
C 290.372087 210.211928 291.135217 209.895829 291.697798 209.333248 
C 292.260378 208.770668 292.576477 208.007537 292.576477 207.211928 
C 292.576477 206.416319 292.260378 205.653189 291.697798 205.090608 
C 291.135217 204.528027 290.372087 204.211928 289.576477 204.211928 
C 288.780868 204.211928 288.017738 204.528027 287.455157 205.090608 
C 286.892576 205.653189 286.576477 206.416319 286.576477 207.211928 
C 286.576477 208.007537 286.892576 208.770668 287.455157 209.333248 
C 288.017738 209.895829 288.780868 210.211928 289.576477 210.211928 
z
" style="fill:#f26b38;stroke:#ffffff;stroke-width:0.48;"/>
    <path clip-path="url(#p30e5b417b9)" d="M 296.340114 210.211928 
C 297.135723 210.211928 297.898853 209.895829 298.461434 209.333248 
C 299.024015 208.770668 299.340114 208.007537 299.340114 207.211928 
C 299.340114 206.416319 299.024015 205.653189 298.461434 205.090608 
C 297.898853 204.528027 297.135723 204.211928 296.340114 204.211928 
C 295.544504 204.211928 294.781374 204.528027 294.218793 205.090608 
C 293.656213 205.653189 293.340114 206.416319 293.340114 207.211928 
C 293.340114 208.007537 293.656213 208.770668 294.218793 209.333248 
C 294.781374 209.895829 295.544504 210.211928 296.340114 210.211928 
z
" style="fill:#f26b38;stroke:#ffffff;stroke-width:0.48;"/>
    <path clip-path="url(#p30e5b417b9)" d="M 303.10375 210.211928 
C 303.899359 210.211928 304.66249 209.895829 305.22507 209.333248 
C 305.787651 208.770668 306.10375 208.007537 306.10375 207.211928 
C 306.10375 206.416319 305.787651 205.653189 305.22507 205.090608 
C 304.66249 204.528027 303.899359 204.211928 303.10375 204.211928 
C 302.308141 204.211928 301.54501 204.528027 300.98243 205.090608 
C 300.419849 205.653189 300.10375 206.416319 300.10375 207.211928 
C 300.10375 208.007537 300.419849 208.770668 300.98243 209.333248 
C 301.54501 209.895829 302.308141 210.211928 303.10375 210.211928 
z
" style="fill:#f26b38;stroke:#ffffff;stroke-width:0.48;"/>
    <path clip-path="url(#p30e5b417b9)" d="M 309.867386 210.211928 
C 310.662996 210.211928 311.426126 209.895829 311.988707 209.333248 
C 312.551287 208.770668 312.867386 208.007537 312.867386 207.211928 
C 312.867386 206.416319 312.551287 205.653189 311.988707 205.090608 
C 311.426126 204.528027 310.662996 204.211928 309.867386 204.211928 
C 309.071777 204.211928 308.308647 204.528027 307.746066 205.090608 
C 307.183485 205.653189 306.867386 206.416319 306.867386 207.211928 
C 306.867386 208.007537 307.183485 208.770668 307.746066 209.333248 
C 308.308647 209.895829 309.071777 210.211928 309.867386 210.211928 
z
" style="fill:#f26b38;stroke:#ffffff;stroke-width:0.48;"/>
    <path clip-path="url(#p30e5b417b9)" d="M 316.631023 210.211928 
C 317.426632 210.211928 318.189762 209.895829 318.752343 209.333248 
C 319.314924 208.770668 319.631023 208.007537 319.631023 207.211928 
C 319.631023 206.416319 319.314924 205.653189 318.752343 205.090608 
C 318.189762 204.528027 317.426632 204.211928 316.631023 204.211928 
C 315.835413 204.211928 315.072283 204.528027 314.509702 205.090608 
C 313.947122 205.653189 313.631023 206.416319 313.631023 207.211928 
C 313.631023 208.007537 313.947122 208.770668 314.509702 209.333248 
C 315.072283 209.895829 315.835413 210.211928 316.631023 210.211928 
z
" style="fill:#f26b38;stroke:#ffffff;stroke-width:0.48;"/>
    <path clip-path="url(#p30e5b417b9)" d="M 323.394659 210.211928 
C 324.190268 210.211928 324.953399 209.895829 325.515979 209.333248 
C 326.07856 208.770668 326.394659 208.007537 326.394659 207.211928 
C 326.394659 206.416319 326.07856 205.653189 325.515979 205.090608 
C 324.953399 204.528027 324.190268 204.211928 323.394659 204.211928 
C 322.59905 204.211928 321.835919 204.528027 321.273339 205.090608 
C 320.710758 205.653189 320.394659 206.416319 320.394659 207.211928 
C 320.394659 208.007537 320.710758 208.770668 321.273339 209.333248 
C 321.835919 209.895829 322.59905 210.211928 323.394659 210.211928 
z
" style="fill:#f26b38;stroke:#ffffff;stroke-width:0.48;"/>
    <path clip-path="url(#p30e5b417b9)" d="M 330.158295 210.211928 
C 330.953905 210.211928 331.717035 209.895829 332.279616 209.333248 
C 332.842197 208.770668 333.158295 208.007537 333.158295 207.211928 
C 333.158295 206.416319 332.842197 205.653189 332.279616 205.090608 
C 331.717035 204.528027 330.953905 204.211928 330.158295 204.211928 
C 329.362686 204.211928 328.599556 204.528027 328.036975 205.090608 
C 327.474394 205.653189 327.158295 206.416319 327.158295 207.211928 
C 327.158295 208.007537 327.474394 208.770668 328.036975 209.333248 
C 328.599556 209.895829 329.362686 210.211928 330.158295 210.211928 
z
" style="fill:#f26b38;stroke:#ffffff;stroke-width:0.48;"/>
    <path clip-path="url(#p30e5b417b9)" d="M 336.921932 210.211928 
C 337.717541 210.211928 338.480671 209.895829 339.043252 209.333248 
C 339.605833 208.770668 339.921932 208.007537 339.921932 207.211928 
C 339.921932 206.416319 339.605833 205.653189 339.043252 205.090608 
C 338.480671 204.528027 337.717541 204.211928 336.921932 204.211928 
C 336.126323 204.211928 335.363192 204.528027 334.800611 205.090608 
C 334.238031 205.653189 333.921932 206.416319 333.921932 207.211928 
C 333.921932 208.007537 334.238031 208.770668 334.800611 209.333248 
C 335.363192 209.895829 336.126323 210.211928 336.921932 210.211928 
z
" style="fill:#f26b38;stroke:#ffffff;stroke-width:0.48;"/>
    <path clip-path="url(#p30e5b417b9)" d="M 343.685568 210.211928 
C 344.481177 210.211928 345.244308 209.895829 345.806889 209.333248 
C 346.369469 208.770668 346.685568 208.007537 346.685568 207.211928 
C 346.685568 206.416319 346.369469 205.653189 345.806889 205.090608 
C 345.244308 204.528027 344.481177 204.211928 343.685568 204.211928 
C 342.889959 204.211928 342.126829 204.528027 341.564248 205.090608 
C 341.001667 205.653189 340.685568 206.416319 340.685568 207.211928 
C 340.685568 208.007537 341.001667 208.770668 341.564248 209.333248 
C 342.126829 209.895829 342.889959 210.211928 343.685568 210.211928 
z
" style="fill:#f26b38;stroke:#ffffff;stroke-width:0.48;"/>
    <path clip-path="url(#p30e5b417b9)" d="M 350.449205 210.211928 
C 351.244814 210.211928 352.007944 209.895829 352.570525 209.333248 
C 353.133106 208.770668 353.449205 208.007537 353.449205 207.211928 
C 353.449205 206.416319 353.133106 205.653189 352.570525 205.090608 
C 352.007944 204.528027 351.244814 204.211928 350.449205 204.211928 
C 349.653595 204.211928 348.890465 204.528027 348.327884 205.090608 
C 347.765303 205.653189 347.449205 206.416319 347.449205 207.211928 
C 347.449205 208.007537 347.765303 208.770668 348.327884 209.333248 
C 348.890465 209.895829 349.653595 210.211928 350.449205 210.211928 
z
" style="fill:#f26b38;stroke:#ffffff;stroke-width:0.48;"/>
    <path clip-path="url(#p30e5b417b9)" d="M 357.212841 210.211928 
C 358.00845 210.211928 358.771581 209.895829 359.334161 209.333248 
C 359.896742 208.770668 360.212841 208.007537 360.212841 207.211928 
C 360.212841 206.416319 359.896742 205.653189 359.334161 205.090608 
C 358.771581 204.528027 358.00845 204.211928 357.212841 204.211928 
C 356.417232 204.211928 355.654101 204.528027 355.091521 205.090608 
C 354.52894 205.653189 354.212841 206.416319 354.212841 207.211928 
C 354.212841 208.007537 354.52894 208.770668 355.091521 209.333248 
C 355.654101 209.895829 356.417232 210.211928 357.212841 210.211928 
z
" style="fill:#f26b38;stroke:#ffffff;stroke-width:0.48;"/>
    <path clip-path="url(#p30e5b417b9)" d="M 363.976477 210.211928 
C 364.772087 210.211928 365.535217 209.895829 366.097798 209.333248 
C 366.660378 208.770668 366.976477 208.007537 366.976477 207.211928 
C 366.976477 206.416319 366.660378 205.653189 366.097798 205.090608 
C 365.535217 204.528027 364.772087 204.211928 363.976477 204.211928 
C 363.180868 204.211928 362.417738 204.528027 361.855157 205.090608 
C 361.292576 205.653189 360.976477 206.416319 360.976477 207.211928 
C 360.976477 208.007537 361.292576 208.770668 361.855157 209.333248 
C 362.417738 209.895829 363.180868 210.211928 363.976477 210.211928 
z
" style="fill:#f26b38;stroke:#ffffff;stroke-width:0.48;"/>
    <path clip-path="url(#p30e5b417b9)" d="M 370.740114 210.211928 
C 371.535723 210.211928 372.298853 209.895829 372.861434 209.333248 
C 373.424015 208.770668 373.740114 208.007537 373.740114 207.211928 
C 373.740114 206.416319 373.424015 205.653189 372.861434 205.090608 
C 372.298853 204.528027 371.535723 204.211928 370.740114 204.211928 
C 369.944504 204.211928 369.181374 204.528027 368.618793 205.090608 
C 368.056213 205.653189 367.740114 206.416319 367.740114 207.211928 
C 367.740114 208.007537 368.056213 208.770668 368.618793 209.333248 
C 369.181374 209.895829 369.944504 210.211928 370.740114 210.211928 
z
" style="fill:#f26b38;stroke:#ffffff;stroke-width:0.48;"/>
    <path clip-path="url(#p30e5b417b9)" d="M 377.50375 210.211928 
C 378.299359 210.211928 379.06249 209.895829 379.62507 209.333248 
C 380.187651 208.770668 380.50375 208.007537 380.50375 207.211928 
C 380.50375 206.416319 380.187651 205.653189 379.62507 205.090608 
C 379.06249 204.528027 378.299359 204.211928 377.50375 204.211928 
C 376.708141 204.211928 375.94501 204.528027 375.38243 205.090608 
C 374.819849 205.653189 374.50375 206.416319 374.50375 207.211928 
C 374.50375 208.007537 374.819849 208.770668 375.38243 209.333248 
C 375.94501 209.895829 376.708141 210.211928 377.50375 210.211928 
z
" style="fill:#f26b38;stroke:#ffffff;stroke-width:0.48;"/>
    <path clip-path="url(#p30e5b417b9)" d="M 384.267386 210.211928 
C 385.062996 210.211928 385.826126 209.895829 386.388707 209.333248 
C 386.951287 208.770668 387.267386 208.007537 387.267386 207.211928 
C 387.267386 206.416319 386.951287 205.653189 386.388707 205.090608 
C 385.826126 204.528027 385.062996 204.211928 384.267386 204.211928 
C 383.471777 204.211928 382.708647 204.528027 382.146066 205.090608 
C 381.583485 205.653189 381.267386 206.416319 381.267386 207.211928 
C 381.267386 208.007537 381.583485 208.770668 382.146066 209.333248 
C 382.708647 209.895829 383.471777 210.211928 384.267386 210.211928 
z
" style="fill:#f26b38;stroke:#ffffff;stroke-width:0.48;"/>
    <path clip-path="url(#p30e5b417b9)" d="M 391.031023 210.211928 
C 391.826632 210.211928 392.589762 209.895829 393.152343 209.333248 
C 393.714924 208.770668 394.031023 208.007537 394.031023 207.211928 
C 394.031023 206.416319 393.714924 205.653189 393.152343 205.090608 
C 392.589762 204.528027 391.826632 204.211928 391.031023 204.211928 
C 390.235413 204.211928 389.472283 204.528027 388.909702 205.090608 
C 388.347122 205.653189 388.031023 206.416319 388.031023 207.211928 
C 388.031023 208.007537 388.347122 208.770668 388.909702 209.333248 
C 389.472283 209.895829 390.235413 210.211928 391.031023 210.211928 
z
" style="fill:#f26b38;stroke:#ffffff;stroke-width:0.48;"/>
    <path clip-path="url(#p30e5b417b9)" d="M 64.876477 224.490936 
L 66.376477 222.990936 
L 67.876477 224.490936 
L 69.376477 222.990936 
L 67.876477 221.490936 
L 69.376477 219.990936 
L 67.876477 218.490936 
L 66.376477 219.990936 
L 64.876477 218.490936 
L 63.376477 219.990936 
L 64.876477 221.490936 
L 63.376477 222.990936 
z
" style="fill:#2f9599;stroke:#ffffff;stroke-width:0.48;"/>
    <path clip-path="url(#p30e5b417b9)" d="M 71.640114 199.439607 
L 73.140114 197.939607 
L 74.640114 199.439607 
L 76.140114 197.939607 
L 74.640114 196.439607 
L 76.140114 194.939607 
L 74.640114 193.439607 
L 73.140114 194.939607 
L 71.640114 193.439607 
L 70.140114 194.939607 
L 71.640114 196.439607 
L 70.140114 197.939607 
z
" style="fill:#2f9599;stroke:#ffffff;stroke-width:0.48;"/>
    <path clip-path="url(#p30e5b417b9)" d="M 78.40375 177.086381 
L 79.90375 175.586381 
L 81.40375 177.086381 
L 82.90375 175.586381 
L 81.40375 174.086381 
L 82.90375 172.586381 
L 81.40375 171.086381 
L 79.90375 172.586381 
L 78.40375 171.086381 
L 76.90375 172.586381 
L 78.40375 174.086381 
L 76.90375 175.586381 
z
" style="fill:#2f9599;stroke:#ffffff;stroke-width:0.48;"/>
    <path clip-path="url(#p30e5b417b9)" d="M 85.167386 177.086381 
L 86.667386 175.586381 
L 88.167386 177.086381 
L 89.667386 175.586381 
L 88.167386 174.086381 
L 89.667386 172.586381 
L 88.167386 171.086381 
L 86.667386 172.586381 
L 85.167386 171.086381 
L 83.667386 172.586381 
L 85.167386 174.086381 
L 83.667386 175.586381 
z
" style="fill:#2f9599;stroke:#ffffff;stroke-width:0.48;"/>
    <path clip-path="url(#p30e5b417b9)" d="M 91.931023 248.10444 
L 93.431023 246.60444 
L 94.931023 248.10444 
L 96.431023 246.60444 
L 94.931023 245.10444 
L 96.431023 243.60444 
L 94.931023 242.10444 
L 93.431023 243.60444 
L 91.931023 242.10444 
L 90.431023 243.60444 
L 91.931023 245.10444 
L 90.431023 246.60444 
z
" style="fill:#2f9599;stroke:#ffffff;stroke-width:0.48;"/>
    <path clip-path="url(#p30e5b417b9)" d="M 98.694659 252.321138 
L 100.194659 250.821138 
L 101.694659 252.321138 
L 103.194659 250.821138 
L 101.694659 249.321138 
L 103.194659 247.821138 
L 101.694659 246.321138 
L 100.194659 247.821138 
L 98.694659 246.321138 
L 97.194659 247.821138 
L 98.694659 249.321138 
L 97.194659 250.821138 
z
" style="fill:#2f9599;stroke:#ffffff;stroke-width:0.48;"/>
    <path clip-path="url(#p30e5b417b9)" d="M 105.458295 252.321138 
L 106.958295 250.821138 
L 108.458295 252.321138 
L 109.958295 250.821138 
L 108.458295 249.321138 
L 109.958295 247.821138 
L 108.458295 246.321138 
L 106.958295 247.821138 
L 105.458295 246.321138 
L 103.958295 247.821138 
L 105.458295 249.321138 
L 103.958295 250.821138 
z
" style="fill:#2f9599;stroke:#ffffff;stroke-width:0.48;"/>
    <path clip-path="url(#p30e5b417b9)" d="M 112.221932 252.321138 
L 113.721932 250.821138 
L 115.221932 252.321138 
L 116.721932 250.821138 
L 115.221932 249.321138 
L 116.721932 247.821138 
L 115.221932 246.321138 
L 113.721932 247.821138 
L 112.221932 246.321138 
L 110.721932 247.821138 
L 112.221932 249.321138 
L 110.721932 250.821138 
z
" style="fill:#2f9599;stroke:#ffffff;stroke-width:0.48;"/>
    <path clip-path="url(#p30e5b417b9)" d="M 118.985568 256.40809 
L 120.485568 254.90809 
L 121.985568 256.40809 
L 123.485568 254.90809 
L 121.985568 253.40809 
L 123.485568 251.90809 
L 121.985568 250.40809 
L 120.485568 251.90809 
L 118.985568 250.40809 
L 117.485568 251.90809 
L 118.985568 253.40809 
L 117.485568 254.90809 
z
" style="fill:#2f9599;stroke:#ffffff;stroke-width:0.48;"/>
    <path clip-path="url(#p30e5b417b9)" d="M 125.749205 264.216 
L 127.249205 262.716 
L 128.749205 264.216 
L 130.249205 262.716 
L 128.749205 261.216 
L 130.249205 259.716 
L 128.749205 258.216 
L 127.249205 259.716 
L 125.749205 258.216 
L 124.249205 259.716 
L 125.749205 261.216 
L 124.249205 262.716 
z
" style="fill:#2f9599;stroke:#ffffff;stroke-width:0.48;"/>
    <path clip-path="url(#p30e5b417b9)" d="M 132.512841 264.216 
L 134.012841 262.716 
L 135.512841 264.216 
L 137.012841 262.716 
L 135.512841 261.216 
L 137.012841 259.716 
L 135.512841 258.216 
L 134.012841 259.716 
L 132.512841 258.216 
L 131.012841 259.716 
L 132.512841 261.216 
L 131.012841 262.716 
z
" style="fill:#2f9599;stroke:#ffffff;stroke-width:0.48;"/>
    <path clip-path="url(#p30e5b417b9)" d="M 139.276477 264.216 
L 140.776477 262.716 
L 142.276477 264.216 
L 143.776477 262.716 
L 142.276477 261.216 
L 143.776477 259.716 
L 142.276477 258.216 
L 140.776477 259.716 
L 139.276477 258.216 
L 137.776477 259.716 
L 139.276477 261.216 
L 137.776477 262.716 
z
" style="fill:#2f9599;stroke:#ffffff;stroke-width:0.48;"/>
    <path clip-path="url(#p30e5b417b9)" d="M 146.040114 264.216 
L 147.540114 262.716 
L 149.040114 264.216 
L 150.540114 262.716 
L 149.040114 261.216 
L 150.540114 259.716 
L 149.040114 258.216 
L 147.540114 259.716 
L 146.040114 258.216 
L 144.540114 259.716 
L 146.040114 261.216 
L 144.540114 262.716 
z
" style="fill:#2f9599;stroke:#ffffff;stroke-width:0.48;"/>
    <path clip-path="url(#p30e5b417b9)" d="M 152.80375 264.216 
L 154.30375 262.716 
L 155.80375 264.216 
L 157.30375 262.716 
L 155.80375 261.216 
L 157.30375 259.716 
L 155.80375 258.216 
L 154.30375 259.716 
L 152.80375 258.216 
L 151.30375 259.716 
L 152.80375 261.216 
L 151.30375 262.716 
z
" style="fill:#2f9599;stroke:#ffffff;stroke-width:0.48;"/>
    <path clip-path="url(#p30e5b417b9)" d="M 159.567386 264.216 
L 161.067386 262.716 
L 162.567386 264.216 
L 164.067386 262.716 
L 162.567386 261.216 
L 164.067386 259.716 
L 162.567386 258.216 
L 161.067386 259.716 
L 159.567386 258.216 
L 158.067386 259.716 
L 159.567386 261.216 
L 158.067386 262.716 
z
" style="fill:#2f9599;stroke:#ffffff;stroke-width:0.48;"/>
    <path clip-path="url(#p30e5b417b9)" d="M 166.331023 264.216 
L 167.831023 262.716 
L 169.331023 264.216 
L 170.831023 262.716 
L 169.331023 261.216 
L 170.831023 259.716 
L 169.331023 258.216 
L 167.831023 259.716 
L 166.331023 258.216 
L 164.831023 259.716 
L 166.331023 261.216 
L 164.831023 262.716 
z
" style="fill:#2f9599;stroke:#ffffff;stroke-width:0.48;"/>
    <path clip-path="url(#p30e5b417b9)" d="M 173.094659 260.119139 
L 174.594659 258.619139 
L 176.094659 260.119139 
L 177.594659 258.619139 
L 176.094659 257.119139 
L 177.594659 255.619139 
L 176.094659 254.119139 
L 174.594659 255.619139 
L 173.094659 254.119139 
L 171.594659 255.619139 
L 173.094659 257.119139 
L 171.594659 258.619139 
z
" style="fill:#2f9599;stroke:#ffffff;stroke-width:0.48;"/>
    <path clip-path="url(#p30e5b417b9)" d="M 179.858295 260.119139 
L 181.358295 258.619139 
L 182.858295 260.119139 
L 184.358295 258.619139 
L 182.858295 257.119139 
L 184.358295 255.619139 
L 182.858295 254.119139 
L 181.358295 255.619139 
L 179.858295 254.119139 
L 178.358295 255.619139 
L 179.858295 257.119139 
L 178.358295 258.619139 
z
" style="fill:#2f9599;stroke:#ffffff;stroke-width:0.48;"/>
    <path clip-path="url(#p30e5b417b9)" d="M 186.621932 260.119139 
L 188.121932 258.619139 
L 189.621932 260.119139 
L 191.121932 258.619139 
L 189.621932 257.119139 
L 191.121932 255.619139 
L 189.621932 254.119139 
L 188.121932 255.619139 
L 186.621932 254.119139 
L 185.121932 255.619139 
L 186.621932 257.119139 
L 185.121932 258.619139 
z
" style="fill:#2f9599;stroke:#ffffff;stroke-width:0.48;"/>
    <path clip-path="url(#p30e5b417b9)" d="M 193.385568 260.119139 
L 194.885568 258.619139 
L 196.385568 260.119139 
L 197.885568 258.619139 
L 196.385568 257.119139 
L 197.885568 255.619139 
L 196.385568 254.119139 
L 194.885568 255.619139 
L 193.385568 254.119139 
L 191.885568 255.619139 
L 193.385568 257.119139 
L 191.885568 258.619139 
z
" style="fill:#2f9599;stroke:#ffffff;stroke-width:0.48;"/>
    <path clip-path="url(#p30e5b417b9)" d="M 200.149205 260.119139 
L 201.649205 258.619139 
L 203.149205 260.119139 
L 204.649205 258.619139 
L 203.149205 257.119139 
L 204.649205 255.619139 
L 203.149205 254.119139 
L 201.649205 255.619139 
L 200.149205 254.119139 
L 198.649205 255.619139 
L 200.149205 257.119139 
L 198.649205 258.619139 
z
" style="fill:#2f9599;stroke:#ffffff;stroke-width:0.48;"/>
    <path clip-path="url(#p30e5b417b9)" d="M 206.912841 260.119139 
L 208.412841 258.619139 
L 209.912841 260.119139 
L 211.412841 258.619139 
L 209.912841 257.119139 
L 211.412841 255.619139 
L 209.912841 254.119139 
L 208.412841 255.619139 
L 206.912841 254.119139 
L 205.412841 255.619139 
L 206.912841 257.119139 
L 205.412841 258.619139 
z
" style="fill:#2f9599;stroke:#ffffff;stroke-width:0.48;"/>
    <path clip-path="url(#p30e5b417b9)" d="M 213.676477 260.119139 
L 215.176477 258.619139 
L 216.676477 260.119139 
L 218.176477 258.619139 
L 216.676477 257.119139 
L 218.176477 255.619139 
L 216.676477 254.119139 
L 215.176477 255.619139 
L 213.676477 254.119139 
L 212.176477 255.619139 
L 213.676477 257.119139 
L 212.176477 258.619139 
z
" style="fill:#2f9599;stroke:#ffffff;stroke-width:0.48;"/>
    <path clip-path="url(#p30e5b417b9)" d="M 220.440114 260.119139 
L 221.940114 258.619139 
L 223.440114 260.119139 
L 224.940114 258.619139 
L 223.440114 257.119139 
L 224.940114 255.619139 
L 223.440114 254.119139 
L 221.940114 255.619139 
L 220.440114 254.119139 
L 218.940114 255.619139 
L 220.440114 257.119139 
L 218.940114 258.619139 
z
" style="fill:#2f9599;stroke:#ffffff;stroke-width:0.48;"/>
    <path clip-path="url(#p30e5b417b9)" d="M 227.20375 260.119139 
L 228.70375 258.619139 
L 230.20375 260.119139 
L 231.70375 258.619139 
L 230.20375 257.119139 
L 231.70375 255.619139 
L 230.20375 254.119139 
L 228.70375 255.619139 
L 227.20375 254.119139 
L 225.70375 255.619139 
L 227.20375 257.119139 
L 225.70375 258.619139 
z
" style="fill:#2f9599;stroke:#ffffff;stroke-width:0.48;"/>
    <path clip-path="url(#p30e5b417b9)" d="M 233.967386 260.119139 
L 235.467386 258.619139 
L 236.967386 260.119139 
L 238.467386 258.619139 
L 236.967386 257.119139 
L 238.467386 255.619139 
L 236.967386 254.119139 
L 235.467386 255.619139 
L 233.967386 254.119139 
L 232.467386 255.619139 
L 233.967386 257.119139 
L 232.467386 258.619139 
z
" style="fill:#2f9599;stroke:#ffffff;stroke-width:0.48;"/>
    <path clip-path="url(#p30e5b417b9)" d="M 240.731023 260.119139 
L 242.231023 258.619139 
L 243.731023 260.119139 
L 245.231023 258.619139 
L 243.731023 257.119139 
L 245.231023 255.619139 
L 243.731023 254.119139 
L 242.231023 255.619139 
L 240.731023 254.119139 
L 239.231023 255.619139 
L 240.731023 257.119139 
L 239.231023 258.619139 
z
" style="fill:#2f9599;stroke:#ffffff;stroke-width:0.48;"/>
    <path clip-path="url(#p30e5b417b9)" d="M 247.494659 260.119139 
L 248.994659 258.619139 
L 250.494659 260.119139 
L 251.994659 258.619139 
L 250.494659 257.119139 
L 251.994659 255.619139 
L 250.494659 254.119139 
L 248.994659 255.619139 
L 247.494659 254.119139 
L 245.994659 255.619139 
L 247.494659 257.119139 
L 245.994659 258.619139 
z
" style="fill:#2f9599;stroke:#ffffff;stroke-width:0.48;"/>
    <path clip-path="url(#p30e5b417b9)" d="M 254.258295 260.119139 
L 255.758295 258.619139 
L 257.258295 260.119139 
L 258.758295 258.619139 
L 257.258295 257.119139 
L 258.758295 255.619139 
L 257.258295 254.119139 
L 255.758295 255.619139 
L 254.258295 254.119139 
L 252.758295 255.619139 
L 254.258295 257.119139 
L 252.758295 258.619139 
z
" style="fill:#2f9599;stroke:#ffffff;stroke-width:0.48;"/>
    <path clip-path="url(#p30e5b417b9)" d="M 261.021932 260.119139 
L 262.521932 258.619139 
L 264.021932 260.119139 
L 265.521932 258.619139 
L 264.021932 257.119139 
L 265.521932 255.619139 
L 264.021932 254.119139 
L 262.521932 255.619139 
L 261.021932 254.119139 
L 259.521932 255.619139 
L 261.021932 257.119139 
L 259.521932 258.619139 
z
" style="fill:#2f9599;stroke:#ffffff;stroke-width:0.48;"/>
    <path clip-path="url(#p30e5b417b9)" d="M 267.785568 260.119139 
L 269.285568 258.619139 
L 270.785568 260.119139 
L 272.285568 258.619139 
L 270.785568 257.119139 
L 272.285568 255.619139 
L 270.785568 254.119139 
L 269.285568 255.619139 
L 267.785568 254.119139 
L 266.285568 255.619139 
L 267.785568 257.119139 
L 266.285568 258.619139 
z
" style="fill:#2f9599;stroke:#ffffff;stroke-width:0.48;"/>
    <path clip-path="url(#p30e5b417b9)" d="M 274.549205 260.119139 
L 276.049205 258.619139 
L 277.549205 260.119139 
L 279.049205 258.619139 
L 277.549205 257.119139 
L 279.049205 255.619139 
L 277.549205 254.119139 
L 276.049205 255.619139 
L 274.549205 254.119139 
L 273.049205 255.619139 
L 274.549205 257.119139 
L 273.049205 258.619139 
z
" style="fill:#2f9599;stroke:#ffffff;stroke-width:0.48;"/>
    <path clip-path="url(#p30e5b417b9)" d="M 281.312841 260.119139 
L 282.812841 258.619139 
L 284.312841 260.119139 
L 285.812841 258.619139 
L 284.312841 257.119139 
L 285.812841 255.619139 
L 284.312841 254.119139 
L 282.812841 255.619139 
L 281.312841 254.119139 
L 279.812841 255.619139 
L 281.312841 257.119139 
L 279.812841 258.619139 
z
" style="fill:#2f9599;stroke:#ffffff;stroke-width:0.48;"/>
    <path clip-path="url(#p30e5b417b9)" d="M 288.076477 260.119139 
L 289.576477 258.619139 
L 291.076477 260.119139 
L 292.576477 258.619139 
L 291.076477 257.119139 
L 292.576477 255.619139 
L 291.076477 254.119139 
L 289.576477 255.619139 
L 288.076477 254.119139 
L 286.576477 255.619139 
L 288.076477 257.119139 
L 286.576477 258.619139 
z
" style="fill:#2f9599;stroke:#ffffff;stroke-width:0.48;"/>
    <path clip-path="url(#p30e5b417b9)" d="M 294.840114 260.119139 
L 296.340114 258.619139 
L 297.840114 260.119139 
L 299.340114 258.619139 
L 297.840114 257.119139 
L 299.340114 255.619139 
L 297.840114 254.119139 
L 296.340114 255.619139 
L 294.840114 254.119139 
L 293.340114 255.619139 
L 294.840114 257.119139 
L 293.340114 258.619139 
z
" style="fill:#2f9599;stroke:#ffffff;stroke-width:0.48;"/>
    <path clip-path="url(#p30e5b417b9)" d="M 301.60375 260.119139 
L 303.10375 258.619139 
L 304.60375 260.119139 
L 306.10375 258.619139 
L 304.60375 257.119139 
L 306.10375 255.619139 
L 304.60375 254.119139 
L 303.10375 255.619139 
L 301.60375 254.119139 
L 300.10375 255.619139 
L 301.60375 257.119139 
L 300.10375 258.619139 
z
" style="fill:#2f9599;stroke:#ffffff;stroke-width:0.48;"/>
    <path clip-path="url(#p30e5b417b9)" d="M 308.367386 260.119139 
L 309.867386 258.619139 
L 311.367386 260.119139 
L 312.867386 258.619139 
L 311.367386 257.119139 
L 312.867386 255.619139 
L 311.367386 254.119139 
L 309.867386 255.619139 
L 308.367386 254.119139 
L 306.867386 255.619139 
L 308.367386 257.119139 
L 306.867386 258.619139 
z
" style="fill:#2f9599;stroke:#ffffff;stroke-width:0.48;"/>
    <path clip-path="url(#p30e5b417b9)" d="M 315.131023 260.119139 
L 316.631023 258.619139 
L 318.131023 260.119139 
L 319.631023 258.619139 
L 318.131023 257.119139 
L 319.631023 255.619139 
L 318.131023 254.119139 
L 316.631023 255.619139 
L 315.131023 254.119139 
L 313.631023 255.619139 
L 315.131023 257.119139 
L 313.631023 258.619139 
z
" style="fill:#2f9599;stroke:#ffffff;stroke-width:0.48;"/>
    <path clip-path="url(#p30e5b417b9)" d="M 321.894659 260.119139 
L 323.394659 258.619139 
L 324.894659 260.119139 
L 326.394659 258.619139 
L 324.894659 257.119139 
L 326.394659 255.619139 
L 324.894659 254.119139 
L 323.394659 255.619139 
L 321.894659 254.119139 
L 320.394659 255.619139 
L 321.894659 257.119139 
L 320.394659 258.619139 
z
" style="fill:#2f9599;stroke:#ffffff;stroke-width:0.48;"/>
    <path clip-path="url(#p30e5b417b9)" d="M 328.658295 260.119139 
L 330.158295 258.619139 
L 331.658295 260.119139 
L 333.158295 258.619139 
L 331.658295 257.119139 
L 333.158295 255.619139 
L 331.658295 254.119139 
L 330.158295 255.619139 
L 328.658295 254.119139 
L 327.158295 255.619139 
L 328.658295 257.119139 
L 327.158295 258.619139 
z
" style="fill:#2f9599;stroke:#ffffff;stroke-width:0.48;"/>
    <path clip-path="url(#p30e5b417b9)" d="M 335.421932 260.119139 
L 336.921932 258.619139 
L 338.421932 260.119139 
L 339.921932 258.619139 
L 338.421932 257.119139 
L 339.921932 255.619139 
L 338.421932 254.119139 
L 336.921932 255.619139 
L 335.421932 254.119139 
L 333.921932 255.619139 
L 335.421932 257.119139 
L 333.921932 258.619139 
z
" style="fill:#2f9599;stroke:#ffffff;stroke-width:0.48;"/>
    <path clip-path="url(#p30e5b417b9)" d="M 342.185568 260.119139 
L 343.685568 258.619139 
L 345.185568 260.119139 
L 346.685568 258.619139 
L 345.185568 257.119139 
L 346.685568 255.619139 
L 345.185568 254.119139 
L 343.685568 255.619139 
L 342.185568 254.119139 
L 340.685568 255.619139 
L 342.185568 257.119139 
L 340.685568 258.619139 
z
" style="fill:#2f9599;stroke:#ffffff;stroke-width:0.48;"/>
    <path clip-path="url(#p30e5b417b9)" d="M 348.949205 260.119139 
L 350.449205 258.619139 
L 351.949205 260.119139 
L 353.449205 258.619139 
L 351.949205 257.119139 
L 353.449205 255.619139 
L 351.949205 254.119139 
L 350.449205 255.619139 
L 348.949205 254.119139 
L 347.449205 255.619139 
L 348.949205 257.119139 
L 347.449205 258.619139 
z
" style="fill:#2f9599;stroke:#ffffff;stroke-width:0.48;"/>
    <path clip-path="url(#p30e5b417b9)" d="M 355.712841 260.119139 
L 357.212841 258.619139 
L 358.712841 260.119139 
L 360.212841 258.619139 
L 358.712841 257.119139 
L 360.212841 255.619139 
L 358.712841 254.119139 
L 357.212841 255.619139 
L 355.712841 254.119139 
L 354.212841 255.619139 
L 355.712841 257.119139 
L 354.212841 258.619139 
z
" style="fill:#2f9599;stroke:#ffffff;stroke-width:0.48;"/>
    <path clip-path="url(#p30e5b417b9)" d="M 362.476477 260.119139 
L 363.976477 258.619139 
L 365.476477 260.119139 
L 366.976477 258.619139 
L 365.476477 257.119139 
L 366.976477 255.619139 
L 365.476477 254.119139 
L 363.976477 255.619139 
L 362.476477 254.119139 
L 360.976477 255.619139 
L 362.476477 257.119139 
L 360.976477 258.619139 
z
" style="fill:#2f9599;stroke:#ffffff;stroke-width:0.48;"/>
    <path clip-path="url(#p30e5b417b9)" d="M 369.240114 260.119139 
L 370.740114 258.619139 
L 372.240114 260.119139 
L 373.740114 258.619139 
L 372.240114 257.119139 
L 373.740114 255.619139 
L 372.240114 254.119139 
L 370.740114 255.619139 
L 369.240114 254.119139 
L 367.740114 255.619139 
L 369.240114 257.119139 
L 367.740114 258.619139 
z
" style="fill:#2f9599;stroke:#ffffff;stroke-width:0.48;"/>
    <path clip-path="url(#p30e5b417b9)" d="M 376.00375 260.119139 
L 377.50375 258.619139 
L 379.00375 260.119139 
L 380.50375 258.619139 
L 379.00375 257.119139 
L 380.50375 255.619139 
L 379.00375 254.119139 
L 377.50375 255.619139 
L 376.00375 254.119139 
L 374.50375 255.619139 
L 376.00375 257.119139 
L 374.50375 258.619139 
z
" style="fill:#2f9599;stroke:#ffffff;stroke-width:0.48;"/>
    <path clip-path="url(#p30e5b417b9)" d="M 382.767386 260.119139 
L 384.267386 258.619139 
L 385.767386 260.119139 
L 387.267386 258.619139 
L 385.767386 257.119139 
L 387.267386 255.619139 
L 385.767386 254.119139 
L 384.267386 255.619139 
L 382.767386 254.119139 
L 381.267386 255.619139 
L 382.767386 257.119139 
L 381.267386 258.619139 
z
" style="fill:#2f9599;stroke:#ffffff;stroke-width:0.48;"/>
    <path clip-path="url(#p30e5b417b9)" d="M 389.531023 260.119139 
L 391.031023 258.619139 
L 392.531023 260.119139 
L 394.031023 258.619139 
L 392.531023 257.119139 
L 394.031023 255.619139 
L 392.531023 254.119139 
L 391.031023 255.619139 
L 389.531023 254.119139 
L 388.031023 255.619139 
L 389.531023 257.119139 
L 388.031023 258.619139 
z
" style="fill:#2f9599;stroke:#ffffff;stroke-width:0.48;"/>
    <path clip-path="url(#p30e5b417b9)" d="M 64.255157 29.566606 
L 64.255157 33.809247 
L 68.497798 33.809247 
L 68.497798 29.566606 
z
" style="fill:#a7226e;stroke:#ffffff;stroke-width:0.48;"/>
    <path clip-path="url(#p30e5b417b9)" d="M 71.018793 29.566606 
L 71.018793 33.809247 
L 75.261434 33.809247 
L 75.261434 29.566606 
z
" style="fill:#a7226e;stroke:#ffffff;stroke-width:0.48;"/>
    <path clip-path="url(#p30e5b417b9)" d="M 77.78243 29.566606 
L 77.78243 33.809247 
L 82.02507 33.809247 
L 82.02507 29.566606 
z
" style="fill:#a7226e;stroke:#ffffff;stroke-width:0.48;"/>
    <path clip-path="url(#p30e5b417b9)" d="M 84.546066 29.566606 
L 84.546066 33.809247 
L 88.788707 33.809247 
L 88.788707 29.566606 
z
" style="fill:#a7226e;stroke:#ffffff;stroke-width:0.48;"/>
    <path clip-path="url(#p30e5b417b9)" d="M 91.309702 29.566606 
L 91.309702 33.809247 
L 95.552343 33.809247 
L 95.552343 29.566606 
z
" style="fill:#a7226e;stroke:#ffffff;stroke-width:0.48;"/>
    <path clip-path="url(#p30e5b417b9)" d="M 98.073339 41.958533 
L 98.073339 46.201174 
L 102.315979 46.201174 
L 102.315979 41.958533 
z
" style="fill:#a7226e;stroke:#ffffff;stroke-width:0.48;"/>
    <path clip-path="url(#p30e5b417b9)" d="M 104.836975 39.232309 
L 104.836975 43.47495 
L 109.079616 43.47495 
L 109.079616 39.232309 
z
" style="fill:#a7226e;stroke:#ffffff;stroke-width:0.48;"/>
    <path clip-path="url(#p30e5b417b9)" d="M 111.600611 39.232309 
L 111.600611 43.47495 
L 115.843252 43.47495 
L 115.843252 39.232309 
z
" style="fill:#a7226e;stroke:#ffffff;stroke-width:0.48;"/>
    <path clip-path="url(#p30e5b417b9)" d="M 118.364248 48.518965 
L 118.364248 52.761605 
L 122.606889 52.761605 
L 122.606889 48.518965 
z
" style="fill:#a7226e;stroke:#ffffff;stroke-width:0.48;"/>
    <path clip-path="url(#p30e5b417b9)" d="M 125.127884 36.612996 
L 125.127884 40.855637 
L 129.370525 40.855637 
L 129.370525 36.612996 
z
" style="fill:#a7226e;stroke:#ffffff;stroke-width:0.48;"/>
    <path clip-path="url(#p30e5b417b9)" d="M 131.891521 48.518965 
L 131.891521 52.761605 
L 136.134161 52.761605 
L 136.134161 48.518965 
z
" style="fill:#a7226e;stroke:#ffffff;stroke-width:0.48;"/>
    <path clip-path="url(#p30e5b417b9)" d="M 138.655157 34.094426 
L 138.655157 38.337066 
L 142.897798 38.337066 
L 142.897798 34.094426 
z
" style="fill:#a7226e;stroke:#ffffff;stroke-width:0.48;"/>
    <path clip-path="url(#p30e5b417b9)" d="M 145.418793 60.208461 
L 145.418793 64.451102 
L 149.661434 64.451102 
L 149.661434 60.208461 
z
" style="fill:#a7226e;stroke:#ffffff;stroke-width:0.48;"/>
    <path clip-path="url(#p30e5b417b9)" d="M 152.18243 68.291377 
L 152.18243 72.534018 
L 156.42507 72.534018 
L 156.42507 68.291377 
z
" style="fill:#a7226e;stroke:#ffffff;stroke-width:0.48;"/>
    <path clip-path="url(#p30e5b417b9)" d="M 158.946066 104.730751 
L 158.946066 108.973392 
L 163.188707 108.973392 
L 163.188707 104.730751 
z
" style="fill:#a7226e;stroke:#ffffff;stroke-width:0.48;"/>
    <path clip-path="url(#p30e5b417b9)" d="M 165.709702 124.639092 
L 165.709702 128.881733 
L 169.952343 128.881733 
L 169.952343 124.639092 
z
" style="fill:#a7226e;stroke:#ffffff;stroke-width:0.48;"/>
    <path clip-path="url(#p30e5b417b9)" d="M 172.473339 114.684922 
L 172.473339 118.927562 
L 176.715979 118.927562 
L 176.715979 114.684922 
z
" style="fill:#a7226e;stroke:#ffffff;stroke-width:0.48;"/>
    <path clip-path="url(#p30e5b417b9)" d="M 179.236975 114.684922 
L 179.236975 118.927562 
L 183.479616 118.927562 
L 183.479616 114.684922 
z
" style="fill:#a7226e;stroke:#ffffff;stroke-width:0.48;"/>
    <path clip-path="url(#p30e5b417b9)" d="M 186.000611 114.684922 
L 186.000611 118.927562 
L 190.243252 118.927562 
L 190.243252 114.684922 
z
" style="fill:#a7226e;stroke:#ffffff;stroke-width:0.48;"/>
    <path clip-path="url(#p30e5b417b9)" d="M 192.764248 114.684922 
L 192.764248 118.927562 
L 197.006889 118.927562 
L 197.006889 114.684922 
z
" style="fill:#a7226e;stroke:#ffffff;stroke-width:0.48;"/>
    <path clip-path="url(#p30e5b417b9)" d="M 199.527884 114.684922 
L 199.527884 118.927562 
L 203.770525 118.927562 
L 203.770525 114.684922 
z
" style="fill:#a7226e;stroke:#ffffff;stroke-width:0.48;"/>
    <path clip-path="url(#p30e5b417b9)" d="M 206.291521 104.559128 
L 206.291521 108.801768 
L 210.534161 108.801768 
L 210.534161 104.559128 
z
" style="fill:#a7226e;stroke:#ffffff;stroke-width:0.48;"/>
    <path clip-path="url(#p30e5b417b9)" d="M 213.055157 101.187741 
L 213.055157 105.430382 
L 217.297798 105.430382 
L 217.297798 101.187741 
z
" style="fill:#a7226e;stroke:#ffffff;stroke-width:0.48;"/>
    <path clip-path="url(#p30e5b417b9)" d="M 219.818793 132.062542 
L 219.818793 136.305182 
L 224.061434 136.305182 
L 224.061434 132.062542 
z
" style="fill:#a7226e;stroke:#ffffff;stroke-width:0.48;"/>
    <path clip-path="url(#p30e5b417b9)" d="M 226.58243 132.062542 
L 226.58243 136.305182 
L 230.82507 136.305182 
L 230.82507 132.062542 
z
" style="fill:#a7226e;stroke:#ffffff;stroke-width:0.48;"/>
    <path clip-path="url(#p30e5b417b9)" d="M 233.346066 161.811698 
L 233.346066 166.054339 
L 237.588707 166.054339 
L 237.588707 161.811698 
z
" style="fill:#a7226e;stroke:#ffffff;stroke-width:0.48;"/>
    <path clip-path="url(#p30e5b417b9)" d="M 240.109702 133.348992 
L 240.109702 137.591632 
L 244.352343 137.591632 
L 244.352343 133.348992 
z
" style="fill:#a7226e;stroke:#ffffff;stroke-width:0.48;"/>
    <path clip-path="url(#p30e5b417b9)" d="M 246.873339 139.187495 
L 246.873339 143.430136 
L 251.115979 143.430136 
L 251.115979 139.187495 
z
" style="fill:#a7226e;stroke:#ffffff;stroke-width:0.48;"/>
    <path clip-path="url(#p30e5b417b9)" d="M 253.636975 150.341652 
L 253.636975 154.584293 
L 257.879616 154.584293 
L 257.879616 150.341652 
z
" style="fill:#a7226e;stroke:#ffffff;stroke-width:0.48;"/>
    <path clip-path="url(#p30e5b417b9)" d="M 260.400611 150.341652 
L 260.400611 154.584293 
L 264.643252 154.584293 
L 264.643252 150.341652 
z
" style="fill:#a7226e;stroke:#ffffff;stroke-width:0.48;"/>
    <path clip-path="url(#p30e5b417b9)" d="M 267.164248 150.341652 
L 267.164248 154.584293 
L 271.406889 154.584293 
L 271.406889 150.341652 
z
" style="fill:#a7226e;stroke:#ffffff;stroke-width:0.48;"/>
    <path clip-path="url(#p30e5b417b9)" d="M 273.927884 150.341652 
L 273.927884 154.584293 
L 278.170525 154.584293 
L 278.170525 150.341652 
z
" style="fill:#a7226e;stroke:#ffffff;stroke-width:0.48;"/>
    <path clip-path="url(#p30e5b417b9)" d="M 280.691521 150.341652 
L 280.691521 154.584293 
L 284.934161 154.584293 
L 284.934161 150.341652 
z
" style="fill:#a7226e;stroke:#ffffff;stroke-width:0.48;"/>
    <path clip-path="url(#p30e5b417b9)" d="M 287.455157 155.183397 
L 287.455157 159.426037 
L 291.697798 159.426037 
L 291.697798 155.183397 
z
" style="fill:#a7226e;stroke:#ffffff;stroke-width:0.48;"/>
    <path clip-path="url(#p30e5b417b9)" d="M 294.218793 155.183397 
L 294.218793 159.426037 
L 298.461434 159.426037 
L 298.461434 155.183397 
z
" style="fill:#a7226e;stroke:#ffffff;stroke-width:0.48;"/>
    <path clip-path="url(#p30e5b417b9)" d="M 300.98243 155.183397 
L 300.98243 159.426037 
L 305.22507 159.426037 
L 305.22507 155.183397 
z
" style="fill:#a7226e;stroke:#ffffff;stroke-width:0.48;"/>
    <path clip-path="url(#p30e5b417b9)" d="M 307.746066 155.183397 
L 307.746066 159.426037 
L 311.988707 159.426037 
L 311.988707 155.183397 
z
" style="fill:#a7226e;stroke:#ffffff;stroke-width:0.48;"/>
    <path clip-path="url(#p30e5b417b9)" d="M 314.509702 155.183397 
L 314.509702 159.426037 
L 318.752343 159.426037 
L 318.752343 155.183397 
z
" style="fill:#a7226e;stroke:#ffffff;stroke-width:0.48;"/>
    <path clip-path="url(#p30e5b417b9)" d="M 321.273339 155.183397 
L 321.273339 159.426037 
L 325.515979 159.426037 
L 325.515979 155.183397 
z
" style="fill:#a7226e;stroke:#ffffff;stroke-width:0.48;"/>
    <path clip-path="url(#p30e5b417b9)" d="M 328.036975 155.183397 
L 328.036975 159.426037 
L 332.279616 159.426037 
L 332.279616 155.183397 
z
" style="fill:#a7226e;stroke:#ffffff;stroke-width:0.48;"/>
    <path clip-path="url(#p30e5b417b9)" d="M 334.800611 155.183397 
L 334.800611 159.426037 
L 339.043252 159.426037 
L 339.043252 155.183397 
z
" style="fill:#a7226e;stroke:#ffffff;stroke-width:0.48;"/>
    <path clip-path="url(#p30e5b417b9)" d="M 341.564248 155.183397 
L 341.564248 159.426037 
L 345.806889 159.426037 
L 345.806889 155.183397 
z
" style="fill:#a7226e;stroke:#ffffff;stroke-width:0.48;"/>
    <path clip-path="url(#p30e5b417b9)" d="M 348.327884 155.183397 
L 348.327884 159.426037 
L 352.570525 159.426037 
L 352.570525 155.183397 
z
" style="fill:#a7226e;stroke:#ffffff;stroke-width:0.48;"/>
    <path clip-path="url(#p30e5b417b9)" d="M 355.091521 155.183397 
L 355.091521 159.426037 
L 359.334161 159.426037 
L 359.334161 155.183397 
z
" style="fill:#a7226e;stroke:#ffffff;stroke-width:0.48;"/>
    <path clip-path="url(#p30e5b417b9)" d="M 361.855157 155.183397 
L 361.855157 159.426037 
L 366.097798 159.426037 
L 366.097798 155.183397 
z
" style="fill:#a7226e;stroke:#ffffff;stroke-width:0.48;"/>
    <path clip-path="url(#p30e5b417b9)" d="M 368.618793 155.183397 
L 368.618793 159.426037 
L 372.861434 159.426037 
L 372.861434 155.183397 
z
" style="fill:#a7226e;stroke:#ffffff;stroke-width:0.48;"/>
    <path clip-path="url(#p30e5b417b9)" d="M 375.38243 155.183397 
L 375.38243 159.426037 
L 379.62507 159.426037 
L 379.62507 155.183397 
z
" style="fill:#a7226e;stroke:#ffffff;stroke-width:0.48;"/>
    <path clip-path="url(#p30e5b417b9)" d="M 382.146066 155.183397 
L 382.146066 159.426037 
L 386.388707 159.426037 
L 386.388707 155.183397 
z
" style="fill:#a7226e;stroke:#ffffff;stroke-width:0.48;"/>
    <path clip-path="url(#p30e5b417b9)" d="M 388.909702 155.183397 
L 388.909702 159.426037 
L 393.152343 159.426037 
L 393.152343 155.183397 
z
" style="fill:#a7226e;stroke:#ffffff;stroke-width:0.48;"/>
   </g>
   <g id="PathCollection_2"/>
   <g id="PathCollection_3"/>
   <g id="PathCollection_4"/>
   <g id="matplotlib.axis_1">
    <g id="xtick_1">
     <g id="line2d_1">
      <defs>
       <path d="M 0 0 
L 0 3.5 
" id="m53f13640ae" style="stroke:#000000;stroke-width:0.8;"/>
      </defs>
      <g>
       <use style="stroke:#000000;stroke-width:0.8;" x="59.612841" xlink:href="#m53f13640ae" y="273.312"/>
      </g>
     </g>
     <g id="text_1">
      <!-- 0.0 -->
      <g transform="translate(51.661278 287.910437)scale(0.1 -0.1)">
       <defs>
        <path d="M 31.78125 66.40625 
Q 24.171875 66.40625 20.328125 58.90625 
Q 16.5 51.421875 16.5 36.375 
Q 16.5 21.390625 20.328125 13.890625 
Q 24.171875 6.390625 31.78125 6.390625 
Q 39.453125 6.390625 43.28125 13.890625 
Q 47.125 21.390625 47.125 36.375 
Q 47.125 51.421875 43.28125 58.90625 
Q 39.453125 66.40625 31.78125 66.40625 
z
M 31.78125 74.21875 
Q 44.046875 74.21875 50.515625 64.515625 
Q 56.984375 54.828125 56.984375 36.375 
Q 56.984375 17.96875 50.515625 8.265625 
Q 44.046875 -1.421875 31.78125 -1.421875 
Q 19.53125 -1.421875 13.0625 8.265625 
Q 6.59375 17.96875 6.59375 36.375 
Q 6.59375 54.828125 13.0625 64.515625 
Q 19.53125 74.21875 31.78125 74.21875 
z
" id="DejaVuSans-48"/>
        <path d="M 10.6875 12.40625 
L 21 12.40625 
L 21 0 
L 10.6875 0 
z
" id="DejaVuSans-46"/>
       </defs>
       <use xlink:href="#DejaVuSans-48"/>
       <use x="63.623047" xlink:href="#DejaVuSans-46"/>
       <use x="95.410156" xlink:href="#DejaVuSans-48"/>
      </g>
     </g>
    </g>
    <g id="xtick_2">
     <g id="line2d_2">
      <g>
       <use style="stroke:#000000;stroke-width:0.8;" x="127.249205" xlink:href="#m53f13640ae" y="273.312"/>
      </g>
     </g>
     <g id="text_2">
      <!-- 0.2 -->
      <g transform="translate(119.297642 287.910437)scale(0.1 -0.1)">
       <defs>
        <path d="M 19.1875 8.296875 
L 53.609375 8.296875 
L 53.609375 0 
L 7.328125 0 
L 7.328125 8.296875 
Q 12.9375 14.109375 22.625 23.890625 
Q 32.328125 33.6875 34.8125 36.53125 
Q 39.546875 41.84375 41.421875 45.53125 
Q 43.3125 49.21875 43.3125 52.78125 
Q 43.3125 58.59375 39.234375 62.25 
Q 35.15625 65.921875 28.609375 65.921875 
Q 23.96875 65.921875 18.8125 64.3125 
Q 13.671875 62.703125 7.8125 59.421875 
L 7.8125 69.390625 
Q 13.765625 71.78125 18.9375 73 
Q 24.125 74.21875 28.421875 74.21875 
Q 39.75 74.21875 46.484375 68.546875 
Q 53.21875 62.890625 53.21875 53.421875 
Q 53.21875 48.921875 51.53125 44.890625 
Q 49.859375 40.875 45.40625 35.40625 
Q 44.1875 33.984375 37.640625 27.21875 
Q 31.109375 20.453125 19.1875 8.296875 
z
" id="DejaVuSans-50"/>
       </defs>
       <use xlink:href="#DejaVuSans-48"/>
       <use x="63.623047" xlink:href="#DejaVuSans-46"/>
       <use x="95.410156" xlink:href="#DejaVuSans-50"/>
      </g>
     </g>
    </g>
    <g id="xtick_3">
     <g id="line2d_3">
      <g>
       <use style="stroke:#000000;stroke-width:0.8;" x="194.885568" xlink:href="#m53f13640ae" y="273.312"/>
      </g>
     </g>
     <g id="text_3">
      <!-- 0.4 -->
      <g transform="translate(186.934006 287.910437)scale(0.1 -0.1)">
       <defs>
        <path d="M 37.796875 64.3125 
L 12.890625 25.390625 
L 37.796875 25.390625 
z
M 35.203125 72.90625 
L 47.609375 72.90625 
L 47.609375 25.390625 
L 58.015625 25.390625 
L 58.015625 17.1875 
L 47.609375 17.1875 
L 47.609375 0 
L 37.796875 0 
L 37.796875 17.1875 
L 4.890625 17.1875 
L 4.890625 26.703125 
z
" id="DejaVuSans-52"/>
       </defs>
       <use xlink:href="#DejaVuSans-48"/>
       <use x="63.623047" xlink:href="#DejaVuSans-46"/>
       <use x="95.410156" xlink:href="#DejaVuSans-52"/>
      </g>
     </g>
    </g>
    <g id="xtick_4">
     <g id="line2d_4">
      <g>
       <use style="stroke:#000000;stroke-width:0.8;" x="262.521932" xlink:href="#m53f13640ae" y="273.312"/>
      </g>
     </g>
     <g id="text_4">
      <!-- 0.6 -->
      <g transform="translate(254.570369 287.910437)scale(0.1 -0.1)">
       <defs>
        <path d="M 33.015625 40.375 
Q 26.375 40.375 22.484375 35.828125 
Q 18.609375 31.296875 18.609375 23.390625 
Q 18.609375 15.53125 22.484375 10.953125 
Q 26.375 6.390625 33.015625 6.390625 
Q 39.65625 6.390625 43.53125 10.953125 
Q 47.40625 15.53125 47.40625 23.390625 
Q 47.40625 31.296875 43.53125 35.828125 
Q 39.65625 40.375 33.015625 40.375 
z
M 52.59375 71.296875 
L 52.59375 62.3125 
Q 48.875 64.0625 45.09375 64.984375 
Q 41.3125 65.921875 37.59375 65.921875 
Q 27.828125 65.921875 22.671875 59.328125 
Q 17.53125 52.734375 16.796875 39.40625 
Q 19.671875 43.65625 24.015625 45.921875 
Q 28.375 48.1875 33.59375 48.1875 
Q 44.578125 48.1875 50.953125 41.515625 
Q 57.328125 34.859375 57.328125 23.390625 
Q 57.328125 12.15625 50.6875 5.359375 
Q 44.046875 -1.421875 33.015625 -1.421875 
Q 20.359375 -1.421875 13.671875 8.265625 
Q 6.984375 17.96875 6.984375 36.375 
Q 6.984375 53.65625 15.1875 63.9375 
Q 23.390625 74.21875 37.203125 74.21875 
Q 40.921875 74.21875 44.703125 73.484375 
Q 48.484375 72.75 52.59375 71.296875 
z
" id="DejaVuSans-54"/>
       </defs>
       <use xlink:href="#DejaVuSans-48"/>
       <use x="63.623047" xlink:href="#DejaVuSans-46"/>
       <use x="95.410156" xlink:href="#DejaVuSans-54"/>
      </g>
     </g>
    </g>
    <g id="xtick_5">
     <g id="line2d_5">
      <g>
       <use style="stroke:#000000;stroke-width:0.8;" x="330.158295" xlink:href="#m53f13640ae" y="273.312"/>
      </g>
     </g>
     <g id="text_5">
      <!-- 0.8 -->
      <g transform="translate(322.206733 287.910437)scale(0.1 -0.1)">
       <defs>
        <path d="M 31.78125 34.625 
Q 24.75 34.625 20.71875 30.859375 
Q 16.703125 27.09375 16.703125 20.515625 
Q 16.703125 13.921875 20.71875 10.15625 
Q 24.75 6.390625 31.78125 6.390625 
Q 38.8125 6.390625 42.859375 10.171875 
Q 46.921875 13.96875 46.921875 20.515625 
Q 46.921875 27.09375 42.890625 30.859375 
Q 38.875 34.625 31.78125 34.625 
z
M 21.921875 38.8125 
Q 15.578125 40.375 12.03125 44.71875 
Q 8.5 49.078125 8.5 55.328125 
Q 8.5 64.0625 14.71875 69.140625 
Q 20.953125 74.21875 31.78125 74.21875 
Q 42.671875 74.21875 48.875 69.140625 
Q 55.078125 64.0625 55.078125 55.328125 
Q 55.078125 49.078125 51.53125 44.71875 
Q 48 40.375 41.703125 38.8125 
Q 48.828125 37.15625 52.796875 32.3125 
Q 56.78125 27.484375 56.78125 20.515625 
Q 56.78125 9.90625 50.3125 4.234375 
Q 43.84375 -1.421875 31.78125 -1.421875 
Q 19.734375 -1.421875 13.25 4.234375 
Q 6.78125 9.90625 6.78125 20.515625 
Q 6.78125 27.484375 10.78125 32.3125 
Q 14.796875 37.15625 21.921875 38.8125 
z
M 18.3125 54.390625 
Q 18.3125 48.734375 21.84375 45.5625 
Q 25.390625 42.390625 31.78125 42.390625 
Q 38.140625 42.390625 41.71875 45.5625 
Q 45.3125 48.734375 45.3125 54.390625 
Q 45.3125 60.0625 41.71875 63.234375 
Q 38.140625 66.40625 31.78125 66.40625 
Q 25.390625 66.40625 21.84375 63.234375 
Q 18.3125 60.0625 18.3125 54.390625 
z
" id="DejaVuSans-56"/>
       </defs>
       <use xlink:href="#DejaVuSans-48"/>
       <use x="63.623047" xlink:href="#DejaVuSans-46"/>
       <use x="95.410156" xlink:href="#DejaVuSans-56"/>
      </g>
     </g>
    </g>
    <g id="xtick_6">
     <g id="line2d_6">
      <g>
       <use style="stroke:#000000;stroke-width:0.8;" x="397.794659" xlink:href="#m53f13640ae" y="273.312"/>
      </g>
     </g>
     <g id="text_6">
      <!-- 1.0 -->
      <g transform="translate(389.843097 287.910437)scale(0.1 -0.1)">
       <defs>
        <path d="M 12.40625 8.296875 
L 28.515625 8.296875 
L 28.515625 63.921875 
L 10.984375 60.40625 
L 10.984375 69.390625 
L 28.421875 72.90625 
L 38.28125 72.90625 
L 38.28125 8.296875 
L 54.390625 8.296875 
L 54.390625 0 
L 12.40625 0 
z
" id="DejaVuSans-49"/>
       </defs>
       <use xlink:href="#DejaVuSans-49"/>
       <use x="63.623047" xlink:href="#DejaVuSans-46"/>
       <use x="95.410156" xlink:href="#DejaVuSans-48"/>
      </g>
     </g>
    </g>
    <g id="text_7">
     <!-- cutoff -->
     <g transform="translate(214.245938 301.588562)scale(0.1 -0.1)">
      <defs>
       <path d="M 48.78125 52.59375 
L 48.78125 44.1875 
Q 44.96875 46.296875 41.140625 47.34375 
Q 37.3125 48.390625 33.40625 48.390625 
Q 24.65625 48.390625 19.8125 42.84375 
Q 14.984375 37.3125 14.984375 27.296875 
Q 14.984375 17.28125 19.8125 11.734375 
Q 24.65625 6.203125 33.40625 6.203125 
Q 37.3125 6.203125 41.140625 7.25 
Q 44.96875 8.296875 48.78125 10.40625 
L 48.78125 2.09375 
Q 45.015625 0.34375 40.984375 -0.53125 
Q 36.96875 -1.421875 32.421875 -1.421875 
Q 20.0625 -1.421875 12.78125 6.34375 
Q 5.515625 14.109375 5.515625 27.296875 
Q 5.515625 40.671875 12.859375 48.328125 
Q 20.21875 56 33.015625 56 
Q 37.15625 56 41.109375 55.140625 
Q 45.0625 54.296875 48.78125 52.59375 
z
" id="DejaVuSans-99"/>
       <path d="M 8.5 21.578125 
L 8.5 54.6875 
L 17.484375 54.6875 
L 17.484375 21.921875 
Q 17.484375 14.15625 20.5 10.265625 
Q 23.53125 6.390625 29.59375 6.390625 
Q 36.859375 6.390625 41.078125 11.03125 
Q 45.3125 15.671875 45.3125 23.6875 
L 45.3125 54.6875 
L 54.296875 54.6875 
L 54.296875 0 
L 45.3125 0 
L 45.3125 8.40625 
Q 42.046875 3.421875 37.71875 1 
Q 33.40625 -1.421875 27.6875 -1.421875 
Q 18.265625 -1.421875 13.375 4.4375 
Q 8.5 10.296875 8.5 21.578125 
z
M 31.109375 56 
z
" id="DejaVuSans-117"/>
       <path d="M 18.3125 70.21875 
L 18.3125 54.6875 
L 36.8125 54.6875 
L 36.8125 47.703125 
L 18.3125 47.703125 
L 18.3125 18.015625 
Q 18.3125 11.328125 20.140625 9.421875 
Q 21.96875 7.515625 27.59375 7.515625 
L 36.8125 7.515625 
L 36.8125 0 
L 27.59375 0 
Q 17.1875 0 13.234375 3.875 
Q 9.28125 7.765625 9.28125 18.015625 
L 9.28125 47.703125 
L 2.6875 47.703125 
L 2.6875 54.6875 
L 9.28125 54.6875 
L 9.28125 70.21875 
z
" id="DejaVuSans-116"/>
       <path d="M 30.609375 48.390625 
Q 23.390625 48.390625 19.1875 42.75 
Q 14.984375 37.109375 14.984375 27.296875 
Q 14.984375 17.484375 19.15625 11.84375 
Q 23.34375 6.203125 30.609375 6.203125 
Q 37.796875 6.203125 41.984375 11.859375 
Q 46.1875 17.53125 46.1875 27.296875 
Q 46.1875 37.015625 41.984375 42.703125 
Q 37.796875 48.390625 30.609375 48.390625 
z
M 30.609375 56 
Q 42.328125 56 49.015625 48.375 
Q 55.71875 40.765625 55.71875 27.296875 
Q 55.71875 13.875 49.015625 6.21875 
Q 42.328125 -1.421875 30.609375 -1.421875 
Q 18.84375 -1.421875 12.171875 6.21875 
Q 5.515625 13.875 5.515625 27.296875 
Q 5.515625 40.765625 12.171875 48.375 
Q 18.84375 56 30.609375 56 
z
" id="DejaVuSans-111"/>
       <path d="M 37.109375 75.984375 
L 37.109375 68.5 
L 28.515625 68.5 
Q 23.6875 68.5 21.796875 66.546875 
Q 19.921875 64.59375 19.921875 59.515625 
L 19.921875 54.6875 
L 34.71875 54.6875 
L 34.71875 47.703125 
L 19.921875 47.703125 
L 19.921875 0 
L 10.890625 0 
L 10.890625 47.703125 
L 2.296875 47.703125 
L 2.296875 54.6875 
L 10.890625 54.6875 
L 10.890625 58.5 
Q 10.890625 67.625 15.140625 71.796875 
Q 19.390625 75.984375 28.609375 75.984375 
z
" id="DejaVuSans-102"/>
      </defs>
      <use xlink:href="#DejaVuSans-99"/>
      <use x="54.980469" xlink:href="#DejaVuSans-117"/>
      <use x="118.359375" xlink:href="#DejaVuSans-116"/>
      <use x="157.568359" xlink:href="#DejaVuSans-111"/>
      <use x="218.75" xlink:href="#DejaVuSans-102"/>
      <use x="253.955078" xlink:href="#DejaVuSans-102"/>
     </g>
    </g>
   </g>
   <g id="matplotlib.axis_2">
    <g id="ytick_1">
     <g id="line2d_7">
      <defs>
       <path d="M 0 0 
L -3.5 0 
" id="m03cf08f606" style="stroke:#000000;stroke-width:0.8;"/>
      </defs>
      <g>
       <use style="stroke:#000000;stroke-width:0.8;" x="50.14375" xlink:href="#m03cf08f606" y="272.091303"/>
      </g>
     </g>
     <g id="text_8">
      <!-- 0.40 -->
      <g transform="translate(20.878125 275.890522)scale(0.1 -0.1)">
       <use xlink:href="#DejaVuSans-48"/>
       <use x="63.623047" xlink:href="#DejaVuSans-46"/>
       <use x="95.410156" xlink:href="#DejaVuSans-52"/>
       <use x="159.033203" xlink:href="#DejaVuSans-48"/>
      </g>
     </g>
    </g>
    <g id="ytick_2">
     <g id="line2d_8">
      <g>
       <use style="stroke:#000000;stroke-width:0.8;" x="50.14375" xlink:href="#m03cf08f606" y="241.731083"/>
      </g>
     </g>
     <g id="text_9">
      <!-- 0.45 -->
      <g transform="translate(20.878125 245.530301)scale(0.1 -0.1)">
       <defs>
        <path d="M 10.796875 72.90625 
L 49.515625 72.90625 
L 49.515625 64.59375 
L 19.828125 64.59375 
L 19.828125 46.734375 
Q 21.96875 47.46875 24.109375 47.828125 
Q 26.265625 48.1875 28.421875 48.1875 
Q 40.625 48.1875 47.75 41.5 
Q 54.890625 34.8125 54.890625 23.390625 
Q 54.890625 11.625 47.5625 5.09375 
Q 40.234375 -1.421875 26.90625 -1.421875 
Q 22.3125 -1.421875 17.546875 -0.640625 
Q 12.796875 0.140625 7.71875 1.703125 
L 7.71875 11.625 
Q 12.109375 9.234375 16.796875 8.0625 
Q 21.484375 6.890625 26.703125 6.890625 
Q 35.15625 6.890625 40.078125 11.328125 
Q 45.015625 15.765625 45.015625 23.390625 
Q 45.015625 31 40.078125 35.4375 
Q 35.15625 39.890625 26.703125 39.890625 
Q 22.75 39.890625 18.8125 39.015625 
Q 14.890625 38.140625 10.796875 36.28125 
z
" id="DejaVuSans-53"/>
       </defs>
       <use xlink:href="#DejaVuSans-48"/>
       <use x="63.623047" xlink:href="#DejaVuSans-46"/>
       <use x="95.410156" xlink:href="#DejaVuSans-52"/>
       <use x="159.033203" xlink:href="#DejaVuSans-53"/>
      </g>
     </g>
    </g>
    <g id="ytick_3">
     <g id="line2d_9">
      <g>
       <use style="stroke:#000000;stroke-width:0.8;" x="50.14375" xlink:href="#m03cf08f606" y="211.370862"/>
      </g>
     </g>
     <g id="text_10">
      <!-- 0.50 -->
      <g transform="translate(20.878125 215.170081)scale(0.1 -0.1)">
       <use xlink:href="#DejaVuSans-48"/>
       <use x="63.623047" xlink:href="#DejaVuSans-46"/>
       <use x="95.410156" xlink:href="#DejaVuSans-53"/>
       <use x="159.033203" xlink:href="#DejaVuSans-48"/>
      </g>
     </g>
    </g>
    <g id="ytick_4">
     <g id="line2d_10">
      <g>
       <use style="stroke:#000000;stroke-width:0.8;" x="50.14375" xlink:href="#m03cf08f606" y="181.010642"/>
      </g>
     </g>
     <g id="text_11">
      <!-- 0.55 -->
      <g transform="translate(20.878125 184.809861)scale(0.1 -0.1)">
       <use xlink:href="#DejaVuSans-48"/>
       <use x="63.623047" xlink:href="#DejaVuSans-46"/>
       <use x="95.410156" xlink:href="#DejaVuSans-53"/>
       <use x="159.033203" xlink:href="#DejaVuSans-53"/>
      </g>
     </g>
    </g>
    <g id="ytick_5">
     <g id="line2d_11">
      <g>
       <use style="stroke:#000000;stroke-width:0.8;" x="50.14375" xlink:href="#m03cf08f606" y="150.650422"/>
      </g>
     </g>
     <g id="text_12">
      <!-- 0.60 -->
      <g transform="translate(20.878125 154.449641)scale(0.1 -0.1)">
       <use xlink:href="#DejaVuSans-48"/>
       <use x="63.623047" xlink:href="#DejaVuSans-46"/>
       <use x="95.410156" xlink:href="#DejaVuSans-54"/>
       <use x="159.033203" xlink:href="#DejaVuSans-48"/>
      </g>
     </g>
    </g>
    <g id="ytick_6">
     <g id="line2d_12">
      <g>
       <use style="stroke:#000000;stroke-width:0.8;" x="50.14375" xlink:href="#m03cf08f606" y="120.290202"/>
      </g>
     </g>
     <g id="text_13">
      <!-- 0.65 -->
      <g transform="translate(20.878125 124.089421)scale(0.1 -0.1)">
       <use xlink:href="#DejaVuSans-48"/>
       <use x="63.623047" xlink:href="#DejaVuSans-46"/>
       <use x="95.410156" xlink:href="#DejaVuSans-54"/>
       <use x="159.033203" xlink:href="#DejaVuSans-53"/>
      </g>
     </g>
    </g>
    <g id="ytick_7">
     <g id="line2d_13">
      <g>
       <use style="stroke:#000000;stroke-width:0.8;" x="50.14375" xlink:href="#m03cf08f606" y="89.929982"/>
      </g>
     </g>
     <g id="text_14">
      <!-- 0.70 -->
      <g transform="translate(20.878125 93.7292)scale(0.1 -0.1)">
       <defs>
        <path d="M 8.203125 72.90625 
L 55.078125 72.90625 
L 55.078125 68.703125 
L 28.609375 0 
L 18.3125 0 
L 43.21875 64.59375 
L 8.203125 64.59375 
z
" id="DejaVuSans-55"/>
       </defs>
       <use xlink:href="#DejaVuSans-48"/>
       <use x="63.623047" xlink:href="#DejaVuSans-46"/>
       <use x="95.410156" xlink:href="#DejaVuSans-55"/>
       <use x="159.033203" xlink:href="#DejaVuSans-48"/>
      </g>
     </g>
    </g>
    <g id="ytick_8">
     <g id="line2d_14">
      <g>
       <use style="stroke:#000000;stroke-width:0.8;" x="50.14375" xlink:href="#m03cf08f606" y="59.569761"/>
      </g>
     </g>
     <g id="text_15">
      <!-- 0.75 -->
      <g transform="translate(20.878125 63.36898)scale(0.1 -0.1)">
       <use xlink:href="#DejaVuSans-48"/>
       <use x="63.623047" xlink:href="#DejaVuSans-46"/>
       <use x="95.410156" xlink:href="#DejaVuSans-55"/>
       <use x="159.033203" xlink:href="#DejaVuSans-53"/>
      </g>
     </g>
    </g>
    <g id="ytick_9">
     <g id="line2d_15">
      <g>
       <use style="stroke:#000000;stroke-width:0.8;" x="50.14375" xlink:href="#m03cf08f606" y="29.209541"/>
      </g>
     </g>
     <g id="text_16">
      <!-- 0.80 -->
      <g transform="translate(20.878125 33.00876)scale(0.1 -0.1)">
       <use xlink:href="#DejaVuSans-48"/>
       <use x="63.623047" xlink:href="#DejaVuSans-46"/>
       <use x="95.410156" xlink:href="#DejaVuSans-56"/>
       <use x="159.033203" xlink:href="#DejaVuSans-48"/>
      </g>
     </g>
    </g>
    <g id="text_17">
     <!-- performance -->
     <g transform="translate(14.798438 172.278656)rotate(-90)scale(0.1 -0.1)">
      <defs>
       <path d="M 18.109375 8.203125 
L 18.109375 -20.796875 
L 9.078125 -20.796875 
L 9.078125 54.6875 
L 18.109375 54.6875 
L 18.109375 46.390625 
Q 20.953125 51.265625 25.265625 53.625 
Q 29.59375 56 35.59375 56 
Q 45.5625 56 51.78125 48.09375 
Q 58.015625 40.1875 58.015625 27.296875 
Q 58.015625 14.40625 51.78125 6.484375 
Q 45.5625 -1.421875 35.59375 -1.421875 
Q 29.59375 -1.421875 25.265625 0.953125 
Q 20.953125 3.328125 18.109375 8.203125 
z
M 48.6875 27.296875 
Q 48.6875 37.203125 44.609375 42.84375 
Q 40.53125 48.484375 33.40625 48.484375 
Q 26.265625 48.484375 22.1875 42.84375 
Q 18.109375 37.203125 18.109375 27.296875 
Q 18.109375 17.390625 22.1875 11.75 
Q 26.265625 6.109375 33.40625 6.109375 
Q 40.53125 6.109375 44.609375 11.75 
Q 48.6875 17.390625 48.6875 27.296875 
z
" id="DejaVuSans-112"/>
       <path d="M 56.203125 29.59375 
L 56.203125 25.203125 
L 14.890625 25.203125 
Q 15.484375 15.921875 20.484375 11.0625 
Q 25.484375 6.203125 34.421875 6.203125 
Q 39.59375 6.203125 44.453125 7.46875 
Q 49.3125 8.734375 54.109375 11.28125 
L 54.109375 2.78125 
Q 49.265625 0.734375 44.1875 -0.34375 
Q 39.109375 -1.421875 33.890625 -1.421875 
Q 20.796875 -1.421875 13.15625 6.1875 
Q 5.515625 13.8125 5.515625 26.8125 
Q 5.515625 40.234375 12.765625 48.109375 
Q 20.015625 56 32.328125 56 
Q 43.359375 56 49.78125 48.890625 
Q 56.203125 41.796875 56.203125 29.59375 
z
M 47.21875 32.234375 
Q 47.125 39.59375 43.09375 43.984375 
Q 39.0625 48.390625 32.421875 48.390625 
Q 24.90625 48.390625 20.390625 44.140625 
Q 15.875 39.890625 15.1875 32.171875 
z
" id="DejaVuSans-101"/>
       <path d="M 41.109375 46.296875 
Q 39.59375 47.171875 37.8125 47.578125 
Q 36.03125 48 33.890625 48 
Q 26.265625 48 22.1875 43.046875 
Q 18.109375 38.09375 18.109375 28.8125 
L 18.109375 0 
L 9.078125 0 
L 9.078125 54.6875 
L 18.109375 54.6875 
L 18.109375 46.1875 
Q 20.953125 51.171875 25.484375 53.578125 
Q 30.03125 56 36.53125 56 
Q 37.453125 56 38.578125 55.875 
Q 39.703125 55.765625 41.0625 55.515625 
z
" id="DejaVuSans-114"/>
       <path d="M 52 44.1875 
Q 55.375 50.25 60.0625 53.125 
Q 64.75 56 71.09375 56 
Q 79.640625 56 84.28125 50.015625 
Q 88.921875 44.046875 88.921875 33.015625 
L 88.921875 0 
L 79.890625 0 
L 79.890625 32.71875 
Q 79.890625 40.578125 77.09375 44.375 
Q 74.3125 48.1875 68.609375 48.1875 
Q 61.625 48.1875 57.5625 43.546875 
Q 53.515625 38.921875 53.515625 30.90625 
L 53.515625 0 
L 44.484375 0 
L 44.484375 32.71875 
Q 44.484375 40.625 41.703125 44.40625 
Q 38.921875 48.1875 33.109375 48.1875 
Q 26.21875 48.1875 22.15625 43.53125 
Q 18.109375 38.875 18.109375 30.90625 
L 18.109375 0 
L 9.078125 0 
L 9.078125 54.6875 
L 18.109375 54.6875 
L 18.109375 46.1875 
Q 21.1875 51.21875 25.484375 53.609375 
Q 29.78125 56 35.6875 56 
Q 41.65625 56 45.828125 52.96875 
Q 50 49.953125 52 44.1875 
z
" id="DejaVuSans-109"/>
       <path d="M 34.28125 27.484375 
Q 23.390625 27.484375 19.1875 25 
Q 14.984375 22.515625 14.984375 16.5 
Q 14.984375 11.71875 18.140625 8.90625 
Q 21.296875 6.109375 26.703125 6.109375 
Q 34.1875 6.109375 38.703125 11.40625 
Q 43.21875 16.703125 43.21875 25.484375 
L 43.21875 27.484375 
z
M 52.203125 31.203125 
L 52.203125 0 
L 43.21875 0 
L 43.21875 8.296875 
Q 40.140625 3.328125 35.546875 0.953125 
Q 30.953125 -1.421875 24.3125 -1.421875 
Q 15.921875 -1.421875 10.953125 3.296875 
Q 6 8.015625 6 15.921875 
Q 6 25.140625 12.171875 29.828125 
Q 18.359375 34.515625 30.609375 34.515625 
L 43.21875 34.515625 
L 43.21875 35.40625 
Q 43.21875 41.609375 39.140625 45 
Q 35.0625 48.390625 27.6875 48.390625 
Q 23 48.390625 18.546875 47.265625 
Q 14.109375 46.140625 10.015625 43.890625 
L 10.015625 52.203125 
Q 14.9375 54.109375 19.578125 55.046875 
Q 24.21875 56 28.609375 56 
Q 40.484375 56 46.34375 49.84375 
Q 52.203125 43.703125 52.203125 31.203125 
z
" id="DejaVuSans-97"/>
       <path d="M 54.890625 33.015625 
L 54.890625 0 
L 45.90625 0 
L 45.90625 32.71875 
Q 45.90625 40.484375 42.875 44.328125 
Q 39.84375 48.1875 33.796875 48.1875 
Q 26.515625 48.1875 22.3125 43.546875 
Q 18.109375 38.921875 18.109375 30.90625 
L 18.109375 0 
L 9.078125 0 
L 9.078125 54.6875 
L 18.109375 54.6875 
L 18.109375 46.1875 
Q 21.34375 51.125 25.703125 53.5625 
Q 30.078125 56 35.796875 56 
Q 45.21875 56 50.046875 50.171875 
Q 54.890625 44.34375 54.890625 33.015625 
z
" id="DejaVuSans-110"/>
      </defs>
      <use xlink:href="#DejaVuSans-112"/>
      <use x="63.476562" xlink:href="#DejaVuSans-101"/>
      <use x="125" xlink:href="#DejaVuSans-114"/>
      <use x="166.113281" xlink:href="#DejaVuSans-102"/>
      <use x="201.318359" xlink:href="#DejaVuSans-111"/>
      <use x="262.5" xlink:href="#DejaVuSans-114"/>
      <use x="301.863281" xlink:href="#DejaVuSans-109"/>
      <use x="399.275391" xlink:href="#DejaVuSans-97"/>
      <use x="460.554688" xlink:href="#DejaVuSans-110"/>
      <use x="523.933594" xlink:href="#DejaVuSans-99"/>
      <use x="578.914062" xlink:href="#DejaVuSans-101"/>
     </g>
    </g>
   </g>
   <g id="line2d_16">
    <path clip-path="url(#p30e5b417b9)" d="M 66.376477 56.47178 
L 73.140114 53.497717 
L 79.90375 19.296 
L 86.667386 56.70559 
L 93.431023 88.864711 
L 100.194659 130.410275 
L 106.958295 130.410275 
L 113.721932 126.760413 
L 120.485568 126.760413 
L 127.249205 131.475546 
L 134.012841 148.556614 
L 140.776477 179.963738 
L 147.540114 226.808262 
L 154.30375 245.10444 
L 161.067386 192.395725 
L 167.831023 192.395725 
L 174.594659 192.395725 
L 181.358295 197.358453 
L 188.121932 206.839486 
L 194.885568 206.839486 
L 201.649205 206.839486 
L 208.412841 206.839486 
L 215.176477 206.839486 
L 221.940114 206.839486 
L 228.70375 220.300339 
L 235.467386 207.211928 
L 242.231023 207.211928 
L 248.994659 207.211928 
L 255.758295 207.211928 
L 262.521932 207.211928 
L 269.285568 207.211928 
L 276.049205 207.211928 
L 282.812841 207.211928 
L 289.576477 207.211928 
L 296.340114 207.211928 
L 303.10375 207.211928 
L 309.867386 207.211928 
L 316.631023 207.211928 
L 323.394659 207.211928 
L 330.158295 207.211928 
L 336.921932 207.211928 
L 343.685568 207.211928 
L 350.449205 207.211928 
L 357.212841 207.211928 
L 363.976477 207.211928 
L 370.740114 207.211928 
L 377.50375 207.211928 
L 384.267386 207.211928 
L 391.031023 207.211928 
" style="fill:none;stroke:#f26b38;stroke-dasharray:7.4,3.2;stroke-dashoffset:0;stroke-width:2;"/>
   </g>
   <g id="line2d_17">
    <path clip-path="url(#p30e5b417b9)" d="M 66.376477 221.490936 
L 73.140114 196.439607 
L 79.90375 174.086381 
L 86.667386 174.086381 
L 93.431023 245.10444 
L 100.194659 249.321138 
L 106.958295 249.321138 
L 113.721932 249.321138 
L 120.485568 253.40809 
L 127.249205 261.216 
L 134.012841 261.216 
L 140.776477 261.216 
L 147.540114 261.216 
L 154.30375 261.216 
L 161.067386 261.216 
L 167.831023 261.216 
L 174.594659 257.119139 
L 181.358295 257.119139 
L 188.121932 257.119139 
L 194.885568 257.119139 
L 201.649205 257.119139 
L 208.412841 257.119139 
L 215.176477 257.119139 
L 221.940114 257.119139 
L 228.70375 257.119139 
L 235.467386 257.119139 
L 242.231023 257.119139 
L 248.994659 257.119139 
L 255.758295 257.119139 
L 262.521932 257.119139 
L 269.285568 257.119139 
L 276.049205 257.119139 
L 282.812841 257.119139 
L 289.576477 257.119139 
L 296.340114 257.119139 
L 303.10375 257.119139 
L 309.867386 257.119139 
L 316.631023 257.119139 
L 323.394659 257.119139 
L 330.158295 257.119139 
L 336.921932 257.119139 
L 343.685568 257.119139 
L 350.449205 257.119139 
L 357.212841 257.119139 
L 363.976477 257.119139 
L 370.740114 257.119139 
L 377.50375 257.119139 
L 384.267386 257.119139 
L 391.031023 257.119139 
" style="fill:none;stroke:#2f9599;stroke-dasharray:2,3.3;stroke-dashoffset:0;stroke-width:2;"/>
   </g>
   <g id="line2d_18">
    <path clip-path="url(#p30e5b417b9)" d="M 66.376477 31.687927 
L 73.140114 31.687927 
L 79.90375 31.687927 
L 86.667386 31.687927 
L 93.431023 31.687927 
L 100.194659 44.079853 
L 106.958295 41.353629 
L 113.721932 41.353629 
L 120.485568 50.640285 
L 127.249205 38.734316 
L 134.012841 50.640285 
L 140.776477 36.215746 
L 147.540114 62.329781 
L 154.30375 70.412697 
L 161.067386 106.852072 
L 167.831023 126.760413 
L 174.594659 116.806242 
L 181.358295 116.806242 
L 188.121932 116.806242 
L 194.885568 116.806242 
L 201.649205 116.806242 
L 208.412841 106.680448 
L 215.176477 103.309062 
L 221.940114 134.183862 
L 228.70375 134.183862 
L 235.467386 163.933018 
L 242.231023 135.470312 
L 248.994659 141.308816 
L 255.758295 152.462972 
L 262.521932 152.462972 
L 269.285568 152.462972 
L 276.049205 152.462972 
L 282.812841 152.462972 
L 289.576477 157.304717 
L 296.340114 157.304717 
L 303.10375 157.304717 
L 309.867386 157.304717 
L 316.631023 157.304717 
L 323.394659 157.304717 
L 330.158295 157.304717 
L 336.921932 157.304717 
L 343.685568 157.304717 
L 350.449205 157.304717 
L 357.212841 157.304717 
L 363.976477 157.304717 
L 370.740114 157.304717 
L 377.50375 157.304717 
L 384.267386 157.304717 
L 391.031023 157.304717 
" style="fill:none;stroke:#a7226e;stroke-dasharray:12.8,3.2,2,3.2;stroke-dashoffset:0;stroke-width:2;"/>
   </g>
   <g id="patch_3">
    <path d="M 50.14375 273.312 
L 50.14375 7.2 
" style="fill:none;stroke:#000000;stroke-linecap:square;stroke-linejoin:miter;stroke-width:0.8;"/>
   </g>
   <g id="patch_4">
    <path d="M 407.26375 273.312 
L 407.26375 7.2 
" style="fill:none;stroke:#000000;stroke-linecap:square;stroke-linejoin:miter;stroke-width:0.8;"/>
   </g>
   <g id="patch_5">
    <path d="M 50.14375 273.312 
L 407.26375 273.312 
" style="fill:none;stroke:#000000;stroke-linecap:square;stroke-linejoin:miter;stroke-width:0.8;"/>
   </g>
   <g id="patch_6">
    <path d="M 50.14375 7.2 
L 407.26375 7.2 
" style="fill:none;stroke:#000000;stroke-linecap:square;stroke-linejoin:miter;stroke-width:0.8;"/>
   </g>
   <g id="legend_1">
    <g id="patch_7">
     <path d="M 321.790059 43.890912 
L 402.40575 43.890912 
Q 403.79375 43.890912 403.79375 42.502912 
L 403.79375 12.058 
Q 403.79375 10.67 402.40575 10.67 
L 321.790059 10.67 
Q 320.402059 10.67 320.402059 12.058 
L 320.402059 42.502912 
Q 320.402059 43.890912 321.790059 43.890912 
z
" style="fill:#ffffff;opacity:0.8;stroke:#cccccc;stroke-linejoin:miter;"/>
    </g>
    <g id="PathCollection_5">
     <defs>
      <path d="M 0 3 
C 0.795609 3 1.55874 2.683901 2.12132 2.12132 
C 2.683901 1.55874 3 0.795609 3 0 
C 3 -0.795609 2.683901 -1.55874 2.12132 -2.12132 
C 1.55874 -2.683901 0.795609 -3 0 -3 
C -0.795609 -3 -1.55874 -2.683901 -2.12132 -2.12132 
C -2.683901 -1.55874 -3 -0.795609 -3 0 
C -3 0.795609 -2.683901 1.55874 -2.12132 2.12132 
C -1.55874 2.683901 -0.795609 3 0 3 
z
" id="ma0738c1ad0" style="stroke:#f26b38;"/>
     </defs>
     <g>
      <use style="fill:#f26b38;stroke:#f26b38;" x="330.118059" xlink:href="#ma0738c1ad0" y="16.897566"/>
     </g>
    </g>
    <g id="text_18">
     <!-- mean_err -->
     <g transform="translate(342.610059 18.719316)scale(0.0694 -0.0694)">
      <defs>
       <path d="M 50.984375 -16.609375 
L 50.984375 -23.578125 
L -0.984375 -23.578125 
L -0.984375 -16.609375 
z
" id="DejaVuSans-95"/>
      </defs>
      <use xlink:href="#DejaVuSans-109"/>
      <use x="97.412109" xlink:href="#DejaVuSans-101"/>
      <use x="158.935547" xlink:href="#DejaVuSans-97"/>
      <use x="220.214844" xlink:href="#DejaVuSans-110"/>
      <use x="283.59375" xlink:href="#DejaVuSans-95"/>
      <use x="333.59375" xlink:href="#DejaVuSans-101"/>
      <use x="395.117188" xlink:href="#DejaVuSans-114"/>
      <use x="434.480469" xlink:href="#DejaVuSans-114"/>
     </g>
    </g>
    <g id="PathCollection_6">
     <defs>
      <path d="M -1.5 3 
L 0 1.5 
L 1.5 3 
L 3 1.5 
L 1.5 0 
L 3 -1.5 
L 1.5 -3 
L 0 -1.5 
L -1.5 -3 
L -3 -1.5 
L -1.5 0 
L -3 1.5 
z
" id="m969f96ef6a" style="stroke:#2f9599;"/>
     </defs>
     <g>
      <use style="fill:#2f9599;stroke:#2f9599;" x="330.118059" xlink:href="#m969f96ef6a" y="27.277203"/>
     </g>
    </g>
    <g id="text_19">
     <!-- mean_sq_err -->
     <g transform="translate(342.610059 29.098953)scale(0.0694 -0.0694)">
      <defs>
       <path d="M 44.28125 53.078125 
L 44.28125 44.578125 
Q 40.484375 46.53125 36.375 47.5 
Q 32.28125 48.484375 27.875 48.484375 
Q 21.1875 48.484375 17.84375 46.4375 
Q 14.5 44.390625 14.5 40.28125 
Q 14.5 37.15625 16.890625 35.375 
Q 19.28125 33.59375 26.515625 31.984375 
L 29.59375 31.296875 
Q 39.15625 29.25 43.1875 25.515625 
Q 47.21875 21.78125 47.21875 15.09375 
Q 47.21875 7.46875 41.1875 3.015625 
Q 35.15625 -1.421875 24.609375 -1.421875 
Q 20.21875 -1.421875 15.453125 -0.5625 
Q 10.6875 0.296875 5.421875 2 
L 5.421875 11.28125 
Q 10.40625 8.6875 15.234375 7.390625 
Q 20.0625 6.109375 24.8125 6.109375 
Q 31.15625 6.109375 34.5625 8.28125 
Q 37.984375 10.453125 37.984375 14.40625 
Q 37.984375 18.0625 35.515625 20.015625 
Q 33.0625 21.96875 24.703125 23.78125 
L 21.578125 24.515625 
Q 13.234375 26.265625 9.515625 29.90625 
Q 5.8125 33.546875 5.8125 39.890625 
Q 5.8125 47.609375 11.28125 51.796875 
Q 16.75 56 26.8125 56 
Q 31.78125 56 36.171875 55.265625 
Q 40.578125 54.546875 44.28125 53.078125 
z
" id="DejaVuSans-115"/>
       <path d="M 14.796875 27.296875 
Q 14.796875 17.390625 18.875 11.75 
Q 22.953125 6.109375 30.078125 6.109375 
Q 37.203125 6.109375 41.296875 11.75 
Q 45.40625 17.390625 45.40625 27.296875 
Q 45.40625 37.203125 41.296875 42.84375 
Q 37.203125 48.484375 30.078125 48.484375 
Q 22.953125 48.484375 18.875 42.84375 
Q 14.796875 37.203125 14.796875 27.296875 
z
M 45.40625 8.203125 
Q 42.578125 3.328125 38.25 0.953125 
Q 33.9375 -1.421875 27.875 -1.421875 
Q 17.96875 -1.421875 11.734375 6.484375 
Q 5.515625 14.40625 5.515625 27.296875 
Q 5.515625 40.1875 11.734375 48.09375 
Q 17.96875 56 27.875 56 
Q 33.9375 56 38.25 53.625 
Q 42.578125 51.265625 45.40625 46.390625 
L 45.40625 54.6875 
L 54.390625 54.6875 
L 54.390625 -20.796875 
L 45.40625 -20.796875 
z
" id="DejaVuSans-113"/>
      </defs>
      <use xlink:href="#DejaVuSans-109"/>
      <use x="97.412109" xlink:href="#DejaVuSans-101"/>
      <use x="158.935547" xlink:href="#DejaVuSans-97"/>
      <use x="220.214844" xlink:href="#DejaVuSans-110"/>
      <use x="283.59375" xlink:href="#DejaVuSans-95"/>
      <use x="333.59375" xlink:href="#DejaVuSans-115"/>
      <use x="385.693359" xlink:href="#DejaVuSans-113"/>
      <use x="449.169922" xlink:href="#DejaVuSans-95"/>
      <use x="499.169922" xlink:href="#DejaVuSans-101"/>
      <use x="560.693359" xlink:href="#DejaVuSans-114"/>
      <use x="600.056641" xlink:href="#DejaVuSans-114"/>
     </g>
    </g>
    <g id="PathCollection_7">
     <defs>
      <path d="M -2.12132 -2.12132 
L -2.12132 2.12132 
L 2.12132 2.12132 
L 2.12132 -2.12132 
z
" id="m62da8964d0" style="stroke:#a7226e;"/>
     </defs>
     <g>
      <use style="fill:#a7226e;stroke:#a7226e;" x="330.118059" xlink:href="#m62da8964d0" y="37.656841"/>
     </g>
    </g>
    <g id="text_20">
     <!-- mean_sqroot_err -->
     <g transform="translate(342.610059 39.478591)scale(0.0694 -0.0694)">
      <use xlink:href="#DejaVuSans-109"/>
      <use x="97.412109" xlink:href="#DejaVuSans-101"/>
      <use x="158.935547" xlink:href="#DejaVuSans-97"/>
      <use x="220.214844" xlink:href="#DejaVuSans-110"/>
      <use x="283.59375" xlink:href="#DejaVuSans-95"/>
      <use x="333.59375" xlink:href="#DejaVuSans-115"/>
      <use x="385.693359" xlink:href="#DejaVuSans-113"/>
      <use x="449.169922" xlink:href="#DejaVuSans-114"/>
      <use x="488.033203" xlink:href="#DejaVuSans-111"/>
      <use x="549.214844" xlink:href="#DejaVuSans-111"/>
      <use x="610.396484" xlink:href="#DejaVuSans-116"/>
      <use x="649.605469" xlink:href="#DejaVuSans-95"/>
      <use x="699.605469" xlink:href="#DejaVuSans-101"/>
      <use x="761.128906" xlink:href="#DejaVuSans-114"/>
      <use x="800.492188" xlink:href="#DejaVuSans-114"/>
     </g>
    </g>
   </g>
  </g>
 </g>
 <defs>
  <clipPath id="p30e5b417b9">
   <rect height="266.112" width="357.12" x="50.14375" y="7.2"/>
  </clipPath>
 </defs>
</svg>
