<?xml version="1.0" encoding="utf-8" standalone="no"?>
<!DOCTYPE svg PUBLIC "-//W3C//DTD SVG 1.1//EN"
  "http://www.w3.org/Graphics/SVG/1.1/DTD/svg11.dtd">
<!-- Created with matplotlib (https://matplotlib.org/) -->
<svg height="310.86825pt" version="1.1" viewBox="0 0 414.46375 310.86825" width="414.46375pt" xmlns="http://www.w3.org/2000/svg" xmlns:xlink="http://www.w3.org/1999/xlink">
 <metadata>
  <rdf:RDF xmlns:cc="http://creativecommons.org/ns#" xmlns:dc="http://purl.org/dc/elements/1.1/" xmlns:rdf="http://www.w3.org/1999/02/22-rdf-syntax-ns#">
   <cc:Work>
    <dc:type rdf:resource="http://purl.org/dc/dcmitype/StillImage"/>
    <dc:date>2022-05-27T22:21:42.469715</dc:date>
    <dc:format>image/svg+xml</dc:format>
    <dc:creator>
     <cc:Agent>
      <dc:title>Matplotlib v3.3.4, https://matplotlib.org/</dc:title>
     </cc:Agent>
    </dc:creator>
   </cc:Work>
  </rdf:RDF>
 </metadata>
 <defs>
  <style type="text/css">*{stroke-linecap:butt;stroke-linejoin:round;}</style>
 </defs>
 <g id="figure_1">
  <g id="patch_1">
   <path d="M 0 310.86825 
L 414.46375 310.86825 
L 414.46375 0 
L 0 0 
z
" style="fill:#ffffff;"/>
  </g>
  <g id="axes_1">
   <g id="patch_2">
    <path d="M 50.14375 273.312 
L 407.26375 273.312 
L 407.26375 7.2 
L 50.14375 7.2 
z
" style="fill:#ffffff;"/>
   </g>
   <g id="PathCollection_1">
    <path clip-path="url(#peda5944225)" d="M 66.376477 48.503573 
C 67.172087 48.503573 67.935217 48.187474 68.497798 47.624893 
C 69.060378 47.062312 69.376477 46.299182 69.376477 45.503573 
C 69.376477 44.707963 69.060378 43.944833 68.497798 43.382252 
C 67.935217 42.819672 67.172087 42.503573 66.376477 42.503573 
C 65.580868 42.503573 64.817738 42.819672 64.255157 43.382252 
C 63.692576 43.944833 63.376477 44.707963 63.376477 45.503573 
C 63.376477 46.299182 63.692576 47.062312 64.255157 47.624893 
C 64.817738 48.187474 65.580868 48.503573 66.376477 48.503573 
z
" style="fill:#f26b38;stroke:#ffffff;stroke-width:0.48;"/>
    <path clip-path="url(#peda5944225)" d="M 73.140114 77.415101 
C 73.935723 77.415101 74.698853 77.099002 75.261434 76.536421 
C 75.824015 75.973841 76.140114 75.21071 76.140114 74.415101 
C 76.140114 73.619492 75.824015 72.856362 75.261434 72.293781 
C 74.698853 71.7312 73.935723 71.415101 73.140114 71.415101 
C 72.344504 71.415101 71.581374 71.7312 71.018793 72.293781 
C 70.456213 72.856362 70.140114 73.619492 70.140114 74.415101 
C 70.140114 75.21071 70.456213 75.973841 71.018793 76.536421 
C 71.581374 77.099002 72.344504 77.415101 73.140114 77.415101 
z
" style="fill:#f26b38;stroke:#ffffff;stroke-width:0.48;"/>
    <path clip-path="url(#peda5944225)" d="M 79.90375 70.967206 
C 80.699359 70.967206 81.46249 70.651107 82.02507 70.088527 
C 82.587651 69.525946 82.90375 68.762816 82.90375 67.967206 
C 82.90375 67.171597 82.587651 66.408467 82.02507 65.845886 
C 81.46249 65.283305 80.699359 64.967206 79.90375 64.967206 
C 79.108141 64.967206 78.34501 65.283305 77.78243 65.845886 
C 77.219849 66.408467 76.90375 67.171597 76.90375 67.967206 
C 76.90375 68.762816 77.219849 69.525946 77.78243 70.088527 
C 78.34501 70.651107 79.108141 70.967206 79.90375 70.967206 
z
" style="fill:#f26b38;stroke:#ffffff;stroke-width:0.48;"/>
    <path clip-path="url(#peda5944225)" d="M 86.667386 95.401334 
C 87.462996 95.401334 88.226126 95.085235 88.788707 94.522654 
C 89.351287 93.960074 89.667386 93.196943 89.667386 92.401334 
C 89.667386 91.605725 89.351287 90.842595 88.788707 90.280014 
C 88.226126 89.717433 87.462996 89.401334 86.667386 89.401334 
C 85.871777 89.401334 85.108647 89.717433 84.546066 90.280014 
C 83.983485 90.842595 83.667386 91.605725 83.667386 92.401334 
C 83.667386 93.196943 83.983485 93.960074 84.546066 94.522654 
C 85.108647 95.085235 85.871777 95.401334 86.667386 95.401334 
z
" style="fill:#f26b38;stroke:#ffffff;stroke-width:0.48;"/>
    <path clip-path="url(#peda5944225)" d="M 93.431023 95.401334 
C 94.226632 95.401334 94.989762 95.085235 95.552343 94.522654 
C 96.114924 93.960074 96.431023 93.196943 96.431023 92.401334 
C 96.431023 91.605725 96.114924 90.842595 95.552343 90.280014 
C 94.989762 89.717433 94.226632 89.401334 93.431023 89.401334 
C 92.635413 89.401334 91.872283 89.717433 91.309702 90.280014 
C 90.747122 90.842595 90.431023 91.605725 90.431023 92.401334 
C 90.431023 93.196943 90.747122 93.960074 91.309702 94.522654 
C 91.872283 95.085235 92.635413 95.401334 93.431023 95.401334 
z
" style="fill:#f26b38;stroke:#ffffff;stroke-width:0.48;"/>
    <path clip-path="url(#peda5944225)" d="M 100.194659 131.43182 
C 100.990268 131.43182 101.753399 131.115721 102.315979 130.553141 
C 102.87856 129.99056 103.194659 129.22743 103.194659 128.43182 
C 103.194659 127.636211 102.87856 126.873081 102.315979 126.3105 
C 101.753399 125.747919 100.990268 125.43182 100.194659 125.43182 
C 99.39905 125.43182 98.635919 125.747919 98.073339 126.3105 
C 97.510758 126.873081 97.194659 127.636211 97.194659 128.43182 
C 97.194659 129.22743 97.510758 129.99056 98.073339 130.553141 
C 98.635919 131.115721 99.39905 131.43182 100.194659 131.43182 
z
" style="fill:#f26b38;stroke:#ffffff;stroke-width:0.48;"/>
    <path clip-path="url(#peda5944225)" d="M 106.958295 61.981753 
C 107.753905 61.981753 108.517035 61.665654 109.079616 61.103073 
C 109.642197 60.540492 109.958295 59.777362 109.958295 58.981753 
C 109.958295 58.186144 109.642197 57.423013 109.079616 56.860432 
C 108.517035 56.297852 107.753905 55.981753 106.958295 55.981753 
C 106.162686 55.981753 105.399556 56.297852 104.836975 56.860432 
C 104.274394 57.423013 103.958295 58.186144 103.958295 58.981753 
C 103.958295 59.777362 104.274394 60.540492 104.836975 61.103073 
C 105.399556 61.665654 106.162686 61.981753 106.958295 61.981753 
z
" style="fill:#f26b38;stroke:#ffffff;stroke-width:0.48;"/>
    <path clip-path="url(#peda5944225)" d="M 113.721932 58.078236 
C 114.517541 58.078236 115.280671 57.762137 115.843252 57.199556 
C 116.405833 56.636976 116.721932 55.873845 116.721932 55.078236 
C 116.721932 54.282627 116.405833 53.519497 115.843252 52.956916 
C 115.280671 52.394335 114.517541 52.078236 113.721932 52.078236 
C 112.926323 52.078236 112.163192 52.394335 111.600611 52.956916 
C 111.038031 53.519497 110.721932 54.282627 110.721932 55.078236 
C 110.721932 55.873845 111.038031 56.636976 111.600611 57.199556 
C 112.163192 57.762137 112.926323 58.078236 113.721932 58.078236 
z
" style="fill:#f26b38;stroke:#ffffff;stroke-width:0.48;"/>
    <path clip-path="url(#peda5944225)" d="M 120.485568 58.078236 
C 121.281177 58.078236 122.044308 57.762137 122.606889 57.199556 
C 123.169469 56.636976 123.485568 55.873845 123.485568 55.078236 
C 123.485568 54.282627 123.169469 53.519497 122.606889 52.956916 
C 122.044308 52.394335 121.281177 52.078236 120.485568 52.078236 
C 119.689959 52.078236 118.926829 52.394335 118.364248 52.956916 
C 117.801667 53.519497 117.485568 54.282627 117.485568 55.078236 
C 117.485568 55.873845 117.801667 56.636976 118.364248 57.199556 
C 118.926829 57.762137 119.689959 58.078236 120.485568 58.078236 
z
" style="fill:#f26b38;stroke:#ffffff;stroke-width:0.48;"/>
    <path clip-path="url(#peda5944225)" d="M 127.249205 77.595819 
C 128.044814 77.595819 128.807944 77.279721 129.370525 76.71714 
C 129.933106 76.154559 130.249205 75.391429 130.249205 74.595819 
C 130.249205 73.80021 129.933106 73.03708 129.370525 72.474499 
C 128.807944 71.911918 128.044814 71.595819 127.249205 71.595819 
C 126.453595 71.595819 125.690465 71.911918 125.127884 72.474499 
C 124.565303 73.03708 124.249205 73.80021 124.249205 74.595819 
C 124.249205 75.391429 124.565303 76.154559 125.127884 76.71714 
C 125.690465 77.279721 126.453595 77.595819 127.249205 77.595819 
z
" style="fill:#f26b38;stroke:#ffffff;stroke-width:0.48;"/>
    <path clip-path="url(#peda5944225)" d="M 134.012841 92.706207 
C 134.80845 92.706207 135.571581 92.390108 136.134161 91.827527 
C 136.696742 91.264946 137.012841 90.501816 137.012841 89.706207 
C 137.012841 88.910597 136.696742 88.147467 136.134161 87.584886 
C 135.571581 87.022306 134.80845 86.706207 134.012841 86.706207 
C 133.217232 86.706207 132.454101 87.022306 131.891521 87.584886 
C 131.32894 88.147467 131.012841 88.910597 131.012841 89.706207 
C 131.012841 90.501816 131.32894 91.264946 131.891521 91.827527 
C 132.454101 92.390108 133.217232 92.706207 134.012841 92.706207 
z
" style="fill:#f26b38;stroke:#ffffff;stroke-width:0.48;"/>
    <path clip-path="url(#peda5944225)" d="M 140.776477 121.510382 
C 141.572087 121.510382 142.335217 121.194283 142.897798 120.631702 
C 143.460378 120.069122 143.776477 119.305991 143.776477 118.510382 
C 143.776477 117.714773 143.460378 116.951642 142.897798 116.389062 
C 142.335217 115.826481 141.572087 115.510382 140.776477 115.510382 
C 139.980868 115.510382 139.217738 115.826481 138.655157 116.389062 
C 138.092576 116.951642 137.776477 117.714773 137.776477 118.510382 
C 137.776477 119.305991 138.092576 120.069122 138.655157 120.631702 
C 139.217738 121.194283 139.980868 121.510382 140.776477 121.510382 
z
" style="fill:#f26b38;stroke:#ffffff;stroke-width:0.48;"/>
    <path clip-path="url(#peda5944225)" d="M 147.540114 164.030831 
C 148.335723 164.030831 149.098853 163.714733 149.661434 163.152152 
C 150.224015 162.589571 150.540114 161.826441 150.540114 161.030831 
C 150.540114 160.235222 150.224015 159.472092 149.661434 158.909511 
C 149.098853 158.34693 148.335723 158.030831 147.540114 158.030831 
C 146.744504 158.030831 145.981374 158.34693 145.418793 158.909511 
C 144.856213 159.472092 144.540114 160.235222 144.540114 161.030831 
C 144.540114 161.826441 144.856213 162.589571 145.418793 163.152152 
C 145.981374 163.714733 146.744504 164.030831 147.540114 164.030831 
z
" style="fill:#f26b38;stroke:#ffffff;stroke-width:0.48;"/>
    <path clip-path="url(#peda5944225)" d="M 154.30375 164.030831 
C 155.099359 164.030831 155.86249 163.714733 156.42507 163.152152 
C 156.987651 162.589571 157.30375 161.826441 157.30375 161.030831 
C 157.30375 160.235222 156.987651 159.472092 156.42507 158.909511 
C 155.86249 158.34693 155.099359 158.030831 154.30375 158.030831 
C 153.508141 158.030831 152.74501 158.34693 152.18243 158.909511 
C 151.619849 159.472092 151.30375 160.235222 151.30375 161.030831 
C 151.30375 161.826441 151.619849 162.589571 152.18243 163.152152 
C 152.74501 163.714733 153.508141 164.030831 154.30375 164.030831 
z
" style="fill:#f26b38;stroke:#ffffff;stroke-width:0.48;"/>
    <path clip-path="url(#peda5944225)" d="M 161.067386 112.209034 
C 161.862996 112.209034 162.626126 111.892935 163.188707 111.330354 
C 163.751287 110.767773 164.067386 110.004643 164.067386 109.209034 
C 164.067386 108.413424 163.751287 107.650294 163.188707 107.087713 
C 162.626126 106.525133 161.862996 106.209034 161.067386 106.209034 
C 160.271777 106.209034 159.508647 106.525133 158.946066 107.087713 
C 158.383485 107.650294 158.067386 108.413424 158.067386 109.209034 
C 158.067386 110.004643 158.383485 110.767773 158.946066 111.330354 
C 159.508647 111.892935 160.271777 112.209034 161.067386 112.209034 
z
" style="fill:#f26b38;stroke:#ffffff;stroke-width:0.48;"/>
    <path clip-path="url(#peda5944225)" d="M 167.831023 112.209034 
C 168.626632 112.209034 169.389762 111.892935 169.952343 111.330354 
C 170.514924 110.767773 170.831023 110.004643 170.831023 109.209034 
C 170.831023 108.413424 170.514924 107.650294 169.952343 107.087713 
C 169.389762 106.525133 168.626632 106.209034 167.831023 106.209034 
C 167.035413 106.209034 166.272283 106.525133 165.709702 107.087713 
C 165.147122 107.650294 164.831023 108.413424 164.831023 109.209034 
C 164.831023 110.004643 165.147122 110.767773 165.709702 111.330354 
C 166.272283 111.892935 167.035413 112.209034 167.831023 112.209034 
z
" style="fill:#f26b38;stroke:#ffffff;stroke-width:0.48;"/>
    <path clip-path="url(#peda5944225)" d="M 174.594659 112.209034 
C 175.390268 112.209034 176.153399 111.892935 176.715979 111.330354 
C 177.27856 110.767773 177.594659 110.004643 177.594659 109.209034 
C 177.594659 108.413424 177.27856 107.650294 176.715979 107.087713 
C 176.153399 106.525133 175.390268 106.209034 174.594659 106.209034 
C 173.79905 106.209034 173.035919 106.525133 172.473339 107.087713 
C 171.910758 107.650294 171.594659 108.413424 171.594659 109.209034 
C 171.594659 110.004643 171.910758 110.767773 172.473339 111.330354 
C 173.035919 111.892935 173.79905 112.209034 174.594659 112.209034 
z
" style="fill:#f26b38;stroke:#ffffff;stroke-width:0.48;"/>
    <path clip-path="url(#peda5944225)" d="M 181.358295 116.931257 
C 182.153905 116.931257 182.917035 116.615158 183.479616 116.052577 
C 184.042197 115.489996 184.358295 114.726866 184.358295 113.931257 
C 184.358295 113.135647 184.042197 112.372517 183.479616 111.809936 
C 182.917035 111.247356 182.153905 110.931257 181.358295 110.931257 
C 180.562686 110.931257 179.799556 111.247356 179.236975 111.809936 
C 178.674394 112.372517 178.358295 113.135647 178.358295 113.931257 
C 178.358295 114.726866 178.674394 115.489996 179.236975 116.052577 
C 179.799556 116.615158 180.562686 116.931257 181.358295 116.931257 
z
" style="fill:#f26b38;stroke:#ffffff;stroke-width:0.48;"/>
    <path clip-path="url(#peda5944225)" d="M 188.121932 116.931257 
C 188.917541 116.931257 189.680671 116.615158 190.243252 116.052577 
C 190.805833 115.489996 191.121932 114.726866 191.121932 113.931257 
C 191.121932 113.135647 190.805833 112.372517 190.243252 111.809936 
C 189.680671 111.247356 188.917541 110.931257 188.121932 110.931257 
C 187.326323 110.931257 186.563192 111.247356 186.000611 111.809936 
C 185.438031 112.372517 185.121932 113.135647 185.121932 113.931257 
C 185.121932 114.726866 185.438031 115.489996 186.000611 116.052577 
C 186.563192 116.615158 187.326323 116.931257 188.121932 116.931257 
z
" style="fill:#f26b38;stroke:#ffffff;stroke-width:0.48;"/>
    <path clip-path="url(#peda5944225)" d="M 194.885568 116.931257 
C 195.681177 116.931257 196.444308 116.615158 197.006889 116.052577 
C 197.569469 115.489996 197.885568 114.726866 197.885568 113.931257 
C 197.885568 113.135647 197.569469 112.372517 197.006889 111.809936 
C 196.444308 111.247356 195.681177 110.931257 194.885568 110.931257 
C 194.089959 110.931257 193.326829 111.247356 192.764248 111.809936 
C 192.201667 112.372517 191.885568 113.135647 191.885568 113.931257 
C 191.885568 114.726866 192.201667 115.489996 192.764248 116.052577 
C 193.326829 116.615158 194.089959 116.931257 194.885568 116.931257 
z
" style="fill:#f26b38;stroke:#ffffff;stroke-width:0.48;"/>
    <path clip-path="url(#peda5944225)" d="M 201.649205 116.931257 
C 202.444814 116.931257 203.207944 116.615158 203.770525 116.052577 
C 204.333106 115.489996 204.649205 114.726866 204.649205 113.931257 
C 204.649205 113.135647 204.333106 112.372517 203.770525 111.809936 
C 203.207944 111.247356 202.444814 110.931257 201.649205 110.931257 
C 200.853595 110.931257 200.090465 111.247356 199.527884 111.809936 
C 198.965303 112.372517 198.649205 113.135647 198.649205 113.931257 
C 198.649205 114.726866 198.965303 115.489996 199.527884 116.052577 
C 200.090465 116.615158 200.853595 116.931257 201.649205 116.931257 
z
" style="fill:#f26b38;stroke:#ffffff;stroke-width:0.48;"/>
    <path clip-path="url(#peda5944225)" d="M 208.412841 116.931257 
C 209.20845 116.931257 209.971581 116.615158 210.534161 116.052577 
C 211.096742 115.489996 211.412841 114.726866 211.412841 113.931257 
C 211.412841 113.135647 211.096742 112.372517 210.534161 111.809936 
C 209.971581 111.247356 209.20845 110.931257 208.412841 110.931257 
C 207.617232 110.931257 206.854101 111.247356 206.291521 111.809936 
C 205.72894 112.372517 205.412841 113.135647 205.412841 113.931257 
C 205.412841 114.726866 205.72894 115.489996 206.291521 116.052577 
C 206.854101 116.615158 207.617232 116.931257 208.412841 116.931257 
z
" style="fill:#f26b38;stroke:#ffffff;stroke-width:0.48;"/>
    <path clip-path="url(#peda5944225)" d="M 215.176477 116.931257 
C 215.972087 116.931257 216.735217 116.615158 217.297798 116.052577 
C 217.860378 115.489996 218.176477 114.726866 218.176477 113.931257 
C 218.176477 113.135647 217.860378 112.372517 217.297798 111.809936 
C 216.735217 111.247356 215.972087 110.931257 215.176477 110.931257 
C 214.380868 110.931257 213.617738 111.247356 213.055157 111.809936 
C 212.492576 112.372517 212.176477 113.135647 212.176477 113.931257 
C 212.176477 114.726866 212.492576 115.489996 213.055157 116.052577 
C 213.617738 116.615158 214.380868 116.931257 215.176477 116.931257 
z
" style="fill:#f26b38;stroke:#ffffff;stroke-width:0.48;"/>
    <path clip-path="url(#peda5944225)" d="M 221.940114 116.931257 
C 222.735723 116.931257 223.498853 116.615158 224.061434 116.052577 
C 224.624015 115.489996 224.940114 114.726866 224.940114 113.931257 
C 224.940114 113.135647 224.624015 112.372517 224.061434 111.809936 
C 223.498853 111.247356 222.735723 110.931257 221.940114 110.931257 
C 221.144504 110.931257 220.381374 111.247356 219.818793 111.809936 
C 219.256213 112.372517 218.940114 113.135647 218.940114 113.931257 
C 218.940114 114.726866 219.256213 115.489996 219.818793 116.052577 
C 220.381374 116.615158 221.144504 116.931257 221.940114 116.931257 
z
" style="fill:#f26b38;stroke:#ffffff;stroke-width:0.48;"/>
    <path clip-path="url(#peda5944225)" d="M 228.70375 148.56885 
C 229.499359 148.56885 230.26249 148.252751 230.82507 147.69017 
C 231.387651 147.127589 231.70375 146.364459 231.70375 145.56885 
C 231.70375 144.773241 231.387651 144.01011 230.82507 143.44753 
C 230.26249 142.884949 229.499359 142.56885 228.70375 142.56885 
C 227.908141 142.56885 227.14501 142.884949 226.58243 143.44753 
C 226.019849 144.01011 225.70375 144.773241 225.70375 145.56885 
C 225.70375 146.364459 226.019849 147.127589 226.58243 147.69017 
C 227.14501 148.252751 227.908141 148.56885 228.70375 148.56885 
z
" style="fill:#f26b38;stroke:#ffffff;stroke-width:0.48;"/>
    <path clip-path="url(#peda5944225)" d="M 235.467386 198.979146 
C 236.262996 198.979146 237.026126 198.663047 237.588707 198.100466 
C 238.151287 197.537886 238.467386 196.774755 238.467386 195.979146 
C 238.467386 195.183537 238.151287 194.420406 237.588707 193.857826 
C 237.026126 193.295245 236.262996 192.979146 235.467386 192.979146 
C 234.671777 192.979146 233.908647 193.295245 233.346066 193.857826 
C 232.783485 194.420406 232.467386 195.183537 232.467386 195.979146 
C 232.467386 196.774755 232.783485 197.537886 233.346066 198.100466 
C 233.908647 198.663047 234.671777 198.979146 235.467386 198.979146 
z
" style="fill:#f26b38;stroke:#ffffff;stroke-width:0.48;"/>
    <path clip-path="url(#peda5944225)" d="M 242.231023 198.979146 
C 243.026632 198.979146 243.789762 198.663047 244.352343 198.100466 
C 244.914924 197.537886 245.231023 196.774755 245.231023 195.979146 
C 245.231023 195.183537 244.914924 194.420406 244.352343 193.857826 
C 243.789762 193.295245 243.026632 192.979146 242.231023 192.979146 
C 241.435413 192.979146 240.672283 193.295245 240.109702 193.857826 
C 239.547122 194.420406 239.231023 195.183537 239.231023 195.979146 
C 239.231023 196.774755 239.547122 197.537886 240.109702 198.100466 
C 240.672283 198.663047 241.435413 198.979146 242.231023 198.979146 
z
" style="fill:#f26b38;stroke:#ffffff;stroke-width:0.48;"/>
    <path clip-path="url(#peda5944225)" d="M 248.994659 198.979146 
C 249.790268 198.979146 250.553399 198.663047 251.115979 198.100466 
C 251.67856 197.537886 251.994659 196.774755 251.994659 195.979146 
C 251.994659 195.183537 251.67856 194.420406 251.115979 193.857826 
C 250.553399 193.295245 249.790268 192.979146 248.994659 192.979146 
C 248.19905 192.979146 247.435919 193.295245 246.873339 193.857826 
C 246.310758 194.420406 245.994659 195.183537 245.994659 195.979146 
C 245.994659 196.774755 246.310758 197.537886 246.873339 198.100466 
C 247.435919 198.663047 248.19905 198.979146 248.994659 198.979146 
z
" style="fill:#f26b38;stroke:#ffffff;stroke-width:0.48;"/>
    <path clip-path="url(#peda5944225)" d="M 255.758295 198.979146 
C 256.553905 198.979146 257.317035 198.663047 257.879616 198.100466 
C 258.442197 197.537886 258.758295 196.774755 258.758295 195.979146 
C 258.758295 195.183537 258.442197 194.420406 257.879616 193.857826 
C 257.317035 193.295245 256.553905 192.979146 255.758295 192.979146 
C 254.962686 192.979146 254.199556 193.295245 253.636975 193.857826 
C 253.074394 194.420406 252.758295 195.183537 252.758295 195.979146 
C 252.758295 196.774755 253.074394 197.537886 253.636975 198.100466 
C 254.199556 198.663047 254.962686 198.979146 255.758295 198.979146 
z
" style="fill:#f26b38;stroke:#ffffff;stroke-width:0.48;"/>
    <path clip-path="url(#peda5944225)" d="M 262.521932 198.979146 
C 263.317541 198.979146 264.080671 198.663047 264.643252 198.100466 
C 265.205833 197.537886 265.521932 196.774755 265.521932 195.979146 
C 265.521932 195.183537 265.205833 194.420406 264.643252 193.857826 
C 264.080671 193.295245 263.317541 192.979146 262.521932 192.979146 
C 261.726323 192.979146 260.963192 193.295245 260.400611 193.857826 
C 259.838031 194.420406 259.521932 195.183537 259.521932 195.979146 
C 259.521932 196.774755 259.838031 197.537886 260.400611 198.100466 
C 260.963192 198.663047 261.726323 198.979146 262.521932 198.979146 
z
" style="fill:#f26b38;stroke:#ffffff;stroke-width:0.48;"/>
    <path clip-path="url(#peda5944225)" d="M 269.285568 198.979146 
C 270.081177 198.979146 270.844308 198.663047 271.406889 198.100466 
C 271.969469 197.537886 272.285568 196.774755 272.285568 195.979146 
C 272.285568 195.183537 271.969469 194.420406 271.406889 193.857826 
C 270.844308 193.295245 270.081177 192.979146 269.285568 192.979146 
C 268.489959 192.979146 267.726829 193.295245 267.164248 193.857826 
C 266.601667 194.420406 266.285568 195.183537 266.285568 195.979146 
C 266.285568 196.774755 266.601667 197.537886 267.164248 198.100466 
C 267.726829 198.663047 268.489959 198.979146 269.285568 198.979146 
z
" style="fill:#f26b38;stroke:#ffffff;stroke-width:0.48;"/>
    <path clip-path="url(#peda5944225)" d="M 276.049205 198.979146 
C 276.844814 198.979146 277.607944 198.663047 278.170525 198.100466 
C 278.733106 197.537886 279.049205 196.774755 279.049205 195.979146 
C 279.049205 195.183537 278.733106 194.420406 278.170525 193.857826 
C 277.607944 193.295245 276.844814 192.979146 276.049205 192.979146 
C 275.253595 192.979146 274.490465 193.295245 273.927884 193.857826 
C 273.365303 194.420406 273.049205 195.183537 273.049205 195.979146 
C 273.049205 196.774755 273.365303 197.537886 273.927884 198.100466 
C 274.490465 198.663047 275.253595 198.979146 276.049205 198.979146 
z
" style="fill:#f26b38;stroke:#ffffff;stroke-width:0.48;"/>
    <path clip-path="url(#peda5944225)" d="M 282.812841 198.979146 
C 283.60845 198.979146 284.371581 198.663047 284.934161 198.100466 
C 285.496742 197.537886 285.812841 196.774755 285.812841 195.979146 
C 285.812841 195.183537 285.496742 194.420406 284.934161 193.857826 
C 284.371581 193.295245 283.60845 192.979146 282.812841 192.979146 
C 282.017232 192.979146 281.254101 193.295245 280.691521 193.857826 
C 280.12894 194.420406 279.812841 195.183537 279.812841 195.979146 
C 279.812841 196.774755 280.12894 197.537886 280.691521 198.100466 
C 281.254101 198.663047 282.017232 198.979146 282.812841 198.979146 
z
" style="fill:#f26b38;stroke:#ffffff;stroke-width:0.48;"/>
    <path clip-path="url(#peda5944225)" d="M 289.576477 198.979146 
C 290.372087 198.979146 291.135217 198.663047 291.697798 198.100466 
C 292.260378 197.537886 292.576477 196.774755 292.576477 195.979146 
C 292.576477 195.183537 292.260378 194.420406 291.697798 193.857826 
C 291.135217 193.295245 290.372087 192.979146 289.576477 192.979146 
C 288.780868 192.979146 288.017738 193.295245 287.455157 193.857826 
C 286.892576 194.420406 286.576477 195.183537 286.576477 195.979146 
C 286.576477 196.774755 286.892576 197.537886 287.455157 198.100466 
C 288.017738 198.663047 288.780868 198.979146 289.576477 198.979146 
z
" style="fill:#f26b38;stroke:#ffffff;stroke-width:0.48;"/>
    <path clip-path="url(#peda5944225)" d="M 296.340114 198.979146 
C 297.135723 198.979146 297.898853 198.663047 298.461434 198.100466 
C 299.024015 197.537886 299.340114 196.774755 299.340114 195.979146 
C 299.340114 195.183537 299.024015 194.420406 298.461434 193.857826 
C 297.898853 193.295245 297.135723 192.979146 296.340114 192.979146 
C 295.544504 192.979146 294.781374 193.295245 294.218793 193.857826 
C 293.656213 194.420406 293.340114 195.183537 293.340114 195.979146 
C 293.340114 196.774755 293.656213 197.537886 294.218793 198.100466 
C 294.781374 198.663047 295.544504 198.979146 296.340114 198.979146 
z
" style="fill:#f26b38;stroke:#ffffff;stroke-width:0.48;"/>
    <path clip-path="url(#peda5944225)" d="M 303.10375 198.979146 
C 303.899359 198.979146 304.66249 198.663047 305.22507 198.100466 
C 305.787651 197.537886 306.10375 196.774755 306.10375 195.979146 
C 306.10375 195.183537 305.787651 194.420406 305.22507 193.857826 
C 304.66249 193.295245 303.899359 192.979146 303.10375 192.979146 
C 302.308141 192.979146 301.54501 193.295245 300.98243 193.857826 
C 300.419849 194.420406 300.10375 195.183537 300.10375 195.979146 
C 300.10375 196.774755 300.419849 197.537886 300.98243 198.100466 
C 301.54501 198.663047 302.308141 198.979146 303.10375 198.979146 
z
" style="fill:#f26b38;stroke:#ffffff;stroke-width:0.48;"/>
    <path clip-path="url(#peda5944225)" d="M 309.867386 198.979146 
C 310.662996 198.979146 311.426126 198.663047 311.988707 198.100466 
C 312.551287 197.537886 312.867386 196.774755 312.867386 195.979146 
C 312.867386 195.183537 312.551287 194.420406 311.988707 193.857826 
C 311.426126 193.295245 310.662996 192.979146 309.867386 192.979146 
C 309.071777 192.979146 308.308647 193.295245 307.746066 193.857826 
C 307.183485 194.420406 306.867386 195.183537 306.867386 195.979146 
C 306.867386 196.774755 307.183485 197.537886 307.746066 198.100466 
C 308.308647 198.663047 309.071777 198.979146 309.867386 198.979146 
z
" style="fill:#f26b38;stroke:#ffffff;stroke-width:0.48;"/>
    <path clip-path="url(#peda5944225)" d="M 316.631023 198.979146 
C 317.426632 198.979146 318.189762 198.663047 318.752343 198.100466 
C 319.314924 197.537886 319.631023 196.774755 319.631023 195.979146 
C 319.631023 195.183537 319.314924 194.420406 318.752343 193.857826 
C 318.189762 193.295245 317.426632 192.979146 316.631023 192.979146 
C 315.835413 192.979146 315.072283 193.295245 314.509702 193.857826 
C 313.947122 194.420406 313.631023 195.183537 313.631023 195.979146 
C 313.631023 196.774755 313.947122 197.537886 314.509702 198.100466 
C 315.072283 198.663047 315.835413 198.979146 316.631023 198.979146 
z
" style="fill:#f26b38;stroke:#ffffff;stroke-width:0.48;"/>
    <path clip-path="url(#peda5944225)" d="M 323.394659 198.979146 
C 324.190268 198.979146 324.953399 198.663047 325.515979 198.100466 
C 326.07856 197.537886 326.394659 196.774755 326.394659 195.979146 
C 326.394659 195.183537 326.07856 194.420406 325.515979 193.857826 
C 324.953399 193.295245 324.190268 192.979146 323.394659 192.979146 
C 322.59905 192.979146 321.835919 193.295245 321.273339 193.857826 
C 320.710758 194.420406 320.394659 195.183537 320.394659 195.979146 
C 320.394659 196.774755 320.710758 197.537886 321.273339 198.100466 
C 321.835919 198.663047 322.59905 198.979146 323.394659 198.979146 
z
" style="fill:#f26b38;stroke:#ffffff;stroke-width:0.48;"/>
    <path clip-path="url(#peda5944225)" d="M 330.158295 198.979146 
C 330.953905 198.979146 331.717035 198.663047 332.279616 198.100466 
C 332.842197 197.537886 333.158295 196.774755 333.158295 195.979146 
C 333.158295 195.183537 332.842197 194.420406 332.279616 193.857826 
C 331.717035 193.295245 330.953905 192.979146 330.158295 192.979146 
C 329.362686 192.979146 328.599556 193.295245 328.036975 193.857826 
C 327.474394 194.420406 327.158295 195.183537 327.158295 195.979146 
C 327.158295 196.774755 327.474394 197.537886 328.036975 198.100466 
C 328.599556 198.663047 329.362686 198.979146 330.158295 198.979146 
z
" style="fill:#f26b38;stroke:#ffffff;stroke-width:0.48;"/>
    <path clip-path="url(#peda5944225)" d="M 336.921932 198.979146 
C 337.717541 198.979146 338.480671 198.663047 339.043252 198.100466 
C 339.605833 197.537886 339.921932 196.774755 339.921932 195.979146 
C 339.921932 195.183537 339.605833 194.420406 339.043252 193.857826 
C 338.480671 193.295245 337.717541 192.979146 336.921932 192.979146 
C 336.126323 192.979146 335.363192 193.295245 334.800611 193.857826 
C 334.238031 194.420406 333.921932 195.183537 333.921932 195.979146 
C 333.921932 196.774755 334.238031 197.537886 334.800611 198.100466 
C 335.363192 198.663047 336.126323 198.979146 336.921932 198.979146 
z
" style="fill:#f26b38;stroke:#ffffff;stroke-width:0.48;"/>
    <path clip-path="url(#peda5944225)" d="M 343.685568 198.979146 
C 344.481177 198.979146 345.244308 198.663047 345.806889 198.100466 
C 346.369469 197.537886 346.685568 196.774755 346.685568 195.979146 
C 346.685568 195.183537 346.369469 194.420406 345.806889 193.857826 
C 345.244308 193.295245 344.481177 192.979146 343.685568 192.979146 
C 342.889959 192.979146 342.126829 193.295245 341.564248 193.857826 
C 341.001667 194.420406 340.685568 195.183537 340.685568 195.979146 
C 340.685568 196.774755 341.001667 197.537886 341.564248 198.100466 
C 342.126829 198.663047 342.889959 198.979146 343.685568 198.979146 
z
" style="fill:#f26b38;stroke:#ffffff;stroke-width:0.48;"/>
    <path clip-path="url(#peda5944225)" d="M 350.449205 198.979146 
C 351.244814 198.979146 352.007944 198.663047 352.570525 198.100466 
C 353.133106 197.537886 353.449205 196.774755 353.449205 195.979146 
C 353.449205 195.183537 353.133106 194.420406 352.570525 193.857826 
C 352.007944 193.295245 351.244814 192.979146 350.449205 192.979146 
C 349.653595 192.979146 348.890465 193.295245 348.327884 193.857826 
C 347.765303 194.420406 347.449205 195.183537 347.449205 195.979146 
C 347.449205 196.774755 347.765303 197.537886 348.327884 198.100466 
C 348.890465 198.663047 349.653595 198.979146 350.449205 198.979146 
z
" style="fill:#f26b38;stroke:#ffffff;stroke-width:0.48;"/>
    <path clip-path="url(#peda5944225)" d="M 357.212841 198.979146 
C 358.00845 198.979146 358.771581 198.663047 359.334161 198.100466 
C 359.896742 197.537886 360.212841 196.774755 360.212841 195.979146 
C 360.212841 195.183537 359.896742 194.420406 359.334161 193.857826 
C 358.771581 193.295245 358.00845 192.979146 357.212841 192.979146 
C 356.417232 192.979146 355.654101 193.295245 355.091521 193.857826 
C 354.52894 194.420406 354.212841 195.183537 354.212841 195.979146 
C 354.212841 196.774755 354.52894 197.537886 355.091521 198.100466 
C 355.654101 198.663047 356.417232 198.979146 357.212841 198.979146 
z
" style="fill:#f26b38;stroke:#ffffff;stroke-width:0.48;"/>
    <path clip-path="url(#peda5944225)" d="M 363.976477 198.979146 
C 364.772087 198.979146 365.535217 198.663047 366.097798 198.100466 
C 366.660378 197.537886 366.976477 196.774755 366.976477 195.979146 
C 366.976477 195.183537 366.660378 194.420406 366.097798 193.857826 
C 365.535217 193.295245 364.772087 192.979146 363.976477 192.979146 
C 363.180868 192.979146 362.417738 193.295245 361.855157 193.857826 
C 361.292576 194.420406 360.976477 195.183537 360.976477 195.979146 
C 360.976477 196.774755 361.292576 197.537886 361.855157 198.100466 
C 362.417738 198.663047 363.180868 198.979146 363.976477 198.979146 
z
" style="fill:#f26b38;stroke:#ffffff;stroke-width:0.48;"/>
    <path clip-path="url(#peda5944225)" d="M 370.740114 198.979146 
C 371.535723 198.979146 372.298853 198.663047 372.861434 198.100466 
C 373.424015 197.537886 373.740114 196.774755 373.740114 195.979146 
C 373.740114 195.183537 373.424015 194.420406 372.861434 193.857826 
C 372.298853 193.295245 371.535723 192.979146 370.740114 192.979146 
C 369.944504 192.979146 369.181374 193.295245 368.618793 193.857826 
C 368.056213 194.420406 367.740114 195.183537 367.740114 195.979146 
C 367.740114 196.774755 368.056213 197.537886 368.618793 198.100466 
C 369.181374 198.663047 369.944504 198.979146 370.740114 198.979146 
z
" style="fill:#f26b38;stroke:#ffffff;stroke-width:0.48;"/>
    <path clip-path="url(#peda5944225)" d="M 377.50375 198.979146 
C 378.299359 198.979146 379.06249 198.663047 379.62507 198.100466 
C 380.187651 197.537886 380.50375 196.774755 380.50375 195.979146 
C 380.50375 195.183537 380.187651 194.420406 379.62507 193.857826 
C 379.06249 193.295245 378.299359 192.979146 377.50375 192.979146 
C 376.708141 192.979146 375.94501 193.295245 375.38243 193.857826 
C 374.819849 194.420406 374.50375 195.183537 374.50375 195.979146 
C 374.50375 196.774755 374.819849 197.537886 375.38243 198.100466 
C 375.94501 198.663047 376.708141 198.979146 377.50375 198.979146 
z
" style="fill:#f26b38;stroke:#ffffff;stroke-width:0.48;"/>
    <path clip-path="url(#peda5944225)" d="M 384.267386 198.979146 
C 385.062996 198.979146 385.826126 198.663047 386.388707 198.100466 
C 386.951287 197.537886 387.267386 196.774755 387.267386 195.979146 
C 387.267386 195.183537 386.951287 194.420406 386.388707 193.857826 
C 385.826126 193.295245 385.062996 192.979146 384.267386 192.979146 
C 383.471777 192.979146 382.708647 193.295245 382.146066 193.857826 
C 381.583485 194.420406 381.267386 195.183537 381.267386 195.979146 
C 381.267386 196.774755 381.583485 197.537886 382.146066 198.100466 
C 382.708647 198.663047 383.471777 198.979146 384.267386 198.979146 
z
" style="fill:#f26b38;stroke:#ffffff;stroke-width:0.48;"/>
    <path clip-path="url(#peda5944225)" d="M 391.031023 198.979146 
C 391.826632 198.979146 392.589762 198.663047 393.152343 198.100466 
C 393.714924 197.537886 394.031023 196.774755 394.031023 195.979146 
C 394.031023 195.183537 393.714924 194.420406 393.152343 193.857826 
C 392.589762 193.295245 391.826632 192.979146 391.031023 192.979146 
C 390.235413 192.979146 389.472283 193.295245 388.909702 193.857826 
C 388.347122 194.420406 388.031023 195.183537 388.031023 195.979146 
C 388.031023 196.774755 388.347122 197.537886 388.909702 198.100466 
C 389.472283 198.663047 390.235413 198.979146 391.031023 198.979146 
z
" style="fill:#f26b38;stroke:#ffffff;stroke-width:0.48;"/>
    <path clip-path="url(#peda5944225)" d="M 64.876477 131.43182 
L 66.376477 129.93182 
L 67.876477 131.43182 
L 69.376477 129.93182 
L 67.876477 128.43182 
L 69.376477 126.93182 
L 67.876477 125.43182 
L 66.376477 126.93182 
L 64.876477 125.43182 
L 63.376477 126.93182 
L 64.876477 128.43182 
L 63.376477 129.93182 
z
" style="fill:#2f9599;stroke:#ffffff;stroke-width:0.48;"/>
    <path clip-path="url(#peda5944225)" d="M 71.640114 106.872195 
L 73.140114 105.372195 
L 74.640114 106.872195 
L 76.140114 105.372195 
L 74.640114 103.872195 
L 76.140114 102.372195 
L 74.640114 100.872195 
L 73.140114 102.372195 
L 71.640114 100.872195 
L 70.140114 102.372195 
L 71.640114 103.872195 
L 70.140114 105.372195 
z
" style="fill:#2f9599;stroke:#ffffff;stroke-width:0.48;"/>
    <path clip-path="url(#peda5944225)" d="M 78.40375 84.957715 
L 79.90375 83.457715 
L 81.40375 84.957715 
L 82.90375 83.457715 
L 81.40375 81.957715 
L 82.90375 80.457715 
L 81.40375 78.957715 
L 79.90375 80.457715 
L 78.40375 78.957715 
L 76.90375 80.457715 
L 78.40375 81.957715 
L 76.90375 83.457715 
z
" style="fill:#2f9599;stroke:#ffffff;stroke-width:0.48;"/>
    <path clip-path="url(#peda5944225)" d="M 85.167386 84.957715 
L 86.667386 83.457715 
L 88.167386 84.957715 
L 89.667386 83.457715 
L 88.167386 81.957715 
L 89.667386 80.457715 
L 88.167386 78.957715 
L 86.667386 80.457715 
L 85.167386 78.957715 
L 83.667386 80.457715 
L 85.167386 81.957715 
L 83.667386 83.457715 
z
" style="fill:#2f9599;stroke:#ffffff;stroke-width:0.48;"/>
    <path clip-path="url(#peda5944225)" d="M 91.931023 154.581843 
L 93.431023 153.081843 
L 94.931023 154.581843 
L 96.431023 153.081843 
L 94.931023 151.581843 
L 96.431023 150.081843 
L 94.931023 148.581843 
L 93.431023 150.081843 
L 91.931023 148.581843 
L 90.431023 150.081843 
L 91.931023 151.581843 
L 90.431023 153.081843 
z
" style="fill:#2f9599;stroke:#ffffff;stroke-width:0.48;"/>
    <path clip-path="url(#peda5944225)" d="M 98.694659 158.715775 
L 100.194659 157.215775 
L 101.694659 158.715775 
L 103.194659 157.215775 
L 101.694659 155.715775 
L 103.194659 154.215775 
L 101.694659 152.715775 
L 100.194659 154.215775 
L 98.694659 152.715775 
L 97.194659 154.215775 
L 98.694659 155.715775 
L 97.194659 157.215775 
z
" style="fill:#2f9599;stroke:#ffffff;stroke-width:0.48;"/>
    <path clip-path="url(#peda5944225)" d="M 105.458295 158.715775 
L 106.958295 157.215775 
L 108.458295 158.715775 
L 109.958295 157.215775 
L 108.458295 155.715775 
L 109.958295 154.215775 
L 108.458295 152.715775 
L 106.958295 154.215775 
L 105.458295 152.715775 
L 103.958295 154.215775 
L 105.458295 155.715775 
L 103.958295 157.215775 
z
" style="fill:#2f9599;stroke:#ffffff;stroke-width:0.48;"/>
    <path clip-path="url(#peda5944225)" d="M 112.221932 158.715775 
L 113.721932 157.215775 
L 115.221932 158.715775 
L 116.721932 157.215775 
L 115.221932 155.715775 
L 116.721932 154.215775 
L 115.221932 152.715775 
L 113.721932 154.215775 
L 112.221932 152.715775 
L 110.721932 154.215775 
L 112.221932 155.715775 
L 110.721932 157.215775 
z
" style="fill:#2f9599;stroke:#ffffff;stroke-width:0.48;"/>
    <path clip-path="url(#peda5944225)" d="M 118.985568 162.72251 
L 120.485568 161.22251 
L 121.985568 162.72251 
L 123.485568 161.22251 
L 121.985568 159.72251 
L 123.485568 158.22251 
L 121.985568 156.72251 
L 120.485568 158.22251 
L 118.985568 156.72251 
L 117.485568 158.22251 
L 118.985568 159.72251 
L 117.485568 161.22251 
z
" style="fill:#2f9599;stroke:#ffffff;stroke-width:0.48;"/>
    <path clip-path="url(#peda5944225)" d="M 125.749205 162.72251 
L 127.249205 161.22251 
L 128.749205 162.72251 
L 130.249205 161.22251 
L 128.749205 159.72251 
L 130.249205 158.22251 
L 128.749205 156.72251 
L 127.249205 158.22251 
L 125.749205 156.72251 
L 124.249205 158.22251 
L 125.749205 159.72251 
L 124.249205 161.22251 
z
" style="fill:#2f9599;stroke:#ffffff;stroke-width:0.48;"/>
    <path clip-path="url(#peda5944225)" d="M 132.512841 162.72251 
L 134.012841 161.22251 
L 135.512841 162.72251 
L 137.012841 161.22251 
L 135.512841 159.72251 
L 137.012841 158.22251 
L 135.512841 156.72251 
L 134.012841 158.22251 
L 132.512841 156.72251 
L 131.012841 158.22251 
L 132.512841 159.72251 
L 131.012841 161.22251 
z
" style="fill:#2f9599;stroke:#ffffff;stroke-width:0.48;"/>
    <path clip-path="url(#peda5944225)" d="M 139.276477 162.72251 
L 140.776477 161.22251 
L 142.276477 162.72251 
L 143.776477 161.22251 
L 142.276477 159.72251 
L 143.776477 158.22251 
L 142.276477 156.72251 
L 140.776477 158.22251 
L 139.276477 156.72251 
L 137.776477 158.22251 
L 139.276477 159.72251 
L 137.776477 161.22251 
z
" style="fill:#2f9599;stroke:#ffffff;stroke-width:0.48;"/>
    <path clip-path="url(#peda5944225)" d="M 146.040114 162.72251 
L 147.540114 161.22251 
L 149.040114 162.72251 
L 150.540114 161.22251 
L 149.040114 159.72251 
L 150.540114 158.22251 
L 149.040114 156.72251 
L 147.540114 158.22251 
L 146.040114 156.72251 
L 144.540114 158.22251 
L 146.040114 159.72251 
L 144.540114 161.22251 
z
" style="fill:#2f9599;stroke:#ffffff;stroke-width:0.48;"/>
    <path clip-path="url(#peda5944225)" d="M 152.80375 162.72251 
L 154.30375 161.22251 
L 155.80375 162.72251 
L 157.30375 161.22251 
L 155.80375 159.72251 
L 157.30375 158.22251 
L 155.80375 156.72251 
L 154.30375 158.22251 
L 152.80375 156.72251 
L 151.30375 158.22251 
L 152.80375 159.72251 
L 151.30375 161.22251 
z
" style="fill:#2f9599;stroke:#ffffff;stroke-width:0.48;"/>
    <path clip-path="url(#peda5944225)" d="M 159.567386 162.72251 
L 161.067386 161.22251 
L 162.567386 162.72251 
L 164.067386 161.22251 
L 162.567386 159.72251 
L 164.067386 158.22251 
L 162.567386 156.72251 
L 161.067386 158.22251 
L 159.567386 156.72251 
L 158.067386 158.22251 
L 159.567386 159.72251 
L 158.067386 161.22251 
z
" style="fill:#2f9599;stroke:#ffffff;stroke-width:0.48;"/>
    <path clip-path="url(#peda5944225)" d="M 166.331023 162.72251 
L 167.831023 161.22251 
L 169.331023 162.72251 
L 170.831023 161.22251 
L 169.331023 159.72251 
L 170.831023 158.22251 
L 169.331023 156.72251 
L 167.831023 158.22251 
L 166.331023 156.72251 
L 164.831023 158.22251 
L 166.331023 159.72251 
L 164.831023 161.22251 
z
" style="fill:#2f9599;stroke:#ffffff;stroke-width:0.48;"/>
    <path clip-path="url(#peda5944225)" d="M 173.094659 166.360719 
L 174.594659 164.860719 
L 176.094659 166.360719 
L 177.594659 164.860719 
L 176.094659 163.360719 
L 177.594659 161.860719 
L 176.094659 160.360719 
L 174.594659 161.860719 
L 173.094659 160.360719 
L 171.594659 161.860719 
L 173.094659 163.360719 
L 171.594659 164.860719 
z
" style="fill:#2f9599;stroke:#ffffff;stroke-width:0.48;"/>
    <path clip-path="url(#peda5944225)" d="M 179.858295 166.360719 
L 181.358295 164.860719 
L 182.858295 166.360719 
L 184.358295 164.860719 
L 182.858295 163.360719 
L 184.358295 161.860719 
L 182.858295 160.360719 
L 181.358295 161.860719 
L 179.858295 160.360719 
L 178.358295 161.860719 
L 179.858295 163.360719 
L 178.358295 164.860719 
z
" style="fill:#2f9599;stroke:#ffffff;stroke-width:0.48;"/>
    <path clip-path="url(#peda5944225)" d="M 186.621932 166.360719 
L 188.121932 164.860719 
L 189.621932 166.360719 
L 191.121932 164.860719 
L 189.621932 163.360719 
L 191.121932 161.860719 
L 189.621932 160.360719 
L 188.121932 161.860719 
L 186.621932 160.360719 
L 185.121932 161.860719 
L 186.621932 163.360719 
L 185.121932 164.860719 
z
" style="fill:#2f9599;stroke:#ffffff;stroke-width:0.48;"/>
    <path clip-path="url(#peda5944225)" d="M 193.385568 166.360719 
L 194.885568 164.860719 
L 196.385568 166.360719 
L 197.885568 164.860719 
L 196.385568 163.360719 
L 197.885568 161.860719 
L 196.385568 160.360719 
L 194.885568 161.860719 
L 193.385568 160.360719 
L 191.885568 161.860719 
L 193.385568 163.360719 
L 191.885568 164.860719 
z
" style="fill:#2f9599;stroke:#ffffff;stroke-width:0.48;"/>
    <path clip-path="url(#peda5944225)" d="M 200.149205 166.360719 
L 201.649205 164.860719 
L 203.149205 166.360719 
L 204.649205 164.860719 
L 203.149205 163.360719 
L 204.649205 161.860719 
L 203.149205 160.360719 
L 201.649205 161.860719 
L 200.149205 160.360719 
L 198.649205 161.860719 
L 200.149205 163.360719 
L 198.649205 164.860719 
z
" style="fill:#2f9599;stroke:#ffffff;stroke-width:0.48;"/>
    <path clip-path="url(#peda5944225)" d="M 206.912841 166.360719 
L 208.412841 164.860719 
L 209.912841 166.360719 
L 211.412841 164.860719 
L 209.912841 163.360719 
L 211.412841 161.860719 
L 209.912841 160.360719 
L 208.412841 161.860719 
L 206.912841 160.360719 
L 205.412841 161.860719 
L 206.912841 163.360719 
L 205.412841 164.860719 
z
" style="fill:#2f9599;stroke:#ffffff;stroke-width:0.48;"/>
    <path clip-path="url(#peda5944225)" d="M 213.676477 166.360719 
L 215.176477 164.860719 
L 216.676477 166.360719 
L 218.176477 164.860719 
L 216.676477 163.360719 
L 218.176477 161.860719 
L 216.676477 160.360719 
L 215.176477 161.860719 
L 213.676477 160.360719 
L 212.176477 161.860719 
L 213.676477 163.360719 
L 212.176477 164.860719 
z
" style="fill:#2f9599;stroke:#ffffff;stroke-width:0.48;"/>
    <path clip-path="url(#peda5944225)" d="M 220.440114 166.360719 
L 221.940114 164.860719 
L 223.440114 166.360719 
L 224.940114 164.860719 
L 223.440114 163.360719 
L 224.940114 161.860719 
L 223.440114 160.360719 
L 221.940114 161.860719 
L 220.440114 160.360719 
L 218.940114 161.860719 
L 220.440114 163.360719 
L 218.940114 164.860719 
z
" style="fill:#2f9599;stroke:#ffffff;stroke-width:0.48;"/>
    <path clip-path="url(#peda5944225)" d="M 227.20375 166.360719 
L 228.70375 164.860719 
L 230.20375 166.360719 
L 231.70375 164.860719 
L 230.20375 163.360719 
L 231.70375 161.860719 
L 230.20375 160.360719 
L 228.70375 161.860719 
L 227.20375 160.360719 
L 225.70375 161.860719 
L 227.20375 163.360719 
L 225.70375 164.860719 
z
" style="fill:#2f9599;stroke:#ffffff;stroke-width:0.48;"/>
    <path clip-path="url(#peda5944225)" d="M 233.967386 166.360719 
L 235.467386 164.860719 
L 236.967386 166.360719 
L 238.467386 164.860719 
L 236.967386 163.360719 
L 238.467386 161.860719 
L 236.967386 160.360719 
L 235.467386 161.860719 
L 233.967386 160.360719 
L 232.467386 161.860719 
L 233.967386 163.360719 
L 232.467386 164.860719 
z
" style="fill:#2f9599;stroke:#ffffff;stroke-width:0.48;"/>
    <path clip-path="url(#peda5944225)" d="M 240.731023 166.360719 
L 242.231023 164.860719 
L 243.731023 166.360719 
L 245.231023 164.860719 
L 243.731023 163.360719 
L 245.231023 161.860719 
L 243.731023 160.360719 
L 242.231023 161.860719 
L 240.731023 160.360719 
L 239.231023 161.860719 
L 240.731023 163.360719 
L 239.231023 164.860719 
z
" style="fill:#2f9599;stroke:#ffffff;stroke-width:0.48;"/>
    <path clip-path="url(#peda5944225)" d="M 247.494659 166.360719 
L 248.994659 164.860719 
L 250.494659 166.360719 
L 251.994659 164.860719 
L 250.494659 163.360719 
L 251.994659 161.860719 
L 250.494659 160.360719 
L 248.994659 161.860719 
L 247.494659 160.360719 
L 245.994659 161.860719 
L 247.494659 163.360719 
L 245.994659 164.860719 
z
" style="fill:#2f9599;stroke:#ffffff;stroke-width:0.48;"/>
    <path clip-path="url(#peda5944225)" d="M 254.258295 166.360719 
L 255.758295 164.860719 
L 257.258295 166.360719 
L 258.758295 164.860719 
L 257.258295 163.360719 
L 258.758295 161.860719 
L 257.258295 160.360719 
L 255.758295 161.860719 
L 254.258295 160.360719 
L 252.758295 161.860719 
L 254.258295 163.360719 
L 252.758295 164.860719 
z
" style="fill:#2f9599;stroke:#ffffff;stroke-width:0.48;"/>
    <path clip-path="url(#peda5944225)" d="M 261.021932 166.360719 
L 262.521932 164.860719 
L 264.021932 166.360719 
L 265.521932 164.860719 
L 264.021932 163.360719 
L 265.521932 161.860719 
L 264.021932 160.360719 
L 262.521932 161.860719 
L 261.021932 160.360719 
L 259.521932 161.860719 
L 261.021932 163.360719 
L 259.521932 164.860719 
z
" style="fill:#2f9599;stroke:#ffffff;stroke-width:0.48;"/>
    <path clip-path="url(#peda5944225)" d="M 267.785568 166.360719 
L 269.285568 164.860719 
L 270.785568 166.360719 
L 272.285568 164.860719 
L 270.785568 163.360719 
L 272.285568 161.860719 
L 270.785568 160.360719 
L 269.285568 161.860719 
L 267.785568 160.360719 
L 266.285568 161.860719 
L 267.785568 163.360719 
L 266.285568 164.860719 
z
" style="fill:#2f9599;stroke:#ffffff;stroke-width:0.48;"/>
    <path clip-path="url(#peda5944225)" d="M 274.549205 166.360719 
L 276.049205 164.860719 
L 277.549205 166.360719 
L 279.049205 164.860719 
L 277.549205 163.360719 
L 279.049205 161.860719 
L 277.549205 160.360719 
L 276.049205 161.860719 
L 274.549205 160.360719 
L 273.049205 161.860719 
L 274.549205 163.360719 
L 273.049205 164.860719 
z
" style="fill:#2f9599;stroke:#ffffff;stroke-width:0.48;"/>
    <path clip-path="url(#peda5944225)" d="M 281.312841 166.360719 
L 282.812841 164.860719 
L 284.312841 166.360719 
L 285.812841 164.860719 
L 284.312841 163.360719 
L 285.812841 161.860719 
L 284.312841 160.360719 
L 282.812841 161.860719 
L 281.312841 160.360719 
L 279.812841 161.860719 
L 281.312841 163.360719 
L 279.812841 164.860719 
z
" style="fill:#2f9599;stroke:#ffffff;stroke-width:0.48;"/>
    <path clip-path="url(#peda5944225)" d="M 288.076477 166.360719 
L 289.576477 164.860719 
L 291.076477 166.360719 
L 292.576477 164.860719 
L 291.076477 163.360719 
L 292.576477 161.860719 
L 291.076477 160.360719 
L 289.576477 161.860719 
L 288.076477 160.360719 
L 286.576477 161.860719 
L 288.076477 163.360719 
L 286.576477 164.860719 
z
" style="fill:#2f9599;stroke:#ffffff;stroke-width:0.48;"/>
    <path clip-path="url(#peda5944225)" d="M 294.840114 166.360719 
L 296.340114 164.860719 
L 297.840114 166.360719 
L 299.340114 164.860719 
L 297.840114 163.360719 
L 299.340114 161.860719 
L 297.840114 160.360719 
L 296.340114 161.860719 
L 294.840114 160.360719 
L 293.340114 161.860719 
L 294.840114 163.360719 
L 293.340114 164.860719 
z
" style="fill:#2f9599;stroke:#ffffff;stroke-width:0.48;"/>
    <path clip-path="url(#peda5944225)" d="M 301.60375 166.360719 
L 303.10375 164.860719 
L 304.60375 166.360719 
L 306.10375 164.860719 
L 304.60375 163.360719 
L 306.10375 161.860719 
L 304.60375 160.360719 
L 303.10375 161.860719 
L 301.60375 160.360719 
L 300.10375 161.860719 
L 301.60375 163.360719 
L 300.10375 164.860719 
z
" style="fill:#2f9599;stroke:#ffffff;stroke-width:0.48;"/>
    <path clip-path="url(#peda5944225)" d="M 308.367386 166.360719 
L 309.867386 164.860719 
L 311.367386 166.360719 
L 312.867386 164.860719 
L 311.367386 163.360719 
L 312.867386 161.860719 
L 311.367386 160.360719 
L 309.867386 161.860719 
L 308.367386 160.360719 
L 306.867386 161.860719 
L 308.367386 163.360719 
L 306.867386 164.860719 
z
" style="fill:#2f9599;stroke:#ffffff;stroke-width:0.48;"/>
    <path clip-path="url(#peda5944225)" d="M 315.131023 166.360719 
L 316.631023 164.860719 
L 318.131023 166.360719 
L 319.631023 164.860719 
L 318.131023 163.360719 
L 319.631023 161.860719 
L 318.131023 160.360719 
L 316.631023 161.860719 
L 315.131023 160.360719 
L 313.631023 161.860719 
L 315.131023 163.360719 
L 313.631023 164.860719 
z
" style="fill:#2f9599;stroke:#ffffff;stroke-width:0.48;"/>
    <path clip-path="url(#peda5944225)" d="M 321.894659 166.360719 
L 323.394659 164.860719 
L 324.894659 166.360719 
L 326.394659 164.860719 
L 324.894659 163.360719 
L 326.394659 161.860719 
L 324.894659 160.360719 
L 323.394659 161.860719 
L 321.894659 160.360719 
L 320.394659 161.860719 
L 321.894659 163.360719 
L 320.394659 164.860719 
z
" style="fill:#2f9599;stroke:#ffffff;stroke-width:0.48;"/>
    <path clip-path="url(#peda5944225)" d="M 328.658295 166.360719 
L 330.158295 164.860719 
L 331.658295 166.360719 
L 333.158295 164.860719 
L 331.658295 163.360719 
L 333.158295 161.860719 
L 331.658295 160.360719 
L 330.158295 161.860719 
L 328.658295 160.360719 
L 327.158295 161.860719 
L 328.658295 163.360719 
L 327.158295 164.860719 
z
" style="fill:#2f9599;stroke:#ffffff;stroke-width:0.48;"/>
    <path clip-path="url(#peda5944225)" d="M 335.421932 166.360719 
L 336.921932 164.860719 
L 338.421932 166.360719 
L 339.921932 164.860719 
L 338.421932 163.360719 
L 339.921932 161.860719 
L 338.421932 160.360719 
L 336.921932 161.860719 
L 335.421932 160.360719 
L 333.921932 161.860719 
L 335.421932 163.360719 
L 333.921932 164.860719 
z
" style="fill:#2f9599;stroke:#ffffff;stroke-width:0.48;"/>
    <path clip-path="url(#peda5944225)" d="M 342.185568 166.360719 
L 343.685568 164.860719 
L 345.185568 166.360719 
L 346.685568 164.860719 
L 345.185568 163.360719 
L 346.685568 161.860719 
L 345.185568 160.360719 
L 343.685568 161.860719 
L 342.185568 160.360719 
L 340.685568 161.860719 
L 342.185568 163.360719 
L 340.685568 164.860719 
z
" style="fill:#2f9599;stroke:#ffffff;stroke-width:0.48;"/>
    <path clip-path="url(#peda5944225)" d="M 348.949205 166.360719 
L 350.449205 164.860719 
L 351.949205 166.360719 
L 353.449205 164.860719 
L 351.949205 163.360719 
L 353.449205 161.860719 
L 351.949205 160.360719 
L 350.449205 161.860719 
L 348.949205 160.360719 
L 347.449205 161.860719 
L 348.949205 163.360719 
L 347.449205 164.860719 
z
" style="fill:#2f9599;stroke:#ffffff;stroke-width:0.48;"/>
    <path clip-path="url(#peda5944225)" d="M 355.712841 166.360719 
L 357.212841 164.860719 
L 358.712841 166.360719 
L 360.212841 164.860719 
L 358.712841 163.360719 
L 360.212841 161.860719 
L 358.712841 160.360719 
L 357.212841 161.860719 
L 355.712841 160.360719 
L 354.212841 161.860719 
L 355.712841 163.360719 
L 354.212841 164.860719 
z
" style="fill:#2f9599;stroke:#ffffff;stroke-width:0.48;"/>
    <path clip-path="url(#peda5944225)" d="M 362.476477 166.360719 
L 363.976477 164.860719 
L 365.476477 166.360719 
L 366.976477 164.860719 
L 365.476477 163.360719 
L 366.976477 161.860719 
L 365.476477 160.360719 
L 363.976477 161.860719 
L 362.476477 160.360719 
L 360.976477 161.860719 
L 362.476477 163.360719 
L 360.976477 164.860719 
z
" style="fill:#2f9599;stroke:#ffffff;stroke-width:0.48;"/>
    <path clip-path="url(#peda5944225)" d="M 369.240114 166.360719 
L 370.740114 164.860719 
L 372.240114 166.360719 
L 373.740114 164.860719 
L 372.240114 163.360719 
L 373.740114 161.860719 
L 372.240114 160.360719 
L 370.740114 161.860719 
L 369.240114 160.360719 
L 367.740114 161.860719 
L 369.240114 163.360719 
L 367.740114 164.860719 
z
" style="fill:#2f9599;stroke:#ffffff;stroke-width:0.48;"/>
    <path clip-path="url(#peda5944225)" d="M 376.00375 166.360719 
L 377.50375 164.860719 
L 379.00375 166.360719 
L 380.50375 164.860719 
L 379.00375 163.360719 
L 380.50375 161.860719 
L 379.00375 160.360719 
L 377.50375 161.860719 
L 376.00375 160.360719 
L 374.50375 161.860719 
L 376.00375 163.360719 
L 374.50375 164.860719 
z
" style="fill:#2f9599;stroke:#ffffff;stroke-width:0.48;"/>
    <path clip-path="url(#peda5944225)" d="M 382.767386 166.360719 
L 384.267386 164.860719 
L 385.767386 166.360719 
L 387.267386 164.860719 
L 385.767386 163.360719 
L 387.267386 161.860719 
L 385.767386 160.360719 
L 384.267386 161.860719 
L 382.767386 160.360719 
L 381.267386 161.860719 
L 382.767386 163.360719 
L 381.267386 164.860719 
z
" style="fill:#2f9599;stroke:#ffffff;stroke-width:0.48;"/>
    <path clip-path="url(#peda5944225)" d="M 389.531023 166.360719 
L 391.031023 164.860719 
L 392.531023 166.360719 
L 394.031023 164.860719 
L 392.531023 163.360719 
L 394.031023 161.860719 
L 392.531023 160.360719 
L 391.031023 161.860719 
L 389.531023 160.360719 
L 388.031023 161.860719 
L 389.531023 163.360719 
L 388.031023 164.860719 
z
" style="fill:#2f9599;stroke:#ffffff;stroke-width:0.48;"/>
    <path clip-path="url(#peda5944225)" d="M 64.255157 49.571213 
L 64.255157 53.813853 
L 68.497798 53.813853 
L 68.497798 49.571213 
z
" style="fill:#a7226e;stroke:#ffffff;stroke-width:0.48;"/>
    <path clip-path="url(#peda5944225)" d="M 71.018793 49.571213 
L 71.018793 53.813853 
L 75.261434 53.813853 
L 75.261434 49.571213 
z
" style="fill:#a7226e;stroke:#ffffff;stroke-width:0.48;"/>
    <path clip-path="url(#peda5944225)" d="M 77.78243 49.571213 
L 77.78243 53.813853 
L 82.02507 53.813853 
L 82.02507 49.571213 
z
" style="fill:#a7226e;stroke:#ffffff;stroke-width:0.48;"/>
    <path clip-path="url(#peda5944225)" d="M 84.546066 49.571213 
L 84.546066 53.813853 
L 88.788707 53.813853 
L 88.788707 49.571213 
z
" style="fill:#a7226e;stroke:#ffffff;stroke-width:0.48;"/>
    <path clip-path="url(#peda5944225)" d="M 91.309702 49.571213 
L 91.309702 53.813853 
L 95.552343 53.813853 
L 95.552343 49.571213 
z
" style="fill:#a7226e;stroke:#ffffff;stroke-width:0.48;"/>
    <path clip-path="url(#peda5944225)" d="M 98.073339 61.719912 
L 98.073339 65.962553 
L 102.315979 65.962553 
L 102.315979 61.719912 
z
" style="fill:#a7226e;stroke:#ffffff;stroke-width:0.48;"/>
    <path clip-path="url(#peda5944225)" d="M 104.836975 61.719912 
L 104.836975 65.962553 
L 109.079616 65.962553 
L 109.079616 61.719912 
z
" style="fill:#a7226e;stroke:#ffffff;stroke-width:0.48;"/>
    <path clip-path="url(#peda5944225)" d="M 111.600611 61.719912 
L 111.600611 65.962553 
L 115.843252 65.962553 
L 115.843252 61.719912 
z
" style="fill:#a7226e;stroke:#ffffff;stroke-width:0.48;"/>
    <path clip-path="url(#peda5944225)" d="M 118.364248 87.208361 
L 118.364248 91.451002 
L 122.606889 91.451002 
L 122.606889 87.208361 
z
" style="fill:#a7226e;stroke:#ffffff;stroke-width:0.48;"/>
    <path clip-path="url(#peda5944225)" d="M 125.127884 87.208361 
L 125.127884 91.451002 
L 129.370525 91.451002 
L 129.370525 87.208361 
z
" style="fill:#a7226e;stroke:#ffffff;stroke-width:0.48;"/>
    <path clip-path="url(#peda5944225)" d="M 131.891521 98.880641 
L 131.891521 103.123282 
L 136.134161 103.123282 
L 136.134161 98.880641 
z
" style="fill:#a7226e;stroke:#ffffff;stroke-width:0.48;"/>
    <path clip-path="url(#peda5944225)" d="M 138.655157 82.045622 
L 138.655157 86.288262 
L 142.897798 86.288262 
L 142.897798 82.045622 
z
" style="fill:#a7226e;stroke:#ffffff;stroke-width:0.48;"/>
    <path clip-path="url(#peda5944225)" d="M 145.418793 100.153981 
L 145.418793 104.396622 
L 149.661434 104.396622 
L 149.661434 100.153981 
z
" style="fill:#a7226e;stroke:#ffffff;stroke-width:0.48;"/>
    <path clip-path="url(#peda5944225)" d="M 152.18243 105.758949 
L 152.18243 110.00159 
L 156.42507 110.00159 
L 156.42507 105.758949 
z
" style="fill:#a7226e;stroke:#ffffff;stroke-width:0.48;"/>
    <path clip-path="url(#peda5944225)" d="M 158.946066 100.723633 
L 158.946066 104.966274 
L 163.188707 104.966274 
L 163.188707 100.723633 
z
" style="fill:#a7226e;stroke:#ffffff;stroke-width:0.48;"/>
    <path clip-path="url(#peda5944225)" d="M 165.709702 111.167252 
L 165.709702 115.409893 
L 169.952343 115.409893 
L 169.952343 111.167252 
z
" style="fill:#a7226e;stroke:#ffffff;stroke-width:0.48;"/>
    <path clip-path="url(#peda5944225)" d="M 172.473339 100.723633 
L 172.473339 104.966274 
L 176.715979 104.966274 
L 176.715979 100.723633 
z
" style="fill:#a7226e;stroke:#ffffff;stroke-width:0.48;"/>
    <path clip-path="url(#peda5944225)" d="M 179.236975 100.723633 
L 179.236975 104.966274 
L 183.479616 104.966274 
L 183.479616 100.723633 
z
" style="fill:#a7226e;stroke:#ffffff;stroke-width:0.48;"/>
    <path clip-path="url(#peda5944225)" d="M 186.000611 27.618299 
L 186.000611 31.86094 
L 190.243252 31.86094 
L 190.243252 27.618299 
z
" style="fill:#a7226e;stroke:#ffffff;stroke-width:0.48;"/>
    <path clip-path="url(#peda5944225)" d="M 192.764248 17.17468 
L 192.764248 21.41732 
L 197.006889 21.41732 
L 197.006889 17.17468 
z
" style="fill:#a7226e;stroke:#ffffff;stroke-width:0.48;"/>
    <path clip-path="url(#peda5944225)" d="M 199.527884 17.17468 
L 199.527884 21.41732 
L 203.770525 21.41732 
L 203.770525 17.17468 
z
" style="fill:#a7226e;stroke:#ffffff;stroke-width:0.48;"/>
    <path clip-path="url(#peda5944225)" d="M 206.291521 24.017051 
L 206.291521 28.259692 
L 210.534161 28.259692 
L 210.534161 24.017051 
z
" style="fill:#a7226e;stroke:#ffffff;stroke-width:0.48;"/>
    <path clip-path="url(#peda5944225)" d="M 213.055157 20.537879 
L 213.055157 24.78052 
L 217.297798 24.78052 
L 217.297798 20.537879 
z
" style="fill:#a7226e;stroke:#ffffff;stroke-width:0.48;"/>
    <path clip-path="url(#peda5944225)" d="M 219.818793 50.806674 
L 219.818793 55.049314 
L 224.061434 55.049314 
L 224.061434 50.806674 
z
" style="fill:#a7226e;stroke:#ffffff;stroke-width:0.48;"/>
    <path clip-path="url(#peda5944225)" d="M 226.58243 50.806674 
L 226.58243 55.049314 
L 230.82507 55.049314 
L 230.82507 50.806674 
z
" style="fill:#a7226e;stroke:#ffffff;stroke-width:0.48;"/>
    <path clip-path="url(#peda5944225)" d="M 233.346066 56.860432 
L 233.346066 61.103073 
L 237.588707 61.103073 
L 237.588707 56.860432 
z
" style="fill:#a7226e;stroke:#ffffff;stroke-width:0.48;"/>
    <path clip-path="url(#peda5944225)" d="M 240.109702 27.096118 
L 240.109702 31.338759 
L 244.352343 31.338759 
L 244.352343 27.096118 
z
" style="fill:#a7226e;stroke:#ffffff;stroke-width:0.48;"/>
    <path clip-path="url(#peda5944225)" d="M 246.873339 33.439332 
L 246.873339 37.681973 
L 251.115979 37.681973 
L 251.115979 33.439332 
z
" style="fill:#a7226e;stroke:#ffffff;stroke-width:0.48;"/>
    <path clip-path="url(#peda5944225)" d="M 253.636975 45.521646 
L 253.636975 49.764287 
L 257.879616 49.764287 
L 257.879616 45.521646 
z
" style="fill:#a7226e;stroke:#ffffff;stroke-width:0.48;"/>
    <path clip-path="url(#peda5944225)" d="M 260.400611 45.521646 
L 260.400611 49.764287 
L 264.643252 49.764287 
L 264.643252 45.521646 
z
" style="fill:#a7226e;stroke:#ffffff;stroke-width:0.48;"/>
    <path clip-path="url(#peda5944225)" d="M 267.164248 45.521646 
L 267.164248 49.764287 
L 271.406889 49.764287 
L 271.406889 45.521646 
z
" style="fill:#a7226e;stroke:#ffffff;stroke-width:0.48;"/>
    <path clip-path="url(#peda5944225)" d="M 273.927884 45.521646 
L 273.927884 49.764287 
L 278.170525 49.764287 
L 278.170525 45.521646 
z
" style="fill:#a7226e;stroke:#ffffff;stroke-width:0.48;"/>
    <path clip-path="url(#peda5944225)" d="M 280.691521 45.521646 
L 280.691521 49.764287 
L 284.934161 49.764287 
L 284.934161 45.521646 
z
" style="fill:#a7226e;stroke:#ffffff;stroke-width:0.48;"/>
    <path clip-path="url(#peda5944225)" d="M 287.455157 259.09468 
L 287.455157 263.33732 
L 291.697798 263.33732 
L 291.697798 259.09468 
z
" style="fill:#a7226e;stroke:#ffffff;stroke-width:0.48;"/>
    <path clip-path="url(#peda5944225)" d="M 294.218793 259.09468 
L 294.218793 263.33732 
L 298.461434 263.33732 
L 298.461434 259.09468 
z
" style="fill:#a7226e;stroke:#ffffff;stroke-width:0.48;"/>
    <path clip-path="url(#peda5944225)" d="M 300.98243 259.09468 
L 300.98243 263.33732 
L 305.22507 263.33732 
L 305.22507 259.09468 
z
" style="fill:#a7226e;stroke:#ffffff;stroke-width:0.48;"/>
    <path clip-path="url(#peda5944225)" d="M 307.746066 259.09468 
L 307.746066 263.33732 
L 311.988707 263.33732 
L 311.988707 259.09468 
z
" style="fill:#a7226e;stroke:#ffffff;stroke-width:0.48;"/>
    <path clip-path="url(#peda5944225)" d="M 314.509702 259.09468 
L 314.509702 263.33732 
L 318.752343 263.33732 
L 318.752343 259.09468 
z
" style="fill:#a7226e;stroke:#ffffff;stroke-width:0.48;"/>
    <path clip-path="url(#peda5944225)" d="M 321.273339 259.09468 
L 321.273339 263.33732 
L 325.515979 263.33732 
L 325.515979 259.09468 
z
" style="fill:#a7226e;stroke:#ffffff;stroke-width:0.48;"/>
    <path clip-path="url(#peda5944225)" d="M 328.036975 259.09468 
L 328.036975 263.33732 
L 332.279616 263.33732 
L 332.279616 259.09468 
z
" style="fill:#a7226e;stroke:#ffffff;stroke-width:0.48;"/>
    <path clip-path="url(#peda5944225)" d="M 334.800611 259.09468 
L 334.800611 263.33732 
L 339.043252 263.33732 
L 339.043252 259.09468 
z
" style="fill:#a7226e;stroke:#ffffff;stroke-width:0.48;"/>
    <path clip-path="url(#peda5944225)" d="M 341.564248 259.09468 
L 341.564248 263.33732 
L 345.806889 263.33732 
L 345.806889 259.09468 
z
" style="fill:#a7226e;stroke:#ffffff;stroke-width:0.48;"/>
    <path clip-path="url(#peda5944225)" d="M 348.327884 259.09468 
L 348.327884 263.33732 
L 352.570525 263.33732 
L 352.570525 259.09468 
z
" style="fill:#a7226e;stroke:#ffffff;stroke-width:0.48;"/>
    <path clip-path="url(#peda5944225)" d="M 355.091521 259.09468 
L 355.091521 263.33732 
L 359.334161 263.33732 
L 359.334161 259.09468 
z
" style="fill:#a7226e;stroke:#ffffff;stroke-width:0.48;"/>
    <path clip-path="url(#peda5944225)" d="M 361.855157 259.09468 
L 361.855157 263.33732 
L 366.097798 263.33732 
L 366.097798 259.09468 
z
" style="fill:#a7226e;stroke:#ffffff;stroke-width:0.48;"/>
    <path clip-path="url(#peda5944225)" d="M 368.618793 259.09468 
L 368.618793 263.33732 
L 372.861434 263.33732 
L 372.861434 259.09468 
z
" style="fill:#a7226e;stroke:#ffffff;stroke-width:0.48;"/>
    <path clip-path="url(#peda5944225)" d="M 375.38243 259.09468 
L 375.38243 263.33732 
L 379.62507 263.33732 
L 379.62507 259.09468 
z
" style="fill:#a7226e;stroke:#ffffff;stroke-width:0.48;"/>
    <path clip-path="url(#peda5944225)" d="M 382.146066 259.09468 
L 382.146066 263.33732 
L 386.388707 263.33732 
L 386.388707 259.09468 
z
" style="fill:#a7226e;stroke:#ffffff;stroke-width:0.48;"/>
    <path clip-path="url(#peda5944225)" d="M 388.909702 259.09468 
L 388.909702 263.33732 
L 393.152343 263.33732 
L 393.152343 259.09468 
z
" style="fill:#a7226e;stroke:#ffffff;stroke-width:0.48;"/>
   </g>
   <g id="PathCollection_2"/>
   <g id="PathCollection_3"/>
   <g id="PathCollection_4"/>
   <g id="matplotlib.axis_1">
    <g id="xtick_1">
     <g id="line2d_1">
      <defs>
       <path d="M 0 0 
L 0 3.5 
" id="m2a7a9c439c" style="stroke:#000000;stroke-width:0.8;"/>
      </defs>
      <g>
       <use style="stroke:#000000;stroke-width:0.8;" x="59.612841" xlink:href="#m2a7a9c439c" y="273.312"/>
      </g>
     </g>
     <g id="text_1">
      <!-- 0.0 -->
      <g transform="translate(51.661278 287.910437)scale(0.1 -0.1)">
       <defs>
        <path d="M 31.78125 66.40625 
Q 24.171875 66.40625 20.328125 58.90625 
Q 16.5 51.421875 16.5 36.375 
Q 16.5 21.390625 20.328125 13.890625 
Q 24.171875 6.390625 31.78125 6.390625 
Q 39.453125 6.390625 43.28125 13.890625 
Q 47.125 21.390625 47.125 36.375 
Q 47.125 51.421875 43.28125 58.90625 
Q 39.453125 66.40625 31.78125 66.40625 
z
M 31.78125 74.21875 
Q 44.046875 74.21875 50.515625 64.515625 
Q 56.984375 54.828125 56.984375 36.375 
Q 56.984375 17.96875 50.515625 8.265625 
Q 44.046875 -1.421875 31.78125 -1.421875 
Q 19.53125 -1.421875 13.0625 8.265625 
Q 6.59375 17.96875 6.59375 36.375 
Q 6.59375 54.828125 13.0625 64.515625 
Q 19.53125 74.21875 31.78125 74.21875 
z
" id="DejaVuSans-48"/>
        <path d="M 10.6875 12.40625 
L 21 12.40625 
L 21 0 
L 10.6875 0 
z
" id="DejaVuSans-46"/>
       </defs>
       <use xlink:href="#DejaVuSans-48"/>
       <use x="63.623047" xlink:href="#DejaVuSans-46"/>
       <use x="95.410156" xlink:href="#DejaVuSans-48"/>
      </g>
     </g>
    </g>
    <g id="xtick_2">
     <g id="line2d_2">
      <g>
       <use style="stroke:#000000;stroke-width:0.8;" x="127.249205" xlink:href="#m2a7a9c439c" y="273.312"/>
      </g>
     </g>
     <g id="text_2">
      <!-- 0.2 -->
      <g transform="translate(119.297642 287.910437)scale(0.1 -0.1)">
       <defs>
        <path d="M 19.1875 8.296875 
L 53.609375 8.296875 
L 53.609375 0 
L 7.328125 0 
L 7.328125 8.296875 
Q 12.9375 14.109375 22.625 23.890625 
Q 32.328125 33.6875 34.8125 36.53125 
Q 39.546875 41.84375 41.421875 45.53125 
Q 43.3125 49.21875 43.3125 52.78125 
Q 43.3125 58.59375 39.234375 62.25 
Q 35.15625 65.921875 28.609375 65.921875 
Q 23.96875 65.921875 18.8125 64.3125 
Q 13.671875 62.703125 7.8125 59.421875 
L 7.8125 69.390625 
Q 13.765625 71.78125 18.9375 73 
Q 24.125 74.21875 28.421875 74.21875 
Q 39.75 74.21875 46.484375 68.546875 
Q 53.21875 62.890625 53.21875 53.421875 
Q 53.21875 48.921875 51.53125 44.890625 
Q 49.859375 40.875 45.40625 35.40625 
Q 44.1875 33.984375 37.640625 27.21875 
Q 31.109375 20.453125 19.1875 8.296875 
z
" id="DejaVuSans-50"/>
       </defs>
       <use xlink:href="#DejaVuSans-48"/>
       <use x="63.623047" xlink:href="#DejaVuSans-46"/>
       <use x="95.410156" xlink:href="#DejaVuSans-50"/>
      </g>
     </g>
    </g>
    <g id="xtick_3">
     <g id="line2d_3">
      <g>
       <use style="stroke:#000000;stroke-width:0.8;" x="194.885568" xlink:href="#m2a7a9c439c" y="273.312"/>
      </g>
     </g>
     <g id="text_3">
      <!-- 0.4 -->
      <g transform="translate(186.934006 287.910437)scale(0.1 -0.1)">
       <defs>
        <path d="M 37.796875 64.3125 
L 12.890625 25.390625 
L 37.796875 25.390625 
z
M 35.203125 72.90625 
L 47.609375 72.90625 
L 47.609375 25.390625 
L 58.015625 25.390625 
L 58.015625 17.1875 
L 47.609375 17.1875 
L 47.609375 0 
L 37.796875 0 
L 37.796875 17.1875 
L 4.890625 17.1875 
L 4.890625 26.703125 
z
" id="DejaVuSans-52"/>
       </defs>
       <use xlink:href="#DejaVuSans-48"/>
       <use x="63.623047" xlink:href="#DejaVuSans-46"/>
       <use x="95.410156" xlink:href="#DejaVuSans-52"/>
      </g>
     </g>
    </g>
    <g id="xtick_4">
     <g id="line2d_4">
      <g>
       <use style="stroke:#000000;stroke-width:0.8;" x="262.521932" xlink:href="#m2a7a9c439c" y="273.312"/>
      </g>
     </g>
     <g id="text_4">
      <!-- 0.6 -->
      <g transform="translate(254.570369 287.910437)scale(0.1 -0.1)">
       <defs>
        <path d="M 33.015625 40.375 
Q 26.375 40.375 22.484375 35.828125 
Q 18.609375 31.296875 18.609375 23.390625 
Q 18.609375 15.53125 22.484375 10.953125 
Q 26.375 6.390625 33.015625 6.390625 
Q 39.65625 6.390625 43.53125 10.953125 
Q 47.40625 15.53125 47.40625 23.390625 
Q 47.40625 31.296875 43.53125 35.828125 
Q 39.65625 40.375 33.015625 40.375 
z
M 52.59375 71.296875 
L 52.59375 62.3125 
Q 48.875 64.0625 45.09375 64.984375 
Q 41.3125 65.921875 37.59375 65.921875 
Q 27.828125 65.921875 22.671875 59.328125 
Q 17.53125 52.734375 16.796875 39.40625 
Q 19.671875 43.65625 24.015625 45.921875 
Q 28.375 48.1875 33.59375 48.1875 
Q 44.578125 48.1875 50.953125 41.515625 
Q 57.328125 34.859375 57.328125 23.390625 
Q 57.328125 12.15625 50.6875 5.359375 
Q 44.046875 -1.421875 33.015625 -1.421875 
Q 20.359375 -1.421875 13.671875 8.265625 
Q 6.984375 17.96875 6.984375 36.375 
Q 6.984375 53.65625 15.1875 63.9375 
Q 23.390625 74.21875 37.203125 74.21875 
Q 40.921875 74.21875 44.703125 73.484375 
Q 48.484375 72.75 52.59375 71.296875 
z
" id="DejaVuSans-54"/>
       </defs>
       <use xlink:href="#DejaVuSans-48"/>
       <use x="63.623047" xlink:href="#DejaVuSans-46"/>
       <use x="95.410156" xlink:href="#DejaVuSans-54"/>
      </g>
     </g>
    </g>
    <g id="xtick_5">
     <g id="line2d_5">
      <g>
       <use style="stroke:#000000;stroke-width:0.8;" x="330.158295" xlink:href="#m2a7a9c439c" y="273.312"/>
      </g>
     </g>
     <g id="text_5">
      <!-- 0.8 -->
      <g transform="translate(322.206733 287.910437)scale(0.1 -0.1)">
       <defs>
        <path d="M 31.78125 34.625 
Q 24.75 34.625 20.71875 30.859375 
Q 16.703125 27.09375 16.703125 20.515625 
Q 16.703125 13.921875 20.71875 10.15625 
Q 24.75 6.390625 31.78125 6.390625 
Q 38.8125 6.390625 42.859375 10.171875 
Q 46.921875 13.96875 46.921875 20.515625 
Q 46.921875 27.09375 42.890625 30.859375 
Q 38.875 34.625 31.78125 34.625 
z
M 21.921875 38.8125 
Q 15.578125 40.375 12.03125 44.71875 
Q 8.5 49.078125 8.5 55.328125 
Q 8.5 64.0625 14.71875 69.140625 
Q 20.953125 74.21875 31.78125 74.21875 
Q 42.671875 74.21875 48.875 69.140625 
Q 55.078125 64.0625 55.078125 55.328125 
Q 55.078125 49.078125 51.53125 44.71875 
Q 48 40.375 41.703125 38.8125 
Q 48.828125 37.15625 52.796875 32.3125 
Q 56.78125 27.484375 56.78125 20.515625 
Q 56.78125 9.90625 50.3125 4.234375 
Q 43.84375 -1.421875 31.78125 -1.421875 
Q 19.734375 -1.421875 13.25 4.234375 
Q 6.78125 9.90625 6.78125 20.515625 
Q 6.78125 27.484375 10.78125 32.3125 
Q 14.796875 37.15625 21.921875 38.8125 
z
M 18.3125 54.390625 
Q 18.3125 48.734375 21.84375 45.5625 
Q 25.390625 42.390625 31.78125 42.390625 
Q 38.140625 42.390625 41.71875 45.5625 
Q 45.3125 48.734375 45.3125 54.390625 
Q 45.3125 60.0625 41.71875 63.234375 
Q 38.140625 66.40625 31.78125 66.40625 
Q 25.390625 66.40625 21.84375 63.234375 
Q 18.3125 60.0625 18.3125 54.390625 
z
" id="DejaVuSans-56"/>
       </defs>
       <use xlink:href="#DejaVuSans-48"/>
       <use x="63.623047" xlink:href="#DejaVuSans-46"/>
       <use x="95.410156" xlink:href="#DejaVuSans-56"/>
      </g>
     </g>
    </g>
    <g id="xtick_6">
     <g id="line2d_6">
      <g>
       <use style="stroke:#000000;stroke-width:0.8;" x="397.794659" xlink:href="#m2a7a9c439c" y="273.312"/>
      </g>
     </g>
     <g id="text_6">
      <!-- 1.0 -->
      <g transform="translate(389.843097 287.910437)scale(0.1 -0.1)">
       <defs>
        <path d="M 12.40625 8.296875 
L 28.515625 8.296875 
L 28.515625 63.921875 
L 10.984375 60.40625 
L 10.984375 69.390625 
L 28.421875 72.90625 
L 38.28125 72.90625 
L 38.28125 8.296875 
L 54.390625 8.296875 
L 54.390625 0 
L 12.40625 0 
z
" id="DejaVuSans-49"/>
       </defs>
       <use xlink:href="#DejaVuSans-49"/>
       <use x="63.623047" xlink:href="#DejaVuSans-46"/>
       <use x="95.410156" xlink:href="#DejaVuSans-48"/>
      </g>
     </g>
    </g>
    <g id="text_7">
     <!-- cutoff -->
     <g transform="translate(214.245938 301.588562)scale(0.1 -0.1)">
      <defs>
       <path d="M 48.78125 52.59375 
L 48.78125 44.1875 
Q 44.96875 46.296875 41.140625 47.34375 
Q 37.3125 48.390625 33.40625 48.390625 
Q 24.65625 48.390625 19.8125 42.84375 
Q 14.984375 37.3125 14.984375 27.296875 
Q 14.984375 17.28125 19.8125 11.734375 
Q 24.65625 6.203125 33.40625 6.203125 
Q 37.3125 6.203125 41.140625 7.25 
Q 44.96875 8.296875 48.78125 10.40625 
L 48.78125 2.09375 
Q 45.015625 0.34375 40.984375 -0.53125 
Q 36.96875 -1.421875 32.421875 -1.421875 
Q 20.0625 -1.421875 12.78125 6.34375 
Q 5.515625 14.109375 5.515625 27.296875 
Q 5.515625 40.671875 12.859375 48.328125 
Q 20.21875 56 33.015625 56 
Q 37.15625 56 41.109375 55.140625 
Q 45.0625 54.296875 48.78125 52.59375 
z
" id="DejaVuSans-99"/>
       <path d="M 8.5 21.578125 
L 8.5 54.6875 
L 17.484375 54.6875 
L 17.484375 21.921875 
Q 17.484375 14.15625 20.5 10.265625 
Q 23.53125 6.390625 29.59375 6.390625 
Q 36.859375 6.390625 41.078125 11.03125 
Q 45.3125 15.671875 45.3125 23.6875 
L 45.3125 54.6875 
L 54.296875 54.6875 
L 54.296875 0 
L 45.3125 0 
L 45.3125 8.40625 
Q 42.046875 3.421875 37.71875 1 
Q 33.40625 -1.421875 27.6875 -1.421875 
Q 18.265625 -1.421875 13.375 4.4375 
Q 8.5 10.296875 8.5 21.578125 
z
M 31.109375 56 
z
" id="DejaVuSans-117"/>
       <path d="M 18.3125 70.21875 
L 18.3125 54.6875 
L 36.8125 54.6875 
L 36.8125 47.703125 
L 18.3125 47.703125 
L 18.3125 18.015625 
Q 18.3125 11.328125 20.140625 9.421875 
Q 21.96875 7.515625 27.59375 7.515625 
L 36.8125 7.515625 
L 36.8125 0 
L 27.59375 0 
Q 17.1875 0 13.234375 3.875 
Q 9.28125 7.765625 9.28125 18.015625 
L 9.28125 47.703125 
L 2.6875 47.703125 
L 2.6875 54.6875 
L 9.28125 54.6875 
L 9.28125 70.21875 
z
" id="DejaVuSans-116"/>
       <path d="M 30.609375 48.390625 
Q 23.390625 48.390625 19.1875 42.75 
Q 14.984375 37.109375 14.984375 27.296875 
Q 14.984375 17.484375 19.15625 11.84375 
Q 23.34375 6.203125 30.609375 6.203125 
Q 37.796875 6.203125 41.984375 11.859375 
Q 46.1875 17.53125 46.1875 27.296875 
Q 46.1875 37.015625 41.984375 42.703125 
Q 37.796875 48.390625 30.609375 48.390625 
z
M 30.609375 56 
Q 42.328125 56 49.015625 48.375 
Q 55.71875 40.765625 55.71875 27.296875 
Q 55.71875 13.875 49.015625 6.21875 
Q 42.328125 -1.421875 30.609375 -1.421875 
Q 18.84375 -1.421875 12.171875 6.21875 
Q 5.515625 13.875 5.515625 27.296875 
Q 5.515625 40.765625 12.171875 48.375 
Q 18.84375 56 30.609375 56 
z
" id="DejaVuSans-111"/>
       <path d="M 37.109375 75.984375 
L 37.109375 68.5 
L 28.515625 68.5 
Q 23.6875 68.5 21.796875 66.546875 
Q 19.921875 64.59375 19.921875 59.515625 
L 19.921875 54.6875 
L 34.71875 54.6875 
L 34.71875 47.703125 
L 19.921875 47.703125 
L 19.921875 0 
L 10.890625 0 
L 10.890625 47.703125 
L 2.296875 47.703125 
L 2.296875 54.6875 
L 10.890625 54.6875 
L 10.890625 58.5 
Q 10.890625 67.625 15.140625 71.796875 
Q 19.390625 75.984375 28.609375 75.984375 
z
" id="DejaVuSans-102"/>
      </defs>
      <use xlink:href="#DejaVuSans-99"/>
      <use x="54.980469" xlink:href="#DejaVuSans-117"/>
      <use x="118.359375" xlink:href="#DejaVuSans-116"/>
      <use x="157.568359" xlink:href="#DejaVuSans-111"/>
      <use x="218.75" xlink:href="#DejaVuSans-102"/>
      <use x="253.955078" xlink:href="#DejaVuSans-102"/>
     </g>
    </g>
   </g>
   <g id="matplotlib.axis_2">
    <g id="ytick_1">
     <g id="line2d_7">
      <defs>
       <path d="M 0 0 
L -3.5 0 
" id="m9f78918464" style="stroke:#000000;stroke-width:0.8;"/>
      </defs>
      <g>
       <use style="stroke:#000000;stroke-width:0.8;" x="50.14375" xlink:href="#m9f78918464" y="267.331955"/>
      </g>
     </g>
     <g id="text_8">
      <!-- 0.25 -->
      <g transform="translate(20.878125 271.131174)scale(0.1 -0.1)">
       <defs>
        <path d="M 10.796875 72.90625 
L 49.515625 72.90625 
L 49.515625 64.59375 
L 19.828125 64.59375 
L 19.828125 46.734375 
Q 21.96875 47.46875 24.109375 47.828125 
Q 26.265625 48.1875 28.421875 48.1875 
Q 40.625 48.1875 47.75 41.5 
Q 54.890625 34.8125 54.890625 23.390625 
Q 54.890625 11.625 47.5625 5.09375 
Q 40.234375 -1.421875 26.90625 -1.421875 
Q 22.3125 -1.421875 17.546875 -0.640625 
Q 12.796875 0.140625 7.71875 1.703125 
L 7.71875 11.625 
Q 12.109375 9.234375 16.796875 8.0625 
Q 21.484375 6.890625 26.703125 6.890625 
Q 35.15625 6.890625 40.078125 11.328125 
Q 45.015625 15.765625 45.015625 23.390625 
Q 45.015625 31 40.078125 35.4375 
Q 35.15625 39.890625 26.703125 39.890625 
Q 22.75 39.890625 18.8125 39.015625 
Q 14.890625 38.140625 10.796875 36.28125 
z
" id="DejaVuSans-53"/>
       </defs>
       <use xlink:href="#DejaVuSans-48"/>
       <use x="63.623047" xlink:href="#DejaVuSans-46"/>
       <use x="95.410156" xlink:href="#DejaVuSans-50"/>
       <use x="159.033203" xlink:href="#DejaVuSans-53"/>
      </g>
     </g>
    </g>
    <g id="ytick_2">
     <g id="line2d_8">
      <g>
       <use style="stroke:#000000;stroke-width:0.8;" x="50.14375" xlink:href="#m9f78918464" y="237.56764"/>
      </g>
     </g>
     <g id="text_9">
      <!-- 0.30 -->
      <g transform="translate(20.878125 241.366859)scale(0.1 -0.1)">
       <defs>
        <path d="M 40.578125 39.3125 
Q 47.65625 37.796875 51.625 33 
Q 55.609375 28.21875 55.609375 21.1875 
Q 55.609375 10.40625 48.1875 4.484375 
Q 40.765625 -1.421875 27.09375 -1.421875 
Q 22.515625 -1.421875 17.65625 -0.515625 
Q 12.796875 0.390625 7.625 2.203125 
L 7.625 11.71875 
Q 11.71875 9.328125 16.59375 8.109375 
Q 21.484375 6.890625 26.8125 6.890625 
Q 36.078125 6.890625 40.9375 10.546875 
Q 45.796875 14.203125 45.796875 21.1875 
Q 45.796875 27.640625 41.28125 31.265625 
Q 36.765625 34.90625 28.71875 34.90625 
L 20.21875 34.90625 
L 20.21875 43.015625 
L 29.109375 43.015625 
Q 36.375 43.015625 40.234375 45.921875 
Q 44.09375 48.828125 44.09375 54.296875 
Q 44.09375 59.90625 40.109375 62.90625 
Q 36.140625 65.921875 28.71875 65.921875 
Q 24.65625 65.921875 20.015625 65.03125 
Q 15.375 64.15625 9.8125 62.3125 
L 9.8125 71.09375 
Q 15.4375 72.65625 20.34375 73.4375 
Q 25.25 74.21875 29.59375 74.21875 
Q 40.828125 74.21875 47.359375 69.109375 
Q 53.90625 64.015625 53.90625 55.328125 
Q 53.90625 49.265625 50.4375 45.09375 
Q 46.96875 40.921875 40.578125 39.3125 
z
" id="DejaVuSans-51"/>
       </defs>
       <use xlink:href="#DejaVuSans-48"/>
       <use x="63.623047" xlink:href="#DejaVuSans-46"/>
       <use x="95.410156" xlink:href="#DejaVuSans-51"/>
       <use x="159.033203" xlink:href="#DejaVuSans-48"/>
      </g>
     </g>
    </g>
    <g id="ytick_3">
     <g id="line2d_9">
      <g>
       <use style="stroke:#000000;stroke-width:0.8;" x="50.14375" xlink:href="#m9f78918464" y="207.803326"/>
      </g>
     </g>
     <g id="text_10">
      <!-- 0.35 -->
      <g transform="translate(20.878125 211.602545)scale(0.1 -0.1)">
       <use xlink:href="#DejaVuSans-48"/>
       <use x="63.623047" xlink:href="#DejaVuSans-46"/>
       <use x="95.410156" xlink:href="#DejaVuSans-51"/>
       <use x="159.033203" xlink:href="#DejaVuSans-53"/>
      </g>
     </g>
    </g>
    <g id="ytick_4">
     <g id="line2d_10">
      <g>
       <use style="stroke:#000000;stroke-width:0.8;" x="50.14375" xlink:href="#m9f78918464" y="178.039011"/>
      </g>
     </g>
     <g id="text_11">
      <!-- 0.40 -->
      <g transform="translate(20.878125 181.83823)scale(0.1 -0.1)">
       <use xlink:href="#DejaVuSans-48"/>
       <use x="63.623047" xlink:href="#DejaVuSans-46"/>
       <use x="95.410156" xlink:href="#DejaVuSans-52"/>
       <use x="159.033203" xlink:href="#DejaVuSans-48"/>
      </g>
     </g>
    </g>
    <g id="ytick_5">
     <g id="line2d_11">
      <g>
       <use style="stroke:#000000;stroke-width:0.8;" x="50.14375" xlink:href="#m9f78918464" y="148.274697"/>
      </g>
     </g>
     <g id="text_12">
      <!-- 0.45 -->
      <g transform="translate(20.878125 152.073915)scale(0.1 -0.1)">
       <use xlink:href="#DejaVuSans-48"/>
       <use x="63.623047" xlink:href="#DejaVuSans-46"/>
       <use x="95.410156" xlink:href="#DejaVuSans-52"/>
       <use x="159.033203" xlink:href="#DejaVuSans-53"/>
      </g>
     </g>
    </g>
    <g id="ytick_6">
     <g id="line2d_12">
      <g>
       <use style="stroke:#000000;stroke-width:0.8;" x="50.14375" xlink:href="#m9f78918464" y="118.510382"/>
      </g>
     </g>
     <g id="text_13">
      <!-- 0.50 -->
      <g transform="translate(20.878125 122.309601)scale(0.1 -0.1)">
       <use xlink:href="#DejaVuSans-48"/>
       <use x="63.623047" xlink:href="#DejaVuSans-46"/>
       <use x="95.410156" xlink:href="#DejaVuSans-53"/>
       <use x="159.033203" xlink:href="#DejaVuSans-48"/>
      </g>
     </g>
    </g>
    <g id="ytick_7">
     <g id="line2d_13">
      <g>
       <use style="stroke:#000000;stroke-width:0.8;" x="50.14375" xlink:href="#m9f78918464" y="88.746067"/>
      </g>
     </g>
     <g id="text_14">
      <!-- 0.55 -->
      <g transform="translate(20.878125 92.545286)scale(0.1 -0.1)">
       <use xlink:href="#DejaVuSans-48"/>
       <use x="63.623047" xlink:href="#DejaVuSans-46"/>
       <use x="95.410156" xlink:href="#DejaVuSans-53"/>
       <use x="159.033203" xlink:href="#DejaVuSans-53"/>
      </g>
     </g>
    </g>
    <g id="ytick_8">
     <g id="line2d_14">
      <g>
       <use style="stroke:#000000;stroke-width:0.8;" x="50.14375" xlink:href="#m9f78918464" y="58.981753"/>
      </g>
     </g>
     <g id="text_15">
      <!-- 0.60 -->
      <g transform="translate(20.878125 62.780972)scale(0.1 -0.1)">
       <use xlink:href="#DejaVuSans-48"/>
       <use x="63.623047" xlink:href="#DejaVuSans-46"/>
       <use x="95.410156" xlink:href="#DejaVuSans-54"/>
       <use x="159.033203" xlink:href="#DejaVuSans-48"/>
      </g>
     </g>
    </g>
    <g id="ytick_9">
     <g id="line2d_15">
      <g>
       <use style="stroke:#000000;stroke-width:0.8;" x="50.14375" xlink:href="#m9f78918464" y="29.217438"/>
      </g>
     </g>
     <g id="text_16">
      <!-- 0.65 -->
      <g transform="translate(20.878125 33.016657)scale(0.1 -0.1)">
       <use xlink:href="#DejaVuSans-48"/>
       <use x="63.623047" xlink:href="#DejaVuSans-46"/>
       <use x="95.410156" xlink:href="#DejaVuSans-54"/>
       <use x="159.033203" xlink:href="#DejaVuSans-53"/>
      </g>
     </g>
    </g>
    <g id="text_17">
     <!-- performance -->
     <g transform="translate(14.798438 172.278656)rotate(-90)scale(0.1 -0.1)">
      <defs>
       <path d="M 18.109375 8.203125 
L 18.109375 -20.796875 
L 9.078125 -20.796875 
L 9.078125 54.6875 
L 18.109375 54.6875 
L 18.109375 46.390625 
Q 20.953125 51.265625 25.265625 53.625 
Q 29.59375 56 35.59375 56 
Q 45.5625 56 51.78125 48.09375 
Q 58.015625 40.1875 58.015625 27.296875 
Q 58.015625 14.40625 51.78125 6.484375 
Q 45.5625 -1.421875 35.59375 -1.421875 
Q 29.59375 -1.421875 25.265625 0.953125 
Q 20.953125 3.328125 18.109375 8.203125 
z
M 48.6875 27.296875 
Q 48.6875 37.203125 44.609375 42.84375 
Q 40.53125 48.484375 33.40625 48.484375 
Q 26.265625 48.484375 22.1875 42.84375 
Q 18.109375 37.203125 18.109375 27.296875 
Q 18.109375 17.390625 22.1875 11.75 
Q 26.265625 6.109375 33.40625 6.109375 
Q 40.53125 6.109375 44.609375 11.75 
Q 48.6875 17.390625 48.6875 27.296875 
z
" id="DejaVuSans-112"/>
       <path d="M 56.203125 29.59375 
L 56.203125 25.203125 
L 14.890625 25.203125 
Q 15.484375 15.921875 20.484375 11.0625 
Q 25.484375 6.203125 34.421875 6.203125 
Q 39.59375 6.203125 44.453125 7.46875 
Q 49.3125 8.734375 54.109375 11.28125 
L 54.109375 2.78125 
Q 49.265625 0.734375 44.1875 -0.34375 
Q 39.109375 -1.421875 33.890625 -1.421875 
Q 20.796875 -1.421875 13.15625 6.1875 
Q 5.515625 13.8125 5.515625 26.8125 
Q 5.515625 40.234375 12.765625 48.109375 
Q 20.015625 56 32.328125 56 
Q 43.359375 56 49.78125 48.890625 
Q 56.203125 41.796875 56.203125 29.59375 
z
M 47.21875 32.234375 
Q 47.125 39.59375 43.09375 43.984375 
Q 39.0625 48.390625 32.421875 48.390625 
Q 24.90625 48.390625 20.390625 44.140625 
Q 15.875 39.890625 15.1875 32.171875 
z
" id="DejaVuSans-101"/>
       <path d="M 41.109375 46.296875 
Q 39.59375 47.171875 37.8125 47.578125 
Q 36.03125 48 33.890625 48 
Q 26.265625 48 22.1875 43.046875 
Q 18.109375 38.09375 18.109375 28.8125 
L 18.109375 0 
L 9.078125 0 
L 9.078125 54.6875 
L 18.109375 54.6875 
L 18.109375 46.1875 
Q 20.953125 51.171875 25.484375 53.578125 
Q 30.03125 56 36.53125 56 
Q 37.453125 56 38.578125 55.875 
Q 39.703125 55.765625 41.0625 55.515625 
z
" id="DejaVuSans-114"/>
       <path d="M 52 44.1875 
Q 55.375 50.25 60.0625 53.125 
Q 64.75 56 71.09375 56 
Q 79.640625 56 84.28125 50.015625 
Q 88.921875 44.046875 88.921875 33.015625 
L 88.921875 0 
L 79.890625 0 
L 79.890625 32.71875 
Q 79.890625 40.578125 77.09375 44.375 
Q 74.3125 48.1875 68.609375 48.1875 
Q 61.625 48.1875 57.5625 43.546875 
Q 53.515625 38.921875 53.515625 30.90625 
L 53.515625 0 
L 44.484375 0 
L 44.484375 32.71875 
Q 44.484375 40.625 41.703125 44.40625 
Q 38.921875 48.1875 33.109375 48.1875 
Q 26.21875 48.1875 22.15625 43.53125 
Q 18.109375 38.875 18.109375 30.90625 
L 18.109375 0 
L 9.078125 0 
L 9.078125 54.6875 
L 18.109375 54.6875 
L 18.109375 46.1875 
Q 21.1875 51.21875 25.484375 53.609375 
Q 29.78125 56 35.6875 56 
Q 41.65625 56 45.828125 52.96875 
Q 50 49.953125 52 44.1875 
z
" id="DejaVuSans-109"/>
       <path d="M 34.28125 27.484375 
Q 23.390625 27.484375 19.1875 25 
Q 14.984375 22.515625 14.984375 16.5 
Q 14.984375 11.71875 18.140625 8.90625 
Q 21.296875 6.109375 26.703125 6.109375 
Q 34.1875 6.109375 38.703125 11.40625 
Q 43.21875 16.703125 43.21875 25.484375 
L 43.21875 27.484375 
z
M 52.203125 31.203125 
L 52.203125 0 
L 43.21875 0 
L 43.21875 8.296875 
Q 40.140625 3.328125 35.546875 0.953125 
Q 30.953125 -1.421875 24.3125 -1.421875 
Q 15.921875 -1.421875 10.953125 3.296875 
Q 6 8.015625 6 15.921875 
Q 6 25.140625 12.171875 29.828125 
Q 18.359375 34.515625 30.609375 34.515625 
L 43.21875 34.515625 
L 43.21875 35.40625 
Q 43.21875 41.609375 39.140625 45 
Q 35.0625 48.390625 27.6875 48.390625 
Q 23 48.390625 18.546875 47.265625 
Q 14.109375 46.140625 10.015625 43.890625 
L 10.015625 52.203125 
Q 14.9375 54.109375 19.578125 55.046875 
Q 24.21875 56 28.609375 56 
Q 40.484375 56 46.34375 49.84375 
Q 52.203125 43.703125 52.203125 31.203125 
z
" id="DejaVuSans-97"/>
       <path d="M 54.890625 33.015625 
L 54.890625 0 
L 45.90625 0 
L 45.90625 32.71875 
Q 45.90625 40.484375 42.875 44.328125 
Q 39.84375 48.1875 33.796875 48.1875 
Q 26.515625 48.1875 22.3125 43.546875 
Q 18.109375 38.921875 18.109375 30.90625 
L 18.109375 0 
L 9.078125 0 
L 9.078125 54.6875 
L 18.109375 54.6875 
L 18.109375 46.1875 
Q 21.34375 51.125 25.703125 53.5625 
Q 30.078125 56 35.796875 56 
Q 45.21875 56 50.046875 50.171875 
Q 54.890625 44.34375 54.890625 33.015625 
z
" id="DejaVuSans-110"/>
      </defs>
      <use xlink:href="#DejaVuSans-112"/>
      <use x="63.476562" xlink:href="#DejaVuSans-101"/>
      <use x="125" xlink:href="#DejaVuSans-114"/>
      <use x="166.113281" xlink:href="#DejaVuSans-102"/>
      <use x="201.318359" xlink:href="#DejaVuSans-111"/>
      <use x="262.5" xlink:href="#DejaVuSans-114"/>
      <use x="301.863281" xlink:href="#DejaVuSans-109"/>
      <use x="399.275391" xlink:href="#DejaVuSans-97"/>
      <use x="460.554688" xlink:href="#DejaVuSans-110"/>
      <use x="523.933594" xlink:href="#DejaVuSans-99"/>
      <use x="578.914062" xlink:href="#DejaVuSans-101"/>
     </g>
    </g>
   </g>
   <g id="line2d_16">
    <path clip-path="url(#peda5944225)" d="M 66.376477 45.503573 
L 73.140114 74.415101 
L 79.90375 67.967206 
L 86.667386 92.401334 
L 93.431023 92.401334 
L 100.194659 128.43182 
L 106.958295 58.981753 
L 113.721932 55.078236 
L 120.485568 55.078236 
L 127.249205 74.595819 
L 134.012841 89.706207 
L 140.776477 118.510382 
L 147.540114 161.030831 
L 154.30375 161.030831 
L 161.067386 109.209034 
L 167.831023 109.209034 
L 174.594659 109.209034 
L 181.358295 113.931257 
L 188.121932 113.931257 
L 194.885568 113.931257 
L 201.649205 113.931257 
L 208.412841 113.931257 
L 215.176477 113.931257 
L 221.940114 113.931257 
L 228.70375 145.56885 
L 235.467386 195.979146 
L 242.231023 195.979146 
L 248.994659 195.979146 
L 255.758295 195.979146 
L 262.521932 195.979146 
L 269.285568 195.979146 
L 276.049205 195.979146 
L 282.812841 195.979146 
L 289.576477 195.979146 
L 296.340114 195.979146 
L 303.10375 195.979146 
L 309.867386 195.979146 
L 316.631023 195.979146 
L 323.394659 195.979146 
L 330.158295 195.979146 
L 336.921932 195.979146 
L 343.685568 195.979146 
L 350.449205 195.979146 
L 357.212841 195.979146 
L 363.976477 195.979146 
L 370.740114 195.979146 
L 377.50375 195.979146 
L 384.267386 195.979146 
L 391.031023 195.979146 
" style="fill:none;stroke:#f26b38;stroke-dasharray:7.4,3.2;stroke-dashoffset:0;stroke-width:2;"/>
   </g>
   <g id="line2d_17">
    <path clip-path="url(#peda5944225)" d="M 66.376477 128.43182 
L 73.140114 103.872195 
L 79.90375 81.957715 
L 86.667386 81.957715 
L 93.431023 151.581843 
L 100.194659 155.715775 
L 106.958295 155.715775 
L 113.721932 155.715775 
L 120.485568 159.72251 
L 127.249205 159.72251 
L 134.012841 159.72251 
L 140.776477 159.72251 
L 147.540114 159.72251 
L 154.30375 159.72251 
L 161.067386 159.72251 
L 167.831023 159.72251 
L 174.594659 163.360719 
L 181.358295 163.360719 
L 188.121932 163.360719 
L 194.885568 163.360719 
L 201.649205 163.360719 
L 208.412841 163.360719 
L 215.176477 163.360719 
L 221.940114 163.360719 
L 228.70375 163.360719 
L 235.467386 163.360719 
L 242.231023 163.360719 
L 248.994659 163.360719 
L 255.758295 163.360719 
L 262.521932 163.360719 
L 269.285568 163.360719 
L 276.049205 163.360719 
L 282.812841 163.360719 
L 289.576477 163.360719 
L 296.340114 163.360719 
L 303.10375 163.360719 
L 309.867386 163.360719 
L 316.631023 163.360719 
L 323.394659 163.360719 
L 330.158295 163.360719 
L 336.921932 163.360719 
L 343.685568 163.360719 
L 350.449205 163.360719 
L 357.212841 163.360719 
L 363.976477 163.360719 
L 370.740114 163.360719 
L 377.50375 163.360719 
L 384.267386 163.360719 
L 391.031023 163.360719 
" style="fill:none;stroke:#2f9599;stroke-dasharray:2,3.3;stroke-dashoffset:0;stroke-width:2;"/>
   </g>
   <g id="line2d_18">
    <path clip-path="url(#peda5944225)" d="M 66.376477 51.692533 
L 73.140114 51.692533 
L 79.90375 51.692533 
L 86.667386 51.692533 
L 93.431023 51.692533 
L 100.194659 63.841233 
L 106.958295 63.841233 
L 113.721932 63.841233 
L 120.485568 89.329681 
L 127.249205 89.329681 
L 134.012841 101.001962 
L 140.776477 84.166942 
L 147.540114 102.275301 
L 154.30375 107.88027 
L 161.067386 102.844953 
L 167.831023 113.288572 
L 174.594659 102.844953 
L 181.358295 102.844953 
L 188.121932 29.739619 
L 194.885568 19.296 
L 201.649205 19.296 
L 208.412841 26.138371 
L 215.176477 22.659199 
L 221.940114 52.927994 
L 228.70375 52.927994 
L 235.467386 58.981753 
L 242.231023 29.217438 
L 248.994659 35.560653 
L 255.758295 47.642966 
L 262.521932 47.642966 
L 269.285568 47.642966 
L 276.049205 47.642966 
L 282.812841 47.642966 
L 289.576477 261.216 
L 296.340114 261.216 
L 303.10375 261.216 
L 309.867386 261.216 
L 316.631023 261.216 
L 323.394659 261.216 
L 330.158295 261.216 
L 336.921932 261.216 
L 343.685568 261.216 
L 350.449205 261.216 
L 357.212841 261.216 
L 363.976477 261.216 
L 370.740114 261.216 
L 377.50375 261.216 
L 384.267386 261.216 
L 391.031023 261.216 
" style="fill:none;stroke:#a7226e;stroke-dasharray:12.8,3.2,2,3.2;stroke-dashoffset:0;stroke-width:2;"/>
   </g>
   <g id="patch_3">
    <path d="M 50.14375 273.312 
L 50.14375 7.2 
" style="fill:none;stroke:#000000;stroke-linecap:square;stroke-linejoin:miter;stroke-width:0.8;"/>
   </g>
   <g id="patch_4">
    <path d="M 407.26375 273.312 
L 407.26375 7.2 
" style="fill:none;stroke:#000000;stroke-linecap:square;stroke-linejoin:miter;stroke-width:0.8;"/>
   </g>
   <g id="patch_5">
    <path d="M 50.14375 273.312 
L 407.26375 273.312 
" style="fill:none;stroke:#000000;stroke-linecap:square;stroke-linejoin:miter;stroke-width:0.8;"/>
   </g>
   <g id="patch_6">
    <path d="M 50.14375 7.2 
L 407.26375 7.2 
" style="fill:none;stroke:#000000;stroke-linecap:square;stroke-linejoin:miter;stroke-width:0.8;"/>
   </g>
   <g id="legend_1">
    <g id="patch_7">
     <path d="M 321.790059 43.890912 
L 402.40575 43.890912 
Q 403.79375 43.890912 403.79375 42.502912 
L 403.79375 12.058 
Q 403.79375 10.67 402.40575 10.67 
L 321.790059 10.67 
Q 320.402059 10.67 320.402059 12.058 
L 320.402059 42.502912 
Q 320.402059 43.890912 321.790059 43.890912 
z
" style="fill:#ffffff;opacity:0.8;stroke:#cccccc;stroke-linejoin:miter;"/>
    </g>
    <g id="PathCollection_5">
     <defs>
      <path d="M 0 3 
C 0.795609 3 1.55874 2.683901 2.12132 2.12132 
C 2.683901 1.55874 3 0.795609 3 0 
C 3 -0.795609 2.683901 -1.55874 2.12132 -2.12132 
C 1.55874 -2.683901 0.795609 -3 0 -3 
C -0.795609 -3 -1.55874 -2.683901 -2.12132 -2.12132 
C -2.683901 -1.55874 -3 -0.795609 -3 0 
C -3 0.795609 -2.683901 1.55874 -2.12132 2.12132 
C -1.55874 2.683901 -0.795609 3 0 3 
z
" id="m75d7e3409c" style="stroke:#f26b38;"/>
     </defs>
     <g>
      <use style="fill:#f26b38;stroke:#f26b38;" x="330.118059" xlink:href="#m75d7e3409c" y="16.897566"/>
     </g>
    </g>
    <g id="text_18">
     <!-- mean_err -->
     <g transform="translate(342.610059 18.719316)scale(0.0694 -0.0694)">
      <defs>
       <path d="M 50.984375 -16.609375 
L 50.984375 -23.578125 
L -0.984375 -23.578125 
L -0.984375 -16.609375 
z
" id="DejaVuSans-95"/>
      </defs>
      <use xlink:href="#DejaVuSans-109"/>
      <use x="97.412109" xlink:href="#DejaVuSans-101"/>
      <use x="158.935547" xlink:href="#DejaVuSans-97"/>
      <use x="220.214844" xlink:href="#DejaVuSans-110"/>
      <use x="283.59375" xlink:href="#DejaVuSans-95"/>
      <use x="333.59375" xlink:href="#DejaVuSans-101"/>
      <use x="395.117188" xlink:href="#DejaVuSans-114"/>
      <use x="434.480469" xlink:href="#DejaVuSans-114"/>
     </g>
    </g>
    <g id="PathCollection_6">
     <defs>
      <path d="M -1.5 3 
L 0 1.5 
L 1.5 3 
L 3 1.5 
L 1.5 0 
L 3 -1.5 
L 1.5 -3 
L 0 -1.5 
L -1.5 -3 
L -3 -1.5 
L -1.5 0 
L -3 1.5 
z
" id="mc819ec1fd1" style="stroke:#2f9599;"/>
     </defs>
     <g>
      <use style="fill:#2f9599;stroke:#2f9599;" x="330.118059" xlink:href="#mc819ec1fd1" y="27.277203"/>
     </g>
    </g>
    <g id="text_19">
     <!-- mean_sq_err -->
     <g transform="translate(342.610059 29.098953)scale(0.0694 -0.0694)">
      <defs>
       <path d="M 44.28125 53.078125 
L 44.28125 44.578125 
Q 40.484375 46.53125 36.375 47.5 
Q 32.28125 48.484375 27.875 48.484375 
Q 21.1875 48.484375 17.84375 46.4375 
Q 14.5 44.390625 14.5 40.28125 
Q 14.5 37.15625 16.890625 35.375 
Q 19.28125 33.59375 26.515625 31.984375 
L 29.59375 31.296875 
Q 39.15625 29.25 43.1875 25.515625 
Q 47.21875 21.78125 47.21875 15.09375 
Q 47.21875 7.46875 41.1875 3.015625 
Q 35.15625 -1.421875 24.609375 -1.421875 
Q 20.21875 -1.421875 15.453125 -0.5625 
Q 10.6875 0.296875 5.421875 2 
L 5.421875 11.28125 
Q 10.40625 8.6875 15.234375 7.390625 
Q 20.0625 6.109375 24.8125 6.109375 
Q 31.15625 6.109375 34.5625 8.28125 
Q 37.984375 10.453125 37.984375 14.40625 
Q 37.984375 18.0625 35.515625 20.015625 
Q 33.0625 21.96875 24.703125 23.78125 
L 21.578125 24.515625 
Q 13.234375 26.265625 9.515625 29.90625 
Q 5.8125 33.546875 5.8125 39.890625 
Q 5.8125 47.609375 11.28125 51.796875 
Q 16.75 56 26.8125 56 
Q 31.78125 56 36.171875 55.265625 
Q 40.578125 54.546875 44.28125 53.078125 
z
" id="DejaVuSans-115"/>
       <path d="M 14.796875 27.296875 
Q 14.796875 17.390625 18.875 11.75 
Q 22.953125 6.109375 30.078125 6.109375 
Q 37.203125 6.109375 41.296875 11.75 
Q 45.40625 17.390625 45.40625 27.296875 
Q 45.40625 37.203125 41.296875 42.84375 
Q 37.203125 48.484375 30.078125 48.484375 
Q 22.953125 48.484375 18.875 42.84375 
Q 14.796875 37.203125 14.796875 27.296875 
z
M 45.40625 8.203125 
Q 42.578125 3.328125 38.25 0.953125 
Q 33.9375 -1.421875 27.875 -1.421875 
Q 17.96875 -1.421875 11.734375 6.484375 
Q 5.515625 14.40625 5.515625 27.296875 
Q 5.515625 40.1875 11.734375 48.09375 
Q 17.96875 56 27.875 56 
Q 33.9375 56 38.25 53.625 
Q 42.578125 51.265625 45.40625 46.390625 
L 45.40625 54.6875 
L 54.390625 54.6875 
L 54.390625 -20.796875 
L 45.40625 -20.796875 
z
" id="DejaVuSans-113"/>
      </defs>
      <use xlink:href="#DejaVuSans-109"/>
      <use x="97.412109" xlink:href="#DejaVuSans-101"/>
      <use x="158.935547" xlink:href="#DejaVuSans-97"/>
      <use x="220.214844" xlink:href="#DejaVuSans-110"/>
      <use x="283.59375" xlink:href="#DejaVuSans-95"/>
      <use x="333.59375" xlink:href="#DejaVuSans-115"/>
      <use x="385.693359" xlink:href="#DejaVuSans-113"/>
      <use x="449.169922" xlink:href="#DejaVuSans-95"/>
      <use x="499.169922" xlink:href="#DejaVuSans-101"/>
      <use x="560.693359" xlink:href="#DejaVuSans-114"/>
      <use x="600.056641" xlink:href="#DejaVuSans-114"/>
     </g>
    </g>
    <g id="PathCollection_7">
     <defs>
      <path d="M -2.12132 -2.12132 
L -2.12132 2.12132 
L 2.12132 2.12132 
L 2.12132 -2.12132 
z
" id="m466faeb290" style="stroke:#a7226e;"/>
     </defs>
     <g>
      <use style="fill:#a7226e;stroke:#a7226e;" x="330.118059" xlink:href="#m466faeb290" y="37.656841"/>
     </g>
    </g>
    <g id="text_20">
     <!-- mean_sqroot_err -->
     <g transform="translate(342.610059 39.478591)scale(0.0694 -0.0694)">
      <use xlink:href="#DejaVuSans-109"/>
      <use x="97.412109" xlink:href="#DejaVuSans-101"/>
      <use x="158.935547" xlink:href="#DejaVuSans-97"/>
      <use x="220.214844" xlink:href="#DejaVuSans-110"/>
      <use x="283.59375" xlink:href="#DejaVuSans-95"/>
      <use x="333.59375" xlink:href="#DejaVuSans-115"/>
      <use x="385.693359" xlink:href="#DejaVuSans-113"/>
      <use x="449.169922" xlink:href="#DejaVuSans-114"/>
      <use x="488.033203" xlink:href="#DejaVuSans-111"/>
      <use x="549.214844" xlink:href="#DejaVuSans-111"/>
      <use x="610.396484" xlink:href="#DejaVuSans-116"/>
      <use x="649.605469" xlink:href="#DejaVuSans-95"/>
      <use x="699.605469" xlink:href="#DejaVuSans-101"/>
      <use x="761.128906" xlink:href="#DejaVuSans-114"/>
      <use x="800.492188" xlink:href="#DejaVuSans-114"/>
     </g>
    </g>
   </g>
  </g>
 </g>
 <defs>
  <clipPath id="peda5944225">
   <rect height="266.112" width="357.12" x="50.14375" y="7.2"/>
  </clipPath>
 </defs>
</svg>
