<?xml version="1.0" encoding="utf-8" standalone="no"?>
<!DOCTYPE svg PUBLIC "-//W3C//DTD SVG 1.1//EN"
  "http://www.w3.org/Graphics/SVG/1.1/DTD/svg11.dtd">
<!-- Created with matplotlib (https://matplotlib.org/) -->
<svg height="310.86825pt" version="1.1" viewBox="0 0 414.46375 310.86825" width="414.46375pt" xmlns="http://www.w3.org/2000/svg" xmlns:xlink="http://www.w3.org/1999/xlink">
 <metadata>
  <rdf:RDF xmlns:cc="http://creativecommons.org/ns#" xmlns:dc="http://purl.org/dc/elements/1.1/" xmlns:rdf="http://www.w3.org/1999/02/22-rdf-syntax-ns#">
   <cc:Work>
    <dc:type rdf:resource="http://purl.org/dc/dcmitype/StillImage"/>
    <dc:date>2022-05-27T21:58:22.233185</dc:date>
    <dc:format>image/svg+xml</dc:format>
    <dc:creator>
     <cc:Agent>
      <dc:title>Matplotlib v3.3.4, https://matplotlib.org/</dc:title>
     </cc:Agent>
    </dc:creator>
   </cc:Work>
  </rdf:RDF>
 </metadata>
 <defs>
  <style type="text/css">*{stroke-linecap:butt;stroke-linejoin:round;}</style>
 </defs>
 <g id="figure_1">
  <g id="patch_1">
   <path d="M 0 310.86825 
L 414.46375 310.86825 
L 414.46375 0 
L 0 0 
z
" style="fill:#ffffff;"/>
  </g>
  <g id="axes_1">
   <g id="patch_2">
    <path d="M 50.14375 273.312 
L 407.26375 273.312 
L 407.26375 7.2 
L 50.14375 7.2 
z
" style="fill:#ffffff;"/>
   </g>
   <g id="PathCollection_1">
    <path clip-path="url(#pef6b83e280)" d="M 66.376477 260.524849 
C 67.172087 260.524849 67.935217 260.208751 68.497798 259.64617 
C 69.060378 259.083589 69.376477 258.320459 69.376477 257.524849 
C 69.376477 256.72924 69.060378 255.96611 68.497798 255.403529 
C 67.935217 254.840948 67.172087 254.524849 66.376477 254.524849 
C 65.580868 254.524849 64.817738 254.840948 64.255157 255.403529 
C 63.692576 255.96611 63.376477 256.72924 63.376477 257.524849 
C 63.376477 258.320459 63.692576 259.083589 64.255157 259.64617 
C 64.817738 260.208751 65.580868 260.524849 66.376477 260.524849 
z
" style="fill:#f26b38;stroke:#ffffff;stroke-width:0.48;"/>
    <path clip-path="url(#pef6b83e280)" d="M 73.140114 259.918085 
C 73.935723 259.918085 74.698853 259.601986 75.261434 259.039405 
C 75.824015 258.476825 76.140114 257.713694 76.140114 256.918085 
C 76.140114 256.122476 75.824015 255.359345 75.261434 254.796765 
C 74.698853 254.234184 73.935723 253.918085 73.140114 253.918085 
C 72.344504 253.918085 71.581374 254.234184 71.018793 254.796765 
C 70.456213 255.359345 70.140114 256.122476 70.140114 256.918085 
C 70.140114 257.713694 70.456213 258.476825 71.018793 259.039405 
C 71.581374 259.601986 72.344504 259.918085 73.140114 259.918085 
z
" style="fill:#f26b38;stroke:#ffffff;stroke-width:0.48;"/>
    <path clip-path="url(#pef6b83e280)" d="M 79.90375 249.91929 
C 80.699359 249.91929 81.46249 249.603191 82.02507 249.040611 
C 82.587651 248.47803 82.90375 247.7149 82.90375 246.91929 
C 82.90375 246.123681 82.587651 245.360551 82.02507 244.79797 
C 81.46249 244.235389 80.699359 243.91929 79.90375 243.91929 
C 79.108141 243.91929 78.34501 244.235389 77.78243 244.79797 
C 77.219849 245.360551 76.90375 246.123681 76.90375 246.91929 
C 76.90375 247.7149 77.219849 248.47803 77.78243 249.040611 
C 78.34501 249.603191 79.108141 249.91929 79.90375 249.91929 
z
" style="fill:#f26b38;stroke:#ffffff;stroke-width:0.48;"/>
    <path clip-path="url(#pef6b83e280)" d="M 86.667386 244.705633 
C 87.462996 244.705633 88.226126 244.389534 88.788707 243.826953 
C 89.351287 243.264373 89.667386 242.501242 89.667386 241.705633 
C 89.667386 240.910024 89.351287 240.146893 88.788707 239.584313 
C 88.226126 239.021732 87.462996 238.705633 86.667386 238.705633 
C 85.871777 238.705633 85.108647 239.021732 84.546066 239.584313 
C 83.983485 240.146893 83.667386 240.910024 83.667386 241.705633 
C 83.667386 242.501242 83.983485 243.264373 84.546066 243.826953 
C 85.108647 244.389534 85.871777 244.705633 86.667386 244.705633 
z
" style="fill:#f26b38;stroke:#ffffff;stroke-width:0.48;"/>
    <path clip-path="url(#pef6b83e280)" d="M 93.431023 210.002227 
C 94.226632 210.002227 94.989762 209.686128 95.552343 209.123547 
C 96.114924 208.560966 96.431023 207.797836 96.431023 207.002227 
C 96.431023 206.206618 96.114924 205.443487 95.552343 204.880906 
C 94.989762 204.318326 94.226632 204.002227 93.431023 204.002227 
C 92.635413 204.002227 91.872283 204.318326 91.309702 204.880906 
C 90.747122 205.443487 90.431023 206.206618 90.431023 207.002227 
C 90.431023 207.797836 90.747122 208.560966 91.309702 209.123547 
C 91.872283 209.686128 92.635413 210.002227 93.431023 210.002227 
z
" style="fill:#f26b38;stroke:#ffffff;stroke-width:0.48;"/>
    <path clip-path="url(#pef6b83e280)" d="M 100.194659 203.57567 
C 100.990268 203.57567 101.753399 203.259571 102.315979 202.69699 
C 102.87856 202.13441 103.194659 201.371279 103.194659 200.57567 
C 103.194659 199.780061 102.87856 199.01693 102.315979 198.45435 
C 101.753399 197.891769 100.990268 197.57567 100.194659 197.57567 
C 99.39905 197.57567 98.635919 197.891769 98.073339 198.45435 
C 97.510758 199.01693 97.194659 199.780061 97.194659 200.57567 
C 97.194659 201.371279 97.510758 202.13441 98.073339 202.69699 
C 98.635919 203.259571 99.39905 203.57567 100.194659 203.57567 
z
" style="fill:#f26b38;stroke:#ffffff;stroke-width:0.48;"/>
    <path clip-path="url(#pef6b83e280)" d="M 106.958295 203.57567 
C 107.753905 203.57567 108.517035 203.259571 109.079616 202.69699 
C 109.642197 202.13441 109.958295 201.371279 109.958295 200.57567 
C 109.958295 199.780061 109.642197 199.01693 109.079616 198.45435 
C 108.517035 197.891769 107.753905 197.57567 106.958295 197.57567 
C 106.162686 197.57567 105.399556 197.891769 104.836975 198.45435 
C 104.274394 199.01693 103.958295 199.780061 103.958295 200.57567 
C 103.958295 201.371279 104.274394 202.13441 104.836975 202.69699 
C 105.399556 203.259571 106.162686 203.57567 106.958295 203.57567 
z
" style="fill:#f26b38;stroke:#ffffff;stroke-width:0.48;"/>
    <path clip-path="url(#pef6b83e280)" d="M 113.721932 193.029526 
C 114.517541 193.029526 115.280671 192.713427 115.843252 192.150846 
C 116.405833 191.588265 116.721932 190.825135 116.721932 190.029526 
C 116.721932 189.233916 116.405833 188.470786 115.843252 187.908205 
C 115.280671 187.345625 114.517541 187.029526 113.721932 187.029526 
C 112.926323 187.029526 112.163192 187.345625 111.600611 187.908205 
C 111.038031 188.470786 110.721932 189.233916 110.721932 190.029526 
C 110.721932 190.825135 111.038031 191.588265 111.600611 192.150846 
C 112.163192 192.713427 112.926323 193.029526 113.721932 193.029526 
z
" style="fill:#f26b38;stroke:#ffffff;stroke-width:0.48;"/>
    <path clip-path="url(#pef6b83e280)" d="M 120.485568 156.663511 
C 121.281177 156.663511 122.044308 156.347412 122.606889 155.784831 
C 123.169469 155.22225 123.485568 154.45912 123.485568 153.663511 
C 123.485568 152.867902 123.169469 152.104771 122.606889 151.54219 
C 122.044308 150.97961 121.281177 150.663511 120.485568 150.663511 
C 119.689959 150.663511 118.926829 150.97961 118.364248 151.54219 
C 117.801667 152.104771 117.485568 152.867902 117.485568 153.663511 
C 117.485568 154.45912 117.801667 155.22225 118.364248 155.784831 
C 118.926829 156.347412 119.689959 156.663511 120.485568 156.663511 
z
" style="fill:#f26b38;stroke:#ffffff;stroke-width:0.48;"/>
    <path clip-path="url(#pef6b83e280)" d="M 127.249205 211.485278 
C 128.044814 211.485278 128.807944 211.169179 129.370525 210.606599 
C 129.933106 210.044018 130.249205 209.280888 130.249205 208.485278 
C 130.249205 207.689669 129.933106 206.926539 129.370525 206.363958 
C 128.807944 205.801377 128.044814 205.485278 127.249205 205.485278 
C 126.453595 205.485278 125.690465 205.801377 125.127884 206.363958 
C 124.565303 206.926539 124.249205 207.689669 124.249205 208.485278 
C 124.249205 209.280888 124.565303 210.044018 125.127884 210.606599 
C 125.690465 211.169179 126.453595 211.485278 127.249205 211.485278 
z
" style="fill:#f26b38;stroke:#ffffff;stroke-width:0.48;"/>
    <path clip-path="url(#pef6b83e280)" d="M 134.012841 204.150914 
C 134.80845 204.150914 135.571581 203.834815 136.134161 203.272235 
C 136.696742 202.709654 137.012841 201.946524 137.012841 201.150914 
C 137.012841 200.355305 136.696742 199.592175 136.134161 199.029594 
C 135.571581 198.467013 134.80845 198.150914 134.012841 198.150914 
C 133.217232 198.150914 132.454101 198.467013 131.891521 199.029594 
C 131.32894 199.592175 131.012841 200.355305 131.012841 201.150914 
C 131.012841 201.946524 131.32894 202.709654 131.891521 203.272235 
C 132.454101 203.834815 133.217232 204.150914 134.012841 204.150914 
z
" style="fill:#f26b38;stroke:#ffffff;stroke-width:0.48;"/>
    <path clip-path="url(#pef6b83e280)" d="M 140.776477 208.848742 
C 141.572087 208.848742 142.335217 208.532643 142.897798 207.970063 
C 143.460378 207.407482 143.776477 206.644352 143.776477 205.848742 
C 143.776477 205.053133 143.460378 204.290003 142.897798 203.727422 
C 142.335217 203.164841 141.572087 202.848742 140.776477 202.848742 
C 139.980868 202.848742 139.217738 203.164841 138.655157 203.727422 
C 138.092576 204.290003 137.776477 205.053133 137.776477 205.848742 
C 137.776477 206.644352 138.092576 207.407482 138.655157 207.970063 
C 139.217738 208.532643 139.980868 208.848742 140.776477 208.848742 
z
" style="fill:#f26b38;stroke:#ffffff;stroke-width:0.48;"/>
    <path clip-path="url(#pef6b83e280)" d="M 147.540114 208.848742 
C 148.335723 208.848742 149.098853 208.532643 149.661434 207.970063 
C 150.224015 207.407482 150.540114 206.644352 150.540114 205.848742 
C 150.540114 205.053133 150.224015 204.290003 149.661434 203.727422 
C 149.098853 203.164841 148.335723 202.848742 147.540114 202.848742 
C 146.744504 202.848742 145.981374 203.164841 145.418793 203.727422 
C 144.856213 204.290003 144.540114 205.053133 144.540114 205.848742 
C 144.540114 206.644352 144.856213 207.407482 145.418793 207.970063 
C 145.981374 208.532643 146.744504 208.848742 147.540114 208.848742 
z
" style="fill:#f26b38;stroke:#ffffff;stroke-width:0.48;"/>
    <path clip-path="url(#pef6b83e280)" d="M 154.30375 176.366618 
C 155.099359 176.366618 155.86249 176.050519 156.42507 175.487938 
C 156.987651 174.925357 157.30375 174.162227 157.30375 173.366618 
C 157.30375 172.571008 156.987651 171.807878 156.42507 171.245297 
C 155.86249 170.682717 155.099359 170.366618 154.30375 170.366618 
C 153.508141 170.366618 152.74501 170.682717 152.18243 171.245297 
C 151.619849 171.807878 151.30375 172.571008 151.30375 173.366618 
C 151.30375 174.162227 151.619849 174.925357 152.18243 175.487938 
C 152.74501 176.050519 153.508141 176.366618 154.30375 176.366618 
z
" style="fill:#f26b38;stroke:#ffffff;stroke-width:0.48;"/>
    <path clip-path="url(#pef6b83e280)" d="M 161.067386 199.620866 
C 161.862996 199.620866 162.626126 199.304767 163.188707 198.742186 
C 163.751287 198.179606 164.067386 197.416475 164.067386 196.620866 
C 164.067386 195.825257 163.751287 195.062126 163.188707 194.499546 
C 162.626126 193.936965 161.862996 193.620866 161.067386 193.620866 
C 160.271777 193.620866 159.508647 193.936965 158.946066 194.499546 
C 158.383485 195.062126 158.067386 195.825257 158.067386 196.620866 
C 158.067386 197.416475 158.383485 198.179606 158.946066 198.742186 
C 159.508647 199.304767 160.271777 199.620866 161.067386 199.620866 
z
" style="fill:#f26b38;stroke:#ffffff;stroke-width:0.48;"/>
    <path clip-path="url(#pef6b83e280)" d="M 167.831023 199.620866 
C 168.626632 199.620866 169.389762 199.304767 169.952343 198.742186 
C 170.514924 198.179606 170.831023 197.416475 170.831023 196.620866 
C 170.831023 195.825257 170.514924 195.062126 169.952343 194.499546 
C 169.389762 193.936965 168.626632 193.620866 167.831023 193.620866 
C 167.035413 193.620866 166.272283 193.936965 165.709702 194.499546 
C 165.147122 195.062126 164.831023 195.825257 164.831023 196.620866 
C 164.831023 197.416475 165.147122 198.179606 165.709702 198.742186 
C 166.272283 199.304767 167.035413 199.620866 167.831023 199.620866 
z
" style="fill:#f26b38;stroke:#ffffff;stroke-width:0.48;"/>
    <path clip-path="url(#pef6b83e280)" d="M 174.594659 199.620866 
C 175.390268 199.620866 176.153399 199.304767 176.715979 198.742186 
C 177.27856 198.179606 177.594659 197.416475 177.594659 196.620866 
C 177.594659 195.825257 177.27856 195.062126 176.715979 194.499546 
C 176.153399 193.936965 175.390268 193.620866 174.594659 193.620866 
C 173.79905 193.620866 173.035919 193.936965 172.473339 194.499546 
C 171.910758 195.062126 171.594659 195.825257 171.594659 196.620866 
C 171.594659 197.416475 171.910758 198.179606 172.473339 198.742186 
C 173.035919 199.304767 173.79905 199.620866 174.594659 199.620866 
z
" style="fill:#f26b38;stroke:#ffffff;stroke-width:0.48;"/>
    <path clip-path="url(#pef6b83e280)" d="M 181.358295 190.785665 
C 182.153905 190.785665 182.917035 190.469566 183.479616 189.906986 
C 184.042197 189.344405 184.358295 188.581275 184.358295 187.785665 
C 184.358295 186.990056 184.042197 186.226926 183.479616 185.664345 
C 182.917035 185.101764 182.153905 184.785665 181.358295 184.785665 
C 180.562686 184.785665 179.799556 185.101764 179.236975 185.664345 
C 178.674394 186.226926 178.358295 186.990056 178.358295 187.785665 
C 178.358295 188.581275 178.674394 189.344405 179.236975 189.906986 
C 179.799556 190.469566 180.562686 190.785665 181.358295 190.785665 
z
" style="fill:#f26b38;stroke:#ffffff;stroke-width:0.48;"/>
    <path clip-path="url(#pef6b83e280)" d="M 188.121932 171.937237 
C 188.917541 171.937237 189.680671 171.621138 190.243252 171.058557 
C 190.805833 170.495977 191.121932 169.732846 191.121932 168.937237 
C 191.121932 168.141628 190.805833 167.378498 190.243252 166.815917 
C 189.680671 166.253336 188.917541 165.937237 188.121932 165.937237 
C 187.326323 165.937237 186.563192 166.253336 186.000611 166.815917 
C 185.438031 167.378498 185.121932 168.141628 185.121932 168.937237 
C 185.121932 169.732846 185.438031 170.495977 186.000611 171.058557 
C 186.563192 171.621138 187.326323 171.937237 188.121932 171.937237 
z
" style="fill:#f26b38;stroke:#ffffff;stroke-width:0.48;"/>
    <path clip-path="url(#pef6b83e280)" d="M 194.885568 171.937237 
C 195.681177 171.937237 196.444308 171.621138 197.006889 171.058557 
C 197.569469 170.495977 197.885568 169.732846 197.885568 168.937237 
C 197.885568 168.141628 197.569469 167.378498 197.006889 166.815917 
C 196.444308 166.253336 195.681177 165.937237 194.885568 165.937237 
C 194.089959 165.937237 193.326829 166.253336 192.764248 166.815917 
C 192.201667 167.378498 191.885568 168.141628 191.885568 168.937237 
C 191.885568 169.732846 192.201667 170.495977 192.764248 171.058557 
C 193.326829 171.621138 194.089959 171.937237 194.885568 171.937237 
z
" style="fill:#f26b38;stroke:#ffffff;stroke-width:0.48;"/>
    <path clip-path="url(#pef6b83e280)" d="M 201.649205 116.569979 
C 202.444814 116.569979 203.207944 116.25388 203.770525 115.6913 
C 204.333106 115.128719 204.649205 114.365589 204.649205 113.569979 
C 204.649205 112.77437 204.333106 112.01124 203.770525 111.448659 
C 203.207944 110.886078 202.444814 110.569979 201.649205 110.569979 
C 200.853595 110.569979 200.090465 110.886078 199.527884 111.448659 
C 198.965303 112.01124 198.649205 112.77437 198.649205 113.569979 
C 198.649205 114.365589 198.965303 115.128719 199.527884 115.6913 
C 200.090465 116.25388 200.853595 116.569979 201.649205 116.569979 
z
" style="fill:#f26b38;stroke:#ffffff;stroke-width:0.48;"/>
    <path clip-path="url(#pef6b83e280)" d="M 208.412841 116.569979 
C 209.20845 116.569979 209.971581 116.25388 210.534161 115.6913 
C 211.096742 115.128719 211.412841 114.365589 211.412841 113.569979 
C 211.412841 112.77437 211.096742 112.01124 210.534161 111.448659 
C 209.971581 110.886078 209.20845 110.569979 208.412841 110.569979 
C 207.617232 110.569979 206.854101 110.886078 206.291521 111.448659 
C 205.72894 112.01124 205.412841 112.77437 205.412841 113.569979 
C 205.412841 114.365589 205.72894 115.128719 206.291521 115.6913 
C 206.854101 116.25388 207.617232 116.569979 208.412841 116.569979 
z
" style="fill:#f26b38;stroke:#ffffff;stroke-width:0.48;"/>
    <path clip-path="url(#pef6b83e280)" d="M 215.176477 116.569979 
C 215.972087 116.569979 216.735217 116.25388 217.297798 115.6913 
C 217.860378 115.128719 218.176477 114.365589 218.176477 113.569979 
C 218.176477 112.77437 217.860378 112.01124 217.297798 111.448659 
C 216.735217 110.886078 215.972087 110.569979 215.176477 110.569979 
C 214.380868 110.569979 213.617738 110.886078 213.055157 111.448659 
C 212.492576 112.01124 212.176477 112.77437 212.176477 113.569979 
C 212.176477 114.365589 212.492576 115.128719 213.055157 115.6913 
C 213.617738 116.25388 214.380868 116.569979 215.176477 116.569979 
z
" style="fill:#f26b38;stroke:#ffffff;stroke-width:0.48;"/>
    <path clip-path="url(#pef6b83e280)" d="M 221.940114 116.569979 
C 222.735723 116.569979 223.498853 116.25388 224.061434 115.6913 
C 224.624015 115.128719 224.940114 114.365589 224.940114 113.569979 
C 224.940114 112.77437 224.624015 112.01124 224.061434 111.448659 
C 223.498853 110.886078 222.735723 110.569979 221.940114 110.569979 
C 221.144504 110.569979 220.381374 110.886078 219.818793 111.448659 
C 219.256213 112.01124 218.940114 112.77437 218.940114 113.569979 
C 218.940114 114.365589 219.256213 115.128719 219.818793 115.6913 
C 220.381374 116.25388 221.144504 116.569979 221.940114 116.569979 
z
" style="fill:#f26b38;stroke:#ffffff;stroke-width:0.48;"/>
    <path clip-path="url(#pef6b83e280)" d="M 228.70375 103.79292 
C 229.499359 103.79292 230.26249 103.476821 230.82507 102.91424 
C 231.387651 102.35166 231.70375 101.588529 231.70375 100.79292 
C 231.70375 99.997311 231.387651 99.23418 230.82507 98.6716 
C 230.26249 98.109019 229.499359 97.79292 228.70375 97.79292 
C 227.908141 97.79292 227.14501 98.109019 226.58243 98.6716 
C 226.019849 99.23418 225.70375 99.997311 225.70375 100.79292 
C 225.70375 101.588529 226.019849 102.35166 226.58243 102.91424 
C 227.14501 103.476821 227.908141 103.79292 228.70375 103.79292 
z
" style="fill:#f26b38;stroke:#ffffff;stroke-width:0.48;"/>
    <path clip-path="url(#pef6b83e280)" d="M 235.467386 22.296 
C 236.262996 22.296 237.026126 21.979901 237.588707 21.41732 
C 238.151287 20.85474 238.467386 20.091609 238.467386 19.296 
C 238.467386 18.500391 238.151287 17.73726 237.588707 17.17468 
C 237.026126 16.612099 236.262996 16.296 235.467386 16.296 
C 234.671777 16.296 233.908647 16.612099 233.346066 17.17468 
C 232.783485 17.73726 232.467386 18.500391 232.467386 19.296 
C 232.467386 20.091609 232.783485 20.85474 233.346066 21.41732 
C 233.908647 21.979901 234.671777 22.296 235.467386 22.296 
z
" style="fill:#f26b38;stroke:#ffffff;stroke-width:0.48;"/>
    <path clip-path="url(#pef6b83e280)" d="M 242.231023 22.296 
C 243.026632 22.296 243.789762 21.979901 244.352343 21.41732 
C 244.914924 20.85474 245.231023 20.091609 245.231023 19.296 
C 245.231023 18.500391 244.914924 17.73726 244.352343 17.17468 
C 243.789762 16.612099 243.026632 16.296 242.231023 16.296 
C 241.435413 16.296 240.672283 16.612099 240.109702 17.17468 
C 239.547122 17.73726 239.231023 18.500391 239.231023 19.296 
C 239.231023 20.091609 239.547122 20.85474 240.109702 21.41732 
C 240.672283 21.979901 241.435413 22.296 242.231023 22.296 
z
" style="fill:#f26b38;stroke:#ffffff;stroke-width:0.48;"/>
    <path clip-path="url(#pef6b83e280)" d="M 248.994659 22.296 
C 249.790268 22.296 250.553399 21.979901 251.115979 21.41732 
C 251.67856 20.85474 251.994659 20.091609 251.994659 19.296 
C 251.994659 18.500391 251.67856 17.73726 251.115979 17.17468 
C 250.553399 16.612099 249.790268 16.296 248.994659 16.296 
C 248.19905 16.296 247.435919 16.612099 246.873339 17.17468 
C 246.310758 17.73726 245.994659 18.500391 245.994659 19.296 
C 245.994659 20.091609 246.310758 20.85474 246.873339 21.41732 
C 247.435919 21.979901 248.19905 22.296 248.994659 22.296 
z
" style="fill:#f26b38;stroke:#ffffff;stroke-width:0.48;"/>
    <path clip-path="url(#pef6b83e280)" d="M 255.758295 22.296 
C 256.553905 22.296 257.317035 21.979901 257.879616 21.41732 
C 258.442197 20.85474 258.758295 20.091609 258.758295 19.296 
C 258.758295 18.500391 258.442197 17.73726 257.879616 17.17468 
C 257.317035 16.612099 256.553905 16.296 255.758295 16.296 
C 254.962686 16.296 254.199556 16.612099 253.636975 17.17468 
C 253.074394 17.73726 252.758295 18.500391 252.758295 19.296 
C 252.758295 20.091609 253.074394 20.85474 253.636975 21.41732 
C 254.199556 21.979901 254.962686 22.296 255.758295 22.296 
z
" style="fill:#f26b38;stroke:#ffffff;stroke-width:0.48;"/>
    <path clip-path="url(#pef6b83e280)" d="M 262.521932 22.296 
C 263.317541 22.296 264.080671 21.979901 264.643252 21.41732 
C 265.205833 20.85474 265.521932 20.091609 265.521932 19.296 
C 265.521932 18.500391 265.205833 17.73726 264.643252 17.17468 
C 264.080671 16.612099 263.317541 16.296 262.521932 16.296 
C 261.726323 16.296 260.963192 16.612099 260.400611 17.17468 
C 259.838031 17.73726 259.521932 18.500391 259.521932 19.296 
C 259.521932 20.091609 259.838031 20.85474 260.400611 21.41732 
C 260.963192 21.979901 261.726323 22.296 262.521932 22.296 
z
" style="fill:#f26b38;stroke:#ffffff;stroke-width:0.48;"/>
    <path clip-path="url(#pef6b83e280)" d="M 269.285568 22.296 
C 270.081177 22.296 270.844308 21.979901 271.406889 21.41732 
C 271.969469 20.85474 272.285568 20.091609 272.285568 19.296 
C 272.285568 18.500391 271.969469 17.73726 271.406889 17.17468 
C 270.844308 16.612099 270.081177 16.296 269.285568 16.296 
C 268.489959 16.296 267.726829 16.612099 267.164248 17.17468 
C 266.601667 17.73726 266.285568 18.500391 266.285568 19.296 
C 266.285568 20.091609 266.601667 20.85474 267.164248 21.41732 
C 267.726829 21.979901 268.489959 22.296 269.285568 22.296 
z
" style="fill:#f26b38;stroke:#ffffff;stroke-width:0.48;"/>
    <path clip-path="url(#pef6b83e280)" d="M 276.049205 22.296 
C 276.844814 22.296 277.607944 21.979901 278.170525 21.41732 
C 278.733106 20.85474 279.049205 20.091609 279.049205 19.296 
C 279.049205 18.500391 278.733106 17.73726 278.170525 17.17468 
C 277.607944 16.612099 276.844814 16.296 276.049205 16.296 
C 275.253595 16.296 274.490465 16.612099 273.927884 17.17468 
C 273.365303 17.73726 273.049205 18.500391 273.049205 19.296 
C 273.049205 20.091609 273.365303 20.85474 273.927884 21.41732 
C 274.490465 21.979901 275.253595 22.296 276.049205 22.296 
z
" style="fill:#f26b38;stroke:#ffffff;stroke-width:0.48;"/>
    <path clip-path="url(#pef6b83e280)" d="M 282.812841 22.296 
C 283.60845 22.296 284.371581 21.979901 284.934161 21.41732 
C 285.496742 20.85474 285.812841 20.091609 285.812841 19.296 
C 285.812841 18.500391 285.496742 17.73726 284.934161 17.17468 
C 284.371581 16.612099 283.60845 16.296 282.812841 16.296 
C 282.017232 16.296 281.254101 16.612099 280.691521 17.17468 
C 280.12894 17.73726 279.812841 18.500391 279.812841 19.296 
C 279.812841 20.091609 280.12894 20.85474 280.691521 21.41732 
C 281.254101 21.979901 282.017232 22.296 282.812841 22.296 
z
" style="fill:#f26b38;stroke:#ffffff;stroke-width:0.48;"/>
    <path clip-path="url(#pef6b83e280)" d="M 289.576477 22.296 
C 290.372087 22.296 291.135217 21.979901 291.697798 21.41732 
C 292.260378 20.85474 292.576477 20.091609 292.576477 19.296 
C 292.576477 18.500391 292.260378 17.73726 291.697798 17.17468 
C 291.135217 16.612099 290.372087 16.296 289.576477 16.296 
C 288.780868 16.296 288.017738 16.612099 287.455157 17.17468 
C 286.892576 17.73726 286.576477 18.500391 286.576477 19.296 
C 286.576477 20.091609 286.892576 20.85474 287.455157 21.41732 
C 288.017738 21.979901 288.780868 22.296 289.576477 22.296 
z
" style="fill:#f26b38;stroke:#ffffff;stroke-width:0.48;"/>
    <path clip-path="url(#pef6b83e280)" d="M 296.340114 22.296 
C 297.135723 22.296 297.898853 21.979901 298.461434 21.41732 
C 299.024015 20.85474 299.340114 20.091609 299.340114 19.296 
C 299.340114 18.500391 299.024015 17.73726 298.461434 17.17468 
C 297.898853 16.612099 297.135723 16.296 296.340114 16.296 
C 295.544504 16.296 294.781374 16.612099 294.218793 17.17468 
C 293.656213 17.73726 293.340114 18.500391 293.340114 19.296 
C 293.340114 20.091609 293.656213 20.85474 294.218793 21.41732 
C 294.781374 21.979901 295.544504 22.296 296.340114 22.296 
z
" style="fill:#f26b38;stroke:#ffffff;stroke-width:0.48;"/>
    <path clip-path="url(#pef6b83e280)" d="M 303.10375 22.296 
C 303.899359 22.296 304.66249 21.979901 305.22507 21.41732 
C 305.787651 20.85474 306.10375 20.091609 306.10375 19.296 
C 306.10375 18.500391 305.787651 17.73726 305.22507 17.17468 
C 304.66249 16.612099 303.899359 16.296 303.10375 16.296 
C 302.308141 16.296 301.54501 16.612099 300.98243 17.17468 
C 300.419849 17.73726 300.10375 18.500391 300.10375 19.296 
C 300.10375 20.091609 300.419849 20.85474 300.98243 21.41732 
C 301.54501 21.979901 302.308141 22.296 303.10375 22.296 
z
" style="fill:#f26b38;stroke:#ffffff;stroke-width:0.48;"/>
    <path clip-path="url(#pef6b83e280)" d="M 309.867386 22.296 
C 310.662996 22.296 311.426126 21.979901 311.988707 21.41732 
C 312.551287 20.85474 312.867386 20.091609 312.867386 19.296 
C 312.867386 18.500391 312.551287 17.73726 311.988707 17.17468 
C 311.426126 16.612099 310.662996 16.296 309.867386 16.296 
C 309.071777 16.296 308.308647 16.612099 307.746066 17.17468 
C 307.183485 17.73726 306.867386 18.500391 306.867386 19.296 
C 306.867386 20.091609 307.183485 20.85474 307.746066 21.41732 
C 308.308647 21.979901 309.071777 22.296 309.867386 22.296 
z
" style="fill:#f26b38;stroke:#ffffff;stroke-width:0.48;"/>
    <path clip-path="url(#pef6b83e280)" d="M 316.631023 22.296 
C 317.426632 22.296 318.189762 21.979901 318.752343 21.41732 
C 319.314924 20.85474 319.631023 20.091609 319.631023 19.296 
C 319.631023 18.500391 319.314924 17.73726 318.752343 17.17468 
C 318.189762 16.612099 317.426632 16.296 316.631023 16.296 
C 315.835413 16.296 315.072283 16.612099 314.509702 17.17468 
C 313.947122 17.73726 313.631023 18.500391 313.631023 19.296 
C 313.631023 20.091609 313.947122 20.85474 314.509702 21.41732 
C 315.072283 21.979901 315.835413 22.296 316.631023 22.296 
z
" style="fill:#f26b38;stroke:#ffffff;stroke-width:0.48;"/>
    <path clip-path="url(#pef6b83e280)" d="M 323.394659 22.296 
C 324.190268 22.296 324.953399 21.979901 325.515979 21.41732 
C 326.07856 20.85474 326.394659 20.091609 326.394659 19.296 
C 326.394659 18.500391 326.07856 17.73726 325.515979 17.17468 
C 324.953399 16.612099 324.190268 16.296 323.394659 16.296 
C 322.59905 16.296 321.835919 16.612099 321.273339 17.17468 
C 320.710758 17.73726 320.394659 18.500391 320.394659 19.296 
C 320.394659 20.091609 320.710758 20.85474 321.273339 21.41732 
C 321.835919 21.979901 322.59905 22.296 323.394659 22.296 
z
" style="fill:#f26b38;stroke:#ffffff;stroke-width:0.48;"/>
    <path clip-path="url(#pef6b83e280)" d="M 330.158295 22.296 
C 330.953905 22.296 331.717035 21.979901 332.279616 21.41732 
C 332.842197 20.85474 333.158295 20.091609 333.158295 19.296 
C 333.158295 18.500391 332.842197 17.73726 332.279616 17.17468 
C 331.717035 16.612099 330.953905 16.296 330.158295 16.296 
C 329.362686 16.296 328.599556 16.612099 328.036975 17.17468 
C 327.474394 17.73726 327.158295 18.500391 327.158295 19.296 
C 327.158295 20.091609 327.474394 20.85474 328.036975 21.41732 
C 328.599556 21.979901 329.362686 22.296 330.158295 22.296 
z
" style="fill:#f26b38;stroke:#ffffff;stroke-width:0.48;"/>
    <path clip-path="url(#pef6b83e280)" d="M 336.921932 22.296 
C 337.717541 22.296 338.480671 21.979901 339.043252 21.41732 
C 339.605833 20.85474 339.921932 20.091609 339.921932 19.296 
C 339.921932 18.500391 339.605833 17.73726 339.043252 17.17468 
C 338.480671 16.612099 337.717541 16.296 336.921932 16.296 
C 336.126323 16.296 335.363192 16.612099 334.800611 17.17468 
C 334.238031 17.73726 333.921932 18.500391 333.921932 19.296 
C 333.921932 20.091609 334.238031 20.85474 334.800611 21.41732 
C 335.363192 21.979901 336.126323 22.296 336.921932 22.296 
z
" style="fill:#f26b38;stroke:#ffffff;stroke-width:0.48;"/>
    <path clip-path="url(#pef6b83e280)" d="M 343.685568 22.296 
C 344.481177 22.296 345.244308 21.979901 345.806889 21.41732 
C 346.369469 20.85474 346.685568 20.091609 346.685568 19.296 
C 346.685568 18.500391 346.369469 17.73726 345.806889 17.17468 
C 345.244308 16.612099 344.481177 16.296 343.685568 16.296 
C 342.889959 16.296 342.126829 16.612099 341.564248 17.17468 
C 341.001667 17.73726 340.685568 18.500391 340.685568 19.296 
C 340.685568 20.091609 341.001667 20.85474 341.564248 21.41732 
C 342.126829 21.979901 342.889959 22.296 343.685568 22.296 
z
" style="fill:#f26b38;stroke:#ffffff;stroke-width:0.48;"/>
    <path clip-path="url(#pef6b83e280)" d="M 350.449205 22.296 
C 351.244814 22.296 352.007944 21.979901 352.570525 21.41732 
C 353.133106 20.85474 353.449205 20.091609 353.449205 19.296 
C 353.449205 18.500391 353.133106 17.73726 352.570525 17.17468 
C 352.007944 16.612099 351.244814 16.296 350.449205 16.296 
C 349.653595 16.296 348.890465 16.612099 348.327884 17.17468 
C 347.765303 17.73726 347.449205 18.500391 347.449205 19.296 
C 347.449205 20.091609 347.765303 20.85474 348.327884 21.41732 
C 348.890465 21.979901 349.653595 22.296 350.449205 22.296 
z
" style="fill:#f26b38;stroke:#ffffff;stroke-width:0.48;"/>
    <path clip-path="url(#pef6b83e280)" d="M 357.212841 22.296 
C 358.00845 22.296 358.771581 21.979901 359.334161 21.41732 
C 359.896742 20.85474 360.212841 20.091609 360.212841 19.296 
C 360.212841 18.500391 359.896742 17.73726 359.334161 17.17468 
C 358.771581 16.612099 358.00845 16.296 357.212841 16.296 
C 356.417232 16.296 355.654101 16.612099 355.091521 17.17468 
C 354.52894 17.73726 354.212841 18.500391 354.212841 19.296 
C 354.212841 20.091609 354.52894 20.85474 355.091521 21.41732 
C 355.654101 21.979901 356.417232 22.296 357.212841 22.296 
z
" style="fill:#f26b38;stroke:#ffffff;stroke-width:0.48;"/>
    <path clip-path="url(#pef6b83e280)" d="M 363.976477 22.296 
C 364.772087 22.296 365.535217 21.979901 366.097798 21.41732 
C 366.660378 20.85474 366.976477 20.091609 366.976477 19.296 
C 366.976477 18.500391 366.660378 17.73726 366.097798 17.17468 
C 365.535217 16.612099 364.772087 16.296 363.976477 16.296 
C 363.180868 16.296 362.417738 16.612099 361.855157 17.17468 
C 361.292576 17.73726 360.976477 18.500391 360.976477 19.296 
C 360.976477 20.091609 361.292576 20.85474 361.855157 21.41732 
C 362.417738 21.979901 363.180868 22.296 363.976477 22.296 
z
" style="fill:#f26b38;stroke:#ffffff;stroke-width:0.48;"/>
    <path clip-path="url(#pef6b83e280)" d="M 370.740114 22.296 
C 371.535723 22.296 372.298853 21.979901 372.861434 21.41732 
C 373.424015 20.85474 373.740114 20.091609 373.740114 19.296 
C 373.740114 18.500391 373.424015 17.73726 372.861434 17.17468 
C 372.298853 16.612099 371.535723 16.296 370.740114 16.296 
C 369.944504 16.296 369.181374 16.612099 368.618793 17.17468 
C 368.056213 17.73726 367.740114 18.500391 367.740114 19.296 
C 367.740114 20.091609 368.056213 20.85474 368.618793 21.41732 
C 369.181374 21.979901 369.944504 22.296 370.740114 22.296 
z
" style="fill:#f26b38;stroke:#ffffff;stroke-width:0.48;"/>
    <path clip-path="url(#pef6b83e280)" d="M 377.50375 22.296 
C 378.299359 22.296 379.06249 21.979901 379.62507 21.41732 
C 380.187651 20.85474 380.50375 20.091609 380.50375 19.296 
C 380.50375 18.500391 380.187651 17.73726 379.62507 17.17468 
C 379.06249 16.612099 378.299359 16.296 377.50375 16.296 
C 376.708141 16.296 375.94501 16.612099 375.38243 17.17468 
C 374.819849 17.73726 374.50375 18.500391 374.50375 19.296 
C 374.50375 20.091609 374.819849 20.85474 375.38243 21.41732 
C 375.94501 21.979901 376.708141 22.296 377.50375 22.296 
z
" style="fill:#f26b38;stroke:#ffffff;stroke-width:0.48;"/>
    <path clip-path="url(#pef6b83e280)" d="M 384.267386 22.296 
C 385.062996 22.296 385.826126 21.979901 386.388707 21.41732 
C 386.951287 20.85474 387.267386 20.091609 387.267386 19.296 
C 387.267386 18.500391 386.951287 17.73726 386.388707 17.17468 
C 385.826126 16.612099 385.062996 16.296 384.267386 16.296 
C 383.471777 16.296 382.708647 16.612099 382.146066 17.17468 
C 381.583485 17.73726 381.267386 18.500391 381.267386 19.296 
C 381.267386 20.091609 381.583485 20.85474 382.146066 21.41732 
C 382.708647 21.979901 383.471777 22.296 384.267386 22.296 
z
" style="fill:#f26b38;stroke:#ffffff;stroke-width:0.48;"/>
    <path clip-path="url(#pef6b83e280)" d="M 391.031023 22.296 
C 391.826632 22.296 392.589762 21.979901 393.152343 21.41732 
C 393.714924 20.85474 394.031023 20.091609 394.031023 19.296 
C 394.031023 18.500391 393.714924 17.73726 393.152343 17.17468 
C 392.589762 16.612099 391.826632 16.296 391.031023 16.296 
C 390.235413 16.296 389.472283 16.612099 388.909702 17.17468 
C 388.347122 17.73726 388.031023 18.500391 388.031023 19.296 
C 388.031023 20.091609 388.347122 20.85474 388.909702 21.41732 
C 389.472283 21.979901 390.235413 22.296 391.031023 22.296 
z
" style="fill:#f26b38;stroke:#ffffff;stroke-width:0.48;"/>
    <path clip-path="url(#pef6b83e280)" d="M 64.876477 183.010689 
L 66.376477 181.510689 
L 67.876477 183.010689 
L 69.376477 181.510689 
L 67.876477 180.010689 
L 69.376477 178.510689 
L 67.876477 177.010689 
L 66.376477 178.510689 
L 64.876477 177.010689 
L 63.376477 178.510689 
L 64.876477 180.010689 
L 63.376477 181.510689 
z
" style="fill:#2f9599;stroke:#ffffff;stroke-width:0.48;"/>
    <path clip-path="url(#pef6b83e280)" d="M 71.640114 193.232336 
L 73.140114 191.732336 
L 74.640114 193.232336 
L 76.140114 191.732336 
L 74.640114 190.232336 
L 76.140114 188.732336 
L 74.640114 187.232336 
L 73.140114 188.732336 
L 71.640114 187.232336 
L 70.140114 188.732336 
L 71.640114 190.232336 
L 70.140114 191.732336 
z
" style="fill:#2f9599;stroke:#ffffff;stroke-width:0.48;"/>
    <path clip-path="url(#pef6b83e280)" d="M 78.40375 193.232336 
L 79.90375 191.732336 
L 81.40375 193.232336 
L 82.90375 191.732336 
L 81.40375 190.232336 
L 82.90375 188.732336 
L 81.40375 187.232336 
L 79.90375 188.732336 
L 78.40375 187.232336 
L 76.90375 188.732336 
L 78.40375 190.232336 
L 76.90375 191.732336 
z
" style="fill:#2f9599;stroke:#ffffff;stroke-width:0.48;"/>
    <path clip-path="url(#pef6b83e280)" d="M 85.167386 196.009958 
L 86.667386 194.509958 
L 88.167386 196.009958 
L 89.667386 194.509958 
L 88.167386 193.009958 
L 89.667386 191.509958 
L 88.167386 190.009958 
L 86.667386 191.509958 
L 85.167386 190.009958 
L 83.667386 191.509958 
L 85.167386 193.009958 
L 83.667386 194.509958 
z
" style="fill:#2f9599;stroke:#ffffff;stroke-width:0.48;"/>
    <path clip-path="url(#pef6b83e280)" d="M 91.931023 149.790334 
L 93.431023 148.290334 
L 94.931023 149.790334 
L 96.431023 148.290334 
L 94.931023 146.790334 
L 96.431023 145.290334 
L 94.931023 143.790334 
L 93.431023 145.290334 
L 91.931023 143.790334 
L 90.431023 145.290334 
L 91.931023 146.790334 
L 90.431023 148.290334 
z
" style="fill:#2f9599;stroke:#ffffff;stroke-width:0.48;"/>
    <path clip-path="url(#pef6b83e280)" d="M 98.694659 188.973316 
L 100.194659 187.473316 
L 101.694659 188.973316 
L 103.194659 187.473316 
L 101.694659 185.973316 
L 103.194659 184.473316 
L 101.694659 182.973316 
L 100.194659 184.473316 
L 98.694659 182.973316 
L 97.194659 184.473316 
L 98.694659 185.973316 
L 97.194659 187.473316 
z
" style="fill:#2f9599;stroke:#ffffff;stroke-width:0.48;"/>
    <path clip-path="url(#pef6b83e280)" d="M 105.458295 188.973316 
L 106.958295 187.473316 
L 108.458295 188.973316 
L 109.958295 187.473316 
L 108.458295 185.973316 
L 109.958295 184.473316 
L 108.458295 182.973316 
L 106.958295 184.473316 
L 105.458295 182.973316 
L 103.958295 184.473316 
L 105.458295 185.973316 
L 103.958295 187.473316 
z
" style="fill:#2f9599;stroke:#ffffff;stroke-width:0.48;"/>
    <path clip-path="url(#pef6b83e280)" d="M 112.221932 188.973316 
L 113.721932 187.473316 
L 115.221932 188.973316 
L 116.721932 187.473316 
L 115.221932 185.973316 
L 116.721932 184.473316 
L 115.221932 182.973316 
L 113.721932 184.473316 
L 112.221932 182.973316 
L 110.721932 184.473316 
L 112.221932 185.973316 
L 110.721932 187.473316 
z
" style="fill:#2f9599;stroke:#ffffff;stroke-width:0.48;"/>
    <path clip-path="url(#pef6b83e280)" d="M 118.985568 177.76537 
L 120.485568 176.26537 
L 121.985568 177.76537 
L 123.485568 176.26537 
L 121.985568 174.76537 
L 123.485568 173.26537 
L 121.985568 171.76537 
L 120.485568 173.26537 
L 118.985568 171.76537 
L 117.485568 173.26537 
L 118.985568 174.76537 
L 117.485568 176.26537 
z
" style="fill:#2f9599;stroke:#ffffff;stroke-width:0.48;"/>
    <path clip-path="url(#pef6b83e280)" d="M 125.749205 153.481485 
L 127.249205 151.981485 
L 128.749205 153.481485 
L 130.249205 151.981485 
L 128.749205 150.481485 
L 130.249205 148.981485 
L 128.749205 147.481485 
L 127.249205 148.981485 
L 125.749205 147.481485 
L 124.249205 148.981485 
L 125.749205 150.481485 
L 124.249205 151.981485 
z
" style="fill:#2f9599;stroke:#ffffff;stroke-width:0.48;"/>
    <path clip-path="url(#pef6b83e280)" d="M 132.512841 79.063127 
L 134.012841 77.563127 
L 135.512841 79.063127 
L 137.012841 77.563127 
L 135.512841 76.063127 
L 137.012841 74.563127 
L 135.512841 73.063127 
L 134.012841 74.563127 
L 132.512841 73.063127 
L 131.012841 74.563127 
L 132.512841 76.063127 
L 131.012841 77.563127 
z
" style="fill:#2f9599;stroke:#ffffff;stroke-width:0.48;"/>
    <path clip-path="url(#pef6b83e280)" d="M 139.276477 79.063127 
L 140.776477 77.563127 
L 142.276477 79.063127 
L 143.776477 77.563127 
L 142.276477 76.063127 
L 143.776477 74.563127 
L 142.276477 73.063127 
L 140.776477 74.563127 
L 139.276477 73.063127 
L 137.776477 74.563127 
L 139.276477 76.063127 
L 137.776477 77.563127 
z
" style="fill:#2f9599;stroke:#ffffff;stroke-width:0.48;"/>
    <path clip-path="url(#pef6b83e280)" d="M 146.040114 79.063127 
L 147.540114 77.563127 
L 149.040114 79.063127 
L 150.540114 77.563127 
L 149.040114 76.063127 
L 150.540114 74.563127 
L 149.040114 73.063127 
L 147.540114 74.563127 
L 146.040114 73.063127 
L 144.540114 74.563127 
L 146.040114 76.063127 
L 144.540114 77.563127 
z
" style="fill:#2f9599;stroke:#ffffff;stroke-width:0.48;"/>
    <path clip-path="url(#pef6b83e280)" d="M 152.80375 79.063127 
L 154.30375 77.563127 
L 155.80375 79.063127 
L 157.30375 77.563127 
L 155.80375 76.063127 
L 157.30375 74.563127 
L 155.80375 73.063127 
L 154.30375 74.563127 
L 152.80375 73.063127 
L 151.30375 74.563127 
L 152.80375 76.063127 
L 151.30375 77.563127 
z
" style="fill:#2f9599;stroke:#ffffff;stroke-width:0.48;"/>
    <path clip-path="url(#pef6b83e280)" d="M 159.567386 79.063127 
L 161.067386 77.563127 
L 162.567386 79.063127 
L 164.067386 77.563127 
L 162.567386 76.063127 
L 164.067386 74.563127 
L 162.567386 73.063127 
L 161.067386 74.563127 
L 159.567386 73.063127 
L 158.067386 74.563127 
L 159.567386 76.063127 
L 158.067386 77.563127 
z
" style="fill:#2f9599;stroke:#ffffff;stroke-width:0.48;"/>
    <path clip-path="url(#pef6b83e280)" d="M 166.331023 79.063127 
L 167.831023 77.563127 
L 169.331023 79.063127 
L 170.831023 77.563127 
L 169.331023 76.063127 
L 170.831023 74.563127 
L 169.331023 73.063127 
L 167.831023 74.563127 
L 166.331023 73.063127 
L 164.831023 74.563127 
L 166.331023 76.063127 
L 164.831023 77.563127 
z
" style="fill:#2f9599;stroke:#ffffff;stroke-width:0.48;"/>
    <path clip-path="url(#pef6b83e280)" d="M 173.094659 33.519093 
L 174.594659 32.019093 
L 176.094659 33.519093 
L 177.594659 32.019093 
L 176.094659 30.519093 
L 177.594659 29.019093 
L 176.094659 27.519093 
L 174.594659 29.019093 
L 173.094659 27.519093 
L 171.594659 29.019093 
L 173.094659 30.519093 
L 171.594659 32.019093 
z
" style="fill:#2f9599;stroke:#ffffff;stroke-width:0.48;"/>
    <path clip-path="url(#pef6b83e280)" d="M 179.858295 33.519093 
L 181.358295 32.019093 
L 182.858295 33.519093 
L 184.358295 32.019093 
L 182.858295 30.519093 
L 184.358295 29.019093 
L 182.858295 27.519093 
L 181.358295 29.019093 
L 179.858295 27.519093 
L 178.358295 29.019093 
L 179.858295 30.519093 
L 178.358295 32.019093 
z
" style="fill:#2f9599;stroke:#ffffff;stroke-width:0.48;"/>
    <path clip-path="url(#pef6b83e280)" d="M 186.621932 33.519093 
L 188.121932 32.019093 
L 189.621932 33.519093 
L 191.121932 32.019093 
L 189.621932 30.519093 
L 191.121932 29.019093 
L 189.621932 27.519093 
L 188.121932 29.019093 
L 186.621932 27.519093 
L 185.121932 29.019093 
L 186.621932 30.519093 
L 185.121932 32.019093 
z
" style="fill:#2f9599;stroke:#ffffff;stroke-width:0.48;"/>
    <path clip-path="url(#pef6b83e280)" d="M 193.385568 33.519093 
L 194.885568 32.019093 
L 196.385568 33.519093 
L 197.885568 32.019093 
L 196.385568 30.519093 
L 197.885568 29.019093 
L 196.385568 27.519093 
L 194.885568 29.019093 
L 193.385568 27.519093 
L 191.885568 29.019093 
L 193.385568 30.519093 
L 191.885568 32.019093 
z
" style="fill:#2f9599;stroke:#ffffff;stroke-width:0.48;"/>
    <path clip-path="url(#pef6b83e280)" d="M 200.149205 33.519093 
L 201.649205 32.019093 
L 203.149205 33.519093 
L 204.649205 32.019093 
L 203.149205 30.519093 
L 204.649205 29.019093 
L 203.149205 27.519093 
L 201.649205 29.019093 
L 200.149205 27.519093 
L 198.649205 29.019093 
L 200.149205 30.519093 
L 198.649205 32.019093 
z
" style="fill:#2f9599;stroke:#ffffff;stroke-width:0.48;"/>
    <path clip-path="url(#pef6b83e280)" d="M 206.912841 33.519093 
L 208.412841 32.019093 
L 209.912841 33.519093 
L 211.412841 32.019093 
L 209.912841 30.519093 
L 211.412841 29.019093 
L 209.912841 27.519093 
L 208.412841 29.019093 
L 206.912841 27.519093 
L 205.412841 29.019093 
L 206.912841 30.519093 
L 205.412841 32.019093 
z
" style="fill:#2f9599;stroke:#ffffff;stroke-width:0.48;"/>
    <path clip-path="url(#pef6b83e280)" d="M 213.676477 33.519093 
L 215.176477 32.019093 
L 216.676477 33.519093 
L 218.176477 32.019093 
L 216.676477 30.519093 
L 218.176477 29.019093 
L 216.676477 27.519093 
L 215.176477 29.019093 
L 213.676477 27.519093 
L 212.176477 29.019093 
L 213.676477 30.519093 
L 212.176477 32.019093 
z
" style="fill:#2f9599;stroke:#ffffff;stroke-width:0.48;"/>
    <path clip-path="url(#pef6b83e280)" d="M 220.440114 33.519093 
L 221.940114 32.019093 
L 223.440114 33.519093 
L 224.940114 32.019093 
L 223.440114 30.519093 
L 224.940114 29.019093 
L 223.440114 27.519093 
L 221.940114 29.019093 
L 220.440114 27.519093 
L 218.940114 29.019093 
L 220.440114 30.519093 
L 218.940114 32.019093 
z
" style="fill:#2f9599;stroke:#ffffff;stroke-width:0.48;"/>
    <path clip-path="url(#pef6b83e280)" d="M 227.20375 33.519093 
L 228.70375 32.019093 
L 230.20375 33.519093 
L 231.70375 32.019093 
L 230.20375 30.519093 
L 231.70375 29.019093 
L 230.20375 27.519093 
L 228.70375 29.019093 
L 227.20375 27.519093 
L 225.70375 29.019093 
L 227.20375 30.519093 
L 225.70375 32.019093 
z
" style="fill:#2f9599;stroke:#ffffff;stroke-width:0.48;"/>
    <path clip-path="url(#pef6b83e280)" d="M 233.967386 33.519093 
L 235.467386 32.019093 
L 236.967386 33.519093 
L 238.467386 32.019093 
L 236.967386 30.519093 
L 238.467386 29.019093 
L 236.967386 27.519093 
L 235.467386 29.019093 
L 233.967386 27.519093 
L 232.467386 29.019093 
L 233.967386 30.519093 
L 232.467386 32.019093 
z
" style="fill:#2f9599;stroke:#ffffff;stroke-width:0.48;"/>
    <path clip-path="url(#pef6b83e280)" d="M 240.731023 33.519093 
L 242.231023 32.019093 
L 243.731023 33.519093 
L 245.231023 32.019093 
L 243.731023 30.519093 
L 245.231023 29.019093 
L 243.731023 27.519093 
L 242.231023 29.019093 
L 240.731023 27.519093 
L 239.231023 29.019093 
L 240.731023 30.519093 
L 239.231023 32.019093 
z
" style="fill:#2f9599;stroke:#ffffff;stroke-width:0.48;"/>
    <path clip-path="url(#pef6b83e280)" d="M 247.494659 33.519093 
L 248.994659 32.019093 
L 250.494659 33.519093 
L 251.994659 32.019093 
L 250.494659 30.519093 
L 251.994659 29.019093 
L 250.494659 27.519093 
L 248.994659 29.019093 
L 247.494659 27.519093 
L 245.994659 29.019093 
L 247.494659 30.519093 
L 245.994659 32.019093 
z
" style="fill:#2f9599;stroke:#ffffff;stroke-width:0.48;"/>
    <path clip-path="url(#pef6b83e280)" d="M 254.258295 33.519093 
L 255.758295 32.019093 
L 257.258295 33.519093 
L 258.758295 32.019093 
L 257.258295 30.519093 
L 258.758295 29.019093 
L 257.258295 27.519093 
L 255.758295 29.019093 
L 254.258295 27.519093 
L 252.758295 29.019093 
L 254.258295 30.519093 
L 252.758295 32.019093 
z
" style="fill:#2f9599;stroke:#ffffff;stroke-width:0.48;"/>
    <path clip-path="url(#pef6b83e280)" d="M 261.021932 33.519093 
L 262.521932 32.019093 
L 264.021932 33.519093 
L 265.521932 32.019093 
L 264.021932 30.519093 
L 265.521932 29.019093 
L 264.021932 27.519093 
L 262.521932 29.019093 
L 261.021932 27.519093 
L 259.521932 29.019093 
L 261.021932 30.519093 
L 259.521932 32.019093 
z
" style="fill:#2f9599;stroke:#ffffff;stroke-width:0.48;"/>
    <path clip-path="url(#pef6b83e280)" d="M 267.785568 33.519093 
L 269.285568 32.019093 
L 270.785568 33.519093 
L 272.285568 32.019093 
L 270.785568 30.519093 
L 272.285568 29.019093 
L 270.785568 27.519093 
L 269.285568 29.019093 
L 267.785568 27.519093 
L 266.285568 29.019093 
L 267.785568 30.519093 
L 266.285568 32.019093 
z
" style="fill:#2f9599;stroke:#ffffff;stroke-width:0.48;"/>
    <path clip-path="url(#pef6b83e280)" d="M 274.549205 33.519093 
L 276.049205 32.019093 
L 277.549205 33.519093 
L 279.049205 32.019093 
L 277.549205 30.519093 
L 279.049205 29.019093 
L 277.549205 27.519093 
L 276.049205 29.019093 
L 274.549205 27.519093 
L 273.049205 29.019093 
L 274.549205 30.519093 
L 273.049205 32.019093 
z
" style="fill:#2f9599;stroke:#ffffff;stroke-width:0.48;"/>
    <path clip-path="url(#pef6b83e280)" d="M 281.312841 33.519093 
L 282.812841 32.019093 
L 284.312841 33.519093 
L 285.812841 32.019093 
L 284.312841 30.519093 
L 285.812841 29.019093 
L 284.312841 27.519093 
L 282.812841 29.019093 
L 281.312841 27.519093 
L 279.812841 29.019093 
L 281.312841 30.519093 
L 279.812841 32.019093 
z
" style="fill:#2f9599;stroke:#ffffff;stroke-width:0.48;"/>
    <path clip-path="url(#pef6b83e280)" d="M 288.076477 33.519093 
L 289.576477 32.019093 
L 291.076477 33.519093 
L 292.576477 32.019093 
L 291.076477 30.519093 
L 292.576477 29.019093 
L 291.076477 27.519093 
L 289.576477 29.019093 
L 288.076477 27.519093 
L 286.576477 29.019093 
L 288.076477 30.519093 
L 286.576477 32.019093 
z
" style="fill:#2f9599;stroke:#ffffff;stroke-width:0.48;"/>
    <path clip-path="url(#pef6b83e280)" d="M 294.840114 33.519093 
L 296.340114 32.019093 
L 297.840114 33.519093 
L 299.340114 32.019093 
L 297.840114 30.519093 
L 299.340114 29.019093 
L 297.840114 27.519093 
L 296.340114 29.019093 
L 294.840114 27.519093 
L 293.340114 29.019093 
L 294.840114 30.519093 
L 293.340114 32.019093 
z
" style="fill:#2f9599;stroke:#ffffff;stroke-width:0.48;"/>
    <path clip-path="url(#pef6b83e280)" d="M 301.60375 33.519093 
L 303.10375 32.019093 
L 304.60375 33.519093 
L 306.10375 32.019093 
L 304.60375 30.519093 
L 306.10375 29.019093 
L 304.60375 27.519093 
L 303.10375 29.019093 
L 301.60375 27.519093 
L 300.10375 29.019093 
L 301.60375 30.519093 
L 300.10375 32.019093 
z
" style="fill:#2f9599;stroke:#ffffff;stroke-width:0.48;"/>
    <path clip-path="url(#pef6b83e280)" d="M 308.367386 33.519093 
L 309.867386 32.019093 
L 311.367386 33.519093 
L 312.867386 32.019093 
L 311.367386 30.519093 
L 312.867386 29.019093 
L 311.367386 27.519093 
L 309.867386 29.019093 
L 308.367386 27.519093 
L 306.867386 29.019093 
L 308.367386 30.519093 
L 306.867386 32.019093 
z
" style="fill:#2f9599;stroke:#ffffff;stroke-width:0.48;"/>
    <path clip-path="url(#pef6b83e280)" d="M 315.131023 33.519093 
L 316.631023 32.019093 
L 318.131023 33.519093 
L 319.631023 32.019093 
L 318.131023 30.519093 
L 319.631023 29.019093 
L 318.131023 27.519093 
L 316.631023 29.019093 
L 315.131023 27.519093 
L 313.631023 29.019093 
L 315.131023 30.519093 
L 313.631023 32.019093 
z
" style="fill:#2f9599;stroke:#ffffff;stroke-width:0.48;"/>
    <path clip-path="url(#pef6b83e280)" d="M 321.894659 33.519093 
L 323.394659 32.019093 
L 324.894659 33.519093 
L 326.394659 32.019093 
L 324.894659 30.519093 
L 326.394659 29.019093 
L 324.894659 27.519093 
L 323.394659 29.019093 
L 321.894659 27.519093 
L 320.394659 29.019093 
L 321.894659 30.519093 
L 320.394659 32.019093 
z
" style="fill:#2f9599;stroke:#ffffff;stroke-width:0.48;"/>
    <path clip-path="url(#pef6b83e280)" d="M 328.658295 33.519093 
L 330.158295 32.019093 
L 331.658295 33.519093 
L 333.158295 32.019093 
L 331.658295 30.519093 
L 333.158295 29.019093 
L 331.658295 27.519093 
L 330.158295 29.019093 
L 328.658295 27.519093 
L 327.158295 29.019093 
L 328.658295 30.519093 
L 327.158295 32.019093 
z
" style="fill:#2f9599;stroke:#ffffff;stroke-width:0.48;"/>
    <path clip-path="url(#pef6b83e280)" d="M 335.421932 33.519093 
L 336.921932 32.019093 
L 338.421932 33.519093 
L 339.921932 32.019093 
L 338.421932 30.519093 
L 339.921932 29.019093 
L 338.421932 27.519093 
L 336.921932 29.019093 
L 335.421932 27.519093 
L 333.921932 29.019093 
L 335.421932 30.519093 
L 333.921932 32.019093 
z
" style="fill:#2f9599;stroke:#ffffff;stroke-width:0.48;"/>
    <path clip-path="url(#pef6b83e280)" d="M 342.185568 33.519093 
L 343.685568 32.019093 
L 345.185568 33.519093 
L 346.685568 32.019093 
L 345.185568 30.519093 
L 346.685568 29.019093 
L 345.185568 27.519093 
L 343.685568 29.019093 
L 342.185568 27.519093 
L 340.685568 29.019093 
L 342.185568 30.519093 
L 340.685568 32.019093 
z
" style="fill:#2f9599;stroke:#ffffff;stroke-width:0.48;"/>
    <path clip-path="url(#pef6b83e280)" d="M 348.949205 33.519093 
L 350.449205 32.019093 
L 351.949205 33.519093 
L 353.449205 32.019093 
L 351.949205 30.519093 
L 353.449205 29.019093 
L 351.949205 27.519093 
L 350.449205 29.019093 
L 348.949205 27.519093 
L 347.449205 29.019093 
L 348.949205 30.519093 
L 347.449205 32.019093 
z
" style="fill:#2f9599;stroke:#ffffff;stroke-width:0.48;"/>
    <path clip-path="url(#pef6b83e280)" d="M 355.712841 33.519093 
L 357.212841 32.019093 
L 358.712841 33.519093 
L 360.212841 32.019093 
L 358.712841 30.519093 
L 360.212841 29.019093 
L 358.712841 27.519093 
L 357.212841 29.019093 
L 355.712841 27.519093 
L 354.212841 29.019093 
L 355.712841 30.519093 
L 354.212841 32.019093 
z
" style="fill:#2f9599;stroke:#ffffff;stroke-width:0.48;"/>
    <path clip-path="url(#pef6b83e280)" d="M 362.476477 33.519093 
L 363.976477 32.019093 
L 365.476477 33.519093 
L 366.976477 32.019093 
L 365.476477 30.519093 
L 366.976477 29.019093 
L 365.476477 27.519093 
L 363.976477 29.019093 
L 362.476477 27.519093 
L 360.976477 29.019093 
L 362.476477 30.519093 
L 360.976477 32.019093 
z
" style="fill:#2f9599;stroke:#ffffff;stroke-width:0.48;"/>
    <path clip-path="url(#pef6b83e280)" d="M 369.240114 33.519093 
L 370.740114 32.019093 
L 372.240114 33.519093 
L 373.740114 32.019093 
L 372.240114 30.519093 
L 373.740114 29.019093 
L 372.240114 27.519093 
L 370.740114 29.019093 
L 369.240114 27.519093 
L 367.740114 29.019093 
L 369.240114 30.519093 
L 367.740114 32.019093 
z
" style="fill:#2f9599;stroke:#ffffff;stroke-width:0.48;"/>
    <path clip-path="url(#pef6b83e280)" d="M 376.00375 33.519093 
L 377.50375 32.019093 
L 379.00375 33.519093 
L 380.50375 32.019093 
L 379.00375 30.519093 
L 380.50375 29.019093 
L 379.00375 27.519093 
L 377.50375 29.019093 
L 376.00375 27.519093 
L 374.50375 29.019093 
L 376.00375 30.519093 
L 374.50375 32.019093 
z
" style="fill:#2f9599;stroke:#ffffff;stroke-width:0.48;"/>
    <path clip-path="url(#pef6b83e280)" d="M 382.767386 33.519093 
L 384.267386 32.019093 
L 385.767386 33.519093 
L 387.267386 32.019093 
L 385.767386 30.519093 
L 387.267386 29.019093 
L 385.767386 27.519093 
L 384.267386 29.019093 
L 382.767386 27.519093 
L 381.267386 29.019093 
L 382.767386 30.519093 
L 381.267386 32.019093 
z
" style="fill:#2f9599;stroke:#ffffff;stroke-width:0.48;"/>
    <path clip-path="url(#pef6b83e280)" d="M 389.531023 33.519093 
L 391.031023 32.019093 
L 392.531023 33.519093 
L 394.031023 32.019093 
L 392.531023 30.519093 
L 394.031023 29.019093 
L 392.531023 27.519093 
L 391.031023 29.019093 
L 389.531023 27.519093 
L 388.031023 29.019093 
L 389.531023 30.519093 
L 388.031023 32.019093 
z
" style="fill:#2f9599;stroke:#ffffff;stroke-width:0.48;"/>
    <path clip-path="url(#pef6b83e280)" d="M 64.255157 259.09468 
L 64.255157 263.33732 
L 68.497798 263.33732 
L 68.497798 259.09468 
z
" style="fill:#a7226e;stroke:#ffffff;stroke-width:0.48;"/>
    <path clip-path="url(#pef6b83e280)" d="M 71.018793 259.09468 
L 71.018793 263.33732 
L 75.261434 263.33732 
L 75.261434 259.09468 
z
" style="fill:#a7226e;stroke:#ffffff;stroke-width:0.48;"/>
    <path clip-path="url(#pef6b83e280)" d="M 77.78243 259.09468 
L 77.78243 263.33732 
L 82.02507 263.33732 
L 82.02507 259.09468 
z
" style="fill:#a7226e;stroke:#ffffff;stroke-width:0.48;"/>
    <path clip-path="url(#pef6b83e280)" d="M 84.546066 259.09468 
L 84.546066 263.33732 
L 88.788707 263.33732 
L 88.788707 259.09468 
z
" style="fill:#a7226e;stroke:#ffffff;stroke-width:0.48;"/>
    <path clip-path="url(#pef6b83e280)" d="M 91.309702 259.09468 
L 91.309702 263.33732 
L 95.552343 263.33732 
L 95.552343 259.09468 
z
" style="fill:#a7226e;stroke:#ffffff;stroke-width:0.48;"/>
    <path clip-path="url(#pef6b83e280)" d="M 98.073339 259.09468 
L 98.073339 263.33732 
L 102.315979 263.33732 
L 102.315979 259.09468 
z
" style="fill:#a7226e;stroke:#ffffff;stroke-width:0.48;"/>
    <path clip-path="url(#pef6b83e280)" d="M 104.836975 259.09468 
L 104.836975 263.33732 
L 109.079616 263.33732 
L 109.079616 259.09468 
z
" style="fill:#a7226e;stroke:#ffffff;stroke-width:0.48;"/>
    <path clip-path="url(#pef6b83e280)" d="M 111.600611 258.567372 
L 111.600611 262.810013 
L 115.843252 262.810013 
L 115.843252 258.567372 
z
" style="fill:#a7226e;stroke:#ffffff;stroke-width:0.48;"/>
    <path clip-path="url(#pef6b83e280)" d="M 118.364248 249.075843 
L 118.364248 253.318483 
L 122.606889 253.318483 
L 122.606889 249.075843 
z
" style="fill:#a7226e;stroke:#ffffff;stroke-width:0.48;"/>
    <path clip-path="url(#pef6b83e280)" d="M 125.127884 243.848623 
L 125.127884 248.091264 
L 129.370525 248.091264 
L 129.370525 243.848623 
z
" style="fill:#a7226e;stroke:#ffffff;stroke-width:0.48;"/>
    <path clip-path="url(#pef6b83e280)" d="M 131.891521 243.848623 
L 131.891521 248.091264 
L 136.134161 248.091264 
L 136.134161 243.848623 
z
" style="fill:#a7226e;stroke:#ffffff;stroke-width:0.48;"/>
    <path clip-path="url(#pef6b83e280)" d="M 138.655157 243.848623 
L 138.655157 248.091264 
L 142.897798 248.091264 
L 142.897798 243.848623 
z
" style="fill:#a7226e;stroke:#ffffff;stroke-width:0.48;"/>
    <path clip-path="url(#pef6b83e280)" d="M 145.418793 227.216562 
L 145.418793 231.459202 
L 149.661434 231.459202 
L 149.661434 227.216562 
z
" style="fill:#a7226e;stroke:#ffffff;stroke-width:0.48;"/>
    <path clip-path="url(#pef6b83e280)" d="M 152.18243 221.331371 
L 152.18243 225.574011 
L 156.42507 225.574011 
L 156.42507 221.331371 
z
" style="fill:#a7226e;stroke:#ffffff;stroke-width:0.48;"/>
    <path clip-path="url(#pef6b83e280)" d="M 158.946066 188.96282 
L 158.946066 193.205461 
L 163.188707 193.205461 
L 163.188707 188.96282 
z
" style="fill:#a7226e;stroke:#ffffff;stroke-width:0.48;"/>
    <path clip-path="url(#pef6b83e280)" d="M 165.709702 188.96282 
L 165.709702 193.205461 
L 169.952343 193.205461 
L 169.952343 188.96282 
z
" style="fill:#a7226e;stroke:#ffffff;stroke-width:0.48;"/>
    <path clip-path="url(#pef6b83e280)" d="M 172.473339 184.969116 
L 172.473339 189.211757 
L 176.715979 189.211757 
L 176.715979 184.969116 
z
" style="fill:#a7226e;stroke:#ffffff;stroke-width:0.48;"/>
    <path clip-path="url(#pef6b83e280)" d="M 179.236975 184.969116 
L 179.236975 189.211757 
L 183.479616 189.211757 
L 183.479616 184.969116 
z
" style="fill:#a7226e;stroke:#ffffff;stroke-width:0.48;"/>
    <path clip-path="url(#pef6b83e280)" d="M 186.000611 184.969116 
L 186.000611 189.211757 
L 190.243252 189.211757 
L 190.243252 184.969116 
z
" style="fill:#a7226e;stroke:#ffffff;stroke-width:0.48;"/>
    <path clip-path="url(#pef6b83e280)" d="M 192.764248 181.104241 
L 192.764248 185.346882 
L 197.006889 185.346882 
L 197.006889 181.104241 
z
" style="fill:#a7226e;stroke:#ffffff;stroke-width:0.48;"/>
    <path clip-path="url(#pef6b83e280)" d="M 199.527884 181.104241 
L 199.527884 185.346882 
L 203.770525 185.346882 
L 203.770525 181.104241 
z
" style="fill:#a7226e;stroke:#ffffff;stroke-width:0.48;"/>
    <path clip-path="url(#pef6b83e280)" d="M 206.291521 231.729253 
L 206.291521 235.971894 
L 210.534161 235.971894 
L 210.534161 231.729253 
z
" style="fill:#a7226e;stroke:#ffffff;stroke-width:0.48;"/>
    <path clip-path="url(#pef6b83e280)" d="M 213.055157 231.729253 
L 213.055157 235.971894 
L 217.297798 235.971894 
L 217.297798 231.729253 
z
" style="fill:#a7226e;stroke:#ffffff;stroke-width:0.48;"/>
    <path clip-path="url(#pef6b83e280)" d="M 219.818793 236.753505 
L 219.818793 240.996146 
L 224.061434 240.996146 
L 224.061434 236.753505 
z
" style="fill:#a7226e;stroke:#ffffff;stroke-width:0.48;"/>
    <path clip-path="url(#pef6b83e280)" d="M 226.58243 236.753505 
L 226.58243 240.996146 
L 230.82507 240.996146 
L 230.82507 236.753505 
z
" style="fill:#a7226e;stroke:#ffffff;stroke-width:0.48;"/>
    <path clip-path="url(#pef6b83e280)" d="M 233.346066 200.888075 
L 233.346066 205.130716 
L 237.588707 205.130716 
L 237.588707 200.888075 
z
" style="fill:#a7226e;stroke:#ffffff;stroke-width:0.48;"/>
    <path clip-path="url(#pef6b83e280)" d="M 240.109702 216.533454 
L 240.109702 220.776095 
L 244.352343 220.776095 
L 244.352343 216.533454 
z
" style="fill:#a7226e;stroke:#ffffff;stroke-width:0.48;"/>
    <path clip-path="url(#pef6b83e280)" d="M 246.873339 208.34136 
L 246.873339 212.584001 
L 251.115979 212.584001 
L 251.115979 208.34136 
z
" style="fill:#a7226e;stroke:#ffffff;stroke-width:0.48;"/>
    <path clip-path="url(#pef6b83e280)" d="M 253.636975 190.888638 
L 253.636975 195.131278 
L 257.879616 195.131278 
L 257.879616 190.888638 
z
" style="fill:#a7226e;stroke:#ffffff;stroke-width:0.48;"/>
    <path clip-path="url(#pef6b83e280)" d="M 260.400611 190.888638 
L 260.400611 195.131278 
L 264.643252 195.131278 
L 264.643252 190.888638 
z
" style="fill:#a7226e;stroke:#ffffff;stroke-width:0.48;"/>
    <path clip-path="url(#pef6b83e280)" d="M 267.164248 190.888638 
L 267.164248 195.131278 
L 271.406889 195.131278 
L 271.406889 190.888638 
z
" style="fill:#a7226e;stroke:#ffffff;stroke-width:0.48;"/>
    <path clip-path="url(#pef6b83e280)" d="M 273.927884 190.888638 
L 273.927884 195.131278 
L 278.170525 195.131278 
L 278.170525 190.888638 
z
" style="fill:#a7226e;stroke:#ffffff;stroke-width:0.48;"/>
    <path clip-path="url(#pef6b83e280)" d="M 280.691521 190.888638 
L 280.691521 195.131278 
L 284.934161 195.131278 
L 284.934161 190.888638 
z
" style="fill:#a7226e;stroke:#ffffff;stroke-width:0.48;"/>
    <path clip-path="url(#pef6b83e280)" d="M 287.455157 111.448659 
L 287.455157 115.6913 
L 291.697798 115.6913 
L 291.697798 111.448659 
z
" style="fill:#a7226e;stroke:#ffffff;stroke-width:0.48;"/>
    <path clip-path="url(#pef6b83e280)" d="M 294.218793 111.448659 
L 294.218793 115.6913 
L 298.461434 115.6913 
L 298.461434 111.448659 
z
" style="fill:#a7226e;stroke:#ffffff;stroke-width:0.48;"/>
    <path clip-path="url(#pef6b83e280)" d="M 300.98243 111.448659 
L 300.98243 115.6913 
L 305.22507 115.6913 
L 305.22507 111.448659 
z
" style="fill:#a7226e;stroke:#ffffff;stroke-width:0.48;"/>
    <path clip-path="url(#pef6b83e280)" d="M 307.746066 111.448659 
L 307.746066 115.6913 
L 311.988707 115.6913 
L 311.988707 111.448659 
z
" style="fill:#a7226e;stroke:#ffffff;stroke-width:0.48;"/>
    <path clip-path="url(#pef6b83e280)" d="M 314.509702 111.448659 
L 314.509702 115.6913 
L 318.752343 115.6913 
L 318.752343 111.448659 
z
" style="fill:#a7226e;stroke:#ffffff;stroke-width:0.48;"/>
    <path clip-path="url(#pef6b83e280)" d="M 321.273339 111.448659 
L 321.273339 115.6913 
L 325.515979 115.6913 
L 325.515979 111.448659 
z
" style="fill:#a7226e;stroke:#ffffff;stroke-width:0.48;"/>
    <path clip-path="url(#pef6b83e280)" d="M 328.036975 111.448659 
L 328.036975 115.6913 
L 332.279616 115.6913 
L 332.279616 111.448659 
z
" style="fill:#a7226e;stroke:#ffffff;stroke-width:0.48;"/>
    <path clip-path="url(#pef6b83e280)" d="M 334.800611 111.448659 
L 334.800611 115.6913 
L 339.043252 115.6913 
L 339.043252 111.448659 
z
" style="fill:#a7226e;stroke:#ffffff;stroke-width:0.48;"/>
    <path clip-path="url(#pef6b83e280)" d="M 341.564248 111.448659 
L 341.564248 115.6913 
L 345.806889 115.6913 
L 345.806889 111.448659 
z
" style="fill:#a7226e;stroke:#ffffff;stroke-width:0.48;"/>
    <path clip-path="url(#pef6b83e280)" d="M 348.327884 111.448659 
L 348.327884 115.6913 
L 352.570525 115.6913 
L 352.570525 111.448659 
z
" style="fill:#a7226e;stroke:#ffffff;stroke-width:0.48;"/>
    <path clip-path="url(#pef6b83e280)" d="M 355.091521 111.448659 
L 355.091521 115.6913 
L 359.334161 115.6913 
L 359.334161 111.448659 
z
" style="fill:#a7226e;stroke:#ffffff;stroke-width:0.48;"/>
    <path clip-path="url(#pef6b83e280)" d="M 361.855157 111.448659 
L 361.855157 115.6913 
L 366.097798 115.6913 
L 366.097798 111.448659 
z
" style="fill:#a7226e;stroke:#ffffff;stroke-width:0.48;"/>
    <path clip-path="url(#pef6b83e280)" d="M 368.618793 111.448659 
L 368.618793 115.6913 
L 372.861434 115.6913 
L 372.861434 111.448659 
z
" style="fill:#a7226e;stroke:#ffffff;stroke-width:0.48;"/>
    <path clip-path="url(#pef6b83e280)" d="M 375.38243 111.448659 
L 375.38243 115.6913 
L 379.62507 115.6913 
L 379.62507 111.448659 
z
" style="fill:#a7226e;stroke:#ffffff;stroke-width:0.48;"/>
    <path clip-path="url(#pef6b83e280)" d="M 382.146066 111.448659 
L 382.146066 115.6913 
L 386.388707 115.6913 
L 386.388707 111.448659 
z
" style="fill:#a7226e;stroke:#ffffff;stroke-width:0.48;"/>
    <path clip-path="url(#pef6b83e280)" d="M 388.909702 111.448659 
L 388.909702 115.6913 
L 393.152343 115.6913 
L 393.152343 111.448659 
z
" style="fill:#a7226e;stroke:#ffffff;stroke-width:0.48;"/>
   </g>
   <g id="PathCollection_2"/>
   <g id="PathCollection_3"/>
   <g id="PathCollection_4"/>
   <g id="matplotlib.axis_1">
    <g id="xtick_1">
     <g id="line2d_1">
      <defs>
       <path d="M 0 0 
L 0 3.5 
" id="mb6103fb290" style="stroke:#000000;stroke-width:0.8;"/>
      </defs>
      <g>
       <use style="stroke:#000000;stroke-width:0.8;" x="59.612841" xlink:href="#mb6103fb290" y="273.312"/>
      </g>
     </g>
     <g id="text_1">
      <!-- 0.0 -->
      <g transform="translate(51.661278 287.910438)scale(0.1 -0.1)">
       <defs>
        <path d="M 31.78125 66.40625 
Q 24.171875 66.40625 20.328125 58.90625 
Q 16.5 51.421875 16.5 36.375 
Q 16.5 21.390625 20.328125 13.890625 
Q 24.171875 6.390625 31.78125 6.390625 
Q 39.453125 6.390625 43.28125 13.890625 
Q 47.125 21.390625 47.125 36.375 
Q 47.125 51.421875 43.28125 58.90625 
Q 39.453125 66.40625 31.78125 66.40625 
z
M 31.78125 74.21875 
Q 44.046875 74.21875 50.515625 64.515625 
Q 56.984375 54.828125 56.984375 36.375 
Q 56.984375 17.96875 50.515625 8.265625 
Q 44.046875 -1.421875 31.78125 -1.421875 
Q 19.53125 -1.421875 13.0625 8.265625 
Q 6.59375 17.96875 6.59375 36.375 
Q 6.59375 54.828125 13.0625 64.515625 
Q 19.53125 74.21875 31.78125 74.21875 
z
" id="DejaVuSans-48"/>
        <path d="M 10.6875 12.40625 
L 21 12.40625 
L 21 0 
L 10.6875 0 
z
" id="DejaVuSans-46"/>
       </defs>
       <use xlink:href="#DejaVuSans-48"/>
       <use x="63.623047" xlink:href="#DejaVuSans-46"/>
       <use x="95.410156" xlink:href="#DejaVuSans-48"/>
      </g>
     </g>
    </g>
    <g id="xtick_2">
     <g id="line2d_2">
      <g>
       <use style="stroke:#000000;stroke-width:0.8;" x="127.249205" xlink:href="#mb6103fb290" y="273.312"/>
      </g>
     </g>
     <g id="text_2">
      <!-- 0.2 -->
      <g transform="translate(119.297642 287.910438)scale(0.1 -0.1)">
       <defs>
        <path d="M 19.1875 8.296875 
L 53.609375 8.296875 
L 53.609375 0 
L 7.328125 0 
L 7.328125 8.296875 
Q 12.9375 14.109375 22.625 23.890625 
Q 32.328125 33.6875 34.8125 36.53125 
Q 39.546875 41.84375 41.421875 45.53125 
Q 43.3125 49.21875 43.3125 52.78125 
Q 43.3125 58.59375 39.234375 62.25 
Q 35.15625 65.921875 28.609375 65.921875 
Q 23.96875 65.921875 18.8125 64.3125 
Q 13.671875 62.703125 7.8125 59.421875 
L 7.8125 69.390625 
Q 13.765625 71.78125 18.9375 73 
Q 24.125 74.21875 28.421875 74.21875 
Q 39.75 74.21875 46.484375 68.546875 
Q 53.21875 62.890625 53.21875 53.421875 
Q 53.21875 48.921875 51.53125 44.890625 
Q 49.859375 40.875 45.40625 35.40625 
Q 44.1875 33.984375 37.640625 27.21875 
Q 31.109375 20.453125 19.1875 8.296875 
z
" id="DejaVuSans-50"/>
       </defs>
       <use xlink:href="#DejaVuSans-48"/>
       <use x="63.623047" xlink:href="#DejaVuSans-46"/>
       <use x="95.410156" xlink:href="#DejaVuSans-50"/>
      </g>
     </g>
    </g>
    <g id="xtick_3">
     <g id="line2d_3">
      <g>
       <use style="stroke:#000000;stroke-width:0.8;" x="194.885568" xlink:href="#mb6103fb290" y="273.312"/>
      </g>
     </g>
     <g id="text_3">
      <!-- 0.4 -->
      <g transform="translate(186.934006 287.910438)scale(0.1 -0.1)">
       <defs>
        <path d="M 37.796875 64.3125 
L 12.890625 25.390625 
L 37.796875 25.390625 
z
M 35.203125 72.90625 
L 47.609375 72.90625 
L 47.609375 25.390625 
L 58.015625 25.390625 
L 58.015625 17.1875 
L 47.609375 17.1875 
L 47.609375 0 
L 37.796875 0 
L 37.796875 17.1875 
L 4.890625 17.1875 
L 4.890625 26.703125 
z
" id="DejaVuSans-52"/>
       </defs>
       <use xlink:href="#DejaVuSans-48"/>
       <use x="63.623047" xlink:href="#DejaVuSans-46"/>
       <use x="95.410156" xlink:href="#DejaVuSans-52"/>
      </g>
     </g>
    </g>
    <g id="xtick_4">
     <g id="line2d_4">
      <g>
       <use style="stroke:#000000;stroke-width:0.8;" x="262.521932" xlink:href="#mb6103fb290" y="273.312"/>
      </g>
     </g>
     <g id="text_4">
      <!-- 0.6 -->
      <g transform="translate(254.570369 287.910438)scale(0.1 -0.1)">
       <defs>
        <path d="M 33.015625 40.375 
Q 26.375 40.375 22.484375 35.828125 
Q 18.609375 31.296875 18.609375 23.390625 
Q 18.609375 15.53125 22.484375 10.953125 
Q 26.375 6.390625 33.015625 6.390625 
Q 39.65625 6.390625 43.53125 10.953125 
Q 47.40625 15.53125 47.40625 23.390625 
Q 47.40625 31.296875 43.53125 35.828125 
Q 39.65625 40.375 33.015625 40.375 
z
M 52.59375 71.296875 
L 52.59375 62.3125 
Q 48.875 64.0625 45.09375 64.984375 
Q 41.3125 65.921875 37.59375 65.921875 
Q 27.828125 65.921875 22.671875 59.328125 
Q 17.53125 52.734375 16.796875 39.40625 
Q 19.671875 43.65625 24.015625 45.921875 
Q 28.375 48.1875 33.59375 48.1875 
Q 44.578125 48.1875 50.953125 41.515625 
Q 57.328125 34.859375 57.328125 23.390625 
Q 57.328125 12.15625 50.6875 5.359375 
Q 44.046875 -1.421875 33.015625 -1.421875 
Q 20.359375 -1.421875 13.671875 8.265625 
Q 6.984375 17.96875 6.984375 36.375 
Q 6.984375 53.65625 15.1875 63.9375 
Q 23.390625 74.21875 37.203125 74.21875 
Q 40.921875 74.21875 44.703125 73.484375 
Q 48.484375 72.75 52.59375 71.296875 
z
" id="DejaVuSans-54"/>
       </defs>
       <use xlink:href="#DejaVuSans-48"/>
       <use x="63.623047" xlink:href="#DejaVuSans-46"/>
       <use x="95.410156" xlink:href="#DejaVuSans-54"/>
      </g>
     </g>
    </g>
    <g id="xtick_5">
     <g id="line2d_5">
      <g>
       <use style="stroke:#000000;stroke-width:0.8;" x="330.158295" xlink:href="#mb6103fb290" y="273.312"/>
      </g>
     </g>
     <g id="text_5">
      <!-- 0.8 -->
      <g transform="translate(322.206733 287.910438)scale(0.1 -0.1)">
       <defs>
        <path d="M 31.78125 34.625 
Q 24.75 34.625 20.71875 30.859375 
Q 16.703125 27.09375 16.703125 20.515625 
Q 16.703125 13.921875 20.71875 10.15625 
Q 24.75 6.390625 31.78125 6.390625 
Q 38.8125 6.390625 42.859375 10.171875 
Q 46.921875 13.96875 46.921875 20.515625 
Q 46.921875 27.09375 42.890625 30.859375 
Q 38.875 34.625 31.78125 34.625 
z
M 21.921875 38.8125 
Q 15.578125 40.375 12.03125 44.71875 
Q 8.5 49.078125 8.5 55.328125 
Q 8.5 64.0625 14.71875 69.140625 
Q 20.953125 74.21875 31.78125 74.21875 
Q 42.671875 74.21875 48.875 69.140625 
Q 55.078125 64.0625 55.078125 55.328125 
Q 55.078125 49.078125 51.53125 44.71875 
Q 48 40.375 41.703125 38.8125 
Q 48.828125 37.15625 52.796875 32.3125 
Q 56.78125 27.484375 56.78125 20.515625 
Q 56.78125 9.90625 50.3125 4.234375 
Q 43.84375 -1.421875 31.78125 -1.421875 
Q 19.734375 -1.421875 13.25 4.234375 
Q 6.78125 9.90625 6.78125 20.515625 
Q 6.78125 27.484375 10.78125 32.3125 
Q 14.796875 37.15625 21.921875 38.8125 
z
M 18.3125 54.390625 
Q 18.3125 48.734375 21.84375 45.5625 
Q 25.390625 42.390625 31.78125 42.390625 
Q 38.140625 42.390625 41.71875 45.5625 
Q 45.3125 48.734375 45.3125 54.390625 
Q 45.3125 60.0625 41.71875 63.234375 
Q 38.140625 66.40625 31.78125 66.40625 
Q 25.390625 66.40625 21.84375 63.234375 
Q 18.3125 60.0625 18.3125 54.390625 
z
" id="DejaVuSans-56"/>
       </defs>
       <use xlink:href="#DejaVuSans-48"/>
       <use x="63.623047" xlink:href="#DejaVuSans-46"/>
       <use x="95.410156" xlink:href="#DejaVuSans-56"/>
      </g>
     </g>
    </g>
    <g id="xtick_6">
     <g id="line2d_6">
      <g>
       <use style="stroke:#000000;stroke-width:0.8;" x="397.794659" xlink:href="#mb6103fb290" y="273.312"/>
      </g>
     </g>
     <g id="text_6">
      <!-- 1.0 -->
      <g transform="translate(389.843097 287.910438)scale(0.1 -0.1)">
       <defs>
        <path d="M 12.40625 8.296875 
L 28.515625 8.296875 
L 28.515625 63.921875 
L 10.984375 60.40625 
L 10.984375 69.390625 
L 28.421875 72.90625 
L 38.28125 72.90625 
L 38.28125 8.296875 
L 54.390625 8.296875 
L 54.390625 0 
L 12.40625 0 
z
" id="DejaVuSans-49"/>
       </defs>
       <use xlink:href="#DejaVuSans-49"/>
       <use x="63.623047" xlink:href="#DejaVuSans-46"/>
       <use x="95.410156" xlink:href="#DejaVuSans-48"/>
      </g>
     </g>
    </g>
    <g id="text_7">
     <!-- cutoff -->
     <g transform="translate(214.245938 301.588562)scale(0.1 -0.1)">
      <defs>
       <path d="M 48.78125 52.59375 
L 48.78125 44.1875 
Q 44.96875 46.296875 41.140625 47.34375 
Q 37.3125 48.390625 33.40625 48.390625 
Q 24.65625 48.390625 19.8125 42.84375 
Q 14.984375 37.3125 14.984375 27.296875 
Q 14.984375 17.28125 19.8125 11.734375 
Q 24.65625 6.203125 33.40625 6.203125 
Q 37.3125 6.203125 41.140625 7.25 
Q 44.96875 8.296875 48.78125 10.40625 
L 48.78125 2.09375 
Q 45.015625 0.34375 40.984375 -0.53125 
Q 36.96875 -1.421875 32.421875 -1.421875 
Q 20.0625 -1.421875 12.78125 6.34375 
Q 5.515625 14.109375 5.515625 27.296875 
Q 5.515625 40.671875 12.859375 48.328125 
Q 20.21875 56 33.015625 56 
Q 37.15625 56 41.109375 55.140625 
Q 45.0625 54.296875 48.78125 52.59375 
z
" id="DejaVuSans-99"/>
       <path d="M 8.5 21.578125 
L 8.5 54.6875 
L 17.484375 54.6875 
L 17.484375 21.921875 
Q 17.484375 14.15625 20.5 10.265625 
Q 23.53125 6.390625 29.59375 6.390625 
Q 36.859375 6.390625 41.078125 11.03125 
Q 45.3125 15.671875 45.3125 23.6875 
L 45.3125 54.6875 
L 54.296875 54.6875 
L 54.296875 0 
L 45.3125 0 
L 45.3125 8.40625 
Q 42.046875 3.421875 37.71875 1 
Q 33.40625 -1.421875 27.6875 -1.421875 
Q 18.265625 -1.421875 13.375 4.4375 
Q 8.5 10.296875 8.5 21.578125 
z
M 31.109375 56 
z
" id="DejaVuSans-117"/>
       <path d="M 18.3125 70.21875 
L 18.3125 54.6875 
L 36.8125 54.6875 
L 36.8125 47.703125 
L 18.3125 47.703125 
L 18.3125 18.015625 
Q 18.3125 11.328125 20.140625 9.421875 
Q 21.96875 7.515625 27.59375 7.515625 
L 36.8125 7.515625 
L 36.8125 0 
L 27.59375 0 
Q 17.1875 0 13.234375 3.875 
Q 9.28125 7.765625 9.28125 18.015625 
L 9.28125 47.703125 
L 2.6875 47.703125 
L 2.6875 54.6875 
L 9.28125 54.6875 
L 9.28125 70.21875 
z
" id="DejaVuSans-116"/>
       <path d="M 30.609375 48.390625 
Q 23.390625 48.390625 19.1875 42.75 
Q 14.984375 37.109375 14.984375 27.296875 
Q 14.984375 17.484375 19.15625 11.84375 
Q 23.34375 6.203125 30.609375 6.203125 
Q 37.796875 6.203125 41.984375 11.859375 
Q 46.1875 17.53125 46.1875 27.296875 
Q 46.1875 37.015625 41.984375 42.703125 
Q 37.796875 48.390625 30.609375 48.390625 
z
M 30.609375 56 
Q 42.328125 56 49.015625 48.375 
Q 55.71875 40.765625 55.71875 27.296875 
Q 55.71875 13.875 49.015625 6.21875 
Q 42.328125 -1.421875 30.609375 -1.421875 
Q 18.84375 -1.421875 12.171875 6.21875 
Q 5.515625 13.875 5.515625 27.296875 
Q 5.515625 40.765625 12.171875 48.375 
Q 18.84375 56 30.609375 56 
z
" id="DejaVuSans-111"/>
       <path d="M 37.109375 75.984375 
L 37.109375 68.5 
L 28.515625 68.5 
Q 23.6875 68.5 21.796875 66.546875 
Q 19.921875 64.59375 19.921875 59.515625 
L 19.921875 54.6875 
L 34.71875 54.6875 
L 34.71875 47.703125 
L 19.921875 47.703125 
L 19.921875 0 
L 10.890625 0 
L 10.890625 47.703125 
L 2.296875 47.703125 
L 2.296875 54.6875 
L 10.890625 54.6875 
L 10.890625 58.5 
Q 10.890625 67.625 15.140625 71.796875 
Q 19.390625 75.984375 28.609375 75.984375 
z
" id="DejaVuSans-102"/>
      </defs>
      <use xlink:href="#DejaVuSans-99"/>
      <use x="54.980469" xlink:href="#DejaVuSans-117"/>
      <use x="118.359375" xlink:href="#DejaVuSans-116"/>
      <use x="157.568359" xlink:href="#DejaVuSans-111"/>
      <use x="218.75" xlink:href="#DejaVuSans-102"/>
      <use x="253.955078" xlink:href="#DejaVuSans-102"/>
     </g>
    </g>
   </g>
   <g id="matplotlib.axis_2">
    <g id="ytick_1">
     <g id="line2d_7">
      <defs>
       <path d="M 0 0 
L -3.5 0 
" id="mdc911cbd54" style="stroke:#000000;stroke-width:0.8;"/>
      </defs>
      <g>
       <use style="stroke:#000000;stroke-width:0.8;" x="50.14375" xlink:href="#mdc911cbd54" y="246.451398"/>
      </g>
     </g>
     <g id="text_8">
      <!-- 0.55 -->
      <g transform="translate(20.878125 250.250617)scale(0.1 -0.1)">
       <defs>
        <path d="M 10.796875 72.90625 
L 49.515625 72.90625 
L 49.515625 64.59375 
L 19.828125 64.59375 
L 19.828125 46.734375 
Q 21.96875 47.46875 24.109375 47.828125 
Q 26.265625 48.1875 28.421875 48.1875 
Q 40.625 48.1875 47.75 41.5 
Q 54.890625 34.8125 54.890625 23.390625 
Q 54.890625 11.625 47.5625 5.09375 
Q 40.234375 -1.421875 26.90625 -1.421875 
Q 22.3125 -1.421875 17.546875 -0.640625 
Q 12.796875 0.140625 7.71875 1.703125 
L 7.71875 11.625 
Q 12.109375 9.234375 16.796875 8.0625 
Q 21.484375 6.890625 26.703125 6.890625 
Q 35.15625 6.890625 40.078125 11.328125 
Q 45.015625 15.765625 45.015625 23.390625 
Q 45.015625 31 40.078125 35.4375 
Q 35.15625 39.890625 26.703125 39.890625 
Q 22.75 39.890625 18.8125 39.015625 
Q 14.890625 38.140625 10.796875 36.28125 
z
" id="DejaVuSans-53"/>
       </defs>
       <use xlink:href="#DejaVuSans-48"/>
       <use x="63.623047" xlink:href="#DejaVuSans-46"/>
       <use x="95.410156" xlink:href="#DejaVuSans-53"/>
       <use x="159.033203" xlink:href="#DejaVuSans-53"/>
      </g>
     </g>
    </g>
    <g id="ytick_2">
     <g id="line2d_8">
      <g>
       <use style="stroke:#000000;stroke-width:0.8;" x="50.14375" xlink:href="#mdc911cbd54" y="213.231043"/>
      </g>
     </g>
     <g id="text_9">
      <!-- 0.60 -->
      <g transform="translate(20.878125 217.030262)scale(0.1 -0.1)">
       <use xlink:href="#DejaVuSans-48"/>
       <use x="63.623047" xlink:href="#DejaVuSans-46"/>
       <use x="95.410156" xlink:href="#DejaVuSans-54"/>
       <use x="159.033203" xlink:href="#DejaVuSans-48"/>
      </g>
     </g>
    </g>
    <g id="ytick_3">
     <g id="line2d_9">
      <g>
       <use style="stroke:#000000;stroke-width:0.8;" x="50.14375" xlink:href="#mdc911cbd54" y="180.010689"/>
      </g>
     </g>
     <g id="text_10">
      <!-- 0.65 -->
      <g transform="translate(20.878125 183.809907)scale(0.1 -0.1)">
       <use xlink:href="#DejaVuSans-48"/>
       <use x="63.623047" xlink:href="#DejaVuSans-46"/>
       <use x="95.410156" xlink:href="#DejaVuSans-54"/>
       <use x="159.033203" xlink:href="#DejaVuSans-53"/>
      </g>
     </g>
    </g>
    <g id="ytick_4">
     <g id="line2d_10">
      <g>
       <use style="stroke:#000000;stroke-width:0.8;" x="50.14375" xlink:href="#mdc911cbd54" y="146.790334"/>
      </g>
     </g>
     <g id="text_11">
      <!-- 0.70 -->
      <g transform="translate(20.878125 150.589553)scale(0.1 -0.1)">
       <defs>
        <path d="M 8.203125 72.90625 
L 55.078125 72.90625 
L 55.078125 68.703125 
L 28.609375 0 
L 18.3125 0 
L 43.21875 64.59375 
L 8.203125 64.59375 
z
" id="DejaVuSans-55"/>
       </defs>
       <use xlink:href="#DejaVuSans-48"/>
       <use x="63.623047" xlink:href="#DejaVuSans-46"/>
       <use x="95.410156" xlink:href="#DejaVuSans-55"/>
       <use x="159.033203" xlink:href="#DejaVuSans-48"/>
      </g>
     </g>
    </g>
    <g id="ytick_5">
     <g id="line2d_11">
      <g>
       <use style="stroke:#000000;stroke-width:0.8;" x="50.14375" xlink:href="#mdc911cbd54" y="113.569979"/>
      </g>
     </g>
     <g id="text_12">
      <!-- 0.75 -->
      <g transform="translate(20.878125 117.369198)scale(0.1 -0.1)">
       <use xlink:href="#DejaVuSans-48"/>
       <use x="63.623047" xlink:href="#DejaVuSans-46"/>
       <use x="95.410156" xlink:href="#DejaVuSans-55"/>
       <use x="159.033203" xlink:href="#DejaVuSans-53"/>
      </g>
     </g>
    </g>
    <g id="ytick_6">
     <g id="line2d_12">
      <g>
       <use style="stroke:#000000;stroke-width:0.8;" x="50.14375" xlink:href="#mdc911cbd54" y="80.349625"/>
      </g>
     </g>
     <g id="text_13">
      <!-- 0.80 -->
      <g transform="translate(20.878125 84.148843)scale(0.1 -0.1)">
       <use xlink:href="#DejaVuSans-48"/>
       <use x="63.623047" xlink:href="#DejaVuSans-46"/>
       <use x="95.410156" xlink:href="#DejaVuSans-56"/>
       <use x="159.033203" xlink:href="#DejaVuSans-48"/>
      </g>
     </g>
    </g>
    <g id="ytick_7">
     <g id="line2d_13">
      <g>
       <use style="stroke:#000000;stroke-width:0.8;" x="50.14375" xlink:href="#mdc911cbd54" y="47.12927"/>
      </g>
     </g>
     <g id="text_14">
      <!-- 0.85 -->
      <g transform="translate(20.878125 50.928489)scale(0.1 -0.1)">
       <use xlink:href="#DejaVuSans-48"/>
       <use x="63.623047" xlink:href="#DejaVuSans-46"/>
       <use x="95.410156" xlink:href="#DejaVuSans-56"/>
       <use x="159.033203" xlink:href="#DejaVuSans-53"/>
      </g>
     </g>
    </g>
    <g id="ytick_8">
     <g id="line2d_14">
      <g>
       <use style="stroke:#000000;stroke-width:0.8;" x="50.14375" xlink:href="#mdc911cbd54" y="13.908915"/>
      </g>
     </g>
     <g id="text_15">
      <!-- 0.90 -->
      <g transform="translate(20.878125 17.708134)scale(0.1 -0.1)">
       <defs>
        <path d="M 10.984375 1.515625 
L 10.984375 10.5 
Q 14.703125 8.734375 18.5 7.8125 
Q 22.3125 6.890625 25.984375 6.890625 
Q 35.75 6.890625 40.890625 13.453125 
Q 46.046875 20.015625 46.78125 33.40625 
Q 43.953125 29.203125 39.59375 26.953125 
Q 35.25 24.703125 29.984375 24.703125 
Q 19.046875 24.703125 12.671875 31.3125 
Q 6.296875 37.9375 6.296875 49.421875 
Q 6.296875 60.640625 12.9375 67.421875 
Q 19.578125 74.21875 30.609375 74.21875 
Q 43.265625 74.21875 49.921875 64.515625 
Q 56.59375 54.828125 56.59375 36.375 
Q 56.59375 19.140625 48.40625 8.859375 
Q 40.234375 -1.421875 26.421875 -1.421875 
Q 22.703125 -1.421875 18.890625 -0.6875 
Q 15.09375 0.046875 10.984375 1.515625 
z
M 30.609375 32.421875 
Q 37.25 32.421875 41.125 36.953125 
Q 45.015625 41.5 45.015625 49.421875 
Q 45.015625 57.28125 41.125 61.84375 
Q 37.25 66.40625 30.609375 66.40625 
Q 23.96875 66.40625 20.09375 61.84375 
Q 16.21875 57.28125 16.21875 49.421875 
Q 16.21875 41.5 20.09375 36.953125 
Q 23.96875 32.421875 30.609375 32.421875 
z
" id="DejaVuSans-57"/>
       </defs>
       <use xlink:href="#DejaVuSans-48"/>
       <use x="63.623047" xlink:href="#DejaVuSans-46"/>
       <use x="95.410156" xlink:href="#DejaVuSans-57"/>
       <use x="159.033203" xlink:href="#DejaVuSans-48"/>
      </g>
     </g>
    </g>
    <g id="text_16">
     <!-- performance -->
     <g transform="translate(14.798438 172.278656)rotate(-90)scale(0.1 -0.1)">
      <defs>
       <path d="M 18.109375 8.203125 
L 18.109375 -20.796875 
L 9.078125 -20.796875 
L 9.078125 54.6875 
L 18.109375 54.6875 
L 18.109375 46.390625 
Q 20.953125 51.265625 25.265625 53.625 
Q 29.59375 56 35.59375 56 
Q 45.5625 56 51.78125 48.09375 
Q 58.015625 40.1875 58.015625 27.296875 
Q 58.015625 14.40625 51.78125 6.484375 
Q 45.5625 -1.421875 35.59375 -1.421875 
Q 29.59375 -1.421875 25.265625 0.953125 
Q 20.953125 3.328125 18.109375 8.203125 
z
M 48.6875 27.296875 
Q 48.6875 37.203125 44.609375 42.84375 
Q 40.53125 48.484375 33.40625 48.484375 
Q 26.265625 48.484375 22.1875 42.84375 
Q 18.109375 37.203125 18.109375 27.296875 
Q 18.109375 17.390625 22.1875 11.75 
Q 26.265625 6.109375 33.40625 6.109375 
Q 40.53125 6.109375 44.609375 11.75 
Q 48.6875 17.390625 48.6875 27.296875 
z
" id="DejaVuSans-112"/>
       <path d="M 56.203125 29.59375 
L 56.203125 25.203125 
L 14.890625 25.203125 
Q 15.484375 15.921875 20.484375 11.0625 
Q 25.484375 6.203125 34.421875 6.203125 
Q 39.59375 6.203125 44.453125 7.46875 
Q 49.3125 8.734375 54.109375 11.28125 
L 54.109375 2.78125 
Q 49.265625 0.734375 44.1875 -0.34375 
Q 39.109375 -1.421875 33.890625 -1.421875 
Q 20.796875 -1.421875 13.15625 6.1875 
Q 5.515625 13.8125 5.515625 26.8125 
Q 5.515625 40.234375 12.765625 48.109375 
Q 20.015625 56 32.328125 56 
Q 43.359375 56 49.78125 48.890625 
Q 56.203125 41.796875 56.203125 29.59375 
z
M 47.21875 32.234375 
Q 47.125 39.59375 43.09375 43.984375 
Q 39.0625 48.390625 32.421875 48.390625 
Q 24.90625 48.390625 20.390625 44.140625 
Q 15.875 39.890625 15.1875 32.171875 
z
" id="DejaVuSans-101"/>
       <path d="M 41.109375 46.296875 
Q 39.59375 47.171875 37.8125 47.578125 
Q 36.03125 48 33.890625 48 
Q 26.265625 48 22.1875 43.046875 
Q 18.109375 38.09375 18.109375 28.8125 
L 18.109375 0 
L 9.078125 0 
L 9.078125 54.6875 
L 18.109375 54.6875 
L 18.109375 46.1875 
Q 20.953125 51.171875 25.484375 53.578125 
Q 30.03125 56 36.53125 56 
Q 37.453125 56 38.578125 55.875 
Q 39.703125 55.765625 41.0625 55.515625 
z
" id="DejaVuSans-114"/>
       <path d="M 52 44.1875 
Q 55.375 50.25 60.0625 53.125 
Q 64.75 56 71.09375 56 
Q 79.640625 56 84.28125 50.015625 
Q 88.921875 44.046875 88.921875 33.015625 
L 88.921875 0 
L 79.890625 0 
L 79.890625 32.71875 
Q 79.890625 40.578125 77.09375 44.375 
Q 74.3125 48.1875 68.609375 48.1875 
Q 61.625 48.1875 57.5625 43.546875 
Q 53.515625 38.921875 53.515625 30.90625 
L 53.515625 0 
L 44.484375 0 
L 44.484375 32.71875 
Q 44.484375 40.625 41.703125 44.40625 
Q 38.921875 48.1875 33.109375 48.1875 
Q 26.21875 48.1875 22.15625 43.53125 
Q 18.109375 38.875 18.109375 30.90625 
L 18.109375 0 
L 9.078125 0 
L 9.078125 54.6875 
L 18.109375 54.6875 
L 18.109375 46.1875 
Q 21.1875 51.21875 25.484375 53.609375 
Q 29.78125 56 35.6875 56 
Q 41.65625 56 45.828125 52.96875 
Q 50 49.953125 52 44.1875 
z
" id="DejaVuSans-109"/>
       <path d="M 34.28125 27.484375 
Q 23.390625 27.484375 19.1875 25 
Q 14.984375 22.515625 14.984375 16.5 
Q 14.984375 11.71875 18.140625 8.90625 
Q 21.296875 6.109375 26.703125 6.109375 
Q 34.1875 6.109375 38.703125 11.40625 
Q 43.21875 16.703125 43.21875 25.484375 
L 43.21875 27.484375 
z
M 52.203125 31.203125 
L 52.203125 0 
L 43.21875 0 
L 43.21875 8.296875 
Q 40.140625 3.328125 35.546875 0.953125 
Q 30.953125 -1.421875 24.3125 -1.421875 
Q 15.921875 -1.421875 10.953125 3.296875 
Q 6 8.015625 6 15.921875 
Q 6 25.140625 12.171875 29.828125 
Q 18.359375 34.515625 30.609375 34.515625 
L 43.21875 34.515625 
L 43.21875 35.40625 
Q 43.21875 41.609375 39.140625 45 
Q 35.0625 48.390625 27.6875 48.390625 
Q 23 48.390625 18.546875 47.265625 
Q 14.109375 46.140625 10.015625 43.890625 
L 10.015625 52.203125 
Q 14.9375 54.109375 19.578125 55.046875 
Q 24.21875 56 28.609375 56 
Q 40.484375 56 46.34375 49.84375 
Q 52.203125 43.703125 52.203125 31.203125 
z
" id="DejaVuSans-97"/>
       <path d="M 54.890625 33.015625 
L 54.890625 0 
L 45.90625 0 
L 45.90625 32.71875 
Q 45.90625 40.484375 42.875 44.328125 
Q 39.84375 48.1875 33.796875 48.1875 
Q 26.515625 48.1875 22.3125 43.546875 
Q 18.109375 38.921875 18.109375 30.90625 
L 18.109375 0 
L 9.078125 0 
L 9.078125 54.6875 
L 18.109375 54.6875 
L 18.109375 46.1875 
Q 21.34375 51.125 25.703125 53.5625 
Q 30.078125 56 35.796875 56 
Q 45.21875 56 50.046875 50.171875 
Q 54.890625 44.34375 54.890625 33.015625 
z
" id="DejaVuSans-110"/>
      </defs>
      <use xlink:href="#DejaVuSans-112"/>
      <use x="63.476562" xlink:href="#DejaVuSans-101"/>
      <use x="125" xlink:href="#DejaVuSans-114"/>
      <use x="166.113281" xlink:href="#DejaVuSans-102"/>
      <use x="201.318359" xlink:href="#DejaVuSans-111"/>
      <use x="262.5" xlink:href="#DejaVuSans-114"/>
      <use x="301.863281" xlink:href="#DejaVuSans-109"/>
      <use x="399.275391" xlink:href="#DejaVuSans-97"/>
      <use x="460.554688" xlink:href="#DejaVuSans-110"/>
      <use x="523.933594" xlink:href="#DejaVuSans-99"/>
      <use x="578.914062" xlink:href="#DejaVuSans-101"/>
     </g>
    </g>
   </g>
   <g id="line2d_15">
    <path clip-path="url(#pef6b83e280)" d="M 66.376477 257.524849 
L 73.140114 256.918085 
L 79.90375 246.91929 
L 86.667386 241.705633 
L 93.431023 207.002227 
L 100.194659 200.57567 
L 106.958295 200.57567 
L 113.721932 190.029526 
L 120.485568 153.663511 
L 127.249205 208.485278 
L 134.012841 201.150914 
L 140.776477 205.848742 
L 147.540114 205.848742 
L 154.30375 173.366618 
L 161.067386 196.620866 
L 167.831023 196.620866 
L 174.594659 196.620866 
L 181.358295 187.785665 
L 188.121932 168.937237 
L 194.885568 168.937237 
L 201.649205 113.569979 
L 208.412841 113.569979 
L 215.176477 113.569979 
L 221.940114 113.569979 
L 228.70375 100.79292 
L 235.467386 19.296 
L 242.231023 19.296 
L 248.994659 19.296 
L 255.758295 19.296 
L 262.521932 19.296 
L 269.285568 19.296 
L 276.049205 19.296 
L 282.812841 19.296 
L 289.576477 19.296 
L 296.340114 19.296 
L 303.10375 19.296 
L 309.867386 19.296 
L 316.631023 19.296 
L 323.394659 19.296 
L 330.158295 19.296 
L 336.921932 19.296 
L 343.685568 19.296 
L 350.449205 19.296 
L 357.212841 19.296 
L 363.976477 19.296 
L 370.740114 19.296 
L 377.50375 19.296 
L 384.267386 19.296 
L 391.031023 19.296 
" style="fill:none;stroke:#f26b38;stroke-dasharray:7.4,3.2;stroke-dashoffset:0;stroke-width:2;"/>
   </g>
   <g id="line2d_16">
    <path clip-path="url(#pef6b83e280)" d="M 66.376477 180.010689 
L 73.140114 190.232336 
L 79.90375 190.232336 
L 86.667386 193.009958 
L 93.431023 146.790334 
L 100.194659 185.973316 
L 106.958295 185.973316 
L 113.721932 185.973316 
L 120.485568 174.76537 
L 127.249205 150.481485 
L 134.012841 76.063127 
L 140.776477 76.063127 
L 147.540114 76.063127 
L 154.30375 76.063127 
L 161.067386 76.063127 
L 167.831023 76.063127 
L 174.594659 30.519093 
L 181.358295 30.519093 
L 188.121932 30.519093 
L 194.885568 30.519093 
L 201.649205 30.519093 
L 208.412841 30.519093 
L 215.176477 30.519093 
L 221.940114 30.519093 
L 228.70375 30.519093 
L 235.467386 30.519093 
L 242.231023 30.519093 
L 248.994659 30.519093 
L 255.758295 30.519093 
L 262.521932 30.519093 
L 269.285568 30.519093 
L 276.049205 30.519093 
L 282.812841 30.519093 
L 289.576477 30.519093 
L 296.340114 30.519093 
L 303.10375 30.519093 
L 309.867386 30.519093 
L 316.631023 30.519093 
L 323.394659 30.519093 
L 330.158295 30.519093 
L 336.921932 30.519093 
L 343.685568 30.519093 
L 350.449205 30.519093 
L 357.212841 30.519093 
L 363.976477 30.519093 
L 370.740114 30.519093 
L 377.50375 30.519093 
L 384.267386 30.519093 
L 391.031023 30.519093 
" style="fill:none;stroke:#2f9599;stroke-dasharray:2,3.3;stroke-dashoffset:0;stroke-width:2;"/>
   </g>
   <g id="line2d_17">
    <path clip-path="url(#pef6b83e280)" d="M 66.376477 261.216 
L 73.140114 261.216 
L 79.90375 261.216 
L 86.667386 261.216 
L 93.431023 261.216 
L 100.194659 261.216 
L 106.958295 261.216 
L 113.721932 260.688693 
L 120.485568 251.197163 
L 127.249205 245.969944 
L 134.012841 245.969944 
L 140.776477 245.969944 
L 147.540114 229.337882 
L 154.30375 223.452691 
L 161.067386 191.08414 
L 167.831023 191.08414 
L 174.594659 187.090436 
L 181.358295 187.090436 
L 188.121932 187.090436 
L 194.885568 183.225562 
L 201.649205 183.225562 
L 208.412841 233.850574 
L 215.176477 233.850574 
L 221.940114 238.874826 
L 228.70375 238.874826 
L 235.467386 203.009396 
L 242.231023 218.654775 
L 248.994659 210.46268 
L 255.758295 193.009958 
L 262.521932 193.009958 
L 269.285568 193.009958 
L 276.049205 193.009958 
L 282.812841 193.009958 
L 289.576477 113.569979 
L 296.340114 113.569979 
L 303.10375 113.569979 
L 309.867386 113.569979 
L 316.631023 113.569979 
L 323.394659 113.569979 
L 330.158295 113.569979 
L 336.921932 113.569979 
L 343.685568 113.569979 
L 350.449205 113.569979 
L 357.212841 113.569979 
L 363.976477 113.569979 
L 370.740114 113.569979 
L 377.50375 113.569979 
L 384.267386 113.569979 
L 391.031023 113.569979 
" style="fill:none;stroke:#a7226e;stroke-dasharray:12.8,3.2,2,3.2;stroke-dashoffset:0;stroke-width:2;"/>
   </g>
   <g id="patch_3">
    <path d="M 50.14375 273.312 
L 50.14375 7.2 
" style="fill:none;stroke:#000000;stroke-linecap:square;stroke-linejoin:miter;stroke-width:0.8;"/>
   </g>
   <g id="patch_4">
    <path d="M 407.26375 273.312 
L 407.26375 7.2 
" style="fill:none;stroke:#000000;stroke-linecap:square;stroke-linejoin:miter;stroke-width:0.8;"/>
   </g>
   <g id="patch_5">
    <path d="M 50.14375 273.312 
L 407.26375 273.312 
" style="fill:none;stroke:#000000;stroke-linecap:square;stroke-linejoin:miter;stroke-width:0.8;"/>
   </g>
   <g id="patch_6">
    <path d="M 50.14375 7.2 
L 407.26375 7.2 
" style="fill:none;stroke:#000000;stroke-linecap:square;stroke-linejoin:miter;stroke-width:0.8;"/>
   </g>
   <g id="legend_1">
    <g id="patch_7">
     <path d="M 55.00175 43.890913 
L 135.617441 43.890913 
Q 137.005441 43.890913 137.005441 42.502913 
L 137.005441 12.058 
Q 137.005441 10.67 135.617441 10.67 
L 55.00175 10.67 
Q 53.61375 10.67 53.61375 12.058 
L 53.61375 42.502913 
Q 53.61375 43.890913 55.00175 43.890913 
z
" style="fill:#ffffff;opacity:0.8;stroke:#cccccc;stroke-linejoin:miter;"/>
    </g>
    <g id="PathCollection_5">
     <defs>
      <path d="M 0 3 
C 0.795609 3 1.55874 2.683901 2.12132 2.12132 
C 2.683901 1.55874 3 0.795609 3 0 
C 3 -0.795609 2.683901 -1.55874 2.12132 -2.12132 
C 1.55874 -2.683901 0.795609 -3 0 -3 
C -0.795609 -3 -1.55874 -2.683901 -2.12132 -2.12132 
C -2.683901 -1.55874 -3 -0.795609 -3 0 
C -3 0.795609 -2.683901 1.55874 -2.12132 2.12132 
C -1.55874 2.683901 -0.795609 3 0 3 
z
" id="m78f4abb212" style="stroke:#f26b38;"/>
     </defs>
     <g>
      <use style="fill:#f26b38;stroke:#f26b38;" x="63.32975" xlink:href="#m78f4abb212" y="16.897566"/>
     </g>
    </g>
    <g id="text_17">
     <!-- mean_err -->
     <g transform="translate(75.82175 18.719316)scale(0.0694 -0.0694)">
      <defs>
       <path d="M 50.984375 -16.609375 
L 50.984375 -23.578125 
L -0.984375 -23.578125 
L -0.984375 -16.609375 
z
" id="DejaVuSans-95"/>
      </defs>
      <use xlink:href="#DejaVuSans-109"/>
      <use x="97.412109" xlink:href="#DejaVuSans-101"/>
      <use x="158.935547" xlink:href="#DejaVuSans-97"/>
      <use x="220.214844" xlink:href="#DejaVuSans-110"/>
      <use x="283.59375" xlink:href="#DejaVuSans-95"/>
      <use x="333.59375" xlink:href="#DejaVuSans-101"/>
      <use x="395.117188" xlink:href="#DejaVuSans-114"/>
      <use x="434.480469" xlink:href="#DejaVuSans-114"/>
     </g>
    </g>
    <g id="PathCollection_6">
     <defs>
      <path d="M -1.5 3 
L 0 1.5 
L 1.5 3 
L 3 1.5 
L 1.5 0 
L 3 -1.5 
L 1.5 -3 
L 0 -1.5 
L -1.5 -3 
L -3 -1.5 
L -1.5 0 
L -3 1.5 
z
" id="m2a13381bf6" style="stroke:#2f9599;"/>
     </defs>
     <g>
      <use style="fill:#2f9599;stroke:#2f9599;" x="63.32975" xlink:href="#m2a13381bf6" y="27.277203"/>
     </g>
    </g>
    <g id="text_18">
     <!-- mean_sq_err -->
     <g transform="translate(75.82175 29.098953)scale(0.0694 -0.0694)">
      <defs>
       <path d="M 44.28125 53.078125 
L 44.28125 44.578125 
Q 40.484375 46.53125 36.375 47.5 
Q 32.28125 48.484375 27.875 48.484375 
Q 21.1875 48.484375 17.84375 46.4375 
Q 14.5 44.390625 14.5 40.28125 
Q 14.5 37.15625 16.890625 35.375 
Q 19.28125 33.59375 26.515625 31.984375 
L 29.59375 31.296875 
Q 39.15625 29.25 43.1875 25.515625 
Q 47.21875 21.78125 47.21875 15.09375 
Q 47.21875 7.46875 41.1875 3.015625 
Q 35.15625 -1.421875 24.609375 -1.421875 
Q 20.21875 -1.421875 15.453125 -0.5625 
Q 10.6875 0.296875 5.421875 2 
L 5.421875 11.28125 
Q 10.40625 8.6875 15.234375 7.390625 
Q 20.0625 6.109375 24.8125 6.109375 
Q 31.15625 6.109375 34.5625 8.28125 
Q 37.984375 10.453125 37.984375 14.40625 
Q 37.984375 18.0625 35.515625 20.015625 
Q 33.0625 21.96875 24.703125 23.78125 
L 21.578125 24.515625 
Q 13.234375 26.265625 9.515625 29.90625 
Q 5.8125 33.546875 5.8125 39.890625 
Q 5.8125 47.609375 11.28125 51.796875 
Q 16.75 56 26.8125 56 
Q 31.78125 56 36.171875 55.265625 
Q 40.578125 54.546875 44.28125 53.078125 
z
" id="DejaVuSans-115"/>
       <path d="M 14.796875 27.296875 
Q 14.796875 17.390625 18.875 11.75 
Q 22.953125 6.109375 30.078125 6.109375 
Q 37.203125 6.109375 41.296875 11.75 
Q 45.40625 17.390625 45.40625 27.296875 
Q 45.40625 37.203125 41.296875 42.84375 
Q 37.203125 48.484375 30.078125 48.484375 
Q 22.953125 48.484375 18.875 42.84375 
Q 14.796875 37.203125 14.796875 27.296875 
z
M 45.40625 8.203125 
Q 42.578125 3.328125 38.25 0.953125 
Q 33.9375 -1.421875 27.875 -1.421875 
Q 17.96875 -1.421875 11.734375 6.484375 
Q 5.515625 14.40625 5.515625 27.296875 
Q 5.515625 40.1875 11.734375 48.09375 
Q 17.96875 56 27.875 56 
Q 33.9375 56 38.25 53.625 
Q 42.578125 51.265625 45.40625 46.390625 
L 45.40625 54.6875 
L 54.390625 54.6875 
L 54.390625 -20.796875 
L 45.40625 -20.796875 
z
" id="DejaVuSans-113"/>
      </defs>
      <use xlink:href="#DejaVuSans-109"/>
      <use x="97.412109" xlink:href="#DejaVuSans-101"/>
      <use x="158.935547" xlink:href="#DejaVuSans-97"/>
      <use x="220.214844" xlink:href="#DejaVuSans-110"/>
      <use x="283.59375" xlink:href="#DejaVuSans-95"/>
      <use x="333.59375" xlink:href="#DejaVuSans-115"/>
      <use x="385.693359" xlink:href="#DejaVuSans-113"/>
      <use x="449.169922" xlink:href="#DejaVuSans-95"/>
      <use x="499.169922" xlink:href="#DejaVuSans-101"/>
      <use x="560.693359" xlink:href="#DejaVuSans-114"/>
      <use x="600.056641" xlink:href="#DejaVuSans-114"/>
     </g>
    </g>
    <g id="PathCollection_7">
     <defs>
      <path d="M -2.12132 -2.12132 
L -2.12132 2.12132 
L 2.12132 2.12132 
L 2.12132 -2.12132 
z
" id="m6889196f10" style="stroke:#a7226e;"/>
     </defs>
     <g>
      <use style="fill:#a7226e;stroke:#a7226e;" x="63.32975" xlink:href="#m6889196f10" y="37.656841"/>
     </g>
    </g>
    <g id="text_19">
     <!-- mean_sqroot_err -->
     <g transform="translate(75.82175 39.478591)scale(0.0694 -0.0694)">
      <use xlink:href="#DejaVuSans-109"/>
      <use x="97.412109" xlink:href="#DejaVuSans-101"/>
      <use x="158.935547" xlink:href="#DejaVuSans-97"/>
      <use x="220.214844" xlink:href="#DejaVuSans-110"/>
      <use x="283.59375" xlink:href="#DejaVuSans-95"/>
      <use x="333.59375" xlink:href="#DejaVuSans-115"/>
      <use x="385.693359" xlink:href="#DejaVuSans-113"/>
      <use x="449.169922" xlink:href="#DejaVuSans-114"/>
      <use x="488.033203" xlink:href="#DejaVuSans-111"/>
      <use x="549.214844" xlink:href="#DejaVuSans-111"/>
      <use x="610.396484" xlink:href="#DejaVuSans-116"/>
      <use x="649.605469" xlink:href="#DejaVuSans-95"/>
      <use x="699.605469" xlink:href="#DejaVuSans-101"/>
      <use x="761.128906" xlink:href="#DejaVuSans-114"/>
      <use x="800.492188" xlink:href="#DejaVuSans-114"/>
     </g>
    </g>
   </g>
  </g>
 </g>
 <defs>
  <clipPath id="pef6b83e280">
   <rect height="266.112" width="357.12" x="50.14375" y="7.2"/>
  </clipPath>
 </defs>
</svg>
