<?xml version="1.0" encoding="utf-8" standalone="no"?>
<!DOCTYPE svg PUBLIC "-//W3C//DTD SVG 1.1//EN"
  "http://www.w3.org/Graphics/SVG/1.1/DTD/svg11.dtd">
<!-- Created with matplotlib (https://matplotlib.org/) -->
<svg height="310.86825pt" version="1.1" viewBox="0 0 408.10125 310.86825" width="408.10125pt" xmlns="http://www.w3.org/2000/svg" xmlns:xlink="http://www.w3.org/1999/xlink">
 <metadata>
  <rdf:RDF xmlns:cc="http://creativecommons.org/ns#" xmlns:dc="http://purl.org/dc/elements/1.1/" xmlns:rdf="http://www.w3.org/1999/02/22-rdf-syntax-ns#">
   <cc:Work>
    <dc:type rdf:resource="http://purl.org/dc/dcmitype/StillImage"/>
    <dc:date>2022-05-05T11:23:19.731335</dc:date>
    <dc:format>image/svg+xml</dc:format>
    <dc:creator>
     <cc:Agent>
      <dc:title>Matplotlib v3.3.4, https://matplotlib.org/</dc:title>
     </cc:Agent>
    </dc:creator>
   </cc:Work>
  </rdf:RDF>
 </metadata>
 <defs>
  <style type="text/css">*{stroke-linecap:butt;stroke-linejoin:round;}</style>
 </defs>
 <g id="figure_1">
  <g id="patch_1">
   <path d="M 0 310.86825 
L 408.10125 310.86825 
L 408.10125 0 
L 0 0 
z
" style="fill:#ffffff;"/>
  </g>
  <g id="axes_1">
   <g id="patch_2">
    <path d="M 43.78125 273.312 
L 400.90125 273.312 
L 400.90125 7.2 
L 43.78125 7.2 
z
" style="fill:#ffffff;"/>
   </g>
   <g id="PathCollection_1">
    <path clip-path="url(#p036ab4bc8d)" d="M 60.013977 52.416204 
C 60.809587 52.416204 61.572717 52.100105 62.135298 51.537524 
C 62.697878 50.974943 63.013977 50.211813 63.013977 49.416204 
C 63.013977 48.620594 62.697878 47.857464 62.135298 47.294883 
C 61.572717 46.732303 60.809587 46.416204 60.013977 46.416204 
C 59.218368 46.416204 58.455238 46.732303 57.892657 47.294883 
C 57.330076 47.857464 57.013977 48.620594 57.013977 49.416204 
C 57.013977 50.211813 57.330076 50.974943 57.892657 51.537524 
C 58.455238 52.100105 59.218368 52.416204 60.013977 52.416204 
z
" style="fill:#f26b38;stroke:#ffffff;stroke-width:0.48;"/>
    <path clip-path="url(#p036ab4bc8d)" d="M 66.777614 65.21729 
C 67.573223 65.21729 68.336353 64.901191 68.898934 64.338611 
C 69.461515 63.77603 69.777614 63.0129 69.777614 62.21729 
C 69.777614 61.421681 69.461515 60.658551 68.898934 60.09597 
C 68.336353 59.533389 67.573223 59.21729 66.777614 59.21729 
C 65.982004 59.21729 65.218874 59.533389 64.656293 60.09597 
C 64.093713 60.658551 63.777614 61.421681 63.777614 62.21729 
C 63.777614 63.0129 64.093713 63.77603 64.656293 64.338611 
C 65.218874 64.901191 65.982004 65.21729 66.777614 65.21729 
z
" style="fill:#f26b38;stroke:#ffffff;stroke-width:0.48;"/>
    <path clip-path="url(#p036ab4bc8d)" d="M 73.54125 65.21729 
C 74.336859 65.21729 75.09999 64.901191 75.66257 64.338611 
C 76.225151 63.77603 76.54125 63.0129 76.54125 62.21729 
C 76.54125 61.421681 76.225151 60.658551 75.66257 60.09597 
C 75.09999 59.533389 74.336859 59.21729 73.54125 59.21729 
C 72.745641 59.21729 71.98251 59.533389 71.41993 60.09597 
C 70.857349 60.658551 70.54125 61.421681 70.54125 62.21729 
C 70.54125 63.0129 70.857349 63.77603 71.41993 64.338611 
C 71.98251 64.901191 72.745641 65.21729 73.54125 65.21729 
z
" style="fill:#f26b38;stroke:#ffffff;stroke-width:0.48;"/>
    <path clip-path="url(#p036ab4bc8d)" d="M 80.304886 65.21729 
C 81.100496 65.21729 81.863626 64.901191 82.426207 64.338611 
C 82.988787 63.77603 83.304886 63.0129 83.304886 62.21729 
C 83.304886 61.421681 82.988787 60.658551 82.426207 60.09597 
C 81.863626 59.533389 81.100496 59.21729 80.304886 59.21729 
C 79.509277 59.21729 78.746147 59.533389 78.183566 60.09597 
C 77.620985 60.658551 77.304886 61.421681 77.304886 62.21729 
C 77.304886 63.0129 77.620985 63.77603 78.183566 64.338611 
C 78.746147 64.901191 79.509277 65.21729 80.304886 65.21729 
z
" style="fill:#f26b38;stroke:#ffffff;stroke-width:0.48;"/>
    <path clip-path="url(#p036ab4bc8d)" d="M 87.068523 58.760105 
C 87.864132 58.760105 88.627262 58.444006 89.189843 57.881425 
C 89.752424 57.318845 90.068523 56.555714 90.068523 55.760105 
C 90.068523 54.964496 89.752424 54.201365 89.189843 53.638785 
C 88.627262 53.076204 87.864132 52.760105 87.068523 52.760105 
C 86.272913 52.760105 85.509783 53.076204 84.947202 53.638785 
C 84.384622 54.201365 84.068523 54.964496 84.068523 55.760105 
C 84.068523 56.555714 84.384622 57.318845 84.947202 57.881425 
C 85.509783 58.444006 86.272913 58.760105 87.068523 58.760105 
z
" style="fill:#f26b38;stroke:#ffffff;stroke-width:0.48;"/>
    <path clip-path="url(#p036ab4bc8d)" d="M 93.832159 78.483871 
C 94.627768 78.483871 95.390899 78.167772 95.953479 77.605191 
C 96.51606 77.042611 96.832159 76.27948 96.832159 75.483871 
C 96.832159 74.688262 96.51606 73.925131 95.953479 73.362551 
C 95.390899 72.79997 94.627768 72.483871 93.832159 72.483871 
C 93.03655 72.483871 92.273419 72.79997 91.710839 73.362551 
C 91.148258 73.925131 90.832159 74.688262 90.832159 75.483871 
C 90.832159 76.27948 91.148258 77.042611 91.710839 77.605191 
C 92.273419 78.167772 93.03655 78.483871 93.832159 78.483871 
z
" style="fill:#f26b38;stroke:#ffffff;stroke-width:0.48;"/>
    <path clip-path="url(#p036ab4bc8d)" d="M 100.595795 28.115836 
C 101.391405 28.115836 102.154535 27.799737 102.717116 27.237156 
C 103.279697 26.674576 103.595795 25.911445 103.595795 25.115836 
C 103.595795 24.320227 103.279697 23.557096 102.717116 22.994516 
C 102.154535 22.431935 101.391405 22.115836 100.595795 22.115836 
C 99.800186 22.115836 99.037056 22.431935 98.474475 22.994516 
C 97.911894 23.557096 97.595795 24.320227 97.595795 25.115836 
C 97.595795 25.911445 97.911894 26.674576 98.474475 27.237156 
C 99.037056 27.799737 99.800186 28.115836 100.595795 28.115836 
z
" style="fill:#f26b38;stroke:#ffffff;stroke-width:0.48;"/>
    <path clip-path="url(#p036ab4bc8d)" d="M 107.359432 28.115836 
C 108.155041 28.115836 108.918171 27.799737 109.480752 27.237156 
C 110.043333 26.674576 110.359432 25.911445 110.359432 25.115836 
C 110.359432 24.320227 110.043333 23.557096 109.480752 22.994516 
C 108.918171 22.431935 108.155041 22.115836 107.359432 22.115836 
C 106.563823 22.115836 105.800692 22.431935 105.238111 22.994516 
C 104.675531 23.557096 104.359432 24.320227 104.359432 25.115836 
C 104.359432 25.911445 104.675531 26.674576 105.238111 27.237156 
C 105.800692 27.799737 106.563823 28.115836 107.359432 28.115836 
z
" style="fill:#f26b38;stroke:#ffffff;stroke-width:0.48;"/>
    <path clip-path="url(#p036ab4bc8d)" d="M 114.123068 28.115836 
C 114.918677 28.115836 115.681808 27.799737 116.244389 27.237156 
C 116.806969 26.674576 117.123068 25.911445 117.123068 25.115836 
C 117.123068 24.320227 116.806969 23.557096 116.244389 22.994516 
C 115.681808 22.431935 114.918677 22.115836 114.123068 22.115836 
C 113.327459 22.115836 112.564329 22.431935 112.001748 22.994516 
C 111.439167 23.557096 111.123068 24.320227 111.123068 25.115836 
C 111.123068 25.911445 111.439167 26.674576 112.001748 27.237156 
C 112.564329 27.799737 113.327459 28.115836 114.123068 28.115836 
z
" style="fill:#f26b38;stroke:#ffffff;stroke-width:0.48;"/>
    <path clip-path="url(#p036ab4bc8d)" d="M 120.886705 34.035156 
C 121.682314 34.035156 122.445444 33.719057 123.008025 33.156477 
C 123.570606 32.593896 123.886705 31.830766 123.886705 31.035156 
C 123.886705 30.239547 123.570606 29.476417 123.008025 28.913836 
C 122.445444 28.351255 121.682314 28.035156 120.886705 28.035156 
C 120.091095 28.035156 119.327965 28.351255 118.765384 28.913836 
C 118.202803 29.476417 117.886705 30.239547 117.886705 31.035156 
C 117.886705 31.830766 118.202803 32.593896 118.765384 33.156477 
C 119.327965 33.719057 120.091095 34.035156 120.886705 34.035156 
z
" style="fill:#f26b38;stroke:#ffffff;stroke-width:0.48;"/>
    <path clip-path="url(#p036ab4bc8d)" d="M 127.650341 52.416204 
C 128.44595 52.416204 129.209081 52.100105 129.771661 51.537524 
C 130.334242 50.974943 130.650341 50.211813 130.650341 49.416204 
C 130.650341 48.620594 130.334242 47.857464 129.771661 47.294883 
C 129.209081 46.732303 128.44595 46.416204 127.650341 46.416204 
C 126.854732 46.416204 126.091601 46.732303 125.529021 47.294883 
C 124.96644 47.857464 124.650341 48.620594 124.650341 49.416204 
C 124.650341 50.211813 124.96644 50.974943 125.529021 51.537524 
C 126.091601 52.100105 126.854732 52.416204 127.650341 52.416204 
z
" style="fill:#f26b38;stroke:#ffffff;stroke-width:0.48;"/>
    <path clip-path="url(#p036ab4bc8d)" d="M 134.413977 58.760105 
C 135.209587 58.760105 135.972717 58.444006 136.535298 57.881425 
C 137.097878 57.318845 137.413977 56.555714 137.413977 55.760105 
C 137.413977 54.964496 137.097878 54.201365 136.535298 53.638785 
C 135.972717 53.076204 135.209587 52.760105 134.413977 52.760105 
C 133.618368 52.760105 132.855238 53.076204 132.292657 53.638785 
C 131.730076 54.201365 131.413977 54.964496 131.413977 55.760105 
C 131.413977 56.555714 131.730076 57.318845 132.292657 57.881425 
C 132.855238 58.444006 133.618368 58.760105 134.413977 58.760105 
z
" style="fill:#f26b38;stroke:#ffffff;stroke-width:0.48;"/>
    <path clip-path="url(#p036ab4bc8d)" d="M 141.177614 128.974158 
C 141.973223 128.974158 142.736353 128.65806 143.298934 128.095479 
C 143.861515 127.532898 144.177614 126.769768 144.177614 125.974158 
C 144.177614 125.178549 143.861515 124.415419 143.298934 123.852838 
C 142.736353 123.290257 141.973223 122.974158 141.177614 122.974158 
C 140.382004 122.974158 139.618874 123.290257 139.056293 123.852838 
C 138.493713 124.415419 138.177614 125.178549 138.177614 125.974158 
C 138.177614 126.769768 138.493713 127.532898 139.056293 128.095479 
C 139.618874 128.65806 140.382004 128.974158 141.177614 128.974158 
z
" style="fill:#f26b38;stroke:#ffffff;stroke-width:0.48;"/>
    <path clip-path="url(#p036ab4bc8d)" d="M 147.94125 128.974158 
C 148.736859 128.974158 149.49999 128.65806 150.06257 128.095479 
C 150.625151 127.532898 150.94125 126.769768 150.94125 125.974158 
C 150.94125 125.178549 150.625151 124.415419 150.06257 123.852838 
C 149.49999 123.290257 148.736859 122.974158 147.94125 122.974158 
C 147.145641 122.974158 146.38251 123.290257 145.81993 123.852838 
C 145.257349 124.415419 144.94125 125.178549 144.94125 125.974158 
C 144.94125 126.769768 145.257349 127.532898 145.81993 128.095479 
C 146.38251 128.65806 147.145641 128.974158 147.94125 128.974158 
z
" style="fill:#f26b38;stroke:#ffffff;stroke-width:0.48;"/>
    <path clip-path="url(#p036ab4bc8d)" d="M 154.704886 58.760105 
C 155.500496 58.760105 156.263626 58.444006 156.826207 57.881425 
C 157.388787 57.318845 157.704886 56.555714 157.704886 55.760105 
C 157.704886 54.964496 157.388787 54.201365 156.826207 53.638785 
C 156.263626 53.076204 155.500496 52.760105 154.704886 52.760105 
C 153.909277 52.760105 153.146147 53.076204 152.583566 53.638785 
C 152.020985 54.201365 151.704886 54.964496 151.704886 55.760105 
C 151.704886 56.555714 152.020985 57.318845 152.583566 57.881425 
C 153.146147 58.444006 153.909277 58.760105 154.704886 58.760105 
z
" style="fill:#f26b38;stroke:#ffffff;stroke-width:0.48;"/>
    <path clip-path="url(#p036ab4bc8d)" d="M 161.468523 58.760105 
C 162.264132 58.760105 163.027262 58.444006 163.589843 57.881425 
C 164.152424 57.318845 164.468523 56.555714 164.468523 55.760105 
C 164.468523 54.964496 164.152424 54.201365 163.589843 53.638785 
C 163.027262 53.076204 162.264132 52.760105 161.468523 52.760105 
C 160.672913 52.760105 159.909783 53.076204 159.347202 53.638785 
C 158.784622 54.201365 158.468523 54.964496 158.468523 55.760105 
C 158.468523 56.555714 158.784622 57.318845 159.347202 57.881425 
C 159.909783 58.444006 160.672913 58.760105 161.468523 58.760105 
z
" style="fill:#f26b38;stroke:#ffffff;stroke-width:0.48;"/>
    <path clip-path="url(#p036ab4bc8d)" d="M 168.232159 58.760105 
C 169.027768 58.760105 169.790899 58.444006 170.353479 57.881425 
C 170.91606 57.318845 171.232159 56.555714 171.232159 55.760105 
C 171.232159 54.964496 170.91606 54.201365 170.353479 53.638785 
C 169.790899 53.076204 169.027768 52.760105 168.232159 52.760105 
C 167.43655 52.760105 166.673419 53.076204 166.110839 53.638785 
C 165.548258 54.201365 165.232159 54.964496 165.232159 55.760105 
C 165.232159 56.555714 165.548258 57.318845 166.110839 57.881425 
C 166.673419 58.444006 167.43655 58.760105 168.232159 58.760105 
z
" style="fill:#f26b38;stroke:#ffffff;stroke-width:0.48;"/>
    <path clip-path="url(#p036ab4bc8d)" d="M 174.995795 58.760105 
C 175.791405 58.760105 176.554535 58.444006 177.117116 57.881425 
C 177.679697 57.318845 177.995795 56.555714 177.995795 55.760105 
C 177.995795 54.964496 177.679697 54.201365 177.117116 53.638785 
C 176.554535 53.076204 175.791405 52.760105 174.995795 52.760105 
C 174.200186 52.760105 173.437056 53.076204 172.874475 53.638785 
C 172.311894 54.201365 171.995795 54.964496 171.995795 55.760105 
C 171.995795 56.555714 172.311894 57.318845 172.874475 57.881425 
C 173.437056 58.444006 174.200186 58.760105 174.995795 58.760105 
z
" style="fill:#f26b38;stroke:#ffffff;stroke-width:0.48;"/>
    <path clip-path="url(#p036ab4bc8d)" d="M 181.759432 85.299729 
C 182.555041 85.299729 183.318171 84.98363 183.880752 84.421049 
C 184.443333 83.858469 184.759432 83.095338 184.759432 82.299729 
C 184.759432 81.50412 184.443333 80.740989 183.880752 80.178409 
C 183.318171 79.615828 182.555041 79.299729 181.759432 79.299729 
C 180.963823 79.299729 180.200692 79.615828 179.638111 80.178409 
C 179.075531 80.740989 178.759432 81.50412 178.759432 82.299729 
C 178.759432 83.095338 179.075531 83.858469 179.638111 84.421049 
C 180.200692 84.98363 180.963823 85.299729 181.759432 85.299729 
z
" style="fill:#f26b38;stroke:#ffffff;stroke-width:0.48;"/>
    <path clip-path="url(#p036ab4bc8d)" d="M 188.523068 58.760105 
C 189.318677 58.760105 190.081808 58.444006 190.644389 57.881425 
C 191.206969 57.318845 191.523068 56.555714 191.523068 55.760105 
C 191.523068 54.964496 191.206969 54.201365 190.644389 53.638785 
C 190.081808 53.076204 189.318677 52.760105 188.523068 52.760105 
C 187.727459 52.760105 186.964329 53.076204 186.401748 53.638785 
C 185.839167 54.201365 185.523068 54.964496 185.523068 55.760105 
C 185.523068 56.555714 185.839167 57.318845 186.401748 57.881425 
C 186.964329 58.444006 187.727459 58.760105 188.523068 58.760105 
z
" style="fill:#f26b38;stroke:#ffffff;stroke-width:0.48;"/>
    <path clip-path="url(#p036ab4bc8d)" d="M 195.286705 85.299729 
C 196.082314 85.299729 196.845444 84.98363 197.408025 84.421049 
C 197.970606 83.858469 198.286705 83.095338 198.286705 82.299729 
C 198.286705 81.50412 197.970606 80.740989 197.408025 80.178409 
C 196.845444 79.615828 196.082314 79.299729 195.286705 79.299729 
C 194.491095 79.299729 193.727965 79.615828 193.165384 80.178409 
C 192.602803 80.740989 192.286705 81.50412 192.286705 82.299729 
C 192.286705 83.095338 192.602803 83.858469 193.165384 84.421049 
C 193.727965 84.98363 194.491095 85.299729 195.286705 85.299729 
z
" style="fill:#f26b38;stroke:#ffffff;stroke-width:0.48;"/>
    <path clip-path="url(#p036ab4bc8d)" d="M 202.050341 85.299729 
C 202.84595 85.299729 203.609081 84.98363 204.171661 84.421049 
C 204.734242 83.858469 205.050341 83.095338 205.050341 82.299729 
C 205.050341 81.50412 204.734242 80.740989 204.171661 80.178409 
C 203.609081 79.615828 202.84595 79.299729 202.050341 79.299729 
C 201.254732 79.299729 200.491601 79.615828 199.929021 80.178409 
C 199.36644 80.740989 199.050341 81.50412 199.050341 82.299729 
C 199.050341 83.095338 199.36644 83.858469 199.929021 84.421049 
C 200.491601 84.98363 201.254732 85.299729 202.050341 85.299729 
z
" style="fill:#f26b38;stroke:#ffffff;stroke-width:0.48;"/>
    <path clip-path="url(#p036ab4bc8d)" d="M 208.813977 85.299729 
C 209.609587 85.299729 210.372717 84.98363 210.935298 84.421049 
C 211.497878 83.858469 211.813977 83.095338 211.813977 82.299729 
C 211.813977 81.50412 211.497878 80.740989 210.935298 80.178409 
C 210.372717 79.615828 209.609587 79.299729 208.813977 79.299729 
C 208.018368 79.299729 207.255238 79.615828 206.692657 80.178409 
C 206.130076 80.740989 205.813977 81.50412 205.813977 82.299729 
C 205.813977 83.095338 206.130076 83.858469 206.692657 84.421049 
C 207.255238 84.98363 208.018368 85.299729 208.813977 85.299729 
z
" style="fill:#f26b38;stroke:#ffffff;stroke-width:0.48;"/>
    <path clip-path="url(#p036ab4bc8d)" d="M 215.577614 85.299729 
C 216.373223 85.299729 217.136353 84.98363 217.698934 84.421049 
C 218.261515 83.858469 218.577614 83.095338 218.577614 82.299729 
C 218.577614 81.50412 218.261515 80.740989 217.698934 80.178409 
C 217.136353 79.615828 216.373223 79.299729 215.577614 79.299729 
C 214.782004 79.299729 214.018874 79.615828 213.456293 80.178409 
C 212.893713 80.740989 212.577614 81.50412 212.577614 82.299729 
C 212.577614 83.095338 212.893713 83.858469 213.456293 84.421049 
C 214.018874 84.98363 214.782004 85.299729 215.577614 85.299729 
z
" style="fill:#f26b38;stroke:#ffffff;stroke-width:0.48;"/>
    <path clip-path="url(#p036ab4bc8d)" d="M 222.34125 121.345132 
C 223.136859 121.345132 223.89999 121.029033 224.46257 120.466452 
C 225.025151 119.903871 225.34125 119.140741 225.34125 118.345132 
C 225.34125 117.549522 225.025151 116.786392 224.46257 116.223811 
C 223.89999 115.66123 223.136859 115.345132 222.34125 115.345132 
C 221.545641 115.345132 220.78251 115.66123 220.21993 116.223811 
C 219.657349 116.786392 219.34125 117.549522 219.34125 118.345132 
C 219.34125 119.140741 219.657349 119.903871 220.21993 120.466452 
C 220.78251 121.029033 221.545641 121.345132 222.34125 121.345132 
z
" style="fill:#f26b38;stroke:#ffffff;stroke-width:0.48;"/>
    <path clip-path="url(#p036ab4bc8d)" d="M 229.104886 204.939789 
C 229.900496 204.939789 230.663626 204.62369 231.226207 204.061109 
C 231.788787 203.498528 232.104886 202.735398 232.104886 201.939789 
C 232.104886 201.144179 231.788787 200.381049 231.226207 199.818468 
C 230.663626 199.255888 229.900496 198.939789 229.104886 198.939789 
C 228.309277 198.939789 227.546147 199.255888 226.983566 199.818468 
C 226.420985 200.381049 226.104886 201.144179 226.104886 201.939789 
C 226.104886 202.735398 226.420985 203.498528 226.983566 204.061109 
C 227.546147 204.62369 228.309277 204.939789 229.104886 204.939789 
z
" style="fill:#f26b38;stroke:#ffffff;stroke-width:0.48;"/>
    <path clip-path="url(#p036ab4bc8d)" d="M 235.868523 204.939789 
C 236.664132 204.939789 237.427262 204.62369 237.989843 204.061109 
C 238.552424 203.498528 238.868523 202.735398 238.868523 201.939789 
C 238.868523 201.144179 238.552424 200.381049 237.989843 199.818468 
C 237.427262 199.255888 236.664132 198.939789 235.868523 198.939789 
C 235.072913 198.939789 234.309783 199.255888 233.747202 199.818468 
C 233.184622 200.381049 232.868523 201.144179 232.868523 201.939789 
C 232.868523 202.735398 233.184622 203.498528 233.747202 204.061109 
C 234.309783 204.62369 235.072913 204.939789 235.868523 204.939789 
z
" style="fill:#f26b38;stroke:#ffffff;stroke-width:0.48;"/>
    <path clip-path="url(#p036ab4bc8d)" d="M 242.632159 204.939789 
C 243.427768 204.939789 244.190899 204.62369 244.753479 204.061109 
C 245.31606 203.498528 245.632159 202.735398 245.632159 201.939789 
C 245.632159 201.144179 245.31606 200.381049 244.753479 199.818468 
C 244.190899 199.255888 243.427768 198.939789 242.632159 198.939789 
C 241.83655 198.939789 241.073419 199.255888 240.510839 199.818468 
C 239.948258 200.381049 239.632159 201.144179 239.632159 201.939789 
C 239.632159 202.735398 239.948258 203.498528 240.510839 204.061109 
C 241.073419 204.62369 241.83655 204.939789 242.632159 204.939789 
z
" style="fill:#f26b38;stroke:#ffffff;stroke-width:0.48;"/>
    <path clip-path="url(#p036ab4bc8d)" d="M 249.395795 204.939789 
C 250.191405 204.939789 250.954535 204.62369 251.517116 204.061109 
C 252.079697 203.498528 252.395795 202.735398 252.395795 201.939789 
C 252.395795 201.144179 252.079697 200.381049 251.517116 199.818468 
C 250.954535 199.255888 250.191405 198.939789 249.395795 198.939789 
C 248.600186 198.939789 247.837056 199.255888 247.274475 199.818468 
C 246.711894 200.381049 246.395795 201.144179 246.395795 201.939789 
C 246.395795 202.735398 246.711894 203.498528 247.274475 204.061109 
C 247.837056 204.62369 248.600186 204.939789 249.395795 204.939789 
z
" style="fill:#f26b38;stroke:#ffffff;stroke-width:0.48;"/>
    <path clip-path="url(#p036ab4bc8d)" d="M 256.159432 204.939789 
C 256.955041 204.939789 257.718171 204.62369 258.280752 204.061109 
C 258.843333 203.498528 259.159432 202.735398 259.159432 201.939789 
C 259.159432 201.144179 258.843333 200.381049 258.280752 199.818468 
C 257.718171 199.255888 256.955041 198.939789 256.159432 198.939789 
C 255.363823 198.939789 254.600692 199.255888 254.038111 199.818468 
C 253.475531 200.381049 253.159432 201.144179 253.159432 201.939789 
C 253.159432 202.735398 253.475531 203.498528 254.038111 204.061109 
C 254.600692 204.62369 255.363823 204.939789 256.159432 204.939789 
z
" style="fill:#f26b38;stroke:#ffffff;stroke-width:0.48;"/>
    <path clip-path="url(#p036ab4bc8d)" d="M 262.923068 204.939789 
C 263.718677 204.939789 264.481808 204.62369 265.044389 204.061109 
C 265.606969 203.498528 265.923068 202.735398 265.923068 201.939789 
C 265.923068 201.144179 265.606969 200.381049 265.044389 199.818468 
C 264.481808 199.255888 263.718677 198.939789 262.923068 198.939789 
C 262.127459 198.939789 261.364329 199.255888 260.801748 199.818468 
C 260.239167 200.381049 259.923068 201.144179 259.923068 201.939789 
C 259.923068 202.735398 260.239167 203.498528 260.801748 204.061109 
C 261.364329 204.62369 262.127459 204.939789 262.923068 204.939789 
z
" style="fill:#f26b38;stroke:#ffffff;stroke-width:0.48;"/>
    <path clip-path="url(#p036ab4bc8d)" d="M 269.686705 204.939789 
C 270.482314 204.939789 271.245444 204.62369 271.808025 204.061109 
C 272.370606 203.498528 272.686705 202.735398 272.686705 201.939789 
C 272.686705 201.144179 272.370606 200.381049 271.808025 199.818468 
C 271.245444 199.255888 270.482314 198.939789 269.686705 198.939789 
C 268.891095 198.939789 268.127965 199.255888 267.565384 199.818468 
C 267.002803 200.381049 266.686705 201.144179 266.686705 201.939789 
C 266.686705 202.735398 267.002803 203.498528 267.565384 204.061109 
C 268.127965 204.62369 268.891095 204.939789 269.686705 204.939789 
z
" style="fill:#f26b38;stroke:#ffffff;stroke-width:0.48;"/>
    <path clip-path="url(#p036ab4bc8d)" d="M 276.450341 204.939789 
C 277.24595 204.939789 278.009081 204.62369 278.571661 204.061109 
C 279.134242 203.498528 279.450341 202.735398 279.450341 201.939789 
C 279.450341 201.144179 279.134242 200.381049 278.571661 199.818468 
C 278.009081 199.255888 277.24595 198.939789 276.450341 198.939789 
C 275.654732 198.939789 274.891601 199.255888 274.329021 199.818468 
C 273.76644 200.381049 273.450341 201.144179 273.450341 201.939789 
C 273.450341 202.735398 273.76644 203.498528 274.329021 204.061109 
C 274.891601 204.62369 275.654732 204.939789 276.450341 204.939789 
z
" style="fill:#f26b38;stroke:#ffffff;stroke-width:0.48;"/>
    <path clip-path="url(#p036ab4bc8d)" d="M 283.213977 204.939789 
C 284.009587 204.939789 284.772717 204.62369 285.335298 204.061109 
C 285.897878 203.498528 286.213977 202.735398 286.213977 201.939789 
C 286.213977 201.144179 285.897878 200.381049 285.335298 199.818468 
C 284.772717 199.255888 284.009587 198.939789 283.213977 198.939789 
C 282.418368 198.939789 281.655238 199.255888 281.092657 199.818468 
C 280.530076 200.381049 280.213977 201.144179 280.213977 201.939789 
C 280.213977 202.735398 280.530076 203.498528 281.092657 204.061109 
C 281.655238 204.62369 282.418368 204.939789 283.213977 204.939789 
z
" style="fill:#f26b38;stroke:#ffffff;stroke-width:0.48;"/>
    <path clip-path="url(#p036ab4bc8d)" d="M 289.977614 204.939789 
C 290.773223 204.939789 291.536353 204.62369 292.098934 204.061109 
C 292.661515 203.498528 292.977614 202.735398 292.977614 201.939789 
C 292.977614 201.144179 292.661515 200.381049 292.098934 199.818468 
C 291.536353 199.255888 290.773223 198.939789 289.977614 198.939789 
C 289.182004 198.939789 288.418874 199.255888 287.856293 199.818468 
C 287.293713 200.381049 286.977614 201.144179 286.977614 201.939789 
C 286.977614 202.735398 287.293713 203.498528 287.856293 204.061109 
C 288.418874 204.62369 289.182004 204.939789 289.977614 204.939789 
z
" style="fill:#f26b38;stroke:#ffffff;stroke-width:0.48;"/>
    <path clip-path="url(#p036ab4bc8d)" d="M 296.74125 204.939789 
C 297.536859 204.939789 298.29999 204.62369 298.86257 204.061109 
C 299.425151 203.498528 299.74125 202.735398 299.74125 201.939789 
C 299.74125 201.144179 299.425151 200.381049 298.86257 199.818468 
C 298.29999 199.255888 297.536859 198.939789 296.74125 198.939789 
C 295.945641 198.939789 295.18251 199.255888 294.61993 199.818468 
C 294.057349 200.381049 293.74125 201.144179 293.74125 201.939789 
C 293.74125 202.735398 294.057349 203.498528 294.61993 204.061109 
C 295.18251 204.62369 295.945641 204.939789 296.74125 204.939789 
z
" style="fill:#f26b38;stroke:#ffffff;stroke-width:0.48;"/>
    <path clip-path="url(#p036ab4bc8d)" d="M 303.504886 204.939789 
C 304.300496 204.939789 305.063626 204.62369 305.626207 204.061109 
C 306.188787 203.498528 306.504886 202.735398 306.504886 201.939789 
C 306.504886 201.144179 306.188787 200.381049 305.626207 199.818468 
C 305.063626 199.255888 304.300496 198.939789 303.504886 198.939789 
C 302.709277 198.939789 301.946147 199.255888 301.383566 199.818468 
C 300.820985 200.381049 300.504886 201.144179 300.504886 201.939789 
C 300.504886 202.735398 300.820985 203.498528 301.383566 204.061109 
C 301.946147 204.62369 302.709277 204.939789 303.504886 204.939789 
z
" style="fill:#f26b38;stroke:#ffffff;stroke-width:0.48;"/>
    <path clip-path="url(#p036ab4bc8d)" d="M 310.268523 204.939789 
C 311.064132 204.939789 311.827262 204.62369 312.389843 204.061109 
C 312.952424 203.498528 313.268523 202.735398 313.268523 201.939789 
C 313.268523 201.144179 312.952424 200.381049 312.389843 199.818468 
C 311.827262 199.255888 311.064132 198.939789 310.268523 198.939789 
C 309.472913 198.939789 308.709783 199.255888 308.147202 199.818468 
C 307.584622 200.381049 307.268523 201.144179 307.268523 201.939789 
C 307.268523 202.735398 307.584622 203.498528 308.147202 204.061109 
C 308.709783 204.62369 309.472913 204.939789 310.268523 204.939789 
z
" style="fill:#f26b38;stroke:#ffffff;stroke-width:0.48;"/>
    <path clip-path="url(#p036ab4bc8d)" d="M 317.032159 204.939789 
C 317.827768 204.939789 318.590899 204.62369 319.153479 204.061109 
C 319.71606 203.498528 320.032159 202.735398 320.032159 201.939789 
C 320.032159 201.144179 319.71606 200.381049 319.153479 199.818468 
C 318.590899 199.255888 317.827768 198.939789 317.032159 198.939789 
C 316.23655 198.939789 315.473419 199.255888 314.910839 199.818468 
C 314.348258 200.381049 314.032159 201.144179 314.032159 201.939789 
C 314.032159 202.735398 314.348258 203.498528 314.910839 204.061109 
C 315.473419 204.62369 316.23655 204.939789 317.032159 204.939789 
z
" style="fill:#f26b38;stroke:#ffffff;stroke-width:0.48;"/>
    <path clip-path="url(#p036ab4bc8d)" d="M 323.795795 204.939789 
C 324.591405 204.939789 325.354535 204.62369 325.917116 204.061109 
C 326.479697 203.498528 326.795795 202.735398 326.795795 201.939789 
C 326.795795 201.144179 326.479697 200.381049 325.917116 199.818468 
C 325.354535 199.255888 324.591405 198.939789 323.795795 198.939789 
C 323.000186 198.939789 322.237056 199.255888 321.674475 199.818468 
C 321.111894 200.381049 320.795795 201.144179 320.795795 201.939789 
C 320.795795 202.735398 321.111894 203.498528 321.674475 204.061109 
C 322.237056 204.62369 323.000186 204.939789 323.795795 204.939789 
z
" style="fill:#f26b38;stroke:#ffffff;stroke-width:0.48;"/>
    <path clip-path="url(#p036ab4bc8d)" d="M 330.559432 204.939789 
C 331.355041 204.939789 332.118171 204.62369 332.680752 204.061109 
C 333.243333 203.498528 333.559432 202.735398 333.559432 201.939789 
C 333.559432 201.144179 333.243333 200.381049 332.680752 199.818468 
C 332.118171 199.255888 331.355041 198.939789 330.559432 198.939789 
C 329.763823 198.939789 329.000692 199.255888 328.438111 199.818468 
C 327.875531 200.381049 327.559432 201.144179 327.559432 201.939789 
C 327.559432 202.735398 327.875531 203.498528 328.438111 204.061109 
C 329.000692 204.62369 329.763823 204.939789 330.559432 204.939789 
z
" style="fill:#f26b38;stroke:#ffffff;stroke-width:0.48;"/>
    <path clip-path="url(#p036ab4bc8d)" d="M 337.323068 204.939789 
C 338.118677 204.939789 338.881808 204.62369 339.444389 204.061109 
C 340.006969 203.498528 340.323068 202.735398 340.323068 201.939789 
C 340.323068 201.144179 340.006969 200.381049 339.444389 199.818468 
C 338.881808 199.255888 338.118677 198.939789 337.323068 198.939789 
C 336.527459 198.939789 335.764329 199.255888 335.201748 199.818468 
C 334.639167 200.381049 334.323068 201.144179 334.323068 201.939789 
C 334.323068 202.735398 334.639167 203.498528 335.201748 204.061109 
C 335.764329 204.62369 336.527459 204.939789 337.323068 204.939789 
z
" style="fill:#f26b38;stroke:#ffffff;stroke-width:0.48;"/>
    <path clip-path="url(#p036ab4bc8d)" d="M 344.086705 204.939789 
C 344.882314 204.939789 345.645444 204.62369 346.208025 204.061109 
C 346.770606 203.498528 347.086705 202.735398 347.086705 201.939789 
C 347.086705 201.144179 346.770606 200.381049 346.208025 199.818468 
C 345.645444 199.255888 344.882314 198.939789 344.086705 198.939789 
C 343.291095 198.939789 342.527965 199.255888 341.965384 199.818468 
C 341.402803 200.381049 341.086705 201.144179 341.086705 201.939789 
C 341.086705 202.735398 341.402803 203.498528 341.965384 204.061109 
C 342.527965 204.62369 343.291095 204.939789 344.086705 204.939789 
z
" style="fill:#f26b38;stroke:#ffffff;stroke-width:0.48;"/>
    <path clip-path="url(#p036ab4bc8d)" d="M 350.850341 204.939789 
C 351.64595 204.939789 352.409081 204.62369 352.971661 204.061109 
C 353.534242 203.498528 353.850341 202.735398 353.850341 201.939789 
C 353.850341 201.144179 353.534242 200.381049 352.971661 199.818468 
C 352.409081 199.255888 351.64595 198.939789 350.850341 198.939789 
C 350.054732 198.939789 349.291601 199.255888 348.729021 199.818468 
C 348.16644 200.381049 347.850341 201.144179 347.850341 201.939789 
C 347.850341 202.735398 348.16644 203.498528 348.729021 204.061109 
C 349.291601 204.62369 350.054732 204.939789 350.850341 204.939789 
z
" style="fill:#f26b38;stroke:#ffffff;stroke-width:0.48;"/>
    <path clip-path="url(#p036ab4bc8d)" d="M 357.613977 204.939789 
C 358.409587 204.939789 359.172717 204.62369 359.735298 204.061109 
C 360.297878 203.498528 360.613977 202.735398 360.613977 201.939789 
C 360.613977 201.144179 360.297878 200.381049 359.735298 199.818468 
C 359.172717 199.255888 358.409587 198.939789 357.613977 198.939789 
C 356.818368 198.939789 356.055238 199.255888 355.492657 199.818468 
C 354.930076 200.381049 354.613977 201.144179 354.613977 201.939789 
C 354.613977 202.735398 354.930076 203.498528 355.492657 204.061109 
C 356.055238 204.62369 356.818368 204.939789 357.613977 204.939789 
z
" style="fill:#f26b38;stroke:#ffffff;stroke-width:0.48;"/>
    <path clip-path="url(#p036ab4bc8d)" d="M 364.377614 204.939789 
C 365.173223 204.939789 365.936353 204.62369 366.498934 204.061109 
C 367.061515 203.498528 367.377614 202.735398 367.377614 201.939789 
C 367.377614 201.144179 367.061515 200.381049 366.498934 199.818468 
C 365.936353 199.255888 365.173223 198.939789 364.377614 198.939789 
C 363.582004 198.939789 362.818874 199.255888 362.256293 199.818468 
C 361.693713 200.381049 361.377614 201.144179 361.377614 201.939789 
C 361.377614 202.735398 361.693713 203.498528 362.256293 204.061109 
C 362.818874 204.62369 363.582004 204.939789 364.377614 204.939789 
z
" style="fill:#f26b38;stroke:#ffffff;stroke-width:0.48;"/>
    <path clip-path="url(#p036ab4bc8d)" d="M 371.14125 204.939789 
C 371.936859 204.939789 372.69999 204.62369 373.26257 204.061109 
C 373.825151 203.498528 374.14125 202.735398 374.14125 201.939789 
C 374.14125 201.144179 373.825151 200.381049 373.26257 199.818468 
C 372.69999 199.255888 371.936859 198.939789 371.14125 198.939789 
C 370.345641 198.939789 369.58251 199.255888 369.01993 199.818468 
C 368.457349 200.381049 368.14125 201.144179 368.14125 201.939789 
C 368.14125 202.735398 368.457349 203.498528 369.01993 204.061109 
C 369.58251 204.62369 370.345641 204.939789 371.14125 204.939789 
z
" style="fill:#f26b38;stroke:#ffffff;stroke-width:0.48;"/>
    <path clip-path="url(#p036ab4bc8d)" d="M 377.904886 204.939789 
C 378.700496 204.939789 379.463626 204.62369 380.026207 204.061109 
C 380.588787 203.498528 380.904886 202.735398 380.904886 201.939789 
C 380.904886 201.144179 380.588787 200.381049 380.026207 199.818468 
C 379.463626 199.255888 378.700496 198.939789 377.904886 198.939789 
C 377.109277 198.939789 376.346147 199.255888 375.783566 199.818468 
C 375.220985 200.381049 374.904886 201.144179 374.904886 201.939789 
C 374.904886 202.735398 375.220985 203.498528 375.783566 204.061109 
C 376.346147 204.62369 377.109277 204.939789 377.904886 204.939789 
z
" style="fill:#f26b38;stroke:#ffffff;stroke-width:0.48;"/>
    <path clip-path="url(#p036ab4bc8d)" d="M 384.668523 204.939789 
C 385.464132 204.939789 386.227262 204.62369 386.789843 204.061109 
C 387.352424 203.498528 387.668523 202.735398 387.668523 201.939789 
C 387.668523 201.144179 387.352424 200.381049 386.789843 199.818468 
C 386.227262 199.255888 385.464132 198.939789 384.668523 198.939789 
C 383.872913 198.939789 383.109783 199.255888 382.547202 199.818468 
C 381.984622 200.381049 381.668523 201.144179 381.668523 201.939789 
C 381.668523 202.735398 381.984622 203.498528 382.547202 204.061109 
C 383.109783 204.62369 383.872913 204.939789 384.668523 204.939789 
z
" style="fill:#f26b38;stroke:#ffffff;stroke-width:0.48;"/>
    <path clip-path="url(#p036ab4bc8d)" d="M 58.513977 85.299729 
L 60.013977 83.799729 
L 61.513977 85.299729 
L 63.013977 83.799729 
L 61.513977 82.299729 
L 63.013977 80.799729 
L 61.513977 79.299729 
L 60.013977 80.799729 
L 58.513977 79.299729 
L 57.013977 80.799729 
L 58.513977 82.299729 
L 57.013977 83.799729 
z
" style="fill:#2f9599;stroke:#ffffff;stroke-width:0.48;"/>
    <path clip-path="url(#p036ab4bc8d)" d="M 65.277614 71.790821 
L 66.777614 70.290821 
L 68.277614 71.790821 
L 69.777614 70.290821 
L 68.277614 68.790821 
L 69.777614 67.290821 
L 68.277614 65.790821 
L 66.777614 67.290821 
L 65.277614 65.790821 
L 63.777614 67.290821 
L 65.277614 68.790821 
L 63.777614 70.290821 
z
" style="fill:#2f9599;stroke:#ffffff;stroke-width:0.48;"/>
    <path clip-path="url(#p036ab4bc8d)" d="M 72.04125 71.790821 
L 73.54125 70.290821 
L 75.04125 71.790821 
L 76.54125 70.290821 
L 75.04125 68.790821 
L 76.54125 67.290821 
L 75.04125 65.790821 
L 73.54125 67.290821 
L 72.04125 65.790821 
L 70.54125 67.290821 
L 72.04125 68.790821 
L 70.54125 70.290821 
z
" style="fill:#2f9599;stroke:#ffffff;stroke-width:0.48;"/>
    <path clip-path="url(#p036ab4bc8d)" d="M 78.804886 78.483871 
L 80.304886 76.983871 
L 81.804886 78.483871 
L 83.304886 76.983871 
L 81.804886 75.483871 
L 83.304886 73.983871 
L 81.804886 72.483871 
L 80.304886 73.983871 
L 78.804886 72.483871 
L 77.304886 73.983871 
L 78.804886 75.483871 
L 77.304886 76.983871 
z
" style="fill:#2f9599;stroke:#ffffff;stroke-width:0.48;"/>
    <path clip-path="url(#p036ab4bc8d)" d="M 85.568523 85.299729 
L 87.068523 83.799729 
L 88.568523 85.299729 
L 90.068523 83.799729 
L 88.568523 82.299729 
L 90.068523 80.799729 
L 88.568523 79.299729 
L 87.068523 80.799729 
L 85.568523 79.299729 
L 84.068523 80.799729 
L 85.568523 82.299729 
L 84.068523 83.799729 
z
" style="fill:#2f9599;stroke:#ffffff;stroke-width:0.48;"/>
    <path clip-path="url(#p036ab4bc8d)" d="M 92.332159 92.241806 
L 93.832159 90.741806 
L 95.332159 92.241806 
L 96.832159 90.741806 
L 95.332159 89.241806 
L 96.832159 87.741806 
L 95.332159 86.241806 
L 93.832159 87.741806 
L 92.332159 86.241806 
L 90.832159 87.741806 
L 92.332159 89.241806 
L 90.832159 90.741806 
z
" style="fill:#2f9599;stroke:#ffffff;stroke-width:0.48;"/>
    <path clip-path="url(#p036ab4bc8d)" d="M 99.095795 92.241806 
L 100.595795 90.741806 
L 102.095795 92.241806 
L 103.595795 90.741806 
L 102.095795 89.241806 
L 103.595795 87.741806 
L 102.095795 86.241806 
L 100.595795 87.741806 
L 99.095795 86.241806 
L 97.595795 87.741806 
L 99.095795 89.241806 
L 97.595795 90.741806 
z
" style="fill:#2f9599;stroke:#ffffff;stroke-width:0.48;"/>
    <path clip-path="url(#p036ab4bc8d)" d="M 105.859432 92.241806 
L 107.359432 90.741806 
L 108.859432 92.241806 
L 110.359432 90.741806 
L 108.859432 89.241806 
L 110.359432 87.741806 
L 108.859432 86.241806 
L 107.359432 87.741806 
L 105.859432 86.241806 
L 104.359432 87.741806 
L 105.859432 89.241806 
L 104.359432 90.741806 
z
" style="fill:#2f9599;stroke:#ffffff;stroke-width:0.48;"/>
    <path clip-path="url(#p036ab4bc8d)" d="M 112.623068 92.241806 
L 114.123068 90.741806 
L 115.623068 92.241806 
L 117.123068 90.741806 
L 115.623068 89.241806 
L 117.123068 87.741806 
L 115.623068 86.241806 
L 114.123068 87.741806 
L 112.623068 86.241806 
L 111.123068 87.741806 
L 112.623068 89.241806 
L 111.123068 90.741806 
z
" style="fill:#2f9599;stroke:#ffffff;stroke-width:0.48;"/>
    <path clip-path="url(#p036ab4bc8d)" d="M 119.386705 78.483871 
L 120.886705 76.983871 
L 122.386705 78.483871 
L 123.886705 76.983871 
L 122.386705 75.483871 
L 123.886705 73.983871 
L 122.386705 72.483871 
L 120.886705 73.983871 
L 119.386705 72.483871 
L 117.886705 73.983871 
L 119.386705 75.483871 
L 117.886705 76.983871 
z
" style="fill:#2f9599;stroke:#ffffff;stroke-width:0.48;"/>
    <path clip-path="url(#p036ab4bc8d)" d="M 126.150341 52.416204 
L 127.650341 50.916204 
L 129.150341 52.416204 
L 130.650341 50.916204 
L 129.150341 49.416204 
L 130.650341 47.916204 
L 129.150341 46.416204 
L 127.650341 47.916204 
L 126.150341 46.416204 
L 124.650341 47.916204 
L 126.150341 49.416204 
L 124.650341 50.916204 
z
" style="fill:#2f9599;stroke:#ffffff;stroke-width:0.48;"/>
    <path clip-path="url(#p036ab4bc8d)" d="M 132.913977 128.974158 
L 134.413977 127.474158 
L 135.913977 128.974158 
L 137.413977 127.474158 
L 135.913977 125.974158 
L 137.413977 124.474158 
L 135.913977 122.974158 
L 134.413977 124.474158 
L 132.913977 122.974158 
L 131.413977 124.474158 
L 132.913977 125.974158 
L 131.413977 127.474158 
z
" style="fill:#2f9599;stroke:#ffffff;stroke-width:0.48;"/>
    <path clip-path="url(#p036ab4bc8d)" d="M 139.677614 128.974158 
L 141.177614 127.474158 
L 142.677614 128.974158 
L 144.177614 127.474158 
L 142.677614 125.974158 
L 144.177614 124.474158 
L 142.677614 122.974158 
L 141.177614 124.474158 
L 139.677614 122.974158 
L 138.177614 124.474158 
L 139.677614 125.974158 
L 138.177614 127.474158 
z
" style="fill:#2f9599;stroke:#ffffff;stroke-width:0.48;"/>
    <path clip-path="url(#p036ab4bc8d)" d="M 146.44125 128.974158 
L 147.94125 127.474158 
L 149.44125 128.974158 
L 150.94125 127.474158 
L 149.44125 125.974158 
L 150.94125 124.474158 
L 149.44125 122.974158 
L 147.94125 124.474158 
L 146.44125 122.974158 
L 144.94125 124.474158 
L 146.44125 125.974158 
L 144.94125 127.474158 
z
" style="fill:#2f9599;stroke:#ffffff;stroke-width:0.48;"/>
    <path clip-path="url(#p036ab4bc8d)" d="M 153.204886 128.974158 
L 154.704886 127.474158 
L 156.204886 128.974158 
L 157.704886 127.474158 
L 156.204886 125.974158 
L 157.704886 124.474158 
L 156.204886 122.974158 
L 154.704886 124.474158 
L 153.204886 122.974158 
L 151.704886 124.474158 
L 153.204886 125.974158 
L 151.704886 127.474158 
z
" style="fill:#2f9599;stroke:#ffffff;stroke-width:0.48;"/>
    <path clip-path="url(#p036ab4bc8d)" d="M 159.968523 128.974158 
L 161.468523 127.474158 
L 162.968523 128.974158 
L 164.468523 127.474158 
L 162.968523 125.974158 
L 164.468523 124.474158 
L 162.968523 122.974158 
L 161.468523 124.474158 
L 159.968523 122.974158 
L 158.468523 124.474158 
L 159.968523 125.974158 
L 158.468523 127.474158 
z
" style="fill:#2f9599;stroke:#ffffff;stroke-width:0.48;"/>
    <path clip-path="url(#p036ab4bc8d)" d="M 166.732159 264.216 
L 168.232159 262.716 
L 169.732159 264.216 
L 171.232159 262.716 
L 169.732159 261.216 
L 171.232159 259.716 
L 169.732159 258.216 
L 168.232159 259.716 
L 166.732159 258.216 
L 165.232159 259.716 
L 166.732159 261.216 
L 165.232159 262.716 
z
" style="fill:#2f9599;stroke:#ffffff;stroke-width:0.48;"/>
    <path clip-path="url(#p036ab4bc8d)" d="M 173.495795 264.216 
L 174.995795 262.716 
L 176.495795 264.216 
L 177.995795 262.716 
L 176.495795 261.216 
L 177.995795 259.716 
L 176.495795 258.216 
L 174.995795 259.716 
L 173.495795 258.216 
L 171.995795 259.716 
L 173.495795 261.216 
L 171.995795 262.716 
z
" style="fill:#2f9599;stroke:#ffffff;stroke-width:0.48;"/>
    <path clip-path="url(#p036ab4bc8d)" d="M 180.259432 264.216 
L 181.759432 262.716 
L 183.259432 264.216 
L 184.759432 262.716 
L 183.259432 261.216 
L 184.759432 259.716 
L 183.259432 258.216 
L 181.759432 259.716 
L 180.259432 258.216 
L 178.759432 259.716 
L 180.259432 261.216 
L 178.759432 262.716 
z
" style="fill:#2f9599;stroke:#ffffff;stroke-width:0.48;"/>
    <path clip-path="url(#p036ab4bc8d)" d="M 187.023068 264.216 
L 188.523068 262.716 
L 190.023068 264.216 
L 191.523068 262.716 
L 190.023068 261.216 
L 191.523068 259.716 
L 190.023068 258.216 
L 188.523068 259.716 
L 187.023068 258.216 
L 185.523068 259.716 
L 187.023068 261.216 
L 185.523068 262.716 
z
" style="fill:#2f9599;stroke:#ffffff;stroke-width:0.48;"/>
    <path clip-path="url(#p036ab4bc8d)" d="M 193.786705 264.216 
L 195.286705 262.716 
L 196.786705 264.216 
L 198.286705 262.716 
L 196.786705 261.216 
L 198.286705 259.716 
L 196.786705 258.216 
L 195.286705 259.716 
L 193.786705 258.216 
L 192.286705 259.716 
L 193.786705 261.216 
L 192.286705 262.716 
z
" style="fill:#2f9599;stroke:#ffffff;stroke-width:0.48;"/>
    <path clip-path="url(#p036ab4bc8d)" d="M 200.550341 264.216 
L 202.050341 262.716 
L 203.550341 264.216 
L 205.050341 262.716 
L 203.550341 261.216 
L 205.050341 259.716 
L 203.550341 258.216 
L 202.050341 259.716 
L 200.550341 258.216 
L 199.050341 259.716 
L 200.550341 261.216 
L 199.050341 262.716 
z
" style="fill:#2f9599;stroke:#ffffff;stroke-width:0.48;"/>
    <path clip-path="url(#p036ab4bc8d)" d="M 207.313977 264.216 
L 208.813977 262.716 
L 210.313977 264.216 
L 211.813977 262.716 
L 210.313977 261.216 
L 211.813977 259.716 
L 210.313977 258.216 
L 208.813977 259.716 
L 207.313977 258.216 
L 205.813977 259.716 
L 207.313977 261.216 
L 205.813977 262.716 
z
" style="fill:#2f9599;stroke:#ffffff;stroke-width:0.48;"/>
    <path clip-path="url(#p036ab4bc8d)" d="M 214.077614 264.216 
L 215.577614 262.716 
L 217.077614 264.216 
L 218.577614 262.716 
L 217.077614 261.216 
L 218.577614 259.716 
L 217.077614 258.216 
L 215.577614 259.716 
L 214.077614 258.216 
L 212.577614 259.716 
L 214.077614 261.216 
L 212.577614 262.716 
z
" style="fill:#2f9599;stroke:#ffffff;stroke-width:0.48;"/>
    <path clip-path="url(#p036ab4bc8d)" d="M 220.84125 264.216 
L 222.34125 262.716 
L 223.84125 264.216 
L 225.34125 262.716 
L 223.84125 261.216 
L 225.34125 259.716 
L 223.84125 258.216 
L 222.34125 259.716 
L 220.84125 258.216 
L 219.34125 259.716 
L 220.84125 261.216 
L 219.34125 262.716 
z
" style="fill:#2f9599;stroke:#ffffff;stroke-width:0.48;"/>
    <path clip-path="url(#p036ab4bc8d)" d="M 227.604886 264.216 
L 229.104886 262.716 
L 230.604886 264.216 
L 232.104886 262.716 
L 230.604886 261.216 
L 232.104886 259.716 
L 230.604886 258.216 
L 229.104886 259.716 
L 227.604886 258.216 
L 226.104886 259.716 
L 227.604886 261.216 
L 226.104886 262.716 
z
" style="fill:#2f9599;stroke:#ffffff;stroke-width:0.48;"/>
    <path clip-path="url(#p036ab4bc8d)" d="M 234.368523 264.216 
L 235.868523 262.716 
L 237.368523 264.216 
L 238.868523 262.716 
L 237.368523 261.216 
L 238.868523 259.716 
L 237.368523 258.216 
L 235.868523 259.716 
L 234.368523 258.216 
L 232.868523 259.716 
L 234.368523 261.216 
L 232.868523 262.716 
z
" style="fill:#2f9599;stroke:#ffffff;stroke-width:0.48;"/>
    <path clip-path="url(#p036ab4bc8d)" d="M 241.132159 264.216 
L 242.632159 262.716 
L 244.132159 264.216 
L 245.632159 262.716 
L 244.132159 261.216 
L 245.632159 259.716 
L 244.132159 258.216 
L 242.632159 259.716 
L 241.132159 258.216 
L 239.632159 259.716 
L 241.132159 261.216 
L 239.632159 262.716 
z
" style="fill:#2f9599;stroke:#ffffff;stroke-width:0.48;"/>
    <path clip-path="url(#p036ab4bc8d)" d="M 247.895795 264.216 
L 249.395795 262.716 
L 250.895795 264.216 
L 252.395795 262.716 
L 250.895795 261.216 
L 252.395795 259.716 
L 250.895795 258.216 
L 249.395795 259.716 
L 247.895795 258.216 
L 246.395795 259.716 
L 247.895795 261.216 
L 246.395795 262.716 
z
" style="fill:#2f9599;stroke:#ffffff;stroke-width:0.48;"/>
    <path clip-path="url(#p036ab4bc8d)" d="M 254.659432 264.216 
L 256.159432 262.716 
L 257.659432 264.216 
L 259.159432 262.716 
L 257.659432 261.216 
L 259.159432 259.716 
L 257.659432 258.216 
L 256.159432 259.716 
L 254.659432 258.216 
L 253.159432 259.716 
L 254.659432 261.216 
L 253.159432 262.716 
z
" style="fill:#2f9599;stroke:#ffffff;stroke-width:0.48;"/>
    <path clip-path="url(#p036ab4bc8d)" d="M 261.423068 264.216 
L 262.923068 262.716 
L 264.423068 264.216 
L 265.923068 262.716 
L 264.423068 261.216 
L 265.923068 259.716 
L 264.423068 258.216 
L 262.923068 259.716 
L 261.423068 258.216 
L 259.923068 259.716 
L 261.423068 261.216 
L 259.923068 262.716 
z
" style="fill:#2f9599;stroke:#ffffff;stroke-width:0.48;"/>
    <path clip-path="url(#p036ab4bc8d)" d="M 268.186705 264.216 
L 269.686705 262.716 
L 271.186705 264.216 
L 272.686705 262.716 
L 271.186705 261.216 
L 272.686705 259.716 
L 271.186705 258.216 
L 269.686705 259.716 
L 268.186705 258.216 
L 266.686705 259.716 
L 268.186705 261.216 
L 266.686705 262.716 
z
" style="fill:#2f9599;stroke:#ffffff;stroke-width:0.48;"/>
    <path clip-path="url(#p036ab4bc8d)" d="M 274.950341 264.216 
L 276.450341 262.716 
L 277.950341 264.216 
L 279.450341 262.716 
L 277.950341 261.216 
L 279.450341 259.716 
L 277.950341 258.216 
L 276.450341 259.716 
L 274.950341 258.216 
L 273.450341 259.716 
L 274.950341 261.216 
L 273.450341 262.716 
z
" style="fill:#2f9599;stroke:#ffffff;stroke-width:0.48;"/>
    <path clip-path="url(#p036ab4bc8d)" d="M 281.713977 264.216 
L 283.213977 262.716 
L 284.713977 264.216 
L 286.213977 262.716 
L 284.713977 261.216 
L 286.213977 259.716 
L 284.713977 258.216 
L 283.213977 259.716 
L 281.713977 258.216 
L 280.213977 259.716 
L 281.713977 261.216 
L 280.213977 262.716 
z
" style="fill:#2f9599;stroke:#ffffff;stroke-width:0.48;"/>
    <path clip-path="url(#p036ab4bc8d)" d="M 288.477614 264.216 
L 289.977614 262.716 
L 291.477614 264.216 
L 292.977614 262.716 
L 291.477614 261.216 
L 292.977614 259.716 
L 291.477614 258.216 
L 289.977614 259.716 
L 288.477614 258.216 
L 286.977614 259.716 
L 288.477614 261.216 
L 286.977614 262.716 
z
" style="fill:#2f9599;stroke:#ffffff;stroke-width:0.48;"/>
    <path clip-path="url(#p036ab4bc8d)" d="M 295.24125 264.216 
L 296.74125 262.716 
L 298.24125 264.216 
L 299.74125 262.716 
L 298.24125 261.216 
L 299.74125 259.716 
L 298.24125 258.216 
L 296.74125 259.716 
L 295.24125 258.216 
L 293.74125 259.716 
L 295.24125 261.216 
L 293.74125 262.716 
z
" style="fill:#2f9599;stroke:#ffffff;stroke-width:0.48;"/>
    <path clip-path="url(#p036ab4bc8d)" d="M 302.004886 264.216 
L 303.504886 262.716 
L 305.004886 264.216 
L 306.504886 262.716 
L 305.004886 261.216 
L 306.504886 259.716 
L 305.004886 258.216 
L 303.504886 259.716 
L 302.004886 258.216 
L 300.504886 259.716 
L 302.004886 261.216 
L 300.504886 262.716 
z
" style="fill:#2f9599;stroke:#ffffff;stroke-width:0.48;"/>
    <path clip-path="url(#p036ab4bc8d)" d="M 308.768523 264.216 
L 310.268523 262.716 
L 311.768523 264.216 
L 313.268523 262.716 
L 311.768523 261.216 
L 313.268523 259.716 
L 311.768523 258.216 
L 310.268523 259.716 
L 308.768523 258.216 
L 307.268523 259.716 
L 308.768523 261.216 
L 307.268523 262.716 
z
" style="fill:#2f9599;stroke:#ffffff;stroke-width:0.48;"/>
    <path clip-path="url(#p036ab4bc8d)" d="M 315.532159 264.216 
L 317.032159 262.716 
L 318.532159 264.216 
L 320.032159 262.716 
L 318.532159 261.216 
L 320.032159 259.716 
L 318.532159 258.216 
L 317.032159 259.716 
L 315.532159 258.216 
L 314.032159 259.716 
L 315.532159 261.216 
L 314.032159 262.716 
z
" style="fill:#2f9599;stroke:#ffffff;stroke-width:0.48;"/>
    <path clip-path="url(#p036ab4bc8d)" d="M 322.295795 264.216 
L 323.795795 262.716 
L 325.295795 264.216 
L 326.795795 262.716 
L 325.295795 261.216 
L 326.795795 259.716 
L 325.295795 258.216 
L 323.795795 259.716 
L 322.295795 258.216 
L 320.795795 259.716 
L 322.295795 261.216 
L 320.795795 262.716 
z
" style="fill:#2f9599;stroke:#ffffff;stroke-width:0.48;"/>
    <path clip-path="url(#p036ab4bc8d)" d="M 329.059432 264.216 
L 330.559432 262.716 
L 332.059432 264.216 
L 333.559432 262.716 
L 332.059432 261.216 
L 333.559432 259.716 
L 332.059432 258.216 
L 330.559432 259.716 
L 329.059432 258.216 
L 327.559432 259.716 
L 329.059432 261.216 
L 327.559432 262.716 
z
" style="fill:#2f9599;stroke:#ffffff;stroke-width:0.48;"/>
    <path clip-path="url(#p036ab4bc8d)" d="M 335.823068 264.216 
L 337.323068 262.716 
L 338.823068 264.216 
L 340.323068 262.716 
L 338.823068 261.216 
L 340.323068 259.716 
L 338.823068 258.216 
L 337.323068 259.716 
L 335.823068 258.216 
L 334.323068 259.716 
L 335.823068 261.216 
L 334.323068 262.716 
z
" style="fill:#2f9599;stroke:#ffffff;stroke-width:0.48;"/>
    <path clip-path="url(#p036ab4bc8d)" d="M 342.586705 264.216 
L 344.086705 262.716 
L 345.586705 264.216 
L 347.086705 262.716 
L 345.586705 261.216 
L 347.086705 259.716 
L 345.586705 258.216 
L 344.086705 259.716 
L 342.586705 258.216 
L 341.086705 259.716 
L 342.586705 261.216 
L 341.086705 262.716 
z
" style="fill:#2f9599;stroke:#ffffff;stroke-width:0.48;"/>
    <path clip-path="url(#p036ab4bc8d)" d="M 349.350341 264.216 
L 350.850341 262.716 
L 352.350341 264.216 
L 353.850341 262.716 
L 352.350341 261.216 
L 353.850341 259.716 
L 352.350341 258.216 
L 350.850341 259.716 
L 349.350341 258.216 
L 347.850341 259.716 
L 349.350341 261.216 
L 347.850341 262.716 
z
" style="fill:#2f9599;stroke:#ffffff;stroke-width:0.48;"/>
    <path clip-path="url(#p036ab4bc8d)" d="M 356.113977 264.216 
L 357.613977 262.716 
L 359.113977 264.216 
L 360.613977 262.716 
L 359.113977 261.216 
L 360.613977 259.716 
L 359.113977 258.216 
L 357.613977 259.716 
L 356.113977 258.216 
L 354.613977 259.716 
L 356.113977 261.216 
L 354.613977 262.716 
z
" style="fill:#2f9599;stroke:#ffffff;stroke-width:0.48;"/>
    <path clip-path="url(#p036ab4bc8d)" d="M 362.877614 264.216 
L 364.377614 262.716 
L 365.877614 264.216 
L 367.377614 262.716 
L 365.877614 261.216 
L 367.377614 259.716 
L 365.877614 258.216 
L 364.377614 259.716 
L 362.877614 258.216 
L 361.377614 259.716 
L 362.877614 261.216 
L 361.377614 262.716 
z
" style="fill:#2f9599;stroke:#ffffff;stroke-width:0.48;"/>
    <path clip-path="url(#p036ab4bc8d)" d="M 369.64125 264.216 
L 371.14125 262.716 
L 372.64125 264.216 
L 374.14125 262.716 
L 372.64125 261.216 
L 374.14125 259.716 
L 372.64125 258.216 
L 371.14125 259.716 
L 369.64125 258.216 
L 368.14125 259.716 
L 369.64125 261.216 
L 368.14125 262.716 
z
" style="fill:#2f9599;stroke:#ffffff;stroke-width:0.48;"/>
    <path clip-path="url(#p036ab4bc8d)" d="M 376.404886 264.216 
L 377.904886 262.716 
L 379.404886 264.216 
L 380.904886 262.716 
L 379.404886 261.216 
L 380.904886 259.716 
L 379.404886 258.216 
L 377.904886 259.716 
L 376.404886 258.216 
L 374.904886 259.716 
L 376.404886 261.216 
L 374.904886 262.716 
z
" style="fill:#2f9599;stroke:#ffffff;stroke-width:0.48;"/>
    <path clip-path="url(#p036ab4bc8d)" d="M 383.168523 264.216 
L 384.668523 262.716 
L 386.168523 264.216 
L 387.668523 262.716 
L 386.168523 261.216 
L 387.668523 259.716 
L 386.168523 258.216 
L 384.668523 259.716 
L 383.168523 258.216 
L 381.668523 259.716 
L 383.168523 261.216 
L 381.668523 262.716 
z
" style="fill:#2f9599;stroke:#ffffff;stroke-width:0.48;"/>
    <path clip-path="url(#p036ab4bc8d)" d="M 57.892657 53.638785 
L 57.892657 57.881425 
L 62.135298 57.881425 
L 62.135298 53.638785 
z
" style="fill:#a7226e;stroke:#ffffff;stroke-width:0.48;"/>
    <path clip-path="url(#p036ab4bc8d)" d="M 64.656293 53.638785 
L 64.656293 57.881425 
L 68.898934 57.881425 
L 68.898934 53.638785 
z
" style="fill:#a7226e;stroke:#ffffff;stroke-width:0.48;"/>
    <path clip-path="url(#p036ab4bc8d)" d="M 71.41993 53.638785 
L 71.41993 57.881425 
L 75.66257 57.881425 
L 75.66257 53.638785 
z
" style="fill:#a7226e;stroke:#ffffff;stroke-width:0.48;"/>
    <path clip-path="url(#p036ab4bc8d)" d="M 78.183566 53.638785 
L 78.183566 57.881425 
L 82.426207 57.881425 
L 82.426207 53.638785 
z
" style="fill:#a7226e;stroke:#ffffff;stroke-width:0.48;"/>
    <path clip-path="url(#p036ab4bc8d)" d="M 84.947202 60.09597 
L 84.947202 64.338611 
L 89.189843 64.338611 
L 89.189843 60.09597 
z
" style="fill:#a7226e;stroke:#ffffff;stroke-width:0.48;"/>
    <path clip-path="url(#p036ab4bc8d)" d="M 91.710839 73.362551 
L 91.710839 77.605191 
L 95.953479 77.605191 
L 95.953479 73.362551 
z
" style="fill:#a7226e;stroke:#ffffff;stroke-width:0.48;"/>
    <path clip-path="url(#p036ab4bc8d)" d="M 98.474475 73.362551 
L 98.474475 77.605191 
L 102.717116 77.605191 
L 102.717116 73.362551 
z
" style="fill:#a7226e;stroke:#ffffff;stroke-width:0.48;"/>
    <path clip-path="url(#p036ab4bc8d)" d="M 105.238111 73.362551 
L 105.238111 77.605191 
L 109.480752 77.605191 
L 109.480752 73.362551 
z
" style="fill:#a7226e;stroke:#ffffff;stroke-width:0.48;"/>
    <path clip-path="url(#p036ab4bc8d)" d="M 112.001748 80.178409 
L 112.001748 84.421049 
L 116.244389 84.421049 
L 116.244389 80.178409 
z
" style="fill:#a7226e;stroke:#ffffff;stroke-width:0.48;"/>
    <path clip-path="url(#p036ab4bc8d)" d="M 118.765384 66.669501 
L 118.765384 70.912142 
L 123.008025 70.912142 
L 123.008025 66.669501 
z
" style="fill:#a7226e;stroke:#ffffff;stroke-width:0.48;"/>
    <path clip-path="url(#p036ab4bc8d)" d="M 125.529021 66.669501 
L 125.529021 70.912142 
L 129.771661 70.912142 
L 129.771661 66.669501 
z
" style="fill:#a7226e;stroke:#ffffff;stroke-width:0.48;"/>
    <path clip-path="url(#p036ab4bc8d)" d="M 132.292657 73.362551 
L 132.292657 77.605191 
L 136.535298 77.605191 
L 136.535298 73.362551 
z
" style="fill:#a7226e;stroke:#ffffff;stroke-width:0.48;"/>
    <path clip-path="url(#p036ab4bc8d)" d="M 139.056293 73.362551 
L 139.056293 77.605191 
L 143.298934 77.605191 
L 143.298934 73.362551 
z
" style="fill:#a7226e;stroke:#ffffff;stroke-width:0.48;"/>
    <path clip-path="url(#p036ab4bc8d)" d="M 145.81993 73.362551 
L 145.81993 77.605191 
L 150.06257 77.605191 
L 150.06257 73.362551 
z
" style="fill:#a7226e;stroke:#ffffff;stroke-width:0.48;"/>
    <path clip-path="url(#p036ab4bc8d)" d="M 152.583566 60.09597 
L 152.583566 64.338611 
L 156.826207 64.338611 
L 156.826207 60.09597 
z
" style="fill:#a7226e;stroke:#ffffff;stroke-width:0.48;"/>
    <path clip-path="url(#p036ab4bc8d)" d="M 159.347202 73.362551 
L 159.347202 77.605191 
L 163.589843 77.605191 
L 163.589843 73.362551 
z
" style="fill:#a7226e;stroke:#ffffff;stroke-width:0.48;"/>
    <path clip-path="url(#p036ab4bc8d)" d="M 166.110839 73.362551 
L 166.110839 77.605191 
L 170.353479 77.605191 
L 170.353479 73.362551 
z
" style="fill:#a7226e;stroke:#ffffff;stroke-width:0.48;"/>
    <path clip-path="url(#p036ab4bc8d)" d="M 172.874475 66.669501 
L 172.874475 70.912142 
L 177.117116 70.912142 
L 177.117116 66.669501 
z
" style="fill:#a7226e;stroke:#ffffff;stroke-width:0.48;"/>
    <path clip-path="url(#p036ab4bc8d)" d="M 179.638111 22.994516 
L 179.638111 27.237156 
L 183.880752 27.237156 
L 183.880752 22.994516 
z
" style="fill:#a7226e;stroke:#ffffff;stroke-width:0.48;"/>
    <path clip-path="url(#p036ab4bc8d)" d="M 186.401748 17.17468 
L 186.401748 21.41732 
L 190.644389 21.41732 
L 190.644389 17.17468 
z
" style="fill:#a7226e;stroke:#ffffff;stroke-width:0.48;"/>
    <path clip-path="url(#p036ab4bc8d)" d="M 193.165384 22.994516 
L 193.165384 27.237156 
L 197.408025 27.237156 
L 197.408025 22.994516 
z
" style="fill:#a7226e;stroke:#ffffff;stroke-width:0.48;"/>
    <path clip-path="url(#p036ab4bc8d)" d="M 199.929021 17.17468 
L 199.929021 21.41732 
L 204.171661 21.41732 
L 204.171661 17.17468 
z
" style="fill:#a7226e;stroke:#ffffff;stroke-width:0.48;"/>
    <path clip-path="url(#p036ab4bc8d)" d="M 206.692657 17.17468 
L 206.692657 21.41732 
L 210.935298 21.41732 
L 210.935298 17.17468 
z
" style="fill:#a7226e;stroke:#ffffff;stroke-width:0.48;"/>
    <path clip-path="url(#p036ab4bc8d)" d="M 213.456293 73.362551 
L 213.456293 77.605191 
L 217.698934 77.605191 
L 217.698934 73.362551 
z
" style="fill:#a7226e;stroke:#ffffff;stroke-width:0.48;"/>
    <path clip-path="url(#p036ab4bc8d)" d="M 220.21993 47.294883 
L 220.21993 51.537524 
L 224.46257 51.537524 
L 224.46257 47.294883 
z
" style="fill:#a7226e;stroke:#ffffff;stroke-width:0.48;"/>
    <path clip-path="url(#p036ab4bc8d)" d="M 226.983566 47.294883 
L 226.983566 51.537524 
L 231.226207 51.537524 
L 231.226207 47.294883 
z
" style="fill:#a7226e;stroke:#ffffff;stroke-width:0.48;"/>
    <path clip-path="url(#p036ab4bc8d)" d="M 233.747202 17.17468 
L 233.747202 21.41732 
L 237.989843 21.41732 
L 237.989843 17.17468 
z
" style="fill:#a7226e;stroke:#ffffff;stroke-width:0.48;"/>
    <path clip-path="url(#p036ab4bc8d)" d="M 240.510839 22.994516 
L 240.510839 27.237156 
L 244.753479 27.237156 
L 244.753479 22.994516 
z
" style="fill:#a7226e;stroke:#ffffff;stroke-width:0.48;"/>
    <path clip-path="url(#p036ab4bc8d)" d="M 247.274475 22.994516 
L 247.274475 27.237156 
L 251.517116 27.237156 
L 251.517116 22.994516 
z
" style="fill:#a7226e;stroke:#ffffff;stroke-width:0.48;"/>
    <path clip-path="url(#p036ab4bc8d)" d="M 254.038111 47.294883 
L 254.038111 51.537524 
L 258.280752 51.537524 
L 258.280752 47.294883 
z
" style="fill:#a7226e;stroke:#ffffff;stroke-width:0.48;"/>
    <path clip-path="url(#p036ab4bc8d)" d="M 260.801748 47.294883 
L 260.801748 51.537524 
L 265.044389 51.537524 
L 265.044389 47.294883 
z
" style="fill:#a7226e;stroke:#ffffff;stroke-width:0.48;"/>
    <path clip-path="url(#p036ab4bc8d)" d="M 267.565384 47.294883 
L 267.565384 51.537524 
L 271.808025 51.537524 
L 271.808025 47.294883 
z
" style="fill:#a7226e;stroke:#ffffff;stroke-width:0.48;"/>
    <path clip-path="url(#p036ab4bc8d)" d="M 274.329021 47.294883 
L 274.329021 51.537524 
L 278.571661 51.537524 
L 278.571661 47.294883 
z
" style="fill:#a7226e;stroke:#ffffff;stroke-width:0.48;"/>
    <path clip-path="url(#p036ab4bc8d)" d="M 281.092657 199.818468 
L 281.092657 204.061109 
L 285.335298 204.061109 
L 285.335298 199.818468 
z
" style="fill:#a7226e;stroke:#ffffff;stroke-width:0.48;"/>
    <path clip-path="url(#p036ab4bc8d)" d="M 287.856293 199.818468 
L 287.856293 204.061109 
L 292.098934 204.061109 
L 292.098934 199.818468 
z
" style="fill:#a7226e;stroke:#ffffff;stroke-width:0.48;"/>
    <path clip-path="url(#p036ab4bc8d)" d="M 294.61993 199.818468 
L 294.61993 204.061109 
L 298.86257 204.061109 
L 298.86257 199.818468 
z
" style="fill:#a7226e;stroke:#ffffff;stroke-width:0.48;"/>
    <path clip-path="url(#p036ab4bc8d)" d="M 301.383566 199.818468 
L 301.383566 204.061109 
L 305.626207 204.061109 
L 305.626207 199.818468 
z
" style="fill:#a7226e;stroke:#ffffff;stroke-width:0.48;"/>
    <path clip-path="url(#p036ab4bc8d)" d="M 308.147202 199.818468 
L 308.147202 204.061109 
L 312.389843 204.061109 
L 312.389843 199.818468 
z
" style="fill:#a7226e;stroke:#ffffff;stroke-width:0.48;"/>
    <path clip-path="url(#p036ab4bc8d)" d="M 314.910839 199.818468 
L 314.910839 204.061109 
L 319.153479 204.061109 
L 319.153479 199.818468 
z
" style="fill:#a7226e;stroke:#ffffff;stroke-width:0.48;"/>
    <path clip-path="url(#p036ab4bc8d)" d="M 321.674475 199.818468 
L 321.674475 204.061109 
L 325.917116 204.061109 
L 325.917116 199.818468 
z
" style="fill:#a7226e;stroke:#ffffff;stroke-width:0.48;"/>
    <path clip-path="url(#p036ab4bc8d)" d="M 328.438111 199.818468 
L 328.438111 204.061109 
L 332.680752 204.061109 
L 332.680752 199.818468 
z
" style="fill:#a7226e;stroke:#ffffff;stroke-width:0.48;"/>
    <path clip-path="url(#p036ab4bc8d)" d="M 335.201748 199.818468 
L 335.201748 204.061109 
L 339.444389 204.061109 
L 339.444389 199.818468 
z
" style="fill:#a7226e;stroke:#ffffff;stroke-width:0.48;"/>
    <path clip-path="url(#p036ab4bc8d)" d="M 341.965384 199.818468 
L 341.965384 204.061109 
L 346.208025 204.061109 
L 346.208025 199.818468 
z
" style="fill:#a7226e;stroke:#ffffff;stroke-width:0.48;"/>
    <path clip-path="url(#p036ab4bc8d)" d="M 348.729021 199.818468 
L 348.729021 204.061109 
L 352.971661 204.061109 
L 352.971661 199.818468 
z
" style="fill:#a7226e;stroke:#ffffff;stroke-width:0.48;"/>
    <path clip-path="url(#p036ab4bc8d)" d="M 355.492657 199.818468 
L 355.492657 204.061109 
L 359.735298 204.061109 
L 359.735298 199.818468 
z
" style="fill:#a7226e;stroke:#ffffff;stroke-width:0.48;"/>
    <path clip-path="url(#p036ab4bc8d)" d="M 362.256293 199.818468 
L 362.256293 204.061109 
L 366.498934 204.061109 
L 366.498934 199.818468 
z
" style="fill:#a7226e;stroke:#ffffff;stroke-width:0.48;"/>
    <path clip-path="url(#p036ab4bc8d)" d="M 369.01993 199.818468 
L 369.01993 204.061109 
L 373.26257 204.061109 
L 373.26257 199.818468 
z
" style="fill:#a7226e;stroke:#ffffff;stroke-width:0.48;"/>
    <path clip-path="url(#p036ab4bc8d)" d="M 375.783566 199.818468 
L 375.783566 204.061109 
L 380.026207 204.061109 
L 380.026207 199.818468 
z
" style="fill:#a7226e;stroke:#ffffff;stroke-width:0.48;"/>
    <path clip-path="url(#p036ab4bc8d)" d="M 382.547202 199.818468 
L 382.547202 204.061109 
L 386.789843 204.061109 
L 386.789843 199.818468 
z
" style="fill:#a7226e;stroke:#ffffff;stroke-width:0.48;"/>
   </g>
   <g id="PathCollection_2"/>
   <g id="PathCollection_3"/>
   <g id="PathCollection_4"/>
   <g id="matplotlib.axis_1">
    <g id="xtick_1">
     <g id="line2d_1">
      <defs>
       <path d="M 0 0 
L 0 3.5 
" id="mb546e4d1c7" style="stroke:#000000;stroke-width:0.8;"/>
      </defs>
      <g>
       <use style="stroke:#000000;stroke-width:0.8;" x="53.250341" xlink:href="#mb546e4d1c7" y="273.312"/>
      </g>
     </g>
     <g id="text_1">
      <!-- 0.0 -->
      <g transform="translate(45.298778 287.910437)scale(0.1 -0.1)">
       <defs>
        <path d="M 31.78125 66.40625 
Q 24.171875 66.40625 20.328125 58.90625 
Q 16.5 51.421875 16.5 36.375 
Q 16.5 21.390625 20.328125 13.890625 
Q 24.171875 6.390625 31.78125 6.390625 
Q 39.453125 6.390625 43.28125 13.890625 
Q 47.125 21.390625 47.125 36.375 
Q 47.125 51.421875 43.28125 58.90625 
Q 39.453125 66.40625 31.78125 66.40625 
z
M 31.78125 74.21875 
Q 44.046875 74.21875 50.515625 64.515625 
Q 56.984375 54.828125 56.984375 36.375 
Q 56.984375 17.96875 50.515625 8.265625 
Q 44.046875 -1.421875 31.78125 -1.421875 
Q 19.53125 -1.421875 13.0625 8.265625 
Q 6.59375 17.96875 6.59375 36.375 
Q 6.59375 54.828125 13.0625 64.515625 
Q 19.53125 74.21875 31.78125 74.21875 
z
" id="DejaVuSans-48"/>
        <path d="M 10.6875 12.40625 
L 21 12.40625 
L 21 0 
L 10.6875 0 
z
" id="DejaVuSans-46"/>
       </defs>
       <use xlink:href="#DejaVuSans-48"/>
       <use x="63.623047" xlink:href="#DejaVuSans-46"/>
       <use x="95.410156" xlink:href="#DejaVuSans-48"/>
      </g>
     </g>
    </g>
    <g id="xtick_2">
     <g id="line2d_2">
      <g>
       <use style="stroke:#000000;stroke-width:0.8;" x="120.886705" xlink:href="#mb546e4d1c7" y="273.312"/>
      </g>
     </g>
     <g id="text_2">
      <!-- 0.2 -->
      <g transform="translate(112.935142 287.910437)scale(0.1 -0.1)">
       <defs>
        <path d="M 19.1875 8.296875 
L 53.609375 8.296875 
L 53.609375 0 
L 7.328125 0 
L 7.328125 8.296875 
Q 12.9375 14.109375 22.625 23.890625 
Q 32.328125 33.6875 34.8125 36.53125 
Q 39.546875 41.84375 41.421875 45.53125 
Q 43.3125 49.21875 43.3125 52.78125 
Q 43.3125 58.59375 39.234375 62.25 
Q 35.15625 65.921875 28.609375 65.921875 
Q 23.96875 65.921875 18.8125 64.3125 
Q 13.671875 62.703125 7.8125 59.421875 
L 7.8125 69.390625 
Q 13.765625 71.78125 18.9375 73 
Q 24.125 74.21875 28.421875 74.21875 
Q 39.75 74.21875 46.484375 68.546875 
Q 53.21875 62.890625 53.21875 53.421875 
Q 53.21875 48.921875 51.53125 44.890625 
Q 49.859375 40.875 45.40625 35.40625 
Q 44.1875 33.984375 37.640625 27.21875 
Q 31.109375 20.453125 19.1875 8.296875 
z
" id="DejaVuSans-50"/>
       </defs>
       <use xlink:href="#DejaVuSans-48"/>
       <use x="63.623047" xlink:href="#DejaVuSans-46"/>
       <use x="95.410156" xlink:href="#DejaVuSans-50"/>
      </g>
     </g>
    </g>
    <g id="xtick_3">
     <g id="line2d_3">
      <g>
       <use style="stroke:#000000;stroke-width:0.8;" x="188.523068" xlink:href="#mb546e4d1c7" y="273.312"/>
      </g>
     </g>
     <g id="text_3">
      <!-- 0.4 -->
      <g transform="translate(180.571506 287.910437)scale(0.1 -0.1)">
       <defs>
        <path d="M 37.796875 64.3125 
L 12.890625 25.390625 
L 37.796875 25.390625 
z
M 35.203125 72.90625 
L 47.609375 72.90625 
L 47.609375 25.390625 
L 58.015625 25.390625 
L 58.015625 17.1875 
L 47.609375 17.1875 
L 47.609375 0 
L 37.796875 0 
L 37.796875 17.1875 
L 4.890625 17.1875 
L 4.890625 26.703125 
z
" id="DejaVuSans-52"/>
       </defs>
       <use xlink:href="#DejaVuSans-48"/>
       <use x="63.623047" xlink:href="#DejaVuSans-46"/>
       <use x="95.410156" xlink:href="#DejaVuSans-52"/>
      </g>
     </g>
    </g>
    <g id="xtick_4">
     <g id="line2d_4">
      <g>
       <use style="stroke:#000000;stroke-width:0.8;" x="256.159432" xlink:href="#mb546e4d1c7" y="273.312"/>
      </g>
     </g>
     <g id="text_4">
      <!-- 0.6 -->
      <g transform="translate(248.207869 287.910437)scale(0.1 -0.1)">
       <defs>
        <path d="M 33.015625 40.375 
Q 26.375 40.375 22.484375 35.828125 
Q 18.609375 31.296875 18.609375 23.390625 
Q 18.609375 15.53125 22.484375 10.953125 
Q 26.375 6.390625 33.015625 6.390625 
Q 39.65625 6.390625 43.53125 10.953125 
Q 47.40625 15.53125 47.40625 23.390625 
Q 47.40625 31.296875 43.53125 35.828125 
Q 39.65625 40.375 33.015625 40.375 
z
M 52.59375 71.296875 
L 52.59375 62.3125 
Q 48.875 64.0625 45.09375 64.984375 
Q 41.3125 65.921875 37.59375 65.921875 
Q 27.828125 65.921875 22.671875 59.328125 
Q 17.53125 52.734375 16.796875 39.40625 
Q 19.671875 43.65625 24.015625 45.921875 
Q 28.375 48.1875 33.59375 48.1875 
Q 44.578125 48.1875 50.953125 41.515625 
Q 57.328125 34.859375 57.328125 23.390625 
Q 57.328125 12.15625 50.6875 5.359375 
Q 44.046875 -1.421875 33.015625 -1.421875 
Q 20.359375 -1.421875 13.671875 8.265625 
Q 6.984375 17.96875 6.984375 36.375 
Q 6.984375 53.65625 15.1875 63.9375 
Q 23.390625 74.21875 37.203125 74.21875 
Q 40.921875 74.21875 44.703125 73.484375 
Q 48.484375 72.75 52.59375 71.296875 
z
" id="DejaVuSans-54"/>
       </defs>
       <use xlink:href="#DejaVuSans-48"/>
       <use x="63.623047" xlink:href="#DejaVuSans-46"/>
       <use x="95.410156" xlink:href="#DejaVuSans-54"/>
      </g>
     </g>
    </g>
    <g id="xtick_5">
     <g id="line2d_5">
      <g>
       <use style="stroke:#000000;stroke-width:0.8;" x="323.795795" xlink:href="#mb546e4d1c7" y="273.312"/>
      </g>
     </g>
     <g id="text_5">
      <!-- 0.8 -->
      <g transform="translate(315.844233 287.910437)scale(0.1 -0.1)">
       <defs>
        <path d="M 31.78125 34.625 
Q 24.75 34.625 20.71875 30.859375 
Q 16.703125 27.09375 16.703125 20.515625 
Q 16.703125 13.921875 20.71875 10.15625 
Q 24.75 6.390625 31.78125 6.390625 
Q 38.8125 6.390625 42.859375 10.171875 
Q 46.921875 13.96875 46.921875 20.515625 
Q 46.921875 27.09375 42.890625 30.859375 
Q 38.875 34.625 31.78125 34.625 
z
M 21.921875 38.8125 
Q 15.578125 40.375 12.03125 44.71875 
Q 8.5 49.078125 8.5 55.328125 
Q 8.5 64.0625 14.71875 69.140625 
Q 20.953125 74.21875 31.78125 74.21875 
Q 42.671875 74.21875 48.875 69.140625 
Q 55.078125 64.0625 55.078125 55.328125 
Q 55.078125 49.078125 51.53125 44.71875 
Q 48 40.375 41.703125 38.8125 
Q 48.828125 37.15625 52.796875 32.3125 
Q 56.78125 27.484375 56.78125 20.515625 
Q 56.78125 9.90625 50.3125 4.234375 
Q 43.84375 -1.421875 31.78125 -1.421875 
Q 19.734375 -1.421875 13.25 4.234375 
Q 6.78125 9.90625 6.78125 20.515625 
Q 6.78125 27.484375 10.78125 32.3125 
Q 14.796875 37.15625 21.921875 38.8125 
z
M 18.3125 54.390625 
Q 18.3125 48.734375 21.84375 45.5625 
Q 25.390625 42.390625 31.78125 42.390625 
Q 38.140625 42.390625 41.71875 45.5625 
Q 45.3125 48.734375 45.3125 54.390625 
Q 45.3125 60.0625 41.71875 63.234375 
Q 38.140625 66.40625 31.78125 66.40625 
Q 25.390625 66.40625 21.84375 63.234375 
Q 18.3125 60.0625 18.3125 54.390625 
z
" id="DejaVuSans-56"/>
       </defs>
       <use xlink:href="#DejaVuSans-48"/>
       <use x="63.623047" xlink:href="#DejaVuSans-46"/>
       <use x="95.410156" xlink:href="#DejaVuSans-56"/>
      </g>
     </g>
    </g>
    <g id="xtick_6">
     <g id="line2d_6">
      <g>
       <use style="stroke:#000000;stroke-width:0.8;" x="391.432159" xlink:href="#mb546e4d1c7" y="273.312"/>
      </g>
     </g>
     <g id="text_6">
      <!-- 1.0 -->
      <g transform="translate(383.480597 287.910437)scale(0.1 -0.1)">
       <defs>
        <path d="M 12.40625 8.296875 
L 28.515625 8.296875 
L 28.515625 63.921875 
L 10.984375 60.40625 
L 10.984375 69.390625 
L 28.421875 72.90625 
L 38.28125 72.90625 
L 38.28125 8.296875 
L 54.390625 8.296875 
L 54.390625 0 
L 12.40625 0 
z
" id="DejaVuSans-49"/>
       </defs>
       <use xlink:href="#DejaVuSans-49"/>
       <use x="63.623047" xlink:href="#DejaVuSans-46"/>
       <use x="95.410156" xlink:href="#DejaVuSans-48"/>
      </g>
     </g>
    </g>
    <g id="text_7">
     <!-- cutoff -->
     <g transform="translate(207.883438 301.588562)scale(0.1 -0.1)">
      <defs>
       <path d="M 48.78125 52.59375 
L 48.78125 44.1875 
Q 44.96875 46.296875 41.140625 47.34375 
Q 37.3125 48.390625 33.40625 48.390625 
Q 24.65625 48.390625 19.8125 42.84375 
Q 14.984375 37.3125 14.984375 27.296875 
Q 14.984375 17.28125 19.8125 11.734375 
Q 24.65625 6.203125 33.40625 6.203125 
Q 37.3125 6.203125 41.140625 7.25 
Q 44.96875 8.296875 48.78125 10.40625 
L 48.78125 2.09375 
Q 45.015625 0.34375 40.984375 -0.53125 
Q 36.96875 -1.421875 32.421875 -1.421875 
Q 20.0625 -1.421875 12.78125 6.34375 
Q 5.515625 14.109375 5.515625 27.296875 
Q 5.515625 40.671875 12.859375 48.328125 
Q 20.21875 56 33.015625 56 
Q 37.15625 56 41.109375 55.140625 
Q 45.0625 54.296875 48.78125 52.59375 
z
" id="DejaVuSans-99"/>
       <path d="M 8.5 21.578125 
L 8.5 54.6875 
L 17.484375 54.6875 
L 17.484375 21.921875 
Q 17.484375 14.15625 20.5 10.265625 
Q 23.53125 6.390625 29.59375 6.390625 
Q 36.859375 6.390625 41.078125 11.03125 
Q 45.3125 15.671875 45.3125 23.6875 
L 45.3125 54.6875 
L 54.296875 54.6875 
L 54.296875 0 
L 45.3125 0 
L 45.3125 8.40625 
Q 42.046875 3.421875 37.71875 1 
Q 33.40625 -1.421875 27.6875 -1.421875 
Q 18.265625 -1.421875 13.375 4.4375 
Q 8.5 10.296875 8.5 21.578125 
z
M 31.109375 56 
z
" id="DejaVuSans-117"/>
       <path d="M 18.3125 70.21875 
L 18.3125 54.6875 
L 36.8125 54.6875 
L 36.8125 47.703125 
L 18.3125 47.703125 
L 18.3125 18.015625 
Q 18.3125 11.328125 20.140625 9.421875 
Q 21.96875 7.515625 27.59375 7.515625 
L 36.8125 7.515625 
L 36.8125 0 
L 27.59375 0 
Q 17.1875 0 13.234375 3.875 
Q 9.28125 7.765625 9.28125 18.015625 
L 9.28125 47.703125 
L 2.6875 47.703125 
L 2.6875 54.6875 
L 9.28125 54.6875 
L 9.28125 70.21875 
z
" id="DejaVuSans-116"/>
       <path d="M 30.609375 48.390625 
Q 23.390625 48.390625 19.1875 42.75 
Q 14.984375 37.109375 14.984375 27.296875 
Q 14.984375 17.484375 19.15625 11.84375 
Q 23.34375 6.203125 30.609375 6.203125 
Q 37.796875 6.203125 41.984375 11.859375 
Q 46.1875 17.53125 46.1875 27.296875 
Q 46.1875 37.015625 41.984375 42.703125 
Q 37.796875 48.390625 30.609375 48.390625 
z
M 30.609375 56 
Q 42.328125 56 49.015625 48.375 
Q 55.71875 40.765625 55.71875 27.296875 
Q 55.71875 13.875 49.015625 6.21875 
Q 42.328125 -1.421875 30.609375 -1.421875 
Q 18.84375 -1.421875 12.171875 6.21875 
Q 5.515625 13.875 5.515625 27.296875 
Q 5.515625 40.765625 12.171875 48.375 
Q 18.84375 56 30.609375 56 
z
" id="DejaVuSans-111"/>
       <path d="M 37.109375 75.984375 
L 37.109375 68.5 
L 28.515625 68.5 
Q 23.6875 68.5 21.796875 66.546875 
Q 19.921875 64.59375 19.921875 59.515625 
L 19.921875 54.6875 
L 34.71875 54.6875 
L 34.71875 47.703125 
L 19.921875 47.703125 
L 19.921875 0 
L 10.890625 0 
L 10.890625 47.703125 
L 2.296875 47.703125 
L 2.296875 54.6875 
L 10.890625 54.6875 
L 10.890625 58.5 
Q 10.890625 67.625 15.140625 71.796875 
Q 19.390625 75.984375 28.609375 75.984375 
z
" id="DejaVuSans-102"/>
      </defs>
      <use xlink:href="#DejaVuSans-99"/>
      <use x="54.980469" xlink:href="#DejaVuSans-117"/>
      <use x="118.359375" xlink:href="#DejaVuSans-116"/>
      <use x="157.568359" xlink:href="#DejaVuSans-111"/>
      <use x="218.75" xlink:href="#DejaVuSans-102"/>
      <use x="253.955078" xlink:href="#DejaVuSans-102"/>
     </g>
    </g>
   </g>
   <g id="matplotlib.axis_2">
    <g id="ytick_1">
     <g id="line2d_7">
      <defs>
       <path d="M 0 0 
L -3.5 0 
" id="maee0553f02" style="stroke:#000000;stroke-width:0.8;"/>
      </defs>
      <g>
       <use style="stroke:#000000;stroke-width:0.8;" x="43.78125" xlink:href="#maee0553f02" y="267.929209"/>
      </g>
     </g>
     <g id="text_8">
      <!-- 0.1 -->
      <g transform="translate(20.878125 271.728428)scale(0.1 -0.1)">
       <use xlink:href="#DejaVuSans-48"/>
       <use x="63.623047" xlink:href="#DejaVuSans-46"/>
       <use x="95.410156" xlink:href="#DejaVuSans-49"/>
      </g>
     </g>
    </g>
    <g id="ytick_2">
     <g id="line2d_8">
      <g>
       <use style="stroke:#000000;stroke-width:0.8;" x="43.78125" xlink:href="#maee0553f02" y="218.699007"/>
      </g>
     </g>
     <g id="text_9">
      <!-- 0.2 -->
      <g transform="translate(20.878125 222.498225)scale(0.1 -0.1)">
       <use xlink:href="#DejaVuSans-48"/>
       <use x="63.623047" xlink:href="#DejaVuSans-46"/>
       <use x="95.410156" xlink:href="#DejaVuSans-50"/>
      </g>
     </g>
    </g>
    <g id="ytick_3">
     <g id="line2d_9">
      <g>
       <use style="stroke:#000000;stroke-width:0.8;" x="43.78125" xlink:href="#maee0553f02" y="169.468804"/>
      </g>
     </g>
     <g id="text_10">
      <!-- 0.3 -->
      <g transform="translate(20.878125 173.268022)scale(0.1 -0.1)">
       <defs>
        <path d="M 40.578125 39.3125 
Q 47.65625 37.796875 51.625 33 
Q 55.609375 28.21875 55.609375 21.1875 
Q 55.609375 10.40625 48.1875 4.484375 
Q 40.765625 -1.421875 27.09375 -1.421875 
Q 22.515625 -1.421875 17.65625 -0.515625 
Q 12.796875 0.390625 7.625 2.203125 
L 7.625 11.71875 
Q 11.71875 9.328125 16.59375 8.109375 
Q 21.484375 6.890625 26.8125 6.890625 
Q 36.078125 6.890625 40.9375 10.546875 
Q 45.796875 14.203125 45.796875 21.1875 
Q 45.796875 27.640625 41.28125 31.265625 
Q 36.765625 34.90625 28.71875 34.90625 
L 20.21875 34.90625 
L 20.21875 43.015625 
L 29.109375 43.015625 
Q 36.375 43.015625 40.234375 45.921875 
Q 44.09375 48.828125 44.09375 54.296875 
Q 44.09375 59.90625 40.109375 62.90625 
Q 36.140625 65.921875 28.71875 65.921875 
Q 24.65625 65.921875 20.015625 65.03125 
Q 15.375 64.15625 9.8125 62.3125 
L 9.8125 71.09375 
Q 15.4375 72.65625 20.34375 73.4375 
Q 25.25 74.21875 29.59375 74.21875 
Q 40.828125 74.21875 47.359375 69.109375 
Q 53.90625 64.015625 53.90625 55.328125 
Q 53.90625 49.265625 50.4375 45.09375 
Q 46.96875 40.921875 40.578125 39.3125 
z
" id="DejaVuSans-51"/>
       </defs>
       <use xlink:href="#DejaVuSans-48"/>
       <use x="63.623047" xlink:href="#DejaVuSans-46"/>
       <use x="95.410156" xlink:href="#DejaVuSans-51"/>
      </g>
     </g>
    </g>
    <g id="ytick_4">
     <g id="line2d_10">
      <g>
       <use style="stroke:#000000;stroke-width:0.8;" x="43.78125" xlink:href="#maee0553f02" y="120.238601"/>
      </g>
     </g>
     <g id="text_11">
      <!-- 0.4 -->
      <g transform="translate(20.878125 124.03782)scale(0.1 -0.1)">
       <use xlink:href="#DejaVuSans-48"/>
       <use x="63.623047" xlink:href="#DejaVuSans-46"/>
       <use x="95.410156" xlink:href="#DejaVuSans-52"/>
      </g>
     </g>
    </g>
    <g id="ytick_5">
     <g id="line2d_11">
      <g>
       <use style="stroke:#000000;stroke-width:0.8;" x="43.78125" xlink:href="#maee0553f02" y="71.008398"/>
      </g>
     </g>
     <g id="text_12">
      <!-- 0.5 -->
      <g transform="translate(20.878125 74.807617)scale(0.1 -0.1)">
       <defs>
        <path d="M 10.796875 72.90625 
L 49.515625 72.90625 
L 49.515625 64.59375 
L 19.828125 64.59375 
L 19.828125 46.734375 
Q 21.96875 47.46875 24.109375 47.828125 
Q 26.265625 48.1875 28.421875 48.1875 
Q 40.625 48.1875 47.75 41.5 
Q 54.890625 34.8125 54.890625 23.390625 
Q 54.890625 11.625 47.5625 5.09375 
Q 40.234375 -1.421875 26.90625 -1.421875 
Q 22.3125 -1.421875 17.546875 -0.640625 
Q 12.796875 0.140625 7.71875 1.703125 
L 7.71875 11.625 
Q 12.109375 9.234375 16.796875 8.0625 
Q 21.484375 6.890625 26.703125 6.890625 
Q 35.15625 6.890625 40.078125 11.328125 
Q 45.015625 15.765625 45.015625 23.390625 
Q 45.015625 31 40.078125 35.4375 
Q 35.15625 39.890625 26.703125 39.890625 
Q 22.75 39.890625 18.8125 39.015625 
Q 14.890625 38.140625 10.796875 36.28125 
z
" id="DejaVuSans-53"/>
       </defs>
       <use xlink:href="#DejaVuSans-48"/>
       <use x="63.623047" xlink:href="#DejaVuSans-46"/>
       <use x="95.410156" xlink:href="#DejaVuSans-53"/>
      </g>
     </g>
    </g>
    <g id="ytick_6">
     <g id="line2d_12">
      <g>
       <use style="stroke:#000000;stroke-width:0.8;" x="43.78125" xlink:href="#maee0553f02" y="21.778195"/>
      </g>
     </g>
     <g id="text_13">
      <!-- 0.6 -->
      <g transform="translate(20.878125 25.577414)scale(0.1 -0.1)">
       <use xlink:href="#DejaVuSans-48"/>
       <use x="63.623047" xlink:href="#DejaVuSans-46"/>
       <use x="95.410156" xlink:href="#DejaVuSans-54"/>
      </g>
     </g>
    </g>
    <g id="text_14">
     <!-- performance -->
     <g transform="translate(14.798438 172.278656)rotate(-90)scale(0.1 -0.1)">
      <defs>
       <path d="M 18.109375 8.203125 
L 18.109375 -20.796875 
L 9.078125 -20.796875 
L 9.078125 54.6875 
L 18.109375 54.6875 
L 18.109375 46.390625 
Q 20.953125 51.265625 25.265625 53.625 
Q 29.59375 56 35.59375 56 
Q 45.5625 56 51.78125 48.09375 
Q 58.015625 40.1875 58.015625 27.296875 
Q 58.015625 14.40625 51.78125 6.484375 
Q 45.5625 -1.421875 35.59375 -1.421875 
Q 29.59375 -1.421875 25.265625 0.953125 
Q 20.953125 3.328125 18.109375 8.203125 
z
M 48.6875 27.296875 
Q 48.6875 37.203125 44.609375 42.84375 
Q 40.53125 48.484375 33.40625 48.484375 
Q 26.265625 48.484375 22.1875 42.84375 
Q 18.109375 37.203125 18.109375 27.296875 
Q 18.109375 17.390625 22.1875 11.75 
Q 26.265625 6.109375 33.40625 6.109375 
Q 40.53125 6.109375 44.609375 11.75 
Q 48.6875 17.390625 48.6875 27.296875 
z
" id="DejaVuSans-112"/>
       <path d="M 56.203125 29.59375 
L 56.203125 25.203125 
L 14.890625 25.203125 
Q 15.484375 15.921875 20.484375 11.0625 
Q 25.484375 6.203125 34.421875 6.203125 
Q 39.59375 6.203125 44.453125 7.46875 
Q 49.3125 8.734375 54.109375 11.28125 
L 54.109375 2.78125 
Q 49.265625 0.734375 44.1875 -0.34375 
Q 39.109375 -1.421875 33.890625 -1.421875 
Q 20.796875 -1.421875 13.15625 6.1875 
Q 5.515625 13.8125 5.515625 26.8125 
Q 5.515625 40.234375 12.765625 48.109375 
Q 20.015625 56 32.328125 56 
Q 43.359375 56 49.78125 48.890625 
Q 56.203125 41.796875 56.203125 29.59375 
z
M 47.21875 32.234375 
Q 47.125 39.59375 43.09375 43.984375 
Q 39.0625 48.390625 32.421875 48.390625 
Q 24.90625 48.390625 20.390625 44.140625 
Q 15.875 39.890625 15.1875 32.171875 
z
" id="DejaVuSans-101"/>
       <path d="M 41.109375 46.296875 
Q 39.59375 47.171875 37.8125 47.578125 
Q 36.03125 48 33.890625 48 
Q 26.265625 48 22.1875 43.046875 
Q 18.109375 38.09375 18.109375 28.8125 
L 18.109375 0 
L 9.078125 0 
L 9.078125 54.6875 
L 18.109375 54.6875 
L 18.109375 46.1875 
Q 20.953125 51.171875 25.484375 53.578125 
Q 30.03125 56 36.53125 56 
Q 37.453125 56 38.578125 55.875 
Q 39.703125 55.765625 41.0625 55.515625 
z
" id="DejaVuSans-114"/>
       <path d="M 52 44.1875 
Q 55.375 50.25 60.0625 53.125 
Q 64.75 56 71.09375 56 
Q 79.640625 56 84.28125 50.015625 
Q 88.921875 44.046875 88.921875 33.015625 
L 88.921875 0 
L 79.890625 0 
L 79.890625 32.71875 
Q 79.890625 40.578125 77.09375 44.375 
Q 74.3125 48.1875 68.609375 48.1875 
Q 61.625 48.1875 57.5625 43.546875 
Q 53.515625 38.921875 53.515625 30.90625 
L 53.515625 0 
L 44.484375 0 
L 44.484375 32.71875 
Q 44.484375 40.625 41.703125 44.40625 
Q 38.921875 48.1875 33.109375 48.1875 
Q 26.21875 48.1875 22.15625 43.53125 
Q 18.109375 38.875 18.109375 30.90625 
L 18.109375 0 
L 9.078125 0 
L 9.078125 54.6875 
L 18.109375 54.6875 
L 18.109375 46.1875 
Q 21.1875 51.21875 25.484375 53.609375 
Q 29.78125 56 35.6875 56 
Q 41.65625 56 45.828125 52.96875 
Q 50 49.953125 52 44.1875 
z
" id="DejaVuSans-109"/>
       <path d="M 34.28125 27.484375 
Q 23.390625 27.484375 19.1875 25 
Q 14.984375 22.515625 14.984375 16.5 
Q 14.984375 11.71875 18.140625 8.90625 
Q 21.296875 6.109375 26.703125 6.109375 
Q 34.1875 6.109375 38.703125 11.40625 
Q 43.21875 16.703125 43.21875 25.484375 
L 43.21875 27.484375 
z
M 52.203125 31.203125 
L 52.203125 0 
L 43.21875 0 
L 43.21875 8.296875 
Q 40.140625 3.328125 35.546875 0.953125 
Q 30.953125 -1.421875 24.3125 -1.421875 
Q 15.921875 -1.421875 10.953125 3.296875 
Q 6 8.015625 6 15.921875 
Q 6 25.140625 12.171875 29.828125 
Q 18.359375 34.515625 30.609375 34.515625 
L 43.21875 34.515625 
L 43.21875 35.40625 
Q 43.21875 41.609375 39.140625 45 
Q 35.0625 48.390625 27.6875 48.390625 
Q 23 48.390625 18.546875 47.265625 
Q 14.109375 46.140625 10.015625 43.890625 
L 10.015625 52.203125 
Q 14.9375 54.109375 19.578125 55.046875 
Q 24.21875 56 28.609375 56 
Q 40.484375 56 46.34375 49.84375 
Q 52.203125 43.703125 52.203125 31.203125 
z
" id="DejaVuSans-97"/>
       <path d="M 54.890625 33.015625 
L 54.890625 0 
L 45.90625 0 
L 45.90625 32.71875 
Q 45.90625 40.484375 42.875 44.328125 
Q 39.84375 48.1875 33.796875 48.1875 
Q 26.515625 48.1875 22.3125 43.546875 
Q 18.109375 38.921875 18.109375 30.90625 
L 18.109375 0 
L 9.078125 0 
L 9.078125 54.6875 
L 18.109375 54.6875 
L 18.109375 46.1875 
Q 21.34375 51.125 25.703125 53.5625 
Q 30.078125 56 35.796875 56 
Q 45.21875 56 50.046875 50.171875 
Q 54.890625 44.34375 54.890625 33.015625 
z
" id="DejaVuSans-110"/>
      </defs>
      <use xlink:href="#DejaVuSans-112"/>
      <use x="63.476562" xlink:href="#DejaVuSans-101"/>
      <use x="125" xlink:href="#DejaVuSans-114"/>
      <use x="166.113281" xlink:href="#DejaVuSans-102"/>
      <use x="201.318359" xlink:href="#DejaVuSans-111"/>
      <use x="262.5" xlink:href="#DejaVuSans-114"/>
      <use x="301.863281" xlink:href="#DejaVuSans-109"/>
      <use x="399.275391" xlink:href="#DejaVuSans-97"/>
      <use x="460.554688" xlink:href="#DejaVuSans-110"/>
      <use x="523.933594" xlink:href="#DejaVuSans-99"/>
      <use x="578.914062" xlink:href="#DejaVuSans-101"/>
     </g>
    </g>
   </g>
   <g id="line2d_13">
    <path clip-path="url(#p036ab4bc8d)" d="M 60.013977 49.416204 
L 66.777614 62.21729 
L 73.54125 62.21729 
L 80.304886 62.21729 
L 87.068523 55.760105 
L 93.832159 75.483871 
L 100.595795 25.115836 
L 107.359432 25.115836 
L 114.123068 25.115836 
L 120.886705 31.035156 
L 127.650341 49.416204 
L 134.413977 55.760105 
L 141.177614 125.974158 
L 147.94125 125.974158 
L 154.704886 55.760105 
L 161.468523 55.760105 
L 168.232159 55.760105 
L 174.995795 55.760105 
L 181.759432 82.299729 
L 188.523068 55.760105 
L 195.286705 82.299729 
L 202.050341 82.299729 
L 208.813977 82.299729 
L 215.577614 82.299729 
L 222.34125 118.345132 
L 229.104886 201.939789 
L 235.868523 201.939789 
L 242.632159 201.939789 
L 249.395795 201.939789 
L 256.159432 201.939789 
L 262.923068 201.939789 
L 269.686705 201.939789 
L 276.450341 201.939789 
L 283.213977 201.939789 
L 289.977614 201.939789 
L 296.74125 201.939789 
L 303.504886 201.939789 
L 310.268523 201.939789 
L 317.032159 201.939789 
L 323.795795 201.939789 
L 330.559432 201.939789 
L 337.323068 201.939789 
L 344.086705 201.939789 
L 350.850341 201.939789 
L 357.613977 201.939789 
L 364.377614 201.939789 
L 371.14125 201.939789 
L 377.904886 201.939789 
L 384.668523 201.939789 
" style="fill:none;stroke:#f26b38;stroke-dasharray:7.4,3.2;stroke-dashoffset:0;stroke-width:2;"/>
   </g>
   <g id="line2d_14">
    <path clip-path="url(#p036ab4bc8d)" d="M 60.013977 82.299729 
L 66.777614 68.790821 
L 73.54125 68.790821 
L 80.304886 75.483871 
L 87.068523 82.299729 
L 93.832159 89.241806 
L 100.595795 89.241806 
L 107.359432 89.241806 
L 114.123068 89.241806 
L 120.886705 75.483871 
L 127.650341 49.416204 
L 134.413977 125.974158 
L 141.177614 125.974158 
L 147.94125 125.974158 
L 154.704886 125.974158 
L 161.468523 125.974158 
L 168.232159 261.216 
L 174.995795 261.216 
L 181.759432 261.216 
L 188.523068 261.216 
L 195.286705 261.216 
L 202.050341 261.216 
L 208.813977 261.216 
L 215.577614 261.216 
L 222.34125 261.216 
L 229.104886 261.216 
L 235.868523 261.216 
L 242.632159 261.216 
L 249.395795 261.216 
L 256.159432 261.216 
L 262.923068 261.216 
L 269.686705 261.216 
L 276.450341 261.216 
L 283.213977 261.216 
L 289.977614 261.216 
L 296.74125 261.216 
L 303.504886 261.216 
L 310.268523 261.216 
L 317.032159 261.216 
L 323.795795 261.216 
L 330.559432 261.216 
L 337.323068 261.216 
L 344.086705 261.216 
L 350.850341 261.216 
L 357.613977 261.216 
L 364.377614 261.216 
L 371.14125 261.216 
L 377.904886 261.216 
L 384.668523 261.216 
" style="fill:none;stroke:#2f9599;stroke-dasharray:2,3.3;stroke-dashoffset:0;stroke-width:2;"/>
   </g>
   <g id="line2d_15">
    <path clip-path="url(#p036ab4bc8d)" d="M 60.013977 55.760105 
L 66.777614 55.760105 
L 73.54125 55.760105 
L 80.304886 55.760105 
L 87.068523 62.21729 
L 93.832159 75.483871 
L 100.595795 75.483871 
L 107.359432 75.483871 
L 114.123068 82.299729 
L 120.886705 68.790821 
L 127.650341 68.790821 
L 134.413977 75.483871 
L 141.177614 75.483871 
L 147.94125 75.483871 
L 154.704886 62.21729 
L 161.468523 75.483871 
L 168.232159 75.483871 
L 174.995795 68.790821 
L 181.759432 25.115836 
L 188.523068 19.296 
L 195.286705 25.115836 
L 202.050341 19.296 
L 208.813977 19.296 
L 215.577614 75.483871 
L 222.34125 49.416204 
L 229.104886 49.416204 
L 235.868523 19.296 
L 242.632159 25.115836 
L 249.395795 25.115836 
L 256.159432 49.416204 
L 262.923068 49.416204 
L 269.686705 49.416204 
L 276.450341 49.416204 
L 283.213977 201.939789 
L 289.977614 201.939789 
L 296.74125 201.939789 
L 303.504886 201.939789 
L 310.268523 201.939789 
L 317.032159 201.939789 
L 323.795795 201.939789 
L 330.559432 201.939789 
L 337.323068 201.939789 
L 344.086705 201.939789 
L 350.850341 201.939789 
L 357.613977 201.939789 
L 364.377614 201.939789 
L 371.14125 201.939789 
L 377.904886 201.939789 
L 384.668523 201.939789 
" style="fill:none;stroke:#a7226e;stroke-dasharray:12.8,3.2,2,3.2;stroke-dashoffset:0;stroke-width:2;"/>
   </g>
   <g id="patch_3">
    <path d="M 43.78125 273.312 
L 43.78125 7.2 
" style="fill:none;stroke:#000000;stroke-linecap:square;stroke-linejoin:miter;stroke-width:0.8;"/>
   </g>
   <g id="patch_4">
    <path d="M 400.90125 273.312 
L 400.90125 7.2 
" style="fill:none;stroke:#000000;stroke-linecap:square;stroke-linejoin:miter;stroke-width:0.8;"/>
   </g>
   <g id="patch_5">
    <path d="M 43.78125 273.312 
L 400.90125 273.312 
" style="fill:none;stroke:#000000;stroke-linecap:square;stroke-linejoin:miter;stroke-width:0.8;"/>
   </g>
   <g id="patch_6">
    <path d="M 43.78125 7.2 
L 400.90125 7.2 
" style="fill:none;stroke:#000000;stroke-linecap:square;stroke-linejoin:miter;stroke-width:0.8;"/>
   </g>
   <g id="legend_1">
    <g id="patch_7">
     <path d="M 315.427559 43.890912 
L 396.04325 43.890912 
Q 397.43125 43.890912 397.43125 42.502912 
L 397.43125 12.058 
Q 397.43125 10.67 396.04325 10.67 
L 315.427559 10.67 
Q 314.039559 10.67 314.039559 12.058 
L 314.039559 42.502912 
Q 314.039559 43.890912 315.427559 43.890912 
z
" style="fill:#ffffff;opacity:0.8;stroke:#cccccc;stroke-linejoin:miter;"/>
    </g>
    <g id="PathCollection_5">
     <defs>
      <path d="M 0 3 
C 0.795609 3 1.55874 2.683901 2.12132 2.12132 
C 2.683901 1.55874 3 0.795609 3 0 
C 3 -0.795609 2.683901 -1.55874 2.12132 -2.12132 
C 1.55874 -2.683901 0.795609 -3 0 -3 
C -0.795609 -3 -1.55874 -2.683901 -2.12132 -2.12132 
C -2.683901 -1.55874 -3 -0.795609 -3 0 
C -3 0.795609 -2.683901 1.55874 -2.12132 2.12132 
C -1.55874 2.683901 -0.795609 3 0 3 
z
" id="m692affcff6" style="stroke:#f26b38;"/>
     </defs>
     <g>
      <use style="fill:#f26b38;stroke:#f26b38;" x="323.755559" xlink:href="#m692affcff6" y="16.897566"/>
     </g>
    </g>
    <g id="text_15">
     <!-- mean_err -->
     <g transform="translate(336.247559 18.719316)scale(0.0694 -0.0694)">
      <defs>
       <path d="M 50.984375 -16.609375 
L 50.984375 -23.578125 
L -0.984375 -23.578125 
L -0.984375 -16.609375 
z
" id="DejaVuSans-95"/>
      </defs>
      <use xlink:href="#DejaVuSans-109"/>
      <use x="97.412109" xlink:href="#DejaVuSans-101"/>
      <use x="158.935547" xlink:href="#DejaVuSans-97"/>
      <use x="220.214844" xlink:href="#DejaVuSans-110"/>
      <use x="283.59375" xlink:href="#DejaVuSans-95"/>
      <use x="333.59375" xlink:href="#DejaVuSans-101"/>
      <use x="395.117188" xlink:href="#DejaVuSans-114"/>
      <use x="434.480469" xlink:href="#DejaVuSans-114"/>
     </g>
    </g>
    <g id="PathCollection_6">
     <defs>
      <path d="M -1.5 3 
L 0 1.5 
L 1.5 3 
L 3 1.5 
L 1.5 0 
L 3 -1.5 
L 1.5 -3 
L 0 -1.5 
L -1.5 -3 
L -3 -1.5 
L -1.5 0 
L -3 1.5 
z
" id="md7480747cd" style="stroke:#2f9599;"/>
     </defs>
     <g>
      <use style="fill:#2f9599;stroke:#2f9599;" x="323.755559" xlink:href="#md7480747cd" y="27.277203"/>
     </g>
    </g>
    <g id="text_16">
     <!-- mean_sq_err -->
     <g transform="translate(336.247559 29.098953)scale(0.0694 -0.0694)">
      <defs>
       <path d="M 44.28125 53.078125 
L 44.28125 44.578125 
Q 40.484375 46.53125 36.375 47.5 
Q 32.28125 48.484375 27.875 48.484375 
Q 21.1875 48.484375 17.84375 46.4375 
Q 14.5 44.390625 14.5 40.28125 
Q 14.5 37.15625 16.890625 35.375 
Q 19.28125 33.59375 26.515625 31.984375 
L 29.59375 31.296875 
Q 39.15625 29.25 43.1875 25.515625 
Q 47.21875 21.78125 47.21875 15.09375 
Q 47.21875 7.46875 41.1875 3.015625 
Q 35.15625 -1.421875 24.609375 -1.421875 
Q 20.21875 -1.421875 15.453125 -0.5625 
Q 10.6875 0.296875 5.421875 2 
L 5.421875 11.28125 
Q 10.40625 8.6875 15.234375 7.390625 
Q 20.0625 6.109375 24.8125 6.109375 
Q 31.15625 6.109375 34.5625 8.28125 
Q 37.984375 10.453125 37.984375 14.40625 
Q 37.984375 18.0625 35.515625 20.015625 
Q 33.0625 21.96875 24.703125 23.78125 
L 21.578125 24.515625 
Q 13.234375 26.265625 9.515625 29.90625 
Q 5.8125 33.546875 5.8125 39.890625 
Q 5.8125 47.609375 11.28125 51.796875 
Q 16.75 56 26.8125 56 
Q 31.78125 56 36.171875 55.265625 
Q 40.578125 54.546875 44.28125 53.078125 
z
" id="DejaVuSans-115"/>
       <path d="M 14.796875 27.296875 
Q 14.796875 17.390625 18.875 11.75 
Q 22.953125 6.109375 30.078125 6.109375 
Q 37.203125 6.109375 41.296875 11.75 
Q 45.40625 17.390625 45.40625 27.296875 
Q 45.40625 37.203125 41.296875 42.84375 
Q 37.203125 48.484375 30.078125 48.484375 
Q 22.953125 48.484375 18.875 42.84375 
Q 14.796875 37.203125 14.796875 27.296875 
z
M 45.40625 8.203125 
Q 42.578125 3.328125 38.25 0.953125 
Q 33.9375 -1.421875 27.875 -1.421875 
Q 17.96875 -1.421875 11.734375 6.484375 
Q 5.515625 14.40625 5.515625 27.296875 
Q 5.515625 40.1875 11.734375 48.09375 
Q 17.96875 56 27.875 56 
Q 33.9375 56 38.25 53.625 
Q 42.578125 51.265625 45.40625 46.390625 
L 45.40625 54.6875 
L 54.390625 54.6875 
L 54.390625 -20.796875 
L 45.40625 -20.796875 
z
" id="DejaVuSans-113"/>
      </defs>
      <use xlink:href="#DejaVuSans-109"/>
      <use x="97.412109" xlink:href="#DejaVuSans-101"/>
      <use x="158.935547" xlink:href="#DejaVuSans-97"/>
      <use x="220.214844" xlink:href="#DejaVuSans-110"/>
      <use x="283.59375" xlink:href="#DejaVuSans-95"/>
      <use x="333.59375" xlink:href="#DejaVuSans-115"/>
      <use x="385.693359" xlink:href="#DejaVuSans-113"/>
      <use x="449.169922" xlink:href="#DejaVuSans-95"/>
      <use x="499.169922" xlink:href="#DejaVuSans-101"/>
      <use x="560.693359" xlink:href="#DejaVuSans-114"/>
      <use x="600.056641" xlink:href="#DejaVuSans-114"/>
     </g>
    </g>
    <g id="PathCollection_7">
     <defs>
      <path d="M -2.12132 -2.12132 
L -2.12132 2.12132 
L 2.12132 2.12132 
L 2.12132 -2.12132 
z
" id="maf71d2147d" style="stroke:#a7226e;"/>
     </defs>
     <g>
      <use style="fill:#a7226e;stroke:#a7226e;" x="323.755559" xlink:href="#maf71d2147d" y="37.656841"/>
     </g>
    </g>
    <g id="text_17">
     <!-- mean_sqroot_err -->
     <g transform="translate(336.247559 39.478591)scale(0.0694 -0.0694)">
      <use xlink:href="#DejaVuSans-109"/>
      <use x="97.412109" xlink:href="#DejaVuSans-101"/>
      <use x="158.935547" xlink:href="#DejaVuSans-97"/>
      <use x="220.214844" xlink:href="#DejaVuSans-110"/>
      <use x="283.59375" xlink:href="#DejaVuSans-95"/>
      <use x="333.59375" xlink:href="#DejaVuSans-115"/>
      <use x="385.693359" xlink:href="#DejaVuSans-113"/>
      <use x="449.169922" xlink:href="#DejaVuSans-114"/>
      <use x="488.033203" xlink:href="#DejaVuSans-111"/>
      <use x="549.214844" xlink:href="#DejaVuSans-111"/>
      <use x="610.396484" xlink:href="#DejaVuSans-116"/>
      <use x="649.605469" xlink:href="#DejaVuSans-95"/>
      <use x="699.605469" xlink:href="#DejaVuSans-101"/>
      <use x="761.128906" xlink:href="#DejaVuSans-114"/>
      <use x="800.492188" xlink:href="#DejaVuSans-114"/>
     </g>
    </g>
   </g>
  </g>
 </g>
 <defs>
  <clipPath id="p036ab4bc8d">
   <rect height="266.112" width="357.12" x="43.78125" y="7.2"/>
  </clipPath>
 </defs>
</svg>
