<?xml version="1.0" encoding="utf-8" standalone="no"?>
<!DOCTYPE svg PUBLIC "-//W3C//DTD SVG 1.1//EN"
  "http://www.w3.org/Graphics/SVG/1.1/DTD/svg11.dtd">
<!-- Created with matplotlib (https://matplotlib.org/) -->
<svg height="310.86825pt" version="1.1" viewBox="0 0 408.10125 310.86825" width="408.10125pt" xmlns="http://www.w3.org/2000/svg" xmlns:xlink="http://www.w3.org/1999/xlink">
 <metadata>
  <rdf:RDF xmlns:cc="http://creativecommons.org/ns#" xmlns:dc="http://purl.org/dc/elements/1.1/" xmlns:rdf="http://www.w3.org/1999/02/22-rdf-syntax-ns#">
   <cc:Work>
    <dc:type rdf:resource="http://purl.org/dc/dcmitype/StillImage"/>
    <dc:date>2022-05-27T21:46:49.857632</dc:date>
    <dc:format>image/svg+xml</dc:format>
    <dc:creator>
     <cc:Agent>
      <dc:title>Matplotlib v3.3.4, https://matplotlib.org/</dc:title>
     </cc:Agent>
    </dc:creator>
   </cc:Work>
  </rdf:RDF>
 </metadata>
 <defs>
  <style type="text/css">*{stroke-linecap:butt;stroke-linejoin:round;}</style>
 </defs>
 <g id="figure_1">
  <g id="patch_1">
   <path d="M 0 310.86825 
L 408.10125 310.86825 
L 408.10125 0 
L 0 0 
z
" style="fill:#ffffff;"/>
  </g>
  <g id="axes_1">
   <g id="patch_2">
    <path d="M 43.78125 273.312 
L 400.90125 273.312 
L 400.90125 7.2 
L 43.78125 7.2 
z
" style="fill:#ffffff;"/>
   </g>
   <g id="PathCollection_1">
    <path clip-path="url(#pc89d80ee44)" d="M 60.013977 264.216 
C 60.809587 264.216 61.572717 263.899901 62.135298 263.33732 
C 62.697878 262.77474 63.013977 262.011609 63.013977 261.216 
C 63.013977 260.420391 62.697878 259.65726 62.135298 259.09468 
C 61.572717 258.532099 60.809587 258.216 60.013977 258.216 
C 59.218368 258.216 58.455238 258.532099 57.892657 259.09468 
C 57.330076 259.65726 57.013977 260.420391 57.013977 261.216 
C 57.013977 262.011609 57.330076 262.77474 57.892657 263.33732 
C 58.455238 263.899901 59.218368 264.216 60.013977 264.216 
z
" style="fill:#f26b38;stroke:#ffffff;stroke-width:0.48;"/>
    <path clip-path="url(#pc89d80ee44)" d="M 66.777614 257.100706 
C 67.573223 257.100706 68.336353 256.784607 68.898934 256.222026 
C 69.461515 255.659445 69.777614 254.896315 69.777614 254.100706 
C 69.777614 253.305097 69.461515 252.541966 68.898934 251.979386 
C 68.336353 251.416805 67.573223 251.100706 66.777614 251.100706 
C 65.982004 251.100706 65.218874 251.416805 64.656293 251.979386 
C 64.093713 252.541966 63.777614 253.305097 63.777614 254.100706 
C 63.777614 254.896315 64.093713 255.659445 64.656293 256.222026 
C 65.218874 256.784607 65.982004 257.100706 66.777614 257.100706 
z
" style="fill:#f26b38;stroke:#ffffff;stroke-width:0.48;"/>
    <path clip-path="url(#pc89d80ee44)" d="M 73.54125 242.870118 
C 74.336859 242.870118 75.09999 242.554019 75.66257 241.991438 
C 76.225151 241.428857 76.54125 240.665727 76.54125 239.870118 
C 76.54125 239.074508 76.225151 238.311378 75.66257 237.748797 
C 75.09999 237.186217 74.336859 236.870118 73.54125 236.870118 
C 72.745641 236.870118 71.98251 237.186217 71.41993 237.748797 
C 70.857349 238.311378 70.54125 239.074508 70.54125 239.870118 
C 70.54125 240.665727 70.857349 241.428857 71.41993 241.991438 
C 71.98251 242.554019 72.745641 242.870118 73.54125 242.870118 
z
" style="fill:#f26b38;stroke:#ffffff;stroke-width:0.48;"/>
    <path clip-path="url(#pc89d80ee44)" d="M 80.304886 212.343211 
C 81.100496 212.343211 81.863626 212.027112 82.426207 211.464531 
C 82.988787 210.90195 83.304886 210.13882 83.304886 209.343211 
C 83.304886 208.547601 82.988787 207.784471 82.426207 207.22189 
C 81.863626 206.65931 81.100496 206.343211 80.304886 206.343211 
C 79.509277 206.343211 78.746147 206.65931 78.183566 207.22189 
C 77.620985 207.784471 77.304886 208.547601 77.304886 209.343211 
C 77.304886 210.13882 77.620985 210.90195 78.183566 211.464531 
C 78.746147 212.027112 79.509277 212.343211 80.304886 212.343211 
z
" style="fill:#f26b38;stroke:#ffffff;stroke-width:0.48;"/>
    <path clip-path="url(#pc89d80ee44)" d="M 87.068523 151.982304 
C 87.864132 151.982304 88.627262 151.666205 89.189843 151.103624 
C 89.752424 150.541044 90.068523 149.777913 90.068523 148.982304 
C 90.068523 148.186695 89.752424 147.423564 89.189843 146.860984 
C 88.627262 146.298403 87.864132 145.982304 87.068523 145.982304 
C 86.272913 145.982304 85.509783 146.298403 84.947202 146.860984 
C 84.384622 147.423564 84.068523 148.186695 84.068523 148.982304 
C 84.068523 149.777913 84.384622 150.541044 84.947202 151.103624 
C 85.509783 151.666205 86.272913 151.982304 87.068523 151.982304 
z
" style="fill:#f26b38;stroke:#ffffff;stroke-width:0.48;"/>
    <path clip-path="url(#pc89d80ee44)" d="M 93.832159 152.549445 
C 94.627768 152.549445 95.390899 152.233346 95.953479 151.670766 
C 96.51606 151.108185 96.832159 150.345055 96.832159 149.549445 
C 96.832159 148.753836 96.51606 147.990706 95.953479 147.428125 
C 95.390899 146.865544 94.627768 146.549445 93.832159 146.549445 
C 93.03655 146.549445 92.273419 146.865544 91.710839 147.428125 
C 91.148258 147.990706 90.832159 148.753836 90.832159 149.549445 
C 90.832159 150.345055 91.148258 151.108185 91.710839 151.670766 
C 92.273419 152.233346 93.03655 152.549445 93.832159 152.549445 
z
" style="fill:#f26b38;stroke:#ffffff;stroke-width:0.48;"/>
    <path clip-path="url(#pc89d80ee44)" d="M 100.595795 118.352471 
C 101.391405 118.352471 102.154535 118.036372 102.717116 117.473791 
C 103.279697 116.91121 103.595795 116.14808 103.595795 115.352471 
C 103.595795 114.556861 103.279697 113.793731 102.717116 113.23115 
C 102.154535 112.66857 101.391405 112.352471 100.595795 112.352471 
C 99.800186 112.352471 99.037056 112.66857 98.474475 113.23115 
C 97.911894 113.793731 97.595795 114.556861 97.595795 115.352471 
C 97.595795 116.14808 97.911894 116.91121 98.474475 117.473791 
C 99.037056 118.036372 99.800186 118.352471 100.595795 118.352471 
z
" style="fill:#f26b38;stroke:#ffffff;stroke-width:0.48;"/>
    <path clip-path="url(#pc89d80ee44)" d="M 107.359432 118.352471 
C 108.155041 118.352471 108.918171 118.036372 109.480752 117.473791 
C 110.043333 116.91121 110.359432 116.14808 110.359432 115.352471 
C 110.359432 114.556861 110.043333 113.793731 109.480752 113.23115 
C 108.918171 112.66857 108.155041 112.352471 107.359432 112.352471 
C 106.563823 112.352471 105.800692 112.66857 105.238111 113.23115 
C 104.675531 113.793731 104.359432 114.556861 104.359432 115.352471 
C 104.359432 116.14808 104.675531 116.91121 105.238111 117.473791 
C 105.800692 118.036372 106.563823 118.352471 107.359432 118.352471 
z
" style="fill:#f26b38;stroke:#ffffff;stroke-width:0.48;"/>
    <path clip-path="url(#pc89d80ee44)" d="M 114.123068 134.806588 
C 114.918677 134.806588 115.681808 134.490489 116.244389 133.927909 
C 116.806969 133.365328 117.123068 132.602198 117.123068 131.806588 
C 117.123068 131.010979 116.806969 130.247849 116.244389 129.685268 
C 115.681808 129.122687 114.918677 128.806588 114.123068 128.806588 
C 113.327459 128.806588 112.564329 129.122687 112.001748 129.685268 
C 111.439167 130.247849 111.123068 131.010979 111.123068 131.806588 
C 111.123068 132.602198 111.439167 133.365328 112.001748 133.927909 
C 112.564329 134.490489 113.327459 134.806588 114.123068 134.806588 
z
" style="fill:#f26b38;stroke:#ffffff;stroke-width:0.48;"/>
    <path clip-path="url(#pc89d80ee44)" d="M 120.886705 162.568941 
C 121.682314 162.568941 122.445444 162.252842 123.008025 161.690262 
C 123.570606 161.127681 123.886705 160.36455 123.886705 159.568941 
C 123.886705 158.773332 123.570606 158.010202 123.008025 157.447621 
C 122.445444 156.88504 121.682314 156.568941 120.886705 156.568941 
C 120.091095 156.568941 119.327965 156.88504 118.765384 157.447621 
C 118.202803 158.010202 117.886705 158.773332 117.886705 159.568941 
C 117.886705 160.36455 118.202803 161.127681 118.765384 161.690262 
C 119.327965 162.252842 120.091095 162.568941 120.886705 162.568941 
z
" style="fill:#f26b38;stroke:#ffffff;stroke-width:0.48;"/>
    <path clip-path="url(#pc89d80ee44)" d="M 127.650341 171.717176 
C 128.44595 171.717176 129.209081 171.401078 129.771661 170.838497 
C 130.334242 170.275916 130.650341 169.512786 130.650341 168.717176 
C 130.650341 167.921567 130.334242 167.158437 129.771661 166.595856 
C 129.209081 166.033275 128.44595 165.717176 127.650341 165.717176 
C 126.854732 165.717176 126.091601 166.033275 125.529021 166.595856 
C 124.96644 167.158437 124.650341 167.921567 124.650341 168.717176 
C 124.650341 169.512786 124.96644 170.275916 125.529021 170.838497 
C 126.091601 171.401078 126.854732 171.717176 127.650341 171.717176 
z
" style="fill:#f26b38;stroke:#ffffff;stroke-width:0.48;"/>
    <path clip-path="url(#pc89d80ee44)" d="M 134.413977 167.350973 
C 135.209587 167.350973 135.972717 167.034874 136.535298 166.472294 
C 137.097878 165.909713 137.413977 165.146583 137.413977 164.350973 
C 137.413977 163.555364 137.097878 162.792234 136.535298 162.229653 
C 135.972717 161.667072 135.209587 161.350973 134.413977 161.350973 
C 133.618368 161.350973 132.855238 161.667072 132.292657 162.229653 
C 131.730076 162.792234 131.413977 163.555364 131.413977 164.350973 
C 131.413977 165.146583 131.730076 165.909713 132.292657 166.472294 
C 132.855238 167.034874 133.618368 167.350973 134.413977 167.350973 
z
" style="fill:#f26b38;stroke:#ffffff;stroke-width:0.48;"/>
    <path clip-path="url(#pc89d80ee44)" d="M 141.177614 126.438032 
C 141.973223 126.438032 142.736353 126.121933 143.298934 125.559352 
C 143.861515 124.996772 144.177614 124.233641 144.177614 123.438032 
C 144.177614 122.642423 143.861515 121.879292 143.298934 121.316712 
C 142.736353 120.754131 141.973223 120.438032 141.177614 120.438032 
C 140.382004 120.438032 139.618874 120.754131 139.056293 121.316712 
C 138.493713 121.879292 138.177614 122.642423 138.177614 123.438032 
C 138.177614 124.233641 138.493713 124.996772 139.056293 125.559352 
C 139.618874 126.121933 140.382004 126.438032 141.177614 126.438032 
z
" style="fill:#f26b38;stroke:#ffffff;stroke-width:0.48;"/>
    <path clip-path="url(#pc89d80ee44)" d="M 147.94125 114.350118 
C 148.736859 114.350118 149.49999 114.034019 150.06257 113.471438 
C 150.625151 112.908857 150.94125 112.145727 150.94125 111.350118 
C 150.94125 110.554508 150.625151 109.791378 150.06257 109.228797 
C 149.49999 108.666217 148.736859 108.350118 147.94125 108.350118 
C 147.145641 108.350118 146.38251 108.666217 145.81993 109.228797 
C 145.257349 109.791378 144.94125 110.554508 144.94125 111.350118 
C 144.94125 112.145727 145.257349 112.908857 145.81993 113.471438 
C 146.38251 114.034019 147.145641 114.350118 147.94125 114.350118 
z
" style="fill:#f26b38;stroke:#ffffff;stroke-width:0.48;"/>
    <path clip-path="url(#pc89d80ee44)" d="M 154.704886 52.050866 
C 155.500496 52.050866 156.263626 51.734767 156.826207 51.172187 
C 157.388787 50.609606 157.704886 49.846476 157.704886 49.050866 
C 157.704886 48.255257 157.388787 47.492127 156.826207 46.929546 
C 156.263626 46.366965 155.500496 46.050866 154.704886 46.050866 
C 153.909277 46.050866 153.146147 46.366965 152.583566 46.929546 
C 152.020985 47.492127 151.704886 48.255257 151.704886 49.050866 
C 151.704886 49.846476 152.020985 50.609606 152.583566 51.172187 
C 153.146147 51.734767 153.909277 52.050866 154.704886 52.050866 
z
" style="fill:#f26b38;stroke:#ffffff;stroke-width:0.48;"/>
    <path clip-path="url(#pc89d80ee44)" d="M 161.468523 52.050866 
C 162.264132 52.050866 163.027262 51.734767 163.589843 51.172187 
C 164.152424 50.609606 164.468523 49.846476 164.468523 49.050866 
C 164.468523 48.255257 164.152424 47.492127 163.589843 46.929546 
C 163.027262 46.366965 162.264132 46.050866 161.468523 46.050866 
C 160.672913 46.050866 159.909783 46.366965 159.347202 46.929546 
C 158.784622 47.492127 158.468523 48.255257 158.468523 49.050866 
C 158.468523 49.846476 158.784622 50.609606 159.347202 51.172187 
C 159.909783 51.734767 160.672913 52.050866 161.468523 52.050866 
z
" style="fill:#f26b38;stroke:#ffffff;stroke-width:0.48;"/>
    <path clip-path="url(#pc89d80ee44)" d="M 168.232159 52.050866 
C 169.027768 52.050866 169.790899 51.734767 170.353479 51.172187 
C 170.91606 50.609606 171.232159 49.846476 171.232159 49.050866 
C 171.232159 48.255257 170.91606 47.492127 170.353479 46.929546 
C 169.790899 46.366965 169.027768 46.050866 168.232159 46.050866 
C 167.43655 46.050866 166.673419 46.366965 166.110839 46.929546 
C 165.548258 47.492127 165.232159 48.255257 165.232159 49.050866 
C 165.232159 49.846476 165.548258 50.609606 166.110839 51.172187 
C 166.673419 51.734767 167.43655 52.050866 168.232159 52.050866 
z
" style="fill:#f26b38;stroke:#ffffff;stroke-width:0.48;"/>
    <path clip-path="url(#pc89d80ee44)" d="M 174.995795 52.050866 
C 175.791405 52.050866 176.554535 51.734767 177.117116 51.172187 
C 177.679697 50.609606 177.995795 49.846476 177.995795 49.050866 
C 177.995795 48.255257 177.679697 47.492127 177.117116 46.929546 
C 176.554535 46.366965 175.791405 46.050866 174.995795 46.050866 
C 174.200186 46.050866 173.437056 46.366965 172.874475 46.929546 
C 172.311894 47.492127 171.995795 48.255257 171.995795 49.050866 
C 171.995795 49.846476 172.311894 50.609606 172.874475 51.172187 
C 173.437056 51.734767 174.200186 52.050866 174.995795 52.050866 
z
" style="fill:#f26b38;stroke:#ffffff;stroke-width:0.48;"/>
    <path clip-path="url(#pc89d80ee44)" d="M 181.759432 39.830118 
C 182.555041 39.830118 183.318171 39.514019 183.880752 38.951438 
C 184.443333 38.388857 184.759432 37.625727 184.759432 36.830118 
C 184.759432 36.034508 184.443333 35.271378 183.880752 34.708797 
C 183.318171 34.146217 182.555041 33.830118 181.759432 33.830118 
C 180.963823 33.830118 180.200692 34.146217 179.638111 34.708797 
C 179.075531 35.271378 178.759432 36.034508 178.759432 36.830118 
C 178.759432 37.625727 179.075531 38.388857 179.638111 38.951438 
C 180.200692 39.514019 180.963823 39.830118 181.759432 39.830118 
z
" style="fill:#f26b38;stroke:#ffffff;stroke-width:0.48;"/>
    <path clip-path="url(#pc89d80ee44)" d="M 188.523068 22.296 
C 189.318677 22.296 190.081808 21.979901 190.644389 21.41732 
C 191.206969 20.85474 191.523068 20.091609 191.523068 19.296 
C 191.523068 18.500391 191.206969 17.73726 190.644389 17.17468 
C 190.081808 16.612099 189.318677 16.296 188.523068 16.296 
C 187.727459 16.296 186.964329 16.612099 186.401748 17.17468 
C 185.839167 17.73726 185.523068 18.500391 185.523068 19.296 
C 185.523068 20.091609 185.839167 20.85474 186.401748 21.41732 
C 186.964329 21.979901 187.727459 22.296 188.523068 22.296 
z
" style="fill:#f26b38;stroke:#ffffff;stroke-width:0.48;"/>
    <path clip-path="url(#pc89d80ee44)" d="M 195.286705 22.296 
C 196.082314 22.296 196.845444 21.979901 197.408025 21.41732 
C 197.970606 20.85474 198.286705 20.091609 198.286705 19.296 
C 198.286705 18.500391 197.970606 17.73726 197.408025 17.17468 
C 196.845444 16.612099 196.082314 16.296 195.286705 16.296 
C 194.491095 16.296 193.727965 16.612099 193.165384 17.17468 
C 192.602803 17.73726 192.286705 18.500391 192.286705 19.296 
C 192.286705 20.091609 192.602803 20.85474 193.165384 21.41732 
C 193.727965 21.979901 194.491095 22.296 195.286705 22.296 
z
" style="fill:#f26b38;stroke:#ffffff;stroke-width:0.48;"/>
    <path clip-path="url(#pc89d80ee44)" d="M 202.050341 22.296 
C 202.84595 22.296 203.609081 21.979901 204.171661 21.41732 
C 204.734242 20.85474 205.050341 20.091609 205.050341 19.296 
C 205.050341 18.500391 204.734242 17.73726 204.171661 17.17468 
C 203.609081 16.612099 202.84595 16.296 202.050341 16.296 
C 201.254732 16.296 200.491601 16.612099 199.929021 17.17468 
C 199.36644 17.73726 199.050341 18.500391 199.050341 19.296 
C 199.050341 20.091609 199.36644 20.85474 199.929021 21.41732 
C 200.491601 21.979901 201.254732 22.296 202.050341 22.296 
z
" style="fill:#f26b38;stroke:#ffffff;stroke-width:0.48;"/>
    <path clip-path="url(#pc89d80ee44)" d="M 208.813977 22.296 
C 209.609587 22.296 210.372717 21.979901 210.935298 21.41732 
C 211.497878 20.85474 211.813977 20.091609 211.813977 19.296 
C 211.813977 18.500391 211.497878 17.73726 210.935298 17.17468 
C 210.372717 16.612099 209.609587 16.296 208.813977 16.296 
C 208.018368 16.296 207.255238 16.612099 206.692657 17.17468 
C 206.130076 17.73726 205.813977 18.500391 205.813977 19.296 
C 205.813977 20.091609 206.130076 20.85474 206.692657 21.41732 
C 207.255238 21.979901 208.018368 22.296 208.813977 22.296 
z
" style="fill:#f26b38;stroke:#ffffff;stroke-width:0.48;"/>
    <path clip-path="url(#pc89d80ee44)" d="M 215.577614 22.296 
C 216.373223 22.296 217.136353 21.979901 217.698934 21.41732 
C 218.261515 20.85474 218.577614 20.091609 218.577614 19.296 
C 218.577614 18.500391 218.261515 17.73726 217.698934 17.17468 
C 217.136353 16.612099 216.373223 16.296 215.577614 16.296 
C 214.782004 16.296 214.018874 16.612099 213.456293 17.17468 
C 212.893713 17.73726 212.577614 18.500391 212.577614 19.296 
C 212.577614 20.091609 212.893713 20.85474 213.456293 21.41732 
C 214.018874 21.979901 214.782004 22.296 215.577614 22.296 
z
" style="fill:#f26b38;stroke:#ffffff;stroke-width:0.48;"/>
    <path clip-path="url(#pc89d80ee44)" d="M 222.34125 22.296 
C 223.136859 22.296 223.89999 21.979901 224.46257 21.41732 
C 225.025151 20.85474 225.34125 20.091609 225.34125 19.296 
C 225.34125 18.500391 225.025151 17.73726 224.46257 17.17468 
C 223.89999 16.612099 223.136859 16.296 222.34125 16.296 
C 221.545641 16.296 220.78251 16.612099 220.21993 17.17468 
C 219.657349 17.73726 219.34125 18.500391 219.34125 19.296 
C 219.34125 20.091609 219.657349 20.85474 220.21993 21.41732 
C 220.78251 21.979901 221.545641 22.296 222.34125 22.296 
z
" style="fill:#f26b38;stroke:#ffffff;stroke-width:0.48;"/>
    <path clip-path="url(#pc89d80ee44)" d="M 229.104886 22.296 
C 229.900496 22.296 230.663626 21.979901 231.226207 21.41732 
C 231.788787 20.85474 232.104886 20.091609 232.104886 19.296 
C 232.104886 18.500391 231.788787 17.73726 231.226207 17.17468 
C 230.663626 16.612099 229.900496 16.296 229.104886 16.296 
C 228.309277 16.296 227.546147 16.612099 226.983566 17.17468 
C 226.420985 17.73726 226.104886 18.500391 226.104886 19.296 
C 226.104886 20.091609 226.420985 20.85474 226.983566 21.41732 
C 227.546147 21.979901 228.309277 22.296 229.104886 22.296 
z
" style="fill:#f26b38;stroke:#ffffff;stroke-width:0.48;"/>
    <path clip-path="url(#pc89d80ee44)" d="M 235.868523 22.296 
C 236.664132 22.296 237.427262 21.979901 237.989843 21.41732 
C 238.552424 20.85474 238.868523 20.091609 238.868523 19.296 
C 238.868523 18.500391 238.552424 17.73726 237.989843 17.17468 
C 237.427262 16.612099 236.664132 16.296 235.868523 16.296 
C 235.072913 16.296 234.309783 16.612099 233.747202 17.17468 
C 233.184622 17.73726 232.868523 18.500391 232.868523 19.296 
C 232.868523 20.091609 233.184622 20.85474 233.747202 21.41732 
C 234.309783 21.979901 235.072913 22.296 235.868523 22.296 
z
" style="fill:#f26b38;stroke:#ffffff;stroke-width:0.48;"/>
    <path clip-path="url(#pc89d80ee44)" d="M 242.632159 22.296 
C 243.427768 22.296 244.190899 21.979901 244.753479 21.41732 
C 245.31606 20.85474 245.632159 20.091609 245.632159 19.296 
C 245.632159 18.500391 245.31606 17.73726 244.753479 17.17468 
C 244.190899 16.612099 243.427768 16.296 242.632159 16.296 
C 241.83655 16.296 241.073419 16.612099 240.510839 17.17468 
C 239.948258 17.73726 239.632159 18.500391 239.632159 19.296 
C 239.632159 20.091609 239.948258 20.85474 240.510839 21.41732 
C 241.073419 21.979901 241.83655 22.296 242.632159 22.296 
z
" style="fill:#f26b38;stroke:#ffffff;stroke-width:0.48;"/>
    <path clip-path="url(#pc89d80ee44)" d="M 249.395795 22.296 
C 250.191405 22.296 250.954535 21.979901 251.517116 21.41732 
C 252.079697 20.85474 252.395795 20.091609 252.395795 19.296 
C 252.395795 18.500391 252.079697 17.73726 251.517116 17.17468 
C 250.954535 16.612099 250.191405 16.296 249.395795 16.296 
C 248.600186 16.296 247.837056 16.612099 247.274475 17.17468 
C 246.711894 17.73726 246.395795 18.500391 246.395795 19.296 
C 246.395795 20.091609 246.711894 20.85474 247.274475 21.41732 
C 247.837056 21.979901 248.600186 22.296 249.395795 22.296 
z
" style="fill:#f26b38;stroke:#ffffff;stroke-width:0.48;"/>
    <path clip-path="url(#pc89d80ee44)" d="M 256.159432 22.296 
C 256.955041 22.296 257.718171 21.979901 258.280752 21.41732 
C 258.843333 20.85474 259.159432 20.091609 259.159432 19.296 
C 259.159432 18.500391 258.843333 17.73726 258.280752 17.17468 
C 257.718171 16.612099 256.955041 16.296 256.159432 16.296 
C 255.363823 16.296 254.600692 16.612099 254.038111 17.17468 
C 253.475531 17.73726 253.159432 18.500391 253.159432 19.296 
C 253.159432 20.091609 253.475531 20.85474 254.038111 21.41732 
C 254.600692 21.979901 255.363823 22.296 256.159432 22.296 
z
" style="fill:#f26b38;stroke:#ffffff;stroke-width:0.48;"/>
    <path clip-path="url(#pc89d80ee44)" d="M 262.923068 22.296 
C 263.718677 22.296 264.481808 21.979901 265.044389 21.41732 
C 265.606969 20.85474 265.923068 20.091609 265.923068 19.296 
C 265.923068 18.500391 265.606969 17.73726 265.044389 17.17468 
C 264.481808 16.612099 263.718677 16.296 262.923068 16.296 
C 262.127459 16.296 261.364329 16.612099 260.801748 17.17468 
C 260.239167 17.73726 259.923068 18.500391 259.923068 19.296 
C 259.923068 20.091609 260.239167 20.85474 260.801748 21.41732 
C 261.364329 21.979901 262.127459 22.296 262.923068 22.296 
z
" style="fill:#f26b38;stroke:#ffffff;stroke-width:0.48;"/>
    <path clip-path="url(#pc89d80ee44)" d="M 269.686705 22.296 
C 270.482314 22.296 271.245444 21.979901 271.808025 21.41732 
C 272.370606 20.85474 272.686705 20.091609 272.686705 19.296 
C 272.686705 18.500391 272.370606 17.73726 271.808025 17.17468 
C 271.245444 16.612099 270.482314 16.296 269.686705 16.296 
C 268.891095 16.296 268.127965 16.612099 267.565384 17.17468 
C 267.002803 17.73726 266.686705 18.500391 266.686705 19.296 
C 266.686705 20.091609 267.002803 20.85474 267.565384 21.41732 
C 268.127965 21.979901 268.891095 22.296 269.686705 22.296 
z
" style="fill:#f26b38;stroke:#ffffff;stroke-width:0.48;"/>
    <path clip-path="url(#pc89d80ee44)" d="M 276.450341 22.296 
C 277.24595 22.296 278.009081 21.979901 278.571661 21.41732 
C 279.134242 20.85474 279.450341 20.091609 279.450341 19.296 
C 279.450341 18.500391 279.134242 17.73726 278.571661 17.17468 
C 278.009081 16.612099 277.24595 16.296 276.450341 16.296 
C 275.654732 16.296 274.891601 16.612099 274.329021 17.17468 
C 273.76644 17.73726 273.450341 18.500391 273.450341 19.296 
C 273.450341 20.091609 273.76644 20.85474 274.329021 21.41732 
C 274.891601 21.979901 275.654732 22.296 276.450341 22.296 
z
" style="fill:#f26b38;stroke:#ffffff;stroke-width:0.48;"/>
    <path clip-path="url(#pc89d80ee44)" d="M 283.213977 22.296 
C 284.009587 22.296 284.772717 21.979901 285.335298 21.41732 
C 285.897878 20.85474 286.213977 20.091609 286.213977 19.296 
C 286.213977 18.500391 285.897878 17.73726 285.335298 17.17468 
C 284.772717 16.612099 284.009587 16.296 283.213977 16.296 
C 282.418368 16.296 281.655238 16.612099 281.092657 17.17468 
C 280.530076 17.73726 280.213977 18.500391 280.213977 19.296 
C 280.213977 20.091609 280.530076 20.85474 281.092657 21.41732 
C 281.655238 21.979901 282.418368 22.296 283.213977 22.296 
z
" style="fill:#f26b38;stroke:#ffffff;stroke-width:0.48;"/>
    <path clip-path="url(#pc89d80ee44)" d="M 289.977614 22.296 
C 290.773223 22.296 291.536353 21.979901 292.098934 21.41732 
C 292.661515 20.85474 292.977614 20.091609 292.977614 19.296 
C 292.977614 18.500391 292.661515 17.73726 292.098934 17.17468 
C 291.536353 16.612099 290.773223 16.296 289.977614 16.296 
C 289.182004 16.296 288.418874 16.612099 287.856293 17.17468 
C 287.293713 17.73726 286.977614 18.500391 286.977614 19.296 
C 286.977614 20.091609 287.293713 20.85474 287.856293 21.41732 
C 288.418874 21.979901 289.182004 22.296 289.977614 22.296 
z
" style="fill:#f26b38;stroke:#ffffff;stroke-width:0.48;"/>
    <path clip-path="url(#pc89d80ee44)" d="M 296.74125 22.296 
C 297.536859 22.296 298.29999 21.979901 298.86257 21.41732 
C 299.425151 20.85474 299.74125 20.091609 299.74125 19.296 
C 299.74125 18.500391 299.425151 17.73726 298.86257 17.17468 
C 298.29999 16.612099 297.536859 16.296 296.74125 16.296 
C 295.945641 16.296 295.18251 16.612099 294.61993 17.17468 
C 294.057349 17.73726 293.74125 18.500391 293.74125 19.296 
C 293.74125 20.091609 294.057349 20.85474 294.61993 21.41732 
C 295.18251 21.979901 295.945641 22.296 296.74125 22.296 
z
" style="fill:#f26b38;stroke:#ffffff;stroke-width:0.48;"/>
    <path clip-path="url(#pc89d80ee44)" d="M 303.504886 22.296 
C 304.300496 22.296 305.063626 21.979901 305.626207 21.41732 
C 306.188787 20.85474 306.504886 20.091609 306.504886 19.296 
C 306.504886 18.500391 306.188787 17.73726 305.626207 17.17468 
C 305.063626 16.612099 304.300496 16.296 303.504886 16.296 
C 302.709277 16.296 301.946147 16.612099 301.383566 17.17468 
C 300.820985 17.73726 300.504886 18.500391 300.504886 19.296 
C 300.504886 20.091609 300.820985 20.85474 301.383566 21.41732 
C 301.946147 21.979901 302.709277 22.296 303.504886 22.296 
z
" style="fill:#f26b38;stroke:#ffffff;stroke-width:0.48;"/>
    <path clip-path="url(#pc89d80ee44)" d="M 310.268523 22.296 
C 311.064132 22.296 311.827262 21.979901 312.389843 21.41732 
C 312.952424 20.85474 313.268523 20.091609 313.268523 19.296 
C 313.268523 18.500391 312.952424 17.73726 312.389843 17.17468 
C 311.827262 16.612099 311.064132 16.296 310.268523 16.296 
C 309.472913 16.296 308.709783 16.612099 308.147202 17.17468 
C 307.584622 17.73726 307.268523 18.500391 307.268523 19.296 
C 307.268523 20.091609 307.584622 20.85474 308.147202 21.41732 
C 308.709783 21.979901 309.472913 22.296 310.268523 22.296 
z
" style="fill:#f26b38;stroke:#ffffff;stroke-width:0.48;"/>
    <path clip-path="url(#pc89d80ee44)" d="M 317.032159 22.296 
C 317.827768 22.296 318.590899 21.979901 319.153479 21.41732 
C 319.71606 20.85474 320.032159 20.091609 320.032159 19.296 
C 320.032159 18.500391 319.71606 17.73726 319.153479 17.17468 
C 318.590899 16.612099 317.827768 16.296 317.032159 16.296 
C 316.23655 16.296 315.473419 16.612099 314.910839 17.17468 
C 314.348258 17.73726 314.032159 18.500391 314.032159 19.296 
C 314.032159 20.091609 314.348258 20.85474 314.910839 21.41732 
C 315.473419 21.979901 316.23655 22.296 317.032159 22.296 
z
" style="fill:#f26b38;stroke:#ffffff;stroke-width:0.48;"/>
    <path clip-path="url(#pc89d80ee44)" d="M 323.795795 22.296 
C 324.591405 22.296 325.354535 21.979901 325.917116 21.41732 
C 326.479697 20.85474 326.795795 20.091609 326.795795 19.296 
C 326.795795 18.500391 326.479697 17.73726 325.917116 17.17468 
C 325.354535 16.612099 324.591405 16.296 323.795795 16.296 
C 323.000186 16.296 322.237056 16.612099 321.674475 17.17468 
C 321.111894 17.73726 320.795795 18.500391 320.795795 19.296 
C 320.795795 20.091609 321.111894 20.85474 321.674475 21.41732 
C 322.237056 21.979901 323.000186 22.296 323.795795 22.296 
z
" style="fill:#f26b38;stroke:#ffffff;stroke-width:0.48;"/>
    <path clip-path="url(#pc89d80ee44)" d="M 330.559432 22.296 
C 331.355041 22.296 332.118171 21.979901 332.680752 21.41732 
C 333.243333 20.85474 333.559432 20.091609 333.559432 19.296 
C 333.559432 18.500391 333.243333 17.73726 332.680752 17.17468 
C 332.118171 16.612099 331.355041 16.296 330.559432 16.296 
C 329.763823 16.296 329.000692 16.612099 328.438111 17.17468 
C 327.875531 17.73726 327.559432 18.500391 327.559432 19.296 
C 327.559432 20.091609 327.875531 20.85474 328.438111 21.41732 
C 329.000692 21.979901 329.763823 22.296 330.559432 22.296 
z
" style="fill:#f26b38;stroke:#ffffff;stroke-width:0.48;"/>
    <path clip-path="url(#pc89d80ee44)" d="M 337.323068 22.296 
C 338.118677 22.296 338.881808 21.979901 339.444389 21.41732 
C 340.006969 20.85474 340.323068 20.091609 340.323068 19.296 
C 340.323068 18.500391 340.006969 17.73726 339.444389 17.17468 
C 338.881808 16.612099 338.118677 16.296 337.323068 16.296 
C 336.527459 16.296 335.764329 16.612099 335.201748 17.17468 
C 334.639167 17.73726 334.323068 18.500391 334.323068 19.296 
C 334.323068 20.091609 334.639167 20.85474 335.201748 21.41732 
C 335.764329 21.979901 336.527459 22.296 337.323068 22.296 
z
" style="fill:#f26b38;stroke:#ffffff;stroke-width:0.48;"/>
    <path clip-path="url(#pc89d80ee44)" d="M 344.086705 22.296 
C 344.882314 22.296 345.645444 21.979901 346.208025 21.41732 
C 346.770606 20.85474 347.086705 20.091609 347.086705 19.296 
C 347.086705 18.500391 346.770606 17.73726 346.208025 17.17468 
C 345.645444 16.612099 344.882314 16.296 344.086705 16.296 
C 343.291095 16.296 342.527965 16.612099 341.965384 17.17468 
C 341.402803 17.73726 341.086705 18.500391 341.086705 19.296 
C 341.086705 20.091609 341.402803 20.85474 341.965384 21.41732 
C 342.527965 21.979901 343.291095 22.296 344.086705 22.296 
z
" style="fill:#f26b38;stroke:#ffffff;stroke-width:0.48;"/>
    <path clip-path="url(#pc89d80ee44)" d="M 350.850341 22.296 
C 351.64595 22.296 352.409081 21.979901 352.971661 21.41732 
C 353.534242 20.85474 353.850341 20.091609 353.850341 19.296 
C 353.850341 18.500391 353.534242 17.73726 352.971661 17.17468 
C 352.409081 16.612099 351.64595 16.296 350.850341 16.296 
C 350.054732 16.296 349.291601 16.612099 348.729021 17.17468 
C 348.16644 17.73726 347.850341 18.500391 347.850341 19.296 
C 347.850341 20.091609 348.16644 20.85474 348.729021 21.41732 
C 349.291601 21.979901 350.054732 22.296 350.850341 22.296 
z
" style="fill:#f26b38;stroke:#ffffff;stroke-width:0.48;"/>
    <path clip-path="url(#pc89d80ee44)" d="M 357.613977 22.296 
C 358.409587 22.296 359.172717 21.979901 359.735298 21.41732 
C 360.297878 20.85474 360.613977 20.091609 360.613977 19.296 
C 360.613977 18.500391 360.297878 17.73726 359.735298 17.17468 
C 359.172717 16.612099 358.409587 16.296 357.613977 16.296 
C 356.818368 16.296 356.055238 16.612099 355.492657 17.17468 
C 354.930076 17.73726 354.613977 18.500391 354.613977 19.296 
C 354.613977 20.091609 354.930076 20.85474 355.492657 21.41732 
C 356.055238 21.979901 356.818368 22.296 357.613977 22.296 
z
" style="fill:#f26b38;stroke:#ffffff;stroke-width:0.48;"/>
    <path clip-path="url(#pc89d80ee44)" d="M 364.377614 22.296 
C 365.173223 22.296 365.936353 21.979901 366.498934 21.41732 
C 367.061515 20.85474 367.377614 20.091609 367.377614 19.296 
C 367.377614 18.500391 367.061515 17.73726 366.498934 17.17468 
C 365.936353 16.612099 365.173223 16.296 364.377614 16.296 
C 363.582004 16.296 362.818874 16.612099 362.256293 17.17468 
C 361.693713 17.73726 361.377614 18.500391 361.377614 19.296 
C 361.377614 20.091609 361.693713 20.85474 362.256293 21.41732 
C 362.818874 21.979901 363.582004 22.296 364.377614 22.296 
z
" style="fill:#f26b38;stroke:#ffffff;stroke-width:0.48;"/>
    <path clip-path="url(#pc89d80ee44)" d="M 371.14125 22.296 
C 371.936859 22.296 372.69999 21.979901 373.26257 21.41732 
C 373.825151 20.85474 374.14125 20.091609 374.14125 19.296 
C 374.14125 18.500391 373.825151 17.73726 373.26257 17.17468 
C 372.69999 16.612099 371.936859 16.296 371.14125 16.296 
C 370.345641 16.296 369.58251 16.612099 369.01993 17.17468 
C 368.457349 17.73726 368.14125 18.500391 368.14125 19.296 
C 368.14125 20.091609 368.457349 20.85474 369.01993 21.41732 
C 369.58251 21.979901 370.345641 22.296 371.14125 22.296 
z
" style="fill:#f26b38;stroke:#ffffff;stroke-width:0.48;"/>
    <path clip-path="url(#pc89d80ee44)" d="M 377.904886 22.296 
C 378.700496 22.296 379.463626 21.979901 380.026207 21.41732 
C 380.588787 20.85474 380.904886 20.091609 380.904886 19.296 
C 380.904886 18.500391 380.588787 17.73726 380.026207 17.17468 
C 379.463626 16.612099 378.700496 16.296 377.904886 16.296 
C 377.109277 16.296 376.346147 16.612099 375.783566 17.17468 
C 375.220985 17.73726 374.904886 18.500391 374.904886 19.296 
C 374.904886 20.091609 375.220985 20.85474 375.783566 21.41732 
C 376.346147 21.979901 377.109277 22.296 377.904886 22.296 
z
" style="fill:#f26b38;stroke:#ffffff;stroke-width:0.48;"/>
    <path clip-path="url(#pc89d80ee44)" d="M 384.668523 22.296 
C 385.464132 22.296 386.227262 21.979901 386.789843 21.41732 
C 387.352424 20.85474 387.668523 20.091609 387.668523 19.296 
C 387.668523 18.500391 387.352424 17.73726 386.789843 17.17468 
C 386.227262 16.612099 385.464132 16.296 384.668523 16.296 
C 383.872913 16.296 383.109783 16.612099 382.547202 17.17468 
C 381.984622 17.73726 381.668523 18.500391 381.668523 19.296 
C 381.668523 20.091609 381.984622 20.85474 382.547202 21.41732 
C 383.109783 21.979901 383.872913 22.296 384.668523 22.296 
z
" style="fill:#f26b38;stroke:#ffffff;stroke-width:0.48;"/>
    <path clip-path="url(#pc89d80ee44)" d="M 58.513977 185.947765 
L 60.013977 184.447765 
L 61.513977 185.947765 
L 63.013977 184.447765 
L 61.513977 182.947765 
L 63.013977 181.447765 
L 61.513977 179.947765 
L 60.013977 181.447765 
L 58.513977 179.947765 
L 57.013977 181.447765 
L 58.513977 182.947765 
L 57.013977 184.447765 
z
" style="fill:#2f9599;stroke:#ffffff;stroke-width:0.48;"/>
    <path clip-path="url(#pc89d80ee44)" d="M 65.277614 131.397176 
L 66.777614 129.897176 
L 68.277614 131.397176 
L 69.777614 129.897176 
L 68.277614 128.397176 
L 69.777614 126.897176 
L 68.277614 125.397176 
L 66.777614 126.897176 
L 65.277614 125.397176 
L 63.777614 126.897176 
L 65.277614 128.397176 
L 63.777614 129.897176 
z
" style="fill:#2f9599;stroke:#ffffff;stroke-width:0.48;"/>
    <path clip-path="url(#pc89d80ee44)" d="M 72.04125 185.947765 
L 73.54125 184.447765 
L 75.04125 185.947765 
L 76.54125 184.447765 
L 75.04125 182.947765 
L 76.54125 181.447765 
L 75.04125 179.947765 
L 73.54125 181.447765 
L 72.04125 179.947765 
L 70.54125 181.447765 
L 72.04125 182.947765 
L 70.54125 184.447765 
z
" style="fill:#2f9599;stroke:#ffffff;stroke-width:0.48;"/>
    <path clip-path="url(#pc89d80ee44)" d="M 78.804886 181.856471 
L 80.304886 180.356471 
L 81.804886 181.856471 
L 83.304886 180.356471 
L 81.804886 178.856471 
L 83.304886 177.356471 
L 81.804886 175.856471 
L 80.304886 177.356471 
L 78.804886 175.856471 
L 77.304886 177.356471 
L 78.804886 178.856471 
L 77.304886 180.356471 
z
" style="fill:#2f9599;stroke:#ffffff;stroke-width:0.48;"/>
    <path clip-path="url(#pc89d80ee44)" d="M 85.568523 137.814893 
L 87.068523 136.314893 
L 88.568523 137.814893 
L 90.068523 136.314893 
L 88.568523 134.814893 
L 90.068523 133.314893 
L 88.568523 131.814893 
L 87.068523 133.314893 
L 85.568523 131.814893 
L 84.068523 133.314893 
L 85.568523 134.814893 
L 84.068523 136.314893 
z
" style="fill:#2f9599;stroke:#ffffff;stroke-width:0.48;"/>
    <path clip-path="url(#pc89d80ee44)" d="M 92.332159 58.663059 
L 93.832159 57.163059 
L 95.332159 58.663059 
L 96.832159 57.163059 
L 95.332159 55.663059 
L 96.832159 54.163059 
L 95.332159 52.663059 
L 93.832159 54.163059 
L 92.332159 52.663059 
L 90.832159 54.163059 
L 92.332159 55.663059 
L 90.832159 57.163059 
z
" style="fill:#2f9599;stroke:#ffffff;stroke-width:0.48;"/>
    <path clip-path="url(#pc89d80ee44)" d="M 99.095795 58.663059 
L 100.595795 57.163059 
L 102.095795 58.663059 
L 103.595795 57.163059 
L 102.095795 55.663059 
L 103.595795 54.163059 
L 102.095795 52.663059 
L 100.595795 54.163059 
L 99.095795 52.663059 
L 97.595795 54.163059 
L 99.095795 55.663059 
L 97.595795 57.163059 
z
" style="fill:#2f9599;stroke:#ffffff;stroke-width:0.48;"/>
    <path clip-path="url(#pc89d80ee44)" d="M 105.859432 58.663059 
L 107.359432 57.163059 
L 108.859432 58.663059 
L 110.359432 57.163059 
L 108.859432 55.663059 
L 110.359432 54.163059 
L 108.859432 52.663059 
L 107.359432 54.163059 
L 105.859432 52.663059 
L 104.359432 54.163059 
L 105.859432 55.663059 
L 104.359432 57.163059 
z
" style="fill:#2f9599;stroke:#ffffff;stroke-width:0.48;"/>
    <path clip-path="url(#pc89d80ee44)" d="M 112.623068 58.663059 
L 114.123068 57.163059 
L 115.623068 58.663059 
L 117.123068 57.163059 
L 115.623068 55.663059 
L 117.123068 54.163059 
L 115.623068 52.663059 
L 114.123068 54.163059 
L 112.623068 52.663059 
L 111.123068 54.163059 
L 112.623068 55.663059 
L 111.123068 57.163059 
z
" style="fill:#2f9599;stroke:#ffffff;stroke-width:0.48;"/>
    <path clip-path="url(#pc89d80ee44)" d="M 119.386705 39.830118 
L 120.886705 38.330118 
L 122.386705 39.830118 
L 123.886705 38.330118 
L 122.386705 36.830118 
L 123.886705 35.330118 
L 122.386705 33.830118 
L 120.886705 35.330118 
L 119.386705 33.830118 
L 117.886705 35.330118 
L 119.386705 36.830118 
L 117.886705 38.330118 
z
" style="fill:#2f9599;stroke:#ffffff;stroke-width:0.48;"/>
    <path clip-path="url(#pc89d80ee44)" d="M 126.150341 22.296 
L 127.650341 20.796 
L 129.150341 22.296 
L 130.650341 20.796 
L 129.150341 19.296 
L 130.650341 17.796 
L 129.150341 16.296 
L 127.650341 17.796 
L 126.150341 16.296 
L 124.650341 17.796 
L 126.150341 19.296 
L 124.650341 20.796 
z
" style="fill:#2f9599;stroke:#ffffff;stroke-width:0.48;"/>
    <path clip-path="url(#pc89d80ee44)" d="M 132.913977 22.296 
L 134.413977 20.796 
L 135.913977 22.296 
L 137.413977 20.796 
L 135.913977 19.296 
L 137.413977 17.796 
L 135.913977 16.296 
L 134.413977 17.796 
L 132.913977 16.296 
L 131.413977 17.796 
L 132.913977 19.296 
L 131.413977 20.796 
z
" style="fill:#2f9599;stroke:#ffffff;stroke-width:0.48;"/>
    <path clip-path="url(#pc89d80ee44)" d="M 139.677614 22.296 
L 141.177614 20.796 
L 142.677614 22.296 
L 144.177614 20.796 
L 142.677614 19.296 
L 144.177614 17.796 
L 142.677614 16.296 
L 141.177614 17.796 
L 139.677614 16.296 
L 138.177614 17.796 
L 139.677614 19.296 
L 138.177614 20.796 
z
" style="fill:#2f9599;stroke:#ffffff;stroke-width:0.48;"/>
    <path clip-path="url(#pc89d80ee44)" d="M 146.44125 22.296 
L 147.94125 20.796 
L 149.44125 22.296 
L 150.94125 20.796 
L 149.44125 19.296 
L 150.94125 17.796 
L 149.44125 16.296 
L 147.94125 17.796 
L 146.44125 16.296 
L 144.94125 17.796 
L 146.44125 19.296 
L 144.94125 20.796 
z
" style="fill:#2f9599;stroke:#ffffff;stroke-width:0.48;"/>
    <path clip-path="url(#pc89d80ee44)" d="M 153.204886 22.296 
L 154.704886 20.796 
L 156.204886 22.296 
L 157.704886 20.796 
L 156.204886 19.296 
L 157.704886 17.796 
L 156.204886 16.296 
L 154.704886 17.796 
L 153.204886 16.296 
L 151.704886 17.796 
L 153.204886 19.296 
L 151.704886 20.796 
z
" style="fill:#2f9599;stroke:#ffffff;stroke-width:0.48;"/>
    <path clip-path="url(#pc89d80ee44)" d="M 159.968523 22.296 
L 161.468523 20.796 
L 162.968523 22.296 
L 164.468523 20.796 
L 162.968523 19.296 
L 164.468523 17.796 
L 162.968523 16.296 
L 161.468523 17.796 
L 159.968523 16.296 
L 158.468523 17.796 
L 159.968523 19.296 
L 158.468523 20.796 
z
" style="fill:#2f9599;stroke:#ffffff;stroke-width:0.48;"/>
    <path clip-path="url(#pc89d80ee44)" d="M 166.732159 22.296 
L 168.232159 20.796 
L 169.732159 22.296 
L 171.232159 20.796 
L 169.732159 19.296 
L 171.232159 17.796 
L 169.732159 16.296 
L 168.232159 17.796 
L 166.732159 16.296 
L 165.232159 17.796 
L 166.732159 19.296 
L 165.232159 20.796 
z
" style="fill:#2f9599;stroke:#ffffff;stroke-width:0.48;"/>
    <path clip-path="url(#pc89d80ee44)" d="M 173.495795 22.296 
L 174.995795 20.796 
L 176.495795 22.296 
L 177.995795 20.796 
L 176.495795 19.296 
L 177.995795 17.796 
L 176.495795 16.296 
L 174.995795 17.796 
L 173.495795 16.296 
L 171.995795 17.796 
L 173.495795 19.296 
L 171.995795 20.796 
z
" style="fill:#2f9599;stroke:#ffffff;stroke-width:0.48;"/>
    <path clip-path="url(#pc89d80ee44)" d="M 180.259432 22.296 
L 181.759432 20.796 
L 183.259432 22.296 
L 184.759432 20.796 
L 183.259432 19.296 
L 184.759432 17.796 
L 183.259432 16.296 
L 181.759432 17.796 
L 180.259432 16.296 
L 178.759432 17.796 
L 180.259432 19.296 
L 178.759432 20.796 
z
" style="fill:#2f9599;stroke:#ffffff;stroke-width:0.48;"/>
    <path clip-path="url(#pc89d80ee44)" d="M 187.023068 22.296 
L 188.523068 20.796 
L 190.023068 22.296 
L 191.523068 20.796 
L 190.023068 19.296 
L 191.523068 17.796 
L 190.023068 16.296 
L 188.523068 17.796 
L 187.023068 16.296 
L 185.523068 17.796 
L 187.023068 19.296 
L 185.523068 20.796 
z
" style="fill:#2f9599;stroke:#ffffff;stroke-width:0.48;"/>
    <path clip-path="url(#pc89d80ee44)" d="M 193.786705 22.296 
L 195.286705 20.796 
L 196.786705 22.296 
L 198.286705 20.796 
L 196.786705 19.296 
L 198.286705 17.796 
L 196.786705 16.296 
L 195.286705 17.796 
L 193.786705 16.296 
L 192.286705 17.796 
L 193.786705 19.296 
L 192.286705 20.796 
z
" style="fill:#2f9599;stroke:#ffffff;stroke-width:0.48;"/>
    <path clip-path="url(#pc89d80ee44)" d="M 200.550341 22.296 
L 202.050341 20.796 
L 203.550341 22.296 
L 205.050341 20.796 
L 203.550341 19.296 
L 205.050341 17.796 
L 203.550341 16.296 
L 202.050341 17.796 
L 200.550341 16.296 
L 199.050341 17.796 
L 200.550341 19.296 
L 199.050341 20.796 
z
" style="fill:#2f9599;stroke:#ffffff;stroke-width:0.48;"/>
    <path clip-path="url(#pc89d80ee44)" d="M 207.313977 22.296 
L 208.813977 20.796 
L 210.313977 22.296 
L 211.813977 20.796 
L 210.313977 19.296 
L 211.813977 17.796 
L 210.313977 16.296 
L 208.813977 17.796 
L 207.313977 16.296 
L 205.813977 17.796 
L 207.313977 19.296 
L 205.813977 20.796 
z
" style="fill:#2f9599;stroke:#ffffff;stroke-width:0.48;"/>
    <path clip-path="url(#pc89d80ee44)" d="M 214.077614 22.296 
L 215.577614 20.796 
L 217.077614 22.296 
L 218.577614 20.796 
L 217.077614 19.296 
L 218.577614 17.796 
L 217.077614 16.296 
L 215.577614 17.796 
L 214.077614 16.296 
L 212.577614 17.796 
L 214.077614 19.296 
L 212.577614 20.796 
z
" style="fill:#2f9599;stroke:#ffffff;stroke-width:0.48;"/>
    <path clip-path="url(#pc89d80ee44)" d="M 220.84125 22.296 
L 222.34125 20.796 
L 223.84125 22.296 
L 225.34125 20.796 
L 223.84125 19.296 
L 225.34125 17.796 
L 223.84125 16.296 
L 222.34125 17.796 
L 220.84125 16.296 
L 219.34125 17.796 
L 220.84125 19.296 
L 219.34125 20.796 
z
" style="fill:#2f9599;stroke:#ffffff;stroke-width:0.48;"/>
    <path clip-path="url(#pc89d80ee44)" d="M 227.604886 22.296 
L 229.104886 20.796 
L 230.604886 22.296 
L 232.104886 20.796 
L 230.604886 19.296 
L 232.104886 17.796 
L 230.604886 16.296 
L 229.104886 17.796 
L 227.604886 16.296 
L 226.104886 17.796 
L 227.604886 19.296 
L 226.104886 20.796 
z
" style="fill:#2f9599;stroke:#ffffff;stroke-width:0.48;"/>
    <path clip-path="url(#pc89d80ee44)" d="M 234.368523 22.296 
L 235.868523 20.796 
L 237.368523 22.296 
L 238.868523 20.796 
L 237.368523 19.296 
L 238.868523 17.796 
L 237.368523 16.296 
L 235.868523 17.796 
L 234.368523 16.296 
L 232.868523 17.796 
L 234.368523 19.296 
L 232.868523 20.796 
z
" style="fill:#2f9599;stroke:#ffffff;stroke-width:0.48;"/>
    <path clip-path="url(#pc89d80ee44)" d="M 241.132159 22.296 
L 242.632159 20.796 
L 244.132159 22.296 
L 245.632159 20.796 
L 244.132159 19.296 
L 245.632159 17.796 
L 244.132159 16.296 
L 242.632159 17.796 
L 241.132159 16.296 
L 239.632159 17.796 
L 241.132159 19.296 
L 239.632159 20.796 
z
" style="fill:#2f9599;stroke:#ffffff;stroke-width:0.48;"/>
    <path clip-path="url(#pc89d80ee44)" d="M 247.895795 22.296 
L 249.395795 20.796 
L 250.895795 22.296 
L 252.395795 20.796 
L 250.895795 19.296 
L 252.395795 17.796 
L 250.895795 16.296 
L 249.395795 17.796 
L 247.895795 16.296 
L 246.395795 17.796 
L 247.895795 19.296 
L 246.395795 20.796 
z
" style="fill:#2f9599;stroke:#ffffff;stroke-width:0.48;"/>
    <path clip-path="url(#pc89d80ee44)" d="M 254.659432 22.296 
L 256.159432 20.796 
L 257.659432 22.296 
L 259.159432 20.796 
L 257.659432 19.296 
L 259.159432 17.796 
L 257.659432 16.296 
L 256.159432 17.796 
L 254.659432 16.296 
L 253.159432 17.796 
L 254.659432 19.296 
L 253.159432 20.796 
z
" style="fill:#2f9599;stroke:#ffffff;stroke-width:0.48;"/>
    <path clip-path="url(#pc89d80ee44)" d="M 261.423068 22.296 
L 262.923068 20.796 
L 264.423068 22.296 
L 265.923068 20.796 
L 264.423068 19.296 
L 265.923068 17.796 
L 264.423068 16.296 
L 262.923068 17.796 
L 261.423068 16.296 
L 259.923068 17.796 
L 261.423068 19.296 
L 259.923068 20.796 
z
" style="fill:#2f9599;stroke:#ffffff;stroke-width:0.48;"/>
    <path clip-path="url(#pc89d80ee44)" d="M 268.186705 22.296 
L 269.686705 20.796 
L 271.186705 22.296 
L 272.686705 20.796 
L 271.186705 19.296 
L 272.686705 17.796 
L 271.186705 16.296 
L 269.686705 17.796 
L 268.186705 16.296 
L 266.686705 17.796 
L 268.186705 19.296 
L 266.686705 20.796 
z
" style="fill:#2f9599;stroke:#ffffff;stroke-width:0.48;"/>
    <path clip-path="url(#pc89d80ee44)" d="M 274.950341 22.296 
L 276.450341 20.796 
L 277.950341 22.296 
L 279.450341 20.796 
L 277.950341 19.296 
L 279.450341 17.796 
L 277.950341 16.296 
L 276.450341 17.796 
L 274.950341 16.296 
L 273.450341 17.796 
L 274.950341 19.296 
L 273.450341 20.796 
z
" style="fill:#2f9599;stroke:#ffffff;stroke-width:0.48;"/>
    <path clip-path="url(#pc89d80ee44)" d="M 281.713977 22.296 
L 283.213977 20.796 
L 284.713977 22.296 
L 286.213977 20.796 
L 284.713977 19.296 
L 286.213977 17.796 
L 284.713977 16.296 
L 283.213977 17.796 
L 281.713977 16.296 
L 280.213977 17.796 
L 281.713977 19.296 
L 280.213977 20.796 
z
" style="fill:#2f9599;stroke:#ffffff;stroke-width:0.48;"/>
    <path clip-path="url(#pc89d80ee44)" d="M 288.477614 22.296 
L 289.977614 20.796 
L 291.477614 22.296 
L 292.977614 20.796 
L 291.477614 19.296 
L 292.977614 17.796 
L 291.477614 16.296 
L 289.977614 17.796 
L 288.477614 16.296 
L 286.977614 17.796 
L 288.477614 19.296 
L 286.977614 20.796 
z
" style="fill:#2f9599;stroke:#ffffff;stroke-width:0.48;"/>
    <path clip-path="url(#pc89d80ee44)" d="M 295.24125 22.296 
L 296.74125 20.796 
L 298.24125 22.296 
L 299.74125 20.796 
L 298.24125 19.296 
L 299.74125 17.796 
L 298.24125 16.296 
L 296.74125 17.796 
L 295.24125 16.296 
L 293.74125 17.796 
L 295.24125 19.296 
L 293.74125 20.796 
z
" style="fill:#2f9599;stroke:#ffffff;stroke-width:0.48;"/>
    <path clip-path="url(#pc89d80ee44)" d="M 302.004886 22.296 
L 303.504886 20.796 
L 305.004886 22.296 
L 306.504886 20.796 
L 305.004886 19.296 
L 306.504886 17.796 
L 305.004886 16.296 
L 303.504886 17.796 
L 302.004886 16.296 
L 300.504886 17.796 
L 302.004886 19.296 
L 300.504886 20.796 
z
" style="fill:#2f9599;stroke:#ffffff;stroke-width:0.48;"/>
    <path clip-path="url(#pc89d80ee44)" d="M 308.768523 22.296 
L 310.268523 20.796 
L 311.768523 22.296 
L 313.268523 20.796 
L 311.768523 19.296 
L 313.268523 17.796 
L 311.768523 16.296 
L 310.268523 17.796 
L 308.768523 16.296 
L 307.268523 17.796 
L 308.768523 19.296 
L 307.268523 20.796 
z
" style="fill:#2f9599;stroke:#ffffff;stroke-width:0.48;"/>
    <path clip-path="url(#pc89d80ee44)" d="M 315.532159 22.296 
L 317.032159 20.796 
L 318.532159 22.296 
L 320.032159 20.796 
L 318.532159 19.296 
L 320.032159 17.796 
L 318.532159 16.296 
L 317.032159 17.796 
L 315.532159 16.296 
L 314.032159 17.796 
L 315.532159 19.296 
L 314.032159 20.796 
z
" style="fill:#2f9599;stroke:#ffffff;stroke-width:0.48;"/>
    <path clip-path="url(#pc89d80ee44)" d="M 322.295795 22.296 
L 323.795795 20.796 
L 325.295795 22.296 
L 326.795795 20.796 
L 325.295795 19.296 
L 326.795795 17.796 
L 325.295795 16.296 
L 323.795795 17.796 
L 322.295795 16.296 
L 320.795795 17.796 
L 322.295795 19.296 
L 320.795795 20.796 
z
" style="fill:#2f9599;stroke:#ffffff;stroke-width:0.48;"/>
    <path clip-path="url(#pc89d80ee44)" d="M 329.059432 22.296 
L 330.559432 20.796 
L 332.059432 22.296 
L 333.559432 20.796 
L 332.059432 19.296 
L 333.559432 17.796 
L 332.059432 16.296 
L 330.559432 17.796 
L 329.059432 16.296 
L 327.559432 17.796 
L 329.059432 19.296 
L 327.559432 20.796 
z
" style="fill:#2f9599;stroke:#ffffff;stroke-width:0.48;"/>
    <path clip-path="url(#pc89d80ee44)" d="M 335.823068 22.296 
L 337.323068 20.796 
L 338.823068 22.296 
L 340.323068 20.796 
L 338.823068 19.296 
L 340.323068 17.796 
L 338.823068 16.296 
L 337.323068 17.796 
L 335.823068 16.296 
L 334.323068 17.796 
L 335.823068 19.296 
L 334.323068 20.796 
z
" style="fill:#2f9599;stroke:#ffffff;stroke-width:0.48;"/>
    <path clip-path="url(#pc89d80ee44)" d="M 342.586705 22.296 
L 344.086705 20.796 
L 345.586705 22.296 
L 347.086705 20.796 
L 345.586705 19.296 
L 347.086705 17.796 
L 345.586705 16.296 
L 344.086705 17.796 
L 342.586705 16.296 
L 341.086705 17.796 
L 342.586705 19.296 
L 341.086705 20.796 
z
" style="fill:#2f9599;stroke:#ffffff;stroke-width:0.48;"/>
    <path clip-path="url(#pc89d80ee44)" d="M 349.350341 22.296 
L 350.850341 20.796 
L 352.350341 22.296 
L 353.850341 20.796 
L 352.350341 19.296 
L 353.850341 17.796 
L 352.350341 16.296 
L 350.850341 17.796 
L 349.350341 16.296 
L 347.850341 17.796 
L 349.350341 19.296 
L 347.850341 20.796 
z
" style="fill:#2f9599;stroke:#ffffff;stroke-width:0.48;"/>
    <path clip-path="url(#pc89d80ee44)" d="M 356.113977 22.296 
L 357.613977 20.796 
L 359.113977 22.296 
L 360.613977 20.796 
L 359.113977 19.296 
L 360.613977 17.796 
L 359.113977 16.296 
L 357.613977 17.796 
L 356.113977 16.296 
L 354.613977 17.796 
L 356.113977 19.296 
L 354.613977 20.796 
z
" style="fill:#2f9599;stroke:#ffffff;stroke-width:0.48;"/>
    <path clip-path="url(#pc89d80ee44)" d="M 362.877614 22.296 
L 364.377614 20.796 
L 365.877614 22.296 
L 367.377614 20.796 
L 365.877614 19.296 
L 367.377614 17.796 
L 365.877614 16.296 
L 364.377614 17.796 
L 362.877614 16.296 
L 361.377614 17.796 
L 362.877614 19.296 
L 361.377614 20.796 
z
" style="fill:#2f9599;stroke:#ffffff;stroke-width:0.48;"/>
    <path clip-path="url(#pc89d80ee44)" d="M 369.64125 22.296 
L 371.14125 20.796 
L 372.64125 22.296 
L 374.14125 20.796 
L 372.64125 19.296 
L 374.14125 17.796 
L 372.64125 16.296 
L 371.14125 17.796 
L 369.64125 16.296 
L 368.14125 17.796 
L 369.64125 19.296 
L 368.14125 20.796 
z
" style="fill:#2f9599;stroke:#ffffff;stroke-width:0.48;"/>
    <path clip-path="url(#pc89d80ee44)" d="M 376.404886 22.296 
L 377.904886 20.796 
L 379.404886 22.296 
L 380.904886 20.796 
L 379.404886 19.296 
L 380.904886 17.796 
L 379.404886 16.296 
L 377.904886 17.796 
L 376.404886 16.296 
L 374.904886 17.796 
L 376.404886 19.296 
L 374.904886 20.796 
z
" style="fill:#2f9599;stroke:#ffffff;stroke-width:0.48;"/>
    <path clip-path="url(#pc89d80ee44)" d="M 383.168523 22.296 
L 384.668523 20.796 
L 386.168523 22.296 
L 387.668523 20.796 
L 386.168523 19.296 
L 387.668523 17.796 
L 386.168523 16.296 
L 384.668523 17.796 
L 383.168523 16.296 
L 381.668523 17.796 
L 383.168523 19.296 
L 381.668523 20.796 
z
" style="fill:#2f9599;stroke:#ffffff;stroke-width:0.48;"/>
    <path clip-path="url(#pc89d80ee44)" d="M 57.892657 245.838789 
L 57.892657 250.08143 
L 62.135298 250.08143 
L 62.135298 245.838789 
z
" style="fill:#a7226e;stroke:#ffffff;stroke-width:0.48;"/>
    <path clip-path="url(#pc89d80ee44)" d="M 64.656293 245.838789 
L 64.656293 250.08143 
L 68.898934 250.08143 
L 68.898934 245.838789 
z
" style="fill:#a7226e;stroke:#ffffff;stroke-width:0.48;"/>
    <path clip-path="url(#pc89d80ee44)" d="M 71.41993 245.838789 
L 71.41993 250.08143 
L 75.66257 250.08143 
L 75.66257 245.838789 
z
" style="fill:#a7226e;stroke:#ffffff;stroke-width:0.48;"/>
    <path clip-path="url(#pc89d80ee44)" d="M 78.183566 245.838789 
L 78.183566 250.08143 
L 82.426207 250.08143 
L 82.426207 245.838789 
z
" style="fill:#a7226e;stroke:#ffffff;stroke-width:0.48;"/>
    <path clip-path="url(#pc89d80ee44)" d="M 84.947202 249.01468 
L 84.947202 253.25732 
L 89.189843 253.25732 
L 89.189843 249.01468 
z
" style="fill:#a7226e;stroke:#ffffff;stroke-width:0.48;"/>
    <path clip-path="url(#pc89d80ee44)" d="M 91.710839 255.63868 
L 91.710839 259.88132 
L 95.953479 259.88132 
L 95.953479 255.63868 
z
" style="fill:#a7226e;stroke:#ffffff;stroke-width:0.48;"/>
    <path clip-path="url(#pc89d80ee44)" d="M 98.474475 248.625033 
L 98.474475 252.867673 
L 102.717116 252.867673 
L 102.717116 248.625033 
z
" style="fill:#a7226e;stroke:#ffffff;stroke-width:0.48;"/>
    <path clip-path="url(#pc89d80ee44)" d="M 105.238111 248.625033 
L 105.238111 252.867673 
L 109.480752 252.867673 
L 109.480752 248.625033 
z
" style="fill:#a7226e;stroke:#ffffff;stroke-width:0.48;"/>
    <path clip-path="url(#pc89d80ee44)" d="M 112.001748 244.864091 
L 112.001748 249.106732 
L 116.244389 249.106732 
L 116.244389 244.864091 
z
" style="fill:#a7226e;stroke:#ffffff;stroke-width:0.48;"/>
    <path clip-path="url(#pc89d80ee44)" d="M 118.765384 231.535442 
L 118.765384 235.778083 
L 123.008025 235.778083 
L 123.008025 231.535442 
z
" style="fill:#a7226e;stroke:#ffffff;stroke-width:0.48;"/>
    <path clip-path="url(#pc89d80ee44)" d="M 125.529021 231.535442 
L 125.529021 235.778083 
L 129.771661 235.778083 
L 129.771661 231.535442 
z
" style="fill:#a7226e;stroke:#ffffff;stroke-width:0.48;"/>
    <path clip-path="url(#pc89d80ee44)" d="M 132.292657 230.633503 
L 132.292657 234.876144 
L 136.535298 234.876144 
L 136.535298 230.633503 
z
" style="fill:#a7226e;stroke:#ffffff;stroke-width:0.48;"/>
    <path clip-path="url(#pc89d80ee44)" d="M 139.056293 218.020027 
L 139.056293 222.262668 
L 143.298934 222.262668 
L 143.298934 218.020027 
z
" style="fill:#a7226e;stroke:#ffffff;stroke-width:0.48;"/>
    <path clip-path="url(#pc89d80ee44)" d="M 145.81993 204.205268 
L 145.81993 208.447909 
L 150.06257 208.447909 
L 150.06257 204.205268 
z
" style="fill:#a7226e;stroke:#ffffff;stroke-width:0.48;"/>
    <path clip-path="url(#pc89d80ee44)" d="M 152.583566 151.071578 
L 152.583566 155.314219 
L 156.826207 155.314219 
L 156.826207 151.071578 
z
" style="fill:#a7226e;stroke:#ffffff;stroke-width:0.48;"/>
    <path clip-path="url(#pc89d80ee44)" d="M 159.347202 144.823056 
L 159.347202 149.065697 
L 163.589843 149.065697 
L 163.589843 144.823056 
z
" style="fill:#a7226e;stroke:#ffffff;stroke-width:0.48;"/>
    <path clip-path="url(#pc89d80ee44)" d="M 166.110839 144.823056 
L 166.110839 149.065697 
L 170.353479 149.065697 
L 170.353479 144.823056 
z
" style="fill:#a7226e;stroke:#ffffff;stroke-width:0.48;"/>
    <path clip-path="url(#pc89d80ee44)" d="M 172.874475 111.187396 
L 172.874475 115.430036 
L 177.117116 115.430036 
L 177.117116 111.187396 
z
" style="fill:#a7226e;stroke:#ffffff;stroke-width:0.48;"/>
    <path clip-path="url(#pc89d80ee44)" d="M 179.638111 111.187396 
L 179.638111 115.430036 
L 183.880752 115.430036 
L 183.880752 111.187396 
z
" style="fill:#a7226e;stroke:#ffffff;stroke-width:0.48;"/>
    <path clip-path="url(#pc89d80ee44)" d="M 186.401748 127.389133 
L 186.401748 131.631774 
L 190.644389 131.631774 
L 190.644389 127.389133 
z
" style="fill:#a7226e;stroke:#ffffff;stroke-width:0.48;"/>
    <path clip-path="url(#pc89d80ee44)" d="M 193.165384 129.685268 
L 193.165384 133.927909 
L 197.408025 133.927909 
L 197.408025 129.685268 
z
" style="fill:#a7226e;stroke:#ffffff;stroke-width:0.48;"/>
    <path clip-path="url(#pc89d80ee44)" d="M 199.929021 137.408629 
L 199.929021 141.65127 
L 204.171661 141.65127 
L 204.171661 137.408629 
z
" style="fill:#a7226e;stroke:#ffffff;stroke-width:0.48;"/>
    <path clip-path="url(#pc89d80ee44)" d="M 206.692657 129.685268 
L 206.692657 133.927909 
L 210.935298 133.927909 
L 210.935298 129.685268 
z
" style="fill:#a7226e;stroke:#ffffff;stroke-width:0.48;"/>
    <path clip-path="url(#pc89d80ee44)" d="M 213.456293 58.087621 
L 213.456293 62.330262 
L 217.698934 62.330262 
L 217.698934 58.087621 
z
" style="fill:#a7226e;stroke:#ffffff;stroke-width:0.48;"/>
    <path clip-path="url(#pc89d80ee44)" d="M 220.21993 59.256562 
L 220.21993 63.499203 
L 224.46257 63.499203 
L 224.46257 59.256562 
z
" style="fill:#a7226e;stroke:#ffffff;stroke-width:0.48;"/>
    <path clip-path="url(#pc89d80ee44)" d="M 226.983566 32.052113 
L 226.983566 36.294753 
L 231.226207 36.294753 
L 231.226207 32.052113 
z
" style="fill:#a7226e;stroke:#ffffff;stroke-width:0.48;"/>
    <path clip-path="url(#pc89d80ee44)" d="M 233.747202 30.094556 
L 233.747202 34.337197 
L 237.989843 34.337197 
L 237.989843 30.094556 
z
" style="fill:#a7226e;stroke:#ffffff;stroke-width:0.48;"/>
    <path clip-path="url(#pc89d80ee44)" d="M 240.510839 17.17468 
L 240.510839 21.41732 
L 244.753479 21.41732 
L 244.753479 17.17468 
z
" style="fill:#a7226e;stroke:#ffffff;stroke-width:0.48;"/>
    <path clip-path="url(#pc89d80ee44)" d="M 247.274475 17.17468 
L 247.274475 21.41732 
L 251.517116 21.41732 
L 251.517116 17.17468 
z
" style="fill:#a7226e;stroke:#ffffff;stroke-width:0.48;"/>
    <path clip-path="url(#pc89d80ee44)" d="M 254.038111 17.17468 
L 254.038111 21.41732 
L 258.280752 21.41732 
L 258.280752 17.17468 
z
" style="fill:#a7226e;stroke:#ffffff;stroke-width:0.48;"/>
    <path clip-path="url(#pc89d80ee44)" d="M 260.801748 17.17468 
L 260.801748 21.41732 
L 265.044389 21.41732 
L 265.044389 17.17468 
z
" style="fill:#a7226e;stroke:#ffffff;stroke-width:0.48;"/>
    <path clip-path="url(#pc89d80ee44)" d="M 267.565384 17.17468 
L 267.565384 21.41732 
L 271.808025 21.41732 
L 271.808025 17.17468 
z
" style="fill:#a7226e;stroke:#ffffff;stroke-width:0.48;"/>
    <path clip-path="url(#pc89d80ee44)" d="M 274.329021 17.17468 
L 274.329021 21.41732 
L 278.571661 21.41732 
L 278.571661 17.17468 
z
" style="fill:#a7226e;stroke:#ffffff;stroke-width:0.48;"/>
    <path clip-path="url(#pc89d80ee44)" d="M 281.092657 17.17468 
L 281.092657 21.41732 
L 285.335298 21.41732 
L 285.335298 17.17468 
z
" style="fill:#a7226e;stroke:#ffffff;stroke-width:0.48;"/>
    <path clip-path="url(#pc89d80ee44)" d="M 287.856293 17.17468 
L 287.856293 21.41732 
L 292.098934 21.41732 
L 292.098934 17.17468 
z
" style="fill:#a7226e;stroke:#ffffff;stroke-width:0.48;"/>
    <path clip-path="url(#pc89d80ee44)" d="M 294.61993 17.17468 
L 294.61993 21.41732 
L 298.86257 21.41732 
L 298.86257 17.17468 
z
" style="fill:#a7226e;stroke:#ffffff;stroke-width:0.48;"/>
    <path clip-path="url(#pc89d80ee44)" d="M 301.383566 17.17468 
L 301.383566 21.41732 
L 305.626207 21.41732 
L 305.626207 17.17468 
z
" style="fill:#a7226e;stroke:#ffffff;stroke-width:0.48;"/>
    <path clip-path="url(#pc89d80ee44)" d="M 308.147202 17.17468 
L 308.147202 21.41732 
L 312.389843 21.41732 
L 312.389843 17.17468 
z
" style="fill:#a7226e;stroke:#ffffff;stroke-width:0.48;"/>
    <path clip-path="url(#pc89d80ee44)" d="M 314.910839 17.17468 
L 314.910839 21.41732 
L 319.153479 21.41732 
L 319.153479 17.17468 
z
" style="fill:#a7226e;stroke:#ffffff;stroke-width:0.48;"/>
    <path clip-path="url(#pc89d80ee44)" d="M 321.674475 17.17468 
L 321.674475 21.41732 
L 325.917116 21.41732 
L 325.917116 17.17468 
z
" style="fill:#a7226e;stroke:#ffffff;stroke-width:0.48;"/>
    <path clip-path="url(#pc89d80ee44)" d="M 328.438111 17.17468 
L 328.438111 21.41732 
L 332.680752 21.41732 
L 332.680752 17.17468 
z
" style="fill:#a7226e;stroke:#ffffff;stroke-width:0.48;"/>
    <path clip-path="url(#pc89d80ee44)" d="M 335.201748 17.17468 
L 335.201748 21.41732 
L 339.444389 21.41732 
L 339.444389 17.17468 
z
" style="fill:#a7226e;stroke:#ffffff;stroke-width:0.48;"/>
    <path clip-path="url(#pc89d80ee44)" d="M 341.965384 17.17468 
L 341.965384 21.41732 
L 346.208025 21.41732 
L 346.208025 17.17468 
z
" style="fill:#a7226e;stroke:#ffffff;stroke-width:0.48;"/>
    <path clip-path="url(#pc89d80ee44)" d="M 348.729021 17.17468 
L 348.729021 21.41732 
L 352.971661 21.41732 
L 352.971661 17.17468 
z
" style="fill:#a7226e;stroke:#ffffff;stroke-width:0.48;"/>
    <path clip-path="url(#pc89d80ee44)" d="M 355.492657 17.17468 
L 355.492657 21.41732 
L 359.735298 21.41732 
L 359.735298 17.17468 
z
" style="fill:#a7226e;stroke:#ffffff;stroke-width:0.48;"/>
    <path clip-path="url(#pc89d80ee44)" d="M 362.256293 17.17468 
L 362.256293 21.41732 
L 366.498934 21.41732 
L 366.498934 17.17468 
z
" style="fill:#a7226e;stroke:#ffffff;stroke-width:0.48;"/>
    <path clip-path="url(#pc89d80ee44)" d="M 369.01993 17.17468 
L 369.01993 21.41732 
L 373.26257 21.41732 
L 373.26257 17.17468 
z
" style="fill:#a7226e;stroke:#ffffff;stroke-width:0.48;"/>
    <path clip-path="url(#pc89d80ee44)" d="M 375.783566 17.17468 
L 375.783566 21.41732 
L 380.026207 21.41732 
L 380.026207 17.17468 
z
" style="fill:#a7226e;stroke:#ffffff;stroke-width:0.48;"/>
    <path clip-path="url(#pc89d80ee44)" d="M 382.547202 17.17468 
L 382.547202 21.41732 
L 386.789843 21.41732 
L 386.789843 17.17468 
z
" style="fill:#a7226e;stroke:#ffffff;stroke-width:0.48;"/>
   </g>
   <g id="PathCollection_2"/>
   <g id="PathCollection_3"/>
   <g id="PathCollection_4"/>
   <g id="matplotlib.axis_1">
    <g id="xtick_1">
     <g id="line2d_1">
      <defs>
       <path d="M 0 0 
L 0 3.5 
" id="mb33f528ed2" style="stroke:#000000;stroke-width:0.8;"/>
      </defs>
      <g>
       <use style="stroke:#000000;stroke-width:0.8;" x="53.250341" xlink:href="#mb33f528ed2" y="273.312"/>
      </g>
     </g>
     <g id="text_1">
      <!-- 0.0 -->
      <g transform="translate(45.298778 287.910437)scale(0.1 -0.1)">
       <defs>
        <path d="M 31.78125 66.40625 
Q 24.171875 66.40625 20.328125 58.90625 
Q 16.5 51.421875 16.5 36.375 
Q 16.5 21.390625 20.328125 13.890625 
Q 24.171875 6.390625 31.78125 6.390625 
Q 39.453125 6.390625 43.28125 13.890625 
Q 47.125 21.390625 47.125 36.375 
Q 47.125 51.421875 43.28125 58.90625 
Q 39.453125 66.40625 31.78125 66.40625 
z
M 31.78125 74.21875 
Q 44.046875 74.21875 50.515625 64.515625 
Q 56.984375 54.828125 56.984375 36.375 
Q 56.984375 17.96875 50.515625 8.265625 
Q 44.046875 -1.421875 31.78125 -1.421875 
Q 19.53125 -1.421875 13.0625 8.265625 
Q 6.59375 17.96875 6.59375 36.375 
Q 6.59375 54.828125 13.0625 64.515625 
Q 19.53125 74.21875 31.78125 74.21875 
z
" id="DejaVuSans-48"/>
        <path d="M 10.6875 12.40625 
L 21 12.40625 
L 21 0 
L 10.6875 0 
z
" id="DejaVuSans-46"/>
       </defs>
       <use xlink:href="#DejaVuSans-48"/>
       <use x="63.623047" xlink:href="#DejaVuSans-46"/>
       <use x="95.410156" xlink:href="#DejaVuSans-48"/>
      </g>
     </g>
    </g>
    <g id="xtick_2">
     <g id="line2d_2">
      <g>
       <use style="stroke:#000000;stroke-width:0.8;" x="120.886705" xlink:href="#mb33f528ed2" y="273.312"/>
      </g>
     </g>
     <g id="text_2">
      <!-- 0.2 -->
      <g transform="translate(112.935142 287.910437)scale(0.1 -0.1)">
       <defs>
        <path d="M 19.1875 8.296875 
L 53.609375 8.296875 
L 53.609375 0 
L 7.328125 0 
L 7.328125 8.296875 
Q 12.9375 14.109375 22.625 23.890625 
Q 32.328125 33.6875 34.8125 36.53125 
Q 39.546875 41.84375 41.421875 45.53125 
Q 43.3125 49.21875 43.3125 52.78125 
Q 43.3125 58.59375 39.234375 62.25 
Q 35.15625 65.921875 28.609375 65.921875 
Q 23.96875 65.921875 18.8125 64.3125 
Q 13.671875 62.703125 7.8125 59.421875 
L 7.8125 69.390625 
Q 13.765625 71.78125 18.9375 73 
Q 24.125 74.21875 28.421875 74.21875 
Q 39.75 74.21875 46.484375 68.546875 
Q 53.21875 62.890625 53.21875 53.421875 
Q 53.21875 48.921875 51.53125 44.890625 
Q 49.859375 40.875 45.40625 35.40625 
Q 44.1875 33.984375 37.640625 27.21875 
Q 31.109375 20.453125 19.1875 8.296875 
z
" id="DejaVuSans-50"/>
       </defs>
       <use xlink:href="#DejaVuSans-48"/>
       <use x="63.623047" xlink:href="#DejaVuSans-46"/>
       <use x="95.410156" xlink:href="#DejaVuSans-50"/>
      </g>
     </g>
    </g>
    <g id="xtick_3">
     <g id="line2d_3">
      <g>
       <use style="stroke:#000000;stroke-width:0.8;" x="188.523068" xlink:href="#mb33f528ed2" y="273.312"/>
      </g>
     </g>
     <g id="text_3">
      <!-- 0.4 -->
      <g transform="translate(180.571506 287.910437)scale(0.1 -0.1)">
       <defs>
        <path d="M 37.796875 64.3125 
L 12.890625 25.390625 
L 37.796875 25.390625 
z
M 35.203125 72.90625 
L 47.609375 72.90625 
L 47.609375 25.390625 
L 58.015625 25.390625 
L 58.015625 17.1875 
L 47.609375 17.1875 
L 47.609375 0 
L 37.796875 0 
L 37.796875 17.1875 
L 4.890625 17.1875 
L 4.890625 26.703125 
z
" id="DejaVuSans-52"/>
       </defs>
       <use xlink:href="#DejaVuSans-48"/>
       <use x="63.623047" xlink:href="#DejaVuSans-46"/>
       <use x="95.410156" xlink:href="#DejaVuSans-52"/>
      </g>
     </g>
    </g>
    <g id="xtick_4">
     <g id="line2d_4">
      <g>
       <use style="stroke:#000000;stroke-width:0.8;" x="256.159432" xlink:href="#mb33f528ed2" y="273.312"/>
      </g>
     </g>
     <g id="text_4">
      <!-- 0.6 -->
      <g transform="translate(248.207869 287.910437)scale(0.1 -0.1)">
       <defs>
        <path d="M 33.015625 40.375 
Q 26.375 40.375 22.484375 35.828125 
Q 18.609375 31.296875 18.609375 23.390625 
Q 18.609375 15.53125 22.484375 10.953125 
Q 26.375 6.390625 33.015625 6.390625 
Q 39.65625 6.390625 43.53125 10.953125 
Q 47.40625 15.53125 47.40625 23.390625 
Q 47.40625 31.296875 43.53125 35.828125 
Q 39.65625 40.375 33.015625 40.375 
z
M 52.59375 71.296875 
L 52.59375 62.3125 
Q 48.875 64.0625 45.09375 64.984375 
Q 41.3125 65.921875 37.59375 65.921875 
Q 27.828125 65.921875 22.671875 59.328125 
Q 17.53125 52.734375 16.796875 39.40625 
Q 19.671875 43.65625 24.015625 45.921875 
Q 28.375 48.1875 33.59375 48.1875 
Q 44.578125 48.1875 50.953125 41.515625 
Q 57.328125 34.859375 57.328125 23.390625 
Q 57.328125 12.15625 50.6875 5.359375 
Q 44.046875 -1.421875 33.015625 -1.421875 
Q 20.359375 -1.421875 13.671875 8.265625 
Q 6.984375 17.96875 6.984375 36.375 
Q 6.984375 53.65625 15.1875 63.9375 
Q 23.390625 74.21875 37.203125 74.21875 
Q 40.921875 74.21875 44.703125 73.484375 
Q 48.484375 72.75 52.59375 71.296875 
z
" id="DejaVuSans-54"/>
       </defs>
       <use xlink:href="#DejaVuSans-48"/>
       <use x="63.623047" xlink:href="#DejaVuSans-46"/>
       <use x="95.410156" xlink:href="#DejaVuSans-54"/>
      </g>
     </g>
    </g>
    <g id="xtick_5">
     <g id="line2d_5">
      <g>
       <use style="stroke:#000000;stroke-width:0.8;" x="323.795795" xlink:href="#mb33f528ed2" y="273.312"/>
      </g>
     </g>
     <g id="text_5">
      <!-- 0.8 -->
      <g transform="translate(315.844233 287.910437)scale(0.1 -0.1)">
       <defs>
        <path d="M 31.78125 34.625 
Q 24.75 34.625 20.71875 30.859375 
Q 16.703125 27.09375 16.703125 20.515625 
Q 16.703125 13.921875 20.71875 10.15625 
Q 24.75 6.390625 31.78125 6.390625 
Q 38.8125 6.390625 42.859375 10.171875 
Q 46.921875 13.96875 46.921875 20.515625 
Q 46.921875 27.09375 42.890625 30.859375 
Q 38.875 34.625 31.78125 34.625 
z
M 21.921875 38.8125 
Q 15.578125 40.375 12.03125 44.71875 
Q 8.5 49.078125 8.5 55.328125 
Q 8.5 64.0625 14.71875 69.140625 
Q 20.953125 74.21875 31.78125 74.21875 
Q 42.671875 74.21875 48.875 69.140625 
Q 55.078125 64.0625 55.078125 55.328125 
Q 55.078125 49.078125 51.53125 44.71875 
Q 48 40.375 41.703125 38.8125 
Q 48.828125 37.15625 52.796875 32.3125 
Q 56.78125 27.484375 56.78125 20.515625 
Q 56.78125 9.90625 50.3125 4.234375 
Q 43.84375 -1.421875 31.78125 -1.421875 
Q 19.734375 -1.421875 13.25 4.234375 
Q 6.78125 9.90625 6.78125 20.515625 
Q 6.78125 27.484375 10.78125 32.3125 
Q 14.796875 37.15625 21.921875 38.8125 
z
M 18.3125 54.390625 
Q 18.3125 48.734375 21.84375 45.5625 
Q 25.390625 42.390625 31.78125 42.390625 
Q 38.140625 42.390625 41.71875 45.5625 
Q 45.3125 48.734375 45.3125 54.390625 
Q 45.3125 60.0625 41.71875 63.234375 
Q 38.140625 66.40625 31.78125 66.40625 
Q 25.390625 66.40625 21.84375 63.234375 
Q 18.3125 60.0625 18.3125 54.390625 
z
" id="DejaVuSans-56"/>
       </defs>
       <use xlink:href="#DejaVuSans-48"/>
       <use x="63.623047" xlink:href="#DejaVuSans-46"/>
       <use x="95.410156" xlink:href="#DejaVuSans-56"/>
      </g>
     </g>
    </g>
    <g id="xtick_6">
     <g id="line2d_6">
      <g>
       <use style="stroke:#000000;stroke-width:0.8;" x="391.432159" xlink:href="#mb33f528ed2" y="273.312"/>
      </g>
     </g>
     <g id="text_6">
      <!-- 1.0 -->
      <g transform="translate(383.480597 287.910437)scale(0.1 -0.1)">
       <defs>
        <path d="M 12.40625 8.296875 
L 28.515625 8.296875 
L 28.515625 63.921875 
L 10.984375 60.40625 
L 10.984375 69.390625 
L 28.421875 72.90625 
L 38.28125 72.90625 
L 38.28125 8.296875 
L 54.390625 8.296875 
L 54.390625 0 
L 12.40625 0 
z
" id="DejaVuSans-49"/>
       </defs>
       <use xlink:href="#DejaVuSans-49"/>
       <use x="63.623047" xlink:href="#DejaVuSans-46"/>
       <use x="95.410156" xlink:href="#DejaVuSans-48"/>
      </g>
     </g>
    </g>
    <g id="text_7">
     <!-- cutoff -->
     <g transform="translate(207.883438 301.588562)scale(0.1 -0.1)">
      <defs>
       <path d="M 48.78125 52.59375 
L 48.78125 44.1875 
Q 44.96875 46.296875 41.140625 47.34375 
Q 37.3125 48.390625 33.40625 48.390625 
Q 24.65625 48.390625 19.8125 42.84375 
Q 14.984375 37.3125 14.984375 27.296875 
Q 14.984375 17.28125 19.8125 11.734375 
Q 24.65625 6.203125 33.40625 6.203125 
Q 37.3125 6.203125 41.140625 7.25 
Q 44.96875 8.296875 48.78125 10.40625 
L 48.78125 2.09375 
Q 45.015625 0.34375 40.984375 -0.53125 
Q 36.96875 -1.421875 32.421875 -1.421875 
Q 20.0625 -1.421875 12.78125 6.34375 
Q 5.515625 14.109375 5.515625 27.296875 
Q 5.515625 40.671875 12.859375 48.328125 
Q 20.21875 56 33.015625 56 
Q 37.15625 56 41.109375 55.140625 
Q 45.0625 54.296875 48.78125 52.59375 
z
" id="DejaVuSans-99"/>
       <path d="M 8.5 21.578125 
L 8.5 54.6875 
L 17.484375 54.6875 
L 17.484375 21.921875 
Q 17.484375 14.15625 20.5 10.265625 
Q 23.53125 6.390625 29.59375 6.390625 
Q 36.859375 6.390625 41.078125 11.03125 
Q 45.3125 15.671875 45.3125 23.6875 
L 45.3125 54.6875 
L 54.296875 54.6875 
L 54.296875 0 
L 45.3125 0 
L 45.3125 8.40625 
Q 42.046875 3.421875 37.71875 1 
Q 33.40625 -1.421875 27.6875 -1.421875 
Q 18.265625 -1.421875 13.375 4.4375 
Q 8.5 10.296875 8.5 21.578125 
z
M 31.109375 56 
z
" id="DejaVuSans-117"/>
       <path d="M 18.3125 70.21875 
L 18.3125 54.6875 
L 36.8125 54.6875 
L 36.8125 47.703125 
L 18.3125 47.703125 
L 18.3125 18.015625 
Q 18.3125 11.328125 20.140625 9.421875 
Q 21.96875 7.515625 27.59375 7.515625 
L 36.8125 7.515625 
L 36.8125 0 
L 27.59375 0 
Q 17.1875 0 13.234375 3.875 
Q 9.28125 7.765625 9.28125 18.015625 
L 9.28125 47.703125 
L 2.6875 47.703125 
L 2.6875 54.6875 
L 9.28125 54.6875 
L 9.28125 70.21875 
z
" id="DejaVuSans-116"/>
       <path d="M 30.609375 48.390625 
Q 23.390625 48.390625 19.1875 42.75 
Q 14.984375 37.109375 14.984375 27.296875 
Q 14.984375 17.484375 19.15625 11.84375 
Q 23.34375 6.203125 30.609375 6.203125 
Q 37.796875 6.203125 41.984375 11.859375 
Q 46.1875 17.53125 46.1875 27.296875 
Q 46.1875 37.015625 41.984375 42.703125 
Q 37.796875 48.390625 30.609375 48.390625 
z
M 30.609375 56 
Q 42.328125 56 49.015625 48.375 
Q 55.71875 40.765625 55.71875 27.296875 
Q 55.71875 13.875 49.015625 6.21875 
Q 42.328125 -1.421875 30.609375 -1.421875 
Q 18.84375 -1.421875 12.171875 6.21875 
Q 5.515625 13.875 5.515625 27.296875 
Q 5.515625 40.765625 12.171875 48.375 
Q 18.84375 56 30.609375 56 
z
" id="DejaVuSans-111"/>
       <path d="M 37.109375 75.984375 
L 37.109375 68.5 
L 28.515625 68.5 
Q 23.6875 68.5 21.796875 66.546875 
Q 19.921875 64.59375 19.921875 59.515625 
L 19.921875 54.6875 
L 34.71875 54.6875 
L 34.71875 47.703125 
L 19.921875 47.703125 
L 19.921875 0 
L 10.890625 0 
L 10.890625 47.703125 
L 2.296875 47.703125 
L 2.296875 54.6875 
L 10.890625 54.6875 
L 10.890625 58.5 
Q 10.890625 67.625 15.140625 71.796875 
Q 19.390625 75.984375 28.609375 75.984375 
z
" id="DejaVuSans-102"/>
      </defs>
      <use xlink:href="#DejaVuSans-99"/>
      <use x="54.980469" xlink:href="#DejaVuSans-117"/>
      <use x="118.359375" xlink:href="#DejaVuSans-116"/>
      <use x="157.568359" xlink:href="#DejaVuSans-111"/>
      <use x="218.75" xlink:href="#DejaVuSans-102"/>
      <use x="253.955078" xlink:href="#DejaVuSans-102"/>
     </g>
    </g>
   </g>
   <g id="matplotlib.axis_2">
    <g id="ytick_1">
     <g id="line2d_7">
      <defs>
       <path d="M 0 0 
L -3.5 0 
" id="m6a953310ce" style="stroke:#000000;stroke-width:0.8;"/>
      </defs>
      <g>
       <use style="stroke:#000000;stroke-width:0.8;" x="43.78125" xlink:href="#m6a953310ce" y="264.773647"/>
      </g>
     </g>
     <g id="text_8">
      <!-- 0.5 -->
      <g transform="translate(20.878125 268.572866)scale(0.1 -0.1)">
       <defs>
        <path d="M 10.796875 72.90625 
L 49.515625 72.90625 
L 49.515625 64.59375 
L 19.828125 64.59375 
L 19.828125 46.734375 
Q 21.96875 47.46875 24.109375 47.828125 
Q 26.265625 48.1875 28.421875 48.1875 
Q 40.625 48.1875 47.75 41.5 
Q 54.890625 34.8125 54.890625 23.390625 
Q 54.890625 11.625 47.5625 5.09375 
Q 40.234375 -1.421875 26.90625 -1.421875 
Q 22.3125 -1.421875 17.546875 -0.640625 
Q 12.796875 0.140625 7.71875 1.703125 
L 7.71875 11.625 
Q 12.109375 9.234375 16.796875 8.0625 
Q 21.484375 6.890625 26.703125 6.890625 
Q 35.15625 6.890625 40.078125 11.328125 
Q 45.015625 15.765625 45.015625 23.390625 
Q 45.015625 31 40.078125 35.4375 
Q 35.15625 39.890625 26.703125 39.890625 
Q 22.75 39.890625 18.8125 39.015625 
Q 14.890625 38.140625 10.796875 36.28125 
z
" id="DejaVuSans-53"/>
       </defs>
       <use xlink:href="#DejaVuSans-48"/>
       <use x="63.623047" xlink:href="#DejaVuSans-46"/>
       <use x="95.410156" xlink:href="#DejaVuSans-53"/>
      </g>
     </g>
    </g>
    <g id="ytick_2">
     <g id="line2d_8">
      <g>
       <use style="stroke:#000000;stroke-width:0.8;" x="43.78125" xlink:href="#m6a953310ce" y="215.678118"/>
      </g>
     </g>
     <g id="text_9">
      <!-- 0.6 -->
      <g transform="translate(20.878125 219.477336)scale(0.1 -0.1)">
       <use xlink:href="#DejaVuSans-48"/>
       <use x="63.623047" xlink:href="#DejaVuSans-46"/>
       <use x="95.410156" xlink:href="#DejaVuSans-54"/>
      </g>
     </g>
    </g>
    <g id="ytick_3">
     <g id="line2d_9">
      <g>
       <use style="stroke:#000000;stroke-width:0.8;" x="43.78125" xlink:href="#m6a953310ce" y="166.582588"/>
      </g>
     </g>
     <g id="text_10">
      <!-- 0.7 -->
      <g transform="translate(20.878125 170.381807)scale(0.1 -0.1)">
       <defs>
        <path d="M 8.203125 72.90625 
L 55.078125 72.90625 
L 55.078125 68.703125 
L 28.609375 0 
L 18.3125 0 
L 43.21875 64.59375 
L 8.203125 64.59375 
z
" id="DejaVuSans-55"/>
       </defs>
       <use xlink:href="#DejaVuSans-48"/>
       <use x="63.623047" xlink:href="#DejaVuSans-46"/>
       <use x="95.410156" xlink:href="#DejaVuSans-55"/>
      </g>
     </g>
    </g>
    <g id="ytick_4">
     <g id="line2d_10">
      <g>
       <use style="stroke:#000000;stroke-width:0.8;" x="43.78125" xlink:href="#m6a953310ce" y="117.487059"/>
      </g>
     </g>
     <g id="text_11">
      <!-- 0.8 -->
      <g transform="translate(20.878125 121.286278)scale(0.1 -0.1)">
       <use xlink:href="#DejaVuSans-48"/>
       <use x="63.623047" xlink:href="#DejaVuSans-46"/>
       <use x="95.410156" xlink:href="#DejaVuSans-56"/>
      </g>
     </g>
    </g>
    <g id="ytick_5">
     <g id="line2d_11">
      <g>
       <use style="stroke:#000000;stroke-width:0.8;" x="43.78125" xlink:href="#m6a953310ce" y="68.391529"/>
      </g>
     </g>
     <g id="text_12">
      <!-- 0.9 -->
      <g transform="translate(20.878125 72.190748)scale(0.1 -0.1)">
       <defs>
        <path d="M 10.984375 1.515625 
L 10.984375 10.5 
Q 14.703125 8.734375 18.5 7.8125 
Q 22.3125 6.890625 25.984375 6.890625 
Q 35.75 6.890625 40.890625 13.453125 
Q 46.046875 20.015625 46.78125 33.40625 
Q 43.953125 29.203125 39.59375 26.953125 
Q 35.25 24.703125 29.984375 24.703125 
Q 19.046875 24.703125 12.671875 31.3125 
Q 6.296875 37.9375 6.296875 49.421875 
Q 6.296875 60.640625 12.9375 67.421875 
Q 19.578125 74.21875 30.609375 74.21875 
Q 43.265625 74.21875 49.921875 64.515625 
Q 56.59375 54.828125 56.59375 36.375 
Q 56.59375 19.140625 48.40625 8.859375 
Q 40.234375 -1.421875 26.421875 -1.421875 
Q 22.703125 -1.421875 18.890625 -0.6875 
Q 15.09375 0.046875 10.984375 1.515625 
z
M 30.609375 32.421875 
Q 37.25 32.421875 41.125 36.953125 
Q 45.015625 41.5 45.015625 49.421875 
Q 45.015625 57.28125 41.125 61.84375 
Q 37.25 66.40625 30.609375 66.40625 
Q 23.96875 66.40625 20.09375 61.84375 
Q 16.21875 57.28125 16.21875 49.421875 
Q 16.21875 41.5 20.09375 36.953125 
Q 23.96875 32.421875 30.609375 32.421875 
z
" id="DejaVuSans-57"/>
       </defs>
       <use xlink:href="#DejaVuSans-48"/>
       <use x="63.623047" xlink:href="#DejaVuSans-46"/>
       <use x="95.410156" xlink:href="#DejaVuSans-57"/>
      </g>
     </g>
    </g>
    <g id="ytick_6">
     <g id="line2d_12">
      <g>
       <use style="stroke:#000000;stroke-width:0.8;" x="43.78125" xlink:href="#m6a953310ce" y="19.296"/>
      </g>
     </g>
     <g id="text_13">
      <!-- 1.0 -->
      <g transform="translate(20.878125 23.095219)scale(0.1 -0.1)">
       <use xlink:href="#DejaVuSans-49"/>
       <use x="63.623047" xlink:href="#DejaVuSans-46"/>
       <use x="95.410156" xlink:href="#DejaVuSans-48"/>
      </g>
     </g>
    </g>
    <g id="text_14">
     <!-- performance -->
     <g transform="translate(14.798438 172.278656)rotate(-90)scale(0.1 -0.1)">
      <defs>
       <path d="M 18.109375 8.203125 
L 18.109375 -20.796875 
L 9.078125 -20.796875 
L 9.078125 54.6875 
L 18.109375 54.6875 
L 18.109375 46.390625 
Q 20.953125 51.265625 25.265625 53.625 
Q 29.59375 56 35.59375 56 
Q 45.5625 56 51.78125 48.09375 
Q 58.015625 40.1875 58.015625 27.296875 
Q 58.015625 14.40625 51.78125 6.484375 
Q 45.5625 -1.421875 35.59375 -1.421875 
Q 29.59375 -1.421875 25.265625 0.953125 
Q 20.953125 3.328125 18.109375 8.203125 
z
M 48.6875 27.296875 
Q 48.6875 37.203125 44.609375 42.84375 
Q 40.53125 48.484375 33.40625 48.484375 
Q 26.265625 48.484375 22.1875 42.84375 
Q 18.109375 37.203125 18.109375 27.296875 
Q 18.109375 17.390625 22.1875 11.75 
Q 26.265625 6.109375 33.40625 6.109375 
Q 40.53125 6.109375 44.609375 11.75 
Q 48.6875 17.390625 48.6875 27.296875 
z
" id="DejaVuSans-112"/>
       <path d="M 56.203125 29.59375 
L 56.203125 25.203125 
L 14.890625 25.203125 
Q 15.484375 15.921875 20.484375 11.0625 
Q 25.484375 6.203125 34.421875 6.203125 
Q 39.59375 6.203125 44.453125 7.46875 
Q 49.3125 8.734375 54.109375 11.28125 
L 54.109375 2.78125 
Q 49.265625 0.734375 44.1875 -0.34375 
Q 39.109375 -1.421875 33.890625 -1.421875 
Q 20.796875 -1.421875 13.15625 6.1875 
Q 5.515625 13.8125 5.515625 26.8125 
Q 5.515625 40.234375 12.765625 48.109375 
Q 20.015625 56 32.328125 56 
Q 43.359375 56 49.78125 48.890625 
Q 56.203125 41.796875 56.203125 29.59375 
z
M 47.21875 32.234375 
Q 47.125 39.59375 43.09375 43.984375 
Q 39.0625 48.390625 32.421875 48.390625 
Q 24.90625 48.390625 20.390625 44.140625 
Q 15.875 39.890625 15.1875 32.171875 
z
" id="DejaVuSans-101"/>
       <path d="M 41.109375 46.296875 
Q 39.59375 47.171875 37.8125 47.578125 
Q 36.03125 48 33.890625 48 
Q 26.265625 48 22.1875 43.046875 
Q 18.109375 38.09375 18.109375 28.8125 
L 18.109375 0 
L 9.078125 0 
L 9.078125 54.6875 
L 18.109375 54.6875 
L 18.109375 46.1875 
Q 20.953125 51.171875 25.484375 53.578125 
Q 30.03125 56 36.53125 56 
Q 37.453125 56 38.578125 55.875 
Q 39.703125 55.765625 41.0625 55.515625 
z
" id="DejaVuSans-114"/>
       <path d="M 52 44.1875 
Q 55.375 50.25 60.0625 53.125 
Q 64.75 56 71.09375 56 
Q 79.640625 56 84.28125 50.015625 
Q 88.921875 44.046875 88.921875 33.015625 
L 88.921875 0 
L 79.890625 0 
L 79.890625 32.71875 
Q 79.890625 40.578125 77.09375 44.375 
Q 74.3125 48.1875 68.609375 48.1875 
Q 61.625 48.1875 57.5625 43.546875 
Q 53.515625 38.921875 53.515625 30.90625 
L 53.515625 0 
L 44.484375 0 
L 44.484375 32.71875 
Q 44.484375 40.625 41.703125 44.40625 
Q 38.921875 48.1875 33.109375 48.1875 
Q 26.21875 48.1875 22.15625 43.53125 
Q 18.109375 38.875 18.109375 30.90625 
L 18.109375 0 
L 9.078125 0 
L 9.078125 54.6875 
L 18.109375 54.6875 
L 18.109375 46.1875 
Q 21.1875 51.21875 25.484375 53.609375 
Q 29.78125 56 35.6875 56 
Q 41.65625 56 45.828125 52.96875 
Q 50 49.953125 52 44.1875 
z
" id="DejaVuSans-109"/>
       <path d="M 34.28125 27.484375 
Q 23.390625 27.484375 19.1875 25 
Q 14.984375 22.515625 14.984375 16.5 
Q 14.984375 11.71875 18.140625 8.90625 
Q 21.296875 6.109375 26.703125 6.109375 
Q 34.1875 6.109375 38.703125 11.40625 
Q 43.21875 16.703125 43.21875 25.484375 
L 43.21875 27.484375 
z
M 52.203125 31.203125 
L 52.203125 0 
L 43.21875 0 
L 43.21875 8.296875 
Q 40.140625 3.328125 35.546875 0.953125 
Q 30.953125 -1.421875 24.3125 -1.421875 
Q 15.921875 -1.421875 10.953125 3.296875 
Q 6 8.015625 6 15.921875 
Q 6 25.140625 12.171875 29.828125 
Q 18.359375 34.515625 30.609375 34.515625 
L 43.21875 34.515625 
L 43.21875 35.40625 
Q 43.21875 41.609375 39.140625 45 
Q 35.0625 48.390625 27.6875 48.390625 
Q 23 48.390625 18.546875 47.265625 
Q 14.109375 46.140625 10.015625 43.890625 
L 10.015625 52.203125 
Q 14.9375 54.109375 19.578125 55.046875 
Q 24.21875 56 28.609375 56 
Q 40.484375 56 46.34375 49.84375 
Q 52.203125 43.703125 52.203125 31.203125 
z
" id="DejaVuSans-97"/>
       <path d="M 54.890625 33.015625 
L 54.890625 0 
L 45.90625 0 
L 45.90625 32.71875 
Q 45.90625 40.484375 42.875 44.328125 
Q 39.84375 48.1875 33.796875 48.1875 
Q 26.515625 48.1875 22.3125 43.546875 
Q 18.109375 38.921875 18.109375 30.90625 
L 18.109375 0 
L 9.078125 0 
L 9.078125 54.6875 
L 18.109375 54.6875 
L 18.109375 46.1875 
Q 21.34375 51.125 25.703125 53.5625 
Q 30.078125 56 35.796875 56 
Q 45.21875 56 50.046875 50.171875 
Q 54.890625 44.34375 54.890625 33.015625 
z
" id="DejaVuSans-110"/>
      </defs>
      <use xlink:href="#DejaVuSans-112"/>
      <use x="63.476562" xlink:href="#DejaVuSans-101"/>
      <use x="125" xlink:href="#DejaVuSans-114"/>
      <use x="166.113281" xlink:href="#DejaVuSans-102"/>
      <use x="201.318359" xlink:href="#DejaVuSans-111"/>
      <use x="262.5" xlink:href="#DejaVuSans-114"/>
      <use x="301.863281" xlink:href="#DejaVuSans-109"/>
      <use x="399.275391" xlink:href="#DejaVuSans-97"/>
      <use x="460.554688" xlink:href="#DejaVuSans-110"/>
      <use x="523.933594" xlink:href="#DejaVuSans-99"/>
      <use x="578.914062" xlink:href="#DejaVuSans-101"/>
     </g>
    </g>
   </g>
   <g id="line2d_13">
    <path clip-path="url(#pc89d80ee44)" d="M 60.013977 261.216 
L 66.777614 254.100706 
L 73.54125 239.870118 
L 80.304886 209.343211 
L 87.068523 148.982304 
L 93.832159 149.549445 
L 100.595795 115.352471 
L 107.359432 115.352471 
L 114.123068 131.806588 
L 120.886705 159.568941 
L 127.650341 168.717176 
L 134.413977 164.350973 
L 141.177614 123.438032 
L 147.94125 111.350118 
L 154.704886 49.050866 
L 161.468523 49.050866 
L 168.232159 49.050866 
L 174.995795 49.050866 
L 181.759432 36.830118 
L 188.523068 19.296 
L 195.286705 19.296 
L 202.050341 19.296 
L 208.813977 19.296 
L 215.577614 19.296 
L 222.34125 19.296 
L 229.104886 19.296 
L 235.868523 19.296 
L 242.632159 19.296 
L 249.395795 19.296 
L 256.159432 19.296 
L 262.923068 19.296 
L 269.686705 19.296 
L 276.450341 19.296 
L 283.213977 19.296 
L 289.977614 19.296 
L 296.74125 19.296 
L 303.504886 19.296 
L 310.268523 19.296 
L 317.032159 19.296 
L 323.795795 19.296 
L 330.559432 19.296 
L 337.323068 19.296 
L 344.086705 19.296 
L 350.850341 19.296 
L 357.613977 19.296 
L 364.377614 19.296 
L 371.14125 19.296 
L 377.904886 19.296 
L 384.668523 19.296 
" style="fill:none;stroke:#f26b38;stroke-dasharray:7.4,3.2;stroke-dashoffset:0;stroke-width:2;"/>
   </g>
   <g id="line2d_14">
    <path clip-path="url(#pc89d80ee44)" d="M 60.013977 182.947765 
L 66.777614 128.397176 
L 73.54125 182.947765 
L 80.304886 178.856471 
L 87.068523 134.814893 
L 93.832159 55.663059 
L 100.595795 55.663059 
L 107.359432 55.663059 
L 114.123068 55.663059 
L 120.886705 36.830118 
L 127.650341 19.296 
L 134.413977 19.296 
L 141.177614 19.296 
L 147.94125 19.296 
L 154.704886 19.296 
L 161.468523 19.296 
L 168.232159 19.296 
L 174.995795 19.296 
L 181.759432 19.296 
L 188.523068 19.296 
L 195.286705 19.296 
L 202.050341 19.296 
L 208.813977 19.296 
L 215.577614 19.296 
L 222.34125 19.296 
L 229.104886 19.296 
L 235.868523 19.296 
L 242.632159 19.296 
L 249.395795 19.296 
L 256.159432 19.296 
L 262.923068 19.296 
L 269.686705 19.296 
L 276.450341 19.296 
L 283.213977 19.296 
L 289.977614 19.296 
L 296.74125 19.296 
L 303.504886 19.296 
L 310.268523 19.296 
L 317.032159 19.296 
L 323.795795 19.296 
L 330.559432 19.296 
L 337.323068 19.296 
L 344.086705 19.296 
L 350.850341 19.296 
L 357.613977 19.296 
L 364.377614 19.296 
L 371.14125 19.296 
L 377.904886 19.296 
L 384.668523 19.296 
" style="fill:none;stroke:#2f9599;stroke-dasharray:2,3.3;stroke-dashoffset:0;stroke-width:2;"/>
   </g>
   <g id="line2d_15">
    <path clip-path="url(#pc89d80ee44)" d="M 60.013977 247.96011 
L 66.777614 247.96011 
L 73.54125 247.96011 
L 80.304886 247.96011 
L 87.068523 251.136 
L 93.832159 257.76 
L 100.595795 250.746353 
L 107.359432 250.746353 
L 114.123068 246.985412 
L 120.886705 233.656762 
L 127.650341 233.656762 
L 134.413977 232.754824 
L 141.177614 220.141348 
L 147.94125 206.326588 
L 154.704886 153.192898 
L 161.468523 146.944376 
L 168.232159 146.944376 
L 174.995795 113.308716 
L 181.759432 113.308716 
L 188.523068 129.510454 
L 195.286705 131.806588 
L 202.050341 139.52995 
L 208.813977 131.806588 
L 215.577614 60.208941 
L 222.34125 61.377882 
L 229.104886 34.173433 
L 235.868523 32.215876 
L 242.632159 19.296 
L 249.395795 19.296 
L 256.159432 19.296 
L 262.923068 19.296 
L 269.686705 19.296 
L 276.450341 19.296 
L 283.213977 19.296 
L 289.977614 19.296 
L 296.74125 19.296 
L 303.504886 19.296 
L 310.268523 19.296 
L 317.032159 19.296 
L 323.795795 19.296 
L 330.559432 19.296 
L 337.323068 19.296 
L 344.086705 19.296 
L 350.850341 19.296 
L 357.613977 19.296 
L 364.377614 19.296 
L 371.14125 19.296 
L 377.904886 19.296 
L 384.668523 19.296 
" style="fill:none;stroke:#a7226e;stroke-dasharray:12.8,3.2,2,3.2;stroke-dashoffset:0;stroke-width:2;"/>
   </g>
   <g id="patch_3">
    <path d="M 43.78125 273.312 
L 43.78125 7.2 
" style="fill:none;stroke:#000000;stroke-linecap:square;stroke-linejoin:miter;stroke-width:0.8;"/>
   </g>
   <g id="patch_4">
    <path d="M 400.90125 273.312 
L 400.90125 7.2 
" style="fill:none;stroke:#000000;stroke-linecap:square;stroke-linejoin:miter;stroke-width:0.8;"/>
   </g>
   <g id="patch_5">
    <path d="M 43.78125 273.312 
L 400.90125 273.312 
" style="fill:none;stroke:#000000;stroke-linecap:square;stroke-linejoin:miter;stroke-width:0.8;"/>
   </g>
   <g id="patch_6">
    <path d="M 43.78125 7.2 
L 400.90125 7.2 
" style="fill:none;stroke:#000000;stroke-linecap:square;stroke-linejoin:miter;stroke-width:0.8;"/>
   </g>
   <g id="legend_1">
    <g id="patch_7">
     <path d="M 315.427559 269.842 
L 396.04325 269.842 
Q 397.43125 269.842 397.43125 268.454 
L 397.43125 238.009087 
Q 397.43125 236.621087 396.04325 236.621087 
L 315.427559 236.621087 
Q 314.039559 236.621087 314.039559 238.009087 
L 314.039559 268.454 
Q 314.039559 269.842 315.427559 269.842 
z
" style="fill:#ffffff;opacity:0.8;stroke:#cccccc;stroke-linejoin:miter;"/>
    </g>
    <g id="PathCollection_5">
     <defs>
      <path d="M 0 3 
C 0.795609 3 1.55874 2.683901 2.12132 2.12132 
C 2.683901 1.55874 3 0.795609 3 0 
C 3 -0.795609 2.683901 -1.55874 2.12132 -2.12132 
C 1.55874 -2.683901 0.795609 -3 0 -3 
C -0.795609 -3 -1.55874 -2.683901 -2.12132 -2.12132 
C -2.683901 -1.55874 -3 -0.795609 -3 0 
C -3 0.795609 -2.683901 1.55874 -2.12132 2.12132 
C -1.55874 2.683901 -0.795609 3 0 3 
z
" id="m3bdb94d274" style="stroke:#f26b38;"/>
     </defs>
     <g>
      <use style="fill:#f26b38;stroke:#f26b38;" x="323.755559" xlink:href="#m3bdb94d274" y="242.848653"/>
     </g>
    </g>
    <g id="text_15">
     <!-- mean_err -->
     <g transform="translate(336.247559 244.670403)scale(0.0694 -0.0694)">
      <defs>
       <path d="M 50.984375 -16.609375 
L 50.984375 -23.578125 
L -0.984375 -23.578125 
L -0.984375 -16.609375 
z
" id="DejaVuSans-95"/>
      </defs>
      <use xlink:href="#DejaVuSans-109"/>
      <use x="97.412109" xlink:href="#DejaVuSans-101"/>
      <use x="158.935547" xlink:href="#DejaVuSans-97"/>
      <use x="220.214844" xlink:href="#DejaVuSans-110"/>
      <use x="283.59375" xlink:href="#DejaVuSans-95"/>
      <use x="333.59375" xlink:href="#DejaVuSans-101"/>
      <use x="395.117188" xlink:href="#DejaVuSans-114"/>
      <use x="434.480469" xlink:href="#DejaVuSans-114"/>
     </g>
    </g>
    <g id="PathCollection_6">
     <defs>
      <path d="M -1.5 3 
L 0 1.5 
L 1.5 3 
L 3 1.5 
L 1.5 0 
L 3 -1.5 
L 1.5 -3 
L 0 -1.5 
L -1.5 -3 
L -3 -1.5 
L -1.5 0 
L -3 1.5 
z
" id="m3015d0fa09" style="stroke:#2f9599;"/>
     </defs>
     <g>
      <use style="fill:#2f9599;stroke:#2f9599;" x="323.755559" xlink:href="#m3015d0fa09" y="253.228291"/>
     </g>
    </g>
    <g id="text_16">
     <!-- mean_sq_err -->
     <g transform="translate(336.247559 255.050041)scale(0.0694 -0.0694)">
      <defs>
       <path d="M 44.28125 53.078125 
L 44.28125 44.578125 
Q 40.484375 46.53125 36.375 47.5 
Q 32.28125 48.484375 27.875 48.484375 
Q 21.1875 48.484375 17.84375 46.4375 
Q 14.5 44.390625 14.5 40.28125 
Q 14.5 37.15625 16.890625 35.375 
Q 19.28125 33.59375 26.515625 31.984375 
L 29.59375 31.296875 
Q 39.15625 29.25 43.1875 25.515625 
Q 47.21875 21.78125 47.21875 15.09375 
Q 47.21875 7.46875 41.1875 3.015625 
Q 35.15625 -1.421875 24.609375 -1.421875 
Q 20.21875 -1.421875 15.453125 -0.5625 
Q 10.6875 0.296875 5.421875 2 
L 5.421875 11.28125 
Q 10.40625 8.6875 15.234375 7.390625 
Q 20.0625 6.109375 24.8125 6.109375 
Q 31.15625 6.109375 34.5625 8.28125 
Q 37.984375 10.453125 37.984375 14.40625 
Q 37.984375 18.0625 35.515625 20.015625 
Q 33.0625 21.96875 24.703125 23.78125 
L 21.578125 24.515625 
Q 13.234375 26.265625 9.515625 29.90625 
Q 5.8125 33.546875 5.8125 39.890625 
Q 5.8125 47.609375 11.28125 51.796875 
Q 16.75 56 26.8125 56 
Q 31.78125 56 36.171875 55.265625 
Q 40.578125 54.546875 44.28125 53.078125 
z
" id="DejaVuSans-115"/>
       <path d="M 14.796875 27.296875 
Q 14.796875 17.390625 18.875 11.75 
Q 22.953125 6.109375 30.078125 6.109375 
Q 37.203125 6.109375 41.296875 11.75 
Q 45.40625 17.390625 45.40625 27.296875 
Q 45.40625 37.203125 41.296875 42.84375 
Q 37.203125 48.484375 30.078125 48.484375 
Q 22.953125 48.484375 18.875 42.84375 
Q 14.796875 37.203125 14.796875 27.296875 
z
M 45.40625 8.203125 
Q 42.578125 3.328125 38.25 0.953125 
Q 33.9375 -1.421875 27.875 -1.421875 
Q 17.96875 -1.421875 11.734375 6.484375 
Q 5.515625 14.40625 5.515625 27.296875 
Q 5.515625 40.1875 11.734375 48.09375 
Q 17.96875 56 27.875 56 
Q 33.9375 56 38.25 53.625 
Q 42.578125 51.265625 45.40625 46.390625 
L 45.40625 54.6875 
L 54.390625 54.6875 
L 54.390625 -20.796875 
L 45.40625 -20.796875 
z
" id="DejaVuSans-113"/>
      </defs>
      <use xlink:href="#DejaVuSans-109"/>
      <use x="97.412109" xlink:href="#DejaVuSans-101"/>
      <use x="158.935547" xlink:href="#DejaVuSans-97"/>
      <use x="220.214844" xlink:href="#DejaVuSans-110"/>
      <use x="283.59375" xlink:href="#DejaVuSans-95"/>
      <use x="333.59375" xlink:href="#DejaVuSans-115"/>
      <use x="385.693359" xlink:href="#DejaVuSans-113"/>
      <use x="449.169922" xlink:href="#DejaVuSans-95"/>
      <use x="499.169922" xlink:href="#DejaVuSans-101"/>
      <use x="560.693359" xlink:href="#DejaVuSans-114"/>
      <use x="600.056641" xlink:href="#DejaVuSans-114"/>
     </g>
    </g>
    <g id="PathCollection_7">
     <defs>
      <path d="M -2.12132 -2.12132 
L -2.12132 2.12132 
L 2.12132 2.12132 
L 2.12132 -2.12132 
z
" id="m78fe89bf69" style="stroke:#a7226e;"/>
     </defs>
     <g>
      <use style="fill:#a7226e;stroke:#a7226e;" x="323.755559" xlink:href="#m78fe89bf69" y="263.607928"/>
     </g>
    </g>
    <g id="text_17">
     <!-- mean_sqroot_err -->
     <g transform="translate(336.247559 265.429678)scale(0.0694 -0.0694)">
      <use xlink:href="#DejaVuSans-109"/>
      <use x="97.412109" xlink:href="#DejaVuSans-101"/>
      <use x="158.935547" xlink:href="#DejaVuSans-97"/>
      <use x="220.214844" xlink:href="#DejaVuSans-110"/>
      <use x="283.59375" xlink:href="#DejaVuSans-95"/>
      <use x="333.59375" xlink:href="#DejaVuSans-115"/>
      <use x="385.693359" xlink:href="#DejaVuSans-113"/>
      <use x="449.169922" xlink:href="#DejaVuSans-114"/>
      <use x="488.033203" xlink:href="#DejaVuSans-111"/>
      <use x="549.214844" xlink:href="#DejaVuSans-111"/>
      <use x="610.396484" xlink:href="#DejaVuSans-116"/>
      <use x="649.605469" xlink:href="#DejaVuSans-95"/>
      <use x="699.605469" xlink:href="#DejaVuSans-101"/>
      <use x="761.128906" xlink:href="#DejaVuSans-114"/>
      <use x="800.492188" xlink:href="#DejaVuSans-114"/>
     </g>
    </g>
   </g>
  </g>
 </g>
 <defs>
  <clipPath id="pc89d80ee44">
   <rect height="266.112" width="357.12" x="43.78125" y="7.2"/>
  </clipPath>
 </defs>
</svg>
