<?xml version="1.0" encoding="utf-8" standalone="no"?>
<!DOCTYPE svg PUBLIC "-//W3C//DTD SVG 1.1//EN"
  "http://www.w3.org/Graphics/SVG/1.1/DTD/svg11.dtd">
<!-- Created with matplotlib (https://matplotlib.org/) -->
<svg height="310.86825pt" version="1.1" viewBox="0 0 408.10125 310.86825" width="408.10125pt" xmlns="http://www.w3.org/2000/svg" xmlns:xlink="http://www.w3.org/1999/xlink">
 <metadata>
  <rdf:RDF xmlns:cc="http://creativecommons.org/ns#" xmlns:dc="http://purl.org/dc/elements/1.1/" xmlns:rdf="http://www.w3.org/1999/02/22-rdf-syntax-ns#">
   <cc:Work>
    <dc:type rdf:resource="http://purl.org/dc/dcmitype/StillImage"/>
    <dc:date>2022-05-27T21:31:54.554753</dc:date>
    <dc:format>image/svg+xml</dc:format>
    <dc:creator>
     <cc:Agent>
      <dc:title>Matplotlib v3.3.4, https://matplotlib.org/</dc:title>
     </cc:Agent>
    </dc:creator>
   </cc:Work>
  </rdf:RDF>
 </metadata>
 <defs>
  <style type="text/css">*{stroke-linecap:butt;stroke-linejoin:round;}</style>
 </defs>
 <g id="figure_1">
  <g id="patch_1">
   <path d="M 0 310.86825 
L 408.10125 310.86825 
L 408.10125 0 
L 0 0 
z
" style="fill:#ffffff;"/>
  </g>
  <g id="axes_1">
   <g id="patch_2">
    <path d="M 43.78125 273.312 
L 400.90125 273.312 
L 400.90125 7.2 
L 43.78125 7.2 
z
" style="fill:#ffffff;"/>
   </g>
   <g id="PathCollection_1">
    <path clip-path="url(#p5bfcae61b2)" d="M 60.013977 29.826279 
C 60.809587 29.826279 61.572717 29.51018 62.135298 28.9476 
C 62.697878 28.385019 63.013977 27.621889 63.013977 26.826279 
C 63.013977 26.03067 62.697878 25.26754 62.135298 24.704959 
C 61.572717 24.142378 60.809587 23.826279 60.013977 23.826279 
C 59.218368 23.826279 58.455238 24.142378 57.892657 24.704959 
C 57.330076 25.26754 57.013977 26.03067 57.013977 26.826279 
C 57.013977 27.621889 57.330076 28.385019 57.892657 28.9476 
C 58.455238 29.51018 59.218368 29.826279 60.013977 29.826279 
z
" style="fill:#f26b38;stroke:#ffffff;stroke-width:0.48;"/>
    <path clip-path="url(#p5bfcae61b2)" d="M 66.777614 40.991866 
C 67.573223 40.991866 68.336353 40.675767 68.898934 40.113186 
C 69.461515 39.550606 69.777614 38.787475 69.777614 37.991866 
C 69.777614 37.196257 69.461515 36.433126 68.898934 35.870546 
C 68.336353 35.307965 67.573223 34.991866 66.777614 34.991866 
C 65.982004 34.991866 65.218874 35.307965 64.656293 35.870546 
C 64.093713 36.433126 63.777614 37.196257 63.777614 37.991866 
C 63.777614 38.787475 64.093713 39.550606 64.656293 40.113186 
C 65.218874 40.675767 65.982004 40.991866 66.777614 40.991866 
z
" style="fill:#f26b38;stroke:#ffffff;stroke-width:0.48;"/>
    <path clip-path="url(#p5bfcae61b2)" d="M 73.54125 54.294694 
C 74.336859 54.294694 75.09999 53.978595 75.66257 53.416014 
C 76.225151 52.853433 76.54125 52.090303 76.54125 51.294694 
C 76.54125 50.499084 76.225151 49.735954 75.66257 49.173373 
C 75.09999 48.610793 74.336859 48.294694 73.54125 48.294694 
C 72.745641 48.294694 71.98251 48.610793 71.41993 49.173373 
C 70.857349 49.735954 70.54125 50.499084 70.54125 51.294694 
C 70.54125 52.090303 70.857349 52.853433 71.41993 53.416014 
C 71.98251 53.978595 72.745641 54.294694 73.54125 54.294694 
z
" style="fill:#f26b38;stroke:#ffffff;stroke-width:0.48;"/>
    <path clip-path="url(#p5bfcae61b2)" d="M 80.304886 69.814659 
C 81.100496 69.814659 81.863626 69.49856 82.426207 68.93598 
C 82.988787 68.373399 83.304886 67.610269 83.304886 66.814659 
C 83.304886 66.01905 82.988787 65.25592 82.426207 64.693339 
C 81.863626 64.130758 81.100496 63.814659 80.304886 63.814659 
C 79.509277 63.814659 78.746147 64.130758 78.183566 64.693339 
C 77.620985 65.25592 77.304886 66.01905 77.304886 66.814659 
C 77.304886 67.610269 77.620985 68.373399 78.183566 68.93598 
C 78.746147 69.49856 79.509277 69.814659 80.304886 69.814659 
z
" style="fill:#f26b38;stroke:#ffffff;stroke-width:0.48;"/>
    <path clip-path="url(#p5bfcae61b2)" d="M 87.068523 98.381663 
C 87.864132 98.381663 88.627262 98.065564 89.189843 97.502984 
C 89.752424 96.940403 90.068523 96.177273 90.068523 95.381663 
C 90.068523 94.586054 89.752424 93.822924 89.189843 93.260343 
C 88.627262 92.697762 87.864132 92.381663 87.068523 92.381663 
C 86.272913 92.381663 85.509783 92.697762 84.947202 93.260343 
C 84.384622 93.822924 84.068523 94.586054 84.068523 95.381663 
C 84.068523 96.177273 84.384622 96.940403 84.947202 97.502984 
C 85.509783 98.065564 86.272913 98.381663 87.068523 98.381663 
z
" style="fill:#f26b38;stroke:#ffffff;stroke-width:0.48;"/>
    <path clip-path="url(#p5bfcae61b2)" d="M 93.832159 107.827329 
C 94.627768 107.827329 95.390899 107.51123 95.953479 106.948649 
C 96.51606 106.386068 96.832159 105.622938 96.832159 104.827329 
C 96.832159 104.031719 96.51606 103.268589 95.953479 102.706008 
C 95.390899 102.143428 94.627768 101.827329 93.832159 101.827329 
C 93.03655 101.827329 92.273419 102.143428 91.710839 102.706008 
C 91.148258 103.268589 90.832159 104.031719 90.832159 104.827329 
C 90.832159 105.622938 91.148258 106.386068 91.710839 106.948649 
C 92.273419 107.51123 93.03655 107.827329 93.832159 107.827329 
z
" style="fill:#f26b38;stroke:#ffffff;stroke-width:0.48;"/>
    <path clip-path="url(#p5bfcae61b2)" d="M 100.595795 120.982854 
C 101.391405 120.982854 102.154535 120.666755 102.717116 120.104174 
C 103.279697 119.541594 103.595795 118.778463 103.595795 117.982854 
C 103.595795 117.187245 103.279697 116.424114 102.717116 115.861534 
C 102.154535 115.298953 101.391405 114.982854 100.595795 114.982854 
C 99.800186 114.982854 99.037056 115.298953 98.474475 115.861534 
C 97.911894 116.424114 97.595795 117.187245 97.595795 117.982854 
C 97.595795 118.778463 97.911894 119.541594 98.474475 120.104174 
C 99.037056 120.666755 99.800186 120.982854 100.595795 120.982854 
z
" style="fill:#f26b38;stroke:#ffffff;stroke-width:0.48;"/>
    <path clip-path="url(#p5bfcae61b2)" d="M 107.359432 120.982854 
C 108.155041 120.982854 108.918171 120.666755 109.480752 120.104174 
C 110.043333 119.541594 110.359432 118.778463 110.359432 117.982854 
C 110.359432 117.187245 110.043333 116.424114 109.480752 115.861534 
C 108.918171 115.298953 108.155041 114.982854 107.359432 114.982854 
C 106.563823 114.982854 105.800692 115.298953 105.238111 115.861534 
C 104.675531 116.424114 104.359432 117.187245 104.359432 117.982854 
C 104.359432 118.778463 104.675531 119.541594 105.238111 120.104174 
C 105.800692 120.666755 106.563823 120.982854 107.359432 120.982854 
z
" style="fill:#f26b38;stroke:#ffffff;stroke-width:0.48;"/>
    <path clip-path="url(#p5bfcae61b2)" d="M 114.123068 123.017872 
C 114.918677 123.017872 115.681808 122.701773 116.244389 122.139193 
C 116.806969 121.576612 117.123068 120.813482 117.123068 120.017872 
C 117.123068 119.222263 116.806969 118.459133 116.244389 117.896552 
C 115.681808 117.333971 114.918677 117.017872 114.123068 117.017872 
C 113.327459 117.017872 112.564329 117.333971 112.001748 117.896552 
C 111.439167 118.459133 111.123068 119.222263 111.123068 120.017872 
C 111.123068 120.813482 111.439167 121.576612 112.001748 122.139193 
C 112.564329 122.701773 113.327459 123.017872 114.123068 123.017872 
z
" style="fill:#f26b38;stroke:#ffffff;stroke-width:0.48;"/>
    <path clip-path="url(#p5bfcae61b2)" d="M 120.886705 121.041771 
C 121.682314 121.041771 122.445444 120.725672 123.008025 120.163091 
C 123.570606 119.60051 123.886705 118.83738 123.886705 118.041771 
C 123.886705 117.246161 123.570606 116.483031 123.008025 115.92045 
C 122.445444 115.35787 121.682314 115.041771 120.886705 115.041771 
C 120.091095 115.041771 119.327965 115.35787 118.765384 115.92045 
C 118.202803 116.483031 117.886705 117.246161 117.886705 118.041771 
C 117.886705 118.83738 118.202803 119.60051 118.765384 120.163091 
C 119.327965 120.725672 120.091095 121.041771 120.886705 121.041771 
z
" style="fill:#f26b38;stroke:#ffffff;stroke-width:0.48;"/>
    <path clip-path="url(#p5bfcae61b2)" d="M 127.650341 146.847332 
C 128.44595 146.847332 129.209081 146.531233 129.771661 145.968652 
C 130.334242 145.406072 130.650341 144.642941 130.650341 143.847332 
C 130.650341 143.051723 130.334242 142.288593 129.771661 141.726012 
C 129.209081 141.163431 128.44595 140.847332 127.650341 140.847332 
C 126.854732 140.847332 126.091601 141.163431 125.529021 141.726012 
C 124.96644 142.288593 124.650341 143.051723 124.650341 143.847332 
C 124.650341 144.642941 124.96644 145.406072 125.529021 145.968652 
C 126.091601 146.531233 126.854732 146.847332 127.650341 146.847332 
z
" style="fill:#f26b38;stroke:#ffffff;stroke-width:0.48;"/>
    <path clip-path="url(#p5bfcae61b2)" d="M 134.413977 161.303225 
C 135.209587 161.303225 135.972717 160.987126 136.535298 160.424546 
C 137.097878 159.861965 137.413977 159.098835 137.413977 158.303225 
C 137.413977 157.507616 137.097878 156.744486 136.535298 156.181905 
C 135.972717 155.619324 135.209587 155.303225 134.413977 155.303225 
C 133.618368 155.303225 132.855238 155.619324 132.292657 156.181905 
C 131.730076 156.744486 131.413977 157.507616 131.413977 158.303225 
C 131.413977 159.098835 131.730076 159.861965 132.292657 160.424546 
C 132.855238 160.987126 133.618368 161.303225 134.413977 161.303225 
z
" style="fill:#f26b38;stroke:#ffffff;stroke-width:0.48;"/>
    <path clip-path="url(#p5bfcae61b2)" d="M 141.177614 189.36034 
C 141.973223 189.36034 142.736353 189.044241 143.298934 188.481661 
C 143.861515 187.91908 144.177614 187.15595 144.177614 186.36034 
C 144.177614 185.564731 143.861515 184.801601 143.298934 184.23902 
C 142.736353 183.676439 141.973223 183.36034 141.177614 183.36034 
C 140.382004 183.36034 139.618874 183.676439 139.056293 184.23902 
C 138.493713 184.801601 138.177614 185.564731 138.177614 186.36034 
C 138.177614 187.15595 138.493713 187.91908 139.056293 188.481661 
C 139.618874 189.044241 140.382004 189.36034 141.177614 189.36034 
z
" style="fill:#f26b38;stroke:#ffffff;stroke-width:0.48;"/>
    <path clip-path="url(#p5bfcae61b2)" d="M 147.94125 178.804852 
C 148.736859 178.804852 149.49999 178.488753 150.06257 177.926173 
C 150.625151 177.363592 150.94125 176.600462 150.94125 175.804852 
C 150.94125 175.009243 150.625151 174.246113 150.06257 173.683532 
C 149.49999 173.120951 148.736859 172.804852 147.94125 172.804852 
C 147.145641 172.804852 146.38251 173.120951 145.81993 173.683532 
C 145.257349 174.246113 144.94125 175.009243 144.94125 175.804852 
C 144.94125 176.600462 145.257349 177.363592 145.81993 177.926173 
C 146.38251 178.488753 147.145641 178.804852 147.94125 178.804852 
z
" style="fill:#f26b38;stroke:#ffffff;stroke-width:0.48;"/>
    <path clip-path="url(#p5bfcae61b2)" d="M 154.704886 196.175247 
C 155.500496 196.175247 156.263626 195.859148 156.826207 195.296567 
C 157.388787 194.733986 157.704886 193.970856 157.704886 193.175247 
C 157.704886 192.379638 157.388787 191.616507 156.826207 191.053927 
C 156.263626 190.491346 155.500496 190.175247 154.704886 190.175247 
C 153.909277 190.175247 153.146147 190.491346 152.583566 191.053927 
C 152.020985 191.616507 151.704886 192.379638 151.704886 193.175247 
C 151.704886 193.970856 152.020985 194.733986 152.583566 195.296567 
C 153.146147 195.859148 153.909277 196.175247 154.704886 196.175247 
z
" style="fill:#f26b38;stroke:#ffffff;stroke-width:0.48;"/>
    <path clip-path="url(#p5bfcae61b2)" d="M 161.468523 196.175247 
C 162.264132 196.175247 163.027262 195.859148 163.589843 195.296567 
C 164.152424 194.733986 164.468523 193.970856 164.468523 193.175247 
C 164.468523 192.379638 164.152424 191.616507 163.589843 191.053927 
C 163.027262 190.491346 162.264132 190.175247 161.468523 190.175247 
C 160.672913 190.175247 159.909783 190.491346 159.347202 191.053927 
C 158.784622 191.616507 158.468523 192.379638 158.468523 193.175247 
C 158.468523 193.970856 158.784622 194.733986 159.347202 195.296567 
C 159.909783 195.859148 160.672913 196.175247 161.468523 196.175247 
z
" style="fill:#f26b38;stroke:#ffffff;stroke-width:0.48;"/>
    <path clip-path="url(#p5bfcae61b2)" d="M 168.232159 196.175247 
C 169.027768 196.175247 169.790899 195.859148 170.353479 195.296567 
C 170.91606 194.733986 171.232159 193.970856 171.232159 193.175247 
C 171.232159 192.379638 170.91606 191.616507 170.353479 191.053927 
C 169.790899 190.491346 169.027768 190.175247 168.232159 190.175247 
C 167.43655 190.175247 166.673419 190.491346 166.110839 191.053927 
C 165.548258 191.616507 165.232159 192.379638 165.232159 193.175247 
C 165.232159 193.970856 165.548258 194.733986 166.110839 195.296567 
C 166.673419 195.859148 167.43655 196.175247 168.232159 196.175247 
z
" style="fill:#f26b38;stroke:#ffffff;stroke-width:0.48;"/>
    <path clip-path="url(#p5bfcae61b2)" d="M 174.995795 196.175247 
C 175.791405 196.175247 176.554535 195.859148 177.117116 195.296567 
C 177.679697 194.733986 177.995795 193.970856 177.995795 193.175247 
C 177.995795 192.379638 177.679697 191.616507 177.117116 191.053927 
C 176.554535 190.491346 175.791405 190.175247 174.995795 190.175247 
C 174.200186 190.175247 173.437056 190.491346 172.874475 191.053927 
C 172.311894 191.616507 171.995795 192.379638 171.995795 193.175247 
C 171.995795 193.970856 172.311894 194.733986 172.874475 195.296567 
C 173.437056 195.859148 174.200186 196.175247 174.995795 196.175247 
z
" style="fill:#f26b38;stroke:#ffffff;stroke-width:0.48;"/>
    <path clip-path="url(#p5bfcae61b2)" d="M 181.759432 197.094746 
C 182.555041 197.094746 183.318171 196.778647 183.880752 196.216067 
C 184.443333 195.653486 184.759432 194.890356 184.759432 194.094746 
C 184.759432 193.299137 184.443333 192.536007 183.880752 191.973426 
C 183.318171 191.410845 182.555041 191.094746 181.759432 191.094746 
C 180.963823 191.094746 180.200692 191.410845 179.638111 191.973426 
C 179.075531 192.536007 178.759432 193.299137 178.759432 194.094746 
C 178.759432 194.890356 179.075531 195.653486 179.638111 196.216067 
C 180.200692 196.778647 180.963823 197.094746 181.759432 197.094746 
z
" style="fill:#f26b38;stroke:#ffffff;stroke-width:0.48;"/>
    <path clip-path="url(#p5bfcae61b2)" d="M 188.523068 197.992089 
C 189.318677 197.992089 190.081808 197.67599 190.644389 197.11341 
C 191.206969 196.550829 191.523068 195.787699 191.523068 194.992089 
C 191.523068 194.19648 191.206969 193.43335 190.644389 192.870769 
C 190.081808 192.308188 189.318677 191.992089 188.523068 191.992089 
C 187.727459 191.992089 186.964329 192.308188 186.401748 192.870769 
C 185.839167 193.43335 185.523068 194.19648 185.523068 194.992089 
C 185.523068 195.787699 185.839167 196.550829 186.401748 197.11341 
C 186.964329 197.67599 187.727459 197.992089 188.523068 197.992089 
z
" style="fill:#f26b38;stroke:#ffffff;stroke-width:0.48;"/>
    <path clip-path="url(#p5bfcae61b2)" d="M 195.286705 197.992089 
C 196.082314 197.992089 196.845444 197.67599 197.408025 197.11341 
C 197.970606 196.550829 198.286705 195.787699 198.286705 194.992089 
C 198.286705 194.19648 197.970606 193.43335 197.408025 192.870769 
C 196.845444 192.308188 196.082314 191.992089 195.286705 191.992089 
C 194.491095 191.992089 193.727965 192.308188 193.165384 192.870769 
C 192.602803 193.43335 192.286705 194.19648 192.286705 194.992089 
C 192.286705 195.787699 192.602803 196.550829 193.165384 197.11341 
C 193.727965 197.67599 194.491095 197.992089 195.286705 197.992089 
z
" style="fill:#f26b38;stroke:#ffffff;stroke-width:0.48;"/>
    <path clip-path="url(#p5bfcae61b2)" d="M 202.050341 197.992089 
C 202.84595 197.992089 203.609081 197.67599 204.171661 197.11341 
C 204.734242 196.550829 205.050341 195.787699 205.050341 194.992089 
C 205.050341 194.19648 204.734242 193.43335 204.171661 192.870769 
C 203.609081 192.308188 202.84595 191.992089 202.050341 191.992089 
C 201.254732 191.992089 200.491601 192.308188 199.929021 192.870769 
C 199.36644 193.43335 199.050341 194.19648 199.050341 194.992089 
C 199.050341 195.787699 199.36644 196.550829 199.929021 197.11341 
C 200.491601 197.67599 201.254732 197.992089 202.050341 197.992089 
z
" style="fill:#f26b38;stroke:#ffffff;stroke-width:0.48;"/>
    <path clip-path="url(#p5bfcae61b2)" d="M 208.813977 197.992089 
C 209.609587 197.992089 210.372717 197.67599 210.935298 197.11341 
C 211.497878 196.550829 211.813977 195.787699 211.813977 194.992089 
C 211.813977 194.19648 211.497878 193.43335 210.935298 192.870769 
C 210.372717 192.308188 209.609587 191.992089 208.813977 191.992089 
C 208.018368 191.992089 207.255238 192.308188 206.692657 192.870769 
C 206.130076 193.43335 205.813977 194.19648 205.813977 194.992089 
C 205.813977 195.787699 206.130076 196.550829 206.692657 197.11341 
C 207.255238 197.67599 208.018368 197.992089 208.813977 197.992089 
z
" style="fill:#f26b38;stroke:#ffffff;stroke-width:0.48;"/>
    <path clip-path="url(#p5bfcae61b2)" d="M 215.577614 194.312983 
C 216.373223 194.312983 217.136353 193.996884 217.698934 193.434304 
C 218.261515 192.871723 218.577614 192.108593 218.577614 191.312983 
C 218.577614 190.517374 218.261515 189.754244 217.698934 189.191663 
C 217.136353 188.629082 216.373223 188.312983 215.577614 188.312983 
C 214.782004 188.312983 214.018874 188.629082 213.456293 189.191663 
C 212.893713 189.754244 212.577614 190.517374 212.577614 191.312983 
C 212.577614 192.108593 212.893713 192.871723 213.456293 193.434304 
C 214.018874 193.996884 214.782004 194.312983 215.577614 194.312983 
z
" style="fill:#f26b38;stroke:#ffffff;stroke-width:0.48;"/>
    <path clip-path="url(#p5bfcae61b2)" d="M 222.34125 231.104045 
C 223.136859 231.104045 223.89999 230.787946 224.46257 230.225365 
C 225.025151 229.662784 225.34125 228.899654 225.34125 228.104045 
C 225.34125 227.308435 225.025151 226.545305 224.46257 225.982724 
C 223.89999 225.420144 223.136859 225.104045 222.34125 225.104045 
C 221.545641 225.104045 220.78251 225.420144 220.21993 225.982724 
C 219.657349 226.545305 219.34125 227.308435 219.34125 228.104045 
C 219.34125 228.899654 219.657349 229.662784 220.21993 230.225365 
C 220.78251 230.787946 221.545641 231.104045 222.34125 231.104045 
z
" style="fill:#f26b38;stroke:#ffffff;stroke-width:0.48;"/>
    <path clip-path="url(#p5bfcae61b2)" d="M 229.104886 264.216 
C 229.900496 264.216 230.663626 263.899901 231.226207 263.33732 
C 231.788787 262.77474 232.104886 262.011609 232.104886 261.216 
C 232.104886 260.420391 231.788787 259.65726 231.226207 259.09468 
C 230.663626 258.532099 229.900496 258.216 229.104886 258.216 
C 228.309277 258.216 227.546147 258.532099 226.983566 259.09468 
C 226.420985 259.65726 226.104886 260.420391 226.104886 261.216 
C 226.104886 262.011609 226.420985 262.77474 226.983566 263.33732 
C 227.546147 263.899901 228.309277 264.216 229.104886 264.216 
z
" style="fill:#f26b38;stroke:#ffffff;stroke-width:0.48;"/>
    <path clip-path="url(#p5bfcae61b2)" d="M 235.868523 264.216 
C 236.664132 264.216 237.427262 263.899901 237.989843 263.33732 
C 238.552424 262.77474 238.868523 262.011609 238.868523 261.216 
C 238.868523 260.420391 238.552424 259.65726 237.989843 259.09468 
C 237.427262 258.532099 236.664132 258.216 235.868523 258.216 
C 235.072913 258.216 234.309783 258.532099 233.747202 259.09468 
C 233.184622 259.65726 232.868523 260.420391 232.868523 261.216 
C 232.868523 262.011609 233.184622 262.77474 233.747202 263.33732 
C 234.309783 263.899901 235.072913 264.216 235.868523 264.216 
z
" style="fill:#f26b38;stroke:#ffffff;stroke-width:0.48;"/>
    <path clip-path="url(#p5bfcae61b2)" d="M 242.632159 264.216 
C 243.427768 264.216 244.190899 263.899901 244.753479 263.33732 
C 245.31606 262.77474 245.632159 262.011609 245.632159 261.216 
C 245.632159 260.420391 245.31606 259.65726 244.753479 259.09468 
C 244.190899 258.532099 243.427768 258.216 242.632159 258.216 
C 241.83655 258.216 241.073419 258.532099 240.510839 259.09468 
C 239.948258 259.65726 239.632159 260.420391 239.632159 261.216 
C 239.632159 262.011609 239.948258 262.77474 240.510839 263.33732 
C 241.073419 263.899901 241.83655 264.216 242.632159 264.216 
z
" style="fill:#f26b38;stroke:#ffffff;stroke-width:0.48;"/>
    <path clip-path="url(#p5bfcae61b2)" d="M 249.395795 264.216 
C 250.191405 264.216 250.954535 263.899901 251.517116 263.33732 
C 252.079697 262.77474 252.395795 262.011609 252.395795 261.216 
C 252.395795 260.420391 252.079697 259.65726 251.517116 259.09468 
C 250.954535 258.532099 250.191405 258.216 249.395795 258.216 
C 248.600186 258.216 247.837056 258.532099 247.274475 259.09468 
C 246.711894 259.65726 246.395795 260.420391 246.395795 261.216 
C 246.395795 262.011609 246.711894 262.77474 247.274475 263.33732 
C 247.837056 263.899901 248.600186 264.216 249.395795 264.216 
z
" style="fill:#f26b38;stroke:#ffffff;stroke-width:0.48;"/>
    <path clip-path="url(#p5bfcae61b2)" d="M 256.159432 264.216 
C 256.955041 264.216 257.718171 263.899901 258.280752 263.33732 
C 258.843333 262.77474 259.159432 262.011609 259.159432 261.216 
C 259.159432 260.420391 258.843333 259.65726 258.280752 259.09468 
C 257.718171 258.532099 256.955041 258.216 256.159432 258.216 
C 255.363823 258.216 254.600692 258.532099 254.038111 259.09468 
C 253.475531 259.65726 253.159432 260.420391 253.159432 261.216 
C 253.159432 262.011609 253.475531 262.77474 254.038111 263.33732 
C 254.600692 263.899901 255.363823 264.216 256.159432 264.216 
z
" style="fill:#f26b38;stroke:#ffffff;stroke-width:0.48;"/>
    <path clip-path="url(#p5bfcae61b2)" d="M 262.923068 264.216 
C 263.718677 264.216 264.481808 263.899901 265.044389 263.33732 
C 265.606969 262.77474 265.923068 262.011609 265.923068 261.216 
C 265.923068 260.420391 265.606969 259.65726 265.044389 259.09468 
C 264.481808 258.532099 263.718677 258.216 262.923068 258.216 
C 262.127459 258.216 261.364329 258.532099 260.801748 259.09468 
C 260.239167 259.65726 259.923068 260.420391 259.923068 261.216 
C 259.923068 262.011609 260.239167 262.77474 260.801748 263.33732 
C 261.364329 263.899901 262.127459 264.216 262.923068 264.216 
z
" style="fill:#f26b38;stroke:#ffffff;stroke-width:0.48;"/>
    <path clip-path="url(#p5bfcae61b2)" d="M 269.686705 264.216 
C 270.482314 264.216 271.245444 263.899901 271.808025 263.33732 
C 272.370606 262.77474 272.686705 262.011609 272.686705 261.216 
C 272.686705 260.420391 272.370606 259.65726 271.808025 259.09468 
C 271.245444 258.532099 270.482314 258.216 269.686705 258.216 
C 268.891095 258.216 268.127965 258.532099 267.565384 259.09468 
C 267.002803 259.65726 266.686705 260.420391 266.686705 261.216 
C 266.686705 262.011609 267.002803 262.77474 267.565384 263.33732 
C 268.127965 263.899901 268.891095 264.216 269.686705 264.216 
z
" style="fill:#f26b38;stroke:#ffffff;stroke-width:0.48;"/>
    <path clip-path="url(#p5bfcae61b2)" d="M 276.450341 264.216 
C 277.24595 264.216 278.009081 263.899901 278.571661 263.33732 
C 279.134242 262.77474 279.450341 262.011609 279.450341 261.216 
C 279.450341 260.420391 279.134242 259.65726 278.571661 259.09468 
C 278.009081 258.532099 277.24595 258.216 276.450341 258.216 
C 275.654732 258.216 274.891601 258.532099 274.329021 259.09468 
C 273.76644 259.65726 273.450341 260.420391 273.450341 261.216 
C 273.450341 262.011609 273.76644 262.77474 274.329021 263.33732 
C 274.891601 263.899901 275.654732 264.216 276.450341 264.216 
z
" style="fill:#f26b38;stroke:#ffffff;stroke-width:0.48;"/>
    <path clip-path="url(#p5bfcae61b2)" d="M 283.213977 264.216 
C 284.009587 264.216 284.772717 263.899901 285.335298 263.33732 
C 285.897878 262.77474 286.213977 262.011609 286.213977 261.216 
C 286.213977 260.420391 285.897878 259.65726 285.335298 259.09468 
C 284.772717 258.532099 284.009587 258.216 283.213977 258.216 
C 282.418368 258.216 281.655238 258.532099 281.092657 259.09468 
C 280.530076 259.65726 280.213977 260.420391 280.213977 261.216 
C 280.213977 262.011609 280.530076 262.77474 281.092657 263.33732 
C 281.655238 263.899901 282.418368 264.216 283.213977 264.216 
z
" style="fill:#f26b38;stroke:#ffffff;stroke-width:0.48;"/>
    <path clip-path="url(#p5bfcae61b2)" d="M 289.977614 264.216 
C 290.773223 264.216 291.536353 263.899901 292.098934 263.33732 
C 292.661515 262.77474 292.977614 262.011609 292.977614 261.216 
C 292.977614 260.420391 292.661515 259.65726 292.098934 259.09468 
C 291.536353 258.532099 290.773223 258.216 289.977614 258.216 
C 289.182004 258.216 288.418874 258.532099 287.856293 259.09468 
C 287.293713 259.65726 286.977614 260.420391 286.977614 261.216 
C 286.977614 262.011609 287.293713 262.77474 287.856293 263.33732 
C 288.418874 263.899901 289.182004 264.216 289.977614 264.216 
z
" style="fill:#f26b38;stroke:#ffffff;stroke-width:0.48;"/>
    <path clip-path="url(#p5bfcae61b2)" d="M 296.74125 264.216 
C 297.536859 264.216 298.29999 263.899901 298.86257 263.33732 
C 299.425151 262.77474 299.74125 262.011609 299.74125 261.216 
C 299.74125 260.420391 299.425151 259.65726 298.86257 259.09468 
C 298.29999 258.532099 297.536859 258.216 296.74125 258.216 
C 295.945641 258.216 295.18251 258.532099 294.61993 259.09468 
C 294.057349 259.65726 293.74125 260.420391 293.74125 261.216 
C 293.74125 262.011609 294.057349 262.77474 294.61993 263.33732 
C 295.18251 263.899901 295.945641 264.216 296.74125 264.216 
z
" style="fill:#f26b38;stroke:#ffffff;stroke-width:0.48;"/>
    <path clip-path="url(#p5bfcae61b2)" d="M 303.504886 264.216 
C 304.300496 264.216 305.063626 263.899901 305.626207 263.33732 
C 306.188787 262.77474 306.504886 262.011609 306.504886 261.216 
C 306.504886 260.420391 306.188787 259.65726 305.626207 259.09468 
C 305.063626 258.532099 304.300496 258.216 303.504886 258.216 
C 302.709277 258.216 301.946147 258.532099 301.383566 259.09468 
C 300.820985 259.65726 300.504886 260.420391 300.504886 261.216 
C 300.504886 262.011609 300.820985 262.77474 301.383566 263.33732 
C 301.946147 263.899901 302.709277 264.216 303.504886 264.216 
z
" style="fill:#f26b38;stroke:#ffffff;stroke-width:0.48;"/>
    <path clip-path="url(#p5bfcae61b2)" d="M 310.268523 264.216 
C 311.064132 264.216 311.827262 263.899901 312.389843 263.33732 
C 312.952424 262.77474 313.268523 262.011609 313.268523 261.216 
C 313.268523 260.420391 312.952424 259.65726 312.389843 259.09468 
C 311.827262 258.532099 311.064132 258.216 310.268523 258.216 
C 309.472913 258.216 308.709783 258.532099 308.147202 259.09468 
C 307.584622 259.65726 307.268523 260.420391 307.268523 261.216 
C 307.268523 262.011609 307.584622 262.77474 308.147202 263.33732 
C 308.709783 263.899901 309.472913 264.216 310.268523 264.216 
z
" style="fill:#f26b38;stroke:#ffffff;stroke-width:0.48;"/>
    <path clip-path="url(#p5bfcae61b2)" d="M 317.032159 264.216 
C 317.827768 264.216 318.590899 263.899901 319.153479 263.33732 
C 319.71606 262.77474 320.032159 262.011609 320.032159 261.216 
C 320.032159 260.420391 319.71606 259.65726 319.153479 259.09468 
C 318.590899 258.532099 317.827768 258.216 317.032159 258.216 
C 316.23655 258.216 315.473419 258.532099 314.910839 259.09468 
C 314.348258 259.65726 314.032159 260.420391 314.032159 261.216 
C 314.032159 262.011609 314.348258 262.77474 314.910839 263.33732 
C 315.473419 263.899901 316.23655 264.216 317.032159 264.216 
z
" style="fill:#f26b38;stroke:#ffffff;stroke-width:0.48;"/>
    <path clip-path="url(#p5bfcae61b2)" d="M 323.795795 264.216 
C 324.591405 264.216 325.354535 263.899901 325.917116 263.33732 
C 326.479697 262.77474 326.795795 262.011609 326.795795 261.216 
C 326.795795 260.420391 326.479697 259.65726 325.917116 259.09468 
C 325.354535 258.532099 324.591405 258.216 323.795795 258.216 
C 323.000186 258.216 322.237056 258.532099 321.674475 259.09468 
C 321.111894 259.65726 320.795795 260.420391 320.795795 261.216 
C 320.795795 262.011609 321.111894 262.77474 321.674475 263.33732 
C 322.237056 263.899901 323.000186 264.216 323.795795 264.216 
z
" style="fill:#f26b38;stroke:#ffffff;stroke-width:0.48;"/>
    <path clip-path="url(#p5bfcae61b2)" d="M 330.559432 264.216 
C 331.355041 264.216 332.118171 263.899901 332.680752 263.33732 
C 333.243333 262.77474 333.559432 262.011609 333.559432 261.216 
C 333.559432 260.420391 333.243333 259.65726 332.680752 259.09468 
C 332.118171 258.532099 331.355041 258.216 330.559432 258.216 
C 329.763823 258.216 329.000692 258.532099 328.438111 259.09468 
C 327.875531 259.65726 327.559432 260.420391 327.559432 261.216 
C 327.559432 262.011609 327.875531 262.77474 328.438111 263.33732 
C 329.000692 263.899901 329.763823 264.216 330.559432 264.216 
z
" style="fill:#f26b38;stroke:#ffffff;stroke-width:0.48;"/>
    <path clip-path="url(#p5bfcae61b2)" d="M 337.323068 264.216 
C 338.118677 264.216 338.881808 263.899901 339.444389 263.33732 
C 340.006969 262.77474 340.323068 262.011609 340.323068 261.216 
C 340.323068 260.420391 340.006969 259.65726 339.444389 259.09468 
C 338.881808 258.532099 338.118677 258.216 337.323068 258.216 
C 336.527459 258.216 335.764329 258.532099 335.201748 259.09468 
C 334.639167 259.65726 334.323068 260.420391 334.323068 261.216 
C 334.323068 262.011609 334.639167 262.77474 335.201748 263.33732 
C 335.764329 263.899901 336.527459 264.216 337.323068 264.216 
z
" style="fill:#f26b38;stroke:#ffffff;stroke-width:0.48;"/>
    <path clip-path="url(#p5bfcae61b2)" d="M 344.086705 264.216 
C 344.882314 264.216 345.645444 263.899901 346.208025 263.33732 
C 346.770606 262.77474 347.086705 262.011609 347.086705 261.216 
C 347.086705 260.420391 346.770606 259.65726 346.208025 259.09468 
C 345.645444 258.532099 344.882314 258.216 344.086705 258.216 
C 343.291095 258.216 342.527965 258.532099 341.965384 259.09468 
C 341.402803 259.65726 341.086705 260.420391 341.086705 261.216 
C 341.086705 262.011609 341.402803 262.77474 341.965384 263.33732 
C 342.527965 263.899901 343.291095 264.216 344.086705 264.216 
z
" style="fill:#f26b38;stroke:#ffffff;stroke-width:0.48;"/>
    <path clip-path="url(#p5bfcae61b2)" d="M 350.850341 264.216 
C 351.64595 264.216 352.409081 263.899901 352.971661 263.33732 
C 353.534242 262.77474 353.850341 262.011609 353.850341 261.216 
C 353.850341 260.420391 353.534242 259.65726 352.971661 259.09468 
C 352.409081 258.532099 351.64595 258.216 350.850341 258.216 
C 350.054732 258.216 349.291601 258.532099 348.729021 259.09468 
C 348.16644 259.65726 347.850341 260.420391 347.850341 261.216 
C 347.850341 262.011609 348.16644 262.77474 348.729021 263.33732 
C 349.291601 263.899901 350.054732 264.216 350.850341 264.216 
z
" style="fill:#f26b38;stroke:#ffffff;stroke-width:0.48;"/>
    <path clip-path="url(#p5bfcae61b2)" d="M 357.613977 264.216 
C 358.409587 264.216 359.172717 263.899901 359.735298 263.33732 
C 360.297878 262.77474 360.613977 262.011609 360.613977 261.216 
C 360.613977 260.420391 360.297878 259.65726 359.735298 259.09468 
C 359.172717 258.532099 358.409587 258.216 357.613977 258.216 
C 356.818368 258.216 356.055238 258.532099 355.492657 259.09468 
C 354.930076 259.65726 354.613977 260.420391 354.613977 261.216 
C 354.613977 262.011609 354.930076 262.77474 355.492657 263.33732 
C 356.055238 263.899901 356.818368 264.216 357.613977 264.216 
z
" style="fill:#f26b38;stroke:#ffffff;stroke-width:0.48;"/>
    <path clip-path="url(#p5bfcae61b2)" d="M 364.377614 264.216 
C 365.173223 264.216 365.936353 263.899901 366.498934 263.33732 
C 367.061515 262.77474 367.377614 262.011609 367.377614 261.216 
C 367.377614 260.420391 367.061515 259.65726 366.498934 259.09468 
C 365.936353 258.532099 365.173223 258.216 364.377614 258.216 
C 363.582004 258.216 362.818874 258.532099 362.256293 259.09468 
C 361.693713 259.65726 361.377614 260.420391 361.377614 261.216 
C 361.377614 262.011609 361.693713 262.77474 362.256293 263.33732 
C 362.818874 263.899901 363.582004 264.216 364.377614 264.216 
z
" style="fill:#f26b38;stroke:#ffffff;stroke-width:0.48;"/>
    <path clip-path="url(#p5bfcae61b2)" d="M 371.14125 264.216 
C 371.936859 264.216 372.69999 263.899901 373.26257 263.33732 
C 373.825151 262.77474 374.14125 262.011609 374.14125 261.216 
C 374.14125 260.420391 373.825151 259.65726 373.26257 259.09468 
C 372.69999 258.532099 371.936859 258.216 371.14125 258.216 
C 370.345641 258.216 369.58251 258.532099 369.01993 259.09468 
C 368.457349 259.65726 368.14125 260.420391 368.14125 261.216 
C 368.14125 262.011609 368.457349 262.77474 369.01993 263.33732 
C 369.58251 263.899901 370.345641 264.216 371.14125 264.216 
z
" style="fill:#f26b38;stroke:#ffffff;stroke-width:0.48;"/>
    <path clip-path="url(#p5bfcae61b2)" d="M 377.904886 264.216 
C 378.700496 264.216 379.463626 263.899901 380.026207 263.33732 
C 380.588787 262.77474 380.904886 262.011609 380.904886 261.216 
C 380.904886 260.420391 380.588787 259.65726 380.026207 259.09468 
C 379.463626 258.532099 378.700496 258.216 377.904886 258.216 
C 377.109277 258.216 376.346147 258.532099 375.783566 259.09468 
C 375.220985 259.65726 374.904886 260.420391 374.904886 261.216 
C 374.904886 262.011609 375.220985 262.77474 375.783566 263.33732 
C 376.346147 263.899901 377.109277 264.216 377.904886 264.216 
z
" style="fill:#f26b38;stroke:#ffffff;stroke-width:0.48;"/>
    <path clip-path="url(#p5bfcae61b2)" d="M 384.668523 264.216 
C 385.464132 264.216 386.227262 263.899901 386.789843 263.33732 
C 387.352424 262.77474 387.668523 262.011609 387.668523 261.216 
C 387.668523 260.420391 387.352424 259.65726 386.789843 259.09468 
C 386.227262 258.532099 385.464132 258.216 384.668523 258.216 
C 383.872913 258.216 383.109783 258.532099 382.547202 259.09468 
C 381.984622 259.65726 381.668523 260.420391 381.668523 261.216 
C 381.668523 262.011609 381.984622 262.77474 382.547202 263.33732 
C 383.109783 263.899901 383.872913 264.216 384.668523 264.216 
z
" style="fill:#f26b38;stroke:#ffffff;stroke-width:0.48;"/>
    <path clip-path="url(#p5bfcae61b2)" d="M 58.513977 105.419286 
L 60.013977 103.919286 
L 61.513977 105.419286 
L 63.013977 103.919286 
L 61.513977 102.419286 
L 63.013977 100.919286 
L 61.513977 99.419286 
L 60.013977 100.919286 
L 58.513977 99.419286 
L 57.013977 100.919286 
L 58.513977 102.419286 
L 57.013977 103.919286 
z
" style="fill:#2f9599;stroke:#ffffff;stroke-width:0.48;"/>
    <path clip-path="url(#p5bfcae61b2)" d="M 65.277614 123.017872 
L 66.777614 121.517872 
L 68.277614 123.017872 
L 69.777614 121.517872 
L 68.277614 120.017872 
L 69.777614 118.517872 
L 68.277614 117.017872 
L 66.777614 118.517872 
L 65.277614 117.017872 
L 63.777614 118.517872 
L 65.277614 120.017872 
L 63.777614 121.517872 
z
" style="fill:#2f9599;stroke:#ffffff;stroke-width:0.48;"/>
    <path clip-path="url(#p5bfcae61b2)" d="M 72.04125 146.847332 
L 73.54125 145.347332 
L 75.04125 146.847332 
L 76.54125 145.347332 
L 75.04125 143.847332 
L 76.54125 142.347332 
L 75.04125 140.847332 
L 73.54125 142.347332 
L 72.04125 140.847332 
L 70.54125 142.347332 
L 72.04125 143.847332 
L 70.54125 145.347332 
z
" style="fill:#2f9599;stroke:#ffffff;stroke-width:0.48;"/>
    <path clip-path="url(#p5bfcae61b2)" d="M 78.804886 174.026801 
L 80.304886 172.526801 
L 81.804886 174.026801 
L 83.304886 172.526801 
L 81.804886 171.026801 
L 83.304886 169.526801 
L 81.804886 168.026801 
L 80.304886 169.526801 
L 78.804886 168.026801 
L 77.304886 169.526801 
L 78.804886 171.026801 
L 77.304886 172.526801 
z
" style="fill:#2f9599;stroke:#ffffff;stroke-width:0.48;"/>
    <path clip-path="url(#p5bfcae61b2)" d="M 85.568523 177.615502 
L 87.068523 176.115502 
L 88.568523 177.615502 
L 90.068523 176.115502 
L 88.568523 174.615502 
L 90.068523 173.115502 
L 88.568523 171.615502 
L 87.068523 173.115502 
L 85.568523 171.615502 
L 84.068523 173.115502 
L 85.568523 174.615502 
L 84.068523 176.115502 
z
" style="fill:#2f9599;stroke:#ffffff;stroke-width:0.48;"/>
    <path clip-path="url(#p5bfcae61b2)" d="M 92.332159 196.175247 
L 93.832159 194.675247 
L 95.332159 196.175247 
L 96.832159 194.675247 
L 95.332159 193.175247 
L 96.832159 191.675247 
L 95.332159 190.175247 
L 93.832159 191.675247 
L 92.332159 190.175247 
L 90.832159 191.675247 
L 92.332159 193.175247 
L 90.832159 194.675247 
z
" style="fill:#2f9599;stroke:#ffffff;stroke-width:0.48;"/>
    <path clip-path="url(#p5bfcae61b2)" d="M 99.095795 196.175247 
L 100.595795 194.675247 
L 102.095795 196.175247 
L 103.595795 194.675247 
L 102.095795 193.175247 
L 103.595795 191.675247 
L 102.095795 190.175247 
L 100.595795 191.675247 
L 99.095795 190.175247 
L 97.595795 191.675247 
L 99.095795 193.175247 
L 97.595795 194.675247 
z
" style="fill:#2f9599;stroke:#ffffff;stroke-width:0.48;"/>
    <path clip-path="url(#p5bfcae61b2)" d="M 105.859432 196.175247 
L 107.359432 194.675247 
L 108.859432 196.175247 
L 110.359432 194.675247 
L 108.859432 193.175247 
L 110.359432 191.675247 
L 108.859432 190.175247 
L 107.359432 191.675247 
L 105.859432 190.175247 
L 104.359432 191.675247 
L 105.859432 193.175247 
L 104.359432 194.675247 
z
" style="fill:#2f9599;stroke:#ffffff;stroke-width:0.48;"/>
    <path clip-path="url(#p5bfcae61b2)" d="M 112.623068 196.175247 
L 114.123068 194.675247 
L 115.623068 196.175247 
L 117.123068 194.675247 
L 115.623068 193.175247 
L 117.123068 191.675247 
L 115.623068 190.175247 
L 114.123068 191.675247 
L 112.623068 190.175247 
L 111.123068 191.675247 
L 112.623068 193.175247 
L 111.123068 194.675247 
z
" style="fill:#2f9599;stroke:#ffffff;stroke-width:0.48;"/>
    <path clip-path="url(#p5bfcae61b2)" d="M 119.386705 185.922827 
L 120.886705 184.422827 
L 122.386705 185.922827 
L 123.886705 184.422827 
L 122.386705 182.922827 
L 123.886705 181.422827 
L 122.386705 179.922827 
L 120.886705 181.422827 
L 119.386705 179.922827 
L 117.886705 181.422827 
L 119.386705 182.922827 
L 117.886705 184.422827 
z
" style="fill:#2f9599;stroke:#ffffff;stroke-width:0.48;"/>
    <path clip-path="url(#p5bfcae61b2)" d="M 126.150341 171.026933 
L 127.650341 169.526933 
L 129.150341 171.026933 
L 130.650341 169.526933 
L 129.150341 168.026933 
L 130.650341 166.526933 
L 129.150341 165.026933 
L 127.650341 166.526933 
L 126.150341 165.026933 
L 124.650341 166.526933 
L 126.150341 168.026933 
L 124.650341 169.526933 
z
" style="fill:#2f9599;stroke:#ffffff;stroke-width:0.48;"/>
    <path clip-path="url(#p5bfcae61b2)" d="M 132.913977 216.38762 
L 134.413977 214.88762 
L 135.913977 216.38762 
L 137.413977 214.88762 
L 135.913977 213.38762 
L 137.413977 211.88762 
L 135.913977 210.38762 
L 134.413977 211.88762 
L 132.913977 210.38762 
L 131.413977 211.88762 
L 132.913977 213.38762 
L 131.413977 214.88762 
z
" style="fill:#2f9599;stroke:#ffffff;stroke-width:0.48;"/>
    <path clip-path="url(#p5bfcae61b2)" d="M 139.677614 216.38762 
L 141.177614 214.88762 
L 142.677614 216.38762 
L 144.177614 214.88762 
L 142.677614 213.38762 
L 144.177614 211.88762 
L 142.677614 210.38762 
L 141.177614 211.88762 
L 139.677614 210.38762 
L 138.177614 211.88762 
L 139.677614 213.38762 
L 138.177614 214.88762 
z
" style="fill:#2f9599;stroke:#ffffff;stroke-width:0.48;"/>
    <path clip-path="url(#p5bfcae61b2)" d="M 146.44125 216.38762 
L 147.94125 214.88762 
L 149.44125 216.38762 
L 150.94125 214.88762 
L 149.44125 213.38762 
L 150.94125 211.88762 
L 149.44125 210.38762 
L 147.94125 211.88762 
L 146.44125 210.38762 
L 144.94125 211.88762 
L 146.44125 213.38762 
L 144.94125 214.88762 
z
" style="fill:#2f9599;stroke:#ffffff;stroke-width:0.48;"/>
    <path clip-path="url(#p5bfcae61b2)" d="M 153.204886 216.38762 
L 154.704886 214.88762 
L 156.204886 216.38762 
L 157.704886 214.88762 
L 156.204886 213.38762 
L 157.704886 211.88762 
L 156.204886 210.38762 
L 154.704886 211.88762 
L 153.204886 210.38762 
L 151.704886 211.88762 
L 153.204886 213.38762 
L 151.704886 214.88762 
z
" style="fill:#2f9599;stroke:#ffffff;stroke-width:0.48;"/>
    <path clip-path="url(#p5bfcae61b2)" d="M 159.968523 212.708514 
L 161.468523 211.208514 
L 162.968523 212.708514 
L 164.468523 211.208514 
L 162.968523 209.708514 
L 164.468523 208.208514 
L 162.968523 206.708514 
L 161.468523 208.208514 
L 159.968523 206.708514 
L 158.468523 208.208514 
L 159.968523 209.708514 
L 158.468523 211.208514 
z
" style="fill:#2f9599;stroke:#ffffff;stroke-width:0.48;"/>
    <path clip-path="url(#p5bfcae61b2)" d="M 166.732159 264.216 
L 168.232159 262.716 
L 169.732159 264.216 
L 171.232159 262.716 
L 169.732159 261.216 
L 171.232159 259.716 
L 169.732159 258.216 
L 168.232159 259.716 
L 166.732159 258.216 
L 165.232159 259.716 
L 166.732159 261.216 
L 165.232159 262.716 
z
" style="fill:#2f9599;stroke:#ffffff;stroke-width:0.48;"/>
    <path clip-path="url(#p5bfcae61b2)" d="M 173.495795 264.216 
L 174.995795 262.716 
L 176.495795 264.216 
L 177.995795 262.716 
L 176.495795 261.216 
L 177.995795 259.716 
L 176.495795 258.216 
L 174.995795 259.716 
L 173.495795 258.216 
L 171.995795 259.716 
L 173.495795 261.216 
L 171.995795 262.716 
z
" style="fill:#2f9599;stroke:#ffffff;stroke-width:0.48;"/>
    <path clip-path="url(#p5bfcae61b2)" d="M 180.259432 264.216 
L 181.759432 262.716 
L 183.259432 264.216 
L 184.759432 262.716 
L 183.259432 261.216 
L 184.759432 259.716 
L 183.259432 258.216 
L 181.759432 259.716 
L 180.259432 258.216 
L 178.759432 259.716 
L 180.259432 261.216 
L 178.759432 262.716 
z
" style="fill:#2f9599;stroke:#ffffff;stroke-width:0.48;"/>
    <path clip-path="url(#p5bfcae61b2)" d="M 187.023068 264.216 
L 188.523068 262.716 
L 190.023068 264.216 
L 191.523068 262.716 
L 190.023068 261.216 
L 191.523068 259.716 
L 190.023068 258.216 
L 188.523068 259.716 
L 187.023068 258.216 
L 185.523068 259.716 
L 187.023068 261.216 
L 185.523068 262.716 
z
" style="fill:#2f9599;stroke:#ffffff;stroke-width:0.48;"/>
    <path clip-path="url(#p5bfcae61b2)" d="M 193.786705 264.216 
L 195.286705 262.716 
L 196.786705 264.216 
L 198.286705 262.716 
L 196.786705 261.216 
L 198.286705 259.716 
L 196.786705 258.216 
L 195.286705 259.716 
L 193.786705 258.216 
L 192.286705 259.716 
L 193.786705 261.216 
L 192.286705 262.716 
z
" style="fill:#2f9599;stroke:#ffffff;stroke-width:0.48;"/>
    <path clip-path="url(#p5bfcae61b2)" d="M 200.550341 264.216 
L 202.050341 262.716 
L 203.550341 264.216 
L 205.050341 262.716 
L 203.550341 261.216 
L 205.050341 259.716 
L 203.550341 258.216 
L 202.050341 259.716 
L 200.550341 258.216 
L 199.050341 259.716 
L 200.550341 261.216 
L 199.050341 262.716 
z
" style="fill:#2f9599;stroke:#ffffff;stroke-width:0.48;"/>
    <path clip-path="url(#p5bfcae61b2)" d="M 207.313977 264.216 
L 208.813977 262.716 
L 210.313977 264.216 
L 211.813977 262.716 
L 210.313977 261.216 
L 211.813977 259.716 
L 210.313977 258.216 
L 208.813977 259.716 
L 207.313977 258.216 
L 205.813977 259.716 
L 207.313977 261.216 
L 205.813977 262.716 
z
" style="fill:#2f9599;stroke:#ffffff;stroke-width:0.48;"/>
    <path clip-path="url(#p5bfcae61b2)" d="M 214.077614 264.216 
L 215.577614 262.716 
L 217.077614 264.216 
L 218.577614 262.716 
L 217.077614 261.216 
L 218.577614 259.716 
L 217.077614 258.216 
L 215.577614 259.716 
L 214.077614 258.216 
L 212.577614 259.716 
L 214.077614 261.216 
L 212.577614 262.716 
z
" style="fill:#2f9599;stroke:#ffffff;stroke-width:0.48;"/>
    <path clip-path="url(#p5bfcae61b2)" d="M 220.84125 264.216 
L 222.34125 262.716 
L 223.84125 264.216 
L 225.34125 262.716 
L 223.84125 261.216 
L 225.34125 259.716 
L 223.84125 258.216 
L 222.34125 259.716 
L 220.84125 258.216 
L 219.34125 259.716 
L 220.84125 261.216 
L 219.34125 262.716 
z
" style="fill:#2f9599;stroke:#ffffff;stroke-width:0.48;"/>
    <path clip-path="url(#p5bfcae61b2)" d="M 227.604886 264.216 
L 229.104886 262.716 
L 230.604886 264.216 
L 232.104886 262.716 
L 230.604886 261.216 
L 232.104886 259.716 
L 230.604886 258.216 
L 229.104886 259.716 
L 227.604886 258.216 
L 226.104886 259.716 
L 227.604886 261.216 
L 226.104886 262.716 
z
" style="fill:#2f9599;stroke:#ffffff;stroke-width:0.48;"/>
    <path clip-path="url(#p5bfcae61b2)" d="M 234.368523 264.216 
L 235.868523 262.716 
L 237.368523 264.216 
L 238.868523 262.716 
L 237.368523 261.216 
L 238.868523 259.716 
L 237.368523 258.216 
L 235.868523 259.716 
L 234.368523 258.216 
L 232.868523 259.716 
L 234.368523 261.216 
L 232.868523 262.716 
z
" style="fill:#2f9599;stroke:#ffffff;stroke-width:0.48;"/>
    <path clip-path="url(#p5bfcae61b2)" d="M 241.132159 264.216 
L 242.632159 262.716 
L 244.132159 264.216 
L 245.632159 262.716 
L 244.132159 261.216 
L 245.632159 259.716 
L 244.132159 258.216 
L 242.632159 259.716 
L 241.132159 258.216 
L 239.632159 259.716 
L 241.132159 261.216 
L 239.632159 262.716 
z
" style="fill:#2f9599;stroke:#ffffff;stroke-width:0.48;"/>
    <path clip-path="url(#p5bfcae61b2)" d="M 247.895795 264.216 
L 249.395795 262.716 
L 250.895795 264.216 
L 252.395795 262.716 
L 250.895795 261.216 
L 252.395795 259.716 
L 250.895795 258.216 
L 249.395795 259.716 
L 247.895795 258.216 
L 246.395795 259.716 
L 247.895795 261.216 
L 246.395795 262.716 
z
" style="fill:#2f9599;stroke:#ffffff;stroke-width:0.48;"/>
    <path clip-path="url(#p5bfcae61b2)" d="M 254.659432 264.216 
L 256.159432 262.716 
L 257.659432 264.216 
L 259.159432 262.716 
L 257.659432 261.216 
L 259.159432 259.716 
L 257.659432 258.216 
L 256.159432 259.716 
L 254.659432 258.216 
L 253.159432 259.716 
L 254.659432 261.216 
L 253.159432 262.716 
z
" style="fill:#2f9599;stroke:#ffffff;stroke-width:0.48;"/>
    <path clip-path="url(#p5bfcae61b2)" d="M 261.423068 264.216 
L 262.923068 262.716 
L 264.423068 264.216 
L 265.923068 262.716 
L 264.423068 261.216 
L 265.923068 259.716 
L 264.423068 258.216 
L 262.923068 259.716 
L 261.423068 258.216 
L 259.923068 259.716 
L 261.423068 261.216 
L 259.923068 262.716 
z
" style="fill:#2f9599;stroke:#ffffff;stroke-width:0.48;"/>
    <path clip-path="url(#p5bfcae61b2)" d="M 268.186705 264.216 
L 269.686705 262.716 
L 271.186705 264.216 
L 272.686705 262.716 
L 271.186705 261.216 
L 272.686705 259.716 
L 271.186705 258.216 
L 269.686705 259.716 
L 268.186705 258.216 
L 266.686705 259.716 
L 268.186705 261.216 
L 266.686705 262.716 
z
" style="fill:#2f9599;stroke:#ffffff;stroke-width:0.48;"/>
    <path clip-path="url(#p5bfcae61b2)" d="M 274.950341 264.216 
L 276.450341 262.716 
L 277.950341 264.216 
L 279.450341 262.716 
L 277.950341 261.216 
L 279.450341 259.716 
L 277.950341 258.216 
L 276.450341 259.716 
L 274.950341 258.216 
L 273.450341 259.716 
L 274.950341 261.216 
L 273.450341 262.716 
z
" style="fill:#2f9599;stroke:#ffffff;stroke-width:0.48;"/>
    <path clip-path="url(#p5bfcae61b2)" d="M 281.713977 264.216 
L 283.213977 262.716 
L 284.713977 264.216 
L 286.213977 262.716 
L 284.713977 261.216 
L 286.213977 259.716 
L 284.713977 258.216 
L 283.213977 259.716 
L 281.713977 258.216 
L 280.213977 259.716 
L 281.713977 261.216 
L 280.213977 262.716 
z
" style="fill:#2f9599;stroke:#ffffff;stroke-width:0.48;"/>
    <path clip-path="url(#p5bfcae61b2)" d="M 288.477614 264.216 
L 289.977614 262.716 
L 291.477614 264.216 
L 292.977614 262.716 
L 291.477614 261.216 
L 292.977614 259.716 
L 291.477614 258.216 
L 289.977614 259.716 
L 288.477614 258.216 
L 286.977614 259.716 
L 288.477614 261.216 
L 286.977614 262.716 
z
" style="fill:#2f9599;stroke:#ffffff;stroke-width:0.48;"/>
    <path clip-path="url(#p5bfcae61b2)" d="M 295.24125 264.216 
L 296.74125 262.716 
L 298.24125 264.216 
L 299.74125 262.716 
L 298.24125 261.216 
L 299.74125 259.716 
L 298.24125 258.216 
L 296.74125 259.716 
L 295.24125 258.216 
L 293.74125 259.716 
L 295.24125 261.216 
L 293.74125 262.716 
z
" style="fill:#2f9599;stroke:#ffffff;stroke-width:0.48;"/>
    <path clip-path="url(#p5bfcae61b2)" d="M 302.004886 264.216 
L 303.504886 262.716 
L 305.004886 264.216 
L 306.504886 262.716 
L 305.004886 261.216 
L 306.504886 259.716 
L 305.004886 258.216 
L 303.504886 259.716 
L 302.004886 258.216 
L 300.504886 259.716 
L 302.004886 261.216 
L 300.504886 262.716 
z
" style="fill:#2f9599;stroke:#ffffff;stroke-width:0.48;"/>
    <path clip-path="url(#p5bfcae61b2)" d="M 308.768523 264.216 
L 310.268523 262.716 
L 311.768523 264.216 
L 313.268523 262.716 
L 311.768523 261.216 
L 313.268523 259.716 
L 311.768523 258.216 
L 310.268523 259.716 
L 308.768523 258.216 
L 307.268523 259.716 
L 308.768523 261.216 
L 307.268523 262.716 
z
" style="fill:#2f9599;stroke:#ffffff;stroke-width:0.48;"/>
    <path clip-path="url(#p5bfcae61b2)" d="M 315.532159 264.216 
L 317.032159 262.716 
L 318.532159 264.216 
L 320.032159 262.716 
L 318.532159 261.216 
L 320.032159 259.716 
L 318.532159 258.216 
L 317.032159 259.716 
L 315.532159 258.216 
L 314.032159 259.716 
L 315.532159 261.216 
L 314.032159 262.716 
z
" style="fill:#2f9599;stroke:#ffffff;stroke-width:0.48;"/>
    <path clip-path="url(#p5bfcae61b2)" d="M 322.295795 264.216 
L 323.795795 262.716 
L 325.295795 264.216 
L 326.795795 262.716 
L 325.295795 261.216 
L 326.795795 259.716 
L 325.295795 258.216 
L 323.795795 259.716 
L 322.295795 258.216 
L 320.795795 259.716 
L 322.295795 261.216 
L 320.795795 262.716 
z
" style="fill:#2f9599;stroke:#ffffff;stroke-width:0.48;"/>
    <path clip-path="url(#p5bfcae61b2)" d="M 329.059432 264.216 
L 330.559432 262.716 
L 332.059432 264.216 
L 333.559432 262.716 
L 332.059432 261.216 
L 333.559432 259.716 
L 332.059432 258.216 
L 330.559432 259.716 
L 329.059432 258.216 
L 327.559432 259.716 
L 329.059432 261.216 
L 327.559432 262.716 
z
" style="fill:#2f9599;stroke:#ffffff;stroke-width:0.48;"/>
    <path clip-path="url(#p5bfcae61b2)" d="M 335.823068 264.216 
L 337.323068 262.716 
L 338.823068 264.216 
L 340.323068 262.716 
L 338.823068 261.216 
L 340.323068 259.716 
L 338.823068 258.216 
L 337.323068 259.716 
L 335.823068 258.216 
L 334.323068 259.716 
L 335.823068 261.216 
L 334.323068 262.716 
z
" style="fill:#2f9599;stroke:#ffffff;stroke-width:0.48;"/>
    <path clip-path="url(#p5bfcae61b2)" d="M 342.586705 264.216 
L 344.086705 262.716 
L 345.586705 264.216 
L 347.086705 262.716 
L 345.586705 261.216 
L 347.086705 259.716 
L 345.586705 258.216 
L 344.086705 259.716 
L 342.586705 258.216 
L 341.086705 259.716 
L 342.586705 261.216 
L 341.086705 262.716 
z
" style="fill:#2f9599;stroke:#ffffff;stroke-width:0.48;"/>
    <path clip-path="url(#p5bfcae61b2)" d="M 349.350341 264.216 
L 350.850341 262.716 
L 352.350341 264.216 
L 353.850341 262.716 
L 352.350341 261.216 
L 353.850341 259.716 
L 352.350341 258.216 
L 350.850341 259.716 
L 349.350341 258.216 
L 347.850341 259.716 
L 349.350341 261.216 
L 347.850341 262.716 
z
" style="fill:#2f9599;stroke:#ffffff;stroke-width:0.48;"/>
    <path clip-path="url(#p5bfcae61b2)" d="M 356.113977 264.216 
L 357.613977 262.716 
L 359.113977 264.216 
L 360.613977 262.716 
L 359.113977 261.216 
L 360.613977 259.716 
L 359.113977 258.216 
L 357.613977 259.716 
L 356.113977 258.216 
L 354.613977 259.716 
L 356.113977 261.216 
L 354.613977 262.716 
z
" style="fill:#2f9599;stroke:#ffffff;stroke-width:0.48;"/>
    <path clip-path="url(#p5bfcae61b2)" d="M 362.877614 264.216 
L 364.377614 262.716 
L 365.877614 264.216 
L 367.377614 262.716 
L 365.877614 261.216 
L 367.377614 259.716 
L 365.877614 258.216 
L 364.377614 259.716 
L 362.877614 258.216 
L 361.377614 259.716 
L 362.877614 261.216 
L 361.377614 262.716 
z
" style="fill:#2f9599;stroke:#ffffff;stroke-width:0.48;"/>
    <path clip-path="url(#p5bfcae61b2)" d="M 369.64125 264.216 
L 371.14125 262.716 
L 372.64125 264.216 
L 374.14125 262.716 
L 372.64125 261.216 
L 374.14125 259.716 
L 372.64125 258.216 
L 371.14125 259.716 
L 369.64125 258.216 
L 368.14125 259.716 
L 369.64125 261.216 
L 368.14125 262.716 
z
" style="fill:#2f9599;stroke:#ffffff;stroke-width:0.48;"/>
    <path clip-path="url(#p5bfcae61b2)" d="M 376.404886 264.216 
L 377.904886 262.716 
L 379.404886 264.216 
L 380.904886 262.716 
L 379.404886 261.216 
L 380.904886 259.716 
L 379.404886 258.216 
L 377.904886 259.716 
L 376.404886 258.216 
L 374.904886 259.716 
L 376.404886 261.216 
L 374.904886 262.716 
z
" style="fill:#2f9599;stroke:#ffffff;stroke-width:0.48;"/>
    <path clip-path="url(#p5bfcae61b2)" d="M 383.168523 264.216 
L 384.668523 262.716 
L 386.168523 264.216 
L 387.668523 262.716 
L 386.168523 261.216 
L 387.668523 259.716 
L 386.168523 258.216 
L 384.668523 259.716 
L 383.168523 258.216 
L 381.668523 259.716 
L 383.168523 261.216 
L 381.668523 262.716 
z
" style="fill:#2f9599;stroke:#ffffff;stroke-width:0.48;"/>
    <path clip-path="url(#p5bfcae61b2)" d="M 57.892657 17.17468 
L 57.892657 21.41732 
L 62.135298 21.41732 
L 62.135298 17.17468 
z
" style="fill:#a7226e;stroke:#ffffff;stroke-width:0.48;"/>
    <path clip-path="url(#p5bfcae61b2)" d="M 64.656293 17.17468 
L 64.656293 21.41732 
L 68.898934 21.41732 
L 68.898934 17.17468 
z
" style="fill:#a7226e;stroke:#ffffff;stroke-width:0.48;"/>
    <path clip-path="url(#p5bfcae61b2)" d="M 71.41993 17.17468 
L 71.41993 21.41732 
L 75.66257 21.41732 
L 75.66257 17.17468 
z
" style="fill:#a7226e;stroke:#ffffff;stroke-width:0.48;"/>
    <path clip-path="url(#p5bfcae61b2)" d="M 78.183566 17.17468 
L 78.183566 21.41732 
L 82.426207 21.41732 
L 82.426207 17.17468 
z
" style="fill:#a7226e;stroke:#ffffff;stroke-width:0.48;"/>
    <path clip-path="url(#p5bfcae61b2)" d="M 84.947202 23.406635 
L 84.947202 27.649276 
L 89.189843 27.649276 
L 89.189843 23.406635 
z
" style="fill:#a7226e;stroke:#ffffff;stroke-width:0.48;"/>
    <path clip-path="url(#p5bfcae61b2)" d="M 91.710839 29.63859 
L 91.710839 33.881231 
L 95.953479 33.881231 
L 95.953479 29.63859 
z
" style="fill:#a7226e;stroke:#ffffff;stroke-width:0.48;"/>
    <path clip-path="url(#p5bfcae61b2)" d="M 98.474475 29.63859 
L 98.474475 33.881231 
L 102.717116 33.881231 
L 102.717116 29.63859 
z
" style="fill:#a7226e;stroke:#ffffff;stroke-width:0.48;"/>
    <path clip-path="url(#p5bfcae61b2)" d="M 105.238111 40.482193 
L 105.238111 44.724833 
L 109.480752 44.724833 
L 109.480752 40.482193 
z
" style="fill:#a7226e;stroke:#ffffff;stroke-width:0.48;"/>
    <path clip-path="url(#p5bfcae61b2)" d="M 112.001748 44.912991 
L 112.001748 49.155631 
L 116.244389 49.155631 
L 116.244389 44.912991 
z
" style="fill:#a7226e;stroke:#ffffff;stroke-width:0.48;"/>
    <path clip-path="url(#p5bfcae61b2)" d="M 118.765384 43.300954 
L 118.765384 47.543595 
L 123.008025 47.543595 
L 123.008025 43.300954 
z
" style="fill:#a7226e;stroke:#ffffff;stroke-width:0.48;"/>
    <path clip-path="url(#p5bfcae61b2)" d="M 125.529021 43.300954 
L 125.529021 47.543595 
L 129.771661 47.543595 
L 129.771661 43.300954 
z
" style="fill:#a7226e;stroke:#ffffff;stroke-width:0.48;"/>
    <path clip-path="url(#p5bfcae61b2)" d="M 132.292657 53.272987 
L 132.292657 57.515628 
L 136.535298 57.515628 
L 136.535298 53.272987 
z
" style="fill:#a7226e;stroke:#ffffff;stroke-width:0.48;"/>
    <path clip-path="url(#p5bfcae61b2)" d="M 139.056293 64.693339 
L 139.056293 68.93598 
L 143.298934 68.93598 
L 143.298934 64.693339 
z
" style="fill:#a7226e;stroke:#ffffff;stroke-width:0.48;"/>
    <path clip-path="url(#p5bfcae61b2)" d="M 145.81993 74.952299 
L 145.81993 79.19494 
L 150.06257 79.19494 
L 150.06257 74.952299 
z
" style="fill:#a7226e;stroke:#ffffff;stroke-width:0.48;"/>
    <path clip-path="url(#p5bfcae61b2)" d="M 152.583566 100.682881 
L 152.583566 104.925521 
L 156.826207 104.925521 
L 156.826207 100.682881 
z
" style="fill:#a7226e;stroke:#ffffff;stroke-width:0.48;"/>
    <path clip-path="url(#p5bfcae61b2)" d="M 159.347202 143.45833 
L 159.347202 147.70097 
L 163.589843 147.70097 
L 163.589843 143.45833 
z
" style="fill:#a7226e;stroke:#ffffff;stroke-width:0.48;"/>
    <path clip-path="url(#p5bfcae61b2)" d="M 166.110839 143.45833 
L 166.110839 147.70097 
L 170.353479 147.70097 
L 170.353479 143.45833 
z
" style="fill:#a7226e;stroke:#ffffff;stroke-width:0.48;"/>
    <path clip-path="url(#p5bfcae61b2)" d="M 172.874475 166.003612 
L 172.874475 170.246253 
L 177.117116 170.246253 
L 177.117116 166.003612 
z
" style="fill:#a7226e;stroke:#ffffff;stroke-width:0.48;"/>
    <path clip-path="url(#p5bfcae61b2)" d="M 179.638111 166.003612 
L 179.638111 170.246253 
L 183.880752 170.246253 
L 183.880752 166.003612 
z
" style="fill:#a7226e;stroke:#ffffff;stroke-width:0.48;"/>
    <path clip-path="url(#p5bfcae61b2)" d="M 186.401748 159.162202 
L 186.401748 163.404843 
L 190.644389 163.404843 
L 190.644389 159.162202 
z
" style="fill:#a7226e;stroke:#ffffff;stroke-width:0.48;"/>
    <path clip-path="url(#p5bfcae61b2)" d="M 193.165384 163.288767 
L 193.165384 167.531408 
L 197.408025 167.531408 
L 197.408025 163.288767 
z
" style="fill:#a7226e;stroke:#ffffff;stroke-width:0.48;"/>
    <path clip-path="url(#p5bfcae61b2)" d="M 199.929021 161.87556 
L 199.929021 166.1182 
L 204.171661 166.1182 
L 204.171661 161.87556 
z
" style="fill:#a7226e;stroke:#ffffff;stroke-width:0.48;"/>
    <path clip-path="url(#p5bfcae61b2)" d="M 206.692657 159.162202 
L 206.692657 163.404843 
L 210.935298 163.404843 
L 210.935298 159.162202 
z
" style="fill:#a7226e;stroke:#ffffff;stroke-width:0.48;"/>
    <path clip-path="url(#p5bfcae61b2)" d="M 213.456293 180.801506 
L 213.456293 185.044147 
L 217.698934 185.044147 
L 217.698934 180.801506 
z
" style="fill:#a7226e;stroke:#ffffff;stroke-width:0.48;"/>
    <path clip-path="url(#p5bfcae61b2)" d="M 220.21993 184.525479 
L 220.21993 188.76812 
L 224.46257 188.76812 
L 224.46257 184.525479 
z
" style="fill:#a7226e;stroke:#ffffff;stroke-width:0.48;"/>
    <path clip-path="url(#p5bfcae61b2)" d="M 226.983566 184.525479 
L 226.983566 188.76812 
L 231.226207 188.76812 
L 231.226207 184.525479 
z
" style="fill:#a7226e;stroke:#ffffff;stroke-width:0.48;"/>
    <path clip-path="url(#p5bfcae61b2)" d="M 233.747202 173.35356 
L 233.747202 177.5962 
L 237.989843 177.5962 
L 237.989843 173.35356 
z
" style="fill:#a7226e;stroke:#ffffff;stroke-width:0.48;"/>
    <path clip-path="url(#p5bfcae61b2)" d="M 240.510839 163.43792 
L 240.510839 167.680561 
L 244.753479 167.680561 
L 244.753479 163.43792 
z
" style="fill:#a7226e;stroke:#ffffff;stroke-width:0.48;"/>
    <path clip-path="url(#p5bfcae61b2)" d="M 247.274475 178.154344 
L 247.274475 182.396985 
L 251.517116 182.396985 
L 251.517116 178.154344 
z
" style="fill:#a7226e;stroke:#ffffff;stroke-width:0.48;"/>
    <path clip-path="url(#p5bfcae61b2)" d="M 254.038111 192.870769 
L 254.038111 197.11341 
L 258.280752 197.11341 
L 258.280752 192.870769 
z
" style="fill:#a7226e;stroke:#ffffff;stroke-width:0.48;"/>
    <path clip-path="url(#p5bfcae61b2)" d="M 260.801748 192.870769 
L 260.801748 197.11341 
L 265.044389 197.11341 
L 265.044389 192.870769 
z
" style="fill:#a7226e;stroke:#ffffff;stroke-width:0.48;"/>
    <path clip-path="url(#p5bfcae61b2)" d="M 267.565384 192.870769 
L 267.565384 197.11341 
L 271.808025 197.11341 
L 271.808025 192.870769 
z
" style="fill:#a7226e;stroke:#ffffff;stroke-width:0.48;"/>
    <path clip-path="url(#p5bfcae61b2)" d="M 274.329021 189.191663 
L 274.329021 193.434304 
L 278.571661 193.434304 
L 278.571661 189.191663 
z
" style="fill:#a7226e;stroke:#ffffff;stroke-width:0.48;"/>
    <path clip-path="url(#p5bfcae61b2)" d="M 281.092657 259.09468 
L 281.092657 263.33732 
L 285.335298 263.33732 
L 285.335298 259.09468 
z
" style="fill:#a7226e;stroke:#ffffff;stroke-width:0.48;"/>
    <path clip-path="url(#p5bfcae61b2)" d="M 287.856293 259.09468 
L 287.856293 263.33732 
L 292.098934 263.33732 
L 292.098934 259.09468 
z
" style="fill:#a7226e;stroke:#ffffff;stroke-width:0.48;"/>
    <path clip-path="url(#p5bfcae61b2)" d="M 294.61993 259.09468 
L 294.61993 263.33732 
L 298.86257 263.33732 
L 298.86257 259.09468 
z
" style="fill:#a7226e;stroke:#ffffff;stroke-width:0.48;"/>
    <path clip-path="url(#p5bfcae61b2)" d="M 301.383566 259.09468 
L 301.383566 263.33732 
L 305.626207 263.33732 
L 305.626207 259.09468 
z
" style="fill:#a7226e;stroke:#ffffff;stroke-width:0.48;"/>
    <path clip-path="url(#p5bfcae61b2)" d="M 308.147202 259.09468 
L 308.147202 263.33732 
L 312.389843 263.33732 
L 312.389843 259.09468 
z
" style="fill:#a7226e;stroke:#ffffff;stroke-width:0.48;"/>
    <path clip-path="url(#p5bfcae61b2)" d="M 314.910839 259.09468 
L 314.910839 263.33732 
L 319.153479 263.33732 
L 319.153479 259.09468 
z
" style="fill:#a7226e;stroke:#ffffff;stroke-width:0.48;"/>
    <path clip-path="url(#p5bfcae61b2)" d="M 321.674475 259.09468 
L 321.674475 263.33732 
L 325.917116 263.33732 
L 325.917116 259.09468 
z
" style="fill:#a7226e;stroke:#ffffff;stroke-width:0.48;"/>
    <path clip-path="url(#p5bfcae61b2)" d="M 328.438111 259.09468 
L 328.438111 263.33732 
L 332.680752 263.33732 
L 332.680752 259.09468 
z
" style="fill:#a7226e;stroke:#ffffff;stroke-width:0.48;"/>
    <path clip-path="url(#p5bfcae61b2)" d="M 335.201748 259.09468 
L 335.201748 263.33732 
L 339.444389 263.33732 
L 339.444389 259.09468 
z
" style="fill:#a7226e;stroke:#ffffff;stroke-width:0.48;"/>
    <path clip-path="url(#p5bfcae61b2)" d="M 341.965384 259.09468 
L 341.965384 263.33732 
L 346.208025 263.33732 
L 346.208025 259.09468 
z
" style="fill:#a7226e;stroke:#ffffff;stroke-width:0.48;"/>
    <path clip-path="url(#p5bfcae61b2)" d="M 348.729021 259.09468 
L 348.729021 263.33732 
L 352.971661 263.33732 
L 352.971661 259.09468 
z
" style="fill:#a7226e;stroke:#ffffff;stroke-width:0.48;"/>
    <path clip-path="url(#p5bfcae61b2)" d="M 355.492657 259.09468 
L 355.492657 263.33732 
L 359.735298 263.33732 
L 359.735298 259.09468 
z
" style="fill:#a7226e;stroke:#ffffff;stroke-width:0.48;"/>
    <path clip-path="url(#p5bfcae61b2)" d="M 362.256293 259.09468 
L 362.256293 263.33732 
L 366.498934 263.33732 
L 366.498934 259.09468 
z
" style="fill:#a7226e;stroke:#ffffff;stroke-width:0.48;"/>
    <path clip-path="url(#p5bfcae61b2)" d="M 369.01993 259.09468 
L 369.01993 263.33732 
L 373.26257 263.33732 
L 373.26257 259.09468 
z
" style="fill:#a7226e;stroke:#ffffff;stroke-width:0.48;"/>
    <path clip-path="url(#p5bfcae61b2)" d="M 375.783566 259.09468 
L 375.783566 263.33732 
L 380.026207 263.33732 
L 380.026207 259.09468 
z
" style="fill:#a7226e;stroke:#ffffff;stroke-width:0.48;"/>
    <path clip-path="url(#p5bfcae61b2)" d="M 382.547202 259.09468 
L 382.547202 263.33732 
L 386.789843 263.33732 
L 386.789843 259.09468 
z
" style="fill:#a7226e;stroke:#ffffff;stroke-width:0.48;"/>
   </g>
   <g id="PathCollection_2"/>
   <g id="PathCollection_3"/>
   <g id="PathCollection_4"/>
   <g id="matplotlib.axis_1">
    <g id="xtick_1">
     <g id="line2d_1">
      <defs>
       <path d="M 0 0 
L 0 3.5 
" id="mad079dc515" style="stroke:#000000;stroke-width:0.8;"/>
      </defs>
      <g>
       <use style="stroke:#000000;stroke-width:0.8;" x="53.250341" xlink:href="#mad079dc515" y="273.312"/>
      </g>
     </g>
     <g id="text_1">
      <!-- 0.0 -->
      <g transform="translate(45.298778 287.910437)scale(0.1 -0.1)">
       <defs>
        <path d="M 31.78125 66.40625 
Q 24.171875 66.40625 20.328125 58.90625 
Q 16.5 51.421875 16.5 36.375 
Q 16.5 21.390625 20.328125 13.890625 
Q 24.171875 6.390625 31.78125 6.390625 
Q 39.453125 6.390625 43.28125 13.890625 
Q 47.125 21.390625 47.125 36.375 
Q 47.125 51.421875 43.28125 58.90625 
Q 39.453125 66.40625 31.78125 66.40625 
z
M 31.78125 74.21875 
Q 44.046875 74.21875 50.515625 64.515625 
Q 56.984375 54.828125 56.984375 36.375 
Q 56.984375 17.96875 50.515625 8.265625 
Q 44.046875 -1.421875 31.78125 -1.421875 
Q 19.53125 -1.421875 13.0625 8.265625 
Q 6.59375 17.96875 6.59375 36.375 
Q 6.59375 54.828125 13.0625 64.515625 
Q 19.53125 74.21875 31.78125 74.21875 
z
" id="DejaVuSans-48"/>
        <path d="M 10.6875 12.40625 
L 21 12.40625 
L 21 0 
L 10.6875 0 
z
" id="DejaVuSans-46"/>
       </defs>
       <use xlink:href="#DejaVuSans-48"/>
       <use x="63.623047" xlink:href="#DejaVuSans-46"/>
       <use x="95.410156" xlink:href="#DejaVuSans-48"/>
      </g>
     </g>
    </g>
    <g id="xtick_2">
     <g id="line2d_2">
      <g>
       <use style="stroke:#000000;stroke-width:0.8;" x="120.886705" xlink:href="#mad079dc515" y="273.312"/>
      </g>
     </g>
     <g id="text_2">
      <!-- 0.2 -->
      <g transform="translate(112.935142 287.910437)scale(0.1 -0.1)">
       <defs>
        <path d="M 19.1875 8.296875 
L 53.609375 8.296875 
L 53.609375 0 
L 7.328125 0 
L 7.328125 8.296875 
Q 12.9375 14.109375 22.625 23.890625 
Q 32.328125 33.6875 34.8125 36.53125 
Q 39.546875 41.84375 41.421875 45.53125 
Q 43.3125 49.21875 43.3125 52.78125 
Q 43.3125 58.59375 39.234375 62.25 
Q 35.15625 65.921875 28.609375 65.921875 
Q 23.96875 65.921875 18.8125 64.3125 
Q 13.671875 62.703125 7.8125 59.421875 
L 7.8125 69.390625 
Q 13.765625 71.78125 18.9375 73 
Q 24.125 74.21875 28.421875 74.21875 
Q 39.75 74.21875 46.484375 68.546875 
Q 53.21875 62.890625 53.21875 53.421875 
Q 53.21875 48.921875 51.53125 44.890625 
Q 49.859375 40.875 45.40625 35.40625 
Q 44.1875 33.984375 37.640625 27.21875 
Q 31.109375 20.453125 19.1875 8.296875 
z
" id="DejaVuSans-50"/>
       </defs>
       <use xlink:href="#DejaVuSans-48"/>
       <use x="63.623047" xlink:href="#DejaVuSans-46"/>
       <use x="95.410156" xlink:href="#DejaVuSans-50"/>
      </g>
     </g>
    </g>
    <g id="xtick_3">
     <g id="line2d_3">
      <g>
       <use style="stroke:#000000;stroke-width:0.8;" x="188.523068" xlink:href="#mad079dc515" y="273.312"/>
      </g>
     </g>
     <g id="text_3">
      <!-- 0.4 -->
      <g transform="translate(180.571506 287.910437)scale(0.1 -0.1)">
       <defs>
        <path d="M 37.796875 64.3125 
L 12.890625 25.390625 
L 37.796875 25.390625 
z
M 35.203125 72.90625 
L 47.609375 72.90625 
L 47.609375 25.390625 
L 58.015625 25.390625 
L 58.015625 17.1875 
L 47.609375 17.1875 
L 47.609375 0 
L 37.796875 0 
L 37.796875 17.1875 
L 4.890625 17.1875 
L 4.890625 26.703125 
z
" id="DejaVuSans-52"/>
       </defs>
       <use xlink:href="#DejaVuSans-48"/>
       <use x="63.623047" xlink:href="#DejaVuSans-46"/>
       <use x="95.410156" xlink:href="#DejaVuSans-52"/>
      </g>
     </g>
    </g>
    <g id="xtick_4">
     <g id="line2d_4">
      <g>
       <use style="stroke:#000000;stroke-width:0.8;" x="256.159432" xlink:href="#mad079dc515" y="273.312"/>
      </g>
     </g>
     <g id="text_4">
      <!-- 0.6 -->
      <g transform="translate(248.207869 287.910437)scale(0.1 -0.1)">
       <defs>
        <path d="M 33.015625 40.375 
Q 26.375 40.375 22.484375 35.828125 
Q 18.609375 31.296875 18.609375 23.390625 
Q 18.609375 15.53125 22.484375 10.953125 
Q 26.375 6.390625 33.015625 6.390625 
Q 39.65625 6.390625 43.53125 10.953125 
Q 47.40625 15.53125 47.40625 23.390625 
Q 47.40625 31.296875 43.53125 35.828125 
Q 39.65625 40.375 33.015625 40.375 
z
M 52.59375 71.296875 
L 52.59375 62.3125 
Q 48.875 64.0625 45.09375 64.984375 
Q 41.3125 65.921875 37.59375 65.921875 
Q 27.828125 65.921875 22.671875 59.328125 
Q 17.53125 52.734375 16.796875 39.40625 
Q 19.671875 43.65625 24.015625 45.921875 
Q 28.375 48.1875 33.59375 48.1875 
Q 44.578125 48.1875 50.953125 41.515625 
Q 57.328125 34.859375 57.328125 23.390625 
Q 57.328125 12.15625 50.6875 5.359375 
Q 44.046875 -1.421875 33.015625 -1.421875 
Q 20.359375 -1.421875 13.671875 8.265625 
Q 6.984375 17.96875 6.984375 36.375 
Q 6.984375 53.65625 15.1875 63.9375 
Q 23.390625 74.21875 37.203125 74.21875 
Q 40.921875 74.21875 44.703125 73.484375 
Q 48.484375 72.75 52.59375 71.296875 
z
" id="DejaVuSans-54"/>
       </defs>
       <use xlink:href="#DejaVuSans-48"/>
       <use x="63.623047" xlink:href="#DejaVuSans-46"/>
       <use x="95.410156" xlink:href="#DejaVuSans-54"/>
      </g>
     </g>
    </g>
    <g id="xtick_5">
     <g id="line2d_5">
      <g>
       <use style="stroke:#000000;stroke-width:0.8;" x="323.795795" xlink:href="#mad079dc515" y="273.312"/>
      </g>
     </g>
     <g id="text_5">
      <!-- 0.8 -->
      <g transform="translate(315.844233 287.910437)scale(0.1 -0.1)">
       <defs>
        <path d="M 31.78125 34.625 
Q 24.75 34.625 20.71875 30.859375 
Q 16.703125 27.09375 16.703125 20.515625 
Q 16.703125 13.921875 20.71875 10.15625 
Q 24.75 6.390625 31.78125 6.390625 
Q 38.8125 6.390625 42.859375 10.171875 
Q 46.921875 13.96875 46.921875 20.515625 
Q 46.921875 27.09375 42.890625 30.859375 
Q 38.875 34.625 31.78125 34.625 
z
M 21.921875 38.8125 
Q 15.578125 40.375 12.03125 44.71875 
Q 8.5 49.078125 8.5 55.328125 
Q 8.5 64.0625 14.71875 69.140625 
Q 20.953125 74.21875 31.78125 74.21875 
Q 42.671875 74.21875 48.875 69.140625 
Q 55.078125 64.0625 55.078125 55.328125 
Q 55.078125 49.078125 51.53125 44.71875 
Q 48 40.375 41.703125 38.8125 
Q 48.828125 37.15625 52.796875 32.3125 
Q 56.78125 27.484375 56.78125 20.515625 
Q 56.78125 9.90625 50.3125 4.234375 
Q 43.84375 -1.421875 31.78125 -1.421875 
Q 19.734375 -1.421875 13.25 4.234375 
Q 6.78125 9.90625 6.78125 20.515625 
Q 6.78125 27.484375 10.78125 32.3125 
Q 14.796875 37.15625 21.921875 38.8125 
z
M 18.3125 54.390625 
Q 18.3125 48.734375 21.84375 45.5625 
Q 25.390625 42.390625 31.78125 42.390625 
Q 38.140625 42.390625 41.71875 45.5625 
Q 45.3125 48.734375 45.3125 54.390625 
Q 45.3125 60.0625 41.71875 63.234375 
Q 38.140625 66.40625 31.78125 66.40625 
Q 25.390625 66.40625 21.84375 63.234375 
Q 18.3125 60.0625 18.3125 54.390625 
z
" id="DejaVuSans-56"/>
       </defs>
       <use xlink:href="#DejaVuSans-48"/>
       <use x="63.623047" xlink:href="#DejaVuSans-46"/>
       <use x="95.410156" xlink:href="#DejaVuSans-56"/>
      </g>
     </g>
    </g>
    <g id="xtick_6">
     <g id="line2d_6">
      <g>
       <use style="stroke:#000000;stroke-width:0.8;" x="391.432159" xlink:href="#mad079dc515" y="273.312"/>
      </g>
     </g>
     <g id="text_6">
      <!-- 1.0 -->
      <g transform="translate(383.480597 287.910437)scale(0.1 -0.1)">
       <defs>
        <path d="M 12.40625 8.296875 
L 28.515625 8.296875 
L 28.515625 63.921875 
L 10.984375 60.40625 
L 10.984375 69.390625 
L 28.421875 72.90625 
L 38.28125 72.90625 
L 38.28125 8.296875 
L 54.390625 8.296875 
L 54.390625 0 
L 12.40625 0 
z
" id="DejaVuSans-49"/>
       </defs>
       <use xlink:href="#DejaVuSans-49"/>
       <use x="63.623047" xlink:href="#DejaVuSans-46"/>
       <use x="95.410156" xlink:href="#DejaVuSans-48"/>
      </g>
     </g>
    </g>
    <g id="text_7">
     <!-- cutoff -->
     <g transform="translate(207.883438 301.588562)scale(0.1 -0.1)">
      <defs>
       <path d="M 48.78125 52.59375 
L 48.78125 44.1875 
Q 44.96875 46.296875 41.140625 47.34375 
Q 37.3125 48.390625 33.40625 48.390625 
Q 24.65625 48.390625 19.8125 42.84375 
Q 14.984375 37.3125 14.984375 27.296875 
Q 14.984375 17.28125 19.8125 11.734375 
Q 24.65625 6.203125 33.40625 6.203125 
Q 37.3125 6.203125 41.140625 7.25 
Q 44.96875 8.296875 48.78125 10.40625 
L 48.78125 2.09375 
Q 45.015625 0.34375 40.984375 -0.53125 
Q 36.96875 -1.421875 32.421875 -1.421875 
Q 20.0625 -1.421875 12.78125 6.34375 
Q 5.515625 14.109375 5.515625 27.296875 
Q 5.515625 40.671875 12.859375 48.328125 
Q 20.21875 56 33.015625 56 
Q 37.15625 56 41.109375 55.140625 
Q 45.0625 54.296875 48.78125 52.59375 
z
" id="DejaVuSans-99"/>
       <path d="M 8.5 21.578125 
L 8.5 54.6875 
L 17.484375 54.6875 
L 17.484375 21.921875 
Q 17.484375 14.15625 20.5 10.265625 
Q 23.53125 6.390625 29.59375 6.390625 
Q 36.859375 6.390625 41.078125 11.03125 
Q 45.3125 15.671875 45.3125 23.6875 
L 45.3125 54.6875 
L 54.296875 54.6875 
L 54.296875 0 
L 45.3125 0 
L 45.3125 8.40625 
Q 42.046875 3.421875 37.71875 1 
Q 33.40625 -1.421875 27.6875 -1.421875 
Q 18.265625 -1.421875 13.375 4.4375 
Q 8.5 10.296875 8.5 21.578125 
z
M 31.109375 56 
z
" id="DejaVuSans-117"/>
       <path d="M 18.3125 70.21875 
L 18.3125 54.6875 
L 36.8125 54.6875 
L 36.8125 47.703125 
L 18.3125 47.703125 
L 18.3125 18.015625 
Q 18.3125 11.328125 20.140625 9.421875 
Q 21.96875 7.515625 27.59375 7.515625 
L 36.8125 7.515625 
L 36.8125 0 
L 27.59375 0 
Q 17.1875 0 13.234375 3.875 
Q 9.28125 7.765625 9.28125 18.015625 
L 9.28125 47.703125 
L 2.6875 47.703125 
L 2.6875 54.6875 
L 9.28125 54.6875 
L 9.28125 70.21875 
z
" id="DejaVuSans-116"/>
       <path d="M 30.609375 48.390625 
Q 23.390625 48.390625 19.1875 42.75 
Q 14.984375 37.109375 14.984375 27.296875 
Q 14.984375 17.484375 19.15625 11.84375 
Q 23.34375 6.203125 30.609375 6.203125 
Q 37.796875 6.203125 41.984375 11.859375 
Q 46.1875 17.53125 46.1875 27.296875 
Q 46.1875 37.015625 41.984375 42.703125 
Q 37.796875 48.390625 30.609375 48.390625 
z
M 30.609375 56 
Q 42.328125 56 49.015625 48.375 
Q 55.71875 40.765625 55.71875 27.296875 
Q 55.71875 13.875 49.015625 6.21875 
Q 42.328125 -1.421875 30.609375 -1.421875 
Q 18.84375 -1.421875 12.171875 6.21875 
Q 5.515625 13.875 5.515625 27.296875 
Q 5.515625 40.765625 12.171875 48.375 
Q 18.84375 56 30.609375 56 
z
" id="DejaVuSans-111"/>
       <path d="M 37.109375 75.984375 
L 37.109375 68.5 
L 28.515625 68.5 
Q 23.6875 68.5 21.796875 66.546875 
Q 19.921875 64.59375 19.921875 59.515625 
L 19.921875 54.6875 
L 34.71875 54.6875 
L 34.71875 47.703125 
L 19.921875 47.703125 
L 19.921875 0 
L 10.890625 0 
L 10.890625 47.703125 
L 2.296875 47.703125 
L 2.296875 54.6875 
L 10.890625 54.6875 
L 10.890625 58.5 
Q 10.890625 67.625 15.140625 71.796875 
Q 19.390625 75.984375 28.609375 75.984375 
z
" id="DejaVuSans-102"/>
      </defs>
      <use xlink:href="#DejaVuSans-99"/>
      <use x="54.980469" xlink:href="#DejaVuSans-117"/>
      <use x="118.359375" xlink:href="#DejaVuSans-116"/>
      <use x="157.568359" xlink:href="#DejaVuSans-111"/>
      <use x="218.75" xlink:href="#DejaVuSans-102"/>
      <use x="253.955078" xlink:href="#DejaVuSans-102"/>
     </g>
    </g>
   </g>
   <g id="matplotlib.axis_2">
    <g id="ytick_1">
     <g id="line2d_7">
      <defs>
       <path d="M 0 0 
L -3.5 0 
" id="m5bb49964d8" style="stroke:#000000;stroke-width:0.8;"/>
      </defs>
      <g>
       <use style="stroke:#000000;stroke-width:0.8;" x="43.78125" xlink:href="#m5bb49964d8" y="268.574212"/>
      </g>
     </g>
     <g id="text_8">
      <!-- 0.0 -->
      <g transform="translate(20.878125 272.373431)scale(0.1 -0.1)">
       <use xlink:href="#DejaVuSans-48"/>
       <use x="63.623047" xlink:href="#DejaVuSans-46"/>
       <use x="95.410156" xlink:href="#DejaVuSans-48"/>
      </g>
     </g>
    </g>
    <g id="ytick_2">
     <g id="line2d_8">
      <g>
       <use style="stroke:#000000;stroke-width:0.8;" x="43.78125" xlink:href="#m5bb49964d8" y="238.037631"/>
      </g>
     </g>
     <g id="text_9">
      <!-- 0.1 -->
      <g transform="translate(20.878125 241.83685)scale(0.1 -0.1)">
       <use xlink:href="#DejaVuSans-48"/>
       <use x="63.623047" xlink:href="#DejaVuSans-46"/>
       <use x="95.410156" xlink:href="#DejaVuSans-49"/>
      </g>
     </g>
    </g>
    <g id="ytick_3">
     <g id="line2d_9">
      <g>
       <use style="stroke:#000000;stroke-width:0.8;" x="43.78125" xlink:href="#m5bb49964d8" y="207.50105"/>
      </g>
     </g>
     <g id="text_10">
      <!-- 0.2 -->
      <g transform="translate(20.878125 211.300269)scale(0.1 -0.1)">
       <use xlink:href="#DejaVuSans-48"/>
       <use x="63.623047" xlink:href="#DejaVuSans-46"/>
       <use x="95.410156" xlink:href="#DejaVuSans-50"/>
      </g>
     </g>
    </g>
    <g id="ytick_4">
     <g id="line2d_10">
      <g>
       <use style="stroke:#000000;stroke-width:0.8;" x="43.78125" xlink:href="#m5bb49964d8" y="176.964469"/>
      </g>
     </g>
     <g id="text_11">
      <!-- 0.3 -->
      <g transform="translate(20.878125 180.763688)scale(0.1 -0.1)">
       <defs>
        <path d="M 40.578125 39.3125 
Q 47.65625 37.796875 51.625 33 
Q 55.609375 28.21875 55.609375 21.1875 
Q 55.609375 10.40625 48.1875 4.484375 
Q 40.765625 -1.421875 27.09375 -1.421875 
Q 22.515625 -1.421875 17.65625 -0.515625 
Q 12.796875 0.390625 7.625 2.203125 
L 7.625 11.71875 
Q 11.71875 9.328125 16.59375 8.109375 
Q 21.484375 6.890625 26.8125 6.890625 
Q 36.078125 6.890625 40.9375 10.546875 
Q 45.796875 14.203125 45.796875 21.1875 
Q 45.796875 27.640625 41.28125 31.265625 
Q 36.765625 34.90625 28.71875 34.90625 
L 20.21875 34.90625 
L 20.21875 43.015625 
L 29.109375 43.015625 
Q 36.375 43.015625 40.234375 45.921875 
Q 44.09375 48.828125 44.09375 54.296875 
Q 44.09375 59.90625 40.109375 62.90625 
Q 36.140625 65.921875 28.71875 65.921875 
Q 24.65625 65.921875 20.015625 65.03125 
Q 15.375 64.15625 9.8125 62.3125 
L 9.8125 71.09375 
Q 15.4375 72.65625 20.34375 73.4375 
Q 25.25 74.21875 29.59375 74.21875 
Q 40.828125 74.21875 47.359375 69.109375 
Q 53.90625 64.015625 53.90625 55.328125 
Q 53.90625 49.265625 50.4375 45.09375 
Q 46.96875 40.921875 40.578125 39.3125 
z
" id="DejaVuSans-51"/>
       </defs>
       <use xlink:href="#DejaVuSans-48"/>
       <use x="63.623047" xlink:href="#DejaVuSans-46"/>
       <use x="95.410156" xlink:href="#DejaVuSans-51"/>
      </g>
     </g>
    </g>
    <g id="ytick_5">
     <g id="line2d_11">
      <g>
       <use style="stroke:#000000;stroke-width:0.8;" x="43.78125" xlink:href="#m5bb49964d8" y="146.427888"/>
      </g>
     </g>
     <g id="text_12">
      <!-- 0.4 -->
      <g transform="translate(20.878125 150.227107)scale(0.1 -0.1)">
       <use xlink:href="#DejaVuSans-48"/>
       <use x="63.623047" xlink:href="#DejaVuSans-46"/>
       <use x="95.410156" xlink:href="#DejaVuSans-52"/>
      </g>
     </g>
    </g>
    <g id="ytick_6">
     <g id="line2d_12">
      <g>
       <use style="stroke:#000000;stroke-width:0.8;" x="43.78125" xlink:href="#m5bb49964d8" y="115.891307"/>
      </g>
     </g>
     <g id="text_13">
      <!-- 0.5 -->
      <g transform="translate(20.878125 119.690526)scale(0.1 -0.1)">
       <defs>
        <path d="M 10.796875 72.90625 
L 49.515625 72.90625 
L 49.515625 64.59375 
L 19.828125 64.59375 
L 19.828125 46.734375 
Q 21.96875 47.46875 24.109375 47.828125 
Q 26.265625 48.1875 28.421875 48.1875 
Q 40.625 48.1875 47.75 41.5 
Q 54.890625 34.8125 54.890625 23.390625 
Q 54.890625 11.625 47.5625 5.09375 
Q 40.234375 -1.421875 26.90625 -1.421875 
Q 22.3125 -1.421875 17.546875 -0.640625 
Q 12.796875 0.140625 7.71875 1.703125 
L 7.71875 11.625 
Q 12.109375 9.234375 16.796875 8.0625 
Q 21.484375 6.890625 26.703125 6.890625 
Q 35.15625 6.890625 40.078125 11.328125 
Q 45.015625 15.765625 45.015625 23.390625 
Q 45.015625 31 40.078125 35.4375 
Q 35.15625 39.890625 26.703125 39.890625 
Q 22.75 39.890625 18.8125 39.015625 
Q 14.890625 38.140625 10.796875 36.28125 
z
" id="DejaVuSans-53"/>
       </defs>
       <use xlink:href="#DejaVuSans-48"/>
       <use x="63.623047" xlink:href="#DejaVuSans-46"/>
       <use x="95.410156" xlink:href="#DejaVuSans-53"/>
      </g>
     </g>
    </g>
    <g id="ytick_7">
     <g id="line2d_13">
      <g>
       <use style="stroke:#000000;stroke-width:0.8;" x="43.78125" xlink:href="#m5bb49964d8" y="85.354726"/>
      </g>
     </g>
     <g id="text_14">
      <!-- 0.6 -->
      <g transform="translate(20.878125 89.153945)scale(0.1 -0.1)">
       <use xlink:href="#DejaVuSans-48"/>
       <use x="63.623047" xlink:href="#DejaVuSans-46"/>
       <use x="95.410156" xlink:href="#DejaVuSans-54"/>
      </g>
     </g>
    </g>
    <g id="ytick_8">
     <g id="line2d_14">
      <g>
       <use style="stroke:#000000;stroke-width:0.8;" x="43.78125" xlink:href="#m5bb49964d8" y="54.818145"/>
      </g>
     </g>
     <g id="text_15">
      <!-- 0.7 -->
      <g transform="translate(20.878125 58.617364)scale(0.1 -0.1)">
       <defs>
        <path d="M 8.203125 72.90625 
L 55.078125 72.90625 
L 55.078125 68.703125 
L 28.609375 0 
L 18.3125 0 
L 43.21875 64.59375 
L 8.203125 64.59375 
z
" id="DejaVuSans-55"/>
       </defs>
       <use xlink:href="#DejaVuSans-48"/>
       <use x="63.623047" xlink:href="#DejaVuSans-46"/>
       <use x="95.410156" xlink:href="#DejaVuSans-55"/>
      </g>
     </g>
    </g>
    <g id="ytick_9">
     <g id="line2d_15">
      <g>
       <use style="stroke:#000000;stroke-width:0.8;" x="43.78125" xlink:href="#m5bb49964d8" y="24.281564"/>
      </g>
     </g>
     <g id="text_16">
      <!-- 0.8 -->
      <g transform="translate(20.878125 28.080783)scale(0.1 -0.1)">
       <use xlink:href="#DejaVuSans-48"/>
       <use x="63.623047" xlink:href="#DejaVuSans-46"/>
       <use x="95.410156" xlink:href="#DejaVuSans-56"/>
      </g>
     </g>
    </g>
    <g id="text_17">
     <!-- performance -->
     <g transform="translate(14.798438 172.278656)rotate(-90)scale(0.1 -0.1)">
      <defs>
       <path d="M 18.109375 8.203125 
L 18.109375 -20.796875 
L 9.078125 -20.796875 
L 9.078125 54.6875 
L 18.109375 54.6875 
L 18.109375 46.390625 
Q 20.953125 51.265625 25.265625 53.625 
Q 29.59375 56 35.59375 56 
Q 45.5625 56 51.78125 48.09375 
Q 58.015625 40.1875 58.015625 27.296875 
Q 58.015625 14.40625 51.78125 6.484375 
Q 45.5625 -1.421875 35.59375 -1.421875 
Q 29.59375 -1.421875 25.265625 0.953125 
Q 20.953125 3.328125 18.109375 8.203125 
z
M 48.6875 27.296875 
Q 48.6875 37.203125 44.609375 42.84375 
Q 40.53125 48.484375 33.40625 48.484375 
Q 26.265625 48.484375 22.1875 42.84375 
Q 18.109375 37.203125 18.109375 27.296875 
Q 18.109375 17.390625 22.1875 11.75 
Q 26.265625 6.109375 33.40625 6.109375 
Q 40.53125 6.109375 44.609375 11.75 
Q 48.6875 17.390625 48.6875 27.296875 
z
" id="DejaVuSans-112"/>
       <path d="M 56.203125 29.59375 
L 56.203125 25.203125 
L 14.890625 25.203125 
Q 15.484375 15.921875 20.484375 11.0625 
Q 25.484375 6.203125 34.421875 6.203125 
Q 39.59375 6.203125 44.453125 7.46875 
Q 49.3125 8.734375 54.109375 11.28125 
L 54.109375 2.78125 
Q 49.265625 0.734375 44.1875 -0.34375 
Q 39.109375 -1.421875 33.890625 -1.421875 
Q 20.796875 -1.421875 13.15625 6.1875 
Q 5.515625 13.8125 5.515625 26.8125 
Q 5.515625 40.234375 12.765625 48.109375 
Q 20.015625 56 32.328125 56 
Q 43.359375 56 49.78125 48.890625 
Q 56.203125 41.796875 56.203125 29.59375 
z
M 47.21875 32.234375 
Q 47.125 39.59375 43.09375 43.984375 
Q 39.0625 48.390625 32.421875 48.390625 
Q 24.90625 48.390625 20.390625 44.140625 
Q 15.875 39.890625 15.1875 32.171875 
z
" id="DejaVuSans-101"/>
       <path d="M 41.109375 46.296875 
Q 39.59375 47.171875 37.8125 47.578125 
Q 36.03125 48 33.890625 48 
Q 26.265625 48 22.1875 43.046875 
Q 18.109375 38.09375 18.109375 28.8125 
L 18.109375 0 
L 9.078125 0 
L 9.078125 54.6875 
L 18.109375 54.6875 
L 18.109375 46.1875 
Q 20.953125 51.171875 25.484375 53.578125 
Q 30.03125 56 36.53125 56 
Q 37.453125 56 38.578125 55.875 
Q 39.703125 55.765625 41.0625 55.515625 
z
" id="DejaVuSans-114"/>
       <path d="M 52 44.1875 
Q 55.375 50.25 60.0625 53.125 
Q 64.75 56 71.09375 56 
Q 79.640625 56 84.28125 50.015625 
Q 88.921875 44.046875 88.921875 33.015625 
L 88.921875 0 
L 79.890625 0 
L 79.890625 32.71875 
Q 79.890625 40.578125 77.09375 44.375 
Q 74.3125 48.1875 68.609375 48.1875 
Q 61.625 48.1875 57.5625 43.546875 
Q 53.515625 38.921875 53.515625 30.90625 
L 53.515625 0 
L 44.484375 0 
L 44.484375 32.71875 
Q 44.484375 40.625 41.703125 44.40625 
Q 38.921875 48.1875 33.109375 48.1875 
Q 26.21875 48.1875 22.15625 43.53125 
Q 18.109375 38.875 18.109375 30.90625 
L 18.109375 0 
L 9.078125 0 
L 9.078125 54.6875 
L 18.109375 54.6875 
L 18.109375 46.1875 
Q 21.1875 51.21875 25.484375 53.609375 
Q 29.78125 56 35.6875 56 
Q 41.65625 56 45.828125 52.96875 
Q 50 49.953125 52 44.1875 
z
" id="DejaVuSans-109"/>
       <path d="M 34.28125 27.484375 
Q 23.390625 27.484375 19.1875 25 
Q 14.984375 22.515625 14.984375 16.5 
Q 14.984375 11.71875 18.140625 8.90625 
Q 21.296875 6.109375 26.703125 6.109375 
Q 34.1875 6.109375 38.703125 11.40625 
Q 43.21875 16.703125 43.21875 25.484375 
L 43.21875 27.484375 
z
M 52.203125 31.203125 
L 52.203125 0 
L 43.21875 0 
L 43.21875 8.296875 
Q 40.140625 3.328125 35.546875 0.953125 
Q 30.953125 -1.421875 24.3125 -1.421875 
Q 15.921875 -1.421875 10.953125 3.296875 
Q 6 8.015625 6 15.921875 
Q 6 25.140625 12.171875 29.828125 
Q 18.359375 34.515625 30.609375 34.515625 
L 43.21875 34.515625 
L 43.21875 35.40625 
Q 43.21875 41.609375 39.140625 45 
Q 35.0625 48.390625 27.6875 48.390625 
Q 23 48.390625 18.546875 47.265625 
Q 14.109375 46.140625 10.015625 43.890625 
L 10.015625 52.203125 
Q 14.9375 54.109375 19.578125 55.046875 
Q 24.21875 56 28.609375 56 
Q 40.484375 56 46.34375 49.84375 
Q 52.203125 43.703125 52.203125 31.203125 
z
" id="DejaVuSans-97"/>
       <path d="M 54.890625 33.015625 
L 54.890625 0 
L 45.90625 0 
L 45.90625 32.71875 
Q 45.90625 40.484375 42.875 44.328125 
Q 39.84375 48.1875 33.796875 48.1875 
Q 26.515625 48.1875 22.3125 43.546875 
Q 18.109375 38.921875 18.109375 30.90625 
L 18.109375 0 
L 9.078125 0 
L 9.078125 54.6875 
L 18.109375 54.6875 
L 18.109375 46.1875 
Q 21.34375 51.125 25.703125 53.5625 
Q 30.078125 56 35.796875 56 
Q 45.21875 56 50.046875 50.171875 
Q 54.890625 44.34375 54.890625 33.015625 
z
" id="DejaVuSans-110"/>
      </defs>
      <use xlink:href="#DejaVuSans-112"/>
      <use x="63.476562" xlink:href="#DejaVuSans-101"/>
      <use x="125" xlink:href="#DejaVuSans-114"/>
      <use x="166.113281" xlink:href="#DejaVuSans-102"/>
      <use x="201.318359" xlink:href="#DejaVuSans-111"/>
      <use x="262.5" xlink:href="#DejaVuSans-114"/>
      <use x="301.863281" xlink:href="#DejaVuSans-109"/>
      <use x="399.275391" xlink:href="#DejaVuSans-97"/>
      <use x="460.554688" xlink:href="#DejaVuSans-110"/>
      <use x="523.933594" xlink:href="#DejaVuSans-99"/>
      <use x="578.914062" xlink:href="#DejaVuSans-101"/>
     </g>
    </g>
   </g>
   <g id="line2d_16">
    <path clip-path="url(#p5bfcae61b2)" d="M 60.013977 26.826279 
L 66.777614 37.991866 
L 73.54125 51.294694 
L 80.304886 66.814659 
L 87.068523 95.381663 
L 93.832159 104.827329 
L 100.595795 117.982854 
L 107.359432 117.982854 
L 114.123068 120.017872 
L 120.886705 118.041771 
L 127.650341 143.847332 
L 134.413977 158.303225 
L 141.177614 186.36034 
L 147.94125 175.804852 
L 154.704886 193.175247 
L 161.468523 193.175247 
L 168.232159 193.175247 
L 174.995795 193.175247 
L 181.759432 194.094746 
L 188.523068 194.992089 
L 195.286705 194.992089 
L 202.050341 194.992089 
L 208.813977 194.992089 
L 215.577614 191.312983 
L 222.34125 228.104045 
L 229.104886 261.216 
L 235.868523 261.216 
L 242.632159 261.216 
L 249.395795 261.216 
L 256.159432 261.216 
L 262.923068 261.216 
L 269.686705 261.216 
L 276.450341 261.216 
L 283.213977 261.216 
L 289.977614 261.216 
L 296.74125 261.216 
L 303.504886 261.216 
L 310.268523 261.216 
L 317.032159 261.216 
L 323.795795 261.216 
L 330.559432 261.216 
L 337.323068 261.216 
L 344.086705 261.216 
L 350.850341 261.216 
L 357.613977 261.216 
L 364.377614 261.216 
L 371.14125 261.216 
L 377.904886 261.216 
L 384.668523 261.216 
" style="fill:none;stroke:#f26b38;stroke-dasharray:7.4,3.2;stroke-dashoffset:0;stroke-width:2;"/>
   </g>
   <g id="line2d_17">
    <path clip-path="url(#p5bfcae61b2)" d="M 60.013977 102.419286 
L 66.777614 120.017872 
L 73.54125 143.847332 
L 80.304886 171.026801 
L 87.068523 174.615502 
L 93.832159 193.175247 
L 100.595795 193.175247 
L 107.359432 193.175247 
L 114.123068 193.175247 
L 120.886705 182.922827 
L 127.650341 168.026933 
L 134.413977 213.38762 
L 141.177614 213.38762 
L 147.94125 213.38762 
L 154.704886 213.38762 
L 161.468523 209.708514 
L 168.232159 261.216 
L 174.995795 261.216 
L 181.759432 261.216 
L 188.523068 261.216 
L 195.286705 261.216 
L 202.050341 261.216 
L 208.813977 261.216 
L 215.577614 261.216 
L 222.34125 261.216 
L 229.104886 261.216 
L 235.868523 261.216 
L 242.632159 261.216 
L 249.395795 261.216 
L 256.159432 261.216 
L 262.923068 261.216 
L 269.686705 261.216 
L 276.450341 261.216 
L 283.213977 261.216 
L 289.977614 261.216 
L 296.74125 261.216 
L 303.504886 261.216 
L 310.268523 261.216 
L 317.032159 261.216 
L 323.795795 261.216 
L 330.559432 261.216 
L 337.323068 261.216 
L 344.086705 261.216 
L 350.850341 261.216 
L 357.613977 261.216 
L 364.377614 261.216 
L 371.14125 261.216 
L 377.904886 261.216 
L 384.668523 261.216 
" style="fill:none;stroke:#2f9599;stroke-dasharray:2,3.3;stroke-dashoffset:0;stroke-width:2;"/>
   </g>
   <g id="line2d_18">
    <path clip-path="url(#p5bfcae61b2)" d="M 60.013977 19.296 
L 66.777614 19.296 
L 73.54125 19.296 
L 80.304886 19.296 
L 87.068523 25.527955 
L 93.832159 31.759911 
L 100.595795 31.759911 
L 107.359432 42.603513 
L 114.123068 47.034311 
L 120.886705 45.422274 
L 127.650341 45.422274 
L 134.413977 55.394307 
L 141.177614 66.814659 
L 147.94125 77.07362 
L 154.704886 102.804201 
L 161.468523 145.57965 
L 168.232159 145.57965 
L 174.995795 168.124933 
L 181.759432 168.124933 
L 188.523068 161.283522 
L 195.286705 165.410087 
L 202.050341 163.99688 
L 208.813977 161.283522 
L 215.577614 182.922827 
L 222.34125 186.6468 
L 229.104886 186.6468 
L 235.868523 175.47488 
L 242.632159 165.55924 
L 249.395795 180.275665 
L 256.159432 194.992089 
L 262.923068 194.992089 
L 269.686705 194.992089 
L 276.450341 191.312983 
L 283.213977 261.216 
L 289.977614 261.216 
L 296.74125 261.216 
L 303.504886 261.216 
L 310.268523 261.216 
L 317.032159 261.216 
L 323.795795 261.216 
L 330.559432 261.216 
L 337.323068 261.216 
L 344.086705 261.216 
L 350.850341 261.216 
L 357.613977 261.216 
L 364.377614 261.216 
L 371.14125 261.216 
L 377.904886 261.216 
L 384.668523 261.216 
" style="fill:none;stroke:#a7226e;stroke-dasharray:12.8,3.2,2,3.2;stroke-dashoffset:0;stroke-width:2;"/>
   </g>
   <g id="patch_3">
    <path d="M 43.78125 273.312 
L 43.78125 7.2 
" style="fill:none;stroke:#000000;stroke-linecap:square;stroke-linejoin:miter;stroke-width:0.8;"/>
   </g>
   <g id="patch_4">
    <path d="M 400.90125 273.312 
L 400.90125 7.2 
" style="fill:none;stroke:#000000;stroke-linecap:square;stroke-linejoin:miter;stroke-width:0.8;"/>
   </g>
   <g id="patch_5">
    <path d="M 43.78125 273.312 
L 400.90125 273.312 
" style="fill:none;stroke:#000000;stroke-linecap:square;stroke-linejoin:miter;stroke-width:0.8;"/>
   </g>
   <g id="patch_6">
    <path d="M 43.78125 7.2 
L 400.90125 7.2 
" style="fill:none;stroke:#000000;stroke-linecap:square;stroke-linejoin:miter;stroke-width:0.8;"/>
   </g>
   <g id="legend_1">
    <g id="patch_7">
     <path d="M 315.427559 43.890912 
L 396.04325 43.890912 
Q 397.43125 43.890912 397.43125 42.502912 
L 397.43125 12.058 
Q 397.43125 10.67 396.04325 10.67 
L 315.427559 10.67 
Q 314.039559 10.67 314.039559 12.058 
L 314.039559 42.502912 
Q 314.039559 43.890912 315.427559 43.890912 
z
" style="fill:#ffffff;opacity:0.8;stroke:#cccccc;stroke-linejoin:miter;"/>
    </g>
    <g id="PathCollection_5">
     <defs>
      <path d="M 0 3 
C 0.795609 3 1.55874 2.683901 2.12132 2.12132 
C 2.683901 1.55874 3 0.795609 3 0 
C 3 -0.795609 2.683901 -1.55874 2.12132 -2.12132 
C 1.55874 -2.683901 0.795609 -3 0 -3 
C -0.795609 -3 -1.55874 -2.683901 -2.12132 -2.12132 
C -2.683901 -1.55874 -3 -0.795609 -3 0 
C -3 0.795609 -2.683901 1.55874 -2.12132 2.12132 
C -1.55874 2.683901 -0.795609 3 0 3 
z
" id="mc7ce0e380b" style="stroke:#f26b38;"/>
     </defs>
     <g>
      <use style="fill:#f26b38;stroke:#f26b38;" x="323.755559" xlink:href="#mc7ce0e380b" y="16.897566"/>
     </g>
    </g>
    <g id="text_18">
     <!-- mean_err -->
     <g transform="translate(336.247559 18.719316)scale(0.0694 -0.0694)">
      <defs>
       <path d="M 50.984375 -16.609375 
L 50.984375 -23.578125 
L -0.984375 -23.578125 
L -0.984375 -16.609375 
z
" id="DejaVuSans-95"/>
      </defs>
      <use xlink:href="#DejaVuSans-109"/>
      <use x="97.412109" xlink:href="#DejaVuSans-101"/>
      <use x="158.935547" xlink:href="#DejaVuSans-97"/>
      <use x="220.214844" xlink:href="#DejaVuSans-110"/>
      <use x="283.59375" xlink:href="#DejaVuSans-95"/>
      <use x="333.59375" xlink:href="#DejaVuSans-101"/>
      <use x="395.117188" xlink:href="#DejaVuSans-114"/>
      <use x="434.480469" xlink:href="#DejaVuSans-114"/>
     </g>
    </g>
    <g id="PathCollection_6">
     <defs>
      <path d="M -1.5 3 
L 0 1.5 
L 1.5 3 
L 3 1.5 
L 1.5 0 
L 3 -1.5 
L 1.5 -3 
L 0 -1.5 
L -1.5 -3 
L -3 -1.5 
L -1.5 0 
L -3 1.5 
z
" id="m15c05e7d84" style="stroke:#2f9599;"/>
     </defs>
     <g>
      <use style="fill:#2f9599;stroke:#2f9599;" x="323.755559" xlink:href="#m15c05e7d84" y="27.277203"/>
     </g>
    </g>
    <g id="text_19">
     <!-- mean_sq_err -->
     <g transform="translate(336.247559 29.098953)scale(0.0694 -0.0694)">
      <defs>
       <path d="M 44.28125 53.078125 
L 44.28125 44.578125 
Q 40.484375 46.53125 36.375 47.5 
Q 32.28125 48.484375 27.875 48.484375 
Q 21.1875 48.484375 17.84375 46.4375 
Q 14.5 44.390625 14.5 40.28125 
Q 14.5 37.15625 16.890625 35.375 
Q 19.28125 33.59375 26.515625 31.984375 
L 29.59375 31.296875 
Q 39.15625 29.25 43.1875 25.515625 
Q 47.21875 21.78125 47.21875 15.09375 
Q 47.21875 7.46875 41.1875 3.015625 
Q 35.15625 -1.421875 24.609375 -1.421875 
Q 20.21875 -1.421875 15.453125 -0.5625 
Q 10.6875 0.296875 5.421875 2 
L 5.421875 11.28125 
Q 10.40625 8.6875 15.234375 7.390625 
Q 20.0625 6.109375 24.8125 6.109375 
Q 31.15625 6.109375 34.5625 8.28125 
Q 37.984375 10.453125 37.984375 14.40625 
Q 37.984375 18.0625 35.515625 20.015625 
Q 33.0625 21.96875 24.703125 23.78125 
L 21.578125 24.515625 
Q 13.234375 26.265625 9.515625 29.90625 
Q 5.8125 33.546875 5.8125 39.890625 
Q 5.8125 47.609375 11.28125 51.796875 
Q 16.75 56 26.8125 56 
Q 31.78125 56 36.171875 55.265625 
Q 40.578125 54.546875 44.28125 53.078125 
z
" id="DejaVuSans-115"/>
       <path d="M 14.796875 27.296875 
Q 14.796875 17.390625 18.875 11.75 
Q 22.953125 6.109375 30.078125 6.109375 
Q 37.203125 6.109375 41.296875 11.75 
Q 45.40625 17.390625 45.40625 27.296875 
Q 45.40625 37.203125 41.296875 42.84375 
Q 37.203125 48.484375 30.078125 48.484375 
Q 22.953125 48.484375 18.875 42.84375 
Q 14.796875 37.203125 14.796875 27.296875 
z
M 45.40625 8.203125 
Q 42.578125 3.328125 38.25 0.953125 
Q 33.9375 -1.421875 27.875 -1.421875 
Q 17.96875 -1.421875 11.734375 6.484375 
Q 5.515625 14.40625 5.515625 27.296875 
Q 5.515625 40.1875 11.734375 48.09375 
Q 17.96875 56 27.875 56 
Q 33.9375 56 38.25 53.625 
Q 42.578125 51.265625 45.40625 46.390625 
L 45.40625 54.6875 
L 54.390625 54.6875 
L 54.390625 -20.796875 
L 45.40625 -20.796875 
z
" id="DejaVuSans-113"/>
      </defs>
      <use xlink:href="#DejaVuSans-109"/>
      <use x="97.412109" xlink:href="#DejaVuSans-101"/>
      <use x="158.935547" xlink:href="#DejaVuSans-97"/>
      <use x="220.214844" xlink:href="#DejaVuSans-110"/>
      <use x="283.59375" xlink:href="#DejaVuSans-95"/>
      <use x="333.59375" xlink:href="#DejaVuSans-115"/>
      <use x="385.693359" xlink:href="#DejaVuSans-113"/>
      <use x="449.169922" xlink:href="#DejaVuSans-95"/>
      <use x="499.169922" xlink:href="#DejaVuSans-101"/>
      <use x="560.693359" xlink:href="#DejaVuSans-114"/>
      <use x="600.056641" xlink:href="#DejaVuSans-114"/>
     </g>
    </g>
    <g id="PathCollection_7">
     <defs>
      <path d="M -2.12132 -2.12132 
L -2.12132 2.12132 
L 2.12132 2.12132 
L 2.12132 -2.12132 
z
" id="m8ab2e1614f" style="stroke:#a7226e;"/>
     </defs>
     <g>
      <use style="fill:#a7226e;stroke:#a7226e;" x="323.755559" xlink:href="#m8ab2e1614f" y="37.656841"/>
     </g>
    </g>
    <g id="text_20">
     <!-- mean_sqroot_err -->
     <g transform="translate(336.247559 39.478591)scale(0.0694 -0.0694)">
      <use xlink:href="#DejaVuSans-109"/>
      <use x="97.412109" xlink:href="#DejaVuSans-101"/>
      <use x="158.935547" xlink:href="#DejaVuSans-97"/>
      <use x="220.214844" xlink:href="#DejaVuSans-110"/>
      <use x="283.59375" xlink:href="#DejaVuSans-95"/>
      <use x="333.59375" xlink:href="#DejaVuSans-115"/>
      <use x="385.693359" xlink:href="#DejaVuSans-113"/>
      <use x="449.169922" xlink:href="#DejaVuSans-114"/>
      <use x="488.033203" xlink:href="#DejaVuSans-111"/>
      <use x="549.214844" xlink:href="#DejaVuSans-111"/>
      <use x="610.396484" xlink:href="#DejaVuSans-116"/>
      <use x="649.605469" xlink:href="#DejaVuSans-95"/>
      <use x="699.605469" xlink:href="#DejaVuSans-101"/>
      <use x="761.128906" xlink:href="#DejaVuSans-114"/>
      <use x="800.492188" xlink:href="#DejaVuSans-114"/>
     </g>
    </g>
   </g>
  </g>
 </g>
 <defs>
  <clipPath id="p5bfcae61b2">
   <rect height="266.112" width="357.12" x="43.78125" y="7.2"/>
  </clipPath>
 </defs>
</svg>
