<?xml version="1.0" encoding="utf-8" standalone="no"?>
<!DOCTYPE svg PUBLIC "-//W3C//DTD SVG 1.1//EN"
  "http://www.w3.org/Graphics/SVG/1.1/DTD/svg11.dtd">
<!-- Created with matplotlib (https://matplotlib.org/) -->
<svg height="310.86825pt" version="1.1" viewBox="0 0 408.10125 310.86825" width="408.10125pt" xmlns="http://www.w3.org/2000/svg" xmlns:xlink="http://www.w3.org/1999/xlink">
 <metadata>
  <rdf:RDF xmlns:cc="http://creativecommons.org/ns#" xmlns:dc="http://purl.org/dc/elements/1.1/" xmlns:rdf="http://www.w3.org/1999/02/22-rdf-syntax-ns#">
   <cc:Work>
    <dc:type rdf:resource="http://purl.org/dc/dcmitype/StillImage"/>
    <dc:date>2022-05-27T21:46:49.355211</dc:date>
    <dc:format>image/svg+xml</dc:format>
    <dc:creator>
     <cc:Agent>
      <dc:title>Matplotlib v3.3.4, https://matplotlib.org/</dc:title>
     </cc:Agent>
    </dc:creator>
   </cc:Work>
  </rdf:RDF>
 </metadata>
 <defs>
  <style type="text/css">*{stroke-linecap:butt;stroke-linejoin:round;}</style>
 </defs>
 <g id="figure_1">
  <g id="patch_1">
   <path d="M 0 310.86825 
L 408.10125 310.86825 
L 408.10125 0 
L 0 0 
z
" style="fill:#ffffff;"/>
  </g>
  <g id="axes_1">
   <g id="patch_2">
    <path d="M 43.78125 273.312 
L 400.90125 273.312 
L 400.90125 7.2 
L 43.78125 7.2 
z
" style="fill:#ffffff;"/>
   </g>
   <g id="PathCollection_1">
    <path clip-path="url(#p8a6e32b2ed)" d="M 60.013977 49.140064 
C 60.809587 49.140064 61.572717 48.823965 62.135298 48.261385 
C 62.697878 47.698804 63.013977 46.935673 63.013977 46.140064 
C 63.013977 45.344455 62.697878 44.581325 62.135298 44.018744 
C 61.572717 43.456163 60.809587 43.140064 60.013977 43.140064 
C 59.218368 43.140064 58.455238 43.456163 57.892657 44.018744 
C 57.330076 44.581325 57.013977 45.344455 57.013977 46.140064 
C 57.013977 46.935673 57.330076 47.698804 57.892657 48.261385 
C 58.455238 48.823965 59.218368 49.140064 60.013977 49.140064 
z
" style="fill:#f26b38;stroke:#ffffff;stroke-width:0.48;"/>
    <path clip-path="url(#p8a6e32b2ed)" d="M 66.777614 47.26098 
C 67.573223 47.26098 68.336353 46.944881 68.898934 46.3823 
C 69.461515 45.819719 69.777614 45.056589 69.777614 44.26098 
C 69.777614 43.46537 69.461515 42.70224 68.898934 42.139659 
C 68.336353 41.577079 67.573223 41.26098 66.777614 41.26098 
C 65.982004 41.26098 65.218874 41.577079 64.656293 42.139659 
C 64.093713 42.70224 63.777614 43.46537 63.777614 44.26098 
C 63.777614 45.056589 64.093713 45.819719 64.656293 46.3823 
C 65.218874 46.944881 65.982004 47.26098 66.777614 47.26098 
z
" style="fill:#f26b38;stroke:#ffffff;stroke-width:0.48;"/>
    <path clip-path="url(#p8a6e32b2ed)" d="M 73.54125 43.719628 
C 74.336859 43.719628 75.09999 43.403529 75.66257 42.840948 
C 76.225151 42.278368 76.54125 41.515237 76.54125 40.719628 
C 76.54125 39.924019 76.225151 39.160889 75.66257 38.598308 
C 75.09999 38.035727 74.336859 37.719628 73.54125 37.719628 
C 72.745641 37.719628 71.98251 38.035727 71.41993 38.598308 
C 70.857349 39.160889 70.54125 39.924019 70.54125 40.719628 
C 70.54125 41.515237 70.857349 42.278368 71.41993 42.840948 
C 71.98251 43.403529 72.745641 43.719628 73.54125 43.719628 
z
" style="fill:#f26b38;stroke:#ffffff;stroke-width:0.48;"/>
    <path clip-path="url(#p8a6e32b2ed)" d="M 80.304886 72.230509 
C 81.100496 72.230509 81.863626 71.91441 82.426207 71.35183 
C 82.988787 70.789249 83.304886 70.026118 83.304886 69.230509 
C 83.304886 68.4349 82.988787 67.67177 82.426207 67.109189 
C 81.863626 66.546608 81.100496 66.230509 80.304886 66.230509 
C 79.509277 66.230509 78.746147 66.546608 78.183566 67.109189 
C 77.620985 67.67177 77.304886 68.4349 77.304886 69.230509 
C 77.304886 70.026118 77.620985 70.789249 78.183566 71.35183 
C 78.746147 71.91441 79.509277 72.230509 80.304886 72.230509 
z
" style="fill:#f26b38;stroke:#ffffff;stroke-width:0.48;"/>
    <path clip-path="url(#p8a6e32b2ed)" d="M 87.068523 98.15966 
C 87.864132 98.15966 88.627262 97.843561 89.189843 97.28098 
C 89.752424 96.718399 90.068523 95.955269 90.068523 95.15966 
C 90.068523 94.36405 89.752424 93.60092 89.189843 93.038339 
C 88.627262 92.475759 87.864132 92.15966 87.068523 92.15966 
C 86.272913 92.15966 85.509783 92.475759 84.947202 93.038339 
C 84.384622 93.60092 84.068523 94.36405 84.068523 95.15966 
C 84.068523 95.955269 84.384622 96.718399 84.947202 97.28098 
C 85.509783 97.843561 86.272913 98.15966 87.068523 98.15966 
z
" style="fill:#f26b38;stroke:#ffffff;stroke-width:0.48;"/>
    <path clip-path="url(#p8a6e32b2ed)" d="M 93.832159 114.908021 
C 94.627768 114.908021 95.390899 114.591922 95.953479 114.029342 
C 96.51606 113.466761 96.832159 112.703631 96.832159 111.908021 
C 96.832159 111.112412 96.51606 110.349282 95.953479 109.786701 
C 95.390899 109.22412 94.627768 108.908021 93.832159 108.908021 
C 93.03655 108.908021 92.273419 109.22412 91.710839 109.786701 
C 91.148258 110.349282 90.832159 111.112412 90.832159 111.908021 
C 90.832159 112.703631 91.148258 113.466761 91.710839 114.029342 
C 92.273419 114.591922 93.03655 114.908021 93.832159 114.908021 
z
" style="fill:#f26b38;stroke:#ffffff;stroke-width:0.48;"/>
    <path clip-path="url(#p8a6e32b2ed)" d="M 100.595795 119.605733 
C 101.391405 119.605733 102.154535 119.289634 102.717116 118.727053 
C 103.279697 118.164472 103.595795 117.401342 103.595795 116.605733 
C 103.595795 115.810123 103.279697 115.046993 102.717116 114.484412 
C 102.154535 113.921832 101.391405 113.605733 100.595795 113.605733 
C 99.800186 113.605733 99.037056 113.921832 98.474475 114.484412 
C 97.911894 115.046993 97.595795 115.810123 97.595795 116.605733 
C 97.595795 117.401342 97.911894 118.164472 98.474475 118.727053 
C 99.037056 119.289634 99.800186 119.605733 100.595795 119.605733 
z
" style="fill:#f26b38;stroke:#ffffff;stroke-width:0.48;"/>
    <path clip-path="url(#p8a6e32b2ed)" d="M 107.359432 119.605733 
C 108.155041 119.605733 108.918171 119.289634 109.480752 118.727053 
C 110.043333 118.164472 110.359432 117.401342 110.359432 116.605733 
C 110.359432 115.810123 110.043333 115.046993 109.480752 114.484412 
C 108.918171 113.921832 108.155041 113.605733 107.359432 113.605733 
C 106.563823 113.605733 105.800692 113.921832 105.238111 114.484412 
C 104.675531 115.046993 104.359432 115.810123 104.359432 116.605733 
C 104.359432 117.401342 104.675531 118.164472 105.238111 118.727053 
C 105.800692 119.289634 106.563823 119.605733 107.359432 119.605733 
z
" style="fill:#f26b38;stroke:#ffffff;stroke-width:0.48;"/>
    <path clip-path="url(#p8a6e32b2ed)" d="M 114.123068 115.038513 
C 114.918677 115.038513 115.681808 114.722414 116.244389 114.159834 
C 116.806969 113.597253 117.123068 112.834123 117.123068 112.038513 
C 117.123068 111.242904 116.806969 110.479774 116.244389 109.917193 
C 115.681808 109.354612 114.918677 109.038513 114.123068 109.038513 
C 113.327459 109.038513 112.564329 109.354612 112.001748 109.917193 
C 111.439167 110.479774 111.123068 111.242904 111.123068 112.038513 
C 111.123068 112.834123 111.439167 113.597253 112.001748 114.159834 
C 112.564329 114.722414 113.327459 115.038513 114.123068 115.038513 
z
" style="fill:#f26b38;stroke:#ffffff;stroke-width:0.48;"/>
    <path clip-path="url(#p8a6e32b2ed)" d="M 120.886705 117.222836 
C 121.682314 117.222836 122.445444 116.906737 123.008025 116.344156 
C 123.570606 115.781575 123.886705 115.018445 123.886705 114.222836 
C 123.886705 113.427226 123.570606 112.664096 123.008025 112.101515 
C 122.445444 111.538935 121.682314 111.222836 120.886705 111.222836 
C 120.091095 111.222836 119.327965 111.538935 118.765384 112.101515 
C 118.202803 112.664096 117.886705 113.427226 117.886705 114.222836 
C 117.886705 115.018445 118.202803 115.781575 118.765384 116.344156 
C 119.327965 116.906737 120.091095 117.222836 120.886705 117.222836 
z
" style="fill:#f26b38;stroke:#ffffff;stroke-width:0.48;"/>
    <path clip-path="url(#p8a6e32b2ed)" d="M 127.650341 131.520218 
C 128.44595 131.520218 129.209081 131.204119 129.771661 130.641538 
C 130.334242 130.078957 130.650341 129.315827 130.650341 128.520218 
C 130.650341 127.724608 130.334242 126.961478 129.771661 126.398897 
C 129.209081 125.836317 128.44595 125.520218 127.650341 125.520218 
C 126.854732 125.520218 126.091601 125.836317 125.529021 126.398897 
C 124.96644 126.961478 124.650341 127.724608 124.650341 128.520218 
C 124.650341 129.315827 124.96644 130.078957 125.529021 130.641538 
C 126.091601 131.204119 126.854732 131.520218 127.650341 131.520218 
z
" style="fill:#f26b38;stroke:#ffffff;stroke-width:0.48;"/>
    <path clip-path="url(#p8a6e32b2ed)" d="M 134.413977 138.396578 
C 135.209587 138.396578 135.972717 138.080479 136.535298 137.517898 
C 137.097878 136.955317 137.413977 136.192187 137.413977 135.396578 
C 137.413977 134.600968 137.097878 133.837838 136.535298 133.275257 
C 135.972717 132.712676 135.209587 132.396578 134.413977 132.396578 
C 133.618368 132.396578 132.855238 132.712676 132.292657 133.275257 
C 131.730076 133.837838 131.413977 134.600968 131.413977 135.396578 
C 131.413977 136.192187 131.730076 136.955317 132.292657 137.517898 
C 132.855238 138.080479 133.618368 138.396578 134.413977 138.396578 
z
" style="fill:#f26b38;stroke:#ffffff;stroke-width:0.48;"/>
    <path clip-path="url(#p8a6e32b2ed)" d="M 141.177614 171.527804 
C 141.973223 171.527804 142.736353 171.211705 143.298934 170.649124 
C 143.861515 170.086544 144.177614 169.323413 144.177614 168.527804 
C 144.177614 167.732195 143.861515 166.969064 143.298934 166.406484 
C 142.736353 165.843903 141.973223 165.527804 141.177614 165.527804 
C 140.382004 165.527804 139.618874 165.843903 139.056293 166.406484 
C 138.493713 166.969064 138.177614 167.732195 138.177614 168.527804 
C 138.177614 169.323413 138.493713 170.086544 139.056293 170.649124 
C 139.618874 171.211705 140.382004 171.527804 141.177614 171.527804 
z
" style="fill:#f26b38;stroke:#ffffff;stroke-width:0.48;"/>
    <path clip-path="url(#p8a6e32b2ed)" d="M 147.94125 172.988815 
C 148.736859 172.988815 149.49999 172.672716 150.06257 172.110135 
C 150.625151 171.547554 150.94125 170.784424 150.94125 169.988815 
C 150.94125 169.193205 150.625151 168.430075 150.06257 167.867494 
C 149.49999 167.304914 148.736859 166.988815 147.94125 166.988815 
C 147.145641 166.988815 146.38251 167.304914 145.81993 167.867494 
C 145.257349 168.430075 144.94125 169.193205 144.94125 169.988815 
C 144.94125 170.784424 145.257349 171.547554 145.81993 172.110135 
C 146.38251 172.672716 147.145641 172.988815 147.94125 172.988815 
z
" style="fill:#f26b38;stroke:#ffffff;stroke-width:0.48;"/>
    <path clip-path="url(#p8a6e32b2ed)" d="M 154.704886 158.173362 
C 155.500496 158.173362 156.263626 157.857263 156.826207 157.294682 
C 157.388787 156.732101 157.704886 155.968971 157.704886 155.173362 
C 157.704886 154.377753 157.388787 153.614622 156.826207 153.052042 
C 156.263626 152.489461 155.500496 152.173362 154.704886 152.173362 
C 153.909277 152.173362 153.146147 152.489461 152.583566 153.052042 
C 152.020985 153.614622 151.704886 154.377753 151.704886 155.173362 
C 151.704886 155.968971 152.020985 156.732101 152.583566 157.294682 
C 153.146147 157.857263 153.909277 158.173362 154.704886 158.173362 
z
" style="fill:#f26b38;stroke:#ffffff;stroke-width:0.48;"/>
    <path clip-path="url(#p8a6e32b2ed)" d="M 161.468523 158.173362 
C 162.264132 158.173362 163.027262 157.857263 163.589843 157.294682 
C 164.152424 156.732101 164.468523 155.968971 164.468523 155.173362 
C 164.468523 154.377753 164.152424 153.614622 163.589843 153.052042 
C 163.027262 152.489461 162.264132 152.173362 161.468523 152.173362 
C 160.672913 152.173362 159.909783 152.489461 159.347202 153.052042 
C 158.784622 153.614622 158.468523 154.377753 158.468523 155.173362 
C 158.468523 155.968971 158.784622 156.732101 159.347202 157.294682 
C 159.909783 157.857263 160.672913 158.173362 161.468523 158.173362 
z
" style="fill:#f26b38;stroke:#ffffff;stroke-width:0.48;"/>
    <path clip-path="url(#p8a6e32b2ed)" d="M 168.232159 158.173362 
C 169.027768 158.173362 169.790899 157.857263 170.353479 157.294682 
C 170.91606 156.732101 171.232159 155.968971 171.232159 155.173362 
C 171.232159 154.377753 170.91606 153.614622 170.353479 153.052042 
C 169.790899 152.489461 169.027768 152.173362 168.232159 152.173362 
C 167.43655 152.173362 166.673419 152.489461 166.110839 153.052042 
C 165.548258 153.614622 165.232159 154.377753 165.232159 155.173362 
C 165.232159 155.968971 165.548258 156.732101 166.110839 157.294682 
C 166.673419 157.857263 167.43655 158.173362 168.232159 158.173362 
z
" style="fill:#f26b38;stroke:#ffffff;stroke-width:0.48;"/>
    <path clip-path="url(#p8a6e32b2ed)" d="M 174.995795 158.173362 
C 175.791405 158.173362 176.554535 157.857263 177.117116 157.294682 
C 177.679697 156.732101 177.995795 155.968971 177.995795 155.173362 
C 177.995795 154.377753 177.679697 153.614622 177.117116 153.052042 
C 176.554535 152.489461 175.791405 152.173362 174.995795 152.173362 
C 174.200186 152.173362 173.437056 152.489461 172.874475 153.052042 
C 172.311894 153.614622 171.995795 154.377753 171.995795 155.173362 
C 171.995795 155.968971 172.311894 156.732101 172.874475 157.294682 
C 173.437056 157.857263 174.200186 158.173362 174.995795 158.173362 
z
" style="fill:#f26b38;stroke:#ffffff;stroke-width:0.48;"/>
    <path clip-path="url(#p8a6e32b2ed)" d="M 181.759432 175.749111 
C 182.555041 175.749111 183.318171 175.433012 183.880752 174.870431 
C 184.443333 174.30785 184.759432 173.54472 184.759432 172.749111 
C 184.759432 171.953501 184.443333 171.190371 183.880752 170.62779 
C 183.318171 170.06521 182.555041 169.749111 181.759432 169.749111 
C 180.963823 169.749111 180.200692 170.06521 179.638111 170.62779 
C 179.075531 171.190371 178.759432 171.953501 178.759432 172.749111 
C 178.759432 173.54472 179.075531 174.30785 179.638111 174.870431 
C 180.200692 175.433012 180.963823 175.749111 181.759432 175.749111 
z
" style="fill:#f26b38;stroke:#ffffff;stroke-width:0.48;"/>
    <path clip-path="url(#p8a6e32b2ed)" d="M 188.523068 161.205947 
C 189.318677 161.205947 190.081808 160.889848 190.644389 160.327267 
C 191.206969 159.764686 191.523068 159.001556 191.523068 158.205947 
C 191.523068 157.410337 191.206969 156.647207 190.644389 156.084626 
C 190.081808 155.522045 189.318677 155.205947 188.523068 155.205947 
C 187.727459 155.205947 186.964329 155.522045 186.401748 156.084626 
C 185.839167 156.647207 185.523068 157.410337 185.523068 158.205947 
C 185.523068 159.001556 185.839167 159.764686 186.401748 160.327267 
C 186.964329 160.889848 187.727459 161.205947 188.523068 161.205947 
z
" style="fill:#f26b38;stroke:#ffffff;stroke-width:0.48;"/>
    <path clip-path="url(#p8a6e32b2ed)" d="M 195.286705 181.015572 
C 196.082314 181.015572 196.845444 180.699473 197.408025 180.136893 
C 197.970606 179.574312 198.286705 178.811181 198.286705 178.015572 
C 198.286705 177.219963 197.970606 176.456833 197.408025 175.894252 
C 196.845444 175.331671 196.082314 175.015572 195.286705 175.015572 
C 194.491095 175.015572 193.727965 175.331671 193.165384 175.894252 
C 192.602803 176.456833 192.286705 177.219963 192.286705 178.015572 
C 192.286705 178.811181 192.602803 179.574312 193.165384 180.136893 
C 193.727965 180.699473 194.491095 181.015572 195.286705 181.015572 
z
" style="fill:#f26b38;stroke:#ffffff;stroke-width:0.48;"/>
    <path clip-path="url(#p8a6e32b2ed)" d="M 202.050341 181.015572 
C 202.84595 181.015572 203.609081 180.699473 204.171661 180.136893 
C 204.734242 179.574312 205.050341 178.811181 205.050341 178.015572 
C 205.050341 177.219963 204.734242 176.456833 204.171661 175.894252 
C 203.609081 175.331671 202.84595 175.015572 202.050341 175.015572 
C 201.254732 175.015572 200.491601 175.331671 199.929021 175.894252 
C 199.36644 176.456833 199.050341 177.219963 199.050341 178.015572 
C 199.050341 178.811181 199.36644 179.574312 199.929021 180.136893 
C 200.491601 180.699473 201.254732 181.015572 202.050341 181.015572 
z
" style="fill:#f26b38;stroke:#ffffff;stroke-width:0.48;"/>
    <path clip-path="url(#p8a6e32b2ed)" d="M 208.813977 181.015572 
C 209.609587 181.015572 210.372717 180.699473 210.935298 180.136893 
C 211.497878 179.574312 211.813977 178.811181 211.813977 178.015572 
C 211.813977 177.219963 211.497878 176.456833 210.935298 175.894252 
C 210.372717 175.331671 209.609587 175.015572 208.813977 175.015572 
C 208.018368 175.015572 207.255238 175.331671 206.692657 175.894252 
C 206.130076 176.456833 205.813977 177.219963 205.813977 178.015572 
C 205.813977 178.811181 206.130076 179.574312 206.692657 180.136893 
C 207.255238 180.699473 208.018368 181.015572 208.813977 181.015572 
z
" style="fill:#f26b38;stroke:#ffffff;stroke-width:0.48;"/>
    <path clip-path="url(#p8a6e32b2ed)" d="M 215.577614 177.053647 
C 216.373223 177.053647 217.136353 176.737548 217.698934 176.174967 
C 218.261515 175.612387 218.577614 174.849256 218.577614 174.053647 
C 218.577614 173.258038 218.261515 172.494907 217.698934 171.932327 
C 217.136353 171.369746 216.373223 171.053647 215.577614 171.053647 
C 214.782004 171.053647 214.018874 171.369746 213.456293 171.932327 
C 212.893713 172.494907 212.577614 173.258038 212.577614 174.053647 
C 212.577614 174.849256 212.893713 175.612387 213.456293 176.174967 
C 214.018874 176.737548 214.782004 177.053647 215.577614 177.053647 
z
" style="fill:#f26b38;stroke:#ffffff;stroke-width:0.48;"/>
    <path clip-path="url(#p8a6e32b2ed)" d="M 222.34125 200.825198 
C 223.136859 200.825198 223.89999 200.509099 224.46257 199.946518 
C 225.025151 199.383937 225.34125 198.620807 225.34125 197.825198 
C 225.34125 197.029589 225.025151 196.266458 224.46257 195.703878 
C 223.89999 195.141297 223.136859 194.825198 222.34125 194.825198 
C 221.545641 194.825198 220.78251 195.141297 220.21993 195.703878 
C 219.657349 196.266458 219.34125 197.029589 219.34125 197.825198 
C 219.34125 198.620807 219.657349 199.383937 220.21993 199.946518 
C 220.78251 200.509099 221.545641 200.825198 222.34125 200.825198 
z
" style="fill:#f26b38;stroke:#ffffff;stroke-width:0.48;"/>
    <path clip-path="url(#p8a6e32b2ed)" d="M 229.104886 240.444449 
C 229.900496 240.444449 230.663626 240.12835 231.226207 239.56577 
C 231.788787 239.003189 232.104886 238.240058 232.104886 237.444449 
C 232.104886 236.64884 231.788787 235.88571 231.226207 235.323129 
C 230.663626 234.760548 229.900496 234.444449 229.104886 234.444449 
C 228.309277 234.444449 227.546147 234.760548 226.983566 235.323129 
C 226.420985 235.88571 226.104886 236.64884 226.104886 237.444449 
C 226.104886 238.240058 226.420985 239.003189 226.983566 239.56577 
C 227.546147 240.12835 228.309277 240.444449 229.104886 240.444449 
z
" style="fill:#f26b38;stroke:#ffffff;stroke-width:0.48;"/>
    <path clip-path="url(#p8a6e32b2ed)" d="M 235.868523 240.444449 
C 236.664132 240.444449 237.427262 240.12835 237.989843 239.56577 
C 238.552424 239.003189 238.868523 238.240058 238.868523 237.444449 
C 238.868523 236.64884 238.552424 235.88571 237.989843 235.323129 
C 237.427262 234.760548 236.664132 234.444449 235.868523 234.444449 
C 235.072913 234.444449 234.309783 234.760548 233.747202 235.323129 
C 233.184622 235.88571 232.868523 236.64884 232.868523 237.444449 
C 232.868523 238.240058 233.184622 239.003189 233.747202 239.56577 
C 234.309783 240.12835 235.072913 240.444449 235.868523 240.444449 
z
" style="fill:#f26b38;stroke:#ffffff;stroke-width:0.48;"/>
    <path clip-path="url(#p8a6e32b2ed)" d="M 242.632159 240.444449 
C 243.427768 240.444449 244.190899 240.12835 244.753479 239.56577 
C 245.31606 239.003189 245.632159 238.240058 245.632159 237.444449 
C 245.632159 236.64884 245.31606 235.88571 244.753479 235.323129 
C 244.190899 234.760548 243.427768 234.444449 242.632159 234.444449 
C 241.83655 234.444449 241.073419 234.760548 240.510839 235.323129 
C 239.948258 235.88571 239.632159 236.64884 239.632159 237.444449 
C 239.632159 238.240058 239.948258 239.003189 240.510839 239.56577 
C 241.073419 240.12835 241.83655 240.444449 242.632159 240.444449 
z
" style="fill:#f26b38;stroke:#ffffff;stroke-width:0.48;"/>
    <path clip-path="url(#p8a6e32b2ed)" d="M 249.395795 240.444449 
C 250.191405 240.444449 250.954535 240.12835 251.517116 239.56577 
C 252.079697 239.003189 252.395795 238.240058 252.395795 237.444449 
C 252.395795 236.64884 252.079697 235.88571 251.517116 235.323129 
C 250.954535 234.760548 250.191405 234.444449 249.395795 234.444449 
C 248.600186 234.444449 247.837056 234.760548 247.274475 235.323129 
C 246.711894 235.88571 246.395795 236.64884 246.395795 237.444449 
C 246.395795 238.240058 246.711894 239.003189 247.274475 239.56577 
C 247.837056 240.12835 248.600186 240.444449 249.395795 240.444449 
z
" style="fill:#f26b38;stroke:#ffffff;stroke-width:0.48;"/>
    <path clip-path="url(#p8a6e32b2ed)" d="M 256.159432 240.444449 
C 256.955041 240.444449 257.718171 240.12835 258.280752 239.56577 
C 258.843333 239.003189 259.159432 238.240058 259.159432 237.444449 
C 259.159432 236.64884 258.843333 235.88571 258.280752 235.323129 
C 257.718171 234.760548 256.955041 234.444449 256.159432 234.444449 
C 255.363823 234.444449 254.600692 234.760548 254.038111 235.323129 
C 253.475531 235.88571 253.159432 236.64884 253.159432 237.444449 
C 253.159432 238.240058 253.475531 239.003189 254.038111 239.56577 
C 254.600692 240.12835 255.363823 240.444449 256.159432 240.444449 
z
" style="fill:#f26b38;stroke:#ffffff;stroke-width:0.48;"/>
    <path clip-path="url(#p8a6e32b2ed)" d="M 262.923068 240.444449 
C 263.718677 240.444449 264.481808 240.12835 265.044389 239.56577 
C 265.606969 239.003189 265.923068 238.240058 265.923068 237.444449 
C 265.923068 236.64884 265.606969 235.88571 265.044389 235.323129 
C 264.481808 234.760548 263.718677 234.444449 262.923068 234.444449 
C 262.127459 234.444449 261.364329 234.760548 260.801748 235.323129 
C 260.239167 235.88571 259.923068 236.64884 259.923068 237.444449 
C 259.923068 238.240058 260.239167 239.003189 260.801748 239.56577 
C 261.364329 240.12835 262.127459 240.444449 262.923068 240.444449 
z
" style="fill:#f26b38;stroke:#ffffff;stroke-width:0.48;"/>
    <path clip-path="url(#p8a6e32b2ed)" d="M 269.686705 240.444449 
C 270.482314 240.444449 271.245444 240.12835 271.808025 239.56577 
C 272.370606 239.003189 272.686705 238.240058 272.686705 237.444449 
C 272.686705 236.64884 272.370606 235.88571 271.808025 235.323129 
C 271.245444 234.760548 270.482314 234.444449 269.686705 234.444449 
C 268.891095 234.444449 268.127965 234.760548 267.565384 235.323129 
C 267.002803 235.88571 266.686705 236.64884 266.686705 237.444449 
C 266.686705 238.240058 267.002803 239.003189 267.565384 239.56577 
C 268.127965 240.12835 268.891095 240.444449 269.686705 240.444449 
z
" style="fill:#f26b38;stroke:#ffffff;stroke-width:0.48;"/>
    <path clip-path="url(#p8a6e32b2ed)" d="M 276.450341 240.444449 
C 277.24595 240.444449 278.009081 240.12835 278.571661 239.56577 
C 279.134242 239.003189 279.450341 238.240058 279.450341 237.444449 
C 279.450341 236.64884 279.134242 235.88571 278.571661 235.323129 
C 278.009081 234.760548 277.24595 234.444449 276.450341 234.444449 
C 275.654732 234.444449 274.891601 234.760548 274.329021 235.323129 
C 273.76644 235.88571 273.450341 236.64884 273.450341 237.444449 
C 273.450341 238.240058 273.76644 239.003189 274.329021 239.56577 
C 274.891601 240.12835 275.654732 240.444449 276.450341 240.444449 
z
" style="fill:#f26b38;stroke:#ffffff;stroke-width:0.48;"/>
    <path clip-path="url(#p8a6e32b2ed)" d="M 283.213977 240.444449 
C 284.009587 240.444449 284.772717 240.12835 285.335298 239.56577 
C 285.897878 239.003189 286.213977 238.240058 286.213977 237.444449 
C 286.213977 236.64884 285.897878 235.88571 285.335298 235.323129 
C 284.772717 234.760548 284.009587 234.444449 283.213977 234.444449 
C 282.418368 234.444449 281.655238 234.760548 281.092657 235.323129 
C 280.530076 235.88571 280.213977 236.64884 280.213977 237.444449 
C 280.213977 238.240058 280.530076 239.003189 281.092657 239.56577 
C 281.655238 240.12835 282.418368 240.444449 283.213977 240.444449 
z
" style="fill:#f26b38;stroke:#ffffff;stroke-width:0.48;"/>
    <path clip-path="url(#p8a6e32b2ed)" d="M 289.977614 240.444449 
C 290.773223 240.444449 291.536353 240.12835 292.098934 239.56577 
C 292.661515 239.003189 292.977614 238.240058 292.977614 237.444449 
C 292.977614 236.64884 292.661515 235.88571 292.098934 235.323129 
C 291.536353 234.760548 290.773223 234.444449 289.977614 234.444449 
C 289.182004 234.444449 288.418874 234.760548 287.856293 235.323129 
C 287.293713 235.88571 286.977614 236.64884 286.977614 237.444449 
C 286.977614 238.240058 287.293713 239.003189 287.856293 239.56577 
C 288.418874 240.12835 289.182004 240.444449 289.977614 240.444449 
z
" style="fill:#f26b38;stroke:#ffffff;stroke-width:0.48;"/>
    <path clip-path="url(#p8a6e32b2ed)" d="M 296.74125 240.444449 
C 297.536859 240.444449 298.29999 240.12835 298.86257 239.56577 
C 299.425151 239.003189 299.74125 238.240058 299.74125 237.444449 
C 299.74125 236.64884 299.425151 235.88571 298.86257 235.323129 
C 298.29999 234.760548 297.536859 234.444449 296.74125 234.444449 
C 295.945641 234.444449 295.18251 234.760548 294.61993 235.323129 
C 294.057349 235.88571 293.74125 236.64884 293.74125 237.444449 
C 293.74125 238.240058 294.057349 239.003189 294.61993 239.56577 
C 295.18251 240.12835 295.945641 240.444449 296.74125 240.444449 
z
" style="fill:#f26b38;stroke:#ffffff;stroke-width:0.48;"/>
    <path clip-path="url(#p8a6e32b2ed)" d="M 303.504886 240.444449 
C 304.300496 240.444449 305.063626 240.12835 305.626207 239.56577 
C 306.188787 239.003189 306.504886 238.240058 306.504886 237.444449 
C 306.504886 236.64884 306.188787 235.88571 305.626207 235.323129 
C 305.063626 234.760548 304.300496 234.444449 303.504886 234.444449 
C 302.709277 234.444449 301.946147 234.760548 301.383566 235.323129 
C 300.820985 235.88571 300.504886 236.64884 300.504886 237.444449 
C 300.504886 238.240058 300.820985 239.003189 301.383566 239.56577 
C 301.946147 240.12835 302.709277 240.444449 303.504886 240.444449 
z
" style="fill:#f26b38;stroke:#ffffff;stroke-width:0.48;"/>
    <path clip-path="url(#p8a6e32b2ed)" d="M 310.268523 240.444449 
C 311.064132 240.444449 311.827262 240.12835 312.389843 239.56577 
C 312.952424 239.003189 313.268523 238.240058 313.268523 237.444449 
C 313.268523 236.64884 312.952424 235.88571 312.389843 235.323129 
C 311.827262 234.760548 311.064132 234.444449 310.268523 234.444449 
C 309.472913 234.444449 308.709783 234.760548 308.147202 235.323129 
C 307.584622 235.88571 307.268523 236.64884 307.268523 237.444449 
C 307.268523 238.240058 307.584622 239.003189 308.147202 239.56577 
C 308.709783 240.12835 309.472913 240.444449 310.268523 240.444449 
z
" style="fill:#f26b38;stroke:#ffffff;stroke-width:0.48;"/>
    <path clip-path="url(#p8a6e32b2ed)" d="M 317.032159 240.444449 
C 317.827768 240.444449 318.590899 240.12835 319.153479 239.56577 
C 319.71606 239.003189 320.032159 238.240058 320.032159 237.444449 
C 320.032159 236.64884 319.71606 235.88571 319.153479 235.323129 
C 318.590899 234.760548 317.827768 234.444449 317.032159 234.444449 
C 316.23655 234.444449 315.473419 234.760548 314.910839 235.323129 
C 314.348258 235.88571 314.032159 236.64884 314.032159 237.444449 
C 314.032159 238.240058 314.348258 239.003189 314.910839 239.56577 
C 315.473419 240.12835 316.23655 240.444449 317.032159 240.444449 
z
" style="fill:#f26b38;stroke:#ffffff;stroke-width:0.48;"/>
    <path clip-path="url(#p8a6e32b2ed)" d="M 323.795795 240.444449 
C 324.591405 240.444449 325.354535 240.12835 325.917116 239.56577 
C 326.479697 239.003189 326.795795 238.240058 326.795795 237.444449 
C 326.795795 236.64884 326.479697 235.88571 325.917116 235.323129 
C 325.354535 234.760548 324.591405 234.444449 323.795795 234.444449 
C 323.000186 234.444449 322.237056 234.760548 321.674475 235.323129 
C 321.111894 235.88571 320.795795 236.64884 320.795795 237.444449 
C 320.795795 238.240058 321.111894 239.003189 321.674475 239.56577 
C 322.237056 240.12835 323.000186 240.444449 323.795795 240.444449 
z
" style="fill:#f26b38;stroke:#ffffff;stroke-width:0.48;"/>
    <path clip-path="url(#p8a6e32b2ed)" d="M 330.559432 240.444449 
C 331.355041 240.444449 332.118171 240.12835 332.680752 239.56577 
C 333.243333 239.003189 333.559432 238.240058 333.559432 237.444449 
C 333.559432 236.64884 333.243333 235.88571 332.680752 235.323129 
C 332.118171 234.760548 331.355041 234.444449 330.559432 234.444449 
C 329.763823 234.444449 329.000692 234.760548 328.438111 235.323129 
C 327.875531 235.88571 327.559432 236.64884 327.559432 237.444449 
C 327.559432 238.240058 327.875531 239.003189 328.438111 239.56577 
C 329.000692 240.12835 329.763823 240.444449 330.559432 240.444449 
z
" style="fill:#f26b38;stroke:#ffffff;stroke-width:0.48;"/>
    <path clip-path="url(#p8a6e32b2ed)" d="M 337.323068 240.444449 
C 338.118677 240.444449 338.881808 240.12835 339.444389 239.56577 
C 340.006969 239.003189 340.323068 238.240058 340.323068 237.444449 
C 340.323068 236.64884 340.006969 235.88571 339.444389 235.323129 
C 338.881808 234.760548 338.118677 234.444449 337.323068 234.444449 
C 336.527459 234.444449 335.764329 234.760548 335.201748 235.323129 
C 334.639167 235.88571 334.323068 236.64884 334.323068 237.444449 
C 334.323068 238.240058 334.639167 239.003189 335.201748 239.56577 
C 335.764329 240.12835 336.527459 240.444449 337.323068 240.444449 
z
" style="fill:#f26b38;stroke:#ffffff;stroke-width:0.48;"/>
    <path clip-path="url(#p8a6e32b2ed)" d="M 344.086705 240.444449 
C 344.882314 240.444449 345.645444 240.12835 346.208025 239.56577 
C 346.770606 239.003189 347.086705 238.240058 347.086705 237.444449 
C 347.086705 236.64884 346.770606 235.88571 346.208025 235.323129 
C 345.645444 234.760548 344.882314 234.444449 344.086705 234.444449 
C 343.291095 234.444449 342.527965 234.760548 341.965384 235.323129 
C 341.402803 235.88571 341.086705 236.64884 341.086705 237.444449 
C 341.086705 238.240058 341.402803 239.003189 341.965384 239.56577 
C 342.527965 240.12835 343.291095 240.444449 344.086705 240.444449 
z
" style="fill:#f26b38;stroke:#ffffff;stroke-width:0.48;"/>
    <path clip-path="url(#p8a6e32b2ed)" d="M 350.850341 240.444449 
C 351.64595 240.444449 352.409081 240.12835 352.971661 239.56577 
C 353.534242 239.003189 353.850341 238.240058 353.850341 237.444449 
C 353.850341 236.64884 353.534242 235.88571 352.971661 235.323129 
C 352.409081 234.760548 351.64595 234.444449 350.850341 234.444449 
C 350.054732 234.444449 349.291601 234.760548 348.729021 235.323129 
C 348.16644 235.88571 347.850341 236.64884 347.850341 237.444449 
C 347.850341 238.240058 348.16644 239.003189 348.729021 239.56577 
C 349.291601 240.12835 350.054732 240.444449 350.850341 240.444449 
z
" style="fill:#f26b38;stroke:#ffffff;stroke-width:0.48;"/>
    <path clip-path="url(#p8a6e32b2ed)" d="M 357.613977 240.444449 
C 358.409587 240.444449 359.172717 240.12835 359.735298 239.56577 
C 360.297878 239.003189 360.613977 238.240058 360.613977 237.444449 
C 360.613977 236.64884 360.297878 235.88571 359.735298 235.323129 
C 359.172717 234.760548 358.409587 234.444449 357.613977 234.444449 
C 356.818368 234.444449 356.055238 234.760548 355.492657 235.323129 
C 354.930076 235.88571 354.613977 236.64884 354.613977 237.444449 
C 354.613977 238.240058 354.930076 239.003189 355.492657 239.56577 
C 356.055238 240.12835 356.818368 240.444449 357.613977 240.444449 
z
" style="fill:#f26b38;stroke:#ffffff;stroke-width:0.48;"/>
    <path clip-path="url(#p8a6e32b2ed)" d="M 364.377614 240.444449 
C 365.173223 240.444449 365.936353 240.12835 366.498934 239.56577 
C 367.061515 239.003189 367.377614 238.240058 367.377614 237.444449 
C 367.377614 236.64884 367.061515 235.88571 366.498934 235.323129 
C 365.936353 234.760548 365.173223 234.444449 364.377614 234.444449 
C 363.582004 234.444449 362.818874 234.760548 362.256293 235.323129 
C 361.693713 235.88571 361.377614 236.64884 361.377614 237.444449 
C 361.377614 238.240058 361.693713 239.003189 362.256293 239.56577 
C 362.818874 240.12835 363.582004 240.444449 364.377614 240.444449 
z
" style="fill:#f26b38;stroke:#ffffff;stroke-width:0.48;"/>
    <path clip-path="url(#p8a6e32b2ed)" d="M 371.14125 240.444449 
C 371.936859 240.444449 372.69999 240.12835 373.26257 239.56577 
C 373.825151 239.003189 374.14125 238.240058 374.14125 237.444449 
C 374.14125 236.64884 373.825151 235.88571 373.26257 235.323129 
C 372.69999 234.760548 371.936859 234.444449 371.14125 234.444449 
C 370.345641 234.444449 369.58251 234.760548 369.01993 235.323129 
C 368.457349 235.88571 368.14125 236.64884 368.14125 237.444449 
C 368.14125 238.240058 368.457349 239.003189 369.01993 239.56577 
C 369.58251 240.12835 370.345641 240.444449 371.14125 240.444449 
z
" style="fill:#f26b38;stroke:#ffffff;stroke-width:0.48;"/>
    <path clip-path="url(#p8a6e32b2ed)" d="M 377.904886 240.444449 
C 378.700496 240.444449 379.463626 240.12835 380.026207 239.56577 
C 380.588787 239.003189 380.904886 238.240058 380.904886 237.444449 
C 380.904886 236.64884 380.588787 235.88571 380.026207 235.323129 
C 379.463626 234.760548 378.700496 234.444449 377.904886 234.444449 
C 377.109277 234.444449 376.346147 234.760548 375.783566 235.323129 
C 375.220985 235.88571 374.904886 236.64884 374.904886 237.444449 
C 374.904886 238.240058 375.220985 239.003189 375.783566 239.56577 
C 376.346147 240.12835 377.109277 240.444449 377.904886 240.444449 
z
" style="fill:#f26b38;stroke:#ffffff;stroke-width:0.48;"/>
    <path clip-path="url(#p8a6e32b2ed)" d="M 384.668523 240.444449 
C 385.464132 240.444449 386.227262 240.12835 386.789843 239.56577 
C 387.352424 239.003189 387.668523 238.240058 387.668523 237.444449 
C 387.668523 236.64884 387.352424 235.88571 386.789843 235.323129 
C 386.227262 234.760548 385.464132 234.444449 384.668523 234.444449 
C 383.872913 234.444449 383.109783 234.760548 382.547202 235.323129 
C 381.984622 235.88571 381.668523 236.64884 381.668523 237.444449 
C 381.668523 238.240058 381.984622 239.003189 382.547202 239.56577 
C 383.109783 240.12835 383.872913 240.444449 384.668523 240.444449 
z
" style="fill:#f26b38;stroke:#ffffff;stroke-width:0.48;"/>
    <path clip-path="url(#p8a6e32b2ed)" d="M 58.513977 161.885134 
L 60.013977 160.385134 
L 61.513977 161.885134 
L 63.013977 160.385134 
L 61.513977 158.885134 
L 63.013977 157.385134 
L 61.513977 155.885134 
L 60.013977 157.385134 
L 58.513977 155.885134 
L 57.013977 157.385134 
L 58.513977 158.885134 
L 57.013977 160.385134 
z
" style="fill:#2f9599;stroke:#ffffff;stroke-width:0.48;"/>
    <path clip-path="url(#p8a6e32b2ed)" d="M 65.277614 161.258772 
L 66.777614 159.758772 
L 68.277614 161.258772 
L 69.777614 159.758772 
L 68.277614 158.258772 
L 69.777614 156.758772 
L 68.277614 155.258772 
L 66.777614 156.758772 
L 65.277614 155.258772 
L 63.777614 156.758772 
L 65.277614 158.258772 
L 63.777614 159.758772 
z
" style="fill:#2f9599;stroke:#ffffff;stroke-width:0.48;"/>
    <path clip-path="url(#p8a6e32b2ed)" d="M 72.04125 150.583394 
L 73.54125 149.083394 
L 75.04125 150.583394 
L 76.54125 149.083394 
L 75.04125 147.583394 
L 76.54125 146.083394 
L 75.04125 144.583394 
L 73.54125 146.083394 
L 72.04125 144.583394 
L 70.54125 146.083394 
L 72.04125 147.583394 
L 70.54125 149.083394 
z
" style="fill:#2f9599;stroke:#ffffff;stroke-width:0.48;"/>
    <path clip-path="url(#p8a6e32b2ed)" d="M 78.804886 157.187422 
L 80.304886 155.687422 
L 81.804886 157.187422 
L 83.304886 155.687422 
L 81.804886 154.187422 
L 83.304886 152.687422 
L 81.804886 151.187422 
L 80.304886 152.687422 
L 78.804886 151.187422 
L 77.304886 152.687422 
L 78.804886 154.187422 
L 77.304886 155.687422 
z
" style="fill:#2f9599;stroke:#ffffff;stroke-width:0.48;"/>
    <path clip-path="url(#p8a6e32b2ed)" d="M 85.568523 170.027833 
L 87.068523 168.527833 
L 88.568523 170.027833 
L 90.068523 168.527833 
L 88.568523 167.027833 
L 90.068523 165.527833 
L 88.568523 164.027833 
L 87.068523 165.527833 
L 85.568523 164.027833 
L 84.068523 165.527833 
L 85.568523 167.027833 
L 84.068523 168.527833 
z
" style="fill:#2f9599;stroke:#ffffff;stroke-width:0.48;"/>
    <path clip-path="url(#p8a6e32b2ed)" d="M 92.332159 182.531865 
L 93.832159 181.031865 
L 95.332159 182.531865 
L 96.832159 181.031865 
L 95.332159 179.531865 
L 96.832159 178.031865 
L 95.332159 176.531865 
L 93.832159 178.031865 
L 92.332159 176.531865 
L 90.832159 178.031865 
L 92.332159 179.531865 
L 90.832159 181.031865 
z
" style="fill:#2f9599;stroke:#ffffff;stroke-width:0.48;"/>
    <path clip-path="url(#p8a6e32b2ed)" d="M 99.095795 182.531865 
L 100.595795 181.031865 
L 102.095795 182.531865 
L 103.595795 181.031865 
L 102.095795 179.531865 
L 103.595795 178.031865 
L 102.095795 176.531865 
L 100.595795 178.031865 
L 99.095795 176.531865 
L 97.595795 178.031865 
L 99.095795 179.531865 
L 97.595795 181.031865 
z
" style="fill:#2f9599;stroke:#ffffff;stroke-width:0.48;"/>
    <path clip-path="url(#p8a6e32b2ed)" d="M 105.859432 182.531865 
L 107.359432 181.031865 
L 108.859432 182.531865 
L 110.359432 181.031865 
L 108.859432 179.531865 
L 110.359432 178.031865 
L 108.859432 176.531865 
L 107.359432 178.031865 
L 105.859432 176.531865 
L 104.359432 178.031865 
L 105.859432 179.531865 
L 104.359432 181.031865 
z
" style="fill:#2f9599;stroke:#ffffff;stroke-width:0.48;"/>
    <path clip-path="url(#p8a6e32b2ed)" d="M 112.623068 182.531865 
L 114.123068 181.031865 
L 115.623068 182.531865 
L 117.123068 181.031865 
L 115.623068 179.531865 
L 117.123068 178.031865 
L 115.623068 176.531865 
L 114.123068 178.031865 
L 112.623068 176.531865 
L 111.123068 178.031865 
L 112.623068 179.531865 
L 111.123068 181.031865 
z
" style="fill:#2f9599;stroke:#ffffff;stroke-width:0.48;"/>
    <path clip-path="url(#p8a6e32b2ed)" d="M 119.386705 175.749111 
L 120.886705 174.249111 
L 122.386705 175.749111 
L 123.886705 174.249111 
L 122.386705 172.749111 
L 123.886705 171.249111 
L 122.386705 169.749111 
L 120.886705 171.249111 
L 119.386705 169.749111 
L 117.886705 171.249111 
L 119.386705 172.749111 
L 117.886705 174.249111 
z
" style="fill:#2f9599;stroke:#ffffff;stroke-width:0.48;"/>
    <path clip-path="url(#p8a6e32b2ed)" d="M 126.150341 161.205947 
L 127.650341 159.705947 
L 129.150341 161.205947 
L 130.650341 159.705947 
L 129.150341 158.205947 
L 130.650341 156.705947 
L 129.150341 155.205947 
L 127.650341 156.705947 
L 126.150341 155.205947 
L 124.650341 156.705947 
L 126.150341 158.205947 
L 124.650341 159.705947 
z
" style="fill:#2f9599;stroke:#ffffff;stroke-width:0.48;"/>
    <path clip-path="url(#p8a6e32b2ed)" d="M 132.913977 204.787123 
L 134.413977 203.287123 
L 135.913977 204.787123 
L 137.413977 203.287123 
L 135.913977 201.787123 
L 137.413977 200.287123 
L 135.913977 198.787123 
L 134.413977 200.287123 
L 132.913977 198.787123 
L 131.413977 200.287123 
L 132.913977 201.787123 
L 131.413977 203.287123 
z
" style="fill:#2f9599;stroke:#ffffff;stroke-width:0.48;"/>
    <path clip-path="url(#p8a6e32b2ed)" d="M 139.677614 204.787123 
L 141.177614 203.287123 
L 142.677614 204.787123 
L 144.177614 203.287123 
L 142.677614 201.787123 
L 144.177614 200.287123 
L 142.677614 198.787123 
L 141.177614 200.287123 
L 139.677614 198.787123 
L 138.177614 200.287123 
L 139.677614 201.787123 
L 138.177614 203.287123 
z
" style="fill:#2f9599;stroke:#ffffff;stroke-width:0.48;"/>
    <path clip-path="url(#p8a6e32b2ed)" d="M 146.44125 204.787123 
L 147.94125 203.287123 
L 149.44125 204.787123 
L 150.94125 203.287123 
L 149.44125 201.787123 
L 150.94125 200.287123 
L 149.44125 198.787123 
L 147.94125 200.287123 
L 146.44125 198.787123 
L 144.94125 200.287123 
L 146.44125 201.787123 
L 144.94125 203.287123 
z
" style="fill:#2f9599;stroke:#ffffff;stroke-width:0.48;"/>
    <path clip-path="url(#p8a6e32b2ed)" d="M 153.204886 204.787123 
L 154.704886 203.287123 
L 156.204886 204.787123 
L 157.704886 203.287123 
L 156.204886 201.787123 
L 157.704886 200.287123 
L 156.204886 198.787123 
L 154.704886 200.287123 
L 153.204886 198.787123 
L 151.704886 200.287123 
L 153.204886 201.787123 
L 151.704886 203.287123 
z
" style="fill:#2f9599;stroke:#ffffff;stroke-width:0.48;"/>
    <path clip-path="url(#p8a6e32b2ed)" d="M 159.968523 200.825198 
L 161.468523 199.325198 
L 162.968523 200.825198 
L 164.468523 199.325198 
L 162.968523 197.825198 
L 164.468523 196.325198 
L 162.968523 194.825198 
L 161.468523 196.325198 
L 159.968523 194.825198 
L 158.468523 196.325198 
L 159.968523 197.825198 
L 158.468523 199.325198 
z
" style="fill:#2f9599;stroke:#ffffff;stroke-width:0.48;"/>
    <path clip-path="url(#p8a6e32b2ed)" d="M 166.732159 264.216 
L 168.232159 262.716 
L 169.732159 264.216 
L 171.232159 262.716 
L 169.732159 261.216 
L 171.232159 259.716 
L 169.732159 258.216 
L 168.232159 259.716 
L 166.732159 258.216 
L 165.232159 259.716 
L 166.732159 261.216 
L 165.232159 262.716 
z
" style="fill:#2f9599;stroke:#ffffff;stroke-width:0.48;"/>
    <path clip-path="url(#p8a6e32b2ed)" d="M 173.495795 264.216 
L 174.995795 262.716 
L 176.495795 264.216 
L 177.995795 262.716 
L 176.495795 261.216 
L 177.995795 259.716 
L 176.495795 258.216 
L 174.995795 259.716 
L 173.495795 258.216 
L 171.995795 259.716 
L 173.495795 261.216 
L 171.995795 262.716 
z
" style="fill:#2f9599;stroke:#ffffff;stroke-width:0.48;"/>
    <path clip-path="url(#p8a6e32b2ed)" d="M 180.259432 264.216 
L 181.759432 262.716 
L 183.259432 264.216 
L 184.759432 262.716 
L 183.259432 261.216 
L 184.759432 259.716 
L 183.259432 258.216 
L 181.759432 259.716 
L 180.259432 258.216 
L 178.759432 259.716 
L 180.259432 261.216 
L 178.759432 262.716 
z
" style="fill:#2f9599;stroke:#ffffff;stroke-width:0.48;"/>
    <path clip-path="url(#p8a6e32b2ed)" d="M 187.023068 264.216 
L 188.523068 262.716 
L 190.023068 264.216 
L 191.523068 262.716 
L 190.023068 261.216 
L 191.523068 259.716 
L 190.023068 258.216 
L 188.523068 259.716 
L 187.023068 258.216 
L 185.523068 259.716 
L 187.023068 261.216 
L 185.523068 262.716 
z
" style="fill:#2f9599;stroke:#ffffff;stroke-width:0.48;"/>
    <path clip-path="url(#p8a6e32b2ed)" d="M 193.786705 264.216 
L 195.286705 262.716 
L 196.786705 264.216 
L 198.286705 262.716 
L 196.786705 261.216 
L 198.286705 259.716 
L 196.786705 258.216 
L 195.286705 259.716 
L 193.786705 258.216 
L 192.286705 259.716 
L 193.786705 261.216 
L 192.286705 262.716 
z
" style="fill:#2f9599;stroke:#ffffff;stroke-width:0.48;"/>
    <path clip-path="url(#p8a6e32b2ed)" d="M 200.550341 264.216 
L 202.050341 262.716 
L 203.550341 264.216 
L 205.050341 262.716 
L 203.550341 261.216 
L 205.050341 259.716 
L 203.550341 258.216 
L 202.050341 259.716 
L 200.550341 258.216 
L 199.050341 259.716 
L 200.550341 261.216 
L 199.050341 262.716 
z
" style="fill:#2f9599;stroke:#ffffff;stroke-width:0.48;"/>
    <path clip-path="url(#p8a6e32b2ed)" d="M 207.313977 264.216 
L 208.813977 262.716 
L 210.313977 264.216 
L 211.813977 262.716 
L 210.313977 261.216 
L 211.813977 259.716 
L 210.313977 258.216 
L 208.813977 259.716 
L 207.313977 258.216 
L 205.813977 259.716 
L 207.313977 261.216 
L 205.813977 262.716 
z
" style="fill:#2f9599;stroke:#ffffff;stroke-width:0.48;"/>
    <path clip-path="url(#p8a6e32b2ed)" d="M 214.077614 264.216 
L 215.577614 262.716 
L 217.077614 264.216 
L 218.577614 262.716 
L 217.077614 261.216 
L 218.577614 259.716 
L 217.077614 258.216 
L 215.577614 259.716 
L 214.077614 258.216 
L 212.577614 259.716 
L 214.077614 261.216 
L 212.577614 262.716 
z
" style="fill:#2f9599;stroke:#ffffff;stroke-width:0.48;"/>
    <path clip-path="url(#p8a6e32b2ed)" d="M 220.84125 264.216 
L 222.34125 262.716 
L 223.84125 264.216 
L 225.34125 262.716 
L 223.84125 261.216 
L 225.34125 259.716 
L 223.84125 258.216 
L 222.34125 259.716 
L 220.84125 258.216 
L 219.34125 259.716 
L 220.84125 261.216 
L 219.34125 262.716 
z
" style="fill:#2f9599;stroke:#ffffff;stroke-width:0.48;"/>
    <path clip-path="url(#p8a6e32b2ed)" d="M 227.604886 264.216 
L 229.104886 262.716 
L 230.604886 264.216 
L 232.104886 262.716 
L 230.604886 261.216 
L 232.104886 259.716 
L 230.604886 258.216 
L 229.104886 259.716 
L 227.604886 258.216 
L 226.104886 259.716 
L 227.604886 261.216 
L 226.104886 262.716 
z
" style="fill:#2f9599;stroke:#ffffff;stroke-width:0.48;"/>
    <path clip-path="url(#p8a6e32b2ed)" d="M 234.368523 264.216 
L 235.868523 262.716 
L 237.368523 264.216 
L 238.868523 262.716 
L 237.368523 261.216 
L 238.868523 259.716 
L 237.368523 258.216 
L 235.868523 259.716 
L 234.368523 258.216 
L 232.868523 259.716 
L 234.368523 261.216 
L 232.868523 262.716 
z
" style="fill:#2f9599;stroke:#ffffff;stroke-width:0.48;"/>
    <path clip-path="url(#p8a6e32b2ed)" d="M 241.132159 264.216 
L 242.632159 262.716 
L 244.132159 264.216 
L 245.632159 262.716 
L 244.132159 261.216 
L 245.632159 259.716 
L 244.132159 258.216 
L 242.632159 259.716 
L 241.132159 258.216 
L 239.632159 259.716 
L 241.132159 261.216 
L 239.632159 262.716 
z
" style="fill:#2f9599;stroke:#ffffff;stroke-width:0.48;"/>
    <path clip-path="url(#p8a6e32b2ed)" d="M 247.895795 264.216 
L 249.395795 262.716 
L 250.895795 264.216 
L 252.395795 262.716 
L 250.895795 261.216 
L 252.395795 259.716 
L 250.895795 258.216 
L 249.395795 259.716 
L 247.895795 258.216 
L 246.395795 259.716 
L 247.895795 261.216 
L 246.395795 262.716 
z
" style="fill:#2f9599;stroke:#ffffff;stroke-width:0.48;"/>
    <path clip-path="url(#p8a6e32b2ed)" d="M 254.659432 264.216 
L 256.159432 262.716 
L 257.659432 264.216 
L 259.159432 262.716 
L 257.659432 261.216 
L 259.159432 259.716 
L 257.659432 258.216 
L 256.159432 259.716 
L 254.659432 258.216 
L 253.159432 259.716 
L 254.659432 261.216 
L 253.159432 262.716 
z
" style="fill:#2f9599;stroke:#ffffff;stroke-width:0.48;"/>
    <path clip-path="url(#p8a6e32b2ed)" d="M 261.423068 264.216 
L 262.923068 262.716 
L 264.423068 264.216 
L 265.923068 262.716 
L 264.423068 261.216 
L 265.923068 259.716 
L 264.423068 258.216 
L 262.923068 259.716 
L 261.423068 258.216 
L 259.923068 259.716 
L 261.423068 261.216 
L 259.923068 262.716 
z
" style="fill:#2f9599;stroke:#ffffff;stroke-width:0.48;"/>
    <path clip-path="url(#p8a6e32b2ed)" d="M 268.186705 264.216 
L 269.686705 262.716 
L 271.186705 264.216 
L 272.686705 262.716 
L 271.186705 261.216 
L 272.686705 259.716 
L 271.186705 258.216 
L 269.686705 259.716 
L 268.186705 258.216 
L 266.686705 259.716 
L 268.186705 261.216 
L 266.686705 262.716 
z
" style="fill:#2f9599;stroke:#ffffff;stroke-width:0.48;"/>
    <path clip-path="url(#p8a6e32b2ed)" d="M 274.950341 264.216 
L 276.450341 262.716 
L 277.950341 264.216 
L 279.450341 262.716 
L 277.950341 261.216 
L 279.450341 259.716 
L 277.950341 258.216 
L 276.450341 259.716 
L 274.950341 258.216 
L 273.450341 259.716 
L 274.950341 261.216 
L 273.450341 262.716 
z
" style="fill:#2f9599;stroke:#ffffff;stroke-width:0.48;"/>
    <path clip-path="url(#p8a6e32b2ed)" d="M 281.713977 264.216 
L 283.213977 262.716 
L 284.713977 264.216 
L 286.213977 262.716 
L 284.713977 261.216 
L 286.213977 259.716 
L 284.713977 258.216 
L 283.213977 259.716 
L 281.713977 258.216 
L 280.213977 259.716 
L 281.713977 261.216 
L 280.213977 262.716 
z
" style="fill:#2f9599;stroke:#ffffff;stroke-width:0.48;"/>
    <path clip-path="url(#p8a6e32b2ed)" d="M 288.477614 264.216 
L 289.977614 262.716 
L 291.477614 264.216 
L 292.977614 262.716 
L 291.477614 261.216 
L 292.977614 259.716 
L 291.477614 258.216 
L 289.977614 259.716 
L 288.477614 258.216 
L 286.977614 259.716 
L 288.477614 261.216 
L 286.977614 262.716 
z
" style="fill:#2f9599;stroke:#ffffff;stroke-width:0.48;"/>
    <path clip-path="url(#p8a6e32b2ed)" d="M 295.24125 264.216 
L 296.74125 262.716 
L 298.24125 264.216 
L 299.74125 262.716 
L 298.24125 261.216 
L 299.74125 259.716 
L 298.24125 258.216 
L 296.74125 259.716 
L 295.24125 258.216 
L 293.74125 259.716 
L 295.24125 261.216 
L 293.74125 262.716 
z
" style="fill:#2f9599;stroke:#ffffff;stroke-width:0.48;"/>
    <path clip-path="url(#p8a6e32b2ed)" d="M 302.004886 264.216 
L 303.504886 262.716 
L 305.004886 264.216 
L 306.504886 262.716 
L 305.004886 261.216 
L 306.504886 259.716 
L 305.004886 258.216 
L 303.504886 259.716 
L 302.004886 258.216 
L 300.504886 259.716 
L 302.004886 261.216 
L 300.504886 262.716 
z
" style="fill:#2f9599;stroke:#ffffff;stroke-width:0.48;"/>
    <path clip-path="url(#p8a6e32b2ed)" d="M 308.768523 264.216 
L 310.268523 262.716 
L 311.768523 264.216 
L 313.268523 262.716 
L 311.768523 261.216 
L 313.268523 259.716 
L 311.768523 258.216 
L 310.268523 259.716 
L 308.768523 258.216 
L 307.268523 259.716 
L 308.768523 261.216 
L 307.268523 262.716 
z
" style="fill:#2f9599;stroke:#ffffff;stroke-width:0.48;"/>
    <path clip-path="url(#p8a6e32b2ed)" d="M 315.532159 264.216 
L 317.032159 262.716 
L 318.532159 264.216 
L 320.032159 262.716 
L 318.532159 261.216 
L 320.032159 259.716 
L 318.532159 258.216 
L 317.032159 259.716 
L 315.532159 258.216 
L 314.032159 259.716 
L 315.532159 261.216 
L 314.032159 262.716 
z
" style="fill:#2f9599;stroke:#ffffff;stroke-width:0.48;"/>
    <path clip-path="url(#p8a6e32b2ed)" d="M 322.295795 264.216 
L 323.795795 262.716 
L 325.295795 264.216 
L 326.795795 262.716 
L 325.295795 261.216 
L 326.795795 259.716 
L 325.295795 258.216 
L 323.795795 259.716 
L 322.295795 258.216 
L 320.795795 259.716 
L 322.295795 261.216 
L 320.795795 262.716 
z
" style="fill:#2f9599;stroke:#ffffff;stroke-width:0.48;"/>
    <path clip-path="url(#p8a6e32b2ed)" d="M 329.059432 264.216 
L 330.559432 262.716 
L 332.059432 264.216 
L 333.559432 262.716 
L 332.059432 261.216 
L 333.559432 259.716 
L 332.059432 258.216 
L 330.559432 259.716 
L 329.059432 258.216 
L 327.559432 259.716 
L 329.059432 261.216 
L 327.559432 262.716 
z
" style="fill:#2f9599;stroke:#ffffff;stroke-width:0.48;"/>
    <path clip-path="url(#p8a6e32b2ed)" d="M 335.823068 264.216 
L 337.323068 262.716 
L 338.823068 264.216 
L 340.323068 262.716 
L 338.823068 261.216 
L 340.323068 259.716 
L 338.823068 258.216 
L 337.323068 259.716 
L 335.823068 258.216 
L 334.323068 259.716 
L 335.823068 261.216 
L 334.323068 262.716 
z
" style="fill:#2f9599;stroke:#ffffff;stroke-width:0.48;"/>
    <path clip-path="url(#p8a6e32b2ed)" d="M 342.586705 264.216 
L 344.086705 262.716 
L 345.586705 264.216 
L 347.086705 262.716 
L 345.586705 261.216 
L 347.086705 259.716 
L 345.586705 258.216 
L 344.086705 259.716 
L 342.586705 258.216 
L 341.086705 259.716 
L 342.586705 261.216 
L 341.086705 262.716 
z
" style="fill:#2f9599;stroke:#ffffff;stroke-width:0.48;"/>
    <path clip-path="url(#p8a6e32b2ed)" d="M 349.350341 264.216 
L 350.850341 262.716 
L 352.350341 264.216 
L 353.850341 262.716 
L 352.350341 261.216 
L 353.850341 259.716 
L 352.350341 258.216 
L 350.850341 259.716 
L 349.350341 258.216 
L 347.850341 259.716 
L 349.350341 261.216 
L 347.850341 262.716 
z
" style="fill:#2f9599;stroke:#ffffff;stroke-width:0.48;"/>
    <path clip-path="url(#p8a6e32b2ed)" d="M 356.113977 264.216 
L 357.613977 262.716 
L 359.113977 264.216 
L 360.613977 262.716 
L 359.113977 261.216 
L 360.613977 259.716 
L 359.113977 258.216 
L 357.613977 259.716 
L 356.113977 258.216 
L 354.613977 259.716 
L 356.113977 261.216 
L 354.613977 262.716 
z
" style="fill:#2f9599;stroke:#ffffff;stroke-width:0.48;"/>
    <path clip-path="url(#p8a6e32b2ed)" d="M 362.877614 264.216 
L 364.377614 262.716 
L 365.877614 264.216 
L 367.377614 262.716 
L 365.877614 261.216 
L 367.377614 259.716 
L 365.877614 258.216 
L 364.377614 259.716 
L 362.877614 258.216 
L 361.377614 259.716 
L 362.877614 261.216 
L 361.377614 262.716 
z
" style="fill:#2f9599;stroke:#ffffff;stroke-width:0.48;"/>
    <path clip-path="url(#p8a6e32b2ed)" d="M 369.64125 264.216 
L 371.14125 262.716 
L 372.64125 264.216 
L 374.14125 262.716 
L 372.64125 261.216 
L 374.14125 259.716 
L 372.64125 258.216 
L 371.14125 259.716 
L 369.64125 258.216 
L 368.14125 259.716 
L 369.64125 261.216 
L 368.14125 262.716 
z
" style="fill:#2f9599;stroke:#ffffff;stroke-width:0.48;"/>
    <path clip-path="url(#p8a6e32b2ed)" d="M 376.404886 264.216 
L 377.904886 262.716 
L 379.404886 264.216 
L 380.904886 262.716 
L 379.404886 261.216 
L 380.904886 259.716 
L 379.404886 258.216 
L 377.904886 259.716 
L 376.404886 258.216 
L 374.904886 259.716 
L 376.404886 261.216 
L 374.904886 262.716 
z
" style="fill:#2f9599;stroke:#ffffff;stroke-width:0.48;"/>
    <path clip-path="url(#p8a6e32b2ed)" d="M 383.168523 264.216 
L 384.668523 262.716 
L 386.168523 264.216 
L 387.668523 262.716 
L 386.168523 261.216 
L 387.668523 259.716 
L 386.168523 258.216 
L 384.668523 259.716 
L 383.168523 258.216 
L 381.668523 259.716 
L 383.168523 261.216 
L 381.668523 262.716 
z
" style="fill:#2f9599;stroke:#ffffff;stroke-width:0.48;"/>
    <path clip-path="url(#p8a6e32b2ed)" d="M 57.892657 17.17468 
L 57.892657 21.41732 
L 62.135298 21.41732 
L 62.135298 17.17468 
z
" style="fill:#a7226e;stroke:#ffffff;stroke-width:0.48;"/>
    <path clip-path="url(#p8a6e32b2ed)" d="M 64.656293 17.17468 
L 64.656293 21.41732 
L 68.898934 21.41732 
L 68.898934 17.17468 
z
" style="fill:#a7226e;stroke:#ffffff;stroke-width:0.48;"/>
    <path clip-path="url(#p8a6e32b2ed)" d="M 71.41993 17.17468 
L 71.41993 21.41732 
L 75.66257 21.41732 
L 75.66257 17.17468 
z
" style="fill:#a7226e;stroke:#ffffff;stroke-width:0.48;"/>
    <path clip-path="url(#p8a6e32b2ed)" d="M 78.183566 17.17468 
L 78.183566 21.41732 
L 82.426207 21.41732 
L 82.426207 17.17468 
z
" style="fill:#a7226e;stroke:#ffffff;stroke-width:0.48;"/>
    <path clip-path="url(#p8a6e32b2ed)" d="M 84.947202 23.885696 
L 84.947202 28.128336 
L 89.189843 28.128336 
L 89.189843 23.885696 
z
" style="fill:#a7226e;stroke:#ffffff;stroke-width:0.48;"/>
    <path clip-path="url(#p8a6e32b2ed)" d="M 91.710839 37.307728 
L 91.710839 41.550368 
L 95.953479 41.550368 
L 95.953479 37.307728 
z
" style="fill:#a7226e;stroke:#ffffff;stroke-width:0.48;"/>
    <path clip-path="url(#p8a6e32b2ed)" d="M 98.474475 35.562864 
L 98.474475 39.805504 
L 102.717116 39.805504 
L 102.717116 35.562864 
z
" style="fill:#a7226e;stroke:#ffffff;stroke-width:0.48;"/>
    <path clip-path="url(#p8a6e32b2ed)" d="M 105.238111 35.562864 
L 105.238111 39.805504 
L 109.480752 39.805504 
L 109.480752 35.562864 
z
" style="fill:#a7226e;stroke:#ffffff;stroke-width:0.48;"/>
    <path clip-path="url(#p8a6e32b2ed)" d="M 112.001748 40.334264 
L 112.001748 44.576905 
L 116.244389 44.576905 
L 116.244389 40.334264 
z
" style="fill:#a7226e;stroke:#ffffff;stroke-width:0.48;"/>
    <path clip-path="url(#p8a6e32b2ed)" d="M 118.765384 25.950624 
L 118.765384 30.193264 
L 123.008025 30.193264 
L 123.008025 25.950624 
z
" style="fill:#a7226e;stroke:#ffffff;stroke-width:0.48;"/>
    <path clip-path="url(#p8a6e32b2ed)" d="M 125.529021 25.950624 
L 125.529021 30.193264 
L 129.771661 30.193264 
L 129.771661 25.950624 
z
" style="fill:#a7226e;stroke:#ffffff;stroke-width:0.48;"/>
    <path clip-path="url(#p8a6e32b2ed)" d="M 132.292657 36.927859 
L 132.292657 41.1705 
L 136.535298 41.1705 
L 136.535298 36.927859 
z
" style="fill:#a7226e;stroke:#ffffff;stroke-width:0.48;"/>
    <path clip-path="url(#p8a6e32b2ed)" d="M 139.056293 49.890883 
L 139.056293 54.133524 
L 143.298934 54.133524 
L 143.298934 49.890883 
z
" style="fill:#a7226e;stroke:#ffffff;stroke-width:0.48;"/>
    <path clip-path="url(#p8a6e32b2ed)" d="M 145.81993 61.535633 
L 145.81993 65.778274 
L 150.06257 65.778274 
L 150.06257 61.535633 
z
" style="fill:#a7226e;stroke:#ffffff;stroke-width:0.48;"/>
    <path clip-path="url(#p8a6e32b2ed)" d="M 152.583566 85.469137 
L 152.583566 89.711778 
L 156.826207 89.711778 
L 156.826207 85.469137 
z
" style="fill:#a7226e;stroke:#ffffff;stroke-width:0.48;"/>
    <path clip-path="url(#p8a6e32b2ed)" d="M 159.347202 105.08899 
L 159.347202 109.331631 
L 163.589843 109.331631 
L 163.589843 105.08899 
z
" style="fill:#a7226e;stroke:#ffffff;stroke-width:0.48;"/>
    <path clip-path="url(#p8a6e32b2ed)" d="M 166.110839 105.08899 
L 166.110839 109.331631 
L 170.353479 109.331631 
L 170.353479 105.08899 
z
" style="fill:#a7226e;stroke:#ffffff;stroke-width:0.48;"/>
    <path clip-path="url(#p8a6e32b2ed)" d="M 172.874475 110.040631 
L 172.874475 114.283272 
L 177.117116 114.283272 
L 177.117116 110.040631 
z
" style="fill:#a7226e;stroke:#ffffff;stroke-width:0.48;"/>
    <path clip-path="url(#p8a6e32b2ed)" d="M 179.638111 110.040631 
L 179.638111 114.283272 
L 183.880752 114.283272 
L 183.880752 110.040631 
z
" style="fill:#a7226e;stroke:#ffffff;stroke-width:0.48;"/>
    <path clip-path="url(#p8a6e32b2ed)" d="M 186.401748 105.349974 
L 186.401748 109.592614 
L 190.644389 109.592614 
L 190.644389 105.349974 
z
" style="fill:#a7226e;stroke:#ffffff;stroke-width:0.48;"/>
    <path clip-path="url(#p8a6e32b2ed)" d="M 193.165384 109.917193 
L 193.165384 114.159834 
L 197.408025 114.159834 
L 197.408025 109.917193 
z
" style="fill:#a7226e;stroke:#ffffff;stroke-width:0.48;"/>
    <path clip-path="url(#p8a6e32b2ed)" d="M 199.929021 107.537093 
L 199.929021 111.779734 
L 204.171661 111.779734 
L 204.171661 107.537093 
z
" style="fill:#a7226e;stroke:#ffffff;stroke-width:0.48;"/>
    <path clip-path="url(#p8a6e32b2ed)" d="M 206.692657 109.917193 
L 206.692657 114.159834 
L 210.935298 114.159834 
L 210.935298 109.917193 
z
" style="fill:#a7226e;stroke:#ffffff;stroke-width:0.48;"/>
    <path clip-path="url(#p8a6e32b2ed)" d="M 213.456293 143.257894 
L 213.456293 147.500534 
L 217.698934 147.500534 
L 217.698934 143.257894 
z
" style="fill:#a7226e;stroke:#ffffff;stroke-width:0.48;"/>
    <path clip-path="url(#p8a6e32b2ed)" d="M 220.21993 147.368391 
L 220.21993 151.611032 
L 224.46257 151.611032 
L 224.46257 147.368391 
z
" style="fill:#a7226e;stroke:#ffffff;stroke-width:0.48;"/>
    <path clip-path="url(#p8a6e32b2ed)" d="M 226.983566 150.576584 
L 226.983566 154.819225 
L 231.226207 154.819225 
L 231.226207 150.576584 
z
" style="fill:#a7226e;stroke:#ffffff;stroke-width:0.48;"/>
    <path clip-path="url(#p8a6e32b2ed)" d="M 233.747202 130.525377 
L 233.747202 134.768018 
L 237.989843 134.768018 
L 237.989843 130.525377 
z
" style="fill:#a7226e;stroke:#ffffff;stroke-width:0.48;"/>
    <path clip-path="url(#p8a6e32b2ed)" d="M 240.510839 140.236926 
L 240.510839 144.479566 
L 244.753479 144.479566 
L 244.753479 140.236926 
z
" style="fill:#a7226e;stroke:#ffffff;stroke-width:0.48;"/>
    <path clip-path="url(#p8a6e32b2ed)" d="M 247.274475 136.275001 
L 247.274475 140.517641 
L 251.517116 140.517641 
L 251.517116 136.275001 
z
" style="fill:#a7226e;stroke:#ffffff;stroke-width:0.48;"/>
    <path clip-path="url(#p8a6e32b2ed)" d="M 254.038111 152.122701 
L 254.038111 156.365342 
L 258.280752 156.365342 
L 258.280752 152.122701 
z
" style="fill:#a7226e;stroke:#ffffff;stroke-width:0.48;"/>
    <path clip-path="url(#p8a6e32b2ed)" d="M 260.801748 152.122701 
L 260.801748 156.365342 
L 265.044389 156.365342 
L 265.044389 152.122701 
z
" style="fill:#a7226e;stroke:#ffffff;stroke-width:0.48;"/>
    <path clip-path="url(#p8a6e32b2ed)" d="M 267.565384 152.122701 
L 267.565384 156.365342 
L 271.808025 156.365342 
L 271.808025 152.122701 
z
" style="fill:#a7226e;stroke:#ffffff;stroke-width:0.48;"/>
    <path clip-path="url(#p8a6e32b2ed)" d="M 274.329021 148.160776 
L 274.329021 152.403417 
L 278.571661 152.403417 
L 278.571661 148.160776 
z
" style="fill:#a7226e;stroke:#ffffff;stroke-width:0.48;"/>
    <path clip-path="url(#p8a6e32b2ed)" d="M 281.092657 235.323129 
L 281.092657 239.56577 
L 285.335298 239.56577 
L 285.335298 235.323129 
z
" style="fill:#a7226e;stroke:#ffffff;stroke-width:0.48;"/>
    <path clip-path="url(#p8a6e32b2ed)" d="M 287.856293 235.323129 
L 287.856293 239.56577 
L 292.098934 239.56577 
L 292.098934 235.323129 
z
" style="fill:#a7226e;stroke:#ffffff;stroke-width:0.48;"/>
    <path clip-path="url(#p8a6e32b2ed)" d="M 294.61993 235.323129 
L 294.61993 239.56577 
L 298.86257 239.56577 
L 298.86257 235.323129 
z
" style="fill:#a7226e;stroke:#ffffff;stroke-width:0.48;"/>
    <path clip-path="url(#p8a6e32b2ed)" d="M 301.383566 235.323129 
L 301.383566 239.56577 
L 305.626207 239.56577 
L 305.626207 235.323129 
z
" style="fill:#a7226e;stroke:#ffffff;stroke-width:0.48;"/>
    <path clip-path="url(#p8a6e32b2ed)" d="M 308.147202 235.323129 
L 308.147202 239.56577 
L 312.389843 239.56577 
L 312.389843 235.323129 
z
" style="fill:#a7226e;stroke:#ffffff;stroke-width:0.48;"/>
    <path clip-path="url(#p8a6e32b2ed)" d="M 314.910839 235.323129 
L 314.910839 239.56577 
L 319.153479 239.56577 
L 319.153479 235.323129 
z
" style="fill:#a7226e;stroke:#ffffff;stroke-width:0.48;"/>
    <path clip-path="url(#p8a6e32b2ed)" d="M 321.674475 235.323129 
L 321.674475 239.56577 
L 325.917116 239.56577 
L 325.917116 235.323129 
z
" style="fill:#a7226e;stroke:#ffffff;stroke-width:0.48;"/>
    <path clip-path="url(#p8a6e32b2ed)" d="M 328.438111 235.323129 
L 328.438111 239.56577 
L 332.680752 239.56577 
L 332.680752 235.323129 
z
" style="fill:#a7226e;stroke:#ffffff;stroke-width:0.48;"/>
    <path clip-path="url(#p8a6e32b2ed)" d="M 335.201748 235.323129 
L 335.201748 239.56577 
L 339.444389 239.56577 
L 339.444389 235.323129 
z
" style="fill:#a7226e;stroke:#ffffff;stroke-width:0.48;"/>
    <path clip-path="url(#p8a6e32b2ed)" d="M 341.965384 235.323129 
L 341.965384 239.56577 
L 346.208025 239.56577 
L 346.208025 235.323129 
z
" style="fill:#a7226e;stroke:#ffffff;stroke-width:0.48;"/>
    <path clip-path="url(#p8a6e32b2ed)" d="M 348.729021 235.323129 
L 348.729021 239.56577 
L 352.971661 239.56577 
L 352.971661 235.323129 
z
" style="fill:#a7226e;stroke:#ffffff;stroke-width:0.48;"/>
    <path clip-path="url(#p8a6e32b2ed)" d="M 355.492657 235.323129 
L 355.492657 239.56577 
L 359.735298 239.56577 
L 359.735298 235.323129 
z
" style="fill:#a7226e;stroke:#ffffff;stroke-width:0.48;"/>
    <path clip-path="url(#p8a6e32b2ed)" d="M 362.256293 235.323129 
L 362.256293 239.56577 
L 366.498934 239.56577 
L 366.498934 235.323129 
z
" style="fill:#a7226e;stroke:#ffffff;stroke-width:0.48;"/>
    <path clip-path="url(#p8a6e32b2ed)" d="M 369.01993 235.323129 
L 369.01993 239.56577 
L 373.26257 239.56577 
L 373.26257 235.323129 
z
" style="fill:#a7226e;stroke:#ffffff;stroke-width:0.48;"/>
    <path clip-path="url(#p8a6e32b2ed)" d="M 375.783566 235.323129 
L 375.783566 239.56577 
L 380.026207 239.56577 
L 380.026207 235.323129 
z
" style="fill:#a7226e;stroke:#ffffff;stroke-width:0.48;"/>
    <path clip-path="url(#p8a6e32b2ed)" d="M 382.547202 235.323129 
L 382.547202 239.56577 
L 386.789843 239.56577 
L 386.789843 235.323129 
z
" style="fill:#a7226e;stroke:#ffffff;stroke-width:0.48;"/>
   </g>
   <g id="PathCollection_2"/>
   <g id="PathCollection_3"/>
   <g id="PathCollection_4"/>
   <g id="matplotlib.axis_1">
    <g id="xtick_1">
     <g id="line2d_1">
      <defs>
       <path d="M 0 0 
L 0 3.5 
" id="m55a458eb1c" style="stroke:#000000;stroke-width:0.8;"/>
      </defs>
      <g>
       <use style="stroke:#000000;stroke-width:0.8;" x="53.250341" xlink:href="#m55a458eb1c" y="273.312"/>
      </g>
     </g>
     <g id="text_1">
      <!-- 0.0 -->
      <g transform="translate(45.298778 287.910437)scale(0.1 -0.1)">
       <defs>
        <path d="M 31.78125 66.40625 
Q 24.171875 66.40625 20.328125 58.90625 
Q 16.5 51.421875 16.5 36.375 
Q 16.5 21.390625 20.328125 13.890625 
Q 24.171875 6.390625 31.78125 6.390625 
Q 39.453125 6.390625 43.28125 13.890625 
Q 47.125 21.390625 47.125 36.375 
Q 47.125 51.421875 43.28125 58.90625 
Q 39.453125 66.40625 31.78125 66.40625 
z
M 31.78125 74.21875 
Q 44.046875 74.21875 50.515625 64.515625 
Q 56.984375 54.828125 56.984375 36.375 
Q 56.984375 17.96875 50.515625 8.265625 
Q 44.046875 -1.421875 31.78125 -1.421875 
Q 19.53125 -1.421875 13.0625 8.265625 
Q 6.59375 17.96875 6.59375 36.375 
Q 6.59375 54.828125 13.0625 64.515625 
Q 19.53125 74.21875 31.78125 74.21875 
z
" id="DejaVuSans-48"/>
        <path d="M 10.6875 12.40625 
L 21 12.40625 
L 21 0 
L 10.6875 0 
z
" id="DejaVuSans-46"/>
       </defs>
       <use xlink:href="#DejaVuSans-48"/>
       <use x="63.623047" xlink:href="#DejaVuSans-46"/>
       <use x="95.410156" xlink:href="#DejaVuSans-48"/>
      </g>
     </g>
    </g>
    <g id="xtick_2">
     <g id="line2d_2">
      <g>
       <use style="stroke:#000000;stroke-width:0.8;" x="120.886705" xlink:href="#m55a458eb1c" y="273.312"/>
      </g>
     </g>
     <g id="text_2">
      <!-- 0.2 -->
      <g transform="translate(112.935142 287.910437)scale(0.1 -0.1)">
       <defs>
        <path d="M 19.1875 8.296875 
L 53.609375 8.296875 
L 53.609375 0 
L 7.328125 0 
L 7.328125 8.296875 
Q 12.9375 14.109375 22.625 23.890625 
Q 32.328125 33.6875 34.8125 36.53125 
Q 39.546875 41.84375 41.421875 45.53125 
Q 43.3125 49.21875 43.3125 52.78125 
Q 43.3125 58.59375 39.234375 62.25 
Q 35.15625 65.921875 28.609375 65.921875 
Q 23.96875 65.921875 18.8125 64.3125 
Q 13.671875 62.703125 7.8125 59.421875 
L 7.8125 69.390625 
Q 13.765625 71.78125 18.9375 73 
Q 24.125 74.21875 28.421875 74.21875 
Q 39.75 74.21875 46.484375 68.546875 
Q 53.21875 62.890625 53.21875 53.421875 
Q 53.21875 48.921875 51.53125 44.890625 
Q 49.859375 40.875 45.40625 35.40625 
Q 44.1875 33.984375 37.640625 27.21875 
Q 31.109375 20.453125 19.1875 8.296875 
z
" id="DejaVuSans-50"/>
       </defs>
       <use xlink:href="#DejaVuSans-48"/>
       <use x="63.623047" xlink:href="#DejaVuSans-46"/>
       <use x="95.410156" xlink:href="#DejaVuSans-50"/>
      </g>
     </g>
    </g>
    <g id="xtick_3">
     <g id="line2d_3">
      <g>
       <use style="stroke:#000000;stroke-width:0.8;" x="188.523068" xlink:href="#m55a458eb1c" y="273.312"/>
      </g>
     </g>
     <g id="text_3">
      <!-- 0.4 -->
      <g transform="translate(180.571506 287.910437)scale(0.1 -0.1)">
       <defs>
        <path d="M 37.796875 64.3125 
L 12.890625 25.390625 
L 37.796875 25.390625 
z
M 35.203125 72.90625 
L 47.609375 72.90625 
L 47.609375 25.390625 
L 58.015625 25.390625 
L 58.015625 17.1875 
L 47.609375 17.1875 
L 47.609375 0 
L 37.796875 0 
L 37.796875 17.1875 
L 4.890625 17.1875 
L 4.890625 26.703125 
z
" id="DejaVuSans-52"/>
       </defs>
       <use xlink:href="#DejaVuSans-48"/>
       <use x="63.623047" xlink:href="#DejaVuSans-46"/>
       <use x="95.410156" xlink:href="#DejaVuSans-52"/>
      </g>
     </g>
    </g>
    <g id="xtick_4">
     <g id="line2d_4">
      <g>
       <use style="stroke:#000000;stroke-width:0.8;" x="256.159432" xlink:href="#m55a458eb1c" y="273.312"/>
      </g>
     </g>
     <g id="text_4">
      <!-- 0.6 -->
      <g transform="translate(248.207869 287.910437)scale(0.1 -0.1)">
       <defs>
        <path d="M 33.015625 40.375 
Q 26.375 40.375 22.484375 35.828125 
Q 18.609375 31.296875 18.609375 23.390625 
Q 18.609375 15.53125 22.484375 10.953125 
Q 26.375 6.390625 33.015625 6.390625 
Q 39.65625 6.390625 43.53125 10.953125 
Q 47.40625 15.53125 47.40625 23.390625 
Q 47.40625 31.296875 43.53125 35.828125 
Q 39.65625 40.375 33.015625 40.375 
z
M 52.59375 71.296875 
L 52.59375 62.3125 
Q 48.875 64.0625 45.09375 64.984375 
Q 41.3125 65.921875 37.59375 65.921875 
Q 27.828125 65.921875 22.671875 59.328125 
Q 17.53125 52.734375 16.796875 39.40625 
Q 19.671875 43.65625 24.015625 45.921875 
Q 28.375 48.1875 33.59375 48.1875 
Q 44.578125 48.1875 50.953125 41.515625 
Q 57.328125 34.859375 57.328125 23.390625 
Q 57.328125 12.15625 50.6875 5.359375 
Q 44.046875 -1.421875 33.015625 -1.421875 
Q 20.359375 -1.421875 13.671875 8.265625 
Q 6.984375 17.96875 6.984375 36.375 
Q 6.984375 53.65625 15.1875 63.9375 
Q 23.390625 74.21875 37.203125 74.21875 
Q 40.921875 74.21875 44.703125 73.484375 
Q 48.484375 72.75 52.59375 71.296875 
z
" id="DejaVuSans-54"/>
       </defs>
       <use xlink:href="#DejaVuSans-48"/>
       <use x="63.623047" xlink:href="#DejaVuSans-46"/>
       <use x="95.410156" xlink:href="#DejaVuSans-54"/>
      </g>
     </g>
    </g>
    <g id="xtick_5">
     <g id="line2d_5">
      <g>
       <use style="stroke:#000000;stroke-width:0.8;" x="323.795795" xlink:href="#m55a458eb1c" y="273.312"/>
      </g>
     </g>
     <g id="text_5">
      <!-- 0.8 -->
      <g transform="translate(315.844233 287.910437)scale(0.1 -0.1)">
       <defs>
        <path d="M 31.78125 34.625 
Q 24.75 34.625 20.71875 30.859375 
Q 16.703125 27.09375 16.703125 20.515625 
Q 16.703125 13.921875 20.71875 10.15625 
Q 24.75 6.390625 31.78125 6.390625 
Q 38.8125 6.390625 42.859375 10.171875 
Q 46.921875 13.96875 46.921875 20.515625 
Q 46.921875 27.09375 42.890625 30.859375 
Q 38.875 34.625 31.78125 34.625 
z
M 21.921875 38.8125 
Q 15.578125 40.375 12.03125 44.71875 
Q 8.5 49.078125 8.5 55.328125 
Q 8.5 64.0625 14.71875 69.140625 
Q 20.953125 74.21875 31.78125 74.21875 
Q 42.671875 74.21875 48.875 69.140625 
Q 55.078125 64.0625 55.078125 55.328125 
Q 55.078125 49.078125 51.53125 44.71875 
Q 48 40.375 41.703125 38.8125 
Q 48.828125 37.15625 52.796875 32.3125 
Q 56.78125 27.484375 56.78125 20.515625 
Q 56.78125 9.90625 50.3125 4.234375 
Q 43.84375 -1.421875 31.78125 -1.421875 
Q 19.734375 -1.421875 13.25 4.234375 
Q 6.78125 9.90625 6.78125 20.515625 
Q 6.78125 27.484375 10.78125 32.3125 
Q 14.796875 37.15625 21.921875 38.8125 
z
M 18.3125 54.390625 
Q 18.3125 48.734375 21.84375 45.5625 
Q 25.390625 42.390625 31.78125 42.390625 
Q 38.140625 42.390625 41.71875 45.5625 
Q 45.3125 48.734375 45.3125 54.390625 
Q 45.3125 60.0625 41.71875 63.234375 
Q 38.140625 66.40625 31.78125 66.40625 
Q 25.390625 66.40625 21.84375 63.234375 
Q 18.3125 60.0625 18.3125 54.390625 
z
" id="DejaVuSans-56"/>
       </defs>
       <use xlink:href="#DejaVuSans-48"/>
       <use x="63.623047" xlink:href="#DejaVuSans-46"/>
       <use x="95.410156" xlink:href="#DejaVuSans-56"/>
      </g>
     </g>
    </g>
    <g id="xtick_6">
     <g id="line2d_6">
      <g>
       <use style="stroke:#000000;stroke-width:0.8;" x="391.432159" xlink:href="#m55a458eb1c" y="273.312"/>
      </g>
     </g>
     <g id="text_6">
      <!-- 1.0 -->
      <g transform="translate(383.480597 287.910437)scale(0.1 -0.1)">
       <defs>
        <path d="M 12.40625 8.296875 
L 28.515625 8.296875 
L 28.515625 63.921875 
L 10.984375 60.40625 
L 10.984375 69.390625 
L 28.421875 72.90625 
L 38.28125 72.90625 
L 38.28125 8.296875 
L 54.390625 8.296875 
L 54.390625 0 
L 12.40625 0 
z
" id="DejaVuSans-49"/>
       </defs>
       <use xlink:href="#DejaVuSans-49"/>
       <use x="63.623047" xlink:href="#DejaVuSans-46"/>
       <use x="95.410156" xlink:href="#DejaVuSans-48"/>
      </g>
     </g>
    </g>
    <g id="text_7">
     <!-- cutoff -->
     <g transform="translate(207.883438 301.588562)scale(0.1 -0.1)">
      <defs>
       <path d="M 48.78125 52.59375 
L 48.78125 44.1875 
Q 44.96875 46.296875 41.140625 47.34375 
Q 37.3125 48.390625 33.40625 48.390625 
Q 24.65625 48.390625 19.8125 42.84375 
Q 14.984375 37.3125 14.984375 27.296875 
Q 14.984375 17.28125 19.8125 11.734375 
Q 24.65625 6.203125 33.40625 6.203125 
Q 37.3125 6.203125 41.140625 7.25 
Q 44.96875 8.296875 48.78125 10.40625 
L 48.78125 2.09375 
Q 45.015625 0.34375 40.984375 -0.53125 
Q 36.96875 -1.421875 32.421875 -1.421875 
Q 20.0625 -1.421875 12.78125 6.34375 
Q 5.515625 14.109375 5.515625 27.296875 
Q 5.515625 40.671875 12.859375 48.328125 
Q 20.21875 56 33.015625 56 
Q 37.15625 56 41.109375 55.140625 
Q 45.0625 54.296875 48.78125 52.59375 
z
" id="DejaVuSans-99"/>
       <path d="M 8.5 21.578125 
L 8.5 54.6875 
L 17.484375 54.6875 
L 17.484375 21.921875 
Q 17.484375 14.15625 20.5 10.265625 
Q 23.53125 6.390625 29.59375 6.390625 
Q 36.859375 6.390625 41.078125 11.03125 
Q 45.3125 15.671875 45.3125 23.6875 
L 45.3125 54.6875 
L 54.296875 54.6875 
L 54.296875 0 
L 45.3125 0 
L 45.3125 8.40625 
Q 42.046875 3.421875 37.71875 1 
Q 33.40625 -1.421875 27.6875 -1.421875 
Q 18.265625 -1.421875 13.375 4.4375 
Q 8.5 10.296875 8.5 21.578125 
z
M 31.109375 56 
z
" id="DejaVuSans-117"/>
       <path d="M 18.3125 70.21875 
L 18.3125 54.6875 
L 36.8125 54.6875 
L 36.8125 47.703125 
L 18.3125 47.703125 
L 18.3125 18.015625 
Q 18.3125 11.328125 20.140625 9.421875 
Q 21.96875 7.515625 27.59375 7.515625 
L 36.8125 7.515625 
L 36.8125 0 
L 27.59375 0 
Q 17.1875 0 13.234375 3.875 
Q 9.28125 7.765625 9.28125 18.015625 
L 9.28125 47.703125 
L 2.6875 47.703125 
L 2.6875 54.6875 
L 9.28125 54.6875 
L 9.28125 70.21875 
z
" id="DejaVuSans-116"/>
       <path d="M 30.609375 48.390625 
Q 23.390625 48.390625 19.1875 42.75 
Q 14.984375 37.109375 14.984375 27.296875 
Q 14.984375 17.484375 19.15625 11.84375 
Q 23.34375 6.203125 30.609375 6.203125 
Q 37.796875 6.203125 41.984375 11.859375 
Q 46.1875 17.53125 46.1875 27.296875 
Q 46.1875 37.015625 41.984375 42.703125 
Q 37.796875 48.390625 30.609375 48.390625 
z
M 30.609375 56 
Q 42.328125 56 49.015625 48.375 
Q 55.71875 40.765625 55.71875 27.296875 
Q 55.71875 13.875 49.015625 6.21875 
Q 42.328125 -1.421875 30.609375 -1.421875 
Q 18.84375 -1.421875 12.171875 6.21875 
Q 5.515625 13.875 5.515625 27.296875 
Q 5.515625 40.765625 12.171875 48.375 
Q 18.84375 56 30.609375 56 
z
" id="DejaVuSans-111"/>
       <path d="M 37.109375 75.984375 
L 37.109375 68.5 
L 28.515625 68.5 
Q 23.6875 68.5 21.796875 66.546875 
Q 19.921875 64.59375 19.921875 59.515625 
L 19.921875 54.6875 
L 34.71875 54.6875 
L 34.71875 47.703125 
L 19.921875 47.703125 
L 19.921875 0 
L 10.890625 0 
L 10.890625 47.703125 
L 2.296875 47.703125 
L 2.296875 54.6875 
L 10.890625 54.6875 
L 10.890625 58.5 
Q 10.890625 67.625 15.140625 71.796875 
Q 19.390625 75.984375 28.609375 75.984375 
z
" id="DejaVuSans-102"/>
      </defs>
      <use xlink:href="#DejaVuSans-99"/>
      <use x="54.980469" xlink:href="#DejaVuSans-117"/>
      <use x="118.359375" xlink:href="#DejaVuSans-116"/>
      <use x="157.568359" xlink:href="#DejaVuSans-111"/>
      <use x="218.75" xlink:href="#DejaVuSans-102"/>
      <use x="253.955078" xlink:href="#DejaVuSans-102"/>
     </g>
    </g>
   </g>
   <g id="matplotlib.axis_2">
    <g id="ytick_1">
     <g id="line2d_7">
      <defs>
       <path d="M 0 0 
L -3.5 0 
" id="m4bc8ce5e79" style="stroke:#000000;stroke-width:0.8;"/>
      </defs>
      <g>
       <use style="stroke:#000000;stroke-width:0.8;" x="43.78125" xlink:href="#m4bc8ce5e79" y="248.141647"/>
      </g>
     </g>
     <g id="text_8">
      <!-- 0.1 -->
      <g transform="translate(20.878125 251.940866)scale(0.1 -0.1)">
       <use xlink:href="#DejaVuSans-48"/>
       <use x="63.623047" xlink:href="#DejaVuSans-46"/>
       <use x="95.410156" xlink:href="#DejaVuSans-49"/>
      </g>
     </g>
    </g>
    <g id="ytick_2">
     <g id="line2d_8">
      <g>
       <use style="stroke:#000000;stroke-width:0.8;" x="43.78125" xlink:href="#m4bc8ce5e79" y="215.257668"/>
      </g>
     </g>
     <g id="text_9">
      <!-- 0.2 -->
      <g transform="translate(20.878125 219.056887)scale(0.1 -0.1)">
       <use xlink:href="#DejaVuSans-48"/>
       <use x="63.623047" xlink:href="#DejaVuSans-46"/>
       <use x="95.410156" xlink:href="#DejaVuSans-50"/>
      </g>
     </g>
    </g>
    <g id="ytick_3">
     <g id="line2d_9">
      <g>
       <use style="stroke:#000000;stroke-width:0.8;" x="43.78125" xlink:href="#m4bc8ce5e79" y="182.37369"/>
      </g>
     </g>
     <g id="text_10">
      <!-- 0.3 -->
      <g transform="translate(20.878125 186.172909)scale(0.1 -0.1)">
       <defs>
        <path d="M 40.578125 39.3125 
Q 47.65625 37.796875 51.625 33 
Q 55.609375 28.21875 55.609375 21.1875 
Q 55.609375 10.40625 48.1875 4.484375 
Q 40.765625 -1.421875 27.09375 -1.421875 
Q 22.515625 -1.421875 17.65625 -0.515625 
Q 12.796875 0.390625 7.625 2.203125 
L 7.625 11.71875 
Q 11.71875 9.328125 16.59375 8.109375 
Q 21.484375 6.890625 26.8125 6.890625 
Q 36.078125 6.890625 40.9375 10.546875 
Q 45.796875 14.203125 45.796875 21.1875 
Q 45.796875 27.640625 41.28125 31.265625 
Q 36.765625 34.90625 28.71875 34.90625 
L 20.21875 34.90625 
L 20.21875 43.015625 
L 29.109375 43.015625 
Q 36.375 43.015625 40.234375 45.921875 
Q 44.09375 48.828125 44.09375 54.296875 
Q 44.09375 59.90625 40.109375 62.90625 
Q 36.140625 65.921875 28.71875 65.921875 
Q 24.65625 65.921875 20.015625 65.03125 
Q 15.375 64.15625 9.8125 62.3125 
L 9.8125 71.09375 
Q 15.4375 72.65625 20.34375 73.4375 
Q 25.25 74.21875 29.59375 74.21875 
Q 40.828125 74.21875 47.359375 69.109375 
Q 53.90625 64.015625 53.90625 55.328125 
Q 53.90625 49.265625 50.4375 45.09375 
Q 46.96875 40.921875 40.578125 39.3125 
z
" id="DejaVuSans-51"/>
       </defs>
       <use xlink:href="#DejaVuSans-48"/>
       <use x="63.623047" xlink:href="#DejaVuSans-46"/>
       <use x="95.410156" xlink:href="#DejaVuSans-51"/>
      </g>
     </g>
    </g>
    <g id="ytick_4">
     <g id="line2d_10">
      <g>
       <use style="stroke:#000000;stroke-width:0.8;" x="43.78125" xlink:href="#m4bc8ce5e79" y="149.489711"/>
      </g>
     </g>
     <g id="text_11">
      <!-- 0.4 -->
      <g transform="translate(20.878125 153.28893)scale(0.1 -0.1)">
       <use xlink:href="#DejaVuSans-48"/>
       <use x="63.623047" xlink:href="#DejaVuSans-46"/>
       <use x="95.410156" xlink:href="#DejaVuSans-52"/>
      </g>
     </g>
    </g>
    <g id="ytick_5">
     <g id="line2d_11">
      <g>
       <use style="stroke:#000000;stroke-width:0.8;" x="43.78125" xlink:href="#m4bc8ce5e79" y="116.605733"/>
      </g>
     </g>
     <g id="text_12">
      <!-- 0.5 -->
      <g transform="translate(20.878125 120.404951)scale(0.1 -0.1)">
       <defs>
        <path d="M 10.796875 72.90625 
L 49.515625 72.90625 
L 49.515625 64.59375 
L 19.828125 64.59375 
L 19.828125 46.734375 
Q 21.96875 47.46875 24.109375 47.828125 
Q 26.265625 48.1875 28.421875 48.1875 
Q 40.625 48.1875 47.75 41.5 
Q 54.890625 34.8125 54.890625 23.390625 
Q 54.890625 11.625 47.5625 5.09375 
Q 40.234375 -1.421875 26.90625 -1.421875 
Q 22.3125 -1.421875 17.546875 -0.640625 
Q 12.796875 0.140625 7.71875 1.703125 
L 7.71875 11.625 
Q 12.109375 9.234375 16.796875 8.0625 
Q 21.484375 6.890625 26.703125 6.890625 
Q 35.15625 6.890625 40.078125 11.328125 
Q 45.015625 15.765625 45.015625 23.390625 
Q 45.015625 31 40.078125 35.4375 
Q 35.15625 39.890625 26.703125 39.890625 
Q 22.75 39.890625 18.8125 39.015625 
Q 14.890625 38.140625 10.796875 36.28125 
z
" id="DejaVuSans-53"/>
       </defs>
       <use xlink:href="#DejaVuSans-48"/>
       <use x="63.623047" xlink:href="#DejaVuSans-46"/>
       <use x="95.410156" xlink:href="#DejaVuSans-53"/>
      </g>
     </g>
    </g>
    <g id="ytick_6">
     <g id="line2d_12">
      <g>
       <use style="stroke:#000000;stroke-width:0.8;" x="43.78125" xlink:href="#m4bc8ce5e79" y="83.721754"/>
      </g>
     </g>
     <g id="text_13">
      <!-- 0.6 -->
      <g transform="translate(20.878125 87.520973)scale(0.1 -0.1)">
       <use xlink:href="#DejaVuSans-48"/>
       <use x="63.623047" xlink:href="#DejaVuSans-46"/>
       <use x="95.410156" xlink:href="#DejaVuSans-54"/>
      </g>
     </g>
    </g>
    <g id="ytick_7">
     <g id="line2d_13">
      <g>
       <use style="stroke:#000000;stroke-width:0.8;" x="43.78125" xlink:href="#m4bc8ce5e79" y="50.837775"/>
      </g>
     </g>
     <g id="text_14">
      <!-- 0.7 -->
      <g transform="translate(20.878125 54.636994)scale(0.1 -0.1)">
       <defs>
        <path d="M 8.203125 72.90625 
L 55.078125 72.90625 
L 55.078125 68.703125 
L 28.609375 0 
L 18.3125 0 
L 43.21875 64.59375 
L 8.203125 64.59375 
z
" id="DejaVuSans-55"/>
       </defs>
       <use xlink:href="#DejaVuSans-48"/>
       <use x="63.623047" xlink:href="#DejaVuSans-46"/>
       <use x="95.410156" xlink:href="#DejaVuSans-55"/>
      </g>
     </g>
    </g>
    <g id="ytick_8">
     <g id="line2d_14">
      <g>
       <use style="stroke:#000000;stroke-width:0.8;" x="43.78125" xlink:href="#m4bc8ce5e79" y="17.953797"/>
      </g>
     </g>
     <g id="text_15">
      <!-- 0.8 -->
      <g transform="translate(20.878125 21.753016)scale(0.1 -0.1)">
       <use xlink:href="#DejaVuSans-48"/>
       <use x="63.623047" xlink:href="#DejaVuSans-46"/>
       <use x="95.410156" xlink:href="#DejaVuSans-56"/>
      </g>
     </g>
    </g>
    <g id="text_16">
     <!-- performance -->
     <g transform="translate(14.798438 172.278656)rotate(-90)scale(0.1 -0.1)">
      <defs>
       <path d="M 18.109375 8.203125 
L 18.109375 -20.796875 
L 9.078125 -20.796875 
L 9.078125 54.6875 
L 18.109375 54.6875 
L 18.109375 46.390625 
Q 20.953125 51.265625 25.265625 53.625 
Q 29.59375 56 35.59375 56 
Q 45.5625 56 51.78125 48.09375 
Q 58.015625 40.1875 58.015625 27.296875 
Q 58.015625 14.40625 51.78125 6.484375 
Q 45.5625 -1.421875 35.59375 -1.421875 
Q 29.59375 -1.421875 25.265625 0.953125 
Q 20.953125 3.328125 18.109375 8.203125 
z
M 48.6875 27.296875 
Q 48.6875 37.203125 44.609375 42.84375 
Q 40.53125 48.484375 33.40625 48.484375 
Q 26.265625 48.484375 22.1875 42.84375 
Q 18.109375 37.203125 18.109375 27.296875 
Q 18.109375 17.390625 22.1875 11.75 
Q 26.265625 6.109375 33.40625 6.109375 
Q 40.53125 6.109375 44.609375 11.75 
Q 48.6875 17.390625 48.6875 27.296875 
z
" id="DejaVuSans-112"/>
       <path d="M 56.203125 29.59375 
L 56.203125 25.203125 
L 14.890625 25.203125 
Q 15.484375 15.921875 20.484375 11.0625 
Q 25.484375 6.203125 34.421875 6.203125 
Q 39.59375 6.203125 44.453125 7.46875 
Q 49.3125 8.734375 54.109375 11.28125 
L 54.109375 2.78125 
Q 49.265625 0.734375 44.1875 -0.34375 
Q 39.109375 -1.421875 33.890625 -1.421875 
Q 20.796875 -1.421875 13.15625 6.1875 
Q 5.515625 13.8125 5.515625 26.8125 
Q 5.515625 40.234375 12.765625 48.109375 
Q 20.015625 56 32.328125 56 
Q 43.359375 56 49.78125 48.890625 
Q 56.203125 41.796875 56.203125 29.59375 
z
M 47.21875 32.234375 
Q 47.125 39.59375 43.09375 43.984375 
Q 39.0625 48.390625 32.421875 48.390625 
Q 24.90625 48.390625 20.390625 44.140625 
Q 15.875 39.890625 15.1875 32.171875 
z
" id="DejaVuSans-101"/>
       <path d="M 41.109375 46.296875 
Q 39.59375 47.171875 37.8125 47.578125 
Q 36.03125 48 33.890625 48 
Q 26.265625 48 22.1875 43.046875 
Q 18.109375 38.09375 18.109375 28.8125 
L 18.109375 0 
L 9.078125 0 
L 9.078125 54.6875 
L 18.109375 54.6875 
L 18.109375 46.1875 
Q 20.953125 51.171875 25.484375 53.578125 
Q 30.03125 56 36.53125 56 
Q 37.453125 56 38.578125 55.875 
Q 39.703125 55.765625 41.0625 55.515625 
z
" id="DejaVuSans-114"/>
       <path d="M 52 44.1875 
Q 55.375 50.25 60.0625 53.125 
Q 64.75 56 71.09375 56 
Q 79.640625 56 84.28125 50.015625 
Q 88.921875 44.046875 88.921875 33.015625 
L 88.921875 0 
L 79.890625 0 
L 79.890625 32.71875 
Q 79.890625 40.578125 77.09375 44.375 
Q 74.3125 48.1875 68.609375 48.1875 
Q 61.625 48.1875 57.5625 43.546875 
Q 53.515625 38.921875 53.515625 30.90625 
L 53.515625 0 
L 44.484375 0 
L 44.484375 32.71875 
Q 44.484375 40.625 41.703125 44.40625 
Q 38.921875 48.1875 33.109375 48.1875 
Q 26.21875 48.1875 22.15625 43.53125 
Q 18.109375 38.875 18.109375 30.90625 
L 18.109375 0 
L 9.078125 0 
L 9.078125 54.6875 
L 18.109375 54.6875 
L 18.109375 46.1875 
Q 21.1875 51.21875 25.484375 53.609375 
Q 29.78125 56 35.6875 56 
Q 41.65625 56 45.828125 52.96875 
Q 50 49.953125 52 44.1875 
z
" id="DejaVuSans-109"/>
       <path d="M 34.28125 27.484375 
Q 23.390625 27.484375 19.1875 25 
Q 14.984375 22.515625 14.984375 16.5 
Q 14.984375 11.71875 18.140625 8.90625 
Q 21.296875 6.109375 26.703125 6.109375 
Q 34.1875 6.109375 38.703125 11.40625 
Q 43.21875 16.703125 43.21875 25.484375 
L 43.21875 27.484375 
z
M 52.203125 31.203125 
L 52.203125 0 
L 43.21875 0 
L 43.21875 8.296875 
Q 40.140625 3.328125 35.546875 0.953125 
Q 30.953125 -1.421875 24.3125 -1.421875 
Q 15.921875 -1.421875 10.953125 3.296875 
Q 6 8.015625 6 15.921875 
Q 6 25.140625 12.171875 29.828125 
Q 18.359375 34.515625 30.609375 34.515625 
L 43.21875 34.515625 
L 43.21875 35.40625 
Q 43.21875 41.609375 39.140625 45 
Q 35.0625 48.390625 27.6875 48.390625 
Q 23 48.390625 18.546875 47.265625 
Q 14.109375 46.140625 10.015625 43.890625 
L 10.015625 52.203125 
Q 14.9375 54.109375 19.578125 55.046875 
Q 24.21875 56 28.609375 56 
Q 40.484375 56 46.34375 49.84375 
Q 52.203125 43.703125 52.203125 31.203125 
z
" id="DejaVuSans-97"/>
       <path d="M 54.890625 33.015625 
L 54.890625 0 
L 45.90625 0 
L 45.90625 32.71875 
Q 45.90625 40.484375 42.875 44.328125 
Q 39.84375 48.1875 33.796875 48.1875 
Q 26.515625 48.1875 22.3125 43.546875 
Q 18.109375 38.921875 18.109375 30.90625 
L 18.109375 0 
L 9.078125 0 
L 9.078125 54.6875 
L 18.109375 54.6875 
L 18.109375 46.1875 
Q 21.34375 51.125 25.703125 53.5625 
Q 30.078125 56 35.796875 56 
Q 45.21875 56 50.046875 50.171875 
Q 54.890625 44.34375 54.890625 33.015625 
z
" id="DejaVuSans-110"/>
      </defs>
      <use xlink:href="#DejaVuSans-112"/>
      <use x="63.476562" xlink:href="#DejaVuSans-101"/>
      <use x="125" xlink:href="#DejaVuSans-114"/>
      <use x="166.113281" xlink:href="#DejaVuSans-102"/>
      <use x="201.318359" xlink:href="#DejaVuSans-111"/>
      <use x="262.5" xlink:href="#DejaVuSans-114"/>
      <use x="301.863281" xlink:href="#DejaVuSans-109"/>
      <use x="399.275391" xlink:href="#DejaVuSans-97"/>
      <use x="460.554688" xlink:href="#DejaVuSans-110"/>
      <use x="523.933594" xlink:href="#DejaVuSans-99"/>
      <use x="578.914062" xlink:href="#DejaVuSans-101"/>
     </g>
    </g>
   </g>
   <g id="line2d_15">
    <path clip-path="url(#p8a6e32b2ed)" d="M 60.013977 46.140064 
L 66.777614 44.26098 
L 73.54125 40.719628 
L 80.304886 69.230509 
L 87.068523 95.15966 
L 93.832159 111.908021 
L 100.595795 116.605733 
L 107.359432 116.605733 
L 114.123068 112.038513 
L 120.886705 114.222836 
L 127.650341 128.520218 
L 134.413977 135.396578 
L 141.177614 168.527804 
L 147.94125 169.988815 
L 154.704886 155.173362 
L 161.468523 155.173362 
L 168.232159 155.173362 
L 174.995795 155.173362 
L 181.759432 172.749111 
L 188.523068 158.205947 
L 195.286705 178.015572 
L 202.050341 178.015572 
L 208.813977 178.015572 
L 215.577614 174.053647 
L 222.34125 197.825198 
L 229.104886 237.444449 
L 235.868523 237.444449 
L 242.632159 237.444449 
L 249.395795 237.444449 
L 256.159432 237.444449 
L 262.923068 237.444449 
L 269.686705 237.444449 
L 276.450341 237.444449 
L 283.213977 237.444449 
L 289.977614 237.444449 
L 296.74125 237.444449 
L 303.504886 237.444449 
L 310.268523 237.444449 
L 317.032159 237.444449 
L 323.795795 237.444449 
L 330.559432 237.444449 
L 337.323068 237.444449 
L 344.086705 237.444449 
L 350.850341 237.444449 
L 357.613977 237.444449 
L 364.377614 237.444449 
L 371.14125 237.444449 
L 377.904886 237.444449 
L 384.668523 237.444449 
" style="fill:none;stroke:#f26b38;stroke-dasharray:7.4,3.2;stroke-dashoffset:0;stroke-width:2;"/>
   </g>
   <g id="line2d_16">
    <path clip-path="url(#p8a6e32b2ed)" d="M 60.013977 158.885134 
L 66.777614 158.258772 
L 73.54125 147.583394 
L 80.304886 154.187422 
L 87.068523 167.027833 
L 93.832159 179.531865 
L 100.595795 179.531865 
L 107.359432 179.531865 
L 114.123068 179.531865 
L 120.886705 172.749111 
L 127.650341 158.205947 
L 134.413977 201.787123 
L 141.177614 201.787123 
L 147.94125 201.787123 
L 154.704886 201.787123 
L 161.468523 197.825198 
L 168.232159 261.216 
L 174.995795 261.216 
L 181.759432 261.216 
L 188.523068 261.216 
L 195.286705 261.216 
L 202.050341 261.216 
L 208.813977 261.216 
L 215.577614 261.216 
L 222.34125 261.216 
L 229.104886 261.216 
L 235.868523 261.216 
L 242.632159 261.216 
L 249.395795 261.216 
L 256.159432 261.216 
L 262.923068 261.216 
L 269.686705 261.216 
L 276.450341 261.216 
L 283.213977 261.216 
L 289.977614 261.216 
L 296.74125 261.216 
L 303.504886 261.216 
L 310.268523 261.216 
L 317.032159 261.216 
L 323.795795 261.216 
L 330.559432 261.216 
L 337.323068 261.216 
L 344.086705 261.216 
L 350.850341 261.216 
L 357.613977 261.216 
L 364.377614 261.216 
L 371.14125 261.216 
L 377.904886 261.216 
L 384.668523 261.216 
" style="fill:none;stroke:#2f9599;stroke-dasharray:2,3.3;stroke-dashoffset:0;stroke-width:2;"/>
   </g>
   <g id="line2d_17">
    <path clip-path="url(#p8a6e32b2ed)" d="M 60.013977 19.296 
L 66.777614 19.296 
L 73.54125 19.296 
L 80.304886 19.296 
L 87.068523 26.007016 
L 93.832159 39.429048 
L 100.595795 37.684184 
L 107.359432 37.684184 
L 114.123068 42.455585 
L 120.886705 28.071944 
L 127.650341 28.071944 
L 134.413977 39.049179 
L 141.177614 52.012203 
L 147.94125 63.656954 
L 154.704886 87.590457 
L 161.468523 107.21031 
L 168.232159 107.21031 
L 174.995795 112.161952 
L 181.759432 112.161952 
L 188.523068 107.471294 
L 195.286705 112.038513 
L 202.050341 109.658413 
L 208.813977 112.038513 
L 215.577614 145.379214 
L 222.34125 149.489711 
L 229.104886 152.697904 
L 235.868523 132.646698 
L 242.632159 142.358246 
L 249.395795 138.396321 
L 256.159432 154.244021 
L 262.923068 154.244021 
L 269.686705 154.244021 
L 276.450341 150.282096 
L 283.213977 237.444449 
L 289.977614 237.444449 
L 296.74125 237.444449 
L 303.504886 237.444449 
L 310.268523 237.444449 
L 317.032159 237.444449 
L 323.795795 237.444449 
L 330.559432 237.444449 
L 337.323068 237.444449 
L 344.086705 237.444449 
L 350.850341 237.444449 
L 357.613977 237.444449 
L 364.377614 237.444449 
L 371.14125 237.444449 
L 377.904886 237.444449 
L 384.668523 237.444449 
" style="fill:none;stroke:#a7226e;stroke-dasharray:12.8,3.2,2,3.2;stroke-dashoffset:0;stroke-width:2;"/>
   </g>
   <g id="patch_3">
    <path d="M 43.78125 273.312 
L 43.78125 7.2 
" style="fill:none;stroke:#000000;stroke-linecap:square;stroke-linejoin:miter;stroke-width:0.8;"/>
   </g>
   <g id="patch_4">
    <path d="M 400.90125 273.312 
L 400.90125 7.2 
" style="fill:none;stroke:#000000;stroke-linecap:square;stroke-linejoin:miter;stroke-width:0.8;"/>
   </g>
   <g id="patch_5">
    <path d="M 43.78125 273.312 
L 400.90125 273.312 
" style="fill:none;stroke:#000000;stroke-linecap:square;stroke-linejoin:miter;stroke-width:0.8;"/>
   </g>
   <g id="patch_6">
    <path d="M 43.78125 7.2 
L 400.90125 7.2 
" style="fill:none;stroke:#000000;stroke-linecap:square;stroke-linejoin:miter;stroke-width:0.8;"/>
   </g>
   <g id="legend_1">
    <g id="patch_7">
     <path d="M 315.427559 43.890912 
L 396.04325 43.890912 
Q 397.43125 43.890912 397.43125 42.502912 
L 397.43125 12.058 
Q 397.43125 10.67 396.04325 10.67 
L 315.427559 10.67 
Q 314.039559 10.67 314.039559 12.058 
L 314.039559 42.502912 
Q 314.039559 43.890912 315.427559 43.890912 
z
" style="fill:#ffffff;opacity:0.8;stroke:#cccccc;stroke-linejoin:miter;"/>
    </g>
    <g id="PathCollection_5">
     <defs>
      <path d="M 0 3 
C 0.795609 3 1.55874 2.683901 2.12132 2.12132 
C 2.683901 1.55874 3 0.795609 3 0 
C 3 -0.795609 2.683901 -1.55874 2.12132 -2.12132 
C 1.55874 -2.683901 0.795609 -3 0 -3 
C -0.795609 -3 -1.55874 -2.683901 -2.12132 -2.12132 
C -2.683901 -1.55874 -3 -0.795609 -3 0 
C -3 0.795609 -2.683901 1.55874 -2.12132 2.12132 
C -1.55874 2.683901 -0.795609 3 0 3 
z
" id="m69bc045777" style="stroke:#f26b38;"/>
     </defs>
     <g>
      <use style="fill:#f26b38;stroke:#f26b38;" x="323.755559" xlink:href="#m69bc045777" y="16.897566"/>
     </g>
    </g>
    <g id="text_17">
     <!-- mean_err -->
     <g transform="translate(336.247559 18.719316)scale(0.0694 -0.0694)">
      <defs>
       <path d="M 50.984375 -16.609375 
L 50.984375 -23.578125 
L -0.984375 -23.578125 
L -0.984375 -16.609375 
z
" id="DejaVuSans-95"/>
      </defs>
      <use xlink:href="#DejaVuSans-109"/>
      <use x="97.412109" xlink:href="#DejaVuSans-101"/>
      <use x="158.935547" xlink:href="#DejaVuSans-97"/>
      <use x="220.214844" xlink:href="#DejaVuSans-110"/>
      <use x="283.59375" xlink:href="#DejaVuSans-95"/>
      <use x="333.59375" xlink:href="#DejaVuSans-101"/>
      <use x="395.117188" xlink:href="#DejaVuSans-114"/>
      <use x="434.480469" xlink:href="#DejaVuSans-114"/>
     </g>
    </g>
    <g id="PathCollection_6">
     <defs>
      <path d="M -1.5 3 
L 0 1.5 
L 1.5 3 
L 3 1.5 
L 1.5 0 
L 3 -1.5 
L 1.5 -3 
L 0 -1.5 
L -1.5 -3 
L -3 -1.5 
L -1.5 0 
L -3 1.5 
z
" id="maf12ce223f" style="stroke:#2f9599;"/>
     </defs>
     <g>
      <use style="fill:#2f9599;stroke:#2f9599;" x="323.755559" xlink:href="#maf12ce223f" y="27.277203"/>
     </g>
    </g>
    <g id="text_18">
     <!-- mean_sq_err -->
     <g transform="translate(336.247559 29.098953)scale(0.0694 -0.0694)">
      <defs>
       <path d="M 44.28125 53.078125 
L 44.28125 44.578125 
Q 40.484375 46.53125 36.375 47.5 
Q 32.28125 48.484375 27.875 48.484375 
Q 21.1875 48.484375 17.84375 46.4375 
Q 14.5 44.390625 14.5 40.28125 
Q 14.5 37.15625 16.890625 35.375 
Q 19.28125 33.59375 26.515625 31.984375 
L 29.59375 31.296875 
Q 39.15625 29.25 43.1875 25.515625 
Q 47.21875 21.78125 47.21875 15.09375 
Q 47.21875 7.46875 41.1875 3.015625 
Q 35.15625 -1.421875 24.609375 -1.421875 
Q 20.21875 -1.421875 15.453125 -0.5625 
Q 10.6875 0.296875 5.421875 2 
L 5.421875 11.28125 
Q 10.40625 8.6875 15.234375 7.390625 
Q 20.0625 6.109375 24.8125 6.109375 
Q 31.15625 6.109375 34.5625 8.28125 
Q 37.984375 10.453125 37.984375 14.40625 
Q 37.984375 18.0625 35.515625 20.015625 
Q 33.0625 21.96875 24.703125 23.78125 
L 21.578125 24.515625 
Q 13.234375 26.265625 9.515625 29.90625 
Q 5.8125 33.546875 5.8125 39.890625 
Q 5.8125 47.609375 11.28125 51.796875 
Q 16.75 56 26.8125 56 
Q 31.78125 56 36.171875 55.265625 
Q 40.578125 54.546875 44.28125 53.078125 
z
" id="DejaVuSans-115"/>
       <path d="M 14.796875 27.296875 
Q 14.796875 17.390625 18.875 11.75 
Q 22.953125 6.109375 30.078125 6.109375 
Q 37.203125 6.109375 41.296875 11.75 
Q 45.40625 17.390625 45.40625 27.296875 
Q 45.40625 37.203125 41.296875 42.84375 
Q 37.203125 48.484375 30.078125 48.484375 
Q 22.953125 48.484375 18.875 42.84375 
Q 14.796875 37.203125 14.796875 27.296875 
z
M 45.40625 8.203125 
Q 42.578125 3.328125 38.25 0.953125 
Q 33.9375 -1.421875 27.875 -1.421875 
Q 17.96875 -1.421875 11.734375 6.484375 
Q 5.515625 14.40625 5.515625 27.296875 
Q 5.515625 40.1875 11.734375 48.09375 
Q 17.96875 56 27.875 56 
Q 33.9375 56 38.25 53.625 
Q 42.578125 51.265625 45.40625 46.390625 
L 45.40625 54.6875 
L 54.390625 54.6875 
L 54.390625 -20.796875 
L 45.40625 -20.796875 
z
" id="DejaVuSans-113"/>
      </defs>
      <use xlink:href="#DejaVuSans-109"/>
      <use x="97.412109" xlink:href="#DejaVuSans-101"/>
      <use x="158.935547" xlink:href="#DejaVuSans-97"/>
      <use x="220.214844" xlink:href="#DejaVuSans-110"/>
      <use x="283.59375" xlink:href="#DejaVuSans-95"/>
      <use x="333.59375" xlink:href="#DejaVuSans-115"/>
      <use x="385.693359" xlink:href="#DejaVuSans-113"/>
      <use x="449.169922" xlink:href="#DejaVuSans-95"/>
      <use x="499.169922" xlink:href="#DejaVuSans-101"/>
      <use x="560.693359" xlink:href="#DejaVuSans-114"/>
      <use x="600.056641" xlink:href="#DejaVuSans-114"/>
     </g>
    </g>
    <g id="PathCollection_7">
     <defs>
      <path d="M -2.12132 -2.12132 
L -2.12132 2.12132 
L 2.12132 2.12132 
L 2.12132 -2.12132 
z
" id="mb60d231fb9" style="stroke:#a7226e;"/>
     </defs>
     <g>
      <use style="fill:#a7226e;stroke:#a7226e;" x="323.755559" xlink:href="#mb60d231fb9" y="37.656841"/>
     </g>
    </g>
    <g id="text_19">
     <!-- mean_sqroot_err -->
     <g transform="translate(336.247559 39.478591)scale(0.0694 -0.0694)">
      <use xlink:href="#DejaVuSans-109"/>
      <use x="97.412109" xlink:href="#DejaVuSans-101"/>
      <use x="158.935547" xlink:href="#DejaVuSans-97"/>
      <use x="220.214844" xlink:href="#DejaVuSans-110"/>
      <use x="283.59375" xlink:href="#DejaVuSans-95"/>
      <use x="333.59375" xlink:href="#DejaVuSans-115"/>
      <use x="385.693359" xlink:href="#DejaVuSans-113"/>
      <use x="449.169922" xlink:href="#DejaVuSans-114"/>
      <use x="488.033203" xlink:href="#DejaVuSans-111"/>
      <use x="549.214844" xlink:href="#DejaVuSans-111"/>
      <use x="610.396484" xlink:href="#DejaVuSans-116"/>
      <use x="649.605469" xlink:href="#DejaVuSans-95"/>
      <use x="699.605469" xlink:href="#DejaVuSans-101"/>
      <use x="761.128906" xlink:href="#DejaVuSans-114"/>
      <use x="800.492188" xlink:href="#DejaVuSans-114"/>
     </g>
    </g>
   </g>
  </g>
 </g>
 <defs>
  <clipPath id="p8a6e32b2ed">
   <rect height="266.112" width="357.12" x="43.78125" y="7.2"/>
  </clipPath>
 </defs>
</svg>
