<?xml version="1.0" encoding="utf-8" standalone="no"?>
<!DOCTYPE svg PUBLIC "-//W3C//DTD SVG 1.1//EN"
  "http://www.w3.org/Graphics/SVG/1.1/DTD/svg11.dtd">
<!-- Created with matplotlib (https://matplotlib.org/) -->
<svg height="310.86825pt" version="1.1" viewBox="0 0 414.46375 310.86825" width="414.46375pt" xmlns="http://www.w3.org/2000/svg" xmlns:xlink="http://www.w3.org/1999/xlink">
 <metadata>
  <rdf:RDF xmlns:cc="http://creativecommons.org/ns#" xmlns:dc="http://purl.org/dc/elements/1.1/" xmlns:rdf="http://www.w3.org/1999/02/22-rdf-syntax-ns#">
   <cc:Work>
    <dc:type rdf:resource="http://purl.org/dc/dcmitype/StillImage"/>
    <dc:date>2022-05-27T21:31:35.534501</dc:date>
    <dc:format>image/svg+xml</dc:format>
    <dc:creator>
     <cc:Agent>
      <dc:title>Matplotlib v3.3.4, https://matplotlib.org/</dc:title>
     </cc:Agent>
    </dc:creator>
   </cc:Work>
  </rdf:RDF>
 </metadata>
 <defs>
  <style type="text/css">*{stroke-linecap:butt;stroke-linejoin:round;}</style>
 </defs>
 <g id="figure_1">
  <g id="patch_1">
   <path d="M 0 310.86825 
L 414.46375 310.86825 
L 414.46375 0 
L 0 0 
z
" style="fill:#ffffff;"/>
  </g>
  <g id="axes_1">
   <g id="patch_2">
    <path d="M 50.14375 273.312 
L 407.26375 273.312 
L 407.26375 7.2 
L 50.14375 7.2 
z
" style="fill:#ffffff;"/>
   </g>
   <g id="PathCollection_1">
    <path clip-path="url(#p27d592cc4f)" d="M 66.376477 264.216 
C 67.172087 264.216 67.935217 263.899901 68.497798 263.33732 
C 69.060378 262.77474 69.376477 262.011609 69.376477 261.216 
C 69.376477 260.420391 69.060378 259.65726 68.497798 259.09468 
C 67.935217 258.532099 67.172087 258.216 66.376477 258.216 
C 65.580868 258.216 64.817738 258.532099 64.255157 259.09468 
C 63.692576 259.65726 63.376477 260.420391 63.376477 261.216 
C 63.376477 262.011609 63.692576 262.77474 64.255157 263.33732 
C 64.817738 263.899901 65.580868 264.216 66.376477 264.216 
z
" style="fill:#f26b38;stroke:#ffffff;stroke-width:0.48;"/>
    <path clip-path="url(#p27d592cc4f)" d="M 73.140114 263.599834 
C 73.935723 263.599834 74.698853 263.283735 75.261434 262.721155 
C 75.824015 262.158574 76.140114 261.395444 76.140114 260.599834 
C 76.140114 259.804225 75.824015 259.041095 75.261434 258.478514 
C 74.698853 257.915933 73.935723 257.599834 73.140114 257.599834 
C 72.344504 257.599834 71.581374 257.915933 71.018793 258.478514 
C 70.456213 259.041095 70.140114 259.804225 70.140114 260.599834 
C 70.140114 261.395444 70.456213 262.158574 71.018793 262.721155 
C 71.581374 263.283735 72.344504 263.599834 73.140114 263.599834 
z
" style="fill:#f26b38;stroke:#ffffff;stroke-width:0.48;"/>
    <path clip-path="url(#p27d592cc4f)" d="M 79.90375 253.446117 
C 80.699359 253.446117 81.46249 253.130018 82.02507 252.567437 
C 82.587651 252.004856 82.90375 251.241726 82.90375 250.446117 
C 82.90375 249.650507 82.587651 248.887377 82.02507 248.324796 
C 81.46249 247.762216 80.699359 247.446117 79.90375 247.446117 
C 79.108141 247.446117 78.34501 247.762216 77.78243 248.324796 
C 77.219849 248.887377 76.90375 249.650507 76.90375 250.446117 
C 76.90375 251.241726 77.219849 252.004856 77.78243 252.567437 
C 78.34501 253.130018 79.108141 253.446117 79.90375 253.446117 
z
" style="fill:#f26b38;stroke:#ffffff;stroke-width:0.48;"/>
    <path clip-path="url(#p27d592cc4f)" d="M 86.667386 248.151678 
C 87.462996 248.151678 88.226126 247.835579 88.788707 247.272999 
C 89.351287 246.710418 89.667386 245.947288 89.667386 245.151678 
C 89.667386 244.356069 89.351287 243.592939 88.788707 243.030358 
C 88.226126 242.467777 87.462996 242.151678 86.667386 242.151678 
C 85.871777 242.151678 85.108647 242.467777 84.546066 243.030358 
C 83.983485 243.592939 83.667386 244.356069 83.667386 245.151678 
C 83.667386 245.947288 83.983485 246.710418 84.546066 247.272999 
C 85.108647 247.835579 85.871777 248.151678 86.667386 248.151678 
z
" style="fill:#f26b38;stroke:#ffffff;stroke-width:0.48;"/>
    <path clip-path="url(#p27d592cc4f)" d="M 93.431023 212.910573 
C 94.226632 212.910573 94.989762 212.594474 95.552343 212.031893 
C 96.114924 211.469312 96.431023 210.706182 96.431023 209.910573 
C 96.431023 209.114964 96.114924 208.351833 95.552343 207.789253 
C 94.989762 207.226672 94.226632 206.910573 93.431023 206.910573 
C 92.635413 206.910573 91.872283 207.226672 91.309702 207.789253 
C 90.747122 208.351833 90.431023 209.114964 90.431023 209.910573 
C 90.431023 210.706182 90.747122 211.469312 91.309702 212.031893 
C 91.872283 212.594474 92.635413 212.910573 93.431023 212.910573 
z
" style="fill:#f26b38;stroke:#ffffff;stroke-width:0.48;"/>
    <path clip-path="url(#p27d592cc4f)" d="M 100.194659 206.384442 
C 100.990268 206.384442 101.753399 206.068343 102.315979 205.505763 
C 102.87856 204.943182 103.194659 204.180052 103.194659 203.384442 
C 103.194659 202.588833 102.87856 201.825703 102.315979 201.263122 
C 101.753399 200.700541 100.990268 200.384442 100.194659 200.384442 
C 99.39905 200.384442 98.635919 200.700541 98.073339 201.263122 
C 97.510758 201.825703 97.194659 202.588833 97.194659 203.384442 
C 97.194659 204.180052 97.510758 204.943182 98.073339 205.505763 
C 98.635919 206.068343 99.39905 206.384442 100.194659 206.384442 
z
" style="fill:#f26b38;stroke:#ffffff;stroke-width:0.48;"/>
    <path clip-path="url(#p27d592cc4f)" d="M 106.958295 206.384442 
C 107.753905 206.384442 108.517035 206.068343 109.079616 205.505763 
C 109.642197 204.943182 109.958295 204.180052 109.958295 203.384442 
C 109.958295 202.588833 109.642197 201.825703 109.079616 201.263122 
C 108.517035 200.700541 107.753905 200.384442 106.958295 200.384442 
C 106.162686 200.384442 105.399556 200.700541 104.836975 201.263122 
C 104.274394 201.825703 103.958295 202.588833 103.958295 203.384442 
C 103.958295 204.180052 104.274394 204.943182 104.836975 205.505763 
C 105.399556 206.068343 106.162686 206.384442 106.958295 206.384442 
z
" style="fill:#f26b38;stroke:#ffffff;stroke-width:0.48;"/>
    <path clip-path="url(#p27d592cc4f)" d="M 113.721932 195.674894 
C 114.517541 195.674894 115.280671 195.358796 115.843252 194.796215 
C 116.405833 194.233634 116.721932 193.470504 116.721932 192.674894 
C 116.721932 191.879285 116.405833 191.116155 115.843252 190.553574 
C 115.280671 189.990993 114.517541 189.674894 113.721932 189.674894 
C 112.926323 189.674894 112.163192 189.990993 111.600611 190.553574 
C 111.038031 191.116155 110.721932 191.879285 110.721932 192.674894 
C 110.721932 193.470504 111.038031 194.233634 111.600611 194.796215 
C 112.163192 195.358796 112.926323 195.674894 113.721932 195.674894 
z
" style="fill:#f26b38;stroke:#ffffff;stroke-width:0.48;"/>
    <path clip-path="url(#p27d592cc4f)" d="M 120.485568 158.74542 
C 121.281177 158.74542 122.044308 158.429321 122.606889 157.86674 
C 123.169469 157.304159 123.485568 156.541029 123.485568 155.74542 
C 123.485568 154.94981 123.169469 154.18668 122.606889 153.624099 
C 122.044308 153.061518 121.281177 152.74542 120.485568 152.74542 
C 119.689959 152.74542 118.926829 153.061518 118.364248 153.624099 
C 117.801667 154.18668 117.485568 154.94981 117.485568 155.74542 
C 117.485568 156.541029 117.801667 157.304159 118.364248 157.86674 
C 118.926829 158.429321 119.689959 158.74542 120.485568 158.74542 
z
" style="fill:#f26b38;stroke:#ffffff;stroke-width:0.48;"/>
    <path clip-path="url(#p27d592cc4f)" d="M 127.249205 214.416603 
C 128.044814 214.416603 128.807944 214.100504 129.370525 213.537923 
C 129.933106 212.975343 130.249205 212.212212 130.249205 211.416603 
C 130.249205 210.620994 129.933106 209.857863 129.370525 209.295283 
C 128.807944 208.732702 128.044814 208.416603 127.249205 208.416603 
C 126.453595 208.416603 125.690465 208.732702 125.127884 209.295283 
C 124.565303 209.857863 124.249205 210.620994 124.249205 211.416603 
C 124.249205 212.212212 124.565303 212.975343 125.127884 213.537923 
C 125.690465 214.100504 126.453595 214.416603 127.249205 214.416603 
z
" style="fill:#f26b38;stroke:#ffffff;stroke-width:0.48;"/>
    <path clip-path="url(#p27d592cc4f)" d="M 134.012841 206.968599 
C 134.80845 206.968599 135.571581 206.6525 136.134161 206.08992 
C 136.696742 205.527339 137.012841 204.764209 137.012841 203.968599 
C 137.012841 203.17299 136.696742 202.40986 136.134161 201.847279 
C 135.571581 201.284698 134.80845 200.968599 134.012841 200.968599 
C 133.217232 200.968599 132.454101 201.284698 131.891521 201.847279 
C 131.32894 202.40986 131.012841 203.17299 131.012841 203.968599 
C 131.012841 204.764209 131.32894 205.527339 131.891521 206.08992 
C 132.454101 206.6525 133.217232 206.968599 134.012841 206.968599 
z
" style="fill:#f26b38;stroke:#ffffff;stroke-width:0.48;"/>
    <path clip-path="url(#p27d592cc4f)" d="M 140.776477 211.739216 
C 141.572087 211.739216 142.335217 211.423117 142.897798 210.860536 
C 143.460378 210.297956 143.776477 209.534825 143.776477 208.739216 
C 143.776477 207.943607 143.460378 207.180476 142.897798 206.617896 
C 142.335217 206.055315 141.572087 205.739216 140.776477 205.739216 
C 139.980868 205.739216 139.217738 206.055315 138.655157 206.617896 
C 138.092576 207.180476 137.776477 207.943607 137.776477 208.739216 
C 137.776477 209.534825 138.092576 210.297956 138.655157 210.860536 
C 139.217738 211.423117 139.980868 211.739216 140.776477 211.739216 
z
" style="fill:#f26b38;stroke:#ffffff;stroke-width:0.48;"/>
    <path clip-path="url(#p27d592cc4f)" d="M 147.540114 211.739216 
C 148.335723 211.739216 149.098853 211.423117 149.661434 210.860536 
C 150.224015 210.297956 150.540114 209.534825 150.540114 208.739216 
C 150.540114 207.943607 150.224015 207.180476 149.661434 206.617896 
C 149.098853 206.055315 148.335723 205.739216 147.540114 205.739216 
C 146.744504 205.739216 145.981374 206.055315 145.418793 206.617896 
C 144.856213 207.180476 144.540114 207.943607 144.540114 208.739216 
C 144.540114 209.534825 144.856213 210.297956 145.418793 210.860536 
C 145.981374 211.423117 146.744504 211.739216 147.540114 211.739216 
z
" style="fill:#f26b38;stroke:#ffffff;stroke-width:0.48;"/>
    <path clip-path="url(#p27d592cc4f)" d="M 154.30375 178.753809 
C 155.099359 178.753809 155.86249 178.43771 156.42507 177.875129 
C 156.987651 177.312549 157.30375 176.549418 157.30375 175.753809 
C 157.30375 174.9582 156.987651 174.195069 156.42507 173.632489 
C 155.86249 173.069908 155.099359 172.753809 154.30375 172.753809 
C 153.508141 172.753809 152.74501 173.069908 152.18243 173.632489 
C 151.619849 174.195069 151.30375 174.9582 151.30375 175.753809 
C 151.30375 176.549418 151.619849 177.312549 152.18243 177.875129 
C 152.74501 178.43771 153.508141 178.753809 154.30375 178.753809 
z
" style="fill:#f26b38;stroke:#ffffff;stroke-width:0.48;"/>
    <path clip-path="url(#p27d592cc4f)" d="M 161.067386 202.368362 
C 161.862996 202.368362 162.626126 202.052263 163.188707 201.489682 
C 163.751287 200.927101 164.067386 200.163971 164.067386 199.368362 
C 164.067386 198.572753 163.751287 197.809622 163.188707 197.247041 
C 162.626126 196.684461 161.862996 196.368362 161.067386 196.368362 
C 160.271777 196.368362 159.508647 196.684461 158.946066 197.247041 
C 158.383485 197.809622 158.067386 198.572753 158.067386 199.368362 
C 158.067386 200.163971 158.383485 200.927101 158.946066 201.489682 
C 159.508647 202.052263 160.271777 202.368362 161.067386 202.368362 
z
" style="fill:#f26b38;stroke:#ffffff;stroke-width:0.48;"/>
    <path clip-path="url(#p27d592cc4f)" d="M 167.831023 202.368362 
C 168.626632 202.368362 169.389762 202.052263 169.952343 201.489682 
C 170.514924 200.927101 170.831023 200.163971 170.831023 199.368362 
C 170.831023 198.572753 170.514924 197.809622 169.952343 197.247041 
C 169.389762 196.684461 168.626632 196.368362 167.831023 196.368362 
C 167.035413 196.368362 166.272283 196.684461 165.709702 197.247041 
C 165.147122 197.809622 164.831023 198.572753 164.831023 199.368362 
C 164.831023 200.163971 165.147122 200.927101 165.709702 201.489682 
C 166.272283 202.052263 167.035413 202.368362 167.831023 202.368362 
z
" style="fill:#f26b38;stroke:#ffffff;stroke-width:0.48;"/>
    <path clip-path="url(#p27d592cc4f)" d="M 174.594659 202.368362 
C 175.390268 202.368362 176.153399 202.052263 176.715979 201.489682 
C 177.27856 200.927101 177.594659 200.163971 177.594659 199.368362 
C 177.594659 198.572753 177.27856 197.809622 176.715979 197.247041 
C 176.153399 196.684461 175.390268 196.368362 174.594659 196.368362 
C 173.79905 196.368362 173.035919 196.684461 172.473339 197.247041 
C 171.910758 197.809622 171.594659 198.572753 171.594659 199.368362 
C 171.594659 200.163971 171.910758 200.927101 172.473339 201.489682 
C 173.035919 202.052263 173.79905 202.368362 174.594659 202.368362 
z
" style="fill:#f26b38;stroke:#ffffff;stroke-width:0.48;"/>
    <path clip-path="url(#p27d592cc4f)" d="M 181.358295 193.396267 
C 182.153905 193.396267 182.917035 193.080168 183.479616 192.517588 
C 184.042197 191.955007 184.358295 191.191877 184.358295 190.396267 
C 184.358295 189.600658 184.042197 188.837528 183.479616 188.274947 
C 182.917035 187.712366 182.153905 187.396267 181.358295 187.396267 
C 180.562686 187.396267 179.799556 187.712366 179.236975 188.274947 
C 178.674394 188.837528 178.358295 189.600658 178.358295 190.396267 
C 178.358295 191.191877 178.674394 191.955007 179.236975 192.517588 
C 179.799556 193.080168 180.562686 193.396267 181.358295 193.396267 
z
" style="fill:#f26b38;stroke:#ffffff;stroke-width:0.48;"/>
    <path clip-path="url(#p27d592cc4f)" d="M 188.121932 193.396267 
C 188.917541 193.396267 189.680671 193.080168 190.243252 192.517588 
C 190.805833 191.955007 191.121932 191.191877 191.121932 190.396267 
C 191.121932 189.600658 190.805833 188.837528 190.243252 188.274947 
C 189.680671 187.712366 188.917541 187.396267 188.121932 187.396267 
C 187.326323 187.396267 186.563192 187.712366 186.000611 188.274947 
C 185.438031 188.837528 185.121932 189.600658 185.121932 190.396267 
C 185.121932 191.191877 185.438031 191.955007 186.000611 192.517588 
C 186.563192 193.080168 187.326323 193.396267 188.121932 193.396267 
z
" style="fill:#f26b38;stroke:#ffffff;stroke-width:0.48;"/>
    <path clip-path="url(#p27d592cc4f)" d="M 194.885568 193.396267 
C 195.681177 193.396267 196.444308 193.080168 197.006889 192.517588 
C 197.569469 191.955007 197.885568 191.191877 197.885568 190.396267 
C 197.885568 189.600658 197.569469 188.837528 197.006889 188.274947 
C 196.444308 187.712366 195.681177 187.396267 194.885568 187.396267 
C 194.089959 187.396267 193.326829 187.712366 192.764248 188.274947 
C 192.201667 188.837528 191.885568 189.600658 191.885568 190.396267 
C 191.885568 191.191877 192.201667 191.955007 192.764248 192.517588 
C 193.326829 193.080168 194.089959 193.396267 194.885568 193.396267 
z
" style="fill:#f26b38;stroke:#ffffff;stroke-width:0.48;"/>
    <path clip-path="url(#p27d592cc4f)" d="M 201.649205 142.127156 
C 202.444814 142.127156 203.207944 141.811057 203.770525 141.248476 
C 204.333106 140.685895 204.649205 139.922765 204.649205 139.127156 
C 204.649205 138.331546 204.333106 137.568416 203.770525 137.005835 
C 203.207944 136.443255 202.444814 136.127156 201.649205 136.127156 
C 200.853595 136.127156 200.090465 136.443255 199.527884 137.005835 
C 198.965303 137.568416 198.649205 138.331546 198.649205 139.127156 
C 198.649205 139.922765 198.965303 140.685895 199.527884 141.248476 
C 200.090465 141.811057 200.853595 142.127156 201.649205 142.127156 
z
" style="fill:#f26b38;stroke:#ffffff;stroke-width:0.48;"/>
    <path clip-path="url(#p27d592cc4f)" d="M 208.412841 142.127156 
C 209.20845 142.127156 209.971581 141.811057 210.534161 141.248476 
C 211.096742 140.685895 211.412841 139.922765 211.412841 139.127156 
C 211.412841 138.331546 211.096742 137.568416 210.534161 137.005835 
C 209.971581 136.443255 209.20845 136.127156 208.412841 136.127156 
C 207.617232 136.127156 206.854101 136.443255 206.291521 137.005835 
C 205.72894 137.568416 205.412841 138.331546 205.412841 139.127156 
C 205.412841 139.922765 205.72894 140.685895 206.291521 141.248476 
C 206.854101 141.811057 207.617232 142.127156 208.412841 142.127156 
z
" style="fill:#f26b38;stroke:#ffffff;stroke-width:0.48;"/>
    <path clip-path="url(#p27d592cc4f)" d="M 215.176477 142.127156 
C 215.972087 142.127156 216.735217 141.811057 217.297798 141.248476 
C 217.860378 140.685895 218.176477 139.922765 218.176477 139.127156 
C 218.176477 138.331546 217.860378 137.568416 217.297798 137.005835 
C 216.735217 136.443255 215.972087 136.127156 215.176477 136.127156 
C 214.380868 136.127156 213.617738 136.443255 213.055157 137.005835 
C 212.492576 137.568416 212.176477 138.331546 212.176477 139.127156 
C 212.176477 139.922765 212.492576 140.685895 213.055157 141.248476 
C 213.617738 141.811057 214.380868 142.127156 215.176477 142.127156 
z
" style="fill:#f26b38;stroke:#ffffff;stroke-width:0.48;"/>
    <path clip-path="url(#p27d592cc4f)" d="M 221.940114 142.127156 
C 222.735723 142.127156 223.498853 141.811057 224.061434 141.248476 
C 224.624015 140.685895 224.940114 139.922765 224.940114 139.127156 
C 224.940114 138.331546 224.624015 137.568416 224.061434 137.005835 
C 223.498853 136.443255 222.735723 136.127156 221.940114 136.127156 
C 221.144504 136.127156 220.381374 136.443255 219.818793 137.005835 
C 219.256213 137.568416 218.940114 138.331546 218.940114 139.127156 
C 218.940114 139.922765 219.256213 140.685895 219.818793 141.248476 
C 220.381374 141.811057 221.144504 142.127156 221.940114 142.127156 
z
" style="fill:#f26b38;stroke:#ffffff;stroke-width:0.48;"/>
    <path clip-path="url(#p27d592cc4f)" d="M 228.70375 130.372774 
C 229.499359 130.372774 230.26249 130.056675 230.82507 129.494094 
C 231.387651 128.931514 231.70375 128.168383 231.70375 127.372774 
C 231.70375 126.577165 231.387651 125.814035 230.82507 125.251454 
C 230.26249 124.688873 229.499359 124.372774 228.70375 124.372774 
C 227.908141 124.372774 227.14501 124.688873 226.58243 125.251454 
C 226.019849 125.814035 225.70375 126.577165 225.70375 127.372774 
C 225.70375 128.168383 226.019849 128.931514 226.58243 129.494094 
C 227.14501 130.056675 227.908141 130.372774 228.70375 130.372774 
z
" style="fill:#f26b38;stroke:#ffffff;stroke-width:0.48;"/>
    <path clip-path="url(#p27d592cc4f)" d="M 235.467386 22.296 
C 236.262996 22.296 237.026126 21.979901 237.588707 21.41732 
C 238.151287 20.85474 238.467386 20.091609 238.467386 19.296 
C 238.467386 18.500391 238.151287 17.73726 237.588707 17.17468 
C 237.026126 16.612099 236.262996 16.296 235.467386 16.296 
C 234.671777 16.296 233.908647 16.612099 233.346066 17.17468 
C 232.783485 17.73726 232.467386 18.500391 232.467386 19.296 
C 232.467386 20.091609 232.783485 20.85474 233.346066 21.41732 
C 233.908647 21.979901 234.671777 22.296 235.467386 22.296 
z
" style="fill:#f26b38;stroke:#ffffff;stroke-width:0.48;"/>
    <path clip-path="url(#p27d592cc4f)" d="M 242.231023 22.296 
C 243.026632 22.296 243.789762 21.979901 244.352343 21.41732 
C 244.914924 20.85474 245.231023 20.091609 245.231023 19.296 
C 245.231023 18.500391 244.914924 17.73726 244.352343 17.17468 
C 243.789762 16.612099 243.026632 16.296 242.231023 16.296 
C 241.435413 16.296 240.672283 16.612099 240.109702 17.17468 
C 239.547122 17.73726 239.231023 18.500391 239.231023 19.296 
C 239.231023 20.091609 239.547122 20.85474 240.109702 21.41732 
C 240.672283 21.979901 241.435413 22.296 242.231023 22.296 
z
" style="fill:#f26b38;stroke:#ffffff;stroke-width:0.48;"/>
    <path clip-path="url(#p27d592cc4f)" d="M 248.994659 22.296 
C 249.790268 22.296 250.553399 21.979901 251.115979 21.41732 
C 251.67856 20.85474 251.994659 20.091609 251.994659 19.296 
C 251.994659 18.500391 251.67856 17.73726 251.115979 17.17468 
C 250.553399 16.612099 249.790268 16.296 248.994659 16.296 
C 248.19905 16.296 247.435919 16.612099 246.873339 17.17468 
C 246.310758 17.73726 245.994659 18.500391 245.994659 19.296 
C 245.994659 20.091609 246.310758 20.85474 246.873339 21.41732 
C 247.435919 21.979901 248.19905 22.296 248.994659 22.296 
z
" style="fill:#f26b38;stroke:#ffffff;stroke-width:0.48;"/>
    <path clip-path="url(#p27d592cc4f)" d="M 255.758295 22.296 
C 256.553905 22.296 257.317035 21.979901 257.879616 21.41732 
C 258.442197 20.85474 258.758295 20.091609 258.758295 19.296 
C 258.758295 18.500391 258.442197 17.73726 257.879616 17.17468 
C 257.317035 16.612099 256.553905 16.296 255.758295 16.296 
C 254.962686 16.296 254.199556 16.612099 253.636975 17.17468 
C 253.074394 17.73726 252.758295 18.500391 252.758295 19.296 
C 252.758295 20.091609 253.074394 20.85474 253.636975 21.41732 
C 254.199556 21.979901 254.962686 22.296 255.758295 22.296 
z
" style="fill:#f26b38;stroke:#ffffff;stroke-width:0.48;"/>
    <path clip-path="url(#p27d592cc4f)" d="M 262.521932 22.296 
C 263.317541 22.296 264.080671 21.979901 264.643252 21.41732 
C 265.205833 20.85474 265.521932 20.091609 265.521932 19.296 
C 265.521932 18.500391 265.205833 17.73726 264.643252 17.17468 
C 264.080671 16.612099 263.317541 16.296 262.521932 16.296 
C 261.726323 16.296 260.963192 16.612099 260.400611 17.17468 
C 259.838031 17.73726 259.521932 18.500391 259.521932 19.296 
C 259.521932 20.091609 259.838031 20.85474 260.400611 21.41732 
C 260.963192 21.979901 261.726323 22.296 262.521932 22.296 
z
" style="fill:#f26b38;stroke:#ffffff;stroke-width:0.48;"/>
    <path clip-path="url(#p27d592cc4f)" d="M 269.285568 22.296 
C 270.081177 22.296 270.844308 21.979901 271.406889 21.41732 
C 271.969469 20.85474 272.285568 20.091609 272.285568 19.296 
C 272.285568 18.500391 271.969469 17.73726 271.406889 17.17468 
C 270.844308 16.612099 270.081177 16.296 269.285568 16.296 
C 268.489959 16.296 267.726829 16.612099 267.164248 17.17468 
C 266.601667 17.73726 266.285568 18.500391 266.285568 19.296 
C 266.285568 20.091609 266.601667 20.85474 267.164248 21.41732 
C 267.726829 21.979901 268.489959 22.296 269.285568 22.296 
z
" style="fill:#f26b38;stroke:#ffffff;stroke-width:0.48;"/>
    <path clip-path="url(#p27d592cc4f)" d="M 276.049205 22.296 
C 276.844814 22.296 277.607944 21.979901 278.170525 21.41732 
C 278.733106 20.85474 279.049205 20.091609 279.049205 19.296 
C 279.049205 18.500391 278.733106 17.73726 278.170525 17.17468 
C 277.607944 16.612099 276.844814 16.296 276.049205 16.296 
C 275.253595 16.296 274.490465 16.612099 273.927884 17.17468 
C 273.365303 17.73726 273.049205 18.500391 273.049205 19.296 
C 273.049205 20.091609 273.365303 20.85474 273.927884 21.41732 
C 274.490465 21.979901 275.253595 22.296 276.049205 22.296 
z
" style="fill:#f26b38;stroke:#ffffff;stroke-width:0.48;"/>
    <path clip-path="url(#p27d592cc4f)" d="M 282.812841 22.296 
C 283.60845 22.296 284.371581 21.979901 284.934161 21.41732 
C 285.496742 20.85474 285.812841 20.091609 285.812841 19.296 
C 285.812841 18.500391 285.496742 17.73726 284.934161 17.17468 
C 284.371581 16.612099 283.60845 16.296 282.812841 16.296 
C 282.017232 16.296 281.254101 16.612099 280.691521 17.17468 
C 280.12894 17.73726 279.812841 18.500391 279.812841 19.296 
C 279.812841 20.091609 280.12894 20.85474 280.691521 21.41732 
C 281.254101 21.979901 282.017232 22.296 282.812841 22.296 
z
" style="fill:#f26b38;stroke:#ffffff;stroke-width:0.48;"/>
    <path clip-path="url(#p27d592cc4f)" d="M 289.576477 22.296 
C 290.372087 22.296 291.135217 21.979901 291.697798 21.41732 
C 292.260378 20.85474 292.576477 20.091609 292.576477 19.296 
C 292.576477 18.500391 292.260378 17.73726 291.697798 17.17468 
C 291.135217 16.612099 290.372087 16.296 289.576477 16.296 
C 288.780868 16.296 288.017738 16.612099 287.455157 17.17468 
C 286.892576 17.73726 286.576477 18.500391 286.576477 19.296 
C 286.576477 20.091609 286.892576 20.85474 287.455157 21.41732 
C 288.017738 21.979901 288.780868 22.296 289.576477 22.296 
z
" style="fill:#f26b38;stroke:#ffffff;stroke-width:0.48;"/>
    <path clip-path="url(#p27d592cc4f)" d="M 296.340114 22.296 
C 297.135723 22.296 297.898853 21.979901 298.461434 21.41732 
C 299.024015 20.85474 299.340114 20.091609 299.340114 19.296 
C 299.340114 18.500391 299.024015 17.73726 298.461434 17.17468 
C 297.898853 16.612099 297.135723 16.296 296.340114 16.296 
C 295.544504 16.296 294.781374 16.612099 294.218793 17.17468 
C 293.656213 17.73726 293.340114 18.500391 293.340114 19.296 
C 293.340114 20.091609 293.656213 20.85474 294.218793 21.41732 
C 294.781374 21.979901 295.544504 22.296 296.340114 22.296 
z
" style="fill:#f26b38;stroke:#ffffff;stroke-width:0.48;"/>
    <path clip-path="url(#p27d592cc4f)" d="M 303.10375 22.296 
C 303.899359 22.296 304.66249 21.979901 305.22507 21.41732 
C 305.787651 20.85474 306.10375 20.091609 306.10375 19.296 
C 306.10375 18.500391 305.787651 17.73726 305.22507 17.17468 
C 304.66249 16.612099 303.899359 16.296 303.10375 16.296 
C 302.308141 16.296 301.54501 16.612099 300.98243 17.17468 
C 300.419849 17.73726 300.10375 18.500391 300.10375 19.296 
C 300.10375 20.091609 300.419849 20.85474 300.98243 21.41732 
C 301.54501 21.979901 302.308141 22.296 303.10375 22.296 
z
" style="fill:#f26b38;stroke:#ffffff;stroke-width:0.48;"/>
    <path clip-path="url(#p27d592cc4f)" d="M 309.867386 22.296 
C 310.662996 22.296 311.426126 21.979901 311.988707 21.41732 
C 312.551287 20.85474 312.867386 20.091609 312.867386 19.296 
C 312.867386 18.500391 312.551287 17.73726 311.988707 17.17468 
C 311.426126 16.612099 310.662996 16.296 309.867386 16.296 
C 309.071777 16.296 308.308647 16.612099 307.746066 17.17468 
C 307.183485 17.73726 306.867386 18.500391 306.867386 19.296 
C 306.867386 20.091609 307.183485 20.85474 307.746066 21.41732 
C 308.308647 21.979901 309.071777 22.296 309.867386 22.296 
z
" style="fill:#f26b38;stroke:#ffffff;stroke-width:0.48;"/>
    <path clip-path="url(#p27d592cc4f)" d="M 316.631023 22.296 
C 317.426632 22.296 318.189762 21.979901 318.752343 21.41732 
C 319.314924 20.85474 319.631023 20.091609 319.631023 19.296 
C 319.631023 18.500391 319.314924 17.73726 318.752343 17.17468 
C 318.189762 16.612099 317.426632 16.296 316.631023 16.296 
C 315.835413 16.296 315.072283 16.612099 314.509702 17.17468 
C 313.947122 17.73726 313.631023 18.500391 313.631023 19.296 
C 313.631023 20.091609 313.947122 20.85474 314.509702 21.41732 
C 315.072283 21.979901 315.835413 22.296 316.631023 22.296 
z
" style="fill:#f26b38;stroke:#ffffff;stroke-width:0.48;"/>
    <path clip-path="url(#p27d592cc4f)" d="M 323.394659 22.296 
C 324.190268 22.296 324.953399 21.979901 325.515979 21.41732 
C 326.07856 20.85474 326.394659 20.091609 326.394659 19.296 
C 326.394659 18.500391 326.07856 17.73726 325.515979 17.17468 
C 324.953399 16.612099 324.190268 16.296 323.394659 16.296 
C 322.59905 16.296 321.835919 16.612099 321.273339 17.17468 
C 320.710758 17.73726 320.394659 18.500391 320.394659 19.296 
C 320.394659 20.091609 320.710758 20.85474 321.273339 21.41732 
C 321.835919 21.979901 322.59905 22.296 323.394659 22.296 
z
" style="fill:#f26b38;stroke:#ffffff;stroke-width:0.48;"/>
    <path clip-path="url(#p27d592cc4f)" d="M 330.158295 22.296 
C 330.953905 22.296 331.717035 21.979901 332.279616 21.41732 
C 332.842197 20.85474 333.158295 20.091609 333.158295 19.296 
C 333.158295 18.500391 332.842197 17.73726 332.279616 17.17468 
C 331.717035 16.612099 330.953905 16.296 330.158295 16.296 
C 329.362686 16.296 328.599556 16.612099 328.036975 17.17468 
C 327.474394 17.73726 327.158295 18.500391 327.158295 19.296 
C 327.158295 20.091609 327.474394 20.85474 328.036975 21.41732 
C 328.599556 21.979901 329.362686 22.296 330.158295 22.296 
z
" style="fill:#f26b38;stroke:#ffffff;stroke-width:0.48;"/>
    <path clip-path="url(#p27d592cc4f)" d="M 336.921932 22.296 
C 337.717541 22.296 338.480671 21.979901 339.043252 21.41732 
C 339.605833 20.85474 339.921932 20.091609 339.921932 19.296 
C 339.921932 18.500391 339.605833 17.73726 339.043252 17.17468 
C 338.480671 16.612099 337.717541 16.296 336.921932 16.296 
C 336.126323 16.296 335.363192 16.612099 334.800611 17.17468 
C 334.238031 17.73726 333.921932 18.500391 333.921932 19.296 
C 333.921932 20.091609 334.238031 20.85474 334.800611 21.41732 
C 335.363192 21.979901 336.126323 22.296 336.921932 22.296 
z
" style="fill:#f26b38;stroke:#ffffff;stroke-width:0.48;"/>
    <path clip-path="url(#p27d592cc4f)" d="M 343.685568 22.296 
C 344.481177 22.296 345.244308 21.979901 345.806889 21.41732 
C 346.369469 20.85474 346.685568 20.091609 346.685568 19.296 
C 346.685568 18.500391 346.369469 17.73726 345.806889 17.17468 
C 345.244308 16.612099 344.481177 16.296 343.685568 16.296 
C 342.889959 16.296 342.126829 16.612099 341.564248 17.17468 
C 341.001667 17.73726 340.685568 18.500391 340.685568 19.296 
C 340.685568 20.091609 341.001667 20.85474 341.564248 21.41732 
C 342.126829 21.979901 342.889959 22.296 343.685568 22.296 
z
" style="fill:#f26b38;stroke:#ffffff;stroke-width:0.48;"/>
    <path clip-path="url(#p27d592cc4f)" d="M 350.449205 22.296 
C 351.244814 22.296 352.007944 21.979901 352.570525 21.41732 
C 353.133106 20.85474 353.449205 20.091609 353.449205 19.296 
C 353.449205 18.500391 353.133106 17.73726 352.570525 17.17468 
C 352.007944 16.612099 351.244814 16.296 350.449205 16.296 
C 349.653595 16.296 348.890465 16.612099 348.327884 17.17468 
C 347.765303 17.73726 347.449205 18.500391 347.449205 19.296 
C 347.449205 20.091609 347.765303 20.85474 348.327884 21.41732 
C 348.890465 21.979901 349.653595 22.296 350.449205 22.296 
z
" style="fill:#f26b38;stroke:#ffffff;stroke-width:0.48;"/>
    <path clip-path="url(#p27d592cc4f)" d="M 357.212841 22.296 
C 358.00845 22.296 358.771581 21.979901 359.334161 21.41732 
C 359.896742 20.85474 360.212841 20.091609 360.212841 19.296 
C 360.212841 18.500391 359.896742 17.73726 359.334161 17.17468 
C 358.771581 16.612099 358.00845 16.296 357.212841 16.296 
C 356.417232 16.296 355.654101 16.612099 355.091521 17.17468 
C 354.52894 17.73726 354.212841 18.500391 354.212841 19.296 
C 354.212841 20.091609 354.52894 20.85474 355.091521 21.41732 
C 355.654101 21.979901 356.417232 22.296 357.212841 22.296 
z
" style="fill:#f26b38;stroke:#ffffff;stroke-width:0.48;"/>
    <path clip-path="url(#p27d592cc4f)" d="M 363.976477 22.296 
C 364.772087 22.296 365.535217 21.979901 366.097798 21.41732 
C 366.660378 20.85474 366.976477 20.091609 366.976477 19.296 
C 366.976477 18.500391 366.660378 17.73726 366.097798 17.17468 
C 365.535217 16.612099 364.772087 16.296 363.976477 16.296 
C 363.180868 16.296 362.417738 16.612099 361.855157 17.17468 
C 361.292576 17.73726 360.976477 18.500391 360.976477 19.296 
C 360.976477 20.091609 361.292576 20.85474 361.855157 21.41732 
C 362.417738 21.979901 363.180868 22.296 363.976477 22.296 
z
" style="fill:#f26b38;stroke:#ffffff;stroke-width:0.48;"/>
    <path clip-path="url(#p27d592cc4f)" d="M 370.740114 22.296 
C 371.535723 22.296 372.298853 21.979901 372.861434 21.41732 
C 373.424015 20.85474 373.740114 20.091609 373.740114 19.296 
C 373.740114 18.500391 373.424015 17.73726 372.861434 17.17468 
C 372.298853 16.612099 371.535723 16.296 370.740114 16.296 
C 369.944504 16.296 369.181374 16.612099 368.618793 17.17468 
C 368.056213 17.73726 367.740114 18.500391 367.740114 19.296 
C 367.740114 20.091609 368.056213 20.85474 368.618793 21.41732 
C 369.181374 21.979901 369.944504 22.296 370.740114 22.296 
z
" style="fill:#f26b38;stroke:#ffffff;stroke-width:0.48;"/>
    <path clip-path="url(#p27d592cc4f)" d="M 377.50375 22.296 
C 378.299359 22.296 379.06249 21.979901 379.62507 21.41732 
C 380.187651 20.85474 380.50375 20.091609 380.50375 19.296 
C 380.50375 18.500391 380.187651 17.73726 379.62507 17.17468 
C 379.06249 16.612099 378.299359 16.296 377.50375 16.296 
C 376.708141 16.296 375.94501 16.612099 375.38243 17.17468 
C 374.819849 17.73726 374.50375 18.500391 374.50375 19.296 
C 374.50375 20.091609 374.819849 20.85474 375.38243 21.41732 
C 375.94501 21.979901 376.708141 22.296 377.50375 22.296 
z
" style="fill:#f26b38;stroke:#ffffff;stroke-width:0.48;"/>
    <path clip-path="url(#p27d592cc4f)" d="M 384.267386 22.296 
C 385.062996 22.296 385.826126 21.979901 386.388707 21.41732 
C 386.951287 20.85474 387.267386 20.091609 387.267386 19.296 
C 387.267386 18.500391 386.951287 17.73726 386.388707 17.17468 
C 385.826126 16.612099 385.062996 16.296 384.267386 16.296 
C 383.471777 16.296 382.708647 16.612099 382.146066 17.17468 
C 381.583485 17.73726 381.267386 18.500391 381.267386 19.296 
C 381.267386 20.091609 381.583485 20.85474 382.146066 21.41732 
C 382.708647 21.979901 383.471777 22.296 384.267386 22.296 
z
" style="fill:#f26b38;stroke:#ffffff;stroke-width:0.48;"/>
    <path clip-path="url(#p27d592cc4f)" d="M 391.031023 22.296 
C 391.826632 22.296 392.589762 21.979901 393.152343 21.41732 
C 393.714924 20.85474 394.031023 20.091609 394.031023 19.296 
C 394.031023 18.500391 393.714924 17.73726 393.152343 17.17468 
C 392.589762 16.612099 391.826632 16.296 391.031023 16.296 
C 390.235413 16.296 389.472283 16.612099 388.909702 17.17468 
C 388.347122 17.73726 388.031023 18.500391 388.031023 19.296 
C 388.031023 20.091609 388.347122 20.85474 388.909702 21.41732 
C 389.472283 21.979901 390.235413 22.296 391.031023 22.296 
z
" style="fill:#f26b38;stroke:#ffffff;stroke-width:0.48;"/>
    <path clip-path="url(#p27d592cc4f)" d="M 64.876477 212.910573 
L 66.376477 211.410573 
L 67.876477 212.910573 
L 69.376477 211.410573 
L 67.876477 209.910573 
L 69.376477 208.410573 
L 67.876477 206.910573 
L 66.376477 208.410573 
L 64.876477 206.910573 
L 63.376477 208.410573 
L 64.876477 209.910573 
L 63.376477 211.410573 
z
" style="fill:#2f9599;stroke:#ffffff;stroke-width:0.48;"/>
    <path clip-path="url(#p27d592cc4f)" d="M 71.640114 226.464844 
L 73.140114 224.964844 
L 74.640114 226.464844 
L 76.140114 224.964844 
L 74.640114 223.464844 
L 76.140114 221.964844 
L 74.640114 220.464844 
L 73.140114 221.964844 
L 71.640114 220.464844 
L 70.140114 221.964844 
L 71.640114 223.464844 
L 70.140114 224.964844 
z
" style="fill:#2f9599;stroke:#ffffff;stroke-width:0.48;"/>
    <path clip-path="url(#p27d592cc4f)" d="M 78.40375 226.464844 
L 79.90375 224.964844 
L 81.40375 226.464844 
L 82.90375 224.964844 
L 81.40375 223.464844 
L 82.90375 221.964844 
L 81.40375 220.464844 
L 79.90375 221.964844 
L 78.40375 220.464844 
L 76.90375 221.964844 
L 78.40375 223.464844 
L 76.90375 224.964844 
z
" style="fill:#2f9599;stroke:#ffffff;stroke-width:0.48;"/>
    <path clip-path="url(#p27d592cc4f)" d="M 85.167386 232.72993 
L 86.667386 231.22993 
L 88.167386 232.72993 
L 89.667386 231.22993 
L 88.167386 229.72993 
L 89.667386 228.22993 
L 88.167386 226.72993 
L 86.667386 228.22993 
L 85.167386 226.72993 
L 83.667386 228.22993 
L 85.167386 229.72993 
L 83.667386 231.22993 
z
" style="fill:#2f9599;stroke:#ffffff;stroke-width:0.48;"/>
    <path clip-path="url(#p27d592cc4f)" d="M 91.931023 194.701299 
L 93.431023 193.201299 
L 94.931023 194.701299 
L 96.431023 193.201299 
L 94.931023 191.701299 
L 96.431023 190.201299 
L 94.931023 188.701299 
L 93.431023 190.201299 
L 91.931023 188.701299 
L 90.431023 190.201299 
L 91.931023 191.701299 
L 90.431023 193.201299 
z
" style="fill:#2f9599;stroke:#ffffff;stroke-width:0.48;"/>
    <path clip-path="url(#p27d592cc4f)" d="M 98.694659 231.788486 
L 100.194659 230.288486 
L 101.694659 231.788486 
L 103.194659 230.288486 
L 101.694659 228.788486 
L 103.194659 227.288486 
L 101.694659 225.788486 
L 100.194659 227.288486 
L 98.694659 225.788486 
L 97.194659 227.288486 
L 98.694659 228.788486 
L 97.194659 230.288486 
z
" style="fill:#2f9599;stroke:#ffffff;stroke-width:0.48;"/>
    <path clip-path="url(#p27d592cc4f)" d="M 105.458295 231.788486 
L 106.958295 230.288486 
L 108.458295 231.788486 
L 109.958295 230.288486 
L 108.458295 228.788486 
L 109.958295 227.288486 
L 108.458295 225.788486 
L 106.958295 227.288486 
L 105.458295 225.788486 
L 103.958295 227.288486 
L 105.458295 228.788486 
L 103.958295 230.288486 
z
" style="fill:#2f9599;stroke:#ffffff;stroke-width:0.48;"/>
    <path clip-path="url(#p27d592cc4f)" d="M 112.221932 231.788486 
L 113.721932 230.288486 
L 115.221932 231.788486 
L 116.721932 230.288486 
L 115.221932 228.788486 
L 116.721932 227.288486 
L 115.221932 225.788486 
L 113.721932 227.288486 
L 112.221932 225.788486 
L 110.721932 227.288486 
L 112.221932 228.788486 
L 110.721932 230.288486 
z
" style="fill:#2f9599;stroke:#ffffff;stroke-width:0.48;"/>
    <path clip-path="url(#p27d592cc4f)" d="M 118.985568 222.448764 
L 120.485568 220.948764 
L 121.985568 222.448764 
L 123.485568 220.948764 
L 121.985568 219.448764 
L 123.485568 217.948764 
L 121.985568 216.448764 
L 120.485568 217.948764 
L 118.985568 216.448764 
L 117.485568 217.948764 
L 118.985568 219.448764 
L 117.485568 220.948764 
z
" style="fill:#2f9599;stroke:#ffffff;stroke-width:0.48;"/>
    <path clip-path="url(#p27d592cc4f)" d="M 125.749205 222.448764 
L 127.249205 220.948764 
L 128.749205 222.448764 
L 130.249205 220.948764 
L 128.749205 219.448764 
L 130.249205 217.948764 
L 128.749205 216.448764 
L 127.249205 217.948764 
L 125.749205 216.448764 
L 124.249205 217.948764 
L 125.749205 219.448764 
L 124.249205 220.948764 
z
" style="fill:#2f9599;stroke:#ffffff;stroke-width:0.48;"/>
    <path clip-path="url(#p27d592cc4f)" d="M 132.512841 168.177407 
L 134.012841 166.677407 
L 135.512841 168.177407 
L 137.012841 166.677407 
L 135.512841 165.177407 
L 137.012841 163.677407 
L 135.512841 162.177407 
L 134.012841 163.677407 
L 132.512841 162.177407 
L 131.012841 163.677407 
L 132.512841 165.177407 
L 131.012841 166.677407 
z
" style="fill:#2f9599;stroke:#ffffff;stroke-width:0.48;"/>
    <path clip-path="url(#p27d592cc4f)" d="M 139.276477 168.177407 
L 140.776477 166.677407 
L 142.276477 168.177407 
L 143.776477 166.677407 
L 142.276477 165.177407 
L 143.776477 163.677407 
L 142.276477 162.177407 
L 140.776477 163.677407 
L 139.276477 162.177407 
L 137.776477 163.677407 
L 139.276477 165.177407 
L 137.776477 166.677407 
z
" style="fill:#2f9599;stroke:#ffffff;stroke-width:0.48;"/>
    <path clip-path="url(#p27d592cc4f)" d="M 146.040114 168.177407 
L 147.540114 166.677407 
L 149.040114 168.177407 
L 150.540114 166.677407 
L 149.040114 165.177407 
L 150.540114 163.677407 
L 149.040114 162.177407 
L 147.540114 163.677407 
L 146.040114 162.177407 
L 144.540114 163.677407 
L 146.040114 165.177407 
L 144.540114 166.677407 
z
" style="fill:#2f9599;stroke:#ffffff;stroke-width:0.48;"/>
    <path clip-path="url(#p27d592cc4f)" d="M 152.80375 168.177407 
L 154.30375 166.677407 
L 155.80375 168.177407 
L 157.30375 166.677407 
L 155.80375 165.177407 
L 157.30375 163.677407 
L 155.80375 162.177407 
L 154.30375 163.677407 
L 152.80375 162.177407 
L 151.30375 163.677407 
L 152.80375 165.177407 
L 151.30375 166.677407 
z
" style="fill:#2f9599;stroke:#ffffff;stroke-width:0.48;"/>
    <path clip-path="url(#p27d592cc4f)" d="M 159.567386 168.177407 
L 161.067386 166.677407 
L 162.567386 168.177407 
L 164.067386 166.677407 
L 162.567386 165.177407 
L 164.067386 163.677407 
L 162.567386 162.177407 
L 161.067386 163.677407 
L 159.567386 162.177407 
L 158.067386 163.677407 
L 159.567386 165.177407 
L 158.067386 166.677407 
z
" style="fill:#2f9599;stroke:#ffffff;stroke-width:0.48;"/>
    <path clip-path="url(#p27d592cc4f)" d="M 166.331023 168.177407 
L 167.831023 166.677407 
L 169.331023 168.177407 
L 170.831023 166.677407 
L 169.331023 165.177407 
L 170.831023 163.677407 
L 169.331023 162.177407 
L 167.831023 163.677407 
L 166.331023 162.177407 
L 164.831023 163.677407 
L 166.331023 165.177407 
L 164.831023 166.677407 
z
" style="fill:#2f9599;stroke:#ffffff;stroke-width:0.48;"/>
    <path clip-path="url(#p27d592cc4f)" d="M 173.094659 33.692985 
L 174.594659 32.192985 
L 176.094659 33.692985 
L 177.594659 32.192985 
L 176.094659 30.692985 
L 177.594659 29.192985 
L 176.094659 27.692985 
L 174.594659 29.192985 
L 173.094659 27.692985 
L 171.594659 29.192985 
L 173.094659 30.692985 
L 171.594659 32.192985 
z
" style="fill:#2f9599;stroke:#ffffff;stroke-width:0.48;"/>
    <path clip-path="url(#p27d592cc4f)" d="M 179.858295 33.692985 
L 181.358295 32.192985 
L 182.858295 33.692985 
L 184.358295 32.192985 
L 182.858295 30.692985 
L 184.358295 29.192985 
L 182.858295 27.692985 
L 181.358295 29.192985 
L 179.858295 27.692985 
L 178.358295 29.192985 
L 179.858295 30.692985 
L 178.358295 32.192985 
z
" style="fill:#2f9599;stroke:#ffffff;stroke-width:0.48;"/>
    <path clip-path="url(#p27d592cc4f)" d="M 186.621932 33.692985 
L 188.121932 32.192985 
L 189.621932 33.692985 
L 191.121932 32.192985 
L 189.621932 30.692985 
L 191.121932 29.192985 
L 189.621932 27.692985 
L 188.121932 29.192985 
L 186.621932 27.692985 
L 185.121932 29.192985 
L 186.621932 30.692985 
L 185.121932 32.192985 
z
" style="fill:#2f9599;stroke:#ffffff;stroke-width:0.48;"/>
    <path clip-path="url(#p27d592cc4f)" d="M 193.385568 33.692985 
L 194.885568 32.192985 
L 196.385568 33.692985 
L 197.885568 32.192985 
L 196.385568 30.692985 
L 197.885568 29.192985 
L 196.385568 27.692985 
L 194.885568 29.192985 
L 193.385568 27.692985 
L 191.885568 29.192985 
L 193.385568 30.692985 
L 191.885568 32.192985 
z
" style="fill:#2f9599;stroke:#ffffff;stroke-width:0.48;"/>
    <path clip-path="url(#p27d592cc4f)" d="M 200.149205 33.692985 
L 201.649205 32.192985 
L 203.149205 33.692985 
L 204.649205 32.192985 
L 203.149205 30.692985 
L 204.649205 29.192985 
L 203.149205 27.692985 
L 201.649205 29.192985 
L 200.149205 27.692985 
L 198.649205 29.192985 
L 200.149205 30.692985 
L 198.649205 32.192985 
z
" style="fill:#2f9599;stroke:#ffffff;stroke-width:0.48;"/>
    <path clip-path="url(#p27d592cc4f)" d="M 206.912841 33.692985 
L 208.412841 32.192985 
L 209.912841 33.692985 
L 211.412841 32.192985 
L 209.912841 30.692985 
L 211.412841 29.192985 
L 209.912841 27.692985 
L 208.412841 29.192985 
L 206.912841 27.692985 
L 205.412841 29.192985 
L 206.912841 30.692985 
L 205.412841 32.192985 
z
" style="fill:#2f9599;stroke:#ffffff;stroke-width:0.48;"/>
    <path clip-path="url(#p27d592cc4f)" d="M 213.676477 33.692985 
L 215.176477 32.192985 
L 216.676477 33.692985 
L 218.176477 32.192985 
L 216.676477 30.692985 
L 218.176477 29.192985 
L 216.676477 27.692985 
L 215.176477 29.192985 
L 213.676477 27.692985 
L 212.176477 29.192985 
L 213.676477 30.692985 
L 212.176477 32.192985 
z
" style="fill:#2f9599;stroke:#ffffff;stroke-width:0.48;"/>
    <path clip-path="url(#p27d592cc4f)" d="M 220.440114 33.692985 
L 221.940114 32.192985 
L 223.440114 33.692985 
L 224.940114 32.192985 
L 223.440114 30.692985 
L 224.940114 29.192985 
L 223.440114 27.692985 
L 221.940114 29.192985 
L 220.440114 27.692985 
L 218.940114 29.192985 
L 220.440114 30.692985 
L 218.940114 32.192985 
z
" style="fill:#2f9599;stroke:#ffffff;stroke-width:0.48;"/>
    <path clip-path="url(#p27d592cc4f)" d="M 227.20375 33.692985 
L 228.70375 32.192985 
L 230.20375 33.692985 
L 231.70375 32.192985 
L 230.20375 30.692985 
L 231.70375 29.192985 
L 230.20375 27.692985 
L 228.70375 29.192985 
L 227.20375 27.692985 
L 225.70375 29.192985 
L 227.20375 30.692985 
L 225.70375 32.192985 
z
" style="fill:#2f9599;stroke:#ffffff;stroke-width:0.48;"/>
    <path clip-path="url(#p27d592cc4f)" d="M 233.967386 33.692985 
L 235.467386 32.192985 
L 236.967386 33.692985 
L 238.467386 32.192985 
L 236.967386 30.692985 
L 238.467386 29.192985 
L 236.967386 27.692985 
L 235.467386 29.192985 
L 233.967386 27.692985 
L 232.467386 29.192985 
L 233.967386 30.692985 
L 232.467386 32.192985 
z
" style="fill:#2f9599;stroke:#ffffff;stroke-width:0.48;"/>
    <path clip-path="url(#p27d592cc4f)" d="M 240.731023 33.692985 
L 242.231023 32.192985 
L 243.731023 33.692985 
L 245.231023 32.192985 
L 243.731023 30.692985 
L 245.231023 29.192985 
L 243.731023 27.692985 
L 242.231023 29.192985 
L 240.731023 27.692985 
L 239.231023 29.192985 
L 240.731023 30.692985 
L 239.231023 32.192985 
z
" style="fill:#2f9599;stroke:#ffffff;stroke-width:0.48;"/>
    <path clip-path="url(#p27d592cc4f)" d="M 247.494659 33.692985 
L 248.994659 32.192985 
L 250.494659 33.692985 
L 251.994659 32.192985 
L 250.494659 30.692985 
L 251.994659 29.192985 
L 250.494659 27.692985 
L 248.994659 29.192985 
L 247.494659 27.692985 
L 245.994659 29.192985 
L 247.494659 30.692985 
L 245.994659 32.192985 
z
" style="fill:#2f9599;stroke:#ffffff;stroke-width:0.48;"/>
    <path clip-path="url(#p27d592cc4f)" d="M 254.258295 33.692985 
L 255.758295 32.192985 
L 257.258295 33.692985 
L 258.758295 32.192985 
L 257.258295 30.692985 
L 258.758295 29.192985 
L 257.258295 27.692985 
L 255.758295 29.192985 
L 254.258295 27.692985 
L 252.758295 29.192985 
L 254.258295 30.692985 
L 252.758295 32.192985 
z
" style="fill:#2f9599;stroke:#ffffff;stroke-width:0.48;"/>
    <path clip-path="url(#p27d592cc4f)" d="M 261.021932 33.692985 
L 262.521932 32.192985 
L 264.021932 33.692985 
L 265.521932 32.192985 
L 264.021932 30.692985 
L 265.521932 29.192985 
L 264.021932 27.692985 
L 262.521932 29.192985 
L 261.021932 27.692985 
L 259.521932 29.192985 
L 261.021932 30.692985 
L 259.521932 32.192985 
z
" style="fill:#2f9599;stroke:#ffffff;stroke-width:0.48;"/>
    <path clip-path="url(#p27d592cc4f)" d="M 267.785568 33.692985 
L 269.285568 32.192985 
L 270.785568 33.692985 
L 272.285568 32.192985 
L 270.785568 30.692985 
L 272.285568 29.192985 
L 270.785568 27.692985 
L 269.285568 29.192985 
L 267.785568 27.692985 
L 266.285568 29.192985 
L 267.785568 30.692985 
L 266.285568 32.192985 
z
" style="fill:#2f9599;stroke:#ffffff;stroke-width:0.48;"/>
    <path clip-path="url(#p27d592cc4f)" d="M 274.549205 33.692985 
L 276.049205 32.192985 
L 277.549205 33.692985 
L 279.049205 32.192985 
L 277.549205 30.692985 
L 279.049205 29.192985 
L 277.549205 27.692985 
L 276.049205 29.192985 
L 274.549205 27.692985 
L 273.049205 29.192985 
L 274.549205 30.692985 
L 273.049205 32.192985 
z
" style="fill:#2f9599;stroke:#ffffff;stroke-width:0.48;"/>
    <path clip-path="url(#p27d592cc4f)" d="M 281.312841 33.692985 
L 282.812841 32.192985 
L 284.312841 33.692985 
L 285.812841 32.192985 
L 284.312841 30.692985 
L 285.812841 29.192985 
L 284.312841 27.692985 
L 282.812841 29.192985 
L 281.312841 27.692985 
L 279.812841 29.192985 
L 281.312841 30.692985 
L 279.812841 32.192985 
z
" style="fill:#2f9599;stroke:#ffffff;stroke-width:0.48;"/>
    <path clip-path="url(#p27d592cc4f)" d="M 288.076477 33.692985 
L 289.576477 32.192985 
L 291.076477 33.692985 
L 292.576477 32.192985 
L 291.076477 30.692985 
L 292.576477 29.192985 
L 291.076477 27.692985 
L 289.576477 29.192985 
L 288.076477 27.692985 
L 286.576477 29.192985 
L 288.076477 30.692985 
L 286.576477 32.192985 
z
" style="fill:#2f9599;stroke:#ffffff;stroke-width:0.48;"/>
    <path clip-path="url(#p27d592cc4f)" d="M 294.840114 33.692985 
L 296.340114 32.192985 
L 297.840114 33.692985 
L 299.340114 32.192985 
L 297.840114 30.692985 
L 299.340114 29.192985 
L 297.840114 27.692985 
L 296.340114 29.192985 
L 294.840114 27.692985 
L 293.340114 29.192985 
L 294.840114 30.692985 
L 293.340114 32.192985 
z
" style="fill:#2f9599;stroke:#ffffff;stroke-width:0.48;"/>
    <path clip-path="url(#p27d592cc4f)" d="M 301.60375 33.692985 
L 303.10375 32.192985 
L 304.60375 33.692985 
L 306.10375 32.192985 
L 304.60375 30.692985 
L 306.10375 29.192985 
L 304.60375 27.692985 
L 303.10375 29.192985 
L 301.60375 27.692985 
L 300.10375 29.192985 
L 301.60375 30.692985 
L 300.10375 32.192985 
z
" style="fill:#2f9599;stroke:#ffffff;stroke-width:0.48;"/>
    <path clip-path="url(#p27d592cc4f)" d="M 308.367386 33.692985 
L 309.867386 32.192985 
L 311.367386 33.692985 
L 312.867386 32.192985 
L 311.367386 30.692985 
L 312.867386 29.192985 
L 311.367386 27.692985 
L 309.867386 29.192985 
L 308.367386 27.692985 
L 306.867386 29.192985 
L 308.367386 30.692985 
L 306.867386 32.192985 
z
" style="fill:#2f9599;stroke:#ffffff;stroke-width:0.48;"/>
    <path clip-path="url(#p27d592cc4f)" d="M 315.131023 33.692985 
L 316.631023 32.192985 
L 318.131023 33.692985 
L 319.631023 32.192985 
L 318.131023 30.692985 
L 319.631023 29.192985 
L 318.131023 27.692985 
L 316.631023 29.192985 
L 315.131023 27.692985 
L 313.631023 29.192985 
L 315.131023 30.692985 
L 313.631023 32.192985 
z
" style="fill:#2f9599;stroke:#ffffff;stroke-width:0.48;"/>
    <path clip-path="url(#p27d592cc4f)" d="M 321.894659 33.692985 
L 323.394659 32.192985 
L 324.894659 33.692985 
L 326.394659 32.192985 
L 324.894659 30.692985 
L 326.394659 29.192985 
L 324.894659 27.692985 
L 323.394659 29.192985 
L 321.894659 27.692985 
L 320.394659 29.192985 
L 321.894659 30.692985 
L 320.394659 32.192985 
z
" style="fill:#2f9599;stroke:#ffffff;stroke-width:0.48;"/>
    <path clip-path="url(#p27d592cc4f)" d="M 328.658295 33.692985 
L 330.158295 32.192985 
L 331.658295 33.692985 
L 333.158295 32.192985 
L 331.658295 30.692985 
L 333.158295 29.192985 
L 331.658295 27.692985 
L 330.158295 29.192985 
L 328.658295 27.692985 
L 327.158295 29.192985 
L 328.658295 30.692985 
L 327.158295 32.192985 
z
" style="fill:#2f9599;stroke:#ffffff;stroke-width:0.48;"/>
    <path clip-path="url(#p27d592cc4f)" d="M 335.421932 33.692985 
L 336.921932 32.192985 
L 338.421932 33.692985 
L 339.921932 32.192985 
L 338.421932 30.692985 
L 339.921932 29.192985 
L 338.421932 27.692985 
L 336.921932 29.192985 
L 335.421932 27.692985 
L 333.921932 29.192985 
L 335.421932 30.692985 
L 333.921932 32.192985 
z
" style="fill:#2f9599;stroke:#ffffff;stroke-width:0.48;"/>
    <path clip-path="url(#p27d592cc4f)" d="M 342.185568 33.692985 
L 343.685568 32.192985 
L 345.185568 33.692985 
L 346.685568 32.192985 
L 345.185568 30.692985 
L 346.685568 29.192985 
L 345.185568 27.692985 
L 343.685568 29.192985 
L 342.185568 27.692985 
L 340.685568 29.192985 
L 342.185568 30.692985 
L 340.685568 32.192985 
z
" style="fill:#2f9599;stroke:#ffffff;stroke-width:0.48;"/>
    <path clip-path="url(#p27d592cc4f)" d="M 348.949205 33.692985 
L 350.449205 32.192985 
L 351.949205 33.692985 
L 353.449205 32.192985 
L 351.949205 30.692985 
L 353.449205 29.192985 
L 351.949205 27.692985 
L 350.449205 29.192985 
L 348.949205 27.692985 
L 347.449205 29.192985 
L 348.949205 30.692985 
L 347.449205 32.192985 
z
" style="fill:#2f9599;stroke:#ffffff;stroke-width:0.48;"/>
    <path clip-path="url(#p27d592cc4f)" d="M 355.712841 33.692985 
L 357.212841 32.192985 
L 358.712841 33.692985 
L 360.212841 32.192985 
L 358.712841 30.692985 
L 360.212841 29.192985 
L 358.712841 27.692985 
L 357.212841 29.192985 
L 355.712841 27.692985 
L 354.212841 29.192985 
L 355.712841 30.692985 
L 354.212841 32.192985 
z
" style="fill:#2f9599;stroke:#ffffff;stroke-width:0.48;"/>
    <path clip-path="url(#p27d592cc4f)" d="M 362.476477 33.692985 
L 363.976477 32.192985 
L 365.476477 33.692985 
L 366.976477 32.192985 
L 365.476477 30.692985 
L 366.976477 29.192985 
L 365.476477 27.692985 
L 363.976477 29.192985 
L 362.476477 27.692985 
L 360.976477 29.192985 
L 362.476477 30.692985 
L 360.976477 32.192985 
z
" style="fill:#2f9599;stroke:#ffffff;stroke-width:0.48;"/>
    <path clip-path="url(#p27d592cc4f)" d="M 369.240114 33.692985 
L 370.740114 32.192985 
L 372.240114 33.692985 
L 373.740114 32.192985 
L 372.240114 30.692985 
L 373.740114 29.192985 
L 372.240114 27.692985 
L 370.740114 29.192985 
L 369.240114 27.692985 
L 367.740114 29.192985 
L 369.240114 30.692985 
L 367.740114 32.192985 
z
" style="fill:#2f9599;stroke:#ffffff;stroke-width:0.48;"/>
    <path clip-path="url(#p27d592cc4f)" d="M 376.00375 33.692985 
L 377.50375 32.192985 
L 379.00375 33.692985 
L 380.50375 32.192985 
L 379.00375 30.692985 
L 380.50375 29.192985 
L 379.00375 27.692985 
L 377.50375 29.192985 
L 376.00375 27.692985 
L 374.50375 29.192985 
L 376.00375 30.692985 
L 374.50375 32.192985 
z
" style="fill:#2f9599;stroke:#ffffff;stroke-width:0.48;"/>
    <path clip-path="url(#p27d592cc4f)" d="M 382.767386 33.692985 
L 384.267386 32.192985 
L 385.767386 33.692985 
L 387.267386 32.192985 
L 385.767386 30.692985 
L 387.267386 29.192985 
L 385.767386 27.692985 
L 384.267386 29.192985 
L 382.767386 27.692985 
L 381.267386 29.192985 
L 382.767386 30.692985 
L 381.267386 32.192985 
z
" style="fill:#2f9599;stroke:#ffffff;stroke-width:0.48;"/>
    <path clip-path="url(#p27d592cc4f)" d="M 389.531023 33.692985 
L 391.031023 32.192985 
L 392.531023 33.692985 
L 394.031023 32.192985 
L 392.531023 30.692985 
L 394.031023 29.192985 
L 392.531023 27.692985 
L 391.031023 29.192985 
L 389.531023 27.692985 
L 388.031023 29.192985 
L 389.531023 30.692985 
L 388.031023 32.192985 
z
" style="fill:#2f9599;stroke:#ffffff;stroke-width:0.48;"/>
    <path clip-path="url(#p27d592cc4f)" d="M 64.255157 254.231966 
L 64.255157 258.474607 
L 68.497798 258.474607 
L 68.497798 254.231966 
z
" style="fill:#a7226e;stroke:#ffffff;stroke-width:0.48;"/>
    <path clip-path="url(#p27d592cc4f)" d="M 71.018793 254.231966 
L 71.018793 258.474607 
L 75.261434 258.474607 
L 75.261434 254.231966 
z
" style="fill:#a7226e;stroke:#ffffff;stroke-width:0.48;"/>
    <path clip-path="url(#p27d592cc4f)" d="M 77.78243 254.231966 
L 77.78243 258.474607 
L 82.02507 258.474607 
L 82.02507 254.231966 
z
" style="fill:#a7226e;stroke:#ffffff;stroke-width:0.48;"/>
    <path clip-path="url(#p27d592cc4f)" d="M 84.546066 254.231966 
L 84.546066 258.474607 
L 88.788707 258.474607 
L 88.788707 254.231966 
z
" style="fill:#a7226e;stroke:#ffffff;stroke-width:0.48;"/>
    <path clip-path="url(#p27d592cc4f)" d="M 91.309702 254.231966 
L 91.309702 258.474607 
L 95.552343 258.474607 
L 95.552343 254.231966 
z
" style="fill:#a7226e;stroke:#ffffff;stroke-width:0.48;"/>
    <path clip-path="url(#p27d592cc4f)" d="M 98.073339 254.231966 
L 98.073339 258.474607 
L 102.315979 258.474607 
L 102.315979 254.231966 
z
" style="fill:#a7226e;stroke:#ffffff;stroke-width:0.48;"/>
    <path clip-path="url(#p27d592cc4f)" d="M 104.836975 254.231966 
L 104.836975 258.474607 
L 109.079616 258.474607 
L 109.079616 254.231966 
z
" style="fill:#a7226e;stroke:#ffffff;stroke-width:0.48;"/>
    <path clip-path="url(#p27d592cc4f)" d="M 111.600611 253.472167 
L 111.600611 257.714808 
L 115.843252 257.714808 
L 115.843252 253.472167 
z
" style="fill:#a7226e;stroke:#ffffff;stroke-width:0.48;"/>
    <path clip-path="url(#p27d592cc4f)" d="M 118.364248 248.324796 
L 118.364248 252.567437 
L 122.606889 252.567437 
L 122.606889 248.324796 
z
" style="fill:#a7226e;stroke:#ffffff;stroke-width:0.48;"/>
    <path clip-path="url(#p27d592cc4f)" d="M 125.127884 243.030358 
L 125.127884 247.272999 
L 129.370525 247.272999 
L 129.370525 243.030358 
z
" style="fill:#a7226e;stroke:#ffffff;stroke-width:0.48;"/>
    <path clip-path="url(#p27d592cc4f)" d="M 131.891521 243.030358 
L 131.891521 247.272999 
L 136.134161 247.272999 
L 136.134161 243.030358 
z
" style="fill:#a7226e;stroke:#ffffff;stroke-width:0.48;"/>
    <path clip-path="url(#p27d592cc4f)" d="M 138.655157 243.030358 
L 138.655157 247.272999 
L 142.897798 247.272999 
L 142.897798 243.030358 
z
" style="fill:#a7226e;stroke:#ffffff;stroke-width:0.48;"/>
    <path clip-path="url(#p27d592cc4f)" d="M 145.418793 226.198785 
L 145.418793 230.441426 
L 149.661434 230.441426 
L 149.661434 226.198785 
z
" style="fill:#a7226e;stroke:#ffffff;stroke-width:0.48;"/>
    <path clip-path="url(#p27d592cc4f)" d="M 152.18243 220.248229 
L 152.18243 224.49087 
L 156.42507 224.49087 
L 156.42507 220.248229 
z
" style="fill:#a7226e;stroke:#ffffff;stroke-width:0.48;"/>
    <path clip-path="url(#p27d592cc4f)" d="M 158.946066 172.946352 
L 158.946066 177.188992 
L 163.188707 177.188992 
L 163.188707 172.946352 
z
" style="fill:#a7226e;stroke:#ffffff;stroke-width:0.48;"/>
    <path clip-path="url(#p27d592cc4f)" d="M 165.709702 172.946352 
L 165.709702 177.188992 
L 169.952343 177.188992 
L 169.952343 172.946352 
z
" style="fill:#a7226e;stroke:#ffffff;stroke-width:0.48;"/>
    <path clip-path="url(#p27d592cc4f)" d="M 172.473339 198.838319 
L 172.473339 203.080959 
L 176.715979 203.080959 
L 176.715979 198.838319 
z
" style="fill:#a7226e;stroke:#ffffff;stroke-width:0.48;"/>
    <path clip-path="url(#p27d592cc4f)" d="M 179.236975 208.822803 
L 179.236975 213.065443 
L 183.479616 213.065443 
L 183.479616 208.822803 
z
" style="fill:#a7226e;stroke:#ffffff;stroke-width:0.48;"/>
    <path clip-path="url(#p27d592cc4f)" d="M 186.000611 208.822803 
L 186.000611 213.065443 
L 190.243252 213.065443 
L 190.243252 208.822803 
z
" style="fill:#a7226e;stroke:#ffffff;stroke-width:0.48;"/>
    <path clip-path="url(#p27d592cc4f)" d="M 192.764248 187.126519 
L 192.764248 191.36916 
L 197.006889 191.36916 
L 197.006889 187.126519 
z
" style="fill:#a7226e;stroke:#ffffff;stroke-width:0.48;"/>
    <path clip-path="url(#p27d592cc4f)" d="M 199.527884 187.126519 
L 199.527884 191.36916 
L 203.770525 191.36916 
L 203.770525 187.126519 
z
" style="fill:#a7226e;stroke:#ffffff;stroke-width:0.48;"/>
    <path clip-path="url(#p27d592cc4f)" d="M 206.291521 222.052244 
L 206.291521 226.294885 
L 210.534161 226.294885 
L 210.534161 222.052244 
z
" style="fill:#a7226e;stroke:#ffffff;stroke-width:0.48;"/>
    <path clip-path="url(#p27d592cc4f)" d="M 213.055157 222.052244 
L 213.055157 226.294885 
L 217.297798 226.294885 
L 217.297798 222.052244 
z
" style="fill:#a7226e;stroke:#ffffff;stroke-width:0.48;"/>
    <path clip-path="url(#p27d592cc4f)" d="M 219.818793 206.617896 
L 219.818793 210.860536 
L 224.061434 210.860536 
L 224.061434 206.617896 
z
" style="fill:#a7226e;stroke:#ffffff;stroke-width:0.48;"/>
    <path clip-path="url(#p27d592cc4f)" d="M 226.58243 206.617896 
L 226.58243 210.860536 
L 230.82507 210.860536 
L 230.82507 206.617896 
z
" style="fill:#a7226e;stroke:#ffffff;stroke-width:0.48;"/>
    <path clip-path="url(#p27d592cc4f)" d="M 233.346066 182.36392 
L 233.346066 186.606561 
L 237.588707 186.606561 
L 237.588707 182.36392 
z
" style="fill:#a7226e;stroke:#ffffff;stroke-width:0.48;"/>
    <path clip-path="url(#p27d592cc4f)" d="M 240.109702 197.247041 
L 240.109702 201.489682 
L 244.352343 201.489682 
L 244.352343 197.247041 
z
" style="fill:#a7226e;stroke:#ffffff;stroke-width:0.48;"/>
    <path clip-path="url(#p27d592cc4f)" d="M 246.873339 188.274947 
L 246.873339 192.517588 
L 251.115979 192.517588 
L 251.115979 188.274947 
z
" style="fill:#a7226e;stroke:#ffffff;stroke-width:0.48;"/>
    <path clip-path="url(#p27d592cc4f)" d="M 253.636975 188.274947 
L 253.636975 192.517588 
L 257.879616 192.517588 
L 257.879616 188.274947 
z
" style="fill:#a7226e;stroke:#ffffff;stroke-width:0.48;"/>
    <path clip-path="url(#p27d592cc4f)" d="M 260.400611 188.274947 
L 260.400611 192.517588 
L 264.643252 192.517588 
L 264.643252 188.274947 
z
" style="fill:#a7226e;stroke:#ffffff;stroke-width:0.48;"/>
    <path clip-path="url(#p27d592cc4f)" d="M 267.164248 137.005835 
L 267.164248 141.248476 
L 271.406889 141.248476 
L 271.406889 137.005835 
z
" style="fill:#a7226e;stroke:#ffffff;stroke-width:0.48;"/>
    <path clip-path="url(#p27d592cc4f)" d="M 273.927884 137.005835 
L 273.927884 141.248476 
L 278.170525 141.248476 
L 278.170525 137.005835 
z
" style="fill:#a7226e;stroke:#ffffff;stroke-width:0.48;"/>
    <path clip-path="url(#p27d592cc4f)" d="M 280.691521 137.005835 
L 280.691521 141.248476 
L 284.934161 141.248476 
L 284.934161 137.005835 
z
" style="fill:#a7226e;stroke:#ffffff;stroke-width:0.48;"/>
    <path clip-path="url(#p27d592cc4f)" d="M 287.455157 17.17468 
L 287.455157 21.41732 
L 291.697798 21.41732 
L 291.697798 17.17468 
z
" style="fill:#a7226e;stroke:#ffffff;stroke-width:0.48;"/>
    <path clip-path="url(#p27d592cc4f)" d="M 294.218793 17.17468 
L 294.218793 21.41732 
L 298.461434 21.41732 
L 298.461434 17.17468 
z
" style="fill:#a7226e;stroke:#ffffff;stroke-width:0.48;"/>
    <path clip-path="url(#p27d592cc4f)" d="M 300.98243 17.17468 
L 300.98243 21.41732 
L 305.22507 21.41732 
L 305.22507 17.17468 
z
" style="fill:#a7226e;stroke:#ffffff;stroke-width:0.48;"/>
    <path clip-path="url(#p27d592cc4f)" d="M 307.746066 17.17468 
L 307.746066 21.41732 
L 311.988707 21.41732 
L 311.988707 17.17468 
z
" style="fill:#a7226e;stroke:#ffffff;stroke-width:0.48;"/>
    <path clip-path="url(#p27d592cc4f)" d="M 314.509702 17.17468 
L 314.509702 21.41732 
L 318.752343 21.41732 
L 318.752343 17.17468 
z
" style="fill:#a7226e;stroke:#ffffff;stroke-width:0.48;"/>
    <path clip-path="url(#p27d592cc4f)" d="M 321.273339 17.17468 
L 321.273339 21.41732 
L 325.515979 21.41732 
L 325.515979 17.17468 
z
" style="fill:#a7226e;stroke:#ffffff;stroke-width:0.48;"/>
    <path clip-path="url(#p27d592cc4f)" d="M 328.036975 17.17468 
L 328.036975 21.41732 
L 332.279616 21.41732 
L 332.279616 17.17468 
z
" style="fill:#a7226e;stroke:#ffffff;stroke-width:0.48;"/>
    <path clip-path="url(#p27d592cc4f)" d="M 334.800611 17.17468 
L 334.800611 21.41732 
L 339.043252 21.41732 
L 339.043252 17.17468 
z
" style="fill:#a7226e;stroke:#ffffff;stroke-width:0.48;"/>
    <path clip-path="url(#p27d592cc4f)" d="M 341.564248 17.17468 
L 341.564248 21.41732 
L 345.806889 21.41732 
L 345.806889 17.17468 
z
" style="fill:#a7226e;stroke:#ffffff;stroke-width:0.48;"/>
    <path clip-path="url(#p27d592cc4f)" d="M 348.327884 17.17468 
L 348.327884 21.41732 
L 352.570525 21.41732 
L 352.570525 17.17468 
z
" style="fill:#a7226e;stroke:#ffffff;stroke-width:0.48;"/>
    <path clip-path="url(#p27d592cc4f)" d="M 355.091521 17.17468 
L 355.091521 21.41732 
L 359.334161 21.41732 
L 359.334161 17.17468 
z
" style="fill:#a7226e;stroke:#ffffff;stroke-width:0.48;"/>
    <path clip-path="url(#p27d592cc4f)" d="M 361.855157 17.17468 
L 361.855157 21.41732 
L 366.097798 21.41732 
L 366.097798 17.17468 
z
" style="fill:#a7226e;stroke:#ffffff;stroke-width:0.48;"/>
    <path clip-path="url(#p27d592cc4f)" d="M 368.618793 17.17468 
L 368.618793 21.41732 
L 372.861434 21.41732 
L 372.861434 17.17468 
z
" style="fill:#a7226e;stroke:#ffffff;stroke-width:0.48;"/>
    <path clip-path="url(#p27d592cc4f)" d="M 375.38243 17.17468 
L 375.38243 21.41732 
L 379.62507 21.41732 
L 379.62507 17.17468 
z
" style="fill:#a7226e;stroke:#ffffff;stroke-width:0.48;"/>
    <path clip-path="url(#p27d592cc4f)" d="M 382.146066 17.17468 
L 382.146066 21.41732 
L 386.388707 21.41732 
L 386.388707 17.17468 
z
" style="fill:#a7226e;stroke:#ffffff;stroke-width:0.48;"/>
    <path clip-path="url(#p27d592cc4f)" d="M 388.909702 17.17468 
L 388.909702 21.41732 
L 393.152343 21.41732 
L 393.152343 17.17468 
z
" style="fill:#a7226e;stroke:#ffffff;stroke-width:0.48;"/>
   </g>
   <g id="PathCollection_2"/>
   <g id="PathCollection_3"/>
   <g id="PathCollection_4"/>
   <g id="matplotlib.axis_1">
    <g id="xtick_1">
     <g id="line2d_1">
      <defs>
       <path d="M 0 0 
L 0 3.5 
" id="m9c6ba0a6fb" style="stroke:#000000;stroke-width:0.8;"/>
      </defs>
      <g>
       <use style="stroke:#000000;stroke-width:0.8;" x="59.612841" xlink:href="#m9c6ba0a6fb" y="273.312"/>
      </g>
     </g>
     <g id="text_1">
      <!-- 0.0 -->
      <g transform="translate(51.661278 287.910438)scale(0.1 -0.1)">
       <defs>
        <path d="M 31.78125 66.40625 
Q 24.171875 66.40625 20.328125 58.90625 
Q 16.5 51.421875 16.5 36.375 
Q 16.5 21.390625 20.328125 13.890625 
Q 24.171875 6.390625 31.78125 6.390625 
Q 39.453125 6.390625 43.28125 13.890625 
Q 47.125 21.390625 47.125 36.375 
Q 47.125 51.421875 43.28125 58.90625 
Q 39.453125 66.40625 31.78125 66.40625 
z
M 31.78125 74.21875 
Q 44.046875 74.21875 50.515625 64.515625 
Q 56.984375 54.828125 56.984375 36.375 
Q 56.984375 17.96875 50.515625 8.265625 
Q 44.046875 -1.421875 31.78125 -1.421875 
Q 19.53125 -1.421875 13.0625 8.265625 
Q 6.59375 17.96875 6.59375 36.375 
Q 6.59375 54.828125 13.0625 64.515625 
Q 19.53125 74.21875 31.78125 74.21875 
z
" id="DejaVuSans-48"/>
        <path d="M 10.6875 12.40625 
L 21 12.40625 
L 21 0 
L 10.6875 0 
z
" id="DejaVuSans-46"/>
       </defs>
       <use xlink:href="#DejaVuSans-48"/>
       <use x="63.623047" xlink:href="#DejaVuSans-46"/>
       <use x="95.410156" xlink:href="#DejaVuSans-48"/>
      </g>
     </g>
    </g>
    <g id="xtick_2">
     <g id="line2d_2">
      <g>
       <use style="stroke:#000000;stroke-width:0.8;" x="127.249205" xlink:href="#m9c6ba0a6fb" y="273.312"/>
      </g>
     </g>
     <g id="text_2">
      <!-- 0.2 -->
      <g transform="translate(119.297642 287.910438)scale(0.1 -0.1)">
       <defs>
        <path d="M 19.1875 8.296875 
L 53.609375 8.296875 
L 53.609375 0 
L 7.328125 0 
L 7.328125 8.296875 
Q 12.9375 14.109375 22.625 23.890625 
Q 32.328125 33.6875 34.8125 36.53125 
Q 39.546875 41.84375 41.421875 45.53125 
Q 43.3125 49.21875 43.3125 52.78125 
Q 43.3125 58.59375 39.234375 62.25 
Q 35.15625 65.921875 28.609375 65.921875 
Q 23.96875 65.921875 18.8125 64.3125 
Q 13.671875 62.703125 7.8125 59.421875 
L 7.8125 69.390625 
Q 13.765625 71.78125 18.9375 73 
Q 24.125 74.21875 28.421875 74.21875 
Q 39.75 74.21875 46.484375 68.546875 
Q 53.21875 62.890625 53.21875 53.421875 
Q 53.21875 48.921875 51.53125 44.890625 
Q 49.859375 40.875 45.40625 35.40625 
Q 44.1875 33.984375 37.640625 27.21875 
Q 31.109375 20.453125 19.1875 8.296875 
z
" id="DejaVuSans-50"/>
       </defs>
       <use xlink:href="#DejaVuSans-48"/>
       <use x="63.623047" xlink:href="#DejaVuSans-46"/>
       <use x="95.410156" xlink:href="#DejaVuSans-50"/>
      </g>
     </g>
    </g>
    <g id="xtick_3">
     <g id="line2d_3">
      <g>
       <use style="stroke:#000000;stroke-width:0.8;" x="194.885568" xlink:href="#m9c6ba0a6fb" y="273.312"/>
      </g>
     </g>
     <g id="text_3">
      <!-- 0.4 -->
      <g transform="translate(186.934006 287.910438)scale(0.1 -0.1)">
       <defs>
        <path d="M 37.796875 64.3125 
L 12.890625 25.390625 
L 37.796875 25.390625 
z
M 35.203125 72.90625 
L 47.609375 72.90625 
L 47.609375 25.390625 
L 58.015625 25.390625 
L 58.015625 17.1875 
L 47.609375 17.1875 
L 47.609375 0 
L 37.796875 0 
L 37.796875 17.1875 
L 4.890625 17.1875 
L 4.890625 26.703125 
z
" id="DejaVuSans-52"/>
       </defs>
       <use xlink:href="#DejaVuSans-48"/>
       <use x="63.623047" xlink:href="#DejaVuSans-46"/>
       <use x="95.410156" xlink:href="#DejaVuSans-52"/>
      </g>
     </g>
    </g>
    <g id="xtick_4">
     <g id="line2d_4">
      <g>
       <use style="stroke:#000000;stroke-width:0.8;" x="262.521932" xlink:href="#m9c6ba0a6fb" y="273.312"/>
      </g>
     </g>
     <g id="text_4">
      <!-- 0.6 -->
      <g transform="translate(254.570369 287.910438)scale(0.1 -0.1)">
       <defs>
        <path d="M 33.015625 40.375 
Q 26.375 40.375 22.484375 35.828125 
Q 18.609375 31.296875 18.609375 23.390625 
Q 18.609375 15.53125 22.484375 10.953125 
Q 26.375 6.390625 33.015625 6.390625 
Q 39.65625 6.390625 43.53125 10.953125 
Q 47.40625 15.53125 47.40625 23.390625 
Q 47.40625 31.296875 43.53125 35.828125 
Q 39.65625 40.375 33.015625 40.375 
z
M 52.59375 71.296875 
L 52.59375 62.3125 
Q 48.875 64.0625 45.09375 64.984375 
Q 41.3125 65.921875 37.59375 65.921875 
Q 27.828125 65.921875 22.671875 59.328125 
Q 17.53125 52.734375 16.796875 39.40625 
Q 19.671875 43.65625 24.015625 45.921875 
Q 28.375 48.1875 33.59375 48.1875 
Q 44.578125 48.1875 50.953125 41.515625 
Q 57.328125 34.859375 57.328125 23.390625 
Q 57.328125 12.15625 50.6875 5.359375 
Q 44.046875 -1.421875 33.015625 -1.421875 
Q 20.359375 -1.421875 13.671875 8.265625 
Q 6.984375 17.96875 6.984375 36.375 
Q 6.984375 53.65625 15.1875 63.9375 
Q 23.390625 74.21875 37.203125 74.21875 
Q 40.921875 74.21875 44.703125 73.484375 
Q 48.484375 72.75 52.59375 71.296875 
z
" id="DejaVuSans-54"/>
       </defs>
       <use xlink:href="#DejaVuSans-48"/>
       <use x="63.623047" xlink:href="#DejaVuSans-46"/>
       <use x="95.410156" xlink:href="#DejaVuSans-54"/>
      </g>
     </g>
    </g>
    <g id="xtick_5">
     <g id="line2d_5">
      <g>
       <use style="stroke:#000000;stroke-width:0.8;" x="330.158295" xlink:href="#m9c6ba0a6fb" y="273.312"/>
      </g>
     </g>
     <g id="text_5">
      <!-- 0.8 -->
      <g transform="translate(322.206733 287.910438)scale(0.1 -0.1)">
       <defs>
        <path d="M 31.78125 34.625 
Q 24.75 34.625 20.71875 30.859375 
Q 16.703125 27.09375 16.703125 20.515625 
Q 16.703125 13.921875 20.71875 10.15625 
Q 24.75 6.390625 31.78125 6.390625 
Q 38.8125 6.390625 42.859375 10.171875 
Q 46.921875 13.96875 46.921875 20.515625 
Q 46.921875 27.09375 42.890625 30.859375 
Q 38.875 34.625 31.78125 34.625 
z
M 21.921875 38.8125 
Q 15.578125 40.375 12.03125 44.71875 
Q 8.5 49.078125 8.5 55.328125 
Q 8.5 64.0625 14.71875 69.140625 
Q 20.953125 74.21875 31.78125 74.21875 
Q 42.671875 74.21875 48.875 69.140625 
Q 55.078125 64.0625 55.078125 55.328125 
Q 55.078125 49.078125 51.53125 44.71875 
Q 48 40.375 41.703125 38.8125 
Q 48.828125 37.15625 52.796875 32.3125 
Q 56.78125 27.484375 56.78125 20.515625 
Q 56.78125 9.90625 50.3125 4.234375 
Q 43.84375 -1.421875 31.78125 -1.421875 
Q 19.734375 -1.421875 13.25 4.234375 
Q 6.78125 9.90625 6.78125 20.515625 
Q 6.78125 27.484375 10.78125 32.3125 
Q 14.796875 37.15625 21.921875 38.8125 
z
M 18.3125 54.390625 
Q 18.3125 48.734375 21.84375 45.5625 
Q 25.390625 42.390625 31.78125 42.390625 
Q 38.140625 42.390625 41.71875 45.5625 
Q 45.3125 48.734375 45.3125 54.390625 
Q 45.3125 60.0625 41.71875 63.234375 
Q 38.140625 66.40625 31.78125 66.40625 
Q 25.390625 66.40625 21.84375 63.234375 
Q 18.3125 60.0625 18.3125 54.390625 
z
" id="DejaVuSans-56"/>
       </defs>
       <use xlink:href="#DejaVuSans-48"/>
       <use x="63.623047" xlink:href="#DejaVuSans-46"/>
       <use x="95.410156" xlink:href="#DejaVuSans-56"/>
      </g>
     </g>
    </g>
    <g id="xtick_6">
     <g id="line2d_6">
      <g>
       <use style="stroke:#000000;stroke-width:0.8;" x="397.794659" xlink:href="#m9c6ba0a6fb" y="273.312"/>
      </g>
     </g>
     <g id="text_6">
      <!-- 1.0 -->
      <g transform="translate(389.843097 287.910438)scale(0.1 -0.1)">
       <defs>
        <path d="M 12.40625 8.296875 
L 28.515625 8.296875 
L 28.515625 63.921875 
L 10.984375 60.40625 
L 10.984375 69.390625 
L 28.421875 72.90625 
L 38.28125 72.90625 
L 38.28125 8.296875 
L 54.390625 8.296875 
L 54.390625 0 
L 12.40625 0 
z
" id="DejaVuSans-49"/>
       </defs>
       <use xlink:href="#DejaVuSans-49"/>
       <use x="63.623047" xlink:href="#DejaVuSans-46"/>
       <use x="95.410156" xlink:href="#DejaVuSans-48"/>
      </g>
     </g>
    </g>
    <g id="text_7">
     <!-- cutoff -->
     <g transform="translate(214.245938 301.588562)scale(0.1 -0.1)">
      <defs>
       <path d="M 48.78125 52.59375 
L 48.78125 44.1875 
Q 44.96875 46.296875 41.140625 47.34375 
Q 37.3125 48.390625 33.40625 48.390625 
Q 24.65625 48.390625 19.8125 42.84375 
Q 14.984375 37.3125 14.984375 27.296875 
Q 14.984375 17.28125 19.8125 11.734375 
Q 24.65625 6.203125 33.40625 6.203125 
Q 37.3125 6.203125 41.140625 7.25 
Q 44.96875 8.296875 48.78125 10.40625 
L 48.78125 2.09375 
Q 45.015625 0.34375 40.984375 -0.53125 
Q 36.96875 -1.421875 32.421875 -1.421875 
Q 20.0625 -1.421875 12.78125 6.34375 
Q 5.515625 14.109375 5.515625 27.296875 
Q 5.515625 40.671875 12.859375 48.328125 
Q 20.21875 56 33.015625 56 
Q 37.15625 56 41.109375 55.140625 
Q 45.0625 54.296875 48.78125 52.59375 
z
" id="DejaVuSans-99"/>
       <path d="M 8.5 21.578125 
L 8.5 54.6875 
L 17.484375 54.6875 
L 17.484375 21.921875 
Q 17.484375 14.15625 20.5 10.265625 
Q 23.53125 6.390625 29.59375 6.390625 
Q 36.859375 6.390625 41.078125 11.03125 
Q 45.3125 15.671875 45.3125 23.6875 
L 45.3125 54.6875 
L 54.296875 54.6875 
L 54.296875 0 
L 45.3125 0 
L 45.3125 8.40625 
Q 42.046875 3.421875 37.71875 1 
Q 33.40625 -1.421875 27.6875 -1.421875 
Q 18.265625 -1.421875 13.375 4.4375 
Q 8.5 10.296875 8.5 21.578125 
z
M 31.109375 56 
z
" id="DejaVuSans-117"/>
       <path d="M 18.3125 70.21875 
L 18.3125 54.6875 
L 36.8125 54.6875 
L 36.8125 47.703125 
L 18.3125 47.703125 
L 18.3125 18.015625 
Q 18.3125 11.328125 20.140625 9.421875 
Q 21.96875 7.515625 27.59375 7.515625 
L 36.8125 7.515625 
L 36.8125 0 
L 27.59375 0 
Q 17.1875 0 13.234375 3.875 
Q 9.28125 7.765625 9.28125 18.015625 
L 9.28125 47.703125 
L 2.6875 47.703125 
L 2.6875 54.6875 
L 9.28125 54.6875 
L 9.28125 70.21875 
z
" id="DejaVuSans-116"/>
       <path d="M 30.609375 48.390625 
Q 23.390625 48.390625 19.1875 42.75 
Q 14.984375 37.109375 14.984375 27.296875 
Q 14.984375 17.484375 19.15625 11.84375 
Q 23.34375 6.203125 30.609375 6.203125 
Q 37.796875 6.203125 41.984375 11.859375 
Q 46.1875 17.53125 46.1875 27.296875 
Q 46.1875 37.015625 41.984375 42.703125 
Q 37.796875 48.390625 30.609375 48.390625 
z
M 30.609375 56 
Q 42.328125 56 49.015625 48.375 
Q 55.71875 40.765625 55.71875 27.296875 
Q 55.71875 13.875 49.015625 6.21875 
Q 42.328125 -1.421875 30.609375 -1.421875 
Q 18.84375 -1.421875 12.171875 6.21875 
Q 5.515625 13.875 5.515625 27.296875 
Q 5.515625 40.765625 12.171875 48.375 
Q 18.84375 56 30.609375 56 
z
" id="DejaVuSans-111"/>
       <path d="M 37.109375 75.984375 
L 37.109375 68.5 
L 28.515625 68.5 
Q 23.6875 68.5 21.796875 66.546875 
Q 19.921875 64.59375 19.921875 59.515625 
L 19.921875 54.6875 
L 34.71875 54.6875 
L 34.71875 47.703125 
L 19.921875 47.703125 
L 19.921875 0 
L 10.890625 0 
L 10.890625 47.703125 
L 2.296875 47.703125 
L 2.296875 54.6875 
L 10.890625 54.6875 
L 10.890625 58.5 
Q 10.890625 67.625 15.140625 71.796875 
Q 19.390625 75.984375 28.609375 75.984375 
z
" id="DejaVuSans-102"/>
      </defs>
      <use xlink:href="#DejaVuSans-99"/>
      <use x="54.980469" xlink:href="#DejaVuSans-117"/>
      <use x="118.359375" xlink:href="#DejaVuSans-116"/>
      <use x="157.568359" xlink:href="#DejaVuSans-111"/>
      <use x="218.75" xlink:href="#DejaVuSans-102"/>
      <use x="253.955078" xlink:href="#DejaVuSans-102"/>
     </g>
    </g>
   </g>
   <g id="matplotlib.axis_2">
    <g id="ytick_1">
     <g id="line2d_7">
      <defs>
       <path d="M 0 0 
L -3.5 0 
" id="m71d9b47453" style="stroke:#000000;stroke-width:0.8;"/>
      </defs>
      <g>
       <use style="stroke:#000000;stroke-width:0.8;" x="50.14375" xlink:href="#m71d9b47453" y="249.970975"/>
      </g>
     </g>
     <g id="text_8">
      <!-- 0.55 -->
      <g transform="translate(20.878125 253.770194)scale(0.1 -0.1)">
       <defs>
        <path d="M 10.796875 72.90625 
L 49.515625 72.90625 
L 49.515625 64.59375 
L 19.828125 64.59375 
L 19.828125 46.734375 
Q 21.96875 47.46875 24.109375 47.828125 
Q 26.265625 48.1875 28.421875 48.1875 
Q 40.625 48.1875 47.75 41.5 
Q 54.890625 34.8125 54.890625 23.390625 
Q 54.890625 11.625 47.5625 5.09375 
Q 40.234375 -1.421875 26.90625 -1.421875 
Q 22.3125 -1.421875 17.546875 -0.640625 
Q 12.796875 0.140625 7.71875 1.703125 
L 7.71875 11.625 
Q 12.109375 9.234375 16.796875 8.0625 
Q 21.484375 6.890625 26.703125 6.890625 
Q 35.15625 6.890625 40.078125 11.328125 
Q 45.015625 15.765625 45.015625 23.390625 
Q 45.015625 31 40.078125 35.4375 
Q 35.15625 39.890625 26.703125 39.890625 
Q 22.75 39.890625 18.8125 39.015625 
Q 14.890625 38.140625 10.796875 36.28125 
z
" id="DejaVuSans-53"/>
       </defs>
       <use xlink:href="#DejaVuSans-48"/>
       <use x="63.623047" xlink:href="#DejaVuSans-46"/>
       <use x="95.410156" xlink:href="#DejaVuSans-53"/>
       <use x="159.033203" xlink:href="#DejaVuSans-53"/>
      </g>
     </g>
    </g>
    <g id="ytick_2">
     <g id="line2d_8">
      <g>
       <use style="stroke:#000000;stroke-width:0.8;" x="50.14375" xlink:href="#m71d9b47453" y="216.235899"/>
      </g>
     </g>
     <g id="text_9">
      <!-- 0.60 -->
      <g transform="translate(20.878125 220.035118)scale(0.1 -0.1)">
       <use xlink:href="#DejaVuSans-48"/>
       <use x="63.623047" xlink:href="#DejaVuSans-46"/>
       <use x="95.410156" xlink:href="#DejaVuSans-54"/>
       <use x="159.033203" xlink:href="#DejaVuSans-48"/>
      </g>
     </g>
    </g>
    <g id="ytick_3">
     <g id="line2d_9">
      <g>
       <use style="stroke:#000000;stroke-width:0.8;" x="50.14375" xlink:href="#m71d9b47453" y="182.500824"/>
      </g>
     </g>
     <g id="text_10">
      <!-- 0.65 -->
      <g transform="translate(20.878125 186.300043)scale(0.1 -0.1)">
       <use xlink:href="#DejaVuSans-48"/>
       <use x="63.623047" xlink:href="#DejaVuSans-46"/>
       <use x="95.410156" xlink:href="#DejaVuSans-54"/>
       <use x="159.033203" xlink:href="#DejaVuSans-53"/>
      </g>
     </g>
    </g>
    <g id="ytick_4">
     <g id="line2d_10">
      <g>
       <use style="stroke:#000000;stroke-width:0.8;" x="50.14375" xlink:href="#m71d9b47453" y="148.765749"/>
      </g>
     </g>
     <g id="text_11">
      <!-- 0.70 -->
      <g transform="translate(20.878125 152.564967)scale(0.1 -0.1)">
       <defs>
        <path d="M 8.203125 72.90625 
L 55.078125 72.90625 
L 55.078125 68.703125 
L 28.609375 0 
L 18.3125 0 
L 43.21875 64.59375 
L 8.203125 64.59375 
z
" id="DejaVuSans-55"/>
       </defs>
       <use xlink:href="#DejaVuSans-48"/>
       <use x="63.623047" xlink:href="#DejaVuSans-46"/>
       <use x="95.410156" xlink:href="#DejaVuSans-55"/>
       <use x="159.033203" xlink:href="#DejaVuSans-48"/>
      </g>
     </g>
    </g>
    <g id="ytick_5">
     <g id="line2d_11">
      <g>
       <use style="stroke:#000000;stroke-width:0.8;" x="50.14375" xlink:href="#m71d9b47453" y="115.030673"/>
      </g>
     </g>
     <g id="text_12">
      <!-- 0.75 -->
      <g transform="translate(20.878125 118.829892)scale(0.1 -0.1)">
       <use xlink:href="#DejaVuSans-48"/>
       <use x="63.623047" xlink:href="#DejaVuSans-46"/>
       <use x="95.410156" xlink:href="#DejaVuSans-55"/>
       <use x="159.033203" xlink:href="#DejaVuSans-53"/>
      </g>
     </g>
    </g>
    <g id="ytick_6">
     <g id="line2d_12">
      <g>
       <use style="stroke:#000000;stroke-width:0.8;" x="50.14375" xlink:href="#m71d9b47453" y="81.295598"/>
      </g>
     </g>
     <g id="text_13">
      <!-- 0.80 -->
      <g transform="translate(20.878125 85.094817)scale(0.1 -0.1)">
       <use xlink:href="#DejaVuSans-48"/>
       <use x="63.623047" xlink:href="#DejaVuSans-46"/>
       <use x="95.410156" xlink:href="#DejaVuSans-56"/>
       <use x="159.033203" xlink:href="#DejaVuSans-48"/>
      </g>
     </g>
    </g>
    <g id="ytick_7">
     <g id="line2d_13">
      <g>
       <use style="stroke:#000000;stroke-width:0.8;" x="50.14375" xlink:href="#m71d9b47453" y="47.560523"/>
      </g>
     </g>
     <g id="text_14">
      <!-- 0.85 -->
      <g transform="translate(20.878125 51.359741)scale(0.1 -0.1)">
       <use xlink:href="#DejaVuSans-48"/>
       <use x="63.623047" xlink:href="#DejaVuSans-46"/>
       <use x="95.410156" xlink:href="#DejaVuSans-56"/>
       <use x="159.033203" xlink:href="#DejaVuSans-53"/>
      </g>
     </g>
    </g>
    <g id="ytick_8">
     <g id="line2d_14">
      <g>
       <use style="stroke:#000000;stroke-width:0.8;" x="50.14375" xlink:href="#m71d9b47453" y="13.825447"/>
      </g>
     </g>
     <g id="text_15">
      <!-- 0.90 -->
      <g transform="translate(20.878125 17.624666)scale(0.1 -0.1)">
       <defs>
        <path d="M 10.984375 1.515625 
L 10.984375 10.5 
Q 14.703125 8.734375 18.5 7.8125 
Q 22.3125 6.890625 25.984375 6.890625 
Q 35.75 6.890625 40.890625 13.453125 
Q 46.046875 20.015625 46.78125 33.40625 
Q 43.953125 29.203125 39.59375 26.953125 
Q 35.25 24.703125 29.984375 24.703125 
Q 19.046875 24.703125 12.671875 31.3125 
Q 6.296875 37.9375 6.296875 49.421875 
Q 6.296875 60.640625 12.9375 67.421875 
Q 19.578125 74.21875 30.609375 74.21875 
Q 43.265625 74.21875 49.921875 64.515625 
Q 56.59375 54.828125 56.59375 36.375 
Q 56.59375 19.140625 48.40625 8.859375 
Q 40.234375 -1.421875 26.421875 -1.421875 
Q 22.703125 -1.421875 18.890625 -0.6875 
Q 15.09375 0.046875 10.984375 1.515625 
z
M 30.609375 32.421875 
Q 37.25 32.421875 41.125 36.953125 
Q 45.015625 41.5 45.015625 49.421875 
Q 45.015625 57.28125 41.125 61.84375 
Q 37.25 66.40625 30.609375 66.40625 
Q 23.96875 66.40625 20.09375 61.84375 
Q 16.21875 57.28125 16.21875 49.421875 
Q 16.21875 41.5 20.09375 36.953125 
Q 23.96875 32.421875 30.609375 32.421875 
z
" id="DejaVuSans-57"/>
       </defs>
       <use xlink:href="#DejaVuSans-48"/>
       <use x="63.623047" xlink:href="#DejaVuSans-46"/>
       <use x="95.410156" xlink:href="#DejaVuSans-57"/>
       <use x="159.033203" xlink:href="#DejaVuSans-48"/>
      </g>
     </g>
    </g>
    <g id="text_16">
     <!-- performance -->
     <g transform="translate(14.798438 172.278656)rotate(-90)scale(0.1 -0.1)">
      <defs>
       <path d="M 18.109375 8.203125 
L 18.109375 -20.796875 
L 9.078125 -20.796875 
L 9.078125 54.6875 
L 18.109375 54.6875 
L 18.109375 46.390625 
Q 20.953125 51.265625 25.265625 53.625 
Q 29.59375 56 35.59375 56 
Q 45.5625 56 51.78125 48.09375 
Q 58.015625 40.1875 58.015625 27.296875 
Q 58.015625 14.40625 51.78125 6.484375 
Q 45.5625 -1.421875 35.59375 -1.421875 
Q 29.59375 -1.421875 25.265625 0.953125 
Q 20.953125 3.328125 18.109375 8.203125 
z
M 48.6875 27.296875 
Q 48.6875 37.203125 44.609375 42.84375 
Q 40.53125 48.484375 33.40625 48.484375 
Q 26.265625 48.484375 22.1875 42.84375 
Q 18.109375 37.203125 18.109375 27.296875 
Q 18.109375 17.390625 22.1875 11.75 
Q 26.265625 6.109375 33.40625 6.109375 
Q 40.53125 6.109375 44.609375 11.75 
Q 48.6875 17.390625 48.6875 27.296875 
z
" id="DejaVuSans-112"/>
       <path d="M 56.203125 29.59375 
L 56.203125 25.203125 
L 14.890625 25.203125 
Q 15.484375 15.921875 20.484375 11.0625 
Q 25.484375 6.203125 34.421875 6.203125 
Q 39.59375 6.203125 44.453125 7.46875 
Q 49.3125 8.734375 54.109375 11.28125 
L 54.109375 2.78125 
Q 49.265625 0.734375 44.1875 -0.34375 
Q 39.109375 -1.421875 33.890625 -1.421875 
Q 20.796875 -1.421875 13.15625 6.1875 
Q 5.515625 13.8125 5.515625 26.8125 
Q 5.515625 40.234375 12.765625 48.109375 
Q 20.015625 56 32.328125 56 
Q 43.359375 56 49.78125 48.890625 
Q 56.203125 41.796875 56.203125 29.59375 
z
M 47.21875 32.234375 
Q 47.125 39.59375 43.09375 43.984375 
Q 39.0625 48.390625 32.421875 48.390625 
Q 24.90625 48.390625 20.390625 44.140625 
Q 15.875 39.890625 15.1875 32.171875 
z
" id="DejaVuSans-101"/>
       <path d="M 41.109375 46.296875 
Q 39.59375 47.171875 37.8125 47.578125 
Q 36.03125 48 33.890625 48 
Q 26.265625 48 22.1875 43.046875 
Q 18.109375 38.09375 18.109375 28.8125 
L 18.109375 0 
L 9.078125 0 
L 9.078125 54.6875 
L 18.109375 54.6875 
L 18.109375 46.1875 
Q 20.953125 51.171875 25.484375 53.578125 
Q 30.03125 56 36.53125 56 
Q 37.453125 56 38.578125 55.875 
Q 39.703125 55.765625 41.0625 55.515625 
z
" id="DejaVuSans-114"/>
       <path d="M 52 44.1875 
Q 55.375 50.25 60.0625 53.125 
Q 64.75 56 71.09375 56 
Q 79.640625 56 84.28125 50.015625 
Q 88.921875 44.046875 88.921875 33.015625 
L 88.921875 0 
L 79.890625 0 
L 79.890625 32.71875 
Q 79.890625 40.578125 77.09375 44.375 
Q 74.3125 48.1875 68.609375 48.1875 
Q 61.625 48.1875 57.5625 43.546875 
Q 53.515625 38.921875 53.515625 30.90625 
L 53.515625 0 
L 44.484375 0 
L 44.484375 32.71875 
Q 44.484375 40.625 41.703125 44.40625 
Q 38.921875 48.1875 33.109375 48.1875 
Q 26.21875 48.1875 22.15625 43.53125 
Q 18.109375 38.875 18.109375 30.90625 
L 18.109375 0 
L 9.078125 0 
L 9.078125 54.6875 
L 18.109375 54.6875 
L 18.109375 46.1875 
Q 21.1875 51.21875 25.484375 53.609375 
Q 29.78125 56 35.6875 56 
Q 41.65625 56 45.828125 52.96875 
Q 50 49.953125 52 44.1875 
z
" id="DejaVuSans-109"/>
       <path d="M 34.28125 27.484375 
Q 23.390625 27.484375 19.1875 25 
Q 14.984375 22.515625 14.984375 16.5 
Q 14.984375 11.71875 18.140625 8.90625 
Q 21.296875 6.109375 26.703125 6.109375 
Q 34.1875 6.109375 38.703125 11.40625 
Q 43.21875 16.703125 43.21875 25.484375 
L 43.21875 27.484375 
z
M 52.203125 31.203125 
L 52.203125 0 
L 43.21875 0 
L 43.21875 8.296875 
Q 40.140625 3.328125 35.546875 0.953125 
Q 30.953125 -1.421875 24.3125 -1.421875 
Q 15.921875 -1.421875 10.953125 3.296875 
Q 6 8.015625 6 15.921875 
Q 6 25.140625 12.171875 29.828125 
Q 18.359375 34.515625 30.609375 34.515625 
L 43.21875 34.515625 
L 43.21875 35.40625 
Q 43.21875 41.609375 39.140625 45 
Q 35.0625 48.390625 27.6875 48.390625 
Q 23 48.390625 18.546875 47.265625 
Q 14.109375 46.140625 10.015625 43.890625 
L 10.015625 52.203125 
Q 14.9375 54.109375 19.578125 55.046875 
Q 24.21875 56 28.609375 56 
Q 40.484375 56 46.34375 49.84375 
Q 52.203125 43.703125 52.203125 31.203125 
z
" id="DejaVuSans-97"/>
       <path d="M 54.890625 33.015625 
L 54.890625 0 
L 45.90625 0 
L 45.90625 32.71875 
Q 45.90625 40.484375 42.875 44.328125 
Q 39.84375 48.1875 33.796875 48.1875 
Q 26.515625 48.1875 22.3125 43.546875 
Q 18.109375 38.921875 18.109375 30.90625 
L 18.109375 0 
L 9.078125 0 
L 9.078125 54.6875 
L 18.109375 54.6875 
L 18.109375 46.1875 
Q 21.34375 51.125 25.703125 53.5625 
Q 30.078125 56 35.796875 56 
Q 45.21875 56 50.046875 50.171875 
Q 54.890625 44.34375 54.890625 33.015625 
z
" id="DejaVuSans-110"/>
      </defs>
      <use xlink:href="#DejaVuSans-112"/>
      <use x="63.476562" xlink:href="#DejaVuSans-101"/>
      <use x="125" xlink:href="#DejaVuSans-114"/>
      <use x="166.113281" xlink:href="#DejaVuSans-102"/>
      <use x="201.318359" xlink:href="#DejaVuSans-111"/>
      <use x="262.5" xlink:href="#DejaVuSans-114"/>
      <use x="301.863281" xlink:href="#DejaVuSans-109"/>
      <use x="399.275391" xlink:href="#DejaVuSans-97"/>
      <use x="460.554688" xlink:href="#DejaVuSans-110"/>
      <use x="523.933594" xlink:href="#DejaVuSans-99"/>
      <use x="578.914062" xlink:href="#DejaVuSans-101"/>
     </g>
    </g>
   </g>
   <g id="line2d_15">
    <path clip-path="url(#p27d592cc4f)" d="M 66.376477 261.216 
L 73.140114 260.599834 
L 79.90375 250.446117 
L 86.667386 245.151678 
L 93.431023 209.910573 
L 100.194659 203.384442 
L 106.958295 203.384442 
L 113.721932 192.674894 
L 120.485568 155.74542 
L 127.249205 211.416603 
L 134.012841 203.968599 
L 140.776477 208.739216 
L 147.540114 208.739216 
L 154.30375 175.753809 
L 161.067386 199.368362 
L 167.831023 199.368362 
L 174.594659 199.368362 
L 181.358295 190.396267 
L 188.121932 190.396267 
L 194.885568 190.396267 
L 201.649205 139.127156 
L 208.412841 139.127156 
L 215.176477 139.127156 
L 221.940114 139.127156 
L 228.70375 127.372774 
L 235.467386 19.296 
L 242.231023 19.296 
L 248.994659 19.296 
L 255.758295 19.296 
L 262.521932 19.296 
L 269.285568 19.296 
L 276.049205 19.296 
L 282.812841 19.296 
L 289.576477 19.296 
L 296.340114 19.296 
L 303.10375 19.296 
L 309.867386 19.296 
L 316.631023 19.296 
L 323.394659 19.296 
L 330.158295 19.296 
L 336.921932 19.296 
L 343.685568 19.296 
L 350.449205 19.296 
L 357.212841 19.296 
L 363.976477 19.296 
L 370.740114 19.296 
L 377.50375 19.296 
L 384.267386 19.296 
L 391.031023 19.296 
" style="fill:none;stroke:#f26b38;stroke-dasharray:7.4,3.2;stroke-dashoffset:0;stroke-width:2;"/>
   </g>
   <g id="line2d_16">
    <path clip-path="url(#p27d592cc4f)" d="M 66.376477 209.910573 
L 73.140114 223.464844 
L 79.90375 223.464844 
L 86.667386 229.72993 
L 93.431023 191.701299 
L 100.194659 228.788486 
L 106.958295 228.788486 
L 113.721932 228.788486 
L 120.485568 219.448764 
L 127.249205 219.448764 
L 134.012841 165.177407 
L 140.776477 165.177407 
L 147.540114 165.177407 
L 154.30375 165.177407 
L 161.067386 165.177407 
L 167.831023 165.177407 
L 174.594659 30.692985 
L 181.358295 30.692985 
L 188.121932 30.692985 
L 194.885568 30.692985 
L 201.649205 30.692985 
L 208.412841 30.692985 
L 215.176477 30.692985 
L 221.940114 30.692985 
L 228.70375 30.692985 
L 235.467386 30.692985 
L 242.231023 30.692985 
L 248.994659 30.692985 
L 255.758295 30.692985 
L 262.521932 30.692985 
L 269.285568 30.692985 
L 276.049205 30.692985 
L 282.812841 30.692985 
L 289.576477 30.692985 
L 296.340114 30.692985 
L 303.10375 30.692985 
L 309.867386 30.692985 
L 316.631023 30.692985 
L 323.394659 30.692985 
L 330.158295 30.692985 
L 336.921932 30.692985 
L 343.685568 30.692985 
L 350.449205 30.692985 
L 357.212841 30.692985 
L 363.976477 30.692985 
L 370.740114 30.692985 
L 377.50375 30.692985 
L 384.267386 30.692985 
L 391.031023 30.692985 
" style="fill:none;stroke:#2f9599;stroke-dasharray:2,3.3;stroke-dashoffset:0;stroke-width:2;"/>
   </g>
   <g id="line2d_17">
    <path clip-path="url(#p27d592cc4f)" d="M 66.376477 256.353286 
L 73.140114 256.353286 
L 79.90375 256.353286 
L 86.667386 256.353286 
L 93.431023 256.353286 
L 100.194659 256.353286 
L 106.958295 256.353286 
L 113.721932 255.593487 
L 120.485568 250.446117 
L 127.249205 245.151678 
L 134.012841 245.151678 
L 140.776477 245.151678 
L 147.540114 228.320106 
L 154.30375 222.36955 
L 161.067386 175.067672 
L 167.831023 175.067672 
L 174.594659 200.959639 
L 181.358295 210.944123 
L 188.121932 210.944123 
L 194.885568 189.247839 
L 201.649205 189.247839 
L 208.412841 224.173564 
L 215.176477 224.173564 
L 221.940114 208.739216 
L 228.70375 208.739216 
L 235.467386 184.48524 
L 242.231023 199.368362 
L 248.994659 190.396267 
L 255.758295 190.396267 
L 262.521932 190.396267 
L 269.285568 139.127156 
L 276.049205 139.127156 
L 282.812841 139.127156 
L 289.576477 19.296 
L 296.340114 19.296 
L 303.10375 19.296 
L 309.867386 19.296 
L 316.631023 19.296 
L 323.394659 19.296 
L 330.158295 19.296 
L 336.921932 19.296 
L 343.685568 19.296 
L 350.449205 19.296 
L 357.212841 19.296 
L 363.976477 19.296 
L 370.740114 19.296 
L 377.50375 19.296 
L 384.267386 19.296 
L 391.031023 19.296 
" style="fill:none;stroke:#a7226e;stroke-dasharray:12.8,3.2,2,3.2;stroke-dashoffset:0;stroke-width:2;"/>
   </g>
   <g id="patch_3">
    <path d="M 50.14375 273.312 
L 50.14375 7.2 
" style="fill:none;stroke:#000000;stroke-linecap:square;stroke-linejoin:miter;stroke-width:0.8;"/>
   </g>
   <g id="patch_4">
    <path d="M 407.26375 273.312 
L 407.26375 7.2 
" style="fill:none;stroke:#000000;stroke-linecap:square;stroke-linejoin:miter;stroke-width:0.8;"/>
   </g>
   <g id="patch_5">
    <path d="M 50.14375 273.312 
L 407.26375 273.312 
" style="fill:none;stroke:#000000;stroke-linecap:square;stroke-linejoin:miter;stroke-width:0.8;"/>
   </g>
   <g id="patch_6">
    <path d="M 50.14375 7.2 
L 407.26375 7.2 
" style="fill:none;stroke:#000000;stroke-linecap:square;stroke-linejoin:miter;stroke-width:0.8;"/>
   </g>
   <g id="legend_1">
    <g id="patch_7">
     <path d="M 55.00175 43.890913 
L 135.617441 43.890913 
Q 137.005441 43.890913 137.005441 42.502913 
L 137.005441 12.058 
Q 137.005441 10.67 135.617441 10.67 
L 55.00175 10.67 
Q 53.61375 10.67 53.61375 12.058 
L 53.61375 42.502913 
Q 53.61375 43.890913 55.00175 43.890913 
z
" style="fill:#ffffff;opacity:0.8;stroke:#cccccc;stroke-linejoin:miter;"/>
    </g>
    <g id="PathCollection_5">
     <defs>
      <path d="M 0 3 
C 0.795609 3 1.55874 2.683901 2.12132 2.12132 
C 2.683901 1.55874 3 0.795609 3 0 
C 3 -0.795609 2.683901 -1.55874 2.12132 -2.12132 
C 1.55874 -2.683901 0.795609 -3 0 -3 
C -0.795609 -3 -1.55874 -2.683901 -2.12132 -2.12132 
C -2.683901 -1.55874 -3 -0.795609 -3 0 
C -3 0.795609 -2.683901 1.55874 -2.12132 2.12132 
C -1.55874 2.683901 -0.795609 3 0 3 
z
" id="mc7a5b597f9" style="stroke:#f26b38;"/>
     </defs>
     <g>
      <use style="fill:#f26b38;stroke:#f26b38;" x="63.32975" xlink:href="#mc7a5b597f9" y="16.897566"/>
     </g>
    </g>
    <g id="text_17">
     <!-- mean_err -->
     <g transform="translate(75.82175 18.719316)scale(0.0694 -0.0694)">
      <defs>
       <path d="M 50.984375 -16.609375 
L 50.984375 -23.578125 
L -0.984375 -23.578125 
L -0.984375 -16.609375 
z
" id="DejaVuSans-95"/>
      </defs>
      <use xlink:href="#DejaVuSans-109"/>
      <use x="97.412109" xlink:href="#DejaVuSans-101"/>
      <use x="158.935547" xlink:href="#DejaVuSans-97"/>
      <use x="220.214844" xlink:href="#DejaVuSans-110"/>
      <use x="283.59375" xlink:href="#DejaVuSans-95"/>
      <use x="333.59375" xlink:href="#DejaVuSans-101"/>
      <use x="395.117188" xlink:href="#DejaVuSans-114"/>
      <use x="434.480469" xlink:href="#DejaVuSans-114"/>
     </g>
    </g>
    <g id="PathCollection_6">
     <defs>
      <path d="M -1.5 3 
L 0 1.5 
L 1.5 3 
L 3 1.5 
L 1.5 0 
L 3 -1.5 
L 1.5 -3 
L 0 -1.5 
L -1.5 -3 
L -3 -1.5 
L -1.5 0 
L -3 1.5 
z
" id="mf05c099de5" style="stroke:#2f9599;"/>
     </defs>
     <g>
      <use style="fill:#2f9599;stroke:#2f9599;" x="63.32975" xlink:href="#mf05c099de5" y="27.277203"/>
     </g>
    </g>
    <g id="text_18">
     <!-- mean_sq_err -->
     <g transform="translate(75.82175 29.098953)scale(0.0694 -0.0694)">
      <defs>
       <path d="M 44.28125 53.078125 
L 44.28125 44.578125 
Q 40.484375 46.53125 36.375 47.5 
Q 32.28125 48.484375 27.875 48.484375 
Q 21.1875 48.484375 17.84375 46.4375 
Q 14.5 44.390625 14.5 40.28125 
Q 14.5 37.15625 16.890625 35.375 
Q 19.28125 33.59375 26.515625 31.984375 
L 29.59375 31.296875 
Q 39.15625 29.25 43.1875 25.515625 
Q 47.21875 21.78125 47.21875 15.09375 
Q 47.21875 7.46875 41.1875 3.015625 
Q 35.15625 -1.421875 24.609375 -1.421875 
Q 20.21875 -1.421875 15.453125 -0.5625 
Q 10.6875 0.296875 5.421875 2 
L 5.421875 11.28125 
Q 10.40625 8.6875 15.234375 7.390625 
Q 20.0625 6.109375 24.8125 6.109375 
Q 31.15625 6.109375 34.5625 8.28125 
Q 37.984375 10.453125 37.984375 14.40625 
Q 37.984375 18.0625 35.515625 20.015625 
Q 33.0625 21.96875 24.703125 23.78125 
L 21.578125 24.515625 
Q 13.234375 26.265625 9.515625 29.90625 
Q 5.8125 33.546875 5.8125 39.890625 
Q 5.8125 47.609375 11.28125 51.796875 
Q 16.75 56 26.8125 56 
Q 31.78125 56 36.171875 55.265625 
Q 40.578125 54.546875 44.28125 53.078125 
z
" id="DejaVuSans-115"/>
       <path d="M 14.796875 27.296875 
Q 14.796875 17.390625 18.875 11.75 
Q 22.953125 6.109375 30.078125 6.109375 
Q 37.203125 6.109375 41.296875 11.75 
Q 45.40625 17.390625 45.40625 27.296875 
Q 45.40625 37.203125 41.296875 42.84375 
Q 37.203125 48.484375 30.078125 48.484375 
Q 22.953125 48.484375 18.875 42.84375 
Q 14.796875 37.203125 14.796875 27.296875 
z
M 45.40625 8.203125 
Q 42.578125 3.328125 38.25 0.953125 
Q 33.9375 -1.421875 27.875 -1.421875 
Q 17.96875 -1.421875 11.734375 6.484375 
Q 5.515625 14.40625 5.515625 27.296875 
Q 5.515625 40.1875 11.734375 48.09375 
Q 17.96875 56 27.875 56 
Q 33.9375 56 38.25 53.625 
Q 42.578125 51.265625 45.40625 46.390625 
L 45.40625 54.6875 
L 54.390625 54.6875 
L 54.390625 -20.796875 
L 45.40625 -20.796875 
z
" id="DejaVuSans-113"/>
      </defs>
      <use xlink:href="#DejaVuSans-109"/>
      <use x="97.412109" xlink:href="#DejaVuSans-101"/>
      <use x="158.935547" xlink:href="#DejaVuSans-97"/>
      <use x="220.214844" xlink:href="#DejaVuSans-110"/>
      <use x="283.59375" xlink:href="#DejaVuSans-95"/>
      <use x="333.59375" xlink:href="#DejaVuSans-115"/>
      <use x="385.693359" xlink:href="#DejaVuSans-113"/>
      <use x="449.169922" xlink:href="#DejaVuSans-95"/>
      <use x="499.169922" xlink:href="#DejaVuSans-101"/>
      <use x="560.693359" xlink:href="#DejaVuSans-114"/>
      <use x="600.056641" xlink:href="#DejaVuSans-114"/>
     </g>
    </g>
    <g id="PathCollection_7">
     <defs>
      <path d="M -2.12132 -2.12132 
L -2.12132 2.12132 
L 2.12132 2.12132 
L 2.12132 -2.12132 
z
" id="m54f79ca3eb" style="stroke:#a7226e;"/>
     </defs>
     <g>
      <use style="fill:#a7226e;stroke:#a7226e;" x="63.32975" xlink:href="#m54f79ca3eb" y="37.656841"/>
     </g>
    </g>
    <g id="text_19">
     <!-- mean_sqroot_err -->
     <g transform="translate(75.82175 39.478591)scale(0.0694 -0.0694)">
      <use xlink:href="#DejaVuSans-109"/>
      <use x="97.412109" xlink:href="#DejaVuSans-101"/>
      <use x="158.935547" xlink:href="#DejaVuSans-97"/>
      <use x="220.214844" xlink:href="#DejaVuSans-110"/>
      <use x="283.59375" xlink:href="#DejaVuSans-95"/>
      <use x="333.59375" xlink:href="#DejaVuSans-115"/>
      <use x="385.693359" xlink:href="#DejaVuSans-113"/>
      <use x="449.169922" xlink:href="#DejaVuSans-114"/>
      <use x="488.033203" xlink:href="#DejaVuSans-111"/>
      <use x="549.214844" xlink:href="#DejaVuSans-111"/>
      <use x="610.396484" xlink:href="#DejaVuSans-116"/>
      <use x="649.605469" xlink:href="#DejaVuSans-95"/>
      <use x="699.605469" xlink:href="#DejaVuSans-101"/>
      <use x="761.128906" xlink:href="#DejaVuSans-114"/>
      <use x="800.492188" xlink:href="#DejaVuSans-114"/>
     </g>
    </g>
   </g>
  </g>
 </g>
 <defs>
  <clipPath id="p27d592cc4f">
   <rect height="266.112" width="357.12" x="50.14375" y="7.2"/>
  </clipPath>
 </defs>
</svg>
