<?xml version="1.0" encoding="utf-8" standalone="no"?>
<!DOCTYPE svg PUBLIC "-//W3C//DTD SVG 1.1//EN"
  "http://www.w3.org/Graphics/SVG/1.1/DTD/svg11.dtd">
<!-- Created with matplotlib (https://matplotlib.org/) -->
<svg height="310.86825pt" version="1.1" viewBox="0 0 414.46375 310.86825" width="414.46375pt" xmlns="http://www.w3.org/2000/svg" xmlns:xlink="http://www.w3.org/1999/xlink">
 <metadata>
  <rdf:RDF xmlns:cc="http://creativecommons.org/ns#" xmlns:dc="http://purl.org/dc/elements/1.1/" xmlns:rdf="http://www.w3.org/1999/02/22-rdf-syntax-ns#">
   <cc:Work>
    <dc:type rdf:resource="http://purl.org/dc/dcmitype/StillImage"/>
    <dc:date>2022-05-27T21:48:30.843893</dc:date>
    <dc:format>image/svg+xml</dc:format>
    <dc:creator>
     <cc:Agent>
      <dc:title>Matplotlib v3.3.4, https://matplotlib.org/</dc:title>
     </cc:Agent>
    </dc:creator>
   </cc:Work>
  </rdf:RDF>
 </metadata>
 <defs>
  <style type="text/css">*{stroke-linecap:butt;stroke-linejoin:round;}</style>
 </defs>
 <g id="figure_1">
  <g id="patch_1">
   <path d="M 0 310.86825 
L 414.46375 310.86825 
L 414.46375 0 
L 0 0 
z
" style="fill:#ffffff;"/>
  </g>
  <g id="axes_1">
   <g id="patch_2">
    <path d="M 50.14375 273.312 
L 407.26375 273.312 
L 407.26375 7.2 
L 50.14375 7.2 
z
" style="fill:#ffffff;"/>
   </g>
   <g id="PathCollection_1">
    <path clip-path="url(#p30e3762ebf)" d="M 66.376477 264.216 
C 67.172087 264.216 67.935217 263.899901 68.497798 263.33732 
C 69.060378 262.77474 69.376477 262.011609 69.376477 261.216 
C 69.376477 260.420391 69.060378 259.65726 68.497798 259.09468 
C 67.935217 258.532099 67.172087 258.216 66.376477 258.216 
C 65.580868 258.216 64.817738 258.532099 64.255157 259.09468 
C 63.692576 259.65726 63.376477 260.420391 63.376477 261.216 
C 63.376477 262.011609 63.692576 262.77474 64.255157 263.33732 
C 64.817738 263.899901 65.580868 264.216 66.376477 264.216 
z
" style="fill:#f26b38;stroke:#ffffff;stroke-width:0.48;"/>
    <path clip-path="url(#p30e3762ebf)" d="M 73.140114 252.474462 
C 73.935723 252.474462 74.698853 252.158363 75.261434 251.595782 
C 75.824015 251.033201 76.140114 250.270071 76.140114 249.474462 
C 76.140114 248.678852 75.824015 247.915722 75.261434 247.353141 
C 74.698853 246.79056 73.935723 246.474462 73.140114 246.474462 
C 72.344504 246.474462 71.581374 246.79056 71.018793 247.353141 
C 70.456213 247.915722 70.140114 248.678852 70.140114 249.474462 
C 70.140114 250.270071 70.456213 251.033201 71.018793 251.595782 
C 71.581374 252.158363 72.344504 252.474462 73.140114 252.474462 
z
" style="fill:#f26b38;stroke:#ffffff;stroke-width:0.48;"/>
    <path clip-path="url(#p30e3762ebf)" d="M 79.90375 248.031717 
C 80.699359 248.031717 81.46249 247.715618 82.02507 247.153038 
C 82.587651 246.590457 82.90375 245.827327 82.90375 245.031717 
C 82.90375 244.236108 82.587651 243.472978 82.02507 242.910397 
C 81.46249 242.347816 80.699359 242.031717 79.90375 242.031717 
C 79.108141 242.031717 78.34501 242.347816 77.78243 242.910397 
C 77.219849 243.472978 76.90375 244.236108 76.90375 245.031717 
C 76.90375 245.827327 77.219849 246.590457 77.78243 247.153038 
C 78.34501 247.715618 79.108141 248.031717 79.90375 248.031717 
z
" style="fill:#f26b38;stroke:#ffffff;stroke-width:0.48;"/>
    <path clip-path="url(#p30e3762ebf)" d="M 86.667386 222.281934 
C 87.462996 222.281934 88.226126 221.965835 88.788707 221.403254 
C 89.351287 220.840674 89.667386 220.077543 89.667386 219.281934 
C 89.667386 218.486325 89.351287 217.723194 88.788707 217.160614 
C 88.226126 216.598033 87.462996 216.281934 86.667386 216.281934 
C 85.871777 216.281934 85.108647 216.598033 84.546066 217.160614 
C 83.983485 217.723194 83.667386 218.486325 83.667386 219.281934 
C 83.667386 220.077543 83.983485 220.840674 84.546066 221.403254 
C 85.108647 221.965835 85.871777 222.281934 86.667386 222.281934 
z
" style="fill:#f26b38;stroke:#ffffff;stroke-width:0.48;"/>
    <path clip-path="url(#p30e3762ebf)" d="M 93.431023 193.410965 
C 94.226632 193.410965 94.989762 193.094866 95.552343 192.532285 
C 96.114924 191.969705 96.431023 191.206574 96.431023 190.410965 
C 96.431023 189.615356 96.114924 188.852225 95.552343 188.289645 
C 94.989762 187.727064 94.226632 187.410965 93.431023 187.410965 
C 92.635413 187.410965 91.872283 187.727064 91.309702 188.289645 
C 90.747122 188.852225 90.431023 189.615356 90.431023 190.410965 
C 90.431023 191.206574 90.747122 191.969705 91.309702 192.532285 
C 91.872283 193.094866 92.635413 193.410965 93.431023 193.410965 
z
" style="fill:#f26b38;stroke:#ffffff;stroke-width:0.48;"/>
    <path clip-path="url(#p30e3762ebf)" d="M 100.194659 179.330451 
C 100.990268 179.330451 101.753399 179.014353 102.315979 178.451772 
C 102.87856 177.889191 103.194659 177.126061 103.194659 176.330451 
C 103.194659 175.534842 102.87856 174.771712 102.315979 174.209131 
C 101.753399 173.64655 100.990268 173.330451 100.194659 173.330451 
C 99.39905 173.330451 98.635919 173.64655 98.073339 174.209131 
C 97.510758 174.771712 97.194659 175.534842 97.194659 176.330451 
C 97.194659 177.126061 97.510758 177.889191 98.073339 178.451772 
C 98.635919 179.014353 99.39905 179.330451 100.194659 179.330451 
z
" style="fill:#f26b38;stroke:#ffffff;stroke-width:0.48;"/>
    <path clip-path="url(#p30e3762ebf)" d="M 106.958295 179.330451 
C 107.753905 179.330451 108.517035 179.014353 109.079616 178.451772 
C 109.642197 177.889191 109.958295 177.126061 109.958295 176.330451 
C 109.958295 175.534842 109.642197 174.771712 109.079616 174.209131 
C 108.517035 173.64655 107.753905 173.330451 106.958295 173.330451 
C 106.162686 173.330451 105.399556 173.64655 104.836975 174.209131 
C 104.274394 174.771712 103.958295 175.534842 103.958295 176.330451 
C 103.958295 177.126061 104.274394 177.889191 104.836975 178.451772 
C 105.399556 179.014353 106.162686 179.330451 106.958295 179.330451 
z
" style="fill:#f26b38;stroke:#ffffff;stroke-width:0.48;"/>
    <path clip-path="url(#p30e3762ebf)" d="M 113.721932 165.664071 
C 114.517541 165.664071 115.280671 165.347972 115.843252 164.785391 
C 116.405833 164.22281 116.721932 163.45968 116.721932 162.664071 
C 116.721932 161.868461 116.405833 161.105331 115.843252 160.54275 
C 115.280671 159.98017 114.517541 159.664071 113.721932 159.664071 
C 112.926323 159.664071 112.163192 159.98017 111.600611 160.54275 
C 111.038031 161.105331 110.721932 161.868461 110.721932 162.664071 
C 110.721932 163.45968 111.038031 164.22281 111.600611 164.785391 
C 112.163192 165.347972 112.926323 165.664071 113.721932 165.664071 
z
" style="fill:#f26b38;stroke:#ffffff;stroke-width:0.48;"/>
    <path clip-path="url(#p30e3762ebf)" d="M 120.485568 165.664071 
C 121.281177 165.664071 122.044308 165.347972 122.606889 164.785391 
C 123.169469 164.22281 123.485568 163.45968 123.485568 162.664071 
C 123.485568 161.868461 123.169469 161.105331 122.606889 160.54275 
C 122.044308 159.98017 121.281177 159.664071 120.485568 159.664071 
C 119.689959 159.664071 118.926829 159.98017 118.364248 160.54275 
C 117.801667 161.105331 117.485568 161.868461 117.485568 162.664071 
C 117.485568 163.45968 117.801667 164.22281 118.364248 164.785391 
C 118.926829 165.347972 119.689959 165.664071 120.485568 165.664071 
z
" style="fill:#f26b38;stroke:#ffffff;stroke-width:0.48;"/>
    <path clip-path="url(#p30e3762ebf)" d="M 127.249205 214.598531 
C 128.044814 214.598531 128.807944 214.282432 129.370525 213.719851 
C 129.933106 213.157271 130.249205 212.39414 130.249205 211.598531 
C 130.249205 210.802922 129.933106 210.039791 129.370525 209.477211 
C 128.807944 208.91463 128.044814 208.598531 127.249205 208.598531 
C 126.453595 208.598531 125.690465 208.91463 125.127884 209.477211 
C 124.565303 210.039791 124.249205 210.802922 124.249205 211.598531 
C 124.249205 212.39414 124.565303 213.157271 125.127884 213.719851 
C 125.690465 214.282432 126.453595 214.598531 127.249205 214.598531 
z
" style="fill:#f26b38;stroke:#ffffff;stroke-width:0.48;"/>
    <path clip-path="url(#p30e3762ebf)" d="M 134.012841 212.357538 
C 134.80845 212.357538 135.571581 212.04144 136.134161 211.478859 
C 136.696742 210.916278 137.012841 210.153148 137.012841 209.357538 
C 137.012841 208.561929 136.696742 207.798799 136.134161 207.236218 
C 135.571581 206.673637 134.80845 206.357538 134.012841 206.357538 
C 133.217232 206.357538 132.454101 206.673637 131.891521 207.236218 
C 131.32894 207.798799 131.012841 208.561929 131.012841 209.357538 
C 131.012841 210.153148 131.32894 210.916278 131.891521 211.478859 
C 132.454101 212.04144 133.217232 212.357538 134.012841 212.357538 
z
" style="fill:#f26b38;stroke:#ffffff;stroke-width:0.48;"/>
    <path clip-path="url(#p30e3762ebf)" d="M 140.776477 230.63932 
C 141.572087 230.63932 142.335217 230.323221 142.897798 229.76064 
C 143.460378 229.198059 143.776477 228.434929 143.776477 227.63932 
C 143.776477 226.843711 143.460378 226.08058 142.897798 225.517999 
C 142.335217 224.955419 141.572087 224.63932 140.776477 224.63932 
C 139.980868 224.63932 139.217738 224.955419 138.655157 225.517999 
C 138.092576 226.08058 137.776477 226.843711 137.776477 227.63932 
C 137.776477 228.434929 138.092576 229.198059 138.655157 229.76064 
C 139.217738 230.323221 139.980868 230.63932 140.776477 230.63932 
z
" style="fill:#f26b38;stroke:#ffffff;stroke-width:0.48;"/>
    <path clip-path="url(#p30e3762ebf)" d="M 147.540114 249.764876 
C 148.335723 249.764876 149.098853 249.448777 149.661434 248.886196 
C 150.224015 248.323615 150.540114 247.560485 150.540114 246.764876 
C 150.540114 245.969266 150.224015 245.206136 149.661434 244.643555 
C 149.098853 244.080975 148.335723 243.764876 147.540114 243.764876 
C 146.744504 243.764876 145.981374 244.080975 145.418793 244.643555 
C 144.856213 245.206136 144.540114 245.969266 144.540114 246.764876 
C 144.540114 247.560485 144.856213 248.323615 145.418793 248.886196 
C 145.981374 249.448777 146.744504 249.764876 147.540114 249.764876 
z
" style="fill:#f26b38;stroke:#ffffff;stroke-width:0.48;"/>
    <path clip-path="url(#p30e3762ebf)" d="M 154.30375 212.357538 
C 155.099359 212.357538 155.86249 212.04144 156.42507 211.478859 
C 156.987651 210.916278 157.30375 210.153148 157.30375 209.357538 
C 157.30375 208.561929 156.987651 207.798799 156.42507 207.236218 
C 155.86249 206.673637 155.099359 206.357538 154.30375 206.357538 
C 153.508141 206.357538 152.74501 206.673637 152.18243 207.236218 
C 151.619849 207.798799 151.30375 208.561929 151.30375 209.357538 
C 151.30375 210.153148 151.619849 210.916278 152.18243 211.478859 
C 152.74501 212.04144 153.508141 212.357538 154.30375 212.357538 
z
" style="fill:#f26b38;stroke:#ffffff;stroke-width:0.48;"/>
    <path clip-path="url(#p30e3762ebf)" d="M 161.067386 163.859077 
C 161.862996 163.859077 162.626126 163.542978 163.188707 162.980397 
C 163.751287 162.417817 164.067386 161.654686 164.067386 160.859077 
C 164.067386 160.063468 163.751287 159.300337 163.188707 158.737757 
C 162.626126 158.175176 161.862996 157.859077 161.067386 157.859077 
C 160.271777 157.859077 159.508647 158.175176 158.946066 158.737757 
C 158.383485 159.300337 158.067386 160.063468 158.067386 160.859077 
C 158.067386 161.654686 158.383485 162.417817 158.946066 162.980397 
C 159.508647 163.542978 160.271777 163.859077 161.067386 163.859077 
z
" style="fill:#f26b38;stroke:#ffffff;stroke-width:0.48;"/>
    <path clip-path="url(#p30e3762ebf)" d="M 167.831023 163.859077 
C 168.626632 163.859077 169.389762 163.542978 169.952343 162.980397 
C 170.514924 162.417817 170.831023 161.654686 170.831023 160.859077 
C 170.831023 160.063468 170.514924 159.300337 169.952343 158.737757 
C 169.389762 158.175176 168.626632 157.859077 167.831023 157.859077 
C 167.035413 157.859077 166.272283 158.175176 165.709702 158.737757 
C 165.147122 159.300337 164.831023 160.063468 164.831023 160.859077 
C 164.831023 161.654686 165.147122 162.417817 165.709702 162.980397 
C 166.272283 163.542978 167.035413 163.859077 167.831023 163.859077 
z
" style="fill:#f26b38;stroke:#ffffff;stroke-width:0.48;"/>
    <path clip-path="url(#p30e3762ebf)" d="M 174.594659 163.859077 
C 175.390268 163.859077 176.153399 163.542978 176.715979 162.980397 
C 177.27856 162.417817 177.594659 161.654686 177.594659 160.859077 
C 177.594659 160.063468 177.27856 159.300337 176.715979 158.737757 
C 176.153399 158.175176 175.390268 157.859077 174.594659 157.859077 
C 173.79905 157.859077 173.035919 158.175176 172.473339 158.737757 
C 171.910758 159.300337 171.594659 160.063468 171.594659 160.859077 
C 171.594659 161.654686 171.910758 162.417817 172.473339 162.980397 
C 173.035919 163.542978 173.79905 163.859077 174.594659 163.859077 
z
" style="fill:#f26b38;stroke:#ffffff;stroke-width:0.48;"/>
    <path clip-path="url(#p30e3762ebf)" d="M 181.358295 153.57458 
C 182.153905 153.57458 182.917035 153.258481 183.479616 152.6959 
C 184.042197 152.133319 184.358295 151.370189 184.358295 150.57458 
C 184.358295 149.778971 184.042197 149.01584 183.479616 148.45326 
C 182.917035 147.890679 182.153905 147.57458 181.358295 147.57458 
C 180.562686 147.57458 179.799556 147.890679 179.236975 148.45326 
C 178.674394 149.01584 178.358295 149.778971 178.358295 150.57458 
C 178.358295 151.370189 178.674394 152.133319 179.236975 152.6959 
C 179.799556 153.258481 180.562686 153.57458 181.358295 153.57458 
z
" style="fill:#f26b38;stroke:#ffffff;stroke-width:0.48;"/>
    <path clip-path="url(#p30e3762ebf)" d="M 188.121932 131.771446 
C 188.917541 131.771446 189.680671 131.455347 190.243252 130.892766 
C 190.805833 130.330186 191.121932 129.567055 191.121932 128.771446 
C 191.121932 127.975837 190.805833 127.212707 190.243252 126.650126 
C 189.680671 126.087545 188.917541 125.771446 188.121932 125.771446 
C 187.326323 125.771446 186.563192 126.087545 186.000611 126.650126 
C 185.438031 127.212707 185.121932 127.975837 185.121932 128.771446 
C 185.121932 129.567055 185.438031 130.330186 186.000611 130.892766 
C 186.563192 131.455347 187.326323 131.771446 188.121932 131.771446 
z
" style="fill:#f26b38;stroke:#ffffff;stroke-width:0.48;"/>
    <path clip-path="url(#p30e3762ebf)" d="M 194.885568 131.771446 
C 195.681177 131.771446 196.444308 131.455347 197.006889 130.892766 
C 197.569469 130.330186 197.885568 129.567055 197.885568 128.771446 
C 197.885568 127.975837 197.569469 127.212707 197.006889 126.650126 
C 196.444308 126.087545 195.681177 125.771446 194.885568 125.771446 
C 194.089959 125.771446 193.326829 126.087545 192.764248 126.650126 
C 192.201667 127.212707 191.885568 127.975837 191.885568 128.771446 
C 191.885568 129.567055 192.201667 130.330186 192.764248 130.892766 
C 193.326829 131.455347 194.089959 131.771446 194.885568 131.771446 
z
" style="fill:#f26b38;stroke:#ffffff;stroke-width:0.48;"/>
    <path clip-path="url(#p30e3762ebf)" d="M 201.649205 131.771446 
C 202.444814 131.771446 203.207944 131.455347 203.770525 130.892766 
C 204.333106 130.330186 204.649205 129.567055 204.649205 128.771446 
C 204.649205 127.975837 204.333106 127.212707 203.770525 126.650126 
C 203.207944 126.087545 202.444814 125.771446 201.649205 125.771446 
C 200.853595 125.771446 200.090465 126.087545 199.527884 126.650126 
C 198.965303 127.212707 198.649205 127.975837 198.649205 128.771446 
C 198.649205 129.567055 198.965303 130.330186 199.527884 130.892766 
C 200.090465 131.455347 200.853595 131.771446 201.649205 131.771446 
z
" style="fill:#f26b38;stroke:#ffffff;stroke-width:0.48;"/>
    <path clip-path="url(#p30e3762ebf)" d="M 208.412841 131.771446 
C 209.20845 131.771446 209.971581 131.455347 210.534161 130.892766 
C 211.096742 130.330186 211.412841 129.567055 211.412841 128.771446 
C 211.412841 127.975837 211.096742 127.212707 210.534161 126.650126 
C 209.971581 126.087545 209.20845 125.771446 208.412841 125.771446 
C 207.617232 125.771446 206.854101 126.087545 206.291521 126.650126 
C 205.72894 127.212707 205.412841 127.975837 205.412841 128.771446 
C 205.412841 129.567055 205.72894 130.330186 206.291521 130.892766 
C 206.854101 131.455347 207.617232 131.771446 208.412841 131.771446 
z
" style="fill:#f26b38;stroke:#ffffff;stroke-width:0.48;"/>
    <path clip-path="url(#p30e3762ebf)" d="M 215.176477 131.771446 
C 215.972087 131.771446 216.735217 131.455347 217.297798 130.892766 
C 217.860378 130.330186 218.176477 129.567055 218.176477 128.771446 
C 218.176477 127.975837 217.860378 127.212707 217.297798 126.650126 
C 216.735217 126.087545 215.972087 125.771446 215.176477 125.771446 
C 214.380868 125.771446 213.617738 126.087545 213.055157 126.650126 
C 212.492576 127.212707 212.176477 127.975837 212.176477 128.771446 
C 212.176477 129.567055 212.492576 130.330186 213.055157 130.892766 
C 213.617738 131.455347 214.380868 131.771446 215.176477 131.771446 
z
" style="fill:#f26b38;stroke:#ffffff;stroke-width:0.48;"/>
    <path clip-path="url(#p30e3762ebf)" d="M 221.940114 131.771446 
C 222.735723 131.771446 223.498853 131.455347 224.061434 130.892766 
C 224.624015 130.330186 224.940114 129.567055 224.940114 128.771446 
C 224.940114 127.975837 224.624015 127.212707 224.061434 126.650126 
C 223.498853 126.087545 222.735723 125.771446 221.940114 125.771446 
C 221.144504 125.771446 220.381374 126.087545 219.818793 126.650126 
C 219.256213 127.212707 218.940114 127.975837 218.940114 128.771446 
C 218.940114 129.567055 219.256213 130.330186 219.818793 130.892766 
C 220.381374 131.455347 221.144504 131.771446 221.940114 131.771446 
z
" style="fill:#f26b38;stroke:#ffffff;stroke-width:0.48;"/>
    <path clip-path="url(#p30e3762ebf)" d="M 228.70375 125.519077 
C 229.499359 125.519077 230.26249 125.202978 230.82507 124.640397 
C 231.387651 124.077817 231.70375 123.314686 231.70375 122.519077 
C 231.70375 121.723468 231.387651 120.960337 230.82507 120.397757 
C 230.26249 119.835176 229.499359 119.519077 228.70375 119.519077 
C 227.908141 119.519077 227.14501 119.835176 226.58243 120.397757 
C 226.019849 120.960337 225.70375 121.723468 225.70375 122.519077 
C 225.70375 123.314686 226.019849 124.077817 226.58243 124.640397 
C 227.14501 125.202978 227.908141 125.519077 228.70375 125.519077 
z
" style="fill:#f26b38;stroke:#ffffff;stroke-width:0.48;"/>
    <path clip-path="url(#p30e3762ebf)" d="M 235.467386 42.375869 
C 236.262996 42.375869 237.026126 42.05977 237.588707 41.497189 
C 238.151287 40.934609 238.467386 40.171478 238.467386 39.375869 
C 238.467386 38.58026 238.151287 37.817129 237.588707 37.254549 
C 237.026126 36.691968 236.262996 36.375869 235.467386 36.375869 
C 234.671777 36.375869 233.908647 36.691968 233.346066 37.254549 
C 232.783485 37.817129 232.467386 38.58026 232.467386 39.375869 
C 232.467386 40.171478 232.783485 40.934609 233.346066 41.497189 
C 233.908647 42.05977 234.671777 42.375869 235.467386 42.375869 
z
" style="fill:#f26b38;stroke:#ffffff;stroke-width:0.48;"/>
    <path clip-path="url(#p30e3762ebf)" d="M 242.231023 42.375869 
C 243.026632 42.375869 243.789762 42.05977 244.352343 41.497189 
C 244.914924 40.934609 245.231023 40.171478 245.231023 39.375869 
C 245.231023 38.58026 244.914924 37.817129 244.352343 37.254549 
C 243.789762 36.691968 243.026632 36.375869 242.231023 36.375869 
C 241.435413 36.375869 240.672283 36.691968 240.109702 37.254549 
C 239.547122 37.817129 239.231023 38.58026 239.231023 39.375869 
C 239.231023 40.171478 239.547122 40.934609 240.109702 41.497189 
C 240.672283 42.05977 241.435413 42.375869 242.231023 42.375869 
z
" style="fill:#f26b38;stroke:#ffffff;stroke-width:0.48;"/>
    <path clip-path="url(#p30e3762ebf)" d="M 248.994659 42.375869 
C 249.790268 42.375869 250.553399 42.05977 251.115979 41.497189 
C 251.67856 40.934609 251.994659 40.171478 251.994659 39.375869 
C 251.994659 38.58026 251.67856 37.817129 251.115979 37.254549 
C 250.553399 36.691968 249.790268 36.375869 248.994659 36.375869 
C 248.19905 36.375869 247.435919 36.691968 246.873339 37.254549 
C 246.310758 37.817129 245.994659 38.58026 245.994659 39.375869 
C 245.994659 40.171478 246.310758 40.934609 246.873339 41.497189 
C 247.435919 42.05977 248.19905 42.375869 248.994659 42.375869 
z
" style="fill:#f26b38;stroke:#ffffff;stroke-width:0.48;"/>
    <path clip-path="url(#p30e3762ebf)" d="M 255.758295 42.375869 
C 256.553905 42.375869 257.317035 42.05977 257.879616 41.497189 
C 258.442197 40.934609 258.758295 40.171478 258.758295 39.375869 
C 258.758295 38.58026 258.442197 37.817129 257.879616 37.254549 
C 257.317035 36.691968 256.553905 36.375869 255.758295 36.375869 
C 254.962686 36.375869 254.199556 36.691968 253.636975 37.254549 
C 253.074394 37.817129 252.758295 38.58026 252.758295 39.375869 
C 252.758295 40.171478 253.074394 40.934609 253.636975 41.497189 
C 254.199556 42.05977 254.962686 42.375869 255.758295 42.375869 
z
" style="fill:#f26b38;stroke:#ffffff;stroke-width:0.48;"/>
    <path clip-path="url(#p30e3762ebf)" d="M 262.521932 42.375869 
C 263.317541 42.375869 264.080671 42.05977 264.643252 41.497189 
C 265.205833 40.934609 265.521932 40.171478 265.521932 39.375869 
C 265.521932 38.58026 265.205833 37.817129 264.643252 37.254549 
C 264.080671 36.691968 263.317541 36.375869 262.521932 36.375869 
C 261.726323 36.375869 260.963192 36.691968 260.400611 37.254549 
C 259.838031 37.817129 259.521932 38.58026 259.521932 39.375869 
C 259.521932 40.171478 259.838031 40.934609 260.400611 41.497189 
C 260.963192 42.05977 261.726323 42.375869 262.521932 42.375869 
z
" style="fill:#f26b38;stroke:#ffffff;stroke-width:0.48;"/>
    <path clip-path="url(#p30e3762ebf)" d="M 269.285568 42.375869 
C 270.081177 42.375869 270.844308 42.05977 271.406889 41.497189 
C 271.969469 40.934609 272.285568 40.171478 272.285568 39.375869 
C 272.285568 38.58026 271.969469 37.817129 271.406889 37.254549 
C 270.844308 36.691968 270.081177 36.375869 269.285568 36.375869 
C 268.489959 36.375869 267.726829 36.691968 267.164248 37.254549 
C 266.601667 37.817129 266.285568 38.58026 266.285568 39.375869 
C 266.285568 40.171478 266.601667 40.934609 267.164248 41.497189 
C 267.726829 42.05977 268.489959 42.375869 269.285568 42.375869 
z
" style="fill:#f26b38;stroke:#ffffff;stroke-width:0.48;"/>
    <path clip-path="url(#p30e3762ebf)" d="M 276.049205 42.375869 
C 276.844814 42.375869 277.607944 42.05977 278.170525 41.497189 
C 278.733106 40.934609 279.049205 40.171478 279.049205 39.375869 
C 279.049205 38.58026 278.733106 37.817129 278.170525 37.254549 
C 277.607944 36.691968 276.844814 36.375869 276.049205 36.375869 
C 275.253595 36.375869 274.490465 36.691968 273.927884 37.254549 
C 273.365303 37.817129 273.049205 38.58026 273.049205 39.375869 
C 273.049205 40.171478 273.365303 40.934609 273.927884 41.497189 
C 274.490465 42.05977 275.253595 42.375869 276.049205 42.375869 
z
" style="fill:#f26b38;stroke:#ffffff;stroke-width:0.48;"/>
    <path clip-path="url(#p30e3762ebf)" d="M 282.812841 42.375869 
C 283.60845 42.375869 284.371581 42.05977 284.934161 41.497189 
C 285.496742 40.934609 285.812841 40.171478 285.812841 39.375869 
C 285.812841 38.58026 285.496742 37.817129 284.934161 37.254549 
C 284.371581 36.691968 283.60845 36.375869 282.812841 36.375869 
C 282.017232 36.375869 281.254101 36.691968 280.691521 37.254549 
C 280.12894 37.817129 279.812841 38.58026 279.812841 39.375869 
C 279.812841 40.171478 280.12894 40.934609 280.691521 41.497189 
C 281.254101 42.05977 282.017232 42.375869 282.812841 42.375869 
z
" style="fill:#f26b38;stroke:#ffffff;stroke-width:0.48;"/>
    <path clip-path="url(#p30e3762ebf)" d="M 289.576477 42.375869 
C 290.372087 42.375869 291.135217 42.05977 291.697798 41.497189 
C 292.260378 40.934609 292.576477 40.171478 292.576477 39.375869 
C 292.576477 38.58026 292.260378 37.817129 291.697798 37.254549 
C 291.135217 36.691968 290.372087 36.375869 289.576477 36.375869 
C 288.780868 36.375869 288.017738 36.691968 287.455157 37.254549 
C 286.892576 37.817129 286.576477 38.58026 286.576477 39.375869 
C 286.576477 40.171478 286.892576 40.934609 287.455157 41.497189 
C 288.017738 42.05977 288.780868 42.375869 289.576477 42.375869 
z
" style="fill:#f26b38;stroke:#ffffff;stroke-width:0.48;"/>
    <path clip-path="url(#p30e3762ebf)" d="M 296.340114 42.375869 
C 297.135723 42.375869 297.898853 42.05977 298.461434 41.497189 
C 299.024015 40.934609 299.340114 40.171478 299.340114 39.375869 
C 299.340114 38.58026 299.024015 37.817129 298.461434 37.254549 
C 297.898853 36.691968 297.135723 36.375869 296.340114 36.375869 
C 295.544504 36.375869 294.781374 36.691968 294.218793 37.254549 
C 293.656213 37.817129 293.340114 38.58026 293.340114 39.375869 
C 293.340114 40.171478 293.656213 40.934609 294.218793 41.497189 
C 294.781374 42.05977 295.544504 42.375869 296.340114 42.375869 
z
" style="fill:#f26b38;stroke:#ffffff;stroke-width:0.48;"/>
    <path clip-path="url(#p30e3762ebf)" d="M 303.10375 42.375869 
C 303.899359 42.375869 304.66249 42.05977 305.22507 41.497189 
C 305.787651 40.934609 306.10375 40.171478 306.10375 39.375869 
C 306.10375 38.58026 305.787651 37.817129 305.22507 37.254549 
C 304.66249 36.691968 303.899359 36.375869 303.10375 36.375869 
C 302.308141 36.375869 301.54501 36.691968 300.98243 37.254549 
C 300.419849 37.817129 300.10375 38.58026 300.10375 39.375869 
C 300.10375 40.171478 300.419849 40.934609 300.98243 41.497189 
C 301.54501 42.05977 302.308141 42.375869 303.10375 42.375869 
z
" style="fill:#f26b38;stroke:#ffffff;stroke-width:0.48;"/>
    <path clip-path="url(#p30e3762ebf)" d="M 309.867386 42.375869 
C 310.662996 42.375869 311.426126 42.05977 311.988707 41.497189 
C 312.551287 40.934609 312.867386 40.171478 312.867386 39.375869 
C 312.867386 38.58026 312.551287 37.817129 311.988707 37.254549 
C 311.426126 36.691968 310.662996 36.375869 309.867386 36.375869 
C 309.071777 36.375869 308.308647 36.691968 307.746066 37.254549 
C 307.183485 37.817129 306.867386 38.58026 306.867386 39.375869 
C 306.867386 40.171478 307.183485 40.934609 307.746066 41.497189 
C 308.308647 42.05977 309.071777 42.375869 309.867386 42.375869 
z
" style="fill:#f26b38;stroke:#ffffff;stroke-width:0.48;"/>
    <path clip-path="url(#p30e3762ebf)" d="M 316.631023 42.375869 
C 317.426632 42.375869 318.189762 42.05977 318.752343 41.497189 
C 319.314924 40.934609 319.631023 40.171478 319.631023 39.375869 
C 319.631023 38.58026 319.314924 37.817129 318.752343 37.254549 
C 318.189762 36.691968 317.426632 36.375869 316.631023 36.375869 
C 315.835413 36.375869 315.072283 36.691968 314.509702 37.254549 
C 313.947122 37.817129 313.631023 38.58026 313.631023 39.375869 
C 313.631023 40.171478 313.947122 40.934609 314.509702 41.497189 
C 315.072283 42.05977 315.835413 42.375869 316.631023 42.375869 
z
" style="fill:#f26b38;stroke:#ffffff;stroke-width:0.48;"/>
    <path clip-path="url(#p30e3762ebf)" d="M 323.394659 42.375869 
C 324.190268 42.375869 324.953399 42.05977 325.515979 41.497189 
C 326.07856 40.934609 326.394659 40.171478 326.394659 39.375869 
C 326.394659 38.58026 326.07856 37.817129 325.515979 37.254549 
C 324.953399 36.691968 324.190268 36.375869 323.394659 36.375869 
C 322.59905 36.375869 321.835919 36.691968 321.273339 37.254549 
C 320.710758 37.817129 320.394659 38.58026 320.394659 39.375869 
C 320.394659 40.171478 320.710758 40.934609 321.273339 41.497189 
C 321.835919 42.05977 322.59905 42.375869 323.394659 42.375869 
z
" style="fill:#f26b38;stroke:#ffffff;stroke-width:0.48;"/>
    <path clip-path="url(#p30e3762ebf)" d="M 330.158295 42.375869 
C 330.953905 42.375869 331.717035 42.05977 332.279616 41.497189 
C 332.842197 40.934609 333.158295 40.171478 333.158295 39.375869 
C 333.158295 38.58026 332.842197 37.817129 332.279616 37.254549 
C 331.717035 36.691968 330.953905 36.375869 330.158295 36.375869 
C 329.362686 36.375869 328.599556 36.691968 328.036975 37.254549 
C 327.474394 37.817129 327.158295 38.58026 327.158295 39.375869 
C 327.158295 40.171478 327.474394 40.934609 328.036975 41.497189 
C 328.599556 42.05977 329.362686 42.375869 330.158295 42.375869 
z
" style="fill:#f26b38;stroke:#ffffff;stroke-width:0.48;"/>
    <path clip-path="url(#p30e3762ebf)" d="M 336.921932 42.375869 
C 337.717541 42.375869 338.480671 42.05977 339.043252 41.497189 
C 339.605833 40.934609 339.921932 40.171478 339.921932 39.375869 
C 339.921932 38.58026 339.605833 37.817129 339.043252 37.254549 
C 338.480671 36.691968 337.717541 36.375869 336.921932 36.375869 
C 336.126323 36.375869 335.363192 36.691968 334.800611 37.254549 
C 334.238031 37.817129 333.921932 38.58026 333.921932 39.375869 
C 333.921932 40.171478 334.238031 40.934609 334.800611 41.497189 
C 335.363192 42.05977 336.126323 42.375869 336.921932 42.375869 
z
" style="fill:#f26b38;stroke:#ffffff;stroke-width:0.48;"/>
    <path clip-path="url(#p30e3762ebf)" d="M 343.685568 42.375869 
C 344.481177 42.375869 345.244308 42.05977 345.806889 41.497189 
C 346.369469 40.934609 346.685568 40.171478 346.685568 39.375869 
C 346.685568 38.58026 346.369469 37.817129 345.806889 37.254549 
C 345.244308 36.691968 344.481177 36.375869 343.685568 36.375869 
C 342.889959 36.375869 342.126829 36.691968 341.564248 37.254549 
C 341.001667 37.817129 340.685568 38.58026 340.685568 39.375869 
C 340.685568 40.171478 341.001667 40.934609 341.564248 41.497189 
C 342.126829 42.05977 342.889959 42.375869 343.685568 42.375869 
z
" style="fill:#f26b38;stroke:#ffffff;stroke-width:0.48;"/>
    <path clip-path="url(#p30e3762ebf)" d="M 350.449205 42.375869 
C 351.244814 42.375869 352.007944 42.05977 352.570525 41.497189 
C 353.133106 40.934609 353.449205 40.171478 353.449205 39.375869 
C 353.449205 38.58026 353.133106 37.817129 352.570525 37.254549 
C 352.007944 36.691968 351.244814 36.375869 350.449205 36.375869 
C 349.653595 36.375869 348.890465 36.691968 348.327884 37.254549 
C 347.765303 37.817129 347.449205 38.58026 347.449205 39.375869 
C 347.449205 40.171478 347.765303 40.934609 348.327884 41.497189 
C 348.890465 42.05977 349.653595 42.375869 350.449205 42.375869 
z
" style="fill:#f26b38;stroke:#ffffff;stroke-width:0.48;"/>
    <path clip-path="url(#p30e3762ebf)" d="M 357.212841 42.375869 
C 358.00845 42.375869 358.771581 42.05977 359.334161 41.497189 
C 359.896742 40.934609 360.212841 40.171478 360.212841 39.375869 
C 360.212841 38.58026 359.896742 37.817129 359.334161 37.254549 
C 358.771581 36.691968 358.00845 36.375869 357.212841 36.375869 
C 356.417232 36.375869 355.654101 36.691968 355.091521 37.254549 
C 354.52894 37.817129 354.212841 38.58026 354.212841 39.375869 
C 354.212841 40.171478 354.52894 40.934609 355.091521 41.497189 
C 355.654101 42.05977 356.417232 42.375869 357.212841 42.375869 
z
" style="fill:#f26b38;stroke:#ffffff;stroke-width:0.48;"/>
    <path clip-path="url(#p30e3762ebf)" d="M 363.976477 42.375869 
C 364.772087 42.375869 365.535217 42.05977 366.097798 41.497189 
C 366.660378 40.934609 366.976477 40.171478 366.976477 39.375869 
C 366.976477 38.58026 366.660378 37.817129 366.097798 37.254549 
C 365.535217 36.691968 364.772087 36.375869 363.976477 36.375869 
C 363.180868 36.375869 362.417738 36.691968 361.855157 37.254549 
C 361.292576 37.817129 360.976477 38.58026 360.976477 39.375869 
C 360.976477 40.171478 361.292576 40.934609 361.855157 41.497189 
C 362.417738 42.05977 363.180868 42.375869 363.976477 42.375869 
z
" style="fill:#f26b38;stroke:#ffffff;stroke-width:0.48;"/>
    <path clip-path="url(#p30e3762ebf)" d="M 370.740114 42.375869 
C 371.535723 42.375869 372.298853 42.05977 372.861434 41.497189 
C 373.424015 40.934609 373.740114 40.171478 373.740114 39.375869 
C 373.740114 38.58026 373.424015 37.817129 372.861434 37.254549 
C 372.298853 36.691968 371.535723 36.375869 370.740114 36.375869 
C 369.944504 36.375869 369.181374 36.691968 368.618793 37.254549 
C 368.056213 37.817129 367.740114 38.58026 367.740114 39.375869 
C 367.740114 40.171478 368.056213 40.934609 368.618793 41.497189 
C 369.181374 42.05977 369.944504 42.375869 370.740114 42.375869 
z
" style="fill:#f26b38;stroke:#ffffff;stroke-width:0.48;"/>
    <path clip-path="url(#p30e3762ebf)" d="M 377.50375 42.375869 
C 378.299359 42.375869 379.06249 42.05977 379.62507 41.497189 
C 380.187651 40.934609 380.50375 40.171478 380.50375 39.375869 
C 380.50375 38.58026 380.187651 37.817129 379.62507 37.254549 
C 379.06249 36.691968 378.299359 36.375869 377.50375 36.375869 
C 376.708141 36.375869 375.94501 36.691968 375.38243 37.254549 
C 374.819849 37.817129 374.50375 38.58026 374.50375 39.375869 
C 374.50375 40.171478 374.819849 40.934609 375.38243 41.497189 
C 375.94501 42.05977 376.708141 42.375869 377.50375 42.375869 
z
" style="fill:#f26b38;stroke:#ffffff;stroke-width:0.48;"/>
    <path clip-path="url(#p30e3762ebf)" d="M 384.267386 42.375869 
C 385.062996 42.375869 385.826126 42.05977 386.388707 41.497189 
C 386.951287 40.934609 387.267386 40.171478 387.267386 39.375869 
C 387.267386 38.58026 386.951287 37.817129 386.388707 37.254549 
C 385.826126 36.691968 385.062996 36.375869 384.267386 36.375869 
C 383.471777 36.375869 382.708647 36.691968 382.146066 37.254549 
C 381.583485 37.817129 381.267386 38.58026 381.267386 39.375869 
C 381.267386 40.171478 381.583485 40.934609 382.146066 41.497189 
C 382.708647 42.05977 383.471777 42.375869 384.267386 42.375869 
z
" style="fill:#f26b38;stroke:#ffffff;stroke-width:0.48;"/>
    <path clip-path="url(#p30e3762ebf)" d="M 391.031023 42.375869 
C 391.826632 42.375869 392.589762 42.05977 393.152343 41.497189 
C 393.714924 40.934609 394.031023 40.171478 394.031023 39.375869 
C 394.031023 38.58026 393.714924 37.817129 393.152343 37.254549 
C 392.589762 36.691968 391.826632 36.375869 391.031023 36.375869 
C 390.235413 36.375869 389.472283 36.691968 388.909702 37.254549 
C 388.347122 37.817129 388.031023 38.58026 388.031023 39.375869 
C 388.031023 40.171478 388.347122 40.934609 388.909702 41.497189 
C 389.472283 42.05977 390.235413 42.375869 391.031023 42.375869 
z
" style="fill:#f26b38;stroke:#ffffff;stroke-width:0.48;"/>
    <path clip-path="url(#p30e3762ebf)" d="M 64.876477 233.73316 
L 66.376477 232.23316 
L 67.876477 233.73316 
L 69.376477 232.23316 
L 67.876477 230.73316 
L 69.376477 229.23316 
L 67.876477 227.73316 
L 66.376477 229.23316 
L 64.876477 227.73316 
L 63.376477 229.23316 
L 64.876477 230.73316 
L 63.376477 232.23316 
z
" style="fill:#2f9599;stroke:#ffffff;stroke-width:0.48;"/>
    <path clip-path="url(#p30e3762ebf)" d="M 71.640114 204.638564 
L 73.140114 203.138564 
L 74.640114 204.638564 
L 76.140114 203.138564 
L 74.640114 201.638564 
L 76.140114 200.138564 
L 74.640114 198.638564 
L 73.140114 200.138564 
L 71.640114 198.638564 
L 70.140114 200.138564 
L 71.640114 201.638564 
L 70.140114 203.138564 
z
" style="fill:#2f9599;stroke:#ffffff;stroke-width:0.48;"/>
    <path clip-path="url(#p30e3762ebf)" d="M 78.40375 238.70852 
L 79.90375 237.20852 
L 81.40375 238.70852 
L 82.90375 237.20852 
L 81.40375 235.70852 
L 82.90375 234.20852 
L 81.40375 232.70852 
L 79.90375 234.20852 
L 78.40375 232.70852 
L 76.90375 234.20852 
L 78.40375 235.70852 
L 76.90375 237.20852 
z
" style="fill:#2f9599;stroke:#ffffff;stroke-width:0.48;"/>
    <path clip-path="url(#p30e3762ebf)" d="M 85.167386 238.70852 
L 86.667386 237.20852 
L 88.167386 238.70852 
L 89.667386 237.20852 
L 88.167386 235.70852 
L 89.667386 234.20852 
L 88.167386 232.70852 
L 86.667386 234.20852 
L 85.167386 232.70852 
L 83.667386 234.20852 
L 85.167386 235.70852 
L 83.667386 237.20852 
z
" style="fill:#2f9599;stroke:#ffffff;stroke-width:0.48;"/>
    <path clip-path="url(#p30e3762ebf)" d="M 91.931023 212.357538 
L 93.431023 210.857538 
L 94.931023 212.357538 
L 96.431023 210.857538 
L 94.931023 209.357538 
L 96.431023 207.857538 
L 94.931023 206.357538 
L 93.431023 207.857538 
L 91.931023 206.357538 
L 90.431023 207.857538 
L 91.931023 209.357538 
L 90.431023 210.857538 
z
" style="fill:#2f9599;stroke:#ffffff;stroke-width:0.48;"/>
    <path clip-path="url(#p30e3762ebf)" d="M 98.694659 202.010828 
L 100.194659 200.510828 
L 101.694659 202.010828 
L 103.194659 200.510828 
L 101.694659 199.010828 
L 103.194659 197.510828 
L 101.694659 196.010828 
L 100.194659 197.510828 
L 98.694659 196.010828 
L 97.194659 197.510828 
L 98.694659 199.010828 
L 97.194659 200.510828 
z
" style="fill:#2f9599;stroke:#ffffff;stroke-width:0.48;"/>
    <path clip-path="url(#p30e3762ebf)" d="M 105.458295 202.010828 
L 106.958295 200.510828 
L 108.458295 202.010828 
L 109.958295 200.510828 
L 108.458295 199.010828 
L 109.958295 197.510828 
L 108.458295 196.010828 
L 106.958295 197.510828 
L 105.458295 196.010828 
L 103.958295 197.510828 
L 105.458295 199.010828 
L 103.958295 200.510828 
z
" style="fill:#2f9599;stroke:#ffffff;stroke-width:0.48;"/>
    <path clip-path="url(#p30e3762ebf)" d="M 112.221932 202.010828 
L 113.721932 200.510828 
L 115.221932 202.010828 
L 116.721932 200.510828 
L 115.221932 199.010828 
L 116.721932 197.510828 
L 115.221932 196.010828 
L 113.721932 197.510828 
L 112.221932 196.010828 
L 110.721932 197.510828 
L 112.221932 199.010828 
L 110.721932 200.510828 
z
" style="fill:#2f9599;stroke:#ffffff;stroke-width:0.48;"/>
    <path clip-path="url(#p30e3762ebf)" d="M 118.985568 191.214261 
L 120.485568 189.714261 
L 121.985568 191.214261 
L 123.485568 189.714261 
L 121.985568 188.214261 
L 123.485568 186.714261 
L 121.985568 185.214261 
L 120.485568 186.714261 
L 118.985568 185.214261 
L 117.485568 186.714261 
L 118.985568 188.214261 
L 117.485568 189.714261 
z
" style="fill:#2f9599;stroke:#ffffff;stroke-width:0.48;"/>
    <path clip-path="url(#p30e3762ebf)" d="M 125.749205 168.148867 
L 127.249205 166.648867 
L 128.749205 168.148867 
L 130.249205 166.648867 
L 128.749205 165.148867 
L 130.249205 163.648867 
L 128.749205 162.148867 
L 127.249205 163.648867 
L 125.749205 162.148867 
L 124.249205 163.648867 
L 125.749205 165.148867 
L 124.249205 166.648867 
z
" style="fill:#2f9599;stroke:#ffffff;stroke-width:0.48;"/>
    <path clip-path="url(#p30e3762ebf)" d="M 132.512841 168.148867 
L 134.012841 166.648867 
L 135.512841 168.148867 
L 137.012841 166.648867 
L 135.512841 165.148867 
L 137.012841 163.648867 
L 135.512841 162.148867 
L 134.012841 163.648867 
L 132.512841 162.148867 
L 131.012841 163.648867 
L 132.512841 165.148867 
L 131.012841 166.648867 
z
" style="fill:#2f9599;stroke:#ffffff;stroke-width:0.48;"/>
    <path clip-path="url(#p30e3762ebf)" d="M 139.276477 168.148867 
L 140.776477 166.648867 
L 142.276477 168.148867 
L 143.776477 166.648867 
L 142.276477 165.148867 
L 143.776477 163.648867 
L 142.276477 162.148867 
L 140.776477 163.648867 
L 139.276477 162.148867 
L 137.776477 163.648867 
L 139.276477 165.148867 
L 137.776477 166.648867 
z
" style="fill:#2f9599;stroke:#ffffff;stroke-width:0.48;"/>
    <path clip-path="url(#p30e3762ebf)" d="M 146.040114 168.148867 
L 147.540114 166.648867 
L 149.040114 168.148867 
L 150.540114 166.648867 
L 149.040114 165.148867 
L 150.540114 163.648867 
L 149.040114 162.148867 
L 147.540114 163.648867 
L 146.040114 162.148867 
L 144.540114 163.648867 
L 146.040114 165.148867 
L 144.540114 166.648867 
z
" style="fill:#2f9599;stroke:#ffffff;stroke-width:0.48;"/>
    <path clip-path="url(#p30e3762ebf)" d="M 152.80375 168.148867 
L 154.30375 166.648867 
L 155.80375 168.148867 
L 157.30375 166.648867 
L 155.80375 165.148867 
L 157.30375 163.648867 
L 155.80375 162.148867 
L 154.30375 163.648867 
L 152.80375 162.148867 
L 151.30375 163.648867 
L 152.80375 165.148867 
L 151.30375 166.648867 
z
" style="fill:#2f9599;stroke:#ffffff;stroke-width:0.48;"/>
    <path clip-path="url(#p30e3762ebf)" d="M 159.567386 168.148867 
L 161.067386 166.648867 
L 162.567386 168.148867 
L 164.067386 166.648867 
L 162.567386 165.148867 
L 164.067386 163.648867 
L 162.567386 162.148867 
L 161.067386 163.648867 
L 159.567386 162.148867 
L 158.067386 163.648867 
L 159.567386 165.148867 
L 158.067386 166.648867 
z
" style="fill:#2f9599;stroke:#ffffff;stroke-width:0.48;"/>
    <path clip-path="url(#p30e3762ebf)" d="M 166.331023 168.148867 
L 167.831023 166.648867 
L 169.331023 168.148867 
L 170.831023 166.648867 
L 169.331023 165.148867 
L 170.831023 163.648867 
L 169.331023 162.148867 
L 167.831023 163.648867 
L 166.331023 162.148867 
L 164.831023 163.648867 
L 166.331023 165.148867 
L 164.831023 166.648867 
z
" style="fill:#2f9599;stroke:#ffffff;stroke-width:0.48;"/>
    <path clip-path="url(#p30e3762ebf)" d="M 173.094659 68.332773 
L 174.594659 66.832773 
L 176.094659 68.332773 
L 177.594659 66.832773 
L 176.094659 65.332773 
L 177.594659 63.832773 
L 176.094659 62.332773 
L 174.594659 63.832773 
L 173.094659 62.332773 
L 171.594659 63.832773 
L 173.094659 65.332773 
L 171.594659 66.832773 
z
" style="fill:#2f9599;stroke:#ffffff;stroke-width:0.48;"/>
    <path clip-path="url(#p30e3762ebf)" d="M 179.858295 68.332773 
L 181.358295 66.832773 
L 182.858295 68.332773 
L 184.358295 66.832773 
L 182.858295 65.332773 
L 184.358295 63.832773 
L 182.858295 62.332773 
L 181.358295 63.832773 
L 179.858295 62.332773 
L 178.358295 63.832773 
L 179.858295 65.332773 
L 178.358295 66.832773 
z
" style="fill:#2f9599;stroke:#ffffff;stroke-width:0.48;"/>
    <path clip-path="url(#p30e3762ebf)" d="M 186.621932 68.332773 
L 188.121932 66.832773 
L 189.621932 68.332773 
L 191.121932 66.832773 
L 189.621932 65.332773 
L 191.121932 63.832773 
L 189.621932 62.332773 
L 188.121932 63.832773 
L 186.621932 62.332773 
L 185.121932 63.832773 
L 186.621932 65.332773 
L 185.121932 66.832773 
z
" style="fill:#2f9599;stroke:#ffffff;stroke-width:0.48;"/>
    <path clip-path="url(#p30e3762ebf)" d="M 193.385568 68.332773 
L 194.885568 66.832773 
L 196.385568 68.332773 
L 197.885568 66.832773 
L 196.385568 65.332773 
L 197.885568 63.832773 
L 196.385568 62.332773 
L 194.885568 63.832773 
L 193.385568 62.332773 
L 191.885568 63.832773 
L 193.385568 65.332773 
L 191.885568 66.832773 
z
" style="fill:#2f9599;stroke:#ffffff;stroke-width:0.48;"/>
    <path clip-path="url(#p30e3762ebf)" d="M 200.149205 68.332773 
L 201.649205 66.832773 
L 203.149205 68.332773 
L 204.649205 66.832773 
L 203.149205 65.332773 
L 204.649205 63.832773 
L 203.149205 62.332773 
L 201.649205 63.832773 
L 200.149205 62.332773 
L 198.649205 63.832773 
L 200.149205 65.332773 
L 198.649205 66.832773 
z
" style="fill:#2f9599;stroke:#ffffff;stroke-width:0.48;"/>
    <path clip-path="url(#p30e3762ebf)" d="M 206.912841 68.332773 
L 208.412841 66.832773 
L 209.912841 68.332773 
L 211.412841 66.832773 
L 209.912841 65.332773 
L 211.412841 63.832773 
L 209.912841 62.332773 
L 208.412841 63.832773 
L 206.912841 62.332773 
L 205.412841 63.832773 
L 206.912841 65.332773 
L 205.412841 66.832773 
z
" style="fill:#2f9599;stroke:#ffffff;stroke-width:0.48;"/>
    <path clip-path="url(#p30e3762ebf)" d="M 213.676477 68.332773 
L 215.176477 66.832773 
L 216.676477 68.332773 
L 218.176477 66.832773 
L 216.676477 65.332773 
L 218.176477 63.832773 
L 216.676477 62.332773 
L 215.176477 63.832773 
L 213.676477 62.332773 
L 212.176477 63.832773 
L 213.676477 65.332773 
L 212.176477 66.832773 
z
" style="fill:#2f9599;stroke:#ffffff;stroke-width:0.48;"/>
    <path clip-path="url(#p30e3762ebf)" d="M 220.440114 68.332773 
L 221.940114 66.832773 
L 223.440114 68.332773 
L 224.940114 66.832773 
L 223.440114 65.332773 
L 224.940114 63.832773 
L 223.440114 62.332773 
L 221.940114 63.832773 
L 220.440114 62.332773 
L 218.940114 63.832773 
L 220.440114 65.332773 
L 218.940114 66.832773 
z
" style="fill:#2f9599;stroke:#ffffff;stroke-width:0.48;"/>
    <path clip-path="url(#p30e3762ebf)" d="M 227.20375 68.332773 
L 228.70375 66.832773 
L 230.20375 68.332773 
L 231.70375 66.832773 
L 230.20375 65.332773 
L 231.70375 63.832773 
L 230.20375 62.332773 
L 228.70375 63.832773 
L 227.20375 62.332773 
L 225.70375 63.832773 
L 227.20375 65.332773 
L 225.70375 66.832773 
z
" style="fill:#2f9599;stroke:#ffffff;stroke-width:0.48;"/>
    <path clip-path="url(#p30e3762ebf)" d="M 233.967386 68.332773 
L 235.467386 66.832773 
L 236.967386 68.332773 
L 238.467386 66.832773 
L 236.967386 65.332773 
L 238.467386 63.832773 
L 236.967386 62.332773 
L 235.467386 63.832773 
L 233.967386 62.332773 
L 232.467386 63.832773 
L 233.967386 65.332773 
L 232.467386 66.832773 
z
" style="fill:#2f9599;stroke:#ffffff;stroke-width:0.48;"/>
    <path clip-path="url(#p30e3762ebf)" d="M 240.731023 68.332773 
L 242.231023 66.832773 
L 243.731023 68.332773 
L 245.231023 66.832773 
L 243.731023 65.332773 
L 245.231023 63.832773 
L 243.731023 62.332773 
L 242.231023 63.832773 
L 240.731023 62.332773 
L 239.231023 63.832773 
L 240.731023 65.332773 
L 239.231023 66.832773 
z
" style="fill:#2f9599;stroke:#ffffff;stroke-width:0.48;"/>
    <path clip-path="url(#p30e3762ebf)" d="M 247.494659 68.332773 
L 248.994659 66.832773 
L 250.494659 68.332773 
L 251.994659 66.832773 
L 250.494659 65.332773 
L 251.994659 63.832773 
L 250.494659 62.332773 
L 248.994659 63.832773 
L 247.494659 62.332773 
L 245.994659 63.832773 
L 247.494659 65.332773 
L 245.994659 66.832773 
z
" style="fill:#2f9599;stroke:#ffffff;stroke-width:0.48;"/>
    <path clip-path="url(#p30e3762ebf)" d="M 254.258295 68.332773 
L 255.758295 66.832773 
L 257.258295 68.332773 
L 258.758295 66.832773 
L 257.258295 65.332773 
L 258.758295 63.832773 
L 257.258295 62.332773 
L 255.758295 63.832773 
L 254.258295 62.332773 
L 252.758295 63.832773 
L 254.258295 65.332773 
L 252.758295 66.832773 
z
" style="fill:#2f9599;stroke:#ffffff;stroke-width:0.48;"/>
    <path clip-path="url(#p30e3762ebf)" d="M 261.021932 68.332773 
L 262.521932 66.832773 
L 264.021932 68.332773 
L 265.521932 66.832773 
L 264.021932 65.332773 
L 265.521932 63.832773 
L 264.021932 62.332773 
L 262.521932 63.832773 
L 261.021932 62.332773 
L 259.521932 63.832773 
L 261.021932 65.332773 
L 259.521932 66.832773 
z
" style="fill:#2f9599;stroke:#ffffff;stroke-width:0.48;"/>
    <path clip-path="url(#p30e3762ebf)" d="M 267.785568 68.332773 
L 269.285568 66.832773 
L 270.785568 68.332773 
L 272.285568 66.832773 
L 270.785568 65.332773 
L 272.285568 63.832773 
L 270.785568 62.332773 
L 269.285568 63.832773 
L 267.785568 62.332773 
L 266.285568 63.832773 
L 267.785568 65.332773 
L 266.285568 66.832773 
z
" style="fill:#2f9599;stroke:#ffffff;stroke-width:0.48;"/>
    <path clip-path="url(#p30e3762ebf)" d="M 274.549205 68.332773 
L 276.049205 66.832773 
L 277.549205 68.332773 
L 279.049205 66.832773 
L 277.549205 65.332773 
L 279.049205 63.832773 
L 277.549205 62.332773 
L 276.049205 63.832773 
L 274.549205 62.332773 
L 273.049205 63.832773 
L 274.549205 65.332773 
L 273.049205 66.832773 
z
" style="fill:#2f9599;stroke:#ffffff;stroke-width:0.48;"/>
    <path clip-path="url(#p30e3762ebf)" d="M 281.312841 68.332773 
L 282.812841 66.832773 
L 284.312841 68.332773 
L 285.812841 66.832773 
L 284.312841 65.332773 
L 285.812841 63.832773 
L 284.312841 62.332773 
L 282.812841 63.832773 
L 281.312841 62.332773 
L 279.812841 63.832773 
L 281.312841 65.332773 
L 279.812841 66.832773 
z
" style="fill:#2f9599;stroke:#ffffff;stroke-width:0.48;"/>
    <path clip-path="url(#p30e3762ebf)" d="M 288.076477 68.332773 
L 289.576477 66.832773 
L 291.076477 68.332773 
L 292.576477 66.832773 
L 291.076477 65.332773 
L 292.576477 63.832773 
L 291.076477 62.332773 
L 289.576477 63.832773 
L 288.076477 62.332773 
L 286.576477 63.832773 
L 288.076477 65.332773 
L 286.576477 66.832773 
z
" style="fill:#2f9599;stroke:#ffffff;stroke-width:0.48;"/>
    <path clip-path="url(#p30e3762ebf)" d="M 294.840114 68.332773 
L 296.340114 66.832773 
L 297.840114 68.332773 
L 299.340114 66.832773 
L 297.840114 65.332773 
L 299.340114 63.832773 
L 297.840114 62.332773 
L 296.340114 63.832773 
L 294.840114 62.332773 
L 293.340114 63.832773 
L 294.840114 65.332773 
L 293.340114 66.832773 
z
" style="fill:#2f9599;stroke:#ffffff;stroke-width:0.48;"/>
    <path clip-path="url(#p30e3762ebf)" d="M 301.60375 68.332773 
L 303.10375 66.832773 
L 304.60375 68.332773 
L 306.10375 66.832773 
L 304.60375 65.332773 
L 306.10375 63.832773 
L 304.60375 62.332773 
L 303.10375 63.832773 
L 301.60375 62.332773 
L 300.10375 63.832773 
L 301.60375 65.332773 
L 300.10375 66.832773 
z
" style="fill:#2f9599;stroke:#ffffff;stroke-width:0.48;"/>
    <path clip-path="url(#p30e3762ebf)" d="M 308.367386 68.332773 
L 309.867386 66.832773 
L 311.367386 68.332773 
L 312.867386 66.832773 
L 311.367386 65.332773 
L 312.867386 63.832773 
L 311.367386 62.332773 
L 309.867386 63.832773 
L 308.367386 62.332773 
L 306.867386 63.832773 
L 308.367386 65.332773 
L 306.867386 66.832773 
z
" style="fill:#2f9599;stroke:#ffffff;stroke-width:0.48;"/>
    <path clip-path="url(#p30e3762ebf)" d="M 315.131023 68.332773 
L 316.631023 66.832773 
L 318.131023 68.332773 
L 319.631023 66.832773 
L 318.131023 65.332773 
L 319.631023 63.832773 
L 318.131023 62.332773 
L 316.631023 63.832773 
L 315.131023 62.332773 
L 313.631023 63.832773 
L 315.131023 65.332773 
L 313.631023 66.832773 
z
" style="fill:#2f9599;stroke:#ffffff;stroke-width:0.48;"/>
    <path clip-path="url(#p30e3762ebf)" d="M 321.894659 68.332773 
L 323.394659 66.832773 
L 324.894659 68.332773 
L 326.394659 66.832773 
L 324.894659 65.332773 
L 326.394659 63.832773 
L 324.894659 62.332773 
L 323.394659 63.832773 
L 321.894659 62.332773 
L 320.394659 63.832773 
L 321.894659 65.332773 
L 320.394659 66.832773 
z
" style="fill:#2f9599;stroke:#ffffff;stroke-width:0.48;"/>
    <path clip-path="url(#p30e3762ebf)" d="M 328.658295 68.332773 
L 330.158295 66.832773 
L 331.658295 68.332773 
L 333.158295 66.832773 
L 331.658295 65.332773 
L 333.158295 63.832773 
L 331.658295 62.332773 
L 330.158295 63.832773 
L 328.658295 62.332773 
L 327.158295 63.832773 
L 328.658295 65.332773 
L 327.158295 66.832773 
z
" style="fill:#2f9599;stroke:#ffffff;stroke-width:0.48;"/>
    <path clip-path="url(#p30e3762ebf)" d="M 335.421932 68.332773 
L 336.921932 66.832773 
L 338.421932 68.332773 
L 339.921932 66.832773 
L 338.421932 65.332773 
L 339.921932 63.832773 
L 338.421932 62.332773 
L 336.921932 63.832773 
L 335.421932 62.332773 
L 333.921932 63.832773 
L 335.421932 65.332773 
L 333.921932 66.832773 
z
" style="fill:#2f9599;stroke:#ffffff;stroke-width:0.48;"/>
    <path clip-path="url(#p30e3762ebf)" d="M 342.185568 68.332773 
L 343.685568 66.832773 
L 345.185568 68.332773 
L 346.685568 66.832773 
L 345.185568 65.332773 
L 346.685568 63.832773 
L 345.185568 62.332773 
L 343.685568 63.832773 
L 342.185568 62.332773 
L 340.685568 63.832773 
L 342.185568 65.332773 
L 340.685568 66.832773 
z
" style="fill:#2f9599;stroke:#ffffff;stroke-width:0.48;"/>
    <path clip-path="url(#p30e3762ebf)" d="M 348.949205 68.332773 
L 350.449205 66.832773 
L 351.949205 68.332773 
L 353.449205 66.832773 
L 351.949205 65.332773 
L 353.449205 63.832773 
L 351.949205 62.332773 
L 350.449205 63.832773 
L 348.949205 62.332773 
L 347.449205 63.832773 
L 348.949205 65.332773 
L 347.449205 66.832773 
z
" style="fill:#2f9599;stroke:#ffffff;stroke-width:0.48;"/>
    <path clip-path="url(#p30e3762ebf)" d="M 355.712841 68.332773 
L 357.212841 66.832773 
L 358.712841 68.332773 
L 360.212841 66.832773 
L 358.712841 65.332773 
L 360.212841 63.832773 
L 358.712841 62.332773 
L 357.212841 63.832773 
L 355.712841 62.332773 
L 354.212841 63.832773 
L 355.712841 65.332773 
L 354.212841 66.832773 
z
" style="fill:#2f9599;stroke:#ffffff;stroke-width:0.48;"/>
    <path clip-path="url(#p30e3762ebf)" d="M 362.476477 68.332773 
L 363.976477 66.832773 
L 365.476477 68.332773 
L 366.976477 66.832773 
L 365.476477 65.332773 
L 366.976477 63.832773 
L 365.476477 62.332773 
L 363.976477 63.832773 
L 362.476477 62.332773 
L 360.976477 63.832773 
L 362.476477 65.332773 
L 360.976477 66.832773 
z
" style="fill:#2f9599;stroke:#ffffff;stroke-width:0.48;"/>
    <path clip-path="url(#p30e3762ebf)" d="M 369.240114 68.332773 
L 370.740114 66.832773 
L 372.240114 68.332773 
L 373.740114 66.832773 
L 372.240114 65.332773 
L 373.740114 63.832773 
L 372.240114 62.332773 
L 370.740114 63.832773 
L 369.240114 62.332773 
L 367.740114 63.832773 
L 369.240114 65.332773 
L 367.740114 66.832773 
z
" style="fill:#2f9599;stroke:#ffffff;stroke-width:0.48;"/>
    <path clip-path="url(#p30e3762ebf)" d="M 376.00375 68.332773 
L 377.50375 66.832773 
L 379.00375 68.332773 
L 380.50375 66.832773 
L 379.00375 65.332773 
L 380.50375 63.832773 
L 379.00375 62.332773 
L 377.50375 63.832773 
L 376.00375 62.332773 
L 374.50375 63.832773 
L 376.00375 65.332773 
L 374.50375 66.832773 
z
" style="fill:#2f9599;stroke:#ffffff;stroke-width:0.48;"/>
    <path clip-path="url(#p30e3762ebf)" d="M 382.767386 68.332773 
L 384.267386 66.832773 
L 385.767386 68.332773 
L 387.267386 66.832773 
L 385.767386 65.332773 
L 387.267386 63.832773 
L 385.767386 62.332773 
L 384.267386 63.832773 
L 382.767386 62.332773 
L 381.267386 63.832773 
L 382.767386 65.332773 
L 381.267386 66.832773 
z
" style="fill:#2f9599;stroke:#ffffff;stroke-width:0.48;"/>
    <path clip-path="url(#p30e3762ebf)" d="M 389.531023 68.332773 
L 391.031023 66.832773 
L 392.531023 68.332773 
L 394.031023 66.832773 
L 392.531023 65.332773 
L 394.031023 63.832773 
L 392.531023 62.332773 
L 391.031023 63.832773 
L 389.531023 62.332773 
L 388.031023 63.832773 
L 389.531023 65.332773 
L 388.031023 66.832773 
z
" style="fill:#2f9599;stroke:#ffffff;stroke-width:0.48;"/>
    <path clip-path="url(#p30e3762ebf)" d="M 64.255157 248.157356 
L 64.255157 252.399997 
L 68.497798 252.399997 
L 68.497798 248.157356 
z
" style="fill:#a7226e;stroke:#ffffff;stroke-width:0.48;"/>
    <path clip-path="url(#p30e3762ebf)" d="M 71.018793 248.157356 
L 71.018793 252.399997 
L 75.261434 252.399997 
L 75.261434 248.157356 
z
" style="fill:#a7226e;stroke:#ffffff;stroke-width:0.48;"/>
    <path clip-path="url(#p30e3762ebf)" d="M 77.78243 248.157356 
L 77.78243 252.399997 
L 82.02507 252.399997 
L 82.02507 248.157356 
z
" style="fill:#a7226e;stroke:#ffffff;stroke-width:0.48;"/>
    <path clip-path="url(#p30e3762ebf)" d="M 84.546066 248.157356 
L 84.546066 252.399997 
L 88.788707 252.399997 
L 88.788707 248.157356 
z
" style="fill:#a7226e;stroke:#ffffff;stroke-width:0.48;"/>
    <path clip-path="url(#p30e3762ebf)" d="M 91.309702 248.157356 
L 91.309702 252.399997 
L 95.552343 252.399997 
L 95.552343 248.157356 
z
" style="fill:#a7226e;stroke:#ffffff;stroke-width:0.48;"/>
    <path clip-path="url(#p30e3762ebf)" d="M 98.073339 253.550064 
L 98.073339 257.792705 
L 102.315979 257.792705 
L 102.315979 253.550064 
z
" style="fill:#a7226e;stroke:#ffffff;stroke-width:0.48;"/>
    <path clip-path="url(#p30e3762ebf)" d="M 104.836975 241.971603 
L 104.836975 246.214243 
L 109.079616 246.214243 
L 109.079616 241.971603 
z
" style="fill:#a7226e;stroke:#ffffff;stroke-width:0.48;"/>
    <path clip-path="url(#p30e3762ebf)" d="M 111.600611 241.971603 
L 111.600611 246.214243 
L 115.843252 246.214243 
L 115.843252 241.971603 
z
" style="fill:#a7226e;stroke:#ffffff;stroke-width:0.48;"/>
    <path clip-path="url(#p30e3762ebf)" d="M 118.364248 235.611603 
L 118.364248 239.854243 
L 122.606889 239.854243 
L 122.606889 235.611603 
z
" style="fill:#a7226e;stroke:#ffffff;stroke-width:0.48;"/>
    <path clip-path="url(#p30e3762ebf)" d="M 125.127884 230.393141 
L 125.127884 234.635782 
L 129.370525 234.635782 
L 129.370525 230.393141 
z
" style="fill:#a7226e;stroke:#ffffff;stroke-width:0.48;"/>
    <path clip-path="url(#p30e3762ebf)" d="M 131.891521 235.611603 
L 131.891521 239.854243 
L 136.134161 239.854243 
L 136.134161 235.611603 
z
" style="fill:#a7226e;stroke:#ffffff;stroke-width:0.48;"/>
    <path clip-path="url(#p30e3762ebf)" d="M 138.655157 218.81468 
L 138.655157 223.05732 
L 142.897798 223.05732 
L 142.897798 218.81468 
z
" style="fill:#a7226e;stroke:#ffffff;stroke-width:0.48;"/>
    <path clip-path="url(#p30e3762ebf)" d="M 145.418793 198.174813 
L 145.418793 202.417454 
L 149.661434 202.417454 
L 149.661434 198.174813 
z
" style="fill:#a7226e;stroke:#ffffff;stroke-width:0.48;"/>
    <path clip-path="url(#p30e3762ebf)" d="M 152.18243 190.890155 
L 152.18243 195.132795 
L 156.42507 195.132795 
L 156.42507 190.890155 
z
" style="fill:#a7226e;stroke:#ffffff;stroke-width:0.48;"/>
    <path clip-path="url(#p30e3762ebf)" d="M 158.946066 150.997976 
L 158.946066 155.240617 
L 163.188707 155.240617 
L 163.188707 150.997976 
z
" style="fill:#a7226e;stroke:#ffffff;stroke-width:0.48;"/>
    <path clip-path="url(#p30e3762ebf)" d="M 165.709702 160.54275 
L 165.709702 164.785391 
L 169.952343 164.785391 
L 169.952343 160.54275 
z
" style="fill:#a7226e;stroke:#ffffff;stroke-width:0.48;"/>
    <path clip-path="url(#p30e3762ebf)" d="M 172.473339 155.693389 
L 172.473339 159.93603 
L 176.715979 159.93603 
L 176.715979 155.693389 
z
" style="fill:#a7226e;stroke:#ffffff;stroke-width:0.48;"/>
    <path clip-path="url(#p30e3762ebf)" d="M 179.236975 155.693389 
L 179.236975 159.93603 
L 183.479616 159.93603 
L 183.479616 155.693389 
z
" style="fill:#a7226e;stroke:#ffffff;stroke-width:0.48;"/>
    <path clip-path="url(#p30e3762ebf)" d="M 186.000611 155.693389 
L 186.000611 159.93603 
L 190.243252 159.93603 
L 190.243252 155.693389 
z
" style="fill:#a7226e;stroke:#ffffff;stroke-width:0.48;"/>
    <path clip-path="url(#p30e3762ebf)" d="M 192.764248 155.693389 
L 192.764248 159.93603 
L 197.006889 159.93603 
L 197.006889 155.693389 
z
" style="fill:#a7226e;stroke:#ffffff;stroke-width:0.48;"/>
    <path clip-path="url(#p30e3762ebf)" d="M 199.527884 155.693389 
L 199.527884 159.93603 
L 203.770525 159.93603 
L 203.770525 155.693389 
z
" style="fill:#a7226e;stroke:#ffffff;stroke-width:0.48;"/>
    <path clip-path="url(#p30e3762ebf)" d="M 206.291521 185.526603 
L 206.291521 189.769243 
L 210.534161 189.769243 
L 210.534161 185.526603 
z
" style="fill:#a7226e;stroke:#ffffff;stroke-width:0.48;"/>
    <path clip-path="url(#p30e3762ebf)" d="M 213.055157 172.500834 
L 213.055157 176.743474 
L 217.297798 176.743474 
L 217.297798 172.500834 
z
" style="fill:#a7226e;stroke:#ffffff;stroke-width:0.48;"/>
    <path clip-path="url(#p30e3762ebf)" d="M 219.818793 187.875512 
L 219.818793 192.118153 
L 224.061434 192.118153 
L 224.061434 187.875512 
z
" style="fill:#a7226e;stroke:#ffffff;stroke-width:0.48;"/>
    <path clip-path="url(#p30e3762ebf)" d="M 226.58243 187.875512 
L 226.58243 192.118153 
L 230.82507 192.118153 
L 230.82507 187.875512 
z
" style="fill:#a7226e;stroke:#ffffff;stroke-width:0.48;"/>
    <path clip-path="url(#p30e3762ebf)" d="M 233.346066 142.727647 
L 233.346066 146.970287 
L 237.588707 146.970287 
L 237.588707 142.727647 
z
" style="fill:#a7226e;stroke:#ffffff;stroke-width:0.48;"/>
    <path clip-path="url(#p30e3762ebf)" d="M 240.109702 128.345684 
L 240.109702 132.588324 
L 244.352343 132.588324 
L 244.352343 128.345684 
z
" style="fill:#a7226e;stroke:#ffffff;stroke-width:0.48;"/>
    <path clip-path="url(#p30e3762ebf)" d="M 246.873339 118.601099 
L 246.873339 122.843739 
L 251.115979 122.843739 
L 251.115979 118.601099 
z
" style="fill:#a7226e;stroke:#ffffff;stroke-width:0.48;"/>
    <path clip-path="url(#p30e3762ebf)" d="M 253.636975 98.067866 
L 253.636975 102.310507 
L 257.879616 102.310507 
L 257.879616 98.067866 
z
" style="fill:#a7226e;stroke:#ffffff;stroke-width:0.48;"/>
    <path clip-path="url(#p30e3762ebf)" d="M 260.400611 98.067866 
L 260.400611 102.310507 
L 264.643252 102.310507 
L 264.643252 98.067866 
z
" style="fill:#a7226e;stroke:#ffffff;stroke-width:0.48;"/>
    <path clip-path="url(#p30e3762ebf)" d="M 267.164248 98.067866 
L 267.164248 102.310507 
L 271.406889 102.310507 
L 271.406889 98.067866 
z
" style="fill:#a7226e;stroke:#ffffff;stroke-width:0.48;"/>
    <path clip-path="url(#p30e3762ebf)" d="M 273.927884 98.067866 
L 273.927884 102.310507 
L 278.170525 102.310507 
L 278.170525 98.067866 
z
" style="fill:#a7226e;stroke:#ffffff;stroke-width:0.48;"/>
    <path clip-path="url(#p30e3762ebf)" d="M 280.691521 98.067866 
L 280.691521 102.310507 
L 284.934161 102.310507 
L 284.934161 98.067866 
z
" style="fill:#a7226e;stroke:#ffffff;stroke-width:0.48;"/>
    <path clip-path="url(#p30e3762ebf)" d="M 287.455157 17.17468 
L 287.455157 21.41732 
L 291.697798 21.41732 
L 291.697798 17.17468 
z
" style="fill:#a7226e;stroke:#ffffff;stroke-width:0.48;"/>
    <path clip-path="url(#p30e3762ebf)" d="M 294.218793 17.17468 
L 294.218793 21.41732 
L 298.461434 21.41732 
L 298.461434 17.17468 
z
" style="fill:#a7226e;stroke:#ffffff;stroke-width:0.48;"/>
    <path clip-path="url(#p30e3762ebf)" d="M 300.98243 17.17468 
L 300.98243 21.41732 
L 305.22507 21.41732 
L 305.22507 17.17468 
z
" style="fill:#a7226e;stroke:#ffffff;stroke-width:0.48;"/>
    <path clip-path="url(#p30e3762ebf)" d="M 307.746066 17.17468 
L 307.746066 21.41732 
L 311.988707 21.41732 
L 311.988707 17.17468 
z
" style="fill:#a7226e;stroke:#ffffff;stroke-width:0.48;"/>
    <path clip-path="url(#p30e3762ebf)" d="M 314.509702 17.17468 
L 314.509702 21.41732 
L 318.752343 21.41732 
L 318.752343 17.17468 
z
" style="fill:#a7226e;stroke:#ffffff;stroke-width:0.48;"/>
    <path clip-path="url(#p30e3762ebf)" d="M 321.273339 17.17468 
L 321.273339 21.41732 
L 325.515979 21.41732 
L 325.515979 17.17468 
z
" style="fill:#a7226e;stroke:#ffffff;stroke-width:0.48;"/>
    <path clip-path="url(#p30e3762ebf)" d="M 328.036975 17.17468 
L 328.036975 21.41732 
L 332.279616 21.41732 
L 332.279616 17.17468 
z
" style="fill:#a7226e;stroke:#ffffff;stroke-width:0.48;"/>
    <path clip-path="url(#p30e3762ebf)" d="M 334.800611 17.17468 
L 334.800611 21.41732 
L 339.043252 21.41732 
L 339.043252 17.17468 
z
" style="fill:#a7226e;stroke:#ffffff;stroke-width:0.48;"/>
    <path clip-path="url(#p30e3762ebf)" d="M 341.564248 17.17468 
L 341.564248 21.41732 
L 345.806889 21.41732 
L 345.806889 17.17468 
z
" style="fill:#a7226e;stroke:#ffffff;stroke-width:0.48;"/>
    <path clip-path="url(#p30e3762ebf)" d="M 348.327884 17.17468 
L 348.327884 21.41732 
L 352.570525 21.41732 
L 352.570525 17.17468 
z
" style="fill:#a7226e;stroke:#ffffff;stroke-width:0.48;"/>
    <path clip-path="url(#p30e3762ebf)" d="M 355.091521 17.17468 
L 355.091521 21.41732 
L 359.334161 21.41732 
L 359.334161 17.17468 
z
" style="fill:#a7226e;stroke:#ffffff;stroke-width:0.48;"/>
    <path clip-path="url(#p30e3762ebf)" d="M 361.855157 17.17468 
L 361.855157 21.41732 
L 366.097798 21.41732 
L 366.097798 17.17468 
z
" style="fill:#a7226e;stroke:#ffffff;stroke-width:0.48;"/>
    <path clip-path="url(#p30e3762ebf)" d="M 368.618793 17.17468 
L 368.618793 21.41732 
L 372.861434 21.41732 
L 372.861434 17.17468 
z
" style="fill:#a7226e;stroke:#ffffff;stroke-width:0.48;"/>
    <path clip-path="url(#p30e3762ebf)" d="M 375.38243 17.17468 
L 375.38243 21.41732 
L 379.62507 21.41732 
L 379.62507 17.17468 
z
" style="fill:#a7226e;stroke:#ffffff;stroke-width:0.48;"/>
    <path clip-path="url(#p30e3762ebf)" d="M 382.146066 17.17468 
L 382.146066 21.41732 
L 386.388707 21.41732 
L 386.388707 17.17468 
z
" style="fill:#a7226e;stroke:#ffffff;stroke-width:0.48;"/>
    <path clip-path="url(#p30e3762ebf)" d="M 388.909702 17.17468 
L 388.909702 21.41732 
L 393.152343 21.41732 
L 393.152343 17.17468 
z
" style="fill:#a7226e;stroke:#ffffff;stroke-width:0.48;"/>
   </g>
   <g id="PathCollection_2"/>
   <g id="PathCollection_3"/>
   <g id="PathCollection_4"/>
   <g id="matplotlib.axis_1">
    <g id="xtick_1">
     <g id="line2d_1">
      <defs>
       <path d="M 0 0 
L 0 3.5 
" id="m82ffe1b8ba" style="stroke:#000000;stroke-width:0.8;"/>
      </defs>
      <g>
       <use style="stroke:#000000;stroke-width:0.8;" x="59.612841" xlink:href="#m82ffe1b8ba" y="273.312"/>
      </g>
     </g>
     <g id="text_1">
      <!-- 0.0 -->
      <g transform="translate(51.661278 287.910437)scale(0.1 -0.1)">
       <defs>
        <path d="M 31.78125 66.40625 
Q 24.171875 66.40625 20.328125 58.90625 
Q 16.5 51.421875 16.5 36.375 
Q 16.5 21.390625 20.328125 13.890625 
Q 24.171875 6.390625 31.78125 6.390625 
Q 39.453125 6.390625 43.28125 13.890625 
Q 47.125 21.390625 47.125 36.375 
Q 47.125 51.421875 43.28125 58.90625 
Q 39.453125 66.40625 31.78125 66.40625 
z
M 31.78125 74.21875 
Q 44.046875 74.21875 50.515625 64.515625 
Q 56.984375 54.828125 56.984375 36.375 
Q 56.984375 17.96875 50.515625 8.265625 
Q 44.046875 -1.421875 31.78125 -1.421875 
Q 19.53125 -1.421875 13.0625 8.265625 
Q 6.59375 17.96875 6.59375 36.375 
Q 6.59375 54.828125 13.0625 64.515625 
Q 19.53125 74.21875 31.78125 74.21875 
z
" id="DejaVuSans-48"/>
        <path d="M 10.6875 12.40625 
L 21 12.40625 
L 21 0 
L 10.6875 0 
z
" id="DejaVuSans-46"/>
       </defs>
       <use xlink:href="#DejaVuSans-48"/>
       <use x="63.623047" xlink:href="#DejaVuSans-46"/>
       <use x="95.410156" xlink:href="#DejaVuSans-48"/>
      </g>
     </g>
    </g>
    <g id="xtick_2">
     <g id="line2d_2">
      <g>
       <use style="stroke:#000000;stroke-width:0.8;" x="127.249205" xlink:href="#m82ffe1b8ba" y="273.312"/>
      </g>
     </g>
     <g id="text_2">
      <!-- 0.2 -->
      <g transform="translate(119.297642 287.910437)scale(0.1 -0.1)">
       <defs>
        <path d="M 19.1875 8.296875 
L 53.609375 8.296875 
L 53.609375 0 
L 7.328125 0 
L 7.328125 8.296875 
Q 12.9375 14.109375 22.625 23.890625 
Q 32.328125 33.6875 34.8125 36.53125 
Q 39.546875 41.84375 41.421875 45.53125 
Q 43.3125 49.21875 43.3125 52.78125 
Q 43.3125 58.59375 39.234375 62.25 
Q 35.15625 65.921875 28.609375 65.921875 
Q 23.96875 65.921875 18.8125 64.3125 
Q 13.671875 62.703125 7.8125 59.421875 
L 7.8125 69.390625 
Q 13.765625 71.78125 18.9375 73 
Q 24.125 74.21875 28.421875 74.21875 
Q 39.75 74.21875 46.484375 68.546875 
Q 53.21875 62.890625 53.21875 53.421875 
Q 53.21875 48.921875 51.53125 44.890625 
Q 49.859375 40.875 45.40625 35.40625 
Q 44.1875 33.984375 37.640625 27.21875 
Q 31.109375 20.453125 19.1875 8.296875 
z
" id="DejaVuSans-50"/>
       </defs>
       <use xlink:href="#DejaVuSans-48"/>
       <use x="63.623047" xlink:href="#DejaVuSans-46"/>
       <use x="95.410156" xlink:href="#DejaVuSans-50"/>
      </g>
     </g>
    </g>
    <g id="xtick_3">
     <g id="line2d_3">
      <g>
       <use style="stroke:#000000;stroke-width:0.8;" x="194.885568" xlink:href="#m82ffe1b8ba" y="273.312"/>
      </g>
     </g>
     <g id="text_3">
      <!-- 0.4 -->
      <g transform="translate(186.934006 287.910437)scale(0.1 -0.1)">
       <defs>
        <path d="M 37.796875 64.3125 
L 12.890625 25.390625 
L 37.796875 25.390625 
z
M 35.203125 72.90625 
L 47.609375 72.90625 
L 47.609375 25.390625 
L 58.015625 25.390625 
L 58.015625 17.1875 
L 47.609375 17.1875 
L 47.609375 0 
L 37.796875 0 
L 37.796875 17.1875 
L 4.890625 17.1875 
L 4.890625 26.703125 
z
" id="DejaVuSans-52"/>
       </defs>
       <use xlink:href="#DejaVuSans-48"/>
       <use x="63.623047" xlink:href="#DejaVuSans-46"/>
       <use x="95.410156" xlink:href="#DejaVuSans-52"/>
      </g>
     </g>
    </g>
    <g id="xtick_4">
     <g id="line2d_4">
      <g>
       <use style="stroke:#000000;stroke-width:0.8;" x="262.521932" xlink:href="#m82ffe1b8ba" y="273.312"/>
      </g>
     </g>
     <g id="text_4">
      <!-- 0.6 -->
      <g transform="translate(254.570369 287.910437)scale(0.1 -0.1)">
       <defs>
        <path d="M 33.015625 40.375 
Q 26.375 40.375 22.484375 35.828125 
Q 18.609375 31.296875 18.609375 23.390625 
Q 18.609375 15.53125 22.484375 10.953125 
Q 26.375 6.390625 33.015625 6.390625 
Q 39.65625 6.390625 43.53125 10.953125 
Q 47.40625 15.53125 47.40625 23.390625 
Q 47.40625 31.296875 43.53125 35.828125 
Q 39.65625 40.375 33.015625 40.375 
z
M 52.59375 71.296875 
L 52.59375 62.3125 
Q 48.875 64.0625 45.09375 64.984375 
Q 41.3125 65.921875 37.59375 65.921875 
Q 27.828125 65.921875 22.671875 59.328125 
Q 17.53125 52.734375 16.796875 39.40625 
Q 19.671875 43.65625 24.015625 45.921875 
Q 28.375 48.1875 33.59375 48.1875 
Q 44.578125 48.1875 50.953125 41.515625 
Q 57.328125 34.859375 57.328125 23.390625 
Q 57.328125 12.15625 50.6875 5.359375 
Q 44.046875 -1.421875 33.015625 -1.421875 
Q 20.359375 -1.421875 13.671875 8.265625 
Q 6.984375 17.96875 6.984375 36.375 
Q 6.984375 53.65625 15.1875 63.9375 
Q 23.390625 74.21875 37.203125 74.21875 
Q 40.921875 74.21875 44.703125 73.484375 
Q 48.484375 72.75 52.59375 71.296875 
z
" id="DejaVuSans-54"/>
       </defs>
       <use xlink:href="#DejaVuSans-48"/>
       <use x="63.623047" xlink:href="#DejaVuSans-46"/>
       <use x="95.410156" xlink:href="#DejaVuSans-54"/>
      </g>
     </g>
    </g>
    <g id="xtick_5">
     <g id="line2d_5">
      <g>
       <use style="stroke:#000000;stroke-width:0.8;" x="330.158295" xlink:href="#m82ffe1b8ba" y="273.312"/>
      </g>
     </g>
     <g id="text_5">
      <!-- 0.8 -->
      <g transform="translate(322.206733 287.910437)scale(0.1 -0.1)">
       <defs>
        <path d="M 31.78125 34.625 
Q 24.75 34.625 20.71875 30.859375 
Q 16.703125 27.09375 16.703125 20.515625 
Q 16.703125 13.921875 20.71875 10.15625 
Q 24.75 6.390625 31.78125 6.390625 
Q 38.8125 6.390625 42.859375 10.171875 
Q 46.921875 13.96875 46.921875 20.515625 
Q 46.921875 27.09375 42.890625 30.859375 
Q 38.875 34.625 31.78125 34.625 
z
M 21.921875 38.8125 
Q 15.578125 40.375 12.03125 44.71875 
Q 8.5 49.078125 8.5 55.328125 
Q 8.5 64.0625 14.71875 69.140625 
Q 20.953125 74.21875 31.78125 74.21875 
Q 42.671875 74.21875 48.875 69.140625 
Q 55.078125 64.0625 55.078125 55.328125 
Q 55.078125 49.078125 51.53125 44.71875 
Q 48 40.375 41.703125 38.8125 
Q 48.828125 37.15625 52.796875 32.3125 
Q 56.78125 27.484375 56.78125 20.515625 
Q 56.78125 9.90625 50.3125 4.234375 
Q 43.84375 -1.421875 31.78125 -1.421875 
Q 19.734375 -1.421875 13.25 4.234375 
Q 6.78125 9.90625 6.78125 20.515625 
Q 6.78125 27.484375 10.78125 32.3125 
Q 14.796875 37.15625 21.921875 38.8125 
z
M 18.3125 54.390625 
Q 18.3125 48.734375 21.84375 45.5625 
Q 25.390625 42.390625 31.78125 42.390625 
Q 38.140625 42.390625 41.71875 45.5625 
Q 45.3125 48.734375 45.3125 54.390625 
Q 45.3125 60.0625 41.71875 63.234375 
Q 38.140625 66.40625 31.78125 66.40625 
Q 25.390625 66.40625 21.84375 63.234375 
Q 18.3125 60.0625 18.3125 54.390625 
z
" id="DejaVuSans-56"/>
       </defs>
       <use xlink:href="#DejaVuSans-48"/>
       <use x="63.623047" xlink:href="#DejaVuSans-46"/>
       <use x="95.410156" xlink:href="#DejaVuSans-56"/>
      </g>
     </g>
    </g>
    <g id="xtick_6">
     <g id="line2d_6">
      <g>
       <use style="stroke:#000000;stroke-width:0.8;" x="397.794659" xlink:href="#m82ffe1b8ba" y="273.312"/>
      </g>
     </g>
     <g id="text_6">
      <!-- 1.0 -->
      <g transform="translate(389.843097 287.910437)scale(0.1 -0.1)">
       <defs>
        <path d="M 12.40625 8.296875 
L 28.515625 8.296875 
L 28.515625 63.921875 
L 10.984375 60.40625 
L 10.984375 69.390625 
L 28.421875 72.90625 
L 38.28125 72.90625 
L 38.28125 8.296875 
L 54.390625 8.296875 
L 54.390625 0 
L 12.40625 0 
z
" id="DejaVuSans-49"/>
       </defs>
       <use xlink:href="#DejaVuSans-49"/>
       <use x="63.623047" xlink:href="#DejaVuSans-46"/>
       <use x="95.410156" xlink:href="#DejaVuSans-48"/>
      </g>
     </g>
    </g>
    <g id="text_7">
     <!-- cutoff -->
     <g transform="translate(214.245938 301.588562)scale(0.1 -0.1)">
      <defs>
       <path d="M 48.78125 52.59375 
L 48.78125 44.1875 
Q 44.96875 46.296875 41.140625 47.34375 
Q 37.3125 48.390625 33.40625 48.390625 
Q 24.65625 48.390625 19.8125 42.84375 
Q 14.984375 37.3125 14.984375 27.296875 
Q 14.984375 17.28125 19.8125 11.734375 
Q 24.65625 6.203125 33.40625 6.203125 
Q 37.3125 6.203125 41.140625 7.25 
Q 44.96875 8.296875 48.78125 10.40625 
L 48.78125 2.09375 
Q 45.015625 0.34375 40.984375 -0.53125 
Q 36.96875 -1.421875 32.421875 -1.421875 
Q 20.0625 -1.421875 12.78125 6.34375 
Q 5.515625 14.109375 5.515625 27.296875 
Q 5.515625 40.671875 12.859375 48.328125 
Q 20.21875 56 33.015625 56 
Q 37.15625 56 41.109375 55.140625 
Q 45.0625 54.296875 48.78125 52.59375 
z
" id="DejaVuSans-99"/>
       <path d="M 8.5 21.578125 
L 8.5 54.6875 
L 17.484375 54.6875 
L 17.484375 21.921875 
Q 17.484375 14.15625 20.5 10.265625 
Q 23.53125 6.390625 29.59375 6.390625 
Q 36.859375 6.390625 41.078125 11.03125 
Q 45.3125 15.671875 45.3125 23.6875 
L 45.3125 54.6875 
L 54.296875 54.6875 
L 54.296875 0 
L 45.3125 0 
L 45.3125 8.40625 
Q 42.046875 3.421875 37.71875 1 
Q 33.40625 -1.421875 27.6875 -1.421875 
Q 18.265625 -1.421875 13.375 4.4375 
Q 8.5 10.296875 8.5 21.578125 
z
M 31.109375 56 
z
" id="DejaVuSans-117"/>
       <path d="M 18.3125 70.21875 
L 18.3125 54.6875 
L 36.8125 54.6875 
L 36.8125 47.703125 
L 18.3125 47.703125 
L 18.3125 18.015625 
Q 18.3125 11.328125 20.140625 9.421875 
Q 21.96875 7.515625 27.59375 7.515625 
L 36.8125 7.515625 
L 36.8125 0 
L 27.59375 0 
Q 17.1875 0 13.234375 3.875 
Q 9.28125 7.765625 9.28125 18.015625 
L 9.28125 47.703125 
L 2.6875 47.703125 
L 2.6875 54.6875 
L 9.28125 54.6875 
L 9.28125 70.21875 
z
" id="DejaVuSans-116"/>
       <path d="M 30.609375 48.390625 
Q 23.390625 48.390625 19.1875 42.75 
Q 14.984375 37.109375 14.984375 27.296875 
Q 14.984375 17.484375 19.15625 11.84375 
Q 23.34375 6.203125 30.609375 6.203125 
Q 37.796875 6.203125 41.984375 11.859375 
Q 46.1875 17.53125 46.1875 27.296875 
Q 46.1875 37.015625 41.984375 42.703125 
Q 37.796875 48.390625 30.609375 48.390625 
z
M 30.609375 56 
Q 42.328125 56 49.015625 48.375 
Q 55.71875 40.765625 55.71875 27.296875 
Q 55.71875 13.875 49.015625 6.21875 
Q 42.328125 -1.421875 30.609375 -1.421875 
Q 18.84375 -1.421875 12.171875 6.21875 
Q 5.515625 13.875 5.515625 27.296875 
Q 5.515625 40.765625 12.171875 48.375 
Q 18.84375 56 30.609375 56 
z
" id="DejaVuSans-111"/>
       <path d="M 37.109375 75.984375 
L 37.109375 68.5 
L 28.515625 68.5 
Q 23.6875 68.5 21.796875 66.546875 
Q 19.921875 64.59375 19.921875 59.515625 
L 19.921875 54.6875 
L 34.71875 54.6875 
L 34.71875 47.703125 
L 19.921875 47.703125 
L 19.921875 0 
L 10.890625 0 
L 10.890625 47.703125 
L 2.296875 47.703125 
L 2.296875 54.6875 
L 10.890625 54.6875 
L 10.890625 58.5 
Q 10.890625 67.625 15.140625 71.796875 
Q 19.390625 75.984375 28.609375 75.984375 
z
" id="DejaVuSans-102"/>
      </defs>
      <use xlink:href="#DejaVuSans-99"/>
      <use x="54.980469" xlink:href="#DejaVuSans-117"/>
      <use x="118.359375" xlink:href="#DejaVuSans-116"/>
      <use x="157.568359" xlink:href="#DejaVuSans-111"/>
      <use x="218.75" xlink:href="#DejaVuSans-102"/>
      <use x="253.955078" xlink:href="#DejaVuSans-102"/>
     </g>
    </g>
   </g>
   <g id="matplotlib.axis_2">
    <g id="ytick_1">
     <g id="line2d_7">
      <defs>
       <path d="M 0 0 
L -3.5 0 
" id="m21ec6a531f" style="stroke:#000000;stroke-width:0.8;"/>
      </defs>
      <g>
       <use style="stroke:#000000;stroke-width:0.8;" x="50.14375" xlink:href="#m21ec6a531f" y="237.145846"/>
      </g>
     </g>
     <g id="text_8">
      <!-- 0.55 -->
      <g transform="translate(20.878125 240.945065)scale(0.1 -0.1)">
       <defs>
        <path d="M 10.796875 72.90625 
L 49.515625 72.90625 
L 49.515625 64.59375 
L 19.828125 64.59375 
L 19.828125 46.734375 
Q 21.96875 47.46875 24.109375 47.828125 
Q 26.265625 48.1875 28.421875 48.1875 
Q 40.625 48.1875 47.75 41.5 
Q 54.890625 34.8125 54.890625 23.390625 
Q 54.890625 11.625 47.5625 5.09375 
Q 40.234375 -1.421875 26.90625 -1.421875 
Q 22.3125 -1.421875 17.546875 -0.640625 
Q 12.796875 0.140625 7.71875 1.703125 
L 7.71875 11.625 
Q 12.109375 9.234375 16.796875 8.0625 
Q 21.484375 6.890625 26.703125 6.890625 
Q 35.15625 6.890625 40.078125 11.328125 
Q 45.015625 15.765625 45.015625 23.390625 
Q 45.015625 31 40.078125 35.4375 
Q 35.15625 39.890625 26.703125 39.890625 
Q 22.75 39.890625 18.8125 39.015625 
Q 14.890625 38.140625 10.796875 36.28125 
z
" id="DejaVuSans-53"/>
       </defs>
       <use xlink:href="#DejaVuSans-48"/>
       <use x="63.623047" xlink:href="#DejaVuSans-46"/>
       <use x="95.410156" xlink:href="#DejaVuSans-53"/>
       <use x="159.033203" xlink:href="#DejaVuSans-53"/>
      </g>
     </g>
    </g>
    <g id="ytick_2">
     <g id="line2d_8">
      <g>
       <use style="stroke:#000000;stroke-width:0.8;" x="50.14375" xlink:href="#m21ec6a531f" y="195.463385"/>
      </g>
     </g>
     <g id="text_9">
      <!-- 0.60 -->
      <g transform="translate(20.878125 199.262603)scale(0.1 -0.1)">
       <use xlink:href="#DejaVuSans-48"/>
       <use x="63.623047" xlink:href="#DejaVuSans-46"/>
       <use x="95.410156" xlink:href="#DejaVuSans-54"/>
       <use x="159.033203" xlink:href="#DejaVuSans-48"/>
      </g>
     </g>
    </g>
    <g id="ytick_3">
     <g id="line2d_9">
      <g>
       <use style="stroke:#000000;stroke-width:0.8;" x="50.14375" xlink:href="#m21ec6a531f" y="153.780923"/>
      </g>
     </g>
     <g id="text_10">
      <!-- 0.65 -->
      <g transform="translate(20.878125 157.580142)scale(0.1 -0.1)">
       <use xlink:href="#DejaVuSans-48"/>
       <use x="63.623047" xlink:href="#DejaVuSans-46"/>
       <use x="95.410156" xlink:href="#DejaVuSans-54"/>
       <use x="159.033203" xlink:href="#DejaVuSans-53"/>
      </g>
     </g>
    </g>
    <g id="ytick_4">
     <g id="line2d_10">
      <g>
       <use style="stroke:#000000;stroke-width:0.8;" x="50.14375" xlink:href="#m21ec6a531f" y="112.098462"/>
      </g>
     </g>
     <g id="text_11">
      <!-- 0.70 -->
      <g transform="translate(20.878125 115.89768)scale(0.1 -0.1)">
       <defs>
        <path d="M 8.203125 72.90625 
L 55.078125 72.90625 
L 55.078125 68.703125 
L 28.609375 0 
L 18.3125 0 
L 43.21875 64.59375 
L 8.203125 64.59375 
z
" id="DejaVuSans-55"/>
       </defs>
       <use xlink:href="#DejaVuSans-48"/>
       <use x="63.623047" xlink:href="#DejaVuSans-46"/>
       <use x="95.410156" xlink:href="#DejaVuSans-55"/>
       <use x="159.033203" xlink:href="#DejaVuSans-48"/>
      </g>
     </g>
    </g>
    <g id="ytick_5">
     <g id="line2d_11">
      <g>
       <use style="stroke:#000000;stroke-width:0.8;" x="50.14375" xlink:href="#m21ec6a531f" y="70.416"/>
      </g>
     </g>
     <g id="text_12">
      <!-- 0.75 -->
      <g transform="translate(20.878125 74.215219)scale(0.1 -0.1)">
       <use xlink:href="#DejaVuSans-48"/>
       <use x="63.623047" xlink:href="#DejaVuSans-46"/>
       <use x="95.410156" xlink:href="#DejaVuSans-55"/>
       <use x="159.033203" xlink:href="#DejaVuSans-53"/>
      </g>
     </g>
    </g>
    <g id="ytick_6">
     <g id="line2d_12">
      <g>
       <use style="stroke:#000000;stroke-width:0.8;" x="50.14375" xlink:href="#m21ec6a531f" y="28.733538"/>
      </g>
     </g>
     <g id="text_13">
      <!-- 0.80 -->
      <g transform="translate(20.878125 32.532757)scale(0.1 -0.1)">
       <use xlink:href="#DejaVuSans-48"/>
       <use x="63.623047" xlink:href="#DejaVuSans-46"/>
       <use x="95.410156" xlink:href="#DejaVuSans-56"/>
       <use x="159.033203" xlink:href="#DejaVuSans-48"/>
      </g>
     </g>
    </g>
    <g id="text_14">
     <!-- performance -->
     <g transform="translate(14.798438 172.278656)rotate(-90)scale(0.1 -0.1)">
      <defs>
       <path d="M 18.109375 8.203125 
L 18.109375 -20.796875 
L 9.078125 -20.796875 
L 9.078125 54.6875 
L 18.109375 54.6875 
L 18.109375 46.390625 
Q 20.953125 51.265625 25.265625 53.625 
Q 29.59375 56 35.59375 56 
Q 45.5625 56 51.78125 48.09375 
Q 58.015625 40.1875 58.015625 27.296875 
Q 58.015625 14.40625 51.78125 6.484375 
Q 45.5625 -1.421875 35.59375 -1.421875 
Q 29.59375 -1.421875 25.265625 0.953125 
Q 20.953125 3.328125 18.109375 8.203125 
z
M 48.6875 27.296875 
Q 48.6875 37.203125 44.609375 42.84375 
Q 40.53125 48.484375 33.40625 48.484375 
Q 26.265625 48.484375 22.1875 42.84375 
Q 18.109375 37.203125 18.109375 27.296875 
Q 18.109375 17.390625 22.1875 11.75 
Q 26.265625 6.109375 33.40625 6.109375 
Q 40.53125 6.109375 44.609375 11.75 
Q 48.6875 17.390625 48.6875 27.296875 
z
" id="DejaVuSans-112"/>
       <path d="M 56.203125 29.59375 
L 56.203125 25.203125 
L 14.890625 25.203125 
Q 15.484375 15.921875 20.484375 11.0625 
Q 25.484375 6.203125 34.421875 6.203125 
Q 39.59375 6.203125 44.453125 7.46875 
Q 49.3125 8.734375 54.109375 11.28125 
L 54.109375 2.78125 
Q 49.265625 0.734375 44.1875 -0.34375 
Q 39.109375 -1.421875 33.890625 -1.421875 
Q 20.796875 -1.421875 13.15625 6.1875 
Q 5.515625 13.8125 5.515625 26.8125 
Q 5.515625 40.234375 12.765625 48.109375 
Q 20.015625 56 32.328125 56 
Q 43.359375 56 49.78125 48.890625 
Q 56.203125 41.796875 56.203125 29.59375 
z
M 47.21875 32.234375 
Q 47.125 39.59375 43.09375 43.984375 
Q 39.0625 48.390625 32.421875 48.390625 
Q 24.90625 48.390625 20.390625 44.140625 
Q 15.875 39.890625 15.1875 32.171875 
z
" id="DejaVuSans-101"/>
       <path d="M 41.109375 46.296875 
Q 39.59375 47.171875 37.8125 47.578125 
Q 36.03125 48 33.890625 48 
Q 26.265625 48 22.1875 43.046875 
Q 18.109375 38.09375 18.109375 28.8125 
L 18.109375 0 
L 9.078125 0 
L 9.078125 54.6875 
L 18.109375 54.6875 
L 18.109375 46.1875 
Q 20.953125 51.171875 25.484375 53.578125 
Q 30.03125 56 36.53125 56 
Q 37.453125 56 38.578125 55.875 
Q 39.703125 55.765625 41.0625 55.515625 
z
" id="DejaVuSans-114"/>
       <path d="M 52 44.1875 
Q 55.375 50.25 60.0625 53.125 
Q 64.75 56 71.09375 56 
Q 79.640625 56 84.28125 50.015625 
Q 88.921875 44.046875 88.921875 33.015625 
L 88.921875 0 
L 79.890625 0 
L 79.890625 32.71875 
Q 79.890625 40.578125 77.09375 44.375 
Q 74.3125 48.1875 68.609375 48.1875 
Q 61.625 48.1875 57.5625 43.546875 
Q 53.515625 38.921875 53.515625 30.90625 
L 53.515625 0 
L 44.484375 0 
L 44.484375 32.71875 
Q 44.484375 40.625 41.703125 44.40625 
Q 38.921875 48.1875 33.109375 48.1875 
Q 26.21875 48.1875 22.15625 43.53125 
Q 18.109375 38.875 18.109375 30.90625 
L 18.109375 0 
L 9.078125 0 
L 9.078125 54.6875 
L 18.109375 54.6875 
L 18.109375 46.1875 
Q 21.1875 51.21875 25.484375 53.609375 
Q 29.78125 56 35.6875 56 
Q 41.65625 56 45.828125 52.96875 
Q 50 49.953125 52 44.1875 
z
" id="DejaVuSans-109"/>
       <path d="M 34.28125 27.484375 
Q 23.390625 27.484375 19.1875 25 
Q 14.984375 22.515625 14.984375 16.5 
Q 14.984375 11.71875 18.140625 8.90625 
Q 21.296875 6.109375 26.703125 6.109375 
Q 34.1875 6.109375 38.703125 11.40625 
Q 43.21875 16.703125 43.21875 25.484375 
L 43.21875 27.484375 
z
M 52.203125 31.203125 
L 52.203125 0 
L 43.21875 0 
L 43.21875 8.296875 
Q 40.140625 3.328125 35.546875 0.953125 
Q 30.953125 -1.421875 24.3125 -1.421875 
Q 15.921875 -1.421875 10.953125 3.296875 
Q 6 8.015625 6 15.921875 
Q 6 25.140625 12.171875 29.828125 
Q 18.359375 34.515625 30.609375 34.515625 
L 43.21875 34.515625 
L 43.21875 35.40625 
Q 43.21875 41.609375 39.140625 45 
Q 35.0625 48.390625 27.6875 48.390625 
Q 23 48.390625 18.546875 47.265625 
Q 14.109375 46.140625 10.015625 43.890625 
L 10.015625 52.203125 
Q 14.9375 54.109375 19.578125 55.046875 
Q 24.21875 56 28.609375 56 
Q 40.484375 56 46.34375 49.84375 
Q 52.203125 43.703125 52.203125 31.203125 
z
" id="DejaVuSans-97"/>
       <path d="M 54.890625 33.015625 
L 54.890625 0 
L 45.90625 0 
L 45.90625 32.71875 
Q 45.90625 40.484375 42.875 44.328125 
Q 39.84375 48.1875 33.796875 48.1875 
Q 26.515625 48.1875 22.3125 43.546875 
Q 18.109375 38.921875 18.109375 30.90625 
L 18.109375 0 
L 9.078125 0 
L 9.078125 54.6875 
L 18.109375 54.6875 
L 18.109375 46.1875 
Q 21.34375 51.125 25.703125 53.5625 
Q 30.078125 56 35.796875 56 
Q 45.21875 56 50.046875 50.171875 
Q 54.890625 44.34375 54.890625 33.015625 
z
" id="DejaVuSans-110"/>
      </defs>
      <use xlink:href="#DejaVuSans-112"/>
      <use x="63.476562" xlink:href="#DejaVuSans-101"/>
      <use x="125" xlink:href="#DejaVuSans-114"/>
      <use x="166.113281" xlink:href="#DejaVuSans-102"/>
      <use x="201.318359" xlink:href="#DejaVuSans-111"/>
      <use x="262.5" xlink:href="#DejaVuSans-114"/>
      <use x="301.863281" xlink:href="#DejaVuSans-109"/>
      <use x="399.275391" xlink:href="#DejaVuSans-97"/>
      <use x="460.554688" xlink:href="#DejaVuSans-110"/>
      <use x="523.933594" xlink:href="#DejaVuSans-99"/>
      <use x="578.914062" xlink:href="#DejaVuSans-101"/>
     </g>
    </g>
   </g>
   <g id="line2d_13">
    <path clip-path="url(#p30e3762ebf)" d="M 66.376477 261.216 
L 73.140114 249.474462 
L 79.90375 245.031717 
L 86.667386 219.281934 
L 93.431023 190.410965 
L 100.194659 176.330451 
L 106.958295 176.330451 
L 113.721932 162.664071 
L 120.485568 162.664071 
L 127.249205 211.598531 
L 134.012841 209.357538 
L 140.776477 227.63932 
L 147.540114 246.764876 
L 154.30375 209.357538 
L 161.067386 160.859077 
L 167.831023 160.859077 
L 174.594659 160.859077 
L 181.358295 150.57458 
L 188.121932 128.771446 
L 194.885568 128.771446 
L 201.649205 128.771446 
L 208.412841 128.771446 
L 215.176477 128.771446 
L 221.940114 128.771446 
L 228.70375 122.519077 
L 235.467386 39.375869 
L 242.231023 39.375869 
L 248.994659 39.375869 
L 255.758295 39.375869 
L 262.521932 39.375869 
L 269.285568 39.375869 
L 276.049205 39.375869 
L 282.812841 39.375869 
L 289.576477 39.375869 
L 296.340114 39.375869 
L 303.10375 39.375869 
L 309.867386 39.375869 
L 316.631023 39.375869 
L 323.394659 39.375869 
L 330.158295 39.375869 
L 336.921932 39.375869 
L 343.685568 39.375869 
L 350.449205 39.375869 
L 357.212841 39.375869 
L 363.976477 39.375869 
L 370.740114 39.375869 
L 377.50375 39.375869 
L 384.267386 39.375869 
L 391.031023 39.375869 
" style="fill:none;stroke:#f26b38;stroke-dasharray:7.4,3.2;stroke-dashoffset:0;stroke-width:2;"/>
   </g>
   <g id="line2d_14">
    <path clip-path="url(#p30e3762ebf)" d="M 66.376477 230.73316 
L 73.140114 201.638564 
L 79.90375 235.70852 
L 86.667386 235.70852 
L 93.431023 209.357538 
L 100.194659 199.010828 
L 106.958295 199.010828 
L 113.721932 199.010828 
L 120.485568 188.214261 
L 127.249205 165.148867 
L 134.012841 165.148867 
L 140.776477 165.148867 
L 147.540114 165.148867 
L 154.30375 165.148867 
L 161.067386 165.148867 
L 167.831023 165.148867 
L 174.594659 65.332773 
L 181.358295 65.332773 
L 188.121932 65.332773 
L 194.885568 65.332773 
L 201.649205 65.332773 
L 208.412841 65.332773 
L 215.176477 65.332773 
L 221.940114 65.332773 
L 228.70375 65.332773 
L 235.467386 65.332773 
L 242.231023 65.332773 
L 248.994659 65.332773 
L 255.758295 65.332773 
L 262.521932 65.332773 
L 269.285568 65.332773 
L 276.049205 65.332773 
L 282.812841 65.332773 
L 289.576477 65.332773 
L 296.340114 65.332773 
L 303.10375 65.332773 
L 309.867386 65.332773 
L 316.631023 65.332773 
L 323.394659 65.332773 
L 330.158295 65.332773 
L 336.921932 65.332773 
L 343.685568 65.332773 
L 350.449205 65.332773 
L 357.212841 65.332773 
L 363.976477 65.332773 
L 370.740114 65.332773 
L 377.50375 65.332773 
L 384.267386 65.332773 
L 391.031023 65.332773 
" style="fill:none;stroke:#2f9599;stroke-dasharray:2,3.3;stroke-dashoffset:0;stroke-width:2;"/>
   </g>
   <g id="line2d_15">
    <path clip-path="url(#p30e3762ebf)" d="M 66.376477 250.278677 
L 73.140114 250.278677 
L 79.90375 250.278677 
L 86.667386 250.278677 
L 93.431023 250.278677 
L 100.194659 255.671385 
L 106.958295 244.092923 
L 113.721932 244.092923 
L 120.485568 237.732923 
L 127.249205 232.514462 
L 134.012841 237.732923 
L 140.776477 220.936 
L 147.540114 200.296134 
L 154.30375 193.011475 
L 161.067386 153.119297 
L 167.831023 162.664071 
L 174.594659 157.81471 
L 181.358295 157.81471 
L 188.121932 157.81471 
L 194.885568 157.81471 
L 201.649205 157.81471 
L 208.412841 187.647923 
L 215.176477 174.622154 
L 221.940114 189.996832 
L 228.70375 189.996832 
L 235.467386 144.848967 
L 242.231023 130.467004 
L 248.994659 120.722419 
L 255.758295 100.189187 
L 262.521932 100.189187 
L 269.285568 100.189187 
L 276.049205 100.189187 
L 282.812841 100.189187 
L 289.576477 19.296 
L 296.340114 19.296 
L 303.10375 19.296 
L 309.867386 19.296 
L 316.631023 19.296 
L 323.394659 19.296 
L 330.158295 19.296 
L 336.921932 19.296 
L 343.685568 19.296 
L 350.449205 19.296 
L 357.212841 19.296 
L 363.976477 19.296 
L 370.740114 19.296 
L 377.50375 19.296 
L 384.267386 19.296 
L 391.031023 19.296 
" style="fill:none;stroke:#a7226e;stroke-dasharray:12.8,3.2,2,3.2;stroke-dashoffset:0;stroke-width:2;"/>
   </g>
   <g id="patch_3">
    <path d="M 50.14375 273.312 
L 50.14375 7.2 
" style="fill:none;stroke:#000000;stroke-linecap:square;stroke-linejoin:miter;stroke-width:0.8;"/>
   </g>
   <g id="patch_4">
    <path d="M 407.26375 273.312 
L 407.26375 7.2 
" style="fill:none;stroke:#000000;stroke-linecap:square;stroke-linejoin:miter;stroke-width:0.8;"/>
   </g>
   <g id="patch_5">
    <path d="M 50.14375 273.312 
L 407.26375 273.312 
" style="fill:none;stroke:#000000;stroke-linecap:square;stroke-linejoin:miter;stroke-width:0.8;"/>
   </g>
   <g id="patch_6">
    <path d="M 50.14375 7.2 
L 407.26375 7.2 
" style="fill:none;stroke:#000000;stroke-linecap:square;stroke-linejoin:miter;stroke-width:0.8;"/>
   </g>
   <g id="legend_1">
    <g id="patch_7">
     <path d="M 55.00175 43.890912 
L 135.617441 43.890912 
Q 137.005441 43.890912 137.005441 42.502912 
L 137.005441 12.058 
Q 137.005441 10.67 135.617441 10.67 
L 55.00175 10.67 
Q 53.61375 10.67 53.61375 12.058 
L 53.61375 42.502912 
Q 53.61375 43.890912 55.00175 43.890912 
z
" style="fill:#ffffff;opacity:0.8;stroke:#cccccc;stroke-linejoin:miter;"/>
    </g>
    <g id="PathCollection_5">
     <defs>
      <path d="M 0 3 
C 0.795609 3 1.55874 2.683901 2.12132 2.12132 
C 2.683901 1.55874 3 0.795609 3 0 
C 3 -0.795609 2.683901 -1.55874 2.12132 -2.12132 
C 1.55874 -2.683901 0.795609 -3 0 -3 
C -0.795609 -3 -1.55874 -2.683901 -2.12132 -2.12132 
C -2.683901 -1.55874 -3 -0.795609 -3 0 
C -3 0.795609 -2.683901 1.55874 -2.12132 2.12132 
C -1.55874 2.683901 -0.795609 3 0 3 
z
" id="m17455b3fb4" style="stroke:#f26b38;"/>
     </defs>
     <g>
      <use style="fill:#f26b38;stroke:#f26b38;" x="63.32975" xlink:href="#m17455b3fb4" y="16.897566"/>
     </g>
    </g>
    <g id="text_15">
     <!-- mean_err -->
     <g transform="translate(75.82175 18.719316)scale(0.0694 -0.0694)">
      <defs>
       <path d="M 50.984375 -16.609375 
L 50.984375 -23.578125 
L -0.984375 -23.578125 
L -0.984375 -16.609375 
z
" id="DejaVuSans-95"/>
      </defs>
      <use xlink:href="#DejaVuSans-109"/>
      <use x="97.412109" xlink:href="#DejaVuSans-101"/>
      <use x="158.935547" xlink:href="#DejaVuSans-97"/>
      <use x="220.214844" xlink:href="#DejaVuSans-110"/>
      <use x="283.59375" xlink:href="#DejaVuSans-95"/>
      <use x="333.59375" xlink:href="#DejaVuSans-101"/>
      <use x="395.117188" xlink:href="#DejaVuSans-114"/>
      <use x="434.480469" xlink:href="#DejaVuSans-114"/>
     </g>
    </g>
    <g id="PathCollection_6">
     <defs>
      <path d="M -1.5 3 
L 0 1.5 
L 1.5 3 
L 3 1.5 
L 1.5 0 
L 3 -1.5 
L 1.5 -3 
L 0 -1.5 
L -1.5 -3 
L -3 -1.5 
L -1.5 0 
L -3 1.5 
z
" id="m9f75039f56" style="stroke:#2f9599;"/>
     </defs>
     <g>
      <use style="fill:#2f9599;stroke:#2f9599;" x="63.32975" xlink:href="#m9f75039f56" y="27.277203"/>
     </g>
    </g>
    <g id="text_16">
     <!-- mean_sq_err -->
     <g transform="translate(75.82175 29.098953)scale(0.0694 -0.0694)">
      <defs>
       <path d="M 44.28125 53.078125 
L 44.28125 44.578125 
Q 40.484375 46.53125 36.375 47.5 
Q 32.28125 48.484375 27.875 48.484375 
Q 21.1875 48.484375 17.84375 46.4375 
Q 14.5 44.390625 14.5 40.28125 
Q 14.5 37.15625 16.890625 35.375 
Q 19.28125 33.59375 26.515625 31.984375 
L 29.59375 31.296875 
Q 39.15625 29.25 43.1875 25.515625 
Q 47.21875 21.78125 47.21875 15.09375 
Q 47.21875 7.46875 41.1875 3.015625 
Q 35.15625 -1.421875 24.609375 -1.421875 
Q 20.21875 -1.421875 15.453125 -0.5625 
Q 10.6875 0.296875 5.421875 2 
L 5.421875 11.28125 
Q 10.40625 8.6875 15.234375 7.390625 
Q 20.0625 6.109375 24.8125 6.109375 
Q 31.15625 6.109375 34.5625 8.28125 
Q 37.984375 10.453125 37.984375 14.40625 
Q 37.984375 18.0625 35.515625 20.015625 
Q 33.0625 21.96875 24.703125 23.78125 
L 21.578125 24.515625 
Q 13.234375 26.265625 9.515625 29.90625 
Q 5.8125 33.546875 5.8125 39.890625 
Q 5.8125 47.609375 11.28125 51.796875 
Q 16.75 56 26.8125 56 
Q 31.78125 56 36.171875 55.265625 
Q 40.578125 54.546875 44.28125 53.078125 
z
" id="DejaVuSans-115"/>
       <path d="M 14.796875 27.296875 
Q 14.796875 17.390625 18.875 11.75 
Q 22.953125 6.109375 30.078125 6.109375 
Q 37.203125 6.109375 41.296875 11.75 
Q 45.40625 17.390625 45.40625 27.296875 
Q 45.40625 37.203125 41.296875 42.84375 
Q 37.203125 48.484375 30.078125 48.484375 
Q 22.953125 48.484375 18.875 42.84375 
Q 14.796875 37.203125 14.796875 27.296875 
z
M 45.40625 8.203125 
Q 42.578125 3.328125 38.25 0.953125 
Q 33.9375 -1.421875 27.875 -1.421875 
Q 17.96875 -1.421875 11.734375 6.484375 
Q 5.515625 14.40625 5.515625 27.296875 
Q 5.515625 40.1875 11.734375 48.09375 
Q 17.96875 56 27.875 56 
Q 33.9375 56 38.25 53.625 
Q 42.578125 51.265625 45.40625 46.390625 
L 45.40625 54.6875 
L 54.390625 54.6875 
L 54.390625 -20.796875 
L 45.40625 -20.796875 
z
" id="DejaVuSans-113"/>
      </defs>
      <use xlink:href="#DejaVuSans-109"/>
      <use x="97.412109" xlink:href="#DejaVuSans-101"/>
      <use x="158.935547" xlink:href="#DejaVuSans-97"/>
      <use x="220.214844" xlink:href="#DejaVuSans-110"/>
      <use x="283.59375" xlink:href="#DejaVuSans-95"/>
      <use x="333.59375" xlink:href="#DejaVuSans-115"/>
      <use x="385.693359" xlink:href="#DejaVuSans-113"/>
      <use x="449.169922" xlink:href="#DejaVuSans-95"/>
      <use x="499.169922" xlink:href="#DejaVuSans-101"/>
      <use x="560.693359" xlink:href="#DejaVuSans-114"/>
      <use x="600.056641" xlink:href="#DejaVuSans-114"/>
     </g>
    </g>
    <g id="PathCollection_7">
     <defs>
      <path d="M -2.12132 -2.12132 
L -2.12132 2.12132 
L 2.12132 2.12132 
L 2.12132 -2.12132 
z
" id="m1358f9098e" style="stroke:#a7226e;"/>
     </defs>
     <g>
      <use style="fill:#a7226e;stroke:#a7226e;" x="63.32975" xlink:href="#m1358f9098e" y="37.656841"/>
     </g>
    </g>
    <g id="text_17">
     <!-- mean_sqroot_err -->
     <g transform="translate(75.82175 39.478591)scale(0.0694 -0.0694)">
      <use xlink:href="#DejaVuSans-109"/>
      <use x="97.412109" xlink:href="#DejaVuSans-101"/>
      <use x="158.935547" xlink:href="#DejaVuSans-97"/>
      <use x="220.214844" xlink:href="#DejaVuSans-110"/>
      <use x="283.59375" xlink:href="#DejaVuSans-95"/>
      <use x="333.59375" xlink:href="#DejaVuSans-115"/>
      <use x="385.693359" xlink:href="#DejaVuSans-113"/>
      <use x="449.169922" xlink:href="#DejaVuSans-114"/>
      <use x="488.033203" xlink:href="#DejaVuSans-111"/>
      <use x="549.214844" xlink:href="#DejaVuSans-111"/>
      <use x="610.396484" xlink:href="#DejaVuSans-116"/>
      <use x="649.605469" xlink:href="#DejaVuSans-95"/>
      <use x="699.605469" xlink:href="#DejaVuSans-101"/>
      <use x="761.128906" xlink:href="#DejaVuSans-114"/>
      <use x="800.492188" xlink:href="#DejaVuSans-114"/>
     </g>
    </g>
   </g>
  </g>
 </g>
 <defs>
  <clipPath id="p30e3762ebf">
   <rect height="266.112" width="357.12" x="50.14375" y="7.2"/>
  </clipPath>
 </defs>
</svg>
