<?xml version="1.0" encoding="utf-8" standalone="no"?>
<!DOCTYPE svg PUBLIC "-//W3C//DTD SVG 1.1//EN"
  "http://www.w3.org/Graphics/SVG/1.1/DTD/svg11.dtd">
<!-- Created with matplotlib (https://matplotlib.org/) -->
<svg height="310.86825pt" version="1.1" viewBox="0 0 408.10125 310.86825" width="408.10125pt" xmlns="http://www.w3.org/2000/svg" xmlns:xlink="http://www.w3.org/1999/xlink">
 <metadata>
  <rdf:RDF xmlns:cc="http://creativecommons.org/ns#" xmlns:dc="http://purl.org/dc/elements/1.1/" xmlns:rdf="http://www.w3.org/1999/02/22-rdf-syntax-ns#">
   <cc:Work>
    <dc:type rdf:resource="http://purl.org/dc/dcmitype/StillImage"/>
    <dc:date>2022-05-27T22:20:19.583842</dc:date>
    <dc:format>image/svg+xml</dc:format>
    <dc:creator>
     <cc:Agent>
      <dc:title>Matplotlib v3.3.4, https://matplotlib.org/</dc:title>
     </cc:Agent>
    </dc:creator>
   </cc:Work>
  </rdf:RDF>
 </metadata>
 <defs>
  <style type="text/css">*{stroke-linecap:butt;stroke-linejoin:round;}</style>
 </defs>
 <g id="figure_1">
  <g id="patch_1">
   <path d="M 0 310.86825 
L 408.10125 310.86825 
L 408.10125 0 
L 0 0 
z
" style="fill:#ffffff;"/>
  </g>
  <g id="axes_1">
   <g id="patch_2">
    <path d="M 43.78125 273.312 
L 400.90125 273.312 
L 400.90125 7.2 
L 43.78125 7.2 
z
" style="fill:#ffffff;"/>
   </g>
   <g id="PathCollection_1">
    <path clip-path="url(#pecedc6a725)" d="M 60.013977 34.277633 
C 60.809587 34.277633 61.572717 33.961534 62.135298 33.398953 
C 62.697878 32.836372 63.013977 32.073242 63.013977 31.277633 
C 63.013977 30.482023 62.697878 29.718893 62.135298 29.156312 
C 61.572717 28.593732 60.809587 28.277633 60.013977 28.277633 
C 59.218368 28.277633 58.455238 28.593732 57.892657 29.156312 
C 57.330076 29.718893 57.013977 30.482023 57.013977 31.277633 
C 57.013977 32.073242 57.330076 32.836372 57.892657 33.398953 
C 58.455238 33.961534 59.218368 34.277633 60.013977 34.277633 
z
" style="fill:#f26b38;stroke:#ffffff;stroke-width:0.48;"/>
    <path clip-path="url(#pecedc6a725)" d="M 66.777614 55.256428 
C 67.573223 55.256428 68.336353 54.940329 68.898934 54.377748 
C 69.461515 53.815167 69.777614 53.052037 69.777614 52.256428 
C 69.777614 51.460818 69.461515 50.697688 68.898934 50.135107 
C 68.336353 49.572527 67.573223 49.256428 66.777614 49.256428 
C 65.982004 49.256428 65.218874 49.572527 64.656293 50.135107 
C 64.093713 50.697688 63.777614 51.460818 63.777614 52.256428 
C 63.777614 53.052037 64.093713 53.815167 64.656293 54.377748 
C 65.218874 54.940329 65.982004 55.256428 66.777614 55.256428 
z
" style="fill:#f26b38;stroke:#ffffff;stroke-width:0.48;"/>
    <path clip-path="url(#pecedc6a725)" d="M 73.54125 63.662165 
C 74.336859 63.662165 75.09999 63.346066 75.66257 62.783485 
C 76.225151 62.220904 76.54125 61.457774 76.54125 60.662165 
C 76.54125 59.866556 76.225151 59.103425 75.66257 58.540844 
C 75.09999 57.978264 74.336859 57.662165 73.54125 57.662165 
C 72.745641 57.662165 71.98251 57.978264 71.41993 58.540844 
C 70.857349 59.103425 70.54125 59.866556 70.54125 60.662165 
C 70.54125 61.457774 70.857349 62.220904 71.41993 62.783485 
C 71.98251 63.346066 72.745641 63.662165 73.54125 63.662165 
z
" style="fill:#f26b38;stroke:#ffffff;stroke-width:0.48;"/>
    <path clip-path="url(#pecedc6a725)" d="M 80.304886 88.879376 
C 81.100496 88.879376 81.863626 88.563277 82.426207 88.000697 
C 82.988787 87.438116 83.304886 86.674986 83.304886 85.879376 
C 83.304886 85.083767 82.988787 84.320637 82.426207 83.758056 
C 81.863626 83.195475 81.100496 82.879376 80.304886 82.879376 
C 79.509277 82.879376 78.746147 83.195475 78.183566 83.758056 
C 77.620985 84.320637 77.304886 85.083767 77.304886 85.879376 
C 77.304886 86.674986 77.620985 87.438116 78.183566 88.000697 
C 78.746147 88.563277 79.509277 88.879376 80.304886 88.879376 
z
" style="fill:#f26b38;stroke:#ffffff;stroke-width:0.48;"/>
    <path clip-path="url(#pecedc6a725)" d="M 87.068523 100.070223 
C 87.864132 100.070223 88.627262 99.754124 89.189843 99.191543 
C 89.752424 98.628963 90.068523 97.865832 90.068523 97.070223 
C 90.068523 96.274614 89.752424 95.511483 89.189843 94.948903 
C 88.627262 94.386322 87.864132 94.070223 87.068523 94.070223 
C 86.272913 94.070223 85.509783 94.386322 84.947202 94.948903 
C 84.384622 95.511483 84.068523 96.274614 84.068523 97.070223 
C 84.068523 97.865832 84.384622 98.628963 84.947202 99.191543 
C 85.509783 99.754124 86.272913 100.070223 87.068523 100.070223 
z
" style="fill:#f26b38;stroke:#ffffff;stroke-width:0.48;"/>
    <path clip-path="url(#pecedc6a725)" d="M 93.832159 121.574796 
C 94.627768 121.574796 95.390899 121.258697 95.953479 120.696116 
C 96.51606 120.133535 96.832159 119.370405 96.832159 118.574796 
C 96.832159 117.779186 96.51606 117.016056 95.953479 116.453475 
C 95.390899 115.890894 94.627768 115.574796 93.832159 115.574796 
C 93.03655 115.574796 92.273419 115.890894 91.710839 116.453475 
C 91.148258 117.016056 90.832159 117.779186 90.832159 118.574796 
C 90.832159 119.370405 91.148258 120.133535 91.710839 120.696116 
C 92.273419 121.258697 93.03655 121.574796 93.832159 121.574796 
z
" style="fill:#f26b38;stroke:#ffffff;stroke-width:0.48;"/>
    <path clip-path="url(#pecedc6a725)" d="M 100.595795 83.333 
C 101.391405 83.333 102.154535 83.016901 102.717116 82.45432 
C 103.279697 81.89174 103.595795 81.128609 103.595795 80.333 
C 103.595795 79.537391 103.279697 78.77426 102.717116 78.21168 
C 102.154535 77.649099 101.391405 77.333 100.595795 77.333 
C 99.800186 77.333 99.037056 77.649099 98.474475 78.21168 
C 97.911894 78.77426 97.595795 79.537391 97.595795 80.333 
C 97.595795 81.128609 97.911894 81.89174 98.474475 82.45432 
C 99.037056 83.016901 99.800186 83.333 100.595795 83.333 
z
" style="fill:#f26b38;stroke:#ffffff;stroke-width:0.48;"/>
    <path clip-path="url(#pecedc6a725)" d="M 107.359432 83.333 
C 108.155041 83.333 108.918171 83.016901 109.480752 82.45432 
C 110.043333 81.89174 110.359432 81.128609 110.359432 80.333 
C 110.359432 79.537391 110.043333 78.77426 109.480752 78.21168 
C 108.918171 77.649099 108.155041 77.333 107.359432 77.333 
C 106.563823 77.333 105.800692 77.649099 105.238111 78.21168 
C 104.675531 78.77426 104.359432 79.537391 104.359432 80.333 
C 104.359432 81.128609 104.675531 81.89174 105.238111 82.45432 
C 105.800692 83.016901 106.563823 83.333 107.359432 83.333 
z
" style="fill:#f26b38;stroke:#ffffff;stroke-width:0.48;"/>
    <path clip-path="url(#pecedc6a725)" d="M 114.123068 77.575109 
C 114.918677 77.575109 115.681808 77.25901 116.244389 76.696429 
C 116.806969 76.133849 117.123068 75.370718 117.123068 74.575109 
C 117.123068 73.7795 116.806969 73.01637 116.244389 72.453789 
C 115.681808 71.891208 114.918677 71.575109 114.123068 71.575109 
C 113.327459 71.575109 112.564329 71.891208 112.001748 72.453789 
C 111.439167 73.01637 111.123068 73.7795 111.123068 74.575109 
C 111.123068 75.370718 111.439167 76.133849 112.001748 76.696429 
C 112.564329 77.25901 113.327459 77.575109 114.123068 77.575109 
z
" style="fill:#f26b38;stroke:#ffffff;stroke-width:0.48;"/>
    <path clip-path="url(#pecedc6a725)" d="M 120.886705 86.497023 
C 121.682314 86.497023 122.445444 86.180924 123.008025 85.618343 
C 123.570606 85.055763 123.886705 84.292632 123.886705 83.497023 
C 123.886705 82.701414 123.570606 81.938283 123.008025 81.375703 
C 122.445444 80.813122 121.682314 80.497023 120.886705 80.497023 
C 120.091095 80.497023 119.327965 80.813122 118.765384 81.375703 
C 118.202803 81.938283 117.886705 82.701414 117.886705 83.497023 
C 117.886705 84.292632 118.202803 85.055763 118.765384 85.618343 
C 119.327965 86.180924 120.091095 86.497023 120.886705 86.497023 
z
" style="fill:#f26b38;stroke:#ffffff;stroke-width:0.48;"/>
    <path clip-path="url(#pecedc6a725)" d="M 127.650341 104.507615 
C 128.44595 104.507615 129.209081 104.191516 129.771661 103.628936 
C 130.334242 103.066355 130.650341 102.303225 130.650341 101.507615 
C 130.650341 100.712006 130.334242 99.948876 129.771661 99.386295 
C 129.209081 98.823714 128.44595 98.507615 127.650341 98.507615 
C 126.854732 98.507615 126.091601 98.823714 125.529021 99.386295 
C 124.96644 99.948876 124.650341 100.712006 124.650341 101.507615 
C 124.650341 102.303225 124.96644 103.066355 125.529021 103.628936 
C 126.091601 104.191516 126.854732 104.507615 127.650341 104.507615 
z
" style="fill:#f26b38;stroke:#ffffff;stroke-width:0.48;"/>
    <path clip-path="url(#pecedc6a725)" d="M 134.413977 112.94501 
C 135.209587 112.94501 135.972717 112.628911 136.535298 112.06633 
C 137.097878 111.503749 137.413977 110.740619 137.413977 109.94501 
C 137.413977 109.149401 137.097878 108.38627 136.535298 107.823689 
C 135.972717 107.261109 135.209587 106.94501 134.413977 106.94501 
C 133.618368 106.94501 132.855238 107.261109 132.292657 107.823689 
C 131.730076 108.38627 131.413977 109.149401 131.413977 109.94501 
C 131.413977 110.740619 131.730076 111.503749 132.292657 112.06633 
C 132.855238 112.628911 133.618368 112.94501 134.413977 112.94501 
z
" style="fill:#f26b38;stroke:#ffffff;stroke-width:0.48;"/>
    <path clip-path="url(#pecedc6a725)" d="M 141.177614 175.286083 
C 141.973223 175.286083 142.736353 174.969984 143.298934 174.407404 
C 143.861515 173.844823 144.177614 173.081693 144.177614 172.286083 
C 144.177614 171.490474 143.861515 170.727344 143.298934 170.164763 
C 142.736353 169.602182 141.973223 169.286083 141.177614 169.286083 
C 140.382004 169.286083 139.618874 169.602182 139.056293 170.164763 
C 138.493713 170.727344 138.177614 171.490474 138.177614 172.286083 
C 138.177614 173.081693 138.493713 173.844823 139.056293 174.407404 
C 139.618874 174.969984 140.382004 175.286083 141.177614 175.286083 
z
" style="fill:#f26b38;stroke:#ffffff;stroke-width:0.48;"/>
    <path clip-path="url(#pecedc6a725)" d="M 147.94125 176.783888 
C 148.736859 176.783888 149.49999 176.467789 150.06257 175.905209 
C 150.625151 175.342628 150.94125 174.579498 150.94125 173.783888 
C 150.94125 172.988279 150.625151 172.225149 150.06257 171.662568 
C 149.49999 171.099987 148.736859 170.783888 147.94125 170.783888 
C 147.145641 170.783888 146.38251 171.099987 145.81993 171.662568 
C 145.257349 172.225149 144.94125 172.988279 144.94125 173.783888 
C 144.94125 174.579498 145.257349 175.342628 145.81993 175.905209 
C 146.38251 176.467789 147.145641 176.783888 147.94125 176.783888 
z
" style="fill:#f26b38;stroke:#ffffff;stroke-width:0.48;"/>
    <path clip-path="url(#pecedc6a725)" d="M 154.704886 128.299385 
C 155.500496 128.299385 156.263626 127.983286 156.826207 127.420706 
C 157.388787 126.858125 157.704886 126.094995 157.704886 125.299385 
C 157.704886 124.503776 157.388787 123.740646 156.826207 123.178065 
C 156.263626 122.615484 155.500496 122.299385 154.704886 122.299385 
C 153.909277 122.299385 153.146147 122.615484 152.583566 123.178065 
C 152.020985 123.740646 151.704886 124.503776 151.704886 125.299385 
C 151.704886 126.094995 152.020985 126.858125 152.583566 127.420706 
C 153.146147 127.983286 153.909277 128.299385 154.704886 128.299385 
z
" style="fill:#f26b38;stroke:#ffffff;stroke-width:0.48;"/>
    <path clip-path="url(#pecedc6a725)" d="M 161.468523 128.299385 
C 162.264132 128.299385 163.027262 127.983286 163.589843 127.420706 
C 164.152424 126.858125 164.468523 126.094995 164.468523 125.299385 
C 164.468523 124.503776 164.152424 123.740646 163.589843 123.178065 
C 163.027262 122.615484 162.264132 122.299385 161.468523 122.299385 
C 160.672913 122.299385 159.909783 122.615484 159.347202 123.178065 
C 158.784622 123.740646 158.468523 124.503776 158.468523 125.299385 
C 158.468523 126.094995 158.784622 126.858125 159.347202 127.420706 
C 159.909783 127.983286 160.672913 128.299385 161.468523 128.299385 
z
" style="fill:#f26b38;stroke:#ffffff;stroke-width:0.48;"/>
    <path clip-path="url(#pecedc6a725)" d="M 168.232159 128.299385 
C 169.027768 128.299385 169.790899 127.983286 170.353479 127.420706 
C 170.91606 126.858125 171.232159 126.094995 171.232159 125.299385 
C 171.232159 124.503776 170.91606 123.740646 170.353479 123.178065 
C 169.790899 122.615484 169.027768 122.299385 168.232159 122.299385 
C 167.43655 122.299385 166.673419 122.615484 166.110839 123.178065 
C 165.548258 123.740646 165.232159 124.503776 165.232159 125.299385 
C 165.232159 126.094995 165.548258 126.858125 166.110839 127.420706 
C 166.673419 127.983286 167.43655 128.299385 168.232159 128.299385 
z
" style="fill:#f26b38;stroke:#ffffff;stroke-width:0.48;"/>
    <path clip-path="url(#pecedc6a725)" d="M 174.995795 128.299385 
C 175.791405 128.299385 176.554535 127.983286 177.117116 127.420706 
C 177.679697 126.858125 177.995795 126.094995 177.995795 125.299385 
C 177.995795 124.503776 177.679697 123.740646 177.117116 123.178065 
C 176.554535 122.615484 175.791405 122.299385 174.995795 122.299385 
C 174.200186 122.299385 173.437056 122.615484 172.874475 123.178065 
C 172.311894 123.740646 171.995795 124.503776 171.995795 125.299385 
C 171.995795 126.094995 172.311894 126.858125 172.874475 127.420706 
C 173.437056 127.983286 174.200186 128.299385 174.995795 128.299385 
z
" style="fill:#f26b38;stroke:#ffffff;stroke-width:0.48;"/>
    <path clip-path="url(#pecedc6a725)" d="M 181.759432 151.657296 
C 182.555041 151.657296 183.318171 151.341197 183.880752 150.778616 
C 184.443333 150.216036 184.759432 149.452905 184.759432 148.657296 
C 184.759432 147.861687 184.443333 147.098556 183.880752 146.535976 
C 183.318171 145.973395 182.555041 145.657296 181.759432 145.657296 
C 180.963823 145.657296 180.200692 145.973395 179.638111 146.535976 
C 179.075531 147.098556 178.759432 147.861687 178.759432 148.657296 
C 178.759432 149.452905 179.075531 150.216036 179.638111 150.778616 
C 180.200692 151.341197 180.963823 151.657296 181.759432 151.657296 
z
" style="fill:#f26b38;stroke:#ffffff;stroke-width:0.48;"/>
    <path clip-path="url(#pecedc6a725)" d="M 188.523068 132.210655 
C 189.318677 132.210655 190.081808 131.894556 190.644389 131.331975 
C 191.206969 130.769394 191.523068 130.006264 191.523068 129.210655 
C 191.523068 128.415045 191.206969 127.651915 190.644389 127.089334 
C 190.081808 126.526754 189.318677 126.210655 188.523068 126.210655 
C 187.727459 126.210655 186.964329 126.526754 186.401748 127.089334 
C 185.839167 127.651915 185.523068 128.415045 185.523068 129.210655 
C 185.523068 130.006264 185.839167 130.769394 186.401748 131.331975 
C 186.964329 131.894556 187.727459 132.210655 188.523068 132.210655 
z
" style="fill:#f26b38;stroke:#ffffff;stroke-width:0.48;"/>
    <path clip-path="url(#pecedc6a725)" d="M 195.286705 153.33151 
C 196.082314 153.33151 196.845444 153.015411 197.408025 152.45283 
C 197.970606 151.89025 198.286705 151.127119 198.286705 150.33151 
C 198.286705 149.535901 197.970606 148.77277 197.408025 148.21019 
C 196.845444 147.647609 196.082314 147.33151 195.286705 147.33151 
C 194.491095 147.33151 193.727965 147.647609 193.165384 148.21019 
C 192.602803 148.77277 192.286705 149.535901 192.286705 150.33151 
C 192.286705 151.127119 192.602803 151.89025 193.165384 152.45283 
C 193.727965 153.015411 194.491095 153.33151 195.286705 153.33151 
z
" style="fill:#f26b38;stroke:#ffffff;stroke-width:0.48;"/>
    <path clip-path="url(#pecedc6a725)" d="M 202.050341 153.33151 
C 202.84595 153.33151 203.609081 153.015411 204.171661 152.45283 
C 204.734242 151.89025 205.050341 151.127119 205.050341 150.33151 
C 205.050341 149.535901 204.734242 148.77277 204.171661 148.21019 
C 203.609081 147.647609 202.84595 147.33151 202.050341 147.33151 
C 201.254732 147.33151 200.491601 147.647609 199.929021 148.21019 
C 199.36644 148.77277 199.050341 149.535901 199.050341 150.33151 
C 199.050341 151.127119 199.36644 151.89025 199.929021 152.45283 
C 200.491601 153.015411 201.254732 153.33151 202.050341 153.33151 
z
" style="fill:#f26b38;stroke:#ffffff;stroke-width:0.48;"/>
    <path clip-path="url(#pecedc6a725)" d="M 208.813977 153.33151 
C 209.609587 153.33151 210.372717 153.015411 210.935298 152.45283 
C 211.497878 151.89025 211.813977 151.127119 211.813977 150.33151 
C 211.813977 149.535901 211.497878 148.77277 210.935298 148.21019 
C 210.372717 147.647609 209.609587 147.33151 208.813977 147.33151 
C 208.018368 147.33151 207.255238 147.647609 206.692657 148.21019 
C 206.130076 148.77277 205.813977 149.535901 205.813977 150.33151 
C 205.813977 151.127119 206.130076 151.89025 206.692657 152.45283 
C 207.255238 153.015411 208.018368 153.33151 208.813977 153.33151 
z
" style="fill:#f26b38;stroke:#ffffff;stroke-width:0.48;"/>
    <path clip-path="url(#pecedc6a725)" d="M 215.577614 148.051296 
C 216.373223 148.051296 217.136353 147.735197 217.698934 147.172617 
C 218.261515 146.610036 218.577614 145.846906 218.577614 145.051296 
C 218.577614 144.255687 218.261515 143.492557 217.698934 142.929976 
C 217.136353 142.367395 216.373223 142.051296 215.577614 142.051296 
C 214.782004 142.051296 214.018874 142.367395 213.456293 142.929976 
C 212.893713 143.492557 212.577614 144.255687 212.577614 145.051296 
C 212.577614 145.846906 212.893713 146.610036 213.456293 147.172617 
C 214.018874 147.735197 214.782004 148.051296 215.577614 148.051296 
z
" style="fill:#f26b38;stroke:#ffffff;stroke-width:0.48;"/>
    <path clip-path="url(#pecedc6a725)" d="M 222.34125 179.732579 
C 223.136859 179.732579 223.89999 179.41648 224.46257 178.853899 
C 225.025151 178.291319 225.34125 177.528188 225.34125 176.732579 
C 225.34125 175.93697 225.025151 175.173839 224.46257 174.611259 
C 223.89999 174.048678 223.136859 173.732579 222.34125 173.732579 
C 221.545641 173.732579 220.78251 174.048678 220.21993 174.611259 
C 219.657349 175.173839 219.34125 175.93697 219.34125 176.732579 
C 219.34125 177.528188 219.657349 178.291319 220.21993 178.853899 
C 220.78251 179.41648 221.545641 179.732579 222.34125 179.732579 
z
" style="fill:#f26b38;stroke:#ffffff;stroke-width:0.48;"/>
    <path clip-path="url(#pecedc6a725)" d="M 229.104886 232.534717 
C 229.900496 232.534717 230.663626 232.218618 231.226207 231.656037 
C 231.788787 231.093457 232.104886 230.330326 232.104886 229.534717 
C 232.104886 228.739108 231.788787 227.975978 231.226207 227.413397 
C 230.663626 226.850816 229.900496 226.534717 229.104886 226.534717 
C 228.309277 226.534717 227.546147 226.850816 226.983566 227.413397 
C 226.420985 227.975978 226.104886 228.739108 226.104886 229.534717 
C 226.104886 230.330326 226.420985 231.093457 226.983566 231.656037 
C 227.546147 232.218618 228.309277 232.534717 229.104886 232.534717 
z
" style="fill:#f26b38;stroke:#ffffff;stroke-width:0.48;"/>
    <path clip-path="url(#pecedc6a725)" d="M 235.868523 232.534717 
C 236.664132 232.534717 237.427262 232.218618 237.989843 231.656037 
C 238.552424 231.093457 238.868523 230.330326 238.868523 229.534717 
C 238.868523 228.739108 238.552424 227.975978 237.989843 227.413397 
C 237.427262 226.850816 236.664132 226.534717 235.868523 226.534717 
C 235.072913 226.534717 234.309783 226.850816 233.747202 227.413397 
C 233.184622 227.975978 232.868523 228.739108 232.868523 229.534717 
C 232.868523 230.330326 233.184622 231.093457 233.747202 231.656037 
C 234.309783 232.218618 235.072913 232.534717 235.868523 232.534717 
z
" style="fill:#f26b38;stroke:#ffffff;stroke-width:0.48;"/>
    <path clip-path="url(#pecedc6a725)" d="M 242.632159 232.534717 
C 243.427768 232.534717 244.190899 232.218618 244.753479 231.656037 
C 245.31606 231.093457 245.632159 230.330326 245.632159 229.534717 
C 245.632159 228.739108 245.31606 227.975978 244.753479 227.413397 
C 244.190899 226.850816 243.427768 226.534717 242.632159 226.534717 
C 241.83655 226.534717 241.073419 226.850816 240.510839 227.413397 
C 239.948258 227.975978 239.632159 228.739108 239.632159 229.534717 
C 239.632159 230.330326 239.948258 231.093457 240.510839 231.656037 
C 241.073419 232.218618 241.83655 232.534717 242.632159 232.534717 
z
" style="fill:#f26b38;stroke:#ffffff;stroke-width:0.48;"/>
    <path clip-path="url(#pecedc6a725)" d="M 249.395795 232.534717 
C 250.191405 232.534717 250.954535 232.218618 251.517116 231.656037 
C 252.079697 231.093457 252.395795 230.330326 252.395795 229.534717 
C 252.395795 228.739108 252.079697 227.975978 251.517116 227.413397 
C 250.954535 226.850816 250.191405 226.534717 249.395795 226.534717 
C 248.600186 226.534717 247.837056 226.850816 247.274475 227.413397 
C 246.711894 227.975978 246.395795 228.739108 246.395795 229.534717 
C 246.395795 230.330326 246.711894 231.093457 247.274475 231.656037 
C 247.837056 232.218618 248.600186 232.534717 249.395795 232.534717 
z
" style="fill:#f26b38;stroke:#ffffff;stroke-width:0.48;"/>
    <path clip-path="url(#pecedc6a725)" d="M 256.159432 232.534717 
C 256.955041 232.534717 257.718171 232.218618 258.280752 231.656037 
C 258.843333 231.093457 259.159432 230.330326 259.159432 229.534717 
C 259.159432 228.739108 258.843333 227.975978 258.280752 227.413397 
C 257.718171 226.850816 256.955041 226.534717 256.159432 226.534717 
C 255.363823 226.534717 254.600692 226.850816 254.038111 227.413397 
C 253.475531 227.975978 253.159432 228.739108 253.159432 229.534717 
C 253.159432 230.330326 253.475531 231.093457 254.038111 231.656037 
C 254.600692 232.218618 255.363823 232.534717 256.159432 232.534717 
z
" style="fill:#f26b38;stroke:#ffffff;stroke-width:0.48;"/>
    <path clip-path="url(#pecedc6a725)" d="M 262.923068 232.534717 
C 263.718677 232.534717 264.481808 232.218618 265.044389 231.656037 
C 265.606969 231.093457 265.923068 230.330326 265.923068 229.534717 
C 265.923068 228.739108 265.606969 227.975978 265.044389 227.413397 
C 264.481808 226.850816 263.718677 226.534717 262.923068 226.534717 
C 262.127459 226.534717 261.364329 226.850816 260.801748 227.413397 
C 260.239167 227.975978 259.923068 228.739108 259.923068 229.534717 
C 259.923068 230.330326 260.239167 231.093457 260.801748 231.656037 
C 261.364329 232.218618 262.127459 232.534717 262.923068 232.534717 
z
" style="fill:#f26b38;stroke:#ffffff;stroke-width:0.48;"/>
    <path clip-path="url(#pecedc6a725)" d="M 269.686705 232.534717 
C 270.482314 232.534717 271.245444 232.218618 271.808025 231.656037 
C 272.370606 231.093457 272.686705 230.330326 272.686705 229.534717 
C 272.686705 228.739108 272.370606 227.975978 271.808025 227.413397 
C 271.245444 226.850816 270.482314 226.534717 269.686705 226.534717 
C 268.891095 226.534717 268.127965 226.850816 267.565384 227.413397 
C 267.002803 227.975978 266.686705 228.739108 266.686705 229.534717 
C 266.686705 230.330326 267.002803 231.093457 267.565384 231.656037 
C 268.127965 232.218618 268.891095 232.534717 269.686705 232.534717 
z
" style="fill:#f26b38;stroke:#ffffff;stroke-width:0.48;"/>
    <path clip-path="url(#pecedc6a725)" d="M 276.450341 232.534717 
C 277.24595 232.534717 278.009081 232.218618 278.571661 231.656037 
C 279.134242 231.093457 279.450341 230.330326 279.450341 229.534717 
C 279.450341 228.739108 279.134242 227.975978 278.571661 227.413397 
C 278.009081 226.850816 277.24595 226.534717 276.450341 226.534717 
C 275.654732 226.534717 274.891601 226.850816 274.329021 227.413397 
C 273.76644 227.975978 273.450341 228.739108 273.450341 229.534717 
C 273.450341 230.330326 273.76644 231.093457 274.329021 231.656037 
C 274.891601 232.218618 275.654732 232.534717 276.450341 232.534717 
z
" style="fill:#f26b38;stroke:#ffffff;stroke-width:0.48;"/>
    <path clip-path="url(#pecedc6a725)" d="M 283.213977 232.534717 
C 284.009587 232.534717 284.772717 232.218618 285.335298 231.656037 
C 285.897878 231.093457 286.213977 230.330326 286.213977 229.534717 
C 286.213977 228.739108 285.897878 227.975978 285.335298 227.413397 
C 284.772717 226.850816 284.009587 226.534717 283.213977 226.534717 
C 282.418368 226.534717 281.655238 226.850816 281.092657 227.413397 
C 280.530076 227.975978 280.213977 228.739108 280.213977 229.534717 
C 280.213977 230.330326 280.530076 231.093457 281.092657 231.656037 
C 281.655238 232.218618 282.418368 232.534717 283.213977 232.534717 
z
" style="fill:#f26b38;stroke:#ffffff;stroke-width:0.48;"/>
    <path clip-path="url(#pecedc6a725)" d="M 289.977614 232.534717 
C 290.773223 232.534717 291.536353 232.218618 292.098934 231.656037 
C 292.661515 231.093457 292.977614 230.330326 292.977614 229.534717 
C 292.977614 228.739108 292.661515 227.975978 292.098934 227.413397 
C 291.536353 226.850816 290.773223 226.534717 289.977614 226.534717 
C 289.182004 226.534717 288.418874 226.850816 287.856293 227.413397 
C 287.293713 227.975978 286.977614 228.739108 286.977614 229.534717 
C 286.977614 230.330326 287.293713 231.093457 287.856293 231.656037 
C 288.418874 232.218618 289.182004 232.534717 289.977614 232.534717 
z
" style="fill:#f26b38;stroke:#ffffff;stroke-width:0.48;"/>
    <path clip-path="url(#pecedc6a725)" d="M 296.74125 232.534717 
C 297.536859 232.534717 298.29999 232.218618 298.86257 231.656037 
C 299.425151 231.093457 299.74125 230.330326 299.74125 229.534717 
C 299.74125 228.739108 299.425151 227.975978 298.86257 227.413397 
C 298.29999 226.850816 297.536859 226.534717 296.74125 226.534717 
C 295.945641 226.534717 295.18251 226.850816 294.61993 227.413397 
C 294.057349 227.975978 293.74125 228.739108 293.74125 229.534717 
C 293.74125 230.330326 294.057349 231.093457 294.61993 231.656037 
C 295.18251 232.218618 295.945641 232.534717 296.74125 232.534717 
z
" style="fill:#f26b38;stroke:#ffffff;stroke-width:0.48;"/>
    <path clip-path="url(#pecedc6a725)" d="M 303.504886 232.534717 
C 304.300496 232.534717 305.063626 232.218618 305.626207 231.656037 
C 306.188787 231.093457 306.504886 230.330326 306.504886 229.534717 
C 306.504886 228.739108 306.188787 227.975978 305.626207 227.413397 
C 305.063626 226.850816 304.300496 226.534717 303.504886 226.534717 
C 302.709277 226.534717 301.946147 226.850816 301.383566 227.413397 
C 300.820985 227.975978 300.504886 228.739108 300.504886 229.534717 
C 300.504886 230.330326 300.820985 231.093457 301.383566 231.656037 
C 301.946147 232.218618 302.709277 232.534717 303.504886 232.534717 
z
" style="fill:#f26b38;stroke:#ffffff;stroke-width:0.48;"/>
    <path clip-path="url(#pecedc6a725)" d="M 310.268523 232.534717 
C 311.064132 232.534717 311.827262 232.218618 312.389843 231.656037 
C 312.952424 231.093457 313.268523 230.330326 313.268523 229.534717 
C 313.268523 228.739108 312.952424 227.975978 312.389843 227.413397 
C 311.827262 226.850816 311.064132 226.534717 310.268523 226.534717 
C 309.472913 226.534717 308.709783 226.850816 308.147202 227.413397 
C 307.584622 227.975978 307.268523 228.739108 307.268523 229.534717 
C 307.268523 230.330326 307.584622 231.093457 308.147202 231.656037 
C 308.709783 232.218618 309.472913 232.534717 310.268523 232.534717 
z
" style="fill:#f26b38;stroke:#ffffff;stroke-width:0.48;"/>
    <path clip-path="url(#pecedc6a725)" d="M 317.032159 232.534717 
C 317.827768 232.534717 318.590899 232.218618 319.153479 231.656037 
C 319.71606 231.093457 320.032159 230.330326 320.032159 229.534717 
C 320.032159 228.739108 319.71606 227.975978 319.153479 227.413397 
C 318.590899 226.850816 317.827768 226.534717 317.032159 226.534717 
C 316.23655 226.534717 315.473419 226.850816 314.910839 227.413397 
C 314.348258 227.975978 314.032159 228.739108 314.032159 229.534717 
C 314.032159 230.330326 314.348258 231.093457 314.910839 231.656037 
C 315.473419 232.218618 316.23655 232.534717 317.032159 232.534717 
z
" style="fill:#f26b38;stroke:#ffffff;stroke-width:0.48;"/>
    <path clip-path="url(#pecedc6a725)" d="M 323.795795 232.534717 
C 324.591405 232.534717 325.354535 232.218618 325.917116 231.656037 
C 326.479697 231.093457 326.795795 230.330326 326.795795 229.534717 
C 326.795795 228.739108 326.479697 227.975978 325.917116 227.413397 
C 325.354535 226.850816 324.591405 226.534717 323.795795 226.534717 
C 323.000186 226.534717 322.237056 226.850816 321.674475 227.413397 
C 321.111894 227.975978 320.795795 228.739108 320.795795 229.534717 
C 320.795795 230.330326 321.111894 231.093457 321.674475 231.656037 
C 322.237056 232.218618 323.000186 232.534717 323.795795 232.534717 
z
" style="fill:#f26b38;stroke:#ffffff;stroke-width:0.48;"/>
    <path clip-path="url(#pecedc6a725)" d="M 330.559432 232.534717 
C 331.355041 232.534717 332.118171 232.218618 332.680752 231.656037 
C 333.243333 231.093457 333.559432 230.330326 333.559432 229.534717 
C 333.559432 228.739108 333.243333 227.975978 332.680752 227.413397 
C 332.118171 226.850816 331.355041 226.534717 330.559432 226.534717 
C 329.763823 226.534717 329.000692 226.850816 328.438111 227.413397 
C 327.875531 227.975978 327.559432 228.739108 327.559432 229.534717 
C 327.559432 230.330326 327.875531 231.093457 328.438111 231.656037 
C 329.000692 232.218618 329.763823 232.534717 330.559432 232.534717 
z
" style="fill:#f26b38;stroke:#ffffff;stroke-width:0.48;"/>
    <path clip-path="url(#pecedc6a725)" d="M 337.323068 232.534717 
C 338.118677 232.534717 338.881808 232.218618 339.444389 231.656037 
C 340.006969 231.093457 340.323068 230.330326 340.323068 229.534717 
C 340.323068 228.739108 340.006969 227.975978 339.444389 227.413397 
C 338.881808 226.850816 338.118677 226.534717 337.323068 226.534717 
C 336.527459 226.534717 335.764329 226.850816 335.201748 227.413397 
C 334.639167 227.975978 334.323068 228.739108 334.323068 229.534717 
C 334.323068 230.330326 334.639167 231.093457 335.201748 231.656037 
C 335.764329 232.218618 336.527459 232.534717 337.323068 232.534717 
z
" style="fill:#f26b38;stroke:#ffffff;stroke-width:0.48;"/>
    <path clip-path="url(#pecedc6a725)" d="M 344.086705 232.534717 
C 344.882314 232.534717 345.645444 232.218618 346.208025 231.656037 
C 346.770606 231.093457 347.086705 230.330326 347.086705 229.534717 
C 347.086705 228.739108 346.770606 227.975978 346.208025 227.413397 
C 345.645444 226.850816 344.882314 226.534717 344.086705 226.534717 
C 343.291095 226.534717 342.527965 226.850816 341.965384 227.413397 
C 341.402803 227.975978 341.086705 228.739108 341.086705 229.534717 
C 341.086705 230.330326 341.402803 231.093457 341.965384 231.656037 
C 342.527965 232.218618 343.291095 232.534717 344.086705 232.534717 
z
" style="fill:#f26b38;stroke:#ffffff;stroke-width:0.48;"/>
    <path clip-path="url(#pecedc6a725)" d="M 350.850341 232.534717 
C 351.64595 232.534717 352.409081 232.218618 352.971661 231.656037 
C 353.534242 231.093457 353.850341 230.330326 353.850341 229.534717 
C 353.850341 228.739108 353.534242 227.975978 352.971661 227.413397 
C 352.409081 226.850816 351.64595 226.534717 350.850341 226.534717 
C 350.054732 226.534717 349.291601 226.850816 348.729021 227.413397 
C 348.16644 227.975978 347.850341 228.739108 347.850341 229.534717 
C 347.850341 230.330326 348.16644 231.093457 348.729021 231.656037 
C 349.291601 232.218618 350.054732 232.534717 350.850341 232.534717 
z
" style="fill:#f26b38;stroke:#ffffff;stroke-width:0.48;"/>
    <path clip-path="url(#pecedc6a725)" d="M 357.613977 232.534717 
C 358.409587 232.534717 359.172717 232.218618 359.735298 231.656037 
C 360.297878 231.093457 360.613977 230.330326 360.613977 229.534717 
C 360.613977 228.739108 360.297878 227.975978 359.735298 227.413397 
C 359.172717 226.850816 358.409587 226.534717 357.613977 226.534717 
C 356.818368 226.534717 356.055238 226.850816 355.492657 227.413397 
C 354.930076 227.975978 354.613977 228.739108 354.613977 229.534717 
C 354.613977 230.330326 354.930076 231.093457 355.492657 231.656037 
C 356.055238 232.218618 356.818368 232.534717 357.613977 232.534717 
z
" style="fill:#f26b38;stroke:#ffffff;stroke-width:0.48;"/>
    <path clip-path="url(#pecedc6a725)" d="M 364.377614 232.534717 
C 365.173223 232.534717 365.936353 232.218618 366.498934 231.656037 
C 367.061515 231.093457 367.377614 230.330326 367.377614 229.534717 
C 367.377614 228.739108 367.061515 227.975978 366.498934 227.413397 
C 365.936353 226.850816 365.173223 226.534717 364.377614 226.534717 
C 363.582004 226.534717 362.818874 226.850816 362.256293 227.413397 
C 361.693713 227.975978 361.377614 228.739108 361.377614 229.534717 
C 361.377614 230.330326 361.693713 231.093457 362.256293 231.656037 
C 362.818874 232.218618 363.582004 232.534717 364.377614 232.534717 
z
" style="fill:#f26b38;stroke:#ffffff;stroke-width:0.48;"/>
    <path clip-path="url(#pecedc6a725)" d="M 371.14125 232.534717 
C 371.936859 232.534717 372.69999 232.218618 373.26257 231.656037 
C 373.825151 231.093457 374.14125 230.330326 374.14125 229.534717 
C 374.14125 228.739108 373.825151 227.975978 373.26257 227.413397 
C 372.69999 226.850816 371.936859 226.534717 371.14125 226.534717 
C 370.345641 226.534717 369.58251 226.850816 369.01993 227.413397 
C 368.457349 227.975978 368.14125 228.739108 368.14125 229.534717 
C 368.14125 230.330326 368.457349 231.093457 369.01993 231.656037 
C 369.58251 232.218618 370.345641 232.534717 371.14125 232.534717 
z
" style="fill:#f26b38;stroke:#ffffff;stroke-width:0.48;"/>
    <path clip-path="url(#pecedc6a725)" d="M 377.904886 232.534717 
C 378.700496 232.534717 379.463626 232.218618 380.026207 231.656037 
C 380.588787 231.093457 380.904886 230.330326 380.904886 229.534717 
C 380.904886 228.739108 380.588787 227.975978 380.026207 227.413397 
C 379.463626 226.850816 378.700496 226.534717 377.904886 226.534717 
C 377.109277 226.534717 376.346147 226.850816 375.783566 227.413397 
C 375.220985 227.975978 374.904886 228.739108 374.904886 229.534717 
C 374.904886 230.330326 375.220985 231.093457 375.783566 231.656037 
C 376.346147 232.218618 377.109277 232.534717 377.904886 232.534717 
z
" style="fill:#f26b38;stroke:#ffffff;stroke-width:0.48;"/>
    <path clip-path="url(#pecedc6a725)" d="M 384.668523 232.534717 
C 385.464132 232.534717 386.227262 232.218618 386.789843 231.656037 
C 387.352424 231.093457 387.668523 230.330326 387.668523 229.534717 
C 387.668523 228.739108 387.352424 227.975978 386.789843 227.413397 
C 386.227262 226.850816 385.464132 226.534717 384.668523 226.534717 
C 383.872913 226.534717 383.109783 226.850816 382.547202 227.413397 
C 381.984622 227.975978 381.668523 228.739108 381.668523 229.534717 
C 381.668523 230.330326 381.984622 231.093457 382.547202 231.656037 
C 383.109783 232.218618 383.872913 232.534717 384.668523 232.534717 
z
" style="fill:#f26b38;stroke:#ffffff;stroke-width:0.48;"/>
    <path clip-path="url(#pecedc6a725)" d="M 58.513977 127.83562 
L 60.013977 126.33562 
L 61.513977 127.83562 
L 63.013977 126.33562 
L 61.513977 124.83562 
L 63.013977 123.33562 
L 61.513977 121.83562 
L 60.013977 123.33562 
L 58.513977 121.83562 
L 57.013977 123.33562 
L 58.513977 124.83562 
L 57.013977 126.33562 
z
" style="fill:#2f9599;stroke:#ffffff;stroke-width:0.48;"/>
    <path clip-path="url(#pecedc6a725)" d="M 65.277614 127.000844 
L 66.777614 125.500844 
L 68.277614 127.000844 
L 69.777614 125.500844 
L 68.277614 124.000844 
L 69.777614 122.500844 
L 68.277614 121.000844 
L 66.777614 122.500844 
L 65.277614 121.000844 
L 63.777614 122.500844 
L 65.277614 124.000844 
L 63.777614 125.500844 
z
" style="fill:#2f9599;stroke:#ffffff;stroke-width:0.48;"/>
    <path clip-path="url(#pecedc6a725)" d="M 72.04125 112.773346 
L 73.54125 111.273346 
L 75.04125 112.773346 
L 76.54125 111.273346 
L 75.04125 109.773346 
L 76.54125 108.273346 
L 75.04125 106.773346 
L 73.54125 108.273346 
L 72.04125 106.773346 
L 70.54125 108.273346 
L 72.04125 109.773346 
L 70.54125 111.273346 
z
" style="fill:#2f9599;stroke:#ffffff;stroke-width:0.48;"/>
    <path clip-path="url(#pecedc6a725)" d="M 78.804886 121.574796 
L 80.304886 120.074796 
L 81.804886 121.574796 
L 83.304886 120.074796 
L 81.804886 118.574796 
L 83.304886 117.074796 
L 81.804886 115.574796 
L 80.304886 117.074796 
L 78.804886 115.574796 
L 77.304886 117.074796 
L 78.804886 118.574796 
L 77.304886 120.074796 
z
" style="fill:#2f9599;stroke:#ffffff;stroke-width:0.48;"/>
    <path clip-path="url(#pecedc6a725)" d="M 85.568523 138.687717 
L 87.068523 137.187717 
L 88.568523 138.687717 
L 90.068523 137.187717 
L 88.568523 135.687717 
L 90.068523 134.187717 
L 88.568523 132.687717 
L 87.068523 134.187717 
L 85.568523 132.687717 
L 84.068523 134.187717 
L 85.568523 135.687717 
L 84.068523 137.187717 
z
" style="fill:#2f9599;stroke:#ffffff;stroke-width:0.48;"/>
    <path clip-path="url(#pecedc6a725)" d="M 92.332159 155.352333 
L 93.832159 153.852333 
L 95.332159 155.352333 
L 96.832159 153.852333 
L 95.332159 152.352333 
L 96.832159 150.852333 
L 95.332159 149.352333 
L 93.832159 150.852333 
L 92.332159 149.352333 
L 90.832159 150.852333 
L 92.332159 152.352333 
L 90.832159 153.852333 
z
" style="fill:#2f9599;stroke:#ffffff;stroke-width:0.48;"/>
    <path clip-path="url(#pecedc6a725)" d="M 99.095795 155.352333 
L 100.595795 153.852333 
L 102.095795 155.352333 
L 103.595795 153.852333 
L 102.095795 152.352333 
L 103.595795 150.852333 
L 102.095795 149.352333 
L 100.595795 150.852333 
L 99.095795 149.352333 
L 97.595795 150.852333 
L 99.095795 152.352333 
L 97.595795 153.852333 
z
" style="fill:#2f9599;stroke:#ffffff;stroke-width:0.48;"/>
    <path clip-path="url(#pecedc6a725)" d="M 105.859432 155.352333 
L 107.359432 153.852333 
L 108.859432 155.352333 
L 110.359432 153.852333 
L 108.859432 152.352333 
L 110.359432 150.852333 
L 108.859432 149.352333 
L 107.359432 150.852333 
L 105.859432 149.352333 
L 104.359432 150.852333 
L 105.859432 152.352333 
L 104.359432 153.852333 
z
" style="fill:#2f9599;stroke:#ffffff;stroke-width:0.48;"/>
    <path clip-path="url(#pecedc6a725)" d="M 112.623068 155.352333 
L 114.123068 153.852333 
L 115.623068 155.352333 
L 117.123068 153.852333 
L 115.623068 152.352333 
L 117.123068 150.852333 
L 115.623068 149.352333 
L 114.123068 150.852333 
L 112.623068 149.352333 
L 111.123068 150.852333 
L 112.623068 152.352333 
L 111.123068 153.852333 
z
" style="fill:#2f9599;stroke:#ffffff;stroke-width:0.48;"/>
    <path clip-path="url(#pecedc6a725)" d="M 119.386705 146.312689 
L 120.886705 144.812689 
L 122.386705 146.312689 
L 123.886705 144.812689 
L 122.386705 143.312689 
L 123.886705 141.812689 
L 122.386705 140.312689 
L 120.886705 141.812689 
L 119.386705 140.312689 
L 117.886705 141.812689 
L 119.386705 143.312689 
L 117.886705 144.812689 
z
" style="fill:#2f9599;stroke:#ffffff;stroke-width:0.48;"/>
    <path clip-path="url(#pecedc6a725)" d="M 126.150341 126.930441 
L 127.650341 125.430441 
L 129.150341 126.930441 
L 130.650341 125.430441 
L 129.150341 123.930441 
L 130.650341 122.430441 
L 129.150341 120.930441 
L 127.650341 122.430441 
L 126.150341 120.930441 
L 124.650341 122.430441 
L 126.150341 123.930441 
L 124.650341 125.430441 
z
" style="fill:#2f9599;stroke:#ffffff;stroke-width:0.48;"/>
    <path clip-path="url(#pecedc6a725)" d="M 132.913977 185.012793 
L 134.413977 183.512793 
L 135.913977 185.012793 
L 137.413977 183.512793 
L 135.913977 182.012793 
L 137.413977 180.512793 
L 135.913977 179.012793 
L 134.413977 180.512793 
L 132.913977 179.012793 
L 131.413977 180.512793 
L 132.913977 182.012793 
L 131.413977 183.512793 
z
" style="fill:#2f9599;stroke:#ffffff;stroke-width:0.48;"/>
    <path clip-path="url(#pecedc6a725)" d="M 139.677614 185.012793 
L 141.177614 183.512793 
L 142.677614 185.012793 
L 144.177614 183.512793 
L 142.677614 182.012793 
L 144.177614 180.512793 
L 142.677614 179.012793 
L 141.177614 180.512793 
L 139.677614 179.012793 
L 138.177614 180.512793 
L 139.677614 182.012793 
L 138.177614 183.512793 
z
" style="fill:#2f9599;stroke:#ffffff;stroke-width:0.48;"/>
    <path clip-path="url(#pecedc6a725)" d="M 146.44125 185.012793 
L 147.94125 183.512793 
L 149.44125 185.012793 
L 150.94125 183.512793 
L 149.44125 182.012793 
L 150.94125 180.512793 
L 149.44125 179.012793 
L 147.94125 180.512793 
L 146.44125 179.012793 
L 144.94125 180.512793 
L 146.44125 182.012793 
L 144.94125 183.512793 
z
" style="fill:#2f9599;stroke:#ffffff;stroke-width:0.48;"/>
    <path clip-path="url(#pecedc6a725)" d="M 153.204886 185.012793 
L 154.704886 183.512793 
L 156.204886 185.012793 
L 157.704886 183.512793 
L 156.204886 182.012793 
L 157.704886 180.512793 
L 156.204886 179.012793 
L 154.704886 180.512793 
L 153.204886 179.012793 
L 151.704886 180.512793 
L 153.204886 182.012793 
L 151.704886 183.512793 
z
" style="fill:#2f9599;stroke:#ffffff;stroke-width:0.48;"/>
    <path clip-path="url(#pecedc6a725)" d="M 159.968523 179.732579 
L 161.468523 178.232579 
L 162.968523 179.732579 
L 164.468523 178.232579 
L 162.968523 176.732579 
L 164.468523 175.232579 
L 162.968523 173.732579 
L 161.468523 175.232579 
L 159.968523 173.732579 
L 158.468523 175.232579 
L 159.968523 176.732579 
L 158.468523 178.232579 
z
" style="fill:#2f9599;stroke:#ffffff;stroke-width:0.48;"/>
    <path clip-path="url(#pecedc6a725)" d="M 166.732159 264.216 
L 168.232159 262.716 
L 169.732159 264.216 
L 171.232159 262.716 
L 169.732159 261.216 
L 171.232159 259.716 
L 169.732159 258.216 
L 168.232159 259.716 
L 166.732159 258.216 
L 165.232159 259.716 
L 166.732159 261.216 
L 165.232159 262.716 
z
" style="fill:#2f9599;stroke:#ffffff;stroke-width:0.48;"/>
    <path clip-path="url(#pecedc6a725)" d="M 173.495795 264.216 
L 174.995795 262.716 
L 176.495795 264.216 
L 177.995795 262.716 
L 176.495795 261.216 
L 177.995795 259.716 
L 176.495795 258.216 
L 174.995795 259.716 
L 173.495795 258.216 
L 171.995795 259.716 
L 173.495795 261.216 
L 171.995795 262.716 
z
" style="fill:#2f9599;stroke:#ffffff;stroke-width:0.48;"/>
    <path clip-path="url(#pecedc6a725)" d="M 180.259432 264.216 
L 181.759432 262.716 
L 183.259432 264.216 
L 184.759432 262.716 
L 183.259432 261.216 
L 184.759432 259.716 
L 183.259432 258.216 
L 181.759432 259.716 
L 180.259432 258.216 
L 178.759432 259.716 
L 180.259432 261.216 
L 178.759432 262.716 
z
" style="fill:#2f9599;stroke:#ffffff;stroke-width:0.48;"/>
    <path clip-path="url(#pecedc6a725)" d="M 187.023068 264.216 
L 188.523068 262.716 
L 190.023068 264.216 
L 191.523068 262.716 
L 190.023068 261.216 
L 191.523068 259.716 
L 190.023068 258.216 
L 188.523068 259.716 
L 187.023068 258.216 
L 185.523068 259.716 
L 187.023068 261.216 
L 185.523068 262.716 
z
" style="fill:#2f9599;stroke:#ffffff;stroke-width:0.48;"/>
    <path clip-path="url(#pecedc6a725)" d="M 193.786705 264.216 
L 195.286705 262.716 
L 196.786705 264.216 
L 198.286705 262.716 
L 196.786705 261.216 
L 198.286705 259.716 
L 196.786705 258.216 
L 195.286705 259.716 
L 193.786705 258.216 
L 192.286705 259.716 
L 193.786705 261.216 
L 192.286705 262.716 
z
" style="fill:#2f9599;stroke:#ffffff;stroke-width:0.48;"/>
    <path clip-path="url(#pecedc6a725)" d="M 200.550341 264.216 
L 202.050341 262.716 
L 203.550341 264.216 
L 205.050341 262.716 
L 203.550341 261.216 
L 205.050341 259.716 
L 203.550341 258.216 
L 202.050341 259.716 
L 200.550341 258.216 
L 199.050341 259.716 
L 200.550341 261.216 
L 199.050341 262.716 
z
" style="fill:#2f9599;stroke:#ffffff;stroke-width:0.48;"/>
    <path clip-path="url(#pecedc6a725)" d="M 207.313977 264.216 
L 208.813977 262.716 
L 210.313977 264.216 
L 211.813977 262.716 
L 210.313977 261.216 
L 211.813977 259.716 
L 210.313977 258.216 
L 208.813977 259.716 
L 207.313977 258.216 
L 205.813977 259.716 
L 207.313977 261.216 
L 205.813977 262.716 
z
" style="fill:#2f9599;stroke:#ffffff;stroke-width:0.48;"/>
    <path clip-path="url(#pecedc6a725)" d="M 214.077614 264.216 
L 215.577614 262.716 
L 217.077614 264.216 
L 218.577614 262.716 
L 217.077614 261.216 
L 218.577614 259.716 
L 217.077614 258.216 
L 215.577614 259.716 
L 214.077614 258.216 
L 212.577614 259.716 
L 214.077614 261.216 
L 212.577614 262.716 
z
" style="fill:#2f9599;stroke:#ffffff;stroke-width:0.48;"/>
    <path clip-path="url(#pecedc6a725)" d="M 220.84125 264.216 
L 222.34125 262.716 
L 223.84125 264.216 
L 225.34125 262.716 
L 223.84125 261.216 
L 225.34125 259.716 
L 223.84125 258.216 
L 222.34125 259.716 
L 220.84125 258.216 
L 219.34125 259.716 
L 220.84125 261.216 
L 219.34125 262.716 
z
" style="fill:#2f9599;stroke:#ffffff;stroke-width:0.48;"/>
    <path clip-path="url(#pecedc6a725)" d="M 227.604886 264.216 
L 229.104886 262.716 
L 230.604886 264.216 
L 232.104886 262.716 
L 230.604886 261.216 
L 232.104886 259.716 
L 230.604886 258.216 
L 229.104886 259.716 
L 227.604886 258.216 
L 226.104886 259.716 
L 227.604886 261.216 
L 226.104886 262.716 
z
" style="fill:#2f9599;stroke:#ffffff;stroke-width:0.48;"/>
    <path clip-path="url(#pecedc6a725)" d="M 234.368523 264.216 
L 235.868523 262.716 
L 237.368523 264.216 
L 238.868523 262.716 
L 237.368523 261.216 
L 238.868523 259.716 
L 237.368523 258.216 
L 235.868523 259.716 
L 234.368523 258.216 
L 232.868523 259.716 
L 234.368523 261.216 
L 232.868523 262.716 
z
" style="fill:#2f9599;stroke:#ffffff;stroke-width:0.48;"/>
    <path clip-path="url(#pecedc6a725)" d="M 241.132159 264.216 
L 242.632159 262.716 
L 244.132159 264.216 
L 245.632159 262.716 
L 244.132159 261.216 
L 245.632159 259.716 
L 244.132159 258.216 
L 242.632159 259.716 
L 241.132159 258.216 
L 239.632159 259.716 
L 241.132159 261.216 
L 239.632159 262.716 
z
" style="fill:#2f9599;stroke:#ffffff;stroke-width:0.48;"/>
    <path clip-path="url(#pecedc6a725)" d="M 247.895795 264.216 
L 249.395795 262.716 
L 250.895795 264.216 
L 252.395795 262.716 
L 250.895795 261.216 
L 252.395795 259.716 
L 250.895795 258.216 
L 249.395795 259.716 
L 247.895795 258.216 
L 246.395795 259.716 
L 247.895795 261.216 
L 246.395795 262.716 
z
" style="fill:#2f9599;stroke:#ffffff;stroke-width:0.48;"/>
    <path clip-path="url(#pecedc6a725)" d="M 254.659432 264.216 
L 256.159432 262.716 
L 257.659432 264.216 
L 259.159432 262.716 
L 257.659432 261.216 
L 259.159432 259.716 
L 257.659432 258.216 
L 256.159432 259.716 
L 254.659432 258.216 
L 253.159432 259.716 
L 254.659432 261.216 
L 253.159432 262.716 
z
" style="fill:#2f9599;stroke:#ffffff;stroke-width:0.48;"/>
    <path clip-path="url(#pecedc6a725)" d="M 261.423068 264.216 
L 262.923068 262.716 
L 264.423068 264.216 
L 265.923068 262.716 
L 264.423068 261.216 
L 265.923068 259.716 
L 264.423068 258.216 
L 262.923068 259.716 
L 261.423068 258.216 
L 259.923068 259.716 
L 261.423068 261.216 
L 259.923068 262.716 
z
" style="fill:#2f9599;stroke:#ffffff;stroke-width:0.48;"/>
    <path clip-path="url(#pecedc6a725)" d="M 268.186705 264.216 
L 269.686705 262.716 
L 271.186705 264.216 
L 272.686705 262.716 
L 271.186705 261.216 
L 272.686705 259.716 
L 271.186705 258.216 
L 269.686705 259.716 
L 268.186705 258.216 
L 266.686705 259.716 
L 268.186705 261.216 
L 266.686705 262.716 
z
" style="fill:#2f9599;stroke:#ffffff;stroke-width:0.48;"/>
    <path clip-path="url(#pecedc6a725)" d="M 274.950341 264.216 
L 276.450341 262.716 
L 277.950341 264.216 
L 279.450341 262.716 
L 277.950341 261.216 
L 279.450341 259.716 
L 277.950341 258.216 
L 276.450341 259.716 
L 274.950341 258.216 
L 273.450341 259.716 
L 274.950341 261.216 
L 273.450341 262.716 
z
" style="fill:#2f9599;stroke:#ffffff;stroke-width:0.48;"/>
    <path clip-path="url(#pecedc6a725)" d="M 281.713977 264.216 
L 283.213977 262.716 
L 284.713977 264.216 
L 286.213977 262.716 
L 284.713977 261.216 
L 286.213977 259.716 
L 284.713977 258.216 
L 283.213977 259.716 
L 281.713977 258.216 
L 280.213977 259.716 
L 281.713977 261.216 
L 280.213977 262.716 
z
" style="fill:#2f9599;stroke:#ffffff;stroke-width:0.48;"/>
    <path clip-path="url(#pecedc6a725)" d="M 288.477614 264.216 
L 289.977614 262.716 
L 291.477614 264.216 
L 292.977614 262.716 
L 291.477614 261.216 
L 292.977614 259.716 
L 291.477614 258.216 
L 289.977614 259.716 
L 288.477614 258.216 
L 286.977614 259.716 
L 288.477614 261.216 
L 286.977614 262.716 
z
" style="fill:#2f9599;stroke:#ffffff;stroke-width:0.48;"/>
    <path clip-path="url(#pecedc6a725)" d="M 295.24125 264.216 
L 296.74125 262.716 
L 298.24125 264.216 
L 299.74125 262.716 
L 298.24125 261.216 
L 299.74125 259.716 
L 298.24125 258.216 
L 296.74125 259.716 
L 295.24125 258.216 
L 293.74125 259.716 
L 295.24125 261.216 
L 293.74125 262.716 
z
" style="fill:#2f9599;stroke:#ffffff;stroke-width:0.48;"/>
    <path clip-path="url(#pecedc6a725)" d="M 302.004886 264.216 
L 303.504886 262.716 
L 305.004886 264.216 
L 306.504886 262.716 
L 305.004886 261.216 
L 306.504886 259.716 
L 305.004886 258.216 
L 303.504886 259.716 
L 302.004886 258.216 
L 300.504886 259.716 
L 302.004886 261.216 
L 300.504886 262.716 
z
" style="fill:#2f9599;stroke:#ffffff;stroke-width:0.48;"/>
    <path clip-path="url(#pecedc6a725)" d="M 308.768523 264.216 
L 310.268523 262.716 
L 311.768523 264.216 
L 313.268523 262.716 
L 311.768523 261.216 
L 313.268523 259.716 
L 311.768523 258.216 
L 310.268523 259.716 
L 308.768523 258.216 
L 307.268523 259.716 
L 308.768523 261.216 
L 307.268523 262.716 
z
" style="fill:#2f9599;stroke:#ffffff;stroke-width:0.48;"/>
    <path clip-path="url(#pecedc6a725)" d="M 315.532159 264.216 
L 317.032159 262.716 
L 318.532159 264.216 
L 320.032159 262.716 
L 318.532159 261.216 
L 320.032159 259.716 
L 318.532159 258.216 
L 317.032159 259.716 
L 315.532159 258.216 
L 314.032159 259.716 
L 315.532159 261.216 
L 314.032159 262.716 
z
" style="fill:#2f9599;stroke:#ffffff;stroke-width:0.48;"/>
    <path clip-path="url(#pecedc6a725)" d="M 322.295795 264.216 
L 323.795795 262.716 
L 325.295795 264.216 
L 326.795795 262.716 
L 325.295795 261.216 
L 326.795795 259.716 
L 325.295795 258.216 
L 323.795795 259.716 
L 322.295795 258.216 
L 320.795795 259.716 
L 322.295795 261.216 
L 320.795795 262.716 
z
" style="fill:#2f9599;stroke:#ffffff;stroke-width:0.48;"/>
    <path clip-path="url(#pecedc6a725)" d="M 329.059432 264.216 
L 330.559432 262.716 
L 332.059432 264.216 
L 333.559432 262.716 
L 332.059432 261.216 
L 333.559432 259.716 
L 332.059432 258.216 
L 330.559432 259.716 
L 329.059432 258.216 
L 327.559432 259.716 
L 329.059432 261.216 
L 327.559432 262.716 
z
" style="fill:#2f9599;stroke:#ffffff;stroke-width:0.48;"/>
    <path clip-path="url(#pecedc6a725)" d="M 335.823068 264.216 
L 337.323068 262.716 
L 338.823068 264.216 
L 340.323068 262.716 
L 338.823068 261.216 
L 340.323068 259.716 
L 338.823068 258.216 
L 337.323068 259.716 
L 335.823068 258.216 
L 334.323068 259.716 
L 335.823068 261.216 
L 334.323068 262.716 
z
" style="fill:#2f9599;stroke:#ffffff;stroke-width:0.48;"/>
    <path clip-path="url(#pecedc6a725)" d="M 342.586705 264.216 
L 344.086705 262.716 
L 345.586705 264.216 
L 347.086705 262.716 
L 345.586705 261.216 
L 347.086705 259.716 
L 345.586705 258.216 
L 344.086705 259.716 
L 342.586705 258.216 
L 341.086705 259.716 
L 342.586705 261.216 
L 341.086705 262.716 
z
" style="fill:#2f9599;stroke:#ffffff;stroke-width:0.48;"/>
    <path clip-path="url(#pecedc6a725)" d="M 349.350341 264.216 
L 350.850341 262.716 
L 352.350341 264.216 
L 353.850341 262.716 
L 352.350341 261.216 
L 353.850341 259.716 
L 352.350341 258.216 
L 350.850341 259.716 
L 349.350341 258.216 
L 347.850341 259.716 
L 349.350341 261.216 
L 347.850341 262.716 
z
" style="fill:#2f9599;stroke:#ffffff;stroke-width:0.48;"/>
    <path clip-path="url(#pecedc6a725)" d="M 356.113977 264.216 
L 357.613977 262.716 
L 359.113977 264.216 
L 360.613977 262.716 
L 359.113977 261.216 
L 360.613977 259.716 
L 359.113977 258.216 
L 357.613977 259.716 
L 356.113977 258.216 
L 354.613977 259.716 
L 356.113977 261.216 
L 354.613977 262.716 
z
" style="fill:#2f9599;stroke:#ffffff;stroke-width:0.48;"/>
    <path clip-path="url(#pecedc6a725)" d="M 362.877614 264.216 
L 364.377614 262.716 
L 365.877614 264.216 
L 367.377614 262.716 
L 365.877614 261.216 
L 367.377614 259.716 
L 365.877614 258.216 
L 364.377614 259.716 
L 362.877614 258.216 
L 361.377614 259.716 
L 362.877614 261.216 
L 361.377614 262.716 
z
" style="fill:#2f9599;stroke:#ffffff;stroke-width:0.48;"/>
    <path clip-path="url(#pecedc6a725)" d="M 369.64125 264.216 
L 371.14125 262.716 
L 372.64125 264.216 
L 374.14125 262.716 
L 372.64125 261.216 
L 374.14125 259.716 
L 372.64125 258.216 
L 371.14125 259.716 
L 369.64125 258.216 
L 368.14125 259.716 
L 369.64125 261.216 
L 368.14125 262.716 
z
" style="fill:#2f9599;stroke:#ffffff;stroke-width:0.48;"/>
    <path clip-path="url(#pecedc6a725)" d="M 376.404886 264.216 
L 377.904886 262.716 
L 379.404886 264.216 
L 380.904886 262.716 
L 379.404886 261.216 
L 380.904886 259.716 
L 379.404886 258.216 
L 377.904886 259.716 
L 376.404886 258.216 
L 374.904886 259.716 
L 376.404886 261.216 
L 374.904886 262.716 
z
" style="fill:#2f9599;stroke:#ffffff;stroke-width:0.48;"/>
    <path clip-path="url(#pecedc6a725)" d="M 383.168523 264.216 
L 384.668523 262.716 
L 386.168523 264.216 
L 387.668523 262.716 
L 386.168523 261.216 
L 387.668523 259.716 
L 386.168523 258.216 
L 384.668523 259.716 
L 383.168523 258.216 
L 381.668523 259.716 
L 383.168523 261.216 
L 381.668523 262.716 
z
" style="fill:#2f9599;stroke:#ffffff;stroke-width:0.48;"/>
    <path clip-path="url(#pecedc6a725)" d="M 57.892657 17.17468 
L 57.892657 21.41732 
L 62.135298 21.41732 
L 62.135298 17.17468 
z
" style="fill:#a7226e;stroke:#ffffff;stroke-width:0.48;"/>
    <path clip-path="url(#pecedc6a725)" d="M 64.656293 17.17468 
L 64.656293 21.41732 
L 68.898934 21.41732 
L 68.898934 17.17468 
z
" style="fill:#a7226e;stroke:#ffffff;stroke-width:0.48;"/>
    <path clip-path="url(#pecedc6a725)" d="M 71.41993 17.17468 
L 71.41993 21.41732 
L 75.66257 21.41732 
L 75.66257 17.17468 
z
" style="fill:#a7226e;stroke:#ffffff;stroke-width:0.48;"/>
    <path clip-path="url(#pecedc6a725)" d="M 78.183566 17.17468 
L 78.183566 21.41732 
L 82.426207 21.41732 
L 82.426207 17.17468 
z
" style="fill:#a7226e;stroke:#ffffff;stroke-width:0.48;"/>
    <path clip-path="url(#pecedc6a725)" d="M 84.947202 26.118715 
L 84.947202 30.361356 
L 89.189843 30.361356 
L 89.189843 26.118715 
z
" style="fill:#a7226e;stroke:#ffffff;stroke-width:0.48;"/>
    <path clip-path="url(#pecedc6a725)" d="M 91.710839 44.006787 
L 91.710839 48.249427 
L 95.953479 48.249427 
L 95.953479 44.006787 
z
" style="fill:#a7226e;stroke:#ffffff;stroke-width:0.48;"/>
    <path clip-path="url(#pecedc6a725)" d="M 98.474475 44.006787 
L 98.474475 48.249427 
L 102.717116 48.249427 
L 102.717116 44.006787 
z
" style="fill:#a7226e;stroke:#ffffff;stroke-width:0.48;"/>
    <path clip-path="url(#pecedc6a725)" d="M 105.238111 44.006787 
L 105.238111 48.249427 
L 109.480752 48.249427 
L 109.480752 44.006787 
z
" style="fill:#a7226e;stroke:#ffffff;stroke-width:0.48;"/>
    <path clip-path="url(#pecedc6a725)" d="M 112.001748 62.070231 
L 112.001748 66.312872 
L 116.244389 66.312872 
L 116.244389 62.070231 
z
" style="fill:#a7226e;stroke:#ffffff;stroke-width:0.48;"/>
    <path clip-path="url(#pecedc6a725)" d="M 118.765384 49.510808 
L 118.765384 53.753449 
L 123.008025 53.753449 
L 123.008025 49.510808 
z
" style="fill:#a7226e;stroke:#ffffff;stroke-width:0.48;"/>
    <path clip-path="url(#pecedc6a725)" d="M 125.529021 49.510808 
L 125.529021 53.753449 
L 129.771661 53.753449 
L 129.771661 49.510808 
z
" style="fill:#a7226e;stroke:#ffffff;stroke-width:0.48;"/>
    <path clip-path="url(#pecedc6a725)" d="M 132.292657 62.232369 
L 132.292657 66.475009 
L 136.535298 66.475009 
L 136.535298 62.232369 
z
" style="fill:#a7226e;stroke:#ffffff;stroke-width:0.48;"/>
    <path clip-path="url(#pecedc6a725)" d="M 139.056293 74.192907 
L 139.056293 78.435548 
L 143.298934 78.435548 
L 143.298934 74.192907 
z
" style="fill:#a7226e;stroke:#ffffff;stroke-width:0.48;"/>
    <path clip-path="url(#pecedc6a725)" d="M 145.81993 84.937119 
L 145.81993 89.17976 
L 150.06257 89.17976 
L 150.06257 84.937119 
z
" style="fill:#a7226e;stroke:#ffffff;stroke-width:0.48;"/>
    <path clip-path="url(#pecedc6a725)" d="M 152.583566 86.910207 
L 152.583566 91.152848 
L 156.826207 91.152848 
L 156.826207 86.910207 
z
" style="fill:#a7226e;stroke:#ffffff;stroke-width:0.48;"/>
    <path clip-path="url(#pecedc6a725)" d="M 159.347202 106.208489 
L 159.347202 110.45113 
L 163.589843 110.45113 
L 163.589843 106.208489 
z
" style="fill:#a7226e;stroke:#ffffff;stroke-width:0.48;"/>
    <path clip-path="url(#pecedc6a725)" d="M 166.110839 106.208489 
L 166.110839 110.45113 
L 170.353479 110.45113 
L 170.353479 106.208489 
z
" style="fill:#a7226e;stroke:#ffffff;stroke-width:0.48;"/>
    <path clip-path="url(#pecedc6a725)" d="M 172.874475 110.19265 
L 172.874475 114.435291 
L 177.117116 114.435291 
L 177.117116 110.19265 
z
" style="fill:#a7226e;stroke:#ffffff;stroke-width:0.48;"/>
    <path clip-path="url(#pecedc6a725)" d="M 179.638111 66.366876 
L 179.638111 70.609516 
L 183.880752 70.609516 
L 183.880752 66.366876 
z
" style="fill:#a7226e;stroke:#ffffff;stroke-width:0.48;"/>
    <path clip-path="url(#pecedc6a725)" d="M 186.401748 53.476942 
L 186.401748 57.719583 
L 190.644389 57.719583 
L 190.644389 53.476942 
z
" style="fill:#a7226e;stroke:#ffffff;stroke-width:0.48;"/>
    <path clip-path="url(#pecedc6a725)" d="M 193.165384 59.921909 
L 193.165384 64.164549 
L 197.408025 64.164549 
L 197.408025 59.921909 
z
" style="fill:#a7226e;stroke:#ffffff;stroke-width:0.48;"/>
    <path clip-path="url(#pecedc6a725)" d="M 199.929021 63.280553 
L 199.929021 67.523194 
L 204.171661 67.523194 
L 204.171661 63.280553 
z
" style="fill:#a7226e;stroke:#ffffff;stroke-width:0.48;"/>
    <path clip-path="url(#pecedc6a725)" d="M 206.692657 66.366876 
L 206.692657 70.609516 
L 210.935298 70.609516 
L 210.935298 66.366876 
z
" style="fill:#a7226e;stroke:#ffffff;stroke-width:0.48;"/>
    <path clip-path="url(#pecedc6a725)" d="M 213.456293 137.583759 
L 213.456293 141.8264 
L 217.698934 141.8264 
L 217.698934 137.583759 
z
" style="fill:#a7226e;stroke:#ffffff;stroke-width:0.48;"/>
    <path clip-path="url(#pecedc6a725)" d="M 220.21993 115.670872 
L 220.21993 119.913513 
L 224.46257 119.913513 
L 224.46257 115.670872 
z
" style="fill:#a7226e;stroke:#ffffff;stroke-width:0.48;"/>
    <path clip-path="url(#pecedc6a725)" d="M 226.983566 119.812942 
L 226.983566 124.055583 
L 231.226207 124.055583 
L 231.226207 119.812942 
z
" style="fill:#a7226e;stroke:#ffffff;stroke-width:0.48;"/>
    <path clip-path="url(#pecedc6a725)" d="M 233.747202 93.089909 
L 233.747202 97.33255 
L 237.989843 97.33255 
L 237.989843 93.089909 
z
" style="fill:#a7226e;stroke:#ffffff;stroke-width:0.48;"/>
    <path clip-path="url(#pecedc6a725)" d="M 240.510839 100.688265 
L 240.510839 104.930906 
L 244.753479 104.930906 
L 244.753479 100.688265 
z
" style="fill:#a7226e;stroke:#ffffff;stroke-width:0.48;"/>
    <path clip-path="url(#pecedc6a725)" d="M 247.274475 95.408052 
L 247.274475 99.650692 
L 251.517116 99.650692 
L 251.517116 95.408052 
z
" style="fill:#a7226e;stroke:#ffffff;stroke-width:0.48;"/>
    <path clip-path="url(#pecedc6a725)" d="M 254.038111 116.528907 
L 254.038111 120.771548 
L 258.280752 120.771548 
L 258.280752 116.528907 
z
" style="fill:#a7226e;stroke:#ffffff;stroke-width:0.48;"/>
    <path clip-path="url(#pecedc6a725)" d="M 260.801748 121.809121 
L 260.801748 126.051761 
L 265.044389 126.051761 
L 265.044389 121.809121 
z
" style="fill:#a7226e;stroke:#ffffff;stroke-width:0.48;"/>
    <path clip-path="url(#pecedc6a725)" d="M 267.565384 121.809121 
L 267.565384 126.051761 
L 271.808025 126.051761 
L 271.808025 121.809121 
z
" style="fill:#a7226e;stroke:#ffffff;stroke-width:0.48;"/>
    <path clip-path="url(#pecedc6a725)" d="M 274.329021 121.809121 
L 274.329021 126.051761 
L 278.571661 126.051761 
L 278.571661 121.809121 
z
" style="fill:#a7226e;stroke:#ffffff;stroke-width:0.48;"/>
    <path clip-path="url(#pecedc6a725)" d="M 281.092657 227.413397 
L 281.092657 231.656037 
L 285.335298 231.656037 
L 285.335298 227.413397 
z
" style="fill:#a7226e;stroke:#ffffff;stroke-width:0.48;"/>
    <path clip-path="url(#pecedc6a725)" d="M 287.856293 227.413397 
L 287.856293 231.656037 
L 292.098934 231.656037 
L 292.098934 227.413397 
z
" style="fill:#a7226e;stroke:#ffffff;stroke-width:0.48;"/>
    <path clip-path="url(#pecedc6a725)" d="M 294.61993 227.413397 
L 294.61993 231.656037 
L 298.86257 231.656037 
L 298.86257 227.413397 
z
" style="fill:#a7226e;stroke:#ffffff;stroke-width:0.48;"/>
    <path clip-path="url(#pecedc6a725)" d="M 301.383566 227.413397 
L 301.383566 231.656037 
L 305.626207 231.656037 
L 305.626207 227.413397 
z
" style="fill:#a7226e;stroke:#ffffff;stroke-width:0.48;"/>
    <path clip-path="url(#pecedc6a725)" d="M 308.147202 227.413397 
L 308.147202 231.656037 
L 312.389843 231.656037 
L 312.389843 227.413397 
z
" style="fill:#a7226e;stroke:#ffffff;stroke-width:0.48;"/>
    <path clip-path="url(#pecedc6a725)" d="M 314.910839 227.413397 
L 314.910839 231.656037 
L 319.153479 231.656037 
L 319.153479 227.413397 
z
" style="fill:#a7226e;stroke:#ffffff;stroke-width:0.48;"/>
    <path clip-path="url(#pecedc6a725)" d="M 321.674475 227.413397 
L 321.674475 231.656037 
L 325.917116 231.656037 
L 325.917116 227.413397 
z
" style="fill:#a7226e;stroke:#ffffff;stroke-width:0.48;"/>
    <path clip-path="url(#pecedc6a725)" d="M 328.438111 227.413397 
L 328.438111 231.656037 
L 332.680752 231.656037 
L 332.680752 227.413397 
z
" style="fill:#a7226e;stroke:#ffffff;stroke-width:0.48;"/>
    <path clip-path="url(#pecedc6a725)" d="M 335.201748 227.413397 
L 335.201748 231.656037 
L 339.444389 231.656037 
L 339.444389 227.413397 
z
" style="fill:#a7226e;stroke:#ffffff;stroke-width:0.48;"/>
    <path clip-path="url(#pecedc6a725)" d="M 341.965384 227.413397 
L 341.965384 231.656037 
L 346.208025 231.656037 
L 346.208025 227.413397 
z
" style="fill:#a7226e;stroke:#ffffff;stroke-width:0.48;"/>
    <path clip-path="url(#pecedc6a725)" d="M 348.729021 227.413397 
L 348.729021 231.656037 
L 352.971661 231.656037 
L 352.971661 227.413397 
z
" style="fill:#a7226e;stroke:#ffffff;stroke-width:0.48;"/>
    <path clip-path="url(#pecedc6a725)" d="M 355.492657 227.413397 
L 355.492657 231.656037 
L 359.735298 231.656037 
L 359.735298 227.413397 
z
" style="fill:#a7226e;stroke:#ffffff;stroke-width:0.48;"/>
    <path clip-path="url(#pecedc6a725)" d="M 362.256293 227.413397 
L 362.256293 231.656037 
L 366.498934 231.656037 
L 366.498934 227.413397 
z
" style="fill:#a7226e;stroke:#ffffff;stroke-width:0.48;"/>
    <path clip-path="url(#pecedc6a725)" d="M 369.01993 227.413397 
L 369.01993 231.656037 
L 373.26257 231.656037 
L 373.26257 227.413397 
z
" style="fill:#a7226e;stroke:#ffffff;stroke-width:0.48;"/>
    <path clip-path="url(#pecedc6a725)" d="M 375.783566 227.413397 
L 375.783566 231.656037 
L 380.026207 231.656037 
L 380.026207 227.413397 
z
" style="fill:#a7226e;stroke:#ffffff;stroke-width:0.48;"/>
    <path clip-path="url(#pecedc6a725)" d="M 382.547202 227.413397 
L 382.547202 231.656037 
L 386.789843 231.656037 
L 386.789843 227.413397 
z
" style="fill:#a7226e;stroke:#ffffff;stroke-width:0.48;"/>
   </g>
   <g id="PathCollection_2"/>
   <g id="PathCollection_3"/>
   <g id="PathCollection_4"/>
   <g id="matplotlib.axis_1">
    <g id="xtick_1">
     <g id="line2d_1">
      <defs>
       <path d="M 0 0 
L 0 3.5 
" id="m1938b663f3" style="stroke:#000000;stroke-width:0.8;"/>
      </defs>
      <g>
       <use style="stroke:#000000;stroke-width:0.8;" x="53.250341" xlink:href="#m1938b663f3" y="273.312"/>
      </g>
     </g>
     <g id="text_1">
      <!-- 0.0 -->
      <g transform="translate(45.298778 287.910437)scale(0.1 -0.1)">
       <defs>
        <path d="M 31.78125 66.40625 
Q 24.171875 66.40625 20.328125 58.90625 
Q 16.5 51.421875 16.5 36.375 
Q 16.5 21.390625 20.328125 13.890625 
Q 24.171875 6.390625 31.78125 6.390625 
Q 39.453125 6.390625 43.28125 13.890625 
Q 47.125 21.390625 47.125 36.375 
Q 47.125 51.421875 43.28125 58.90625 
Q 39.453125 66.40625 31.78125 66.40625 
z
M 31.78125 74.21875 
Q 44.046875 74.21875 50.515625 64.515625 
Q 56.984375 54.828125 56.984375 36.375 
Q 56.984375 17.96875 50.515625 8.265625 
Q 44.046875 -1.421875 31.78125 -1.421875 
Q 19.53125 -1.421875 13.0625 8.265625 
Q 6.59375 17.96875 6.59375 36.375 
Q 6.59375 54.828125 13.0625 64.515625 
Q 19.53125 74.21875 31.78125 74.21875 
z
" id="DejaVuSans-48"/>
        <path d="M 10.6875 12.40625 
L 21 12.40625 
L 21 0 
L 10.6875 0 
z
" id="DejaVuSans-46"/>
       </defs>
       <use xlink:href="#DejaVuSans-48"/>
       <use x="63.623047" xlink:href="#DejaVuSans-46"/>
       <use x="95.410156" xlink:href="#DejaVuSans-48"/>
      </g>
     </g>
    </g>
    <g id="xtick_2">
     <g id="line2d_2">
      <g>
       <use style="stroke:#000000;stroke-width:0.8;" x="120.886705" xlink:href="#m1938b663f3" y="273.312"/>
      </g>
     </g>
     <g id="text_2">
      <!-- 0.2 -->
      <g transform="translate(112.935142 287.910437)scale(0.1 -0.1)">
       <defs>
        <path d="M 19.1875 8.296875 
L 53.609375 8.296875 
L 53.609375 0 
L 7.328125 0 
L 7.328125 8.296875 
Q 12.9375 14.109375 22.625 23.890625 
Q 32.328125 33.6875 34.8125 36.53125 
Q 39.546875 41.84375 41.421875 45.53125 
Q 43.3125 49.21875 43.3125 52.78125 
Q 43.3125 58.59375 39.234375 62.25 
Q 35.15625 65.921875 28.609375 65.921875 
Q 23.96875 65.921875 18.8125 64.3125 
Q 13.671875 62.703125 7.8125 59.421875 
L 7.8125 69.390625 
Q 13.765625 71.78125 18.9375 73 
Q 24.125 74.21875 28.421875 74.21875 
Q 39.75 74.21875 46.484375 68.546875 
Q 53.21875 62.890625 53.21875 53.421875 
Q 53.21875 48.921875 51.53125 44.890625 
Q 49.859375 40.875 45.40625 35.40625 
Q 44.1875 33.984375 37.640625 27.21875 
Q 31.109375 20.453125 19.1875 8.296875 
z
" id="DejaVuSans-50"/>
       </defs>
       <use xlink:href="#DejaVuSans-48"/>
       <use x="63.623047" xlink:href="#DejaVuSans-46"/>
       <use x="95.410156" xlink:href="#DejaVuSans-50"/>
      </g>
     </g>
    </g>
    <g id="xtick_3">
     <g id="line2d_3">
      <g>
       <use style="stroke:#000000;stroke-width:0.8;" x="188.523068" xlink:href="#m1938b663f3" y="273.312"/>
      </g>
     </g>
     <g id="text_3">
      <!-- 0.4 -->
      <g transform="translate(180.571506 287.910437)scale(0.1 -0.1)">
       <defs>
        <path d="M 37.796875 64.3125 
L 12.890625 25.390625 
L 37.796875 25.390625 
z
M 35.203125 72.90625 
L 47.609375 72.90625 
L 47.609375 25.390625 
L 58.015625 25.390625 
L 58.015625 17.1875 
L 47.609375 17.1875 
L 47.609375 0 
L 37.796875 0 
L 37.796875 17.1875 
L 4.890625 17.1875 
L 4.890625 26.703125 
z
" id="DejaVuSans-52"/>
       </defs>
       <use xlink:href="#DejaVuSans-48"/>
       <use x="63.623047" xlink:href="#DejaVuSans-46"/>
       <use x="95.410156" xlink:href="#DejaVuSans-52"/>
      </g>
     </g>
    </g>
    <g id="xtick_4">
     <g id="line2d_4">
      <g>
       <use style="stroke:#000000;stroke-width:0.8;" x="256.159432" xlink:href="#m1938b663f3" y="273.312"/>
      </g>
     </g>
     <g id="text_4">
      <!-- 0.6 -->
      <g transform="translate(248.207869 287.910437)scale(0.1 -0.1)">
       <defs>
        <path d="M 33.015625 40.375 
Q 26.375 40.375 22.484375 35.828125 
Q 18.609375 31.296875 18.609375 23.390625 
Q 18.609375 15.53125 22.484375 10.953125 
Q 26.375 6.390625 33.015625 6.390625 
Q 39.65625 6.390625 43.53125 10.953125 
Q 47.40625 15.53125 47.40625 23.390625 
Q 47.40625 31.296875 43.53125 35.828125 
Q 39.65625 40.375 33.015625 40.375 
z
M 52.59375 71.296875 
L 52.59375 62.3125 
Q 48.875 64.0625 45.09375 64.984375 
Q 41.3125 65.921875 37.59375 65.921875 
Q 27.828125 65.921875 22.671875 59.328125 
Q 17.53125 52.734375 16.796875 39.40625 
Q 19.671875 43.65625 24.015625 45.921875 
Q 28.375 48.1875 33.59375 48.1875 
Q 44.578125 48.1875 50.953125 41.515625 
Q 57.328125 34.859375 57.328125 23.390625 
Q 57.328125 12.15625 50.6875 5.359375 
Q 44.046875 -1.421875 33.015625 -1.421875 
Q 20.359375 -1.421875 13.671875 8.265625 
Q 6.984375 17.96875 6.984375 36.375 
Q 6.984375 53.65625 15.1875 63.9375 
Q 23.390625 74.21875 37.203125 74.21875 
Q 40.921875 74.21875 44.703125 73.484375 
Q 48.484375 72.75 52.59375 71.296875 
z
" id="DejaVuSans-54"/>
       </defs>
       <use xlink:href="#DejaVuSans-48"/>
       <use x="63.623047" xlink:href="#DejaVuSans-46"/>
       <use x="95.410156" xlink:href="#DejaVuSans-54"/>
      </g>
     </g>
    </g>
    <g id="xtick_5">
     <g id="line2d_5">
      <g>
       <use style="stroke:#000000;stroke-width:0.8;" x="323.795795" xlink:href="#m1938b663f3" y="273.312"/>
      </g>
     </g>
     <g id="text_5">
      <!-- 0.8 -->
      <g transform="translate(315.844233 287.910437)scale(0.1 -0.1)">
       <defs>
        <path d="M 31.78125 34.625 
Q 24.75 34.625 20.71875 30.859375 
Q 16.703125 27.09375 16.703125 20.515625 
Q 16.703125 13.921875 20.71875 10.15625 
Q 24.75 6.390625 31.78125 6.390625 
Q 38.8125 6.390625 42.859375 10.171875 
Q 46.921875 13.96875 46.921875 20.515625 
Q 46.921875 27.09375 42.890625 30.859375 
Q 38.875 34.625 31.78125 34.625 
z
M 21.921875 38.8125 
Q 15.578125 40.375 12.03125 44.71875 
Q 8.5 49.078125 8.5 55.328125 
Q 8.5 64.0625 14.71875 69.140625 
Q 20.953125 74.21875 31.78125 74.21875 
Q 42.671875 74.21875 48.875 69.140625 
Q 55.078125 64.0625 55.078125 55.328125 
Q 55.078125 49.078125 51.53125 44.71875 
Q 48 40.375 41.703125 38.8125 
Q 48.828125 37.15625 52.796875 32.3125 
Q 56.78125 27.484375 56.78125 20.515625 
Q 56.78125 9.90625 50.3125 4.234375 
Q 43.84375 -1.421875 31.78125 -1.421875 
Q 19.734375 -1.421875 13.25 4.234375 
Q 6.78125 9.90625 6.78125 20.515625 
Q 6.78125 27.484375 10.78125 32.3125 
Q 14.796875 37.15625 21.921875 38.8125 
z
M 18.3125 54.390625 
Q 18.3125 48.734375 21.84375 45.5625 
Q 25.390625 42.390625 31.78125 42.390625 
Q 38.140625 42.390625 41.71875 45.5625 
Q 45.3125 48.734375 45.3125 54.390625 
Q 45.3125 60.0625 41.71875 63.234375 
Q 38.140625 66.40625 31.78125 66.40625 
Q 25.390625 66.40625 21.84375 63.234375 
Q 18.3125 60.0625 18.3125 54.390625 
z
" id="DejaVuSans-56"/>
       </defs>
       <use xlink:href="#DejaVuSans-48"/>
       <use x="63.623047" xlink:href="#DejaVuSans-46"/>
       <use x="95.410156" xlink:href="#DejaVuSans-56"/>
      </g>
     </g>
    </g>
    <g id="xtick_6">
     <g id="line2d_6">
      <g>
       <use style="stroke:#000000;stroke-width:0.8;" x="391.432159" xlink:href="#m1938b663f3" y="273.312"/>
      </g>
     </g>
     <g id="text_6">
      <!-- 1.0 -->
      <g transform="translate(383.480597 287.910437)scale(0.1 -0.1)">
       <defs>
        <path d="M 12.40625 8.296875 
L 28.515625 8.296875 
L 28.515625 63.921875 
L 10.984375 60.40625 
L 10.984375 69.390625 
L 28.421875 72.90625 
L 38.28125 72.90625 
L 38.28125 8.296875 
L 54.390625 8.296875 
L 54.390625 0 
L 12.40625 0 
z
" id="DejaVuSans-49"/>
       </defs>
       <use xlink:href="#DejaVuSans-49"/>
       <use x="63.623047" xlink:href="#DejaVuSans-46"/>
       <use x="95.410156" xlink:href="#DejaVuSans-48"/>
      </g>
     </g>
    </g>
    <g id="text_7">
     <!-- cutoff -->
     <g transform="translate(207.883438 301.588562)scale(0.1 -0.1)">
      <defs>
       <path d="M 48.78125 52.59375 
L 48.78125 44.1875 
Q 44.96875 46.296875 41.140625 47.34375 
Q 37.3125 48.390625 33.40625 48.390625 
Q 24.65625 48.390625 19.8125 42.84375 
Q 14.984375 37.3125 14.984375 27.296875 
Q 14.984375 17.28125 19.8125 11.734375 
Q 24.65625 6.203125 33.40625 6.203125 
Q 37.3125 6.203125 41.140625 7.25 
Q 44.96875 8.296875 48.78125 10.40625 
L 48.78125 2.09375 
Q 45.015625 0.34375 40.984375 -0.53125 
Q 36.96875 -1.421875 32.421875 -1.421875 
Q 20.0625 -1.421875 12.78125 6.34375 
Q 5.515625 14.109375 5.515625 27.296875 
Q 5.515625 40.671875 12.859375 48.328125 
Q 20.21875 56 33.015625 56 
Q 37.15625 56 41.109375 55.140625 
Q 45.0625 54.296875 48.78125 52.59375 
z
" id="DejaVuSans-99"/>
       <path d="M 8.5 21.578125 
L 8.5 54.6875 
L 17.484375 54.6875 
L 17.484375 21.921875 
Q 17.484375 14.15625 20.5 10.265625 
Q 23.53125 6.390625 29.59375 6.390625 
Q 36.859375 6.390625 41.078125 11.03125 
Q 45.3125 15.671875 45.3125 23.6875 
L 45.3125 54.6875 
L 54.296875 54.6875 
L 54.296875 0 
L 45.3125 0 
L 45.3125 8.40625 
Q 42.046875 3.421875 37.71875 1 
Q 33.40625 -1.421875 27.6875 -1.421875 
Q 18.265625 -1.421875 13.375 4.4375 
Q 8.5 10.296875 8.5 21.578125 
z
M 31.109375 56 
z
" id="DejaVuSans-117"/>
       <path d="M 18.3125 70.21875 
L 18.3125 54.6875 
L 36.8125 54.6875 
L 36.8125 47.703125 
L 18.3125 47.703125 
L 18.3125 18.015625 
Q 18.3125 11.328125 20.140625 9.421875 
Q 21.96875 7.515625 27.59375 7.515625 
L 36.8125 7.515625 
L 36.8125 0 
L 27.59375 0 
Q 17.1875 0 13.234375 3.875 
Q 9.28125 7.765625 9.28125 18.015625 
L 9.28125 47.703125 
L 2.6875 47.703125 
L 2.6875 54.6875 
L 9.28125 54.6875 
L 9.28125 70.21875 
z
" id="DejaVuSans-116"/>
       <path d="M 30.609375 48.390625 
Q 23.390625 48.390625 19.1875 42.75 
Q 14.984375 37.109375 14.984375 27.296875 
Q 14.984375 17.484375 19.15625 11.84375 
Q 23.34375 6.203125 30.609375 6.203125 
Q 37.796875 6.203125 41.984375 11.859375 
Q 46.1875 17.53125 46.1875 27.296875 
Q 46.1875 37.015625 41.984375 42.703125 
Q 37.796875 48.390625 30.609375 48.390625 
z
M 30.609375 56 
Q 42.328125 56 49.015625 48.375 
Q 55.71875 40.765625 55.71875 27.296875 
Q 55.71875 13.875 49.015625 6.21875 
Q 42.328125 -1.421875 30.609375 -1.421875 
Q 18.84375 -1.421875 12.171875 6.21875 
Q 5.515625 13.875 5.515625 27.296875 
Q 5.515625 40.765625 12.171875 48.375 
Q 18.84375 56 30.609375 56 
z
" id="DejaVuSans-111"/>
       <path d="M 37.109375 75.984375 
L 37.109375 68.5 
L 28.515625 68.5 
Q 23.6875 68.5 21.796875 66.546875 
Q 19.921875 64.59375 19.921875 59.515625 
L 19.921875 54.6875 
L 34.71875 54.6875 
L 34.71875 47.703125 
L 19.921875 47.703125 
L 19.921875 0 
L 10.890625 0 
L 10.890625 47.703125 
L 2.296875 47.703125 
L 2.296875 54.6875 
L 10.890625 54.6875 
L 10.890625 58.5 
Q 10.890625 67.625 15.140625 71.796875 
Q 19.390625 75.984375 28.609375 75.984375 
z
" id="DejaVuSans-102"/>
      </defs>
      <use xlink:href="#DejaVuSans-99"/>
      <use x="54.980469" xlink:href="#DejaVuSans-117"/>
      <use x="118.359375" xlink:href="#DejaVuSans-116"/>
      <use x="157.568359" xlink:href="#DejaVuSans-111"/>
      <use x="218.75" xlink:href="#DejaVuSans-102"/>
      <use x="253.955078" xlink:href="#DejaVuSans-102"/>
     </g>
    </g>
   </g>
   <g id="matplotlib.axis_2">
    <g id="ytick_1">
     <g id="line2d_7">
      <defs>
       <path d="M 0 0 
L -3.5 0 
" id="m38d87cd494" style="stroke:#000000;stroke-width:0.8;"/>
      </defs>
      <g>
       <use style="stroke:#000000;stroke-width:0.8;" x="43.78125" xlink:href="#m38d87cd494" y="243.791294"/>
      </g>
     </g>
     <g id="text_8">
      <!-- 0.1 -->
      <g transform="translate(20.878125 247.590513)scale(0.1 -0.1)">
       <use xlink:href="#DejaVuSans-48"/>
       <use x="63.623047" xlink:href="#DejaVuSans-46"/>
       <use x="95.410156" xlink:href="#DejaVuSans-49"/>
      </g>
     </g>
    </g>
    <g id="ytick_2">
     <g id="line2d_8">
      <g>
       <use style="stroke:#000000;stroke-width:0.8;" x="43.78125" xlink:href="#m38d87cd494" y="199.96552"/>
      </g>
     </g>
     <g id="text_9">
      <!-- 0.2 -->
      <g transform="translate(20.878125 203.764739)scale(0.1 -0.1)">
       <use xlink:href="#DejaVuSans-48"/>
       <use x="63.623047" xlink:href="#DejaVuSans-46"/>
       <use x="95.410156" xlink:href="#DejaVuSans-50"/>
      </g>
     </g>
    </g>
    <g id="ytick_3">
     <g id="line2d_9">
      <g>
       <use style="stroke:#000000;stroke-width:0.8;" x="43.78125" xlink:href="#m38d87cd494" y="156.139745"/>
      </g>
     </g>
     <g id="text_10">
      <!-- 0.3 -->
      <g transform="translate(20.878125 159.938964)scale(0.1 -0.1)">
       <defs>
        <path d="M 40.578125 39.3125 
Q 47.65625 37.796875 51.625 33 
Q 55.609375 28.21875 55.609375 21.1875 
Q 55.609375 10.40625 48.1875 4.484375 
Q 40.765625 -1.421875 27.09375 -1.421875 
Q 22.515625 -1.421875 17.65625 -0.515625 
Q 12.796875 0.390625 7.625 2.203125 
L 7.625 11.71875 
Q 11.71875 9.328125 16.59375 8.109375 
Q 21.484375 6.890625 26.8125 6.890625 
Q 36.078125 6.890625 40.9375 10.546875 
Q 45.796875 14.203125 45.796875 21.1875 
Q 45.796875 27.640625 41.28125 31.265625 
Q 36.765625 34.90625 28.71875 34.90625 
L 20.21875 34.90625 
L 20.21875 43.015625 
L 29.109375 43.015625 
Q 36.375 43.015625 40.234375 45.921875 
Q 44.09375 48.828125 44.09375 54.296875 
Q 44.09375 59.90625 40.109375 62.90625 
Q 36.140625 65.921875 28.71875 65.921875 
Q 24.65625 65.921875 20.015625 65.03125 
Q 15.375 64.15625 9.8125 62.3125 
L 9.8125 71.09375 
Q 15.4375 72.65625 20.34375 73.4375 
Q 25.25 74.21875 29.59375 74.21875 
Q 40.828125 74.21875 47.359375 69.109375 
Q 53.90625 64.015625 53.90625 55.328125 
Q 53.90625 49.265625 50.4375 45.09375 
Q 46.96875 40.921875 40.578125 39.3125 
z
" id="DejaVuSans-51"/>
       </defs>
       <use xlink:href="#DejaVuSans-48"/>
       <use x="63.623047" xlink:href="#DejaVuSans-46"/>
       <use x="95.410156" xlink:href="#DejaVuSans-51"/>
      </g>
     </g>
    </g>
    <g id="ytick_4">
     <g id="line2d_10">
      <g>
       <use style="stroke:#000000;stroke-width:0.8;" x="43.78125" xlink:href="#m38d87cd494" y="112.313971"/>
      </g>
     </g>
     <g id="text_11">
      <!-- 0.4 -->
      <g transform="translate(20.878125 116.113189)scale(0.1 -0.1)">
       <use xlink:href="#DejaVuSans-48"/>
       <use x="63.623047" xlink:href="#DejaVuSans-46"/>
       <use x="95.410156" xlink:href="#DejaVuSans-52"/>
      </g>
     </g>
    </g>
    <g id="ytick_5">
     <g id="line2d_11">
      <g>
       <use style="stroke:#000000;stroke-width:0.8;" x="43.78125" xlink:href="#m38d87cd494" y="68.488196"/>
      </g>
     </g>
     <g id="text_12">
      <!-- 0.5 -->
      <g transform="translate(20.878125 72.287415)scale(0.1 -0.1)">
       <defs>
        <path d="M 10.796875 72.90625 
L 49.515625 72.90625 
L 49.515625 64.59375 
L 19.828125 64.59375 
L 19.828125 46.734375 
Q 21.96875 47.46875 24.109375 47.828125 
Q 26.265625 48.1875 28.421875 48.1875 
Q 40.625 48.1875 47.75 41.5 
Q 54.890625 34.8125 54.890625 23.390625 
Q 54.890625 11.625 47.5625 5.09375 
Q 40.234375 -1.421875 26.90625 -1.421875 
Q 22.3125 -1.421875 17.546875 -0.640625 
Q 12.796875 0.140625 7.71875 1.703125 
L 7.71875 11.625 
Q 12.109375 9.234375 16.796875 8.0625 
Q 21.484375 6.890625 26.703125 6.890625 
Q 35.15625 6.890625 40.078125 11.328125 
Q 45.015625 15.765625 45.015625 23.390625 
Q 45.015625 31 40.078125 35.4375 
Q 35.15625 39.890625 26.703125 39.890625 
Q 22.75 39.890625 18.8125 39.015625 
Q 14.890625 38.140625 10.796875 36.28125 
z
" id="DejaVuSans-53"/>
       </defs>
       <use xlink:href="#DejaVuSans-48"/>
       <use x="63.623047" xlink:href="#DejaVuSans-46"/>
       <use x="95.410156" xlink:href="#DejaVuSans-53"/>
      </g>
     </g>
    </g>
    <g id="ytick_6">
     <g id="line2d_12">
      <g>
       <use style="stroke:#000000;stroke-width:0.8;" x="43.78125" xlink:href="#m38d87cd494" y="24.662421"/>
      </g>
     </g>
     <g id="text_13">
      <!-- 0.6 -->
      <g transform="translate(20.878125 28.46164)scale(0.1 -0.1)">
       <use xlink:href="#DejaVuSans-48"/>
       <use x="63.623047" xlink:href="#DejaVuSans-46"/>
       <use x="95.410156" xlink:href="#DejaVuSans-54"/>
      </g>
     </g>
    </g>
    <g id="text_14">
     <!-- performance -->
     <g transform="translate(14.798438 172.278656)rotate(-90)scale(0.1 -0.1)">
      <defs>
       <path d="M 18.109375 8.203125 
L 18.109375 -20.796875 
L 9.078125 -20.796875 
L 9.078125 54.6875 
L 18.109375 54.6875 
L 18.109375 46.390625 
Q 20.953125 51.265625 25.265625 53.625 
Q 29.59375 56 35.59375 56 
Q 45.5625 56 51.78125 48.09375 
Q 58.015625 40.1875 58.015625 27.296875 
Q 58.015625 14.40625 51.78125 6.484375 
Q 45.5625 -1.421875 35.59375 -1.421875 
Q 29.59375 -1.421875 25.265625 0.953125 
Q 20.953125 3.328125 18.109375 8.203125 
z
M 48.6875 27.296875 
Q 48.6875 37.203125 44.609375 42.84375 
Q 40.53125 48.484375 33.40625 48.484375 
Q 26.265625 48.484375 22.1875 42.84375 
Q 18.109375 37.203125 18.109375 27.296875 
Q 18.109375 17.390625 22.1875 11.75 
Q 26.265625 6.109375 33.40625 6.109375 
Q 40.53125 6.109375 44.609375 11.75 
Q 48.6875 17.390625 48.6875 27.296875 
z
" id="DejaVuSans-112"/>
       <path d="M 56.203125 29.59375 
L 56.203125 25.203125 
L 14.890625 25.203125 
Q 15.484375 15.921875 20.484375 11.0625 
Q 25.484375 6.203125 34.421875 6.203125 
Q 39.59375 6.203125 44.453125 7.46875 
Q 49.3125 8.734375 54.109375 11.28125 
L 54.109375 2.78125 
Q 49.265625 0.734375 44.1875 -0.34375 
Q 39.109375 -1.421875 33.890625 -1.421875 
Q 20.796875 -1.421875 13.15625 6.1875 
Q 5.515625 13.8125 5.515625 26.8125 
Q 5.515625 40.234375 12.765625 48.109375 
Q 20.015625 56 32.328125 56 
Q 43.359375 56 49.78125 48.890625 
Q 56.203125 41.796875 56.203125 29.59375 
z
M 47.21875 32.234375 
Q 47.125 39.59375 43.09375 43.984375 
Q 39.0625 48.390625 32.421875 48.390625 
Q 24.90625 48.390625 20.390625 44.140625 
Q 15.875 39.890625 15.1875 32.171875 
z
" id="DejaVuSans-101"/>
       <path d="M 41.109375 46.296875 
Q 39.59375 47.171875 37.8125 47.578125 
Q 36.03125 48 33.890625 48 
Q 26.265625 48 22.1875 43.046875 
Q 18.109375 38.09375 18.109375 28.8125 
L 18.109375 0 
L 9.078125 0 
L 9.078125 54.6875 
L 18.109375 54.6875 
L 18.109375 46.1875 
Q 20.953125 51.171875 25.484375 53.578125 
Q 30.03125 56 36.53125 56 
Q 37.453125 56 38.578125 55.875 
Q 39.703125 55.765625 41.0625 55.515625 
z
" id="DejaVuSans-114"/>
       <path d="M 52 44.1875 
Q 55.375 50.25 60.0625 53.125 
Q 64.75 56 71.09375 56 
Q 79.640625 56 84.28125 50.015625 
Q 88.921875 44.046875 88.921875 33.015625 
L 88.921875 0 
L 79.890625 0 
L 79.890625 32.71875 
Q 79.890625 40.578125 77.09375 44.375 
Q 74.3125 48.1875 68.609375 48.1875 
Q 61.625 48.1875 57.5625 43.546875 
Q 53.515625 38.921875 53.515625 30.90625 
L 53.515625 0 
L 44.484375 0 
L 44.484375 32.71875 
Q 44.484375 40.625 41.703125 44.40625 
Q 38.921875 48.1875 33.109375 48.1875 
Q 26.21875 48.1875 22.15625 43.53125 
Q 18.109375 38.875 18.109375 30.90625 
L 18.109375 0 
L 9.078125 0 
L 9.078125 54.6875 
L 18.109375 54.6875 
L 18.109375 46.1875 
Q 21.1875 51.21875 25.484375 53.609375 
Q 29.78125 56 35.6875 56 
Q 41.65625 56 45.828125 52.96875 
Q 50 49.953125 52 44.1875 
z
" id="DejaVuSans-109"/>
       <path d="M 34.28125 27.484375 
Q 23.390625 27.484375 19.1875 25 
Q 14.984375 22.515625 14.984375 16.5 
Q 14.984375 11.71875 18.140625 8.90625 
Q 21.296875 6.109375 26.703125 6.109375 
Q 34.1875 6.109375 38.703125 11.40625 
Q 43.21875 16.703125 43.21875 25.484375 
L 43.21875 27.484375 
z
M 52.203125 31.203125 
L 52.203125 0 
L 43.21875 0 
L 43.21875 8.296875 
Q 40.140625 3.328125 35.546875 0.953125 
Q 30.953125 -1.421875 24.3125 -1.421875 
Q 15.921875 -1.421875 10.953125 3.296875 
Q 6 8.015625 6 15.921875 
Q 6 25.140625 12.171875 29.828125 
Q 18.359375 34.515625 30.609375 34.515625 
L 43.21875 34.515625 
L 43.21875 35.40625 
Q 43.21875 41.609375 39.140625 45 
Q 35.0625 48.390625 27.6875 48.390625 
Q 23 48.390625 18.546875 47.265625 
Q 14.109375 46.140625 10.015625 43.890625 
L 10.015625 52.203125 
Q 14.9375 54.109375 19.578125 55.046875 
Q 24.21875 56 28.609375 56 
Q 40.484375 56 46.34375 49.84375 
Q 52.203125 43.703125 52.203125 31.203125 
z
" id="DejaVuSans-97"/>
       <path d="M 54.890625 33.015625 
L 54.890625 0 
L 45.90625 0 
L 45.90625 32.71875 
Q 45.90625 40.484375 42.875 44.328125 
Q 39.84375 48.1875 33.796875 48.1875 
Q 26.515625 48.1875 22.3125 43.546875 
Q 18.109375 38.921875 18.109375 30.90625 
L 18.109375 0 
L 9.078125 0 
L 9.078125 54.6875 
L 18.109375 54.6875 
L 18.109375 46.1875 
Q 21.34375 51.125 25.703125 53.5625 
Q 30.078125 56 35.796875 56 
Q 45.21875 56 50.046875 50.171875 
Q 54.890625 44.34375 54.890625 33.015625 
z
" id="DejaVuSans-110"/>
      </defs>
      <use xlink:href="#DejaVuSans-112"/>
      <use x="63.476562" xlink:href="#DejaVuSans-101"/>
      <use x="125" xlink:href="#DejaVuSans-114"/>
      <use x="166.113281" xlink:href="#DejaVuSans-102"/>
      <use x="201.318359" xlink:href="#DejaVuSans-111"/>
      <use x="262.5" xlink:href="#DejaVuSans-114"/>
      <use x="301.863281" xlink:href="#DejaVuSans-109"/>
      <use x="399.275391" xlink:href="#DejaVuSans-97"/>
      <use x="460.554688" xlink:href="#DejaVuSans-110"/>
      <use x="523.933594" xlink:href="#DejaVuSans-99"/>
      <use x="578.914062" xlink:href="#DejaVuSans-101"/>
     </g>
    </g>
   </g>
   <g id="line2d_13">
    <path clip-path="url(#pecedc6a725)" d="M 60.013977 31.277633 
L 66.777614 52.256428 
L 73.54125 60.662165 
L 80.304886 85.879376 
L 87.068523 97.070223 
L 93.832159 118.574796 
L 100.595795 80.333 
L 107.359432 80.333 
L 114.123068 74.575109 
L 120.886705 83.497023 
L 127.650341 101.507615 
L 134.413977 109.94501 
L 141.177614 172.286083 
L 147.94125 173.783888 
L 154.704886 125.299385 
L 161.468523 125.299385 
L 168.232159 125.299385 
L 174.995795 125.299385 
L 181.759432 148.657296 
L 188.523068 129.210655 
L 195.286705 150.33151 
L 202.050341 150.33151 
L 208.813977 150.33151 
L 215.577614 145.051296 
L 222.34125 176.732579 
L 229.104886 229.534717 
L 235.868523 229.534717 
L 242.632159 229.534717 
L 249.395795 229.534717 
L 256.159432 229.534717 
L 262.923068 229.534717 
L 269.686705 229.534717 
L 276.450341 229.534717 
L 283.213977 229.534717 
L 289.977614 229.534717 
L 296.74125 229.534717 
L 303.504886 229.534717 
L 310.268523 229.534717 
L 317.032159 229.534717 
L 323.795795 229.534717 
L 330.559432 229.534717 
L 337.323068 229.534717 
L 344.086705 229.534717 
L 350.850341 229.534717 
L 357.613977 229.534717 
L 364.377614 229.534717 
L 371.14125 229.534717 
L 377.904886 229.534717 
L 384.668523 229.534717 
" style="fill:none;stroke:#f26b38;stroke-dasharray:7.4,3.2;stroke-dashoffset:0;stroke-width:2;"/>
   </g>
   <g id="line2d_14">
    <path clip-path="url(#pecedc6a725)" d="M 60.013977 124.83562 
L 66.777614 124.000844 
L 73.54125 109.773346 
L 80.304886 118.574796 
L 87.068523 135.687717 
L 93.832159 152.352333 
L 100.595795 152.352333 
L 107.359432 152.352333 
L 114.123068 152.352333 
L 120.886705 143.312689 
L 127.650341 123.930441 
L 134.413977 182.012793 
L 141.177614 182.012793 
L 147.94125 182.012793 
L 154.704886 182.012793 
L 161.468523 176.732579 
L 168.232159 261.216 
L 174.995795 261.216 
L 181.759432 261.216 
L 188.523068 261.216 
L 195.286705 261.216 
L 202.050341 261.216 
L 208.813977 261.216 
L 215.577614 261.216 
L 222.34125 261.216 
L 229.104886 261.216 
L 235.868523 261.216 
L 242.632159 261.216 
L 249.395795 261.216 
L 256.159432 261.216 
L 262.923068 261.216 
L 269.686705 261.216 
L 276.450341 261.216 
L 283.213977 261.216 
L 289.977614 261.216 
L 296.74125 261.216 
L 303.504886 261.216 
L 310.268523 261.216 
L 317.032159 261.216 
L 323.795795 261.216 
L 330.559432 261.216 
L 337.323068 261.216 
L 344.086705 261.216 
L 350.850341 261.216 
L 357.613977 261.216 
L 364.377614 261.216 
L 371.14125 261.216 
L 377.904886 261.216 
L 384.668523 261.216 
" style="fill:none;stroke:#2f9599;stroke-dasharray:2,3.3;stroke-dashoffset:0;stroke-width:2;"/>
   </g>
   <g id="line2d_15">
    <path clip-path="url(#pecedc6a725)" d="M 60.013977 19.296 
L 66.777614 19.296 
L 73.54125 19.296 
L 80.304886 19.296 
L 87.068523 28.240036 
L 93.832159 46.128107 
L 100.595795 46.128107 
L 107.359432 46.128107 
L 114.123068 64.191551 
L 120.886705 51.632129 
L 127.650341 51.632129 
L 134.413977 64.353689 
L 141.177614 76.314227 
L 147.94125 87.058439 
L 154.704886 89.031528 
L 161.468523 108.329809 
L 168.232159 108.329809 
L 174.995795 112.313971 
L 181.759432 68.488196 
L 188.523068 55.598262 
L 195.286705 62.043229 
L 202.050341 65.401874 
L 208.813977 68.488196 
L 215.577614 139.70508 
L 222.34125 117.792192 
L 229.104886 121.934263 
L 235.868523 95.211229 
L 242.632159 102.809586 
L 249.395795 97.529372 
L 256.159432 118.650227 
L 262.923068 123.930441 
L 269.686705 123.930441 
L 276.450341 123.930441 
L 283.213977 229.534717 
L 289.977614 229.534717 
L 296.74125 229.534717 
L 303.504886 229.534717 
L 310.268523 229.534717 
L 317.032159 229.534717 
L 323.795795 229.534717 
L 330.559432 229.534717 
L 337.323068 229.534717 
L 344.086705 229.534717 
L 350.850341 229.534717 
L 357.613977 229.534717 
L 364.377614 229.534717 
L 371.14125 229.534717 
L 377.904886 229.534717 
L 384.668523 229.534717 
" style="fill:none;stroke:#a7226e;stroke-dasharray:12.8,3.2,2,3.2;stroke-dashoffset:0;stroke-width:2;"/>
   </g>
   <g id="patch_3">
    <path d="M 43.78125 273.312 
L 43.78125 7.2 
" style="fill:none;stroke:#000000;stroke-linecap:square;stroke-linejoin:miter;stroke-width:0.8;"/>
   </g>
   <g id="patch_4">
    <path d="M 400.90125 273.312 
L 400.90125 7.2 
" style="fill:none;stroke:#000000;stroke-linecap:square;stroke-linejoin:miter;stroke-width:0.8;"/>
   </g>
   <g id="patch_5">
    <path d="M 43.78125 273.312 
L 400.90125 273.312 
" style="fill:none;stroke:#000000;stroke-linecap:square;stroke-linejoin:miter;stroke-width:0.8;"/>
   </g>
   <g id="patch_6">
    <path d="M 43.78125 7.2 
L 400.90125 7.2 
" style="fill:none;stroke:#000000;stroke-linecap:square;stroke-linejoin:miter;stroke-width:0.8;"/>
   </g>
   <g id="legend_1">
    <g id="patch_7">
     <path d="M 315.427559 43.890912 
L 396.04325 43.890912 
Q 397.43125 43.890912 397.43125 42.502912 
L 397.43125 12.058 
Q 397.43125 10.67 396.04325 10.67 
L 315.427559 10.67 
Q 314.039559 10.67 314.039559 12.058 
L 314.039559 42.502912 
Q 314.039559 43.890912 315.427559 43.890912 
z
" style="fill:#ffffff;opacity:0.8;stroke:#cccccc;stroke-linejoin:miter;"/>
    </g>
    <g id="PathCollection_5">
     <defs>
      <path d="M 0 3 
C 0.795609 3 1.55874 2.683901 2.12132 2.12132 
C 2.683901 1.55874 3 0.795609 3 0 
C 3 -0.795609 2.683901 -1.55874 2.12132 -2.12132 
C 1.55874 -2.683901 0.795609 -3 0 -3 
C -0.795609 -3 -1.55874 -2.683901 -2.12132 -2.12132 
C -2.683901 -1.55874 -3 -0.795609 -3 0 
C -3 0.795609 -2.683901 1.55874 -2.12132 2.12132 
C -1.55874 2.683901 -0.795609 3 0 3 
z
" id="ma2395098ff" style="stroke:#f26b38;"/>
     </defs>
     <g>
      <use style="fill:#f26b38;stroke:#f26b38;" x="323.755559" xlink:href="#ma2395098ff" y="16.897566"/>
     </g>
    </g>
    <g id="text_15">
     <!-- mean_err -->
     <g transform="translate(336.247559 18.719316)scale(0.0694 -0.0694)">
      <defs>
       <path d="M 50.984375 -16.609375 
L 50.984375 -23.578125 
L -0.984375 -23.578125 
L -0.984375 -16.609375 
z
" id="DejaVuSans-95"/>
      </defs>
      <use xlink:href="#DejaVuSans-109"/>
      <use x="97.412109" xlink:href="#DejaVuSans-101"/>
      <use x="158.935547" xlink:href="#DejaVuSans-97"/>
      <use x="220.214844" xlink:href="#DejaVuSans-110"/>
      <use x="283.59375" xlink:href="#DejaVuSans-95"/>
      <use x="333.59375" xlink:href="#DejaVuSans-101"/>
      <use x="395.117188" xlink:href="#DejaVuSans-114"/>
      <use x="434.480469" xlink:href="#DejaVuSans-114"/>
     </g>
    </g>
    <g id="PathCollection_6">
     <defs>
      <path d="M -1.5 3 
L 0 1.5 
L 1.5 3 
L 3 1.5 
L 1.5 0 
L 3 -1.5 
L 1.5 -3 
L 0 -1.5 
L -1.5 -3 
L -3 -1.5 
L -1.5 0 
L -3 1.5 
z
" id="m6d12cec21c" style="stroke:#2f9599;"/>
     </defs>
     <g>
      <use style="fill:#2f9599;stroke:#2f9599;" x="323.755559" xlink:href="#m6d12cec21c" y="27.277203"/>
     </g>
    </g>
    <g id="text_16">
     <!-- mean_sq_err -->
     <g transform="translate(336.247559 29.098953)scale(0.0694 -0.0694)">
      <defs>
       <path d="M 44.28125 53.078125 
L 44.28125 44.578125 
Q 40.484375 46.53125 36.375 47.5 
Q 32.28125 48.484375 27.875 48.484375 
Q 21.1875 48.484375 17.84375 46.4375 
Q 14.5 44.390625 14.5 40.28125 
Q 14.5 37.15625 16.890625 35.375 
Q 19.28125 33.59375 26.515625 31.984375 
L 29.59375 31.296875 
Q 39.15625 29.25 43.1875 25.515625 
Q 47.21875 21.78125 47.21875 15.09375 
Q 47.21875 7.46875 41.1875 3.015625 
Q 35.15625 -1.421875 24.609375 -1.421875 
Q 20.21875 -1.421875 15.453125 -0.5625 
Q 10.6875 0.296875 5.421875 2 
L 5.421875 11.28125 
Q 10.40625 8.6875 15.234375 7.390625 
Q 20.0625 6.109375 24.8125 6.109375 
Q 31.15625 6.109375 34.5625 8.28125 
Q 37.984375 10.453125 37.984375 14.40625 
Q 37.984375 18.0625 35.515625 20.015625 
Q 33.0625 21.96875 24.703125 23.78125 
L 21.578125 24.515625 
Q 13.234375 26.265625 9.515625 29.90625 
Q 5.8125 33.546875 5.8125 39.890625 
Q 5.8125 47.609375 11.28125 51.796875 
Q 16.75 56 26.8125 56 
Q 31.78125 56 36.171875 55.265625 
Q 40.578125 54.546875 44.28125 53.078125 
z
" id="DejaVuSans-115"/>
       <path d="M 14.796875 27.296875 
Q 14.796875 17.390625 18.875 11.75 
Q 22.953125 6.109375 30.078125 6.109375 
Q 37.203125 6.109375 41.296875 11.75 
Q 45.40625 17.390625 45.40625 27.296875 
Q 45.40625 37.203125 41.296875 42.84375 
Q 37.203125 48.484375 30.078125 48.484375 
Q 22.953125 48.484375 18.875 42.84375 
Q 14.796875 37.203125 14.796875 27.296875 
z
M 45.40625 8.203125 
Q 42.578125 3.328125 38.25 0.953125 
Q 33.9375 -1.421875 27.875 -1.421875 
Q 17.96875 -1.421875 11.734375 6.484375 
Q 5.515625 14.40625 5.515625 27.296875 
Q 5.515625 40.1875 11.734375 48.09375 
Q 17.96875 56 27.875 56 
Q 33.9375 56 38.25 53.625 
Q 42.578125 51.265625 45.40625 46.390625 
L 45.40625 54.6875 
L 54.390625 54.6875 
L 54.390625 -20.796875 
L 45.40625 -20.796875 
z
" id="DejaVuSans-113"/>
      </defs>
      <use xlink:href="#DejaVuSans-109"/>
      <use x="97.412109" xlink:href="#DejaVuSans-101"/>
      <use x="158.935547" xlink:href="#DejaVuSans-97"/>
      <use x="220.214844" xlink:href="#DejaVuSans-110"/>
      <use x="283.59375" xlink:href="#DejaVuSans-95"/>
      <use x="333.59375" xlink:href="#DejaVuSans-115"/>
      <use x="385.693359" xlink:href="#DejaVuSans-113"/>
      <use x="449.169922" xlink:href="#DejaVuSans-95"/>
      <use x="499.169922" xlink:href="#DejaVuSans-101"/>
      <use x="560.693359" xlink:href="#DejaVuSans-114"/>
      <use x="600.056641" xlink:href="#DejaVuSans-114"/>
     </g>
    </g>
    <g id="PathCollection_7">
     <defs>
      <path d="M -2.12132 -2.12132 
L -2.12132 2.12132 
L 2.12132 2.12132 
L 2.12132 -2.12132 
z
" id="mf51a34a85e" style="stroke:#a7226e;"/>
     </defs>
     <g>
      <use style="fill:#a7226e;stroke:#a7226e;" x="323.755559" xlink:href="#mf51a34a85e" y="37.656841"/>
     </g>
    </g>
    <g id="text_17">
     <!-- mean_sqroot_err -->
     <g transform="translate(336.247559 39.478591)scale(0.0694 -0.0694)">
      <use xlink:href="#DejaVuSans-109"/>
      <use x="97.412109" xlink:href="#DejaVuSans-101"/>
      <use x="158.935547" xlink:href="#DejaVuSans-97"/>
      <use x="220.214844" xlink:href="#DejaVuSans-110"/>
      <use x="283.59375" xlink:href="#DejaVuSans-95"/>
      <use x="333.59375" xlink:href="#DejaVuSans-115"/>
      <use x="385.693359" xlink:href="#DejaVuSans-113"/>
      <use x="449.169922" xlink:href="#DejaVuSans-114"/>
      <use x="488.033203" xlink:href="#DejaVuSans-111"/>
      <use x="549.214844" xlink:href="#DejaVuSans-111"/>
      <use x="610.396484" xlink:href="#DejaVuSans-116"/>
      <use x="649.605469" xlink:href="#DejaVuSans-95"/>
      <use x="699.605469" xlink:href="#DejaVuSans-101"/>
      <use x="761.128906" xlink:href="#DejaVuSans-114"/>
      <use x="800.492188" xlink:href="#DejaVuSans-114"/>
     </g>
    </g>
   </g>
  </g>
 </g>
 <defs>
  <clipPath id="pecedc6a725">
   <rect height="266.112" width="357.12" x="43.78125" y="7.2"/>
  </clipPath>
 </defs>
</svg>
