<?xml version="1.0" encoding="utf-8" standalone="no"?>
<!DOCTYPE svg PUBLIC "-//W3C//DTD SVG 1.1//EN"
  "http://www.w3.org/Graphics/SVG/1.1/DTD/svg11.dtd">
<!-- Created with matplotlib (https://matplotlib.org/) -->
<svg height="310.86825pt" version="1.1" viewBox="0 0 420.82625 310.86825" width="420.82625pt" xmlns="http://www.w3.org/2000/svg" xmlns:xlink="http://www.w3.org/1999/xlink">
 <metadata>
  <rdf:RDF xmlns:cc="http://creativecommons.org/ns#" xmlns:dc="http://purl.org/dc/elements/1.1/" xmlns:rdf="http://www.w3.org/1999/02/22-rdf-syntax-ns#">
   <cc:Work>
    <dc:type rdf:resource="http://purl.org/dc/dcmitype/StillImage"/>
    <dc:date>2022-05-05T12:55:52.067676</dc:date>
    <dc:format>image/svg+xml</dc:format>
    <dc:creator>
     <cc:Agent>
      <dc:title>Matplotlib v3.3.4, https://matplotlib.org/</dc:title>
     </cc:Agent>
    </dc:creator>
   </cc:Work>
  </rdf:RDF>
 </metadata>
 <defs>
  <style type="text/css">*{stroke-linecap:butt;stroke-linejoin:round;}</style>
 </defs>
 <g id="figure_1">
  <g id="patch_1">
   <path d="M 0 310.86825 
L 420.82625 310.86825 
L 420.82625 0 
L 0 0 
z
" style="fill:#ffffff;"/>
  </g>
  <g id="axes_1">
   <g id="patch_2">
    <path d="M 56.50625 273.312 
L 413.62625 273.312 
L 413.62625 7.2 
L 56.50625 7.2 
z
" style="fill:#ffffff;"/>
   </g>
   <g id="PathCollection_1">
    <path clip-path="url(#pbf2e010d86)" d="M 72.738977 111.8064 
C 73.534587 111.8064 74.297717 111.490301 74.860298 110.92772 
C 75.422878 110.36514 75.738977 109.602009 75.738977 108.8064 
C 75.738977 108.010791 75.422878 107.24766 74.860298 106.68508 
C 74.297717 106.122499 73.534587 105.8064 72.738977 105.8064 
C 71.943368 105.8064 71.180238 106.122499 70.617657 106.68508 
C 70.055076 107.24766 69.738977 108.010791 69.738977 108.8064 
C 69.738977 109.602009 70.055076 110.36514 70.617657 110.92772 
C 71.180238 111.490301 71.943368 111.8064 72.738977 111.8064 
z
" style="fill:#f26b38;stroke:#ffffff;stroke-width:0.48;"/>
    <path clip-path="url(#pbf2e010d86)" d="M 79.502614 96.271537 
C 80.298223 96.271537 81.061353 95.955438 81.623934 95.392858 
C 82.186515 94.830277 82.502614 94.067146 82.502614 93.271537 
C 82.502614 92.475928 82.186515 91.712798 81.623934 91.150217 
C 81.061353 90.587636 80.298223 90.271537 79.502614 90.271537 
C 78.707004 90.271537 77.943874 90.587636 77.381293 91.150217 
C 76.818713 91.712798 76.502614 92.475928 76.502614 93.271537 
C 76.502614 94.067146 76.818713 94.830277 77.381293 95.392858 
C 77.943874 95.955438 78.707004 96.271537 79.502614 96.271537 
z
" style="fill:#f26b38;stroke:#ffffff;stroke-width:0.48;"/>
    <path clip-path="url(#pbf2e010d86)" d="M 86.26625 65.95961 
C 87.061859 65.95961 87.82499 65.643511 88.38757 65.08093 
C 88.950151 64.518349 89.26625 63.755219 89.26625 62.95961 
C 89.26625 62.164 88.950151 61.40087 88.38757 60.838289 
C 87.82499 60.275709 87.061859 59.95961 86.26625 59.95961 
C 85.470641 59.95961 84.70751 60.275709 84.14493 60.838289 
C 83.582349 61.40087 83.26625 62.164 83.26625 62.95961 
C 83.26625 63.755219 83.582349 64.518349 84.14493 65.08093 
C 84.70751 65.643511 85.470641 65.95961 86.26625 65.95961 
z
" style="fill:#f26b38;stroke:#ffffff;stroke-width:0.48;"/>
    <path clip-path="url(#pbf2e010d86)" d="M 93.029886 65.95961 
C 93.825496 65.95961 94.588626 65.643511 95.151207 65.08093 
C 95.713787 64.518349 96.029886 63.755219 96.029886 62.95961 
C 96.029886 62.164 95.713787 61.40087 95.151207 60.838289 
C 94.588626 60.275709 93.825496 59.95961 93.029886 59.95961 
C 92.234277 59.95961 91.471147 60.275709 90.908566 60.838289 
C 90.345985 61.40087 90.029886 62.164 90.029886 62.95961 
C 90.029886 63.755219 90.345985 64.518349 90.908566 65.08093 
C 91.471147 65.643511 92.234277 65.95961 93.029886 65.95961 
z
" style="fill:#f26b38;stroke:#ffffff;stroke-width:0.48;"/>
    <path clip-path="url(#pbf2e010d86)" d="M 99.793523 65.95961 
C 100.589132 65.95961 101.352262 65.643511 101.914843 65.08093 
C 102.477424 64.518349 102.793523 63.755219 102.793523 62.95961 
C 102.793523 62.164 102.477424 61.40087 101.914843 60.838289 
C 101.352262 60.275709 100.589132 59.95961 99.793523 59.95961 
C 98.997913 59.95961 98.234783 60.275709 97.672202 60.838289 
C 97.109622 61.40087 96.793523 62.164 96.793523 62.95961 
C 96.793523 63.755219 97.109622 64.518349 97.672202 65.08093 
C 98.234783 65.643511 98.997913 65.95961 99.793523 65.95961 
z
" style="fill:#f26b38;stroke:#ffffff;stroke-width:0.48;"/>
    <path clip-path="url(#pbf2e010d86)" d="M 106.557159 96.271537 
C 107.352768 96.271537 108.115899 95.955438 108.678479 95.392858 
C 109.24106 94.830277 109.557159 94.067146 109.557159 93.271537 
C 109.557159 92.475928 109.24106 91.712798 108.678479 91.150217 
C 108.115899 90.587636 107.352768 90.271537 106.557159 90.271537 
C 105.76155 90.271537 104.998419 90.587636 104.435839 91.150217 
C 103.873258 91.712798 103.557159 92.475928 103.557159 93.271537 
C 103.557159 94.067146 103.873258 94.830277 104.435839 95.392858 
C 104.998419 95.955438 105.76155 96.271537 106.557159 96.271537 
z
" style="fill:#f26b38;stroke:#ffffff;stroke-width:0.48;"/>
    <path clip-path="url(#pbf2e010d86)" d="M 113.320795 96.271537 
C 114.116405 96.271537 114.879535 95.955438 115.442116 95.392858 
C 116.004697 94.830277 116.320795 94.067146 116.320795 93.271537 
C 116.320795 92.475928 116.004697 91.712798 115.442116 91.150217 
C 114.879535 90.587636 114.116405 90.271537 113.320795 90.271537 
C 112.525186 90.271537 111.762056 90.587636 111.199475 91.150217 
C 110.636894 91.712798 110.320795 92.475928 110.320795 93.271537 
C 110.320795 94.067146 110.636894 94.830277 111.199475 95.392858 
C 111.762056 95.955438 112.525186 96.271537 113.320795 96.271537 
z
" style="fill:#f26b38;stroke:#ffffff;stroke-width:0.48;"/>
    <path clip-path="url(#pbf2e010d86)" d="M 120.084432 80.991344 
C 120.880041 80.991344 121.643171 80.675245 122.205752 80.112665 
C 122.768333 79.550084 123.084432 78.786954 123.084432 77.991344 
C 123.084432 77.195735 122.768333 76.432605 122.205752 75.870024 
C 121.643171 75.307443 120.880041 74.991344 120.084432 74.991344 
C 119.288823 74.991344 118.525692 75.307443 117.963111 75.870024 
C 117.400531 76.432605 117.084432 77.195735 117.084432 77.991344 
C 117.084432 78.786954 117.400531 79.550084 117.963111 80.112665 
C 118.525692 80.675245 119.288823 80.991344 120.084432 80.991344 
z
" style="fill:#f26b38;stroke:#ffffff;stroke-width:0.48;"/>
    <path clip-path="url(#pbf2e010d86)" d="M 126.848068 80.991344 
C 127.643677 80.991344 128.406808 80.675245 128.969389 80.112665 
C 129.531969 79.550084 129.848068 78.786954 129.848068 77.991344 
C 129.848068 77.195735 129.531969 76.432605 128.969389 75.870024 
C 128.406808 75.307443 127.643677 74.991344 126.848068 74.991344 
C 126.052459 74.991344 125.289329 75.307443 124.726748 75.870024 
C 124.164167 76.432605 123.848068 77.195735 123.848068 77.991344 
C 123.848068 78.786954 124.164167 79.550084 124.726748 80.112665 
C 125.289329 80.675245 126.052459 80.991344 126.848068 80.991344 
z
" style="fill:#f26b38;stroke:#ffffff;stroke-width:0.48;"/>
    <path clip-path="url(#pbf2e010d86)" d="M 133.611705 127.602353 
C 134.407314 127.602353 135.170444 127.286254 135.733025 126.723673 
C 136.295606 126.161093 136.611705 125.397962 136.611705 124.602353 
C 136.611705 123.806744 136.295606 123.043613 135.733025 122.481033 
C 135.170444 121.918452 134.407314 121.602353 133.611705 121.602353 
C 132.816095 121.602353 132.052965 121.918452 131.490384 122.481033 
C 130.927803 123.043613 130.611705 123.806744 130.611705 124.602353 
C 130.611705 125.397962 130.927803 126.161093 131.490384 126.723673 
C 132.052965 127.286254 132.816095 127.602353 133.611705 127.602353 
z
" style="fill:#f26b38;stroke:#ffffff;stroke-width:0.48;"/>
    <path clip-path="url(#pbf2e010d86)" d="M 140.375341 143.666034 
C 141.17095 143.666034 141.934081 143.349935 142.496661 142.787354 
C 143.059242 142.224774 143.375341 141.461643 143.375341 140.666034 
C 143.375341 139.870425 143.059242 139.107294 142.496661 138.544714 
C 141.934081 137.982133 141.17095 137.666034 140.375341 137.666034 
C 139.579732 137.666034 138.816601 137.982133 138.254021 138.544714 
C 137.69144 139.107294 137.375341 139.870425 137.375341 140.666034 
C 137.375341 141.461643 137.69144 142.224774 138.254021 142.787354 
C 138.816601 143.349935 139.579732 143.666034 140.375341 143.666034 
z
" style="fill:#f26b38;stroke:#ffffff;stroke-width:0.48;"/>
    <path clip-path="url(#pbf2e010d86)" d="M 147.138977 193.533287 
C 147.934587 193.533287 148.697717 193.217188 149.260298 192.654607 
C 149.822878 192.092027 150.138977 191.328896 150.138977 190.533287 
C 150.138977 189.737678 149.822878 188.974547 149.260298 188.411967 
C 148.697717 187.849386 147.934587 187.533287 147.138977 187.533287 
C 146.343368 187.533287 145.580238 187.849386 145.017657 188.411967 
C 144.455076 188.974547 144.138977 189.737678 144.138977 190.533287 
C 144.138977 191.328896 144.455076 192.092027 145.017657 192.654607 
C 145.580238 193.217188 146.343368 193.533287 147.138977 193.533287 
z
" style="fill:#f26b38;stroke:#ffffff;stroke-width:0.48;"/>
    <path clip-path="url(#pbf2e010d86)" d="M 153.902614 264.216 
C 154.698223 264.216 155.461353 263.899901 156.023934 263.33732 
C 156.586515 262.77474 156.902614 262.011609 156.902614 261.216 
C 156.902614 260.420391 156.586515 259.65726 156.023934 259.09468 
C 155.461353 258.532099 154.698223 258.216 153.902614 258.216 
C 153.107004 258.216 152.343874 258.532099 151.781293 259.09468 
C 151.218713 259.65726 150.902614 260.420391 150.902614 261.216 
C 150.902614 262.011609 151.218713 262.77474 151.781293 263.33732 
C 152.343874 263.899901 153.107004 264.216 153.902614 264.216 
z
" style="fill:#f26b38;stroke:#ffffff;stroke-width:0.48;"/>
    <path clip-path="url(#pbf2e010d86)" d="M 160.66625 264.216 
C 161.461859 264.216 162.22499 263.899901 162.78757 263.33732 
C 163.350151 262.77474 163.66625 262.011609 163.66625 261.216 
C 163.66625 260.420391 163.350151 259.65726 162.78757 259.09468 
C 162.22499 258.532099 161.461859 258.216 160.66625 258.216 
C 159.870641 258.216 159.10751 258.532099 158.54493 259.09468 
C 157.982349 259.65726 157.66625 260.420391 157.66625 261.216 
C 157.66625 262.011609 157.982349 262.77474 158.54493 263.33732 
C 159.10751 263.899901 159.870641 264.216 160.66625 264.216 
z
" style="fill:#f26b38;stroke:#ffffff;stroke-width:0.48;"/>
    <path clip-path="url(#pbf2e010d86)" d="M 167.429886 160.004308 
C 168.225496 160.004308 168.988626 159.688209 169.551207 159.125628 
C 170.113787 158.563047 170.429886 157.799917 170.429886 157.004308 
C 170.429886 156.208698 170.113787 155.445568 169.551207 154.882987 
C 168.988626 154.320407 168.225496 154.004308 167.429886 154.004308 
C 166.634277 154.004308 165.871147 154.320407 165.308566 154.882987 
C 164.745985 155.445568 164.429886 156.208698 164.429886 157.004308 
C 164.429886 157.799917 164.745985 158.563047 165.308566 159.125628 
C 165.871147 159.688209 166.634277 160.004308 167.429886 160.004308 
z
" style="fill:#f26b38;stroke:#ffffff;stroke-width:0.48;"/>
    <path clip-path="url(#pbf2e010d86)" d="M 174.193523 160.004308 
C 174.989132 160.004308 175.752262 159.688209 176.314843 159.125628 
C 176.877424 158.563047 177.193523 157.799917 177.193523 157.004308 
C 177.193523 156.208698 176.877424 155.445568 176.314843 154.882987 
C 175.752262 154.320407 174.989132 154.004308 174.193523 154.004308 
C 173.397913 154.004308 172.634783 154.320407 172.072202 154.882987 
C 171.509622 155.445568 171.193523 156.208698 171.193523 157.004308 
C 171.193523 157.799917 171.509622 158.563047 172.072202 159.125628 
C 172.634783 159.688209 173.397913 160.004308 174.193523 160.004308 
z
" style="fill:#f26b38;stroke:#ffffff;stroke-width:0.48;"/>
    <path clip-path="url(#pbf2e010d86)" d="M 180.957159 160.004308 
C 181.752768 160.004308 182.515899 159.688209 183.078479 159.125628 
C 183.64106 158.563047 183.957159 157.799917 183.957159 157.004308 
C 183.957159 156.208698 183.64106 155.445568 183.078479 154.882987 
C 182.515899 154.320407 181.752768 154.004308 180.957159 154.004308 
C 180.16155 154.004308 179.398419 154.320407 178.835839 154.882987 
C 178.273258 155.445568 177.957159 156.208698 177.957159 157.004308 
C 177.957159 157.799917 178.273258 158.563047 178.835839 159.125628 
C 179.398419 159.688209 180.16155 160.004308 180.957159 160.004308 
z
" style="fill:#f26b38;stroke:#ffffff;stroke-width:0.48;"/>
    <path clip-path="url(#pbf2e010d86)" d="M 187.720795 160.004308 
C 188.516405 160.004308 189.279535 159.688209 189.842116 159.125628 
C 190.404697 158.563047 190.720795 157.799917 190.720795 157.004308 
C 190.720795 156.208698 190.404697 155.445568 189.842116 154.882987 
C 189.279535 154.320407 188.516405 154.004308 187.720795 154.004308 
C 186.925186 154.004308 186.162056 154.320407 185.599475 154.882987 
C 185.036894 155.445568 184.720795 156.208698 184.720795 157.004308 
C 184.720795 157.799917 185.036894 158.563047 185.599475 159.125628 
C 186.162056 159.688209 186.925186 160.004308 187.720795 160.004308 
z
" style="fill:#f26b38;stroke:#ffffff;stroke-width:0.48;"/>
    <path clip-path="url(#pbf2e010d86)" d="M 194.484432 160.004308 
C 195.280041 160.004308 196.043171 159.688209 196.605752 159.125628 
C 197.168333 158.563047 197.484432 157.799917 197.484432 157.004308 
C 197.484432 156.208698 197.168333 155.445568 196.605752 154.882987 
C 196.043171 154.320407 195.280041 154.004308 194.484432 154.004308 
C 193.688823 154.004308 192.925692 154.320407 192.363111 154.882987 
C 191.800531 155.445568 191.484432 156.208698 191.484432 157.004308 
C 191.484432 157.799917 191.800531 158.563047 192.363111 159.125628 
C 192.925692 159.688209 193.688823 160.004308 194.484432 160.004308 
z
" style="fill:#f26b38;stroke:#ffffff;stroke-width:0.48;"/>
    <path clip-path="url(#pbf2e010d86)" d="M 201.248068 160.004308 
C 202.043677 160.004308 202.806808 159.688209 203.369389 159.125628 
C 203.931969 158.563047 204.248068 157.799917 204.248068 157.004308 
C 204.248068 156.208698 203.931969 155.445568 203.369389 154.882987 
C 202.806808 154.320407 202.043677 154.004308 201.248068 154.004308 
C 200.452459 154.004308 199.689329 154.320407 199.126748 154.882987 
C 198.564167 155.445568 198.248068 156.208698 198.248068 157.004308 
C 198.248068 157.799917 198.564167 158.563047 199.126748 159.125628 
C 199.689329 159.688209 200.452459 160.004308 201.248068 160.004308 
z
" style="fill:#f26b38;stroke:#ffffff;stroke-width:0.48;"/>
    <path clip-path="url(#pbf2e010d86)" d="M 208.011705 160.004308 
C 208.807314 160.004308 209.570444 159.688209 210.133025 159.125628 
C 210.695606 158.563047 211.011705 157.799917 211.011705 157.004308 
C 211.011705 156.208698 210.695606 155.445568 210.133025 154.882987 
C 209.570444 154.320407 208.807314 154.004308 208.011705 154.004308 
C 207.216095 154.004308 206.452965 154.320407 205.890384 154.882987 
C 205.327803 155.445568 205.011705 156.208698 205.011705 157.004308 
C 205.011705 157.799917 205.327803 158.563047 205.890384 159.125628 
C 206.452965 159.688209 207.216095 160.004308 208.011705 160.004308 
z
" style="fill:#f26b38;stroke:#ffffff;stroke-width:0.48;"/>
    <path clip-path="url(#pbf2e010d86)" d="M 214.775341 160.004308 
C 215.57095 160.004308 216.334081 159.688209 216.896661 159.125628 
C 217.459242 158.563047 217.775341 157.799917 217.775341 157.004308 
C 217.775341 156.208698 217.459242 155.445568 216.896661 154.882987 
C 216.334081 154.320407 215.57095 154.004308 214.775341 154.004308 
C 213.979732 154.004308 213.216601 154.320407 212.654021 154.882987 
C 212.09144 155.445568 211.775341 156.208698 211.775341 157.004308 
C 211.775341 157.799917 212.09144 158.563047 212.654021 159.125628 
C 213.216601 159.688209 213.979732 160.004308 214.775341 160.004308 
z
" style="fill:#f26b38;stroke:#ffffff;stroke-width:0.48;"/>
    <path clip-path="url(#pbf2e010d86)" d="M 221.538977 160.004308 
C 222.334587 160.004308 223.097717 159.688209 223.660298 159.125628 
C 224.222878 158.563047 224.538977 157.799917 224.538977 157.004308 
C 224.538977 156.208698 224.222878 155.445568 223.660298 154.882987 
C 223.097717 154.320407 222.334587 154.004308 221.538977 154.004308 
C 220.743368 154.004308 219.980238 154.320407 219.417657 154.882987 
C 218.855076 155.445568 218.538977 156.208698 218.538977 157.004308 
C 218.538977 157.799917 218.855076 158.563047 219.417657 159.125628 
C 219.980238 159.688209 220.743368 160.004308 221.538977 160.004308 
z
" style="fill:#f26b38;stroke:#ffffff;stroke-width:0.48;"/>
    <path clip-path="url(#pbf2e010d86)" d="M 228.302614 160.004308 
C 229.098223 160.004308 229.861353 159.688209 230.423934 159.125628 
C 230.986515 158.563047 231.302614 157.799917 231.302614 157.004308 
C 231.302614 156.208698 230.986515 155.445568 230.423934 154.882987 
C 229.861353 154.320407 229.098223 154.004308 228.302614 154.004308 
C 227.507004 154.004308 226.743874 154.320407 226.181293 154.882987 
C 225.618713 155.445568 225.302614 156.208698 225.302614 157.004308 
C 225.302614 157.799917 225.618713 158.563047 226.181293 159.125628 
C 226.743874 159.688209 227.507004 160.004308 228.302614 160.004308 
z
" style="fill:#f26b38;stroke:#ffffff;stroke-width:0.48;"/>
    <path clip-path="url(#pbf2e010d86)" d="M 235.06625 176.624276 
C 235.861859 176.624276 236.62499 176.308177 237.18757 175.745596 
C 237.750151 175.183015 238.06625 174.419885 238.06625 173.624276 
C 238.06625 172.828667 237.750151 172.065536 237.18757 171.502956 
C 236.62499 170.940375 235.861859 170.624276 235.06625 170.624276 
C 234.270641 170.624276 233.50751 170.940375 232.94493 171.502956 
C 232.382349 172.065536 232.06625 172.828667 232.06625 173.624276 
C 232.06625 174.419885 232.382349 175.183015 232.94493 175.745596 
C 233.50751 176.308177 234.270641 176.624276 235.06625 176.624276 
z
" style="fill:#f26b38;stroke:#ffffff;stroke-width:0.48;"/>
    <path clip-path="url(#pbf2e010d86)" d="M 241.829886 111.8064 
C 242.625496 111.8064 243.388626 111.490301 243.951207 110.92772 
C 244.513787 110.36514 244.829886 109.602009 244.829886 108.8064 
C 244.829886 108.010791 244.513787 107.24766 243.951207 106.68508 
C 243.388626 106.122499 242.625496 105.8064 241.829886 105.8064 
C 241.034277 105.8064 240.271147 106.122499 239.708566 106.68508 
C 239.145985 107.24766 238.829886 108.010791 238.829886 108.8064 
C 238.829886 109.602009 239.145985 110.36514 239.708566 110.92772 
C 240.271147 111.490301 241.034277 111.8064 241.829886 111.8064 
z
" style="fill:#f26b38;stroke:#ffffff;stroke-width:0.48;"/>
    <path clip-path="url(#pbf2e010d86)" d="M 248.593523 111.8064 
C 249.389132 111.8064 250.152262 111.490301 250.714843 110.92772 
C 251.277424 110.36514 251.593523 109.602009 251.593523 108.8064 
C 251.593523 108.010791 251.277424 107.24766 250.714843 106.68508 
C 250.152262 106.122499 249.389132 105.8064 248.593523 105.8064 
C 247.797913 105.8064 247.034783 106.122499 246.472202 106.68508 
C 245.909622 107.24766 245.593523 108.010791 245.593523 108.8064 
C 245.593523 109.602009 245.909622 110.36514 246.472202 110.92772 
C 247.034783 111.490301 247.797913 111.8064 248.593523 111.8064 
z
" style="fill:#f26b38;stroke:#ffffff;stroke-width:0.48;"/>
    <path clip-path="url(#pbf2e010d86)" d="M 255.357159 111.8064 
C 256.152768 111.8064 256.915899 111.490301 257.478479 110.92772 
C 258.04106 110.36514 258.357159 109.602009 258.357159 108.8064 
C 258.357159 108.010791 258.04106 107.24766 257.478479 106.68508 
C 256.915899 106.122499 256.152768 105.8064 255.357159 105.8064 
C 254.56155 105.8064 253.798419 106.122499 253.235839 106.68508 
C 252.673258 107.24766 252.357159 108.010791 252.357159 108.8064 
C 252.357159 109.602009 252.673258 110.36514 253.235839 110.92772 
C 253.798419 111.490301 254.56155 111.8064 255.357159 111.8064 
z
" style="fill:#f26b38;stroke:#ffffff;stroke-width:0.48;"/>
    <path clip-path="url(#pbf2e010d86)" d="M 262.120795 111.8064 
C 262.916405 111.8064 263.679535 111.490301 264.242116 110.92772 
C 264.804697 110.36514 265.120795 109.602009 265.120795 108.8064 
C 265.120795 108.010791 264.804697 107.24766 264.242116 106.68508 
C 263.679535 106.122499 262.916405 105.8064 262.120795 105.8064 
C 261.325186 105.8064 260.562056 106.122499 259.999475 106.68508 
C 259.436894 107.24766 259.120795 108.010791 259.120795 108.8064 
C 259.120795 109.602009 259.436894 110.36514 259.999475 110.92772 
C 260.562056 111.490301 261.325186 111.8064 262.120795 111.8064 
z
" style="fill:#f26b38;stroke:#ffffff;stroke-width:0.48;"/>
    <path clip-path="url(#pbf2e010d86)" d="M 268.884432 111.8064 
C 269.680041 111.8064 270.443171 111.490301 271.005752 110.92772 
C 271.568333 110.36514 271.884432 109.602009 271.884432 108.8064 
C 271.884432 108.010791 271.568333 107.24766 271.005752 106.68508 
C 270.443171 106.122499 269.680041 105.8064 268.884432 105.8064 
C 268.088823 105.8064 267.325692 106.122499 266.763111 106.68508 
C 266.200531 107.24766 265.884432 108.010791 265.884432 108.8064 
C 265.884432 109.602009 266.200531 110.36514 266.763111 110.92772 
C 267.325692 111.490301 268.088823 111.8064 268.884432 111.8064 
z
" style="fill:#f26b38;stroke:#ffffff;stroke-width:0.48;"/>
    <path clip-path="url(#pbf2e010d86)" d="M 275.648068 111.8064 
C 276.443677 111.8064 277.206808 111.490301 277.769389 110.92772 
C 278.331969 110.36514 278.648068 109.602009 278.648068 108.8064 
C 278.648068 108.010791 278.331969 107.24766 277.769389 106.68508 
C 277.206808 106.122499 276.443677 105.8064 275.648068 105.8064 
C 274.852459 105.8064 274.089329 106.122499 273.526748 106.68508 
C 272.964167 107.24766 272.648068 108.010791 272.648068 108.8064 
C 272.648068 109.602009 272.964167 110.36514 273.526748 110.92772 
C 274.089329 111.490301 274.852459 111.8064 275.648068 111.8064 
z
" style="fill:#f26b38;stroke:#ffffff;stroke-width:0.48;"/>
    <path clip-path="url(#pbf2e010d86)" d="M 282.411705 111.8064 
C 283.207314 111.8064 283.970444 111.490301 284.533025 110.92772 
C 285.095606 110.36514 285.411705 109.602009 285.411705 108.8064 
C 285.411705 108.010791 285.095606 107.24766 284.533025 106.68508 
C 283.970444 106.122499 283.207314 105.8064 282.411705 105.8064 
C 281.616095 105.8064 280.852965 106.122499 280.290384 106.68508 
C 279.727803 107.24766 279.411705 108.010791 279.411705 108.8064 
C 279.411705 109.602009 279.727803 110.36514 280.290384 110.92772 
C 280.852965 111.490301 281.616095 111.8064 282.411705 111.8064 
z
" style="fill:#f26b38;stroke:#ffffff;stroke-width:0.48;"/>
    <path clip-path="url(#pbf2e010d86)" d="M 289.175341 111.8064 
C 289.97095 111.8064 290.734081 111.490301 291.296661 110.92772 
C 291.859242 110.36514 292.175341 109.602009 292.175341 108.8064 
C 292.175341 108.010791 291.859242 107.24766 291.296661 106.68508 
C 290.734081 106.122499 289.97095 105.8064 289.175341 105.8064 
C 288.379732 105.8064 287.616601 106.122499 287.054021 106.68508 
C 286.49144 107.24766 286.175341 108.010791 286.175341 108.8064 
C 286.175341 109.602009 286.49144 110.36514 287.054021 110.92772 
C 287.616601 111.490301 288.379732 111.8064 289.175341 111.8064 
z
" style="fill:#f26b38;stroke:#ffffff;stroke-width:0.48;"/>
    <path clip-path="url(#pbf2e010d86)" d="M 295.938977 111.8064 
C 296.734587 111.8064 297.497717 111.490301 298.060298 110.92772 
C 298.622878 110.36514 298.938977 109.602009 298.938977 108.8064 
C 298.938977 108.010791 298.622878 107.24766 298.060298 106.68508 
C 297.497717 106.122499 296.734587 105.8064 295.938977 105.8064 
C 295.143368 105.8064 294.380238 106.122499 293.817657 106.68508 
C 293.255076 107.24766 292.938977 108.010791 292.938977 108.8064 
C 292.938977 109.602009 293.255076 110.36514 293.817657 110.92772 
C 294.380238 111.490301 295.143368 111.8064 295.938977 111.8064 
z
" style="fill:#f26b38;stroke:#ffffff;stroke-width:0.48;"/>
    <path clip-path="url(#pbf2e010d86)" d="M 302.702614 111.8064 
C 303.498223 111.8064 304.261353 111.490301 304.823934 110.92772 
C 305.386515 110.36514 305.702614 109.602009 305.702614 108.8064 
C 305.702614 108.010791 305.386515 107.24766 304.823934 106.68508 
C 304.261353 106.122499 303.498223 105.8064 302.702614 105.8064 
C 301.907004 105.8064 301.143874 106.122499 300.581293 106.68508 
C 300.018713 107.24766 299.702614 108.010791 299.702614 108.8064 
C 299.702614 109.602009 300.018713 110.36514 300.581293 110.92772 
C 301.143874 111.490301 301.907004 111.8064 302.702614 111.8064 
z
" style="fill:#f26b38;stroke:#ffffff;stroke-width:0.48;"/>
    <path clip-path="url(#pbf2e010d86)" d="M 309.46625 111.8064 
C 310.261859 111.8064 311.02499 111.490301 311.58757 110.92772 
C 312.150151 110.36514 312.46625 109.602009 312.46625 108.8064 
C 312.46625 108.010791 312.150151 107.24766 311.58757 106.68508 
C 311.02499 106.122499 310.261859 105.8064 309.46625 105.8064 
C 308.670641 105.8064 307.90751 106.122499 307.34493 106.68508 
C 306.782349 107.24766 306.46625 108.010791 306.46625 108.8064 
C 306.46625 109.602009 306.782349 110.36514 307.34493 110.92772 
C 307.90751 111.490301 308.670641 111.8064 309.46625 111.8064 
z
" style="fill:#f26b38;stroke:#ffffff;stroke-width:0.48;"/>
    <path clip-path="url(#pbf2e010d86)" d="M 316.229886 111.8064 
C 317.025496 111.8064 317.788626 111.490301 318.351207 110.92772 
C 318.913787 110.36514 319.229886 109.602009 319.229886 108.8064 
C 319.229886 108.010791 318.913787 107.24766 318.351207 106.68508 
C 317.788626 106.122499 317.025496 105.8064 316.229886 105.8064 
C 315.434277 105.8064 314.671147 106.122499 314.108566 106.68508 
C 313.545985 107.24766 313.229886 108.010791 313.229886 108.8064 
C 313.229886 109.602009 313.545985 110.36514 314.108566 110.92772 
C 314.671147 111.490301 315.434277 111.8064 316.229886 111.8064 
z
" style="fill:#f26b38;stroke:#ffffff;stroke-width:0.48;"/>
    <path clip-path="url(#pbf2e010d86)" d="M 322.993523 111.8064 
C 323.789132 111.8064 324.552262 111.490301 325.114843 110.92772 
C 325.677424 110.36514 325.993523 109.602009 325.993523 108.8064 
C 325.993523 108.010791 325.677424 107.24766 325.114843 106.68508 
C 324.552262 106.122499 323.789132 105.8064 322.993523 105.8064 
C 322.197913 105.8064 321.434783 106.122499 320.872202 106.68508 
C 320.309622 107.24766 319.993523 108.010791 319.993523 108.8064 
C 319.993523 109.602009 320.309622 110.36514 320.872202 110.92772 
C 321.434783 111.490301 322.197913 111.8064 322.993523 111.8064 
z
" style="fill:#f26b38;stroke:#ffffff;stroke-width:0.48;"/>
    <path clip-path="url(#pbf2e010d86)" d="M 329.757159 111.8064 
C 330.552768 111.8064 331.315899 111.490301 331.878479 110.92772 
C 332.44106 110.36514 332.757159 109.602009 332.757159 108.8064 
C 332.757159 108.010791 332.44106 107.24766 331.878479 106.68508 
C 331.315899 106.122499 330.552768 105.8064 329.757159 105.8064 
C 328.96155 105.8064 328.198419 106.122499 327.635839 106.68508 
C 327.073258 107.24766 326.757159 108.010791 326.757159 108.8064 
C 326.757159 109.602009 327.073258 110.36514 327.635839 110.92772 
C 328.198419 111.490301 328.96155 111.8064 329.757159 111.8064 
z
" style="fill:#f26b38;stroke:#ffffff;stroke-width:0.48;"/>
    <path clip-path="url(#pbf2e010d86)" d="M 336.520795 111.8064 
C 337.316405 111.8064 338.079535 111.490301 338.642116 110.92772 
C 339.204697 110.36514 339.520795 109.602009 339.520795 108.8064 
C 339.520795 108.010791 339.204697 107.24766 338.642116 106.68508 
C 338.079535 106.122499 337.316405 105.8064 336.520795 105.8064 
C 335.725186 105.8064 334.962056 106.122499 334.399475 106.68508 
C 333.836894 107.24766 333.520795 108.010791 333.520795 108.8064 
C 333.520795 109.602009 333.836894 110.36514 334.399475 110.92772 
C 334.962056 111.490301 335.725186 111.8064 336.520795 111.8064 
z
" style="fill:#f26b38;stroke:#ffffff;stroke-width:0.48;"/>
    <path clip-path="url(#pbf2e010d86)" d="M 343.284432 111.8064 
C 344.080041 111.8064 344.843171 111.490301 345.405752 110.92772 
C 345.968333 110.36514 346.284432 109.602009 346.284432 108.8064 
C 346.284432 108.010791 345.968333 107.24766 345.405752 106.68508 
C 344.843171 106.122499 344.080041 105.8064 343.284432 105.8064 
C 342.488823 105.8064 341.725692 106.122499 341.163111 106.68508 
C 340.600531 107.24766 340.284432 108.010791 340.284432 108.8064 
C 340.284432 109.602009 340.600531 110.36514 341.163111 110.92772 
C 341.725692 111.490301 342.488823 111.8064 343.284432 111.8064 
z
" style="fill:#f26b38;stroke:#ffffff;stroke-width:0.48;"/>
    <path clip-path="url(#pbf2e010d86)" d="M 350.048068 111.8064 
C 350.843677 111.8064 351.606808 111.490301 352.169389 110.92772 
C 352.731969 110.36514 353.048068 109.602009 353.048068 108.8064 
C 353.048068 108.010791 352.731969 107.24766 352.169389 106.68508 
C 351.606808 106.122499 350.843677 105.8064 350.048068 105.8064 
C 349.252459 105.8064 348.489329 106.122499 347.926748 106.68508 
C 347.364167 107.24766 347.048068 108.010791 347.048068 108.8064 
C 347.048068 109.602009 347.364167 110.36514 347.926748 110.92772 
C 348.489329 111.490301 349.252459 111.8064 350.048068 111.8064 
z
" style="fill:#f26b38;stroke:#ffffff;stroke-width:0.48;"/>
    <path clip-path="url(#pbf2e010d86)" d="M 356.811705 111.8064 
C 357.607314 111.8064 358.370444 111.490301 358.933025 110.92772 
C 359.495606 110.36514 359.811705 109.602009 359.811705 108.8064 
C 359.811705 108.010791 359.495606 107.24766 358.933025 106.68508 
C 358.370444 106.122499 357.607314 105.8064 356.811705 105.8064 
C 356.016095 105.8064 355.252965 106.122499 354.690384 106.68508 
C 354.127803 107.24766 353.811705 108.010791 353.811705 108.8064 
C 353.811705 109.602009 354.127803 110.36514 354.690384 110.92772 
C 355.252965 111.490301 356.016095 111.8064 356.811705 111.8064 
z
" style="fill:#f26b38;stroke:#ffffff;stroke-width:0.48;"/>
    <path clip-path="url(#pbf2e010d86)" d="M 363.575341 111.8064 
C 364.37095 111.8064 365.134081 111.490301 365.696661 110.92772 
C 366.259242 110.36514 366.575341 109.602009 366.575341 108.8064 
C 366.575341 108.010791 366.259242 107.24766 365.696661 106.68508 
C 365.134081 106.122499 364.37095 105.8064 363.575341 105.8064 
C 362.779732 105.8064 362.016601 106.122499 361.454021 106.68508 
C 360.89144 107.24766 360.575341 108.010791 360.575341 108.8064 
C 360.575341 109.602009 360.89144 110.36514 361.454021 110.92772 
C 362.016601 111.490301 362.779732 111.8064 363.575341 111.8064 
z
" style="fill:#f26b38;stroke:#ffffff;stroke-width:0.48;"/>
    <path clip-path="url(#pbf2e010d86)" d="M 370.338977 111.8064 
C 371.134587 111.8064 371.897717 111.490301 372.460298 110.92772 
C 373.022878 110.36514 373.338977 109.602009 373.338977 108.8064 
C 373.338977 108.010791 373.022878 107.24766 372.460298 106.68508 
C 371.897717 106.122499 371.134587 105.8064 370.338977 105.8064 
C 369.543368 105.8064 368.780238 106.122499 368.217657 106.68508 
C 367.655076 107.24766 367.338977 108.010791 367.338977 108.8064 
C 367.338977 109.602009 367.655076 110.36514 368.217657 110.92772 
C 368.780238 111.490301 369.543368 111.8064 370.338977 111.8064 
z
" style="fill:#f26b38;stroke:#ffffff;stroke-width:0.48;"/>
    <path clip-path="url(#pbf2e010d86)" d="M 377.102614 111.8064 
C 377.898223 111.8064 378.661353 111.490301 379.223934 110.92772 
C 379.786515 110.36514 380.102614 109.602009 380.102614 108.8064 
C 380.102614 108.010791 379.786515 107.24766 379.223934 106.68508 
C 378.661353 106.122499 377.898223 105.8064 377.102614 105.8064 
C 376.307004 105.8064 375.543874 106.122499 374.981293 106.68508 
C 374.418713 107.24766 374.102614 108.010791 374.102614 108.8064 
C 374.102614 109.602009 374.418713 110.36514 374.981293 110.92772 
C 375.543874 111.490301 376.307004 111.8064 377.102614 111.8064 
z
" style="fill:#f26b38;stroke:#ffffff;stroke-width:0.48;"/>
    <path clip-path="url(#pbf2e010d86)" d="M 383.86625 111.8064 
C 384.661859 111.8064 385.42499 111.490301 385.98757 110.92772 
C 386.550151 110.36514 386.86625 109.602009 386.86625 108.8064 
C 386.86625 108.010791 386.550151 107.24766 385.98757 106.68508 
C 385.42499 106.122499 384.661859 105.8064 383.86625 105.8064 
C 383.070641 105.8064 382.30751 106.122499 381.74493 106.68508 
C 381.182349 107.24766 380.86625 108.010791 380.86625 108.8064 
C 380.86625 109.602009 381.182349 110.36514 381.74493 110.92772 
C 382.30751 111.490301 383.070641 111.8064 383.86625 111.8064 
z
" style="fill:#f26b38;stroke:#ffffff;stroke-width:0.48;"/>
    <path clip-path="url(#pbf2e010d86)" d="M 390.629886 111.8064 
C 391.425496 111.8064 392.188626 111.490301 392.751207 110.92772 
C 393.313787 110.36514 393.629886 109.602009 393.629886 108.8064 
C 393.629886 108.010791 393.313787 107.24766 392.751207 106.68508 
C 392.188626 106.122499 391.425496 105.8064 390.629886 105.8064 
C 389.834277 105.8064 389.071147 106.122499 388.508566 106.68508 
C 387.945985 107.24766 387.629886 108.010791 387.629886 108.8064 
C 387.629886 109.602009 387.945985 110.36514 388.508566 110.92772 
C 389.071147 111.490301 389.834277 111.8064 390.629886 111.8064 
z
" style="fill:#f26b38;stroke:#ffffff;stroke-width:0.48;"/>
    <path clip-path="url(#pbf2e010d86)" d="M 397.393523 111.8064 
C 398.189132 111.8064 398.952262 111.490301 399.514843 110.92772 
C 400.077424 110.36514 400.393523 109.602009 400.393523 108.8064 
C 400.393523 108.010791 400.077424 107.24766 399.514843 106.68508 
C 398.952262 106.122499 398.189132 105.8064 397.393523 105.8064 
C 396.597913 105.8064 395.834783 106.122499 395.272202 106.68508 
C 394.709622 107.24766 394.393523 108.010791 394.393523 108.8064 
C 394.393523 109.602009 394.709622 110.36514 395.272202 110.92772 
C 395.834783 111.490301 396.597913 111.8064 397.393523 111.8064 
z
" style="fill:#f26b38;stroke:#ffffff;stroke-width:0.48;"/>
    <path clip-path="url(#pbf2e010d86)" d="M 71.238977 246.072 
L 72.738977 244.572 
L 74.238977 246.072 
L 75.738977 244.572 
L 74.238977 243.072 
L 75.738977 241.572 
L 74.238977 240.072 
L 72.738977 241.572 
L 71.238977 240.072 
L 69.738977 241.572 
L 71.238977 243.072 
L 69.738977 244.572 
z
" style="fill:#2f9599;stroke:#ffffff;stroke-width:0.48;"/>
    <path clip-path="url(#pbf2e010d86)" d="M 78.002614 193.533287 
L 79.502614 192.033287 
L 81.002614 193.533287 
L 82.502614 192.033287 
L 81.002614 190.533287 
L 82.502614 189.033287 
L 81.002614 187.533287 
L 79.502614 189.033287 
L 78.002614 187.533287 
L 76.502614 189.033287 
L 78.002614 190.533287 
L 76.502614 192.033287 
z
" style="fill:#2f9599;stroke:#ffffff;stroke-width:0.48;"/>
    <path clip-path="url(#pbf2e010d86)" d="M 84.76625 193.533287 
L 86.26625 192.033287 
L 87.76625 193.533287 
L 89.26625 192.033287 
L 87.76625 190.533287 
L 89.26625 189.033287 
L 87.76625 187.533287 
L 86.26625 189.033287 
L 84.76625 187.533287 
L 83.26625 189.033287 
L 84.76625 190.533287 
L 83.26625 192.033287 
z
" style="fill:#2f9599;stroke:#ffffff;stroke-width:0.48;"/>
    <path clip-path="url(#pbf2e010d86)" d="M 91.529886 193.533287 
L 93.029886 192.033287 
L 94.529886 193.533287 
L 96.029886 192.033287 
L 94.529886 190.533287 
L 96.029886 189.033287 
L 94.529886 187.533287 
L 93.029886 189.033287 
L 91.529886 187.533287 
L 90.029886 189.033287 
L 91.529886 190.533287 
L 90.029886 192.033287 
z
" style="fill:#2f9599;stroke:#ffffff;stroke-width:0.48;"/>
    <path clip-path="url(#pbf2e010d86)" d="M 98.293523 264.216 
L 99.793523 262.716 
L 101.293523 264.216 
L 102.793523 262.716 
L 101.293523 261.216 
L 102.793523 259.716 
L 101.293523 258.216 
L 99.793523 259.716 
L 98.293523 258.216 
L 96.793523 259.716 
L 98.293523 261.216 
L 96.793523 262.716 
z
" style="fill:#2f9599;stroke:#ffffff;stroke-width:0.48;"/>
    <path clip-path="url(#pbf2e010d86)" d="M 105.057159 264.216 
L 106.557159 262.716 
L 108.057159 264.216 
L 109.557159 262.716 
L 108.057159 261.216 
L 109.557159 259.716 
L 108.057159 258.216 
L 106.557159 259.716 
L 105.057159 258.216 
L 103.557159 259.716 
L 105.057159 261.216 
L 103.557159 262.716 
z
" style="fill:#2f9599;stroke:#ffffff;stroke-width:0.48;"/>
    <path clip-path="url(#pbf2e010d86)" d="M 111.820795 264.216 
L 113.320795 262.716 
L 114.820795 264.216 
L 116.320795 262.716 
L 114.820795 261.216 
L 116.320795 259.716 
L 114.820795 258.216 
L 113.320795 259.716 
L 111.820795 258.216 
L 110.320795 259.716 
L 111.820795 261.216 
L 110.320795 262.716 
z
" style="fill:#2f9599;stroke:#ffffff;stroke-width:0.48;"/>
    <path clip-path="url(#pbf2e010d86)" d="M 118.584432 264.216 
L 120.084432 262.716 
L 121.584432 264.216 
L 123.084432 262.716 
L 121.584432 261.216 
L 123.084432 259.716 
L 121.584432 258.216 
L 120.084432 259.716 
L 118.584432 258.216 
L 117.084432 259.716 
L 118.584432 261.216 
L 117.084432 262.716 
z
" style="fill:#2f9599;stroke:#ffffff;stroke-width:0.48;"/>
    <path clip-path="url(#pbf2e010d86)" d="M 125.348068 264.216 
L 126.848068 262.716 
L 128.348068 264.216 
L 129.848068 262.716 
L 128.348068 261.216 
L 129.848068 259.716 
L 128.348068 258.216 
L 126.848068 259.716 
L 125.348068 258.216 
L 123.848068 259.716 
L 125.348068 261.216 
L 123.848068 262.716 
z
" style="fill:#2f9599;stroke:#ffffff;stroke-width:0.48;"/>
    <path clip-path="url(#pbf2e010d86)" d="M 132.111705 264.216 
L 133.611705 262.716 
L 135.111705 264.216 
L 136.611705 262.716 
L 135.111705 261.216 
L 136.611705 259.716 
L 135.111705 258.216 
L 133.611705 259.716 
L 132.111705 258.216 
L 130.611705 259.716 
L 132.111705 261.216 
L 130.611705 262.716 
z
" style="fill:#2f9599;stroke:#ffffff;stroke-width:0.48;"/>
    <path clip-path="url(#pbf2e010d86)" d="M 138.875341 264.216 
L 140.375341 262.716 
L 141.875341 264.216 
L 143.375341 262.716 
L 141.875341 261.216 
L 143.375341 259.716 
L 141.875341 258.216 
L 140.375341 259.716 
L 138.875341 258.216 
L 137.375341 259.716 
L 138.875341 261.216 
L 137.375341 262.716 
z
" style="fill:#2f9599;stroke:#ffffff;stroke-width:0.48;"/>
    <path clip-path="url(#pbf2e010d86)" d="M 145.638977 264.216 
L 147.138977 262.716 
L 148.638977 264.216 
L 150.138977 262.716 
L 148.638977 261.216 
L 150.138977 259.716 
L 148.638977 258.216 
L 147.138977 259.716 
L 145.638977 258.216 
L 144.138977 259.716 
L 145.638977 261.216 
L 144.138977 262.716 
z
" style="fill:#2f9599;stroke:#ffffff;stroke-width:0.48;"/>
    <path clip-path="url(#pbf2e010d86)" d="M 152.402614 264.216 
L 153.902614 262.716 
L 155.402614 264.216 
L 156.902614 262.716 
L 155.402614 261.216 
L 156.902614 259.716 
L 155.402614 258.216 
L 153.902614 259.716 
L 152.402614 258.216 
L 150.902614 259.716 
L 152.402614 261.216 
L 150.902614 262.716 
z
" style="fill:#2f9599;stroke:#ffffff;stroke-width:0.48;"/>
    <path clip-path="url(#pbf2e010d86)" d="M 159.16625 264.216 
L 160.66625 262.716 
L 162.16625 264.216 
L 163.66625 262.716 
L 162.16625 261.216 
L 163.66625 259.716 
L 162.16625 258.216 
L 160.66625 259.716 
L 159.16625 258.216 
L 157.66625 259.716 
L 159.16625 261.216 
L 157.66625 262.716 
z
" style="fill:#2f9599;stroke:#ffffff;stroke-width:0.48;"/>
    <path clip-path="url(#pbf2e010d86)" d="M 165.929886 264.216 
L 167.429886 262.716 
L 168.929886 264.216 
L 170.429886 262.716 
L 168.929886 261.216 
L 170.429886 259.716 
L 168.929886 258.216 
L 167.429886 259.716 
L 165.929886 258.216 
L 164.429886 259.716 
L 165.929886 261.216 
L 164.429886 262.716 
z
" style="fill:#2f9599;stroke:#ffffff;stroke-width:0.48;"/>
    <path clip-path="url(#pbf2e010d86)" d="M 172.693523 264.216 
L 174.193523 262.716 
L 175.693523 264.216 
L 177.193523 262.716 
L 175.693523 261.216 
L 177.193523 259.716 
L 175.693523 258.216 
L 174.193523 259.716 
L 172.693523 258.216 
L 171.193523 259.716 
L 172.693523 261.216 
L 171.193523 262.716 
z
" style="fill:#2f9599;stroke:#ffffff;stroke-width:0.48;"/>
    <path clip-path="url(#pbf2e010d86)" d="M 179.457159 210.738947 
L 180.957159 209.238947 
L 182.457159 210.738947 
L 183.957159 209.238947 
L 182.457159 207.738947 
L 183.957159 206.238947 
L 182.457159 204.738947 
L 180.957159 206.238947 
L 179.457159 204.738947 
L 177.957159 206.238947 
L 179.457159 207.738947 
L 177.957159 209.238947 
z
" style="fill:#2f9599;stroke:#ffffff;stroke-width:0.48;"/>
    <path clip-path="url(#pbf2e010d86)" d="M 186.220795 210.738947 
L 187.720795 209.238947 
L 189.220795 210.738947 
L 190.720795 209.238947 
L 189.220795 207.738947 
L 190.720795 206.238947 
L 189.220795 204.738947 
L 187.720795 206.238947 
L 186.220795 204.738947 
L 184.720795 206.238947 
L 186.220795 207.738947 
L 184.720795 209.238947 
z
" style="fill:#2f9599;stroke:#ffffff;stroke-width:0.48;"/>
    <path clip-path="url(#pbf2e010d86)" d="M 192.984432 210.738947 
L 194.484432 209.238947 
L 195.984432 210.738947 
L 197.484432 209.238947 
L 195.984432 207.738947 
L 197.484432 206.238947 
L 195.984432 204.738947 
L 194.484432 206.238947 
L 192.984432 204.738947 
L 191.484432 206.238947 
L 192.984432 207.738947 
L 191.484432 209.238947 
z
" style="fill:#2f9599;stroke:#ffffff;stroke-width:0.48;"/>
    <path clip-path="url(#pbf2e010d86)" d="M 199.748068 210.738947 
L 201.248068 209.238947 
L 202.748068 210.738947 
L 204.248068 209.238947 
L 202.748068 207.738947 
L 204.248068 206.238947 
L 202.748068 204.738947 
L 201.248068 206.238947 
L 199.748068 204.738947 
L 198.248068 206.238947 
L 199.748068 207.738947 
L 198.248068 209.238947 
z
" style="fill:#2f9599;stroke:#ffffff;stroke-width:0.48;"/>
    <path clip-path="url(#pbf2e010d86)" d="M 206.511705 210.738947 
L 208.011705 209.238947 
L 209.511705 210.738947 
L 211.011705 209.238947 
L 209.511705 207.738947 
L 211.011705 206.238947 
L 209.511705 204.738947 
L 208.011705 206.238947 
L 206.511705 204.738947 
L 205.011705 206.238947 
L 206.511705 207.738947 
L 205.011705 209.238947 
z
" style="fill:#2f9599;stroke:#ffffff;stroke-width:0.48;"/>
    <path clip-path="url(#pbf2e010d86)" d="M 213.275341 210.738947 
L 214.775341 209.238947 
L 216.275341 210.738947 
L 217.775341 209.238947 
L 216.275341 207.738947 
L 217.775341 206.238947 
L 216.275341 204.738947 
L 214.775341 206.238947 
L 213.275341 204.738947 
L 211.775341 206.238947 
L 213.275341 207.738947 
L 211.775341 209.238947 
z
" style="fill:#2f9599;stroke:#ffffff;stroke-width:0.48;"/>
    <path clip-path="url(#pbf2e010d86)" d="M 220.038977 210.738947 
L 221.538977 209.238947 
L 223.038977 210.738947 
L 224.538977 209.238947 
L 223.038977 207.738947 
L 224.538977 206.238947 
L 223.038977 204.738947 
L 221.538977 206.238947 
L 220.038977 204.738947 
L 218.538977 206.238947 
L 220.038977 207.738947 
L 218.538977 209.238947 
z
" style="fill:#2f9599;stroke:#ffffff;stroke-width:0.48;"/>
    <path clip-path="url(#pbf2e010d86)" d="M 226.802614 210.738947 
L 228.302614 209.238947 
L 229.802614 210.738947 
L 231.302614 209.238947 
L 229.802614 207.738947 
L 231.302614 206.238947 
L 229.802614 204.738947 
L 228.302614 206.238947 
L 226.802614 204.738947 
L 225.302614 206.238947 
L 226.802614 207.738947 
L 225.302614 209.238947 
z
" style="fill:#2f9599;stroke:#ffffff;stroke-width:0.48;"/>
    <path clip-path="url(#pbf2e010d86)" d="M 233.56625 210.738947 
L 235.06625 209.238947 
L 236.56625 210.738947 
L 238.06625 209.238947 
L 236.56625 207.738947 
L 238.06625 206.238947 
L 236.56625 204.738947 
L 235.06625 206.238947 
L 233.56625 204.738947 
L 232.06625 206.238947 
L 233.56625 207.738947 
L 232.06625 209.238947 
z
" style="fill:#2f9599;stroke:#ffffff;stroke-width:0.48;"/>
    <path clip-path="url(#pbf2e010d86)" d="M 240.329886 210.738947 
L 241.829886 209.238947 
L 243.329886 210.738947 
L 244.829886 209.238947 
L 243.329886 207.738947 
L 244.829886 206.238947 
L 243.329886 204.738947 
L 241.829886 206.238947 
L 240.329886 204.738947 
L 238.829886 206.238947 
L 240.329886 207.738947 
L 238.829886 209.238947 
z
" style="fill:#2f9599;stroke:#ffffff;stroke-width:0.48;"/>
    <path clip-path="url(#pbf2e010d86)" d="M 247.093523 210.738947 
L 248.593523 209.238947 
L 250.093523 210.738947 
L 251.593523 209.238947 
L 250.093523 207.738947 
L 251.593523 206.238947 
L 250.093523 204.738947 
L 248.593523 206.238947 
L 247.093523 204.738947 
L 245.593523 206.238947 
L 247.093523 207.738947 
L 245.593523 209.238947 
z
" style="fill:#2f9599;stroke:#ffffff;stroke-width:0.48;"/>
    <path clip-path="url(#pbf2e010d86)" d="M 253.857159 210.738947 
L 255.357159 209.238947 
L 256.857159 210.738947 
L 258.357159 209.238947 
L 256.857159 207.738947 
L 258.357159 206.238947 
L 256.857159 204.738947 
L 255.357159 206.238947 
L 253.857159 204.738947 
L 252.357159 206.238947 
L 253.857159 207.738947 
L 252.357159 209.238947 
z
" style="fill:#2f9599;stroke:#ffffff;stroke-width:0.48;"/>
    <path clip-path="url(#pbf2e010d86)" d="M 260.620795 210.738947 
L 262.120795 209.238947 
L 263.620795 210.738947 
L 265.120795 209.238947 
L 263.620795 207.738947 
L 265.120795 206.238947 
L 263.620795 204.738947 
L 262.120795 206.238947 
L 260.620795 204.738947 
L 259.120795 206.238947 
L 260.620795 207.738947 
L 259.120795 209.238947 
z
" style="fill:#2f9599;stroke:#ffffff;stroke-width:0.48;"/>
    <path clip-path="url(#pbf2e010d86)" d="M 267.384432 210.738947 
L 268.884432 209.238947 
L 270.384432 210.738947 
L 271.884432 209.238947 
L 270.384432 207.738947 
L 271.884432 206.238947 
L 270.384432 204.738947 
L 268.884432 206.238947 
L 267.384432 204.738947 
L 265.884432 206.238947 
L 267.384432 207.738947 
L 265.884432 209.238947 
z
" style="fill:#2f9599;stroke:#ffffff;stroke-width:0.48;"/>
    <path clip-path="url(#pbf2e010d86)" d="M 274.148068 210.738947 
L 275.648068 209.238947 
L 277.148068 210.738947 
L 278.648068 209.238947 
L 277.148068 207.738947 
L 278.648068 206.238947 
L 277.148068 204.738947 
L 275.648068 206.238947 
L 274.148068 204.738947 
L 272.648068 206.238947 
L 274.148068 207.738947 
L 272.648068 209.238947 
z
" style="fill:#2f9599;stroke:#ffffff;stroke-width:0.48;"/>
    <path clip-path="url(#pbf2e010d86)" d="M 280.911705 210.738947 
L 282.411705 209.238947 
L 283.911705 210.738947 
L 285.411705 209.238947 
L 283.911705 207.738947 
L 285.411705 206.238947 
L 283.911705 204.738947 
L 282.411705 206.238947 
L 280.911705 204.738947 
L 279.411705 206.238947 
L 280.911705 207.738947 
L 279.411705 209.238947 
z
" style="fill:#2f9599;stroke:#ffffff;stroke-width:0.48;"/>
    <path clip-path="url(#pbf2e010d86)" d="M 287.675341 210.738947 
L 289.175341 209.238947 
L 290.675341 210.738947 
L 292.175341 209.238947 
L 290.675341 207.738947 
L 292.175341 206.238947 
L 290.675341 204.738947 
L 289.175341 206.238947 
L 287.675341 204.738947 
L 286.175341 206.238947 
L 287.675341 207.738947 
L 286.175341 209.238947 
z
" style="fill:#2f9599;stroke:#ffffff;stroke-width:0.48;"/>
    <path clip-path="url(#pbf2e010d86)" d="M 294.438977 210.738947 
L 295.938977 209.238947 
L 297.438977 210.738947 
L 298.938977 209.238947 
L 297.438977 207.738947 
L 298.938977 206.238947 
L 297.438977 204.738947 
L 295.938977 206.238947 
L 294.438977 204.738947 
L 292.938977 206.238947 
L 294.438977 207.738947 
L 292.938977 209.238947 
z
" style="fill:#2f9599;stroke:#ffffff;stroke-width:0.48;"/>
    <path clip-path="url(#pbf2e010d86)" d="M 301.202614 210.738947 
L 302.702614 209.238947 
L 304.202614 210.738947 
L 305.702614 209.238947 
L 304.202614 207.738947 
L 305.702614 206.238947 
L 304.202614 204.738947 
L 302.702614 206.238947 
L 301.202614 204.738947 
L 299.702614 206.238947 
L 301.202614 207.738947 
L 299.702614 209.238947 
z
" style="fill:#2f9599;stroke:#ffffff;stroke-width:0.48;"/>
    <path clip-path="url(#pbf2e010d86)" d="M 307.96625 210.738947 
L 309.46625 209.238947 
L 310.96625 210.738947 
L 312.46625 209.238947 
L 310.96625 207.738947 
L 312.46625 206.238947 
L 310.96625 204.738947 
L 309.46625 206.238947 
L 307.96625 204.738947 
L 306.46625 206.238947 
L 307.96625 207.738947 
L 306.46625 209.238947 
z
" style="fill:#2f9599;stroke:#ffffff;stroke-width:0.48;"/>
    <path clip-path="url(#pbf2e010d86)" d="M 314.729886 210.738947 
L 316.229886 209.238947 
L 317.729886 210.738947 
L 319.229886 209.238947 
L 317.729886 207.738947 
L 319.229886 206.238947 
L 317.729886 204.738947 
L 316.229886 206.238947 
L 314.729886 204.738947 
L 313.229886 206.238947 
L 314.729886 207.738947 
L 313.229886 209.238947 
z
" style="fill:#2f9599;stroke:#ffffff;stroke-width:0.48;"/>
    <path clip-path="url(#pbf2e010d86)" d="M 321.493523 210.738947 
L 322.993523 209.238947 
L 324.493523 210.738947 
L 325.993523 209.238947 
L 324.493523 207.738947 
L 325.993523 206.238947 
L 324.493523 204.738947 
L 322.993523 206.238947 
L 321.493523 204.738947 
L 319.993523 206.238947 
L 321.493523 207.738947 
L 319.993523 209.238947 
z
" style="fill:#2f9599;stroke:#ffffff;stroke-width:0.48;"/>
    <path clip-path="url(#pbf2e010d86)" d="M 328.257159 210.738947 
L 329.757159 209.238947 
L 331.257159 210.738947 
L 332.757159 209.238947 
L 331.257159 207.738947 
L 332.757159 206.238947 
L 331.257159 204.738947 
L 329.757159 206.238947 
L 328.257159 204.738947 
L 326.757159 206.238947 
L 328.257159 207.738947 
L 326.757159 209.238947 
z
" style="fill:#2f9599;stroke:#ffffff;stroke-width:0.48;"/>
    <path clip-path="url(#pbf2e010d86)" d="M 335.020795 210.738947 
L 336.520795 209.238947 
L 338.020795 210.738947 
L 339.520795 209.238947 
L 338.020795 207.738947 
L 339.520795 206.238947 
L 338.020795 204.738947 
L 336.520795 206.238947 
L 335.020795 204.738947 
L 333.520795 206.238947 
L 335.020795 207.738947 
L 333.520795 209.238947 
z
" style="fill:#2f9599;stroke:#ffffff;stroke-width:0.48;"/>
    <path clip-path="url(#pbf2e010d86)" d="M 341.784432 210.738947 
L 343.284432 209.238947 
L 344.784432 210.738947 
L 346.284432 209.238947 
L 344.784432 207.738947 
L 346.284432 206.238947 
L 344.784432 204.738947 
L 343.284432 206.238947 
L 341.784432 204.738947 
L 340.284432 206.238947 
L 341.784432 207.738947 
L 340.284432 209.238947 
z
" style="fill:#2f9599;stroke:#ffffff;stroke-width:0.48;"/>
    <path clip-path="url(#pbf2e010d86)" d="M 348.548068 210.738947 
L 350.048068 209.238947 
L 351.548068 210.738947 
L 353.048068 209.238947 
L 351.548068 207.738947 
L 353.048068 206.238947 
L 351.548068 204.738947 
L 350.048068 206.238947 
L 348.548068 204.738947 
L 347.048068 206.238947 
L 348.548068 207.738947 
L 347.048068 209.238947 
z
" style="fill:#2f9599;stroke:#ffffff;stroke-width:0.48;"/>
    <path clip-path="url(#pbf2e010d86)" d="M 355.311705 210.738947 
L 356.811705 209.238947 
L 358.311705 210.738947 
L 359.811705 209.238947 
L 358.311705 207.738947 
L 359.811705 206.238947 
L 358.311705 204.738947 
L 356.811705 206.238947 
L 355.311705 204.738947 
L 353.811705 206.238947 
L 355.311705 207.738947 
L 353.811705 209.238947 
z
" style="fill:#2f9599;stroke:#ffffff;stroke-width:0.48;"/>
    <path clip-path="url(#pbf2e010d86)" d="M 362.075341 210.738947 
L 363.575341 209.238947 
L 365.075341 210.738947 
L 366.575341 209.238947 
L 365.075341 207.738947 
L 366.575341 206.238947 
L 365.075341 204.738947 
L 363.575341 206.238947 
L 362.075341 204.738947 
L 360.575341 206.238947 
L 362.075341 207.738947 
L 360.575341 209.238947 
z
" style="fill:#2f9599;stroke:#ffffff;stroke-width:0.48;"/>
    <path clip-path="url(#pbf2e010d86)" d="M 368.838977 210.738947 
L 370.338977 209.238947 
L 371.838977 210.738947 
L 373.338977 209.238947 
L 371.838977 207.738947 
L 373.338977 206.238947 
L 371.838977 204.738947 
L 370.338977 206.238947 
L 368.838977 204.738947 
L 367.338977 206.238947 
L 368.838977 207.738947 
L 367.338977 209.238947 
z
" style="fill:#2f9599;stroke:#ffffff;stroke-width:0.48;"/>
    <path clip-path="url(#pbf2e010d86)" d="M 375.602614 210.738947 
L 377.102614 209.238947 
L 378.602614 210.738947 
L 380.102614 209.238947 
L 378.602614 207.738947 
L 380.102614 206.238947 
L 378.602614 204.738947 
L 377.102614 206.238947 
L 375.602614 204.738947 
L 374.102614 206.238947 
L 375.602614 207.738947 
L 374.102614 209.238947 
z
" style="fill:#2f9599;stroke:#ffffff;stroke-width:0.48;"/>
    <path clip-path="url(#pbf2e010d86)" d="M 382.36625 210.738947 
L 383.86625 209.238947 
L 385.36625 210.738947 
L 386.86625 209.238947 
L 385.36625 207.738947 
L 386.86625 206.238947 
L 385.36625 204.738947 
L 383.86625 206.238947 
L 382.36625 204.738947 
L 380.86625 206.238947 
L 382.36625 207.738947 
L 380.86625 209.238947 
z
" style="fill:#2f9599;stroke:#ffffff;stroke-width:0.48;"/>
    <path clip-path="url(#pbf2e010d86)" d="M 389.129886 210.738947 
L 390.629886 209.238947 
L 392.129886 210.738947 
L 393.629886 209.238947 
L 392.129886 207.738947 
L 393.629886 206.238947 
L 392.129886 204.738947 
L 390.629886 206.238947 
L 389.129886 204.738947 
L 387.629886 206.238947 
L 389.129886 207.738947 
L 387.629886 209.238947 
z
" style="fill:#2f9599;stroke:#ffffff;stroke-width:0.48;"/>
    <path clip-path="url(#pbf2e010d86)" d="M 395.893523 210.738947 
L 397.393523 209.238947 
L 398.893523 210.738947 
L 400.393523 209.238947 
L 398.893523 207.738947 
L 400.393523 206.238947 
L 398.893523 204.738947 
L 397.393523 206.238947 
L 395.893523 204.738947 
L 394.393523 206.238947 
L 395.893523 207.738947 
L 394.393523 209.238947 
z
" style="fill:#2f9599;stroke:#ffffff;stroke-width:0.48;"/>
    <path clip-path="url(#pbf2e010d86)" d="M 70.617657 75.870024 
L 70.617657 80.112665 
L 74.860298 80.112665 
L 74.860298 75.870024 
z
" style="fill:#a7226e;stroke:#ffffff;stroke-width:0.48;"/>
    <path clip-path="url(#pbf2e010d86)" d="M 77.381293 75.870024 
L 77.381293 80.112665 
L 81.623934 80.112665 
L 81.623934 75.870024 
z
" style="fill:#a7226e;stroke:#ffffff;stroke-width:0.48;"/>
    <path clip-path="url(#pbf2e010d86)" d="M 84.14493 75.870024 
L 84.14493 80.112665 
L 88.38757 80.112665 
L 88.38757 75.870024 
z
" style="fill:#a7226e;stroke:#ffffff;stroke-width:0.48;"/>
    <path clip-path="url(#pbf2e010d86)" d="M 90.908566 75.870024 
L 90.908566 80.112665 
L 95.151207 80.112665 
L 95.151207 75.870024 
z
" style="fill:#a7226e;stroke:#ffffff;stroke-width:0.48;"/>
    <path clip-path="url(#pbf2e010d86)" d="M 97.672202 75.870024 
L 97.672202 80.112665 
L 101.914843 80.112665 
L 101.914843 75.870024 
z
" style="fill:#a7226e;stroke:#ffffff;stroke-width:0.48;"/>
    <path clip-path="url(#pbf2e010d86)" d="M 104.435839 91.150217 
L 104.435839 95.392858 
L 108.678479 95.392858 
L 108.678479 91.150217 
z
" style="fill:#a7226e;stroke:#ffffff;stroke-width:0.48;"/>
    <path clip-path="url(#pbf2e010d86)" d="M 111.199475 75.870024 
L 111.199475 80.112665 
L 115.442116 80.112665 
L 115.442116 75.870024 
z
" style="fill:#a7226e;stroke:#ffffff;stroke-width:0.48;"/>
    <path clip-path="url(#pbf2e010d86)" d="M 117.963111 75.870024 
L 117.963111 80.112665 
L 122.205752 80.112665 
L 122.205752 75.870024 
z
" style="fill:#a7226e;stroke:#ffffff;stroke-width:0.48;"/>
    <path clip-path="url(#pbf2e010d86)" d="M 124.726748 75.870024 
L 124.726748 80.112665 
L 128.969389 80.112665 
L 128.969389 75.870024 
z
" style="fill:#a7226e;stroke:#ffffff;stroke-width:0.48;"/>
    <path clip-path="url(#pbf2e010d86)" d="M 131.490384 60.838289 
L 131.490384 65.08093 
L 135.733025 65.08093 
L 135.733025 60.838289 
z
" style="fill:#a7226e;stroke:#ffffff;stroke-width:0.48;"/>
    <path clip-path="url(#pbf2e010d86)" d="M 138.254021 75.870024 
L 138.254021 80.112665 
L 142.496661 80.112665 
L 142.496661 75.870024 
z
" style="fill:#a7226e;stroke:#ffffff;stroke-width:0.48;"/>
    <path clip-path="url(#pbf2e010d86)" d="M 145.017657 46.049002 
L 145.017657 50.291643 
L 149.260298 50.291643 
L 149.260298 46.049002 
z
" style="fill:#a7226e;stroke:#ffffff;stroke-width:0.48;"/>
    <path clip-path="url(#pbf2e010d86)" d="M 151.781293 46.049002 
L 151.781293 50.291643 
L 156.023934 50.291643 
L 156.023934 46.049002 
z
" style="fill:#a7226e;stroke:#ffffff;stroke-width:0.48;"/>
    <path clip-path="url(#pbf2e010d86)" d="M 158.54493 46.049002 
L 158.54493 50.291643 
L 162.78757 50.291643 
L 162.78757 46.049002 
z
" style="fill:#a7226e;stroke:#ffffff;stroke-width:0.48;"/>
    <path clip-path="url(#pbf2e010d86)" d="M 165.308566 46.049002 
L 165.308566 50.291643 
L 169.551207 50.291643 
L 169.551207 46.049002 
z
" style="fill:#a7226e;stroke:#ffffff;stroke-width:0.48;"/>
    <path clip-path="url(#pbf2e010d86)" d="M 172.072202 75.870024 
L 172.072202 80.112665 
L 176.314843 80.112665 
L 176.314843 75.870024 
z
" style="fill:#a7226e;stroke:#ffffff;stroke-width:0.48;"/>
    <path clip-path="url(#pbf2e010d86)" d="M 178.835839 60.838289 
L 178.835839 65.08093 
L 183.078479 65.08093 
L 183.078479 60.838289 
z
" style="fill:#a7226e;stroke:#ffffff;stroke-width:0.48;"/>
    <path clip-path="url(#pbf2e010d86)" d="M 185.599475 60.838289 
L 185.599475 65.08093 
L 189.842116 65.08093 
L 189.842116 60.838289 
z
" style="fill:#a7226e;stroke:#ffffff;stroke-width:0.48;"/>
    <path clip-path="url(#pbf2e010d86)" d="M 192.363111 60.838289 
L 192.363111 65.08093 
L 196.605752 65.08093 
L 196.605752 60.838289 
z
" style="fill:#a7226e;stroke:#ffffff;stroke-width:0.48;"/>
    <path clip-path="url(#pbf2e010d86)" d="M 199.126748 60.838289 
L 199.126748 65.08093 
L 203.369389 65.08093 
L 203.369389 60.838289 
z
" style="fill:#a7226e;stroke:#ffffff;stroke-width:0.48;"/>
    <path clip-path="url(#pbf2e010d86)" d="M 205.890384 60.838289 
L 205.890384 65.08093 
L 210.133025 65.08093 
L 210.133025 60.838289 
z
" style="fill:#a7226e;stroke:#ffffff;stroke-width:0.48;"/>
    <path clip-path="url(#pbf2e010d86)" d="M 212.654021 75.870024 
L 212.654021 80.112665 
L 216.896661 80.112665 
L 216.896661 75.870024 
z
" style="fill:#a7226e;stroke:#ffffff;stroke-width:0.48;"/>
    <path clip-path="url(#pbf2e010d86)" d="M 219.417657 60.838289 
L 219.417657 65.08093 
L 223.660298 65.08093 
L 223.660298 60.838289 
z
" style="fill:#a7226e;stroke:#ffffff;stroke-width:0.48;"/>
    <path clip-path="url(#pbf2e010d86)" d="M 226.181293 106.68508 
L 226.181293 110.92772 
L 230.423934 110.92772 
L 230.423934 106.68508 
z
" style="fill:#a7226e;stroke:#ffffff;stroke-width:0.48;"/>
    <path clip-path="url(#pbf2e010d86)" d="M 232.94493 106.68508 
L 232.94493 110.92772 
L 237.18757 110.92772 
L 237.18757 106.68508 
z
" style="fill:#a7226e;stroke:#ffffff;stroke-width:0.48;"/>
    <path clip-path="url(#pbf2e010d86)" d="M 239.708566 106.68508 
L 239.708566 110.92772 
L 243.951207 110.92772 
L 243.951207 106.68508 
z
" style="fill:#a7226e;stroke:#ffffff;stroke-width:0.48;"/>
    <path clip-path="url(#pbf2e010d86)" d="M 246.472202 60.838289 
L 246.472202 65.08093 
L 250.714843 65.08093 
L 250.714843 60.838289 
z
" style="fill:#a7226e;stroke:#ffffff;stroke-width:0.48;"/>
    <path clip-path="url(#pbf2e010d86)" d="M 253.235839 60.838289 
L 253.235839 65.08093 
L 257.478479 65.08093 
L 257.478479 60.838289 
z
" style="fill:#a7226e;stroke:#ffffff;stroke-width:0.48;"/>
    <path clip-path="url(#pbf2e010d86)" d="M 259.999475 60.838289 
L 259.999475 65.08093 
L 264.242116 65.08093 
L 264.242116 60.838289 
z
" style="fill:#a7226e;stroke:#ffffff;stroke-width:0.48;"/>
    <path clip-path="url(#pbf2e010d86)" d="M 266.763111 60.838289 
L 266.763111 65.08093 
L 271.005752 65.08093 
L 271.005752 60.838289 
z
" style="fill:#a7226e;stroke:#ffffff;stroke-width:0.48;"/>
    <path clip-path="url(#pbf2e010d86)" d="M 273.526748 60.838289 
L 273.526748 65.08093 
L 277.769389 65.08093 
L 277.769389 60.838289 
z
" style="fill:#a7226e;stroke:#ffffff;stroke-width:0.48;"/>
    <path clip-path="url(#pbf2e010d86)" d="M 280.290384 60.838289 
L 280.290384 65.08093 
L 284.533025 65.08093 
L 284.533025 60.838289 
z
" style="fill:#a7226e;stroke:#ffffff;stroke-width:0.48;"/>
    <path clip-path="url(#pbf2e010d86)" d="M 287.054021 60.838289 
L 287.054021 65.08093 
L 291.296661 65.08093 
L 291.296661 60.838289 
z
" style="fill:#a7226e;stroke:#ffffff;stroke-width:0.48;"/>
    <path clip-path="url(#pbf2e010d86)" d="M 293.817657 17.17468 
L 293.817657 21.41732 
L 298.060298 21.41732 
L 298.060298 17.17468 
z
" style="fill:#a7226e;stroke:#ffffff;stroke-width:0.48;"/>
    <path clip-path="url(#pbf2e010d86)" d="M 300.581293 17.17468 
L 300.581293 21.41732 
L 304.823934 21.41732 
L 304.823934 17.17468 
z
" style="fill:#a7226e;stroke:#ffffff;stroke-width:0.48;"/>
    <path clip-path="url(#pbf2e010d86)" d="M 307.34493 17.17468 
L 307.34493 21.41732 
L 311.58757 21.41732 
L 311.58757 17.17468 
z
" style="fill:#a7226e;stroke:#ffffff;stroke-width:0.48;"/>
    <path clip-path="url(#pbf2e010d86)" d="M 314.108566 17.17468 
L 314.108566 21.41732 
L 318.351207 21.41732 
L 318.351207 17.17468 
z
" style="fill:#a7226e;stroke:#ffffff;stroke-width:0.48;"/>
    <path clip-path="url(#pbf2e010d86)" d="M 320.872202 17.17468 
L 320.872202 21.41732 
L 325.114843 21.41732 
L 325.114843 17.17468 
z
" style="fill:#a7226e;stroke:#ffffff;stroke-width:0.48;"/>
    <path clip-path="url(#pbf2e010d86)" d="M 327.635839 17.17468 
L 327.635839 21.41732 
L 331.878479 21.41732 
L 331.878479 17.17468 
z
" style="fill:#a7226e;stroke:#ffffff;stroke-width:0.48;"/>
    <path clip-path="url(#pbf2e010d86)" d="M 334.399475 17.17468 
L 334.399475 21.41732 
L 338.642116 21.41732 
L 338.642116 17.17468 
z
" style="fill:#a7226e;stroke:#ffffff;stroke-width:0.48;"/>
    <path clip-path="url(#pbf2e010d86)" d="M 341.163111 17.17468 
L 341.163111 21.41732 
L 345.405752 21.41732 
L 345.405752 17.17468 
z
" style="fill:#a7226e;stroke:#ffffff;stroke-width:0.48;"/>
    <path clip-path="url(#pbf2e010d86)" d="M 347.926748 17.17468 
L 347.926748 21.41732 
L 352.169389 21.41732 
L 352.169389 17.17468 
z
" style="fill:#a7226e;stroke:#ffffff;stroke-width:0.48;"/>
    <path clip-path="url(#pbf2e010d86)" d="M 354.690384 17.17468 
L 354.690384 21.41732 
L 358.933025 21.41732 
L 358.933025 17.17468 
z
" style="fill:#a7226e;stroke:#ffffff;stroke-width:0.48;"/>
    <path clip-path="url(#pbf2e010d86)" d="M 361.454021 17.17468 
L 361.454021 21.41732 
L 365.696661 21.41732 
L 365.696661 17.17468 
z
" style="fill:#a7226e;stroke:#ffffff;stroke-width:0.48;"/>
    <path clip-path="url(#pbf2e010d86)" d="M 368.217657 17.17468 
L 368.217657 21.41732 
L 372.460298 21.41732 
L 372.460298 17.17468 
z
" style="fill:#a7226e;stroke:#ffffff;stroke-width:0.48;"/>
    <path clip-path="url(#pbf2e010d86)" d="M 374.981293 17.17468 
L 374.981293 21.41732 
L 379.223934 21.41732 
L 379.223934 17.17468 
z
" style="fill:#a7226e;stroke:#ffffff;stroke-width:0.48;"/>
    <path clip-path="url(#pbf2e010d86)" d="M 381.74493 17.17468 
L 381.74493 21.41732 
L 385.98757 21.41732 
L 385.98757 17.17468 
z
" style="fill:#a7226e;stroke:#ffffff;stroke-width:0.48;"/>
    <path clip-path="url(#pbf2e010d86)" d="M 388.508566 17.17468 
L 388.508566 21.41732 
L 392.751207 21.41732 
L 392.751207 17.17468 
z
" style="fill:#a7226e;stroke:#ffffff;stroke-width:0.48;"/>
    <path clip-path="url(#pbf2e010d86)" d="M 395.272202 17.17468 
L 395.272202 21.41732 
L 399.514843 21.41732 
L 399.514843 17.17468 
z
" style="fill:#a7226e;stroke:#ffffff;stroke-width:0.48;"/>
   </g>
   <g id="PathCollection_2"/>
   <g id="PathCollection_3"/>
   <g id="PathCollection_4"/>
   <g id="matplotlib.axis_1">
    <g id="xtick_1">
     <g id="line2d_1">
      <defs>
       <path d="M 0 0 
L 0 3.5 
" id="md974651c32" style="stroke:#000000;stroke-width:0.8;"/>
      </defs>
      <g>
       <use style="stroke:#000000;stroke-width:0.8;" x="65.975341" xlink:href="#md974651c32" y="273.312"/>
      </g>
     </g>
     <g id="text_1">
      <!-- 0.0 -->
      <g transform="translate(58.023778 287.910437)scale(0.1 -0.1)">
       <defs>
        <path d="M 31.78125 66.40625 
Q 24.171875 66.40625 20.328125 58.90625 
Q 16.5 51.421875 16.5 36.375 
Q 16.5 21.390625 20.328125 13.890625 
Q 24.171875 6.390625 31.78125 6.390625 
Q 39.453125 6.390625 43.28125 13.890625 
Q 47.125 21.390625 47.125 36.375 
Q 47.125 51.421875 43.28125 58.90625 
Q 39.453125 66.40625 31.78125 66.40625 
z
M 31.78125 74.21875 
Q 44.046875 74.21875 50.515625 64.515625 
Q 56.984375 54.828125 56.984375 36.375 
Q 56.984375 17.96875 50.515625 8.265625 
Q 44.046875 -1.421875 31.78125 -1.421875 
Q 19.53125 -1.421875 13.0625 8.265625 
Q 6.59375 17.96875 6.59375 36.375 
Q 6.59375 54.828125 13.0625 64.515625 
Q 19.53125 74.21875 31.78125 74.21875 
z
" id="DejaVuSans-48"/>
        <path d="M 10.6875 12.40625 
L 21 12.40625 
L 21 0 
L 10.6875 0 
z
" id="DejaVuSans-46"/>
       </defs>
       <use xlink:href="#DejaVuSans-48"/>
       <use x="63.623047" xlink:href="#DejaVuSans-46"/>
       <use x="95.410156" xlink:href="#DejaVuSans-48"/>
      </g>
     </g>
    </g>
    <g id="xtick_2">
     <g id="line2d_2">
      <g>
       <use style="stroke:#000000;stroke-width:0.8;" x="133.611705" xlink:href="#md974651c32" y="273.312"/>
      </g>
     </g>
     <g id="text_2">
      <!-- 0.2 -->
      <g transform="translate(125.660142 287.910437)scale(0.1 -0.1)">
       <defs>
        <path d="M 19.1875 8.296875 
L 53.609375 8.296875 
L 53.609375 0 
L 7.328125 0 
L 7.328125 8.296875 
Q 12.9375 14.109375 22.625 23.890625 
Q 32.328125 33.6875 34.8125 36.53125 
Q 39.546875 41.84375 41.421875 45.53125 
Q 43.3125 49.21875 43.3125 52.78125 
Q 43.3125 58.59375 39.234375 62.25 
Q 35.15625 65.921875 28.609375 65.921875 
Q 23.96875 65.921875 18.8125 64.3125 
Q 13.671875 62.703125 7.8125 59.421875 
L 7.8125 69.390625 
Q 13.765625 71.78125 18.9375 73 
Q 24.125 74.21875 28.421875 74.21875 
Q 39.75 74.21875 46.484375 68.546875 
Q 53.21875 62.890625 53.21875 53.421875 
Q 53.21875 48.921875 51.53125 44.890625 
Q 49.859375 40.875 45.40625 35.40625 
Q 44.1875 33.984375 37.640625 27.21875 
Q 31.109375 20.453125 19.1875 8.296875 
z
" id="DejaVuSans-50"/>
       </defs>
       <use xlink:href="#DejaVuSans-48"/>
       <use x="63.623047" xlink:href="#DejaVuSans-46"/>
       <use x="95.410156" xlink:href="#DejaVuSans-50"/>
      </g>
     </g>
    </g>
    <g id="xtick_3">
     <g id="line2d_3">
      <g>
       <use style="stroke:#000000;stroke-width:0.8;" x="201.248068" xlink:href="#md974651c32" y="273.312"/>
      </g>
     </g>
     <g id="text_3">
      <!-- 0.4 -->
      <g transform="translate(193.296506 287.910437)scale(0.1 -0.1)">
       <defs>
        <path d="M 37.796875 64.3125 
L 12.890625 25.390625 
L 37.796875 25.390625 
z
M 35.203125 72.90625 
L 47.609375 72.90625 
L 47.609375 25.390625 
L 58.015625 25.390625 
L 58.015625 17.1875 
L 47.609375 17.1875 
L 47.609375 0 
L 37.796875 0 
L 37.796875 17.1875 
L 4.890625 17.1875 
L 4.890625 26.703125 
z
" id="DejaVuSans-52"/>
       </defs>
       <use xlink:href="#DejaVuSans-48"/>
       <use x="63.623047" xlink:href="#DejaVuSans-46"/>
       <use x="95.410156" xlink:href="#DejaVuSans-52"/>
      </g>
     </g>
    </g>
    <g id="xtick_4">
     <g id="line2d_4">
      <g>
       <use style="stroke:#000000;stroke-width:0.8;" x="268.884432" xlink:href="#md974651c32" y="273.312"/>
      </g>
     </g>
     <g id="text_4">
      <!-- 0.6 -->
      <g transform="translate(260.932869 287.910437)scale(0.1 -0.1)">
       <defs>
        <path d="M 33.015625 40.375 
Q 26.375 40.375 22.484375 35.828125 
Q 18.609375 31.296875 18.609375 23.390625 
Q 18.609375 15.53125 22.484375 10.953125 
Q 26.375 6.390625 33.015625 6.390625 
Q 39.65625 6.390625 43.53125 10.953125 
Q 47.40625 15.53125 47.40625 23.390625 
Q 47.40625 31.296875 43.53125 35.828125 
Q 39.65625 40.375 33.015625 40.375 
z
M 52.59375 71.296875 
L 52.59375 62.3125 
Q 48.875 64.0625 45.09375 64.984375 
Q 41.3125 65.921875 37.59375 65.921875 
Q 27.828125 65.921875 22.671875 59.328125 
Q 17.53125 52.734375 16.796875 39.40625 
Q 19.671875 43.65625 24.015625 45.921875 
Q 28.375 48.1875 33.59375 48.1875 
Q 44.578125 48.1875 50.953125 41.515625 
Q 57.328125 34.859375 57.328125 23.390625 
Q 57.328125 12.15625 50.6875 5.359375 
Q 44.046875 -1.421875 33.015625 -1.421875 
Q 20.359375 -1.421875 13.671875 8.265625 
Q 6.984375 17.96875 6.984375 36.375 
Q 6.984375 53.65625 15.1875 63.9375 
Q 23.390625 74.21875 37.203125 74.21875 
Q 40.921875 74.21875 44.703125 73.484375 
Q 48.484375 72.75 52.59375 71.296875 
z
" id="DejaVuSans-54"/>
       </defs>
       <use xlink:href="#DejaVuSans-48"/>
       <use x="63.623047" xlink:href="#DejaVuSans-46"/>
       <use x="95.410156" xlink:href="#DejaVuSans-54"/>
      </g>
     </g>
    </g>
    <g id="xtick_5">
     <g id="line2d_5">
      <g>
       <use style="stroke:#000000;stroke-width:0.8;" x="336.520795" xlink:href="#md974651c32" y="273.312"/>
      </g>
     </g>
     <g id="text_5">
      <!-- 0.8 -->
      <g transform="translate(328.569233 287.910437)scale(0.1 -0.1)">
       <defs>
        <path d="M 31.78125 34.625 
Q 24.75 34.625 20.71875 30.859375 
Q 16.703125 27.09375 16.703125 20.515625 
Q 16.703125 13.921875 20.71875 10.15625 
Q 24.75 6.390625 31.78125 6.390625 
Q 38.8125 6.390625 42.859375 10.171875 
Q 46.921875 13.96875 46.921875 20.515625 
Q 46.921875 27.09375 42.890625 30.859375 
Q 38.875 34.625 31.78125 34.625 
z
M 21.921875 38.8125 
Q 15.578125 40.375 12.03125 44.71875 
Q 8.5 49.078125 8.5 55.328125 
Q 8.5 64.0625 14.71875 69.140625 
Q 20.953125 74.21875 31.78125 74.21875 
Q 42.671875 74.21875 48.875 69.140625 
Q 55.078125 64.0625 55.078125 55.328125 
Q 55.078125 49.078125 51.53125 44.71875 
Q 48 40.375 41.703125 38.8125 
Q 48.828125 37.15625 52.796875 32.3125 
Q 56.78125 27.484375 56.78125 20.515625 
Q 56.78125 9.90625 50.3125 4.234375 
Q 43.84375 -1.421875 31.78125 -1.421875 
Q 19.734375 -1.421875 13.25 4.234375 
Q 6.78125 9.90625 6.78125 20.515625 
Q 6.78125 27.484375 10.78125 32.3125 
Q 14.796875 37.15625 21.921875 38.8125 
z
M 18.3125 54.390625 
Q 18.3125 48.734375 21.84375 45.5625 
Q 25.390625 42.390625 31.78125 42.390625 
Q 38.140625 42.390625 41.71875 45.5625 
Q 45.3125 48.734375 45.3125 54.390625 
Q 45.3125 60.0625 41.71875 63.234375 
Q 38.140625 66.40625 31.78125 66.40625 
Q 25.390625 66.40625 21.84375 63.234375 
Q 18.3125 60.0625 18.3125 54.390625 
z
" id="DejaVuSans-56"/>
       </defs>
       <use xlink:href="#DejaVuSans-48"/>
       <use x="63.623047" xlink:href="#DejaVuSans-46"/>
       <use x="95.410156" xlink:href="#DejaVuSans-56"/>
      </g>
     </g>
    </g>
    <g id="xtick_6">
     <g id="line2d_6">
      <g>
       <use style="stroke:#000000;stroke-width:0.8;" x="404.157159" xlink:href="#md974651c32" y="273.312"/>
      </g>
     </g>
     <g id="text_6">
      <!-- 1.0 -->
      <g transform="translate(396.205597 287.910437)scale(0.1 -0.1)">
       <defs>
        <path d="M 12.40625 8.296875 
L 28.515625 8.296875 
L 28.515625 63.921875 
L 10.984375 60.40625 
L 10.984375 69.390625 
L 28.421875 72.90625 
L 38.28125 72.90625 
L 38.28125 8.296875 
L 54.390625 8.296875 
L 54.390625 0 
L 12.40625 0 
z
" id="DejaVuSans-49"/>
       </defs>
       <use xlink:href="#DejaVuSans-49"/>
       <use x="63.623047" xlink:href="#DejaVuSans-46"/>
       <use x="95.410156" xlink:href="#DejaVuSans-48"/>
      </g>
     </g>
    </g>
    <g id="text_7">
     <!-- cutoff -->
     <g transform="translate(220.608438 301.588562)scale(0.1 -0.1)">
      <defs>
       <path d="M 48.78125 52.59375 
L 48.78125 44.1875 
Q 44.96875 46.296875 41.140625 47.34375 
Q 37.3125 48.390625 33.40625 48.390625 
Q 24.65625 48.390625 19.8125 42.84375 
Q 14.984375 37.3125 14.984375 27.296875 
Q 14.984375 17.28125 19.8125 11.734375 
Q 24.65625 6.203125 33.40625 6.203125 
Q 37.3125 6.203125 41.140625 7.25 
Q 44.96875 8.296875 48.78125 10.40625 
L 48.78125 2.09375 
Q 45.015625 0.34375 40.984375 -0.53125 
Q 36.96875 -1.421875 32.421875 -1.421875 
Q 20.0625 -1.421875 12.78125 6.34375 
Q 5.515625 14.109375 5.515625 27.296875 
Q 5.515625 40.671875 12.859375 48.328125 
Q 20.21875 56 33.015625 56 
Q 37.15625 56 41.109375 55.140625 
Q 45.0625 54.296875 48.78125 52.59375 
z
" id="DejaVuSans-99"/>
       <path d="M 8.5 21.578125 
L 8.5 54.6875 
L 17.484375 54.6875 
L 17.484375 21.921875 
Q 17.484375 14.15625 20.5 10.265625 
Q 23.53125 6.390625 29.59375 6.390625 
Q 36.859375 6.390625 41.078125 11.03125 
Q 45.3125 15.671875 45.3125 23.6875 
L 45.3125 54.6875 
L 54.296875 54.6875 
L 54.296875 0 
L 45.3125 0 
L 45.3125 8.40625 
Q 42.046875 3.421875 37.71875 1 
Q 33.40625 -1.421875 27.6875 -1.421875 
Q 18.265625 -1.421875 13.375 4.4375 
Q 8.5 10.296875 8.5 21.578125 
z
M 31.109375 56 
z
" id="DejaVuSans-117"/>
       <path d="M 18.3125 70.21875 
L 18.3125 54.6875 
L 36.8125 54.6875 
L 36.8125 47.703125 
L 18.3125 47.703125 
L 18.3125 18.015625 
Q 18.3125 11.328125 20.140625 9.421875 
Q 21.96875 7.515625 27.59375 7.515625 
L 36.8125 7.515625 
L 36.8125 0 
L 27.59375 0 
Q 17.1875 0 13.234375 3.875 
Q 9.28125 7.765625 9.28125 18.015625 
L 9.28125 47.703125 
L 2.6875 47.703125 
L 2.6875 54.6875 
L 9.28125 54.6875 
L 9.28125 70.21875 
z
" id="DejaVuSans-116"/>
       <path d="M 30.609375 48.390625 
Q 23.390625 48.390625 19.1875 42.75 
Q 14.984375 37.109375 14.984375 27.296875 
Q 14.984375 17.484375 19.15625 11.84375 
Q 23.34375 6.203125 30.609375 6.203125 
Q 37.796875 6.203125 41.984375 11.859375 
Q 46.1875 17.53125 46.1875 27.296875 
Q 46.1875 37.015625 41.984375 42.703125 
Q 37.796875 48.390625 30.609375 48.390625 
z
M 30.609375 56 
Q 42.328125 56 49.015625 48.375 
Q 55.71875 40.765625 55.71875 27.296875 
Q 55.71875 13.875 49.015625 6.21875 
Q 42.328125 -1.421875 30.609375 -1.421875 
Q 18.84375 -1.421875 12.171875 6.21875 
Q 5.515625 13.875 5.515625 27.296875 
Q 5.515625 40.765625 12.171875 48.375 
Q 18.84375 56 30.609375 56 
z
" id="DejaVuSans-111"/>
       <path d="M 37.109375 75.984375 
L 37.109375 68.5 
L 28.515625 68.5 
Q 23.6875 68.5 21.796875 66.546875 
Q 19.921875 64.59375 19.921875 59.515625 
L 19.921875 54.6875 
L 34.71875 54.6875 
L 34.71875 47.703125 
L 19.921875 47.703125 
L 19.921875 0 
L 10.890625 0 
L 10.890625 47.703125 
L 2.296875 47.703125 
L 2.296875 54.6875 
L 10.890625 54.6875 
L 10.890625 58.5 
Q 10.890625 67.625 15.140625 71.796875 
Q 19.390625 75.984375 28.609375 75.984375 
z
" id="DejaVuSans-102"/>
      </defs>
      <use xlink:href="#DejaVuSans-99"/>
      <use x="54.980469" xlink:href="#DejaVuSans-117"/>
      <use x="118.359375" xlink:href="#DejaVuSans-116"/>
      <use x="157.568359" xlink:href="#DejaVuSans-111"/>
      <use x="218.75" xlink:href="#DejaVuSans-102"/>
      <use x="253.955078" xlink:href="#DejaVuSans-102"/>
     </g>
    </g>
   </g>
   <g id="matplotlib.axis_2">
    <g id="ytick_1">
     <g id="line2d_7">
      <defs>
       <path d="M 0 0 
L -3.5 0 
" id="md466d12915" style="stroke:#000000;stroke-width:0.8;"/>
      </defs>
      <g>
       <use style="stroke:#000000;stroke-width:0.8;" x="56.50625" xlink:href="#md466d12915" y="267.336867"/>
      </g>
     </g>
     <g id="text_8">
      <!-- 0.500 -->
      <g transform="translate(20.878125 271.136086)scale(0.1 -0.1)">
       <defs>
        <path d="M 10.796875 72.90625 
L 49.515625 72.90625 
L 49.515625 64.59375 
L 19.828125 64.59375 
L 19.828125 46.734375 
Q 21.96875 47.46875 24.109375 47.828125 
Q 26.265625 48.1875 28.421875 48.1875 
Q 40.625 48.1875 47.75 41.5 
Q 54.890625 34.8125 54.890625 23.390625 
Q 54.890625 11.625 47.5625 5.09375 
Q 40.234375 -1.421875 26.90625 -1.421875 
Q 22.3125 -1.421875 17.546875 -0.640625 
Q 12.796875 0.140625 7.71875 1.703125 
L 7.71875 11.625 
Q 12.109375 9.234375 16.796875 8.0625 
Q 21.484375 6.890625 26.703125 6.890625 
Q 35.15625 6.890625 40.078125 11.328125 
Q 45.015625 15.765625 45.015625 23.390625 
Q 45.015625 31 40.078125 35.4375 
Q 35.15625 39.890625 26.703125 39.890625 
Q 22.75 39.890625 18.8125 39.015625 
Q 14.890625 38.140625 10.796875 36.28125 
z
" id="DejaVuSans-53"/>
       </defs>
       <use xlink:href="#DejaVuSans-48"/>
       <use x="63.623047" xlink:href="#DejaVuSans-46"/>
       <use x="95.410156" xlink:href="#DejaVuSans-53"/>
       <use x="159.033203" xlink:href="#DejaVuSans-48"/>
       <use x="222.65625" xlink:href="#DejaVuSans-48"/>
      </g>
     </g>
    </g>
    <g id="ytick_2">
     <g id="line2d_8">
      <g>
       <use style="stroke:#000000;stroke-width:0.8;" x="56.50625" xlink:href="#md466d12915" y="233.366053"/>
      </g>
     </g>
     <g id="text_9">
      <!-- 0.525 -->
      <g transform="translate(20.878125 237.165272)scale(0.1 -0.1)">
       <use xlink:href="#DejaVuSans-48"/>
       <use x="63.623047" xlink:href="#DejaVuSans-46"/>
       <use x="95.410156" xlink:href="#DejaVuSans-53"/>
       <use x="159.033203" xlink:href="#DejaVuSans-50"/>
       <use x="222.65625" xlink:href="#DejaVuSans-53"/>
      </g>
     </g>
    </g>
    <g id="ytick_3">
     <g id="line2d_9">
      <g>
       <use style="stroke:#000000;stroke-width:0.8;" x="56.50625" xlink:href="#md466d12915" y="199.395239"/>
      </g>
     </g>
     <g id="text_10">
      <!-- 0.550 -->
      <g transform="translate(20.878125 203.194457)scale(0.1 -0.1)">
       <use xlink:href="#DejaVuSans-48"/>
       <use x="63.623047" xlink:href="#DejaVuSans-46"/>
       <use x="95.410156" xlink:href="#DejaVuSans-53"/>
       <use x="159.033203" xlink:href="#DejaVuSans-53"/>
       <use x="222.65625" xlink:href="#DejaVuSans-48"/>
      </g>
     </g>
    </g>
    <g id="ytick_4">
     <g id="line2d_10">
      <g>
       <use style="stroke:#000000;stroke-width:0.8;" x="56.50625" xlink:href="#md466d12915" y="165.424424"/>
      </g>
     </g>
     <g id="text_11">
      <!-- 0.575 -->
      <g transform="translate(20.878125 169.223643)scale(0.1 -0.1)">
       <defs>
        <path d="M 8.203125 72.90625 
L 55.078125 72.90625 
L 55.078125 68.703125 
L 28.609375 0 
L 18.3125 0 
L 43.21875 64.59375 
L 8.203125 64.59375 
z
" id="DejaVuSans-55"/>
       </defs>
       <use xlink:href="#DejaVuSans-48"/>
       <use x="63.623047" xlink:href="#DejaVuSans-46"/>
       <use x="95.410156" xlink:href="#DejaVuSans-53"/>
       <use x="159.033203" xlink:href="#DejaVuSans-55"/>
       <use x="222.65625" xlink:href="#DejaVuSans-53"/>
      </g>
     </g>
    </g>
    <g id="ytick_5">
     <g id="line2d_11">
      <g>
       <use style="stroke:#000000;stroke-width:0.8;" x="56.50625" xlink:href="#md466d12915" y="131.45361"/>
      </g>
     </g>
     <g id="text_12">
      <!-- 0.600 -->
      <g transform="translate(20.878125 135.252828)scale(0.1 -0.1)">
       <use xlink:href="#DejaVuSans-48"/>
       <use x="63.623047" xlink:href="#DejaVuSans-46"/>
       <use x="95.410156" xlink:href="#DejaVuSans-54"/>
       <use x="159.033203" xlink:href="#DejaVuSans-48"/>
       <use x="222.65625" xlink:href="#DejaVuSans-48"/>
      </g>
     </g>
    </g>
    <g id="ytick_6">
     <g id="line2d_12">
      <g>
       <use style="stroke:#000000;stroke-width:0.8;" x="56.50625" xlink:href="#md466d12915" y="97.482795"/>
      </g>
     </g>
     <g id="text_13">
      <!-- 0.625 -->
      <g transform="translate(20.878125 101.282014)scale(0.1 -0.1)">
       <use xlink:href="#DejaVuSans-48"/>
       <use x="63.623047" xlink:href="#DejaVuSans-46"/>
       <use x="95.410156" xlink:href="#DejaVuSans-54"/>
       <use x="159.033203" xlink:href="#DejaVuSans-50"/>
       <use x="222.65625" xlink:href="#DejaVuSans-53"/>
      </g>
     </g>
    </g>
    <g id="ytick_7">
     <g id="line2d_13">
      <g>
       <use style="stroke:#000000;stroke-width:0.8;" x="56.50625" xlink:href="#md466d12915" y="63.511981"/>
      </g>
     </g>
     <g id="text_14">
      <!-- 0.650 -->
      <g transform="translate(20.878125 67.311199)scale(0.1 -0.1)">
       <use xlink:href="#DejaVuSans-48"/>
       <use x="63.623047" xlink:href="#DejaVuSans-46"/>
       <use x="95.410156" xlink:href="#DejaVuSans-54"/>
       <use x="159.033203" xlink:href="#DejaVuSans-53"/>
       <use x="222.65625" xlink:href="#DejaVuSans-48"/>
      </g>
     </g>
    </g>
    <g id="ytick_8">
     <g id="line2d_14">
      <g>
       <use style="stroke:#000000;stroke-width:0.8;" x="56.50625" xlink:href="#md466d12915" y="29.541166"/>
      </g>
     </g>
     <g id="text_15">
      <!-- 0.675 -->
      <g transform="translate(20.878125 33.340385)scale(0.1 -0.1)">
       <use xlink:href="#DejaVuSans-48"/>
       <use x="63.623047" xlink:href="#DejaVuSans-46"/>
       <use x="95.410156" xlink:href="#DejaVuSans-54"/>
       <use x="159.033203" xlink:href="#DejaVuSans-55"/>
       <use x="222.65625" xlink:href="#DejaVuSans-53"/>
      </g>
     </g>
    </g>
    <g id="text_16">
     <!-- performance -->
     <g transform="translate(14.798437 172.278656)rotate(-90)scale(0.1 -0.1)">
      <defs>
       <path d="M 18.109375 8.203125 
L 18.109375 -20.796875 
L 9.078125 -20.796875 
L 9.078125 54.6875 
L 18.109375 54.6875 
L 18.109375 46.390625 
Q 20.953125 51.265625 25.265625 53.625 
Q 29.59375 56 35.59375 56 
Q 45.5625 56 51.78125 48.09375 
Q 58.015625 40.1875 58.015625 27.296875 
Q 58.015625 14.40625 51.78125 6.484375 
Q 45.5625 -1.421875 35.59375 -1.421875 
Q 29.59375 -1.421875 25.265625 0.953125 
Q 20.953125 3.328125 18.109375 8.203125 
z
M 48.6875 27.296875 
Q 48.6875 37.203125 44.609375 42.84375 
Q 40.53125 48.484375 33.40625 48.484375 
Q 26.265625 48.484375 22.1875 42.84375 
Q 18.109375 37.203125 18.109375 27.296875 
Q 18.109375 17.390625 22.1875 11.75 
Q 26.265625 6.109375 33.40625 6.109375 
Q 40.53125 6.109375 44.609375 11.75 
Q 48.6875 17.390625 48.6875 27.296875 
z
" id="DejaVuSans-112"/>
       <path d="M 56.203125 29.59375 
L 56.203125 25.203125 
L 14.890625 25.203125 
Q 15.484375 15.921875 20.484375 11.0625 
Q 25.484375 6.203125 34.421875 6.203125 
Q 39.59375 6.203125 44.453125 7.46875 
Q 49.3125 8.734375 54.109375 11.28125 
L 54.109375 2.78125 
Q 49.265625 0.734375 44.1875 -0.34375 
Q 39.109375 -1.421875 33.890625 -1.421875 
Q 20.796875 -1.421875 13.15625 6.1875 
Q 5.515625 13.8125 5.515625 26.8125 
Q 5.515625 40.234375 12.765625 48.109375 
Q 20.015625 56 32.328125 56 
Q 43.359375 56 49.78125 48.890625 
Q 56.203125 41.796875 56.203125 29.59375 
z
M 47.21875 32.234375 
Q 47.125 39.59375 43.09375 43.984375 
Q 39.0625 48.390625 32.421875 48.390625 
Q 24.90625 48.390625 20.390625 44.140625 
Q 15.875 39.890625 15.1875 32.171875 
z
" id="DejaVuSans-101"/>
       <path d="M 41.109375 46.296875 
Q 39.59375 47.171875 37.8125 47.578125 
Q 36.03125 48 33.890625 48 
Q 26.265625 48 22.1875 43.046875 
Q 18.109375 38.09375 18.109375 28.8125 
L 18.109375 0 
L 9.078125 0 
L 9.078125 54.6875 
L 18.109375 54.6875 
L 18.109375 46.1875 
Q 20.953125 51.171875 25.484375 53.578125 
Q 30.03125 56 36.53125 56 
Q 37.453125 56 38.578125 55.875 
Q 39.703125 55.765625 41.0625 55.515625 
z
" id="DejaVuSans-114"/>
       <path d="M 52 44.1875 
Q 55.375 50.25 60.0625 53.125 
Q 64.75 56 71.09375 56 
Q 79.640625 56 84.28125 50.015625 
Q 88.921875 44.046875 88.921875 33.015625 
L 88.921875 0 
L 79.890625 0 
L 79.890625 32.71875 
Q 79.890625 40.578125 77.09375 44.375 
Q 74.3125 48.1875 68.609375 48.1875 
Q 61.625 48.1875 57.5625 43.546875 
Q 53.515625 38.921875 53.515625 30.90625 
L 53.515625 0 
L 44.484375 0 
L 44.484375 32.71875 
Q 44.484375 40.625 41.703125 44.40625 
Q 38.921875 48.1875 33.109375 48.1875 
Q 26.21875 48.1875 22.15625 43.53125 
Q 18.109375 38.875 18.109375 30.90625 
L 18.109375 0 
L 9.078125 0 
L 9.078125 54.6875 
L 18.109375 54.6875 
L 18.109375 46.1875 
Q 21.1875 51.21875 25.484375 53.609375 
Q 29.78125 56 35.6875 56 
Q 41.65625 56 45.828125 52.96875 
Q 50 49.953125 52 44.1875 
z
" id="DejaVuSans-109"/>
       <path d="M 34.28125 27.484375 
Q 23.390625 27.484375 19.1875 25 
Q 14.984375 22.515625 14.984375 16.5 
Q 14.984375 11.71875 18.140625 8.90625 
Q 21.296875 6.109375 26.703125 6.109375 
Q 34.1875 6.109375 38.703125 11.40625 
Q 43.21875 16.703125 43.21875 25.484375 
L 43.21875 27.484375 
z
M 52.203125 31.203125 
L 52.203125 0 
L 43.21875 0 
L 43.21875 8.296875 
Q 40.140625 3.328125 35.546875 0.953125 
Q 30.953125 -1.421875 24.3125 -1.421875 
Q 15.921875 -1.421875 10.953125 3.296875 
Q 6 8.015625 6 15.921875 
Q 6 25.140625 12.171875 29.828125 
Q 18.359375 34.515625 30.609375 34.515625 
L 43.21875 34.515625 
L 43.21875 35.40625 
Q 43.21875 41.609375 39.140625 45 
Q 35.0625 48.390625 27.6875 48.390625 
Q 23 48.390625 18.546875 47.265625 
Q 14.109375 46.140625 10.015625 43.890625 
L 10.015625 52.203125 
Q 14.9375 54.109375 19.578125 55.046875 
Q 24.21875 56 28.609375 56 
Q 40.484375 56 46.34375 49.84375 
Q 52.203125 43.703125 52.203125 31.203125 
z
" id="DejaVuSans-97"/>
       <path d="M 54.890625 33.015625 
L 54.890625 0 
L 45.90625 0 
L 45.90625 32.71875 
Q 45.90625 40.484375 42.875 44.328125 
Q 39.84375 48.1875 33.796875 48.1875 
Q 26.515625 48.1875 22.3125 43.546875 
Q 18.109375 38.921875 18.109375 30.90625 
L 18.109375 0 
L 9.078125 0 
L 9.078125 54.6875 
L 18.109375 54.6875 
L 18.109375 46.1875 
Q 21.34375 51.125 25.703125 53.5625 
Q 30.078125 56 35.796875 56 
Q 45.21875 56 50.046875 50.171875 
Q 54.890625 44.34375 54.890625 33.015625 
z
" id="DejaVuSans-110"/>
      </defs>
      <use xlink:href="#DejaVuSans-112"/>
      <use x="63.476562" xlink:href="#DejaVuSans-101"/>
      <use x="125" xlink:href="#DejaVuSans-114"/>
      <use x="166.113281" xlink:href="#DejaVuSans-102"/>
      <use x="201.318359" xlink:href="#DejaVuSans-111"/>
      <use x="262.5" xlink:href="#DejaVuSans-114"/>
      <use x="301.863281" xlink:href="#DejaVuSans-109"/>
      <use x="399.275391" xlink:href="#DejaVuSans-97"/>
      <use x="460.554688" xlink:href="#DejaVuSans-110"/>
      <use x="523.933594" xlink:href="#DejaVuSans-99"/>
      <use x="578.914062" xlink:href="#DejaVuSans-101"/>
     </g>
    </g>
   </g>
   <g id="line2d_15">
    <path clip-path="url(#pbf2e010d86)" d="M 72.738977 108.8064 
L 79.502614 93.271537 
L 86.26625 62.95961 
L 93.029886 62.95961 
L 99.793523 62.95961 
L 106.557159 93.271537 
L 113.320795 93.271537 
L 120.084432 77.991344 
L 126.848068 77.991344 
L 133.611705 124.602353 
L 140.375341 140.666034 
L 147.138977 190.533287 
L 153.902614 261.216 
L 160.66625 261.216 
L 167.429886 157.004308 
L 174.193523 157.004308 
L 180.957159 157.004308 
L 187.720795 157.004308 
L 194.484432 157.004308 
L 201.248068 157.004308 
L 208.011705 157.004308 
L 214.775341 157.004308 
L 221.538977 157.004308 
L 228.302614 157.004308 
L 235.06625 173.624276 
L 241.829886 108.8064 
L 248.593523 108.8064 
L 255.357159 108.8064 
L 262.120795 108.8064 
L 268.884432 108.8064 
L 275.648068 108.8064 
L 282.411705 108.8064 
L 289.175341 108.8064 
L 295.938977 108.8064 
L 302.702614 108.8064 
L 309.46625 108.8064 
L 316.229886 108.8064 
L 322.993523 108.8064 
L 329.757159 108.8064 
L 336.520795 108.8064 
L 343.284432 108.8064 
L 350.048068 108.8064 
L 356.811705 108.8064 
L 363.575341 108.8064 
L 370.338977 108.8064 
L 377.102614 108.8064 
L 383.86625 108.8064 
L 390.629886 108.8064 
L 397.393523 108.8064 
" style="fill:none;stroke:#f26b38;stroke-dasharray:7.4,3.2;stroke-dashoffset:0;stroke-width:2;"/>
   </g>
   <g id="line2d_16">
    <path clip-path="url(#pbf2e010d86)" d="M 72.738977 243.072 
L 79.502614 190.533287 
L 86.26625 190.533287 
L 93.029886 190.533287 
L 99.793523 261.216 
L 106.557159 261.216 
L 113.320795 261.216 
L 120.084432 261.216 
L 126.848068 261.216 
L 133.611705 261.216 
L 140.375341 261.216 
L 147.138977 261.216 
L 153.902614 261.216 
L 160.66625 261.216 
L 167.429886 261.216 
L 174.193523 261.216 
L 180.957159 207.738947 
L 187.720795 207.738947 
L 194.484432 207.738947 
L 201.248068 207.738947 
L 208.011705 207.738947 
L 214.775341 207.738947 
L 221.538977 207.738947 
L 228.302614 207.738947 
L 235.06625 207.738947 
L 241.829886 207.738947 
L 248.593523 207.738947 
L 255.357159 207.738947 
L 262.120795 207.738947 
L 268.884432 207.738947 
L 275.648068 207.738947 
L 282.411705 207.738947 
L 289.175341 207.738947 
L 295.938977 207.738947 
L 302.702614 207.738947 
L 309.46625 207.738947 
L 316.229886 207.738947 
L 322.993523 207.738947 
L 329.757159 207.738947 
L 336.520795 207.738947 
L 343.284432 207.738947 
L 350.048068 207.738947 
L 356.811705 207.738947 
L 363.575341 207.738947 
L 370.338977 207.738947 
L 377.102614 207.738947 
L 383.86625 207.738947 
L 390.629886 207.738947 
L 397.393523 207.738947 
" style="fill:none;stroke:#2f9599;stroke-dasharray:2,3.3;stroke-dashoffset:0;stroke-width:2;"/>
   </g>
   <g id="line2d_17">
    <path clip-path="url(#pbf2e010d86)" d="M 72.738977 77.991344 
L 79.502614 77.991344 
L 86.26625 77.991344 
L 93.029886 77.991344 
L 99.793523 77.991344 
L 106.557159 93.271537 
L 113.320795 77.991344 
L 120.084432 77.991344 
L 126.848068 77.991344 
L 133.611705 62.95961 
L 140.375341 77.991344 
L 147.138977 48.170323 
L 153.902614 48.170323 
L 160.66625 48.170323 
L 167.429886 48.170323 
L 174.193523 77.991344 
L 180.957159 62.95961 
L 187.720795 62.95961 
L 194.484432 62.95961 
L 201.248068 62.95961 
L 208.011705 62.95961 
L 214.775341 77.991344 
L 221.538977 62.95961 
L 228.302614 108.8064 
L 235.06625 108.8064 
L 241.829886 108.8064 
L 248.593523 62.95961 
L 255.357159 62.95961 
L 262.120795 62.95961 
L 268.884432 62.95961 
L 275.648068 62.95961 
L 282.411705 62.95961 
L 289.175341 62.95961 
L 295.938977 19.296 
L 302.702614 19.296 
L 309.46625 19.296 
L 316.229886 19.296 
L 322.993523 19.296 
L 329.757159 19.296 
L 336.520795 19.296 
L 343.284432 19.296 
L 350.048068 19.296 
L 356.811705 19.296 
L 363.575341 19.296 
L 370.338977 19.296 
L 377.102614 19.296 
L 383.86625 19.296 
L 390.629886 19.296 
L 397.393523 19.296 
" style="fill:none;stroke:#a7226e;stroke-dasharray:12.8,3.2,2,3.2;stroke-dashoffset:0;stroke-width:2;"/>
   </g>
   <g id="patch_3">
    <path d="M 56.50625 273.312 
L 56.50625 7.2 
" style="fill:none;stroke:#000000;stroke-linecap:square;stroke-linejoin:miter;stroke-width:0.8;"/>
   </g>
   <g id="patch_4">
    <path d="M 413.62625 273.312 
L 413.62625 7.2 
" style="fill:none;stroke:#000000;stroke-linecap:square;stroke-linejoin:miter;stroke-width:0.8;"/>
   </g>
   <g id="patch_5">
    <path d="M 56.50625 273.312 
L 413.62625 273.312 
" style="fill:none;stroke:#000000;stroke-linecap:square;stroke-linejoin:miter;stroke-width:0.8;"/>
   </g>
   <g id="patch_6">
    <path d="M 56.50625 7.2 
L 413.62625 7.2 
" style="fill:none;stroke:#000000;stroke-linecap:square;stroke-linejoin:miter;stroke-width:0.8;"/>
   </g>
   <g id="legend_1">
    <g id="patch_7">
     <path d="M 61.36425 43.890912 
L 141.979941 43.890912 
Q 143.367941 43.890912 143.367941 42.502912 
L 143.367941 12.058 
Q 143.367941 10.67 141.979941 10.67 
L 61.36425 10.67 
Q 59.97625 10.67 59.97625 12.058 
L 59.97625 42.502912 
Q 59.97625 43.890912 61.36425 43.890912 
z
" style="fill:#ffffff;opacity:0.8;stroke:#cccccc;stroke-linejoin:miter;"/>
    </g>
    <g id="PathCollection_5">
     <defs>
      <path d="M 0 3 
C 0.795609 3 1.55874 2.683901 2.12132 2.12132 
C 2.683901 1.55874 3 0.795609 3 0 
C 3 -0.795609 2.683901 -1.55874 2.12132 -2.12132 
C 1.55874 -2.683901 0.795609 -3 0 -3 
C -0.795609 -3 -1.55874 -2.683901 -2.12132 -2.12132 
C -2.683901 -1.55874 -3 -0.795609 -3 0 
C -3 0.795609 -2.683901 1.55874 -2.12132 2.12132 
C -1.55874 2.683901 -0.795609 3 0 3 
z
" id="m8f4065fad8" style="stroke:#f26b38;"/>
     </defs>
     <g>
      <use style="fill:#f26b38;stroke:#f26b38;" x="69.69225" xlink:href="#m8f4065fad8" y="16.897566"/>
     </g>
    </g>
    <g id="text_17">
     <!-- mean_err -->
     <g transform="translate(82.18425 18.719316)scale(0.0694 -0.0694)">
      <defs>
       <path d="M 50.984375 -16.609375 
L 50.984375 -23.578125 
L -0.984375 -23.578125 
L -0.984375 -16.609375 
z
" id="DejaVuSans-95"/>
      </defs>
      <use xlink:href="#DejaVuSans-109"/>
      <use x="97.412109" xlink:href="#DejaVuSans-101"/>
      <use x="158.935547" xlink:href="#DejaVuSans-97"/>
      <use x="220.214844" xlink:href="#DejaVuSans-110"/>
      <use x="283.59375" xlink:href="#DejaVuSans-95"/>
      <use x="333.59375" xlink:href="#DejaVuSans-101"/>
      <use x="395.117188" xlink:href="#DejaVuSans-114"/>
      <use x="434.480469" xlink:href="#DejaVuSans-114"/>
     </g>
    </g>
    <g id="PathCollection_6">
     <defs>
      <path d="M -1.5 3 
L 0 1.5 
L 1.5 3 
L 3 1.5 
L 1.5 0 
L 3 -1.5 
L 1.5 -3 
L 0 -1.5 
L -1.5 -3 
L -3 -1.5 
L -1.5 0 
L -3 1.5 
z
" id="m7a408ef0b4" style="stroke:#2f9599;"/>
     </defs>
     <g>
      <use style="fill:#2f9599;stroke:#2f9599;" x="69.69225" xlink:href="#m7a408ef0b4" y="27.277203"/>
     </g>
    </g>
    <g id="text_18">
     <!-- mean_sq_err -->
     <g transform="translate(82.18425 29.098953)scale(0.0694 -0.0694)">
      <defs>
       <path d="M 44.28125 53.078125 
L 44.28125 44.578125 
Q 40.484375 46.53125 36.375 47.5 
Q 32.28125 48.484375 27.875 48.484375 
Q 21.1875 48.484375 17.84375 46.4375 
Q 14.5 44.390625 14.5 40.28125 
Q 14.5 37.15625 16.890625 35.375 
Q 19.28125 33.59375 26.515625 31.984375 
L 29.59375 31.296875 
Q 39.15625 29.25 43.1875 25.515625 
Q 47.21875 21.78125 47.21875 15.09375 
Q 47.21875 7.46875 41.1875 3.015625 
Q 35.15625 -1.421875 24.609375 -1.421875 
Q 20.21875 -1.421875 15.453125 -0.5625 
Q 10.6875 0.296875 5.421875 2 
L 5.421875 11.28125 
Q 10.40625 8.6875 15.234375 7.390625 
Q 20.0625 6.109375 24.8125 6.109375 
Q 31.15625 6.109375 34.5625 8.28125 
Q 37.984375 10.453125 37.984375 14.40625 
Q 37.984375 18.0625 35.515625 20.015625 
Q 33.0625 21.96875 24.703125 23.78125 
L 21.578125 24.515625 
Q 13.234375 26.265625 9.515625 29.90625 
Q 5.8125 33.546875 5.8125 39.890625 
Q 5.8125 47.609375 11.28125 51.796875 
Q 16.75 56 26.8125 56 
Q 31.78125 56 36.171875 55.265625 
Q 40.578125 54.546875 44.28125 53.078125 
z
" id="DejaVuSans-115"/>
       <path d="M 14.796875 27.296875 
Q 14.796875 17.390625 18.875 11.75 
Q 22.953125 6.109375 30.078125 6.109375 
Q 37.203125 6.109375 41.296875 11.75 
Q 45.40625 17.390625 45.40625 27.296875 
Q 45.40625 37.203125 41.296875 42.84375 
Q 37.203125 48.484375 30.078125 48.484375 
Q 22.953125 48.484375 18.875 42.84375 
Q 14.796875 37.203125 14.796875 27.296875 
z
M 45.40625 8.203125 
Q 42.578125 3.328125 38.25 0.953125 
Q 33.9375 -1.421875 27.875 -1.421875 
Q 17.96875 -1.421875 11.734375 6.484375 
Q 5.515625 14.40625 5.515625 27.296875 
Q 5.515625 40.1875 11.734375 48.09375 
Q 17.96875 56 27.875 56 
Q 33.9375 56 38.25 53.625 
Q 42.578125 51.265625 45.40625 46.390625 
L 45.40625 54.6875 
L 54.390625 54.6875 
L 54.390625 -20.796875 
L 45.40625 -20.796875 
z
" id="DejaVuSans-113"/>
      </defs>
      <use xlink:href="#DejaVuSans-109"/>
      <use x="97.412109" xlink:href="#DejaVuSans-101"/>
      <use x="158.935547" xlink:href="#DejaVuSans-97"/>
      <use x="220.214844" xlink:href="#DejaVuSans-110"/>
      <use x="283.59375" xlink:href="#DejaVuSans-95"/>
      <use x="333.59375" xlink:href="#DejaVuSans-115"/>
      <use x="385.693359" xlink:href="#DejaVuSans-113"/>
      <use x="449.169922" xlink:href="#DejaVuSans-95"/>
      <use x="499.169922" xlink:href="#DejaVuSans-101"/>
      <use x="560.693359" xlink:href="#DejaVuSans-114"/>
      <use x="600.056641" xlink:href="#DejaVuSans-114"/>
     </g>
    </g>
    <g id="PathCollection_7">
     <defs>
      <path d="M -2.12132 -2.12132 
L -2.12132 2.12132 
L 2.12132 2.12132 
L 2.12132 -2.12132 
z
" id="m304d8f3eac" style="stroke:#a7226e;"/>
     </defs>
     <g>
      <use style="fill:#a7226e;stroke:#a7226e;" x="69.69225" xlink:href="#m304d8f3eac" y="37.656841"/>
     </g>
    </g>
    <g id="text_19">
     <!-- mean_sqroot_err -->
     <g transform="translate(82.18425 39.478591)scale(0.0694 -0.0694)">
      <use xlink:href="#DejaVuSans-109"/>
      <use x="97.412109" xlink:href="#DejaVuSans-101"/>
      <use x="158.935547" xlink:href="#DejaVuSans-97"/>
      <use x="220.214844" xlink:href="#DejaVuSans-110"/>
      <use x="283.59375" xlink:href="#DejaVuSans-95"/>
      <use x="333.59375" xlink:href="#DejaVuSans-115"/>
      <use x="385.693359" xlink:href="#DejaVuSans-113"/>
      <use x="449.169922" xlink:href="#DejaVuSans-114"/>
      <use x="488.033203" xlink:href="#DejaVuSans-111"/>
      <use x="549.214844" xlink:href="#DejaVuSans-111"/>
      <use x="610.396484" xlink:href="#DejaVuSans-116"/>
      <use x="649.605469" xlink:href="#DejaVuSans-95"/>
      <use x="699.605469" xlink:href="#DejaVuSans-101"/>
      <use x="761.128906" xlink:href="#DejaVuSans-114"/>
      <use x="800.492188" xlink:href="#DejaVuSans-114"/>
     </g>
    </g>
   </g>
  </g>
 </g>
 <defs>
  <clipPath id="pbf2e010d86">
   <rect height="266.112" width="357.12" x="56.50625" y="7.2"/>
  </clipPath>
 </defs>
</svg>
