<?xml version="1.0" encoding="utf-8" standalone="no"?>
<!DOCTYPE svg PUBLIC "-//W3C//DTD SVG 1.1//EN"
  "http://www.w3.org/Graphics/SVG/1.1/DTD/svg11.dtd">
<!-- Created with matplotlib (https://matplotlib.org/) -->
<svg height="312.233695pt" version="1.1" viewBox="0 0 414.46375 312.233695" width="414.46375pt" xmlns="http://www.w3.org/2000/svg" xmlns:xlink="http://www.w3.org/1999/xlink">
 <metadata>
  <rdf:RDF xmlns:cc="http://creativecommons.org/ns#" xmlns:dc="http://purl.org/dc/elements/1.1/" xmlns:rdf="http://www.w3.org/1999/02/22-rdf-syntax-ns#">
   <cc:Work>
    <dc:type rdf:resource="http://purl.org/dc/dcmitype/StillImage"/>
    <dc:date>2022-05-05T14:14:54.972585</dc:date>
    <dc:format>image/svg+xml</dc:format>
    <dc:creator>
     <cc:Agent>
      <dc:title>Matplotlib v3.3.4, https://matplotlib.org/</dc:title>
     </cc:Agent>
    </dc:creator>
   </cc:Work>
  </rdf:RDF>
 </metadata>
 <defs>
  <style type="text/css">*{stroke-linecap:butt;stroke-linejoin:round;}</style>
 </defs>
 <g id="figure_1">
  <g id="patch_1">
   <path d="M 0 312.233695 
L 414.46375 312.233695 
L 414.46375 0 
L 0 0 
z
" style="fill:#ffffff;"/>
  </g>
  <g id="axes_1">
   <g id="patch_2">
    <path d="M 50.14375 274.677445 
L 407.26375 274.677445 
L 407.26375 8.565445 
L 50.14375 8.565445 
z
" style="fill:#ffffff;"/>
   </g>
   <g id="PathCollection_1">
    <path clip-path="url(#pcf72fab244)" d="M 66.376477 87.478273 
C 67.172087 87.478273 67.935217 87.162174 68.497798 86.599593 
C 69.060378 86.037012 69.376477 85.273882 69.376477 84.478273 
C 69.376477 83.682664 69.060378 82.919533 68.497798 82.356952 
C 67.935217 81.794372 67.172087 81.478273 66.376477 81.478273 
C 65.580868 81.478273 64.817738 81.794372 64.255157 82.356952 
C 63.692576 82.919533 63.376477 83.682664 63.376477 84.478273 
C 63.376477 85.273882 63.692576 86.037012 64.255157 86.599593 
C 64.817738 87.162174 65.580868 87.478273 66.376477 87.478273 
z
" style="fill:#f26b38;stroke:#ffffff;stroke-width:0.48;"/>
    <path clip-path="url(#pcf72fab244)" d="M 73.140114 110.24334 
C 73.935723 110.24334 74.698853 109.927241 75.261434 109.36466 
C 75.824015 108.80208 76.140114 108.038949 76.140114 107.24334 
C 76.140114 106.447731 75.824015 105.6846 75.261434 105.12202 
C 74.698853 104.559439 73.935723 104.24334 73.140114 104.24334 
C 72.344504 104.24334 71.581374 104.559439 71.018793 105.12202 
C 70.456213 105.6846 70.140114 106.447731 70.140114 107.24334 
C 70.140114 108.038949 70.456213 108.80208 71.018793 109.36466 
C 71.581374 109.927241 72.344504 110.24334 73.140114 110.24334 
z
" style="fill:#f26b38;stroke:#ffffff;stroke-width:0.48;"/>
    <path clip-path="url(#pcf72fab244)" d="M 79.90375 110.24334 
C 80.699359 110.24334 81.46249 109.927241 82.02507 109.36466 
C 82.587651 108.80208 82.90375 108.038949 82.90375 107.24334 
C 82.90375 106.447731 82.587651 105.6846 82.02507 105.12202 
C 81.46249 104.559439 80.699359 104.24334 79.90375 104.24334 
C 79.108141 104.24334 78.34501 104.559439 77.78243 105.12202 
C 77.219849 105.6846 76.90375 106.447731 76.90375 107.24334 
C 76.90375 108.038949 77.219849 108.80208 77.78243 109.36466 
C 78.34501 109.927241 79.108141 110.24334 79.90375 110.24334 
z
" style="fill:#f26b38;stroke:#ffffff;stroke-width:0.48;"/>
    <path clip-path="url(#pcf72fab244)" d="M 86.667386 110.24334 
C 87.462996 110.24334 88.226126 109.927241 88.788707 109.36466 
C 89.351287 108.80208 89.667386 108.038949 89.667386 107.24334 
C 89.667386 106.447731 89.351287 105.6846 88.788707 105.12202 
C 88.226126 104.559439 87.462996 104.24334 86.667386 104.24334 
C 85.871777 104.24334 85.108647 104.559439 84.546066 105.12202 
C 83.983485 105.6846 83.667386 106.447731 83.667386 107.24334 
C 83.667386 108.038949 83.983485 108.80208 84.546066 109.36466 
C 85.108647 109.927241 85.871777 110.24334 86.667386 110.24334 
z
" style="fill:#f26b38;stroke:#ffffff;stroke-width:0.48;"/>
    <path clip-path="url(#pcf72fab244)" d="M 93.431023 110.24334 
C 94.226632 110.24334 94.989762 109.927241 95.552343 109.36466 
C 96.114924 108.80208 96.431023 108.038949 96.431023 107.24334 
C 96.431023 106.447731 96.114924 105.6846 95.552343 105.12202 
C 94.989762 104.559439 94.226632 104.24334 93.431023 104.24334 
C 92.635413 104.24334 91.872283 104.559439 91.309702 105.12202 
C 90.747122 105.6846 90.431023 106.447731 90.431023 107.24334 
C 90.431023 108.038949 90.747122 108.80208 91.309702 109.36466 
C 91.872283 109.927241 92.635413 110.24334 93.431023 110.24334 
z
" style="fill:#f26b38;stroke:#ffffff;stroke-width:0.48;"/>
    <path clip-path="url(#pcf72fab244)" d="M 100.194659 133.821445 
C 100.990268 133.821445 101.753399 133.505346 102.315979 132.942766 
C 102.87856 132.380185 103.194659 131.617055 103.194659 130.821445 
C 103.194659 130.025836 102.87856 129.262706 102.315979 128.700125 
C 101.753399 128.137544 100.990268 127.821445 100.194659 127.821445 
C 99.39905 127.821445 98.635919 128.137544 98.073339 128.700125 
C 97.510758 129.262706 97.194659 130.025836 97.194659 130.821445 
C 97.194659 131.617055 97.510758 132.380185 98.073339 132.942766 
C 98.635919 133.505346 99.39905 133.821445 100.194659 133.821445 
z
" style="fill:#f26b38;stroke:#ffffff;stroke-width:0.48;"/>
    <path clip-path="url(#pcf72fab244)" d="M 106.958295 54.765445 
C 107.753905 54.765445 108.517035 54.449346 109.079616 53.886766 
C 109.642197 53.324185 109.958295 52.561055 109.958295 51.765445 
C 109.958295 50.969836 109.642197 50.206706 109.079616 49.644125 
C 108.517035 49.081544 107.753905 48.765445 106.958295 48.765445 
C 106.162686 48.765445 105.399556 49.081544 104.836975 49.644125 
C 104.274394 50.206706 103.958295 50.969836 103.958295 51.765445 
C 103.958295 52.561055 104.274394 53.324185 104.836975 53.886766 
C 105.399556 54.449346 106.162686 54.765445 106.958295 54.765445 
z
" style="fill:#f26b38;stroke:#ffffff;stroke-width:0.48;"/>
    <path clip-path="url(#pcf72fab244)" d="M 113.721932 44.224645 
C 114.517541 44.224645 115.280671 43.908546 115.843252 43.345966 
C 116.405833 42.783385 116.721932 42.020255 116.721932 41.224645 
C 116.721932 40.429036 116.405833 39.665906 115.843252 39.103325 
C 115.280671 38.540744 114.517541 38.224645 113.721932 38.224645 
C 112.926323 38.224645 112.163192 38.540744 111.600611 39.103325 
C 111.038031 39.665906 110.721932 40.429036 110.721932 41.224645 
C 110.721932 42.020255 111.038031 42.783385 111.600611 43.345966 
C 112.163192 43.908546 112.926323 44.224645 113.721932 44.224645 
z
" style="fill:#f26b38;stroke:#ffffff;stroke-width:0.48;"/>
    <path clip-path="url(#pcf72fab244)" d="M 120.485568 44.224645 
C 121.281177 44.224645 122.044308 43.908546 122.606889 43.345966 
C 123.169469 42.783385 123.485568 42.020255 123.485568 41.224645 
C 123.485568 40.429036 123.169469 39.665906 122.606889 39.103325 
C 122.044308 38.540744 121.281177 38.224645 120.485568 38.224645 
C 119.689959 38.224645 118.926829 38.540744 118.364248 39.103325 
C 117.801667 39.665906 117.485568 40.429036 117.485568 41.224645 
C 117.485568 42.020255 117.801667 42.783385 118.364248 43.345966 
C 118.926829 43.908546 119.689959 44.224645 120.485568 44.224645 
z
" style="fill:#f26b38;stroke:#ffffff;stroke-width:0.48;"/>
    <path clip-path="url(#pcf72fab244)" d="M 127.249205 65.484903 
C 128.044814 65.484903 128.807944 65.168804 129.370525 64.606223 
C 129.933106 64.043642 130.249205 63.280512 130.249205 62.484903 
C 130.249205 61.689294 129.933106 60.926163 129.370525 60.363583 
C 128.807944 59.801002 128.044814 59.484903 127.249205 59.484903 
C 126.453595 59.484903 125.690465 59.801002 125.127884 60.363583 
C 124.565303 60.926163 124.249205 61.689294 124.249205 62.484903 
C 124.249205 63.280512 124.565303 64.043642 125.127884 64.606223 
C 125.690465 65.168804 126.453595 65.484903 127.249205 65.484903 
z
" style="fill:#f26b38;stroke:#ffffff;stroke-width:0.48;"/>
    <path clip-path="url(#pcf72fab244)" d="M 134.012841 76.387599 
C 134.80845 76.387599 135.571581 76.0715 136.134161 75.508919 
C 136.696742 74.946339 137.012841 74.183208 137.012841 73.387599 
C 137.012841 72.59199 136.696742 71.828859 136.134161 71.266279 
C 135.571581 70.703698 134.80845 70.387599 134.012841 70.387599 
C 133.217232 70.387599 132.454101 70.703698 131.891521 71.266279 
C 131.32894 71.828859 131.012841 72.59199 131.012841 73.387599 
C 131.012841 74.183208 131.32894 74.946339 131.891521 75.508919 
C 132.454101 76.0715 133.217232 76.387599 134.012841 76.387599 
z
" style="fill:#f26b38;stroke:#ffffff;stroke-width:0.48;"/>
    <path clip-path="url(#pcf72fab244)" d="M 140.776477 110.24334 
C 141.572087 110.24334 142.335217 109.927241 142.897798 109.36466 
C 143.460378 108.80208 143.776477 108.038949 143.776477 107.24334 
C 143.776477 106.447731 143.460378 105.6846 142.897798 105.12202 
C 142.335217 104.559439 141.572087 104.24334 140.776477 104.24334 
C 139.980868 104.24334 139.217738 104.559439 138.655157 105.12202 
C 138.092576 105.6846 137.776477 106.447731 137.776477 107.24334 
C 137.776477 108.038949 138.092576 108.80208 138.655157 109.36466 
C 139.217738 109.927241 139.980868 110.24334 140.776477 110.24334 
z
" style="fill:#f26b38;stroke:#ffffff;stroke-width:0.48;"/>
    <path clip-path="url(#pcf72fab244)" d="M 147.540114 158.256936 
C 148.335723 158.256936 149.098853 157.940837 149.661434 157.378257 
C 150.224015 156.815676 150.540114 156.052545 150.540114 155.256936 
C 150.540114 154.461327 150.224015 153.698197 149.661434 153.135616 
C 149.098853 152.573035 148.335723 152.256936 147.540114 152.256936 
C 146.744504 152.256936 145.981374 152.573035 145.418793 153.135616 
C 144.856213 153.698197 144.540114 154.461327 144.540114 155.256936 
C 144.540114 156.052545 144.856213 156.815676 145.418793 157.378257 
C 145.981374 157.940837 146.744504 158.256936 147.540114 158.256936 
z
" style="fill:#f26b38;stroke:#ffffff;stroke-width:0.48;"/>
    <path clip-path="url(#pcf72fab244)" d="M 154.30375 158.256936 
C 155.099359 158.256936 155.86249 157.940837 156.42507 157.378257 
C 156.987651 156.815676 157.30375 156.052545 157.30375 155.256936 
C 157.30375 154.461327 156.987651 153.698197 156.42507 153.135616 
C 155.86249 152.573035 155.099359 152.256936 154.30375 152.256936 
C 153.508141 152.256936 152.74501 152.573035 152.18243 153.135616 
C 151.619849 153.698197 151.30375 154.461327 151.30375 155.256936 
C 151.30375 156.052545 151.619849 156.815676 152.18243 157.378257 
C 152.74501 157.940837 153.508141 158.256936 154.30375 158.256936 
z
" style="fill:#f26b38;stroke:#ffffff;stroke-width:0.48;"/>
    <path clip-path="url(#pcf72fab244)" d="M 161.067386 87.478273 
C 161.862996 87.478273 162.626126 87.162174 163.188707 86.599593 
C 163.751287 86.037012 164.067386 85.273882 164.067386 84.478273 
C 164.067386 83.682664 163.751287 82.919533 163.188707 82.356952 
C 162.626126 81.794372 161.862996 81.478273 161.067386 81.478273 
C 160.271777 81.478273 159.508647 81.794372 158.946066 82.356952 
C 158.383485 82.919533 158.067386 83.682664 158.067386 84.478273 
C 158.067386 85.273882 158.383485 86.037012 158.946066 86.599593 
C 159.508647 87.162174 160.271777 87.478273 161.067386 87.478273 
z
" style="fill:#f26b38;stroke:#ffffff;stroke-width:0.48;"/>
    <path clip-path="url(#pcf72fab244)" d="M 167.831023 87.478273 
C 168.626632 87.478273 169.389762 87.162174 169.952343 86.599593 
C 170.514924 86.037012 170.831023 85.273882 170.831023 84.478273 
C 170.831023 83.682664 170.514924 82.919533 169.952343 82.356952 
C 169.389762 81.794372 168.626632 81.478273 167.831023 81.478273 
C 167.035413 81.478273 166.272283 81.794372 165.709702 82.356952 
C 165.147122 82.919533 164.831023 83.682664 164.831023 84.478273 
C 164.831023 85.273882 165.147122 86.037012 165.709702 86.599593 
C 166.272283 87.162174 167.035413 87.478273 167.831023 87.478273 
z
" style="fill:#f26b38;stroke:#ffffff;stroke-width:0.48;"/>
    <path clip-path="url(#pcf72fab244)" d="M 174.594659 87.478273 
C 175.390268 87.478273 176.153399 87.162174 176.715979 86.599593 
C 177.27856 86.037012 177.594659 85.273882 177.594659 84.478273 
C 177.594659 83.682664 177.27856 82.919533 176.715979 82.356952 
C 176.153399 81.794372 175.390268 81.478273 174.594659 81.478273 
C 173.79905 81.478273 173.035919 81.794372 172.473339 82.356952 
C 171.910758 82.919533 171.594659 83.682664 171.594659 84.478273 
C 171.594659 85.273882 171.910758 86.037012 172.473339 86.599593 
C 173.035919 87.162174 173.79905 87.478273 174.594659 87.478273 
z
" style="fill:#f26b38;stroke:#ffffff;stroke-width:0.48;"/>
    <path clip-path="url(#pcf72fab244)" d="M 181.358295 87.478273 
C 182.153905 87.478273 182.917035 87.162174 183.479616 86.599593 
C 184.042197 86.037012 184.358295 85.273882 184.358295 84.478273 
C 184.358295 83.682664 184.042197 82.919533 183.479616 82.356952 
C 182.917035 81.794372 182.153905 81.478273 181.358295 81.478273 
C 180.562686 81.478273 179.799556 81.794372 179.236975 82.356952 
C 178.674394 82.919533 178.358295 83.682664 178.358295 84.478273 
C 178.358295 85.273882 178.674394 86.037012 179.236975 86.599593 
C 179.799556 87.162174 180.562686 87.478273 181.358295 87.478273 
z
" style="fill:#f26b38;stroke:#ffffff;stroke-width:0.48;"/>
    <path clip-path="url(#pcf72fab244)" d="M 188.121932 87.478273 
C 188.917541 87.478273 189.680671 87.162174 190.243252 86.599593 
C 190.805833 86.037012 191.121932 85.273882 191.121932 84.478273 
C 191.121932 83.682664 190.805833 82.919533 190.243252 82.356952 
C 189.680671 81.794372 188.917541 81.478273 188.121932 81.478273 
C 187.326323 81.478273 186.563192 81.794372 186.000611 82.356952 
C 185.438031 82.919533 185.121932 83.682664 185.121932 84.478273 
C 185.121932 85.273882 185.438031 86.037012 186.000611 86.599593 
C 186.563192 87.162174 187.326323 87.478273 188.121932 87.478273 
z
" style="fill:#f26b38;stroke:#ffffff;stroke-width:0.48;"/>
    <path clip-path="url(#pcf72fab244)" d="M 194.885568 87.478273 
C 195.681177 87.478273 196.444308 87.162174 197.006889 86.599593 
C 197.569469 86.037012 197.885568 85.273882 197.885568 84.478273 
C 197.885568 83.682664 197.569469 82.919533 197.006889 82.356952 
C 196.444308 81.794372 195.681177 81.478273 194.885568 81.478273 
C 194.089959 81.478273 193.326829 81.794372 192.764248 82.356952 
C 192.201667 82.919533 191.885568 83.682664 191.885568 84.478273 
C 191.885568 85.273882 192.201667 86.037012 192.764248 86.599593 
C 193.326829 87.162174 194.089959 87.478273 194.885568 87.478273 
z
" style="fill:#f26b38;stroke:#ffffff;stroke-width:0.48;"/>
    <path clip-path="url(#pcf72fab244)" d="M 201.649205 87.478273 
C 202.444814 87.478273 203.207944 87.162174 203.770525 86.599593 
C 204.333106 86.037012 204.649205 85.273882 204.649205 84.478273 
C 204.649205 83.682664 204.333106 82.919533 203.770525 82.356952 
C 203.207944 81.794372 202.444814 81.478273 201.649205 81.478273 
C 200.853595 81.478273 200.090465 81.794372 199.527884 82.356952 
C 198.965303 82.919533 198.649205 83.682664 198.649205 84.478273 
C 198.649205 85.273882 198.965303 86.037012 199.527884 86.599593 
C 200.090465 87.162174 200.853595 87.478273 201.649205 87.478273 
z
" style="fill:#f26b38;stroke:#ffffff;stroke-width:0.48;"/>
    <path clip-path="url(#pcf72fab244)" d="M 208.412841 87.478273 
C 209.20845 87.478273 209.971581 87.162174 210.534161 86.599593 
C 211.096742 86.037012 211.412841 85.273882 211.412841 84.478273 
C 211.412841 83.682664 211.096742 82.919533 210.534161 82.356952 
C 209.971581 81.794372 209.20845 81.478273 208.412841 81.478273 
C 207.617232 81.478273 206.854101 81.794372 206.291521 82.356952 
C 205.72894 82.919533 205.412841 83.682664 205.412841 84.478273 
C 205.412841 85.273882 205.72894 86.037012 206.291521 86.599593 
C 206.854101 87.162174 207.617232 87.478273 208.412841 87.478273 
z
" style="fill:#f26b38;stroke:#ffffff;stroke-width:0.48;"/>
    <path clip-path="url(#pcf72fab244)" d="M 215.176477 87.478273 
C 215.972087 87.478273 216.735217 87.162174 217.297798 86.599593 
C 217.860378 86.037012 218.176477 85.273882 218.176477 84.478273 
C 218.176477 83.682664 217.860378 82.919533 217.297798 82.356952 
C 216.735217 81.794372 215.972087 81.478273 215.176477 81.478273 
C 214.380868 81.478273 213.617738 81.794372 213.055157 82.356952 
C 212.492576 82.919533 212.176477 83.682664 212.176477 84.478273 
C 212.176477 85.273882 212.492576 86.037012 213.055157 86.599593 
C 213.617738 87.162174 214.380868 87.478273 215.176477 87.478273 
z
" style="fill:#f26b38;stroke:#ffffff;stroke-width:0.48;"/>
    <path clip-path="url(#pcf72fab244)" d="M 221.940114 87.478273 
C 222.735723 87.478273 223.498853 87.162174 224.061434 86.599593 
C 224.624015 86.037012 224.940114 85.273882 224.940114 84.478273 
C 224.940114 83.682664 224.624015 82.919533 224.061434 82.356952 
C 223.498853 81.794372 222.735723 81.478273 221.940114 81.478273 
C 221.144504 81.478273 220.381374 81.794372 219.818793 82.356952 
C 219.256213 82.919533 218.940114 83.682664 218.940114 84.478273 
C 218.940114 85.273882 219.256213 86.037012 219.818793 86.599593 
C 220.381374 87.162174 221.144504 87.478273 221.940114 87.478273 
z
" style="fill:#f26b38;stroke:#ffffff;stroke-width:0.48;"/>
    <path clip-path="url(#pcf72fab244)" d="M 228.70375 121.928065 
C 229.499359 121.928065 230.26249 121.611966 230.82507 121.049385 
C 231.387651 120.486804 231.70375 119.723674 231.70375 118.928065 
C 231.70375 118.132455 231.387651 117.369325 230.82507 116.806744 
C 230.26249 116.244164 229.499359 115.928065 228.70375 115.928065 
C 227.908141 115.928065 227.14501 116.244164 226.58243 116.806744 
C 226.019849 117.369325 225.70375 118.132455 225.70375 118.928065 
C 225.70375 119.723674 226.019849 120.486804 226.58243 121.049385 
C 227.14501 121.611966 227.908141 121.928065 228.70375 121.928065 
z
" style="fill:#f26b38;stroke:#ffffff;stroke-width:0.48;"/>
    <path clip-path="url(#pcf72fab244)" d="M 235.467386 158.256936 
C 236.262996 158.256936 237.026126 157.940837 237.588707 157.378257 
C 238.151287 156.815676 238.467386 156.052545 238.467386 155.256936 
C 238.467386 154.461327 238.151287 153.698197 237.588707 153.135616 
C 237.026126 152.573035 236.262996 152.256936 235.467386 152.256936 
C 234.671777 152.256936 233.908647 152.573035 233.346066 153.135616 
C 232.783485 153.698197 232.467386 154.461327 232.467386 155.256936 
C 232.467386 156.052545 232.783485 156.815676 233.346066 157.378257 
C 233.908647 157.940837 234.671777 158.256936 235.467386 158.256936 
z
" style="fill:#f26b38;stroke:#ffffff;stroke-width:0.48;"/>
    <path clip-path="url(#pcf72fab244)" d="M 242.231023 158.256936 
C 243.026632 158.256936 243.789762 157.940837 244.352343 157.378257 
C 244.914924 156.815676 245.231023 156.052545 245.231023 155.256936 
C 245.231023 154.461327 244.914924 153.698197 244.352343 153.135616 
C 243.789762 152.573035 243.026632 152.256936 242.231023 152.256936 
C 241.435413 152.256936 240.672283 152.573035 240.109702 153.135616 
C 239.547122 153.698197 239.231023 154.461327 239.231023 155.256936 
C 239.231023 156.052545 239.547122 156.815676 240.109702 157.378257 
C 240.672283 157.940837 241.435413 158.256936 242.231023 158.256936 
z
" style="fill:#f26b38;stroke:#ffffff;stroke-width:0.48;"/>
    <path clip-path="url(#pcf72fab244)" d="M 248.994659 158.256936 
C 249.790268 158.256936 250.553399 157.940837 251.115979 157.378257 
C 251.67856 156.815676 251.994659 156.052545 251.994659 155.256936 
C 251.994659 154.461327 251.67856 153.698197 251.115979 153.135616 
C 250.553399 152.573035 249.790268 152.256936 248.994659 152.256936 
C 248.19905 152.256936 247.435919 152.573035 246.873339 153.135616 
C 246.310758 153.698197 245.994659 154.461327 245.994659 155.256936 
C 245.994659 156.052545 246.310758 156.815676 246.873339 157.378257 
C 247.435919 157.940837 248.19905 158.256936 248.994659 158.256936 
z
" style="fill:#f26b38;stroke:#ffffff;stroke-width:0.48;"/>
    <path clip-path="url(#pcf72fab244)" d="M 255.758295 158.256936 
C 256.553905 158.256936 257.317035 157.940837 257.879616 157.378257 
C 258.442197 156.815676 258.758295 156.052545 258.758295 155.256936 
C 258.758295 154.461327 258.442197 153.698197 257.879616 153.135616 
C 257.317035 152.573035 256.553905 152.256936 255.758295 152.256936 
C 254.962686 152.256936 254.199556 152.573035 253.636975 153.135616 
C 253.074394 153.698197 252.758295 154.461327 252.758295 155.256936 
C 252.758295 156.052545 253.074394 156.815676 253.636975 157.378257 
C 254.199556 157.940837 254.962686 158.256936 255.758295 158.256936 
z
" style="fill:#f26b38;stroke:#ffffff;stroke-width:0.48;"/>
    <path clip-path="url(#pcf72fab244)" d="M 262.521932 158.256936 
C 263.317541 158.256936 264.080671 157.940837 264.643252 157.378257 
C 265.205833 156.815676 265.521932 156.052545 265.521932 155.256936 
C 265.521932 154.461327 265.205833 153.698197 264.643252 153.135616 
C 264.080671 152.573035 263.317541 152.256936 262.521932 152.256936 
C 261.726323 152.256936 260.963192 152.573035 260.400611 153.135616 
C 259.838031 153.698197 259.521932 154.461327 259.521932 155.256936 
C 259.521932 156.052545 259.838031 156.815676 260.400611 157.378257 
C 260.963192 157.940837 261.726323 158.256936 262.521932 158.256936 
z
" style="fill:#f26b38;stroke:#ffffff;stroke-width:0.48;"/>
    <path clip-path="url(#pcf72fab244)" d="M 269.285568 158.256936 
C 270.081177 158.256936 270.844308 157.940837 271.406889 157.378257 
C 271.969469 156.815676 272.285568 156.052545 272.285568 155.256936 
C 272.285568 154.461327 271.969469 153.698197 271.406889 153.135616 
C 270.844308 152.573035 270.081177 152.256936 269.285568 152.256936 
C 268.489959 152.256936 267.726829 152.573035 267.164248 153.135616 
C 266.601667 153.698197 266.285568 154.461327 266.285568 155.256936 
C 266.285568 156.052545 266.601667 156.815676 267.164248 157.378257 
C 267.726829 157.940837 268.489959 158.256936 269.285568 158.256936 
z
" style="fill:#f26b38;stroke:#ffffff;stroke-width:0.48;"/>
    <path clip-path="url(#pcf72fab244)" d="M 276.049205 158.256936 
C 276.844814 158.256936 277.607944 157.940837 278.170525 157.378257 
C 278.733106 156.815676 279.049205 156.052545 279.049205 155.256936 
C 279.049205 154.461327 278.733106 153.698197 278.170525 153.135616 
C 277.607944 152.573035 276.844814 152.256936 276.049205 152.256936 
C 275.253595 152.256936 274.490465 152.573035 273.927884 153.135616 
C 273.365303 153.698197 273.049205 154.461327 273.049205 155.256936 
C 273.049205 156.052545 273.365303 156.815676 273.927884 157.378257 
C 274.490465 157.940837 275.253595 158.256936 276.049205 158.256936 
z
" style="fill:#f26b38;stroke:#ffffff;stroke-width:0.48;"/>
    <path clip-path="url(#pcf72fab244)" d="M 282.812841 158.256936 
C 283.60845 158.256936 284.371581 157.940837 284.934161 157.378257 
C 285.496742 156.815676 285.812841 156.052545 285.812841 155.256936 
C 285.812841 154.461327 285.496742 153.698197 284.934161 153.135616 
C 284.371581 152.573035 283.60845 152.256936 282.812841 152.256936 
C 282.017232 152.256936 281.254101 152.573035 280.691521 153.135616 
C 280.12894 153.698197 279.812841 154.461327 279.812841 155.256936 
C 279.812841 156.052545 280.12894 156.815676 280.691521 157.378257 
C 281.254101 157.940837 282.017232 158.256936 282.812841 158.256936 
z
" style="fill:#f26b38;stroke:#ffffff;stroke-width:0.48;"/>
    <path clip-path="url(#pcf72fab244)" d="M 289.576477 158.256936 
C 290.372087 158.256936 291.135217 157.940837 291.697798 157.378257 
C 292.260378 156.815676 292.576477 156.052545 292.576477 155.256936 
C 292.576477 154.461327 292.260378 153.698197 291.697798 153.135616 
C 291.135217 152.573035 290.372087 152.256936 289.576477 152.256936 
C 288.780868 152.256936 288.017738 152.573035 287.455157 153.135616 
C 286.892576 153.698197 286.576477 154.461327 286.576477 155.256936 
C 286.576477 156.052545 286.892576 156.815676 287.455157 157.378257 
C 288.017738 157.940837 288.780868 158.256936 289.576477 158.256936 
z
" style="fill:#f26b38;stroke:#ffffff;stroke-width:0.48;"/>
    <path clip-path="url(#pcf72fab244)" d="M 296.340114 158.256936 
C 297.135723 158.256936 297.898853 157.940837 298.461434 157.378257 
C 299.024015 156.815676 299.340114 156.052545 299.340114 155.256936 
C 299.340114 154.461327 299.024015 153.698197 298.461434 153.135616 
C 297.898853 152.573035 297.135723 152.256936 296.340114 152.256936 
C 295.544504 152.256936 294.781374 152.573035 294.218793 153.135616 
C 293.656213 153.698197 293.340114 154.461327 293.340114 155.256936 
C 293.340114 156.052545 293.656213 156.815676 294.218793 157.378257 
C 294.781374 157.940837 295.544504 158.256936 296.340114 158.256936 
z
" style="fill:#f26b38;stroke:#ffffff;stroke-width:0.48;"/>
    <path clip-path="url(#pcf72fab244)" d="M 303.10375 158.256936 
C 303.899359 158.256936 304.66249 157.940837 305.22507 157.378257 
C 305.787651 156.815676 306.10375 156.052545 306.10375 155.256936 
C 306.10375 154.461327 305.787651 153.698197 305.22507 153.135616 
C 304.66249 152.573035 303.899359 152.256936 303.10375 152.256936 
C 302.308141 152.256936 301.54501 152.573035 300.98243 153.135616 
C 300.419849 153.698197 300.10375 154.461327 300.10375 155.256936 
C 300.10375 156.052545 300.419849 156.815676 300.98243 157.378257 
C 301.54501 157.940837 302.308141 158.256936 303.10375 158.256936 
z
" style="fill:#f26b38;stroke:#ffffff;stroke-width:0.48;"/>
    <path clip-path="url(#pcf72fab244)" d="M 309.867386 158.256936 
C 310.662996 158.256936 311.426126 157.940837 311.988707 157.378257 
C 312.551287 156.815676 312.867386 156.052545 312.867386 155.256936 
C 312.867386 154.461327 312.551287 153.698197 311.988707 153.135616 
C 311.426126 152.573035 310.662996 152.256936 309.867386 152.256936 
C 309.071777 152.256936 308.308647 152.573035 307.746066 153.135616 
C 307.183485 153.698197 306.867386 154.461327 306.867386 155.256936 
C 306.867386 156.052545 307.183485 156.815676 307.746066 157.378257 
C 308.308647 157.940837 309.071777 158.256936 309.867386 158.256936 
z
" style="fill:#f26b38;stroke:#ffffff;stroke-width:0.48;"/>
    <path clip-path="url(#pcf72fab244)" d="M 316.631023 158.256936 
C 317.426632 158.256936 318.189762 157.940837 318.752343 157.378257 
C 319.314924 156.815676 319.631023 156.052545 319.631023 155.256936 
C 319.631023 154.461327 319.314924 153.698197 318.752343 153.135616 
C 318.189762 152.573035 317.426632 152.256936 316.631023 152.256936 
C 315.835413 152.256936 315.072283 152.573035 314.509702 153.135616 
C 313.947122 153.698197 313.631023 154.461327 313.631023 155.256936 
C 313.631023 156.052545 313.947122 156.815676 314.509702 157.378257 
C 315.072283 157.940837 315.835413 158.256936 316.631023 158.256936 
z
" style="fill:#f26b38;stroke:#ffffff;stroke-width:0.48;"/>
    <path clip-path="url(#pcf72fab244)" d="M 323.394659 158.256936 
C 324.190268 158.256936 324.953399 157.940837 325.515979 157.378257 
C 326.07856 156.815676 326.394659 156.052545 326.394659 155.256936 
C 326.394659 154.461327 326.07856 153.698197 325.515979 153.135616 
C 324.953399 152.573035 324.190268 152.256936 323.394659 152.256936 
C 322.59905 152.256936 321.835919 152.573035 321.273339 153.135616 
C 320.710758 153.698197 320.394659 154.461327 320.394659 155.256936 
C 320.394659 156.052545 320.710758 156.815676 321.273339 157.378257 
C 321.835919 157.940837 322.59905 158.256936 323.394659 158.256936 
z
" style="fill:#f26b38;stroke:#ffffff;stroke-width:0.48;"/>
    <path clip-path="url(#pcf72fab244)" d="M 330.158295 158.256936 
C 330.953905 158.256936 331.717035 157.940837 332.279616 157.378257 
C 332.842197 156.815676 333.158295 156.052545 333.158295 155.256936 
C 333.158295 154.461327 332.842197 153.698197 332.279616 153.135616 
C 331.717035 152.573035 330.953905 152.256936 330.158295 152.256936 
C 329.362686 152.256936 328.599556 152.573035 328.036975 153.135616 
C 327.474394 153.698197 327.158295 154.461327 327.158295 155.256936 
C 327.158295 156.052545 327.474394 156.815676 328.036975 157.378257 
C 328.599556 157.940837 329.362686 158.256936 330.158295 158.256936 
z
" style="fill:#f26b38;stroke:#ffffff;stroke-width:0.48;"/>
    <path clip-path="url(#pcf72fab244)" d="M 336.921932 158.256936 
C 337.717541 158.256936 338.480671 157.940837 339.043252 157.378257 
C 339.605833 156.815676 339.921932 156.052545 339.921932 155.256936 
C 339.921932 154.461327 339.605833 153.698197 339.043252 153.135616 
C 338.480671 152.573035 337.717541 152.256936 336.921932 152.256936 
C 336.126323 152.256936 335.363192 152.573035 334.800611 153.135616 
C 334.238031 153.698197 333.921932 154.461327 333.921932 155.256936 
C 333.921932 156.052545 334.238031 156.815676 334.800611 157.378257 
C 335.363192 157.940837 336.126323 158.256936 336.921932 158.256936 
z
" style="fill:#f26b38;stroke:#ffffff;stroke-width:0.48;"/>
    <path clip-path="url(#pcf72fab244)" d="M 343.685568 158.256936 
C 344.481177 158.256936 345.244308 157.940837 345.806889 157.378257 
C 346.369469 156.815676 346.685568 156.052545 346.685568 155.256936 
C 346.685568 154.461327 346.369469 153.698197 345.806889 153.135616 
C 345.244308 152.573035 344.481177 152.256936 343.685568 152.256936 
C 342.889959 152.256936 342.126829 152.573035 341.564248 153.135616 
C 341.001667 153.698197 340.685568 154.461327 340.685568 155.256936 
C 340.685568 156.052545 341.001667 156.815676 341.564248 157.378257 
C 342.126829 157.940837 342.889959 158.256936 343.685568 158.256936 
z
" style="fill:#f26b38;stroke:#ffffff;stroke-width:0.48;"/>
    <path clip-path="url(#pcf72fab244)" d="M 350.449205 158.256936 
C 351.244814 158.256936 352.007944 157.940837 352.570525 157.378257 
C 353.133106 156.815676 353.449205 156.052545 353.449205 155.256936 
C 353.449205 154.461327 353.133106 153.698197 352.570525 153.135616 
C 352.007944 152.573035 351.244814 152.256936 350.449205 152.256936 
C 349.653595 152.256936 348.890465 152.573035 348.327884 153.135616 
C 347.765303 153.698197 347.449205 154.461327 347.449205 155.256936 
C 347.449205 156.052545 347.765303 156.815676 348.327884 157.378257 
C 348.890465 157.940837 349.653595 158.256936 350.449205 158.256936 
z
" style="fill:#f26b38;stroke:#ffffff;stroke-width:0.48;"/>
    <path clip-path="url(#pcf72fab244)" d="M 357.212841 158.256936 
C 358.00845 158.256936 358.771581 157.940837 359.334161 157.378257 
C 359.896742 156.815676 360.212841 156.052545 360.212841 155.256936 
C 360.212841 154.461327 359.896742 153.698197 359.334161 153.135616 
C 358.771581 152.573035 358.00845 152.256936 357.212841 152.256936 
C 356.417232 152.256936 355.654101 152.573035 355.091521 153.135616 
C 354.52894 153.698197 354.212841 154.461327 354.212841 155.256936 
C 354.212841 156.052545 354.52894 156.815676 355.091521 157.378257 
C 355.654101 157.940837 356.417232 158.256936 357.212841 158.256936 
z
" style="fill:#f26b38;stroke:#ffffff;stroke-width:0.48;"/>
    <path clip-path="url(#pcf72fab244)" d="M 363.976477 158.256936 
C 364.772087 158.256936 365.535217 157.940837 366.097798 157.378257 
C 366.660378 156.815676 366.976477 156.052545 366.976477 155.256936 
C 366.976477 154.461327 366.660378 153.698197 366.097798 153.135616 
C 365.535217 152.573035 364.772087 152.256936 363.976477 152.256936 
C 363.180868 152.256936 362.417738 152.573035 361.855157 153.135616 
C 361.292576 153.698197 360.976477 154.461327 360.976477 155.256936 
C 360.976477 156.052545 361.292576 156.815676 361.855157 157.378257 
C 362.417738 157.940837 363.180868 158.256936 363.976477 158.256936 
z
" style="fill:#f26b38;stroke:#ffffff;stroke-width:0.48;"/>
    <path clip-path="url(#pcf72fab244)" d="M 370.740114 158.256936 
C 371.535723 158.256936 372.298853 157.940837 372.861434 157.378257 
C 373.424015 156.815676 373.740114 156.052545 373.740114 155.256936 
C 373.740114 154.461327 373.424015 153.698197 372.861434 153.135616 
C 372.298853 152.573035 371.535723 152.256936 370.740114 152.256936 
C 369.944504 152.256936 369.181374 152.573035 368.618793 153.135616 
C 368.056213 153.698197 367.740114 154.461327 367.740114 155.256936 
C 367.740114 156.052545 368.056213 156.815676 368.618793 157.378257 
C 369.181374 157.940837 369.944504 158.256936 370.740114 158.256936 
z
" style="fill:#f26b38;stroke:#ffffff;stroke-width:0.48;"/>
    <path clip-path="url(#pcf72fab244)" d="M 377.50375 158.256936 
C 378.299359 158.256936 379.06249 157.940837 379.62507 157.378257 
C 380.187651 156.815676 380.50375 156.052545 380.50375 155.256936 
C 380.50375 154.461327 380.187651 153.698197 379.62507 153.135616 
C 379.06249 152.573035 378.299359 152.256936 377.50375 152.256936 
C 376.708141 152.256936 375.94501 152.573035 375.38243 153.135616 
C 374.819849 153.698197 374.50375 154.461327 374.50375 155.256936 
C 374.50375 156.052545 374.819849 156.815676 375.38243 157.378257 
C 375.94501 157.940837 376.708141 158.256936 377.50375 158.256936 
z
" style="fill:#f26b38;stroke:#ffffff;stroke-width:0.48;"/>
    <path clip-path="url(#pcf72fab244)" d="M 384.267386 158.256936 
C 385.062996 158.256936 385.826126 157.940837 386.388707 157.378257 
C 386.951287 156.815676 387.267386 156.052545 387.267386 155.256936 
C 387.267386 154.461327 386.951287 153.698197 386.388707 153.135616 
C 385.826126 152.573035 385.062996 152.256936 384.267386 152.256936 
C 383.471777 152.256936 382.708647 152.573035 382.146066 153.135616 
C 381.583485 153.698197 381.267386 154.461327 381.267386 155.256936 
C 381.267386 156.052545 381.583485 156.815676 382.146066 157.378257 
C 382.708647 157.940837 383.471777 158.256936 384.267386 158.256936 
z
" style="fill:#f26b38;stroke:#ffffff;stroke-width:0.48;"/>
    <path clip-path="url(#pcf72fab244)" d="M 391.031023 158.256936 
C 391.826632 158.256936 392.589762 157.940837 393.152343 157.378257 
C 393.714924 156.815676 394.031023 156.052545 394.031023 155.256936 
C 394.031023 154.461327 393.714924 153.698197 393.152343 153.135616 
C 392.589762 152.573035 391.826632 152.256936 391.031023 152.256936 
C 390.235413 152.256936 389.472283 152.573035 388.909702 153.135616 
C 388.347122 153.698197 388.031023 154.461327 388.031023 155.256936 
C 388.031023 156.052545 388.347122 156.815676 388.909702 157.378257 
C 389.472283 157.940837 390.235413 158.256936 391.031023 158.256936 
z
" style="fill:#f26b38;stroke:#ffffff;stroke-width:0.48;"/>
    <path clip-path="url(#pcf72fab244)" d="M 64.876477 133.821445 
L 66.376477 132.321445 
L 67.876477 133.821445 
L 69.376477 132.321445 
L 67.876477 130.821445 
L 69.376477 129.321445 
L 67.876477 127.821445 
L 66.376477 129.321445 
L 64.876477 127.821445 
L 63.376477 129.321445 
L 64.876477 130.821445 
L 63.376477 132.321445 
z
" style="fill:#2f9599;stroke:#ffffff;stroke-width:0.48;"/>
    <path clip-path="url(#pcf72fab244)" d="M 71.640114 98.761828 
L 73.140114 97.261828 
L 74.640114 98.761828 
L 76.140114 97.261828 
L 74.640114 95.761828 
L 76.140114 94.261828 
L 74.640114 92.761828 
L 73.140114 94.261828 
L 71.640114 92.761828 
L 70.140114 94.261828 
L 71.640114 95.761828 
L 70.140114 97.261828 
z
" style="fill:#2f9599;stroke:#ffffff;stroke-width:0.48;"/>
    <path clip-path="url(#pcf72fab244)" d="M 78.40375 98.761828 
L 79.90375 97.261828 
L 81.40375 98.761828 
L 82.90375 97.261828 
L 81.40375 95.761828 
L 82.90375 94.261828 
L 81.40375 92.761828 
L 79.90375 94.261828 
L 78.40375 92.761828 
L 76.90375 94.261828 
L 78.40375 95.761828 
L 76.90375 97.261828 
z
" style="fill:#2f9599;stroke:#ffffff;stroke-width:0.48;"/>
    <path clip-path="url(#pcf72fab244)" d="M 85.167386 98.761828 
L 86.667386 97.261828 
L 88.167386 98.761828 
L 89.667386 97.261828 
L 88.167386 95.761828 
L 89.667386 94.261828 
L 88.167386 92.761828 
L 86.667386 94.261828 
L 85.167386 92.761828 
L 83.667386 94.261828 
L 85.167386 95.761828 
L 83.667386 97.261828 
z
" style="fill:#2f9599;stroke:#ffffff;stroke-width:0.48;"/>
    <path clip-path="url(#pcf72fab244)" d="M 91.931023 145.929121 
L 93.431023 144.429121 
L 94.931023 145.929121 
L 96.431023 144.429121 
L 94.931023 142.929121 
L 96.431023 141.429121 
L 94.931023 139.929121 
L 93.431023 141.429121 
L 91.931023 139.929121 
L 90.431023 141.429121 
L 91.931023 142.929121 
L 90.431023 144.429121 
z
" style="fill:#2f9599;stroke:#ffffff;stroke-width:0.48;"/>
    <path clip-path="url(#pcf72fab244)" d="M 98.694659 145.929121 
L 100.194659 144.429121 
L 101.694659 145.929121 
L 103.194659 144.429121 
L 101.694659 142.929121 
L 103.194659 141.429121 
L 101.694659 139.929121 
L 100.194659 141.429121 
L 98.694659 139.929121 
L 97.194659 141.429121 
L 98.694659 142.929121 
L 97.194659 144.429121 
z
" style="fill:#2f9599;stroke:#ffffff;stroke-width:0.48;"/>
    <path clip-path="url(#pcf72fab244)" d="M 105.458295 145.929121 
L 106.958295 144.429121 
L 108.458295 145.929121 
L 109.958295 144.429121 
L 108.458295 142.929121 
L 109.958295 141.429121 
L 108.458295 139.929121 
L 106.958295 141.429121 
L 105.458295 139.929121 
L 103.958295 141.429121 
L 105.458295 142.929121 
L 103.958295 144.429121 
z
" style="fill:#2f9599;stroke:#ffffff;stroke-width:0.48;"/>
    <path clip-path="url(#pcf72fab244)" d="M 112.221932 145.929121 
L 113.721932 144.429121 
L 115.221932 145.929121 
L 116.721932 144.429121 
L 115.221932 142.929121 
L 116.721932 141.429121 
L 115.221932 139.929121 
L 113.721932 141.429121 
L 112.221932 139.929121 
L 110.721932 141.429121 
L 112.221932 142.929121 
L 110.721932 144.429121 
z
" style="fill:#2f9599;stroke:#ffffff;stroke-width:0.48;"/>
    <path clip-path="url(#pcf72fab244)" d="M 118.985568 145.929121 
L 120.485568 144.429121 
L 121.985568 145.929121 
L 123.485568 144.429121 
L 121.985568 142.929121 
L 123.485568 141.429121 
L 121.985568 139.929121 
L 120.485568 141.429121 
L 118.985568 139.929121 
L 117.485568 141.429121 
L 118.985568 142.929121 
L 117.485568 144.429121 
z
" style="fill:#2f9599;stroke:#ffffff;stroke-width:0.48;"/>
    <path clip-path="url(#pcf72fab244)" d="M 125.749205 145.929121 
L 127.249205 144.429121 
L 128.749205 145.929121 
L 130.249205 144.429121 
L 128.749205 142.929121 
L 130.249205 141.429121 
L 128.749205 139.929121 
L 127.249205 141.429121 
L 125.749205 139.929121 
L 124.249205 141.429121 
L 125.749205 142.929121 
L 124.249205 144.429121 
z
" style="fill:#2f9599;stroke:#ffffff;stroke-width:0.48;"/>
    <path clip-path="url(#pcf72fab244)" d="M 132.512841 145.929121 
L 134.012841 144.429121 
L 135.512841 145.929121 
L 137.012841 144.429121 
L 135.512841 142.929121 
L 137.012841 141.429121 
L 135.512841 139.929121 
L 134.012841 141.429121 
L 132.512841 139.929121 
L 131.012841 141.429121 
L 132.512841 142.929121 
L 131.012841 144.429121 
z
" style="fill:#2f9599;stroke:#ffffff;stroke-width:0.48;"/>
    <path clip-path="url(#pcf72fab244)" d="M 139.276477 145.929121 
L 140.776477 144.429121 
L 142.276477 145.929121 
L 143.776477 144.429121 
L 142.276477 142.929121 
L 143.776477 141.429121 
L 142.276477 139.929121 
L 140.776477 141.429121 
L 139.276477 139.929121 
L 137.776477 141.429121 
L 139.276477 142.929121 
L 137.776477 144.429121 
z
" style="fill:#2f9599;stroke:#ffffff;stroke-width:0.48;"/>
    <path clip-path="url(#pcf72fab244)" d="M 146.040114 145.929121 
L 147.540114 144.429121 
L 149.040114 145.929121 
L 150.540114 144.429121 
L 149.040114 142.929121 
L 150.540114 141.429121 
L 149.040114 139.929121 
L 147.540114 141.429121 
L 146.040114 139.929121 
L 144.540114 141.429121 
L 146.040114 142.929121 
L 144.540114 144.429121 
z
" style="fill:#2f9599;stroke:#ffffff;stroke-width:0.48;"/>
    <path clip-path="url(#pcf72fab244)" d="M 152.80375 145.929121 
L 154.30375 144.429121 
L 155.80375 145.929121 
L 157.30375 144.429121 
L 155.80375 142.929121 
L 157.30375 141.429121 
L 155.80375 139.929121 
L 154.30375 141.429121 
L 152.80375 139.929121 
L 151.30375 141.429121 
L 152.80375 142.929121 
L 151.30375 144.429121 
z
" style="fill:#2f9599;stroke:#ffffff;stroke-width:0.48;"/>
    <path clip-path="url(#pcf72fab244)" d="M 159.567386 145.929121 
L 161.067386 144.429121 
L 162.567386 145.929121 
L 164.067386 144.429121 
L 162.567386 142.929121 
L 164.067386 141.429121 
L 162.567386 139.929121 
L 161.067386 141.429121 
L 159.567386 139.929121 
L 158.067386 141.429121 
L 159.567386 142.929121 
L 158.067386 144.429121 
z
" style="fill:#2f9599;stroke:#ffffff;stroke-width:0.48;"/>
    <path clip-path="url(#pcf72fab244)" d="M 166.331023 145.929121 
L 167.831023 144.429121 
L 169.331023 145.929121 
L 170.831023 144.429121 
L 169.331023 142.929121 
L 170.831023 141.429121 
L 169.331023 139.929121 
L 167.831023 141.429121 
L 166.331023 139.929121 
L 164.831023 141.429121 
L 166.331023 142.929121 
L 164.831023 144.429121 
z
" style="fill:#2f9599;stroke:#ffffff;stroke-width:0.48;"/>
    <path clip-path="url(#pcf72fab244)" d="M 173.094659 110.24334 
L 174.594659 108.74334 
L 176.094659 110.24334 
L 177.594659 108.74334 
L 176.094659 107.24334 
L 177.594659 105.74334 
L 176.094659 104.24334 
L 174.594659 105.74334 
L 173.094659 104.24334 
L 171.594659 105.74334 
L 173.094659 107.24334 
L 171.594659 108.74334 
z
" style="fill:#2f9599;stroke:#ffffff;stroke-width:0.48;"/>
    <path clip-path="url(#pcf72fab244)" d="M 179.858295 110.24334 
L 181.358295 108.74334 
L 182.858295 110.24334 
L 184.358295 108.74334 
L 182.858295 107.24334 
L 184.358295 105.74334 
L 182.858295 104.24334 
L 181.358295 105.74334 
L 179.858295 104.24334 
L 178.358295 105.74334 
L 179.858295 107.24334 
L 178.358295 108.74334 
z
" style="fill:#2f9599;stroke:#ffffff;stroke-width:0.48;"/>
    <path clip-path="url(#pcf72fab244)" d="M 186.621932 110.24334 
L 188.121932 108.74334 
L 189.621932 110.24334 
L 191.121932 108.74334 
L 189.621932 107.24334 
L 191.121932 105.74334 
L 189.621932 104.24334 
L 188.121932 105.74334 
L 186.621932 104.24334 
L 185.121932 105.74334 
L 186.621932 107.24334 
L 185.121932 108.74334 
z
" style="fill:#2f9599;stroke:#ffffff;stroke-width:0.48;"/>
    <path clip-path="url(#pcf72fab244)" d="M 193.385568 110.24334 
L 194.885568 108.74334 
L 196.385568 110.24334 
L 197.885568 108.74334 
L 196.385568 107.24334 
L 197.885568 105.74334 
L 196.385568 104.24334 
L 194.885568 105.74334 
L 193.385568 104.24334 
L 191.885568 105.74334 
L 193.385568 107.24334 
L 191.885568 108.74334 
z
" style="fill:#2f9599;stroke:#ffffff;stroke-width:0.48;"/>
    <path clip-path="url(#pcf72fab244)" d="M 200.149205 110.24334 
L 201.649205 108.74334 
L 203.149205 110.24334 
L 204.649205 108.74334 
L 203.149205 107.24334 
L 204.649205 105.74334 
L 203.149205 104.24334 
L 201.649205 105.74334 
L 200.149205 104.24334 
L 198.649205 105.74334 
L 200.149205 107.24334 
L 198.649205 108.74334 
z
" style="fill:#2f9599;stroke:#ffffff;stroke-width:0.48;"/>
    <path clip-path="url(#pcf72fab244)" d="M 206.912841 110.24334 
L 208.412841 108.74334 
L 209.912841 110.24334 
L 211.412841 108.74334 
L 209.912841 107.24334 
L 211.412841 105.74334 
L 209.912841 104.24334 
L 208.412841 105.74334 
L 206.912841 104.24334 
L 205.412841 105.74334 
L 206.912841 107.24334 
L 205.412841 108.74334 
z
" style="fill:#2f9599;stroke:#ffffff;stroke-width:0.48;"/>
    <path clip-path="url(#pcf72fab244)" d="M 213.676477 110.24334 
L 215.176477 108.74334 
L 216.676477 110.24334 
L 218.176477 108.74334 
L 216.676477 107.24334 
L 218.176477 105.74334 
L 216.676477 104.24334 
L 215.176477 105.74334 
L 213.676477 104.24334 
L 212.176477 105.74334 
L 213.676477 107.24334 
L 212.176477 108.74334 
z
" style="fill:#2f9599;stroke:#ffffff;stroke-width:0.48;"/>
    <path clip-path="url(#pcf72fab244)" d="M 220.440114 110.24334 
L 221.940114 108.74334 
L 223.440114 110.24334 
L 224.940114 108.74334 
L 223.440114 107.24334 
L 224.940114 105.74334 
L 223.440114 104.24334 
L 221.940114 105.74334 
L 220.440114 104.24334 
L 218.940114 105.74334 
L 220.440114 107.24334 
L 218.940114 108.74334 
z
" style="fill:#2f9599;stroke:#ffffff;stroke-width:0.48;"/>
    <path clip-path="url(#pcf72fab244)" d="M 227.20375 110.24334 
L 228.70375 108.74334 
L 230.20375 110.24334 
L 231.70375 108.74334 
L 230.20375 107.24334 
L 231.70375 105.74334 
L 230.20375 104.24334 
L 228.70375 105.74334 
L 227.20375 104.24334 
L 225.70375 105.74334 
L 227.20375 107.24334 
L 225.70375 108.74334 
z
" style="fill:#2f9599;stroke:#ffffff;stroke-width:0.48;"/>
    <path clip-path="url(#pcf72fab244)" d="M 233.967386 110.24334 
L 235.467386 108.74334 
L 236.967386 110.24334 
L 238.467386 108.74334 
L 236.967386 107.24334 
L 238.467386 105.74334 
L 236.967386 104.24334 
L 235.467386 105.74334 
L 233.967386 104.24334 
L 232.467386 105.74334 
L 233.967386 107.24334 
L 232.467386 108.74334 
z
" style="fill:#2f9599;stroke:#ffffff;stroke-width:0.48;"/>
    <path clip-path="url(#pcf72fab244)" d="M 240.731023 110.24334 
L 242.231023 108.74334 
L 243.731023 110.24334 
L 245.231023 108.74334 
L 243.731023 107.24334 
L 245.231023 105.74334 
L 243.731023 104.24334 
L 242.231023 105.74334 
L 240.731023 104.24334 
L 239.231023 105.74334 
L 240.731023 107.24334 
L 239.231023 108.74334 
z
" style="fill:#2f9599;stroke:#ffffff;stroke-width:0.48;"/>
    <path clip-path="url(#pcf72fab244)" d="M 247.494659 110.24334 
L 248.994659 108.74334 
L 250.494659 110.24334 
L 251.994659 108.74334 
L 250.494659 107.24334 
L 251.994659 105.74334 
L 250.494659 104.24334 
L 248.994659 105.74334 
L 247.494659 104.24334 
L 245.994659 105.74334 
L 247.494659 107.24334 
L 245.994659 108.74334 
z
" style="fill:#2f9599;stroke:#ffffff;stroke-width:0.48;"/>
    <path clip-path="url(#pcf72fab244)" d="M 254.258295 110.24334 
L 255.758295 108.74334 
L 257.258295 110.24334 
L 258.758295 108.74334 
L 257.258295 107.24334 
L 258.758295 105.74334 
L 257.258295 104.24334 
L 255.758295 105.74334 
L 254.258295 104.24334 
L 252.758295 105.74334 
L 254.258295 107.24334 
L 252.758295 108.74334 
z
" style="fill:#2f9599;stroke:#ffffff;stroke-width:0.48;"/>
    <path clip-path="url(#pcf72fab244)" d="M 261.021932 110.24334 
L 262.521932 108.74334 
L 264.021932 110.24334 
L 265.521932 108.74334 
L 264.021932 107.24334 
L 265.521932 105.74334 
L 264.021932 104.24334 
L 262.521932 105.74334 
L 261.021932 104.24334 
L 259.521932 105.74334 
L 261.021932 107.24334 
L 259.521932 108.74334 
z
" style="fill:#2f9599;stroke:#ffffff;stroke-width:0.48;"/>
    <path clip-path="url(#pcf72fab244)" d="M 267.785568 110.24334 
L 269.285568 108.74334 
L 270.785568 110.24334 
L 272.285568 108.74334 
L 270.785568 107.24334 
L 272.285568 105.74334 
L 270.785568 104.24334 
L 269.285568 105.74334 
L 267.785568 104.24334 
L 266.285568 105.74334 
L 267.785568 107.24334 
L 266.285568 108.74334 
z
" style="fill:#2f9599;stroke:#ffffff;stroke-width:0.48;"/>
    <path clip-path="url(#pcf72fab244)" d="M 274.549205 110.24334 
L 276.049205 108.74334 
L 277.549205 110.24334 
L 279.049205 108.74334 
L 277.549205 107.24334 
L 279.049205 105.74334 
L 277.549205 104.24334 
L 276.049205 105.74334 
L 274.549205 104.24334 
L 273.049205 105.74334 
L 274.549205 107.24334 
L 273.049205 108.74334 
z
" style="fill:#2f9599;stroke:#ffffff;stroke-width:0.48;"/>
    <path clip-path="url(#pcf72fab244)" d="M 281.312841 110.24334 
L 282.812841 108.74334 
L 284.312841 110.24334 
L 285.812841 108.74334 
L 284.312841 107.24334 
L 285.812841 105.74334 
L 284.312841 104.24334 
L 282.812841 105.74334 
L 281.312841 104.24334 
L 279.812841 105.74334 
L 281.312841 107.24334 
L 279.812841 108.74334 
z
" style="fill:#2f9599;stroke:#ffffff;stroke-width:0.48;"/>
    <path clip-path="url(#pcf72fab244)" d="M 288.076477 110.24334 
L 289.576477 108.74334 
L 291.076477 110.24334 
L 292.576477 108.74334 
L 291.076477 107.24334 
L 292.576477 105.74334 
L 291.076477 104.24334 
L 289.576477 105.74334 
L 288.076477 104.24334 
L 286.576477 105.74334 
L 288.076477 107.24334 
L 286.576477 108.74334 
z
" style="fill:#2f9599;stroke:#ffffff;stroke-width:0.48;"/>
    <path clip-path="url(#pcf72fab244)" d="M 294.840114 110.24334 
L 296.340114 108.74334 
L 297.840114 110.24334 
L 299.340114 108.74334 
L 297.840114 107.24334 
L 299.340114 105.74334 
L 297.840114 104.24334 
L 296.340114 105.74334 
L 294.840114 104.24334 
L 293.340114 105.74334 
L 294.840114 107.24334 
L 293.340114 108.74334 
z
" style="fill:#2f9599;stroke:#ffffff;stroke-width:0.48;"/>
    <path clip-path="url(#pcf72fab244)" d="M 301.60375 110.24334 
L 303.10375 108.74334 
L 304.60375 110.24334 
L 306.10375 108.74334 
L 304.60375 107.24334 
L 306.10375 105.74334 
L 304.60375 104.24334 
L 303.10375 105.74334 
L 301.60375 104.24334 
L 300.10375 105.74334 
L 301.60375 107.24334 
L 300.10375 108.74334 
z
" style="fill:#2f9599;stroke:#ffffff;stroke-width:0.48;"/>
    <path clip-path="url(#pcf72fab244)" d="M 308.367386 110.24334 
L 309.867386 108.74334 
L 311.367386 110.24334 
L 312.867386 108.74334 
L 311.367386 107.24334 
L 312.867386 105.74334 
L 311.367386 104.24334 
L 309.867386 105.74334 
L 308.367386 104.24334 
L 306.867386 105.74334 
L 308.367386 107.24334 
L 306.867386 108.74334 
z
" style="fill:#2f9599;stroke:#ffffff;stroke-width:0.48;"/>
    <path clip-path="url(#pcf72fab244)" d="M 315.131023 110.24334 
L 316.631023 108.74334 
L 318.131023 110.24334 
L 319.631023 108.74334 
L 318.131023 107.24334 
L 319.631023 105.74334 
L 318.131023 104.24334 
L 316.631023 105.74334 
L 315.131023 104.24334 
L 313.631023 105.74334 
L 315.131023 107.24334 
L 313.631023 108.74334 
z
" style="fill:#2f9599;stroke:#ffffff;stroke-width:0.48;"/>
    <path clip-path="url(#pcf72fab244)" d="M 321.894659 110.24334 
L 323.394659 108.74334 
L 324.894659 110.24334 
L 326.394659 108.74334 
L 324.894659 107.24334 
L 326.394659 105.74334 
L 324.894659 104.24334 
L 323.394659 105.74334 
L 321.894659 104.24334 
L 320.394659 105.74334 
L 321.894659 107.24334 
L 320.394659 108.74334 
z
" style="fill:#2f9599;stroke:#ffffff;stroke-width:0.48;"/>
    <path clip-path="url(#pcf72fab244)" d="M 328.658295 110.24334 
L 330.158295 108.74334 
L 331.658295 110.24334 
L 333.158295 108.74334 
L 331.658295 107.24334 
L 333.158295 105.74334 
L 331.658295 104.24334 
L 330.158295 105.74334 
L 328.658295 104.24334 
L 327.158295 105.74334 
L 328.658295 107.24334 
L 327.158295 108.74334 
z
" style="fill:#2f9599;stroke:#ffffff;stroke-width:0.48;"/>
    <path clip-path="url(#pcf72fab244)" d="M 335.421932 110.24334 
L 336.921932 108.74334 
L 338.421932 110.24334 
L 339.921932 108.74334 
L 338.421932 107.24334 
L 339.921932 105.74334 
L 338.421932 104.24334 
L 336.921932 105.74334 
L 335.421932 104.24334 
L 333.921932 105.74334 
L 335.421932 107.24334 
L 333.921932 108.74334 
z
" style="fill:#2f9599;stroke:#ffffff;stroke-width:0.48;"/>
    <path clip-path="url(#pcf72fab244)" d="M 342.185568 110.24334 
L 343.685568 108.74334 
L 345.185568 110.24334 
L 346.685568 108.74334 
L 345.185568 107.24334 
L 346.685568 105.74334 
L 345.185568 104.24334 
L 343.685568 105.74334 
L 342.185568 104.24334 
L 340.685568 105.74334 
L 342.185568 107.24334 
L 340.685568 108.74334 
z
" style="fill:#2f9599;stroke:#ffffff;stroke-width:0.48;"/>
    <path clip-path="url(#pcf72fab244)" d="M 348.949205 110.24334 
L 350.449205 108.74334 
L 351.949205 110.24334 
L 353.449205 108.74334 
L 351.949205 107.24334 
L 353.449205 105.74334 
L 351.949205 104.24334 
L 350.449205 105.74334 
L 348.949205 104.24334 
L 347.449205 105.74334 
L 348.949205 107.24334 
L 347.449205 108.74334 
z
" style="fill:#2f9599;stroke:#ffffff;stroke-width:0.48;"/>
    <path clip-path="url(#pcf72fab244)" d="M 355.712841 110.24334 
L 357.212841 108.74334 
L 358.712841 110.24334 
L 360.212841 108.74334 
L 358.712841 107.24334 
L 360.212841 105.74334 
L 358.712841 104.24334 
L 357.212841 105.74334 
L 355.712841 104.24334 
L 354.212841 105.74334 
L 355.712841 107.24334 
L 354.212841 108.74334 
z
" style="fill:#2f9599;stroke:#ffffff;stroke-width:0.48;"/>
    <path clip-path="url(#pcf72fab244)" d="M 362.476477 110.24334 
L 363.976477 108.74334 
L 365.476477 110.24334 
L 366.976477 108.74334 
L 365.476477 107.24334 
L 366.976477 105.74334 
L 365.476477 104.24334 
L 363.976477 105.74334 
L 362.476477 104.24334 
L 360.976477 105.74334 
L 362.476477 107.24334 
L 360.976477 108.74334 
z
" style="fill:#2f9599;stroke:#ffffff;stroke-width:0.48;"/>
    <path clip-path="url(#pcf72fab244)" d="M 369.240114 110.24334 
L 370.740114 108.74334 
L 372.240114 110.24334 
L 373.740114 108.74334 
L 372.240114 107.24334 
L 373.740114 105.74334 
L 372.240114 104.24334 
L 370.740114 105.74334 
L 369.240114 104.24334 
L 367.740114 105.74334 
L 369.240114 107.24334 
L 367.740114 108.74334 
z
" style="fill:#2f9599;stroke:#ffffff;stroke-width:0.48;"/>
    <path clip-path="url(#pcf72fab244)" d="M 376.00375 110.24334 
L 377.50375 108.74334 
L 379.00375 110.24334 
L 380.50375 108.74334 
L 379.00375 107.24334 
L 380.50375 105.74334 
L 379.00375 104.24334 
L 377.50375 105.74334 
L 376.00375 104.24334 
L 374.50375 105.74334 
L 376.00375 107.24334 
L 374.50375 108.74334 
z
" style="fill:#2f9599;stroke:#ffffff;stroke-width:0.48;"/>
    <path clip-path="url(#pcf72fab244)" d="M 382.767386 110.24334 
L 384.267386 108.74334 
L 385.767386 110.24334 
L 387.267386 108.74334 
L 385.767386 107.24334 
L 387.267386 105.74334 
L 385.767386 104.24334 
L 384.267386 105.74334 
L 382.767386 104.24334 
L 381.267386 105.74334 
L 382.767386 107.24334 
L 381.267386 108.74334 
z
" style="fill:#2f9599;stroke:#ffffff;stroke-width:0.48;"/>
    <path clip-path="url(#pcf72fab244)" d="M 389.531023 110.24334 
L 391.031023 108.74334 
L 392.531023 110.24334 
L 394.031023 108.74334 
L 392.531023 107.24334 
L 394.031023 105.74334 
L 392.531023 104.24334 
L 391.031023 105.74334 
L 389.531023 104.24334 
L 388.031023 105.74334 
L 389.531023 107.24334 
L 388.031023 108.74334 
z
" style="fill:#2f9599;stroke:#ffffff;stroke-width:0.48;"/>
    <path clip-path="url(#pcf72fab244)" d="M 64.255157 116.806744 
L 64.255157 121.049385 
L 68.497798 121.049385 
L 68.497798 116.806744 
z
" style="fill:#a7226e;stroke:#ffffff;stroke-width:0.48;"/>
    <path clip-path="url(#pcf72fab244)" d="M 71.018793 116.806744 
L 71.018793 121.049385 
L 75.261434 121.049385 
L 75.261434 116.806744 
z
" style="fill:#a7226e;stroke:#ffffff;stroke-width:0.48;"/>
    <path clip-path="url(#pcf72fab244)" d="M 77.78243 116.806744 
L 77.78243 121.049385 
L 82.02507 121.049385 
L 82.02507 116.806744 
z
" style="fill:#a7226e;stroke:#ffffff;stroke-width:0.48;"/>
    <path clip-path="url(#pcf72fab244)" d="M 84.546066 116.806744 
L 84.546066 121.049385 
L 88.788707 121.049385 
L 88.788707 116.806744 
z
" style="fill:#a7226e;stroke:#ffffff;stroke-width:0.48;"/>
    <path clip-path="url(#pcf72fab244)" d="M 91.309702 116.806744 
L 91.309702 121.049385 
L 95.552343 121.049385 
L 95.552343 116.806744 
z
" style="fill:#a7226e;stroke:#ffffff;stroke-width:0.48;"/>
    <path clip-path="url(#pcf72fab244)" d="M 98.073339 128.700125 
L 98.073339 132.942766 
L 102.315979 132.942766 
L 102.315979 128.700125 
z
" style="fill:#a7226e;stroke:#ffffff;stroke-width:0.48;"/>
    <path clip-path="url(#pcf72fab244)" d="M 104.836975 128.700125 
L 104.836975 132.942766 
L 109.079616 132.942766 
L 109.079616 128.700125 
z
" style="fill:#a7226e;stroke:#ffffff;stroke-width:0.48;"/>
    <path clip-path="url(#pcf72fab244)" d="M 111.600611 128.700125 
L 111.600611 132.942766 
L 115.843252 132.942766 
L 115.843252 128.700125 
z
" style="fill:#a7226e;stroke:#ffffff;stroke-width:0.48;"/>
    <path clip-path="url(#pcf72fab244)" d="M 118.364248 140.807801 
L 118.364248 145.050441 
L 122.606889 145.050441 
L 122.606889 140.807801 
z
" style="fill:#a7226e;stroke:#ffffff;stroke-width:0.48;"/>
    <path clip-path="url(#pcf72fab244)" d="M 125.127884 140.807801 
L 125.127884 145.050441 
L 129.370525 145.050441 
L 129.370525 140.807801 
z
" style="fill:#a7226e;stroke:#ffffff;stroke-width:0.48;"/>
    <path clip-path="url(#pcf72fab244)" d="M 131.891521 153.135616 
L 131.891521 157.378257 
L 136.134161 157.378257 
L 136.134161 153.135616 
z
" style="fill:#a7226e;stroke:#ffffff;stroke-width:0.48;"/>
    <path clip-path="url(#pcf72fab244)" d="M 138.655157 128.700125 
L 138.655157 132.942766 
L 142.897798 132.942766 
L 142.897798 128.700125 
z
" style="fill:#a7226e;stroke:#ffffff;stroke-width:0.48;"/>
    <path clip-path="url(#pcf72fab244)" d="M 145.418793 128.700125 
L 145.418793 132.942766 
L 149.661434 132.942766 
L 149.661434 128.700125 
z
" style="fill:#a7226e;stroke:#ffffff;stroke-width:0.48;"/>
    <path clip-path="url(#pcf72fab244)" d="M 152.18243 128.700125 
L 152.18243 132.942766 
L 156.42507 132.942766 
L 156.42507 128.700125 
z
" style="fill:#a7226e;stroke:#ffffff;stroke-width:0.48;"/>
    <path clip-path="url(#pcf72fab244)" d="M 158.946066 116.806744 
L 158.946066 121.049385 
L 163.188707 121.049385 
L 163.188707 116.806744 
z
" style="fill:#a7226e;stroke:#ffffff;stroke-width:0.48;"/>
    <path clip-path="url(#pcf72fab244)" d="M 165.709702 128.700125 
L 165.709702 132.942766 
L 169.952343 132.942766 
L 169.952343 128.700125 
z
" style="fill:#a7226e;stroke:#ffffff;stroke-width:0.48;"/>
    <path clip-path="url(#pcf72fab244)" d="M 172.473339 116.806744 
L 172.473339 121.049385 
L 176.715979 121.049385 
L 176.715979 116.806744 
z
" style="fill:#a7226e;stroke:#ffffff;stroke-width:0.48;"/>
    <path clip-path="url(#pcf72fab244)" d="M 179.236975 116.806744 
L 179.236975 121.049385 
L 183.479616 121.049385 
L 183.479616 116.806744 
z
" style="fill:#a7226e;stroke:#ffffff;stroke-width:0.48;"/>
    <path clip-path="url(#pcf72fab244)" d="M 186.000611 39.103325 
L 186.000611 43.345966 
L 190.243252 43.345966 
L 190.243252 39.103325 
z
" style="fill:#a7226e;stroke:#ffffff;stroke-width:0.48;"/>
    <path clip-path="url(#pcf72fab244)" d="M 192.764248 28.736753 
L 192.764248 32.979394 
L 197.006889 32.979394 
L 197.006889 28.736753 
z
" style="fill:#a7226e;stroke:#ffffff;stroke-width:0.48;"/>
    <path clip-path="url(#pcf72fab244)" d="M 199.527884 28.736753 
L 199.527884 32.979394 
L 203.770525 32.979394 
L 203.770525 28.736753 
z
" style="fill:#a7226e;stroke:#ffffff;stroke-width:0.48;"/>
    <path clip-path="url(#pcf72fab244)" d="M 206.291521 28.736753 
L 206.291521 32.979394 
L 210.534161 32.979394 
L 210.534161 28.736753 
z
" style="fill:#a7226e;stroke:#ffffff;stroke-width:0.48;"/>
    <path clip-path="url(#pcf72fab244)" d="M 213.055157 18.540125 
L 213.055157 22.782766 
L 217.297798 22.782766 
L 217.297798 18.540125 
z
" style="fill:#a7226e;stroke:#ffffff;stroke-width:0.48;"/>
    <path clip-path="url(#pcf72fab244)" d="M 219.818793 49.644125 
L 219.818793 53.886766 
L 224.061434 53.886766 
L 224.061434 49.644125 
z
" style="fill:#a7226e;stroke:#ffffff;stroke-width:0.48;"/>
    <path clip-path="url(#pcf72fab244)" d="M 226.58243 49.644125 
L 226.58243 53.886766 
L 230.82507 53.886766 
L 230.82507 49.644125 
z
" style="fill:#a7226e;stroke:#ffffff;stroke-width:0.48;"/>
    <path clip-path="url(#pcf72fab244)" d="M 233.346066 49.644125 
L 233.346066 53.886766 
L 237.588707 53.886766 
L 237.588707 49.644125 
z
" style="fill:#a7226e;stroke:#ffffff;stroke-width:0.48;"/>
    <path clip-path="url(#pcf72fab244)" d="M 240.109702 18.540125 
L 240.109702 22.782766 
L 244.352343 22.782766 
L 244.352343 18.540125 
z
" style="fill:#a7226e;stroke:#ffffff;stroke-width:0.48;"/>
    <path clip-path="url(#pcf72fab244)" d="M 246.873339 18.540125 
L 246.873339 22.782766 
L 251.115979 22.782766 
L 251.115979 18.540125 
z
" style="fill:#a7226e;stroke:#ffffff;stroke-width:0.48;"/>
    <path clip-path="url(#pcf72fab244)" d="M 253.636975 18.540125 
L 253.636975 22.782766 
L 257.879616 22.782766 
L 257.879616 18.540125 
z
" style="fill:#a7226e;stroke:#ffffff;stroke-width:0.48;"/>
    <path clip-path="url(#pcf72fab244)" d="M 260.400611 18.540125 
L 260.400611 22.782766 
L 264.643252 22.782766 
L 264.643252 18.540125 
z
" style="fill:#a7226e;stroke:#ffffff;stroke-width:0.48;"/>
    <path clip-path="url(#pcf72fab244)" d="M 267.164248 18.540125 
L 267.164248 22.782766 
L 271.406889 22.782766 
L 271.406889 18.540125 
z
" style="fill:#a7226e;stroke:#ffffff;stroke-width:0.48;"/>
    <path clip-path="url(#pcf72fab244)" d="M 273.927884 18.540125 
L 273.927884 22.782766 
L 278.170525 22.782766 
L 278.170525 18.540125 
z
" style="fill:#a7226e;stroke:#ffffff;stroke-width:0.48;"/>
    <path clip-path="url(#pcf72fab244)" d="M 280.691521 18.540125 
L 280.691521 22.782766 
L 284.934161 22.782766 
L 284.934161 18.540125 
z
" style="fill:#a7226e;stroke:#ffffff;stroke-width:0.48;"/>
    <path clip-path="url(#pcf72fab244)" d="M 287.455157 260.460125 
L 287.455157 264.702766 
L 291.697798 264.702766 
L 291.697798 260.460125 
z
" style="fill:#a7226e;stroke:#ffffff;stroke-width:0.48;"/>
    <path clip-path="url(#pcf72fab244)" d="M 294.218793 260.460125 
L 294.218793 264.702766 
L 298.461434 264.702766 
L 298.461434 260.460125 
z
" style="fill:#a7226e;stroke:#ffffff;stroke-width:0.48;"/>
    <path clip-path="url(#pcf72fab244)" d="M 300.98243 260.460125 
L 300.98243 264.702766 
L 305.22507 264.702766 
L 305.22507 260.460125 
z
" style="fill:#a7226e;stroke:#ffffff;stroke-width:0.48;"/>
    <path clip-path="url(#pcf72fab244)" d="M 307.746066 260.460125 
L 307.746066 264.702766 
L 311.988707 264.702766 
L 311.988707 260.460125 
z
" style="fill:#a7226e;stroke:#ffffff;stroke-width:0.48;"/>
    <path clip-path="url(#pcf72fab244)" d="M 314.509702 260.460125 
L 314.509702 264.702766 
L 318.752343 264.702766 
L 318.752343 260.460125 
z
" style="fill:#a7226e;stroke:#ffffff;stroke-width:0.48;"/>
    <path clip-path="url(#pcf72fab244)" d="M 321.273339 260.460125 
L 321.273339 264.702766 
L 325.515979 264.702766 
L 325.515979 260.460125 
z
" style="fill:#a7226e;stroke:#ffffff;stroke-width:0.48;"/>
    <path clip-path="url(#pcf72fab244)" d="M 328.036975 260.460125 
L 328.036975 264.702766 
L 332.279616 264.702766 
L 332.279616 260.460125 
z
" style="fill:#a7226e;stroke:#ffffff;stroke-width:0.48;"/>
    <path clip-path="url(#pcf72fab244)" d="M 334.800611 260.460125 
L 334.800611 264.702766 
L 339.043252 264.702766 
L 339.043252 260.460125 
z
" style="fill:#a7226e;stroke:#ffffff;stroke-width:0.48;"/>
    <path clip-path="url(#pcf72fab244)" d="M 341.564248 260.460125 
L 341.564248 264.702766 
L 345.806889 264.702766 
L 345.806889 260.460125 
z
" style="fill:#a7226e;stroke:#ffffff;stroke-width:0.48;"/>
    <path clip-path="url(#pcf72fab244)" d="M 348.327884 260.460125 
L 348.327884 264.702766 
L 352.570525 264.702766 
L 352.570525 260.460125 
z
" style="fill:#a7226e;stroke:#ffffff;stroke-width:0.48;"/>
    <path clip-path="url(#pcf72fab244)" d="M 355.091521 260.460125 
L 355.091521 264.702766 
L 359.334161 264.702766 
L 359.334161 260.460125 
z
" style="fill:#a7226e;stroke:#ffffff;stroke-width:0.48;"/>
    <path clip-path="url(#pcf72fab244)" d="M 361.855157 260.460125 
L 361.855157 264.702766 
L 366.097798 264.702766 
L 366.097798 260.460125 
z
" style="fill:#a7226e;stroke:#ffffff;stroke-width:0.48;"/>
    <path clip-path="url(#pcf72fab244)" d="M 368.618793 260.460125 
L 368.618793 264.702766 
L 372.861434 264.702766 
L 372.861434 260.460125 
z
" style="fill:#a7226e;stroke:#ffffff;stroke-width:0.48;"/>
    <path clip-path="url(#pcf72fab244)" d="M 375.38243 260.460125 
L 375.38243 264.702766 
L 379.62507 264.702766 
L 379.62507 260.460125 
z
" style="fill:#a7226e;stroke:#ffffff;stroke-width:0.48;"/>
    <path clip-path="url(#pcf72fab244)" d="M 382.146066 260.460125 
L 382.146066 264.702766 
L 386.388707 264.702766 
L 386.388707 260.460125 
z
" style="fill:#a7226e;stroke:#ffffff;stroke-width:0.48;"/>
    <path clip-path="url(#pcf72fab244)" d="M 388.909702 260.460125 
L 388.909702 264.702766 
L 393.152343 264.702766 
L 393.152343 260.460125 
z
" style="fill:#a7226e;stroke:#ffffff;stroke-width:0.48;"/>
   </g>
   <g id="PathCollection_2"/>
   <g id="PathCollection_3"/>
   <g id="PathCollection_4"/>
   <g id="matplotlib.axis_1">
    <g id="xtick_1">
     <g id="line2d_1">
      <defs>
       <path d="M 0 0 
L 0 3.5 
" id="m36b3efa44f" style="stroke:#000000;stroke-width:0.8;"/>
      </defs>
      <g>
       <use style="stroke:#000000;stroke-width:0.8;" x="59.612841" xlink:href="#m36b3efa44f" y="274.677445"/>
      </g>
     </g>
     <g id="text_1">
      <!-- 0.0 -->
      <g transform="translate(51.661278 289.275883)scale(0.1 -0.1)">
       <defs>
        <path d="M 31.78125 66.40625 
Q 24.171875 66.40625 20.328125 58.90625 
Q 16.5 51.421875 16.5 36.375 
Q 16.5 21.390625 20.328125 13.890625 
Q 24.171875 6.390625 31.78125 6.390625 
Q 39.453125 6.390625 43.28125 13.890625 
Q 47.125 21.390625 47.125 36.375 
Q 47.125 51.421875 43.28125 58.90625 
Q 39.453125 66.40625 31.78125 66.40625 
z
M 31.78125 74.21875 
Q 44.046875 74.21875 50.515625 64.515625 
Q 56.984375 54.828125 56.984375 36.375 
Q 56.984375 17.96875 50.515625 8.265625 
Q 44.046875 -1.421875 31.78125 -1.421875 
Q 19.53125 -1.421875 13.0625 8.265625 
Q 6.59375 17.96875 6.59375 36.375 
Q 6.59375 54.828125 13.0625 64.515625 
Q 19.53125 74.21875 31.78125 74.21875 
z
" id="DejaVuSans-48"/>
        <path d="M 10.6875 12.40625 
L 21 12.40625 
L 21 0 
L 10.6875 0 
z
" id="DejaVuSans-46"/>
       </defs>
       <use xlink:href="#DejaVuSans-48"/>
       <use x="63.623047" xlink:href="#DejaVuSans-46"/>
       <use x="95.410156" xlink:href="#DejaVuSans-48"/>
      </g>
     </g>
    </g>
    <g id="xtick_2">
     <g id="line2d_2">
      <g>
       <use style="stroke:#000000;stroke-width:0.8;" x="127.249205" xlink:href="#m36b3efa44f" y="274.677445"/>
      </g>
     </g>
     <g id="text_2">
      <!-- 0.2 -->
      <g transform="translate(119.297642 289.275883)scale(0.1 -0.1)">
       <defs>
        <path d="M 19.1875 8.296875 
L 53.609375 8.296875 
L 53.609375 0 
L 7.328125 0 
L 7.328125 8.296875 
Q 12.9375 14.109375 22.625 23.890625 
Q 32.328125 33.6875 34.8125 36.53125 
Q 39.546875 41.84375 41.421875 45.53125 
Q 43.3125 49.21875 43.3125 52.78125 
Q 43.3125 58.59375 39.234375 62.25 
Q 35.15625 65.921875 28.609375 65.921875 
Q 23.96875 65.921875 18.8125 64.3125 
Q 13.671875 62.703125 7.8125 59.421875 
L 7.8125 69.390625 
Q 13.765625 71.78125 18.9375 73 
Q 24.125 74.21875 28.421875 74.21875 
Q 39.75 74.21875 46.484375 68.546875 
Q 53.21875 62.890625 53.21875 53.421875 
Q 53.21875 48.921875 51.53125 44.890625 
Q 49.859375 40.875 45.40625 35.40625 
Q 44.1875 33.984375 37.640625 27.21875 
Q 31.109375 20.453125 19.1875 8.296875 
z
" id="DejaVuSans-50"/>
       </defs>
       <use xlink:href="#DejaVuSans-48"/>
       <use x="63.623047" xlink:href="#DejaVuSans-46"/>
       <use x="95.410156" xlink:href="#DejaVuSans-50"/>
      </g>
     </g>
    </g>
    <g id="xtick_3">
     <g id="line2d_3">
      <g>
       <use style="stroke:#000000;stroke-width:0.8;" x="194.885568" xlink:href="#m36b3efa44f" y="274.677445"/>
      </g>
     </g>
     <g id="text_3">
      <!-- 0.4 -->
      <g transform="translate(186.934006 289.275883)scale(0.1 -0.1)">
       <defs>
        <path d="M 37.796875 64.3125 
L 12.890625 25.390625 
L 37.796875 25.390625 
z
M 35.203125 72.90625 
L 47.609375 72.90625 
L 47.609375 25.390625 
L 58.015625 25.390625 
L 58.015625 17.1875 
L 47.609375 17.1875 
L 47.609375 0 
L 37.796875 0 
L 37.796875 17.1875 
L 4.890625 17.1875 
L 4.890625 26.703125 
z
" id="DejaVuSans-52"/>
       </defs>
       <use xlink:href="#DejaVuSans-48"/>
       <use x="63.623047" xlink:href="#DejaVuSans-46"/>
       <use x="95.410156" xlink:href="#DejaVuSans-52"/>
      </g>
     </g>
    </g>
    <g id="xtick_4">
     <g id="line2d_4">
      <g>
       <use style="stroke:#000000;stroke-width:0.8;" x="262.521932" xlink:href="#m36b3efa44f" y="274.677445"/>
      </g>
     </g>
     <g id="text_4">
      <!-- 0.6 -->
      <g transform="translate(254.570369 289.275883)scale(0.1 -0.1)">
       <defs>
        <path d="M 33.015625 40.375 
Q 26.375 40.375 22.484375 35.828125 
Q 18.609375 31.296875 18.609375 23.390625 
Q 18.609375 15.53125 22.484375 10.953125 
Q 26.375 6.390625 33.015625 6.390625 
Q 39.65625 6.390625 43.53125 10.953125 
Q 47.40625 15.53125 47.40625 23.390625 
Q 47.40625 31.296875 43.53125 35.828125 
Q 39.65625 40.375 33.015625 40.375 
z
M 52.59375 71.296875 
L 52.59375 62.3125 
Q 48.875 64.0625 45.09375 64.984375 
Q 41.3125 65.921875 37.59375 65.921875 
Q 27.828125 65.921875 22.671875 59.328125 
Q 17.53125 52.734375 16.796875 39.40625 
Q 19.671875 43.65625 24.015625 45.921875 
Q 28.375 48.1875 33.59375 48.1875 
Q 44.578125 48.1875 50.953125 41.515625 
Q 57.328125 34.859375 57.328125 23.390625 
Q 57.328125 12.15625 50.6875 5.359375 
Q 44.046875 -1.421875 33.015625 -1.421875 
Q 20.359375 -1.421875 13.671875 8.265625 
Q 6.984375 17.96875 6.984375 36.375 
Q 6.984375 53.65625 15.1875 63.9375 
Q 23.390625 74.21875 37.203125 74.21875 
Q 40.921875 74.21875 44.703125 73.484375 
Q 48.484375 72.75 52.59375 71.296875 
z
" id="DejaVuSans-54"/>
       </defs>
       <use xlink:href="#DejaVuSans-48"/>
       <use x="63.623047" xlink:href="#DejaVuSans-46"/>
       <use x="95.410156" xlink:href="#DejaVuSans-54"/>
      </g>
     </g>
    </g>
    <g id="xtick_5">
     <g id="line2d_5">
      <g>
       <use style="stroke:#000000;stroke-width:0.8;" x="330.158295" xlink:href="#m36b3efa44f" y="274.677445"/>
      </g>
     </g>
     <g id="text_5">
      <!-- 0.8 -->
      <g transform="translate(322.206733 289.275883)scale(0.1 -0.1)">
       <defs>
        <path d="M 31.78125 34.625 
Q 24.75 34.625 20.71875 30.859375 
Q 16.703125 27.09375 16.703125 20.515625 
Q 16.703125 13.921875 20.71875 10.15625 
Q 24.75 6.390625 31.78125 6.390625 
Q 38.8125 6.390625 42.859375 10.171875 
Q 46.921875 13.96875 46.921875 20.515625 
Q 46.921875 27.09375 42.890625 30.859375 
Q 38.875 34.625 31.78125 34.625 
z
M 21.921875 38.8125 
Q 15.578125 40.375 12.03125 44.71875 
Q 8.5 49.078125 8.5 55.328125 
Q 8.5 64.0625 14.71875 69.140625 
Q 20.953125 74.21875 31.78125 74.21875 
Q 42.671875 74.21875 48.875 69.140625 
Q 55.078125 64.0625 55.078125 55.328125 
Q 55.078125 49.078125 51.53125 44.71875 
Q 48 40.375 41.703125 38.8125 
Q 48.828125 37.15625 52.796875 32.3125 
Q 56.78125 27.484375 56.78125 20.515625 
Q 56.78125 9.90625 50.3125 4.234375 
Q 43.84375 -1.421875 31.78125 -1.421875 
Q 19.734375 -1.421875 13.25 4.234375 
Q 6.78125 9.90625 6.78125 20.515625 
Q 6.78125 27.484375 10.78125 32.3125 
Q 14.796875 37.15625 21.921875 38.8125 
z
M 18.3125 54.390625 
Q 18.3125 48.734375 21.84375 45.5625 
Q 25.390625 42.390625 31.78125 42.390625 
Q 38.140625 42.390625 41.71875 45.5625 
Q 45.3125 48.734375 45.3125 54.390625 
Q 45.3125 60.0625 41.71875 63.234375 
Q 38.140625 66.40625 31.78125 66.40625 
Q 25.390625 66.40625 21.84375 63.234375 
Q 18.3125 60.0625 18.3125 54.390625 
z
" id="DejaVuSans-56"/>
       </defs>
       <use xlink:href="#DejaVuSans-48"/>
       <use x="63.623047" xlink:href="#DejaVuSans-46"/>
       <use x="95.410156" xlink:href="#DejaVuSans-56"/>
      </g>
     </g>
    </g>
    <g id="xtick_6">
     <g id="line2d_6">
      <g>
       <use style="stroke:#000000;stroke-width:0.8;" x="397.794659" xlink:href="#m36b3efa44f" y="274.677445"/>
      </g>
     </g>
     <g id="text_6">
      <!-- 1.0 -->
      <g transform="translate(389.843097 289.275883)scale(0.1 -0.1)">
       <defs>
        <path d="M 12.40625 8.296875 
L 28.515625 8.296875 
L 28.515625 63.921875 
L 10.984375 60.40625 
L 10.984375 69.390625 
L 28.421875 72.90625 
L 38.28125 72.90625 
L 38.28125 8.296875 
L 54.390625 8.296875 
L 54.390625 0 
L 12.40625 0 
z
" id="DejaVuSans-49"/>
       </defs>
       <use xlink:href="#DejaVuSans-49"/>
       <use x="63.623047" xlink:href="#DejaVuSans-46"/>
       <use x="95.410156" xlink:href="#DejaVuSans-48"/>
      </g>
     </g>
    </g>
    <g id="text_7">
     <!-- cutoff -->
     <g transform="translate(214.245938 302.954008)scale(0.1 -0.1)">
      <defs>
       <path d="M 48.78125 52.59375 
L 48.78125 44.1875 
Q 44.96875 46.296875 41.140625 47.34375 
Q 37.3125 48.390625 33.40625 48.390625 
Q 24.65625 48.390625 19.8125 42.84375 
Q 14.984375 37.3125 14.984375 27.296875 
Q 14.984375 17.28125 19.8125 11.734375 
Q 24.65625 6.203125 33.40625 6.203125 
Q 37.3125 6.203125 41.140625 7.25 
Q 44.96875 8.296875 48.78125 10.40625 
L 48.78125 2.09375 
Q 45.015625 0.34375 40.984375 -0.53125 
Q 36.96875 -1.421875 32.421875 -1.421875 
Q 20.0625 -1.421875 12.78125 6.34375 
Q 5.515625 14.109375 5.515625 27.296875 
Q 5.515625 40.671875 12.859375 48.328125 
Q 20.21875 56 33.015625 56 
Q 37.15625 56 41.109375 55.140625 
Q 45.0625 54.296875 48.78125 52.59375 
z
" id="DejaVuSans-99"/>
       <path d="M 8.5 21.578125 
L 8.5 54.6875 
L 17.484375 54.6875 
L 17.484375 21.921875 
Q 17.484375 14.15625 20.5 10.265625 
Q 23.53125 6.390625 29.59375 6.390625 
Q 36.859375 6.390625 41.078125 11.03125 
Q 45.3125 15.671875 45.3125 23.6875 
L 45.3125 54.6875 
L 54.296875 54.6875 
L 54.296875 0 
L 45.3125 0 
L 45.3125 8.40625 
Q 42.046875 3.421875 37.71875 1 
Q 33.40625 -1.421875 27.6875 -1.421875 
Q 18.265625 -1.421875 13.375 4.4375 
Q 8.5 10.296875 8.5 21.578125 
z
M 31.109375 56 
z
" id="DejaVuSans-117"/>
       <path d="M 18.3125 70.21875 
L 18.3125 54.6875 
L 36.8125 54.6875 
L 36.8125 47.703125 
L 18.3125 47.703125 
L 18.3125 18.015625 
Q 18.3125 11.328125 20.140625 9.421875 
Q 21.96875 7.515625 27.59375 7.515625 
L 36.8125 7.515625 
L 36.8125 0 
L 27.59375 0 
Q 17.1875 0 13.234375 3.875 
Q 9.28125 7.765625 9.28125 18.015625 
L 9.28125 47.703125 
L 2.6875 47.703125 
L 2.6875 54.6875 
L 9.28125 54.6875 
L 9.28125 70.21875 
z
" id="DejaVuSans-116"/>
       <path d="M 30.609375 48.390625 
Q 23.390625 48.390625 19.1875 42.75 
Q 14.984375 37.109375 14.984375 27.296875 
Q 14.984375 17.484375 19.15625 11.84375 
Q 23.34375 6.203125 30.609375 6.203125 
Q 37.796875 6.203125 41.984375 11.859375 
Q 46.1875 17.53125 46.1875 27.296875 
Q 46.1875 37.015625 41.984375 42.703125 
Q 37.796875 48.390625 30.609375 48.390625 
z
M 30.609375 56 
Q 42.328125 56 49.015625 48.375 
Q 55.71875 40.765625 55.71875 27.296875 
Q 55.71875 13.875 49.015625 6.21875 
Q 42.328125 -1.421875 30.609375 -1.421875 
Q 18.84375 -1.421875 12.171875 6.21875 
Q 5.515625 13.875 5.515625 27.296875 
Q 5.515625 40.765625 12.171875 48.375 
Q 18.84375 56 30.609375 56 
z
" id="DejaVuSans-111"/>
       <path d="M 37.109375 75.984375 
L 37.109375 68.5 
L 28.515625 68.5 
Q 23.6875 68.5 21.796875 66.546875 
Q 19.921875 64.59375 19.921875 59.515625 
L 19.921875 54.6875 
L 34.71875 54.6875 
L 34.71875 47.703125 
L 19.921875 47.703125 
L 19.921875 0 
L 10.890625 0 
L 10.890625 47.703125 
L 2.296875 47.703125 
L 2.296875 54.6875 
L 10.890625 54.6875 
L 10.890625 58.5 
Q 10.890625 67.625 15.140625 71.796875 
Q 19.390625 75.984375 28.609375 75.984375 
z
" id="DejaVuSans-102"/>
      </defs>
      <use xlink:href="#DejaVuSans-99"/>
      <use x="54.980469" xlink:href="#DejaVuSans-117"/>
      <use x="118.359375" xlink:href="#DejaVuSans-116"/>
      <use x="157.568359" xlink:href="#DejaVuSans-111"/>
      <use x="218.75" xlink:href="#DejaVuSans-102"/>
      <use x="253.955078" xlink:href="#DejaVuSans-102"/>
     </g>
    </g>
   </g>
   <g id="matplotlib.axis_2">
    <g id="ytick_1">
     <g id="line2d_7">
      <defs>
       <path d="M 0 0 
L -3.5 0 
" id="m5e4e1020a9" style="stroke:#000000;stroke-width:0.8;"/>
      </defs>
      <g>
       <use style="stroke:#000000;stroke-width:0.8;" x="50.14375" xlink:href="#m5e4e1020a9" y="237.689918"/>
      </g>
     </g>
     <g id="text_8">
      <!-- 0.40 -->
      <g transform="translate(20.878125 241.489136)scale(0.1 -0.1)">
       <use xlink:href="#DejaVuSans-48"/>
       <use x="63.623047" xlink:href="#DejaVuSans-46"/>
       <use x="95.410156" xlink:href="#DejaVuSans-52"/>
       <use x="159.033203" xlink:href="#DejaVuSans-48"/>
      </g>
     </g>
    </g>
    <g id="ytick_2">
     <g id="line2d_8">
      <g>
       <use style="stroke:#000000;stroke-width:0.8;" x="50.14375" xlink:href="#m5e4e1020a9" y="192.351778"/>
      </g>
     </g>
     <g id="text_9">
      <!-- 0.45 -->
      <g transform="translate(20.878125 196.150997)scale(0.1 -0.1)">
       <defs>
        <path d="M 10.796875 72.90625 
L 49.515625 72.90625 
L 49.515625 64.59375 
L 19.828125 64.59375 
L 19.828125 46.734375 
Q 21.96875 47.46875 24.109375 47.828125 
Q 26.265625 48.1875 28.421875 48.1875 
Q 40.625 48.1875 47.75 41.5 
Q 54.890625 34.8125 54.890625 23.390625 
Q 54.890625 11.625 47.5625 5.09375 
Q 40.234375 -1.421875 26.90625 -1.421875 
Q 22.3125 -1.421875 17.546875 -0.640625 
Q 12.796875 0.140625 7.71875 1.703125 
L 7.71875 11.625 
Q 12.109375 9.234375 16.796875 8.0625 
Q 21.484375 6.890625 26.703125 6.890625 
Q 35.15625 6.890625 40.078125 11.328125 
Q 45.015625 15.765625 45.015625 23.390625 
Q 45.015625 31 40.078125 35.4375 
Q 35.15625 39.890625 26.703125 39.890625 
Q 22.75 39.890625 18.8125 39.015625 
Q 14.890625 38.140625 10.796875 36.28125 
z
" id="DejaVuSans-53"/>
       </defs>
       <use xlink:href="#DejaVuSans-48"/>
       <use x="63.623047" xlink:href="#DejaVuSans-46"/>
       <use x="95.410156" xlink:href="#DejaVuSans-52"/>
       <use x="159.033203" xlink:href="#DejaVuSans-53"/>
      </g>
     </g>
    </g>
    <g id="ytick_3">
     <g id="line2d_9">
      <g>
       <use style="stroke:#000000;stroke-width:0.8;" x="50.14375" xlink:href="#m5e4e1020a9" y="147.013638"/>
      </g>
     </g>
     <g id="text_10">
      <!-- 0.50 -->
      <g transform="translate(20.878125 150.812857)scale(0.1 -0.1)">
       <use xlink:href="#DejaVuSans-48"/>
       <use x="63.623047" xlink:href="#DejaVuSans-46"/>
       <use x="95.410156" xlink:href="#DejaVuSans-53"/>
       <use x="159.033203" xlink:href="#DejaVuSans-48"/>
      </g>
     </g>
    </g>
    <g id="ytick_4">
     <g id="line2d_10">
      <g>
       <use style="stroke:#000000;stroke-width:0.8;" x="50.14375" xlink:href="#m5e4e1020a9" y="101.675498"/>
      </g>
     </g>
     <g id="text_11">
      <!-- 0.55 -->
      <g transform="translate(20.878125 105.474717)scale(0.1 -0.1)">
       <use xlink:href="#DejaVuSans-48"/>
       <use x="63.623047" xlink:href="#DejaVuSans-46"/>
       <use x="95.410156" xlink:href="#DejaVuSans-53"/>
       <use x="159.033203" xlink:href="#DejaVuSans-53"/>
      </g>
     </g>
    </g>
    <g id="ytick_5">
     <g id="line2d_11">
      <g>
       <use style="stroke:#000000;stroke-width:0.8;" x="50.14375" xlink:href="#m5e4e1020a9" y="56.337359"/>
      </g>
     </g>
     <g id="text_12">
      <!-- 0.60 -->
      <g transform="translate(20.878125 60.136577)scale(0.1 -0.1)">
       <use xlink:href="#DejaVuSans-48"/>
       <use x="63.623047" xlink:href="#DejaVuSans-46"/>
       <use x="95.410156" xlink:href="#DejaVuSans-54"/>
       <use x="159.033203" xlink:href="#DejaVuSans-48"/>
      </g>
     </g>
    </g>
    <g id="ytick_6">
     <g id="line2d_12">
      <g>
       <use style="stroke:#000000;stroke-width:0.8;" x="50.14375" xlink:href="#m5e4e1020a9" y="10.999219"/>
      </g>
     </g>
     <g id="text_13">
      <!-- 0.65 -->
      <g transform="translate(20.878125 14.798437)scale(0.1 -0.1)">
       <use xlink:href="#DejaVuSans-48"/>
       <use x="63.623047" xlink:href="#DejaVuSans-46"/>
       <use x="95.410156" xlink:href="#DejaVuSans-54"/>
       <use x="159.033203" xlink:href="#DejaVuSans-53"/>
      </g>
     </g>
    </g>
    <g id="text_14">
     <!-- performance -->
     <g transform="translate(14.798438 173.644102)rotate(-90)scale(0.1 -0.1)">
      <defs>
       <path d="M 18.109375 8.203125 
L 18.109375 -20.796875 
L 9.078125 -20.796875 
L 9.078125 54.6875 
L 18.109375 54.6875 
L 18.109375 46.390625 
Q 20.953125 51.265625 25.265625 53.625 
Q 29.59375 56 35.59375 56 
Q 45.5625 56 51.78125 48.09375 
Q 58.015625 40.1875 58.015625 27.296875 
Q 58.015625 14.40625 51.78125 6.484375 
Q 45.5625 -1.421875 35.59375 -1.421875 
Q 29.59375 -1.421875 25.265625 0.953125 
Q 20.953125 3.328125 18.109375 8.203125 
z
M 48.6875 27.296875 
Q 48.6875 37.203125 44.609375 42.84375 
Q 40.53125 48.484375 33.40625 48.484375 
Q 26.265625 48.484375 22.1875 42.84375 
Q 18.109375 37.203125 18.109375 27.296875 
Q 18.109375 17.390625 22.1875 11.75 
Q 26.265625 6.109375 33.40625 6.109375 
Q 40.53125 6.109375 44.609375 11.75 
Q 48.6875 17.390625 48.6875 27.296875 
z
" id="DejaVuSans-112"/>
       <path d="M 56.203125 29.59375 
L 56.203125 25.203125 
L 14.890625 25.203125 
Q 15.484375 15.921875 20.484375 11.0625 
Q 25.484375 6.203125 34.421875 6.203125 
Q 39.59375 6.203125 44.453125 7.46875 
Q 49.3125 8.734375 54.109375 11.28125 
L 54.109375 2.78125 
Q 49.265625 0.734375 44.1875 -0.34375 
Q 39.109375 -1.421875 33.890625 -1.421875 
Q 20.796875 -1.421875 13.15625 6.1875 
Q 5.515625 13.8125 5.515625 26.8125 
Q 5.515625 40.234375 12.765625 48.109375 
Q 20.015625 56 32.328125 56 
Q 43.359375 56 49.78125 48.890625 
Q 56.203125 41.796875 56.203125 29.59375 
z
M 47.21875 32.234375 
Q 47.125 39.59375 43.09375 43.984375 
Q 39.0625 48.390625 32.421875 48.390625 
Q 24.90625 48.390625 20.390625 44.140625 
Q 15.875 39.890625 15.1875 32.171875 
z
" id="DejaVuSans-101"/>
       <path d="M 41.109375 46.296875 
Q 39.59375 47.171875 37.8125 47.578125 
Q 36.03125 48 33.890625 48 
Q 26.265625 48 22.1875 43.046875 
Q 18.109375 38.09375 18.109375 28.8125 
L 18.109375 0 
L 9.078125 0 
L 9.078125 54.6875 
L 18.109375 54.6875 
L 18.109375 46.1875 
Q 20.953125 51.171875 25.484375 53.578125 
Q 30.03125 56 36.53125 56 
Q 37.453125 56 38.578125 55.875 
Q 39.703125 55.765625 41.0625 55.515625 
z
" id="DejaVuSans-114"/>
       <path d="M 52 44.1875 
Q 55.375 50.25 60.0625 53.125 
Q 64.75 56 71.09375 56 
Q 79.640625 56 84.28125 50.015625 
Q 88.921875 44.046875 88.921875 33.015625 
L 88.921875 0 
L 79.890625 0 
L 79.890625 32.71875 
Q 79.890625 40.578125 77.09375 44.375 
Q 74.3125 48.1875 68.609375 48.1875 
Q 61.625 48.1875 57.5625 43.546875 
Q 53.515625 38.921875 53.515625 30.90625 
L 53.515625 0 
L 44.484375 0 
L 44.484375 32.71875 
Q 44.484375 40.625 41.703125 44.40625 
Q 38.921875 48.1875 33.109375 48.1875 
Q 26.21875 48.1875 22.15625 43.53125 
Q 18.109375 38.875 18.109375 30.90625 
L 18.109375 0 
L 9.078125 0 
L 9.078125 54.6875 
L 18.109375 54.6875 
L 18.109375 46.1875 
Q 21.1875 51.21875 25.484375 53.609375 
Q 29.78125 56 35.6875 56 
Q 41.65625 56 45.828125 52.96875 
Q 50 49.953125 52 44.1875 
z
" id="DejaVuSans-109"/>
       <path d="M 34.28125 27.484375 
Q 23.390625 27.484375 19.1875 25 
Q 14.984375 22.515625 14.984375 16.5 
Q 14.984375 11.71875 18.140625 8.90625 
Q 21.296875 6.109375 26.703125 6.109375 
Q 34.1875 6.109375 38.703125 11.40625 
Q 43.21875 16.703125 43.21875 25.484375 
L 43.21875 27.484375 
z
M 52.203125 31.203125 
L 52.203125 0 
L 43.21875 0 
L 43.21875 8.296875 
Q 40.140625 3.328125 35.546875 0.953125 
Q 30.953125 -1.421875 24.3125 -1.421875 
Q 15.921875 -1.421875 10.953125 3.296875 
Q 6 8.015625 6 15.921875 
Q 6 25.140625 12.171875 29.828125 
Q 18.359375 34.515625 30.609375 34.515625 
L 43.21875 34.515625 
L 43.21875 35.40625 
Q 43.21875 41.609375 39.140625 45 
Q 35.0625 48.390625 27.6875 48.390625 
Q 23 48.390625 18.546875 47.265625 
Q 14.109375 46.140625 10.015625 43.890625 
L 10.015625 52.203125 
Q 14.9375 54.109375 19.578125 55.046875 
Q 24.21875 56 28.609375 56 
Q 40.484375 56 46.34375 49.84375 
Q 52.203125 43.703125 52.203125 31.203125 
z
" id="DejaVuSans-97"/>
       <path d="M 54.890625 33.015625 
L 54.890625 0 
L 45.90625 0 
L 45.90625 32.71875 
Q 45.90625 40.484375 42.875 44.328125 
Q 39.84375 48.1875 33.796875 48.1875 
Q 26.515625 48.1875 22.3125 43.546875 
Q 18.109375 38.921875 18.109375 30.90625 
L 18.109375 0 
L 9.078125 0 
L 9.078125 54.6875 
L 18.109375 54.6875 
L 18.109375 46.1875 
Q 21.34375 51.125 25.703125 53.5625 
Q 30.078125 56 35.796875 56 
Q 45.21875 56 50.046875 50.171875 
Q 54.890625 44.34375 54.890625 33.015625 
z
" id="DejaVuSans-110"/>
      </defs>
      <use xlink:href="#DejaVuSans-112"/>
      <use x="63.476562" xlink:href="#DejaVuSans-101"/>
      <use x="125" xlink:href="#DejaVuSans-114"/>
      <use x="166.113281" xlink:href="#DejaVuSans-102"/>
      <use x="201.318359" xlink:href="#DejaVuSans-111"/>
      <use x="262.5" xlink:href="#DejaVuSans-114"/>
      <use x="301.863281" xlink:href="#DejaVuSans-109"/>
      <use x="399.275391" xlink:href="#DejaVuSans-97"/>
      <use x="460.554688" xlink:href="#DejaVuSans-110"/>
      <use x="523.933594" xlink:href="#DejaVuSans-99"/>
      <use x="578.914062" xlink:href="#DejaVuSans-101"/>
     </g>
    </g>
   </g>
   <g id="line2d_13">
    <path clip-path="url(#pcf72fab244)" d="M 66.376477 84.478273 
L 73.140114 107.24334 
L 79.90375 107.24334 
L 86.667386 107.24334 
L 93.431023 107.24334 
L 100.194659 130.821445 
L 106.958295 51.765445 
L 113.721932 41.224645 
L 120.485568 41.224645 
L 127.249205 62.484903 
L 134.012841 73.387599 
L 140.776477 107.24334 
L 147.540114 155.256936 
L 154.30375 155.256936 
L 161.067386 84.478273 
L 167.831023 84.478273 
L 174.594659 84.478273 
L 181.358295 84.478273 
L 188.121932 84.478273 
L 194.885568 84.478273 
L 201.649205 84.478273 
L 208.412841 84.478273 
L 215.176477 84.478273 
L 221.940114 84.478273 
L 228.70375 118.928065 
L 235.467386 155.256936 
L 242.231023 155.256936 
L 248.994659 155.256936 
L 255.758295 155.256936 
L 262.521932 155.256936 
L 269.285568 155.256936 
L 276.049205 155.256936 
L 282.812841 155.256936 
L 289.576477 155.256936 
L 296.340114 155.256936 
L 303.10375 155.256936 
L 309.867386 155.256936 
L 316.631023 155.256936 
L 323.394659 155.256936 
L 330.158295 155.256936 
L 336.921932 155.256936 
L 343.685568 155.256936 
L 350.449205 155.256936 
L 357.212841 155.256936 
L 363.976477 155.256936 
L 370.740114 155.256936 
L 377.50375 155.256936 
L 384.267386 155.256936 
L 391.031023 155.256936 
" style="fill:none;stroke:#f26b38;stroke-dasharray:7.4,3.2;stroke-dashoffset:0;stroke-width:2;"/>
   </g>
   <g id="line2d_14">
    <path clip-path="url(#pcf72fab244)" d="M 66.376477 130.821445 
L 73.140114 95.761828 
L 79.90375 95.761828 
L 86.667386 95.761828 
L 93.431023 142.929121 
L 100.194659 142.929121 
L 106.958295 142.929121 
L 113.721932 142.929121 
L 120.485568 142.929121 
L 127.249205 142.929121 
L 134.012841 142.929121 
L 140.776477 142.929121 
L 147.540114 142.929121 
L 154.30375 142.929121 
L 161.067386 142.929121 
L 167.831023 142.929121 
L 174.594659 107.24334 
L 181.358295 107.24334 
L 188.121932 107.24334 
L 194.885568 107.24334 
L 201.649205 107.24334 
L 208.412841 107.24334 
L 215.176477 107.24334 
L 221.940114 107.24334 
L 228.70375 107.24334 
L 235.467386 107.24334 
L 242.231023 107.24334 
L 248.994659 107.24334 
L 255.758295 107.24334 
L 262.521932 107.24334 
L 269.285568 107.24334 
L 276.049205 107.24334 
L 282.812841 107.24334 
L 289.576477 107.24334 
L 296.340114 107.24334 
L 303.10375 107.24334 
L 309.867386 107.24334 
L 316.631023 107.24334 
L 323.394659 107.24334 
L 330.158295 107.24334 
L 336.921932 107.24334 
L 343.685568 107.24334 
L 350.449205 107.24334 
L 357.212841 107.24334 
L 363.976477 107.24334 
L 370.740114 107.24334 
L 377.50375 107.24334 
L 384.267386 107.24334 
L 391.031023 107.24334 
" style="fill:none;stroke:#2f9599;stroke-dasharray:2,3.3;stroke-dashoffset:0;stroke-width:2;"/>
   </g>
   <g id="line2d_15">
    <path clip-path="url(#pcf72fab244)" d="M 66.376477 118.928065 
L 73.140114 118.928065 
L 79.90375 118.928065 
L 86.667386 118.928065 
L 93.431023 118.928065 
L 100.194659 130.821445 
L 106.958295 130.821445 
L 113.721932 130.821445 
L 120.485568 142.929121 
L 127.249205 142.929121 
L 134.012841 155.256936 
L 140.776477 130.821445 
L 147.540114 130.821445 
L 154.30375 130.821445 
L 161.067386 118.928065 
L 167.831023 130.821445 
L 174.594659 118.928065 
L 181.358295 118.928065 
L 188.121932 41.224645 
L 194.885568 30.858073 
L 201.649205 30.858073 
L 208.412841 30.858073 
L 215.176477 20.661445 
L 221.940114 51.765445 
L 228.70375 51.765445 
L 235.467386 51.765445 
L 242.231023 20.661445 
L 248.994659 20.661445 
L 255.758295 20.661445 
L 262.521932 20.661445 
L 269.285568 20.661445 
L 276.049205 20.661445 
L 282.812841 20.661445 
L 289.576477 262.581445 
L 296.340114 262.581445 
L 303.10375 262.581445 
L 309.867386 262.581445 
L 316.631023 262.581445 
L 323.394659 262.581445 
L 330.158295 262.581445 
L 336.921932 262.581445 
L 343.685568 262.581445 
L 350.449205 262.581445 
L 357.212841 262.581445 
L 363.976477 262.581445 
L 370.740114 262.581445 
L 377.50375 262.581445 
L 384.267386 262.581445 
L 391.031023 262.581445 
" style="fill:none;stroke:#a7226e;stroke-dasharray:12.8,3.2,2,3.2;stroke-dashoffset:0;stroke-width:2;"/>
   </g>
   <g id="patch_3">
    <path d="M 50.14375 274.677445 
L 50.14375 8.565445 
" style="fill:none;stroke:#000000;stroke-linecap:square;stroke-linejoin:miter;stroke-width:0.8;"/>
   </g>
   <g id="patch_4">
    <path d="M 407.26375 274.677445 
L 407.26375 8.565445 
" style="fill:none;stroke:#000000;stroke-linecap:square;stroke-linejoin:miter;stroke-width:0.8;"/>
   </g>
   <g id="patch_5">
    <path d="M 50.14375 274.677445 
L 407.26375 274.677445 
" style="fill:none;stroke:#000000;stroke-linecap:square;stroke-linejoin:miter;stroke-width:0.8;"/>
   </g>
   <g id="patch_6">
    <path d="M 50.14375 8.565445 
L 407.26375 8.565445 
" style="fill:none;stroke:#000000;stroke-linecap:square;stroke-linejoin:miter;stroke-width:0.8;"/>
   </g>
   <g id="legend_1">
    <g id="patch_7">
     <path d="M 321.790059 45.256358 
L 402.40575 45.256358 
Q 403.79375 45.256358 403.79375 43.868358 
L 403.79375 13.423445 
Q 403.79375 12.035445 402.40575 12.035445 
L 321.790059 12.035445 
Q 320.402059 12.035445 320.402059 13.423445 
L 320.402059 43.868358 
Q 320.402059 45.256358 321.790059 45.256358 
z
" style="fill:#ffffff;opacity:0.8;stroke:#cccccc;stroke-linejoin:miter;"/>
    </g>
    <g id="PathCollection_5">
     <defs>
      <path d="M 0 3 
C 0.795609 3 1.55874 2.683901 2.12132 2.12132 
C 2.683901 1.55874 3 0.795609 3 0 
C 3 -0.795609 2.683901 -1.55874 2.12132 -2.12132 
C 1.55874 -2.683901 0.795609 -3 0 -3 
C -0.795609 -3 -1.55874 -2.683901 -2.12132 -2.12132 
C -2.683901 -1.55874 -3 -0.795609 -3 0 
C -3 0.795609 -2.683901 1.55874 -2.12132 2.12132 
C -1.55874 2.683901 -0.795609 3 0 3 
z
" id="m1256ea6798" style="stroke:#f26b38;"/>
     </defs>
     <g>
      <use style="fill:#f26b38;stroke:#f26b38;" x="330.118059" xlink:href="#m1256ea6798" y="18.263011"/>
     </g>
    </g>
    <g id="text_15">
     <!-- mean_err -->
     <g transform="translate(342.610059 20.084761)scale(0.0694 -0.0694)">
      <defs>
       <path d="M 50.984375 -16.609375 
L 50.984375 -23.578125 
L -0.984375 -23.578125 
L -0.984375 -16.609375 
z
" id="DejaVuSans-95"/>
      </defs>
      <use xlink:href="#DejaVuSans-109"/>
      <use x="97.412109" xlink:href="#DejaVuSans-101"/>
      <use x="158.935547" xlink:href="#DejaVuSans-97"/>
      <use x="220.214844" xlink:href="#DejaVuSans-110"/>
      <use x="283.59375" xlink:href="#DejaVuSans-95"/>
      <use x="333.59375" xlink:href="#DejaVuSans-101"/>
      <use x="395.117188" xlink:href="#DejaVuSans-114"/>
      <use x="434.480469" xlink:href="#DejaVuSans-114"/>
     </g>
    </g>
    <g id="PathCollection_6">
     <defs>
      <path d="M -1.5 3 
L 0 1.5 
L 1.5 3 
L 3 1.5 
L 1.5 0 
L 3 -1.5 
L 1.5 -3 
L 0 -1.5 
L -1.5 -3 
L -3 -1.5 
L -1.5 0 
L -3 1.5 
z
" id="m6a91acc75a" style="stroke:#2f9599;"/>
     </defs>
     <g>
      <use style="fill:#2f9599;stroke:#2f9599;" x="330.118059" xlink:href="#m6a91acc75a" y="28.642648"/>
     </g>
    </g>
    <g id="text_16">
     <!-- mean_sq_err -->
     <g transform="translate(342.610059 30.464398)scale(0.0694 -0.0694)">
      <defs>
       <path d="M 44.28125 53.078125 
L 44.28125 44.578125 
Q 40.484375 46.53125 36.375 47.5 
Q 32.28125 48.484375 27.875 48.484375 
Q 21.1875 48.484375 17.84375 46.4375 
Q 14.5 44.390625 14.5 40.28125 
Q 14.5 37.15625 16.890625 35.375 
Q 19.28125 33.59375 26.515625 31.984375 
L 29.59375 31.296875 
Q 39.15625 29.25 43.1875 25.515625 
Q 47.21875 21.78125 47.21875 15.09375 
Q 47.21875 7.46875 41.1875 3.015625 
Q 35.15625 -1.421875 24.609375 -1.421875 
Q 20.21875 -1.421875 15.453125 -0.5625 
Q 10.6875 0.296875 5.421875 2 
L 5.421875 11.28125 
Q 10.40625 8.6875 15.234375 7.390625 
Q 20.0625 6.109375 24.8125 6.109375 
Q 31.15625 6.109375 34.5625 8.28125 
Q 37.984375 10.453125 37.984375 14.40625 
Q 37.984375 18.0625 35.515625 20.015625 
Q 33.0625 21.96875 24.703125 23.78125 
L 21.578125 24.515625 
Q 13.234375 26.265625 9.515625 29.90625 
Q 5.8125 33.546875 5.8125 39.890625 
Q 5.8125 47.609375 11.28125 51.796875 
Q 16.75 56 26.8125 56 
Q 31.78125 56 36.171875 55.265625 
Q 40.578125 54.546875 44.28125 53.078125 
z
" id="DejaVuSans-115"/>
       <path d="M 14.796875 27.296875 
Q 14.796875 17.390625 18.875 11.75 
Q 22.953125 6.109375 30.078125 6.109375 
Q 37.203125 6.109375 41.296875 11.75 
Q 45.40625 17.390625 45.40625 27.296875 
Q 45.40625 37.203125 41.296875 42.84375 
Q 37.203125 48.484375 30.078125 48.484375 
Q 22.953125 48.484375 18.875 42.84375 
Q 14.796875 37.203125 14.796875 27.296875 
z
M 45.40625 8.203125 
Q 42.578125 3.328125 38.25 0.953125 
Q 33.9375 -1.421875 27.875 -1.421875 
Q 17.96875 -1.421875 11.734375 6.484375 
Q 5.515625 14.40625 5.515625 27.296875 
Q 5.515625 40.1875 11.734375 48.09375 
Q 17.96875 56 27.875 56 
Q 33.9375 56 38.25 53.625 
Q 42.578125 51.265625 45.40625 46.390625 
L 45.40625 54.6875 
L 54.390625 54.6875 
L 54.390625 -20.796875 
L 45.40625 -20.796875 
z
" id="DejaVuSans-113"/>
      </defs>
      <use xlink:href="#DejaVuSans-109"/>
      <use x="97.412109" xlink:href="#DejaVuSans-101"/>
      <use x="158.935547" xlink:href="#DejaVuSans-97"/>
      <use x="220.214844" xlink:href="#DejaVuSans-110"/>
      <use x="283.59375" xlink:href="#DejaVuSans-95"/>
      <use x="333.59375" xlink:href="#DejaVuSans-115"/>
      <use x="385.693359" xlink:href="#DejaVuSans-113"/>
      <use x="449.169922" xlink:href="#DejaVuSans-95"/>
      <use x="499.169922" xlink:href="#DejaVuSans-101"/>
      <use x="560.693359" xlink:href="#DejaVuSans-114"/>
      <use x="600.056641" xlink:href="#DejaVuSans-114"/>
     </g>
    </g>
    <g id="PathCollection_7">
     <defs>
      <path d="M -2.12132 -2.12132 
L -2.12132 2.12132 
L 2.12132 2.12132 
L 2.12132 -2.12132 
z
" id="mf216117bb4" style="stroke:#a7226e;"/>
     </defs>
     <g>
      <use style="fill:#a7226e;stroke:#a7226e;" x="330.118059" xlink:href="#mf216117bb4" y="39.022286"/>
     </g>
    </g>
    <g id="text_17">
     <!-- mean_sqroot_err -->
     <g transform="translate(342.610059 40.844036)scale(0.0694 -0.0694)">
      <use xlink:href="#DejaVuSans-109"/>
      <use x="97.412109" xlink:href="#DejaVuSans-101"/>
      <use x="158.935547" xlink:href="#DejaVuSans-97"/>
      <use x="220.214844" xlink:href="#DejaVuSans-110"/>
      <use x="283.59375" xlink:href="#DejaVuSans-95"/>
      <use x="333.59375" xlink:href="#DejaVuSans-115"/>
      <use x="385.693359" xlink:href="#DejaVuSans-113"/>
      <use x="449.169922" xlink:href="#DejaVuSans-114"/>
      <use x="488.033203" xlink:href="#DejaVuSans-111"/>
      <use x="549.214844" xlink:href="#DejaVuSans-111"/>
      <use x="610.396484" xlink:href="#DejaVuSans-116"/>
      <use x="649.605469" xlink:href="#DejaVuSans-95"/>
      <use x="699.605469" xlink:href="#DejaVuSans-101"/>
      <use x="761.128906" xlink:href="#DejaVuSans-114"/>
      <use x="800.492188" xlink:href="#DejaVuSans-114"/>
     </g>
    </g>
   </g>
  </g>
 </g>
 <defs>
  <clipPath id="pcf72fab244">
   <rect height="266.112" width="357.12" x="50.14375" y="8.565445"/>
  </clipPath>
 </defs>
</svg>
