<?xml version="1.0" encoding="utf-8" standalone="no"?>
<!DOCTYPE svg PUBLIC "-//W3C//DTD SVG 1.1//EN"
  "http://www.w3.org/Graphics/SVG/1.1/DTD/svg11.dtd">
<!-- Created with matplotlib (https://matplotlib.org/) -->
<svg height="310.86825pt" version="1.1" viewBox="0 0 408.10125 310.86825" width="408.10125pt" xmlns="http://www.w3.org/2000/svg" xmlns:xlink="http://www.w3.org/1999/xlink">
 <metadata>
  <rdf:RDF xmlns:cc="http://creativecommons.org/ns#" xmlns:dc="http://purl.org/dc/elements/1.1/" xmlns:rdf="http://www.w3.org/1999/02/22-rdf-syntax-ns#">
   <cc:Work>
    <dc:type rdf:resource="http://purl.org/dc/dcmitype/StillImage"/>
    <dc:date>2022-05-27T21:58:53.931738</dc:date>
    <dc:format>image/svg+xml</dc:format>
    <dc:creator>
     <cc:Agent>
      <dc:title>Matplotlib v3.3.4, https://matplotlib.org/</dc:title>
     </cc:Agent>
    </dc:creator>
   </cc:Work>
  </rdf:RDF>
 </metadata>
 <defs>
  <style type="text/css">*{stroke-linecap:butt;stroke-linejoin:round;}</style>
 </defs>
 <g id="figure_1">
  <g id="patch_1">
   <path d="M 0 310.86825 
L 408.10125 310.86825 
L 408.10125 0 
L 0 0 
z
" style="fill:#ffffff;"/>
  </g>
  <g id="axes_1">
   <g id="patch_2">
    <path d="M 43.78125 273.312 
L 400.90125 273.312 
L 400.90125 7.2 
L 43.78125 7.2 
z
" style="fill:#ffffff;"/>
   </g>
   <g id="PathCollection_1">
    <path clip-path="url(#pd3465d9753)" d="M 60.013977 22.296 
C 60.809587 22.296 61.572717 21.979901 62.135298 21.41732 
C 62.697878 20.85474 63.013977 20.091609 63.013977 19.296 
C 63.013977 18.500391 62.697878 17.73726 62.135298 17.17468 
C 61.572717 16.612099 60.809587 16.296 60.013977 16.296 
C 59.218368 16.296 58.455238 16.612099 57.892657 17.17468 
C 57.330076 17.73726 57.013977 18.500391 57.013977 19.296 
C 57.013977 20.091609 57.330076 20.85474 57.892657 21.41732 
C 58.455238 21.979901 59.218368 22.296 60.013977 22.296 
z
" style="fill:#f26b38;stroke:#ffffff;stroke-width:0.48;"/>
    <path clip-path="url(#pd3465d9753)" d="M 66.777614 27.056 
C 67.573223 27.056 68.336353 26.739901 68.898934 26.17732 
C 69.461515 25.61474 69.777614 24.851609 69.777614 24.056 
C 69.777614 23.260391 69.461515 22.49726 68.898934 21.93468 
C 68.336353 21.372099 67.573223 21.056 66.777614 21.056 
C 65.982004 21.056 65.218874 21.372099 64.656293 21.93468 
C 64.093713 22.49726 63.777614 23.260391 63.777614 24.056 
C 63.777614 24.851609 64.093713 25.61474 64.656293 26.17732 
C 65.218874 26.739901 65.982004 27.056 66.777614 27.056 
z
" style="fill:#f26b38;stroke:#ffffff;stroke-width:0.48;"/>
    <path clip-path="url(#pd3465d9753)" d="M 73.54125 27.056 
C 74.336859 27.056 75.09999 26.739901 75.66257 26.17732 
C 76.225151 25.61474 76.54125 24.851609 76.54125 24.056 
C 76.54125 23.260391 76.225151 22.49726 75.66257 21.93468 
C 75.09999 21.372099 74.336859 21.056 73.54125 21.056 
C 72.745641 21.056 71.98251 21.372099 71.41993 21.93468 
C 70.857349 22.49726 70.54125 23.260391 70.54125 24.056 
C 70.54125 24.851609 70.857349 25.61474 71.41993 26.17732 
C 71.98251 26.739901 72.745641 27.056 73.54125 27.056 
z
" style="fill:#f26b38;stroke:#ffffff;stroke-width:0.48;"/>
    <path clip-path="url(#pd3465d9753)" d="M 80.304886 27.056 
C 81.100496 27.056 81.863626 26.739901 82.426207 26.17732 
C 82.988787 25.61474 83.304886 24.851609 83.304886 24.056 
C 83.304886 23.260391 82.988787 22.49726 82.426207 21.93468 
C 81.863626 21.372099 81.100496 21.056 80.304886 21.056 
C 79.509277 21.056 78.746147 21.372099 78.183566 21.93468 
C 77.620985 22.49726 77.304886 23.260391 77.304886 24.056 
C 77.304886 24.851609 77.620985 25.61474 78.183566 26.17732 
C 78.746147 26.739901 79.509277 27.056 80.304886 27.056 
z
" style="fill:#f26b38;stroke:#ffffff;stroke-width:0.48;"/>
    <path clip-path="url(#pd3465d9753)" d="M 87.068523 22.296 
C 87.864132 22.296 88.627262 21.979901 89.189843 21.41732 
C 89.752424 20.85474 90.068523 20.091609 90.068523 19.296 
C 90.068523 18.500391 89.752424 17.73726 89.189843 17.17468 
C 88.627262 16.612099 87.864132 16.296 87.068523 16.296 
C 86.272913 16.296 85.509783 16.612099 84.947202 17.17468 
C 84.384622 17.73726 84.068523 18.500391 84.068523 19.296 
C 84.068523 20.091609 84.384622 20.85474 84.947202 21.41732 
C 85.509783 21.979901 86.272913 22.296 87.068523 22.296 
z
" style="fill:#f26b38;stroke:#ffffff;stroke-width:0.48;"/>
    <path clip-path="url(#pd3465d9753)" d="M 93.832159 27.056 
C 94.627768 27.056 95.390899 26.739901 95.953479 26.17732 
C 96.51606 25.61474 96.832159 24.851609 96.832159 24.056 
C 96.832159 23.260391 96.51606 22.49726 95.953479 21.93468 
C 95.390899 21.372099 94.627768 21.056 93.832159 21.056 
C 93.03655 21.056 92.273419 21.372099 91.710839 21.93468 
C 91.148258 22.49726 90.832159 23.260391 90.832159 24.056 
C 90.832159 24.851609 91.148258 25.61474 91.710839 26.17732 
C 92.273419 26.739901 93.03655 27.056 93.832159 27.056 
z
" style="fill:#f26b38;stroke:#ffffff;stroke-width:0.48;"/>
    <path clip-path="url(#pd3465d9753)" d="M 100.595795 31.896 
C 101.391405 31.896 102.154535 31.579901 102.717116 31.01732 
C 103.279697 30.45474 103.595795 29.691609 103.595795 28.896 
C 103.595795 28.100391 103.279697 27.33726 102.717116 26.77468 
C 102.154535 26.212099 101.391405 25.896 100.595795 25.896 
C 99.800186 25.896 99.037056 26.212099 98.474475 26.77468 
C 97.911894 27.33726 97.595795 28.100391 97.595795 28.896 
C 97.595795 29.691609 97.911894 30.45474 98.474475 31.01732 
C 99.037056 31.579901 99.800186 31.896 100.595795 31.896 
z
" style="fill:#f26b38;stroke:#ffffff;stroke-width:0.48;"/>
    <path clip-path="url(#pd3465d9753)" d="M 107.359432 31.896 
C 108.155041 31.896 108.918171 31.579901 109.480752 31.01732 
C 110.043333 30.45474 110.359432 29.691609 110.359432 28.896 
C 110.359432 28.100391 110.043333 27.33726 109.480752 26.77468 
C 108.918171 26.212099 108.155041 25.896 107.359432 25.896 
C 106.563823 25.896 105.800692 26.212099 105.238111 26.77468 
C 104.675531 27.33726 104.359432 28.100391 104.359432 28.896 
C 104.359432 29.691609 104.675531 30.45474 105.238111 31.01732 
C 105.800692 31.579901 106.563823 31.896 107.359432 31.896 
z
" style="fill:#f26b38;stroke:#ffffff;stroke-width:0.48;"/>
    <path clip-path="url(#pd3465d9753)" d="M 114.123068 31.896 
C 114.918677 31.896 115.681808 31.579901 116.244389 31.01732 
C 116.806969 30.45474 117.123068 29.691609 117.123068 28.896 
C 117.123068 28.100391 116.806969 27.33726 116.244389 26.77468 
C 115.681808 26.212099 114.918677 25.896 114.123068 25.896 
C 113.327459 25.896 112.564329 26.212099 112.001748 26.77468 
C 111.439167 27.33726 111.123068 28.100391 111.123068 28.896 
C 111.123068 29.691609 111.439167 30.45474 112.001748 31.01732 
C 112.564329 31.579901 113.327459 31.896 114.123068 31.896 
z
" style="fill:#f26b38;stroke:#ffffff;stroke-width:0.48;"/>
    <path clip-path="url(#pd3465d9753)" d="M 120.886705 36.818034 
C 121.682314 36.818034 122.445444 36.501935 123.008025 35.939354 
C 123.570606 35.376774 123.886705 34.613643 123.886705 33.818034 
C 123.886705 33.022425 123.570606 32.259294 123.008025 31.696714 
C 122.445444 31.134133 121.682314 30.818034 120.886705 30.818034 
C 120.091095 30.818034 119.327965 31.134133 118.765384 31.696714 
C 118.202803 32.259294 117.886705 33.022425 117.886705 33.818034 
C 117.886705 34.613643 118.202803 35.376774 118.765384 35.939354 
C 119.327965 36.501935 120.091095 36.818034 120.886705 36.818034 
z
" style="fill:#f26b38;stroke:#ffffff;stroke-width:0.48;"/>
    <path clip-path="url(#pd3465d9753)" d="M 127.650341 68.196 
C 128.44595 68.196 129.209081 67.879901 129.771661 67.31732 
C 130.334242 66.75474 130.650341 65.991609 130.650341 65.196 
C 130.650341 64.400391 130.334242 63.63726 129.771661 63.07468 
C 129.209081 62.512099 128.44595 62.196 127.650341 62.196 
C 126.854732 62.196 126.091601 62.512099 125.529021 63.07468 
C 124.96644 63.63726 124.650341 64.400391 124.650341 65.196 
C 124.650341 65.991609 124.96644 66.75474 125.529021 67.31732 
C 126.091601 67.879901 126.854732 68.196 127.650341 68.196 
z
" style="fill:#f26b38;stroke:#ffffff;stroke-width:0.48;"/>
    <path clip-path="url(#pd3465d9753)" d="M 134.413977 85.180404 
C 135.209587 85.180404 135.972717 84.864305 136.535298 84.301724 
C 137.097878 83.739143 137.413977 82.976013 137.413977 82.180404 
C 137.413977 81.384794 137.097878 80.621664 136.535298 80.059083 
C 135.972717 79.496503 135.209587 79.180404 134.413977 79.180404 
C 133.618368 79.180404 132.855238 79.496503 132.292657 80.059083 
C 131.730076 80.621664 131.413977 81.384794 131.413977 82.180404 
C 131.413977 82.976013 131.730076 83.739143 132.292657 84.301724 
C 132.855238 84.864305 133.618368 85.180404 134.413977 85.180404 
z
" style="fill:#f26b38;stroke:#ffffff;stroke-width:0.48;"/>
    <path clip-path="url(#pd3465d9753)" d="M 141.177614 115.665231 
C 141.973223 115.665231 142.736353 115.349132 143.298934 114.786551 
C 143.861515 114.22397 144.177614 113.46084 144.177614 112.665231 
C 144.177614 111.869621 143.861515 111.106491 143.298934 110.54391 
C 142.736353 109.98133 141.973223 109.665231 141.177614 109.665231 
C 140.382004 109.665231 139.618874 109.98133 139.056293 110.54391 
C 138.493713 111.106491 138.177614 111.869621 138.177614 112.665231 
C 138.177614 113.46084 138.493713 114.22397 139.056293 114.786551 
C 139.618874 115.349132 140.382004 115.665231 141.177614 115.665231 
z
" style="fill:#f26b38;stroke:#ffffff;stroke-width:0.48;"/>
    <path clip-path="url(#pd3465d9753)" d="M 147.94125 97.032449 
C 148.736859 97.032449 149.49999 96.71635 150.06257 96.153769 
C 150.625151 95.591188 150.94125 94.828058 150.94125 94.032449 
C 150.94125 93.236839 150.625151 92.473709 150.06257 91.911128 
C 149.49999 91.348548 148.736859 91.032449 147.94125 91.032449 
C 147.145641 91.032449 146.38251 91.348548 145.81993 91.911128 
C 145.257349 92.473709 144.94125 93.236839 144.94125 94.032449 
C 144.94125 94.828058 145.257349 95.591188 145.81993 96.153769 
C 146.38251 96.71635 147.145641 97.032449 147.94125 97.032449 
z
" style="fill:#f26b38;stroke:#ffffff;stroke-width:0.48;"/>
    <path clip-path="url(#pd3465d9753)" d="M 154.704886 122.117359 
C 155.500496 122.117359 156.263626 121.80126 156.826207 121.23868 
C 157.388787 120.676099 157.704886 119.912969 157.704886 119.117359 
C 157.704886 118.32175 157.388787 117.55862 156.826207 116.996039 
C 156.263626 116.433458 155.500496 116.117359 154.704886 116.117359 
C 153.909277 116.117359 153.146147 116.433458 152.583566 116.996039 
C 152.020985 117.55862 151.704886 118.32175 151.704886 119.117359 
C 151.704886 119.912969 152.020985 120.676099 152.583566 121.23868 
C 153.146147 121.80126 153.909277 122.117359 154.704886 122.117359 
z
" style="fill:#f26b38;stroke:#ffffff;stroke-width:0.48;"/>
    <path clip-path="url(#pd3465d9753)" d="M 161.468523 122.117359 
C 162.264132 122.117359 163.027262 121.80126 163.589843 121.23868 
C 164.152424 120.676099 164.468523 119.912969 164.468523 119.117359 
C 164.468523 118.32175 164.152424 117.55862 163.589843 116.996039 
C 163.027262 116.433458 162.264132 116.117359 161.468523 116.117359 
C 160.672913 116.117359 159.909783 116.433458 159.347202 116.996039 
C 158.784622 117.55862 158.468523 118.32175 158.468523 119.117359 
C 158.468523 119.912969 158.784622 120.676099 159.347202 121.23868 
C 159.909783 121.80126 160.672913 122.117359 161.468523 122.117359 
z
" style="fill:#f26b38;stroke:#ffffff;stroke-width:0.48;"/>
    <path clip-path="url(#pd3465d9753)" d="M 168.232159 122.117359 
C 169.027768 122.117359 169.790899 121.80126 170.353479 121.23868 
C 170.91606 120.676099 171.232159 119.912969 171.232159 119.117359 
C 171.232159 118.32175 170.91606 117.55862 170.353479 116.996039 
C 169.790899 116.433458 169.027768 116.117359 168.232159 116.117359 
C 167.43655 116.117359 166.673419 116.433458 166.110839 116.996039 
C 165.548258 117.55862 165.232159 118.32175 165.232159 119.117359 
C 165.232159 119.912969 165.548258 120.676099 166.110839 121.23868 
C 166.673419 121.80126 167.43655 122.117359 168.232159 122.117359 
z
" style="fill:#f26b38;stroke:#ffffff;stroke-width:0.48;"/>
    <path clip-path="url(#pd3465d9753)" d="M 174.995795 122.117359 
C 175.791405 122.117359 176.554535 121.80126 177.117116 121.23868 
C 177.679697 120.676099 177.995795 119.912969 177.995795 119.117359 
C 177.995795 118.32175 177.679697 117.55862 177.117116 116.996039 
C 176.554535 116.433458 175.791405 116.117359 174.995795 116.117359 
C 174.200186 116.117359 173.437056 116.433458 172.874475 116.996039 
C 172.311894 117.55862 171.995795 118.32175 171.995795 119.117359 
C 171.995795 119.912969 172.311894 120.676099 172.874475 121.23868 
C 173.437056 121.80126 174.200186 122.117359 174.995795 122.117359 
z
" style="fill:#f26b38;stroke:#ffffff;stroke-width:0.48;"/>
    <path clip-path="url(#pd3465d9753)" d="M 181.759432 122.117359 
C 182.555041 122.117359 183.318171 121.80126 183.880752 121.23868 
C 184.443333 120.676099 184.759432 119.912969 184.759432 119.117359 
C 184.759432 118.32175 184.443333 117.55862 183.880752 116.996039 
C 183.318171 116.433458 182.555041 116.117359 181.759432 116.117359 
C 180.963823 116.117359 180.200692 116.433458 179.638111 116.996039 
C 179.075531 117.55862 178.759432 118.32175 178.759432 119.117359 
C 178.759432 119.912969 179.075531 120.676099 179.638111 121.23868 
C 180.200692 121.80126 180.963823 122.117359 181.759432 122.117359 
z
" style="fill:#f26b38;stroke:#ffffff;stroke-width:0.48;"/>
    <path clip-path="url(#pd3465d9753)" d="M 188.523068 122.117359 
C 189.318677 122.117359 190.081808 121.80126 190.644389 121.23868 
C 191.206969 120.676099 191.523068 119.912969 191.523068 119.117359 
C 191.523068 118.32175 191.206969 117.55862 190.644389 116.996039 
C 190.081808 116.433458 189.318677 116.117359 188.523068 116.117359 
C 187.727459 116.117359 186.964329 116.433458 186.401748 116.996039 
C 185.839167 117.55862 185.523068 118.32175 185.523068 119.117359 
C 185.523068 119.912969 185.839167 120.676099 186.401748 121.23868 
C 186.964329 121.80126 187.727459 122.117359 188.523068 122.117359 
z
" style="fill:#f26b38;stroke:#ffffff;stroke-width:0.48;"/>
    <path clip-path="url(#pd3465d9753)" d="M 195.286705 122.117359 
C 196.082314 122.117359 196.845444 121.80126 197.408025 121.23868 
C 197.970606 120.676099 198.286705 119.912969 198.286705 119.117359 
C 198.286705 118.32175 197.970606 117.55862 197.408025 116.996039 
C 196.845444 116.433458 196.082314 116.117359 195.286705 116.117359 
C 194.491095 116.117359 193.727965 116.433458 193.165384 116.996039 
C 192.602803 117.55862 192.286705 118.32175 192.286705 119.117359 
C 192.286705 119.912969 192.602803 120.676099 193.165384 121.23868 
C 193.727965 121.80126 194.491095 122.117359 195.286705 122.117359 
z
" style="fill:#f26b38;stroke:#ffffff;stroke-width:0.48;"/>
    <path clip-path="url(#pd3465d9753)" d="M 202.050341 122.117359 
C 202.84595 122.117359 203.609081 121.80126 204.171661 121.23868 
C 204.734242 120.676099 205.050341 119.912969 205.050341 119.117359 
C 205.050341 118.32175 204.734242 117.55862 204.171661 116.996039 
C 203.609081 116.433458 202.84595 116.117359 202.050341 116.117359 
C 201.254732 116.117359 200.491601 116.433458 199.929021 116.996039 
C 199.36644 117.55862 199.050341 118.32175 199.050341 119.117359 
C 199.050341 119.912969 199.36644 120.676099 199.929021 121.23868 
C 200.491601 121.80126 201.254732 122.117359 202.050341 122.117359 
z
" style="fill:#f26b38;stroke:#ffffff;stroke-width:0.48;"/>
    <path clip-path="url(#pd3465d9753)" d="M 208.813977 122.117359 
C 209.609587 122.117359 210.372717 121.80126 210.935298 121.23868 
C 211.497878 120.676099 211.813977 119.912969 211.813977 119.117359 
C 211.813977 118.32175 211.497878 117.55862 210.935298 116.996039 
C 210.372717 116.433458 209.609587 116.117359 208.813977 116.117359 
C 208.018368 116.117359 207.255238 116.433458 206.692657 116.996039 
C 206.130076 117.55862 205.813977 118.32175 205.813977 119.117359 
C 205.813977 119.912969 206.130076 120.676099 206.692657 121.23868 
C 207.255238 121.80126 208.018368 122.117359 208.813977 122.117359 
z
" style="fill:#f26b38;stroke:#ffffff;stroke-width:0.48;"/>
    <path clip-path="url(#pd3465d9753)" d="M 215.577614 115.665231 
C 216.373223 115.665231 217.136353 115.349132 217.698934 114.786551 
C 218.261515 114.22397 218.577614 113.46084 218.577614 112.665231 
C 218.577614 111.869621 218.261515 111.106491 217.698934 110.54391 
C 217.136353 109.98133 216.373223 109.665231 215.577614 109.665231 
C 214.782004 109.665231 214.018874 109.98133 213.456293 110.54391 
C 212.893713 111.106491 212.577614 111.869621 212.577614 112.665231 
C 212.577614 113.46084 212.893713 114.22397 213.456293 114.786551 
C 214.018874 115.349132 214.782004 115.665231 215.577614 115.665231 
z
" style="fill:#f26b38;stroke:#ffffff;stroke-width:0.48;"/>
    <path clip-path="url(#pd3465d9753)" d="M 222.34125 186.364085 
C 223.136859 186.364085 223.89999 186.047986 224.46257 185.485405 
C 225.025151 184.922825 225.34125 184.159694 225.34125 183.364085 
C 225.34125 182.568476 225.025151 181.805345 224.46257 181.242765 
C 223.89999 180.680184 223.136859 180.364085 222.34125 180.364085 
C 221.545641 180.364085 220.78251 180.680184 220.21993 181.242765 
C 219.657349 181.805345 219.34125 182.568476 219.34125 183.364085 
C 219.34125 184.159694 219.657349 184.922825 220.21993 185.485405 
C 220.78251 186.047986 221.545641 186.364085 222.34125 186.364085 
z
" style="fill:#f26b38;stroke:#ffffff;stroke-width:0.48;"/>
    <path clip-path="url(#pd3465d9753)" d="M 229.104886 264.216 
C 229.900496 264.216 230.663626 263.899901 231.226207 263.33732 
C 231.788787 262.77474 232.104886 262.011609 232.104886 261.216 
C 232.104886 260.420391 231.788787 259.65726 231.226207 259.09468 
C 230.663626 258.532099 229.900496 258.216 229.104886 258.216 
C 228.309277 258.216 227.546147 258.532099 226.983566 259.09468 
C 226.420985 259.65726 226.104886 260.420391 226.104886 261.216 
C 226.104886 262.011609 226.420985 262.77474 226.983566 263.33732 
C 227.546147 263.899901 228.309277 264.216 229.104886 264.216 
z
" style="fill:#f26b38;stroke:#ffffff;stroke-width:0.48;"/>
    <path clip-path="url(#pd3465d9753)" d="M 235.868523 264.216 
C 236.664132 264.216 237.427262 263.899901 237.989843 263.33732 
C 238.552424 262.77474 238.868523 262.011609 238.868523 261.216 
C 238.868523 260.420391 238.552424 259.65726 237.989843 259.09468 
C 237.427262 258.532099 236.664132 258.216 235.868523 258.216 
C 235.072913 258.216 234.309783 258.532099 233.747202 259.09468 
C 233.184622 259.65726 232.868523 260.420391 232.868523 261.216 
C 232.868523 262.011609 233.184622 262.77474 233.747202 263.33732 
C 234.309783 263.899901 235.072913 264.216 235.868523 264.216 
z
" style="fill:#f26b38;stroke:#ffffff;stroke-width:0.48;"/>
    <path clip-path="url(#pd3465d9753)" d="M 242.632159 264.216 
C 243.427768 264.216 244.190899 263.899901 244.753479 263.33732 
C 245.31606 262.77474 245.632159 262.011609 245.632159 261.216 
C 245.632159 260.420391 245.31606 259.65726 244.753479 259.09468 
C 244.190899 258.532099 243.427768 258.216 242.632159 258.216 
C 241.83655 258.216 241.073419 258.532099 240.510839 259.09468 
C 239.948258 259.65726 239.632159 260.420391 239.632159 261.216 
C 239.632159 262.011609 239.948258 262.77474 240.510839 263.33732 
C 241.073419 263.899901 241.83655 264.216 242.632159 264.216 
z
" style="fill:#f26b38;stroke:#ffffff;stroke-width:0.48;"/>
    <path clip-path="url(#pd3465d9753)" d="M 249.395795 264.216 
C 250.191405 264.216 250.954535 263.899901 251.517116 263.33732 
C 252.079697 262.77474 252.395795 262.011609 252.395795 261.216 
C 252.395795 260.420391 252.079697 259.65726 251.517116 259.09468 
C 250.954535 258.532099 250.191405 258.216 249.395795 258.216 
C 248.600186 258.216 247.837056 258.532099 247.274475 259.09468 
C 246.711894 259.65726 246.395795 260.420391 246.395795 261.216 
C 246.395795 262.011609 246.711894 262.77474 247.274475 263.33732 
C 247.837056 263.899901 248.600186 264.216 249.395795 264.216 
z
" style="fill:#f26b38;stroke:#ffffff;stroke-width:0.48;"/>
    <path clip-path="url(#pd3465d9753)" d="M 256.159432 264.216 
C 256.955041 264.216 257.718171 263.899901 258.280752 263.33732 
C 258.843333 262.77474 259.159432 262.011609 259.159432 261.216 
C 259.159432 260.420391 258.843333 259.65726 258.280752 259.09468 
C 257.718171 258.532099 256.955041 258.216 256.159432 258.216 
C 255.363823 258.216 254.600692 258.532099 254.038111 259.09468 
C 253.475531 259.65726 253.159432 260.420391 253.159432 261.216 
C 253.159432 262.011609 253.475531 262.77474 254.038111 263.33732 
C 254.600692 263.899901 255.363823 264.216 256.159432 264.216 
z
" style="fill:#f26b38;stroke:#ffffff;stroke-width:0.48;"/>
    <path clip-path="url(#pd3465d9753)" d="M 262.923068 264.216 
C 263.718677 264.216 264.481808 263.899901 265.044389 263.33732 
C 265.606969 262.77474 265.923068 262.011609 265.923068 261.216 
C 265.923068 260.420391 265.606969 259.65726 265.044389 259.09468 
C 264.481808 258.532099 263.718677 258.216 262.923068 258.216 
C 262.127459 258.216 261.364329 258.532099 260.801748 259.09468 
C 260.239167 259.65726 259.923068 260.420391 259.923068 261.216 
C 259.923068 262.011609 260.239167 262.77474 260.801748 263.33732 
C 261.364329 263.899901 262.127459 264.216 262.923068 264.216 
z
" style="fill:#f26b38;stroke:#ffffff;stroke-width:0.48;"/>
    <path clip-path="url(#pd3465d9753)" d="M 269.686705 264.216 
C 270.482314 264.216 271.245444 263.899901 271.808025 263.33732 
C 272.370606 262.77474 272.686705 262.011609 272.686705 261.216 
C 272.686705 260.420391 272.370606 259.65726 271.808025 259.09468 
C 271.245444 258.532099 270.482314 258.216 269.686705 258.216 
C 268.891095 258.216 268.127965 258.532099 267.565384 259.09468 
C 267.002803 259.65726 266.686705 260.420391 266.686705 261.216 
C 266.686705 262.011609 267.002803 262.77474 267.565384 263.33732 
C 268.127965 263.899901 268.891095 264.216 269.686705 264.216 
z
" style="fill:#f26b38;stroke:#ffffff;stroke-width:0.48;"/>
    <path clip-path="url(#pd3465d9753)" d="M 276.450341 264.216 
C 277.24595 264.216 278.009081 263.899901 278.571661 263.33732 
C 279.134242 262.77474 279.450341 262.011609 279.450341 261.216 
C 279.450341 260.420391 279.134242 259.65726 278.571661 259.09468 
C 278.009081 258.532099 277.24595 258.216 276.450341 258.216 
C 275.654732 258.216 274.891601 258.532099 274.329021 259.09468 
C 273.76644 259.65726 273.450341 260.420391 273.450341 261.216 
C 273.450341 262.011609 273.76644 262.77474 274.329021 263.33732 
C 274.891601 263.899901 275.654732 264.216 276.450341 264.216 
z
" style="fill:#f26b38;stroke:#ffffff;stroke-width:0.48;"/>
    <path clip-path="url(#pd3465d9753)" d="M 283.213977 264.216 
C 284.009587 264.216 284.772717 263.899901 285.335298 263.33732 
C 285.897878 262.77474 286.213977 262.011609 286.213977 261.216 
C 286.213977 260.420391 285.897878 259.65726 285.335298 259.09468 
C 284.772717 258.532099 284.009587 258.216 283.213977 258.216 
C 282.418368 258.216 281.655238 258.532099 281.092657 259.09468 
C 280.530076 259.65726 280.213977 260.420391 280.213977 261.216 
C 280.213977 262.011609 280.530076 262.77474 281.092657 263.33732 
C 281.655238 263.899901 282.418368 264.216 283.213977 264.216 
z
" style="fill:#f26b38;stroke:#ffffff;stroke-width:0.48;"/>
    <path clip-path="url(#pd3465d9753)" d="M 289.977614 264.216 
C 290.773223 264.216 291.536353 263.899901 292.098934 263.33732 
C 292.661515 262.77474 292.977614 262.011609 292.977614 261.216 
C 292.977614 260.420391 292.661515 259.65726 292.098934 259.09468 
C 291.536353 258.532099 290.773223 258.216 289.977614 258.216 
C 289.182004 258.216 288.418874 258.532099 287.856293 259.09468 
C 287.293713 259.65726 286.977614 260.420391 286.977614 261.216 
C 286.977614 262.011609 287.293713 262.77474 287.856293 263.33732 
C 288.418874 263.899901 289.182004 264.216 289.977614 264.216 
z
" style="fill:#f26b38;stroke:#ffffff;stroke-width:0.48;"/>
    <path clip-path="url(#pd3465d9753)" d="M 296.74125 264.216 
C 297.536859 264.216 298.29999 263.899901 298.86257 263.33732 
C 299.425151 262.77474 299.74125 262.011609 299.74125 261.216 
C 299.74125 260.420391 299.425151 259.65726 298.86257 259.09468 
C 298.29999 258.532099 297.536859 258.216 296.74125 258.216 
C 295.945641 258.216 295.18251 258.532099 294.61993 259.09468 
C 294.057349 259.65726 293.74125 260.420391 293.74125 261.216 
C 293.74125 262.011609 294.057349 262.77474 294.61993 263.33732 
C 295.18251 263.899901 295.945641 264.216 296.74125 264.216 
z
" style="fill:#f26b38;stroke:#ffffff;stroke-width:0.48;"/>
    <path clip-path="url(#pd3465d9753)" d="M 303.504886 264.216 
C 304.300496 264.216 305.063626 263.899901 305.626207 263.33732 
C 306.188787 262.77474 306.504886 262.011609 306.504886 261.216 
C 306.504886 260.420391 306.188787 259.65726 305.626207 259.09468 
C 305.063626 258.532099 304.300496 258.216 303.504886 258.216 
C 302.709277 258.216 301.946147 258.532099 301.383566 259.09468 
C 300.820985 259.65726 300.504886 260.420391 300.504886 261.216 
C 300.504886 262.011609 300.820985 262.77474 301.383566 263.33732 
C 301.946147 263.899901 302.709277 264.216 303.504886 264.216 
z
" style="fill:#f26b38;stroke:#ffffff;stroke-width:0.48;"/>
    <path clip-path="url(#pd3465d9753)" d="M 310.268523 264.216 
C 311.064132 264.216 311.827262 263.899901 312.389843 263.33732 
C 312.952424 262.77474 313.268523 262.011609 313.268523 261.216 
C 313.268523 260.420391 312.952424 259.65726 312.389843 259.09468 
C 311.827262 258.532099 311.064132 258.216 310.268523 258.216 
C 309.472913 258.216 308.709783 258.532099 308.147202 259.09468 
C 307.584622 259.65726 307.268523 260.420391 307.268523 261.216 
C 307.268523 262.011609 307.584622 262.77474 308.147202 263.33732 
C 308.709783 263.899901 309.472913 264.216 310.268523 264.216 
z
" style="fill:#f26b38;stroke:#ffffff;stroke-width:0.48;"/>
    <path clip-path="url(#pd3465d9753)" d="M 317.032159 264.216 
C 317.827768 264.216 318.590899 263.899901 319.153479 263.33732 
C 319.71606 262.77474 320.032159 262.011609 320.032159 261.216 
C 320.032159 260.420391 319.71606 259.65726 319.153479 259.09468 
C 318.590899 258.532099 317.827768 258.216 317.032159 258.216 
C 316.23655 258.216 315.473419 258.532099 314.910839 259.09468 
C 314.348258 259.65726 314.032159 260.420391 314.032159 261.216 
C 314.032159 262.011609 314.348258 262.77474 314.910839 263.33732 
C 315.473419 263.899901 316.23655 264.216 317.032159 264.216 
z
" style="fill:#f26b38;stroke:#ffffff;stroke-width:0.48;"/>
    <path clip-path="url(#pd3465d9753)" d="M 323.795795 264.216 
C 324.591405 264.216 325.354535 263.899901 325.917116 263.33732 
C 326.479697 262.77474 326.795795 262.011609 326.795795 261.216 
C 326.795795 260.420391 326.479697 259.65726 325.917116 259.09468 
C 325.354535 258.532099 324.591405 258.216 323.795795 258.216 
C 323.000186 258.216 322.237056 258.532099 321.674475 259.09468 
C 321.111894 259.65726 320.795795 260.420391 320.795795 261.216 
C 320.795795 262.011609 321.111894 262.77474 321.674475 263.33732 
C 322.237056 263.899901 323.000186 264.216 323.795795 264.216 
z
" style="fill:#f26b38;stroke:#ffffff;stroke-width:0.48;"/>
    <path clip-path="url(#pd3465d9753)" d="M 330.559432 264.216 
C 331.355041 264.216 332.118171 263.899901 332.680752 263.33732 
C 333.243333 262.77474 333.559432 262.011609 333.559432 261.216 
C 333.559432 260.420391 333.243333 259.65726 332.680752 259.09468 
C 332.118171 258.532099 331.355041 258.216 330.559432 258.216 
C 329.763823 258.216 329.000692 258.532099 328.438111 259.09468 
C 327.875531 259.65726 327.559432 260.420391 327.559432 261.216 
C 327.559432 262.011609 327.875531 262.77474 328.438111 263.33732 
C 329.000692 263.899901 329.763823 264.216 330.559432 264.216 
z
" style="fill:#f26b38;stroke:#ffffff;stroke-width:0.48;"/>
    <path clip-path="url(#pd3465d9753)" d="M 337.323068 264.216 
C 338.118677 264.216 338.881808 263.899901 339.444389 263.33732 
C 340.006969 262.77474 340.323068 262.011609 340.323068 261.216 
C 340.323068 260.420391 340.006969 259.65726 339.444389 259.09468 
C 338.881808 258.532099 338.118677 258.216 337.323068 258.216 
C 336.527459 258.216 335.764329 258.532099 335.201748 259.09468 
C 334.639167 259.65726 334.323068 260.420391 334.323068 261.216 
C 334.323068 262.011609 334.639167 262.77474 335.201748 263.33732 
C 335.764329 263.899901 336.527459 264.216 337.323068 264.216 
z
" style="fill:#f26b38;stroke:#ffffff;stroke-width:0.48;"/>
    <path clip-path="url(#pd3465d9753)" d="M 344.086705 264.216 
C 344.882314 264.216 345.645444 263.899901 346.208025 263.33732 
C 346.770606 262.77474 347.086705 262.011609 347.086705 261.216 
C 347.086705 260.420391 346.770606 259.65726 346.208025 259.09468 
C 345.645444 258.532099 344.882314 258.216 344.086705 258.216 
C 343.291095 258.216 342.527965 258.532099 341.965384 259.09468 
C 341.402803 259.65726 341.086705 260.420391 341.086705 261.216 
C 341.086705 262.011609 341.402803 262.77474 341.965384 263.33732 
C 342.527965 263.899901 343.291095 264.216 344.086705 264.216 
z
" style="fill:#f26b38;stroke:#ffffff;stroke-width:0.48;"/>
    <path clip-path="url(#pd3465d9753)" d="M 350.850341 264.216 
C 351.64595 264.216 352.409081 263.899901 352.971661 263.33732 
C 353.534242 262.77474 353.850341 262.011609 353.850341 261.216 
C 353.850341 260.420391 353.534242 259.65726 352.971661 259.09468 
C 352.409081 258.532099 351.64595 258.216 350.850341 258.216 
C 350.054732 258.216 349.291601 258.532099 348.729021 259.09468 
C 348.16644 259.65726 347.850341 260.420391 347.850341 261.216 
C 347.850341 262.011609 348.16644 262.77474 348.729021 263.33732 
C 349.291601 263.899901 350.054732 264.216 350.850341 264.216 
z
" style="fill:#f26b38;stroke:#ffffff;stroke-width:0.48;"/>
    <path clip-path="url(#pd3465d9753)" d="M 357.613977 264.216 
C 358.409587 264.216 359.172717 263.899901 359.735298 263.33732 
C 360.297878 262.77474 360.613977 262.011609 360.613977 261.216 
C 360.613977 260.420391 360.297878 259.65726 359.735298 259.09468 
C 359.172717 258.532099 358.409587 258.216 357.613977 258.216 
C 356.818368 258.216 356.055238 258.532099 355.492657 259.09468 
C 354.930076 259.65726 354.613977 260.420391 354.613977 261.216 
C 354.613977 262.011609 354.930076 262.77474 355.492657 263.33732 
C 356.055238 263.899901 356.818368 264.216 357.613977 264.216 
z
" style="fill:#f26b38;stroke:#ffffff;stroke-width:0.48;"/>
    <path clip-path="url(#pd3465d9753)" d="M 364.377614 264.216 
C 365.173223 264.216 365.936353 263.899901 366.498934 263.33732 
C 367.061515 262.77474 367.377614 262.011609 367.377614 261.216 
C 367.377614 260.420391 367.061515 259.65726 366.498934 259.09468 
C 365.936353 258.532099 365.173223 258.216 364.377614 258.216 
C 363.582004 258.216 362.818874 258.532099 362.256293 259.09468 
C 361.693713 259.65726 361.377614 260.420391 361.377614 261.216 
C 361.377614 262.011609 361.693713 262.77474 362.256293 263.33732 
C 362.818874 263.899901 363.582004 264.216 364.377614 264.216 
z
" style="fill:#f26b38;stroke:#ffffff;stroke-width:0.48;"/>
    <path clip-path="url(#pd3465d9753)" d="M 371.14125 264.216 
C 371.936859 264.216 372.69999 263.899901 373.26257 263.33732 
C 373.825151 262.77474 374.14125 262.011609 374.14125 261.216 
C 374.14125 260.420391 373.825151 259.65726 373.26257 259.09468 
C 372.69999 258.532099 371.936859 258.216 371.14125 258.216 
C 370.345641 258.216 369.58251 258.532099 369.01993 259.09468 
C 368.457349 259.65726 368.14125 260.420391 368.14125 261.216 
C 368.14125 262.011609 368.457349 262.77474 369.01993 263.33732 
C 369.58251 263.899901 370.345641 264.216 371.14125 264.216 
z
" style="fill:#f26b38;stroke:#ffffff;stroke-width:0.48;"/>
    <path clip-path="url(#pd3465d9753)" d="M 377.904886 264.216 
C 378.700496 264.216 379.463626 263.899901 380.026207 263.33732 
C 380.588787 262.77474 380.904886 262.011609 380.904886 261.216 
C 380.904886 260.420391 380.588787 259.65726 380.026207 259.09468 
C 379.463626 258.532099 378.700496 258.216 377.904886 258.216 
C 377.109277 258.216 376.346147 258.532099 375.783566 259.09468 
C 375.220985 259.65726 374.904886 260.420391 374.904886 261.216 
C 374.904886 262.011609 375.220985 262.77474 375.783566 263.33732 
C 376.346147 263.899901 377.109277 264.216 377.904886 264.216 
z
" style="fill:#f26b38;stroke:#ffffff;stroke-width:0.48;"/>
    <path clip-path="url(#pd3465d9753)" d="M 384.668523 264.216 
C 385.464132 264.216 386.227262 263.899901 386.789843 263.33732 
C 387.352424 262.77474 387.668523 262.011609 387.668523 261.216 
C 387.668523 260.420391 387.352424 259.65726 386.789843 259.09468 
C 386.227262 258.532099 385.464132 258.216 384.668523 258.216 
C 383.872913 258.216 383.109783 258.532099 382.547202 259.09468 
C 381.984622 259.65726 381.668523 260.420391 381.668523 261.216 
C 381.668523 262.011609 381.984622 262.77474 382.547202 263.33732 
C 383.109783 263.899901 383.872913 264.216 384.668523 264.216 
z
" style="fill:#f26b38;stroke:#ffffff;stroke-width:0.48;"/>
    <path clip-path="url(#pd3465d9753)" d="M 58.513977 27.056 
L 60.013977 25.556 
L 61.513977 27.056 
L 63.013977 25.556 
L 61.513977 24.056 
L 63.013977 22.556 
L 61.513977 21.056 
L 60.013977 22.556 
L 58.513977 21.056 
L 57.013977 22.556 
L 58.513977 24.056 
L 57.013977 25.556 
z
" style="fill:#2f9599;stroke:#ffffff;stroke-width:0.48;"/>
    <path clip-path="url(#pd3465d9753)" d="M 65.277614 31.896 
L 66.777614 30.396 
L 68.277614 31.896 
L 69.777614 30.396 
L 68.277614 28.896 
L 69.777614 27.396 
L 68.277614 25.896 
L 66.777614 27.396 
L 65.277614 25.896 
L 63.777614 27.396 
L 65.277614 28.896 
L 63.777614 30.396 
z
" style="fill:#2f9599;stroke:#ffffff;stroke-width:0.48;"/>
    <path clip-path="url(#pd3465d9753)" d="M 72.04125 68.196 
L 73.54125 66.696 
L 75.04125 68.196 
L 76.54125 66.696 
L 75.04125 65.196 
L 76.54125 63.696 
L 75.04125 62.196 
L 73.54125 63.696 
L 72.04125 62.196 
L 70.54125 63.696 
L 72.04125 65.196 
L 70.54125 66.696 
z
" style="fill:#2f9599;stroke:#ffffff;stroke-width:0.48;"/>
    <path clip-path="url(#pd3465d9753)" d="M 78.804886 103.126189 
L 80.304886 101.626189 
L 81.804886 103.126189 
L 83.304886 101.626189 
L 81.804886 100.126189 
L 83.304886 98.626189 
L 81.804886 97.126189 
L 80.304886 98.626189 
L 78.804886 97.126189 
L 77.304886 98.626189 
L 78.804886 100.126189 
L 77.304886 101.626189 
z
" style="fill:#2f9599;stroke:#ffffff;stroke-width:0.48;"/>
    <path clip-path="url(#pd3465d9753)" d="M 85.568523 97.032449 
L 87.068523 95.532449 
L 88.568523 97.032449 
L 90.068523 95.532449 
L 88.568523 94.032449 
L 90.068523 92.532449 
L 88.568523 91.032449 
L 87.068523 92.532449 
L 85.568523 91.032449 
L 84.068523 92.532449 
L 85.568523 94.032449 
L 84.068523 95.532449 
z
" style="fill:#2f9599;stroke:#ffffff;stroke-width:0.48;"/>
    <path clip-path="url(#pd3465d9753)" d="M 92.332159 122.117359 
L 93.832159 120.617359 
L 95.332159 122.117359 
L 96.832159 120.617359 
L 95.332159 119.117359 
L 96.832159 117.617359 
L 95.332159 116.117359 
L 93.832159 117.617359 
L 92.332159 116.117359 
L 90.832159 117.617359 
L 92.332159 119.117359 
L 90.832159 120.617359 
z
" style="fill:#2f9599;stroke:#ffffff;stroke-width:0.48;"/>
    <path clip-path="url(#pd3465d9753)" d="M 99.095795 122.117359 
L 100.595795 120.617359 
L 102.095795 122.117359 
L 103.595795 120.617359 
L 102.095795 119.117359 
L 103.595795 117.617359 
L 102.095795 116.117359 
L 100.595795 117.617359 
L 99.095795 116.117359 
L 97.595795 117.617359 
L 99.095795 119.117359 
L 97.595795 120.617359 
z
" style="fill:#2f9599;stroke:#ffffff;stroke-width:0.48;"/>
    <path clip-path="url(#pd3465d9753)" d="M 105.859432 122.117359 
L 107.359432 120.617359 
L 108.859432 122.117359 
L 110.359432 120.617359 
L 108.859432 119.117359 
L 110.359432 117.617359 
L 108.859432 116.117359 
L 107.359432 117.617359 
L 105.859432 116.117359 
L 104.359432 117.617359 
L 105.859432 119.117359 
L 104.359432 120.617359 
z
" style="fill:#2f9599;stroke:#ffffff;stroke-width:0.48;"/>
    <path clip-path="url(#pd3465d9753)" d="M 112.623068 122.117359 
L 114.123068 120.617359 
L 115.623068 122.117359 
L 117.123068 120.617359 
L 115.623068 119.117359 
L 117.123068 117.617359 
L 115.623068 116.117359 
L 114.123068 117.617359 
L 112.623068 116.117359 
L 111.123068 117.617359 
L 112.623068 119.117359 
L 111.123068 120.617359 
z
" style="fill:#2f9599;stroke:#ffffff;stroke-width:0.48;"/>
    <path clip-path="url(#pd3465d9753)" d="M 119.386705 103.126189 
L 120.886705 101.626189 
L 122.386705 103.126189 
L 123.886705 101.626189 
L 122.386705 100.126189 
L 123.886705 98.626189 
L 122.386705 97.126189 
L 120.886705 98.626189 
L 119.386705 97.126189 
L 117.886705 98.626189 
L 119.386705 100.126189 
L 117.886705 101.626189 
z
" style="fill:#2f9599;stroke:#ffffff;stroke-width:0.48;"/>
    <path clip-path="url(#pd3465d9753)" d="M 126.150341 79.416 
L 127.650341 77.916 
L 129.150341 79.416 
L 130.650341 77.916 
L 129.150341 76.416 
L 130.650341 74.916 
L 129.150341 73.416 
L 127.650341 74.916 
L 126.150341 73.416 
L 124.650341 74.916 
L 126.150341 76.416 
L 124.650341 77.916 
z
" style="fill:#2f9599;stroke:#ffffff;stroke-width:0.48;"/>
    <path clip-path="url(#pd3465d9753)" d="M 132.913977 156.353143 
L 134.413977 154.853143 
L 135.913977 156.353143 
L 137.413977 154.853143 
L 135.913977 153.353143 
L 137.413977 151.853143 
L 135.913977 150.353143 
L 134.413977 151.853143 
L 132.913977 150.353143 
L 131.413977 151.853143 
L 132.913977 153.353143 
L 131.413977 154.853143 
z
" style="fill:#2f9599;stroke:#ffffff;stroke-width:0.48;"/>
    <path clip-path="url(#pd3465d9753)" d="M 139.677614 156.353143 
L 141.177614 154.853143 
L 142.677614 156.353143 
L 144.177614 154.853143 
L 142.677614 153.353143 
L 144.177614 151.853143 
L 142.677614 150.353143 
L 141.177614 151.853143 
L 139.677614 150.353143 
L 138.177614 151.853143 
L 139.677614 153.353143 
L 138.177614 154.853143 
z
" style="fill:#2f9599;stroke:#ffffff;stroke-width:0.48;"/>
    <path clip-path="url(#pd3465d9753)" d="M 146.44125 156.353143 
L 147.94125 154.853143 
L 149.44125 156.353143 
L 150.94125 154.853143 
L 149.44125 153.353143 
L 150.94125 151.853143 
L 149.44125 150.353143 
L 147.94125 151.853143 
L 146.44125 150.353143 
L 144.94125 151.853143 
L 146.44125 153.353143 
L 144.94125 154.853143 
z
" style="fill:#2f9599;stroke:#ffffff;stroke-width:0.48;"/>
    <path clip-path="url(#pd3465d9753)" d="M 153.204886 156.353143 
L 154.704886 154.853143 
L 156.204886 156.353143 
L 157.704886 154.853143 
L 156.204886 153.353143 
L 157.704886 151.853143 
L 156.204886 150.353143 
L 154.704886 151.853143 
L 153.204886 150.353143 
L 151.704886 151.853143 
L 153.204886 153.353143 
L 151.704886 154.853143 
z
" style="fill:#2f9599;stroke:#ffffff;stroke-width:0.48;"/>
    <path clip-path="url(#pd3465d9753)" d="M 159.968523 149.229333 
L 161.468523 147.729333 
L 162.968523 149.229333 
L 164.468523 147.729333 
L 162.968523 146.229333 
L 164.468523 144.729333 
L 162.968523 143.229333 
L 161.468523 144.729333 
L 159.968523 143.229333 
L 158.468523 144.729333 
L 159.968523 146.229333 
L 158.468523 147.729333 
z
" style="fill:#2f9599;stroke:#ffffff;stroke-width:0.48;"/>
    <path clip-path="url(#pd3465d9753)" d="M 166.732159 264.216 
L 168.232159 262.716 
L 169.732159 264.216 
L 171.232159 262.716 
L 169.732159 261.216 
L 171.232159 259.716 
L 169.732159 258.216 
L 168.232159 259.716 
L 166.732159 258.216 
L 165.232159 259.716 
L 166.732159 261.216 
L 165.232159 262.716 
z
" style="fill:#2f9599;stroke:#ffffff;stroke-width:0.48;"/>
    <path clip-path="url(#pd3465d9753)" d="M 173.495795 264.216 
L 174.995795 262.716 
L 176.495795 264.216 
L 177.995795 262.716 
L 176.495795 261.216 
L 177.995795 259.716 
L 176.495795 258.216 
L 174.995795 259.716 
L 173.495795 258.216 
L 171.995795 259.716 
L 173.495795 261.216 
L 171.995795 262.716 
z
" style="fill:#2f9599;stroke:#ffffff;stroke-width:0.48;"/>
    <path clip-path="url(#pd3465d9753)" d="M 180.259432 264.216 
L 181.759432 262.716 
L 183.259432 264.216 
L 184.759432 262.716 
L 183.259432 261.216 
L 184.759432 259.716 
L 183.259432 258.216 
L 181.759432 259.716 
L 180.259432 258.216 
L 178.759432 259.716 
L 180.259432 261.216 
L 178.759432 262.716 
z
" style="fill:#2f9599;stroke:#ffffff;stroke-width:0.48;"/>
    <path clip-path="url(#pd3465d9753)" d="M 187.023068 264.216 
L 188.523068 262.716 
L 190.023068 264.216 
L 191.523068 262.716 
L 190.023068 261.216 
L 191.523068 259.716 
L 190.023068 258.216 
L 188.523068 259.716 
L 187.023068 258.216 
L 185.523068 259.716 
L 187.023068 261.216 
L 185.523068 262.716 
z
" style="fill:#2f9599;stroke:#ffffff;stroke-width:0.48;"/>
    <path clip-path="url(#pd3465d9753)" d="M 193.786705 264.216 
L 195.286705 262.716 
L 196.786705 264.216 
L 198.286705 262.716 
L 196.786705 261.216 
L 198.286705 259.716 
L 196.786705 258.216 
L 195.286705 259.716 
L 193.786705 258.216 
L 192.286705 259.716 
L 193.786705 261.216 
L 192.286705 262.716 
z
" style="fill:#2f9599;stroke:#ffffff;stroke-width:0.48;"/>
    <path clip-path="url(#pd3465d9753)" d="M 200.550341 264.216 
L 202.050341 262.716 
L 203.550341 264.216 
L 205.050341 262.716 
L 203.550341 261.216 
L 205.050341 259.716 
L 203.550341 258.216 
L 202.050341 259.716 
L 200.550341 258.216 
L 199.050341 259.716 
L 200.550341 261.216 
L 199.050341 262.716 
z
" style="fill:#2f9599;stroke:#ffffff;stroke-width:0.48;"/>
    <path clip-path="url(#pd3465d9753)" d="M 207.313977 264.216 
L 208.813977 262.716 
L 210.313977 264.216 
L 211.813977 262.716 
L 210.313977 261.216 
L 211.813977 259.716 
L 210.313977 258.216 
L 208.813977 259.716 
L 207.313977 258.216 
L 205.813977 259.716 
L 207.313977 261.216 
L 205.813977 262.716 
z
" style="fill:#2f9599;stroke:#ffffff;stroke-width:0.48;"/>
    <path clip-path="url(#pd3465d9753)" d="M 214.077614 264.216 
L 215.577614 262.716 
L 217.077614 264.216 
L 218.577614 262.716 
L 217.077614 261.216 
L 218.577614 259.716 
L 217.077614 258.216 
L 215.577614 259.716 
L 214.077614 258.216 
L 212.577614 259.716 
L 214.077614 261.216 
L 212.577614 262.716 
z
" style="fill:#2f9599;stroke:#ffffff;stroke-width:0.48;"/>
    <path clip-path="url(#pd3465d9753)" d="M 220.84125 264.216 
L 222.34125 262.716 
L 223.84125 264.216 
L 225.34125 262.716 
L 223.84125 261.216 
L 225.34125 259.716 
L 223.84125 258.216 
L 222.34125 259.716 
L 220.84125 258.216 
L 219.34125 259.716 
L 220.84125 261.216 
L 219.34125 262.716 
z
" style="fill:#2f9599;stroke:#ffffff;stroke-width:0.48;"/>
    <path clip-path="url(#pd3465d9753)" d="M 227.604886 264.216 
L 229.104886 262.716 
L 230.604886 264.216 
L 232.104886 262.716 
L 230.604886 261.216 
L 232.104886 259.716 
L 230.604886 258.216 
L 229.104886 259.716 
L 227.604886 258.216 
L 226.104886 259.716 
L 227.604886 261.216 
L 226.104886 262.716 
z
" style="fill:#2f9599;stroke:#ffffff;stroke-width:0.48;"/>
    <path clip-path="url(#pd3465d9753)" d="M 234.368523 264.216 
L 235.868523 262.716 
L 237.368523 264.216 
L 238.868523 262.716 
L 237.368523 261.216 
L 238.868523 259.716 
L 237.368523 258.216 
L 235.868523 259.716 
L 234.368523 258.216 
L 232.868523 259.716 
L 234.368523 261.216 
L 232.868523 262.716 
z
" style="fill:#2f9599;stroke:#ffffff;stroke-width:0.48;"/>
    <path clip-path="url(#pd3465d9753)" d="M 241.132159 264.216 
L 242.632159 262.716 
L 244.132159 264.216 
L 245.632159 262.716 
L 244.132159 261.216 
L 245.632159 259.716 
L 244.132159 258.216 
L 242.632159 259.716 
L 241.132159 258.216 
L 239.632159 259.716 
L 241.132159 261.216 
L 239.632159 262.716 
z
" style="fill:#2f9599;stroke:#ffffff;stroke-width:0.48;"/>
    <path clip-path="url(#pd3465d9753)" d="M 247.895795 264.216 
L 249.395795 262.716 
L 250.895795 264.216 
L 252.395795 262.716 
L 250.895795 261.216 
L 252.395795 259.716 
L 250.895795 258.216 
L 249.395795 259.716 
L 247.895795 258.216 
L 246.395795 259.716 
L 247.895795 261.216 
L 246.395795 262.716 
z
" style="fill:#2f9599;stroke:#ffffff;stroke-width:0.48;"/>
    <path clip-path="url(#pd3465d9753)" d="M 254.659432 264.216 
L 256.159432 262.716 
L 257.659432 264.216 
L 259.159432 262.716 
L 257.659432 261.216 
L 259.159432 259.716 
L 257.659432 258.216 
L 256.159432 259.716 
L 254.659432 258.216 
L 253.159432 259.716 
L 254.659432 261.216 
L 253.159432 262.716 
z
" style="fill:#2f9599;stroke:#ffffff;stroke-width:0.48;"/>
    <path clip-path="url(#pd3465d9753)" d="M 261.423068 264.216 
L 262.923068 262.716 
L 264.423068 264.216 
L 265.923068 262.716 
L 264.423068 261.216 
L 265.923068 259.716 
L 264.423068 258.216 
L 262.923068 259.716 
L 261.423068 258.216 
L 259.923068 259.716 
L 261.423068 261.216 
L 259.923068 262.716 
z
" style="fill:#2f9599;stroke:#ffffff;stroke-width:0.48;"/>
    <path clip-path="url(#pd3465d9753)" d="M 268.186705 264.216 
L 269.686705 262.716 
L 271.186705 264.216 
L 272.686705 262.716 
L 271.186705 261.216 
L 272.686705 259.716 
L 271.186705 258.216 
L 269.686705 259.716 
L 268.186705 258.216 
L 266.686705 259.716 
L 268.186705 261.216 
L 266.686705 262.716 
z
" style="fill:#2f9599;stroke:#ffffff;stroke-width:0.48;"/>
    <path clip-path="url(#pd3465d9753)" d="M 274.950341 264.216 
L 276.450341 262.716 
L 277.950341 264.216 
L 279.450341 262.716 
L 277.950341 261.216 
L 279.450341 259.716 
L 277.950341 258.216 
L 276.450341 259.716 
L 274.950341 258.216 
L 273.450341 259.716 
L 274.950341 261.216 
L 273.450341 262.716 
z
" style="fill:#2f9599;stroke:#ffffff;stroke-width:0.48;"/>
    <path clip-path="url(#pd3465d9753)" d="M 281.713977 264.216 
L 283.213977 262.716 
L 284.713977 264.216 
L 286.213977 262.716 
L 284.713977 261.216 
L 286.213977 259.716 
L 284.713977 258.216 
L 283.213977 259.716 
L 281.713977 258.216 
L 280.213977 259.716 
L 281.713977 261.216 
L 280.213977 262.716 
z
" style="fill:#2f9599;stroke:#ffffff;stroke-width:0.48;"/>
    <path clip-path="url(#pd3465d9753)" d="M 288.477614 264.216 
L 289.977614 262.716 
L 291.477614 264.216 
L 292.977614 262.716 
L 291.477614 261.216 
L 292.977614 259.716 
L 291.477614 258.216 
L 289.977614 259.716 
L 288.477614 258.216 
L 286.977614 259.716 
L 288.477614 261.216 
L 286.977614 262.716 
z
" style="fill:#2f9599;stroke:#ffffff;stroke-width:0.48;"/>
    <path clip-path="url(#pd3465d9753)" d="M 295.24125 264.216 
L 296.74125 262.716 
L 298.24125 264.216 
L 299.74125 262.716 
L 298.24125 261.216 
L 299.74125 259.716 
L 298.24125 258.216 
L 296.74125 259.716 
L 295.24125 258.216 
L 293.74125 259.716 
L 295.24125 261.216 
L 293.74125 262.716 
z
" style="fill:#2f9599;stroke:#ffffff;stroke-width:0.48;"/>
    <path clip-path="url(#pd3465d9753)" d="M 302.004886 264.216 
L 303.504886 262.716 
L 305.004886 264.216 
L 306.504886 262.716 
L 305.004886 261.216 
L 306.504886 259.716 
L 305.004886 258.216 
L 303.504886 259.716 
L 302.004886 258.216 
L 300.504886 259.716 
L 302.004886 261.216 
L 300.504886 262.716 
z
" style="fill:#2f9599;stroke:#ffffff;stroke-width:0.48;"/>
    <path clip-path="url(#pd3465d9753)" d="M 308.768523 264.216 
L 310.268523 262.716 
L 311.768523 264.216 
L 313.268523 262.716 
L 311.768523 261.216 
L 313.268523 259.716 
L 311.768523 258.216 
L 310.268523 259.716 
L 308.768523 258.216 
L 307.268523 259.716 
L 308.768523 261.216 
L 307.268523 262.716 
z
" style="fill:#2f9599;stroke:#ffffff;stroke-width:0.48;"/>
    <path clip-path="url(#pd3465d9753)" d="M 315.532159 264.216 
L 317.032159 262.716 
L 318.532159 264.216 
L 320.032159 262.716 
L 318.532159 261.216 
L 320.032159 259.716 
L 318.532159 258.216 
L 317.032159 259.716 
L 315.532159 258.216 
L 314.032159 259.716 
L 315.532159 261.216 
L 314.032159 262.716 
z
" style="fill:#2f9599;stroke:#ffffff;stroke-width:0.48;"/>
    <path clip-path="url(#pd3465d9753)" d="M 322.295795 264.216 
L 323.795795 262.716 
L 325.295795 264.216 
L 326.795795 262.716 
L 325.295795 261.216 
L 326.795795 259.716 
L 325.295795 258.216 
L 323.795795 259.716 
L 322.295795 258.216 
L 320.795795 259.716 
L 322.295795 261.216 
L 320.795795 262.716 
z
" style="fill:#2f9599;stroke:#ffffff;stroke-width:0.48;"/>
    <path clip-path="url(#pd3465d9753)" d="M 329.059432 264.216 
L 330.559432 262.716 
L 332.059432 264.216 
L 333.559432 262.716 
L 332.059432 261.216 
L 333.559432 259.716 
L 332.059432 258.216 
L 330.559432 259.716 
L 329.059432 258.216 
L 327.559432 259.716 
L 329.059432 261.216 
L 327.559432 262.716 
z
" style="fill:#2f9599;stroke:#ffffff;stroke-width:0.48;"/>
    <path clip-path="url(#pd3465d9753)" d="M 335.823068 264.216 
L 337.323068 262.716 
L 338.823068 264.216 
L 340.323068 262.716 
L 338.823068 261.216 
L 340.323068 259.716 
L 338.823068 258.216 
L 337.323068 259.716 
L 335.823068 258.216 
L 334.323068 259.716 
L 335.823068 261.216 
L 334.323068 262.716 
z
" style="fill:#2f9599;stroke:#ffffff;stroke-width:0.48;"/>
    <path clip-path="url(#pd3465d9753)" d="M 342.586705 264.216 
L 344.086705 262.716 
L 345.586705 264.216 
L 347.086705 262.716 
L 345.586705 261.216 
L 347.086705 259.716 
L 345.586705 258.216 
L 344.086705 259.716 
L 342.586705 258.216 
L 341.086705 259.716 
L 342.586705 261.216 
L 341.086705 262.716 
z
" style="fill:#2f9599;stroke:#ffffff;stroke-width:0.48;"/>
    <path clip-path="url(#pd3465d9753)" d="M 349.350341 264.216 
L 350.850341 262.716 
L 352.350341 264.216 
L 353.850341 262.716 
L 352.350341 261.216 
L 353.850341 259.716 
L 352.350341 258.216 
L 350.850341 259.716 
L 349.350341 258.216 
L 347.850341 259.716 
L 349.350341 261.216 
L 347.850341 262.716 
z
" style="fill:#2f9599;stroke:#ffffff;stroke-width:0.48;"/>
    <path clip-path="url(#pd3465d9753)" d="M 356.113977 264.216 
L 357.613977 262.716 
L 359.113977 264.216 
L 360.613977 262.716 
L 359.113977 261.216 
L 360.613977 259.716 
L 359.113977 258.216 
L 357.613977 259.716 
L 356.113977 258.216 
L 354.613977 259.716 
L 356.113977 261.216 
L 354.613977 262.716 
z
" style="fill:#2f9599;stroke:#ffffff;stroke-width:0.48;"/>
    <path clip-path="url(#pd3465d9753)" d="M 362.877614 264.216 
L 364.377614 262.716 
L 365.877614 264.216 
L 367.377614 262.716 
L 365.877614 261.216 
L 367.377614 259.716 
L 365.877614 258.216 
L 364.377614 259.716 
L 362.877614 258.216 
L 361.377614 259.716 
L 362.877614 261.216 
L 361.377614 262.716 
z
" style="fill:#2f9599;stroke:#ffffff;stroke-width:0.48;"/>
    <path clip-path="url(#pd3465d9753)" d="M 369.64125 264.216 
L 371.14125 262.716 
L 372.64125 264.216 
L 374.14125 262.716 
L 372.64125 261.216 
L 374.14125 259.716 
L 372.64125 258.216 
L 371.14125 259.716 
L 369.64125 258.216 
L 368.14125 259.716 
L 369.64125 261.216 
L 368.14125 262.716 
z
" style="fill:#2f9599;stroke:#ffffff;stroke-width:0.48;"/>
    <path clip-path="url(#pd3465d9753)" d="M 376.404886 264.216 
L 377.904886 262.716 
L 379.404886 264.216 
L 380.904886 262.716 
L 379.404886 261.216 
L 380.904886 259.716 
L 379.404886 258.216 
L 377.904886 259.716 
L 376.404886 258.216 
L 374.904886 259.716 
L 376.404886 261.216 
L 374.904886 262.716 
z
" style="fill:#2f9599;stroke:#ffffff;stroke-width:0.48;"/>
    <path clip-path="url(#pd3465d9753)" d="M 383.168523 264.216 
L 384.668523 262.716 
L 386.168523 264.216 
L 387.668523 262.716 
L 386.168523 261.216 
L 387.668523 259.716 
L 386.168523 258.216 
L 384.668523 259.716 
L 383.168523 258.216 
L 381.668523 259.716 
L 383.168523 261.216 
L 381.668523 262.716 
z
" style="fill:#2f9599;stroke:#ffffff;stroke-width:0.48;"/>
    <path clip-path="url(#pd3465d9753)" d="M 57.892657 17.17468 
L 57.892657 21.41732 
L 62.135298 21.41732 
L 62.135298 17.17468 
z
" style="fill:#a7226e;stroke:#ffffff;stroke-width:0.48;"/>
    <path clip-path="url(#pd3465d9753)" d="M 64.656293 17.17468 
L 64.656293 21.41732 
L 68.898934 21.41732 
L 68.898934 17.17468 
z
" style="fill:#a7226e;stroke:#ffffff;stroke-width:0.48;"/>
    <path clip-path="url(#pd3465d9753)" d="M 71.41993 17.17468 
L 71.41993 21.41732 
L 75.66257 21.41732 
L 75.66257 17.17468 
z
" style="fill:#a7226e;stroke:#ffffff;stroke-width:0.48;"/>
    <path clip-path="url(#pd3465d9753)" d="M 78.183566 17.17468 
L 78.183566 21.41732 
L 82.426207 21.41732 
L 82.426207 17.17468 
z
" style="fill:#a7226e;stroke:#ffffff;stroke-width:0.48;"/>
    <path clip-path="url(#pd3465d9753)" d="M 84.947202 21.93468 
L 84.947202 26.17732 
L 89.189843 26.17732 
L 89.189843 21.93468 
z
" style="fill:#a7226e;stroke:#ffffff;stroke-width:0.48;"/>
    <path clip-path="url(#pd3465d9753)" d="M 91.710839 26.77468 
L 91.710839 31.01732 
L 95.953479 31.01732 
L 95.953479 26.77468 
z
" style="fill:#a7226e;stroke:#ffffff;stroke-width:0.48;"/>
    <path clip-path="url(#pd3465d9753)" d="M 98.474475 26.77468 
L 98.474475 31.01732 
L 102.717116 31.01732 
L 102.717116 26.77468 
z
" style="fill:#a7226e;stroke:#ffffff;stroke-width:0.48;"/>
    <path clip-path="url(#pd3465d9753)" d="M 105.238111 31.696714 
L 105.238111 35.939354 
L 109.480752 35.939354 
L 109.480752 31.696714 
z
" style="fill:#a7226e;stroke:#ffffff;stroke-width:0.48;"/>
    <path clip-path="url(#pd3465d9753)" d="M 112.001748 26.77468 
L 112.001748 31.01732 
L 116.244389 31.01732 
L 116.244389 26.77468 
z
" style="fill:#a7226e;stroke:#ffffff;stroke-width:0.48;"/>
    <path clip-path="url(#pd3465d9753)" d="M 118.765384 21.93468 
L 118.765384 26.17732 
L 123.008025 26.17732 
L 123.008025 21.93468 
z
" style="fill:#a7226e;stroke:#ffffff;stroke-width:0.48;"/>
    <path clip-path="url(#pd3465d9753)" d="M 125.529021 21.93468 
L 125.529021 26.17732 
L 129.771661 26.17732 
L 129.771661 21.93468 
z
" style="fill:#a7226e;stroke:#ffffff;stroke-width:0.48;"/>
    <path clip-path="url(#pd3465d9753)" d="M 132.292657 26.77468 
L 132.292657 31.01732 
L 136.535298 31.01732 
L 136.535298 26.77468 
z
" style="fill:#a7226e;stroke:#ffffff;stroke-width:0.48;"/>
    <path clip-path="url(#pd3465d9753)" d="M 139.056293 26.77468 
L 139.056293 31.01732 
L 143.298934 31.01732 
L 143.298934 26.77468 
z
" style="fill:#a7226e;stroke:#ffffff;stroke-width:0.48;"/>
    <path clip-path="url(#pd3465d9753)" d="M 145.81993 26.77468 
L 145.81993 31.01732 
L 150.06257 31.01732 
L 150.06257 26.77468 
z
" style="fill:#a7226e;stroke:#ffffff;stroke-width:0.48;"/>
    <path clip-path="url(#pd3465d9753)" d="M 152.583566 21.93468 
L 152.583566 26.17732 
L 156.826207 26.17732 
L 156.826207 21.93468 
z
" style="fill:#a7226e;stroke:#ffffff;stroke-width:0.48;"/>
    <path clip-path="url(#pd3465d9753)" d="M 159.347202 26.77468 
L 159.347202 31.01732 
L 163.589843 31.01732 
L 163.589843 26.77468 
z
" style="fill:#a7226e;stroke:#ffffff;stroke-width:0.48;"/>
    <path clip-path="url(#pd3465d9753)" d="M 166.110839 26.77468 
L 166.110839 31.01732 
L 170.353479 31.01732 
L 170.353479 26.77468 
z
" style="fill:#a7226e;stroke:#ffffff;stroke-width:0.48;"/>
    <path clip-path="url(#pd3465d9753)" d="M 172.874475 31.696714 
L 172.874475 35.939354 
L 177.117116 35.939354 
L 177.117116 31.696714 
z
" style="fill:#a7226e;stroke:#ffffff;stroke-width:0.48;"/>
    <path clip-path="url(#pd3465d9753)" d="M 179.638111 31.696714 
L 179.638111 35.939354 
L 183.880752 35.939354 
L 183.880752 31.696714 
z
" style="fill:#a7226e;stroke:#ffffff;stroke-width:0.48;"/>
    <path clip-path="url(#pd3465d9753)" d="M 186.401748 26.77468 
L 186.401748 31.01732 
L 190.644389 31.01732 
L 190.644389 26.77468 
z
" style="fill:#a7226e;stroke:#ffffff;stroke-width:0.48;"/>
    <path clip-path="url(#pd3465d9753)" d="M 193.165384 31.696714 
L 193.165384 35.939354 
L 197.408025 35.939354 
L 197.408025 31.696714 
z
" style="fill:#a7226e;stroke:#ffffff;stroke-width:0.48;"/>
    <path clip-path="url(#pd3465d9753)" d="M 199.929021 31.696714 
L 199.929021 35.939354 
L 204.171661 35.939354 
L 204.171661 31.696714 
z
" style="fill:#a7226e;stroke:#ffffff;stroke-width:0.48;"/>
    <path clip-path="url(#pd3465d9753)" d="M 206.692657 26.77468 
L 206.692657 31.01732 
L 210.935298 31.01732 
L 210.935298 26.77468 
z
" style="fill:#a7226e;stroke:#ffffff;stroke-width:0.48;"/>
    <path clip-path="url(#pd3465d9753)" d="M 213.456293 68.634139 
L 213.456293 72.87678 
L 217.698934 72.87678 
L 217.698934 68.634139 
z
" style="fill:#a7226e;stroke:#ffffff;stroke-width:0.48;"/>
    <path clip-path="url(#pd3465d9753)" d="M 220.21993 46.976419 
L 220.21993 51.219059 
L 224.46257 51.219059 
L 224.46257 46.976419 
z
" style="fill:#a7226e;stroke:#ffffff;stroke-width:0.48;"/>
    <path clip-path="url(#pd3465d9753)" d="M 226.983566 46.976419 
L 226.983566 51.219059 
L 231.226207 51.219059 
L 231.226207 46.976419 
z
" style="fill:#a7226e;stroke:#ffffff;stroke-width:0.48;"/>
    <path clip-path="url(#pd3465d9753)" d="M 233.747202 31.696714 
L 233.747202 35.939354 
L 237.989843 35.939354 
L 237.989843 31.696714 
z
" style="fill:#a7226e;stroke:#ffffff;stroke-width:0.48;"/>
    <path clip-path="url(#pd3465d9753)" d="M 240.510839 68.634139 
L 240.510839 72.87678 
L 244.753479 72.87678 
L 244.753479 68.634139 
z
" style="fill:#a7226e;stroke:#ffffff;stroke-width:0.48;"/>
    <path clip-path="url(#pd3465d9753)" d="M 247.274475 31.696714 
L 247.274475 35.939354 
L 251.517116 35.939354 
L 251.517116 31.696714 
z
" style="fill:#a7226e;stroke:#ffffff;stroke-width:0.48;"/>
    <path clip-path="url(#pd3465d9753)" d="M 254.038111 52.248364 
L 254.038111 56.491005 
L 258.280752 56.491005 
L 258.280752 52.248364 
z
" style="fill:#a7226e;stroke:#ffffff;stroke-width:0.48;"/>
    <path clip-path="url(#pd3465d9753)" d="M 260.801748 52.248364 
L 260.801748 56.491005 
L 265.044389 56.491005 
L 265.044389 52.248364 
z
" style="fill:#a7226e;stroke:#ffffff;stroke-width:0.48;"/>
    <path clip-path="url(#pd3465d9753)" d="M 267.565384 52.248364 
L 267.565384 56.491005 
L 271.808025 56.491005 
L 271.808025 52.248364 
z
" style="fill:#a7226e;stroke:#ffffff;stroke-width:0.48;"/>
    <path clip-path="url(#pd3465d9753)" d="M 274.329021 46.976419 
L 274.329021 51.219059 
L 278.571661 51.219059 
L 278.571661 46.976419 
z
" style="fill:#a7226e;stroke:#ffffff;stroke-width:0.48;"/>
    <path clip-path="url(#pd3465d9753)" d="M 281.092657 259.09468 
L 281.092657 263.33732 
L 285.335298 263.33732 
L 285.335298 259.09468 
z
" style="fill:#a7226e;stroke:#ffffff;stroke-width:0.48;"/>
    <path clip-path="url(#pd3465d9753)" d="M 287.856293 259.09468 
L 287.856293 263.33732 
L 292.098934 263.33732 
L 292.098934 259.09468 
z
" style="fill:#a7226e;stroke:#ffffff;stroke-width:0.48;"/>
    <path clip-path="url(#pd3465d9753)" d="M 294.61993 259.09468 
L 294.61993 263.33732 
L 298.86257 263.33732 
L 298.86257 259.09468 
z
" style="fill:#a7226e;stroke:#ffffff;stroke-width:0.48;"/>
    <path clip-path="url(#pd3465d9753)" d="M 301.383566 259.09468 
L 301.383566 263.33732 
L 305.626207 263.33732 
L 305.626207 259.09468 
z
" style="fill:#a7226e;stroke:#ffffff;stroke-width:0.48;"/>
    <path clip-path="url(#pd3465d9753)" d="M 308.147202 259.09468 
L 308.147202 263.33732 
L 312.389843 263.33732 
L 312.389843 259.09468 
z
" style="fill:#a7226e;stroke:#ffffff;stroke-width:0.48;"/>
    <path clip-path="url(#pd3465d9753)" d="M 314.910839 259.09468 
L 314.910839 263.33732 
L 319.153479 263.33732 
L 319.153479 259.09468 
z
" style="fill:#a7226e;stroke:#ffffff;stroke-width:0.48;"/>
    <path clip-path="url(#pd3465d9753)" d="M 321.674475 259.09468 
L 321.674475 263.33732 
L 325.917116 263.33732 
L 325.917116 259.09468 
z
" style="fill:#a7226e;stroke:#ffffff;stroke-width:0.48;"/>
    <path clip-path="url(#pd3465d9753)" d="M 328.438111 259.09468 
L 328.438111 263.33732 
L 332.680752 263.33732 
L 332.680752 259.09468 
z
" style="fill:#a7226e;stroke:#ffffff;stroke-width:0.48;"/>
    <path clip-path="url(#pd3465d9753)" d="M 335.201748 259.09468 
L 335.201748 263.33732 
L 339.444389 263.33732 
L 339.444389 259.09468 
z
" style="fill:#a7226e;stroke:#ffffff;stroke-width:0.48;"/>
    <path clip-path="url(#pd3465d9753)" d="M 341.965384 259.09468 
L 341.965384 263.33732 
L 346.208025 263.33732 
L 346.208025 259.09468 
z
" style="fill:#a7226e;stroke:#ffffff;stroke-width:0.48;"/>
    <path clip-path="url(#pd3465d9753)" d="M 348.729021 259.09468 
L 348.729021 263.33732 
L 352.971661 263.33732 
L 352.971661 259.09468 
z
" style="fill:#a7226e;stroke:#ffffff;stroke-width:0.48;"/>
    <path clip-path="url(#pd3465d9753)" d="M 355.492657 259.09468 
L 355.492657 263.33732 
L 359.735298 263.33732 
L 359.735298 259.09468 
z
" style="fill:#a7226e;stroke:#ffffff;stroke-width:0.48;"/>
    <path clip-path="url(#pd3465d9753)" d="M 362.256293 259.09468 
L 362.256293 263.33732 
L 366.498934 263.33732 
L 366.498934 259.09468 
z
" style="fill:#a7226e;stroke:#ffffff;stroke-width:0.48;"/>
    <path clip-path="url(#pd3465d9753)" d="M 369.01993 259.09468 
L 369.01993 263.33732 
L 373.26257 263.33732 
L 373.26257 259.09468 
z
" style="fill:#a7226e;stroke:#ffffff;stroke-width:0.48;"/>
    <path clip-path="url(#pd3465d9753)" d="M 375.783566 259.09468 
L 375.783566 263.33732 
L 380.026207 263.33732 
L 380.026207 259.09468 
z
" style="fill:#a7226e;stroke:#ffffff;stroke-width:0.48;"/>
    <path clip-path="url(#pd3465d9753)" d="M 382.547202 259.09468 
L 382.547202 263.33732 
L 386.789843 263.33732 
L 386.789843 259.09468 
z
" style="fill:#a7226e;stroke:#ffffff;stroke-width:0.48;"/>
   </g>
   <g id="PathCollection_2"/>
   <g id="PathCollection_3"/>
   <g id="PathCollection_4"/>
   <g id="matplotlib.axis_1">
    <g id="xtick_1">
     <g id="line2d_1">
      <defs>
       <path d="M 0 0 
L 0 3.5 
" id="m09d93de0f8" style="stroke:#000000;stroke-width:0.8;"/>
      </defs>
      <g>
       <use style="stroke:#000000;stroke-width:0.8;" x="53.250341" xlink:href="#m09d93de0f8" y="273.312"/>
      </g>
     </g>
     <g id="text_1">
      <!-- 0.0 -->
      <g transform="translate(45.298778 287.910437)scale(0.1 -0.1)">
       <defs>
        <path d="M 31.78125 66.40625 
Q 24.171875 66.40625 20.328125 58.90625 
Q 16.5 51.421875 16.5 36.375 
Q 16.5 21.390625 20.328125 13.890625 
Q 24.171875 6.390625 31.78125 6.390625 
Q 39.453125 6.390625 43.28125 13.890625 
Q 47.125 21.390625 47.125 36.375 
Q 47.125 51.421875 43.28125 58.90625 
Q 39.453125 66.40625 31.78125 66.40625 
z
M 31.78125 74.21875 
Q 44.046875 74.21875 50.515625 64.515625 
Q 56.984375 54.828125 56.984375 36.375 
Q 56.984375 17.96875 50.515625 8.265625 
Q 44.046875 -1.421875 31.78125 -1.421875 
Q 19.53125 -1.421875 13.0625 8.265625 
Q 6.59375 17.96875 6.59375 36.375 
Q 6.59375 54.828125 13.0625 64.515625 
Q 19.53125 74.21875 31.78125 74.21875 
z
" id="DejaVuSans-48"/>
        <path d="M 10.6875 12.40625 
L 21 12.40625 
L 21 0 
L 10.6875 0 
z
" id="DejaVuSans-46"/>
       </defs>
       <use xlink:href="#DejaVuSans-48"/>
       <use x="63.623047" xlink:href="#DejaVuSans-46"/>
       <use x="95.410156" xlink:href="#DejaVuSans-48"/>
      </g>
     </g>
    </g>
    <g id="xtick_2">
     <g id="line2d_2">
      <g>
       <use style="stroke:#000000;stroke-width:0.8;" x="120.886705" xlink:href="#m09d93de0f8" y="273.312"/>
      </g>
     </g>
     <g id="text_2">
      <!-- 0.2 -->
      <g transform="translate(112.935142 287.910437)scale(0.1 -0.1)">
       <defs>
        <path d="M 19.1875 8.296875 
L 53.609375 8.296875 
L 53.609375 0 
L 7.328125 0 
L 7.328125 8.296875 
Q 12.9375 14.109375 22.625 23.890625 
Q 32.328125 33.6875 34.8125 36.53125 
Q 39.546875 41.84375 41.421875 45.53125 
Q 43.3125 49.21875 43.3125 52.78125 
Q 43.3125 58.59375 39.234375 62.25 
Q 35.15625 65.921875 28.609375 65.921875 
Q 23.96875 65.921875 18.8125 64.3125 
Q 13.671875 62.703125 7.8125 59.421875 
L 7.8125 69.390625 
Q 13.765625 71.78125 18.9375 73 
Q 24.125 74.21875 28.421875 74.21875 
Q 39.75 74.21875 46.484375 68.546875 
Q 53.21875 62.890625 53.21875 53.421875 
Q 53.21875 48.921875 51.53125 44.890625 
Q 49.859375 40.875 45.40625 35.40625 
Q 44.1875 33.984375 37.640625 27.21875 
Q 31.109375 20.453125 19.1875 8.296875 
z
" id="DejaVuSans-50"/>
       </defs>
       <use xlink:href="#DejaVuSans-48"/>
       <use x="63.623047" xlink:href="#DejaVuSans-46"/>
       <use x="95.410156" xlink:href="#DejaVuSans-50"/>
      </g>
     </g>
    </g>
    <g id="xtick_3">
     <g id="line2d_3">
      <g>
       <use style="stroke:#000000;stroke-width:0.8;" x="188.523068" xlink:href="#m09d93de0f8" y="273.312"/>
      </g>
     </g>
     <g id="text_3">
      <!-- 0.4 -->
      <g transform="translate(180.571506 287.910437)scale(0.1 -0.1)">
       <defs>
        <path d="M 37.796875 64.3125 
L 12.890625 25.390625 
L 37.796875 25.390625 
z
M 35.203125 72.90625 
L 47.609375 72.90625 
L 47.609375 25.390625 
L 58.015625 25.390625 
L 58.015625 17.1875 
L 47.609375 17.1875 
L 47.609375 0 
L 37.796875 0 
L 37.796875 17.1875 
L 4.890625 17.1875 
L 4.890625 26.703125 
z
" id="DejaVuSans-52"/>
       </defs>
       <use xlink:href="#DejaVuSans-48"/>
       <use x="63.623047" xlink:href="#DejaVuSans-46"/>
       <use x="95.410156" xlink:href="#DejaVuSans-52"/>
      </g>
     </g>
    </g>
    <g id="xtick_4">
     <g id="line2d_4">
      <g>
       <use style="stroke:#000000;stroke-width:0.8;" x="256.159432" xlink:href="#m09d93de0f8" y="273.312"/>
      </g>
     </g>
     <g id="text_4">
      <!-- 0.6 -->
      <g transform="translate(248.207869 287.910437)scale(0.1 -0.1)">
       <defs>
        <path d="M 33.015625 40.375 
Q 26.375 40.375 22.484375 35.828125 
Q 18.609375 31.296875 18.609375 23.390625 
Q 18.609375 15.53125 22.484375 10.953125 
Q 26.375 6.390625 33.015625 6.390625 
Q 39.65625 6.390625 43.53125 10.953125 
Q 47.40625 15.53125 47.40625 23.390625 
Q 47.40625 31.296875 43.53125 35.828125 
Q 39.65625 40.375 33.015625 40.375 
z
M 52.59375 71.296875 
L 52.59375 62.3125 
Q 48.875 64.0625 45.09375 64.984375 
Q 41.3125 65.921875 37.59375 65.921875 
Q 27.828125 65.921875 22.671875 59.328125 
Q 17.53125 52.734375 16.796875 39.40625 
Q 19.671875 43.65625 24.015625 45.921875 
Q 28.375 48.1875 33.59375 48.1875 
Q 44.578125 48.1875 50.953125 41.515625 
Q 57.328125 34.859375 57.328125 23.390625 
Q 57.328125 12.15625 50.6875 5.359375 
Q 44.046875 -1.421875 33.015625 -1.421875 
Q 20.359375 -1.421875 13.671875 8.265625 
Q 6.984375 17.96875 6.984375 36.375 
Q 6.984375 53.65625 15.1875 63.9375 
Q 23.390625 74.21875 37.203125 74.21875 
Q 40.921875 74.21875 44.703125 73.484375 
Q 48.484375 72.75 52.59375 71.296875 
z
" id="DejaVuSans-54"/>
       </defs>
       <use xlink:href="#DejaVuSans-48"/>
       <use x="63.623047" xlink:href="#DejaVuSans-46"/>
       <use x="95.410156" xlink:href="#DejaVuSans-54"/>
      </g>
     </g>
    </g>
    <g id="xtick_5">
     <g id="line2d_5">
      <g>
       <use style="stroke:#000000;stroke-width:0.8;" x="323.795795" xlink:href="#m09d93de0f8" y="273.312"/>
      </g>
     </g>
     <g id="text_5">
      <!-- 0.8 -->
      <g transform="translate(315.844233 287.910437)scale(0.1 -0.1)">
       <defs>
        <path d="M 31.78125 34.625 
Q 24.75 34.625 20.71875 30.859375 
Q 16.703125 27.09375 16.703125 20.515625 
Q 16.703125 13.921875 20.71875 10.15625 
Q 24.75 6.390625 31.78125 6.390625 
Q 38.8125 6.390625 42.859375 10.171875 
Q 46.921875 13.96875 46.921875 20.515625 
Q 46.921875 27.09375 42.890625 30.859375 
Q 38.875 34.625 31.78125 34.625 
z
M 21.921875 38.8125 
Q 15.578125 40.375 12.03125 44.71875 
Q 8.5 49.078125 8.5 55.328125 
Q 8.5 64.0625 14.71875 69.140625 
Q 20.953125 74.21875 31.78125 74.21875 
Q 42.671875 74.21875 48.875 69.140625 
Q 55.078125 64.0625 55.078125 55.328125 
Q 55.078125 49.078125 51.53125 44.71875 
Q 48 40.375 41.703125 38.8125 
Q 48.828125 37.15625 52.796875 32.3125 
Q 56.78125 27.484375 56.78125 20.515625 
Q 56.78125 9.90625 50.3125 4.234375 
Q 43.84375 -1.421875 31.78125 -1.421875 
Q 19.734375 -1.421875 13.25 4.234375 
Q 6.78125 9.90625 6.78125 20.515625 
Q 6.78125 27.484375 10.78125 32.3125 
Q 14.796875 37.15625 21.921875 38.8125 
z
M 18.3125 54.390625 
Q 18.3125 48.734375 21.84375 45.5625 
Q 25.390625 42.390625 31.78125 42.390625 
Q 38.140625 42.390625 41.71875 45.5625 
Q 45.3125 48.734375 45.3125 54.390625 
Q 45.3125 60.0625 41.71875 63.234375 
Q 38.140625 66.40625 31.78125 66.40625 
Q 25.390625 66.40625 21.84375 63.234375 
Q 18.3125 60.0625 18.3125 54.390625 
z
" id="DejaVuSans-56"/>
       </defs>
       <use xlink:href="#DejaVuSans-48"/>
       <use x="63.623047" xlink:href="#DejaVuSans-46"/>
       <use x="95.410156" xlink:href="#DejaVuSans-56"/>
      </g>
     </g>
    </g>
    <g id="xtick_6">
     <g id="line2d_6">
      <g>
       <use style="stroke:#000000;stroke-width:0.8;" x="391.432159" xlink:href="#m09d93de0f8" y="273.312"/>
      </g>
     </g>
     <g id="text_6">
      <!-- 1.0 -->
      <g transform="translate(383.480597 287.910437)scale(0.1 -0.1)">
       <defs>
        <path d="M 12.40625 8.296875 
L 28.515625 8.296875 
L 28.515625 63.921875 
L 10.984375 60.40625 
L 10.984375 69.390625 
L 28.421875 72.90625 
L 38.28125 72.90625 
L 38.28125 8.296875 
L 54.390625 8.296875 
L 54.390625 0 
L 12.40625 0 
z
" id="DejaVuSans-49"/>
       </defs>
       <use xlink:href="#DejaVuSans-49"/>
       <use x="63.623047" xlink:href="#DejaVuSans-46"/>
       <use x="95.410156" xlink:href="#DejaVuSans-48"/>
      </g>
     </g>
    </g>
    <g id="text_7">
     <!-- cutoff -->
     <g transform="translate(207.883438 301.588562)scale(0.1 -0.1)">
      <defs>
       <path d="M 48.78125 52.59375 
L 48.78125 44.1875 
Q 44.96875 46.296875 41.140625 47.34375 
Q 37.3125 48.390625 33.40625 48.390625 
Q 24.65625 48.390625 19.8125 42.84375 
Q 14.984375 37.3125 14.984375 27.296875 
Q 14.984375 17.28125 19.8125 11.734375 
Q 24.65625 6.203125 33.40625 6.203125 
Q 37.3125 6.203125 41.140625 7.25 
Q 44.96875 8.296875 48.78125 10.40625 
L 48.78125 2.09375 
Q 45.015625 0.34375 40.984375 -0.53125 
Q 36.96875 -1.421875 32.421875 -1.421875 
Q 20.0625 -1.421875 12.78125 6.34375 
Q 5.515625 14.109375 5.515625 27.296875 
Q 5.515625 40.671875 12.859375 48.328125 
Q 20.21875 56 33.015625 56 
Q 37.15625 56 41.109375 55.140625 
Q 45.0625 54.296875 48.78125 52.59375 
z
" id="DejaVuSans-99"/>
       <path d="M 8.5 21.578125 
L 8.5 54.6875 
L 17.484375 54.6875 
L 17.484375 21.921875 
Q 17.484375 14.15625 20.5 10.265625 
Q 23.53125 6.390625 29.59375 6.390625 
Q 36.859375 6.390625 41.078125 11.03125 
Q 45.3125 15.671875 45.3125 23.6875 
L 45.3125 54.6875 
L 54.296875 54.6875 
L 54.296875 0 
L 45.3125 0 
L 45.3125 8.40625 
Q 42.046875 3.421875 37.71875 1 
Q 33.40625 -1.421875 27.6875 -1.421875 
Q 18.265625 -1.421875 13.375 4.4375 
Q 8.5 10.296875 8.5 21.578125 
z
M 31.109375 56 
z
" id="DejaVuSans-117"/>
       <path d="M 18.3125 70.21875 
L 18.3125 54.6875 
L 36.8125 54.6875 
L 36.8125 47.703125 
L 18.3125 47.703125 
L 18.3125 18.015625 
Q 18.3125 11.328125 20.140625 9.421875 
Q 21.96875 7.515625 27.59375 7.515625 
L 36.8125 7.515625 
L 36.8125 0 
L 27.59375 0 
Q 17.1875 0 13.234375 3.875 
Q 9.28125 7.765625 9.28125 18.015625 
L 9.28125 47.703125 
L 2.6875 47.703125 
L 2.6875 54.6875 
L 9.28125 54.6875 
L 9.28125 70.21875 
z
" id="DejaVuSans-116"/>
       <path d="M 30.609375 48.390625 
Q 23.390625 48.390625 19.1875 42.75 
Q 14.984375 37.109375 14.984375 27.296875 
Q 14.984375 17.484375 19.15625 11.84375 
Q 23.34375 6.203125 30.609375 6.203125 
Q 37.796875 6.203125 41.984375 11.859375 
Q 46.1875 17.53125 46.1875 27.296875 
Q 46.1875 37.015625 41.984375 42.703125 
Q 37.796875 48.390625 30.609375 48.390625 
z
M 30.609375 56 
Q 42.328125 56 49.015625 48.375 
Q 55.71875 40.765625 55.71875 27.296875 
Q 55.71875 13.875 49.015625 6.21875 
Q 42.328125 -1.421875 30.609375 -1.421875 
Q 18.84375 -1.421875 12.171875 6.21875 
Q 5.515625 13.875 5.515625 27.296875 
Q 5.515625 40.765625 12.171875 48.375 
Q 18.84375 56 30.609375 56 
z
" id="DejaVuSans-111"/>
       <path d="M 37.109375 75.984375 
L 37.109375 68.5 
L 28.515625 68.5 
Q 23.6875 68.5 21.796875 66.546875 
Q 19.921875 64.59375 19.921875 59.515625 
L 19.921875 54.6875 
L 34.71875 54.6875 
L 34.71875 47.703125 
L 19.921875 47.703125 
L 19.921875 0 
L 10.890625 0 
L 10.890625 47.703125 
L 2.296875 47.703125 
L 2.296875 54.6875 
L 10.890625 54.6875 
L 10.890625 58.5 
Q 10.890625 67.625 15.140625 71.796875 
Q 19.390625 75.984375 28.609375 75.984375 
z
" id="DejaVuSans-102"/>
      </defs>
      <use xlink:href="#DejaVuSans-99"/>
      <use x="54.980469" xlink:href="#DejaVuSans-117"/>
      <use x="118.359375" xlink:href="#DejaVuSans-116"/>
      <use x="157.568359" xlink:href="#DejaVuSans-111"/>
      <use x="218.75" xlink:href="#DejaVuSans-102"/>
      <use x="253.955078" xlink:href="#DejaVuSans-102"/>
     </g>
    </g>
   </g>
   <g id="matplotlib.axis_2">
    <g id="ytick_1">
     <g id="line2d_7">
      <defs>
       <path d="M 0 0 
L -3.5 0 
" id="mec356cf9bc" style="stroke:#000000;stroke-width:0.8;"/>
      </defs>
      <g>
       <use style="stroke:#000000;stroke-width:0.8;" x="43.78125" xlink:href="#mec356cf9bc" y="239.17359"/>
      </g>
     </g>
     <g id="text_8">
      <!-- 0.1 -->
      <g transform="translate(20.878125 242.972809)scale(0.1 -0.1)">
       <use xlink:href="#DejaVuSans-48"/>
       <use x="63.623047" xlink:href="#DejaVuSans-46"/>
       <use x="95.410156" xlink:href="#DejaVuSans-49"/>
      </g>
     </g>
    </g>
    <g id="ytick_2">
     <g id="line2d_8">
      <g>
       <use style="stroke:#000000;stroke-width:0.8;" x="43.78125" xlink:href="#mec356cf9bc" y="197.537928"/>
      </g>
     </g>
     <g id="text_9">
      <!-- 0.2 -->
      <g transform="translate(20.878125 201.337146)scale(0.1 -0.1)">
       <use xlink:href="#DejaVuSans-48"/>
       <use x="63.623047" xlink:href="#DejaVuSans-46"/>
       <use x="95.410156" xlink:href="#DejaVuSans-50"/>
      </g>
     </g>
    </g>
    <g id="ytick_3">
     <g id="line2d_9">
      <g>
       <use style="stroke:#000000;stroke-width:0.8;" x="43.78125" xlink:href="#mec356cf9bc" y="155.902265"/>
      </g>
     </g>
     <g id="text_10">
      <!-- 0.3 -->
      <g transform="translate(20.878125 159.701484)scale(0.1 -0.1)">
       <defs>
        <path d="M 40.578125 39.3125 
Q 47.65625 37.796875 51.625 33 
Q 55.609375 28.21875 55.609375 21.1875 
Q 55.609375 10.40625 48.1875 4.484375 
Q 40.765625 -1.421875 27.09375 -1.421875 
Q 22.515625 -1.421875 17.65625 -0.515625 
Q 12.796875 0.390625 7.625 2.203125 
L 7.625 11.71875 
Q 11.71875 9.328125 16.59375 8.109375 
Q 21.484375 6.890625 26.8125 6.890625 
Q 36.078125 6.890625 40.9375 10.546875 
Q 45.796875 14.203125 45.796875 21.1875 
Q 45.796875 27.640625 41.28125 31.265625 
Q 36.765625 34.90625 28.71875 34.90625 
L 20.21875 34.90625 
L 20.21875 43.015625 
L 29.109375 43.015625 
Q 36.375 43.015625 40.234375 45.921875 
Q 44.09375 48.828125 44.09375 54.296875 
Q 44.09375 59.90625 40.109375 62.90625 
Q 36.140625 65.921875 28.71875 65.921875 
Q 24.65625 65.921875 20.015625 65.03125 
Q 15.375 64.15625 9.8125 62.3125 
L 9.8125 71.09375 
Q 15.4375 72.65625 20.34375 73.4375 
Q 25.25 74.21875 29.59375 74.21875 
Q 40.828125 74.21875 47.359375 69.109375 
Q 53.90625 64.015625 53.90625 55.328125 
Q 53.90625 49.265625 50.4375 45.09375 
Q 46.96875 40.921875 40.578125 39.3125 
z
" id="DejaVuSans-51"/>
       </defs>
       <use xlink:href="#DejaVuSans-48"/>
       <use x="63.623047" xlink:href="#DejaVuSans-46"/>
       <use x="95.410156" xlink:href="#DejaVuSans-51"/>
      </g>
     </g>
    </g>
    <g id="ytick_4">
     <g id="line2d_10">
      <g>
       <use style="stroke:#000000;stroke-width:0.8;" x="43.78125" xlink:href="#mec356cf9bc" y="114.266602"/>
      </g>
     </g>
     <g id="text_11">
      <!-- 0.4 -->
      <g transform="translate(20.878125 118.065821)scale(0.1 -0.1)">
       <use xlink:href="#DejaVuSans-48"/>
       <use x="63.623047" xlink:href="#DejaVuSans-46"/>
       <use x="95.410156" xlink:href="#DejaVuSans-52"/>
      </g>
     </g>
    </g>
    <g id="ytick_5">
     <g id="line2d_11">
      <g>
       <use style="stroke:#000000;stroke-width:0.8;" x="43.78125" xlink:href="#mec356cf9bc" y="72.63094"/>
      </g>
     </g>
     <g id="text_12">
      <!-- 0.5 -->
      <g transform="translate(20.878125 76.430159)scale(0.1 -0.1)">
       <defs>
        <path d="M 10.796875 72.90625 
L 49.515625 72.90625 
L 49.515625 64.59375 
L 19.828125 64.59375 
L 19.828125 46.734375 
Q 21.96875 47.46875 24.109375 47.828125 
Q 26.265625 48.1875 28.421875 48.1875 
Q 40.625 48.1875 47.75 41.5 
Q 54.890625 34.8125 54.890625 23.390625 
Q 54.890625 11.625 47.5625 5.09375 
Q 40.234375 -1.421875 26.90625 -1.421875 
Q 22.3125 -1.421875 17.546875 -0.640625 
Q 12.796875 0.140625 7.71875 1.703125 
L 7.71875 11.625 
Q 12.109375 9.234375 16.796875 8.0625 
Q 21.484375 6.890625 26.703125 6.890625 
Q 35.15625 6.890625 40.078125 11.328125 
Q 45.015625 15.765625 45.015625 23.390625 
Q 45.015625 31 40.078125 35.4375 
Q 35.15625 39.890625 26.703125 39.890625 
Q 22.75 39.890625 18.8125 39.015625 
Q 14.890625 38.140625 10.796875 36.28125 
z
" id="DejaVuSans-53"/>
       </defs>
       <use xlink:href="#DejaVuSans-48"/>
       <use x="63.623047" xlink:href="#DejaVuSans-46"/>
       <use x="95.410156" xlink:href="#DejaVuSans-53"/>
      </g>
     </g>
    </g>
    <g id="ytick_6">
     <g id="line2d_12">
      <g>
       <use style="stroke:#000000;stroke-width:0.8;" x="43.78125" xlink:href="#mec356cf9bc" y="30.995277"/>
      </g>
     </g>
     <g id="text_13">
      <!-- 0.6 -->
      <g transform="translate(20.878125 34.794496)scale(0.1 -0.1)">
       <use xlink:href="#DejaVuSans-48"/>
       <use x="63.623047" xlink:href="#DejaVuSans-46"/>
       <use x="95.410156" xlink:href="#DejaVuSans-54"/>
      </g>
     </g>
    </g>
    <g id="text_14">
     <!-- performance -->
     <g transform="translate(14.798438 172.278656)rotate(-90)scale(0.1 -0.1)">
      <defs>
       <path d="M 18.109375 8.203125 
L 18.109375 -20.796875 
L 9.078125 -20.796875 
L 9.078125 54.6875 
L 18.109375 54.6875 
L 18.109375 46.390625 
Q 20.953125 51.265625 25.265625 53.625 
Q 29.59375 56 35.59375 56 
Q 45.5625 56 51.78125 48.09375 
Q 58.015625 40.1875 58.015625 27.296875 
Q 58.015625 14.40625 51.78125 6.484375 
Q 45.5625 -1.421875 35.59375 -1.421875 
Q 29.59375 -1.421875 25.265625 0.953125 
Q 20.953125 3.328125 18.109375 8.203125 
z
M 48.6875 27.296875 
Q 48.6875 37.203125 44.609375 42.84375 
Q 40.53125 48.484375 33.40625 48.484375 
Q 26.265625 48.484375 22.1875 42.84375 
Q 18.109375 37.203125 18.109375 27.296875 
Q 18.109375 17.390625 22.1875 11.75 
Q 26.265625 6.109375 33.40625 6.109375 
Q 40.53125 6.109375 44.609375 11.75 
Q 48.6875 17.390625 48.6875 27.296875 
z
" id="DejaVuSans-112"/>
       <path d="M 56.203125 29.59375 
L 56.203125 25.203125 
L 14.890625 25.203125 
Q 15.484375 15.921875 20.484375 11.0625 
Q 25.484375 6.203125 34.421875 6.203125 
Q 39.59375 6.203125 44.453125 7.46875 
Q 49.3125 8.734375 54.109375 11.28125 
L 54.109375 2.78125 
Q 49.265625 0.734375 44.1875 -0.34375 
Q 39.109375 -1.421875 33.890625 -1.421875 
Q 20.796875 -1.421875 13.15625 6.1875 
Q 5.515625 13.8125 5.515625 26.8125 
Q 5.515625 40.234375 12.765625 48.109375 
Q 20.015625 56 32.328125 56 
Q 43.359375 56 49.78125 48.890625 
Q 56.203125 41.796875 56.203125 29.59375 
z
M 47.21875 32.234375 
Q 47.125 39.59375 43.09375 43.984375 
Q 39.0625 48.390625 32.421875 48.390625 
Q 24.90625 48.390625 20.390625 44.140625 
Q 15.875 39.890625 15.1875 32.171875 
z
" id="DejaVuSans-101"/>
       <path d="M 41.109375 46.296875 
Q 39.59375 47.171875 37.8125 47.578125 
Q 36.03125 48 33.890625 48 
Q 26.265625 48 22.1875 43.046875 
Q 18.109375 38.09375 18.109375 28.8125 
L 18.109375 0 
L 9.078125 0 
L 9.078125 54.6875 
L 18.109375 54.6875 
L 18.109375 46.1875 
Q 20.953125 51.171875 25.484375 53.578125 
Q 30.03125 56 36.53125 56 
Q 37.453125 56 38.578125 55.875 
Q 39.703125 55.765625 41.0625 55.515625 
z
" id="DejaVuSans-114"/>
       <path d="M 52 44.1875 
Q 55.375 50.25 60.0625 53.125 
Q 64.75 56 71.09375 56 
Q 79.640625 56 84.28125 50.015625 
Q 88.921875 44.046875 88.921875 33.015625 
L 88.921875 0 
L 79.890625 0 
L 79.890625 32.71875 
Q 79.890625 40.578125 77.09375 44.375 
Q 74.3125 48.1875 68.609375 48.1875 
Q 61.625 48.1875 57.5625 43.546875 
Q 53.515625 38.921875 53.515625 30.90625 
L 53.515625 0 
L 44.484375 0 
L 44.484375 32.71875 
Q 44.484375 40.625 41.703125 44.40625 
Q 38.921875 48.1875 33.109375 48.1875 
Q 26.21875 48.1875 22.15625 43.53125 
Q 18.109375 38.875 18.109375 30.90625 
L 18.109375 0 
L 9.078125 0 
L 9.078125 54.6875 
L 18.109375 54.6875 
L 18.109375 46.1875 
Q 21.1875 51.21875 25.484375 53.609375 
Q 29.78125 56 35.6875 56 
Q 41.65625 56 45.828125 52.96875 
Q 50 49.953125 52 44.1875 
z
" id="DejaVuSans-109"/>
       <path d="M 34.28125 27.484375 
Q 23.390625 27.484375 19.1875 25 
Q 14.984375 22.515625 14.984375 16.5 
Q 14.984375 11.71875 18.140625 8.90625 
Q 21.296875 6.109375 26.703125 6.109375 
Q 34.1875 6.109375 38.703125 11.40625 
Q 43.21875 16.703125 43.21875 25.484375 
L 43.21875 27.484375 
z
M 52.203125 31.203125 
L 52.203125 0 
L 43.21875 0 
L 43.21875 8.296875 
Q 40.140625 3.328125 35.546875 0.953125 
Q 30.953125 -1.421875 24.3125 -1.421875 
Q 15.921875 -1.421875 10.953125 3.296875 
Q 6 8.015625 6 15.921875 
Q 6 25.140625 12.171875 29.828125 
Q 18.359375 34.515625 30.609375 34.515625 
L 43.21875 34.515625 
L 43.21875 35.40625 
Q 43.21875 41.609375 39.140625 45 
Q 35.0625 48.390625 27.6875 48.390625 
Q 23 48.390625 18.546875 47.265625 
Q 14.109375 46.140625 10.015625 43.890625 
L 10.015625 52.203125 
Q 14.9375 54.109375 19.578125 55.046875 
Q 24.21875 56 28.609375 56 
Q 40.484375 56 46.34375 49.84375 
Q 52.203125 43.703125 52.203125 31.203125 
z
" id="DejaVuSans-97"/>
       <path d="M 54.890625 33.015625 
L 54.890625 0 
L 45.90625 0 
L 45.90625 32.71875 
Q 45.90625 40.484375 42.875 44.328125 
Q 39.84375 48.1875 33.796875 48.1875 
Q 26.515625 48.1875 22.3125 43.546875 
Q 18.109375 38.921875 18.109375 30.90625 
L 18.109375 0 
L 9.078125 0 
L 9.078125 54.6875 
L 18.109375 54.6875 
L 18.109375 46.1875 
Q 21.34375 51.125 25.703125 53.5625 
Q 30.078125 56 35.796875 56 
Q 45.21875 56 50.046875 50.171875 
Q 54.890625 44.34375 54.890625 33.015625 
z
" id="DejaVuSans-110"/>
      </defs>
      <use xlink:href="#DejaVuSans-112"/>
      <use x="63.476562" xlink:href="#DejaVuSans-101"/>
      <use x="125" xlink:href="#DejaVuSans-114"/>
      <use x="166.113281" xlink:href="#DejaVuSans-102"/>
      <use x="201.318359" xlink:href="#DejaVuSans-111"/>
      <use x="262.5" xlink:href="#DejaVuSans-114"/>
      <use x="301.863281" xlink:href="#DejaVuSans-109"/>
      <use x="399.275391" xlink:href="#DejaVuSans-97"/>
      <use x="460.554688" xlink:href="#DejaVuSans-110"/>
      <use x="523.933594" xlink:href="#DejaVuSans-99"/>
      <use x="578.914062" xlink:href="#DejaVuSans-101"/>
     </g>
    </g>
   </g>
   <g id="line2d_13">
    <path clip-path="url(#pd3465d9753)" d="M 60.013977 19.296 
L 66.777614 24.056 
L 73.54125 24.056 
L 80.304886 24.056 
L 87.068523 19.296 
L 93.832159 24.056 
L 100.595795 28.896 
L 107.359432 28.896 
L 114.123068 28.896 
L 120.886705 33.818034 
L 127.650341 65.196 
L 134.413977 82.180404 
L 141.177614 112.665231 
L 147.94125 94.032449 
L 154.704886 119.117359 
L 161.468523 119.117359 
L 168.232159 119.117359 
L 174.995795 119.117359 
L 181.759432 119.117359 
L 188.523068 119.117359 
L 195.286705 119.117359 
L 202.050341 119.117359 
L 208.813977 119.117359 
L 215.577614 112.665231 
L 222.34125 183.364085 
L 229.104886 261.216 
L 235.868523 261.216 
L 242.632159 261.216 
L 249.395795 261.216 
L 256.159432 261.216 
L 262.923068 261.216 
L 269.686705 261.216 
L 276.450341 261.216 
L 283.213977 261.216 
L 289.977614 261.216 
L 296.74125 261.216 
L 303.504886 261.216 
L 310.268523 261.216 
L 317.032159 261.216 
L 323.795795 261.216 
L 330.559432 261.216 
L 337.323068 261.216 
L 344.086705 261.216 
L 350.850341 261.216 
L 357.613977 261.216 
L 364.377614 261.216 
L 371.14125 261.216 
L 377.904886 261.216 
L 384.668523 261.216 
" style="fill:none;stroke:#f26b38;stroke-dasharray:7.4,3.2;stroke-dashoffset:0;stroke-width:2;"/>
   </g>
   <g id="line2d_14">
    <path clip-path="url(#pd3465d9753)" d="M 60.013977 24.056 
L 66.777614 28.896 
L 73.54125 65.196 
L 80.304886 100.126189 
L 87.068523 94.032449 
L 93.832159 119.117359 
L 100.595795 119.117359 
L 107.359432 119.117359 
L 114.123068 119.117359 
L 120.886705 100.126189 
L 127.650341 76.416 
L 134.413977 153.353143 
L 141.177614 153.353143 
L 147.94125 153.353143 
L 154.704886 153.353143 
L 161.468523 146.229333 
L 168.232159 261.216 
L 174.995795 261.216 
L 181.759432 261.216 
L 188.523068 261.216 
L 195.286705 261.216 
L 202.050341 261.216 
L 208.813977 261.216 
L 215.577614 261.216 
L 222.34125 261.216 
L 229.104886 261.216 
L 235.868523 261.216 
L 242.632159 261.216 
L 249.395795 261.216 
L 256.159432 261.216 
L 262.923068 261.216 
L 269.686705 261.216 
L 276.450341 261.216 
L 283.213977 261.216 
L 289.977614 261.216 
L 296.74125 261.216 
L 303.504886 261.216 
L 310.268523 261.216 
L 317.032159 261.216 
L 323.795795 261.216 
L 330.559432 261.216 
L 337.323068 261.216 
L 344.086705 261.216 
L 350.850341 261.216 
L 357.613977 261.216 
L 364.377614 261.216 
L 371.14125 261.216 
L 377.904886 261.216 
L 384.668523 261.216 
" style="fill:none;stroke:#2f9599;stroke-dasharray:2,3.3;stroke-dashoffset:0;stroke-width:2;"/>
   </g>
   <g id="line2d_15">
    <path clip-path="url(#pd3465d9753)" d="M 60.013977 19.296 
L 66.777614 19.296 
L 73.54125 19.296 
L 80.304886 19.296 
L 87.068523 24.056 
L 93.832159 28.896 
L 100.595795 28.896 
L 107.359432 33.818034 
L 114.123068 28.896 
L 120.886705 24.056 
L 127.650341 24.056 
L 134.413977 28.896 
L 141.177614 28.896 
L 147.94125 28.896 
L 154.704886 24.056 
L 161.468523 28.896 
L 168.232159 28.896 
L 174.995795 33.818034 
L 181.759432 33.818034 
L 188.523068 28.896 
L 195.286705 33.818034 
L 202.050341 33.818034 
L 208.813977 28.896 
L 215.577614 70.755459 
L 222.34125 49.097739 
L 229.104886 49.097739 
L 235.868523 33.818034 
L 242.632159 70.755459 
L 249.395795 33.818034 
L 256.159432 54.369684 
L 262.923068 54.369684 
L 269.686705 54.369684 
L 276.450341 49.097739 
L 283.213977 261.216 
L 289.977614 261.216 
L 296.74125 261.216 
L 303.504886 261.216 
L 310.268523 261.216 
L 317.032159 261.216 
L 323.795795 261.216 
L 330.559432 261.216 
L 337.323068 261.216 
L 344.086705 261.216 
L 350.850341 261.216 
L 357.613977 261.216 
L 364.377614 261.216 
L 371.14125 261.216 
L 377.904886 261.216 
L 384.668523 261.216 
" style="fill:none;stroke:#a7226e;stroke-dasharray:12.8,3.2,2,3.2;stroke-dashoffset:0;stroke-width:2;"/>
   </g>
   <g id="patch_3">
    <path d="M 43.78125 273.312 
L 43.78125 7.2 
" style="fill:none;stroke:#000000;stroke-linecap:square;stroke-linejoin:miter;stroke-width:0.8;"/>
   </g>
   <g id="patch_4">
    <path d="M 400.90125 273.312 
L 400.90125 7.2 
" style="fill:none;stroke:#000000;stroke-linecap:square;stroke-linejoin:miter;stroke-width:0.8;"/>
   </g>
   <g id="patch_5">
    <path d="M 43.78125 273.312 
L 400.90125 273.312 
" style="fill:none;stroke:#000000;stroke-linecap:square;stroke-linejoin:miter;stroke-width:0.8;"/>
   </g>
   <g id="patch_6">
    <path d="M 43.78125 7.2 
L 400.90125 7.2 
" style="fill:none;stroke:#000000;stroke-linecap:square;stroke-linejoin:miter;stroke-width:0.8;"/>
   </g>
   <g id="legend_1">
    <g id="patch_7">
     <path d="M 315.427559 43.890912 
L 396.04325 43.890912 
Q 397.43125 43.890912 397.43125 42.502912 
L 397.43125 12.058 
Q 397.43125 10.67 396.04325 10.67 
L 315.427559 10.67 
Q 314.039559 10.67 314.039559 12.058 
L 314.039559 42.502912 
Q 314.039559 43.890912 315.427559 43.890912 
z
" style="fill:#ffffff;opacity:0.8;stroke:#cccccc;stroke-linejoin:miter;"/>
    </g>
    <g id="PathCollection_5">
     <defs>
      <path d="M 0 3 
C 0.795609 3 1.55874 2.683901 2.12132 2.12132 
C 2.683901 1.55874 3 0.795609 3 0 
C 3 -0.795609 2.683901 -1.55874 2.12132 -2.12132 
C 1.55874 -2.683901 0.795609 -3 0 -3 
C -0.795609 -3 -1.55874 -2.683901 -2.12132 -2.12132 
C -2.683901 -1.55874 -3 -0.795609 -3 0 
C -3 0.795609 -2.683901 1.55874 -2.12132 2.12132 
C -1.55874 2.683901 -0.795609 3 0 3 
z
" id="m0a0bddea63" style="stroke:#f26b38;"/>
     </defs>
     <g>
      <use style="fill:#f26b38;stroke:#f26b38;" x="323.755559" xlink:href="#m0a0bddea63" y="16.897566"/>
     </g>
    </g>
    <g id="text_15">
     <!-- mean_err -->
     <g transform="translate(336.247559 18.719316)scale(0.0694 -0.0694)">
      <defs>
       <path d="M 50.984375 -16.609375 
L 50.984375 -23.578125 
L -0.984375 -23.578125 
L -0.984375 -16.609375 
z
" id="DejaVuSans-95"/>
      </defs>
      <use xlink:href="#DejaVuSans-109"/>
      <use x="97.412109" xlink:href="#DejaVuSans-101"/>
      <use x="158.935547" xlink:href="#DejaVuSans-97"/>
      <use x="220.214844" xlink:href="#DejaVuSans-110"/>
      <use x="283.59375" xlink:href="#DejaVuSans-95"/>
      <use x="333.59375" xlink:href="#DejaVuSans-101"/>
      <use x="395.117188" xlink:href="#DejaVuSans-114"/>
      <use x="434.480469" xlink:href="#DejaVuSans-114"/>
     </g>
    </g>
    <g id="PathCollection_6">
     <defs>
      <path d="M -1.5 3 
L 0 1.5 
L 1.5 3 
L 3 1.5 
L 1.5 0 
L 3 -1.5 
L 1.5 -3 
L 0 -1.5 
L -1.5 -3 
L -3 -1.5 
L -1.5 0 
L -3 1.5 
z
" id="m9f9bb654cd" style="stroke:#2f9599;"/>
     </defs>
     <g>
      <use style="fill:#2f9599;stroke:#2f9599;" x="323.755559" xlink:href="#m9f9bb654cd" y="27.277203"/>
     </g>
    </g>
    <g id="text_16">
     <!-- mean_sq_err -->
     <g transform="translate(336.247559 29.098953)scale(0.0694 -0.0694)">
      <defs>
       <path d="M 44.28125 53.078125 
L 44.28125 44.578125 
Q 40.484375 46.53125 36.375 47.5 
Q 32.28125 48.484375 27.875 48.484375 
Q 21.1875 48.484375 17.84375 46.4375 
Q 14.5 44.390625 14.5 40.28125 
Q 14.5 37.15625 16.890625 35.375 
Q 19.28125 33.59375 26.515625 31.984375 
L 29.59375 31.296875 
Q 39.15625 29.25 43.1875 25.515625 
Q 47.21875 21.78125 47.21875 15.09375 
Q 47.21875 7.46875 41.1875 3.015625 
Q 35.15625 -1.421875 24.609375 -1.421875 
Q 20.21875 -1.421875 15.453125 -0.5625 
Q 10.6875 0.296875 5.421875 2 
L 5.421875 11.28125 
Q 10.40625 8.6875 15.234375 7.390625 
Q 20.0625 6.109375 24.8125 6.109375 
Q 31.15625 6.109375 34.5625 8.28125 
Q 37.984375 10.453125 37.984375 14.40625 
Q 37.984375 18.0625 35.515625 20.015625 
Q 33.0625 21.96875 24.703125 23.78125 
L 21.578125 24.515625 
Q 13.234375 26.265625 9.515625 29.90625 
Q 5.8125 33.546875 5.8125 39.890625 
Q 5.8125 47.609375 11.28125 51.796875 
Q 16.75 56 26.8125 56 
Q 31.78125 56 36.171875 55.265625 
Q 40.578125 54.546875 44.28125 53.078125 
z
" id="DejaVuSans-115"/>
       <path d="M 14.796875 27.296875 
Q 14.796875 17.390625 18.875 11.75 
Q 22.953125 6.109375 30.078125 6.109375 
Q 37.203125 6.109375 41.296875 11.75 
Q 45.40625 17.390625 45.40625 27.296875 
Q 45.40625 37.203125 41.296875 42.84375 
Q 37.203125 48.484375 30.078125 48.484375 
Q 22.953125 48.484375 18.875 42.84375 
Q 14.796875 37.203125 14.796875 27.296875 
z
M 45.40625 8.203125 
Q 42.578125 3.328125 38.25 0.953125 
Q 33.9375 -1.421875 27.875 -1.421875 
Q 17.96875 -1.421875 11.734375 6.484375 
Q 5.515625 14.40625 5.515625 27.296875 
Q 5.515625 40.1875 11.734375 48.09375 
Q 17.96875 56 27.875 56 
Q 33.9375 56 38.25 53.625 
Q 42.578125 51.265625 45.40625 46.390625 
L 45.40625 54.6875 
L 54.390625 54.6875 
L 54.390625 -20.796875 
L 45.40625 -20.796875 
z
" id="DejaVuSans-113"/>
      </defs>
      <use xlink:href="#DejaVuSans-109"/>
      <use x="97.412109" xlink:href="#DejaVuSans-101"/>
      <use x="158.935547" xlink:href="#DejaVuSans-97"/>
      <use x="220.214844" xlink:href="#DejaVuSans-110"/>
      <use x="283.59375" xlink:href="#DejaVuSans-95"/>
      <use x="333.59375" xlink:href="#DejaVuSans-115"/>
      <use x="385.693359" xlink:href="#DejaVuSans-113"/>
      <use x="449.169922" xlink:href="#DejaVuSans-95"/>
      <use x="499.169922" xlink:href="#DejaVuSans-101"/>
      <use x="560.693359" xlink:href="#DejaVuSans-114"/>
      <use x="600.056641" xlink:href="#DejaVuSans-114"/>
     </g>
    </g>
    <g id="PathCollection_7">
     <defs>
      <path d="M -2.12132 -2.12132 
L -2.12132 2.12132 
L 2.12132 2.12132 
L 2.12132 -2.12132 
z
" id="m6442241320" style="stroke:#a7226e;"/>
     </defs>
     <g>
      <use style="fill:#a7226e;stroke:#a7226e;" x="323.755559" xlink:href="#m6442241320" y="37.656841"/>
     </g>
    </g>
    <g id="text_17">
     <!-- mean_sqroot_err -->
     <g transform="translate(336.247559 39.478591)scale(0.0694 -0.0694)">
      <use xlink:href="#DejaVuSans-109"/>
      <use x="97.412109" xlink:href="#DejaVuSans-101"/>
      <use x="158.935547" xlink:href="#DejaVuSans-97"/>
      <use x="220.214844" xlink:href="#DejaVuSans-110"/>
      <use x="283.59375" xlink:href="#DejaVuSans-95"/>
      <use x="333.59375" xlink:href="#DejaVuSans-115"/>
      <use x="385.693359" xlink:href="#DejaVuSans-113"/>
      <use x="449.169922" xlink:href="#DejaVuSans-114"/>
      <use x="488.033203" xlink:href="#DejaVuSans-111"/>
      <use x="549.214844" xlink:href="#DejaVuSans-111"/>
      <use x="610.396484" xlink:href="#DejaVuSans-116"/>
      <use x="649.605469" xlink:href="#DejaVuSans-95"/>
      <use x="699.605469" xlink:href="#DejaVuSans-101"/>
      <use x="761.128906" xlink:href="#DejaVuSans-114"/>
      <use x="800.492188" xlink:href="#DejaVuSans-114"/>
     </g>
    </g>
   </g>
  </g>
 </g>
 <defs>
  <clipPath id="pd3465d9753">
   <rect height="266.112" width="357.12" x="43.78125" y="7.2"/>
  </clipPath>
 </defs>
</svg>
