<?xml version="1.0" encoding="utf-8" standalone="no"?>
<!DOCTYPE svg PUBLIC "-//W3C//DTD SVG 1.1//EN"
  "http://www.w3.org/Graphics/SVG/1.1/DTD/svg11.dtd">
<!-- Created with matplotlib (https://matplotlib.org/) -->
<svg height="310.86825pt" version="1.1" viewBox="0 0 408.10125 310.86825" width="408.10125pt" xmlns="http://www.w3.org/2000/svg" xmlns:xlink="http://www.w3.org/1999/xlink">
 <metadata>
  <rdf:RDF xmlns:cc="http://creativecommons.org/ns#" xmlns:dc="http://purl.org/dc/elements/1.1/" xmlns:rdf="http://www.w3.org/1999/02/22-rdf-syntax-ns#">
   <cc:Work>
    <dc:type rdf:resource="http://purl.org/dc/dcmitype/StillImage"/>
    <dc:date>2022-05-27T21:31:53.665122</dc:date>
    <dc:format>image/svg+xml</dc:format>
    <dc:creator>
     <cc:Agent>
      <dc:title>Matplotlib v3.3.4, https://matplotlib.org/</dc:title>
     </cc:Agent>
    </dc:creator>
   </cc:Work>
  </rdf:RDF>
 </metadata>
 <defs>
  <style type="text/css">*{stroke-linecap:butt;stroke-linejoin:round;}</style>
 </defs>
 <g id="figure_1">
  <g id="patch_1">
   <path d="M 0 310.86825 
L 408.10125 310.86825 
L 408.10125 0 
L 0 0 
z
" style="fill:#ffffff;"/>
  </g>
  <g id="axes_1">
   <g id="patch_2">
    <path d="M 43.78125 273.312 
L 400.90125 273.312 
L 400.90125 7.2 
L 43.78125 7.2 
z
" style="fill:#ffffff;"/>
   </g>
   <g id="PathCollection_1">
    <path clip-path="url(#p7de795cf9c)" d="M 60.013977 31.240411 
C 60.809587 31.240411 61.572717 30.924312 62.135298 30.361731 
C 62.697878 29.79915 63.013977 29.03602 63.013977 28.240411 
C 63.013977 27.444801 62.697878 26.681671 62.135298 26.11909 
C 61.572717 25.55651 60.809587 25.240411 60.013977 25.240411 
C 59.218368 25.240411 58.455238 25.55651 57.892657 26.11909 
C 57.330076 26.681671 57.013977 27.444801 57.013977 28.240411 
C 57.013977 29.03602 57.330076 29.79915 57.892657 30.361731 
C 58.455238 30.924312 59.218368 31.240411 60.013977 31.240411 
z
" style="fill:#f26b38;stroke:#ffffff;stroke-width:0.48;"/>
    <path clip-path="url(#p7de795cf9c)" d="M 66.777614 35.824421 
C 67.573223 35.824421 68.336353 35.508322 68.898934 34.945741 
C 69.461515 34.383161 69.777614 33.62003 69.777614 32.824421 
C 69.777614 32.028812 69.461515 31.265681 68.898934 30.703101 
C 68.336353 30.14052 67.573223 29.824421 66.777614 29.824421 
C 65.982004 29.824421 65.218874 30.14052 64.656293 30.703101 
C 64.093713 31.265681 63.777614 32.028812 63.777614 32.824421 
C 63.777614 33.62003 64.093713 34.383161 64.656293 34.945741 
C 65.218874 35.508322 65.982004 35.824421 66.777614 35.824421 
z
" style="fill:#f26b38;stroke:#ffffff;stroke-width:0.48;"/>
    <path clip-path="url(#p7de795cf9c)" d="M 73.54125 35.824421 
C 74.336859 35.824421 75.09999 35.508322 75.66257 34.945741 
C 76.225151 34.383161 76.54125 33.62003 76.54125 32.824421 
C 76.54125 32.028812 76.225151 31.265681 75.66257 30.703101 
C 75.09999 30.14052 74.336859 29.824421 73.54125 29.824421 
C 72.745641 29.824421 71.98251 30.14052 71.41993 30.703101 
C 70.857349 31.265681 70.54125 32.028812 70.54125 32.824421 
C 70.54125 33.62003 70.857349 34.383161 71.41993 34.945741 
C 71.98251 35.508322 72.745641 35.824421 73.54125 35.824421 
z
" style="fill:#f26b38;stroke:#ffffff;stroke-width:0.48;"/>
    <path clip-path="url(#p7de795cf9c)" d="M 80.304886 35.824421 
C 81.100496 35.824421 81.863626 35.508322 82.426207 34.945741 
C 82.988787 34.383161 83.304886 33.62003 83.304886 32.824421 
C 83.304886 32.028812 82.988787 31.265681 82.426207 30.703101 
C 81.863626 30.14052 81.100496 29.824421 80.304886 29.824421 
C 79.509277 29.824421 78.746147 30.14052 78.183566 30.703101 
C 77.620985 31.265681 77.304886 32.028812 77.304886 32.824421 
C 77.304886 33.62003 77.620985 34.383161 78.183566 34.945741 
C 78.746147 35.508322 79.509277 35.824421 80.304886 35.824421 
z
" style="fill:#f26b38;stroke:#ffffff;stroke-width:0.48;"/>
    <path clip-path="url(#p7de795cf9c)" d="M 87.068523 31.240411 
C 87.864132 31.240411 88.627262 30.924312 89.189843 30.361731 
C 89.752424 29.79915 90.068523 29.03602 90.068523 28.240411 
C 90.068523 27.444801 89.752424 26.681671 89.189843 26.11909 
C 88.627262 25.55651 87.864132 25.240411 87.068523 25.240411 
C 86.272913 25.240411 85.509783 25.55651 84.947202 26.11909 
C 84.384622 26.681671 84.068523 27.444801 84.068523 28.240411 
C 84.068523 29.03602 84.384622 29.79915 84.947202 30.361731 
C 85.509783 30.924312 86.272913 31.240411 87.068523 31.240411 
z
" style="fill:#f26b38;stroke:#ffffff;stroke-width:0.48;"/>
    <path clip-path="url(#p7de795cf9c)" d="M 93.832159 35.824421 
C 94.627768 35.824421 95.390899 35.508322 95.953479 34.945741 
C 96.51606 34.383161 96.832159 33.62003 96.832159 32.824421 
C 96.832159 32.028812 96.51606 31.265681 95.953479 30.703101 
C 95.390899 30.14052 94.627768 29.824421 93.832159 29.824421 
C 93.03655 29.824421 92.273419 30.14052 91.710839 30.703101 
C 91.148258 31.265681 90.832159 32.028812 90.832159 32.824421 
C 90.832159 33.62003 91.148258 34.383161 91.710839 34.945741 
C 92.273419 35.508322 93.03655 35.824421 93.832159 35.824421 
z
" style="fill:#f26b38;stroke:#ffffff;stroke-width:0.48;"/>
    <path clip-path="url(#p7de795cf9c)" d="M 100.595795 40.485474 
C 101.391405 40.485474 102.154535 40.169375 102.717116 39.606794 
C 103.279697 39.044213 103.595795 38.281083 103.595795 37.485474 
C 103.595795 36.689864 103.279697 35.926734 102.717116 35.364153 
C 102.154535 34.801573 101.391405 34.485474 100.595795 34.485474 
C 99.800186 34.485474 99.037056 34.801573 98.474475 35.364153 
C 97.911894 35.926734 97.595795 36.689864 97.595795 37.485474 
C 97.595795 38.281083 97.911894 39.044213 98.474475 39.606794 
C 99.037056 40.169375 99.800186 40.485474 100.595795 40.485474 
z
" style="fill:#f26b38;stroke:#ffffff;stroke-width:0.48;"/>
    <path clip-path="url(#p7de795cf9c)" d="M 107.359432 40.485474 
C 108.155041 40.485474 108.918171 40.169375 109.480752 39.606794 
C 110.043333 39.044213 110.359432 38.281083 110.359432 37.485474 
C 110.359432 36.689864 110.043333 35.926734 109.480752 35.364153 
C 108.918171 34.801573 108.155041 34.485474 107.359432 34.485474 
C 106.563823 34.485474 105.800692 34.801573 105.238111 35.364153 
C 104.675531 35.926734 104.359432 36.689864 104.359432 37.485474 
C 104.359432 38.281083 104.675531 39.044213 105.238111 39.606794 
C 105.800692 40.169375 106.563823 40.485474 107.359432 40.485474 
z
" style="fill:#f26b38;stroke:#ffffff;stroke-width:0.48;"/>
    <path clip-path="url(#p7de795cf9c)" d="M 114.123068 40.485474 
C 114.918677 40.485474 115.681808 40.169375 116.244389 39.606794 
C 116.806969 39.044213 117.123068 38.281083 117.123068 37.485474 
C 117.123068 36.689864 116.806969 35.926734 116.244389 35.364153 
C 115.681808 34.801573 114.918677 34.485474 114.123068 34.485474 
C 113.327459 34.485474 112.564329 34.801573 112.001748 35.364153 
C 111.439167 35.926734 111.123068 36.689864 111.123068 37.485474 
C 111.123068 38.281083 111.439167 39.044213 112.001748 39.606794 
C 112.564329 40.169375 113.327459 40.485474 114.123068 40.485474 
z
" style="fill:#f26b38;stroke:#ffffff;stroke-width:0.48;"/>
    <path clip-path="url(#p7de795cf9c)" d="M 120.886705 45.225527 
C 121.682314 45.225527 122.445444 44.909428 123.008025 44.346848 
C 123.570606 43.784267 123.886705 43.021137 123.886705 42.225527 
C 123.886705 41.429918 123.570606 40.666788 123.008025 40.104207 
C 122.445444 39.541626 121.682314 39.225527 120.886705 39.225527 
C 120.091095 39.225527 119.327965 39.541626 118.765384 40.104207 
C 118.202803 40.666788 117.886705 41.429918 117.886705 42.225527 
C 117.886705 43.021137 118.202803 43.784267 118.765384 44.346848 
C 119.327965 44.909428 120.091095 45.225527 120.886705 45.225527 
z
" style="fill:#f26b38;stroke:#ffffff;stroke-width:0.48;"/>
    <path clip-path="url(#p7de795cf9c)" d="M 127.650341 75.443368 
C 128.44595 75.443368 129.209081 75.127269 129.771661 74.564689 
C 130.334242 74.002108 130.650341 73.238978 130.650341 72.443368 
C 130.650341 71.647759 130.334242 70.884629 129.771661 70.322048 
C 129.209081 69.759467 128.44595 69.443368 127.650341 69.443368 
C 126.854732 69.443368 126.091601 69.759467 125.529021 70.322048 
C 124.96644 70.884629 124.650341 71.647759 124.650341 72.443368 
C 124.650341 73.238978 124.96644 74.002108 125.529021 74.564689 
C 126.091601 75.127269 126.854732 75.443368 127.650341 75.443368 
z
" style="fill:#f26b38;stroke:#ffffff;stroke-width:0.48;"/>
    <path clip-path="url(#p7de795cf9c)" d="M 134.413977 91.799815 
C 135.209587 91.799815 135.972717 91.483716 136.535298 90.921135 
C 137.097878 90.358554 137.413977 89.595424 137.413977 88.799815 
C 137.413977 88.004205 137.097878 87.241075 136.535298 86.678494 
C 135.972717 86.115914 135.209587 85.799815 134.413977 85.799815 
C 133.618368 85.799815 132.855238 86.115914 132.292657 86.678494 
C 131.730076 87.241075 131.413977 88.004205 131.413977 88.799815 
C 131.413977 89.595424 131.730076 90.358554 132.292657 90.921135 
C 132.855238 91.483716 133.618368 91.799815 134.413977 91.799815 
z
" style="fill:#f26b38;stroke:#ffffff;stroke-width:0.48;"/>
    <path clip-path="url(#p7de795cf9c)" d="M 141.177614 121.157538 
C 141.973223 121.157538 142.736353 120.84144 143.298934 120.278859 
C 143.861515 119.716278 144.177614 118.953148 144.177614 118.157538 
C 144.177614 117.361929 143.861515 116.598799 143.298934 116.036218 
C 142.736353 115.473637 141.973223 115.157538 141.177614 115.157538 
C 140.382004 115.157538 139.618874 115.473637 139.056293 116.036218 
C 138.493713 116.598799 138.177614 117.361929 138.177614 118.157538 
C 138.177614 118.953148 138.493713 119.716278 139.056293 120.278859 
C 139.618874 120.84144 140.382004 121.157538 141.177614 121.157538 
z
" style="fill:#f26b38;stroke:#ffffff;stroke-width:0.48;"/>
    <path clip-path="url(#p7de795cf9c)" d="M 147.94125 103.213659 
C 148.736859 103.213659 149.49999 102.89756 150.06257 102.334979 
C 150.625151 101.772398 150.94125 101.009268 150.94125 100.213659 
C 150.94125 99.418049 150.625151 98.654919 150.06257 98.092338 
C 149.49999 97.529758 148.736859 97.213659 147.94125 97.213659 
C 147.145641 97.213659 146.38251 97.529758 145.81993 98.092338 
C 145.257349 98.654919 144.94125 99.418049 144.94125 100.213659 
C 144.94125 101.009268 145.257349 101.772398 145.81993 102.334979 
C 146.38251 102.89756 147.145641 103.213659 147.94125 103.213659 
z
" style="fill:#f26b38;stroke:#ffffff;stroke-width:0.48;"/>
    <path clip-path="url(#p7de795cf9c)" d="M 154.704886 127.371115 
C 155.500496 127.371115 156.263626 127.055016 156.826207 126.492435 
C 157.388787 125.929855 157.704886 125.166724 157.704886 124.371115 
C 157.704886 123.575506 157.388787 122.812375 156.826207 122.249795 
C 156.263626 121.687214 155.500496 121.371115 154.704886 121.371115 
C 153.909277 121.371115 153.146147 121.687214 152.583566 122.249795 
C 152.020985 122.812375 151.704886 123.575506 151.704886 124.371115 
C 151.704886 125.166724 152.020985 125.929855 152.583566 126.492435 
C 153.146147 127.055016 153.909277 127.371115 154.704886 127.371115 
z
" style="fill:#f26b38;stroke:#ffffff;stroke-width:0.48;"/>
    <path clip-path="url(#p7de795cf9c)" d="M 161.468523 127.371115 
C 162.264132 127.371115 163.027262 127.055016 163.589843 126.492435 
C 164.152424 125.929855 164.468523 125.166724 164.468523 124.371115 
C 164.468523 123.575506 164.152424 122.812375 163.589843 122.249795 
C 163.027262 121.687214 162.264132 121.371115 161.468523 121.371115 
C 160.672913 121.371115 159.909783 121.687214 159.347202 122.249795 
C 158.784622 122.812375 158.468523 123.575506 158.468523 124.371115 
C 158.468523 125.166724 158.784622 125.929855 159.347202 126.492435 
C 159.909783 127.055016 160.672913 127.371115 161.468523 127.371115 
z
" style="fill:#f26b38;stroke:#ffffff;stroke-width:0.48;"/>
    <path clip-path="url(#p7de795cf9c)" d="M 168.232159 127.371115 
C 169.027768 127.371115 169.790899 127.055016 170.353479 126.492435 
C 170.91606 125.929855 171.232159 125.166724 171.232159 124.371115 
C 171.232159 123.575506 170.91606 122.812375 170.353479 122.249795 
C 169.790899 121.687214 169.027768 121.371115 168.232159 121.371115 
C 167.43655 121.371115 166.673419 121.687214 166.110839 122.249795 
C 165.548258 122.812375 165.232159 123.575506 165.232159 124.371115 
C 165.232159 125.166724 165.548258 125.929855 166.110839 126.492435 
C 166.673419 127.055016 167.43655 127.371115 168.232159 127.371115 
z
" style="fill:#f26b38;stroke:#ffffff;stroke-width:0.48;"/>
    <path clip-path="url(#p7de795cf9c)" d="M 174.995795 127.371115 
C 175.791405 127.371115 176.554535 127.055016 177.117116 126.492435 
C 177.679697 125.929855 177.995795 125.166724 177.995795 124.371115 
C 177.995795 123.575506 177.679697 122.812375 177.117116 122.249795 
C 176.554535 121.687214 175.791405 121.371115 174.995795 121.371115 
C 174.200186 121.371115 173.437056 121.687214 172.874475 122.249795 
C 172.311894 122.812375 171.995795 123.575506 171.995795 124.371115 
C 171.995795 125.166724 172.311894 125.929855 172.874475 126.492435 
C 173.437056 127.055016 174.200186 127.371115 174.995795 127.371115 
z
" style="fill:#f26b38;stroke:#ffffff;stroke-width:0.48;"/>
    <path clip-path="url(#p7de795cf9c)" d="M 181.759432 127.371115 
C 182.555041 127.371115 183.318171 127.055016 183.880752 126.492435 
C 184.443333 125.929855 184.759432 125.166724 184.759432 124.371115 
C 184.759432 123.575506 184.443333 122.812375 183.880752 122.249795 
C 183.318171 121.687214 182.555041 121.371115 181.759432 121.371115 
C 180.963823 121.371115 180.200692 121.687214 179.638111 122.249795 
C 179.075531 122.812375 178.759432 123.575506 178.759432 124.371115 
C 178.759432 125.166724 179.075531 125.929855 179.638111 126.492435 
C 180.200692 127.055016 180.963823 127.371115 181.759432 127.371115 
z
" style="fill:#f26b38;stroke:#ffffff;stroke-width:0.48;"/>
    <path clip-path="url(#p7de795cf9c)" d="M 188.523068 127.371115 
C 189.318677 127.371115 190.081808 127.055016 190.644389 126.492435 
C 191.206969 125.929855 191.523068 125.166724 191.523068 124.371115 
C 191.523068 123.575506 191.206969 122.812375 190.644389 122.249795 
C 190.081808 121.687214 189.318677 121.371115 188.523068 121.371115 
C 187.727459 121.371115 186.964329 121.687214 186.401748 122.249795 
C 185.839167 122.812375 185.523068 123.575506 185.523068 124.371115 
C 185.523068 125.166724 185.839167 125.929855 186.401748 126.492435 
C 186.964329 127.055016 187.727459 127.371115 188.523068 127.371115 
z
" style="fill:#f26b38;stroke:#ffffff;stroke-width:0.48;"/>
    <path clip-path="url(#p7de795cf9c)" d="M 195.286705 127.371115 
C 196.082314 127.371115 196.845444 127.055016 197.408025 126.492435 
C 197.970606 125.929855 198.286705 125.166724 198.286705 124.371115 
C 198.286705 123.575506 197.970606 122.812375 197.408025 122.249795 
C 196.845444 121.687214 196.082314 121.371115 195.286705 121.371115 
C 194.491095 121.371115 193.727965 121.687214 193.165384 122.249795 
C 192.602803 122.812375 192.286705 123.575506 192.286705 124.371115 
C 192.286705 125.166724 192.602803 125.929855 193.165384 126.492435 
C 193.727965 127.055016 194.491095 127.371115 195.286705 127.371115 
z
" style="fill:#f26b38;stroke:#ffffff;stroke-width:0.48;"/>
    <path clip-path="url(#p7de795cf9c)" d="M 202.050341 127.371115 
C 202.84595 127.371115 203.609081 127.055016 204.171661 126.492435 
C 204.734242 125.929855 205.050341 125.166724 205.050341 124.371115 
C 205.050341 123.575506 204.734242 122.812375 204.171661 122.249795 
C 203.609081 121.687214 202.84595 121.371115 202.050341 121.371115 
C 201.254732 121.371115 200.491601 121.687214 199.929021 122.249795 
C 199.36644 122.812375 199.050341 123.575506 199.050341 124.371115 
C 199.050341 125.166724 199.36644 125.929855 199.929021 126.492435 
C 200.491601 127.055016 201.254732 127.371115 202.050341 127.371115 
z
" style="fill:#f26b38;stroke:#ffffff;stroke-width:0.48;"/>
    <path clip-path="url(#p7de795cf9c)" d="M 208.813977 127.371115 
C 209.609587 127.371115 210.372717 127.055016 210.935298 126.492435 
C 211.497878 125.929855 211.813977 125.166724 211.813977 124.371115 
C 211.813977 123.575506 211.497878 122.812375 210.935298 122.249795 
C 210.372717 121.687214 209.609587 121.371115 208.813977 121.371115 
C 208.018368 121.371115 207.255238 121.687214 206.692657 122.249795 
C 206.130076 122.812375 205.813977 123.575506 205.813977 124.371115 
C 205.813977 125.166724 206.130076 125.929855 206.692657 126.492435 
C 207.255238 127.055016 208.018368 127.371115 208.813977 127.371115 
z
" style="fill:#f26b38;stroke:#ffffff;stroke-width:0.48;"/>
    <path clip-path="url(#p7de795cf9c)" d="M 215.577614 121.157538 
C 216.373223 121.157538 217.136353 120.84144 217.698934 120.278859 
C 218.261515 119.716278 218.577614 118.953148 218.577614 118.157538 
C 218.577614 117.361929 218.261515 116.598799 217.698934 116.036218 
C 217.136353 115.473637 216.373223 115.157538 215.577614 115.157538 
C 214.782004 115.157538 214.018874 115.473637 213.456293 116.036218 
C 212.893713 116.598799 212.577614 117.361929 212.577614 118.157538 
C 212.577614 118.953148 212.893713 119.716278 213.456293 120.278859 
C 214.018874 120.84144 214.782004 121.157538 215.577614 121.157538 
z
" style="fill:#f26b38;stroke:#ffffff;stroke-width:0.48;"/>
    <path clip-path="url(#p7de795cf9c)" d="M 222.34125 189.242473 
C 223.136859 189.242473 223.89999 188.926374 224.46257 188.363793 
C 225.025151 187.801212 225.34125 187.038082 225.34125 186.242473 
C 225.34125 185.446863 225.025151 184.683733 224.46257 184.121152 
C 223.89999 183.558571 223.136859 183.242473 222.34125 183.242473 
C 221.545641 183.242473 220.78251 183.558571 220.21993 184.121152 
C 219.657349 184.683733 219.34125 185.446863 219.34125 186.242473 
C 219.34125 187.038082 219.657349 187.801212 220.21993 188.363793 
C 220.78251 188.926374 221.545641 189.242473 222.34125 189.242473 
z
" style="fill:#f26b38;stroke:#ffffff;stroke-width:0.48;"/>
    <path clip-path="url(#p7de795cf9c)" d="M 229.104886 264.216 
C 229.900496 264.216 230.663626 263.899901 231.226207 263.33732 
C 231.788787 262.77474 232.104886 262.011609 232.104886 261.216 
C 232.104886 260.420391 231.788787 259.65726 231.226207 259.09468 
C 230.663626 258.532099 229.900496 258.216 229.104886 258.216 
C 228.309277 258.216 227.546147 258.532099 226.983566 259.09468 
C 226.420985 259.65726 226.104886 260.420391 226.104886 261.216 
C 226.104886 262.011609 226.420985 262.77474 226.983566 263.33732 
C 227.546147 263.899901 228.309277 264.216 229.104886 264.216 
z
" style="fill:#f26b38;stroke:#ffffff;stroke-width:0.48;"/>
    <path clip-path="url(#p7de795cf9c)" d="M 235.868523 264.216 
C 236.664132 264.216 237.427262 263.899901 237.989843 263.33732 
C 238.552424 262.77474 238.868523 262.011609 238.868523 261.216 
C 238.868523 260.420391 238.552424 259.65726 237.989843 259.09468 
C 237.427262 258.532099 236.664132 258.216 235.868523 258.216 
C 235.072913 258.216 234.309783 258.532099 233.747202 259.09468 
C 233.184622 259.65726 232.868523 260.420391 232.868523 261.216 
C 232.868523 262.011609 233.184622 262.77474 233.747202 263.33732 
C 234.309783 263.899901 235.072913 264.216 235.868523 264.216 
z
" style="fill:#f26b38;stroke:#ffffff;stroke-width:0.48;"/>
    <path clip-path="url(#p7de795cf9c)" d="M 242.632159 264.216 
C 243.427768 264.216 244.190899 263.899901 244.753479 263.33732 
C 245.31606 262.77474 245.632159 262.011609 245.632159 261.216 
C 245.632159 260.420391 245.31606 259.65726 244.753479 259.09468 
C 244.190899 258.532099 243.427768 258.216 242.632159 258.216 
C 241.83655 258.216 241.073419 258.532099 240.510839 259.09468 
C 239.948258 259.65726 239.632159 260.420391 239.632159 261.216 
C 239.632159 262.011609 239.948258 262.77474 240.510839 263.33732 
C 241.073419 263.899901 241.83655 264.216 242.632159 264.216 
z
" style="fill:#f26b38;stroke:#ffffff;stroke-width:0.48;"/>
    <path clip-path="url(#p7de795cf9c)" d="M 249.395795 264.216 
C 250.191405 264.216 250.954535 263.899901 251.517116 263.33732 
C 252.079697 262.77474 252.395795 262.011609 252.395795 261.216 
C 252.395795 260.420391 252.079697 259.65726 251.517116 259.09468 
C 250.954535 258.532099 250.191405 258.216 249.395795 258.216 
C 248.600186 258.216 247.837056 258.532099 247.274475 259.09468 
C 246.711894 259.65726 246.395795 260.420391 246.395795 261.216 
C 246.395795 262.011609 246.711894 262.77474 247.274475 263.33732 
C 247.837056 263.899901 248.600186 264.216 249.395795 264.216 
z
" style="fill:#f26b38;stroke:#ffffff;stroke-width:0.48;"/>
    <path clip-path="url(#p7de795cf9c)" d="M 256.159432 264.216 
C 256.955041 264.216 257.718171 263.899901 258.280752 263.33732 
C 258.843333 262.77474 259.159432 262.011609 259.159432 261.216 
C 259.159432 260.420391 258.843333 259.65726 258.280752 259.09468 
C 257.718171 258.532099 256.955041 258.216 256.159432 258.216 
C 255.363823 258.216 254.600692 258.532099 254.038111 259.09468 
C 253.475531 259.65726 253.159432 260.420391 253.159432 261.216 
C 253.159432 262.011609 253.475531 262.77474 254.038111 263.33732 
C 254.600692 263.899901 255.363823 264.216 256.159432 264.216 
z
" style="fill:#f26b38;stroke:#ffffff;stroke-width:0.48;"/>
    <path clip-path="url(#p7de795cf9c)" d="M 262.923068 264.216 
C 263.718677 264.216 264.481808 263.899901 265.044389 263.33732 
C 265.606969 262.77474 265.923068 262.011609 265.923068 261.216 
C 265.923068 260.420391 265.606969 259.65726 265.044389 259.09468 
C 264.481808 258.532099 263.718677 258.216 262.923068 258.216 
C 262.127459 258.216 261.364329 258.532099 260.801748 259.09468 
C 260.239167 259.65726 259.923068 260.420391 259.923068 261.216 
C 259.923068 262.011609 260.239167 262.77474 260.801748 263.33732 
C 261.364329 263.899901 262.127459 264.216 262.923068 264.216 
z
" style="fill:#f26b38;stroke:#ffffff;stroke-width:0.48;"/>
    <path clip-path="url(#p7de795cf9c)" d="M 269.686705 264.216 
C 270.482314 264.216 271.245444 263.899901 271.808025 263.33732 
C 272.370606 262.77474 272.686705 262.011609 272.686705 261.216 
C 272.686705 260.420391 272.370606 259.65726 271.808025 259.09468 
C 271.245444 258.532099 270.482314 258.216 269.686705 258.216 
C 268.891095 258.216 268.127965 258.532099 267.565384 259.09468 
C 267.002803 259.65726 266.686705 260.420391 266.686705 261.216 
C 266.686705 262.011609 267.002803 262.77474 267.565384 263.33732 
C 268.127965 263.899901 268.891095 264.216 269.686705 264.216 
z
" style="fill:#f26b38;stroke:#ffffff;stroke-width:0.48;"/>
    <path clip-path="url(#p7de795cf9c)" d="M 276.450341 264.216 
C 277.24595 264.216 278.009081 263.899901 278.571661 263.33732 
C 279.134242 262.77474 279.450341 262.011609 279.450341 261.216 
C 279.450341 260.420391 279.134242 259.65726 278.571661 259.09468 
C 278.009081 258.532099 277.24595 258.216 276.450341 258.216 
C 275.654732 258.216 274.891601 258.532099 274.329021 259.09468 
C 273.76644 259.65726 273.450341 260.420391 273.450341 261.216 
C 273.450341 262.011609 273.76644 262.77474 274.329021 263.33732 
C 274.891601 263.899901 275.654732 264.216 276.450341 264.216 
z
" style="fill:#f26b38;stroke:#ffffff;stroke-width:0.48;"/>
    <path clip-path="url(#p7de795cf9c)" d="M 283.213977 264.216 
C 284.009587 264.216 284.772717 263.899901 285.335298 263.33732 
C 285.897878 262.77474 286.213977 262.011609 286.213977 261.216 
C 286.213977 260.420391 285.897878 259.65726 285.335298 259.09468 
C 284.772717 258.532099 284.009587 258.216 283.213977 258.216 
C 282.418368 258.216 281.655238 258.532099 281.092657 259.09468 
C 280.530076 259.65726 280.213977 260.420391 280.213977 261.216 
C 280.213977 262.011609 280.530076 262.77474 281.092657 263.33732 
C 281.655238 263.899901 282.418368 264.216 283.213977 264.216 
z
" style="fill:#f26b38;stroke:#ffffff;stroke-width:0.48;"/>
    <path clip-path="url(#p7de795cf9c)" d="M 289.977614 264.216 
C 290.773223 264.216 291.536353 263.899901 292.098934 263.33732 
C 292.661515 262.77474 292.977614 262.011609 292.977614 261.216 
C 292.977614 260.420391 292.661515 259.65726 292.098934 259.09468 
C 291.536353 258.532099 290.773223 258.216 289.977614 258.216 
C 289.182004 258.216 288.418874 258.532099 287.856293 259.09468 
C 287.293713 259.65726 286.977614 260.420391 286.977614 261.216 
C 286.977614 262.011609 287.293713 262.77474 287.856293 263.33732 
C 288.418874 263.899901 289.182004 264.216 289.977614 264.216 
z
" style="fill:#f26b38;stroke:#ffffff;stroke-width:0.48;"/>
    <path clip-path="url(#p7de795cf9c)" d="M 296.74125 264.216 
C 297.536859 264.216 298.29999 263.899901 298.86257 263.33732 
C 299.425151 262.77474 299.74125 262.011609 299.74125 261.216 
C 299.74125 260.420391 299.425151 259.65726 298.86257 259.09468 
C 298.29999 258.532099 297.536859 258.216 296.74125 258.216 
C 295.945641 258.216 295.18251 258.532099 294.61993 259.09468 
C 294.057349 259.65726 293.74125 260.420391 293.74125 261.216 
C 293.74125 262.011609 294.057349 262.77474 294.61993 263.33732 
C 295.18251 263.899901 295.945641 264.216 296.74125 264.216 
z
" style="fill:#f26b38;stroke:#ffffff;stroke-width:0.48;"/>
    <path clip-path="url(#p7de795cf9c)" d="M 303.504886 264.216 
C 304.300496 264.216 305.063626 263.899901 305.626207 263.33732 
C 306.188787 262.77474 306.504886 262.011609 306.504886 261.216 
C 306.504886 260.420391 306.188787 259.65726 305.626207 259.09468 
C 305.063626 258.532099 304.300496 258.216 303.504886 258.216 
C 302.709277 258.216 301.946147 258.532099 301.383566 259.09468 
C 300.820985 259.65726 300.504886 260.420391 300.504886 261.216 
C 300.504886 262.011609 300.820985 262.77474 301.383566 263.33732 
C 301.946147 263.899901 302.709277 264.216 303.504886 264.216 
z
" style="fill:#f26b38;stroke:#ffffff;stroke-width:0.48;"/>
    <path clip-path="url(#p7de795cf9c)" d="M 310.268523 264.216 
C 311.064132 264.216 311.827262 263.899901 312.389843 263.33732 
C 312.952424 262.77474 313.268523 262.011609 313.268523 261.216 
C 313.268523 260.420391 312.952424 259.65726 312.389843 259.09468 
C 311.827262 258.532099 311.064132 258.216 310.268523 258.216 
C 309.472913 258.216 308.709783 258.532099 308.147202 259.09468 
C 307.584622 259.65726 307.268523 260.420391 307.268523 261.216 
C 307.268523 262.011609 307.584622 262.77474 308.147202 263.33732 
C 308.709783 263.899901 309.472913 264.216 310.268523 264.216 
z
" style="fill:#f26b38;stroke:#ffffff;stroke-width:0.48;"/>
    <path clip-path="url(#p7de795cf9c)" d="M 317.032159 264.216 
C 317.827768 264.216 318.590899 263.899901 319.153479 263.33732 
C 319.71606 262.77474 320.032159 262.011609 320.032159 261.216 
C 320.032159 260.420391 319.71606 259.65726 319.153479 259.09468 
C 318.590899 258.532099 317.827768 258.216 317.032159 258.216 
C 316.23655 258.216 315.473419 258.532099 314.910839 259.09468 
C 314.348258 259.65726 314.032159 260.420391 314.032159 261.216 
C 314.032159 262.011609 314.348258 262.77474 314.910839 263.33732 
C 315.473419 263.899901 316.23655 264.216 317.032159 264.216 
z
" style="fill:#f26b38;stroke:#ffffff;stroke-width:0.48;"/>
    <path clip-path="url(#p7de795cf9c)" d="M 323.795795 264.216 
C 324.591405 264.216 325.354535 263.899901 325.917116 263.33732 
C 326.479697 262.77474 326.795795 262.011609 326.795795 261.216 
C 326.795795 260.420391 326.479697 259.65726 325.917116 259.09468 
C 325.354535 258.532099 324.591405 258.216 323.795795 258.216 
C 323.000186 258.216 322.237056 258.532099 321.674475 259.09468 
C 321.111894 259.65726 320.795795 260.420391 320.795795 261.216 
C 320.795795 262.011609 321.111894 262.77474 321.674475 263.33732 
C 322.237056 263.899901 323.000186 264.216 323.795795 264.216 
z
" style="fill:#f26b38;stroke:#ffffff;stroke-width:0.48;"/>
    <path clip-path="url(#p7de795cf9c)" d="M 330.559432 264.216 
C 331.355041 264.216 332.118171 263.899901 332.680752 263.33732 
C 333.243333 262.77474 333.559432 262.011609 333.559432 261.216 
C 333.559432 260.420391 333.243333 259.65726 332.680752 259.09468 
C 332.118171 258.532099 331.355041 258.216 330.559432 258.216 
C 329.763823 258.216 329.000692 258.532099 328.438111 259.09468 
C 327.875531 259.65726 327.559432 260.420391 327.559432 261.216 
C 327.559432 262.011609 327.875531 262.77474 328.438111 263.33732 
C 329.000692 263.899901 329.763823 264.216 330.559432 264.216 
z
" style="fill:#f26b38;stroke:#ffffff;stroke-width:0.48;"/>
    <path clip-path="url(#p7de795cf9c)" d="M 337.323068 264.216 
C 338.118677 264.216 338.881808 263.899901 339.444389 263.33732 
C 340.006969 262.77474 340.323068 262.011609 340.323068 261.216 
C 340.323068 260.420391 340.006969 259.65726 339.444389 259.09468 
C 338.881808 258.532099 338.118677 258.216 337.323068 258.216 
C 336.527459 258.216 335.764329 258.532099 335.201748 259.09468 
C 334.639167 259.65726 334.323068 260.420391 334.323068 261.216 
C 334.323068 262.011609 334.639167 262.77474 335.201748 263.33732 
C 335.764329 263.899901 336.527459 264.216 337.323068 264.216 
z
" style="fill:#f26b38;stroke:#ffffff;stroke-width:0.48;"/>
    <path clip-path="url(#p7de795cf9c)" d="M 344.086705 264.216 
C 344.882314 264.216 345.645444 263.899901 346.208025 263.33732 
C 346.770606 262.77474 347.086705 262.011609 347.086705 261.216 
C 347.086705 260.420391 346.770606 259.65726 346.208025 259.09468 
C 345.645444 258.532099 344.882314 258.216 344.086705 258.216 
C 343.291095 258.216 342.527965 258.532099 341.965384 259.09468 
C 341.402803 259.65726 341.086705 260.420391 341.086705 261.216 
C 341.086705 262.011609 341.402803 262.77474 341.965384 263.33732 
C 342.527965 263.899901 343.291095 264.216 344.086705 264.216 
z
" style="fill:#f26b38;stroke:#ffffff;stroke-width:0.48;"/>
    <path clip-path="url(#p7de795cf9c)" d="M 350.850341 264.216 
C 351.64595 264.216 352.409081 263.899901 352.971661 263.33732 
C 353.534242 262.77474 353.850341 262.011609 353.850341 261.216 
C 353.850341 260.420391 353.534242 259.65726 352.971661 259.09468 
C 352.409081 258.532099 351.64595 258.216 350.850341 258.216 
C 350.054732 258.216 349.291601 258.532099 348.729021 259.09468 
C 348.16644 259.65726 347.850341 260.420391 347.850341 261.216 
C 347.850341 262.011609 348.16644 262.77474 348.729021 263.33732 
C 349.291601 263.899901 350.054732 264.216 350.850341 264.216 
z
" style="fill:#f26b38;stroke:#ffffff;stroke-width:0.48;"/>
    <path clip-path="url(#p7de795cf9c)" d="M 357.613977 264.216 
C 358.409587 264.216 359.172717 263.899901 359.735298 263.33732 
C 360.297878 262.77474 360.613977 262.011609 360.613977 261.216 
C 360.613977 260.420391 360.297878 259.65726 359.735298 259.09468 
C 359.172717 258.532099 358.409587 258.216 357.613977 258.216 
C 356.818368 258.216 356.055238 258.532099 355.492657 259.09468 
C 354.930076 259.65726 354.613977 260.420391 354.613977 261.216 
C 354.613977 262.011609 354.930076 262.77474 355.492657 263.33732 
C 356.055238 263.899901 356.818368 264.216 357.613977 264.216 
z
" style="fill:#f26b38;stroke:#ffffff;stroke-width:0.48;"/>
    <path clip-path="url(#p7de795cf9c)" d="M 364.377614 264.216 
C 365.173223 264.216 365.936353 263.899901 366.498934 263.33732 
C 367.061515 262.77474 367.377614 262.011609 367.377614 261.216 
C 367.377614 260.420391 367.061515 259.65726 366.498934 259.09468 
C 365.936353 258.532099 365.173223 258.216 364.377614 258.216 
C 363.582004 258.216 362.818874 258.532099 362.256293 259.09468 
C 361.693713 259.65726 361.377614 260.420391 361.377614 261.216 
C 361.377614 262.011609 361.693713 262.77474 362.256293 263.33732 
C 362.818874 263.899901 363.582004 264.216 364.377614 264.216 
z
" style="fill:#f26b38;stroke:#ffffff;stroke-width:0.48;"/>
    <path clip-path="url(#p7de795cf9c)" d="M 371.14125 264.216 
C 371.936859 264.216 372.69999 263.899901 373.26257 263.33732 
C 373.825151 262.77474 374.14125 262.011609 374.14125 261.216 
C 374.14125 260.420391 373.825151 259.65726 373.26257 259.09468 
C 372.69999 258.532099 371.936859 258.216 371.14125 258.216 
C 370.345641 258.216 369.58251 258.532099 369.01993 259.09468 
C 368.457349 259.65726 368.14125 260.420391 368.14125 261.216 
C 368.14125 262.011609 368.457349 262.77474 369.01993 263.33732 
C 369.58251 263.899901 370.345641 264.216 371.14125 264.216 
z
" style="fill:#f26b38;stroke:#ffffff;stroke-width:0.48;"/>
    <path clip-path="url(#p7de795cf9c)" d="M 377.904886 264.216 
C 378.700496 264.216 379.463626 263.899901 380.026207 263.33732 
C 380.588787 262.77474 380.904886 262.011609 380.904886 261.216 
C 380.904886 260.420391 380.588787 259.65726 380.026207 259.09468 
C 379.463626 258.532099 378.700496 258.216 377.904886 258.216 
C 377.109277 258.216 376.346147 258.532099 375.783566 259.09468 
C 375.220985 259.65726 374.904886 260.420391 374.904886 261.216 
C 374.904886 262.011609 375.220985 262.77474 375.783566 263.33732 
C 376.346147 263.899901 377.109277 264.216 377.904886 264.216 
z
" style="fill:#f26b38;stroke:#ffffff;stroke-width:0.48;"/>
    <path clip-path="url(#p7de795cf9c)" d="M 384.668523 264.216 
C 385.464132 264.216 386.227262 263.899901 386.789843 263.33732 
C 387.352424 262.77474 387.668523 262.011609 387.668523 261.216 
C 387.668523 260.420391 387.352424 259.65726 386.789843 259.09468 
C 386.227262 258.532099 385.464132 258.216 384.668523 258.216 
C 383.872913 258.216 383.109783 258.532099 382.547202 259.09468 
C 381.984622 259.65726 381.668523 260.420391 381.668523 261.216 
C 381.668523 262.011609 381.984622 262.77474 382.547202 263.33732 
C 383.109783 263.899901 383.872913 264.216 384.668523 264.216 
z
" style="fill:#f26b38;stroke:#ffffff;stroke-width:0.48;"/>
    <path clip-path="url(#p7de795cf9c)" d="M 58.513977 35.824421 
L 60.013977 34.324421 
L 61.513977 35.824421 
L 63.013977 34.324421 
L 61.513977 32.824421 
L 63.013977 31.324421 
L 61.513977 29.824421 
L 60.013977 31.324421 
L 58.513977 29.824421 
L 57.013977 31.324421 
L 58.513977 32.824421 
L 57.013977 34.324421 
z
" style="fill:#2f9599;stroke:#ffffff;stroke-width:0.48;"/>
    <path clip-path="url(#p7de795cf9c)" d="M 65.277614 40.485474 
L 66.777614 38.985474 
L 68.277614 40.485474 
L 69.777614 38.985474 
L 68.277614 37.485474 
L 69.777614 35.985474 
L 68.277614 34.485474 
L 66.777614 35.985474 
L 65.277614 34.485474 
L 63.777614 35.985474 
L 65.277614 37.485474 
L 63.777614 38.985474 
z
" style="fill:#2f9599;stroke:#ffffff;stroke-width:0.48;"/>
    <path clip-path="url(#p7de795cf9c)" d="M 72.04125 75.443368 
L 73.54125 73.943368 
L 75.04125 75.443368 
L 76.54125 73.943368 
L 75.04125 72.443368 
L 76.54125 70.943368 
L 75.04125 69.443368 
L 73.54125 70.943368 
L 72.04125 69.443368 
L 70.54125 70.943368 
L 72.04125 72.443368 
L 70.54125 73.943368 
z
" style="fill:#2f9599;stroke:#ffffff;stroke-width:0.48;"/>
    <path clip-path="url(#p7de795cf9c)" d="M 78.804886 109.082097 
L 80.304886 107.582097 
L 81.804886 109.082097 
L 83.304886 107.582097 
L 81.804886 106.082097 
L 83.304886 104.582097 
L 81.804886 103.082097 
L 80.304886 104.582097 
L 78.804886 103.082097 
L 77.304886 104.582097 
L 78.804886 106.082097 
L 77.304886 107.582097 
z
" style="fill:#2f9599;stroke:#ffffff;stroke-width:0.48;"/>
    <path clip-path="url(#p7de795cf9c)" d="M 85.568523 103.213659 
L 87.068523 101.713659 
L 88.568523 103.213659 
L 90.068523 101.713659 
L 88.568523 100.213659 
L 90.068523 98.713659 
L 88.568523 97.213659 
L 87.068523 98.713659 
L 85.568523 97.213659 
L 84.068523 98.713659 
L 85.568523 100.213659 
L 84.068523 101.713659 
z
" style="fill:#2f9599;stroke:#ffffff;stroke-width:0.48;"/>
    <path clip-path="url(#p7de795cf9c)" d="M 92.332159 127.371115 
L 93.832159 125.871115 
L 95.332159 127.371115 
L 96.832159 125.871115 
L 95.332159 124.371115 
L 96.832159 122.871115 
L 95.332159 121.371115 
L 93.832159 122.871115 
L 92.332159 121.371115 
L 90.832159 122.871115 
L 92.332159 124.371115 
L 90.832159 125.871115 
z
" style="fill:#2f9599;stroke:#ffffff;stroke-width:0.48;"/>
    <path clip-path="url(#p7de795cf9c)" d="M 99.095795 127.371115 
L 100.595795 125.871115 
L 102.095795 127.371115 
L 103.595795 125.871115 
L 102.095795 124.371115 
L 103.595795 122.871115 
L 102.095795 121.371115 
L 100.595795 122.871115 
L 99.095795 121.371115 
L 97.595795 122.871115 
L 99.095795 124.371115 
L 97.595795 125.871115 
z
" style="fill:#2f9599;stroke:#ffffff;stroke-width:0.48;"/>
    <path clip-path="url(#p7de795cf9c)" d="M 105.859432 127.371115 
L 107.359432 125.871115 
L 108.859432 127.371115 
L 110.359432 125.871115 
L 108.859432 124.371115 
L 110.359432 122.871115 
L 108.859432 121.371115 
L 107.359432 122.871115 
L 105.859432 121.371115 
L 104.359432 122.871115 
L 105.859432 124.371115 
L 104.359432 125.871115 
z
" style="fill:#2f9599;stroke:#ffffff;stroke-width:0.48;"/>
    <path clip-path="url(#p7de795cf9c)" d="M 112.623068 127.371115 
L 114.123068 125.871115 
L 115.623068 127.371115 
L 117.123068 125.871115 
L 115.623068 124.371115 
L 117.123068 122.871115 
L 115.623068 121.371115 
L 114.123068 122.871115 
L 112.623068 121.371115 
L 111.123068 122.871115 
L 112.623068 124.371115 
L 111.123068 125.871115 
z
" style="fill:#2f9599;stroke:#ffffff;stroke-width:0.48;"/>
    <path clip-path="url(#p7de795cf9c)" d="M 119.386705 109.082097 
L 120.886705 107.582097 
L 122.386705 109.082097 
L 123.886705 107.582097 
L 122.386705 106.082097 
L 123.886705 104.582097 
L 122.386705 103.082097 
L 120.886705 104.582097 
L 119.386705 103.082097 
L 117.886705 104.582097 
L 119.386705 106.082097 
L 117.886705 107.582097 
z
" style="fill:#2f9599;stroke:#ffffff;stroke-width:0.48;"/>
    <path clip-path="url(#p7de795cf9c)" d="M 126.150341 86.248536 
L 127.650341 84.748536 
L 129.150341 86.248536 
L 130.650341 84.748536 
L 129.150341 83.248536 
L 130.650341 81.748536 
L 129.150341 80.248536 
L 127.650341 81.748536 
L 126.150341 80.248536 
L 124.650341 81.748536 
L 126.150341 83.248536 
L 124.650341 84.748536 
z
" style="fill:#2f9599;stroke:#ffffff;stroke-width:0.48;"/>
    <path clip-path="url(#p7de795cf9c)" d="M 132.913977 160.341113 
L 134.413977 158.841113 
L 135.913977 160.341113 
L 137.413977 158.841113 
L 135.913977 157.341113 
L 137.413977 155.841113 
L 135.913977 154.341113 
L 134.413977 155.841113 
L 132.913977 154.341113 
L 131.413977 155.841113 
L 132.913977 157.341113 
L 131.413977 158.841113 
z
" style="fill:#2f9599;stroke:#ffffff;stroke-width:0.48;"/>
    <path clip-path="url(#p7de795cf9c)" d="M 139.677614 160.341113 
L 141.177614 158.841113 
L 142.677614 160.341113 
L 144.177614 158.841113 
L 142.677614 157.341113 
L 144.177614 155.841113 
L 142.677614 154.341113 
L 141.177614 155.841113 
L 139.677614 154.341113 
L 138.177614 155.841113 
L 139.677614 157.341113 
L 138.177614 158.841113 
z
" style="fill:#2f9599;stroke:#ffffff;stroke-width:0.48;"/>
    <path clip-path="url(#p7de795cf9c)" d="M 146.44125 160.341113 
L 147.94125 158.841113 
L 149.44125 160.341113 
L 150.94125 158.841113 
L 149.44125 157.341113 
L 150.94125 155.841113 
L 149.44125 154.341113 
L 147.94125 155.841113 
L 146.44125 154.341113 
L 144.94125 155.841113 
L 146.44125 157.341113 
L 144.94125 158.841113 
z
" style="fill:#2f9599;stroke:#ffffff;stroke-width:0.48;"/>
    <path clip-path="url(#p7de795cf9c)" d="M 153.204886 160.341113 
L 154.704886 158.841113 
L 156.204886 160.341113 
L 157.704886 158.841113 
L 156.204886 157.341113 
L 157.704886 155.841113 
L 156.204886 154.341113 
L 154.704886 155.841113 
L 153.204886 154.341113 
L 151.704886 155.841113 
L 153.204886 157.341113 
L 151.704886 158.841113 
z
" style="fill:#2f9599;stroke:#ffffff;stroke-width:0.48;"/>
    <path clip-path="url(#p7de795cf9c)" d="M 159.968523 153.480689 
L 161.468523 151.980689 
L 162.968523 153.480689 
L 164.468523 151.980689 
L 162.968523 150.480689 
L 164.468523 148.980689 
L 162.968523 147.480689 
L 161.468523 148.980689 
L 159.968523 147.480689 
L 158.468523 148.980689 
L 159.968523 150.480689 
L 158.468523 151.980689 
z
" style="fill:#2f9599;stroke:#ffffff;stroke-width:0.48;"/>
    <path clip-path="url(#p7de795cf9c)" d="M 166.732159 264.216 
L 168.232159 262.716 
L 169.732159 264.216 
L 171.232159 262.716 
L 169.732159 261.216 
L 171.232159 259.716 
L 169.732159 258.216 
L 168.232159 259.716 
L 166.732159 258.216 
L 165.232159 259.716 
L 166.732159 261.216 
L 165.232159 262.716 
z
" style="fill:#2f9599;stroke:#ffffff;stroke-width:0.48;"/>
    <path clip-path="url(#p7de795cf9c)" d="M 173.495795 264.216 
L 174.995795 262.716 
L 176.495795 264.216 
L 177.995795 262.716 
L 176.495795 261.216 
L 177.995795 259.716 
L 176.495795 258.216 
L 174.995795 259.716 
L 173.495795 258.216 
L 171.995795 259.716 
L 173.495795 261.216 
L 171.995795 262.716 
z
" style="fill:#2f9599;stroke:#ffffff;stroke-width:0.48;"/>
    <path clip-path="url(#p7de795cf9c)" d="M 180.259432 264.216 
L 181.759432 262.716 
L 183.259432 264.216 
L 184.759432 262.716 
L 183.259432 261.216 
L 184.759432 259.716 
L 183.259432 258.216 
L 181.759432 259.716 
L 180.259432 258.216 
L 178.759432 259.716 
L 180.259432 261.216 
L 178.759432 262.716 
z
" style="fill:#2f9599;stroke:#ffffff;stroke-width:0.48;"/>
    <path clip-path="url(#p7de795cf9c)" d="M 187.023068 264.216 
L 188.523068 262.716 
L 190.023068 264.216 
L 191.523068 262.716 
L 190.023068 261.216 
L 191.523068 259.716 
L 190.023068 258.216 
L 188.523068 259.716 
L 187.023068 258.216 
L 185.523068 259.716 
L 187.023068 261.216 
L 185.523068 262.716 
z
" style="fill:#2f9599;stroke:#ffffff;stroke-width:0.48;"/>
    <path clip-path="url(#p7de795cf9c)" d="M 193.786705 264.216 
L 195.286705 262.716 
L 196.786705 264.216 
L 198.286705 262.716 
L 196.786705 261.216 
L 198.286705 259.716 
L 196.786705 258.216 
L 195.286705 259.716 
L 193.786705 258.216 
L 192.286705 259.716 
L 193.786705 261.216 
L 192.286705 262.716 
z
" style="fill:#2f9599;stroke:#ffffff;stroke-width:0.48;"/>
    <path clip-path="url(#p7de795cf9c)" d="M 200.550341 264.216 
L 202.050341 262.716 
L 203.550341 264.216 
L 205.050341 262.716 
L 203.550341 261.216 
L 205.050341 259.716 
L 203.550341 258.216 
L 202.050341 259.716 
L 200.550341 258.216 
L 199.050341 259.716 
L 200.550341 261.216 
L 199.050341 262.716 
z
" style="fill:#2f9599;stroke:#ffffff;stroke-width:0.48;"/>
    <path clip-path="url(#p7de795cf9c)" d="M 207.313977 264.216 
L 208.813977 262.716 
L 210.313977 264.216 
L 211.813977 262.716 
L 210.313977 261.216 
L 211.813977 259.716 
L 210.313977 258.216 
L 208.813977 259.716 
L 207.313977 258.216 
L 205.813977 259.716 
L 207.313977 261.216 
L 205.813977 262.716 
z
" style="fill:#2f9599;stroke:#ffffff;stroke-width:0.48;"/>
    <path clip-path="url(#p7de795cf9c)" d="M 214.077614 264.216 
L 215.577614 262.716 
L 217.077614 264.216 
L 218.577614 262.716 
L 217.077614 261.216 
L 218.577614 259.716 
L 217.077614 258.216 
L 215.577614 259.716 
L 214.077614 258.216 
L 212.577614 259.716 
L 214.077614 261.216 
L 212.577614 262.716 
z
" style="fill:#2f9599;stroke:#ffffff;stroke-width:0.48;"/>
    <path clip-path="url(#p7de795cf9c)" d="M 220.84125 264.216 
L 222.34125 262.716 
L 223.84125 264.216 
L 225.34125 262.716 
L 223.84125 261.216 
L 225.34125 259.716 
L 223.84125 258.216 
L 222.34125 259.716 
L 220.84125 258.216 
L 219.34125 259.716 
L 220.84125 261.216 
L 219.34125 262.716 
z
" style="fill:#2f9599;stroke:#ffffff;stroke-width:0.48;"/>
    <path clip-path="url(#p7de795cf9c)" d="M 227.604886 264.216 
L 229.104886 262.716 
L 230.604886 264.216 
L 232.104886 262.716 
L 230.604886 261.216 
L 232.104886 259.716 
L 230.604886 258.216 
L 229.104886 259.716 
L 227.604886 258.216 
L 226.104886 259.716 
L 227.604886 261.216 
L 226.104886 262.716 
z
" style="fill:#2f9599;stroke:#ffffff;stroke-width:0.48;"/>
    <path clip-path="url(#p7de795cf9c)" d="M 234.368523 264.216 
L 235.868523 262.716 
L 237.368523 264.216 
L 238.868523 262.716 
L 237.368523 261.216 
L 238.868523 259.716 
L 237.368523 258.216 
L 235.868523 259.716 
L 234.368523 258.216 
L 232.868523 259.716 
L 234.368523 261.216 
L 232.868523 262.716 
z
" style="fill:#2f9599;stroke:#ffffff;stroke-width:0.48;"/>
    <path clip-path="url(#p7de795cf9c)" d="M 241.132159 264.216 
L 242.632159 262.716 
L 244.132159 264.216 
L 245.632159 262.716 
L 244.132159 261.216 
L 245.632159 259.716 
L 244.132159 258.216 
L 242.632159 259.716 
L 241.132159 258.216 
L 239.632159 259.716 
L 241.132159 261.216 
L 239.632159 262.716 
z
" style="fill:#2f9599;stroke:#ffffff;stroke-width:0.48;"/>
    <path clip-path="url(#p7de795cf9c)" d="M 247.895795 264.216 
L 249.395795 262.716 
L 250.895795 264.216 
L 252.395795 262.716 
L 250.895795 261.216 
L 252.395795 259.716 
L 250.895795 258.216 
L 249.395795 259.716 
L 247.895795 258.216 
L 246.395795 259.716 
L 247.895795 261.216 
L 246.395795 262.716 
z
" style="fill:#2f9599;stroke:#ffffff;stroke-width:0.48;"/>
    <path clip-path="url(#p7de795cf9c)" d="M 254.659432 264.216 
L 256.159432 262.716 
L 257.659432 264.216 
L 259.159432 262.716 
L 257.659432 261.216 
L 259.159432 259.716 
L 257.659432 258.216 
L 256.159432 259.716 
L 254.659432 258.216 
L 253.159432 259.716 
L 254.659432 261.216 
L 253.159432 262.716 
z
" style="fill:#2f9599;stroke:#ffffff;stroke-width:0.48;"/>
    <path clip-path="url(#p7de795cf9c)" d="M 261.423068 264.216 
L 262.923068 262.716 
L 264.423068 264.216 
L 265.923068 262.716 
L 264.423068 261.216 
L 265.923068 259.716 
L 264.423068 258.216 
L 262.923068 259.716 
L 261.423068 258.216 
L 259.923068 259.716 
L 261.423068 261.216 
L 259.923068 262.716 
z
" style="fill:#2f9599;stroke:#ffffff;stroke-width:0.48;"/>
    <path clip-path="url(#p7de795cf9c)" d="M 268.186705 264.216 
L 269.686705 262.716 
L 271.186705 264.216 
L 272.686705 262.716 
L 271.186705 261.216 
L 272.686705 259.716 
L 271.186705 258.216 
L 269.686705 259.716 
L 268.186705 258.216 
L 266.686705 259.716 
L 268.186705 261.216 
L 266.686705 262.716 
z
" style="fill:#2f9599;stroke:#ffffff;stroke-width:0.48;"/>
    <path clip-path="url(#p7de795cf9c)" d="M 274.950341 264.216 
L 276.450341 262.716 
L 277.950341 264.216 
L 279.450341 262.716 
L 277.950341 261.216 
L 279.450341 259.716 
L 277.950341 258.216 
L 276.450341 259.716 
L 274.950341 258.216 
L 273.450341 259.716 
L 274.950341 261.216 
L 273.450341 262.716 
z
" style="fill:#2f9599;stroke:#ffffff;stroke-width:0.48;"/>
    <path clip-path="url(#p7de795cf9c)" d="M 281.713977 264.216 
L 283.213977 262.716 
L 284.713977 264.216 
L 286.213977 262.716 
L 284.713977 261.216 
L 286.213977 259.716 
L 284.713977 258.216 
L 283.213977 259.716 
L 281.713977 258.216 
L 280.213977 259.716 
L 281.713977 261.216 
L 280.213977 262.716 
z
" style="fill:#2f9599;stroke:#ffffff;stroke-width:0.48;"/>
    <path clip-path="url(#p7de795cf9c)" d="M 288.477614 264.216 
L 289.977614 262.716 
L 291.477614 264.216 
L 292.977614 262.716 
L 291.477614 261.216 
L 292.977614 259.716 
L 291.477614 258.216 
L 289.977614 259.716 
L 288.477614 258.216 
L 286.977614 259.716 
L 288.477614 261.216 
L 286.977614 262.716 
z
" style="fill:#2f9599;stroke:#ffffff;stroke-width:0.48;"/>
    <path clip-path="url(#p7de795cf9c)" d="M 295.24125 264.216 
L 296.74125 262.716 
L 298.24125 264.216 
L 299.74125 262.716 
L 298.24125 261.216 
L 299.74125 259.716 
L 298.24125 258.216 
L 296.74125 259.716 
L 295.24125 258.216 
L 293.74125 259.716 
L 295.24125 261.216 
L 293.74125 262.716 
z
" style="fill:#2f9599;stroke:#ffffff;stroke-width:0.48;"/>
    <path clip-path="url(#p7de795cf9c)" d="M 302.004886 264.216 
L 303.504886 262.716 
L 305.004886 264.216 
L 306.504886 262.716 
L 305.004886 261.216 
L 306.504886 259.716 
L 305.004886 258.216 
L 303.504886 259.716 
L 302.004886 258.216 
L 300.504886 259.716 
L 302.004886 261.216 
L 300.504886 262.716 
z
" style="fill:#2f9599;stroke:#ffffff;stroke-width:0.48;"/>
    <path clip-path="url(#p7de795cf9c)" d="M 308.768523 264.216 
L 310.268523 262.716 
L 311.768523 264.216 
L 313.268523 262.716 
L 311.768523 261.216 
L 313.268523 259.716 
L 311.768523 258.216 
L 310.268523 259.716 
L 308.768523 258.216 
L 307.268523 259.716 
L 308.768523 261.216 
L 307.268523 262.716 
z
" style="fill:#2f9599;stroke:#ffffff;stroke-width:0.48;"/>
    <path clip-path="url(#p7de795cf9c)" d="M 315.532159 264.216 
L 317.032159 262.716 
L 318.532159 264.216 
L 320.032159 262.716 
L 318.532159 261.216 
L 320.032159 259.716 
L 318.532159 258.216 
L 317.032159 259.716 
L 315.532159 258.216 
L 314.032159 259.716 
L 315.532159 261.216 
L 314.032159 262.716 
z
" style="fill:#2f9599;stroke:#ffffff;stroke-width:0.48;"/>
    <path clip-path="url(#p7de795cf9c)" d="M 322.295795 264.216 
L 323.795795 262.716 
L 325.295795 264.216 
L 326.795795 262.716 
L 325.295795 261.216 
L 326.795795 259.716 
L 325.295795 258.216 
L 323.795795 259.716 
L 322.295795 258.216 
L 320.795795 259.716 
L 322.295795 261.216 
L 320.795795 262.716 
z
" style="fill:#2f9599;stroke:#ffffff;stroke-width:0.48;"/>
    <path clip-path="url(#p7de795cf9c)" d="M 329.059432 264.216 
L 330.559432 262.716 
L 332.059432 264.216 
L 333.559432 262.716 
L 332.059432 261.216 
L 333.559432 259.716 
L 332.059432 258.216 
L 330.559432 259.716 
L 329.059432 258.216 
L 327.559432 259.716 
L 329.059432 261.216 
L 327.559432 262.716 
z
" style="fill:#2f9599;stroke:#ffffff;stroke-width:0.48;"/>
    <path clip-path="url(#p7de795cf9c)" d="M 335.823068 264.216 
L 337.323068 262.716 
L 338.823068 264.216 
L 340.323068 262.716 
L 338.823068 261.216 
L 340.323068 259.716 
L 338.823068 258.216 
L 337.323068 259.716 
L 335.823068 258.216 
L 334.323068 259.716 
L 335.823068 261.216 
L 334.323068 262.716 
z
" style="fill:#2f9599;stroke:#ffffff;stroke-width:0.48;"/>
    <path clip-path="url(#p7de795cf9c)" d="M 342.586705 264.216 
L 344.086705 262.716 
L 345.586705 264.216 
L 347.086705 262.716 
L 345.586705 261.216 
L 347.086705 259.716 
L 345.586705 258.216 
L 344.086705 259.716 
L 342.586705 258.216 
L 341.086705 259.716 
L 342.586705 261.216 
L 341.086705 262.716 
z
" style="fill:#2f9599;stroke:#ffffff;stroke-width:0.48;"/>
    <path clip-path="url(#p7de795cf9c)" d="M 349.350341 264.216 
L 350.850341 262.716 
L 352.350341 264.216 
L 353.850341 262.716 
L 352.350341 261.216 
L 353.850341 259.716 
L 352.350341 258.216 
L 350.850341 259.716 
L 349.350341 258.216 
L 347.850341 259.716 
L 349.350341 261.216 
L 347.850341 262.716 
z
" style="fill:#2f9599;stroke:#ffffff;stroke-width:0.48;"/>
    <path clip-path="url(#p7de795cf9c)" d="M 356.113977 264.216 
L 357.613977 262.716 
L 359.113977 264.216 
L 360.613977 262.716 
L 359.113977 261.216 
L 360.613977 259.716 
L 359.113977 258.216 
L 357.613977 259.716 
L 356.113977 258.216 
L 354.613977 259.716 
L 356.113977 261.216 
L 354.613977 262.716 
z
" style="fill:#2f9599;stroke:#ffffff;stroke-width:0.48;"/>
    <path clip-path="url(#p7de795cf9c)" d="M 362.877614 264.216 
L 364.377614 262.716 
L 365.877614 264.216 
L 367.377614 262.716 
L 365.877614 261.216 
L 367.377614 259.716 
L 365.877614 258.216 
L 364.377614 259.716 
L 362.877614 258.216 
L 361.377614 259.716 
L 362.877614 261.216 
L 361.377614 262.716 
z
" style="fill:#2f9599;stroke:#ffffff;stroke-width:0.48;"/>
    <path clip-path="url(#p7de795cf9c)" d="M 369.64125 264.216 
L 371.14125 262.716 
L 372.64125 264.216 
L 374.14125 262.716 
L 372.64125 261.216 
L 374.14125 259.716 
L 372.64125 258.216 
L 371.14125 259.716 
L 369.64125 258.216 
L 368.14125 259.716 
L 369.64125 261.216 
L 368.14125 262.716 
z
" style="fill:#2f9599;stroke:#ffffff;stroke-width:0.48;"/>
    <path clip-path="url(#p7de795cf9c)" d="M 376.404886 264.216 
L 377.904886 262.716 
L 379.404886 264.216 
L 380.904886 262.716 
L 379.404886 261.216 
L 380.904886 259.716 
L 379.404886 258.216 
L 377.904886 259.716 
L 376.404886 258.216 
L 374.904886 259.716 
L 376.404886 261.216 
L 374.904886 262.716 
z
" style="fill:#2f9599;stroke:#ffffff;stroke-width:0.48;"/>
    <path clip-path="url(#p7de795cf9c)" d="M 383.168523 264.216 
L 384.668523 262.716 
L 386.168523 264.216 
L 387.668523 262.716 
L 386.168523 261.216 
L 387.668523 259.716 
L 386.168523 258.216 
L 384.668523 259.716 
L 383.168523 258.216 
L 381.668523 259.716 
L 383.168523 261.216 
L 381.668523 262.716 
z
" style="fill:#2f9599;stroke:#ffffff;stroke-width:0.48;"/>
    <path clip-path="url(#p7de795cf9c)" d="M 57.892657 17.17468 
L 57.892657 21.41732 
L 62.135298 21.41732 
L 62.135298 17.17468 
z
" style="fill:#a7226e;stroke:#ffffff;stroke-width:0.48;"/>
    <path clip-path="url(#p7de795cf9c)" d="M 64.656293 17.17468 
L 64.656293 21.41732 
L 68.898934 21.41732 
L 68.898934 17.17468 
z
" style="fill:#a7226e;stroke:#ffffff;stroke-width:0.48;"/>
    <path clip-path="url(#p7de795cf9c)" d="M 71.41993 17.17468 
L 71.41993 21.41732 
L 75.66257 21.41732 
L 75.66257 17.17468 
z
" style="fill:#a7226e;stroke:#ffffff;stroke-width:0.48;"/>
    <path clip-path="url(#p7de795cf9c)" d="M 78.183566 17.17468 
L 78.183566 21.41732 
L 82.426207 21.41732 
L 82.426207 17.17468 
z
" style="fill:#a7226e;stroke:#ffffff;stroke-width:0.48;"/>
    <path clip-path="url(#p7de795cf9c)" d="M 84.947202 21.610228 
L 84.947202 25.852868 
L 89.189843 25.852868 
L 89.189843 21.610228 
z
" style="fill:#a7226e;stroke:#ffffff;stroke-width:0.48;"/>
    <path clip-path="url(#p7de795cf9c)" d="M 91.710839 26.11909 
L 91.710839 30.361731 
L 95.953479 30.361731 
L 95.953479 26.11909 
z
" style="fill:#a7226e;stroke:#ffffff;stroke-width:0.48;"/>
    <path clip-path="url(#p7de795cf9c)" d="M 98.474475 26.11909 
L 98.474475 30.361731 
L 102.717116 30.361731 
L 102.717116 26.11909 
z
" style="fill:#a7226e;stroke:#ffffff;stroke-width:0.48;"/>
    <path clip-path="url(#p7de795cf9c)" d="M 105.238111 30.703101 
L 105.238111 34.945741 
L 109.480752 34.945741 
L 109.480752 30.703101 
z
" style="fill:#a7226e;stroke:#ffffff;stroke-width:0.48;"/>
    <path clip-path="url(#p7de795cf9c)" d="M 112.001748 30.703101 
L 112.001748 34.945741 
L 116.244389 34.945741 
L 116.244389 30.703101 
z
" style="fill:#a7226e;stroke:#ffffff;stroke-width:0.48;"/>
    <path clip-path="url(#p7de795cf9c)" d="M 118.765384 26.11909 
L 118.765384 30.361731 
L 123.008025 30.361731 
L 123.008025 26.11909 
z
" style="fill:#a7226e;stroke:#ffffff;stroke-width:0.48;"/>
    <path clip-path="url(#p7de795cf9c)" d="M 125.529021 26.11909 
L 125.529021 30.361731 
L 129.771661 30.361731 
L 129.771661 26.11909 
z
" style="fill:#a7226e;stroke:#ffffff;stroke-width:0.48;"/>
    <path clip-path="url(#p7de795cf9c)" d="M 132.292657 30.703101 
L 132.292657 34.945741 
L 136.535298 34.945741 
L 136.535298 30.703101 
z
" style="fill:#a7226e;stroke:#ffffff;stroke-width:0.48;"/>
    <path clip-path="url(#p7de795cf9c)" d="M 139.056293 30.703101 
L 139.056293 34.945741 
L 143.298934 34.945741 
L 143.298934 30.703101 
z
" style="fill:#a7226e;stroke:#ffffff;stroke-width:0.48;"/>
    <path clip-path="url(#p7de795cf9c)" d="M 145.81993 30.703101 
L 145.81993 34.945741 
L 150.06257 34.945741 
L 150.06257 30.703101 
z
" style="fill:#a7226e;stroke:#ffffff;stroke-width:0.48;"/>
    <path clip-path="url(#p7de795cf9c)" d="M 152.583566 26.11909 
L 152.583566 30.361731 
L 156.826207 30.361731 
L 156.826207 26.11909 
z
" style="fill:#a7226e;stroke:#ffffff;stroke-width:0.48;"/>
    <path clip-path="url(#p7de795cf9c)" d="M 159.347202 70.322048 
L 159.347202 74.564689 
L 163.589843 74.564689 
L 163.589843 70.322048 
z
" style="fill:#a7226e;stroke:#ffffff;stroke-width:0.48;"/>
    <path clip-path="url(#p7de795cf9c)" d="M 166.110839 70.322048 
L 166.110839 74.564689 
L 170.353479 74.564689 
L 170.353479 70.322048 
z
" style="fill:#a7226e;stroke:#ffffff;stroke-width:0.48;"/>
    <path clip-path="url(#p7de795cf9c)" d="M 172.874475 92.332574 
L 172.874475 96.575215 
L 177.117116 96.575215 
L 177.117116 92.332574 
z
" style="fill:#a7226e;stroke:#ffffff;stroke-width:0.48;"/>
    <path clip-path="url(#p7de795cf9c)" d="M 179.638111 92.332574 
L 179.638111 96.575215 
L 183.880752 96.575215 
L 183.880752 92.332574 
z
" style="fill:#a7226e;stroke:#ffffff;stroke-width:0.48;"/>
    <path clip-path="url(#p7de795cf9c)" d="M 186.401748 86.678494 
L 186.401748 90.921135 
L 190.644389 90.921135 
L 190.644389 86.678494 
z
" style="fill:#a7226e;stroke:#ffffff;stroke-width:0.48;"/>
    <path clip-path="url(#p7de795cf9c)" d="M 193.165384 92.332574 
L 193.165384 96.575215 
L 197.408025 96.575215 
L 197.408025 92.332574 
z
" style="fill:#a7226e;stroke:#ffffff;stroke-width:0.48;"/>
    <path clip-path="url(#p7de795cf9c)" d="M 199.929021 92.332574 
L 199.929021 96.575215 
L 204.171661 96.575215 
L 204.171661 92.332574 
z
" style="fill:#a7226e;stroke:#ffffff;stroke-width:0.48;"/>
    <path clip-path="url(#p7de795cf9c)" d="M 206.692657 86.678494 
L 206.692657 90.921135 
L 210.935298 90.921135 
L 210.935298 86.678494 
z
" style="fill:#a7226e;stroke:#ffffff;stroke-width:0.48;"/>
    <path clip-path="url(#p7de795cf9c)" d="M 213.456293 103.960777 
L 213.456293 108.203418 
L 217.698934 108.203418 
L 217.698934 103.960777 
z
" style="fill:#a7226e;stroke:#ffffff;stroke-width:0.48;"/>
    <path clip-path="url(#p7de795cf9c)" d="M 220.21993 109.940995 
L 220.21993 114.183636 
L 224.46257 114.183636 
L 224.46257 109.940995 
z
" style="fill:#a7226e;stroke:#ffffff;stroke-width:0.48;"/>
    <path clip-path="url(#p7de795cf9c)" d="M 226.983566 109.940995 
L 226.983566 114.183636 
L 231.226207 114.183636 
L 231.226207 109.940995 
z
" style="fill:#a7226e;stroke:#ffffff;stroke-width:0.48;"/>
    <path clip-path="url(#p7de795cf9c)" d="M 233.747202 92.332574 
L 233.747202 96.575215 
L 237.989843 96.575215 
L 237.989843 92.332574 
z
" style="fill:#a7226e;stroke:#ffffff;stroke-width:0.48;"/>
    <path clip-path="url(#p7de795cf9c)" d="M 240.510839 75.67596 
L 240.510839 79.918601 
L 244.753479 79.918601 
L 244.753479 75.67596 
z
" style="fill:#a7226e;stroke:#ffffff;stroke-width:0.48;"/>
    <path clip-path="url(#p7de795cf9c)" d="M 247.274475 98.092338 
L 247.274475 102.334979 
L 251.517116 102.334979 
L 251.517116 98.092338 
z
" style="fill:#a7226e;stroke:#ffffff;stroke-width:0.48;"/>
    <path clip-path="url(#p7de795cf9c)" d="M 254.038111 122.249795 
L 254.038111 126.492435 
L 258.280752 126.492435 
L 258.280752 122.249795 
z
" style="fill:#a7226e;stroke:#ffffff;stroke-width:0.48;"/>
    <path clip-path="url(#p7de795cf9c)" d="M 260.801748 122.249795 
L 260.801748 126.492435 
L 265.044389 126.492435 
L 265.044389 122.249795 
z
" style="fill:#a7226e;stroke:#ffffff;stroke-width:0.48;"/>
    <path clip-path="url(#p7de795cf9c)" d="M 267.565384 122.249795 
L 267.565384 126.492435 
L 271.808025 126.492435 
L 271.808025 122.249795 
z
" style="fill:#a7226e;stroke:#ffffff;stroke-width:0.48;"/>
    <path clip-path="url(#p7de795cf9c)" d="M 274.329021 116.036218 
L 274.329021 120.278859 
L 278.571661 120.278859 
L 278.571661 116.036218 
z
" style="fill:#a7226e;stroke:#ffffff;stroke-width:0.48;"/>
    <path clip-path="url(#p7de795cf9c)" d="M 281.092657 259.09468 
L 281.092657 263.33732 
L 285.335298 263.33732 
L 285.335298 259.09468 
z
" style="fill:#a7226e;stroke:#ffffff;stroke-width:0.48;"/>
    <path clip-path="url(#p7de795cf9c)" d="M 287.856293 259.09468 
L 287.856293 263.33732 
L 292.098934 263.33732 
L 292.098934 259.09468 
z
" style="fill:#a7226e;stroke:#ffffff;stroke-width:0.48;"/>
    <path clip-path="url(#p7de795cf9c)" d="M 294.61993 259.09468 
L 294.61993 263.33732 
L 298.86257 263.33732 
L 298.86257 259.09468 
z
" style="fill:#a7226e;stroke:#ffffff;stroke-width:0.48;"/>
    <path clip-path="url(#p7de795cf9c)" d="M 301.383566 259.09468 
L 301.383566 263.33732 
L 305.626207 263.33732 
L 305.626207 259.09468 
z
" style="fill:#a7226e;stroke:#ffffff;stroke-width:0.48;"/>
    <path clip-path="url(#p7de795cf9c)" d="M 308.147202 259.09468 
L 308.147202 263.33732 
L 312.389843 263.33732 
L 312.389843 259.09468 
z
" style="fill:#a7226e;stroke:#ffffff;stroke-width:0.48;"/>
    <path clip-path="url(#p7de795cf9c)" d="M 314.910839 259.09468 
L 314.910839 263.33732 
L 319.153479 263.33732 
L 319.153479 259.09468 
z
" style="fill:#a7226e;stroke:#ffffff;stroke-width:0.48;"/>
    <path clip-path="url(#p7de795cf9c)" d="M 321.674475 259.09468 
L 321.674475 263.33732 
L 325.917116 263.33732 
L 325.917116 259.09468 
z
" style="fill:#a7226e;stroke:#ffffff;stroke-width:0.48;"/>
    <path clip-path="url(#p7de795cf9c)" d="M 328.438111 259.09468 
L 328.438111 263.33732 
L 332.680752 263.33732 
L 332.680752 259.09468 
z
" style="fill:#a7226e;stroke:#ffffff;stroke-width:0.48;"/>
    <path clip-path="url(#p7de795cf9c)" d="M 335.201748 259.09468 
L 335.201748 263.33732 
L 339.444389 263.33732 
L 339.444389 259.09468 
z
" style="fill:#a7226e;stroke:#ffffff;stroke-width:0.48;"/>
    <path clip-path="url(#p7de795cf9c)" d="M 341.965384 259.09468 
L 341.965384 263.33732 
L 346.208025 263.33732 
L 346.208025 259.09468 
z
" style="fill:#a7226e;stroke:#ffffff;stroke-width:0.48;"/>
    <path clip-path="url(#p7de795cf9c)" d="M 348.729021 259.09468 
L 348.729021 263.33732 
L 352.971661 263.33732 
L 352.971661 259.09468 
z
" style="fill:#a7226e;stroke:#ffffff;stroke-width:0.48;"/>
    <path clip-path="url(#p7de795cf9c)" d="M 355.492657 259.09468 
L 355.492657 263.33732 
L 359.735298 263.33732 
L 359.735298 259.09468 
z
" style="fill:#a7226e;stroke:#ffffff;stroke-width:0.48;"/>
    <path clip-path="url(#p7de795cf9c)" d="M 362.256293 259.09468 
L 362.256293 263.33732 
L 366.498934 263.33732 
L 366.498934 259.09468 
z
" style="fill:#a7226e;stroke:#ffffff;stroke-width:0.48;"/>
    <path clip-path="url(#p7de795cf9c)" d="M 369.01993 259.09468 
L 369.01993 263.33732 
L 373.26257 263.33732 
L 373.26257 259.09468 
z
" style="fill:#a7226e;stroke:#ffffff;stroke-width:0.48;"/>
    <path clip-path="url(#p7de795cf9c)" d="M 375.783566 259.09468 
L 375.783566 263.33732 
L 380.026207 263.33732 
L 380.026207 259.09468 
z
" style="fill:#a7226e;stroke:#ffffff;stroke-width:0.48;"/>
    <path clip-path="url(#p7de795cf9c)" d="M 382.547202 259.09468 
L 382.547202 263.33732 
L 386.789843 263.33732 
L 386.789843 259.09468 
z
" style="fill:#a7226e;stroke:#ffffff;stroke-width:0.48;"/>
   </g>
   <g id="PathCollection_2"/>
   <g id="PathCollection_3"/>
   <g id="PathCollection_4"/>
   <g id="matplotlib.axis_1">
    <g id="xtick_1">
     <g id="line2d_1">
      <defs>
       <path d="M 0 0 
L 0 3.5 
" id="m5c8bc59d0e" style="stroke:#000000;stroke-width:0.8;"/>
      </defs>
      <g>
       <use style="stroke:#000000;stroke-width:0.8;" x="53.250341" xlink:href="#m5c8bc59d0e" y="273.312"/>
      </g>
     </g>
     <g id="text_1">
      <!-- 0.0 -->
      <g transform="translate(45.298778 287.910437)scale(0.1 -0.1)">
       <defs>
        <path d="M 31.78125 66.40625 
Q 24.171875 66.40625 20.328125 58.90625 
Q 16.5 51.421875 16.5 36.375 
Q 16.5 21.390625 20.328125 13.890625 
Q 24.171875 6.390625 31.78125 6.390625 
Q 39.453125 6.390625 43.28125 13.890625 
Q 47.125 21.390625 47.125 36.375 
Q 47.125 51.421875 43.28125 58.90625 
Q 39.453125 66.40625 31.78125 66.40625 
z
M 31.78125 74.21875 
Q 44.046875 74.21875 50.515625 64.515625 
Q 56.984375 54.828125 56.984375 36.375 
Q 56.984375 17.96875 50.515625 8.265625 
Q 44.046875 -1.421875 31.78125 -1.421875 
Q 19.53125 -1.421875 13.0625 8.265625 
Q 6.59375 17.96875 6.59375 36.375 
Q 6.59375 54.828125 13.0625 64.515625 
Q 19.53125 74.21875 31.78125 74.21875 
z
" id="DejaVuSans-48"/>
        <path d="M 10.6875 12.40625 
L 21 12.40625 
L 21 0 
L 10.6875 0 
z
" id="DejaVuSans-46"/>
       </defs>
       <use xlink:href="#DejaVuSans-48"/>
       <use x="63.623047" xlink:href="#DejaVuSans-46"/>
       <use x="95.410156" xlink:href="#DejaVuSans-48"/>
      </g>
     </g>
    </g>
    <g id="xtick_2">
     <g id="line2d_2">
      <g>
       <use style="stroke:#000000;stroke-width:0.8;" x="120.886705" xlink:href="#m5c8bc59d0e" y="273.312"/>
      </g>
     </g>
     <g id="text_2">
      <!-- 0.2 -->
      <g transform="translate(112.935142 287.910437)scale(0.1 -0.1)">
       <defs>
        <path d="M 19.1875 8.296875 
L 53.609375 8.296875 
L 53.609375 0 
L 7.328125 0 
L 7.328125 8.296875 
Q 12.9375 14.109375 22.625 23.890625 
Q 32.328125 33.6875 34.8125 36.53125 
Q 39.546875 41.84375 41.421875 45.53125 
Q 43.3125 49.21875 43.3125 52.78125 
Q 43.3125 58.59375 39.234375 62.25 
Q 35.15625 65.921875 28.609375 65.921875 
Q 23.96875 65.921875 18.8125 64.3125 
Q 13.671875 62.703125 7.8125 59.421875 
L 7.8125 69.390625 
Q 13.765625 71.78125 18.9375 73 
Q 24.125 74.21875 28.421875 74.21875 
Q 39.75 74.21875 46.484375 68.546875 
Q 53.21875 62.890625 53.21875 53.421875 
Q 53.21875 48.921875 51.53125 44.890625 
Q 49.859375 40.875 45.40625 35.40625 
Q 44.1875 33.984375 37.640625 27.21875 
Q 31.109375 20.453125 19.1875 8.296875 
z
" id="DejaVuSans-50"/>
       </defs>
       <use xlink:href="#DejaVuSans-48"/>
       <use x="63.623047" xlink:href="#DejaVuSans-46"/>
       <use x="95.410156" xlink:href="#DejaVuSans-50"/>
      </g>
     </g>
    </g>
    <g id="xtick_3">
     <g id="line2d_3">
      <g>
       <use style="stroke:#000000;stroke-width:0.8;" x="188.523068" xlink:href="#m5c8bc59d0e" y="273.312"/>
      </g>
     </g>
     <g id="text_3">
      <!-- 0.4 -->
      <g transform="translate(180.571506 287.910437)scale(0.1 -0.1)">
       <defs>
        <path d="M 37.796875 64.3125 
L 12.890625 25.390625 
L 37.796875 25.390625 
z
M 35.203125 72.90625 
L 47.609375 72.90625 
L 47.609375 25.390625 
L 58.015625 25.390625 
L 58.015625 17.1875 
L 47.609375 17.1875 
L 47.609375 0 
L 37.796875 0 
L 37.796875 17.1875 
L 4.890625 17.1875 
L 4.890625 26.703125 
z
" id="DejaVuSans-52"/>
       </defs>
       <use xlink:href="#DejaVuSans-48"/>
       <use x="63.623047" xlink:href="#DejaVuSans-46"/>
       <use x="95.410156" xlink:href="#DejaVuSans-52"/>
      </g>
     </g>
    </g>
    <g id="xtick_4">
     <g id="line2d_4">
      <g>
       <use style="stroke:#000000;stroke-width:0.8;" x="256.159432" xlink:href="#m5c8bc59d0e" y="273.312"/>
      </g>
     </g>
     <g id="text_4">
      <!-- 0.6 -->
      <g transform="translate(248.207869 287.910437)scale(0.1 -0.1)">
       <defs>
        <path d="M 33.015625 40.375 
Q 26.375 40.375 22.484375 35.828125 
Q 18.609375 31.296875 18.609375 23.390625 
Q 18.609375 15.53125 22.484375 10.953125 
Q 26.375 6.390625 33.015625 6.390625 
Q 39.65625 6.390625 43.53125 10.953125 
Q 47.40625 15.53125 47.40625 23.390625 
Q 47.40625 31.296875 43.53125 35.828125 
Q 39.65625 40.375 33.015625 40.375 
z
M 52.59375 71.296875 
L 52.59375 62.3125 
Q 48.875 64.0625 45.09375 64.984375 
Q 41.3125 65.921875 37.59375 65.921875 
Q 27.828125 65.921875 22.671875 59.328125 
Q 17.53125 52.734375 16.796875 39.40625 
Q 19.671875 43.65625 24.015625 45.921875 
Q 28.375 48.1875 33.59375 48.1875 
Q 44.578125 48.1875 50.953125 41.515625 
Q 57.328125 34.859375 57.328125 23.390625 
Q 57.328125 12.15625 50.6875 5.359375 
Q 44.046875 -1.421875 33.015625 -1.421875 
Q 20.359375 -1.421875 13.671875 8.265625 
Q 6.984375 17.96875 6.984375 36.375 
Q 6.984375 53.65625 15.1875 63.9375 
Q 23.390625 74.21875 37.203125 74.21875 
Q 40.921875 74.21875 44.703125 73.484375 
Q 48.484375 72.75 52.59375 71.296875 
z
" id="DejaVuSans-54"/>
       </defs>
       <use xlink:href="#DejaVuSans-48"/>
       <use x="63.623047" xlink:href="#DejaVuSans-46"/>
       <use x="95.410156" xlink:href="#DejaVuSans-54"/>
      </g>
     </g>
    </g>
    <g id="xtick_5">
     <g id="line2d_5">
      <g>
       <use style="stroke:#000000;stroke-width:0.8;" x="323.795795" xlink:href="#m5c8bc59d0e" y="273.312"/>
      </g>
     </g>
     <g id="text_5">
      <!-- 0.8 -->
      <g transform="translate(315.844233 287.910437)scale(0.1 -0.1)">
       <defs>
        <path d="M 31.78125 34.625 
Q 24.75 34.625 20.71875 30.859375 
Q 16.703125 27.09375 16.703125 20.515625 
Q 16.703125 13.921875 20.71875 10.15625 
Q 24.75 6.390625 31.78125 6.390625 
Q 38.8125 6.390625 42.859375 10.171875 
Q 46.921875 13.96875 46.921875 20.515625 
Q 46.921875 27.09375 42.890625 30.859375 
Q 38.875 34.625 31.78125 34.625 
z
M 21.921875 38.8125 
Q 15.578125 40.375 12.03125 44.71875 
Q 8.5 49.078125 8.5 55.328125 
Q 8.5 64.0625 14.71875 69.140625 
Q 20.953125 74.21875 31.78125 74.21875 
Q 42.671875 74.21875 48.875 69.140625 
Q 55.078125 64.0625 55.078125 55.328125 
Q 55.078125 49.078125 51.53125 44.71875 
Q 48 40.375 41.703125 38.8125 
Q 48.828125 37.15625 52.796875 32.3125 
Q 56.78125 27.484375 56.78125 20.515625 
Q 56.78125 9.90625 50.3125 4.234375 
Q 43.84375 -1.421875 31.78125 -1.421875 
Q 19.734375 -1.421875 13.25 4.234375 
Q 6.78125 9.90625 6.78125 20.515625 
Q 6.78125 27.484375 10.78125 32.3125 
Q 14.796875 37.15625 21.921875 38.8125 
z
M 18.3125 54.390625 
Q 18.3125 48.734375 21.84375 45.5625 
Q 25.390625 42.390625 31.78125 42.390625 
Q 38.140625 42.390625 41.71875 45.5625 
Q 45.3125 48.734375 45.3125 54.390625 
Q 45.3125 60.0625 41.71875 63.234375 
Q 38.140625 66.40625 31.78125 66.40625 
Q 25.390625 66.40625 21.84375 63.234375 
Q 18.3125 60.0625 18.3125 54.390625 
z
" id="DejaVuSans-56"/>
       </defs>
       <use xlink:href="#DejaVuSans-48"/>
       <use x="63.623047" xlink:href="#DejaVuSans-46"/>
       <use x="95.410156" xlink:href="#DejaVuSans-56"/>
      </g>
     </g>
    </g>
    <g id="xtick_6">
     <g id="line2d_6">
      <g>
       <use style="stroke:#000000;stroke-width:0.8;" x="391.432159" xlink:href="#m5c8bc59d0e" y="273.312"/>
      </g>
     </g>
     <g id="text_6">
      <!-- 1.0 -->
      <g transform="translate(383.480597 287.910437)scale(0.1 -0.1)">
       <defs>
        <path d="M 12.40625 8.296875 
L 28.515625 8.296875 
L 28.515625 63.921875 
L 10.984375 60.40625 
L 10.984375 69.390625 
L 28.421875 72.90625 
L 38.28125 72.90625 
L 38.28125 8.296875 
L 54.390625 8.296875 
L 54.390625 0 
L 12.40625 0 
z
" id="DejaVuSans-49"/>
       </defs>
       <use xlink:href="#DejaVuSans-49"/>
       <use x="63.623047" xlink:href="#DejaVuSans-46"/>
       <use x="95.410156" xlink:href="#DejaVuSans-48"/>
      </g>
     </g>
    </g>
    <g id="text_7">
     <!-- cutoff -->
     <g transform="translate(207.883438 301.588562)scale(0.1 -0.1)">
      <defs>
       <path d="M 48.78125 52.59375 
L 48.78125 44.1875 
Q 44.96875 46.296875 41.140625 47.34375 
Q 37.3125 48.390625 33.40625 48.390625 
Q 24.65625 48.390625 19.8125 42.84375 
Q 14.984375 37.3125 14.984375 27.296875 
Q 14.984375 17.28125 19.8125 11.734375 
Q 24.65625 6.203125 33.40625 6.203125 
Q 37.3125 6.203125 41.140625 7.25 
Q 44.96875 8.296875 48.78125 10.40625 
L 48.78125 2.09375 
Q 45.015625 0.34375 40.984375 -0.53125 
Q 36.96875 -1.421875 32.421875 -1.421875 
Q 20.0625 -1.421875 12.78125 6.34375 
Q 5.515625 14.109375 5.515625 27.296875 
Q 5.515625 40.671875 12.859375 48.328125 
Q 20.21875 56 33.015625 56 
Q 37.15625 56 41.109375 55.140625 
Q 45.0625 54.296875 48.78125 52.59375 
z
" id="DejaVuSans-99"/>
       <path d="M 8.5 21.578125 
L 8.5 54.6875 
L 17.484375 54.6875 
L 17.484375 21.921875 
Q 17.484375 14.15625 20.5 10.265625 
Q 23.53125 6.390625 29.59375 6.390625 
Q 36.859375 6.390625 41.078125 11.03125 
Q 45.3125 15.671875 45.3125 23.6875 
L 45.3125 54.6875 
L 54.296875 54.6875 
L 54.296875 0 
L 45.3125 0 
L 45.3125 8.40625 
Q 42.046875 3.421875 37.71875 1 
Q 33.40625 -1.421875 27.6875 -1.421875 
Q 18.265625 -1.421875 13.375 4.4375 
Q 8.5 10.296875 8.5 21.578125 
z
M 31.109375 56 
z
" id="DejaVuSans-117"/>
       <path d="M 18.3125 70.21875 
L 18.3125 54.6875 
L 36.8125 54.6875 
L 36.8125 47.703125 
L 18.3125 47.703125 
L 18.3125 18.015625 
Q 18.3125 11.328125 20.140625 9.421875 
Q 21.96875 7.515625 27.59375 7.515625 
L 36.8125 7.515625 
L 36.8125 0 
L 27.59375 0 
Q 17.1875 0 13.234375 3.875 
Q 9.28125 7.765625 9.28125 18.015625 
L 9.28125 47.703125 
L 2.6875 47.703125 
L 2.6875 54.6875 
L 9.28125 54.6875 
L 9.28125 70.21875 
z
" id="DejaVuSans-116"/>
       <path d="M 30.609375 48.390625 
Q 23.390625 48.390625 19.1875 42.75 
Q 14.984375 37.109375 14.984375 27.296875 
Q 14.984375 17.484375 19.15625 11.84375 
Q 23.34375 6.203125 30.609375 6.203125 
Q 37.796875 6.203125 41.984375 11.859375 
Q 46.1875 17.53125 46.1875 27.296875 
Q 46.1875 37.015625 41.984375 42.703125 
Q 37.796875 48.390625 30.609375 48.390625 
z
M 30.609375 56 
Q 42.328125 56 49.015625 48.375 
Q 55.71875 40.765625 55.71875 27.296875 
Q 55.71875 13.875 49.015625 6.21875 
Q 42.328125 -1.421875 30.609375 -1.421875 
Q 18.84375 -1.421875 12.171875 6.21875 
Q 5.515625 13.875 5.515625 27.296875 
Q 5.515625 40.765625 12.171875 48.375 
Q 18.84375 56 30.609375 56 
z
" id="DejaVuSans-111"/>
       <path d="M 37.109375 75.984375 
L 37.109375 68.5 
L 28.515625 68.5 
Q 23.6875 68.5 21.796875 66.546875 
Q 19.921875 64.59375 19.921875 59.515625 
L 19.921875 54.6875 
L 34.71875 54.6875 
L 34.71875 47.703125 
L 19.921875 47.703125 
L 19.921875 0 
L 10.890625 0 
L 10.890625 47.703125 
L 2.296875 47.703125 
L 2.296875 54.6875 
L 10.890625 54.6875 
L 10.890625 58.5 
Q 10.890625 67.625 15.140625 71.796875 
Q 19.390625 75.984375 28.609375 75.984375 
z
" id="DejaVuSans-102"/>
      </defs>
      <use xlink:href="#DejaVuSans-99"/>
      <use x="54.980469" xlink:href="#DejaVuSans-117"/>
      <use x="118.359375" xlink:href="#DejaVuSans-116"/>
      <use x="157.568359" xlink:href="#DejaVuSans-111"/>
      <use x="218.75" xlink:href="#DejaVuSans-102"/>
      <use x="253.955078" xlink:href="#DejaVuSans-102"/>
     </g>
    </g>
   </g>
   <g id="matplotlib.axis_2">
    <g id="ytick_1">
     <g id="line2d_7">
      <defs>
       <path d="M 0 0 
L -3.5 0 
" id="mc7cddd2a13" style="stroke:#000000;stroke-width:0.8;"/>
      </defs>
      <g>
       <use style="stroke:#000000;stroke-width:0.8;" x="43.78125" xlink:href="#mc7cddd2a13" y="239.988555"/>
      </g>
     </g>
     <g id="text_8">
      <!-- 0.1 -->
      <g transform="translate(20.878125 243.787774)scale(0.1 -0.1)">
       <use xlink:href="#DejaVuSans-48"/>
       <use x="63.623047" xlink:href="#DejaVuSans-46"/>
       <use x="95.410156" xlink:href="#DejaVuSans-49"/>
      </g>
     </g>
    </g>
    <g id="ytick_2">
     <g id="line2d_8">
      <g>
       <use style="stroke:#000000;stroke-width:0.8;" x="43.78125" xlink:href="#mc7cddd2a13" y="199.892271"/>
      </g>
     </g>
     <g id="text_9">
      <!-- 0.2 -->
      <g transform="translate(20.878125 203.69149)scale(0.1 -0.1)">
       <use xlink:href="#DejaVuSans-48"/>
       <use x="63.623047" xlink:href="#DejaVuSans-46"/>
       <use x="95.410156" xlink:href="#DejaVuSans-50"/>
      </g>
     </g>
    </g>
    <g id="ytick_3">
     <g id="line2d_9">
      <g>
       <use style="stroke:#000000;stroke-width:0.8;" x="43.78125" xlink:href="#mc7cddd2a13" y="159.795987"/>
      </g>
     </g>
     <g id="text_10">
      <!-- 0.3 -->
      <g transform="translate(20.878125 163.595206)scale(0.1 -0.1)">
       <defs>
        <path d="M 40.578125 39.3125 
Q 47.65625 37.796875 51.625 33 
Q 55.609375 28.21875 55.609375 21.1875 
Q 55.609375 10.40625 48.1875 4.484375 
Q 40.765625 -1.421875 27.09375 -1.421875 
Q 22.515625 -1.421875 17.65625 -0.515625 
Q 12.796875 0.390625 7.625 2.203125 
L 7.625 11.71875 
Q 11.71875 9.328125 16.59375 8.109375 
Q 21.484375 6.890625 26.8125 6.890625 
Q 36.078125 6.890625 40.9375 10.546875 
Q 45.796875 14.203125 45.796875 21.1875 
Q 45.796875 27.640625 41.28125 31.265625 
Q 36.765625 34.90625 28.71875 34.90625 
L 20.21875 34.90625 
L 20.21875 43.015625 
L 29.109375 43.015625 
Q 36.375 43.015625 40.234375 45.921875 
Q 44.09375 48.828125 44.09375 54.296875 
Q 44.09375 59.90625 40.109375 62.90625 
Q 36.140625 65.921875 28.71875 65.921875 
Q 24.65625 65.921875 20.015625 65.03125 
Q 15.375 64.15625 9.8125 62.3125 
L 9.8125 71.09375 
Q 15.4375 72.65625 20.34375 73.4375 
Q 25.25 74.21875 29.59375 74.21875 
Q 40.828125 74.21875 47.359375 69.109375 
Q 53.90625 64.015625 53.90625 55.328125 
Q 53.90625 49.265625 50.4375 45.09375 
Q 46.96875 40.921875 40.578125 39.3125 
z
" id="DejaVuSans-51"/>
       </defs>
       <use xlink:href="#DejaVuSans-48"/>
       <use x="63.623047" xlink:href="#DejaVuSans-46"/>
       <use x="95.410156" xlink:href="#DejaVuSans-51"/>
      </g>
     </g>
    </g>
    <g id="ytick_4">
     <g id="line2d_10">
      <g>
       <use style="stroke:#000000;stroke-width:0.8;" x="43.78125" xlink:href="#mc7cddd2a13" y="119.699703"/>
      </g>
     </g>
     <g id="text_11">
      <!-- 0.4 -->
      <g transform="translate(20.878125 123.498922)scale(0.1 -0.1)">
       <use xlink:href="#DejaVuSans-48"/>
       <use x="63.623047" xlink:href="#DejaVuSans-46"/>
       <use x="95.410156" xlink:href="#DejaVuSans-52"/>
      </g>
     </g>
    </g>
    <g id="ytick_5">
     <g id="line2d_11">
      <g>
       <use style="stroke:#000000;stroke-width:0.8;" x="43.78125" xlink:href="#mc7cddd2a13" y="79.603419"/>
      </g>
     </g>
     <g id="text_12">
      <!-- 0.5 -->
      <g transform="translate(20.878125 83.402638)scale(0.1 -0.1)">
       <defs>
        <path d="M 10.796875 72.90625 
L 49.515625 72.90625 
L 49.515625 64.59375 
L 19.828125 64.59375 
L 19.828125 46.734375 
Q 21.96875 47.46875 24.109375 47.828125 
Q 26.265625 48.1875 28.421875 48.1875 
Q 40.625 48.1875 47.75 41.5 
Q 54.890625 34.8125 54.890625 23.390625 
Q 54.890625 11.625 47.5625 5.09375 
Q 40.234375 -1.421875 26.90625 -1.421875 
Q 22.3125 -1.421875 17.546875 -0.640625 
Q 12.796875 0.140625 7.71875 1.703125 
L 7.71875 11.625 
Q 12.109375 9.234375 16.796875 8.0625 
Q 21.484375 6.890625 26.703125 6.890625 
Q 35.15625 6.890625 40.078125 11.328125 
Q 45.015625 15.765625 45.015625 23.390625 
Q 45.015625 31 40.078125 35.4375 
Q 35.15625 39.890625 26.703125 39.890625 
Q 22.75 39.890625 18.8125 39.015625 
Q 14.890625 38.140625 10.796875 36.28125 
z
" id="DejaVuSans-53"/>
       </defs>
       <use xlink:href="#DejaVuSans-48"/>
       <use x="63.623047" xlink:href="#DejaVuSans-46"/>
       <use x="95.410156" xlink:href="#DejaVuSans-53"/>
      </g>
     </g>
    </g>
    <g id="ytick_6">
     <g id="line2d_12">
      <g>
       <use style="stroke:#000000;stroke-width:0.8;" x="43.78125" xlink:href="#mc7cddd2a13" y="39.507135"/>
      </g>
     </g>
     <g id="text_13">
      <!-- 0.6 -->
      <g transform="translate(20.878125 43.306354)scale(0.1 -0.1)">
       <use xlink:href="#DejaVuSans-48"/>
       <use x="63.623047" xlink:href="#DejaVuSans-46"/>
       <use x="95.410156" xlink:href="#DejaVuSans-54"/>
      </g>
     </g>
    </g>
    <g id="text_14">
     <!-- performance -->
     <g transform="translate(14.798438 172.278656)rotate(-90)scale(0.1 -0.1)">
      <defs>
       <path d="M 18.109375 8.203125 
L 18.109375 -20.796875 
L 9.078125 -20.796875 
L 9.078125 54.6875 
L 18.109375 54.6875 
L 18.109375 46.390625 
Q 20.953125 51.265625 25.265625 53.625 
Q 29.59375 56 35.59375 56 
Q 45.5625 56 51.78125 48.09375 
Q 58.015625 40.1875 58.015625 27.296875 
Q 58.015625 14.40625 51.78125 6.484375 
Q 45.5625 -1.421875 35.59375 -1.421875 
Q 29.59375 -1.421875 25.265625 0.953125 
Q 20.953125 3.328125 18.109375 8.203125 
z
M 48.6875 27.296875 
Q 48.6875 37.203125 44.609375 42.84375 
Q 40.53125 48.484375 33.40625 48.484375 
Q 26.265625 48.484375 22.1875 42.84375 
Q 18.109375 37.203125 18.109375 27.296875 
Q 18.109375 17.390625 22.1875 11.75 
Q 26.265625 6.109375 33.40625 6.109375 
Q 40.53125 6.109375 44.609375 11.75 
Q 48.6875 17.390625 48.6875 27.296875 
z
" id="DejaVuSans-112"/>
       <path d="M 56.203125 29.59375 
L 56.203125 25.203125 
L 14.890625 25.203125 
Q 15.484375 15.921875 20.484375 11.0625 
Q 25.484375 6.203125 34.421875 6.203125 
Q 39.59375 6.203125 44.453125 7.46875 
Q 49.3125 8.734375 54.109375 11.28125 
L 54.109375 2.78125 
Q 49.265625 0.734375 44.1875 -0.34375 
Q 39.109375 -1.421875 33.890625 -1.421875 
Q 20.796875 -1.421875 13.15625 6.1875 
Q 5.515625 13.8125 5.515625 26.8125 
Q 5.515625 40.234375 12.765625 48.109375 
Q 20.015625 56 32.328125 56 
Q 43.359375 56 49.78125 48.890625 
Q 56.203125 41.796875 56.203125 29.59375 
z
M 47.21875 32.234375 
Q 47.125 39.59375 43.09375 43.984375 
Q 39.0625 48.390625 32.421875 48.390625 
Q 24.90625 48.390625 20.390625 44.140625 
Q 15.875 39.890625 15.1875 32.171875 
z
" id="DejaVuSans-101"/>
       <path d="M 41.109375 46.296875 
Q 39.59375 47.171875 37.8125 47.578125 
Q 36.03125 48 33.890625 48 
Q 26.265625 48 22.1875 43.046875 
Q 18.109375 38.09375 18.109375 28.8125 
L 18.109375 0 
L 9.078125 0 
L 9.078125 54.6875 
L 18.109375 54.6875 
L 18.109375 46.1875 
Q 20.953125 51.171875 25.484375 53.578125 
Q 30.03125 56 36.53125 56 
Q 37.453125 56 38.578125 55.875 
Q 39.703125 55.765625 41.0625 55.515625 
z
" id="DejaVuSans-114"/>
       <path d="M 52 44.1875 
Q 55.375 50.25 60.0625 53.125 
Q 64.75 56 71.09375 56 
Q 79.640625 56 84.28125 50.015625 
Q 88.921875 44.046875 88.921875 33.015625 
L 88.921875 0 
L 79.890625 0 
L 79.890625 32.71875 
Q 79.890625 40.578125 77.09375 44.375 
Q 74.3125 48.1875 68.609375 48.1875 
Q 61.625 48.1875 57.5625 43.546875 
Q 53.515625 38.921875 53.515625 30.90625 
L 53.515625 0 
L 44.484375 0 
L 44.484375 32.71875 
Q 44.484375 40.625 41.703125 44.40625 
Q 38.921875 48.1875 33.109375 48.1875 
Q 26.21875 48.1875 22.15625 43.53125 
Q 18.109375 38.875 18.109375 30.90625 
L 18.109375 0 
L 9.078125 0 
L 9.078125 54.6875 
L 18.109375 54.6875 
L 18.109375 46.1875 
Q 21.1875 51.21875 25.484375 53.609375 
Q 29.78125 56 35.6875 56 
Q 41.65625 56 45.828125 52.96875 
Q 50 49.953125 52 44.1875 
z
" id="DejaVuSans-109"/>
       <path d="M 34.28125 27.484375 
Q 23.390625 27.484375 19.1875 25 
Q 14.984375 22.515625 14.984375 16.5 
Q 14.984375 11.71875 18.140625 8.90625 
Q 21.296875 6.109375 26.703125 6.109375 
Q 34.1875 6.109375 38.703125 11.40625 
Q 43.21875 16.703125 43.21875 25.484375 
L 43.21875 27.484375 
z
M 52.203125 31.203125 
L 52.203125 0 
L 43.21875 0 
L 43.21875 8.296875 
Q 40.140625 3.328125 35.546875 0.953125 
Q 30.953125 -1.421875 24.3125 -1.421875 
Q 15.921875 -1.421875 10.953125 3.296875 
Q 6 8.015625 6 15.921875 
Q 6 25.140625 12.171875 29.828125 
Q 18.359375 34.515625 30.609375 34.515625 
L 43.21875 34.515625 
L 43.21875 35.40625 
Q 43.21875 41.609375 39.140625 45 
Q 35.0625 48.390625 27.6875 48.390625 
Q 23 48.390625 18.546875 47.265625 
Q 14.109375 46.140625 10.015625 43.890625 
L 10.015625 52.203125 
Q 14.9375 54.109375 19.578125 55.046875 
Q 24.21875 56 28.609375 56 
Q 40.484375 56 46.34375 49.84375 
Q 52.203125 43.703125 52.203125 31.203125 
z
" id="DejaVuSans-97"/>
       <path d="M 54.890625 33.015625 
L 54.890625 0 
L 45.90625 0 
L 45.90625 32.71875 
Q 45.90625 40.484375 42.875 44.328125 
Q 39.84375 48.1875 33.796875 48.1875 
Q 26.515625 48.1875 22.3125 43.546875 
Q 18.109375 38.921875 18.109375 30.90625 
L 18.109375 0 
L 9.078125 0 
L 9.078125 54.6875 
L 18.109375 54.6875 
L 18.109375 46.1875 
Q 21.34375 51.125 25.703125 53.5625 
Q 30.078125 56 35.796875 56 
Q 45.21875 56 50.046875 50.171875 
Q 54.890625 44.34375 54.890625 33.015625 
z
" id="DejaVuSans-110"/>
      </defs>
      <use xlink:href="#DejaVuSans-112"/>
      <use x="63.476562" xlink:href="#DejaVuSans-101"/>
      <use x="125" xlink:href="#DejaVuSans-114"/>
      <use x="166.113281" xlink:href="#DejaVuSans-102"/>
      <use x="201.318359" xlink:href="#DejaVuSans-111"/>
      <use x="262.5" xlink:href="#DejaVuSans-114"/>
      <use x="301.863281" xlink:href="#DejaVuSans-109"/>
      <use x="399.275391" xlink:href="#DejaVuSans-97"/>
      <use x="460.554688" xlink:href="#DejaVuSans-110"/>
      <use x="523.933594" xlink:href="#DejaVuSans-99"/>
      <use x="578.914062" xlink:href="#DejaVuSans-101"/>
     </g>
    </g>
   </g>
   <g id="line2d_13">
    <path clip-path="url(#p7de795cf9c)" d="M 60.013977 28.240411 
L 66.777614 32.824421 
L 73.54125 32.824421 
L 80.304886 32.824421 
L 87.068523 28.240411 
L 93.832159 32.824421 
L 100.595795 37.485474 
L 107.359432 37.485474 
L 114.123068 37.485474 
L 120.886705 42.225527 
L 127.650341 72.443368 
L 134.413977 88.799815 
L 141.177614 118.157538 
L 147.94125 100.213659 
L 154.704886 124.371115 
L 161.468523 124.371115 
L 168.232159 124.371115 
L 174.995795 124.371115 
L 181.759432 124.371115 
L 188.523068 124.371115 
L 195.286705 124.371115 
L 202.050341 124.371115 
L 208.813977 124.371115 
L 215.577614 118.157538 
L 222.34125 186.242473 
L 229.104886 261.216 
L 235.868523 261.216 
L 242.632159 261.216 
L 249.395795 261.216 
L 256.159432 261.216 
L 262.923068 261.216 
L 269.686705 261.216 
L 276.450341 261.216 
L 283.213977 261.216 
L 289.977614 261.216 
L 296.74125 261.216 
L 303.504886 261.216 
L 310.268523 261.216 
L 317.032159 261.216 
L 323.795795 261.216 
L 330.559432 261.216 
L 337.323068 261.216 
L 344.086705 261.216 
L 350.850341 261.216 
L 357.613977 261.216 
L 364.377614 261.216 
L 371.14125 261.216 
L 377.904886 261.216 
L 384.668523 261.216 
" style="fill:none;stroke:#f26b38;stroke-dasharray:7.4,3.2;stroke-dashoffset:0;stroke-width:2;"/>
   </g>
   <g id="line2d_14">
    <path clip-path="url(#p7de795cf9c)" d="M 60.013977 32.824421 
L 66.777614 37.485474 
L 73.54125 72.443368 
L 80.304886 106.082097 
L 87.068523 100.213659 
L 93.832159 124.371115 
L 100.595795 124.371115 
L 107.359432 124.371115 
L 114.123068 124.371115 
L 120.886705 106.082097 
L 127.650341 83.248536 
L 134.413977 157.341113 
L 141.177614 157.341113 
L 147.94125 157.341113 
L 154.704886 157.341113 
L 161.468523 150.480689 
L 168.232159 261.216 
L 174.995795 261.216 
L 181.759432 261.216 
L 188.523068 261.216 
L 195.286705 261.216 
L 202.050341 261.216 
L 208.813977 261.216 
L 215.577614 261.216 
L 222.34125 261.216 
L 229.104886 261.216 
L 235.868523 261.216 
L 242.632159 261.216 
L 249.395795 261.216 
L 256.159432 261.216 
L 262.923068 261.216 
L 269.686705 261.216 
L 276.450341 261.216 
L 283.213977 261.216 
L 289.977614 261.216 
L 296.74125 261.216 
L 303.504886 261.216 
L 310.268523 261.216 
L 317.032159 261.216 
L 323.795795 261.216 
L 330.559432 261.216 
L 337.323068 261.216 
L 344.086705 261.216 
L 350.850341 261.216 
L 357.613977 261.216 
L 364.377614 261.216 
L 371.14125 261.216 
L 377.904886 261.216 
L 384.668523 261.216 
" style="fill:none;stroke:#2f9599;stroke-dasharray:2,3.3;stroke-dashoffset:0;stroke-width:2;"/>
   </g>
   <g id="line2d_15">
    <path clip-path="url(#p7de795cf9c)" d="M 60.013977 19.296 
L 66.777614 19.296 
L 73.54125 19.296 
L 80.304886 19.296 
L 87.068523 23.731548 
L 93.832159 28.240411 
L 100.595795 28.240411 
L 107.359432 32.824421 
L 114.123068 32.824421 
L 120.886705 28.240411 
L 127.650341 28.240411 
L 134.413977 32.824421 
L 141.177614 32.824421 
L 147.94125 32.824421 
L 154.704886 28.240411 
L 161.468523 72.443368 
L 168.232159 72.443368 
L 174.995795 94.453895 
L 181.759432 94.453895 
L 188.523068 88.799815 
L 195.286705 94.453895 
L 202.050341 94.453895 
L 208.813977 88.799815 
L 215.577614 106.082097 
L 222.34125 112.062316 
L 229.104886 112.062316 
L 235.868523 94.453895 
L 242.632159 77.79728 
L 249.395795 100.213659 
L 256.159432 124.371115 
L 262.923068 124.371115 
L 269.686705 124.371115 
L 276.450341 118.157538 
L 283.213977 261.216 
L 289.977614 261.216 
L 296.74125 261.216 
L 303.504886 261.216 
L 310.268523 261.216 
L 317.032159 261.216 
L 323.795795 261.216 
L 330.559432 261.216 
L 337.323068 261.216 
L 344.086705 261.216 
L 350.850341 261.216 
L 357.613977 261.216 
L 364.377614 261.216 
L 371.14125 261.216 
L 377.904886 261.216 
L 384.668523 261.216 
" style="fill:none;stroke:#a7226e;stroke-dasharray:12.8,3.2,2,3.2;stroke-dashoffset:0;stroke-width:2;"/>
   </g>
   <g id="patch_3">
    <path d="M 43.78125 273.312 
L 43.78125 7.2 
" style="fill:none;stroke:#000000;stroke-linecap:square;stroke-linejoin:miter;stroke-width:0.8;"/>
   </g>
   <g id="patch_4">
    <path d="M 400.90125 273.312 
L 400.90125 7.2 
" style="fill:none;stroke:#000000;stroke-linecap:square;stroke-linejoin:miter;stroke-width:0.8;"/>
   </g>
   <g id="patch_5">
    <path d="M 43.78125 273.312 
L 400.90125 273.312 
" style="fill:none;stroke:#000000;stroke-linecap:square;stroke-linejoin:miter;stroke-width:0.8;"/>
   </g>
   <g id="patch_6">
    <path d="M 43.78125 7.2 
L 400.90125 7.2 
" style="fill:none;stroke:#000000;stroke-linecap:square;stroke-linejoin:miter;stroke-width:0.8;"/>
   </g>
   <g id="legend_1">
    <g id="patch_7">
     <path d="M 315.427559 43.890912 
L 396.04325 43.890912 
Q 397.43125 43.890912 397.43125 42.502912 
L 397.43125 12.058 
Q 397.43125 10.67 396.04325 10.67 
L 315.427559 10.67 
Q 314.039559 10.67 314.039559 12.058 
L 314.039559 42.502912 
Q 314.039559 43.890912 315.427559 43.890912 
z
" style="fill:#ffffff;opacity:0.8;stroke:#cccccc;stroke-linejoin:miter;"/>
    </g>
    <g id="PathCollection_5">
     <defs>
      <path d="M 0 3 
C 0.795609 3 1.55874 2.683901 2.12132 2.12132 
C 2.683901 1.55874 3 0.795609 3 0 
C 3 -0.795609 2.683901 -1.55874 2.12132 -2.12132 
C 1.55874 -2.683901 0.795609 -3 0 -3 
C -0.795609 -3 -1.55874 -2.683901 -2.12132 -2.12132 
C -2.683901 -1.55874 -3 -0.795609 -3 0 
C -3 0.795609 -2.683901 1.55874 -2.12132 2.12132 
C -1.55874 2.683901 -0.795609 3 0 3 
z
" id="mef0bddbc9f" style="stroke:#f26b38;"/>
     </defs>
     <g>
      <use style="fill:#f26b38;stroke:#f26b38;" x="323.755559" xlink:href="#mef0bddbc9f" y="16.897566"/>
     </g>
    </g>
    <g id="text_15">
     <!-- mean_err -->
     <g transform="translate(336.247559 18.719316)scale(0.0694 -0.0694)">
      <defs>
       <path d="M 50.984375 -16.609375 
L 50.984375 -23.578125 
L -0.984375 -23.578125 
L -0.984375 -16.609375 
z
" id="DejaVuSans-95"/>
      </defs>
      <use xlink:href="#DejaVuSans-109"/>
      <use x="97.412109" xlink:href="#DejaVuSans-101"/>
      <use x="158.935547" xlink:href="#DejaVuSans-97"/>
      <use x="220.214844" xlink:href="#DejaVuSans-110"/>
      <use x="283.59375" xlink:href="#DejaVuSans-95"/>
      <use x="333.59375" xlink:href="#DejaVuSans-101"/>
      <use x="395.117188" xlink:href="#DejaVuSans-114"/>
      <use x="434.480469" xlink:href="#DejaVuSans-114"/>
     </g>
    </g>
    <g id="PathCollection_6">
     <defs>
      <path d="M -1.5 3 
L 0 1.5 
L 1.5 3 
L 3 1.5 
L 1.5 0 
L 3 -1.5 
L 1.5 -3 
L 0 -1.5 
L -1.5 -3 
L -3 -1.5 
L -1.5 0 
L -3 1.5 
z
" id="m5d7130ecca" style="stroke:#2f9599;"/>
     </defs>
     <g>
      <use style="fill:#2f9599;stroke:#2f9599;" x="323.755559" xlink:href="#m5d7130ecca" y="27.277203"/>
     </g>
    </g>
    <g id="text_16">
     <!-- mean_sq_err -->
     <g transform="translate(336.247559 29.098953)scale(0.0694 -0.0694)">
      <defs>
       <path d="M 44.28125 53.078125 
L 44.28125 44.578125 
Q 40.484375 46.53125 36.375 47.5 
Q 32.28125 48.484375 27.875 48.484375 
Q 21.1875 48.484375 17.84375 46.4375 
Q 14.5 44.390625 14.5 40.28125 
Q 14.5 37.15625 16.890625 35.375 
Q 19.28125 33.59375 26.515625 31.984375 
L 29.59375 31.296875 
Q 39.15625 29.25 43.1875 25.515625 
Q 47.21875 21.78125 47.21875 15.09375 
Q 47.21875 7.46875 41.1875 3.015625 
Q 35.15625 -1.421875 24.609375 -1.421875 
Q 20.21875 -1.421875 15.453125 -0.5625 
Q 10.6875 0.296875 5.421875 2 
L 5.421875 11.28125 
Q 10.40625 8.6875 15.234375 7.390625 
Q 20.0625 6.109375 24.8125 6.109375 
Q 31.15625 6.109375 34.5625 8.28125 
Q 37.984375 10.453125 37.984375 14.40625 
Q 37.984375 18.0625 35.515625 20.015625 
Q 33.0625 21.96875 24.703125 23.78125 
L 21.578125 24.515625 
Q 13.234375 26.265625 9.515625 29.90625 
Q 5.8125 33.546875 5.8125 39.890625 
Q 5.8125 47.609375 11.28125 51.796875 
Q 16.75 56 26.8125 56 
Q 31.78125 56 36.171875 55.265625 
Q 40.578125 54.546875 44.28125 53.078125 
z
" id="DejaVuSans-115"/>
       <path d="M 14.796875 27.296875 
Q 14.796875 17.390625 18.875 11.75 
Q 22.953125 6.109375 30.078125 6.109375 
Q 37.203125 6.109375 41.296875 11.75 
Q 45.40625 17.390625 45.40625 27.296875 
Q 45.40625 37.203125 41.296875 42.84375 
Q 37.203125 48.484375 30.078125 48.484375 
Q 22.953125 48.484375 18.875 42.84375 
Q 14.796875 37.203125 14.796875 27.296875 
z
M 45.40625 8.203125 
Q 42.578125 3.328125 38.25 0.953125 
Q 33.9375 -1.421875 27.875 -1.421875 
Q 17.96875 -1.421875 11.734375 6.484375 
Q 5.515625 14.40625 5.515625 27.296875 
Q 5.515625 40.1875 11.734375 48.09375 
Q 17.96875 56 27.875 56 
Q 33.9375 56 38.25 53.625 
Q 42.578125 51.265625 45.40625 46.390625 
L 45.40625 54.6875 
L 54.390625 54.6875 
L 54.390625 -20.796875 
L 45.40625 -20.796875 
z
" id="DejaVuSans-113"/>
      </defs>
      <use xlink:href="#DejaVuSans-109"/>
      <use x="97.412109" xlink:href="#DejaVuSans-101"/>
      <use x="158.935547" xlink:href="#DejaVuSans-97"/>
      <use x="220.214844" xlink:href="#DejaVuSans-110"/>
      <use x="283.59375" xlink:href="#DejaVuSans-95"/>
      <use x="333.59375" xlink:href="#DejaVuSans-115"/>
      <use x="385.693359" xlink:href="#DejaVuSans-113"/>
      <use x="449.169922" xlink:href="#DejaVuSans-95"/>
      <use x="499.169922" xlink:href="#DejaVuSans-101"/>
      <use x="560.693359" xlink:href="#DejaVuSans-114"/>
      <use x="600.056641" xlink:href="#DejaVuSans-114"/>
     </g>
    </g>
    <g id="PathCollection_7">
     <defs>
      <path d="M -2.12132 -2.12132 
L -2.12132 2.12132 
L 2.12132 2.12132 
L 2.12132 -2.12132 
z
" id="mde2d5b95b9" style="stroke:#a7226e;"/>
     </defs>
     <g>
      <use style="fill:#a7226e;stroke:#a7226e;" x="323.755559" xlink:href="#mde2d5b95b9" y="37.656841"/>
     </g>
    </g>
    <g id="text_17">
     <!-- mean_sqroot_err -->
     <g transform="translate(336.247559 39.478591)scale(0.0694 -0.0694)">
      <use xlink:href="#DejaVuSans-109"/>
      <use x="97.412109" xlink:href="#DejaVuSans-101"/>
      <use x="158.935547" xlink:href="#DejaVuSans-97"/>
      <use x="220.214844" xlink:href="#DejaVuSans-110"/>
      <use x="283.59375" xlink:href="#DejaVuSans-95"/>
      <use x="333.59375" xlink:href="#DejaVuSans-115"/>
      <use x="385.693359" xlink:href="#DejaVuSans-113"/>
      <use x="449.169922" xlink:href="#DejaVuSans-114"/>
      <use x="488.033203" xlink:href="#DejaVuSans-111"/>
      <use x="549.214844" xlink:href="#DejaVuSans-111"/>
      <use x="610.396484" xlink:href="#DejaVuSans-116"/>
      <use x="649.605469" xlink:href="#DejaVuSans-95"/>
      <use x="699.605469" xlink:href="#DejaVuSans-101"/>
      <use x="761.128906" xlink:href="#DejaVuSans-114"/>
      <use x="800.492188" xlink:href="#DejaVuSans-114"/>
     </g>
    </g>
   </g>
  </g>
 </g>
 <defs>
  <clipPath id="p7de795cf9c">
   <rect height="266.112" width="357.12" x="43.78125" y="7.2"/>
  </clipPath>
 </defs>
</svg>
