<?xml version="1.0" encoding="utf-8" standalone="no"?>
<!DOCTYPE svg PUBLIC "-//W3C//DTD SVG 1.1//EN"
  "http://www.w3.org/Graphics/SVG/1.1/DTD/svg11.dtd">
<!-- Created with matplotlib (https://matplotlib.org/) -->
<svg height="310.86825pt" version="1.1" viewBox="0 0 408.10125 310.86825" width="408.10125pt" xmlns="http://www.w3.org/2000/svg" xmlns:xlink="http://www.w3.org/1999/xlink">
 <metadata>
  <rdf:RDF xmlns:cc="http://creativecommons.org/ns#" xmlns:dc="http://purl.org/dc/elements/1.1/" xmlns:rdf="http://www.w3.org/1999/02/22-rdf-syntax-ns#">
   <cc:Work>
    <dc:type rdf:resource="http://purl.org/dc/dcmitype/StillImage"/>
    <dc:date>2022-05-27T21:58:21.679760</dc:date>
    <dc:format>image/svg+xml</dc:format>
    <dc:creator>
     <cc:Agent>
      <dc:title>Matplotlib v3.3.4, https://matplotlib.org/</dc:title>
     </cc:Agent>
    </dc:creator>
   </cc:Work>
  </rdf:RDF>
 </metadata>
 <defs>
  <style type="text/css">*{stroke-linecap:butt;stroke-linejoin:round;}</style>
 </defs>
 <g id="figure_1">
  <g id="patch_1">
   <path d="M 0 310.86825 
L 408.10125 310.86825 
L 408.10125 0 
L 0 0 
z
" style="fill:#ffffff;"/>
  </g>
  <g id="axes_1">
   <g id="patch_2">
    <path d="M 43.78125 273.312 
L 400.90125 273.312 
L 400.90125 7.2 
L 43.78125 7.2 
z
" style="fill:#ffffff;"/>
   </g>
   <g id="PathCollection_1">
    <path clip-path="url(#p58075454df)" d="M 60.013977 22.296 
C 60.809587 22.296 61.572717 21.979901 62.135298 21.41732 
C 62.697878 20.85474 63.013977 20.091609 63.013977 19.296 
C 63.013977 18.500391 62.697878 17.73726 62.135298 17.17468 
C 61.572717 16.612099 60.809587 16.296 60.013977 16.296 
C 59.218368 16.296 58.455238 16.612099 57.892657 17.17468 
C 57.330076 17.73726 57.013977 18.500391 57.013977 19.296 
C 57.013977 20.091609 57.330076 20.85474 57.892657 21.41732 
C 58.455238 21.979901 59.218368 22.296 60.013977 22.296 
z
" style="fill:#f26b38;stroke:#ffffff;stroke-width:0.48;"/>
    <path clip-path="url(#p58075454df)" d="M 66.777614 40.090723 
C 67.573223 40.090723 68.336353 39.774624 68.898934 39.212044 
C 69.461515 38.649463 69.777614 37.886333 69.777614 37.090723 
C 69.777614 36.295114 69.461515 35.531984 68.898934 34.969403 
C 68.336353 34.406822 67.573223 34.090723 66.777614 34.090723 
C 65.982004 34.090723 65.218874 34.406822 64.656293 34.969403 
C 64.093713 35.531984 63.777614 36.295114 63.777614 37.090723 
C 63.777614 37.886333 64.093713 38.649463 64.656293 39.212044 
C 65.218874 39.774624 65.982004 40.090723 66.777614 40.090723 
z
" style="fill:#f26b38;stroke:#ffffff;stroke-width:0.48;"/>
    <path clip-path="url(#p58075454df)" d="M 73.54125 54.935519 
C 74.336859 54.935519 75.09999 54.61942 75.66257 54.05684 
C 76.225151 53.494259 76.54125 52.731129 76.54125 51.935519 
C 76.54125 51.13991 76.225151 50.37678 75.66257 49.814199 
C 75.09999 49.251618 74.336859 48.935519 73.54125 48.935519 
C 72.745641 48.935519 71.98251 49.251618 71.41993 49.814199 
C 70.857349 50.37678 70.54125 51.13991 70.54125 51.935519 
C 70.54125 52.731129 70.857349 53.494259 71.41993 54.05684 
C 71.98251 54.61942 72.745641 54.935519 73.54125 54.935519 
z
" style="fill:#f26b38;stroke:#ffffff;stroke-width:0.48;"/>
    <path clip-path="url(#p58075454df)" d="M 80.304886 61.929702 
C 81.100496 61.929702 81.863626 61.613603 82.426207 61.051022 
C 82.988787 60.488442 83.304886 59.725311 83.304886 58.929702 
C 83.304886 58.134093 82.988787 57.370963 82.426207 56.808382 
C 81.863626 56.245801 81.100496 55.929702 80.304886 55.929702 
C 79.509277 55.929702 78.746147 56.245801 78.183566 56.808382 
C 77.620985 57.370963 77.304886 58.134093 77.304886 58.929702 
C 77.304886 59.725311 77.620985 60.488442 78.183566 61.051022 
C 78.746147 61.613603 79.509277 61.929702 80.304886 61.929702 
z
" style="fill:#f26b38;stroke:#ffffff;stroke-width:0.48;"/>
    <path clip-path="url(#p58075454df)" d="M 87.068523 98.830045 
C 87.864132 98.830045 88.627262 98.513947 89.189843 97.951366 
C 89.752424 97.388785 90.068523 96.625655 90.068523 95.830045 
C 90.068523 95.034436 89.752424 94.271306 89.189843 93.708725 
C 88.627262 93.146144 87.864132 92.830045 87.068523 92.830045 
C 86.272913 92.830045 85.509783 93.146144 84.947202 93.708725 
C 84.384622 94.271306 84.068523 95.034436 84.068523 95.830045 
C 84.068523 96.625655 84.384622 97.388785 84.947202 97.951366 
C 85.509783 98.513947 86.272913 98.830045 87.068523 98.830045 
z
" style="fill:#f26b38;stroke:#ffffff;stroke-width:0.48;"/>
    <path clip-path="url(#p58075454df)" d="M 93.832159 104.250435 
C 94.627768 104.250435 95.390899 103.934336 95.953479 103.371755 
C 96.51606 102.809175 96.832159 102.046044 96.832159 101.250435 
C 96.832159 100.454826 96.51606 99.691695 95.953479 99.129115 
C 95.390899 98.566534 94.627768 98.250435 93.832159 98.250435 
C 93.03655 98.250435 92.273419 98.566534 91.710839 99.129115 
C 91.148258 99.691695 90.832159 100.454826 90.832159 101.250435 
C 90.832159 102.046044 91.148258 102.809175 91.710839 103.371755 
C 92.273419 103.934336 93.03655 104.250435 93.832159 104.250435 
z
" style="fill:#f26b38;stroke:#ffffff;stroke-width:0.48;"/>
    <path clip-path="url(#p58075454df)" d="M 100.595795 104.250435 
C 101.391405 104.250435 102.154535 103.934336 102.717116 103.371755 
C 103.279697 102.809175 103.595795 102.046044 103.595795 101.250435 
C 103.595795 100.454826 103.279697 99.691695 102.717116 99.129115 
C 102.154535 98.566534 101.391405 98.250435 100.595795 98.250435 
C 99.800186 98.250435 99.037056 98.566534 98.474475 99.129115 
C 97.911894 99.691695 97.595795 100.454826 97.595795 101.250435 
C 97.595795 102.046044 97.911894 102.809175 98.474475 103.371755 
C 99.037056 103.934336 99.800186 104.250435 100.595795 104.250435 
z
" style="fill:#f26b38;stroke:#ffffff;stroke-width:0.48;"/>
    <path clip-path="url(#p58075454df)" d="M 107.359432 101.563404 
C 108.155041 101.563404 108.918171 101.247305 109.480752 100.684725 
C 110.043333 100.122144 110.359432 99.359014 110.359432 98.563404 
C 110.359432 97.767795 110.043333 97.004665 109.480752 96.442084 
C 108.918171 95.879503 108.155041 95.563404 107.359432 95.563404 
C 106.563823 95.563404 105.800692 95.879503 105.238111 96.442084 
C 104.675531 97.004665 104.359432 97.767795 104.359432 98.563404 
C 104.359432 99.359014 104.675531 100.122144 105.238111 100.684725 
C 105.800692 101.247305 106.563823 101.563404 107.359432 101.563404 
z
" style="fill:#f26b38;stroke:#ffffff;stroke-width:0.48;"/>
    <path clip-path="url(#p58075454df)" d="M 114.123068 125.953375 
C 114.918677 125.953375 115.681808 125.637276 116.244389 125.074695 
C 116.806969 124.512114 117.123068 123.748984 117.123068 122.953375 
C 117.123068 122.157765 116.806969 121.394635 116.244389 120.832054 
C 115.681808 120.269474 114.918677 119.953375 114.123068 119.953375 
C 113.327459 119.953375 112.564329 120.269474 112.001748 120.832054 
C 111.439167 121.394635 111.123068 122.157765 111.123068 122.953375 
C 111.123068 123.748984 111.439167 124.512114 112.001748 125.074695 
C 112.564329 125.637276 113.327459 125.953375 114.123068 125.953375 
z
" style="fill:#f26b38;stroke:#ffffff;stroke-width:0.48;"/>
    <path clip-path="url(#p58075454df)" d="M 120.886705 153.54203 
C 121.682314 153.54203 122.445444 153.225931 123.008025 152.66335 
C 123.570606 152.10077 123.886705 151.337639 123.886705 150.54203 
C 123.886705 149.746421 123.570606 148.98329 123.008025 148.42071 
C 122.445444 147.858129 121.682314 147.54203 120.886705 147.54203 
C 120.091095 147.54203 119.327965 147.858129 118.765384 148.42071 
C 118.202803 148.98329 117.886705 149.746421 117.886705 150.54203 
C 117.886705 151.337639 118.202803 152.10077 118.765384 152.66335 
C 119.327965 153.225931 120.091095 153.54203 120.886705 153.54203 
z
" style="fill:#f26b38;stroke:#ffffff;stroke-width:0.48;"/>
    <path clip-path="url(#p58075454df)" d="M 127.650341 157.817691 
C 128.44595 157.817691 129.209081 157.501592 129.771661 156.939011 
C 130.334242 156.376431 130.650341 155.6133 130.650341 154.817691 
C 130.650341 154.022082 130.334242 153.258952 129.771661 152.696371 
C 129.209081 152.13379 128.44595 151.817691 127.650341 151.817691 
C 126.854732 151.817691 126.091601 152.13379 125.529021 152.696371 
C 124.96644 153.258952 124.650341 154.022082 124.650341 154.817691 
C 124.650341 155.6133 124.96644 156.376431 125.529021 156.939011 
C 126.091601 157.501592 126.854732 157.817691 127.650341 157.817691 
z
" style="fill:#f26b38;stroke:#ffffff;stroke-width:0.48;"/>
    <path clip-path="url(#p58075454df)" d="M 134.413977 165.48873 
C 135.209587 165.48873 135.972717 165.172631 136.535298 164.610051 
C 137.097878 164.04747 137.413977 163.28434 137.413977 162.48873 
C 137.413977 161.693121 137.097878 160.929991 136.535298 160.36741 
C 135.972717 159.804829 135.209587 159.48873 134.413977 159.48873 
C 133.618368 159.48873 132.855238 159.804829 132.292657 160.36741 
C 131.730076 160.929991 131.413977 161.693121 131.413977 162.48873 
C 131.413977 163.28434 131.730076 164.04747 132.292657 164.610051 
C 132.855238 165.172631 133.618368 165.48873 134.413977 165.48873 
z
" style="fill:#f26b38;stroke:#ffffff;stroke-width:0.48;"/>
    <path clip-path="url(#p58075454df)" d="M 141.177614 165.48873 
C 141.973223 165.48873 142.736353 165.172631 143.298934 164.610051 
C 143.861515 164.04747 144.177614 163.28434 144.177614 162.48873 
C 144.177614 161.693121 143.861515 160.929991 143.298934 160.36741 
C 142.736353 159.804829 141.973223 159.48873 141.177614 159.48873 
C 140.382004 159.48873 139.618874 159.804829 139.056293 160.36741 
C 138.493713 160.929991 138.177614 161.693121 138.177614 162.48873 
C 138.177614 163.28434 138.493713 164.04747 139.056293 164.610051 
C 139.618874 165.172631 140.382004 165.48873 141.177614 165.48873 
z
" style="fill:#f26b38;stroke:#ffffff;stroke-width:0.48;"/>
    <path clip-path="url(#p58075454df)" d="M 147.94125 180.830809 
C 148.736859 180.830809 149.49999 180.51471 150.06257 179.952129 
C 150.625151 179.389548 150.94125 178.626418 150.94125 177.830809 
C 150.94125 177.035199 150.625151 176.272069 150.06257 175.709488 
C 149.49999 175.146907 148.736859 174.830809 147.94125 174.830809 
C 147.145641 174.830809 146.38251 175.146907 145.81993 175.709488 
C 145.257349 176.272069 144.94125 177.035199 144.94125 177.830809 
C 144.94125 178.626418 145.257349 179.389548 145.81993 179.952129 
C 146.38251 180.51471 147.145641 180.830809 147.94125 180.830809 
z
" style="fill:#f26b38;stroke:#ffffff;stroke-width:0.48;"/>
    <path clip-path="url(#p58075454df)" d="M 154.704886 199.123286 
C 155.500496 199.123286 156.263626 198.807187 156.826207 198.244607 
C 157.388787 197.682026 157.704886 196.918896 157.704886 196.123286 
C 157.704886 195.327677 157.388787 194.564547 156.826207 194.001966 
C 156.263626 193.439385 155.500496 193.123286 154.704886 193.123286 
C 153.909277 193.123286 153.146147 193.439385 152.583566 194.001966 
C 152.020985 194.564547 151.704886 195.327677 151.704886 196.123286 
C 151.704886 196.918896 152.020985 197.682026 152.583566 198.244607 
C 153.146147 198.807187 153.909277 199.123286 154.704886 199.123286 
z
" style="fill:#f26b38;stroke:#ffffff;stroke-width:0.48;"/>
    <path clip-path="url(#p58075454df)" d="M 161.468523 199.123286 
C 162.264132 199.123286 163.027262 198.807187 163.589843 198.244607 
C 164.152424 197.682026 164.468523 196.918896 164.468523 196.123286 
C 164.468523 195.327677 164.152424 194.564547 163.589843 194.001966 
C 163.027262 193.439385 162.264132 193.123286 161.468523 193.123286 
C 160.672913 193.123286 159.909783 193.439385 159.347202 194.001966 
C 158.784622 194.564547 158.468523 195.327677 158.468523 196.123286 
C 158.468523 196.918896 158.784622 197.682026 159.347202 198.244607 
C 159.909783 198.807187 160.672913 199.123286 161.468523 199.123286 
z
" style="fill:#f26b38;stroke:#ffffff;stroke-width:0.48;"/>
    <path clip-path="url(#p58075454df)" d="M 168.232159 199.123286 
C 169.027768 199.123286 169.790899 198.807187 170.353479 198.244607 
C 170.91606 197.682026 171.232159 196.918896 171.232159 196.123286 
C 171.232159 195.327677 170.91606 194.564547 170.353479 194.001966 
C 169.790899 193.439385 169.027768 193.123286 168.232159 193.123286 
C 167.43655 193.123286 166.673419 193.439385 166.110839 194.001966 
C 165.548258 194.564547 165.232159 195.327677 165.232159 196.123286 
C 165.232159 196.918896 165.548258 197.682026 166.110839 198.244607 
C 166.673419 198.807187 167.43655 199.123286 168.232159 199.123286 
z
" style="fill:#f26b38;stroke:#ffffff;stroke-width:0.48;"/>
    <path clip-path="url(#p58075454df)" d="M 174.995795 202.449191 
C 175.791405 202.449191 176.554535 202.133093 177.117116 201.570512 
C 177.679697 201.007931 177.995795 200.244801 177.995795 199.449191 
C 177.995795 198.653582 177.679697 197.890452 177.117116 197.327871 
C 176.554535 196.76529 175.791405 196.449191 174.995795 196.449191 
C 174.200186 196.449191 173.437056 196.76529 172.874475 197.327871 
C 172.311894 197.890452 171.995795 198.653582 171.995795 199.449191 
C 171.995795 200.244801 172.311894 201.007931 172.874475 201.570512 
C 173.437056 202.133093 174.200186 202.449191 174.995795 202.449191 
z
" style="fill:#f26b38;stroke:#ffffff;stroke-width:0.48;"/>
    <path clip-path="url(#p58075454df)" d="M 181.759432 208.807539 
C 182.555041 208.807539 183.318171 208.49144 183.880752 207.92886 
C 184.443333 207.366279 184.759432 206.603149 184.759432 205.807539 
C 184.759432 205.01193 184.443333 204.2488 183.880752 203.686219 
C 183.318171 203.123638 182.555041 202.807539 181.759432 202.807539 
C 180.963823 202.807539 180.200692 203.123638 179.638111 203.686219 
C 179.075531 204.2488 178.759432 205.01193 178.759432 205.807539 
C 178.759432 206.603149 179.075531 207.366279 179.638111 207.92886 
C 180.200692 208.49144 180.963823 208.807539 181.759432 208.807539 
z
" style="fill:#f26b38;stroke:#ffffff;stroke-width:0.48;"/>
    <path clip-path="url(#p58075454df)" d="M 188.523068 208.807539 
C 189.318677 208.807539 190.081808 208.49144 190.644389 207.92886 
C 191.206969 207.366279 191.523068 206.603149 191.523068 205.807539 
C 191.523068 205.01193 191.206969 204.2488 190.644389 203.686219 
C 190.081808 203.123638 189.318677 202.807539 188.523068 202.807539 
C 187.727459 202.807539 186.964329 203.123638 186.401748 203.686219 
C 185.839167 204.2488 185.523068 205.01193 185.523068 205.807539 
C 185.523068 206.603149 185.839167 207.366279 186.401748 207.92886 
C 186.964329 208.49144 187.727459 208.807539 188.523068 208.807539 
z
" style="fill:#f26b38;stroke:#ffffff;stroke-width:0.48;"/>
    <path clip-path="url(#p58075454df)" d="M 195.286705 223.179148 
C 196.082314 223.179148 196.845444 222.863049 197.408025 222.300468 
C 197.970606 221.737887 198.286705 220.974757 198.286705 220.179148 
C 198.286705 219.383538 197.970606 218.620408 197.408025 218.057827 
C 196.845444 217.495247 196.082314 217.179148 195.286705 217.179148 
C 194.491095 217.179148 193.727965 217.495247 193.165384 218.057827 
C 192.602803 218.620408 192.286705 219.383538 192.286705 220.179148 
C 192.286705 220.974757 192.602803 221.737887 193.165384 222.300468 
C 193.727965 222.863049 194.491095 223.179148 195.286705 223.179148 
z
" style="fill:#f26b38;stroke:#ffffff;stroke-width:0.48;"/>
    <path clip-path="url(#p58075454df)" d="M 202.050341 223.179148 
C 202.84595 223.179148 203.609081 222.863049 204.171661 222.300468 
C 204.734242 221.737887 205.050341 220.974757 205.050341 220.179148 
C 205.050341 219.383538 204.734242 218.620408 204.171661 218.057827 
C 203.609081 217.495247 202.84595 217.179148 202.050341 217.179148 
C 201.254732 217.179148 200.491601 217.495247 199.929021 218.057827 
C 199.36644 218.620408 199.050341 219.383538 199.050341 220.179148 
C 199.050341 220.974757 199.36644 221.737887 199.929021 222.300468 
C 200.491601 222.863049 201.254732 223.179148 202.050341 223.179148 
z
" style="fill:#f26b38;stroke:#ffffff;stroke-width:0.48;"/>
    <path clip-path="url(#p58075454df)" d="M 208.813977 223.179148 
C 209.609587 223.179148 210.372717 222.863049 210.935298 222.300468 
C 211.497878 221.737887 211.813977 220.974757 211.813977 220.179148 
C 211.813977 219.383538 211.497878 218.620408 210.935298 218.057827 
C 210.372717 217.495247 209.609587 217.179148 208.813977 217.179148 
C 208.018368 217.179148 207.255238 217.495247 206.692657 218.057827 
C 206.130076 218.620408 205.813977 219.383538 205.813977 220.179148 
C 205.813977 220.974757 206.130076 221.737887 206.692657 222.300468 
C 207.255238 222.863049 208.018368 223.179148 208.813977 223.179148 
z
" style="fill:#f26b38;stroke:#ffffff;stroke-width:0.48;"/>
    <path clip-path="url(#p58075454df)" d="M 215.577614 223.179148 
C 216.373223 223.179148 217.136353 222.863049 217.698934 222.300468 
C 218.261515 221.737887 218.577614 220.974757 218.577614 220.179148 
C 218.577614 219.383538 218.261515 218.620408 217.698934 218.057827 
C 217.136353 217.495247 216.373223 217.179148 215.577614 217.179148 
C 214.782004 217.179148 214.018874 217.495247 213.456293 218.057827 
C 212.893713 218.620408 212.577614 219.383538 212.577614 220.179148 
C 212.577614 220.974757 212.893713 221.737887 213.456293 222.300468 
C 214.018874 222.863049 214.782004 223.179148 215.577614 223.179148 
z
" style="fill:#f26b38;stroke:#ffffff;stroke-width:0.48;"/>
    <path clip-path="url(#p58075454df)" d="M 222.34125 225.820416 
C 223.136859 225.820416 223.89999 225.504317 224.46257 224.941737 
C 225.025151 224.379156 225.34125 223.616026 225.34125 222.820416 
C 225.34125 222.024807 225.025151 221.261677 224.46257 220.699096 
C 223.89999 220.136515 223.136859 219.820416 222.34125 219.820416 
C 221.545641 219.820416 220.78251 220.136515 220.21993 220.699096 
C 219.657349 221.261677 219.34125 222.024807 219.34125 222.820416 
C 219.34125 223.616026 219.657349 224.379156 220.21993 224.941737 
C 220.78251 225.504317 221.545641 225.820416 222.34125 225.820416 
z
" style="fill:#f26b38;stroke:#ffffff;stroke-width:0.48;"/>
    <path clip-path="url(#p58075454df)" d="M 229.104886 219.962818 
C 229.900496 219.962818 230.663626 219.646719 231.226207 219.084139 
C 231.788787 218.521558 232.104886 217.758428 232.104886 216.962818 
C 232.104886 216.167209 231.788787 215.404079 231.226207 214.841498 
C 230.663626 214.278917 229.900496 213.962818 229.104886 213.962818 
C 228.309277 213.962818 227.546147 214.278917 226.983566 214.841498 
C 226.420985 215.404079 226.104886 216.167209 226.104886 216.962818 
C 226.104886 217.758428 226.420985 218.521558 226.983566 219.084139 
C 227.546147 219.646719 228.309277 219.962818 229.104886 219.962818 
z
" style="fill:#f26b38;stroke:#ffffff;stroke-width:0.48;"/>
    <path clip-path="url(#p58075454df)" d="M 235.868523 219.962818 
C 236.664132 219.962818 237.427262 219.646719 237.989843 219.084139 
C 238.552424 218.521558 238.868523 217.758428 238.868523 216.962818 
C 238.868523 216.167209 238.552424 215.404079 237.989843 214.841498 
C 237.427262 214.278917 236.664132 213.962818 235.868523 213.962818 
C 235.072913 213.962818 234.309783 214.278917 233.747202 214.841498 
C 233.184622 215.404079 232.868523 216.167209 232.868523 216.962818 
C 232.868523 217.758428 233.184622 218.521558 233.747202 219.084139 
C 234.309783 219.646719 235.072913 219.962818 235.868523 219.962818 
z
" style="fill:#f26b38;stroke:#ffffff;stroke-width:0.48;"/>
    <path clip-path="url(#p58075454df)" d="M 242.632159 219.962818 
C 243.427768 219.962818 244.190899 219.646719 244.753479 219.084139 
C 245.31606 218.521558 245.632159 217.758428 245.632159 216.962818 
C 245.632159 216.167209 245.31606 215.404079 244.753479 214.841498 
C 244.190899 214.278917 243.427768 213.962818 242.632159 213.962818 
C 241.83655 213.962818 241.073419 214.278917 240.510839 214.841498 
C 239.948258 215.404079 239.632159 216.167209 239.632159 216.962818 
C 239.632159 217.758428 239.948258 218.521558 240.510839 219.084139 
C 241.073419 219.646719 241.83655 219.962818 242.632159 219.962818 
z
" style="fill:#f26b38;stroke:#ffffff;stroke-width:0.48;"/>
    <path clip-path="url(#p58075454df)" d="M 249.395795 219.962818 
C 250.191405 219.962818 250.954535 219.646719 251.517116 219.084139 
C 252.079697 218.521558 252.395795 217.758428 252.395795 216.962818 
C 252.395795 216.167209 252.079697 215.404079 251.517116 214.841498 
C 250.954535 214.278917 250.191405 213.962818 249.395795 213.962818 
C 248.600186 213.962818 247.837056 214.278917 247.274475 214.841498 
C 246.711894 215.404079 246.395795 216.167209 246.395795 216.962818 
C 246.395795 217.758428 246.711894 218.521558 247.274475 219.084139 
C 247.837056 219.646719 248.600186 219.962818 249.395795 219.962818 
z
" style="fill:#f26b38;stroke:#ffffff;stroke-width:0.48;"/>
    <path clip-path="url(#p58075454df)" d="M 256.159432 219.962818 
C 256.955041 219.962818 257.718171 219.646719 258.280752 219.084139 
C 258.843333 218.521558 259.159432 217.758428 259.159432 216.962818 
C 259.159432 216.167209 258.843333 215.404079 258.280752 214.841498 
C 257.718171 214.278917 256.955041 213.962818 256.159432 213.962818 
C 255.363823 213.962818 254.600692 214.278917 254.038111 214.841498 
C 253.475531 215.404079 253.159432 216.167209 253.159432 216.962818 
C 253.159432 217.758428 253.475531 218.521558 254.038111 219.084139 
C 254.600692 219.646719 255.363823 219.962818 256.159432 219.962818 
z
" style="fill:#f26b38;stroke:#ffffff;stroke-width:0.48;"/>
    <path clip-path="url(#p58075454df)" d="M 262.923068 219.962818 
C 263.718677 219.962818 264.481808 219.646719 265.044389 219.084139 
C 265.606969 218.521558 265.923068 217.758428 265.923068 216.962818 
C 265.923068 216.167209 265.606969 215.404079 265.044389 214.841498 
C 264.481808 214.278917 263.718677 213.962818 262.923068 213.962818 
C 262.127459 213.962818 261.364329 214.278917 260.801748 214.841498 
C 260.239167 215.404079 259.923068 216.167209 259.923068 216.962818 
C 259.923068 217.758428 260.239167 218.521558 260.801748 219.084139 
C 261.364329 219.646719 262.127459 219.962818 262.923068 219.962818 
z
" style="fill:#f26b38;stroke:#ffffff;stroke-width:0.48;"/>
    <path clip-path="url(#p58075454df)" d="M 269.686705 219.962818 
C 270.482314 219.962818 271.245444 219.646719 271.808025 219.084139 
C 272.370606 218.521558 272.686705 217.758428 272.686705 216.962818 
C 272.686705 216.167209 272.370606 215.404079 271.808025 214.841498 
C 271.245444 214.278917 270.482314 213.962818 269.686705 213.962818 
C 268.891095 213.962818 268.127965 214.278917 267.565384 214.841498 
C 267.002803 215.404079 266.686705 216.167209 266.686705 216.962818 
C 266.686705 217.758428 267.002803 218.521558 267.565384 219.084139 
C 268.127965 219.646719 268.891095 219.962818 269.686705 219.962818 
z
" style="fill:#f26b38;stroke:#ffffff;stroke-width:0.48;"/>
    <path clip-path="url(#p58075454df)" d="M 276.450341 219.962818 
C 277.24595 219.962818 278.009081 219.646719 278.571661 219.084139 
C 279.134242 218.521558 279.450341 217.758428 279.450341 216.962818 
C 279.450341 216.167209 279.134242 215.404079 278.571661 214.841498 
C 278.009081 214.278917 277.24595 213.962818 276.450341 213.962818 
C 275.654732 213.962818 274.891601 214.278917 274.329021 214.841498 
C 273.76644 215.404079 273.450341 216.167209 273.450341 216.962818 
C 273.450341 217.758428 273.76644 218.521558 274.329021 219.084139 
C 274.891601 219.646719 275.654732 219.962818 276.450341 219.962818 
z
" style="fill:#f26b38;stroke:#ffffff;stroke-width:0.48;"/>
    <path clip-path="url(#p58075454df)" d="M 283.213977 219.962818 
C 284.009587 219.962818 284.772717 219.646719 285.335298 219.084139 
C 285.897878 218.521558 286.213977 217.758428 286.213977 216.962818 
C 286.213977 216.167209 285.897878 215.404079 285.335298 214.841498 
C 284.772717 214.278917 284.009587 213.962818 283.213977 213.962818 
C 282.418368 213.962818 281.655238 214.278917 281.092657 214.841498 
C 280.530076 215.404079 280.213977 216.167209 280.213977 216.962818 
C 280.213977 217.758428 280.530076 218.521558 281.092657 219.084139 
C 281.655238 219.646719 282.418368 219.962818 283.213977 219.962818 
z
" style="fill:#f26b38;stroke:#ffffff;stroke-width:0.48;"/>
    <path clip-path="url(#p58075454df)" d="M 289.977614 219.962818 
C 290.773223 219.962818 291.536353 219.646719 292.098934 219.084139 
C 292.661515 218.521558 292.977614 217.758428 292.977614 216.962818 
C 292.977614 216.167209 292.661515 215.404079 292.098934 214.841498 
C 291.536353 214.278917 290.773223 213.962818 289.977614 213.962818 
C 289.182004 213.962818 288.418874 214.278917 287.856293 214.841498 
C 287.293713 215.404079 286.977614 216.167209 286.977614 216.962818 
C 286.977614 217.758428 287.293713 218.521558 287.856293 219.084139 
C 288.418874 219.646719 289.182004 219.962818 289.977614 219.962818 
z
" style="fill:#f26b38;stroke:#ffffff;stroke-width:0.48;"/>
    <path clip-path="url(#p58075454df)" d="M 296.74125 219.962818 
C 297.536859 219.962818 298.29999 219.646719 298.86257 219.084139 
C 299.425151 218.521558 299.74125 217.758428 299.74125 216.962818 
C 299.74125 216.167209 299.425151 215.404079 298.86257 214.841498 
C 298.29999 214.278917 297.536859 213.962818 296.74125 213.962818 
C 295.945641 213.962818 295.18251 214.278917 294.61993 214.841498 
C 294.057349 215.404079 293.74125 216.167209 293.74125 216.962818 
C 293.74125 217.758428 294.057349 218.521558 294.61993 219.084139 
C 295.18251 219.646719 295.945641 219.962818 296.74125 219.962818 
z
" style="fill:#f26b38;stroke:#ffffff;stroke-width:0.48;"/>
    <path clip-path="url(#p58075454df)" d="M 303.504886 219.962818 
C 304.300496 219.962818 305.063626 219.646719 305.626207 219.084139 
C 306.188787 218.521558 306.504886 217.758428 306.504886 216.962818 
C 306.504886 216.167209 306.188787 215.404079 305.626207 214.841498 
C 305.063626 214.278917 304.300496 213.962818 303.504886 213.962818 
C 302.709277 213.962818 301.946147 214.278917 301.383566 214.841498 
C 300.820985 215.404079 300.504886 216.167209 300.504886 216.962818 
C 300.504886 217.758428 300.820985 218.521558 301.383566 219.084139 
C 301.946147 219.646719 302.709277 219.962818 303.504886 219.962818 
z
" style="fill:#f26b38;stroke:#ffffff;stroke-width:0.48;"/>
    <path clip-path="url(#p58075454df)" d="M 310.268523 219.962818 
C 311.064132 219.962818 311.827262 219.646719 312.389843 219.084139 
C 312.952424 218.521558 313.268523 217.758428 313.268523 216.962818 
C 313.268523 216.167209 312.952424 215.404079 312.389843 214.841498 
C 311.827262 214.278917 311.064132 213.962818 310.268523 213.962818 
C 309.472913 213.962818 308.709783 214.278917 308.147202 214.841498 
C 307.584622 215.404079 307.268523 216.167209 307.268523 216.962818 
C 307.268523 217.758428 307.584622 218.521558 308.147202 219.084139 
C 308.709783 219.646719 309.472913 219.962818 310.268523 219.962818 
z
" style="fill:#f26b38;stroke:#ffffff;stroke-width:0.48;"/>
    <path clip-path="url(#p58075454df)" d="M 317.032159 219.962818 
C 317.827768 219.962818 318.590899 219.646719 319.153479 219.084139 
C 319.71606 218.521558 320.032159 217.758428 320.032159 216.962818 
C 320.032159 216.167209 319.71606 215.404079 319.153479 214.841498 
C 318.590899 214.278917 317.827768 213.962818 317.032159 213.962818 
C 316.23655 213.962818 315.473419 214.278917 314.910839 214.841498 
C 314.348258 215.404079 314.032159 216.167209 314.032159 216.962818 
C 314.032159 217.758428 314.348258 218.521558 314.910839 219.084139 
C 315.473419 219.646719 316.23655 219.962818 317.032159 219.962818 
z
" style="fill:#f26b38;stroke:#ffffff;stroke-width:0.48;"/>
    <path clip-path="url(#p58075454df)" d="M 323.795795 219.962818 
C 324.591405 219.962818 325.354535 219.646719 325.917116 219.084139 
C 326.479697 218.521558 326.795795 217.758428 326.795795 216.962818 
C 326.795795 216.167209 326.479697 215.404079 325.917116 214.841498 
C 325.354535 214.278917 324.591405 213.962818 323.795795 213.962818 
C 323.000186 213.962818 322.237056 214.278917 321.674475 214.841498 
C 321.111894 215.404079 320.795795 216.167209 320.795795 216.962818 
C 320.795795 217.758428 321.111894 218.521558 321.674475 219.084139 
C 322.237056 219.646719 323.000186 219.962818 323.795795 219.962818 
z
" style="fill:#f26b38;stroke:#ffffff;stroke-width:0.48;"/>
    <path clip-path="url(#p58075454df)" d="M 330.559432 219.962818 
C 331.355041 219.962818 332.118171 219.646719 332.680752 219.084139 
C 333.243333 218.521558 333.559432 217.758428 333.559432 216.962818 
C 333.559432 216.167209 333.243333 215.404079 332.680752 214.841498 
C 332.118171 214.278917 331.355041 213.962818 330.559432 213.962818 
C 329.763823 213.962818 329.000692 214.278917 328.438111 214.841498 
C 327.875531 215.404079 327.559432 216.167209 327.559432 216.962818 
C 327.559432 217.758428 327.875531 218.521558 328.438111 219.084139 
C 329.000692 219.646719 329.763823 219.962818 330.559432 219.962818 
z
" style="fill:#f26b38;stroke:#ffffff;stroke-width:0.48;"/>
    <path clip-path="url(#p58075454df)" d="M 337.323068 219.962818 
C 338.118677 219.962818 338.881808 219.646719 339.444389 219.084139 
C 340.006969 218.521558 340.323068 217.758428 340.323068 216.962818 
C 340.323068 216.167209 340.006969 215.404079 339.444389 214.841498 
C 338.881808 214.278917 338.118677 213.962818 337.323068 213.962818 
C 336.527459 213.962818 335.764329 214.278917 335.201748 214.841498 
C 334.639167 215.404079 334.323068 216.167209 334.323068 216.962818 
C 334.323068 217.758428 334.639167 218.521558 335.201748 219.084139 
C 335.764329 219.646719 336.527459 219.962818 337.323068 219.962818 
z
" style="fill:#f26b38;stroke:#ffffff;stroke-width:0.48;"/>
    <path clip-path="url(#p58075454df)" d="M 344.086705 219.962818 
C 344.882314 219.962818 345.645444 219.646719 346.208025 219.084139 
C 346.770606 218.521558 347.086705 217.758428 347.086705 216.962818 
C 347.086705 216.167209 346.770606 215.404079 346.208025 214.841498 
C 345.645444 214.278917 344.882314 213.962818 344.086705 213.962818 
C 343.291095 213.962818 342.527965 214.278917 341.965384 214.841498 
C 341.402803 215.404079 341.086705 216.167209 341.086705 216.962818 
C 341.086705 217.758428 341.402803 218.521558 341.965384 219.084139 
C 342.527965 219.646719 343.291095 219.962818 344.086705 219.962818 
z
" style="fill:#f26b38;stroke:#ffffff;stroke-width:0.48;"/>
    <path clip-path="url(#p58075454df)" d="M 350.850341 219.962818 
C 351.64595 219.962818 352.409081 219.646719 352.971661 219.084139 
C 353.534242 218.521558 353.850341 217.758428 353.850341 216.962818 
C 353.850341 216.167209 353.534242 215.404079 352.971661 214.841498 
C 352.409081 214.278917 351.64595 213.962818 350.850341 213.962818 
C 350.054732 213.962818 349.291601 214.278917 348.729021 214.841498 
C 348.16644 215.404079 347.850341 216.167209 347.850341 216.962818 
C 347.850341 217.758428 348.16644 218.521558 348.729021 219.084139 
C 349.291601 219.646719 350.054732 219.962818 350.850341 219.962818 
z
" style="fill:#f26b38;stroke:#ffffff;stroke-width:0.48;"/>
    <path clip-path="url(#p58075454df)" d="M 357.613977 219.962818 
C 358.409587 219.962818 359.172717 219.646719 359.735298 219.084139 
C 360.297878 218.521558 360.613977 217.758428 360.613977 216.962818 
C 360.613977 216.167209 360.297878 215.404079 359.735298 214.841498 
C 359.172717 214.278917 358.409587 213.962818 357.613977 213.962818 
C 356.818368 213.962818 356.055238 214.278917 355.492657 214.841498 
C 354.930076 215.404079 354.613977 216.167209 354.613977 216.962818 
C 354.613977 217.758428 354.930076 218.521558 355.492657 219.084139 
C 356.055238 219.646719 356.818368 219.962818 357.613977 219.962818 
z
" style="fill:#f26b38;stroke:#ffffff;stroke-width:0.48;"/>
    <path clip-path="url(#p58075454df)" d="M 364.377614 219.962818 
C 365.173223 219.962818 365.936353 219.646719 366.498934 219.084139 
C 367.061515 218.521558 367.377614 217.758428 367.377614 216.962818 
C 367.377614 216.167209 367.061515 215.404079 366.498934 214.841498 
C 365.936353 214.278917 365.173223 213.962818 364.377614 213.962818 
C 363.582004 213.962818 362.818874 214.278917 362.256293 214.841498 
C 361.693713 215.404079 361.377614 216.167209 361.377614 216.962818 
C 361.377614 217.758428 361.693713 218.521558 362.256293 219.084139 
C 362.818874 219.646719 363.582004 219.962818 364.377614 219.962818 
z
" style="fill:#f26b38;stroke:#ffffff;stroke-width:0.48;"/>
    <path clip-path="url(#p58075454df)" d="M 371.14125 219.962818 
C 371.936859 219.962818 372.69999 219.646719 373.26257 219.084139 
C 373.825151 218.521558 374.14125 217.758428 374.14125 216.962818 
C 374.14125 216.167209 373.825151 215.404079 373.26257 214.841498 
C 372.69999 214.278917 371.936859 213.962818 371.14125 213.962818 
C 370.345641 213.962818 369.58251 214.278917 369.01993 214.841498 
C 368.457349 215.404079 368.14125 216.167209 368.14125 216.962818 
C 368.14125 217.758428 368.457349 218.521558 369.01993 219.084139 
C 369.58251 219.646719 370.345641 219.962818 371.14125 219.962818 
z
" style="fill:#f26b38;stroke:#ffffff;stroke-width:0.48;"/>
    <path clip-path="url(#p58075454df)" d="M 377.904886 219.962818 
C 378.700496 219.962818 379.463626 219.646719 380.026207 219.084139 
C 380.588787 218.521558 380.904886 217.758428 380.904886 216.962818 
C 380.904886 216.167209 380.588787 215.404079 380.026207 214.841498 
C 379.463626 214.278917 378.700496 213.962818 377.904886 213.962818 
C 377.109277 213.962818 376.346147 214.278917 375.783566 214.841498 
C 375.220985 215.404079 374.904886 216.167209 374.904886 216.962818 
C 374.904886 217.758428 375.220985 218.521558 375.783566 219.084139 
C 376.346147 219.646719 377.109277 219.962818 377.904886 219.962818 
z
" style="fill:#f26b38;stroke:#ffffff;stroke-width:0.48;"/>
    <path clip-path="url(#p58075454df)" d="M 384.668523 219.962818 
C 385.464132 219.962818 386.227262 219.646719 386.789843 219.084139 
C 387.352424 218.521558 387.668523 217.758428 387.668523 216.962818 
C 387.668523 216.167209 387.352424 215.404079 386.789843 214.841498 
C 386.227262 214.278917 385.464132 213.962818 384.668523 213.962818 
C 383.872913 213.962818 383.109783 214.278917 382.547202 214.841498 
C 381.984622 215.404079 381.668523 216.167209 381.668523 216.962818 
C 381.668523 217.758428 381.984622 218.521558 382.547202 219.084139 
C 383.109783 219.646719 383.872913 219.962818 384.668523 219.962818 
z
" style="fill:#f26b38;stroke:#ffffff;stroke-width:0.48;"/>
    <path clip-path="url(#p58075454df)" d="M 58.513977 119.462496 
L 60.013977 117.962496 
L 61.513977 119.462496 
L 63.013977 117.962496 
L 61.513977 116.462496 
L 63.013977 114.962496 
L 61.513977 113.462496 
L 60.013977 114.962496 
L 58.513977 113.462496 
L 57.013977 114.962496 
L 58.513977 116.462496 
L 57.013977 117.962496 
z
" style="fill:#2f9599;stroke:#ffffff;stroke-width:0.48;"/>
    <path clip-path="url(#p58075454df)" d="M 65.277614 173.399489 
L 66.777614 171.899489 
L 68.277614 173.399489 
L 69.777614 171.899489 
L 68.277614 170.399489 
L 69.777614 168.899489 
L 68.277614 167.399489 
L 66.777614 168.899489 
L 65.277614 167.399489 
L 63.777614 168.899489 
L 65.277614 170.399489 
L 63.777614 171.899489 
z
" style="fill:#2f9599;stroke:#ffffff;stroke-width:0.48;"/>
    <path clip-path="url(#p58075454df)" d="M 72.04125 173.399489 
L 73.54125 171.899489 
L 75.04125 173.399489 
L 76.54125 171.899489 
L 75.04125 170.399489 
L 76.54125 168.899489 
L 75.04125 167.399489 
L 73.54125 168.899489 
L 72.04125 167.399489 
L 70.54125 168.899489 
L 72.04125 170.399489 
L 70.54125 171.899489 
z
" style="fill:#2f9599;stroke:#ffffff;stroke-width:0.48;"/>
    <path clip-path="url(#p58075454df)" d="M 78.804886 209.655319 
L 80.304886 208.155319 
L 81.804886 209.655319 
L 83.304886 208.155319 
L 81.804886 206.655319 
L 83.304886 205.155319 
L 81.804886 203.655319 
L 80.304886 205.155319 
L 78.804886 203.655319 
L 77.304886 205.155319 
L 78.804886 206.655319 
L 77.304886 208.155319 
z
" style="fill:#2f9599;stroke:#ffffff;stroke-width:0.48;"/>
    <path clip-path="url(#p58075454df)" d="M 85.568523 231.070713 
L 87.068523 229.570713 
L 88.568523 231.070713 
L 90.068523 229.570713 
L 88.568523 228.070713 
L 90.068523 226.570713 
L 88.568523 225.070713 
L 87.068523 226.570713 
L 85.568523 225.070713 
L 84.068523 226.570713 
L 85.568523 228.070713 
L 84.068523 229.570713 
z
" style="fill:#2f9599;stroke:#ffffff;stroke-width:0.48;"/>
    <path clip-path="url(#p58075454df)" d="M 92.332159 246.312577 
L 93.832159 244.812577 
L 95.332159 246.312577 
L 96.832159 244.812577 
L 95.332159 243.312577 
L 96.832159 241.812577 
L 95.332159 240.312577 
L 93.832159 241.812577 
L 92.332159 240.312577 
L 90.832159 241.812577 
L 92.332159 243.312577 
L 90.832159 244.812577 
z
" style="fill:#2f9599;stroke:#ffffff;stroke-width:0.48;"/>
    <path clip-path="url(#p58075454df)" d="M 99.095795 246.312577 
L 100.595795 244.812577 
L 102.095795 246.312577 
L 103.595795 244.812577 
L 102.095795 243.312577 
L 103.595795 241.812577 
L 102.095795 240.312577 
L 100.595795 241.812577 
L 99.095795 240.312577 
L 97.595795 241.812577 
L 99.095795 243.312577 
L 97.595795 244.812577 
z
" style="fill:#2f9599;stroke:#ffffff;stroke-width:0.48;"/>
    <path clip-path="url(#p58075454df)" d="M 105.859432 246.312577 
L 107.359432 244.812577 
L 108.859432 246.312577 
L 110.359432 244.812577 
L 108.859432 243.312577 
L 110.359432 241.812577 
L 108.859432 240.312577 
L 107.359432 241.812577 
L 105.859432 240.312577 
L 104.359432 241.812577 
L 105.859432 243.312577 
L 104.359432 244.812577 
z
" style="fill:#2f9599;stroke:#ffffff;stroke-width:0.48;"/>
    <path clip-path="url(#p58075454df)" d="M 112.623068 248.774298 
L 114.123068 247.274298 
L 115.623068 248.774298 
L 117.123068 247.274298 
L 115.623068 245.774298 
L 117.123068 244.274298 
L 115.623068 242.774298 
L 114.123068 244.274298 
L 112.623068 242.774298 
L 111.123068 244.274298 
L 112.623068 245.774298 
L 111.123068 247.274298 
z
" style="fill:#2f9599;stroke:#ffffff;stroke-width:0.48;"/>
    <path clip-path="url(#p58075454df)" d="M 119.386705 253.492596 
L 120.886705 251.992596 
L 122.386705 253.492596 
L 123.886705 251.992596 
L 122.386705 250.492596 
L 123.886705 248.992596 
L 122.386705 247.492596 
L 120.886705 248.992596 
L 119.386705 247.492596 
L 117.886705 248.992596 
L 119.386705 250.492596 
L 117.886705 251.992596 
z
" style="fill:#2f9599;stroke:#ffffff;stroke-width:0.48;"/>
    <path clip-path="url(#p58075454df)" d="M 126.150341 264.216 
L 127.650341 262.716 
L 129.150341 264.216 
L 130.650341 262.716 
L 129.150341 261.216 
L 130.650341 259.716 
L 129.150341 258.216 
L 127.650341 259.716 
L 126.150341 258.216 
L 124.650341 259.716 
L 126.150341 261.216 
L 124.650341 262.716 
z
" style="fill:#2f9599;stroke:#ffffff;stroke-width:0.48;"/>
    <path clip-path="url(#p58075454df)" d="M 132.913977 264.216 
L 134.413977 262.716 
L 135.913977 264.216 
L 137.413977 262.716 
L 135.913977 261.216 
L 137.413977 259.716 
L 135.913977 258.216 
L 134.413977 259.716 
L 132.913977 258.216 
L 131.413977 259.716 
L 132.913977 261.216 
L 131.413977 262.716 
z
" style="fill:#2f9599;stroke:#ffffff;stroke-width:0.48;"/>
    <path clip-path="url(#p58075454df)" d="M 139.677614 264.216 
L 141.177614 262.716 
L 142.677614 264.216 
L 144.177614 262.716 
L 142.677614 261.216 
L 144.177614 259.716 
L 142.677614 258.216 
L 141.177614 259.716 
L 139.677614 258.216 
L 138.177614 259.716 
L 139.677614 261.216 
L 138.177614 262.716 
z
" style="fill:#2f9599;stroke:#ffffff;stroke-width:0.48;"/>
    <path clip-path="url(#p58075454df)" d="M 146.44125 264.216 
L 147.94125 262.716 
L 149.44125 264.216 
L 150.94125 262.716 
L 149.44125 261.216 
L 150.94125 259.716 
L 149.44125 258.216 
L 147.94125 259.716 
L 146.44125 258.216 
L 144.94125 259.716 
L 146.44125 261.216 
L 144.94125 262.716 
z
" style="fill:#2f9599;stroke:#ffffff;stroke-width:0.48;"/>
    <path clip-path="url(#p58075454df)" d="M 153.204886 264.216 
L 154.704886 262.716 
L 156.204886 264.216 
L 157.704886 262.716 
L 156.204886 261.216 
L 157.704886 259.716 
L 156.204886 258.216 
L 154.704886 259.716 
L 153.204886 258.216 
L 151.704886 259.716 
L 153.204886 261.216 
L 151.704886 262.716 
z
" style="fill:#2f9599;stroke:#ffffff;stroke-width:0.48;"/>
    <path clip-path="url(#p58075454df)" d="M 159.968523 264.216 
L 161.468523 262.716 
L 162.968523 264.216 
L 164.468523 262.716 
L 162.968523 261.216 
L 164.468523 259.716 
L 162.968523 258.216 
L 161.468523 259.716 
L 159.968523 258.216 
L 158.468523 259.716 
L 159.968523 261.216 
L 158.468523 262.716 
z
" style="fill:#2f9599;stroke:#ffffff;stroke-width:0.48;"/>
    <path clip-path="url(#p58075454df)" d="M 166.732159 250.064364 
L 168.232159 248.564364 
L 169.732159 250.064364 
L 171.232159 248.564364 
L 169.732159 247.064364 
L 171.232159 245.564364 
L 169.732159 244.064364 
L 168.232159 245.564364 
L 166.732159 244.064364 
L 165.232159 245.564364 
L 166.732159 247.064364 
L 165.232159 248.564364 
z
" style="fill:#2f9599;stroke:#ffffff;stroke-width:0.48;"/>
    <path clip-path="url(#p58075454df)" d="M 173.495795 250.064364 
L 174.995795 248.564364 
L 176.495795 250.064364 
L 177.995795 248.564364 
L 176.495795 247.064364 
L 177.995795 245.564364 
L 176.495795 244.064364 
L 174.995795 245.564364 
L 173.495795 244.064364 
L 171.995795 245.564364 
L 173.495795 247.064364 
L 171.995795 248.564364 
z
" style="fill:#2f9599;stroke:#ffffff;stroke-width:0.48;"/>
    <path clip-path="url(#p58075454df)" d="M 180.259432 250.064364 
L 181.759432 248.564364 
L 183.259432 250.064364 
L 184.759432 248.564364 
L 183.259432 247.064364 
L 184.759432 245.564364 
L 183.259432 244.064364 
L 181.759432 245.564364 
L 180.259432 244.064364 
L 178.759432 245.564364 
L 180.259432 247.064364 
L 178.759432 248.564364 
z
" style="fill:#2f9599;stroke:#ffffff;stroke-width:0.48;"/>
    <path clip-path="url(#p58075454df)" d="M 187.023068 250.064364 
L 188.523068 248.564364 
L 190.023068 250.064364 
L 191.523068 248.564364 
L 190.023068 247.064364 
L 191.523068 245.564364 
L 190.023068 244.064364 
L 188.523068 245.564364 
L 187.023068 244.064364 
L 185.523068 245.564364 
L 187.023068 247.064364 
L 185.523068 248.564364 
z
" style="fill:#2f9599;stroke:#ffffff;stroke-width:0.48;"/>
    <path clip-path="url(#p58075454df)" d="M 193.786705 250.064364 
L 195.286705 248.564364 
L 196.786705 250.064364 
L 198.286705 248.564364 
L 196.786705 247.064364 
L 198.286705 245.564364 
L 196.786705 244.064364 
L 195.286705 245.564364 
L 193.786705 244.064364 
L 192.286705 245.564364 
L 193.786705 247.064364 
L 192.286705 248.564364 
z
" style="fill:#2f9599;stroke:#ffffff;stroke-width:0.48;"/>
    <path clip-path="url(#p58075454df)" d="M 200.550341 250.064364 
L 202.050341 248.564364 
L 203.550341 250.064364 
L 205.050341 248.564364 
L 203.550341 247.064364 
L 205.050341 245.564364 
L 203.550341 244.064364 
L 202.050341 245.564364 
L 200.550341 244.064364 
L 199.050341 245.564364 
L 200.550341 247.064364 
L 199.050341 248.564364 
z
" style="fill:#2f9599;stroke:#ffffff;stroke-width:0.48;"/>
    <path clip-path="url(#p58075454df)" d="M 207.313977 250.064364 
L 208.813977 248.564364 
L 210.313977 250.064364 
L 211.813977 248.564364 
L 210.313977 247.064364 
L 211.813977 245.564364 
L 210.313977 244.064364 
L 208.813977 245.564364 
L 207.313977 244.064364 
L 205.813977 245.564364 
L 207.313977 247.064364 
L 205.813977 248.564364 
z
" style="fill:#2f9599;stroke:#ffffff;stroke-width:0.48;"/>
    <path clip-path="url(#p58075454df)" d="M 214.077614 250.064364 
L 215.577614 248.564364 
L 217.077614 250.064364 
L 218.577614 248.564364 
L 217.077614 247.064364 
L 218.577614 245.564364 
L 217.077614 244.064364 
L 215.577614 245.564364 
L 214.077614 244.064364 
L 212.577614 245.564364 
L 214.077614 247.064364 
L 212.577614 248.564364 
z
" style="fill:#2f9599;stroke:#ffffff;stroke-width:0.48;"/>
    <path clip-path="url(#p58075454df)" d="M 220.84125 250.064364 
L 222.34125 248.564364 
L 223.84125 250.064364 
L 225.34125 248.564364 
L 223.84125 247.064364 
L 225.34125 245.564364 
L 223.84125 244.064364 
L 222.34125 245.564364 
L 220.84125 244.064364 
L 219.34125 245.564364 
L 220.84125 247.064364 
L 219.34125 248.564364 
z
" style="fill:#2f9599;stroke:#ffffff;stroke-width:0.48;"/>
    <path clip-path="url(#p58075454df)" d="M 227.604886 250.064364 
L 229.104886 248.564364 
L 230.604886 250.064364 
L 232.104886 248.564364 
L 230.604886 247.064364 
L 232.104886 245.564364 
L 230.604886 244.064364 
L 229.104886 245.564364 
L 227.604886 244.064364 
L 226.104886 245.564364 
L 227.604886 247.064364 
L 226.104886 248.564364 
z
" style="fill:#2f9599;stroke:#ffffff;stroke-width:0.48;"/>
    <path clip-path="url(#p58075454df)" d="M 234.368523 250.064364 
L 235.868523 248.564364 
L 237.368523 250.064364 
L 238.868523 248.564364 
L 237.368523 247.064364 
L 238.868523 245.564364 
L 237.368523 244.064364 
L 235.868523 245.564364 
L 234.368523 244.064364 
L 232.868523 245.564364 
L 234.368523 247.064364 
L 232.868523 248.564364 
z
" style="fill:#2f9599;stroke:#ffffff;stroke-width:0.48;"/>
    <path clip-path="url(#p58075454df)" d="M 241.132159 250.064364 
L 242.632159 248.564364 
L 244.132159 250.064364 
L 245.632159 248.564364 
L 244.132159 247.064364 
L 245.632159 245.564364 
L 244.132159 244.064364 
L 242.632159 245.564364 
L 241.132159 244.064364 
L 239.632159 245.564364 
L 241.132159 247.064364 
L 239.632159 248.564364 
z
" style="fill:#2f9599;stroke:#ffffff;stroke-width:0.48;"/>
    <path clip-path="url(#p58075454df)" d="M 247.895795 250.064364 
L 249.395795 248.564364 
L 250.895795 250.064364 
L 252.395795 248.564364 
L 250.895795 247.064364 
L 252.395795 245.564364 
L 250.895795 244.064364 
L 249.395795 245.564364 
L 247.895795 244.064364 
L 246.395795 245.564364 
L 247.895795 247.064364 
L 246.395795 248.564364 
z
" style="fill:#2f9599;stroke:#ffffff;stroke-width:0.48;"/>
    <path clip-path="url(#p58075454df)" d="M 254.659432 250.064364 
L 256.159432 248.564364 
L 257.659432 250.064364 
L 259.159432 248.564364 
L 257.659432 247.064364 
L 259.159432 245.564364 
L 257.659432 244.064364 
L 256.159432 245.564364 
L 254.659432 244.064364 
L 253.159432 245.564364 
L 254.659432 247.064364 
L 253.159432 248.564364 
z
" style="fill:#2f9599;stroke:#ffffff;stroke-width:0.48;"/>
    <path clip-path="url(#p58075454df)" d="M 261.423068 250.064364 
L 262.923068 248.564364 
L 264.423068 250.064364 
L 265.923068 248.564364 
L 264.423068 247.064364 
L 265.923068 245.564364 
L 264.423068 244.064364 
L 262.923068 245.564364 
L 261.423068 244.064364 
L 259.923068 245.564364 
L 261.423068 247.064364 
L 259.923068 248.564364 
z
" style="fill:#2f9599;stroke:#ffffff;stroke-width:0.48;"/>
    <path clip-path="url(#p58075454df)" d="M 268.186705 250.064364 
L 269.686705 248.564364 
L 271.186705 250.064364 
L 272.686705 248.564364 
L 271.186705 247.064364 
L 272.686705 245.564364 
L 271.186705 244.064364 
L 269.686705 245.564364 
L 268.186705 244.064364 
L 266.686705 245.564364 
L 268.186705 247.064364 
L 266.686705 248.564364 
z
" style="fill:#2f9599;stroke:#ffffff;stroke-width:0.48;"/>
    <path clip-path="url(#p58075454df)" d="M 274.950341 250.064364 
L 276.450341 248.564364 
L 277.950341 250.064364 
L 279.450341 248.564364 
L 277.950341 247.064364 
L 279.450341 245.564364 
L 277.950341 244.064364 
L 276.450341 245.564364 
L 274.950341 244.064364 
L 273.450341 245.564364 
L 274.950341 247.064364 
L 273.450341 248.564364 
z
" style="fill:#2f9599;stroke:#ffffff;stroke-width:0.48;"/>
    <path clip-path="url(#p58075454df)" d="M 281.713977 250.064364 
L 283.213977 248.564364 
L 284.713977 250.064364 
L 286.213977 248.564364 
L 284.713977 247.064364 
L 286.213977 245.564364 
L 284.713977 244.064364 
L 283.213977 245.564364 
L 281.713977 244.064364 
L 280.213977 245.564364 
L 281.713977 247.064364 
L 280.213977 248.564364 
z
" style="fill:#2f9599;stroke:#ffffff;stroke-width:0.48;"/>
    <path clip-path="url(#p58075454df)" d="M 288.477614 250.064364 
L 289.977614 248.564364 
L 291.477614 250.064364 
L 292.977614 248.564364 
L 291.477614 247.064364 
L 292.977614 245.564364 
L 291.477614 244.064364 
L 289.977614 245.564364 
L 288.477614 244.064364 
L 286.977614 245.564364 
L 288.477614 247.064364 
L 286.977614 248.564364 
z
" style="fill:#2f9599;stroke:#ffffff;stroke-width:0.48;"/>
    <path clip-path="url(#p58075454df)" d="M 295.24125 250.064364 
L 296.74125 248.564364 
L 298.24125 250.064364 
L 299.74125 248.564364 
L 298.24125 247.064364 
L 299.74125 245.564364 
L 298.24125 244.064364 
L 296.74125 245.564364 
L 295.24125 244.064364 
L 293.74125 245.564364 
L 295.24125 247.064364 
L 293.74125 248.564364 
z
" style="fill:#2f9599;stroke:#ffffff;stroke-width:0.48;"/>
    <path clip-path="url(#p58075454df)" d="M 302.004886 250.064364 
L 303.504886 248.564364 
L 305.004886 250.064364 
L 306.504886 248.564364 
L 305.004886 247.064364 
L 306.504886 245.564364 
L 305.004886 244.064364 
L 303.504886 245.564364 
L 302.004886 244.064364 
L 300.504886 245.564364 
L 302.004886 247.064364 
L 300.504886 248.564364 
z
" style="fill:#2f9599;stroke:#ffffff;stroke-width:0.48;"/>
    <path clip-path="url(#p58075454df)" d="M 308.768523 250.064364 
L 310.268523 248.564364 
L 311.768523 250.064364 
L 313.268523 248.564364 
L 311.768523 247.064364 
L 313.268523 245.564364 
L 311.768523 244.064364 
L 310.268523 245.564364 
L 308.768523 244.064364 
L 307.268523 245.564364 
L 308.768523 247.064364 
L 307.268523 248.564364 
z
" style="fill:#2f9599;stroke:#ffffff;stroke-width:0.48;"/>
    <path clip-path="url(#p58075454df)" d="M 315.532159 250.064364 
L 317.032159 248.564364 
L 318.532159 250.064364 
L 320.032159 248.564364 
L 318.532159 247.064364 
L 320.032159 245.564364 
L 318.532159 244.064364 
L 317.032159 245.564364 
L 315.532159 244.064364 
L 314.032159 245.564364 
L 315.532159 247.064364 
L 314.032159 248.564364 
z
" style="fill:#2f9599;stroke:#ffffff;stroke-width:0.48;"/>
    <path clip-path="url(#p58075454df)" d="M 322.295795 250.064364 
L 323.795795 248.564364 
L 325.295795 250.064364 
L 326.795795 248.564364 
L 325.295795 247.064364 
L 326.795795 245.564364 
L 325.295795 244.064364 
L 323.795795 245.564364 
L 322.295795 244.064364 
L 320.795795 245.564364 
L 322.295795 247.064364 
L 320.795795 248.564364 
z
" style="fill:#2f9599;stroke:#ffffff;stroke-width:0.48;"/>
    <path clip-path="url(#p58075454df)" d="M 329.059432 250.064364 
L 330.559432 248.564364 
L 332.059432 250.064364 
L 333.559432 248.564364 
L 332.059432 247.064364 
L 333.559432 245.564364 
L 332.059432 244.064364 
L 330.559432 245.564364 
L 329.059432 244.064364 
L 327.559432 245.564364 
L 329.059432 247.064364 
L 327.559432 248.564364 
z
" style="fill:#2f9599;stroke:#ffffff;stroke-width:0.48;"/>
    <path clip-path="url(#p58075454df)" d="M 335.823068 250.064364 
L 337.323068 248.564364 
L 338.823068 250.064364 
L 340.323068 248.564364 
L 338.823068 247.064364 
L 340.323068 245.564364 
L 338.823068 244.064364 
L 337.323068 245.564364 
L 335.823068 244.064364 
L 334.323068 245.564364 
L 335.823068 247.064364 
L 334.323068 248.564364 
z
" style="fill:#2f9599;stroke:#ffffff;stroke-width:0.48;"/>
    <path clip-path="url(#p58075454df)" d="M 342.586705 250.064364 
L 344.086705 248.564364 
L 345.586705 250.064364 
L 347.086705 248.564364 
L 345.586705 247.064364 
L 347.086705 245.564364 
L 345.586705 244.064364 
L 344.086705 245.564364 
L 342.586705 244.064364 
L 341.086705 245.564364 
L 342.586705 247.064364 
L 341.086705 248.564364 
z
" style="fill:#2f9599;stroke:#ffffff;stroke-width:0.48;"/>
    <path clip-path="url(#p58075454df)" d="M 349.350341 250.064364 
L 350.850341 248.564364 
L 352.350341 250.064364 
L 353.850341 248.564364 
L 352.350341 247.064364 
L 353.850341 245.564364 
L 352.350341 244.064364 
L 350.850341 245.564364 
L 349.350341 244.064364 
L 347.850341 245.564364 
L 349.350341 247.064364 
L 347.850341 248.564364 
z
" style="fill:#2f9599;stroke:#ffffff;stroke-width:0.48;"/>
    <path clip-path="url(#p58075454df)" d="M 356.113977 250.064364 
L 357.613977 248.564364 
L 359.113977 250.064364 
L 360.613977 248.564364 
L 359.113977 247.064364 
L 360.613977 245.564364 
L 359.113977 244.064364 
L 357.613977 245.564364 
L 356.113977 244.064364 
L 354.613977 245.564364 
L 356.113977 247.064364 
L 354.613977 248.564364 
z
" style="fill:#2f9599;stroke:#ffffff;stroke-width:0.48;"/>
    <path clip-path="url(#p58075454df)" d="M 362.877614 250.064364 
L 364.377614 248.564364 
L 365.877614 250.064364 
L 367.377614 248.564364 
L 365.877614 247.064364 
L 367.377614 245.564364 
L 365.877614 244.064364 
L 364.377614 245.564364 
L 362.877614 244.064364 
L 361.377614 245.564364 
L 362.877614 247.064364 
L 361.377614 248.564364 
z
" style="fill:#2f9599;stroke:#ffffff;stroke-width:0.48;"/>
    <path clip-path="url(#p58075454df)" d="M 369.64125 250.064364 
L 371.14125 248.564364 
L 372.64125 250.064364 
L 374.14125 248.564364 
L 372.64125 247.064364 
L 374.14125 245.564364 
L 372.64125 244.064364 
L 371.14125 245.564364 
L 369.64125 244.064364 
L 368.14125 245.564364 
L 369.64125 247.064364 
L 368.14125 248.564364 
z
" style="fill:#2f9599;stroke:#ffffff;stroke-width:0.48;"/>
    <path clip-path="url(#p58075454df)" d="M 376.404886 250.064364 
L 377.904886 248.564364 
L 379.404886 250.064364 
L 380.904886 248.564364 
L 379.404886 247.064364 
L 380.904886 245.564364 
L 379.404886 244.064364 
L 377.904886 245.564364 
L 376.404886 244.064364 
L 374.904886 245.564364 
L 376.404886 247.064364 
L 374.904886 248.564364 
z
" style="fill:#2f9599;stroke:#ffffff;stroke-width:0.48;"/>
    <path clip-path="url(#p58075454df)" d="M 383.168523 250.064364 
L 384.668523 248.564364 
L 386.168523 250.064364 
L 387.668523 248.564364 
L 386.168523 247.064364 
L 387.668523 245.564364 
L 386.168523 244.064364 
L 384.668523 245.564364 
L 383.168523 244.064364 
L 381.668523 245.564364 
L 383.168523 247.064364 
L 381.668523 248.564364 
z
" style="fill:#2f9599;stroke:#ffffff;stroke-width:0.48;"/>
    <path clip-path="url(#p58075454df)" d="M 57.892657 44.675616 
L 57.892657 48.918257 
L 62.135298 48.918257 
L 62.135298 44.675616 
z
" style="fill:#a7226e;stroke:#ffffff;stroke-width:0.48;"/>
    <path clip-path="url(#p58075454df)" d="M 64.656293 44.675616 
L 64.656293 48.918257 
L 68.898934 48.918257 
L 68.898934 44.675616 
z
" style="fill:#a7226e;stroke:#ffffff;stroke-width:0.48;"/>
    <path clip-path="url(#p58075454df)" d="M 71.41993 44.675616 
L 71.41993 48.918257 
L 75.66257 48.918257 
L 75.66257 44.675616 
z
" style="fill:#a7226e;stroke:#ffffff;stroke-width:0.48;"/>
    <path clip-path="url(#p58075454df)" d="M 78.183566 44.675616 
L 78.183566 48.918257 
L 82.426207 48.918257 
L 82.426207 44.675616 
z
" style="fill:#a7226e;stroke:#ffffff;stroke-width:0.48;"/>
    <path clip-path="url(#p58075454df)" d="M 84.947202 44.675616 
L 84.947202 48.918257 
L 89.189843 48.918257 
L 89.189843 44.675616 
z
" style="fill:#a7226e;stroke:#ffffff;stroke-width:0.48;"/>
    <path clip-path="url(#p58075454df)" d="M 91.710839 44.675616 
L 91.710839 48.918257 
L 95.953479 48.918257 
L 95.953479 44.675616 
z
" style="fill:#a7226e;stroke:#ffffff;stroke-width:0.48;"/>
    <path clip-path="url(#p58075454df)" d="M 98.474475 44.675616 
L 98.474475 48.918257 
L 102.717116 48.918257 
L 102.717116 44.675616 
z
" style="fill:#a7226e;stroke:#ffffff;stroke-width:0.48;"/>
    <path clip-path="url(#p58075454df)" d="M 105.238111 61.564426 
L 105.238111 65.807067 
L 109.480752 65.807067 
L 109.480752 61.564426 
z
" style="fill:#a7226e;stroke:#ffffff;stroke-width:0.48;"/>
    <path clip-path="url(#p58075454df)" d="M 112.001748 59.139776 
L 112.001748 63.382417 
L 116.244389 63.382417 
L 116.244389 59.139776 
z
" style="fill:#a7226e;stroke:#ffffff;stroke-width:0.48;"/>
    <path clip-path="url(#p58075454df)" d="M 118.765384 65.954621 
L 118.765384 70.197261 
L 123.008025 70.197261 
L 123.008025 65.954621 
z
" style="fill:#a7226e;stroke:#ffffff;stroke-width:0.48;"/>
    <path clip-path="url(#p58075454df)" d="M 125.529021 65.954621 
L 125.529021 70.197261 
L 129.771661 70.197261 
L 129.771661 65.954621 
z
" style="fill:#a7226e;stroke:#ffffff;stroke-width:0.48;"/>
    <path clip-path="url(#p58075454df)" d="M 132.292657 65.954621 
L 132.292657 70.197261 
L 136.535298 70.197261 
L 136.535298 65.954621 
z
" style="fill:#a7226e;stroke:#ffffff;stroke-width:0.48;"/>
    <path clip-path="url(#p58075454df)" d="M 139.056293 84.91228 
L 139.056293 89.15492 
L 143.298934 89.15492 
L 143.298934 84.91228 
z
" style="fill:#a7226e;stroke:#ffffff;stroke-width:0.48;"/>
    <path clip-path="url(#p58075454df)" d="M 145.81993 90.780126 
L 145.81993 95.022767 
L 150.06257 95.022767 
L 150.06257 90.780126 
z
" style="fill:#a7226e;stroke:#ffffff;stroke-width:0.48;"/>
    <path clip-path="url(#p58075454df)" d="M 152.583566 117.233534 
L 152.583566 121.476175 
L 156.826207 121.476175 
L 156.826207 117.233534 
z
" style="fill:#a7226e;stroke:#ffffff;stroke-width:0.48;"/>
    <path clip-path="url(#p58075454df)" d="M 159.347202 117.233534 
L 159.347202 121.476175 
L 163.589843 121.476175 
L 163.589843 117.233534 
z
" style="fill:#a7226e;stroke:#ffffff;stroke-width:0.48;"/>
    <path clip-path="url(#p58075454df)" d="M 166.110839 109.43674 
L 166.110839 113.679381 
L 170.353479 113.679381 
L 170.353479 109.43674 
z
" style="fill:#a7226e;stroke:#ffffff;stroke-width:0.48;"/>
    <path clip-path="url(#p58075454df)" d="M 172.874475 109.43674 
L 172.874475 113.679381 
L 177.117116 113.679381 
L 177.117116 109.43674 
z
" style="fill:#a7226e;stroke:#ffffff;stroke-width:0.48;"/>
    <path clip-path="url(#p58075454df)" d="M 179.638111 109.43674 
L 179.638111 113.679381 
L 183.880752 113.679381 
L 183.880752 109.43674 
z
" style="fill:#a7226e;stroke:#ffffff;stroke-width:0.48;"/>
    <path clip-path="url(#p58075454df)" d="M 186.401748 101.639946 
L 186.401748 105.882587 
L 190.644389 105.882587 
L 190.644389 101.639946 
z
" style="fill:#a7226e;stroke:#ffffff;stroke-width:0.48;"/>
    <path clip-path="url(#p58075454df)" d="M 193.165384 101.639946 
L 193.165384 105.882587 
L 197.408025 105.882587 
L 197.408025 101.639946 
z
" style="fill:#a7226e;stroke:#ffffff;stroke-width:0.48;"/>
    <path clip-path="url(#p58075454df)" d="M 199.929021 142.909183 
L 199.929021 147.151824 
L 204.171661 147.151824 
L 204.171661 142.909183 
z
" style="fill:#a7226e;stroke:#ffffff;stroke-width:0.48;"/>
    <path clip-path="url(#p58075454df)" d="M 206.692657 142.909183 
L 206.692657 147.151824 
L 210.935298 147.151824 
L 210.935298 142.909183 
z
" style="fill:#a7226e;stroke:#ffffff;stroke-width:0.48;"/>
    <path clip-path="url(#p58075454df)" d="M 213.456293 151.109259 
L 213.456293 155.3519 
L 217.698934 155.3519 
L 217.698934 151.109259 
z
" style="fill:#a7226e;stroke:#ffffff;stroke-width:0.48;"/>
    <path clip-path="url(#p58075454df)" d="M 220.21993 151.109259 
L 220.21993 155.3519 
L 224.46257 155.3519 
L 224.46257 151.109259 
z
" style="fill:#a7226e;stroke:#ffffff;stroke-width:0.48;"/>
    <path clip-path="url(#p58075454df)" d="M 226.983566 171.93485 
L 226.983566 176.177491 
L 231.226207 176.177491 
L 231.226207 171.93485 
z
" style="fill:#a7226e;stroke:#ffffff;stroke-width:0.48;"/>
    <path clip-path="url(#p58075454df)" d="M 233.747202 194.58268 
L 233.747202 198.82532 
L 237.989843 198.82532 
L 237.989843 194.58268 
z
" style="fill:#a7226e;stroke:#ffffff;stroke-width:0.48;"/>
    <path clip-path="url(#p58075454df)" d="M 240.510839 198.003446 
L 240.510839 202.246086 
L 244.753479 202.246086 
L 244.753479 198.003446 
z
" style="fill:#a7226e;stroke:#ffffff;stroke-width:0.48;"/>
    <path clip-path="url(#p58075454df)" d="M 247.274475 204.533999 
L 247.274475 208.776639 
L 251.517116 208.776639 
L 251.517116 204.533999 
z
" style="fill:#a7226e;stroke:#ffffff;stroke-width:0.48;"/>
    <path clip-path="url(#p58075454df)" d="M 254.038111 204.533999 
L 254.038111 208.776639 
L 258.280752 208.776639 
L 258.280752 204.533999 
z
" style="fill:#a7226e;stroke:#ffffff;stroke-width:0.48;"/>
    <path clip-path="url(#p58075454df)" d="M 260.801748 204.533999 
L 260.801748 208.776639 
L 265.044389 208.776639 
L 265.044389 204.533999 
z
" style="fill:#a7226e;stroke:#ffffff;stroke-width:0.48;"/>
    <path clip-path="url(#p58075454df)" d="M 267.565384 204.533999 
L 267.565384 208.776639 
L 271.808025 208.776639 
L 271.808025 204.533999 
z
" style="fill:#a7226e;stroke:#ffffff;stroke-width:0.48;"/>
    <path clip-path="url(#p58075454df)" d="M 274.329021 204.533999 
L 274.329021 208.776639 
L 278.571661 208.776639 
L 278.571661 204.533999 
z
" style="fill:#a7226e;stroke:#ffffff;stroke-width:0.48;"/>
    <path clip-path="url(#p58075454df)" d="M 281.092657 195.526339 
L 281.092657 199.76898 
L 285.335298 199.76898 
L 285.335298 195.526339 
z
" style="fill:#a7226e;stroke:#ffffff;stroke-width:0.48;"/>
    <path clip-path="url(#p58075454df)" d="M 287.856293 195.526339 
L 287.856293 199.76898 
L 292.098934 199.76898 
L 292.098934 195.526339 
z
" style="fill:#a7226e;stroke:#ffffff;stroke-width:0.48;"/>
    <path clip-path="url(#p58075454df)" d="M 294.61993 195.526339 
L 294.61993 199.76898 
L 298.86257 199.76898 
L 298.86257 195.526339 
z
" style="fill:#a7226e;stroke:#ffffff;stroke-width:0.48;"/>
    <path clip-path="url(#p58075454df)" d="M 301.383566 195.526339 
L 301.383566 199.76898 
L 305.626207 199.76898 
L 305.626207 195.526339 
z
" style="fill:#a7226e;stroke:#ffffff;stroke-width:0.48;"/>
    <path clip-path="url(#p58075454df)" d="M 308.147202 195.526339 
L 308.147202 199.76898 
L 312.389843 199.76898 
L 312.389843 195.526339 
z
" style="fill:#a7226e;stroke:#ffffff;stroke-width:0.48;"/>
    <path clip-path="url(#p58075454df)" d="M 314.910839 195.526339 
L 314.910839 199.76898 
L 319.153479 199.76898 
L 319.153479 195.526339 
z
" style="fill:#a7226e;stroke:#ffffff;stroke-width:0.48;"/>
    <path clip-path="url(#p58075454df)" d="M 321.674475 195.526339 
L 321.674475 199.76898 
L 325.917116 199.76898 
L 325.917116 195.526339 
z
" style="fill:#a7226e;stroke:#ffffff;stroke-width:0.48;"/>
    <path clip-path="url(#p58075454df)" d="M 328.438111 195.526339 
L 328.438111 199.76898 
L 332.680752 199.76898 
L 332.680752 195.526339 
z
" style="fill:#a7226e;stroke:#ffffff;stroke-width:0.48;"/>
    <path clip-path="url(#p58075454df)" d="M 335.201748 195.526339 
L 335.201748 199.76898 
L 339.444389 199.76898 
L 339.444389 195.526339 
z
" style="fill:#a7226e;stroke:#ffffff;stroke-width:0.48;"/>
    <path clip-path="url(#p58075454df)" d="M 341.965384 195.526339 
L 341.965384 199.76898 
L 346.208025 199.76898 
L 346.208025 195.526339 
z
" style="fill:#a7226e;stroke:#ffffff;stroke-width:0.48;"/>
    <path clip-path="url(#p58075454df)" d="M 348.729021 195.526339 
L 348.729021 199.76898 
L 352.971661 199.76898 
L 352.971661 195.526339 
z
" style="fill:#a7226e;stroke:#ffffff;stroke-width:0.48;"/>
    <path clip-path="url(#p58075454df)" d="M 355.492657 195.526339 
L 355.492657 199.76898 
L 359.735298 199.76898 
L 359.735298 195.526339 
z
" style="fill:#a7226e;stroke:#ffffff;stroke-width:0.48;"/>
    <path clip-path="url(#p58075454df)" d="M 362.256293 195.526339 
L 362.256293 199.76898 
L 366.498934 199.76898 
L 366.498934 195.526339 
z
" style="fill:#a7226e;stroke:#ffffff;stroke-width:0.48;"/>
    <path clip-path="url(#p58075454df)" d="M 369.01993 195.526339 
L 369.01993 199.76898 
L 373.26257 199.76898 
L 373.26257 195.526339 
z
" style="fill:#a7226e;stroke:#ffffff;stroke-width:0.48;"/>
    <path clip-path="url(#p58075454df)" d="M 375.783566 195.526339 
L 375.783566 199.76898 
L 380.026207 199.76898 
L 380.026207 195.526339 
z
" style="fill:#a7226e;stroke:#ffffff;stroke-width:0.48;"/>
    <path clip-path="url(#p58075454df)" d="M 382.547202 195.526339 
L 382.547202 199.76898 
L 386.789843 199.76898 
L 386.789843 195.526339 
z
" style="fill:#a7226e;stroke:#ffffff;stroke-width:0.48;"/>
   </g>
   <g id="PathCollection_2"/>
   <g id="PathCollection_3"/>
   <g id="PathCollection_4"/>
   <g id="matplotlib.axis_1">
    <g id="xtick_1">
     <g id="line2d_1">
      <defs>
       <path d="M 0 0 
L 0 3.5 
" id="m6a47f06393" style="stroke:#000000;stroke-width:0.8;"/>
      </defs>
      <g>
       <use style="stroke:#000000;stroke-width:0.8;" x="53.250341" xlink:href="#m6a47f06393" y="273.312"/>
      </g>
     </g>
     <g id="text_1">
      <!-- 0.0 -->
      <g transform="translate(45.298778 287.910437)scale(0.1 -0.1)">
       <defs>
        <path d="M 31.78125 66.40625 
Q 24.171875 66.40625 20.328125 58.90625 
Q 16.5 51.421875 16.5 36.375 
Q 16.5 21.390625 20.328125 13.890625 
Q 24.171875 6.390625 31.78125 6.390625 
Q 39.453125 6.390625 43.28125 13.890625 
Q 47.125 21.390625 47.125 36.375 
Q 47.125 51.421875 43.28125 58.90625 
Q 39.453125 66.40625 31.78125 66.40625 
z
M 31.78125 74.21875 
Q 44.046875 74.21875 50.515625 64.515625 
Q 56.984375 54.828125 56.984375 36.375 
Q 56.984375 17.96875 50.515625 8.265625 
Q 44.046875 -1.421875 31.78125 -1.421875 
Q 19.53125 -1.421875 13.0625 8.265625 
Q 6.59375 17.96875 6.59375 36.375 
Q 6.59375 54.828125 13.0625 64.515625 
Q 19.53125 74.21875 31.78125 74.21875 
z
" id="DejaVuSans-48"/>
        <path d="M 10.6875 12.40625 
L 21 12.40625 
L 21 0 
L 10.6875 0 
z
" id="DejaVuSans-46"/>
       </defs>
       <use xlink:href="#DejaVuSans-48"/>
       <use x="63.623047" xlink:href="#DejaVuSans-46"/>
       <use x="95.410156" xlink:href="#DejaVuSans-48"/>
      </g>
     </g>
    </g>
    <g id="xtick_2">
     <g id="line2d_2">
      <g>
       <use style="stroke:#000000;stroke-width:0.8;" x="120.886705" xlink:href="#m6a47f06393" y="273.312"/>
      </g>
     </g>
     <g id="text_2">
      <!-- 0.2 -->
      <g transform="translate(112.935142 287.910437)scale(0.1 -0.1)">
       <defs>
        <path d="M 19.1875 8.296875 
L 53.609375 8.296875 
L 53.609375 0 
L 7.328125 0 
L 7.328125 8.296875 
Q 12.9375 14.109375 22.625 23.890625 
Q 32.328125 33.6875 34.8125 36.53125 
Q 39.546875 41.84375 41.421875 45.53125 
Q 43.3125 49.21875 43.3125 52.78125 
Q 43.3125 58.59375 39.234375 62.25 
Q 35.15625 65.921875 28.609375 65.921875 
Q 23.96875 65.921875 18.8125 64.3125 
Q 13.671875 62.703125 7.8125 59.421875 
L 7.8125 69.390625 
Q 13.765625 71.78125 18.9375 73 
Q 24.125 74.21875 28.421875 74.21875 
Q 39.75 74.21875 46.484375 68.546875 
Q 53.21875 62.890625 53.21875 53.421875 
Q 53.21875 48.921875 51.53125 44.890625 
Q 49.859375 40.875 45.40625 35.40625 
Q 44.1875 33.984375 37.640625 27.21875 
Q 31.109375 20.453125 19.1875 8.296875 
z
" id="DejaVuSans-50"/>
       </defs>
       <use xlink:href="#DejaVuSans-48"/>
       <use x="63.623047" xlink:href="#DejaVuSans-46"/>
       <use x="95.410156" xlink:href="#DejaVuSans-50"/>
      </g>
     </g>
    </g>
    <g id="xtick_3">
     <g id="line2d_3">
      <g>
       <use style="stroke:#000000;stroke-width:0.8;" x="188.523068" xlink:href="#m6a47f06393" y="273.312"/>
      </g>
     </g>
     <g id="text_3">
      <!-- 0.4 -->
      <g transform="translate(180.571506 287.910437)scale(0.1 -0.1)">
       <defs>
        <path d="M 37.796875 64.3125 
L 12.890625 25.390625 
L 37.796875 25.390625 
z
M 35.203125 72.90625 
L 47.609375 72.90625 
L 47.609375 25.390625 
L 58.015625 25.390625 
L 58.015625 17.1875 
L 47.609375 17.1875 
L 47.609375 0 
L 37.796875 0 
L 37.796875 17.1875 
L 4.890625 17.1875 
L 4.890625 26.703125 
z
" id="DejaVuSans-52"/>
       </defs>
       <use xlink:href="#DejaVuSans-48"/>
       <use x="63.623047" xlink:href="#DejaVuSans-46"/>
       <use x="95.410156" xlink:href="#DejaVuSans-52"/>
      </g>
     </g>
    </g>
    <g id="xtick_4">
     <g id="line2d_4">
      <g>
       <use style="stroke:#000000;stroke-width:0.8;" x="256.159432" xlink:href="#m6a47f06393" y="273.312"/>
      </g>
     </g>
     <g id="text_4">
      <!-- 0.6 -->
      <g transform="translate(248.207869 287.910437)scale(0.1 -0.1)">
       <defs>
        <path d="M 33.015625 40.375 
Q 26.375 40.375 22.484375 35.828125 
Q 18.609375 31.296875 18.609375 23.390625 
Q 18.609375 15.53125 22.484375 10.953125 
Q 26.375 6.390625 33.015625 6.390625 
Q 39.65625 6.390625 43.53125 10.953125 
Q 47.40625 15.53125 47.40625 23.390625 
Q 47.40625 31.296875 43.53125 35.828125 
Q 39.65625 40.375 33.015625 40.375 
z
M 52.59375 71.296875 
L 52.59375 62.3125 
Q 48.875 64.0625 45.09375 64.984375 
Q 41.3125 65.921875 37.59375 65.921875 
Q 27.828125 65.921875 22.671875 59.328125 
Q 17.53125 52.734375 16.796875 39.40625 
Q 19.671875 43.65625 24.015625 45.921875 
Q 28.375 48.1875 33.59375 48.1875 
Q 44.578125 48.1875 50.953125 41.515625 
Q 57.328125 34.859375 57.328125 23.390625 
Q 57.328125 12.15625 50.6875 5.359375 
Q 44.046875 -1.421875 33.015625 -1.421875 
Q 20.359375 -1.421875 13.671875 8.265625 
Q 6.984375 17.96875 6.984375 36.375 
Q 6.984375 53.65625 15.1875 63.9375 
Q 23.390625 74.21875 37.203125 74.21875 
Q 40.921875 74.21875 44.703125 73.484375 
Q 48.484375 72.75 52.59375 71.296875 
z
" id="DejaVuSans-54"/>
       </defs>
       <use xlink:href="#DejaVuSans-48"/>
       <use x="63.623047" xlink:href="#DejaVuSans-46"/>
       <use x="95.410156" xlink:href="#DejaVuSans-54"/>
      </g>
     </g>
    </g>
    <g id="xtick_5">
     <g id="line2d_5">
      <g>
       <use style="stroke:#000000;stroke-width:0.8;" x="323.795795" xlink:href="#m6a47f06393" y="273.312"/>
      </g>
     </g>
     <g id="text_5">
      <!-- 0.8 -->
      <g transform="translate(315.844233 287.910437)scale(0.1 -0.1)">
       <defs>
        <path d="M 31.78125 34.625 
Q 24.75 34.625 20.71875 30.859375 
Q 16.703125 27.09375 16.703125 20.515625 
Q 16.703125 13.921875 20.71875 10.15625 
Q 24.75 6.390625 31.78125 6.390625 
Q 38.8125 6.390625 42.859375 10.171875 
Q 46.921875 13.96875 46.921875 20.515625 
Q 46.921875 27.09375 42.890625 30.859375 
Q 38.875 34.625 31.78125 34.625 
z
M 21.921875 38.8125 
Q 15.578125 40.375 12.03125 44.71875 
Q 8.5 49.078125 8.5 55.328125 
Q 8.5 64.0625 14.71875 69.140625 
Q 20.953125 74.21875 31.78125 74.21875 
Q 42.671875 74.21875 48.875 69.140625 
Q 55.078125 64.0625 55.078125 55.328125 
Q 55.078125 49.078125 51.53125 44.71875 
Q 48 40.375 41.703125 38.8125 
Q 48.828125 37.15625 52.796875 32.3125 
Q 56.78125 27.484375 56.78125 20.515625 
Q 56.78125 9.90625 50.3125 4.234375 
Q 43.84375 -1.421875 31.78125 -1.421875 
Q 19.734375 -1.421875 13.25 4.234375 
Q 6.78125 9.90625 6.78125 20.515625 
Q 6.78125 27.484375 10.78125 32.3125 
Q 14.796875 37.15625 21.921875 38.8125 
z
M 18.3125 54.390625 
Q 18.3125 48.734375 21.84375 45.5625 
Q 25.390625 42.390625 31.78125 42.390625 
Q 38.140625 42.390625 41.71875 45.5625 
Q 45.3125 48.734375 45.3125 54.390625 
Q 45.3125 60.0625 41.71875 63.234375 
Q 38.140625 66.40625 31.78125 66.40625 
Q 25.390625 66.40625 21.84375 63.234375 
Q 18.3125 60.0625 18.3125 54.390625 
z
" id="DejaVuSans-56"/>
       </defs>
       <use xlink:href="#DejaVuSans-48"/>
       <use x="63.623047" xlink:href="#DejaVuSans-46"/>
       <use x="95.410156" xlink:href="#DejaVuSans-56"/>
      </g>
     </g>
    </g>
    <g id="xtick_6">
     <g id="line2d_6">
      <g>
       <use style="stroke:#000000;stroke-width:0.8;" x="391.432159" xlink:href="#m6a47f06393" y="273.312"/>
      </g>
     </g>
     <g id="text_6">
      <!-- 1.0 -->
      <g transform="translate(383.480597 287.910437)scale(0.1 -0.1)">
       <defs>
        <path d="M 12.40625 8.296875 
L 28.515625 8.296875 
L 28.515625 63.921875 
L 10.984375 60.40625 
L 10.984375 69.390625 
L 28.421875 72.90625 
L 38.28125 72.90625 
L 38.28125 8.296875 
L 54.390625 8.296875 
L 54.390625 0 
L 12.40625 0 
z
" id="DejaVuSans-49"/>
       </defs>
       <use xlink:href="#DejaVuSans-49"/>
       <use x="63.623047" xlink:href="#DejaVuSans-46"/>
       <use x="95.410156" xlink:href="#DejaVuSans-48"/>
      </g>
     </g>
    </g>
    <g id="text_7">
     <!-- cutoff -->
     <g transform="translate(207.883438 301.588562)scale(0.1 -0.1)">
      <defs>
       <path d="M 48.78125 52.59375 
L 48.78125 44.1875 
Q 44.96875 46.296875 41.140625 47.34375 
Q 37.3125 48.390625 33.40625 48.390625 
Q 24.65625 48.390625 19.8125 42.84375 
Q 14.984375 37.3125 14.984375 27.296875 
Q 14.984375 17.28125 19.8125 11.734375 
Q 24.65625 6.203125 33.40625 6.203125 
Q 37.3125 6.203125 41.140625 7.25 
Q 44.96875 8.296875 48.78125 10.40625 
L 48.78125 2.09375 
Q 45.015625 0.34375 40.984375 -0.53125 
Q 36.96875 -1.421875 32.421875 -1.421875 
Q 20.0625 -1.421875 12.78125 6.34375 
Q 5.515625 14.109375 5.515625 27.296875 
Q 5.515625 40.671875 12.859375 48.328125 
Q 20.21875 56 33.015625 56 
Q 37.15625 56 41.109375 55.140625 
Q 45.0625 54.296875 48.78125 52.59375 
z
" id="DejaVuSans-99"/>
       <path d="M 8.5 21.578125 
L 8.5 54.6875 
L 17.484375 54.6875 
L 17.484375 21.921875 
Q 17.484375 14.15625 20.5 10.265625 
Q 23.53125 6.390625 29.59375 6.390625 
Q 36.859375 6.390625 41.078125 11.03125 
Q 45.3125 15.671875 45.3125 23.6875 
L 45.3125 54.6875 
L 54.296875 54.6875 
L 54.296875 0 
L 45.3125 0 
L 45.3125 8.40625 
Q 42.046875 3.421875 37.71875 1 
Q 33.40625 -1.421875 27.6875 -1.421875 
Q 18.265625 -1.421875 13.375 4.4375 
Q 8.5 10.296875 8.5 21.578125 
z
M 31.109375 56 
z
" id="DejaVuSans-117"/>
       <path d="M 18.3125 70.21875 
L 18.3125 54.6875 
L 36.8125 54.6875 
L 36.8125 47.703125 
L 18.3125 47.703125 
L 18.3125 18.015625 
Q 18.3125 11.328125 20.140625 9.421875 
Q 21.96875 7.515625 27.59375 7.515625 
L 36.8125 7.515625 
L 36.8125 0 
L 27.59375 0 
Q 17.1875 0 13.234375 3.875 
Q 9.28125 7.765625 9.28125 18.015625 
L 9.28125 47.703125 
L 2.6875 47.703125 
L 2.6875 54.6875 
L 9.28125 54.6875 
L 9.28125 70.21875 
z
" id="DejaVuSans-116"/>
       <path d="M 30.609375 48.390625 
Q 23.390625 48.390625 19.1875 42.75 
Q 14.984375 37.109375 14.984375 27.296875 
Q 14.984375 17.484375 19.15625 11.84375 
Q 23.34375 6.203125 30.609375 6.203125 
Q 37.796875 6.203125 41.984375 11.859375 
Q 46.1875 17.53125 46.1875 27.296875 
Q 46.1875 37.015625 41.984375 42.703125 
Q 37.796875 48.390625 30.609375 48.390625 
z
M 30.609375 56 
Q 42.328125 56 49.015625 48.375 
Q 55.71875 40.765625 55.71875 27.296875 
Q 55.71875 13.875 49.015625 6.21875 
Q 42.328125 -1.421875 30.609375 -1.421875 
Q 18.84375 -1.421875 12.171875 6.21875 
Q 5.515625 13.875 5.515625 27.296875 
Q 5.515625 40.765625 12.171875 48.375 
Q 18.84375 56 30.609375 56 
z
" id="DejaVuSans-111"/>
       <path d="M 37.109375 75.984375 
L 37.109375 68.5 
L 28.515625 68.5 
Q 23.6875 68.5 21.796875 66.546875 
Q 19.921875 64.59375 19.921875 59.515625 
L 19.921875 54.6875 
L 34.71875 54.6875 
L 34.71875 47.703125 
L 19.921875 47.703125 
L 19.921875 0 
L 10.890625 0 
L 10.890625 47.703125 
L 2.296875 47.703125 
L 2.296875 54.6875 
L 10.890625 54.6875 
L 10.890625 58.5 
Q 10.890625 67.625 15.140625 71.796875 
Q 19.390625 75.984375 28.609375 75.984375 
z
" id="DejaVuSans-102"/>
      </defs>
      <use xlink:href="#DejaVuSans-99"/>
      <use x="54.980469" xlink:href="#DejaVuSans-117"/>
      <use x="118.359375" xlink:href="#DejaVuSans-116"/>
      <use x="157.568359" xlink:href="#DejaVuSans-111"/>
      <use x="218.75" xlink:href="#DejaVuSans-102"/>
      <use x="253.955078" xlink:href="#DejaVuSans-102"/>
     </g>
    </g>
   </g>
   <g id="matplotlib.axis_2">
    <g id="ytick_1">
     <g id="line2d_7">
      <defs>
       <path d="M 0 0 
L -3.5 0 
" id="m802eb3aa84" style="stroke:#000000;stroke-width:0.8;"/>
      </defs>
      <g>
       <use style="stroke:#000000;stroke-width:0.8;" x="43.78125" xlink:href="#m802eb3aa84" y="272.951694"/>
      </g>
     </g>
     <g id="text_8">
      <!-- 0.3 -->
      <g transform="translate(20.878125 276.750912)scale(0.1 -0.1)">
       <defs>
        <path d="M 40.578125 39.3125 
Q 47.65625 37.796875 51.625 33 
Q 55.609375 28.21875 55.609375 21.1875 
Q 55.609375 10.40625 48.1875 4.484375 
Q 40.765625 -1.421875 27.09375 -1.421875 
Q 22.515625 -1.421875 17.65625 -0.515625 
Q 12.796875 0.390625 7.625 2.203125 
L 7.625 11.71875 
Q 11.71875 9.328125 16.59375 8.109375 
Q 21.484375 6.890625 26.8125 6.890625 
Q 36.078125 6.890625 40.9375 10.546875 
Q 45.796875 14.203125 45.796875 21.1875 
Q 45.796875 27.640625 41.28125 31.265625 
Q 36.765625 34.90625 28.71875 34.90625 
L 20.21875 34.90625 
L 20.21875 43.015625 
L 29.109375 43.015625 
Q 36.375 43.015625 40.234375 45.921875 
Q 44.09375 48.828125 44.09375 54.296875 
Q 44.09375 59.90625 40.109375 62.90625 
Q 36.140625 65.921875 28.71875 65.921875 
Q 24.65625 65.921875 20.015625 65.03125 
Q 15.375 64.15625 9.8125 62.3125 
L 9.8125 71.09375 
Q 15.4375 72.65625 20.34375 73.4375 
Q 25.25 74.21875 29.59375 74.21875 
Q 40.828125 74.21875 47.359375 69.109375 
Q 53.90625 64.015625 53.90625 55.328125 
Q 53.90625 49.265625 50.4375 45.09375 
Q 46.96875 40.921875 40.578125 39.3125 
z
" id="DejaVuSans-51"/>
       </defs>
       <use xlink:href="#DejaVuSans-48"/>
       <use x="63.623047" xlink:href="#DejaVuSans-46"/>
       <use x="95.410156" xlink:href="#DejaVuSans-51"/>
      </g>
     </g>
    </g>
    <g id="ytick_2">
     <g id="line2d_8">
      <g>
       <use style="stroke:#000000;stroke-width:0.8;" x="43.78125" xlink:href="#m802eb3aa84" y="225.391251"/>
      </g>
     </g>
     <g id="text_9">
      <!-- 0.4 -->
      <g transform="translate(20.878125 229.19047)scale(0.1 -0.1)">
       <use xlink:href="#DejaVuSans-48"/>
       <use x="63.623047" xlink:href="#DejaVuSans-46"/>
       <use x="95.410156" xlink:href="#DejaVuSans-52"/>
      </g>
     </g>
    </g>
    <g id="ytick_3">
     <g id="line2d_9">
      <g>
       <use style="stroke:#000000;stroke-width:0.8;" x="43.78125" xlink:href="#m802eb3aa84" y="177.830809"/>
      </g>
     </g>
     <g id="text_10">
      <!-- 0.5 -->
      <g transform="translate(20.878125 181.630027)scale(0.1 -0.1)">
       <defs>
        <path d="M 10.796875 72.90625 
L 49.515625 72.90625 
L 49.515625 64.59375 
L 19.828125 64.59375 
L 19.828125 46.734375 
Q 21.96875 47.46875 24.109375 47.828125 
Q 26.265625 48.1875 28.421875 48.1875 
Q 40.625 48.1875 47.75 41.5 
Q 54.890625 34.8125 54.890625 23.390625 
Q 54.890625 11.625 47.5625 5.09375 
Q 40.234375 -1.421875 26.90625 -1.421875 
Q 22.3125 -1.421875 17.546875 -0.640625 
Q 12.796875 0.140625 7.71875 1.703125 
L 7.71875 11.625 
Q 12.109375 9.234375 16.796875 8.0625 
Q 21.484375 6.890625 26.703125 6.890625 
Q 35.15625 6.890625 40.078125 11.328125 
Q 45.015625 15.765625 45.015625 23.390625 
Q 45.015625 31 40.078125 35.4375 
Q 35.15625 39.890625 26.703125 39.890625 
Q 22.75 39.890625 18.8125 39.015625 
Q 14.890625 38.140625 10.796875 36.28125 
z
" id="DejaVuSans-53"/>
       </defs>
       <use xlink:href="#DejaVuSans-48"/>
       <use x="63.623047" xlink:href="#DejaVuSans-46"/>
       <use x="95.410156" xlink:href="#DejaVuSans-53"/>
      </g>
     </g>
    </g>
    <g id="ytick_4">
     <g id="line2d_10">
      <g>
       <use style="stroke:#000000;stroke-width:0.8;" x="43.78125" xlink:href="#m802eb3aa84" y="130.270366"/>
      </g>
     </g>
     <g id="text_11">
      <!-- 0.6 -->
      <g transform="translate(20.878125 134.069585)scale(0.1 -0.1)">
       <use xlink:href="#DejaVuSans-48"/>
       <use x="63.623047" xlink:href="#DejaVuSans-46"/>
       <use x="95.410156" xlink:href="#DejaVuSans-54"/>
      </g>
     </g>
    </g>
    <g id="ytick_5">
     <g id="line2d_11">
      <g>
       <use style="stroke:#000000;stroke-width:0.8;" x="43.78125" xlink:href="#m802eb3aa84" y="82.709923"/>
      </g>
     </g>
     <g id="text_12">
      <!-- 0.7 -->
      <g transform="translate(20.878125 86.509142)scale(0.1 -0.1)">
       <defs>
        <path d="M 8.203125 72.90625 
L 55.078125 72.90625 
L 55.078125 68.703125 
L 28.609375 0 
L 18.3125 0 
L 43.21875 64.59375 
L 8.203125 64.59375 
z
" id="DejaVuSans-55"/>
       </defs>
       <use xlink:href="#DejaVuSans-48"/>
       <use x="63.623047" xlink:href="#DejaVuSans-46"/>
       <use x="95.410156" xlink:href="#DejaVuSans-55"/>
      </g>
     </g>
    </g>
    <g id="ytick_6">
     <g id="line2d_12">
      <g>
       <use style="stroke:#000000;stroke-width:0.8;" x="43.78125" xlink:href="#m802eb3aa84" y="35.149481"/>
      </g>
     </g>
     <g id="text_13">
      <!-- 0.8 -->
      <g transform="translate(20.878125 38.9487)scale(0.1 -0.1)">
       <use xlink:href="#DejaVuSans-48"/>
       <use x="63.623047" xlink:href="#DejaVuSans-46"/>
       <use x="95.410156" xlink:href="#DejaVuSans-56"/>
      </g>
     </g>
    </g>
    <g id="text_14">
     <!-- performance -->
     <g transform="translate(14.798438 172.278656)rotate(-90)scale(0.1 -0.1)">
      <defs>
       <path d="M 18.109375 8.203125 
L 18.109375 -20.796875 
L 9.078125 -20.796875 
L 9.078125 54.6875 
L 18.109375 54.6875 
L 18.109375 46.390625 
Q 20.953125 51.265625 25.265625 53.625 
Q 29.59375 56 35.59375 56 
Q 45.5625 56 51.78125 48.09375 
Q 58.015625 40.1875 58.015625 27.296875 
Q 58.015625 14.40625 51.78125 6.484375 
Q 45.5625 -1.421875 35.59375 -1.421875 
Q 29.59375 -1.421875 25.265625 0.953125 
Q 20.953125 3.328125 18.109375 8.203125 
z
M 48.6875 27.296875 
Q 48.6875 37.203125 44.609375 42.84375 
Q 40.53125 48.484375 33.40625 48.484375 
Q 26.265625 48.484375 22.1875 42.84375 
Q 18.109375 37.203125 18.109375 27.296875 
Q 18.109375 17.390625 22.1875 11.75 
Q 26.265625 6.109375 33.40625 6.109375 
Q 40.53125 6.109375 44.609375 11.75 
Q 48.6875 17.390625 48.6875 27.296875 
z
" id="DejaVuSans-112"/>
       <path d="M 56.203125 29.59375 
L 56.203125 25.203125 
L 14.890625 25.203125 
Q 15.484375 15.921875 20.484375 11.0625 
Q 25.484375 6.203125 34.421875 6.203125 
Q 39.59375 6.203125 44.453125 7.46875 
Q 49.3125 8.734375 54.109375 11.28125 
L 54.109375 2.78125 
Q 49.265625 0.734375 44.1875 -0.34375 
Q 39.109375 -1.421875 33.890625 -1.421875 
Q 20.796875 -1.421875 13.15625 6.1875 
Q 5.515625 13.8125 5.515625 26.8125 
Q 5.515625 40.234375 12.765625 48.109375 
Q 20.015625 56 32.328125 56 
Q 43.359375 56 49.78125 48.890625 
Q 56.203125 41.796875 56.203125 29.59375 
z
M 47.21875 32.234375 
Q 47.125 39.59375 43.09375 43.984375 
Q 39.0625 48.390625 32.421875 48.390625 
Q 24.90625 48.390625 20.390625 44.140625 
Q 15.875 39.890625 15.1875 32.171875 
z
" id="DejaVuSans-101"/>
       <path d="M 41.109375 46.296875 
Q 39.59375 47.171875 37.8125 47.578125 
Q 36.03125 48 33.890625 48 
Q 26.265625 48 22.1875 43.046875 
Q 18.109375 38.09375 18.109375 28.8125 
L 18.109375 0 
L 9.078125 0 
L 9.078125 54.6875 
L 18.109375 54.6875 
L 18.109375 46.1875 
Q 20.953125 51.171875 25.484375 53.578125 
Q 30.03125 56 36.53125 56 
Q 37.453125 56 38.578125 55.875 
Q 39.703125 55.765625 41.0625 55.515625 
z
" id="DejaVuSans-114"/>
       <path d="M 52 44.1875 
Q 55.375 50.25 60.0625 53.125 
Q 64.75 56 71.09375 56 
Q 79.640625 56 84.28125 50.015625 
Q 88.921875 44.046875 88.921875 33.015625 
L 88.921875 0 
L 79.890625 0 
L 79.890625 32.71875 
Q 79.890625 40.578125 77.09375 44.375 
Q 74.3125 48.1875 68.609375 48.1875 
Q 61.625 48.1875 57.5625 43.546875 
Q 53.515625 38.921875 53.515625 30.90625 
L 53.515625 0 
L 44.484375 0 
L 44.484375 32.71875 
Q 44.484375 40.625 41.703125 44.40625 
Q 38.921875 48.1875 33.109375 48.1875 
Q 26.21875 48.1875 22.15625 43.53125 
Q 18.109375 38.875 18.109375 30.90625 
L 18.109375 0 
L 9.078125 0 
L 9.078125 54.6875 
L 18.109375 54.6875 
L 18.109375 46.1875 
Q 21.1875 51.21875 25.484375 53.609375 
Q 29.78125 56 35.6875 56 
Q 41.65625 56 45.828125 52.96875 
Q 50 49.953125 52 44.1875 
z
" id="DejaVuSans-109"/>
       <path d="M 34.28125 27.484375 
Q 23.390625 27.484375 19.1875 25 
Q 14.984375 22.515625 14.984375 16.5 
Q 14.984375 11.71875 18.140625 8.90625 
Q 21.296875 6.109375 26.703125 6.109375 
Q 34.1875 6.109375 38.703125 11.40625 
Q 43.21875 16.703125 43.21875 25.484375 
L 43.21875 27.484375 
z
M 52.203125 31.203125 
L 52.203125 0 
L 43.21875 0 
L 43.21875 8.296875 
Q 40.140625 3.328125 35.546875 0.953125 
Q 30.953125 -1.421875 24.3125 -1.421875 
Q 15.921875 -1.421875 10.953125 3.296875 
Q 6 8.015625 6 15.921875 
Q 6 25.140625 12.171875 29.828125 
Q 18.359375 34.515625 30.609375 34.515625 
L 43.21875 34.515625 
L 43.21875 35.40625 
Q 43.21875 41.609375 39.140625 45 
Q 35.0625 48.390625 27.6875 48.390625 
Q 23 48.390625 18.546875 47.265625 
Q 14.109375 46.140625 10.015625 43.890625 
L 10.015625 52.203125 
Q 14.9375 54.109375 19.578125 55.046875 
Q 24.21875 56 28.609375 56 
Q 40.484375 56 46.34375 49.84375 
Q 52.203125 43.703125 52.203125 31.203125 
z
" id="DejaVuSans-97"/>
       <path d="M 54.890625 33.015625 
L 54.890625 0 
L 45.90625 0 
L 45.90625 32.71875 
Q 45.90625 40.484375 42.875 44.328125 
Q 39.84375 48.1875 33.796875 48.1875 
Q 26.515625 48.1875 22.3125 43.546875 
Q 18.109375 38.921875 18.109375 30.90625 
L 18.109375 0 
L 9.078125 0 
L 9.078125 54.6875 
L 18.109375 54.6875 
L 18.109375 46.1875 
Q 21.34375 51.125 25.703125 53.5625 
Q 30.078125 56 35.796875 56 
Q 45.21875 56 50.046875 50.171875 
Q 54.890625 44.34375 54.890625 33.015625 
z
" id="DejaVuSans-110"/>
      </defs>
      <use xlink:href="#DejaVuSans-112"/>
      <use x="63.476562" xlink:href="#DejaVuSans-101"/>
      <use x="125" xlink:href="#DejaVuSans-114"/>
      <use x="166.113281" xlink:href="#DejaVuSans-102"/>
      <use x="201.318359" xlink:href="#DejaVuSans-111"/>
      <use x="262.5" xlink:href="#DejaVuSans-114"/>
      <use x="301.863281" xlink:href="#DejaVuSans-109"/>
      <use x="399.275391" xlink:href="#DejaVuSans-97"/>
      <use x="460.554688" xlink:href="#DejaVuSans-110"/>
      <use x="523.933594" xlink:href="#DejaVuSans-99"/>
      <use x="578.914062" xlink:href="#DejaVuSans-101"/>
     </g>
    </g>
   </g>
   <g id="line2d_13">
    <path clip-path="url(#p58075454df)" d="M 60.013977 19.296 
L 66.777614 37.090723 
L 73.54125 51.935519 
L 80.304886 58.929702 
L 87.068523 95.830045 
L 93.832159 101.250435 
L 100.595795 101.250435 
L 107.359432 98.563404 
L 114.123068 122.953375 
L 120.886705 150.54203 
L 127.650341 154.817691 
L 134.413977 162.48873 
L 141.177614 162.48873 
L 147.94125 177.830809 
L 154.704886 196.123286 
L 161.468523 196.123286 
L 168.232159 196.123286 
L 174.995795 199.449191 
L 181.759432 205.807539 
L 188.523068 205.807539 
L 195.286705 220.179148 
L 202.050341 220.179148 
L 208.813977 220.179148 
L 215.577614 220.179148 
L 222.34125 222.820416 
L 229.104886 216.962818 
L 235.868523 216.962818 
L 242.632159 216.962818 
L 249.395795 216.962818 
L 256.159432 216.962818 
L 262.923068 216.962818 
L 269.686705 216.962818 
L 276.450341 216.962818 
L 283.213977 216.962818 
L 289.977614 216.962818 
L 296.74125 216.962818 
L 303.504886 216.962818 
L 310.268523 216.962818 
L 317.032159 216.962818 
L 323.795795 216.962818 
L 330.559432 216.962818 
L 337.323068 216.962818 
L 344.086705 216.962818 
L 350.850341 216.962818 
L 357.613977 216.962818 
L 364.377614 216.962818 
L 371.14125 216.962818 
L 377.904886 216.962818 
L 384.668523 216.962818 
" style="fill:none;stroke:#f26b38;stroke-dasharray:7.4,3.2;stroke-dashoffset:0;stroke-width:2;"/>
   </g>
   <g id="line2d_14">
    <path clip-path="url(#p58075454df)" d="M 60.013977 116.462496 
L 66.777614 170.399489 
L 73.54125 170.399489 
L 80.304886 206.655319 
L 87.068523 228.070713 
L 93.832159 243.312577 
L 100.595795 243.312577 
L 107.359432 243.312577 
L 114.123068 245.774298 
L 120.886705 250.492596 
L 127.650341 261.216 
L 134.413977 261.216 
L 141.177614 261.216 
L 147.94125 261.216 
L 154.704886 261.216 
L 161.468523 261.216 
L 168.232159 247.064364 
L 174.995795 247.064364 
L 181.759432 247.064364 
L 188.523068 247.064364 
L 195.286705 247.064364 
L 202.050341 247.064364 
L 208.813977 247.064364 
L 215.577614 247.064364 
L 222.34125 247.064364 
L 229.104886 247.064364 
L 235.868523 247.064364 
L 242.632159 247.064364 
L 249.395795 247.064364 
L 256.159432 247.064364 
L 262.923068 247.064364 
L 269.686705 247.064364 
L 276.450341 247.064364 
L 283.213977 247.064364 
L 289.977614 247.064364 
L 296.74125 247.064364 
L 303.504886 247.064364 
L 310.268523 247.064364 
L 317.032159 247.064364 
L 323.795795 247.064364 
L 330.559432 247.064364 
L 337.323068 247.064364 
L 344.086705 247.064364 
L 350.850341 247.064364 
L 357.613977 247.064364 
L 364.377614 247.064364 
L 371.14125 247.064364 
L 377.904886 247.064364 
L 384.668523 247.064364 
" style="fill:none;stroke:#2f9599;stroke-dasharray:2,3.3;stroke-dashoffset:0;stroke-width:2;"/>
   </g>
   <g id="line2d_15">
    <path clip-path="url(#p58075454df)" d="M 60.013977 46.796936 
L 66.777614 46.796936 
L 73.54125 46.796936 
L 80.304886 46.796936 
L 87.068523 46.796936 
L 93.832159 46.796936 
L 100.595795 46.796936 
L 107.359432 63.685746 
L 114.123068 61.261096 
L 120.886705 68.075941 
L 127.650341 68.075941 
L 134.413977 68.075941 
L 141.177614 87.0336 
L 147.94125 92.901447 
L 154.704886 119.354855 
L 161.468523 119.354855 
L 168.232159 111.558061 
L 174.995795 111.558061 
L 181.759432 111.558061 
L 188.523068 103.761267 
L 195.286705 103.761267 
L 202.050341 145.030503 
L 208.813977 145.030503 
L 215.577614 153.23058 
L 222.34125 153.23058 
L 229.104886 174.05617 
L 235.868523 196.704 
L 242.632159 200.124766 
L 249.395795 206.655319 
L 256.159432 206.655319 
L 262.923068 206.655319 
L 269.686705 206.655319 
L 276.450341 206.655319 
L 283.213977 197.64766 
L 289.977614 197.64766 
L 296.74125 197.64766 
L 303.504886 197.64766 
L 310.268523 197.64766 
L 317.032159 197.64766 
L 323.795795 197.64766 
L 330.559432 197.64766 
L 337.323068 197.64766 
L 344.086705 197.64766 
L 350.850341 197.64766 
L 357.613977 197.64766 
L 364.377614 197.64766 
L 371.14125 197.64766 
L 377.904886 197.64766 
L 384.668523 197.64766 
" style="fill:none;stroke:#a7226e;stroke-dasharray:12.8,3.2,2,3.2;stroke-dashoffset:0;stroke-width:2;"/>
   </g>
   <g id="patch_3">
    <path d="M 43.78125 273.312 
L 43.78125 7.2 
" style="fill:none;stroke:#000000;stroke-linecap:square;stroke-linejoin:miter;stroke-width:0.8;"/>
   </g>
   <g id="patch_4">
    <path d="M 400.90125 273.312 
L 400.90125 7.2 
" style="fill:none;stroke:#000000;stroke-linecap:square;stroke-linejoin:miter;stroke-width:0.8;"/>
   </g>
   <g id="patch_5">
    <path d="M 43.78125 273.312 
L 400.90125 273.312 
" style="fill:none;stroke:#000000;stroke-linecap:square;stroke-linejoin:miter;stroke-width:0.8;"/>
   </g>
   <g id="patch_6">
    <path d="M 43.78125 7.2 
L 400.90125 7.2 
" style="fill:none;stroke:#000000;stroke-linecap:square;stroke-linejoin:miter;stroke-width:0.8;"/>
   </g>
   <g id="legend_1">
    <g id="patch_7">
     <path d="M 315.427559 43.890912 
L 396.04325 43.890912 
Q 397.43125 43.890912 397.43125 42.502912 
L 397.43125 12.058 
Q 397.43125 10.67 396.04325 10.67 
L 315.427559 10.67 
Q 314.039559 10.67 314.039559 12.058 
L 314.039559 42.502912 
Q 314.039559 43.890912 315.427559 43.890912 
z
" style="fill:#ffffff;opacity:0.8;stroke:#cccccc;stroke-linejoin:miter;"/>
    </g>
    <g id="PathCollection_5">
     <defs>
      <path d="M 0 3 
C 0.795609 3 1.55874 2.683901 2.12132 2.12132 
C 2.683901 1.55874 3 0.795609 3 0 
C 3 -0.795609 2.683901 -1.55874 2.12132 -2.12132 
C 1.55874 -2.683901 0.795609 -3 0 -3 
C -0.795609 -3 -1.55874 -2.683901 -2.12132 -2.12132 
C -2.683901 -1.55874 -3 -0.795609 -3 0 
C -3 0.795609 -2.683901 1.55874 -2.12132 2.12132 
C -1.55874 2.683901 -0.795609 3 0 3 
z
" id="mbdc703836a" style="stroke:#f26b38;"/>
     </defs>
     <g>
      <use style="fill:#f26b38;stroke:#f26b38;" x="323.755559" xlink:href="#mbdc703836a" y="16.897566"/>
     </g>
    </g>
    <g id="text_15">
     <!-- mean_err -->
     <g transform="translate(336.247559 18.719316)scale(0.0694 -0.0694)">
      <defs>
       <path d="M 50.984375 -16.609375 
L 50.984375 -23.578125 
L -0.984375 -23.578125 
L -0.984375 -16.609375 
z
" id="DejaVuSans-95"/>
      </defs>
      <use xlink:href="#DejaVuSans-109"/>
      <use x="97.412109" xlink:href="#DejaVuSans-101"/>
      <use x="158.935547" xlink:href="#DejaVuSans-97"/>
      <use x="220.214844" xlink:href="#DejaVuSans-110"/>
      <use x="283.59375" xlink:href="#DejaVuSans-95"/>
      <use x="333.59375" xlink:href="#DejaVuSans-101"/>
      <use x="395.117188" xlink:href="#DejaVuSans-114"/>
      <use x="434.480469" xlink:href="#DejaVuSans-114"/>
     </g>
    </g>
    <g id="PathCollection_6">
     <defs>
      <path d="M -1.5 3 
L 0 1.5 
L 1.5 3 
L 3 1.5 
L 1.5 0 
L 3 -1.5 
L 1.5 -3 
L 0 -1.5 
L -1.5 -3 
L -3 -1.5 
L -1.5 0 
L -3 1.5 
z
" id="m1bdec3e064" style="stroke:#2f9599;"/>
     </defs>
     <g>
      <use style="fill:#2f9599;stroke:#2f9599;" x="323.755559" xlink:href="#m1bdec3e064" y="27.277203"/>
     </g>
    </g>
    <g id="text_16">
     <!-- mean_sq_err -->
     <g transform="translate(336.247559 29.098953)scale(0.0694 -0.0694)">
      <defs>
       <path d="M 44.28125 53.078125 
L 44.28125 44.578125 
Q 40.484375 46.53125 36.375 47.5 
Q 32.28125 48.484375 27.875 48.484375 
Q 21.1875 48.484375 17.84375 46.4375 
Q 14.5 44.390625 14.5 40.28125 
Q 14.5 37.15625 16.890625 35.375 
Q 19.28125 33.59375 26.515625 31.984375 
L 29.59375 31.296875 
Q 39.15625 29.25 43.1875 25.515625 
Q 47.21875 21.78125 47.21875 15.09375 
Q 47.21875 7.46875 41.1875 3.015625 
Q 35.15625 -1.421875 24.609375 -1.421875 
Q 20.21875 -1.421875 15.453125 -0.5625 
Q 10.6875 0.296875 5.421875 2 
L 5.421875 11.28125 
Q 10.40625 8.6875 15.234375 7.390625 
Q 20.0625 6.109375 24.8125 6.109375 
Q 31.15625 6.109375 34.5625 8.28125 
Q 37.984375 10.453125 37.984375 14.40625 
Q 37.984375 18.0625 35.515625 20.015625 
Q 33.0625 21.96875 24.703125 23.78125 
L 21.578125 24.515625 
Q 13.234375 26.265625 9.515625 29.90625 
Q 5.8125 33.546875 5.8125 39.890625 
Q 5.8125 47.609375 11.28125 51.796875 
Q 16.75 56 26.8125 56 
Q 31.78125 56 36.171875 55.265625 
Q 40.578125 54.546875 44.28125 53.078125 
z
" id="DejaVuSans-115"/>
       <path d="M 14.796875 27.296875 
Q 14.796875 17.390625 18.875 11.75 
Q 22.953125 6.109375 30.078125 6.109375 
Q 37.203125 6.109375 41.296875 11.75 
Q 45.40625 17.390625 45.40625 27.296875 
Q 45.40625 37.203125 41.296875 42.84375 
Q 37.203125 48.484375 30.078125 48.484375 
Q 22.953125 48.484375 18.875 42.84375 
Q 14.796875 37.203125 14.796875 27.296875 
z
M 45.40625 8.203125 
Q 42.578125 3.328125 38.25 0.953125 
Q 33.9375 -1.421875 27.875 -1.421875 
Q 17.96875 -1.421875 11.734375 6.484375 
Q 5.515625 14.40625 5.515625 27.296875 
Q 5.515625 40.1875 11.734375 48.09375 
Q 17.96875 56 27.875 56 
Q 33.9375 56 38.25 53.625 
Q 42.578125 51.265625 45.40625 46.390625 
L 45.40625 54.6875 
L 54.390625 54.6875 
L 54.390625 -20.796875 
L 45.40625 -20.796875 
z
" id="DejaVuSans-113"/>
      </defs>
      <use xlink:href="#DejaVuSans-109"/>
      <use x="97.412109" xlink:href="#DejaVuSans-101"/>
      <use x="158.935547" xlink:href="#DejaVuSans-97"/>
      <use x="220.214844" xlink:href="#DejaVuSans-110"/>
      <use x="283.59375" xlink:href="#DejaVuSans-95"/>
      <use x="333.59375" xlink:href="#DejaVuSans-115"/>
      <use x="385.693359" xlink:href="#DejaVuSans-113"/>
      <use x="449.169922" xlink:href="#DejaVuSans-95"/>
      <use x="499.169922" xlink:href="#DejaVuSans-101"/>
      <use x="560.693359" xlink:href="#DejaVuSans-114"/>
      <use x="600.056641" xlink:href="#DejaVuSans-114"/>
     </g>
    </g>
    <g id="PathCollection_7">
     <defs>
      <path d="M -2.12132 -2.12132 
L -2.12132 2.12132 
L 2.12132 2.12132 
L 2.12132 -2.12132 
z
" id="m5e45d16f53" style="stroke:#a7226e;"/>
     </defs>
     <g>
      <use style="fill:#a7226e;stroke:#a7226e;" x="323.755559" xlink:href="#m5e45d16f53" y="37.656841"/>
     </g>
    </g>
    <g id="text_17">
     <!-- mean_sqroot_err -->
     <g transform="translate(336.247559 39.478591)scale(0.0694 -0.0694)">
      <use xlink:href="#DejaVuSans-109"/>
      <use x="97.412109" xlink:href="#DejaVuSans-101"/>
      <use x="158.935547" xlink:href="#DejaVuSans-97"/>
      <use x="220.214844" xlink:href="#DejaVuSans-110"/>
      <use x="283.59375" xlink:href="#DejaVuSans-95"/>
      <use x="333.59375" xlink:href="#DejaVuSans-115"/>
      <use x="385.693359" xlink:href="#DejaVuSans-113"/>
      <use x="449.169922" xlink:href="#DejaVuSans-114"/>
      <use x="488.033203" xlink:href="#DejaVuSans-111"/>
      <use x="549.214844" xlink:href="#DejaVuSans-111"/>
      <use x="610.396484" xlink:href="#DejaVuSans-116"/>
      <use x="649.605469" xlink:href="#DejaVuSans-95"/>
      <use x="699.605469" xlink:href="#DejaVuSans-101"/>
      <use x="761.128906" xlink:href="#DejaVuSans-114"/>
      <use x="800.492188" xlink:href="#DejaVuSans-114"/>
     </g>
    </g>
   </g>
  </g>
 </g>
 <defs>
  <clipPath id="p58075454df">
   <rect height="266.112" width="357.12" x="43.78125" y="7.2"/>
  </clipPath>
 </defs>
</svg>
