<?xml version="1.0" encoding="utf-8" standalone="no"?>
<!DOCTYPE svg PUBLIC "-//W3C//DTD SVG 1.1//EN"
  "http://www.w3.org/Graphics/SVG/1.1/DTD/svg11.dtd">
<!-- Created with matplotlib (https://matplotlib.org/) -->
<svg height="310.86825pt" version="1.1" viewBox="0 0 408.10125 310.86825" width="408.10125pt" xmlns="http://www.w3.org/2000/svg" xmlns:xlink="http://www.w3.org/1999/xlink">
 <metadata>
  <rdf:RDF xmlns:cc="http://creativecommons.org/ns#" xmlns:dc="http://purl.org/dc/elements/1.1/" xmlns:rdf="http://www.w3.org/1999/02/22-rdf-syntax-ns#">
   <cc:Work>
    <dc:type rdf:resource="http://purl.org/dc/dcmitype/StillImage"/>
    <dc:date>2022-05-27T21:31:34.876537</dc:date>
    <dc:format>image/svg+xml</dc:format>
    <dc:creator>
     <cc:Agent>
      <dc:title>Matplotlib v3.3.4, https://matplotlib.org/</dc:title>
     </cc:Agent>
    </dc:creator>
   </cc:Work>
  </rdf:RDF>
 </metadata>
 <defs>
  <style type="text/css">*{stroke-linecap:butt;stroke-linejoin:round;}</style>
 </defs>
 <g id="figure_1">
  <g id="patch_1">
   <path d="M 0 310.86825 
L 408.10125 310.86825 
L 408.10125 0 
L 0 0 
z
" style="fill:#ffffff;"/>
  </g>
  <g id="axes_1">
   <g id="patch_2">
    <path d="M 43.78125 273.312 
L 400.90125 273.312 
L 400.90125 7.2 
L 43.78125 7.2 
z
" style="fill:#ffffff;"/>
   </g>
   <g id="PathCollection_1">
    <path clip-path="url(#p0cf10ac09d)" d="M 60.013977 22.296 
C 60.809587 22.296 61.572717 21.979901 62.135298 21.41732 
C 62.697878 20.85474 63.013977 20.091609 63.013977 19.296 
C 63.013977 18.500391 62.697878 17.73726 62.135298 17.17468 
C 61.572717 16.612099 60.809587 16.296 60.013977 16.296 
C 59.218368 16.296 58.455238 16.612099 57.892657 17.17468 
C 57.330076 17.73726 57.013977 18.500391 57.013977 19.296 
C 57.013977 20.091609 57.330076 20.85474 57.892657 21.41732 
C 58.455238 21.979901 59.218368 22.296 60.013977 22.296 
z
" style="fill:#f26b38;stroke:#ffffff;stroke-width:0.48;"/>
    <path clip-path="url(#p0cf10ac09d)" d="M 66.777614 41.10531 
C 67.573223 41.10531 68.336353 40.789211 68.898934 40.22663 
C 69.461515 39.66405 69.777614 38.900919 69.777614 38.10531 
C 69.777614 37.309701 69.461515 36.54657 68.898934 35.98399 
C 68.336353 35.421409 67.573223 35.10531 66.777614 35.10531 
C 65.982004 35.10531 65.218874 35.421409 64.656293 35.98399 
C 64.093713 36.54657 63.777614 37.309701 63.777614 38.10531 
C 63.777614 38.900919 64.093713 39.66405 64.656293 40.22663 
C 65.218874 40.789211 65.982004 41.10531 66.777614 41.10531 
z
" style="fill:#f26b38;stroke:#ffffff;stroke-width:0.48;"/>
    <path clip-path="url(#p0cf10ac09d)" d="M 73.54125 56.796499 
C 74.336859 56.796499 75.09999 56.4804 75.66257 55.91782 
C 76.225151 55.355239 76.54125 54.592109 76.54125 53.796499 
C 76.54125 53.00089 76.225151 52.23776 75.66257 51.675179 
C 75.09999 51.112598 74.336859 50.796499 73.54125 50.796499 
C 72.745641 50.796499 71.98251 51.112598 71.41993 51.675179 
C 70.857349 52.23776 70.54125 53.00089 70.54125 53.796499 
C 70.54125 54.592109 70.857349 55.355239 71.41993 55.91782 
C 71.98251 56.4804 72.745641 56.796499 73.54125 56.796499 
z
" style="fill:#f26b38;stroke:#ffffff;stroke-width:0.48;"/>
    <path clip-path="url(#p0cf10ac09d)" d="M 80.304886 64.189463 
C 81.100496 64.189463 81.863626 63.873364 82.426207 63.310784 
C 82.988787 62.748203 83.304886 61.985073 83.304886 61.189463 
C 83.304886 60.393854 82.988787 59.630724 82.426207 59.068143 
C 81.863626 58.505562 81.100496 58.189463 80.304886 58.189463 
C 79.509277 58.189463 78.746147 58.505562 78.183566 59.068143 
C 77.620985 59.630724 77.304886 60.393854 77.304886 61.189463 
C 77.304886 61.985073 77.620985 62.748203 78.183566 63.310784 
C 78.746147 63.873364 79.509277 64.189463 80.304886 64.189463 
z
" style="fill:#f26b38;stroke:#ffffff;stroke-width:0.48;"/>
    <path clip-path="url(#p0cf10ac09d)" d="M 87.068523 103.193722 
C 87.864132 103.193722 88.627262 102.877624 89.189843 102.315043 
C 89.752424 101.752462 90.068523 100.989332 90.068523 100.193722 
C 90.068523 99.398113 89.752424 98.634983 89.189843 98.072402 
C 88.627262 97.509821 87.864132 97.193722 87.068523 97.193722 
C 86.272913 97.193722 85.509783 97.509821 84.947202 98.072402 
C 84.384622 98.634983 84.068523 99.398113 84.068523 100.193722 
C 84.068523 100.989332 84.384622 101.752462 84.947202 102.315043 
C 85.509783 102.877624 86.272913 103.193722 87.068523 103.193722 
z
" style="fill:#f26b38;stroke:#ffffff;stroke-width:0.48;"/>
    <path clip-path="url(#p0cf10ac09d)" d="M 93.832159 108.923162 
C 94.627768 108.923162 95.390899 108.607063 95.953479 108.044482 
C 96.51606 107.481901 96.832159 106.718771 96.832159 105.923162 
C 96.832159 105.127552 96.51606 104.364422 95.953479 103.801841 
C 95.390899 103.239261 94.627768 102.923162 93.832159 102.923162 
C 93.03655 102.923162 92.273419 103.239261 91.710839 103.801841 
C 91.148258 104.364422 90.832159 105.127552 90.832159 105.923162 
C 90.832159 106.718771 91.148258 107.481901 91.710839 108.044482 
C 92.273419 108.607063 93.03655 108.923162 93.832159 108.923162 
z
" style="fill:#f26b38;stroke:#ffffff;stroke-width:0.48;"/>
    <path clip-path="url(#p0cf10ac09d)" d="M 100.595795 108.923162 
C 101.391405 108.923162 102.154535 108.607063 102.717116 108.044482 
C 103.279697 107.481901 103.595795 106.718771 103.595795 105.923162 
C 103.595795 105.127552 103.279697 104.364422 102.717116 103.801841 
C 102.154535 103.239261 101.391405 102.923162 100.595795 102.923162 
C 99.800186 102.923162 99.037056 103.239261 98.474475 103.801841 
C 97.911894 104.364422 97.595795 105.127552 97.595795 105.923162 
C 97.595795 106.718771 97.911894 107.481901 98.474475 108.044482 
C 99.037056 108.607063 99.800186 108.923162 100.595795 108.923162 
z
" style="fill:#f26b38;stroke:#ffffff;stroke-width:0.48;"/>
    <path clip-path="url(#p0cf10ac09d)" d="M 107.359432 106.082927 
C 108.155041 106.082927 108.918171 105.766828 109.480752 105.204247 
C 110.043333 104.641666 110.359432 103.878536 110.359432 103.082927 
C 110.359432 102.287318 110.043333 101.524187 109.480752 100.961606 
C 108.918171 100.399026 108.155041 100.082927 107.359432 100.082927 
C 106.563823 100.082927 105.800692 100.399026 105.238111 100.961606 
C 104.675531 101.524187 104.359432 102.287318 104.359432 103.082927 
C 104.359432 103.878536 104.675531 104.641666 105.238111 105.204247 
C 105.800692 105.766828 106.563823 106.082927 107.359432 106.082927 
z
" style="fill:#f26b38;stroke:#ffffff;stroke-width:0.48;"/>
    <path clip-path="url(#p0cf10ac09d)" d="M 114.123068 131.86352 
C 114.918677 131.86352 115.681808 131.547421 116.244389 130.98484 
C 116.806969 130.422259 117.123068 129.659129 117.123068 128.86352 
C 117.123068 128.06791 116.806969 127.30478 116.244389 126.742199 
C 115.681808 126.179619 114.918677 125.86352 114.123068 125.86352 
C 113.327459 125.86352 112.564329 126.179619 112.001748 126.742199 
C 111.439167 127.30478 111.123068 128.06791 111.123068 128.86352 
C 111.123068 129.659129 111.439167 130.422259 112.001748 130.98484 
C 112.564329 131.547421 113.327459 131.86352 114.123068 131.86352 
z
" style="fill:#f26b38;stroke:#ffffff;stroke-width:0.48;"/>
    <path clip-path="url(#p0cf10ac09d)" d="M 120.886705 161.025174 
C 121.682314 161.025174 122.445444 160.709075 123.008025 160.146494 
C 123.570606 159.583914 123.886705 158.820783 123.886705 158.025174 
C 123.886705 157.229565 123.570606 156.466434 123.008025 155.903854 
C 122.445444 155.341273 121.682314 155.025174 120.886705 155.025174 
C 120.091095 155.025174 119.327965 155.341273 118.765384 155.903854 
C 118.202803 156.466434 117.886705 157.229565 117.886705 158.025174 
C 117.886705 158.820783 118.202803 159.583914 118.765384 160.146494 
C 119.327965 160.709075 120.091095 161.025174 120.886705 161.025174 
z
" style="fill:#f26b38;stroke:#ffffff;stroke-width:0.48;"/>
    <path clip-path="url(#p0cf10ac09d)" d="M 127.650341 165.544617 
C 128.44595 165.544617 129.209081 165.228518 129.771661 164.665937 
C 130.334242 164.103356 130.650341 163.340226 130.650341 162.544617 
C 130.650341 161.749008 130.334242 160.985877 129.771661 160.423296 
C 129.209081 159.860716 128.44595 159.544617 127.650341 159.544617 
C 126.854732 159.544617 126.091601 159.860716 125.529021 160.423296 
C 124.96644 160.985877 124.650341 161.749008 124.650341 162.544617 
C 124.650341 163.340226 124.96644 164.103356 125.529021 164.665937 
C 126.091601 165.228518 126.854732 165.544617 127.650341 165.544617 
z
" style="fill:#f26b38;stroke:#ffffff;stroke-width:0.48;"/>
    <path clip-path="url(#p0cf10ac09d)" d="M 134.413977 173.653029 
C 135.209587 173.653029 135.972717 173.33693 136.535298 172.774349 
C 137.097878 172.211769 137.413977 171.448638 137.413977 170.653029 
C 137.413977 169.85742 137.097878 169.094289 136.535298 168.531709 
C 135.972717 167.969128 135.209587 167.653029 134.413977 167.653029 
C 133.618368 167.653029 132.855238 167.969128 132.292657 168.531709 
C 131.730076 169.094289 131.413977 169.85742 131.413977 170.653029 
C 131.413977 171.448638 131.730076 172.211769 132.292657 172.774349 
C 132.855238 173.33693 133.618368 173.653029 134.413977 173.653029 
z
" style="fill:#f26b38;stroke:#ffffff;stroke-width:0.48;"/>
    <path clip-path="url(#p0cf10ac09d)" d="M 141.177614 173.653029 
C 141.973223 173.653029 142.736353 173.33693 143.298934 172.774349 
C 143.861515 172.211769 144.177614 171.448638 144.177614 170.653029 
C 144.177614 169.85742 143.861515 169.094289 143.298934 168.531709 
C 142.736353 167.969128 141.973223 167.653029 141.177614 167.653029 
C 140.382004 167.653029 139.618874 167.969128 139.056293 168.531709 
C 138.493713 169.094289 138.177614 169.85742 138.177614 170.653029 
C 138.177614 171.448638 138.493713 172.211769 139.056293 172.774349 
C 139.618874 173.33693 140.382004 173.653029 141.177614 173.653029 
z
" style="fill:#f26b38;stroke:#ffffff;stroke-width:0.48;"/>
    <path clip-path="url(#p0cf10ac09d)" d="M 147.94125 189.869854 
C 148.736859 189.869854 149.49999 189.553755 150.06257 188.991174 
C 150.625151 188.428593 150.94125 187.665463 150.94125 186.869854 
C 150.94125 186.074244 150.625151 185.311114 150.06257 184.748533 
C 149.49999 184.185953 148.736859 183.869854 147.94125 183.869854 
C 147.145641 183.869854 146.38251 184.185953 145.81993 184.748533 
C 145.257349 185.311114 144.94125 186.074244 144.94125 186.869854 
C 144.94125 187.665463 145.257349 188.428593 145.81993 188.991174 
C 146.38251 189.553755 147.145641 189.869854 147.94125 189.869854 
z
" style="fill:#f26b38;stroke:#ffffff;stroke-width:0.48;"/>
    <path clip-path="url(#p0cf10ac09d)" d="M 154.704886 209.205298 
C 155.500496 209.205298 156.263626 208.889199 156.826207 208.326619 
C 157.388787 207.764038 157.704886 207.000908 157.704886 206.205298 
C 157.704886 205.409689 157.388787 204.646559 156.826207 204.083978 
C 156.263626 203.521397 155.500496 203.205298 154.704886 203.205298 
C 153.909277 203.205298 153.146147 203.521397 152.583566 204.083978 
C 152.020985 204.646559 151.704886 205.409689 151.704886 206.205298 
C 151.704886 207.000908 152.020985 207.764038 152.583566 208.326619 
C 153.146147 208.889199 153.909277 209.205298 154.704886 209.205298 
z
" style="fill:#f26b38;stroke:#ffffff;stroke-width:0.48;"/>
    <path clip-path="url(#p0cf10ac09d)" d="M 161.468523 209.205298 
C 162.264132 209.205298 163.027262 208.889199 163.589843 208.326619 
C 164.152424 207.764038 164.468523 207.000908 164.468523 206.205298 
C 164.468523 205.409689 164.152424 204.646559 163.589843 204.083978 
C 163.027262 203.521397 162.264132 203.205298 161.468523 203.205298 
C 160.672913 203.205298 159.909783 203.521397 159.347202 204.083978 
C 158.784622 204.646559 158.468523 205.409689 158.468523 206.205298 
C 158.468523 207.000908 158.784622 207.764038 159.347202 208.326619 
C 159.909783 208.889199 160.672913 209.205298 161.468523 209.205298 
z
" style="fill:#f26b38;stroke:#ffffff;stroke-width:0.48;"/>
    <path clip-path="url(#p0cf10ac09d)" d="M 168.232159 209.205298 
C 169.027768 209.205298 169.790899 208.889199 170.353479 208.326619 
C 170.91606 207.764038 171.232159 207.000908 171.232159 206.205298 
C 171.232159 205.409689 170.91606 204.646559 170.353479 204.083978 
C 169.790899 203.521397 169.027768 203.205298 168.232159 203.205298 
C 167.43655 203.205298 166.673419 203.521397 166.110839 204.083978 
C 165.548258 204.646559 165.232159 205.409689 165.232159 206.205298 
C 165.232159 207.000908 165.548258 207.764038 166.110839 208.326619 
C 166.673419 208.889199 167.43655 209.205298 168.232159 209.205298 
z
" style="fill:#f26b38;stroke:#ffffff;stroke-width:0.48;"/>
    <path clip-path="url(#p0cf10ac09d)" d="M 174.995795 212.720834 
C 175.791405 212.720834 176.554535 212.404735 177.117116 211.842154 
C 177.679697 211.279573 177.995795 210.516443 177.995795 209.720834 
C 177.995795 208.925224 177.679697 208.162094 177.117116 207.599513 
C 176.554535 207.036933 175.791405 206.720834 174.995795 206.720834 
C 174.200186 206.720834 173.437056 207.036933 172.874475 207.599513 
C 172.311894 208.162094 171.995795 208.925224 171.995795 209.720834 
C 171.995795 210.516443 172.311894 211.279573 172.874475 211.842154 
C 173.437056 212.404735 174.200186 212.720834 174.995795 212.720834 
z
" style="fill:#f26b38;stroke:#ffffff;stroke-width:0.48;"/>
    <path clip-path="url(#p0cf10ac09d)" d="M 181.759432 212.720834 
C 182.555041 212.720834 183.318171 212.404735 183.880752 211.842154 
C 184.443333 211.279573 184.759432 210.516443 184.759432 209.720834 
C 184.759432 208.925224 184.443333 208.162094 183.880752 207.599513 
C 183.318171 207.036933 182.555041 206.720834 181.759432 206.720834 
C 180.963823 206.720834 180.200692 207.036933 179.638111 207.599513 
C 179.075531 208.162094 178.759432 208.925224 178.759432 209.720834 
C 178.759432 210.516443 179.075531 211.279573 179.638111 211.842154 
C 180.200692 212.404735 180.963823 212.720834 181.759432 212.720834 
z
" style="fill:#f26b38;stroke:#ffffff;stroke-width:0.48;"/>
    <path clip-path="url(#p0cf10ac09d)" d="M 188.523068 212.720834 
C 189.318677 212.720834 190.081808 212.404735 190.644389 211.842154 
C 191.206969 211.279573 191.523068 210.516443 191.523068 209.720834 
C 191.523068 208.925224 191.206969 208.162094 190.644389 207.599513 
C 190.081808 207.036933 189.318677 206.720834 188.523068 206.720834 
C 187.727459 206.720834 186.964329 207.036933 186.401748 207.599513 
C 185.839167 208.162094 185.523068 208.925224 185.523068 209.720834 
C 185.523068 210.516443 185.839167 211.279573 186.401748 211.842154 
C 186.964329 212.404735 187.727459 212.720834 188.523068 212.720834 
z
" style="fill:#f26b38;stroke:#ffffff;stroke-width:0.48;"/>
    <path clip-path="url(#p0cf10ac09d)" d="M 195.286705 228.813073 
C 196.082314 228.813073 196.845444 228.496974 197.408025 227.934394 
C 197.970606 227.371813 198.286705 226.608682 198.286705 225.813073 
C 198.286705 225.017464 197.970606 224.254334 197.408025 223.691753 
C 196.845444 223.129172 196.082314 222.813073 195.286705 222.813073 
C 194.491095 222.813073 193.727965 223.129172 193.165384 223.691753 
C 192.602803 224.254334 192.286705 225.017464 192.286705 225.813073 
C 192.286705 226.608682 192.602803 227.371813 193.165384 227.934394 
C 193.727965 228.496974 194.491095 228.813073 195.286705 228.813073 
z
" style="fill:#f26b38;stroke:#ffffff;stroke-width:0.48;"/>
    <path clip-path="url(#p0cf10ac09d)" d="M 202.050341 228.813073 
C 202.84595 228.813073 203.609081 228.496974 204.171661 227.934394 
C 204.734242 227.371813 205.050341 226.608682 205.050341 225.813073 
C 205.050341 225.017464 204.734242 224.254334 204.171661 223.691753 
C 203.609081 223.129172 202.84595 222.813073 202.050341 222.813073 
C 201.254732 222.813073 200.491601 223.129172 199.929021 223.691753 
C 199.36644 224.254334 199.050341 225.017464 199.050341 225.813073 
C 199.050341 226.608682 199.36644 227.371813 199.929021 227.934394 
C 200.491601 228.496974 201.254732 228.813073 202.050341 228.813073 
z
" style="fill:#f26b38;stroke:#ffffff;stroke-width:0.48;"/>
    <path clip-path="url(#p0cf10ac09d)" d="M 208.813977 228.813073 
C 209.609587 228.813073 210.372717 228.496974 210.935298 227.934394 
C 211.497878 227.371813 211.813977 226.608682 211.813977 225.813073 
C 211.813977 225.017464 211.497878 224.254334 210.935298 223.691753 
C 210.372717 223.129172 209.609587 222.813073 208.813977 222.813073 
C 208.018368 222.813073 207.255238 223.129172 206.692657 223.691753 
C 206.130076 224.254334 205.813977 225.017464 205.813977 225.813073 
C 205.813977 226.608682 206.130076 227.371813 206.692657 227.934394 
C 207.255238 228.496974 208.018368 228.813073 208.813977 228.813073 
z
" style="fill:#f26b38;stroke:#ffffff;stroke-width:0.48;"/>
    <path clip-path="url(#p0cf10ac09d)" d="M 215.577614 228.813073 
C 216.373223 228.813073 217.136353 228.496974 217.698934 227.934394 
C 218.261515 227.371813 218.577614 226.608682 218.577614 225.813073 
C 218.577614 225.017464 218.261515 224.254334 217.698934 223.691753 
C 217.136353 223.129172 216.373223 222.813073 215.577614 222.813073 
C 214.782004 222.813073 214.018874 223.129172 213.456293 223.691753 
C 212.893713 224.254334 212.577614 225.017464 212.577614 225.813073 
C 212.577614 226.608682 212.893713 227.371813 213.456293 227.934394 
C 214.018874 228.496974 214.782004 228.813073 215.577614 228.813073 
z
" style="fill:#f26b38;stroke:#ffffff;stroke-width:0.48;"/>
    <path clip-path="url(#p0cf10ac09d)" d="M 222.34125 231.763317 
C 223.136859 231.763317 223.89999 231.447218 224.46257 230.884637 
C 225.025151 230.322057 225.34125 229.558926 225.34125 228.763317 
C 225.34125 227.967708 225.025151 227.204577 224.46257 226.641997 
C 223.89999 226.079416 223.136859 225.763317 222.34125 225.763317 
C 221.545641 225.763317 220.78251 226.079416 220.21993 226.641997 
C 219.657349 227.204577 219.34125 227.967708 219.34125 228.763317 
C 219.34125 229.558926 219.657349 230.322057 220.21993 230.884637 
C 220.78251 231.447218 221.545641 231.763317 222.34125 231.763317 
z
" style="fill:#f26b38;stroke:#ffffff;stroke-width:0.48;"/>
    <path clip-path="url(#p0cf10ac09d)" d="M 229.104886 231.23302 
C 229.900496 231.23302 230.663626 230.916921 231.226207 230.35434 
C 231.788787 229.79176 232.104886 229.028629 232.104886 228.23302 
C 232.104886 227.437411 231.788787 226.67428 231.226207 226.1117 
C 230.663626 225.549119 229.900496 225.23302 229.104886 225.23302 
C 228.309277 225.23302 227.546147 225.549119 226.983566 226.1117 
C 226.420985 226.67428 226.104886 227.437411 226.104886 228.23302 
C 226.104886 229.028629 226.420985 229.79176 226.983566 230.35434 
C 227.546147 230.916921 228.309277 231.23302 229.104886 231.23302 
z
" style="fill:#f26b38;stroke:#ffffff;stroke-width:0.48;"/>
    <path clip-path="url(#p0cf10ac09d)" d="M 235.868523 231.23302 
C 236.664132 231.23302 237.427262 230.916921 237.989843 230.35434 
C 238.552424 229.79176 238.868523 229.028629 238.868523 228.23302 
C 238.868523 227.437411 238.552424 226.67428 237.989843 226.1117 
C 237.427262 225.549119 236.664132 225.23302 235.868523 225.23302 
C 235.072913 225.23302 234.309783 225.549119 233.747202 226.1117 
C 233.184622 226.67428 232.868523 227.437411 232.868523 228.23302 
C 232.868523 229.028629 233.184622 229.79176 233.747202 230.35434 
C 234.309783 230.916921 235.072913 231.23302 235.868523 231.23302 
z
" style="fill:#f26b38;stroke:#ffffff;stroke-width:0.48;"/>
    <path clip-path="url(#p0cf10ac09d)" d="M 242.632159 231.23302 
C 243.427768 231.23302 244.190899 230.916921 244.753479 230.35434 
C 245.31606 229.79176 245.632159 229.028629 245.632159 228.23302 
C 245.632159 227.437411 245.31606 226.67428 244.753479 226.1117 
C 244.190899 225.549119 243.427768 225.23302 242.632159 225.23302 
C 241.83655 225.23302 241.073419 225.549119 240.510839 226.1117 
C 239.948258 226.67428 239.632159 227.437411 239.632159 228.23302 
C 239.632159 229.028629 239.948258 229.79176 240.510839 230.35434 
C 241.073419 230.916921 241.83655 231.23302 242.632159 231.23302 
z
" style="fill:#f26b38;stroke:#ffffff;stroke-width:0.48;"/>
    <path clip-path="url(#p0cf10ac09d)" d="M 249.395795 231.23302 
C 250.191405 231.23302 250.954535 230.916921 251.517116 230.35434 
C 252.079697 229.79176 252.395795 229.028629 252.395795 228.23302 
C 252.395795 227.437411 252.079697 226.67428 251.517116 226.1117 
C 250.954535 225.549119 250.191405 225.23302 249.395795 225.23302 
C 248.600186 225.23302 247.837056 225.549119 247.274475 226.1117 
C 246.711894 226.67428 246.395795 227.437411 246.395795 228.23302 
C 246.395795 229.028629 246.711894 229.79176 247.274475 230.35434 
C 247.837056 230.916921 248.600186 231.23302 249.395795 231.23302 
z
" style="fill:#f26b38;stroke:#ffffff;stroke-width:0.48;"/>
    <path clip-path="url(#p0cf10ac09d)" d="M 256.159432 231.23302 
C 256.955041 231.23302 257.718171 230.916921 258.280752 230.35434 
C 258.843333 229.79176 259.159432 229.028629 259.159432 228.23302 
C 259.159432 227.437411 258.843333 226.67428 258.280752 226.1117 
C 257.718171 225.549119 256.955041 225.23302 256.159432 225.23302 
C 255.363823 225.23302 254.600692 225.549119 254.038111 226.1117 
C 253.475531 226.67428 253.159432 227.437411 253.159432 228.23302 
C 253.159432 229.028629 253.475531 229.79176 254.038111 230.35434 
C 254.600692 230.916921 255.363823 231.23302 256.159432 231.23302 
z
" style="fill:#f26b38;stroke:#ffffff;stroke-width:0.48;"/>
    <path clip-path="url(#p0cf10ac09d)" d="M 262.923068 231.23302 
C 263.718677 231.23302 264.481808 230.916921 265.044389 230.35434 
C 265.606969 229.79176 265.923068 229.028629 265.923068 228.23302 
C 265.923068 227.437411 265.606969 226.67428 265.044389 226.1117 
C 264.481808 225.549119 263.718677 225.23302 262.923068 225.23302 
C 262.127459 225.23302 261.364329 225.549119 260.801748 226.1117 
C 260.239167 226.67428 259.923068 227.437411 259.923068 228.23302 
C 259.923068 229.028629 260.239167 229.79176 260.801748 230.35434 
C 261.364329 230.916921 262.127459 231.23302 262.923068 231.23302 
z
" style="fill:#f26b38;stroke:#ffffff;stroke-width:0.48;"/>
    <path clip-path="url(#p0cf10ac09d)" d="M 269.686705 231.23302 
C 270.482314 231.23302 271.245444 230.916921 271.808025 230.35434 
C 272.370606 229.79176 272.686705 229.028629 272.686705 228.23302 
C 272.686705 227.437411 272.370606 226.67428 271.808025 226.1117 
C 271.245444 225.549119 270.482314 225.23302 269.686705 225.23302 
C 268.891095 225.23302 268.127965 225.549119 267.565384 226.1117 
C 267.002803 226.67428 266.686705 227.437411 266.686705 228.23302 
C 266.686705 229.028629 267.002803 229.79176 267.565384 230.35434 
C 268.127965 230.916921 268.891095 231.23302 269.686705 231.23302 
z
" style="fill:#f26b38;stroke:#ffffff;stroke-width:0.48;"/>
    <path clip-path="url(#p0cf10ac09d)" d="M 276.450341 231.23302 
C 277.24595 231.23302 278.009081 230.916921 278.571661 230.35434 
C 279.134242 229.79176 279.450341 229.028629 279.450341 228.23302 
C 279.450341 227.437411 279.134242 226.67428 278.571661 226.1117 
C 278.009081 225.549119 277.24595 225.23302 276.450341 225.23302 
C 275.654732 225.23302 274.891601 225.549119 274.329021 226.1117 
C 273.76644 226.67428 273.450341 227.437411 273.450341 228.23302 
C 273.450341 229.028629 273.76644 229.79176 274.329021 230.35434 
C 274.891601 230.916921 275.654732 231.23302 276.450341 231.23302 
z
" style="fill:#f26b38;stroke:#ffffff;stroke-width:0.48;"/>
    <path clip-path="url(#p0cf10ac09d)" d="M 283.213977 231.23302 
C 284.009587 231.23302 284.772717 230.916921 285.335298 230.35434 
C 285.897878 229.79176 286.213977 229.028629 286.213977 228.23302 
C 286.213977 227.437411 285.897878 226.67428 285.335298 226.1117 
C 284.772717 225.549119 284.009587 225.23302 283.213977 225.23302 
C 282.418368 225.23302 281.655238 225.549119 281.092657 226.1117 
C 280.530076 226.67428 280.213977 227.437411 280.213977 228.23302 
C 280.213977 229.028629 280.530076 229.79176 281.092657 230.35434 
C 281.655238 230.916921 282.418368 231.23302 283.213977 231.23302 
z
" style="fill:#f26b38;stroke:#ffffff;stroke-width:0.48;"/>
    <path clip-path="url(#p0cf10ac09d)" d="M 289.977614 231.23302 
C 290.773223 231.23302 291.536353 230.916921 292.098934 230.35434 
C 292.661515 229.79176 292.977614 229.028629 292.977614 228.23302 
C 292.977614 227.437411 292.661515 226.67428 292.098934 226.1117 
C 291.536353 225.549119 290.773223 225.23302 289.977614 225.23302 
C 289.182004 225.23302 288.418874 225.549119 287.856293 226.1117 
C 287.293713 226.67428 286.977614 227.437411 286.977614 228.23302 
C 286.977614 229.028629 287.293713 229.79176 287.856293 230.35434 
C 288.418874 230.916921 289.182004 231.23302 289.977614 231.23302 
z
" style="fill:#f26b38;stroke:#ffffff;stroke-width:0.48;"/>
    <path clip-path="url(#p0cf10ac09d)" d="M 296.74125 231.23302 
C 297.536859 231.23302 298.29999 230.916921 298.86257 230.35434 
C 299.425151 229.79176 299.74125 229.028629 299.74125 228.23302 
C 299.74125 227.437411 299.425151 226.67428 298.86257 226.1117 
C 298.29999 225.549119 297.536859 225.23302 296.74125 225.23302 
C 295.945641 225.23302 295.18251 225.549119 294.61993 226.1117 
C 294.057349 226.67428 293.74125 227.437411 293.74125 228.23302 
C 293.74125 229.028629 294.057349 229.79176 294.61993 230.35434 
C 295.18251 230.916921 295.945641 231.23302 296.74125 231.23302 
z
" style="fill:#f26b38;stroke:#ffffff;stroke-width:0.48;"/>
    <path clip-path="url(#p0cf10ac09d)" d="M 303.504886 231.23302 
C 304.300496 231.23302 305.063626 230.916921 305.626207 230.35434 
C 306.188787 229.79176 306.504886 229.028629 306.504886 228.23302 
C 306.504886 227.437411 306.188787 226.67428 305.626207 226.1117 
C 305.063626 225.549119 304.300496 225.23302 303.504886 225.23302 
C 302.709277 225.23302 301.946147 225.549119 301.383566 226.1117 
C 300.820985 226.67428 300.504886 227.437411 300.504886 228.23302 
C 300.504886 229.028629 300.820985 229.79176 301.383566 230.35434 
C 301.946147 230.916921 302.709277 231.23302 303.504886 231.23302 
z
" style="fill:#f26b38;stroke:#ffffff;stroke-width:0.48;"/>
    <path clip-path="url(#p0cf10ac09d)" d="M 310.268523 231.23302 
C 311.064132 231.23302 311.827262 230.916921 312.389843 230.35434 
C 312.952424 229.79176 313.268523 229.028629 313.268523 228.23302 
C 313.268523 227.437411 312.952424 226.67428 312.389843 226.1117 
C 311.827262 225.549119 311.064132 225.23302 310.268523 225.23302 
C 309.472913 225.23302 308.709783 225.549119 308.147202 226.1117 
C 307.584622 226.67428 307.268523 227.437411 307.268523 228.23302 
C 307.268523 229.028629 307.584622 229.79176 308.147202 230.35434 
C 308.709783 230.916921 309.472913 231.23302 310.268523 231.23302 
z
" style="fill:#f26b38;stroke:#ffffff;stroke-width:0.48;"/>
    <path clip-path="url(#p0cf10ac09d)" d="M 317.032159 231.23302 
C 317.827768 231.23302 318.590899 230.916921 319.153479 230.35434 
C 319.71606 229.79176 320.032159 229.028629 320.032159 228.23302 
C 320.032159 227.437411 319.71606 226.67428 319.153479 226.1117 
C 318.590899 225.549119 317.827768 225.23302 317.032159 225.23302 
C 316.23655 225.23302 315.473419 225.549119 314.910839 226.1117 
C 314.348258 226.67428 314.032159 227.437411 314.032159 228.23302 
C 314.032159 229.028629 314.348258 229.79176 314.910839 230.35434 
C 315.473419 230.916921 316.23655 231.23302 317.032159 231.23302 
z
" style="fill:#f26b38;stroke:#ffffff;stroke-width:0.48;"/>
    <path clip-path="url(#p0cf10ac09d)" d="M 323.795795 231.23302 
C 324.591405 231.23302 325.354535 230.916921 325.917116 230.35434 
C 326.479697 229.79176 326.795795 229.028629 326.795795 228.23302 
C 326.795795 227.437411 326.479697 226.67428 325.917116 226.1117 
C 325.354535 225.549119 324.591405 225.23302 323.795795 225.23302 
C 323.000186 225.23302 322.237056 225.549119 321.674475 226.1117 
C 321.111894 226.67428 320.795795 227.437411 320.795795 228.23302 
C 320.795795 229.028629 321.111894 229.79176 321.674475 230.35434 
C 322.237056 230.916921 323.000186 231.23302 323.795795 231.23302 
z
" style="fill:#f26b38;stroke:#ffffff;stroke-width:0.48;"/>
    <path clip-path="url(#p0cf10ac09d)" d="M 330.559432 231.23302 
C 331.355041 231.23302 332.118171 230.916921 332.680752 230.35434 
C 333.243333 229.79176 333.559432 229.028629 333.559432 228.23302 
C 333.559432 227.437411 333.243333 226.67428 332.680752 226.1117 
C 332.118171 225.549119 331.355041 225.23302 330.559432 225.23302 
C 329.763823 225.23302 329.000692 225.549119 328.438111 226.1117 
C 327.875531 226.67428 327.559432 227.437411 327.559432 228.23302 
C 327.559432 229.028629 327.875531 229.79176 328.438111 230.35434 
C 329.000692 230.916921 329.763823 231.23302 330.559432 231.23302 
z
" style="fill:#f26b38;stroke:#ffffff;stroke-width:0.48;"/>
    <path clip-path="url(#p0cf10ac09d)" d="M 337.323068 231.23302 
C 338.118677 231.23302 338.881808 230.916921 339.444389 230.35434 
C 340.006969 229.79176 340.323068 229.028629 340.323068 228.23302 
C 340.323068 227.437411 340.006969 226.67428 339.444389 226.1117 
C 338.881808 225.549119 338.118677 225.23302 337.323068 225.23302 
C 336.527459 225.23302 335.764329 225.549119 335.201748 226.1117 
C 334.639167 226.67428 334.323068 227.437411 334.323068 228.23302 
C 334.323068 229.028629 334.639167 229.79176 335.201748 230.35434 
C 335.764329 230.916921 336.527459 231.23302 337.323068 231.23302 
z
" style="fill:#f26b38;stroke:#ffffff;stroke-width:0.48;"/>
    <path clip-path="url(#p0cf10ac09d)" d="M 344.086705 231.23302 
C 344.882314 231.23302 345.645444 230.916921 346.208025 230.35434 
C 346.770606 229.79176 347.086705 229.028629 347.086705 228.23302 
C 347.086705 227.437411 346.770606 226.67428 346.208025 226.1117 
C 345.645444 225.549119 344.882314 225.23302 344.086705 225.23302 
C 343.291095 225.23302 342.527965 225.549119 341.965384 226.1117 
C 341.402803 226.67428 341.086705 227.437411 341.086705 228.23302 
C 341.086705 229.028629 341.402803 229.79176 341.965384 230.35434 
C 342.527965 230.916921 343.291095 231.23302 344.086705 231.23302 
z
" style="fill:#f26b38;stroke:#ffffff;stroke-width:0.48;"/>
    <path clip-path="url(#p0cf10ac09d)" d="M 350.850341 231.23302 
C 351.64595 231.23302 352.409081 230.916921 352.971661 230.35434 
C 353.534242 229.79176 353.850341 229.028629 353.850341 228.23302 
C 353.850341 227.437411 353.534242 226.67428 352.971661 226.1117 
C 352.409081 225.549119 351.64595 225.23302 350.850341 225.23302 
C 350.054732 225.23302 349.291601 225.549119 348.729021 226.1117 
C 348.16644 226.67428 347.850341 227.437411 347.850341 228.23302 
C 347.850341 229.028629 348.16644 229.79176 348.729021 230.35434 
C 349.291601 230.916921 350.054732 231.23302 350.850341 231.23302 
z
" style="fill:#f26b38;stroke:#ffffff;stroke-width:0.48;"/>
    <path clip-path="url(#p0cf10ac09d)" d="M 357.613977 231.23302 
C 358.409587 231.23302 359.172717 230.916921 359.735298 230.35434 
C 360.297878 229.79176 360.613977 229.028629 360.613977 228.23302 
C 360.613977 227.437411 360.297878 226.67428 359.735298 226.1117 
C 359.172717 225.549119 358.409587 225.23302 357.613977 225.23302 
C 356.818368 225.23302 356.055238 225.549119 355.492657 226.1117 
C 354.930076 226.67428 354.613977 227.437411 354.613977 228.23302 
C 354.613977 229.028629 354.930076 229.79176 355.492657 230.35434 
C 356.055238 230.916921 356.818368 231.23302 357.613977 231.23302 
z
" style="fill:#f26b38;stroke:#ffffff;stroke-width:0.48;"/>
    <path clip-path="url(#p0cf10ac09d)" d="M 364.377614 231.23302 
C 365.173223 231.23302 365.936353 230.916921 366.498934 230.35434 
C 367.061515 229.79176 367.377614 229.028629 367.377614 228.23302 
C 367.377614 227.437411 367.061515 226.67428 366.498934 226.1117 
C 365.936353 225.549119 365.173223 225.23302 364.377614 225.23302 
C 363.582004 225.23302 362.818874 225.549119 362.256293 226.1117 
C 361.693713 226.67428 361.377614 227.437411 361.377614 228.23302 
C 361.377614 229.028629 361.693713 229.79176 362.256293 230.35434 
C 362.818874 230.916921 363.582004 231.23302 364.377614 231.23302 
z
" style="fill:#f26b38;stroke:#ffffff;stroke-width:0.48;"/>
    <path clip-path="url(#p0cf10ac09d)" d="M 371.14125 231.23302 
C 371.936859 231.23302 372.69999 230.916921 373.26257 230.35434 
C 373.825151 229.79176 374.14125 229.028629 374.14125 228.23302 
C 374.14125 227.437411 373.825151 226.67428 373.26257 226.1117 
C 372.69999 225.549119 371.936859 225.23302 371.14125 225.23302 
C 370.345641 225.23302 369.58251 225.549119 369.01993 226.1117 
C 368.457349 226.67428 368.14125 227.437411 368.14125 228.23302 
C 368.14125 229.028629 368.457349 229.79176 369.01993 230.35434 
C 369.58251 230.916921 370.345641 231.23302 371.14125 231.23302 
z
" style="fill:#f26b38;stroke:#ffffff;stroke-width:0.48;"/>
    <path clip-path="url(#p0cf10ac09d)" d="M 377.904886 231.23302 
C 378.700496 231.23302 379.463626 230.916921 380.026207 230.35434 
C 380.588787 229.79176 380.904886 229.028629 380.904886 228.23302 
C 380.904886 227.437411 380.588787 226.67428 380.026207 226.1117 
C 379.463626 225.549119 378.700496 225.23302 377.904886 225.23302 
C 377.109277 225.23302 376.346147 225.549119 375.783566 226.1117 
C 375.220985 226.67428 374.904886 227.437411 374.904886 228.23302 
C 374.904886 229.028629 375.220985 229.79176 375.783566 230.35434 
C 376.346147 230.916921 377.109277 231.23302 377.904886 231.23302 
z
" style="fill:#f26b38;stroke:#ffffff;stroke-width:0.48;"/>
    <path clip-path="url(#p0cf10ac09d)" d="M 384.668523 231.23302 
C 385.464132 231.23302 386.227262 230.916921 386.789843 230.35434 
C 387.352424 229.79176 387.668523 229.028629 387.668523 228.23302 
C 387.668523 227.437411 387.352424 226.67428 386.789843 226.1117 
C 386.227262 225.549119 385.464132 225.23302 384.668523 225.23302 
C 383.872913 225.23302 383.109783 225.549119 382.547202 226.1117 
C 381.984622 226.67428 381.668523 227.437411 381.668523 228.23302 
C 381.668523 229.028629 381.984622 229.79176 382.547202 230.35434 
C 383.109783 230.916921 383.872913 231.23302 384.668523 231.23302 
z
" style="fill:#f26b38;stroke:#ffffff;stroke-width:0.48;"/>
    <path clip-path="url(#p0cf10ac09d)" d="M 58.513977 103.193722 
L 60.013977 101.693722 
L 61.513977 103.193722 
L 63.013977 101.693722 
L 61.513977 100.193722 
L 63.013977 98.693722 
L 61.513977 97.193722 
L 60.013977 98.693722 
L 58.513977 97.193722 
L 57.013977 98.693722 
L 58.513977 100.193722 
L 57.013977 101.693722 
z
" style="fill:#2f9599;stroke:#ffffff;stroke-width:0.48;"/>
    <path clip-path="url(#p0cf10ac09d)" d="M 65.277614 164.733776 
L 66.777614 163.233776 
L 68.277614 164.733776 
L 69.777614 163.233776 
L 68.277614 161.733776 
L 69.777614 160.233776 
L 68.277614 158.733776 
L 66.777614 160.233776 
L 65.277614 158.733776 
L 63.777614 160.233776 
L 65.277614 161.733776 
L 63.777614 163.233776 
z
" style="fill:#2f9599;stroke:#ffffff;stroke-width:0.48;"/>
    <path clip-path="url(#p0cf10ac09d)" d="M 72.04125 164.733776 
L 73.54125 163.233776 
L 75.04125 164.733776 
L 76.54125 163.233776 
L 75.04125 161.733776 
L 76.54125 160.233776 
L 75.04125 158.733776 
L 73.54125 160.233776 
L 72.04125 158.733776 
L 70.54125 160.233776 
L 72.04125 161.733776 
L 70.54125 163.233776 
z
" style="fill:#2f9599;stroke:#ffffff;stroke-width:0.48;"/>
    <path clip-path="url(#p0cf10ac09d)" d="M 78.804886 206.086678 
L 80.304886 204.586678 
L 81.804886 206.086678 
L 83.304886 204.586678 
L 81.804886 203.086678 
L 83.304886 201.586678 
L 81.804886 200.086678 
L 80.304886 201.586678 
L 78.804886 200.086678 
L 77.304886 201.586678 
L 78.804886 203.086678 
L 77.304886 204.586678 
z
" style="fill:#2f9599;stroke:#ffffff;stroke-width:0.48;"/>
    <path clip-path="url(#p0cf10ac09d)" d="M 85.568523 231.138041 
L 87.068523 229.638041 
L 88.568523 231.138041 
L 90.068523 229.638041 
L 88.568523 228.138041 
L 90.068523 226.638041 
L 88.568523 225.138041 
L 87.068523 226.638041 
L 85.568523 225.138041 
L 84.068523 226.638041 
L 85.568523 228.138041 
L 84.068523 229.638041 
z
" style="fill:#2f9599;stroke:#ffffff;stroke-width:0.48;"/>
    <path clip-path="url(#p0cf10ac09d)" d="M 92.332159 247.876188 
L 93.832159 246.376188 
L 95.332159 247.876188 
L 96.832159 246.376188 
L 95.332159 244.876188 
L 96.832159 243.376188 
L 95.332159 241.876188 
L 93.832159 243.376188 
L 92.332159 241.876188 
L 90.832159 243.376188 
L 92.332159 244.876188 
L 90.832159 246.376188 
z
" style="fill:#2f9599;stroke:#ffffff;stroke-width:0.48;"/>
    <path clip-path="url(#p0cf10ac09d)" d="M 99.095795 247.876188 
L 100.595795 246.376188 
L 102.095795 247.876188 
L 103.595795 246.376188 
L 102.095795 244.876188 
L 103.595795 243.376188 
L 102.095795 241.876188 
L 100.595795 243.376188 
L 99.095795 241.876188 
L 97.595795 243.376188 
L 99.095795 244.876188 
L 97.595795 246.376188 
z
" style="fill:#2f9599;stroke:#ffffff;stroke-width:0.48;"/>
    <path clip-path="url(#p0cf10ac09d)" d="M 105.859432 247.876188 
L 107.359432 246.376188 
L 108.859432 247.876188 
L 110.359432 246.376188 
L 108.859432 244.876188 
L 110.359432 243.376188 
L 108.859432 241.876188 
L 107.359432 243.376188 
L 105.859432 241.876188 
L 104.359432 243.376188 
L 105.859432 244.876188 
L 104.359432 246.376188 
z
" style="fill:#2f9599;stroke:#ffffff;stroke-width:0.48;"/>
    <path clip-path="url(#p0cf10ac09d)" d="M 112.623068 250.8058 
L 114.123068 249.3058 
L 115.623068 250.8058 
L 117.123068 249.3058 
L 115.623068 247.8058 
L 117.123068 246.3058 
L 115.623068 244.8058 
L 114.123068 246.3058 
L 112.623068 244.8058 
L 111.123068 246.3058 
L 112.623068 247.8058 
L 111.123068 249.3058 
z
" style="fill:#2f9599;stroke:#ffffff;stroke-width:0.48;"/>
    <path clip-path="url(#p0cf10ac09d)" d="M 119.386705 250.8058 
L 120.886705 249.3058 
L 122.386705 250.8058 
L 123.886705 249.3058 
L 122.386705 247.8058 
L 123.886705 246.3058 
L 122.386705 244.8058 
L 120.886705 246.3058 
L 119.386705 244.8058 
L 117.886705 246.3058 
L 119.386705 247.8058 
L 117.886705 249.3058 
z
" style="fill:#2f9599;stroke:#ffffff;stroke-width:0.48;"/>
    <path clip-path="url(#p0cf10ac09d)" d="M 126.150341 264.216 
L 127.650341 262.716 
L 129.150341 264.216 
L 130.650341 262.716 
L 129.150341 261.216 
L 130.650341 259.716 
L 129.150341 258.216 
L 127.650341 259.716 
L 126.150341 258.216 
L 124.650341 259.716 
L 126.150341 261.216 
L 124.650341 262.716 
z
" style="fill:#2f9599;stroke:#ffffff;stroke-width:0.48;"/>
    <path clip-path="url(#p0cf10ac09d)" d="M 132.913977 264.216 
L 134.413977 262.716 
L 135.913977 264.216 
L 137.413977 262.716 
L 135.913977 261.216 
L 137.413977 259.716 
L 135.913977 258.216 
L 134.413977 259.716 
L 132.913977 258.216 
L 131.413977 259.716 
L 132.913977 261.216 
L 131.413977 262.716 
z
" style="fill:#2f9599;stroke:#ffffff;stroke-width:0.48;"/>
    <path clip-path="url(#p0cf10ac09d)" d="M 139.677614 264.216 
L 141.177614 262.716 
L 142.677614 264.216 
L 144.177614 262.716 
L 142.677614 261.216 
L 144.177614 259.716 
L 142.677614 258.216 
L 141.177614 259.716 
L 139.677614 258.216 
L 138.177614 259.716 
L 139.677614 261.216 
L 138.177614 262.716 
z
" style="fill:#2f9599;stroke:#ffffff;stroke-width:0.48;"/>
    <path clip-path="url(#p0cf10ac09d)" d="M 146.44125 264.216 
L 147.94125 262.716 
L 149.44125 264.216 
L 150.94125 262.716 
L 149.44125 261.216 
L 150.94125 259.716 
L 149.44125 258.216 
L 147.94125 259.716 
L 146.44125 258.216 
L 144.94125 259.716 
L 146.44125 261.216 
L 144.94125 262.716 
z
" style="fill:#2f9599;stroke:#ffffff;stroke-width:0.48;"/>
    <path clip-path="url(#p0cf10ac09d)" d="M 153.204886 264.216 
L 154.704886 262.716 
L 156.204886 264.216 
L 157.704886 262.716 
L 156.204886 261.216 
L 157.704886 259.716 
L 156.204886 258.216 
L 154.704886 259.716 
L 153.204886 258.216 
L 151.704886 259.716 
L 153.204886 261.216 
L 151.704886 262.716 
z
" style="fill:#2f9599;stroke:#ffffff;stroke-width:0.48;"/>
    <path clip-path="url(#p0cf10ac09d)" d="M 159.968523 264.216 
L 161.468523 262.716 
L 162.968523 264.216 
L 164.468523 262.716 
L 162.968523 261.216 
L 164.468523 259.716 
L 162.968523 258.216 
L 161.468523 259.716 
L 159.968523 258.216 
L 158.468523 259.716 
L 159.968523 261.216 
L 158.468523 262.716 
z
" style="fill:#2f9599;stroke:#ffffff;stroke-width:0.48;"/>
    <path clip-path="url(#p0cf10ac09d)" d="M 166.732159 263.05084 
L 168.232159 261.55084 
L 169.732159 263.05084 
L 171.232159 261.55084 
L 169.732159 260.05084 
L 171.232159 258.55084 
L 169.732159 257.05084 
L 168.232159 258.55084 
L 166.732159 257.05084 
L 165.232159 258.55084 
L 166.732159 260.05084 
L 165.232159 261.55084 
z
" style="fill:#2f9599;stroke:#ffffff;stroke-width:0.48;"/>
    <path clip-path="url(#p0cf10ac09d)" d="M 173.495795 263.05084 
L 174.995795 261.55084 
L 176.495795 263.05084 
L 177.995795 261.55084 
L 176.495795 260.05084 
L 177.995795 258.55084 
L 176.495795 257.05084 
L 174.995795 258.55084 
L 173.495795 257.05084 
L 171.995795 258.55084 
L 173.495795 260.05084 
L 171.995795 261.55084 
z
" style="fill:#2f9599;stroke:#ffffff;stroke-width:0.48;"/>
    <path clip-path="url(#p0cf10ac09d)" d="M 180.259432 263.05084 
L 181.759432 261.55084 
L 183.259432 263.05084 
L 184.759432 261.55084 
L 183.259432 260.05084 
L 184.759432 258.55084 
L 183.259432 257.05084 
L 181.759432 258.55084 
L 180.259432 257.05084 
L 178.759432 258.55084 
L 180.259432 260.05084 
L 178.759432 261.55084 
z
" style="fill:#2f9599;stroke:#ffffff;stroke-width:0.48;"/>
    <path clip-path="url(#p0cf10ac09d)" d="M 187.023068 263.05084 
L 188.523068 261.55084 
L 190.023068 263.05084 
L 191.523068 261.55084 
L 190.023068 260.05084 
L 191.523068 258.55084 
L 190.023068 257.05084 
L 188.523068 258.55084 
L 187.023068 257.05084 
L 185.523068 258.55084 
L 187.023068 260.05084 
L 185.523068 261.55084 
z
" style="fill:#2f9599;stroke:#ffffff;stroke-width:0.48;"/>
    <path clip-path="url(#p0cf10ac09d)" d="M 193.786705 263.05084 
L 195.286705 261.55084 
L 196.786705 263.05084 
L 198.286705 261.55084 
L 196.786705 260.05084 
L 198.286705 258.55084 
L 196.786705 257.05084 
L 195.286705 258.55084 
L 193.786705 257.05084 
L 192.286705 258.55084 
L 193.786705 260.05084 
L 192.286705 261.55084 
z
" style="fill:#2f9599;stroke:#ffffff;stroke-width:0.48;"/>
    <path clip-path="url(#p0cf10ac09d)" d="M 200.550341 263.05084 
L 202.050341 261.55084 
L 203.550341 263.05084 
L 205.050341 261.55084 
L 203.550341 260.05084 
L 205.050341 258.55084 
L 203.550341 257.05084 
L 202.050341 258.55084 
L 200.550341 257.05084 
L 199.050341 258.55084 
L 200.550341 260.05084 
L 199.050341 261.55084 
z
" style="fill:#2f9599;stroke:#ffffff;stroke-width:0.48;"/>
    <path clip-path="url(#p0cf10ac09d)" d="M 207.313977 263.05084 
L 208.813977 261.55084 
L 210.313977 263.05084 
L 211.813977 261.55084 
L 210.313977 260.05084 
L 211.813977 258.55084 
L 210.313977 257.05084 
L 208.813977 258.55084 
L 207.313977 257.05084 
L 205.813977 258.55084 
L 207.313977 260.05084 
L 205.813977 261.55084 
z
" style="fill:#2f9599;stroke:#ffffff;stroke-width:0.48;"/>
    <path clip-path="url(#p0cf10ac09d)" d="M 214.077614 263.05084 
L 215.577614 261.55084 
L 217.077614 263.05084 
L 218.577614 261.55084 
L 217.077614 260.05084 
L 218.577614 258.55084 
L 217.077614 257.05084 
L 215.577614 258.55084 
L 214.077614 257.05084 
L 212.577614 258.55084 
L 214.077614 260.05084 
L 212.577614 261.55084 
z
" style="fill:#2f9599;stroke:#ffffff;stroke-width:0.48;"/>
    <path clip-path="url(#p0cf10ac09d)" d="M 220.84125 263.05084 
L 222.34125 261.55084 
L 223.84125 263.05084 
L 225.34125 261.55084 
L 223.84125 260.05084 
L 225.34125 258.55084 
L 223.84125 257.05084 
L 222.34125 258.55084 
L 220.84125 257.05084 
L 219.34125 258.55084 
L 220.84125 260.05084 
L 219.34125 261.55084 
z
" style="fill:#2f9599;stroke:#ffffff;stroke-width:0.48;"/>
    <path clip-path="url(#p0cf10ac09d)" d="M 227.604886 263.05084 
L 229.104886 261.55084 
L 230.604886 263.05084 
L 232.104886 261.55084 
L 230.604886 260.05084 
L 232.104886 258.55084 
L 230.604886 257.05084 
L 229.104886 258.55084 
L 227.604886 257.05084 
L 226.104886 258.55084 
L 227.604886 260.05084 
L 226.104886 261.55084 
z
" style="fill:#2f9599;stroke:#ffffff;stroke-width:0.48;"/>
    <path clip-path="url(#p0cf10ac09d)" d="M 234.368523 263.05084 
L 235.868523 261.55084 
L 237.368523 263.05084 
L 238.868523 261.55084 
L 237.368523 260.05084 
L 238.868523 258.55084 
L 237.368523 257.05084 
L 235.868523 258.55084 
L 234.368523 257.05084 
L 232.868523 258.55084 
L 234.368523 260.05084 
L 232.868523 261.55084 
z
" style="fill:#2f9599;stroke:#ffffff;stroke-width:0.48;"/>
    <path clip-path="url(#p0cf10ac09d)" d="M 241.132159 263.05084 
L 242.632159 261.55084 
L 244.132159 263.05084 
L 245.632159 261.55084 
L 244.132159 260.05084 
L 245.632159 258.55084 
L 244.132159 257.05084 
L 242.632159 258.55084 
L 241.132159 257.05084 
L 239.632159 258.55084 
L 241.132159 260.05084 
L 239.632159 261.55084 
z
" style="fill:#2f9599;stroke:#ffffff;stroke-width:0.48;"/>
    <path clip-path="url(#p0cf10ac09d)" d="M 247.895795 263.05084 
L 249.395795 261.55084 
L 250.895795 263.05084 
L 252.395795 261.55084 
L 250.895795 260.05084 
L 252.395795 258.55084 
L 250.895795 257.05084 
L 249.395795 258.55084 
L 247.895795 257.05084 
L 246.395795 258.55084 
L 247.895795 260.05084 
L 246.395795 261.55084 
z
" style="fill:#2f9599;stroke:#ffffff;stroke-width:0.48;"/>
    <path clip-path="url(#p0cf10ac09d)" d="M 254.659432 263.05084 
L 256.159432 261.55084 
L 257.659432 263.05084 
L 259.159432 261.55084 
L 257.659432 260.05084 
L 259.159432 258.55084 
L 257.659432 257.05084 
L 256.159432 258.55084 
L 254.659432 257.05084 
L 253.159432 258.55084 
L 254.659432 260.05084 
L 253.159432 261.55084 
z
" style="fill:#2f9599;stroke:#ffffff;stroke-width:0.48;"/>
    <path clip-path="url(#p0cf10ac09d)" d="M 261.423068 263.05084 
L 262.923068 261.55084 
L 264.423068 263.05084 
L 265.923068 261.55084 
L 264.423068 260.05084 
L 265.923068 258.55084 
L 264.423068 257.05084 
L 262.923068 258.55084 
L 261.423068 257.05084 
L 259.923068 258.55084 
L 261.423068 260.05084 
L 259.923068 261.55084 
z
" style="fill:#2f9599;stroke:#ffffff;stroke-width:0.48;"/>
    <path clip-path="url(#p0cf10ac09d)" d="M 268.186705 263.05084 
L 269.686705 261.55084 
L 271.186705 263.05084 
L 272.686705 261.55084 
L 271.186705 260.05084 
L 272.686705 258.55084 
L 271.186705 257.05084 
L 269.686705 258.55084 
L 268.186705 257.05084 
L 266.686705 258.55084 
L 268.186705 260.05084 
L 266.686705 261.55084 
z
" style="fill:#2f9599;stroke:#ffffff;stroke-width:0.48;"/>
    <path clip-path="url(#p0cf10ac09d)" d="M 274.950341 263.05084 
L 276.450341 261.55084 
L 277.950341 263.05084 
L 279.450341 261.55084 
L 277.950341 260.05084 
L 279.450341 258.55084 
L 277.950341 257.05084 
L 276.450341 258.55084 
L 274.950341 257.05084 
L 273.450341 258.55084 
L 274.950341 260.05084 
L 273.450341 261.55084 
z
" style="fill:#2f9599;stroke:#ffffff;stroke-width:0.48;"/>
    <path clip-path="url(#p0cf10ac09d)" d="M 281.713977 263.05084 
L 283.213977 261.55084 
L 284.713977 263.05084 
L 286.213977 261.55084 
L 284.713977 260.05084 
L 286.213977 258.55084 
L 284.713977 257.05084 
L 283.213977 258.55084 
L 281.713977 257.05084 
L 280.213977 258.55084 
L 281.713977 260.05084 
L 280.213977 261.55084 
z
" style="fill:#2f9599;stroke:#ffffff;stroke-width:0.48;"/>
    <path clip-path="url(#p0cf10ac09d)" d="M 288.477614 263.05084 
L 289.977614 261.55084 
L 291.477614 263.05084 
L 292.977614 261.55084 
L 291.477614 260.05084 
L 292.977614 258.55084 
L 291.477614 257.05084 
L 289.977614 258.55084 
L 288.477614 257.05084 
L 286.977614 258.55084 
L 288.477614 260.05084 
L 286.977614 261.55084 
z
" style="fill:#2f9599;stroke:#ffffff;stroke-width:0.48;"/>
    <path clip-path="url(#p0cf10ac09d)" d="M 295.24125 263.05084 
L 296.74125 261.55084 
L 298.24125 263.05084 
L 299.74125 261.55084 
L 298.24125 260.05084 
L 299.74125 258.55084 
L 298.24125 257.05084 
L 296.74125 258.55084 
L 295.24125 257.05084 
L 293.74125 258.55084 
L 295.24125 260.05084 
L 293.74125 261.55084 
z
" style="fill:#2f9599;stroke:#ffffff;stroke-width:0.48;"/>
    <path clip-path="url(#p0cf10ac09d)" d="M 302.004886 263.05084 
L 303.504886 261.55084 
L 305.004886 263.05084 
L 306.504886 261.55084 
L 305.004886 260.05084 
L 306.504886 258.55084 
L 305.004886 257.05084 
L 303.504886 258.55084 
L 302.004886 257.05084 
L 300.504886 258.55084 
L 302.004886 260.05084 
L 300.504886 261.55084 
z
" style="fill:#2f9599;stroke:#ffffff;stroke-width:0.48;"/>
    <path clip-path="url(#p0cf10ac09d)" d="M 308.768523 263.05084 
L 310.268523 261.55084 
L 311.768523 263.05084 
L 313.268523 261.55084 
L 311.768523 260.05084 
L 313.268523 258.55084 
L 311.768523 257.05084 
L 310.268523 258.55084 
L 308.768523 257.05084 
L 307.268523 258.55084 
L 308.768523 260.05084 
L 307.268523 261.55084 
z
" style="fill:#2f9599;stroke:#ffffff;stroke-width:0.48;"/>
    <path clip-path="url(#p0cf10ac09d)" d="M 315.532159 263.05084 
L 317.032159 261.55084 
L 318.532159 263.05084 
L 320.032159 261.55084 
L 318.532159 260.05084 
L 320.032159 258.55084 
L 318.532159 257.05084 
L 317.032159 258.55084 
L 315.532159 257.05084 
L 314.032159 258.55084 
L 315.532159 260.05084 
L 314.032159 261.55084 
z
" style="fill:#2f9599;stroke:#ffffff;stroke-width:0.48;"/>
    <path clip-path="url(#p0cf10ac09d)" d="M 322.295795 263.05084 
L 323.795795 261.55084 
L 325.295795 263.05084 
L 326.795795 261.55084 
L 325.295795 260.05084 
L 326.795795 258.55084 
L 325.295795 257.05084 
L 323.795795 258.55084 
L 322.295795 257.05084 
L 320.795795 258.55084 
L 322.295795 260.05084 
L 320.795795 261.55084 
z
" style="fill:#2f9599;stroke:#ffffff;stroke-width:0.48;"/>
    <path clip-path="url(#p0cf10ac09d)" d="M 329.059432 263.05084 
L 330.559432 261.55084 
L 332.059432 263.05084 
L 333.559432 261.55084 
L 332.059432 260.05084 
L 333.559432 258.55084 
L 332.059432 257.05084 
L 330.559432 258.55084 
L 329.059432 257.05084 
L 327.559432 258.55084 
L 329.059432 260.05084 
L 327.559432 261.55084 
z
" style="fill:#2f9599;stroke:#ffffff;stroke-width:0.48;"/>
    <path clip-path="url(#p0cf10ac09d)" d="M 335.823068 263.05084 
L 337.323068 261.55084 
L 338.823068 263.05084 
L 340.323068 261.55084 
L 338.823068 260.05084 
L 340.323068 258.55084 
L 338.823068 257.05084 
L 337.323068 258.55084 
L 335.823068 257.05084 
L 334.323068 258.55084 
L 335.823068 260.05084 
L 334.323068 261.55084 
z
" style="fill:#2f9599;stroke:#ffffff;stroke-width:0.48;"/>
    <path clip-path="url(#p0cf10ac09d)" d="M 342.586705 263.05084 
L 344.086705 261.55084 
L 345.586705 263.05084 
L 347.086705 261.55084 
L 345.586705 260.05084 
L 347.086705 258.55084 
L 345.586705 257.05084 
L 344.086705 258.55084 
L 342.586705 257.05084 
L 341.086705 258.55084 
L 342.586705 260.05084 
L 341.086705 261.55084 
z
" style="fill:#2f9599;stroke:#ffffff;stroke-width:0.48;"/>
    <path clip-path="url(#p0cf10ac09d)" d="M 349.350341 263.05084 
L 350.850341 261.55084 
L 352.350341 263.05084 
L 353.850341 261.55084 
L 352.350341 260.05084 
L 353.850341 258.55084 
L 352.350341 257.05084 
L 350.850341 258.55084 
L 349.350341 257.05084 
L 347.850341 258.55084 
L 349.350341 260.05084 
L 347.850341 261.55084 
z
" style="fill:#2f9599;stroke:#ffffff;stroke-width:0.48;"/>
    <path clip-path="url(#p0cf10ac09d)" d="M 356.113977 263.05084 
L 357.613977 261.55084 
L 359.113977 263.05084 
L 360.613977 261.55084 
L 359.113977 260.05084 
L 360.613977 258.55084 
L 359.113977 257.05084 
L 357.613977 258.55084 
L 356.113977 257.05084 
L 354.613977 258.55084 
L 356.113977 260.05084 
L 354.613977 261.55084 
z
" style="fill:#2f9599;stroke:#ffffff;stroke-width:0.48;"/>
    <path clip-path="url(#p0cf10ac09d)" d="M 362.877614 263.05084 
L 364.377614 261.55084 
L 365.877614 263.05084 
L 367.377614 261.55084 
L 365.877614 260.05084 
L 367.377614 258.55084 
L 365.877614 257.05084 
L 364.377614 258.55084 
L 362.877614 257.05084 
L 361.377614 258.55084 
L 362.877614 260.05084 
L 361.377614 261.55084 
z
" style="fill:#2f9599;stroke:#ffffff;stroke-width:0.48;"/>
    <path clip-path="url(#p0cf10ac09d)" d="M 369.64125 263.05084 
L 371.14125 261.55084 
L 372.64125 263.05084 
L 374.14125 261.55084 
L 372.64125 260.05084 
L 374.14125 258.55084 
L 372.64125 257.05084 
L 371.14125 258.55084 
L 369.64125 257.05084 
L 368.14125 258.55084 
L 369.64125 260.05084 
L 368.14125 261.55084 
z
" style="fill:#2f9599;stroke:#ffffff;stroke-width:0.48;"/>
    <path clip-path="url(#p0cf10ac09d)" d="M 376.404886 263.05084 
L 377.904886 261.55084 
L 379.404886 263.05084 
L 380.904886 261.55084 
L 379.404886 260.05084 
L 380.904886 258.55084 
L 379.404886 257.05084 
L 377.904886 258.55084 
L 376.404886 257.05084 
L 374.904886 258.55084 
L 376.404886 260.05084 
L 374.904886 261.55084 
z
" style="fill:#2f9599;stroke:#ffffff;stroke-width:0.48;"/>
    <path clip-path="url(#p0cf10ac09d)" d="M 383.168523 263.05084 
L 384.668523 261.55084 
L 386.168523 263.05084 
L 387.668523 261.55084 
L 386.168523 260.05084 
L 387.668523 258.55084 
L 386.168523 257.05084 
L 384.668523 258.55084 
L 383.168523 257.05084 
L 381.668523 258.55084 
L 383.168523 260.05084 
L 381.668523 261.55084 
z
" style="fill:#2f9599;stroke:#ffffff;stroke-width:0.48;"/>
    <path clip-path="url(#p0cf10ac09d)" d="M 57.892657 25.724366 
L 57.892657 29.967007 
L 62.135298 29.967007 
L 62.135298 25.724366 
z
" style="fill:#a7226e;stroke:#ffffff;stroke-width:0.48;"/>
    <path clip-path="url(#p0cf10ac09d)" d="M 64.656293 25.724366 
L 64.656293 29.967007 
L 68.898934 29.967007 
L 68.898934 25.724366 
z
" style="fill:#a7226e;stroke:#ffffff;stroke-width:0.48;"/>
    <path clip-path="url(#p0cf10ac09d)" d="M 71.41993 25.724366 
L 71.41993 29.967007 
L 75.66257 29.967007 
L 75.66257 25.724366 
z
" style="fill:#a7226e;stroke:#ffffff;stroke-width:0.48;"/>
    <path clip-path="url(#p0cf10ac09d)" d="M 78.183566 25.724366 
L 78.183566 29.967007 
L 82.426207 29.967007 
L 82.426207 25.724366 
z
" style="fill:#a7226e;stroke:#ffffff;stroke-width:0.48;"/>
    <path clip-path="url(#p0cf10ac09d)" d="M 84.947202 25.724366 
L 84.947202 29.967007 
L 89.189843 29.967007 
L 89.189843 25.724366 
z
" style="fill:#a7226e;stroke:#ffffff;stroke-width:0.48;"/>
    <path clip-path="url(#p0cf10ac09d)" d="M 91.710839 25.724366 
L 91.710839 29.967007 
L 95.953479 29.967007 
L 95.953479 25.724366 
z
" style="fill:#a7226e;stroke:#ffffff;stroke-width:0.48;"/>
    <path clip-path="url(#p0cf10ac09d)" d="M 98.474475 25.724366 
L 98.474475 29.967007 
L 102.717116 29.967007 
L 102.717116 25.724366 
z
" style="fill:#a7226e;stroke:#ffffff;stroke-width:0.48;"/>
    <path clip-path="url(#p0cf10ac09d)" d="M 105.238111 43.986496 
L 105.238111 48.229137 
L 109.480752 48.229137 
L 109.480752 43.986496 
z
" style="fill:#a7226e;stroke:#ffffff;stroke-width:0.48;"/>
    <path clip-path="url(#p0cf10ac09d)" d="M 112.001748 51.675179 
L 112.001748 55.91782 
L 116.244389 55.91782 
L 116.244389 51.675179 
z
" style="fill:#a7226e;stroke:#ffffff;stroke-width:0.48;"/>
    <path clip-path="url(#p0cf10ac09d)" d="M 118.765384 59.068143 
L 118.765384 63.310784 
L 123.008025 63.310784 
L 123.008025 59.068143 
z
" style="fill:#a7226e;stroke:#ffffff;stroke-width:0.48;"/>
    <path clip-path="url(#p0cf10ac09d)" d="M 125.529021 59.068143 
L 125.529021 63.310784 
L 129.771661 63.310784 
L 129.771661 59.068143 
z
" style="fill:#a7226e;stroke:#ffffff;stroke-width:0.48;"/>
    <path clip-path="url(#p0cf10ac09d)" d="M 132.292657 59.068143 
L 132.292657 63.310784 
L 136.535298 63.310784 
L 136.535298 59.068143 
z
" style="fill:#a7226e;stroke:#ffffff;stroke-width:0.48;"/>
    <path clip-path="url(#p0cf10ac09d)" d="M 139.056293 79.634025 
L 139.056293 83.876666 
L 143.298934 83.876666 
L 143.298934 79.634025 
z
" style="fill:#a7226e;stroke:#ffffff;stroke-width:0.48;"/>
    <path clip-path="url(#p0cf10ac09d)" d="M 145.81993 85.999655 
L 145.81993 90.242296 
L 150.06257 90.242296 
L 150.06257 85.999655 
z
" style="fill:#a7226e;stroke:#ffffff;stroke-width:0.48;"/>
    <path clip-path="url(#p0cf10ac09d)" d="M 152.583566 124.900728 
L 152.583566 129.143369 
L 156.826207 129.143369 
L 156.826207 124.900728 
z
" style="fill:#a7226e;stroke:#ffffff;stroke-width:0.48;"/>
    <path clip-path="url(#p0cf10ac09d)" d="M 159.347202 124.900728 
L 159.347202 129.143369 
L 163.589843 129.143369 
L 163.589843 124.900728 
z
" style="fill:#a7226e;stroke:#ffffff;stroke-width:0.48;"/>
    <path clip-path="url(#p0cf10ac09d)" d="M 166.110839 172.778972 
L 166.110839 177.021613 
L 170.353479 177.021613 
L 170.353479 172.778972 
z
" style="fill:#a7226e;stroke:#ffffff;stroke-width:0.48;"/>
    <path clip-path="url(#p0cf10ac09d)" d="M 172.874475 188.738387 
L 172.874475 192.981028 
L 177.117116 192.981028 
L 177.117116 188.738387 
z
" style="fill:#a7226e;stroke:#ffffff;stroke-width:0.48;"/>
    <path clip-path="url(#p0cf10ac09d)" d="M 179.638111 188.738387 
L 179.638111 192.981028 
L 183.880752 192.981028 
L 183.880752 188.738387 
z
" style="fill:#a7226e;stroke:#ffffff;stroke-width:0.48;"/>
    <path clip-path="url(#p0cf10ac09d)" d="M 186.401748 188.615622 
L 186.401748 192.858263 
L 190.644389 192.858263 
L 190.644389 188.615622 
z
" style="fill:#a7226e;stroke:#ffffff;stroke-width:0.48;"/>
    <path clip-path="url(#p0cf10ac09d)" d="M 193.165384 188.615622 
L 193.165384 192.858263 
L 197.408025 192.858263 
L 197.408025 188.615622 
z
" style="fill:#a7226e;stroke:#ffffff;stroke-width:0.48;"/>
    <path clip-path="url(#p0cf10ac09d)" d="M 199.929021 192.856946 
L 199.929021 197.099586 
L 204.171661 197.099586 
L 204.171661 192.856946 
z
" style="fill:#a7226e;stroke:#ffffff;stroke-width:0.48;"/>
    <path clip-path="url(#p0cf10ac09d)" d="M 206.692657 192.856946 
L 206.692657 197.099586 
L 210.935298 197.099586 
L 210.935298 192.856946 
z
" style="fill:#a7226e;stroke:#ffffff;stroke-width:0.48;"/>
    <path clip-path="url(#p0cf10ac09d)" d="M 213.456293 168.531709 
L 213.456293 172.774349 
L 217.698934 172.774349 
L 217.698934 168.531709 
z
" style="fill:#a7226e;stroke:#ffffff;stroke-width:0.48;"/>
    <path clip-path="url(#p0cf10ac09d)" d="M 220.21993 168.531709 
L 220.21993 172.774349 
L 224.46257 172.774349 
L 224.46257 168.531709 
z
" style="fill:#a7226e;stroke:#ffffff;stroke-width:0.48;"/>
    <path clip-path="url(#p0cf10ac09d)" d="M 226.983566 180.881444 
L 226.983566 185.124085 
L 231.226207 185.124085 
L 231.226207 180.881444 
z
" style="fill:#a7226e;stroke:#ffffff;stroke-width:0.48;"/>
    <path clip-path="url(#p0cf10ac09d)" d="M 233.747202 204.083978 
L 233.747202 208.326619 
L 237.989843 208.326619 
L 237.989843 204.083978 
z
" style="fill:#a7226e;stroke:#ffffff;stroke-width:0.48;"/>
    <path clip-path="url(#p0cf10ac09d)" d="M 240.510839 207.599513 
L 240.510839 211.842154 
L 244.753479 211.842154 
L 244.753479 207.599513 
z
" style="fill:#a7226e;stroke:#ffffff;stroke-width:0.48;"/>
    <path clip-path="url(#p0cf10ac09d)" d="M 247.274475 207.599513 
L 247.274475 211.842154 
L 251.517116 211.842154 
L 251.517116 207.599513 
z
" style="fill:#a7226e;stroke:#ffffff;stroke-width:0.48;"/>
    <path clip-path="url(#p0cf10ac09d)" d="M 254.038111 207.599513 
L 254.038111 211.842154 
L 258.280752 211.842154 
L 258.280752 207.599513 
z
" style="fill:#a7226e;stroke:#ffffff;stroke-width:0.48;"/>
    <path clip-path="url(#p0cf10ac09d)" d="M 260.801748 223.691753 
L 260.801748 227.934394 
L 265.044389 227.934394 
L 265.044389 223.691753 
z
" style="fill:#a7226e;stroke:#ffffff;stroke-width:0.48;"/>
    <path clip-path="url(#p0cf10ac09d)" d="M 267.565384 223.691753 
L 267.565384 227.934394 
L 271.808025 227.934394 
L 271.808025 223.691753 
z
" style="fill:#a7226e;stroke:#ffffff;stroke-width:0.48;"/>
    <path clip-path="url(#p0cf10ac09d)" d="M 274.329021 223.691753 
L 274.329021 227.934394 
L 278.571661 227.934394 
L 278.571661 223.691753 
z
" style="fill:#a7226e;stroke:#ffffff;stroke-width:0.48;"/>
    <path clip-path="url(#p0cf10ac09d)" d="M 281.092657 226.1117 
L 281.092657 230.35434 
L 285.335298 230.35434 
L 285.335298 226.1117 
z
" style="fill:#a7226e;stroke:#ffffff;stroke-width:0.48;"/>
    <path clip-path="url(#p0cf10ac09d)" d="M 287.856293 226.1117 
L 287.856293 230.35434 
L 292.098934 230.35434 
L 292.098934 226.1117 
z
" style="fill:#a7226e;stroke:#ffffff;stroke-width:0.48;"/>
    <path clip-path="url(#p0cf10ac09d)" d="M 294.61993 226.1117 
L 294.61993 230.35434 
L 298.86257 230.35434 
L 298.86257 226.1117 
z
" style="fill:#a7226e;stroke:#ffffff;stroke-width:0.48;"/>
    <path clip-path="url(#p0cf10ac09d)" d="M 301.383566 226.1117 
L 301.383566 230.35434 
L 305.626207 230.35434 
L 305.626207 226.1117 
z
" style="fill:#a7226e;stroke:#ffffff;stroke-width:0.48;"/>
    <path clip-path="url(#p0cf10ac09d)" d="M 308.147202 226.1117 
L 308.147202 230.35434 
L 312.389843 230.35434 
L 312.389843 226.1117 
z
" style="fill:#a7226e;stroke:#ffffff;stroke-width:0.48;"/>
    <path clip-path="url(#p0cf10ac09d)" d="M 314.910839 226.1117 
L 314.910839 230.35434 
L 319.153479 230.35434 
L 319.153479 226.1117 
z
" style="fill:#a7226e;stroke:#ffffff;stroke-width:0.48;"/>
    <path clip-path="url(#p0cf10ac09d)" d="M 321.674475 226.1117 
L 321.674475 230.35434 
L 325.917116 230.35434 
L 325.917116 226.1117 
z
" style="fill:#a7226e;stroke:#ffffff;stroke-width:0.48;"/>
    <path clip-path="url(#p0cf10ac09d)" d="M 328.438111 226.1117 
L 328.438111 230.35434 
L 332.680752 230.35434 
L 332.680752 226.1117 
z
" style="fill:#a7226e;stroke:#ffffff;stroke-width:0.48;"/>
    <path clip-path="url(#p0cf10ac09d)" d="M 335.201748 226.1117 
L 335.201748 230.35434 
L 339.444389 230.35434 
L 339.444389 226.1117 
z
" style="fill:#a7226e;stroke:#ffffff;stroke-width:0.48;"/>
    <path clip-path="url(#p0cf10ac09d)" d="M 341.965384 226.1117 
L 341.965384 230.35434 
L 346.208025 230.35434 
L 346.208025 226.1117 
z
" style="fill:#a7226e;stroke:#ffffff;stroke-width:0.48;"/>
    <path clip-path="url(#p0cf10ac09d)" d="M 348.729021 226.1117 
L 348.729021 230.35434 
L 352.971661 230.35434 
L 352.971661 226.1117 
z
" style="fill:#a7226e;stroke:#ffffff;stroke-width:0.48;"/>
    <path clip-path="url(#p0cf10ac09d)" d="M 355.492657 226.1117 
L 355.492657 230.35434 
L 359.735298 230.35434 
L 359.735298 226.1117 
z
" style="fill:#a7226e;stroke:#ffffff;stroke-width:0.48;"/>
    <path clip-path="url(#p0cf10ac09d)" d="M 362.256293 226.1117 
L 362.256293 230.35434 
L 366.498934 230.35434 
L 366.498934 226.1117 
z
" style="fill:#a7226e;stroke:#ffffff;stroke-width:0.48;"/>
    <path clip-path="url(#p0cf10ac09d)" d="M 369.01993 226.1117 
L 369.01993 230.35434 
L 373.26257 230.35434 
L 373.26257 226.1117 
z
" style="fill:#a7226e;stroke:#ffffff;stroke-width:0.48;"/>
    <path clip-path="url(#p0cf10ac09d)" d="M 375.783566 226.1117 
L 375.783566 230.35434 
L 380.026207 230.35434 
L 380.026207 226.1117 
z
" style="fill:#a7226e;stroke:#ffffff;stroke-width:0.48;"/>
    <path clip-path="url(#p0cf10ac09d)" d="M 382.547202 226.1117 
L 382.547202 230.35434 
L 386.789843 230.35434 
L 386.789843 226.1117 
z
" style="fill:#a7226e;stroke:#ffffff;stroke-width:0.48;"/>
   </g>
   <g id="PathCollection_2"/>
   <g id="PathCollection_3"/>
   <g id="PathCollection_4"/>
   <g id="matplotlib.axis_1">
    <g id="xtick_1">
     <g id="line2d_1">
      <defs>
       <path d="M 0 0 
L 0 3.5 
" id="m7cf208fad8" style="stroke:#000000;stroke-width:0.8;"/>
      </defs>
      <g>
       <use style="stroke:#000000;stroke-width:0.8;" x="53.250341" xlink:href="#m7cf208fad8" y="273.312"/>
      </g>
     </g>
     <g id="text_1">
      <!-- 0.0 -->
      <g transform="translate(45.298778 287.910437)scale(0.1 -0.1)">
       <defs>
        <path d="M 31.78125 66.40625 
Q 24.171875 66.40625 20.328125 58.90625 
Q 16.5 51.421875 16.5 36.375 
Q 16.5 21.390625 20.328125 13.890625 
Q 24.171875 6.390625 31.78125 6.390625 
Q 39.453125 6.390625 43.28125 13.890625 
Q 47.125 21.390625 47.125 36.375 
Q 47.125 51.421875 43.28125 58.90625 
Q 39.453125 66.40625 31.78125 66.40625 
z
M 31.78125 74.21875 
Q 44.046875 74.21875 50.515625 64.515625 
Q 56.984375 54.828125 56.984375 36.375 
Q 56.984375 17.96875 50.515625 8.265625 
Q 44.046875 -1.421875 31.78125 -1.421875 
Q 19.53125 -1.421875 13.0625 8.265625 
Q 6.59375 17.96875 6.59375 36.375 
Q 6.59375 54.828125 13.0625 64.515625 
Q 19.53125 74.21875 31.78125 74.21875 
z
" id="DejaVuSans-48"/>
        <path d="M 10.6875 12.40625 
L 21 12.40625 
L 21 0 
L 10.6875 0 
z
" id="DejaVuSans-46"/>
       </defs>
       <use xlink:href="#DejaVuSans-48"/>
       <use x="63.623047" xlink:href="#DejaVuSans-46"/>
       <use x="95.410156" xlink:href="#DejaVuSans-48"/>
      </g>
     </g>
    </g>
    <g id="xtick_2">
     <g id="line2d_2">
      <g>
       <use style="stroke:#000000;stroke-width:0.8;" x="120.886705" xlink:href="#m7cf208fad8" y="273.312"/>
      </g>
     </g>
     <g id="text_2">
      <!-- 0.2 -->
      <g transform="translate(112.935142 287.910437)scale(0.1 -0.1)">
       <defs>
        <path d="M 19.1875 8.296875 
L 53.609375 8.296875 
L 53.609375 0 
L 7.328125 0 
L 7.328125 8.296875 
Q 12.9375 14.109375 22.625 23.890625 
Q 32.328125 33.6875 34.8125 36.53125 
Q 39.546875 41.84375 41.421875 45.53125 
Q 43.3125 49.21875 43.3125 52.78125 
Q 43.3125 58.59375 39.234375 62.25 
Q 35.15625 65.921875 28.609375 65.921875 
Q 23.96875 65.921875 18.8125 64.3125 
Q 13.671875 62.703125 7.8125 59.421875 
L 7.8125 69.390625 
Q 13.765625 71.78125 18.9375 73 
Q 24.125 74.21875 28.421875 74.21875 
Q 39.75 74.21875 46.484375 68.546875 
Q 53.21875 62.890625 53.21875 53.421875 
Q 53.21875 48.921875 51.53125 44.890625 
Q 49.859375 40.875 45.40625 35.40625 
Q 44.1875 33.984375 37.640625 27.21875 
Q 31.109375 20.453125 19.1875 8.296875 
z
" id="DejaVuSans-50"/>
       </defs>
       <use xlink:href="#DejaVuSans-48"/>
       <use x="63.623047" xlink:href="#DejaVuSans-46"/>
       <use x="95.410156" xlink:href="#DejaVuSans-50"/>
      </g>
     </g>
    </g>
    <g id="xtick_3">
     <g id="line2d_3">
      <g>
       <use style="stroke:#000000;stroke-width:0.8;" x="188.523068" xlink:href="#m7cf208fad8" y="273.312"/>
      </g>
     </g>
     <g id="text_3">
      <!-- 0.4 -->
      <g transform="translate(180.571506 287.910437)scale(0.1 -0.1)">
       <defs>
        <path d="M 37.796875 64.3125 
L 12.890625 25.390625 
L 37.796875 25.390625 
z
M 35.203125 72.90625 
L 47.609375 72.90625 
L 47.609375 25.390625 
L 58.015625 25.390625 
L 58.015625 17.1875 
L 47.609375 17.1875 
L 47.609375 0 
L 37.796875 0 
L 37.796875 17.1875 
L 4.890625 17.1875 
L 4.890625 26.703125 
z
" id="DejaVuSans-52"/>
       </defs>
       <use xlink:href="#DejaVuSans-48"/>
       <use x="63.623047" xlink:href="#DejaVuSans-46"/>
       <use x="95.410156" xlink:href="#DejaVuSans-52"/>
      </g>
     </g>
    </g>
    <g id="xtick_4">
     <g id="line2d_4">
      <g>
       <use style="stroke:#000000;stroke-width:0.8;" x="256.159432" xlink:href="#m7cf208fad8" y="273.312"/>
      </g>
     </g>
     <g id="text_4">
      <!-- 0.6 -->
      <g transform="translate(248.207869 287.910437)scale(0.1 -0.1)">
       <defs>
        <path d="M 33.015625 40.375 
Q 26.375 40.375 22.484375 35.828125 
Q 18.609375 31.296875 18.609375 23.390625 
Q 18.609375 15.53125 22.484375 10.953125 
Q 26.375 6.390625 33.015625 6.390625 
Q 39.65625 6.390625 43.53125 10.953125 
Q 47.40625 15.53125 47.40625 23.390625 
Q 47.40625 31.296875 43.53125 35.828125 
Q 39.65625 40.375 33.015625 40.375 
z
M 52.59375 71.296875 
L 52.59375 62.3125 
Q 48.875 64.0625 45.09375 64.984375 
Q 41.3125 65.921875 37.59375 65.921875 
Q 27.828125 65.921875 22.671875 59.328125 
Q 17.53125 52.734375 16.796875 39.40625 
Q 19.671875 43.65625 24.015625 45.921875 
Q 28.375 48.1875 33.59375 48.1875 
Q 44.578125 48.1875 50.953125 41.515625 
Q 57.328125 34.859375 57.328125 23.390625 
Q 57.328125 12.15625 50.6875 5.359375 
Q 44.046875 -1.421875 33.015625 -1.421875 
Q 20.359375 -1.421875 13.671875 8.265625 
Q 6.984375 17.96875 6.984375 36.375 
Q 6.984375 53.65625 15.1875 63.9375 
Q 23.390625 74.21875 37.203125 74.21875 
Q 40.921875 74.21875 44.703125 73.484375 
Q 48.484375 72.75 52.59375 71.296875 
z
" id="DejaVuSans-54"/>
       </defs>
       <use xlink:href="#DejaVuSans-48"/>
       <use x="63.623047" xlink:href="#DejaVuSans-46"/>
       <use x="95.410156" xlink:href="#DejaVuSans-54"/>
      </g>
     </g>
    </g>
    <g id="xtick_5">
     <g id="line2d_5">
      <g>
       <use style="stroke:#000000;stroke-width:0.8;" x="323.795795" xlink:href="#m7cf208fad8" y="273.312"/>
      </g>
     </g>
     <g id="text_5">
      <!-- 0.8 -->
      <g transform="translate(315.844233 287.910437)scale(0.1 -0.1)">
       <defs>
        <path d="M 31.78125 34.625 
Q 24.75 34.625 20.71875 30.859375 
Q 16.703125 27.09375 16.703125 20.515625 
Q 16.703125 13.921875 20.71875 10.15625 
Q 24.75 6.390625 31.78125 6.390625 
Q 38.8125 6.390625 42.859375 10.171875 
Q 46.921875 13.96875 46.921875 20.515625 
Q 46.921875 27.09375 42.890625 30.859375 
Q 38.875 34.625 31.78125 34.625 
z
M 21.921875 38.8125 
Q 15.578125 40.375 12.03125 44.71875 
Q 8.5 49.078125 8.5 55.328125 
Q 8.5 64.0625 14.71875 69.140625 
Q 20.953125 74.21875 31.78125 74.21875 
Q 42.671875 74.21875 48.875 69.140625 
Q 55.078125 64.0625 55.078125 55.328125 
Q 55.078125 49.078125 51.53125 44.71875 
Q 48 40.375 41.703125 38.8125 
Q 48.828125 37.15625 52.796875 32.3125 
Q 56.78125 27.484375 56.78125 20.515625 
Q 56.78125 9.90625 50.3125 4.234375 
Q 43.84375 -1.421875 31.78125 -1.421875 
Q 19.734375 -1.421875 13.25 4.234375 
Q 6.78125 9.90625 6.78125 20.515625 
Q 6.78125 27.484375 10.78125 32.3125 
Q 14.796875 37.15625 21.921875 38.8125 
z
M 18.3125 54.390625 
Q 18.3125 48.734375 21.84375 45.5625 
Q 25.390625 42.390625 31.78125 42.390625 
Q 38.140625 42.390625 41.71875 45.5625 
Q 45.3125 48.734375 45.3125 54.390625 
Q 45.3125 60.0625 41.71875 63.234375 
Q 38.140625 66.40625 31.78125 66.40625 
Q 25.390625 66.40625 21.84375 63.234375 
Q 18.3125 60.0625 18.3125 54.390625 
z
" id="DejaVuSans-56"/>
       </defs>
       <use xlink:href="#DejaVuSans-48"/>
       <use x="63.623047" xlink:href="#DejaVuSans-46"/>
       <use x="95.410156" xlink:href="#DejaVuSans-56"/>
      </g>
     </g>
    </g>
    <g id="xtick_6">
     <g id="line2d_6">
      <g>
       <use style="stroke:#000000;stroke-width:0.8;" x="391.432159" xlink:href="#m7cf208fad8" y="273.312"/>
      </g>
     </g>
     <g id="text_6">
      <!-- 1.0 -->
      <g transform="translate(383.480597 287.910437)scale(0.1 -0.1)">
       <defs>
        <path d="M 12.40625 8.296875 
L 28.515625 8.296875 
L 28.515625 63.921875 
L 10.984375 60.40625 
L 10.984375 69.390625 
L 28.421875 72.90625 
L 38.28125 72.90625 
L 38.28125 8.296875 
L 54.390625 8.296875 
L 54.390625 0 
L 12.40625 0 
z
" id="DejaVuSans-49"/>
       </defs>
       <use xlink:href="#DejaVuSans-49"/>
       <use x="63.623047" xlink:href="#DejaVuSans-46"/>
       <use x="95.410156" xlink:href="#DejaVuSans-48"/>
      </g>
     </g>
    </g>
    <g id="text_7">
     <!-- cutoff -->
     <g transform="translate(207.883438 301.588562)scale(0.1 -0.1)">
      <defs>
       <path d="M 48.78125 52.59375 
L 48.78125 44.1875 
Q 44.96875 46.296875 41.140625 47.34375 
Q 37.3125 48.390625 33.40625 48.390625 
Q 24.65625 48.390625 19.8125 42.84375 
Q 14.984375 37.3125 14.984375 27.296875 
Q 14.984375 17.28125 19.8125 11.734375 
Q 24.65625 6.203125 33.40625 6.203125 
Q 37.3125 6.203125 41.140625 7.25 
Q 44.96875 8.296875 48.78125 10.40625 
L 48.78125 2.09375 
Q 45.015625 0.34375 40.984375 -0.53125 
Q 36.96875 -1.421875 32.421875 -1.421875 
Q 20.0625 -1.421875 12.78125 6.34375 
Q 5.515625 14.109375 5.515625 27.296875 
Q 5.515625 40.671875 12.859375 48.328125 
Q 20.21875 56 33.015625 56 
Q 37.15625 56 41.109375 55.140625 
Q 45.0625 54.296875 48.78125 52.59375 
z
" id="DejaVuSans-99"/>
       <path d="M 8.5 21.578125 
L 8.5 54.6875 
L 17.484375 54.6875 
L 17.484375 21.921875 
Q 17.484375 14.15625 20.5 10.265625 
Q 23.53125 6.390625 29.59375 6.390625 
Q 36.859375 6.390625 41.078125 11.03125 
Q 45.3125 15.671875 45.3125 23.6875 
L 45.3125 54.6875 
L 54.296875 54.6875 
L 54.296875 0 
L 45.3125 0 
L 45.3125 8.40625 
Q 42.046875 3.421875 37.71875 1 
Q 33.40625 -1.421875 27.6875 -1.421875 
Q 18.265625 -1.421875 13.375 4.4375 
Q 8.5 10.296875 8.5 21.578125 
z
M 31.109375 56 
z
" id="DejaVuSans-117"/>
       <path d="M 18.3125 70.21875 
L 18.3125 54.6875 
L 36.8125 54.6875 
L 36.8125 47.703125 
L 18.3125 47.703125 
L 18.3125 18.015625 
Q 18.3125 11.328125 20.140625 9.421875 
Q 21.96875 7.515625 27.59375 7.515625 
L 36.8125 7.515625 
L 36.8125 0 
L 27.59375 0 
Q 17.1875 0 13.234375 3.875 
Q 9.28125 7.765625 9.28125 18.015625 
L 9.28125 47.703125 
L 2.6875 47.703125 
L 2.6875 54.6875 
L 9.28125 54.6875 
L 9.28125 70.21875 
z
" id="DejaVuSans-116"/>
       <path d="M 30.609375 48.390625 
Q 23.390625 48.390625 19.1875 42.75 
Q 14.984375 37.109375 14.984375 27.296875 
Q 14.984375 17.484375 19.15625 11.84375 
Q 23.34375 6.203125 30.609375 6.203125 
Q 37.796875 6.203125 41.984375 11.859375 
Q 46.1875 17.53125 46.1875 27.296875 
Q 46.1875 37.015625 41.984375 42.703125 
Q 37.796875 48.390625 30.609375 48.390625 
z
M 30.609375 56 
Q 42.328125 56 49.015625 48.375 
Q 55.71875 40.765625 55.71875 27.296875 
Q 55.71875 13.875 49.015625 6.21875 
Q 42.328125 -1.421875 30.609375 -1.421875 
Q 18.84375 -1.421875 12.171875 6.21875 
Q 5.515625 13.875 5.515625 27.296875 
Q 5.515625 40.765625 12.171875 48.375 
Q 18.84375 56 30.609375 56 
z
" id="DejaVuSans-111"/>
       <path d="M 37.109375 75.984375 
L 37.109375 68.5 
L 28.515625 68.5 
Q 23.6875 68.5 21.796875 66.546875 
Q 19.921875 64.59375 19.921875 59.515625 
L 19.921875 54.6875 
L 34.71875 54.6875 
L 34.71875 47.703125 
L 19.921875 47.703125 
L 19.921875 0 
L 10.890625 0 
L 10.890625 47.703125 
L 2.296875 47.703125 
L 2.296875 54.6875 
L 10.890625 54.6875 
L 10.890625 58.5 
Q 10.890625 67.625 15.140625 71.796875 
Q 19.390625 75.984375 28.609375 75.984375 
z
" id="DejaVuSans-102"/>
      </defs>
      <use xlink:href="#DejaVuSans-99"/>
      <use x="54.980469" xlink:href="#DejaVuSans-117"/>
      <use x="118.359375" xlink:href="#DejaVuSans-116"/>
      <use x="157.568359" xlink:href="#DejaVuSans-111"/>
      <use x="218.75" xlink:href="#DejaVuSans-102"/>
      <use x="253.955078" xlink:href="#DejaVuSans-102"/>
     </g>
    </g>
   </g>
   <g id="matplotlib.axis_2">
    <g id="ytick_1">
     <g id="line2d_7">
      <defs>
       <path d="M 0 0 
L -3.5 0 
" id="m3023c02825" style="stroke:#000000;stroke-width:0.8;"/>
      </defs>
      <g>
       <use style="stroke:#000000;stroke-width:0.8;" x="43.78125" xlink:href="#m3023c02825" y="237.14201"/>
      </g>
     </g>
     <g id="text_8">
      <!-- 0.4 -->
      <g transform="translate(20.878125 240.941229)scale(0.1 -0.1)">
       <use xlink:href="#DejaVuSans-48"/>
       <use x="63.623047" xlink:href="#DejaVuSans-46"/>
       <use x="95.410156" xlink:href="#DejaVuSans-52"/>
      </g>
     </g>
    </g>
    <g id="ytick_2">
     <g id="line2d_8">
      <g>
       <use style="stroke:#000000;stroke-width:0.8;" x="43.78125" xlink:href="#m3023c02825" y="186.869854"/>
      </g>
     </g>
     <g id="text_9">
      <!-- 0.5 -->
      <g transform="translate(20.878125 190.669072)scale(0.1 -0.1)">
       <defs>
        <path d="M 10.796875 72.90625 
L 49.515625 72.90625 
L 49.515625 64.59375 
L 19.828125 64.59375 
L 19.828125 46.734375 
Q 21.96875 47.46875 24.109375 47.828125 
Q 26.265625 48.1875 28.421875 48.1875 
Q 40.625 48.1875 47.75 41.5 
Q 54.890625 34.8125 54.890625 23.390625 
Q 54.890625 11.625 47.5625 5.09375 
Q 40.234375 -1.421875 26.90625 -1.421875 
Q 22.3125 -1.421875 17.546875 -0.640625 
Q 12.796875 0.140625 7.71875 1.703125 
L 7.71875 11.625 
Q 12.109375 9.234375 16.796875 8.0625 
Q 21.484375 6.890625 26.703125 6.890625 
Q 35.15625 6.890625 40.078125 11.328125 
Q 45.015625 15.765625 45.015625 23.390625 
Q 45.015625 31 40.078125 35.4375 
Q 35.15625 39.890625 26.703125 39.890625 
Q 22.75 39.890625 18.8125 39.015625 
Q 14.890625 38.140625 10.796875 36.28125 
z
" id="DejaVuSans-53"/>
       </defs>
       <use xlink:href="#DejaVuSans-48"/>
       <use x="63.623047" xlink:href="#DejaVuSans-46"/>
       <use x="95.410156" xlink:href="#DejaVuSans-53"/>
      </g>
     </g>
    </g>
    <g id="ytick_3">
     <g id="line2d_9">
      <g>
       <use style="stroke:#000000;stroke-width:0.8;" x="43.78125" xlink:href="#m3023c02825" y="136.597698"/>
      </g>
     </g>
     <g id="text_10">
      <!-- 0.6 -->
      <g transform="translate(20.878125 140.396916)scale(0.1 -0.1)">
       <use xlink:href="#DejaVuSans-48"/>
       <use x="63.623047" xlink:href="#DejaVuSans-46"/>
       <use x="95.410156" xlink:href="#DejaVuSans-54"/>
      </g>
     </g>
    </g>
    <g id="ytick_4">
     <g id="line2d_10">
      <g>
       <use style="stroke:#000000;stroke-width:0.8;" x="43.78125" xlink:href="#m3023c02825" y="86.325541"/>
      </g>
     </g>
     <g id="text_11">
      <!-- 0.7 -->
      <g transform="translate(20.878125 90.12476)scale(0.1 -0.1)">
       <defs>
        <path d="M 8.203125 72.90625 
L 55.078125 72.90625 
L 55.078125 68.703125 
L 28.609375 0 
L 18.3125 0 
L 43.21875 64.59375 
L 8.203125 64.59375 
z
" id="DejaVuSans-55"/>
       </defs>
       <use xlink:href="#DejaVuSans-48"/>
       <use x="63.623047" xlink:href="#DejaVuSans-46"/>
       <use x="95.410156" xlink:href="#DejaVuSans-55"/>
      </g>
     </g>
    </g>
    <g id="ytick_5">
     <g id="line2d_11">
      <g>
       <use style="stroke:#000000;stroke-width:0.8;" x="43.78125" xlink:href="#m3023c02825" y="36.053385"/>
      </g>
     </g>
     <g id="text_12">
      <!-- 0.8 -->
      <g transform="translate(20.878125 39.852604)scale(0.1 -0.1)">
       <use xlink:href="#DejaVuSans-48"/>
       <use x="63.623047" xlink:href="#DejaVuSans-46"/>
       <use x="95.410156" xlink:href="#DejaVuSans-56"/>
      </g>
     </g>
    </g>
    <g id="text_13">
     <!-- performance -->
     <g transform="translate(14.798438 172.278656)rotate(-90)scale(0.1 -0.1)">
      <defs>
       <path d="M 18.109375 8.203125 
L 18.109375 -20.796875 
L 9.078125 -20.796875 
L 9.078125 54.6875 
L 18.109375 54.6875 
L 18.109375 46.390625 
Q 20.953125 51.265625 25.265625 53.625 
Q 29.59375 56 35.59375 56 
Q 45.5625 56 51.78125 48.09375 
Q 58.015625 40.1875 58.015625 27.296875 
Q 58.015625 14.40625 51.78125 6.484375 
Q 45.5625 -1.421875 35.59375 -1.421875 
Q 29.59375 -1.421875 25.265625 0.953125 
Q 20.953125 3.328125 18.109375 8.203125 
z
M 48.6875 27.296875 
Q 48.6875 37.203125 44.609375 42.84375 
Q 40.53125 48.484375 33.40625 48.484375 
Q 26.265625 48.484375 22.1875 42.84375 
Q 18.109375 37.203125 18.109375 27.296875 
Q 18.109375 17.390625 22.1875 11.75 
Q 26.265625 6.109375 33.40625 6.109375 
Q 40.53125 6.109375 44.609375 11.75 
Q 48.6875 17.390625 48.6875 27.296875 
z
" id="DejaVuSans-112"/>
       <path d="M 56.203125 29.59375 
L 56.203125 25.203125 
L 14.890625 25.203125 
Q 15.484375 15.921875 20.484375 11.0625 
Q 25.484375 6.203125 34.421875 6.203125 
Q 39.59375 6.203125 44.453125 7.46875 
Q 49.3125 8.734375 54.109375 11.28125 
L 54.109375 2.78125 
Q 49.265625 0.734375 44.1875 -0.34375 
Q 39.109375 -1.421875 33.890625 -1.421875 
Q 20.796875 -1.421875 13.15625 6.1875 
Q 5.515625 13.8125 5.515625 26.8125 
Q 5.515625 40.234375 12.765625 48.109375 
Q 20.015625 56 32.328125 56 
Q 43.359375 56 49.78125 48.890625 
Q 56.203125 41.796875 56.203125 29.59375 
z
M 47.21875 32.234375 
Q 47.125 39.59375 43.09375 43.984375 
Q 39.0625 48.390625 32.421875 48.390625 
Q 24.90625 48.390625 20.390625 44.140625 
Q 15.875 39.890625 15.1875 32.171875 
z
" id="DejaVuSans-101"/>
       <path d="M 41.109375 46.296875 
Q 39.59375 47.171875 37.8125 47.578125 
Q 36.03125 48 33.890625 48 
Q 26.265625 48 22.1875 43.046875 
Q 18.109375 38.09375 18.109375 28.8125 
L 18.109375 0 
L 9.078125 0 
L 9.078125 54.6875 
L 18.109375 54.6875 
L 18.109375 46.1875 
Q 20.953125 51.171875 25.484375 53.578125 
Q 30.03125 56 36.53125 56 
Q 37.453125 56 38.578125 55.875 
Q 39.703125 55.765625 41.0625 55.515625 
z
" id="DejaVuSans-114"/>
       <path d="M 52 44.1875 
Q 55.375 50.25 60.0625 53.125 
Q 64.75 56 71.09375 56 
Q 79.640625 56 84.28125 50.015625 
Q 88.921875 44.046875 88.921875 33.015625 
L 88.921875 0 
L 79.890625 0 
L 79.890625 32.71875 
Q 79.890625 40.578125 77.09375 44.375 
Q 74.3125 48.1875 68.609375 48.1875 
Q 61.625 48.1875 57.5625 43.546875 
Q 53.515625 38.921875 53.515625 30.90625 
L 53.515625 0 
L 44.484375 0 
L 44.484375 32.71875 
Q 44.484375 40.625 41.703125 44.40625 
Q 38.921875 48.1875 33.109375 48.1875 
Q 26.21875 48.1875 22.15625 43.53125 
Q 18.109375 38.875 18.109375 30.90625 
L 18.109375 0 
L 9.078125 0 
L 9.078125 54.6875 
L 18.109375 54.6875 
L 18.109375 46.1875 
Q 21.1875 51.21875 25.484375 53.609375 
Q 29.78125 56 35.6875 56 
Q 41.65625 56 45.828125 52.96875 
Q 50 49.953125 52 44.1875 
z
" id="DejaVuSans-109"/>
       <path d="M 34.28125 27.484375 
Q 23.390625 27.484375 19.1875 25 
Q 14.984375 22.515625 14.984375 16.5 
Q 14.984375 11.71875 18.140625 8.90625 
Q 21.296875 6.109375 26.703125 6.109375 
Q 34.1875 6.109375 38.703125 11.40625 
Q 43.21875 16.703125 43.21875 25.484375 
L 43.21875 27.484375 
z
M 52.203125 31.203125 
L 52.203125 0 
L 43.21875 0 
L 43.21875 8.296875 
Q 40.140625 3.328125 35.546875 0.953125 
Q 30.953125 -1.421875 24.3125 -1.421875 
Q 15.921875 -1.421875 10.953125 3.296875 
Q 6 8.015625 6 15.921875 
Q 6 25.140625 12.171875 29.828125 
Q 18.359375 34.515625 30.609375 34.515625 
L 43.21875 34.515625 
L 43.21875 35.40625 
Q 43.21875 41.609375 39.140625 45 
Q 35.0625 48.390625 27.6875 48.390625 
Q 23 48.390625 18.546875 47.265625 
Q 14.109375 46.140625 10.015625 43.890625 
L 10.015625 52.203125 
Q 14.9375 54.109375 19.578125 55.046875 
Q 24.21875 56 28.609375 56 
Q 40.484375 56 46.34375 49.84375 
Q 52.203125 43.703125 52.203125 31.203125 
z
" id="DejaVuSans-97"/>
       <path d="M 54.890625 33.015625 
L 54.890625 0 
L 45.90625 0 
L 45.90625 32.71875 
Q 45.90625 40.484375 42.875 44.328125 
Q 39.84375 48.1875 33.796875 48.1875 
Q 26.515625 48.1875 22.3125 43.546875 
Q 18.109375 38.921875 18.109375 30.90625 
L 18.109375 0 
L 9.078125 0 
L 9.078125 54.6875 
L 18.109375 54.6875 
L 18.109375 46.1875 
Q 21.34375 51.125 25.703125 53.5625 
Q 30.078125 56 35.796875 56 
Q 45.21875 56 50.046875 50.171875 
Q 54.890625 44.34375 54.890625 33.015625 
z
" id="DejaVuSans-110"/>
      </defs>
      <use xlink:href="#DejaVuSans-112"/>
      <use x="63.476562" xlink:href="#DejaVuSans-101"/>
      <use x="125" xlink:href="#DejaVuSans-114"/>
      <use x="166.113281" xlink:href="#DejaVuSans-102"/>
      <use x="201.318359" xlink:href="#DejaVuSans-111"/>
      <use x="262.5" xlink:href="#DejaVuSans-114"/>
      <use x="301.863281" xlink:href="#DejaVuSans-109"/>
      <use x="399.275391" xlink:href="#DejaVuSans-97"/>
      <use x="460.554688" xlink:href="#DejaVuSans-110"/>
      <use x="523.933594" xlink:href="#DejaVuSans-99"/>
      <use x="578.914062" xlink:href="#DejaVuSans-101"/>
     </g>
    </g>
   </g>
   <g id="line2d_12">
    <path clip-path="url(#p0cf10ac09d)" d="M 60.013977 19.296 
L 66.777614 38.10531 
L 73.54125 53.796499 
L 80.304886 61.189463 
L 87.068523 100.193722 
L 93.832159 105.923162 
L 100.595795 105.923162 
L 107.359432 103.082927 
L 114.123068 128.86352 
L 120.886705 158.025174 
L 127.650341 162.544617 
L 134.413977 170.653029 
L 141.177614 170.653029 
L 147.94125 186.869854 
L 154.704886 206.205298 
L 161.468523 206.205298 
L 168.232159 206.205298 
L 174.995795 209.720834 
L 181.759432 209.720834 
L 188.523068 209.720834 
L 195.286705 225.813073 
L 202.050341 225.813073 
L 208.813977 225.813073 
L 215.577614 225.813073 
L 222.34125 228.763317 
L 229.104886 228.23302 
L 235.868523 228.23302 
L 242.632159 228.23302 
L 249.395795 228.23302 
L 256.159432 228.23302 
L 262.923068 228.23302 
L 269.686705 228.23302 
L 276.450341 228.23302 
L 283.213977 228.23302 
L 289.977614 228.23302 
L 296.74125 228.23302 
L 303.504886 228.23302 
L 310.268523 228.23302 
L 317.032159 228.23302 
L 323.795795 228.23302 
L 330.559432 228.23302 
L 337.323068 228.23302 
L 344.086705 228.23302 
L 350.850341 228.23302 
L 357.613977 228.23302 
L 364.377614 228.23302 
L 371.14125 228.23302 
L 377.904886 228.23302 
L 384.668523 228.23302 
" style="fill:none;stroke:#f26b38;stroke-dasharray:7.4,3.2;stroke-dashoffset:0;stroke-width:2;"/>
   </g>
   <g id="line2d_13">
    <path clip-path="url(#p0cf10ac09d)" d="M 60.013977 100.193722 
L 66.777614 161.733776 
L 73.54125 161.733776 
L 80.304886 203.086678 
L 87.068523 228.138041 
L 93.832159 244.876188 
L 100.595795 244.876188 
L 107.359432 244.876188 
L 114.123068 247.8058 
L 120.886705 247.8058 
L 127.650341 261.216 
L 134.413977 261.216 
L 141.177614 261.216 
L 147.94125 261.216 
L 154.704886 261.216 
L 161.468523 261.216 
L 168.232159 260.05084 
L 174.995795 260.05084 
L 181.759432 260.05084 
L 188.523068 260.05084 
L 195.286705 260.05084 
L 202.050341 260.05084 
L 208.813977 260.05084 
L 215.577614 260.05084 
L 222.34125 260.05084 
L 229.104886 260.05084 
L 235.868523 260.05084 
L 242.632159 260.05084 
L 249.395795 260.05084 
L 256.159432 260.05084 
L 262.923068 260.05084 
L 269.686705 260.05084 
L 276.450341 260.05084 
L 283.213977 260.05084 
L 289.977614 260.05084 
L 296.74125 260.05084 
L 303.504886 260.05084 
L 310.268523 260.05084 
L 317.032159 260.05084 
L 323.795795 260.05084 
L 330.559432 260.05084 
L 337.323068 260.05084 
L 344.086705 260.05084 
L 350.850341 260.05084 
L 357.613977 260.05084 
L 364.377614 260.05084 
L 371.14125 260.05084 
L 377.904886 260.05084 
L 384.668523 260.05084 
" style="fill:none;stroke:#2f9599;stroke-dasharray:2,3.3;stroke-dashoffset:0;stroke-width:2;"/>
   </g>
   <g id="line2d_14">
    <path clip-path="url(#p0cf10ac09d)" d="M 60.013977 27.845686 
L 66.777614 27.845686 
L 73.54125 27.845686 
L 80.304886 27.845686 
L 87.068523 27.845686 
L 93.832159 27.845686 
L 100.595795 27.845686 
L 107.359432 46.107817 
L 114.123068 53.796499 
L 120.886705 61.189463 
L 127.650341 61.189463 
L 134.413977 61.189463 
L 141.177614 81.755345 
L 147.94125 88.120976 
L 154.704886 127.022049 
L 161.468523 127.022049 
L 168.232159 174.900293 
L 174.995795 190.859707 
L 181.759432 190.859707 
L 188.523068 190.736943 
L 195.286705 190.736943 
L 202.050341 194.978266 
L 208.813977 194.978266 
L 215.577614 170.653029 
L 222.34125 170.653029 
L 229.104886 183.002765 
L 235.868523 206.205298 
L 242.632159 209.720834 
L 249.395795 209.720834 
L 256.159432 209.720834 
L 262.923068 225.813073 
L 269.686705 225.813073 
L 276.450341 225.813073 
L 283.213977 228.23302 
L 289.977614 228.23302 
L 296.74125 228.23302 
L 303.504886 228.23302 
L 310.268523 228.23302 
L 317.032159 228.23302 
L 323.795795 228.23302 
L 330.559432 228.23302 
L 337.323068 228.23302 
L 344.086705 228.23302 
L 350.850341 228.23302 
L 357.613977 228.23302 
L 364.377614 228.23302 
L 371.14125 228.23302 
L 377.904886 228.23302 
L 384.668523 228.23302 
" style="fill:none;stroke:#a7226e;stroke-dasharray:12.8,3.2,2,3.2;stroke-dashoffset:0;stroke-width:2;"/>
   </g>
   <g id="patch_3">
    <path d="M 43.78125 273.312 
L 43.78125 7.2 
" style="fill:none;stroke:#000000;stroke-linecap:square;stroke-linejoin:miter;stroke-width:0.8;"/>
   </g>
   <g id="patch_4">
    <path d="M 400.90125 273.312 
L 400.90125 7.2 
" style="fill:none;stroke:#000000;stroke-linecap:square;stroke-linejoin:miter;stroke-width:0.8;"/>
   </g>
   <g id="patch_5">
    <path d="M 43.78125 273.312 
L 400.90125 273.312 
" style="fill:none;stroke:#000000;stroke-linecap:square;stroke-linejoin:miter;stroke-width:0.8;"/>
   </g>
   <g id="patch_6">
    <path d="M 43.78125 7.2 
L 400.90125 7.2 
" style="fill:none;stroke:#000000;stroke-linecap:square;stroke-linejoin:miter;stroke-width:0.8;"/>
   </g>
   <g id="legend_1">
    <g id="patch_7">
     <path d="M 315.427559 43.890912 
L 396.04325 43.890912 
Q 397.43125 43.890912 397.43125 42.502912 
L 397.43125 12.058 
Q 397.43125 10.67 396.04325 10.67 
L 315.427559 10.67 
Q 314.039559 10.67 314.039559 12.058 
L 314.039559 42.502912 
Q 314.039559 43.890912 315.427559 43.890912 
z
" style="fill:#ffffff;opacity:0.8;stroke:#cccccc;stroke-linejoin:miter;"/>
    </g>
    <g id="PathCollection_5">
     <defs>
      <path d="M 0 3 
C 0.795609 3 1.55874 2.683901 2.12132 2.12132 
C 2.683901 1.55874 3 0.795609 3 0 
C 3 -0.795609 2.683901 -1.55874 2.12132 -2.12132 
C 1.55874 -2.683901 0.795609 -3 0 -3 
C -0.795609 -3 -1.55874 -2.683901 -2.12132 -2.12132 
C -2.683901 -1.55874 -3 -0.795609 -3 0 
C -3 0.795609 -2.683901 1.55874 -2.12132 2.12132 
C -1.55874 2.683901 -0.795609 3 0 3 
z
" id="mea4e6e8826" style="stroke:#f26b38;"/>
     </defs>
     <g>
      <use style="fill:#f26b38;stroke:#f26b38;" x="323.755559" xlink:href="#mea4e6e8826" y="16.897566"/>
     </g>
    </g>
    <g id="text_14">
     <!-- mean_err -->
     <g transform="translate(336.247559 18.719316)scale(0.0694 -0.0694)">
      <defs>
       <path d="M 50.984375 -16.609375 
L 50.984375 -23.578125 
L -0.984375 -23.578125 
L -0.984375 -16.609375 
z
" id="DejaVuSans-95"/>
      </defs>
      <use xlink:href="#DejaVuSans-109"/>
      <use x="97.412109" xlink:href="#DejaVuSans-101"/>
      <use x="158.935547" xlink:href="#DejaVuSans-97"/>
      <use x="220.214844" xlink:href="#DejaVuSans-110"/>
      <use x="283.59375" xlink:href="#DejaVuSans-95"/>
      <use x="333.59375" xlink:href="#DejaVuSans-101"/>
      <use x="395.117188" xlink:href="#DejaVuSans-114"/>
      <use x="434.480469" xlink:href="#DejaVuSans-114"/>
     </g>
    </g>
    <g id="PathCollection_6">
     <defs>
      <path d="M -1.5 3 
L 0 1.5 
L 1.5 3 
L 3 1.5 
L 1.5 0 
L 3 -1.5 
L 1.5 -3 
L 0 -1.5 
L -1.5 -3 
L -3 -1.5 
L -1.5 0 
L -3 1.5 
z
" id="m1034ab83d8" style="stroke:#2f9599;"/>
     </defs>
     <g>
      <use style="fill:#2f9599;stroke:#2f9599;" x="323.755559" xlink:href="#m1034ab83d8" y="27.277203"/>
     </g>
    </g>
    <g id="text_15">
     <!-- mean_sq_err -->
     <g transform="translate(336.247559 29.098953)scale(0.0694 -0.0694)">
      <defs>
       <path d="M 44.28125 53.078125 
L 44.28125 44.578125 
Q 40.484375 46.53125 36.375 47.5 
Q 32.28125 48.484375 27.875 48.484375 
Q 21.1875 48.484375 17.84375 46.4375 
Q 14.5 44.390625 14.5 40.28125 
Q 14.5 37.15625 16.890625 35.375 
Q 19.28125 33.59375 26.515625 31.984375 
L 29.59375 31.296875 
Q 39.15625 29.25 43.1875 25.515625 
Q 47.21875 21.78125 47.21875 15.09375 
Q 47.21875 7.46875 41.1875 3.015625 
Q 35.15625 -1.421875 24.609375 -1.421875 
Q 20.21875 -1.421875 15.453125 -0.5625 
Q 10.6875 0.296875 5.421875 2 
L 5.421875 11.28125 
Q 10.40625 8.6875 15.234375 7.390625 
Q 20.0625 6.109375 24.8125 6.109375 
Q 31.15625 6.109375 34.5625 8.28125 
Q 37.984375 10.453125 37.984375 14.40625 
Q 37.984375 18.0625 35.515625 20.015625 
Q 33.0625 21.96875 24.703125 23.78125 
L 21.578125 24.515625 
Q 13.234375 26.265625 9.515625 29.90625 
Q 5.8125 33.546875 5.8125 39.890625 
Q 5.8125 47.609375 11.28125 51.796875 
Q 16.75 56 26.8125 56 
Q 31.78125 56 36.171875 55.265625 
Q 40.578125 54.546875 44.28125 53.078125 
z
" id="DejaVuSans-115"/>
       <path d="M 14.796875 27.296875 
Q 14.796875 17.390625 18.875 11.75 
Q 22.953125 6.109375 30.078125 6.109375 
Q 37.203125 6.109375 41.296875 11.75 
Q 45.40625 17.390625 45.40625 27.296875 
Q 45.40625 37.203125 41.296875 42.84375 
Q 37.203125 48.484375 30.078125 48.484375 
Q 22.953125 48.484375 18.875 42.84375 
Q 14.796875 37.203125 14.796875 27.296875 
z
M 45.40625 8.203125 
Q 42.578125 3.328125 38.25 0.953125 
Q 33.9375 -1.421875 27.875 -1.421875 
Q 17.96875 -1.421875 11.734375 6.484375 
Q 5.515625 14.40625 5.515625 27.296875 
Q 5.515625 40.1875 11.734375 48.09375 
Q 17.96875 56 27.875 56 
Q 33.9375 56 38.25 53.625 
Q 42.578125 51.265625 45.40625 46.390625 
L 45.40625 54.6875 
L 54.390625 54.6875 
L 54.390625 -20.796875 
L 45.40625 -20.796875 
z
" id="DejaVuSans-113"/>
      </defs>
      <use xlink:href="#DejaVuSans-109"/>
      <use x="97.412109" xlink:href="#DejaVuSans-101"/>
      <use x="158.935547" xlink:href="#DejaVuSans-97"/>
      <use x="220.214844" xlink:href="#DejaVuSans-110"/>
      <use x="283.59375" xlink:href="#DejaVuSans-95"/>
      <use x="333.59375" xlink:href="#DejaVuSans-115"/>
      <use x="385.693359" xlink:href="#DejaVuSans-113"/>
      <use x="449.169922" xlink:href="#DejaVuSans-95"/>
      <use x="499.169922" xlink:href="#DejaVuSans-101"/>
      <use x="560.693359" xlink:href="#DejaVuSans-114"/>
      <use x="600.056641" xlink:href="#DejaVuSans-114"/>
     </g>
    </g>
    <g id="PathCollection_7">
     <defs>
      <path d="M -2.12132 -2.12132 
L -2.12132 2.12132 
L 2.12132 2.12132 
L 2.12132 -2.12132 
z
" id="m0257d080af" style="stroke:#a7226e;"/>
     </defs>
     <g>
      <use style="fill:#a7226e;stroke:#a7226e;" x="323.755559" xlink:href="#m0257d080af" y="37.656841"/>
     </g>
    </g>
    <g id="text_16">
     <!-- mean_sqroot_err -->
     <g transform="translate(336.247559 39.478591)scale(0.0694 -0.0694)">
      <use xlink:href="#DejaVuSans-109"/>
      <use x="97.412109" xlink:href="#DejaVuSans-101"/>
      <use x="158.935547" xlink:href="#DejaVuSans-97"/>
      <use x="220.214844" xlink:href="#DejaVuSans-110"/>
      <use x="283.59375" xlink:href="#DejaVuSans-95"/>
      <use x="333.59375" xlink:href="#DejaVuSans-115"/>
      <use x="385.693359" xlink:href="#DejaVuSans-113"/>
      <use x="449.169922" xlink:href="#DejaVuSans-114"/>
      <use x="488.033203" xlink:href="#DejaVuSans-111"/>
      <use x="549.214844" xlink:href="#DejaVuSans-111"/>
      <use x="610.396484" xlink:href="#DejaVuSans-116"/>
      <use x="649.605469" xlink:href="#DejaVuSans-95"/>
      <use x="699.605469" xlink:href="#DejaVuSans-101"/>
      <use x="761.128906" xlink:href="#DejaVuSans-114"/>
      <use x="800.492188" xlink:href="#DejaVuSans-114"/>
     </g>
    </g>
   </g>
  </g>
 </g>
 <defs>
  <clipPath id="p0cf10ac09d">
   <rect height="266.112" width="357.12" x="43.78125" y="7.2"/>
  </clipPath>
 </defs>
</svg>
