<?xml version="1.0" encoding="utf-8" standalone="no"?>
<!DOCTYPE svg PUBLIC "-//W3C//DTD SVG 1.1//EN"
  "http://www.w3.org/Graphics/SVG/1.1/DTD/svg11.dtd">
<!-- Created with matplotlib (https://matplotlib.org/) -->
<svg height="310.86825pt" version="1.1" viewBox="0 0 414.46375 310.86825" width="414.46375pt" xmlns="http://www.w3.org/2000/svg" xmlns:xlink="http://www.w3.org/1999/xlink">
 <metadata>
  <rdf:RDF xmlns:cc="http://creativecommons.org/ns#" xmlns:dc="http://purl.org/dc/elements/1.1/" xmlns:rdf="http://www.w3.org/1999/02/22-rdf-syntax-ns#">
   <cc:Work>
    <dc:type rdf:resource="http://purl.org/dc/dcmitype/StillImage"/>
    <dc:date>2022-05-27T22:21:42.858745</dc:date>
    <dc:format>image/svg+xml</dc:format>
    <dc:creator>
     <cc:Agent>
      <dc:title>Matplotlib v3.3.4, https://matplotlib.org/</dc:title>
     </cc:Agent>
    </dc:creator>
   </cc:Work>
  </rdf:RDF>
 </metadata>
 <defs>
  <style type="text/css">*{stroke-linecap:butt;stroke-linejoin:round;}</style>
 </defs>
 <g id="figure_1">
  <g id="patch_1">
   <path d="M 0 310.86825 
L 414.46375 310.86825 
L 414.46375 0 
L 0 0 
z
" style="fill:#ffffff;"/>
  </g>
  <g id="axes_1">
   <g id="patch_2">
    <path d="M 50.14375 273.312 
L 407.26375 273.312 
L 407.26375 7.2 
L 50.14375 7.2 
z
" style="fill:#ffffff;"/>
   </g>
   <g id="PathCollection_1">
    <path clip-path="url(#pe57ecad9db)" d="M 66.376477 210.573008 
C 67.172087 210.573008 67.935217 210.256909 68.497798 209.694329 
C 69.060378 209.131748 69.376477 208.368618 69.376477 207.573008 
C 69.376477 206.777399 69.060378 206.014269 68.497798 205.451688 
C 67.935217 204.889107 67.172087 204.573008 66.376477 204.573008 
C 65.580868 204.573008 64.817738 204.889107 64.255157 205.451688 
C 63.692576 206.014269 63.376477 206.777399 63.376477 207.573008 
C 63.376477 208.368618 63.692576 209.131748 64.255157 209.694329 
C 64.817738 210.256909 65.580868 210.573008 66.376477 210.573008 
z
" style="fill:#f26b38;stroke:#ffffff;stroke-width:0.48;"/>
    <path clip-path="url(#pe57ecad9db)" d="M 73.140114 216.362526 
C 73.935723 216.362526 74.698853 216.046427 75.261434 215.483847 
C 75.824015 214.921266 76.140114 214.158136 76.140114 213.362526 
C 76.140114 212.566917 75.824015 211.803787 75.261434 211.241206 
C 74.698853 210.678625 73.935723 210.362526 73.140114 210.362526 
C 72.344504 210.362526 71.581374 210.678625 71.018793 211.241206 
C 70.456213 211.803787 70.140114 212.566917 70.140114 213.362526 
C 70.140114 214.158136 70.456213 214.921266 71.018793 215.483847 
C 71.581374 216.046427 72.344504 216.362526 73.140114 216.362526 
z
" style="fill:#f26b38;stroke:#ffffff;stroke-width:0.48;"/>
    <path clip-path="url(#pe57ecad9db)" d="M 79.90375 223.227692 
C 80.699359 223.227692 81.46249 222.911594 82.02507 222.349013 
C 82.587651 221.786432 82.90375 221.023302 82.90375 220.227692 
C 82.90375 219.432083 82.587651 218.668953 82.02507 218.106372 
C 81.46249 217.543791 80.699359 217.227692 79.90375 217.227692 
C 79.108141 217.227692 78.34501 217.543791 77.78243 218.106372 
C 77.219849 218.668953 76.90375 219.432083 76.90375 220.227692 
C 76.90375 221.023302 77.219849 221.786432 77.78243 222.349013 
C 78.34501 222.911594 79.108141 223.227692 79.90375 223.227692 
z
" style="fill:#f26b38;stroke:#ffffff;stroke-width:0.48;"/>
    <path clip-path="url(#pe57ecad9db)" d="M 86.667386 194.32173 
C 87.462996 194.32173 88.226126 194.005631 88.788707 193.44305 
C 89.351287 192.880469 89.667386 192.117339 89.667386 191.32173 
C 89.667386 190.52612 89.351287 189.76299 88.788707 189.200409 
C 88.226126 188.637829 87.462996 188.32173 86.667386 188.32173 
C 85.871777 188.32173 85.108647 188.637829 84.546066 189.200409 
C 83.983485 189.76299 83.667386 190.52612 83.667386 191.32173 
C 83.667386 192.117339 83.983485 192.880469 84.546066 193.44305 
C 85.108647 194.005631 85.871777 194.32173 86.667386 194.32173 
z
" style="fill:#f26b38;stroke:#ffffff;stroke-width:0.48;"/>
    <path clip-path="url(#pe57ecad9db)" d="M 93.431023 194.32173 
C 94.226632 194.32173 94.989762 194.005631 95.552343 193.44305 
C 96.114924 192.880469 96.431023 192.117339 96.431023 191.32173 
C 96.431023 190.52612 96.114924 189.76299 95.552343 189.200409 
C 94.989762 188.637829 94.226632 188.32173 93.431023 188.32173 
C 92.635413 188.32173 91.872283 188.637829 91.309702 189.200409 
C 90.747122 189.76299 90.431023 190.52612 90.431023 191.32173 
C 90.431023 192.117339 90.747122 192.880469 91.309702 193.44305 
C 91.872283 194.005631 92.635413 194.32173 93.431023 194.32173 
z
" style="fill:#f26b38;stroke:#ffffff;stroke-width:0.48;"/>
    <path clip-path="url(#pe57ecad9db)" d="M 100.194659 183.10991 
C 100.990268 183.10991 101.753399 182.793811 102.315979 182.23123 
C 102.87856 181.66865 103.194659 180.905519 103.194659 180.10991 
C 103.194659 179.314301 102.87856 178.55117 102.315979 177.98859 
C 101.753399 177.426009 100.990268 177.10991 100.194659 177.10991 
C 99.39905 177.10991 98.635919 177.426009 98.073339 177.98859 
C 97.510758 178.55117 97.194659 179.314301 97.194659 180.10991 
C 97.194659 180.905519 97.510758 181.66865 98.073339 182.23123 
C 98.635919 182.793811 99.39905 183.10991 100.194659 183.10991 
z
" style="fill:#f26b38;stroke:#ffffff;stroke-width:0.48;"/>
    <path clip-path="url(#pe57ecad9db)" d="M 106.958295 140.575446 
C 107.753905 140.575446 108.517035 140.259347 109.079616 139.696766 
C 109.642197 139.134186 109.958295 138.371055 109.958295 137.575446 
C 109.958295 136.779837 109.642197 136.016706 109.079616 135.454126 
C 108.517035 134.891545 107.753905 134.575446 106.958295 134.575446 
C 106.162686 134.575446 105.399556 134.891545 104.836975 135.454126 
C 104.274394 136.016706 103.958295 136.779837 103.958295 137.575446 
C 103.958295 138.371055 104.274394 139.134186 104.836975 139.696766 
C 105.399556 140.259347 106.162686 140.575446 106.958295 140.575446 
z
" style="fill:#f26b38;stroke:#ffffff;stroke-width:0.48;"/>
    <path clip-path="url(#pe57ecad9db)" d="M 113.721932 126.837607 
C 114.517541 126.837607 115.280671 126.521508 115.843252 125.958927 
C 116.405833 125.396346 116.721932 124.633216 116.721932 123.837607 
C 116.721932 123.041997 116.405833 122.278867 115.843252 121.716286 
C 115.280671 121.153706 114.517541 120.837607 113.721932 120.837607 
C 112.926323 120.837607 112.163192 121.153706 111.600611 121.716286 
C 111.038031 122.278867 110.721932 123.041997 110.721932 123.837607 
C 110.721932 124.633216 111.038031 125.396346 111.600611 125.958927 
C 112.163192 126.521508 112.926323 126.837607 113.721932 126.837607 
z
" style="fill:#f26b38;stroke:#ffffff;stroke-width:0.48;"/>
    <path clip-path="url(#pe57ecad9db)" d="M 120.485568 126.837607 
C 121.281177 126.837607 122.044308 126.521508 122.606889 125.958927 
C 123.169469 125.396346 123.485568 124.633216 123.485568 123.837607 
C 123.485568 123.041997 123.169469 122.278867 122.606889 121.716286 
C 122.044308 121.153706 121.281177 120.837607 120.485568 120.837607 
C 119.689959 120.837607 118.926829 121.153706 118.364248 121.716286 
C 117.801667 122.278867 117.485568 123.041997 117.485568 123.837607 
C 117.485568 124.633216 117.801667 125.396346 118.364248 125.958927 
C 118.926829 126.521508 119.689959 126.837607 120.485568 126.837607 
z
" style="fill:#f26b38;stroke:#ffffff;stroke-width:0.48;"/>
    <path clip-path="url(#pe57ecad9db)" d="M 127.249205 137.442255 
C 128.044814 137.442255 128.807944 137.126156 129.370525 136.563575 
C 129.933106 136.000994 130.249205 135.237864 130.249205 134.442255 
C 130.249205 133.646645 129.933106 132.883515 129.370525 132.320934 
C 128.807944 131.758353 128.044814 131.442255 127.249205 131.442255 
C 126.453595 131.442255 125.690465 131.758353 125.127884 132.320934 
C 124.565303 132.883515 124.249205 133.646645 124.249205 134.442255 
C 124.249205 135.237864 124.565303 136.000994 125.127884 136.563575 
C 125.690465 137.126156 126.453595 137.442255 127.249205 137.442255 
z
" style="fill:#f26b38;stroke:#ffffff;stroke-width:0.48;"/>
    <path clip-path="url(#pe57ecad9db)" d="M 134.012841 134.081195 
C 134.80845 134.081195 135.571581 133.765096 136.134161 133.202515 
C 136.696742 132.639934 137.012841 131.876804 137.012841 131.081195 
C 137.012841 130.285585 136.696742 129.522455 136.134161 128.959874 
C 135.571581 128.397294 134.80845 128.081195 134.012841 128.081195 
C 133.217232 128.081195 132.454101 128.397294 131.891521 128.959874 
C 131.32894 129.522455 131.012841 130.285585 131.012841 131.081195 
C 131.012841 131.876804 131.32894 132.639934 131.891521 133.202515 
C 132.454101 133.765096 133.217232 134.081195 134.012841 134.081195 
z
" style="fill:#f26b38;stroke:#ffffff;stroke-width:0.48;"/>
    <path clip-path="url(#pe57ecad9db)" d="M 140.776477 151.935582 
C 141.572087 151.935582 142.335217 151.619483 142.897798 151.056903 
C 143.460378 150.494322 143.776477 149.731192 143.776477 148.935582 
C 143.776477 148.139973 143.460378 147.376843 142.897798 146.814262 
C 142.335217 146.251681 141.572087 145.935582 140.776477 145.935582 
C 139.980868 145.935582 139.217738 146.251681 138.655157 146.814262 
C 138.092576 147.376843 137.776477 148.139973 137.776477 148.935582 
C 137.776477 149.731192 138.092576 150.494322 138.655157 151.056903 
C 139.217738 151.619483 139.980868 151.935582 140.776477 151.935582 
z
" style="fill:#f26b38;stroke:#ffffff;stroke-width:0.48;"/>
    <path clip-path="url(#pe57ecad9db)" d="M 147.540114 169.512597 
C 148.335723 169.512597 149.098853 169.196498 149.661434 168.633917 
C 150.224015 168.071337 150.540114 167.308206 150.540114 166.512597 
C 150.540114 165.716988 150.224015 164.953857 149.661434 164.391277 
C 149.098853 163.828696 148.335723 163.512597 147.540114 163.512597 
C 146.744504 163.512597 145.981374 163.828696 145.418793 164.391277 
C 144.856213 164.953857 144.540114 165.716988 144.540114 166.512597 
C 144.540114 167.308206 144.856213 168.071337 145.418793 168.633917 
C 145.981374 169.196498 146.744504 169.512597 147.540114 169.512597 
z
" style="fill:#f26b38;stroke:#ffffff;stroke-width:0.48;"/>
    <path clip-path="url(#pe57ecad9db)" d="M 154.30375 169.512597 
C 155.099359 169.512597 155.86249 169.196498 156.42507 168.633917 
C 156.987651 168.071337 157.30375 167.308206 157.30375 166.512597 
C 157.30375 165.716988 156.987651 164.953857 156.42507 164.391277 
C 155.86249 163.828696 155.099359 163.512597 154.30375 163.512597 
C 153.508141 163.512597 152.74501 163.828696 152.18243 164.391277 
C 151.619849 164.953857 151.30375 165.716988 151.30375 166.512597 
C 151.30375 167.308206 151.619849 168.071337 152.18243 168.633917 
C 152.74501 169.196498 153.508141 169.512597 154.30375 169.512597 
z
" style="fill:#f26b38;stroke:#ffffff;stroke-width:0.48;"/>
    <path clip-path="url(#pe57ecad9db)" d="M 161.067386 120.761255 
C 161.862996 120.761255 162.626126 120.445156 163.188707 119.882575 
C 163.751287 119.319994 164.067386 118.556864 164.067386 117.761255 
C 164.067386 116.965645 163.751287 116.202515 163.188707 115.639934 
C 162.626126 115.077354 161.862996 114.761255 161.067386 114.761255 
C 160.271777 114.761255 159.508647 115.077354 158.946066 115.639934 
C 158.383485 116.202515 158.067386 116.965645 158.067386 117.761255 
C 158.067386 118.556864 158.383485 119.319994 158.946066 119.882575 
C 159.508647 120.445156 160.271777 120.761255 161.067386 120.761255 
z
" style="fill:#f26b38;stroke:#ffffff;stroke-width:0.48;"/>
    <path clip-path="url(#pe57ecad9db)" d="M 167.831023 120.761255 
C 168.626632 120.761255 169.389762 120.445156 169.952343 119.882575 
C 170.514924 119.319994 170.831023 118.556864 170.831023 117.761255 
C 170.831023 116.965645 170.514924 116.202515 169.952343 115.639934 
C 169.389762 115.077354 168.626632 114.761255 167.831023 114.761255 
C 167.035413 114.761255 166.272283 115.077354 165.709702 115.639934 
C 165.147122 116.202515 164.831023 116.965645 164.831023 117.761255 
C 164.831023 118.556864 165.147122 119.319994 165.709702 119.882575 
C 166.272283 120.445156 167.035413 120.761255 167.831023 120.761255 
z
" style="fill:#f26b38;stroke:#ffffff;stroke-width:0.48;"/>
    <path clip-path="url(#pe57ecad9db)" d="M 174.594659 120.761255 
C 175.390268 120.761255 176.153399 120.445156 176.715979 119.882575 
C 177.27856 119.319994 177.594659 118.556864 177.594659 117.761255 
C 177.594659 116.965645 177.27856 116.202515 176.715979 115.639934 
C 176.153399 115.077354 175.390268 114.761255 174.594659 114.761255 
C 173.79905 114.761255 173.035919 115.077354 172.473339 115.639934 
C 171.910758 116.202515 171.594659 116.965645 171.594659 117.761255 
C 171.594659 118.556864 171.910758 119.319994 172.473339 119.882575 
C 173.035919 120.445156 173.79905 120.761255 174.594659 120.761255 
z
" style="fill:#f26b38;stroke:#ffffff;stroke-width:0.48;"/>
    <path clip-path="url(#pe57ecad9db)" d="M 181.358295 110.675443 
C 182.153905 110.675443 182.917035 110.359344 183.479616 109.796763 
C 184.042197 109.234182 184.358295 108.471052 184.358295 107.675443 
C 184.358295 106.879833 184.042197 106.116703 183.479616 105.554122 
C 182.917035 104.991542 182.153905 104.675443 181.358295 104.675443 
C 180.562686 104.675443 179.799556 104.991542 179.236975 105.554122 
C 178.674394 106.116703 178.358295 106.879833 178.358295 107.675443 
C 178.358295 108.471052 178.674394 109.234182 179.236975 109.796763 
C 179.799556 110.359344 180.562686 110.675443 181.358295 110.675443 
z
" style="fill:#f26b38;stroke:#ffffff;stroke-width:0.48;"/>
    <path clip-path="url(#pe57ecad9db)" d="M 188.121932 110.675443 
C 188.917541 110.675443 189.680671 110.359344 190.243252 109.796763 
C 190.805833 109.234182 191.121932 108.471052 191.121932 107.675443 
C 191.121932 106.879833 190.805833 106.116703 190.243252 105.554122 
C 189.680671 104.991542 188.917541 104.675443 188.121932 104.675443 
C 187.326323 104.675443 186.563192 104.991542 186.000611 105.554122 
C 185.438031 106.116703 185.121932 106.879833 185.121932 107.675443 
C 185.121932 108.471052 185.438031 109.234182 186.000611 109.796763 
C 186.563192 110.359344 187.326323 110.675443 188.121932 110.675443 
z
" style="fill:#f26b38;stroke:#ffffff;stroke-width:0.48;"/>
    <path clip-path="url(#pe57ecad9db)" d="M 194.885568 110.675443 
C 195.681177 110.675443 196.444308 110.359344 197.006889 109.796763 
C 197.569469 109.234182 197.885568 108.471052 197.885568 107.675443 
C 197.885568 106.879833 197.569469 106.116703 197.006889 105.554122 
C 196.444308 104.991542 195.681177 104.675443 194.885568 104.675443 
C 194.089959 104.675443 193.326829 104.991542 192.764248 105.554122 
C 192.201667 106.116703 191.885568 106.879833 191.885568 107.675443 
C 191.885568 108.471052 192.201667 109.234182 192.764248 109.796763 
C 193.326829 110.359344 194.089959 110.675443 194.885568 110.675443 
z
" style="fill:#f26b38;stroke:#ffffff;stroke-width:0.48;"/>
    <path clip-path="url(#pe57ecad9db)" d="M 201.649205 110.675443 
C 202.444814 110.675443 203.207944 110.359344 203.770525 109.796763 
C 204.333106 109.234182 204.649205 108.471052 204.649205 107.675443 
C 204.649205 106.879833 204.333106 106.116703 203.770525 105.554122 
C 203.207944 104.991542 202.444814 104.675443 201.649205 104.675443 
C 200.853595 104.675443 200.090465 104.991542 199.527884 105.554122 
C 198.965303 106.116703 198.649205 106.879833 198.649205 107.675443 
C 198.649205 108.471052 198.965303 109.234182 199.527884 109.796763 
C 200.090465 110.359344 200.853595 110.675443 201.649205 110.675443 
z
" style="fill:#f26b38;stroke:#ffffff;stroke-width:0.48;"/>
    <path clip-path="url(#pe57ecad9db)" d="M 208.412841 110.675443 
C 209.20845 110.675443 209.971581 110.359344 210.534161 109.796763 
C 211.096742 109.234182 211.412841 108.471052 211.412841 107.675443 
C 211.412841 106.879833 211.096742 106.116703 210.534161 105.554122 
C 209.971581 104.991542 209.20845 104.675443 208.412841 104.675443 
C 207.617232 104.675443 206.854101 104.991542 206.291521 105.554122 
C 205.72894 106.116703 205.412841 106.879833 205.412841 107.675443 
C 205.412841 108.471052 205.72894 109.234182 206.291521 109.796763 
C 206.854101 110.359344 207.617232 110.675443 208.412841 110.675443 
z
" style="fill:#f26b38;stroke:#ffffff;stroke-width:0.48;"/>
    <path clip-path="url(#pe57ecad9db)" d="M 215.176477 110.675443 
C 215.972087 110.675443 216.735217 110.359344 217.297798 109.796763 
C 217.860378 109.234182 218.176477 108.471052 218.176477 107.675443 
C 218.176477 106.879833 217.860378 106.116703 217.297798 105.554122 
C 216.735217 104.991542 215.972087 104.675443 215.176477 104.675443 
C 214.380868 104.675443 213.617738 104.991542 213.055157 105.554122 
C 212.492576 106.116703 212.176477 106.879833 212.176477 107.675443 
C 212.176477 108.471052 212.492576 109.234182 213.055157 109.796763 
C 213.617738 110.359344 214.380868 110.675443 215.176477 110.675443 
z
" style="fill:#f26b38;stroke:#ffffff;stroke-width:0.48;"/>
    <path clip-path="url(#pe57ecad9db)" d="M 221.940114 110.675443 
C 222.735723 110.675443 223.498853 110.359344 224.061434 109.796763 
C 224.624015 109.234182 224.940114 108.471052 224.940114 107.675443 
C 224.940114 106.879833 224.624015 106.116703 224.061434 105.554122 
C 223.498853 104.991542 222.735723 104.675443 221.940114 104.675443 
C 221.144504 104.675443 220.381374 104.991542 219.818793 105.554122 
C 219.256213 106.116703 218.940114 106.879833 218.940114 107.675443 
C 218.940114 108.471052 219.256213 109.234182 219.818793 109.796763 
C 220.381374 110.359344 221.144504 110.675443 221.940114 110.675443 
z
" style="fill:#f26b38;stroke:#ffffff;stroke-width:0.48;"/>
    <path clip-path="url(#pe57ecad9db)" d="M 228.70375 117.776479 
C 229.499359 117.776479 230.26249 117.46038 230.82507 116.897799 
C 231.387651 116.335218 231.70375 115.572088 231.70375 114.776479 
C 231.70375 113.980869 231.387651 113.217739 230.82507 112.655158 
C 230.26249 112.092578 229.499359 111.776479 228.70375 111.776479 
C 227.908141 111.776479 227.14501 112.092578 226.58243 112.655158 
C 226.019849 113.217739 225.70375 113.980869 225.70375 114.776479 
C 225.70375 115.572088 226.019849 116.335218 226.58243 116.897799 
C 227.14501 117.46038 227.908141 117.776479 228.70375 117.776479 
z
" style="fill:#f26b38;stroke:#ffffff;stroke-width:0.48;"/>
    <path clip-path="url(#pe57ecad9db)" d="M 235.467386 43.667985 
C 236.262996 43.667985 237.026126 43.351886 237.588707 42.789305 
C 238.151287 42.226724 238.467386 41.463594 238.467386 40.667985 
C 238.467386 39.872375 238.151287 39.109245 237.588707 38.546664 
C 237.026126 37.984084 236.262996 37.667985 235.467386 37.667985 
C 234.671777 37.667985 233.908647 37.984084 233.346066 38.546664 
C 232.783485 39.109245 232.467386 39.872375 232.467386 40.667985 
C 232.467386 41.463594 232.783485 42.226724 233.346066 42.789305 
C 233.908647 43.351886 234.671777 43.667985 235.467386 43.667985 
z
" style="fill:#f26b38;stroke:#ffffff;stroke-width:0.48;"/>
    <path clip-path="url(#pe57ecad9db)" d="M 242.231023 43.667985 
C 243.026632 43.667985 243.789762 43.351886 244.352343 42.789305 
C 244.914924 42.226724 245.231023 41.463594 245.231023 40.667985 
C 245.231023 39.872375 244.914924 39.109245 244.352343 38.546664 
C 243.789762 37.984084 243.026632 37.667985 242.231023 37.667985 
C 241.435413 37.667985 240.672283 37.984084 240.109702 38.546664 
C 239.547122 39.109245 239.231023 39.872375 239.231023 40.667985 
C 239.231023 41.463594 239.547122 42.226724 240.109702 42.789305 
C 240.672283 43.351886 241.435413 43.667985 242.231023 43.667985 
z
" style="fill:#f26b38;stroke:#ffffff;stroke-width:0.48;"/>
    <path clip-path="url(#pe57ecad9db)" d="M 248.994659 43.667985 
C 249.790268 43.667985 250.553399 43.351886 251.115979 42.789305 
C 251.67856 42.226724 251.994659 41.463594 251.994659 40.667985 
C 251.994659 39.872375 251.67856 39.109245 251.115979 38.546664 
C 250.553399 37.984084 249.790268 37.667985 248.994659 37.667985 
C 248.19905 37.667985 247.435919 37.984084 246.873339 38.546664 
C 246.310758 39.109245 245.994659 39.872375 245.994659 40.667985 
C 245.994659 41.463594 246.310758 42.226724 246.873339 42.789305 
C 247.435919 43.351886 248.19905 43.667985 248.994659 43.667985 
z
" style="fill:#f26b38;stroke:#ffffff;stroke-width:0.48;"/>
    <path clip-path="url(#pe57ecad9db)" d="M 255.758295 43.667985 
C 256.553905 43.667985 257.317035 43.351886 257.879616 42.789305 
C 258.442197 42.226724 258.758295 41.463594 258.758295 40.667985 
C 258.758295 39.872375 258.442197 39.109245 257.879616 38.546664 
C 257.317035 37.984084 256.553905 37.667985 255.758295 37.667985 
C 254.962686 37.667985 254.199556 37.984084 253.636975 38.546664 
C 253.074394 39.109245 252.758295 39.872375 252.758295 40.667985 
C 252.758295 41.463594 253.074394 42.226724 253.636975 42.789305 
C 254.199556 43.351886 254.962686 43.667985 255.758295 43.667985 
z
" style="fill:#f26b38;stroke:#ffffff;stroke-width:0.48;"/>
    <path clip-path="url(#pe57ecad9db)" d="M 262.521932 43.667985 
C 263.317541 43.667985 264.080671 43.351886 264.643252 42.789305 
C 265.205833 42.226724 265.521932 41.463594 265.521932 40.667985 
C 265.521932 39.872375 265.205833 39.109245 264.643252 38.546664 
C 264.080671 37.984084 263.317541 37.667985 262.521932 37.667985 
C 261.726323 37.667985 260.963192 37.984084 260.400611 38.546664 
C 259.838031 39.109245 259.521932 39.872375 259.521932 40.667985 
C 259.521932 41.463594 259.838031 42.226724 260.400611 42.789305 
C 260.963192 43.351886 261.726323 43.667985 262.521932 43.667985 
z
" style="fill:#f26b38;stroke:#ffffff;stroke-width:0.48;"/>
    <path clip-path="url(#pe57ecad9db)" d="M 269.285568 43.667985 
C 270.081177 43.667985 270.844308 43.351886 271.406889 42.789305 
C 271.969469 42.226724 272.285568 41.463594 272.285568 40.667985 
C 272.285568 39.872375 271.969469 39.109245 271.406889 38.546664 
C 270.844308 37.984084 270.081177 37.667985 269.285568 37.667985 
C 268.489959 37.667985 267.726829 37.984084 267.164248 38.546664 
C 266.601667 39.109245 266.285568 39.872375 266.285568 40.667985 
C 266.285568 41.463594 266.601667 42.226724 267.164248 42.789305 
C 267.726829 43.351886 268.489959 43.667985 269.285568 43.667985 
z
" style="fill:#f26b38;stroke:#ffffff;stroke-width:0.48;"/>
    <path clip-path="url(#pe57ecad9db)" d="M 276.049205 43.667985 
C 276.844814 43.667985 277.607944 43.351886 278.170525 42.789305 
C 278.733106 42.226724 279.049205 41.463594 279.049205 40.667985 
C 279.049205 39.872375 278.733106 39.109245 278.170525 38.546664 
C 277.607944 37.984084 276.844814 37.667985 276.049205 37.667985 
C 275.253595 37.667985 274.490465 37.984084 273.927884 38.546664 
C 273.365303 39.109245 273.049205 39.872375 273.049205 40.667985 
C 273.049205 41.463594 273.365303 42.226724 273.927884 42.789305 
C 274.490465 43.351886 275.253595 43.667985 276.049205 43.667985 
z
" style="fill:#f26b38;stroke:#ffffff;stroke-width:0.48;"/>
    <path clip-path="url(#pe57ecad9db)" d="M 282.812841 43.667985 
C 283.60845 43.667985 284.371581 43.351886 284.934161 42.789305 
C 285.496742 42.226724 285.812841 41.463594 285.812841 40.667985 
C 285.812841 39.872375 285.496742 39.109245 284.934161 38.546664 
C 284.371581 37.984084 283.60845 37.667985 282.812841 37.667985 
C 282.017232 37.667985 281.254101 37.984084 280.691521 38.546664 
C 280.12894 39.109245 279.812841 39.872375 279.812841 40.667985 
C 279.812841 41.463594 280.12894 42.226724 280.691521 42.789305 
C 281.254101 43.351886 282.017232 43.667985 282.812841 43.667985 
z
" style="fill:#f26b38;stroke:#ffffff;stroke-width:0.48;"/>
    <path clip-path="url(#pe57ecad9db)" d="M 289.576477 43.667985 
C 290.372087 43.667985 291.135217 43.351886 291.697798 42.789305 
C 292.260378 42.226724 292.576477 41.463594 292.576477 40.667985 
C 292.576477 39.872375 292.260378 39.109245 291.697798 38.546664 
C 291.135217 37.984084 290.372087 37.667985 289.576477 37.667985 
C 288.780868 37.667985 288.017738 37.984084 287.455157 38.546664 
C 286.892576 39.109245 286.576477 39.872375 286.576477 40.667985 
C 286.576477 41.463594 286.892576 42.226724 287.455157 42.789305 
C 288.017738 43.351886 288.780868 43.667985 289.576477 43.667985 
z
" style="fill:#f26b38;stroke:#ffffff;stroke-width:0.48;"/>
    <path clip-path="url(#pe57ecad9db)" d="M 296.340114 43.667985 
C 297.135723 43.667985 297.898853 43.351886 298.461434 42.789305 
C 299.024015 42.226724 299.340114 41.463594 299.340114 40.667985 
C 299.340114 39.872375 299.024015 39.109245 298.461434 38.546664 
C 297.898853 37.984084 297.135723 37.667985 296.340114 37.667985 
C 295.544504 37.667985 294.781374 37.984084 294.218793 38.546664 
C 293.656213 39.109245 293.340114 39.872375 293.340114 40.667985 
C 293.340114 41.463594 293.656213 42.226724 294.218793 42.789305 
C 294.781374 43.351886 295.544504 43.667985 296.340114 43.667985 
z
" style="fill:#f26b38;stroke:#ffffff;stroke-width:0.48;"/>
    <path clip-path="url(#pe57ecad9db)" d="M 303.10375 43.667985 
C 303.899359 43.667985 304.66249 43.351886 305.22507 42.789305 
C 305.787651 42.226724 306.10375 41.463594 306.10375 40.667985 
C 306.10375 39.872375 305.787651 39.109245 305.22507 38.546664 
C 304.66249 37.984084 303.899359 37.667985 303.10375 37.667985 
C 302.308141 37.667985 301.54501 37.984084 300.98243 38.546664 
C 300.419849 39.109245 300.10375 39.872375 300.10375 40.667985 
C 300.10375 41.463594 300.419849 42.226724 300.98243 42.789305 
C 301.54501 43.351886 302.308141 43.667985 303.10375 43.667985 
z
" style="fill:#f26b38;stroke:#ffffff;stroke-width:0.48;"/>
    <path clip-path="url(#pe57ecad9db)" d="M 309.867386 43.667985 
C 310.662996 43.667985 311.426126 43.351886 311.988707 42.789305 
C 312.551287 42.226724 312.867386 41.463594 312.867386 40.667985 
C 312.867386 39.872375 312.551287 39.109245 311.988707 38.546664 
C 311.426126 37.984084 310.662996 37.667985 309.867386 37.667985 
C 309.071777 37.667985 308.308647 37.984084 307.746066 38.546664 
C 307.183485 39.109245 306.867386 39.872375 306.867386 40.667985 
C 306.867386 41.463594 307.183485 42.226724 307.746066 42.789305 
C 308.308647 43.351886 309.071777 43.667985 309.867386 43.667985 
z
" style="fill:#f26b38;stroke:#ffffff;stroke-width:0.48;"/>
    <path clip-path="url(#pe57ecad9db)" d="M 316.631023 43.667985 
C 317.426632 43.667985 318.189762 43.351886 318.752343 42.789305 
C 319.314924 42.226724 319.631023 41.463594 319.631023 40.667985 
C 319.631023 39.872375 319.314924 39.109245 318.752343 38.546664 
C 318.189762 37.984084 317.426632 37.667985 316.631023 37.667985 
C 315.835413 37.667985 315.072283 37.984084 314.509702 38.546664 
C 313.947122 39.109245 313.631023 39.872375 313.631023 40.667985 
C 313.631023 41.463594 313.947122 42.226724 314.509702 42.789305 
C 315.072283 43.351886 315.835413 43.667985 316.631023 43.667985 
z
" style="fill:#f26b38;stroke:#ffffff;stroke-width:0.48;"/>
    <path clip-path="url(#pe57ecad9db)" d="M 323.394659 43.667985 
C 324.190268 43.667985 324.953399 43.351886 325.515979 42.789305 
C 326.07856 42.226724 326.394659 41.463594 326.394659 40.667985 
C 326.394659 39.872375 326.07856 39.109245 325.515979 38.546664 
C 324.953399 37.984084 324.190268 37.667985 323.394659 37.667985 
C 322.59905 37.667985 321.835919 37.984084 321.273339 38.546664 
C 320.710758 39.109245 320.394659 39.872375 320.394659 40.667985 
C 320.394659 41.463594 320.710758 42.226724 321.273339 42.789305 
C 321.835919 43.351886 322.59905 43.667985 323.394659 43.667985 
z
" style="fill:#f26b38;stroke:#ffffff;stroke-width:0.48;"/>
    <path clip-path="url(#pe57ecad9db)" d="M 330.158295 43.667985 
C 330.953905 43.667985 331.717035 43.351886 332.279616 42.789305 
C 332.842197 42.226724 333.158295 41.463594 333.158295 40.667985 
C 333.158295 39.872375 332.842197 39.109245 332.279616 38.546664 
C 331.717035 37.984084 330.953905 37.667985 330.158295 37.667985 
C 329.362686 37.667985 328.599556 37.984084 328.036975 38.546664 
C 327.474394 39.109245 327.158295 39.872375 327.158295 40.667985 
C 327.158295 41.463594 327.474394 42.226724 328.036975 42.789305 
C 328.599556 43.351886 329.362686 43.667985 330.158295 43.667985 
z
" style="fill:#f26b38;stroke:#ffffff;stroke-width:0.48;"/>
    <path clip-path="url(#pe57ecad9db)" d="M 336.921932 43.667985 
C 337.717541 43.667985 338.480671 43.351886 339.043252 42.789305 
C 339.605833 42.226724 339.921932 41.463594 339.921932 40.667985 
C 339.921932 39.872375 339.605833 39.109245 339.043252 38.546664 
C 338.480671 37.984084 337.717541 37.667985 336.921932 37.667985 
C 336.126323 37.667985 335.363192 37.984084 334.800611 38.546664 
C 334.238031 39.109245 333.921932 39.872375 333.921932 40.667985 
C 333.921932 41.463594 334.238031 42.226724 334.800611 42.789305 
C 335.363192 43.351886 336.126323 43.667985 336.921932 43.667985 
z
" style="fill:#f26b38;stroke:#ffffff;stroke-width:0.48;"/>
    <path clip-path="url(#pe57ecad9db)" d="M 343.685568 43.667985 
C 344.481177 43.667985 345.244308 43.351886 345.806889 42.789305 
C 346.369469 42.226724 346.685568 41.463594 346.685568 40.667985 
C 346.685568 39.872375 346.369469 39.109245 345.806889 38.546664 
C 345.244308 37.984084 344.481177 37.667985 343.685568 37.667985 
C 342.889959 37.667985 342.126829 37.984084 341.564248 38.546664 
C 341.001667 39.109245 340.685568 39.872375 340.685568 40.667985 
C 340.685568 41.463594 341.001667 42.226724 341.564248 42.789305 
C 342.126829 43.351886 342.889959 43.667985 343.685568 43.667985 
z
" style="fill:#f26b38;stroke:#ffffff;stroke-width:0.48;"/>
    <path clip-path="url(#pe57ecad9db)" d="M 350.449205 43.667985 
C 351.244814 43.667985 352.007944 43.351886 352.570525 42.789305 
C 353.133106 42.226724 353.449205 41.463594 353.449205 40.667985 
C 353.449205 39.872375 353.133106 39.109245 352.570525 38.546664 
C 352.007944 37.984084 351.244814 37.667985 350.449205 37.667985 
C 349.653595 37.667985 348.890465 37.984084 348.327884 38.546664 
C 347.765303 39.109245 347.449205 39.872375 347.449205 40.667985 
C 347.449205 41.463594 347.765303 42.226724 348.327884 42.789305 
C 348.890465 43.351886 349.653595 43.667985 350.449205 43.667985 
z
" style="fill:#f26b38;stroke:#ffffff;stroke-width:0.48;"/>
    <path clip-path="url(#pe57ecad9db)" d="M 357.212841 43.667985 
C 358.00845 43.667985 358.771581 43.351886 359.334161 42.789305 
C 359.896742 42.226724 360.212841 41.463594 360.212841 40.667985 
C 360.212841 39.872375 359.896742 39.109245 359.334161 38.546664 
C 358.771581 37.984084 358.00845 37.667985 357.212841 37.667985 
C 356.417232 37.667985 355.654101 37.984084 355.091521 38.546664 
C 354.52894 39.109245 354.212841 39.872375 354.212841 40.667985 
C 354.212841 41.463594 354.52894 42.226724 355.091521 42.789305 
C 355.654101 43.351886 356.417232 43.667985 357.212841 43.667985 
z
" style="fill:#f26b38;stroke:#ffffff;stroke-width:0.48;"/>
    <path clip-path="url(#pe57ecad9db)" d="M 363.976477 43.667985 
C 364.772087 43.667985 365.535217 43.351886 366.097798 42.789305 
C 366.660378 42.226724 366.976477 41.463594 366.976477 40.667985 
C 366.976477 39.872375 366.660378 39.109245 366.097798 38.546664 
C 365.535217 37.984084 364.772087 37.667985 363.976477 37.667985 
C 363.180868 37.667985 362.417738 37.984084 361.855157 38.546664 
C 361.292576 39.109245 360.976477 39.872375 360.976477 40.667985 
C 360.976477 41.463594 361.292576 42.226724 361.855157 42.789305 
C 362.417738 43.351886 363.180868 43.667985 363.976477 43.667985 
z
" style="fill:#f26b38;stroke:#ffffff;stroke-width:0.48;"/>
    <path clip-path="url(#pe57ecad9db)" d="M 370.740114 43.667985 
C 371.535723 43.667985 372.298853 43.351886 372.861434 42.789305 
C 373.424015 42.226724 373.740114 41.463594 373.740114 40.667985 
C 373.740114 39.872375 373.424015 39.109245 372.861434 38.546664 
C 372.298853 37.984084 371.535723 37.667985 370.740114 37.667985 
C 369.944504 37.667985 369.181374 37.984084 368.618793 38.546664 
C 368.056213 39.109245 367.740114 39.872375 367.740114 40.667985 
C 367.740114 41.463594 368.056213 42.226724 368.618793 42.789305 
C 369.181374 43.351886 369.944504 43.667985 370.740114 43.667985 
z
" style="fill:#f26b38;stroke:#ffffff;stroke-width:0.48;"/>
    <path clip-path="url(#pe57ecad9db)" d="M 377.50375 43.667985 
C 378.299359 43.667985 379.06249 43.351886 379.62507 42.789305 
C 380.187651 42.226724 380.50375 41.463594 380.50375 40.667985 
C 380.50375 39.872375 380.187651 39.109245 379.62507 38.546664 
C 379.06249 37.984084 378.299359 37.667985 377.50375 37.667985 
C 376.708141 37.667985 375.94501 37.984084 375.38243 38.546664 
C 374.819849 39.109245 374.50375 39.872375 374.50375 40.667985 
C 374.50375 41.463594 374.819849 42.226724 375.38243 42.789305 
C 375.94501 43.351886 376.708141 43.667985 377.50375 43.667985 
z
" style="fill:#f26b38;stroke:#ffffff;stroke-width:0.48;"/>
    <path clip-path="url(#pe57ecad9db)" d="M 384.267386 43.667985 
C 385.062996 43.667985 385.826126 43.351886 386.388707 42.789305 
C 386.951287 42.226724 387.267386 41.463594 387.267386 40.667985 
C 387.267386 39.872375 386.951287 39.109245 386.388707 38.546664 
C 385.826126 37.984084 385.062996 37.667985 384.267386 37.667985 
C 383.471777 37.667985 382.708647 37.984084 382.146066 38.546664 
C 381.583485 39.109245 381.267386 39.872375 381.267386 40.667985 
C 381.267386 41.463594 381.583485 42.226724 382.146066 42.789305 
C 382.708647 43.351886 383.471777 43.667985 384.267386 43.667985 
z
" style="fill:#f26b38;stroke:#ffffff;stroke-width:0.48;"/>
    <path clip-path="url(#pe57ecad9db)" d="M 391.031023 43.667985 
C 391.826632 43.667985 392.589762 43.351886 393.152343 42.789305 
C 393.714924 42.226724 394.031023 41.463594 394.031023 40.667985 
C 394.031023 39.872375 393.714924 39.109245 393.152343 38.546664 
C 392.589762 37.984084 391.826632 37.667985 391.031023 37.667985 
C 390.235413 37.667985 389.472283 37.984084 388.909702 38.546664 
C 388.347122 39.109245 388.031023 39.872375 388.031023 40.667985 
C 388.031023 41.463594 388.347122 42.226724 388.909702 42.789305 
C 389.472283 43.351886 390.235413 43.667985 391.031023 43.667985 
z
" style="fill:#f26b38;stroke:#ffffff;stroke-width:0.48;"/>
    <path clip-path="url(#pe57ecad9db)" d="M 64.876477 183.10991 
L 66.376477 181.60991 
L 67.876477 183.10991 
L 69.376477 181.60991 
L 67.876477 180.10991 
L 69.376477 178.60991 
L 67.876477 177.10991 
L 66.376477 178.60991 
L 64.876477 177.10991 
L 63.376477 178.60991 
L 64.876477 180.10991 
L 63.376477 181.60991 
z
" style="fill:#2f9599;stroke:#ffffff;stroke-width:0.48;"/>
    <path clip-path="url(#pe57ecad9db)" d="M 71.640114 154.822094 
L 73.140114 153.322094 
L 74.640114 154.822094 
L 76.140114 153.322094 
L 74.640114 151.822094 
L 76.140114 150.322094 
L 74.640114 148.822094 
L 73.140114 150.322094 
L 71.640114 148.822094 
L 70.140114 150.322094 
L 71.640114 151.822094 
L 70.140114 153.322094 
z
" style="fill:#2f9599;stroke:#ffffff;stroke-width:0.48;"/>
    <path clip-path="url(#pe57ecad9db)" d="M 78.40375 187.947306 
L 79.90375 186.447306 
L 81.40375 187.947306 
L 82.90375 186.447306 
L 81.40375 184.947306 
L 82.90375 183.447306 
L 81.40375 181.947306 
L 79.90375 183.447306 
L 78.40375 181.947306 
L 76.90375 183.447306 
L 78.40375 184.947306 
L 76.90375 186.447306 
z
" style="fill:#2f9599;stroke:#ffffff;stroke-width:0.48;"/>
    <path clip-path="url(#pe57ecad9db)" d="M 85.167386 187.947306 
L 86.667386 186.447306 
L 88.167386 187.947306 
L 89.667386 186.447306 
L 88.167386 184.947306 
L 89.667386 183.447306 
L 88.167386 181.947306 
L 86.667386 183.447306 
L 85.167386 181.947306 
L 83.667386 183.447306 
L 85.167386 184.947306 
L 83.667386 186.447306 
z
" style="fill:#2f9599;stroke:#ffffff;stroke-width:0.48;"/>
    <path clip-path="url(#pe57ecad9db)" d="M 91.931023 162.327025 
L 93.431023 160.827025 
L 94.931023 162.327025 
L 96.431023 160.827025 
L 94.931023 159.327025 
L 96.431023 157.827025 
L 94.931023 156.327025 
L 93.431023 157.827025 
L 91.931023 156.327025 
L 90.431023 157.827025 
L 91.931023 159.327025 
L 90.431023 160.827025 
z
" style="fill:#2f9599;stroke:#ffffff;stroke-width:0.48;"/>
    <path clip-path="url(#pe57ecad9db)" d="M 98.694659 152.267224 
L 100.194659 150.767224 
L 101.694659 152.267224 
L 103.194659 150.767224 
L 101.694659 149.267224 
L 103.194659 147.767224 
L 101.694659 146.267224 
L 100.194659 147.767224 
L 98.694659 146.267224 
L 97.194659 147.767224 
L 98.694659 149.267224 
L 97.194659 150.767224 
z
" style="fill:#2f9599;stroke:#ffffff;stroke-width:0.48;"/>
    <path clip-path="url(#pe57ecad9db)" d="M 105.458295 152.267224 
L 106.958295 150.767224 
L 108.458295 152.267224 
L 109.958295 150.767224 
L 108.458295 149.267224 
L 109.958295 147.767224 
L 108.458295 146.267224 
L 106.958295 147.767224 
L 105.458295 146.267224 
L 103.958295 147.767224 
L 105.458295 149.267224 
L 103.958295 150.767224 
z
" style="fill:#2f9599;stroke:#ffffff;stroke-width:0.48;"/>
    <path clip-path="url(#pe57ecad9db)" d="M 112.221932 152.267224 
L 113.721932 150.767224 
L 115.221932 152.267224 
L 116.721932 150.767224 
L 115.221932 149.267224 
L 116.721932 147.767224 
L 115.221932 146.267224 
L 113.721932 147.767224 
L 112.221932 146.267224 
L 110.721932 147.767224 
L 112.221932 149.267224 
L 110.721932 150.767224 
z
" style="fill:#2f9599;stroke:#ffffff;stroke-width:0.48;"/>
    <path clip-path="url(#pe57ecad9db)" d="M 118.985568 141.770041 
L 120.485568 140.270041 
L 121.985568 141.770041 
L 123.485568 140.270041 
L 121.985568 138.770041 
L 123.485568 137.270041 
L 121.985568 135.770041 
L 120.485568 137.270041 
L 118.985568 135.770041 
L 117.485568 137.270041 
L 118.985568 138.770041 
L 117.485568 140.270041 
z
" style="fill:#2f9599;stroke:#ffffff;stroke-width:0.48;"/>
    <path clip-path="url(#pe57ecad9db)" d="M 125.749205 141.770041 
L 127.249205 140.270041 
L 128.749205 141.770041 
L 130.249205 140.270041 
L 128.749205 138.770041 
L 130.249205 137.270041 
L 128.749205 135.770041 
L 127.249205 137.270041 
L 125.749205 135.770041 
L 124.249205 137.270041 
L 125.749205 138.770041 
L 124.249205 140.270041 
z
" style="fill:#2f9599;stroke:#ffffff;stroke-width:0.48;"/>
    <path clip-path="url(#pe57ecad9db)" d="M 132.512841 141.770041 
L 134.012841 140.270041 
L 135.512841 141.770041 
L 137.012841 140.270041 
L 135.512841 138.770041 
L 137.012841 137.270041 
L 135.512841 135.770041 
L 134.012841 137.270041 
L 132.512841 135.770041 
L 131.012841 137.270041 
L 132.512841 138.770041 
L 131.012841 140.270041 
z
" style="fill:#2f9599;stroke:#ffffff;stroke-width:0.48;"/>
    <path clip-path="url(#pe57ecad9db)" d="M 139.276477 141.770041 
L 140.776477 140.270041 
L 142.276477 141.770041 
L 143.776477 140.270041 
L 142.276477 138.770041 
L 143.776477 137.270041 
L 142.276477 135.770041 
L 140.776477 137.270041 
L 139.276477 135.770041 
L 137.776477 137.270041 
L 139.276477 138.770041 
L 137.776477 140.270041 
z
" style="fill:#2f9599;stroke:#ffffff;stroke-width:0.48;"/>
    <path clip-path="url(#pe57ecad9db)" d="M 146.040114 141.770041 
L 147.540114 140.270041 
L 149.040114 141.770041 
L 150.540114 140.270041 
L 149.040114 138.770041 
L 150.540114 137.270041 
L 149.040114 135.770041 
L 147.540114 137.270041 
L 146.040114 135.770041 
L 144.540114 137.270041 
L 146.040114 138.770041 
L 144.540114 140.270041 
z
" style="fill:#2f9599;stroke:#ffffff;stroke-width:0.48;"/>
    <path clip-path="url(#pe57ecad9db)" d="M 152.80375 141.770041 
L 154.30375 140.270041 
L 155.80375 141.770041 
L 157.30375 140.270041 
L 155.80375 138.770041 
L 157.30375 137.270041 
L 155.80375 135.770041 
L 154.30375 137.270041 
L 152.80375 135.770041 
L 151.30375 137.270041 
L 152.80375 138.770041 
L 151.30375 140.270041 
z
" style="fill:#2f9599;stroke:#ffffff;stroke-width:0.48;"/>
    <path clip-path="url(#pe57ecad9db)" d="M 159.567386 141.770041 
L 161.067386 140.270041 
L 162.567386 141.770041 
L 164.067386 140.270041 
L 162.567386 138.770041 
L 164.067386 137.270041 
L 162.567386 135.770041 
L 161.067386 137.270041 
L 159.567386 135.770041 
L 158.067386 137.270041 
L 159.567386 138.770041 
L 158.067386 140.270041 
z
" style="fill:#2f9599;stroke:#ffffff;stroke-width:0.48;"/>
    <path clip-path="url(#pe57ecad9db)" d="M 166.331023 141.770041 
L 167.831023 140.270041 
L 169.331023 141.770041 
L 170.831023 140.270041 
L 169.331023 138.770041 
L 170.831023 137.270041 
L 169.331023 135.770041 
L 167.831023 137.270041 
L 166.331023 135.770041 
L 164.831023 137.270041 
L 166.331023 138.770041 
L 164.831023 140.270041 
z
" style="fill:#2f9599;stroke:#ffffff;stroke-width:0.48;"/>
    <path clip-path="url(#pe57ecad9db)" d="M 173.094659 22.296 
L 174.594659 20.796 
L 176.094659 22.296 
L 177.594659 20.796 
L 176.094659 19.296 
L 177.594659 17.796 
L 176.094659 16.296 
L 174.594659 17.796 
L 173.094659 16.296 
L 171.594659 17.796 
L 173.094659 19.296 
L 171.594659 20.796 
z
" style="fill:#2f9599;stroke:#ffffff;stroke-width:0.48;"/>
    <path clip-path="url(#pe57ecad9db)" d="M 179.858295 22.296 
L 181.358295 20.796 
L 182.858295 22.296 
L 184.358295 20.796 
L 182.858295 19.296 
L 184.358295 17.796 
L 182.858295 16.296 
L 181.358295 17.796 
L 179.858295 16.296 
L 178.358295 17.796 
L 179.858295 19.296 
L 178.358295 20.796 
z
" style="fill:#2f9599;stroke:#ffffff;stroke-width:0.48;"/>
    <path clip-path="url(#pe57ecad9db)" d="M 186.621932 22.296 
L 188.121932 20.796 
L 189.621932 22.296 
L 191.121932 20.796 
L 189.621932 19.296 
L 191.121932 17.796 
L 189.621932 16.296 
L 188.121932 17.796 
L 186.621932 16.296 
L 185.121932 17.796 
L 186.621932 19.296 
L 185.121932 20.796 
z
" style="fill:#2f9599;stroke:#ffffff;stroke-width:0.48;"/>
    <path clip-path="url(#pe57ecad9db)" d="M 193.385568 22.296 
L 194.885568 20.796 
L 196.385568 22.296 
L 197.885568 20.796 
L 196.385568 19.296 
L 197.885568 17.796 
L 196.385568 16.296 
L 194.885568 17.796 
L 193.385568 16.296 
L 191.885568 17.796 
L 193.385568 19.296 
L 191.885568 20.796 
z
" style="fill:#2f9599;stroke:#ffffff;stroke-width:0.48;"/>
    <path clip-path="url(#pe57ecad9db)" d="M 200.149205 22.296 
L 201.649205 20.796 
L 203.149205 22.296 
L 204.649205 20.796 
L 203.149205 19.296 
L 204.649205 17.796 
L 203.149205 16.296 
L 201.649205 17.796 
L 200.149205 16.296 
L 198.649205 17.796 
L 200.149205 19.296 
L 198.649205 20.796 
z
" style="fill:#2f9599;stroke:#ffffff;stroke-width:0.48;"/>
    <path clip-path="url(#pe57ecad9db)" d="M 206.912841 22.296 
L 208.412841 20.796 
L 209.912841 22.296 
L 211.412841 20.796 
L 209.912841 19.296 
L 211.412841 17.796 
L 209.912841 16.296 
L 208.412841 17.796 
L 206.912841 16.296 
L 205.412841 17.796 
L 206.912841 19.296 
L 205.412841 20.796 
z
" style="fill:#2f9599;stroke:#ffffff;stroke-width:0.48;"/>
    <path clip-path="url(#pe57ecad9db)" d="M 213.676477 22.296 
L 215.176477 20.796 
L 216.676477 22.296 
L 218.176477 20.796 
L 216.676477 19.296 
L 218.176477 17.796 
L 216.676477 16.296 
L 215.176477 17.796 
L 213.676477 16.296 
L 212.176477 17.796 
L 213.676477 19.296 
L 212.176477 20.796 
z
" style="fill:#2f9599;stroke:#ffffff;stroke-width:0.48;"/>
    <path clip-path="url(#pe57ecad9db)" d="M 220.440114 22.296 
L 221.940114 20.796 
L 223.440114 22.296 
L 224.940114 20.796 
L 223.440114 19.296 
L 224.940114 17.796 
L 223.440114 16.296 
L 221.940114 17.796 
L 220.440114 16.296 
L 218.940114 17.796 
L 220.440114 19.296 
L 218.940114 20.796 
z
" style="fill:#2f9599;stroke:#ffffff;stroke-width:0.48;"/>
    <path clip-path="url(#pe57ecad9db)" d="M 227.20375 22.296 
L 228.70375 20.796 
L 230.20375 22.296 
L 231.70375 20.796 
L 230.20375 19.296 
L 231.70375 17.796 
L 230.20375 16.296 
L 228.70375 17.796 
L 227.20375 16.296 
L 225.70375 17.796 
L 227.20375 19.296 
L 225.70375 20.796 
z
" style="fill:#2f9599;stroke:#ffffff;stroke-width:0.48;"/>
    <path clip-path="url(#pe57ecad9db)" d="M 233.967386 22.296 
L 235.467386 20.796 
L 236.967386 22.296 
L 238.467386 20.796 
L 236.967386 19.296 
L 238.467386 17.796 
L 236.967386 16.296 
L 235.467386 17.796 
L 233.967386 16.296 
L 232.467386 17.796 
L 233.967386 19.296 
L 232.467386 20.796 
z
" style="fill:#2f9599;stroke:#ffffff;stroke-width:0.48;"/>
    <path clip-path="url(#pe57ecad9db)" d="M 240.731023 22.296 
L 242.231023 20.796 
L 243.731023 22.296 
L 245.231023 20.796 
L 243.731023 19.296 
L 245.231023 17.796 
L 243.731023 16.296 
L 242.231023 17.796 
L 240.731023 16.296 
L 239.231023 17.796 
L 240.731023 19.296 
L 239.231023 20.796 
z
" style="fill:#2f9599;stroke:#ffffff;stroke-width:0.48;"/>
    <path clip-path="url(#pe57ecad9db)" d="M 247.494659 22.296 
L 248.994659 20.796 
L 250.494659 22.296 
L 251.994659 20.796 
L 250.494659 19.296 
L 251.994659 17.796 
L 250.494659 16.296 
L 248.994659 17.796 
L 247.494659 16.296 
L 245.994659 17.796 
L 247.494659 19.296 
L 245.994659 20.796 
z
" style="fill:#2f9599;stroke:#ffffff;stroke-width:0.48;"/>
    <path clip-path="url(#pe57ecad9db)" d="M 254.258295 22.296 
L 255.758295 20.796 
L 257.258295 22.296 
L 258.758295 20.796 
L 257.258295 19.296 
L 258.758295 17.796 
L 257.258295 16.296 
L 255.758295 17.796 
L 254.258295 16.296 
L 252.758295 17.796 
L 254.258295 19.296 
L 252.758295 20.796 
z
" style="fill:#2f9599;stroke:#ffffff;stroke-width:0.48;"/>
    <path clip-path="url(#pe57ecad9db)" d="M 261.021932 22.296 
L 262.521932 20.796 
L 264.021932 22.296 
L 265.521932 20.796 
L 264.021932 19.296 
L 265.521932 17.796 
L 264.021932 16.296 
L 262.521932 17.796 
L 261.021932 16.296 
L 259.521932 17.796 
L 261.021932 19.296 
L 259.521932 20.796 
z
" style="fill:#2f9599;stroke:#ffffff;stroke-width:0.48;"/>
    <path clip-path="url(#pe57ecad9db)" d="M 267.785568 22.296 
L 269.285568 20.796 
L 270.785568 22.296 
L 272.285568 20.796 
L 270.785568 19.296 
L 272.285568 17.796 
L 270.785568 16.296 
L 269.285568 17.796 
L 267.785568 16.296 
L 266.285568 17.796 
L 267.785568 19.296 
L 266.285568 20.796 
z
" style="fill:#2f9599;stroke:#ffffff;stroke-width:0.48;"/>
    <path clip-path="url(#pe57ecad9db)" d="M 274.549205 22.296 
L 276.049205 20.796 
L 277.549205 22.296 
L 279.049205 20.796 
L 277.549205 19.296 
L 279.049205 17.796 
L 277.549205 16.296 
L 276.049205 17.796 
L 274.549205 16.296 
L 273.049205 17.796 
L 274.549205 19.296 
L 273.049205 20.796 
z
" style="fill:#2f9599;stroke:#ffffff;stroke-width:0.48;"/>
    <path clip-path="url(#pe57ecad9db)" d="M 281.312841 22.296 
L 282.812841 20.796 
L 284.312841 22.296 
L 285.812841 20.796 
L 284.312841 19.296 
L 285.812841 17.796 
L 284.312841 16.296 
L 282.812841 17.796 
L 281.312841 16.296 
L 279.812841 17.796 
L 281.312841 19.296 
L 279.812841 20.796 
z
" style="fill:#2f9599;stroke:#ffffff;stroke-width:0.48;"/>
    <path clip-path="url(#pe57ecad9db)" d="M 288.076477 22.296 
L 289.576477 20.796 
L 291.076477 22.296 
L 292.576477 20.796 
L 291.076477 19.296 
L 292.576477 17.796 
L 291.076477 16.296 
L 289.576477 17.796 
L 288.076477 16.296 
L 286.576477 17.796 
L 288.076477 19.296 
L 286.576477 20.796 
z
" style="fill:#2f9599;stroke:#ffffff;stroke-width:0.48;"/>
    <path clip-path="url(#pe57ecad9db)" d="M 294.840114 22.296 
L 296.340114 20.796 
L 297.840114 22.296 
L 299.340114 20.796 
L 297.840114 19.296 
L 299.340114 17.796 
L 297.840114 16.296 
L 296.340114 17.796 
L 294.840114 16.296 
L 293.340114 17.796 
L 294.840114 19.296 
L 293.340114 20.796 
z
" style="fill:#2f9599;stroke:#ffffff;stroke-width:0.48;"/>
    <path clip-path="url(#pe57ecad9db)" d="M 301.60375 22.296 
L 303.10375 20.796 
L 304.60375 22.296 
L 306.10375 20.796 
L 304.60375 19.296 
L 306.10375 17.796 
L 304.60375 16.296 
L 303.10375 17.796 
L 301.60375 16.296 
L 300.10375 17.796 
L 301.60375 19.296 
L 300.10375 20.796 
z
" style="fill:#2f9599;stroke:#ffffff;stroke-width:0.48;"/>
    <path clip-path="url(#pe57ecad9db)" d="M 308.367386 22.296 
L 309.867386 20.796 
L 311.367386 22.296 
L 312.867386 20.796 
L 311.367386 19.296 
L 312.867386 17.796 
L 311.367386 16.296 
L 309.867386 17.796 
L 308.367386 16.296 
L 306.867386 17.796 
L 308.367386 19.296 
L 306.867386 20.796 
z
" style="fill:#2f9599;stroke:#ffffff;stroke-width:0.48;"/>
    <path clip-path="url(#pe57ecad9db)" d="M 315.131023 22.296 
L 316.631023 20.796 
L 318.131023 22.296 
L 319.631023 20.796 
L 318.131023 19.296 
L 319.631023 17.796 
L 318.131023 16.296 
L 316.631023 17.796 
L 315.131023 16.296 
L 313.631023 17.796 
L 315.131023 19.296 
L 313.631023 20.796 
z
" style="fill:#2f9599;stroke:#ffffff;stroke-width:0.48;"/>
    <path clip-path="url(#pe57ecad9db)" d="M 321.894659 22.296 
L 323.394659 20.796 
L 324.894659 22.296 
L 326.394659 20.796 
L 324.894659 19.296 
L 326.394659 17.796 
L 324.894659 16.296 
L 323.394659 17.796 
L 321.894659 16.296 
L 320.394659 17.796 
L 321.894659 19.296 
L 320.394659 20.796 
z
" style="fill:#2f9599;stroke:#ffffff;stroke-width:0.48;"/>
    <path clip-path="url(#pe57ecad9db)" d="M 328.658295 22.296 
L 330.158295 20.796 
L 331.658295 22.296 
L 333.158295 20.796 
L 331.658295 19.296 
L 333.158295 17.796 
L 331.658295 16.296 
L 330.158295 17.796 
L 328.658295 16.296 
L 327.158295 17.796 
L 328.658295 19.296 
L 327.158295 20.796 
z
" style="fill:#2f9599;stroke:#ffffff;stroke-width:0.48;"/>
    <path clip-path="url(#pe57ecad9db)" d="M 335.421932 22.296 
L 336.921932 20.796 
L 338.421932 22.296 
L 339.921932 20.796 
L 338.421932 19.296 
L 339.921932 17.796 
L 338.421932 16.296 
L 336.921932 17.796 
L 335.421932 16.296 
L 333.921932 17.796 
L 335.421932 19.296 
L 333.921932 20.796 
z
" style="fill:#2f9599;stroke:#ffffff;stroke-width:0.48;"/>
    <path clip-path="url(#pe57ecad9db)" d="M 342.185568 22.296 
L 343.685568 20.796 
L 345.185568 22.296 
L 346.685568 20.796 
L 345.185568 19.296 
L 346.685568 17.796 
L 345.185568 16.296 
L 343.685568 17.796 
L 342.185568 16.296 
L 340.685568 17.796 
L 342.185568 19.296 
L 340.685568 20.796 
z
" style="fill:#2f9599;stroke:#ffffff;stroke-width:0.48;"/>
    <path clip-path="url(#pe57ecad9db)" d="M 348.949205 22.296 
L 350.449205 20.796 
L 351.949205 22.296 
L 353.449205 20.796 
L 351.949205 19.296 
L 353.449205 17.796 
L 351.949205 16.296 
L 350.449205 17.796 
L 348.949205 16.296 
L 347.449205 17.796 
L 348.949205 19.296 
L 347.449205 20.796 
z
" style="fill:#2f9599;stroke:#ffffff;stroke-width:0.48;"/>
    <path clip-path="url(#pe57ecad9db)" d="M 355.712841 22.296 
L 357.212841 20.796 
L 358.712841 22.296 
L 360.212841 20.796 
L 358.712841 19.296 
L 360.212841 17.796 
L 358.712841 16.296 
L 357.212841 17.796 
L 355.712841 16.296 
L 354.212841 17.796 
L 355.712841 19.296 
L 354.212841 20.796 
z
" style="fill:#2f9599;stroke:#ffffff;stroke-width:0.48;"/>
    <path clip-path="url(#pe57ecad9db)" d="M 362.476477 22.296 
L 363.976477 20.796 
L 365.476477 22.296 
L 366.976477 20.796 
L 365.476477 19.296 
L 366.976477 17.796 
L 365.476477 16.296 
L 363.976477 17.796 
L 362.476477 16.296 
L 360.976477 17.796 
L 362.476477 19.296 
L 360.976477 20.796 
z
" style="fill:#2f9599;stroke:#ffffff;stroke-width:0.48;"/>
    <path clip-path="url(#pe57ecad9db)" d="M 369.240114 22.296 
L 370.740114 20.796 
L 372.240114 22.296 
L 373.740114 20.796 
L 372.240114 19.296 
L 373.740114 17.796 
L 372.240114 16.296 
L 370.740114 17.796 
L 369.240114 16.296 
L 367.740114 17.796 
L 369.240114 19.296 
L 367.740114 20.796 
z
" style="fill:#2f9599;stroke:#ffffff;stroke-width:0.48;"/>
    <path clip-path="url(#pe57ecad9db)" d="M 376.00375 22.296 
L 377.50375 20.796 
L 379.00375 22.296 
L 380.50375 20.796 
L 379.00375 19.296 
L 380.50375 17.796 
L 379.00375 16.296 
L 377.50375 17.796 
L 376.00375 16.296 
L 374.50375 17.796 
L 376.00375 19.296 
L 374.50375 20.796 
z
" style="fill:#2f9599;stroke:#ffffff;stroke-width:0.48;"/>
    <path clip-path="url(#pe57ecad9db)" d="M 382.767386 22.296 
L 384.267386 20.796 
L 385.767386 22.296 
L 387.267386 20.796 
L 385.767386 19.296 
L 387.267386 17.796 
L 385.767386 16.296 
L 384.267386 17.796 
L 382.767386 16.296 
L 381.267386 17.796 
L 382.767386 19.296 
L 381.267386 20.796 
z
" style="fill:#2f9599;stroke:#ffffff;stroke-width:0.48;"/>
    <path clip-path="url(#pe57ecad9db)" d="M 389.531023 22.296 
L 391.031023 20.796 
L 392.531023 22.296 
L 394.031023 20.796 
L 392.531023 19.296 
L 394.031023 17.796 
L 392.531023 16.296 
L 391.031023 17.796 
L 389.531023 16.296 
L 388.031023 17.796 
L 389.531023 19.296 
L 388.031023 20.796 
z
" style="fill:#2f9599;stroke:#ffffff;stroke-width:0.48;"/>
    <path clip-path="url(#pe57ecad9db)" d="M 64.255157 250.079223 
L 64.255157 254.321863 
L 68.497798 254.321863 
L 68.497798 250.079223 
z
" style="fill:#a7226e;stroke:#ffffff;stroke-width:0.48;"/>
    <path clip-path="url(#pe57ecad9db)" d="M 71.018793 250.079223 
L 71.018793 254.321863 
L 75.261434 254.321863 
L 75.261434 250.079223 
z
" style="fill:#a7226e;stroke:#ffffff;stroke-width:0.48;"/>
    <path clip-path="url(#pe57ecad9db)" d="M 77.78243 250.079223 
L 77.78243 254.321863 
L 82.02507 254.321863 
L 82.02507 250.079223 
z
" style="fill:#a7226e;stroke:#ffffff;stroke-width:0.48;"/>
    <path clip-path="url(#pe57ecad9db)" d="M 84.546066 250.079223 
L 84.546066 254.321863 
L 88.788707 254.321863 
L 88.788707 250.079223 
z
" style="fill:#a7226e;stroke:#ffffff;stroke-width:0.48;"/>
    <path clip-path="url(#pe57ecad9db)" d="M 91.309702 250.079223 
L 91.309702 254.321863 
L 95.552343 254.321863 
L 95.552343 250.079223 
z
" style="fill:#a7226e;stroke:#ffffff;stroke-width:0.48;"/>
    <path clip-path="url(#pe57ecad9db)" d="M 98.073339 256.91407 
L 98.073339 261.156711 
L 102.315979 261.156711 
L 102.315979 256.91407 
z
" style="fill:#a7226e;stroke:#ffffff;stroke-width:0.48;"/>
    <path clip-path="url(#pe57ecad9db)" d="M 104.836975 256.91407 
L 104.836975 261.156711 
L 109.079616 261.156711 
L 109.079616 256.91407 
z
" style="fill:#a7226e;stroke:#ffffff;stroke-width:0.48;"/>
    <path clip-path="url(#pe57ecad9db)" d="M 111.600611 256.91407 
L 111.600611 261.156711 
L 115.843252 261.156711 
L 115.843252 256.91407 
z
" style="fill:#a7226e;stroke:#ffffff;stroke-width:0.48;"/>
    <path clip-path="url(#pe57ecad9db)" d="M 118.364248 251.767832 
L 118.364248 256.010473 
L 122.606889 256.010473 
L 122.606889 251.767832 
z
" style="fill:#a7226e;stroke:#ffffff;stroke-width:0.48;"/>
    <path clip-path="url(#pe57ecad9db)" d="M 125.127884 251.767832 
L 125.127884 256.010473 
L 129.370525 256.010473 
L 129.370525 251.767832 
z
" style="fill:#a7226e;stroke:#ffffff;stroke-width:0.48;"/>
    <path clip-path="url(#pe57ecad9db)" d="M 131.891521 259.09468 
L 131.891521 263.33732 
L 136.134161 263.33732 
L 136.134161 259.09468 
z
" style="fill:#a7226e;stroke:#ffffff;stroke-width:0.48;"/>
    <path clip-path="url(#pe57ecad9db)" d="M 138.655157 238.258957 
L 138.655157 242.501597 
L 142.897798 242.501597 
L 142.897798 238.258957 
z
" style="fill:#a7226e;stroke:#ffffff;stroke-width:0.48;"/>
    <path clip-path="url(#pe57ecad9db)" d="M 145.418793 217.640147 
L 145.418793 221.882788 
L 149.661434 221.882788 
L 149.661434 217.640147 
z
" style="fill:#a7226e;stroke:#ffffff;stroke-width:0.48;"/>
    <path clip-path="url(#pe57ecad9db)" d="M 152.18243 210.276286 
L 152.18243 214.518927 
L 156.42507 214.518927 
L 156.42507 210.276286 
z
" style="fill:#a7226e;stroke:#ffffff;stroke-width:0.48;"/>
    <path clip-path="url(#pe57ecad9db)" d="M 158.946066 195.802491 
L 158.946066 200.045132 
L 163.188707 200.045132 
L 163.188707 195.802491 
z
" style="fill:#a7226e;stroke:#ffffff;stroke-width:0.48;"/>
    <path clip-path="url(#pe57ecad9db)" d="M 165.709702 202.644649 
L 165.709702 206.88729 
L 169.952343 206.88729 
L 169.952343 202.644649 
z
" style="fill:#a7226e;stroke:#ffffff;stroke-width:0.48;"/>
    <path clip-path="url(#pe57ecad9db)" d="M 172.473339 195.802491 
L 172.473339 200.045132 
L 176.715979 200.045132 
L 176.715979 195.802491 
z
" style="fill:#a7226e;stroke:#ffffff;stroke-width:0.48;"/>
    <path clip-path="url(#pe57ecad9db)" d="M 179.236975 195.802491 
L 179.236975 200.045132 
L 183.479616 200.045132 
L 183.479616 195.802491 
z
" style="fill:#a7226e;stroke:#ffffff;stroke-width:0.48;"/>
    <path clip-path="url(#pe57ecad9db)" d="M 186.000611 153.989306 
L 186.000611 158.231946 
L 190.243252 158.231946 
L 190.243252 153.989306 
z
" style="fill:#a7226e;stroke:#ffffff;stroke-width:0.48;"/>
    <path clip-path="url(#pe57ecad9db)" d="M 192.764248 148.762657 
L 192.764248 153.005298 
L 197.006889 153.005298 
L 197.006889 148.762657 
z
" style="fill:#a7226e;stroke:#ffffff;stroke-width:0.48;"/>
    <path clip-path="url(#pe57ecad9db)" d="M 199.527884 148.762657 
L 199.527884 153.005298 
L 203.770525 153.005298 
L 203.770525 148.762657 
z
" style="fill:#a7226e;stroke:#ffffff;stroke-width:0.48;"/>
    <path clip-path="url(#pe57ecad9db)" d="M 206.291521 141.12371 
L 206.291521 145.366351 
L 210.534161 145.366351 
L 210.534161 141.12371 
z
" style="fill:#a7226e;stroke:#ffffff;stroke-width:0.48;"/>
    <path clip-path="url(#pe57ecad9db)" d="M 213.055157 128.258115 
L 213.055157 132.500755 
L 217.297798 132.500755 
L 217.297798 128.258115 
z
" style="fill:#a7226e;stroke:#ffffff;stroke-width:0.48;"/>
    <path clip-path="url(#pe57ecad9db)" d="M 219.818793 143.696829 
L 219.818793 147.93947 
L 224.061434 147.93947 
L 224.061434 143.696829 
z
" style="fill:#a7226e;stroke:#ffffff;stroke-width:0.48;"/>
    <path clip-path="url(#pe57ecad9db)" d="M 226.58243 143.696829 
L 226.58243 147.93947 
L 230.82507 147.93947 
L 230.82507 143.696829 
z
" style="fill:#a7226e;stroke:#ffffff;stroke-width:0.48;"/>
    <path clip-path="url(#pe57ecad9db)" d="M 233.346066 135.454126 
L 233.346066 139.696766 
L 237.588707 139.696766 
L 237.588707 135.454126 
z
" style="fill:#a7226e;stroke:#ffffff;stroke-width:0.48;"/>
    <path clip-path="url(#pe57ecad9db)" d="M 240.109702 120.16524 
L 240.109702 124.407881 
L 244.352343 124.407881 
L 244.352343 120.16524 
z
" style="fill:#a7226e;stroke:#ffffff;stroke-width:0.48;"/>
    <path clip-path="url(#pe57ecad9db)" d="M 246.873339 111.807025 
L 246.873339 116.049666 
L 251.115979 116.049666 
L 251.115979 111.807025 
z
" style="fill:#a7226e;stroke:#ffffff;stroke-width:0.48;"/>
    <path clip-path="url(#pe57ecad9db)" d="M 253.636975 94.240608 
L 253.636975 98.483248 
L 257.879616 98.483248 
L 257.879616 94.240608 
z
" style="fill:#a7226e;stroke:#ffffff;stroke-width:0.48;"/>
    <path clip-path="url(#pe57ecad9db)" d="M 260.400611 94.240608 
L 260.400611 98.483248 
L 264.643252 98.483248 
L 264.643252 94.240608 
z
" style="fill:#a7226e;stroke:#ffffff;stroke-width:0.48;"/>
    <path clip-path="url(#pe57ecad9db)" d="M 267.164248 94.240608 
L 267.164248 98.483248 
L 271.406889 98.483248 
L 271.406889 94.240608 
z
" style="fill:#a7226e;stroke:#ffffff;stroke-width:0.48;"/>
    <path clip-path="url(#pe57ecad9db)" d="M 273.927884 94.240608 
L 273.927884 98.483248 
L 278.170525 98.483248 
L 278.170525 94.240608 
z
" style="fill:#a7226e;stroke:#ffffff;stroke-width:0.48;"/>
    <path clip-path="url(#pe57ecad9db)" d="M 280.691521 94.240608 
L 280.691521 98.483248 
L 284.934161 98.483248 
L 284.934161 94.240608 
z
" style="fill:#a7226e;stroke:#ffffff;stroke-width:0.48;"/>
    <path clip-path="url(#pe57ecad9db)" d="M 287.455157 98.977794 
L 287.455157 103.220434 
L 291.697798 103.220434 
L 291.697798 98.977794 
z
" style="fill:#a7226e;stroke:#ffffff;stroke-width:0.48;"/>
    <path clip-path="url(#pe57ecad9db)" d="M 294.218793 98.977794 
L 294.218793 103.220434 
L 298.461434 103.220434 
L 298.461434 98.977794 
z
" style="fill:#a7226e;stroke:#ffffff;stroke-width:0.48;"/>
    <path clip-path="url(#pe57ecad9db)" d="M 300.98243 98.977794 
L 300.98243 103.220434 
L 305.22507 103.220434 
L 305.22507 98.977794 
z
" style="fill:#a7226e;stroke:#ffffff;stroke-width:0.48;"/>
    <path clip-path="url(#pe57ecad9db)" d="M 307.746066 98.977794 
L 307.746066 103.220434 
L 311.988707 103.220434 
L 311.988707 98.977794 
z
" style="fill:#a7226e;stroke:#ffffff;stroke-width:0.48;"/>
    <path clip-path="url(#pe57ecad9db)" d="M 314.509702 98.977794 
L 314.509702 103.220434 
L 318.752343 103.220434 
L 318.752343 98.977794 
z
" style="fill:#a7226e;stroke:#ffffff;stroke-width:0.48;"/>
    <path clip-path="url(#pe57ecad9db)" d="M 321.273339 98.977794 
L 321.273339 103.220434 
L 325.515979 103.220434 
L 325.515979 98.977794 
z
" style="fill:#a7226e;stroke:#ffffff;stroke-width:0.48;"/>
    <path clip-path="url(#pe57ecad9db)" d="M 328.036975 98.977794 
L 328.036975 103.220434 
L 332.279616 103.220434 
L 332.279616 98.977794 
z
" style="fill:#a7226e;stroke:#ffffff;stroke-width:0.48;"/>
    <path clip-path="url(#pe57ecad9db)" d="M 334.800611 98.977794 
L 334.800611 103.220434 
L 339.043252 103.220434 
L 339.043252 98.977794 
z
" style="fill:#a7226e;stroke:#ffffff;stroke-width:0.48;"/>
    <path clip-path="url(#pe57ecad9db)" d="M 341.564248 98.977794 
L 341.564248 103.220434 
L 345.806889 103.220434 
L 345.806889 98.977794 
z
" style="fill:#a7226e;stroke:#ffffff;stroke-width:0.48;"/>
    <path clip-path="url(#pe57ecad9db)" d="M 348.327884 98.977794 
L 348.327884 103.220434 
L 352.570525 103.220434 
L 352.570525 98.977794 
z
" style="fill:#a7226e;stroke:#ffffff;stroke-width:0.48;"/>
    <path clip-path="url(#pe57ecad9db)" d="M 355.091521 98.977794 
L 355.091521 103.220434 
L 359.334161 103.220434 
L 359.334161 98.977794 
z
" style="fill:#a7226e;stroke:#ffffff;stroke-width:0.48;"/>
    <path clip-path="url(#pe57ecad9db)" d="M 361.855157 98.977794 
L 361.855157 103.220434 
L 366.097798 103.220434 
L 366.097798 98.977794 
z
" style="fill:#a7226e;stroke:#ffffff;stroke-width:0.48;"/>
    <path clip-path="url(#pe57ecad9db)" d="M 368.618793 98.977794 
L 368.618793 103.220434 
L 372.861434 103.220434 
L 372.861434 98.977794 
z
" style="fill:#a7226e;stroke:#ffffff;stroke-width:0.48;"/>
    <path clip-path="url(#pe57ecad9db)" d="M 375.38243 98.977794 
L 375.38243 103.220434 
L 379.62507 103.220434 
L 379.62507 98.977794 
z
" style="fill:#a7226e;stroke:#ffffff;stroke-width:0.48;"/>
    <path clip-path="url(#pe57ecad9db)" d="M 382.146066 98.977794 
L 382.146066 103.220434 
L 386.388707 103.220434 
L 386.388707 98.977794 
z
" style="fill:#a7226e;stroke:#ffffff;stroke-width:0.48;"/>
    <path clip-path="url(#pe57ecad9db)" d="M 388.909702 98.977794 
L 388.909702 103.220434 
L 393.152343 103.220434 
L 393.152343 98.977794 
z
" style="fill:#a7226e;stroke:#ffffff;stroke-width:0.48;"/>
   </g>
   <g id="PathCollection_2"/>
   <g id="PathCollection_3"/>
   <g id="PathCollection_4"/>
   <g id="matplotlib.axis_1">
    <g id="xtick_1">
     <g id="line2d_1">
      <defs>
       <path d="M 0 0 
L 0 3.5 
" id="mf4309194d1" style="stroke:#000000;stroke-width:0.8;"/>
      </defs>
      <g>
       <use style="stroke:#000000;stroke-width:0.8;" x="59.612841" xlink:href="#mf4309194d1" y="273.312"/>
      </g>
     </g>
     <g id="text_1">
      <!-- 0.0 -->
      <g transform="translate(51.661278 287.910437)scale(0.1 -0.1)">
       <defs>
        <path d="M 31.78125 66.40625 
Q 24.171875 66.40625 20.328125 58.90625 
Q 16.5 51.421875 16.5 36.375 
Q 16.5 21.390625 20.328125 13.890625 
Q 24.171875 6.390625 31.78125 6.390625 
Q 39.453125 6.390625 43.28125 13.890625 
Q 47.125 21.390625 47.125 36.375 
Q 47.125 51.421875 43.28125 58.90625 
Q 39.453125 66.40625 31.78125 66.40625 
z
M 31.78125 74.21875 
Q 44.046875 74.21875 50.515625 64.515625 
Q 56.984375 54.828125 56.984375 36.375 
Q 56.984375 17.96875 50.515625 8.265625 
Q 44.046875 -1.421875 31.78125 -1.421875 
Q 19.53125 -1.421875 13.0625 8.265625 
Q 6.59375 17.96875 6.59375 36.375 
Q 6.59375 54.828125 13.0625 64.515625 
Q 19.53125 74.21875 31.78125 74.21875 
z
" id="DejaVuSans-48"/>
        <path d="M 10.6875 12.40625 
L 21 12.40625 
L 21 0 
L 10.6875 0 
z
" id="DejaVuSans-46"/>
       </defs>
       <use xlink:href="#DejaVuSans-48"/>
       <use x="63.623047" xlink:href="#DejaVuSans-46"/>
       <use x="95.410156" xlink:href="#DejaVuSans-48"/>
      </g>
     </g>
    </g>
    <g id="xtick_2">
     <g id="line2d_2">
      <g>
       <use style="stroke:#000000;stroke-width:0.8;" x="127.249205" xlink:href="#mf4309194d1" y="273.312"/>
      </g>
     </g>
     <g id="text_2">
      <!-- 0.2 -->
      <g transform="translate(119.297642 287.910437)scale(0.1 -0.1)">
       <defs>
        <path d="M 19.1875 8.296875 
L 53.609375 8.296875 
L 53.609375 0 
L 7.328125 0 
L 7.328125 8.296875 
Q 12.9375 14.109375 22.625 23.890625 
Q 32.328125 33.6875 34.8125 36.53125 
Q 39.546875 41.84375 41.421875 45.53125 
Q 43.3125 49.21875 43.3125 52.78125 
Q 43.3125 58.59375 39.234375 62.25 
Q 35.15625 65.921875 28.609375 65.921875 
Q 23.96875 65.921875 18.8125 64.3125 
Q 13.671875 62.703125 7.8125 59.421875 
L 7.8125 69.390625 
Q 13.765625 71.78125 18.9375 73 
Q 24.125 74.21875 28.421875 74.21875 
Q 39.75 74.21875 46.484375 68.546875 
Q 53.21875 62.890625 53.21875 53.421875 
Q 53.21875 48.921875 51.53125 44.890625 
Q 49.859375 40.875 45.40625 35.40625 
Q 44.1875 33.984375 37.640625 27.21875 
Q 31.109375 20.453125 19.1875 8.296875 
z
" id="DejaVuSans-50"/>
       </defs>
       <use xlink:href="#DejaVuSans-48"/>
       <use x="63.623047" xlink:href="#DejaVuSans-46"/>
       <use x="95.410156" xlink:href="#DejaVuSans-50"/>
      </g>
     </g>
    </g>
    <g id="xtick_3">
     <g id="line2d_3">
      <g>
       <use style="stroke:#000000;stroke-width:0.8;" x="194.885568" xlink:href="#mf4309194d1" y="273.312"/>
      </g>
     </g>
     <g id="text_3">
      <!-- 0.4 -->
      <g transform="translate(186.934006 287.910437)scale(0.1 -0.1)">
       <defs>
        <path d="M 37.796875 64.3125 
L 12.890625 25.390625 
L 37.796875 25.390625 
z
M 35.203125 72.90625 
L 47.609375 72.90625 
L 47.609375 25.390625 
L 58.015625 25.390625 
L 58.015625 17.1875 
L 47.609375 17.1875 
L 47.609375 0 
L 37.796875 0 
L 37.796875 17.1875 
L 4.890625 17.1875 
L 4.890625 26.703125 
z
" id="DejaVuSans-52"/>
       </defs>
       <use xlink:href="#DejaVuSans-48"/>
       <use x="63.623047" xlink:href="#DejaVuSans-46"/>
       <use x="95.410156" xlink:href="#DejaVuSans-52"/>
      </g>
     </g>
    </g>
    <g id="xtick_4">
     <g id="line2d_4">
      <g>
       <use style="stroke:#000000;stroke-width:0.8;" x="262.521932" xlink:href="#mf4309194d1" y="273.312"/>
      </g>
     </g>
     <g id="text_4">
      <!-- 0.6 -->
      <g transform="translate(254.570369 287.910437)scale(0.1 -0.1)">
       <defs>
        <path d="M 33.015625 40.375 
Q 26.375 40.375 22.484375 35.828125 
Q 18.609375 31.296875 18.609375 23.390625 
Q 18.609375 15.53125 22.484375 10.953125 
Q 26.375 6.390625 33.015625 6.390625 
Q 39.65625 6.390625 43.53125 10.953125 
Q 47.40625 15.53125 47.40625 23.390625 
Q 47.40625 31.296875 43.53125 35.828125 
Q 39.65625 40.375 33.015625 40.375 
z
M 52.59375 71.296875 
L 52.59375 62.3125 
Q 48.875 64.0625 45.09375 64.984375 
Q 41.3125 65.921875 37.59375 65.921875 
Q 27.828125 65.921875 22.671875 59.328125 
Q 17.53125 52.734375 16.796875 39.40625 
Q 19.671875 43.65625 24.015625 45.921875 
Q 28.375 48.1875 33.59375 48.1875 
Q 44.578125 48.1875 50.953125 41.515625 
Q 57.328125 34.859375 57.328125 23.390625 
Q 57.328125 12.15625 50.6875 5.359375 
Q 44.046875 -1.421875 33.015625 -1.421875 
Q 20.359375 -1.421875 13.671875 8.265625 
Q 6.984375 17.96875 6.984375 36.375 
Q 6.984375 53.65625 15.1875 63.9375 
Q 23.390625 74.21875 37.203125 74.21875 
Q 40.921875 74.21875 44.703125 73.484375 
Q 48.484375 72.75 52.59375 71.296875 
z
" id="DejaVuSans-54"/>
       </defs>
       <use xlink:href="#DejaVuSans-48"/>
       <use x="63.623047" xlink:href="#DejaVuSans-46"/>
       <use x="95.410156" xlink:href="#DejaVuSans-54"/>
      </g>
     </g>
    </g>
    <g id="xtick_5">
     <g id="line2d_5">
      <g>
       <use style="stroke:#000000;stroke-width:0.8;" x="330.158295" xlink:href="#mf4309194d1" y="273.312"/>
      </g>
     </g>
     <g id="text_5">
      <!-- 0.8 -->
      <g transform="translate(322.206733 287.910437)scale(0.1 -0.1)">
       <defs>
        <path d="M 31.78125 34.625 
Q 24.75 34.625 20.71875 30.859375 
Q 16.703125 27.09375 16.703125 20.515625 
Q 16.703125 13.921875 20.71875 10.15625 
Q 24.75 6.390625 31.78125 6.390625 
Q 38.8125 6.390625 42.859375 10.171875 
Q 46.921875 13.96875 46.921875 20.515625 
Q 46.921875 27.09375 42.890625 30.859375 
Q 38.875 34.625 31.78125 34.625 
z
M 21.921875 38.8125 
Q 15.578125 40.375 12.03125 44.71875 
Q 8.5 49.078125 8.5 55.328125 
Q 8.5 64.0625 14.71875 69.140625 
Q 20.953125 74.21875 31.78125 74.21875 
Q 42.671875 74.21875 48.875 69.140625 
Q 55.078125 64.0625 55.078125 55.328125 
Q 55.078125 49.078125 51.53125 44.71875 
Q 48 40.375 41.703125 38.8125 
Q 48.828125 37.15625 52.796875 32.3125 
Q 56.78125 27.484375 56.78125 20.515625 
Q 56.78125 9.90625 50.3125 4.234375 
Q 43.84375 -1.421875 31.78125 -1.421875 
Q 19.734375 -1.421875 13.25 4.234375 
Q 6.78125 9.90625 6.78125 20.515625 
Q 6.78125 27.484375 10.78125 32.3125 
Q 14.796875 37.15625 21.921875 38.8125 
z
M 18.3125 54.390625 
Q 18.3125 48.734375 21.84375 45.5625 
Q 25.390625 42.390625 31.78125 42.390625 
Q 38.140625 42.390625 41.71875 45.5625 
Q 45.3125 48.734375 45.3125 54.390625 
Q 45.3125 60.0625 41.71875 63.234375 
Q 38.140625 66.40625 31.78125 66.40625 
Q 25.390625 66.40625 21.84375 63.234375 
Q 18.3125 60.0625 18.3125 54.390625 
z
" id="DejaVuSans-56"/>
       </defs>
       <use xlink:href="#DejaVuSans-48"/>
       <use x="63.623047" xlink:href="#DejaVuSans-46"/>
       <use x="95.410156" xlink:href="#DejaVuSans-56"/>
      </g>
     </g>
    </g>
    <g id="xtick_6">
     <g id="line2d_6">
      <g>
       <use style="stroke:#000000;stroke-width:0.8;" x="397.794659" xlink:href="#mf4309194d1" y="273.312"/>
      </g>
     </g>
     <g id="text_6">
      <!-- 1.0 -->
      <g transform="translate(389.843097 287.910437)scale(0.1 -0.1)">
       <defs>
        <path d="M 12.40625 8.296875 
L 28.515625 8.296875 
L 28.515625 63.921875 
L 10.984375 60.40625 
L 10.984375 69.390625 
L 28.421875 72.90625 
L 38.28125 72.90625 
L 38.28125 8.296875 
L 54.390625 8.296875 
L 54.390625 0 
L 12.40625 0 
z
" id="DejaVuSans-49"/>
       </defs>
       <use xlink:href="#DejaVuSans-49"/>
       <use x="63.623047" xlink:href="#DejaVuSans-46"/>
       <use x="95.410156" xlink:href="#DejaVuSans-48"/>
      </g>
     </g>
    </g>
    <g id="text_7">
     <!-- cutoff -->
     <g transform="translate(214.245938 301.588562)scale(0.1 -0.1)">
      <defs>
       <path d="M 48.78125 52.59375 
L 48.78125 44.1875 
Q 44.96875 46.296875 41.140625 47.34375 
Q 37.3125 48.390625 33.40625 48.390625 
Q 24.65625 48.390625 19.8125 42.84375 
Q 14.984375 37.3125 14.984375 27.296875 
Q 14.984375 17.28125 19.8125 11.734375 
Q 24.65625 6.203125 33.40625 6.203125 
Q 37.3125 6.203125 41.140625 7.25 
Q 44.96875 8.296875 48.78125 10.40625 
L 48.78125 2.09375 
Q 45.015625 0.34375 40.984375 -0.53125 
Q 36.96875 -1.421875 32.421875 -1.421875 
Q 20.0625 -1.421875 12.78125 6.34375 
Q 5.515625 14.109375 5.515625 27.296875 
Q 5.515625 40.671875 12.859375 48.328125 
Q 20.21875 56 33.015625 56 
Q 37.15625 56 41.109375 55.140625 
Q 45.0625 54.296875 48.78125 52.59375 
z
" id="DejaVuSans-99"/>
       <path d="M 8.5 21.578125 
L 8.5 54.6875 
L 17.484375 54.6875 
L 17.484375 21.921875 
Q 17.484375 14.15625 20.5 10.265625 
Q 23.53125 6.390625 29.59375 6.390625 
Q 36.859375 6.390625 41.078125 11.03125 
Q 45.3125 15.671875 45.3125 23.6875 
L 45.3125 54.6875 
L 54.296875 54.6875 
L 54.296875 0 
L 45.3125 0 
L 45.3125 8.40625 
Q 42.046875 3.421875 37.71875 1 
Q 33.40625 -1.421875 27.6875 -1.421875 
Q 18.265625 -1.421875 13.375 4.4375 
Q 8.5 10.296875 8.5 21.578125 
z
M 31.109375 56 
z
" id="DejaVuSans-117"/>
       <path d="M 18.3125 70.21875 
L 18.3125 54.6875 
L 36.8125 54.6875 
L 36.8125 47.703125 
L 18.3125 47.703125 
L 18.3125 18.015625 
Q 18.3125 11.328125 20.140625 9.421875 
Q 21.96875 7.515625 27.59375 7.515625 
L 36.8125 7.515625 
L 36.8125 0 
L 27.59375 0 
Q 17.1875 0 13.234375 3.875 
Q 9.28125 7.765625 9.28125 18.015625 
L 9.28125 47.703125 
L 2.6875 47.703125 
L 2.6875 54.6875 
L 9.28125 54.6875 
L 9.28125 70.21875 
z
" id="DejaVuSans-116"/>
       <path d="M 30.609375 48.390625 
Q 23.390625 48.390625 19.1875 42.75 
Q 14.984375 37.109375 14.984375 27.296875 
Q 14.984375 17.484375 19.15625 11.84375 
Q 23.34375 6.203125 30.609375 6.203125 
Q 37.796875 6.203125 41.984375 11.859375 
Q 46.1875 17.53125 46.1875 27.296875 
Q 46.1875 37.015625 41.984375 42.703125 
Q 37.796875 48.390625 30.609375 48.390625 
z
M 30.609375 56 
Q 42.328125 56 49.015625 48.375 
Q 55.71875 40.765625 55.71875 27.296875 
Q 55.71875 13.875 49.015625 6.21875 
Q 42.328125 -1.421875 30.609375 -1.421875 
Q 18.84375 -1.421875 12.171875 6.21875 
Q 5.515625 13.875 5.515625 27.296875 
Q 5.515625 40.765625 12.171875 48.375 
Q 18.84375 56 30.609375 56 
z
" id="DejaVuSans-111"/>
       <path d="M 37.109375 75.984375 
L 37.109375 68.5 
L 28.515625 68.5 
Q 23.6875 68.5 21.796875 66.546875 
Q 19.921875 64.59375 19.921875 59.515625 
L 19.921875 54.6875 
L 34.71875 54.6875 
L 34.71875 47.703125 
L 19.921875 47.703125 
L 19.921875 0 
L 10.890625 0 
L 10.890625 47.703125 
L 2.296875 47.703125 
L 2.296875 54.6875 
L 10.890625 54.6875 
L 10.890625 58.5 
Q 10.890625 67.625 15.140625 71.796875 
Q 19.390625 75.984375 28.609375 75.984375 
z
" id="DejaVuSans-102"/>
      </defs>
      <use xlink:href="#DejaVuSans-99"/>
      <use x="54.980469" xlink:href="#DejaVuSans-117"/>
      <use x="118.359375" xlink:href="#DejaVuSans-116"/>
      <use x="157.568359" xlink:href="#DejaVuSans-111"/>
      <use x="218.75" xlink:href="#DejaVuSans-102"/>
      <use x="253.955078" xlink:href="#DejaVuSans-102"/>
     </g>
    </g>
   </g>
   <g id="matplotlib.axis_2">
    <g id="ytick_1">
     <g id="line2d_7">
      <defs>
       <path d="M 0 0 
L -3.5 0 
" id="m62b45dec78" style="stroke:#000000;stroke-width:0.8;"/>
      </defs>
      <g>
       <use style="stroke:#000000;stroke-width:0.8;" x="50.14375" xlink:href="#m62b45dec78" y="267.398028"/>
      </g>
     </g>
     <g id="text_8">
      <!-- 0.45 -->
      <g transform="translate(20.878125 271.197246)scale(0.1 -0.1)">
       <defs>
        <path d="M 10.796875 72.90625 
L 49.515625 72.90625 
L 49.515625 64.59375 
L 19.828125 64.59375 
L 19.828125 46.734375 
Q 21.96875 47.46875 24.109375 47.828125 
Q 26.265625 48.1875 28.421875 48.1875 
Q 40.625 48.1875 47.75 41.5 
Q 54.890625 34.8125 54.890625 23.390625 
Q 54.890625 11.625 47.5625 5.09375 
Q 40.234375 -1.421875 26.90625 -1.421875 
Q 22.3125 -1.421875 17.546875 -0.640625 
Q 12.796875 0.140625 7.71875 1.703125 
L 7.71875 11.625 
Q 12.109375 9.234375 16.796875 8.0625 
Q 21.484375 6.890625 26.703125 6.890625 
Q 35.15625 6.890625 40.078125 11.328125 
Q 45.015625 15.765625 45.015625 23.390625 
Q 45.015625 31 40.078125 35.4375 
Q 35.15625 39.890625 26.703125 39.890625 
Q 22.75 39.890625 18.8125 39.015625 
Q 14.890625 38.140625 10.796875 36.28125 
z
" id="DejaVuSans-53"/>
       </defs>
       <use xlink:href="#DejaVuSans-48"/>
       <use x="63.623047" xlink:href="#DejaVuSans-46"/>
       <use x="95.410156" xlink:href="#DejaVuSans-52"/>
       <use x="159.033203" xlink:href="#DejaVuSans-53"/>
      </g>
     </g>
    </g>
    <g id="ytick_2">
     <g id="line2d_8">
      <g>
       <use style="stroke:#000000;stroke-width:0.8;" x="50.14375" xlink:href="#m62b45dec78" y="226.871402"/>
      </g>
     </g>
     <g id="text_9">
      <!-- 0.50 -->
      <g transform="translate(20.878125 230.67062)scale(0.1 -0.1)">
       <use xlink:href="#DejaVuSans-48"/>
       <use x="63.623047" xlink:href="#DejaVuSans-46"/>
       <use x="95.410156" xlink:href="#DejaVuSans-53"/>
       <use x="159.033203" xlink:href="#DejaVuSans-48"/>
      </g>
     </g>
    </g>
    <g id="ytick_3">
     <g id="line2d_9">
      <g>
       <use style="stroke:#000000;stroke-width:0.8;" x="50.14375" xlink:href="#m62b45dec78" y="186.344776"/>
      </g>
     </g>
     <g id="text_10">
      <!-- 0.55 -->
      <g transform="translate(20.878125 190.143994)scale(0.1 -0.1)">
       <use xlink:href="#DejaVuSans-48"/>
       <use x="63.623047" xlink:href="#DejaVuSans-46"/>
       <use x="95.410156" xlink:href="#DejaVuSans-53"/>
       <use x="159.033203" xlink:href="#DejaVuSans-53"/>
      </g>
     </g>
    </g>
    <g id="ytick_4">
     <g id="line2d_10">
      <g>
       <use style="stroke:#000000;stroke-width:0.8;" x="50.14375" xlink:href="#m62b45dec78" y="145.81815"/>
      </g>
     </g>
     <g id="text_11">
      <!-- 0.60 -->
      <g transform="translate(20.878125 149.617368)scale(0.1 -0.1)">
       <use xlink:href="#DejaVuSans-48"/>
       <use x="63.623047" xlink:href="#DejaVuSans-46"/>
       <use x="95.410156" xlink:href="#DejaVuSans-54"/>
       <use x="159.033203" xlink:href="#DejaVuSans-48"/>
      </g>
     </g>
    </g>
    <g id="ytick_5">
     <g id="line2d_11">
      <g>
       <use style="stroke:#000000;stroke-width:0.8;" x="50.14375" xlink:href="#m62b45dec78" y="105.291524"/>
      </g>
     </g>
     <g id="text_12">
      <!-- 0.65 -->
      <g transform="translate(20.878125 109.090742)scale(0.1 -0.1)">
       <use xlink:href="#DejaVuSans-48"/>
       <use x="63.623047" xlink:href="#DejaVuSans-46"/>
       <use x="95.410156" xlink:href="#DejaVuSans-54"/>
       <use x="159.033203" xlink:href="#DejaVuSans-53"/>
      </g>
     </g>
    </g>
    <g id="ytick_6">
     <g id="line2d_12">
      <g>
       <use style="stroke:#000000;stroke-width:0.8;" x="50.14375" xlink:href="#m62b45dec78" y="64.764898"/>
      </g>
     </g>
     <g id="text_13">
      <!-- 0.70 -->
      <g transform="translate(20.878125 68.564116)scale(0.1 -0.1)">
       <defs>
        <path d="M 8.203125 72.90625 
L 55.078125 72.90625 
L 55.078125 68.703125 
L 28.609375 0 
L 18.3125 0 
L 43.21875 64.59375 
L 8.203125 64.59375 
z
" id="DejaVuSans-55"/>
       </defs>
       <use xlink:href="#DejaVuSans-48"/>
       <use x="63.623047" xlink:href="#DejaVuSans-46"/>
       <use x="95.410156" xlink:href="#DejaVuSans-55"/>
       <use x="159.033203" xlink:href="#DejaVuSans-48"/>
      </g>
     </g>
    </g>
    <g id="ytick_7">
     <g id="line2d_13">
      <g>
       <use style="stroke:#000000;stroke-width:0.8;" x="50.14375" xlink:href="#m62b45dec78" y="24.238271"/>
      </g>
     </g>
     <g id="text_14">
      <!-- 0.75 -->
      <g transform="translate(20.878125 28.03749)scale(0.1 -0.1)">
       <use xlink:href="#DejaVuSans-48"/>
       <use x="63.623047" xlink:href="#DejaVuSans-46"/>
       <use x="95.410156" xlink:href="#DejaVuSans-55"/>
       <use x="159.033203" xlink:href="#DejaVuSans-53"/>
      </g>
     </g>
    </g>
    <g id="text_15">
     <!-- performance -->
     <g transform="translate(14.798438 172.278656)rotate(-90)scale(0.1 -0.1)">
      <defs>
       <path d="M 18.109375 8.203125 
L 18.109375 -20.796875 
L 9.078125 -20.796875 
L 9.078125 54.6875 
L 18.109375 54.6875 
L 18.109375 46.390625 
Q 20.953125 51.265625 25.265625 53.625 
Q 29.59375 56 35.59375 56 
Q 45.5625 56 51.78125 48.09375 
Q 58.015625 40.1875 58.015625 27.296875 
Q 58.015625 14.40625 51.78125 6.484375 
Q 45.5625 -1.421875 35.59375 -1.421875 
Q 29.59375 -1.421875 25.265625 0.953125 
Q 20.953125 3.328125 18.109375 8.203125 
z
M 48.6875 27.296875 
Q 48.6875 37.203125 44.609375 42.84375 
Q 40.53125 48.484375 33.40625 48.484375 
Q 26.265625 48.484375 22.1875 42.84375 
Q 18.109375 37.203125 18.109375 27.296875 
Q 18.109375 17.390625 22.1875 11.75 
Q 26.265625 6.109375 33.40625 6.109375 
Q 40.53125 6.109375 44.609375 11.75 
Q 48.6875 17.390625 48.6875 27.296875 
z
" id="DejaVuSans-112"/>
       <path d="M 56.203125 29.59375 
L 56.203125 25.203125 
L 14.890625 25.203125 
Q 15.484375 15.921875 20.484375 11.0625 
Q 25.484375 6.203125 34.421875 6.203125 
Q 39.59375 6.203125 44.453125 7.46875 
Q 49.3125 8.734375 54.109375 11.28125 
L 54.109375 2.78125 
Q 49.265625 0.734375 44.1875 -0.34375 
Q 39.109375 -1.421875 33.890625 -1.421875 
Q 20.796875 -1.421875 13.15625 6.1875 
Q 5.515625 13.8125 5.515625 26.8125 
Q 5.515625 40.234375 12.765625 48.109375 
Q 20.015625 56 32.328125 56 
Q 43.359375 56 49.78125 48.890625 
Q 56.203125 41.796875 56.203125 29.59375 
z
M 47.21875 32.234375 
Q 47.125 39.59375 43.09375 43.984375 
Q 39.0625 48.390625 32.421875 48.390625 
Q 24.90625 48.390625 20.390625 44.140625 
Q 15.875 39.890625 15.1875 32.171875 
z
" id="DejaVuSans-101"/>
       <path d="M 41.109375 46.296875 
Q 39.59375 47.171875 37.8125 47.578125 
Q 36.03125 48 33.890625 48 
Q 26.265625 48 22.1875 43.046875 
Q 18.109375 38.09375 18.109375 28.8125 
L 18.109375 0 
L 9.078125 0 
L 9.078125 54.6875 
L 18.109375 54.6875 
L 18.109375 46.1875 
Q 20.953125 51.171875 25.484375 53.578125 
Q 30.03125 56 36.53125 56 
Q 37.453125 56 38.578125 55.875 
Q 39.703125 55.765625 41.0625 55.515625 
z
" id="DejaVuSans-114"/>
       <path d="M 52 44.1875 
Q 55.375 50.25 60.0625 53.125 
Q 64.75 56 71.09375 56 
Q 79.640625 56 84.28125 50.015625 
Q 88.921875 44.046875 88.921875 33.015625 
L 88.921875 0 
L 79.890625 0 
L 79.890625 32.71875 
Q 79.890625 40.578125 77.09375 44.375 
Q 74.3125 48.1875 68.609375 48.1875 
Q 61.625 48.1875 57.5625 43.546875 
Q 53.515625 38.921875 53.515625 30.90625 
L 53.515625 0 
L 44.484375 0 
L 44.484375 32.71875 
Q 44.484375 40.625 41.703125 44.40625 
Q 38.921875 48.1875 33.109375 48.1875 
Q 26.21875 48.1875 22.15625 43.53125 
Q 18.109375 38.875 18.109375 30.90625 
L 18.109375 0 
L 9.078125 0 
L 9.078125 54.6875 
L 18.109375 54.6875 
L 18.109375 46.1875 
Q 21.1875 51.21875 25.484375 53.609375 
Q 29.78125 56 35.6875 56 
Q 41.65625 56 45.828125 52.96875 
Q 50 49.953125 52 44.1875 
z
" id="DejaVuSans-109"/>
       <path d="M 34.28125 27.484375 
Q 23.390625 27.484375 19.1875 25 
Q 14.984375 22.515625 14.984375 16.5 
Q 14.984375 11.71875 18.140625 8.90625 
Q 21.296875 6.109375 26.703125 6.109375 
Q 34.1875 6.109375 38.703125 11.40625 
Q 43.21875 16.703125 43.21875 25.484375 
L 43.21875 27.484375 
z
M 52.203125 31.203125 
L 52.203125 0 
L 43.21875 0 
L 43.21875 8.296875 
Q 40.140625 3.328125 35.546875 0.953125 
Q 30.953125 -1.421875 24.3125 -1.421875 
Q 15.921875 -1.421875 10.953125 3.296875 
Q 6 8.015625 6 15.921875 
Q 6 25.140625 12.171875 29.828125 
Q 18.359375 34.515625 30.609375 34.515625 
L 43.21875 34.515625 
L 43.21875 35.40625 
Q 43.21875 41.609375 39.140625 45 
Q 35.0625 48.390625 27.6875 48.390625 
Q 23 48.390625 18.546875 47.265625 
Q 14.109375 46.140625 10.015625 43.890625 
L 10.015625 52.203125 
Q 14.9375 54.109375 19.578125 55.046875 
Q 24.21875 56 28.609375 56 
Q 40.484375 56 46.34375 49.84375 
Q 52.203125 43.703125 52.203125 31.203125 
z
" id="DejaVuSans-97"/>
       <path d="M 54.890625 33.015625 
L 54.890625 0 
L 45.90625 0 
L 45.90625 32.71875 
Q 45.90625 40.484375 42.875 44.328125 
Q 39.84375 48.1875 33.796875 48.1875 
Q 26.515625 48.1875 22.3125 43.546875 
Q 18.109375 38.921875 18.109375 30.90625 
L 18.109375 0 
L 9.078125 0 
L 9.078125 54.6875 
L 18.109375 54.6875 
L 18.109375 46.1875 
Q 21.34375 51.125 25.703125 53.5625 
Q 30.078125 56 35.796875 56 
Q 45.21875 56 50.046875 50.171875 
Q 54.890625 44.34375 54.890625 33.015625 
z
" id="DejaVuSans-110"/>
      </defs>
      <use xlink:href="#DejaVuSans-112"/>
      <use x="63.476562" xlink:href="#DejaVuSans-101"/>
      <use x="125" xlink:href="#DejaVuSans-114"/>
      <use x="166.113281" xlink:href="#DejaVuSans-102"/>
      <use x="201.318359" xlink:href="#DejaVuSans-111"/>
      <use x="262.5" xlink:href="#DejaVuSans-114"/>
      <use x="301.863281" xlink:href="#DejaVuSans-109"/>
      <use x="399.275391" xlink:href="#DejaVuSans-97"/>
      <use x="460.554688" xlink:href="#DejaVuSans-110"/>
      <use x="523.933594" xlink:href="#DejaVuSans-99"/>
      <use x="578.914062" xlink:href="#DejaVuSans-101"/>
     </g>
    </g>
   </g>
   <g id="line2d_14">
    <path clip-path="url(#pe57ecad9db)" d="M 66.376477 207.573008 
L 73.140114 213.362526 
L 79.90375 220.227692 
L 86.667386 191.32173 
L 93.431023 191.32173 
L 100.194659 180.10991 
L 106.958295 137.575446 
L 113.721932 123.837607 
L 120.485568 123.837607 
L 127.249205 134.442255 
L 134.012841 131.081195 
L 140.776477 148.935582 
L 147.540114 166.512597 
L 154.30375 166.512597 
L 161.067386 117.761255 
L 167.831023 117.761255 
L 174.594659 117.761255 
L 181.358295 107.675443 
L 188.121932 107.675443 
L 194.885568 107.675443 
L 201.649205 107.675443 
L 208.412841 107.675443 
L 215.176477 107.675443 
L 221.940114 107.675443 
L 228.70375 114.776479 
L 235.467386 40.667985 
L 242.231023 40.667985 
L 248.994659 40.667985 
L 255.758295 40.667985 
L 262.521932 40.667985 
L 269.285568 40.667985 
L 276.049205 40.667985 
L 282.812841 40.667985 
L 289.576477 40.667985 
L 296.340114 40.667985 
L 303.10375 40.667985 
L 309.867386 40.667985 
L 316.631023 40.667985 
L 323.394659 40.667985 
L 330.158295 40.667985 
L 336.921932 40.667985 
L 343.685568 40.667985 
L 350.449205 40.667985 
L 357.212841 40.667985 
L 363.976477 40.667985 
L 370.740114 40.667985 
L 377.50375 40.667985 
L 384.267386 40.667985 
L 391.031023 40.667985 
" style="fill:none;stroke:#f26b38;stroke-dasharray:7.4,3.2;stroke-dashoffset:0;stroke-width:2;"/>
   </g>
   <g id="line2d_15">
    <path clip-path="url(#pe57ecad9db)" d="M 66.376477 180.10991 
L 73.140114 151.822094 
L 79.90375 184.947306 
L 86.667386 184.947306 
L 93.431023 159.327025 
L 100.194659 149.267224 
L 106.958295 149.267224 
L 113.721932 149.267224 
L 120.485568 138.770041 
L 127.249205 138.770041 
L 134.012841 138.770041 
L 140.776477 138.770041 
L 147.540114 138.770041 
L 154.30375 138.770041 
L 161.067386 138.770041 
L 167.831023 138.770041 
L 174.594659 19.296 
L 181.358295 19.296 
L 188.121932 19.296 
L 194.885568 19.296 
L 201.649205 19.296 
L 208.412841 19.296 
L 215.176477 19.296 
L 221.940114 19.296 
L 228.70375 19.296 
L 235.467386 19.296 
L 242.231023 19.296 
L 248.994659 19.296 
L 255.758295 19.296 
L 262.521932 19.296 
L 269.285568 19.296 
L 276.049205 19.296 
L 282.812841 19.296 
L 289.576477 19.296 
L 296.340114 19.296 
L 303.10375 19.296 
L 309.867386 19.296 
L 316.631023 19.296 
L 323.394659 19.296 
L 330.158295 19.296 
L 336.921932 19.296 
L 343.685568 19.296 
L 350.449205 19.296 
L 357.212841 19.296 
L 363.976477 19.296 
L 370.740114 19.296 
L 377.50375 19.296 
L 384.267386 19.296 
L 391.031023 19.296 
" style="fill:none;stroke:#2f9599;stroke-dasharray:2,3.3;stroke-dashoffset:0;stroke-width:2;"/>
   </g>
   <g id="line2d_16">
    <path clip-path="url(#pe57ecad9db)" d="M 66.376477 252.200543 
L 73.140114 252.200543 
L 79.90375 252.200543 
L 86.667386 252.200543 
L 93.431023 252.200543 
L 100.194659 259.035391 
L 106.958295 259.035391 
L 113.721932 259.035391 
L 120.485568 253.889152 
L 127.249205 253.889152 
L 134.012841 261.216 
L 140.776477 240.380277 
L 147.540114 219.761467 
L 154.30375 212.397607 
L 161.067386 197.923812 
L 167.831023 204.765969 
L 174.594659 197.923812 
L 181.358295 197.923812 
L 188.121932 156.110626 
L 194.885568 150.883978 
L 201.649205 150.883978 
L 208.412841 143.24503 
L 215.176477 130.379435 
L 221.940114 145.81815 
L 228.70375 145.81815 
L 235.467386 137.575446 
L 242.231023 122.28656 
L 248.994659 113.928345 
L 255.758295 96.361928 
L 262.521932 96.361928 
L 269.285568 96.361928 
L 276.049205 96.361928 
L 282.812841 96.361928 
L 289.576477 101.099114 
L 296.340114 101.099114 
L 303.10375 101.099114 
L 309.867386 101.099114 
L 316.631023 101.099114 
L 323.394659 101.099114 
L 330.158295 101.099114 
L 336.921932 101.099114 
L 343.685568 101.099114 
L 350.449205 101.099114 
L 357.212841 101.099114 
L 363.976477 101.099114 
L 370.740114 101.099114 
L 377.50375 101.099114 
L 384.267386 101.099114 
L 391.031023 101.099114 
" style="fill:none;stroke:#a7226e;stroke-dasharray:12.8,3.2,2,3.2;stroke-dashoffset:0;stroke-width:2;"/>
   </g>
   <g id="patch_3">
    <path d="M 50.14375 273.312 
L 50.14375 7.2 
" style="fill:none;stroke:#000000;stroke-linecap:square;stroke-linejoin:miter;stroke-width:0.8;"/>
   </g>
   <g id="patch_4">
    <path d="M 407.26375 273.312 
L 407.26375 7.2 
" style="fill:none;stroke:#000000;stroke-linecap:square;stroke-linejoin:miter;stroke-width:0.8;"/>
   </g>
   <g id="patch_5">
    <path d="M 50.14375 273.312 
L 407.26375 273.312 
" style="fill:none;stroke:#000000;stroke-linecap:square;stroke-linejoin:miter;stroke-width:0.8;"/>
   </g>
   <g id="patch_6">
    <path d="M 50.14375 7.2 
L 407.26375 7.2 
" style="fill:none;stroke:#000000;stroke-linecap:square;stroke-linejoin:miter;stroke-width:0.8;"/>
   </g>
   <g id="legend_1">
    <g id="patch_7">
     <path d="M 55.00175 43.890912 
L 135.617441 43.890912 
Q 137.005441 43.890912 137.005441 42.502912 
L 137.005441 12.058 
Q 137.005441 10.67 135.617441 10.67 
L 55.00175 10.67 
Q 53.61375 10.67 53.61375 12.058 
L 53.61375 42.502912 
Q 53.61375 43.890912 55.00175 43.890912 
z
" style="fill:#ffffff;opacity:0.8;stroke:#cccccc;stroke-linejoin:miter;"/>
    </g>
    <g id="PathCollection_5">
     <defs>
      <path d="M 0 3 
C 0.795609 3 1.55874 2.683901 2.12132 2.12132 
C 2.683901 1.55874 3 0.795609 3 0 
C 3 -0.795609 2.683901 -1.55874 2.12132 -2.12132 
C 1.55874 -2.683901 0.795609 -3 0 -3 
C -0.795609 -3 -1.55874 -2.683901 -2.12132 -2.12132 
C -2.683901 -1.55874 -3 -0.795609 -3 0 
C -3 0.795609 -2.683901 1.55874 -2.12132 2.12132 
C -1.55874 2.683901 -0.795609 3 0 3 
z
" id="mbdb1fb30f9" style="stroke:#f26b38;"/>
     </defs>
     <g>
      <use style="fill:#f26b38;stroke:#f26b38;" x="63.32975" xlink:href="#mbdb1fb30f9" y="16.897566"/>
     </g>
    </g>
    <g id="text_16">
     <!-- mean_err -->
     <g transform="translate(75.82175 18.719316)scale(0.0694 -0.0694)">
      <defs>
       <path d="M 50.984375 -16.609375 
L 50.984375 -23.578125 
L -0.984375 -23.578125 
L -0.984375 -16.609375 
z
" id="DejaVuSans-95"/>
      </defs>
      <use xlink:href="#DejaVuSans-109"/>
      <use x="97.412109" xlink:href="#DejaVuSans-101"/>
      <use x="158.935547" xlink:href="#DejaVuSans-97"/>
      <use x="220.214844" xlink:href="#DejaVuSans-110"/>
      <use x="283.59375" xlink:href="#DejaVuSans-95"/>
      <use x="333.59375" xlink:href="#DejaVuSans-101"/>
      <use x="395.117188" xlink:href="#DejaVuSans-114"/>
      <use x="434.480469" xlink:href="#DejaVuSans-114"/>
     </g>
    </g>
    <g id="PathCollection_6">
     <defs>
      <path d="M -1.5 3 
L 0 1.5 
L 1.5 3 
L 3 1.5 
L 1.5 0 
L 3 -1.5 
L 1.5 -3 
L 0 -1.5 
L -1.5 -3 
L -3 -1.5 
L -1.5 0 
L -3 1.5 
z
" id="m0174b8150f" style="stroke:#2f9599;"/>
     </defs>
     <g>
      <use style="fill:#2f9599;stroke:#2f9599;" x="63.32975" xlink:href="#m0174b8150f" y="27.277203"/>
     </g>
    </g>
    <g id="text_17">
     <!-- mean_sq_err -->
     <g transform="translate(75.82175 29.098953)scale(0.0694 -0.0694)">
      <defs>
       <path d="M 44.28125 53.078125 
L 44.28125 44.578125 
Q 40.484375 46.53125 36.375 47.5 
Q 32.28125 48.484375 27.875 48.484375 
Q 21.1875 48.484375 17.84375 46.4375 
Q 14.5 44.390625 14.5 40.28125 
Q 14.5 37.15625 16.890625 35.375 
Q 19.28125 33.59375 26.515625 31.984375 
L 29.59375 31.296875 
Q 39.15625 29.25 43.1875 25.515625 
Q 47.21875 21.78125 47.21875 15.09375 
Q 47.21875 7.46875 41.1875 3.015625 
Q 35.15625 -1.421875 24.609375 -1.421875 
Q 20.21875 -1.421875 15.453125 -0.5625 
Q 10.6875 0.296875 5.421875 2 
L 5.421875 11.28125 
Q 10.40625 8.6875 15.234375 7.390625 
Q 20.0625 6.109375 24.8125 6.109375 
Q 31.15625 6.109375 34.5625 8.28125 
Q 37.984375 10.453125 37.984375 14.40625 
Q 37.984375 18.0625 35.515625 20.015625 
Q 33.0625 21.96875 24.703125 23.78125 
L 21.578125 24.515625 
Q 13.234375 26.265625 9.515625 29.90625 
Q 5.8125 33.546875 5.8125 39.890625 
Q 5.8125 47.609375 11.28125 51.796875 
Q 16.75 56 26.8125 56 
Q 31.78125 56 36.171875 55.265625 
Q 40.578125 54.546875 44.28125 53.078125 
z
" id="DejaVuSans-115"/>
       <path d="M 14.796875 27.296875 
Q 14.796875 17.390625 18.875 11.75 
Q 22.953125 6.109375 30.078125 6.109375 
Q 37.203125 6.109375 41.296875 11.75 
Q 45.40625 17.390625 45.40625 27.296875 
Q 45.40625 37.203125 41.296875 42.84375 
Q 37.203125 48.484375 30.078125 48.484375 
Q 22.953125 48.484375 18.875 42.84375 
Q 14.796875 37.203125 14.796875 27.296875 
z
M 45.40625 8.203125 
Q 42.578125 3.328125 38.25 0.953125 
Q 33.9375 -1.421875 27.875 -1.421875 
Q 17.96875 -1.421875 11.734375 6.484375 
Q 5.515625 14.40625 5.515625 27.296875 
Q 5.515625 40.1875 11.734375 48.09375 
Q 17.96875 56 27.875 56 
Q 33.9375 56 38.25 53.625 
Q 42.578125 51.265625 45.40625 46.390625 
L 45.40625 54.6875 
L 54.390625 54.6875 
L 54.390625 -20.796875 
L 45.40625 -20.796875 
z
" id="DejaVuSans-113"/>
      </defs>
      <use xlink:href="#DejaVuSans-109"/>
      <use x="97.412109" xlink:href="#DejaVuSans-101"/>
      <use x="158.935547" xlink:href="#DejaVuSans-97"/>
      <use x="220.214844" xlink:href="#DejaVuSans-110"/>
      <use x="283.59375" xlink:href="#DejaVuSans-95"/>
      <use x="333.59375" xlink:href="#DejaVuSans-115"/>
      <use x="385.693359" xlink:href="#DejaVuSans-113"/>
      <use x="449.169922" xlink:href="#DejaVuSans-95"/>
      <use x="499.169922" xlink:href="#DejaVuSans-101"/>
      <use x="560.693359" xlink:href="#DejaVuSans-114"/>
      <use x="600.056641" xlink:href="#DejaVuSans-114"/>
     </g>
    </g>
    <g id="PathCollection_7">
     <defs>
      <path d="M -2.12132 -2.12132 
L -2.12132 2.12132 
L 2.12132 2.12132 
L 2.12132 -2.12132 
z
" id="mc79320890a" style="stroke:#a7226e;"/>
     </defs>
     <g>
      <use style="fill:#a7226e;stroke:#a7226e;" x="63.32975" xlink:href="#mc79320890a" y="37.656841"/>
     </g>
    </g>
    <g id="text_18">
     <!-- mean_sqroot_err -->
     <g transform="translate(75.82175 39.478591)scale(0.0694 -0.0694)">
      <use xlink:href="#DejaVuSans-109"/>
      <use x="97.412109" xlink:href="#DejaVuSans-101"/>
      <use x="158.935547" xlink:href="#DejaVuSans-97"/>
      <use x="220.214844" xlink:href="#DejaVuSans-110"/>
      <use x="283.59375" xlink:href="#DejaVuSans-95"/>
      <use x="333.59375" xlink:href="#DejaVuSans-115"/>
      <use x="385.693359" xlink:href="#DejaVuSans-113"/>
      <use x="449.169922" xlink:href="#DejaVuSans-114"/>
      <use x="488.033203" xlink:href="#DejaVuSans-111"/>
      <use x="549.214844" xlink:href="#DejaVuSans-111"/>
      <use x="610.396484" xlink:href="#DejaVuSans-116"/>
      <use x="649.605469" xlink:href="#DejaVuSans-95"/>
      <use x="699.605469" xlink:href="#DejaVuSans-101"/>
      <use x="761.128906" xlink:href="#DejaVuSans-114"/>
      <use x="800.492188" xlink:href="#DejaVuSans-114"/>
     </g>
    </g>
   </g>
  </g>
 </g>
 <defs>
  <clipPath id="pe57ecad9db">
   <rect height="266.112" width="357.12" x="50.14375" y="7.2"/>
  </clipPath>
 </defs>
</svg>
