<?xml version="1.0" encoding="utf-8" standalone="no"?>
<!DOCTYPE svg PUBLIC "-//W3C//DTD SVG 1.1//EN"
  "http://www.w3.org/Graphics/SVG/1.1/DTD/svg11.dtd">
<!-- Created with matplotlib (https://matplotlib.org/) -->
<svg height="310.86825pt" version="1.1" viewBox="0 0 408.10125 310.86825" width="408.10125pt" xmlns="http://www.w3.org/2000/svg" xmlns:xlink="http://www.w3.org/1999/xlink">
 <metadata>
  <rdf:RDF xmlns:cc="http://creativecommons.org/ns#" xmlns:dc="http://purl.org/dc/elements/1.1/" xmlns:rdf="http://www.w3.org/1999/02/22-rdf-syntax-ns#">
   <cc:Work>
    <dc:type rdf:resource="http://purl.org/dc/dcmitype/StillImage"/>
    <dc:date>2022-05-05T10:56:49.332365</dc:date>
    <dc:format>image/svg+xml</dc:format>
    <dc:creator>
     <cc:Agent>
      <dc:title>Matplotlib v3.3.4, https://matplotlib.org/</dc:title>
     </cc:Agent>
    </dc:creator>
   </cc:Work>
  </rdf:RDF>
 </metadata>
 <defs>
  <style type="text/css">*{stroke-linecap:butt;stroke-linejoin:round;}</style>
 </defs>
 <g id="figure_1">
  <g id="patch_1">
   <path d="M 0 310.86825 
L 408.10125 310.86825 
L 408.10125 0 
L 0 0 
z
" style="fill:#ffffff;"/>
  </g>
  <g id="axes_1">
   <g id="patch_2">
    <path d="M 43.78125 273.312 
L 400.90125 273.312 
L 400.90125 7.2 
L 43.78125 7.2 
z
" style="fill:#ffffff;"/>
   </g>
   <g id="PathCollection_1">
    <path clip-path="url(#peec11de50a)" d="M 60.013977 48.069559 
C 60.809587 48.069559 61.572717 47.75346 62.135298 47.19088 
C 62.697878 46.628299 63.013977 45.865169 63.013977 45.069559 
C 63.013977 44.27395 62.697878 43.51082 62.135298 42.948239 
C 61.572717 42.385658 60.809587 42.069559 60.013977 42.069559 
C 59.218368 42.069559 58.455238 42.385658 57.892657 42.948239 
C 57.330076 43.51082 57.013977 44.27395 57.013977 45.069559 
C 57.013977 45.865169 57.330076 46.628299 57.892657 47.19088 
C 58.455238 47.75346 59.218368 48.069559 60.013977 48.069559 
z
" style="fill:#f26b38;stroke:#ffffff;stroke-width:0.48;"/>
    <path clip-path="url(#peec11de50a)" d="M 66.777614 42.74158 
C 67.573223 42.74158 68.336353 42.425481 68.898934 41.8629 
C 69.461515 41.300319 69.777614 40.537189 69.777614 39.74158 
C 69.777614 38.945971 69.461515 38.18284 68.898934 37.620259 
C 68.336353 37.057679 67.573223 36.74158 66.777614 36.74158 
C 65.982004 36.74158 65.218874 37.057679 64.656293 37.620259 
C 64.093713 38.18284 63.777614 38.945971 63.777614 39.74158 
C 63.777614 40.537189 64.093713 41.300319 64.656293 41.8629 
C 65.218874 42.425481 65.982004 42.74158 66.777614 42.74158 
z
" style="fill:#f26b38;stroke:#ffffff;stroke-width:0.48;"/>
    <path clip-path="url(#peec11de50a)" d="M 73.54125 32.349818 
C 74.336859 32.349818 75.09999 32.033719 75.66257 31.471139 
C 76.225151 30.908558 76.54125 30.145427 76.54125 29.349818 
C 76.54125 28.554209 76.225151 27.791079 75.66257 27.228498 
C 75.09999 26.665917 74.336859 26.349818 73.54125 26.349818 
C 72.745641 26.349818 71.98251 26.665917 71.41993 27.228498 
C 70.857349 27.791079 70.54125 28.554209 70.54125 29.349818 
C 70.54125 30.145427 70.857349 30.908558 71.41993 31.471139 
C 71.98251 32.033719 72.745641 32.349818 73.54125 32.349818 
z
" style="fill:#f26b38;stroke:#ffffff;stroke-width:0.48;"/>
    <path clip-path="url(#peec11de50a)" d="M 80.304886 32.349818 
C 81.100496 32.349818 81.863626 32.033719 82.426207 31.471139 
C 82.988787 30.908558 83.304886 30.145427 83.304886 29.349818 
C 83.304886 28.554209 82.988787 27.791079 82.426207 27.228498 
C 81.863626 26.665917 81.100496 26.349818 80.304886 26.349818 
C 79.509277 26.349818 78.746147 26.665917 78.183566 27.228498 
C 77.620985 27.791079 77.304886 28.554209 77.304886 29.349818 
C 77.304886 30.145427 77.620985 30.908558 78.183566 31.471139 
C 78.746147 32.033719 79.509277 32.349818 80.304886 32.349818 
z
" style="fill:#f26b38;stroke:#ffffff;stroke-width:0.48;"/>
    <path clip-path="url(#peec11de50a)" d="M 87.068523 27.281705 
C 87.864132 27.281705 88.627262 26.965606 89.189843 26.403025 
C 89.752424 25.840445 90.068523 25.077314 90.068523 24.281705 
C 90.068523 23.486096 89.752424 22.722965 89.189843 22.160385 
C 88.627262 21.597804 87.864132 21.281705 87.068523 21.281705 
C 86.272913 21.281705 85.509783 21.597804 84.947202 22.160385 
C 84.384622 22.722965 84.068523 23.486096 84.068523 24.281705 
C 84.068523 25.077314 84.384622 25.840445 84.947202 26.403025 
C 85.509783 26.965606 86.272913 27.281705 87.068523 27.281705 
z
" style="fill:#f26b38;stroke:#ffffff;stroke-width:0.48;"/>
    <path clip-path="url(#peec11de50a)" d="M 93.832159 42.74158 
C 94.627768 42.74158 95.390899 42.425481 95.953479 41.8629 
C 96.51606 41.300319 96.832159 40.537189 96.832159 39.74158 
C 96.832159 38.945971 96.51606 38.18284 95.953479 37.620259 
C 95.390899 37.057679 94.627768 36.74158 93.832159 36.74158 
C 93.03655 36.74158 92.273419 37.057679 91.710839 37.620259 
C 91.148258 38.18284 90.832159 38.945971 90.832159 39.74158 
C 90.832159 40.537189 91.148258 41.300319 91.710839 41.8629 
C 92.273419 42.425481 93.03655 42.74158 93.832159 42.74158 
z
" style="fill:#f26b38;stroke:#ffffff;stroke-width:0.48;"/>
    <path clip-path="url(#peec11de50a)" d="M 100.595795 37.5024 
C 101.391405 37.5024 102.154535 37.186301 102.717116 36.62372 
C 103.279697 36.06114 103.595795 35.298009 103.595795 34.5024 
C 103.595795 33.706791 103.279697 32.94366 102.717116 32.38108 
C 102.154535 31.818499 101.391405 31.5024 100.595795 31.5024 
C 99.800186 31.5024 99.037056 31.818499 98.474475 32.38108 
C 97.911894 32.94366 97.595795 33.706791 97.595795 34.5024 
C 97.595795 35.298009 97.911894 36.06114 98.474475 36.62372 
C 99.037056 37.186301 99.800186 37.5024 100.595795 37.5024 
z
" style="fill:#f26b38;stroke:#ffffff;stroke-width:0.48;"/>
    <path clip-path="url(#peec11de50a)" d="M 107.359432 37.5024 
C 108.155041 37.5024 108.918171 37.186301 109.480752 36.62372 
C 110.043333 36.06114 110.359432 35.298009 110.359432 34.5024 
C 110.359432 33.706791 110.043333 32.94366 109.480752 32.38108 
C 108.918171 31.818499 108.155041 31.5024 107.359432 31.5024 
C 106.563823 31.5024 105.800692 31.818499 105.238111 32.38108 
C 104.675531 32.94366 104.359432 33.706791 104.359432 34.5024 
C 104.359432 35.298009 104.675531 36.06114 105.238111 36.62372 
C 105.800692 37.186301 106.563823 37.5024 107.359432 37.5024 
z
" style="fill:#f26b38;stroke:#ffffff;stroke-width:0.48;"/>
    <path clip-path="url(#peec11de50a)" d="M 114.123068 37.5024 
C 114.918677 37.5024 115.681808 37.186301 116.244389 36.62372 
C 116.806969 36.06114 117.123068 35.298009 117.123068 34.5024 
C 117.123068 33.706791 116.806969 32.94366 116.244389 32.38108 
C 115.681808 31.818499 114.918677 31.5024 114.123068 31.5024 
C 113.327459 31.5024 112.564329 31.818499 112.001748 32.38108 
C 111.439167 32.94366 111.123068 33.706791 111.123068 34.5024 
C 111.123068 35.298009 111.439167 36.06114 112.001748 36.62372 
C 112.564329 37.186301 113.327459 37.5024 114.123068 37.5024 
z
" style="fill:#f26b38;stroke:#ffffff;stroke-width:0.48;"/>
    <path clip-path="url(#peec11de50a)" d="M 120.886705 48.069559 
C 121.682314 48.069559 122.445444 47.75346 123.008025 47.19088 
C 123.570606 46.628299 123.886705 45.865169 123.886705 45.069559 
C 123.886705 44.27395 123.570606 43.51082 123.008025 42.948239 
C 122.445444 42.385658 121.682314 42.069559 120.886705 42.069559 
C 120.091095 42.069559 119.327965 42.385658 118.765384 42.948239 
C 118.202803 43.51082 117.886705 44.27395 117.886705 45.069559 
C 117.886705 45.865169 118.202803 46.628299 118.765384 47.19088 
C 119.327965 47.75346 120.091095 48.069559 120.886705 48.069559 
z
" style="fill:#f26b38;stroke:#ffffff;stroke-width:0.48;"/>
    <path clip-path="url(#peec11de50a)" d="M 127.650341 64.609461 
C 128.44595 64.609461 129.209081 64.293362 129.771661 63.730781 
C 130.334242 63.1682 130.650341 62.40507 130.650341 61.609461 
C 130.650341 60.813852 130.334242 60.050721 129.771661 59.488141 
C 129.209081 58.92556 128.44595 58.609461 127.650341 58.609461 
C 126.854732 58.609461 126.091601 58.92556 125.529021 59.488141 
C 124.96644 60.050721 124.650341 60.813852 124.650341 61.609461 
C 124.650341 62.40507 124.96644 63.1682 125.529021 63.730781 
C 126.091601 64.293362 126.854732 64.609461 127.650341 64.609461 
z
" style="fill:#f26b38;stroke:#ffffff;stroke-width:0.48;"/>
    <path clip-path="url(#peec11de50a)" d="M 134.413977 70.316211 
C 135.209587 70.316211 135.972717 70.000112 136.535298 69.437531 
C 137.097878 68.87495 137.413977 68.11182 137.413977 67.316211 
C 137.413977 66.520601 137.097878 65.757471 136.535298 65.19489 
C 135.972717 64.632309 135.209587 64.316211 134.413977 64.316211 
C 133.618368 64.316211 132.855238 64.632309 132.292657 65.19489 
C 131.730076 65.757471 131.413977 66.520601 131.413977 67.316211 
C 131.413977 68.11182 131.730076 68.87495 132.292657 69.437531 
C 132.855238 70.000112 133.618368 70.316211 134.413977 70.316211 
z
" style="fill:#f26b38;stroke:#ffffff;stroke-width:0.48;"/>
    <path clip-path="url(#peec11de50a)" d="M 141.177614 100.420624 
C 141.973223 100.420624 142.736353 100.104525 143.298934 99.541944 
C 143.861515 98.979363 144.177614 98.216233 144.177614 97.420624 
C 144.177614 96.625015 143.861515 95.861884 143.298934 95.299304 
C 142.736353 94.736723 141.973223 94.420624 141.177614 94.420624 
C 140.382004 94.420624 139.618874 94.736723 139.056293 95.299304 
C 138.493713 95.861884 138.177614 96.625015 138.177614 97.420624 
C 138.177614 98.216233 138.493713 98.979363 139.056293 99.541944 
C 139.618874 100.104525 140.382004 100.420624 141.177614 100.420624 
z
" style="fill:#f26b38;stroke:#ffffff;stroke-width:0.48;"/>
    <path clip-path="url(#peec11de50a)" d="M 147.94125 100.420624 
C 148.736859 100.420624 149.49999 100.104525 150.06257 99.541944 
C 150.625151 98.979363 150.94125 98.216233 150.94125 97.420624 
C 150.94125 96.625015 150.625151 95.861884 150.06257 95.299304 
C 149.49999 94.736723 148.736859 94.420624 147.94125 94.420624 
C 147.145641 94.420624 146.38251 94.736723 145.81993 95.299304 
C 145.257349 95.861884 144.94125 96.625015 144.94125 97.420624 
C 144.94125 98.216233 145.257349 98.979363 145.81993 99.541944 
C 146.38251 100.104525 147.145641 100.420624 147.94125 100.420624 
z
" style="fill:#f26b38;stroke:#ffffff;stroke-width:0.48;"/>
    <path clip-path="url(#peec11de50a)" d="M 154.704886 70.316211 
C 155.500496 70.316211 156.263626 70.000112 156.826207 69.437531 
C 157.388787 68.87495 157.704886 68.11182 157.704886 67.316211 
C 157.704886 66.520601 157.388787 65.757471 156.826207 65.19489 
C 156.263626 64.632309 155.500496 64.316211 154.704886 64.316211 
C 153.909277 64.316211 153.146147 64.632309 152.583566 65.19489 
C 152.020985 65.757471 151.704886 66.520601 151.704886 67.316211 
C 151.704886 68.11182 152.020985 68.87495 152.583566 69.437531 
C 153.146147 70.000112 153.909277 70.316211 154.704886 70.316211 
z
" style="fill:#f26b38;stroke:#ffffff;stroke-width:0.48;"/>
    <path clip-path="url(#peec11de50a)" d="M 161.468523 70.316211 
C 162.264132 70.316211 163.027262 70.000112 163.589843 69.437531 
C 164.152424 68.87495 164.468523 68.11182 164.468523 67.316211 
C 164.468523 66.520601 164.152424 65.757471 163.589843 65.19489 
C 163.027262 64.632309 162.264132 64.316211 161.468523 64.316211 
C 160.672913 64.316211 159.909783 64.632309 159.347202 65.19489 
C 158.784622 65.757471 158.468523 66.520601 158.468523 67.316211 
C 158.468523 68.11182 158.784622 68.87495 159.347202 69.437531 
C 159.909783 70.000112 160.672913 70.316211 161.468523 70.316211 
z
" style="fill:#f26b38;stroke:#ffffff;stroke-width:0.48;"/>
    <path clip-path="url(#peec11de50a)" d="M 168.232159 70.316211 
C 169.027768 70.316211 169.790899 70.000112 170.353479 69.437531 
C 170.91606 68.87495 171.232159 68.11182 171.232159 67.316211 
C 171.232159 66.520601 170.91606 65.757471 170.353479 65.19489 
C 169.790899 64.632309 169.027768 64.316211 168.232159 64.316211 
C 167.43655 64.316211 166.673419 64.632309 166.110839 65.19489 
C 165.548258 65.757471 165.232159 66.520601 165.232159 67.316211 
C 165.232159 68.11182 165.548258 68.87495 166.110839 69.437531 
C 166.673419 70.000112 167.43655 70.316211 168.232159 70.316211 
z
" style="fill:#f26b38;stroke:#ffffff;stroke-width:0.48;"/>
    <path clip-path="url(#peec11de50a)" d="M 174.995795 70.316211 
C 175.791405 70.316211 176.554535 70.000112 177.117116 69.437531 
C 177.679697 68.87495 177.995795 68.11182 177.995795 67.316211 
C 177.995795 66.520601 177.679697 65.757471 177.117116 65.19489 
C 176.554535 64.632309 175.791405 64.316211 174.995795 64.316211 
C 174.200186 64.316211 173.437056 64.632309 172.874475 65.19489 
C 172.311894 65.757471 171.995795 66.520601 171.995795 67.316211 
C 171.995795 68.11182 172.311894 68.87495 172.874475 69.437531 
C 173.437056 70.000112 174.200186 70.316211 174.995795 70.316211 
z
" style="fill:#f26b38;stroke:#ffffff;stroke-width:0.48;"/>
    <path clip-path="url(#peec11de50a)" d="M 181.759432 94.1808 
C 182.555041 94.1808 183.318171 93.864701 183.880752 93.30212 
C 184.443333 92.73954 184.759432 91.976409 184.759432 91.1808 
C 184.759432 90.385191 184.443333 89.62206 183.880752 89.05948 
C 183.318171 88.496899 182.555041 88.1808 181.759432 88.1808 
C 180.963823 88.1808 180.200692 88.496899 179.638111 89.05948 
C 179.075531 89.62206 178.759432 90.385191 178.759432 91.1808 
C 178.759432 91.976409 179.075531 92.73954 179.638111 93.30212 
C 180.200692 93.864701 180.963823 94.1808 181.759432 94.1808 
z
" style="fill:#f26b38;stroke:#ffffff;stroke-width:0.48;"/>
    <path clip-path="url(#peec11de50a)" d="M 188.523068 70.316211 
C 189.318677 70.316211 190.081808 70.000112 190.644389 69.437531 
C 191.206969 68.87495 191.523068 68.11182 191.523068 67.316211 
C 191.523068 66.520601 191.206969 65.757471 190.644389 65.19489 
C 190.081808 64.632309 189.318677 64.316211 188.523068 64.316211 
C 187.727459 64.316211 186.964329 64.632309 186.401748 65.19489 
C 185.839167 65.757471 185.523068 66.520601 185.523068 67.316211 
C 185.523068 68.11182 185.839167 68.87495 186.401748 69.437531 
C 186.964329 70.000112 187.727459 70.316211 188.523068 70.316211 
z
" style="fill:#f26b38;stroke:#ffffff;stroke-width:0.48;"/>
    <path clip-path="url(#peec11de50a)" d="M 195.286705 100.420624 
C 196.082314 100.420624 196.845444 100.104525 197.408025 99.541944 
C 197.970606 98.979363 198.286705 98.216233 198.286705 97.420624 
C 198.286705 96.625015 197.970606 95.861884 197.408025 95.299304 
C 196.845444 94.736723 196.082314 94.420624 195.286705 94.420624 
C 194.491095 94.420624 193.727965 94.736723 193.165384 95.299304 
C 192.602803 95.861884 192.286705 96.625015 192.286705 97.420624 
C 192.286705 98.216233 192.602803 98.979363 193.165384 99.541944 
C 193.727965 100.104525 194.491095 100.420624 195.286705 100.420624 
z
" style="fill:#f26b38;stroke:#ffffff;stroke-width:0.48;"/>
    <path clip-path="url(#peec11de50a)" d="M 202.050341 100.420624 
C 202.84595 100.420624 203.609081 100.104525 204.171661 99.541944 
C 204.734242 98.979363 205.050341 98.216233 205.050341 97.420624 
C 205.050341 96.625015 204.734242 95.861884 204.171661 95.299304 
C 203.609081 94.736723 202.84595 94.420624 202.050341 94.420624 
C 201.254732 94.420624 200.491601 94.736723 199.929021 95.299304 
C 199.36644 95.861884 199.050341 96.625015 199.050341 97.420624 
C 199.050341 98.216233 199.36644 98.979363 199.929021 99.541944 
C 200.491601 100.104525 201.254732 100.420624 202.050341 100.420624 
z
" style="fill:#f26b38;stroke:#ffffff;stroke-width:0.48;"/>
    <path clip-path="url(#peec11de50a)" d="M 208.813977 100.420624 
C 209.609587 100.420624 210.372717 100.104525 210.935298 99.541944 
C 211.497878 98.979363 211.813977 98.216233 211.813977 97.420624 
C 211.813977 96.625015 211.497878 95.861884 210.935298 95.299304 
C 210.372717 94.736723 209.609587 94.420624 208.813977 94.420624 
C 208.018368 94.420624 207.255238 94.736723 206.692657 95.299304 
C 206.130076 95.861884 205.813977 96.625015 205.813977 97.420624 
C 205.813977 98.216233 206.130076 98.979363 206.692657 99.541944 
C 207.255238 100.104525 208.018368 100.420624 208.813977 100.420624 
z
" style="fill:#f26b38;stroke:#ffffff;stroke-width:0.48;"/>
    <path clip-path="url(#peec11de50a)" d="M 215.577614 100.420624 
C 216.373223 100.420624 217.136353 100.104525 217.698934 99.541944 
C 218.261515 98.979363 218.577614 98.216233 218.577614 97.420624 
C 218.577614 96.625015 218.261515 95.861884 217.698934 95.299304 
C 217.136353 94.736723 216.373223 94.420624 215.577614 94.420624 
C 214.782004 94.420624 214.018874 94.736723 213.456293 95.299304 
C 212.893713 95.861884 212.577614 96.625015 212.577614 97.420624 
C 212.577614 98.216233 212.893713 98.979363 213.456293 99.541944 
C 214.018874 100.104525 214.782004 100.420624 215.577614 100.420624 
z
" style="fill:#f26b38;stroke:#ffffff;stroke-width:0.48;"/>
    <path clip-path="url(#peec11de50a)" d="M 222.34125 133.419692 
C 223.136859 133.419692 223.89999 133.103593 224.46257 132.541013 
C 225.025151 131.978432 225.34125 131.215302 225.34125 130.419692 
C 225.34125 129.624083 225.025151 128.860953 224.46257 128.298372 
C 223.89999 127.735791 223.136859 127.419692 222.34125 127.419692 
C 221.545641 127.419692 220.78251 127.735791 220.21993 128.298372 
C 219.657349 128.860953 219.34125 129.624083 219.34125 130.419692 
C 219.34125 131.215302 219.657349 131.978432 220.21993 132.541013 
C 220.78251 133.103593 221.545641 133.419692 222.34125 133.419692 
z
" style="fill:#f26b38;stroke:#ffffff;stroke-width:0.48;"/>
    <path clip-path="url(#peec11de50a)" d="M 229.104886 209.949447 
C 229.900496 209.949447 230.663626 209.633348 231.226207 209.070767 
C 231.788787 208.508186 232.104886 207.745056 232.104886 206.949447 
C 232.104886 206.153838 231.788787 205.390707 231.226207 204.828126 
C 230.663626 204.265546 229.900496 203.949447 229.104886 203.949447 
C 228.309277 203.949447 227.546147 204.265546 226.983566 204.828126 
C 226.420985 205.390707 226.104886 206.153838 226.104886 206.949447 
C 226.104886 207.745056 226.420985 208.508186 226.983566 209.070767 
C 227.546147 209.633348 228.309277 209.949447 229.104886 209.949447 
z
" style="fill:#f26b38;stroke:#ffffff;stroke-width:0.48;"/>
    <path clip-path="url(#peec11de50a)" d="M 235.868523 209.949447 
C 236.664132 209.949447 237.427262 209.633348 237.989843 209.070767 
C 238.552424 208.508186 238.868523 207.745056 238.868523 206.949447 
C 238.868523 206.153838 238.552424 205.390707 237.989843 204.828126 
C 237.427262 204.265546 236.664132 203.949447 235.868523 203.949447 
C 235.072913 203.949447 234.309783 204.265546 233.747202 204.828126 
C 233.184622 205.390707 232.868523 206.153838 232.868523 206.949447 
C 232.868523 207.745056 233.184622 208.508186 233.747202 209.070767 
C 234.309783 209.633348 235.072913 209.949447 235.868523 209.949447 
z
" style="fill:#f26b38;stroke:#ffffff;stroke-width:0.48;"/>
    <path clip-path="url(#peec11de50a)" d="M 242.632159 209.949447 
C 243.427768 209.949447 244.190899 209.633348 244.753479 209.070767 
C 245.31606 208.508186 245.632159 207.745056 245.632159 206.949447 
C 245.632159 206.153838 245.31606 205.390707 244.753479 204.828126 
C 244.190899 204.265546 243.427768 203.949447 242.632159 203.949447 
C 241.83655 203.949447 241.073419 204.265546 240.510839 204.828126 
C 239.948258 205.390707 239.632159 206.153838 239.632159 206.949447 
C 239.632159 207.745056 239.948258 208.508186 240.510839 209.070767 
C 241.073419 209.633348 241.83655 209.949447 242.632159 209.949447 
z
" style="fill:#f26b38;stroke:#ffffff;stroke-width:0.48;"/>
    <path clip-path="url(#peec11de50a)" d="M 249.395795 209.949447 
C 250.191405 209.949447 250.954535 209.633348 251.517116 209.070767 
C 252.079697 208.508186 252.395795 207.745056 252.395795 206.949447 
C 252.395795 206.153838 252.079697 205.390707 251.517116 204.828126 
C 250.954535 204.265546 250.191405 203.949447 249.395795 203.949447 
C 248.600186 203.949447 247.837056 204.265546 247.274475 204.828126 
C 246.711894 205.390707 246.395795 206.153838 246.395795 206.949447 
C 246.395795 207.745056 246.711894 208.508186 247.274475 209.070767 
C 247.837056 209.633348 248.600186 209.949447 249.395795 209.949447 
z
" style="fill:#f26b38;stroke:#ffffff;stroke-width:0.48;"/>
    <path clip-path="url(#peec11de50a)" d="M 256.159432 209.949447 
C 256.955041 209.949447 257.718171 209.633348 258.280752 209.070767 
C 258.843333 208.508186 259.159432 207.745056 259.159432 206.949447 
C 259.159432 206.153838 258.843333 205.390707 258.280752 204.828126 
C 257.718171 204.265546 256.955041 203.949447 256.159432 203.949447 
C 255.363823 203.949447 254.600692 204.265546 254.038111 204.828126 
C 253.475531 205.390707 253.159432 206.153838 253.159432 206.949447 
C 253.159432 207.745056 253.475531 208.508186 254.038111 209.070767 
C 254.600692 209.633348 255.363823 209.949447 256.159432 209.949447 
z
" style="fill:#f26b38;stroke:#ffffff;stroke-width:0.48;"/>
    <path clip-path="url(#peec11de50a)" d="M 262.923068 209.949447 
C 263.718677 209.949447 264.481808 209.633348 265.044389 209.070767 
C 265.606969 208.508186 265.923068 207.745056 265.923068 206.949447 
C 265.923068 206.153838 265.606969 205.390707 265.044389 204.828126 
C 264.481808 204.265546 263.718677 203.949447 262.923068 203.949447 
C 262.127459 203.949447 261.364329 204.265546 260.801748 204.828126 
C 260.239167 205.390707 259.923068 206.153838 259.923068 206.949447 
C 259.923068 207.745056 260.239167 208.508186 260.801748 209.070767 
C 261.364329 209.633348 262.127459 209.949447 262.923068 209.949447 
z
" style="fill:#f26b38;stroke:#ffffff;stroke-width:0.48;"/>
    <path clip-path="url(#peec11de50a)" d="M 269.686705 209.949447 
C 270.482314 209.949447 271.245444 209.633348 271.808025 209.070767 
C 272.370606 208.508186 272.686705 207.745056 272.686705 206.949447 
C 272.686705 206.153838 272.370606 205.390707 271.808025 204.828126 
C 271.245444 204.265546 270.482314 203.949447 269.686705 203.949447 
C 268.891095 203.949447 268.127965 204.265546 267.565384 204.828126 
C 267.002803 205.390707 266.686705 206.153838 266.686705 206.949447 
C 266.686705 207.745056 267.002803 208.508186 267.565384 209.070767 
C 268.127965 209.633348 268.891095 209.949447 269.686705 209.949447 
z
" style="fill:#f26b38;stroke:#ffffff;stroke-width:0.48;"/>
    <path clip-path="url(#peec11de50a)" d="M 276.450341 209.949447 
C 277.24595 209.949447 278.009081 209.633348 278.571661 209.070767 
C 279.134242 208.508186 279.450341 207.745056 279.450341 206.949447 
C 279.450341 206.153838 279.134242 205.390707 278.571661 204.828126 
C 278.009081 204.265546 277.24595 203.949447 276.450341 203.949447 
C 275.654732 203.949447 274.891601 204.265546 274.329021 204.828126 
C 273.76644 205.390707 273.450341 206.153838 273.450341 206.949447 
C 273.450341 207.745056 273.76644 208.508186 274.329021 209.070767 
C 274.891601 209.633348 275.654732 209.949447 276.450341 209.949447 
z
" style="fill:#f26b38;stroke:#ffffff;stroke-width:0.48;"/>
    <path clip-path="url(#peec11de50a)" d="M 283.213977 209.949447 
C 284.009587 209.949447 284.772717 209.633348 285.335298 209.070767 
C 285.897878 208.508186 286.213977 207.745056 286.213977 206.949447 
C 286.213977 206.153838 285.897878 205.390707 285.335298 204.828126 
C 284.772717 204.265546 284.009587 203.949447 283.213977 203.949447 
C 282.418368 203.949447 281.655238 204.265546 281.092657 204.828126 
C 280.530076 205.390707 280.213977 206.153838 280.213977 206.949447 
C 280.213977 207.745056 280.530076 208.508186 281.092657 209.070767 
C 281.655238 209.633348 282.418368 209.949447 283.213977 209.949447 
z
" style="fill:#f26b38;stroke:#ffffff;stroke-width:0.48;"/>
    <path clip-path="url(#peec11de50a)" d="M 289.977614 209.949447 
C 290.773223 209.949447 291.536353 209.633348 292.098934 209.070767 
C 292.661515 208.508186 292.977614 207.745056 292.977614 206.949447 
C 292.977614 206.153838 292.661515 205.390707 292.098934 204.828126 
C 291.536353 204.265546 290.773223 203.949447 289.977614 203.949447 
C 289.182004 203.949447 288.418874 204.265546 287.856293 204.828126 
C 287.293713 205.390707 286.977614 206.153838 286.977614 206.949447 
C 286.977614 207.745056 287.293713 208.508186 287.856293 209.070767 
C 288.418874 209.633348 289.182004 209.949447 289.977614 209.949447 
z
" style="fill:#f26b38;stroke:#ffffff;stroke-width:0.48;"/>
    <path clip-path="url(#peec11de50a)" d="M 296.74125 209.949447 
C 297.536859 209.949447 298.29999 209.633348 298.86257 209.070767 
C 299.425151 208.508186 299.74125 207.745056 299.74125 206.949447 
C 299.74125 206.153838 299.425151 205.390707 298.86257 204.828126 
C 298.29999 204.265546 297.536859 203.949447 296.74125 203.949447 
C 295.945641 203.949447 295.18251 204.265546 294.61993 204.828126 
C 294.057349 205.390707 293.74125 206.153838 293.74125 206.949447 
C 293.74125 207.745056 294.057349 208.508186 294.61993 209.070767 
C 295.18251 209.633348 295.945641 209.949447 296.74125 209.949447 
z
" style="fill:#f26b38;stroke:#ffffff;stroke-width:0.48;"/>
    <path clip-path="url(#peec11de50a)" d="M 303.504886 209.949447 
C 304.300496 209.949447 305.063626 209.633348 305.626207 209.070767 
C 306.188787 208.508186 306.504886 207.745056 306.504886 206.949447 
C 306.504886 206.153838 306.188787 205.390707 305.626207 204.828126 
C 305.063626 204.265546 304.300496 203.949447 303.504886 203.949447 
C 302.709277 203.949447 301.946147 204.265546 301.383566 204.828126 
C 300.820985 205.390707 300.504886 206.153838 300.504886 206.949447 
C 300.504886 207.745056 300.820985 208.508186 301.383566 209.070767 
C 301.946147 209.633348 302.709277 209.949447 303.504886 209.949447 
z
" style="fill:#f26b38;stroke:#ffffff;stroke-width:0.48;"/>
    <path clip-path="url(#peec11de50a)" d="M 310.268523 209.949447 
C 311.064132 209.949447 311.827262 209.633348 312.389843 209.070767 
C 312.952424 208.508186 313.268523 207.745056 313.268523 206.949447 
C 313.268523 206.153838 312.952424 205.390707 312.389843 204.828126 
C 311.827262 204.265546 311.064132 203.949447 310.268523 203.949447 
C 309.472913 203.949447 308.709783 204.265546 308.147202 204.828126 
C 307.584622 205.390707 307.268523 206.153838 307.268523 206.949447 
C 307.268523 207.745056 307.584622 208.508186 308.147202 209.070767 
C 308.709783 209.633348 309.472913 209.949447 310.268523 209.949447 
z
" style="fill:#f26b38;stroke:#ffffff;stroke-width:0.48;"/>
    <path clip-path="url(#peec11de50a)" d="M 317.032159 209.949447 
C 317.827768 209.949447 318.590899 209.633348 319.153479 209.070767 
C 319.71606 208.508186 320.032159 207.745056 320.032159 206.949447 
C 320.032159 206.153838 319.71606 205.390707 319.153479 204.828126 
C 318.590899 204.265546 317.827768 203.949447 317.032159 203.949447 
C 316.23655 203.949447 315.473419 204.265546 314.910839 204.828126 
C 314.348258 205.390707 314.032159 206.153838 314.032159 206.949447 
C 314.032159 207.745056 314.348258 208.508186 314.910839 209.070767 
C 315.473419 209.633348 316.23655 209.949447 317.032159 209.949447 
z
" style="fill:#f26b38;stroke:#ffffff;stroke-width:0.48;"/>
    <path clip-path="url(#peec11de50a)" d="M 323.795795 209.949447 
C 324.591405 209.949447 325.354535 209.633348 325.917116 209.070767 
C 326.479697 208.508186 326.795795 207.745056 326.795795 206.949447 
C 326.795795 206.153838 326.479697 205.390707 325.917116 204.828126 
C 325.354535 204.265546 324.591405 203.949447 323.795795 203.949447 
C 323.000186 203.949447 322.237056 204.265546 321.674475 204.828126 
C 321.111894 205.390707 320.795795 206.153838 320.795795 206.949447 
C 320.795795 207.745056 321.111894 208.508186 321.674475 209.070767 
C 322.237056 209.633348 323.000186 209.949447 323.795795 209.949447 
z
" style="fill:#f26b38;stroke:#ffffff;stroke-width:0.48;"/>
    <path clip-path="url(#peec11de50a)" d="M 330.559432 209.949447 
C 331.355041 209.949447 332.118171 209.633348 332.680752 209.070767 
C 333.243333 208.508186 333.559432 207.745056 333.559432 206.949447 
C 333.559432 206.153838 333.243333 205.390707 332.680752 204.828126 
C 332.118171 204.265546 331.355041 203.949447 330.559432 203.949447 
C 329.763823 203.949447 329.000692 204.265546 328.438111 204.828126 
C 327.875531 205.390707 327.559432 206.153838 327.559432 206.949447 
C 327.559432 207.745056 327.875531 208.508186 328.438111 209.070767 
C 329.000692 209.633348 329.763823 209.949447 330.559432 209.949447 
z
" style="fill:#f26b38;stroke:#ffffff;stroke-width:0.48;"/>
    <path clip-path="url(#peec11de50a)" d="M 337.323068 209.949447 
C 338.118677 209.949447 338.881808 209.633348 339.444389 209.070767 
C 340.006969 208.508186 340.323068 207.745056 340.323068 206.949447 
C 340.323068 206.153838 340.006969 205.390707 339.444389 204.828126 
C 338.881808 204.265546 338.118677 203.949447 337.323068 203.949447 
C 336.527459 203.949447 335.764329 204.265546 335.201748 204.828126 
C 334.639167 205.390707 334.323068 206.153838 334.323068 206.949447 
C 334.323068 207.745056 334.639167 208.508186 335.201748 209.070767 
C 335.764329 209.633348 336.527459 209.949447 337.323068 209.949447 
z
" style="fill:#f26b38;stroke:#ffffff;stroke-width:0.48;"/>
    <path clip-path="url(#peec11de50a)" d="M 344.086705 209.949447 
C 344.882314 209.949447 345.645444 209.633348 346.208025 209.070767 
C 346.770606 208.508186 347.086705 207.745056 347.086705 206.949447 
C 347.086705 206.153838 346.770606 205.390707 346.208025 204.828126 
C 345.645444 204.265546 344.882314 203.949447 344.086705 203.949447 
C 343.291095 203.949447 342.527965 204.265546 341.965384 204.828126 
C 341.402803 205.390707 341.086705 206.153838 341.086705 206.949447 
C 341.086705 207.745056 341.402803 208.508186 341.965384 209.070767 
C 342.527965 209.633348 343.291095 209.949447 344.086705 209.949447 
z
" style="fill:#f26b38;stroke:#ffffff;stroke-width:0.48;"/>
    <path clip-path="url(#peec11de50a)" d="M 350.850341 209.949447 
C 351.64595 209.949447 352.409081 209.633348 352.971661 209.070767 
C 353.534242 208.508186 353.850341 207.745056 353.850341 206.949447 
C 353.850341 206.153838 353.534242 205.390707 352.971661 204.828126 
C 352.409081 204.265546 351.64595 203.949447 350.850341 203.949447 
C 350.054732 203.949447 349.291601 204.265546 348.729021 204.828126 
C 348.16644 205.390707 347.850341 206.153838 347.850341 206.949447 
C 347.850341 207.745056 348.16644 208.508186 348.729021 209.070767 
C 349.291601 209.633348 350.054732 209.949447 350.850341 209.949447 
z
" style="fill:#f26b38;stroke:#ffffff;stroke-width:0.48;"/>
    <path clip-path="url(#peec11de50a)" d="M 357.613977 209.949447 
C 358.409587 209.949447 359.172717 209.633348 359.735298 209.070767 
C 360.297878 208.508186 360.613977 207.745056 360.613977 206.949447 
C 360.613977 206.153838 360.297878 205.390707 359.735298 204.828126 
C 359.172717 204.265546 358.409587 203.949447 357.613977 203.949447 
C 356.818368 203.949447 356.055238 204.265546 355.492657 204.828126 
C 354.930076 205.390707 354.613977 206.153838 354.613977 206.949447 
C 354.613977 207.745056 354.930076 208.508186 355.492657 209.070767 
C 356.055238 209.633348 356.818368 209.949447 357.613977 209.949447 
z
" style="fill:#f26b38;stroke:#ffffff;stroke-width:0.48;"/>
    <path clip-path="url(#peec11de50a)" d="M 364.377614 209.949447 
C 365.173223 209.949447 365.936353 209.633348 366.498934 209.070767 
C 367.061515 208.508186 367.377614 207.745056 367.377614 206.949447 
C 367.377614 206.153838 367.061515 205.390707 366.498934 204.828126 
C 365.936353 204.265546 365.173223 203.949447 364.377614 203.949447 
C 363.582004 203.949447 362.818874 204.265546 362.256293 204.828126 
C 361.693713 205.390707 361.377614 206.153838 361.377614 206.949447 
C 361.377614 207.745056 361.693713 208.508186 362.256293 209.070767 
C 362.818874 209.633348 363.582004 209.949447 364.377614 209.949447 
z
" style="fill:#f26b38;stroke:#ffffff;stroke-width:0.48;"/>
    <path clip-path="url(#peec11de50a)" d="M 371.14125 209.949447 
C 371.936859 209.949447 372.69999 209.633348 373.26257 209.070767 
C 373.825151 208.508186 374.14125 207.745056 374.14125 206.949447 
C 374.14125 206.153838 373.825151 205.390707 373.26257 204.828126 
C 372.69999 204.265546 371.936859 203.949447 371.14125 203.949447 
C 370.345641 203.949447 369.58251 204.265546 369.01993 204.828126 
C 368.457349 205.390707 368.14125 206.153838 368.14125 206.949447 
C 368.14125 207.745056 368.457349 208.508186 369.01993 209.070767 
C 369.58251 209.633348 370.345641 209.949447 371.14125 209.949447 
z
" style="fill:#f26b38;stroke:#ffffff;stroke-width:0.48;"/>
    <path clip-path="url(#peec11de50a)" d="M 377.904886 209.949447 
C 378.700496 209.949447 379.463626 209.633348 380.026207 209.070767 
C 380.588787 208.508186 380.904886 207.745056 380.904886 206.949447 
C 380.904886 206.153838 380.588787 205.390707 380.026207 204.828126 
C 379.463626 204.265546 378.700496 203.949447 377.904886 203.949447 
C 377.109277 203.949447 376.346147 204.265546 375.783566 204.828126 
C 375.220985 205.390707 374.904886 206.153838 374.904886 206.949447 
C 374.904886 207.745056 375.220985 208.508186 375.783566 209.070767 
C 376.346147 209.633348 377.109277 209.949447 377.904886 209.949447 
z
" style="fill:#f26b38;stroke:#ffffff;stroke-width:0.48;"/>
    <path clip-path="url(#peec11de50a)" d="M 384.668523 209.949447 
C 385.464132 209.949447 386.227262 209.633348 386.789843 209.070767 
C 387.352424 208.508186 387.668523 207.745056 387.668523 206.949447 
C 387.668523 206.153838 387.352424 205.390707 386.789843 204.828126 
C 386.227262 204.265546 385.464132 203.949447 384.668523 203.949447 
C 383.872913 203.949447 383.109783 204.265546 382.547202 204.828126 
C 381.984622 205.390707 381.668523 206.153838 381.668523 206.949447 
C 381.668523 207.745056 381.984622 208.508186 382.547202 209.070767 
C 383.109783 209.633348 383.872913 209.949447 384.668523 209.949447 
z
" style="fill:#f26b38;stroke:#ffffff;stroke-width:0.48;"/>
    <path clip-path="url(#peec11de50a)" d="M 58.513977 100.420624 
L 60.013977 98.920624 
L 61.513977 100.420624 
L 63.013977 98.920624 
L 61.513977 97.420624 
L 63.013977 95.920624 
L 61.513977 94.420624 
L 60.013977 95.920624 
L 58.513977 94.420624 
L 57.013977 95.920624 
L 58.513977 97.420624 
L 57.013977 98.920624 
z
" style="fill:#2f9599;stroke:#ffffff;stroke-width:0.48;"/>
    <path clip-path="url(#peec11de50a)" d="M 65.277614 88.053405 
L 66.777614 86.553405 
L 68.277614 88.053405 
L 69.777614 86.553405 
L 68.277614 85.053405 
L 69.777614 83.553405 
L 68.277614 82.053405 
L 66.777614 83.553405 
L 65.277614 82.053405 
L 63.777614 83.553405 
L 65.277614 85.053405 
L 63.777614 86.553405 
z
" style="fill:#2f9599;stroke:#ffffff;stroke-width:0.48;"/>
    <path clip-path="url(#peec11de50a)" d="M 72.04125 88.053405 
L 73.54125 86.553405 
L 75.04125 88.053405 
L 76.54125 86.553405 
L 75.04125 85.053405 
L 76.54125 83.553405 
L 75.04125 82.053405 
L 73.54125 83.553405 
L 72.04125 82.053405 
L 70.54125 83.553405 
L 72.04125 85.053405 
L 70.54125 86.553405 
z
" style="fill:#2f9599;stroke:#ffffff;stroke-width:0.48;"/>
    <path clip-path="url(#peec11de50a)" d="M 78.804886 94.1808 
L 80.304886 92.6808 
L 81.804886 94.1808 
L 83.304886 92.6808 
L 81.804886 91.1808 
L 83.304886 89.6808 
L 81.804886 88.1808 
L 80.304886 89.6808 
L 78.804886 88.1808 
L 77.304886 89.6808 
L 78.804886 91.1808 
L 77.304886 92.6808 
z
" style="fill:#2f9599;stroke:#ffffff;stroke-width:0.48;"/>
    <path clip-path="url(#peec11de50a)" d="M 85.568523 100.420624 
L 87.068523 98.920624 
L 88.568523 100.420624 
L 90.068523 98.920624 
L 88.568523 97.420624 
L 90.068523 95.920624 
L 88.568523 94.420624 
L 87.068523 95.920624 
L 85.568523 94.420624 
L 84.068523 95.920624 
L 85.568523 97.420624 
L 84.068523 98.920624 
z
" style="fill:#2f9599;stroke:#ffffff;stroke-width:0.48;"/>
    <path clip-path="url(#peec11de50a)" d="M 92.332159 106.776 
L 93.832159 105.276 
L 95.332159 106.776 
L 96.832159 105.276 
L 95.332159 103.776 
L 96.832159 102.276 
L 95.332159 100.776 
L 93.832159 102.276 
L 92.332159 100.776 
L 90.832159 102.276 
L 92.332159 103.776 
L 90.832159 105.276 
z
" style="fill:#2f9599;stroke:#ffffff;stroke-width:0.48;"/>
    <path clip-path="url(#peec11de50a)" d="M 99.095795 106.776 
L 100.595795 105.276 
L 102.095795 106.776 
L 103.595795 105.276 
L 102.095795 103.776 
L 103.595795 102.276 
L 102.095795 100.776 
L 100.595795 102.276 
L 99.095795 100.776 
L 97.595795 102.276 
L 99.095795 103.776 
L 97.595795 105.276 
z
" style="fill:#2f9599;stroke:#ffffff;stroke-width:0.48;"/>
    <path clip-path="url(#peec11de50a)" d="M 105.859432 106.776 
L 107.359432 105.276 
L 108.859432 106.776 
L 110.359432 105.276 
L 108.859432 103.776 
L 110.359432 102.276 
L 108.859432 100.776 
L 107.359432 102.276 
L 105.859432 100.776 
L 104.359432 102.276 
L 105.859432 103.776 
L 104.359432 105.276 
z
" style="fill:#2f9599;stroke:#ffffff;stroke-width:0.48;"/>
    <path clip-path="url(#peec11de50a)" d="M 112.623068 106.776 
L 114.123068 105.276 
L 115.623068 106.776 
L 117.123068 105.276 
L 115.623068 103.776 
L 117.123068 102.276 
L 115.623068 100.776 
L 114.123068 102.276 
L 112.623068 100.776 
L 111.123068 102.276 
L 112.623068 103.776 
L 111.123068 105.276 
z
" style="fill:#2f9599;stroke:#ffffff;stroke-width:0.48;"/>
    <path clip-path="url(#peec11de50a)" d="M 119.386705 94.1808 
L 120.886705 92.6808 
L 122.386705 94.1808 
L 123.886705 92.6808 
L 122.386705 91.1808 
L 123.886705 89.6808 
L 122.386705 88.1808 
L 120.886705 89.6808 
L 119.386705 88.1808 
L 117.886705 89.6808 
L 119.386705 91.1808 
L 117.886705 92.6808 
z
" style="fill:#2f9599;stroke:#ffffff;stroke-width:0.48;"/>
    <path clip-path="url(#peec11de50a)" d="M 126.150341 70.316211 
L 127.650341 68.816211 
L 129.150341 70.316211 
L 130.650341 68.816211 
L 129.150341 67.316211 
L 130.650341 65.816211 
L 129.150341 64.316211 
L 127.650341 65.816211 
L 126.150341 64.316211 
L 124.650341 65.816211 
L 126.150341 67.316211 
L 124.650341 68.816211 
z
" style="fill:#2f9599;stroke:#ffffff;stroke-width:0.48;"/>
    <path clip-path="url(#peec11de50a)" d="M 132.913977 140.403961 
L 134.413977 138.903961 
L 135.913977 140.403961 
L 137.413977 138.903961 
L 135.913977 137.403961 
L 137.413977 135.903961 
L 135.913977 134.403961 
L 134.413977 135.903961 
L 132.913977 134.403961 
L 131.413977 135.903961 
L 132.913977 137.403961 
L 131.413977 138.903961 
z
" style="fill:#2f9599;stroke:#ffffff;stroke-width:0.48;"/>
    <path clip-path="url(#peec11de50a)" d="M 139.677614 140.403961 
L 141.177614 138.903961 
L 142.677614 140.403961 
L 144.177614 138.903961 
L 142.677614 137.403961 
L 144.177614 135.903961 
L 142.677614 134.403961 
L 141.177614 135.903961 
L 139.677614 134.403961 
L 138.177614 135.903961 
L 139.677614 137.403961 
L 138.177614 138.903961 
z
" style="fill:#2f9599;stroke:#ffffff;stroke-width:0.48;"/>
    <path clip-path="url(#peec11de50a)" d="M 146.44125 140.403961 
L 147.94125 138.903961 
L 149.44125 140.403961 
L 150.94125 138.903961 
L 149.44125 137.403961 
L 150.94125 135.903961 
L 149.44125 134.403961 
L 147.94125 135.903961 
L 146.44125 134.403961 
L 144.94125 135.903961 
L 146.44125 137.403961 
L 144.94125 138.903961 
z
" style="fill:#2f9599;stroke:#ffffff;stroke-width:0.48;"/>
    <path clip-path="url(#peec11de50a)" d="M 153.204886 140.403961 
L 154.704886 138.903961 
L 156.204886 140.403961 
L 157.704886 138.903961 
L 156.204886 137.403961 
L 157.704886 135.903961 
L 156.204886 134.403961 
L 154.704886 135.903961 
L 153.204886 134.403961 
L 151.704886 135.903961 
L 153.204886 137.403961 
L 151.704886 138.903961 
z
" style="fill:#2f9599;stroke:#ffffff;stroke-width:0.48;"/>
    <path clip-path="url(#peec11de50a)" d="M 159.968523 140.403961 
L 161.468523 138.903961 
L 162.968523 140.403961 
L 164.468523 138.903961 
L 162.968523 137.403961 
L 164.468523 135.903961 
L 162.968523 134.403961 
L 161.468523 135.903961 
L 159.968523 134.403961 
L 158.468523 135.903961 
L 159.968523 137.403961 
L 158.468523 138.903961 
z
" style="fill:#2f9599;stroke:#ffffff;stroke-width:0.48;"/>
    <path clip-path="url(#peec11de50a)" d="M 166.732159 264.216 
L 168.232159 262.716 
L 169.732159 264.216 
L 171.232159 262.716 
L 169.732159 261.216 
L 171.232159 259.716 
L 169.732159 258.216 
L 168.232159 259.716 
L 166.732159 258.216 
L 165.232159 259.716 
L 166.732159 261.216 
L 165.232159 262.716 
z
" style="fill:#2f9599;stroke:#ffffff;stroke-width:0.48;"/>
    <path clip-path="url(#peec11de50a)" d="M 173.495795 264.216 
L 174.995795 262.716 
L 176.495795 264.216 
L 177.995795 262.716 
L 176.495795 261.216 
L 177.995795 259.716 
L 176.495795 258.216 
L 174.995795 259.716 
L 173.495795 258.216 
L 171.995795 259.716 
L 173.495795 261.216 
L 171.995795 262.716 
z
" style="fill:#2f9599;stroke:#ffffff;stroke-width:0.48;"/>
    <path clip-path="url(#peec11de50a)" d="M 180.259432 264.216 
L 181.759432 262.716 
L 183.259432 264.216 
L 184.759432 262.716 
L 183.259432 261.216 
L 184.759432 259.716 
L 183.259432 258.216 
L 181.759432 259.716 
L 180.259432 258.216 
L 178.759432 259.716 
L 180.259432 261.216 
L 178.759432 262.716 
z
" style="fill:#2f9599;stroke:#ffffff;stroke-width:0.48;"/>
    <path clip-path="url(#peec11de50a)" d="M 187.023068 264.216 
L 188.523068 262.716 
L 190.023068 264.216 
L 191.523068 262.716 
L 190.023068 261.216 
L 191.523068 259.716 
L 190.023068 258.216 
L 188.523068 259.716 
L 187.023068 258.216 
L 185.523068 259.716 
L 187.023068 261.216 
L 185.523068 262.716 
z
" style="fill:#2f9599;stroke:#ffffff;stroke-width:0.48;"/>
    <path clip-path="url(#peec11de50a)" d="M 193.786705 264.216 
L 195.286705 262.716 
L 196.786705 264.216 
L 198.286705 262.716 
L 196.786705 261.216 
L 198.286705 259.716 
L 196.786705 258.216 
L 195.286705 259.716 
L 193.786705 258.216 
L 192.286705 259.716 
L 193.786705 261.216 
L 192.286705 262.716 
z
" style="fill:#2f9599;stroke:#ffffff;stroke-width:0.48;"/>
    <path clip-path="url(#peec11de50a)" d="M 200.550341 264.216 
L 202.050341 262.716 
L 203.550341 264.216 
L 205.050341 262.716 
L 203.550341 261.216 
L 205.050341 259.716 
L 203.550341 258.216 
L 202.050341 259.716 
L 200.550341 258.216 
L 199.050341 259.716 
L 200.550341 261.216 
L 199.050341 262.716 
z
" style="fill:#2f9599;stroke:#ffffff;stroke-width:0.48;"/>
    <path clip-path="url(#peec11de50a)" d="M 207.313977 264.216 
L 208.813977 262.716 
L 210.313977 264.216 
L 211.813977 262.716 
L 210.313977 261.216 
L 211.813977 259.716 
L 210.313977 258.216 
L 208.813977 259.716 
L 207.313977 258.216 
L 205.813977 259.716 
L 207.313977 261.216 
L 205.813977 262.716 
z
" style="fill:#2f9599;stroke:#ffffff;stroke-width:0.48;"/>
    <path clip-path="url(#peec11de50a)" d="M 214.077614 264.216 
L 215.577614 262.716 
L 217.077614 264.216 
L 218.577614 262.716 
L 217.077614 261.216 
L 218.577614 259.716 
L 217.077614 258.216 
L 215.577614 259.716 
L 214.077614 258.216 
L 212.577614 259.716 
L 214.077614 261.216 
L 212.577614 262.716 
z
" style="fill:#2f9599;stroke:#ffffff;stroke-width:0.48;"/>
    <path clip-path="url(#peec11de50a)" d="M 220.84125 264.216 
L 222.34125 262.716 
L 223.84125 264.216 
L 225.34125 262.716 
L 223.84125 261.216 
L 225.34125 259.716 
L 223.84125 258.216 
L 222.34125 259.716 
L 220.84125 258.216 
L 219.34125 259.716 
L 220.84125 261.216 
L 219.34125 262.716 
z
" style="fill:#2f9599;stroke:#ffffff;stroke-width:0.48;"/>
    <path clip-path="url(#peec11de50a)" d="M 227.604886 264.216 
L 229.104886 262.716 
L 230.604886 264.216 
L 232.104886 262.716 
L 230.604886 261.216 
L 232.104886 259.716 
L 230.604886 258.216 
L 229.104886 259.716 
L 227.604886 258.216 
L 226.104886 259.716 
L 227.604886 261.216 
L 226.104886 262.716 
z
" style="fill:#2f9599;stroke:#ffffff;stroke-width:0.48;"/>
    <path clip-path="url(#peec11de50a)" d="M 234.368523 264.216 
L 235.868523 262.716 
L 237.368523 264.216 
L 238.868523 262.716 
L 237.368523 261.216 
L 238.868523 259.716 
L 237.368523 258.216 
L 235.868523 259.716 
L 234.368523 258.216 
L 232.868523 259.716 
L 234.368523 261.216 
L 232.868523 262.716 
z
" style="fill:#2f9599;stroke:#ffffff;stroke-width:0.48;"/>
    <path clip-path="url(#peec11de50a)" d="M 241.132159 264.216 
L 242.632159 262.716 
L 244.132159 264.216 
L 245.632159 262.716 
L 244.132159 261.216 
L 245.632159 259.716 
L 244.132159 258.216 
L 242.632159 259.716 
L 241.132159 258.216 
L 239.632159 259.716 
L 241.132159 261.216 
L 239.632159 262.716 
z
" style="fill:#2f9599;stroke:#ffffff;stroke-width:0.48;"/>
    <path clip-path="url(#peec11de50a)" d="M 247.895795 264.216 
L 249.395795 262.716 
L 250.895795 264.216 
L 252.395795 262.716 
L 250.895795 261.216 
L 252.395795 259.716 
L 250.895795 258.216 
L 249.395795 259.716 
L 247.895795 258.216 
L 246.395795 259.716 
L 247.895795 261.216 
L 246.395795 262.716 
z
" style="fill:#2f9599;stroke:#ffffff;stroke-width:0.48;"/>
    <path clip-path="url(#peec11de50a)" d="M 254.659432 264.216 
L 256.159432 262.716 
L 257.659432 264.216 
L 259.159432 262.716 
L 257.659432 261.216 
L 259.159432 259.716 
L 257.659432 258.216 
L 256.159432 259.716 
L 254.659432 258.216 
L 253.159432 259.716 
L 254.659432 261.216 
L 253.159432 262.716 
z
" style="fill:#2f9599;stroke:#ffffff;stroke-width:0.48;"/>
    <path clip-path="url(#peec11de50a)" d="M 261.423068 264.216 
L 262.923068 262.716 
L 264.423068 264.216 
L 265.923068 262.716 
L 264.423068 261.216 
L 265.923068 259.716 
L 264.423068 258.216 
L 262.923068 259.716 
L 261.423068 258.216 
L 259.923068 259.716 
L 261.423068 261.216 
L 259.923068 262.716 
z
" style="fill:#2f9599;stroke:#ffffff;stroke-width:0.48;"/>
    <path clip-path="url(#peec11de50a)" d="M 268.186705 264.216 
L 269.686705 262.716 
L 271.186705 264.216 
L 272.686705 262.716 
L 271.186705 261.216 
L 272.686705 259.716 
L 271.186705 258.216 
L 269.686705 259.716 
L 268.186705 258.216 
L 266.686705 259.716 
L 268.186705 261.216 
L 266.686705 262.716 
z
" style="fill:#2f9599;stroke:#ffffff;stroke-width:0.48;"/>
    <path clip-path="url(#peec11de50a)" d="M 274.950341 264.216 
L 276.450341 262.716 
L 277.950341 264.216 
L 279.450341 262.716 
L 277.950341 261.216 
L 279.450341 259.716 
L 277.950341 258.216 
L 276.450341 259.716 
L 274.950341 258.216 
L 273.450341 259.716 
L 274.950341 261.216 
L 273.450341 262.716 
z
" style="fill:#2f9599;stroke:#ffffff;stroke-width:0.48;"/>
    <path clip-path="url(#peec11de50a)" d="M 281.713977 264.216 
L 283.213977 262.716 
L 284.713977 264.216 
L 286.213977 262.716 
L 284.713977 261.216 
L 286.213977 259.716 
L 284.713977 258.216 
L 283.213977 259.716 
L 281.713977 258.216 
L 280.213977 259.716 
L 281.713977 261.216 
L 280.213977 262.716 
z
" style="fill:#2f9599;stroke:#ffffff;stroke-width:0.48;"/>
    <path clip-path="url(#peec11de50a)" d="M 288.477614 264.216 
L 289.977614 262.716 
L 291.477614 264.216 
L 292.977614 262.716 
L 291.477614 261.216 
L 292.977614 259.716 
L 291.477614 258.216 
L 289.977614 259.716 
L 288.477614 258.216 
L 286.977614 259.716 
L 288.477614 261.216 
L 286.977614 262.716 
z
" style="fill:#2f9599;stroke:#ffffff;stroke-width:0.48;"/>
    <path clip-path="url(#peec11de50a)" d="M 295.24125 264.216 
L 296.74125 262.716 
L 298.24125 264.216 
L 299.74125 262.716 
L 298.24125 261.216 
L 299.74125 259.716 
L 298.24125 258.216 
L 296.74125 259.716 
L 295.24125 258.216 
L 293.74125 259.716 
L 295.24125 261.216 
L 293.74125 262.716 
z
" style="fill:#2f9599;stroke:#ffffff;stroke-width:0.48;"/>
    <path clip-path="url(#peec11de50a)" d="M 302.004886 264.216 
L 303.504886 262.716 
L 305.004886 264.216 
L 306.504886 262.716 
L 305.004886 261.216 
L 306.504886 259.716 
L 305.004886 258.216 
L 303.504886 259.716 
L 302.004886 258.216 
L 300.504886 259.716 
L 302.004886 261.216 
L 300.504886 262.716 
z
" style="fill:#2f9599;stroke:#ffffff;stroke-width:0.48;"/>
    <path clip-path="url(#peec11de50a)" d="M 308.768523 264.216 
L 310.268523 262.716 
L 311.768523 264.216 
L 313.268523 262.716 
L 311.768523 261.216 
L 313.268523 259.716 
L 311.768523 258.216 
L 310.268523 259.716 
L 308.768523 258.216 
L 307.268523 259.716 
L 308.768523 261.216 
L 307.268523 262.716 
z
" style="fill:#2f9599;stroke:#ffffff;stroke-width:0.48;"/>
    <path clip-path="url(#peec11de50a)" d="M 315.532159 264.216 
L 317.032159 262.716 
L 318.532159 264.216 
L 320.032159 262.716 
L 318.532159 261.216 
L 320.032159 259.716 
L 318.532159 258.216 
L 317.032159 259.716 
L 315.532159 258.216 
L 314.032159 259.716 
L 315.532159 261.216 
L 314.032159 262.716 
z
" style="fill:#2f9599;stroke:#ffffff;stroke-width:0.48;"/>
    <path clip-path="url(#peec11de50a)" d="M 322.295795 264.216 
L 323.795795 262.716 
L 325.295795 264.216 
L 326.795795 262.716 
L 325.295795 261.216 
L 326.795795 259.716 
L 325.295795 258.216 
L 323.795795 259.716 
L 322.295795 258.216 
L 320.795795 259.716 
L 322.295795 261.216 
L 320.795795 262.716 
z
" style="fill:#2f9599;stroke:#ffffff;stroke-width:0.48;"/>
    <path clip-path="url(#peec11de50a)" d="M 329.059432 264.216 
L 330.559432 262.716 
L 332.059432 264.216 
L 333.559432 262.716 
L 332.059432 261.216 
L 333.559432 259.716 
L 332.059432 258.216 
L 330.559432 259.716 
L 329.059432 258.216 
L 327.559432 259.716 
L 329.059432 261.216 
L 327.559432 262.716 
z
" style="fill:#2f9599;stroke:#ffffff;stroke-width:0.48;"/>
    <path clip-path="url(#peec11de50a)" d="M 335.823068 264.216 
L 337.323068 262.716 
L 338.823068 264.216 
L 340.323068 262.716 
L 338.823068 261.216 
L 340.323068 259.716 
L 338.823068 258.216 
L 337.323068 259.716 
L 335.823068 258.216 
L 334.323068 259.716 
L 335.823068 261.216 
L 334.323068 262.716 
z
" style="fill:#2f9599;stroke:#ffffff;stroke-width:0.48;"/>
    <path clip-path="url(#peec11de50a)" d="M 342.586705 264.216 
L 344.086705 262.716 
L 345.586705 264.216 
L 347.086705 262.716 
L 345.586705 261.216 
L 347.086705 259.716 
L 345.586705 258.216 
L 344.086705 259.716 
L 342.586705 258.216 
L 341.086705 259.716 
L 342.586705 261.216 
L 341.086705 262.716 
z
" style="fill:#2f9599;stroke:#ffffff;stroke-width:0.48;"/>
    <path clip-path="url(#peec11de50a)" d="M 349.350341 264.216 
L 350.850341 262.716 
L 352.350341 264.216 
L 353.850341 262.716 
L 352.350341 261.216 
L 353.850341 259.716 
L 352.350341 258.216 
L 350.850341 259.716 
L 349.350341 258.216 
L 347.850341 259.716 
L 349.350341 261.216 
L 347.850341 262.716 
z
" style="fill:#2f9599;stroke:#ffffff;stroke-width:0.48;"/>
    <path clip-path="url(#peec11de50a)" d="M 356.113977 264.216 
L 357.613977 262.716 
L 359.113977 264.216 
L 360.613977 262.716 
L 359.113977 261.216 
L 360.613977 259.716 
L 359.113977 258.216 
L 357.613977 259.716 
L 356.113977 258.216 
L 354.613977 259.716 
L 356.113977 261.216 
L 354.613977 262.716 
z
" style="fill:#2f9599;stroke:#ffffff;stroke-width:0.48;"/>
    <path clip-path="url(#peec11de50a)" d="M 362.877614 264.216 
L 364.377614 262.716 
L 365.877614 264.216 
L 367.377614 262.716 
L 365.877614 261.216 
L 367.377614 259.716 
L 365.877614 258.216 
L 364.377614 259.716 
L 362.877614 258.216 
L 361.377614 259.716 
L 362.877614 261.216 
L 361.377614 262.716 
z
" style="fill:#2f9599;stroke:#ffffff;stroke-width:0.48;"/>
    <path clip-path="url(#peec11de50a)" d="M 369.64125 264.216 
L 371.14125 262.716 
L 372.64125 264.216 
L 374.14125 262.716 
L 372.64125 261.216 
L 374.14125 259.716 
L 372.64125 258.216 
L 371.14125 259.716 
L 369.64125 258.216 
L 368.14125 259.716 
L 369.64125 261.216 
L 368.14125 262.716 
z
" style="fill:#2f9599;stroke:#ffffff;stroke-width:0.48;"/>
    <path clip-path="url(#peec11de50a)" d="M 376.404886 264.216 
L 377.904886 262.716 
L 379.404886 264.216 
L 380.904886 262.716 
L 379.404886 261.216 
L 380.904886 259.716 
L 379.404886 258.216 
L 377.904886 259.716 
L 376.404886 258.216 
L 374.904886 259.716 
L 376.404886 261.216 
L 374.904886 262.716 
z
" style="fill:#2f9599;stroke:#ffffff;stroke-width:0.48;"/>
    <path clip-path="url(#peec11de50a)" d="M 383.168523 264.216 
L 384.668523 262.716 
L 386.168523 264.216 
L 387.668523 262.716 
L 386.168523 261.216 
L 387.668523 259.716 
L 386.168523 258.216 
L 384.668523 259.716 
L 383.168523 258.216 
L 381.668523 259.716 
L 383.168523 261.216 
L 381.668523 262.716 
z
" style="fill:#2f9599;stroke:#ffffff;stroke-width:0.48;"/>
    <path clip-path="url(#peec11de50a)" d="M 57.892657 22.160385 
L 57.892657 26.403025 
L 62.135298 26.403025 
L 62.135298 22.160385 
z
" style="fill:#a7226e;stroke:#ffffff;stroke-width:0.48;"/>
    <path clip-path="url(#peec11de50a)" d="M 64.656293 22.160385 
L 64.656293 26.403025 
L 68.898934 26.403025 
L 68.898934 22.160385 
z
" style="fill:#a7226e;stroke:#ffffff;stroke-width:0.48;"/>
    <path clip-path="url(#peec11de50a)" d="M 71.41993 22.160385 
L 71.41993 26.403025 
L 75.66257 26.403025 
L 75.66257 22.160385 
z
" style="fill:#a7226e;stroke:#ffffff;stroke-width:0.48;"/>
    <path clip-path="url(#peec11de50a)" d="M 78.183566 22.160385 
L 78.183566 26.403025 
L 82.426207 26.403025 
L 82.426207 22.160385 
z
" style="fill:#a7226e;stroke:#ffffff;stroke-width:0.48;"/>
    <path clip-path="url(#peec11de50a)" d="M 84.947202 27.228498 
L 84.947202 31.471139 
L 89.189843 31.471139 
L 89.189843 27.228498 
z
" style="fill:#a7226e;stroke:#ffffff;stroke-width:0.48;"/>
    <path clip-path="url(#peec11de50a)" d="M 91.710839 37.620259 
L 91.710839 41.8629 
L 95.953479 41.8629 
L 95.953479 37.620259 
z
" style="fill:#a7226e;stroke:#ffffff;stroke-width:0.48;"/>
    <path clip-path="url(#peec11de50a)" d="M 98.474475 32.38108 
L 98.474475 36.62372 
L 102.717116 36.62372 
L 102.717116 32.38108 
z
" style="fill:#a7226e;stroke:#ffffff;stroke-width:0.48;"/>
    <path clip-path="url(#peec11de50a)" d="M 105.238111 32.38108 
L 105.238111 36.62372 
L 109.480752 36.62372 
L 109.480752 32.38108 
z
" style="fill:#a7226e;stroke:#ffffff;stroke-width:0.48;"/>
    <path clip-path="url(#peec11de50a)" d="M 112.001748 32.38108 
L 112.001748 36.62372 
L 116.244389 36.62372 
L 116.244389 32.38108 
z
" style="fill:#a7226e;stroke:#ffffff;stroke-width:0.48;"/>
    <path clip-path="url(#peec11de50a)" d="M 118.765384 17.17468 
L 118.765384 21.41732 
L 123.008025 21.41732 
L 123.008025 17.17468 
z
" style="fill:#a7226e;stroke:#ffffff;stroke-width:0.48;"/>
    <path clip-path="url(#peec11de50a)" d="M 125.529021 17.17468 
L 125.529021 21.41732 
L 129.771661 21.41732 
L 129.771661 17.17468 
z
" style="fill:#a7226e;stroke:#ffffff;stroke-width:0.48;"/>
    <path clip-path="url(#peec11de50a)" d="M 132.292657 22.160385 
L 132.292657 26.403025 
L 136.535298 26.403025 
L 136.535298 22.160385 
z
" style="fill:#a7226e;stroke:#ffffff;stroke-width:0.48;"/>
    <path clip-path="url(#peec11de50a)" d="M 139.056293 22.160385 
L 139.056293 26.403025 
L 143.298934 26.403025 
L 143.298934 22.160385 
z
" style="fill:#a7226e;stroke:#ffffff;stroke-width:0.48;"/>
    <path clip-path="url(#peec11de50a)" d="M 145.81993 22.160385 
L 145.81993 26.403025 
L 150.06257 26.403025 
L 150.06257 22.160385 
z
" style="fill:#a7226e;stroke:#ffffff;stroke-width:0.48;"/>
    <path clip-path="url(#peec11de50a)" d="M 152.583566 17.17468 
L 152.583566 21.41732 
L 156.826207 21.41732 
L 156.826207 17.17468 
z
" style="fill:#a7226e;stroke:#ffffff;stroke-width:0.48;"/>
    <path clip-path="url(#peec11de50a)" d="M 159.347202 32.38108 
L 159.347202 36.62372 
L 163.589843 36.62372 
L 163.589843 32.38108 
z
" style="fill:#a7226e;stroke:#ffffff;stroke-width:0.48;"/>
    <path clip-path="url(#peec11de50a)" d="M 166.110839 32.38108 
L 166.110839 36.62372 
L 170.353479 36.62372 
L 170.353479 32.38108 
z
" style="fill:#a7226e;stroke:#ffffff;stroke-width:0.48;"/>
    <path clip-path="url(#peec11de50a)" d="M 172.874475 27.228498 
L 172.874475 31.471139 
L 177.117116 31.471139 
L 177.117116 27.228498 
z
" style="fill:#a7226e;stroke:#ffffff;stroke-width:0.48;"/>
    <path clip-path="url(#peec11de50a)" d="M 179.638111 27.228498 
L 179.638111 31.471139 
L 183.880752 31.471139 
L 183.880752 27.228498 
z
" style="fill:#a7226e;stroke:#ffffff;stroke-width:0.48;"/>
    <path clip-path="url(#peec11de50a)" d="M 186.401748 27.228498 
L 186.401748 31.471139 
L 190.644389 31.471139 
L 190.644389 27.228498 
z
" style="fill:#a7226e;stroke:#ffffff;stroke-width:0.48;"/>
    <path clip-path="url(#peec11de50a)" d="M 193.165384 32.38108 
L 193.165384 36.62372 
L 197.408025 36.62372 
L 197.408025 32.38108 
z
" style="fill:#a7226e;stroke:#ffffff;stroke-width:0.48;"/>
    <path clip-path="url(#peec11de50a)" d="M 199.929021 32.38108 
L 199.929021 36.62372 
L 204.171661 36.62372 
L 204.171661 32.38108 
z
" style="fill:#a7226e;stroke:#ffffff;stroke-width:0.48;"/>
    <path clip-path="url(#peec11de50a)" d="M 206.692657 32.38108 
L 206.692657 36.62372 
L 210.935298 36.62372 
L 210.935298 32.38108 
z
" style="fill:#a7226e;stroke:#ffffff;stroke-width:0.48;"/>
    <path clip-path="url(#peec11de50a)" d="M 213.456293 53.879783 
L 213.456293 58.122424 
L 217.698934 58.122424 
L 217.698934 53.879783 
z
" style="fill:#a7226e;stroke:#ffffff;stroke-width:0.48;"/>
    <path clip-path="url(#peec11de50a)" d="M 220.21993 59.488141 
L 220.21993 63.730781 
L 224.46257 63.730781 
L 224.46257 59.488141 
z
" style="fill:#a7226e;stroke:#ffffff;stroke-width:0.48;"/>
    <path clip-path="url(#peec11de50a)" d="M 226.983566 59.488141 
L 226.983566 63.730781 
L 231.226207 63.730781 
L 231.226207 59.488141 
z
" style="fill:#a7226e;stroke:#ffffff;stroke-width:0.48;"/>
    <path clip-path="url(#peec11de50a)" d="M 233.747202 32.38108 
L 233.747202 36.62372 
L 237.989843 36.62372 
L 237.989843 32.38108 
z
" style="fill:#a7226e;stroke:#ffffff;stroke-width:0.48;"/>
    <path clip-path="url(#peec11de50a)" d="M 240.510839 42.948239 
L 240.510839 47.19088 
L 244.753479 47.19088 
L 244.753479 42.948239 
z
" style="fill:#a7226e;stroke:#ffffff;stroke-width:0.48;"/>
    <path clip-path="url(#peec11de50a)" d="M 247.274475 42.948239 
L 247.274475 47.19088 
L 251.517116 47.19088 
L 251.517116 42.948239 
z
" style="fill:#a7226e;stroke:#ffffff;stroke-width:0.48;"/>
    <path clip-path="url(#peec11de50a)" d="M 254.038111 65.19489 
L 254.038111 69.437531 
L 258.280752 69.437531 
L 258.280752 65.19489 
z
" style="fill:#a7226e;stroke:#ffffff;stroke-width:0.48;"/>
    <path clip-path="url(#peec11de50a)" d="M 260.801748 48.367295 
L 260.801748 52.609936 
L 265.044389 52.609936 
L 265.044389 48.367295 
z
" style="fill:#a7226e;stroke:#ffffff;stroke-width:0.48;"/>
    <path clip-path="url(#peec11de50a)" d="M 267.565384 48.367295 
L 267.565384 52.609936 
L 271.808025 52.609936 
L 271.808025 48.367295 
z
" style="fill:#a7226e;stroke:#ffffff;stroke-width:0.48;"/>
    <path clip-path="url(#peec11de50a)" d="M 274.329021 48.367295 
L 274.329021 52.609936 
L 278.571661 52.609936 
L 278.571661 48.367295 
z
" style="fill:#a7226e;stroke:#ffffff;stroke-width:0.48;"/>
    <path clip-path="url(#peec11de50a)" d="M 281.092657 204.828126 
L 281.092657 209.070767 
L 285.335298 209.070767 
L 285.335298 204.828126 
z
" style="fill:#a7226e;stroke:#ffffff;stroke-width:0.48;"/>
    <path clip-path="url(#peec11de50a)" d="M 287.856293 204.828126 
L 287.856293 209.070767 
L 292.098934 209.070767 
L 292.098934 204.828126 
z
" style="fill:#a7226e;stroke:#ffffff;stroke-width:0.48;"/>
    <path clip-path="url(#peec11de50a)" d="M 294.61993 204.828126 
L 294.61993 209.070767 
L 298.86257 209.070767 
L 298.86257 204.828126 
z
" style="fill:#a7226e;stroke:#ffffff;stroke-width:0.48;"/>
    <path clip-path="url(#peec11de50a)" d="M 301.383566 204.828126 
L 301.383566 209.070767 
L 305.626207 209.070767 
L 305.626207 204.828126 
z
" style="fill:#a7226e;stroke:#ffffff;stroke-width:0.48;"/>
    <path clip-path="url(#peec11de50a)" d="M 308.147202 204.828126 
L 308.147202 209.070767 
L 312.389843 209.070767 
L 312.389843 204.828126 
z
" style="fill:#a7226e;stroke:#ffffff;stroke-width:0.48;"/>
    <path clip-path="url(#peec11de50a)" d="M 314.910839 204.828126 
L 314.910839 209.070767 
L 319.153479 209.070767 
L 319.153479 204.828126 
z
" style="fill:#a7226e;stroke:#ffffff;stroke-width:0.48;"/>
    <path clip-path="url(#peec11de50a)" d="M 321.674475 204.828126 
L 321.674475 209.070767 
L 325.917116 209.070767 
L 325.917116 204.828126 
z
" style="fill:#a7226e;stroke:#ffffff;stroke-width:0.48;"/>
    <path clip-path="url(#peec11de50a)" d="M 328.438111 204.828126 
L 328.438111 209.070767 
L 332.680752 209.070767 
L 332.680752 204.828126 
z
" style="fill:#a7226e;stroke:#ffffff;stroke-width:0.48;"/>
    <path clip-path="url(#peec11de50a)" d="M 335.201748 204.828126 
L 335.201748 209.070767 
L 339.444389 209.070767 
L 339.444389 204.828126 
z
" style="fill:#a7226e;stroke:#ffffff;stroke-width:0.48;"/>
    <path clip-path="url(#peec11de50a)" d="M 341.965384 204.828126 
L 341.965384 209.070767 
L 346.208025 209.070767 
L 346.208025 204.828126 
z
" style="fill:#a7226e;stroke:#ffffff;stroke-width:0.48;"/>
    <path clip-path="url(#peec11de50a)" d="M 348.729021 204.828126 
L 348.729021 209.070767 
L 352.971661 209.070767 
L 352.971661 204.828126 
z
" style="fill:#a7226e;stroke:#ffffff;stroke-width:0.48;"/>
    <path clip-path="url(#peec11de50a)" d="M 355.492657 204.828126 
L 355.492657 209.070767 
L 359.735298 209.070767 
L 359.735298 204.828126 
z
" style="fill:#a7226e;stroke:#ffffff;stroke-width:0.48;"/>
    <path clip-path="url(#peec11de50a)" d="M 362.256293 204.828126 
L 362.256293 209.070767 
L 366.498934 209.070767 
L 366.498934 204.828126 
z
" style="fill:#a7226e;stroke:#ffffff;stroke-width:0.48;"/>
    <path clip-path="url(#peec11de50a)" d="M 369.01993 204.828126 
L 369.01993 209.070767 
L 373.26257 209.070767 
L 373.26257 204.828126 
z
" style="fill:#a7226e;stroke:#ffffff;stroke-width:0.48;"/>
    <path clip-path="url(#peec11de50a)" d="M 375.783566 204.828126 
L 375.783566 209.070767 
L 380.026207 209.070767 
L 380.026207 204.828126 
z
" style="fill:#a7226e;stroke:#ffffff;stroke-width:0.48;"/>
    <path clip-path="url(#peec11de50a)" d="M 382.547202 204.828126 
L 382.547202 209.070767 
L 386.789843 209.070767 
L 386.789843 204.828126 
z
" style="fill:#a7226e;stroke:#ffffff;stroke-width:0.48;"/>
   </g>
   <g id="PathCollection_2"/>
   <g id="PathCollection_3"/>
   <g id="PathCollection_4"/>
   <g id="matplotlib.axis_1">
    <g id="xtick_1">
     <g id="line2d_1">
      <defs>
       <path d="M 0 0 
L 0 3.5 
" id="m9d016a0782" style="stroke:#000000;stroke-width:0.8;"/>
      </defs>
      <g>
       <use style="stroke:#000000;stroke-width:0.8;" x="53.250341" xlink:href="#m9d016a0782" y="273.312"/>
      </g>
     </g>
     <g id="text_1">
      <!-- 0.0 -->
      <g transform="translate(45.298778 287.910437)scale(0.1 -0.1)">
       <defs>
        <path d="M 31.78125 66.40625 
Q 24.171875 66.40625 20.328125 58.90625 
Q 16.5 51.421875 16.5 36.375 
Q 16.5 21.390625 20.328125 13.890625 
Q 24.171875 6.390625 31.78125 6.390625 
Q 39.453125 6.390625 43.28125 13.890625 
Q 47.125 21.390625 47.125 36.375 
Q 47.125 51.421875 43.28125 58.90625 
Q 39.453125 66.40625 31.78125 66.40625 
z
M 31.78125 74.21875 
Q 44.046875 74.21875 50.515625 64.515625 
Q 56.984375 54.828125 56.984375 36.375 
Q 56.984375 17.96875 50.515625 8.265625 
Q 44.046875 -1.421875 31.78125 -1.421875 
Q 19.53125 -1.421875 13.0625 8.265625 
Q 6.59375 17.96875 6.59375 36.375 
Q 6.59375 54.828125 13.0625 64.515625 
Q 19.53125 74.21875 31.78125 74.21875 
z
" id="DejaVuSans-48"/>
        <path d="M 10.6875 12.40625 
L 21 12.40625 
L 21 0 
L 10.6875 0 
z
" id="DejaVuSans-46"/>
       </defs>
       <use xlink:href="#DejaVuSans-48"/>
       <use x="63.623047" xlink:href="#DejaVuSans-46"/>
       <use x="95.410156" xlink:href="#DejaVuSans-48"/>
      </g>
     </g>
    </g>
    <g id="xtick_2">
     <g id="line2d_2">
      <g>
       <use style="stroke:#000000;stroke-width:0.8;" x="120.886705" xlink:href="#m9d016a0782" y="273.312"/>
      </g>
     </g>
     <g id="text_2">
      <!-- 0.2 -->
      <g transform="translate(112.935142 287.910437)scale(0.1 -0.1)">
       <defs>
        <path d="M 19.1875 8.296875 
L 53.609375 8.296875 
L 53.609375 0 
L 7.328125 0 
L 7.328125 8.296875 
Q 12.9375 14.109375 22.625 23.890625 
Q 32.328125 33.6875 34.8125 36.53125 
Q 39.546875 41.84375 41.421875 45.53125 
Q 43.3125 49.21875 43.3125 52.78125 
Q 43.3125 58.59375 39.234375 62.25 
Q 35.15625 65.921875 28.609375 65.921875 
Q 23.96875 65.921875 18.8125 64.3125 
Q 13.671875 62.703125 7.8125 59.421875 
L 7.8125 69.390625 
Q 13.765625 71.78125 18.9375 73 
Q 24.125 74.21875 28.421875 74.21875 
Q 39.75 74.21875 46.484375 68.546875 
Q 53.21875 62.890625 53.21875 53.421875 
Q 53.21875 48.921875 51.53125 44.890625 
Q 49.859375 40.875 45.40625 35.40625 
Q 44.1875 33.984375 37.640625 27.21875 
Q 31.109375 20.453125 19.1875 8.296875 
z
" id="DejaVuSans-50"/>
       </defs>
       <use xlink:href="#DejaVuSans-48"/>
       <use x="63.623047" xlink:href="#DejaVuSans-46"/>
       <use x="95.410156" xlink:href="#DejaVuSans-50"/>
      </g>
     </g>
    </g>
    <g id="xtick_3">
     <g id="line2d_3">
      <g>
       <use style="stroke:#000000;stroke-width:0.8;" x="188.523068" xlink:href="#m9d016a0782" y="273.312"/>
      </g>
     </g>
     <g id="text_3">
      <!-- 0.4 -->
      <g transform="translate(180.571506 287.910437)scale(0.1 -0.1)">
       <defs>
        <path d="M 37.796875 64.3125 
L 12.890625 25.390625 
L 37.796875 25.390625 
z
M 35.203125 72.90625 
L 47.609375 72.90625 
L 47.609375 25.390625 
L 58.015625 25.390625 
L 58.015625 17.1875 
L 47.609375 17.1875 
L 47.609375 0 
L 37.796875 0 
L 37.796875 17.1875 
L 4.890625 17.1875 
L 4.890625 26.703125 
z
" id="DejaVuSans-52"/>
       </defs>
       <use xlink:href="#DejaVuSans-48"/>
       <use x="63.623047" xlink:href="#DejaVuSans-46"/>
       <use x="95.410156" xlink:href="#DejaVuSans-52"/>
      </g>
     </g>
    </g>
    <g id="xtick_4">
     <g id="line2d_4">
      <g>
       <use style="stroke:#000000;stroke-width:0.8;" x="256.159432" xlink:href="#m9d016a0782" y="273.312"/>
      </g>
     </g>
     <g id="text_4">
      <!-- 0.6 -->
      <g transform="translate(248.207869 287.910437)scale(0.1 -0.1)">
       <defs>
        <path d="M 33.015625 40.375 
Q 26.375 40.375 22.484375 35.828125 
Q 18.609375 31.296875 18.609375 23.390625 
Q 18.609375 15.53125 22.484375 10.953125 
Q 26.375 6.390625 33.015625 6.390625 
Q 39.65625 6.390625 43.53125 10.953125 
Q 47.40625 15.53125 47.40625 23.390625 
Q 47.40625 31.296875 43.53125 35.828125 
Q 39.65625 40.375 33.015625 40.375 
z
M 52.59375 71.296875 
L 52.59375 62.3125 
Q 48.875 64.0625 45.09375 64.984375 
Q 41.3125 65.921875 37.59375 65.921875 
Q 27.828125 65.921875 22.671875 59.328125 
Q 17.53125 52.734375 16.796875 39.40625 
Q 19.671875 43.65625 24.015625 45.921875 
Q 28.375 48.1875 33.59375 48.1875 
Q 44.578125 48.1875 50.953125 41.515625 
Q 57.328125 34.859375 57.328125 23.390625 
Q 57.328125 12.15625 50.6875 5.359375 
Q 44.046875 -1.421875 33.015625 -1.421875 
Q 20.359375 -1.421875 13.671875 8.265625 
Q 6.984375 17.96875 6.984375 36.375 
Q 6.984375 53.65625 15.1875 63.9375 
Q 23.390625 74.21875 37.203125 74.21875 
Q 40.921875 74.21875 44.703125 73.484375 
Q 48.484375 72.75 52.59375 71.296875 
z
" id="DejaVuSans-54"/>
       </defs>
       <use xlink:href="#DejaVuSans-48"/>
       <use x="63.623047" xlink:href="#DejaVuSans-46"/>
       <use x="95.410156" xlink:href="#DejaVuSans-54"/>
      </g>
     </g>
    </g>
    <g id="xtick_5">
     <g id="line2d_5">
      <g>
       <use style="stroke:#000000;stroke-width:0.8;" x="323.795795" xlink:href="#m9d016a0782" y="273.312"/>
      </g>
     </g>
     <g id="text_5">
      <!-- 0.8 -->
      <g transform="translate(315.844233 287.910437)scale(0.1 -0.1)">
       <defs>
        <path d="M 31.78125 34.625 
Q 24.75 34.625 20.71875 30.859375 
Q 16.703125 27.09375 16.703125 20.515625 
Q 16.703125 13.921875 20.71875 10.15625 
Q 24.75 6.390625 31.78125 6.390625 
Q 38.8125 6.390625 42.859375 10.171875 
Q 46.921875 13.96875 46.921875 20.515625 
Q 46.921875 27.09375 42.890625 30.859375 
Q 38.875 34.625 31.78125 34.625 
z
M 21.921875 38.8125 
Q 15.578125 40.375 12.03125 44.71875 
Q 8.5 49.078125 8.5 55.328125 
Q 8.5 64.0625 14.71875 69.140625 
Q 20.953125 74.21875 31.78125 74.21875 
Q 42.671875 74.21875 48.875 69.140625 
Q 55.078125 64.0625 55.078125 55.328125 
Q 55.078125 49.078125 51.53125 44.71875 
Q 48 40.375 41.703125 38.8125 
Q 48.828125 37.15625 52.796875 32.3125 
Q 56.78125 27.484375 56.78125 20.515625 
Q 56.78125 9.90625 50.3125 4.234375 
Q 43.84375 -1.421875 31.78125 -1.421875 
Q 19.734375 -1.421875 13.25 4.234375 
Q 6.78125 9.90625 6.78125 20.515625 
Q 6.78125 27.484375 10.78125 32.3125 
Q 14.796875 37.15625 21.921875 38.8125 
z
M 18.3125 54.390625 
Q 18.3125 48.734375 21.84375 45.5625 
Q 25.390625 42.390625 31.78125 42.390625 
Q 38.140625 42.390625 41.71875 45.5625 
Q 45.3125 48.734375 45.3125 54.390625 
Q 45.3125 60.0625 41.71875 63.234375 
Q 38.140625 66.40625 31.78125 66.40625 
Q 25.390625 66.40625 21.84375 63.234375 
Q 18.3125 60.0625 18.3125 54.390625 
z
" id="DejaVuSans-56"/>
       </defs>
       <use xlink:href="#DejaVuSans-48"/>
       <use x="63.623047" xlink:href="#DejaVuSans-46"/>
       <use x="95.410156" xlink:href="#DejaVuSans-56"/>
      </g>
     </g>
    </g>
    <g id="xtick_6">
     <g id="line2d_6">
      <g>
       <use style="stroke:#000000;stroke-width:0.8;" x="391.432159" xlink:href="#m9d016a0782" y="273.312"/>
      </g>
     </g>
     <g id="text_6">
      <!-- 1.0 -->
      <g transform="translate(383.480597 287.910437)scale(0.1 -0.1)">
       <defs>
        <path d="M 12.40625 8.296875 
L 28.515625 8.296875 
L 28.515625 63.921875 
L 10.984375 60.40625 
L 10.984375 69.390625 
L 28.421875 72.90625 
L 38.28125 72.90625 
L 38.28125 8.296875 
L 54.390625 8.296875 
L 54.390625 0 
L 12.40625 0 
z
" id="DejaVuSans-49"/>
       </defs>
       <use xlink:href="#DejaVuSans-49"/>
       <use x="63.623047" xlink:href="#DejaVuSans-46"/>
       <use x="95.410156" xlink:href="#DejaVuSans-48"/>
      </g>
     </g>
    </g>
    <g id="text_7">
     <!-- cutoff -->
     <g transform="translate(207.883438 301.588562)scale(0.1 -0.1)">
      <defs>
       <path d="M 48.78125 52.59375 
L 48.78125 44.1875 
Q 44.96875 46.296875 41.140625 47.34375 
Q 37.3125 48.390625 33.40625 48.390625 
Q 24.65625 48.390625 19.8125 42.84375 
Q 14.984375 37.3125 14.984375 27.296875 
Q 14.984375 17.28125 19.8125 11.734375 
Q 24.65625 6.203125 33.40625 6.203125 
Q 37.3125 6.203125 41.140625 7.25 
Q 44.96875 8.296875 48.78125 10.40625 
L 48.78125 2.09375 
Q 45.015625 0.34375 40.984375 -0.53125 
Q 36.96875 -1.421875 32.421875 -1.421875 
Q 20.0625 -1.421875 12.78125 6.34375 
Q 5.515625 14.109375 5.515625 27.296875 
Q 5.515625 40.671875 12.859375 48.328125 
Q 20.21875 56 33.015625 56 
Q 37.15625 56 41.109375 55.140625 
Q 45.0625 54.296875 48.78125 52.59375 
z
" id="DejaVuSans-99"/>
       <path d="M 8.5 21.578125 
L 8.5 54.6875 
L 17.484375 54.6875 
L 17.484375 21.921875 
Q 17.484375 14.15625 20.5 10.265625 
Q 23.53125 6.390625 29.59375 6.390625 
Q 36.859375 6.390625 41.078125 11.03125 
Q 45.3125 15.671875 45.3125 23.6875 
L 45.3125 54.6875 
L 54.296875 54.6875 
L 54.296875 0 
L 45.3125 0 
L 45.3125 8.40625 
Q 42.046875 3.421875 37.71875 1 
Q 33.40625 -1.421875 27.6875 -1.421875 
Q 18.265625 -1.421875 13.375 4.4375 
Q 8.5 10.296875 8.5 21.578125 
z
M 31.109375 56 
z
" id="DejaVuSans-117"/>
       <path d="M 18.3125 70.21875 
L 18.3125 54.6875 
L 36.8125 54.6875 
L 36.8125 47.703125 
L 18.3125 47.703125 
L 18.3125 18.015625 
Q 18.3125 11.328125 20.140625 9.421875 
Q 21.96875 7.515625 27.59375 7.515625 
L 36.8125 7.515625 
L 36.8125 0 
L 27.59375 0 
Q 17.1875 0 13.234375 3.875 
Q 9.28125 7.765625 9.28125 18.015625 
L 9.28125 47.703125 
L 2.6875 47.703125 
L 2.6875 54.6875 
L 9.28125 54.6875 
L 9.28125 70.21875 
z
" id="DejaVuSans-116"/>
       <path d="M 30.609375 48.390625 
Q 23.390625 48.390625 19.1875 42.75 
Q 14.984375 37.109375 14.984375 27.296875 
Q 14.984375 17.484375 19.15625 11.84375 
Q 23.34375 6.203125 30.609375 6.203125 
Q 37.796875 6.203125 41.984375 11.859375 
Q 46.1875 17.53125 46.1875 27.296875 
Q 46.1875 37.015625 41.984375 42.703125 
Q 37.796875 48.390625 30.609375 48.390625 
z
M 30.609375 56 
Q 42.328125 56 49.015625 48.375 
Q 55.71875 40.765625 55.71875 27.296875 
Q 55.71875 13.875 49.015625 6.21875 
Q 42.328125 -1.421875 30.609375 -1.421875 
Q 18.84375 -1.421875 12.171875 6.21875 
Q 5.515625 13.875 5.515625 27.296875 
Q 5.515625 40.765625 12.171875 48.375 
Q 18.84375 56 30.609375 56 
z
" id="DejaVuSans-111"/>
       <path d="M 37.109375 75.984375 
L 37.109375 68.5 
L 28.515625 68.5 
Q 23.6875 68.5 21.796875 66.546875 
Q 19.921875 64.59375 19.921875 59.515625 
L 19.921875 54.6875 
L 34.71875 54.6875 
L 34.71875 47.703125 
L 19.921875 47.703125 
L 19.921875 0 
L 10.890625 0 
L 10.890625 47.703125 
L 2.296875 47.703125 
L 2.296875 54.6875 
L 10.890625 54.6875 
L 10.890625 58.5 
Q 10.890625 67.625 15.140625 71.796875 
Q 19.390625 75.984375 28.609375 75.984375 
z
" id="DejaVuSans-102"/>
      </defs>
      <use xlink:href="#DejaVuSans-99"/>
      <use x="54.980469" xlink:href="#DejaVuSans-117"/>
      <use x="118.359375" xlink:href="#DejaVuSans-116"/>
      <use x="157.568359" xlink:href="#DejaVuSans-111"/>
      <use x="218.75" xlink:href="#DejaVuSans-102"/>
      <use x="253.955078" xlink:href="#DejaVuSans-102"/>
     </g>
    </g>
   </g>
   <g id="matplotlib.axis_2">
    <g id="ytick_1">
     <g id="line2d_7">
      <defs>
       <path d="M 0 0 
L -3.5 0 
" id="m1e6cf5f29a" style="stroke:#000000;stroke-width:0.8;"/>
      </defs>
      <g>
       <use style="stroke:#000000;stroke-width:0.8;" x="43.78125" xlink:href="#m1e6cf5f29a" y="267.361851"/>
      </g>
     </g>
     <g id="text_8">
      <!-- 0.1 -->
      <g transform="translate(20.878125 271.161069)scale(0.1 -0.1)">
       <use xlink:href="#DejaVuSans-48"/>
       <use x="63.623047" xlink:href="#DejaVuSans-46"/>
       <use x="95.410156" xlink:href="#DejaVuSans-49"/>
      </g>
     </g>
    </g>
    <g id="ytick_2">
     <g id="line2d_8">
      <g>
       <use style="stroke:#000000;stroke-width:0.8;" x="43.78125" xlink:href="#m1e6cf5f29a" y="222.29228"/>
      </g>
     </g>
     <g id="text_9">
      <!-- 0.2 -->
      <g transform="translate(20.878125 226.091498)scale(0.1 -0.1)">
       <use xlink:href="#DejaVuSans-48"/>
       <use x="63.623047" xlink:href="#DejaVuSans-46"/>
       <use x="95.410156" xlink:href="#DejaVuSans-50"/>
      </g>
     </g>
    </g>
    <g id="ytick_3">
     <g id="line2d_9">
      <g>
       <use style="stroke:#000000;stroke-width:0.8;" x="43.78125" xlink:href="#m1e6cf5f29a" y="177.222708"/>
      </g>
     </g>
     <g id="text_10">
      <!-- 0.3 -->
      <g transform="translate(20.878125 181.021927)scale(0.1 -0.1)">
       <defs>
        <path d="M 40.578125 39.3125 
Q 47.65625 37.796875 51.625 33 
Q 55.609375 28.21875 55.609375 21.1875 
Q 55.609375 10.40625 48.1875 4.484375 
Q 40.765625 -1.421875 27.09375 -1.421875 
Q 22.515625 -1.421875 17.65625 -0.515625 
Q 12.796875 0.390625 7.625 2.203125 
L 7.625 11.71875 
Q 11.71875 9.328125 16.59375 8.109375 
Q 21.484375 6.890625 26.8125 6.890625 
Q 36.078125 6.890625 40.9375 10.546875 
Q 45.796875 14.203125 45.796875 21.1875 
Q 45.796875 27.640625 41.28125 31.265625 
Q 36.765625 34.90625 28.71875 34.90625 
L 20.21875 34.90625 
L 20.21875 43.015625 
L 29.109375 43.015625 
Q 36.375 43.015625 40.234375 45.921875 
Q 44.09375 48.828125 44.09375 54.296875 
Q 44.09375 59.90625 40.109375 62.90625 
Q 36.140625 65.921875 28.71875 65.921875 
Q 24.65625 65.921875 20.015625 65.03125 
Q 15.375 64.15625 9.8125 62.3125 
L 9.8125 71.09375 
Q 15.4375 72.65625 20.34375 73.4375 
Q 25.25 74.21875 29.59375 74.21875 
Q 40.828125 74.21875 47.359375 69.109375 
Q 53.90625 64.015625 53.90625 55.328125 
Q 53.90625 49.265625 50.4375 45.09375 
Q 46.96875 40.921875 40.578125 39.3125 
z
" id="DejaVuSans-51"/>
       </defs>
       <use xlink:href="#DejaVuSans-48"/>
       <use x="63.623047" xlink:href="#DejaVuSans-46"/>
       <use x="95.410156" xlink:href="#DejaVuSans-51"/>
      </g>
     </g>
    </g>
    <g id="ytick_4">
     <g id="line2d_10">
      <g>
       <use style="stroke:#000000;stroke-width:0.8;" x="43.78125" xlink:href="#m1e6cf5f29a" y="132.153137"/>
      </g>
     </g>
     <g id="text_11">
      <!-- 0.4 -->
      <g transform="translate(20.878125 135.952356)scale(0.1 -0.1)">
       <use xlink:href="#DejaVuSans-48"/>
       <use x="63.623047" xlink:href="#DejaVuSans-46"/>
       <use x="95.410156" xlink:href="#DejaVuSans-52"/>
      </g>
     </g>
    </g>
    <g id="ytick_5">
     <g id="line2d_11">
      <g>
       <use style="stroke:#000000;stroke-width:0.8;" x="43.78125" xlink:href="#m1e6cf5f29a" y="87.083566"/>
      </g>
     </g>
     <g id="text_12">
      <!-- 0.5 -->
      <g transform="translate(20.878125 90.882785)scale(0.1 -0.1)">
       <defs>
        <path d="M 10.796875 72.90625 
L 49.515625 72.90625 
L 49.515625 64.59375 
L 19.828125 64.59375 
L 19.828125 46.734375 
Q 21.96875 47.46875 24.109375 47.828125 
Q 26.265625 48.1875 28.421875 48.1875 
Q 40.625 48.1875 47.75 41.5 
Q 54.890625 34.8125 54.890625 23.390625 
Q 54.890625 11.625 47.5625 5.09375 
Q 40.234375 -1.421875 26.90625 -1.421875 
Q 22.3125 -1.421875 17.546875 -0.640625 
Q 12.796875 0.140625 7.71875 1.703125 
L 7.71875 11.625 
Q 12.109375 9.234375 16.796875 8.0625 
Q 21.484375 6.890625 26.703125 6.890625 
Q 35.15625 6.890625 40.078125 11.328125 
Q 45.015625 15.765625 45.015625 23.390625 
Q 45.015625 31 40.078125 35.4375 
Q 35.15625 39.890625 26.703125 39.890625 
Q 22.75 39.890625 18.8125 39.015625 
Q 14.890625 38.140625 10.796875 36.28125 
z
" id="DejaVuSans-53"/>
       </defs>
       <use xlink:href="#DejaVuSans-48"/>
       <use x="63.623047" xlink:href="#DejaVuSans-46"/>
       <use x="95.410156" xlink:href="#DejaVuSans-53"/>
      </g>
     </g>
    </g>
    <g id="ytick_6">
     <g id="line2d_12">
      <g>
       <use style="stroke:#000000;stroke-width:0.8;" x="43.78125" xlink:href="#m1e6cf5f29a" y="42.013995"/>
      </g>
     </g>
     <g id="text_13">
      <!-- 0.6 -->
      <g transform="translate(20.878125 45.813214)scale(0.1 -0.1)">
       <use xlink:href="#DejaVuSans-48"/>
       <use x="63.623047" xlink:href="#DejaVuSans-46"/>
       <use x="95.410156" xlink:href="#DejaVuSans-54"/>
      </g>
     </g>
    </g>
    <g id="text_14">
     <!-- performance -->
     <g transform="translate(14.798438 172.278656)rotate(-90)scale(0.1 -0.1)">
      <defs>
       <path d="M 18.109375 8.203125 
L 18.109375 -20.796875 
L 9.078125 -20.796875 
L 9.078125 54.6875 
L 18.109375 54.6875 
L 18.109375 46.390625 
Q 20.953125 51.265625 25.265625 53.625 
Q 29.59375 56 35.59375 56 
Q 45.5625 56 51.78125 48.09375 
Q 58.015625 40.1875 58.015625 27.296875 
Q 58.015625 14.40625 51.78125 6.484375 
Q 45.5625 -1.421875 35.59375 -1.421875 
Q 29.59375 -1.421875 25.265625 0.953125 
Q 20.953125 3.328125 18.109375 8.203125 
z
M 48.6875 27.296875 
Q 48.6875 37.203125 44.609375 42.84375 
Q 40.53125 48.484375 33.40625 48.484375 
Q 26.265625 48.484375 22.1875 42.84375 
Q 18.109375 37.203125 18.109375 27.296875 
Q 18.109375 17.390625 22.1875 11.75 
Q 26.265625 6.109375 33.40625 6.109375 
Q 40.53125 6.109375 44.609375 11.75 
Q 48.6875 17.390625 48.6875 27.296875 
z
" id="DejaVuSans-112"/>
       <path d="M 56.203125 29.59375 
L 56.203125 25.203125 
L 14.890625 25.203125 
Q 15.484375 15.921875 20.484375 11.0625 
Q 25.484375 6.203125 34.421875 6.203125 
Q 39.59375 6.203125 44.453125 7.46875 
Q 49.3125 8.734375 54.109375 11.28125 
L 54.109375 2.78125 
Q 49.265625 0.734375 44.1875 -0.34375 
Q 39.109375 -1.421875 33.890625 -1.421875 
Q 20.796875 -1.421875 13.15625 6.1875 
Q 5.515625 13.8125 5.515625 26.8125 
Q 5.515625 40.234375 12.765625 48.109375 
Q 20.015625 56 32.328125 56 
Q 43.359375 56 49.78125 48.890625 
Q 56.203125 41.796875 56.203125 29.59375 
z
M 47.21875 32.234375 
Q 47.125 39.59375 43.09375 43.984375 
Q 39.0625 48.390625 32.421875 48.390625 
Q 24.90625 48.390625 20.390625 44.140625 
Q 15.875 39.890625 15.1875 32.171875 
z
" id="DejaVuSans-101"/>
       <path d="M 41.109375 46.296875 
Q 39.59375 47.171875 37.8125 47.578125 
Q 36.03125 48 33.890625 48 
Q 26.265625 48 22.1875 43.046875 
Q 18.109375 38.09375 18.109375 28.8125 
L 18.109375 0 
L 9.078125 0 
L 9.078125 54.6875 
L 18.109375 54.6875 
L 18.109375 46.1875 
Q 20.953125 51.171875 25.484375 53.578125 
Q 30.03125 56 36.53125 56 
Q 37.453125 56 38.578125 55.875 
Q 39.703125 55.765625 41.0625 55.515625 
z
" id="DejaVuSans-114"/>
       <path d="M 52 44.1875 
Q 55.375 50.25 60.0625 53.125 
Q 64.75 56 71.09375 56 
Q 79.640625 56 84.28125 50.015625 
Q 88.921875 44.046875 88.921875 33.015625 
L 88.921875 0 
L 79.890625 0 
L 79.890625 32.71875 
Q 79.890625 40.578125 77.09375 44.375 
Q 74.3125 48.1875 68.609375 48.1875 
Q 61.625 48.1875 57.5625 43.546875 
Q 53.515625 38.921875 53.515625 30.90625 
L 53.515625 0 
L 44.484375 0 
L 44.484375 32.71875 
Q 44.484375 40.625 41.703125 44.40625 
Q 38.921875 48.1875 33.109375 48.1875 
Q 26.21875 48.1875 22.15625 43.53125 
Q 18.109375 38.875 18.109375 30.90625 
L 18.109375 0 
L 9.078125 0 
L 9.078125 54.6875 
L 18.109375 54.6875 
L 18.109375 46.1875 
Q 21.1875 51.21875 25.484375 53.609375 
Q 29.78125 56 35.6875 56 
Q 41.65625 56 45.828125 52.96875 
Q 50 49.953125 52 44.1875 
z
" id="DejaVuSans-109"/>
       <path d="M 34.28125 27.484375 
Q 23.390625 27.484375 19.1875 25 
Q 14.984375 22.515625 14.984375 16.5 
Q 14.984375 11.71875 18.140625 8.90625 
Q 21.296875 6.109375 26.703125 6.109375 
Q 34.1875 6.109375 38.703125 11.40625 
Q 43.21875 16.703125 43.21875 25.484375 
L 43.21875 27.484375 
z
M 52.203125 31.203125 
L 52.203125 0 
L 43.21875 0 
L 43.21875 8.296875 
Q 40.140625 3.328125 35.546875 0.953125 
Q 30.953125 -1.421875 24.3125 -1.421875 
Q 15.921875 -1.421875 10.953125 3.296875 
Q 6 8.015625 6 15.921875 
Q 6 25.140625 12.171875 29.828125 
Q 18.359375 34.515625 30.609375 34.515625 
L 43.21875 34.515625 
L 43.21875 35.40625 
Q 43.21875 41.609375 39.140625 45 
Q 35.0625 48.390625 27.6875 48.390625 
Q 23 48.390625 18.546875 47.265625 
Q 14.109375 46.140625 10.015625 43.890625 
L 10.015625 52.203125 
Q 14.9375 54.109375 19.578125 55.046875 
Q 24.21875 56 28.609375 56 
Q 40.484375 56 46.34375 49.84375 
Q 52.203125 43.703125 52.203125 31.203125 
z
" id="DejaVuSans-97"/>
       <path d="M 54.890625 33.015625 
L 54.890625 0 
L 45.90625 0 
L 45.90625 32.71875 
Q 45.90625 40.484375 42.875 44.328125 
Q 39.84375 48.1875 33.796875 48.1875 
Q 26.515625 48.1875 22.3125 43.546875 
Q 18.109375 38.921875 18.109375 30.90625 
L 18.109375 0 
L 9.078125 0 
L 9.078125 54.6875 
L 18.109375 54.6875 
L 18.109375 46.1875 
Q 21.34375 51.125 25.703125 53.5625 
Q 30.078125 56 35.796875 56 
Q 45.21875 56 50.046875 50.171875 
Q 54.890625 44.34375 54.890625 33.015625 
z
" id="DejaVuSans-110"/>
      </defs>
      <use xlink:href="#DejaVuSans-112"/>
      <use x="63.476562" xlink:href="#DejaVuSans-101"/>
      <use x="125" xlink:href="#DejaVuSans-114"/>
      <use x="166.113281" xlink:href="#DejaVuSans-102"/>
      <use x="201.318359" xlink:href="#DejaVuSans-111"/>
      <use x="262.5" xlink:href="#DejaVuSans-114"/>
      <use x="301.863281" xlink:href="#DejaVuSans-109"/>
      <use x="399.275391" xlink:href="#DejaVuSans-97"/>
      <use x="460.554688" xlink:href="#DejaVuSans-110"/>
      <use x="523.933594" xlink:href="#DejaVuSans-99"/>
      <use x="578.914062" xlink:href="#DejaVuSans-101"/>
     </g>
    </g>
   </g>
   <g id="line2d_13">
    <path clip-path="url(#peec11de50a)" d="M 60.013977 45.069559 
L 66.777614 39.74158 
L 73.54125 29.349818 
L 80.304886 29.349818 
L 87.068523 24.281705 
L 93.832159 39.74158 
L 100.595795 34.5024 
L 107.359432 34.5024 
L 114.123068 34.5024 
L 120.886705 45.069559 
L 127.650341 61.609461 
L 134.413977 67.316211 
L 141.177614 97.420624 
L 147.94125 97.420624 
L 154.704886 67.316211 
L 161.468523 67.316211 
L 168.232159 67.316211 
L 174.995795 67.316211 
L 181.759432 91.1808 
L 188.523068 67.316211 
L 195.286705 97.420624 
L 202.050341 97.420624 
L 208.813977 97.420624 
L 215.577614 97.420624 
L 222.34125 130.419692 
L 229.104886 206.949447 
L 235.868523 206.949447 
L 242.632159 206.949447 
L 249.395795 206.949447 
L 256.159432 206.949447 
L 262.923068 206.949447 
L 269.686705 206.949447 
L 276.450341 206.949447 
L 283.213977 206.949447 
L 289.977614 206.949447 
L 296.74125 206.949447 
L 303.504886 206.949447 
L 310.268523 206.949447 
L 317.032159 206.949447 
L 323.795795 206.949447 
L 330.559432 206.949447 
L 337.323068 206.949447 
L 344.086705 206.949447 
L 350.850341 206.949447 
L 357.613977 206.949447 
L 364.377614 206.949447 
L 371.14125 206.949447 
L 377.904886 206.949447 
L 384.668523 206.949447 
" style="fill:none;stroke:#f26b38;stroke-dasharray:7.4,3.2;stroke-dashoffset:0;stroke-width:2;"/>
   </g>
   <g id="line2d_14">
    <path clip-path="url(#peec11de50a)" d="M 60.013977 97.420624 
L 66.777614 85.053405 
L 73.54125 85.053405 
L 80.304886 91.1808 
L 87.068523 97.420624 
L 93.832159 103.776 
L 100.595795 103.776 
L 107.359432 103.776 
L 114.123068 103.776 
L 120.886705 91.1808 
L 127.650341 67.316211 
L 134.413977 137.403961 
L 141.177614 137.403961 
L 147.94125 137.403961 
L 154.704886 137.403961 
L 161.468523 137.403961 
L 168.232159 261.216 
L 174.995795 261.216 
L 181.759432 261.216 
L 188.523068 261.216 
L 195.286705 261.216 
L 202.050341 261.216 
L 208.813977 261.216 
L 215.577614 261.216 
L 222.34125 261.216 
L 229.104886 261.216 
L 235.868523 261.216 
L 242.632159 261.216 
L 249.395795 261.216 
L 256.159432 261.216 
L 262.923068 261.216 
L 269.686705 261.216 
L 276.450341 261.216 
L 283.213977 261.216 
L 289.977614 261.216 
L 296.74125 261.216 
L 303.504886 261.216 
L 310.268523 261.216 
L 317.032159 261.216 
L 323.795795 261.216 
L 330.559432 261.216 
L 337.323068 261.216 
L 344.086705 261.216 
L 350.850341 261.216 
L 357.613977 261.216 
L 364.377614 261.216 
L 371.14125 261.216 
L 377.904886 261.216 
L 384.668523 261.216 
" style="fill:none;stroke:#2f9599;stroke-dasharray:2,3.3;stroke-dashoffset:0;stroke-width:2;"/>
   </g>
   <g id="line2d_15">
    <path clip-path="url(#peec11de50a)" d="M 60.013977 24.281705 
L 66.777614 24.281705 
L 73.54125 24.281705 
L 80.304886 24.281705 
L 87.068523 29.349818 
L 93.832159 39.74158 
L 100.595795 34.5024 
L 107.359432 34.5024 
L 114.123068 34.5024 
L 120.886705 19.296 
L 127.650341 19.296 
L 134.413977 24.281705 
L 141.177614 24.281705 
L 147.94125 24.281705 
L 154.704886 19.296 
L 161.468523 34.5024 
L 168.232159 34.5024 
L 174.995795 29.349818 
L 181.759432 29.349818 
L 188.523068 29.349818 
L 195.286705 34.5024 
L 202.050341 34.5024 
L 208.813977 34.5024 
L 215.577614 56.001103 
L 222.34125 61.609461 
L 229.104886 61.609461 
L 235.868523 34.5024 
L 242.632159 45.069559 
L 249.395795 45.069559 
L 256.159432 67.316211 
L 262.923068 50.488615 
L 269.686705 50.488615 
L 276.450341 50.488615 
L 283.213977 206.949447 
L 289.977614 206.949447 
L 296.74125 206.949447 
L 303.504886 206.949447 
L 310.268523 206.949447 
L 317.032159 206.949447 
L 323.795795 206.949447 
L 330.559432 206.949447 
L 337.323068 206.949447 
L 344.086705 206.949447 
L 350.850341 206.949447 
L 357.613977 206.949447 
L 364.377614 206.949447 
L 371.14125 206.949447 
L 377.904886 206.949447 
L 384.668523 206.949447 
" style="fill:none;stroke:#a7226e;stroke-dasharray:12.8,3.2,2,3.2;stroke-dashoffset:0;stroke-width:2;"/>
   </g>
   <g id="patch_3">
    <path d="M 43.78125 273.312 
L 43.78125 7.2 
" style="fill:none;stroke:#000000;stroke-linecap:square;stroke-linejoin:miter;stroke-width:0.8;"/>
   </g>
   <g id="patch_4">
    <path d="M 400.90125 273.312 
L 400.90125 7.2 
" style="fill:none;stroke:#000000;stroke-linecap:square;stroke-linejoin:miter;stroke-width:0.8;"/>
   </g>
   <g id="patch_5">
    <path d="M 43.78125 273.312 
L 400.90125 273.312 
" style="fill:none;stroke:#000000;stroke-linecap:square;stroke-linejoin:miter;stroke-width:0.8;"/>
   </g>
   <g id="patch_6">
    <path d="M 43.78125 7.2 
L 400.90125 7.2 
" style="fill:none;stroke:#000000;stroke-linecap:square;stroke-linejoin:miter;stroke-width:0.8;"/>
   </g>
   <g id="legend_1">
    <g id="patch_7">
     <path d="M 315.427559 43.890912 
L 396.04325 43.890912 
Q 397.43125 43.890912 397.43125 42.502912 
L 397.43125 12.058 
Q 397.43125 10.67 396.04325 10.67 
L 315.427559 10.67 
Q 314.039559 10.67 314.039559 12.058 
L 314.039559 42.502912 
Q 314.039559 43.890912 315.427559 43.890912 
z
" style="fill:#ffffff;opacity:0.8;stroke:#cccccc;stroke-linejoin:miter;"/>
    </g>
    <g id="PathCollection_5">
     <defs>
      <path d="M 0 3 
C 0.795609 3 1.55874 2.683901 2.12132 2.12132 
C 2.683901 1.55874 3 0.795609 3 0 
C 3 -0.795609 2.683901 -1.55874 2.12132 -2.12132 
C 1.55874 -2.683901 0.795609 -3 0 -3 
C -0.795609 -3 -1.55874 -2.683901 -2.12132 -2.12132 
C -2.683901 -1.55874 -3 -0.795609 -3 0 
C -3 0.795609 -2.683901 1.55874 -2.12132 2.12132 
C -1.55874 2.683901 -0.795609 3 0 3 
z
" id="mc64f4586d9" style="stroke:#f26b38;"/>
     </defs>
     <g>
      <use style="fill:#f26b38;stroke:#f26b38;" x="323.755559" xlink:href="#mc64f4586d9" y="16.897566"/>
     </g>
    </g>
    <g id="text_15">
     <!-- mean_err -->
     <g transform="translate(336.247559 18.719316)scale(0.0694 -0.0694)">
      <defs>
       <path d="M 50.984375 -16.609375 
L 50.984375 -23.578125 
L -0.984375 -23.578125 
L -0.984375 -16.609375 
z
" id="DejaVuSans-95"/>
      </defs>
      <use xlink:href="#DejaVuSans-109"/>
      <use x="97.412109" xlink:href="#DejaVuSans-101"/>
      <use x="158.935547" xlink:href="#DejaVuSans-97"/>
      <use x="220.214844" xlink:href="#DejaVuSans-110"/>
      <use x="283.59375" xlink:href="#DejaVuSans-95"/>
      <use x="333.59375" xlink:href="#DejaVuSans-101"/>
      <use x="395.117188" xlink:href="#DejaVuSans-114"/>
      <use x="434.480469" xlink:href="#DejaVuSans-114"/>
     </g>
    </g>
    <g id="PathCollection_6">
     <defs>
      <path d="M -1.5 3 
L 0 1.5 
L 1.5 3 
L 3 1.5 
L 1.5 0 
L 3 -1.5 
L 1.5 -3 
L 0 -1.5 
L -1.5 -3 
L -3 -1.5 
L -1.5 0 
L -3 1.5 
z
" id="m58e9513fb3" style="stroke:#2f9599;"/>
     </defs>
     <g>
      <use style="fill:#2f9599;stroke:#2f9599;" x="323.755559" xlink:href="#m58e9513fb3" y="27.277203"/>
     </g>
    </g>
    <g id="text_16">
     <!-- mean_sq_err -->
     <g transform="translate(336.247559 29.098953)scale(0.0694 -0.0694)">
      <defs>
       <path d="M 44.28125 53.078125 
L 44.28125 44.578125 
Q 40.484375 46.53125 36.375 47.5 
Q 32.28125 48.484375 27.875 48.484375 
Q 21.1875 48.484375 17.84375 46.4375 
Q 14.5 44.390625 14.5 40.28125 
Q 14.5 37.15625 16.890625 35.375 
Q 19.28125 33.59375 26.515625 31.984375 
L 29.59375 31.296875 
Q 39.15625 29.25 43.1875 25.515625 
Q 47.21875 21.78125 47.21875 15.09375 
Q 47.21875 7.46875 41.1875 3.015625 
Q 35.15625 -1.421875 24.609375 -1.421875 
Q 20.21875 -1.421875 15.453125 -0.5625 
Q 10.6875 0.296875 5.421875 2 
L 5.421875 11.28125 
Q 10.40625 8.6875 15.234375 7.390625 
Q 20.0625 6.109375 24.8125 6.109375 
Q 31.15625 6.109375 34.5625 8.28125 
Q 37.984375 10.453125 37.984375 14.40625 
Q 37.984375 18.0625 35.515625 20.015625 
Q 33.0625 21.96875 24.703125 23.78125 
L 21.578125 24.515625 
Q 13.234375 26.265625 9.515625 29.90625 
Q 5.8125 33.546875 5.8125 39.890625 
Q 5.8125 47.609375 11.28125 51.796875 
Q 16.75 56 26.8125 56 
Q 31.78125 56 36.171875 55.265625 
Q 40.578125 54.546875 44.28125 53.078125 
z
" id="DejaVuSans-115"/>
       <path d="M 14.796875 27.296875 
Q 14.796875 17.390625 18.875 11.75 
Q 22.953125 6.109375 30.078125 6.109375 
Q 37.203125 6.109375 41.296875 11.75 
Q 45.40625 17.390625 45.40625 27.296875 
Q 45.40625 37.203125 41.296875 42.84375 
Q 37.203125 48.484375 30.078125 48.484375 
Q 22.953125 48.484375 18.875 42.84375 
Q 14.796875 37.203125 14.796875 27.296875 
z
M 45.40625 8.203125 
Q 42.578125 3.328125 38.25 0.953125 
Q 33.9375 -1.421875 27.875 -1.421875 
Q 17.96875 -1.421875 11.734375 6.484375 
Q 5.515625 14.40625 5.515625 27.296875 
Q 5.515625 40.1875 11.734375 48.09375 
Q 17.96875 56 27.875 56 
Q 33.9375 56 38.25 53.625 
Q 42.578125 51.265625 45.40625 46.390625 
L 45.40625 54.6875 
L 54.390625 54.6875 
L 54.390625 -20.796875 
L 45.40625 -20.796875 
z
" id="DejaVuSans-113"/>
      </defs>
      <use xlink:href="#DejaVuSans-109"/>
      <use x="97.412109" xlink:href="#DejaVuSans-101"/>
      <use x="158.935547" xlink:href="#DejaVuSans-97"/>
      <use x="220.214844" xlink:href="#DejaVuSans-110"/>
      <use x="283.59375" xlink:href="#DejaVuSans-95"/>
      <use x="333.59375" xlink:href="#DejaVuSans-115"/>
      <use x="385.693359" xlink:href="#DejaVuSans-113"/>
      <use x="449.169922" xlink:href="#DejaVuSans-95"/>
      <use x="499.169922" xlink:href="#DejaVuSans-101"/>
      <use x="560.693359" xlink:href="#DejaVuSans-114"/>
      <use x="600.056641" xlink:href="#DejaVuSans-114"/>
     </g>
    </g>
    <g id="PathCollection_7">
     <defs>
      <path d="M -2.12132 -2.12132 
L -2.12132 2.12132 
L 2.12132 2.12132 
L 2.12132 -2.12132 
z
" id="m11409527b3" style="stroke:#a7226e;"/>
     </defs>
     <g>
      <use style="fill:#a7226e;stroke:#a7226e;" x="323.755559" xlink:href="#m11409527b3" y="37.656841"/>
     </g>
    </g>
    <g id="text_17">
     <!-- mean_sqroot_err -->
     <g transform="translate(336.247559 39.478591)scale(0.0694 -0.0694)">
      <use xlink:href="#DejaVuSans-109"/>
      <use x="97.412109" xlink:href="#DejaVuSans-101"/>
      <use x="158.935547" xlink:href="#DejaVuSans-97"/>
      <use x="220.214844" xlink:href="#DejaVuSans-110"/>
      <use x="283.59375" xlink:href="#DejaVuSans-95"/>
      <use x="333.59375" xlink:href="#DejaVuSans-115"/>
      <use x="385.693359" xlink:href="#DejaVuSans-113"/>
      <use x="449.169922" xlink:href="#DejaVuSans-114"/>
      <use x="488.033203" xlink:href="#DejaVuSans-111"/>
      <use x="549.214844" xlink:href="#DejaVuSans-111"/>
      <use x="610.396484" xlink:href="#DejaVuSans-116"/>
      <use x="649.605469" xlink:href="#DejaVuSans-95"/>
      <use x="699.605469" xlink:href="#DejaVuSans-101"/>
      <use x="761.128906" xlink:href="#DejaVuSans-114"/>
      <use x="800.492188" xlink:href="#DejaVuSans-114"/>
     </g>
    </g>
   </g>
  </g>
 </g>
 <defs>
  <clipPath id="peec11de50a">
   <rect height="266.112" width="357.12" x="43.78125" y="7.2"/>
  </clipPath>
 </defs>
</svg>
